<?xml version='1.0' encoding='utf-8'?>
<svg width="110.090001mm" height="54.229597mm" viewBox="-3.867412 -21.831208 84.393131 41.571491" version="1.1" xmlns="http://www.w3.org/2000/svg">
  <g transform="scale(1,-1)" stroke-linecap="round">
    <g fill="none" stroke="rgb(0,0,0)" stroke-width="0.06899247657922404" id="Visible">
      <line x1="0.0" y1="3.136775" x2="28.284271" y2="15.683875" />
      <line x1="0.0" y1="3.136775" x2="42.426407" y2="-15.683875" />
      <line x1="28.284271" y1="15.683875" x2="49.901536" y2="6.094306" />
      <path d="M 72.868933,-1.641625 C 72.720594,-2.285691 72.336309,-2.816164 71.810961,-3.044194" />
      <path d="M 43.096579,-14.848849 C 43.251411,-15.358426 43.170299,-15.75441 42.948123,-15.84795" />
      <path d="M 42.948123,-15.84795 C 42.808896,-15.910584 42.618022,-15.855148 42.426407,-15.683875" />
      <line x1="43.096579" y1="-14.848849" x2="39.307205" y2="1.394587" />
      <line x1="39.307205" y1="1.394587" x2="76.658307" y2="17.963796" />
      <line x1="76.658307" y1="17.963796" x2="72.868933" y2="-1.641625" />
      <line x1="42.426407" y1="-15.683875" x2="43.176632" y2="-15.35107" />
      <line x1="43.096579" y1="-14.848849" x2="72.868933" y2="-1.641625" />
      <line x1="42.948121" y1="-15.847951" x2="71.81096" y2="-3.044195" />
    </g>
    <g fill="none" stroke="rgb(99,99,99)" stroke-width="0.06899247657922404" id="Hidden" stroke-dasharray="0.001752 0.207854">
      <line x1="49.901536" y1="6.094306" x2="70.710678" y2="-3.136775" />
      <path d="M 71.810961,-3.044194 C 71.478879,-3.19238 71.095149,-3.222495 70.710678,-3.136775" />
      <line x1="43.176632" y1="-15.35107" x2="70.710678" y2="-3.136775" />
    </g>
  </g>
</svg>