<?xml version="1.0" encoding="UTF-8" standalone="no"?>
<svg
   xmlns:svg="http://www.w3.org/2000/svg"
   xmlns="http://www.w3.org/2000/svg"
   width="250.0"
   height="250.0"

>
    <g transform="scale(38.27327723098715, -38.27327723098715)   translate(2.90515706125026,-3.2333264604737955)" stroke-width="0.02612789058968724"  fill="none">
       <!-- hidden lines -->
       <g  stroke="rgb(160,160,160)" fill="none" stroke-dasharray="0.02612789058968724,0.02612789058968724" >

       </g>

       <!-- solid lines -->
       <g  stroke="rgb(0,0,0)" fill="none">
			<path d="M-2.121320343559643,-1.2247448713915892 L-2.121320343559643,1.2247448713915892 " />
			<path d="M0.0,2.4494897427831783 L-2.121320343559643,1.224744871391589 " />
			<path d="M2.121320343559643,-1.224744871391589 L0.0,-2.4494897427831783 " />
			<path d="M-2.121320343559643,-1.2247448713915892 L0.0,-2.4494897427831788 " />
			<path d="M-2.121320343559643,1.224744871391589 L0.0,-4.440892098500626e-16 " />
			<path d="M0.0,-2.4494897427831783 L0.0,0.0 " />
			<path d="M-0.3106601717798213,-1.334060272182827 L-1.3106601717798214,0.3979905353860509 " />
			<path d="M0.0,2.4494897427831783 L2.121320343559643,1.224744871391589 " />
			<path d="M2.121320343559643,-1.224744871391589 L2.121320343559643,1.2247448713915894 " />
			<path d="M2.121320343559643,1.2247448713915892 L0.0,-2.220446049250313e-16 " />
			<path d="M-1.0,0.9360697367967762 L0.9999999999999999,0.9360697367967762 " />
			<path d="M0.31066017177982114,-0.7567100029932011 L0.8106601717798214,0.10931540079123786 " />
			<path d="M-0.3106601717798213,-1.334060272182827 L-0.34601551083914867,-1.3544726867060202 " />
			<path d="M-0.8460155108391487,-1.643147821300833 L-0.3460155108391486,-1.3544726867060202 " />
			<path d="M-0.3460155108391487,-1.35447268670602 L-1.3460155108391487,0.3775781208628579 " />
			<path d="M-1.3106601717798214,0.39799053538605045 L-1.3460155108391487,0.37757812086285736 " />
			<path d="M-1.8460155108391487,0.08890298626804449 L-1.3460155108391487,0.3775781208628574 " />
			<path d="M-0.8460155108391487,-1.643147821300833 L-1.8460155108391487,0.08890298626804483 " />
			<path d="M-1.0,0.9360697367967765 L-1.0,0.9768945658431627 " />
			<path d="M-1.0,1.5542448350327884 L-1.0,0.9768945658431626 " />
			<path d="M-1.0,0.9768945658431627 L1.0,0.9768945658431627 " />
			<path d="M1.0,0.9360697367967763 L1.0,0.9768945658431626 " />
			<path d="M1.0,1.5542448350327884 L0.9999999999999999,0.9768945658431626 " />
			<path d="M-1.0,1.5542448350327884 L1.0,1.5542448350327884 " />
			<path d="M0.3106601717798213,-0.756710002993201 L0.34601551083914867,-0.7771224175163941 " />
			<path d="M0.8460155108391487,0.08890298626804458 L0.3460155108391485,-0.7771224175163943 " />
			<path d="M0.8106601717798213,0.1093154007912377 L0.8460155108391487,0.08890298626804455 " />
			<path d="M0.3460155108391487,-0.7771224175163942 L1.346015510839149,-1.3544726867060202 " />
			<path d="M1.8460155108391487,-0.4884472829215814 L1.3460155108391485,-1.3544726867060204 " />
			<path d="M0.8460155108391487,0.08890298626804458 L1.846015510839149,-0.48844728292158135 " />

       </g>
    </g>
    
</svg>
