<?xml version="1.0" encoding="UTF-8" standalone="no"?>
<svg
   width="260.73026"
   height="210.70868"
   version="1.1"
   id="svg234"
   sodipodi:docname="build123d_logo.svg"
   inkscape:version="1.1.2 (0a00cf5339, 2022-02-04)"
   xmlns:inkscape="http://www.inkscape.org/namespaces/inkscape"
   xmlns:sodipodi="http://sodipodi.sourceforge.net/DTD/sodipodi-0.dtd"
   xmlns="http://www.w3.org/2000/svg"
   xmlns:svg="http://www.w3.org/2000/svg">
  <defs
     id="defs238" />
  <sodipodi:namedview
     id="namedview236"
     pagecolor="#ffffff"
     bordercolor="#666666"
     borderopacity="1.0"
     inkscape:pageshadow="2"
     inkscape:pageopacity="0.0"
     inkscape:pagecheckerboard="0"
     showgrid="false"
     inkscape:zoom="1.9407086"
     inkscape:cx="141.70082"
     inkscape:cy="100.7364"
     inkscape:window-width="1526"
     inkscape:window-height="836"
     inkscape:window-x="0"
     inkscape:window-y="0"
     inkscape:window-maximized="1"
     inkscape:current-layer="svg234"
     fit-margin-top="0"
     fit-margin-left="0"
     fit-margin-right="0"
     fit-margin-bottom="30"
     showborder="false" />
  <g
     transform="matrix(14.209516,0,0,-14.209516,0.71047581,119.85432)"
     stroke-width="0.1"
     fill="none"
     id="g232">
    <!-- hidden lines -->
    <g
       stroke="#a0a0a0"
       fill="none"
       stroke-dasharray="0.1, 0.1"
       id="g2" />
    <!-- solid lines -->
    <g
       stroke="#000000"
       fill="none"
       id="g230">
      <path
         d="M 16.743097,8.3291719 17.465574,7.9094914"
         id="path4" />
      <path
         d="M 17.526512,8.384919 18.248989,7.9652386"
         id="path6" />
      <path
         d="m 16.743097,8.3291719 0.783415,0.055747"
         id="path8" />
      <path
         d="m 17.465574,7.9094914 0.783415,0.055747"
         id="path10" />
      <path
         d="M 18.248989,7.9652386 V 0.82749095"
         id="path12" />
      <path
         d="M 17.188743,0.9879466 17.550528,0.77778903"
         id="path14" />
      <path
         d="M 18.248989,0.82749095 17.550528,0.77778903"
         id="path16" />
      <path
         d="M 17.550528,0.77778903 V 1.4533841"
         id="path18" />
      <path
         d="m 16.241919,6.1595575 -0.08777,0.046893 -0.09152,0.040895 -0.09527,0.034897 -0.09902,0.028899 -0.102772,0.022901 -0.106522,0.016903 -0.110274,0.010905 -0.114026,0.00491 -0.117778,-0.00109 -0.121351,-0.00708 -0.120294,-0.01292 -0.117198,-0.018689 -0.114101,-0.024458 -0.111004,-0.030227 -0.107907,-0.035996 -0.10481,-0.041764 -0.101714,-0.047533 -0.09862,-0.053302 -0.09552,-0.059071 -0.09242,-0.06484 -0.08933,-0.070608 -0.08623,-0.076377 -0.08313,-0.082146 -0.08003,-0.087915 -0.07694,-0.093684 -0.07363,-0.099162 -0.06911,-0.1030088 -0.06441,-0.1066009 -0.05971,-0.1101929 -0.055,-0.113785 -0.0503,-0.1173771 -0.0456,-0.1209691 -0.04089,-0.1245612 -0.03619,-0.1281532 -0.03149,-0.1317453 -0.02678,-0.1353374 -0.02208,-0.1389295 -0.01738,-0.1425215 -0.01268,-0.1461135 -0.008,-0.1497057 -0.0033,-0.1532977 0.0012,-0.1543492 0.0054,-0.1502464 0.0095,-0.1459943 0.01362,-0.141742 0.01774,-0.1374899 0.02186,-0.1332377 0.02598,-0.1289855 0.0301,-0.1247333 0.03422,-0.1204811 0.03834,-0.116229 0.04246,-0.1119767 0.04658,-0.1077246 0.0507,-0.1034724 0.05482,-0.09922 0.05894,-0.094968 0.06306,-0.090716 0.06718,-0.086458 0.07067,-0.081433 0.07371,-0.075856 0.07675,-0.07028 0.07979,-0.064703 0.08282,-0.059127 0.08587,-0.05355"
         id="path20" />
      <path
         d="m 17.465574,5.2560988 -0.05298,0.075928 -0.05574,0.071512 -0.05851,0.067096 -0.06127,0.06268 -0.06403,0.058264 -0.06679,0.053848 -0.06955,0.049433 -0.07231,0.045017"
         id="path22" />
      <path
         d="m 16.964396,5.739877 -0.08777,0.046893 -0.09152,0.040895 -0.09527,0.034897 -0.09902,0.028899 L 16.488044,5.914362 16.381522,5.931265 16.271248,5.94217 16.157222,5.94708 16.039444,5.94599 15.918093,5.93891 15.797799,5.92599 15.680601,5.907301 15.5665,5.882843 15.455496,5.852616 15.347589,5.81662 15.242779,5.774856 15.141065,5.727323 15.042445,5.674021 14.946925,5.61495 14.854505,5.55011 14.765175,5.479502 14.678945,5.403125 14.595815,5.320979 14.515775,5.233064 14.438835,5.13938 l -0.07363,-0.099162 -0.06911,-0.1030088 -0.06441,-0.1066008 -0.05971,-0.110193 -0.055,-0.113785 -0.0503,-0.117377 -0.0456,-0.1209691 -0.04089,-0.1245612 -0.03619,-0.1281533 -0.03149,-0.1317453 -0.02678,-0.1353374 -0.02208,-0.1389294 -0.01738,-0.1425215 -0.01267,-0.1461136 -0.008,-0.1497056 -0.0033,-0.1532977 0.0012,-0.1543493 0.0054,-0.1502464 0.0095,-0.1459942 0.01362,-0.1417421 0.01774,-0.1374899 0.02186,-0.1332377 0.02598,-0.1289854 0.0301,-0.1247334 0.03422,-0.1204811 0.03834,-0.1162289 0.04246,-0.1119768 0.04658,-0.1077245 0.0507,-0.1034724 0.05482,-0.09922 0.05894,-0.094968 0.06306,-0.090716 0.06718,-0.086459 0.07067,-0.0814332 0.07371,-0.0758566 0.07675,-0.0702799 0.07979,-0.0647032 0.08282,-0.0591265 0.08587,-0.0535498"
         id="path24" />
      <path
         d="m 14.873671,0.66493786 0.07667,-0.0417954 0.07894,-0.0376284 0.08122,-0.0334615 0.08349,-0.0292945 0.08576,-0.0251275 0.08803,-0.0209605 0.0903,-0.0167936 0.09257,-0.0126266 0.09484,-0.00846 0.09712,-0.004293 0.09939,-1.2565e-4 0.101658,0.004041 0.102672,0.008201 0.100077,0.0123399 0.09726,0.0164775 0.09444,0.0206151 0.09162,0.0247527 0.0888,0.0288903 0.08598,0.0330279 0.08316,0.0371655 0.08034,0.041303 0.07752,0.0454406 0.07533,0.0500622 0.07424,0.0555201 0.07317,0.0609927 0.0721,0.0664653 0.07103,0.071938 0.06996,0.077411 0.0689,0.082883 0.06783,0.088356 0.06676,0.093828 0.06569,0.099301"
         id="path26" />
      <path
         d="M 16.743097,5.8684273 V 8.3291719"
         id="path28" />
      <path
         d="M 17.465574,5.2560988 V 7.9094914"
         id="path30" />
      <path
         d="m 16.330337,5.1811256 0.03853,-0.05082 0.03688,-0.053199 0.03497,-0.055245 0.03305,-0.057291 0.03114,-0.059337 0.02923,-0.061384 0.02732,-0.063429 0.0254,-0.065476 0.02349,-0.067522 0.02158,-0.069568 0.01967,-0.071614 0.01775,-0.07366 0.01584,-0.075706 0.01393,-0.077752 0.01201,-0.079798 0.0101,-0.081844 0.0082,-0.08389 0.0063,-0.085936 0.0068,-0.1780112 5.33e-4,-0.091983 -0.0015,-0.091382 -0.0035,-0.089622 -0.0056,-0.087861 -0.0076,-0.086101 -0.0096,-0.084341 -0.01167,-0.08258 -0.01372,-0.08082 -0.01576,-0.07906 -0.0178,-0.077299 -0.01984,-0.075539 -0.02188,-0.073778 -0.02392,-0.072018 -0.02596,-0.070258 -0.028,-0.068497 -0.03004,-0.066737 -0.03209,-0.064977 -0.03413,-0.063216 -0.03617,-0.061456 -0.03821,-0.059696 -0.0399,-0.057422 -0.04123,-0.054605 -0.04256,-0.051788 -0.04388,-0.048971 -0.04521,-0.046154 -0.04654,-0.043337 -0.04786,-0.04052 -0.04919,-0.037703 -0.05052,-0.034886 -0.05184,-0.032069 -0.05317,-0.029252 -0.0545,-0.026435 -0.05582,-0.023618 -0.05715,-0.020801 -0.05848,-0.017984 -0.0598,-0.015167 -0.06113,-0.01235 -0.06246,-0.00953 -0.06378,-0.00672 -0.06438,-0.00391 -0.0632,-0.00113 -0.06194,0.00165 -0.06068,0.00442 -0.05942,0.0072"
         id="path32" />
      <path
         d="m 16.078115,5.1867226 0.09052,0.00357 0.08784,-0.00235 0.08515,-0.00828 0.08246,-0.014203 0.07977,-0.020129 0.07708,-0.026055 0.07439,-0.031981 0.0717,-0.037907"
         id="path34" />
      <path
         d="m 16.727022,5.0493942 0.05896,-0.03697 0.05701,-0.041272 0.05506,-0.045573 0.05311,-0.049874 0.05116,-0.054176 0.04921,-0.058477 0.04723,-0.062746 0.04461,-0.066196 0.04172,-0.069289 0.03883,-0.072383 0.03594,-0.075476 0.03305,-0.078569 0.03015,-0.081663 0.02726,-0.084756 0.02437,-0.087849 0.02148,-0.090943 0.01859,-0.094036 0.0157,-0.097129 0.0128,-0.1002226 0.0099,-0.1033159 0.007,-0.1064092 0.0041,-0.1095025 0.0012,-0.1125806 -0.0018,-0.1123931 -0.0049,-0.1097317 -0.0079,-0.1070703 -0.01103,-0.104409 -0.01411,-0.1017477 -0.0172,-0.099086 -0.02028,-0.096425 -0.02337,-0.093764 -0.02645,-0.091102 -0.02954,-0.088441 -0.03263,-0.085779 -0.03571,-0.083118 -0.0388,-0.080457 -0.04188,-0.077795 -0.04497,-0.075134 -0.04796,-0.072325 -0.05014,-0.068326 -0.05214,-0.064067 -0.05415,-0.059808 -0.05615,-0.055549 -0.05816,-0.05129 -0.06017,-0.047032 -0.06217,-0.042773 -0.06418,-0.038514 -0.06618,-0.034255 -0.06819,-0.029996 -0.07019,-0.025738 -0.0722,-0.021479 -0.0742,-0.01722 -0.07621,-0.012961 -0.07822,-0.0087 -0.07901,-0.00446 -0.07719,-2.616e-4 -0.07529,0.00394 -0.07338,0.00814 -0.07147,0.012336 -0.06957,0.016535 -0.06766,0.020734 -0.06576,0.024933 -0.06385,0.029132 -0.06195,0.033332"
         id="path36" />
      <path
         d="m 15.399296,1.3578507 -0.05197,0.032165 -0.05054,0.035297 -0.04912,0.038429 -0.0477,0.041561 -0.04628,0.044693 -0.04486,0.047825 -0.04344,0.050957 -0.04195,0.054012 -0.03989,0.056341 -0.03768,0.058492 -0.03547,0.060643 -0.03325,0.062793 -0.03104,0.064944 -0.02883,0.067095 -0.02662,0.069246 -0.02441,0.071396 -0.0222,0.073547 -0.01999,0.075698 -0.01778,0.077848 -0.01557,0.079999 -0.01335,0.08215 -0.01114,0.084301 -0.0089,0.086451 -0.0067,0.088602 -0.0045,0.090753 -0.0023,0.092903 -8.3e-5,0.094637 0.0022,0.093419 0.0044,0.091626 0.0067,0.089833 0.009,0.08804 0.01121,0.086247 0.01347,0.084454 0.01573,0.082661 0.01799,0.080869 0.02025,0.079076 0.02251,0.077283 0.02477,0.07549 0.02703,0.073697 0.02929,0.071904 0.03155,0.070112 0.03381,0.068319 0.03607,0.066526 0.03833,0.064733 0.04059,0.06294 0.04262,0.060819 0.04405,0.057837 0.04545,0.054811 0.04685,0.051785 0.04825,0.048758 0.04965,0.045732 0.05105,0.042706 0.05245,0.039679 0.05384,0.036653 0.05524,0.033627 0.05664,0.0306 0.05804,0.027574 0.05944,0.024548 0.06084,0.021522 0.06224,0.018495 0.06364,0.015469 0.06504,0.012443 0.06644,0.00942 0.06784,0.00639"
         id="path38" />
      <path
         d="M 9.6547272,4.6034779 10.377204,4.1837974"
         id="path40" />
      <path
         d="m 11.121118,6.4845952 0.04231,-0.071315 0.0365,-0.075957 0.03069,-0.080599 0.02488,-0.08524 0.01907,-0.089882 0.01326,-0.094524 0.0074,-0.099165 0.0017,-0.1035684 -0.0037,-0.1012504 -0.0087,-0.09587 -0.01382,-0.090489 -0.01891,-0.085108 -0.02399,-0.079728 -0.02908,-0.074347 -0.03416,-0.068966 -0.03925,-0.063586 -0.04433,-0.058205 -0.04942,-0.052824 -0.0545,-0.047444 -0.0596,-0.042082 -0.06593,-0.038642 -0.07308,-0.03648 -0.08022,-0.034317 -0.08737,-0.032154 -0.09451,-0.029991 -0.101655,-0.027829 -0.1088,-0.025666 -0.115945,-0.023503 -0.12309,-0.02134 L 9.9366326,4.6353448 9.7992524,4.61833 9.6547272,4.6034779"
         id="path42" />
      <path
         d="m 9.5654921,4.9093279 0.00467,0.1075569 0.00792,0.1042854 0.011179,0.1010139 0.014433,0.097742 0.017687,0.094471 0.020941,0.091199 0.024195,0.087928 0.02745,0.084656 0.030704,0.081385 0.033958,0.078113 0.037213,0.074842 0.040467,0.07157 0.044187,0.06801 0.049814,0.063266 0.055646,0.058395 0.061479,0.053524 0.06731,0.048653 0.07314,0.043782 0.07898,0.038911 0.08481,0.03404 0.09064,0.029169 0.09647,0.024298 0.102305,0.019427 0.108138,0.014556 0.113745,0.00963 0.112081,0.00299 0.106915,-0.00449 0.05152,-0.00505 0.05023,-0.00692 0.04894,-0.00879 0.04765,-0.010654 0.04636,-0.012523 0.04506,-0.014392 0.04377,-0.016261 0.04248,-0.01813 0.04119,-0.019998 0.0399,-0.021867"
         id="path44" />
      <path
         d="m 11.53907,6.3536715 0.04061,-0.025042 0.03918,-0.027113 0.03775,-0.029184 0.03632,-0.031256 0.03475,-0.033201 0.03282,-0.034786 0.03086,-0.03635 0.0289,-0.037913 0.02695,-0.039476 0.02499,-0.04104 0.02303,-0.042603 0.02108,-0.044167 0.01912,-0.04573 0.01716,-0.047293 0.01521,-0.048857 0.01325,-0.05042 0.01129,-0.051983 0.0093,-0.053547 0.0074,-0.05511 0.0054,-0.056674 0.0035,-0.058237 0.0015,-0.0598 -0.0025,-0.1192393 -0.0094,-0.1121132 -0.0162,-0.1048642 -0.01067,-0.049714 -0.01238,-0.047901 -0.0141,-0.046089 -0.01581,-0.044277 -0.01752,-0.042464 -0.01923,-0.040652 -0.02095,-0.03884 -0.02266,-0.037028 -0.02437,-0.035215 -0.02609,-0.033403 -0.0278,-0.031591 -0.02951,-0.029779 -0.03122,-0.027966 -0.03294,-0.026154 -0.03465,-0.024342 -0.03662,-0.022935 -0.08045,-0.043665 -0.09008,-0.040751 -0.0997,-0.037837 -0.109329,-0.034923 -0.118955,-0.03201 -0.128581,-0.029096 -0.138207,-0.026182 -0.147834,-0.023268 -0.157459,-0.020354 -0.167086,-0.017441"
         id="path46" />
      <path
         d="M 8.0124075,5.269903 8.7348845,4.8502226"
         id="path48" />
      <path
         d="M 9.5654921,4.9093279 8.7348845,4.8502226"
         id="path50" />
      <path
         d="m 11.370465,7.4250721 -0.05844,0.0323 -0.06019,0.030014 -0.06193,0.027728 -0.06367,0.025443 -0.06541,0.023157 -0.06716,0.020872 -0.0689,0.018586 -0.07064,0.0163 -0.07239,0.014015 -0.07413,0.011729 -0.07587,0.00944 -0.07762,0.00716 -0.07936,0.00487 -0.0811,0.00259 -0.08285,3.013e-4 -0.08459,-0.00198 -0.08633,-0.00427 -0.08736,-0.00648 L 9.966768,7.6484074 9.8828557,7.6380304 9.8007794,7.6257288 9.7205435,7.611496 9.6421478,7.5953321 9.5655924,7.577237 9.4908773,7.5572109 9.4180025,7.5352535 9.346968,7.5113651 9.2777737,7.4855455 9.2104197,7.4577947 9.144906,7.4281129 9.0812326,7.3964999 9.0193995,7.3629557 8.9594066,7.3274804 8.901254,7.290074 8.8449418,7.2507365 8.7904697,7.2094678 8.737838,7.1662679 8.6870466,7.121137 8.6380954,7.0740749 8.5909845,7.0250816 8.5457139,6.9741573 8.5022836,6.9213018 8.4606935,6.8665151 8.4209438,6.8097973 8.3830343,6.7511484 8.3469651,6.6905684 8.3127362,6.6280572 8.2803475,6.5636148 8.2497992,6.4972414 8.2210911,6.4289368 8.1942233,6.358701 8.1691958,6.2865342 8.1460085,6.2124361 8.1246616,6.136407 8.1051549,6.0584467 8.0874885,5.9785553 8.0716624,5.8967327 8.0576766,5.812979 8.045531,5.7272942 8.0352258,5.6396783 8.0201361,5.4586529 8.0124075,5.269903"
         id="path52" />
      <path
         d="m 11.93457,3.9714979 0.113754,0.058757 0.106374,0.063568 0.05042,0.033588 0.04857,0.034791 0.04673,0.035994 0.04488,0.037196 0.04304,0.038399 0.04119,0.039602 0.03935,0.040805 0.0375,0.042007 0.03566,0.04321 0.03381,0.044413 0.03197,0.045616 0.03012,0.046818 0.02828,0.048021 0.02643,0.049224 0.02459,0.050427 0.02274,0.051629 0.0209,0.052832 0.01905,0.054035 0.01721,0.055238 0.01536,0.05644 0.01352,0.057643 0.01167,0.058846 0.01781,0.1212999 0.01043,0.1261108 0.0031,0.1308857 -0.0035,0.1301599 -0.0096,0.1254819 -0.01562,0.120804 -0.02166,0.1161261 -0.0277,0.1114481 -0.03374,0.1067703 -0.03978,0.1020922 -0.04581,0.097414 -0.05185,0.092736 -0.05789,0.088058 -0.06393,0.083381 -0.06996,0.078703 -0.076,0.074025 -0.0817,0.069044 -0.08635,0.063122 -0.09091,0.057132"
         id="path54" />
      <path
         d="m 12.092942,7.0053916 -0.05844,0.0323 -0.06019,0.030014 -0.06193,0.027729 -0.06367,0.025443 -0.06541,0.023157 -0.06716,0.020872 -0.0689,0.018586 -0.07064,0.0163 -0.07239,0.014015 -0.07413,0.011729 -0.07587,0.00944 -0.07762,0.00716 -0.07936,0.00487 -0.0811,0.00259 -0.08285,3.013e-4 -0.08459,-0.00198 -0.08633,-0.00427 -0.08736,-0.00648 -0.08576,-0.00844 -0.08392,-0.01037 -0.08208,-0.012302 -0.08024,-0.014233 -0.0784,-0.016164 -0.07656,-0.018095 -0.07471,-0.020026 -0.07288,-0.021957 -0.07103,-0.023888 -0.06919,-0.02582 L 9.9328967,7.0381143 9.867383,7.0084324 9.8037096,6.9768194 9.7418765,6.9432753 9.6818836,6.9078 9.623731,6.8703936 9.5674187,6.831056 9.5129467,6.789787 9.4603147,6.746587 9.4095237,6.701456 9.3605727,6.654394 9.3134617,6.605401 9.2681907,6.554477 9.2247607,6.501622 9.1831707,6.446835 9.1434207,6.390117 9.1055117,6.331468 9.0694427,6.270888 9.0352137,6.208377 9.0028247,6.143935 8.9722767,6.077561 8.9435687,6.009256 8.9167007,5.93902 8.8916727,5.866853 8.8684857,5.792755 8.8471387,5.716726 8.8276317,5.638766 8.8099657,5.558874 8.7941397,5.477052 8.7801537,5.393298 8.7680077,5.307613 8.7577027,5.219997 8.7426127,5.0389717 8.7348827,4.8502218"
         id="path56" />
      <path
         d="M 7.8708288,2.5770496 8.5933057,2.1573691"
         id="path58" />
      <path
         d="m 7.8708288,2.5770496 0.01443,-0.1680436 0.020065,-0.1610161 0.025699,-0.1539885 0.031334,-0.1469608 0.036969,-0.1399333 0.042603,-0.1329057 0.048238,-0.1258781 0.026232,-0.060304 0.027641,-0.058547 0.029049,-0.05679 0.030458,-0.055033 0.031867,-0.053276 0.033275,-0.051519 0.034684,-0.049762 0.036093,-0.048006 0.037501,-0.046248 0.03891,-0.044492 0.040319,-0.0427347 0.041727,-0.0409778 0.043136,-0.0392209 0.044545,-0.037464 0.045953,-0.0357071 0.047362,-0.0339502 0.048771,-0.0321933 0.05018,-0.0304364"
         id="path60" />
      <path
         d="M 8.5933057,2.1573691 8.6077357,1.9893255 8.6278007,1.8283094 8.6534997,1.674321 8.6848337,1.5273601 8.7218027,1.3874268 8.7644057,1.2545211 8.8126437,1.128643 8.8388757,1.068339 8.8665167,1.009792 8.8955657,0.9530021 8.9260237,0.8979691 8.9578907,0.844693 8.9911657,0.7931738 9.0258497,0.7434115 9.0619427,0.6954061 9.0994437,0.6491576 9.1383537,0.604666 9.1786727,0.5619313 9.2204007,0.5209535 9.2635367,0.4817326 9.3080817,0.4442686 9.3540347,0.4085615 9.4013967,0.3746113 9.4501677,0.342418 9.5003477,0.3119816"
         id="path62" />
      <path
         d="m 9.5003472,0.31198183 0.080502,-0.0436739 0.083881,-0.0394591 0.08726,-0.0352444 0.09064,-0.0310296 0.094019,-0.0268149 0.097398,-0.0226001 0.100778,-0.01838536 0.104157,-0.01417061 0.107537,-0.0099559 0.110916,-0.0057411 0.114296,-0.0015264 0.117675,0.0026884 0.121039,0.0069025 0.120851,0.0109716 0.11794,0.01492949 0.11503,0.01888739 0.112118,0.0228453 0.109207,0.0268032 0.106297,0.0307611 0.103385,0.034719 0.100475,0.0386769 0.09756,0.0426348 0.09465,0.0465927 0.09174,0.0505506 0.08883,0.0545085 0.08592,0.0584664 0.08301,0.0624243 0.0801,0.0663822 0.07719,0.07034 0.07422,0.0742446 0.07023,0.0771543 0.06584,0.0796887 0.06146,0.0822231 0.05708,0.084758 0.05269,0.087292 0.04831,0.089826 0.04393,0.092361 0.03954,0.094895 0.03516,0.09743 0.03078,0.099964 0.02639,0.1024983 0.02201,0.1050327 0.01763,0.1075671 0.01325,0.1101015 0.0089,0.1126358 0.0045,0.1151703 1.24e-4,0.1168825 -0.004,0.1132032 -0.0082,0.1085444 -0.01231,0.1038856 -0.01645,0.099227 -0.02058,0.094568 -0.02471,0.089909 -0.02885,0.08525 -0.03298,0.080591 -0.03712,0.075933 -0.04125,0.071274 -0.0454,0.066638 -0.05031,0.063029 -0.05563,0.059971 -0.06094,0.056912 -0.06626,0.053853 -0.07157,0.050794 -0.07689,0.047736"
         id="path64" />
      <path
         d="m 12.413277,3.7745067 -0.05217,0.029037 -0.05436,0.027776 -0.05655,0.026515 -0.05874,0.025254 -0.124059,0.046726 -0.132825,0.041682"
         id="path66" />
      <path
         d="M 8.7014364,2.6361549 9.4239134,2.2164745"
         id="path68" />
      <path
         d="m 7.8708288,2.5770496 0.8306076,0.059105"
         id="path70" />
      <path
         d="m 8.5933057,2.1573691 0.8306077,0.059105"
         id="path72" />
      <path
         d="m 11.316199,3.4785687 0.02373,-0.038982 0.02204,-0.040637 0.02036,-0.042292 0.01867,-0.043947 0.01699,-0.045602 0.0153,-0.047257 0.01361,-0.048913 0.01193,-0.050568 0.01879,-0.1061007 0.01205,-0.1127214 0.0053,-0.119342 -0.0014,-0.12307 -0.0081,-0.1188015 -0.01469,-0.114068 -0.02132,-0.1093344 -0.02795,-0.1046009 -0.03459,-0.099867 -0.04122,-0.095134 -0.0231,-0.045792 -0.02476,-0.044608 -0.02642,-0.043425 -0.02808,-0.042242 -0.02974,-0.041058 -0.03139,-0.039875 -0.03305,-0.038691 -0.03468,-0.037484 -0.03604,-0.035998 -0.03732,-0.034434 -0.03859,-0.032871 -0.03987,-0.031307 -0.04114,-0.029744 -0.04242,-0.02818 -0.08867,-0.051669 -0.09377,-0.045414 -0.09887,-0.03916 -0.103978,-0.032906 -0.109082,-0.026651 -0.114186,-0.020397 -0.11929,-0.014142 -0.122157,-0.00786 -0.117206,-0.00147 -0.1115813,0.00493 -0.1059567,0.011323"
         id="path74" />
      <path
         d="m 10.830268,3.4914864 0.140985,0.00659 0.133434,-8.172e-4 0.125881,-0.00823 0.06011,-0.00689 0.05822,-0.00875 0.05633,-0.0106 0.05445,-0.012453 0.05256,-0.014306 0.05067,-0.016159 0.04878,-0.018012 0.04689,-0.019865 0.045,-0.021718 0.04312,-0.023571"
         id="path76" />
      <path
         d="m 11.746697,3.3367067 0.04995,-0.031204 0.04715,-0.033952 0.04435,-0.036699 0.04156,-0.039447 0.03876,-0.042194 0.03596,-0.044942 0.03316,-0.047689 0.03036,-0.050437 0.02756,-0.053184 0.02476,-0.055932 0.02196,-0.058679 0.01916,-0.061427 0.01636,-0.064174 0.01356,-0.066922 0.01076,-0.069669 0.008,-0.072417 0.0052,-0.075164 0.0024,-0.077912 -4.24e-4,-0.079648 -0.0032,-0.077964 -0.0059,-0.076 -0.0087,-0.074035 -0.01144,-0.072071 -0.01419,-0.070107 -0.01695,-0.068142 -0.0197,-0.066178 -0.02245,-0.064213 -0.02521,-0.062249 -0.02796,-0.060285 -0.03071,-0.05832 -0.03347,-0.056356 -0.03622,-0.054391 -0.03897,-0.052427 -0.04173,-0.050463 -0.04445,-0.048469 -0.04672,-0.046027 -0.04884,-0.043432 -0.05096,-0.040836 -0.05308,-0.03824 -0.05519,-0.035645 -0.05731,-0.033049 -0.05943,-0.0304537 -0.06155,-0.0278582 -0.06367,-0.0252626 -0.06578,-0.0226671 -0.0679,-0.0200715 -0.07002,-0.017476 -0.07214,-0.0148804 -0.07426,-0.0122848 -0.07637,-0.009689 -0.07849,-0.007094 -0.0786,-0.004471 -0.07627,-0.001817 -0.07393,8.3765e-4 -0.0716,0.003492 -0.06927,0.006147 -0.06693,0.008801 -0.0646,0.011456 -0.06226,0.0141106 -0.05993,0.0167652 -0.05759,0.0194198 -0.05526,0.0220744 -0.05293,0.024729 -0.050593,0.0273836"
         id="path78" />
      <path
         d="m 9.9944183,0.98730418 -0.063371,0.0403239 -0.059282,0.044974 -0.055193,0.049624 -0.051331,0.054398 -0.047807,0.059359 -0.044286,0.064322 -0.040766,0.069285 -0.037245,0.074247 -0.033725,0.07921 -0.030204,0.084173 -0.026684,0.089136 -0.023163,0.094098 -0.019643,0.099061 -0.016122,0.1040237 -0.012602,0.1089864 -0.00908,0.1139491"
         id="path80" />
      <path
         d="M 10.830268,3.4914864 10.481022,3.4568495"
         id="path82" />
      <path
         d="M 9.6547272,3.8691424 10.377204,3.4494619"
         id="path84" />
      <path
         d="m 10.481022,3.4568495 -0.103818,-0.00739"
         id="path86" />
      <path
         d="M 9.6547272,3.8691424 V 4.6034779"
         id="path88" />
      <path
         d="M 10.377204,3.4494619 V 4.1837974"
         id="path90" />
      <path
         d="M 3.7107934,4.7973671 2.8801858,4.7382618"
         id="path92" />
      <path
         d="m 2.8801858,4.7382618 0.00616,0.1486243 0.010212,0.1442086 0.014268,0.1397928 0.018324,0.1353772 0.022379,0.1309614 0.026435,0.1265457 0.030491,0.12213 0.034546,0.1177142 0.038602,0.1132985 0.042658,0.1088828 0.046714,0.1044671 0.050769,0.1000513 0.054825,0.095636 0.058881,0.09122 0.062936,0.086804 0.066992,0.082388 0.071048,0.077973 0.075103,0.073557 0.079159,0.069141 0.083215,0.064726 0.087271,0.06031 0.091326,0.055894 0.095382,0.051478 0.099437,0.047063 0.1034933,0.042647 0.107549,0.038231 0.1116047,0.033816 0.1156604,0.0294 0.1197161,0.024984 0.1237718,0.020568 0.1278276,0.016153 0.1318832,0.011737"
         id="path94" />
      <path
         d="m 5.0888205,7.3040405 0.1177603,0.00616 0.1149582,0.00153 0.1121563,-0.00311 0.1093541,-0.00775 0.1065521,-0.012383 0.1037501,-0.017018 0.1009479,-0.021655 0.098146,-0.02629 0.095344,-0.030926 0.092542,-0.035562 0.08974,-0.040198 0.086938,-0.044834 0.084136,-0.04947 0.081334,-0.054106 0.078532,-0.058742 0.075729,-0.063378"
         id="path96" />
      <path
         d="m 6.6367389,6.8463061 0.072006,-0.067162 0.06736,-0.070094 0.062715,-0.073025 0.058069,-0.075957 0.053424,-0.078888 0.048778,-0.08182 0.044132,-0.084751 0.039487,-0.087683 0.034842,-0.090614 0.030196,-0.093546 0.02555,-0.096477 0.020905,-0.099409 0.016259,-0.1023402 0.011614,-0.1052717 0.00697,-0.1082033 0.00232,-0.1111347"
         id="path98" />
      <path
         d="m 7.2313666,5.4199324 -0.00138,-0.080397 -0.00415,-0.079637 -0.00691,-0.078878 -0.00968,-0.078118 -0.012443,-0.077359 -0.015209,-0.0766 -0.017974,-0.07584 -0.020739,-0.075081 -0.023504,-0.074322 -0.026269,-0.073562 -0.029035,-0.072803 -0.0318,-0.072044 -0.034565,-0.071284 -0.03733,-0.070525 -0.040096,-0.069766 -0.042861,-0.069007 -0.045626,-0.068247 -0.048391,-0.067488 -0.051156,-0.066728 -0.053922,-0.065969 -0.056687,-0.06521 -0.059452,-0.06445 -0.062217,-0.063691 -0.064983,-0.062932 -0.067748,-0.062172 -0.070513,-0.061413 -0.073278,-0.060654 -0.076043,-0.059894 -0.078809,-0.059135 -0.081574,-0.058376 -0.084339,-0.057616 -0.087104,-0.056857"
         id="path100" />
      <path
         d="M 5.8155791,3.2238757 4.8717207,2.6280155"
         id="path102" />
      <path
         d="M 4.8717207,2.6280155 4.7238005,2.5321229 4.5867937,2.4376185 4.4607004,2.3445022 4.3455205,2.252774 4.2412541,2.162434 4.1479011,2.0734821 4.0654616,1.9859184 3.9939355,1.8997427"
         id="path104" />
      <path
         d="M 3.9939355,1.8997427 3.9309634,1.812646 3.8741856,1.7223187 3.8236022,1.6287609 3.7792131,1.5319727 3.7410184,1.4319539 3.7090181,1.3287047 3.6832121,1.2222249 3.6636005,1.1125147"
         id="path106" />
      <path
         d="m 3.6636005,1.1125147 3.5205732,0.250521"
         id="path108" />
      <path
         d="M 7.1841737,1.3630357 V 0.51121928"
         id="path110" />
      <path
         d="M 7.1841737,0.51121928 2.7291746,0.19420528"
         id="path112" />
      <path
         d="m 2.7291746,0.19420528 0.00837,0.14174322 0.010949,0.13783467 0.01353,0.13392609 0.016111,0.13001754 0.018692,0.12610897 0.021273,0.1222004 0.023854,0.11829183 0.026435,0.1143833 0.029016,0.1104747 0.031596,0.1065662 0.034177,0.1026575 0.036758,0.098749 0.039339,0.09484 0.04192,0.090932 0.044501,0.087023 0.047081,0.083115"
         id="path114" />
      <path
         d="m 3.1727757,1.9930692 0.050953,0.081325 0.056115,0.081654 0.061277,0.081983 0.066439,0.082311 0.071601,0.08264 0.076763,0.082969 0.081925,0.083298 0.087087,0.083627 0.092249,0.083956 0.097411,0.084284 0.1025726,0.084613 0.1077346,0.084942 0.1128965,0.085271 0.1180585,0.0856 0.1232205,0.085929 0.1283824,0.086258"
         id="path116" />
      <path
         d="M 4.6074588,3.3337297 5.4757962,3.9046783"
         id="path118" />
      <path
         d="m 5.4757962,3.9046783 0.1097228,0.076269 0.1026439,0.07806 0.095565,0.079851 0.088486,0.081643 0.081407,0.083434 0.074328,0.085225 0.067249,0.087016 0.06017,0.088807 0.053092,0.090598 0.046013,0.092389 0.038934,0.09418 0.031855,0.095971 0.024776,0.097762 0.017697,0.099553 0.010618,0.1013443 0.00354,0.1031353"
         id="path120" />
      <path
         d="m 6.3818941,5.3399151 -0.00147,0.068929 -0.00442,0.067266 -0.00737,0.065602 -0.010323,0.063939 -0.013273,0.062276 -0.016223,0.060613 -0.019172,0.05895 -0.022122,0.057286 -0.025071,0.055623 -0.028021,0.05396 -0.03097,0.052297 -0.03392,0.050634 -0.036869,0.04897 -0.039819,0.047307 -0.042769,0.045644 -0.045718,0.043981"
         id="path122" />
      <path
         d="m 6.0043508,6.2431918 -0.04793,0.041644 -0.049405,0.038632 -0.05088,0.03562 -0.052355,0.032608 -0.053829,0.029597 -0.055304,0.026585 -0.056779,0.023573 -0.058254,0.020562 -0.059729,0.01755 -0.061203,0.014539 -0.062678,0.011527 -0.064153,0.00852 -0.065628,0.0055 -0.067102,0.00249 -0.068577,-5.198e-4 -0.070052,-0.00353"
         id="path124" />
      <path
         d="m 5.0604924,6.5480878 -0.077323,-0.00712 -0.075056,-0.010189 -0.072788,-0.013259 -0.070521,-0.016329 -0.068254,-0.0194 -0.065986,-0.02247 -0.063719,-0.025541 -0.061451,-0.028611 -0.059184,-0.031682 -0.056916,-0.034752 -0.054649,-0.037823 -0.052382,-0.040893 -0.050114,-0.043964 -0.047847,-0.047034 -0.045579,-0.050104 -0.043312,-0.053175 -0.041044,-0.056245 -0.038777,-0.059316 -0.036509,-0.062386 -0.034242,-0.065457 -0.031975,-0.068527 -0.029707,-0.071597 -0.02744,-0.074668 -0.025172,-0.077738 -0.022905,-0.080809 -0.020637,-0.083879 -0.01837,-0.08695 -0.016103,-0.09002 -0.013835,-0.093091 -0.011568,-0.096161 -0.0093,-0.099232 -0.00703,-0.1023019"
         id="path126" />
      <path
         d="m 4.1123955,-4.0463164 v 3.56887384"
         id="path128" />
      <path
         d="m 4.1123955,-0.47744256 0.3917074,0.0278736"
         id="path130" />
      <path
         d="M 4.5041029,-0.44956899 V -1.8007432"
         id="path132" />
      <path
         d="m 4.4663424,-3.693133 0.052344,-0.072537 0.056067,-0.065031 0.05979,-0.057524 0.031291,-0.025947 0.032222,-0.024071 0.033152,-0.022194 0.034083,-0.020317 0.035014,-0.018441 0.035944,-0.016564 0.036875,-0.014688 0.037806,-0.012811 0.038737,-0.010934 0.039667,-0.00906 0.082127,-0.012486 0.08585,-0.00498 0.089573,0.00253 0.089931,0.00953 0.086486,0.015974 0.083038,0.022414 0.079589,0.028854 0.076141,0.035295 0.072693,0.041735 0.069245,0.048175 0.065797,0.054616 0.062348,0.061056 0.0589,0.067496 0.055402,0.073863 0.050778,0.078573 0.045688,0.082596 0.040597,0.08662 0.035507,0.090644 0.030417,0.094668 0.025327,0.098692 0.020236,0.1027154 0.015146,0.1067392 0.010056,0.1107629 0.00497,0.1147868 -1.344e-4,0.1175561 -0.00529,0.1134905 -0.01045,0.1083937 -0.015611,0.1032969 -0.020773,0.0982 -0.025934,0.093103 -0.031096,0.088006 -0.036257,0.08291 -0.041419,0.077813 -0.046581,0.072716 -0.05174,0.067617 -0.056147,0.061546 -0.059932,0.054672 -0.063717,0.047799 -0.067502,0.040926 -0.071288,0.034053 -0.075073,0.02718 -0.078858,0.020307 -0.082643,0.013434 -0.086429,0.00656 -0.090214,-3.127e-4 -0.092702,-0.00725 -0.089358,-0.014455 -0.04316,-0.00994 -0.042147,-0.011753 -0.041134,-0.013563 -0.040122,-0.015373 -0.039109,-0.017183 -0.038096,-0.018994 -0.037083,-0.020804 -0.03607,-0.022614 -0.035058,-0.024424 -0.034045,-0.026235 -0.033032,-0.028045 -0.032019,-0.029855 -0.061,-0.065141 -0.056949,-0.072382 -0.052898,-0.079622"
         id="path134" />
      <path
         d="M 4.4663424,-3.693133 V -4.0211298"
         id="path136" />
      <path
         d="M 4.4663424,-4.0211298 4.1123955,-4.0463164"
         id="path138" />
      <path
         d="m 5.1931164,-1.7125585 0.076262,0.00159 0.03672,-0.00218 0.035779,-0.00417 0.034838,-0.00615 0.033898,-0.00813 0.032957,-0.010118 0.032016,-0.012103 0.031075,-0.014087 0.030134,-0.016072 0.029194,-0.018056 0.028253,-0.020041 0.027312,-0.022025 0.026371,-0.02401 0.025431,-0.025994 0.02449,-0.027978 0.045903,-0.061562 0.040601,-0.0674 0.035122,-0.072994 0.029642,-0.078589 0.024163,-0.084184 0.018684,-0.089779 0.013204,-0.095373 0.00773,-0.1009682 0.00224,-0.1065213 -0.00369,-0.1060986 -0.00995,-0.1014255 -0.016213,-0.096752 -0.022473,-0.092079 -0.028732,-0.087406 -0.034992,-0.082733 -0.041252,-0.07806 -0.047502,-0.073374 -0.025684,-0.034348 -0.026623,-0.032295 -0.027562,-0.030242 -0.0285,-0.028189 -0.029439,-0.026136 -0.030378,-0.024083 -0.031317,-0.02203 -0.032256,-0.019977 -0.033195,-0.017924 -0.034134,-0.015871 -0.035072,-0.013818 -0.036011,-0.011764 -0.03695,-0.00971 -0.037889,-0.00766 -0.038828,-0.00561 -0.039742,-0.00355 -0.039417,-0.00132 -0.0384,10e-4 -0.037384,0.00332 -0.036368,0.00565 -0.035352,0.00797 -0.034336,0.010292 -0.033319,0.012614 -0.032303,0.014937 -0.031287,0.017259 -0.030271,0.019582 -0.029255,0.021904 -0.028239,0.024227 -0.027222,0.02655 -0.026206,0.028872 -0.02519,0.031195 -0.024069,0.033377 -0.022545,0.035021 -0.020982,0.036612 -0.019418,0.038203 -0.017855,0.039794 -0.016291,0.041386 -0.014728,0.042977 -0.024765,0.090727 -0.018512,0.097092 -0.012258,0.1034569 -0.006,0.1098215 2.491e-4,0.1144612 0.0065,0.11024 0.012756,0.1047653 0.01901,0.09929 0.025264,0.093816 0.031517,0.088341 0.037771,0.082866 0.021231,0.03938 0.022794,0.038012 0.024278,0.036525 0.025352,0.034433 0.026368,0.032255 0.027384,0.030077 0.028401,0.027899 0.029417,0.025721 0.030433,0.023543 0.031449,0.021365 0.032465,0.019187 0.033481,0.017009 0.034498,0.014831 0.035514,0.012653 0.03653,0.010475 0.037546,0.0083 0.038562,0.00612 0.039579,0.00394"
         id="path140" />
      <path
         d="M 8.7184212,-1.1532735 V -3.7185554"
         id="path142" />
      <path
         d="M 8.7184212,-3.7185554 8.3644743,-3.743742"
         id="path144" />
      <path
         d="m 8.3644743,-3.743742 v 0.357383"
         id="path146" />
      <path
         d="m 6.7504827,-3.2711239 0.00261,-0.068402 0.00782,-0.064939 0.013038,-0.061477 0.018253,-0.058015 0.023468,-0.054552 0.028683,-0.05109 0.033899,-0.047627 0.039114,-0.044165 0.044329,-0.040702 0.048808,-0.03663 0.052308,-0.031748 0.055804,-0.026862 0.0593,-0.021976 0.062796,-0.01709 0.066292,-0.012204 0.069788,-0.00732 0.073284,-0.00243 0.07678,0.00245 0.077727,0.00711 0.074263,0.011352 0.07072,0.015591 0.067178,0.01983 0.063635,0.024069 0.060093,0.028308 0.05655,0.032548 0.054272,0.037576 0.053673,0.043654 0.053082,0.049736 0.052492,0.055819 0.051901,0.061901 0.051311,0.067984 0.05072,0.074066"
         id="path148" />
      <path
         d="m 6.7504827,-3.2711239 v 1.9778135"
         id="path150" />
      <path
         d="m 6.7504827,-1.2933104 0.3917074,0.027874"
         id="path152" />
      <path
         d="M 7.1421901,-1.2654368 V -3.0816901"
         id="path154" />
      <path
         d="m 8.3267292,-2.6351399 -0.00225,-0.084888 -0.00675,-0.081438 -0.011252,-0.077987 -0.015754,-0.074536 -0.020254,-0.071085 -0.024755,-0.067634 -0.029256,-0.064183 -0.033757,-0.060732 -0.038258,-0.057281 -0.042073,-0.05285 -0.045075,-0.04726 -0.048075,-0.041667 -0.051076,-0.036074 -0.054076,-0.030481 -0.057077,-0.024888 -0.060077,-0.019296 -0.063078,-0.013703 -0.066079,-0.00811 -0.066121,-0.00237 -0.062052,0.00359 -0.057956,0.00955 -0.05386,0.015502 -0.049764,0.021459 -0.045668,0.027415 -0.041572,0.033372 -0.036762,0.038546 -0.031108,0.042795 -0.025452,0.047042 -0.019796,0.051289 -0.01414,0.055536 -0.00848,0.059783 -0.00283,0.064031"
         id="path156" />
      <path
         d="M 8.3267292,-2.6351399 V -1.181146"
         id="path158" />
      <path
         d="m 8.3267292,-1.181146 0.391692,0.027872"
         id="path160" />
      <path
         d="m 9.3130489,-0.10736843 0.3964236,0.02820917"
         id="path162" />
      <path
         d="M 9.7094725,-0.07915926 V -0.59319412"
         id="path164" />
      <path
         d="M 9.7094725,-0.59319412 9.3130489,-0.62140329"
         id="path166" />
      <path
         d="m 9.3130489,-0.62140329 v 0.51403486"
         id="path168" />
      <path
         d="m 9.3177651,-1.1106247 0.3917074,0.027874"
         id="path170" />
      <path
         d="m 9.7094725,-1.0827511 v -2.565282"
         id="path172" />
      <path
         d="M 9.7094725,-3.6480331 9.3177651,-3.6759066"
         id="path174" />
      <path
         d="m 9.3177651,-3.6759066 v 2.5652819"
         id="path176" />
      <path
         d="m 10.332413,-0.03483134 0.396423,0.02820917"
         id="path178" />
      <path
         d="M 10.728836,-0.00662217 V -3.575496"
         id="path180" />
      <path
         d="M 10.728836,-3.575496 10.332413,-3.603705"
         id="path182" />
      <path
         d="m 10.332413,-3.6037052 v 3.56887386"
         id="path184" />
      <path
         d="m 13.022409,0.15658654 0.391708,0.0278736"
         id="path186" />
      <path
         d="M 13.414117,0.18446011 V -3.3844137"
         id="path188" />
      <path
         d="m 13.414117,-3.3844137 -0.349231,-0.024851"
         id="path190" />
      <path
         d="m 13.064886,-3.4092647 v 0.3377976"
         id="path192" />
      <path
         d="m 13.022409,-1.1701098 -0.04851,0.066541 -0.02592,0.030605 -0.02703,0.028828 -0.02815,0.027052 -0.02926,0.0252745 -0.03037,0.0234977 -0.03148,0.0217208 -0.03259,0.019944 -0.0337,0.0181671 -0.03482,0.0163902 -0.03592,0.0146133 -0.03704,0.0128365 -0.03815,0.0110596 -0.07963,0.0167886 -0.08408,0.009681 -0.08852,0.002574 -0.09282,-0.004529 -0.09178,-0.011453 -0.08812,-0.0182888 -0.08445,-0.0251247 -0.08078,-0.0319606 -0.07711,-0.0387964 -0.07344,-0.0456323 -0.06977,-0.052468 -0.0661,-0.059304 -0.06243,-0.06614 -0.05876,-0.072976 -0.05416,-0.078554 -0.04859,-0.082811 -0.04301,-0.087067 -0.03744,-0.091323 -0.03187,-0.09558 -0.02629,-0.099836 -0.02072,-0.1040929 -0.01515,-0.1083494 -0.0096,-0.1126059 -0.004,-0.1168625 0.0014,-0.1182792 0.0063,-0.1134621 0.01114,-0.1084233 0.01602,-0.1033847 0.0209,-0.098346 0.02579,-0.093307 0.03067,-0.088269 0.03555,-0.08323 0.04044,-0.078191 0.04532,-0.073152 0.0502,-0.068114 0.05454,-0.062407 0.05814,-0.055804 0.06175,-0.049196 0.06535,-0.042587 0.06895,-0.035979 0.07255,-0.029371 0.07615,-0.022763 0.07976,-0.016154 0.08336,-0.00955 0.08696,-0.00294 0.09055,0.00367 0.08962,0.010252 0.08514,0.016814 0.08067,0.023375 0.0762,0.029937 0.07173,0.036499 0.03419,0.020711 0.03346,0.022649 0.06565,0.051806 0.06395,0.060485 0.06226,0.069164 0.06056,0.077843 0.05886,0.086521"
         id="path194" />
      <path
         d="M 13.022409,-1.1701098 V 0.15658654"
         id="path196" />
      <path
         d="m 12.328679,-1.2047979 0.03885,0.00171 0.03786,-4.602e-4 0.03687,-0.00263 0.03589,-0.00481 0.0349,-0.00698 0.03392,-0.00915 0.03293,-0.011325 0.03194,-0.013498 0.03096,-0.015671 0.02997,-0.017844 0.02898,-0.020017 0.028,-0.02219 0.02701,-0.024363 0.02603,-0.026536 0.02504,-0.028709 0.02405,-0.030882 0.02286,-0.032794 0.0214,-0.034358 0.01994,-0.035921 0.01848,-0.037484 0.03258,-0.079656 0.02674,-0.085907 0.0209,-0.092157 0.01505,-0.098408 0.0092,-0.1046591 0.0034,-0.1109099 -0.0026,-0.1121905 -0.0089,-0.1068456 -0.01512,-0.1014677 -0.02135,-0.09609 -0.02759,-0.090712 -0.03383,-0.085334 -0.04006,-0.079956 -0.02237,-0.037961 -0.02391,-0.036583 -0.02506,-0.034637 -0.02607,-0.032486 -0.02708,-0.030334 -0.0281,-0.028183 -0.02911,-0.026031 -0.03012,-0.02388 -0.03114,-0.021728 -0.03215,-0.019577 -0.03316,-0.017425 -0.03418,-0.015274 -0.03519,-0.013122 -0.0362,-0.010971 -0.03722,-0.00882 -0.03823,-0.00667 -0.03924,-0.00452 -0.03974,-0.00237 -0.03885,-2.502e-4 -0.03789,0.00187 -0.03692,0.00399 -0.03596,0.00611 -0.035,0.00824 -0.03404,0.010357 -0.03307,0.012478 -0.03211,0.014599 -0.03115,0.016721 -0.03018,0.018842 -0.02922,0.020963 -0.02826,0.023085 -0.0273,0.025206 -0.02633,0.027327 -0.02537,0.029449 -0.02435,0.031501 -0.02294,0.033057 -0.02144,0.034514 -0.01994,0.03597 -0.01844,0.037427 -0.03239,0.079224 -0.0264,0.085051 -0.02041,0.090878 -0.01442,0.096705 -0.0084,0.1025318 -0.0024,0.108313 0.0036,0.1078546 0.0098,0.1029973 0.01587,0.09814 0.022,0.093282 0.02812,0.088425 0.03424,0.083568 0.04037,0.07871 0.04649,0.073849 0.05134,0.06717 0.02709,0.03051 0.02804,0.028461 0.02899,0.026411 0.02993,0.024361 0.03088,0.022311 0.03183,0.020261 0.03278,0.018212 0.03373,0.016162 0.03467,0.014112 0.03562,0.012062 0.03657,0.010012 0.03752,0.00796 0.03846,0.00591 0.03941,0.00386"
         id="path198" />
      <path
         d="M 2.0642199,0.14688816 V 7.2846353"
         id="path200" />
      <path
         d="M 2.0642199,7.2846353 2.0617335,7.1793886 2.0542801,7.0740415 2.0418779,6.9688479 2.0245565,6.8640613 2.0023578,6.7599339 1.9753353,6.6567167 1.943554,6.5546584 1.9070905,6.4540048 1.8660327,6.3549984 1.8204794,6.2578777 1.7705405,6.1628767 1.7163361,6.0702242 1.657997,5.9801435 1.5956636,5.8928516 1.5294861,5.8085587 1.4596239,5.7274679 1.3862454,5.6497747 1.3095273,5.575666 1.2296544,5.5053206 1.1468191,5.4389079 1.0612211,5.3765878 0.97306654,5.3185104 0.88256774,5.2648158 0.78994277,5.2156332 0.69541475,5.1710812 0.59921141,5.1312671 0.50156453,5.0962867 0.40270933,5.0662244 0.30288397,5.0411526 0.20232893,5.0211316 0.10128647,5.0062098 0,4.996423"
         id="path202" />
      <path
         d="M 0,-0.71377471 V -4.2826483"
         id="path204" />
      <path
         d="M 17.526512,0.53339719 V -3.0354764"
         id="path206" />
      <path
         d="m 0,-2.4982115 0.07899989,0.00892 0.07848901,0.015457 0.0774706,0.021895 0.0759512,0.028191 0.0739406,0.034305 0.0714519,0.040197 0.0685011,0.045829 0.0651073,0.051165 0.0612925,0.05617 0.0570814,0.060812 0.0525011,0.06506 0.0475813,0.068888 0.0423538,0.07227 0.0368524,0.075185 0.0311127,0.077614 0.0251718,0.079541"
         id="path208" />
      <path
         d="m 0,-2.4982115 0.07899989,0.00232 0.07848901,-0.00429 0.0774706,-0.010869 0.0759512,-0.017382 0.0739406,-0.023782 0.0714519,-0.030028 0.0685011,-0.03608 0.0651073,-0.041899 0.0612925,-0.047447 0.0570814,-0.052688 0.0525011,-0.057589 0.0475813,-0.062116 0.0423538,-0.066242 0.0368524,-0.06994 0.0311127,-0.073186 0.0251718,-0.075958"
         id="path210" />
      <path
         d="m 17.526512,-1.2510396 -0.079,-0.00892 -0.07849,-0.015457 -0.07747,-0.021895 -0.07595,-0.028191 -0.07394,-0.034305 -0.07145,-0.040197 -0.0685,-0.045829 -0.06511,-0.051165 -0.06129,-0.05617 -0.05708,-0.060812 -0.0525,-0.06506 -0.04758,-0.068888 -0.04235,-0.07227 -0.03685,-0.075185 -0.03111,-0.077614 -0.02517,-0.079541"
         id="path212" />
      <path
         d="m 17.526512,-1.2510396 -0.079,-0.00232 -0.07849,0.00429 -0.07747,0.010869 -0.07595,0.017382 -0.07394,0.023782 -0.07145,0.030028 -0.0685,0.036081 -0.06511,0.041899 -0.06129,0.047447 -0.05708,0.0526881 -0.0525,0.0575884 -0.04758,0.0621163 -0.04235,0.0662425 -0.03685,0.0699403 -0.03111,0.0731859 -0.02517,0.0759581"
         id="path214" />
      <path
         d="m 0,-2.4982115 3.7683588,0.2681533"
         id="path216" />
      <path
         d="M 17.526512,-1.2510396 13.758153,-1.5191928"
         id="path218" />
      <path
         d="M 16.241919,6.1595575 16.964396,5.739877"
         id="path220" />
      <path
         d="M 14.151194,1.0846183 14.873671,0.66493786"
         id="path222" />
      <path
         d="M 11.370465,7.4250721 12.092942,7.0053916"
         id="path224" />
      <path
         d="M 8.7778702,0.73166228 9.5003472,0.31198183"
         id="path226" />
      <path
         d="M 12.009351,4.0091436 12.413277,3.7745067"
         id="path228" />
    </g>
  </g>
  <path
     style="opacity:1;fill:#aaccff;stroke:#000000;stroke-width:0.170786"
     d="m 72.211766,176.70169 c -2.57387,-0.40563 -4.11088,-1.25467 -5.94343,-3.28308 -1.98292,-2.19486 -2.80238,-1.94775 -2.80238,0.84504 v 2.04724 h -1.6736 -1.6736 v -24.47643 -24.47642 h 1.8828 1.8828 v 9.20481 c 0,8.56253 0.0522,9.20481 0.7482,9.20481 0.41151,0 1.44332,-0.83159 2.29291,-1.84798 3.05731,-3.65752 8.60808,-5.2364 13.45532,-3.82727 6.68228,1.9426 10.36952,10.19356 9.07306,20.30283 -0.58797,4.58478 -1.62404,7.50867 -3.71523,10.48476 -3.13931,4.46775 -8.22624,6.65706 -13.52685,5.82169 z m 6.21226,-4.52157 c 2.28077,-1.16357 4.90262,-4.25071 6.03371,-7.1045 1.25214,-3.15921 1.36902,-10.83332 0.21555,-14.15235 -2.08864,-6.00991 -7.00292,-8.80546 -12.58158,-7.15719 -2.48716,0.73485 -5.7387,4.11572 -6.96743,7.24455 -0.84369,2.14836 -0.98427,3.25768 -1.00575,7.93664 -0.0235,5.11812 0.0451,5.59078 1.16157,8.00696 2.09952,4.54353 5.17646,6.60953 9.32468,6.26101 1.17877,-0.099 2.89743,-0.56485 3.81925,-1.03512 z"
     id="path22495" />
  <path
     style="opacity:1;fill:#aaccff;stroke:#000000;stroke-width:0.170786"
     d="m 102.89555,174.10636 c -0.75045,-0.28734 -2.01491,-1.04144 -2.8099,-1.67578 -2.518664,-2.00969 -2.729254,-3.50791 -2.729254,-19.41686 v -13.94047 h 1.22098 c 0.67154,0 1.505014,-0.109 1.852174,-0.24221 0.55309,-0.21224 0.64792,1.4572 0.76642,13.49341 0.12768,12.96891 0.1832,13.81729 0.99465,15.19861 3.20144,5.44974 11.91993,4.61237 15.49512,-1.48825 1.95303,-3.33258 2.25061,-5.6592 2.25774,-17.65215 l 0.007,-10.98301 h 1.8828 1.8828 v 17.10965 c 0,18.65087 0.13698,17.61758 -2.33542,17.61758 -0.93225,0 -1.01178,-0.16091 -1.01178,-2.04723 0,-3.09023 -0.80887,-3.06291 -3.79393,0.12812 -1.52225,1.6273 -3.19142,2.95061 -4.26903,3.38448 -2.27208,0.9148 -7.60275,1.20604 -9.40991,0.51411 z"
     id="path22534" />
  <path
     style="opacity:1;fill:#aaccff;stroke:#000000;stroke-width:0.170786"
     d="m 134.17563,153.87368 v -17.21324 l 0.94141,-0.25228 c 0.51777,-0.13876 1.36503,-0.25486 1.8828,-0.258 l 0.9414,-0.006 v 17.32148 17.32149 l -1.8828,0.14975 -1.88281,0.14974 z"
     id="path22573" />
  <path
     style="opacity:1;fill:#aaccff;stroke:#000000;stroke-width:0.170786"
     d="m 133.75723,125.10563 c 0,-2.90384 0.2512,-3.16727 3.03341,-3.18109 1.13547,-0.006 1.1506,0.0294 1.1506,2.66159 0,2.65266 -0.007,2.66874 -1.3075,2.92881 -2.82063,0.56412 -2.87651,0.51732 -2.87651,-2.40931 z"
     id="path22612" />
  <path
     style="opacity:1;fill:#aaccff;stroke:#000000;stroke-width:0.170786"
     d="m 148.40125,145.55846 v -24.47643 h 1.8828 1.8828 v 24.47643 24.47642 h -1.8828 -1.8828 z"
     id="path22651" />
  <path
     style="opacity:1;fill:#aaccff;stroke:#000000;stroke-width:0.170786"
     d="m 171.52507,169.59355 c -3.86089,-0.76166 -6.73433,-3.05643 -8.61578,-6.88068 -1.44465,-2.93642 -1.95681,-5.82485 -1.95106,-11.0036 0.007,-6.74388 1.34511,-10.78959 4.85987,-14.69885 4.7577,-5.29172 13.32107,-6.11049 17.73578,-1.69579 2.80371,2.80372 2.92181,2.49073 2.92181,-7.74336 0,-8.87807 0.003,-8.90273 0.9414,-9.15433 0.51777,-0.13876 1.36503,-0.25486 1.8828,-0.258 l 0.9414,-0.006 v 24.43065 24.43065 l -1.4644,0.17096 -1.4644,0.17096 v -1.95919 c 0,-2.93692 -1.01225,-2.95333 -3.56514,-0.0578 -3.13126,3.55154 -7.70816,5.14457 -12.22228,4.25405 z m 8.25193,-4.57729 c 0.85135,-0.43432 2.14084,-1.46499 2.86553,-2.29037 3.00603,-3.42368 4.04065,-7.22805 3.74901,-13.78545 -0.17924,-4.03016 -0.33128,-4.70754 -1.62579,-7.24355 -2.27446,-4.45576 -5.83492,-6.27095 -10.56117,-5.3843 -3.34127,0.62682 -6.69705,4.05556 -8.29836,8.47876 -1.30424,3.60261 -1.27643,10.66736 0.0557,14.15592 1.16778,3.05812 4.14164,6.1601 6.54295,6.82485 2.09751,0.58064 5.30606,0.24715 7.27211,-0.75586 z"
     id="path22690" />
  <path
     style="opacity:1;fill:#aaccff;stroke:#000000;stroke-width:0.170786"
     d="m 40.639456,113.23702 c 1.42808,-14.250893 4.88487,-22.078463 13.26397,-30.034993 4.28278,-4.066786 8.27005,-7.023517 19.04158,-14.120129 6.43504,-4.239597 10.16612,-7.003525 12.20066,-9.038073 8.82201,-8.822008 9.52436,-21.750359 1.58927,-29.254326 -2.83771,-2.683531 -5.79314,-4.105343 -9.67676,-4.655331 -7.09091,-1.004196 -14.68912,1.693852 -18.54248,6.584248 -2.79117,3.542329 -4.89768,9.37654 -5.72288,15.850101 l -0.27674,2.170961 -2.16087,0.222343 c -1.18848,0.122289 -3.43176,0.337094 -4.98507,0.477344 l -2.8242,0.255002 V 50.56396 c 0,-4.626488 2.23515,-13.924118 4.35127,-18.100066 2.41592,-4.767603 7.06016,-9.508467 11.56702,-11.807698 6.34493,-3.236938 16.56271,-4.571827 24.04159,-3.140882 9.52707,1.822829 16.87501,8.693183 19.237494,17.987137 0.81602,3.210185 0.81907,10.894076 0.006,14.343771 -1.3145,5.575112 -4.625664,11.163602 -9.441074,15.934405 -3.67039,3.636393 -5.67036,5.089883 -16.49916,11.990905 -11.1403,7.099535 -14.91131,9.879265 -17.82575,13.139945 -3.55792,3.9806 -6.90087,12.017693 -5.57606,13.405903 0.49548,0.51919 3.56915,0.39052 23.07433,-0.96593 12.37648,-0.8607 23.39703,-1.67226 24.4901,-1.80347 l 1.987414,-0.23858 v 5.28391 c 0,5.2003 -0.0149,5.28393 -0.94141,5.28519 -0.51777,8.3e-4 -14.026874,0.94153 -30.020234,2.09072 -15.99335,1.1492 -29.43025,2.09002 -29.85977,2.09073 -0.71322,0.001 -0.7564,-0.24365 -0.49793,-2.82293 z"
     id="path22729" />
  <path
     style="opacity:1;fill:#5599ff;stroke:#000000;stroke-width:0.170786"
     d="m 125.13167,108.18277 c -4.7888,-3.09515 -8.37649,-8.472213 -10.13667,-15.192393 -0.88932,-3.39531 -1.56361,-7.89078 -1.18357,-7.89078 0.1286,0 2.00922,1.03942 4.17914,2.30983 l 3.94532,2.30982 0.28136,2.60638 c 0.48488,4.49153 2.0061,9.892433 3.84203,13.640643 0.97246,1.98536 1.72075,3.65768 1.66285,3.71626 -0.0579,0.0586 -1.2236,-0.61631 -2.59046,-1.49976 z"
     id="path27392" />
  <path
     style="opacity:1;fill:#5599ff;stroke:#000000;stroke-width:0.170786"
     d="m 145.27612,117.7167 c -9.77553,-1.53863 -16.36359,-7.21252 -19.41145,-16.71789 -0.71876,-2.241603 -2.14905,-9.222613 -2.14905,-10.489173 0,-0.36849 1.81613,-0.64058 6.75888,-1.01261 l 3.20247,-0.24105 0.51102,3.02967 c 1.6688,9.893783 5.95844,14.873983 14.02084,16.277993 5.3751,0.93604 12.92361,-0.31596 17.29015,-2.86773 6.51213,-3.80565 10.11058,-11.541593 9.5736,-20.581353 -0.47457,-7.98904 -3.98304,-12.890438 -10.72026,-14.976419 -2.46441,-0.763033 -11.57707,-1.016182 -13.96367,-0.387908 l -1.1506,0.302893 V 65.67091 61.288692 l 1.569,-0.236618 c 12.60905,-1.901542 17.2676,-4.06998 19.80152,-9.217091 1.20815,-2.454114 1.38479,-3.265801 1.55795,-7.159105 0.23325,-5.244748 -0.54851,-8.760591 -2.58483,-11.624716 -2.98972,-4.205104 -7.06574,-6.169542 -12.84059,-6.188515 -6.24667,-0.02052 -11.07045,1.457878 -14.49957,4.443863 -3.01134,2.62219 -5.59568,8.907325 -6.2372,15.168909 -0.31501,3.074729 0.05,2.879562 -6.1173,3.270466 l -4.0794,0.258565 v -1.64404 c 0,-2.197348 1.11352,-8.56749 1.95214,-11.167663 3.90673,-12.112923 13.29807,-18.602876 27.96527,-19.325593 9.154,-0.451058 15.82611,1.721363 20.62015,6.713866 4.10548,4.275427 5.83157,8.589668 6.21761,15.54053 0.27008,4.862801 -0.47204,9.151842 -2.19167,12.666637 -1.4545,2.972883 -4.94104,6.661849 -8.00974,8.474753 -2.20884,1.304924 -2.45942,1.584583 -2.15563,2.405802 0.18906,0.511076 0.59048,0.929234 0.89204,0.929234 1.30679,0 6.77134,3.063511 8.72618,4.89203 4.04833,3.786742 5.56363,8.359403 5.51936,16.655591 -0.0503,9.41889 -2.60882,16.048743 -8.47638,21.964293 -4.77613,4.8152 -9.90253,7.55357 -16.9114,9.03358 -3.7438,0.79055 -11.39939,1.0895 -14.67944,0.57323 z"
     id="path27431" />
  <path
     style="opacity:1;fill:#5599ff;stroke:#000000;stroke-width:0.170786"
     d="m 119.95002,86.509467 c -1.7259,-1.01141 -3.19176,-1.99779 -3.25746,-2.19196 -0.12748,-0.37676 3.24347,-0.88186 5.92555,-0.88787 1.11684,-0.003 2.57988,0.52507 4.69702,1.69376 1.69121,0.93356 3.17879,1.86545 3.30574,2.07086 0.2551,0.41276 -1.22427,0.69942 -5.02244,0.97319 -2.36034,0.17013 -2.698,0.071 -5.64841,-1.65798 z"
     id="path27470" />
  <path
     style="opacity:1;fill:#5599ff;stroke:#000000;stroke-width:0.170786"
     d="m 119.41253,46.756298 -4.0939,-2.352625 0.25416,-2.559462 c 1.38577,-13.95493 6.14946,-22.183385 15.38315,-26.57175 5.38829,-2.560813 8.59696,-3.183741 16.39931,-3.183741 5.76707,0 7.10011,0.129114 9.62321,0.932069 1.61084,0.512638 3.58778,1.358936 4.3932,1.880662 l 1.4644,0.948593 -6.0668,0.263521 c -7.19996,0.312741 -11.10171,1.135665 -15.86092,3.345254 -7.06628,3.280699 -11.49436,8.194341 -14.29146,15.858558 -1.28131,3.510882 -2.48286,9.405707 -2.48286,12.180987 0,0.890338 -0.14121,1.616943 -0.3138,1.614678 -0.17259,-0.0023 -2.15605,-1.0628 -4.40769,-2.356744 z"
     id="path27509" />
  <path
     style="opacity:1;fill:#5599ff;stroke:#000000;stroke-width:0.170786"
     d="m 145.26325,57.729557 c -1.61085,-0.975639 -2.92881,-2.029059 -2.92881,-2.340933 0,-0.378635 1.02063,-0.739014 3.07172,-1.084613 7.0872,-1.194154 12.4438,-3.93979 14.48647,-7.42534 1.20297,-2.052706 2.30209,-6.581726 2.29985,-9.476724 -10e-4,-1.885389 -0.81835,-6.204902 -1.45591,-7.698432 -0.30225,-0.70803 -0.20614,-0.762361 0.8801,-0.497534 1.48737,0.362626 4.12356,2.049996 5.52822,3.538503 3.8718,4.102927 4.60604,13.738866 1.46524,19.229345 -1.92201,3.359886 -7.16991,5.682357 -15.70297,6.949396 -2.42226,0.35967 -4.47408,0.637357 -4.55961,0.617083 -0.0855,-0.02027 -1.47346,-0.835112 -3.0843,-1.810751 z"
     id="path27548" />
  <path
     style="opacity:1;fill:#5599ff;stroke:#000000;stroke-width:0.170786"
     d="m 142.86313,66.776466 -4.07372,-2.38769 -0.006,-4.079404 c -0.003,-2.243673 0.10711,-4.079405 0.24498,-4.079405 0.13787,0 2.02067,1.041701 4.18401,2.31489 l 3.93333,2.314889 v 4.170318 c 0,2.293674 -0.0471,4.162167 -0.1046,4.152205 -0.0575,-0.01 -1.93778,-1.092573 -4.17832,-2.405803 z"
     id="path27587" />
  <path
     style="opacity:1;fill:#5599ff;stroke:#000000;stroke-width:0.170786"
     d="m 148.211,106.85575 c -2.26148,-0.40676 -6.55029,-2.42666 -6.80761,-3.20618 -0.10634,-0.32213 0.80399,-0.5811 2.68631,-0.76422 10.69113,-1.04008 17.4212,-6.043913 19.86253,-14.767903 1.03052,-3.6825 1.10451,-10.427856 0.15039,-13.709917 -0.37866,-1.302559 -0.58943,-2.467337 -0.46837,-2.588396 0.46173,-0.461729 4.84004,2.080167 6.22665,3.614976 2.42282,2.681772 3.36677,5.768787 3.4033,11.129887 0.0249,3.64802 -0.16069,5.21296 -0.89477,7.54673 -1.80541,5.73973 -6.21234,10.077313 -12.07955,11.889513 -3.12077,0.96391 -9.1156,1.38851 -12.07888,0.85551 z"
     id="path27626" />
  <path
     style="opacity:1;fill:#5599ff;stroke:#000000;stroke-width:0.170786"
     d="m 200.62353,102.54067 c -8.71397,-5.954833 -13.46152,-19.055203 -12.76479,-35.223091 0.55592,-12.900401 4.53625,-22.723834 12.01168,-29.644761 5.0082,-4.636713 10.55115,-6.871318 17.9853,-7.250657 5.21577,-0.266144 8.69888,0.413002 12.65663,2.467819 l 2.61499,1.357679 -4.39321,0.264235 c -5.52178,0.332116 -8.89514,1.179728 -13.31294,3.345096 -6.02754,2.954371 -11.31524,8.705598 -14.75748,16.051134 -6.63395,14.156474 -5.64367,37.102183 2.09617,48.570446 0.69317,1.02709 1.09048,1.86744 0.8829,1.86744 -0.20758,0 -1.56624,-0.8124 -3.01925,-1.80534 z"
     id="path27665" />
  <path
     style="opacity:1;fill:#5599ff;stroke:#000000;stroke-width:0.170786"
     d="m 218.60116,112.06427 c -7.89322,-1.91358 -14.62049,-8.62047 -17.81383,-17.759863 -1.85606,-5.3121 -2.59643,-10.44766 -2.59643,-18.010143 0,-14.789819 3.67241,-24.828932 11.89002,-32.503278 3.54911,-3.314477 6.7318,-5.144326 11.00933,-6.329692 10.87739,-3.014277 20.66185,-0.355329 26.35143,7.161057 0.56824,0.750689 1.1071,1.063851 1.54285,0.896637 0.59999,-0.230238 0.66963,-2.188606 0.66963,-18.831016 V 8.1139159 l 1.9874,-0.003 c 1.09307,-0.0016 3.25829,-0.123002 4.8116,-0.269703 l 2.82421,-0.266728 V 57.36636 107.15823 l -2.19661,0.26384 c -1.20813,0.14511 -3.09093,0.26548 -4.184,0.26748 l -1.9874,0.004 v -4.3932 c 0,-4.005203 -0.0688,-4.393193 -0.7788,-4.393193 -0.47736,0 -1.71945,1.228073 -3.20903,3.172853 -5.71252,7.4582 -12.34618,10.65891 -21.953,10.59223 -2.18614,-0.0152 -5.05146,-0.28862 -6.36737,-0.60763 z m 14.17046,-9.1387 c 8.60201,-2.29037 14.80298,-10.704673 16.48765,-22.372663 0.65619,-4.544728 0.29089,-14.79502 -0.65807,-18.465334 -1.84932,-7.152647 -5.97131,-12.919448 -10.93565,-15.299307 -4.70568,-2.255858 -12.02749,-1.838445 -16.85462,0.960873 -5.67256,3.289587 -10.11012,10.156865 -12.01089,18.587274 -1.00669,4.464919 -1.00424,14.561154 0.005,18.972384 1.52206,6.65532 5.52858,13.12511 9.73963,15.727683 3.69447,2.2833 9.73467,3.08531 14.22735,1.88909 z"
     id="path27704" />
  <path
     style="opacity:1;fill:#5599ff;stroke:#000000;stroke-width:0.170786"
     d="m 245.67935,40.059557 c -0.92048,-0.820359 -2.66207,-2.054316 -3.8702,-2.742126 l -2.1966,-1.250565 V 19.556274 3.0456809 l 1.7782,1.080031 c 0.97801,0.594018 2.86081,1.68369 4.184,2.421495 l 2.40581,1.341463 V 24.737311 c 0,9.266752 -0.14121,16.840803 -0.31381,16.831224 -0.17259,-0.0096 -1.06692,-0.688619 -1.9874,-1.508978 z"
     id="path27743" />
  <path
     style="opacity:1;fill:#5599ff;stroke:#000000;stroke-width:0.170786"
     d="m 245.88855,4.7507009 c -1.49578,-0.890644 -2.7196,-1.863306 -2.7196,-2.161472 0,-0.389163 0.95255,-0.576061 3.37609,-0.662417 3.36006,-0.119727 3.39242,-0.110789 6.8153,1.882802 l 3.43921,2.0031 -1.79449,0.282787 c -4.23098,0.666743 -6.23462,0.371181 -9.11651,-1.3448 z"
     id="path27782" />
  <path
     style="opacity:1;fill:#5599ff;stroke:#000000;stroke-width:0.170786"
     d="m 223.68377,101.2635 c -2.01416,-0.54307 -5.82805,-2.588833 -5.82805,-3.126143 0,-0.17368 1.22671,-0.52591 2.72602,-0.78273 6.39504,-1.09542 11.46404,-4.96504 14.73181,-11.2461 5.22132,-10.036041 5.63891,-25.573529 0.95765,-35.631566 -0.6694,-1.438251 -1.0312,-2.615003 -0.80401,-2.615003 1.03339,0 4.04103,1.940273 5.78826,3.734089 2.35073,2.413408 4.33803,6.259595 5.529,10.700727 1.24027,4.624974 1.36051,15.937149 0.22237,20.920023 -1.60738,7.03723 -5.74716,13.53578 -10.33523,16.22405 -3.72279,2.181263 -8.94156,2.913643 -12.98782,1.822653 z"
     id="path27821" />
  <path
     style="opacity:1;fill:#5599ff;stroke:#000000;stroke-width:0.170786"
     d="m 247.87596,106.52682 c -0.63284,-0.38556 -1.15061,-0.90702 -1.15061,-1.15878 0,-0.59582 2.01716,-2.49154 2.32432,-2.18438 0.12958,0.12958 0.1774,1.09254 0.10625,2.13989 l -0.12936,1.90429 z"
     id="path27860" />
</svg>
