<?xml version="1.0" encoding="UTF-8" standalone="no"?>
    <svg
    xmlns:svg="http://www.w3.org/2000/svg"
    xmlns="http://www.w3.org/2000/svg"
    width="1040"
    height="850"
    >
        <g transform="scale(50, -50)   translate(10.400000113384301,-8.376806152927902)" stroke-width="0.02"  fill="none">
        <!-- hidden lines -->
        <g  stroke="rgb(160,160,160)" fill="none" stroke-dasharray="0.02,0.02" >
    			<path d="M-7.071067811865475,4.201364163575379 L-7.242470829514668,4.073502510600138 L-7.409511253549589,3.9426175704436788 L-7.5720884650648435,3.8087881832998476 L-7.73010453362737,3.672094962987256 L-7.883464276266064,3.5326202483905322 L-8.03207531480645,3.3904480538624564 L-8.175848131515838,3.2456640186168504 L-8.314696123025453,3.0983553551427216 L-8.448535652497071,2.94861079667072 L-8.57728610000272,2.7965205437235614 L-8.700869911087114,2.6421762097825994 L-8.819212643483551,2.485670766103291 L-8.932243011955155,2.3270984857127957 L-9.039892931234435,2.166554886623424 L-9.142097557035308,2.004136674296153 L-9.238795325112868,1.8399416833888806 L-9.32992798834739,1.674068818824483 L-9.415440651830208,1.5066179962141883 L-9.495281805930366,1.3376900816721466 L-9.569403357322091,1.1673868310574536 L-9.6377606579544,0.9958108286802341 L-9.700312531945443,0.8230654255086836 L-9.757021300385286,0.6492546769143024 L-9.807852804032306,0.47448327999284134 L-9.852776423889413,0.29885651049868267 L-9.89176509964781,0.12248015943066148 L-9.9247953459871,-0.05453953069247519 L-9.95184726672197,-0.23209592982858973 L-9.972904566786902,-0.41008208464210416 L-9.987954562051724,-0.5883907829286894 L-9.996988186962042,-0.7669146181958897 L-10.0,-0.945546054360747 " />
			<path d="M10.0,-0.945546054360777 L9.998305817958235,-0.8115665922037252 L9.993223845883495,-0.6776325271664236 L9.984755805732949,-0.5437892409864259 L9.972904566786902,-0.4100820846421033 L9.957674144676599,-0.27655636298608277 L9.93906970002356,-0.14325731939431285 L9.917097536690996,-0.010230120435961276 L9.89176509964781,0.1224801594306637 L9.863080972445987,0.25482855313098085 L9.831054874312164,0.386770216210617 L9.795697656854404,0.518260442030342 L9.757021300385286,0.6492546769143062 L9.715038909862518,0.7797085352464461 L9.669764710448522,0.9095778145099485 L9.621214042690415,1.0388185102646725 L9.56940335732209,1.1673868310574562 L9.514350209690084,1.2952392132602526 L9.456073253805213,1.422332335831078 L9.3945922360219,1.548623134992754 L9.32992798834739,1.6740688188244839 L9.262102421383114,1.7986268817613156 L9.191138516900578,1.9222551189965715 L9.117060320054298,2.0449116407823764 L9.039892931234434,2.1665548866234263 L8.959662497561853,2.2871436393592006 L8.876396204028541,2.4066370391298353 L8.790122264286335,2.524994597220929 L8.700869911087116,2.6421762097825976 L8.608669386377674,2.7581421714181142 L8.513551931052653,2.8728531886375492 L8.415549774368985,2.986270393171828 L8.314696123025453,3.0983553551427208 L8.211025149911048,3.209070096084282 L8.10457198252595,3.318377101811342 L7.9953726910790515,3.42623933513067 L7.883464276266064,3.5326202483905322 L7.768884656732327,3.637483795864362 L7.651672656224591,3.7407944459643665 L7.531867990436126,3.8425171932809215 L7.409511253549593,3.942617570443676 L7.284643904482254,4.041061659800359 L7.157308252838189,4.1378161049093105 L7.027547444572255,4.232848121841858 L6.895405447370671,4.326125510290703 L6.760927035753163,4.417616664480564 L6.62415777590172,4.507290583877358 L6.485144010221127,4.595116883692317 L6.343932841636458,4.6810658051774485 L6.200572117632896,4.765108225708898 L6.0551104140432574,4.8472156686547425 L5.907597018588745,4.9273603130239145 L5.758081914178456,5.005515002892967 L5.606615761973364,5.08165325660749 L5.453249884220468,5.155749275755056 L5.298036246862949,5.227777953906662 L5.141027441932221,5.297714885123709 L4.982276669727822,5.3655363722276075 L4.821837720791232,5.431219434829261 L4.659764957679665,5.494741817115646 L4.49611329654607,5.556081995390899 L4.330938188531524,5.6152191853693285 L4.1642956009763745,5.672133349217878 L3.9962419984564725,5.7268052023456875 L3.8268343236509024,5.779216219938402 L3.656129978047744,5.829348643235065 L3.484186802494351,5.877185485545425 L3.3110630575987683,5.922710538005644 L3.1368174039889194,5.965908375070457 L2.961508882436244,6.006764359739906 L2.785196893850535,6.045264648518886 L2.60794117915276,6.081396196107825 L2.4298017990326444,6.115146759822908 L2.2508391135979346,6.146504903744351 L2.0711137619221924,6.17546000259129 L1.8906866414980672,6.202002245322031 L1.709618887603018,6.226122638458376 L1.5279718525844408,6.247813009132949 L1.3458070850712667,6.267066007858453 L1.163186309119053,6.283875111017949 L0.9801714032956121,6.298234623075295 L0.796824379714308,6.310139678505003 L0.6132073630220931,6.319586243440845 L0.42938256934941404,6.3265711170426915 L0.2454122852291293,6.331091932581055 L0.061358846491551815,6.333147158239036 L-0.12271538285719379,6.332736097631358 L-0.3067480317663602,6.329858890040317 L-0.49067674327417343,6.3245165103686 L-0.6744391956366333,6.316710768808948 L-0.8579731234443909,6.306444310230793 L-1.0412163387205395,6.293720613284091 L-1.2241067519921551,6.27854398922061 L-1.4065823933284847,6.260919580433145 L-1.5885814333386084,6.240853358713064 L-1.7700422041214807,6.218352123226868 L-1.9509032201612755,6.193423498212368 L-2.131103199160906,6.166075930395335 L-2.310581082806703,6.136318686127419 L-2.489276057457195,6.1041618482463935 L-2.667127574748976,6.069616312659711 L-2.8440753721127106,6.032693784652572 L-3.0200594931922744,5.993406774921755 L-3.19502030816015,5.951768595336533 L-3.368898533922193,5.907793354428124 L-3.5416352542048957,5.861495952609218 L-3.713171939518367,5.812892077125159 L-3.883450466988256,5.761998196738551 L-4.052413140049891,5.708831556149033 L-4.220002707997989,5.653410170150142 L-4.38616238538527,5.595752817525257 L-4.550835871263429,5.535879034684658 L-4.7139673682599685,5.473809109045877 L-4.875501601484354,5.409564072159585 L-5.035383837257167,5.3431656925833355 L-5.1935599016558855,5.274636468505582 L-5.349976198870962,5.203999620122477 L-5.50457972936604,5.131279081770028 L-5.657318107836126,5.056499493814263 L-5.808139580957641,4.979686194302181 L-5.956993044924326,4.900865210376306 L-6.1038280627630845,4.82006324945573 L-6.248594881423855,4.737307690186682 L-6.39124444863775,4.652626573165634 L-6.531728429537762,4.566048591438134 L-6.669999223036371,4.477603080776554 L-6.806009977954525,4.387320009740062 L-6.939714608896532,4.2952299695201805 L-7.071067811865436,4.2013641635754055 " />
			<path d="M1.8117333157176438,-3.810009161873801 L1.8117333157176438,-5.18141180759108 " />
			<path d="M-4.949747468305834,-2.491279238340166 L-4.949747468305834,-3.862681884057445 " />
			<path d="M1.8117333157176438,-5.18141180759108 L-4.949747468305834,-3.8626818840574453 " />
			<path d="M6.761480784023479,-0.20717200931848856 L6.761480784023479,-1.5785746550357675 " />
			<path d="M6.761480784023479,-1.5785746550357675 L1.8117333157176452,-5.181411807591079 " />
			<path d="M6.363324115733557,-0.4969834888410105 L6.761480784023479,-1.578574655035767 " />
			<path d="M-6.76148078402348,2.430287837748777 L-6.76148078402348,1.058885192031498 " />
			<path d="M-6.76148078402348,1.058885192031498 L-6.363324115733558,1.3486966715540198 " />
			<path d="M-4.949747468305834,-3.862681884057445 L-6.76148078402348,1.0588851920314988 " />
			<path d="M-2.8284271247461903,1.7989193556723264 L-2.8969883318058676,1.74777469448223 L-2.963804501419836,1.6954207184196461 L-3.028835386025938,1.641888963562114 L-3.0920418134509484,1.587211675437077 L-3.1533857105064262,1.5314217895983877 L-3.2128301259225807,1.4745529117871574 L-3.2703392526063357,1.4166392976889148 L-3.325878449210182,1.3577158322992635 L-3.379414260998829,1.297818008910463 L-3.4309144400010885,1.2369819077315996 L-3.480347964434846,1.1752441741552146 L-3.527685057393421,1.1126419966834913 L-3.5728972047820626,1.0492130845272931 L-3.6159571724937747,0.9849956448915445 L-3.6568390228141237,0.9200283599606363 L-3.695518130045148,0.8543503635977272 L-3.7319711953389563,0.7880012177719682 L-3.7661762607320837,0.7210208887278501 L-3.798112722372147,0.6534497229110335 L-3.8277613429288366,0.5853284226651563 L-3.8551042631817607,0.5166980217142685 L-3.8801250127781772,0.44759986044564837 L-3.902808520154115,0.37807556100789586 L-3.9231411216129226,0.30816700223931137 L-3.9411105695557658,0.2379162944416479 L-3.9567060398591245,0.16736575401443943 L-3.9699181383948408,0.09655787796518478 L-3.980738906688788,0.025535318310738964 L-3.9891618267147613,-0.045659143614666775 L-3.99518182482069,-0.11698262292930092 L-3.9987952747848174,-0.18839215703618103 L-4.000000000000001,-0.25984473150212395 " />
			<path d="M3.9999999999999996,-0.25984473150213594 L3.9972895383533977,-0.1526793206243946 L3.9891618267147604,-0.04565914361466647 L3.975627880009424,0.0610707624844497 L3.9567060398591236,0.16736575401444037 L3.932421949724865,0.27308177672642164 L3.902808520154114,0.3780755610078973 L3.8679058841794083,0.4822048160461543 L3.8277613429288353,0.5853284226651573 L3.782429301522085,0.6873066245746061 L3.7319711953389554,0.7880012177719684 L3.6764554067602306,0.8872757378408034 L3.6159571724937734,0.9849956448915453 L3.5505584816114157,1.081028505894109 L3.480347964434846,1.1752441741552138 L3.405420772421061,1.2675149656971945 L3.325878449210181,1.357715832299263 L3.2418287930103795,1.4457245309667117 L3.1533857105064254,1.5314217895983877 L3.060669062489836,1.6146914686279215 L2.963804501419837,1.6954207184196453 L2.8629233011352753,1.7735001322058994 L2.758162178948268,1.8488238943584556 L2.6496631103606876,1.9212899237931182 L2.537573136654583,1.9908000123131546 L2.4220441656173026,2.0572599577040718 L2.3032327656713822,2.120579691399362 L2.1812999536881867,2.180673400544197 L2.056410976772888,2.237459644291658 L1.9287350883164922,2.290861464173879 L1.7984453186184273,2.340806488398535 L1.6657182403905493,2.3872270299293263 L1.5307337294603602,2.4300601782175355 L1.3936747209977398,2.4692478844603447 L1.2547269615955672,2.5047370402703577 L1.1140787575402133,2.536479549649729 L0.9719207196130571,2.5644323941713383 L0.8284455047688764,2.588557691278691 L0.6838475550412066,2.6088227456255253 L0.5383228340285061,2.6252000933855557 L0.3920685613182443,2.637667539472293 L0.2452829452088367,2.646208187618513 L0.09816491409165116,2.650810463274597 L-0.04908615314287807,2.651468129294718 L-0.19627069730966992,2.648180294389615 L-0.3431892493777569,2.6409514143344923 L-0.48964270079686256,2.6297912859304193 L-0.6354325733354439,2.6147150337274008 L-0.7803612880645108,2.5957430895271223 L-0.9242324331226817,2.572901164693143 L-1.0668510298995912,2.546220215306059 L-1.2080237972769103,2.515736400210877 L-1.3475594135688778,2.4814910320134245 L-1.4852687758073475,2.4435305210922387 L-1.6209652560199572,2.4019063127017874 L-1.7544649541541086,2.3566748172522773 L-1.8855869473039881,2.307897333860526 L-2.014153534902867,2.255639967275509 L-2.1399904795483855,2.1999735382911663 L-2.2629272431344507,2.1409734877678797 L-2.3827972179697308,2.078719774392697 L-2.4994379525695427,2.0132967663168477 L-2.6126913718151052,1.9447931268174288 L-2.7224039911818103,1.8733016941381995 L-2.828427124746175,1.7989193556723375 " />

        </g>

        <!-- solid lines -->
        <g  stroke="rgb(0,0,0)" fill="none">
    			<path d="M-10.0,-0.9455460543607793 L-9.996988186962042,-1.124177490525669 L-9.987954562051724,-1.3027013257928692 L-9.972904566786902,-1.4810100240794546 L-9.951847266721968,-1.658996178892969 L-9.9247953459871,-1.8365525780290834 L-9.89176509964781,-2.01357226815222 L-9.852776423889413,-2.1899486192202415 L-9.807852804032304,-2.3655753887144 L-9.757021300385286,-2.540346785635861 L-9.700312531945439,-2.714157534230242 L-9.637760657954399,-2.8869029374017927 L-9.569403357322088,-3.058478939779012 L-9.495281805930365,-3.228782190393705 L-9.415440651830206,-3.3977101049357468 L-9.329927988347388,-3.5651609275460414 L-9.238795325112866,-3.731033792110439 L-9.142097557035306,-3.8952287830177115 L-9.039892931234432,-4.057646995344982 L-8.932243011955153,-4.218190594434354 L-8.819212643483551,-4.376762874824847 L-8.700869911087114,-4.5332683185041525 L-8.577286100002722,-4.6876126524451145 L-8.448535652497073,-4.839702905392272 L-8.314696123025453,-4.989447463864277 L-8.175848131515835,-5.136756127338408 L-8.032075314806447,-5.2815401625840135 L-7.883464276266061,-5.423712357112089 L-7.730104533627369,-5.5631870717088105 L-7.572088465064844,-5.699880292021401 L-7.409511253549591,-5.833709679165231 L-7.24247082951467,-5.964594619321691 L-7.071067811865477,-6.092456272296932 L-6.8954054473706705,-6.217217619012256 L-6.7155895484701835,-6.338803507897534 L-6.531728429537765,-6.457140700159687 L-6.343932841636452,-6.572157913899007 L-6.152315905806266,-6.6837858670467085 L-5.956993044924332,-6.791957319097856 L-5.758081914178453,-6.896607111614523 L-5.555702330196022,-6.997672207474807 L-5.349976198870973,-7.095091728844027 L-5.141027441932218,-7.1888069938452634 L-4.928981922297842,-7.278761551907117 L-4.713967368259978,-7.364901217767429 L-4.496113296546069,-7.447174104112454 L-4.275550934302824,-7.525530652831842 L-4.052413140049904,-7.599923664870582 L-3.8268343236509033,-7.6703083286599565 L-3.5989503653498875,-7.73664224711035 L-3.3688985339222075,-7.798885463149674 L-3.136817403988923,-7.85700048379201 L-2.902846772544633,-7.910952302721984 L-2.6671275747489935,-7.960708421381261 L-2.4298017990326497,-8.006238868544461 L-2.191012401568701,-8.047516218372708 L-1.9509032201612866,-8.084515606933921 L-1.709618887603017,-8.117214747179931 L-1.4673047445536145,-8.14559394237135 L-1.2241067519921596,-8.169636097942165 L-0.9801714032956045,-8.18932673179685 L-0.7356456359966735,-8.204653983033854 L-0.4906767432741803,-8.215608619090153 L-0.2454122852291239,-8.22218404130261 L-1.8369701987210296e-15,-8.22437628888275 L0.2454122852291202,-8.22218404130261 L0.4906767432741766,-8.215608619090153 L0.7356456359966699,-8.204653983033854 L0.9801714032956009,-8.18932673179685 L1.224106751992156,-8.169636097942165 L1.4673047445536107,-8.145593942371352 L1.7096188876030132,-8.117214747179931 L1.950903220161283,-8.084515606933921 L2.1910124015686976,-8.047516218372708 L2.429801799032646,-8.006238868544463 L2.6671275747489904,-7.960708421381263 L2.9028467725446294,-7.910952302721986 L3.1368174039889194,-7.857000483792012 L3.3688985339222044,-7.798885463149675 L3.5989503653498844,-7.7366422471103515 L3.8268343236509,-7.6703083286599565 L4.0524131400499,-7.599923664870582 L4.275550934302822,-7.5255306528318435 L4.496113296546066,-7.447174104112456 L4.713967368259976,-7.3649012177674305 L4.928981922297838,-7.278761551907117 L5.1410274419322155,-7.188806993845265 L5.349976198870969,-7.095091728844029 L5.555702330196018,-6.997672207474809 L5.758081914178449,-6.896607111614525 L5.956993044924329,-6.7919573190978575 L6.152315905806263,-6.68378586704671 L6.343932841636449,-6.572157913899009 L6.531728429537761,-6.457140700159689 L6.715589548470176,-6.3388035078975395 L6.895405447370669,-6.217217619012258 L7.071067811865474,-6.092456272296934 L7.242470829514667,-5.9645946193216925 L7.409511253549594,-5.833709679165228 L7.572088465064848,-5.699880292021398 L7.730104533627372,-5.563187071708809 L7.883464276266064,-5.423712357112086 L8.03207531480645,-5.281540162584012 L8.175848131515837,-5.136756127338405 L8.314696123025453,-4.989447463864275 L8.44853565249707,-4.839702905392275 L8.57728610000272,-4.687612652445116 L8.700869911087114,-4.533268318504154 L8.819212643483548,-4.376762874824848 L8.932243011955151,-4.218190594434356 L9.039892931234432,-4.057646995344985 L9.142097557035305,-3.895228783017714 L9.238795325112864,-3.7310337921104417 L9.329927988347386,-3.565160927546044 L9.415440651830204,-3.397710104935749 L9.495281805930363,-3.2287821903937073 L9.569403357322086,-3.0584789397790177 L9.637760657954397,-2.8869029374018016 L9.700312531945437,-2.714157534230251 L9.757021300385285,-2.5403467856358635 L9.807852804032303,-2.3655753887144026 L9.852776423889411,-2.189948619220244 L9.89176509964781,-2.0135722681522163 L9.9247953459871,-1.8365525780290797 L9.95184726672197,-1.658996178892965 L9.972904566786902,-1.4810100240794508 L9.987954562051724,-1.3027013257928655 L9.996988186962042,-1.1241774905256652 L10.0,-0.9455460543608434 " />
			<path d="M1.8117333157176438,-3.810009161873801 L-4.949747468305834,-2.4912792383401663 " />
			<path d="M6.761480784023479,-0.20717200931848856 L1.8117333157176452,-3.8100091618738006 " />
			<path d="M4.949747468305832,4.714395066770453 L6.761480784023479,-0.20717200931848812 " />
			<path d="M-1.8117333157176478,6.033124990304087 L4.949747468305834,4.714395066770454 " />
			<path d="M-6.76148078402348,2.430287837748777 L-1.8117333157176478,6.033124990304087 " />
			<path d="M-4.949747468305834,-2.491279238340166 L-6.76148078402348,2.4302878377487778 " />
			<path d="M4.949747468305832,4.714395066770453 L4.949747468305832,3.342992421053174 " />
			<path d="M4.949747468305832,3.342992421053174 L6.363324115733557,-0.4969834888410105 " />
			<path d="M-1.8117333157176478,6.033124990304087 L-1.8117333157176478,4.661722344586808 " />
			<path d="M-1.8117333157176478,4.661722344586807 L4.949747468305834,3.3429924210531743 " />
			<path d="M-6.363324115733558,1.3486966715540198 L-1.8117333157176478,4.661722344586807 " />
			<path d="M-4.000000000000001,-0.2598447315021369 L-3.9987952747848174,-0.3312973059680927 L-3.99518182482069,-0.4027068400749728 L-3.9891618267147613,-0.474030319389607 L-3.9807389066887877,-0.5452247813150127 L-3.9699181383948403,-0.6162473409694585 L-3.956706039859124,-0.6870552170187132 L-3.9411105695557653,-0.7576057574459216 L-3.923141121612922,-0.8278564652435851 L-3.9028085201541147,-0.8977650240121695 L-3.8801250127781763,-0.967289323449922 L-3.8551042631817602,-1.0363874847185421 L-3.8277613429288357,-1.10501788566943 L-3.7981127223721463,-1.173139185915307 L-3.766176260732083,-1.2407103517321239 L-3.7319711953389554,-1.3076906807762418 L-3.695518130045147,-1.3740398266020009 L-3.6568390228141228,-1.43971782296491 L-3.6159571724937734,-1.504685107895818 L-3.5728972047820617,-1.5689025475315668 L-3.5276850573934206,-1.6323314596877638 L-3.4803479644348463,-1.6949336371594859 L-3.430914440001089,-1.7566713707358708 L-3.3794142609988294,-1.8175074719147342 L-3.3258784492101814,-1.8774052953035356 L-3.2703392526063344,-1.9363287606931883 L-3.2128301259225793,-1.9942423747914306 L-3.153385710506425,-2.051111252602661 L-3.092041813450948,-2.1069011384413496 L-3.0288353860259383,-2.1615784265663853 L-2.963804501419837,-2.215110181423918 L-2.8969883318058685,-2.2674641574865015 L-2.828427124746191,-2.318608818676598 L-2.6862358193880738,-2.4171477129168393 L-2.537573136654581,-2.510489475317428 L-2.382797217969733,-2.5984092373969676 L-2.222280932078409,-2.680695192747748 L-2.0564109767728875,-2.7571491072959304 L-1.8855869473039921,-2.8275867968647965 L-1.7102203737211306,-2.891838570890562 L-1.530733729460362,-2.9497496412218074 L-1.3475594135688838,-3.001180495017695 L-1.1611387090178538,-3.046007230846619 L-0.9719207196130605,-3.0841218571756097 L-0.7803612880645152,-3.1154325525313937 L-0.5869218978214463,-3.1398638867063657 L-0.39206856131824236,-3.1573570024765654 L-0.19627069730967267,-3.1678697573938868 L-1.2905006793196854e-15,-3.1713768253109254 L0.1962706973096701,-3.1678697573938868 L0.3920685613182398,-3.1573570024765654 L0.5869218978214438,-3.139863886706366 L0.7803612880645127,-3.115432552531394 L0.9719207196130579,-3.08412185717561 L1.161138709017851,-3.0460072308466195 L1.347559413568881,-3.001180495017695 L1.5307337294603593,-2.949749641221808 L1.710220373721128,-2.8918385708905623 L1.8855869473039897,-2.827586796864797 L2.0564109767728858,-2.757149107295931 L2.222280932078407,-2.6806951927477485 L2.382797217969731,-2.598409237396968 L2.5375731366545793,-2.5104894753174283 L2.68623581938807,-2.4171477129168406 L2.828427124746189,-2.3186088186765987 L2.8969883318058662,-2.2674641574865024 L2.9638045014198373,-2.2151101814239165 L3.0288353860259387,-2.1615784265663844 L3.0920418134509484,-2.1069011384413483 L3.1533857105064254,-2.0511112526026594 L3.2128301259225798,-1.9942423747914297 L3.2703392526063344,-1.9363287606931872 L3.3258784492101805,-1.8774052953035354 L3.3794142609988276,-1.817507471914735 L3.4309144400010876,-1.7566713707358717 L3.480347964434845,-1.694933637159487 L3.527685057393419,-1.6323314596877645 L3.57289720478206,-1.5689025475315677 L3.615957172493772,-1.504685107895819 L3.6568390228141214,-1.4397178229649108 L3.6955181300451456,-1.3740398266020017 L3.731971195338954,-1.3076906807762427 L3.7661762607320814,-1.2407103517321247 L3.798112722372145,-1.173139185915308 L3.827761342928834,-1.1050178856694322 L3.855104263181758,-1.0363874847185457 L3.8801250127781746,-0.9672893234499256 L3.9028085201541134,-0.8977650240121705 L3.923141121612921,-0.8278564652435861 L3.941110569555764,-0.7576057574459227 L3.9567060398591236,-0.6870552170187116 L3.9699181383948394,-0.6162473409694571 L3.9807389066887873,-0.5452247813150112 L3.9891618267147604,-0.4740303193896055 L3.995181824820689,-0.4027068400749713 L3.9987952747848166,-0.3312973059680912 L3.9999999999999996,-0.25984473150216253 " />
			<path d="M-2.8284271247461903,3.1703220013896054 L-2.8969883318058676,3.119177340199509 L-2.963804501419836,3.0668233641369254 L-3.028835386025938,3.013291609279393 L-3.0920418134509484,2.9586143211543563 L-3.1533857105064262,2.902824435315667 L-3.2128301259225807,2.8459555575044364 L-3.2703392526063357,2.788041943406194 L-3.325878449210182,2.7291184780165425 L-3.379414260998829,2.669220654627742 L-3.4309144400010885,2.6083845534488788 L-3.480347964434846,2.5466468198724934 L-3.527685057393421,2.4840446424007703 L-3.5728972047820626,2.420615730244572 L-3.6159571724937747,2.3563982906088237 L-3.6568390228141237,2.2914310056779152 L-3.695518130045148,2.225753009315006 L-3.7319711953389563,2.1594038634892474 L-3.7661762607320837,2.092423534445129 L-3.798112722372147,2.0248523686283124 L-3.8277613429288366,1.9567310683824353 L-3.8551042631817607,1.8881006674315475 L-3.8801250127781772,1.8190025061629274 L-3.902808520154115,1.7494782067251748 L-3.9231411216129226,1.6795696479565905 L-3.9411105695557658,1.609318940158927 L-3.9567060398591245,1.5387683997317185 L-3.9699181383948408,1.4679605236824638 L-3.980738906688788,1.396937964028018 L-3.9891618267147613,1.3257435021026123 L-3.99518182482069,1.254420022787978 L-3.9987952747848174,1.183010488681098 L-4.000000000000001,1.111557914215155 " />
			<path d="M-4.000000000000001,1.1115579142151422 L-3.9987952747848174,1.0401053397491862 L-3.99518182482069,0.9686958056423062 L-3.9891618267147613,0.897372326327672 L-3.9807389066887877,0.8261778644022663 L-3.9699181383948403,0.7551553047478204 L-3.956706039859124,0.6843474286985658 L-3.9411105695557653,0.6137968882713574 L-3.923141121612922,0.5435461804736939 L-3.9028085201541147,0.4736376217051095 L-3.8801250127781763,0.40411332226735697 L-3.8551042631817602,0.33501516099873674 L-3.8277613429288357,0.26638476004784906 L-3.7981127223721463,0.1982634598019718 L-3.766176260732083,0.13069229398515525 L-3.7319711953389554,0.06371196494103715 L-3.695518130045147,-0.002637180884721868 L-3.6568390228141228,-0.06831517724763092 L-3.6159571724937734,-0.13328246217853912 L-3.5728972047820617,-0.19749990181428778 L-3.5276850573934206,-0.26092881397048484 L-3.4803479644348463,-0.32353099144220687 L-3.430914440001089,-0.3852687250185918 L-3.3794142609988294,-0.4461048261974552 L-3.3258784492101814,-0.5060026495862566 L-3.2703392526063344,-0.5649261149759093 L-3.2128301259225793,-0.6228397290741516 L-3.153385710506425,-0.6797086068853819 L-3.092041813450948,-0.7354984927240704 L-3.0288353860259383,-0.7901757808491066 L-2.963804501419837,-0.8437075357066388 L-2.8969883318058685,-0.8960615117692226 L-2.828427124746191,-0.9472061729593189 L-2.6862358193880738,-1.0457450671995603 L-2.537573136654581,-1.1390868296001488 L-2.382797217969733,-1.2270065916796886 L-2.222280932078409,-1.309292547030469 L-2.0564109767728875,-1.3857464615786514 L-1.8855869473039921,-1.4561841511475175 L-1.7102203737211306,-1.5204359251732829 L-1.530733729460362,-1.5783469955045284 L-1.3475594135688838,-1.629777849300416 L-1.1611387090178538,-1.67460458512934 L-0.9719207196130605,-1.7127192114583307 L-0.7803612880645152,-1.7440299068141147 L-0.5869218978214463,-1.7684612409890867 L-0.39206856131824236,-1.7859543567592864 L-0.19627069730967267,-1.7964671116766078 L-1.2905006793196854e-15,-1.7999741795936464 L0.1962706973096701,-1.7964671116766078 L0.3920685613182398,-1.7859543567592864 L0.5869218978214438,-1.7684612409890872 L0.7803612880645127,-1.7440299068141152 L0.9719207196130579,-1.7127192114583312 L1.161138709017851,-1.6746045851293405 L1.347559413568881,-1.629777849300416 L1.5307337294603593,-1.5783469955045288 L1.710220373721128,-1.5204359251732833 L1.8855869473039897,-1.456184151147518 L2.0564109767728858,-1.385746461578652 L2.222280932078407,-1.3092925470304695 L2.382797217969731,-1.227006591679689 L2.5375731366545793,-1.1390868296001493 L2.68623581938807,-1.0457450671995616 L2.828427124746189,-0.9472061729593197 L2.8969883318058662,-0.8960615117692234 L2.9638045014198373,-0.8437075357066375 L3.0288353860259387,-0.7901757808491052 L3.0920418134509484,-0.7354984927240693 L3.1533857105064254,-0.6797086068853806 L3.2128301259225798,-0.6228397290741507 L3.2703392526063344,-0.5649261149759082 L3.3258784492101805,-0.5060026495862564 L3.3794142609988276,-0.44610482619745606 L3.4309144400010876,-0.38526872501859266 L3.480347964434845,-0.323530991442208 L3.527685057393419,-0.2609288139704855 L3.57289720478206,-0.19749990181428867 L3.615957172493772,-0.13328246217854 L3.6568390228141214,-0.06831517724763181 L3.6955181300451456,-0.0026371808847227562 L3.731971195338954,0.06371196494103626 L3.7661762607320814,0.13069229398515425 L3.798112722372145,0.1982634598019709 L3.827761342928834,0.2663847600478467 L3.855104263181758,0.3350151609987333 L3.8801250127781746,0.4041133222673534 L3.9028085201541134,0.4736376217051085 L3.923141121612921,0.5435461804736929 L3.941110569555764,0.6137968882713563 L3.9567060398591236,0.6843474286985674 L3.9699181383948394,0.7551553047478219 L3.9807389066887873,0.8261778644022678 L3.9891618267147604,0.8973723263276735 L3.995181824820689,0.9686958056423076 L3.9987952747848166,1.0401053397491877 L3.9999999999999996,1.1115579142151164 " />
			<path d="M3.9999999999999996,1.111557914215143 L3.9972895383533977,1.2187233250928844 L3.9891618267147604,1.3257435021026125 L3.975627880009424,1.4324734082017287 L3.9567060398591236,1.5387683997317194 L3.932421949724865,1.6444844224437007 L3.902808520154114,1.7494782067251764 L3.8679058841794083,1.8536074617634333 L3.8277613429288353,1.9567310683824362 L3.782429301522085,2.058709270291885 L3.7319711953389554,2.1594038634892474 L3.6764554067602306,2.2586783835580824 L3.6159571724937734,2.3563982906088246 L3.5505584816114157,2.452431151611388 L3.480347964434846,2.5466468198724925 L3.405420772421061,2.6389176114144735 L3.325878449210181,2.729118478016542 L3.2418287930103795,2.8171271766839907 L3.1533857105064254,2.902824435315667 L3.060669062489836,2.9860941143452004 L2.963804501419837,3.0668233641369245 L2.8629233011352753,3.1449027779231784 L2.758162178948268,3.2202265400757346 L2.6496631103606876,3.2926925695103972 L2.537573136654583,3.3622026580304336 L2.4220441656173026,3.4286626034213508 L2.3032327656713822,3.491982337116641 L2.1812999536881867,3.552076046261476 L2.056410976772888,3.608862290008937 L1.9287350883164922,3.662264109891158 L1.7984453186184273,3.712209134115814 L1.6657182403905493,3.7586296756466053 L1.5307337294603602,3.8014628239348145 L1.3936747209977398,3.8406505301776237 L1.2547269615955672,3.8761396859876367 L1.1140787575402133,3.907882195367008 L0.9719207196130571,3.9358350398886173 L0.8284455047688764,3.95996033699597 L0.6838475550412066,3.9802253913428043 L0.5383228340285061,3.9966027391028347 L0.3920685613182443,4.009070185189572 L0.2452829452088367,4.017610833335792 L0.09816491409165116,4.022213108991876 L-0.04908615314287807,4.022870775011997 L-0.19627069730966992,4.019582940106893 L-0.3431892493777569,4.012354060051772 L-0.48964270079686256,4.001193931647698 L-0.6354325733354439,3.9861176794446798 L-0.7803612880645108,3.9671457352444013 L-0.9242324331226817,3.944303810410422 L-1.0668510298995912,3.917622861023338 L-1.2080237972769103,3.887139045928156 L-1.3475594135688778,3.8528936777307035 L-1.4852687758073475,3.8149331668095177 L-1.6209652560199572,3.7733089584190664 L-1.7544649541541086,3.7280774629695563 L-1.8855869473039881,3.679299979577805 L-2.014153534902867,3.627042612992788 L-2.1399904795483855,3.5713761840084453 L-2.2629272431344507,3.5123761334851586 L-2.3827972179697308,3.450122420109976 L-2.4994379525695427,3.3846994120341267 L-2.6126913718151052,3.3161957725347078 L-2.7224039911818103,3.2447043398554785 L-2.828427124746175,3.1703220013896165 " />
			<path d="M-10.0,0.4258565913564998 L-9.996988186962042,0.24722515519161017 L-9.987954562051724,0.06870131992440986 L-9.972904566786902,-0.10960737836217549 L-9.951847266721968,-0.2875935331756898 L-9.9247953459871,-0.46514993231180435 L-9.89176509964781,-0.6421696224349408 L-9.852776423889413,-0.8185459735029622 L-9.807852804032304,-0.9941727429971209 L-9.757021300385286,-1.1689441399185818 L-9.700312531945439,-1.342754888512963 L-9.637760657954399,-1.5155002916845137 L-9.569403357322088,-1.687076294061733 L-9.495281805930365,-1.857379544676426 L-9.415440651830206,-2.0263074592184678 L-9.329927988347388,-2.1937582818287624 L-9.238795325112866,-2.35963114639316 L-9.142097557035306,-2.5238261373004325 L-9.039892931234432,-2.686244349627703 L-8.932243011955153,-2.846787948717075 L-8.819212643483551,-3.0053602291075676 L-8.700869911087114,-3.161865672786873 L-8.577286100002722,-3.316210006727835 L-8.448535652497073,-3.4683002596749932 L-8.314696123025453,-3.6180448181469975 L-8.175848131515835,-3.765353481621129 L-8.032075314806447,-3.910137516866735 L-7.883464276266061,-4.05230971139481 L-7.730104533627369,-4.191784425991531 L-7.572088465064844,-4.328477646304122 L-7.409511253549591,-4.462307033447953 L-7.24247082951467,-4.593191973604411 L-7.071067811865477,-4.721053626579653 L-6.8954054473706705,-4.845814973294978 L-6.7155895484701835,-4.967400862180256 L-6.531728429537765,-5.085738054442409 L-6.343932841636452,-5.2007552681817275 L-6.152315905806266,-5.31238322132943 L-5.956993044924332,-5.420554673380577 L-5.758081914178453,-5.525204465897245 L-5.555702330196022,-5.626269561757527 L-5.349976198870973,-5.723689083126748 L-5.141027441932218,-5.817404348127984 L-4.928981922297842,-5.907358906189838 L-4.713967368259978,-5.99349857205015 L-4.496113296546069,-6.075771458395176 L-4.275550934302824,-6.154128007114562 L-4.052413140049904,-6.228521019153303 L-3.8268343236509033,-6.298905682942677 L-3.5989503653498875,-6.365239601393071 L-3.3688985339222075,-6.427482817432395 L-3.136817403988923,-6.485597838074732 L-2.902846772544633,-6.539549657004706 L-2.6671275747489935,-6.589305775663982 L-2.4298017990326497,-6.634836222827182 L-2.191012401568701,-6.676113572655429 L-1.9509032201612866,-6.713112961216643 L-1.709618887603017,-6.7458121014626515 L-1.4673047445536145,-6.774191296654072 L-1.2241067519921596,-6.798233452224886 L-0.9801714032956045,-6.817924086079572 L-0.7356456359966735,-6.833251337316574 L-0.4906767432741803,-6.844205973372874 L-0.2454122852291239,-6.85078139558533 L-1.8369701987210296e-15,-6.8529736431654715 L0.2454122852291202,-6.85078139558533 L0.4906767432741766,-6.844205973372874 L0.7356456359966699,-6.833251337316574 L0.9801714032956009,-6.817924086079572 L1.224106751992156,-6.798233452224886 L1.4673047445536107,-6.774191296654073 L1.7096188876030132,-6.745812101462652 L1.950903220161283,-6.713112961216643 L2.1910124015686976,-6.67611357265543 L2.429801799032646,-6.634836222827183 L2.6671275747489904,-6.589305775663983 L2.9028467725446294,-6.539549657004707 L3.1368174039889194,-6.4855978380747334 L3.3688985339222044,-6.427482817432396 L3.5989503653498844,-6.365239601393072 L3.8268343236509,-6.298905682942678 L4.0524131400499,-6.228521019153304 L4.275550934302822,-6.154128007114564 L4.496113296546066,-6.0757714583951765 L4.713967368259976,-5.993498572050151 L4.928981922297838,-5.907358906189838 L5.1410274419322155,-5.817404348127986 L5.349976198870969,-5.72368908312675 L5.555702330196018,-5.626269561757529 L5.758081914178449,-5.525204465897247 L5.956993044924329,-5.420554673380579 L6.152315905806263,-5.312383221329432 L6.343932841636449,-5.200755268181729 L6.531728429537761,-5.08573805444241 L6.715589548470176,-4.96740086218026 L6.895405447370669,-4.84581497329498 L7.071067811865474,-4.721053626579654 L7.242470829514667,-4.593191973604414 L7.409511253549594,-4.462307033447949 L7.572088465064848,-4.328477646304119 L7.730104533627372,-4.191784425991529 L7.883464276266064,-4.052309711394807 L8.03207531480645,-3.9101375168667323 L8.175848131515837,-3.7653534816211254 L8.314696123025453,-3.6180448181469966 L8.44853565249707,-3.468300259674996 L8.57728610000272,-3.3162100067278373 L8.700869911087114,-3.1618656727868752 L8.819212643483548,-3.0053602291075694 L8.932243011955151,-2.8467879487170773 L9.039892931234432,-2.6862443496277058 L9.142097557035305,-2.523826137300435 L9.238795325112864,-2.3596311463931627 L9.329927988347386,-2.193758281828765 L9.415440651830204,-2.02630745921847 L9.495281805930363,-1.8573795446764283 L9.569403357322086,-1.6870762940617388 L9.637760657954397,-1.5155002916845222 L9.700312531945437,-1.3427548885129719 L9.757021300385285,-1.1689441399185845 L9.807852804032303,-0.9941727429971233 L9.852776423889411,-0.8185459735029649 L9.89176509964781,-0.6421696224349372 L9.9247953459871,-0.4651499323118006 L9.95184726672197,-0.28759353317568603 L9.972904566786902,-0.10960737836217171 L9.987954562051724,0.06870131992441364 L9.996988186962042,0.24722515519161395 L10.0,0.42585659135643567 " />
			<path d="M-6.363961030678928,5.743777110357682 L-6.518223746563201,5.628701622679966 L-6.66856012819463,5.510905176539151 L-6.8148796185583596,5.390458728109703 L-6.957094080264633,5.267434829828371 L-7.095117848639458,5.141907586691319 L-7.228867783325805,5.013952611616052 L-7.358263318364254,4.883646979895006 L-7.483226510722908,4.7510691827682905 L-7.603682087247364,4.616299080143489 L-7.719557490002448,4.479417852491046 L-7.830782919978402,4.340507951944181 L-7.9372913791351944,4.199653052632805 L-8.039018710759636,4.056938000281362 L-8.135903638110989,3.9124487611009275 L-8.227887801331775,3.766272370006384 L-8.31491579260158,3.6184968781898363 L-8.39693518951265,3.469211300081876 L-8.473896586647188,3.31850555973261 L-8.54575362533733,3.1664704366447727 L-8.61246302158988,3.013197511091552 L-8.67398459215896,2.8587791089520573 L-8.730281278750896,2.703308246097662 L-8.781319170346755,2.5468785723627185 L-8.827067523629074,2.389584315133404 L-8.86749878150047,2.231520222588661 L-8.902588589683027,2.072781506627442 L-8.93231581138839,1.913463785516619 L-8.956662540049772,1.753663026294113 L-8.975614110108213,1.5934754869619474 L-8.989159105846552,1.4329976585040205 L-8.997289368265838,1.2723262067635401 L-9.0,1.1115579142151426 L-8.997289368265838,0.9507896216667449 L-8.989159105846552,0.7901181699262645 L-8.975614110108213,0.6296403414683377 L-8.956662540049772,0.4694528021361748 L-8.93231581138839,0.30965204291367177 L-8.90258858968303,0.15033432180284867 L-8.867498781500473,-0.008404394158370243 L-8.827067523629076,-0.16646848670311587 L-8.781319170346757,-0.32376274393243354 L-8.730281278750896,-0.48019241766737664 L-8.67398459215896,-0.6356632805217726 L-8.61246302158988,-0.7900816826612669 L-8.545753625337332,-0.9433546082144879 L-8.473896586647188,-1.0953897313023253 L-8.396935189512652,-1.2460954716515906 L-8.314915792601582,-1.395381049759549 L-8.227887801331779,-1.543156541576094 L-8.135903638110992,-1.6893329326706379 L-8.039018710759642,-1.833822171851072 L-7.937291379135197,-1.9765372242025179 L-7.830782919978403,-2.1173921235138957 L-7.719557490002449,-2.256302024060761 L-7.603682087247365,-2.393183251713204 L-7.4832265107229095,-2.5279533543380053 L-7.358263318364255,-2.660531151464721 L-7.228867783325807,-2.790836783185767 L-7.09511784863946,-2.9187917582610345 L-6.957094080264637,-3.0443190013980836 L-6.814879618558365,-3.1673428996794155 L-6.6685601281946365,-3.287789348108863 L-6.5182237465632085,-3.4055857942496766 L-6.363961030678931,-3.5206612819273952 L-6.2058649026336035,-3.63294649397119 L-6.044030593623168,-3.742373793967938 L-5.878555586583994,-3.8488772670038727 L-5.709539557472813,-3.952392759369261 L-5.537084315225646,-4.052857917202193 L-5.361293740431905,-4.150212224048225 L-5.182273722760613,-4.244397037313226 L-5.000132097176427,-4.335355623587482 L-4.814978578983881,-4.42303319281978 L-4.626924697738996,-4.507376931320895 L-4.436083730068058,-4.588336033576564 L-4.24257063143398,-4.6658617328508445 L-4.046501966891462,-4.739907330561367 L-3.8479958408725423,-4.810428224408817 L-3.647171826044913,-4.877381935243681 L-3.444150891285813,-4.940728132654119 L-3.239055328814899,-5.000428659259473 L-3.032008680529987,-5.0564475536948645 L-2.8231356635900307,-5.108751072272968 L-2.6125620952901696,-5.157307709309945 L-2.4004148172740942,-5.202088216103293 L-2.1868216191293848,-5.243065618550174 L-1.9719111614118388,-5.2802152333955945 L-1.7558128981451657,-5.313514683100687 L-1.5386569988427232,-5.342943909322095 L-1.3205742700982688,-5.368485184994373 L-1.1016960767929596,-5.390123125008106 L-0.8821542629660599,-5.407844695477323 L-0.6620810723970221,-5.421639221590626 L-0.44160906894677826,-5.431498394041297 L-0.22087105670621948,-5.437416274032508 L-9.646878956150053e-15,-5.439389296854634 L0.2208710567062002,-5.437416274032508 L0.44160906894675894,-5.431498394041297 L0.6620810723970029,-5.4216392215906275 L0.8821542629660408,-5.4078446954773245 L1.1016960767929405,-5.390123125008108 L1.3205742700982497,-5.368485184994375 L1.5386569988427041,-5.342943909322097 L1.7558128981451468,-5.31351468310069 L1.9719111614118199,-5.280215233395598 L2.186821619129366,-5.243065618550178 L2.4004148172740756,-5.202088216103299 L2.612562095290151,-5.157307709309949 L2.823135663590012,-5.108751072272973 L3.032008680529969,-5.05644755369487 L3.239055328814881,-5.000428659259478 L3.444150891285795,-4.940728132654124 L3.6471718260448958,-4.8773819352436885 L3.8479958408725246,-4.810428224408822 L4.046501966891445,-4.739907330561374 L4.2425706314339635,-4.665861732850852 L4.436083730068041,-4.588336033576571 L4.62692469773898,-4.507376931320902 L4.814978578983865,-4.423033192819789 L5.000132097176411,-4.335355623587489 L5.182273722760597,-4.2443970373132345 L5.361293740431896,-4.15021222404823 L5.537084315225636,-4.052857917202198 L5.709539557472804,-3.9523927593692663 L5.8785555865839845,-3.848877267003879 L6.044030593623159,-3.742373793967944 L6.2058649026335955,-3.6329464939711955 L6.363961030678921,-3.5206612819274032 L6.518223746563195,-3.4055857942496863 L6.668560128194624,-3.287789348108873 L6.814879618558353,-3.1673428996794253 L6.957094080264624,-3.0443190013980943 L7.095117848639448,-2.918791758261046 L7.2288677833257955,-2.7908367831857785 L7.35826331836425,-2.660531151464728 L7.483226510722903,-2.5279533543380115 L7.603682087247359,-2.3931832517132112 L7.719557490002448,-2.2563020240607634 L7.830782919978402,-2.1173921235138975 L7.937291379135194,-1.9765372242025223 L8.039018710759636,-1.8338221718510797 L8.135903638110989,-1.689332932670645 L8.227887801331775,-1.5431565415761015 L8.314915792601578,-1.3953810497595565 L8.396935189512648,-1.2460954716515986 L8.473896586647184,-1.0953897313023329 L8.545753625337326,-0.9433546082144955 L8.612463021589878,-0.7900816826612749 L8.673984592158957,-0.6356632805217801 L8.730281278750894,-0.48019241766738485 L8.781319170346753,-0.32376274393244153 L8.827067523629072,-0.16646848670312675 L8.867498781500469,-0.00840439415838401 L8.902588589683027,0.1503343218028349 L8.932315811388388,0.3096520429136578 L8.95666254004977,0.4694528021361608 L8.97561411010821,0.6296403414683237 L8.98915910584655,0.7901181699262505 L8.997289368265838,0.9507896216667365 L9.0,1.1115579142151344 L8.997289368265838,1.2723262067635321 L8.989159105846552,1.432997658504018 L8.975614110108213,1.593475486961945 L8.956662540049772,1.7536630262941078 L8.93231581138839,1.913463785516611 L8.902588589683031,2.0727815066274338 L8.867498781500473,2.231520222588653 L8.827067523629076,2.389584315133396 L8.781319170346759,2.5468785723627105 L8.7302812787509,2.703308246097654 L8.673984592158961,2.8587791089520493 L8.612463021589884,3.013197511091544 L8.545753625337333,3.1664704366447647 L8.473896586647191,3.3185055597326025 L8.396935189512655,3.469211300081868 L8.314915792601587,3.618496878189826 L8.227887801331782,3.7662723700063716 L8.135903638110998,3.9124487611009156 L8.039018710759645,4.056938000281349 L7.937291379135203,4.199653052632793 L7.830782919978412,4.3405079519441685 L7.719557490002458,4.479417852491034 L7.60368208724737,4.616299080143483 L7.483226510722914,4.751069182768283 L7.35826331836426,4.8836469798949995 L7.228867783325807,5.01395261161605 L7.09511784863946,5.1419075866913175 L6.957094080264637,5.267434829828366 L6.814879618558366,5.390458728109698 L6.668560128194638,5.510905176539145 L6.518223746563209,5.628701622679959 L6.363961030678935,5.7437771103576765 L6.205864902633611,5.856062322401469 L6.044030593623175,5.965489622398216 L5.8785555865840005,6.071993095434152 L5.70953955747282,6.1755085877995395 L5.537084315225652,6.275973745632474 L5.361293740431912,6.373328052478506 L5.182273722760614,6.46751286574351 L5.000132097176428,6.5584714520177645 L4.814978578983882,6.646149021250064 L4.626924697738997,6.730492759751179 L4.4360837300680585,6.811451862006846 L4.242570631433982,6.888977561281127 L4.046501966891463,6.963023158991652 L3.847995840872543,7.033544052839099 L3.6471718260449144,7.100497763673966 L3.444150891285814,7.163843961084403 L3.2390553288149,7.223544487689757 L3.032008680529988,7.279563382125149 L2.8231356635900315,7.331866900703252 L2.6125620952901705,7.380423537740228 L2.400414817274095,7.425204044533578 L2.1868216191293857,7.466181446980457 L1.9719111614118399,7.503331061825877 L1.7558128981451668,7.536630511530971 L1.538656998842724,7.566059737752379 L1.3205742700982697,7.591601013424656 L1.1016960767929607,7.613238953438389 L0.882154262966061,7.630960523907605 L0.6620810723970232,7.64475505002091 L0.4416090689467793,7.654614222471579 L0.2208710567062206,7.66053210246279 L1.0749061075382671e-14,7.662505125284918 L-0.2208710567061991,7.66053210246279 L-0.4416090689467579,7.654614222471579 L-0.6620810723970019,7.64475505002091 L-0.8821542629660397,7.630960523907607 L-1.1016960767929393,7.61323895343839 L-1.3205742700982486,7.591601013424659 L-1.5386569988426952,7.566059737752383 L-1.7558128981451457,7.536630511530973 L-1.9719111614118268,7.503331061825881 L-2.1868216191293652,7.46618144698046 L-2.400414817274067,7.425204044533583 L-2.61256209529015,7.380423537740233 L-2.8231356635900187,7.331866900703254 L-3.0320086805299677,7.279563382125154 L-3.2390553288148727,7.2235444876897645 L-3.444150891285794,7.1638439610844085 L-3.647171826044902,7.100497763673969 L-3.8479958408725237,7.033544052839106 L-4.0465019668914515,6.963023158991655 L-4.242570631433978,6.888977561281129 L-4.436083730068047,6.811451862006852 L-4.626924697738993,6.730492759751181 L-4.814978578983879,6.646149021250066 L-5.000132097176415,6.55847145201777 L-5.182273722760596,6.467512865743519 L-5.361293740431895,6.373328052478515 L-5.537084315225642,6.275973745632479 L-5.709539557472803,6.17550858779955 L-5.878555586583978,6.071993095434166 L-6.044030593623159,5.965489622398227 L-6.205864902633601,5.856062322401476 L-6.363961030678807,5.743777110357769 " />
			<path d="M10.000000000000002,-0.945546054360777 L10.000000000000002,0.425856591356502 " />
			<path d="M-10.000000000000002,-0.945546054360777 L-10.000000000000002,0.425856591356502 " />
			<path d="M-6.952455408315154,5.866577097015948 L-7.127861796618107,5.735680444230113 L-7.29903959762199,5.6014231377010795 L-7.465881589909239,5.46386886146146 L-7.62828210314323,5.323083855840825 L-7.786137018068277,5.179136917465705 L-7.93934376650963,5.032099399259588 L-8.08780133137348,4.882045210442924 L-8.231410246646957,4.729050816533121 L-8.370072597398128,4.573195239344548 L-8.503692019775997,4.414560056988531 L-8.63217370101051,4.253229403873356 L-8.755424379412549,4.089289970704271 L-8.873352344373934,3.9228310044834798 L-8.985867436367426,3.753944308510148 L-9.092881046946722,3.5827242423803995 L-9.19430611874646,3.409267721987318 L-9.29006554964654,3.2336745866181813 L-9.380083723304924,3.0560526586998384 L-9.46427651277646,2.8765155807288503 L-9.542565025578174,2.6951802376057756 L-9.61487566099621,2.512166751629919 L-9.681140110085838,2.3275984824993294 L-9.741295355671442,2.141602027310802 L-9.795283672346534,1.9543072205598744 L-9.843052626473744,1.7658471341408306 L-9.884555076184826,1.5763580773466992 L-9.919749171380651,1.385979596869253 L-9.948598353731215,1.1948544767990104 L-9.971071356675633,1.003128738625234 L-9.987142205422145,0.8109516412359312 L-9.996790216948108,0.6184756809178547 L-10.0,0.4258565913565149 " />
			<path d="M10.000000000000002,0.4258565913565008 L9.998250446802798,0.5682091937739575 L9.992982281996303,0.7105064475047845 L9.984201098393081,0.8526848671859705 L9.97191403915781,0.9946819478473186 L9.956129797807279,1.136436164911446 L9.936858618210394,1.2778869741937857 L9.914112294588174,1.4189748119025831 L9.887904171513748,1.5596410946389003 L9.858249143912364,1.699828219396612 L9.825163657061376,1.839479563562409 L9.788665706590258,1.9785394849157951 L9.748774838480596,2.1169533216290897 L9.705512149066085,2.2546673922674256 L9.658900285032539,2.3916289957887513 L9.608963443417881,2.527786411543829 L9.555727371612152,2.6630888992762354 L9.499219367357503,2.797486699122363 L9.439468278748198,2.9309310316114154 L9.376504504230617,3.063374097665415 L9.310359992603251,3.1947690785991956 L9.241068243016707,3.325070136120407 L9.168664304973703,3.4542324123295116 L9.093181452985323,3.582212686517847 L9.014646561628023,3.7089712838069744 L8.93309421795585,3.8344690487411737 L8.848559981690894,3.958667518598527 L8.761079870621861,4.081528993002991 L8.670690360604059,4.203016533924399 L8.577428385559406,4.323093965678452 L8.48133133747643,4.441725874926732 L8.382437066410265,4.55887761067669 L8.280783880482652,4.674515284281654 L8.176410545881943,4.788605769440824 L8.069356286863096,4.9011167021992765 L7.959660785747677,5.01201648094796 L7.847364182923863,5.121274266423695 L7.732507076846437,5.228859981709181 L7.615130524036788,5.3347443122329885 L7.495276039082917,5.438898705769563 L7.372985594639432,5.541295372439222 L7.248301621427547,5.641907284708159 L7.121267008235087,5.740708177388443 L6.99192491263679,5.8376720923008705 L6.8603184692714025,5.9327720389638525 L6.726491820042361,6.025982218633762 L6.590489635543235,6.1172774577048505 L6.452357066332686,6.206633114650442 L6.312139742934472,6.294025080022932 L6.16988377583744,6.379429776453787 L6.02563575549553,6.462824158653541 L5.87944275232778,6.544185713411806 L5.731352316718312,6.6234924595972595 L5.5814124790163495,6.700722948157653 L5.429671749536203,6.775856262119809 L5.2761791185572795,6.848872016589619 L5.120984056324075,6.919750358752049 L4.964136513046183,6.988471967871134 L4.805686918898287,7.055018055289981 L4.645686184020161,7.119370364430767 L4.484185698516679,7.181511170794742 L4.3212373324578,7.241423281962228 L4.15689343587858,7.299090037592613 L3.991206838779167,7.354495309424363 L3.8242308511248035,7.407623501275009 L3.6560192628458217,7.458459549041159 L3.4866263438376484,7.506988920698488 L3.316106843960803,7.553197616301743 L3.1445159930408986,7.597072167984743 L2.971909500868639,7.63859963996038 L2.798343201454356,7.677767712130394 L2.6238664111547134,7.714566451577073 L2.4485342749097194,7.74898574926848 L2.272405243671122,7.781015503297094 L2.095537760567807,7.8106463255591 L1.9179902609058026,7.8378695417544035 L1.7398211721682761,7.862677191386619 L1.561088914015536,7.885062027763077 L1.3818518982850296,7.905017517994818 L1.2021685289913464,7.922537842996597 L1.0220972023262147,7.937617897486883 L0.8416963066585041,7.9502532899878595 L0.6610242225342242,7.96044034282542 L0.4801393226765245,7.968176092129172 L0.29909997198569505,7.973458287832439 L0.11796452753916631,7.976285393672254 L-0.06320866140849057,7.976656587189365 L-0.24436125342556592,7.974571759728234 L-0.4254349149032066,7.970031516437034 L-0.6063713200554228,7.963037176267655 L-0.7871121509190817,7.953590771975694 L-0.9675990973539106,7.941695050120468 L-1.1477738570424982,7.927353471065002 L-1.327578135490291,7.910570208976038 L-1.506953646025595,7.891350151824029 L-1.6858421097995784,7.869698901383142 L-1.8641852557862668,7.845622773231256 L-2.0419248207825467,7.819128796749965 L-2.219002549408162,7.790224715124576 L-2.395360194105721,7.758918985344107 L-2.5709395151406857,7.725220778201292 L-2.7456822806013825,7.689139978292578 L-2.919531942537051,7.6506867591560646 L-3.092438331516948,7.609870679750927 L-3.2643459504491723,7.566703713667135 L-3.4351989539680137,7.521198601511562 L-3.6049419753411165,7.473368620412491 L-3.773520126469479,7.423227584019612 L-3.9408789978874528,7.370789842504031 L-4.1069646587627435,7.316070282558261 L-4.271723656896412,7.259084327396228 L-4.435103018722869,7.199847936753266 L-4.597050249309884,7.138377606886122 L-4.7575133323585765,7.074690370572953 L-4.916440730203421,7.008803797113327 L-5.073781383812247,6.940735992328222 L-5.2294847127862365,6.870505598560028 L-5.383500615359925,6.7981317946725435 L-5.535779468401204,6.72363429605098 L-5.686272127411314,6.647033354601959 L-5.834929926524856,6.56834975875351 L-5.9817046785097805,6.487604833455078 L-6.126548674767391,6.4048204401775175 L-6.2694146853323485,6.320018976913089 L-6.410255958872664,6.23322337817547 L-6.549026222689706,6.144457114999745 L-6.685679682718193,6.05374419494241 L-6.8201710235262,5.961109162081372 L-6.952455408315117,5.866577097015975 " />
			<path d="M4.0,-0.25984473150213594 L4.0,1.111557914215143 " />
			<path d="M-4.000000000000001,-0.25984473150213594 L-4.000000000000001,1.111557914215143 " />

        </g>
        </g>
    </svg>
    