<?xml version='1.0' encoding='utf-8'?>
<svg width="20.5mm" height="16.701182mm" viewBox="-10.25 -8.226806 20.5 16.701182" version="1.1" xmlns="http://www.w3.org/2000/svg">
  <g transform="scale(1,-1)" stroke-linecap="round">
    <g fill="none" stroke="rgb(0,0,0)" stroke-width="0.09" id="Visible">
      <path d="M -10.0,-0.945546 A 10.0,7.2788302345219735 0.0 0,1 10.0,-0.945546" />
      <line x1="-4.949747" y1="4.714395" x2="-6.761481" y2="-0.207172" />
      <line x1="-6.761481" y1="-0.207172" x2="-1.811733" y2="-3.810009" />
      <line x1="-1.811733" y1="-3.810009" x2="4.949747" y2="-2.491279" />
      <line x1="4.949747" y1="-2.491279" x2="6.761481" y2="2.430288" />
      <line x1="6.761481" y1="2.430288" x2="1.811733" y2="6.033125" />
      <line x1="1.811733" y1="6.033125" x2="-4.949747" y2="4.714395" />
      <line x1="-4.949747" y1="4.714395" x2="-4.949747" y2="3.342992" />
      <line x1="-4.949747" y1="3.342992" x2="-6.363324" y2="-0.496983" />
      <line x1="1.811733" y1="6.033125" x2="1.811733" y2="4.661722" />
      <line x1="6.363324" y1="1.348697" x2="1.811733" y2="4.661722" />
      <line x1="1.811733" y1="4.661722" x2="-4.949747" y2="3.342992" />
      <path d="M -4.0,-0.259845 A 4.0,2.9115320938087894 0.0 0,1 4.0,-0.259845" />
      <path d="M -2.828427,3.170322 A 4.0,2.9115320938087894 0.0 0,1 -4.0,1.111558" />
      <path d="M -4.0,1.111558 A 4.0,2.9115320938087894 0.0 0,1 4.0,1.111558" />
      <path d="M 4.0,1.111558 A 4.0,2.9115320938087894 0.0 0,1 -2.828427,3.170322" />
      <path d="M -10.0,0.425857 A 10.0,7.2788302345219735 0.0 0,1 10.0,0.425857" />
      <path d="M -6.363961,5.743777 A 9.0,6.550947211069776 0.0 0,1 6.363961,-3.520661 A 9.0,6.550947211069776 0.0 0,1 -6.363961,5.743777" />
      <line x1="10.0" y1="-0.945546" x2="10.0" y2="0.425857" />
      <line x1="-10.0" y1="-0.945546" x2="-10.0" y2="0.425857" />
      <path d="M -6.952455,5.866577 C -7.903652,5.174908 -8.675716,4.333026 -9.201464,3.396564 C -9.723772,2.469703 -10.001083,1.449208 -10.0,0.425857" />
      <path d="M 10.0,0.425857 C 10.001223,1.484372 9.704239,2.539554 9.146982,3.491656 C 8.647019,4.349009 7.93965,5.12433 7.077446,5.77396 C 5.899909,6.663407 4.430688,7.316568 2.842079,7.66814 C 1.007334,8.077555 -0.982491,8.079374 -2.818536,7.673339 C -4.36032,7.33513 -5.790966,6.713307 -6.952455,5.866577" />
      <line x1="4.0" y1="-0.259845" x2="4.0" y2="1.111558" />
      <line x1="-4.0" y1="-0.259845" x2="-4.0" y2="1.111558" />
    </g>
    <g fill="none" stroke="rgb(99,99,99)" stroke-width="0.09" id="Hidden" stroke-dasharray="0.0 0.27">
      <path d="M -7.071068,4.201364 A 10.0,7.2788302345219735 0.0 0,1 -10.0,-0.945546" />
      <path d="M 10.0,-0.945546 A 10.0,7.2788302345219735 0.0 0,1 -7.071068,4.201364" />
      <line x1="-6.761481" y1="-0.207172" x2="-6.761481" y2="-1.578575" />
      <line x1="-6.363324" y1="-0.496983" x2="-6.761481" y2="-1.578575" />
      <line x1="-1.811733" y1="-3.810009" x2="-1.811733" y2="-5.181412" />
      <line x1="-6.761481" y1="-1.578575" x2="-1.811733" y2="-5.181412" />
      <line x1="4.949747" y1="-2.491279" x2="4.949747" y2="-3.862682" />
      <line x1="-1.811733" y1="-5.181412" x2="4.949747" y2="-3.862682" />
      <line x1="6.761481" y1="2.430288" x2="6.761481" y2="1.058885" />
      <line x1="4.949747" y1="-3.862682" x2="6.761481" y2="1.058885" />
      <line x1="6.761481" y1="1.058885" x2="6.363324" y2="1.348697" />
      <path d="M -2.828427,1.798919 A 4.0,2.9115320938087894 0.0 0,1 -4.0,-0.259845" />
      <path d="M 4.0,-0.259845 A 4.0,2.9115320938087894 0.0 0,1 -2.828427,1.798919" />
    </g>
  </g>
</svg>