<?xml version="1.0" encoding="UTF-8" standalone="no"?>
    <svg
    xmlns:svg="http://www.w3.org/2000/svg"
    xmlns="http://www.w3.org/2000/svg"
    width="1040"
    height="870"
    >
        <g transform="scale(50, -50)   translate(10.400000000000002,-8.773945451043316)" stroke-width="0.02"  fill="none">
        <!-- hidden lines -->
        <g  stroke="rgb(160,160,160)" fill="none" stroke-dasharray="0.02,0.02" >
    			<path d="M-7.071067811865475,4.18490787898998 L-7.242470829514668,4.057055572129874 L-7.409511253549589,3.926180199077325 L-7.5720884650648435,3.7923605942633127 L-7.73010453362737,3.65567736561394 L-7.883464276266064,3.5162128459952307 L-8.03207531480645,3.374051043618892 L-8.175848131515838,3.2292775914389003 L-8.314696123025453,3.081979695569422 L-8.448535652497071,2.9322460827551033 L-8.57728610000272,2.780166946925406 L-8.700869911087114,2.625833894865147 L-8.81921264348355,2.469339891034004 L-8.932243011955151,2.310779201568196 L-9.039892931234432,2.1502473374980915 L-9.142097557035305,1.987840997215934 L-9.238795325112868,1.823658008228342 L-9.32992798834739,1.6577972682286863 L-9.415440651830208,1.4903586855248143 L-9.495281805930366,1.3214431188580114 L-9.569403357322088,1.151152316649478 L-9.637760657954399,0.9795888557108807 L-9.700312531945439,0.8068560794559188 L-9.757021300385285,0.6330580356501132 L-9.807852804032304,0.45829941373632543 L-9.852776423889413,0.2826854817737503 L-9.89176509964781,0.10632202302837435 L-9.9247953459871,-0.0706847277469087 L-9.951847266721968,-0.24822814830414375 L-9.972904566786902,-0.4262012931255601 L-9.987954562051724,-0.6044969578435586 L-9.996988186962042,-0.7830077438166206 L-10.0,-0.961626122822192 " />
			<path d="M10.0,-0.9616261228222251 L9.998305817958235,-0.827656453964805 L9.993223845883495,-0.6937321789088087 L9.984755805732949,-0.5598986760745877 L9.972904566786902,-0.4262012931255593 L9.957674144676599,-0.29268533160276866 L9.93906970002356,-0.15939603157507565 L9.917097536690996,-0.026378556310173717 L9.89176509964781,0.10632202302837035 L9.863080972445987,0.23866074265286708 L9.831054874312164,0.37059276138687247 L9.795697656854404,0.5020733758590123 L9.757021300385286,0.6330580356501108 L9.715038909862518,0.7635023583884948 L9.669764710448522,0.8933621447883575 L9.621214042690415,1.0225933936260858 L9.56940335732209,1.151152316649477 L9.514350209690084,1.2789953534147909 L9.456073253805213,1.4060791860466182 L9.3945922360219,1.5323607539155497 L9.32992798834739,1.6577972682286868 L9.262102421383114,1.7823462265280448 L9.191138516900578,1.9059654270919282 L9.117060320054298,2.028612983234415 L9.039892931234434,2.150247337498088 L8.959662497561853,2.2708272757352166 L8.876396204028541,2.3903119410726097 L8.790122264286335,2.50866084775541 L8.700869911087116,2.625833894865145 L8.608669386377674,2.741791379907376 L8.513551931052653,2.8564940122643505 L8.415549774368985,2.9699029265080914 L8.314696123025453,3.081979695569421 L8.211025149911048,3.1926863437584503 L8.10457198252595,3.301985359632127 L7.9953726910790515,3.4098397087044763 L7.883464276266064,3.5162128459952307 L7.768884656732327,3.6210687284126086 L7.651672656224591,3.724371826966016 L7.531867990436126,3.8260871388045663 L7.409511253549593,3.926180199077322 L7.284643904482254,4.024617092611239 L7.157308252838189,4.121364465402864 L7.027547444572255,4.216389535919882 L6.895405447370671,4.309660106208695 L6.760927035753163,4.401144572804261 L6.62415777590172,4.490811937438501 L6.485144010221127,4.578631817543634 L6.343932841636458,4.6645744565469025 L6.200572117632896,4.748610733953184 L6.0551104140432574,4.830712175212069 L5.907597018588745,4.910850961366082 L5.758081914178456,4.988999938476752 L5.606615761973364,5.065132626825359 L5.453249884220468,5.139223229885225 L5.298036246862949,5.211246643062515 L5.141027441932221,5.281178462202593 L4.982276669727822,5.348994991859029 L4.821837720791232,5.41467325332249 L4.659764957679665,5.478190992406753 L4.49611329654607,5.539526686989241 L4.330938188531524,5.598659554303497 L4.1642956009763745,5.6555695579811465 L3.9962419984564725,5.7102374148409405 L3.8268343236509024,5.762644601422611 L3.656129978047744,5.812773360263284 L3.484186802494351,5.86060670591436 L3.3110630575987683,5.906128430696797 L3.1368174039889194,5.949323110192869 L2.961508882436244,5.9901761084725145 L2.785196893850535,6.0286735830525275 L2.60794117915276,6.0648024895868895 L2.4298017990326444,6.098550586286672 L2.2508391135979346,6.129906438068002 L2.0711137619221924,6.1588594204266816 L1.8906866414980672,6.185399723038155 L1.709618887603018,6.20951835308161 L1.5279718525844408,6.231207138287068 L1.3458070850712667,6.25045872970445 L1.163186309119053,6.267266604193662 L0.9801714032956121,6.2816250666348825 L0.796824379714308,6.293529251858267 L0.6132073630220931,6.302975126292451 L0.42938256934941404,6.309959489331267 L0.2454122852291293,6.314479974418229 L0.061358846491551815,6.316535049848405 L-0.12271538285719379,6.316124019287418 L-0.3067480317663602,6.313247022007387 L-0.49067674327417343,6.307905032839737 L-0.6744391956366333,6.300099861844892 L-0.8579731234443909,6.289834153698957 L-1.0412163387205395,6.27711138679761 L-1.2241067519921551,6.261935872077491 L-1.4065823933284847,6.244312751555506 L-1.5885814333386084,6.224247996586512 L-1.7700422041214807,6.201748405840021 L-1.9509032201612755,6.176821602996549 L-2.131103199160906,6.149476034164445 L-2.310581082806703,6.119720965018035 L-2.489276057457195,6.087566477658078 L-2.667127574748976,6.053023467195586 L-2.8440753721127106,6.016103638060156 L-3.0200594931922744,5.976819500034089 L-3.19502030816015,5.935184364013621 L-3.368898533922193,5.8912123374986995 L-3.5416352542048957,5.844918319812859 L-3.713171939518367,5.796317997054781 L-3.883450466988256,5.7454278367832705 L-4.052413140049891,5.6922650824374585 L-4.220002707997989,5.636847747494083 L-4.38616238538527,5.579194609363877 L-4.550835871263429,5.519325203029096 L-4.7139673682599685,5.457259814424351 L-4.875501601484354,5.393019473563 L-5.035383837257167,5.326625947411415 L-5.1935599016558855,5.258101732513532 L-5.349976198870962,5.187470047368213 L-5.50457972936604,5.114754824561967 L-5.657318107836126,5.039980702659724 L-5.808139580957641,4.963173017856387 L-5.956993044924326,4.8843577953920105 L-6.1038280627630845,4.803561740733496 L-6.248594881423855,4.720812230525811 L-6.39124444863775,4.63613730331579 L-6.531728429537762,4.549565650051645 L-6.669999223036371,4.461126604361434 L-6.806009977954525,4.370850132613758 L-6.939714608896532,4.278766823764063 L-7.071067811865436,4.184907878990008 " />
			<path d="M1.8117333157176438,-3.8255600650748844 L1.8117333157176438,-5.197075657933846 " />
			<path d="M-4.949747468305834,-2.5069265348023255 L-4.949747468305834,-3.8784421276612866 " />
			<path d="M1.8117333157176438,-5.197075657933846 L-4.949747468305834,-3.8784421276612866 " />
			<path d="M6.761480784023479,-0.2229862638063378 L6.761480784023479,-1.594501856665299 " />
			<path d="M6.761480784023479,-1.594501856665299 L1.8117333157176443,-5.197075657933845 " />
			<path d="M6.363262216012341,-0.5128216118683744 L6.76148078402348,-1.5945018566653002 " />
			<path d="M-6.76148078402348,2.4142807967387765 L-6.76148078402348,1.0427652038798152 " />
			<path d="M-6.76148078402348,1.0427652038798152 L-6.363262216012342,1.3326005519418511 " />
			<path d="M-4.949747468305834,-3.8784421276612866 L-6.76148078402348,1.0427652038798154 " />
			<path d="M-2.8284271247461903,1.7827452743321395 L-2.8969883318058676,1.7316043515880968 L-2.963804501419836,1.679254202367077 L-3.028835386025938,1.6257263604414722 L-3.0920418134509484,1.571053068981723 L-3.1533857105064262,1.5152672611342395 L-3.2128301259225807,1.4584025401837037 L-3.2703392526063357,1.4004931593117071 L-3.325878449210182,1.3415740009639157 L-3.379414260998829,1.2816805558381883 L-3.4309144400010885,1.2208489015063095 L-3.480347964434846,1.1591156806822058 L-3.52768505739342,1.0965180791497486 L-3.5728972047820613,1.0330938033634254 L-3.615957172493773,0.9688810577353837 L-3.6568390228141223,0.9039185216225207 L-3.6955181300451474,0.8382453260274838 L-3.7319711953389563,0.7719010300276214 L-3.7661762607320837,0.7049255969460726 L-3.798112722372147,0.6373593702793514 L-3.8277613429288357,0.5692430493959382 L-3.85510426318176,0.5006176650204992 L-3.8801250127781763,0.4315245545185145 L-3.9028085201541143,0.36200533699619225 L-3.923141121612922,0.2921018882306771 L-3.9411105695557653,0.2218563154456471 L-3.956706039859124,0.15131093194749673 L-3.9699181383948403,0.08050823163738352 L-3.9807389066887877,0.009490863414489459 L-3.9891618267147613,-0.061698394514077104 L-3.99518182482069,-0.1330166604012765 L-3.9987952747848174,-0.2044209747905013 L-4.000000000000001,-0.27586832639272985 " />
			<path d="M3.9999999999999996,-0.2758683263927431 L3.9972895383533977,-0.16871074882737652 L3.9891618267147604,-0.06169839451407677 L3.975627880009424,0.04502371010611672 L3.9567060398591236,0.15131093194749512 L3.932421949724865,0.25701922729089605 L3.902808520154114,0.36200533699619125 L3.8679058841794083,0.46612698065149 L3.8277613429288353,0.5692430493959377 L3.782429301522085,0.6712137971547942 L3.7319711953389554,0.7719010300276219 L3.6764554067602306,0.8711682935729181 L3.6159571724937734,0.9688810577353821 L3.5505584816114157,1.0649068991651909 L3.480347964434846,1.1591156806822052 L3.405420772421061,1.2513797276418872 L3.325878449210181,1.3415740009639154 L3.2418287930103795,1.4295762665889977 L3.1533857105064254,1.5152672611342395 L3.060669062489836,1.5985308535225533 L2.963804501419837,1.6792542023670758 L2.8629233011352753,1.7573279088972926 L2.758162178948268,1.832646165219625 L2.6496631103606876,1.9051068977115473 L2.537573136654583,1.9746119053549083 L2.4220441656173026,2.0410669928209746 L2.3032327656713822,2.104382098126848 L2.1812999536881867,2.164471414690237 L2.056410976772888,2.221253507617184 L1.9287350883164922,2.274651424065143 L1.7984453186184273,2.3245927975318437 L1.6657182403905493,2.3710099459286056 L1.5307337294603602,2.4138399633051915 L1.3936747209977398,2.453024805101891 L1.2547269615955672,2.4885113668132943 L1.1140787575402133,2.520251555957158 L0.9719207196130571,2.548202357250816 L0.8284455047688764,2.5723258909068196 L0.6838475550412066,2.592589463968791 L0.5383228340285061,2.608965614617927 L0.3920685613182443,2.6214321493901 L0.2452829452088367,2.629972173253128 L0.09816491409165116,2.6345741125034388 L-0.04908615314287807,2.6352317304511144 L-0.19627069730966992,2.631944135872042 L-0.3431892493777569,2.62471578421573 L-0.48964270079686256,2.6135564715671435 L-0.6354325733354439,2.598481321370752 L-0.7803612880645108,2.579510763934767 L-0.9242324331226817,2.556670508743361 L-1.0668510298995912,2.5299915096143812 L-1.2080237972769103,2.4995099227497826 L-1.3475594135688778,2.465267057735627 L-1.4852687758073475,2.4273093215580595 L-1.6209652560199572,2.3856881557111307 L-1.7544649541541086,2.340459966481698 L-1.8855869473039881,2.291686048505887 L-2.014153534902867,2.2394325017007133 L-2.1399904795483855,2.183770141683432 L-2.2629272431344507,2.124774403800037 L-2.3827972179697308,2.0625252408929513 L-2.4994379525695427,1.9971070149464714 L-2.6126913718151052,1.928608382756805 L-2.7224039911818103,1.8571221757816505 L-2.828427124746175,1.7827452743321501 " />

        </g>

        <!-- solid lines -->
        <g  stroke="rgb(0,0,0)" fill="none">
    			<path d="M-7.071067811865475,6.242181268278422 L-7.242470829514668,6.114328961418316 L-7.409511253549589,5.983453588365767 L-7.5720884650648435,5.849633983551755 L-7.73010453362737,5.712950754902382 L-7.883464276266064,5.5734862352836725 L-8.03207531480645,5.431324432907334 L-8.175848131515838,5.286550980727342 L-8.314696123025453,5.139253084857864 L-8.448535652497071,4.989519472043545 L-8.57728610000272,4.837440336213848 L-8.700869911087114,4.683107284153589 L-8.81921264348355,4.5266132803224455 L-8.932243011955151,4.368052590856638 L-9.039892931234432,4.207520726786534 L-9.142097557035305,4.045114386504376 L-9.238795325112868,3.880931397516784 L-9.32992798834739,3.715070657517128 L-9.415440651830208,3.547632074813256 L-9.495281805930366,3.378716508146453 L-9.569403357322088,3.2084257059379198 L-9.637760657954399,3.0368622449993223 L-9.700312531945439,2.864129468744361 L-9.757021300385285,2.690331424938555 L-9.807852804032304,2.5155728030247673 L-9.852776423889413,2.3399588710621924 L-9.89176509964781,2.163595412316816 L-9.9247953459871,1.9865886615415331 L-9.951847266721968,1.809045240984298 L-9.972904566786902,1.6310720961628817 L-9.987954562051724,1.4527764314448832 L-9.996988186962042,1.274265645471821 L-10.0,1.09564726646625 " />
			<path d="M-10.0,1.0956472664662176 L-9.996988186962042,0.917028887460614 L-9.987954562051724,0.7385181014875519 L-9.972904566786902,0.5602224367695534 L-9.95184726672197,0.38224929194813706 L-9.9247953459871,0.2047058713909019 L-9.89176509964781,0.027699120615618966 L-9.852776423889413,-0.1486643381297572 L-9.807852804032304,-0.3242782700923321 L-9.757021300385286,-0.4990368920061199 L-9.700312531945439,-0.6728349358119254 L-9.637760657954399,-0.8455677120668876 L-9.56940335732209,-1.0171311730054842 L-9.495281805930368,-1.187421975214018 L-9.41544065183021,-1.356337541880821 L-9.329927988347391,-1.523776124584693 L-9.238795325112868,-1.6896368645843487 L-9.142097557035306,-1.8538198535719412 L-9.039892931234432,-2.0162261938540986 L-8.932243011955153,-2.1767580579242027 L-8.819212643483551,-2.3353187473900108 L-8.700869911087114,-2.491812751221154 L-8.577286100002722,-2.6461458032814127 L-8.448535652497073,-2.79822493911111 L-8.314696123025454,-2.9479585519254288 L-8.175848131515838,-3.095256447794907 L-8.032075314806452,-3.240029899974899 L-7.883464276266067,-3.3821917023512373 L-7.730104533627371,-3.5216562219699465 L-7.572088465064844,-3.6583394506193203 L-7.409511253549591,-3.7921590554333324 L-7.24247082951467,-3.923034428485881 L-7.071067811865477,-4.050886735345988 L-6.8954054473706705,-4.175638962564705 L-6.7155895484701835,-4.297215964065142 L-6.531728429537765,-4.415544506407652 L-6.343932841636452,-4.5305533129029145 L-6.152315905806266,-4.642173106546355 L-5.956993044924332,-4.750336651748016 L-5.758081914178453,-4.854978794832763 L-5.555702330196022,-4.956036503286423 L-5.349976198870973,-5.053448903724216 L-5.141027441932218,-5.147157318558603 L-4.928981922297842,-5.237105301344468 L-4.713967368259978,-5.323238670780356 L-4.496113296546069,-5.40550554334525 L-4.275550934302824,-5.483856364551275 L-4.052413140049904,-5.558243938793463 L-3.8268343236509033,-5.62862345777862 L-3.5989503653498875,-5.694952527516168 L-3.3688985339222075,-5.757191193854704 L-3.136817403988923,-5.815301966548876 L-2.902846772544633,-5.869249841842118 L-2.6671275747489935,-5.919002323551591 L-2.4298017990326497,-5.9645294426426805 L-2.191012401568701,-6.005803775281215 L-1.9509032201612866,-6.042800459352557 L-1.709618887603017,-6.075497209437619 L-1.4673047445536145,-6.10387433023676 L-1.2241067519921596,-6.1279147284335 L-0.9801714032956045,-6.147603922990892 L-0.7356456359966735,-6.162930053874361 L-0.4906767432741803,-6.1738838891957455 L-0.2454122852291239,-6.180458830774238 L-1.8369701987210296e-15,-6.182650918110883 L0.2454122852291202,-6.180458830774238 L0.4906767432741766,-6.1738838891957455 L0.7356456359966699,-6.162930053874361 L0.9801714032956009,-6.147603922990892 L1.224106751992156,-6.1279147284335 L1.4673047445536107,-6.103874330236761 L1.7096188876030132,-6.075497209437619 L1.950903220161283,-6.0428004593525575 L2.1910124015686976,-6.0058037752812155 L2.429801799032646,-5.9645294426426805 L2.6671275747489904,-5.919002323551592 L2.9028467725446294,-5.869249841842119 L3.1368174039889194,-5.815301966548878 L3.3688985339222044,-5.7571911938547045 L3.5989503653498844,-5.694952527516169 L3.8268343236509,-5.6286234577786205 L4.0524131400499,-5.5582439387934635 L4.275550934302822,-5.483856364551277 L4.496113296546066,-5.405505543345251 L4.713967368259976,-5.3232386707803565 L4.928981922297838,-5.237105301344469 L5.1410274419322155,-5.1471573185586035 L5.349976198870969,-5.053448903724218 L5.555702330196018,-4.956036503286425 L5.758081914178449,-4.854978794832765 L5.956993044924329,-4.750336651748017 L6.152315905806263,-4.642173106546356 L6.343932841636449,-4.530553312902916 L6.531728429537761,-4.415544506407654 L6.715589548470176,-4.297215964065146 L6.895405447370669,-4.1756389625647055 L7.071067811865474,-4.05088673534599 L7.242470829514667,-3.9230344284858836 L7.409511253549594,-3.792159055433329 L7.572088465064848,-3.6583394506193176 L7.730104533627372,-3.5216562219699465 L7.883464276266064,-3.382191702351239 L8.03207531480645,-3.2400298999749015 L8.175848131515837,-3.0952564477949096 L8.314696123025453,-2.9479585519254305 L8.44853565249707,-2.7982249391111127 L8.57728610000272,-2.6461458032814154 L8.700869911087114,-2.4918127512211563 L8.819212643483548,-2.335318747390013 L8.932243011955151,-2.1767580579242054 L9.039892931234432,-2.016226193854101 L9.142097557035305,-1.8538198535719435 L9.238795325112864,-1.689636864584354 L9.329927988347386,-1.5237761245847015 L9.415440651830204,-1.3563375418808294 L9.495281805930363,-1.1874219752140265 L9.569403357322086,-1.017131173005493 L9.637760657954397,-0.8455677120668961 L9.700312531945437,-0.6728349358119343 L9.757021300385285,-0.49903689200612256 L9.807852804032303,-0.3242782700923348 L9.852776423889411,-0.14866433812975988 L9.89176509964781,0.02769912061562252 L9.9247953459871,0.20470587139090568 L9.95184726672197,0.3822492919481376 L9.972904566786902,0.5602224367695507 L9.987954562051724,0.7385181014875493 L9.996988186962042,0.9170288874606113 L10.0,1.0956472664661503 " />
			<path d="M10.0,1.0956472664662167 L9.998305817958235,1.2296169353236368 L9.993223845883495,1.3635412103796332 L9.984755805732949,1.4973747132138542 L9.972904566786902,1.6310720961628826 L9.957674144676599,1.7645880576856732 L9.93906970002356,1.8978773577133663 L9.917097536690996,2.030894832978268 L9.89176509964781,2.163595412316812 L9.863080972445987,2.295934131941309 L9.831054874312164,2.4278661506753143 L9.795697656854404,2.5593467651474544 L9.757021300385286,2.6903314249385524 L9.715038909862518,2.8207757476769366 L9.669764710448522,2.9506355340767993 L9.621214042690415,3.079866782914528 L9.56940335732209,3.208425705937919 L9.514350209690084,3.3362687427032327 L9.456073253805213,3.46335257533506 L9.3945922360219,3.5896341432039915 L9.32992798834739,3.7150706575171286 L9.262102421383114,3.8396196158164866 L9.191138516900578,3.96323881638037 L9.117060320054298,4.085886372522857 L9.039892931234434,4.20752072678653 L8.959662497561853,4.328100665023658 L8.876396204028541,4.4475853303610515 L8.790122264286335,4.565934237043852 L8.700869911087116,4.6831072841535875 L8.608669386377674,4.799064769195818 L8.513551931052653,4.913767401552793 L8.415549774368985,5.027176315796533 L8.314696123025453,5.139253084857863 L8.211025149911048,5.249959733046892 L8.10457198252595,5.359258748920569 L7.9953726910790515,5.467113097992918 L7.883464276266064,5.5734862352836725 L7.768884656732327,5.6783421177010505 L7.651672656224591,5.781645216254458 L7.531867990436126,5.883360528093008 L7.409511253549593,5.983453588365764 L7.284643904482254,6.081890481899681 L7.157308252838189,6.178637854691305 L7.027547444572255,6.273662925208324 L6.895405447370671,6.366933495497137 L6.760927035753163,6.458417962092703 L6.62415777590172,6.548085326726943 L6.485144010221127,6.635905206832076 L6.343932841636458,6.721847845835344 L6.200572117632896,6.805884123241626 L6.0551104140432574,6.887985564500511 L5.907597018588745,6.968124350654524 L5.758081914178456,7.046273327765194 L5.606615761973364,7.122406016113801 L5.453249884220468,7.196496619173667 L5.298036246862949,7.268520032350957 L5.141027441932221,7.338451851491035 L4.982276669727822,7.406268381147471 L4.821837720791232,7.4719466426109316 L4.659764957679665,7.535464381695195 L4.49611329654607,7.596800076277683 L4.330938188531524,7.655932943591939 L4.1642956009763745,7.712842947269588 L3.9962419984564725,7.767510804129382 L3.8268343236509024,7.819917990711053 L3.656129978047744,7.870046749551726 L3.484186802494351,7.9178800952028014 L3.3110630575987683,7.963401819985239 L3.1368174039889194,8.006596499481311 L2.961508882436244,8.047449497760956 L2.785196893850535,8.08594697234097 L2.60794117915276,8.122075878875332 L2.4298017990326444,8.155823975575114 L2.2508391135979346,8.187179827356445 L2.0711137619221924,8.216132809715123 L1.8906866414980672,8.242673112326596 L1.709618887603018,8.266791742370053 L1.5279718525844408,8.28848052757551 L1.3458070850712667,8.307732118992892 L1.163186309119053,8.324539993482105 L0.9801714032956121,8.338898455923324 L0.796824379714308,8.350802641146709 L0.6132073630220931,8.360248515580892 L0.42938256934941404,8.36723287861971 L0.2454122852291293,8.37175336370667 L0.061358846491551815,8.373808439136848 L-0.12271538285719379,8.37339740857586 L-0.3067480317663602,8.370520411295828 L-0.49067674327417343,8.365178422128178 L-0.6744391956366333,8.357373251133334 L-0.8579731234443909,8.347107542987398 L-1.0412163387205395,8.33438477608605 L-1.2241067519921551,8.319209261365934 L-1.4065823933284847,8.301586140843948 L-1.5885814333386084,8.281521385874953 L-1.7700422041214807,8.259021795128463 L-1.9509032201612755,8.23409499228499 L-2.131103199160906,8.206749423452887 L-2.310581082806703,8.176994354306476 L-2.489276057457195,8.14483986694652 L-2.667127574748976,8.110296856484027 L-2.8440753721127106,8.073377027348599 L-3.0200594931922744,8.03409288932253 L-3.19502030816015,7.992457753302062 L-3.368898533922193,7.948485726787141 L-3.5416352542048957,7.9021917091013005 L-3.713171939518367,7.853591386343223 L-3.883450466988256,7.802701226071712 L-4.052413140049891,7.7495384717259 L-4.220002707997989,7.694121136782525 L-4.38616238538527,7.636467998652319 L-4.550835871263429,7.576598592317538 L-4.7139673682599685,7.5145332037127925 L-4.875501601484354,7.450292862851442 L-5.035383837257167,7.383899336699857 L-5.1935599016558855,7.315375121801974 L-5.349976198870962,7.2447434366566545 L-5.50457972936604,7.172028213850409 L-5.657318107836126,7.097254091948166 L-5.808139580957641,7.020446407144829 L-5.956993044924326,6.941631184680452 L-6.1038280627630845,6.860835130021938 L-6.248594881423855,6.778085619814253 L-6.39124444863775,6.693410692604232 L-6.531728429537762,6.606839039340087 L-6.669999223036371,6.518399993649876 L-6.806009977954525,6.4281235219022 L-6.939714608896532,6.336040213052505 L-7.071067811865436,6.24218126827845 " />
			<path d="M-10.0,-0.9616261228222243 L-9.996988186962042,-1.1402445018278278 L-9.987954562051724,-1.31875528780089 L-9.972904566786902,-1.4970509525188884 L-9.95184726672197,-1.6750240973403048 L-9.9247953459871,-1.85256751789754 L-9.89176509964781,-2.029574268672823 L-9.852776423889413,-2.205937727418199 L-9.807852804032304,-2.381551659380774 L-9.757021300385286,-2.5563102812945617 L-9.700312531945439,-2.7301083251003675 L-9.637760657954399,-2.9028411013553295 L-9.56940335732209,-3.074404562293926 L-9.495281805930368,-3.24469536450246 L-9.41544065183021,-3.413610931169263 L-9.329927988347391,-3.581049513873135 L-9.238795325112868,-3.7469102538727905 L-9.142097557035306,-3.911093242860383 L-9.039892931234432,-4.0734995831425405 L-8.932243011955153,-4.234031447212645 L-8.819212643483551,-4.392592136678452 L-8.700869911087114,-4.549086140509596 L-8.577286100002722,-4.7034191925698545 L-8.448535652497073,-4.855498328399552 L-8.314696123025454,-5.005231941213871 L-8.175848131515838,-5.152529837083349 L-8.032075314806452,-5.297303289263341 L-7.883464276266067,-5.439465091639679 L-7.730104533627371,-5.578929611258388 L-7.572088465064844,-5.715612839907762 L-7.409511253549591,-5.849432444721774 L-7.24247082951467,-5.980307817774323 L-7.071067811865477,-6.10816012463443 L-6.8954054473706705,-6.232912351853146 L-6.7155895484701835,-6.354489353353584 L-6.531728429537765,-6.472817895696094 L-6.343932841636452,-6.587826702191356 L-6.152315905806266,-6.699446495834797 L-5.956993044924332,-6.807610041036458 L-5.758081914178453,-6.912252184121205 L-5.555702330196022,-7.013309892574865 L-5.349976198870973,-7.110722293012658 L-5.141027441932218,-7.204430707847044 L-4.928981922297842,-7.29437869063291 L-4.713967368259978,-7.3805120600687975 L-4.496113296546069,-7.462778932633692 L-4.275550934302824,-7.541129753839717 L-4.052413140049904,-7.615517328081904 L-3.8268343236509033,-7.685896847067061 L-3.5989503653498875,-7.75222591680461 L-3.3688985339222075,-7.814464583143145 L-3.136817403988923,-7.872575355837318 L-2.902846772544633,-7.92652323113056 L-2.6671275747489935,-7.976275712840033 L-2.4298017990326497,-8.021802831931122 L-2.191012401568701,-8.063077164569656 L-1.9509032201612866,-8.100073848641 L-1.709618887603017,-8.132770598726061 L-1.4673047445536145,-8.161147719525202 L-1.2241067519921596,-8.185188117721943 L-0.9801714032956045,-8.204877312279333 L-0.7356456359966735,-8.220203443162802 L-0.4906767432741803,-8.231157278484186 L-0.2454122852291239,-8.237732220062679 L-1.8369701987210296e-15,-8.239924307399324 L0.2454122852291202,-8.237732220062679 L0.4906767432741766,-8.231157278484186 L0.7356456359966699,-8.220203443162802 L0.9801714032956009,-8.204877312279333 L1.224106751992156,-8.185188117721943 L1.4673047445536107,-8.161147719525204 L1.7096188876030132,-8.132770598726061 L1.950903220161283,-8.100073848641 L2.1910124015686976,-8.063077164569657 L2.429801799032646,-8.021802831931122 L2.6671275747489904,-7.9762757128400334 L2.9028467725446294,-7.9265232311305605 L3.1368174039889194,-7.87257535583732 L3.3688985339222044,-7.814464583143146 L3.5989503653498844,-7.752225916804611 L3.8268343236509,-7.685896847067062 L4.0524131400499,-7.615517328081905 L4.275550934302822,-7.541129753839718 L4.496113296546066,-7.462778932633693 L4.713967368259976,-7.380512060068798 L4.928981922297838,-7.294378690632911 L5.1410274419322155,-7.204430707847045 L5.349976198870969,-7.1107222930126595 L5.555702330196018,-7.013309892574867 L5.758081914178449,-6.912252184121207 L5.956993044924329,-6.807610041036459 L6.152315905806263,-6.699446495834798 L6.343932841636449,-6.587826702191358 L6.531728429537761,-6.472817895696096 L6.715589548470176,-6.354489353353588 L6.895405447370669,-6.232912351853147 L7.071067811865474,-6.1081601246344315 L7.242470829514667,-5.980307817774325 L7.409511253549594,-5.849432444721771 L7.572088465064848,-5.7156128399077595 L7.730104533627372,-5.578929611258388 L7.883464276266064,-5.439465091639681 L8.03207531480645,-5.297303289263343 L8.175848131515837,-5.152529837083351 L8.314696123025453,-5.005231941213872 L8.44853565249707,-4.8554983283995545 L8.57728610000272,-4.703419192569857 L8.700869911087114,-4.549086140509598 L8.819212643483548,-4.392592136678455 L8.932243011955151,-4.234031447212647 L9.039892931234432,-4.073499583142542 L9.142097557035305,-3.9110932428603853 L9.238795325112864,-3.746910253872796 L9.329927988347386,-3.5810495138731433 L9.415440651830204,-3.4136109311692713 L9.495281805930363,-3.2446953645024683 L9.569403357322086,-3.074404562293935 L9.637760657954397,-2.902841101355338 L9.700312531945437,-2.7301083251003764 L9.757021300385285,-2.5563102812945644 L9.807852804032303,-2.3815516593807766 L9.852776423889411,-2.2059377274182017 L9.89176509964781,-2.0295742686728193 L9.9247953459871,-1.852567517897536 L9.95184726672197,-1.6750240973403043 L9.972904566786902,-1.497050952518891 L9.987954562051724,-1.3187552878008926 L9.996988186962042,-1.1402445018278304 L10.0,-0.9616261228222915 " />
			<path d="M1.8117333157176438,-3.8255600650748844 L-4.949747468305834,-2.506926534802325 " />
			<path d="M6.761480784023479,-0.2229862638063378 L1.8117333157176443,-3.825560065074884 " />
			<path d="M4.949747468305832,4.698221067734762 L6.76148078402348,-0.22298626380633912 " />
			<path d="M-1.8117333157176478,6.01685459800732 L4.949747468305834,4.698221067734762 " />
			<path d="M-6.76148078402348,2.4142807967387765 L-1.8117333157176478,6.0168545980073205 " />
			<path d="M-4.949747468305834,-2.5069265348023255 L-6.76148078402348,2.4142807967387765 " />
			<path d="M4.949747468305832,4.698221067734762 L4.949747468305832,3.3267054748758005 " />
			<path d="M4.949747468305832,3.326705474875801 L6.363262216012341,-0.5128216118683744 " />
			<path d="M-1.8117333157176478,6.01685459800732 L-1.8117333157176478,4.645339005148358 " />
			<path d="M-1.8117333157176478,4.645339005148358 L4.949747468305834,3.3267054748758005 " />
			<path d="M-6.363262216012342,1.3326005519418511 L-1.8117333157176478,4.645339005148359 " />
			<path d="M-4.000000000000001,-0.2758683263927428 L-3.9987952747848174,-0.3473156779949842 L-3.99518182482069,-0.41871999238420904 L-3.9891618267147613,-0.49003825827140846 L-3.980738906688788,-0.5612275161999749 L-3.9699181383948403,-0.632244884422869 L-3.956706039859124,-0.7030475847329822 L-3.9411105695557653,-0.7735929682311327 L-3.923141121612922,-0.8438385410161626 L-3.9028085201541147,-0.9137419897816779 L-3.8801250127781763,-0.9832612073039999 L-3.8551042631817602,-1.0523543178059849 L-3.827761342928836,-1.1209797021814234 L-3.7981127223721476,-1.189096023064837 L-3.766176260732084,-1.2566622497315583 L-3.7319711953389567,-1.323637682813107 L-3.695518130045148,-1.3899819788129693 L-3.6568390228141228,-1.4556551744080062 L-3.6159571724937734,-1.5206177105208691 L-3.5728972047820617,-1.5848304561489108 L-3.5276850573934206,-1.648254731935234 L-3.4803479644348463,-1.7108523334676913 L-3.430914440001089,-1.772585554291795 L-3.3794142609988294,-1.833417208623674 L-3.3258784492101823,-1.893310653749401 L-3.270339252606336,-1.9522298120971926 L-3.2128301259225815,-2.010139192969189 L-3.153385710506427,-2.067003913919725 L-3.092041813450949,-2.1227897217672087 L-3.0288353860259383,-2.177463013226958 L-2.963804501419837,-2.230990855152563 L-2.8969883318058685,-2.2833410043735825 L-2.828427124746191,-2.334481927117625 L-2.6862358193880738,-2.4330136186052864 L-2.537573136654581,-2.5263485581403957 L-2.382797217969733,-2.614261893678436 L-2.222280932078409,-2.6965418342937992 L-2.0564109767728875,-2.7729901604026708 L-1.8855869473039921,-2.843422701291372 L-1.7102203737211306,-2.9076697787997396 L-1.530733729460362,-2.9655766160906776 L-1.3475594135688838,-3.017003710521111 L-1.1611387090178538,-3.061827169716077 L-0.9719207196130605,-3.099939010036302 L-0.7803612880645152,-3.131247416720252 L-0.5869218978214463,-3.155676965073934 L-0.39206856131824236,-3.1731688021755864 L-0.19627069730967267,-3.183680788657528 L-1.2905006793196854e-15,-3.187187600223583 L0.1962706973096701,-3.183680788657528 L0.3920685613182398,-3.1731688021755864 L0.5869218978214438,-3.1556769650739342 L0.7803612880645127,-3.1312474167202526 L0.9719207196130579,-3.099939010036302 L1.161138709017851,-3.0618271697160773 L1.347559413568881,-3.0170037105211116 L1.5307337294603593,-2.965576616090678 L1.710220373721128,-2.9076697787997405 L1.8855869473039897,-2.8434227012913724 L2.0564109767728858,-2.772990160402671 L2.222280932078407,-2.6965418342937997 L2.382797217969731,-2.614261893678437 L2.5375731366545793,-2.526348558140396 L2.68623581938807,-2.433013618605288 L2.828427124746189,-2.3344819271176256 L2.8969883318058662,-2.2833410043735833 L2.9638045014198373,-2.2309908551525615 L3.0288353860259387,-2.177463013226957 L3.0920418134509484,-2.1227897217672087 L3.1533857105064254,-2.067003913919726 L3.2128301259225798,-2.0101391929691905 L3.2703392526063344,-1.9522298120971935 L3.3258784492101805,-1.8933106537494018 L3.3794142609988276,-1.8334172086236749 L3.4309144400010876,-1.7725855542917959 L3.480347964434845,-1.7108523334676924 L3.527685057393419,-1.648254731935235 L3.57289720478206,-1.584830456148912 L3.615957172493772,-1.5206177105208702 L3.6568390228141214,-1.455655174408007 L3.6955181300451456,-1.3899819788129715 L3.731971195338954,-1.3236376828131104 L3.7661762607320814,-1.2566622497315616 L3.798112722372145,-1.1890960230648404 L3.827761342928834,-1.120979702181427 L3.855104263181758,-1.0523543178059882 L3.8801250127781746,-0.9832612073040035 L3.9028085201541134,-0.9137419897816788 L3.923141121612921,-0.8438385410161637 L3.941110569555764,-0.7735929682311338 L3.9567060398591236,-0.7030475847329808 L3.9699181383948394,-0.6322448844228675 L3.9807389066887873,-0.5612275161999747 L3.9891618267147604,-0.49003825827140945 L3.995181824820689,-0.4187199923842101 L3.9987952747848166,-0.3473156779949853 L3.9999999999999996,-0.2758683263927697 " />
			<path d="M-2.8284271247461903,3.1542608671911005 L-2.8969883318058676,3.103119944447058 L-2.963804501419836,3.0507697952260378 L-3.028835386025938,2.997241953300433 L-3.0920418134509484,2.942568661840684 L-3.1533857105064262,2.886782853993201 L-3.2128301259225807,2.829918133042665 L-3.2703392526063357,2.7720087521706684 L-3.325878449210182,2.7130895938228767 L-3.379414260998829,2.653196148697149 L-3.4309144400010885,2.5923644943652704 L-3.480347964434846,2.530631273541167 L-3.52768505739342,2.4680336720087097 L-3.5728972047820613,2.4046093962223862 L-3.615957172493773,2.3403966505943448 L-3.6568390228141223,2.275434114481482 L-3.6955181300451474,2.209760918886445 L-3.7319711953389563,2.1434166228865825 L-3.7661762607320837,2.076441189805034 L-3.798112722372147,2.0088749631383127 L-3.8277613429288357,1.9407586422548992 L-3.85510426318176,1.8721332578794603 L-3.8801250127781763,1.8030401473774758 L-3.9028085201541143,1.7335209298551533 L-3.923141121612922,1.6636174810896383 L-3.9411105695557653,1.5933719083046083 L-3.956706039859124,1.5228265248064579 L-3.9699181383948403,1.4520238244963446 L-3.9807389066887877,1.3810064562734505 L-3.9891618267147613,1.309817198344884 L-3.99518182482069,1.2384989324576847 L-3.9987952747848174,1.1670946180684598 L-4.000000000000001,1.0956472664662313 " />
			<path d="M-4.000000000000001,1.0956472664662185 L-3.9987952747848174,1.0241999148639769 L-3.99518182482069,0.9527956004747521 L-3.9891618267147613,0.8814773345875527 L-3.980738906688788,0.8102880766589862 L-3.9699181383948403,0.7392707084360921 L-3.956706039859124,0.6684680081259788 L-3.9411105695557653,0.5979226246278284 L-3.923141121612922,0.5276770518427985 L-3.9028085201541147,0.4577736030772833 L-3.8801250127781763,0.38825438555496117 L-3.8551042631817602,0.3191612750529763 L-3.827761342928836,0.2505358906775377 L-3.7981127223721476,0.1824195697941241 L-3.766176260732084,0.11485334312740292 L-3.7319711953389567,0.04787791004585418 L-3.695518130045148,-0.01846638595400818 L-3.6568390228141228,-0.0841395815490451 L-3.6159571724937734,-0.14910211766190806 L-3.5728972047820617,-0.21331486328994975 L-3.5276850573934206,-0.276739139076273 L-3.4803479644348463,-0.3393367406087302 L-3.430914440001089,-0.4010699614328339 L-3.3794142609988294,-0.4619016157647129 L-3.3258784492101823,-0.52179506089044 L-3.270339252606336,-0.5807142192382315 L-3.2128301259225815,-0.6386236001102281 L-3.153385710506427,-0.6954883210607639 L-3.092041813450949,-0.7512741289082474 L-3.0288353860259383,-0.805947420367997 L-2.963804501419837,-0.8594752622936015 L-2.8969883318058685,-0.9118254115146214 L-2.828427124746191,-0.9629663342586641 L-2.6862358193880738,-1.0614980257463253 L-2.537573136654581,-1.1548329652814346 L-2.382797217969733,-1.242746300819475 L-2.222280932078409,-1.3250262414348382 L-2.0564109767728875,-1.4014745675437097 L-1.8855869473039921,-1.471907108432411 L-1.7102203737211306,-1.5361541859407786 L-1.530733729460362,-1.5940610232317165 L-1.3475594135688838,-1.64548811766215 L-1.1611387090178538,-1.6903115768571157 L-0.9719207196130605,-1.728423417177341 L-0.7803612880645152,-1.7597318238612911 L-0.5869218978214463,-1.7841613722149727 L-0.39206856131824236,-1.8016532093166253 L-0.19627069730967267,-1.812165195798567 L-1.2905006793196854e-15,-1.815672007364622 L0.1962706973096701,-1.812165195798567 L0.3920685613182398,-1.8016532093166253 L0.5869218978214438,-1.7841613722149732 L0.7803612880645127,-1.7597318238612916 L0.9719207196130579,-1.728423417177341 L1.161138709017851,-1.6903115768571162 L1.347559413568881,-1.6454881176621505 L1.5307337294603593,-1.594061023231717 L1.710220373721128,-1.5361541859407795 L1.8855869473039897,-1.4719071084324113 L2.0564109767728858,-1.4014745675437101 L2.222280932078407,-1.3250262414348386 L2.382797217969731,-1.242746300819476 L2.5375731366545793,-1.154832965281435 L2.68623581938807,-1.0614980257463271 L2.828427124746189,-0.9629663342586645 L2.8969883318058662,-0.9118254115146223 L2.9638045014198373,-0.8594752622936004 L3.0288353860259387,-0.8059474203679957 L3.0920418134509484,-0.7512741289082474 L3.1533857105064254,-0.6954883210607645 L3.2128301259225798,-0.6386236001102292 L3.2703392526063344,-0.5807142192382324 L3.3258784492101805,-0.5217950608904407 L3.3794142609988276,-0.4619016157647138 L3.4309144400010876,-0.4010699614328348 L3.480347964434845,-0.3393367406087313 L3.527685057393419,-0.2767391390762739 L3.57289720478206,-0.21331486328995086 L3.615957172493772,-0.14910211766190917 L3.6568390228141214,-0.084139581549046 L3.6955181300451456,-0.0184663859540104 L3.731971195338954,0.047877910045850625 L3.7661762607320814,0.11485334312739948 L3.798112722372145,0.18241956979412066 L3.827761342928834,0.2505358906775341 L3.855104263181758,0.31916127505297287 L3.8801250127781746,0.3882543855549576 L3.9028085201541134,0.4577736030772823 L3.923141121612921,0.5276770518427975 L3.941110569555764,0.5979226246278274 L3.9567060398591236,0.6684680081259804 L3.9699181383948394,0.7392707084360937 L3.9807389066887873,0.8102880766589864 L3.9891618267147604,0.8814773345875516 L3.995181824820689,0.9527956004747511 L3.9987952747848166,1.0241999148639758 L3.9999999999999996,1.0956472664661914 " />
			<path d="M3.9999999999999996,1.095647266466218 L3.9972895383533977,1.2028048440315846 L3.9891618267147604,1.3098171983448843 L3.975627880009424,1.416539302965078 L3.9567060398591236,1.5228265248064563 L3.932421949724865,1.628534820149857 L3.902808520154114,1.7335209298551524 L3.8679058841794083,1.8376425735104511 L3.8277613429288353,1.9407586422548988 L3.782429301522085,2.0427293900137555 L3.7319711953389554,2.143416622886583 L3.6764554067602306,2.2426838864318794 L3.6159571724937734,2.340396650594343 L3.5505584816114157,2.436422492024152 L3.480347964434846,2.5306312735411662 L3.405420772421061,2.6228953205008483 L3.325878449210181,2.7130895938228763 L3.2418287930103795,2.8010918594479586 L3.1533857105064254,2.886782853993201 L3.060669062489836,2.9700464463815144 L2.963804501419837,3.050769795226037 L2.8629233011352753,3.1288435017562537 L2.758162178948268,3.204161758078586 L2.6496631103606876,3.2766224905705084 L2.537573136654583,3.3461274982138693 L2.4220441656173026,3.4125825856799357 L2.3032327656713822,3.4758976909858093 L2.1812999536881867,3.535987007549198 L2.056410976772888,3.5927691004761453 L1.9287350883164922,3.646167016924104 L1.7984453186184273,3.6961083903908047 L1.6657182403905493,3.7425255387875667 L1.5307337294603602,3.7853555561641525 L1.3936747209977398,3.824540397960852 L1.2547269615955672,3.8600269596722554 L1.1140787575402133,3.891767148816119 L0.9719207196130571,3.919717950109777 L0.8284455047688764,3.9438414837657807 L0.6838475550412066,3.9641050568277523 L0.5383228340285061,3.9804812074768883 L0.3920685613182443,3.992947742249061 L0.2452829452088367,4.0014877661120885 L0.09816491409165116,4.0060897053624 L-0.04908615314287807,4.006747323310075 L-0.19627069730966992,4.003459728731003 L-0.3431892493777569,3.996231377074691 L-0.48964270079686256,3.9850720644261046 L-0.6354325733354439,3.969996914229713 L-0.7803612880645108,3.951026356793728 L-0.9242324331226817,3.9281861016023223 L-1.0668510298995912,3.9015071024733423 L-1.2080237972769103,3.8710255156087436 L-1.3475594135688778,3.836782650594588 L-1.4852687758073475,3.7988249144170205 L-1.6209652560199572,3.7572037485700918 L-1.7544649541541086,3.711975559340659 L-1.8855869473039881,3.6632016413648483 L-2.014153534902867,3.6109480945596744 L-2.1399904795483855,3.555285734542393 L-2.2629272431344507,3.496289996658998 L-2.3827972179697308,3.4340408337519124 L-2.4994379525695427,3.3686226078054324 L-2.6126913718151052,3.300123975615766 L-2.7224039911818103,3.2286377686406116 L-2.828427124746175,3.154260867191111 " />
			<path d="M10.000000000000002,-0.9616261228222251 L10.000000000000002,1.0956472664662167 " />
			<path d="M-10.000000000000002,-0.9616261228222251 L-10.000000000000002,1.0956472664662167 " />
			<path d="M4.0,-0.2758683263927433 L4.0,1.095647266466218 " />
			<path d="M-4.000000000000001,-0.2758683263927433 L-4.000000000000001,1.095647266466218 " />

        </g>
        </g>
    </svg>
    