<?xml version='1.0' encoding='utf-8'?>
<svg width="20.5mm" height="17.11387mm" viewBox="-10.25 -8.623945 20.5 17.11387" version="1.1" xmlns="http://www.w3.org/2000/svg">
  <g transform="scale(1,-1)" stroke-linecap="round">
    <g fill="none" stroke="rgb(0,0,0)" stroke-width="0.09" id="Visible">
      <path d="M -7.071068,6.242181 A 10.0,7.2782981845771 0.0 0,1 -10.0,1.095647" />
      <path d="M -10.0,1.095647 A 10.0,7.2782981845771 0.0 0,1 10.0,1.095647" />
      <path d="M 10.0,1.095647 A 10.0,7.2782981845771 0.0 0,1 -7.071068,6.242181" />
      <path d="M -10.0,-0.961626 A 10.0,7.2782981845771 0.0 0,1 10.0,-0.961626" />
      <line x1="-4.949747" y1="4.698221" x2="-6.761481" y2="-0.222986" />
      <line x1="-6.761481" y1="-0.222986" x2="-1.811733" y2="-3.82556" />
      <line x1="-1.811733" y1="-3.82556" x2="4.949747" y2="-2.506927" />
      <line x1="4.949747" y1="-2.506927" x2="6.761481" y2="2.414281" />
      <line x1="6.761481" y1="2.414281" x2="1.811733" y2="6.016855" />
      <line x1="1.811733" y1="6.016855" x2="-4.949747" y2="4.698221" />
      <line x1="-4.949747" y1="4.698221" x2="-4.949747" y2="3.326705" />
      <line x1="-4.949747" y1="3.326705" x2="-6.363262" y2="-0.512822" />
      <line x1="1.811733" y1="6.016855" x2="1.811733" y2="4.645339" />
      <line x1="6.363262" y1="1.332601" x2="1.811733" y2="4.645339" />
      <line x1="1.811733" y1="4.645339" x2="-4.949747" y2="3.326705" />
      <path d="M -4.0,-0.275868 A 4.0,2.91131927383084 0.0 0,1 4.0,-0.275868" />
      <path d="M -2.828427,3.154261 A 4.0,2.91131927383084 0.0 0,1 -4.0,1.095647" />
      <path d="M -4.0,1.095647 A 4.0,2.91131927383084 0.0 0,1 4.0,1.095647" />
      <path d="M 4.0,1.095647 A 4.0,2.91131927383084 0.0 0,1 -2.828427,3.154261" />
      <line x1="10.0" y1="-0.961626" x2="10.0" y2="1.095647" />
      <line x1="-10.0" y1="-0.961626" x2="-10.0" y2="1.095647" />
      <line x1="4.0" y1="-0.275868" x2="4.0" y2="1.095647" />
      <line x1="-4.0" y1="-0.275868" x2="-4.0" y2="1.095647" />
    </g>
    <g fill="none" stroke="rgb(99,99,99)" stroke-width="0.09" id="Hidden" stroke-dasharray="0.0 0.27">
      <path d="M -7.071068,4.184908 A 10.0,7.2782981845771 0.0 0,1 -10.0,-0.961626" />
      <path d="M 10.0,-0.961626 A 10.0,7.2782981845771 0.0 0,1 -7.071068,4.184908" />
      <line x1="-6.761481" y1="-0.222986" x2="-6.761481" y2="-1.594502" />
      <line x1="-6.363262" y1="-0.512822" x2="-6.761481" y2="-1.594502" />
      <line x1="-1.811733" y1="-3.82556" x2="-1.811733" y2="-5.197076" />
      <line x1="-6.761481" y1="-1.594502" x2="-1.811733" y2="-5.197076" />
      <line x1="4.949747" y1="-2.506927" x2="4.949747" y2="-3.878442" />
      <line x1="-1.811733" y1="-5.197076" x2="4.949747" y2="-3.878442" />
      <line x1="6.761481" y1="2.414281" x2="6.761481" y2="1.042765" />
      <line x1="4.949747" y1="-3.878442" x2="6.761481" y2="1.042765" />
      <line x1="6.761481" y1="1.042765" x2="6.363262" y2="1.332601" />
      <path d="M -2.828427,1.782745 A 4.0,2.91131927383084 0.0 0,1 -4.0,-0.275868" />
      <path d="M 4.0,-0.275868 A 4.0,2.91131927383084 0.0 0,1 -2.828427,1.782745" />
    </g>
  </g>
</svg>