<?xml version="1.0" encoding="UTF-8" standalone="no"?>
<svg
   width="500.0"
   height="300.0"
   version="1.1"
   id="svg58"
   sodipodi:docname="selector_before.svg"
   inkscape:version="1.1.2 (0a00cf5339, 2022-02-04)"
   xmlns:inkscape="http://www.inkscape.org/namespaces/inkscape"
   xmlns:sodipodi="http://sodipodi.sourceforge.net/DTD/sodipodi-0.dtd"
   xmlns="http://www.w3.org/2000/svg"
   xmlns:svg="http://www.w3.org/2000/svg">
  <defs
     id="defs62" />
  <sodipodi:namedview
     id="namedview60"
     pagecolor="#ffffff"
     bordercolor="#666666"
     borderopacity="1.0"
     inkscape:pageshadow="2"
     inkscape:pageopacity="0.0"
     inkscape:pagecheckerboard="0"
     showgrid="false"
     inkscape:zoom="2.0066667"
     inkscape:cx="250.16611"
     inkscape:cy="149.75083"
     inkscape:window-width="1526"
     inkscape:window-height="836"
     inkscape:window-x="0"
     inkscape:window-y="0"
     inkscape:window-maximized="1"
     inkscape:current-layer="svg58" />
  <g
     transform="matrix(18.75,0,0,18.75,247.5,138.3888)"
     stroke-width="0.0533333"
     fill="none"
     id="g56">
    <!-- hidden lines -->
    <g
       stroke="#a0a0a0"
       fill="none"
       stroke-dasharray="0.0533333, 0.0533333"
       id="g2" />
    <!-- solid lines -->
    <g
       stroke="#000000"
       fill="none"
       id="g54">
      <path
         d="M 7.0710678,1.7924429 6.80601,1.9057733 6.5317284,2.0146991 6.2485949,2.1190727 l -0.2916019,0.09968 -0.2996749,0.094851 -0.3073419,0.089894 -0.3145924,0.084815 -0.3214164,0.07962 -0.327805,0.074318 -0.3337493,0.068916 -0.3392412,0.06342 -0.3442734,0.057837 -0.348839,0.052177 -0.3529319,0.046446 -0.3565465,0.040652 -0.3596779,0.034802 -0.3623218,0.028906 -0.3644746,0.022971 -0.36613368,0.017004 -0.36729638,0.011014 -0.36796136,0.00501 -0.36812767,-0.001 -0.36779507,-0.00701 -0.36696404,-0.013013 -0.3656357,-0.018996 -0.3638118,-0.024953 -0.3614949,-0.030876 -0.358688,-0.036758 -0.3553951,-0.04259 -0.3516205,-0.048363 -0.3473694,-0.054072 -0.3426475,-0.059707 -0.3374613,-0.065262 -0.3318177,-0.070727 -0.3257244,-0.076097 -0.3191897,-0.081364 -0.3122225,-0.086521 -0.304832,-0.09156 L -6.0551104,2.1860559 -6.3439328,2.0847961 -6.6241578,1.9788892 -6.8954054,1.8684784 -7.1573083,1.7537136 -7.4095113,1.6347502 -7.531868,1.5737442 -7.6516727,1.5117495 -7.7688847,1.448787 -7.8834643,1.3848781 -7.9953727,1.3200445 -8.104572,1.254308 l -0.1064531,-0.066617 -0.103671,-0.067475 -0.1008537,-0.06831 -0.098002,-0.0691219 -0.095118,-0.0699104 -0.092201,-0.0706752 -0.089252,-0.0714161 -0.086274,-0.0721328 -0.083266,-0.072825 -0.08023,-0.0734926 -0.077167,-0.0741352 -0.074078,-0.0747528 -0.070964,-0.075345 -0.067826,-0.0759117 -0.064664,-0.0764526 -0.061481,-0.0769677 -0.058277,-0.07745667 -0.055053,-0.0779194 -0.051811,-0.07835573 -0.048551,-0.0787655 -0.045274,-0.0791486 -0.041982,-0.0795049 -0.038676,-0.0798342 -0.035357,-0.0801365 -0.032026,-0.0804116 -0.028684,-0.0806595 -0.025332,-0.08088 -0.021972,-0.0810732 -0.018604,-0.0812389 -0.01523,-0.081377 -0.011851,-0.081488 -0.00847,-0.08157 -0.00508,-0.081626 L -10,-1.3443321"
         id="path4" />
      <path
         d="m -10,-1.3443321 0.00301,-0.1088666 0.00903,-0.1088011 0.01505,-0.1086699 0.021057,-0.1084733 0.027052,-0.1082114 0.03303,-0.1078844 0.038989,-0.1074922 0.044924,-0.1070354 0.050831,-0.1065141 0.056709,-0.1059287 0.062552,-0.1052793 0.068357,-0.1045667 0.074122,-0.103791 0.079841,-0.1029528 0.085513,-0.1020526 0.091133,-0.1010909 0.096698,-0.1000684 0.1022047,-0.098986 0.1076499,-0.097843 0.1130304,-0.096642 0.1183427,-0.095382 0.1235838,-0.094065 0.1287504,-0.092691 0.1338396,-0.091262 0.138848,-0.089777 0.1437728,-0.088238 0.148611,-0.086647 0.1533598,-0.085003 0.158016,-0.083307 0.1625772,-0.081562 0.1670405,-0.079768 0.171403,-0.077925 0.1756624,-0.076036 0.1798159,-0.0741 0.1838611,-0.07212 0.1877956,-0.070097 0.1916169,-0.068032 0.1953229,-0.065925 0.1989111,-0.063779 0.2023796,-0.061594 0.2057261,-0.059372 0.2089488,-0.057115 0.2120455,-0.054823 0.2150145,-0.052498 0.2178541,-0.050141 0.2205624,-0.047754 0.2231378,-0.045339 0.2255788,-0.042896 0.2278839,-0.040427 0.2300519,-0.037934 0.2320811,-0.035418 0.2339706,-0.032881 0.2357192,-0.030324 0.2373258,-0.027748 0.2387894,-0.025157 0.2401092,-0.022549 0.2412843,-0.019928 0.2423142,-0.017296 0.2431979,-0.014653 0.2439354,-0.012 0.24452576,-0.00934 0.2449689,-0.00668 0.24526445,-0.00401 L 0,-5.7804019 l 0.24541229,0.00134 0.24526445,0.00401 0.2449689,0.00668 0.24452576,0.00934 0.2439354,0.012 0.2431979,0.014653 0.2423142,0.017296 0.2412843,0.019928 0.2401092,0.022549 0.2387894,0.025157 0.2373258,0.027748 0.2357192,0.030324 0.2339706,0.032881 0.2320811,0.035418 0.2300519,0.037934 0.2278839,0.040427 0.2255788,0.042896 0.2231378,0.045339 0.2205624,0.047754 0.2178541,0.050141 0.2150145,0.052498 0.2120455,0.054823 0.2089488,0.057115 0.2057261,0.059372 0.2023796,0.061594 0.1989111,0.063779 0.1953229,0.065925 0.1916169,0.068032 0.1877956,0.070097 0.1838611,0.07212 0.1798159,0.0741 0.1756624,0.076036 0.171403,0.077925 0.1670405,0.079768 0.1625772,0.081562 0.158016,0.083307 0.1533598,0.085003 0.148611,0.086647 0.1437728,0.088238 0.138848,0.089777 0.1338396,0.091262 0.1287504,0.092691 0.1235838,0.094065 0.1183427,0.095382 0.1130304,0.096642 0.1076499,0.097843 0.1022047,0.098986 0.096698,0.1000684 0.091133,0.1010909 0.085513,0.1020526 0.079841,0.1029528 0.074122,0.103791 0.068357,0.1045667 0.062552,0.1052793 0.056709,0.1059287 0.050831,0.1065141 0.044924,0.1070354 0.038989,0.1074922 0.03303,0.1078844 0.027052,0.1082114 0.021057,0.1084733 0.01505,0.1086699 0.00903,0.1088011 L 10,-1.3443321"
         id="path6" />
      <path
         d="m 10,-1.3443321 -0.00301,0.1088666 -0.00903,0.108801 -0.01505,0.1086699 -0.021057,0.10847333 -0.027052,0.10821142 -0.03303,0.10788432 -0.038989,0.10749225 -0.044924,0.10703541 -0.050831,0.10651411 -0.056709,0.10592864 -0.062552,0.10527937 -0.068357,0.10456668 -0.074122,0.10379101 -0.079841,0.1029528 -0.085513,0.1020526 -0.091133,0.10109091 -0.096698,0.10006834 -0.1022047,0.0989855 -0.1076499,0.097843 -0.1130304,0.0966416 -0.1183427,0.095382 -0.1235838,0.0940649 -0.1287504,0.0926911 -0.1338396,0.091262 -0.138848,0.089777 -0.1437728,0.088238 -0.148611,0.086647 -0.1533598,0.085003 -0.158016,0.083307 -0.1625772,0.081562 -0.1670405,0.079768 -0.171403,0.077925"
         id="path8" />
      <path
         d="M 7.0710678,4.4811071 6.80601,4.5944376 6.5317284,4.7033634 6.2485949,4.807737 5.956993,4.9074168 5.6573181,5.0022678 5.3499762,5.0921615 5.0353838,5.176976 l -0.3214164,0.07962 -0.327805,0.074318 -0.3337493,0.068916 -0.3392412,0.06342 -0.3442734,0.057837 -0.348839,0.052177 -0.3529319,0.046446 -0.3565465,0.040652 -0.3596779,0.034803 -0.3623218,0.028906 -0.3644746,0.022971 -0.36613368,0.017004 -0.36729638,0.011014 -0.36796136,0.00501 -0.36812767,-0.001 -0.36779507,-0.00701 -0.36696404,-0.013013 -0.3656357,-0.018996 -0.3638118,-0.024953 -0.3614949,-0.030876 -0.358688,-0.036758 -0.3553951,-0.04259 -0.3516205,-0.048363 -0.3473694,-0.054072 -0.3426475,-0.059707 -0.3374613,-0.065262 -0.3318177,-0.070727 -0.3257244,-0.076097 -0.3191897,-0.081364 -0.3122225,-0.086521 -0.304832,-0.09156 -0.2970285,-0.096475 -0.2888224,-0.1012598 -0.280225,-0.105907 -0.2712476,-0.1104107 -0.2619029,-0.1147648 -0.252203,-0.1189634 -0.1223567,-0.061006 -0.1198047,-0.061995 -0.117212,-0.062962 -0.1145796,-0.063909 -0.1119084,-0.064834 -0.1091993,-0.065736 -0.1064531,-0.066617 -0.103671,-0.067475 -0.1008537,-0.06831 -0.098002,-0.069122 -0.095118,-0.069911 -0.092201,-0.070675 -0.089252,-0.071416 -0.086274,-0.072133 -0.083266,-0.072825 -0.08023,-0.073493 -0.077167,-0.074135 -0.074078,-0.074753 -0.070964,-0.075345 -0.067826,-0.075912 -0.064664,-0.076453 -0.061481,-0.076968 -0.058277,-0.077457 -0.055053,-0.077919 -0.051811,-0.078356 -0.048551,-0.078765 -0.045274,-0.079149 -0.041982,-0.079505 -0.038676,-0.079834 -0.035357,-0.080136 -0.032026,-0.080412 -0.028684,-0.080659 -0.025332,-0.08088 -0.021972,-0.081073 -0.018604,-0.081239 -0.01523,-0.081377 -0.011851,-0.081488 -0.00847,-0.08157 -0.00508,-0.081626 L -10,1.3443321"
         id="path10" />
      <path
         d="m 10,1.3443321 -0.00301,0.1088666 -0.00903,0.1088011 -0.01505,0.1086699 -0.021057,0.1084733 -0.027052,0.1082114 -0.03303,0.1078844 -0.038989,0.1074922 -0.044924,0.1070354 -0.050831,0.1065141 -0.056709,0.1059287 -0.062552,0.1052793 -0.068357,0.1045667 -0.074122,0.103791 -0.079841,0.1029528 -0.085513,0.1020526 -0.091133,0.1010909 -0.096698,0.1000684 -0.1022047,0.098986 -0.1076499,0.097843 -0.1130304,0.096642 -0.1183427,0.095382 -0.1235838,0.094065 -0.1287504,0.092691 -0.1338396,0.091262 -0.138848,0.089777 -0.1437728,0.088238 -0.148611,0.086647 -0.1533598,0.085003 -0.158016,0.083307 -0.1625772,0.081562 -0.1670405,0.079768 -0.171403,0.077925"
         id="path12" />
      <path
         d="m -6.7614808,-2.1480297 1.8117333,2.99944006"
         id="path14" />
      <path
         d="m -1.8117333,-4.3437722 -4.9497475,2.1957425"
         id="path16" />
      <path
         d="M 4.9497475,-3.5400746 -1.8117333,-4.3437722"
         id="path18" />
      <path
         d="M 6.7614808,-0.54063461 4.9497475,-3.5400746"
         id="path20" />
      <path
         d="M 1.8117333,1.6551079 6.7614808,-0.54063461"
         id="path22" />
      <path
         d="M -4.9497475,0.85141036 1.8117333,1.6551079"
         id="path24" />
      <path
         d="m -1.8117333,-4.3437722 v 1.4174588"
         id="path26" />
      <path
         d="m -3.9586008,-1.5989639 -1.9489986,0.86458933"
         id="path28" />
      <path
         d="m 4.9497475,-3.5400746 v 1.7924428"
         id="path30" />
      <path
         d="M 4.9497475,-1.7476318 3.8112643,-1.8829566"
         id="path32" />
      <path
         d="M 5.9075994,-0.16184686 4.9497475,-1.7476318"
         id="path34" />
      <path
         d="m -3.8112643,0.98673517 -0.043966,-0.0655637 -0.038237,-0.0662667 -0.032451,-0.0668712 -0.026617,-0.0673764 -0.020743,-0.0677814 -0.014839,-0.0680857 -0.00891,-0.0682888 L -4,0.44811071"
         id="path36" />
      <path
         d="m 4,0.44811071 -0.00259,0.0638647 -0.00777,0.0637819 -0.012942,0.0636165 -0.018094,0.0633687"
         id="path38" />
      <path
         d="M 2.8284271,-0.08962214 2.722404,-0.04428996 2.6126914,-7.1964036e-4 2.499438,0.04102978 2.3827972,0.08090171 2.2629272,0.11884212 2.1399905,0.15479959 2.0141535,0.1887254 1.8855869,0.22057355 1.754465,0.2503009 1.6209653,0.27786715 1.4852688,0.30323495 1.3475594,0.32636991 1.2080238,0.34724069 1.066851,0.365819 l -0.14261857,0.0162606 -0.14387114,0.013921 -0.14492872,0.0115624 -0.14578987,0.009188 -0.14645345,0.006802 -0.14691855,0.004406 -0.14718455,0.002004 -0.14725106,-4.0082e-4 -0.14711804,-0.002805 -0.14678561,-0.005205 -0.14625427,-0.007598 -0.14552473,-0.009981 L -0.8284455,0.39162149 -0.97192072,0.37691838 -1.1140788,0.35988257 -1.254727,0.34053715 -1.3936747,0.31890835 -1.5307337,0.29502548 -1.6657182,0.26892089 -1.7984453,0.24062998 -1.9287351,0.21019107 -2.056411,0.17764543 -2.1813,0.14303716 l -0.1219328,-0.036624 -0.1188114,-0.0385901 -0.1155289,-0.04050389 -0.11209,-0.04236279 -0.1084991,-0.04416429 -0.1047611,-0.04590593 -0.1008812,-0.0475854 -0.096865,-0.0492003 -0.092717,-0.0507486 -0.088443,-0.052228 -0.08405,-0.0536367 -0.079542,-0.0549728 -0.074927,-0.0562343 -0.07021,-0.0574196 -0.065399,-0.0585271 -0.060498,-0.0595552 -0.055516,-0.0605027 -0.050458,-0.0613681 -0.045332,-0.0621504 -0.040145,-0.0628485 -0.034903,-0.0634614 -0.029613,-0.0639883 -0.024284,-0.064428 -0.018922,-0.064781 -0.013534,-0.065046 -0.00813,-0.065223 L -4,-1.3443321"
         id="path40" />
      <path
         d="m -4,-1.3443321 0.0012,-0.043547 0.00361,-0.04352 0.00602,-0.043468 0.00842,-0.043389 0.010821,-0.043285 0.013212,-0.043154 0.015595,-0.042997 0.017969,-0.042814 0.020333,-0.042606 0.022683,-0.042372 0.025021,-0.042112 0.027343,-0.041827 0.029649,-0.041516 0.031936,-0.041181 0.070658,-0.081257 0.079561,-0.079622 0.088272,-0.077794 0.096771,-0.075779 0.105036,-0.073581 0.1130483,-0.071206 0.1207883,-0.06866 0.1282373,-0.065948 0.1353774,-0.063077 0.1421913,-0.060054 0.1486627,-0.056887 0.1547759,-0.053583 0.1605163,-0.050149 0.1658699,-0.046595 0.1708241,-0.042928 0.1753665,-0.039158 0.1794867,-0.035294 0.1831743,-0.031344 0.1864207,-0.02732 0.18921798,-0.023229 0.19155943,-0.019082 0.19343939,-0.01489 0.19485334,-0.010661 0.19579786,-0.00641 L 0,-3.11876 l 0.1962707,0.00214 0.19579786,0.00641 0.19485334,0.010661 0.19343939,0.01489 0.19155943,0.019082 0.18921798,0.023229 0.1864207,0.02732 0.1831743,0.031344 0.1794867,0.035294 0.1753665,0.039158 0.1708241,0.042928 0.1658699,0.046595 0.1605163,0.050149 0.1547759,0.053583 0.1486627,0.056887 0.1421913,0.060054 0.1353774,0.063077 0.1282373,0.065948 0.1207883,0.06866 0.1130483,0.071206 0.105036,0.073581 0.096771,0.075779 0.088272,0.077794 0.079561,0.079622 0.070658,0.081257 0.031936,0.041181 0.029649,0.041516 0.027343,0.041827 0.025021,0.042112 0.022683,0.042372 0.020333,0.042606 0.017969,0.042814 0.015595,0.042997 0.013212,0.043154 0.010821,0.043285 0.00842,0.043389 0.00602,0.043468 0.00361,0.04352 L 4,-1.3443321"
         id="path42" />
      <path
         d="m 4,-1.3443321 -0.0012,0.043547 -0.00361,0.04352 -0.00602,0.043468 -0.00842,0.043389 -0.010821,0.043285 -0.013212,0.043154 -0.015595,0.042997 -0.017969,0.0428142 -0.020333,0.0426056 -0.022683,0.0423715 -0.025021,0.0421117 -0.027343,0.0418267 -0.029649,0.0415164 -0.031936,0.0411811 -0.070658,0.0812574 -0.079561,0.0796215 -0.088272,0.0777938 -0.096771,0.0757787 -0.105036,0.0735811 -0.1130483,0.0712061 -0.1207883,0.0686597 -0.1282373,0.0659478 -0.1353774,0.06307706"
         id="path44" />
      <path
         d="M -10,1.3443321 V -1.3443321"
         id="path46" />
      <path
         d="M 10,1.3443321 V -1.3443321"
         id="path48" />
      <path
         d="M -4,0.44811071 V -1.3443321"
         id="path50" />
      <path
         d="M 4,0.44811071 V -1.3443321"
         id="path52" />
    </g>
  </g>
</svg>
