<?xml version="1.0" encoding="UTF-8" standalone="no"?>
<svg
   width="500.0"
   height="300.0"
   version="1.1"
   id="svg60"
   sodipodi:docname="selector_after.svg"
   inkscape:version="1.1.2 (0a00cf5339, 2022-02-04)"
   xmlns:inkscape="http://www.inkscape.org/namespaces/inkscape"
   xmlns:sodipodi="http://sodipodi.sourceforge.net/DTD/sodipodi-0.dtd"
   xmlns="http://www.w3.org/2000/svg"
   xmlns:svg="http://www.w3.org/2000/svg">
  <defs
     id="defs64" />
  <sodipodi:namedview
     id="namedview62"
     pagecolor="#ffffff"
     bordercolor="#666666"
     borderopacity="1.0"
     inkscape:pageshadow="2"
     inkscape:pageopacity="0.0"
     inkscape:pagecheckerboard="0"
     showgrid="false"
     inkscape:zoom="2.0066667"
     inkscape:cx="250.16611"
     inkscape:cy="149.75083"
     inkscape:window-width="1526"
     inkscape:window-height="836"
     inkscape:window-x="0"
     inkscape:window-y="0"
     inkscape:window-maximized="1"
     inkscape:current-layer="svg60" />
  <g
     transform="matrix(18.749999,0,0,18.749999,247.5,132.01279)"
     stroke-width="0.0533333"
     fill="none"
     id="g58">
    <!-- hidden lines -->
    <g
       stroke="#a0a0a0"
       fill="none"
       stroke-dasharray="0.0533333, 0.0533333"
       id="g2" />
    <!-- solid lines -->
    <g
       stroke="#000000"
       fill="none"
       id="g56">
      <path
         d="M 7.0710678,4.4811071 6.80601,4.5944376 6.5317284,4.7033634 6.2485949,4.807737 5.956993,4.9074168 5.6573181,5.0022678 5.3499762,5.0921615 5.0353838,5.176976 l -0.3214164,0.07962 -0.327805,0.074318 -0.3337493,0.068916 -0.3392412,0.06342 -0.3442734,0.057837 -0.348839,0.052177 -0.3529319,0.046446 -0.3565465,0.040652 -0.3596779,0.034803 -0.3623218,0.028906 -0.3644746,0.022971 -0.36613368,0.017004 -0.36729638,0.011014 -0.36796136,0.00501 -0.36812767,-0.001 -0.36779507,-0.00701 -0.36696404,-0.013013 -0.3656357,-0.018996 -0.3638118,-0.024953 -0.3614949,-0.030876 -0.358688,-0.036758 -0.3553951,-0.04259 -0.3516205,-0.048363 -0.3473694,-0.054072 -0.3426475,-0.059707 -0.3374613,-0.065262 -0.3318177,-0.070727 -0.3257244,-0.076097 -0.3191897,-0.081364 -0.3122225,-0.086521 -0.304832,-0.09156 -0.2970285,-0.096475 -0.2888224,-0.1012598 -0.280225,-0.105907 -0.2712476,-0.1104107 -0.2619029,-0.1147648 -0.252203,-0.1189634 -0.1223567,-0.061006 -0.1198047,-0.061995 -0.117212,-0.062962 -0.1145796,-0.063909 -0.1119084,-0.064834 -0.1091993,-0.065736 -0.1064531,-0.066617 -0.103671,-0.067475 -0.1008537,-0.06831 -0.098002,-0.069122 -0.095118,-0.069911 -0.092201,-0.070675 -0.089252,-0.071416 -0.086274,-0.072133 -0.083266,-0.072825 -0.08023,-0.073493 -0.077167,-0.074135 -0.074078,-0.074753 -0.070964,-0.075345 -0.067826,-0.075912 -0.064664,-0.076453 -0.061481,-0.076968 -0.058277,-0.077457 -0.055053,-0.077919 -0.051811,-0.078356 -0.048551,-0.078765 -0.045274,-0.079149 -0.041982,-0.079505 -0.038676,-0.079834 -0.035357,-0.080136 -0.032026,-0.080412 -0.028684,-0.080659 -0.025332,-0.08088 -0.021972,-0.081073 -0.018604,-0.081239 -0.01523,-0.081377 -0.011851,-0.081488 -0.00847,-0.08157 -0.00508,-0.081626 L -10,1.3443321"
         id="path4" />
      <path
         d="m 10,1.3443321 -0.00301,0.1088666 -0.00903,0.1088011 -0.01505,0.1086699 -0.021057,0.1084733 -0.027052,0.1082114 -0.03303,0.1078844 -0.038989,0.1074922 -0.044924,0.1070354 -0.050831,0.1065141 -0.056709,0.1059287 -0.062552,0.1052793 -0.068357,0.1045667 -0.074122,0.103791 -0.079841,0.1029528 -0.085513,0.1020526 -0.091133,0.1010909 -0.096698,0.1000684 -0.1022047,0.098986 -0.1076499,0.097843 -0.1130304,0.096642 -0.1183427,0.095382 -0.1235838,0.094065 -0.1287504,0.092691 -0.1338396,0.091262 -0.138848,0.089777 -0.1437728,0.088238 -0.148611,0.086647 -0.1533598,0.085003 -0.158016,0.083307 -0.1625772,0.081562 -0.1670405,0.079768 -0.171403,0.077925"
         id="path6" />
      <path
         d="m -6.7614808,-2.1480297 1.8117333,2.99944006"
         id="path8" />
      <path
         d="m -1.8117333,-4.3437722 -4.9497475,2.1957425"
         id="path10" />
      <path
         d="M 4.9497475,-3.5400746 -1.8117333,-4.3437722"
         id="path12" />
      <path
         d="M 6.7614808,-0.54063461 4.9497475,-3.5400746"
         id="path14" />
      <path
         d="M 1.8117333,1.6551079 6.7614808,-0.54063461"
         id="path16" />
      <path
         d="M -4.9497475,0.85141036 1.8117333,1.6551079"
         id="path18" />
      <path
         d="m -1.8117333,-4.3437722 v 1.4174588"
         id="path20" />
      <path
         d="m -3.9586008,-1.5989639 -1.9489986,0.86458933"
         id="path22" />
      <path
         d="m 4.9497475,-3.5400746 v 1.7924428"
         id="path24" />
      <path
         d="M 4.9497475,-1.7476318 3.8112643,-1.8829566"
         id="path26" />
      <path
         d="M 5.9075994,-0.16184686 4.9497475,-1.7476318"
         id="path28" />
      <path
         d="m -3.8112643,0.98673517 -0.043966,-0.0655637 -0.038237,-0.0662667 -0.032451,-0.0668712 -0.026617,-0.0673764 -0.020743,-0.0677814 -0.014839,-0.0680857 -0.00891,-0.0682888 L -4,0.44811071"
         id="path30" />
      <path
         d="m 4,0.44811071 -0.00259,0.0638647 -0.00777,0.0637819 -0.012942,0.0636165 -0.018094,0.0633687"
         id="path32" />
      <path
         d="M 2.8284271,-0.08962214 2.722404,-0.04428996 2.6126914,-7.1964036e-4 2.499438,0.04102978 2.3827972,0.08090171 2.2629272,0.11884212 2.1399905,0.15479959 2.0141535,0.1887254 1.8855869,0.22057355 1.754465,0.2503009 1.6209653,0.27786715 1.4852688,0.30323495 1.3475594,0.32636991 1.2080238,0.34724069 1.066851,0.365819 l -0.14261857,0.0162606 -0.14387114,0.013921 -0.14492872,0.0115624 -0.14578987,0.009188 -0.14645345,0.006802 -0.14691855,0.004406 -0.14718455,0.002004 -0.14725106,-4.0082e-4 -0.14711804,-0.002805 -0.14678561,-0.005205 -0.14625427,-0.007598 -0.14552473,-0.009981 L -0.8284455,0.39162149 -0.97192072,0.37691838 -1.1140788,0.35988257 -1.254727,0.34053715 -1.3936747,0.31890835 -1.5307337,0.29502548 -1.6657182,0.26892089 -1.7984453,0.24062998 -1.9287351,0.21019107 -2.056411,0.17764543 -2.1813,0.14303716 l -0.1219328,-0.036624 -0.1188114,-0.0385901 -0.1155289,-0.04050389 -0.11209,-0.04236279 -0.1084991,-0.04416429 -0.1047611,-0.04590593 -0.1008812,-0.0475854 -0.096865,-0.0492003 -0.092717,-0.0507486 -0.088443,-0.052228 -0.08405,-0.0536367 -0.079542,-0.0549728 -0.074927,-0.0562343 -0.07021,-0.0574196 -0.065399,-0.0585271 -0.060498,-0.0595552 -0.055516,-0.0605027 -0.050458,-0.0613681 -0.045332,-0.0621504 -0.040145,-0.0628485 -0.034903,-0.0634614 -0.029613,-0.0639883 -0.024284,-0.064428 -0.018922,-0.064781 -0.013534,-0.065046 -0.00813,-0.065223 L -4,-1.3443321"
         id="path34" />
      <path
         d="m -4,-1.3443321 0.0012,-0.043547 0.00361,-0.04352 0.00602,-0.043468 0.00842,-0.043389 0.010821,-0.043285 0.013212,-0.043154 0.015595,-0.042997 0.017969,-0.042814 0.020333,-0.042606 0.022683,-0.042372 0.025021,-0.042112 0.027343,-0.041827 0.029649,-0.041516 0.031936,-0.041181 0.070658,-0.081257 0.079561,-0.079622 0.088272,-0.077794 0.096771,-0.075779 0.105036,-0.073581 0.1130483,-0.071206 0.1207883,-0.06866 0.1282373,-0.065948 0.1353774,-0.063077 0.1421913,-0.060054 0.1486627,-0.056887 0.1547759,-0.053583 0.1605163,-0.050149 0.1658699,-0.046595 0.1708241,-0.042928 0.1753665,-0.039158 0.1794867,-0.035294 0.1831743,-0.031344 0.1864207,-0.02732 0.18921798,-0.023229 0.19155943,-0.019082 0.19343939,-0.01489 0.19485334,-0.010661 0.19579786,-0.00641 L 0,-3.11876 l 0.1962707,0.00214 0.19579786,0.00641 0.19485334,0.010661 0.19343939,0.01489 0.19155943,0.019082 0.18921798,0.023229 0.1864207,0.02732 0.1831743,0.031344 0.1794867,0.035294 0.1753665,0.039158 0.1708241,0.042928 0.1658699,0.046595 0.1605163,0.050149 0.1547759,0.053583 0.1486627,0.056887 0.1421913,0.060054 0.1353774,0.063077 0.1282373,0.065948 0.1207883,0.06866 0.1130483,0.071206 0.105036,0.073581 0.096771,0.075779 0.088272,0.077794 0.079561,0.079622 0.070658,0.081257 0.031936,0.041181 0.029649,0.041516 0.027343,0.041827 0.025021,0.042112 0.022683,0.042372 0.020333,0.042606 0.017969,0.042814 0.015595,0.042997 0.013212,0.043154 0.010821,0.043285 0.00842,0.043389 0.00602,0.043468 0.00361,0.04352 L 4,-1.3443321"
         id="path36" />
      <path
         d="m 4,-1.3443321 -0.0012,0.043547 -0.00361,0.04352 -0.00602,0.043468 -0.00842,0.043389 -0.010821,0.043285 -0.013212,0.043154 -0.015595,0.042997 -0.017969,0.0428142 -0.020333,0.0426056 -0.022683,0.0423715 -0.025021,0.0421117 -0.027343,0.0418267 -0.029649,0.0415164 -0.031936,0.0411811 -0.070658,0.0812574 -0.079561,0.0796215 -0.088272,0.0777938 -0.096771,0.0757787 -0.105036,0.0735811 -0.1130483,0.0712061 -0.1207883,0.0686597 -0.1282373,0.0659478 -0.1353774,0.06307706"
         id="path38" />
      <path
         d="M 7.0710678,2.6886643 6.80601,2.8019947 6.5317284,2.9109205 6.2485949,3.0152941 5.956993,3.1149739 5.6573181,3.209825 l -0.3073419,0.089894 -0.3145924,0.084815 -0.3214164,0.07962 -0.327805,0.074318 -0.3337493,0.068916 -0.3392412,0.063419 -0.3442734,0.057837 -0.348839,0.052177 -0.3529319,0.046446 -0.3565465,0.040652 -0.3596779,0.034802 -0.3623218,0.028906 -0.3644746,0.022971 -0.36613368,0.017004 -0.36729638,0.011014 -0.36796136,0.00501 -0.36812767,-0.001 -0.36779507,-0.00701 -0.36696404,-0.013013 -0.3656357,-0.018996 -0.3638118,-0.024953 -0.3614949,-0.030876 -0.358688,-0.036758 -0.3553951,-0.04259 -0.3516205,-0.048364 -0.3473694,-0.054072 -0.3426475,-0.059707 -0.3374613,-0.065261 -0.3318177,-0.070727 -0.3257244,-0.076097 -0.3191897,-0.081364 -0.3122225,-0.086521 -0.304832,-0.09156 -0.2970285,-0.096475 -0.2888224,-0.1012597 -0.280225,-0.105907 -0.2712476,-0.1104107 -0.2619029,-0.1147649 -0.252203,-0.1189633 -0.1223567,-0.061006 -0.1198047,-0.061995 -0.117212,-0.062962 -0.1145796,-0.063909 -0.1119084,-0.064834 -0.1091993,-0.065736 -0.1064531,-0.066617 -0.103671,-0.067475 -0.1008537,-0.06831 -0.098002,-0.069122 -0.095118,-0.06991 -0.092201,-0.070675 -0.089252,-0.071416 -0.086274,-0.072133 -0.083266,-0.072825 -0.08023,-0.073493 -0.077167,-0.074135 -0.074078,-0.074753 -0.070964,-0.075345 -0.067826,-0.075912 -0.064664,-0.076453 -0.061481,-0.0769677 -0.058277,-0.0774567 -0.055053,-0.0779194 -0.051811,-0.0783557 -0.048551,-0.0787655 -0.045274,-0.0791486 -0.041982,-0.0795049 -0.038676,-0.0798342 -0.035357,-0.0801365 -0.032026,-0.0804116 -0.028684,-0.0806595 -0.025332,-0.08088 -0.021972,-0.08107318 -0.018604,-0.08123886 -0.01523,-0.08137701 -0.011851,-0.0814876 -0.00847,-0.0815705 -0.00508,-0.0816259 L -10,-0.44811071"
         id="path40" />
      <path
         d="m 10,-0.44811071 -0.00301,0.1088666 -0.00903,0.10880102 -0.01505,0.10866991 -0.021057,0.10847334 L 9.9247953,0.09491158 9.8917651,0.2027959 9.8527764,0.31028815 9.8078528,0.41732356 9.7570213,0.52383767 9.7003125,0.62976631 9.6377607,0.73504568 9.5694034,0.83961236 9.4952818,0.94340337 9.4154407,1.0463562 9.329928,1.1484088 9.2387953,1.2494997 9.1420976,1.349568 9.0398929,1.4485535 8.932243,1.5463965 8.8192126,1.6430381 8.7008699,1.73842 8.5772861,1.8324849 8.4485357,1.925176 l -0.1338396,0.091262 -0.138848,0.089777 -0.1437728,0.088238 -0.148611,0.086646 -0.1533598,0.085003 -0.158016,0.083308 -0.1625772,0.081562 -0.1670405,0.079767 -0.171403,0.077925"
         id="path42" />
      <path
         d="m 6.363961,1.4787654 -0.1580961,0.068432 -0.1618343,0.06669 -0.165475,0.064908 -0.169016,0.063087 -0.1724553,0.061228 -0.1757906,0.059332 -0.17902,0.057401 -0.1821416,0.055435 -0.1851535,0.053435 -0.1880539,0.051403 -0.190841,0.04934 -0.1935131,0.047248 -0.1960686,0.045127 -0.1985062,0.042979 -0.200824,0.040805 -0.2030209,0.038606 -0.2050956,0.036384 -0.2070466,0.034141 -0.208873,0.031876 -0.2105736,0.029593 -0.2121473,0.027291 -0.2135932,0.024974 -0.2149104,0.022641 -0.2160983,0.020294 -0.2171559,0.017936 -0.2180827,0.015566 -0.2188782,0.013187 -0.21954184,0.0108 -0.22007319,0.00841 -0.220472,0.00601 -0.22073801,0.00361 L 0,2.6481306 l -0.22087106,-0.0012 -0.22073801,-0.00361 -0.220472,-0.00601 -0.22007319,-0.00841 -0.21954184,-0.0108 -0.2188782,-0.013187 -0.2180827,-0.015566 -0.2171559,-0.017936 -0.2160983,-0.020294 -0.2149104,-0.022641 -0.2135932,-0.024974 -0.2121473,-0.027291 -0.2105736,-0.029593 -0.208873,-0.031876 -0.2070466,-0.034141 -0.2050956,-0.036384 -0.2030209,-0.038606 -0.200824,-0.040805 -0.1985062,-0.042979 -0.1960686,-0.045127 -0.1935131,-0.047248 -0.190841,-0.04934 -0.1880539,-0.051403 -0.1851535,-0.053435 -0.1821416,-0.055435 -0.17902,-0.057401 -0.1757906,-0.059332 -0.1724553,-0.061228 -0.169016,-0.063087 -0.165475,-0.064908 -0.1618343,-0.06669 -0.1580961,-0.068432 -0.1542627,-0.070133 -0.1503364,-0.071791 -0.1463195,-0.073406 -0.1422145,-0.074977 -0.1380237,-0.076502 -0.13375,-0.077982 -0.1293955,-0.0794146 -0.1249632,-0.0807993 -0.1204556,-0.0821354 -0.1158754,-0.083422 -0.1112254,-0.0846584 -0.1065085,-0.0858438 -0.1017273,-0.0869774 -0.096885,-0.0880587 -0.091984,-0.0890869 -0.087028,-0.0900615 -0.082019,-0.09098182 -0.076961,-0.0918473348 -0.071857,-0.0926575252 -0.066709,-0.09341191 -0.061522,-0.09411 -0.056297,-0.0947514 -0.051038,-0.0953358 -0.045748,-0.0958627 -0.040431,-0.0963319 -0.03509,-0.096743 -0.029727,-0.0970959 -0.024347,-0.0973903 -0.018952,-0.097626 -0.013545,-0.097803 -0.00813,-0.097921 -0.00271,-0.09798 0.00271,-0.09798 0.00813,-0.097921 0.013545,-0.097803 0.018952,-0.097626 0.024347,-0.09739 0.029727,-0.097096 0.03509,-0.096743 0.040431,-0.096332 0.045748,-0.095863 0.051038,-0.095336 0.056297,-0.094751 0.061522,-0.09411 0.066709,-0.093412 0.071857,-0.092658 0.076961,-0.091847 0.082019,-0.090982 0.087028,-0.090062 0.091984,-0.089087 0.096885,-0.088059 0.1017273,-0.086977 0.1065085,-0.085844 0.1112254,-0.084658 0.1158754,-0.083422 0.1204556,-0.082135 0.1249632,-0.080799 0.1293955,-0.079414 0.13375,-0.077982 0.1380237,-0.076502 0.1422145,-0.074977 0.1463195,-0.073406 0.1503364,-0.071791 0.1542627,-0.070133 0.1580961,-0.068432 0.1618343,-0.06669 0.165475,-0.064908 0.169016,-0.063087 0.1724553,-0.061228 0.1757906,-0.059332 0.17902,-0.057401 0.1821416,-0.055434 0.1851535,-0.053435 0.1880539,-0.051403 0.190841,-0.04934 0.1935131,-0.047248 0.1960686,-0.045127 0.1985062,-0.042979 0.200824,-0.040805 0.2030209,-0.038606 0.2050956,-0.036384 0.2070466,-0.034141 0.208873,-0.031876 0.2105736,-0.029593 0.2121473,-0.027291 0.2135932,-0.024974 0.2149104,-0.022641 0.2160983,-0.020294 0.2171559,-0.017936 0.2180827,-0.015566 0.2188782,-0.013187 0.21954184,-0.0108 0.22007319,-0.00841 0.220472,-0.00601 0.22073801,-0.00361 L 0,-5.3367949 l 0.22087106,0.0012 0.22073801,0.00361 0.220472,0.00601 0.22007319,0.00841 0.21954184,0.0108 0.2188782,0.013187 0.2180827,0.015566 0.2171559,0.017936 0.2160983,0.020294 0.2149104,0.022641 0.2135932,0.024974 0.2121473,0.027291 0.2105736,0.029593 0.208873,0.031876 0.2070466,0.034141 0.2050956,0.036384 0.2030209,0.038606 0.200824,0.040805 0.1985062,0.042979 0.1960686,0.045127 0.1935131,0.047248 0.190841,0.04934 0.1880539,0.051403 0.1851535,0.053435 0.1821416,0.055434 0.17902,0.057401 0.1757906,0.059332 0.1724553,0.061228 0.169016,0.063087 0.165475,0.064908 0.1618343,0.06669 0.1580961,0.068432 0.1542627,0.070133 0.1503364,0.071791 0.1463195,0.073406 0.1422145,0.074977 0.1380237,0.076502 0.13375,0.077982 0.1293955,0.079414 0.1249632,0.080799 0.1204556,0.082135 0.1158754,0.083422 0.1112254,0.084658 0.1065085,0.085844 0.1017273,0.086977 0.096885,0.088059 0.091984,0.089087 0.087028,0.090062 0.082019,0.090982 0.076961,0.091847 0.071857,0.092658 0.066709,0.093412 0.061522,0.09411 0.056297,0.094751 0.051038,0.095336 0.045748,0.095863 0.040431,0.096332 0.03509,0.096743 0.029727,0.097096 0.024347,0.09739 0.018952,0.097626 0.013545,0.097803 0.00813,0.097921 0.00271,0.09798 -0.00271,0.09798 -0.00813,0.097921 -0.013545,0.097803 -0.018952,0.097626 -0.024347,0.0973903 -0.029727,0.0970959 -0.03509,0.096743 -0.040431,0.0963319 -0.045748,0.0958627 -0.051038,0.0953358 -0.056297,0.0947514 -0.061522,0.09411 -0.066709,0.09341191 -0.071857,0.0926575252 -0.076961,0.0918473348 -0.082019,0.09098182 -0.087028,0.0900615 -0.091984,0.0890869 -0.096885,0.0880587 -0.1017273,0.0869774 -0.1065085,0.0858438 -0.1112254,0.0846584 -0.1158754,0.083422 -0.1204556,0.0821354 -0.1249632,0.0807993 -0.1293955,0.0794146 -0.13375,0.077982 -0.1380237,0.076502 -0.1422145,0.074977 -0.1463195,0.073406 -0.1503364,0.071791 -0.1542627,0.070133"
         id="path44" />
      <path
         d="M -10,1.3443321 V -0.44811071"
         id="path46" />
      <path
         d="M 10,1.3443321 V -0.44811071"
         id="path48" />
      <path
         d="m -10,-0.44811071 0.0018,-0.1004276 0.00546,-0.10032831 0.00909,-0.10010753 0.012692,-0.0997725 0.016253,-0.0993303 0.019774,-0.0987882 0.02325,-0.098153 0.026676,-0.097433 0.030048,-0.096634 0.033363,-0.095764 0.036616,-0.09483 0.039803,-0.09384 0.042921,-0.092799 0.045964,-0.091717 0.04893,-0.090599 0.051813,-0.089453 0.084277,-0.1338252 0.09065,-0.1310965 0.096827,-0.1283471 0.1028231,-0.1255978 0.069051,-0.079142 0.071405,-0.078017 0.073724,-0.076901 0.07601,-0.075796 0.078265,-0.074699 0.080489,-0.073613 0.082683,-0.072534 0.08485,-0.071464 0.086989,-0.070402 0.089103,-0.069347 0.091193,-0.0683 0.093259,-0.067259 0.1926297,-0.1314186 0.2006474,-0.1273241 0.2019739,-0.1195047 0.2091707,-0.1157086 0.2162116,-0.1118946 0.2230878,-0.1080593 0.2297898,-0.1041992 0.2363085,-0.1003105 0.2426344,-0.09639 0.2487586,-0.092434 0.2546716,-0.088439 0.2603643,-0.084402 0.2658275,-0.080319 0.2710518,-0.076185 0.2760281,-0.072 0.280747,-0.067757 0.2851996,-0.063454 0.2893762,-0.059088 0.232777,-0.043864 0.235151,-0.041076 0.2373618,-0.038264 0.2394096,-0.035429 0.2412945,-0.032575 0.2430162,-0.029702 0.2445754,-0.026812 0.2459716,-0.023907 0.2472053,-0.020989 0.2482763,-0.018058 0.2491848,-0.015118 0.2499308,-0.012168 0.25051455,-0.00921 0.25093596,-0.00625 0.25119516,-0.00329 0.25129223,-3.197e-4 0.25122724,0.00265 0.25100029,0.00561 0.25061142,0.00857 0.25006075,0.011532 0.2493483,0.014483 0.2484742,0.017426 0.2474386,0.020359 0.2462414,0.023281 0.2448827,0.026189 0.2433628,0.029082 0.2416815,0.03196 0.239839,0.034818 0.2378355,0.037657 0.2356709,0.040475 0.2333453,0.04327 0.2308588,0.046039 0.2724732,0.058592 0.2685629,0.062502 0.2644207,0.066358 0.2600539,0.070163 0.2554701,0.073919 0.2506771,0.077631 0.2456819,0.0813 0.2404927,0.084931 0.2351166,0.088525 0.2295612,0.092086 0.2238342,0.095617 0.217943,0.099122 0.2118953,0.1026019 0.2056986,0.106061 0.1993603,0.1095023 0.1928881,0.1129285 0.2055474,0.1288895 0.09968,0.066031 0.097591,0.067095 0.095479,0.068165 0.093346,0.069242 0.091187,0.070325 0.089004,0.071416 0.086793,0.072514 0.084554,0.073621 0.082286,0.074736 0.079988,0.075861 0.077657,0.076995 0.075293,0.078139 0.072894,0.079293 0.07046,0.080459 0.1036268,0.1261741 0.097571,0.1289534 0.091333,0.1317331 0.084895,0.1344928 0.052008,0.089597 0.049115,0.090749 0.04614,0.091872 0.043086,0.09296 0.039957,0.094006 0.036759,0.095002 0.033494,0.095941 0.030166,0.096815 0.026781,0.097619 0.023342,0.098343 0.019853,0.0989815 0.016319,0.0995268 0.012743,0.0999716 0.00913,0.10030871 0.00548,0.10053084 L 10,-0.44811071"
         id="path50" />
      <path
         d="M -4,0.44811071 V -1.3443321"
         id="path52" />
      <path
         d="M 4,0.44811071 V -1.3443321"
         id="path54" />
    </g>
  </g>
</svg>
