<?xml version="1.0" encoding="UTF-8" standalone="no"?>
    <svg
    xmlns:svg="http://www.w3.org/2000/svg"
    xmlns="http://www.w3.org/2000/svg"
    width="1039"
    height="527"
    >
        <g transform="scale(20, -20)   translate(25.988646070414315,-13.184028499489363)" stroke-width="0.05"  fill="none">
        <!-- hidden lines -->
        <g  stroke="rgb(160,160,160)" fill="none" stroke-dasharray="0.05,0.05" >
    
        </g>

        <!-- solid lines -->
        <g  stroke="rgb(0,0,0)" fill="none">
    			<path d="M12.532302781314296,-0.13216857106892174 L12.533748218421561,-0.21290699177424455 L12.538083244027392,-0.2935735956738632 L12.545304002127565,-0.37409662984310355 L12.555404069859494,-0.4544044690625356 L12.56837446321537,-0.5344256795285817 L12.58420364503344,-0.6140890823938708 L12.602877535260305,-0.6933238170808101 L12.624379523475117,-0.7720594043120442 L12.648690483664556,-0.8502258088017599 L12.67578879123541,-0.9277535015520553 L12.705650342249644,-1.004573521698965 L12.738248574864851,-1.0806175378531369 L12.773554492960994,-1.1558179088805791 L12.811536691932458,-1.2301077440694366 L12.852161386622441,-1.3034209626292657 L12.89539244137483,-1.3756923524698643 " />
			<path d="M18.934747660411713,-0.790538862240243 L18.957523992403885,-0.7096067846817894 L18.977307085666748,-0.6281303638131002 L18.994078290941875,-0.5461864063705453 L19.00782179823751,-0.4638521598309913 L19.018524651732445,-0.38120523959163627 L19.02617676198929,-0.2983235558030115 L19.030770915465663,-0.21528523992411328 L19.032302781314296,-0.1321685710689466 " />
			<path d="M18.988083033768763,4.959760190123701 L18.959777228279194,5.083434777343757 L18.924600117183747,5.205879392727518 L18.882627771174636,5.326829249134715 L18.833950955676173,5.446022791849414 L18.77867493456406,5.5632022641935 L18.716919242531667,5.6781142649268865 L18.648817426595645,5.790510296229056 L18.57451675729976,5.9001473010769345 L18.49417791024156,6.006788188857021 L18.40797461861052,6.110202348075107 L18.316093297489097,6.21016614505488 L18.2187326407291,6.306463407546954 L18.116103191275172,6.39888589220252 L18.008426885864537,6.487233734900709 L17.8959365750876,6.571315882955831 L17.778875519847304,6.650950508269842 L17.657496865306115,6.725965400536576 L17.53206309345824,6.796198339647464 L17.402845455510906,6.861497446493398 L17.270123385302153,6.92172151140411 L17.13418389502367,6.976740299514858 L16.995320954555375,7.026434832400012 L16.853834855753963,7.070697645364548 L16.710031563070157,7.109433019837024 L16.564222051898927,7.142557190361508 L16.416721636093534,7.16999852574083 L16.26784928609761,7.191697683939431 L16.117926939169877,7.207607740410829 L15.96727880319306,7.217694289572213 L15.816230655572625,7.221935519206695 L15.665109138741366,7.220322257632343 L15.514241053793393,7.212857993536004 L15.363952653775002,7.199558868428989 L15.214568938160705,7.1804536417409714 L15.066412950040117,7.15558362862757 L14.919805077535544,7.125002610626094 L14.775062360960925,7.088776719352685 L14.632497807220453,7.04698429349234 L14.492419712929468,6.999715709391082 L14.355130997721353,6.947073185616625 L14.2209285491822,6.88917056191017 L14.09010258082981,6.826133053007355 L13.962936004525393,6.758096977860712 L13.83970381867514,6.685209464849194 L13.7206725135447,6.607628133612274 L13.606099494972536,6.525520754196613 L13.496232527728415,6.439064884252441 L13.391309199720764,6.348447485064174 L13.291556408211529,6.253864517245635 L13.197189869149632,6.155520516974169 L13.108413650684065,6.053628153680058 L13.025419731865421,5.948407770147728 L12.94838758749016,5.840086906023304 L12.877483799985402,5.728899805758882 L12.812861699173524,5.615086912057656 L12.754661030695592,5.498894345915266 L12.703007653810669,5.380573374381823 L12.65801326922448,5.260379867195562 L12.619775177536038,5.1385737434631515 L12.588376068824576,5.015418409583227 L12.563883843831801,4.8911801896286375 L12.54635146712618,4.766127749419198 L12.53581685256677,4.6405315155304105 L12.532302781314296,4.514663090494549 " />
			<path d="M12.532302781314296,4.514663090494537 L12.536217548647485,4.381816289631242 L12.547952419629656,4.249289528347232 L12.56747912392876,4.117402075218413 L12.594750620003797,3.986471658671351 L12.629701208432028,3.8568137015476567 L12.672246690184618,3.728740561222736 L12.722284569469478,3.602560777109515 L12.779694300652615,3.4785783273599638 L12.844337578663106,3.3570918965551115 L12.916058672182142,3.238394156147722 L12.994684798813413,3.12277105939113 L13.080026541331023,3.010501152452809 L13.171878304002199,2.9018549033722563 L13.2700188078854,2.797094050479793 L13.374211623910679,2.696470971846005 L13.484205742458016,2.600228077280864 L13.599736178061487,2.5085972243472554 L13.72052460778245,2.421799159795814 L13.84628004171389,2.3400429877666564 L13.976699524000589,2.263525666039196 L14.111468862686326,2.1924315315435985 L14.250263386629804,2.126931856276975 L14.392748727665879,2.067184434694138 L14.538581626127753,2.013333203566935 L14.687410757789578,1.9655078952279639 L14.838877580237291,1.9238237250340138 L14.992617196628686,1.8883811138021849 L15.148259234761879,1.85926544588734 L15.305428739334372,1.8365468634837185 L15.463747075243225,1.8202800976462434 L15.622832839750188,1.8105043364386173 L15.782302781314296,1.8072431305258445 L15.941772722878405,1.8105043364386173 L16.100858487385366,1.8202800976462434 L16.25917682329422,1.8365468634837185 L16.416346327866712,1.85926544588734 L16.571988365999907,1.8883811138021844 L16.7257279823913,1.9238237250340133 L16.877194804839014,1.9655078952279634 L17.026023936500838,2.013333203566935 L17.171856834962714,2.0671844346941373 L17.31434217599879,2.126931856276975 L17.453136699942267,2.1924315315435976 L17.587906038628002,2.263525666039195 L17.718325520914703,2.340042987766656 L17.84408095484614,2.4217991597958135 L17.964869384567102,2.508597224347254 L18.080399820170577,2.600228077280863 L18.190393938717914,2.6964709718460065 L18.294586754743193,2.797094050479793 L18.392727258626394,2.9018549033722554 L18.48457902129757,3.0105011524528082 L18.56992076381518,3.122771059391129 L18.64854689044645,3.2383941561477214 L18.720267983965485,3.3570918965551106 L18.784911261975978,3.478578327359962 L18.842320993159113,3.602560777109512 L18.892358872443975,3.7287405612227333 L18.934904354196565,3.8568137015476536 L18.969854942624796,3.9864716586713502 L18.997126438699834,4.117402075218415 L19.016653142998937,4.249289528347233 L19.028388013981107,4.381816289631242 L19.032302781314296,4.514663090494512 " />
			<path d="M19.032302781314296,4.514663090494537 L19.02953315045689,4.626413041851609 L19.021228978410875,4.737972527908008 L19.007404418709267,4.849151407989878 L18.988083033768763,4.9597601901237 " />
			<path d="M18.149648198511443,4.843350179451458 L18.12874544984222,4.934679105398576 L18.10276850626404,5.0250997444512 L18.071773543057315,5.11441656149036 L18.035827586996913,5.202436408418138 L17.995008371406428,5.288968941841464 L17.94940416805943,5.373827034690734 L17.899113596291294,5.456827180883105 L17.84424540973433,5.537789892155384 L17.784918261137506,5.616540086208371 L17.721260445779198,5.692907465323265 L17.653409624027994,5.766726884631406 L17.581512523651384,5.837838709240938 L17.505724622516176,5.906089159448124 L17.426209812366782,5.9713306432867865 L17.34314004440843,6.033422075696723 L17.256694957461747,6.092229183620916 L17.16706148949287,6.147624796371735 L17.074433473359054,6.199489120638237 L16.9790112176441,6.2477099995398495 L16.881001073489944,6.292183155166222 L16.78061498836122,6.332812414078774 L16.67807004770771,6.369509915286272 L16.573588005515898,6.402196300244698 L16.467394804764776,6.430800884470527 L16.359720088822947,6.4552618103962995 L16.25079670484358,6.475526181137953 L16.140860200231206,6.491550174884612 L16.030148313269187,6.503299139663492 L15.918900459009384,6.510747668274975 L15.807357211535832,6.513879653235822 L15.695759783721979,6.512688321611686 L15.584349505606552,6.507176249663621 L15.473367302516047,6.497355357276901 L15.363053174062413,6.483246882184212 L15.253645675142597,6.46488133403893 L15.145381400062295,6.44229842843784 L15.038494470899499,6.415547001035939 L14.933216031214227,6.384684901939068 L14.829773746199347,6.349778870602755 L14.728391310353354,6.310904391507771 L14.629287963739825,6.268145530924543 L14.532678017879599,6.221594755119387 L14.43877039230095,6.171352730395712 L14.347768162749997,6.117528105402592 L14.259868122038286,6.060237276181481 L14.175260354477304,5.9996041344591475 L14.094127824820108,5.935759799731143 L14.016645982599073,5.8688423357151915 L13.94298238271533,5.798996451787655 L13.87329632310039,5.726373190048727 L13.80773850023351,5.651129598693075 L13.746450683259742,5.5734283923922785 L13.689565407413397,5.493437600423472 L13.637205687409883,5.4113302033051305 L13.589484751425726,5.327283758725763 L13.546505796242023,5.241480017574459 L13.508361764080849,5.15410453090361 L13.475135141617201,5.065346248673755 L13.446897781601121,4.975397111148283 L13.423710747475734,4.88445163382157 L13.405624181327223,4.79270648677818 L13.392677195452304,4.700360069392748 L13.384897787777662,4.607612081290259 L13.382302781314296,4.514663090494546 " />
			<path d="M13.382302781314296,4.514663090494537 L13.385193686421882,4.416560837549335 L13.393859437301025,4.318694921524219 L13.408279157398823,4.221301109982938 L13.428418108346543,4.124614033148184 L13.454227773647391,4.02886661865684 L13.485645975556995,3.9342895304168994 L13.522597024875047,3.8411106129179053 L13.564991903287208,3.7495543423336213 L13.612728477818033,3.6598412857392693 L13.665691746878245,3.57218756974612 L13.723754117313643,3.4868043598335596 L13.786775711788188,3.4038973516329536 L13.854604705760748,3.323666275388853 L13.927077693243728,3.2463044147913416 L14.004020080462395,3.1719981413386984 L14.085246506466582,3.1009264653521322 L14.170561289681453,3.033260604724237 L14.259758899321548,2.9691635724400953 L14.352624450532456,2.9087897838647176 L14.448934222067251,2.8522846847429006 L14.548456195250564,2.79978440080769 L14.6509506129319,2.7514154098415684 L14.756170557081619,2.7072942369803963 L14.86386254363808,2.667527173994154 L14.973767133172966,2.63221002322076 L15.085619555903584,2.6014278667698427 L15.19915034954646,2.5752548615524926 L15.314086008475588,2.5537540606307614 L15.430149642621428,2.5369772613173174 L15.547061644523351,2.524964880391182 L15.664540362928493,2.5177458567301656 L15.782302781314296,2.5153375815945793 L15.9000651997001,2.5177458567301656 L16.01754391810524,2.524964880391182 L16.134455920007163,2.5369772613173174 L16.250519554153005,2.553754060630761 L16.365455213082132,2.575254861552492 L16.47898600672501,2.6014278667698427 L16.590838429455626,2.6322100232207597 L16.70074301899051,2.667527173994154 L16.808435005546972,2.707294236980396 L16.913654949696692,2.7514154098415684 L17.016149367378027,2.7997844008076895 L17.11567134056134,2.8522846847428998 L17.211981112096137,2.908789783864717 L17.304846663307043,2.9691635724400953 L17.394044272947138,3.033260604724236 L17.47935905616201,3.1009264653521313 L17.5605854821662,3.1719981413386993 L17.637527869384865,3.2463044147913416 L17.710000856867843,3.3236662753888524 L17.777829850840405,3.4038973516329527 L17.84085144531495,3.4868043598335587 L17.898913815750348,3.572187569746119 L17.95187708481056,3.6598412857392684 L17.999613659341385,3.74955434233362 L18.042008537753546,3.841110612917903 L18.078959587071598,3.934289530416897 L18.1103777889812,4.0288666186568385 L18.136187454282048,4.124614033148184 L18.15632640522977,4.221301109982939 L18.170746125327568,4.318694921524219 L18.17941187620671,4.416560837549334 L18.182302781314295,4.514663090494519 " />
			<path d="M18.182302781314295,4.514663090494537 L18.180257515450364,4.597186131496683 L18.174125203785618,4.67956852119987 L18.163916298159812,4.761669848029558 L18.149648198511443,4.843350179451457 " />
			<path d="M-24.98864607041431,0.9634550587874786 L-24.98864607041431,5.6102867203509375 " />
			<path d="M-22.35826227352859,-12.184028499489365 L-22.35826227352859,-7.537196837925906 " />
			<path d="M-24.98864607041431,0.9634550587874786 L-22.35826227352859,-12.184028499489365 " />
			<path d="M-24.98864607041431,5.6102867203509375 L-22.35826227352859,-7.537196837925905 " />
			<path d="M22.358262273528585,12.184028499489363 L-24.988646070414315,5.610286720350938 " />
			<path d="M24.9886460704143,-5.610286720350939 L24.9886460704143,-0.9634550587874804 " />
			<path d="M-22.35826227352859,-12.184028499489365 L24.98864607041431,-5.61028672035094 " />
			<path d="M-22.35826227352859,-7.537196837925906 L24.98864607041431,-0.9634550587874813 " />
			<path d="M24.9886460704143,-0.9634550587874804 L22.358262273528585,12.184028499489362 " />
			<path d="M11.064051845650543,4.702270695672459 L11.064051845650543,9.349102357235918 " />
			<path d="M11.064051845650543,9.349102357235918 L11.014732149458936,9.595617673953608 " />
			<path d="M10.472215491351253,5.064314181511434 L10.472215491351253,9.266930584996686 " />
			<path d="M10.778061730596605,4.662563242039086 L11.06405184565054,4.702270695672459 " />
			<path d="M10.472215491351255,9.266930584996686 L11.06405184565054,9.349102357235918 " />
			<path d="M10.422895795159647,5.11666233624242 L10.422895795159647,9.513445901714377 " />
			<path d="M10.472215491351253,9.266930584996686 L10.422895795159647,9.513445901714377 " />
			<path d="M3.1729004549933926,3.860010030220348 L4.738706511559729,4.077409751809454 " />
			<path d="M3.1235807588017854,8.499994044097203 L10.422895795159647,9.513445901714377 " />
			<path d="M3.1729004549933926,3.6066470658160545 L3.1729004549933926,8.253478727379512 " />
			<path d="M3.1729004549933926,8.253478727379512 L3.1235807588017854,8.499994044097203 " />
			<path d="M2.581064100694106,3.968690551655028 L2.581064100694106,8.171306955140283 " />
			<path d="M2.8869103399394573,3.566939612182682 L3.1729004549933926,3.6066470658160545 " />
			<path d="M2.581064100694106,8.171306955140283 L3.1729004549933926,8.253478727379512 " />
			<path d="M2.531744404502499,4.021038706386016 L2.531744404502499,8.417822271857974 " />
			<path d="M2.5810641006941064,8.171306955140283 L2.5317444045024993,8.417822271857972 " />
			<path d="M-4.718250935663757,2.7643864003639433 L-3.152444879097419,2.98178612195305 " />
			<path d="M-4.767570631855365,7.4043704142408 L2.531744404502499,8.417822271857974 " />
			<path d="M-4.718250935663757,2.5110234359596504 L-4.718250935663757,7.157855097523109 " />
			<path d="M-4.718250935663757,7.157855097523109 L-4.767570631855364,7.404370414240799 " />
			<path d="M-5.310087289963043,2.8730669217986247 L-5.310087289963043,7.075683325283879 " />
			<path d="M-5.004241050717692,2.471315982326278 L-4.718250935663757,2.5110234359596504 " />
			<path d="M-5.310087289963043,7.075683325283879 L-4.718250935663757,7.157855097523109 " />
			<path d="M-5.35940698615465,2.925415076529612 L-5.35940698615465,7.3221986420015694 " />
			<path d="M-5.310087289963043,7.075683325283879 L-5.35940698615465,7.322198642001569 " />
			<path d="M-12.609402326320907,1.6687627705075392 L-11.04359626975457,1.8861624920966455 " />
			<path d="M-12.658722022512514,6.308746784384396 L-5.35940698615465,7.3221986420015694 " />
			<path d="M-12.609402326320907,1.4153998061032462 L-12.609402326320907,6.062231467666705 " />
			<path d="M-12.609402326320907,6.062231467666705 L-12.658722022512514,6.308746784384395 " />
			<path d="M-13.201238680620193,1.7774432919422223 L-13.201238680620193,5.9800596954274745 " />
			<path d="M-12.895392441374838,1.3756923524698736 L-12.609402326320906,1.4153998061032462 " />
			<path d="M-13.201238680620191,5.9800596954274745 L-12.609402326320906,6.062231467666705 " />
			<path d="M-13.2505583768118,1.8297914466732088 L-13.2505583768118,6.226575012145165 " />
			<path d="M-13.201238680620193,5.9800596954274745 L-13.2505583768118,6.226575012145164 " />
			<path d="M-20.500553716978057,0.573139140651135 L-18.93474766041172,0.7905388622402416 " />
			<path d="M-20.549873413169664,5.213123154527992 L-13.2505583768118,6.226575012145165 " />
			<path d="M-20.500553716978057,0.31977617624684207 L-20.500553716978057,4.966607837810301 " />
			<path d="M-20.500553716978057,4.966607837810301 L-20.549873413169664,5.213123154527991 " />
			<path d="M-21.092390071277343,0.2376044040076115 L-21.092390071277343,4.88443606557107 " />
			<path d="M-21.092390071277343,0.2376044040076115 L-20.500553716978057,0.31977617624684207 " />
			<path d="M-21.092390071277343,4.88443606557107 L-20.500553716978057,4.966607837810301 " />
			<path d="M-21.14170976746895,0.4841197207253023 L-21.14170976746895,5.130951382288761 " />
			<path d="M-21.092390071277343,0.2376044040076115 L-21.14170976746895,0.4841197207253014 " />
			<path d="M-21.092390071277343,4.88443606557107 L-21.14170976746895,5.13095138228876 " />
			<path d="M-22.703141197115905,0.2673273813022963 L-21.14170976746895,0.4841197207253023 " />
			<path d="M-23.60769457704931,4.788568997958635 L-21.14170976746895,5.130951382288761 " />
			<path d="M-23.196697108785916,2.734274691977878 L-23.60769457704931,4.7885689979586346 " />
			<path d="M-23.19669710878592,2.734274691977877 L-22.90077893163627,2.7753605780974926 " />
			<path d="M-22.802139539253055,0.76215215823634 L-22.802139539253055,2.282329944662112 " />
			<path d="M-22.802139539253055,2.282329944662112 L-22.90077893163627,2.7753605780974935 " />
			<path d="M-23.098057716402703,2.241244058542496 L-22.802139539253055,2.282329944662112 " />
			<path d="M-21.881505210343057,-3.839467087160543 L-23.0980577164027,2.2412440585424966 " />
			<path d="M-21.881505210343057,-3.8394670871605436 L-21.58558703319341,-3.798381201040928 " />
			<path d="M-21.486947640810197,-5.811589620902078 L-21.486947640810197,-4.291411834476309 " />
			<path d="M-21.486947640810197,-4.2914118344763095 L-21.585587033193413,-3.798381201040928 " />
			<path d="M-21.782865817959845,-4.332497720595925 L-21.486947640810197,-4.2914118344763095 " />
			<path d="M-21.37186834969645,-6.386792026576682 L-21.78286581795984,-4.332497720595924 " />
			<path d="M-21.37186834969645,-6.386792026576681 L-18.90588354011609,-6.044409642246555 " />
			<path d="M-18.955203236307696,-6.051257289933158 L-18.955203236307696,-5.797894325528864 " />
			<path d="M-18.90588354011609,-6.0444096422465545 L-18.955203236307696,-5.797894325528865 " />
			<path d="M-18.955203236307696,-5.797894325528865 L-18.36336688200841,-5.715722553289634 " />
			<path d="M-18.314047185816804,-5.962237870007324 L-18.36336688200841,-5.715722553289634 " />
			<path d="M-18.314047185816804,-5.962237870007325 L-11.014732149458938,-4.948786012390151 " />
			<path d="M-11.064051845650546,-4.955633660076754 L-11.064051845650546,-4.7022706956724605 " />
			<path d="M-11.01473214945894,-4.94878601239015 L-11.064051845650546,-4.7022706956724605 " />
			<path d="M-11.064051845650546,-4.7022706956724605 L-10.47221549135126,-4.62009892343323 " />
			<path d="M-10.422895795159654,-4.86661424015092 L-10.47221549135126,-4.62009892343323 " />
			<path d="M-10.422895795159652,-4.866614240150921 L-3.1235807588017908,-3.853162382533747 " />
			<path d="M-3.172900454993398,-3.8600100302203506 L-3.172900454993398,-3.606647065816057 " />
			<path d="M-3.1235807588017908,-3.853162382533746 L-3.172900454993398,-3.6066470658160563 " />
			<path d="M-3.172900454993398,-3.6066470658160563 L-2.5810641006941113,-3.5244752935768258 " />
			<path d="M-2.5317444045025046,-3.7709906102945157 L-2.5810641006941117,-3.5244752935768258 " />
			<path d="M-2.531744404502504,-3.7709906102945165 L4.767570631855359,-2.757538752677343 " />
			<path d="M4.718250935663752,-2.7643864003639456 L4.718250935663752,-2.511023435959652 " />
			<path d="M4.767570631855358,-2.757538752677342 L4.718250935663752,-2.511023435959652 " />
			<path d="M4.718250935663752,-2.511023435959652 L5.310087289963038,-2.4288516637204216 " />
			<path d="M5.359406986154645,-2.6753669804381115 L5.310087289963038,-2.4288516637204216 " />
			<path d="M5.359406986154645,-2.6753669804381124 L12.658722022512508,-1.6619151228209388 " />
			<path d="M12.6094023263209,-1.6687627705075414 L12.6094023263209,-1.415399806103248 " />
			<path d="M12.658722022512507,-1.661915122820938 L12.6094023263209,-1.415399806103248 " />
			<path d="M12.6094023263209,-1.415399806103248 L13.201238680620186,-1.3332280338640177 " />
			<path d="M13.250558376811796,-1.5797433505817073 L13.20123868062019,-1.3332280338640174 " />
			<path d="M13.250558376811794,-1.5797433505817084 L20.549873413169657,-0.5662914929645346 " />
			<path d="M20.50055371697805,-0.5731391406511372 L20.50055371697805,-0.31977617624684385 " />
			<path d="M20.549873413169657,-0.5662914929645337 L20.50055371697805,-0.31977617624684385 " />
			<path d="M20.50055371697805,-0.31977617624684385 L21.092390071277336,-0.2376044040076133 " />
			<path d="M21.141709767468942,-0.4841197207253032 L21.092390071277336,-0.2376044040076133 " />
			<path d="M21.141709767468942,-0.48411972072530407 L23.6076945770493,-0.14173733639517838 " />
			<path d="M23.19669710878591,-0.1988010671168654 L23.19669710878591,1.9125569695855789 " />
			<path d="M23.6076945770493,-0.1417373363951775 L23.19669710878591,1.9125569695855793 " />
			<path d="M22.900778931636264,-0.23988695323648068 L22.900778931636264,1.8714710834659636 " />
			<path d="M22.900778931636264,1.8714710834659636 L23.196697108785912,1.9125569695855793 " />
			<path d="M22.802139539253048,-0.2535822486096859 L22.802139539253048,2.364501716901345 " />
			<path d="M22.900778931636264,1.8714710834659636 L22.802139539253048,2.364501716901345 " />
			<path d="M22.80213953925305,2.364501716901345 L23.0980577164027,2.405587603020961 " />
			<path d="M21.88150521034305,3.839467087160541 L21.88150521034305,8.486298748724 " />
			<path d="M22.703141197115894,-0.26732738130229894 L21.88150521034305,3.8394670871605414 " />
			<path d="M23.098057716402693,2.405587603020961 L21.88150521034305,8.486298748724 " />
			<path d="M21.585587033193406,3.798381201040926 L21.585587033193406,8.445212862604386 " />
			<path d="M21.585587033193406,3.798381201040926 L21.881505210343054,3.839467087160542 " />
			<path d="M21.585587033193406,8.445212862604386 L21.881505210343054,8.486298748724 " />
			<path d="M21.48694764081019,4.291411834476308 L21.48694764081019,8.938243496039767 " />
			<path d="M21.585587033193406,3.798381201040926 L21.48694764081019,4.291411834476308 " />
			<path d="M21.585587033193406,8.445212862604386 L21.48694764081019,8.938243496039767 " />
			<path d="M21.48694764081019,8.938243496039766 L21.782865817959838,8.979329382159381 " />
			<path d="M21.371868349696438,6.386792026576678 L21.371868349696438,11.033623688140137 " />
			<path d="M21.48694764081019,5.811589620902078 L21.37186834969644,6.38679202657668 " />
			<path d="M21.782865817959834,8.979329382159381 L21.37186834969644,11.033623688140139 " />
			<path d="M18.95520323630769,6.051257289933156 L21.37186834969644,6.386792026576679 " />
			<path d="M18.905883540116083,10.691241303810013 L21.37186834969644,11.033623688140139 " />
			<path d="M18.95520323630769,5.797894325528862 L18.95520323630769,10.44472598709232 " />
			<path d="M18.95520323630769,10.444725987092323 L18.905883540116083,10.691241303810012 " />
			<path d="M18.363366882008403,6.159937811367836 L18.363366882008403,10.362554214853091 " />
			<path d="M18.669213121253755,5.758186871895489 L18.95520323630769,5.797894325528863 " />
			<path d="M18.363366882008403,10.362554214853091 L18.95520323630769,10.444725987092323 " />
			<path d="M18.314047185816797,6.212285966098824 L18.314047185816797,10.609069531570782 " />
			<path d="M18.363366882008403,10.362554214853091 L18.314047185816797,10.609069531570782 " />
			<path d="M11.06405184565054,4.955633660076752 L12.629857902216877,5.173033381665858 " />
			<path d="M11.014732149458933,9.595617673953608 L18.314047185816797,10.609069531570782 " />
			<path d="M-19.0323027813143,-4.514663090494539 L-19.030857344207035,-4.595401511199861 L-19.026522318601202,-4.67606811509948 L-19.01930156050103,-4.75659114926872 L-19.0092014927691,-4.836898988488152 L-18.996231099413226,-4.916920198954198 L-18.980401917595156,-4.996583601819488 L-18.96172802736829,-5.075818336506427 L-18.94022603915348,-5.1545539237376605 L-18.91591507896404,-5.232720328227376 L-18.888816771393188,-5.310248020977672 L-18.858955220378952,-5.387068041124582 L-18.826356987763745,-5.463112057278753 L-18.791051069667603,-5.538312428306195 L-18.75306887069614,-5.612602263495053 L-18.712444176006155,-5.685915482054883 L-18.669213121253765,-5.7581868718954805 " />
			<path d="M-12.629857902216884,-5.17303338166586 L-12.607081570224713,-5.092101304107406 L-12.587298476961848,-5.010624883238717 L-12.570527271686721,-4.9286809257961615 L-12.556783764391085,-4.846346679256608 L-12.546080910896151,-4.7636997590172525 L-12.538428800639307,-4.680818075228628 L-12.533834647162934,-4.59777975934973 L-12.5323027813143,-4.5146630904945635 " />
			<path d="M-12.576522528859833,0.5772656706980845 L-12.604828334349403,0.7009402579181402 L-12.640005445444851,0.8233848733019017 L-12.681977791453962,0.9443347297090984 L-12.730654606952422,1.0635282724237967 L-12.785930628064538,1.1807077447678838 L-12.84768632009693,1.2956197455012703 L-12.91578813603295,1.408015776803439 L-12.990088805328835,1.5176527816513181 L-13.070427652387037,1.6242936694314039 L-13.156630944018078,1.72770782864949 L-13.2485122651395,1.8276716256292638 L-13.345872921899495,1.923968888121338 L-13.448502371353422,2.016391372776903 L-13.556178676764059,2.1047392154750924 L-13.668668987540997,2.188821363530215 L-13.785730042781292,2.268455988844226 L-13.907108697322482,2.3434708811109592 L-14.032542469170355,2.413703820221848 L-14.161760107117692,2.479002927067781 L-14.294482177326442,2.5392269919784933 L-14.430421667604925,2.594245780089241 L-14.56928460807322,2.6439403129743955 L-14.710770706874632,2.688203125938931 L-14.85457399955844,2.7269385004114066 L-15.00038351072967,2.760062670935891 L-15.147883926535064,2.7875040063152134 L-15.296756276530985,2.809203164513814 L-15.44667862345872,2.825113220985213 L-15.597326759435536,2.835199770146597 L-15.748374907055972,2.839440999781078 L-15.89949642388723,2.837827738206727 L-16.0503645088352,2.8303634741103876 L-16.200652908853595,2.8170643490033727 L-16.350036624467894,2.7979591223153553 L-16.49819261258848,2.7730891092019534 L-16.64480048509305,2.742508091200477 L-16.789543201667673,2.706282199927068 L-16.932107755408143,2.6644897740667233 L-17.072185849699128,2.6172211899654654 L-17.209474564907243,2.564578666191008 L-17.343677013446396,2.506676042484554 L-17.474502981798786,2.4436385335817383 L-17.601669558103204,2.3756024584350945 L-17.724901743953456,2.3027149454235776 L-17.843933049083898,2.2251336141866576 L-17.95850606765606,2.1430262347709967 L-18.06837303490018,2.0565703648268245 L-18.173296362907834,1.9659529656385573 L-18.273049154417066,1.8713699978200182 L-18.367415693478964,1.7730259975485527 L-18.45619191194453,1.6711336342544412 L-18.539185830763174,1.565913250722112 L-18.616217975138436,1.4575923865976868 L-18.687121762643194,1.3464052863332656 L-18.751743863455072,1.232592392632039 L-18.809944531933002,1.116399826489649 L-18.861597908817927,0.998078854956207 L-18.906592293404117,0.8778853477699455 L-18.94483038509256,0.7560792240375349 L-18.97622949380402,0.632923890157611 L-19.000721718796797,0.5086856702030207 L-19.018254095502417,0.3836332299935812 L-19.028788710061825,0.2580369961047938 L-19.0323027813143,0.13216857106893248 " />
			<path d="M-19.0323027813143,0.13216857106892047 L-19.02838801398111,-0.0006782297943739857 L-19.01665314299894,-0.13320499107838446 L-18.997126438699837,-0.26509244420720324 L-18.9698549426248,-0.3960228607542654 L-18.93490435419657,-0.5256808178779601 L-18.892358872443978,-0.6537539582028805 L-18.842320993159117,-0.7799337423161019 L-18.78491126197598,-0.9039161920656527 L-18.720267983965492,-1.0254026228705049 L-18.648546890446454,-1.1441003632778945 L-18.569920763815183,-1.2597234600344867 L-18.484579021297574,-1.3719933669728075 L-18.392727258626397,-1.4806396160533604 L-18.294586754743197,-1.5854004689458234 L-18.190393938717918,-1.6860235475796113 L-18.08039982017058,-1.782266442144753 L-17.96486938456711,-1.8738972950783612 L-17.844080954846145,-1.9606953596298027 L-17.718325520914707,-2.04245153165896 L-17.587906038628006,-2.118968853386421 L-17.45313669994227,-2.190062987882018 L-17.314342175998792,-2.2555626631486416 L-17.171856834962718,-2.3153100847314785 L-17.026023936500845,-2.3691613158586815 L-16.877194804839018,-2.4169866241976528 L-16.725727982391305,-2.458670794391603 L-16.57198836599991,-2.4941134056234318 L-16.41634632786672,-2.5232290735382765 L-16.259176823294226,-2.545947655941898 L-16.10085848738537,-2.562214421779373 L-15.941772722878408,-2.5719901829869993 L-15.7823027813143,-2.575251388899772 L-15.622832839750192,-2.5719901829869993 L-15.46374707524323,-2.562214421779373 L-15.305428739334376,-2.545947655941898 L-15.148259234761882,-2.5232290735382765 L-14.99261719662869,-2.494113405623432 L-14.838877580237295,-2.4586707943916033 L-14.687410757789584,-2.416986624197653 L-14.538581626127758,-2.3691613158586815 L-14.392748727665882,-2.3153100847314794 L-14.250263386629808,-2.2555626631486416 L-14.11146886268633,-2.190062987882019 L-13.976699524000594,-2.1189688533864217 L-13.846280041713893,-2.0424515316589607 L-13.720524607782455,-1.9606953596298031 L-13.599736178061493,-1.8738972950783626 L-13.484205742458022,-1.7822664421447536 L-13.374211623910682,-1.6860235475796101 L-13.270018807885403,-1.5854004689458234 L-13.171878304002202,-1.4806396160533613 L-13.080026541331028,-1.3719933669728082 L-12.994684798813417,-1.2597234600344875 L-12.916058672182146,-1.1441003632778952 L-12.84433757866311,-1.0254026228705058 L-12.779694300652618,-0.9039161920656547 L-12.722284569469483,-0.7799337423161048 L-12.672246690184622,-0.6537539582028835 L-12.629701208432033,-0.5256808178779632 L-12.5947506200038,-0.3960228607542662 L-12.567479123928761,-0.2650924442072018 L-12.54795241962966,-0.13320499107838413 L-12.536217548647489,-0.0006782297943748183 L-12.5323027813143,0.1321685710688956 " />
			<path d="M-12.5323027813143,0.1321685710689203 L-12.535072412171708,0.24391852242599213 L-12.543376584217722,0.3554780084823918 L-12.557201143919329,0.46665688856426185 L-12.576522528859833,0.5772656706980838 " />
			<path d="M-13.414957364117155,0.4608556600258416 L-13.435860112786376,0.5521845859729595 L-13.461837056364553,0.6426052250255835 L-13.492832019571281,0.7319220420647441 L-13.528777975631684,0.8199418889925214 L-13.569597191222169,0.9064744224158471 L-13.615201394569164,0.9913325152651172 L-13.665491966337303,1.074332661457488 L-13.720360152894266,1.1552953727297677 L-13.77968730149109,1.2340455667827541 L-13.843345116849397,1.3104129458976486 L-13.911195938600603,1.3842323652057893 L-13.983093038977215,1.455344189815321 L-14.058880940112422,1.5235946400225076 L-14.138395750261814,1.5888361238611701 L-14.22146551822017,1.6509275562711072 L-14.307910605166848,1.7097346641952997 L-14.397544073135727,1.7651302769461181 L-14.490172089269542,1.8169946012126208 L-14.585594344984496,1.8652154801142327 L-14.683604489138652,1.9096886357406049 L-14.783990574267376,1.9503178946531572 L-14.886535514920887,1.9870153958606558 L-14.991017557112698,2.019701780819082 L-15.097210757863818,2.04830636504491 L-15.20488547380565,2.072767290970683 L-15.313808857785018,2.0930316617123363 L-15.42374536239739,2.109055655458995 L-15.53445724935941,2.1208046202378745 L-15.645705103619212,2.1282531488493586 L-15.757248351092764,2.131385133810206 L-15.868845778906618,2.13019380218607 L-15.980256057022045,2.124681730238004 L-16.091238260112547,2.1148608378512845 L-16.201552388566185,2.1007523627585956 L-16.310959887486,2.0823868146133138 L-16.4192241625663,2.0598039090122233 L-16.5261110917291,2.033052481610322 L-16.631389531414367,2.0021903825134517 L-16.73483181642925,1.9672843511771378 L-16.83621425227524,1.928409872082154 L-16.93531759888877,1.8856510114989262 L-17.031927544748996,1.8391002356937705 L-17.125835170327644,1.7888582109700948 L-17.2168373998786,1.735033585976975 L-17.30473744059031,1.6777427567558647 L-17.389345208151294,1.6171096150335307 L-17.47047773780849,1.5532652803055262 L-17.547959580029524,1.4863478162895754 L-17.621623179913268,1.4165019323620387 L-17.691309239528206,1.3438786706231103 L-17.756867062395084,1.2686350792674586 L-17.818154879368855,1.1909338729666619 L-17.8750401552152,1.1109430809978555 L-17.927399875218715,1.0288356838795136 L-17.97512081120287,0.9447892393001464 L-18.018099766386573,0.8589854981488431 L-18.056243798547747,0.7716100114779935 L-18.089470421011395,0.6828517292481389 L-18.117707781027477,0.5929025917226665 L-18.140894815152862,0.5019571143959534 L-18.158981381301373,0.4102119673525636 L-18.171928367176292,0.31786554996713134 L-18.179707774850936,0.2251175618646422 L-18.1823027813143,0.1321685710689293 " />
			<path d="M-18.1823027813143,0.1321685710689204 L-18.179411876206714,0.03406631812371835 L-18.17074612532757,-0.06379959790139708 L-18.156326405229773,-0.16119340944267863 L-18.13618745428205,-0.2578804862774322 L-18.110377788981204,-0.3536279007687759 L-18.0789595870716,-0.4482049890087172 L-18.04200853775355,-0.5413839065077115 L-17.99961365934139,-0.6329401770919952 L-17.95187708481056,-0.7226532336863475 L-17.89891381575035,-0.8103069496794968 L-17.840851445314954,-0.895690159592057 L-17.77782985084041,-0.9785971677926633 L-17.71000085686785,-1.0588282440367638 L-17.63752786938487,-1.136190104634275 L-17.560585482166204,-1.2104963780869185 L-17.479359056162014,-1.2815680540734846 L-17.394044272947145,-1.3492339147013797 L-17.30484666330705,-1.413330946985521 L-17.21198111209614,-1.473704735560899 L-17.115671340561345,-1.5302098346827162 L-17.01614936737803,-1.5827101186179267 L-16.913654949696696,-1.6310791095840482 L-16.80843500554698,-1.6752002824452203 L-16.700743018990515,-1.7149673454314625 L-16.59083842945563,-1.7502844962048567 L-16.478986006725012,-1.7810666526557737 L-16.365455213082136,-1.8072396578731242 L-16.25051955415301,-1.8287404587948555 L-16.134455920007166,-1.8455172581082993 L-16.017543918105243,-1.857529639034435 L-15.900065199700103,-1.864748662695451 L-15.7823027813143,-1.867156937831037 L-15.664540362928497,-1.864748662695451 L-15.547061644523355,-1.857529639034435 L-15.430149642621434,-1.8455172581082995 L-15.314086008475591,-1.8287404587948557 L-15.199150349546464,-1.8072396578731245 L-15.08561955590359,-1.781066652655774 L-14.97376713317297,-1.750284496204857 L-14.863862543638085,-1.7149673454314627 L-14.756170557081623,-1.6752002824452208 L-14.650950612931906,-1.6310791095840484 L-14.548456195250568,-1.582710118617927 L-14.448934222067255,-1.5302098346827167 L-14.352624450532462,-1.4737047355608994 L-14.259758899321552,-1.4133309469855215 L-14.170561289681459,-1.3492339147013808 L-14.085246506466586,-1.281568054073485 L-14.004020080462396,-1.2104963780869176 L-13.927077693243731,-1.136190104634275 L-13.854604705760751,-1.0588282440367645 L-13.786775711788192,-0.9785971677926637 L-13.723754117313646,-0.8956901595920577 L-13.665691746878249,-0.8103069496794973 L-13.612728477818036,-0.7226532336863482 L-13.564991903287213,-0.6329401770919965 L-13.52259702487505,-0.5413839065077136 L-13.485645975556999,-0.4482049890087194 L-13.454227773647395,-0.35362790076877826 L-13.428418108346548,-0.2578804862774328 L-13.408279157398827,-0.16119340944267752 L-13.393859437301028,-0.0637995979013968 L-13.385193686421886,0.03406631812371773 L-13.3823027813143,0.13216857106890204 " />
			<path d="M-13.3823027813143,0.13216857106892027 L-13.384348047178232,0.21469161207106563 L-13.39048035884298,0.297074001774253 L-13.400689264468785,0.37917532860394176 L-13.414957364117155,0.460855660025841 " />
			<path d="M-11.141151390657152,-3.419039460638134 L-11.139705953549889,-3.4997778813434572 L-11.135370927944056,-3.5804444852430755 L-11.128150169843883,-3.660967519412316 L-11.118050102111955,-3.741275358631748 L-11.105079708756078,-3.821296569097794 L-11.089250526938006,-3.900959971963083 L-11.070576636711143,-3.9801947066500225 L-11.049074648496333,-4.058930293881256 L-11.024763688306892,-4.137096698370972 L-10.997665380736038,-4.2146243911212675 L-10.967803829721802,-4.291444411268177 L-10.935205597106599,-4.36748842742235 L-10.899899679010456,-4.442688798449792 L-10.86191748003899,-4.516978633638649 L-10.821292785349005,-4.590291852198478 L-10.778061730596619,-4.662563242039077 " />
			<path d="M-4.738706511559735,-4.077409751809455 L-4.7159301795675646,-3.9964776742510018 L-4.696147086304699,-3.9150012533823126 L-4.679375881029572,-3.8330572959397577 L-4.665632373733937,-3.7507230494002037 L-4.654929520239003,-3.668076129160849 L-4.647277409982159,-3.585194445372224 L-4.642683256505785,-3.5021561294933257 L-4.641151390657152,-3.419039460638159 " />
			<path d="M-4.685371138202685,1.6728893005544887 L-4.713676943692255,1.7965638877745445 L-4.748854054787703,1.919008503158306 L-4.7908264007968135,2.0399583595655026 L-4.839503216295274,2.159151902280201 L-4.8947792374073895,2.276331374624288 L-4.956534929439781,2.3912433753576745 L-5.024636745375801,2.5036394066598433 L-5.098937414671687,2.613276411507722 L-5.179276261729889,2.719917299287808 L-5.2654795533609295,2.823331458505894 L-5.357360874482352,2.9232952554856677 L-5.454721531242348,3.019592517977742 L-5.557350980696274,3.1120150026333073 L-5.665027286106912,3.2003628453314965 L-5.7775175968838495,3.2844449933866193 L-5.894578652124144,3.36407961870063 L-6.015957306665333,3.4390945109673634 L-6.141391078513208,3.5093274500782523 L-6.270608716460543,3.5746265569241853 L-6.403330786669294,3.6348506218348975 L-6.539270276947776,3.6898694099456453 L-6.678133217416072,3.7395639428307996 L-6.8196193162174845,3.783826755795335 L-6.9634226089012925,3.8225621302678108 L-7.109232120072522,3.855686300792295 L-7.256732535877915,3.8831276361716176 L-7.405604885873837,3.904826794370218 L-7.5555272328015715,3.920736850841617 L-7.706175368778387,3.930823400003001 L-7.857223516398823,3.9350646296374823 L-8.008345033230082,3.9334513680631313 L-8.159213118178055,3.9259871039667917 L-8.309501518196447,3.912687978859777 L-8.458885233810744,3.8935827521717594 L-8.607041221931329,3.8687127390583576 L-8.753649094435904,3.838131721056881 L-8.898391811010523,3.8019058297834722 L-9.040956364750995,3.7601134039231274 L-9.18103445904198,3.7128448198218695 L-9.318323174250095,3.6602022960474123 L-9.452525622789247,3.602299672340958 L-9.583351591141637,3.5392621634381425 L-9.710518167446057,3.4712260882914987 L-9.833750353296308,3.3983385752799817 L-9.952781658426748,3.3207572440430617 L-10.067354676998914,3.238649864627401 L-10.177221644243033,3.1521939946832287 L-10.282144972250684,3.0615765954949614 L-10.38189776375992,2.9669936276764224 L-10.476264302821816,2.868649627404957 L-10.565040521287383,2.7667572641108453 L-10.648034440106027,2.6615368805785162 L-10.725066584481286,2.553216016454091 L-10.795970371986044,2.4420289161896696 L-10.860592472797926,2.3282160224884434 L-10.918793141275856,2.2120234563460532 L-10.970446518160779,2.093702484812611 L-11.015440902746967,1.9735089776263497 L-11.05367899443541,1.851702853893939 L-11.085078103146872,1.7285475200140152 L-11.109570328139647,1.6043093000594248 L-11.127102704845267,1.4792568598499853 L-11.137637319404678,1.3536606259611978 L-11.141151390657152,1.2277922009253366 " />
			<path d="M-11.141151390657152,1.2277922009253246 L-11.137236623323961,1.0949454000620302 L-11.125501752341792,0.9624186387780197 L-11.10597504804269,0.8305311856492009 L-11.078703551967651,0.6996007691021388 L-11.04375296353942,0.5699428119784441 L-11.001207481786832,0.44186967165352364 L-10.95116960250197,0.31568988754030225 L-10.893759871318835,0.1917074377907515 L-10.829116593308342,0.07022100698589928 L-10.757395499789306,-0.04847673342149039 L-10.678769373158037,-0.1640998301780825 L-10.593427630640424,-0.27636973711640334 L-10.50157586796925,-0.3850159861969562 L-10.403435364086047,-0.48977683908941927 L-10.299242548060768,-0.5903999177232071 L-10.189248429513432,-0.6866428122883488 L-10.07371799390996,-0.7782736652219571 L-9.952929564188999,-0.8650717297733985 L-9.827174130257559,-0.946827901802556 L-9.69675464797086,-1.0233452235300167 L-9.561985309285122,-1.094439358025614 L-9.423190785341644,-1.1599390332922375 L-9.28070544430557,-1.2196864548750743 L-9.134872545843695,-1.2735376860022773 L-8.98604341418187,-1.3213629943412486 L-8.834576591734157,-1.3630471645351987 L-8.680836975342762,-1.3984897757670276 L-8.52519493720957,-1.4276054436818724 L-8.368025432637076,-1.450324026085494 L-8.209707096728224,-1.466590791922969 L-8.05062133222126,-1.4763665531305952 L-7.891151390657153,-1.479627759043368 L-7.7316814490930446,-1.4763665531305952 L-7.572595684586082,-1.466590791922969 L-7.414277348677228,-1.450324026085494 L-7.257107844104735,-1.4276054436818724 L-7.101465805971541,-1.398489775767028 L-6.947726189580147,-1.3630471645351991 L-6.796259367132436,-1.321362994341249 L-6.647430235470609,-1.2735376860022773 L-6.501597337008735,-1.2196864548750752 L-6.359111995972659,-1.1599390332922375 L-6.220317472029182,-1.0944393580256149 L-6.085548133343446,-1.0233452235300176 L-5.955128651056745,-0.9468279018025565 L-5.829373217125306,-0.865071729773399 L-5.7085847874043445,-0.7782736652219584 L-5.593054351800873,-0.6866428122883494 L-5.483060233253534,-0.590399917723206 L-5.378867417228256,-0.48977683908941927 L-5.280726913345055,-0.3850159861969571 L-5.18887515067388,-0.276369737116404 L-5.1035334081562675,-0.16409983017808338 L-5.024907281524999,-0.04847673342149106 L-4.9531861880059616,0.0702210069858984 L-4.88854290999547,0.1917074377907495 L-4.831133178812335,0.31568988754029936 L-4.781095299527474,0.44186967165352065 L-4.738549817774885,0.569942811978441 L-4.703599229346653,0.699600769102138 L-4.676327733271613,0.8305311856492024 L-4.656801028972511,0.96241863877802 L-4.645066157990342,1.0949454000620293 L-4.641151390657152,1.2277922009252997 " />
			<path d="M-4.641151390657152,1.2277922009253244 L-4.643921021514559,1.3395421522823963 L-4.6522251935605725,1.451101638338796 L-4.666049753262182,1.562280518420666 L-4.685371138202685,1.672889300554488 " />
			<path d="M-5.523805973460007,1.5564792898822457 L-5.544708722129228,1.6478082158293637 L-5.570685665707405,1.7382288548819878 L-5.601680628914133,1.8275456719211483 L-5.637626584974535,1.9155655188489256 L-5.67844580056502,2.002098052272251 L-5.724050003912016,2.0869561451215213 L-5.774340575680155,2.169956291313892 L-5.8292087622371165,2.250919002586172 L-5.888535910833943,2.3296691966391583 L-5.952193726192249,2.4060365757540527 L-6.020044547943454,2.4798559950621932 L-6.091941648320066,2.550967819671725 L-6.167729549455273,2.6192182698789117 L-6.247244359604666,2.684459753717574 L-6.330314127563021,2.7465511861275114 L-6.4167592145097005,2.805358294051704 L-6.5063926824785785,2.8607539068025223 L-6.599020698612393,2.912618231069025 L-6.694442954327348,2.960839109970637 L-6.792453098481503,3.0053122655970093 L-6.892839183610228,3.045941524509561 L-6.9953841242637385,3.08263902571706 L-7.099866166455551,3.115325410675486 L-7.206059367206671,3.143929994901314 L-7.313734083148502,3.168390920827087 L-7.42265746712787,3.1886552915687405 L-7.532593971740242,3.2046792853153994 L-7.643305858702262,3.2164282500942787 L-7.754553712962064,3.2238767787057627 L-7.866096960435616,3.22700876366661 L-7.977694388249469,3.225817432042474 L-8.089104666364896,3.2203053600944083 L-8.2000868694554,3.2104844677076887 L-8.310400997909035,3.1963759926149997 L-8.419808496828853,3.178010444469718 L-8.528072771909153,3.1554275388686275 L-8.63495970107195,3.128676111466726 L-8.74023814075722,3.097814012369856 L-8.843680425772101,3.062907981033542 L-8.945062861618094,3.0240335019385585 L-9.044166208231623,2.9812746413553306 L-9.14077615409185,2.9347238655501746 L-9.234683779670497,2.884481840826499 L-9.325686009221453,2.830657215833379 L-9.413586049933162,2.7733663866122686 L-9.498193817494144,2.712733244889935 L-9.57932634715134,2.64888891016193 L-9.656808189372375,2.5819714461459795 L-9.730471789256118,2.5121255622184426 L-9.800157848871057,2.439502300479514 L-9.865715671737938,2.3642587091238627 L-9.927003488711705,2.286557502823066 L-9.983888764558053,2.2065667108542595 L-10.036248484561565,2.124459313735918 L-10.083969420545722,2.0404128691565506 L-10.126948375729425,1.9546091280052473 L-10.165092407890599,1.8672336413343977 L-10.198319030354247,1.778475359104543 L-10.226556390370327,1.6885262215790706 L-10.249743424495716,1.5975807442523575 L-10.267829990644225,1.5058355972089679 L-10.280776976519146,1.4134891798235356 L-10.288556384193786,1.3207411917210463 L-10.291151390657152,1.2277922009253335 " />
			<path d="M-10.291151390657152,1.2277922009253246 L-10.288260485549566,1.1296899479801226 L-10.279594734670425,1.0318240319550072 L-10.265175014572627,0.9344302204137256 L-10.245036063624905,0.837743143578972 L-10.219226398324057,0.7419957290876282 L-10.187808196414453,0.647418640847687 L-10.150857147096403,0.5542397233486926 L-10.10846226868424,0.4626834527644089 L-10.060725694153415,0.3729703961700567 L-10.007762425093205,0.28531668017690737 L-9.949700054657805,0.19993347026434716 L-9.88667846018326,0.1170264620637409 L-9.8188494662107,0.03679538581964037 L-9.74637647872772,-0.0405664747778709 L-9.669434091509054,-0.1148727482305143 L-9.588207665504866,-0.18594442421708046 L-9.502892882289995,-0.2536102848449755 L-9.4136952726499,-0.31770731712911693 L-9.320829721438992,-0.3780811057044948 L-9.224519949904197,-0.43458620482631205 L-9.124997976720884,-0.4870864887615225 L-9.022503559039546,-0.5354554797276441 L-8.91728361488983,-0.5795766525888162 L-8.809591628333369,-0.6193437155750583 L-8.699687038798482,-0.6546608663484526 L-8.587834616067864,-0.6854430227993695 L-8.474303822424988,-0.7116160280167201 L-8.35936816349586,-0.7331168289384513 L-8.24330452935002,-0.7498936282518951 L-8.126392527448097,-0.7619060091780308 L-8.008913809042955,-0.7691250328390469 L-7.891151390657152,-0.7715333079746329 L-7.773388972271349,-0.7691250328390469 L-7.655910253866208,-0.7619060091780308 L-7.538998251964285,-0.7498936282518953 L-7.422934617818444,-0.7331168289384515 L-7.307998958889317,-0.7116160280167203 L-7.194468165246441,-0.6854430227993697 L-7.082615742515823,-0.6546608663484528 L-6.972711152980936,-0.6193437155750585 L-6.865019166424474,-0.5795766525888166 L-6.759799222274758,-0.5354554797276443 L-6.65730480459342,-0.48708648876152294 L-6.557782831410107,-0.4345862048263125 L-6.4614730598753125,-0.37808110570449527 L-6.368607508664404,-0.3177073171291174 L-6.2794098990243095,-0.2536102848449766 L-6.194095115809438,-0.1859444242170809 L-6.112868689805249,-0.11487274823051341 L-6.035926302586582,-0.0405664747778709 L-5.963453315103604,0.0367953858196397 L-5.895624321131043,0.11702646206374046 L-5.832602726656499,0.1999334702643465 L-5.774540356221101,0.2853166801769068 L-5.721577087160888,0.372970396170056 L-5.673840512630065,0.4626834527644077 L-5.6314456342179025,0.5542397233486905 L-5.594494584899851,0.6474186408476847 L-5.563076382990246,0.7419957290876259 L-5.537266717689399,0.8377431435789713 L-5.517127766741678,0.9344302204137267 L-5.502708046643879,1.0318240319550074 L-5.4940422957647375,1.129689947980122 L-5.491151390657151,1.2277922009253062 " />
			<path d="M-5.491151390657151,1.2277922009253244 L-5.493196656521083,1.3103152419274697 L-5.499328968185832,1.3926976316306572 L-5.509537873811635,1.4747989584603458 L-5.523805973460007,1.5564792898822453 " />
			<path d="M-3.2500000000000027,-2.32341583078173 L-3.248554562892739,-2.404154251487053 L-3.2442195372869067,-2.4848208553866713 L-3.236998779186734,-2.565343889555912 L-3.2268987114548056,-2.645651728775344 L-3.2139283180989286,-2.72567293924139 L-3.1980991362808577,-2.805336342106679 L-3.1794252460539947,-2.8845710767936183 L-3.157923257839183,-2.9633066640248527 L-3.1336122976497434,-3.041473068514568 L-3.1065139900788887,-3.1190007612648634 L-3.076652439064654,-3.1958207814117734 L-3.0440542064494487,-3.271864797565945 L-3.0087482883533063,-3.3470651685933874 L-2.9707660893818413,-3.421355003782245 L-2.930141394691857,-3.494668222342074 L-2.8869103399394693,-3.5669396121826726 " />
			<path d="M3.1524448790974144,-2.9817861219530513 L3.175221211089585,-2.9008540443945976 L3.19500430435245,-2.8193776235259085 L3.211775509627577,-2.7374336660833536 L3.2255190169232124,-2.6550994195437996 L3.2362218704181456,-2.5724524993044446 L3.2438739806749903,-2.48957081551582 L3.248468134151364,-2.4065324996369215 L3.2499999999999973,-2.3234158307817547 " />
			<path d="M3.2057802524544643,2.7685129304108926 L3.1774744469648937,2.8921875176309486 L3.1422973358694466,3.01463213301471 L3.100324989860336,3.135581989421907 L3.051648174361875,3.254775532136605 L2.9963721532497596,3.371955004480692 L2.9346164612173684,3.4868670052140787 L2.8665146452813475,3.5992630365162475 L2.792213975985462,3.708900041364126 L2.71187512892726,3.815540929144212 L2.62567183729622,3.9189550883622983 L2.533790516174797,4.018918885342072 L2.436429859414801,4.115216147834146 L2.3338004099608747,4.2076386324897115 L2.2261241045502373,4.295986475187901 L2.1136337937732996,4.380068623243023 L1.9965727385330045,4.459703248557034 L1.8751940839918158,4.534718140823768 L1.7497603121439413,4.604951079934656 L1.6205426741966062,4.6702501867805895 L1.4878206039878552,4.730474251691302 L1.351881113709373,4.785493039802049 L1.2130181732410774,4.835187572687204 L1.0715320744396648,4.879450385651739 L0.9277287817558566,4.918185760124215 L0.7819192705846273,4.9513099306487 L0.6344188547792339,4.978751266028022 L0.48554650478331246,5.000450424226623 L0.3356241578555774,5.016360480698021 L0.18497602187876183,5.026447029859405 L0.03392787425832634,5.030688259493886 L-0.11719364257293224,5.029074997919535 L-0.26806172752090573,5.021610733823196 L-0.418350127539298,5.0083116087161805 L-0.5677338431535952,4.989206382028163 L-0.7158898312741808,4.964336368914761 L-0.8624977037787541,4.933755350913286 L-1.0072404203533742,4.897529459639877 L-1.1498049740938459,4.855737033779532 L-1.2898830683848306,4.808468449678274 L-1.4271717835929456,4.7558259259038165 L-1.561374232132098,4.697923302197362 L-1.6922002004844878,4.634885793294547 L-1.8193667767889075,4.566849718147903 L-1.9425989626391595,4.493962205136386 L-2.061630267769599,4.416380873899466 L-2.1762032863417637,4.334273494483805 L-2.286070253585884,4.247817624539633 L-2.3909935815935355,4.157200225351366 L-2.49074637310277,4.0626172575328265 L-2.585112912164667,3.964273257261361 L-2.6738891306302337,3.8623808939672495 L-2.756883049448878,3.7571605104349204 L-2.8339151938241383,3.648839646310495 L-2.904818981328896,3.5376525460460737 L-2.9694410821407757,3.4238396523448476 L-3.0276417506187063,3.3076470862024574 L-3.0792951275036295,3.189326114669015 L-3.1242895120898186,3.0691326074827536 L-3.162527603778261,2.9473264837503432 L-3.193926712489723,2.8241711498704194 L-3.2184189374824976,2.6999329299158292 L-3.2359513141881187,2.5748804897063895 L-3.246485928747529,2.4492842558176022 L-3.2500000000000027,2.323415830781741 " />
			<path d="M-3.2500000000000027,2.323415830781729 L-3.246085232666813,2.1905690299184344 L-3.2343503616846427,2.058042268634424 L-3.2148236573855407,1.9261548155056052 L-3.1875521613105016,1.7952243989585428 L-3.1526015728822707,1.6655664418348484 L-3.1100560911296817,1.5374933015099277 L-3.0600182118448207,1.4113135173967064 L-3.002608480661685,1.2873310676471557 L-2.9379652026511933,1.1658446368423034 L-2.8662441091321567,1.0471468964349138 L-2.787617982500887,0.9315237996783217 L-2.7022762399832754,0.8192538927400008 L-2.6104244773120997,0.710607643659448 L-2.5122839734288984,0.6058467907669849 L-2.4080911574036197,0.5052237121331971 L-2.2980970388562825,0.4089808175680554 L-2.182566603252812,0.3173499646344471 L-2.0617781735318492,0.23055190008300563 L-1.9360227396004104,0.1487957280538481 L-1.8056032573137097,0.07227840632638749 L-1.6708339186279735,0.0011842718307901734 L-1.5320393946844957,-0.06431540343583331 L-1.3895540536484208,-0.12406282501867016 L-1.2437211551865464,-0.1779140561458732 L-1.0948920235247201,-0.22573936448484444 L-0.9434252010770082,-0.26742353467879454 L-0.7896855846856138,-0.30286614591062344 L-0.6340435465524207,-0.3319818138254682 L-0.4768740419799273,-0.3547003962290898 L-0.3185557060710741,-0.3709671620665649 L-0.1594699415641112,-0.380742923274191 L-3.1936304895155882e-15,-0.3840041291869638 L0.1594699415641048,-0.380742923274191 L0.3185557060710677,-0.3709671620665649 L0.4768740419799209,-0.3547003962290898 L0.6340435465524145,-0.3319818138254682 L0.7896855846856075,-0.3028661459106239 L0.943425201077002,-0.267423534678795 L1.0948920235247137,-0.22573936448484488 L1.24372115518654,-0.1779140561458732 L1.3895540536484143,-0.12406282501867105 L1.5320393946844895,-0.06431540343583331 L1.6708339186279675,0.0011842718307892852 L1.8056032573137033,0.0722784063263866 L1.9360227396004044,0.14879572805384766 L2.0617781735318434,0.2305519000830052 L2.1825666032528046,0.31734996463444576 L2.2980970388562763,0.4089808175680547 L2.4080911574036157,0.5052237121331982 L2.512283973428893,0.6058467907669849 L2.610424477312094,0.7106076436594471 L2.702276239983269,0.8192538927400002 L2.7876179825008816,0.9315237996783208 L2.8662441091321504,1.047146896434913 L2.9379652026511875,1.1658446368423026 L3.0026084806616784,1.2873310676471537 L3.060018211844814,1.4113135173967035 L3.1100560911296755,1.5374933015099248 L3.1526015728822645,1.6655664418348453 L3.187552161310496,1.7952243989585421 L3.2148236573855358,1.9261548155056065 L3.2343503616846374,2.0580422686344244 L3.2460852326668075,2.1905690299184335 L3.2499999999999973,2.323415830781704 " />
			<path d="M3.2499999999999973,2.3234158307817285 L3.2472303691425903,2.4351657821388004 L3.2389261970965766,2.5467252681952 L3.2251016373949675,2.65790414827707 L3.2057802524544643,2.768512930410892 " />
			<path d="M2.3673454171971424,2.65210291973865 L2.3464426685279207,2.743431845685768 L2.3204657249497442,2.833852484738392 L2.2894707617430163,2.9231693017775524 L2.2535248056826145,3.0111891487053297 L2.2127055900921295,3.0977216821286553 L2.167101386745133,3.1825797749779254 L2.116810814976994,3.2655799211702963 L2.0619426284200326,3.346542632442576 L2.0026154798232065,3.4252928264955624 L1.9389576644649,3.501660205610457 L1.8711068427136954,3.5754796249185974 L1.7992097423370832,3.6465914495281293 L1.723421841201876,3.714841899735316 L1.6439070310524824,3.780083383573978 L1.560837263094128,3.8421748159839155 L1.4743921761474488,3.900981923908108 L1.3847587081785708,3.9563775366589264 L1.292130692044756,4.008241860925429 L1.1967084363298008,4.056462739827041 L1.098698292175646,4.100935895453413 L0.9983122070469208,4.141565154365965 L0.8957672663934102,4.178262655573464 L0.791285224201598,4.21094904053189 L0.6850920234504781,4.239553624757718 L0.5774173075086472,4.264014550683491 L0.4684939235292797,4.284278921425145 L0.35855741891690696,4.3003029151718035 L0.24784553195488723,4.312051879950683 L0.13659767769508493,4.319500408562167 L0.025054430221532607,4.322632393523014 L-0.0865429975923199,4.321441061898878 L-0.19795327570774648,4.315928989950812 L-0.30893547879825156,4.306108097564093 L-0.4192496072518863,4.291999622471404 L-0.5286571061717034,4.273634074326122 L-0.6369213812520036,4.251051168725032 L-0.7438083104148002,4.22429974132313 L-0.8490867501000714,4.19343764222626 L-0.9525290351149525,4.158531610889947 L-1.0539114709609452,4.119657131794963 L-1.153014817574473,4.076898271211735 L-1.2496247634346995,4.030347495406579 L-1.3435323890133477,3.9801054706829033 L-1.434534618564303,3.9262808456897833 L-1.5224346592760123,3.868990016468673 L-1.6070424268369952,3.808356874746339 L-1.6881749564941917,3.7445125400183343 L-1.765656798715227,3.6775950760023837 L-1.8393203985989695,3.607749192074847 L-1.9090064582139086,3.5351259303359184 L-1.9745642810807884,3.459882338980267 L-2.0358520980545567,3.38218113267947 L-2.0927373739009028,3.3021903407106636 L-2.145097093904416,3.220082943592322 L-2.1928180298885733,3.136036499012955 L-2.2357969850722763,3.0502327578616515 L-2.27394101723345,2.962857271190802 L-2.3071676396970977,2.874098988960947 L-2.335404999713178,2.7841498514354748 L-2.3585920338385655,2.693204374108762 L-2.3766785999870756,2.601459227065372 L-2.389625585861996,2.5091128096799395 L-2.3974049935366373,2.4163648215774507 L-2.4000000000000026,2.3234158307817374 " />
			<path d="M-2.4000000000000026,2.3234158307817285 L-2.3971090948924165,2.2253135778365265 L-2.3884433440132753,2.127447661811411 L-2.374023623915477,2.0300538502701295 L-2.3538846729677556,1.933366773435376 L-2.328075007666908,1.8376193589440324 L-2.296656805757304,1.7430422707040911 L-2.259705756439253,1.6498633532050968 L-2.217310878027091,1.558307082620813 L-2.1695743034962662,1.468594026026461 L-2.1166110344360547,1.3809403100333115 L-2.058548664000656,1.2955571001207513 L-1.9955270695261116,1.212650091920145 L-1.9276980755535513,1.1324190156760445 L-1.8552250880705716,1.0550571550785333 L-1.7782827008519044,0.9807508816258899 L-1.6970562748477171,0.9096792056393237 L-1.6117414916328465,0.8420133450114287 L-1.522543881992751,0.7779163127272872 L-1.4296783307818421,0.7175425241519093 L-1.333368559247048,0.6610374250300921 L-1.2338465860637349,0.6085371410948817 L-1.1313521683823975,0.5601681501287601 L-1.0261322242326805,0.516046977267588 L-0.9184402376762194,0.47627991428134586 L-0.8085356481413325,0.4409627635079516 L-0.6966832254107145,0.41018060705703463 L-0.5831524317678386,0.3840076018396841 L-0.4682167728387114,0.36250680091795284 L-0.35215313869287007,0.34573000160450906 L-0.23524113679094769,0.3337176206783734 L-0.11776241838580587,0.3264985970173573 L-3.055251736945456e-15,0.3240903218817712 L0.11776241838579977,0.3264985970173573 L0.2352411367909416,0.3337176206783734 L0.35215313869286397,0.34573000160450884 L0.4682167728387053,0.3625068009179526 L0.5831524317678324,0.38400760183968385 L0.6966832254107084,0.4101806070570344 L0.8085356481413264,0.4409627635079514 L0.9184402376762133,0.47627991428134564 L1.0261322242326745,0.5160469772675875 L1.1313521683823915,0.5601681501287599 L1.233846586063729,0.6085371410948812 L1.3333685592470417,0.6610374250300917 L1.4296783307818364,0.7175425241519089 L1.522543881992745,0.7779163127272868 L1.6117414916328396,0.8420133450114275 L1.697056274847711,0.9096792056393233 L1.7782827008519,0.9807508816258907 L1.8552250880705665,1.0550571550785333 L1.9276980755535453,1.1324190156760439 L1.9955270695261058,1.2126500919201446 L2.05854866400065,1.2955571001207506 L2.116611034436049,1.3809403100333109 L2.169574303496261,1.46859402602646 L2.2173108780270847,1.5583070826208119 L2.259705756439246,1.6498633532050948 L2.296656805757298,1.743042270704089 L2.3280750076669023,1.8376193589440302 L2.35388467296775,1.9333667734353754 L2.3740236239154715,2.030053850270131 L2.38844334401327,2.1274476618114115 L2.397109094892411,2.225313577836526 L2.3999999999999972,2.3234158307817103 " />
			<path d="M2.3999999999999972,2.3234158307817285 L2.397954734136066,2.405938871783874 L2.3918224224713174,2.4883212614870613 L2.3816135168455137,2.57042258831675 L2.3673454171971424,2.6521029197386494 " />
			<path d="M4.641151390657146,-1.227792200925326 L4.64259682776441,-1.3085306216306487 L4.646931853370242,-1.3891972255302674 L4.6541526114704155,-1.4697202596995078 L4.6642526792023435,-1.55002809891894 L4.6772230725582205,-1.6300493093849857 L4.693052254376291,-1.7097127122502749 L4.711726144603155,-1.7889474469372142 L4.733228132817966,-1.8676830341684485 L4.757539093007406,-1.945849438658164 L4.78463740057826,-2.023377131408459 L4.814498951592495,-2.1001971515553692 L4.8470971842077,-2.176241167709541 L4.882403102303843,-2.2514415387369833 L4.920385301275308,-2.3257313739258407 L4.961009995965292,-2.39904459248567 L5.004241050717679,-2.4713159823262685 " />
			<path d="M11.043596269754563,-1.886162492096647 L11.066372601746734,-1.8052304145381934 L11.086155695009598,-1.7237539936695043 L11.102926900284725,-1.6418100362269494 L11.116670407580362,-1.5594757896873954 L11.127373261075295,-1.4768288694480405 L11.135025371332139,-1.3939471856594157 L11.139619524808513,-1.3109088697805173 L11.141151390657146,-1.2277922009253508 " />
			<path d="M11.096931643111613,3.864136560267297 L11.068625837622044,3.9878111474873528 L11.033448726526595,4.110255762871114 L10.991476380517485,4.2312056192783105 L10.942799565019024,4.35039916199301 L10.887523543906909,4.467578634337096 L10.825767851874517,4.582490635070483 L10.757666035938497,4.694886666372652 L10.683365366642612,4.80452367122053 L10.60302651958441,4.911164559000616 L10.516823227953369,5.0145787182187025 L10.424941906831947,5.114542515198476 L10.327581250071951,5.21083977769055 L10.224951800618024,5.303262262346116 L10.117275495207387,5.391610105044305 L10.00478518443045,5.475692253099428 L9.887724129190154,5.555326878413439 L9.766345474648965,5.630341770680172 L9.640911702801091,5.700574709791061 L9.511694064853755,5.765873816636994 L9.378971994645005,5.826097881547706 L9.243032504366521,5.881116669658454 L9.104169563898227,5.930811202543608 L8.962683465096815,5.975074015508143 L8.818880172413007,6.013809389980619 L8.673070661241777,6.046933560505103 L8.525570245436382,6.074374895884426 L8.376697895440461,6.096074054083026 L8.226775548512727,6.111984110554426 L8.07612741253591,6.12207065971581 L7.9250792649154755,6.126311889350291 L7.773957748084217,6.12469862777594 L7.623089663136243,6.1172343636796 L7.4728012631178515,6.103935238572586 L7.323417547503554,6.084830011884568 L7.175261559382968,6.059959998771166 L7.028653686878395,6.029378980769689 L6.883910970303775,5.99315308949628 L6.741346416563303,5.951360663635936 L6.601268322272318,5.904092079534678 L6.4639796070642035,5.851449555760221 L6.329777158525051,5.793546932053767 L6.198951190172661,5.73050942315095 L6.071784613868242,5.662473348004307 L5.948552428017989,5.58958583499279 L5.8295211228875505,5.51200450375587 L5.714948104315385,5.42989712434021 L5.605081137071265,5.343441254396037 L5.500157809063614,5.25282385520777 L5.4004050175543785,5.158240887389231 L5.306038478492482,5.059896887117765 L5.217262260026915,4.958004523823654 L5.134268341208271,4.852784140291325 L5.057236196833011,4.744463276166899 L4.986332409328253,4.633276175902478 L4.921710308516373,4.519463282201252 L4.863509640038442,4.403270716058862 L4.811856263153519,4.284949744525419 L4.7668618785673305,4.164756237339158 L4.728623786878888,4.042950113606747 L4.6972246781674265,3.9197947797268236 L4.6727324531746515,3.7955565597722334 L4.655200076469031,3.6705041195627937 L4.64466546190962,3.5449078856740064 L4.641151390657146,3.419039460638145 " />
			<path d="M4.641151390657146,3.419039460638133 L4.645066157990336,3.2861926597748385 L4.656801028972506,3.153665898490828 L4.6763277332716084,3.0217784453620093 L4.703599229346647,2.890848028814947 L4.738549817774878,2.7611900716912525 L4.781095299527467,2.633116931366332 L4.831133178812328,2.506937147253111 L4.888542909995464,2.3829546975035596 L4.953186188005956,2.2614682666987074 L5.024907281524992,2.1427705262913177 L5.103533408156262,2.027147429534726 L5.188875150673874,1.914877522596405 L5.280726913345049,1.806231273515852 L5.378867417228251,1.701470420623389 L5.483060233253529,1.6008473419896012 L5.593054351800866,1.5046044474244595 L5.708584787404337,1.4129735944908512 L5.829373217125299,1.3261755299394098 L5.9551286510567385,1.2444193579102523 L6.08554813334344,1.1679020361827916 L6.220317472029175,1.0968079016871943 L6.359111995972653,1.0313082264205709 L6.501597337008729,0.971560804837734 L6.647430235470603,0.917709573710531 L6.7962593671324285,0.8698842653715597 L6.947726189580141,0.8282000951776096 L7.101465805971535,0.7927574839457807 L7.257107844104729,0.763641816030936 L7.4142773486772215,0.7409232336273144 L7.572595684586075,0.7246564677898393 L7.731681449093038,0.7148807065822131 L7.8911513906571455,0.7116195006694404 L8.050621332221255,0.7148807065822131 L8.209707096728216,0.7246564677898393 L8.36802543263707,0.7409232336273144 L8.525194937209564,0.763641816030936 L8.680836975342757,0.7927574839457803 L8.834576591734152,0.8282000951776092 L8.986043414181863,0.8698842653715593 L9.134872545843688,0.917709573710531 L9.280705444305564,0.9715608048377331 L9.423190785341639,1.0313082264205709 L9.561985309285117,1.0968079016871934 L9.696754647970852,1.1679020361827908 L9.827174130257553,1.2444193579102518 L9.952929564188992,1.3261755299394093 L10.073717993909954,1.41297359449085 L10.189248429513425,1.5046044474244589 L10.299242548060764,1.6008473419896023 L10.403435364086043,1.701470420623389 L10.501575867969244,1.8062312735158512 L10.593427630640418,1.9148775225964043 L10.67876937315803,2.027147429534725 L10.7573954997893,2.1427705262913173 L10.829116593308337,2.2614682666987065 L10.893759871318828,2.382954697503558 L10.951169602501963,2.5069371472531077 L11.001207481786825,2.633116931366329 L11.043752963539413,2.7611900716912494 L11.078703551967646,2.890848028814946 L11.105975048042685,3.0217784453620107 L11.125501752341787,3.1536658984908286 L11.137236623323957,3.2861926597748377 L11.141151390657146,3.4190394606381083 " />
			<path d="M11.141151390657146,3.4190394606381327 L11.138381759799739,3.5307894119952046 L11.130077587753725,3.6423488980516043 L11.116253028052117,3.753527778133474 L11.096931643111613,3.8641365602672963 " />
			<path d="M10.258496807854291,3.747726549595054 L10.23759405918507,3.839055475542172 L10.211617115606893,3.929476114594796 L10.180622152400165,4.018792931633957 L10.144676196339763,4.106812778561734 L10.103856980749278,4.19334531198506 L10.058252777402283,4.27820340483433 L10.007962205634144,4.3612035510267 L9.95309401907718,4.44216626229898 L9.893766870480356,4.520916456351967 L9.83010905512205,4.597283835466861 L9.762258233370844,4.6711032547750015 L9.690361132994232,4.7422150793845335 L9.614573231859024,4.8104655295917205 L9.535058421709632,4.875707013430382 L9.451988653751277,4.93779844584032 L9.365543566804599,4.996605553764512 L9.27591009883572,5.05200116651533 L9.183282082701904,5.103865490781834 L9.08785982698695,5.152086369683445 L8.989849682832794,5.196559525309818 L8.88946359770407,5.237188784222369 L8.78691865705056,5.273886285429868 L8.682436614858748,5.306572670388294 L8.576243414107628,5.3351772546141225 L8.468568698165797,5.359638180539895 L8.359645314186428,5.379902551281549 L8.249708809574056,5.395926545028208 L8.138996922612037,5.4076755098070866 L8.027749068352234,5.415124038418571 L7.916205820878682,5.418256023379419 L7.80460839306483,5.417064691755282 L7.693198114949403,5.411552619807217 L7.582215911858897,5.401731727420497 L7.471901783405263,5.387623252327808 L7.362494284485446,5.369257704182527 L7.254230009405146,5.346674798581436 L7.147343080242349,5.319923371179534 L7.0420646405570775,5.289061272082664 L6.938622355542197,5.25415524074635 L6.837239919696204,5.215280761651367 L6.738136573082676,5.172521901068139 L6.64152662722245,5.125971125262983 L6.547619001643802,5.0757291005393075 L6.456616772092846,5.0219044755461875 L6.368716731381137,4.964613646325077 L6.284108963820154,4.903980504602743 L6.202976434162958,4.8401361698747385 L6.125494591941922,4.773218705858788 L6.051830992058179,4.703372821931251 L5.982144932443241,4.6307495601923225 L5.91658710957636,4.5555059688366715 L5.855299292602592,4.477804762535874 L5.798414016756246,4.397813970567068 L5.7460542967527335,4.315706573448726 L5.698333360768576,4.2316601288693585 L5.655354405584873,4.145856387718055 L5.617210373423699,4.058480901047206 L5.583983750960051,3.969722618817351 L5.5557463909439715,3.879773481291879 L5.532559356818584,3.788828003965166 L5.514472790670073,3.697082856921776 L5.501525804795153,3.6047364395363437 L5.493746397120512,3.511988451433855 L5.491151390657146,3.4190394606381416 " />
			<path d="M5.491151390657146,3.4190394606381327 L5.494042295764732,3.3209372076929307 L5.502708046643874,3.2230712916678153 L5.517127766741672,3.1256774801265337 L5.537266717689393,3.0289904032917803 L5.563076382990241,2.9332429888004365 L5.594494584899845,2.8386659005604953 L5.631445634217896,2.745486983061501 L5.673840512630058,2.653930712477217 L5.721577087160883,2.564217655882865 L5.774540356221094,2.476563939889716 L5.832602726656493,2.3911807299771555 L5.895624321131038,2.3082737217765494 L5.963453315103598,2.2280426455324487 L6.035926302586578,2.1506807849349374 L6.112868689805245,2.0763745114822942 L6.194095115809432,2.005302835495728 L6.279409899024302,1.9376369748678328 L6.3686075086643985,1.8735399425836914 L6.461473059875307,1.8131661540083135 L6.557782831410101,1.7566610548864963 L6.657304804593414,1.7041607709512858 L6.759799222274752,1.6557917799851642 L6.865019166424469,1.6116706071239921 L6.97271115298093,1.57190354413775 L7.0826157425158165,1.5365863933643558 L7.194468165246435,1.5058042369134388 L7.307998958889311,1.4796312316960882 L7.422934617818438,1.458130430774357 L7.538998251964279,1.4413536314609132 L7.655910253866201,1.4293412505347776 L7.773388972271343,1.4221222268737614 L7.891151390657146,1.4197139517381754 L8.00891380904295,1.4221222268737614 L8.126392527448091,1.4293412505347776 L8.243304529350013,1.441353631460913 L8.359368163495855,1.4581304307743568 L8.474303822424982,1.479631231696088 L8.587834616067857,1.5058042369134386 L8.699687038798476,1.5365863933643555 L8.809591628333362,1.5719035441377498 L8.917283614889824,1.6116706071239917 L9.02250355903954,1.655791779985164 L9.124997976720879,1.7041607709512854 L9.224519949904192,1.7566610548864958 L9.320829721438985,1.813166154008313 L9.413695272649894,1.873539942583691 L9.502892882289988,1.9376369748678317 L9.58820766550486,2.005302835495727 L9.66943409150905,2.076374511482295 L9.746376478727715,2.1506807849349374 L9.818849466210695,2.2280426455324482 L9.886678460183255,2.3082737217765485 L9.9497000546578,2.3911807299771546 L10.007762425093198,2.476563939889715 L10.06072569415341,2.564217655882864 L10.108462268684233,2.653930712477216 L10.150857147096396,2.745486983061499 L10.187808196414448,2.838665900560493 L10.219226398324052,2.9332429888004343 L10.245036063624898,3.02899040329178 L10.26517501457262,3.125677480126535 L10.279594734670418,3.2230712916678157 L10.28826048554956,3.32093720769293 L10.291151390657147,3.4190394606381145 " />
			<path d="M10.291151390657147,3.4190394606381327 L10.289106124793214,3.501562501640278 L10.282973813128466,3.5839448913434655 L10.272764907502662,3.6660462181731543 L10.258496807854291,3.7477265495950536 " />
			<path d="M12.532302781314296,4.514663090494537 L12.532302781314296,-0.132168571068922 " />
			<path d="M19.032302781314296,4.514663090494537 L19.032302781314296,-0.132168571068922 " />
			<path d="M-19.032302781314304,0.13216857106892022 L-19.032302781314304,-4.514663090494539 " />
			<path d="M-12.5323027813143,0.13216857106892022 L-12.5323027813143,-4.514663090494539 " />
			<path d="M-11.141151390657154,1.2277922009253244 L-11.141151390657154,-3.4190394606381345 " />
			<path d="M-4.641151390657153,1.2277922009253244 L-4.641151390657153,-3.4190394606381345 " />
			<path d="M-3.250000000000002,2.3234158307817285 L-3.250000000000002,-2.3234158307817303 " />
			<path d="M3.249999999999997,2.3234158307817285 L3.249999999999997,-2.3234158307817303 " />
			<path d="M4.641151390657147,3.4190394606381327 L4.641151390657147,-1.2277922009253261 " />
			<path d="M11.141151390657146,3.4190394606381327 L11.141151390657146,-1.2277922009253261 " />

        </g>
        </g>
    </svg>
    