<?xml version="1.0" encoding="UTF-8" standalone="no"?>
    <svg
    xmlns:svg="http://www.w3.org/2000/svg"
    xmlns="http://www.w3.org/2000/svg"
    width="2161"
    height="1783"
    >
        <g transform="scale(5, -5)   translate(215.96048172442357,-192.24850346046645)" stroke-width="0.2"  fill="none">
        <!-- hidden lines -->
        <g  stroke="rgb(160,160,160)" fill="none" stroke-dasharray="0.2,0.2" >
    			<path d="M0.4284920926826459,111.4939910849408 L0.4284920926826459,188.24850346046645 " />
			<path d="M0.4284920926826459,111.4939910849408 L-211.96048172442352,-24.316667952090626 " />
			<path d="M212.30327539856967,-24.646261455902916 L0.4284920926826601,111.49399108494082 " />
			<path d="M198.16115016113656,-16.959823768223266 L198.16115016113656,52.119237369749804 " />
			<path d="M-0.06855873482919606,-143.7164388694526 L198.1611501611366,-16.959823768223274 " />
			<path d="M57.76592521811686,-39.190607576575815 L56.568500949732396,-39.95629223578165 " />
			<path d="M-0.06855873482922448,-143.7164388694526 L-0.06855873482922448,-74.6373777314795 " />
			<path d="M56.56850094973243,-39.956292235781646 L56.56850094973243,-38.421201988271136 " />
			<path d="M70.72776587087284,-54.99945125787642 L70.61249344970841,-55.06976748453326 L70.49756083567628,-55.13308857853417 L70.38330683420442,-55.18922787806405 L70.27006825026496,-55.2380198922432 L70.15817889551973,-55.279320788971525 L70.0479686042898,-55.31300881892567 L69.93976226124958,-55.33898467445913 L69.83387884371172,-55.35717178234745 L69.7306304813262,-55.36751652951551 L69.63032153596541,-55.369988421081416 L69.58136211244087,-55.368268861268916 L69.53324770450745,-55.36458017025117 L69.48601377735318,-55.35892506696678 L69.43969514716267,-55.351307719799195 L69.39432595545402,-55.341733743504165 L69.34993964391307,-55.33021019507117 L69.30656892974355,-55.31674556852162 L69.26424578155108,-55.301349788647975 L69.22300139577918,-55.28403420369812 L69.18286617371427,-55.26481157701058 L69.14386969907689,-55.243696077606636 L69.10604071621546,-55.22070326974633 " />
			<path d="M69.10604071621546,-55.22070326974633 L69.0406995769574,-55.17442297051321 L68.97942272817095,-55.122173898802224 L68.92235779115202,-55.064081927203596 L68.86964224033223,-55.00028700436516 L68.82140307209082,-54.930942817843814 L68.77775649880932,-54.85621642385872 L68.73880766890578,-54.776287844838244 L68.70465041352294,-54.69134963573017 L68.67536702048085,-54.60160642011994 L68.65102803603826,-54.50727439727454 L68.63169209494052,-54.408580821299516 L68.61740577916339,-54.30576345366393 L68.6082035056929,-54.19906999041215 L68.60410744361188,-54.088757465442384 L68.60512746069263,-53.97509163128954 L68.61126109962467,-53.85834631890402 L68.62249358393457,-53.73880277796906 L68.63879785358377,-53.61674899934555 L68.66013463015862,-53.492479021276836 L68.68645251149545,-53.36629222102485 L68.71768809551295,-53.23849259364406 L68.75376613295333,-53.10938801963075 L68.79459970866431,-52.979289523211946 L68.84009045098539,-52.848510523060796 L68.89012876873383,-52.71736607724356 L68.94459411521932,-52.58617212421711 L69.00335527865158,-52.455244721705505 L69.06627069824104,-52.3248992852893 L69.13318880523114,-52.19544982854172 L69.20394838804084,-52.0672082065425 L69.27837898063733,-51.9404833645917 L69.3563012732037,-51.81558059393334 L69.43752754411194,-51.692800796282135 L69.5218621121609,-51.57243975892487 L69.60910180798929,-51.454787442142916 L69.69903646352857,-51.34012728067253 L69.79144941831619,-51.22873550088573 L69.88611804144965,-51.1208804553368 L69.98281426792384,-51.016821976277456 L70.08130514805958,-50.916810749698186 L70.18135340869986,-50.82108771140377 L70.28271802482159,-50.72988346657782 L70.38515480018604,-50.64341773423466 L70.48841695562896,-50.561898817897 L70.5922557235732,-50.48552310377453 L70.69642094733156,-50.414474587652286 L70.80066168375623,-50.34892443162872 L70.90472680778275,-50.289030551771205 L71.0083656174123,-50.2349372376824 L71.1113284376748,-50.18677480489398 L71.21336722211777,-50.14465928092504 L71.31423615037193,-50.10869212576171 L71.41369222035404,-50.07895998743114 L71.5114958336802,-50.05553449325878 L71.60741137287933,-50.038472077311944 L71.70120776901626,-50.02781384444512 L71.79265905835715,-50.02358547127484 L71.88154492673574,-50.02579714432243 L71.96765124030966,-50.03444353547381 L72.05077056142747,-50.04950381481535 L72.1307026483642,-50.070941700815006 L72.20725493772122,-50.09870554772765 L72.28024300832826,-50.13272847001426 L72.34949102553023,-50.172928503474964 " />
			<path d="M72.34949102553023,-50.17292850347497 L72.39716198302295,-50.20580778615061 L72.44272786325489,-50.24182818343085 L72.48613120850364,-50.28094427426872 L72.52731728796297,-50.323106734005584 L72.56623416675737,-50.36826239656864 L72.60283277143084,-50.4163543215123 L72.63706695182769,-50.467321865819095 L72.66889353928703,-50.52110076036931 L72.69827240107756,-50.57762319098319 L72.7251664910043,-50.636817883933354 L72.74954189612308,-50.69861019581959 L72.77136787950413,-50.76292220769283 L72.7906169189908,-50.82967282330947 L72.80726474190449,-50.898777871392205 L72.82129035565198,-50.97015021176845 L72.8326760741968,-51.04369984525246 L72.84140754036088,-51.11933402713263 L72.84747374392879,-51.19695738412082 L72.85086703553132,-51.276472034616305 L72.85158313629125,-51.35777771213263 L72.84962114321895,-51.44077189173179 L72.84498353035094,-51.52534991930625 L72.83767614563028,-51.61140514354579 L72.8277082035324,-51.69882905042286 L72.81509227344571,-51.7875114000267 L72.79984426382205,-51.87734036557383 L72.78198340211621,-51.96820267441951 L72.76153221054061,-52.05998375089244 L72.73851647766516,-52.15256786077254 L72.71296522589836,-52.24583825722962 L72.68491067489059,-52.33967732803895 L72.65438820090574,-52.433966743888114 L72.62143629221237,-52.52858760758799 L72.58609650055078,-52.62342060399994 L72.54841338873702,-52.718346150489936 L72.50843447446994,-52.81324454772004 L72.46621017041241,-52.90799613058702 L72.42179372062176,-53.00248141911781 L72.3752411334101,-53.09658126913151 L72.32661111071882,-53.190177022478004 L72.27596497409661,-53.28315065666361 L72.2233665873741,-53.37538493367527 L72.16888227613276,-53.46676354781552 L72.11258074406959,-53.55717127236173 L72.05453298636304,-53.64649410486491 L71.99481220014944,-53.7346194109046 L71.93349369222273,-53.821436066118835 L71.87065478407408,-53.90683459632986 L71.80637471439084,-53.99070731558898 L71.74073453913813,-54.07294846196658 L71.67381702934874,-54.153454330915935 L71.60570656675037,-54.23212340604265 L71.53648903736195,-54.308856487115015 L71.46625172319285,-54.38355681515356 L71.39508319218204,-54.45613019444238 L71.32307318651546,-54.526485111308126 L71.25031250946283,-54.59453284951707 L71.17689291087649,-54.660187602144596 L71.10290697149647,-54.723366579776126 L71.02844798620794,-54.783990114903034 L70.95360984639814,-54.84198176238186 L70.87848692156105,-54.897268395830245 L70.80317394029923,-54.9497802998379 L70.72776587087286,-54.999451257876416 " />
			<path d="M99.04629571315367,-36.89136338627224 L98.93102329198923,-36.961679612929075 L98.8160906779571,-37.02500070692999 L98.70183667648524,-37.08114000645987 L98.58859809254578,-37.12993202063902 L98.47670873780055,-37.17123291736734 L98.36649844657063,-37.20492094732148 L98.25829210353041,-37.23089680285494 L98.15240868599254,-37.249083910743266 L98.04916032360703,-37.25942865791133 L97.94885137824623,-37.26190054947723 L97.8998919547217,-37.26018098966473 L97.85177754678827,-37.25649229864699 L97.804543619634,-37.2508371953626 L97.75822498944349,-37.24321984819501 L97.71285579773485,-37.23364587189998 L97.6684694861939,-37.222122323466984 L97.62509877202437,-37.208657696917435 L97.5827756238319,-37.19326191704379 L97.54153123806,-37.175946332093936 L97.5013960159951,-37.1567237054064 L97.46239954135771,-37.13560820600245 L97.42457055849628,-37.11261539814215 " />
			<path d="M97.42457055849628,-37.11261539814215 L97.35922941923822,-37.06633509890903 L97.29795257045177,-37.01408602719804 L97.24088763343285,-36.95599405559941 L97.18817208261305,-36.89219913276098 L97.13993291437164,-36.82285494623963 L97.09628634109015,-36.748128552254535 L97.0573375111866,-36.66819997323406 L97.02318025580377,-36.583261764125986 L96.99389686276167,-36.49351854851576 L96.96955787831908,-36.39918652567036 L96.95022193722134,-36.30049294969533 L96.93593562144422,-36.197675582059745 L96.92673334797374,-36.090982118807965 L96.9226372858927,-35.9806695938382 L96.92365730297345,-35.86700375968535 L96.9297909419055,-35.750258447299835 L96.9410234262154,-35.63071490636488 L96.95732769586459,-35.50866112774137 L96.97866447243945,-35.38439114967265 L97.00498235377627,-35.258204349420666 L97.03621793779378,-35.13040472203988 L97.07229597523416,-35.001300148026566 L97.11312955094513,-34.87120165160776 L97.15862029326621,-34.74042265145661 L97.20865861101466,-34.60927820563938 L97.26312395750014,-34.47808425261292 L97.32188512093241,-34.34715685010132 L97.38480054052187,-34.216811413685114 L97.45171864751197,-34.087361956937535 L97.52247823032167,-33.95912033493832 L97.59690882291815,-33.832395492987516 L97.67483111548452,-33.70749272232916 L97.75605738639277,-33.58471292467795 L97.84039195444173,-33.46435188732069 L97.92763165027011,-33.34669957053873 L98.0175663058094,-33.23203940906835 L98.10997926059702,-33.12064762928155 L98.20464788373047,-33.01279258373262 L98.30134411020467,-32.90873410467327 L98.39983499034041,-32.808722878094 L98.49988325098069,-32.712999839799586 L98.60124786710242,-32.621795594973634 L98.70368464246687,-32.535329862630476 L98.80694679790979,-32.45381094629282 L98.91078556585403,-32.37743523217035 L99.01495078961239,-32.3063867160481 L99.11919152603706,-32.24083656002453 L99.22325665006358,-32.18094268016702 L99.32689545969312,-32.12684936607822 L99.42985827995562,-32.078686933289795 L99.53189706439859,-32.03657140932086 L99.63276599265275,-32.00060425415753 L99.73222206263486,-31.970872115826953 L99.83002567596102,-31.9474466216546 L99.92594121516015,-31.93038420570776 L100.01973761129709,-31.919725972840933 L100.11118890063797,-31.915497599670655 L100.20007476901657,-31.91770927271825 L100.28618108259049,-31.92635566386963 L100.3693004037083,-31.941415943211172 L100.44923249064503,-31.96285382921082 L100.52578478000204,-31.990617676123467 L100.59877285060908,-32.02464059841007 L100.66802086781105,-32.06484063187078 " />
			<path d="M100.66802086781105,-32.06484063187079 L100.71569182530378,-32.097719914546424 L100.76125770553571,-32.133740311826664 L100.80466105078446,-32.172856402664536 L100.8458471302438,-32.2150188624014 L100.8847640090382,-32.260174524964455 L100.92136261371166,-32.30826644990812 L100.95559679410852,-32.35923399421491 L100.98742338156785,-32.413012888765124 L101.01680224335838,-32.469535319379006 L101.04369633328513,-32.52873001232917 L101.0680717384039,-32.59052232421541 L101.08989772178495,-32.65483433608865 L101.10914676127163,-32.72158495170529 L101.12579458418531,-32.79068999978802 L101.1398201979328,-32.862062340164265 L101.15120591647762,-32.93561197364828 L101.1599373826417,-33.01124615552845 L101.16600358620961,-33.08886951251664 L101.16939687781215,-33.16838416301212 L101.17011297857208,-33.24968984052845 L101.16815098549978,-33.33268402012761 L101.16351337263177,-33.41726204770207 L101.15620598791111,-33.503317271941604 L101.14623804581322,-33.590741178818675 L101.13362211572654,-33.67942352842252 L101.11837410610288,-33.769252493969645 L101.10051324439704,-33.860114802815325 L101.08006205282143,-33.95189587928826 L101.05704631994598,-34.04447998916836 L101.03149506817918,-34.13775038562544 L101.00344051717141,-34.23158945643477 L100.97291804318657,-34.32587887228393 L100.93996613449319,-34.4204997359838 L100.9046263428316,-34.515332732395755 L100.86694323101784,-34.61025827888575 L100.82696431675076,-34.705156676115855 L100.78474001269323,-34.79990825898284 L100.74032356290259,-34.89439354751362 L100.69377097569092,-34.98849339752733 L100.64514095299964,-35.08208915087382 L100.59449481637743,-35.175062785059424 L100.54189642965493,-35.26729706207109 L100.48741211841359,-35.358675676211334 L100.43111058635041,-35.449083400757544 L100.37306282864387,-35.53840623326072 L100.31334204243026,-35.626531539300416 L100.25202353450355,-35.71334819451465 L100.1891846263549,-35.798746724725675 L100.12490455667167,-35.882619443984794 L100.05926438141896,-35.9648605903624 L99.99234687162956,-36.04536645931175 L99.9242364090312,-36.12403553443847 L99.85501887964277,-36.20076861551083 L99.78478156547368,-36.27546894354938 L99.71361303446287,-36.3480423228382 L99.64160302879628,-36.41839723970394 L99.56884235174365,-36.48644497791289 L99.49542275315731,-36.55209973054041 L99.42143681377729,-36.61527870817194 L99.34697782848876,-36.67590224329885 L99.27213968867896,-36.73389389077768 L99.19701676384187,-36.78918052422606 L99.12170378258006,-36.84169242823371 L99.04629571315368,-36.89136338627223 " />
			<path d="M127.36482555543449,-18.783275514668052 L127.24955313427006,-18.853591741324887 L127.13462052023793,-18.916912835325807 L127.02036651876607,-18.97305213485569 L126.9071279348266,-19.021844149034834 L126.79523858008137,-19.06314504576316 L126.68502828885146,-19.0968330757173 L126.57682194581123,-19.12280893125076 L126.47093852827336,-19.140996039139083 L126.36769016588785,-19.151340786307145 L126.26738122052706,-19.15381267787305 L126.21842179700252,-19.152093118060545 L126.1703073890691,-19.148404427042806 L126.12307346191483,-19.142749323758416 L126.07675483172432,-19.135131976590827 L126.03138564001567,-19.1255580002958 L125.98699932847472,-19.1140344518628 L125.9436286143052,-19.100569825313254 L125.90130546611273,-19.085174045439608 L125.86006108034083,-19.067858460489756 L125.81992585827592,-19.048635833802216 L125.78092938363854,-19.027520334398268 L125.74310040077711,-19.004527526537967 " />
			<path d="M125.74310040077711,-19.004527526537963 L125.67775926151904,-18.958247227304845 L125.6164824127326,-18.905998155593856 L125.55941747571367,-18.847906183995228 L125.50670192489387,-18.78411126115679 L125.45846275665247,-18.714767074635446 L125.41481618337097,-18.64004068065035 L125.37586735346743,-18.560112101629876 L125.34171009808459,-18.475173892521802 L125.3124267050425,-18.38543067691157 L125.2880877205999,-18.291098654066175 L125.26875177950217,-18.192405078091152 L125.25446546372504,-18.08958771045556 L125.24526319025455,-17.982894247203777 L125.24116712817353,-17.872581722234017 L125.24218714525428,-17.758915888081166 L125.24832078418632,-17.642170575695655 L125.25955326849622,-17.522627034760696 L125.27585753814542,-17.400573256137182 L125.29719431472027,-17.276303278068468 L125.3235121960571,-17.150116477816482 L125.3547477800746,-17.022316850435693 L125.39082581751498,-16.893212276422382 L125.43165939322596,-16.76311378000358 L125.47715013554703,-16.63233477985243 L125.52718845329548,-16.501190334035194 L125.58165379978097,-16.36999638100874 L125.64041496321323,-16.23906897849714 L125.70333038280269,-16.10872354208093 L125.77024848979279,-15.979274085333348 L125.84100807260249,-15.851032463334137 L125.91543866519898,-15.724307621383332 L125.99336095776535,-15.599404850724973 L126.0745872286736,-15.476625053073771 L126.15892179672255,-15.356264015716505 L126.24616149255094,-15.238611698934552 L126.33609614809022,-15.123951537464162 L126.42850910287784,-15.012559757677364 L126.5231777260113,-14.904704712128435 L126.61987395248549,-14.800646233069086 L126.71836483262123,-14.700635006489817 L126.81841309326151,-14.604911968195406 L126.91977770938324,-14.513707723369452 L127.02221448474769,-14.427241991026289 L127.12547664019061,-14.345723074688639 L127.22931540813485,-14.269347360566167 L127.33348063189321,-14.19829884444392 L127.43772136831788,-14.132748688420353 L127.5417864923444,-14.072854808562838 L127.64542530197394,-14.018761494474038 L127.74838812223645,-13.97059906168561 L127.85042690667942,-13.92848353771667 L127.95129583493357,-13.892516382553344 L128.0507519049157,-13.862784244222771 L128.14855551824186,-13.839358750050417 L128.24447105744096,-13.822296334103575 L128.3382674535779,-13.811638101236749 L128.4297187429188,-13.807409728066471 L128.5186046112974,-13.809621401114066 L128.6047109248713,-13.818267792265443 L128.68783024598912,-13.833328071606987 L128.76776233292586,-13.854765957606638 L128.84431462228287,-13.882529804519283 L128.9173026928899,-13.916552726805888 L128.98655071009188,-13.956752760266596 " />
			<path d="M128.98655071009188,-13.956752760266603 L129.0342216675846,-13.989632042942237 L129.07978754781652,-14.02565244022248 L129.12319089306527,-14.064768531060352 L129.16437697252462,-14.106930990797219 L129.20329385131902,-14.152086653360271 L129.23989245599248,-14.200178578303937 L129.27412663638935,-14.251146122610727 L129.30595322384866,-14.30492501716094 L129.3353320856392,-14.361447447774825 L129.36222617556595,-14.420642140724985 L129.38660158068473,-14.482434452611223 L129.4084275640658,-14.546746464484464 L129.42767660355244,-14.613497080101101 L129.44432442646612,-14.682602128183836 L129.45835004021362,-14.75397446856008 L129.46973575875845,-14.827524102044094 L129.47846722492253,-14.903158283924261 L129.48453342849044,-14.98078164091245 L129.48792672009296,-15.060296291407935 L129.4886428208529,-15.141601968924265 L129.4866808277806,-15.224596148523428 L129.48204321491258,-15.309174176097882 L129.47473583019195,-15.39522940033742 L129.46476788809403,-15.48265330721449 L129.45215195800736,-15.57133565681833 L129.4369039483837,-15.661164622365462 L129.41904308667785,-15.752026931211143 L129.39859189510227,-15.843808007684075 L129.37557616222682,-15.936392117564175 L129.35002491046,-16.02966251402125 L129.32197035945225,-16.12350158483059 L129.2914478854674,-16.217791000679746 L129.25849597677401,-16.31241186437962 L129.22315618511243,-16.407244860791568 L129.18547307329865,-16.502170407281564 L129.14549415903159,-16.59706880451167 L129.10326985497406,-16.69182038737865 L129.0588534051834,-16.786305675909443 L129.01230081797175,-16.88040552592315 L128.96367079528048,-16.974001279269636 L128.91302465865826,-17.066974913455237 L128.86042627193575,-17.159209190466903 L128.8059419606944,-17.250587804607154 L128.74964042863124,-17.340995529153364 L128.69159267092468,-17.430318361656536 L128.63187188471107,-17.51844366769623 L128.57055337678437,-17.60526032291047 L128.50771446863573,-17.69065885312149 L128.4434343989525,-17.77453157238061 L128.3777942236998,-17.856772718758215 L128.31087671391037,-17.937278587707567 L128.24276625131202,-18.015947662834286 L128.1735487219236,-18.092680743906648 L128.1033114077545,-18.167381071945194 L128.0321428767437,-18.23995445123401 L127.9601328710771,-18.31030936809976 L127.88737219402448,-18.378357106308705 L127.81395259543814,-18.444011858936232 L127.73996665605812,-18.507190836567762 L127.66550767076959,-18.567814371694666 L127.59066953095979,-18.625806019173496 L127.5155466061227,-18.68109265262188 L127.44023362486088,-18.73360455662953 L127.3648255554345,-18.78327551466805 " />
			<path d="M198.1611501611366,-16.95982376822327 L144.27705808383655,17.663427705487507 " />
			<path d="M-197.8183564869904,-16.65220316466514 L-143.9342644096904,17.803606499597166 " />
			<path d="M-197.8183564869904,52.42685797330797 L-197.8183564869904,-16.652203164665103 " />
			<path d="M-0.06855873482921382,-143.71643886945262 L-197.8183564869904,-16.65220316466514 " />
			<path d="M63.630993726595335,-44.49430065380977 L56.56850094973243,-39.95629223578165 " />
			<path d="M106.10878849001658,-23.472529836445545 L94.25659863961587,-15.856899065198675 " />
			<path d="M79.41198380239314,-54.710936921503105 L72.34949102553023,-50.17292850347498 " />
			<path d="M76.16853349307836,-59.758711687774465 L69.10604071621546,-55.220703269746345 " />
			<path d="M107.73051364467396,-36.60284904989892 L100.66802086781107,-32.064840631870794 " />
			<path d="M104.4870633353592,-41.65062381617028 L97.4245705584963,-37.112615398142154 " />
			<path d="M136.0490434869548,-18.494761178294734 L128.9865507100919,-13.95675276026661 " />
			<path d="M132.80559317764002,-23.542535944566094 L125.74310040077714,-19.00452752653797 " />

        </g>

        <!-- solid lines -->
        <g  stroke="rgb(0,0,0)" fill="none">
    			<path d="M0.4284920926826459,188.24850346046642 L-211.96048172442352,52.437844423434996 " />
			<path d="M-211.96048172442357,-24.316667952090583 L-211.96048172442357,52.43784442343505 " />
			<path d="M212.30327539856967,52.10825091962272 L0.4284920926826601,188.24850346046645 " />
			<path d="M212.30327539856967,-24.646261455902916 L212.30327539856967,52.10825091962272 " />
			<path d="M212.30327539856967,52.10825091962272 L148.58658325343782,11.365053208513295 " />
			<path d="M141.5240904765749,15.903061626541433 L148.58658325343782,11.365053208513308 " />
			<path d="M198.1611501611366,52.1192373697498 L141.52409047657494,15.903061626541422 " />
			<path d="M198.1611501611366,52.1192373697498 L0.4113524089754037,179.18347307453726 " />
			<path d="M0.4113524089753504,179.1834730745373 L-197.8183564869904,52.42685797330796 " />
			<path d="M-0.06855873482921382,-74.63737773147952 L-197.8183564869904,52.426857973307946 " />
			<path d="M56.56850094973245,-38.42120198827115 L-0.06855873482919606,-74.63737773147953 " />
			<path d="M56.56850094973244,-38.421201988271136 L63.63099372659534,-42.959210406299256 " />
			<path d="M63.630993726595335,-42.95921040629928 L-0.08569841853650928,-83.70240811740871 " />
			<path d="M-0.08569841853652349,-83.70240811740867 L-211.96048172442352,52.43784442343507 " />
			<path d="M-0.08569841853652349,-160.4569204929343 L-211.96048172442352,-24.31666795209057 " />
			<path d="M-0.08569841853652349,-160.4569204929343 L-0.08569841853652349,-83.70240811740867 " />
			<path d="M212.30327539856967,-24.646261455902916 L-0.08569841853650928,-160.45692049293433 " />
			<path d="M148.58658325343782,9.829962961002792 L148.58658325343782,11.36505320851331 " />
			<path d="M63.63099372659538,-44.49430065380977 L148.58658325343785,9.829962961002789 " />
			<path d="M63.63099372659534,-44.49430065380978 L63.63099372659534,-42.95921040629926 " />
			<path d="M77.79025864773575,-59.53745967590455 L77.67498622657132,-59.607775902561386 L77.56005361253919,-59.6710969965623 L77.44579961106733,-59.72723629609218 L77.33256102712787,-59.77602831027133 L77.22067167238264,-59.81732920699965 L77.11046138115272,-59.851017236953794 L77.0022550381125,-59.876993092487254 L76.89637162057463,-59.89518020037558 L76.79312325818911,-59.90552494754364 L76.69281431282832,-59.90799683910954 L76.64385488930378,-59.90627727929704 L76.59574048137036,-59.9025885882793 L76.54850655421609,-59.89693348499491 L76.50218792402558,-59.88931613782732 L76.45681873231693,-59.87974216153229 L76.41243242077599,-59.868218613099295 L76.36906170660646,-59.854753986549746 L76.326738558414,-59.8393582066761 L76.28549417264209,-59.82204262172625 L76.24535895057718,-59.80281999503871 L76.2063624759398,-59.78170449563476 L76.16853349307837,-59.75871168777446 " />
			<path d="M76.16853349307837,-59.75871168777446 L76.1031923538203,-59.71243138854134 L76.04191550503386,-59.66018231683035 L75.98485056801493,-59.60209034523172 L75.93213501719514,-59.53829542239329 L75.88389584895373,-59.46895123587194 L75.84024927567224,-59.394224841886846 L75.80130044576869,-59.31429626286637 L75.76714319038585,-59.2293580537583 L75.73785979734376,-59.13961483814807 L75.71352081290117,-59.04528281530267 L75.69418487180343,-58.94658923932764 L75.6798985560263,-58.843771871692056 L75.67069628255581,-58.737078408440276 L75.66660022047479,-58.62676588347051 L75.66762023755554,-58.513100049317664 L75.67375387648758,-58.396354736932146 L75.68498636079748,-58.27681119599719 L75.70129063044668,-58.15475741737368 L75.72262740702153,-58.03048743930496 L75.74894528835836,-57.90430063905298 L75.78018087237587,-57.77650101167219 L75.81625890981624,-57.64739643765888 L75.85709248552722,-57.517297941240074 L75.9025832278483,-57.38651894108892 L75.95262154559674,-57.25537449527169 L76.00708689208223,-57.124180542245234 L76.0658480555145,-56.99325313973363 L76.12876347510395,-56.862907703317426 L76.19568158209405,-56.733458246569846 L76.26644116490375,-56.60521662457063 L76.34087175750024,-56.47849178261983 L76.41879405006661,-56.35358901196147 L76.50002032097485,-56.23080921431026 L76.58435488902381,-56.110448176953 L76.6715945848522,-55.99279586017104 L76.76152924039148,-55.87813569870066 L76.8539421951791,-55.76674391891386 L76.94861081831256,-55.65888887336493 L77.04530704478675,-55.55483039430558 L77.1437979249225,-55.45481916772631 L77.24384618556277,-55.3590961294319 L77.3452108016845,-55.267891884605945 L77.44764757704895,-55.18142615226279 L77.55090973249187,-55.09990723592513 L77.65474850043611,-55.02353152180266 L77.75891372419447,-54.95248300568041 L77.86315446061914,-54.886932849656844 L77.96721958464566,-54.82703896979933 L78.0708583942752,-54.77294565571053 L78.17382121453771,-54.724783222922106 L78.27585999898068,-54.68266769895317 L78.37672892723484,-54.64670054378984 L78.47618499721695,-54.61696840545927 L78.57398861054311,-54.59354291128691 L78.66990414974224,-54.57648049534007 L78.76370054587917,-54.56582226247325 L78.85515183522006,-54.56159388930297 L78.94403770359865,-54.56380556235056 L79.03014401717257,-54.57245195350194 L79.11326333829038,-54.58751223284348 L79.19319542522712,-54.60895011884313 L79.26974771458413,-54.636713965755774 L79.34273578519117,-54.670736888042384 L79.41198380239314,-54.71093692150309 " />
			<path d="M79.41198380239314,-54.7109369215031 L79.45965475988586,-54.743816204178735 L79.5052206401178,-54.779836601458975 L79.54862398536655,-54.81895269229685 L79.58981006482588,-54.86111515203371 L79.62872694362028,-54.906270814596766 L79.66532554829375,-54.95436273954043 L79.6995597286906,-55.00533028384722 L79.73138631614994,-55.059109178397435 L79.76076517794047,-55.11563160901132 L79.78765926786721,-55.17482630196148 L79.81203467298599,-55.23661861384772 L79.83386065636704,-55.30093062572096 L79.85310969585372,-55.3676812413376 L79.8697575187674,-55.43678628942033 L79.88378313251489,-55.508158629796576 L79.89516885105971,-55.58170826328059 L79.90390031722379,-55.65734244516076 L79.9099665207917,-55.73496580214895 L79.91335981239423,-55.81448045264443 L79.91407591315416,-55.89578613016076 L79.91211392008186,-55.97878030975992 L79.90747630721386,-56.06335833733438 L79.9001689224932,-56.149413561573915 L79.8902009803953,-56.236837468450986 L79.87758505030862,-56.32551981805483 L79.86233704068496,-56.41534878360196 L79.84447617897912,-56.506211092447636 L79.82402498740352,-56.59799216892057 L79.80100925452807,-56.69057627880067 L79.77545800276127,-56.78384667525775 L79.7474034517535,-56.87768574606708 L79.71688097776865,-56.97197516191624 L79.68392906907528,-57.066596025616114 L79.64858927741369,-57.16142902202807 L79.61090616559993,-57.25635456851806 L79.57092725133285,-57.351252965748166 L79.52870294727532,-57.44600454861515 L79.48428649748467,-57.540489837145934 L79.43773391027301,-57.63458968715964 L79.38910388758173,-57.72818544050613 L79.33845775095952,-57.821159074691735 L79.28585936423701,-57.9133933517034 L79.23137505299567,-58.004771965843645 L79.1750735209325,-58.095179690389855 L79.11702576322595,-58.184502522893034 L79.05730497701235,-58.27262782893273 L78.99598646908564,-58.35944448414696 L78.93314756093699,-58.444843014357986 L78.86886749125375,-58.528715733617105 L78.80322731600104,-58.61095687999471 L78.73630980621165,-58.69146274894406 L78.66819934361328,-58.77013182407078 L78.59898181422486,-58.84686490514314 L78.52874450005577,-58.92156523318169 L78.45757596904495,-58.99413861247051 L78.38556596337837,-59.064493529336254 L78.31280528632574,-59.1325412675452 L78.2393856877394,-59.19819602017272 L78.16539974835938,-59.26137499780425 L78.09094076307085,-59.32199853293116 L78.01610262326105,-59.37999018040999 L77.94097969842396,-59.43527681385837 L77.86566671716214,-59.487788717866025 L77.79025864773577,-59.53745967590454 " />
			<path d="M106.10878849001658,-41.42937180430037 L105.99351606885214,-41.4996880309572 L105.87858345482002,-41.563009124958114 L105.76432945334815,-41.619148424487996 L105.65109086940869,-41.667940438667145 L105.53920151466346,-41.70924133539547 L105.42899122343354,-41.74292936534961 L105.32078488039332,-41.76890522088307 L105.21490146285545,-41.787092328771394 L105.11165310046994,-41.797437075939456 L105.01134415510914,-41.79990896750536 L104.9623847315846,-41.79818940769286 L104.91427032365118,-41.79450071667512 L104.86703639649691,-41.78884561339073 L104.8207177663064,-41.78122826622314 L104.77534857459776,-41.77165428992811 L104.73096226305681,-41.76013074149511 L104.68759154888728,-41.74666611494556 L104.64526840069482,-41.73127033507192 L104.60402401492291,-41.71395475012206 L104.56388879285801,-41.69473212343453 L104.52489231822062,-41.67361662403058 L104.4870633353592,-41.650623816170274 " />
			<path d="M104.4870633353592,-41.650623816170274 L104.42172219610113,-41.604343516937156 L104.36044534731468,-41.55209444522617 L104.30338041029576,-41.49400247362754 L104.25066485947596,-41.430207550789106 L104.20242569123455,-41.36086336426776 L104.15877911795306,-41.28613697028266 L104.11983028804951,-41.20620839126219 L104.08567303266668,-41.12127018215411 L104.05638963962458,-41.031526966543886 L104.03205065518199,-40.937194943698486 L104.01271471408425,-40.83850136772346 L103.99842839830713,-40.73568400008787 L103.98922612483665,-40.62899053683609 L103.98513006275562,-40.51867801186633 L103.98615007983636,-40.40501217771348 L103.9922837187684,-40.28826686532796 L104.0035162030783,-40.16872332439301 L104.0198204727275,-40.0466695457695 L104.04115724930236,-39.92239956770078 L104.06747513063918,-39.79621276744879 L104.09871071465669,-39.668413140068004 L104.13478875209707,-39.53930856605469 L104.17562232780804,-39.40921006963589 L104.22111307012912,-39.27843106948474 L104.27115138787757,-39.147286623667505 L104.32561673436305,-39.01609267064105 L104.38437789779532,-38.88516526812945 L104.44729331738478,-38.75481983171324 L104.51421142437488,-38.62537037496566 L104.58497100718458,-38.49712875296645 L104.65940159978106,-38.37040391101564 L104.73732389234743,-38.245501140357284 L104.81855016325568,-38.12272134270608 L104.90288473130464,-38.002360305348816 L104.99012442713303,-37.88470798856686 L105.0800590826723,-37.77004782709648 L105.17247203745993,-37.65865604730968 L105.26714066059338,-37.550801001760746 L105.36383688706758,-37.4467425227014 L105.46232776720332,-37.34673129612213 L105.5623760278436,-37.25100825782771 L105.66374064396533,-37.15980401300176 L105.76617741932978,-37.073338280658604 L105.8694395747727,-36.991819364320946 L105.97327834271694,-36.915443650198476 L106.0774435664753,-36.84439513407623 L106.18168430289997,-36.77884497805266 L106.28574942692649,-36.71895109819515 L106.38938823655603,-36.664857784106346 L106.49235105681853,-36.61669535131792 L106.5943898412615,-36.574579827348984 L106.69525876951566,-36.53861267218566 L106.79471483949777,-36.508880533855084 L106.89251845282394,-36.485455039682726 L106.98843399202306,-36.46839262373589 L107.08223038816,-36.457734390869064 L107.17368167750088,-36.453506017698786 L107.26256754587948,-36.455717690746376 L107.3486738594534,-36.464364081897756 L107.4317931805712,-36.479424361239296 L107.51172526750794,-36.50086224723895 L107.58827755686495,-36.52862609415159 L107.66126562747199,-36.5626490164382 L107.73051364467396,-36.60284904989891 " />
			<path d="M107.73051364467396,-36.602849049898914 L107.77818460216669,-36.63572833257455 L107.82375048239862,-36.67174872985479 L107.86715382764737,-36.71086482069266 L107.90833990710671,-36.75302728042953 L107.9472567859011,-36.79818294299258 L107.98385539057458,-36.846274867936245 L108.01808957097143,-36.89724241224304 L108.04991615843076,-36.95102130679325 L108.0792950202213,-37.00754373740713 L108.10618911014804,-37.0667384303573 L108.13056451526681,-37.128530742243534 L108.15239049864786,-37.192842754116775 L108.17163953813454,-37.259593369733416 L108.18828736104822,-37.32869841781615 L108.20231297479572,-37.40007075819239 L108.21369869334053,-37.473620391676405 L108.22243015950461,-37.549254573556574 L108.22849636307252,-37.626877930544765 L108.23188965467506,-37.70639258104025 L108.23260575543499,-37.787698258556574 L108.23064376236269,-37.870692438155736 L108.22600614949468,-37.955270465730194 L108.21869876477402,-38.04132568996973 L108.20873082267613,-38.1287495968468 L108.19611489258945,-38.217431946450645 L108.18086688296579,-38.30726091199777 L108.16300602125995,-38.39812322084345 L108.14255482968434,-38.489904297316386 L108.1195390968089,-38.582488407196486 L108.0939878450421,-38.675758803653565 L108.06593329403432,-38.769597874462896 L108.03541082004948,-38.86388729031206 L108.0024589113561,-38.95850815401193 L107.96711911969452,-39.05334115042388 L107.92943600788075,-39.14826669691388 L107.88945709361367,-39.24316509414398 L107.84723278955614,-39.337916677010966 L107.8028163397655,-39.43240196554175 L107.75626375255383,-39.526501815555456 L107.70763372986255,-39.62009756890195 L107.65698759324034,-39.71307120308755 L107.60438920651784,-39.805305480099214 L107.5499048952765,-39.89668409423946 L107.49360336321332,-39.98709181878567 L107.43555560550678,-40.07641465128885 L107.37583481929317,-40.16453995732854 L107.31451631136646,-40.25135661254278 L107.25167740321781,-40.3367551427538 L107.18739733353458,-40.42062786201292 L107.12175715828187,-40.502869008390526 L107.05483964849248,-40.58337487733988 L106.9867291858941,-40.6620439524666 L106.91751165650568,-40.73877703353896 L106.84727434233659,-40.813477361577505 L106.77610581132578,-40.886050740866324 L106.7040958056592,-40.95640565773207 L106.63133512860657,-41.024453395941016 L106.55791553002022,-41.09010814856854 L106.4839295906402,-41.15328712620007 L106.40947060535167,-41.21391066132698 L106.33463246554187,-41.27190230880581 L106.25950954070478,-41.32718894225419 L106.18419655944297,-41.37970084626184 L106.1087884900166,-41.42937180430036 " />
			<path d="M134.42731833229743,-23.32128393269618 L134.312045911133,-23.391600159353015 L134.19711329710086,-23.454921253353934 L134.08285929562902,-23.511060552883816 L133.96962071168954,-23.55985256706296 L133.8577313569443,-23.601153463791288 L133.7475210657144,-23.634841493745427 L133.6393147226742,-23.660817349278886 L133.5334313051363,-23.67900445716721 L133.43018294275078,-23.689349204335272 L133.32987399739,-23.691821095901176 L133.28091457386546,-23.690101536088672 L133.23280016593202,-23.686412845070933 L133.18556623877777,-23.680757741786543 L133.13924760858725,-23.673140394618954 L133.0938784168786,-23.663566418323928 L133.04949210533766,-23.652042869890927 L133.00612139116814,-23.63857824334138 L132.96379824297566,-23.623182463467735 L132.92255385720375,-23.605866878517883 L132.88241863513886,-23.586644251830343 L132.8434221605015,-23.565528752426395 L132.80559317764005,-23.542535944566094 " />
			<path d="M132.80559317764005,-23.54253594456609 L132.74025203838198,-23.496255645332973 L132.67897518959552,-23.444006573621984 L132.6219102525766,-23.385914602023355 L132.56919470175683,-23.32211967918492 L132.5209555335154,-23.252775492663574 L132.4773089602339,-23.17804909867848 L132.43836013033038,-23.098120519658004 L132.40420287494754,-23.01318231054993 L132.37491948190544,-22.9234390949397 L132.35058049746283,-22.829107072094303 L132.3312445563651,-22.73041349611928 L132.31695824058798,-22.627596128483688 L132.3077559671175,-22.520902665231905 L132.30365990503645,-22.410590140262144 L132.3046799221172,-22.296924306109293 L132.31081356104926,-22.180178993723782 L132.32204604535914,-22.060635452788823 L132.33835031500837,-21.93858167416531 L132.3596870915832,-21.814311696096595 L132.38600497292003,-21.68812489584461 L132.41724055693754,-21.56032526846382 L132.45331859437792,-21.43122069445051 L132.49415217008888,-21.301122198031706 L132.53964291241,-21.17034319788056 L132.58968123015842,-21.03919875206332 L132.64414657664392,-20.908004799036867 L132.70290774007617,-20.777077396525268 L132.76582315966562,-20.646731960109058 L132.83274126665574,-20.517282503361475 L132.90350084946544,-20.389040881362266 L132.97793144206193,-20.26231603941146 L133.05585373462827,-20.1374132687531 L133.13708000553655,-20.0146334711019 L133.2214145735855,-19.894272433744632 L133.3086542694139,-19.77662011696268 L133.39858892495315,-19.66195995549229 L133.49100187974076,-19.550568175705493 L133.58567050287425,-19.442713130156562 L133.68236672934842,-19.338654651097215 L133.78085760948417,-19.238643424517942 L133.88090587012445,-19.142920386223533 L133.98227048624616,-19.05171614139758 L134.08470726161062,-18.965250409054416 L134.18796941705355,-18.883731492716766 L134.2918081849978,-18.807355778594292 L134.39597340875616,-18.736307262472046 L134.50021414518082,-18.67075710644848 L134.60427926920732,-18.610863226590965 L134.70791807883688,-18.556769912502165 L134.8108808990994,-18.50860747971374 L134.91291968354236,-18.466491955744797 L135.0137886117965,-18.430524800581473 L135.11324468177864,-18.400792662250897 L135.2110482951048,-18.377367168078543 L135.3069638343039,-18.360304752131704 L135.40076023044085,-18.349646519264876 L135.49221151978173,-18.345418146094598 L135.58109738816034,-18.347629819142192 L135.66720370173425,-18.356276210293572 L135.75032302285206,-18.371336489635116 L135.8302551097888,-18.392774375634765 L135.9068073991458,-18.42053822254741 L135.97979546975284,-18.454561144834013 L136.04904348695482,-18.494761178294723 " />
			<path d="M136.04904348695482,-18.49476117829473 L136.09671444444754,-18.527640460970364 L136.14228032467946,-18.563660858250607 L136.1856836699282,-18.60277694908848 L136.22686974938756,-18.644939408825348 L136.26578662818196,-18.6900950713884 L136.3023852328554,-18.738186996332065 L136.3366194132523,-18.789154540638854 L136.3684460007116,-18.842933435189067 L136.39782486250215,-18.899455865802953 L136.4247189524289,-18.95865055875311 L136.44909435754766,-19.02044287063935 L136.47092034092873,-19.08475488251259 L136.49016938041538,-19.15150549812923 L136.50681720332906,-19.22061054621196 L136.52084281707656,-19.291982886588208 L136.53222853562139,-19.36553252007222 L136.54096000178546,-19.44116670195239 L136.54702620535338,-19.518790058940578 L136.5504194969559,-19.598304709436064 L136.55113559771584,-19.67961038695239 L136.54917360464353,-19.762604566551556 L136.54453599177552,-19.847182594126007 L136.53722860705489,-19.933237818365548 L136.52726066495697,-20.02066172524262 L136.5146447348703,-20.109344074846458 L136.49939672524664,-20.19917304039359 L136.48153586354078,-20.290035349239268 L136.4610846719652,-20.381816425712202 L136.43806893908976,-20.474400535592302 L136.41251768732295,-20.567670932049378 L136.3844631363152,-20.661510002858716 L136.35394066233033,-20.755799418707873 L136.32098875363695,-20.850420282407747 L136.28564896197537,-20.945253278819695 L136.2479658501616,-21.04017882530969 L136.20798693589452,-21.1350772225398 L136.165762631837,-21.22982880540678 L136.12134618204635,-21.32431409393757 L136.0747935948347,-21.418413943951276 L136.02616357214342,-21.512009697297763 L135.9755174355212,-21.604983331483364 L135.9229190487987,-21.69721760849503 L135.86843473755735,-21.78859622263528 L135.81213320549418,-21.87900394718149 L135.75408544778762,-21.968326779684663 L135.694364661574,-22.056452085724356 L135.6330461536473,-22.1432687409386 L135.57020724549866,-22.228667271149618 L135.50592717581543,-22.312539990408737 L135.44028700056273,-22.394781136786342 L135.3733694907733,-22.475287005735694 L135.30525902817496,-22.553956080862413 L135.23604149878653,-22.630689161934775 L135.16580418461743,-22.70538948997332 L135.09463565360664,-22.777962869262137 L135.02262564794003,-22.848317786127886 L134.94986497088743,-22.916365524336832 L134.87644537230108,-22.98202027696436 L134.80245943292104,-23.04519925459589 L134.72800044763252,-23.105822789722794 L134.65316230782273,-23.163814437201623 L134.57803938298562,-23.21910107065001 L134.5027264017238,-23.271612974657657 L134.42731833229743,-23.321283932696176 " />
			<path d="M148.5865832534378,9.829962961002789 L141.5240904765749,14.367971379030912 " />
			<path d="M141.52409047657488,14.36797137903092 L141.52409047657488,15.903061626541433 " />
			<path d="M141.52409047657488,14.36797137903092 L57.76592521811686,-39.190607576575815 " />
			<path d="M0.41135240897534686,110.1044119365642 L0.41135240897534686,179.1834730745373 " />
			<path d="M144.27705808383655,17.663427705487507 L0.4113524089754037,110.10441193656419 " />
			<path d="M-143.9342644096904,17.803606499597166 L0.4113524089753504,110.10441193656419 " />
			<path d="M106.10878849001658,-23.472529836445545 L106.10878849001656,4.407900405692644 " />
			<path d="M106.10878849001658,-23.472529836445545 L131.82495720087968,-7.028503775387797 " />
			<path d="M94.25659863961587,-15.856899065198675 L80.45487856303015,-6.988596630115055 " />
			<path d="M106.10878849001658,4.407900405692644 L106.11003108239711,4.337436854112371 L106.11370653985956,4.271166595212151 L106.11973638288512,4.208954361486171 L106.12804213195506,4.150664885428627 L106.13854530755056,4.096162899533709 L106.15116743015288,4.04531313629561 L106.16583002024326,3.9979803282085205 L106.18245459830291,3.9540292077666335 L106.20096268481305,3.9133245074641403 L106.22127580025493,3.8757309597952334 L106.24331546510977,3.8411132972541044 L106.2670031998588,3.8093362523349454 L106.29226052498325,3.780264557531948 L106.31900896096434,3.7537629453393047 L106.34717002828332,3.7296961482512065 L106.3766652474214,3.707928898761846 L106.40741613885982,3.6883259293654156 L106.4393442230798,3.6707519725561055 L106.47237102056256,3.6550717608281094 L106.50641805178937,3.6411500266756187 L106.57725889739993,3.6180409210739204 L106.65123892376134,3.600342515704546 L106.72773029472343,3.5869726705210314 L106.80610517413601,3.5768492454769114 L106.96599411371201,3.5620130956209977 " />
			<path d="M106.10878849001658,4.407900405692644 L106.10754589763604,4.33584771992068 L106.1038704401736,4.264876969358719 L106.09784059714804,4.194953252870952 L106.0895348480781,4.126041669321575 L106.0790316724826,4.0581073175747795 L106.06640954988026,3.9911152964947605 L106.0517469597899,3.9250307049457107 L106.03512238173025,3.859818641791824 L105.99630117977823,3.731872496126312 L105.95057378017435,3.6069976504117744 L105.8985680190688,3.484914895561758 L105.84091173261176,3.3653450224898105 L105.77823275695336,3.2480088221094805 L105.71115892824379,3.132627085334316 L105.64031808263321,3.0189206030778637 L105.5663380562718,2.9066101662536736 L105.48984668530973,2.7954165657752927 L105.41147180589715,2.6850605925562685 L105.25158286632114,2.465744691550487 " />
			<path d="M131.82495720087968,-7.028503775387804 L131.759230603909,-7.071879361238745 L131.69593687202024,-7.116336882299688 L131.63499752569462,-7.161841437434826 L131.57633408541332,-7.2083581255083535 L131.51986807165764,-7.255852045384463 L131.46552100490874,-7.304288295927349 L131.36286979435636,-7.403848184470224 L131.26775261760596,-7.506758582050524 L131.17954163850743,-7.612740279581798 L131.09760902091057,-7.721514067977593 L131.0213269286652,-7.832800738151459 L130.95006752562117,-7.946321081016942 L130.88320297562834,-8.06179588748759 L130.8201054425365,-8.178945948476951 L130.7601470901955,-8.297492054898573 L130.70270008245515,-8.417154997666005 L130.64713658316532,-8.537655567692793 L130.5391487653365,-8.780052753178627 " />
			<path d="M131.82495720087968,-7.028503775387804 L131.759230603909,-7.06918502441318 L131.69593687202024,-7.105672980758505 L131.63499752569462,-7.138102911929588 L131.57633408541332,-7.166610085432235 L131.51986807165764,-7.191329768772256 L131.46552100490874,-7.212397229455458 L131.41321440564792,-7.22994773498765 L131.36286979435636,-7.24411655287464 L131.3144086915153,-7.255038950622236 L131.26775261760596,-7.262850195736245 L131.2228230931096,-7.267685555722476 L131.17954163850743,-7.269680298086738 L131.13782977428068,-7.2689696903348375 L131.09760902091057,-7.265688999972584 L131.05880089887833,-7.259973494505783 L131.0213269286652,-7.251958441440246 L130.9851086307524,-7.24177910828178 L130.95006752562117,-7.229570762536191 L130.91612513375276,-7.21546867170929 L130.88320297562834,-7.1996081033068835 L130.8201054425365,-7.163152603798788 L130.7601470901955,-7.1212864040583685 L130.70270008245515,-7.07509164413209 L130.64713658316532,-7.025650464066418 L130.5391487653365,-6.9213574037027525 " />
			<path d="M80.45487856303018,-6.9885966301150235 L80.52168861911302,-7.029932456034209 L80.58850456512295,-7.0681531504942985 L80.6553262110623,-7.1033592016068745 L80.72215336693343,-7.135651097483522 L80.7889858427387,-7.1651293262358235 L80.85582344848045,-7.191894375975363 L80.92266599416104,-7.216046734813725 L80.98951328978282,-7.237686890862493 L81.05636514534814,-7.25691533223325 L81.12322137085937,-7.273832547037581 L81.19008177631883,-7.288539023387069 L81.2569461717289,-7.3011352493932975 L81.39068617241024,-7.320398902822313 L81.52443985292221,-7.332427412217297 L81.65820569328362,-7.33802468247092 L81.7919821735133,-7.337994618475851 L81.92576777363007,-7.333141125124762 L82.05956097365275,-7.3242681073103215 L82.19336025360015,-7.3121794699252005 L82.32716409349109,-7.297679117862069 L82.59477937317887,-7.264658889272454 " />
			<path d="M80.4548785630301,-6.988596630115061 L80.51920341096466,-7.031521605180735 L80.57866842088984,-7.074442804833095 L80.63343036177369,-7.1173603508596655 L80.68364600258427,-7.160274365047974 L80.72947211228961,-7.203184969185548 L80.77106545985777,-7.2460922850599125 L80.80858281425677,-7.288996434458594 L80.84218094445467,-7.331897539169119 L80.8720166194195,-7.374795720979012 L80.89824660811932,-7.417691101675802 L80.92102767952218,-7.4605838030470135 L80.9405166025961,-7.503473946880174 L80.95687014630916,-7.5463616549628085 L80.97024507962935,-7.589247049082444 L80.98079817152477,-7.632130251026607 L80.98868619096343,-7.675011382582822 L80.99406590691339,-7.717890565538617 L80.99709408834268,-7.760767921681519 L80.99792750421935,-7.803643572799053 L80.99672292351146,-7.846517640678744 L80.98882684821412,-7.932261513874709 L80.97466001419501,-8.018000515569621 L80.9554765731985,-8.103735620063695 L80.93253067696891,-8.189467801657136 L80.880368125788,-8.360927293342964 " />
			<path d="M108.45217612958315,10.297531172764963 L106.16986615649405,7.123481937785032 " />
			<path d="M106.16986615649405,7.123481937785044 L103.76540019645401,7.384236961766195 " />
			<path d="M103.76540019645401,7.384236961766177 L103.76540019645401,6.582674592304705 " />
			<path d="M103.76540019645401,6.582674592304713 L105.71983320405394,6.445389996157032 " />
			<path d="M105.71983320405394,6.445389996157019 L103.76540019645401,3.801619826973187 " />
			<path d="M103.76540019645401,3.8016198269731944 L103.76540019645401,3.0139885969719047 " />
			<path d="M103.76540019645401,3.013988596971899 L106.16986615649404,6.349804536396131 " />
			<path d="M106.16986615649405,6.349804536396135 L108.45217612958315,6.122432206174321 " />
			<path d="M108.45217612958315,6.122432206174324 L108.45217612958315,6.910063436175614 " />
			<path d="M108.45217612958315,6.910063436175605 L106.61347425233078,7.037719287405584 " />
			<path d="M106.61347425233078,7.037719287405594 L108.45217612958315,9.523853771376071 " />
			<path d="M108.45217612958315,9.523853771376068 L108.45217612958315,10.297531172764959 " />
			<path d="M136.08742053585394,-6.843507223106457 L134.32585879358547,-4.8821589597477555 " />
			<path d="M134.32585879358544,-4.88215895974777 L134.32585879358544,-2.888712735265332 " />
			<path d="M134.32585879358544,-2.8887127352653295 L133.72794949990922,-3.2710416940579887 " />
			<path d="M133.72794949990924,-3.2710416940579847 L133.72794949990924,-5.264487918540422 " />
			<path d="M133.72794949990924,-5.264487918540425 L131.92139283354544,-9.507444797870889 " />
			<path d="M131.92139283354544,-9.507444797870896 L132.66073268398276,-9.034679048615486 " />
			<path d="M132.66073268398276,-9.034679048615487 L134.03655189558827,-5.6805327939226 " />
			<path d="M134.03655189558827,-5.680532793922588 L135.37378011183014,-7.299839652046948 " />
			<path d="M135.37378011183011,-7.299839652046941 L136.0874205358539,-6.843507223106455 " />
			<path d="M74.36828285708468,-4.886757659356569 L77.74353000038546,-2.728479238842739 " />
			<path d="M77.74353000038546,-2.7284792388427377 L78.28226629114363,-3.0746445235092343 " />
			<path d="M78.28226629114363,-3.0746445235092352 L79.08998337838133,-7.187173064067196 " />
			<path d="M79.08998337838135,-7.187173064067196 L81.90591222336953,-5.386546857508305 " />
			<path d="M81.90591222336953,-5.386546857508307 L82.43180903267773,-5.724462126671224 " />
			<path d="M82.43180903267773,-5.72446212667122 L80.45487856303014,-6.988596630115035 " />
			<path d="M80.45487856303014,-6.988596630115035 L78.86369062404547,-8.006070742642983 " />
			<path d="M78.86369062404547,-8.006070742642983 L78.33779381473727,-7.668155473480066 " />
			<path d="M78.33779381473727,-7.66815547348007 L77.53010783646197,-3.539173671920423 " />
			<path d="M77.53010783646197,-3.539173671920423 L74.8942005435985,-5.224686343178843 " />
			<path d="M74.8942005435985,-5.224686343178838 L74.36828285708468,-4.886757659356567 " />

        </g>
        </g>
    </svg>
    