<?xml version="1.0" encoding="UTF-8" standalone="no"?>
<svg
   xmlns:svg="http://www.w3.org/2000/svg"
   xmlns="http://www.w3.org/2000/svg"
   width="250.0"
   height="125.0"

>
    <g transform="scale(2.597733748709535, -2.597733748709535)   translate(34.4587873510859,-27.878459259196283)" stroke-width="0.3849509213547253"  fill="none">
       <!-- hidden lines -->
       <g  stroke="rgb(160,160,160)" fill="none" stroke-dasharray="0.3849509213547253,0.3849509213547253" >

       </g>

       <!-- solid lines -->
       <g  stroke="rgb(0,0,0)" fill="none">
			<path d="M7.672108575874041,-11.288065231325815 L7.670551349903043,-11.189494008515812 L7.665881782390686,-11.089258242798163 L7.658106201678793,-10.987493776772165 L7.6472351454740135,-10.884338524778894 L7.633283346566799,-10.779932285995436 L7.616269712865068,-10.674416554974737 L7.596217301769631,-10.56793432988782 L7.573153288926084,-10.46062991872825 L7.5471089313955435,-10.352648743741511 L7.518119525294107,-10.244137144344283 L7.486224357958472,-10.135242178800754 L7.451466654702528,-10.02611142492473 L7.413893520237073,-9.916892780077635 L7.3735558748320615,-9.807734260733442 L7.330508385307887,-9.698783801882193 L7.284809390949219,-9.590189056543936 L7.236520824441805,-9.482097195664805 L7.1857081279393915,-9.374654708666412 L7.132440164374492,-9.268007204918865 L7.076789124133221,-9.16229921640647 L7.018830427220665,-9.057674001853533 L6.95864262104936,-8.954273352575706 L6.896307273989414,-8.852237400320043 L6.831908864824545,-8.751704427354126 L6.765534668263824,-8.652810679061675 L6.697274636664302,-8.555690179298606 L6.6272212781248,-8.460474548759773 L6.55546953111609,-8.367292826602545 L6.482116635817343,-8.276271295568955 L6.407262002333247,-8.187533310843449 L6.331007075970365,-8.101199132878119 L6.253455199755331,-8.017385764412047 L6.174711474381199,-7.936206791905587 L6.094882615771739,-7.857772231604482 L6.014076810456724,-7.782188380442465 L5.932403568954219,-7.7095576719843715 L5.849973577358548,-7.639978537605025 L5.766898547335086,-7.573545273091994 L5.683291064725167,-7.510347910853039 L5.599264436966285,-7.45047209790142 L5.514932539534355,-7.393998979784417 L5.430409661616162,-7.341005090612389 L5.345810351221137,-7.291562249337389 L5.261249259942357,-7.245737462421906 L5.176840987577176,-7.203592833029639 L5.092699926818044,-7.165185476861375 L5.008940108224009,-7.130567444750039 L4.925675045682979,-7.099785652119785 L4.843017582574217,-7.0728818154047834 L4.761079738839506,-7.049892395513817 L4.679972559170266,-7.030848548417332 L4.599805962516376,-7.015776082923907 L4.520688593120621,-7.0046954257033605 L4.442727673280666,-6.997621593603903 L4.36602885803809,-6.994564173300832 L4.290696091991424,-6.995527308304384 L4.216831468427214,-7.000509693344313 L4.144535090960067,-7.009504576138841 L4.073904937869139,-7.022499766545553 L4.005036729314955,-7.039477653081855 L3.9380237976164922,-7.060415226792598 L3.8729569607643493,-7.085284112432523 L3.8099243993414027,-7.114050606921271 L3.7490115370177763,-7.146675725018825 " />
			<path d="M3.7490115370177612,-7.146675725018833 L3.671233949902302,-7.196101019824127 L3.597558503139905,-7.252187820685986 L3.5281626873350294,-7.314801009588509 L3.4632136830863036,-7.383789745875365 L3.4028679582338235,-7.458987829638137 L3.347270890914421,-7.540214102106468 L3.296556419332995,-7.627272882075399 L3.2508467190936496,-7.7199544373185365 L3.2102519088679577,-7.818035489851356 L3.174869785109438,-7.9212797538274184 L3.144785586453334,-8.029438504771676 L3.120071788369272,-8.142251178779517 L3.100787928561509,-8.259446000238036 L3.0869804635373894,-8.38074063655728 L3.0786826566895478,-8.505842878334203 L3.075914498161482,-8.634451343310703 L3.0786826566895478,-8.766256202429881 L3.0869804635373894,-8.900939926241374 L3.1007879285615085,-9.038178049857622 L3.1200717883692715,-9.177639954618193 L3.1447855864533336,-9.318989664579098 L3.174869785109438,-9.461886655908268 L3.2102519088679573,-9.605986677237293 L3.2508467190936488,-9.750942578993124 L3.2965564193329944,-9.896405149711788 L3.3472708909144204,-10.04202395731941 L3.402867958233823,-10.187448193353763 L3.463213683086303,-10.33232751809258 L3.528162687335029,-10.476312904552636 L3.597558503139905,-10.619057479326317 L3.6712339499023012,-10.760217358230047 L3.7490115370177612,-10.899452474751401 L3.8307038914664098,-11.036427399299123 L3.916114209210977,-11.17081214728239 L4.005036729314955,-11.3022829740726 L4.0972572296387195,-11.430523154932528 L4.1925535429194305,-11.55522374803397 L4.290696091991423,-11.676084338725662 L4.391448442857709,-11.792813763258494 L4.4945678742801904,-11.90513081022447 L4.599805962516374,-12.012764898019642 L4.70690917979393,-12.115456726698877 L4.815619505081304,-12.212958902652147 L4.925675045682977,-12.305036534597395 L5.036810668161916,-12.39146779945422 L5.148758637069236,-12.472044476735096 L5.261249259942358,-12.546572450166773 L5.374011537017761,-12.614872175333367 L5.486773814093164,-12.67677911221461 L5.599264436966284,-12.732144121577146 L5.711212405873606,-12.780833824264015 L5.822348028352543,-12.822730922516733 L5.932403568954218,-12.857734482555857 L6.041113894241591,-12.885760177739304 L6.148217111519147,-12.906740491712611 L6.253455199755331,-12.920624881061762 L6.356574631177812,-12.927379897076687 L6.457326982044099,-12.926989266332134 L6.555469531116091,-12.919453929891784 L6.650765844396801,-12.904792041041135 L6.742986344720566,-12.883038921554663 L6.831908864824545,-12.854246976602557 L6.917319182569112,-12.818485568502084 L6.999011537017754,-12.775840849617689 " />
			<path d="M6.999011537017761,-12.775840849617685 L7.07678912413322,-12.726415554812391 L7.1504645708956165,-12.670328753950532 L7.219860386700494,-12.607715565048007 L7.284809390949219,-12.538726828761153 L7.345155115801699,-12.463528744998381 L7.400752183121101,-12.38230247253005 L7.451466654702527,-12.295243692561119 L7.497176354941873,-12.202562137317981 L7.537771165167565,-12.104481084785162 L7.573153288926084,-12.0012368208091 L7.603237487582188,-11.893078069864842 L7.627951285666251,-11.780265395857 L7.6472351454740135,-11.663070574398484 L7.661042610498132,-11.541775938079239 L7.669340417345975,-11.416673696302315 L7.672108575874041,-11.288065231325826 " />
			<path d="M7.0710678118654755,-10.94105418443153 L7.0699178603792,-10.868263127587221 L7.066469564370075,-10.794242869826496 L7.060727597075139,-10.719093725684221 L7.052699740185455,-10.642917539596882 L7.042396873300127,-10.565817547879867 L7.029832959181927,-10.487898238818428 L7.015025024834527,-10.409265211061934 L6.997993138426985,-10.33002503051333 L6.978760382096739,-10.250285085907738 L6.957352820667986,-10.170153443275938 L6.90813223930805,-10.009149835089191 L6.8505981249421675,-9.847886698455625 L6.785062259920991,-9.687237932284914 L6.711879788775272,-9.528074106159972 L6.63144729365687,-9.37125774264494 L6.544200645225711,-9.217638643200681 L6.450612640628925,-9.068049283037054 L6.351190441372129,-8.923300299857592 L6.246472824967297,-8.78417610094358 L6.137027265250735,-8.651430612383015 L6.023446857193198,-8.525783193479825 L5.906347102866852,-8.40791473848347 L5.846675123557303,-8.352098971471518 L5.786362575986223,-8.298463986764004 L5.725491197577112,-8.24708247214541 L5.664143483098247,-8.198024061428095 L5.60240257286323,-8.151355240082404 L5.540352140056671,-8.107139255133516 L5.478076277337707,-8.065436029447113 L5.415659382875042,-8.026302080520077 L5.353186045967946,-7.989790443886232 L5.290740932408232,-7.955950601240952 L5.22840866973856,-7.924828413382047 L5.166273732562586,-7.896466058057792 L5.104420328062375,-7.870901972806342 L5.04293228187823,-7.848170802864001 L4.981892924505606,-7.828303354212923 L4.921384978363049,-7.811326551831902 L4.861490445684226,-7.797263403206806 L4.802290497385969,-7.786132967150122 L4.74386536306295,-7.7779503279718725 L4.68629422225806,-7.772726575036888 L4.629655097155851,-7.770468787736159 L4.574024746844466,-7.771180025892628 L4.519478563289358,-7.774859325614422 L4.466090469159772,-7.781501700601151 L4.413932817646471,-7.791098148901492 L4.363076294406458,-7.803635665112915 L4.313589821767593,-7.819097258007002 L4.265540465322934,-7.8374619735564846 L4.218993343041373,-7.858704923332791 L4.174011537017773,-7.8827973182356 " />
			<path d="M4.174011537017762,-7.882797318235606 L4.116575780378653,-7.919295997476438 L4.062169296615652,-7.9607139427282725 L4.0109231557135905,-8.006951374533214 L3.962960814114531,-8.057896902868123 L3.918397817300392,-8.113427795492939 L3.877341521433756,-8.173410273623398 L3.8398908347274725,-8.237699834215839 L3.8061359791661094,-8.306141598087695 L3.776158273153291,-8.378570683035008 L3.7500299356085383,-8.454812601048099 L3.7278139119855687,-8.534683678668475 L3.7095637226311844,-8.617991499474266 L3.6953233338500673,-8.704535367628248 L3.685127051986102,-8.79410679137169 L3.6789994407753883,-8.886489985299264 L3.676955262170047,-8.981462390204987 L3.6789994407753883,-9.078795209246842 L3.685127051986102,-9.178253959138406 L3.695323333850067,-9.279599035039636 L3.7095637226311844,-9.382586287785903 L3.7278139119855687,-9.486967612064724 L3.750029935608538,-9.592491544123188 L3.776158273153291,-9.698903867566163 L3.8061359791661094,-9.805948225785851 L3.839890834727472,-9.913366739547326 L3.877341521433755,-10.020900628242186 L3.9183978173003915,-10.128290833313708 L3.9629608141145303,-10.235278642351604 L4.01092315571359,-10.341606312352875 L4.062169296615652,-10.447017690647286 L4.1165757803786525,-10.551258831991579 L4.174011537017761,-10.65407861034581 L4.234338198764456,-10.755229323857973 L4.297410433406597,-10.854467291599464 L4.363076294406458,-10.951553440613772 L4.431177586953238,-11.04625388186418 L4.501550249068225,-11.138340473692939 L4.574024746844465,-11.227591371434496 L4.6484264828688,-11.31379156185874 L4.724576216842324,-11.396733381156691 L4.802290497385967,-11.476217015220818 L4.881382103990932,-11.552050981014716 L4.961660498049301,-11.624052587872514 L5.042932281878229,-11.692048377616699 L5.125001664631906,-11.755874542434047 L5.207670933978851,-11.815377319503002 L5.290740932408232,-11.870413361421777 L5.374011537017761,-11.9208500815448 L5.45728214162729,-11.966565973395564 L5.540352140056671,-12.00745090338636 L5.6230214094036155,-12.04340637613974 L5.705090792157293,-12.074345771772517 L5.786362575986221,-12.100194554570638 L5.866640970044589,-12.12089045255226 L5.9457325766495535,-12.136383607486396 L6.023446857193197,-12.14663669500577 L6.099596591166722,-12.151625014524482 L6.173998327191057,-12.15133654874389 L6.246472824967297,-12.145771992603322 L6.316845487082283,-12.134944751605921 L6.384946779629063,-12.118880909523604 L6.450612640628924,-12.09761916555897 L6.513684875271066,-12.071210741115545 L6.574011537017755,-12.039719256400915 " />
			<path d="M6.5740115370177605,-12.039719256400911 L6.631447293656869,-12.00322057716008 L6.6858537774198705,-11.961802631908245 L6.737099918321933,-11.915565200103304 L6.785062259920991,-11.864619671768395 L6.82962525673513,-11.809088779143579 L6.870681552601766,-11.74910630101312 L6.90813223930805,-11.684816740420679 L6.941887094869413,-11.616374976548823 L6.971864800882232,-11.54394589160151 L6.997993138426985,-11.467703973588419 L7.020209162049953,-11.387832895968042 L7.038459351404338,-11.304525075162253 L7.052699740185455,-11.217981207008272 L7.06289602204942,-11.128409783264829 L7.069023633260134,-11.036026589337254 L7.0710678118654755,-10.94105418443154 " />
			<path d="M-16.970562748477143,16.32993161855452 L-22.910259710444144,12.900645978658071 " />
			<path d="M-22.910259710444144,12.900645978658073 L-22.910259710444144,-0.1632993161855456 " />
			<path d="M16.970562748477143,-3.265986323710904 L11.030865786510143,-6.695271963607355 " />
			<path d="M16.970562748477143,-3.265986323710904 L-16.970562748477143,16.329931618554525 " />
			<path d="M11.030865786510143,-6.695271963607354 L-22.910259710444144,12.900645978658076 " />
			<path d="M16.970562748477143,-16.32993161855452 L11.030865786510143,-19.759217258450974 " />
			<path d="M-22.910259710444144,-0.1632993161855456 L11.030865786510141,-19.759217258450974 " />
			<path d="M16.970562748477143,-16.32993161855452 L16.970562748477143,-3.2659863237109032 " />
			<path d="M11.030865786510143,-19.75921725845097 L11.030865786510143,-6.695271963607352 " />
			<path d="M2.9698484809835,-3.021037349432588 L2.7577164466275352,-3.143511836571747 " />
			<path d="M2.7577164466275352,-3.1435118365717463 L2.7577164466275352,-2.8985628622934287 " />
			<path d="M2.3334523779156076,-2.8985628622934287 L2.757716446627537,-3.143511836571747 " />
			<path d="M2.333452377915606,-2.8985628622934287 L2.333452377915606,-2.653613888015111 " />
			<path d="M-2.8991378028648453,0.36742346141747606 L2.3334523779156076,-2.653613888015111 " />
			<path d="M-2.6870057685088806,0.24494897427831708 L-2.8991378028648453,0.12247448713915787 " />
			<path d="M-2.8991378028648453,0.12247448713915876 L-2.8991378028648453,0.3674234614174763 " />
			<path d="M-3.3234018715767735,0.36742346141747606 L-2.8991378028648453,0.12247448713915854 " />
			<path d="M-3.323401871576774,0.3674234614174763 L-3.323401871576774,0.6123724356957938 " />
			<path d="M-8.555992052357226,3.6334097851283813 L-3.3234018715767735,0.6123724356957936 " />
			<path d="M-8.343860018001262,3.510935297989221 L-8.555992052357226,3.388460810850063 " />
			<path d="M-8.555992052357226,3.388460810850064 L-8.555992052357226,3.6334097851283813 " />
			<path d="M-8.980256121069154,3.6334097851283813 L-8.555992052357226,3.388460810850064 " />
			<path d="M-8.980256121069154,3.6334097851283813 L-8.980256121069154,3.878358759406699 " />
			<path d="M-14.212846301849607,6.899396108839286 L-8.980256121069154,3.878358759406699 " />
			<path d="M-14.000714267493642,6.776921621700126 L-14.212846301849606,6.654447134560966 " />
			<path d="M-14.212846301849606,6.654447134560968 L-14.212846301849606,6.8993961088392854 " />
			<path d="M-14.637110370561537,6.899396108839287 L-14.212846301849607,6.654447134560969 " />
			<path d="M-14.637110370561535,6.899396108839286 L-14.637110370561535,7.144345083117604 " />
			<path d="M-19.86970055134199,10.165382432550192 L-14.637110370561537,7.144345083117605 " />
			<path d="M-19.65756851698602,10.04290794541103 L-19.869700551341985,9.920433458271871 " />
			<path d="M-19.869700551341985,9.920433458271873 L-19.869700551341985,10.16538243255019 " />
			<path d="M-20.29396462005392,10.165382432550192 L-19.86970055134199,9.920433458271875 " />
			<path d="M-20.293964620053917,10.16538243255019 L-20.293964620053917,10.410331406828508 " />
			<path d="M-22.061731573020282,11.430952132988166 L-20.29396462005392,10.41033140682851 " />
			<path d="M-20.293964620053917,10.410331406828508 L-22.061731573020282,9.38971068066885 " />
			<path d="M-22.061731573020282,9.38971068066885 L-22.061731573020282,11.430952132988168 " />
			<path d="M-20.293964620053917,10.165382432550189 L-21.84959953866432,9.26723619352969 " />
			<path d="M-22.06173157302029,9.389710680668852 L-21.84959953866432,9.267236193529692 " />
			<path d="M-19.869700551341985,9.920433458271873 L-21.84959953866432,8.777338244973055 " />
			<path d="M-21.84959953866432,8.777338244973055 L-21.84959953866432,9.26723619352969 " />
			<path d="M-22.06173157302029,8.899812732112217 L-21.84959953866432,8.777338244973057 " />
			<path d="M-19.549160526861094,4.308371603105108 L-22.061731573020282,2.85773803324704 " />
			<path d="M-16.122034611053284,7.508661022000108 L-16.122034611053284,8.001666493091715 " />
			<path d="M-22.061731573020282,2.8577380332470415 L-22.061731573020282,8.899812732112215 " />
			<path d="M-19.532007351498915,4.073326019239602 L-21.84959953866432,2.7352635461078805 " />
			<path d="M-22.06173157302029,2.8577380332470437 L-21.84959953866432,2.735263546107884 " />
			<path d="M-19.45797622759499,3.626169959997308 L-21.84959953866432,2.2453655975512454 " />
			<path d="M-21.84959953866432,2.2453655975512468 L-21.84959953866432,2.735263546107882 " />
			<path d="M-22.06173157302029,2.3678400846904086 L-21.84959953866432,2.245365597551249 " />
			<path d="M-18.87840546095176,2.1644928200922164 L-22.061731573020282,0.32659863237108944 " />
			<path d="M-22.061731573020282,0.3265986323710903 L-22.061731573020282,2.3678400846904064 " />
			<path d="M-22.061731573020282,0.3265986323710912 L-20.29396462005392,-0.6940220937885648 " />
			<path d="M-17.902341308984585,0.9317312429358124 L-20.293964620053917,-0.44907311951025 " />
			<path d="M-20.293964620053917,-0.6940220937885666 L-20.293964620053917,-0.4490731195102491 " />
			<path d="M-17.552108364176583,0.6440403793431528 L-19.869700551341985,-0.6940220937885675 " />
			<path d="M-20.29396462005392,-0.4490731195102473 L-19.86970055134199,-0.6940220937885648 " />
			<path d="M-17.357129505182797,0.5116625017911838 L-19.869700551341985,-0.938971068066885 " />
			<path d="M-19.869700551341985,-0.9389710680668841 L-19.869700551341985,-0.6940220937885666 " />
			<path d="M-19.86970055134199,-0.9389710680668824 L-14.637110370561537,-3.96000841749947 " />
			<path d="M-12.245487059492206,-2.334255080775092 L-14.637110370561535,-3.715059443221154 " />
			<path d="M-14.637110370561535,-3.9600084174994707 L-14.637110370561535,-3.7150594432211532 " />
			<path d="M-11.895254114684203,-2.6219459443677526 L-14.212846301849606,-3.9600084174994725 " />
			<path d="M-14.637110370561537,-3.7150594432211523 L-14.212846301849607,-3.9600084174994707 " />
			<path d="M-11.700275255690414,-2.754323821919721 L-14.212846301849606,-4.20495739177779 " />
			<path d="M-14.212846301849606,-4.204957391777789 L-14.212846301849606,-3.9600084174994716 " />
			<path d="M-14.212846301849607,-4.204957391777788 L-8.980256121069154,-7.225994741210376 " />
			<path d="M-6.588632809999825,-5.600241404485997 L-8.980256121069154,-6.981045766932059 " />
			<path d="M-8.980256121069154,-7.225994741210376 L-8.980256121069154,-6.981045766932058 " />
			<path d="M-6.2383998651918215,-5.887932268078656 L-8.555992052357226,-7.225994741210377 " />
			<path d="M-8.980256121069154,-6.981045766932058 L-8.555992052357226,-7.225994741210376 " />
			<path d="M-6.043421006198035,-6.020310145630625 L-8.555992052357226,-7.470943715488694 " />
			<path d="M-8.555992052357226,-7.470943715488693 L-8.555992052357226,-7.225994741210376 " />
			<path d="M-8.555992052357226,-7.470943715488693 L-3.3234018715767735,-10.491981064921282 " />
			<path d="M-0.9317785605074436,-8.866227728196902 L-3.323401871576774,-10.247032090642964 " />
			<path d="M-3.323401871576774,-10.49198106492128 L-3.323401871576774,-10.247032090642964 " />
			<path d="M-0.5815456156994401,-9.15391859178956 L-2.8991378028648453,-10.491981064921282 " />
			<path d="M-3.3234018715767735,-10.247032090642964 L-2.8991378028648453,-10.491981064921282 " />
			<path d="M-0.38656675670565477,-9.286296469341531 L-2.8991378028648453,-10.7369300391996 " />
			<path d="M-2.8991378028648453,-10.7369300391996 L-2.8991378028648453,-10.49198106492128 " />
			<path d="M-2.8991378028648453,-10.7369300391996 L2.3334523779156076,-13.757967388632185 " />
			<path d="M4.725075688984934,-12.132214051907805 L2.333452377915606,-13.513018414353867 " />
			<path d="M2.333452377915606,-13.757967388632185 L2.333452377915606,-13.51301841435387 " />
			<path d="M5.0753086337929405,-12.419904915500465 L2.7577164466275352,-13.757967388632187 " />
			<path d="M2.3334523779156076,-13.51301841435387 L2.757716446627537,-13.757967388632187 " />
			<path d="M5.270287492786726,-12.552282793052436 L2.7577164466275352,-14.002916362910504 " />
			<path d="M2.7577164466275352,-14.002916362910504 L2.7577164466275352,-13.757967388632185 " />
			<path d="M9.755382386916239,-11.184449397442362 L10.182337649086286,-11.430952132988166 " />
			<path d="M2.757716446627537,-14.002916362910504 L7.990306627407989,-17.023953712343094 " />
			<path d="M9.97020561473032,-15.635909524765955 L7.990306627407987,-16.77900473806477 " />
			<path d="M7.990306627407987,-17.02395371234309 L7.990306627407987,-16.779004738064774 " />
			<path d="M9.970205614730322,-16.125807473322592 L8.414570696119917,-17.023953712343094 " />
			<path d="M7.990306627407989,-16.779004738064774 L8.414570696119918,-17.023953712343094 " />
			<path d="M10.182337649086284,-16.24828196046175 L8.414570696119917,-17.26890268662141 " />
			<path d="M8.414570696119917,-17.268902686621406 L8.414570696119917,-17.02395371234309 " />
			<path d="M8.414570696119918,-17.26890268662141 L10.182337649086284,-18.289523412781065 " />
			<path d="M10.182337649086284,-18.289523412781065 L10.182337649086284,-16.24828196046175 " />
			<path d="M9.970205614730322,-16.125807473322592 L10.182337649086287,-16.248281960461753 " />
			<path d="M10.182337649086282,-15.513435037626799 L9.97020561473032,-15.635909524765957 " />
			<path d="M9.97020561473032,-16.12580747332259 L9.97020561473032,-15.635909524765955 " />
			<path d="M9.970205614730322,-15.635909524765957 L10.182337649086287,-15.758384011905116 " />
			<path d="M10.182337649086284,-15.758384011905116 L10.182337649086284,-9.716309313039941 " />
			<path d="M9.970205614730322,-9.593834825900784 L10.182337649086287,-9.716309313039943 " />
			<path d="M10.182337649086282,-8.981462390204989 L9.97020561473032,-9.103936877344147 " />
			<path d="M9.97020561473032,-9.59383482590078 L9.97020561473032,-9.103936877344145 " />
			<path d="M9.970205614730322,-9.103936877344148 L10.182337649086287,-9.226411364483308 " />
			<path d="M10.182337649086284,-9.226411364483306 L10.182337649086284,-7.185169912163991 " />
			<path d="M8.414570696119918,-6.164549186004335 L10.182337649086284,-7.185169912163991 " />
			<path d="M8.62670273047588,-6.2870236731434925 L8.414570696119917,-6.409498160282651 " />
			<path d="M8.414570696119917,-6.4094981602826495 L8.414570696119917,-6.164549186004332 " />
			<path d="M7.990306627407989,-6.164549186004335 L8.414570696119918,-6.409498160282652 " />
			<path d="M7.990306627407987,-6.164549186004334 L7.990306627407987,-5.919600211726016 " />
			<path d="M2.757716446627537,-2.8985628622934296 L7.990306627407989,-5.919600211726017 " />
			<path d="M-14.95530842209548,1.775880063517804 L-14.95686564806648,1.8744512863278064 L-14.961535215578836,1.9746870520454545 L-14.96931079629073,2.076451518071453 L-14.980181852495509,2.1796067700647246 L-14.994133651402723,2.2840130088481825 L-15.011147285104453,2.3895287398688807 L-15.031199696199891,2.496010964955799 L-15.054263709043438,2.603315376115368 L-15.080308066573979,2.711296551102106 L-15.109297472675415,2.819808150499335 L-15.14119264001105,2.9287031160428656 L-15.175950343266994,3.0378338699188885 L-15.21352347773245,3.1470525147659836 L-15.253861123137462,3.2562110341101773 L-15.296908612661635,3.365161492961426 L-15.342607607020303,3.4737562382996816 L-15.390896173527718,3.581848099178813 L-15.441708870030132,3.689290586177207 L-15.49497683359503,3.795938089924753 L-15.550627873836302,3.9016460784371474 L-15.608586570748857,4.006271292990086 L-15.668774376920162,4.109671942267912 L-15.731109723980108,4.211707894523576 L-15.795508133144978,4.312240867489493 L-15.861882329705697,4.411134615781943 L-15.93014236130522,4.508255115545012 L-16.000195719844722,4.603470746083844 L-16.07194746685343,4.696652468241073 L-16.14530036215218,4.787673999274662 L-16.220154995636275,4.876411984000169 L-16.296409921999157,4.9627461619655 L-16.37396179821419,5.046559530431571 L-16.452705523588325,5.127738502938032 L-16.532534382197785,5.206173063239136 L-16.613340187512797,5.281756914401154 L-16.695013429015304,5.354387622859247 L-16.777443420610975,5.423966757238594 L-16.860518450634437,5.490400021751625 L-16.944125933244354,5.55359738399058 L-17.02815256100324,5.6134731969421985 L-17.11248445843517,5.669946315059201 L-17.19700733635336,5.72294020423123 L-17.281606646748386,5.7723830455062295 L-17.366167738027166,5.818207832421712 L-17.450576010392346,5.86035246181398 L-17.534717071151476,5.898759817982243 L-17.618476889745512,5.93337785009358 L-17.701741952286543,5.964159642723834 L-17.784399415395306,5.991063479438835 L-17.866337259130017,6.014052899329801 L-17.947444438799256,6.033096746426287 L-18.02761103545315,6.048169211919712 L-18.1067284048489,6.059249869140258 L-18.184689324688858,6.066323701239716 L-18.26138813993143,6.069381121542786 L-18.336720905978098,6.0684179865392345 L-18.41058552954231,6.063435601499306 L-18.482881907009457,6.054440718704777 L-18.553512060100385,6.041445528298065 L-18.622380268654567,6.024467641761763 L-18.68939320035303,6.00353006805102 L-18.754460037205174,5.978661182411095 L-18.81749259862812,5.949894687922347 L-18.878405460951747,5.917269569824794 " />
			<path d="M-18.87840546095176,5.917269569824786 L-18.95618304806722,5.8678442750194915 L-19.029858494829618,5.811757474157632 L-19.099254310634493,5.74914428525511 L-19.164203314883217,5.680155548968253 L-19.2245490397357,5.604957465205481 L-19.280146107055103,5.52373119273715 L-19.33086057863653,5.436672412768219 L-19.376570278875874,5.343990857525082 L-19.417165089101566,5.245909804992262 L-19.452547212860082,5.1426655410162 L-19.482631411516188,5.0345067900719425 L-19.50734520960025,4.921694116064101 L-19.526629069408013,4.804499294605583 L-19.540436534432132,4.683204658286339 L-19.548734341279975,4.558102416509415 L-19.55150249980804,4.429493951532915 L-19.548734341279975,4.297689092413737 L-19.540436534432132,4.163005368602243 L-19.526629069408013,4.025767244985995 L-19.507345209600253,3.886305340225425 L-19.482631411516188,3.7449556302645197 L-19.452547212860082,3.6020586389353504 L-19.417165089101566,3.4579586176063244 L-19.376570278875874,3.3130027158504953 L-19.33086057863653,3.167540145131831 L-19.280146107055103,3.021921337524208 L-19.2245490397357,2.876497101489856 L-19.16420331488322,2.731617776751039 L-19.099254310634493,2.587632390290983 L-19.029858494829618,2.444887815517302 L-18.95618304806722,2.303727936613572 L-18.87840546095176,2.1644928200922178 L-18.796713106503113,2.0275178955444955 L-18.711302788758545,1.893133147561227 L-18.622380268654567,1.7616623207710183 L-18.5301597683308,1.6334221399110904 L-18.434863455050092,1.5087215468096482 L-18.3367209059781,1.3878609561179558 L-18.235968555111814,1.2711315315851257 L-18.132849123689333,1.1588144846191484 L-18.02761103545315,1.0511803968239763 L-17.920507818175594,0.9484885681447404 L-17.811797492888218,0.850986392191472 L-17.701741952286543,0.7589087602462228 L-17.590606329807606,0.6724774953893982 L-17.478658360900287,0.5919008181085212 L-17.366167738027166,0.5173728446768462 L-17.25340546095176,0.44907311951025 L-17.140643183876357,0.3871661826290076 L-17.02815256100324,0.33180117326647274 L-16.916204592095916,0.28311147057960273 L-16.80506896961698,0.24121437232688425 L-16.695013429015304,0.20621081228776061 L-16.586303103727932,0.17818511710431562 L-16.479199886450374,0.1572048031310076 L-16.373961798214193,0.14332041378185512 L-16.27084236679171,0.136565397766931 L-16.170090015925425,0.13695602851148436 L-16.07194746685343,0.14449136495183534 L-15.976651153572721,0.15915325380248246 L-15.884430653248955,0.1809063732889551 L-15.795508133144978,0.20969831824106144 L-15.71009781540041,0.24545972634153568 L-15.628405460951768,0.28810444522592915 " />
			<path d="M-15.628405460951761,0.2881044452259336 L-15.550627873836302,0.3375297400312274 L-15.476952427073906,0.39361654089308606 L-15.40755661126903,0.4562297297956106 L-15.342607607020303,0.5252184660824657 L-15.282261882167823,0.6004165498452378 L-15.226664814848421,0.681642822313568 L-15.175950343266996,0.7687016022824986 L-15.13024064302765,0.861383157525637 L-15.089645832801956,0.9594642100584565 L-15.054263709043438,1.0627084740345185 L-15.024179510387334,1.1708672249787766 L-14.999465712303271,1.2836798989866178 L-14.980181852495509,1.4008747204451342 L-14.96637438747139,1.5221693567643793 L-14.958076580623548,1.647271598541304 L-14.95530842209548,1.7758800635177923 " />
			<path d="M-15.556349186104047,2.1228911104120876 L-15.557499137590321,2.195682167256397 L-15.560947433599448,2.269702425017122 L-15.566689400894385,2.3448515691593976 L-15.574717257784068,2.4210277552467367 L-15.585020124669395,2.498127746963752 L-15.597584038787595,2.5760470560251907 L-15.612391973134995,2.654680083781684 L-15.629423859542538,2.733920264330289 L-15.648656615872783,2.81366020893588 L-15.670064177301537,2.89379185156768 L-15.719284758661471,3.054795459754427 L-15.776818873027356,3.216058596387994 L-15.842354738048531,3.376707362558705 L-15.91553720919425,3.5358711886836467 L-15.995969704312653,3.69268755219868 L-16.08321635274381,3.846306651642937 L-16.176804357340597,3.9958960118065656 L-16.276226556597393,4.140644994986026 L-16.380944173002227,4.27976919390004 L-16.49038973271879,4.412514682460603 L-16.603970140776326,4.538162101363793 L-16.72106989510267,4.6560305563601485 L-16.780741874412218,4.7118463233721 L-16.8410544219833,4.765481308079615 L-16.901925800392412,4.816862822698209 L-16.963273514871275,4.865921233415524 L-17.025014425106292,4.912590054761214 L-17.08706485791285,4.956806039710102 L-17.149340720631816,4.998509265396504 L-17.21175761509448,5.03764321432354 L-17.274230952001577,5.074154850957386 L-17.336676065561292,5.107994693602667 L-17.399008328230963,5.139116881461572 L-17.461143265406935,5.167479236785827 L-17.522996669907148,5.193043322037276 L-17.584484716091293,5.215774491979618 L-17.645524073463918,5.235641940630695 L-17.70603201960647,5.252618743011716 L-17.765926552285297,5.2666818916368126 L-17.825126500583554,5.277812327693496 L-17.88355163490657,5.285994966871746 L-17.941122775711463,5.29121871980673 L-17.99776190081367,5.293476507107459 L-18.053392251125057,5.2927652689509905 L-18.107938434680165,5.2890859692291965 L-18.161326528809752,5.2824435942424675 L-18.21348418032305,5.2728471459421264 L-18.264340703563064,5.2603096297307035 L-18.31382717620193,5.244848036836617 L-18.361876532646587,5.226483321287134 L-18.40842365492815,5.205240371510827 L-18.45340546095175,5.181147976608019 " />
			<path d="M-18.45340546095176,5.181147976608012 L-18.51084121759087,5.14464929736718 L-18.56524770135387,5.103231352115346 L-18.61649384225593,5.056993920310404 L-18.66445618385499,5.006048391975496 L-18.70901918066913,4.9505174993506795 L-18.750075476535766,4.89053502122022 L-18.78752616324205,4.826245460627779 L-18.82128101880341,4.757803696755923 L-18.851258724816233,4.685374611808611 L-18.877387062360985,4.609132693795519 L-18.899603085983955,4.529261616175144 L-18.917853275338338,4.445953795369353 L-18.932093664119456,4.359409927215371 L-18.94228994598342,4.269838503471929 L-18.948417557194134,4.177455309544355 L-18.950461735799475,4.08248290463863 L-18.948417557194134,3.9851500855967763 L-18.94228994598342,3.8856913357052116 L-18.932093664119456,3.784346259803983 L-18.917853275338338,3.6813590070577153 L-18.899603085983955,3.5769776827788933 L-18.877387062360985,3.4714537507204297 L-18.851258724816233,3.3650414272774567 L-18.821281018803415,3.2579970690577675 L-18.78752616324205,3.150578555296292 L-18.750075476535766,3.0430446666014324 L-18.70901918066913,2.9356544615299107 L-18.66445618385499,2.828666652492015 L-18.616493842255935,2.722338982490743 L-18.56524770135387,2.6169276041963325 L-18.51084121759087,2.5126864628520393 L-18.45340546095176,2.4098666844978087 L-18.393078799205067,2.3087159709856446 L-18.330006564562925,2.209478003244154 L-18.264340703563064,2.112391854229846 L-18.196239411016283,2.0176914129794374 L-18.1258667489013,1.9256048211506802 L-18.053392251125057,1.8363539234091228 L-17.978990515100723,1.750153732984879 L-17.902840781127196,1.6672119136869268 L-17.825126500583554,1.5877282796227994 L-17.74603489397859,1.5118943138289027 L-17.66575649992022,1.4398927069711038 L-17.584484716091293,1.3718969172269202 L-17.502415333337616,1.3080707524095727 L-17.419746063990672,1.2485679753406174 L-17.33667606556129,1.1935319334218417 L-17.25340546095176,1.143095213298817 L-17.170134856342234,1.0973793214480532 L-17.08706485791285,1.0564943914572584 L-17.004395588565906,1.0205389187038776 L-16.92232620581223,0.9895995230711008 L-16.8410544219833,0.963750740272979 L-16.760776027924933,0.943054842291358 L-16.681684421319968,0.9275616873572226 L-16.603970140776326,0.9173085998378485 L-16.5278204068028,0.9123202803191357 L-16.453418670778465,0.9126087460997288 L-16.380944173002227,0.9181733022402954 L-16.31057151088724,0.9290005432376964 L-16.242470218340458,0.9450643853200145 L-16.176804357340597,0.966326129284647 L-16.113732122698455,0.9927345537280736 L-16.053405460951765,1.0242260384427033 " />
			<path d="M-16.053405460951762,1.0242260384427064 L-15.995969704312653,1.0607247176835384 L-15.941563220549652,1.1021426629353726 L-15.89031707964759,1.1483800947403142 L-15.842354738048531,1.1993256230752227 L-15.797791741234391,1.254856515700039 L-15.756735445367756,1.314838993830498 L-15.719284758661473,1.3791285544229392 L-15.68552990310011,1.4475703182947954 L-15.65555219708729,1.519999403242108 L-15.629423859542538,1.5962413212552 L-15.607207835919569,1.676112398875575 L-15.588957646565184,1.7594202196813655 L-15.574717257784068,1.845964087835347 L-15.564520975920102,1.9355355115787898 L-15.558393364709389,2.0279187055063645 L-15.556349186104047,2.122891110412079 " />
			<path d="M-9.298454172603101,-1.4901062601931006 L-9.3000113985741,-1.3915350373830981 L-9.304680966086456,-1.29129927166545 L-9.31245654679835,-1.1895348056394517 L-9.32332760300313,-1.08637955364618 L-9.337279401910344,-0.9819733148627219 L-9.354293035612073,-0.8764575838420239 L-9.374345446707512,-0.7699753587551055 L-9.397409459551058,-0.6626709475955365 L-9.4234538170816,-0.5546897726087985 L-9.452443223183035,-0.4461781732115695 L-9.484338390518671,-0.3372832076680391 L-9.519096093774614,-0.2281524537920161 L-9.55666922824007,-0.11893380894492112 L-9.597006873645082,-0.009775289600727377 L-9.640054363169256,0.09917516925052128 L-9.685753357527924,0.20776991458877692 L-9.734041924035338,0.31586177546790856 L-9.784854620537752,0.4233042624663024 L-9.838122584102651,0.5299517662138485 L-9.893773624343922,0.6356597547262428 L-9.951732321256477,0.7402849692791814 L-10.011920127427782,0.8436856185570081 L-10.074255474487728,0.9457215708126716 L-10.138653883652598,1.046254543778588 L-10.205028080213317,1.1451482920710383 L-10.27328811181284,1.2422687918341075 L-10.343341470352343,1.3374844223729396 L-10.415093217361052,1.4306661445301683 L-10.4884461126598,1.5216876755637576 L-10.563300746143895,1.610425660289265 L-10.639555672506777,1.696759838254595 L-10.717107548721811,1.7805732067206665 L-10.795851274095943,1.8617521792271274 L-10.875680132705405,1.9401867395282317 L-10.956485938020418,2.015770590690249 L-11.038159179522923,2.0884012991483423 L-11.120589171118596,2.157980433527689 L-11.203664201142058,2.22441369804072 L-11.287271683751976,2.2876110602796746 L-11.371298311510857,2.347486873231294 L-11.455630208942788,2.4039599913482967 L-11.54015308686098,2.456953880520325 L-11.624752397256007,2.506396721795325 L-11.709313488534786,2.5522215087108076 L-11.793721760899967,2.594366138103075 L-11.877862821659098,2.6327734942713383 L-11.961622640253134,2.6673915263826755 L-12.044887702794163,2.6981733190129296 L-12.127545165902925,2.7250771557279303 L-12.209483009637637,2.7480665756188962 L-12.290590189306878,2.767110422715382 L-12.370756785960767,2.782182888208807 L-12.449874155356522,2.793263545429353 L-12.527835075196476,2.800337377528811 L-12.604533890439052,2.803394797831882 L-12.679866656485718,2.80243166282833 L-12.753731280049928,2.797449277788401 L-12.826027657517075,2.788454394993872 L-12.896657810608003,2.7754592045871607 L-12.965526019162187,2.758481318050859 L-13.032538950860651,2.7375437443401163 L-13.097605787712792,2.7126748587001908 L-13.16063834913574,2.6839083642114425 L-13.221551211459367,2.651283246113889 " />
			<path d="M-13.221551211459381,2.6512832461138807 L-13.299328798574841,2.601857951308587 L-13.373004245337237,2.545771150446728 L-13.442400061142113,2.4831579615442045 L-13.507349065390839,2.4141692252573486 L-13.56769479024332,2.3389711414945764 L-13.623291857562721,2.257744869026246 L-13.674006329144149,2.170686089057315 L-13.719716029383493,2.078004533814177 L-13.760310839609184,1.9799234812813578 L-13.795692963367705,1.8766792173052957 L-13.825777162023808,1.7685204663610374 L-13.850490960107871,1.655707792353196 L-13.869774819915634,1.5385129708946788 L-13.883582284939752,1.4172183345754346 L-13.891880091787595,1.2921160927985103 L-13.894648250315662,1.1635076278220102 L-13.891880091787595,1.0317027687028322 L-13.883582284939752,0.8970190448913384 L-13.869774819915634,0.7597809212750909 L-13.850490960107871,0.6203190165145201 L-13.825777162023808,0.47896930655361536 L-13.795692963367705,0.3360723152244459 L-13.760310839609186,0.1919722938954197 L-13.719716029383495,0.047016392139590635 L-13.674006329144149,-0.0984461785790739 L-13.623291857562723,-0.24406498618669648 L-13.56769479024332,-0.3894892222210484 L-13.507349065390839,-0.5343685469598655 L-13.442400061142113,-0.6783539334199216 L-13.373004245337238,-0.8210985081936026 L-13.299328798574841,-0.9622583870973329 L-13.221551211459381,-1.1014935036186868 L-13.139858857010733,-1.2384684281664091 L-13.054448539266165,-1.3728531761496776 L-12.965526019162189,-1.5043240029398863 L-12.873305518838423,-1.6325641837998142 L-12.778009205557712,-1.7572647769012564 L-12.67986665648572,-1.8781253675929488 L-12.579114305619433,-1.9948547921257789 L-12.475994874196951,-2.107171839091756 L-12.370756785960769,-2.2148059268869282 L-12.263653568683212,-2.317497755566164 L-12.154943243395838,-2.4149999315194326 L-12.044887702794165,-2.507077563464682 L-11.933752080315227,-2.5935088283215064 L-11.821804111407905,-2.6740855056023833 L-11.709313488534786,-2.7486134790340584 L-11.596551211459381,-2.8169132042006546 L-11.483788934383979,-2.878820141081897 L-11.371298311510857,-2.934185150444432 L-11.259350342603538,-2.982874853131302 L-11.1482147201246,-3.0247719513840203 L-11.038159179522925,-3.059775511423144 L-10.929448854235552,-3.087801206606589 L-10.822345636957996,-3.108781520579897 L-10.717107548721811,-3.1226659099290495 L-10.61398811729933,-3.1294209259439736 L-10.513235766433043,-3.12903029519942 L-10.415093217361052,-3.1214949587590692 L-10.319796904080341,-3.106833069908422 L-10.227576403756576,-3.0850799504219495 L-10.138653883652598,-3.056288005469843 L-10.05324356590803,-3.020526597369369 L-9.971551211459388,-2.9778818784849754 " />
			<path d="M-9.971551211459381,-2.977881878484971 L-9.893773624343922,-2.928456583679677 L-9.820098177581526,-2.8723697828178185 L-9.75070236177665,-2.809756593915294 L-9.685753357527924,-2.740767857628439 L-9.625407632675444,-2.6655697738656667 L-9.569810565356041,-2.5843435013973366 L-9.519096093774616,-2.497284721428406 L-9.47338639353527,-2.4046031661852676 L-9.432791583309577,-2.306522113652448 L-9.397409459551058,-2.203277849676386 L-9.367325260894955,-2.0951190987321278 L-9.342611462810892,-1.9823064247242868 L-9.32332760300313,-1.8651116032657704 L-9.30952013797901,-1.7438169669465253 L-9.301222331131168,-1.6187147251696006 L-9.298454172603101,-1.4901062601931123 " />
			<path d="M-9.899494936611667,-1.143095213298817 L-9.900644888097942,-1.0703041564545075 L-9.904093184107069,-0.9962838986937824 L-9.909835151402005,-0.9211347545515068 L-9.917863008291688,-0.8449585684641678 L-9.928165875177015,-0.7678585767471526 L-9.940729789295215,-0.6899392676857139 L-9.955537723642616,-0.6113062399292205 L-9.972569610050158,-0.5320660593806155 L-9.991802366380403,-0.4523261147750244 L-10.013209927809157,-0.37219447214322454 L-10.062430509169092,-0.21119086395647757 L-10.119964623534976,-0.04992772732291051 L-10.185500488556151,0.11072103884780038 L-10.25868295970187,0.2698848649727423 L-10.339115454820273,0.42670122848777525 L-10.426362103251432,0.5803203279320326 L-10.519950107848219,0.7299096880956608 L-10.619372307105014,0.8746586712751214 L-10.724089923509846,1.0137828701891354 L-10.833535483226408,1.1465283587496993 L-10.947115891283945,1.2721757776528881 L-11.064215645610291,1.390044232649244 L-11.12388762491984,1.4458599996611952 L-11.18420017249092,1.4994949843687102 L-11.24507155090003,1.5508764989873045 L-11.306419265378896,1.5999349097046196 L-11.368160175613912,1.6466037310503094 L-11.430210608420472,1.6908197159991976 L-11.492486471139435,1.7325229416855996 L-11.554903365602101,1.771656890612636 L-11.617376702509196,1.8081685272464818 L-11.67982181606891,1.8420083698917615 L-11.742154078738583,1.8731305577506667 L-11.804289015914557,1.901492913074922 L-11.866142420414768,1.9270569983263717 L-11.927630466598913,1.949788168268713 L-11.988669823971536,1.9696556169197907 L-12.049177770114094,1.9866324193008116 L-12.109072302792917,2.0006955679259084 L-12.168272251091174,2.011826003982592 L-12.226697385414193,2.0200086431608413 L-12.284268526219082,2.025232396095826 L-12.340907651321292,2.0274901833965546 L-12.396538001632676,2.0267789452400855 L-12.451084185187785,2.0230996455182915 L-12.50447227931737,2.0164572705315633 L-12.55662993083067,2.006860822231222 L-12.607486454070685,1.994323306019799 L-12.65697292670955,1.9788617131257125 L-12.705022283154209,1.9604969975762292 L-12.751569405435768,1.9392540477999227 L-12.79655121145937,1.915161652897114 " />
			<path d="M-12.79655121145938,1.9151616528971078 L-12.85398696809849,1.8786629736562754 L-12.90839345186149,1.8372450284044417 L-12.959639592763553,1.7910075965995 L-13.007601934362611,1.7400620682645918 L-13.052164931176751,1.6845311756397752 L-13.093221227043387,1.6245486975093155 L-13.13067191374967,1.5602591369168743 L-13.164426769311033,1.4918173730450188 L-13.194404475323852,1.4193882880977065 L-13.220532812868605,1.3431463700846142 L-13.242748836491574,1.2632752924642392 L-13.260999025845958,1.179967471658448 L-13.275239414627075,1.0934236035044664 L-13.28543569649104,1.003852179761024 L-13.291563307701754,0.9114689858334497 L-13.293607486307096,0.8164965809277261 L-13.291563307701754,0.7191637618858718 L-13.28543569649104,0.619705011994307 L-13.275239414627075,0.5183599360930783 L-13.260999025845958,0.41537268334681077 L-13.242748836491574,0.3109913590679888 L-13.220532812868605,0.20546742700952503 L-13.194404475323852,0.0990551035665519 L-13.164426769311033,-0.007989254653137157 L-13.130671913749671,-0.11540776841461253 L-13.093221227043387,-0.22294165710947234 L-13.052164931176751,-0.33033186218099375 L-13.007601934362611,-0.4373196712188895 L-12.959639592763553,-0.5436473412201616 L-12.90839345186149,-0.6490587195145723 L-12.85398696809849,-0.7532998608588654 L-12.79655121145938,-0.856119639213096 L-12.736224549712688,-0.9572703527252601 L-12.673152315070546,-1.0565083204667505 L-12.607486454070685,-1.1535944694810585 L-12.539385161523905,-1.248294910731467 L-12.469012499408917,-1.3403815025602244 L-12.396538001632678,-1.4296324003017817 L-12.322136265608343,-1.5158325907260255 L-12.245986531634818,-1.5987744100239778 L-12.168272251091174,-1.6782580440881052 L-12.08918064448621,-1.7540920098820019 L-12.008902250427843,-1.8260936167398008 L-11.927630466598915,-1.8940894064839844 L-11.845561083845237,-1.9579155713013319 L-11.762891814498293,-2.0174183483702874 L-11.67982181606891,-2.072454390289063 L-11.596551211459381,-2.1228911104120876 L-11.513280606849854,-2.1686070022628514 L-11.430210608420472,-2.209491932253646 L-11.347541339073528,-2.245447405007027 L-11.26547195631985,-2.276386800639804 L-11.184200172490922,-2.3022355834379256 L-11.103921778432554,-2.3229314814195465 L-11.024830171827588,-2.338424636353682 L-10.947115891283946,-2.348677723873056 L-10.87096615731042,-2.353666043391769 L-10.796564421286085,-2.353377577611176 L-10.724089923509846,-2.347813021470609 L-10.65371726139486,-2.336985780473208 L-10.58561596884808,-2.32092193839089 L-10.519950107848219,-2.2996601944262576 L-10.456877873206077,-2.273251769982831 L-10.396551211459387,-2.2417602852682013 " />
			<path d="M-10.396551211459382,-2.241760285268198 L-10.339115454820273,-2.205261606027366 L-10.284708971057272,-2.163843660775532 L-10.23346283015521,-2.1176062289705904 L-10.185500488556151,-2.0666607006356816 L-10.140937491742012,-2.0111298080108657 L-10.099881195875376,-1.9511473298804065 L-10.062430509169094,-1.8868577692879653 L-10.02867565360773,-1.8184160054161091 L-9.998697947594911,-1.7459869204687966 L-9.972569610050158,-1.6697450024557046 L-9.95035358642719,-1.5898739248353295 L-9.932103397072805,-1.506566104029539 L-9.917863008291688,-1.4200222358755576 L-9.907666726427722,-1.3304508121321148 L-9.901539115217009,-1.23806761820454 L-9.899494936611667,-1.1430952132988255 " />
			<path d="M-3.6415999231107206,-4.756092583904005 L-3.643157149081718,-4.657521361094003 L-3.647826716594075,-4.557285595376355 L-3.6556022973059683,-4.455521129350356 L-3.6664733535107477,-4.352365877357085 L-3.6804251524179623,-4.247959638573627 L-3.697438786119693,-4.142443907552929 L-3.71749119721513,-4.03596168246601 L-3.7405552100586767,-3.928657271306441 L-3.7665995675892177,-3.820676096319703 L-3.795588973690654,-3.7121644969224743 L-3.827484141026289,-3.6032695313789436 L-3.8622418442822335,-3.4941387775029207 L-3.8998149787476883,-3.3849201326558256 L-3.9401526241526996,-3.275761613311632 L-3.983200113676874,-3.166811154460383 L-4.028899108035542,-3.0582164091221276 L-4.077187674542956,-2.950124548242996 L-4.12800037104537,-2.842682061244602 L-4.1812683346102695,-2.736034557497056 L-4.23691937485154,-2.6303265689846618 L-4.294878071764096,-2.5257013544317233 L-4.3550658779354015,-2.4223007051538965 L-4.417401224995348,-2.320264752898233 L-4.481799634160216,-2.2197317799323164 L-4.548173830720937,-2.1208380316398663 L-4.616433862320459,-2.0237175318767973 L-4.686487220859961,-1.928501901337965 L-4.758238967868671,-1.8353201791807363 L-4.831591863167418,-1.744298648147147 L-4.906446496651514,-1.6555606634216395 L-4.9827014230143964,-1.5692264854563096 L-5.06025329922943,-1.485413116990238 L-5.138997024603563,-1.4042341444837771 L-5.2188258832130225,-1.3257995841826729 L-5.299631688528037,-1.2502157330206556 L-5.381304930030542,-1.1775850245625623 L-5.463734921626213,-1.1080058901832155 L-5.546809951649675,-1.0415726256701845 L-5.630417434259594,-0.9783752634312299 L-5.714444062018476,-0.9184994504796107 L-5.798775959450406,-0.8620263323626078 L-5.883298837368599,-0.8090324431905795 L-5.967898147763624,-0.7595896019155797 L-6.052459239042404,-0.713764815000097 L-6.136867511407585,-0.6716201856078294 L-6.221008572166717,-0.6332128294395662 L-6.304768390760752,-0.5985947973282291 L-6.388033453301782,-0.567813004697975 L-6.470690916410544,-0.5409091679829743 L-6.5526287601452555,-0.5179197480920084 L-6.633735939814495,-0.4988759009955226 L-6.713902536468385,-0.4838034355020975 L-6.79301990586414,-0.47272277828155174 L-6.870980825704095,-0.4656489461820934 L-6.947679640946671,-0.46259152587902275 L-7.023012406993337,-0.4635546608825747 L-7.096877030557547,-0.46853704592250356 L-7.169173408024694,-0.47753192871703254 L-7.239803561115622,-0.4905271191237439 L-7.3086717696698065,-0.5075050056600454 L-7.375684701368269,-0.5284425793707883 L-7.440751538220412,-0.5533114650107138 L-7.503784099643358,-0.5820779594994621 L-7.564696961966985,-0.6147030775970155 " />
			<path d="M-7.564696961967,-0.6147030775970239 L-7.6424745490824595,-0.6641283724023177 L-7.716149995844856,-0.7202151732641764 L-7.785545811649731,-0.7828283621667 L-7.8504948158984575,-0.851817098453556 L-7.910840540750938,-0.9270151822163282 L-7.96643760807034,-1.0082414546846588 L-8.017152079651765,-1.0953002346535894 L-8.062861779891112,-1.1879817898967278 L-8.103456590116803,-1.2860628424295468 L-8.138838713875323,-1.3893071064056088 L-8.168922912531427,-1.4974658573498671 L-8.19363671061549,-1.6102785313577086 L-8.212920570423252,-1.7274733528162258 L-8.226728035447373,-1.84876798913547 L-8.235025842295213,-1.9738702309123943 L-8.237794000823278,-2.1024786958888946 L-8.235025842295213,-2.2342835550080724 L-8.226728035447373,-2.368967278819566 L-8.212920570423252,-2.5062054024358136 L-8.19363671061549,-2.6456673071963843 L-8.168922912531428,-2.7870170171572894 L-8.138838713875323,-2.9299140084864588 L-8.103456590116803,-3.0740140298154848 L-8.062861779891112,-3.218969931571314 L-8.017152079651767,-3.3644325022899784 L-7.966437608070341,-3.510051309897601 L-7.910840540750938,-3.655475545931953 L-7.8504948158984575,-3.80035487067077 L-7.785545811649732,-3.9443402571308264 L-7.716149995844856,-4.087084831904507 L-7.6424745490824595,-4.228244710808237 L-7.564696961967,-4.367479827329591 L-7.483004607518351,-4.504454751877313 L-7.397594289773784,-4.638839499860582 L-7.3086717696698065,-4.770310326650791 L-7.216451269346042,-4.898550507510719 L-7.121154956065331,-5.0232511006121605 L-7.023012406993338,-5.144111691303854 L-6.922260056127052,-5.2608411158366835 L-6.819140624704571,-5.37315816280266 L-6.713902536468387,-5.480792250597833 L-6.606799319190831,-5.583484079277069 L-6.498088993903457,-5.680986255230337 L-6.388033453301784,-5.773063887175587 L-6.276897830822845,-5.859495152032411 L-6.164949861915525,-5.940071829313288 L-6.0524592390424035,-6.0145998027449625 L-5.939696961967,-6.082899527911559 L-5.826934684891597,-6.144806464792802 L-5.714444062018477,-6.200171474155336 L-5.602496093111156,-6.248861176842206 L-5.491360470632218,-6.290758275094925 L-5.381304930030543,-6.325761835134049 L-5.27259460474317,-6.3537875303174935 L-5.1654913874656145,-6.374767844290801 L-5.06025329922943,-6.388652233639954 L-4.957133867806949,-6.395407249654879 L-4.856381516940663,-6.395016618910325 L-4.75823896786867,-6.387481282469974 L-4.66294265458796,-6.372819393619327 L-4.570722154264195,-6.3510662741328545 L-4.481799634160216,-6.322274329180748 L-4.396389316415649,-6.2865129210802735 L-4.314696961967007,-6.2438682021958805 " />
			<path d="M-4.314696961967,-6.243868202195875 L-4.236919374851541,-6.194442907390582 L-4.163243928089145,-6.1383561065287235 L-4.093848112284268,-6.075742917626199 L-4.028899108035542,-6.0067541813393435 L-3.968553383183062,-5.931556097576571 L-3.9129563158636596,-5.850329825108242 L-3.862241844282234,-5.7632710451393105 L-3.8165321440428883,-5.670589489896172 L-3.775937333817196,-5.572508437363353 L-3.7405552100586767,-5.469264173387291 L-3.7104710114025727,-5.361105422443033 L-3.6857572133185106,-5.248292748435191 L-3.6664733535107477,-5.131097926976675 L-3.6526658884866285,-5.00980329065743 L-3.6443680816387864,-4.884701048880505 L-3.6415999231107206,-4.756092583904017 " />
			<path d="M-4.242640687119286,-4.409081537009722 L-4.243790638605561,-4.336290480165412 L-4.247238934614686,-4.262270222404687 L-4.2529809019096225,-4.187121078262411 L-4.261008758799306,-4.110944892175072 L-4.271311625684634,-4.033844900458057 L-4.2838755398028345,-3.9559255913966185 L-4.298683474150234,-3.877292563640125 L-4.3157153605577765,-3.79805238309152 L-4.334948116888022,-3.718312438485929 L-4.356355678316775,-3.638180795854129 L-4.405576259676711,-3.4771771876673823 L-4.463110374042594,-3.315914051033815 L-4.52864623906377,-3.155265284863104 L-4.601828710209489,-2.9961014587381625 L-4.682261205327891,-2.839285095223129 L-4.76950785375905,-2.685665995778872 L-4.863095858355837,-2.5360766356152435 L-4.962518057612632,-2.391327652435783 L-5.067235674017464,-2.252203453521769 L-5.176681233734026,-2.1194579649612053 L-5.290261641791563,-1.9938105460580164 L-5.407361396117909,-1.8759420910616607 L-5.467033375427458,-1.8201263240497094 L-5.527345922998538,-1.7664913393421944 L-5.588217301407649,-1.7151098247236 L-5.649565015886514,-1.666051414006285 L-5.711305926121531,-1.6193825926605951 L-5.7733563589280905,-1.575166607711707 L-5.835632221647054,-1.533463382025305 L-5.8980491161097195,-1.4943294330982686 L-5.960522453016815,-1.4578177964644228 L-6.022967566576529,-1.423977953819143 L-6.0852998292462015,-1.3928557659602379 L-6.147434766422175,-1.3644934106359825 L-6.209288170922386,-1.338929325384533 L-6.2707762171065315,-1.3161981554421915 L-6.3318155744791556,-1.2963307067911138 L-6.392323520621712,-1.279353904410093 L-6.452218053300535,-1.2652907557849962 L-6.511418001598792,-1.2541603197283124 L-6.569843135921811,-1.2459776805500633 L-6.627414276726701,-1.2407539276150787 L-6.68405340182891,-1.23849614031435 L-6.739683752140295,-1.239207378470819 L-6.7942299356954035,-1.2428866781926131 L-6.847618029824989,-1.2495290531793413 L-6.89977568133829,-1.2591255014796827 L-6.950632204578303,-1.2716630176911057 L-7.000118677217168,-1.2871246105851921 L-7.0481680336618275,-1.3054893261346754 L-7.094715155943388,-1.3267322759109819 L-7.1396969619669886,-1.3508246708137905 " />
			<path d="M-7.139696961966999,-1.3508246708137968 L-7.197132718606108,-1.3873233500546291 L-7.251539202369109,-1.4287412953064629 L-7.302785343271171,-1.4749787271114045 L-7.35074768487023,-1.5259242554463128 L-7.39531068168437,-1.5814551480711294 L-7.436366977551005,-1.641437626201589 L-7.473817664257289,-1.7057271867940302 L-7.507572519818652,-1.7741689506658858 L-7.53755022583147,-1.8465980356131981 L-7.563678563376223,-1.9228399536262903 L-7.585894586999192,-2.0027110312466654 L-7.604144776353577,-2.0860188520524563 L-7.618385165134693,-2.172562720206438 L-7.628581446998659,-2.2621341439498805 L-7.634709058209372,-2.354517337877455 L-7.636753236814714,-2.4494897427831783 L-7.634709058209372,-2.546822561825033 L-7.628581446998659,-2.6462813117165975 L-7.618385165134694,-2.747626387617826 L-7.604144776353577,-2.850613640364094 L-7.585894586999192,-2.954994964642916 L-7.563678563376223,-3.0605188967013794 L-7.53755022583147,-3.1669312201443525 L-7.507572519818652,-3.2739755783640416 L-7.4738176642572896,-3.3813940921255172 L-7.436366977551006,-3.488927980820377 L-7.39531068168437,-3.5963181858918984 L-7.350747684870231,-3.703305994929794 L-7.302785343271172,-3.809633664931066 L-7.251539202369109,-3.9150450432254766 L-7.197132718606109,-4.01928618456977 L-7.139696961967,-4.122105962924 L-7.0793703002203054,-4.223256676436165 L-7.016298065578164,-4.322494644177655 L-6.950632204578303,-4.4195807931919635 L-6.882530912031523,-4.514281234442372 L-6.8121582499165365,-4.6063678262711285 L-6.739683752140296,-4.695618724012686 L-6.665282016115961,-4.78181891443693 L-6.589132282142437,-4.864760733734882 L-6.511418001598794,-4.94424436779901 L-6.432326394993829,-5.020078333592906 L-6.3520480009354605,-5.092079940450706 L-6.270776217106532,-5.1600757301948885 L-6.188706834352855,-5.2239018950122365 L-6.10603756500591,-5.283404672081192 L-6.022967566576529,-5.338440713999967 L-5.939696961967,-5.388877434122993 L-5.8564263573574715,-5.434593325973756 L-5.7733563589280905,-5.475478255964551 L-5.690687089581146,-5.511433728717932 L-5.608617706827468,-5.542373124350709 L-5.52734592299854,-5.56822190714883 L-5.447067528940172,-5.5889178051304516 L-5.367975922335208,-5.604410960064587 L-5.290261641791564,-5.614664047583961 L-5.214111907818039,-5.619652367102674 L-5.139710171793705,-5.61936390132208 L-5.067235674017464,-5.613799345181514 L-4.996863011902478,-5.602972104184113 L-4.928761719355698,-5.586908262101795 L-4.8630958583558375,-5.565646518137163 L-4.800023623713695,-5.5392380936937355 L-4.739696961967006,-5.507746608979106 " />
			<path d="M-4.739696961967001,-5.507746608979103 L-4.682261205327892,-5.47124792973827 L-4.627854721564891,-5.429829984486437 L-4.576608580662828,-5.383592552681495 L-4.52864623906377,-5.332647024346587 L-4.484083242249631,-5.27711613172177 L-4.443026946382995,-5.217133653591311 L-4.405576259676711,-5.15284409299887 L-4.371821404115348,-5.0844023291270135 L-4.3418436981025295,-5.011973244179702 L-4.3157153605577765,-4.935731326166609 L-4.293499336934808,-4.855860248546234 L-4.275249147580423,-4.772552427740443 L-4.261008758799306,-4.686008559586462 L-4.250812476935341,-4.596437135843019 L-4.244684865724627,-4.504053941915444 L-4.242640687119286,-4.40908153700973 " />
			<path d="M2.01525432638166,-8.02207890761491 L2.0136971004106625,-7.923507684804907 L2.0090275328983056,-7.823271919087259 L2.0012519521864123,-7.72150745306126 L1.990380895981633,-7.618352201067989 L1.9764290970744183,-7.513945962284531 L1.9594154633726877,-7.408430231263832 L1.9393630522772507,-7.301948006176914 L1.9162990394337038,-7.194643595017345 L1.890254681903163,-7.086662420030607 L1.8612652758017267,-6.978150820633378 L1.8293701084660916,-6.869255855089848 L1.794612405210147,-6.760125101213825 L1.7570392707446922,-6.65090645636673 L1.7167016253396807,-6.541747937022536 L1.6736541358155066,-6.432797478171287 L1.627955141456838,-6.324202732833032 L1.5796665749494245,-6.2161108719539 L1.5288538784470107,-6.108668384955506 L1.4755859148821107,-6.00202088120796 L1.4199348746408404,-5.8963128926955655 L1.3619761777282853,-5.791687678142627 L1.3017883715569794,-5.688287028864801 L1.239453024497033,-5.5862510766091376 L1.1750546153321642,-5.4857181036432205 L1.1086804187714439,-5.38682435535077 L1.0404203871719209,-5.289703855587701 L0.97036702863242,-5.194488225048869 L0.8986152816237096,-5.1013065028916404 L0.8252623863249622,-5.010284971858051 L0.7504077528408661,-4.921546987132544 L0.6741528264779845,-4.8352128091672135 L0.5966009502629507,-4.751399440701142 L0.5178572248888182,-4.670220468194682 L0.4380283662793577,-4.591785907893577 L0.3572225609643437,-4.51620205673156 L0.27554931946183847,-4.4435713482734664 L0.19311932786616715,-4.37399221389412 L0.11004429784270509,-4.307558949381089 L0.026436815232786293,-4.244361587142134 L-0.05758981252609563,-4.184485774190515 L-0.14192170995802567,-4.128012656073512 L-0.22644458787621846,-4.075018766901484 L-0.311043898271244,-4.025575925626484 L-0.395604989550024,-3.979751138711001 L-0.4800132619152051,-3.9376065093187336 L-0.5641543226743364,-3.8991991531504704 L-0.6479141412683717,-3.864581121039133 L-0.7311792038094013,-3.833799328408879 L-0.8138366669181635,-3.8068954916938784 L-0.8957745106528754,-3.7839060718029125 L-0.976881690322115,-3.7648622247064267 L-1.057048286976005,-3.7497897592130016 L-1.1361656563717593,-3.738709101992456 L-1.2141265762117144,-3.7316352698929975 L-1.2908253914542898,-3.728577849589927 L-1.3661581575009567,-3.729540984593479 L-1.4400227810651662,-3.7345233696334077 L-1.5123191585323137,-3.7435182524279367 L-1.5829493116232416,-3.756513442834648 L-1.651817520177426,-3.7734913293709496 L-1.7188304518758886,-3.7944289030816925 L-1.783897288728031,-3.819297788721618 L-1.8469298501509779,-3.848064283210366 L-1.9078427124746042,-3.8806894013079196 " />
			<path d="M-1.9078427124746191,-3.880689401307928 L-1.9856202995900785,-3.930114696113222 L-2.0592957463524755,-3.9862014969750805 L-2.1286915621573512,-4.048814685877604 L-2.193640566406077,-4.11780342216446 L-2.253986291258557,-4.193001505927232 L-2.3095833585779597,-4.274227778395563 L-2.3602978301593858,-4.361286558364494 L-2.406007530398731,-4.4539681136076315 L-2.446602340624423,-4.552049166140451 L-2.4819844643829425,-4.655293430116513 L-2.5120686630390465,-4.763452181060771 L-2.5367824611231087,-4.876264855068612 L-2.5560663209308716,-4.99345967652713 L-2.569873785954991,-5.114754312846374 L-2.578171592802833,-5.239856554623298 L-2.5809397513308987,-5.368465019599799 L-2.578171592802833,-5.500269878718976 L-2.569873785954991,-5.63495360253047 L-2.556066320930872,-5.772191726146718 L-2.536782461123109,-5.9116536309072885 L-2.512068663039047,-6.053003340868194 L-2.4819844643829425,-6.195900332197363 L-2.4466023406244233,-6.340000353526389 L-2.406007530398732,-6.484956255282218 L-2.360297830159386,-6.6304188260008825 L-2.30958335857796,-6.776037633608505 L-2.2539862912585575,-6.921461869642857 L-2.1936405664060774,-7.066341194381674 L-2.1286915621573517,-7.2103265808417305 L-2.0592957463524755,-7.353071155615411 L-1.9856202995900794,-7.494231034519141 L-1.9078427124746196,-7.633466151040496 L-1.8261503580259706,-7.770441075588218 L-1.7407400402814035,-7.904825823571486 L-1.6518175201774261,-8.036296650361695 L-1.5595970198536608,-8.164536831221623 L-1.4643007065729499,-8.289237424323066 L-1.366158157500958,-8.410098015014757 L-1.2654058066346714,-8.526827439547588 L-1.1622863752121901,-8.639144486513565 L-1.0570482869760065,-8.746778574308737 L-0.9499450696984504,-8.849470402987972 L-0.8412347444110768,-8.946972578941242 L-0.731179203809403,-9.03905021088649 L-0.6200435813304644,-9.125481475743316 L-0.5080956124231439,-9.206058153024191 L-0.3956049895500231,-9.280586126455868 L-0.2828427124746198,-9.348885851622462 L-0.1700804353992167,-9.410792788503706 L-0.057589812526096074,-9.466157797866241 L0.054358156381224654,-9.51484750055311 L0.1654937788601628,-9.556744598805828 L0.27554931946183703,-9.591748158844952 L0.3842596447492106,-9.619773854028399 L0.4913628620267665,-9.640754168001706 L0.5966009502629502,-9.654638557350857 L0.6997203816854318,-9.661393573365782 L0.8004727325517182,-9.661002942621229 L0.8986152816237103,-9.653467606180879 L0.9939115949044208,-9.63880571733023 L1.0861320952281857,-9.617052597843758 L1.175054615332164,-9.588260652891652 L1.2604649330767312,-9.552499244791179 L1.342157287525373,-9.509854525906784 " />
			<path d="M1.3421572875253802,-9.50985452590678 L1.4199348746408393,-9.460429231101486 L1.4936103214032364,-9.404342430239627 L1.5630061372081128,-9.341729241337102 L1.6279551414568385,-9.272740505050248 L1.6883008663093182,-9.197542421287476 L1.743897933628721,-9.116316148819145 L1.7946124052101466,-9.029257368850214 L1.8403221054494923,-8.936575813607076 L1.8809169156751846,-8.838494761074257 L1.9162990394337038,-8.735250497098194 L1.9463832380898078,-8.627091746153937 L1.97109703617387,-8.514279072146095 L1.990380895981633,-8.397084250687579 L2.004188361005752,-8.275789614368334 L2.012486167853594,-8.15068737259141 L2.01525432638166,-8.02207890761492 " />
			<path d="M1.414213562373095,-7.675067860720626 L1.4130636108868198,-7.602276803876316 L1.4096153148776942,-7.528256546115591 L1.4038733475827578,-7.453107401973315 L1.3958454906930746,-7.376931215885977 L1.3855426238077468,-7.299831224168962 L1.372978709689546,-7.221911915107523 L1.3581707753421461,-7.14327888735103 L1.341138888934604,-7.064038706802425 L1.3219061326043584,-6.984298762196833 L1.3004985711756054,-6.904167119565034 L1.2512779898156696,-6.743163511378286 L1.1937438754497869,-6.581900374744719 L1.128208010428611,-6.421251608574009 L1.0550255392828922,-6.262087782449067 L0.9745930441644894,-6.105271418934033 L0.8873463957333305,-5.951652319489776 L0.7937583911365438,-5.802062959326148 L0.6943361918797488,-5.657313976146687 L0.5896185754749161,-5.518189777232673 L0.48017301575835436,-5.38544428867211 L0.36659260770081703,-5.259796869768921 L0.24949285337447136,-5.141928414772565 L0.18982087406492265,-5.086112647760613 L0.12950832649384192,-5.032477663053099 L0.06863694808473098,-4.981096148434505 L0.007289233605866641,-4.932037737717189 L-0.054451676629150514,-4.885368916371499 L-0.11650210943570949,-4.841152931422611 L-0.17877797215467317,-4.799449705736209 L-0.2411948666173388,-4.760315756809173 L-0.30366820352443435,-4.723804120175327 L-0.36611331708414874,-4.689964277530047 L-0.42844557975382125,-4.6588420896711416 L-0.49058051692979476,-4.630479734346887 L-0.5524339214300057,-4.604915649095437 L-0.6139219676141506,-4.582184479153096 L-0.6749613249867749,-4.562317030502018 L-0.7354692711293314,-4.545340228120997 L-0.7953638038081544,-4.531277079495901 L-0.8545637521064117,-4.520146643439217 L-0.9129888864294303,-4.511964004260967 L-0.9705600272343202,-4.506740251325983 L-1.0271991523365296,-4.504482464025254 L-1.0828295026479144,-4.505193702181723 L-1.137375686203023,-4.508873001903517 L-1.190763780332609,-4.515515376890246 L-1.2429214318459092,-4.525111825190587 L-1.2937779550859223,-4.53764934140201 L-1.3432644277247874,-4.553110934296097 L-1.3913137841694465,-4.5714756498455795 L-1.437860906451007,-4.592718599621886 L-1.4828427124746082,-4.616810994524695 " />
			<path d="M-1.482842712474619,-4.616810994524701 L-1.5402784691137277,-4.653309673765533 L-1.5946849528767282,-4.6947276190173675 L-1.6459310937787903,-4.740965050822309 L-1.6938934353778494,-4.791910579157217 L-1.7384564321919886,-4.847441471782034 L-1.7795127280586245,-4.907423949912493 L-1.816963414764908,-4.971713510504935 L-1.850718270326271,-5.04015527437679 L-1.8806959763390898,-5.112584359324102 L-1.9068243138838423,-5.188826277337195 L-1.929040337506812,-5.2686973549575695 L-1.9472905268611962,-5.35200517576336 L-1.9615309156423133,-5.438549043917343 L-1.9717271975062785,-5.528120467660784 L-1.9778548087169923,-5.620503661588359 L-1.9798989873223334,-5.715476066494083 L-1.9778548087169923,-5.8128088855359366 L-1.9717271975062785,-5.912267635427502 L-1.9615309156423135,-6.01361271132873 L-1.9472905268611964,-6.116599964074998 L-1.929040337506812,-6.22098128835382 L-1.9068243138838428,-6.326505220412284 L-1.88069597633909,-6.432917543855257 L-1.8507182703262715,-6.539961902074946 L-1.8169634147649085,-6.647380415836421 L-1.7795127280586251,-6.754914304531281 L-1.738456432191989,-6.862304509602803 L-1.69389343537785,-6.969292318640698 L-1.645931093778791,-7.075619988641971 L-1.5946849528767286,-7.181031366936381 L-1.5402784691137281,-7.285272508280674 L-1.4828427124746195,-7.388092286634905 L-1.4225160507279249,-7.489243000147069 L-1.3594438160857831,-7.588480967888559 L-1.293777955085923,-7.685567116902867 L-1.2256766625391422,-7.780267558153276 L-1.1553040004241557,-7.8723541499820335 L-1.082829502647916,-7.961605047723591 L-1.0084277666235806,-8.047805238147834 L-0.9322780326500562,-8.130747057445786 L-0.854563752106413,-8.210230691509913 L-0.7754721455014485,-8.286064657303811 L-0.6951937514430803,-8.358066264161609 L-0.613921967614152,-8.426062053905794 L-0.5318525848604744,-8.489888218723141 L-0.44918331551352975,-8.549390995792097 L-0.3661133170841484,-8.604427037710872 L-0.2828427124746198,-8.654863757833896 L-0.19957210786509127,-8.70057964968466 L-0.11650210943570982,-8.741464579675455 L-0.033832840088765415,-8.777420052428836 L0.04823654266491206,-8.808359448061612 L0.12950832649384048,-8.834208230859733 L0.2097867205522086,-8.854904128841355 L0.2888783271571732,-8.87039728377549 L0.3665926077008166,-8.880650371294864 L0.44274234167434146,-8.885638690813577 L0.517144077698676,-8.885350225032985 L0.5896185754749163,-8.879785668892417 L0.6599912375899025,-8.868958427895016 L0.7280925301366827,-8.852894585812699 L0.7937583911365436,-8.831632841848066 L0.8568306257786857,-8.80522441740464 L0.9171572875253748,-8.77373293269001 " />
			<path d="M0.9171572875253802,-8.773732932690006 L0.9745930441644886,-8.737234253449175 L1.0289995279274895,-8.69581630819734 L1.0802456688295519,-8.649578876392399 L1.128208010428611,-8.59863334805749 L1.1727710072427497,-8.543102455432674 L1.2138273031093858,-8.483119977302215 L1.2512779898156692,-8.418830416709774 L1.2850328453770323,-8.350388652837918 L1.315010551389851,-8.277959567890605 L1.3411388889346036,-8.201717649877514 L1.363354912557573,-8.121846572257137 L1.3816051019119575,-8.038538751451348 L1.3958454906930746,-7.951994883297367 L1.4060417725570395,-7.8624234595539235 L1.4121693837677536,-7.770040265626349 L1.414213562373095,-7.675067860720634 " />
			<path d="M6.999011537017761,-12.775840849617685 L10.182337649086284,-10.937946661896559 " />
			<path d="M3.7490115370177612,-7.1466757250188335 L6.932337649086284,-5.3087815372977065 " />
			<path d="M-15.628405460951761,0.28810444522593226 L-13.89194360828391,1.290651163301233 " />
			<path d="M-18.87840546095176,5.917269569824784 L-15.695079348883239,7.755163757545911 " />
			<path d="M-9.97155121145938,-2.9778818784849728 L-8.235089358791527,-1.9753351604096712 " />
			<path d="M-13.221551211459381,2.6512832461138807 L-10.038225099390859,4.489177433835008 " />
			<path d="M-4.314696961967,-6.243868202195877 L-2.5782351092991465,-5.241321484120576 " />
			<path d="M-7.564696961967,-0.6147030775970244 L-4.381370849898477,1.2231911101241026 " />
			<path d="M1.3421572875253815,-9.509854525906782 L3.0786191401932346,-8.50730780783148 " />
			<path d="M-1.9078427124746202,-3.8806894013079285 L1.2754833995939028,-2.0427952135868015 " />

       </g>
    </g>
    
</svg>
