<?xml version="1.0" encoding="UTF-8" standalone="no"?>
    <svg
    xmlns:svg="http://www.w3.org/2000/svg"
    xmlns="http://www.w3.org/2000/svg"
    width="1000"
    height="360"
    >
        <g transform="scale(20, -20)   translate(25.0,-9.0)" stroke-width="0.05"  fill="none">
        <!-- hidden lines -->
        <g  stroke="rgb(160,160,160)" fill="none" stroke-dasharray="0.05,0.05" >
    
        </g>

        <!-- solid lines -->
        <g  stroke="rgb(0,0,0)" fill="none">
    			<path d="M-24.0,8.0 L-24.0,-8.0 " />
			<path d="M-24.0,-8.0 L24.0,-8.0 " />
			<path d="M24.0,-8.0 L24.0,8.0 " />
			<path d="M24.0,8.0 L-24.0,8.0 " />
			<path d="M12.3,6.8 L19.7,6.8 " />
			<path d="M19.7,4.3 L19.7,6.8 " />
			<path d="M12.3,4.3 L19.7,4.3 " />
			<path d="M12.3,4.3 L12.3,6.8 " />
			<path d="M12.3,3.7 L19.7,3.7 " />
			<path d="M19.7,-3.7 L19.7,3.7 " />
			<path d="M12.3,-3.7 L19.7,-3.7 " />
			<path d="M12.3,-3.7 L12.3,3.7 " />
			<path d="M12.3,-4.3 L19.7,-4.3 " />
			<path d="M19.7,-6.8 L19.7,-4.3 " />
			<path d="M12.3,-6.8 L19.7,-6.8 " />
			<path d="M12.3,-6.8 L12.3,-4.3 " />
			<path d="M-22.8,-4.3 L-20.3,-4.3 " />
			<path d="M-20.3,-6.8 L-20.3,-4.3 " />
			<path d="M-22.799999999999997,-6.8 L-20.3,-6.8 " />
			<path d="M-22.8,-6.800000000000001 L-22.8,-4.3 " />
			<path d="M-19.7,-4.3 L-12.3,-4.3 " />
			<path d="M-12.3,-6.8 L-12.3,-4.3 " />
			<path d="M-19.7,-6.8 L-12.3,-6.8 " />
			<path d="M-19.7,-6.8 L-19.7,-4.3 " />
			<path d="M-11.7,-4.3 L-4.3,-4.3 " />
			<path d="M-4.3,-6.8 L-4.3,-4.3 " />
			<path d="M-11.7,-6.8 L-4.3,-6.8 " />
			<path d="M-11.7,-6.8 L-11.7,-4.3 " />
			<path d="M-3.7,-4.3 L3.7,-4.3 " />
			<path d="M3.7,-6.8 L3.7,-4.3 " />
			<path d="M-3.7,-6.8 L3.7,-6.8 " />
			<path d="M-3.7,-6.8 L-3.7,-4.3 " />
			<path d="M4.3,-4.3 L11.7,-4.3 " />
			<path d="M11.7,-6.8 L11.7,-4.3 " />
			<path d="M4.3,-6.8 L11.7,-6.8 " />
			<path d="M4.3,-6.8 L4.3,-4.3 " />
			<path d="M-22.8,3.7 L-20.3,3.7 " />
			<path d="M-20.3,-3.7 L-20.3,3.7 " />
			<path d="M-22.8,-3.7 L-20.3,-3.7 " />
			<path d="M-22.8,-3.7 L-22.8,3.7 " />
			<path d="M-19.7,3.7 L-12.3,3.7 " />
			<path d="M-12.3,-3.7 L-12.3,3.7 " />
			<path d="M-19.7,-3.7 L-12.3,-3.7 " />
			<path d="M-19.7,-3.7 L-19.7,3.7 " />
			<path d="M-11.7,3.7 L-4.3,3.7 " />
			<path d="M-4.3,-3.7 L-4.3,3.7 " />
			<path d="M-11.7,-3.7 L-4.3,-3.7 " />
			<path d="M-11.7,-3.7 L-11.7,3.7 " />
			<path d="M-22.799999999999997,6.8 L-20.3,6.8 " />
			<path d="M-20.3,4.3 L-20.3,6.8 " />
			<path d="M-22.8,4.3 L-20.3,4.3 " />
			<path d="M-22.8,4.3 L-22.8,6.800000000000001 " />
			<path d="M-19.7,6.8 L-12.3,6.8 " />
			<path d="M-12.3,4.3 L-12.3,6.8 " />
			<path d="M-19.7,4.3 L-12.3,4.3 " />
			<path d="M-19.7,4.3 L-19.7,6.8 " />
			<path d="M-11.7,6.8 L-4.3,6.8 " />
			<path d="M-4.3,4.3 L-4.3,6.8 " />
			<path d="M-11.7,4.3 L-4.3,4.3 " />
			<path d="M-11.7,4.3 L-11.7,6.8 " />
			<path d="M-3.7,3.7 L3.7,3.7 " />
			<path d="M3.7,-3.7 L3.7,3.7 " />
			<path d="M-3.7,-3.7 L3.7,-3.7 " />
			<path d="M-3.7,-3.7 L-3.7,3.7 " />
			<path d="M4.3,3.7 L11.7,3.7 " />
			<path d="M11.7,-3.7 L11.7,3.7 " />
			<path d="M4.3,-3.7 L11.7,-3.7 " />
			<path d="M4.3,-3.7 L4.3,3.7 " />
			<path d="M-3.7,6.8 L3.7,6.8 " />
			<path d="M3.7,4.3 L3.7,6.8 " />
			<path d="M-3.7,4.3 L3.7,4.3 " />
			<path d="M-3.7,4.3 L-3.7,6.8 " />
			<path d="M4.3,6.8 L11.7,6.8 " />
			<path d="M11.7,4.3 L11.7,6.8 " />
			<path d="M4.3,4.3 L11.7,4.3 " />
			<path d="M4.3,4.3 L4.3,6.8 " />
			<path d="M20.3,4.3 L22.8,4.3 " />
			<path d="M20.3,4.3 L20.3,6.8 " />
			<path d="M20.3,6.8 L22.799999999999997,6.8 " />
			<path d="M22.8,4.3 L22.8,6.800000000000001 " />
			<path d="M20.3,-6.8 L22.799999999999997,-6.8 " />
			<path d="M20.3,-6.8 L20.3,-4.3 " />
			<path d="M20.3,-4.3 L22.8,-4.3 " />
			<path d="M22.8,-6.800000000000001 L22.8,-4.3 " />
			<path d="M20.3,-3.7 L22.8,-3.7 " />
			<path d="M20.3,-3.7 L20.3,3.7 " />
			<path d="M20.3,3.7 L22.8,3.7 " />
			<path d="M22.8,-3.7 L22.8,3.7 " />

        </g>
        </g>
    </svg>
    