<?xml version="1.0" encoding="UTF-8" standalone="no"?>
    <svg
    xmlns:svg="http://www.w3.org/2000/svg"
    xmlns="http://www.w3.org/2000/svg"
    width="945"
    height="505"
    >
        <g transform="scale(20, -20)   translate(23.627416997969526,-11.544874036452567)" stroke-width="0.05"  fill="none">
        <!-- hidden lines -->
        <g  stroke="rgb(160,160,160)" fill="none" stroke-dasharray="0.05,0.05" >
    
        </g>

        <!-- solid lines -->
        <g  stroke="rgb(0,0,0)" fill="none">
    			<path d="M-22.627416997969522,-0.22573873442448011 L-22.627416997969522,-9.398624726923442 " />
			<path d="M-11.313708498984763,-3.562853791004942 L-22.627416997969526,-0.22573873442447834 " />
			<path d="M-11.313708498984763,-12.735739783503904 L-11.313708498984763,-3.562853791004942 " />
			<path d="M-22.627416997969522,-9.398624726923442 L-11.313708498984761,-12.735739783503906 " />
			<path d="M-22.627416997969522,-0.22573873442448011 L-19.37056274847714,0.7349097880334194 " />
			<path d="M-15.188681386350972,1.9684062370215436 L-13.713708498984762,2.403467316323651 " />
			<path d="M-9.531827136858587,3.636963765311776 L-8.05685424949238,4.072024844613883 " />
			<path d="M-3.8749728873662086,5.305521293602006 L-2.3999999999999986,5.7405823729041145 " />
			<path d="M1.7818813621261675,6.974078821892237 L3.256854249492381,7.409139901194346 " />
			<path d="M7.438735611618554,8.642636350182471 L8.913708498984764,9.077697429484578 " />
			<path d="M-11.313708498984763,-3.562853791004942 L22.627416997969522,6.448491378736449 " />
			<path d="M22.627416997969522,6.448491378736447 L19.37056274847714,7.409139901194347 " />
			<path d="M15.188681386350973,8.642636350182471 L13.713708498984762,9.077697429484578 " />
			<path d="M-13.713708498984762,-1.8942962627147102 L-13.710817593877175,-1.929031711266337 L-13.702151842998035,-1.9636834790799376 L-13.687732122900236,-1.998168087011712 L-13.667593171952515,-2.0324024586206573 L-13.641783506651667,-2.0663041203069907 L-13.610365304742063,-2.099791399998276 L-13.573414255424012,-2.1327836239045967 L-13.53101937701185,-2.1652013108687855 L-13.483282802481025,-2.196966363843491 L-13.430319533420814,-2.2280022580338077 L-13.372257162985415,-2.2582342252522074 L-13.30923556851087,-2.287589434041654 L-13.24140657453831,-2.31599716513296 L-13.16893358705533,-2.3433889818137046 L-13.091991199836663,-2.369698894798263 L-13.010764773832475,-2.3948635212017795 L-12.925449990617604,-2.418822237235087 L-12.836252380977509,-2.441517324252726 L-12.743386829766601,-2.4628941078022155 L-12.647077058231806,-2.4829010893395997 L-12.445060667367155,-2.5186162681819475 L-12.232148736660978,-2.548318904083615 L-12.010391724395474,-2.5717229444237564 L-11.78192527182347,-2.5886029954999463 L-11.548949635775706,-2.5987964931927463 L-11.313708498984761,-2.6022052685470425 L-11.078467362193816,-2.5987964931927463 L-10.845491726146053,-2.5886029954999463 L-10.61702527357405,-2.5717229444237564 L-10.395268261308544,-2.548318904083615 L-10.182356330602367,-2.518616268181948 L-9.980339939737718,-2.4829010893395997 L-9.884030168202923,-2.4628941078022155 L-9.791164616992013,-2.441517324252726 L-9.701967007351918,-2.4188222372350876 L-9.616652224137047,-2.39486352120178 L-9.53542579813286,-2.3696988947982627 L-9.458483410914193,-2.3433889818137046 L-9.386010423431213,-2.3159971651329605 L-9.318181429458653,-2.287589434041654 L-9.25515983498411,-2.258234225252208 L-9.19709746454871,-2.228002258033808 L-9.144134195488498,-2.1969663638434915 L-9.096397620957674,-2.165201310868786 L-9.054002742545512,-2.1327836239045976 L-9.017051693227462,-2.099791399998277 L-8.985633491317856,-2.0663041203069916 L-8.959823826017008,-2.0324024586206573 L-8.939684875069286,-1.9981680870117116 L-8.925265154971488,-1.9636834790799376 L-8.916599404092347,-1.9290317112663373 L-8.91370849898476,-1.8942962627147166 " />
			<path d="M-8.056854249492382,-0.22573873442447914 L-8.053963344384796,-0.26047418297610614 L-8.045297593505655,-0.29512595078970666 L-8.030877873407857,-0.329610558721481 L-8.010738922460135,-0.36384493033042625 L-7.984929257159287,-0.39774659201676 L-7.953511055249683,-0.43123387170804495 L-7.916560005931632,-0.4642260956143657 L-7.87416512751947,-0.49664378257855446 L-7.826428552988645,-0.5284088355532603 L-7.7734652839284335,-0.5594447297435768 L-7.715402913493035,-0.5896766969619767 L-7.65238131901849,-0.6190319057514229 L-7.58455232504593,-0.6474396368427293 L-7.51207933756295,-0.6748314535234736 L-7.435136950344283,-0.7011413665080323 L-7.353910524340096,-0.7263059929115486 L-7.2685957411252256,-0.7502647089448563 L-7.179398131485129,-0.7729597959624951 L-7.086532580274221,-0.7943365795119846 L-6.990222808739427,-0.8143435610493689 L-6.788206417874776,-0.8500587398917168 L-6.575294487168598,-0.8797613757933841 L-6.353537474903093,-0.9031654161335254 L-6.12507102233109,-0.9200454672097154 L-5.8920953862833265,-0.9302389649025156 L-5.6568542494923815,-0.9336477402568116 L-5.421613112701437,-0.9302389649025156 L-5.188637476653674,-0.9200454672097155 L-4.960171024081671,-0.9031654161335255 L-4.7384140118161655,-0.8797613757933842 L-4.5255020811099875,-0.8500587398917169 L-4.323485690245337,-0.814343561049369 L-4.227175918710542,-0.7943365795119847 L-4.1343103674996335,-0.7729597959624952 L-4.045112757859539,-0.7502647089448568 L-3.959797974644668,-0.7263059929115488 L-3.878571548640479,-0.7011413665080319 L-3.801629161421812,-0.6748314535234736 L-3.7291561739388337,-0.6474396368427295 L-3.661327179966273,-0.6190319057514231 L-3.5983055854917287,-0.5896766969619769 L-3.54024321505633,-0.5594447297435771 L-3.487279945996118,-0.5284088355532606 L-3.439543371465294,-0.49664378257855496 L-3.3971484930531326,-0.46422609561436645 L-3.360197443735081,-0.43123387170804584 L-3.3287792418254765,-0.3977465920167609 L-3.302969576524629,-0.36384493033042653 L-3.2828306255769073,-0.3296105587214806 L-3.268410905479109,-0.2951259507897066 L-3.2597451545999676,-0.2604741829761064 L-3.2568542494923816,-0.2257387344244857 " />
			<path d="M-2.3999999999999995,1.4428187938657526 L-2.3971090948924134,1.4080833453141257 L-2.388443344013272,1.3734315775005252 L-2.3740236239154737,1.3389469695687508 L-2.3538846729677525,1.3047125979598055 L-2.328075007666905,1.2708109362734719 L-2.296656805757301,1.2373236565821868 L-2.2597057564392498,1.204331432675866 L-2.217310878027088,1.1719137457116773 L-2.169574303496263,1.1401486927369715 L-2.1166110344360516,1.1091127985466551 L-2.0585486640006527,1.0788808313282552 L-1.9955270695261085,1.049525622538809 L-1.9276980755535482,1.0211178914475025 L-1.8552250880705685,0.9937260747667582 L-1.7782827008519013,0.9674161617821996 L-1.697056274847714,0.9422515353786832 L-1.6117414916328434,0.9182928193453755 L-1.522543881992748,0.8955977323277368 L-1.429678330781839,0.8742209487782473 L-1.3333685592470448,0.854213967240863 L-1.1313521683823944,0.8184987883985151 L-0.9184402376762163,0.7887961524968478 L-0.6966832254107114,0.7653921121567064 L-0.46821677283870833,0.7485120610805165 L-0.23524113679094463,0.7383185633877163 L3.216362157015501e-18,0.7349097880334202 L0.23524113679094466,0.7383185633877163 L0.46821677283870833,0.7485120610805164 L0.6966832254107115,0.7653921121567063 L0.9184402376762164,0.7887961524968476 L1.1313521683823946,0.818498788398515 L1.3333685592470448,0.8542139672408628 L1.4296783307818395,0.8742209487782472 L1.5225438819927481,0.8955977323277367 L1.6117414916328427,0.9182928193453751 L1.697056274847714,0.942251535378683 L1.778282700851903,0.9674161617821999 L1.8552250880705696,0.9937260747667582 L1.9276980755535484,1.0211178914475023 L1.995527069526109,1.0495256225388088 L2.058548664000653,1.078880831328255 L2.116611034436052,1.1091127985466547 L2.169574303496264,1.1401486927369713 L2.217310878027088,1.1719137457116768 L2.2597057564392493,1.2043314326758654 L2.296656805757301,1.237323656582186 L2.3280750076669054,1.270810936273471 L2.353884672967753,1.3047125979598053 L2.3740236239154746,1.3389469695687513 L2.388443344013273,1.3734315775005252 L2.3971090948924143,1.4080833453141255 L2.4000000000000004,1.4428187938657462 " />
			<path d="M3.2568542494923816,3.1113763221559836 L3.2597451545999676,3.0766408736043567 L3.268410905479109,3.041989105790756 L3.2828306255769073,3.007504497858982 L3.3029695765246285,2.9732701262500365 L3.328779241825476,2.939368464563703 L3.36019744373508,2.9058811848724178 L3.3971484930531313,2.872888960966097 L3.439543371465293,2.8404712740019082 L3.487279945996118,2.8087062210272027 L3.5402432150563294,2.777670326836886 L3.5983055854917283,2.7474383596184864 L3.6613271799662725,2.71808315082904 L3.729156173938833,2.6896754197377337 L3.8016291614218125,2.662283603056989 L3.8785715486404797,2.6359736900724307 L3.959797974644667,2.6108090636689143 L4.045112757859537,2.5868503476356066 L4.1343103674996335,2.5641552606179676 L4.227175918710542,2.5427784770684783 L4.323485690245336,2.522771495531094 L4.525502081109987,2.4870563166887463 L4.738414011816165,2.4573536807870786 L4.96017102408167,2.4339496404469374 L5.188637476653673,2.4170695893707475 L5.421613112701436,2.4068760916779475 L5.6568542494923815,2.4034673163236513 L5.892095386283326,2.4068760916779475 L6.125071022331089,2.4170695893707475 L6.353537474903092,2.4339496404469374 L6.575294487168597,2.4573536807870786 L6.788206417874775,2.487056316688746 L6.990222808739426,2.522771495531094 L7.086532580274221,2.5427784770684783 L7.179398131485129,2.5641552606179676 L7.268595741125224,2.586850347635606 L7.353910524340095,2.610809063668914 L7.435136950344284,2.635973690072431 L7.512079337562951,2.662283603056989 L7.584552325045929,2.6896754197377333 L7.65238131901849,2.71808315082904 L7.715402913493034,2.747438359618486 L7.773465283928433,2.7776703268368856 L7.826428552988645,2.8087062210272022 L7.874165127519468,2.840471274001908 L7.916560005931631,2.872888960966096 L7.953511055249682,2.905881184872417 L7.984929257159287,2.939368464563702 L8.010738922460135,2.9732701262500365 L8.030877873407857,3.007504497858982 L8.045297593505655,3.041989105790756 L8.053963344384796,3.0766408736043562 L8.056854249492382,3.111376322155977 " />
			<path d="M8.91370849898476,4.7799338504462145 L8.916599404092347,4.745198401894587 L8.925265154971488,4.710546634080987 L8.939684875069286,4.6760620261492125 L8.959823826017008,4.6418276545402675 L8.985633491317856,4.607925992853934 L9.01705169322746,4.574438713162649 L9.05400274254551,4.541446489256328 L9.096397620957672,4.509028802292139 L9.144134195488498,4.477263749317434 L9.197097464548708,4.446227855127117 L9.255159834984108,4.415995887908717 L9.318181429458653,4.386640679119271 L9.386010423431213,4.358232948027965 L9.458483410914193,4.33084113134722 L9.53542579813286,4.304531218362661 L9.616652224137047,4.279366591959145 L9.701967007351918,4.255407875925838 L9.791164616992013,4.232712788908199 L9.884030168202921,4.211336005358709 L9.980339939737716,4.191329023821325 L10.182356330602367,4.155613844978977 L10.395268261308544,4.12591120907731 L10.617025273574049,4.102507168737168 L10.845491726146053,4.085627117660978 L11.078467362193816,4.075433619968178 L11.313708498984761,4.072024844613882 L11.548949635775706,4.075433619968178 L11.78192527182347,4.085627117660978 L12.010391724395472,4.102507168737168 L12.232148736660978,4.12591120907731 L12.445060667367155,4.155613844978977 L12.647077058231805,4.191329023821325 L12.7433868297666,4.211336005358709 L12.836252380977509,4.232712788908199 L12.925449990617604,4.255407875925837 L13.010764773832475,4.279366591959145 L13.091991199836663,4.304531218362662 L13.16893358705533,4.33084113134722 L13.24140657453831,4.358232948027965 L13.30923556851087,4.386640679119271 L13.372257162985413,4.415995887908717 L13.430319533420812,4.446227855127117 L13.483282802481025,4.477263749317434 L13.531019377011848,4.509028802292139 L13.57341425542401,4.5414464892563275 L13.61036530474206,4.574438713162648 L13.641783506651667,4.607925992853933 L13.667593171952515,4.6418276545402675 L13.687732122900236,4.676062026149213 L13.702151842998035,4.710546634080987 L13.710817593877175,4.745198401894587 L13.713708498984762,4.779933850446208 " />
			<path d="M14.570562748477142,6.4484913787364455 L14.573453653584728,6.413755930184818 L14.582119404463871,6.379104162371218 L14.59653912456167,6.3446195544394435 L14.61667807550939,6.310385182830498 L14.642487740810237,6.276483521144165 L14.673905942719841,6.24299624145288 L14.710856992037893,6.210004017546559 L14.753251870450054,6.17758633058237 L14.800988444980879,6.145821277607665 L14.853951714041091,6.114785383417348 L14.912014084476489,6.084553416198948 L14.975035678951034,6.055198207409502 L15.042864672923594,6.026790476318196 L15.115337660406574,5.999398659637451 L15.19228004762524,5.973088746652892 L15.273506473629428,5.947924120249376 L15.3588212568443,5.9239654042160685 L15.448018866484395,5.9012703171984295 L15.540884417695302,5.87989353364894 L15.637194189230097,5.859886552111556 L15.839210580094747,5.824171373269208 L16.052122510800928,5.7944687373675405 L16.27387952306643,5.771064697027399 L16.502345975638434,5.754184645951209 L16.735321611686196,5.743991148258409 L16.970562748477143,5.740582372904113 L17.205803885268086,5.743991148258409 L17.43877952131585,5.754184645951209 L17.667245973887855,5.771064697027399 L17.889002986153358,5.7944687373675405 L18.10191491685954,5.824171373269208 L18.303931307724188,5.859886552111556 L18.400241079258983,5.87989353364894 L18.49310663046989,5.9012703171984295 L18.582304240109984,5.923965404216068 L18.667619023324857,5.947924120249376 L18.748845449329046,5.973088746652893 L18.82578783654771,5.999398659637451 L18.89826082403069,6.026790476318196 L18.96608981800325,6.055198207409502 L19.029111412477796,6.084553416198948 L19.087173782913194,6.114785383417348 L19.140137051973404,6.145821277607665 L19.18787362650423,6.17758633058237 L19.230268504916392,6.2100040175465585 L19.267219554234444,6.242996241452879 L19.298637756144046,6.276483521144164 L19.324447421444894,6.310385182830498 L19.344586372392616,6.344619554439444 L19.359006092490414,6.379104162371218 L19.367671843369557,6.413755930184818 L19.37056274847714,6.448491378736439 " />
			<path d="M-19.37056274847714,-0.22573873442447914 L-19.367671843369557,-0.26047418297610614 L-19.359006092490414,-0.29512595078970666 L-19.344586372392616,-0.329610558721481 L-19.324447421444894,-0.36384493033042625 L-19.298637756144046,-0.39774659201676 L-19.267219554234444,-0.43123387170804495 L-19.230268504916392,-0.4642260956143657 L-19.18787362650423,-0.49664378257855446 L-19.140137051973404,-0.5284088355532603 L-19.087173782913194,-0.5594447297435768 L-19.029111412477796,-0.5896766969619767 L-18.96608981800325,-0.6190319057514229 L-18.898260824030693,-0.6474396368427293 L-18.82578783654771,-0.6748314535234736 L-18.748845449329046,-0.7011413665080323 L-18.667619023324857,-0.7263059929115486 L-18.582304240109988,-0.7502647089448563 L-18.493106630469892,-0.7729597959624951 L-18.400241079258983,-0.7943365795119846 L-18.303931307724188,-0.8143435610493689 L-18.10191491685954,-0.8500587398917168 L-17.889002986153358,-0.8797613757933841 L-17.667245973887855,-0.9031654161335254 L-17.43877952131585,-0.9200454672097154 L-17.20580388526809,-0.9302389649025156 L-16.970562748477143,-0.9336477402568116 L-16.7353216116862,-0.9302389649025156 L-16.502345975638434,-0.9200454672097155 L-16.27387952306643,-0.9031654161335255 L-16.052122510800928,-0.8797613757933842 L-15.839210580094749,-0.8500587398917169 L-15.637194189230097,-0.814343561049369 L-15.540884417695304,-0.7943365795119847 L-15.448018866484395,-0.7729597959624952 L-15.358821256844301,-0.7502647089448568 L-15.273506473629428,-0.7263059929115488 L-15.192280047625239,-0.7011413665080319 L-15.115337660406574,-0.6748314535234736 L-15.042864672923594,-0.6474396368427295 L-14.975035678951034,-0.6190319057514231 L-14.912014084476489,-0.5896766969619769 L-14.853951714041091,-0.5594447297435771 L-14.800988444980879,-0.5284088355532606 L-14.753251870450056,-0.49664378257855496 L-14.710856992037893,-0.46422609561436645 L-14.673905942719841,-0.43123387170804584 L-14.642487740810237,-0.3977465920167609 L-14.616678075509391,-0.36384493033042653 L-14.59653912456167,-0.3296105587214806 L-14.582119404463871,-0.2951259507897066 L-14.573453653584728,-0.2604741829761064 L-14.570562748477142,-0.2257387344244857 " />
			<path d="M-13.713708498984762,1.4428187938657517 L-13.710817593877175,1.4080833453141248 L-13.702151842998035,1.3734315775005244 L-13.687732122900236,1.33894696956875 L-13.667593171952515,1.3047125979598047 L-13.641783506651667,1.270810936273471 L-13.610365304742063,1.237323656582186 L-13.573414255424012,1.2043314326758652 L-13.53101937701185,1.1719137457116764 L-13.483282802481025,1.1401486927369706 L-13.430319533420814,1.1091127985466542 L-13.372257162985415,1.0788808313282543 L-13.30923556851087,1.049525622538808 L-13.24140657453831,1.0211178914475016 L-13.16893358705533,0.9937260747667573 L-13.091991199836663,0.9674161617821987 L-13.010764773832475,0.9422515353786823 L-12.925449990617604,0.9182928193453747 L-12.836252380977509,0.8955977323277359 L-12.743386829766601,0.8742209487782464 L-12.647077058231806,0.8542139672408621 L-12.445060667367155,0.8184987883985142 L-12.232148736660978,0.7887961524968469 L-12.010391724395474,0.7653921121567056 L-11.78192527182347,0.7485120610805156 L-11.548949635775706,0.7383185633877154 L-11.313708498984761,0.7349097880334193 L-11.078467362193816,0.7383185633877154 L-10.845491726146053,0.7485120610805155 L-10.61702527357405,0.7653921121567054 L-10.395268261308544,0.7887961524968468 L-10.182356330602367,0.8184987883985141 L-9.980339939737718,0.854213967240862 L-9.884030168202923,0.8742209487782463 L-9.791164616992013,0.8955977323277358 L-9.701967007351918,0.9182928193453742 L-9.616652224137047,0.9422515353786821 L-9.53542579813286,0.967416161782199 L-9.458483410914193,0.9937260747667573 L-9.386010423431213,1.0211178914475014 L-9.318181429458653,1.0495256225388079 L-9.25515983498411,1.078880831328254 L-9.19709746454871,1.1091127985466538 L-9.144134195488498,1.1401486927369704 L-9.096397620957674,1.171913745711676 L-9.054002742545512,1.2043314326758645 L-9.017051693227462,1.237323656582185 L-8.985633491317856,1.27081093627347 L-8.959823826017008,1.3047125979598044 L-8.939684875069286,1.3389469695687504 L-8.925265154971488,1.3734315775005244 L-8.916599404092347,1.4080833453141246 L-8.91370849898476,1.4428187938657453 " />
			<path d="M-8.05685424949238,3.1113763221559836 L-8.053963344384794,3.0766408736043567 L-8.045297593505651,3.041989105790756 L-8.030877873407853,3.007504497858982 L-8.010738922460133,2.9732701262500365 L-7.984929257159285,2.939368464563703 L-7.953511055249681,2.9058811848724178 L-7.91656000593163,2.872888960966097 L-7.874165127519468,2.8404712740019082 L-7.826428552988643,2.8087062210272027 L-7.773465283928432,2.777670326836886 L-7.715402913493033,2.7474383596184864 L-7.652381319018488,2.71808315082904 L-7.584552325045928,2.6896754197377337 L-7.512079337562948,2.662283603056989 L-7.4351369503442815,2.6359736900724307 L-7.353910524340094,2.6108090636689143 L-7.268595741125224,2.5868503476356066 L-7.179398131485128,2.5641552606179676 L-7.086532580274219,2.5427784770684783 L-6.990222808739425,2.522771495531094 L-6.7882064178747745,2.4870563166887463 L-6.5752944871685965,2.4573536807870786 L-6.353537474903091,2.4339496404469374 L-6.125071022331088,2.4170695893707475 L-5.892095386283325,2.4068760916779475 L-5.65685424949238,2.4034673163236513 L-5.4216131127014355,2.4068760916779475 L-5.188637476653672,2.4170695893707475 L-4.960171024081669,2.4339496404469374 L-4.738414011816164,2.4573536807870786 L-4.525502081109986,2.487056316688746 L-4.323485690245335,2.522771495531094 L-4.22717591871054,2.5427784770684783 L-4.134310367499632,2.5641552606179676 L-4.045112757859537,2.586850347635606 L-3.9597979746446663,2.610809063668914 L-3.878571548640477,2.635973690072431 L-3.8016291614218103,2.662283603056989 L-3.729156173938832,2.6896754197377333 L-3.661327179966271,2.71808315082904 L-3.598305585491727,2.747438359618486 L-3.540243215056328,2.7776703268368856 L-3.487279945996116,2.8087062210272022 L-3.4395433714652923,2.840471274001908 L-3.397148493053131,2.872888960966096 L-3.3601974437350792,2.905881184872417 L-3.3287792418254747,2.939368464563702 L-3.302969576524627,2.9732701262500365 L-3.2828306255769055,3.007504497858982 L-3.268410905479107,3.041989105790756 L-3.259745154599966,3.0766408736043562 L-3.25685424949238,3.111376322155977 " />
			<path d="M-2.3999999999999995,4.7799338504462145 L-2.3971090948924134,4.745198401894587 L-2.388443344013272,4.710546634080987 L-2.3740236239154737,4.6760620261492125 L-2.3538846729677525,4.6418276545402675 L-2.328075007666905,4.607925992853934 L-2.296656805757301,4.574438713162649 L-2.2597057564392498,4.541446489256328 L-2.217310878027088,4.509028802292139 L-2.169574303496263,4.477263749317434 L-2.1166110344360516,4.446227855127117 L-2.0585486640006527,4.415995887908717 L-1.9955270695261085,4.386640679119271 L-1.9276980755535482,4.358232948027965 L-1.8552250880705685,4.33084113134722 L-1.7782827008519013,4.304531218362661 L-1.697056274847714,4.279366591959145 L-1.6117414916328434,4.255407875925838 L-1.522543881992748,4.232712788908199 L-1.429678330781839,4.211336005358709 L-1.3333685592470448,4.191329023821325 L-1.1313521683823944,4.155613844978977 L-0.9184402376762163,4.12591120907731 L-0.6966832254107114,4.102507168737168 L-0.46821677283870833,4.085627117660978 L-0.23524113679094463,4.075433619968178 L3.216362157015501e-18,4.072024844613882 L0.23524113679094466,4.075433619968178 L0.46821677283870833,4.085627117660978 L0.6966832254107115,4.102507168737168 L0.9184402376762164,4.12591120907731 L1.1313521683823946,4.155613844978977 L1.3333685592470448,4.191329023821325 L1.4296783307818395,4.211336005358709 L1.5225438819927481,4.232712788908199 L1.6117414916328427,4.255407875925837 L1.697056274847714,4.279366591959145 L1.778282700851903,4.304531218362662 L1.8552250880705696,4.33084113134722 L1.9276980755535484,4.358232948027965 L1.995527069526109,4.386640679119271 L2.058548664000653,4.415995887908717 L2.116611034436052,4.446227855127117 L2.169574303496264,4.477263749317434 L2.217310878027088,4.509028802292139 L2.2597057564392493,4.5414464892563275 L2.296656805757301,4.574438713162648 L2.3280750076669054,4.607925992853933 L2.353884672967753,4.6418276545402675 L2.3740236239154746,4.676062026149213 L2.388443344013273,4.710546634080987 L2.3971090948924143,4.745198401894587 L2.4000000000000004,4.779933850446208 " />
			<path d="M3.2568542494923816,6.4484913787364455 L3.2597451545999676,6.413755930184818 L3.268410905479109,6.379104162371218 L3.2828306255769073,6.3446195544394435 L3.3029695765246285,6.310385182830498 L3.328779241825476,6.276483521144165 L3.36019744373508,6.24299624145288 L3.3971484930531313,6.210004017546559 L3.439543371465293,6.17758633058237 L3.487279945996118,6.145821277607665 L3.5402432150563294,6.114785383417348 L3.5983055854917283,6.084553416198948 L3.6613271799662725,6.055198207409502 L3.729156173938833,6.026790476318196 L3.8016291614218125,5.999398659637451 L3.8785715486404797,5.973088746652892 L3.959797974644667,5.947924120249376 L4.045112757859537,5.9239654042160685 L4.1343103674996335,5.9012703171984295 L4.227175918710542,5.87989353364894 L4.323485690245336,5.859886552111556 L4.525502081109987,5.824171373269208 L4.738414011816165,5.7944687373675405 L4.96017102408167,5.771064697027399 L5.188637476653673,5.754184645951209 L5.421613112701436,5.743991148258409 L5.6568542494923815,5.740582372904113 L5.892095386283326,5.743991148258409 L6.125071022331089,5.754184645951209 L6.353537474903092,5.771064697027399 L6.575294487168597,5.7944687373675405 L6.788206417874775,5.824171373269208 L6.990222808739426,5.859886552111556 L7.086532580274221,5.87989353364894 L7.179398131485129,5.9012703171984295 L7.268595741125224,5.923965404216068 L7.353910524340095,5.947924120249376 L7.435136950344284,5.973088746652893 L7.512079337562951,5.999398659637451 L7.584552325045929,6.026790476318196 L7.65238131901849,6.055198207409502 L7.715402913493034,6.084553416198948 L7.773465283928433,6.114785383417348 L7.826428552988645,6.145821277607665 L7.874165127519468,6.17758633058237 L7.916560005931631,6.2100040175465585 L7.953511055249682,6.242996241452879 L7.984929257159287,6.276483521144164 L8.010738922460135,6.310385182830498 L8.030877873407857,6.344619554439444 L8.045297593505655,6.379104162371218 L8.053963344384796,6.413755930184818 L8.056854249492382,6.448491378736439 " />
			<path d="M8.91370849898476,8.117048907026678 L8.916599404092347,8.082313458475051 L8.925265154971488,8.047661690661451 L8.939684875069286,8.013177082729676 L8.959823826017008,7.978942711120731 L8.985633491317856,7.945041049434398 L9.01705169322746,7.911553769743112 L9.05400274254551,7.878561545836792 L9.096397620957672,7.846143858872603 L9.144134195488498,7.814378805897897 L9.197097464548708,7.783342911707581 L9.255159834984108,7.753110944489181 L9.318181429458653,7.723755735699735 L9.386010423431213,7.695348004608428 L9.458483410914193,7.667956187927683 L9.53542579813286,7.641646274943125 L9.616652224137047,7.616481648539609 L9.701967007351918,7.592522932506301 L9.791164616992013,7.569827845488662 L9.884030168202921,7.548451061939173 L9.980339939737716,7.528444080401789 L10.182356330602367,7.492728901559441 L10.395268261308544,7.463026265657773 L10.617025273574049,7.439622225317632 L10.845491726146053,7.422742174241442 L11.078467362193816,7.412548676548642 L11.313708498984761,7.4091399011943455 L11.548949635775706,7.412548676548642 L11.78192527182347,7.422742174241442 L12.010391724395472,7.439622225317632 L12.232148736660978,7.463026265657773 L12.445060667367155,7.492728901559441 L12.647077058231805,7.528444080401789 L12.7433868297666,7.548451061939173 L12.836252380977509,7.569827845488662 L12.925449990617604,7.5925229325063 L13.010764773832475,7.616481648539609 L13.091991199836663,7.641646274943126 L13.16893358705533,7.667956187927683 L13.24140657453831,7.695348004608428 L13.30923556851087,7.723755735699735 L13.372257162985413,7.753110944489181 L13.430319533420812,7.783342911707581 L13.483282802481025,7.814378805897897 L13.531019377011848,7.846143858872603 L13.57341425542401,7.878561545836791 L13.61036530474206,7.9115537697431115 L13.641783506651667,7.945041049434397 L13.667593171952515,7.978942711120731 L13.687732122900236,8.013177082729676 L13.702151842998035,8.047661690661451 L13.710817593877175,8.082313458475051 L13.713708498984762,8.117048907026671 " />
			<path d="M22.627416997969522,-2.7243946137625152 L22.627416997969522,6.448491378736447 " />
			<path d="M-11.313708498984763,-12.735739783503904 L22.627416997969522,-2.724394613762513 " />
			<path d="M-9.616652224137047,0.3261871193659155 L-9.746093675895697,0.3616548226166987 L-9.884030168202921,0.3942177059663512 L-10.029714211255728,0.42369930832866776 L-10.182356330602367,0.44993986634608363 L-10.341129345372785,0.4727971801611519 L-10.505172850843433,0.492147384009891 L-10.673597881045005,0.5078856174610925 L-10.845491726146053,0.5199265936640823 L-11.019922878506643,0.5282050615255548 L-11.195946080598958,0.5326761593109006 L-11.372607447439751,0.5333156577538332 L-11.548949635775706,0.5301200913568824 L-11.724017032009485,0.5231067771712258 L-11.896860930752595,0.5123137209540872 L-12.066544675942101,0.497799411212246 L-12.232148736660976,0.47964250224775107 L-12.392775690155817,0.4579413879234431 L-12.547555085048494,0.4328136684580871 L-12.69564815838759,0.40439551314059696 L-12.83625238097751,0.3728409224168616 L-12.968605806353722,0.33832089334798576 L-13.091991199836663,0.30102249296239897 L-13.205739925288617,0.26114784452342205 L-13.30923556851087,0.21891303220578995 L-13.40191727764567,0.17454693011678646 L-13.483282802481025,0.12828996200762705 L-13.519581743040899,0.10453037426431516 L-13.552891216188135,0.0803927983963203 L-13.583166079898012,0.05590994639045915 L-13.610365304742063,0.031114998162412033 L-13.634452029492406,0.0060415565902797175 L-13.65539361107723,-0.019276398025072916 L-13.67316166881968,-0.04480455401116859 L-13.687732122900236,-0.07050831482415229 L-13.699085226990416,-0.09635284593509577 L-13.707205595013617,-0.12230312203882404 L-13.7120822219968,-0.14832397452128757 L-13.713708498984762,-0.1743801391211507 " />
			<path d="M-13.713708498984762,-0.17438013912115383 L-13.710817593877175,-0.20911558767278085 L-13.702151842998035,-0.24376735548638134 L-13.687732122900236,-0.27825196341815567 L-13.667593171952515,-0.31248633502710094 L-13.641783506651667,-0.3463879967134347 L-13.610365304742063,-0.37987527640471963 L-13.573414255424012,-0.41286750031104036 L-13.53101937701185,-0.44528518727522914 L-13.483282802481025,-0.477050240249935 L-13.430319533420814,-0.5080861344402515 L-13.372257162985415,-0.5383181016586513 L-13.30923556851087,-0.5676733104480975 L-13.24140657453831,-0.596081041539404 L-13.16893358705533,-0.6234728582201483 L-13.091991199836663,-0.649782771204707 L-13.010764773832475,-0.6749473976082233 L-12.925449990617604,-0.698906113641531 L-12.836252380977509,-0.7216012006591698 L-12.743386829766601,-0.7429779842086592 L-12.647077058231806,-0.7629849657460436 L-12.445060667367155,-0.7987001445883914 L-12.232148736660978,-0.8284027804900588 L-12.010391724395474,-0.8518068208302001 L-11.78192527182347,-0.86868687190639 L-11.548949635775706,-0.8788803695991902 L-11.313708498984761,-0.8822891449534863 L-11.078467362193816,-0.8788803695991902 L-10.845491726146053,-0.8686868719063902 L-10.61702527357405,-0.8518068208302002 L-10.395268261308544,-0.8284027804900589 L-10.182356330602367,-0.7987001445883916 L-9.980339939737718,-0.7629849657460437 L-9.884030168202923,-0.7429779842086593 L-9.791164616992013,-0.7216012006591699 L-9.701967007351918,-0.6989061136415314 L-9.616652224137047,-0.6749473976082235 L-9.53542579813286,-0.6497827712047066 L-9.458483410914193,-0.6234728582201483 L-9.386010423431213,-0.5960810415394042 L-9.318181429458653,-0.5676733104480978 L-9.25515983498411,-0.5383181016586516 L-9.19709746454871,-0.5080861344402517 L-9.144134195488498,-0.4770502402499352 L-9.096397620957674,-0.44528518727522964 L-9.054002742545512,-0.41286750031104114 L-9.017051693227462,-0.3798752764047205 L-8.985633491317856,-0.34638799671343556 L-8.959823826017008,-0.3124863350271012 L-8.939684875069286,-0.2782519634181553 L-8.925265154971488,-0.2437673554863813 L-8.916599404092347,-0.2091155876727811 L-8.91370849898476,-0.17438013912116038 " />
			<path d="M-8.91370849898476,-0.1743801391211539 L-8.916599404092347,-0.13964469056952677 L-8.925265154971488,-0.10499292275592645 L-8.939684875069286,-0.07050831482415233 L-8.959823826017008,-0.036273943215206966 L-8.985633491317856,-0.002372281528873116 L-9.01705169322746,0.031114998162412005 L-9.054002742545512,0.06410722206873282 L-9.096397620957672,0.09652490903292144 L-9.144134195488498,0.1282899620076271 L-9.197097464548708,0.1593258561979437 L-9.255159834984108,0.18955782341634353 L-9.318181429458653,0.21891303220578995 L-9.386010423431213,0.24732076329709646 L-9.458483410914193,0.2747125799778407 L-9.53542579813286,0.301022492962399 L-9.616652224137045,0.32618711936591493 " />
			<path d="M-3.959797974644667,1.9947446476561463 L-4.089239426403317,2.03021235090693 L-4.227175918710541,2.0627752342565824 L-4.372859961763348,2.0922568366188985 L-4.525502081109987,2.1184973946363144 L-4.684275095880405,2.1413547084513826 L-4.848318601351053,2.160704912300122 L-5.016743631552625,2.1764431457513234 L-5.188637476653674,2.188484121954313 L-5.363068629014262,2.1967625898157856 L-5.539091831106578,2.201233687601132 L-5.715753197947371,2.201873186044064 L-5.892095386283327,2.198677619647113 L-6.067162782517104,2.191664305461457 L-6.240006681260215,2.1808712492443183 L-6.409690426449721,2.166356939502477 L-6.5752944871685965,2.148200030537982 L-6.735921440663438,2.126498916213674 L-6.890700835556114,2.101371196748318 L-7.03879390889521,2.0729530414308277 L-7.179398131485131,2.0413984507070926 L-7.311751556861342,2.0068784216382167 L-7.435136950344283,1.96958002125263 L-7.548885675796237,1.929705372813653 L-7.65238131901849,1.887470560496021 L-7.745063028153289,1.8431044584070175 L-7.826428552988645,1.796847490297858 L-7.86272749354852,1.773087902554546 L-7.896036966695755,1.7489503266865514 L-7.926311830405632,1.72446747468069 L-7.953511055249683,1.6996725264526429 L-7.977597780000027,1.6745990848805108 L-7.99853936158485,1.649281130265158 L-8.016307419327301,1.6237529742790624 L-8.030877873407857,1.5980492134660786 L-8.042230977498036,1.5722046823551352 L-8.050351345521237,1.546254406251407 L-8.05522797250442,1.5202335537689433 L-8.056854249492382,1.4941773891690804 " />
			<path d="M-8.056854249492382,1.494177389169077 L-8.053963344384796,1.4594419406174501 L-8.045297593505655,1.4247901728038497 L-8.030877873407857,1.3903055648720752 L-8.010738922460135,1.35607119326313 L-7.984929257159287,1.3221695315767963 L-7.953511055249683,1.2886822518855112 L-7.916560005931632,1.2556900279791905 L-7.87416512751947,1.2232723410150017 L-7.826428552988645,1.191507288040296 L-7.7734652839284335,1.1604713938499795 L-7.715402913493035,1.1302394266315796 L-7.65238131901849,1.1008842178421334 L-7.58455232504593,1.072476486750827 L-7.51207933756295,1.0450846700700827 L-7.435136950344283,1.0187747570855241 L-7.353910524340096,0.9936101306820077 L-7.2685957411252256,0.9696514146487 L-7.179398131485129,0.9469563276310612 L-7.086532580274221,0.9255795440815717 L-6.990222808739427,0.9055725625441874 L-6.788206417874776,0.8698573837018395 L-6.575294487168598,0.8401547478001722 L-6.353537474903093,0.8167507074600309 L-6.12507102233109,0.7998706563838409 L-5.8920953862833265,0.7896771586910407 L-5.6568542494923815,0.7862683833367446 L-5.421613112701437,0.7896771586910407 L-5.188637476653674,0.7998706563838408 L-4.960171024081671,0.8167507074600308 L-4.7384140118161655,0.8401547478001721 L-4.5255020811099875,0.8698573837018394 L-4.323485690245337,0.9055725625441873 L-4.227175918710542,0.9255795440815716 L-4.1343103674996335,0.9469563276310611 L-4.045112757859539,0.9696514146486995 L-3.959797974644668,0.9936101306820074 L-3.878571548640479,1.0187747570855243 L-3.801629161421812,1.0450846700700827 L-3.7291561739388337,1.0724764867508267 L-3.661327179966273,1.1008842178421332 L-3.5983055854917287,1.1302394266315794 L-3.54024321505633,1.160471393849979 L-3.487279945996118,1.1915072880402957 L-3.439543371465294,1.2232723410150013 L-3.3971484930531326,1.2556900279791898 L-3.360197443735081,1.2886822518855103 L-3.3287792418254765,1.3221695315767954 L-3.302969576524629,1.3560711932631297 L-3.2828306255769073,1.3903055648720757 L-3.268410905479109,1.4247901728038497 L-3.2597451545999676,1.45944194061745 L-3.2568542494923816,1.4941773891690706 " />
			<path d="M-3.2568542494923816,1.494177389169077 L-3.2597451545999676,1.5289128377207042 L-3.268410905479109,1.5635646055343044 L-3.2828306255769073,1.5980492134660786 L-3.3029695765246285,1.632283585075024 L-3.328779241825476,1.6661852467613578 L-3.3601974437350806,1.6996725264526429 L-3.3971484930531317,1.7326647503589638 L-3.439543371465293,1.7650824373231524 L-3.4872799459961175,1.796847490297858 L-3.5402432150563294,1.8278833844881746 L-3.5983055854917283,1.8581153517065745 L-3.661327179966273,1.887470560496021 L-3.7291561739388337,1.9158782915873274 L-3.801629161421813,1.9432701082680717 L-3.8785715486404797,1.96958002125263 L-3.9597979746446654,1.994744647656146 " />
			<path d="M1.6970562748477145,3.663302175946378 L1.5676148230890645,3.6987698791971617 L1.4296783307818408,3.7313327625468142 L1.2839942877290338,3.7608143649091303 L1.131352168382395,3.787054922926546 L0.9725791536119764,3.8099122367416145 L0.808535648141329,3.829262440590354 L0.6401106179397567,3.845000674041555 L0.46821677283870844,3.857041650244545 L0.2937856204781195,3.8653201181060175 L0.11776241838580341,3.8697912158913637 L-0.058898948454989226,3.870430714334296 L-0.2352411367909451,3.867235147937345 L-0.41030853302472253,3.8602218337516887 L-0.5831524317678328,3.84942877753455 L-0.752836176957339,3.834914467792709 L-0.9184402376762149,3.816757558828214 L-1.0790671911710557,3.795056444503906 L-1.2338465860637315,3.76992872503855 L-1.3819396594028284,3.7415105697210596 L-1.5225438819927493,3.7099559789973244 L-1.6548973073689601,3.6754359499284486 L-1.7782827008519015,3.638137549542862 L-1.892031426303855,3.598262901103885 L-1.9955270695261083,3.5560280887862525 L-2.0882087786609067,3.5116619866972494 L-2.1695743034962636,3.46540501858809 L-2.205873244056138,3.441645430844778 L-2.239182717203373,3.417507854976783 L-2.269457580913251,3.393025002970922 L-2.2966568057573005,3.3682300547428747 L-2.3207435305076443,3.3431566131707426 L-2.3416851120924678,3.31783865855539 L-2.3594531698349184,3.2923105025692943 L-2.3740236239154737,3.2666067417563105 L-2.385376728005654,3.240762210645367 L-2.393497096028856,3.214811934541639 L-2.3983737230120385,3.188791082059175 L-2.3999999999999995,3.162734917459312 " />
			<path d="M-2.3999999999999995,3.162734917459309 L-2.3971090948924134,3.127999468907682 L-2.388443344013272,3.0933477010940815 L-2.3740236239154737,3.0588630931623073 L-2.3538846729677525,3.024628721553362 L-2.328075007666905,2.9907270598670284 L-2.296656805757301,2.957239780175743 L-2.2597057564392498,2.9242475562694223 L-2.217310878027088,2.8918298693052336 L-2.169574303496263,2.860064816330528 L-2.1166110344360516,2.8290289221402114 L-2.0585486640006527,2.7987969549218117 L-1.9955270695261085,2.7694417461323653 L-1.9276980755535482,2.741034015041059 L-1.8552250880705685,2.7136421983603145 L-1.7782827008519013,2.687332285375756 L-1.697056274847714,2.6621676589722396 L-1.6117414916328434,2.638208942938932 L-1.522543881992748,2.615513855921293 L-1.429678330781839,2.5941370723718036 L-1.3333685592470448,2.5741300908344193 L-1.1313521683823944,2.5384149119920716 L-0.9184402376762163,2.508712276090404 L-0.6966832254107114,2.4853082357502627 L-0.46821677283870833,2.4684281846740728 L-0.23524113679094463,2.458234686981273 L3.216362157015501e-18,2.4548259116269766 L0.23524113679094466,2.458234686981273 L0.46821677283870833,2.4684281846740728 L0.6966832254107115,2.4853082357502627 L0.9184402376762164,2.508712276090404 L1.1313521683823946,2.538414911992071 L1.3333685592470448,2.5741300908344193 L1.4296783307818395,2.5941370723718036 L1.5225438819927481,2.615513855921293 L1.6117414916328427,2.6382089429389315 L1.697056274847714,2.662167658972239 L1.778282700851903,2.6873322853757564 L1.8552250880705696,2.7136421983603145 L1.9276980755535484,2.7410340150410586 L1.995527069526109,2.7694417461323653 L2.058548664000653,2.7987969549218112 L2.116611034436052,2.829028922140211 L2.169574303496264,2.8600648163305276 L2.217310878027088,2.891829869305233 L2.2597057564392493,2.9242475562694215 L2.296656805757301,2.957239780175742 L2.3280750076669054,2.9907270598670275 L2.353884672967753,3.024628721553362 L2.3740236239154746,3.0588630931623073 L2.388443344013273,3.0933477010940815 L2.3971090948924143,3.1279994689076815 L2.4000000000000004,3.1627349174593022 " />
			<path d="M2.4000000000000004,3.162734917459309 L2.3971090948924143,3.1974703660109363 L2.388443344013273,3.2321221338245363 L2.3740236239154746,3.2666067417563105 L2.3538846729677534,3.300841113365256 L2.328075007666906,3.33474277505159 L2.2966568057573014,3.3682300547428747 L2.25970575643925,3.4012222786491955 L2.2173108780270887,3.4336399656133842 L2.1695743034962645,3.46540501858809 L2.1166110344360525,3.4964409127784064 L2.0585486640006536,3.5266728799968066 L1.995527069526109,3.5560280887862525 L1.9276980755535482,3.584435819877559 L1.8552250880705692,3.6118276365583037 L1.7782827008519022,3.638137549542862 L1.6970562748477165,3.6633021759463777 " />
			<path d="M7.353910524340096,5.331859704236609 L7.224469072581446,5.367327407487393 L7.086532580274222,5.399890290837045 L6.940848537221415,5.429371893199361 L6.788206417874776,5.455612451216777 L6.629433403104358,5.4784697650318455 L6.46538989763371,5.497819968880584 L6.296964867432138,5.513558202331787 L6.125071022331089,5.525599178534776 L5.950639869970501,5.533877646396249 L5.774616667878185,5.538348744181595 L5.597955301037392,5.5389882426245265 L5.4216131127014355,5.535792676227576 L5.246545716467659,5.528779362041919 L5.073701817724548,5.517986305824781 L4.904018072535042,5.50347199608294 L4.738414011816166,5.485315087118445 L4.577787058321325,5.463613972794137 L4.423007663428649,5.438486253328781 L4.274914590089553,5.4100680980112905 L4.134310367499632,5.378513507287556 L4.001956942123421,5.34399347821868 L3.8785715486404797,5.306695077833092 L3.764822823188526,5.266820429394116 L3.661327179966273,5.2245856170764835 L3.5686454708314743,5.18021951498748 L3.4872799459961175,5.133962546878321 L3.450981005436243,5.110202959135009 L3.417671532289008,5.086065383267014 L3.38739666857913,5.061582531261153 L3.3601974437350806,5.036787583033106 L3.3361107189847368,5.011714141460973 L3.3151691373999133,4.986396186845621 L3.2974010796574627,4.960868030859525 L3.2828306255769073,4.935164270046542 L3.271477521486727,4.909319738935598 L3.263357153463525,4.88336946283187 L3.2584805264803425,4.857348610349407 L3.2568542494923816,4.831292445749543 " />
			<path d="M3.2568542494923816,4.83129244574954 L3.2597451545999676,4.7965569971979125 L3.268410905479109,4.761905229384312 L3.2828306255769073,4.727420621452538 L3.3029695765246285,4.693186249843593 L3.328779241825476,4.659284588157259 L3.36019744373508,4.625797308465974 L3.3971484930531313,4.592805084559654 L3.439543371465293,4.5603873975954645 L3.487279945996118,4.528622344620759 L3.5402432150563294,4.497586450430442 L3.5983055854917283,4.467354483212042 L3.6613271799662725,4.437999274422596 L3.729156173938833,4.40959154333129 L3.8016291614218125,4.382199726650545 L3.8785715486404797,4.3558898136659865 L3.959797974644667,4.330725187262471 L4.045112757859537,4.306766471229163 L4.1343103674996335,4.284071384211524 L4.227175918710542,4.2626946006620345 L4.323485690245336,4.24268761912465 L4.525502081109987,4.2069724402823025 L4.738414011816165,4.177269804380635 L4.96017102408167,4.153865764040494 L5.188637476653673,4.136985712964304 L5.421613112701436,4.126792215271504 L5.6568542494923815,4.123383439917207 L5.892095386283326,4.126792215271504 L6.125071022331089,4.136985712964304 L6.353537474903092,4.153865764040494 L6.575294487168597,4.177269804380635 L6.788206417874775,4.2069724402823025 L6.990222808739426,4.24268761912465 L7.086532580274221,4.2626946006620345 L7.179398131485129,4.284071384211524 L7.268595741125224,4.306766471229162 L7.353910524340095,4.330725187262471 L7.435136950344284,4.355889813665987 L7.512079337562951,4.382199726650545 L7.584552325045929,4.40959154333129 L7.65238131901849,4.437999274422596 L7.715402913493034,4.467354483212042 L7.773465283928433,4.497586450430442 L7.826428552988645,4.528622344620759 L7.874165127519468,4.5603873975954645 L7.916560005931631,4.592805084559653 L7.953511055249682,4.625797308465973 L7.984929257159287,4.659284588157258 L8.010738922460135,4.693186249843593 L8.030877873407857,4.727420621452539 L8.045297593505655,4.761905229384312 L8.053963344384796,4.7965569971979125 L8.056854249492382,4.831292445749534 " />
			<path d="M8.056854249492382,4.83129244574954 L8.053963344384796,4.866027894301167 L8.045297593505655,4.900679662114768 L8.030877873407857,4.935164270046541 L8.010738922460135,4.969398641655487 L7.984929257159287,5.00330030334182 L7.953511055249683,5.036787583033106 L7.916560005931631,5.069779806939427 L7.87416512751947,5.102197493903615 L7.826428552988645,5.133962546878321 L7.7734652839284335,5.164998441068637 L7.715402913493035,5.1952304082870375 L7.65238131901849,5.2245856170764835 L7.584552325045929,5.252993348167791 L7.51207933756295,5.280385164848535 L7.435136950344283,5.306695077833092 L7.3539105243400975,5.331859704236608 " />
			<path d="M13.010764773832475,7.00041723252684 L12.881323322073825,7.035884935777624 L12.743386829766601,7.068447819127276 L12.597702786713795,7.097929421489592 L12.445060667367155,7.124169979507008 L12.286287652596737,7.147027293322076 L12.12224414712609,7.166377497170815 L11.953819116924517,7.182115730622018 L11.78192527182347,7.194156706825007 L11.60749411946288,7.20243517468648 L11.431470917370564,7.206906272471826 L11.254809550529771,7.2075457709147575 L11.078467362193816,7.204350204517807 L10.903399965960038,7.19733689033215 L10.730556067216927,7.186543834115012 L10.560872322027421,7.172029524373171 L10.395268261308546,7.153872615408676 L10.234641307813705,7.132171501084368 L10.079861912921029,7.107043781619012 L9.931768839581933,7.0786256263015215 L9.791164616992011,7.047071035577787 L9.6588111916158,7.012551006508911 L9.53542579813286,6.975252606123323 L9.421677072680906,6.935377957684347 L9.318181429458653,6.8931431453667145 L9.225499720323853,6.848777043277711 L9.144134195488498,6.802520075168552 L9.107835254928624,6.77876048742524 L9.074525781781388,6.754622911557245 L9.04425091807151,6.730140059551384 L9.01705169322746,6.705345111323337 L8.992964968477116,6.680271669751204 L8.972023386892293,6.654953715135852 L8.954255329149841,6.629425559149756 L8.939684875069286,6.603721798336773 L8.928331770979106,6.577877267225829 L8.920211402955905,6.551926991122101 L8.915334775972722,6.5259061386396375 L8.91370849898476,6.499849974039774 " />
			<path d="M8.91370849898476,6.499849974039771 L8.916599404092347,6.4651145254881435 L8.925265154971488,6.430462757674543 L8.939684875069286,6.395978149742769 L8.959823826017008,6.361743778133824 L8.985633491317856,6.32784211644749 L9.01705169322746,6.294354836756205 L9.05400274254551,6.261362612849885 L9.096397620957672,6.2289449258856955 L9.144134195488498,6.19717987291099 L9.197097464548708,6.166143978720673 L9.255159834984108,6.135912011502273 L9.318181429458653,6.106556802712827 L9.386010423431213,6.078149071621521 L9.458483410914193,6.050757254940776 L9.53542579813286,6.0244473419562174 L9.616652224137047,5.9992827155527015 L9.701967007351918,5.975323999519394 L9.791164616992013,5.952628912501755 L9.884030168202921,5.9312521289522655 L9.980339939737716,5.911245147414881 L10.182356330602367,5.8755299685725335 L10.395268261308544,5.845827332670866 L10.617025273574049,5.822423292330725 L10.845491726146053,5.805543241254535 L11.078467362193816,5.795349743561735 L11.313708498984761,5.791940968207438 L11.548949635775706,5.795349743561735 L11.78192527182347,5.805543241254535 L12.010391724395472,5.822423292330725 L12.232148736660978,5.845827332670866 L12.445060667367155,5.8755299685725335 L12.647077058231805,5.911245147414881 L12.7433868297666,5.9312521289522655 L12.836252380977509,5.952628912501755 L12.925449990617604,5.975323999519393 L13.010764773832475,5.9992827155527015 L13.091991199836663,6.024447341956218 L13.16893358705533,6.050757254940776 L13.24140657453831,6.078149071621521 L13.30923556851087,6.106556802712827 L13.372257162985413,6.135912011502273 L13.430319533420812,6.166143978720673 L13.483282802481025,6.19717987291099 L13.531019377011848,6.2289449258856955 L13.57341425542401,6.261362612849884 L13.61036530474206,6.294354836756204 L13.641783506651667,6.327842116447489 L13.667593171952515,6.361743778133824 L13.687732122900236,6.39597814974277 L13.702151842998035,6.430462757674543 L13.710817593877175,6.4651145254881435 L13.713708498984762,6.499849974039765 " />
			<path d="M13.713708498984762,6.499849974039771 L13.710817593877175,6.534585422591398 L13.702151842998035,6.569237190404999 L13.687732122900236,6.603721798336772 L13.667593171952515,6.637956169945718 L13.641783506651667,6.671857831632051 L13.610365304742063,6.705345111323337 L13.57341425542401,6.738337335229658 L13.53101937701185,6.770755022193846 L13.483282802481025,6.802520075168552 L13.430319533420814,6.833555969358868 L13.372257162985415,6.8637879365772685 L13.30923556851087,6.8931431453667145 L13.24140657453831,6.921550876458022 L13.16893358705533,6.948942693138766 L13.091991199836663,6.975252606123323 L13.010764773832477,7.000417232526839 " />
			<path d="M18.667619023324857,8.668974760817072 L18.538177571566205,8.704442464067855 L18.400241079258983,8.737005347417506 L18.254557036206176,8.766486949779823 L18.10191491685954,8.79272750779724 L17.943141902089117,8.815584821612308 L17.779098396618473,8.834935025461046 L17.610673366416897,8.850673258912249 L17.43877952131585,8.862714235115238 L17.26434836895526,8.87099270297671 L17.088325166862944,8.875463800762056 L16.911663800022154,8.876103299204988 L16.735321611686196,8.872907732808038 L16.56025421545242,8.865894418622382 L16.38741031670931,8.855101362405243 L16.217726571519805,8.840587052663402 L16.052122510800928,8.822430143698906 L15.891495557306087,8.8007290293746 L15.73671616241341,8.775601309909243 L15.588623089074314,8.747183154591752 L15.448018866484393,8.715628563868018 L15.315665441108182,8.681108534799142 L15.19228004762524,8.643810134413554 L15.078531322173287,8.603935485974578 L14.975035678951034,8.561700673656945 L14.882353969816236,8.517334571567941 L14.800988444980879,8.471077603458783 L14.764689504421003,8.44731801571547 L14.731380031273769,8.423180439847476 L14.701105167563892,8.398697587841616 L14.673905942719841,8.373902639613569 L14.649819217969497,8.348829198041436 L14.628877636384674,8.323511243426083 L14.611109578642225,8.297983087439986 L14.59653912456167,8.272279326627004 L14.585186020471488,8.246434795516059 L14.577065652448287,8.22048451941233 L14.572189025465104,8.194463666929868 L14.570562748477142,8.168407502330005 " />
			<path d="M14.570562748477142,8.168407502330002 L14.573453653584728,8.133672053778374 L14.582119404463871,8.099020285964775 L14.59653912456167,8.064535678033 L14.61667807550939,8.030301306424056 L14.642487740810237,7.996399644737721 L14.673905942719841,7.962912365046436 L14.710856992037893,7.929920141140116 L14.753251870450054,7.8975024541759264 L14.800988444980879,7.865737401201221 L14.853951714041091,7.834701507010904 L14.912014084476489,7.804469539792504 L14.975035678951034,7.775114331003058 L15.042864672923594,7.746706599911752 L15.115337660406574,7.719314783231007 L15.19228004762524,7.693004870246448 L15.273506473629428,7.6678402438429325 L15.3588212568443,7.643881527809625 L15.448018866484395,7.621186440791986 L15.540884417695302,7.5998096572424965 L15.637194189230097,7.579802675705112 L15.839210580094747,7.5440874968627645 L16.052122510800928,7.514384860961097 L16.27387952306643,7.490980820620956 L16.502345975638434,7.474100769544766 L16.735321611686196,7.463907271851966 L16.970562748477143,7.460498496497669 L17.205803885268086,7.463907271851966 L17.43877952131585,7.474100769544766 L17.667245973887855,7.490980820620956 L17.889002986153358,7.514384860961097 L18.10191491685954,7.5440874968627645 L18.303931307724188,7.579802675705112 L18.400241079258983,7.5998096572424965 L18.49310663046989,7.621186440791986 L18.582304240109984,7.643881527809624 L18.667619023324857,7.6678402438429325 L18.748845449329046,7.693004870246449 L18.82578783654771,7.719314783231007 L18.89826082403069,7.746706599911752 L18.96608981800325,7.775114331003058 L19.029111412477796,7.804469539792504 L19.087173782913194,7.834701507010904 L19.140137051973404,7.865737401201221 L19.18787362650423,7.8975024541759264 L19.230268504916392,7.929920141140115 L19.267219554234444,7.962912365046435 L19.298637756144046,7.99639964473772 L19.324447421444894,8.030301306424054 L19.344586372392616,8.064535678033 L19.359006092490414,8.099020285964775 L19.367671843369557,8.133672053778374 L19.37056274847714,8.168407502329995 " />
			<path d="M19.37056274847714,8.168407502330002 L19.367671843369557,8.20314295088163 L19.359006092490414,8.237794718695229 L19.344586372392616,8.272279326627004 L19.324447421444894,8.306513698235948 L19.298637756144046,8.340415359922282 L19.267219554234444,8.373902639613569 L19.230268504916392,8.406894863519888 L19.18787362650423,8.439312550484077 L19.140137051973408,8.471077603458783 L19.087173782913194,8.5021134976491 L19.029111412477796,8.532345464867499 L18.96608981800325,8.561700673656945 L18.89826082403069,8.590108404748252 L18.82578783654771,8.617500221428996 L18.748845449329046,8.643810134413554 L18.66761902332486,8.66897476081707 " />
			<path d="M-15.273506473629428,1.9947446476561463 L-15.402947925388078,2.03021235090693 L-15.540884417695302,2.0627752342565824 L-15.68656846074811,2.0922568366188985 L-15.839210580094749,2.1184973946363144 L-15.997983594865167,2.1413547084513826 L-16.162027100335813,2.160704912300122 L-16.330452130537388,2.1764431457513234 L-16.502345975638434,2.188484121954313 L-16.676777127999024,2.1967625898157856 L-16.85280033009134,2.201233687601132 L-17.02946169693213,2.201873186044064 L-17.20580388526809,2.198677619647113 L-17.380871281501864,2.191664305461457 L-17.553715180244975,2.1808712492443183 L-17.72339892543448,2.166356939502477 L-17.889002986153358,2.148200030537982 L-18.0496299396482,2.126498916213674 L-18.204409334540873,2.101371196748318 L-18.35250240787997,2.0729530414308277 L-18.493106630469892,2.0413984507070926 L-18.625460055846105,2.0068784216382167 L-18.748845449329046,1.96958002125263 L-18.862594174780998,1.929705372813653 L-18.96608981800325,1.887470560496021 L-19.05877152713805,1.8431044584070175 L-19.140137051973408,1.796847490297858 L-19.176435992533282,1.773087902554546 L-19.209745465680516,1.7489503266865514 L-19.240020329390394,1.72446747468069 L-19.267219554234444,1.6996725264526429 L-19.291306278984788,1.6745990848805108 L-19.31224786056961,1.649281130265158 L-19.33001591831206,1.6237529742790624 L-19.344586372392616,1.5980492134660786 L-19.355939476482796,1.5722046823551352 L-19.364059844506,1.546254406251407 L-19.36893647148918,1.5202335537689433 L-19.37056274847714,1.4941773891690804 " />
			<path d="M-19.37056274847714,1.494177389169077 L-19.367671843369557,1.4594419406174501 L-19.359006092490414,1.4247901728038497 L-19.344586372392616,1.3903055648720752 L-19.324447421444894,1.35607119326313 L-19.298637756144046,1.3221695315767963 L-19.267219554234444,1.2886822518855112 L-19.230268504916392,1.2556900279791905 L-19.18787362650423,1.2232723410150017 L-19.140137051973404,1.191507288040296 L-19.087173782913194,1.1604713938499795 L-19.029111412477796,1.1302394266315796 L-18.96608981800325,1.1008842178421334 L-18.898260824030693,1.072476486750827 L-18.82578783654771,1.0450846700700827 L-18.748845449329046,1.0187747570855241 L-18.667619023324857,0.9936101306820077 L-18.582304240109988,0.9696514146487 L-18.493106630469892,0.9469563276310612 L-18.400241079258983,0.9255795440815717 L-18.303931307724188,0.9055725625441874 L-18.10191491685954,0.8698573837018395 L-17.889002986153358,0.8401547478001722 L-17.667245973887855,0.8167507074600309 L-17.43877952131585,0.7998706563838409 L-17.20580388526809,0.7896771586910407 L-16.970562748477143,0.7862683833367446 L-16.7353216116862,0.7896771586910407 L-16.502345975638434,0.7998706563838408 L-16.27387952306643,0.8167507074600308 L-16.052122510800928,0.8401547478001721 L-15.839210580094749,0.8698573837018394 L-15.637194189230097,0.9055725625441873 L-15.540884417695304,0.9255795440815716 L-15.448018866484395,0.9469563276310611 L-15.358821256844301,0.9696514146486995 L-15.273506473629428,0.9936101306820074 L-15.192280047625239,1.0187747570855243 L-15.115337660406574,1.0450846700700827 L-15.042864672923594,1.0724764867508267 L-14.975035678951034,1.1008842178421332 L-14.912014084476489,1.1302394266315794 L-14.853951714041091,1.160471393849979 L-14.800988444980879,1.1915072880402957 L-14.753251870450056,1.2232723410150013 L-14.710856992037893,1.2556900279791898 L-14.673905942719841,1.2886822518855103 L-14.642487740810237,1.3221695315767954 L-14.616678075509391,1.3560711932631297 L-14.59653912456167,1.3903055648720757 L-14.582119404463871,1.4247901728038497 L-14.573453653584728,1.45944194061745 L-14.570562748477142,1.4941773891690706 " />
			<path d="M-14.570562748477142,1.494177389169077 L-14.573453653584728,1.5289128377207042 L-14.582119404463871,1.5635646055343044 L-14.59653912456167,1.5980492134660786 L-14.61667807550939,1.632283585075024 L-14.642487740810237,1.6661852467613578 L-14.673905942719841,1.6996725264526429 L-14.710856992037893,1.7326647503589638 L-14.753251870450054,1.7650824373231524 L-14.800988444980879,1.796847490297858 L-14.853951714041091,1.8278833844881746 L-14.912014084476489,1.8581153517065745 L-14.975035678951034,1.887470560496021 L-15.042864672923596,1.9158782915873274 L-15.115337660406574,1.9432701082680717 L-15.19228004762524,1.96958002125263 L-15.273506473629427,1.994744647656146 " />
			<path d="M-9.616652224137047,3.663302175946378 L-9.746093675895697,3.6987698791971617 L-9.884030168202921,3.7313327625468142 L-10.029714211255728,3.7608143649091303 L-10.182356330602367,3.787054922926546 L-10.341129345372785,3.8099122367416145 L-10.505172850843433,3.829262440590354 L-10.673597881045005,3.845000674041555 L-10.845491726146053,3.857041650244545 L-11.019922878506643,3.8653201181060175 L-11.195946080598958,3.8697912158913637 L-11.372607447439751,3.870430714334296 L-11.548949635775706,3.867235147937345 L-11.724017032009485,3.8602218337516887 L-11.896860930752595,3.84942877753455 L-12.066544675942101,3.834914467792709 L-12.232148736660976,3.816757558828214 L-12.392775690155817,3.795056444503906 L-12.547555085048494,3.76992872503855 L-12.69564815838759,3.7415105697210596 L-12.83625238097751,3.7099559789973244 L-12.968605806353722,3.6754359499284486 L-13.091991199836663,3.638137549542862 L-13.205739925288617,3.598262901103885 L-13.30923556851087,3.5560280887862525 L-13.40191727764567,3.5116619866972494 L-13.483282802481025,3.46540501858809 L-13.519581743040899,3.441645430844778 L-13.552891216188135,3.417507854976783 L-13.583166079898012,3.393025002970922 L-13.610365304742063,3.3682300547428747 L-13.634452029492406,3.3431566131707426 L-13.65539361107723,3.31783865855539 L-13.67316166881968,3.2923105025692943 L-13.687732122900236,3.2666067417563105 L-13.699085226990416,3.240762210645367 L-13.707205595013617,3.214811934541639 L-13.7120822219968,3.188791082059175 L-13.713708498984762,3.162734917459312 " />
			<path d="M-13.713708498984762,3.162734917459309 L-13.710817593877175,3.127999468907682 L-13.702151842998035,3.0933477010940815 L-13.687732122900236,3.0588630931623073 L-13.667593171952515,3.024628721553362 L-13.641783506651667,2.9907270598670284 L-13.610365304742063,2.957239780175743 L-13.573414255424012,2.9242475562694223 L-13.53101937701185,2.8918298693052336 L-13.483282802481025,2.860064816330528 L-13.430319533420814,2.8290289221402114 L-13.372257162985415,2.7987969549218117 L-13.30923556851087,2.7694417461323653 L-13.24140657453831,2.741034015041059 L-13.16893358705533,2.7136421983603145 L-13.091991199836663,2.687332285375756 L-13.010764773832475,2.6621676589722396 L-12.925449990617604,2.638208942938932 L-12.836252380977509,2.615513855921293 L-12.743386829766601,2.5941370723718036 L-12.647077058231806,2.5741300908344193 L-12.445060667367155,2.5384149119920716 L-12.232148736660978,2.508712276090404 L-12.010391724395474,2.4853082357502627 L-11.78192527182347,2.4684281846740728 L-11.548949635775706,2.458234686981273 L-11.313708498984761,2.4548259116269766 L-11.078467362193816,2.458234686981273 L-10.845491726146053,2.4684281846740728 L-10.61702527357405,2.4853082357502627 L-10.395268261308544,2.508712276090404 L-10.182356330602367,2.538414911992071 L-9.980339939737718,2.5741300908344193 L-9.884030168202923,2.5941370723718036 L-9.791164616992013,2.615513855921293 L-9.701967007351918,2.6382089429389315 L-9.616652224137047,2.662167658972239 L-9.53542579813286,2.6873322853757564 L-9.458483410914193,2.7136421983603145 L-9.386010423431213,2.7410340150410586 L-9.318181429458653,2.7694417461323653 L-9.25515983498411,2.7987969549218112 L-9.19709746454871,2.829028922140211 L-9.144134195488498,2.8600648163305276 L-9.096397620957674,2.891829869305233 L-9.054002742545512,2.9242475562694215 L-9.017051693227462,2.957239780175742 L-8.985633491317856,2.9907270598670275 L-8.959823826017008,3.024628721553362 L-8.939684875069286,3.0588630931623073 L-8.925265154971488,3.0933477010940815 L-8.916599404092347,3.1279994689076815 L-8.91370849898476,3.1627349174593022 " />
			<path d="M-8.91370849898476,3.162734917459309 L-8.916599404092347,3.1974703660109363 L-8.925265154971488,3.2321221338245363 L-8.939684875069286,3.2666067417563105 L-8.959823826017008,3.300841113365256 L-8.985633491317856,3.33474277505159 L-9.01705169322746,3.3682300547428747 L-9.054002742545512,3.4012222786491955 L-9.096397620957672,3.4336399656133842 L-9.144134195488498,3.46540501858809 L-9.197097464548708,3.4964409127784064 L-9.255159834984108,3.5266728799968066 L-9.318181429458653,3.5560280887862525 L-9.386010423431213,3.584435819877559 L-9.458483410914193,3.6118276365583037 L-9.53542579813286,3.638137549542862 L-9.616652224137045,3.6633021759463777 " />
			<path d="M-3.9597979746446654,5.331859704236609 L-4.089239426403315,5.367327407487393 L-4.2271759187105395,5.399890290837045 L-4.372859961763346,5.429371893199361 L-4.525502081109985,5.455612451216777 L-4.684275095880404,5.4784697650318455 L-4.8483186013510515,5.497819968880584 L-5.0167436315526235,5.513558202331787 L-5.188637476653672,5.525599178534776 L-5.36306862901426,5.533877646396249 L-5.539091831106576,5.538348744181595 L-5.715753197947369,5.5389882426245265 L-5.892095386283326,5.535792676227576 L-6.067162782517102,5.528779362041919 L-6.240006681260213,5.517986305824781 L-6.409690426449719,5.50347199608294 L-6.575294487168595,5.485315087118445 L-6.735921440663436,5.463613972794137 L-6.890700835556112,5.438486253328781 L-7.038793908895208,5.4100680980112905 L-7.179398131485129,5.378513507287556 L-7.31175155686134,5.34399347821868 L-7.4351369503442815,5.306695077833092 L-7.548885675796235,5.266820429394116 L-7.652381319018488,5.2245856170764835 L-7.745063028153287,5.18021951498748 L-7.826428552988643,5.133962546878321 L-7.862727493548518,5.110202959135009 L-7.896036966695753,5.086065383267014 L-7.926311830405631,5.061582531261153 L-7.953511055249681,5.036787583033106 L-7.977597780000025,5.011714141460973 L-7.998539361584848,4.986396186845621 L-8.016307419327298,4.960868030859525 L-8.030877873407853,4.935164270046542 L-8.042230977498035,4.909319738935598 L-8.050351345521236,4.88336946283187 L-8.055227972504419,4.857348610349407 L-8.05685424949238,4.831292445749543 " />
			<path d="M-8.05685424949238,4.83129244574954 L-8.053963344384794,4.7965569971979125 L-8.045297593505651,4.761905229384312 L-8.030877873407853,4.727420621452538 L-8.010738922460133,4.693186249843593 L-7.984929257159285,4.659284588157259 L-7.953511055249681,4.625797308465974 L-7.91656000593163,4.592805084559654 L-7.874165127519468,4.5603873975954645 L-7.826428552988643,4.528622344620759 L-7.773465283928432,4.497586450430442 L-7.715402913493033,4.467354483212042 L-7.652381319018488,4.437999274422596 L-7.584552325045928,4.40959154333129 L-7.512079337562948,4.382199726650545 L-7.4351369503442815,4.3558898136659865 L-7.353910524340094,4.330725187262471 L-7.268595741125224,4.306766471229163 L-7.179398131485128,4.284071384211524 L-7.086532580274219,4.2626946006620345 L-6.990222808739425,4.24268761912465 L-6.7882064178747745,4.2069724402823025 L-6.5752944871685965,4.177269804380635 L-6.353537474903091,4.153865764040494 L-6.125071022331088,4.136985712964304 L-5.892095386283325,4.126792215271504 L-5.65685424949238,4.123383439917207 L-5.4216131127014355,4.126792215271504 L-5.188637476653672,4.136985712964304 L-4.960171024081669,4.153865764040494 L-4.738414011816164,4.177269804380635 L-4.525502081109986,4.2069724402823025 L-4.323485690245335,4.24268761912465 L-4.22717591871054,4.2626946006620345 L-4.134310367499632,4.284071384211524 L-4.045112757859537,4.306766471229162 L-3.9597979746446663,4.330725187262471 L-3.878571548640477,4.355889813665987 L-3.8016291614218103,4.382199726650545 L-3.729156173938832,4.40959154333129 L-3.661327179966271,4.437999274422596 L-3.598305585491727,4.467354483212042 L-3.540243215056328,4.497586450430442 L-3.487279945996116,4.528622344620759 L-3.4395433714652923,4.5603873975954645 L-3.397148493053131,4.592805084559653 L-3.3601974437350792,4.625797308465973 L-3.3287792418254747,4.659284588157258 L-3.302969576524627,4.693186249843593 L-3.2828306255769055,4.727420621452539 L-3.268410905479107,4.761905229384312 L-3.259745154599966,4.7965569971979125 L-3.25685424949238,4.831292445749534 " />
			<path d="M-3.25685424949238,4.83129244574954 L-3.259745154599966,4.866027894301167 L-3.268410905479107,4.900679662114768 L-3.2828306255769055,4.935164270046541 L-3.3029695765246267,4.969398641655487 L-3.3287792418254742,5.00330030334182 L-3.360197443735079,5.036787583033106 L-3.39714849305313,5.069779806939427 L-3.4395433714652914,5.102197493903615 L-3.4872799459961157,5.133962546878321 L-3.5402432150563277,5.164998441068637 L-3.5983055854917265,5.1952304082870375 L-3.661327179966271,5.2245856170764835 L-3.729156173938832,5.252993348167791 L-3.801629161421811,5.280385164848535 L-3.878571548640478,5.306695077833092 L-3.9597979746446637,5.331859704236608 " />
			<path d="M1.6970562748477145,7.00041723252684 L1.5676148230890645,7.035884935777624 L1.4296783307818408,7.068447819127276 L1.2839942877290338,7.097929421489592 L1.131352168382395,7.124169979507008 L0.9725791536119764,7.147027293322076 L0.808535648141329,7.166377497170815 L0.6401106179397567,7.182115730622018 L0.46821677283870844,7.194156706825007 L0.2937856204781195,7.20243517468648 L0.11776241838580341,7.206906272471826 L-0.058898948454989226,7.2075457709147575 L-0.2352411367909451,7.204350204517807 L-0.41030853302472253,7.19733689033215 L-0.5831524317678328,7.186543834115012 L-0.752836176957339,7.172029524373171 L-0.9184402376762149,7.153872615408676 L-1.0790671911710557,7.132171501084368 L-1.2338465860637315,7.107043781619012 L-1.3819396594028284,7.0786256263015215 L-1.5225438819927493,7.047071035577787 L-1.6548973073689601,7.012551006508911 L-1.7782827008519015,6.975252606123323 L-1.892031426303855,6.935377957684347 L-1.9955270695261083,6.8931431453667145 L-2.0882087786609067,6.848777043277711 L-2.1695743034962636,6.802520075168552 L-2.205873244056138,6.77876048742524 L-2.239182717203373,6.754622911557245 L-2.269457580913251,6.730140059551384 L-2.2966568057573005,6.705345111323337 L-2.3207435305076443,6.680271669751204 L-2.3416851120924678,6.654953715135852 L-2.3594531698349184,6.629425559149756 L-2.3740236239154737,6.603721798336773 L-2.385376728005654,6.577877267225829 L-2.393497096028856,6.551926991122101 L-2.3983737230120385,6.5259061386396375 L-2.3999999999999995,6.499849974039774 " />
			<path d="M-2.3999999999999995,6.499849974039771 L-2.3971090948924134,6.4651145254881435 L-2.388443344013272,6.430462757674543 L-2.3740236239154737,6.395978149742769 L-2.3538846729677525,6.361743778133824 L-2.328075007666905,6.32784211644749 L-2.296656805757301,6.294354836756205 L-2.2597057564392498,6.261362612849885 L-2.217310878027088,6.2289449258856955 L-2.169574303496263,6.19717987291099 L-2.1166110344360516,6.166143978720673 L-2.0585486640006527,6.135912011502273 L-1.9955270695261085,6.106556802712827 L-1.9276980755535482,6.078149071621521 L-1.8552250880705685,6.050757254940776 L-1.7782827008519013,6.0244473419562174 L-1.697056274847714,5.9992827155527015 L-1.6117414916328434,5.975323999519394 L-1.522543881992748,5.952628912501755 L-1.429678330781839,5.9312521289522655 L-1.3333685592470448,5.911245147414881 L-1.1313521683823944,5.8755299685725335 L-0.9184402376762163,5.845827332670866 L-0.6966832254107114,5.822423292330725 L-0.46821677283870833,5.805543241254535 L-0.23524113679094463,5.795349743561735 L3.216362157015501e-18,5.791940968207438 L0.23524113679094466,5.795349743561735 L0.46821677283870833,5.805543241254535 L0.6966832254107115,5.822423292330725 L0.9184402376762164,5.845827332670866 L1.1313521683823946,5.8755299685725335 L1.3333685592470448,5.911245147414881 L1.4296783307818395,5.9312521289522655 L1.5225438819927481,5.952628912501755 L1.6117414916328427,5.975323999519393 L1.697056274847714,5.9992827155527015 L1.778282700851903,6.024447341956218 L1.8552250880705696,6.050757254940776 L1.9276980755535484,6.078149071621521 L1.995527069526109,6.106556802712827 L2.058548664000653,6.135912011502273 L2.116611034436052,6.166143978720673 L2.169574303496264,6.19717987291099 L2.217310878027088,6.2289449258856955 L2.2597057564392493,6.261362612849884 L2.296656805757301,6.294354836756204 L2.3280750076669054,6.327842116447489 L2.353884672967753,6.361743778133824 L2.3740236239154746,6.39597814974277 L2.388443344013273,6.430462757674543 L2.3971090948924143,6.4651145254881435 L2.4000000000000004,6.499849974039765 " />
			<path d="M2.4000000000000004,6.499849974039771 L2.3971090948924143,6.534585422591398 L2.388443344013273,6.569237190404999 L2.3740236239154746,6.603721798336772 L2.3538846729677534,6.637956169945718 L2.328075007666906,6.671857831632051 L2.2966568057573014,6.705345111323337 L2.25970575643925,6.738337335229658 L2.2173108780270887,6.770755022193846 L2.1695743034962645,6.802520075168552 L2.1166110344360525,6.833555969358868 L2.0585486640006536,6.8637879365772685 L1.995527069526109,6.8931431453667145 L1.9276980755535482,6.921550876458022 L1.8552250880705692,6.948942693138766 L1.7782827008519022,6.975252606123323 L1.6970562748477165,7.000417232526839 " />
			<path d="M7.353910524340096,8.668974760817072 L7.224469072581446,8.704442464067855 L7.086532580274222,8.737005347417506 L6.940848537221415,8.766486949779823 L6.788206417874776,8.79272750779724 L6.629433403104358,8.815584821612308 L6.46538989763371,8.834935025461046 L6.296964867432138,8.850673258912249 L6.125071022331089,8.862714235115238 L5.950639869970501,8.87099270297671 L5.774616667878185,8.875463800762056 L5.597955301037392,8.876103299204988 L5.4216131127014355,8.872907732808038 L5.246545716467659,8.865894418622382 L5.073701817724548,8.855101362405243 L4.904018072535042,8.840587052663402 L4.738414011816166,8.822430143698906 L4.577787058321325,8.8007290293746 L4.423007663428649,8.775601309909243 L4.274914590089553,8.747183154591752 L4.134310367499632,8.715628563868018 L4.001956942123421,8.681108534799142 L3.8785715486404797,8.643810134413554 L3.764822823188526,8.603935485974578 L3.661327179966273,8.561700673656945 L3.5686454708314743,8.517334571567941 L3.4872799459961175,8.471077603458783 L3.450981005436243,8.44731801571547 L3.417671532289008,8.423180439847476 L3.38739666857913,8.398697587841616 L3.3601974437350806,8.373902639613569 L3.3361107189847368,8.348829198041436 L3.3151691373999133,8.323511243426083 L3.2974010796574627,8.297983087439986 L3.2828306255769073,8.272279326627004 L3.271477521486727,8.246434795516059 L3.263357153463525,8.22048451941233 L3.2584805264803425,8.194463666929868 L3.2568542494923816,8.168407502330005 " />
			<path d="M3.2568542494923816,8.168407502330002 L3.2597451545999676,8.133672053778374 L3.268410905479109,8.099020285964775 L3.2828306255769073,8.064535678033 L3.3029695765246285,8.030301306424056 L3.328779241825476,7.996399644737721 L3.36019744373508,7.962912365046436 L3.3971484930531313,7.929920141140116 L3.439543371465293,7.8975024541759264 L3.487279945996118,7.865737401201221 L3.5402432150563294,7.834701507010904 L3.5983055854917283,7.804469539792504 L3.6613271799662725,7.775114331003058 L3.729156173938833,7.746706599911752 L3.8016291614218125,7.719314783231007 L3.8785715486404797,7.693004870246448 L3.959797974644667,7.6678402438429325 L4.045112757859537,7.643881527809625 L4.1343103674996335,7.621186440791986 L4.227175918710542,7.5998096572424965 L4.323485690245336,7.579802675705112 L4.525502081109987,7.5440874968627645 L4.738414011816165,7.514384860961097 L4.96017102408167,7.490980820620956 L5.188637476653673,7.474100769544766 L5.421613112701436,7.463907271851966 L5.6568542494923815,7.460498496497669 L5.892095386283326,7.463907271851966 L6.125071022331089,7.474100769544766 L6.353537474903092,7.490980820620956 L6.575294487168597,7.514384860961097 L6.788206417874775,7.5440874968627645 L6.990222808739426,7.579802675705112 L7.086532580274221,7.5998096572424965 L7.179398131485129,7.621186440791986 L7.268595741125224,7.643881527809624 L7.353910524340095,7.6678402438429325 L7.435136950344284,7.693004870246449 L7.512079337562951,7.719314783231007 L7.584552325045929,7.746706599911752 L7.65238131901849,7.775114331003058 L7.715402913493034,7.804469539792504 L7.773465283928433,7.834701507010904 L7.826428552988645,7.865737401201221 L7.874165127519468,7.8975024541759264 L7.916560005931631,7.929920141140115 L7.953511055249682,7.962912365046435 L7.984929257159287,7.99639964473772 L8.010738922460135,8.030301306424054 L8.030877873407857,8.064535678033 L8.045297593505655,8.099020285964775 L8.053963344384796,8.133672053778374 L8.056854249492382,8.168407502329995 " />
			<path d="M8.056854249492382,8.168407502330002 L8.053963344384796,8.20314295088163 L8.045297593505655,8.237794718695229 L8.030877873407857,8.272279326627004 L8.010738922460135,8.306513698235948 L7.984929257159287,8.340415359922282 L7.953511055249683,8.373902639613569 L7.916560005931631,8.406894863519888 L7.87416512751947,8.439312550484077 L7.826428552988645,8.471077603458783 L7.7734652839284335,8.5021134976491 L7.715402913493035,8.532345464867499 L7.65238131901849,8.561700673656945 L7.584552325045929,8.590108404748252 L7.51207933756295,8.617500221428996 L7.435136950344283,8.643810134413554 L7.3539105243400975,8.66897476081707 " />
			<path d="M13.010764773832475,10.337532289107305 L12.881323322073825,10.372999992358087 L12.743386829766601,10.405562875707739 L12.597702786713795,10.435044478070056 L12.445060667367155,10.461285036087473 L12.286287652596737,10.484142349902541 L12.12224414712609,10.503492553751279 L11.953819116924517,10.519230787202481 L11.78192527182347,10.53127176340547 L11.60749411946288,10.539550231266944 L11.431470917370564,10.544021329052288 L11.254809550529771,10.544660827495221 L11.078467362193816,10.54146526109827 L10.903399965960038,10.534451946912615 L10.730556067216927,10.523658890695476 L10.560872322027421,10.509144580953635 L10.395268261308546,10.490987671989139 L10.234641307813705,10.469286557664832 L10.079861912921029,10.444158838199476 L9.931768839581933,10.415740682881985 L9.791164616992011,10.38418609215825 L9.6588111916158,10.349666063089375 L9.53542579813286,10.312367662703787 L9.421677072680906,10.27249301426481 L9.318181429458653,10.230258201947178 L9.225499720323853,10.185892099858174 L9.144134195488498,10.139635131749015 L9.107835254928624,10.115875544005704 L9.074525781781388,10.091737968137709 L9.04425091807151,10.067255116131848 L9.01705169322746,10.042460167903801 L8.992964968477116,10.017386726331669 L8.972023386892293,9.992068771716315 L8.954255329149841,9.966540615730219 L8.939684875069286,9.940836854917237 L8.928331770979106,9.914992323806292 L8.920211402955905,9.889042047702564 L8.915334775972722,9.863021195220101 L8.91370849898476,9.836965030620238 " />
			<path d="M8.91370849898476,9.836965030620235 L8.916599404092347,9.802229582068607 L8.925265154971488,9.767577814255008 L8.939684875069286,9.733093206323232 L8.959823826017008,9.698858834714288 L8.985633491317856,9.664957173027954 L9.01705169322746,9.63146989333667 L9.05400274254551,9.598477669430348 L9.096397620957672,9.56605998246616 L9.144134195488498,9.534294929491454 L9.197097464548708,9.503259035301136 L9.255159834984108,9.473027068082738 L9.318181429458653,9.443671859293291 L9.386010423431213,9.415264128201985 L9.458483410914193,9.38787231152124 L9.53542579813286,9.361562398536682 L9.616652224137047,9.336397772133164 L9.701967007351918,9.312439056099857 L9.791164616992013,9.289743969082219 L9.884030168202921,9.268367185532728 L9.980339939737716,9.248360203995345 L10.182356330602367,9.212645025152996 L10.395268261308544,9.18294238925133 L10.617025273574049,9.159538348911187 L10.845491726146053,9.142658297834998 L11.078467362193816,9.132464800142198 L11.313708498984761,9.129056024787902 L11.548949635775706,9.132464800142198 L11.78192527182347,9.142658297834998 L12.010391724395472,9.159538348911187 L12.232148736660978,9.18294238925133 L12.445060667367155,9.212645025152996 L12.647077058231805,9.248360203995345 L12.7433868297666,9.268367185532728 L12.836252380977509,9.289743969082219 L12.925449990617604,9.312439056099857 L13.010764773832475,9.336397772133164 L13.091991199836663,9.361562398536682 L13.16893358705533,9.38787231152124 L13.24140657453831,9.415264128201985 L13.30923556851087,9.443671859293291 L13.372257162985413,9.473027068082738 L13.430319533420812,9.503259035301136 L13.483282802481025,9.534294929491454 L13.531019377011848,9.56605998246616 L13.57341425542401,9.598477669430347 L13.61036530474206,9.631469893336668 L13.641783506651667,9.664957173027952 L13.667593171952515,9.698858834714287 L13.687732122900236,9.733093206323232 L13.702151842998035,9.767577814255008 L13.710817593877175,9.802229582068607 L13.713708498984762,9.836965030620227 " />
			<path d="M13.713708498984762,9.836965030620235 L13.710817593877175,9.871700479171862 L13.702151842998035,9.906352246985461 L13.687732122900236,9.940836854917237 L13.667593171952515,9.97507122652618 L13.641783506651667,10.008972888212515 L13.610365304742063,10.042460167903801 L13.57341425542401,10.07545239181012 L13.53101937701185,10.10787007877431 L13.483282802481025,10.139635131749015 L13.430319533420814,10.170671025939333 L13.372257162985415,10.200902993157731 L13.30923556851087,10.230258201947178 L13.24140657453831,10.258665933038484 L13.16893358705533,10.286057749719228 L13.091991199836663,10.312367662703787 L13.010764773832477,10.337532289107303 " />
			<path d="M-8.91370849898476,-1.894296262714711 L-8.91370849898476,-0.1743801391211548 " />
			<path d="M-13.713708498984762,-1.8942962627147102 L-13.713708498984762,-0.1743801391211539 " />
			<path d="M-3.2568542494923793,-0.22573873442447923 L-3.2568542494923793,1.494177389169077 " />
			<path d="M-8.05685424949238,-0.22573873442447923 L-8.05685424949238,1.494177389169077 " />
			<path d="M2.400000000000001,1.4428187938657526 L2.400000000000001,3.162734917459309 " />
			<path d="M-2.4,1.4428187938657526 L-2.4,3.162734917459309 " />
			<path d="M8.056854249492382,3.1113763221559836 L8.056854249492382,4.83129244574954 " />
			<path d="M3.256854249492381,3.1113763221559836 L3.256854249492381,4.83129244574954 " />
			<path d="M13.713708498984762,4.7799338504462145 L13.713708498984762,6.499849974039771 " />
			<path d="M8.91370849898476,4.7799338504462145 L8.91370849898476,6.499849974039771 " />
			<path d="M19.37056274847714,6.4484913787364455 L19.37056274847714,8.168407502330002 " />
			<path d="M14.570562748477142,6.4484913787364455 L14.570562748477142,8.168407502330002 " />
			<path d="M-14.570562748477142,-0.22573873442447923 L-14.570562748477142,1.494177389169077 " />
			<path d="M-19.37056274847714,-0.22573873442447923 L-19.37056274847714,1.494177389169077 " />
			<path d="M-8.91370849898476,1.4428187938657526 L-8.91370849898476,3.162734917459309 " />
			<path d="M-13.713708498984762,1.4428187938657526 L-13.713708498984762,3.162734917459309 " />
			<path d="M-3.2568542494923802,3.1113763221559836 L-3.2568542494923802,4.83129244574954 " />
			<path d="M-8.056854249492382,3.1113763221559836 L-8.056854249492382,4.83129244574954 " />
			<path d="M2.400000000000001,4.7799338504462145 L2.400000000000001,6.499849974039771 " />
			<path d="M-2.4000000000000004,4.7799338504462145 L-2.4000000000000004,6.499849974039771 " />
			<path d="M8.05685424949238,6.4484913787364455 L8.05685424949238,8.168407502330002 " />
			<path d="M3.2568542494923793,6.4484913787364455 L3.2568542494923793,8.168407502330002 " />
			<path d="M13.713708498984762,8.117048907026678 L13.713708498984762,9.836965030620235 " />
			<path d="M8.91370849898476,8.117048907026678 L8.91370849898476,9.836965030620235 " />

        </g>
        </g>
    </svg>
    