<?xml version="1.0" encoding="UTF-8" standalone="no"?>
    <svg
    xmlns:svg="http://www.w3.org/2000/svg"
    xmlns="http://www.w3.org/2000/svg"
    width="247"
    height="312"
    >
        <g transform="scale(20, -20)   translate(6.082915408553297,-8.052776119062894)" stroke-width="0.05"  fill="none">
        <!-- hidden lines -->
        <g  stroke="rgb(160,160,160)" fill="none" stroke-dasharray="0.05,0.05" >
    
        </g>

        <!-- solid lines -->
        <g  stroke="rgb(0,0,0)" fill="none">
    			<path d="M-3.9415066137373556,5.439300495340368 L2.9646628947596945,0.3315730286389966 " />
			<path d="M-3.9415066137373556,5.439300495340368 L-3.9632160481084098,5.453975503783876 L-3.984527243764677,5.4656187903239735 L-4.005052873044552,5.474018485173229 L-4.024419848204151,5.479021464749732 L-4.0422758993379,5.48053629662214 L-4.058296138365156,5.478534951164028 L-4.072188790553213,5.473053495277385 L-4.083700728571203,5.464191445836335 " />
			<path d="M2.9646628947596945,0.3315730286389966 L2.986844426275519,0.31372573324235076 L3.008601246057195,0.29333559221672123 L3.029520270821238,0.2707894088491691 L3.049204551612442,0.24651459573300386 L3.067280337947504,0.22097156246769617 L3.0834039330578804,0.19464552714086736 L3.097268965243783,0.16803627451370698 L3.108611394331953,0.14165010771314857 L3.1172151978340095,0.11598929264462925 L3.122916486674239,0.09154236770925878 L3.125606524501709,0.0687752446065254 L3.1252339978964985,0.04812219987545582 L3.121806005171558,0.029976618795023894 L3.1153879531280615,0.01468461642777398 L3.1061022089518784,0.002537411387761604 L3.0941256230114424,-0.006233893133381227 " />
			<path d="M3.378851869080476,0.6815775448291339 L3.2900675201496337,0.5840735125197212 L3.1959725269147694,0.48932501609314105 L3.0967234787752362,0.3974897324845317 L2.992485542317493,0.3087204905682679 " />
			<path d="M3.37885186908035,0.6815775448290804 L3.433757432998748,0.6921795569813427 L3.489732823834972,0.7030340755553195 L3.5467998369077183,0.7141453270099611 L3.60498069258416,0.7255176377691326 L3.6642980449319627,0.7371554359061965 L3.724774990540169,0.7490632528681997 L3.7864350775123965,0.7612457252402849 L3.8493023146358345,0.7737075965510627 L3.9134011807296263,0.7864537191196117 L3.978756634176265,0.7994890559448362 L4.045394122639717,0.8128186826379356 L4.113339592974067,0.8264477893986997 L4.1826195013265215,0.8403816830364428 L4.253260823438712,0.8546257890363259 " />
			<path d="M-2.8808690784763282,6.130950270529855 L-2.81022775636412,6.012215065435834 L-2.7409478480116656,5.89580384617004 L-2.6730023776773164,5.781671285320085 L-2.6063648892138636,5.6697729427221715 L-2.5410094357672257,5.560065248157275 L-2.476910569673434,5.452505484386073 L-2.414043332549996,5.34705177051599 L-2.3523832455777685,5.2436630456939035 L-2.291906299969562,5.142299053118144 L-2.2325889476217595,5.042920324363578 L-2.1744080919453177,4.945488164013654 L-2.1173410788725713,4.84996463459345 L-2.0613656880363482,4.756312541797827 L-2.0064601241179636,4.664495420008999 " />
			<path d="M-2.510226638656746,4.380741473256672 L-2.39024930902798,4.45729622910692 L-2.26615797243743,4.5301860769402555 L-2.1381577251747,4.599290545515484 L-2.0064601241180062,4.664495420009157 " />
			<path d="M3.3788518690802585,0.6815775448292374 L-2.006460124117859,4.664495420009 " />
			<path d="M-1.817296701971796,-2.863322061508612 L-1.96030518698326,-2.836187149944359 " />
			<path d="M-2.8716001484994766,-4.0131784528143495 L-2.884500180689826,-4.086583762465855 L-2.8937258538074175,-4.160275858737059 L-2.8992658059244336,-4.234159343860851 L-2.9011132148247913,-4.3081385842179305 " />
			<path d="M-2.901113214824791,-4.308138584217933 L-2.8974995746163756,-4.4115890850913235 L-2.8866673621256456,-4.514777680802838 L-2.8686426772290665,-4.617443090066795 L-2.843468947220953,-4.719325292061212 L-2.8112068219070183,-4.820166152953319 L-2.7719340272647752,-4.919710047848641 L-2.725745178024991,-5.017704476666564 L-2.672751549624046,-5.113900672461288 L-2.6130808100724456,-5.208054200726055 L-2.5468767123795932,-5.299925548240845 L-2.4742987482688696,-5.389280700049001 L-2.395521764009718,-5.475891703176927 L-2.310735539284548,-5.559537215742628 L-2.220144330097511,-5.640003040133806 L-2.123966376819228,-5.717082638974144 L-2.0224333785461686,-5.790577632637419 L-1.915789935035336,-5.860298277113019 L-1.8042929575537843,-5.9260639210733626 L-1.6882110500583614,-5.9877034410432 L-1.5678238621933667,-6.0450556536232405 L-1.4434214156626504,-6.0979697037753 L-1.315303405597591,-6.14630542823355 L-1.1837784786034593,-6.189933693165991 L-1.0491634892234938,-6.228736705272151 L-0.911782736612682,-6.262608295566679 L-0.7719671832613535,-6.291454175164286 L-0.6300536576524391,-6.315192162448737 L-0.4863840427752084,-6.333752381077544 L-0.34130445245266583,-6.347077428344246 L-0.19516439746920722,-6.3551225134915885 L-0.04831594350986479,-6.35785556564139 L0.09888713705792629,-6.355257311080152 L0.24609021751429516,-6.347321319713416 L0.3929386711731526,-6.33405402057624 L0.5390787257644409,-6.315474686361906 L0.6841583157524425,-6.291615387005687 L0.8278279305354079,-6.2625209124352565 L0.969741456482029,-6.228248664673655 L1.109557010775371,-6.188868519554845 L1.2469377650550197,-6.144462658385015 L1.3815527568730084,-6.095125369955503 L1.5130776870088147,-6.0409628233845964 L1.6411957007230376,-5.982092812335893 L1.765598151068282,-5.918644471229921 L1.8859853424193371,-5.850757964133172 L2.002067252432454,-5.778584147074664 L2.113564230695773,-5.702284204604075 L2.2202076723891153,-5.622029261467578 L2.321740665331732,-5.537999970337442 L2.417918608860661,-5.450386076589108 L2.5085098030502815,-5.359385961174635 L2.593296006854973,-5.265206162694242 L2.6720729638316687,-5.1680608798175935 L2.744650894176951,-5.068171455253788 L2.8108549518944477,-4.965765842513396 L2.8705256459920703,-4.861078056747241 L2.923519224695049,-4.754347610984858 L2.9697080217496215,-4.6458189391307485 L3.0089807639834447,-4.535740807108276 L3.041242839381572,-4.424365713569557 L3.0664165250321203,-4.311949281614815 L3.0844411743919427,-4.198749642986224 L3.0952733634203753,-4.085026816219299 L3.0988869952282005,-3.9710420802496222 " />
			<path d="M3.0988869952282005,-3.971042080249615 L3.0973678136828138,-3.8971239924837238 L3.092811807417478,-3.8232773096445785 L3.0852235903432854,-3.749573364051223 L3.0746108473618854,-3.676083343467219 " />
			<path d="M-2.871600149467132,-3.338988229688652 L-2.884500044838174,-3.412393028126088 L-2.893725649392846,-3.4860846017416987 L-2.899265582561513,-3.5599675584780037 L-2.901112993488553,-3.633946272006535 " />
			<path d="M-2.9011129934885536,-3.633946272006553 L-2.897499306137561,-3.7373967245590927 L-2.886667009278661,-3.840585256291908 L-2.8686422587799982,-3.9432505986175252 L-2.8434685082403592,-4.045132738766137 L-2.8112064139819553,-4.1459735474612 L-2.7719336962407075,-4.245517401808629 L-2.725744957336367,-4.343511801931659 L-2.672751457641029,-4.4397079798962915 L-2.6130808502068827,-4.53386149948848 L-2.5468768749615833,-4.625732845423816 L-2.474299013431604,-4.715088000593452 L-2.3955221050095377,-4.801699009976376 L-2.3107359258397935,-4.885344529877907 L-2.220144731457889,-4.965810361187302 L-2.123966764380749,-5.042889965383691 L-2.0224337279086,-5.116384962059078 L-1.9157902274625727,-5.186105606769711 L-1.8042931808454012,-5.251871248072811 L-1.6882111988751551,-5.313510762654169 L-1.5678239379033168,-5.370862967503463 L-1.4434214257881701,-5.423777008148192 L-1.315303362952149,-5.472112722013643 L-1.1837784002069036,-5.5157409760353096 L-1.0491633950822064,-5.554543977711378 L-0.9117826484440912,-5.588415558846173 L-0.7719671232333947,-5.617261431300735 L-0.6300536471979723,-5.640999414133679 L-0.4863841015300725,-5.659559631584084 L-0.34130459735436514,-5.672884681418182 L-0.19516464204186423,-5.680929773232853 L-0.04831629735015053,-5.683662836381263 L0.09888666858905948,-5.6810645972591285 L0.24608963339819034,-5.673128625763971 L0.3929379746500592,-5.659861350814072 L0.5390779240782022,-5.641282044888518 L0.684157419746338,-5.617422777624475 L0.8278269541258045,-5.588328338582572 L0.9697404160388325,-5.5540561293657325 L1.1095559244394368,-5.5146760253507825 L1.2469366520226033,-5.470270207365575 L1.3815516366763663,-5.420932963716931 L1.5130765788201335,-5.366770463046322 L1.6411946227062342,-5.307900498560588 L1.7655971198000224,-5.2444522042541735 L1.88598437239687,-5.176565743806822 L2.0020663556819147,-5.104391972906747 L2.1135634164903743,-5.028092075813255 L2.220206947082531,-4.947837177034975 L2.32174003230775,-4.863807929059817 L2.4179180685963044,-4.776194077130491 L2.5085093532858997,-4.685194002114679 L2.5932956428615515,-4.5910142425717435 L2.672072678762756,-4.493868997167864 L2.744650679490246,-4.393979608638869 L2.810854797826305,-4.291574030544325 L2.8705255420669302,-4.186886278097886 L2.923519160251136,-4.080155864397135 L2.9697079864622062,-3.9716272234112857 L3.008980748367294,-3.8615491211168935 L3.041242835255446,-3.750174056200182 L3.0664165259294704,-3.6377576517696566 L3.0844411759039168,-3.52455803954423 L3.0952733634596767,-3.4108352380001916 L3.0988869942048347,-3.2968505259747745 " />
			<path d="M3.0988869942048387,-3.296850525974731 L3.0968996407362446,-3.2123094909821934 L3.0909402137249677,-3.127875289140124 L3.081016609330956,-3.0436546124444805 L3.067141975832205,-2.9597538699910224 " />
			<path d="M-2.871600173298081,-2.6647938266873465 L-2.88450019173193,-2.738199160743403 L-2.8937258576233313,-2.811891274886202 L-2.899265807078089,-2.885774770988488 L-2.90111321562214,-2.95975401522087 " />
			<path d="M-2.9011132156221753,-2.9597540152208968 L-2.897499575251528,-3.063204494623096 L-2.8866673580111626,-3.166393055246139 L-2.8686426580974427,-3.2690584167506533 L-2.843468898663249,-3.3709405598729214 L-2.8112067275571664,-3.471781353026396 L-2.7719338714725286,-3.5713251743265872 L-2.7257449487934258,-3.669319527510013 L-2.6727512415086423,-3.7655156502227505 L-2.6130804266389354,-3.8596691131618353 L-2.5468762677026,-3.951540408559866 L-2.474298266810358,-4.040895526514269 L-2.395521278045933,-4.127506517670229 L-2.310735082849233,-4.2111520407807905 L-2.220143928167234,-4.291617893675853 L-2.1239660281869464,-4.368697526182797 L-2.0224330305072473,-4.442192533548139 L-1.9157895065918684,-4.511913131949674 L-1.8042924230403554,-4.577678693966179 L-1.6882104183457995,-4.639318134384042 L-1.5678231600014212,-4.6966702895161365 L-1.4434206763717046,-4.749584311419204 L-1.3153026621730748,-4.797920035851401 L-1.1837777595227443,-4.841548323340607 L-1.0491628165276465,-4.880351372762071 L-0.9117821253997427,-4.914223006857561 L-0.771966642098852,-4.9430689291668255 L-0.6300531895188832,-4.966806951885611 L-0.4863836462473998,-4.985367194212172 L-0.3413041229413729,-4.998692250795746 L-0.19516412837324326,-5.00673732995559 L-0.048315727210676895,-5.009470361397329 L0.0988873083997559,-5.006872073214305 L0.2460903513706505,-4.998936038024901 L0.3929387742581878,-4.9856686881621455 L0.53907880381976,-4.967089299898895 L0.6841583734774281,-4.943229946760241 L0.8278279716293429,-4.914135422044159 L0.9697414837646958,-4.879863130741496 L1.1095570263551622,-4.840482951116916 L1.2469377705174258,-4.796077066283014 L1.3815527534671328,-4.746739766170331 L1.5130776758147313,-4.692577220365987 L1.6411956827879828,-4.6337072223630935 L1.7655981275046466,-4.570258905831498 L1.8859853144617662,-4.502372433587716 L2.0020672214552286,-4.430198660007814 L2.1135641981946325,-4.353898767691278 L2.220207639934034,-4.273643879246427 L2.321740634498642,-4.189614645128383 L2.41791858115098,-4.102000808518977 L2.5085097798071834,-4.011000748293869 L2.5932959891849725,-3.9168210011756837 L2.6720729525390965,-3.819675764222695 L2.7446508897176694,-3.7197863788506087 L2.8108549543534975,-3.6173807976300503 L2.8705256550882057,-3.5126930351443644 L2.9235192398132757,-3.4059626042311795 L2.96970804200107,-3.2974339389668 L3.008980788290061,-3.187355805784713 L3.041242866581804,-3.0759807041483507 L3.066416554002255,-2.9635642582235535 L3.084441204176837,-2.850364601017991 L3.095273393366681,-2.736641752472971 L3.0988870251127674,-2.6226569930077144 " />
			<path d="M3.098887025112767,-2.6226569930076327 L3.097367836282973,-2.5487387103321346 L3.0928118082965765,-2.47489183341262 L3.0852235552957366,-2.401187695472632 L3.0746107624542915,-2.3276974851571643 " />
			<path d="M3.0671420350554186,-2.285560464515997 L3.0514582378562594,-2.211126876445969 L3.032665998526234,-2.1371064315424992 L3.010785101289305,-2.063573392555151 L2.9858385821064566,-1.9906015090652032 " />
			<path d="M2.3170829640652424,-1.051665486785773 L2.229848984253281,-0.9793126045704743 " />
			<path d="M1.973562373452297,-0.7967406412723887 L1.840858482544903,-0.7167052293617444 L1.702798516447011,-0.6422162458553395 " />
			<path d="M-1.7579113713346888,-0.6422162458331478 L-1.8766882888296517,-0.7095556519110162 L-1.9902319361877407,-0.7813120293169433 " />
			<path d="M-2.2500106475967283,-0.9793126384090602 L-2.275227805912808,-1.0016225402210273 " />
			<path d="M-2.8716001603840375,-1.9906015980998992 L-2.884500071836854,-2.0640066561382753 L-2.893725658941859,-2.137698492151349 L-2.8992655597951558,-2.211581710250541 L-2.901112951764334,-2.2855606788801817 " />
			<path d="M-2.9011129517643712,-2.285560678880234 L-2.8974993210589286,-2.389011122880879 L-2.886667134946957,-2.4921996605688506 L-2.868642489714041,-2.5948650144325054 L-2.8434688087781623,-2.6967471672073384 L-2.811206738044396,-2.79758798818064 L-2.771933999774377,-2.8971318549523035 L-2.725745205324129,-2.9951262691590417 L-2.6727516272039633,-3.09132246468457 L-2.6130809310106238,-3.1854760068969465 L-2.5468768678803477,-3.2773473814764946 L-2.4742989282043406,-3.3667025714221785 L-2.3955219574419955,-3.4533136208530126 L-2.3107357349581625,-3.5369591842522787 L-2.2201445168980842,-3.617425059835477 L-2.1239665442008753,-3.6945047057601332 L-2.0224335169328875,-3.7679997379336503 L-1.9157900362056495,-3.837720408216062 L-1.8042930150152536,-3.903486061857667 L-1.688211059417478,-3.965125573054905 L-1.5678238215194265,-4.022477757553051 L-1.4434213258354394,-4.075391761272079 L-1.3153032706164165,-4.123727423975782 L-1.183778305820474,-4.167355617053511 L-1.0491632894435505,-4.206158554530559 L-0.9117825239811141,-4.240030076466213 L-0.7719669748350484,-4.268875903947172 L-0.6300534725189504,-4.29261386492499 L-0.48638390055368985,-4.311174090186211 L-0.34130437097284916,-4.324499178784365 L-0.19516438938694258,-4.332544332298158 L-0.0483160115754564,-4.335277457306207 L0.09888700639884294,-4.332679235504407 L0.2460900237577964,-4.324743193839254 L0.3929384015448427,-4.311475807019876 L0.5390783834134476,-4.2928963926206825 L0.6841579133885757,-4.2690370435569855 L0.8278274857364987,-4.239942557916839 L0.9697409883538293,-4.205670336442262 L1.1095565376882504,-4.16629024823766 L1.2469373032206865,-4.1218844653099955 L1.381552319560774,-4.0725472665764935 L1.5130772842340192,-4.018384812010753 L1.6411953392700374,-3.959514887636571 L1.7655978347370922,-3.896066622119813 L1.8859850724084346,-3.828180175751867 L2.0020670277905444,-3.7560064026631035 L2.1135640487926888,-3.6797064871506975 L2.220207529370695,-3.5994515550518007 L2.3217405565354037,-3.5154222611400283 L2.41791852917818,-3.4278083535699144 L2.508509747231582,-3.336808216440168 L2.593295969752712,-3.2426283915919756 L2.6720729405900325,-3.1454830808025704 L2.744650880370985,-3.045593629576874 L2.8108549436275094,-2.943187993780816 L2.8705256399595207,-2.8385001903985545 L2.9235192182220997,-2.731769733732161 L2.96970801281043,-2.623241058396249 L3.008980751207311,-2.5131629304910525 L3.0412428220509207,-2.4017878483656334 L3.0664165030752826,-2.2893714344081566 L3.084441148372389,-2.176171819322011 L3.0952733345228354,-2.0624490203651895 L3.0988869652408777,-1.9484643150456917 " />
			<path d="M3.0988869652408773,-1.9484643150456107 L3.0973677877465855,-1.8745463337569883 L3.092811793727471,-1.8006997573058405 L3.0852235972182522,-1.7269959173668226 L3.074610883222168,-1.6535060010778238 " />
			<path d="M-2.87160025244722,-1.3164089500274105 L-2.8845001497430074,-1.3898139954281392 L-2.8937257267968817,-1.463505820480341 L-2.899265621648138,-1.5373890285085579 L-2.9011130116228734,-1.6113679871100115 " />
			<path d="M-2.9011130116228783,-1.6113679871100817 L-2.8974993798946405,-1.7148184857933542 L-2.886667190757843,-1.818007073522888 L-2.868642540669984,-1.92067246988085 L-2.8434688533675496,-2.0225546549285953 L-2.811206775221878,-2.1233954956624914 L-2.7719340291029697,-2.22293936792201 L-2.7257452271045746,-2.320933772250238 L-2.6727516425829614,-2.4171299422212416 L-2.613080942060127,-2.5112834437670735 L-2.546876877638826,-2.603154764058984 L-2.474298940671601,-2.6925098885227987 L-2.3955219775201546,-2.7791208645969023 L-2.310735768331346,-2.8627663508741206 L-2.2201445698461892,-2.9432321503038708 L-2.1239666233437022,-3.0203117261698065 L-2.0224336289056706,-3.0938066996009725 L-1.9157901872689043,-3.16352732741817 L-1.8042932106091147,-3.2292929591665684 L-1.688211303674703,-3.290932472235566 L-1.5678241167603058,-3.348284684020607 L-1.4434216720757942,-3.4011987401378887 L-1.3153036651313712,-3.4495344777603894 L-1.183778742817708,-3.493162763205443 L-1.049163759916428,-3.5319658029650145 L-0.9117830158267208,-3.5658374274357385 L-0.771967473342538,-3.5946833466701094 L-0.6300539613559352,-3.618421377538878 L-0.48638436340225966,-3.6369816417622456 L-0.341304793997057,-3.650306734336752 L-0.19516476474353822,-3.6583518619559214 L-0.04831634221689754,-3.6610849510914596 L0.09888670034789256,-3.6584867254740647 L0.24608973552009475,-3.6505507527821153 L0.39293813623141355,-3.637283460417368 L0.5390781303601477,-3.6187041203157744 L0.6841576532688831,-3.594844802809894 L0.8278271962197169,-3.565750299626372 L0.9697406485921793,-3.531478016166945 L1.1095561318340335,-3.4920978332856487 L1.2469368230810967,-3.44769193883392 L1.3815517663908665,-3.398354629305463 L1.5130766695479316,-3.3441920819667788 L1.641194684410142,-3.28532209790946 L1.7655971687785976,-3.2218738165111604 L1.8859844277915359,-3.1539874018320404 L2.0020664328523727,-3.0818137015142546 L2.1135635161224715,-3.0055138787841416 L2.220207038611044,-2.925259018189966 L2.3217400340158942,-2.8412297492742185 L2.4179179337463945,-2.753615856077373 L2.5085090893047868,-2.662615742984082 L2.593295285881246,-2.5684359599104756 L2.672072276122219,-2.4712907088540237 L2.7446502783430735,-2.3714013309526023 L2.810854438332888,-2.2689957754992895 L2.870525253937066,-2.1643080523692326 L2.9235189616488855,-2.0575776693255934 L2.9697078844934843,-1.9490490556825701 L3.0089807405465727,-1.8389709738142936 L3.0412429114947317,-1.7275959200087987 L3.066416670713957,-1.6151795161758435 L3.0844413704176916,-1.5019798939257172 L3.0952735875044093,-1.3882570725428776 L3.098887227817254,-1.2742723323835157 " />
			<path d="M3.0988872278172543,-1.2742723323834348 L3.0973680222122364,-1.2003537266447928 L3.0928119447220617,-1.126506524646913 L3.085223610825965,-1.0528020607826216 L3.074610707138016,-0.9793115248852622 " />
			<path d="M-2.862502674728616,-0.6000792005791002 L-2.879374241502087,-0.6838524192165933 L-2.8914448255955616,-0.7680548324087071 L-2.898694968495099,-0.8525437600971277 L-2.901112982235844,-0.9371760603598474 " />
			<path d="M-2.901112982235844,-0.9371760603599908 L-2.8974993515389658,-1.0406265114326068 L-2.886667164128224,-1.1438150520428945 L-2.868642514396325,-1.2464804033611132 L-2.8434688240638613,-1.3483625469179363 L-2.8112067376183685,-1.4492033510009095 L-2.7719339762596027,-1.5487471925074683 L-2.725745150701429,-1.6467415727568522 L-2.6727515332797394,-1.742937725777409 L-2.613080789914254,-1.837091217604413 L-2.5468766725685956,-1.9289625351443382 L-2.4742986729488994,-2.01831766318717 L-2.3955216382741416,-2.1049286481767133 L-2.310735350043723,-2.1885741473802227 L-2.220144066816988,-2.26903996213439 L-2.1239660321060967,-2.346119553882646 L-2.022432948568733,-2.419614541759975 L-1.9157894197680205,-2.4893351805263584 L-1.8042923608459125,-2.5551008176966103 L-1.6882103795312484,-2.6167403287648785 L-1.567823128975736,-2.674092529474756 L-1.4434206339790645,-2.7270065641409933 L-1.315302592228715,-2.7753422690869187 L-1.1837776522403503,-2.8189705103212703 L-1.0491626697412602,-2.8577734946402926 L-0.9117819442904644,-2.891645053405623 L-0.7719664379776292,-2.920490898313367 L-0.6300529780853497,-2.9442288485383177 L-0.48638344563744296,-2.9627890287059158 L-0.34130395179036643,-2.9761140372149644 L-0.19516400405307088,-2.9841590845058947 L-0.0483156643440843,-2.986892100941719 L0.09888729908515748,-2.9842938140425526 L0.24609026381944332,-2.976357794888204 L0.39293860748951315,-2.963090473577891 L0.5390785619680678,-2.9445111237113166 L0.6841580654978807,-2.9206518159292383 L0.8278276107041449,-2.891557340627178 L0.9697410864544349,-2.857285100029777 L1.1095566115451216,-2.8179049698874996 L1.246937358214065,-2.7734991311298303 L1.3815523635040132,-2.7241618718828318 L1.513077326531465,-2.6699993603283145 L1.641195389749647,-2.611129388953822 L1.7655979023317645,-2.547681090809364 L1.8859851638440153,-2.479794628455684 L2.002067146422214,-2.407620856352074 L2.113564193716483,-2.3313209574971694 L2.2202076949195697,-2.251066055195497 L2.321740732250385,-2.1670368008826326 L2.4179187003213887,-2.079422938998265 L2.508509895877922,-1.9884228499495216 L2.5932960764605544,-1.894243072259866 L2.672072986600756,-1.7970978050457511 L2.74465085022674,-1.6972083920103602 L2.8108548280183325,-1.5948027881844031 L2.870525438511878,-1.4901150106862147 L2.923518941819898,-1.3833845748063487 L2.9697076848909165,-1.2748559167581215 L3.008980407290628,-1.1647778044623165 L3.041242506545146,-1.0534027377634205 L3.0664162621348874,-0.940986339495353 L3.0844410172779337,-0.8277867388351496 L3.095273317682021,-0.7140639484001783 L3.0988870064812746,-0.6000792365603127 " />
			<path d="M3.098887006481274,-0.6000792365601497 L3.0973678033465424,-0.5261612636151718 L3.0928117509451396,-0.45231470155968234 L3.085223485194258,-0.3786108787959036 L3.0746107063280004,-0.3051209801571645 " />
			<path d="M-2.8802404614903607,-0.014737919927363452 L-2.8893662234599278,-0.07660000374152243 L-2.8958903056034497,-0.13863262846595714 L-2.8998070281053865,-0.20077902976733997 L-2.9011129812125924,-0.2629823442593096 " />
			<path d="M-2.901112981212591,-0.26298234425945843 L-2.8975767698499437,-0.36531933371437053 L-2.886976473100538,-0.46740278403215724 L-2.8693370820464716,-0.5689797530962567 L-2.8447001821406195,-0.6697984928007195 L-2.81312385513528,-0.7696090425265135 L-2.7746825421265564,-0.8681638184045111 L-2.729466868038206,-0.9652181969763796 L-2.677583427959367,-1.060531091877857 L-2.6191545358403303,-1.1538655221851273 L-2.5543179361391157,-1.244989171084878 L-2.4832264790984837,-1.3336749335510554 L-2.4060477604189376,-1.4197014517374948 L-2.322963726176577,-1.502853636824172 L-2.2341702439166564,-1.5829231760870415 L-2.139876640933106,-1.659709023995902 L-2.040305210821704,-1.7330178761822836 L-1.9356906894688137,-1.802664625160002 L-1.8262797017100292,-1.8684727967235513 L-1.7123301799617092,-1.9302749659952565 L-1.5941107561947057,-1.987913152139974 L-1.4719001286822913,-2.041239190816274 L-1.345986405013769,-2.0901150834856494 L-1.2166664229213362,-2.1344133227556616 L-1.0842450505200842,-2.1740171929896057 L-0.9490344676099074,-2.208821045473357 L-0.8113534297325491,-2.2387305474903325 L-0.6715265167181141,-2.263662904716885 L-0.5298833674923116,-2.283547056413365 L-0.3867579029479651,-2.298323842950417 L-0.24248753871304718,-2.307946145275336 L-0.09741238967139765,-2.312378995989512 L0.048125531887833084,-2.311599661775082 L0.1937831226006761,-2.3055976969765064 L0.3392169969367602,-2.2943749682110735 L0.48408429677700715,-2.277945649950529 L0.628043499750536,-2.256336191084774 L0.7707552244231026,-2.229585252547028 L0.9118830304365826,-2.1977436161483377 L1.0510942117114523,-2.1608740648369866 L1.1880605808396592,-2.1190512346660917 L1.3224592428167257,-2.0723614388194305 L1.4539733562868074,-2.020902464111222 L1.5822928805043435,-1.9647833404407367 L1.7071153062493567,-1.9041240837461189 L1.828146368972328,-1.8390554130645391 L1.9451007424863378,-1.7697184423662127 L2.0577027115708466,-1.69626434788973 L2.1656868219016285,-1.6188540117630543 L2.268798505775541,-1.5376576427508588 L2.3667946821571157,-1.4528543750218224 L2.459444329633924,-1.3646318458816697 L2.5465290309342743,-1.2731857534660245 L2.6278434877269263,-1.1787193954351163 L2.7031960044943215,-1.0814431897556105 L2.7724089403443255,-0.9815741786973273 L2.835319127701468,-0.8793355172115445 L2.891778256897453,-0.7749559468937941 L2.941653225761627,-0.6686692567679711 L2.9848264533936786,-0.5607137321591736 L3.021196157386414,-0.4513315929509859 L3.0506765938507314,-0.34076842254727213 L3.073198259681789,-0.22927258888178836 L3.088708056593108,-0.1170946588370968 L3.0971694165313983,-0.004486807451865804 " />
			<path d="M3.0963307315887345,0.1699949792992046 L3.088235108382622,0.26970675101272623 L3.0746108827341874,0.3690735084260717 " />
			<path d="M-2.83154356129441,-0.04002728969312469 L-2.803661302820883,-0.12150748950995593 L-2.771180691609956,-0.20210028422677095 L-2.734153184911727,-0.28167122825701885 L-2.692637443434162,-0.3600874949595636 L-2.646699238407816,-0.4372180870706712 L-2.5964113473844765,-0.5129340442358776 L-2.5418534389350143,-0.587108647312871 L-2.4831119464291893,-0.6596176191219398 L-2.420279931097536,-0.7303393213260647 L-2.3534569345924927,-0.7991549471288208 L-2.2827488212825013,-0.8659487094850764 L-2.208267610529054,-0.9306080245265416 L-2.130131299212638,-0.9930236899117499 L-2.0484636747889198,-1.0530900578181632 L-1.9633941191714266,-1.1107052023026682 L-1.875057403751681,-1.165771080765445 L-1.7835934758816485,-1.2181936892617564 L-1.689147237156822,-1.2678832114158687 L-1.5918683138513177,-1.314754160701388 L-1.4919108198688957,-1.3587255158628007 L-1.3894331125854427,-1.3997208492639097 L-1.2845975419696716,-1.4376684479600819 L-1.1775701933796827,-1.4725014273025678 L-1.0685206244428311,-1.5041578368950752 L-0.9576215964356081,-1.532580758734889 L-0.8450488005893075,-1.5577183973830753 L-0.7309805797548576,-1.579524162020956 L-0.6155976458676311,-1.5979567402629273 L-0.4990827936599542,-1.6129801636086265 L-0.3816206110746152,-1.6245638644306433 L-0.2633971868380254,-1.6326827244074948 L-0.14459981565630775,-1.6373171143249472 L-0.025416701501121963,-1.638452925182496 L0.0939633405449074,-1.636081590555559 L0.2133511834108659,-1.6302001001777415 L0.3325576876545979,-1.6208110047214368 L0.45139400109957273,-1.6079224117689361 L0.5696718580171787,-1.5915479729802007 L0.6872038773804277,-1.5717068624773654 L0.8038038597167292,-1.548423746479929 L0.919287082089709,-1.5217287442384815 L1.033470590742503,-1.4916573803286202 L1.1461734909393406,-1.4582505283803924 L1.2572172335461822,-1.4215543463321487 L1.3664258978963413,-1.3816202033111389 L1.4736264704930617,-1.3385045982566757 L1.5786491191076237,-1.2922690704143571 L1.6813274618384417,-1.242980101843302 L1.781498830705088,-1.1907090120906334 L1.8790045293594946,-1.1355318452000045 L1.9736900845059924,-1.077529249233244 L2.065405490631713,-1.0167863484960278 L2.1540054476593786,-0.9533926086701356 L2.239349591146303,-0.8874416950660096 L2.3213027146640446,-0.8190313242204188 L2.3997349840069604,-0.7482631090745695 L2.4745221428894,-0.6752423979784572 L2.54554570980604,-0.6000781077763109 L2.612693165743142,-0.5228825512384283 L2.6758581324428157,-0.4437712591130327 L2.734940540938191,-0.362862797080477 L2.7898467900919073,-0.2802785779001482 L2.840489894886934,-0.19614266904828415 L2.886789624234257,-0.110581596152032 " />
			<path d="M3.033571964229985,0.2660540225655347 L3.0573737015217333,0.36311479735016094 " />
			<path d="M-2.070229364074812,-0.3633679890997634 L-1.9765769624312073,-0.4278917660938828 L-1.8788736723968886,-0.4892929307884315 L-1.7773101915543217,-0.5474423864767353 L-1.6720847517975361,-0.6022173832037017 L-1.5634027324104685,-0.6535017573688924 L-1.4514762591957244,-0.701186158471037 L-1.336523790436634,-0.7451682625509797 L-1.218769690501185,-0.7853529719162622 L-1.0984437919199086,-0.8216526007575462 L-0.9757809467929399,-0.8539870462945292 L-0.8510205684018312,-0.8822839451174622 L-0.7244061639207755,-0.9064788144193652 L-0.5961848591396022,-0.9265151778435219 L-0.46660691612578553,-0.9423446757010505 L-0.33592524476699026,-0.9539271593438658 L-0.20439490914756947,-0.961230769509243 L-0.07227262972190468,-0.9642319984836667 L0.06018371774363322,-0.9629157359651352 L0.19271560548251024,-0.9572752985349351 L0.3250643583116533,-0.9473124426819566 L0.45697165850196614,-0.9330373613546121 L0.5881800499510873,-0.9144686640476327 L0.7184334406744137,-0.8916333404630064 L0.8474776026337653,-0.8645667078165435 L0.9750606679288544,-0.8333123418930994 L1.1009336203829965,-0.7979219919854854 L1.224850781564032,-0.7584554798832173 L1.3465702902920413,-0.7149805831084954 L1.4658545746981202,-0.6675729026273323 L1.582470815913058,-0.6163157152941086 L1.6961914024809792,-0.5612998113174377 L1.806794374611005,-0.5026233170645034 " />
			<path d="M1.659911057690094,-0.5391155120161896 L1.5902865934165011,-0.5837140708968985 L1.5187134624726972,-0.6264305265642137 L1.4452839896216716,-0.6672144387566356 L1.3700931182985925,-0.7060176598124673 " />
			<path d="M-1.3863657672402068,-0.7266947412049928 L-1.503078729569204,-0.6636628152445824 L-1.6138285250327433,-0.5955054240106336 L-1.7182045450141503,-0.5224998800982926 L-1.8158199263329289,-0.44494098585754294 " />
			<path d="M2.4412784567191004,-0.30071151233231763 L2.4053613825758062,-0.38264514904547187 L2.3647955757501795,-0.4633047240288072 L2.3196631202435416,-0.5425386271320949 L2.2700547305474164,-0.620198544576105 L2.21606958496067,-0.6961395045986633 L2.1578152092862175,-0.7702199387281611 L2.0954074080075102,-0.8423017604370301 L2.0289702413633437,-0.9122504634599001 L1.958636048057842,-0.9799352425934048 L1.884545514660819,-1.045229140326836 L1.8068477940720367,-1.1080092231850571 L1.7257006767412058,-1.1681567921973515 L1.6412708196539048,-1.2255576324380866 L1.5537340394119292,-1.2801023071173177 L1.4632756770549034,-1.3316865022316886 L1.3700910435883207,-1.3802114283182112 " />
			<path d="M2.551805002314186,-0.2575721399189318 L2.555237680585146,-0.3051198252312032 " />
			<path d="M2.5576211314302904,-0.3897825124860129 L2.5538098525950064,-0.49682743302385013 L2.542388747164795,-0.6035526445359352 " />
			<path d="M2.5237260559005996,-0.7081032679509448 L2.509426499089818,-0.7688415270558513 L2.4926460834238644,-0.82921008383607 L2.4734020635629683,-0.8891509307968658 L2.451714113080519,-0.9486065501283291 L2.427604309524691,-1.007519927926019 L2.4010971266389802,-1.0658345696505631 L2.3722194336530382,-1.123494517064991 L2.34100050165611,-1.1804443669133944 L2.307472017166369,-1.2366292916293224 L2.271668103110358,-1.2919950623871388 L2.2336253475277243,-1.346488074834371 L2.1933828404173625,-1.4000553778679117 L2.1509822192420462,-1.4526447058417389 L2.1064677237095735,-1.5042045146186318 L2.0598862605493973,-1.55468402190319 L2.0112874791046695,-1.604033252318259 L1.9607238586605735,-1.6522030877116967 L1.9082508085307683,-1.6991453232052174 L1.853926782024724,-1.7448127295218747 L1.7978025489825673,-1.7891674375215465 L1.7399250144686593,-1.8321759258700938 L1.6803554361321855,-1.8737956051694198 L1.6191566088360954,-1.9139857896249153 L1.5563927211574704,-1.9527077069146996 L1.492129288853695,-1.9899244558930087 L1.4264330947178738,-2.025600969334077 L1.359372134455932,-2.0597039817996263 L1.291015568217819,-2.092202002713065 L1.1506978264584315,-2.1522658574427282 L1.0060549186276353,-2.205575418964865 L0.8576782405795099,-2.2519411519033894 L0.7061747613538205,-2.2912012040196634 L0.552166446886611,-2.323221880629531 L0.3962898338627645,-2.3478985001197885 L0.2391957066614252,-2.365156641201853 L0.08154438475974557,-2.3749539683223917 L-0.07604624634612661,-2.377281057559678 L-0.23292529707717155,-2.3721553224535827 L-0.38843680923579604,-2.3596260696173292 L-0.5419372867598632,-2.339774044974759 L-0.6927961048589086,-2.312709960898319 L-0.8403959831844672,-2.2785734347840623 L-0.9841335723136684,-2.237532324302311 L-1.1234202028252602,-2.189782444562643 L-1.257682846247207,-2.1355476524318338 L-1.3227556728251846,-2.1060761376411703 L-1.386365337154999,-2.0750802832434307 " />
			<path d="M-2.283660973564193,-0.9793125090254754 L-2.2752278845095195,-0.9570026805986684 " />
			<path d="M-2.102797872513116,-0.6422162344880593 L-2.0488924606972168,-0.5716920925780855 L-1.9902319307508003,-0.5031204659528397 " />
			<path d="M1.9735623722952915,-0.487691851486733 L2.0505906525942774,-0.5635782439060313 L2.122760314332025,-0.6422162370598107 " />
			<path d="M2.1925912492637925,-0.7268788735331168 L2.238983546427918,-0.788895791937024 L2.282427498512827,-0.8521432013253553 " />
			<path d="M2.317082965525389,-0.9069596740617099 L2.358772619769224,-0.9793125731554734 " />
			<path d="M2.40198368619222,-1.0639752654458157 L2.4300563173458767,-1.1261385399665467 L2.4554072372665448,-1.188979193879623 L2.47800580921899,-1.2524263333397831 L2.4978250858387123,-1.3164088355793613 " />
			<path d="M2.5195797463797818,-1.4010714678411154 L2.532486085193151,-1.4638231448245649 L2.5427380210596673,-1.5268558351583608 L2.5503245768671507,-1.5901048048443218 L2.5552376658499742,-1.6535052513460473 " />
			<path d="M-1.1999181923321018,-0.6422162444912385 L-1.1186583812371258,-0.610590228123771 " />
			<path d="M2.5576211347208067,-3.0865532761772587 L2.5538100154604573,-3.19359579176632 L2.54238870536397,-3.3003235590055273 " />
			<path d="M2.5237259858035586,-3.4048742232728597 L2.4983266655793286,-3.50655972939359 L2.4659769410633037,-3.6070996651729796 L2.4267702097139123,-3.7062189436065713 L2.3808208304638527,-3.8036447738345447 L2.328264788526985,-3.8991069953871946 L2.269257523160956,-3.992342946286802 L2.203958071878551,-4.083117699193247 L2.1325565453339577,-4.17118078439569 L2.0552632776849804,-4.256288288892623 L1.9723046407740104,-4.338207830278966 L1.8839221781840934,-4.4167183140146635 L1.7903719055236347,-4.491609771772326 L1.6919237660589568,-4.562683287097725 L1.5888612308139383,-4.629751014616956 L1.4814810322559606,-4.69263629902408 L1.3700930206873942,-4.751173900083051 " />
			<path d="M-1.3863684262450908,-4.771849449110719 L-1.485721335087622,-4.718731500355796 L-1.5808273908357053,-4.661900422849731 L-1.6714342487571923,-4.60152279463804 L-1.7573019723615526,-4.5377739410834055 L-1.8382031098645388,-4.47083767766708 L-1.913922862531253,-4.4009061229517785 L-1.9842593518737215,-4.328179575081608 L-2.04902399621848,-4.252866447678755 L-2.1080420106990356,-4.175183263480843 L-2.1611530482674564,-4.095354706547019 L-2.2082120028587253,-4.013613736345061 L-2.2490899993808533,-3.930201769515944 L-2.2836757847005003,-3.8453684327766315 L-2.3118849410511206,-3.759344532205075 L-2.333646190782348,-3.672365411651728 L-2.3489011181608674,-3.584679191162056 " />
			<path d="M-2.357906131682838,-3.4915262620401206 L-2.359847115866586,-3.4236496157924465 " />
			<path d="M-2.901113214824791,-4.392412670341697 L-2.8974995746163756,-4.495863171215087 L-2.8866673621256456,-4.599051766926602 L-2.8686426772290665,-4.701717176190559 L-2.843468947220953,-4.803599378184976 L-2.8112068219070183,-4.904440239077083 L-2.7719340272647752,-5.003984133972405 L-2.725745178024991,-5.101978562790329 L-2.672751549624046,-5.1981747585850515 L-2.6130808100724456,-5.29232828684982 L-2.5468767123795932,-5.384199634364609 L-2.4742987482688696,-5.473554786172766 L-2.395521764009718,-5.560165789300692 L-2.310735539284548,-5.643811301866391 L-2.220144330097511,-5.72427712625757 L-2.123966376819228,-5.801356725097909 L-2.0224333785461686,-5.874851718761182 L-1.915789935035336,-5.944572363236784 L-1.8042929575537843,-6.010338007197127 L-1.6882110500583614,-6.071977527166965 L-1.5678238621933667,-6.129329739747004 L-1.4434214156626504,-6.182243789899064 L-1.315303405597591,-6.230579514357313 L-1.1837784786034593,-6.274207779289755 L-1.0491634892234938,-6.313010791395914 L-0.911782736612682,-6.346882381690443 L-0.7719671832613535,-6.3757282612880495 L-0.6300536576524391,-6.3994662485725 L-0.4863840427752084,-6.418026467201307 L-0.34130445245266583,-6.431351514468011 L-0.19516439746920722,-6.439396599615352 L-0.04831594350986479,-6.442129651765153 L0.09888713705792629,-6.4395313972039165 L0.24609021751429516,-6.43159540583718 L0.3929386711731526,-6.418328106700003 L0.5390787257644409,-6.399748772485669 L0.6841583157524425,-6.375889473129452 L0.8278279305354079,-6.346794998559019 L0.969741456482029,-6.312522750797418 L1.109557010775371,-6.273142605678608 L1.2469377650550197,-6.22873674450878 L1.3815527568730084,-6.179399456079267 L1.5130776870088147,-6.1252369095083585 L1.6411957007230376,-6.066366898459657 L1.765598151068282,-6.002918557353685 L1.8859853424193371,-5.935032050256936 L2.002067252432454,-5.862858233198429 L2.113564230695773,-5.7865582907278394 L2.2202076723891153,-5.706303347591341 L2.321740665331732,-5.622274056461206 L2.417918608860661,-5.534660162712871 L2.5085098030502815,-5.443660047298398 L2.593296006854973,-5.349480248818006 L2.6720729638316687,-5.2523349659413565 L2.744650894176951,-5.152445541377549 L2.8108549518944477,-5.050039928637161 L2.8705256459920703,-4.945352142871004 L2.923519224695049,-4.83862169710862 L2.9697080217496215,-4.730093025254513 L3.0089807639834447,-4.620014893232041 L3.041242839381572,-4.508639799693318 L3.0664165250321203,-4.396223367738576 L3.0844411743919427,-4.283023729109982 L3.0952733634203753,-4.169300902343062 L3.0988869952282005,-4.055316166373387 " />
			<path d="M3.0983934048911492,-4.013179123825286 L3.0951368280877327,-3.9391992776065505 L3.0888379794746186,-3.865331883789715 L3.0795032542936314,-3.7916484724775885 L3.067142130301228,-3.7182203869724293 " />
			<path d="M-2.9011129934885536,-3.7182203581303193 L-2.897499306137561,-3.8216708106828583 L-2.886667009278661,-3.9248593424156737 L-2.8686422587799982,-4.027524684741291 L-2.8434685082403592,-4.129406824889901 L-2.8112064139819553,-4.230247633584961 L-2.7719336962407075,-4.329791487932385 L-2.725744957336367,-4.42778588805541 L-2.672751457641029,-4.523982066020033 L-2.6130808502068827,-4.618135585612208 L-2.5468768749615833,-4.710006931547527 L-2.474299013431604,-4.799362086717143 L-2.3955221050095377,-4.885973096100041 L-2.3107359258397935,-4.969618616001541 L-2.220144731457889,-5.0500844473108994 L-2.123966764380749,-5.127164051507248 L-2.0224337279086,-5.2006590481825885 L-1.9157902274625727,-5.270379692893169 L-1.8042931808454012,-5.33614533419621 L-1.6882111988751551,-5.397784848777506 L-1.5678239379033168,-5.455137053626732 L-1.4434214257881701,-5.508051094271388 L-1.315303362952149,-5.556386808136762 L-1.1837784002069036,-5.600015062158348 L-1.0491633950822064,-5.638818063834332 L-0.9117826484440912,-5.672689644969039 L-0.7719671232333947,-5.701535517423511 L-0.6300536471979723,-5.725273500256364 L-0.4863841015300725,-5.743833717706675 L-0.34130459735436514,-5.7571587675406795 L-0.19516464204186423,-5.765203859355256 L-0.04831629735015053,-5.767936922503573 L0.09888666858905948,-5.765338683381346 L0.24608963339819034,-5.757402711886096 L0.3929379746500592,-5.7441354369361095 L0.5390779240782022,-5.72555613101047 L0.684157419746338,-5.701696863746345 L0.8278269541258045,-5.672602424704362 L0.9697404160388325,-5.638330215487448 L1.1095559244394368,-5.598950111472428 L1.2469366520226033,-5.5545442934871545 L1.3815516366763663,-5.505207049838451 L1.5130765788201335,-5.451044549167787 L1.6411946227062342,-5.392174584682007 L1.7655971198000224,-5.32872629037555 L1.88598437239687,-5.260839829928162 L2.0020663556819147,-5.188666059028057 L2.1135634164903743,-5.112366161934543 L2.220206947082531,-5.032111263156245 L2.32174003230775,-4.948082015181077 L2.4179180685963044,-4.860468163251748 L2.5085093532858997,-4.769468088235939 L2.5932956428615515,-4.6752883286930125 L2.672072678762756,-4.57814308328915 L2.744650679490246,-4.478253694760173 L2.810854797826305,-4.375848116665656 L2.8705255420669302,-4.27116036421925 L2.923519160251136,-4.164429950518536 L2.9697079864622062,-4.05590130953273 L3.008980748367294,-3.945823207238381 L3.041242835255446,-3.8344481423217216 L3.0664165259294704,-3.7220317378912497 L3.0844411759039168,-3.6088321256658826 L3.0952733634596767,-3.495109324121903 L3.0988869942048347,-3.38112461209655 " />
			<path d="M-2.901113215622088,-3.0440281013446624 L-2.8974995752514823,-3.1474785807468515 L-2.886667358011151,-3.250667141369885 L-2.8686426580974307,-3.3533325028744234 L-2.843468898663213,-3.4552146459966595 L-2.811206727557154,-3.556055439150137 L-2.771933871472479,-3.655599260450353 L-2.725744948793463,-3.753593613633759 L-2.6727512415086547,-3.8497897363464744 L-2.613080426638922,-3.94394319928551 L-2.5468762677026513,-4.035814494683641 L-2.474298266810357,-4.125169612638025 L-2.395521278045972,-4.211780603793917 L-2.3107350828492317,-4.295426126904492 L-2.2201439281670394,-4.37589197979953 L-2.123966028186945,-4.452971612306474 L-2.0224330305072327,-4.526466619671914 L-1.9157895065918529,-4.596187218073448 L-1.8042924230403392,-4.661952780089953 L-1.6882104183457827,-4.723592220507816 L-1.5678231600014036,-4.780944375639909 L-1.4434206763716866,-4.8338583975429765 L-1.3153026621730561,-4.882194121975173 L-1.1837777595227252,-4.925822409464377 L-1.049162816527632,-4.964625458885839 L-0.9117821253997327,-4.998497092981329 L-0.771966642098842,-5.027343015290592 L-0.630053189518873,-5.051081038009378 L-0.4863836462473894,-5.069641280335938 L-0.34130412294136225,-5.082966336919512 L-0.1951641283732326,-5.091011416079355 L-0.04831572721066624,-5.093744447521094 L0.098887308399767,-5.09114615933807 L0.2460903513706607,-5.083210124148666 L0.39293877425819845,-5.069942774285909 L0.5390788038197707,-5.0513633860226586 L0.6841583734774384,-5.027504032884004 L0.8278279716293531,-4.998409508167922 L0.9697414837647065,-4.964137216865258 L1.1095570263551724,-4.924757037240678 L1.246937770517436,-4.880351152406776 L1.3815527534671421,-4.831013852294093 L1.513077675814741,-4.776851306489748 L1.641195682787992,-4.717981308486855 L1.7655981275046555,-4.654532991955259 L1.8859853144617742,-4.5866465197114765 L2.0020672214552375,-4.514472746131574 L2.1135641981946405,-4.438172853815038 L2.2202076399340367,-4.357917965370189 L2.321740634498642,-4.273888731252149 L2.41791858115098,-4.186274894642743 L2.5085097798071834,-4.095274834417634 L2.5932959891849725,-4.001095087299449 L2.6720729525390965,-3.9039498503464607 L2.7446508897176694,-3.8040604649743743 L2.8108549543534975,-3.7016548837538163 L2.8705256550882057,-3.5969671212681296 L2.9235192398132757,-3.490236690354945 L2.96970804200107,-3.381708025090565 L3.008980788290061,-3.2716298919084776 L3.041242866581804,-3.1602547902721154 L3.066416554002255,-3.0478383443473196 L3.084441204176837,-2.934638687141757 L3.095273393366681,-2.820915838596736 L3.0988870251127674,-2.706931079131479 " />
			<path d="M-2.9011129517643357,-2.36983476500401 L-2.897499321058911,-2.473285209004635 L-2.8866671349469506,-2.576473746692619 L-2.868642489714041,-2.67913910055627 L-2.8434688087781623,-2.781021253331103 L-2.811206738044396,-2.8818620743044123 L-2.771933999774388,-2.9814059410760914 L-2.725745205324171,-3.079400355282842 L-2.6727516272039535,-3.17559655080834 L-2.6130809310106238,-3.2697500930207113 L-2.5468768678803477,-3.3616214676002683 L-2.4742989282043406,-3.4509766575459433 L-2.3955219574420394,-3.537587706976807 L-2.3107357349581883,-3.62123327037608 L-2.220144516898131,-3.7016991459592763 L-2.1239665442008753,-3.7787787918839104 L-2.0224335169328875,-3.852273824057426 L-1.9157900362056495,-3.92199449433989 L-1.8042930150152698,-3.9877601479815183 L-1.6882110594174864,-4.049399659178711 L-1.567823821519456,-4.106751843676842 L-1.4434213258354394,-4.159665847395855 L-1.3153032706164165,-4.2080015100995345 L-1.183778305820474,-4.251629703177368 L-1.0491632894434808,-4.2904326406544335 L-0.9117825239811914,-4.324304162590047 L-0.7719669748349758,-4.353149990070979 L-0.6300534725189504,-4.376887951048843 L-0.48638390055368985,-4.3954481763099364 L-0.34130437097284916,-4.408773264908291 L-0.1951643893869226,-4.416818418421995 L-0.04831601157548837,-4.419551543430039 L0.09888700639883241,-4.416953321628172 L0.2460900237577964,-4.4090172799630185 L0.3929384015448427,-4.395749893143641 L0.5390783834134476,-4.377170478744447 L0.6841579133885655,-4.353311129680752 L0.827827485736478,-4.324216644040608 L0.9697409883538191,-4.2899444225660295 L1.1095565376882504,-4.250564334361425 L1.2469373032206865,-4.20615855143376 L1.381552319560774,-4.156821352700258 L1.5130772842340101,-4.102658898134522 L1.641195339270019,-4.0437889737603445 L1.7655978347370833,-3.9803407082435824 L1.8859850724084346,-3.9124542618756317 L2.0020670277905444,-3.8402804887868682 L2.1135640487926888,-3.7639805732744622 L2.220207529370688,-3.683725641175571 L2.32174055653539,-3.599696347263805 L2.4179185291781735,-3.5120824396936854 L2.508509747231582,-3.4210823025639328 L2.593295969752712,-3.3269024777157403 L2.6720729405900325,-3.229757166926335 L2.74465088037098,-3.129867715700646 L2.8108549436275005,-3.0274620799045953 L2.8705256399595167,-2.922774276522327 L2.9235192182220997,-2.816043819855926 L2.96970801281043,-2.7075151445200136 L3.008980751207311,-2.5974370166148173 L3.0412428220509184,-2.486061934489406 L3.066416503075279,-2.373645520531937 L3.084441148372388,-2.260445905445784 L3.0952733345228354,-2.1467231064889543 L3.0988869652408777,-2.0327384011694565 " />
			<path d="M-2.900513808928026,-1.65350503048509 L-2.9011130116228734,-1.6956420732337762 " />
			<path d="M-2.9011130116228783,-1.6956420732338406 L-2.8974993798946405,-1.799092571917119 L-2.886667190757843,-1.902281159646646 L-2.868642540669984,-2.0049465560046147 L-2.8434688533675496,-2.10682874105236 L-2.811206775221878,-2.2076695817862424 L-2.7719340291029697,-2.307213454045767 L-2.7257452271045746,-2.4052078583739958 L-2.6727516425829614,-2.5014040283450063 L-2.613080942060127,-2.5955575298908307 L-2.546876877638826,-2.6874288501827377 L-2.474298940671601,-2.7767839746465484 L-2.3955219775201546,-2.8633949507206555 L-2.310735768331346,-2.9470404369978853 L-2.2201445698461892,-3.027506236427615 L-2.1239666233437022,-3.1045858122935504 L-2.0224336289056706,-3.1780807857247195 L-1.9157901872689043,-3.2478014135419215 L-1.8042932106091147,-3.3135670452903243 L-1.688211303674703,-3.3752065583593085 L-1.5678241167603058,-3.432558770144358 L-1.4434216720757942,-3.48547282626163 L-1.3153036651313712,-3.533808563884154 L-1.183778742817708,-3.5774368493291835 L-1.049163759916428,-3.6162398890887544 L-0.9117830158267208,-3.6501115135594633 L-0.771967473342538,-3.6789574327938386 L-0.6300539613559352,-3.7026954636626064 L-0.48638436340225966,-3.721255727885973 L-0.341304793997057,-3.7345808204604953 L-0.19516476474353822,-3.7426259480796533 L-0.04831634221689754,-3.7453590372151577 L0.09888670034789256,-3.7427608115977957 L0.24608973552009475,-3.7348248389058627 L0.39293813623141355,-3.721557546541098 L0.5390781303601477,-3.702978206439486 L0.6841576532688831,-3.6791188889336346 L0.8278271962197169,-3.6500243857501005 L0.9697406485921793,-3.6157521022906853 L1.1095561318340335,-3.5763719194093384 L1.2469368230810967,-3.5319660249575704 L1.3815517663908665,-3.482628715429183 L1.5130766695479316,-3.4284661680904778 L1.641194684410142,-3.3695961840331456 L1.7655971687785976,-3.3061479026347973 L1.8859844277915359,-3.23826148795571 L2.0020664328523727,-3.1660877876378604 L2.1135635161224715,-3.089787964907745 L2.220207038611044,-3.0095331043137303 L2.3217400340158942,-2.9255038353979828 L2.4179179337463945,-2.837889942201137 L2.5085090893047868,-2.7468898291078463 L2.593295285881246,-2.6527100460342394 L2.672072276122219,-2.5555647949777875 L2.7446502783430735,-2.455675417076366 L2.810854438332888,-2.353269861623054 L2.870525253937066,-2.2485821384929965 L2.9235189616488855,-2.1418517554493572 L2.9697078844934843,-2.033323141806334 L3.0089807405465727,-1.9232450599380577 L3.0412429114947317,-1.8118700061325625 L3.066416670713957,-1.6994536022996074 L3.0844413704176916,-1.586253980049481 L3.0952735875044093,-1.4725311586666414 L3.098887227817254,-1.3585464185072793 " />
			<path d="M3.0988872278172543,-1.3585464185071976 L3.098393636491683,-1.3164093737651459 " />
			<path d="M-2.901112982235844,-1.0214501464837595 L-2.8974993515389658,-1.12490059755637 L-2.886667164128224,-1.2280891381666608 L-2.868642514396325,-1.3307544894848817 L-2.8434688240638613,-1.4326366330416975 L-2.8112067376183685,-1.5334774371246704 L-2.7719339762596027,-1.633021278631238 L-2.725745150701429,-1.7310156588806207 L-2.6727515332797394,-1.8272118119011755 L-2.613080789914254,-1.9213653037281773 L-2.5468766725685956,-2.013236621268099 L-2.4742986729488994,-2.1025917493109354 L-2.3955216382741416,-2.189202734300477 L-2.310735350043723,-2.2728482335039835 L-2.220144066816988,-2.3533140482581567 L-2.1239660321060967,-2.43039364000641 L-2.022432948568733,-2.503888627883739 L-1.9157894197680205,-2.5736092666501262 L-1.8042923608459125,-2.6393749038203724 L-1.6882103795312484,-2.701014414888644 L-1.567823128975736,-2.758366615598521 L-1.4434206339790645,-2.8112806502647576 L-1.315302592228715,-2.8596163552106955 L-1.1837776522403503,-2.9032445964450346 L-1.0491626697412602,-2.9420475807640583 L-0.9117819442904644,-2.9759191395293887 L-0.7719664379776292,-3.004764984437132 L-0.6300529780853497,-3.0285029346620753 L-0.48638344563744296,-3.0470631148296734 L-0.34130395179036643,-3.060388123338734 L-0.19516400405307088,-3.0684331706296564 L-0.0483156643440843,-3.071166187065467 L0.09888729908515748,-3.0685679001663195 L0.24609026381944332,-3.0606318810119664 L0.39293860748951315,-3.0473645597016623 L0.5390785619680678,-3.028785209835074 L0.6841580654978807,-3.004925902052987 L0.8278276107041449,-2.9758314267509163 L0.9697410864544349,-2.9415591861535573 L1.1095566115451216,-2.9021790560112564 L1.246937358214065,-2.857773217253621 L1.3815523635040132,-2.808435958006603 L1.513077326531465,-2.7542734464520864 L1.641195389749647,-2.695403475077562 L1.7655979023317645,-2.6319551769331264 L1.8859851638440153,-2.564068714579425 L2.002067146422214,-2.491894942475815 L2.113564193716483,-2.41559504362092 L2.2202076949195697,-2.335340141319253 L2.321740732250385,-2.2513108870064173 L2.4179187003213887,-2.163697025122034 L2.508509895877922,-2.072696936073289 L2.5932960764605544,-1.9785171583835683 L2.672072986600756,-1.8813718911695185 L2.74465085022674,-1.7814824781340866 L2.8108548280183325,-1.6790768743081708 L2.870525438511878,-1.5743890968099639 L2.923518941819898,-1.4676586609301365 L2.9697076848909165,-1.359130002881884 L3.008980407290628,-1.2490518905859007 L3.041242506545146,-1.1376768238870814 L3.0664162621348874,-1.0252604256189781 L3.0844410172779337,-0.912060824958933 L3.095273317682021,-0.7983380345238844 L3.0988870064812746,-0.6843533226840772 " />
			<path d="M-2.9005137782004144,-0.30511938789355364 L-2.9011129812125924,-0.3472564303830702 " />
			<path d="M-2.901112981212591,-0.3472564303832212 L-2.8974993494309524,-0.45070690415164266 L-2.8866671604801883,-0.5538954687283604 L-2.8686425112471774,-0.6565608451772762 L-2.843468825768955,-0.7584430149620299 L-2.8112067505839144,-0.8592838463393606 L-2.77193400859817,-0.958827716207735 L-2.7257452118201204,-1.0568221259135955 L-2.6727516334149986,-1.153018309532079 L-2.613080939629067,-1.2471718331571795 L-2.5468768822295083,-1.339043183757918 L-2.474298952200937,-1.4283983461821985 L-2.3955219955326035,-1.5150093669183644 L-2.3107357920213856,-1.5986549032564907 L-2.2201445981046026,-1.6791207565264017 L-2.123966654823059,-1.7562003881277197 L-2.022433662098683,-1.8296954171085917 L-1.9157902205919575,-1.8994160980941877 L-1.80429324248243,-1.965181778413215 L-1.6882113325904156,-2.026821333320872 L-1.5678241413291998,-2.0841735782691915 L-1.4434216910452102,-2.13708765723118 L-1.3153036773674875,-2.1854234061426157 L-1.1837787472482573,-2.229051690585444 L-1.049163755432608,-2.2678547168986416 L-0.9117830011473194,-2.3017263159665395 L-0.7719674468469684,-2.3305721990003585 L-0.6300539208987512,-2.354310184696317 L-0.4863843061261752,-2.3728703972226306 L-0.34130471616668157,-2.3861954345580703 L-0.19516466162741208,-2.39424050677641 L-0.04831620804847114,-2.3969735439432776 L0.09888687229692783,-2.39437527336576 L0.2460899527210172,-2.3864392660085554 L0.39293840650382217,-2.3731719519652206 L0.5390784612796082,-2.354592604947709 L0.6841580513668108,-2.330733295831984 L0.8278276659863333,-2.301638815372465 L0.9697411913221585,-2.267366566272215 L1.1095567443936232,-2.2279864248698207 L1.2469374967277547,-2.183580572777234 L1.3815524858452917,-2.134243298875182 L1.5130774126029964,-2.080080772144318 L1.64119542246962,-2.021210785880477 L1.7655978688518708,-1.9577624739112194 L1.8859850566294576,-1.8898759994983354 L2.002066964108513,-1.8177022176764916 L2.113563941652914,-1.741402311842282 L2.2202073853117135,-1.6611474054691233 L2.3217403838209387,-1.5771181498838116 L2.417918337423535,-1.4895042890973325 L2.5085095470194165,-1.3985042027375183 L2.593295772230692,-1.304324428183531 L2.672072757042042,-1.2071791630517439 L2.7446507217564604,-1.1072897492292575 L2.8108548200864543,-1.0048841396957977 L2.8705255602880277,-0.9001963494147237 L2.9235191893290713,-0.7934658916131052 L2.9697080391756394,-0.6849372008046171 L3.00898083436819,-0.5748590439413994 L3.041242960154885,-0.4634839211092673 L3.066416690540583,-0.3510674572060756 L3.08444137570741,-0.23786778606560938 L3.095273588356151,-0.12414492850782333 L3.098887228614623,-0.01016016581289303 " />
			<path d="M-2.858769384487677,-0.02596465284292515 L-2.8354907651889123,-0.11146920131292326 L-2.8072003516915736,-0.19618656789426825 L-2.773946462708772,-0.279964484141235 L-2.735785894425068,-0.36265228623986134 L-2.6927838234900188,-0.44410117234024504 L-2.645013695696564,-0.5241644567062402 L-2.5925571005345303,-0.6026978202483972 L-2.5355036318336692,-0.6795595570123476 L-2.473950734734439,-0.7546108162017666 L-2.4080035392480985,-0.8277158393227046 L-2.337774680690588,-0.898742192044506 L-2.2633841072972087,-0.9675609903814459 L-2.1849588753467177,-1.0340471208092836 L-2.1026329321452106,-1.0980794539407919 L-2.0165468872406294,-1.1595410513958186 L-1.926847772258622,-1.2183193655128903 L-1.8336887897705463,-1.274306431561465 L-1.737229051622403,-1.3273990521269816 L-1.6376333071718898,-1.3774989733540575 L-1.5350716618979803,-1.424513052747105 L-1.4297192868634632,-1.4683534182421383 L-1.3217561195270742,-1.50893761827823 L-1.211366556416134,-1.546188762612549 L-1.0987391381844422,-1.5800356536387778 L-0.9840662275937002,-1.6104129079845975 L-0.8675436809681196,-1.6372610681808148 L-0.7493705136834108,-1.6605267042113754 L-0.6297485602614978,-1.6801625047709035 L-0.5088821296510506,-1.6961273580738503 L-0.3869776562829239,-1.7083864220771936 L-0.2642433474960999,-1.7169111839965536 L-0.1408888279359517,-1.721679509014057 L-0.017124781532449784,-1.722675678094463 L0.10683740833072441,-1.7198904148447438 L0.23078601984174685,-1.7133209013710067 L0.3545093543641926,-1.702970783105401 L0.47779609800168377,-1.6888501625943961 L0.6004356825057042,-1.6709755822587389 L0.7222186449106021,-1.649369996154268 L0.8429369852819335,-1.6240627307812865 L0.9623845219667544,-1.595089435009327 L1.080357243739663,-1.5624920192023022 L1.1966536582430536,-1.5263185836478108 L1.3110751361265423,-1.4866233364125243 L1.4234262502978676,-1.44346650076365 L1.5335151097058604,-1.3969142123144738 L1.6411536870853158,-1.3470384060693412 L1.7461581401039732,-1.2939166935609756 L1.848349125363139,-1.2376322302898193 L1.9475521047153368,-1.178273573691905 L2.0435976433757364,-1.1159345318777532 L2.136321699318234,-1.0507140034007971 L2.225565903461376,-0.9827158083292704 L2.3111778301656254,-0.9120485109101546 L2.3930112575796323,-0.8388252341285236 L2.4709264173907006,-0.7631634664792504 L2.544790233552445,-0.6851848612816136 L2.6144765495818816,-0.6050150288800329 L2.679866344037305,-0.5227833220862617 L2.7408479338087592,-0.4386226152302024 L2.7973171648736512,-0.3526690771971499 L2.849177590191442,-0.26506193883984097 L2.8963406344334723,-0.1759432551629978 L2.9387257452662494,-0.0854576626874688 " />
			<path d="M3.0498544878404132,0.2456551157321668 L3.0643386904802643,0.3124438580978064 L3.076305563575228,0.3795172205437951 " />
			<path d="M-2.2638397872809546,-0.29296462001286216 L-2.1673320888788274,-0.3740326413565138 L-2.0650254324800166,-0.4513856219975687 L-1.9571816079362256,-0.5248117339113025 L-1.844076574022002,-0.5941091974526236 L-1.7259997522658255,-0.6590867977330728 L-1.6032532863321607,-0.7195643739581703 L-1.4761512688506662,-0.7753732804715932 L-1.3450189376718409,-0.8263568183255692 L-1.2101918436064227,-0.8723706362725325 L-1.0720149917789779,-0.9132831001516326 L-0.930841958793206,-0.9489756297249325 L-0.7870339879682673,-0.9793430021017553 L-0.6409590649616224,-1.004293620975253 L-0.4929909761436527,-1.0237497509831313 L-0.34350835213339187,-1.0376477165938862 L-0.1928936989426483,-1.045938065010727 L-0.04153241920726916,-1.0485856926777402 L0.11018817399061082,-1.0455699350658954 L0.2618798481863252,-1.0368846195105714 L0.4131544449470828,-1.0225380809668119 L0.5636248730958382,-1.0025531406433048 L0.7129060992039773,-0.9769670475710788 L0.8606161328189071,-0.9458313832574978 L1.0063770039063373,-0.9092119296705921 L1.149815730006878,-0.867188500892238 L1.2905652706326902,-0.8198547388716744 L1.4282654664626593,-0.7673178738023245 L1.5625639609333846,-0.7096984497352232 L1.6931171018679896,-0.6471300161311642 L1.81959082083588,-0.5797587861405211 L1.941661487993496,-0.5077432624846208 L2.059016740218177,-0.43125383189545596 " />
			<path d="M4.139280626729724,1.1978810514526195 L-2.7668888817673256,6.305608518153991 " />
			<path d="M4.139280626729724,1.1978810514526197 L4.180344812918003,1.1625083782197787 L4.218692474685726,1.1194686862140928 L4.251798641147731,1.0715931650175783 L4.277480887522243,1.0220349963840805 L4.286985885102854,0.9976478970401019 L4.294043968105721,0.9740632706732452 L4.29853802599546,0.9516721943426316 L4.300393395241742,0.9308464011598573 L4.299579277287638,0.9119317062813187 L4.296109174291932,0.8952418312564168 L4.2900407453851,0.8810539808140703 L4.281474733463841,0.8696034040588796 " />
			<path d="M4.281474733463842,0.8696034040588794 L4.268775016913846,0.8600909236422553 L4.253260823438857,0.8546257890361099 " />
			<path d="M-2.7668888817673256,6.305608518153991 L-2.8041382023906865,6.3290543494765155 L-2.822127166955224,6.337281449180983 L-2.8393651629639955,6.343018393897774 L-2.855618562631792,6.346187103550775 L-2.8706670300276746,6.346744383952717 L-2.88430642559229,6.34468233271609 L-2.8963516054331038,6.340028722458515 " />
			<path d="M-2.8963516054331033,6.340028722458515 L-2.9112938219028375,6.328088449530715 L-2.921678437045479,6.3106476815317745 L-2.927177124529817,6.288257280090025 L-2.927615996935269,6.261625182440554 L-2.9229811080874963,6.231593604658905 L-2.9134190935852997,6.1991121867003685 L-2.89923235426345,6.165207570155936 L-2.8808690784764575,6.130950270529827 " />
			<path d="M1.1347955699195296,-0.6408288920021729 L1.058616113319888,-0.6694536625673836 L0.9813381985852905,-0.696155471858176 L0.9030528364713041,-0.7209075309689529 L0.8238356847012663,-0.7436900349474895 L0.7437754179267421,-0.7644809436292523 L0.6629676489862744,-0.7832589539768651 L0.5815081202750573,-0.8000056139939484 L0.4994926507292337,-0.8147052278845527 L0.41701708775416035,-0.8273447706799485 L0.3341772634686908,-0.8379138122674221 L0.25106895463751155,-0.846404450755721 L0.16778784566357174,-0.8528112551117968 L0.08442949401265287,-0.8571312170034896 L0.0010892974421283785,-0.8593637117827984 L-0.08213753759404807,-0.8595104685443871 L-0.16515602699208864,-0.8575755491939675 L-0.247871440124807,-0.8535653364612084 L-0.3301893316756854,-0.8474885307918137 L-0.4120155748085459,-0.8393561560534191 L-0.4932563963007812,-0.8291815739899477 L-0.5738184142680978,-0.8169805073590761 L-0.6536086791087283,-0.802771071687452 L-0.7325347182950637,-0.7865738155783133 L-0.8105045856406778,-0.7684117695061514 L-0.8874269156706971,-0.7483105030330642 L-0.9632109837234535,-0.7262981903814484 L-1.0377667724113986,-0.7024056842976739 L-1.11100893587986,-0.6766651742487856 L-1.1828724986034853,-0.6491034581717419 L-1.2532732109080431,-0.6197559298205501 L-1.322125541897694,-0.5886615516353715 L-1.3893469063632948,-0.5558612819145793 " />
			<path d="M-1.63848445544239,-0.7053471809897189 L-1.6363640026837274,-0.7039158989656347 " />
			<path d="M-1.560304965102048,-0.6548895214598058 L-1.539488445101486,-0.6422162508977293 " />
			<path d="M-1.3860011125219405,-0.5575536280281048 L-1.384704779417275,-0.556899648295335 " />
			<path d="M1.4909211750497406,-0.6422162507210394 L1.5057662821079711,-0.6505940434775713 " />
			<path d="M1.586821044727831,-0.6985791094497389 L1.6590015013967458,-0.7447138490416814 L1.728996673821067,-0.7928122971072583 L1.796708519124622,-0.8428124739459265 L1.8620425535688563,-0.8946499845846889 " />
			<path d="M1.9593120142099922,-0.9793126054475769 L2.0260428955052388,-1.0434346539729762 " />
			<path d="M2.075156739982958,-1.0943192431224817 L2.135725386159689,-1.16210704626801 L2.192591225905095,-1.231746270889614 " />
			<path d="M2.2549760677591753,-1.31640891274389 L2.296029349515104,-1.3780171790117728 L2.3342477730759175,-1.440677321864097 L2.3695813211448993,-1.5043121713637144 L2.401983640130087,-1.5688426132237412 " />
			<path d="M2.4394777897897963,-1.6535052581620946 L2.463573114285484,-1.71582767279234 L2.48497139518726,-1.7787201417569323 L2.503647498628529,-1.842113643322222 L2.519579743105374,-1.9059390139445311 " />
			<path d="M2.5432362902896735,-2.035280883997834 L2.55402232137658,-2.139014901597719 L2.5576211211718447,-2.243035301142389 " />
			<path d="M2.079619559632486,-0.42492191850040495 L2.1378273459360635,-0.4903781104272574 L2.192591236758449,-0.5575536323788071 " />
			<path d="M2.2549760862104122,-0.6422162474116406 L2.304533932175654,-0.7172847223651164 L2.3498813921681214,-0.7938826805149417 " />
			<path d="M2.3802524601773567,-0.850639122504311 L2.40198367145143,-0.8946499458244733 " />
			<path d="M2.4394778151538308,-0.9793126552511793 L2.4635737765231243,-1.0416368206097424 L2.4849717820048633,-1.1045286670802064 L2.503647529975759,-1.1679210570440077 L2.519579725422709,-1.2317462327929956 " />
			<path d="M2.543236244788674,-1.3610878339732315 L2.5540222261919916,-1.4648208194349337 L2.557621111545124,-1.5688427346146572 " />
			<path d="M2.4497368678950124,-2.1327518264266385 L2.4182825012473352,-2.2077657392378285 L2.3829410284732173,-2.28176879212493 L2.343771779985733,-2.354644416425822 L2.3008403327601927,-2.426278175041052 L2.2542184262592144,-2.496557798984293 L2.2039839131534156,-2.565373234480921 L2.15022074483774,-2.6326167006147054 L2.093018991743402,-2.698182757522627 L2.03247489844547,-2.7619683851378136 L1.9686909735660763,-2.8238730724806027 L1.9017761144732632,-2.883798917497727 L1.8318394231634934,-2.941655798309112 L1.7589919199051303,-2.9973586043741585 L1.6833584521796414,-3.0508183928930013 L1.605067977056661,-3.101951036207208 L1.5242532273852927,-3.150677187610113 L1.4410505174124415,-3.196922173340141 L1.3555995746193492,-3.2406159066976556 L1.268043395729575,-3.2816928247588146 L1.1785281248416586,-3.3200918481599024 L1.0872029516397261,-3.3557563644256105 L0.9942200276352554,-3.3886342353147523 L0.8997343983932609,-3.4186778286568726 L0.803903949696142,-3.445844075153237 L0.7068893655984265,-3.470094550615673 L0.6088540963256568,-3.491395584116737 L0.5099643339706674,-3.5097183925246824 L0.41038899394048123,-3.5250392418967103 L0.31029970010707686,-3.5373396362039684 L0.20985040473402378,-3.546608113124548 L0.10917685739542562,-3.5528375272282413 L0.008460298243582076,-3.556021146599335 L-0.09211921822215463,-3.5561588155723936 L-0.19238446421314542,-3.5532567025857134 L-0.29216100935516054,-3.5473269243619607 L-0.3912772036626123,-3.5383872212076604 L-0.48956417151747544,-3.5264606781615457 L-0.5868558157034957,-3.511575487171996 L-0.6829888308627741,-3.4937647459340293 L-0.7778027260583096,-3.473066289466523 L-0.8711398564425401,-3.449522550960577 L-0.962845464348403,-3.4231804488801543 L-1.0527677304359362,-3.394091297746348 L-1.140757835843899,-3.3623107404868637 L-1.226670036612374,-3.3278987006825305 L-1.3103617519588038,-3.2909193534928596 L-1.391693668306385,-3.2514411144929167 L-1.4705298612802082,-3.209536646103997 L-1.5467379382030437,-3.1652828817507945 L-1.620189203939127,-3.1187610683280145 L-1.6907588532507787,-3.070056828009577 L-1.7583261931491871,-3.0192602408837956 L-1.8227748990371526,-2.96646595034814 L-1.883993308758059,-2.911773293647417 L-1.9418747589818368,-2.8552864603894257 L-1.9963179686751662,-2.7971146823223636 L-2.047229220923388,-2.7373703096817947 L-2.0945418265139426,-2.676142222929806 L-2.1381803366137793,-2.6135351677247276 L-2.178069724098286,-2.5496633072345745 L-2.214142128232839,-2.4846423120984515 L-2.2463366835763963,-2.4185892487183804 L-2.274599385809354,-2.3516224758496636 L-2.298882994485667,-2.283861549489788 " />
			<path d="M-2.1596073959367073,-0.5575536127737538 L-2.1210415835281724,-0.4987617449918267 L-2.079266326304185,-0.44109470500201 " />
			<path d="M-2.036527452733903,-0.3872725954646251 L-2.028443721089869,-0.37759922555004444 " />
			<path d="M2.557215384674892,-0.25539490699239364 L2.551496273707554,-0.356127271884234 L2.53903569311971,-0.45651161209735913 L2.519867823899993,-0.5562840445382748 L2.49404564440161,-0.6551843350445687 " />
			<path d="M2.449737028601702,-0.7843659832480702 L2.4182744883463942,-0.8593982078860182 L2.382922406116503,-0.9334201374558557 L2.3437398777036798,-1.0063152419307393 L2.3007925317156923,-1.07796861061603 L2.2541525907857043,-1.1482670236628336 L2.2038989698679377,-1.2170990317397339 L2.1501174116197035,-1.284355043862728 L2.0929004066585843,-1.349927699883189 L2.032335732413564,-1.4137237025509028 L1.968521860545116,-1.4756452964863513 L1.9015686577496633,-1.5355920342075657 L1.8315907539730811,-1.5934681627181797 L1.7587072829374113,-1.6491824961039792 L1.683041654487947,-1.702648307235573 L1.6047213568317897,-1.7537832391757644 L1.523877786738988,-1.802509236890208 L1.4406461057773636,-1.8487524998599234 L1.3551651206521296,-1.8924434561942558 L1.2675771857214082,-1.9335167588428575 L1.1780281257587557,-1.9719113045052699 L1.086667177033795,-2.0075702758366916 L0.9936469447820704,-2.0404412075485028 L0.8991233751352237,-2.070476077002138 L0.8032557395826003,-2.097631419894875 L0.7062066300353922,-2.1218684716361293 L0.6081419625644249,-2.1431533350128236 L0.5092309878826895,-2.161457174742424 L0.40964386578129697,-2.1767567793352134 L0.3095286943972384,-2.189036991507321 L0.2090522419560292,-2.1982840553982426 L0.10838754168452813,-2.204488888536297 L0.0077065022513908565,-2.2076480794485382 L-0.0928201648462218,-2.207763682124348 L-0.1930230134581279,-2.204843040086487 L-0.29273392867307835,-2.1988986395325463 L-0.3917861925814605,-2.189947991009738 L-0.49001455206303113,-2.1780135390859585 L-0.5872552907539547,-2.1631225994800682 L-0.6833463073474312,-2.1453073231143267 L-0.7781272023821882,-2.124604686551914 L-0.8714393756731192,-2.10105650828249 L-0.9631261365383458,-2.0747094903187144 L-1.0530328289769875,-2.0456152845666784 L-1.141006973951912,-2.0138305834331787 L-1.2268984309317537,-1.9794172341327776 L-1.3105595808464727,-1.9424423761575798 L-1.3918545332092211,-1.9029740422945602 L-1.4706586020936434,-1.8610797472274594 L-1.5468349502294916,-1.81683867223006 L-1.6202524451794962,-1.7703338852238177 L-1.6907859810246078,-1.7216519174780083 L-1.758316354883365,-1.6708825824930167 L-1.8227301674399634,-1.6181188182900632 L-1.883919748672477,-1.5634565515336227 L-1.9417831099726923,-1.5069945819127857 L-1.9962239238490196,-1.4488344852078183 L-2.0471515324039347,-1.3890805334681746 L-2.094480985777414,-1.327839630728214 L-2.1381331117478215,-1.2652212626868786 L-2.178034617681709,-1.2013374587775822 L-2.214118226023985,-1.1363027650545692 L-2.2463228445199155,-1.0702342263219924 L-2.2745937723604186,-1.003251375931967 L-2.2988829434421016,-0.9354762316778709 " />
			<path d="M-0.8270394973390901,-2.994062519905147 L-0.9036259787438072,-3.019097808164529 L-0.9790626804187462,-3.04603361873967 L-1.053263585366599,-3.074840334444516 L-1.126144040603729,-3.105486226897256 L-1.1976207853059184,-3.1379374575448047 L-1.2676119852728747,-3.17215807002748 L-1.3360372741667388,-3.2081099740950347 L-1.4028178019798285,-3.245752921285199 " />
			<path d="M-1.5452972694900344,-3.3354811748518607 L-1.5654822013985046,-3.3493385055582383 " />
			<path d="M-1.63649667199461,-3.400622811664537 L-1.6384844554423832,-3.402117950880349 " />
			<path d="M-1.4622779298644701,-6.174614902824816 L-1.3592420779244185,-6.233843717869248 L-1.252094362471086,-6.288949408914215 L-1.1411369356159775,-6.339776580197571 L-1.0266826926986687,-6.386181901205361 L-0.9090543899349284,-6.4280345108579215 L-0.7885837342575844,-6.465216386532701 L-0.6656104479167421,-6.49762267688315 L-0.5404813104771298,-6.5251619975151725 L-0.41354918091411774,-6.5477566886873255 L-0.2851720025660494,-6.565343034308065 L-0.15571179374888017,-6.5778714416124835 L-0.025533626879550186,-6.585306581011847 L0.10499540101308917,-6.587627485721567 L0.2355072034866597,-6.584827610886669 L0.3656337426737458,-6.576914852038008 L0.49500806713341566,-6.563911522827196 L0.6232653466390554,-6.545854292103039 L0.7500439009844706,-6.522794080506897 L0.8749862199070585,-6.494795916878593 L0.9977399712519129,-6.461938754877781 L1.117958994533887,-6.4243152503379 L1.2353042770957923,-6.382031499980571 L1.3494449101100223,-6.335206742227249 L1.4600590217277203,-6.283973020951812 L1.5668346847440358,-6.2284748131223235 L1.6694707962198982,-6.168868621381977 L1.7676779265798115,-6.10532253271813 L1.8611791357912462,-6.038015744463984 L1.9497107543240415,-5.967138058969533 L2.033023126687536,-5.892889348366815 L2.1108813154486974,-5.815478990938794 L2.1830657637459154,-5.735125280681304 " />
			<path d="M2.432038630116801,-4.198792342062648 L2.395481468302339,-4.123209475980749 " />
			<path d="M2.234824703716752,-3.872276228993728 L2.1850704478424015,-3.8106873466831646 L2.1320621728570304,-3.7505974809122375 " />
			<path d="M1.9143537157988018,-3.5470873294767986 L1.8523048520264032,-3.49872530902562 L1.787895635896953,-3.4520769243484395 L1.7212127714698937,-3.4072049708736287 L1.6523460234619647,-3.3641698526979193 " />
			<path d="M-0.6058754540004991,-3.0320065090459094 L-0.7004676553165797,-3.054455991104377 L-0.7937545719269647,-3.079709635700782 L-0.8855838734690378,-3.1077262055750827 L-0.9758056097535228,-3.138459951822682 L-1.0642724556216143,-3.17186068859887 L-1.150839951515635,-3.2078738750684503 L-1.2353667393703869,-3.2464407044667327 L-1.3177147934399946,-3.28749820012645 " />
			<path d="M-1.564154854699688,-3.434208861538845 L-1.6384844554423839,-3.4867805550699975 " />
			<path d="M0.09888700649618443,3.318590773396494 L-1.0122233209576597,4.140355824354043 " />
			<path d="M0.09888700649618443,3.318590773396494 L1.2115522799065532,4.1392074104745635 " />
			<path d="M0.09888700649618443,3.318590773396494 L0.09888700649618454,2.4510695454685623 " />
			<path d="M-1.0122233209576597,4.140355824354043 L-0.9890707348634333,4.12794045833628 L-0.9659108599600358,4.123223756481184 L-0.942746125850524,4.123639497401198 L-0.9195789621379552,4.126621459708769 " />
			<path d="M-1.0122233209576597,4.140355824354043 L-1.0023141912061833,4.131796631554981 L-0.9954453796590136,4.12323900885302 L-0.9890913864894185,4.1061275765420575 L-0.989686692072524,4.089019733024467 L-0.9937566470319799,4.0719136839035635 " />
			<path d="M1.2115522799065532,4.1392074104745635 L1.201626952801363,4.130658460689921 L1.1947419439004794,4.122107940808179 L1.1883555560234567,4.105003087951733 L1.1889184668991346,4.087894646301915 L1.1929560271511628,4.070784410255409 " />
			<path d="M1.2115522799065532,4.1392074104745635 L1.1883762076494417,4.126815969745956 L1.1652074242015016,4.122123193180015 L1.1420434999596756,4.122562859389186 L1.1188820053209068,4.125568746985912 " />
			<path d="M-1.085831498091459,4.344562567280869 L-1.1162474368129975,4.221194423857123 " />
			<path d="M-1.1162474368129978,4.221194423857124 L-1.2919478945611642,4.1974700792607145 " />
			<path d="M-1.2919478945611642,4.1974700792607145 L-1.2600034726468663,4.173844334045685 " />
			<path d="M-1.2600034726468663,4.173844334045684 L-1.1201637153581054,4.195329055745674 " />
			<path d="M-1.1201637153581054,4.195329055745674 L-1.1491709408624649,4.091873805215958 " />
			<path d="M-1.1491709408624646,4.091873805215958 L-1.1177817124223337,4.068658675024762 " />
			<path d="M-1.117781712422334,4.068658675024762 L-1.0854143060709336,4.198390577443874 " />
			<path d="M-1.0854143060709336,4.198390577443874 L-0.9194425457104662,4.221503117149155 " />
			<path d="M-0.9194425457104662,4.221503117149155 L-0.950831774150597,4.24471824734035 " />
			<path d="M-0.9508317741505969,4.24471824734035 L-1.0823312062204824,4.224461539983794 " />
			<path d="M-1.0823312062204822,4.224461539983794 L-1.0549983673493948,4.32175872086762 " />
			<path d="M-1.0549983673493948,4.32175872086762 L-1.0858314980914592,4.34456256728087 " />
			<path d="M1.497226916053172,4.2003414885034305 L1.297953333271625,4.2351398621948695 " />
			<path d="M1.2979533332716249,4.23513986219487 L1.2185091257034548,4.293895929587513 " />
			<path d="M1.218509125703455,4.293895929587513 L1.1926392959009369,4.274816325647636 " />
			<path d="M1.192639295900937,4.274816325647636 L1.2720835034691071,4.216060258254994 " />
			<path d="M1.272083503469107,4.216060258254993 L1.3169747795649651,4.067401326168971 " />
			<path d="M1.3169747795649651,4.067401326168972 L1.3489639061755132,4.090994054484967 " />
			<path d="M1.348963906175513,4.090994054484966 L1.3098806378393026,4.207828826405031 " />
			<path d="M1.3098806378393026,4.207828826405032 L1.46634973032458,4.177568842568891 " />
			<path d="M1.46634973032458,4.177568842568891 L1.497226916053172,4.2003414885034305 " />
			<path d="M-3.9415066137372765,5.439300495340326 L-4.003458624545738,5.373401069385481 L-4.0634405001363225,5.306514828936129 L-4.121423434451188,5.2386738958439505 L-4.177379581416109,5.169910850447984 L-4.231282068313452,5.100258715928037 L-4.283105008687682,5.029750942445447 L-4.332823514777232,4.95842139107877 L-4.380413709466754,4.8863043175621295 L-4.42585273775401,4.813434355834039 L-4.469118777725892,4.73984650140459 L-4.510191051038314,4.665576094548994 L-4.549049832894924,4.590658803335561 L-4.585676461519864,4.515130606496246 L-4.620053347120015,4.439027776148006 L-4.652163980332415,4.362386860373264 L-4.681992940152829,4.285244665667836 L-4.709525901341615,4.207638239264755 L-4.734749641303368,4.129604851342482 L-4.757652046437017,4.051181977126061 L-4.778222117953338,3.9724072788897793 L-4.796449977157073,3.8933185878700143 L-4.812326870191138,3.813953886096931 L-4.825845172240628,3.7343512881537686 L-4.836998391194601,3.6545490228724544 L-4.8457811707638925,3.574585414974365 L-4.852189293053449,3.49449886666503 L-4.8562196805879605,3.4143278391916194 L-4.857870397789798,3.3341108343720878 L-4.857140651908573,3.2538863761048313 L-4.85403079340185,3.1736929918677323 L-4.848542315766842,3.093569194215494 L-4.8406778548231655,3.0135534622841393 L-4.8304411874469935,2.933684223311555 L-4.817837229757231,2.853999834182965 L-4.802872034754568,2.774538563010191 L-4.785552789414545,2.6953385707535418 L-4.765887811236044,2.6164378928951613 L-4.743886544246835,2.5378744211726434 L-4.719559554468126,2.459685885381669 L-4.692918524840266,2.381909835256426 L-4.663976249612068,2.304583622436499 L-4.632746628196412,2.2277443825288907 L-4.599244658495117,2.1514290172737933 L-4.563486429696249,2.0756741768226776 L-4.52548911454736,2.000516242137196 L-4.485270961108337,1.925991307517376 L-4.442851283987849,1.8521351632674763 L-4.398250455067582,1.778983278507832 L-4.35148989371872,1.7065707841409514 L-4.302592056515382,1.6349324559800391 L-4.251580426449938,1.5641026980480501 L-4.198479501655397,1.4941155260552959 L-4.143314783640271,1.4250045510635285 L-4.086112765041584,1.3568029633443675 L-4.026900916901883,1.2895435164398026 L-3.9657076754763816,1.2232585114324346 L-3.9025624285765588,1.1579797814330064 L-3.837495501456781,1.093738676292681 L-3.7705381422507176,1.030566047547398 L-3.701722506964551,0.9684922336015469 L-3.6310816440341775,0.9075470451580663 L-3.5586494784538303,0.8477597509019739 L-3.4844607954837374,0.7891590634441985 L-3.408551223944636,0.7317731255324595 L-3.2517160451844003,0.6207551392094355 L-3.0884451838913773,0.5149190301185009 L-2.9190522431435566,0.4144680833364318 L-2.743862585024462,0.3195952403706652 L-2.5632127056827825,0.230482728566217 L-2.377449589006229,0.14730171109187573 L-2.186930040151001,0.0702119581779419 L-1.9920200002070447,-0.0006384597629964794 L-1.793093843315432,-0.06511345654282508 L-1.590533657587907,-0.12308919158592824 L-1.3847285112098136,-0.17445430779640825 L-1.1760737051360213,-0.21911014544761453 L-0.9649700138152206,-0.2569709316831621 L-0.7518229154010064,-0.28796394526544233 L-0.537041812928306,-0.31202965625519585 L-0.32103924795105304,-0.32912184035384984 L-0.10423010815156028,-0.3392076676890041 L0.11296916955644808,-0.34226776587252195 L0.33014139890049543,-0.33829625721011336 L0.5468694455613403,-0.3273007699909338 L0.762737028385193,-0.30930242383552553 L0.9773295189571882,-0.2843357891302283 L1.1902347380003557,-0.2524488206259923 L1.401043747070421,-0.21370276532912147 L1.6093516340257488,-0.16817204486087078 L1.8147582907637543,-0.11594411251185699 L2.0168691817299433,-0.057119285265847086 L2.215296101723453,0.008189448884440509 L2.40965792154356,0.07985664795942116 L2.599581320044922,0.15774465693576278 L2.784701501195462,0.24170387214775024 L2.9646628947596017,0.33157302863903615 " />
			<path d="M4.1392806267296445,1.197881051452661 L4.201232637538107,1.2637804774075065 L4.261214513128691,1.330666717856859 L4.319197447443556,1.3985076509490366 L4.375153594408479,1.4672706963450053 L4.429056081305823,1.5369228308649532 L4.480879021680052,1.6074306043475433 L4.5305975277696025,1.6787601557142207 L4.5781877224591225,1.750877229230858 L4.623626750746376,1.8237471909589453 L4.666892790718259,1.8973350453883946 L4.707965064030681,1.9716054522439905 L4.746823845887292,2.046522743457425 L4.783450474512233,2.1220509402967416 L4.817827360112384,2.1981537706449816 L4.849937993324784,2.274794686419723 L4.8797669531451975,2.351936881125151 L4.907299914333984,2.429543307528233 L4.9325236542957365,2.507576695450505 L4.955426059429386,2.5859995696669262 L4.975996130945707,2.6647742679032094 L4.994223990149443,2.7438629589229766 L5.010100883183508,2.8232276606960593 L5.023619185232998,2.9028302586392223 L5.0347724041869695,2.982632523920533 L5.04355518375626,3.062596131818619 L5.049963306045818,3.142682680127956 L5.053993693580329,3.222853707601368 L5.0556444107821665,3.3030707124208996 L5.0549146649009415,3.383295170688156 L5.051804806394219,3.463488554925255 L5.046316328759211,3.5436123525774934 L5.038451867815534,3.6236280845088493 L5.028215200439361,3.7034973234814355 L5.0156112427496,3.783181712610026 L5.000646047746936,3.8626429837827994 L4.983326802406913,3.9418429760394487 L4.963661824228412,4.02074365389783 L4.941660557239203,4.099307125620349 L4.917333567460493,4.177495661411324 L4.890692537832634,4.255271711536564 L4.861750262604437,4.332597924356488 L4.830520641188781,4.409437164264097 L4.797018671487486,4.4857525295191945 L4.761260442688617,4.561507369970311 L4.723263127539728,4.636665304655795 L4.683044974100704,4.711190239275615 L4.640625296980216,4.785046383525514 L4.596024468059949,4.858198268285158 L4.549263906711087,4.930610762652039 L4.500366069507749,5.002249090812951 L4.449354439442305,5.07307884874494 L4.396253514647764,5.1430660207376935 L4.341088796632641,5.212176995729459 L4.283886778033953,5.28037858344862 L4.224674929894252,5.347638030353185 L4.16348168846875,5.413923035360553 L4.100336441568928,5.479201765359981 L4.03526951444915,5.543442870500306 L3.968312155243087,5.606615499245589 L3.8994965199569185,5.668689313191442 L3.8288556570265437,5.729634501634924 L3.7564234914461965,5.789421795891016 L3.6822348084761036,5.848022483348791 L3.606325236937005,5.905408421260528 L3.4494900581767713,6.01642640758355 L3.2862191968837466,6.122262516674487 L3.116826256135926,6.2227134634565555 L2.941636598016831,6.3175863064223226 L2.7609867186751518,6.40669881822677 L2.5752236019985983,6.489879835701112 L2.3847040531433703,6.566969588615046 L2.189794013199414,6.637820006555984 L1.9908678563078015,6.702295003335813 L1.7883076705802763,6.760270738378916 L1.5825025242021828,6.811635854589396 L1.3738477181283908,6.856291692240602 L1.16274402680759,6.894152478476149 L0.9495969283933758,6.92514549205843 L0.7348158259206754,6.949211203048184 L0.5188132609434225,6.966303387146837 L0.3020041211439297,6.976389214481992 L0.08480484343592139,6.97944931266551 L-0.13236738590812597,6.975477804003101 L-0.34909543256897085,6.964482316783922 L-0.5649630153928235,6.946483970628513 L-0.7795555059648187,6.921517335923216 L-0.9924607250079862,6.88963036741898 L-1.2032697340780516,6.850884312122109 L-1.4115776210333708,6.80535359165386 L-1.6169842777713768,6.753125659304847 L-1.819095168737566,6.694300832058838 L-2.0175220887310794,6.628992097908549 L-2.2118839085511905,6.557324898833567 L-2.4018073070525525,6.479436889857226 L-2.586927488203093,6.395477674645238 L-2.7668888817671964,6.305608518153971 " />
			<path d="M-4.083700720169177,5.464191432680799 L-4.150022407054005,5.3946132569592375 L-4.214291621326806,5.323940321261293 L-4.276476281382809,5.252206403520618 L-4.33654540627774,5.179445759558906 L-4.394469115727827,5.105693123085885 L-4.450218630109799,5.030983705699321 L-4.503766270460885,4.955353196885017 L-4.555085458478818,4.878837764016813 L-4.604150716521827,4.8014740523565855 L-4.650937667608647,4.7232991850542465 L-4.695423035418512,4.644350763147748 L-4.737584644291154,4.564666865563076 L-4.77740141922681,4.484286049114257 L-4.814853385886217,4.40324734850335 L-4.849921670590611,4.321590276320455 L-4.882588500321731,4.2393548230437075 L-4.912837202721816,4.156581457039278 L-4.940652206093606,4.073311124561377 L-4.966019039400344,3.989585249752249 L-4.9889243322657695,3.9054457346421785 L-5.0093558149741275,3.8209349591494854 L-5.02730231847016,3.7360957810805258 L-5.042754353264058,3.6509709104159684 L-5.055705523159926,3.565601515818197 L-5.0661491880668805,3.480030725281065 L-5.074079843881714,3.3943018805602496 L-5.079493310458565,3.3084583241369874 L-5.082386731608917,3.2225433992180728 L-5.082758575101602,3.136600449735859 L-5.0806086326627975,3.050672820348258 L-5.075938019976026,2.9648038564387402 L-5.068749176682157,2.879036904116335 L-5.0590458663794085,2.7934153102156287 L-5.046833176623341,2.7079824222967686 L-5.032117518545925,2.622781588062208 L-5.014905892397044,2.537854908398456 L-4.9952069469192635,2.4532444586793045 L-4.973031306223648,2.368993053392761 L-4.948390726202612,2.285143053926471 L-4.921298094529918,2.2017363685677225 L-4.89176743066068,2.1188144525034405 L-4.859813885831359,2.036418307820192 L-4.825453743059768,1.954588483504182 L-4.788704417145067,1.873365075441257 L-4.749584454667764,1.792787726416902 L-4.70811353398972,1.712895626116243 L-4.6643124652541434,1.6337275111240444 L-4.618203190385591,1.5553216649247112 L-4.56980878308997,1.477715917902289 L-4.519153448854537,1.4009476473404614 L-4.466262524947897,1.3250537774225535 L-4.411162480420005,1.250070779231529 L-4.353880916102165,1.1760346707499925 L-4.294446323299852,1.102980846464364 L-4.232886670830393,1.0309430644923778 L-4.16923211312355,0.9599553646365913 L-4.1035140028796775,0.8900514103299992 L-4.035764547548627,0.821264249038917 L-3.9660168093297514,0.75362631226298 L-3.894304705171896,0.6871694155351442 L-3.820663006773409,0.621924758421686 L-3.7451273405821337,0.5579229245222019 L-3.667734187795413,0.4951938814696092 L-3.588520884360087,0.433766980930145 L-3.5075256209724945,0.37367095860336763 L-3.4247874430784715,0.314933934222155 L-3.340346250873353,0.2575834115527058 L-3.2542427993019705,0.20164627839453886 L-3.1665186980586553,0.14714880658049367 L-3.077216411587236,0.09411665197673025 L-2.986379243048544,0.04257484545225579 L-2.8940503643451763,-0.007452759194941733 L-2.8002739739372986,-0.05594284446869005 L-2.705095418130487,-0.10287254645787414 L-2.608560633082153,-0.1482197658974067 L-2.51071614480154,-0.19196316816822862 L-2.3112871118396168,-0.27455700595764254 L-2.1071923243553288,-0.3504986757941996 L-1.8988252250886175,-0.41964502798242986 L-1.6865886944087543,-0.48186514716330997 L-1.4708919361516846,-0.5370412665621718 L-1.2521509990221338,-0.5850691629765649 L-1.03079121682264,-0.6258573172504922 L-0.8072415286274057,-0.6593282380475114 L-0.5819344299293492,-0.6854184744563672 L-0.35530597264010644,-0.7040786159909918 L-0.12779576509002855,-0.7152732925905041 L0.10015302797181569,-0.7189811746192105 L0.32810840114950024,-0.7151922371638283 L0.5556336305820457,-0.7039121420785195 L0.7822769316126573,-0.6851643959474036 L1.0075926885309334,-0.6589859317303204 L1.2311414754840928,-0.6254271045509177 L1.452490056476974,-0.5845516916966521 L1.671211385372036,-0.5364368926187887 L1.8868846058893574,-0.48117332893240083 L2.0990950516066373,-0.41886504441637057 L2.3074342459591954,-0.34962950501338813 L2.5114999022399696,-0.2735975988299525 L2.7108959235995203,-0.19091363613637102 L2.808720733457579,-0.147125900680663 L2.9052324030460257,-0.10173534936675954 L3.0003831611561362,-0.05476379596202008 L3.09412562344526,-0.006233893119056311 " />
			<path d="M-2.9011132148247913,-4.392412670341695 L-2.9011132148247913,-4.3081385842179305 " />
			<path d="M3.0988869952282028,-4.055316166373377 L3.0988869952282028,-3.9710420802496125 " />
			<path d="M-2.9011129934885522,-3.7182203581303126 L-2.9011129934885522,-3.633946272006549 " />
			<path d="M3.0988869942048383,-3.3811246120965057 L3.0988869942048383,-3.2968505259747296 " />
			<path d="M-2.901113215622258,-3.044028101344634 L-2.901113215622169,-2.959754015220842 " />
			<path d="M3.0988870251127683,-2.7069310791313956 L3.0988870251127683,-2.622656993007631 " />
			<path d="M-2.901112951764329,-2.3698347650039997 L-2.9011129517643384,-2.2855606788802474 " />
			<path d="M3.0988869652408777,-2.032738401169376 L3.0988869652408777,-1.9484643150456107 " />
			<path d="M-2.9011130116228916,-1.6956420732338415 L-2.9011130116228916,-1.611367987110077 " />
			<path d="M3.0988872278172543,-1.3585464185071965 L3.0988872278172543,-1.2742723323834328 " />
			<path d="M-2.901112982235838,-1.0214501464837555 L-2.901112982235838,-0.9371760603599909 " />
			<path d="M3.0988870064812737,-0.6843533226839185 L3.0988870064812737,-0.6000792365601538 " />
			<path d="M-2.901112981212596,-0.3472564303832222 L-2.901112981212596,-0.26298234425945766 " />
			<path d="M3.0988872286145295,-0.010160165812753696 L3.098887228614539,-0.0033736640590319696 " />
			<path d="M-2.896351609970675,6.3400287301220555 L-2.80260924175281,6.388558585632831 L-2.7074585884100264,6.435530091077796 L-2.610947033463525,6.48092059460878 L-2.5131223473062376,6.524708283205841 L-2.3137265972896737,6.607392157659573 L-2.1096612389383806,6.6834239868440335 L-1.9013223627780804,6.752659464415928 L-1.6891122492821753,6.8149677052836255 L-1.473439368871746,6.870231245607153 L-1.2547183819155507,6.918346042798202 L-1.0333701387300283,6.959221475520127 L-0.8098216795792941,6.992780343687941 L-0.5845062346751426,7.018958868468323 L-0.3578632241770481,7.0377066922796105 L-0.13033825819216327,7.048986878791807 L0.09761688081259255,7.052775916539378 L0.325565338375029,7.0490681677147 L0.5530752535900092,7.037873678297279 L0.7797035397454375,7.019213736788787 L1.0050106024209458,6.993123691208494 L1.2285603394878928,6.959652949093266 L1.4499201411093643,6.91886497749757 L1.6686608897401745,6.870837302993467 L1.884357339272561,6.815661415071914 L2.0965942782955853,6.753441375528696 L2.3049615563390096,6.68429518052319 L2.509056532022492,6.608353642001788 L2.70848585878012,6.525759871376281 L2.8063305245607117,6.482016484475745 L2.9028654848604107,6.436669279523864 L2.9980441855250364,6.3897396046717585 L3.09182065332631,6.341249576787133 L3.1841495619550324,6.291222044355958 L3.2749872343225244,6.239680032464574 L3.3642899462414135,6.186647708172595 L3.452014397566487,6.132150099432444 L3.5381181408919646,6.076212851548786 L3.6225595815514966,6.018862227178521 L3.705297977618165,5.960125106330787 L3.7862934399044823,5.900028986366962 L3.865506931962393,5.838601982000658 L3.9429002700832725,5.77587282529773 L4.018436123297928,5.711870865676266 L4.092078013376597,5.646626069906594 L4.163790314828949,5.58016902211128 L4.233538254904086,5.512530923765127 L4.301287913590538,5.443743593695177 L4.367006223616269,5.373839468080709 L4.430660970448674,5.3028516004532396 L4.492220792294578,5.230813661696524 L4.551655381471144,5.157759799830774 L4.608936827596946,5.0837237312930625 L4.664036807380969,5.008740734374539 L4.716927704782488,4.932846839458399 L4.767583037540318,4.856078528252653 L4.81597745717281,4.778472733790132 L4.86208674897786,4.700066840428482 L4.905887832032897,4.620898683850168 L4.947358759194891,4.541006551062474 L4.986478717100355,4.4604291803975 L5.023228026165335,4.379205761512166 L5.0575881405854215,4.2973759353882075 L5.089541648335741,4.214979794332178 L5.11907227117096,4.132057881975451 L5.146164864625284,4.048651193274216 L5.170805418012459,3.96480117450948 L5.192981054425768,3.880549723287069 L5.212680030738036,3.795939188537627 L5.229891737601624,3.711012370516613 L5.2446073720098445,3.625811551555033 L5.25682002824494,3.5403786512895286 L5.2665233046269675,3.4547570198206246 L5.273712112639875,3.3689900195546065 L5.278382687610415,3.2831210084816687 L5.2805325887081525,3.1971933401759154 L5.280160698945451,3.111250363795361 L5.277267225177489,3.0253354240819297 L5.271853698102245,2.939491861361455 L5.263922972260508,2.8537630115436796 L5.2534792260358705,2.768192206122256 L5.240527961654736,2.682822772174748 L5.225075901754402,2.597697915876322 L5.207129512239298,2.512858905301722 L5.186698104524438,2.4283482603717945 L5.163792855225304,2.3442088450630165 L5.138426040973442,2.260483044983251 L5.110611038416458,2.177212767371748 L5.080362324218016,2.0944394410991434 L5.047695475057841,2.012204016667461 L5.01262716763172,1.930546966210109 L4.975175178651498,1.8495082834918846 L4.935358384845083,1.76912748390897 L4.893196762956439,1.6894436044889347 L4.848711389745596,1.6104952038907343 L4.801924441988639,1.5323203624047115 L4.752859196477717,1.454956681952595 L4.701540030021037,1.3784412860875004 L4.647992419442867,1.3028108199939303 L4.592242941583535,1.2281014504877728 L4.534319273299432,1.1543488660163035 L4.474250191463005,1.0815882766581846 L4.4120655729627645,1.0098544141234644 L4.347796394703279,0.9391815317535779 L4.281474733605198,0.8696034045213665 " />
			<path d="M-2.359847116138816,-3.9285170720109557 L-2.359847116138816,-4.097842229910167 " />
			<path d="M2.557621129131185,-0.25523137844844523 L2.557621129131185,-0.38978252788765033 " />

        </g>
        </g>
    </svg>
    