<?xml version="1.0" encoding="UTF-8" standalone="no"?>
<svg
   xmlns:svg="http://www.w3.org/2000/svg"
   xmlns="http://www.w3.org/2000/svg"
   width="250.0"
   height="125.0"

>
    <g transform="scale(3.90625, -3.90625)   translate(31.68,-15.68)" stroke-width="0.256"  fill="none">
       <!-- hidden lines -->
       <g  stroke="rgb(160,160,160)" fill="none" stroke-dasharray="0.256,0.256" >

       </g>

       <!-- solid lines -->
       <g  stroke="rgb(0,0,0)" fill="none">
			<path d="M-24.0,8.0 L-24.0,-8.0 " />
			<path d="M24.0,8.0 L-24.0,8.0 " />
			<path d="M-24.0,-8.0 L24.0,-8.0 " />
			<path d="M24.0,-8.0 L24.0,8.0 " />
			<path d="M12.3,6.5 L12.3,6.8 " />
			<path d="M11.7,6.5 L12.3,6.5 " />
			<path d="M11.7,6.5 L11.7,6.8 " />
			<path d="M4.3,6.8 L11.7,6.8 " />
			<path d="M4.3,6.5 L4.3,6.8 " />
			<path d="M3.7,6.5 L4.3,6.5 " />
			<path d="M3.7,6.5 L3.7,6.8 " />
			<path d="M-3.7,6.8 L3.7,6.8 " />
			<path d="M-3.7,6.5 L-3.7,6.8 " />
			<path d="M-4.3,6.5 L-3.7,6.5 " />
			<path d="M-4.3,6.5 L-4.3,6.8 " />
			<path d="M-11.7,6.8 L-4.3,6.8 " />
			<path d="M-11.7,6.5 L-11.7,6.8 " />
			<path d="M-12.3,6.5 L-11.7,6.5 " />
			<path d="M-12.3,6.5 L-12.3,6.8 " />
			<path d="M-19.7,6.8 L-12.3,6.8 " />
			<path d="M-19.7,6.5 L-19.7,6.8 " />
			<path d="M-20.3,6.5 L-19.7,6.5 " />
			<path d="M-20.3,6.5 L-20.3,6.8 " />
			<path d="M-22.799999999999997,6.8 L-20.3,6.8 " />
			<path d="M-22.8,4.3 L-22.8,6.800000000000001 " />
			<path d="M-22.8,4.3 L-22.5,4.3 " />
			<path d="M-22.5,3.7 L-22.5,4.3 " />
			<path d="M-22.8,3.7 L-22.5,3.7 " />
			<path d="M-22.8,-3.7 L-22.8,3.7 " />
			<path d="M-22.8,-3.7 L-22.5,-3.7 " />
			<path d="M-22.5,-4.3 L-22.5,-3.7 " />
			<path d="M-22.8,-4.3 L-22.5,-4.3 " />
			<path d="M-22.8,-6.800000000000001 L-22.8,-4.3 " />
			<path d="M-22.799999999999997,-6.8 L-20.3,-6.8 " />
			<path d="M-20.3,-6.8 L-20.3,-6.5 " />
			<path d="M-20.3,-6.5 L-19.7,-6.5 " />
			<path d="M-19.7,-6.8 L-19.7,-6.5 " />
			<path d="M-19.7,-6.8 L-12.3,-6.8 " />
			<path d="M-12.3,-6.8 L-12.3,-6.5 " />
			<path d="M-12.3,-6.5 L-11.7,-6.5 " />
			<path d="M-11.7,-6.8 L-11.7,-6.5 " />
			<path d="M-11.7,-6.8 L-4.3,-6.8 " />
			<path d="M-4.3,-6.8 L-4.3,-6.5 " />
			<path d="M-4.3,-6.5 L-3.7,-6.5 " />
			<path d="M-3.7,-6.8 L-3.7,-6.5 " />
			<path d="M-3.7,-6.8 L3.7,-6.8 " />
			<path d="M3.7,-6.8 L3.7,-6.5 " />
			<path d="M3.7,-6.5 L4.3,-6.5 " />
			<path d="M4.3,-6.8 L4.3,-6.5 " />
			<path d="M4.3,-6.8 L11.7,-6.8 " />
			<path d="M11.7,-6.8 L11.7,-6.5 " />
			<path d="M11.7,-6.5 L12.3,-6.5 " />
			<path d="M12.3,-6.8 L12.3,-6.5 " />
			<path d="M12.3,-6.8 L19.7,-6.8 " />
			<path d="M19.7,-6.8 L19.7,-6.5 " />
			<path d="M19.7,-6.5 L20.3,-6.5 " />
			<path d="M20.3,-6.8 L20.3,-6.5 " />
			<path d="M20.3,-6.8 L22.799999999999997,-6.8 " />
			<path d="M22.8,-6.800000000000001 L22.8,-4.3 " />
			<path d="M22.5,-4.3 L22.8,-4.3 " />
			<path d="M22.5,-4.3 L22.5,-3.7 " />
			<path d="M22.5,-3.7 L22.8,-3.7 " />
			<path d="M22.8,-3.7 L22.8,3.7 " />
			<path d="M22.5,3.7 L22.8,3.7 " />
			<path d="M22.5,3.7 L22.5,4.3 " />
			<path d="M22.5,4.3 L22.8,4.3 " />
			<path d="M22.8,4.3 L22.8,6.800000000000001 " />
			<path d="M20.3,6.8 L22.799999999999997,6.8 " />
			<path d="M20.3,6.5 L20.3,6.8 " />
			<path d="M19.7,6.5 L20.3,6.5 " />
			<path d="M19.7,6.5 L19.7,6.8 " />
			<path d="M12.3,6.8 L19.7,6.8 " />
			<path d="M-12.75,0.0 L-12.75397664730365,0.16072458974890175 L-12.76589685769228,0.321055859493831 L-12.785731460413576,0.48060145175077407 L-12.813431916870968,0.6389709317201877 L-12.848930439405699,0.7957767427463789 L-12.892140157184585,0.9506351547335854 L-12.942955328787507,1.1031672031978212 L-13.001251600974378,1.252999616656474 L-13.066886312998365,1.3997657300861714 L-13.139698845720638,1.5431063822135365 L-13.219511014672323,1.6826707944430084 L-13.306127506101753,1.8181174292708477 L-13.399336354939944,1.9491148260846374 L-13.498909463514648,2.075342412302947 L-13.604603159743567,2.1964912878701566 L-13.716158793440782,2.3122649811866576 L-13.833303369277091,2.4223801746245366 L-13.955750214845336,2.5265673978532837 L-14.083199682195811,2.6245716872788525 L-14.215339881125015,2.7161532099822945 L-14.351847442423237,2.801087850631104 L-14.49238830921321,2.879167759926989 L-14.636618554443256,2.950201863247937 L-14.784185222534422,3.0140163282398333 L-14.934727193121924,3.0704549902133573 L-15.087876064777197,3.1193797343051495 L-15.243257056547913,3.1606708334680267 L-15.400489925109792,3.1942272414631265 L-15.559189895285714,3.2199668401369883 L-15.718968601655073,3.237826640378434 L-15.87943503894903,3.2477629362634794 L-16.040196518905926,3.249751412011055 L-16.20085963124527,3.2437872014877938 L-16.36103120640861,3.2298849001162786 L-16.520319277711337,3.2080785291575937 L-16.678334040550833,3.178421452455602 L-16.834688806323665,3.1409862458466726 L-16.989000948717386,3.0958645195544503 L-17.140892840061248,3.043166694004287 L-17.28999277544438,2.9830217296059565 L-17.43593588234,2.9155768111659213 L-17.578365013509643,2.840996987701449 L-17.716931621002267,2.7594647685380087 L-17.851296609109532,2.671179676678368 L-17.981131164189797,2.5763577605363697 L-18.106117559330215,2.475231065230263 L-18.225949931877718,2.3680470647294114 L-18.3403350319362,2.2550680562440215 L-18.448992939998135,2.1365705183399166 L-18.551657751954526,2.012844434349155 L-18.648078229806828,1.884192582732226 L-18.738018416488412,1.750929796128416 L-18.821258213291056,1.613382190907587 L-18.89759391848337,1.4718863691087696 L-18.96683872580306,1.3267885947185696 L-19.028823181603162,1.1784439463051681 L-19.083395599533507,1.0272154480815647 L-19.130422431742637,0.8734731815244956 L-19.169788595691777,0.7175933797230444 L-19.201397755781105,0.5599575066732281 L-19.225172559099086,0.40095132377167564 L-19.241054824718017,0.24096394579284824 L-19.249005686072522,0.08038688865998131 L-19.249005686072522,-0.08038688865998628 L-19.241054824718017,-0.24096394579285318 L-19.225172559099086,-0.4009513237716806 L-19.201397755781105,-0.559957506673233 L-19.169788595691777,-0.7175933797230493 L-19.130422431742634,-0.8734731815245004 L-19.083395599533503,-1.0272154480815696 L-19.02882318160316,-1.1784439463051728 L-18.966838725803058,-1.326788594718574 L-18.897593918483366,-1.4718863691087738 L-18.821258213291053,-1.6133821909075912 L-18.73801841648841,-1.75092979612842 L-18.648078229806824,-1.88419258273223 L-18.551657751954522,-2.012844434349159 L-18.44899293999813,-2.13657051833992 L-18.340335031936196,-2.255068056244025 L-18.225949931877715,-2.368047064729415 L-18.10611755933021,-2.4752310652302656 L-17.981131164189794,-2.576357760536372 L-17.85129660910953,-2.6711796766783698 L-17.716931621002264,-2.7594647685380105 L-17.57836501350964,-2.840996987701451 L-17.435935882339997,-2.9155768111659226 L-17.289992775444375,-2.983021729605958 L-17.14089284006124,-3.043166694004289 L-16.989000948717383,-3.095864519554452 L-16.834688806323662,-3.140986245846674 L-16.678334040550826,-3.1784214524556034 L-16.52031927771133,-3.2080785291575955 L-16.3610312064086,-3.2298849001162795 L-16.20085963124526,-3.2437872014877946 L-16.040196518905915,-3.249751412011055 L-15.879435038949019,-3.2477629362634794 L-15.718968601655062,-3.2378266403784326 L-15.559189895285703,-3.2199668401369865 L-15.40048992510978,-3.1942272414631243 L-15.2432570565479,-3.160670833468024 L-15.087876064777182,-3.1193797343051455 L-14.93472719312191,-3.0704549902133524 L-14.784185222534408,-3.0140163282398276 L-14.636618554443242,-2.9502018632479308 L-14.492388309213194,-2.879167759926981 L-14.351847442423223,-2.8010878506310948 L-14.215339881125,-2.7161532099822847 L-14.083199682195797,-2.624571687278842 L-13.955750214845322,-2.526567397853272 L-13.833303369277079,-2.4223801746245237 L-13.71615879344077,-2.3122649811866443 L-13.604603159743554,-2.196491287870142 L-13.498909463514636,-2.0753424123029314 L-13.399336354939933,-1.9491148260846212 L-13.306127506101742,-1.8181174292708306 L-13.219511014672312,-1.6826707944429906 L-13.139698845720627,-1.5431063822135176 L-13.066886312998356,-1.3997657300861517 L-13.00125160097437,-1.2529996166564537 L-12.9429553287875,-1.1031672031978 L-12.89214015718458,-0.9506351547335633 L-12.848930439405693,-0.7957767427463563 L-12.813431916870963,-0.6389709317201645 L-12.785731460413572,-0.48060145175075025 L-12.765896857692276,-0.32105585949380666 L-12.753976647303649,-0.160724589748877 L-12.75,2.5183198356782885e-14 " />
			<path d="M-13.6,0.0 L-13.603986279321001,0.13826876117900208 L-13.61593187526498,0.27607820743848066 L-13.635797105763531,0.41297054965688357 L-13.663515980518703,0.5484910452400537 L-13.698996420216131,0.6821895087303953 L-13.742120562403258,0.813621807277691 L-13.792745153016554,0.942351336003765 L-13.850702022257106,1.0679504683599819 L-13.915798643233778,1.1900019766596353 L-13.987818771518182,1.3081004180663658 L-14.06652316348692,1.421853481434488 L-14.151650371064846,1.5308832905271652 L-14.242917610229275,1.6348276592832642 L-14.340021700390068,1.7333412949630305 L-14.442640071525062,1.8260969451758406 L-14.550431835725252,1.9127864849797376 L-14.663038919590134,1.9931219404414984 L-14.780087253711532,2.0668364452570813 L-14.901188015294558,2.133685127254649 L-15.025938919787833,2.1934459218352993 L-15.15392555723231,2.2459203096493296 L-15.284722768889479,2.2909339760575524 L-15.417896059575947,2.3283373901869955 L-15.553003041012735,2.3580063016574266 L-15.689594901394656,2.379842153328621 L-15.827217896297999,2.393772408697266 L-15.965414855973863,2.3997507928559356 L-16.103726704020097,2.3977574462136753 L-16.24169398238694,2.387798990467569 L-16.37885837765045,2.369908506606124 L-16.514764243483615,2.344145425017557 L-16.64896011426762,2.3105953280680196 L-16.781000204815243,2.269369665805584 L-16.910445891224406,2.2206053857343937 L-17.03686716794267,2.1644644778888247 L-17.159844076202443,2.1011334367188828 L-17.278968099081755,2.030822641574395 L-17.39384351855641,1.9537656578459681 L-17.504088730035456,1.8702184610842478 L-17.60933751001326,1.7804585866748837 L-17.709240232627167,1.6847842078938866 L-17.803465031079455,1.5835131454059939 L-17.89169890006546,1.476981811496381 L-17.973648735545723,1.3655440925428837 L-18.049042308408133,1.2495701734410383 L-18.11762916878566,1.1294453078870874 L-18.17918147802562,1.005568538603944 L-18.23349476554678,0.878351371761396 L-18.28038860807006,0.7482164099939942 L-18.319707228966507,0.6155959485575991 L-18.35132001573162,0.48093053928801516 L-18.375121953866927,0.34466752713209675 L-18.391033975727606,0.20725956411282254 L-18.399003223177242,0.06916310566479625 L-18.399003223177242,-0.06916310566480312 L-18.391033975727606,-0.20725956411282936 L-18.375121953866927,-0.3446675271321035 L-18.351320015731616,-0.4809305392880219 L-18.319707228966504,-0.6155959485576058 L-18.280388608070055,-0.7482164099940007 L-18.23349476554678,-0.8783513717614023 L-18.17918147802562,-1.0055685386039501 L-18.117629168785655,-1.1294453078870934 L-18.04904230840813,-1.249570173441044 L-17.97364873554572,-1.3655440925428894 L-17.891698900065457,-1.4769818114963864 L-17.803465031079448,-1.5835131454059992 L-17.70924023262716,-1.6847842078938917 L-17.609337510013255,-1.7804585866748883 L-17.50408873003545,-1.870218461084252 L-17.393843518556405,-1.9537656578459712 L-17.27896809908175,-2.0308226415743973 L-17.15984407620244,-2.101133436718884 L-17.03686716794267,-2.164464477888826 L-16.910445891224406,-2.2206053857343946 L-16.781000204815243,-2.269369665805584 L-16.64896011426762,-2.3105953280680196 L-16.514764243483615,-2.3441454250175564 L-16.378858377650452,-2.369908506606124 L-16.241693982386945,-2.3877989904675685 L-16.1037267040201,-2.3977574462136753 L-15.965414855973869,-2.3997507928559356 L-15.827217896298006,-2.3937724086972665 L-15.689594901394663,-2.379842153328622 L-15.553003041012742,-2.3580063016574284 L-15.417896059575956,-2.3283373901869977 L-15.28472276888949,-2.2909339760575556 L-15.15392555723232,-2.245920309649334 L-15.025938919787846,-2.1934459218353046 L-14.90118801529457,-2.1336851272546555 L-14.780087253711544,-2.0668364452570884 L-14.663038919590146,-1.9931219404415073 L-14.550431835725266,-1.9127864849797478 L-14.442640071525076,-1.826096945175852 L-14.34002170039008,-1.733341294963043 L-14.242917610229288,-1.6348276592832784 L-14.151650371064859,-1.5308832905271803 L-14.066523163486933,-1.4218534814345045 L-13.987818771518194,-1.3081004180663836 L-13.915798643233789,-1.1900019766596546 L-13.850702022257115,-1.0679504683600025 L-13.792745153016563,-0.9423513360037871 L-13.742120562403265,-0.8136218072777145 L-13.698996420216139,-0.6821895087304201 L-13.66351598051871,-0.5484910452400799 L-13.635797105763537,-0.4129705496569109 L-13.615931875264984,-0.2760782074385091 L-13.603986279321003,-0.13826876117903153 L-13.6,-3.0430625365514937e-14 " />
			<path d="M-4.75,0.0 L-4.75397664730365,0.16072458974890175 L-4.765896857692279,0.321055859493831 L-4.785731460413575,0.48060145175077407 L-4.813431916870968,0.6389709317201877 L-4.848930439405699,0.7957767427463789 L-4.892140157184586,0.9506351547335854 L-4.942955328787507,1.1031672031978212 L-5.001251600974378,1.252999616656474 L-5.066886312998365,1.3997657300861714 L-5.139698845720638,1.5431063822135365 L-5.219511014672323,1.6826707944430084 L-5.3061275061017525,1.8181174292708477 L-5.399336354939944,1.9491148260846374 L-5.498909463514648,2.075342412302947 L-5.604603159743567,2.1964912878701566 L-5.716158793440782,2.3122649811866576 L-5.8333033692770915,2.4223801746245366 L-5.955750214845336,2.5265673978532837 L-6.083199682195811,2.6245716872788525 L-6.215339881125015,2.7161532099822945 L-6.351847442423238,2.801087850631104 L-6.49238830921321,2.879167759926989 L-6.636618554443255,2.950201863247937 L-6.784185222534422,3.0140163282398333 L-6.934727193121924,3.0704549902133573 L-7.087876064777197,3.1193797343051495 L-7.243257056547914,3.1606708334680267 L-7.400489925109791,3.1942272414631265 L-7.559189895285714,3.2199668401369883 L-7.718968601655074,3.237826640378434 L-7.87943503894903,3.2477629362634794 L-8.040196518905926,3.249751412011055 L-8.200859631245269,3.2437872014877938 L-8.36103120640861,3.2298849001162786 L-8.520319277711337,3.2080785291575937 L-8.678334040550833,3.178421452455602 L-8.834688806323665,3.1409862458466726 L-8.989000948717386,3.0958645195544503 L-9.140892840061246,3.043166694004287 L-9.289992775444377,2.9830217296059565 L-9.43593588234,2.9155768111659213 L-9.578365013509643,2.840996987701449 L-9.716931621002267,2.7594647685380087 L-9.851296609109532,2.671179676678368 L-9.981131164189797,2.5763577605363697 L-10.106117559330213,2.475231065230263 L-10.225949931877718,2.3680470647294114 L-10.340335031936199,2.2550680562440215 L-10.448992939998133,2.1365705183399166 L-10.551657751954526,2.012844434349155 L-10.648078229806828,1.884192582732226 L-10.73801841648841,1.750929796128416 L-10.821258213291054,1.613382190907587 L-10.897593918483368,1.4718863691087696 L-10.96683872580306,1.3267885947185696 L-11.028823181603162,1.1784439463051681 L-11.083395599533507,1.0272154480815647 L-11.130422431742636,0.8734731815244956 L-11.169788595691779,0.7175933797230444 L-11.201397755781105,0.5599575066732281 L-11.225172559099086,0.40095132377167564 L-11.241054824718018,0.24096394579284824 L-11.24900568607252,0.08038688865998131 L-11.24900568607252,-0.08038688865998628 L-11.241054824718017,-0.24096394579285318 L-11.225172559099084,-0.4009513237716806 L-11.201397755781105,-0.559957506673233 L-11.169788595691777,-0.7175933797230493 L-11.130422431742634,-0.8734731815245004 L-11.083395599533505,-1.0272154480815696 L-11.02882318160316,-1.1784439463051728 L-10.966838725803058,-1.326788594718574 L-10.897593918483366,-1.4718863691087738 L-10.821258213291053,-1.6133821909075912 L-10.738018416488408,-1.75092979612842 L-10.648078229806826,-1.88419258273223 L-10.551657751954524,-2.012844434349159 L-10.44899293999813,-2.13657051833992 L-10.340335031936196,-2.255068056244025 L-10.225949931877715,-2.368047064729415 L-10.106117559330212,-2.4752310652302656 L-9.981131164189794,-2.576357760536372 L-9.851296609109529,-2.6711796766783698 L-9.716931621002264,-2.7594647685380105 L-9.57836501350964,-2.840996987701451 L-9.435935882339997,-2.9155768111659226 L-9.289992775444375,-2.983021729605958 L-9.140892840061243,-3.043166694004289 L-8.989000948717383,-3.095864519554452 L-8.83468880632366,-3.140986245846674 L-8.678334040550828,-3.1784214524556034 L-8.52031927771133,-3.2080785291575955 L-8.361031206408603,-3.2298849001162795 L-8.20085963124526,-3.2437872014877946 L-8.040196518905917,-3.249751412011055 L-7.879435038949019,-3.2477629362634794 L-7.718968601655063,-3.2378266403784326 L-7.559189895285702,-3.2199668401369865 L-7.400489925109779,-3.1942272414631243 L-7.2432570565479,-3.160670833468024 L-7.087876064777183,-3.1193797343051455 L-6.934727193121911,-3.0704549902133524 L-6.784185222534408,-3.0140163282398276 L-6.636618554443241,-2.9502018632479308 L-6.492388309213195,-2.879167759926981 L-6.351847442423223,-2.8010878506310948 L-6.215339881125,-2.7161532099822847 L-6.083199682195797,-2.624571687278842 L-5.955750214845322,-2.526567397853272 L-5.833303369277078,-2.4223801746245237 L-5.716158793440768,-2.3122649811866443 L-5.604603159743554,-2.196491287870142 L-5.498909463514636,-2.0753424123029314 L-5.3993363549399325,-1.9491148260846212 L-5.306127506101741,-1.8181174292708306 L-5.219511014672312,-1.6826707944429906 L-5.139698845720628,-1.5431063822135176 L-5.0668863129983555,-1.3997657300861517 L-5.00125160097437,-1.2529996166564537 L-4.9429553287875,-1.1031672031978 L-4.8921401571845795,-0.9506351547335633 L-4.848930439405693,-0.7957767427463563 L-4.813431916870963,-0.6389709317201645 L-4.7857314604135714,-0.48060145175075025 L-4.765896857692276,-0.32105585949380666 L-4.7539766473036495,-0.160724589748877 L-4.75,2.5183198356782885e-14 " />
			<path d="M-5.6,0.0 L-5.603986279321001,0.13826876117900208 L-5.61593187526498,0.27607820743848066 L-5.635797105763531,0.41297054965688357 L-5.663515980518704,0.5484910452400537 L-5.698996420216131,0.6821895087303953 L-5.742120562403257,0.813621807277691 L-5.792745153016553,0.942351336003765 L-5.850702022257106,1.0679504683599819 L-5.915798643233778,1.1900019766596353 L-5.987818771518182,1.3081004180663658 L-6.06652316348692,1.421853481434488 L-6.1516503710648465,1.5308832905271652 L-6.2429176102292745,1.6348276592832642 L-6.340021700390067,1.7333412949630305 L-6.442640071525062,1.8260969451758406 L-6.550431835725253,1.9127864849797376 L-6.663038919590134,1.9931219404414984 L-6.780087253711532,2.0668364452570813 L-6.901188015294558,2.133685127254649 L-7.0259389197878335,2.1934459218352993 L-7.153925557232309,2.2459203096493296 L-7.284722768889479,2.2909339760575524 L-7.417896059575946,2.3283373901869955 L-7.553003041012734,2.3580063016574266 L-7.689594901394657,2.379842153328621 L-7.827217896297999,2.393772408697266 L-7.9654148559738625,2.3997507928559356 L-8.103726704020097,2.3977574462136753 L-8.24169398238694,2.387798990467569 L-8.37885837765045,2.369908506606124 L-8.514764243483613,2.344145425017557 L-8.64896011426762,2.3105953280680196 L-8.781000204815243,2.269369665805584 L-8.910445891224407,2.2206053857343937 L-9.036867167942672,2.1644644778888247 L-9.159844076202443,2.1011334367188828 L-9.278968099081755,2.030822641574395 L-9.393843518556409,1.9537656578459681 L-9.504088730035456,1.8702184610842478 L-9.609337510013258,1.7804585866748837 L-9.709240232627167,1.6847842078938866 L-9.803465031079455,1.5835131454059939 L-9.89169890006546,1.476981811496381 L-9.973648735545723,1.3655440925428837 L-10.049042308408133,1.2495701734410383 L-10.117629168785658,1.1294453078870874 L-10.17918147802562,1.005568538603944 L-10.233494765546782,0.878351371761396 L-10.280388608070059,0.7482164099939942 L-10.319707228966507,0.6155959485575991 L-10.351320015731618,0.48093053928801516 L-10.375121953866927,0.34466752713209675 L-10.391033975727606,0.20725956411282254 L-10.399003223177242,0.06916310566479625 L-10.399003223177242,-0.06916310566480312 L-10.391033975727606,-0.20725956411282936 L-10.375121953866925,-0.3446675271321035 L-10.351320015731616,-0.4809305392880219 L-10.319707228966505,-0.6155959485576058 L-10.280388608070057,-0.7482164099940007 L-10.23349476554678,-0.8783513717614023 L-10.179181478025617,-1.0055685386039501 L-10.117629168785657,-1.1294453078870934 L-10.04904230840813,-1.249570173441044 L-9.97364873554572,-1.3655440925428894 L-9.891698900065455,-1.4769818114963864 L-9.80346503107945,-1.5835131454059992 L-9.709240232627161,-1.6847842078938917 L-9.609337510013253,-1.7804585866748883 L-9.50408873003545,-1.870218461084252 L-9.393843518556405,-1.9537656578459712 L-9.27896809908175,-2.0308226415743973 L-9.15984407620244,-2.101133436718884 L-9.036867167942669,-2.164464477888826 L-8.910445891224404,-2.2206053857343946 L-8.781000204815243,-2.269369665805584 L-8.64896011426762,-2.3105953280680196 L-8.514764243483615,-2.3441454250175564 L-8.378858377650452,-2.369908506606124 L-8.241693982386943,-2.3877989904675685 L-8.103726704020103,-2.3977574462136753 L-7.965414855973869,-2.3997507928559356 L-7.827217896298006,-2.3937724086972665 L-7.689594901394664,-2.379842153328622 L-7.553003041012743,-2.3580063016574284 L-7.4178960595759555,-2.3283373901869977 L-7.284722768889488,-2.2909339760575556 L-7.153925557232321,-2.245920309649334 L-7.025938919787846,-2.1934459218353046 L-6.90118801529457,-2.1336851272546555 L-6.780087253711545,-2.0668364452570884 L-6.663038919590147,-1.9931219404415073 L-6.550431835725266,-1.9127864849797478 L-6.442640071525076,-1.826096945175852 L-6.34002170039008,-1.733341294963043 L-6.242917610229288,-1.6348276592832784 L-6.151650371064859,-1.5308832905271803 L-6.0665231634869325,-1.4218534814345045 L-5.987818771518194,-1.3081004180663836 L-5.915798643233789,-1.1900019766596546 L-5.850702022257115,-1.0679504683600025 L-5.792745153016563,-0.9423513360037871 L-5.742120562403265,-0.8136218072777145 L-5.6989964202161385,-0.6821895087304201 L-5.66351598051871,-0.5484910452400799 L-5.635797105763537,-0.4129705496569109 L-5.615931875264984,-0.2760782074385091 L-5.603986279321002,-0.13826876117903153 L-5.6,-3.0430625365514937e-14 " />
			<path d="M3.25,0.0 L3.246023352696349,0.16072458974890175 L3.2341031423077213,0.321055859493831 L3.214268539586425,0.48060145175077407 L3.1865680831290324,0.6389709317201877 L3.1510695605943013,0.7957767427463789 L3.1078598428154143,0.9506351547335854 L3.0570446712124926,1.1031672031978212 L2.998748399025622,1.252999616656474 L2.933113687001635,1.3997657300861714 L2.8603011542793624,1.5431063822135365 L2.780488985327677,1.6826707944430084 L2.6938724938982475,1.8181174292708477 L2.6006636450600555,1.9491148260846374 L2.501090536485352,2.075342412302947 L2.3953968402564327,2.1964912878701566 L2.283841206559218,2.3122649811866576 L2.166696630722908,2.4223801746245366 L2.0442497851546633,2.5265673978532837 L1.9168003178041884,2.6245716872788525 L1.7846601188749853,2.7161532099822945 L1.6481525575767624,2.801087850631104 L1.5076116907867905,2.879167759926989 L1.3633814455567448,2.950201863247937 L1.2158147774655785,3.0140163282398333 L1.0652728068780757,3.0704549902133573 L0.9121239352228039,3.1193797343051495 L0.7567429434520866,3.1606708334680267 L0.599510074890209,3.1942272414631265 L0.44081010471428594,3.2199668401369883 L0.28103139834492663,3.237826640378434 L0.12056496105097064,3.2477629362634794 L-0.04019651890592576,3.249751412011055 L-0.2008596312452693,3.2437872014877938 L-0.36103120640861047,3.2298849001162786 L-0.5203192777113371,3.2080785291575937 L-0.6783340405508341,3.178421452455602 L-0.8346888063236657,3.1409862458466726 L-0.989000948717387,3.0958645195544503 L-1.1408928400612466,3.043166694004287 L-1.2899927754443776,2.9830217296059565 L-1.4359358823400015,2.9155768111659213 L-1.578365013509642,2.840996987701449 L-1.7169316210022671,2.7594647685380087 L-1.8512966091095318,2.671179676678368 L-1.9811311641897973,2.5763577605363697 L-2.106117559330214,2.475231065230263 L-2.2259499318777185,2.3680470647294114 L-2.340335031936199,2.2550680562440215 L-2.448992939998133,2.1365705183399166 L-2.5516577519545267,2.012844434349155 L-2.648078229806828,1.884192582732226 L-2.7380184164884107,1.750929796128416 L-2.821258213291055,1.613382190907587 L-2.8975939184833686,1.4718863691087696 L-2.96683872580306,1.3267885947185696 L-3.028823181603162,1.1784439463051681 L-3.0833955995335063,1.0272154480815647 L-3.1304224317426357,0.8734731815244956 L-3.169788595691779,0.7175933797230444 L-3.201397755781106,0.5599575066732281 L-3.225172559099085,0.40095132377167564 L-3.241054824718018,0.24096394579284824 L-3.24900568607252,0.08038688865998131 L-3.24900568607252,-0.08038688865998628 L-3.2410548247180175,-0.24096394579285318 L-3.2251725590990845,-0.4009513237716806 L-3.201397755781105,-0.559957506673233 L-3.1697885956917777,-0.7175933797230493 L-3.130422431742634,-0.8734731815245004 L-3.0833955995335045,-1.0272154480815696 L-3.02882318160316,-1.1784439463051728 L-2.9668387258030577,-1.326788594718574 L-2.8975939184833663,-1.4718863691087738 L-2.821258213291052,-1.6133821909075912 L-2.738018416488408,-1.75092979612842 L-2.6480782298068255,-1.88419258273223 L-2.5516577519545236,-2.012844434349159 L-2.44899293999813,-2.13657051833992 L-2.3403350319361955,-2.255068056244025 L-2.225949931877715,-2.368047064729415 L-2.106117559330211,-2.4752310652302656 L-1.9811311641897942,-2.576357760536372 L-1.8512966091095289,-2.6711796766783698 L-1.7169316210022643,-2.7594647685380105 L-1.578365013509639,-2.840996987701451 L-1.4359358823399981,-2.9155768111659226 L-1.2899927754443743,-2.983021729605958 L-1.1408928400612426,-3.043166694004289 L-0.9890009487173821,-3.095864519554452 L-0.8346888063236603,-3.140986245846674 L-0.6783340405508278,-3.1784214524556034 L-0.52031927771133,-3.2080785291575955 L-0.36103120640860265,-3.2298849001162795 L-0.2008596312452607,-3.2437872014877946 L-0.040196518905916453,-3.249751412011055 L0.12056496105098065,-3.2477629362634794 L0.28103139834493734,-3.2378266403784326 L0.4408101047142973,-3.2199668401369865 L0.5995100748902209,-3.1942272414631243 L0.7567429434520991,-3.160670833468024 L0.9121239352228171,-3.1193797343051455 L1.0652728068780892,-3.0704549902133524 L1.2158147774655927,-3.0140163282398276 L1.363381445556759,-2.9502018632479308 L1.5076116907868053,-2.879167759926981 L1.6481525575767775,-2.8010878506310948 L1.7846601188750002,-2.7161532099822847 L1.9168003178042028,-2.624571687278842 L2.0442497851546775,-2.526567397853272 L2.166696630722922,-2.4223801746245237 L2.2838412065592317,-2.3122649811866443 L2.3953968402564456,-2.196491287870142 L2.5010905364853646,-2.0753424123029314 L2.6006636450600675,-1.9491148260846212 L2.693872493898259,-1.8181174292708306 L2.780488985327688,-1.6826707944429906 L2.860301154279372,-1.5431063822135176 L2.9331136870016445,-1.3997657300861517 L2.9987483990256303,-1.2529996166564537 L3.0570446712125,-1.1031672031978 L3.107859842815421,-0.9506351547335633 L3.151069560594307,-0.7957767427463563 L3.186568083129037,-0.6389709317201645 L3.2142685395864286,-0.48060145175075025 L3.2341031423077236,-0.32105585949380666 L3.2460233526963505,-0.160724589748877 L3.25,2.5183198356782885e-14 " />
			<path d="M2.4,0.0 L2.3960137206789995,0.13826876117900208 L2.3840681247350197,0.27607820743848066 L2.364202894236468,0.41297054965688357 L2.336484019481296,0.5484910452400537 L2.301003579783869,0.6821895087303953 L2.257879437596743,0.813621807277691 L2.2072548469834468,0.942351336003765 L2.1492979777428944,1.0679504683599819 L2.0842013567662216,1.1900019766596353 L2.012181228481818,1.3081004180663658 L1.9334768365130794,1.421853481434488 L1.8483496289351533,1.5308832905271652 L1.7570823897707253,1.6348276592832642 L1.6599782996099328,1.7333412949630305 L1.5573599284749373,1.8260969451758406 L1.4495681642747469,1.9127864849797376 L1.3369610804098657,1.9931219404414984 L1.2199127462884682,2.0668364452570813 L1.0988119847054416,2.133685127254649 L0.9740610802121663,2.1934459218352993 L0.8460744427676904,2.2459203096493296 L0.7152772311105214,2.2909339760575524 L0.582103940424054,2.3283373901869955 L0.4469969589872656,2.3580063016574266 L0.3104050986053431,2.379842153328621 L0.17278210370200106,2.393772408697266 L0.034585144026137146,2.3997507928559356 L-0.10372670402009777,2.3977574462136753 L-0.24169398238694034,2.387798990467569 L-0.3788583776504502,2.369908506606124 L-0.5147642434836136,2.344145425017557 L-0.6489601142676196,2.3105953280680196 L-0.781000204815243,2.269369665805584 L-0.9104458912244066,2.2206053857343937 L-1.0368671679426718,2.1644644778888247 L-1.1598440762024425,2.1011334367188828 L-1.2789680990817547,2.030822641574395 L-1.3938435185564093,1.9537656578459681 L-1.5040887300354548,1.8702184610842478 L-1.6093375100132588,1.7804585866748837 L-1.7092402326271658,1.6847842078938866 L-1.8034650310794538,1.5835131454059939 L-1.8916989000654594,1.476981811496381 L-1.973648735545723,1.3655440925428837 L-2.0490423084081337,1.2495701734410383 L-2.117629168785659,1.1294453078870874 L-2.1791814780256207,1.005568538603944 L-2.233494765546782,0.878351371761396 L-2.2803886080700586,0.7482164099939942 L-2.319707228966507,0.6155959485575991 L-2.3513200157316185,0.48093053928801516 L-2.375121953866926,0.34466752713209675 L-2.391033975727606,0.20725956411282254 L-2.399003223177243,0.06916310566479625 L-2.399003223177243,-0.06916310566480312 L-2.3910339757276056,-0.20725956411282936 L-2.3751219538669255,-0.3446675271321035 L-2.351320015731617,-0.4809305392880219 L-2.319707228966505,-0.6155959485576058 L-2.2803886080700564,-0.7482164099940007 L-2.233494765546779,-0.8783513717614023 L-2.1791814780256176,-1.0055685386039501 L-2.117629168785656,-1.1294453078870934 L-2.0490423084081297,-1.249570173441044 L-1.9736487355457193,-1.3655440925428894 L-1.891698900065455,-1.4769818114963864 L-1.8034650310794493,-1.5835131454059992 L-1.7092402326271612,-1.6847842078938917 L-1.6093375100132534,-1.7804585866748883 L-1.5040887300354495,-1.870218461084252 L-1.3938435185564049,-1.9537656578459712 L-1.2789680990817505,-2.0308226415743973 L-1.1598440762024391,-2.101133436718884 L-1.0368671679426693,-2.164464477888826 L-0.9104458912244046,-2.2206053857343946 L-0.7810002048152421,-2.269369665805584 L-0.6489601142676196,-2.3105953280680196 L-0.5147642434836147,-2.3441454250175564 L-0.3788583776504523,-2.369908506606124 L-0.24169398238694356,-2.3877989904675685 L-0.10372670402010209,-2.3977574462136753 L0.03458514402613176,-2.3997507928559356 L0.17278210370199462,-2.3937724086972665 L0.3104050986053357,-2.379842153328622 L0.44699695898725716,-2.3580063016574284 L0.5821039404240446,-2.3283373901869977 L0.7152772311105112,-2.2909339760575556 L0.8460744427676793,-2.245920309649334 L0.9740610802121545,-2.1934459218353046 L1.0988119847054292,-2.1336851272546555 L1.2199127462884551,-2.0668364452570884 L1.3369610804098526,-1.9931219404415073 L1.4495681642747336,-1.9127864849797478 L1.5573599284749242,-1.826096945175852 L1.65997829960992,-1.733341294963043 L1.7570823897707122,-1.6348276592832784 L1.8483496289351407,-1.5308832905271803 L1.9334768365130672,-1.4218534814345045 L2.0121812284818064,-1.3081004180663836 L2.084201356766211,-1.1900019766596546 L2.1492979777428842,-1.0679504683600025 L2.207254846983437,-0.9423513360037871 L2.2578794375967344,-0.8136218072777145 L2.301003579783862,-0.6821895087304201 L2.33648401948129,-0.5484910452400799 L2.3642028942364632,-0.4129705496569109 L2.3840681247350166,-0.2760782074385091 L2.396013720678998,-0.13826876117903153 L2.4,-3.0430625365514937e-14 " />
			<path d="M11.25,0.0 L11.24602335269635,0.16072458974890175 L11.23410314230772,0.321055859493831 L11.214268539586424,0.48060145175077407 L11.186568083129032,0.6389709317201877 L11.151069560594301,0.7957767427463789 L11.107859842815415,0.9506351547335854 L11.057044671212493,1.1031672031978212 L10.998748399025622,1.252999616656474 L10.933113687001635,1.3997657300861714 L10.860301154279362,1.5431063822135365 L10.780488985327677,1.6826707944430084 L10.693872493898247,1.8181174292708477 L10.600663645060056,1.9491148260846374 L10.501090536485352,2.075342412302947 L10.395396840256433,2.1964912878701566 L10.283841206559218,2.3122649811866576 L10.166696630722909,2.4223801746245366 L10.044249785154664,2.5265673978532837 L9.916800317804189,2.6245716872788525 L9.784660118874985,2.7161532099822945 L9.648152557576763,2.801087850631104 L9.50761169078679,2.879167759926989 L9.363381445556744,2.950201863247937 L9.215814777465578,3.0140163282398333 L9.065272806878076,3.0704549902133573 L8.912123935222803,3.1193797343051495 L8.756742943452087,3.1606708334680267 L8.599510074890208,3.1942272414631265 L8.440810104714286,3.2199668401369883 L8.281031398344927,3.237826640378434 L8.12056496105097,3.2477629362634794 L7.959803481094074,3.249751412011055 L7.799140368754731,3.2437872014877938 L7.638968793591389,3.2298849001162786 L7.479680722288663,3.2080785291575937 L7.321665959449166,3.178421452455602 L7.1653111936763345,3.1409862458466726 L7.010999051282613,3.0958645195544503 L6.859107159938754,3.043166694004287 L6.710007224555622,2.9830217296059565 L6.564064117659998,2.9155768111659213 L6.421634986490358,2.840996987701449 L6.283068378997733,2.7594647685380087 L6.148703390890468,2.671179676678368 L6.018868835810203,2.5763577605363697 L5.8938824406697865,2.475231065230263 L5.774050068122282,2.3680470647294114 L5.659664968063801,2.2550680562440215 L5.551007060001867,2.1365705183399166 L5.448342248045473,2.012844434349155 L5.351921770193172,1.884192582732226 L5.26198158351159,1.750929796128416 L5.178741786708946,1.613382190907587 L5.102406081516632,1.4718863691087696 L5.0331612741969405,1.3267885947185696 L4.971176818396838,1.1784439463051681 L4.916604400466493,1.0272154480815647 L4.869577568257364,0.8734731815244956 L4.830211404308221,0.7175933797230444 L4.798602244218894,0.5599575066732281 L4.774827440900915,0.40095132377167564 L4.758945175281982,0.24096394579284824 L4.75099431392748,0.08038688865998131 L4.75099431392748,-0.08038688865998628 L4.7589451752819825,-0.24096394579285318 L4.774827440900916,-0.4009513237716806 L4.798602244218895,-0.559957506673233 L4.830211404308223,-0.7175933797230493 L4.869577568257366,-0.8734731815245004 L4.916604400466495,-1.0272154480815696 L4.97117681839684,-1.1784439463051728 L5.033161274196942,-1.326788594718574 L5.102406081516634,-1.4718863691087738 L5.178741786708947,-1.6133821909075912 L5.2619815835115915,-1.75092979612842 L5.351921770193174,-1.88419258273223 L5.448342248045476,-2.012844434349159 L5.55100706000187,-2.13657051833992 L5.6596649680638045,-2.255068056244025 L5.7740500681222855,-2.368047064729415 L5.893882440669789,-2.4752310652302656 L6.018868835810206,-2.576357760536372 L6.148703390890471,-2.6711796766783698 L6.2830683789977355,-2.7594647685380105 L6.421634986490361,-2.840996987701451 L6.564064117660002,-2.9155768111659226 L6.710007224555626,-2.983021729605958 L6.859107159938757,-3.043166694004289 L7.010999051282618,-3.095864519554452 L7.16531119367634,-3.140986245846674 L7.321665959449172,-3.1784214524556034 L7.47968072228867,-3.2080785291575955 L7.638968793591397,-3.2298849001162795 L7.799140368754739,-3.2437872014877946 L7.959803481094084,-3.249751412011055 L8.120564961050981,-3.2477629362634794 L8.281031398344938,-3.2378266403784326 L8.440810104714297,-3.2199668401369865 L8.59951007489022,-3.1942272414631243 L8.7567429434521,-3.160670833468024 L8.912123935222818,-3.1193797343051455 L9.06527280687809,-3.0704549902133524 L9.215814777465592,-3.0140163282398276 L9.363381445556758,-2.9502018632479308 L9.507611690786806,-2.879167759926981 L9.648152557576777,-2.8010878506310948 L9.784660118875,-2.7161532099822847 L9.916800317804203,-2.624571687278842 L10.044249785154678,-2.526567397853272 L10.166696630722921,-2.4223801746245237 L10.28384120655923,-2.3122649811866443 L10.395396840256446,-2.196491287870142 L10.501090536485364,-2.0753424123029314 L10.600663645060067,-1.9491148260846212 L10.693872493898258,-1.8181174292708306 L10.780488985327688,-1.6826707944429906 L10.860301154279373,-1.5431063822135176 L10.933113687001644,-1.3997657300861517 L10.99874839902563,-1.2529996166564537 L11.0570446712125,-1.1031672031978 L11.10785984281542,-0.9506351547335633 L11.151069560594307,-0.7957767427463563 L11.186568083129037,-0.6389709317201645 L11.214268539586428,-0.48060145175075025 L11.234103142307724,-0.32105585949380666 L11.246023352696351,-0.160724589748877 L11.25,2.5183198356782885e-14 " />
			<path d="M10.4,0.0 L10.396013720678999,0.13826876117900208 L10.38406812473502,0.27607820743848066 L10.364202894236469,0.41297054965688357 L10.336484019481297,0.5484910452400537 L10.301003579783869,0.6821895087303953 L10.257879437596742,0.813621807277691 L10.207254846983446,0.942351336003765 L10.149297977742894,1.0679504683599819 L10.084201356766222,1.1900019766596353 L10.012181228481818,1.3081004180663658 L9.93347683651308,1.421853481434488 L9.848349628935154,1.5308832905271652 L9.757082389770725,1.6348276592832642 L9.659978299609932,1.7333412949630305 L9.557359928474938,1.8260969451758406 L9.449568164274748,1.9127864849797376 L9.336961080409866,1.9931219404414984 L9.219912746288468,2.0668364452570813 L9.098811984705442,2.133685127254649 L8.974061080212167,2.1934459218352993 L8.84607444276769,2.2459203096493296 L8.715277231110521,2.2909339760575524 L8.582103940424053,2.3283373901869955 L8.446996958987265,2.3580063016574266 L8.310405098605344,2.379842153328621 L8.172782103702001,2.393772408697266 L8.034585144026137,2.3997507928559356 L7.896273295979902,2.3977574462136753 L7.75830601761306,2.387798990467569 L7.621141622349549,2.369908506606124 L7.485235756516387,2.344145425017557 L7.35103988573238,2.3105953280680196 L7.218999795184757,2.269369665805584 L7.0895541087755936,2.2206053857343937 L6.963132832057328,2.1644644778888247 L6.840155923797558,2.1011334367188828 L6.721031900918245,2.030822641574395 L6.606156481443591,1.9537656578459681 L6.495911269964545,1.8702184610842478 L6.390662489986742,1.7804585866748837 L6.290759767372834,1.6847842078938866 L6.196534968920546,1.5835131454059939 L6.108301099934541,1.476981811496381 L6.026351264454277,1.3655440925428837 L5.950957691591866,1.2495701734410383 L5.882370831214341,1.1294453078870874 L5.820818521974379,1.005568538603944 L5.766505234453218,0.878351371761396 L5.719611391929941,0.7482164099939942 L5.680292771033493,0.6155959485575991 L5.648679984268382,0.48093053928801516 L5.624878046133074,0.34466752713209675 L5.608966024272394,0.20725956411282254 L5.6009967768227575,0.06916310566479625 L5.6009967768227575,-0.06916310566480312 L5.608966024272394,-0.20725956411282936 L5.624878046133075,-0.3446675271321035 L5.648679984268383,-0.4809305392880219 L5.6802927710334945,-0.6155959485576058 L5.719611391929943,-0.7482164099940007 L5.766505234453221,-0.8783513717614023 L5.820818521974383,-1.0055685386039501 L5.8823708312143435,-1.1294453078870934 L5.950957691591871,-1.249570173441044 L6.026351264454281,-1.3655440925428894 L6.108301099934545,-1.4769818114963864 L6.196534968920551,-1.5835131454059992 L6.290759767372839,-1.6847842078938917 L6.390662489986747,-1.7804585866748883 L6.495911269964551,-1.870218461084252 L6.606156481443595,-1.9537656578459712 L6.721031900918249,-2.0308226415743973 L6.84015592379756,-2.101133436718884 L6.9631328320573305,-2.164464477888826 L7.089554108775595,-2.2206053857343946 L7.218999795184758,-2.269369665805584 L7.35103988573238,-2.3105953280680196 L7.485235756516385,-2.3441454250175564 L7.621141622349548,-2.369908506606124 L7.758306017613056,-2.3877989904675685 L7.896273295979898,-2.3977574462136753 L8.034585144026131,-2.3997507928559356 L8.172782103701994,-2.3937724086972665 L8.310405098605337,-2.379842153328622 L8.446996958987258,-2.3580063016574284 L8.582103940424044,-2.3283373901869977 L8.71527723111051,-2.2909339760575556 L8.84607444276768,-2.245920309649334 L8.974061080212154,-2.1934459218353046 L9.09881198470543,-2.1336851272546555 L9.219912746288456,-2.0668364452570884 L9.336961080409854,-1.9931219404415073 L9.449568164274734,-1.9127864849797478 L9.557359928474924,-1.826096945175852 L9.65997829960992,-1.733341294963043 L9.757082389770712,-1.6348276592832784 L9.848349628935141,-1.5308832905271803 L9.933476836513067,-1.4218534814345045 L10.012181228481806,-1.3081004180663836 L10.084201356766211,-1.1900019766596546 L10.149297977742885,-1.0679504683600025 L10.207254846983437,-0.9423513360037871 L10.257879437596735,-0.8136218072777145 L10.301003579783861,-0.6821895087304201 L10.33648401948129,-0.5484910452400799 L10.364202894236463,-0.4129705496569109 L10.384068124735016,-0.2760782074385091 L10.396013720678997,-0.13826876117903153 L10.4,-3.0430625365514937e-14 " />
			<path d="M19.25,0.0 L19.246023352696348,0.16072458974890175 L19.23410314230772,0.321055859493831 L19.214268539586424,0.48060145175077407 L19.186568083129032,0.6389709317201877 L19.1510695605943,0.7957767427463789 L19.107859842815415,0.9506351547335854 L19.05704467121249,1.1031672031978212 L18.998748399025622,1.252999616656474 L18.933113687001637,1.3997657300861714 L18.860301154279362,1.5431063822135365 L18.780488985327676,1.6826707944430084 L18.693872493898247,1.8181174292708477 L18.600663645060056,1.9491148260846374 L18.501090536485354,2.075342412302947 L18.39539684025643,2.1964912878701566 L18.283841206559217,2.3122649811866576 L18.166696630722907,2.4223801746245366 L18.044249785154662,2.5265673978532837 L17.91680031780419,2.6245716872788525 L17.784660118874985,2.7161532099822945 L17.64815255757676,2.801087850631104 L17.507611690786792,2.879167759926989 L17.363381445556744,2.950201863247937 L17.215814777465578,3.0140163282398333 L17.065272806878077,3.0704549902133573 L16.912123935222805,3.1193797343051495 L16.756742943452085,3.1606708334680267 L16.59951007489021,3.1942272414631265 L16.440810104714284,3.2199668401369883 L16.281031398344926,3.237826640378434 L16.12056496105097,3.2477629362634794 L15.959803481094074,3.249751412011055 L15.799140368754731,3.2437872014877938 L15.63896879359139,3.2298849001162786 L15.479680722288663,3.2080785291575937 L15.321665959449167,3.178421452455602 L15.165311193676335,3.1409862458466726 L15.010999051282614,3.0958645195544503 L14.859107159938754,3.043166694004287 L14.710007224555623,2.9830217296059565 L14.56406411766,2.9155768111659213 L14.421634986490357,2.840996987701449 L14.283068378997733,2.7594647685380087 L14.148703390890468,2.671179676678368 L14.018868835810203,2.5763577605363697 L13.893882440669787,2.475231065230263 L13.774050068122282,2.3680470647294114 L13.659664968063801,2.2550680562440215 L13.551007060001867,2.1365705183399166 L13.448342248045474,2.012844434349155 L13.351921770193172,1.884192582732226 L13.26198158351159,1.750929796128416 L13.178741786708946,1.613382190907587 L13.102406081516632,1.4718863691087696 L13.03316127419694,1.3267885947185696 L12.971176818396838,1.1784439463051681 L12.916604400466493,1.0272154480815647 L12.869577568257364,0.8734731815244956 L12.830211404308221,0.7175933797230444 L12.798602244218895,0.5599575066732281 L12.774827440900914,0.40095132377167564 L12.758945175281982,0.24096394579284824 L12.75099431392748,0.08038688865998131 L12.75099431392748,-0.08038688865998628 L12.758945175281983,-0.24096394579285318 L12.774827440900916,-0.4009513237716806 L12.798602244218895,-0.559957506673233 L12.830211404308223,-0.7175933797230493 L12.869577568257366,-0.8734731815245004 L12.916604400466495,-1.0272154480815696 L12.97117681839684,-1.1784439463051728 L13.033161274196942,-1.326788594718574 L13.102406081516634,-1.4718863691087738 L13.178741786708947,-1.6133821909075912 L13.261981583511592,-1.75092979612842 L13.351921770193174,-1.88419258273223 L13.448342248045476,-2.012844434349159 L13.55100706000187,-2.13657051833992 L13.659664968063804,-2.255068056244025 L13.774050068122285,-2.368047064729415 L13.893882440669788,-2.4752310652302656 L14.018868835810206,-2.576357760536372 L14.148703390890471,-2.6711796766783698 L14.283068378997736,-2.7594647685380105 L14.42163498649036,-2.840996987701451 L14.564064117660003,-2.9155768111659226 L14.710007224555625,-2.983021729605958 L14.859107159938757,-3.043166694004289 L15.010999051282617,-3.095864519554452 L15.16531119367634,-3.140986245846674 L15.321665959449172,-3.1784214524556034 L15.47968072228867,-3.2080785291575955 L15.638968793591397,-3.2298849001162795 L15.79914036875474,-3.2437872014877946 L15.959803481094083,-3.249751412011055 L16.12056496105098,-3.2477629362634794 L16.281031398344936,-3.2378266403784326 L16.4408101047143,-3.2199668401369865 L16.599510074890222,-3.1942272414631243 L16.7567429434521,-3.160670833468024 L16.912123935222816,-3.1193797343051455 L17.065272806878088,-3.0704549902133524 L17.215814777465592,-3.0140163282398276 L17.363381445556758,-2.9502018632479308 L17.507611690786806,-2.879167759926981 L17.64815255757678,-2.8010878506310948 L17.784660118875,-2.7161532099822847 L17.916800317804203,-2.624571687278842 L18.044249785154676,-2.526567397853272 L18.16669663072292,-2.4223801746245237 L18.28384120655923,-2.3122649811866443 L18.395396840256446,-2.196491287870142 L18.501090536485364,-2.0753424123029314 L18.600663645060067,-1.9491148260846212 L18.693872493898258,-1.8181174292708306 L18.780488985327686,-1.6826707944429906 L18.860301154279373,-1.5431063822135176 L18.933113687001644,-1.3997657300861517 L18.99874839902563,-1.2529996166564537 L19.057044671212502,-1.1031672031978 L19.107859842815422,-0.9506351547335633 L19.15106956059431,-0.7957767427463563 L19.186568083129036,-0.6389709317201645 L19.214268539586428,-0.48060145175075025 L19.234103142307724,-0.32105585949380666 L19.24602335269635,-0.160724589748877 L19.25,2.5183198356782885e-14 " />
			<path d="M18.4,0.0 L18.396013720679,0.13826876117900208 L18.38406812473502,0.27607820743848066 L18.364202894236467,0.41297054965688357 L18.336484019481297,0.5484910452400537 L18.30100357978387,0.6821895087303953 L18.257879437596742,0.813621807277691 L18.207254846983446,0.942351336003765 L18.149297977742894,1.0679504683599819 L18.084201356766222,1.1900019766596353 L18.01218122848182,1.3081004180663658 L17.93347683651308,1.421853481434488 L17.848349628935154,1.5308832905271652 L17.757082389770726,1.6348276592832642 L17.659978299609932,1.7333412949630305 L17.557359928474938,1.8260969451758406 L17.449568164274748,1.9127864849797376 L17.336961080409864,1.9931219404414984 L17.21991274628847,2.0668364452570813 L17.098811984705442,2.133685127254649 L16.974061080212167,2.1934459218352993 L16.84607444276769,2.2459203096493296 L16.715277231110523,2.2909339760575524 L16.582103940424055,2.3283373901869955 L16.446996958987267,2.3580063016574266 L16.310405098605344,2.379842153328621 L16.172782103702,2.393772408697266 L16.03458514402614,2.3997507928559356 L15.896273295979903,2.3977574462136753 L15.75830601761306,2.387798990467569 L15.62114162234955,2.369908506606124 L15.485235756516387,2.344145425017557 L15.35103988573238,2.3105953280680196 L15.218999795184757,2.269369665805584 L15.089554108775593,2.2206053857343937 L14.963132832057328,2.1644644778888247 L14.840155923797557,2.1011334367188828 L14.721031900918245,2.030822641574395 L14.606156481443591,1.9537656578459681 L14.495911269964544,1.8702184610842478 L14.390662489986742,1.7804585866748837 L14.290759767372833,1.6847842078938866 L14.196534968920545,1.5835131454059939 L14.10830109993454,1.476981811496381 L14.026351264454277,1.3655440925428837 L13.950957691591867,1.2495701734410383 L13.882370831214342,1.1294453078870874 L13.82081852197438,1.005568538603944 L13.766505234453218,0.878351371761396 L13.719611391929941,0.7482164099939942 L13.680292771033493,0.6155959485575991 L13.648679984268382,0.48093053928801516 L13.624878046133073,0.34466752713209675 L13.608966024272394,0.20725956411282254 L13.600996776822758,0.06916310566479625 L13.600996776822758,-0.06916310566480312 L13.608966024272394,-0.20725956411282936 L13.624878046133075,-0.3446675271321035 L13.648679984268384,-0.4809305392880219 L13.680292771033495,-0.6155959485576058 L13.719611391929943,-0.7482164099940007 L13.76650523445322,-0.8783513717614023 L13.820818521974383,-1.0055685386039501 L13.882370831214343,-1.1294453078870934 L13.95095769159187,-1.249570173441044 L14.02635126445428,-1.3655440925428894 L14.108301099934545,-1.4769818114963864 L14.19653496892055,-1.5835131454059992 L14.290759767372839,-1.6847842078938917 L14.390662489986747,-1.7804585866748883 L14.49591126996455,-1.870218461084252 L14.606156481443595,-1.9537656578459712 L14.72103190091825,-2.0308226415743973 L14.84015592379756,-2.101133436718884 L14.963132832057331,-2.164464477888826 L15.089554108775596,-2.2206053857343946 L15.218999795184757,-2.269369665805584 L15.35103988573238,-2.3105953280680196 L15.485235756516385,-2.3441454250175564 L15.621141622349548,-2.369908506606124 L15.758306017613057,-2.3877989904675685 L15.896273295979897,-2.3977574462136753 L16.03458514402613,-2.3997507928559356 L16.172782103701994,-2.3937724086972665 L16.310405098605337,-2.379842153328622 L16.446996958987256,-2.3580063016574284 L16.582103940424044,-2.3283373901869977 L16.715277231110512,-2.2909339760575556 L16.84607444276768,-2.245920309649334 L16.974061080212156,-2.1934459218353046 L17.098811984705428,-2.1336851272546555 L17.219912746288454,-2.0668364452570884 L17.336961080409854,-1.9931219404415073 L17.449568164274734,-1.9127864849797478 L17.557359928474924,-1.826096945175852 L17.65997829960992,-1.733341294963043 L17.757082389770712,-1.6348276592832784 L17.84834962893514,-1.5308832905271803 L17.933476836513066,-1.4218534814345045 L18.012181228481808,-1.3081004180663836 L18.08420135676621,-1.1900019766596546 L18.149297977742883,-1.0679504683600025 L18.20725484698344,-0.9423513360037871 L18.257879437596735,-0.8136218072777145 L18.301003579783863,-0.6821895087304201 L18.33648401948129,-0.5484910452400799 L18.364202894236463,-0.4129705496569109 L18.384068124735016,-0.2760782074385091 L18.396013720678997,-0.13826876117903153 L18.4,-3.0430625365514937e-14 " />

       </g>
    </g>
    
</svg>
