<?xml version="1.0" encoding="UTF-8" standalone="no"?>
    <svg
    xmlns:svg="http://www.w3.org/2000/svg"
    xmlns="http://www.w3.org/2000/svg"
    width="1989"
    height="1008"
    >
        <g transform="scale(5, -5)   translate(198.92044591061682,-100.75904686799629)" stroke-width="0.2"  fill="none">
        <!-- hidden lines -->
        <g  stroke="rgb(160,160,160)" fill="none" stroke-dasharray="0.2,0.2" >
    			<path d="M195.01150039772853,-44.07957835322685 L83.6413962326777,87.95370116097828 " />
			<path d="M83.64139623267772,87.95370116097824 L83.64139623267772,96.75904686799625 " />
			<path d="M83.64139623267772,87.95370116097824 L-194.92044591061682,35.16628426420837 " />
			<path d="M86.56118570916765,-55.95307870957085 L86.38937406434262,-55.982791263928064 L86.21406184422018,-56.00748631260277 L86.03590060473584,-56.02707207530991 L85.85555249033669,-56.04147576066085 L85.67368777309113,-56.050643836696004 L85.49098236159182,-56.0545422298388 L85.30811528891033,-56.05315645153167 L85.12576618893945,-56.04649165208349 L84.94461277050256,-56.034572601528176 L84.76532829861755,-56.01744359756574 L84.58857909227645,-55.99516830092784 L84.41502204804019,-55.96782949877973 L84.24530219865233,-55.93552879703797 L84.08005031574511,-55.89838624274735 L83.91988056554774,-55.856539877920525 L83.76538822630924,-55.81014522649851 L83.61714747591952,-55.75937471633882 L83.47570925795075,-55.70441703837936 L83.34159923405025,-55.64547644535991 L83.2153158302948,-55.5827719927074 L83.09732838476711,-55.51653672440633 L82.98807540323934,-55.447016806880065 L82.88796292944612,-55.37447061410203 L82.84145202133749,-55.33714650892198 L82.79736303600437,-55.299167767336904 L82.75573694765251,-55.26056968498261 L82.71661244158828,-55.22138813308079 L82.68002587826655,-55.18165952510194 L82.64601125949886,-55.141420782924506 L82.61460019685387,-55.10070930252133 L82.58582188227903,-55.05956291920572 L82.55970306097093,-55.01801987246904 L82.53626800651968,-54.976118770442774 L82.5155384983501,-54.93389855401796 L82.49753380148098,-54.89139846065538 L82.48227064862117,-54.84865798792013 L82.46976322461886,-54.80571685677445 L82.46002315327897,-54.762614974662974 L82.45305948656046,-54.71939239842463 L82.44887869616394,-54.67608929706574 L82.44748466751713,-54.63274591442882 " />
			<path d="M82.44748466751713,-54.6327459144288 L82.45109829890161,-54.562974341519855 L82.46193048750054,-54.49337085444131 L82.47995513762278,-54.42410313409009 L82.50512882630744,-54.35533805247166 L82.5373909079335,-54.287241270690735 L82.5766636603205,-54.219976839859214 L82.62285247196807,-54.15370680588263 L82.67584606998327,-54.0885908190774 L82.7355167881468,-54.024785749559236 L82.80172087447207,-53.96244530932926 L82.87429883751632,-53.901719681968366 L82.95307583060949,-53.842755160831814 L83.03786207307519,-53.78569379661568 L83.12845330742891,-53.73067305514437 L83.22463129145225,-53.67782548620333 L83.32616432395749,-53.62727840421503 L83.43280780297607,-53.57915358152739 L83.5443048150262,-53.5335669550535 L83.66038675403983,-53.49062834696945 L83.78077396845832,-53.45044120014309 L83.90517643493746,-53.41310232893111 L84.03329445703913,-53.378701685944755 L84.16481938722629,-53.34732214534612 L84.29943437042186,-53.31903930319703 L84.43681510734046,-53.293921295341505 L84.57663063575374,-53.27202863326055 L84.71854412780733,-53.25341405829469 L84.86221370146875,-53.23812241458545 L85.00729324415104,-53.22619054104193 L85.15343324652845,-53.21764718259259 L85.30028164453488,-53.21251292093626 L85.44748466751713,-53.21080012495898 L85.59468769049938,-53.21251292093626 L85.74153608850581,-53.21764718259259 L85.88767609088322,-53.22619054104193 L86.03275563356551,-53.23812241458545 L86.17642520722693,-53.25341405829469 L86.31833869928052,-53.27202863326055 L86.4581542276938,-53.293921295341505 L86.5955349646124,-53.31903930319703 L86.73014994780797,-53.34732214534612 L86.86167487799513,-53.378701685944755 L86.9897929000968,-53.41310232893111 L87.11419536657594,-53.45044120014309 L87.23458258099443,-53.49062834696945 L87.35066452000807,-53.5335669550535 L87.46216153205819,-53.57915358152739 L87.56880501107678,-53.62727840421503 L87.670338043582,-53.67782548620333 L87.76651602760535,-53.73067305514437 L87.85710726195907,-53.78569379661568 L87.94189350442477,-53.842755160831814 L88.02067049751794,-53.901719681968366 L88.0932484605622,-53.96244530932926 L88.15945254688747,-54.024785749559236 L88.219123265051,-54.0885908190774 L88.27211686306619,-54.15370680588263 L88.31830567471376,-54.219976839859214 L88.35757842710076,-54.287241270690735 L88.38984050872682,-54.35533805247166 L88.41501419741147,-54.42410313409009 L88.43303884753372,-54.49337085444131 L88.44387103613265,-54.562974341519855 L88.44748466751713,-54.632745914428796 " />
			<path d="M88.44748466751713,-54.6327459144288 L88.44540894104536,-54.685632720010936 L88.43918463405696,-54.73844633989817 L88.42882035985781,-54.79111368967125 L88.41433046071343,-54.843561887322096 L88.39573498800198,-54.89571835410921 L88.37305967446676,-54.947510914993394 L88.34633589860682,-54.998867898514874 L88.31560064125482,-55.04971823597351 L88.28089643440228,-55.09999155977493 L88.24227130234311,-55.14961830080643 L88.1997786952167,-55.198529784707986 L88.15347741504267,-55.24665832690498 L88.10343153434968,-55.293937326271354 L88.04971030751062,-55.34030135729341 L87.99238807490725,-55.3856862606068 L87.93154416005666,-55.430029231781376 L87.86726275984199,-55.47326890823106 L87.79963282799929,-55.51534545412851 L87.72874795202176,-55.55620064320693 L87.65470622365174,-55.59577793933468 L87.57761010313963,-55.63402257475092 L87.49756627745758,-55.67088162585423 L87.41468551266415,-55.706304086439204 L87.32908250062435,-55.74024093827976 L87.24087570029695,-55.77264521896141 L87.1501871738089,-55.80347208686867 L87.0571424175436,-55.83267888323772 L86.96187018847681,-55.86022519118829 L86.86450232600048,-55.88607289165331 L86.76517356948102,-55.91018621612873 L86.66402137180465,-55.93253179617058 L86.56118570916766,-55.953078709570846 " />
			<path d="M49.41960675672837,-62.991400962473506 L49.24779511190335,-63.02111351683072 L49.072482891780915,-63.045808565505425 L48.89432165229657,-63.06539432821256 L48.713973537897424,-63.079798013563504 L48.53210882065186,-63.08896608959866 L48.34940340915255,-63.092864482741454 L48.16653633647107,-63.09147870443432 L47.98418723650019,-63.08481390498614 L47.80303381806329,-63.07289485443083 L47.62374934617828,-63.05576585046839 L47.44700013983718,-63.03349055383049 L47.273443095600925,-63.00615175168238 L47.10372324621306,-62.97385104994062 L46.938471363305844,-62.93670849565 L46.778301613108475,-62.89486213082318 L46.62380927386997,-62.848467479401165 L46.475568523480256,-62.79769696924147 L46.33413030551148,-62.742739291282014 L46.20002028161099,-62.683798698262564 L46.073736877855524,-62.62109424561005 L45.95574943232784,-62.55485897730898 L45.846496450800075,-62.48533905978272 L45.74638397700686,-62.41279286700468 L45.69987306889821,-62.375468761824635 L45.65578408356511,-62.33749002023956 L45.61415799521323,-62.298891937885266 L45.575033489149014,-62.25971038598344 L45.53844692582728,-62.219981778004595 L45.504432307059595,-62.17974303582716 L45.47302124441461,-62.13903155542398 L45.44424292983976,-62.09788517210837 L45.41812410853167,-62.05634212537169 L45.394689054080416,-62.01444102334543 L45.37395954591082,-61.97222080692061 L45.355954849041716,-61.929720713558034 L45.3406916961819,-61.88698024082278 L45.32818427217959,-61.844039109677105 L45.31844420083969,-61.800937227565626 L45.31148053412119,-61.757714651327284 L45.30729974372467,-61.71441154996839 L45.30590571507786,-61.67106816733147 " />
			<path d="M45.30590571507786,-61.671068167331455 L45.309519346462345,-61.60129659442251 L45.32035153506127,-61.53169310734396 L45.33837618518352,-61.46242538699274 L45.36354987386817,-61.39366030537431 L45.39581195549423,-61.32556352359339 L45.43508470788124,-61.25829909276187 L45.4812735195288,-61.19202905878528 L45.534267117544005,-61.126913071980056 L45.593937835707536,-61.06310800246189 L45.6601419220328,-61.000767562231914 L45.732719885077046,-60.94004193487102 L45.811496878170225,-60.88107741373447 L45.89628312063593,-60.824016049518335 L45.98687435498965,-60.768995308047025 L46.08305233901299,-60.716147739105985 L46.18458537151822,-60.665600657117686 L46.29122885053681,-60.617475834430046 L46.40272586258693,-60.571889207956154 L46.51880780160056,-60.528950599872104 L46.63919501601906,-60.48876345304574 L46.7635974824982,-60.45142458183376 L46.89171550459987,-60.41702393884741 L47.02324043478701,-60.38564439824877 L47.157855417982596,-60.35736155609968 L47.295236154901204,-60.33224354824416 L47.43505168331448,-60.3103508861632 L47.57696517536807,-60.29173631119734 L47.72063474902948,-60.2764446674881 L47.865714291711775,-60.26451279394458 L48.01185429408918,-60.255969435495246 L48.15870269209561,-60.25083517383892 L48.30590571507786,-60.24912237786163 L48.453108738060116,-60.25083517383892 L48.59995713606654,-60.255969435495246 L48.74609713844395,-60.26451279394458 L48.89117668112625,-60.2764446674881 L49.03484625478765,-60.29173631119734 L49.17675974684125,-60.3103508861632 L49.31657527525452,-60.33224354824416 L49.45395601217313,-60.35736155609968 L49.58857099536871,-60.38564439824877 L49.72009592555585,-60.41702393884741 L49.84821394765753,-60.45142458183376 L49.97261641413667,-60.48876345304574 L50.09300362855516,-60.528950599872104 L50.2090855675688,-60.571889207956154 L50.320582579618915,-60.617475834430046 L50.42722605863751,-60.665600657117686 L50.52875909114274,-60.716147739105985 L50.62493707516607,-60.768995308047025 L50.7155283095198,-60.824016049518335 L50.8003145519855,-60.88107741373447 L50.87909154507868,-60.94004193487102 L50.951669508122926,-61.000767562231914 L51.01787359444819,-61.06310800246189 L51.07754431261172,-61.126913071980056 L51.13053791062693,-61.19202905878528 L51.17672672227449,-61.25829909276187 L51.215999474661494,-61.32556352359339 L51.24826155628755,-61.39366030537431 L51.273435244972205,-61.46242538699274 L51.291459895094455,-61.53169310734396 L51.30229208369338,-61.60129659442251 L51.30590571507786,-61.67106816733145 " />
			<path d="M51.30590571507786,-61.671068167331455 L51.30382998860609,-61.72395497291359 L51.297605681617696,-61.77676859280082 L51.287241407418534,-61.8294359425739 L51.272751508274155,-61.88188414022475 L51.2541560355627,-61.934040607011866 L51.23148072202749,-61.98583316789605 L51.20475694616756,-62.037190151417526 L51.17402168881555,-62.08804048887616 L51.13931748196302,-62.13831381267758 L51.10069234990384,-62.18794055370908 L51.058199742777425,-62.23685203761064 L51.011898462603405,-62.28498057980763 L50.961852581910414,-62.33225957917401 L50.908131355071355,-62.378623610196065 L50.85080912246798,-62.424008513509456 L50.7899652076174,-62.468351484684035 L50.72568380740273,-62.51159116113372 L50.65805387556002,-62.55366770703116 L50.58716899958249,-62.59452289610958 L50.51312727121247,-62.634100192237334 L50.43603115070036,-62.672344827653575 L50.355987325018305,-62.70920387875688 L50.27310656022489,-62.744626339341856 L50.18750354818509,-62.778563191182414 L50.099296747857686,-62.81096747186406 L50.00860822136963,-62.841794339771326 L49.91556346510433,-62.87100113614037 L49.82029123603754,-62.898547444090944 L49.72292337356121,-62.924395144555966 L49.62359461704175,-62.94850846903138 L49.52244241936538,-62.97085404907323 L49.4196067567284,-62.9914009624735 " />
			<path d="M12.278027804289096,-70.02972321537615 L12.10621615946408,-70.05943576973335 L11.930903939341642,-70.08413081840807 L11.752742699857295,-70.10371658111521 L11.572394585458147,-70.11812026646615 L11.390529868212582,-70.1272883425013 L11.207824456713276,-70.13118673564409 L11.024957384031792,-70.12980095733697 L10.842608284060915,-70.1231361578888 L10.661454865624016,-70.11121710733347 L10.482170393739004,-70.09408810337104 L10.305421187397902,-70.07181280673313 L10.131864143161648,-70.04447400458503 L9.962144293773783,-70.01217330284327 L9.79689241086657,-69.97503074855265 L9.636722660669196,-69.93318438372583 L9.482230321430702,-69.88678973230381 L9.333989571040977,-69.83601922214412 L9.192551353072208,-69.78106154418465 L9.05844132917171,-69.72212095116521 L8.932157925416252,-69.6594164985127 L8.81417047988857,-69.59318123021163 L8.7049174983608,-69.52366131268536 L8.60480502456758,-69.45111511990733 L8.55829411645894,-69.41379101472728 L8.514205131125832,-69.3758122731422 L8.472579042773962,-69.3372141907879 L8.433454536709743,-69.29803263888608 L8.396867973388003,-69.25830403090724 L8.362853354620317,-69.2180652887298 L8.331442291975334,-69.17735380832663 L8.302663977400488,-69.13620742501102 L8.276545156092395,-69.09466437827433 L8.25311010164114,-69.05276327624807 L8.23238059347155,-69.01054305982326 L8.214375896602442,-68.96804296646069 L8.199112743742624,-68.92530249372543 L8.186605319740316,-68.88236136257974 L8.176865248400418,-68.83925948046827 L8.169901581681914,-68.79603690422994 L8.165720791285398,-68.75273380287103 L8.164326762638588,-68.70939042023412 " />
			<path d="M8.164326762638588,-68.7093904202341 L8.16794039402307,-68.63961884732515 L8.178772582621997,-68.57001536024661 L8.196797232744245,-68.5007476398954 L8.221970921428897,-68.43198255827696 L8.254233003054956,-68.36388577649603 L8.293505755441961,-68.2966213456645 L8.339694567089525,-68.23035131168793 L8.392688165104728,-68.1652353248827 L8.452358883268257,-68.10143025536453 L8.518562969593523,-68.03908981513456 L8.59114093263777,-67.97836418777366 L8.669917925730953,-67.9193996666371 L8.754704168196653,-67.86233830242098 L8.845295402550377,-67.80731756094967 L8.94147338657371,-67.75446999200862 L9.043006419078946,-67.70392291002032 L9.149649898097532,-67.65579808733268 L9.261146910147652,-67.61021146085879 L9.377228849161288,-67.56727285277475 L9.49761606357978,-67.5270857059484 L9.622018530058924,-67.48974683473641 L9.750136552160594,-67.45534619175005 L9.881661482347742,-67.42396665115142 L10.016276465543319,-67.39568380900232 L10.153657202461927,-67.3705658011468 L10.293472730875202,-67.34867313906585 L10.435386222928797,-67.33005856409999 L10.579055796590202,-67.31476692039075 L10.724135339272502,-67.30283504684722 L10.870275341649906,-67.29429168839789 L11.017123739656334,-67.28915742674157 L11.164326762638588,-67.28744463076427 L11.311529785620841,-67.28915742674157 L11.45837818362727,-67.29429168839789 L11.604518186004674,-67.30283504684722 L11.749597728686972,-67.31476692039075 L11.893267302348379,-67.33005856409999 L12.035180794401974,-67.34867313906585 L12.174996322815247,-67.3705658011468 L12.312377059733857,-67.39568380900232 L12.446992042929434,-67.42396665115142 L12.578516973116582,-67.45534619175005 L12.706634995218252,-67.48974683473641 L12.831037461697393,-67.5270857059484 L12.951424676115886,-67.56727285277475 L13.067506615129524,-67.61021146085879 L13.179003627179643,-67.65579808733268 L13.28564710619823,-67.70392291002032 L13.387180138703464,-67.75446999200862 L13.483358122726798,-67.80731756094967 L13.573949357080522,-67.86233830242098 L13.658735599546224,-67.9193996666371 L13.737512592639405,-67.97836418777366 L13.810090555683653,-68.03908981513456 L13.876294642008917,-68.10143025536453 L13.935965360172448,-68.1652353248827 L13.98895895818765,-68.23035131168793 L14.035147769835215,-68.2966213456645 L14.07442052222222,-68.36388577649603 L14.106682603848279,-68.43198255827696 L14.13185629253293,-68.5007476398954 L14.149880942655178,-68.57001536024661 L14.160713131254106,-68.63961884732515 L14.164326762638588,-68.7093904202341 " />
			<path d="M14.164326762638588,-68.7093904202341 L14.162251036166815,-68.76227722581623 L14.156026729178421,-68.81509084570347 L14.145662454979261,-68.86775819547654 L14.13117255583488,-68.9202063931274 L14.11257708312343,-68.97236285991451 L14.089901769588216,-69.02415542079869 L14.063177993728281,-69.07551240432018 L14.032442736376279,-69.1263627417788 L13.99773852952374,-69.17663606558023 L13.959113397464566,-69.22626280661173 L13.916620790338147,-69.27517429051328 L13.870319510164132,-69.32330283271028 L13.820273629471139,-69.37058183207665 L13.766552402632076,-69.4169458630987 L13.709230170028707,-69.46233076641211 L13.64838625517812,-69.50667373758668 L13.584104854963453,-69.54991341403637 L13.51647492312075,-69.59198995993381 L13.445590047143217,-69.63284514901223 L13.371548318773197,-69.67242244513997 L13.294452198261087,-69.71066708055622 L13.214408372579033,-69.74752613165953 L13.13152760778561,-69.78294859224451 L13.045924595745813,-69.81688544408506 L12.95771779541841,-69.8492897247667 L12.867029268930352,-69.88011659267397 L12.773984512665052,-69.90932338904302 L12.678712283598268,-69.93686969699358 L12.581344421121933,-69.96271739745862 L12.482015664602478,-69.98683072193403 L12.380863466926112,-70.00917630197588 L12.27802780428912,-70.02972321537615 " />
			<path d="M92.81506815602546,-61.80074906230263 L92.16062125400416,-63.56980068154643 " />
			<path d="M90.58974586329164,-63.867481273778296 L87.4953102503543,-62.80884218875494 " />
			<path d="M87.4953102503543,-62.80884218875494 L88.43940119150723,-62.62993713228468 " />
			<path d="M88.43940119150724,-62.62993713228469 L91.36141213281923,-63.67837476574139 " />
			<path d="M91.36141213281921,-63.67837476574139 L91.90379378178079,-61.97343538549204 " />
			<path d="M91.90379378178079,-61.97343538549204 L92.81506815602545,-61.80074906230262 " />
			<path d="M82.44748466751713,-45.82740020741079 L82.44748466751713,-54.632745914428796 " />
			<path d="M88.44748466751713,-45.82740020741079 L88.44748466751713,-54.632745914428796 " />
			<path d="M45.30590571507786,-52.86572246031344 L45.30590571507786,-61.671068167331455 " />
			<path d="M51.30590571507786,-52.86572246031344 L51.30590571507786,-61.671068167331455 " />
			<path d="M8.164326762638595,-59.904044713216095 L8.164326762638595,-68.7093904202341 " />
			<path d="M14.164326762638588,-59.904044713216095 L14.164326762638588,-68.7093904202341 " />

        </g>

        <!-- solid lines -->
        <g  stroke="rgb(0,0,0)" fill="none">
    			<path d="M195.01150039772853,-44.07957835322685 L195.01150039772853,-35.274232646208844 " />
			<path d="M195.01150039772853,-35.274232646208844 L-83.55034174556602,-88.06164954297871 " />
			<path d="M-83.55034174556602,-96.86699524999673 L-83.55034174556602,-88.06164954297873 " />
			<path d="M195.01150039772853,-44.07957835322685 L-83.55034174556602,-96.86699524999672 " />
			<path d="M195.01150039772853,-35.274232646208844 L83.6413962326777,96.75904686799629 " />
			<path d="M-83.55034174556602,-88.06164954297873 L-194.92044591061682,43.971629971226406 " />
			<path d="M83.64139623267772,96.75904686799625 L-194.92044591061682,43.97162997122638 " />
			<path d="M86.56118570916765,-47.14773300255284 L86.38937406434262,-47.17744555691005 L86.21406184422018,-47.20214060558476 L86.03590060473584,-47.2217263682919 L85.85555249033669,-47.23613005364284 L85.67368777309113,-47.24529812967799 L85.49098236159182,-47.24919652282079 L85.30811528891033,-47.24781074451366 L85.12576618893945,-47.241145945065476 L84.94461277050256,-47.22922689451016 L84.76532829861755,-47.212097890547724 L84.58857909227645,-47.189822593909824 L84.41502204804019,-47.162483791761716 L84.24530219865233,-47.130183090019955 L84.08005031574511,-47.09304053572934 L83.91988056554774,-47.05119417090251 L83.76538822630924,-47.0047995194805 L83.61714747591952,-46.954029009320806 L83.47570925795075,-46.89907133136135 L83.34159923405025,-46.8401307383419 L83.2153158302948,-46.77742628568939 L83.09732838476711,-46.711191017388316 L82.98807540323934,-46.64167109986205 L82.88796292944612,-46.56912490708402 L82.84145202133749,-46.53180080190397 L82.79736303600437,-46.49382206031889 L82.75573694765251,-46.4552239779646 L82.71661244158828,-46.41604242606277 L82.68002587826655,-46.37631381808393 L82.64601125949886,-46.33607507590649 L82.61460019685387,-46.29536359550332 L82.58582188227903,-46.254217212187704 L82.55970306097093,-46.21267416545103 L82.53626800651968,-46.17077306342476 L82.5155384983501,-46.128552846999945 L82.49753380148098,-46.08605275363737 L82.48227064862117,-46.043312280902114 L82.46976322461886,-46.00037114975644 L82.46002315327897,-45.95726926764496 L82.45305948656046,-45.91404669140662 L82.44887869616394,-45.870743590047724 L82.44748466751713,-45.827400207410804 " />
			<path d="M82.44748466751713,-45.82740020741079 L82.45109829890161,-45.75762863450184 L82.46193048750054,-45.688025147423296 L82.47995513762278,-45.618757427072076 L82.50512882630744,-45.549992345453646 L82.5373909079335,-45.48189556367272 L82.5766636603205,-45.4146311328412 L82.62285247196807,-45.348361098864615 L82.67584606998327,-45.28324511205939 L82.7355167881468,-45.21944004254122 L82.80172087447207,-45.15709960231125 L82.87429883751632,-45.09637397495035 L82.95307583060949,-45.0374094538138 L83.03786207307519,-44.98034808959767 L83.12845330742891,-44.92532734812636 L83.22463129145225,-44.87247977918532 L83.32616432395749,-44.82193269719702 L83.43280780297607,-44.77380787450938 L83.5443048150262,-44.72822124803549 L83.66038675403983,-44.68528263995144 L83.78077396845832,-44.645095493125076 L83.90517643493746,-44.6077566219131 L84.03329445703913,-44.57335597892674 L84.16481938722629,-44.541976438328106 L84.29943437042186,-44.51369359617902 L84.43681510734046,-44.48857558832349 L84.57663063575374,-44.466682926242534 L84.71854412780733,-44.448068351276675 L84.86221370146875,-44.432776707567434 L85.00729324415104,-44.42084483402392 L85.15343324652845,-44.41230147557458 L85.30028164453488,-44.40716721391826 L85.44748466751713,-44.405454417940966 L85.59468769049938,-44.40716721391826 L85.74153608850581,-44.41230147557458 L85.88767609088322,-44.42084483402392 L86.03275563356551,-44.432776707567434 L86.17642520722693,-44.448068351276675 L86.31833869928052,-44.466682926242534 L86.4581542276938,-44.48857558832349 L86.5955349646124,-44.51369359617902 L86.73014994780797,-44.541976438328106 L86.86167487799513,-44.57335597892674 L86.9897929000968,-44.6077566219131 L87.11419536657594,-44.645095493125076 L87.23458258099443,-44.68528263995144 L87.35066452000807,-44.72822124803549 L87.46216153205819,-44.77380787450938 L87.56880501107678,-44.82193269719702 L87.670338043582,-44.87247977918532 L87.76651602760535,-44.92532734812636 L87.85710726195907,-44.98034808959767 L87.94189350442477,-45.0374094538138 L88.02067049751794,-45.09637397495035 L88.0932484605622,-45.15709960231125 L88.15945254688747,-45.21944004254122 L88.219123265051,-45.28324511205939 L88.27211686306619,-45.348361098864615 L88.31830567471376,-45.4146311328412 L88.35757842710076,-45.48189556367272 L88.38984050872682,-45.549992345453646 L88.41501419741147,-45.618757427072076 L88.43303884753372,-45.688025147423296 L88.44387103613265,-45.75762863450184 L88.44748466751713,-45.82740020741078 " />
			<path d="M88.44748466751713,-45.82740020741079 L88.44540894104536,-45.88028701299292 L88.43918463405696,-45.933100632880155 L88.42882035985781,-45.985767982653236 L88.41433046071343,-46.03821618030408 L88.39573498800198,-46.0903726470912 L88.37305967446676,-46.14216520797538 L88.34633589860682,-46.19352219149686 L88.31560064125482,-46.244372528955495 L88.28089643440228,-46.294645852756915 L88.24227130234311,-46.34427259378842 L88.1997786952167,-46.39318407768997 L88.15347741504267,-46.441312619886965 L88.10343153434968,-46.48859161925334 L88.04971030751062,-46.5349556502754 L87.99238807490725,-46.58034055358879 L87.93154416005666,-46.62468352476337 L87.86726275984199,-46.66792320121306 L87.79963282799929,-46.709999747110494 L87.72874795202176,-46.750854936188915 L87.65470622365174,-46.79043223231667 L87.57761010313963,-46.82867686773291 L87.49756627745758,-46.865535918836216 L87.41468551266415,-46.90095837942119 L87.32908250062435,-46.93489523126175 L87.24087570029695,-46.967299511943395 L87.1501871738089,-46.99812637985066 L87.0571424175436,-47.027333176219706 L86.96187018847681,-47.05487948417028 L86.86450232600048,-47.0807271846353 L86.76517356948102,-47.104840509110716 L86.66402137180465,-47.127186089152566 L86.56118570916766,-47.14773300255283 " />
			<path d="M49.41960675672837,-54.18605525545549 L49.24779511190335,-54.215767809812704 L49.072482891780915,-54.24046285848741 L48.89432165229657,-54.26004862119455 L48.713973537897424,-54.27445230654549 L48.53210882065186,-54.283620382580644 L48.34940340915255,-54.28751877572344 L48.16653633647107,-54.28613299741631 L47.98418723650019,-54.27946819796813 L47.80303381806329,-54.267549147412815 L47.62374934617828,-54.25042014345038 L47.44700013983718,-54.22814484681248 L47.273443095600925,-54.20080604466437 L47.10372324621306,-54.16850534292261 L46.938471363305844,-54.13136278863199 L46.778301613108475,-54.089516423805165 L46.62380927386997,-54.04312177238315 L46.475568523480256,-53.99235126222346 L46.33413030551148,-53.937393584264 L46.20002028161099,-53.87845299124455 L46.073736877855524,-53.81574853859204 L45.95574943232784,-53.74951327029097 L45.846496450800075,-53.679993352764704 L45.74638397700686,-53.60744715998667 L45.69987306889821,-53.57012305480662 L45.65578408356511,-53.53214431322154 L45.61415799521323,-53.49354623086725 L45.575033489149014,-53.454364678965426 L45.53844692582728,-53.41463607098658 L45.504432307059595,-53.374397328809145 L45.47302124441461,-53.33368584840597 L45.44424292983976,-53.29253946509036 L45.41812410853167,-53.25099641835368 L45.394689054080416,-53.209095316327414 L45.37395954591082,-53.1668750999026 L45.355954849041716,-53.12437500654002 L45.3406916961819,-53.08163453380477 L45.32818427217959,-53.03869340265909 L45.31844420083969,-52.99559152054761 L45.31148053412119,-52.95236894430927 L45.30729974372467,-52.909065842950376 L45.30590571507786,-52.86572246031346 " />
			<path d="M45.30590571507786,-52.86572246031344 L45.309519346462345,-52.795950887404494 L45.32035153506127,-52.72634740032595 L45.33837618518352,-52.65707967997473 L45.36354987386817,-52.5883145983563 L45.39581195549423,-52.520217816575375 L45.43508470788124,-52.452953385743854 L45.4812735195288,-52.38668335176727 L45.534267117544005,-52.32156736496204 L45.593937835707536,-52.257762295443875 L45.6601419220328,-52.1954218552139 L45.732719885077046,-52.134696227853006 L45.811496878170225,-52.075731706716454 L45.89628312063593,-52.01867034250032 L45.98687435498965,-51.96364960102901 L46.08305233901299,-51.91080203208797 L46.18458537151822,-51.86025495009967 L46.29122885053681,-51.81213012741203 L46.40272586258693,-51.76654350093814 L46.51880780160056,-51.72360489285409 L46.63919501601906,-51.68341774602773 L46.7635974824982,-51.64607887481575 L46.89171550459987,-51.611678231829394 L47.02324043478701,-51.58029869123076 L47.157855417982596,-51.55201584908167 L47.295236154901204,-51.526897841226145 L47.43505168331448,-51.505005179145186 L47.57696517536807,-51.48639060417933 L47.72063474902948,-51.47109896047009 L47.865714291711775,-51.45916708692657 L48.01185429408918,-51.45062372847723 L48.15870269209561,-51.4454894668209 L48.30590571507786,-51.44377667084362 L48.453108738060116,-51.4454894668209 L48.59995713606654,-51.45062372847723 L48.74609713844395,-51.45916708692657 L48.89117668112625,-51.47109896047009 L49.03484625478765,-51.48639060417933 L49.17675974684125,-51.505005179145186 L49.31657527525452,-51.526897841226145 L49.45395601217313,-51.55201584908167 L49.58857099536871,-51.58029869123076 L49.72009592555585,-51.611678231829394 L49.84821394765753,-51.64607887481575 L49.97261641413667,-51.68341774602773 L50.09300362855516,-51.72360489285409 L50.2090855675688,-51.76654350093814 L50.320582579618915,-51.81213012741203 L50.42722605863751,-51.86025495009967 L50.52875909114274,-51.91080203208797 L50.62493707516607,-51.96364960102901 L50.7155283095198,-52.01867034250032 L50.8003145519855,-52.075731706716454 L50.87909154507868,-52.134696227853006 L50.951669508122926,-52.1954218552139 L51.01787359444819,-52.257762295443875 L51.07754431261172,-52.32156736496204 L51.13053791062693,-52.38668335176727 L51.17672672227449,-52.452953385743854 L51.215999474661494,-52.520217816575375 L51.24826155628755,-52.5883145983563 L51.273435244972205,-52.65707967997473 L51.291459895094455,-52.72634740032595 L51.30229208369338,-52.795950887404494 L51.30590571507786,-52.865722460313435 " />
			<path d="M51.30590571507786,-52.86572246031344 L51.30382998860609,-52.918609265895576 L51.297605681617696,-52.97142288578281 L51.287241407418534,-53.02409023555589 L51.272751508274155,-53.076538433206736 L51.2541560355627,-53.12869489999385 L51.23148072202749,-53.180487460878034 L51.20475694616756,-53.23184444439951 L51.17402168881555,-53.28269478185815 L51.13931748196302,-53.33296810565957 L51.10069234990384,-53.38259484669107 L51.058199742777425,-53.431506330592626 L51.011898462603405,-53.47963487278962 L50.961852581910414,-53.526913872155994 L50.908131355071355,-53.57327790317805 L50.85080912246798,-53.61866280649144 L50.7899652076174,-53.663005777666015 L50.72568380740273,-53.7062454541157 L50.65805387556002,-53.74832200001315 L50.58716899958249,-53.78917718909157 L50.51312727121247,-53.82875448521932 L50.43603115070036,-53.86699912063556 L50.355987325018305,-53.90385817173887 L50.27310656022489,-53.93928063232384 L50.18750354818509,-53.9732174841644 L50.099296747857686,-54.00562176484605 L50.00860822136963,-54.03644863275331 L49.91556346510433,-54.06565542912236 L49.82029123603754,-54.09320173707293 L49.72292337356121,-54.11904943753795 L49.62359461704175,-54.14316276201337 L49.52244241936538,-54.16550834205522 L49.4196067567284,-54.186055255455486 " />
			<path d="M12.278027804289096,-61.224377508358145 L12.10621615946408,-61.254090062715356 L11.930903939341642,-61.278785111390064 L11.752742699857295,-61.2983708740972 L11.572394585458147,-61.312774559448144 L11.390529868212582,-61.321942635483296 L11.207824456713276,-61.325841028626094 L11.024957384031792,-61.32445525031896 L10.842608284060915,-61.31779045087078 L10.661454865624016,-61.30587140031547 L10.482170393739004,-61.28874239635303 L10.305421187397902,-61.26646709971513 L10.131864143161648,-61.23912829756702 L9.962144293773783,-61.20682759582526 L9.79689241086657,-61.16968504153464 L9.636722660669196,-61.12783867670782 L9.482230321430702,-61.081444025285805 L9.333989571040977,-61.03067351512611 L9.192551353072208,-60.97571583716665 L9.05844132917171,-60.9167752441472 L8.932157925416252,-60.85407079149469 L8.81417047988857,-60.78783552319362 L8.7049174983608,-60.71831560566736 L8.60480502456758,-60.64576941288932 L8.55829411645894,-60.608445307709275 L8.514205131125832,-60.570466566124196 L8.472579042773962,-60.531868483769905 L8.433454536709743,-60.49268693186808 L8.396867973388003,-60.452958323889234 L8.362853354620317,-60.4127195817118 L8.331442291975334,-60.37200810130862 L8.302663977400488,-60.33086171799301 L8.276545156092395,-60.28931867125633 L8.25311010164114,-60.247417569230066 L8.23238059347155,-60.20519735280525 L8.214375896602442,-60.16269725944267 L8.199112743742624,-60.11995678670742 L8.186605319740316,-60.077015655561745 L8.176865248400418,-60.033913773450266 L8.169901581681914,-59.99069119721192 L8.165720791285398,-59.94738809585303 L8.164326762638588,-59.90404471321611 " />
			<path d="M8.164326762638588,-59.904044713216095 L8.16794039402307,-59.83427314030715 L8.178772582621997,-59.7646696532286 L8.196797232744245,-59.69540193287738 L8.221970921428897,-59.62663685125895 L8.254233003054956,-59.55854006947803 L8.293505755441961,-59.491275638646506 L8.339694567089525,-59.42500560466992 L8.392688165104728,-59.359889617864695 L8.452358883268257,-59.29608454834653 L8.518562969593523,-59.233744108116554 L8.59114093263777,-59.17301848075566 L8.669917925730953,-59.114053959619106 L8.754704168196653,-59.056992595402974 L8.845295402550377,-59.001971853931664 L8.94147338657371,-58.949124284990624 L9.043006419078946,-58.898577203002326 L9.149649898097532,-58.850452380314685 L9.261146910147652,-58.804865753840794 L9.377228849161288,-58.761927145756744 L9.49761606357978,-58.72173999893038 L9.622018530058924,-58.6844011277184 L9.750136552160594,-58.65000048473205 L9.881661482347742,-58.61862094413341 L10.016276465543319,-58.59033810198432 L10.153657202461927,-58.5652200941288 L10.293472730875202,-58.54332743204784 L10.435386222928797,-58.52471285708198 L10.579055796590202,-58.50942121337274 L10.724135339272502,-58.49748933982922 L10.870275341649906,-58.488945981379885 L11.017123739656334,-58.48381171972356 L11.164326762638588,-58.48209892374627 L11.311529785620841,-58.48381171972356 L11.45837818362727,-58.488945981379885 L11.604518186004674,-58.49748933982922 L11.749597728686972,-58.50942121337274 L11.893267302348379,-58.52471285708198 L12.035180794401974,-58.54332743204784 L12.174996322815247,-58.5652200941288 L12.312377059733857,-58.59033810198432 L12.446992042929434,-58.61862094413341 L12.578516973116582,-58.65000048473205 L12.706634995218252,-58.6844011277184 L12.831037461697393,-58.72173999893038 L12.951424676115886,-58.761927145756744 L13.067506615129524,-58.804865753840794 L13.179003627179643,-58.850452380314685 L13.28564710619823,-58.898577203002326 L13.387180138703464,-58.949124284990624 L13.483358122726798,-59.001971853931664 L13.573949357080522,-59.056992595402974 L13.658735599546224,-59.114053959619106 L13.737512592639405,-59.17301848075566 L13.810090555683653,-59.233744108116554 L13.876294642008917,-59.29608454834653 L13.935965360172448,-59.359889617864695 L13.98895895818765,-59.42500560466992 L14.035147769835215,-59.491275638646506 L14.07442052222222,-59.55854006947803 L14.106682603848279,-59.62663685125895 L14.13185629253293,-59.69540193287738 L14.149880942655178,-59.7646696532286 L14.160713131254106,-59.83427314030715 L14.164326762638588,-59.90404471321609 " />
			<path d="M14.164326762638588,-59.904044713216095 L14.162251036166815,-59.95693151879823 L14.156026729178421,-60.00974513868546 L14.145662454979261,-60.06241248845854 L14.13117255583488,-60.11486068610939 L14.11257708312343,-60.167017152896506 L14.089901769588216,-60.218809713780686 L14.063177993728281,-60.270166697302166 L14.032442736376279,-60.3210170347608 L13.99773852952374,-60.37129035856222 L13.959113397464566,-60.42091709959372 L13.916620790338147,-60.46982858349528 L13.870319510164132,-60.51795712569227 L13.820273629471139,-60.56523612505865 L13.766552402632076,-60.611600156080705 L13.709230170028707,-60.656985059394096 L13.64838625517812,-60.701328030568675 L13.584104854963453,-60.74456770701836 L13.51647492312075,-60.7866442529158 L13.445590047143217,-60.82749944199422 L13.371548318773197,-60.86707673812197 L13.294452198261087,-60.905321373538214 L13.214408372579033,-60.94218042464152 L13.13152760778561,-60.977602885226496 L13.045924595745813,-61.011539737067054 L12.95771779541841,-61.0439440177487 L12.867029268930352,-61.074770885655965 L12.773984512665052,-61.10397768202501 L12.678712283598268,-61.131523989975584 L12.581344421121933,-61.157371690440606 L12.482015664602478,-61.18148501491602 L12.380863466926112,-61.20383059495787 L12.27802780428912,-61.22437750835814 " />
			<path d="M-83.55034174556602,-96.86699524999673 L-194.92044591061682,35.1662842642084 " />
			<path d="M-194.9204459106168,35.16628426420837 L-194.9204459106168,43.97162997122638 " />
			<path d="M55.73057932608125,-70.47328680161179 L68.85931732501416,-86.03787971348451 " />
			<path d="M55.73057932608125,-70.47328680161179 L88.56852510531384,-64.25050222873341 " />
			<path d="M55.73057932608125,-70.47328680161179 L55.73057932608125,-39.333042431495656 " />
			<path d="M68.85931732501416,-86.0378797134845 L68.82734899025891,-85.99779831093903 L68.79972931028003,-85.9586006854276 L68.7763180058912,-85.9202583280136 L68.75697479790607,-85.88274272976047 L68.74155940713831,-85.84602538173161 L68.72993155440159,-85.81007777499045 L68.72195096050957,-85.7748714006004 L68.71747734627593,-85.7403777496249 L68.71637043251431,-85.70656831312735 L68.7184899400384,-85.67341458217116 L68.72369558966184,-85.64088804781977 L68.73184710219833,-85.6089602011366 L68.7428041984615,-85.57760253318504 L68.75642659926504,-85.54678653502853 L68.7725740254226,-85.5164836977305 L68.79110619774785,-85.48666551235434 L68.83476366415609,-85.42836906162135 L68.88627676499905,-85.37166911133691 L68.9445232667861,-85.3163375900084 L69.00838093602654,-85.26214642614313 L69.07672753922968,-85.20886754824846 L69.14844084290486,-85.15627288483176 L69.2974786177086,-85.0522239154616 " />
			<path d="M68.85931732501416,-86.0378797134845 L68.82417556410226,-85.99839967460117 L68.78716922359689,-85.96098081950089 L68.74835845122686,-85.92555665838418 L68.70780339472101,-85.89206070145163 L68.66556420180815,-85.86042645890375 L68.6217010202171,-85.8305874409411 L68.5762739976767,-85.80247715776423 L68.52934328191574,-85.77602911957368 L68.43121136164748,-85.72785381895375 L68.32778644124294,-85.68552962068568 L68.21954970253263,-85.64852460637385 L68.10698232734717,-85.61630685762263 L67.99056549751711,-85.58834445603641 L67.87078039487305,-85.56410548321955 L67.74810820124554,-85.54305802077643 L67.62303009846516,-85.52467015031144 L67.36758089276809,-85.4937455117333 L67.10828223242643,-85.46707622032015 " />
			<path d="M88.56852510531384,-64.25050222873341 L88.4012633953865,-64.27874587095144 L88.24121941291776,-64.2990107372351 L88.08791197607705,-64.31182874598004 L87.94085990303381,-64.31773181558185 L87.79958201195744,-64.31725186443619 L87.66359712101739,-64.31092081093867 L87.53242404838308,-64.2992705734849 L87.40558161222393,-64.28283307047053 L87.28258863070937,-64.26214022029116 L87.16296392200883,-64.23772394134242 L87.04622630429172,-64.21011615201995 L86.9318945957275,-64.17984877071935 L86.70852417873535,-64.1134629057663 L86.48900321638777,-64.04282169364825 " />
			<path d="M88.56852510531384,-64.25050222873341 L88.40628496672397,-64.28469912507626 L88.26087833049428,-64.32231709380886 L88.13118296313408,-64.3631280634386 L88.0160766311527,-64.4069039624728 L87.91443710105943,-64.4534167194188 L87.82514213936365,-64.50243826278397 L87.74706951257463,-64.55374052107565 L87.6790969872017,-64.60709542280121 L87.62010232975422,-64.66227489646796 L87.56896330674147,-64.71905087058327 L87.52455768467279,-64.7771952736545 L87.48576323005749,-64.83648003418897 L87.4514577094049,-64.89667708069405 L87.42051888922435,-64.95755834167709 L87.36425241631665,-65.08046122110642 " />
			<path d="M55.73057932608129,-39.33304243149565 L55.73216605409162,-39.41233142669616 L55.736859397864784,-39.48808571309754 L55.744559143989065,-39.56041931356427 L55.75516507905277,-39.62944625096083 L55.768576989644195,-39.69528054815173 L55.784694662351626,-39.75803622800144 L55.80341788376337,-39.81782731337445 L55.82464644046772,-39.87476782713526 L55.84828011905296,-39.928971792148346 L55.8742187061074,-39.9805532312782 L55.90236198821933,-40.02962616738932 L55.932609751977054,-40.076304623346175 L55.96486178396886,-40.12070262201327 L55.999017870783035,-40.162934186255086 L56.03497779900789,-40.203113338936106 L56.07264135523172,-40.24135410292083 L56.11190832604281,-40.277770501073746 L56.152678498029466,-40.312476556259334 L56.238327591882644,-40.37721372918649 L56.32878692949762,-40.43647780461821 L56.42325480358076,-40.49118096547039 L56.52092950683844,-40.542235394658945 L56.621009331977014,-40.590553275099786 L56.82517751872233,-40.68262812140193 " />
			<path d="M55.730579326081205,-39.33304243149567 L55.728992598070874,-39.41293279601754 L55.72429925429771,-39.49046585795032 L55.71659950817343,-39.56571765931301 L55.70599357310972,-39.638764242124616 L55.6925816625183,-39.709681648404136 L55.67646398981087,-39.77854592017058 L55.65774076839912,-39.845433099442936 L55.63651221169478,-39.91041922824023 L55.61287853310954,-39.97358034858144 L55.5869399460551,-40.034992502485586 L55.55879666394316,-40.09473173197167 L55.52854890018544,-40.15287407905869 L55.49629686819364,-40.20949558576565 L55.46214078137946,-40.26467229411155 L55.426180853154605,-40.3184802461154 L55.38851729693078,-40.3709954837962 L55.30848015413303,-40.47245198426465 L55.22283106027985,-40.569650131668936 L55.13237172266488,-40.66319826216108 L55.037903848581735,-40.75370471189311 L54.940229145324054,-40.84177781701704 L54.84014932018548,-40.92802591368489 L54.63598113344017,-41.09748042626049 " />
			<path d="M73.91945362378146,-87.92225142561621 L70.19767068577906,-87.51730362567862 " />
			<path d="M70.19767068577906,-87.51730362567862 L67.97411460111765,-89.10304363898267 " />
			<path d="M67.97411460111765,-89.10304363898267 L67.59666338364833,-88.65556159276633 " />
			<path d="M67.59666338364832,-88.65556159276633 L69.43920643949629,-87.40830058823741 " />
			<path d="M69.43920643949629,-87.40830058823741 L66.28708031561023,-87.10300358300555 " />
			<path d="M66.28708031561024,-87.10300358300555 L65.91618919346266,-86.66329876664588 " />
			<path d="M65.91618919346264,-86.66329876664588 L69.83335034314753,-87.0853887056738 " />
			<path d="M69.83335034314754,-87.08538870567378 L71.9534229716024,-85.59145110376365 " />
			<path d="M71.95342297160238,-85.59145110376365 L72.32431409374996,-86.03115592012331 " />
			<path d="M72.32431409374998,-86.0311559201233 L70.59017054302497,-87.20372365629188 " />
			<path d="M70.59017054302497,-87.20372365629188 L73.55513328114993,-87.49033650561137 " />
			<path d="M73.55513328114993,-87.49033650561137 L73.91945362378145,-87.92225142561621 " />
			<path d="M92.16062125400416,-63.56980068154643 L92.01967553248984,-63.95079454995697 " />
			<path d="M92.01967553248983,-63.95079454995696 L92.95837816257466,-65.06366040985623 " />
			<path d="M92.95837816257466,-65.06366040985624 L92.19488523377203,-65.20834217682169 " />
			<path d="M92.19488523377204,-65.20834217682167 L91.25618260368721,-64.0954763169224 " />
			<path d="M91.2561826036872,-64.0954763169224 L90.58974586329164,-63.867481273778296 " />
			<path d="M53.92860774088133,-33.99920103226817 L58.23858812440561,-33.18246055707788 " />
			<path d="M58.23858812440562,-33.18246055707788 L58.23858812440562,-33.83641076556488 " />
			<path d="M58.23858812440562,-33.83641076556488 L54.659230655598314,-38.89769792292552 " />
			<path d="M54.65923065559831,-38.89769792292552 L58.25499640785975,-38.21630098654932 " />
			<path d="M58.25499640785976,-38.21630098654932 L58.25499640785976,-38.85466586745563 " />
			<path d="M58.25499640785976,-38.85466586745564 L55.73057932608125,-39.33304243149566 " />
			<path d="M55.73057932608125,-39.33304243149566 L53.69873143099124,-39.71807722694251 " />
			<path d="M53.69873143099123,-39.71807722694251 L53.69873143099123,-39.0797123460362 " />
			<path d="M53.69873143099123,-39.079712346036196 L57.29449718325267,-33.99975583645051 " />
			<path d="M57.29449718325267,-33.99975583645051 L53.92860774088133,-34.63759125517054 " />
			<path d="M53.92860774088133,-34.63759125517055 L53.92860774088133,-33.99920103226817 " />

        </g>
        </g>
    </svg>
    