<?xml version="1.0" encoding="UTF-8" standalone="no"?>
    <svg
    xmlns:svg="http://www.w3.org/2000/svg"
    xmlns="http://www.w3.org/2000/svg"
    width="2161"
    height="1617"
    >
        <g transform="scale(5, -5)   translate(216.04532973510447,-161.67211890141658)" stroke-width="0.2"  fill="none">
        <!-- hidden lines -->
        <g  stroke="rgb(160,160,160)" fill="none" stroke-dasharray="0.2,0.2" >
    			<path d="M212.21865931290478,-3.5887615838436604 L0.2166619722503924,150.80994883967577 " />
			<path d="M0.21666197225040662,150.80994883967577 L0.21666197225040662,157.67211890141658 " />
			<path d="M0.21666197225040662,150.80994883967577 L-212.04532973510447,-3.399642492794726 " />
			<path d="M122.37581583757091,-51.383018148416745 L122.2962725926678,-51.4387179752549 L122.2139654688977,-51.492250984485764 L122.12900595340321,-51.54354466425421 L122.04150912606056,-51.59252953593522 L121.95159350360103,-51.63913924824442 L121.8593808790768,-51.68331066711267 L121.76499615688918,-51.72498396120281 L121.66856718360239,-51.764102682952725 L121.57022457477193,-51.80061384503509 L121.4701015380225,-51.834467992130016 L121.36833369261481,-51.865619267913644 L121.2650588857457,-51.89402547717168 L121.16041700583055,-51.919648142953925 L121.05454979302081,-51.94245255869231 L120.94760064721324,-51.96240783521184 L120.839714433811,-51.97948694257081 L120.73103728749973,-51.993666746673505 L120.62171641430427,-52.004928040606 L120.51189989219432,-52.01325557065241 L120.40173647050894,-52.01863805695641 L120.29137536847166,-52.02106820880014 L120.18096607306923,-52.020542734479626 L120.07065813656756,-52.01706234576353 L119.9606009739393,-52.010631756929 L119.85094366047733,-52.00125967837608 L119.74183472986843,-51.98895880482924 L119.63342197300057,-51.97374579814204 L119.52585223777618,-51.955641264728214 L119.41927123020297,-51.93466972764975 L119.3138233170313,-51.910859593399756 L119.20965133020563,-51.88424311342516 L119.10689637339497,-51.85485634044121 L119.00569763086428,-51.82273907959722 L118.90619217894574,-51.7879348345594 L118.8085148003653,-51.75049074858403 L118.71279780167596,-51.710457540660684 L118.61917083404514,-51.66788943681204 L118.5277607176387,-51.62284409664333 L118.43869126983984,-51.57538253524087 L118.35208313753515,-51.52556904052559 L118.2680536336953,-51.473471086173326 L118.18671657847153,-51.41915924021998 L118.10818214502335,-51.3627070694753 L118.03255671028604,-51.30419103987469 L117.95994271088041,-51.24369041290411 L117.89043850435966,-51.18128713823836 L117.82413823598156,-51.117065742738085 L117.76113171118624,-51.05111321595596 L117.70150427395234,-50.983518892307025 L117.6453366911964,-50.914374330062984 L117.592705043372,-50.84377318733405 L117.54368062141678,-50.77181109520666 L117.49832983018693,-50.698585528208625 L117.45671409851023,-50.6241956722774 L117.41888979597898,-50.54874229041011 L117.384908156596,-50.47232758617746 L117.35481520937675,-50.39505506528632 L117.32865171600197,-50.317029395378576 L117.30645311560475,-50.238356264256076 L117.28824947676745,-50.15914223672373 L117.27406545679291,-50.07949461024472 L117.26392026830558,-49.99952126960332 L117.25782765322747,-49.91933054077209 L117.25579586416437,-49.839031044181574 " />
			<path d="M117.25579586416437,-49.83903104418155 L117.25940949554885,-49.73195602459803 L117.27024168414778,-49.625138958115336 L117.28826633427002,-49.51883717640272 L117.31344002295468,-49.413306769763246 L117.34570210458074,-49.30880197018989 L117.38497485696774,-49.20557453889837 L117.43116366861531,-49.1038731598123 L117.4841572666305,-49.00394284046192 L117.54382798479404,-48.90602432173937 L117.6100320711193,-48.81035349793293 L117.68261003416356,-48.71716084843691 L117.76138702725673,-48.626670882506666 L117.84617326972243,-48.5391015983961 L117.93676450407615,-48.45466395818081 L118.0329424880995,-48.37356137953193 L118.13447552060472,-48.29598924566517 L118.24111899962331,-48.22213443464554 L118.35261601167343,-48.15217486918169 L118.46869795068707,-48.086279087994576 L118.58908516510556,-48.024605839792855 L118.7134876315847,-47.96730370083338 L118.84160565368637,-47.914510716987984 L118.97313058387353,-47.86635407117887 L119.1077455670691,-47.82294977698381 L119.2451263039877,-47.7844023991493 L119.38494183240098,-47.750804801684886 L119.52685532445457,-47.72223792414566 L119.67052489811599,-47.698770586641785 L119.81560444079828,-47.6804593240448 L119.96174444317569,-47.667348249790166 L120.10859284118212,-47.659468949604175 L120.25579586416437,-47.65684040541112 L120.40299888714662,-47.659468949604175 L120.54984728515305,-47.667348249790166 L120.69598728753046,-47.6804593240448 L120.84106683021275,-47.698770586641785 L120.98473640387417,-47.72223792414566 L121.12664989592776,-47.750804801684886 L121.26646542434104,-47.7844023991493 L121.40384616125964,-47.82294977698381 L121.53846114445521,-47.86635407117887 L121.66998607464237,-47.914510716987984 L121.79810409674404,-47.96730370083338 L121.92250656322318,-48.024605839792855 L122.04289377764167,-48.086279087994576 L122.1589757166553,-48.15217486918169 L122.27047272870543,-48.22213443464554 L122.37711620772401,-48.29598924566517 L122.47864924022925,-48.37356137953193 L122.57482722425259,-48.45466395818081 L122.66541845860631,-48.5391015983961 L122.75020470107201,-48.626670882506666 L122.82898169416518,-48.71716084843691 L122.90155965720943,-48.81035349793293 L122.9677637435347,-48.90602432173937 L123.02743446169823,-49.00394284046191 L123.08042805971343,-49.1038731598123 L123.126616871361,-49.20557453889837 L123.165889623748,-49.30880197018989 L123.19815170537406,-49.413306769763246 L123.22332539405872,-49.51883717640272 L123.24135004418096,-49.625138958115336 L123.25218223277989,-49.73195602459803 L123.25579586416437,-49.839031044181546 " />
			<path d="M123.25579586416437,-49.83903104418155 L123.25217659259006,-49.94618954263627 L123.2413275106183,-50.05308948395272 L123.22327479543173,-50.15947293485163 L123.198062005483,-50.26508320826646 L123.16574997539469,-50.3696654826902 L123.12641666917486,-50.47296741702084 L123.08015699210158,-50.57473975942206 L123.027082561731,-50.67473694872992 L122.96732143858128,-50.77271770695457 L122.90101781714189,-50.86844562144731 L122.8283316779544,-50.961689715328255 L122.74943840160377,-51.05222500479845 L122.66452834555163,-51.139833041991466 L122.57380638483285,-51.22430244205483 L122.47749141772313,-51.30542939318951 L122.37581583757093,-51.38301814841674 " />
			<path d="M94.07421694325693,-71.94429699274615 L93.99467369835382,-71.9999968195843 L93.91236657458371,-72.05352982881516 L93.82740705908923,-72.1048235085836 L93.73991023174658,-72.1538083802646 L93.64999460928703,-72.20041809257381 L93.55778198476281,-72.24458951144206 L93.4633972625752,-72.2862628055322 L93.36696828928841,-72.32538152728212 L93.26862568045794,-72.36189268936448 L93.16850264370852,-72.39574683645941 L93.06673479830083,-72.42689811224304 L92.96345999143172,-72.45530432150107 L92.85881811151657,-72.48092698728331 L92.75295089870683,-72.5037314030217 L92.64600175289925,-72.52368667954124 L92.53811553949701,-72.5407657869002 L92.42943839318575,-72.55494559100289 L92.32011751999029,-72.5662068849354 L92.21030099788034,-72.57453441498181 L92.10013757619495,-72.57991690128581 L91.98977647415768,-72.58234705312952 L91.87936717875525,-72.58182157880901 L91.76905924225358,-72.57834119009293 L91.65900207962531,-72.5719106012584 L91.54934476616334,-72.56253852270548 L91.44023583555445,-72.55023764915863 L91.33182307868658,-72.53502464247143 L91.2242533434622,-72.51692010905761 L91.11767233588898,-72.49594857197914 L91.01222442271731,-72.47213843772916 L90.90805243589165,-72.44552195775455 L90.80529747908099,-72.4161351847706 L90.70409873655029,-72.3840179239266 L90.60459328463176,-72.34921367888879 L90.50691590605132,-72.31176959291342 L90.41119890736198,-72.27173638499008 L90.31757193973115,-72.22916828114144 L90.22616182332472,-72.18412294097271 L90.13709237552585,-72.13666137957026 L90.05048424322116,-72.08684788485498 L89.96645473938132,-72.03474993050271 L89.88511768415755,-71.98043808454938 L89.80658325070937,-71.9239859138047 L89.73095781597206,-71.86546988420407 L89.65834381656643,-71.8049692572335 L89.58883961004568,-71.74256598256775 L89.52253934166758,-71.67834458706749 L89.45953281687225,-71.61239206028534 L89.39990537963835,-71.54479773663643 L89.34373779688242,-71.47565317439238 L89.29110614905802,-71.40505203166344 L89.2420817271028,-71.33308993953605 L89.19673093587295,-71.25986437253802 L89.15511520419625,-71.1854745166068 L89.117290901665,-71.11002113473951 L89.08330926228201,-71.03360643050685 L89.05321631506277,-70.95633390961571 L89.02705282168799,-70.87830823970798 L89.00485422129077,-70.79963510858548 L88.98665058245346,-70.72042108105312 L88.97246656247893,-70.64077345457412 L88.9623213739916,-70.56080011393271 L88.95622875891348,-70.48060938510147 L88.95419696985039,-70.40030988851096 " />
			<path d="M88.95419696985039,-70.40030988851095 L88.95781060123487,-70.29323486892741 L88.9686427898338,-70.18641780244474 L88.98666743995604,-70.0801160207321 L89.0118411286407,-69.97458561409265 L89.04410321026675,-69.87008081451928 L89.08337596265376,-69.76685338322775 L89.12956477430133,-69.6651520041417 L89.18255837231652,-69.56522168479131 L89.24222909048005,-69.46730316606876 L89.30843317680532,-69.37163234226232 L89.38101113984958,-69.2784396927663 L89.45978813294275,-69.18794972683605 L89.54457437540844,-69.1003804427255 L89.63516560976217,-69.01594280251021 L89.73134359378551,-68.93484022386133 L89.83287662629074,-68.85726808999456 L89.93952010530933,-68.78341327897493 L90.05101711735945,-68.71345371351109 L90.16709905637309,-68.64755793232398 L90.28748627079158,-68.58588468412225 L90.41188873727071,-68.52858254516278 L90.54000675937239,-68.47578956131737 L90.67153168955954,-68.42763291550827 L90.80614667275512,-68.38422862131321 L90.94352740967372,-68.3456812434787 L91.083342938087,-68.31208364601429 L91.22525643014059,-68.28351676847505 L91.368926003802,-68.26004943097118 L91.5140055464843,-68.24173816837418 L91.6601455488617,-68.22862709411956 L91.80699394686813,-68.22074779393357 L91.95419696985039,-68.21811924974051 L92.10139999283264,-68.22074779393357 L92.24824839083907,-68.22862709411956 L92.39438839321647,-68.24173816837418 L92.53946793589877,-68.26004943097118 L92.68313750956018,-68.28351676847505 L92.82505100161377,-68.31208364601429 L92.96486653002705,-68.3456812434787 L93.10224726694565,-68.38422862131321 L93.23686225014123,-68.42763291550827 L93.36838718032838,-68.47578956131737 L93.49650520243006,-68.52858254516278 L93.6209076689092,-68.58588468412225 L93.74129488332768,-68.64755793232398 L93.85737682234132,-68.71345371351109 L93.96887383439145,-68.78341327897493 L94.07551731341003,-68.85726808999456 L94.17705034591526,-68.93484022386133 L94.2732283299386,-69.01594280251021 L94.36381956429233,-69.1003804427255 L94.44860580675802,-69.18794972683605 L94.5273827998512,-69.2784396927663 L94.59996076289545,-69.37163234226232 L94.66616484922072,-69.46730316606876 L94.72583556738425,-69.56522168479131 L94.77882916539944,-69.6651520041417 L94.82501797704701,-69.76685338322775 L94.86429072943402,-69.87008081451928 L94.89655281106008,-69.97458561409265 L94.92172649974472,-70.0801160207321 L94.93975114986698,-70.18641780244474 L94.9505833384659,-70.29323486892741 L94.95419696985039,-70.40030988851093 " />
			<path d="M94.95419696985039,-70.40030988851095 L94.95057769827608,-70.50746838696566 L94.93972861630432,-70.61436832828211 L94.92167590111775,-70.72075177918103 L94.89646311116901,-70.82636205259585 L94.8641510810807,-70.93094432701959 L94.82481777486088,-71.03424626135023 L94.7785580977876,-71.13601860375145 L94.72548366741702,-71.23601579305931 L94.6657225442673,-71.33399655128397 L94.59941892282791,-71.4297244657767 L94.52673278364041,-71.52296855965766 L94.44783950728979,-71.61350384912785 L94.36292945123765,-71.70111188632086 L94.27220749051887,-71.78558128638423 L94.17589252340915,-71.8667082375189 L94.07421694325694,-71.94429699274613 " />
			<path d="M65.77261804894295,-92.50557583707554 L65.69307480403984,-92.56127566391369 L65.61076768026973,-92.61480867314455 L65.52580816477524,-92.666102352913 L65.4383113374326,-92.715087224594 L65.34839571497307,-92.7616969369032 L65.25618309044883,-92.80586835577145 L65.16179836826122,-92.8475416498616 L65.06536939497443,-92.88666037161151 L64.96702678614396,-92.92317153369387 L64.86690374939454,-92.9570256807888 L64.76513590398685,-92.98817695657243 L64.66186109711774,-93.01658316583047 L64.55721921720259,-93.0422058316127 L64.45135200439285,-93.0650102473511 L64.34440285858527,-93.08496552387064 L64.23651664518303,-93.10204463122959 L64.12783949887177,-93.11622443533228 L64.01851862567631,-93.12748572926479 L63.90870210356636,-93.1358132593112 L63.79853868188097,-93.1411957456152 L63.688177579843696,-93.14362589745892 L63.57776828444127,-93.1431004231384 L63.4674603479396,-93.13962003442232 L63.357403185311334,-93.13318944558779 L63.24774587184936,-93.12381736703487 L63.13863694124047,-93.11151649348803 L63.03022418437259,-93.09630348680082 L62.922654449148204,-93.078198953387 L62.816073441575,-93.05722741630854 L62.71062552840333,-93.03341728205855 L62.60645354157766,-93.00680080208394 L62.503698584767,-92.97741402909999 L62.40249984223632,-92.945296768256 L62.30299439031777,-92.91049252321818 L62.205317011737336,-92.87304843724282 L62.109600013048,-92.83301522931947 L62.01597304541717,-92.79044712547083 L61.92456292901073,-92.7454017853021 L61.83549348121187,-92.69794022389965 L61.74888534890719,-92.64812672918437 L61.664855845067336,-92.5960287748321 L61.58351878984357,-92.54171692887877 L61.50498435639538,-92.4852647581341 L61.42935892165808,-92.42674872853347 L61.356744922252446,-92.36624810156289 L61.2872407157317,-92.30384482689715 L61.2209404473536,-92.23962343139688 L61.15793392255827,-92.17367090461474 L61.098306485324365,-92.10607658096582 L61.04213890256844,-92.03693201872177 L60.98950725474405,-91.96633087599284 L60.94048283278881,-91.89436878386545 L60.895132041558966,-91.82114321686741 L60.85351630988227,-91.7467533609362 L60.81569200735102,-91.6712999790689 L60.78171036796803,-91.59488527483624 L60.751617420748794,-91.5176127539451 L60.725453927374005,-91.43958708403737 L60.70325532697679,-91.36091395291487 L60.685051688139474,-91.28169992538251 L60.67086766816494,-91.20205229890351 L60.66072247967761,-91.12207895826211 L60.65462986459951,-91.04188822943087 L60.6525980755364,-90.96158873284035 " />
			<path d="M60.6525980755364,-90.96158873284034 L60.656211706920885,-90.85451371325681 L60.66704389551981,-90.74769664677413 L60.68506854564206,-90.6413948650615 L60.710242234326714,-90.53586445842204 L60.74250431595277,-90.43135965884868 L60.78177706833978,-90.32813222755715 L60.82796587998734,-90.2264308484711 L60.880959478002545,-90.1265005291207 L60.940630196166076,-90.02858201039815 L61.00683428249134,-89.93291118659171 L61.079412245535586,-89.83971853709569 L61.158189238628765,-89.74922857116545 L61.24297548109447,-89.66165928705489 L61.33356671544819,-89.5772216468396 L61.42974469947153,-89.49611906819072 L61.53127773197676,-89.41854693432396 L61.63792121099535,-89.34469212330433 L61.74941822304547,-89.27473255784048 L61.8655001620591,-89.20883677665337 L61.9858873764776,-89.14716352845164 L62.11028984295674,-89.08986138949217 L62.23840786505841,-89.03706840564676 L62.36993279524555,-88.98891175983766 L62.504547778441136,-88.9455074656426 L62.641928515359744,-88.90696008780809 L62.78174404377302,-88.87336249034368 L62.923657535826614,-88.84479561280445 L63.06732710948802,-88.82132827530057 L63.212406652170316,-88.80301701270358 L63.35854665454772,-88.78990593844895 L63.50539505255415,-88.78202663826296 L63.6525980755364,-88.7793980940699 L63.79980109851866,-88.78202663826296 L63.94664949652508,-88.78990593844895 L64.09278949890249,-88.80301701270358 L64.23786904158479,-88.82132827530057 L64.3815386152462,-88.84479561280445 L64.52345210729979,-88.87336249034368 L64.66326763571307,-88.90696008780809 L64.80064837263167,-88.9455074656426 L64.93526335582725,-88.98891175983766 L65.0667882860144,-89.03706840564676 L65.19490630811607,-89.08986138949217 L65.31930877459521,-89.14716352845164 L65.4396959890137,-89.20883677665337 L65.55577792802734,-89.27473255784048 L65.66727494007746,-89.34469212330433 L65.77391841909605,-89.41854693432396 L65.87545145160128,-89.49611906819072 L65.97162943562462,-89.5772216468396 L66.06222066997834,-89.66165928705489 L66.14700691244404,-89.74922857116545 L66.22578390553721,-89.83971853709569 L66.29836186858147,-89.93291118659171 L66.36456595490674,-90.02858201039815 L66.42423667307027,-90.1265005291207 L66.47723027108546,-90.2264308484711 L66.52341908273303,-90.32813222755715 L66.56269183512003,-90.43135965884868 L66.59495391674609,-90.53586445842204 L66.62012760543075,-90.6413948650615 L66.638152255553,-90.74769664677413 L66.64898444415192,-90.85451371325681 L66.6525980755364,-90.96158873284033 " />
			<path d="M66.6525980755364,-90.96158873284034 L66.6489788039621,-91.06874723129505 L66.63812972199034,-91.1756471726115 L66.62007700680377,-91.28203062351042 L66.59486421685503,-91.38764089692525 L66.56255218676672,-91.49222317134898 L66.52321888054689,-91.59552510567963 L66.47695920347361,-91.69729744808085 L66.42388477310304,-91.7972946373887 L66.36412364995331,-91.89527539561337 L66.29782002851393,-91.9910033101061 L66.22513388932643,-92.08424740398705 L66.1462406129758,-92.17478269345725 L66.06133055692366,-92.26239073065025 L65.97060859620488,-92.34686013071362 L65.87429362909516,-92.4279870818483 L65.77261804894296,-92.50557583707553 " />
			<path d="M117.25579586416437,-42.97686098244074 L117.25579586416437,-49.839031044181546 " />
			<path d="M123.25579586416438,-42.97686098244074 L123.25579586416438,-49.839031044181546 " />
			<path d="M88.9541969698504,-63.53813982677015 L88.9541969698504,-70.40030988851096 " />
			<path d="M94.9541969698504,-63.53813982677015 L94.9541969698504,-70.40030988851096 " />
			<path d="M60.65259807553642,-84.09941867109954 L60.65259807553642,-90.96158873284035 " />
			<path d="M66.65259807553643,-84.09941867109954 L66.65259807553643,-90.96158873284035 " />

        </g>

        <!-- solid lines -->
        <g  stroke="rgb(0,0,0)" fill="none">
    			<path d="M212.21865931290478,-3.5887615838436604 L212.21865931290478,3.2734084778971466 " />
			<path d="M212.21865931290478,3.2734084778971466 L-0.04333239445008985,-150.93618285457336 " />
			<path d="M-0.04333239445007564,-157.79835291631417 L-0.04333239445007564,-150.93618285457336 " />
			<path d="M212.21865931290478,-3.5887615838436604 L-0.04333239445008985,-157.79835291631414 " />
			<path d="M212.21865931290478,3.2734084778971466 L0.2166619722503924,157.67211890141655 " />
			<path d="M-0.04333239445007564,-150.93618285457336 L-212.04532973510447,3.462527568946058 " />
			<path d="M0.21666197225040662,157.67211890141658 L-212.04532973510447,3.4625275689460864 " />
			<path d="M122.37581583757091,-44.52084808667593 L122.2962725926678,-44.57654791351409 L122.2139654688977,-44.63008092274495 L122.12900595340321,-44.6813746025134 L122.04150912606056,-44.73035947419441 L121.95159350360103,-44.77696918650361 L121.8593808790768,-44.82114060537186 L121.76499615688918,-44.862813899462 L121.66856718360239,-44.90193262121191 L121.57022457477193,-44.938443783294275 L121.4701015380225,-44.9722979303892 L121.36833369261481,-45.00344920617283 L121.2650588857457,-45.03185541543087 L121.16041700583055,-45.05747808121311 L121.05454979302081,-45.0802824969515 L120.94760064721324,-45.10023777347103 L120.839714433811,-45.117316880829996 L120.73103728749973,-45.13149668493269 L120.62171641430427,-45.14275797886519 L120.51189989219432,-45.1510855089116 L120.40173647050894,-45.1564679952156 L120.29137536847166,-45.158898147059325 L120.18096607306923,-45.158372672738814 L120.07065813656756,-45.154892284022715 L119.9606009739393,-45.14846169518819 L119.85094366047733,-45.13908961663527 L119.74183472986843,-45.126788743088426 L119.63342197300057,-45.11157573640123 L119.52585223777618,-45.0934712029874 L119.41927123020297,-45.072499665908936 L119.3138233170313,-45.048689531658944 L119.20965133020563,-45.022073051684345 L119.10689637339497,-44.9926862787004 L119.00569763086428,-44.96056901785641 L118.90619217894574,-44.92576477281859 L118.8085148003653,-44.888320686843215 L118.71279780167596,-44.84828747891987 L118.61917083404514,-44.80571937507123 L118.5277607176387,-44.760674034902515 L118.43869126983984,-44.71321247350006 L118.35208313753515,-44.66339897878478 L118.2680536336953,-44.611301024432514 L118.18671657847153,-44.55698917847917 L118.10818214502335,-44.500537007734486 L118.03255671028604,-44.442020978133876 L117.95994271088041,-44.381520351163296 L117.89043850435966,-44.31911707649755 L117.82413823598156,-44.25489568099727 L117.76113171118624,-44.188943154215146 L117.70150427395234,-44.12134883056621 L117.6453366911964,-44.05220426832217 L117.592705043372,-43.98160312559324 L117.54368062141678,-43.909641033465846 L117.49832983018693,-43.83641546646781 L117.45671409851023,-43.76202561053659 L117.41888979597898,-43.6865722286693 L117.384908156596,-43.610157524436644 L117.35481520937675,-43.53288500354551 L117.32865171600197,-43.45485933363776 L117.30645311560475,-43.376186202515264 L117.28824947676745,-43.29697217498292 L117.27406545679291,-43.21732454850391 L117.26392026830558,-43.13735120786251 L117.25782765322747,-43.057160479031275 L117.25579586416437,-42.97686098244076 " />
			<path d="M117.25579586416437,-42.97686098244074 L117.25940949554885,-42.869785962857215 L117.27024168414778,-42.762968896374524 L117.28826633427002,-42.65666711466191 L117.31344002295468,-42.55113670802243 L117.34570210458074,-42.44663190844908 L117.38497485696774,-42.343404477157556 L117.43116366861531,-42.24170309807149 L117.4841572666305,-42.141772778721105 L117.54382798479404,-42.04385425999856 L117.6100320711193,-41.94818343619212 L117.68261003416356,-41.8549907866961 L117.76138702725673,-41.76450082076585 L117.84617326972243,-41.67693153665529 L117.93676450407615,-41.59249389644 L118.0329424880995,-41.511391317791116 L118.13447552060472,-41.433819183924356 L118.24111899962331,-41.35996437290473 L118.35261601167343,-41.29000480744088 L118.46869795068707,-41.224109026253764 L118.58908516510556,-41.16243577805204 L118.7134876315847,-41.105133639092564 L118.84160565368637,-41.05234065524717 L118.97313058387353,-41.004184009438056 L119.1077455670691,-40.960779715243 L119.2451263039877,-40.92223233740849 L119.38494183240098,-40.888634739944074 L119.52685532445457,-40.86006786240485 L119.67052489811599,-40.83660052490097 L119.81560444079828,-40.818289262303985 L119.96174444317569,-40.805178188049354 L120.10859284118212,-40.79729888786336 L120.25579586416437,-40.794670343670305 L120.40299888714662,-40.79729888786336 L120.54984728515305,-40.805178188049354 L120.69598728753046,-40.818289262303985 L120.84106683021275,-40.83660052490097 L120.98473640387417,-40.86006786240485 L121.12664989592776,-40.888634739944074 L121.26646542434104,-40.92223233740849 L121.40384616125964,-40.960779715243 L121.53846114445521,-41.004184009438056 L121.66998607464237,-41.05234065524717 L121.79810409674404,-41.105133639092564 L121.92250656322318,-41.16243577805204 L122.04289377764167,-41.224109026253764 L122.1589757166553,-41.29000480744088 L122.27047272870543,-41.35996437290473 L122.37711620772401,-41.433819183924356 L122.47864924022925,-41.511391317791116 L122.57482722425259,-41.59249389644 L122.66541845860631,-41.67693153665529 L122.75020470107201,-41.76450082076585 L122.82898169416518,-41.8549907866961 L122.90155965720943,-41.94818343619212 L122.9677637435347,-42.04385425999856 L123.02743446169823,-42.1417727787211 L123.08042805971343,-42.24170309807149 L123.126616871361,-42.343404477157556 L123.165889623748,-42.44663190844908 L123.19815170537406,-42.55113670802243 L123.22332539405872,-42.65666711466191 L123.24135004418096,-42.762968896374524 L123.25218223277989,-42.869785962857215 L123.25579586416437,-42.97686098244073 " />
			<path d="M123.25579586416437,-42.97686098244074 L123.25217659259006,-43.084019480895456 L123.2413275106183,-43.190919422211905 L123.22327479543173,-43.297302873110816 L123.198062005483,-43.40291314652565 L123.16574997539469,-43.50749542094939 L123.12641666917486,-43.61079735528003 L123.08015699210158,-43.712569697681246 L123.027082561731,-43.81256688698911 L122.96732143858128,-43.91054764521376 L122.90101781714189,-44.006275559706495 L122.8283316779544,-44.09951965358744 L122.74943840160377,-44.19005494305764 L122.66452834555163,-44.27766298025065 L122.57380638483285,-44.362132380314016 L122.47749141772313,-44.4432593314487 L122.37581583757093,-44.520848086675926 " />
			<path d="M94.07421694325693,-65.08212693100533 L93.99467369835382,-65.13782675784348 L93.91236657458371,-65.19135976707435 L93.82740705908923,-65.2426534468428 L93.73991023174658,-65.2916383185238 L93.64999460928703,-65.338248030833 L93.55778198476281,-65.38241944970125 L93.4633972625752,-65.42409274379139 L93.36696828928841,-65.4632114655413 L93.26862568045794,-65.49972262762367 L93.16850264370852,-65.5335767747186 L93.06673479830083,-65.56472805050223 L92.96345999143172,-65.59313425976026 L92.85881811151657,-65.6187569255425 L92.75295089870683,-65.64156134128089 L92.64600175289925,-65.66151661780043 L92.53811553949701,-65.67859572515938 L92.42943839318575,-65.69277552926208 L92.32011751999029,-65.70403682319458 L92.21030099788034,-65.712364353241 L92.10013757619495,-65.717746839545 L91.98977647415768,-65.72017699138871 L91.87936717875525,-65.7196515170682 L91.76905924225358,-65.71617112835212 L91.65900207962531,-65.70974053951758 L91.54934476616334,-65.70036846096467 L91.44023583555445,-65.68806758741782 L91.33182307868658,-65.67285458073061 L91.2242533434622,-65.6547500473168 L91.11767233588898,-65.63377851023833 L91.01222442271731,-65.60996837598834 L90.90805243589165,-65.58335189601374 L90.80529747908099,-65.55396512302978 L90.70409873655029,-65.5218478621858 L90.60459328463176,-65.48704361714798 L90.50691590605132,-65.44959953117261 L90.41119890736198,-65.40956632324927 L90.31757193973115,-65.36699821940063 L90.22616182332472,-65.3219528792319 L90.13709237552585,-65.27449131782944 L90.05048424322116,-65.22467782311416 L89.96645473938132,-65.1725798687619 L89.88511768415755,-65.11826802280856 L89.80658325070937,-65.06181585206389 L89.73095781597206,-65.00329982246326 L89.65834381656643,-64.94279919549268 L89.58883961004568,-64.88039592082694 L89.52253934166758,-64.81617452532667 L89.45953281687225,-64.75022199854453 L89.39990537963835,-64.68262767489561 L89.34373779688242,-64.61348311265156 L89.29110614905802,-64.54288196992263 L89.2420817271028,-64.47091987779524 L89.19673093587295,-64.3976943107972 L89.15511520419625,-64.32330445486599 L89.117290901665,-64.2478510729987 L89.08330926228201,-64.17143636876604 L89.05321631506277,-64.0941638478749 L89.02705282168799,-64.01613817796716 L89.00485422129077,-63.93746504684466 L88.98665058245346,-63.85825101931231 L88.97246656247893,-63.778603392833304 L88.9623213739916,-63.6986300521919 L88.95622875891348,-63.61843932336067 L88.95419696985039,-63.538139826770156 " />
			<path d="M88.95419696985039,-63.538139826770134 L88.95781060123487,-63.43106480718661 L88.9686427898338,-63.32424774070392 L88.98666743995604,-63.2179459589913 L89.0118411286407,-63.11241555235183 L89.04410321026675,-63.00791075277847 L89.08337596265376,-62.90468332148695 L89.12956477430133,-62.80298194240088 L89.18255837231652,-62.7030516230505 L89.24222909048005,-62.605133104327955 L89.30843317680532,-62.50946228052151 L89.38101113984958,-62.41626963102549 L89.45978813294275,-62.32577966509525 L89.54457437540844,-62.23821038098468 L89.63516560976217,-62.15377274076939 L89.73134359378551,-62.07267016212051 L89.83287662629074,-61.99509802825375 L89.93952010530933,-61.92124321723412 L90.05101711735945,-61.851283651770274 L90.16709905637309,-61.78538787058316 L90.28748627079158,-61.723714622381436 L90.41188873727071,-61.66641248342196 L90.54000675937239,-61.613619499576565 L90.67153168955954,-61.56546285376745 L90.80614667275512,-61.52205855957239 L90.94352740967372,-61.48351118173788 L91.083342938087,-61.44991358427347 L91.22525643014059,-61.42134670673424 L91.368926003802,-61.39787936923037 L91.5140055464843,-61.37956810663338 L91.6601455488617,-61.36645703237875 L91.80699394686813,-61.35857773219276 L91.95419696985039,-61.3559491879997 L92.10139999283264,-61.35857773219276 L92.24824839083907,-61.36645703237875 L92.39438839321647,-61.37956810663338 L92.53946793589877,-61.39787936923037 L92.68313750956018,-61.42134670673424 L92.82505100161377,-61.44991358427347 L92.96486653002705,-61.48351118173788 L93.10224726694565,-61.52205855957239 L93.23686225014123,-61.56546285376745 L93.36838718032838,-61.613619499576565 L93.49650520243006,-61.66641248342196 L93.6209076689092,-61.723714622381436 L93.74129488332768,-61.78538787058316 L93.85737682234132,-61.851283651770274 L93.96887383439145,-61.92124321723412 L94.07551731341003,-61.99509802825375 L94.17705034591526,-62.07267016212051 L94.2732283299386,-62.15377274076939 L94.36381956429233,-62.23821038098468 L94.44860580675802,-62.32577966509525 L94.5273827998512,-62.41626963102549 L94.59996076289545,-62.50946228052151 L94.66616484922072,-62.605133104327955 L94.72583556738425,-62.70305162305049 L94.77882916539944,-62.80298194240088 L94.82501797704701,-62.90468332148695 L94.86429072943402,-63.00791075277847 L94.89655281106008,-63.11241555235183 L94.92172649974472,-63.2179459589913 L94.93975114986698,-63.32424774070392 L94.9505833384659,-63.43106480718661 L94.95419696985039,-63.53813982677013 " />
			<path d="M94.95419696985039,-63.538139826770134 L94.95057769827608,-63.64529832522485 L94.93972861630432,-63.7521982665413 L94.92167590111775,-63.85858171744021 L94.89646311116901,-63.96419199085504 L94.8641510810807,-64.06877426527878 L94.82481777486088,-64.17207619960942 L94.7785580977876,-64.27384854201064 L94.72548366741702,-64.3738457313185 L94.6657225442673,-64.47182648954316 L94.59941892282791,-64.56755440403589 L94.52673278364041,-64.66079849791684 L94.44783950728979,-64.75133378738704 L94.36292945123765,-64.83894182458005 L94.27220749051887,-64.92341122464342 L94.17589252340915,-65.0045381757781 L94.07421694325694,-65.08212693100532 " />
			<path d="M65.77261804894295,-85.64340577533473 L65.69307480403984,-85.69910560217288 L65.61076768026973,-85.75263861140374 L65.52580816477524,-85.80393229117219 L65.4383113374326,-85.85291716285319 L65.34839571497307,-85.8995268751624 L65.25618309044883,-85.94369829403064 L65.16179836826122,-85.98537158812078 L65.06536939497443,-86.0244903098707 L64.96702678614396,-86.06100147195306 L64.86690374939454,-86.09485561904799 L64.76513590398685,-86.12600689483162 L64.66186109711774,-86.15441310408966 L64.55721921720259,-86.18003576987189 L64.45135200439285,-86.20284018561028 L64.34440285858527,-86.22279546212982 L64.23651664518303,-86.23987456948878 L64.12783949887177,-86.25405437359147 L64.01851862567631,-86.26531566752398 L63.90870210356636,-86.2736431975704 L63.79853868188097,-86.2790256838744 L63.688177579843696,-86.2814558357181 L63.57776828444127,-86.2809303613976 L63.4674603479396,-86.27744997268151 L63.357403185311334,-86.27101938384698 L63.24774587184936,-86.26164730529406 L63.13863694124047,-86.24934643174721 L63.03022418437259,-86.23413342506001 L62.922654449148204,-86.21602889164619 L62.816073441575,-86.19505735456772 L62.71062552840333,-86.17124722031774 L62.60645354157766,-86.14463074034313 L62.503698584767,-86.11524396735918 L62.40249984223632,-86.08312670651519 L62.30299439031777,-86.04832246147737 L62.205317011737336,-86.010878375502 L62.109600013048,-85.97084516757866 L62.01597304541717,-85.92827706373002 L61.92456292901073,-85.8832317235613 L61.83549348121187,-85.83577016215884 L61.74888534890719,-85.78595666744356 L61.664855845067336,-85.7338587130913 L61.58351878984357,-85.67954686713796 L61.50498435639538,-85.62309469639328 L61.42935892165808,-85.56457866679266 L61.356744922252446,-85.50407803982208 L61.2872407157317,-85.44167476515634 L61.2209404473536,-85.37745336965607 L61.15793392255827,-85.31150084287393 L61.098306485324365,-85.243906519225 L61.04213890256844,-85.17476195698096 L60.98950725474405,-85.10416081425203 L60.94048283278881,-85.03219872212463 L60.895132041558966,-84.9589731551266 L60.85351630988227,-84.88458329919538 L60.81569200735102,-84.8091299173281 L60.78171036796803,-84.73271521309543 L60.751617420748794,-84.65544269220429 L60.725453927374005,-84.57741702229656 L60.70325532697679,-84.49874389117406 L60.685051688139474,-84.4195298636417 L60.67086766816494,-84.3398822371627 L60.66072247967761,-84.2599088965213 L60.65462986459951,-84.17971816769005 L60.6525980755364,-84.09941867109954 " />
			<path d="M60.6525980755364,-84.09941867109953 L60.656211706920885,-83.992343651516 L60.66704389551981,-83.88552658503332 L60.68506854564206,-83.77922480332069 L60.710242234326714,-83.67369439668123 L60.74250431595277,-83.56918959710787 L60.78177706833978,-83.46596216581634 L60.82796587998734,-83.36426078673028 L60.880959478002545,-83.26433046737989 L60.940630196166076,-83.16641194865734 L61.00683428249134,-83.0707411248509 L61.079412245535586,-82.97754847535488 L61.158189238628765,-82.88705850942463 L61.24297548109447,-82.79948922531408 L61.33356671544819,-82.71505158509879 L61.42974469947153,-82.63394900644991 L61.53127773197676,-82.55637687258314 L61.63792121099535,-82.48252206156351 L61.74941822304547,-82.41256249609967 L61.8655001620591,-82.34666671491256 L61.9858873764776,-82.28499346671083 L62.11028984295674,-82.22769132775136 L62.23840786505841,-82.17489834390595 L62.36993279524555,-82.12674169809685 L62.504547778441136,-82.0833374039018 L62.641928515359744,-82.04479002606728 L62.78174404377302,-82.01119242860287 L62.923657535826614,-81.98262555106363 L63.06732710948802,-81.95915821355976 L63.212406652170316,-81.94084695096277 L63.35854665454772,-81.92773587670814 L63.50539505255415,-81.91985657652215 L63.6525980755364,-81.91722803232909 L63.79980109851866,-81.91985657652215 L63.94664949652508,-81.92773587670814 L64.09278949890249,-81.94084695096277 L64.23786904158479,-81.95915821355976 L64.3815386152462,-81.98262555106363 L64.52345210729979,-82.01119242860287 L64.66326763571307,-82.04479002606728 L64.80064837263167,-82.0833374039018 L64.93526335582725,-82.12674169809685 L65.0667882860144,-82.17489834390595 L65.19490630811607,-82.22769132775136 L65.31930877459521,-82.28499346671083 L65.4396959890137,-82.34666671491256 L65.55577792802734,-82.41256249609967 L65.66727494007746,-82.48252206156351 L65.77391841909605,-82.55637687258314 L65.87545145160128,-82.63394900644991 L65.97162943562462,-82.71505158509879 L66.06222066997834,-82.79948922531408 L66.14700691244404,-82.88705850942463 L66.22578390553721,-82.97754847535488 L66.29836186858147,-83.0707411248509 L66.36456595490674,-83.16641194865734 L66.42423667307027,-83.26433046737989 L66.47723027108546,-83.36426078673028 L66.52341908273303,-83.46596216581634 L66.56269183512003,-83.56918959710787 L66.59495391674609,-83.67369439668123 L66.62012760543075,-83.77922480332069 L66.638152255553,-83.88552658503332 L66.64898444415192,-83.992343651516 L66.6525980755364,-84.09941867109951 " />
			<path d="M66.6525980755364,-84.09941867109953 L66.6489788039621,-84.20657716955424 L66.63812972199034,-84.31347711087069 L66.62007700680377,-84.41986056176961 L66.59486421685503,-84.52547083518444 L66.56255218676672,-84.63005310960817 L66.52321888054689,-84.73335504393881 L66.47695920347361,-84.83512738634003 L66.42388477310304,-84.93512457564789 L66.36412364995331,-85.03310533387256 L66.29782002851393,-85.12883324836528 L66.22513388932643,-85.22207734224624 L66.1462406129758,-85.31261263171643 L66.06133055692366,-85.40022066890944 L65.97060859620488,-85.48469006897281 L65.87429362909516,-85.56581702010749 L65.77261804894296,-85.64340577533471 " />
			<path d="M-0.04333239445007564,-157.79835291631417 L-212.04532973510447,-3.3996424927947544 " />
			<path d="M-212.04532973510442,-3.3996424927947375 L-212.04532973510442,3.4625275689460695 " />
			<path d="M106.08766345922734,-73.8313871883381 L131.0792776738557,-92.03250347282491 " />
			<path d="M106.08766345922734,-73.8313871883381 L81.06540010453398,-92.01020938397951 " />
			<path d="M106.08766345922734,-73.8313871883381 L106.08766345922734,-98.09956015303946 " />
			<path d="M131.0792776738557,-92.03250347282491 L131.0141938642207,-91.98686259289074 L130.94910715503934,-91.94466341856231 L130.8840176398454,-91.90579492707812 L130.81892541217266,-91.8701460956767 L130.75383056555484,-91.83760590159659 L130.6887331935257,-91.80806332207631 L130.623633389619,-91.78140733435437 L130.55853124736845,-91.7575269156693 L130.49342686030786,-91.73631104325963 L130.42832032197097,-91.7176486943639 L130.36321172589152,-91.70142884622061 L130.29810116560324,-91.68754047606829 L130.23298873463992,-91.67587256114548 L130.16787452653531,-91.66631407869069 L130.03764115303719,-91.6530813201393 L129.90740179337888,-91.64695401832229 L129.77715719583045,-91.64704399114788 L129.64690810866188,-91.65246305652428 L129.5166552801432,-91.66232303235968 L129.38639945854445,-91.67573573656229 L129.25614139213562,-91.69181298704028 L128.9956215179679,-91.72840839845529 " />
			<path d="M131.0792776738557,-92.03250347282491 L131.01661199066385,-91.98510580973992 L130.95867784496178,-91.9377102557759 L130.9053226065079,-91.89031674289666 L130.85639364506056,-91.84292520306605 L130.81173833037818,-91.79553556824791 L130.77120403221915,-91.7481477704061 L130.73463812034186,-91.70076174150444 L130.70188796450472,-91.65337741350677 L130.67280093446612,-91.60599471837695 L130.64722439998442,-91.55861358807879 L130.6250057308181,-91.51123395457616 L130.60599229672545,-91.46385574983287 L130.5900314674649,-91.41647890581278 L130.5769706127949,-91.36910335447973 L130.56665710247378,-91.32172902779756 L130.55893830625993,-91.2743558577301 L130.5536615939118,-91.2269837762412 L130.55067433518775,-91.1796127152947 L130.55095765764548,-91.08487338288424 L130.5585672317003,-90.99013731620946 L130.57228201541932,-90.89540397098106 L130.59088096686972,-90.80067280290979 L130.61314304411866,-90.70594326770635 L130.66377240828075,-90.51648691874585 " />
			<path d="M81.06540010453398,-92.01020938397951 L81.12814560319474,-91.96286762393916 L81.18615956436572,-91.91552375477787 L81.23959461828854,-91.86817784453177 L81.2886033952048,-91.82082996123704 L81.3333385253561,-91.77348017292984 L81.37395263898404,-91.72612854764633 L81.41059836633025,-91.67877515342265 L81.4434283376363,-91.63142005829498 L81.47259518314384,-91.58406333029947 L81.49825153309443,-91.53670503747229 L81.5205500177297,-91.4893452478496 L81.53964326729127,-91.44198402946755 L81.55568391202071,-91.3946214503623 L81.56882458215965,-91.34725757857002 L81.5792179079497,-91.29989248212685 L81.58701651963244,-91.25252622906898 L81.5923730474495,-91.20515888743255 L81.59544012164247,-91.15779052525372 L81.59531643012258,-91.0630510114135 L81.58786648700563,-90.96830823183763 L81.57431133422445,-90.87356273081534 L81.55587201371188,-90.77881505263595 L81.5337695674008,-90.68406574158873 L81.48345946511438,-90.49456439804788 " />
			<path d="M81.06540010453398,-92.01020938397951 L81.13056076773574,-91.96462656156838 L81.19571853139118,-91.92248544476298 L81.26087348903403,-91.88367501080182 L81.32602573419805,-91.84808423692346 L81.39117536041701,-91.81560210036638 L81.45632246122464,-91.78611757836912 L81.5214671301547,-91.75951964817021 L81.58660946074095,-91.73569728700818 L81.65174954651714,-91.71453947212156 L81.71688748101701,-91.69593518074885 L81.78202335777432,-91.6797733901286 L81.84715727032282,-91.66594307749932 L81.9122893121963,-91.65433322009955 L81.97741957692844,-91.64483279516779 L82.10767514910387,-91.63171615166246 L82.23792473511912,-91.62570496489153 L82.36816908324423,-91.62591105276319 L82.4984089417492,-91.63144623318566 L82.62864505890408,-91.64142232406712 L82.75887818297886,-91.6549511433158 L82.88910906224359,-91.67114450883986 L83.14956707942294,-91.70797215034699 " />
			<path d="M106.08766345922731,-98.09956015303949 L106.08645438462764,-98.03841283162733 L106.08287809259356,-97.98128118482815 L106.07701094497777,-97.92803567475121 L106.068929303633,-97.87854676350581 L106.05870953041197,-97.83268491320116 L106.0464279871674,-97.79032058594653 L106.03216103575204,-97.7513242438512 L106.01598503801858,-97.7155663490244 L105.99797635581977,-97.68291736357541 L105.97821135100831,-97.65324774961347 L105.95676638543694,-97.62642796924786 L105.93371782095838,-97.60232848458782 L105.90914201942535,-97.5808197577426 L105.88311534269057,-97.56177225082148 L105.85571415260678,-97.54505642593371 L105.82701481102667,-97.53054274518855 L105.79709367980301,-97.51810167069526 L105.76602712078848,-97.50760366456309 L105.70076316679778,-97.49191870581917 L105.63183384387635,-97.48245156583086 L105.55985004684598,-97.4781659414722 L105.48542267052846,-97.47802552961728 L105.4091626097456,-97.48099402714016 L105.2535880140709,-97.49211253781559 " />
			<path d="M106.08766345922737,-98.09956015303945 L106.08887253382704,-98.03665603194398 L106.09244882586113,-97.97432799055125 L106.09831597347691,-97.91255744564504 L106.10639761482169,-97.85132581400914 L106.11661738804273,-97.79061451242734 L106.12889893128728,-97.7304049576834 L106.1593418804361,-97.6114167558443 L106.19711556744637,-97.49421254276207 L106.24160909749631,-97.378643652707 L106.29221157576411,-97.26456141994932 L106.34831210742801,-97.15181717875929 L106.40929979766621,-97.0402622634072 L106.47456375165692,-96.92974800816329 L106.54349307457834,-96.82012574729781 L106.6154768716087,-96.71124681508104 L106.7661643087091,-96.49512427367465 L106.92173890438379,-96.28019105810617 " />
			<path d="M132.73530144632076,-96.55572570845008 L133.4190471124957,-93.82298954951224 " />
			<path d="M133.41904711249572,-93.82298954951222 L137.37057972270046,-93.29722982851266 " />
			<path d="M137.37057972270043,-93.29722982851267 L136.65207081402986,-92.77394773533368 " />
			<path d="M136.6520708140299,-92.77394773533368 L133.5070581898436,-93.25004749552696 " />
			<path d="M133.50705818984358,-93.25004749552694 L134.15917356670286,-90.95839823564118 " />
			<path d="M134.15917356670286,-90.9583982356412 L133.45315232984854,-90.4442107757619 " />
			<path d="M133.45315232984854,-90.4442107757619 L132.7255338856853,-93.31791153503899 " />
			<path d="M132.7255338856853,-93.31791153503897 L128.99280315003463,-93.83010558242688 " />
			<path d="M128.9928031500346,-93.8301055824269 L129.69882438688893,-94.34429304230619 " />
			<path d="M129.698824386889,-94.3442930423062 L132.65626197335834,-93.89540647556774 " />
			<path d="M132.6562619733583,-93.89540647556773 L132.04178821951035,-96.05064769397683 " />
			<path d="M132.04178821951035,-96.05064769397683 L132.73530144632073,-96.55572570845007 " />
			<path d="M74.64058924687957,-93.36477710929708 L79.12244776887125,-94.13530438345242 " />
			<path d="M79.12244776887125,-94.13530438345242 L80.90934411757164,-95.43668123537196 " />
			<path d="M80.90934411757164,-95.43668123537196 L81.49111988583627,-95.01401770173796 " />
			<path d="M81.49111988583627,-95.01401770173796 L79.70422353713589,-93.71264084981841 " />
			<path d="M79.70422353713589,-93.71264084981841 L78.69420405560791,-90.41980199601782 " />
			<path d="M78.69420405560791,-90.41980199601782 L77.97481398416048,-90.94244313414252 " />
			<path d="M77.97481398416048,-90.94244313414251 L78.85412458359865,-93.5303621506502 " />
			<path d="M78.85412458359866,-93.53036215065022 L75.33497334550837,-92.86030295819734 " />
			<path d="M75.33497334550835,-92.86030295819734 L74.64058924687957,-93.3647771092971 " />
			<path d="M107.46075201554812,-101.52488173159355 L104.17657995024462,-103.91085214477148 " />
			<path d="M104.17657995024462,-103.9108521447715 L104.17657995024462,-103.40121655613447 " />
			<path d="M104.17657995024462,-103.40121655613447 L106.90402294644223,-98.0039598136277 " />
			<path d="M106.90402294644224,-98.0039598136277 L104.1640769638353,-99.99454676163579 " />
			<path d="M104.1640769638353,-99.99454676163579 L104.1640769638353,-99.49705710932939 " />
			<path d="M104.1640769638353,-99.49705710932939 L106.08766345922736,-98.09956015303946 " />
			<path d="M106.08766345922736,-98.09956015303946 L107.635916004299,-96.97474552968414 " />
			<path d="M107.63591600429899,-96.97474552968414 L107.63591600429899,-97.47223518199054 " />
			<path d="M107.63591600429899,-97.47223518199054 L104.89597002169205,-102.89070160485043 " />
			<path d="M104.89597002169205,-102.89070160485043 L107.46075201554812,-101.02737232979719 " />
			<path d="M107.46075201554812,-101.02737232979719 L107.46075201554812,-101.52488173159355 " />

        </g>
        </g>
    </svg>
    