<?xml version="1.0" encoding="UTF-8"?>
<svg width="128" height="128" version="1.1" viewBox="0 0 128 128" xmlns="http://www.w3.org/2000/svg" xmlns:xlink="http://www.w3.org/1999/xlink"><defs><pattern id="a" xlink:href="#b" patternTransform="matrix(1.4142 1.4142 -1.4142 1.4142 36.269 377.61)" preserveAspectRatio="xMidYMid"/><pattern id="b" xlink:href="#c" patternTransform="matrix(.35355 .35355 -.35355 .35355 0 0)" preserveAspectRatio="xMidYMid"/><pattern id="c" width="2.5" height="1" fill="#b3d2e5" patternTransform="translate(0) scale(2)" patternUnits="userSpaceOnUse" preserveAspectRatio="xMidYMid"><rect y="-.5" width="1" height="2"/></pattern><linearGradient id="j" x1=".58611" x2="7.7051" y1="-48.683" y2="-48.683" gradientTransform="translate(42.47)" gradientUnits="userSpaceOnUse"><stop stop-color="#7e5e11" offset="0"/><stop stop-color="#dfaf2b" offset=".3"/><stop stop-color="#fbc600" offset=".5"/><stop stop-color="#e1af2a" offset=".7"/><stop stop-color="#7e5e10" offset="1"/></linearGradient><linearGradient id="i" x1="38.002" x2="38.933" y1="-46.19" y2="-46.19" gradientUnits="userSpaceOnUse"><stop stop-color="#75570f" offset="0"/><stop stop-color="#ac821a" offset="1"/></linearGradient><linearGradient id="h" x1="37.832" x2="40.378" y1="-41.174" y2="-41.174" gradientUnits="userSpaceOnUse"><stop stop-color="#ca9921" offset="0"/><stop stop-color="#f3b81c" offset="1"/></linearGradient><linearGradient id="g" x1="56.424" x2="57.352" y1="-44.623" y2="-44.623" gradientUnits="userSpaceOnUse"><stop stop-color="#a37b19" offset="0"/><stop stop-color="#75570f" offset="1"/></linearGradient><linearGradient id="f" x1="42.707" x2="46.172" y1="-40.721" y2="-40.721" gradientUnits="userSpaceOnUse"><stop stop-color="#fbc100" offset="0"/><stop stop-color="#ffcb31" offset="1"/></linearGradient><linearGradient id="e" x1="51.321" x2="53.855" y1="-42.302" y2="-42.302" gradientUnits="userSpaceOnUse"><stop stop-color="#f4b700" offset="0"/><stop stop-color="#c1911f" offset="1"/></linearGradient><linearGradient id="d" x1="47.64" x2="51.113" y1="-39.196" y2="-39.196" gradientUnits="userSpaceOnUse"><stop stop-color="#ffcb31" offset="0"/><stop stop-color="#fbc100" offset="1"/></linearGradient></defs><g transform="translate(-7.1167e-7 -448)"><g transform="translate(12.09 104.54)"><g stroke="#3776ab"><g transform="matrix(3.9421 0 0 3.9421 35.568 566.34)" stroke-linecap="round" stroke-miterlimit="20" stroke-width=".60882"><path d="m-8.538-52.986h25.367l1e-6 24.353-4.0588 4.0588-21.309-1e-6z" fill="#fff"/><path d="m12.771-24.574v-4.0588h4.0588" fill="#eaf2f8"/></g><path d="m40.026 432.62c2.2153 4.1066 8.1576 6.5029 14.168 5.7135m30.483-15.606c0.65929 1.7143 1.0581 3.4748 1.1894 5.2513l8.3644 4.1634c-0.44371 3.418-1.6798 6.7576-3.6571 9.88l-10.128 0.60249c-2.592 2.8844-5.9953 5.3437-9.9896 7.2184l-0.81666 7.3067c-4.3254 1.4317-8.9534 2.3294-13.691 2.6558l-5.7874-6.0257c-4.7591-0.17693-9.4136-1.0732-13.662-2.6306l-9.1812 3.1432c-3.8817-1.9858-7.2736-4.4283-10.034-7.2244l4.3412-6.628c-2.1674-3.0613-3.4184-6.4169-3.6722-9.8493l-8.3644-4.1634c0.44232-3.418 1.6799-6.7576 3.6573-9.88l5.8967-0.3492" fill="none" stroke-width="1.6"/><path d="m40.026 412.98c2.2153 4.1066 8.1576 6.5029 14.168 5.7135 15.853-4.4828-17.695-14.197-14.168-5.7135zm-30.437-6.1934c0.44232-3.418 1.6799-6.7576 3.6573-9.88l4.0381-0.24211c13.725-0.79385 22.3-26.279 32.342-15.717l3.3435 3.4808 31.708 18.657c0.65929 1.7143 1.0581 3.4748 1.1894 5.2512l8.3644 4.1634c-0.44371 3.418-1.6798 6.7576-3.6571 9.88l-10.128 0.60248c-2.592 2.8844-5.9953 5.3437-9.9896 7.2184l-0.81666 7.3067c-4.3254 1.4317-8.9534 2.3294-13.691 2.6558l-5.7874-6.0257c-4.7591-0.17693-9.4136-1.0732-13.662-2.6311l-9.1812 3.1433c-3.8817-1.9858-7.2736-4.4283-10.034-7.2245l4.3412-6.628c-2.1674-3.0613-3.4184-6.4169-3.6722-9.8493z" fill="url(#a)" stroke-width="1.6"/></g><g transform="matrix(3.9421 0 0 3.9421 -131.79 566.4)" stroke="#000"><path d="m48.901-46.384c-2.0387-1.4678-5.5201-0.42635-5.5201 1.6513 0 3.111 6.4696 3.111 6.4696 0 0-0.61955-0.34161-1.2137-0.94951-1.6513zm-10.899 1.9826-2.1218-1.0562c0.11253-0.86701 0.42613-1.7142 0.9277-2.5063l2.5693-0.15279c0.65748-0.7317 1.5208-1.3556 2.5341-1.8311l0.2072-1.8535c1.0972-0.36321 2.2713-0.59093 3.4731-0.67365l1.4681 1.5286c1.2073 0.04485 2.388 0.27223 3.4656 0.66739l2.329-0.79733c0.98471 0.5038 1.8451 1.1233 2.5454 1.8327l-1.1012 1.6814c0.54978 0.77655 0.86714 1.6278 0.93149 2.4985l2.1218 1.0562c-0.11253 0.86701-0.42613 1.7142-0.9277 2.5063l-2.5693 0.15279c-0.65748 0.7317-1.5208 1.3556-2.5341 1.8311l-0.2072 1.8535c-1.0972 0.36321-2.2713 0.59093-3.4731 0.67366l-1.4681-1.5286c-1.2073-0.04485-2.388-0.27223-3.4656-0.66738l-2.329 0.79733c-0.98471-0.5038-1.8451-1.1233-2.5454-1.8327l1.1012-1.6814c-0.54978-0.77655-0.86714-1.6278-0.93149-2.4985z" fill="none" stroke-opacity=".3" stroke-width="2.0294"/><g stroke-linejoin="round" stroke-width=".10147"><path d="m46.718-50.808c-1.6909-0.02982-3.3365 0.90886-3.3365 2.3373 0 0.89471 0.53558 1.5315 1.298 1.9116v-0.04284a3.2348 2.3333 0 0 1 3.8735 0v0.04284c0.76243-0.38008 1.298-1.0169 1.298-1.9116 0-0.61954-0.34152-1.2137-0.94942-1.6514-0.63708-0.4587-1.4151-0.67232-2.1837-0.68587z" fill="url(#j)"/><path d="m35.88-49.195v3.7377l2.1218 1.0562v-3.7377" fill="#f2b81c"/><path d="m55.215-48.962 0.18448-0.28167v-3.7377l-1.1012 1.6814" fill="#ad821a"/><path d="m38.002-48.139 1e-6 3.7377a8.6262 6.222 0 0 0 0.01475 0.16052l0.91674-1.3997" fill="url(#i)"/><path d="m37.832-43.959v3.7377c0.70023 0.70936 1.5606 1.3289 2.5454 1.8327l1e-6 -3.7377" fill="url(#h)"/><path d="m57.352-47.745v3.7377c-0.11253 0.867-0.42613 1.7142-0.9277 2.5063v-3.7377" fill="url(#g)"/><path d="m42.707-42.924v3.7377l-2.329 0.79733v-3.7377" fill="#fbc100"/><path d="m56.424-45.239v3.7377l-2.5693 0.15279v-3.7377" fill="#ffcb31"/><path d="m46.172-42.257v3.7377c-1.2073-0.04485-2.388-0.27223-3.4656-0.66738v-3.7377" fill="url(#f)"/><path d="m53.855-45.086v3.7377c-0.65748 0.7317-1.5208 1.3556-2.5341 1.8311v-3.7377" fill="url(#e)"/><path d="m47.64-40.728v3.7377l-1.4681-1.5286v-3.7377" fill="#c0911f"/><path d="m51.321-43.255v3.7377l-0.2072 1.8535v-3.7377" fill="#6c500d"/><path d="m51.113-41.402v3.7377c-1.0972 0.36321-2.2713 0.59092-3.4731 0.67366v-3.7377" fill="url(#d)"/><path d="m48.901-50.122c-2.0387-1.4678-5.5201-0.42635-5.5201 1.6513 0 3.111 6.4696 3.111 6.4696 0 0-0.61955-0.34161-1.2137-0.94951-1.6513zm-10.899 1.9826-2.1218-1.0562c0.11253-0.86701 0.42613-1.7142 0.9277-2.5063l2.5693-0.15279c0.65748-0.7317 1.5208-1.3556 2.5341-1.8311l0.2072-1.8535c1.0972-0.36321 2.2713-0.59093 3.4731-0.67365l1.4681 1.5286c1.2073 0.04485 2.388 0.27223 3.4656 0.66739l2.329-0.79733c0.98471 0.5038 1.8451 1.1233 2.5454 1.8327l-1.1012 1.6814c0.54978 0.77655 0.86714 1.6278 0.93149 2.4985l2.1218 1.0562c-0.11253 0.86701-0.42613 1.7142-0.9277 2.5063l-2.5693 0.15279c-0.65748 0.7317-1.5208 1.3556-2.5341 1.8311l-0.2072 1.8535c-1.0972 0.36321-2.2713 0.59093-3.4731 0.67366l-1.4681-1.5286c-1.2073-0.04485-2.388-0.27223-3.4656-0.66738l-2.329 0.79733c-0.98471-0.5038-1.8451-1.1233-2.5454-1.8327l1.1012-1.6814c-0.54978-0.77655-0.86714-1.6278-0.93149-2.4985z" fill="#f3b800" image-rendering="auto"/></g></g></g></g></svg>
