<?xml version="1.0" encoding="UTF-8"?>
<svg width="560" height="200" version="1.1" viewBox="0 0 560 200" xmlns="http://www.w3.org/2000/svg" xmlns:xlink="http://www.w3.org/1999/xlink"><defs><pattern id="a" xlink:href="#b" patternTransform="matrix(1.7678 1.7678 -1.7678 1.7678 192.36 370.15)" preserveAspectRatio="xMidYMid"/><pattern id="b" xlink:href="#c" patternTransform="matrix(.35355 .35355 -.35355 .35355 0 0)" preserveAspectRatio="xMidYMid"/><pattern id="c" width="2.5" height="1" fill="#b3d2e5" patternTransform="translate(0) scale(2)" patternUnits="userSpaceOnUse" preserveAspectRatio="xMidYMid"><rect y="-.5" width="1" height="2"/></pattern><linearGradient id="j" x1=".58611" x2="7.7051" y1="-48.683" y2="-48.683" gradientTransform="translate(42.47)" gradientUnits="userSpaceOnUse"><stop stop-color="#7e5e11" offset="0"/><stop stop-color="#dfaf2b" offset=".3"/><stop stop-color="#fbc600" offset=".5"/><stop stop-color="#e1af2a" offset=".7"/><stop stop-color="#7e5e10" offset="1"/></linearGradient><linearGradient id="i" x1="38.002" x2="38.933" y1="-46.19" y2="-46.19" gradientUnits="userSpaceOnUse"><stop stop-color="#75570f" offset="0"/><stop stop-color="#ac821a" offset="1"/></linearGradient><linearGradient id="h" x1="37.832" x2="40.378" y1="-41.174" y2="-41.174" gradientUnits="userSpaceOnUse"><stop stop-color="#ca9921" offset="0"/><stop stop-color="#f3b81c" offset="1"/></linearGradient><linearGradient id="g" x1="56.424" x2="57.352" y1="-44.623" y2="-44.623" gradientUnits="userSpaceOnUse"><stop stop-color="#a37b19" offset="0"/><stop stop-color="#75570f" offset="1"/></linearGradient><linearGradient id="f" x1="42.707" x2="46.172" y1="-40.721" y2="-40.721" gradientUnits="userSpaceOnUse"><stop stop-color="#fbc100" offset="0"/><stop stop-color="#ffcb31" offset="1"/></linearGradient><linearGradient id="e" x1="51.321" x2="53.855" y1="-42.302" y2="-42.302" gradientUnits="userSpaceOnUse"><stop stop-color="#f4b700" offset="0"/><stop stop-color="#c1911f" offset="1"/></linearGradient><linearGradient id="d" x1="47.64" x2="51.113" y1="-39.196" y2="-39.196" gradientUnits="userSpaceOnUse"><stop stop-color="#ffcb31" offset="0"/><stop stop-color="#fbc100" offset="1"/></linearGradient></defs><g transform="translate(-172 -412)"><g transform="translate(60.09 104.54)"><g stroke="#3776ab"><g transform="matrix(4.9276 0 0 4.9276 191.48 606.06)" stroke-linecap="round" stroke-miterlimit="20" stroke-width=".60882"><path d="m-8.538-52.986h25.367l1e-6 24.353-4.0588 4.0588-21.309-1e-6z" fill="#fff"/><path d="m12.771-24.574v-4.0588h4.0588" fill="#eaf2f8"/></g><path d="m197.06 438.91c2.7692 5.1332 10.197 8.1286 17.71 7.1419m38.104-19.508c0.82411 2.1429 1.3226 4.3434 1.4867 6.5641l10.456 5.2042c-0.55464 4.2724-2.0998 8.447-4.5714 12.35l-12.661 0.75311c-3.24 3.6055-7.4941 6.6796-12.487 9.023l-1.0208 9.1334c-5.4068 1.7896-11.192 2.9117-17.114 3.3197l-7.2342-7.5322c-5.9489-0.22117-11.767-1.3415-17.077-3.2883l-11.476 3.9291c-4.8521-2.4822-9.092-5.5354-12.542-9.0306l5.4266-8.285c-2.7092-3.8266-4.273-8.0211-4.5902-12.312l-10.455-5.2042c0.5529-4.2724 2.0998-8.447 4.5716-12.35l7.3709-0.4365" fill="none" stroke-width="2"/><path d="m197.06 414.36c2.7692 5.1332 10.197 8.1286 17.71 7.1419 19.817-5.6035-22.119-17.747-17.71-7.1419zm-38.047-7.7418c0.5529-4.2724 2.0998-8.447 4.5716-12.35l5.0477-0.30264c17.156-0.99231 27.875-32.849 40.427-19.646l4.1793 4.351 39.635 23.321c0.8241 2.1429 1.3226 4.3434 1.4867 6.5641l10.456 5.2042c-0.55465 4.2724-2.0998 8.447-4.5714 12.35l-12.661 0.7531c-3.24 3.6055-7.4941 6.6796-12.487 9.023l-1.0208 9.1334c-5.4068 1.7896-11.192 2.9117-17.114 3.3197l-7.2342-7.5322c-5.9489-0.22116-11.767-1.3415-17.077-3.2889l-11.476 3.9291c-4.8521-2.4822-9.092-5.5354-12.542-9.0306l5.4266-8.285c-2.7092-3.8266-4.273-8.0211-4.5902-12.312z" fill="url(#a)" stroke-width="2"/></g><g transform="matrix(4.9276 0 0 4.9276 -17.713 606.14)" stroke="#000"><path d="m48.901-46.384c-2.0387-1.4678-5.5201-0.42635-5.5201 1.6513 0 3.111 6.4696 3.111 6.4696 0 0-0.61955-0.34161-1.2137-0.94951-1.6513zm-10.899 1.9826-2.1218-1.0562c0.11253-0.86701 0.42613-1.7142 0.9277-2.5063l2.5693-0.15279c0.65748-0.7317 1.5208-1.3556 2.5341-1.8311l0.2072-1.8535c1.0972-0.36321 2.2713-0.59093 3.4731-0.67365l1.4681 1.5286c1.2073 0.04485 2.388 0.27223 3.4656 0.66739l2.329-0.79733c0.98471 0.5038 1.8451 1.1233 2.5454 1.8327l-1.1012 1.6814c0.54978 0.77655 0.86714 1.6278 0.93149 2.4985l2.1218 1.0562c-0.11253 0.86701-0.42613 1.7142-0.9277 2.5063l-2.5693 0.15279c-0.65748 0.7317-1.5208 1.3556-2.5341 1.8311l-0.2072 1.8535c-1.0972 0.36321-2.2713 0.59093-3.4731 0.67366l-1.4681-1.5286c-1.2073-0.04485-2.388-0.27223-3.4656-0.66738l-2.329 0.79733c-0.98471-0.5038-1.8451-1.1233-2.5454-1.8327l1.1012-1.6814c-0.54978-0.77655-0.86714-1.6278-0.93149-2.4985z" fill="none" stroke-opacity=".3" stroke-width="2.0294"/><g stroke-linejoin="round" stroke-width=".10147"><path d="m46.718-50.808c-1.6909-0.02982-3.3365 0.90886-3.3365 2.3373 0 0.89471 0.53558 1.5315 1.298 1.9116v-0.04284a3.2348 2.3333 0 0 1 3.8735 0v0.04284c0.76243-0.38008 1.298-1.0169 1.298-1.9116 0-0.61954-0.34152-1.2137-0.94942-1.6514-0.63708-0.4587-1.4151-0.67232-2.1837-0.68587z" fill="url(#j)"/><path d="m35.88-49.195v3.7377l2.1218 1.0562v-3.7377" fill="#f2b81c"/><path d="m55.215-48.962 0.18448-0.28167v-3.7377l-1.1012 1.6814" fill="#ad821a"/><path d="m38.002-48.139 1e-6 3.7377a8.6262 6.222 0 0 0 0.01475 0.16052l0.91674-1.3997" fill="url(#i)"/><path d="m37.832-43.959v3.7377c0.70023 0.70936 1.5606 1.3289 2.5454 1.8327l1e-6 -3.7377" fill="url(#h)"/><path d="m57.352-47.745v3.7377c-0.11253 0.867-0.42613 1.7142-0.9277 2.5063v-3.7377" fill="url(#g)"/><path d="m42.707-42.924v3.7377l-2.329 0.79733v-3.7377" fill="#fbc100"/><path d="m56.424-45.239v3.7377l-2.5693 0.15279v-3.7377" fill="#ffcb31"/><path d="m46.172-42.257v3.7377c-1.2073-0.04485-2.388-0.27223-3.4656-0.66738v-3.7377" fill="url(#f)"/><path d="m53.855-45.086v3.7377c-0.65748 0.7317-1.5208 1.3556-2.5341 1.8311v-3.7377" fill="url(#e)"/><path d="m47.64-40.728v3.7377l-1.4681-1.5286v-3.7377" fill="#c0911f"/><path d="m51.321-43.255v3.7377l-0.2072 1.8535v-3.7377" fill="#6c500d"/><path d="m51.113-41.402v3.7377c-1.0972 0.36321-2.2713 0.59092-3.4731 0.67366v-3.7377" fill="url(#d)"/><path d="m48.901-50.122c-2.0387-1.4678-5.5201-0.42635-5.5201 1.6513 0 3.111 6.4696 3.111 6.4696 0 0-0.61955-0.34161-1.2137-0.94951-1.6513zm-10.899 1.9826-2.1218-1.0562c0.11253-0.86701 0.42613-1.7142 0.9277-2.5063l2.5693-0.15279c0.65748-0.7317 1.5208-1.3556 2.5341-1.8311l0.2072-1.8535c1.0972-0.36321 2.2713-0.59093 3.4731-0.67365l1.4681 1.5286c1.2073 0.04485 2.388 0.27223 3.4656 0.66739l2.329-0.79733c0.98471 0.5038 1.8451 1.1233 2.5454 1.8327l-1.1012 1.6814c0.54978 0.77655 0.86714 1.6278 0.93149 2.4985l2.1218 1.0562c-0.11253 0.86701-0.42613 1.7142-0.9277 2.5063l-2.5693 0.15279c-0.65748 0.7317-1.5208 1.3556-2.5341 1.8311l-0.2072 1.8535c-1.0972 0.36321-2.2713 0.59093-3.4731 0.67366l-1.4681-1.5286c-1.2073-0.04485-2.388-0.27223-3.4656-0.66738l-2.329 0.79733c-0.98471-0.5038-1.8451-1.1233-2.5454-1.8327l1.1012-1.6814c-0.54978-0.77655-0.86714-1.6278-0.93149-2.4985z" fill="#f3b800"/></g></g><g transform="matrix(5 0 0 5 192.36 360.15)" stroke-miterlimit="20"><path transform="translate(-48)" d="m73.099 20.524q-0.28418 0-0.48926-0.11719-0.20215-0.12012-0.33106-0.3252v1.5996h-0.3252v-4.3887h0.30176l0.01758 0.43066q0.12598-0.23144 0.32812-0.36035 0.20508-0.12891 0.49219-0.12891 0.49219 0 0.75879 0.35156t0.2666 1.1455v0.2959q0 0.76758-0.2666 1.1338-0.2666 0.36328-0.75293 0.36328zm-0.08496-2.9795q-0.29883 0-0.47461 0.1582-0.17285 0.1582-0.26074 0.36621v1.6699q0.09668 0.20801 0.27539 0.3457 0.17871 0.13477 0.46582 0.13477 0.77344 0 0.77344-1.1924v-0.2959q0-1.1865-0.7793-1.1865zm2.6572 3.4248q-0.04687 0.14356-0.13184 0.3252-0.08203 0.18164-0.23144 0.31348-0.14648 0.13477-0.38965 0.13477-0.1377 0-0.23145-0.03809l-0.0029-0.29883q0.08203 0.02051 0.14648 0.02051 0.2373 0 0.36621-0.14648 0.12891-0.14356 0.21387-0.42773l0.12598-0.41309-0.99609-3.1465h0.35449l0.79102 2.6338 0.75293-2.6338h0.34863zm2.751-0.49512q-0.12598 0.04687-0.32227 0.04687-0.25195 0-0.41894-0.17578-0.16699-0.17871-0.16699-0.65625v-2.1035h-0.48633v-0.29297h0.48633v-0.81152h0.32812v0.81152h0.53906v0.29297h-0.53906v2.1035q0 0.32812 0.09961 0.42188 0.10254 0.09375 0.23438 0.09375 0.06445 0 0.12598-0.0088 0.06152-0.0088 0.1084-0.02051zm1.7637-2.9297q-0.29004 0-0.4834 0.2168t-0.28125 0.49512v2.2061h-0.3252v-4.5h0.3252v1.8193q0.14062-0.24902 0.35742-0.39844t0.49219-0.14942q0.39844 0 0.62402 0.26953 0.22559 0.2666 0.22559 0.89355v2.0654h-0.3252v-2.0684q0-0.48633-0.16406-0.66797-0.16113-0.18164-0.44531-0.18164zm1.6729 1.4971v-0.32812q0-0.71777 0.31934-1.0986 0.32227-0.38086 0.83789-0.38086 0.51855 0 0.83789 0.38086 0.32227 0.38086 0.32227 1.0986v0.32812q0 0.71777-0.32227 1.1016-0.31934 0.38086-0.83496 0.38086t-0.83789-0.38086q-0.32227-0.38379-0.32227-1.1016zm0.3252-0.32812v0.32812q0 0.54199 0.2168 0.86133 0.21973 0.31641 0.61816 0.31641 0.42188 0 0.62695-0.31641 0.20508-0.31934 0.20508-0.86133v-0.32812q0-0.5332-0.21973-0.85254-0.21973-0.32227-0.61523-0.32227t-0.61524 0.32227q-0.2168 0.31934-0.2168 0.85254zm3.832-1.1689q-0.29004 0-0.4834 0.2168t-0.28125 0.49512v2.2061h-0.3252v-3.1699h0.31055l0.01172 0.49805q0.1377-0.25195 0.35449-0.4043 0.21973-0.15234 0.49805-0.15234 0.39844 0 0.62402 0.26953 0.22559 0.2666 0.22559 0.89355v2.0654h-0.3252v-2.0684q0-0.48633-0.16406-0.66797-0.16113-0.18164-0.44531-0.18164zm1.7871-1.166q0-0.24024 0.21387-0.24024 0.2168 0 0.2168 0.24024 0 0.23438-0.2168 0.23438-0.21387 0-0.21387-0.23438zm0.375 0.91406v3.1699h-0.3252v-3.1699zm1.9043 2.9268q0.27246 0 0.4834-0.15527 0.21387-0.1582 0.2373-0.58301h0.31055q-0.02051 0.50976-0.32227 0.77637-0.29883 0.2666-0.70898 0.2666-1.1455 0-1.1455-1.4678v-0.35742q0-1.4648 1.1455-1.4648 0.43359 0 0.72363 0.27539t0.30762 0.85254h-0.31055q-0.02051-0.44238-0.22559-0.63281-0.20215-0.19043-0.49512-0.19043-0.45117 0-0.63574 0.30469-0.18457 0.30176-0.18457 0.85547v0.35742q0 0.55664 0.18457 0.86133 0.18457 0.30176 0.63574 0.30176z" fill="#3776ab" stroke-opacity=".3" stroke-width=".065" aria-label="pythonic"/><path d="m47.922 16.948v3.8m-1.3178-3.8v3.8m-0.7-0.89992h2.718m-2.718-2h2.718" fill="#00a15c" stroke="#3776ab" stroke-width=".4"/><path d="m52.559 20.524q-0.28418 0-0.48926-0.11719-0.20215-0.12012-0.33106-0.3252v1.5996h-0.3252v-4.3887h0.30176l0.01758 0.43066q0.12598-0.23144 0.32812-0.36035 0.20508-0.12891 0.49219-0.12891 0.49219 0 0.75879 0.35156t0.2666 1.1455v0.2959q0 0.76758-0.2666 1.1338-0.2666 0.36328-0.75293 0.36328zm-0.08496-2.9795q-0.29883 0-0.47461 0.1582-0.17285 0.1582-0.26074 0.36621v1.6699q0.09668 0.20801 0.27539 0.3457 0.17871 0.13477 0.46582 0.13477 0.77344 0 0.77344-1.1924v-0.2959q0-1.1865-0.7793-1.1865zm3.5361 2.918q-0.02637-0.08203-0.04102-0.19922-0.01465-0.12012-0.02051-0.24023-0.12305 0.19629-0.34277 0.34863-0.2168 0.15234-0.53027 0.15234-0.39258 0-0.62988-0.22559t-0.2373-0.6709q0-0.43945 0.30176-0.72656t0.89941-0.28711h0.53613v-0.44238q0-0.63281-0.66211-0.63281-0.30469 0-0.49805 0.17578-0.19043 0.17578-0.19043 0.4541l-0.3252-0.0029q0-0.36621 0.28125-0.64746 0.28418-0.28418 0.74707-0.28418 0.42774 0 0.7002 0.21387t0.27246 0.72949v1.6201q0 0.16406 0.02051 0.33984t0.06152 0.28711v0.03809zm-0.89648-0.25781q0.31055 0 0.52441-0.1582 0.2168-0.16113 0.30762-0.38379v-0.77344h-0.48926q-0.45703 0-0.69141 0.19336-0.23144 0.19336-0.23144 0.51856 0 0.60352 0.58008 0.60352zm3.085-2.6279q-0.28418 0-0.46289 0.19043-0.17578 0.19043-0.24902 0.49219v2.2031h-0.3252v-3.1699h0.31641l0.0088 0.47461q0.10547-0.24609 0.28711-0.38965t0.43945-0.14356q0.12012 0 0.19629 0.03516l-0.0088 0.32812q-0.09375-0.02051-0.20215-0.02051zm2.3379 2.8857q-0.02637-0.08203-0.04102-0.19922-0.01465-0.12012-0.02051-0.24023-0.12305 0.19629-0.34277 0.34863-0.2168 0.15234-0.53027 0.15234-0.39258 0-0.62988-0.22559t-0.2373-0.6709q0-0.43945 0.30176-0.72656t0.89941-0.28711h0.53613v-0.44238q0-0.63281-0.66211-0.63281-0.30469 0-0.49805 0.17578-0.19043 0.17578-0.19043 0.4541l-0.3252-0.0029q0-0.36621 0.28125-0.64746 0.28418-0.28418 0.74707-0.28418 0.42773 0 0.7002 0.21387 0.27246 0.21387 0.27246 0.72949v1.6201q0 0.16406 0.02051 0.33984t0.06152 0.28711v0.03809zm-0.89648-0.25781q0.31055 0 0.52441-0.1582 0.2168-0.16113 0.30762-0.38379v-0.77344h-0.48926q-0.45703 0-0.69141 0.19336-0.23144 0.19336-0.23144 0.51856 0 0.60352 0.58008 0.60352zm3.1025-2.6602q-0.31348 0-0.49219 0.21387-0.17578 0.21094-0.24902 0.4834v2.2207h-0.32812v-3.1699h0.31348l0.01172 0.46875q0.13184-0.24023 0.3457-0.38379t0.50098-0.14356q0.28418 0 0.48926 0.1377 0.20801 0.1377 0.30176 0.44531 0.12598-0.25488 0.35449-0.41894 0.22852-0.16406 0.54199-0.16406 0.41895 0 0.64746 0.27246 0.23145 0.27246 0.23145 0.8877v2.0684h-0.32812v-2.0713q0-0.49805-0.17578-0.67383-0.17285-0.17578-0.45703-0.17285-0.35156 0.0029-0.53906 0.26953-0.18457 0.2666-0.20801 0.54199v2.1064h-0.3252v-2.0977q0-0.46875-0.17578-0.64453t-0.45996-0.17578zm5.5107 2.5518q-0.12891 0.17285-0.35449 0.30176-0.22559 0.12598-0.58887 0.12598-0.53027 0-0.86719-0.35156-0.33398-0.35156-0.33398-1.0869v-0.36328q0-0.79395 0.3457-1.1396 0.3457-0.34863 0.7998-0.34863 1.0605 0 1.0605 1.3975v0.27246h-1.8809v0.18164q0 0.57715 0.24316 0.85547 0.24609 0.27832 0.64746 0.27832 0.46875 0 0.75586-0.33984zm-0.99902-2.5576q-0.3457 0-0.57129 0.24609-0.22266 0.24316-0.24609 0.81445h1.5527v-0.08203q-0.0088-0.46289-0.1875-0.7207-0.17871-0.25781-0.54785-0.25781zm2.8271 2.9355q-0.12598 0.04687-0.32226 0.04687-0.25195 0-0.41894-0.17578-0.16699-0.17871-0.16699-0.65625v-2.1035h-0.48633v-0.29297h0.48633v-0.81152h0.32812v0.81152h0.53906v0.29297h-0.53906v2.1035q0 0.32812 0.09961 0.42188 0.10254 0.09375 0.23438 0.09375 0.06445 0 0.12598-0.0088 0.06152-0.0088 0.1084-0.02051zm1.7109-2.8975q-0.28418 0-0.46289 0.19043-0.17578 0.19043-0.24902 0.49219v2.2031h-0.3252v-3.1699h0.31641l0.0088 0.47461q0.10547-0.24609 0.28711-0.38965t0.43945-0.14356q0.12012 0 0.19629 0.03516l-0.0088 0.32812q-0.09375-0.02051-0.20215-0.02051zm0.76465-1.1982q0-0.24024 0.21387-0.24024 0.2168 0 0.2168 0.24024 0 0.23438-0.2168 0.23438-0.21387 0-0.21387-0.23438zm0.375 0.91406v3.1699h-0.3252v-3.1699zm1.9043 2.9268q0.27246 0 0.4834-0.15527 0.21387-0.1582 0.2373-0.58301h0.31055q-0.02051 0.50976-0.32226 0.77637-0.29883 0.2666-0.70898 0.2666-1.1455 0-1.1455-1.4678v-0.35742q0-1.4648 1.1455-1.4648 0.43359 0 0.72363 0.27539t0.30762 0.85254h-0.31055q-0.02051-0.44238-0.22559-0.63281-0.20215-0.19043-0.49512-0.19043-0.45117 0-0.63574 0.30469-0.18457 0.30176-0.18457 0.85547v0.35742q0 0.55664 0.18457 0.86133 0.18457 0.30176 0.63574 0.30176z" fill="#3776ab" stroke-opacity=".3" stroke-width=".065" aria-label="parametric"/><path d="m80.676 16.948v3.8m-1.3178-3.8v3.8m-0.7-0.89992h2.718m-2.718-2h2.718" fill="#00a15c" stroke="#3776ab" stroke-width=".4"/><path d="m85.313 20.219q0.27246 0 0.4834-0.15527 0.21387-0.1582 0.2373-0.58301h0.31055q-0.02051 0.50976-0.32227 0.77637-0.29883 0.2666-0.70898 0.2666-1.1455 0-1.1455-1.4678v-0.35742q0-1.4648 1.1455-1.4648 0.43359 0 0.72363 0.27539t0.30762 0.85254h-0.31055q-0.02051-0.44238-0.22559-0.63281-0.20215-0.19043-0.49512-0.19043-0.45117 0-0.63574 0.30469-0.18457 0.30176-0.18457 0.85547v0.35742q0 0.55664 0.18457 0.86133 0.18457 0.30176 0.63574 0.30176zm3.3984 0.24316q-0.02637-0.08203-0.04102-0.19922-0.01465-0.12012-0.02051-0.24023-0.12305 0.19629-0.34277 0.34863-0.2168 0.15234-0.53027 0.15234-0.39258 0-0.62988-0.22559t-0.2373-0.6709q0-0.43945 0.30176-0.72656t0.89941-0.28711h0.53613v-0.44238q0-0.63281-0.66211-0.63281-0.30469 0-0.49805 0.17578-0.19043 0.17578-0.19043 0.4541l-0.3252-0.0029q0-0.36621 0.28125-0.64746 0.28418-0.28418 0.74707-0.28418 0.42774 0 0.7002 0.21387t0.27246 0.72949v1.6201q0 0.16406 0.02051 0.33984t0.06152 0.28711v0.03809zm-0.89648-0.25781q0.31055 0 0.52441-0.1582 0.2168-0.16113 0.30762-0.38379v-0.77344h-0.48926q-0.45703 0-0.69141 0.19336-0.23144 0.19336-0.23144 0.51856 0 0.60352 0.58008 0.60352zm3.791 0.25781-0.01465-0.41016q-0.12305 0.21973-0.32812 0.3457-0.20215 0.12598-0.48926 0.12598-0.46875 0-0.75-0.36328-0.27832-0.36621-0.27832-1.1338v-0.2959q0-0.79395 0.27832-1.1455 0.27832-0.35156 0.75586-0.35156 0.28418 0 0.48047 0.12891 0.19922 0.12598 0.3252 0.35449v-1.7549h0.3252v4.5zm-1.5322-1.4355q0 1.1836 0.76465 1.1836 0.29004 0 0.46875-0.14062 0.18164-0.14062 0.27832-0.35449v-1.6348q-0.08789-0.21387-0.26367-0.375-0.17285-0.16113-0.47754-0.16113-0.77051 0-0.77051 1.1865z" fill="#3776ab" stroke-opacity=".3" stroke-width=".065" aria-label="cad"/><path transform="translate(-48)" d="m78.844 9.8269q0 2.2588-0.81738 3.3662t-2.3115 1.1074q-1.5029 0-2.2588-1.3008l-0.0791 1.125h-1.4238v-13.5h1.5557v5.0186q0.74707-1.2041 2.1973-1.2041 1.5117 0 2.3203 1.0811 0.81738 1.0723 0.81738 3.4189zm-3.542-4.0166q-0.65918 0-1.0986 0.36914-0.43945 0.36914-0.69434 0.92285v4.5352q0.25488 0.54492 0.68555 0.91406 0.43945 0.36914 1.1162 0.36914 1.0635 0 1.5205-0.74707 0.45703-0.75586 0.45703-2.3467v-0.8877q0-1.582-0.43066-2.3555t-1.5557-0.77344zm10.415 8.3145-0.02637-0.83496q-0.79102 1.0107-2.2676 1.0107-1.1777 0-1.8984-0.82617t-0.7207-2.7246v-6.1348h1.5469v6.1523q0 1.2832 0.42188 1.7227 0.42188 0.43066 0.91406 0.43066 0.76465 0 1.2305-0.34277 0.47461-0.35156 0.7207-0.93164v-7.0313h1.5557v9.5098zm3.8496-12.032q0-0.39551 0.21973-0.66797t0.65918-0.27246q0.43066 0 0.65918 0.27246t0.22852 0.66797q0 0.37793-0.22852 0.65039-0.22852 0.26367-0.65918 0.26367-0.43945 0-0.65918-0.26367-0.21973-0.27246-0.21973-0.65039zm1.6348 2.5225v9.5098h-1.5469v-9.5098zm4.1309-3.9902v13.5h-1.5469v-13.5zm7.5762 13.5-0.0703-1.0283q-0.75586 1.2041-2.206 1.2041-1.4063 0-2.2939-1.1074-0.87893-1.1074-0.87893-3.3662v-0.8877q0-2.3467 0.87891-3.4189 0.87891-1.0811 2.3115-1.0811 1.3799 0 2.127 1.1074v-4.9219h1.5469v13.5zm-3.8936-4.2979q0 1.5908 0.47461 2.3467 0.47461 0.74707 1.5469 0.74707 0.65918 0 1.0723-0.3252 0.41309-0.33398 0.66797-0.85254v-4.7725q-0.26367-0.50098-0.68555-0.82617-0.41308-0.33398-1.0371-0.33398-1.0811 0-1.5644 0.77344-0.47461 0.76465-0.47461 2.3555zm12.199-8.5693v12.867h-1.5557v-10.837l-2.6895 1.1953v-1.4678l4.0078-1.7578zm11.408 11.531v1.3359h-7.1543v-1.1689l3.5244-4.667q0.9668-1.292 1.2832-2.0303 0.31641-0.74707 0.31641-1.4941 0-0.94043-0.45703-1.6084-0.44824-0.66797-1.2656-0.66797-1.0723 0-1.5557 0.72949t-0.4834 1.8721h-1.5557q0-1.6172 0.89648-2.7773 0.90527-1.1602 2.6982-1.1602 1.5469 0 2.4082 0.94043 0.87011 0.94043 0.87011 2.4785 0 1.1338-0.58007 2.2852-0.57129 1.1514-1.3975 2.2148l-2.8389 3.7178zm4.7285-4.5264h-1.002v-1.3359h1.002q1.002 0 1.4854-0.62402 0.49219-0.62402 0.49219-1.5645 0-2.25-1.7314-2.25-0.81738 0-1.3096 0.59766-0.4834 0.58887-0.4834 1.5908h-1.5469q0-1.4678 0.90527-2.4961 0.90528-1.0283 2.4346-1.0283 1.459 0 2.373 0.92285 0.91406 0.91406 0.91406 2.6982 0 0.71191-0.38672 1.5205-0.38672 0.7998-1.2656 1.2568 1.081 0.4043 1.4414 1.2744 0.36036 0.86133 0.36036 1.7314 0 1.793-0.99317 2.7686-0.98437 0.97559-2.4522 0.97559-1.4326 0-2.417-0.92285-0.98437-0.93164-0.98437-2.6367h1.5557q0 1.0107 0.4834 1.6172 0.49219 0.60644 1.3623 0.60644 0.86133 0 1.3711-0.58887 0.51855-0.58887 0.51855-1.7842 0-1.1953-0.57129-1.7578-0.57129-0.57129-1.5557-0.57129zm11.145 5.8623-0.0703-1.0283q-0.75586 1.2041-2.2061 1.2041-1.4062 0-2.2939-1.1074-0.87891-1.1074-0.87891-3.3662v-0.8877q0-2.3467 0.87891-3.4189 0.8789-1.0811 2.3115-1.0811 1.3799 0 2.127 1.1074v-4.9219h1.5469v13.5zm-3.8936-4.2979q0 1.5908 0.4746 2.3467 0.47461 0.74707 1.5469 0.74707 0.65918 0 1.0723-0.3252 0.41308-0.33398 0.66796-0.85254v-4.7725q-0.26367-0.50098-0.68554-0.82617-0.41309-0.33398-1.0371-0.33398-1.0811 0-1.5645 0.77344-0.4746 0.76465-0.4746 2.3555z" fill="#3776ab" aria-label="build123d"/></g></g></g></svg>
