<?xml version="1.0" encoding="UTF-8"?>
<svg width="32" height="32" version="1.1" viewBox="-12.09 -56.537 32 32" xml:space="preserve" xmlns="http://www.w3.org/2000/svg" xmlns:xlink="http://www.w3.org/1999/xlink"><defs><pattern id="pattern136" patternTransform="matrix(.35355 .35355 -.35355 .35355 0 0)" preserveAspectRatio="xMidYMid" xlink:href="#pattern135"/><pattern id="pattern135" width="2.5" height="1" fill="#b3d2e5" patternTransform="translate(0) scale(2)" patternUnits="userSpaceOnUse" preserveAspectRatio="xMidYMid">
      <rect y="-.5" width="1" height="2"/>
    </pattern><linearGradient id="linearGradient128" x1=".58611" x2="7.7051" y1="-48.683" y2="-48.683" gradientTransform="translate(42.47)" gradientUnits="userSpaceOnUse"><stop stop-color="#7e5e11" offset="0"/><stop stop-color="#dfaf2b" offset=".3"/><stop stop-color="#fbc600" offset=".5"/><stop stop-color="#e1af2a" offset=".7"/><stop stop-color="#7e5e10" offset="1"/></linearGradient><linearGradient id="linearGradient129" x1="38.002" x2="38.933" y1="-46.19" y2="-46.19" gradientUnits="userSpaceOnUse"><stop stop-color="#75570f" offset="0"/><stop stop-color="#ac821a" offset="1"/></linearGradient><linearGradient id="linearGradient130" x1="37.832" x2="40.378" y1="-41.174" y2="-41.174" gradientUnits="userSpaceOnUse"><stop stop-color="#ca9921" offset="0"/><stop stop-color="#f3b81c" offset="1"/></linearGradient><linearGradient id="linearGradient131" x1="56.424" x2="57.352" y1="-44.623" y2="-44.623" gradientUnits="userSpaceOnUse"><stop stop-color="#a37b19" offset="0"/><stop stop-color="#75570f" offset="1"/></linearGradient><linearGradient id="linearGradient132" x1="42.707" x2="46.172" y1="-40.721" y2="-40.721" gradientUnits="userSpaceOnUse"><stop stop-color="#fbc100" offset="0"/><stop stop-color="#ffcb31" offset="1"/></linearGradient><linearGradient id="linearGradient133" x1="51.321" x2="53.855" y1="-42.302" y2="-42.302" gradientUnits="userSpaceOnUse"><stop stop-color="#f4b700" offset="0"/><stop stop-color="#c1911f" offset="1"/></linearGradient><linearGradient id="linearGradient134" x1="47.64" x2="51.113" y1="-39.196" y2="-39.196" gradientUnits="userSpaceOnUse"><stop stop-color="#ffcb31" offset="0"/><stop stop-color="#fbc100" offset="1"/></linearGradient></defs><g transform="translate(0,-48)"><g transform="matrix(.98552 0 0 .98552 -.17515 47.181)" stroke="#3776ab" stroke-linecap="round" stroke-miterlimit="20" stroke-width=".60882"><path d="m-8.538-52.986h25.367l1e-6 24.353-4.0588 4.0588-21.309-1e-6z" fill="#fff"/><path d="m12.771-24.574v-4.0588h4.0588" fill="#eaf2f8"/></g><path d="m0.93947 13.753c0.55383 1.0266 2.0394 1.6257 3.542 1.4284m7.6208-3.9015c0.16482 0.42858 0.26452 0.86869 0.29734 1.3128l2.0911 1.0408c-0.11093 0.85449-0.41996 1.6894-0.91427 2.47l-2.5321 0.15062c-0.648 0.7211-1.4988 1.3359-2.4974 1.8046l-0.20416 1.8267c-1.0814 0.35793-2.2384 0.58235-3.4228 0.66394l-1.4468-1.5064c-1.1898-0.044232-2.3534-0.2683-3.4154-0.65766l-2.2953 0.78581c-0.97042-0.49644-1.8184-1.1071-2.5085-1.8061l1.0853-1.657c-0.54184-0.76533-0.85461-1.6042-0.91804-2.4623l-2.0911-1.0408c0.11058-0.85449 0.41997-1.6894 0.91432-2.47l1.4742-0.0873" fill="none" stroke="#3776ab" stroke-width=".4"/><path d="m0.93947 8.8417c0.55383 1.0266 2.0394 1.6257 3.542 1.4284 3.9634-1.1207-4.4237-3.5494-3.542-1.4284zm-7.6093-1.5484c0.11058-0.85449 0.41997-1.6894 0.91432-2.47l1.0095-0.060528c3.4312-0.19846 5.575-6.5698 8.0854-3.9291l0.83587 0.8702 7.9271 4.6642c0.16482 0.42858 0.26452 0.86869 0.29734 1.3128l2.0911 1.0408c-0.11093 0.85449-0.41996 1.6894-0.91427 2.47l-2.5321 0.15062c-0.648 0.7211-1.4988 1.3359-2.4974 1.8046l-0.20416 1.8267c-1.0814 0.35793-2.2384 0.58235-3.4228 0.66394l-1.4468-1.5064c-1.1898-0.044232-2.3534-0.2683-3.4154-0.65777l-2.2953 0.78581c-0.97042-0.49644-1.8184-1.1071-2.5085-1.8061l1.0853-1.657c-0.54184-0.76533-0.85461-1.6042-0.91804-2.4623z" fill="url(#pattern136)" stroke="#3776ab" stroke-width=".4"/><g transform="matrix(.98552 0 0 .98552 -42.014 47.197)" stroke="#000"><path d="m48.901-46.384c-2.0387-1.4678-5.5201-0.42635-5.5201 1.6513 0 3.111 6.4696 3.111 6.4696 0 0-0.61955-0.34161-1.2137-0.94951-1.6513zm-10.899 1.9826-2.1218-1.0562c0.11253-0.86701 0.42613-1.7142 0.9277-2.5063l2.5693-0.15279c0.65748-0.7317 1.5208-1.3556 2.5341-1.8311l0.2072-1.8535c1.0972-0.36321 2.2713-0.59093 3.4731-0.67365l1.4681 1.5286c1.2073 0.04485 2.388 0.27223 3.4656 0.66739l2.329-0.79733c0.98471 0.5038 1.8451 1.1233 2.5454 1.8327l-1.1012 1.6814c0.54978 0.77655 0.86714 1.6278 0.93149 2.4985l2.1218 1.0562c-0.11253 0.86701-0.42613 1.7142-0.9277 2.5063l-2.5693 0.15279c-0.65748 0.7317-1.5208 1.3556-2.5341 1.8311l-0.2072 1.8535c-1.0972 0.36321-2.2713 0.59093-3.4731 0.67366l-1.4681-1.5286c-1.2073-0.04485-2.388-0.27223-3.4656-0.66738l-2.329 0.79733c-0.98471-0.5038-1.8451-1.1233-2.5454-1.8327l1.1012-1.6814c-0.54978-0.77655-0.86714-1.6278-0.93149-2.4985z" fill="none" stroke-opacity=".3" stroke-width="2.0294"/><g stroke-linejoin="round" stroke-width=".10147"><path d="m46.718-50.808c-1.6909-0.02982-3.3365 0.90886-3.3365 2.3373 0 0.89471 0.53558 1.5315 1.298 1.9116v-0.04284a3.2348 2.3333 0 0 1 3.8735 0v0.04284c0.76243-0.38008 1.298-1.0169 1.298-1.9116 0-0.61954-0.34152-1.2137-0.94942-1.6514-0.63708-0.4587-1.4151-0.67232-2.1837-0.68587z" fill="url(#linearGradient128)"/><path d="m35.88-49.195v3.7377l2.1218 1.0562v-3.7377" fill="#f2b81c"/><path d="m55.215-48.962 0.18448-0.28167v-3.7377l-1.1012 1.6814" fill="#ad821a"/></g><g stroke-linejoin="round" stroke-width=".10147"><path d="m38.002-48.139 1e-6 3.7377a8.6262 6.222 0 0 0 0.01475 0.16052l0.91674-1.3997" fill="url(#linearGradient129)"/><path d="m37.832-43.959v3.7377c0.70023 0.70936 1.5606 1.3289 2.5454 1.8327l1e-6 -3.7377" fill="url(#linearGradient130)"/><path d="m57.352-47.745v3.7377c-0.11253 0.867-0.42613 1.7142-0.9277 2.5063v-3.7377" fill="url(#linearGradient131)"/><path d="m42.707-42.924v3.7377l-2.329 0.79733v-3.7377" fill="#fbc100"/><path d="m56.424-45.239v3.7377l-2.5693 0.15279v-3.7377" fill="#ffcb31"/><path d="m46.172-42.257v3.7377c-1.2073-0.04485-2.388-0.27223-3.4656-0.66738v-3.7377" fill="url(#linearGradient132)"/><path d="m53.855-45.086v3.7377c-0.65748 0.7317-1.5208 1.3556-2.5341 1.8311v-3.7377" fill="url(#linearGradient133)"/><path d="m47.64-40.728v3.7377l-1.4681-1.5286v-3.7377" fill="#c0911f"/><path d="m51.321-43.255v3.7377l-0.2072 1.8535v-3.7377" fill="#6c500d"/><path d="m51.113-41.402v3.7377c-1.0972 0.36321-2.2713 0.59092-3.4731 0.67366v-3.7377" fill="url(#linearGradient134)"/><path d="m48.901-50.122c-2.0387-1.4678-5.5201-0.42635-5.5201 1.6513 0 3.111 6.4696 3.111 6.4696 0 0-0.61955-0.34161-1.2137-0.94951-1.6513zm-10.899 1.9826-2.1218-1.0562c0.11253-0.86701 0.42613-1.7142 0.9277-2.5063l2.5693-0.15279c0.65748-0.7317 1.5208-1.3556 2.5341-1.8311l0.2072-1.8535c1.0972-0.36321 2.2713-0.59093 3.4731-0.67365l1.4681 1.5286c1.2073 0.04485 2.388 0.27223 3.4656 0.66739l2.329-0.79733c0.98471 0.5038 1.8451 1.1233 2.5454 1.8327l-1.1012 1.6814c0.54978 0.77655 0.86714 1.6278 0.93149 2.4985l2.1218 1.0562c-0.11253 0.86701-0.42613 1.7142-0.9277 2.5063l-2.5693 0.15279c-0.65748 0.7317-1.5208 1.3556-2.5341 1.8311l-0.2072 1.8535c-1.0972 0.36321-2.2713 0.59093-3.4731 0.67366l-1.4681-1.5286c-1.2073-0.04485-2.388-0.27223-3.4656-0.66738l-2.329 0.79733c-0.98471-0.5038-1.8451-1.1233-2.5454-1.8327l1.1012-1.6814c-0.54978-0.77655-0.86714-1.6278-0.93149-2.4985z" fill="#f3b800"/></g></g></g></svg>
