<?xml version='1.0' encoding='utf-8'?>
<svg width="100.09mm" height="100.09mm" viewBox="-1.0009 -1.0009 2.0018 2.0018" version="1.1" xmlns="http://www.w3.org/2000/svg">
  <g transform="scale(1,-1)" stroke-linecap="round">
    <g fill="none" stroke="rgb(0,0,0)" stroke-width="0.0018">
      <path d="M 0.933013,0.25 A 0.5,0.5 -89.99999999999996 0,1 0.25,0.933013 A 0.5,0.5 0.0 0,1 -0.25,0.933013 A 0.5,0.5 0.0 0,1 -0.933013,0.25 A 0.5,0.5 0.0 0,1 -0.933013,-0.25 A 0.5,0.5 0.0 0,1 -0.25,-0.933013 A 0.5,0.5 0.0 0,1 0.25,-0.933013 A 0.5,0.5 180.0 0,1 0.933013,-0.25 A 0.5,0.5 -30.000000000000266 0,1 0.933013,0.25 M -0.2599,-0.927144 A 0.49,0.49 0.0 0,0 -0.927144,-0.2599 A 0.5,0.5 0.0 0,1 -0.5,-0.5 A 0.5,0.5 0.0 0,1 -0.2599,-0.927144 M 0.49,-0.4999 A 0.49,0.49 0.011694209715779905 1,0 -0.49,-0.4999 A 0.5,0.5 0.0 0,1 -0.25,-0.433013 A 0.5,0.5 0.0 0,1 0.25,-0.433013 A 0.5,0.5 0.0 0,1 0.49,-0.4999 M 0.927144,-0.2599 A 0.49,0.49 119.34058157502295 0,0 0.2599,-0.927144 A 0.5,0.5 -58.681163150047965 0,1 0.5,-0.5 A 0.5,0.5 0.0 0,1 0.927144,-0.2599 M -0.2599,-0.427144 A 0.49,0.49 0.0 1,0 -0.2599,0.427144 A 0.5,0.5 0.0 0,1 -0.2599,-0.427144 M -0.2599,0.927144 A 0.5,0.5 0.0 0,1 -0.5,0.5 A 0.5,0.5 0.0 0,1 -0.927144,0.2599 A 0.49,0.49 0.0 0,0 -0.2599,0.927144 M 0.49,-0.0 A 0.49,0.49 0.0 0,0 -0.49,0.0 A 0.49,0.49 0.0 0,0 0.49,0.0 M 0.2599,-0.427144 A 0.5,0.5 -58.681163150047965 0,1 0.2599,0.427144 A 0.49,0.49 119.34058157502298 1,0 0.2599,-0.427144 M 0.49,0.4999 A 0.5,0.5 0.0 0,1 0.25,0.433013 A 0.5,0.5 0.0 0,1 -0.25,0.433013 A 0.5,0.5 0.0 0,1 -0.49,0.4999 A 0.49,0.49 -179.98830579028402 1,0 0.49,0.4999 M 0.2599,0.927144 A 0.49,0.49 119.34058157502295 0,0 0.927144,0.2599 A 0.5,0.5 0.0 0,1 0.5,0.5 A 0.5,0.5 -58.681163150048015 0,1 0.2599,0.927144" />
      <path d="M 0.729735,0.805825 L 0.729735,0.774115 Q 0.73068,0.76652 0.723365,0.767045 L 0.723365,0.765715 L 0.742965,0.765715 L 0.742965,0.767045 Q 0.73607,0.766765 0.736875,0.773345 L 0.736875,0.804425 Q 0.736,0.810935 0.742965,0.810725 L 0.742965,0.812055 L 0.729035,0.812055 L 0.713565,0.776705 L 0.697395,0.812055 L 0.683535,0.812055 L 0.683535,0.810725 Q 0.6912,0.811145 0.690185,0.804425 L 0.690185,0.776005 Q 0.69113,0.766415 0.683395,0.767045 L 0.683395,0.765715 L 0.699845,0.765715 L 0.699845,0.767045 Q 0.692495,0.766415 0.693265,0.776005 L 0.693265,0.804215 L 0.710835,0.765715 L 0.711815,0.765715 L 0.729735,0.805825" />
      <path d="M 0.751855,0.804425 L 0.751855,0.773345 Q 0.75287,0.766415 0.745065,0.767045 L 0.745065,0.765715 L 0.765855,0.765715 L 0.765855,0.767045 Q 0.758085,0.766485 0.758995,0.773345 L 0.758995,0.804425 Q 0.758015,0.811215 0.765855,0.810725 L 0.765855,0.812055 L 0.745065,0.812055 L 0.745065,0.810725 Q 0.75294,0.811145 0.751855,0.804425" />
      <path d="M 0.816605,0.810725 L 0.816605,0.812055 L 0.800155,0.812055 L 0.800155,0.810725 Q 0.807645,0.811215 0.806875,0.801765 L 0.806875,0.778175 L 0.779925,0.812055 L 0.767955,0.812055 L 0.767955,0.810725 Q 0.77149,0.81125 0.774745,0.806875 L 0.774745,0.776005 Q 0.77569,0.766415 0.767955,0.767045 L 0.767955,0.765715 L 0.784405,0.765715 L 0.784405,0.767045 Q 0.777055,0.766415 0.777825,0.776005 L 0.777825,0.803445 L 0.808765,0.764945 L 0.809955,0.764945 L 0.809955,0.801765 Q 0.810049,0.812075 0.816605,0.810725" />
      <path d="M 0.729735,0.728825 L 0.729735,0.697115 Q 0.73068,0.68952 0.723365,0.690045 L 0.723365,0.688715 L 0.742965,0.688715 L 0.742965,0.690045 Q 0.73607,0.689765 0.736875,0.696345 L 0.736875,0.727425 Q 0.736,0.733935 0.742965,0.733725 L 0.742965,0.735055 L 0.729035,0.735055 L 0.713565,0.699705 L 0.697395,0.735055 L 0.683535,0.735055 L 0.683535,0.733725 Q 0.6912,0.734145 0.690185,0.727425 L 0.690185,0.699005 Q 0.69113,0.689415 0.683395,0.690045 L 0.683395,0.688715 L 0.699845,0.688715 L 0.699845,0.690045 Q 0.692495,0.689415 0.693265,0.699005 L 0.693265,0.727215 L 0.710835,0.688715 L 0.711815,0.688715 L 0.729735,0.728825" />
      <path d="M 0.751855,0.727425 L 0.751855,0.696345 Q 0.75287,0.689415 0.745065,0.690045 L 0.745065,0.688715 L 0.765855,0.688715 L 0.765855,0.690045 Q 0.758085,0.689485 0.758995,0.696345 L 0.758995,0.727425 Q 0.758015,0.734215 0.765855,0.733725 L 0.765855,0.735055 L 0.745065,0.735055 L 0.745065,0.733725 Q 0.75294,0.734145 0.751855,0.727425" />
      <path d="M 0.816605,0.733725 L 0.816605,0.735055 L 0.800155,0.735055 L 0.800155,0.733725 Q 0.807645,0.734215 0.806875,0.724765 L 0.806875,0.701175 L 0.779925,0.735055 L 0.767955,0.735055 L 0.767955,0.733725 Q 0.77149,0.73425 0.774745,0.729875 L 0.774745,0.699005 Q 0.77569,0.689415 0.767955,0.690045 L 0.767955,0.688715 L 0.784405,0.688715 L 0.784405,0.690045 Q 0.777055,0.689415 0.777825,0.699005 L 0.777825,0.726445 L 0.808765,0.687945 L 0.809955,0.687945 L 0.809955,0.724765 Q 0.810049,0.735075 0.816605,0.733725" />
      <path d="M -0.095165,0.80915 C -0.096145,0.80838 -0.097125,0.80761 -0.098105,0.80684 C -0.101546,0.808546 -0.121245,0.812147 -0.127785,0.802325 C -0.136661,0.794207 -0.136733,0.775291 -0.128065,0.76736 C -0.119764,0.757929 -0.09957,0.75884 -0.092155,0.76974 L -0.093415,0.771 C -0.10351,0.76152 -0.118145,0.760015 -0.12481,0.774955 C -0.127678,0.784641 -0.126698,0.793216 -0.12187,0.80068 C -0.114562,0.810002 -0.097513,0.808008 -0.094675,0.79333 L -0.093065,0.79333 L -0.093695,0.80915 L -0.095165,0.80915" />
      <path d="M -0.075775,0.76743 L -0.075775,0.78472 L -0.064995,0.78472 Q -0.057505,0.7857 -0.057295,0.778 L -0.055685,0.778 L -0.055685,0.79424 L -0.057295,0.79424 Q -0.057295,0.786995 -0.064995,0.78759 L -0.075775,0.78759 L -0.075775,0.80313 Q -0.07602,0.80579 -0.073465,0.80551 L -0.064015,0.80551 Q -0.053655,0.806525 -0.053375,0.79816 L -0.051625,0.79816 L -0.051835,0.80817 L -0.089005,0.80817 L -0.089005,0.80684 Q -0.08211,0.80712 -0.082915,0.80054 L -0.082915,0.76946 Q -0.08211,0.76288 -0.089005,0.76316 L -0.089005,0.76183 L -0.051205,0.76183 L -0.048055,0.77366 L -0.050015,0.77366 Q -0.053375,0.76337 -0.066535,0.76442 L -0.068425,0.76442 Q -0.07714,0.763895 -0.075775,0.76743" />
      <path d="M 0.002345,0.80684 L 0.002345,0.80817 L -0.014105,0.80817 L -0.014105,0.80684 Q -0.006615,0.80733 -0.007385,0.79788 L -0.007385,0.77429 L -0.034335,0.80817 L -0.046305,0.80817 L -0.046305,0.80684 Q -0.04277,0.807365 -0.039515,0.80299 L -0.039515,0.77212 Q -0.03857,0.76253 -0.046305,0.76316 L -0.046305,0.76183 L -0.029855,0.76183 L -0.029855,0.76316 Q -0.037205,0.76253 -0.036435,0.77212 L -0.036435,0.79956 L -0.005495,0.76106 L -0.004305,0.76106 L -0.004305,0.79788 Q -0.004211,0.80819 0.002345,0.80684" />
      <path d="M 0.021035,0.80523 L 0.021035,0.77023 Q 0.022085,0.762495 0.014455,0.76316 L 0.014455,0.76183 L 0.034895,0.76183 L 0.034895,0.76316 Q 0.027195,0.76267 0.028175,0.76946 L 0.028175,0.80523 L 0.031955,0.80523 Q 0.04228,0.80656 0.043085,0.79627 L 0.044765,0.79627 L 0.044345,0.80817 L 0.004865,0.80817 L 0.004445,0.79627 L 0.006125,0.79627 Q 0.00707,0.80649 0.017255,0.80523 L 0.021035,0.80523" />
      <path d="M 0.060095,0.76743 L 0.060095,0.78472 L 0.070875,0.78472 Q 0.078365,0.7857 0.078575,0.778 L 0.080185,0.778 L 0.080185,0.79424 L 0.078575,0.79424 Q 0.078575,0.786995 0.070875,0.78759 L 0.060095,0.78759 L 0.060095,0.80313 Q 0.05985,0.80579 0.062405,0.80551 L 0.071855,0.80551 Q 0.082215,0.806525 0.082495,0.79816 L 0.084245,0.79816 L 0.084035,0.80817 L 0.046865,0.80817 L 0.046865,0.80684 Q 0.05376,0.80712 0.052955,0.80054 L 0.052955,0.76946 Q 0.05376,0.76288 0.046865,0.76316 L 0.046865,0.76183 L 0.084665,0.76183 L 0.087815,0.77366 L 0.085855,0.77366 Q 0.082495,0.76337 0.069335,0.76442 L 0.067445,0.76442 Q 0.05873,0.763895 0.060095,0.76743" />
      <path d="M 0.108885,0.80817 L 0.089565,0.80817 L 0.089565,0.80684 Q 0.09646,0.80698 0.095515,0.80054 L 0.095515,0.77023 Q 0.09646,0.762635 0.089565,0.76316 L 0.089565,0.76183 L 0.108955,0.76183 L 0.108955,0.76316 Q 0.101745,0.76281 0.102655,0.76946 L 0.102655,0.78325 L 0.106575,0.78339 L 0.123235,0.76183 L 0.134505,0.76183 L 0.134505,0.76316 L 0.128415,0.76645 L 0.113995,0.78416 Q 0.114135,0.78416 0.114345,0.78423 Q 0.131438,0.788934 0.124915,0.80215 Q 0.118129,0.808903 0.108885,0.80817 M 0.102655,0.78584 L 0.102655,0.80306 C 0.101909,0.807537 0.113894,0.805293 0.11592,0.803235 C 0.117997,0.801672 0.119035,0.799257 0.119035,0.79599 C 0.119222,0.788827 0.113762,0.785443 0.102655,0.78584" />
      <path d="M -0.020265,0.732325 L -0.020265,0.700615 Q -0.01932,0.69302 -0.026635,0.693545 L -0.026635,0.692215 L -0.007035,0.692215 L -0.007035,0.693545 Q -0.01393,0.693265 -0.013125,0.699845 L -0.013125,0.730925 Q -0.014,0.737435 -0.007035,0.737225 L -0.007035,0.738555 L -0.020965,0.738555 L -0.036435,0.703205 L -0.052605,0.738555 L -0.066465,0.738555 L -0.066465,0.737225 Q -0.0588,0.737645 -0.059815,0.730925 L -0.059815,0.702505 Q -0.05887,0.692915 -0.066605,0.693545 L -0.066605,0.692215 L -0.050155,0.692215 L -0.050155,0.693545 Q -0.057505,0.692915 -0.056735,0.702505 L -0.056735,0.730715 L -0.039165,0.692215 L -0.038185,0.692215 L -0.020265,0.732325" />
      <path d="M 0.001855,0.730925 L 0.001855,0.699845 Q 0.00287,0.692915 -0.004935,0.693545 L -0.004935,0.692215 L 0.015855,0.692215 L 0.015855,0.693545 Q 0.008085,0.692985 0.008995,0.699845 L 0.008995,0.730925 Q 0.008015,0.737715 0.015855,0.737225 L 0.015855,0.738555 L -0.004935,0.738555 L -0.004935,0.737225 Q 0.00294,0.737645 0.001855,0.730925" />
      <path d="M 0.066605,0.737225 L 0.066605,0.738555 L 0.050155,0.738555 L 0.050155,0.737225 Q 0.057645,0.737715 0.056875,0.728265 L 0.056875,0.704675 L 0.029925,0.738555 L 0.017955,0.738555 L 0.017955,0.737225 Q 0.02149,0.73775 0.024745,0.733375 L 0.024745,0.702505 Q 0.02569,0.692915 0.017955,0.693545 L 0.017955,0.692215 L 0.034405,0.692215 L 0.034405,0.693545 Q 0.027055,0.692915 0.027825,0.702505 L 0.027825,0.729945 L 0.058765,0.691445 L 0.059955,0.691445 L 0.059955,0.728265 Q 0.060049,0.738575 0.066605,0.737225" />
      <path d="M -0.783845,0.80152 L -0.783845,0.76981 Q -0.7829,0.762215 -0.790215,0.76274 L -0.790215,0.76141 L -0.770615,0.76141 L -0.770615,0.76274 Q -0.77751,0.76246 -0.776705,0.76904 L -0.776705,0.80012 Q -0.77758,0.80663 -0.770615,0.80642 L -0.770615,0.80775 L -0.784545,0.80775 L -0.800015,0.7724 L -0.816185,0.80775 L -0.830045,0.80775 L -0.830045,0.80642 Q -0.82238,0.80684 -0.823395,0.80012 L -0.823395,0.7717 Q -0.82245,0.76211 -0.830185,0.76274 L -0.830185,0.76141 L -0.813735,0.76141 L -0.813735,0.76274 Q -0.821085,0.76211 -0.820315,0.7717 L -0.820315,0.79991 L -0.802745,0.76141 L -0.801765,0.76141 L -0.783845,0.80152" />
      <path d="M -0.720145,0.76141 L -0.720145,0.76274 Q -0.723995,0.762075 -0.726445,0.76883 L -0.743875,0.80859 L -0.745275,0.80859 L -0.759835,0.77422 Q -0.764805,0.76099 -0.768515,0.76274 L -0.768515,0.76141 L -0.754655,0.76141 L -0.754655,0.76274 Q -0.761273,0.762962 -0.758855,0.76834 L -0.755635,0.77653 L -0.737295,0.77653 L -0.734425,0.76981 Q -0.730194,0.762295 -0.737995,0.76274 L -0.737995,0.76141 L -0.720145,0.76141 M -0.754445,0.7794 L -0.746395,0.79865 L -0.738275,0.7794 L -0.754445,0.7794" />
      <path d="M -0.670375,0.80775 L -0.687035,0.80775 L -0.687035,0.80642 Q -0.678392,0.807372 -0.684935,0.79935 L -0.692845,0.78969 L -0.695785,0.79382 Q -0.706309,0.80787 -0.698375,0.80635 L -0.696415,0.80642 L -0.696415,0.80775 L -0.717555,0.80775 L -0.717555,0.80642 Q -0.71262,0.807995 -0.704885,0.79543 L -0.697255,0.78423 L -0.708245,0.77072 Q -0.71507,0.76141 -0.718395,0.76274 L -0.718395,0.76141 L -0.702085,0.76141 L -0.702085,0.76274 Q -0.711864,0.761632 -0.703765,0.77121 L -0.695435,0.78157 L -0.688785,0.77177 Q -0.68077,0.761704 -0.690605,0.76274 L -0.690605,0.76141 L -0.669815,0.76141 L -0.669815,0.76274 Q -0.67447,0.76267 -0.677585,0.76792 L -0.691025,0.7871 L -0.680805,0.79984 Q -0.67573,0.80698 -0.670375,0.80642 L -0.670375,0.80775" />
      <path d="M -0.770265,0.732325 L -0.770265,0.700615 Q -0.76932,0.69302 -0.776635,0.693545 L -0.776635,0.692215 L -0.757035,0.692215 L -0.757035,0.693545 Q -0.76393,0.693265 -0.763125,0.699845 L -0.763125,0.730925 Q -0.764,0.737435 -0.757035,0.737225 L -0.757035,0.738555 L -0.770965,0.738555 L -0.786435,0.703205 L -0.802605,0.738555 L -0.816465,0.738555 L -0.816465,0.737225 Q -0.8088,0.737645 -0.809815,0.730925 L -0.809815,0.702505 Q -0.80887,0.692915 -0.816605,0.693545 L -0.816605,0.692215 L -0.800155,0.692215 L -0.800155,0.693545 Q -0.807505,0.692915 -0.806735,0.702505 L -0.806735,0.730715 L -0.789165,0.692215 L -0.788185,0.692215 L -0.770265,0.732325" />
      <path d="M -0.748145,0.730925 L -0.748145,0.699845 Q -0.74713,0.692915 -0.754935,0.693545 L -0.754935,0.692215 L -0.734145,0.692215 L -0.734145,0.693545 Q -0.741915,0.692985 -0.741005,0.699845 L -0.741005,0.730925 Q -0.741985,0.737715 -0.734145,0.737225 L -0.734145,0.738555 L -0.754935,0.738555 L -0.754935,0.737225 Q -0.74706,0.737645 -0.748145,0.730925" />
      <path d="M -0.683395,0.737225 L -0.683395,0.738555 L -0.699845,0.738555 L -0.699845,0.737225 Q -0.692355,0.737715 -0.693125,0.728265 L -0.693125,0.704675 L -0.720075,0.738555 L -0.732045,0.738555 L -0.732045,0.737225 Q -0.72851,0.73775 -0.725255,0.733375 L -0.725255,0.702505 Q -0.72431,0.692915 -0.732045,0.693545 L -0.732045,0.692215 L -0.715595,0.692215 L -0.715595,0.693545 Q -0.722945,0.692915 -0.722175,0.702505 L -0.722175,0.729945 L -0.691235,0.691445 L -0.690045,0.691445 L -0.690045,0.728265 Q -0.689951,0.738575 -0.683395,0.737225" />
      <path d="M 0.729735,0.052325 L 0.729735,0.020615 Q 0.73068,0.01302 0.723365,0.013545 L 0.723365,0.012215 L 0.742965,0.012215 L 0.742965,0.013545 Q 0.73607,0.013265 0.736875,0.019845 L 0.736875,0.050925 Q 0.736,0.057435 0.742965,0.057225 L 0.742965,0.058555 L 0.729035,0.058555 L 0.713565,0.023205 L 0.697395,0.058555 L 0.683535,0.058555 L 0.683535,0.057225 Q 0.6912,0.057645 0.690185,0.050925 L 0.690185,0.022505 Q 0.69113,0.012915 0.683395,0.013545 L 0.683395,0.012215 L 0.699845,0.012215 L 0.699845,0.013545 Q 0.692495,0.012915 0.693265,0.022505 L 0.693265,0.050715 L 0.710835,0.012215 L 0.711815,0.012215 L 0.729735,0.052325" />
      <path d="M 0.751855,0.050925 L 0.751855,0.019845 Q 0.75287,0.012915 0.745065,0.013545 L 0.745065,0.012215 L 0.765855,0.012215 L 0.765855,0.013545 Q 0.758085,0.012985 0.758995,0.019845 L 0.758995,0.050925 Q 0.758015,0.057715 0.765855,0.057225 L 0.765855,0.058555 L 0.745065,0.058555 L 0.745065,0.057225 Q 0.75294,0.057645 0.751855,0.050925" />
      <path d="M 0.816605,0.057225 L 0.816605,0.058555 L 0.800155,0.058555 L 0.800155,0.057225 Q 0.807645,0.057715 0.806875,0.048265 L 0.806875,0.024675 L 0.779925,0.058555 L 0.767955,0.058555 L 0.767955,0.057225 Q 0.77149,0.05775 0.774745,0.053375 L 0.774745,0.022505 Q 0.77569,0.012915 0.767955,0.013545 L 0.767955,0.012215 L 0.784405,0.012215 L 0.784405,0.013545 Q 0.777055,0.012915 0.777825,0.022505 L 0.777825,0.049945 L 0.808765,0.011445 L 0.809955,0.011445 L 0.809955,0.048265 Q 0.810049,0.058575 0.816605,0.057225" />
      <path d="M 0.654835,-0.01085 C 0.653855,-0.01162 0.652875,-0.01239 0.651895,-0.01316 C 0.648454,-0.011454 0.628755,-0.007853 0.622215,-0.017675 C 0.613339,-0.025793 0.613267,-0.044709 0.621935,-0.05264 C 0.630236,-0.062071 0.65043,-0.06116 0.657845,-0.05026 L 0.656585,-0.049 C 0.64649,-0.05848 0.631855,-0.059985 0.62519,-0.045045 C 0.622322,-0.035359 0.623302,-0.026784 0.62813,-0.01932 C 0.635438,-0.009998 0.652487,-0.011992 0.655325,-0.02667 L 0.656935,-0.02667 L 0.656305,-0.01085 L 0.654835,-0.01085" />
      <path d="M 0.674225,-0.05257 L 0.674225,-0.03528 L 0.685005,-0.03528 Q 0.692495,-0.0343 0.692705,-0.042 L 0.694315,-0.042 L 0.694315,-0.02576 L 0.692705,-0.02576 Q 0.692705,-0.033005 0.685005,-0.03241 L 0.674225,-0.03241 L 0.674225,-0.01687 Q 0.67398,-0.01421 0.676535,-0.01449 L 0.685985,-0.01449 Q 0.696345,-0.013475 0.696625,-0.02184 L 0.698375,-0.02184 L 0.698165,-0.01183 L 0.660995,-0.01183 L 0.660995,-0.01316 Q 0.66789,-0.01288 0.667085,-0.01946 L 0.667085,-0.05054 Q 0.66789,-0.05712 0.660995,-0.05684 L 0.660995,-0.05817 L 0.698795,-0.05817 L 0.701945,-0.04634 L 0.699985,-0.04634 Q 0.696625,-0.05663 0.683465,-0.05558 L 0.681575,-0.05558 Q 0.67286,-0.056105 0.674225,-0.05257" />
      <path d="M 0.752345,-0.01316 L 0.752345,-0.01183 L 0.735895,-0.01183 L 0.735895,-0.01316 Q 0.743385,-0.01267 0.742615,-0.02212 L 0.742615,-0.04571 L 0.715665,-0.01183 L 0.703695,-0.01183 L 0.703695,-0.01316 Q 0.70723,-0.012635 0.710485,-0.01701 L 0.710485,-0.04788 Q 0.71143,-0.05747 0.703695,-0.05684 L 0.703695,-0.05817 L 0.720145,-0.05817 L 0.720145,-0.05684 Q 0.712795,-0.05747 0.713565,-0.04788 L 0.713565,-0.02044 L 0.744505,-0.05894 L 0.745695,-0.05894 L 0.745695,-0.02212 Q 0.745789,-0.01181 0.752345,-0.01316" />
      <path d="M 0.771035,-0.01477 L 0.771035,-0.04977 Q 0.772085,-0.057505 0.764455,-0.05684 L 0.764455,-0.05817 L 0.784895,-0.05817 L 0.784895,-0.05684 Q 0.777195,-0.05733 0.778175,-0.05054 L 0.778175,-0.01477 L 0.781955,-0.01477 Q 0.79228,-0.01344 0.793085,-0.02373 L 0.794765,-0.02373 L 0.794345,-0.01183 L 0.754865,-0.01183 L 0.754445,-0.02373 L 0.756125,-0.02373 Q 0.75707,-0.01351 0.767255,-0.01477 L 0.771035,-0.01477" />
      <path d="M 0.810095,-0.05257 L 0.810095,-0.03528 L 0.820875,-0.03528 Q 0.828365,-0.0343 0.828575,-0.042 L 0.830185,-0.042 L 0.830185,-0.02576 L 0.828575,-0.02576 Q 0.828575,-0.033005 0.820875,-0.03241 L 0.810095,-0.03241 L 0.810095,-0.01687 Q 0.80985,-0.01421 0.812405,-0.01449 L 0.821855,-0.01449 Q 0.832215,-0.013475 0.832495,-0.02184 L 0.834245,-0.02184 L 0.834035,-0.01183 L 0.796865,-0.01183 L 0.796865,-0.01316 Q 0.80376,-0.01288 0.802955,-0.01946 L 0.802955,-0.05054 Q 0.80376,-0.05712 0.796865,-0.05684 L 0.796865,-0.05817 L 0.834665,-0.05817 L 0.837815,-0.04634 L 0.835855,-0.04634 Q 0.832495,-0.05663 0.819335,-0.05558 L 0.817445,-0.05558 Q 0.80873,-0.056105 0.810095,-0.05257" />
      <path d="M 0.858885,-0.01183 L 0.839565,-0.01183 L 0.839565,-0.01316 Q 0.84646,-0.01302 0.845515,-0.01946 L 0.845515,-0.04977 Q 0.84646,-0.057365 0.839565,-0.05684 L 0.839565,-0.05817 L 0.858955,-0.05817 L 0.858955,-0.05684 Q 0.851745,-0.05719 0.852655,-0.05054 L 0.852655,-0.03675 L 0.856575,-0.03661 L 0.873235,-0.05817 L 0.884505,-0.05817 L 0.884505,-0.05684 L 0.878415,-0.05355 L 0.863995,-0.03584 Q 0.864135,-0.03584 0.864345,-0.03577 Q 0.881438,-0.031066 0.874915,-0.01785 Q 0.868129,-0.011097 0.858885,-0.01183 M 0.852655,-0.03416 L 0.852655,-0.01694 C 0.851909,-0.012463 0.863894,-0.014707 0.86592,-0.016765 C 0.867997,-0.018328 0.869035,-0.020743 0.869035,-0.02401 C 0.869222,-0.031173 0.863762,-0.034557 0.852655,-0.03416" />
      <path d="M -0.095165,0.06265 C -0.096145,0.06188 -0.097125,0.06111 -0.098105,0.06034 C -0.101546,0.062046 -0.121245,0.065647 -0.127785,0.055825 C -0.136661,0.047707 -0.136733,0.028791 -0.128065,0.02086 C -0.119764,0.011429 -0.09957,0.01234 -0.092155,0.02324 L -0.093415,0.0245 C -0.10351,0.01502 -0.118145,0.013515 -0.12481,0.028455 C -0.127678,0.038141 -0.126698,0.046716 -0.12187,0.05418 C -0.114562,0.063502 -0.097513,0.061508 -0.094675,0.04683 L -0.093065,0.04683 L -0.093695,0.06265 L -0.095165,0.06265" />
      <path d="M -0.075775,0.02093 L -0.075775,0.03822 L -0.064995,0.03822 Q -0.057505,0.0392 -0.057295,0.0315 L -0.055685,0.0315 L -0.055685,0.04774 L -0.057295,0.04774 Q -0.057295,0.040495 -0.064995,0.04109 L -0.075775,0.04109 L -0.075775,0.05663 Q -0.07602,0.05929 -0.073465,0.05901 L -0.064015,0.05901 Q -0.053655,0.060025 -0.053375,0.05166 L -0.051625,0.05166 L -0.051835,0.06167 L -0.089005,0.06167 L -0.089005,0.06034 Q -0.08211,0.06062 -0.082915,0.05404 L -0.082915,0.02296 Q -0.08211,0.01638 -0.089005,0.01666 L -0.089005,0.01533 L -0.051205,0.01533 L -0.048055,0.02716 L -0.050015,0.02716 Q -0.053375,0.01687 -0.066535,0.01792 L -0.068425,0.01792 Q -0.07714,0.017395 -0.075775,0.02093" />
      <path d="M 0.002345,0.06034 L 0.002345,0.06167 L -0.014105,0.06167 L -0.014105,0.06034 Q -0.006615,0.06083 -0.007385,0.05138 L -0.007385,0.02779 L -0.034335,0.06167 L -0.046305,0.06167 L -0.046305,0.06034 Q -0.04277,0.060865 -0.039515,0.05649 L -0.039515,0.02562 Q -0.03857,0.01603 -0.046305,0.01666 L -0.046305,0.01533 L -0.029855,0.01533 L -0.029855,0.01666 Q -0.037205,0.01603 -0.036435,0.02562 L -0.036435,0.05306 L -0.005495,0.01456 L -0.004305,0.01456 L -0.004305,0.05138 Q -0.004211,0.06169 0.002345,0.06034" />
      <path d="M 0.021035,0.05873 L 0.021035,0.02373 Q 0.022085,0.015995 0.014455,0.01666 L 0.014455,0.01533 L 0.034895,0.01533 L 0.034895,0.01666 Q 0.027195,0.01617 0.028175,0.02296 L 0.028175,0.05873 L 0.031955,0.05873 Q 0.04228,0.06006 0.043085,0.04977 L 0.044765,0.04977 L 0.044345,0.06167 L 0.004865,0.06167 L 0.004445,0.04977 L 0.006125,0.04977 Q 0.00707,0.05999 0.017255,0.05873 L 0.021035,0.05873" />
      <path d="M 0.060095,0.02093 L 0.060095,0.03822 L 0.070875,0.03822 Q 0.078365,0.0392 0.078575,0.0315 L 0.080185,0.0315 L 0.080185,0.04774 L 0.078575,0.04774 Q 0.078575,0.040495 0.070875,0.04109 L 0.060095,0.04109 L 0.060095,0.05663 Q 0.05985,0.05929 0.062405,0.05901 L 0.071855,0.05901 Q 0.082215,0.060025 0.082495,0.05166 L 0.084245,0.05166 L 0.084035,0.06167 L 0.046865,0.06167 L 0.046865,0.06034 Q 0.05376,0.06062 0.052955,0.05404 L 0.052955,0.02296 Q 0.05376,0.01638 0.046865,0.01666 L 0.046865,0.01533 L 0.084665,0.01533 L 0.087815,0.02716 L 0.085855,0.02716 Q 0.082495,0.01687 0.069335,0.01792 L 0.067445,0.01792 Q 0.05873,0.017395 0.060095,0.02093" />
      <path d="M 0.108885,0.06167 L 0.089565,0.06167 L 0.089565,0.06034 Q 0.09646,0.06048 0.095515,0.05404 L 0.095515,0.02373 Q 0.09646,0.016135 0.089565,0.01666 L 0.089565,0.01533 L 0.108955,0.01533 L 0.108955,0.01666 Q 0.101745,0.01631 0.102655,0.02296 L 0.102655,0.03675 L 0.106575,0.03689 L 0.123235,0.01533 L 0.134505,0.01533 L 0.134505,0.01666 L 0.128415,0.01995 L 0.113995,0.03766 Q 0.114135,0.03766 0.114345,0.03773 Q 0.131438,0.042434 0.124915,0.05565 Q 0.118129,0.062403 0.108885,0.06167 M 0.102655,0.03934 L 0.102655,0.05656 C 0.101909,0.061037 0.113894,0.058793 0.11592,0.056735 C 0.117997,0.055172 0.119035,0.052757 0.119035,0.04949 C 0.119222,0.042327 0.113762,0.038943 0.102655,0.03934" />
      <path d="M -0.095165,-0.01435 C -0.096145,-0.01512 -0.097125,-0.01589 -0.098105,-0.01666 C -0.101546,-0.014954 -0.121245,-0.011353 -0.127785,-0.021175 C -0.136661,-0.029293 -0.136733,-0.048209 -0.128065,-0.05614 C -0.119764,-0.065571 -0.09957,-0.06466 -0.092155,-0.05376 L -0.093415,-0.0525 C -0.10351,-0.06198 -0.118145,-0.063485 -0.12481,-0.048545 C -0.127678,-0.038859 -0.126698,-0.030284 -0.12187,-0.02282 C -0.114562,-0.013498 -0.097513,-0.015492 -0.094675,-0.03017 L -0.093065,-0.03017 L -0.093695,-0.01435 L -0.095165,-0.01435" />
      <path d="M -0.075775,-0.05607 L -0.075775,-0.03878 L -0.064995,-0.03878 Q -0.057505,-0.0378 -0.057295,-0.0455 L -0.055685,-0.0455 L -0.055685,-0.02926 L -0.057295,-0.02926 Q -0.057295,-0.036505 -0.064995,-0.03591 L -0.075775,-0.03591 L -0.075775,-0.02037 Q -0.07602,-0.01771 -0.073465,-0.01799 L -0.064015,-0.01799 Q -0.053655,-0.016975 -0.053375,-0.02534 L -0.051625,-0.02534 L -0.051835,-0.01533 L -0.089005,-0.01533 L -0.089005,-0.01666 Q -0.08211,-0.01638 -0.082915,-0.02296 L -0.082915,-0.05404 Q -0.08211,-0.06062 -0.089005,-0.06034 L -0.089005,-0.06167 L -0.051205,-0.06167 L -0.048055,-0.04984 L -0.050015,-0.04984 Q -0.053375,-0.06013 -0.066535,-0.05908 L -0.068425,-0.05908 Q -0.07714,-0.059605 -0.075775,-0.05607" />
      <path d="M 0.002345,-0.01666 L 0.002345,-0.01533 L -0.014105,-0.01533 L -0.014105,-0.01666 Q -0.006615,-0.01617 -0.007385,-0.02562 L -0.007385,-0.04921 L -0.034335,-0.01533 L -0.046305,-0.01533 L -0.046305,-0.01666 Q -0.04277,-0.016135 -0.039515,-0.02051 L -0.039515,-0.05138 Q -0.03857,-0.06097 -0.046305,-0.06034 L -0.046305,-0.06167 L -0.029855,-0.06167 L -0.029855,-0.06034 Q -0.037205,-0.06097 -0.036435,-0.05138 L -0.036435,-0.02394 L -0.005495,-0.06244 L -0.004305,-0.06244 L -0.004305,-0.02562 Q -0.004211,-0.01531 0.002345,-0.01666" />
      <path d="M 0.021035,-0.01827 L 0.021035,-0.05327 Q 0.022085,-0.061005 0.014455,-0.06034 L 0.014455,-0.06167 L 0.034895,-0.06167 L 0.034895,-0.06034 Q 0.027195,-0.06083 0.028175,-0.05404 L 0.028175,-0.01827 L 0.031955,-0.01827 Q 0.04228,-0.01694 0.043085,-0.02723 L 0.044765,-0.02723 L 0.044345,-0.01533 L 0.004865,-0.01533 L 0.004445,-0.02723 L 0.006125,-0.02723 Q 0.00707,-0.01701 0.017255,-0.01827 L 0.021035,-0.01827" />
      <path d="M 0.060095,-0.05607 L 0.060095,-0.03878 L 0.070875,-0.03878 Q 0.078365,-0.0378 0.078575,-0.0455 L 0.080185,-0.0455 L 0.080185,-0.02926 L 0.078575,-0.02926 Q 0.078575,-0.036505 0.070875,-0.03591 L 0.060095,-0.03591 L 0.060095,-0.02037 Q 0.05985,-0.01771 0.062405,-0.01799 L 0.071855,-0.01799 Q 0.082215,-0.016975 0.082495,-0.02534 L 0.084245,-0.02534 L 0.084035,-0.01533 L 0.046865,-0.01533 L 0.046865,-0.01666 Q 0.05376,-0.01638 0.052955,-0.02296 L 0.052955,-0.05404 Q 0.05376,-0.06062 0.046865,-0.06034 L 0.046865,-0.06167 L 0.084665,-0.06167 L 0.087815,-0.04984 L 0.085855,-0.04984 Q 0.082495,-0.06013 0.069335,-0.05908 L 0.067445,-0.05908 Q 0.05873,-0.059605 0.060095,-0.05607" />
      <path d="M 0.108885,-0.01533 L 0.089565,-0.01533 L 0.089565,-0.01666 Q 0.09646,-0.01652 0.095515,-0.02296 L 0.095515,-0.05327 Q 0.09646,-0.060865 0.089565,-0.06034 L 0.089565,-0.06167 L 0.108955,-0.06167 L 0.108955,-0.06034 Q 0.101745,-0.06069 0.102655,-0.05404 L 0.102655,-0.04025 L 0.106575,-0.04011 L 0.123235,-0.06167 L 0.134505,-0.06167 L 0.134505,-0.06034 L 0.128415,-0.05705 L 0.113995,-0.03934 Q 0.114135,-0.03934 0.114345,-0.03927 Q 0.131438,-0.034566 0.124915,-0.02135 Q 0.118129,-0.014597 0.108885,-0.01533 M 0.102655,-0.03766 L 0.102655,-0.02044 C 0.101909,-0.015963 0.113894,-0.018207 0.11592,-0.020265 C 0.117997,-0.021828 0.119035,-0.024243 0.119035,-0.02751 C 0.119222,-0.034673 0.113762,-0.038057 0.102655,-0.03766" />
      <path d="M -0.783845,0.05152 L -0.783845,0.01981 Q -0.7829,0.012215 -0.790215,0.01274 L -0.790215,0.01141 L -0.770615,0.01141 L -0.770615,0.01274 Q -0.77751,0.01246 -0.776705,0.01904 L -0.776705,0.05012 Q -0.77758,0.05663 -0.770615,0.05642 L -0.770615,0.05775 L -0.784545,0.05775 L -0.800015,0.0224 L -0.816185,0.05775 L -0.830045,0.05775 L -0.830045,0.05642 Q -0.82238,0.05684 -0.823395,0.05012 L -0.823395,0.0217 Q -0.82245,0.01211 -0.830185,0.01274 L -0.830185,0.01141 L -0.813735,0.01141 L -0.813735,0.01274 Q -0.821085,0.01211 -0.820315,0.0217 L -0.820315,0.04991 L -0.802745,0.01141 L -0.801765,0.01141 L -0.783845,0.05152" />
      <path d="M -0.720145,0.01141 L -0.720145,0.01274 Q -0.723995,0.012075 -0.726445,0.01883 L -0.743875,0.05859 L -0.745275,0.05859 L -0.759835,0.02422 Q -0.764805,0.01099 -0.768515,0.01274 L -0.768515,0.01141 L -0.754655,0.01141 L -0.754655,0.01274 Q -0.761273,0.012962 -0.758855,0.01834 L -0.755635,0.02653 L -0.737295,0.02653 L -0.734425,0.01981 Q -0.730194,0.012295 -0.737995,0.01274 L -0.737995,0.01141 L -0.720145,0.01141 M -0.754445,0.0294 L -0.746395,0.04865 L -0.738275,0.0294 L -0.754445,0.0294" />
      <path d="M -0.670375,0.05775 L -0.687035,0.05775 L -0.687035,0.05642 Q -0.678392,0.057372 -0.684935,0.04935 L -0.692845,0.03969 L -0.695785,0.04382 Q -0.706309,0.05787 -0.698375,0.05635 L -0.696415,0.05642 L -0.696415,0.05775 L -0.717555,0.05775 L -0.717555,0.05642 Q -0.71262,0.057995 -0.704885,0.04543 L -0.697255,0.03423 L -0.708245,0.02072 Q -0.71507,0.01141 -0.718395,0.01274 L -0.718395,0.01141 L -0.702085,0.01141 L -0.702085,0.01274 Q -0.711864,0.011632 -0.703765,0.02121 L -0.695435,0.03157 L -0.688785,0.02177 Q -0.68077,0.011704 -0.690605,0.01274 L -0.690605,0.01141 L -0.669815,0.01141 L -0.669815,0.01274 Q -0.67447,0.01267 -0.677585,0.01792 L -0.691025,0.0371 L -0.680805,0.04984 Q -0.67573,0.05698 -0.670375,0.05642 L -0.670375,0.05775" />
      <path d="M -0.845165,-0.01085 C -0.846145,-0.01162 -0.847125,-0.01239 -0.848105,-0.01316 C -0.851546,-0.011454 -0.871245,-0.007853 -0.877785,-0.017675 C -0.886661,-0.025793 -0.886733,-0.044709 -0.878065,-0.05264 C -0.869764,-0.062071 -0.84957,-0.06116 -0.842155,-0.05026 L -0.843415,-0.049 C -0.85351,-0.05848 -0.868145,-0.059985 -0.87481,-0.045045 C -0.877678,-0.035359 -0.876698,-0.026784 -0.87187,-0.01932 C -0.864562,-0.009998 -0.847513,-0.011992 -0.844675,-0.02667 L -0.843065,-0.02667 L -0.843695,-0.01085 L -0.845165,-0.01085" />
      <path d="M -0.825775,-0.05257 L -0.825775,-0.03528 L -0.814995,-0.03528 Q -0.807505,-0.0343 -0.807295,-0.042 L -0.805685,-0.042 L -0.805685,-0.02576 L -0.807295,-0.02576 Q -0.807295,-0.033005 -0.814995,-0.03241 L -0.825775,-0.03241 L -0.825775,-0.01687 Q -0.82602,-0.01421 -0.823465,-0.01449 L -0.814015,-0.01449 Q -0.803655,-0.013475 -0.803375,-0.02184 L -0.801625,-0.02184 L -0.801835,-0.01183 L -0.839005,-0.01183 L -0.839005,-0.01316 Q -0.83211,-0.01288 -0.832915,-0.01946 L -0.832915,-0.05054 Q -0.83211,-0.05712 -0.839005,-0.05684 L -0.839005,-0.05817 L -0.801205,-0.05817 L -0.798055,-0.04634 L -0.800015,-0.04634 Q -0.803375,-0.05663 -0.816535,-0.05558 L -0.818425,-0.05558 Q -0.82714,-0.056105 -0.825775,-0.05257" />
      <path d="M -0.747655,-0.01316 L -0.747655,-0.01183 L -0.764105,-0.01183 L -0.764105,-0.01316 Q -0.756615,-0.01267 -0.757385,-0.02212 L -0.757385,-0.04571 L -0.784335,-0.01183 L -0.796305,-0.01183 L -0.796305,-0.01316 Q -0.79277,-0.012635 -0.789515,-0.01701 L -0.789515,-0.04788 Q -0.78857,-0.05747 -0.796305,-0.05684 L -0.796305,-0.05817 L -0.779855,-0.05817 L -0.779855,-0.05684 Q -0.787205,-0.05747 -0.786435,-0.04788 L -0.786435,-0.02044 L -0.755495,-0.05894 L -0.754305,-0.05894 L -0.754305,-0.02212 Q -0.754211,-0.01181 -0.747655,-0.01316" />
      <path d="M -0.728965,-0.01477 L -0.728965,-0.04977 Q -0.727915,-0.057505 -0.735545,-0.05684 L -0.735545,-0.05817 L -0.715105,-0.05817 L -0.715105,-0.05684 Q -0.722805,-0.05733 -0.721825,-0.05054 L -0.721825,-0.01477 L -0.718045,-0.01477 Q -0.70772,-0.01344 -0.706915,-0.02373 L -0.705235,-0.02373 L -0.705655,-0.01183 L -0.745135,-0.01183 L -0.745555,-0.02373 L -0.743875,-0.02373 Q -0.74293,-0.01351 -0.732745,-0.01477 L -0.728965,-0.01477" />
      <path d="M -0.689905,-0.05257 L -0.689905,-0.03528 L -0.679125,-0.03528 Q -0.671635,-0.0343 -0.671425,-0.042 L -0.669815,-0.042 L -0.669815,-0.02576 L -0.671425,-0.02576 Q -0.671425,-0.033005 -0.679125,-0.03241 L -0.689905,-0.03241 L -0.689905,-0.01687 Q -0.69015,-0.01421 -0.687595,-0.01449 L -0.678145,-0.01449 Q -0.667785,-0.013475 -0.667505,-0.02184 L -0.665755,-0.02184 L -0.665965,-0.01183 L -0.703135,-0.01183 L -0.703135,-0.01316 Q -0.69624,-0.01288 -0.697045,-0.01946 L -0.697045,-0.05054 Q -0.69624,-0.05712 -0.703135,-0.05684 L -0.703135,-0.05817 L -0.665335,-0.05817 L -0.662185,-0.04634 L -0.664145,-0.04634 Q -0.667505,-0.05663 -0.680665,-0.05558 L -0.682555,-0.05558 Q -0.69127,-0.056105 -0.689905,-0.05257" />
      <path d="M -0.641115,-0.01183 L -0.660435,-0.01183 L -0.660435,-0.01316 Q -0.65354,-0.01302 -0.654485,-0.01946 L -0.654485,-0.04977 Q -0.65354,-0.057365 -0.660435,-0.05684 L -0.660435,-0.05817 L -0.641045,-0.05817 L -0.641045,-0.05684 Q -0.648255,-0.05719 -0.647345,-0.05054 L -0.647345,-0.03675 L -0.643425,-0.03661 L -0.626765,-0.05817 L -0.615495,-0.05817 L -0.615495,-0.05684 L -0.621585,-0.05355 L -0.636005,-0.03584 Q -0.635865,-0.03584 -0.635655,-0.03577 Q -0.618562,-0.031066 -0.625085,-0.01785 Q -0.631871,-0.011097 -0.641115,-0.01183 M -0.647345,-0.03416 L -0.647345,-0.01694 C -0.648091,-0.012463 -0.636106,-0.014707 -0.63408,-0.016765 C -0.632003,-0.018328 -0.630965,-0.020743 -0.630965,-0.02401 C -0.630778,-0.031173 -0.636238,-0.034557 -0.647345,-0.03416" />
      <path d="M 0.729735,-0.697675 L 0.729735,-0.729385 Q 0.73068,-0.73698 0.723365,-0.736455 L 0.723365,-0.737785 L 0.742965,-0.737785 L 0.742965,-0.736455 Q 0.73607,-0.736735 0.736875,-0.730155 L 0.736875,-0.699075 Q 0.736,-0.692565 0.742965,-0.692775 L 0.742965,-0.691445 L 0.729035,-0.691445 L 0.713565,-0.726795 L 0.697395,-0.691445 L 0.683535,-0.691445 L 0.683535,-0.692775 Q 0.6912,-0.692355 0.690185,-0.699075 L 0.690185,-0.727495 Q 0.69113,-0.737085 0.683395,-0.736455 L 0.683395,-0.737785 L 0.699845,-0.737785 L 0.699845,-0.736455 Q 0.692495,-0.737085 0.693265,-0.727495 L 0.693265,-0.699285 L 0.710835,-0.737785 L 0.711815,-0.737785 L 0.729735,-0.697675" />
      <path d="M 0.751855,-0.699075 L 0.751855,-0.730155 Q 0.75287,-0.737085 0.745065,-0.736455 L 0.745065,-0.737785 L 0.765855,-0.737785 L 0.765855,-0.736455 Q 0.758085,-0.737015 0.758995,-0.730155 L 0.758995,-0.699075 Q 0.758015,-0.692285 0.765855,-0.692775 L 0.765855,-0.691445 L 0.745065,-0.691445 L 0.745065,-0.692775 Q 0.75294,-0.692355 0.751855,-0.699075" />
      <path d="M 0.816605,-0.692775 L 0.816605,-0.691445 L 0.800155,-0.691445 L 0.800155,-0.692775 Q 0.807645,-0.692285 0.806875,-0.701735 L 0.806875,-0.725325 L 0.779925,-0.691445 L 0.767955,-0.691445 L 0.767955,-0.692775 Q 0.77149,-0.69225 0.774745,-0.696625 L 0.774745,-0.727495 Q 0.77569,-0.737085 0.767955,-0.736455 L 0.767955,-0.737785 L 0.784405,-0.737785 L 0.784405,-0.736455 Q 0.777055,-0.737085 0.777825,-0.727495 L 0.777825,-0.700055 L 0.808765,-0.738555 L 0.809955,-0.738555 L 0.809955,-0.701735 Q 0.810049,-0.691425 0.816605,-0.692775" />
      <path d="M 0.716155,-0.76848 L 0.716155,-0.80019 Q 0.7171,-0.807785 0.709785,-0.80726 L 0.709785,-0.80859 L 0.729385,-0.80859 L 0.729385,-0.80726 Q 0.72249,-0.80754 0.723295,-0.80096 L 0.723295,-0.76988 Q 0.72242,-0.76337 0.729385,-0.76358 L 0.729385,-0.76225 L 0.715455,-0.76225 L 0.699985,-0.7976 L 0.683815,-0.76225 L 0.669955,-0.76225 L 0.669955,-0.76358 Q 0.67762,-0.76316 0.676605,-0.76988 L 0.676605,-0.7983 Q 0.67755,-0.80789 0.669815,-0.80726 L 0.669815,-0.80859 L 0.686265,-0.80859 L 0.686265,-0.80726 Q 0.678915,-0.80789 0.679685,-0.7983 L 0.679685,-0.77009 L 0.697255,-0.80859 L 0.698235,-0.80859 L 0.716155,-0.76848" />
      <path d="M 0.779855,-0.80859 L 0.779855,-0.80726 Q 0.776005,-0.807925 0.773555,-0.80117 L 0.756125,-0.76141 L 0.754725,-0.76141 L 0.740165,-0.79578 Q 0.735195,-0.80901 0.731485,-0.80726 L 0.731485,-0.80859 L 0.745345,-0.80859 L 0.745345,-0.80726 Q 0.738727,-0.807038 0.741145,-0.80166 L 0.744365,-0.79347 L 0.762705,-0.79347 L 0.765575,-0.80019 Q 0.769806,-0.807705 0.762005,-0.80726 L 0.762005,-0.80859 L 0.779855,-0.80859 M 0.745555,-0.7906 L 0.753605,-0.77135 L 0.761725,-0.7906 L 0.745555,-0.7906" />
      <path d="M 0.829625,-0.76225 L 0.812965,-0.76225 L 0.812965,-0.76358 Q 0.821608,-0.762628 0.815065,-0.77065 L 0.807155,-0.78031 L 0.804215,-0.77618 Q 0.793691,-0.76213 0.801625,-0.76365 L 0.803585,-0.76358 L 0.803585,-0.76225 L 0.782445,-0.76225 L 0.782445,-0.76358 Q 0.78738,-0.762005 0.795115,-0.77457 L 0.802745,-0.78577 L 0.791755,-0.79928 Q 0.78493,-0.80859 0.781605,-0.80726 L 0.781605,-0.80859 L 0.797915,-0.80859 L 0.797915,-0.80726 Q 0.788136,-0.808368 0.796235,-0.79879 L 0.804565,-0.78843 L 0.811215,-0.79823 Q 0.81923,-0.808296 0.809395,-0.80726 L 0.809395,-0.80859 L 0.830185,-0.80859 L 0.830185,-0.80726 Q 0.82553,-0.80733 0.822415,-0.80208 L 0.808975,-0.7829 L 0.819195,-0.77016 Q 0.82427,-0.76302 0.829625,-0.76358 L 0.829625,-0.76225" />
      <path d="M -0.033845,-0.69848 L -0.033845,-0.73019 Q -0.0329,-0.737785 -0.040215,-0.73726 L -0.040215,-0.73859 L -0.020615,-0.73859 L -0.020615,-0.73726 Q -0.02751,-0.73754 -0.026705,-0.73096 L -0.026705,-0.69988 Q -0.02758,-0.69337 -0.020615,-0.69358 L -0.020615,-0.69225 L -0.034545,-0.69225 L -0.050015,-0.7276 L -0.066185,-0.69225 L -0.080045,-0.69225 L -0.080045,-0.69358 Q -0.07238,-0.69316 -0.073395,-0.69988 L -0.073395,-0.7283 Q -0.07245,-0.73789 -0.080185,-0.73726 L -0.080185,-0.73859 L -0.063735,-0.73859 L -0.063735,-0.73726 Q -0.071085,-0.73789 -0.070315,-0.7283 L -0.070315,-0.70009 L -0.052745,-0.73859 L -0.051765,-0.73859 L -0.033845,-0.69848" />
      <path d="M 0.029855,-0.73859 L 0.029855,-0.73726 Q 0.026005,-0.737925 0.023555,-0.73117 L 0.006125,-0.69141 L 0.004725,-0.69141 L -0.009835,-0.72578 Q -0.014805,-0.73901 -0.018515,-0.73726 L -0.018515,-0.73859 L -0.004655,-0.73859 L -0.004655,-0.73726 Q -0.011273,-0.737038 -0.008855,-0.73166 L -0.005635,-0.72347 L 0.012705,-0.72347 L 0.015575,-0.73019 Q 0.019806,-0.737705 0.012005,-0.73726 L 0.012005,-0.73859 L 0.029855,-0.73859 M -0.004445,-0.7206 L 0.003605,-0.70135 L 0.011725,-0.7206 L -0.004445,-0.7206" />
      <path d="M 0.079625,-0.69225 L 0.062965,-0.69225 L 0.062965,-0.69358 Q 0.071608,-0.692628 0.065065,-0.70065 L 0.057155,-0.71031 L 0.054215,-0.70618 Q 0.043691,-0.69213 0.051625,-0.69365 L 0.053585,-0.69358 L 0.053585,-0.69225 L 0.032445,-0.69225 L 0.032445,-0.69358 Q 0.03738,-0.692005 0.045115,-0.70457 L 0.052745,-0.71577 L 0.041755,-0.72928 Q 0.03493,-0.73859 0.031605,-0.73726 L 0.031605,-0.73859 L 0.047915,-0.73859 L 0.047915,-0.73726 Q 0.038136,-0.738368 0.046235,-0.72879 L 0.054565,-0.71843 L 0.061215,-0.72823 Q 0.06923,-0.738296 0.059395,-0.73726 L 0.059395,-0.73859 L 0.080185,-0.73859 L 0.080185,-0.73726 Q 0.07553,-0.73733 0.072415,-0.73208 L 0.058975,-0.7129 L 0.069195,-0.70016 Q 0.07427,-0.69302 0.079625,-0.69358 L 0.079625,-0.69225" />
      <path d="M -0.095165,-0.76085 C -0.096145,-0.76162 -0.097125,-0.76239 -0.098105,-0.76316 C -0.101546,-0.761454 -0.121245,-0.757853 -0.127785,-0.767675 C -0.136661,-0.775793 -0.136733,-0.794709 -0.128065,-0.80264 C -0.119764,-0.812071 -0.09957,-0.81116 -0.092155,-0.80026 L -0.093415,-0.799 C -0.10351,-0.80848 -0.118145,-0.809985 -0.12481,-0.795045 C -0.127678,-0.785359 -0.126698,-0.776784 -0.12187,-0.76932 C -0.114562,-0.759998 -0.097513,-0.761992 -0.094675,-0.77667 L -0.093065,-0.77667 L -0.093695,-0.76085 L -0.095165,-0.76085" />
      <path d="M -0.075775,-0.80257 L -0.075775,-0.78528 L -0.064995,-0.78528 Q -0.057505,-0.7843 -0.057295,-0.792 L -0.055685,-0.792 L -0.055685,-0.77576 L -0.057295,-0.77576 Q -0.057295,-0.783005 -0.064995,-0.78241 L -0.075775,-0.78241 L -0.075775,-0.76687 Q -0.07602,-0.76421 -0.073465,-0.76449 L -0.064015,-0.76449 Q -0.053655,-0.763475 -0.053375,-0.77184 L -0.051625,-0.77184 L -0.051835,-0.76183 L -0.089005,-0.76183 L -0.089005,-0.76316 Q -0.08211,-0.76288 -0.082915,-0.76946 L -0.082915,-0.80054 Q -0.08211,-0.80712 -0.089005,-0.80684 L -0.089005,-0.80817 L -0.051205,-0.80817 L -0.048055,-0.79634 L -0.050015,-0.79634 Q -0.053375,-0.80663 -0.066535,-0.80558 L -0.068425,-0.80558 Q -0.07714,-0.806105 -0.075775,-0.80257" />
      <path d="M 0.002345,-0.76316 L 0.002345,-0.76183 L -0.014105,-0.76183 L -0.014105,-0.76316 Q -0.006615,-0.76267 -0.007385,-0.77212 L -0.007385,-0.79571 L -0.034335,-0.76183 L -0.046305,-0.76183 L -0.046305,-0.76316 Q -0.04277,-0.762635 -0.039515,-0.76701 L -0.039515,-0.79788 Q -0.03857,-0.80747 -0.046305,-0.80684 L -0.046305,-0.80817 L -0.029855,-0.80817 L -0.029855,-0.80684 Q -0.037205,-0.80747 -0.036435,-0.79788 L -0.036435,-0.77044 L -0.005495,-0.80894 L -0.004305,-0.80894 L -0.004305,-0.77212 Q -0.004211,-0.76181 0.002345,-0.76316" />
      <path d="M 0.021035,-0.76477 L 0.021035,-0.79977 Q 0.022085,-0.807505 0.014455,-0.80684 L 0.014455,-0.80817 L 0.034895,-0.80817 L 0.034895,-0.80684 Q 0.027195,-0.80733 0.028175,-0.80054 L 0.028175,-0.76477 L 0.031955,-0.76477 Q 0.04228,-0.76344 0.043085,-0.77373 L 0.044765,-0.77373 L 0.044345,-0.76183 L 0.004865,-0.76183 L 0.004445,-0.77373 L 0.006125,-0.77373 Q 0.00707,-0.76351 0.017255,-0.76477 L 0.021035,-0.76477" />
      <path d="M 0.060095,-0.80257 L 0.060095,-0.78528 L 0.070875,-0.78528 Q 0.078365,-0.7843 0.078575,-0.792 L 0.080185,-0.792 L 0.080185,-0.77576 L 0.078575,-0.77576 Q 0.078575,-0.783005 0.070875,-0.78241 L 0.060095,-0.78241 L 0.060095,-0.76687 Q 0.05985,-0.76421 0.062405,-0.76449 L 0.071855,-0.76449 Q 0.082215,-0.763475 0.082495,-0.77184 L 0.084245,-0.77184 L 0.084035,-0.76183 L 0.046865,-0.76183 L 0.046865,-0.76316 Q 0.05376,-0.76288 0.052955,-0.76946 L 0.052955,-0.80054 Q 0.05376,-0.80712 0.046865,-0.80684 L 0.046865,-0.80817 L 0.084665,-0.80817 L 0.087815,-0.79634 L 0.085855,-0.79634 Q 0.082495,-0.80663 0.069335,-0.80558 L 0.067445,-0.80558 Q 0.05873,-0.806105 0.060095,-0.80257" />
      <path d="M 0.108885,-0.76183 L 0.089565,-0.76183 L 0.089565,-0.76316 Q 0.09646,-0.76302 0.095515,-0.76946 L 0.095515,-0.79977 Q 0.09646,-0.807365 0.089565,-0.80684 L 0.089565,-0.80817 L 0.108955,-0.80817 L 0.108955,-0.80684 Q 0.101745,-0.80719 0.102655,-0.80054 L 0.102655,-0.78675 L 0.106575,-0.78661 L 0.123235,-0.80817 L 0.134505,-0.80817 L 0.134505,-0.80684 L 0.128415,-0.80355 L 0.113995,-0.78584 Q 0.114135,-0.78584 0.114345,-0.78577 Q 0.131438,-0.781066 0.124915,-0.76785 Q 0.118129,-0.761097 0.108885,-0.76183 M 0.102655,-0.78416 L 0.102655,-0.76694 C 0.101909,-0.762463 0.113894,-0.764707 0.11592,-0.766765 C 0.117997,-0.768328 0.119035,-0.770743 0.119035,-0.77401 C 0.119222,-0.781173 0.113762,-0.784557 0.102655,-0.78416" />
      <path d="M -0.783845,-0.69498 L -0.783845,-0.72669 Q -0.7829,-0.734285 -0.790215,-0.73376 L -0.790215,-0.73509 L -0.770615,-0.73509 L -0.770615,-0.73376 Q -0.77751,-0.73404 -0.776705,-0.72746 L -0.776705,-0.69638 Q -0.77758,-0.68987 -0.770615,-0.69008 L -0.770615,-0.68875 L -0.784545,-0.68875 L -0.800015,-0.7241 L -0.816185,-0.68875 L -0.830045,-0.68875 L -0.830045,-0.69008 Q -0.82238,-0.68966 -0.823395,-0.69638 L -0.823395,-0.7248 Q -0.82245,-0.73439 -0.830185,-0.73376 L -0.830185,-0.73509 L -0.813735,-0.73509 L -0.813735,-0.73376 Q -0.821085,-0.73439 -0.820315,-0.7248 L -0.820315,-0.69659 L -0.802745,-0.73509 L -0.801765,-0.73509 L -0.783845,-0.69498" />
      <path d="M -0.720145,-0.73509 L -0.720145,-0.73376 Q -0.723995,-0.734425 -0.726445,-0.72767 L -0.743875,-0.68791 L -0.745275,-0.68791 L -0.759835,-0.72228 Q -0.764805,-0.73551 -0.768515,-0.73376 L -0.768515,-0.73509 L -0.754655,-0.73509 L -0.754655,-0.73376 Q -0.761273,-0.733538 -0.758855,-0.72816 L -0.755635,-0.71997 L -0.737295,-0.71997 L -0.734425,-0.72669 Q -0.730194,-0.734205 -0.737995,-0.73376 L -0.737995,-0.73509 L -0.720145,-0.73509 M -0.754445,-0.7171 L -0.746395,-0.69785 L -0.738275,-0.7171 L -0.754445,-0.7171" />
      <path d="M -0.670375,-0.68875 L -0.687035,-0.68875 L -0.687035,-0.69008 Q -0.678392,-0.689128 -0.684935,-0.69715 L -0.692845,-0.70681 L -0.695785,-0.70268 Q -0.706309,-0.68863 -0.698375,-0.69015 L -0.696415,-0.69008 L -0.696415,-0.68875 L -0.717555,-0.68875 L -0.717555,-0.69008 Q -0.71262,-0.688505 -0.704885,-0.70107 L -0.697255,-0.71227 L -0.708245,-0.72578 Q -0.71507,-0.73509 -0.718395,-0.73376 L -0.718395,-0.73509 L -0.702085,-0.73509 L -0.702085,-0.73376 Q -0.711864,-0.734868 -0.703765,-0.72529 L -0.695435,-0.71493 L -0.688785,-0.72473 Q -0.68077,-0.734796 -0.690605,-0.73376 L -0.690605,-0.73509 L -0.669815,-0.73509 L -0.669815,-0.73376 Q -0.67447,-0.73383 -0.677585,-0.72858 L -0.691025,-0.7094 L -0.680805,-0.69666 Q -0.67573,-0.68952 -0.670375,-0.69008 L -0.670375,-0.68875" />
      <path d="M -0.783845,-0.77198 L -0.783845,-0.80369 Q -0.7829,-0.811285 -0.790215,-0.81076 L -0.790215,-0.81209 L -0.770615,-0.81209 L -0.770615,-0.81076 Q -0.77751,-0.81104 -0.776705,-0.80446 L -0.776705,-0.77338 Q -0.77758,-0.76687 -0.770615,-0.76708 L -0.770615,-0.76575 L -0.784545,-0.76575 L -0.800015,-0.8011 L -0.816185,-0.76575 L -0.830045,-0.76575 L -0.830045,-0.76708 Q -0.82238,-0.76666 -0.823395,-0.77338 L -0.823395,-0.8018 Q -0.82245,-0.81139 -0.830185,-0.81076 L -0.830185,-0.81209 L -0.813735,-0.81209 L -0.813735,-0.81076 Q -0.821085,-0.81139 -0.820315,-0.8018 L -0.820315,-0.77359 L -0.802745,-0.81209 L -0.801765,-0.81209 L -0.783845,-0.77198" />
      <path d="M -0.720145,-0.81209 L -0.720145,-0.81076 Q -0.723995,-0.811425 -0.726445,-0.80467 L -0.743875,-0.76491 L -0.745275,-0.76491 L -0.759835,-0.79928 Q -0.764805,-0.81251 -0.768515,-0.81076 L -0.768515,-0.81209 L -0.754655,-0.81209 L -0.754655,-0.81076 Q -0.761273,-0.810538 -0.758855,-0.80516 L -0.755635,-0.79697 L -0.737295,-0.79697 L -0.734425,-0.80369 Q -0.730194,-0.811205 -0.737995,-0.81076 L -0.737995,-0.81209 L -0.720145,-0.81209 M -0.754445,-0.7941 L -0.746395,-0.77485 L -0.738275,-0.7941 L -0.754445,-0.7941" />
      <path d="M -0.670375,-0.76575 L -0.687035,-0.76575 L -0.687035,-0.76708 Q -0.678392,-0.766128 -0.684935,-0.77415 L -0.692845,-0.78381 L -0.695785,-0.77968 Q -0.706309,-0.76563 -0.698375,-0.76715 L -0.696415,-0.76708 L -0.696415,-0.76575 L -0.717555,-0.76575 L -0.717555,-0.76708 Q -0.71262,-0.765505 -0.704885,-0.77807 L -0.697255,-0.78927 L -0.708245,-0.80278 Q -0.71507,-0.81209 -0.718395,-0.81076 L -0.718395,-0.81209 L -0.702085,-0.81209 L -0.702085,-0.81076 Q -0.711864,-0.811868 -0.703765,-0.80229 L -0.695435,-0.79193 L -0.688785,-0.80173 Q -0.68077,-0.811796 -0.690605,-0.81076 L -0.690605,-0.81209 L -0.669815,-0.81209 L -0.669815,-0.81076 Q -0.67447,-0.81083 -0.677585,-0.80558 L -0.691025,-0.7864 L -0.680805,-0.77366 Q -0.67573,-0.76652 -0.670375,-0.76708 L -0.670375,-0.76575" />
    </g>
  </g>
</svg>