<?xml version='1.0' encoding='utf-8'?>
<svg width="100.09mm" height="221.659294mm" viewBox="-50.0225 -16.689167 50.045 110.829647" version="1.1" xmlns="http://www.w3.org/2000/svg">
  <g transform="scale(1,-1)" stroke-linecap="round">
    <g fill="none" stroke="rgb(0,0,0)" stroke-width="0.04500000000000002">
      <path d="M 0.0,0.0 A 168.96562584161893,168.96562584161893 -99.46232220802563 0,0 -50.0,16.666667 L -43.75,0.0 L -50.0,-16.666667 A 168.96562584161893,168.96562584161893 99.46232220802563 0,0 0.0,-0.0" />
      <path d="M -34.91001,0.480005 Q -34.952507,0.235002 -34.952507,-0.014998 Q -34.952507,-0.260002 -34.91001,-0.5 Q -34.867513,-0.739998 -34.750008,-1.002498 Q -34.632503,-1.264998 -34.455005,-1.459993 Q -34.277507,-1.654989 -33.980005,-1.782495 Q -33.682503,-1.910002 -33.307503,-1.910002 Q -31.97251,-1.910002 -31.807503,-0.464998 L -32.2875,-0.464998 Q -32.37251,-0.994995 -32.612508,-1.247493 Q -32.852507,-1.499992 -33.302507,-1.499992 Q -33.84751,-1.499992 -34.167505,-1.097493 Q -34.4875,-0.694995 -34.4875,-0.010002 Q -34.4875,0.689998 -34.180005,1.095003 Q -33.87251,1.500008 -33.342513,1.500008 Q -32.907503,1.500008 -32.672502,1.305005 Q -32.4375,1.110002 -32.357503,0.720011 L -31.882503,0.720011 Q -32.09751,1.910002 -33.2875,1.910002 Q -33.667513,1.910002 -33.970011,1.780005 Q -34.27251,1.650008 -34.450008,1.452507 Q -34.627507,1.255005 -34.74751,0.990007 Q -34.867513,0.725008 -34.91001,0.480005" />
      <path d="M -28.87251,1.850008 L -28.87251,-0.710002 Q -28.87251,-1.079989 -29.12251,-1.28999 Q -29.37251,-1.499992 -29.8125,-1.499992 Q -30.2375,-1.499992 -30.489998,-1.30249 Q -30.742497,-1.104989 -30.742497,-0.710002 L -30.742497,1.850008 L -31.207503,1.850008 L -31.207503,-0.710002 Q -31.207503,-1.264998 -30.835002,-1.5875 Q -30.4625,-1.910002 -29.8125,-1.910002 Q -29.17251,-1.910002 -28.790007,-1.585002 Q -28.407503,-1.260002 -28.407503,-0.710002 L -28.407503,1.850008 L -28.87251,1.850008" />
      <path d="M -25.125,-0.159993 Q -25.232503,-0.064998 -25.392497,0.005005 Q -25.0875,0.155005 -24.952498,0.360002 Q -24.817497,0.564998 -24.817497,0.875008 Q -24.817497,1.345011 -25.104997,1.59751 Q -25.392497,1.850008 -25.927507,1.850008 L -27.607503,1.850008 L -27.607503,-1.794995 L -27.142497,-1.794995 L -27.142497,-0.224992 L -25.942497,-0.224992 Q -25.632503,-0.224992 -25.4875,-0.382495 Q -25.342497,-0.539998 -25.342497,-0.874992 L -25.342497,-1.199992 Q -25.342497,-1.564998 -25.242497,-1.794995 L -24.677507,-1.794995 L -24.677507,-1.679989 Q -24.807503,-1.589998 -24.852507,-1.45 Q -24.89751,-1.310002 -24.89751,-1.104989 Q -24.89751,-1.064998 -24.895003,-0.979997 Q -24.892497,-0.894995 -24.892497,-0.849992 Q -24.892497,-0.704989 -24.907503,-0.599992 Q -24.92251,-0.494995 -24.970003,-0.374992 Q -25.017497,-0.254989 -25.125,-0.159993 M -25.492505,1.305005 Q -25.302507,1.170011 -25.302507,0.810002 Q -25.302507,0.485002 -25.475008,0.335002 Q -25.64751,0.185002 -26.017497,0.185002 L -27.142497,0.185002 L -27.142497,1.439998 L -26.017497,1.439998 Q -25.682503,1.439998 -25.492505,1.305005" />
      <path d="M -22.702507,-1.794995 L -21.4375,1.850008 L -21.932503,1.850008 L -22.942497,-1.235002 L -24.0125,1.850008 L -24.5125,1.850008 L -23.202507,-1.794995 L -22.702507,-1.794995" />
      <path d="M -20.6375,-0.135002 L -18.652507,-0.135002 L -18.652507,0.275008 L -20.6375,0.275008 L -20.6375,1.439998 L -18.577507,1.439998 L -18.577507,1.850008 L -21.102507,1.850008 L -21.102507,-1.794995 L -18.4875,-1.794995 L -18.4875,-1.385002 L -20.6375,-1.385002 L -20.6375,-0.135002" />
      <path d="M -17.9375,-1.794995 L -16.532503,-1.794995 Q -15.842497,-1.794995 -15.444995,-1.307495 Q -15.047493,-0.819995 -15.047493,0.030005 Q -15.047493,0.880005 -15.442497,1.365007 Q -15.8375,1.850008 -16.532503,1.850008 L -17.9375,1.850008 L -17.9375,-1.794995 M -17.472493,-1.385002 L -17.472493,1.439998 L -16.6125,1.439998 Q -16.072493,1.439998 -15.792497,1.080005 Q -15.5125,0.720011 -15.5125,0.025008 Q -15.5125,-0.664998 -15.792497,-1.025 Q -16.072493,-1.385002 -16.6125,-1.385002 L -17.472493,-1.385002" />
      <path d="M -50.0,-23.333333 L -50.0,-56.666667 L 0.0,-40.0 L -50.0,-23.333333" />
      <path d="M -35.317497,-41.434993 Q -35.512492,-41.499992 -35.792505,-41.499992 Q -36.087492,-41.499992 -36.299992,-41.422493 Q -36.512492,-41.344995 -36.619995,-41.214998 Q -36.727498,-41.085002 -36.775,-40.95 Q -36.822502,-40.814998 -36.822502,-40.660002 L -36.822502,-40.635002 L -37.262492,-40.635002 Q -37.257495,-40.935002 -37.164998,-41.164998 Q -37.072502,-41.394995 -36.932503,-41.532495 Q -36.792505,-41.669995 -36.597502,-41.757495 Q -36.402498,-41.844995 -36.214998,-41.877498 Q -36.027498,-41.910002 -35.822502,-41.910002 Q -35.497502,-41.910002 -35.239998,-41.835002 Q -34.982495,-41.760002 -34.827498,-41.644995 Q -34.672502,-41.529989 -34.572502,-41.37749 Q -34.472502,-41.224992 -34.435002,-41.082495 Q -34.397502,-40.939998 -34.397502,-40.794995 Q -34.397502,-40.460002 -34.6,-40.219995 Q -34.802498,-39.979989 -35.172502,-39.879989 L -36.087492,-39.635002 Q -36.417505,-39.544995 -36.552498,-39.424992 Q -36.687492,-39.304989 -36.687492,-39.094995 Q -36.687492,-38.819995 -36.464998,-38.649992 Q -36.242505,-38.479989 -35.872502,-38.479989 Q -35.437492,-38.479989 -35.202498,-38.672493 Q -34.967505,-38.864998 -34.962492,-39.219995 L -34.522502,-39.219995 Q -34.527498,-38.685002 -34.877498,-38.3875 Q -35.227498,-38.089998 -35.857495,-38.089998 Q -36.457495,-38.089998 -36.804997,-38.377498 Q -37.152498,-38.664998 -37.152498,-39.160002 Q -37.152498,-39.824992 -36.437492,-40.010002 L -35.532495,-40.249992 Q -34.862492,-40.424992 -34.862492,-40.839998 Q -34.862492,-40.954989 -34.899992,-41.057495 Q -34.937492,-41.160002 -35.029997,-41.264998 Q -35.122502,-41.369995 -35.317497,-41.434993" />
      <path d="M -32.452498,-38.560002 L -31.257511,-38.560002 L -31.257511,-38.149992 L -34.117505,-38.149992 L -34.117505,-38.560002 L -32.917505,-38.560002 L -32.917505,-41.794995 L -32.452498,-41.794995 L -32.452498,-38.560002" />
      <path d="M -28.225008,-40.159993 Q -28.332511,-40.064998 -28.492505,-39.994995 Q -28.187508,-39.844995 -28.052506,-39.639998 Q -27.917505,-39.435002 -27.917505,-39.124992 Q -27.917505,-38.654989 -28.205005,-38.40249 Q -28.492505,-38.149992 -29.027515,-38.149992 L -30.707511,-38.149992 L -30.707511,-41.794995 L -30.242505,-41.794995 L -30.242505,-40.224992 L -29.042505,-40.224992 Q -28.732511,-40.224992 -28.587508,-40.382495 Q -28.442505,-40.539998 -28.442505,-40.874992 L -28.442505,-41.199992 Q -28.442505,-41.564998 -28.342505,-41.794995 L -27.777515,-41.794995 L -27.777515,-41.679989 Q -27.907511,-41.589998 -27.952515,-41.45 Q -27.997518,-41.310002 -27.997518,-41.104989 Q -27.997518,-41.064998 -27.995011,-40.979997 Q -27.992505,-40.894995 -27.992505,-40.849992 Q -27.992505,-40.704989 -28.007511,-40.599992 Q -28.022518,-40.494995 -28.070011,-40.374992 Q -28.117505,-40.254989 -28.225008,-40.159993 M -28.592513,-38.694995 Q -28.402515,-38.829989 -28.402515,-39.189998 Q -28.402515,-39.514998 -28.575016,-39.664998 Q -28.747518,-39.814998 -29.117505,-39.814998 L -30.242505,-39.814998 L -30.242505,-38.560002 L -29.117505,-38.560002 Q -28.782511,-38.560002 -28.592513,-38.694995" />
      <path d="M -25.227515,-40.699992 L -24.852515,-41.794995 L -24.332511,-41.794995 L -25.612508,-38.149992 L -26.212508,-38.149992 L -27.512508,-41.794995 L -27.017505,-41.794995 L -26.632511,-40.699992 L -25.227515,-40.699992 M -25.357511,-40.310002 L -26.517505,-40.310002 L -25.917505,-38.649992 L -25.357511,-40.310002" />
      <path d="M -23.362508,-38.149992 L -23.832511,-38.149992 L -23.832511,-41.794995 L -23.362508,-41.794995 L -23.362508,-38.149992" />
      <path d="M -22.352498,-40.367497 Q -22.387492,-40.174992 -22.387492,-39.985002 Q -22.387492,-39.314998 -22.037492,-38.907495 Q -21.687492,-38.499992 -21.107495,-38.499992 Q -20.692505,-38.499992 -20.410002,-38.70249 Q -20.127498,-38.904989 -20.052498,-39.254989 L -19.577498,-39.254989 Q -19.672502,-38.699992 -20.075,-38.394995 Q -20.477498,-38.089998 -21.102498,-38.089998 Q -21.502498,-38.089998 -21.819995,-38.222493 Q -22.137492,-38.354989 -22.324992,-38.554989 Q -22.512492,-38.754989 -22.637492,-39.019995 Q -22.762492,-39.285002 -22.807495,-39.527498 Q -22.852498,-39.769995 -22.852498,-40.010002 Q -22.852498,-40.849992 -22.3875,-41.379997 Q -21.922502,-41.910002 -21.182495,-41.910002 Q -20.457495,-41.910002 -19.937492,-41.329989 L -19.822502,-41.814998 L -19.527498,-41.814998 L -19.527498,-39.869995 L -21.047502,-39.869995 L -21.047502,-40.279989 L -19.937492,-40.279989 L -19.937492,-40.379989 Q -19.937492,-40.869995 -20.259993,-41.184993 Q -20.582495,-41.499992 -21.082495,-41.499992 Q -21.382495,-41.499992 -21.617497,-41.397493 Q -21.852498,-41.294995 -21.994995,-41.137492 Q -22.137492,-40.979989 -22.227498,-40.769995 Q -22.317505,-40.560002 -22.352498,-40.367497" />
      <path d="M -16.587492,-40.135002 L -16.587492,-41.794995 L -16.122502,-41.794995 L -16.122502,-38.149992 L -16.587492,-38.149992 L -16.587492,-39.724992 L -18.462492,-39.724992 L -18.462492,-38.149992 L -18.927498,-38.149992 L -18.927498,-41.794995 L -18.462492,-41.794995 L -18.462492,-40.135002 L -16.587492,-40.135002" />
      <path d="M -13.932495,-38.560002 L -12.737508,-38.560002 L -12.737508,-38.149992 L -15.597502,-38.149992 L -15.597502,-38.560002 L -14.397502,-38.560002 L -14.397502,-41.794995 L -13.932495,-41.794995 L -13.932495,-38.560002" />
      <path d="M 0.0,-80.0 A 168.96562584161893,168.96562584161893 -99.46232220802563 0,0 -44.369261,-66.121381 A 2.5,2.5 0.0 0,1 -47.777565,-69.259828 L -44.079178,-79.122191 A 2.5,2.5 0.0 0,0 -44.079178,-80.877809 L -47.777565,-90.740172 A 2.5,2.5 0.0 0,1 -44.369261,-93.878619 A 168.96562584161893,168.96562584161893 99.46232220802563 0,0 0.0,-80.0" />
      <path d="M -35.445011,-80.162508 L -33.705021,-80.162508 L -33.705021,-79.752498 L -35.445011,-79.752498 L -35.445011,-78.587508 L -33.465015,-78.587508 L -33.465015,-78.177498 L -35.910018,-78.177498 L -35.910018,-81.822502 L -35.445011,-81.822502 L -35.445011,-80.162508" />
      <path d="M -32.420011,-78.177498 L -32.890015,-78.177498 L -32.890015,-81.822502 L -32.420011,-81.822502 L -32.420011,-78.177498" />
      <path d="M -31.244995,-78.177498 L -31.710002,-78.177498 L -31.710002,-81.822502 L -29.444995,-81.822502 L -29.444995,-81.412508 L -31.244995,-81.412508 L -31.244995,-78.177498" />
      <path d="M -28.554989,-78.177498 L -29.019995,-78.177498 L -29.019995,-81.822502 L -26.754989,-81.822502 L -26.754989,-81.412508 L -28.554989,-81.412508 L -28.554989,-78.177498" />
      <path d="M -25.864982,-80.162508 L -23.879989,-80.162508 L -23.879989,-79.752498 L -25.864982,-79.752498 L -25.864982,-78.587508 L -23.804989,-78.587508 L -23.804989,-78.177498 L -26.329989,-78.177498 L -26.329989,-81.822502 L -23.714982,-81.822502 L -23.714982,-81.412508 L -25.864982,-81.412508 L -25.864982,-80.162508" />
      <path d="M -21.799976,-78.587508 L -20.604989,-78.587508 L -20.604989,-78.177498 L -23.464982,-78.177498 L -23.464982,-78.587508 L -22.264982,-78.587508 L -22.264982,-81.822502 L -21.799976,-81.822502 L -21.799976,-78.587508" />
      <path d="M -19.679989,-80.162508 L -17.694995,-80.162508 L -17.694995,-79.752498 L -19.679989,-79.752498 L -19.679989,-78.587508 L -17.619995,-78.587508 L -17.619995,-78.177498 L -20.144995,-78.177498 L -20.144995,-81.822502 L -17.529989,-81.822502 L -17.529989,-81.412508 L -19.679989,-81.412508 L -19.679989,-80.162508" />
      <path d="M -16.979989,-81.822502 L -15.574992,-81.822502 Q -14.884985,-81.822502 -14.487484,-81.335002 Q -14.089982,-80.847502 -14.089982,-79.997502 Q -14.089982,-79.147502 -14.484985,-78.6625 Q -14.879989,-78.177498 -15.574992,-78.177498 L -16.979989,-78.177498 L -16.979989,-81.822502 M -16.514982,-81.412508 L -16.514982,-78.587508 L -15.654989,-78.587508 Q -15.114982,-78.587508 -14.834985,-78.947502 Q -14.554989,-79.307495 -14.554989,-80.002498 Q -14.554989,-80.692505 -14.834985,-81.052507 Q -15.114982,-81.412508 -15.654989,-81.412508 L -16.514982,-81.412508" />
    </g>
  </g>
</svg>