<?xml version='1.0' encoding='utf-8'?>
<svg width="144.060104mm" height="135.227591mm" viewBox="-1.385032 -3.051698 5.43673 5.103397" version="1.1" xmlns="http://www.w3.org/2000/svg">
  <g transform="scale(1,-1)" stroke-linecap="round">
    <g fill="none" stroke="rgb(0,0,0)" stroke-width="0.0033965385839922996">
      <path d="M 0.0,0.0 C 0.083964,0.083569 0.138275,0.192059 0.156558,0.284784 C 0.175625,0.378348 0.160684,0.455388 0.127732,0.501044 C 0.06016,0.595208 -0.066608,0.561289 -0.153214,0.460082 C -0.242654,0.359277 -0.297653,0.199224 -0.300345,0.037396 C -0.30384,-0.125334 -0.25784,-0.29144 -0.164706,-0.429412 C -0.071673,-0.567468 0.06822,-0.679268 0.250864,-0.735879 C 0.43277,-0.791288 0.660588,-0.795256 0.91377,-0.687632 C 1.039595,-0.633033 1.171591,-0.549681 1.295899,-0.420288 C 1.419008,-0.290363 1.53725,-0.115078 1.605245,0.137625 C 1.6692,0.39101 1.692517,0.72196 1.523373,1.183409 C 1.436587,1.414171 1.298725,1.678191 1.064842,1.980722 C 0.829968,2.282825 0.499482,2.624604 0.0,3.0" />
      <circle cx="0.0" cy="0.0" r="0.05" />
      <circle cx="0.666667" cy="0.666667" r="0.05" />
      <circle cx="0.0" cy="1.333333" r="0.05" />
      <circle cx="-1.333333" cy="0.0" r="0.05" />
      <circle cx="0.0" cy="-2.0" r="0.05" />
      <circle cx="4.0" cy="0.0" r="0.05" />
      <circle cx="0.0" cy="3.0" r="0.05" />
    </g>
  </g>
</svg>