<?xml version="1.0" encoding="UTF-8" standalone="no"?>
    <svg
    xmlns:svg="http://www.w3.org/2000/svg"
    xmlns="http://www.w3.org/2000/svg"
    width="119"
    height="215"
    >
        <g transform="scale(50, -50)   translate(1.2268111732312272,-2.66025200291754)" stroke-width="0.02"  fill="none">
        <!-- hidden lines -->
        <g  stroke="rgb(160,160,160)" fill="none" stroke-dasharray="0.02,0.02" >
    
        </g>

        <!-- solid lines -->
        <g  stroke="rgb(0,0,0)" fill="none">
    			<path d="M-0.5825503397383284,-0.3839429399545558 L-0.5581796709130951,-0.36365033649605627 L-0.5360008212454157,-0.34092177099553234 L-0.5161810473244078,-0.31615930764203837 L-0.4988434280150169,-0.28977278873748097 L-0.4840676228154339,-0.26217161207183254 L-0.4718917139375857,-0.23375721936023644 L-0.46231495327623473,-0.2049164917347129 L-0.45530121509990207,-0.17601618185737572 L-0.4507829495462732,-0.14739844764458074 L-0.44866543887993093,-0.11937749418713249 L-0.4488311752945713,-0.09223728122767269 L-0.4511442028320229,-0.06623021516975497 L-0.45545429381288316,-0.04157671748113416 L-0.46160085941102774,-0.01846554496974412 L-0.4694165225212127,0.0029452694917326072 L-0.4787303072838762,0.022526986299423686 L-0.48937042251188845,0.04017836210526726 L-0.501166635269823,0.05582359894012663 L-0.5139522458492263,0.06941013826361435 L-0.5275656865271138,0.08090638382906638 L-0.54185177415697,0.09029942222271234 L-0.5566626513068866,0.09759279557740888 L-0.5718584528611015,0.1028043678119272 L-0.587307735268403,0.10596431412498675 L-0.6184842761447544,0.10630053587534649 L-0.6493138735231807,0.09902202088168552 L-0.6790526287262459,0.0846430871558403 L-0.7070818319621477,0.0637343650154479 L-0.73289562184653,0.03689415191582459 L-0.7560874093141406,0.004727265991382955 L-0.7763362587724348,-0.03216997035288517 L-0.7933939629164289,-0.07321989539340944 L-0.8070732191452491,-0.11786993477963777 L-0.8172370911151332,-0.1655962138269092 L-0.823789793806752,-0.21590509532032634 L-0.8266687526978497,-0.26833321871606536 L-0.8258378396262024,-0.32244647793372555 L-0.8212816664084546,-0.377838261771673 L-0.8130008126616772,-0.43412719091255864 L-0.8010078699206301,-0.49095451500739473 L-0.7853241956428226,-0.547981278724115 L-0.7659772852500534,-0.6048853234559485 L-0.7429986863180611,-0.6613581585707295 L-0.7164223955438669,-0.7171017100746913 L-0.6862836959020712,-0.7718249332193834 L-0.6526184085607066,-0.8252402571041492 L-0.6154625520939015,-0.8770598121864812 L-0.5748524210123913,-0.926991374445156 L-0.5308251176324639,-0.9747339414616718 L-0.4834195971593975,-1.0199728345976038 L-0.432678317352316,-1.062374196347318 L-0.37864962363630245,-1.101578721230027 L-0.3213910512254271,-1.1371944203271949 L-0.26097379204945825,-1.1687881713965436 L-0.19748866197101794,-1.1958757454249624 L-0.1310540211261939,-1.2179099227590306 L-0.06182625858891093,-1.2342662128271307 L0.009986332187658419,-1.244225565000281 L0.08410516633578763,-1.2469532970242905 L0.12191729124492359,-1.2453066087789104 L0.16015694344411724,-1.2414732629933722 L0.19875733086423084,-1.235303920869226 L0.23764110197926872,-1.2266360252531578 L0.27671867388203447,-1.2152923649413772 L0.31588629336599044,-1.2010794741807482 L0.35502378606687224,-1.183785847692005 L0.39399194081264566,-1.163179949516003 L0.4326294670249911,-1.1390079919208485 L0.4707494520794103,-1.1109914585926026 L0.5081352327093275,-1.0788243444984074 L0.5445355795566559,-1.04217008335834 L0.5796590765410693,-1.0006581328834074 L0.6131675565668284,-0.9538801882543546 L0.644668431974001,-0.9013859963324284 L0.6737057319310995,-0.8426787476600295 L0.699749629699882,-0.7772100316206141 L0.7221842107328342,-0.704374353843684 L0.740293198755458,-0.6235032363576732 L0.7532433230167175,-0.533858953258762 L0.7600649786963342,-0.4346280020637162 L0.7596298088752835,-0.324914479234237 L0.7562886029616038,-0.26582265413435335 L0.7506248281806511,-0.20373362532148043 L0.7424406419930415,-0.13850944683514288 L0.7315227270339519,-0.0700059409613952 L0.71764113439461,0.0019274106673560546 L0.7005480591711172,0.07744753726441575 L0.6799765492752186,0.1567178004659635 L0.6556391500194269,0.2399079556211202 L0.6272264889148512,0.3271940390999794 L0.5944058075372867,0.4187581656171876 L0.5568194503196453,0.514788216953227 L0.5140833238258895,0.6154774005083459 L0.4657853445748573,0.7210236528300433 L0.41148389895010556,0.8316288596050246 L0.3507063453000556,0.9474978596065712 L0.28294759616369103,1.0688371957617517 L0.20766882781249282,1.195853571899285 L0.1242963751417579,1.3287519689455078 L0.03222088252287045,1.467733369483137 L-0.06920320434132665,1.612992034869729 L-0.18065770416555643,1.7647122748007642 L-0.3028602037922424,1.9230646456625917 L-0.4365628602065318,2.0882015117371964 L-0.5825503397382419,2.2602519029174526 " />
			<path d="M-0.5825503397383284,-0.3839429399545558 L0.23024428479529757,-0.6591244967211211 " />
			<path d="M-0.5825503397383284,-0.3839429399545558 L-0.5825503397383284,0.49745534100280014 " />
			<path d="M-0.5825503397383284,-0.3839429399545558 L0.0,0.0 " />
			<path d="M0.23024428479529757,-0.6591244967211211 L0.21563938138570898,-0.6516549892973128 L0.20484445277862176,-0.6413438409788601 L0.1896045535686163,-0.6159854761842143 " />
			<path d="M0.23024428479529757,-0.6591244967211211 L0.21563938138570898,-0.6567046669486309 L0.20484445277862176,-0.6597063051654717 L0.19658950737320213,-0.6663222553751997 L0.1896045535686163,-0.6747453615813713 " />
			<path d="M-0.5825503397383284,0.49745534100280014 L-0.5848786576731904,0.4824059961430019 L-0.5910169504105537,0.4727781192725345 L-0.5996952263495845,0.4667645543949543 L-0.6096434938894493,0.4625581455138178 " />
			<path d="M-0.5825503397383284,0.49745534100280014 L-0.5802220218034664,0.48082943514069343 L-0.574083729066103,0.46704517017323105 L-0.5554571855872075,0.4442127083960469 " />
			<path d="M0.0,0.0 L-0.010467701417173096,-0.004374135876649325 L-0.018204698116822765,-0.0028169847802740726 L-0.02412122500479015,0.0026943576314508943 L-0.029127516986916378,0.010182795700850686 " />
			<path d="M0.0,0.0 L-0.010467701417173096,-0.009423813527967517 L-0.018204698116822765,-0.02117944896688567 L-0.029127516986916378,-0.04857708969630625 " />
			<path d="M0.3552114583173426,-0.6211161709933657 L0.3052247211993163,-0.6824166474758521 " />
			<path d="M0.3052247211993163,-0.6824166474758521 L0.35764957760935995,-0.7825766062475652 " />
			<path d="M0.35764957760936,-0.7825766062475653 L0.33428173215401824,-0.7746651364905266 " />
			<path d="M0.33428173215401824,-0.7746651364905266 L0.29384572874663734,-0.6939886203865389 " />
			<path d="M0.2938457287466373,-0.6939886203865387 L0.253205997519956,-0.747215955357721 " />
			<path d="M0.253205997519956,-0.7472159553577209 L0.23024428479529754,-0.7394419868017358 " />
			<path d="M0.23024428479529757,-0.7394419868017359 L0.2826698026593,-0.6747804040642448 " />
			<path d="M0.2826698026593,-0.6747804040642448 L0.23349533100264033,-0.5799076880789077 " />
			<path d="M0.2334953310026403,-0.5799076880789077 L0.2564570437272988,-0.5876816566348928 " />
			<path d="M0.2564570437272987,-0.5876816566348928 L0.29445492784266225,-0.6635661384680995 " />
			<path d="M0.29445492784266225,-0.6635661384680995 L0.3326565397773262,-0.6134799275817583 " />
			<path d="M0.3326565397773261,-0.6134799275817583 L0.35521145831734247,-0.6211161709933656 " />
			<path d="M-0.6566163160443509,0.6653180911860805 L-0.5665990467956683,0.5744657184945234 " />
			<path d="M-0.5665990467956683,0.5744657184945232 L-0.5084843634323057,0.5547902819743786 " />
			<path d="M-0.5084843634323059,0.5547902819743786 L-0.5084843634323059,0.5342974850286172 " />
			<path d="M-0.5084843634323059,0.5342974850286175 L-0.5665990467956683,0.5539729215487621 " />
			<path d="M-0.5665990467956683,0.5539729215487621 L-0.6566163160443509,0.5225312827574861 " />
			<path d="M-0.6566163160443509,0.5225312827574857 L-0.6566163160443509,0.5478714833350097 " />
			<path d="M-0.6566163160443509,0.5478714833350098 L-0.5844807931169915,0.5706040716599471 " />
			<path d="M-0.5844807931169916,0.5706040716599472 L-0.656616316044351,0.640858715062508 " />
			<path d="M-0.6566163160443509,0.6408587150625082 L-0.6566163160443509,0.6653180911860808 " />
			<path d="M0.10616989423344636,0.014996732436218574 L0.10616989423344636,0.13068025681187156 " />
			<path d="M0.10616989423344636,0.1306802568118715 L0.09393624228280543,0.12261739258211295 " />
			<path d="M0.0939362422828054,0.12261739258211296 L0.01194209233236361,-0.02749568764927421 " />
			<path d="M0.011942092332363652,-0.027495687649274236 L0.011942092332363655,0.06901771102905918 " />
			<path d="M0.011942092332363652,0.06901771102905918 L-3.122502256758253e-17,0.06114700574141655 " />
			<path d="M0.0,0.06114700574141657 L-1.7733811372348828e-18,0.0 " />
			<path d="M-1.7733811372348828e-18,0.0 L-3.5467622744697656e-18,-0.06114700574141657 " />
			<path d="M0.0,-0.06114700574141657 L0.011942092332363683,-0.05327630045377394 " />
			<path d="M0.011942092332363763,-0.053276300453773906 L0.09422732782040266,0.09746903849314056 " />
			<path d="M0.09422732782040255,0.09746903849314048 L0.09422732782040255,0.007125714695011484 " />
			<path d="M0.09422732782040255,0.007125714695011498 L0.10616989423344635,0.014996732436218537 " />

        </g>
        </g>
    </svg>
    