<?xml version="1.0" encoding="UTF-8" standalone="no"?>
    <svg
    xmlns:svg="http://www.w3.org/2000/svg"
    xmlns="http://www.w3.org/2000/svg"
    width="137"
    height="228"
    >
        <g transform="scale(50, -50)   translate(0.7005197222022916,-3.400000099999992)" stroke-width="0.02"  fill="none">
        <!-- hidden lines -->
        <g  stroke="rgb(160,160,160)" fill="none" stroke-dasharray="0.02,0.02" >
    
        </g>

        <!-- solid lines -->
        <g  stroke="rgb(0,0,0)" fill="none">
    			<path d="M0.0,0.0 L0.02998379675458245,0.032384441794229966 L0.05727094777431923,0.06669071042572326 L0.08165567341442824,0.10239839308909282 L0.102986546904566,0.13899522175970014 L0.12116556132418187,0.17598611096214642 L0.13614586324834213,0.21290097251665163 L0.14792837308819995,0.24930115359146043 L0.15655753716560403,0.2847844275635645 L0.16211646363638546,0.31898854266602417 L0.16472168591816083,0.35159339702250836 L0.1645177765791499,0.3823219580547506 L0.16167200537491888,0.41094007866231325 L0.15636920088930417,0.43725538264707653 L0.1488069392642703,0.4611153992129072 L0.1391911484183729,0.4824051232484239 L0.12773218390072774,0.501044166990316 L0.11464140437678907,0.5169836520343514 L0.10012825135894894,0.5302029707527441 L0.08439781934884598,0.5407065248829852 L0.06764888884786148,0.5485205278653094 L0.05007238526547933,0.5536899375110644 L0.03185022101529735,0.5562755675014021 L0.013154475379757582,0.5563514104512501 L-0.005853133604081441,0.5540021919852527 L-0.02502152953783884,0.5493211644332768 L-0.0442103519410511,0.5424081402090875 L-0.08214071767903335,0.5223079738383055 L-0.11872899509305904,0.4945709639164235 L-0.15321397123569122,0.4600821837393602 L-0.18497327316167786,0.41971474938631176 L-0.21350666495289197,0.37431104261494086 L-0.2384192921370502,0.3246709050956952 L-0.2594057795338898,0.27154507047007254 L-0.27623568442735497,0.21563241454621854 L-0.288740530870841,0.15757990495527607 L-0.29680247234268414,0.09798439605418591 L-0.30034452196284406,0.03739563467567022 L-0.2993222304188718,-0.023679981878346065 L-0.29371666527335627,-0.084775217548829 L-0.28352853964256897,-0.1454575969280781 L-0.26877334518255575,-0.20532493256166 L-0.249477358466592,-0.2640008628082004 L-0.22567440774718897,-0.32113044064506374 L-0.19740330673544598,-0.37637578270991884 L-0.16470588235294117,-0.429411764705882 L-0.12762554405827198,-0.4799217315269868 L-0.08620636346184347,-0.5275931760896043 L-0.04049265504734147,-0.5721133283102725 L0.009470927210368615,-0.6131645836769873 L0.0636387354745903,-0.6504196883455239 L0.12196284225650658,-0.6835365836983949 L0.1843910107944031,-0.7121527969249222 L0.25086376059514665,-0.7358792445046374 L0.32131030475595573,-0.7542932915442397 L0.3956430542012839,-0.7669308807010351 L0.47375027607774284,-0.7732775088243242 L0.5554863491760906,-0.7727577863390205 L0.6406588644064966,-0.76472326276469 L0.7290115535224889,-0.7484381409617394 L0.7742774930350129,-0.7369437006906736 L0.8202016671267188,-0.7230624329730327 L0.8667227977639113,-0.7066697922011786 L0.9137699251008258,-0.6876320338006522 L0.9612608733120831,-0.6658053799474786 L1.0091004750286277,-0.64103511188228 L1.0571785143306072,-0.613154583244883 L1.1053673412515912,-0.581984148987106 L1.1535191024955056,-0.547330004806432 L1.2014625233419876,-0.5089829327829403 L1.248999164267139,-0.46671695013554265 L1.2958990623518347,-0.4202878599279516 L1.3418956517748646,-0.3694317053993873 L1.3866798392542252,-0.3138631337021954 L1.4298930888553347,-0.2532736806400644 L1.4711193457895353,-0.1873299961019765 L1.5098756003910547,-0.11567204105240288 L1.5456008612141785,-0.037911302187392255 L1.5776432701852368,0.046370908962301435 L1.6052450534103984,0.13762497785724154 L1.6275249596450279,0.23633419779554388 L1.6363550848765092,0.28864470741327614 L1.6434577966377615,0.3430154882152972 L1.6486785527892485,0.39951640675765493 L1.6518506371828499,0.4582193731283067 L1.6527942016296633,0.5191982752836989 L1.6513152377007205,0.5825288857898053 L1.6472044748919783,0.6482887360673939 L1.6402362019605463,0.7165569525135008 L1.6301670086605664,0.7874140480490471 L1.6167344457110326,0.8609416617171167 L1.5996556016582637,0.9372222379187263 L1.5786255964053326,1.016338635714518 L1.553315992632178,1.0983736573344425 L1.523373128197322,1.1834094836177906 L1.4884163749819816,1.2715270025505439 L1.4480363326110053,1.3628050153779276 L1.4017929691793212,1.457319302955501 L1.3492137256609615,1.5551415330788496 L1.2897916062310442,1.6563379875281625 L1.2229832834571217,1.7609680855230265 L1.1482072553984648,1.8690826782676913 L1.0648421012856035,1.9807220873659763 L0.9722248938398832,2.0959138582178114 L0.8696498396328304,2.214670198235198 L0.7563672343600225,2.3369850690413765 L0.631582837659085,2.4628309020077865 L0.4944577922170543,2.5921549078712847 L0.34410923436726576,2.7248749541687047 L0.17961176799805836,2.860874989322789 L1.0125233984581261e-13,2.9999999999999316 " />
			<path d="M0.0,0.0 L1.0,0.0 " />
			<path d="M0.0,0.0 L0.0,1.0 " />
			<path d="M1.0,0.0 L0.98203125,0.0028645833333333336 L0.96875,0.010416666666666668 L0.95859375,0.021093749999999998 L0.95,0.033333333333333284 " />
			<path d="M1.0,0.0 L0.98203125,-0.0028645833333333336 L0.96875,-0.010416666666666668 L0.95859375,-0.021093749999999998 L0.95,-0.033333333333333284 " />
			<path d="M0.0,1.0 L-0.002864583333333335,0.98203125 L-0.01041666666666667,0.96875 L-0.02109375,0.95859375 L-0.03333333333333329,0.95 " />
			<path d="M0.0,1.0 L0.002864583333333332,0.98203125 L0.010416666666666663,0.96875 L0.02109374999999999,0.95859375 L0.03333333333333328,0.95 " />
			<path d="M0.0,0.0 L-1.994931997373328e-18,0.0028645833333333336 L-3.469446951953614e-18,0.010416666666666668 L-5.551115123125779e-18,0.033333333333333284 " />
			<path d="M0.0,0.0 L-1.994931997373328e-18,-0.0028645833333333336 L-3.469446951953614e-18,-0.010416666666666668 L-5.551115123125779e-18,-0.033333333333333284 " />
			<path d="M1.15375,0.09112508138020833 L1.0922501627604166,0.0023750813802083243 " />
			<path d="M1.0922501627604166,0.0023750813802083407 L1.1567496744791668,-0.09112508138020833 " />
			<path d="M1.1567496744791668,-0.09112508138020833 L1.1279996744791667,-0.09112508138020833 " />
			<path d="M1.1279996744791667,-0.09112508138020833 L1.0782503255208333,-0.015124918619791664 " />
			<path d="M1.0782503255208333,-0.015124918619791662 L1.0282503255208333,-0.09112508138020833 " />
			<path d="M1.0282503255208333,-0.09112508138020833 L1.0,-0.09112508138020833 " />
			<path d="M1.0,-0.09112508138020833 L1.0645003255208334,0.002375081380208338 " />
			<path d="M1.0645003255208334,0.0023750813802083407 L1.0039998372395833,0.09112508138020833 " />
			<path d="M1.0039998372395833,0.09112508138020833 L1.0322501627604166,0.09112508138020833 " />
			<path d="M1.0322501627604166,0.09112508138020833 L1.0789998372395833,0.01962524414062501 " />
			<path d="M1.0789998372395833,0.019625244140625015 L1.1260001627604166,0.09112508138020833 " />
			<path d="M1.1260001627604166,0.09112508138020833 L1.1537499999999998,0.09112508138020833 " />
			<path d="M-0.09112508138020832,1.1620003255208333 L0.019625244140624998,1.0935001627604166 " />
			<path d="M0.019625244140625005,1.0935001627604166 L0.09112508138020833,1.0935001627604166 " />
			<path d="M0.09112508138020835,1.0935001627604166 L0.09112508138020835,1.0702498372395832 " />
			<path d="M0.09112508138020835,1.0702498372395834 L0.01962524414062501,1.0702498372395834 " />
			<path d="M0.019625244140625,1.0702498372395834 L-0.09112508138020835,1.0000000000000002 " />
			<path d="M-0.09112508138020833,1.0 L-0.09112508138020833,1.02875 " />
			<path d="M-0.09112508138020833,1.02875 L-0.0023750813802083243,1.0822501627604166 " />
			<path d="M-0.0023750813802083316,1.0822501627604166 L-0.09112508138020832,1.1342496744791666 " />
			<path d="M-0.09112508138020832,1.1342496744791668 L-0.09112508138020832,1.1620003255208335 " />
			<path d="M-6.924979976026999e-18,-0.062374674479166656 L7.646697222178182e-18,0.06887532552083335 " />
			<path d="M7.64669722217818e-18,0.06887532552083334 L-4.454806026380859e-18,-0.040125325520833366 " />
			<path d="M-4.454806026380858e-18,-0.040125325520833345 L7.702172233337026e-18,0.06937500000000002 " />
			<path d="M7.702172233337024e-18,0.069375 L0.0,0.0 " />
			<path d="M0.0,0.0 L-7.702172233337024e-18,-0.069375 " />
			<path d="M-7.702172233337024e-18,-0.069375 L4.454806026380857e-18,0.040125325520833366 " />
			<path d="M4.454806026380856e-18,0.040125325520833345 L-6.9249799760269996e-18,-0.06237467447916666 " />

        </g>
        </g>
    </svg>
    