<?xml version="1.0" encoding="UTF-8" standalone="no"?>
    <svg
    xmlns:svg="http://www.w3.org/2000/svg"
    xmlns="http://www.w3.org/2000/svg"
    width="240"
    height="140"
    >
        <g transform="scale(100, -100)   translate(0.2,-1.2)" stroke-width="0.01"  fill="none">
        <!-- hidden lines -->
        <g  stroke="rgb(160,160,160)" fill="none" stroke-dasharray="0.01,0.01" >
    
        </g>

        <!-- solid lines -->
        <g  stroke="rgb(0,0,0)" fill="none">
    			<path d="M0.0,0.0 L2.0,0.0 " />
			<path d="M0.0,0.0 L0.003805301908254455,0.08715574274765817 L0.01519224698779198,0.17364817766693033 L0.03407417371093169,0.25881904510252074 L0.06030737921409157,0.3420201433256687 L0.09369221296335006,0.42261826174069944 L0.1339745962155613,0.4999999999999999 L0.1808479557110083,0.573576436351046 L0.2339555568810221,0.6427876096865393 L0.29289321881345254,0.7071067811865475 L0.35721239031346075,0.766044443118978 L0.42642356364895395,0.8191520442889918 L0.5,0.8660254037844386 L0.5773817382593005,0.9063077870366497 L0.6579798566743311,0.9396926207859082 L0.7411809548974789,0.9659258262890681 L0.8263518223330693,0.9848077530122079 L0.9128442572523413,0.9961946980917453 L0.9999999999999993,0.9999999999999999 L1.0871557427476575,0.9961946980917455 L1.1736481776669296,0.9848077530122081 L1.2588190451025199,0.9659258262890684 L1.3420201433256678,0.9396926207859086 L1.4226182617406986,0.9063077870366503 L1.4999999999999991,0.866025403784439 L1.5735764363510452,0.8191520442889922 L1.6427876096865384,0.7660444431189787 L1.7071067811865466,0.7071067811865483 L1.766044443118977,0.6427876096865403 L1.819152044288991,0.5735764363510472 L1.866025403784438,0.5000000000000012 L1.9063077870366492,0.4226182617407009 L1.9396926207859078,0.3420201433256703 L1.9659258262890678,0.2588190451025225 L1.9848077530122077,0.17364817766693225 L1.9961946980917453,0.08715574274766018 L2.0,2.120866124240017e-15 " />

        </g>
        </g>
    </svg>
    