<?xml version="1.0" encoding="UTF-8" standalone="no"?>
    <svg
    xmlns:svg="http://www.w3.org/2000/svg"
    xmlns="http://www.w3.org/2000/svg"
    width="220"
    height="239"
    >
        <g transform="scale(100, -100)   translate(1.1030011961758825,-1.2394838727417354)" stroke-width="0.01"  fill="none">
        <!-- hidden lines -->
        <g  stroke="rgb(160,160,160)" fill="none" stroke-dasharray="0.01,0.01" >
    
        </g>

        <!-- solid lines -->
        <g  stroke="rgb(0,0,0)" fill="none">
    			<path d="M0.4042553189339068,-0.9588917999870494 L0.37135347387162054,-0.9499334071634076 L0.35295851668393174,-0.94239065839692 L0.3335272604608898,-0.9320685241396676 L0.313254498254253,-0.9184142414509099 L0.2923350231157793,-0.9008750473899065 L0.27096362809722685,-0.8788981790159173 L0.24933510625035374,-0.8519308733882016 L0.227644250626918,-0.8194203675660193 L0.20608585427867782,-0.7808138986086299 L0.18485471025739117,-0.7355587035752932 L0.16414561161481622,-0.6831020195252686 L0.14415335140271102,-0.622891083517816 L0.1250727226728337,-0.5543731326121948 L0.1070985184769423,-0.47699540386766487 L0.09042553186679558,-0.3902051343434888 " />
			<path d="M0.09042553186679497,-0.39020513434348564 L0.1073730143523781,-0.4131459317541005 L0.12620901547475588,-0.435089225618485 L0.16899725722393769,-0.47573027741878726 L0.21769162430242472,-0.5116222391648413 L0.2711934838983014,-0.5422590602770962 L0.3284042031996521,-0.567134690176001 L0.38822514939456115,-0.5857430782820044 L0.4495576896711129,-0.5975781740155557 L0.511303191217392,-0.6021339267971035 L0.5419874797129556,-0.6015239087747665 L0.5723630212214825,-0.598904286047097 L0.6022924866414834,-0.5942118022916513 L0.6316385468714689,-0.5873832011859852 L0.6602638728099495,-0.5783552264076551 L0.6880311353554356,-0.567064621634217 L0.714803005406438,-0.5534481305432271 L0.740442153861467,-0.5374424968122414 L0.7648112516190333,-0.518984464118816 L0.7877729695776474,-0.49801077614050715 L0.8091899786358199,-0.474458176554871 L0.8289249496920614,-0.44826340903946366 L0.8468405536448822,-0.419363217271841 L0.862799461392793,-0.38769434492955934 L0.8766643438343042,-0.353193535690175 L0.8882978718679262,-0.3157975332312464 " />
			<path d="M0.8882978718679267,-0.31579753323124365 L0.8965337220962587,-0.2784503516775832 L0.9013879649460703,-0.24217366173451144 L0.9030008514146273,-0.20701028306645197 L0.9015126324991954,-0.17300303533782832 L0.8970635591970407,-0.14019473821306405 L0.8897938825054289,-0.10862821135658268 L0.8798438534216257,-0.07834627443280778 L0.867353722942897,-0.0493917471061629 L0.8524637420665088,-0.021807449041071625 L0.8353141617897266,0.004363800098042658 L0.8160452331098165,0.02907918064675613 L0.7947972070240441,0.05229587294064547 L0.7717103345296754,0.07397105731528708 L0.7469248666239762,0.09406191410625736 L0.7205810543042123,0.11252562364913277 L0.6928191485676495,0.12931936627948976 L0.6637794004115536,0.14440032233290484 L0.6336020608331905,0.15772567214495437 L0.6024273808298258,0.1692525960512149 L0.5703956113987257,0.17893827438726279 L0.5376470035371559,0.18673988748867448 L0.504321808242382,0.1926146156910266 L0.4705602765116701,0.1965196393298954 L0.4365026593422858,0.19841213874085734 L0.402289207731495,0.19824929425948895 L0.36806017267656366,0.19598828622136683 L0.33395580517475754,0.19158629496206708 L0.30011635622334243,0.1850005008171664 L0.2666820768195839,0.1761880841222413 L0.23379321796074826,0.16510622521286789 L0.20159003064410086,0.15171210442462302 L0.17021276586691003,0.13596290209308398 " />
			<path d="M0.17021276586690817,0.13596290209308273 L0.19950980317886785,0.15679158711686636 L0.22749880514827198,0.1802682791155699 L0.25408724507553543,0.20617596024450127 L0.27918259626107317,0.23429761265896842 L0.3026923320053,0.2644162185142792 L0.32452392560863097,0.2963147599657417 L0.34458485037148084,0.3297762191686636 L0.36278257959426463,0.3645835782783531 L0.37902458657739724,0.40051981945011783 L0.39321834462129346,0.437367924839266 L0.40527132702636837,0.4749108766011053 L0.4150910070930367,0.5129316568909438 L0.42258485812171354,0.5512132478640893 L0.4276603534128136,0.5895386316758499 L0.430224966266752,0.6276907904815333 L0.43018616998394354,0.6654527064364476 L0.4274514378648031,0.7026073616959007 L0.42192824320974565,0.7389377384152004 L0.413524059319186,0.7742268187496547 L0.40214635949353916,0.8082575848545717 L0.38770261703321995,0.8408130188852588 L0.37010030523864335,0.8716761029970246 L0.3492468974102243,0.9006298193451767 L0.32504986684837767,0.9274571500850229 L0.2974166868535183,0.9519410773718713 L0.26625483072606115,0.9738645833610297 L0.23147177176642117,0.9930106502078061 L0.19297498327501325,1.0091622600675085 L0.15067193855225222,1.0221023950954444 L0.1044701108985529,1.0316140374469227 L0.05427697361433059,1.0374801692772502 L0.0,1.0394837727417354 L-0.05427697361433073,1.0374801692772502 L-0.10447011089855313,1.0316140374469225 L-0.1506719385522523,1.0221023950954446 L-0.1929749832750133,1.0091622600675085 L-0.23147177176642125,0.9930106502078061 L-0.26625483072606126,0.9738645833610297 L-0.29741668685351835,0.9519410773718713 L-0.3250498668483777,0.9274571500850228 L-0.34924689741022436,0.9006298193451767 L-0.37010030523864346,0.8716761029970247 L-0.38770261703321995,0.840813018885259 L-0.4021463594935392,0.8082575848545717 L-0.413524059319186,0.7742268187496547 L-0.42192824320974565,0.7389377384152004 L-0.4274514378648031,0.7026073616959007 L-0.43018616998394354,0.6654527064364476 L-0.430224966266752,0.6276907904815333 L-0.4276603534128137,0.58953863167585 L-0.4225848581217135,0.5512132478640893 L-0.41509100709303665,0.5129316568909438 L-0.4052713270263682,0.4749108766011053 L-0.39321834462129357,0.437367924839266 L-0.3790245865773972,0.40051981945011783 L-0.3627825795942646,0.3645835782783531 L-0.34458485037148073,0.32977621916866373 L-0.3245239256086309,0.29631475996574186 L-0.3026923320053,0.2644162185142792 L-0.27918259626107333,0.23429761265896842 L-0.25408724507553554,0.20617596024450136 L-0.22749880514827195,0.18026827911556986 L-0.19950980317886785,0.15679158711686636 L-0.1702127658669125,0.13596290209308548 " />
			<path d="M-0.8882978718679267,-0.31579753323124365 L-0.8965337220962587,-0.2784503516775832 L-0.9013879649460703,-0.24217366173451144 L-0.9030008514146273,-0.20701028306645197 L-0.9015126324991954,-0.17300303533782832 L-0.8970635591970407,-0.14019473821306405 L-0.8897938825054289,-0.10862821135658268 L-0.8798438534216256,-0.07834627443280778 L-0.867353722942897,-0.0493917471061629 L-0.8524637420665087,-0.021807449041071625 L-0.8353141617897266,0.004363800098042658 L-0.8160452331098165,0.02907918064675613 L-0.7947972070240441,0.05229587294064547 L-0.7717103345296754,0.07397105731528708 L-0.7469248666239762,0.09406191410625736 L-0.7205810543042123,0.11252562364913277 L-0.6928191485676494,0.12931936627948976 L-0.6637794004115536,0.14440032233290484 L-0.6336020608331905,0.15772567214495437 L-0.6024273808298258,0.1692525960512149 L-0.5703956113987257,0.17893827438726279 L-0.5376470035371559,0.18673988748867448 L-0.504321808242382,0.1926146156910266 L-0.4705602765116701,0.1965196393298954 L-0.4365026593422858,0.19841213874085734 L-0.402289207731495,0.19824929425948895 L-0.36806017267656366,0.19598828622136683 L-0.33395580517475754,0.19158629496206708 L-0.30011635622334243,0.1850005008171664 L-0.2666820768195841,0.1761880841222413 L-0.23379321796074826,0.16510622521286789 L-0.20159003064410108,0.15171210442462302 L-0.17021276586691025,0.13596290209308398 " />
			<path d="M-0.09042553186679489,-0.39020513434348564 L-0.107373014352378,-0.4131459317541005 L-0.1262090154747558,-0.435089225618485 L-0.1689972572239376,-0.47573027741878726 L-0.21769162430242464,-0.5116222391648413 L-0.27119348389830134,-0.5422590602770962 L-0.328404203199652,-0.567134690176001 L-0.3882251493945611,-0.5857430782820044 L-0.44955768967111287,-0.5975781740155557 L-0.511303191217392,-0.6021339267971035 L-0.5419874797129555,-0.6015239087747665 L-0.5723630212214824,-0.598904286047097 L-0.6022924866414834,-0.5942118022916513 L-0.6316385468714689,-0.5873832011859852 L-0.6602638728099495,-0.5783552264076551 L-0.6880311353554356,-0.567064621634217 L-0.7148030054064379,-0.5534481305432271 L-0.7404421538614671,-0.5374424968122414 L-0.7648112516190334,-0.518984464118816 L-0.7877729695776475,-0.49801077614050715 L-0.80918997863582,-0.474458176554871 L-0.8289249496920613,-0.44826340903946366 L-0.8468405536448822,-0.419363217271841 L-0.8627994613927931,-0.38769434492955934 L-0.8766643438343044,-0.353193535690175 L-0.8882978718679261,-0.3157975332312464 " />
			<path d="M-0.4042553189339067,-0.9588917999870494 L-0.37135347387162043,-0.9499334071634076 L-0.35295851668393163,-0.94239065839692 L-0.3335272604608897,-0.9320685241396676 L-0.3132544982542529,-0.9184142414509099 L-0.2923350231157792,-0.9008750473899065 L-0.27096362809722674,-0.8788981790159173 L-0.24933510625035363,-0.8519308733882016 L-0.2276442506269179,-0.8194203675660193 L-0.2060858542786777,-0.7808138986086299 L-0.18485471025739106,-0.7355587035752932 L-0.1641456116148161,-0.6831020195252686 L-0.1441533514027109,-0.622891083517816 L-0.1250727226728336,-0.5543731326121948 L-0.10709851847694218,-0.47699540386766487 L-0.09042553186679547,-0.3902051343434888 " />
			<path d="M-0.4042553189339067,-0.9588917999870494 L0.4042553189339068,-0.9588917999870494 " />

        </g>
        </g>
    </svg>
    