<?xml version="1.0" encoding="UTF-8" standalone="no"?>
    <svg
    xmlns:svg="http://www.w3.org/2000/svg"
    xmlns="http://www.w3.org/2000/svg"
    width="220"
    height="239"
    >
        <g transform="scale(100, -100)   translate(1.1030011961758823,-1.239483872741735)" stroke-width="0.01"  fill="none">
        <!-- hidden lines -->
        <g  stroke="rgb(160,160,160)" fill="none" stroke-dasharray="0.01,0.01" >
    
        </g>

        <!-- solid lines -->
        <g  stroke="rgb(0,0,0)" fill="none">
    			<path d="M0.40425531893390676,-0.9588917999870495 L0.3713534738716205,-0.9499334071634077 L0.35295851668393163,-0.9423906583969202 L0.33352726046088976,-0.9320685241396677 L0.31325449825425294,-0.91841424145091 L0.29233502311577925,-0.9008750473899066 L0.27096362809722685,-0.8788981790159174 L0.2493351062503537,-0.8519308733882017 L0.22764425062691798,-0.8194203675660194 L0.20608585427867776,-0.78081389860863 L0.18485471025739117,-0.7355587035752933 L0.16414561161481622,-0.6831020195252688 L0.14415335140271102,-0.6228910835178161 L0.1250727226728337,-0.554373132612195 L0.1070985184769423,-0.4769954038676651 L0.09042553186679558,-0.39020513434348914 " />
			<path d="M0.09042553186679499,-0.39020513434348586 L0.1073730143523781,-0.41314593175410075 L0.12620901547475588,-0.4350892256184852 L0.16899725722393766,-0.47573027741878743 L0.21769162430242472,-0.5116222391648415 L0.2711934838983014,-0.5422590602770964 L0.328404203199652,-0.567134690176001 L0.3882251493945611,-0.5857430782820046 L0.4495576896711129,-0.5975781740155557 L0.511303191217392,-0.6021339267971035 L0.5419874797129555,-0.6015239087747666 L0.5723630212214824,-0.5989042860470971 L0.6022924866414835,-0.5942118022916514 L0.6316385468714689,-0.5873832011859853 L0.6602638728099495,-0.5783552264076552 L0.6880311353554356,-0.5670646216342171 L0.7148030054064379,-0.5534481305432271 L0.740442153861467,-0.5374424968122414 L0.7648112516190333,-0.5189844641188162 L0.7877729695776473,-0.4980107761405073 L0.8091899786358199,-0.4744581765548712 L0.8289249496920613,-0.44826340903946377 L0.8468405536448821,-0.4193632172718411 L0.862799461392793,-0.38769434492955956 L0.8766643438343042,-0.3531935356901752 L0.888297871867926,-0.3157975332312466 " />
			<path d="M0.8882978718679267,-0.3157975332312439 L0.8965337220962587,-0.2784503516775834 L0.9013879649460703,-0.2421736617345117 L0.9030008514146273,-0.20701028306645225 L0.9015126324991954,-0.1730030353378286 L0.8970635591970407,-0.14019473821306433 L0.8897938825054289,-0.10862821135658302 L0.8798438534216257,-0.07834627443280812 L0.867353722942897,-0.04939174710616323 L0.8524637420665088,-0.021807449041071902 L0.8353141617897266,0.004363800098042325 L0.8160452331098165,0.029079180646755853 L0.7947972070240441,0.05229587294064514 L0.7717103345296754,0.07397105731528675 L0.7469248666239762,0.09406191410625697 L0.7205810543042123,0.11252562364913238 L0.6928191485676495,0.12931936627948942 L0.6637794004115536,0.1444003223329044 L0.6336020608331905,0.15772567214495403 L0.6024273808298259,0.16925259605121445 L0.5703956113987259,0.1789382743872624 L0.5376470035371559,0.18673988748867404 L0.504321808242382,0.19261461569102617 L0.47056027651167015,0.19651963932989497 L0.436502659342286,0.198412138740857 L0.40228920773149524,0.19824929425948862 L0.3680601726765639,0.19598828622136638 L0.33395580517475754,0.19158629496206675 L0.30011635622334243,0.18500050081716607 L0.2666820768195841,0.17618808412224085 L0.23379321796074837,0.16510622521286755 L0.2015900306441013,0.15171210442462268 L0.17021276586691048,0.13596290209308365 " />
			<path d="M0.17021276586690814,0.13596290209308246 L0.19950980317886782,0.15679158711686605 L0.22749880514827195,0.18026827911556959 L0.25408724507553543,0.20617596024450097 L0.2791825962610731,0.2342976126589681 L0.3026923320053,0.26441621851427893 L0.32452392560863097,0.29631475996574136 L0.34458485037148084,0.3297762191686633 L0.36278257959426463,0.36458357827835275 L0.3790245865773972,0.4005198194501175 L0.39321834462129346,0.4373679248392657 L0.40527132702636837,0.474910876601105 L0.4150910070930367,0.5129316568909434 L0.4225848581217136,0.551213247864089 L0.42766035341281367,0.5895386316758495 L0.43022496626675205,0.627690790481533 L0.4301861699839436,0.6654527064364473 L0.42745143786480316,0.7026073616959003 L0.4219282432097457,0.7389377384152002 L0.41352405931918607,0.7742268187496544 L0.4021463594935393,0.8082575848545713 L0.38770261703322006,0.8408130188852586 L0.37010030523864357,0.8716761029970244 L0.3492468974102245,0.9006298193451764 L0.3250498668483779,0.9274571500850225 L0.2974166868535185,0.9519410773718711 L0.26625483072606143,0.9738645833610294 L0.23147177176642134,0.9930106502078057 L0.19297498327501342,1.009162260067508 L0.15067193855225242,1.0221023950954442 L0.10447011089855329,1.0316140374469223 L0.05427697361433101,1.03748016927725 L1.1102230246251565e-16,1.039483772741735 L-0.05427697361433062,1.0374801692772497 L-0.10447011089855301,1.031614037446922 L-0.1506719385522522,1.0221023950954442 L-0.1929749832750132,1.009162260067508 L-0.23147177176642114,0.9930106502078057 L-0.26625483072606115,0.9738645833610293 L-0.29741668685351824,0.9519410773718708 L-0.3250498668483776,0.9274571500850225 L-0.34924689741022424,0.9006298193451763 L-0.37010030523864335,0.8716761029970242 L-0.38770261703321984,0.8408130188852585 L-0.4021463594935391,0.8082575848545712 L-0.4135240593191859,0.7742268187496544 L-0.42192824320974553,0.7389377384152 L-0.427451437864803,0.7026073616959003 L-0.43018616998394343,0.6654527064364473 L-0.4302249662667519,0.6276907904815329 L-0.4276603534128136,0.5895386316758495 L-0.42258485812171337,0.551213247864089 L-0.41509100709303653,0.5129316568909434 L-0.4052713270263681,0.474910876601105 L-0.39321834462129346,0.43736792483926556 L-0.37902458657739707,0.4005198194501175 L-0.36278257959426446,0.36458357827835264 L-0.3445848503714806,0.3297762191686633 L-0.3245239256086308,0.2963147599657414 L-0.3026923320052999,0.264416218514279 L-0.2791825962610732,0.23429761265896798 L-0.25408724507553543,0.2061759602445009 L-0.22749880514827184,0.18026827911556964 L-0.19950980317886774,0.15679158711686592 L-0.1702127658669124,0.13596290209308504 " />
			<path d="M-0.8882978718679265,-0.3157975332312439 L-0.8965337220962585,-0.2784503516775834 L-0.9013879649460701,-0.2421736617345117 L-0.903000851414627,-0.20701028306645225 L-0.9015126324991952,-0.1730030353378286 L-0.8970635591970405,-0.14019473821306433 L-0.8897938825054287,-0.10862821135658302 L-0.8798438534216255,-0.07834627443280812 L-0.8673537229428968,-0.04939174710616323 L-0.8524637420665085,-0.021807449041071902 L-0.8353141617897264,0.004363800098042325 L-0.8160452331098162,0.029079180646755853 L-0.7947972070240439,0.05229587294064514 L-0.7717103345296752,0.07397105731528675 L-0.746924866623976,0.09406191410625697 L-0.720581054304212,0.11252562364913238 L-0.6928191485676493,0.12931936627948942 L-0.6637794004115534,0.1444003223329044 L-0.6336020608331903,0.15772567214495403 L-0.6024273808298256,0.16925259605121445 L-0.5703956113987255,0.1789382743872624 L-0.5376470035371557,0.18673988748867404 L-0.5043218082423818,0.19261461569102617 L-0.4705602765116699,0.19651963932989497 L-0.4365026593422856,0.198412138740857 L-0.4022892077314948,0.19824929425948862 L-0.36806017267656344,0.19598828622136638 L-0.3339558051747573,0.19158629496206675 L-0.3001163562233422,0.18500050081716607 L-0.26668207681958367,0.17618808412224085 L-0.23379321796074803,0.16510622521286755 L-0.20159003064410064,0.15171210442462268 L-0.1702127658669098,0.13596290209308365 " />
			<path d="M-0.09042553186679485,-0.39020513434348586 L-0.10737301435237796,-0.41314593175410075 L-0.12620901547475577,-0.4350892256184852 L-0.16899725722393755,-0.47573027741878743 L-0.21769162430242456,-0.5116222391648415 L-0.2711934838983012,-0.5422590602770964 L-0.32840420319965186,-0.567134690176001 L-0.388225149394561,-0.5857430782820046 L-0.4495576896711128,-0.5975781740155557 L-0.5113031912173918,-0.6021339267971035 L-0.5419874797129552,-0.6015239087747666 L-0.5723630212214822,-0.5989042860470971 L-0.6022924866414832,-0.5942118022916514 L-0.6316385468714686,-0.5873832011859853 L-0.6602638728099491,-0.5783552264076552 L-0.6880311353554354,-0.5670646216342171 L-0.7148030054064377,-0.5534481305432271 L-0.7404421538614667,-0.5374424968122414 L-0.764811251619033,-0.5189844641188162 L-0.7877729695776471,-0.4980107761405073 L-0.8091899786358197,-0.4744581765548712 L-0.828924949692061,-0.44826340903946377 L-0.8468405536448818,-0.4193632172718411 L-0.8627994613927926,-0.38769434492955956 L-0.8766643438343039,-0.3531935356901752 L-0.8882978718679257,-0.3157975332312466 " />
			<path d="M-0.40425531893390665,-0.9588917999870495 L-0.3713534738716204,-0.9499334071634077 L-0.3529585166839315,-0.9423906583969202 L-0.33352726046088965,-0.9320685241396677 L-0.31325449825425283,-0.91841424145091 L-0.29233502311577914,-0.9008750473899066 L-0.27096362809722674,-0.8788981790159174 L-0.24933510625035357,-0.8519308733882017 L-0.22764425062691787,-0.8194203675660194 L-0.20608585427867765,-0.78081389860863 L-0.184854710257391,-0.7355587035752933 L-0.16414561161481606,-0.6831020195252688 L-0.1441533514027109,-0.6228910835178161 L-0.1250727226728336,-0.554373132612195 L-0.10709851847694218,-0.4769954038676651 L-0.09042553186679542,-0.39020513434348914 " />
			<path d="M-0.40425531893390665,-0.9588917999870495 L0.40425531893390676,-0.9588917999870495 " />

        </g>
        </g>
    </svg>
    