<?xml version='1.0' encoding='utf-8'?>
<svg width="73.637169mm" height="100.090007mm" viewBox="-2.084111 -3.12135 4.560853 6.199258" version="1.1" xmlns="http://www.w3.org/2000/svg">
  <g transform="scale(1,-1)" stroke-linecap="round">
    <g fill="none" stroke="rgb(0,0,0)" stroke-width="0.0055743149514611914" id="Visible">
      <line x1="-1.958328" y1="-1.669356" x2="-0.185415" y2="-1.059938" />
      <line x1="-0.185415" y1="-1.059938" x2="-0.082938" y2="-1.024713" />
      <line x1="-0.082938" y1="-1.024713" x2="0.001873" y2="-0.99556" />
      <line x1="0.001873" y1="-0.99556" x2="2.473955" y2="-0.14581" />
      <line x1="2.473955" y1="-0.14581" x2="2.473955" y2="2.864908" />
      <path d="M 2.473955,2.864908 A 0.5,0.3336089339445299 -141.58607570690458 0,1 2.030727,3.088893" />
      <line x1="2.030727" y1="3.088893" x2="-1.958328" y2="1.717702" />
      <line x1="-1.958328" y1="-1.669356" x2="-1.032705" y2="-2.836619" />
      <line x1="-1.958328" y1="-1.669356" x2="-1.958328" y2="-0.163997" />
      <path d="M -1.032705,-2.836619 C -1.058417,-2.804195 -1.039153,-2.781069 -1.019889,-2.757942" />
      <path d="M -1.032705,-2.836619 C -1.058417,-2.804195 -1.09825,-2.801382 -1.138083,-2.79857" />
      <path d="M -0.185415,-1.059938 C -0.234662,-1.076866 -0.269788,-1.064183 -0.304914,-1.0515" />
      <path d="M -0.185415,-1.059938 C -0.234662,-1.076866 -0.238934,-1.103092 -0.243206,-1.129317" />
      <path d="M -1.958328,-0.163997 C -1.958328,-0.205812 -1.928779,-0.212382 -1.899231,-0.218951" />
      <path d="M -1.958328,-0.163997 C -1.958328,-0.205812 -1.987877,-0.232696 -2.017425,-0.259579" />
      <line x1="-0.728833" y1="-2.960552" x2="-0.943105" y2="-2.942852" />
      <line x1="-0.943105" y1="-2.942852" x2="-1.049171" y2="-3.07512" />
      <line x1="-1.049171" y1="-3.07512" x2="-1.075782" y2="-3.041562" />
      <line x1="-1.075782" y1="-3.041562" x2="-0.98709" y2="-2.937175" />
      <line x1="-0.98709" y1="-2.937175" x2="-1.168113" y2="-2.925128" />
      <line x1="-1.168113" y1="-2.925128" x2="-1.194262" y2="-2.892152" />
      <line x1="-1.194262" y1="-2.892152" x2="-0.968791" y2="-2.91046" />
      <line x1="-0.968791" y1="-2.91046" x2="-0.867446" y2="-2.785755" />
      <line x1="-0.867446" y1="-2.785755" x2="-0.841296" y2="-2.81873" />
      <line x1="-0.841296" y1="-2.81873" x2="-0.924787" y2="-2.916873" />
      <line x1="-0.924787" y1="-2.916873" x2="-0.754519" y2="-2.928161" />
      <line x1="-0.754519" y1="-2.928161" x2="-0.728833" y2="-2.960552" />
      <line x1="0.01745" y1="-0.854845" x2="0.001873" y2="-0.99556" />
      <line x1="0.001873" y1="-0.99556" x2="-0.001481" y2="-1.025865" />
      <line x1="-0.001481" y1="-1.025865" x2="0.0647" y2="-1.109324" />
      <line x1="0.0647" y1="-1.109324" x2="0.02348" y2="-1.123493" />
      <line x1="0.02348" y1="-1.123493" x2="-0.042702" y2="-1.040034" />
      <line x1="-0.042702" y1="-1.040034" x2="-0.082938" y2="-1.024713" />
      <line x1="-0.082938" y1="-1.024713" x2="-0.269762" y2="-0.953571" />
      <line x1="-0.269762" y1="-0.953571" x2="-0.218791" y2="-0.93605" />
      <line x1="-0.218791" y1="-0.93605" x2="-0.041791" y2="-1.007041" />
      <line x1="-0.041791" y1="-1.007041" x2="-0.031749" y2="-0.871757" />
      <line x1="-0.031749" y1="-0.871757" x2="0.01745" y2="-0.854845" />
      <line x1="-2.068913" y1="0.072343" x2="-1.836218" y2="0.152329" />
      <line x1="-1.836218" y1="0.152329" x2="-1.836218" y2="0.120716" />
      <line x1="-1.836218" y1="0.120716" x2="-2.029467" y2="-0.157591" />
      <line x1="-2.029467" y1="-0.157591" x2="-1.835332" y2="-0.090859" />
      <line x1="-1.835332" y1="-0.090859" x2="-1.835332" y2="-0.121718" />
      <line x1="-1.835332" y1="-0.121718" x2="-1.958328" y2="-0.163997" />
      <line x1="-1.958328" y1="-0.163997" x2="-2.081324" y2="-0.206275" />
      <line x1="-2.081324" y1="-0.206275" x2="-2.081324" y2="-0.175416" />
      <line x1="-2.081324" y1="-0.175416" x2="-1.887189" y2="0.103948" />
      <line x1="-1.887189" y1="0.103948" x2="-2.068913" y2="0.041482" />
      <line x1="-2.068913" y1="0.041482" x2="-2.068913" y2="0.072343" />
    </g>
  </g>
</svg>