<?xml version="1.0" encoding="UTF-8" standalone="no"?>
    <svg
    xmlns:svg="http://www.w3.org/2000/svg"
    xmlns="http://www.w3.org/2000/svg"
    width="294"
    height="269"
    >
        <g transform="scale(50, -50)   translate(3.7380863159788302,-2.686814447323634)" stroke-width="0.02"  fill="none">
        <!-- hidden lines -->
        <g  stroke="rgb(160,160,160)" fill="none" stroke-dasharray="0.02,0.02" >
    
        </g>

        <!-- solid lines -->
        <g  stroke="rgb(0,0,0)" fill="none">
    			<path d="M-3.2470092841690694,-2.212083260379988 L1.750354253414654,-2.2156764825009074 " />
			<path d="M1.750354253414653,-2.2156764825009074 L1.750354253414653,1.7833437021245344 " />
			<path d="M1.750354253414653,1.7833437021245344 L1.7479478862794666,1.8323419976863455 L1.740751959504874,1.8808718733460315 L1.7288357737994073,1.9284659598718605 L1.7123140885454609,1.9746659001930154 L1.691346016603701,2.0190267636287462 L1.666133491969242,2.0611213308140526 L1.6369193250368812,2.100544208055709 L1.6039848642042651,2.1369157314951415 L1.56764728633302,2.1698856234789305 L1.528256542162186,2.1991363659240966 L1.4861919860913,2.22438625819081 L1.4418587227901494,2.2453921300135473 L1.3956837058193516,2.261951683363678 L1.3481116258341672,2.273905440690067 L1.2996006279703982,2.2811382807750737 L1.250617899656283,2.2835805474148065 " />
			<path d="M1.2506178996562807,2.283580547414807 L-3.2470092841690694,2.2868144473236343 " />
			<path d="M-3.2470092841690694,-2.212083260379988 L-2.2475365766523248,-2.212801904804172 " />
			<path d="M-3.2470092841690694,-2.212083260379988 L-3.2470092841690694,-1.2123282142236276 " />
			<path d="M-3.2470092841690694,-2.212083260379988 L-3.2145391913273786,-2.189962427776188 " />
			<path d="M-2.2475365766523248,-2.212801904804172 L-2.2654958518655164,-2.2099251100195394 L-2.278770098762223,-2.2023653321017873 L-2.28892099344794,-2.1916835654286224 L-2.297510212028162,-2.1794408043777507 " />
			<path d="M-2.2475365766523248,-2.212801904804172 L-2.2654958518655164,-2.21565287330481 L-2.278770098762223,-2.223193562230045 L-2.28892099344794,-2.2338607314383436 L-2.297510212028162,-2.2460911407881747 " />
			<path d="M-3.2470092841690694,-1.2123282142236276 L-3.2498723570291435,-1.2302905040924095 L-3.257420458205702,-1.2435630735365952 L-3.2680919115932507,-1.2537091626977168 L-3.2803250410862943,-1.2622920117173062 " />
			<path d="M-3.2470092841690694,-1.2123282142236276 L-3.2441462113089954,-1.2302946213260897 L-3.236598110132437,-1.2435780452954324 L-3.225926656744888,-1.253739480509362 L-3.2136935272518445,-1.262339921345585 " />
			<path d="M-3.2145391913273786,-2.189962427776188 L-3.2151226383081277,-2.1874960298444024 L-3.2155538817286815,-2.1802395887309283 L-3.216162695969463,-2.157743301201166 " />
			<path d="M-3.2145391913273786,-2.189962427776188 L-3.2151226383081277,-2.193223793129673 L-3.2155538817286815,-2.2010678188591855 L-3.216162695969463,-2.2243936376115903 " />
			<path d="M-2.093867647871625,-2.121809636443118 L-2.1553350567093106,-2.2104937002743745 " />
			<path d="M-2.155335056709311,-2.2104937002743745 L-2.090869555098264,-2.3040173120250014 " />
			<path d="M-2.090869555098264,-2.3040173120250014 L-2.1196043954393704,-2.303996650997806 " />
			<path d="M-2.11960439543937,-2.303996650997806 L-2.169327511939951,-2.227979352677139 " />
			<path d="M-2.169327511939951,-2.227979352677139 L-2.219301147315788,-2.303924966684361 " />
			<path d="M-2.219301147315788,-2.3039249666843613 L-2.2475365766523248,-2.303904664745444 " />
			<path d="M-2.2475365766523248,-2.303904664745444 L-2.183070261668306,-2.21047375800857 " />
			<path d="M-2.1830702616683064,-2.21047375800857 L-2.2435388484968524,-2.1217020193236293 " />
			<path d="M-2.2435388484968524,-2.1217020193236293 L-2.215303419160316,-2.1217223212625465 " />
			<path d="M-2.215303419160316,-2.1217223212625465 L-2.1685783954330966,-2.193238240735075 " />
			<path d="M-2.168578395433096,-2.193238240735075 L-2.1216028528306206,-2.1217896941773136 " />
			<path d="M-2.1216028528306206,-2.1217896941773136 L-2.093867647871625,-2.1218096364431176 " />
			<path d="M-3.33808631597883,-1.0503020847735642 L-3.227394388272162,-1.1188650582597348 " />
			<path d="M-3.227394388272162,-1.118865058259735 L-3.155932252359309,-1.1189164412190973 " />
			<path d="M-3.155932252359309,-1.1189164412190973 L-3.155932252359309,-1.1421610714833283 " />
			<path d="M-3.155932252359309,-1.1421610714833281 L-3.227394388272162,-1.1421096885239659 " />
			<path d="M-3.227394388272162,-1.1421096885239659 L-3.33808631597883,-1.2122627276919902 " />
			<path d="M-3.33808631597883,-1.2122627276919904 L-3.33808631597883,-1.183519770114995 " />
			<path d="M-3.33808631597883,-1.1835197701149949 L-3.2493831131867186,-1.1300964921177281 " />
			<path d="M-3.249383113186719,-1.1300964921177283 L-3.3380863159788303,-1.078045938186595 " />
			<path d="M-3.33808631597883,-1.0780459381865946 L-3.33808631597883,-1.050302084773564 " />
			<path d="M-3.208621511622135,-2.248290297996657 L-3.208621511622135,-2.117072448188635 " />
			<path d="M-3.208621511622135,-2.1170724481886345 L-3.209303388856656,-2.1175369892737104 " />
			<path d="M-3.209303388856656,-2.1175369892737104 L-3.2138735649938157,-2.229624454576722 " />
			<path d="M-3.2138735649938157,-2.229624454576722 L-3.2138735649938157,-2.1201509515815045 " />
			<path d="M-3.2138735649938157,-2.1201509515815045 L-3.2145391913273786,-2.1206044214490904 " />
			<path d="M-3.2145391913273786,-2.1206044214490904 L-3.2145391913273786,-2.1899624277761878 " />
			<path d="M-3.2145391913273786,-2.1899624277761878 L-3.2145391913273786,-2.2593204341032855 " />
			<path d="M-3.2145391913273786,-2.2593204341032855 L-3.2138735649938157,-2.2588669642356995 " />
			<path d="M-3.2138735649938157,-2.2588669642356995 L-3.209287164379927,-2.1462688936351957 " />
			<path d="M-3.209287164379927,-2.1462688936351957 L-3.209287164379927,-2.2487437858662225 " />
			<path d="M-3.209287164379927,-2.2487437858662225 L-3.2086215116221344,-2.2482902979966566 " />

        </g>
        </g>
    </svg>
    