<?xml version="1.0" encoding="UTF-8" standalone="no"?>
    <svg
    xmlns:svg="http://www.w3.org/2000/svg"
    xmlns="http://www.w3.org/2000/svg"
    width="472"
    height="237"
    >
        <g transform="scale(100, -100)   translate(2.6900085839718,-0.9676971914505204)" stroke-width="0.01"  fill="none">
        <!-- hidden lines -->
        <g  stroke="rgb(160,160,160)" fill="none" stroke-dasharray="0.01,0.01" >
    
        </g>

        <!-- solid lines -->
        <g  stroke="rgb(0,0,0)" fill="none">
    			<path d="M-2.477649575251306,0.5982583330630368 L-2.4813218557401147,0.705848078382852 L-2.484805829406957,0.7490046478654713 L-2.4865001491694874,0.7609817669964899 L-2.487974061079657,0.7650500050475413 " />
			<path d="M-2.487974061079657,0.7650500050475413 L-2.4887885475874523,0.7630930909759295 L-2.4894124445222356,0.7573717387707248 L-2.4900008112704923,0.7356514092149454 L-2.4884122447588486,0.6649458115836611 L-2.484138922262515,0.5943515923103997 L-2.4817535174401963,0.5727546310594325 L-2.4806578739645317,0.5671046147926005 L-2.479684098143449,0.5652218876202975 " />
			<path d="M-2.479684098143449,0.5652218876202975 L-2.478823773363201,0.5674332759195057 L-2.4781810620304188,0.5738924392559765 L-2.477649575251306,0.5982583330630364 " />
			<path d="M-1.1296049064609635,-1.0531482607565796 L-1.1275766551809259,-1.0773612675727242 L-1.121668091216551,-1.1046179659480309 L-1.1123924789552047,-1.13255062445443 L-1.1005555711099764,-1.1587327924446547 L-1.0871856146948808,-1.1808900806602602 L-1.0734440293932583,-1.1970977325901497 L-1.060524517499574,-1.2059478239758084 L-1.0495493695394371,-1.2066715661977716 " />
			<path d="M-1.0495493695394371,-1.2066715661977716 L-1.0438150924617924,-1.2026042761407456 L-1.0395831154964985,-1.1950704648302535 L-1.0370160711450114,-1.1843596524099476 L-1.0362126094821436,-1.170883449394447 L-1.0399509804833449,-1.137792773734613 L-1.0502290954035869,-1.100836193252239 L-1.0654822044176064,-1.0656400123135306 L-1.0833881599477968,-1.0375625304122311 L-1.0924886499682762,-1.0275908364866317 L-1.1012209425825776,-1.020878289644806 L-1.1092494606826593,-1.0176828492974461 L-1.11626567282038,-1.018127314425077 " />
			<path d="M-1.1162656728203804,-1.018127314425077 L-1.1219340941029212,-1.0221183951071415 L-1.1261416758004528,-1.0294888687190085 L-1.1287309200483007,-1.0399628442765085 L-1.1296049064609635,-1.0531482607565794 " />
			<path d="M-2.4776495752513066,0.5982583330630364 L-2.3918982713598576,0.6005146698094628 L-2.306082380562794,0.6001741478670302 L-2.2203769726349933,0.5972374619217604 L-2.13495689195938,0.5917106029963248 L-2.049996400833471,0.5836048462279841 L-1.9656688239634104,0.5729367278666031 L-1.8821461948707445,0.5597280115396703 L-1.7995989049332997,0.544005643853138 L-1.7181953557761336,0.5258016994186643 L-1.6381016157217059,0.5051533154194023 L-1.5594810810001332,0.48210261584782876 L-1.4824941424106783,0.4566966255701692 L-1.407297858114506,0.4289871743927345 L-1.334045633226227,0.3990307913258806 L-1.2628869068578907,0.3668885892612983 L-1.1939668472538705,0.33262614029790183 " />
			<path d="M-1.1939668472538632,0.33262614029789833 L-1.191172865530997,0.35717449288070297 L-1.1830452698195184,0.38430355520275244 L-1.1703239538488606,0.4115436395716411 L-1.1541669995722799,0.43641495142951364 L-1.1360452514535453,0.45665333685685 L-1.1176084184933746,0.470416399282375 L-1.100534893365578,0.4764512216137606 L-1.093003938314451,0.4763695460811218 L-1.0863789603418916,0.47420842524511364 " />
			<path d="M-1.1787892452023871,0.2968377984434865 L-1.1852660884120025,0.3020268609775054 L-1.1900473073975608,0.30990333674904924 L-1.1929790136783234,0.32021371323469616 L-1.193966847253863,0.33262614029789794 " />
			<path d="M-1.1939668472538632,0.33262614029789805 L-1.1460266804477768,0.30904149660986907 L-1.0978817195151604,0.28809883854887347 L-1.049533013051881,0.2697437327796825 L-1.001006050026397,0.2539224736002677 L-0.952352059151982,0.24057530759887596 L-0.9036434995812087,0.22963166021835044 L-0.8549663717479269,0.22100727602104622 L-0.8064113777153065,0.2146031017866942 L-0.7100044764496993,0.20798873456349126 L-0.6149579422862377,0.2087428696569044 L-0.5215188259749298,0.21570614001525784 L-0.42964604564591313,0.2277048583211829 L-0.33910037473782645,0.24362867017427495 L-0.24955972175862595,0.2624621453453718 L-0.07222233473865503,0.30514286649135397 L0.10459851913760032,0.3486735321062869 L0.1933427551502838,0.36869698458625966 L0.2825307465561038,0.3865130354993642 L0.3723121768942272,0.40137500074621124 L0.4628661322732699,0.41256994102725425 L0.5544414992202878,0.41941189266278306 L0.6473864527865368,0.4212232925453724 L0.7421579429167273,0.4173060876317945 L0.8393058762315208,0.4069081374189451 L0.9394304795160655,0.3891946358858829 L1.0431151203504012,0.36323839742162317 L1.1506344338732688,0.32819451242218234 L1.258671545539613,0.28492438400891174 L1.36189349566751,0.23536391990754607 L1.4100723847476127,0.20887223986532047 L1.4551045142297447,0.18161356559088415 L1.496355023827152,0.15389725593298784 L1.533205520236882,0.12606651138376715 L1.5650664878407268,0.09850967204279068 L1.5913994867563626,0.07166997867389151 L1.6117632527156203,0.046071074661813996 L1.6259444916051051,0.022269977152449015 L1.6340469358719494,0.0007908403760138535 L1.6365780861059185,-0.01805395032714865 " />
			<path d="M1.603264002547158,-0.2679746830212857 L1.6089942470105998,-0.26391208539072286 L1.6132244825611084,-0.25638906488145047 L1.6157928923051523,-0.24569435383551444 L1.6166010826586512,-0.23223811123418928 L1.6128815318796577,-0.19919164754294819 L1.6026300918647223,-0.16226888465146774 L1.5873984806272625,-0.12707167141344272 L1.5694900497381372,-0.09894692599239911 L1.5603764067918173,-0.08894235765504059 L1.5516254619231176,-0.0822009571061397 L1.543577669632905,-0.07898848757697895 L1.536547699266212,-0.07943043124859271 " />
			<path d="M-2.487974061079657,0.7650500050475413 L-2.3942402649302577,0.7675096953641807 L-2.3004351132433483,0.767117254329388 L-2.206750752946872,0.7638733571264661 L-2.1133841232146633,0.7577852858442955 L-2.0205306698685663,0.7488667123714738 L-1.9283834565903066,0.7371376577472473 L-1.837133164921494,0.722624492161511 L-1.746968094263619,0.7053599349548091 L-1.6580741618780568,0.685383054618334 L-1.570634902886064,0.6627392687939273 L-1.4848314702687804,0.6374803442740792 L-1.4008426348672283,0.6096643970019286 L-1.3188401420511717,0.5793558543371462 L-1.2389885804103495,0.5466250882814494 L-1.1614496493491142,0.511548461090892 L-1.086378960341894,0.474208425245115 " />
			<path d="M-2.479684098143449,0.5652218876202973 L-2.3921683273990135,0.5675203597171962 L-2.3045802912580475,0.5671598801397434 L-2.217115755376039,0.564141672854629 L-2.1299728861514726,0.5584737667693361 L-2.043348423522093,0.5501715121040783 L-1.9574372862543488,0.539257665401427 L-1.8724325719433947,0.5257623895263115 L-1.7885255570130898,0.5097232536660186 L-1.7059056967159973,0.49118523333019315 L-1.6247606251333844,0.4702007103508378 L-1.5452738830837944,0.44682979872859224 L-1.4676230963997412,0.42114075493248204 L-1.3919834650106617,0.39320936253875227 L-1.318523933346473,0.3631193261747514 L-1.2474071054950826,0.3309622821474591 L-1.1787892452023896,0.29683779844348746 " />
			<path d="M1.636578086105919,-0.018053950327151513 L1.6349589396782385,-0.022302009482019325 L1.6203354532951613,-0.03736470343085999 L1.593079603550682,-0.05497774246417346 L1.5689192825609795,-0.0667092191936165 L1.5365476992662122,-0.07943043124859017 " />
			<path d="M-1.0863789603418916,0.47420842524511364 L-1.0428279525844295,0.4529350610237923 L-0.9982403574203241,0.43398527753835037 L-0.9525714745111145,0.41751382823318883 L-0.9058283786321575,0.40363797551268077 L-0.8580699196726271,0.39243749074117146 L-0.809406722635516,0.3839546542429782 L-0.7600011876376336,0.3781942553023903 L-0.7100674899096071,0.3751235921636691 L-0.6361887176042968,0.3751221909798087 L-0.5619079160901266,0.3799274472900991 L-0.48736097380083887,0.3888325306529879 L-0.4125522974575411,0.401120501479855 L-0.3256705325942275,0.4186218419633003 L-0.2381833654888866,0.43867682802642766 L-0.06064251251304453,0.4826469903730335 L0.09885119425144609,0.5208313660230665 L0.18032902575440488,0.5383166683912013 L0.263136802026537,0.5539967501734687 L0.3473363421218894,0.5673365045255654 L0.43293334472452766,0.5778131172965124 L0.519877388148536,0.5849160670286561 L0.6080619303380175,0.5881471249576674 L0.6742776406651545,0.5878052864630295 L0.7408738451129747,0.5849620261438355 L0.8076802042982241,0.5795161707183677 L0.8745103320626457,0.5714070070160192 L0.9873755384359576,0.551534156808446 L1.098917044068237,0.5241180302669542 L1.208381117180724,0.4896601131777538 L1.3148063460356787,0.4491130832100284 L1.3946626968245799,0.4139763481892891 L1.4710370338644285,0.37613627953492956 L1.543724921283391,0.3354579469274275 L1.6113546473423541,0.2923036882411381 L1.6719471295791735,0.2474794282873993 L1.7234758199529192,0.20218099755763888 L1.7644266099881247,0.15794045096648135 L1.794357735919034,0.1165723865948538 L1.8084984325661706,0.09166346169485345 L1.819195568434506,0.06821162257171119 L1.826976758424154,0.04597463159335455 L1.8322671419987306,0.024732112268223277 L1.8365636705746389,-0.015541711686044318 L1.8334367611411855,-0.053935638413330156 L1.8271901777140576,-0.07943489338198631 L1.8174936757878153,-0.10451226667463173 L1.8035061528967864,-0.12989945919471435 L1.7842106143598955,-0.15603195715845916 L1.7576129513424357,-0.18319485999524232 L1.720679299221227,-0.2114348192079148 L1.6700119762531647,-0.24023808819307443 L1.6386998890249869,-0.25440519217418145 L1.603264002547172,-0.26797468302128113 " />
			<path d="M-1.1787892452023867,0.29683779844348596 L-1.1237732709294312,0.2700322069671374 L-1.0670950075572216,0.24615625874478728 L-1.0088227266218066,0.22548625861693117 L-0.949098614763633,0.20822547420356696 L-0.8881387737275463,0.19450413590419457 L-0.8262332203627911,0.18437943689781627 L-0.7637458866230102,0.17783553314293646 L-0.7011146195662452,0.17478354337756163 L-0.6142602717905205,0.17582952436200094 L-0.5281509057395865,0.18228548629657737 L-0.4429737590622733,0.19322680319229898 L-0.3586942224021641,0.20773255192767365 L-0.27185669394213735,0.22566242767836198 L-0.18558750876690694,0.24561094442690082 L-0.013699473382362853,0.2882296496928856 L0.10671020949583915,0.3174456074631857 L0.22829788183339925,0.34395977306006936 L0.35169006184409424,0.36584106739928673 L0.4773258163582099,0.3811729969058981 L0.5666944059308858,0.38700253796772466 L0.6570922038099603,0.38810778433674487 L0.7482200856344907,0.38399623244961767 L0.839632272787898,0.3743334789343274 L0.9344328044113005,0.3582518932812861 L1.028394383833818,0.33609107089649726 L1.1210909603332477,0.3081240056439508 L1.211859570805497,0.2750167858187577 L1.2713243099786682,0.25018619707386514 L1.3288506093633006,0.2238656517259632 L1.3839967860167284,0.19599029505099352 L1.436085969934425,0.1667771405132455 L1.4842061040500054,0.13672506976535656 L1.5272099442352232,0.10661483264831237 L1.5637150592999722,0.07750904719144655 L1.5921038309922864,0.05075219961244093 L1.621819903975883,0.015075611966872599 L1.6331358185049634,-0.005154154791513148 L1.636578086105919,-0.018053950327154344 " />
			<path d="M1.5365476992662153,-0.0794304312485914 L-1.1162656728203801,-1.018127314425077 " />
			<path d="M1.6032640025471583,-0.2679746830212859 L-1.0495493695394371,-1.2066715661977716 " />

        </g>
        </g>
    </svg>
    