<?xml version="1.0" encoding="UTF-8" standalone="no"?>
    <svg
    xmlns:svg="http://www.w3.org/2000/svg"
    xmlns="http://www.w3.org/2000/svg"
    width="220"
    height="240"
    >
        <g transform="scale(100, -100)   translate(1.1030011961758823,-1.200000099468085)" stroke-width="0.01"  fill="none">
        <!-- hidden lines -->
        <g  stroke="rgb(160,160,160)" fill="none" stroke-dasharray="0.01,0.01" >
    
        </g>

        <!-- solid lines -->
        <g  stroke="rgb(0,0,0)" fill="none">
    			<path d="M0.4042553189339067,-0.999999999468085 L0.37135347387162043,-0.9910343246058327 L0.35295851668393163,-0.9834854445400343 L0.3335272604608897,-0.9731549196951302 L0.3132544982542529,-0.9594895378041278 L0.2923350231157792,-0.9419360866000339 L0.27096362809722674,-0.9199413538158556 L0.24933510625035366,-0.8929521271845998 L0.22764425062691793,-0.8604151944392737 L0.2060858542786777,-0.8217773433128843 L0.1848547102573911,-0.7764853615384386 L0.16414561161481617,-0.7239860368489435 L0.14415335140271096,-0.6637261569774062 L0.12507272267283365,-0.5951525096568338 L0.10709851847694224,-0.5177118826202329 L0.09042553186679547,-0.4308510636006142 " />
			<path d="M0.09042553186679492,-0.4308510636006111 L0.10737301435237803,-0.45381050897362135 L0.12620901547475583,-0.4757716399563714 L0.1689972572239376,-0.5164457277838054 L0.21769162430242464,-0.552366865148342 L0.2711934838983013,-0.5830285901154103 L0.3284042031996519,-0.607924440750439 L0.38822514939456104,-0.6265479551188574 L0.44955768967111287,-0.6383926712860943 L0.5113031912173918,-0.6429521273175787 L0.5419874797129554,-0.6423416134278601 L0.5723630212214823,-0.6397198612787394 L0.6022924866414833,-0.6350235631283949 L0.6316385468714687,-0.6281894112350056 L0.6602638728099492,-0.6191540978567498 L0.6880311353554355,-0.6078543152518061 L0.7148030054064378,-0.5942267556783534 L0.7404421538614668,-0.5782081113945701 L0.7648112516190331,-0.5597350746586349 L0.7877729695776472,-0.5387443377287264 L0.8091899786358198,-0.5151725928630232 L0.8289249496920611,-0.488956532319704 L0.8468405536448819,-0.4600328483569473 L0.8627994613927927,-0.42833823323293185 L0.876664343834304,-0.39380937920583614 L0.8882978718679259,-0.35638297853384165 " />
			<path d="M0.8882978718679266,-0.3563829785338388 L0.8965337220962586,-0.3190054384523242 L0.9013879649460702,-0.2826992601554791 L0.9030008514146272,-0.24750729811469024 L0.9015126324991953,-0.21347240680134447 L0.8970635591970406,-0.1806374406868285 L0.8897938825054288,-0.14904525424252912 L0.8798438534216256,-0.11873870193983313 L0.8673537229428969,-0.08976063825012731 L0.8524637420665087,-0.062153917644798495 L0.8353141617897265,-0.03596139459523329 L0.8160452331098164,-0.011225923572818652 L0.794797207024044,0.01200964095105872 L0.7717103345296753,0.03370244450501203 L0.7469248666239761,0.05380963261765448 L0.7205810543042122,0.07228835081759927 L0.6928191485676494,0.0890957446334597 L0.6637794004115536,0.10418895959384894 L0.6336020608331905,0.11752514122738023 L0.6024273808298259,0.12906143506266682 L0.5703956113987257,0.13875498662832186 L0.5376470035371558,0.14656294145295856 L0.5043218082423819,0.1524424450651901 L0.47056027651167004,0.15635064299363 L0.4365026593422859,0.15824468076689113 L0.4022892077314951,0.1580817039135869 L0.36806017267656377,0.15581885796233041 L0.3339558051747574,0.15141328844173496 L0.3001163562233423,0.1448221408804139 L0.266682076819584,0.13600256080698014 L0.23379321796074826,0.12491169375004707 L0.2015900306441012,0.11150668523822788 L0.17021276586691036,0.09574468080013698 " />
			<path d="M0.1702127658669081,0.0957446808001358 L0.19950980317886777,0.11659029690648454 L0.2274988051482719,0.14008607248200206 L0.2540872450755354,0.16601481327397813 L0.27918259626107306,0.19415932502970246 L0.30269233200529994,0.2243024134964648 L0.32452392560863086,0.25622688442155483 L0.3445848503714808,0.2897155435522623 L0.3627825795942646,0.324551196635877 L0.3790245865773971,0.3605166494196886 L0.3932183446212934,0.39739470765098683 L0.4052713270263683,0.4349681770770615 L0.4150910070930367,0.47301986344520214 L0.42258485812171354,0.5113325725026987 L0.4276603534128136,0.5496891099968408 L0.430224966266752,0.5878722816749183 L0.43018616998394354,0.6256648932842207 L0.4274514378648031,0.662849750572038 L0.42192824320974565,0.6992096592856598 L0.413524059319186,0.7345274251723757 L0.4021463594935392,0.7685858539794757 L0.3877026170332201,0.8011677514542491 L0.3701003052386435,0.8320559233439863 L0.3492468974102244,0.8610331753959765 L0.3250498668483778,0.8878823133575094 L0.29741668685351846,0.912386142975875 L0.2662548307260614,0.9343274699983632 L0.23147177176642147,0.9534891001722631 L0.19297498327501356,0.969653839244865 L0.15067193855225255,0.9826044929634585 L0.10447011089855324,0.9921238670753333 L0.05427697361433095,0.9979947673277789 L0.0,0.999999999468085 L-0.05427697361433073,0.9979947673277787 L-0.10447011089855313,0.992123867075333 L-0.1506719385522523,0.9826044929634583 L-0.1929749832750133,0.9696538392448649 L-0.23147177176642125,0.9534891001722631 L-0.26625483072606126,0.934327469998363 L-0.29741668685351835,0.912386142975875 L-0.3250498668483777,0.8878823133575093 L-0.34924689741022436,0.8610331753959763 L-0.37010030523864346,0.8320559233439861 L-0.38770261703321995,0.8011677514542491 L-0.4021463594935392,0.7685858539794755 L-0.413524059319186,0.7345274251723757 L-0.42192824320974565,0.6992096592856596 L-0.4274514378648031,0.6628497505720379 L-0.43018616998394354,0.6256648932842207 L-0.430224966266752,0.5878722816749182 L-0.4276603534128137,0.5496891099968408 L-0.4225848581217135,0.5113325725026986 L-0.41509100709303665,0.4730198634452021 L-0.4052713270263682,0.43496817707706137 L-0.39321834462129357,0.3973947076509867 L-0.3790245865773972,0.36051664941968853 L-0.3627825795942646,0.32455119663587695 L-0.34458485037148073,0.28971554355226226 L-0.3245239256086309,0.25622688442155483 L-0.3026923320053,0.22430241349646463 L-0.27918259626107333,0.19415932502970235 L-0.25408724507553554,0.16601481327397805 L-0.22749880514827195,0.1400860724820019 L-0.19950980317886785,0.11659029690648437 L-0.1702127658669125,0.09574468080013832 " />
			<path d="M-0.8882978718679266,-0.3563829785338388 L-0.8965337220962586,-0.3190054384523242 L-0.9013879649460702,-0.2826992601554791 L-0.9030008514146272,-0.24750729811469024 L-0.9015126324991953,-0.21347240680134447 L-0.8970635591970406,-0.1806374406868285 L-0.8897938825054288,-0.14904525424252912 L-0.8798438534216256,-0.11873870193983313 L-0.8673537229428969,-0.08976063825012731 L-0.8524637420665087,-0.062153917644798495 L-0.8353141617897265,-0.03596139459523329 L-0.8160452331098164,-0.011225923572818652 L-0.794797207024044,0.01200964095105872 L-0.7717103345296753,0.03370244450501203 L-0.7469248666239761,0.05380963261765448 L-0.7205810543042122,0.07228835081759927 L-0.6928191485676494,0.0890957446334597 L-0.6637794004115536,0.10418895959384894 L-0.6336020608331905,0.11752514122738023 L-0.6024273808298259,0.12906143506266682 L-0.5703956113987257,0.13875498662832186 L-0.5376470035371558,0.14656294145295856 L-0.5043218082423819,0.1524424450651901 L-0.47056027651167004,0.15635064299363 L-0.4365026593422859,0.15824468076689113 L-0.4022892077314951,0.1580817039135869 L-0.36806017267656377,0.15581885796233041 L-0.3339558051747574,0.15141328844173496 L-0.3001163562233423,0.1448221408804139 L-0.266682076819584,0.13600256080698014 L-0.23379321796074826,0.12491169375004707 L-0.2015900306441012,0.11150668523822788 L-0.17021276586691036,0.09574468080013698 " />
			<path d="M-0.09042553186679492,-0.4308510636006111 L-0.10737301435237803,-0.45381050897362135 L-0.12620901547475583,-0.4757716399563714 L-0.1689972572239376,-0.5164457277838054 L-0.21769162430242464,-0.552366865148342 L-0.2711934838983013,-0.5830285901154103 L-0.3284042031996519,-0.607924440750439 L-0.38822514939456104,-0.6265479551188574 L-0.44955768967111287,-0.6383926712860943 L-0.5113031912173918,-0.6429521273175787 L-0.5419874797129554,-0.6423416134278601 L-0.5723630212214823,-0.6397198612787394 L-0.6022924866414833,-0.6350235631283949 L-0.6316385468714687,-0.6281894112350056 L-0.6602638728099492,-0.6191540978567498 L-0.6880311353554355,-0.6078543152518061 L-0.7148030054064378,-0.5942267556783534 L-0.7404421538614668,-0.5782081113945701 L-0.7648112516190331,-0.5597350746586349 L-0.7877729695776472,-0.5387443377287264 L-0.8091899786358198,-0.5151725928630232 L-0.8289249496920611,-0.488956532319704 L-0.8468405536448819,-0.4600328483569473 L-0.8627994613927927,-0.42833823323293185 L-0.876664343834304,-0.39380937920583614 L-0.8882978718679259,-0.35638297853384165 " />
			<path d="M-0.4042553189339067,-0.999999999468085 L-0.37135347387162043,-0.9910343246058327 L-0.35295851668393163,-0.9834854445400343 L-0.3335272604608897,-0.9731549196951302 L-0.3132544982542529,-0.9594895378041278 L-0.2923350231157792,-0.9419360866000339 L-0.27096362809722674,-0.9199413538158556 L-0.24933510625035366,-0.8929521271845998 L-0.22764425062691793,-0.8604151944392737 L-0.2060858542786777,-0.8217773433128843 L-0.1848547102573911,-0.7764853615384386 L-0.16414561161481617,-0.7239860368489435 L-0.14415335140271096,-0.6637261569774062 L-0.12507272267283365,-0.5951525096568338 L-0.10709851847694224,-0.5177118826202329 L-0.09042553186679547,-0.4308510636006142 " />
			<path d="M-0.4042553189339067,-0.999999999468085 L0.4042553189339067,-0.999999999468085 " />

        </g>
        </g>
    </svg>
    