<?xml version="1.0" encoding="UTF-8" standalone="no"?>
    <svg
    xmlns:svg="http://www.w3.org/2000/svg"
    xmlns="http://www.w3.org/2000/svg"
    width="263"
    height="315"
    >
        <g transform="scale(50, -50)   translate(3.328761235923883,-2.544044301701231)" stroke-width="0.02"  fill="none">
        <!-- hidden lines -->
        <g  stroke="rgb(160,160,160)" fill="none" stroke-dasharray="0.02,0.02" >
    
        </g>

        <!-- solid lines -->
        <g  stroke="rgb(0,0,0)" fill="none">
    			<path d="M-2.8675265005629953,-2.6744467260134996 L1.5457877596811844,-1.1389523312617693 " />
			<path d="M1.5457877596811844,-1.1389523312617693 L1.5457877596811844,1.8891246869022806 " />
			<path d="M1.545787759681184,1.8891246869022802 L1.5436626282367274,1.925485735634139 L1.5373077000808824,1.9600178425489314 L1.526784176645747,1.9923884445798974 L1.5121934052147448,2.022285795133908 L1.4936759028928832,2.0494219663815745 L1.4714100033502184,2.0735356221596404 L1.4456101393711247,2.0943945347810984 L1.4165247777493613,2.111797821514763 L1.3844340264170214,2.1255778791957836 L1.3496469368520252,2.135601998335747 L1.312498527743441,2.1417736411875943 L1.27334655857837,2.1440333714568984 L1.2325680842225157,2.1423594267058728 L1.190555823675707,2.1367679279375404 L1.1477143779732464,2.1273127243416643 L1.10445633365677,2.114084874697615 " />
			<path d="M1.104456333656766,2.114084874697614 L-2.8675265005629953,0.7321399194210567 " />
			<path d="M-2.8675265005629953,-2.6744467260134996 L-2.3975198095329473,-3.251172073819204 " />
			<path d="M-2.8675265005629953,-2.6744467260134996 L-1.9848636485141593,-2.3673478470631535 " />
			<path d="M-2.8675265005629953,-2.6744467260134996 L-2.8675265005629953,-1.9174274714724873 " />
			<path d="M-2.3975198095329473,-3.251172073819204 L-2.403436780967462,-3.2399293298954936 L-2.4030131139187945,-3.229950460044543 L-2.3983623545480053,-3.2208141729087654 L-2.3915980490161552,-3.212099177130574 " />
			<path d="M-2.3975198095329473,-3.251172073819204 L-2.408493703557325,-3.241688750556147 L-2.4214019233364783,-3.2363483533560085 L-2.4504422391527445,-3.232572435727264 " />
			<path d="M-1.9848636485141595,-2.3673478470631535 L-2.0020703699705917,-2.3712139522250575 L-2.0173427656722485,-2.3709371313240424 L-2.044663680817603,-2.3634786127504808 " />
			<path d="M-1.9848636485141595,-2.3673478470631535 L-1.999377623303232,-2.3745181078635276 L-2.0075509596091226,-2.3829522427366614 L-2.0114972035928913,-2.392228960324968 L-2.0133299014155996,-2.401926969270861 " />
			<path d="M-2.8675265005629953,-1.9174274714724873 L-2.864998039268064,-1.9301504508721945 L-2.8583320958541534,-1.937885376521161 L-2.8489078310275904,-1.942294933002967 L-2.838104405494701,-1.945041804901193 " />
			<path d="M-2.8675265005629953,-1.9174274714724873 L-2.8700549618579267,-1.9319098715328475 L-2.876720905271837,-1.9442832698326264 L-2.8969485956312897,-1.9655150634978829 " />
			<path d="M-2.2448235565628405,-3.3118591857082103 L-2.352065219682038,-3.3036456961930605 " />
			<path d="M-2.352065219682038,-3.30364569619306 L-2.404279137935194,-3.369557994687753 " />
			<path d="M-2.404279137935194,-3.3695579946877534 L-2.417791830302308,-3.3529771409383393 " />
			<path d="M-2.417791830302308,-3.3529771409383393 L-2.3740918367688284,-3.3009458655734694 " />
			<path d="M-2.3740918367688284,-3.3009458655734694 L-2.4646746917386158,-3.295449162966952 " />
			<path d="M-2.4646746917386158,-3.295449162966952 L-2.4779525337571844,-3.279156484155325 " />
			<path d="M-2.4779525337571844,-3.279156484155325 L-2.365107828859637,-3.28764166165951 " />
			<path d="M-2.365107828859637,-3.28764166165951 L-2.3152071350430754,-3.225494471006248 " />
			<path d="M-2.3152071350430754,-3.225494471006248 L-2.3019292930245068,-3.241787149817875 " />
			<path d="M-2.3019292930245063,-3.241787149817875 L-2.3430668834747395,-3.290706391953084 " />
			<path d="M-2.34306688347474,-3.290706391953084 L-2.2578661657404395,-3.2958551511746594 " />
			<path d="M-2.2578661657404395,-3.29585515117466 L-2.2448235565628405,-3.3118591857082103 " />
			<path d="M-1.8847013771264565,-2.2650435844532906 L-1.8931105321258277,-2.3499524276505284 " />
			<path d="M-1.8931105321258277,-2.3499524276505284 L-1.8595051302156642,-2.391188196150578 " />
			<path d="M-1.8595051302156642,-2.3911881961505785 L-1.8800273288509468,-2.398328345053257 " />
			<path d="M-1.8800273288509466,-2.398328345053257 L-1.91363273076111,-2.3570925765532067 " />
			<path d="M-1.91363273076111,-2.357092576553207 L-2.0276930464835146,-2.31479370281033 " />
			<path d="M-2.027693046483515,-2.31479370281033 L-2.002316489487111,-2.3059646100405073 " />
			<path d="M-2.002316489487111,-2.3059646100405073 L-1.9133807894110078,-2.340719144650879 " />
			<path d="M-1.913380789411008,-2.340719144650879 L-1.909195845921106,-2.273565778278329 " />
			<path d="M-1.909195845921106,-2.273565778278329 L-1.8847013771264565,-2.265043584453291 " />
			<path d="M-2.9225823086343943,-1.798615781727063 L-2.8067328093029844,-1.75830905386483 " />
			<path d="M-2.8067328093029844,-1.75830905386483 L-2.8067328093029844,-1.7742065814229606 " />
			<path d="M-2.8067328093029844,-1.7742065814229608 L-2.902943634826602,-1.9142312656649008 " />
			<path d="M-2.902943634826602,-1.9142312656649008 L-2.8062917652021073,-1.8806038384527548 " />
			<path d="M-2.8062917652021073,-1.8806038384527548 L-2.8062917652021073,-1.896122486745307 " />
			<path d="M-2.8062917652021073,-1.8961224867453068 L-2.8675265005629953,-1.917427471472487 " />
			<path d="M-2.8675265005629953,-1.917427471472487 L-2.9287612359238833,-1.9387324561996673 " />
			<path d="M-2.9287612359238833,-1.9387324561996673 L-2.9287612359238833,-1.923213807907115 " />
			<path d="M-2.9287612359238833,-1.923213807907115 L-2.8321093662993886,-1.7826574109910511 " />
			<path d="M-2.8321093662993886,-1.7826574109910513 L-2.9225823086343943,-1.8141350460834618 " />
			<path d="M-2.9225823086343943,-1.8141350460834618 L-2.9225823086343943,-1.7986157817270632 " />

        </g>
        </g>
    </svg>
    