<?xml version="1.0" encoding="UTF-8" standalone="no"?>
    <svg
    xmlns:svg="http://www.w3.org/2000/svg"
    xmlns="http://www.w3.org/2000/svg"
    width="239"
    height="140"
    >
        <g transform="scale(100, -100)   translate(1.1999500037496877,-0.8110108490168069)" stroke-width="0.01"  fill="none">
        <!-- hidden lines -->
        <g  stroke="rgb(160,160,160)" fill="none" stroke-dasharray="0.01,0.01" >
    
        </g>

        <!-- solid lines -->
        <g  stroke="rgb(0,0,0)" fill="none">
    			<path d="M-0.9999500037496877,-0.38894269286438427 L0.9999500037496877,-0.38902048140295714 " />
			<path d="M-0.9999500037496878,-0.3889426928643847 L-0.9987455201775332,-0.33987543656443675 L-0.9951349711674952,-0.29092648128240095 L-0.9891270548483859,-0.24221374933897377 L-0.9807362448168487,-0.19385459397213733 L-0.9699827552691984,-0.14596551662293328 L-0.9568924923036495,-0.0986618862732842 L-0.9414969915102578,-0.0520576615120103 L-0.9238333419989209,-0.006265115998609461 L-0.9039440970484648,0.03860543201382338 L-0.8818771715920671,0.08244588544493014 L-0.8576857267859866,0.12515062880242545 L-0.8314280419396819,0.1666167826190671 L-0.8031673741158488,0.20674445129830477 L-0.7729718057386173,0.24543696377152158 L-0.7409140805770275,0.28260110638710556 L-0.7070714284989182,0.31814734747030216 L-0.6715253794174122,0.351990053012858 L-0.634361566878214,0.3840476929728499 L-0.5956695217608953,0.414243037687697 L-0.5555424565911664,0.4425033439271816 L-0.5140770409837372,0.46876053013826213 L-0.4713731687567475,0.4929513404594983 L-0.4275337172788094,0.5150174971099614 L-0.38266429962841586,0.5349058407855135 L-0.33687301016278337,0.5525684587242272 L-0.29027016410907786,0.5679628001324253 L-0.24296803180537,0.5810517786932703 L-0.19508056823155606,0.5918038619109505 L-0.1467231384818326,0.6001931470752226 L-0.09801223984007812,0.6061994236633116 L-0.04906522112769057,0.609808222028829 L-6.661338147750939e-16,0.6110108482604191 L0.049065221127689296,0.6098044051261521 L0.09801223984007684,0.6061917990532105 L0.14672313848183127,0.6001817331260508 L0.19508056823155467,0.5917886861199112 L0.2429680318053687,0.5810328776201736 L0.29027016410907663,0.5679402193116119 L0.3368730101627822,0.5525422525548721 L0.38266429962841453,0.5348760724005741 L0.42753371727880823,0.5149842382240845 L0.4713731687567463,0.4929146711962529 L0.514077040983736,0.4687205388371155 L0.5555424565911653,0.44246012693068104 L0.5956695217608942,0.4141966991093723 L0.6343615668782129,0.3839983444463949 L0.6715253794174113,0.35193781342319563 L0.7070714284989171,0.31809234266717934 L0.7409140805770266,0.28254346888191095 L0.7729718057386163,0.24537683241805353 L0.803167374115848,0.20668197095826102 L0.8314280419396811,0.16655210381305918 L0.857685726785986,0.1250839073473622 L0.8818771715920664,0.08237728207864103 L0.903944097048464,0.03853511200782661 L0.9238333419989203,-0.006336983237259952 L0.9414969915102571,-0.05213090284884192 L0.9568924923036493,-0.09873632526350218 L0.9699827552691983,-0.14604097393649007 L0.9807362448168485,-0.19393088782575368 L0.9891270548483855,-0.2422906959340736 L0.9951349711674949,-0.2910038952478979 L0.9987455201775328,-0.33995313140330724 L0.9999500037496876,-0.3890204814029388 " />

        </g>
        </g>
    </svg>
    