<?xml version="1.0" encoding="UTF-8" standalone="no"?>
    <svg
    xmlns:svg="http://www.w3.org/2000/svg"
    xmlns="http://www.w3.org/2000/svg"
    width="472"
    height="237"
    >
        <g transform="scale(100, -100)   translate(2.6900085839718,-0.9676971914505199)" stroke-width="0.01"  fill="none">
        <!-- hidden lines -->
        <g  stroke="rgb(160,160,160)" fill="none" stroke-dasharray="0.01,0.01" >
    
        </g>

        <!-- solid lines -->
        <g  stroke="rgb(0,0,0)" fill="none">
    			<path d="M-2.477649575251306,0.5982583330630368 L-2.4813218557401147,0.7058480783828519 L-2.484805829406957,0.7490046478654712 L-2.4865001491694874,0.7609817669964899 L-2.487974061079657,0.7650500050475413 " />
			<path d="M-2.487974061079657,0.7650500050475413 L-2.4887885475874523,0.7630930909759295 L-2.4894124445222356,0.757371738770725 L-2.4900008112704923,0.7356514092149454 L-2.4884122447588486,0.6649458115836612 L-2.484138922262515,0.5943515923103997 L-2.4817535174401963,0.5727546310594325 L-2.4806578739645317,0.5671046147926005 L-2.479684098143449,0.5652218876202975 " />
			<path d="M-2.479684098143449,0.5652218876202975 L-2.478823773363201,0.5674332759195057 L-2.4781810620304188,0.5738924392559765 L-2.477649575251306,0.5982583330630364 " />
			<path d="M-1.1296049064609637,-1.0531482607565796 L-1.127576655180926,-1.0773612675727242 L-1.1216680912165513,-1.1046179659480309 L-1.1123924789552049,-1.13255062445443 L-1.1005555711099766,-1.1587327924446547 L-1.087185614694881,-1.1808900806602602 L-1.0734440293932588,-1.1970977325901497 L-1.0605245174995743,-1.2059478239758084 L-1.0495493695394373,-1.2066715661977716 " />
			<path d="M-1.0495493695394373,-1.2066715661977716 L-1.0438150924617926,-1.2026042761407456 L-1.0395831154964987,-1.1950704648302535 L-1.0370160711450116,-1.1843596524099476 L-1.0362126094821438,-1.170883449394447 L-1.039950980483345,-1.1377927737346132 L-1.0502290954035869,-1.1008361932522392 L-1.0654822044176067,-1.0656400123135306 L-1.083388159947797,-1.0375625304122311 L-1.0924886499682764,-1.0275908364866317 L-1.1012209425825776,-1.020878289644806 L-1.1092494606826595,-1.0176828492974461 L-1.1162656728203801,-1.0181273144250769 " />
			<path d="M-1.1162656728203804,-1.018127314425077 L-1.1219340941029214,-1.0221183951071415 L-1.126141675800453,-1.0294888687190085 L-1.128730920048301,-1.0399628442765085 L-1.1296049064609637,-1.0531482607565794 " />
			<path d="M-2.477649575251306,0.5982583330630367 L-2.3918982713598567,0.600514669809463 L-2.3060823805627932,0.6001741478670304 L-2.2203769726349925,0.5972374619217606 L-2.1349568919593795,0.591710602996325 L-2.049996400833471,0.5836048462279844 L-1.96566882396341,0.5729367278666033 L-1.8821461948707436,0.5597280115396703 L-1.7995989049332988,0.544005643853138 L-1.7181953557761327,0.5258016994186643 L-1.6381016157217054,0.5051533154194023 L-1.5594810810001332,0.482102615847829 L-1.4824941424106783,0.45669662557016943 L-1.407297858114506,0.4289871743927347 L-1.334045633226227,0.3990307913258808 L-1.2628869068578898,0.3668885892612981 L-1.1939668472538698,0.3326261402979016 " />
			<path d="M-1.193966847253863,0.3326261402978983 L-1.191172865530997,0.3571744928807029 L-1.1830452698195186,0.3843035552027524 L-1.1703239538488606,0.41154363957164103 L-1.1541669995722799,0.4364149514295136 L-1.1360452514535453,0.45665333685684995 L-1.1176084184933746,0.47041639928237494 L-1.100534893365578,0.4764512216137605 L-1.093003938314451,0.47636954608112175 L-1.0863789603418916,0.47420842524511364 " />
			<path d="M-1.1787892452023871,0.29683779844348646 L-1.1852660884120025,0.3020268609775054 L-1.1900473073975608,0.30990333674904913 L-1.1929790136783234,0.3202137132346961 L-1.193966847253863,0.3326261402978979 " />
			<path d="M-1.1939668472538632,0.3326261402978983 L-1.1460266804477783,0.3090414966098683 L-1.0978817195151604,0.2880988385488733 L-1.0495330130518803,0.26974373277968255 L-1.0010060500263964,0.25392247360026765 L-0.9523520591519813,0.24057530759887577 L-0.9036434995812083,0.22963166021835021 L-0.8549663717479263,0.22100727602104606 L-0.806411377715306,0.21460310178669406 L-0.710004476449699,0.20798873456349104 L-0.6149579422862375,0.2087428696569042 L-0.5215188259749292,0.21570614001525773 L-0.42964604564591247,0.2277048583211828 L-0.3391003747378258,0.24362867017427497 L-0.24955972175862476,0.262462145345372 L-0.07222233473865462,0.305142866491354 L0.10459851913760163,0.3486735321062868 L0.19334275515028504,0.36869698458625977 L0.282530746556105,0.3865130354993643 L0.3723121768942283,0.40137500074621124 L0.4628661322732714,0.4125699410272541 L0.5544414992202891,0.4194118926627826 L0.6473864527865385,0.4212232925453719 L0.7421579429167289,0.41730608763179383 L0.8393058762315219,0.4069081374189444 L0.9394304795160675,0.389194635885882 L1.0431151203504003,0.36323839742162034 L1.1506344338732717,0.32819451242218106 L1.2586715455396162,0.2849243840089101 L1.3618934956675137,0.23536391990754402 L1.4100723847476164,0.20887223986531828 L1.4551045142297478,0.18161356559088185 L1.496355023827155,0.1538972559329855 L1.5332055202368835,0.12606651138376382 L1.565066487840728,0.09850967204278742 L1.5913994867563677,0.07166997867388966 L1.611763252715622,0.04607107466181152 L1.6259444916051062,0.022269977152446534 L1.6340469358719496,0.0007908403760118248 L1.636578086105918,-0.01805395032715058 " />
			<path d="M1.60326400254716,-0.2679746830212856 L1.6089942470106016,-0.2639120853907222 L1.6132244825611097,-0.2563890648814492 L1.6157928923051537,-0.24569435383551275 L1.6166010826586523,-0.23223811123418722 L1.6128815318796579,-0.19919164754294558 L1.6026300918647218,-0.16226888465146508 L1.5873984806272619,-0.1270716714134404 L1.5694900497381357,-0.09894692599239752 L1.5603764067918156,-0.0889423576550395 L1.5516254619231162,-0.08220095710613914 L1.5435776696329038,-0.07898848757697893 L1.536547699266211,-0.07943043124859327 " />
			<path d="M-2.487974061079657,0.7650500050475411 L-2.3942402649302568,0.7675096953641805 L-2.300435113243346,0.7671172543293875 L-2.2067507529468684,0.7638733571264654 L-2.1133841232146584,0.7577852858442946 L-2.02053066986856,0.7488667123714727 L-1.9283834565902993,0.7371376577472459 L-1.837133164921485,0.7226244921615095 L-1.7469680942636092,0.7053599349548072 L-1.658074161878046,0.6853830546183317 L-1.570634902886052,0.6627392687939245 L-1.4848314702687673,0.6374803442740761 L-1.4008426348672143,0.6096643970019251 L-1.3188401420511604,0.5793558543371427 L-1.2389885804103435,0.5466250882814466 L-1.161449649349111,0.5115484610908909 L-1.086378960341894,0.4742084252451149 " />
			<path d="M-2.479684098143449,0.5652218876202973 L-2.3921683273990086,0.5675203597171962 L-2.3045802912580378,0.5671598801397432 L-2.2171157553760246,0.5641416728546282 L-2.1299728861514526,0.5584737667693345 L-2.043348423522068,0.5501715121040756 L-1.9574372862543192,0.539257665401423 L-1.8724325719433608,0.5257623895263058 L-1.7885255570130516,0.5097232536660112 L-1.7059056967159545,0.491185233330184 L-1.6247606251333375,0.47020071035082656 L-1.5452738830837498,0.4468297987285802 L-1.46762309639971,0.42114075493247183 L-1.3919834650106422,0.3932093625387443 L-1.3185239333464598,0.3631193261747451 L-1.2474071054950724,0.33096228214745477 L-1.1787892452023898,0.29683779844348746 " />
			<path d="M1.6365780861059198,-0.01805395032715329 L1.6349589396782402,-0.022302009482019214 L1.6203354532951604,-0.03736470343086262 L1.5930796035506816,-0.0549777424641778 L1.5689192825609855,-0.0667092191936203 L1.5365476992662193,-0.07943043124859239 " />
			<path d="M-1.086378960341893,0.4742084252451135 L-1.0428279525844282,0.45293506102379183 L-0.9982403574203225,0.43398527753834987 L-0.9525714745111136,0.4175138282331885 L-0.9058283786321573,0.40363797551268066 L-0.8580699196726274,0.3924374907411715 L-0.8094067226355162,0.38395465424297814 L-0.7600011876376337,0.37819425530239015 L-0.7100674899096082,0.37512359216366875 L-0.6361887176041515,0.3751221909798137 L-0.5619079160898335,0.3799274472901268 L-0.4873609738003967,0.38883253065305146 L-0.4125522974569491,0.4011205014799638 L-0.32567053257680856,0.418621841967087 L-0.2381833654543707,0.4386768280346804 L-0.06064251244307073,0.48264699039046366 L0.09885119433111744,0.5208313660410028 L0.18032902583928076,0.5383166684084385 L0.26313680211685103,0.5539967501892666 L0.3473363422178324,0.5673365045391178 L0.4329333448262159,0.5778131173069584 L0.5198773882559794,0.5849160670350904 L0.6080619304510879,0.5881471249591512 L0.6742776409899458,0.5878052864553418 L0.7408738456511129,0.5849620261105231 L0.8076802050495715,0.579516170642267 L0.8745103330252166,0.5714070068797947 L0.9873755394234157,0.5515341566001583 L1.098917045073048,0.524118029984801 L1.208381118194346,0.4896601128245496 L1.314806347046007,0.44911308279195006 L1.394662697831546,0.41397634771878605 L1.471037034861608,0.37613627901071583 L1.5437249222545668,0.33545794634849607 L1.6113546482602166,0.29230368761210174 L1.671947130408153,0.24747942762119746 L1.7234758206561516,0.2021809968756105 L1.7644266105385473,0.1579404502958034 L1.7943577363146153,0.1165723859633454 L1.8084984328630525,0.0916634611127448 L1.8191955686507917,0.0682116220325408 L1.8269767585741072,0.045974631090903106 L1.8322671420932406,0.024732111796684872 L1.8365636705797634,-0.01554171211066363 L1.833436761071635,-0.053935638805007735 L1.8271901776076809,-0.07943489372012066 L1.8174936756526296,-0.10451226696562284 L1.8035061527399825,-0.12989945944119363 L1.7842106141878125,-0.15603195736127348 L1.7576129511642544,-0.18319486015337777 L1.7206792990556519,-0.2114348193179672 L1.6700119761373524,-0.24023808824987464 L1.6386998889565847,-0.2544051922026833 L1.6032640025471718,-0.26797468302128236 " />
			<path d="M-1.1787892452023878,0.29683779844348657 L-1.1237732709294346,0.2700322069671389 L-1.067095007557225,0.24615625874478875 L-1.0088227266218088,0.2254862586169322 L-0.9490986147636338,0.20822547420356735 L-0.8881387737275459,0.19450413590419455 L-0.8262332203627899,0.18437943689781605 L-0.7637458866230082,0.17783553314293626 L-0.7011146195662419,0.17478354337756152 L-0.6142602717906314,0.17582952436199623 L-0.5281509057398092,0.18228548629655456 L-0.4429737590626057,0.19322680319224866 L-0.35869422240260374,0.20773255192758988 L-0.2718566939427248,0.22566242767823205 L-0.18558750876764327,0.24561094442672404 L-0.013699473383401425,0.2882296496926271 L0.10671020949479272,0.31744560746294137 L0.2282978818323429,0.3439597730598573 L0.35169006184301627,0.36584106739912264 L0.4773258163571126,0.3811729969057988 L0.566694405927282,0.38700253796758183 L0.657092203803803,0.388107784336841 L0.7482200856257641,0.3839962324502712 L0.8396322727766359,0.37433347893586766 L0.9344328043996903,0.35825189328363827 L1.0283943838219303,0.33609107089969587 L1.1210909603211447,0.30812400564799125 L1.211859570793333,0.27501678582356853 L1.2713243099667395,0.2501861970790916 L1.3288506093516812,0.22386565173156242 L1.38399678600555,0.19599029505693116 L1.4360859699238744,0.16677714051946682 L1.4842061040403183,0.13672506977175714 L1.5272099442266824,0.10661483265470864 L1.5637150592929032,0.07750904719754662 L1.592103830987054,0.050752199617815186 L1.6218199039741474,0.015075611969431302 L1.6331358185046108,-0.005154154790662974 L1.6365780861059198,-0.018053950327155135 " />
			<path d="M1.5365476992662153,-0.0794304312485915 L-1.1162656728203801,-1.018127314425077 " />
			<path d="M1.6032640025471583,-0.267974683021286 L-1.0495493695394371,-1.2066715661977716 " />

        </g>
        </g>
    </svg>
    