<?xml version='1.0' encoding='utf-8'?>
<svg width="100.089995mm" height="45.739701mm" viewBox="-2.491956 -0.769644 4.330483 1.978969" version="1.1" xmlns="http://www.w3.org/2000/svg">
  <g transform="scale(1,-1)" stroke-linecap="round">
    <g fill="none" stroke="rgb(0,0,0)" stroke-width="0.003893930346632495" id="Visible">
      <path d="M -2.47765,0.598258 A 0.1,0.004587107366373888 92.37558001649656 0,1 -2.487974,0.76505" />
      <path d="M -2.487974,0.76505 A 0.1,0.004587107366373888 92.37558001649656 0,1 -2.479684,0.565222" />
      <path d="M -2.479684,0.565222 A 0.1,0.004587107366373888 92.37558001649656 0,1 -2.47765,0.598258" />
      <path d="M -1.129605,-1.053148 A 0.1,0.034663932174096045 109.48630375720832 0,1 -1.049549,-1.206672" />
      <path d="M -1.049549,-1.206672 A 0.10000046889291843,0.03466409471081926 109.48630375720832 1,1 -1.116266,-1.018127" />
      <path d="M -1.116266,-1.018127 A 0.1,0.034663932174096045 109.48630375720832 0,1 -1.129605,-1.053148" />
      <path d="M -2.47765,0.598258 A 1.9000000000000035,1.2731077391884895 -180.0 0,0 -1.193967,0.332626" />
      <path d="M -1.193967,0.332626 A 0.1,0.04556501993779891 62.48043841432389 0,0 -1.086379,0.474208" />
      <path d="M -1.178789,0.296838 A 0.1,0.04556501993779891 62.48043841432389 0,0 -1.193967,0.332626" />
      <path d="M -1.193967,0.332626 C -0.99915,0.230056 -0.794767,0.198614 -0.602782,0.209319 C -0.410471,0.219544 -0.229923,0.265859 -0.049367,0.310867 C 0.305019,0.399176 0.643226,0.483331 1.061908,0.357702 C 1.254006,0.30053 1.468554,0.192816 1.569862,0.093965 C 1.615429,0.048626 1.637668,0.011286 1.636578,-0.018054" />
      <path d="M 1.603264,-0.267975 C 1.621168,-0.263094 1.620864,-0.212451 1.60263,-0.162269 C 1.585312,-0.111788 1.553596,-0.071938 1.536548,-0.07943" />
      <path d="M -2.487974,0.76505 C -1.988123,0.787004 -1.479198,0.680459 -1.086379,0.474208" />
      <path d="M -2.479684,0.565222 C -2.013012,0.586025 -1.537091,0.485391 -1.178789,0.296838" />
      <path d="M 1.636578,-0.018054 C 1.636985,-0.018301 1.636445,-0.019717 1.634959,-0.022302 C 1.62909,-0.025285 1.63537,-0.041317 1.536548,-0.07943" />
      <path d="M -1.086379,0.474208 C -0.970977,0.413219 -0.84554,0.380191 -0.710067,0.375124 C -0.61171,0.372864 -0.512538,0.38153 -0.412552,0.401121 C -0.297365,0.424013 -0.180062,0.451188 -0.060643,0.482647 C 0.148756,0.535065 0.370697,0.585278 0.608062,0.588147 C 0.69633,0.589475 0.785147,0.583895 0.87451,0.571407 C 1.02698,0.549062 1.173746,0.508298 1.314806,0.449113 C 1.528469,0.3637 1.732282,0.22563 1.794358,0.116572 C 1.835946,0.048242 1.841252,-0.003258 1.833437,-0.053936 C 1.828609,-0.087377 1.812201,-0.121409 1.784211,-0.156032 C 1.75463,-0.190805 1.704421,-0.23197 1.603264,-0.267975" />
      <path d="M -1.178789,0.296838 C -1.035209,0.220854 -0.868786,0.177504 -0.701115,0.174784 C -0.584665,0.173803 -0.470525,0.184786 -0.358694,0.207733 C -0.080325,0.261552 0.186337,0.355388 0.477326,0.381173 C 0.596264,0.392679 0.717033,0.390399 0.839632,0.374333 C 0.967269,0.356399 1.091345,0.323294 1.21186,0.275017 C 1.369914,0.213979 1.52595,0.121025 1.592104,0.050752 C 1.646603,-0.009313 1.63331,-0.015242 1.636578,-0.018054" />
      <line x1="1.536548" y1="-0.07943" x2="-1.116266" y2="-1.018127" />
      <line x1="1.603264" y1="-0.267975" x2="-1.049549" y2="-1.206672" />
    </g>
    <g fill="none" stroke="rgb(99,99,99)" stroke-width="0.003893930346632495" id="Hidden" stroke-dasharray="9.9e-05 0.011731">
      <path d="M -1.086379,0.474208 A 0.1,0.04556501993779891 62.48043841432389 0,0 -1.178789,0.296838" />
      <path d="M 1.636578,-0.018054 C 1.6342,-0.051046 1.6197,-0.077953 1.523208,-0.114451" />
      <path d="M 1.523208,-0.114451 C 1.520838,-0.174875 1.576695,-0.282587 1.603264,-0.267975" />
      <path d="M 1.536548,-0.07943 Q 1.523424,-0.084815 1.523208,-0.114451" />
      <line x1="1.523208" y1="-0.114451" x2="-1.129605" y2="-1.053148" />
    </g>
  </g>
</svg>