<?xml version="1.0" encoding="UTF-8" standalone="no"?>
    <svg
    xmlns:svg="http://www.w3.org/2000/svg"
    xmlns="http://www.w3.org/2000/svg"
    width="266"
    height="312"
    >
        <g transform="scale(50, -50)   translate(0.4620508863756192,-5.124451242459351)" stroke-width="0.02"  fill="none">
        <!-- hidden lines -->
        <g  stroke="rgb(160,160,160)" fill="none" stroke-dasharray="0.02,0.02" >
    
        </g>

        <!-- solid lines -->
        <g  stroke="rgb(0,0,0)" fill="none">
    			<path d="M0.0,1.4210854715202004e-14 L4.47213595499958,1.4907119849998745 " />
			<path d="M4.47213595499958,1.490711984999874 L4.47213595499958,4.472135954999594 " />
			<path d="M4.47213595499958,4.472135954999594 L4.469982499301337,4.507946967889685 L4.4635428711621845,4.541977464017193 L4.452879087721359,4.573899711101448 L4.438093847042814,4.603406280452552 L4.419329539076718,4.630213007677725 L4.396766874366398,4.6540617293397375 L4.370623143707023,4.67472276921195 L4.341150125516459,4.691997150185919 L4.308631661071471,4.705718510529726 L4.273380920961067,4.715754706042404 L4.235737389082523,4.722009082674822 L4.196063593225878,4.724421407361021 L4.154741613733134,4.7229684480955605 L4.112169403855699,4.717664197670436 L4.068756957247029,4.70855973891684 L4.024922359499626,4.695742752749574 " />
			<path d="M4.024922359499621,4.695742752749573 L0.0,3.354101966249699 " />
			<path d="M0.0,1.4210854715202004e-14 L0.4472135954999579,-0.5962847939999297 " />
			<path d="M0.0,1.4210854715202004e-14 L0.894427190999916,0.29814239699998624 " />
			<path d="M0.0,1.4210854715202004e-14 L0.0,0.7453559924999441 " />
			<path d="M0.4472135954999579,-0.5962847939999297 L0.44173988743003656,-0.584716247866337 L0.4425551205468334,-0.5745452442186818 L0.44756298112144227,-0.5653059355616514 L0.4546671554249572,-0.5565324743999335 " />
			<path d="M0.4472135954999579,-0.5962847939999297 L0.43661556498159954,-0.5864243553491494 L0.42392122073433514,-0.5807565441561812 L0.3950386760249629,-0.5764086341999316 " />
			<path d="M0.8944271909999159,0.2981423969999862 L0.8770743717995269,0.2944932582867053 L0.8618178663280439,0.2950367470312365 L0.8347987115999215,0.3031114369499857 " />
			<path d="M0.8944271909999159,0.2981423969999862 L0.8796365330237453,0.2910770433210806 L0.871134816234293,0.2826141471562376 L0.8668257269026528,0.27321955600076975 L0.8646129512999187,0.2633591173499895 " />
			<path d="M0.0,0.7453559924999441 L0.002562161224218509,0.7328169307511172 L0.009316949906249124,0.725169267703071 L0.018866823560154473,0.7207825371222121 L0.029814239699997146,0.7180262727749467 " />
			<path d="M0.0,0.7453559924999441 L-0.00256216122421851,0.7311088232683048 L-0.009316949906249126,0.7189579677655716 L-0.029814239699997146,0.6981501129749486 " />
			<path d="M0.597477436376615,-0.6607953308879083 L0.49059345984079616,-0.6505840508422208 " />
			<path d="M0.4905934598407961,-0.6505840508422208 L0.4358094304486955,-0.7169204915458107 " />
			<path d="M0.4358094304486957,-0.7169204915458108 L0.42295203957807187,-0.6997773037183125 " />
			<path d="M0.4229520395780718,-0.6997773037183124 L0.4686800664499694,-0.6474536527252827 " />
			<path d="M0.46868006644996935,-0.6474536527252827 L0.37834277458163557,-0.6402982837230641 " />
			<path d="M0.37834277458163557,-0.640298283723064 L0.3657088449314195,-0.6234530441894425 " />
			<path d="M0.3657088449314194,-0.6234530441894426 L0.4781833553543434,-0.6340372448602839 " />
			<path d="M0.4781833553543435,-0.6340372448602839 L0.5305071276618252,-0.5715015859348552 " />
			<path d="M0.5305071276618251,-0.5715015859348551 L0.5431410573120412,-0.5883468254684766 " />
			<path d="M0.5431410573120412,-0.5883468254684765 L0.5000967487451703,-0.637540078344568 " />
			<path d="M0.5000967487451702,-0.6375400783445682 L0.5850673318901622,-0.6442485249059714 " />
			<path d="M0.5850673318901621,-0.6442485249059713 L0.5974774363766148,-0.6607953308879082 " />
			<path d="M0.9985723118123176,0.40077806274456884 L0.9868329549304438,0.31431652498567314 " />
			<path d="M0.9868329549304435,0.31431652498567314 L1.0188086542200194,0.2716822592662387 " />
			<path d="M1.0188086542200194,0.2716822592662387 L0.9980129308745868,0.2647503514844278 " />
			<path d="M0.998012930874587,0.2647503514844278 L0.9660372315850111,0.3073846172038623 " />
			<path d="M0.9660372315850111,0.3073846172038623 L0.8536748157156466,0.35247889737901184 " />
			<path d="M0.8536748157156466,0.35247889737901184 L0.8793895974568942,0.361050491292761 " />
			<path d="M0.8793895974568943,0.36105049129276107 L0.9669318043533534,0.3240808825905453 " />
			<path d="M0.9669318043533532,0.3240808825905453 L0.9737513749527008,0.3925044171246966 " />
			<path d="M0.9737513749527008,0.3925044171246966 L0.9985723118123176,0.40077806274456884 " />
			<path d="M-0.055789604883935175,0.8626007084861965 L0.06160396393480378,0.9017318980924428 " />
			<path d="M0.061603963934803774,0.9017318980924429 L0.061603963934803774,0.8860793009354925 " />
			<path d="M0.061603963934803774,0.8860793009354924 L-0.03588918219355623,0.7486724869861034 " />
			<path d="M-0.035889182193556204,0.7486724869861034 L0.062050886375619174,0.7813191765091619 " />
			<path d="M0.06205088637561917,0.7813191765091618 L0.06205088637561917,0.766039621291817 " />
			<path d="M0.06205088637561917,0.7660396212918171 L-6.938893903907228e-18,0.7453559924999441 " />
			<path d="M-6.938893903907228e-18,0.7453559924999441 L-0.06205088637561918,0.724672363708071 " />
			<path d="M-0.06205088637561917,0.7246723637080711 L-0.06205088637561917,0.7399519189254159 " />
			<path d="M-0.06205088637561917,0.7399519189254159 L0.035889182193556225,0.8778801423890894 " />
			<path d="M0.035889182193556204,0.8778801423890893 L-0.05578960488393517,0.8473205466965922 " />
			<path d="M-0.055789604883935175,0.8473205466965922 L-0.055789604883935175,0.8626007084861964 " />

        </g>
        </g>
    </svg>
    