<?xml version="1.0" encoding="UTF-8" standalone="no"?>
    <svg
    xmlns:svg="http://www.w3.org/2000/svg"
    xmlns="http://www.w3.org/2000/svg"
    width="625"
    height="531"
    >
        <g transform="scale(5, -5)   translate(62.57037149096169,-53.294678651939336)" stroke-width="0.2"  fill="none">
        <!-- hidden lines -->
        <g  stroke="rgb(160,160,160)" fill="none" stroke-dasharray="0.2,0.2" >
    
        </g>

        <!-- solid lines -->
        <g  stroke="rgb(0,0,0)" fill="none">
    			<path d="M-58.57037149096169,0.0761091578824943 L-58.56718651673398,-0.054046005861074414 L-58.55763638652054,-0.18400532353749527 L-58.54173547051913,-0.31357324377159657 L-58.51950769503259,-0.4425548041287263 L-58.4909865064666,-0.5707559244771094 L-58.45621482100253,-0.6979836990226012 L-58.41524496002087,-0.8240466865763941 L-58.36813857137266,-0.9487551986189149 L-58.31496653661716,-1.0719215847264654 L-58.25580886436556,-1.193360514931107 L-58.190754569891006,-1.3128892585889291 L-58.11990154118624,-1.4303279593370868 L-58.04335639167033,-1.5454999057258705 L-57.961234299766176,-1.658231797118585 L-57.87365883559012,-1.76835400445914 L-57.780761775014476,-1.8757008255149517 " />
			<path d="M-57.78076177501446,-6.965463895152631 L-57.78076177501446,-1.8757008255149632 " />
			<path d="M-58.57037149096169,-5.013653911755173 L-58.56718651673398,-5.1438090754987424 L-58.55763638652054,-5.273768393175163 L-58.54173547051913,-5.403336313409264 L-58.51950769503259,-5.532317873766394 L-58.4909865064666,-5.660518994114777 L-58.45621482100253,-5.787746768660269 L-58.41524496002087,-5.913809756214062 L-58.36813857137266,-6.038518268256583 L-58.31496653661716,-6.161684654364133 L-58.25580886436556,-6.2831235845687745 L-58.190754569891006,-6.402652328226597 L-58.11990154118624,-6.520091028974754 L-58.04335639167033,-6.635262975363538 L-57.961234299766176,-6.747994866756253 L-57.87365883559012,-6.858117074096808 L-57.780761775014476,-6.965463895152619 " />
			<path d="M-57.78076177501446,-1.875700825514965 L-21.120848701086267,-42.52471420904574 " />
			<path d="M-21.120848701086274,-42.52471420904575 L-21.0593888444969,-42.59112384545102 L-20.995891638689017,-42.656317781823425 L-20.93039533200508,-42.72025674777344 L-20.862939376971173,-42.78290222885881 L-20.793564406532273,-42.84421648978419 L-20.72231220957647,-42.904162597131496 L-20.649225705762916,-42.96270444160718 L-20.574348919668633,-43.01980675979316 L-20.49772695426974,-43.07543515538815 L-20.419405963773112,-43.12955611992672 L-20.339433125814818,-43.182137052963554 L-20.257856613042062,-43.23314628171071 L-20.174725564095798,-43.282553080116145 L-20.09009005401144,-43.330327687371955 L-20.00400106405554,-43.37644132584112 L-19.91651045101657,-43.420866218392135 L-19.82767091596834,-43.463575605130885 L-19.737535972524842,-43.50454375951979 L-19.64615991460564,-43.54374600387456 L-19.553597783731256,-43.581158724229056 L-19.459905335868207,-43.61675938455949 L-19.3651390078437,-43.650526540359266 L-19.26935588335019,-43.682439851556374 L-19.17261365856032,-43.71248009476545 L-19.074970607372872,-43.74062917486729 L-18.976485546310773,-43.766870135908576 L-18.877217799092215,-43.791187171315606 L-18.777227160896263,-43.81356563341551 L-18.676573862344476,-43.83399204225951 L-18.57531853322023,-43.852454093742715 L-18.473522165947607,-43.86894066701564 L-18.371246078851847,-43.883441831183035 L-18.268551879223462,-43.89594885128582 L-18.165501426208323,-43.90645419356278 L-18.06215679354603,-43.914951529988514 L-17.958580232178985,-43.92143574208532 L-17.85483413275478,-43.92590292400628 L-17.7509809880444,-43.92835038488805 L-17.647083355298886,-43.9287766504717 L-17.543203818567235,-43.92718146399079 L-17.439404950998057,-43.92356578632601 L-17.33574927714789,-43.917931795426384 L-17.232299235318727,-43.91028288499736 L-17.129117139947525,-43.90062366245657 L-17.026265144070297,-43.88895994615849 L-16.923805201883482,-43.87529876188968 L-16.82179903142503,-43.85964833863673 L-16.720308077397767,-43.84201810362939 L-16.61939347415741,-43.822418676662 L-16.519116008887508,-43.80086186369648 L-16.419536084983523,-43.777360649750925 L-16.320713685668085,-43.75192919107783 L-16.222708337859334,-43.72458280663696 L-16.125579076314132,-43.69533796886775 L-16.029384408067735,-43.664212293766944 L-15.934182277191349,-43.63122453027736 L-15.840030029888773,-43.596394548994226 L-15.746984379953204,-43.5597433301959 L-15.655101374604966,-43.5212929512061 L-15.564436360730747,-43.481066573095376 L-15.475043951544727,-43.43908842672975 L-15.386977993691598,-43.39538379817491 L-15.300291534811375,-43.3499790134649 L-15.215036791585504,-43.30290142274424 " />
			<path d="M56.72353609759051,-2.530051927047715 L56.82468304355938,-2.4709063043561343 L56.9235705429422,-2.4094063731789443 L57.020111428154976,-2.3456063446191564 L57.11422060011268,-2.279562457274999 L57.20581510324255,-2.211332927666584 L57.29481419860797,-2.140977898919071 L57.38113943507844,-2.068559387747569 L57.46471471848283,-1.9941412297904977 L57.545466378685084,-1.9177890233395898 L57.62332323452309,-1.8395700715161674 L57.69821665655369,-1.7595533229446227 L57.77008062754825,-1.6778093109754246 L57.83885180068574,-1.5944100915112214 L57.90446955539177,-1.5094291794908312 L57.96687605077464,-1.4229414840871173 L58.026016276610996,-1.335023242675881 L58.081838101836404,-1.245751953633962 L58.13429232049794,-1.1552063080257864 L58.183332695128406,-1.0634661202385822 L58.2289159975038,-0.9706122576274068 L58.271002046748244,-0.8767265692320085 L58.30955374475272,-0.7818918136283378 L58.344537108876416,-0.6861915859783204 L58.37592130190178,-0.5897102443422061 L58.40367865921704,-0.49253283531842573 L58.427784713202016,-0.39474501907651727 L58.448218214795915,-0.2964329938491997 L58.46496115222802,-0.19768341995014976 L58.47799876689473,-0.09858334338447572 L58.487319566368996,0.0007798808808047175 L58.49291533453074,0.10031866591863073 L58.49478113880916,0.19994527004818882 " />
			<path d="M58.49478113880916,0.19994527004821944 L58.49159616458145,0.3301004337917876 L58.48204603436801,0.4600597514682095 L58.4661451183666,0.5896276717023118 L58.443917342880056,0.7186092320594409 L58.41539615431407,0.8468103524078234 L58.38062446885,0.9740381269533147 L58.33965460786835,1.1001011145071073 L58.29254821922013,1.2248096265496289 L58.23937618446463,1.3479760126571805 L58.18021851221303,1.4694149428618217 L58.115164217738474,1.5889436865196431 L58.04431118903371,1.7063823872678001 L57.9677660395178,1.8215543336565836 L57.885643947613644,1.934286225049299 L57.79806848343759,2.0444084323898544 L57.70517142286194,2.1517552534456748 " />
			<path d="M-15.215036791585465,-43.30290142274422 L56.72353609759051,-2.5300519270477153 " />
			<path d="M-57.78076177501446,-6.965463895152631 L-21.120848701086267,-47.61447727868341 " />
			<path d="M-21.120848701086274,-47.61447727868342 L-21.0593888444969,-47.68088691508869 L-20.995891638689017,-47.746080851461095 L-20.93039533200508,-47.81001981741111 L-20.862939376971173,-47.87266529849648 L-20.793564406532273,-47.93397955942186 L-20.72231220957647,-47.993925666769165 L-20.649225705762916,-48.05246751124485 L-20.574348919668633,-48.10956982943083 L-20.49772695426974,-48.16519822502582 L-20.419405963773112,-48.21931918956439 L-20.339433125814818,-48.271900122601224 L-20.257856613042062,-48.32290935134838 L-20.174725564095798,-48.372316149753814 L-20.09009005401144,-48.420090757009625 L-20.00400106405554,-48.46620439547879 L-19.91651045101657,-48.510629288029804 L-19.82767091596834,-48.553338674768554 L-19.737535972524842,-48.59430682915746 L-19.64615991460564,-48.63350907351223 L-19.553597783731256,-48.670921793866725 L-19.459905335868207,-48.706522454197156 L-19.3651390078437,-48.740289609996935 L-19.26935588335019,-48.772202921194044 L-19.17261365856032,-48.80224316440312 L-19.074970607372872,-48.83039224450496 L-18.976485546310773,-48.856633205546245 L-18.877217799092215,-48.880950240953275 L-18.777227160896263,-48.90332870305318 L-18.676573862344476,-48.92375511189718 L-18.57531853322023,-48.942217163380384 L-18.473522165947607,-48.95870373665331 L-18.371246078851847,-48.973204900820704 L-18.268551879223462,-48.98571192092349 L-18.165501426208323,-48.99621726320045 L-18.06215679354603,-49.00471459962618 L-17.958580232178985,-49.01119881172299 L-17.85483413275478,-49.01566599364395 L-17.7509809880444,-49.01811345452572 L-17.647083355298886,-49.018539720109366 L-17.543203818567235,-49.01694453362846 L-17.439404950998057,-49.01332885596368 L-17.33574927714789,-49.00769486506405 L-17.232299235318727,-49.00004595463503 L-17.129117139947525,-48.99038673209424 L-17.026265144070297,-48.978723015796156 L-16.923805201883482,-48.96506183152735 L-16.82179903142503,-48.9494114082744 L-16.720308077397767,-48.93178117326706 L-16.61939347415741,-48.912181746299666 L-16.519116008887508,-48.89062493333415 L-16.419536084983523,-48.867123719388594 L-16.320713685668085,-48.8416922607155 L-16.222708337859334,-48.81434587627463 L-16.125579076314132,-48.78510103850542 L-16.029384408067735,-48.753975363404614 L-15.934182277191349,-48.72098759991503 L-15.840030029888773,-48.686157618631896 L-15.746984379953204,-48.64950639983357 L-15.655101374604966,-48.61105602084377 L-15.564436360730747,-48.570829642733045 L-15.475043951544727,-48.528851496367416 L-15.386977993691598,-48.48514686781258 L-15.300291534811375,-48.43974208310257 L-15.215036791585504,-48.39266449238191 " />
			<path d="M-15.215036791585465,-48.39266449238189 L56.72353609759051,-7.619814996685385 " />
			<path d="M56.72353609759051,-7.619814996685383 L56.82468304355938,-7.560669373993802 L56.9235705429422,-7.499169442816612 L57.020111428154976,-7.435369414256824 L57.11422060011268,-7.369325526912666 L57.20581510324255,-7.301095997304252 L57.29481419860797,-7.230740968556739 L57.38113943507844,-7.158322457385237 L57.46471471848283,-7.083904299428165 L57.545466378685084,-7.0075520929772575 L57.62332323452309,-6.929333141153835 L57.69821665655369,-6.84931639258229 L57.77008062754825,-6.7675723806130925 L57.83885180068574,-6.684173161148889 L57.90446955539177,-6.599192249128499 L57.96687605077464,-6.5127045537247845 L58.026016276610996,-6.4247863123135485 L58.081838101836404,-6.33551502327163 L58.13429232049794,-6.244969377663454 L58.183332695128406,-6.1532291898762494 L58.2289159975038,-6.060375327265074 L58.271002046748244,-5.966489638869676 L58.30955374475272,-5.871654883266006 L58.344537108876416,-5.775954655615988 L58.37592130190178,-5.679473313979874 L58.40367865921704,-5.582295904956093 L58.427784713202016,-5.484508088714185 L58.448218214795915,-5.386196063486867 L58.46496115222802,-5.2874464895878175 L58.47799876689473,-5.188346413022144 L58.487319566368996,-5.088983188756863 L58.49291533453074,-4.989444403719037 L58.49478113880916,-4.889817799589479 " />
			<path d="M-21.120848701086267,-47.61447727868341 L-21.120848701086267,-42.52471420904574 " />
			<path d="M-15.215036791585472,-48.39266449238189 L-15.215036791585472,-43.30290142274422 " />
			<path d="M56.72353609759052,-7.619814996685385 L56.72353609759052,-2.530051927047717 " />
			<path d="M-36.89379418174197,6.319199451777704 L-28.361934279930097,11.154828318517211 " />
			<path d="M6.100707361367334,30.687327288567857 L9.523421088784271,32.62722943105007 " />
			<path d="M-56.79912644974303,7.895869424616102 L15.139446439432941,48.66871892031261 " />
			<path d="M-56.79912644974304,7.895869424616099 L-56.900273395711906,7.836723801924521 L-56.999160895094725,7.775223870747329 L-57.0957017803075,7.711423842187541 L-57.189810952265205,7.645379954843383 L-57.281405455395074,7.577150425234969 L-57.3704045507605,7.5067953964874565 L-57.45672978723096,7.434376885315956 L-57.540305070635355,7.359958727358885 L-57.6210567308376,7.283606520907977 L-57.698913586675616,7.205387569084553 L-57.773807008706214,7.125370820513007 L-57.84567097970078,7.043626808543811 L-57.914442152838255,6.96022758907961 L-57.980059907544295,6.875246677059218 L-58.04246640292716,6.788758981655504 L-58.10160662876352,6.700840740244266 L-58.15742845398893,6.611569451202346 L-58.209882672650465,6.5210238055941705 L-58.25892304728093,6.429283617806965 L-58.30450634965632,6.336429755195791 L-58.34659239890076,6.242544066800395 L-58.38514409690524,6.147709311196723 L-58.42012746102894,6.052009083546705 L-58.45151165405431,5.95552774191059 L-58.47926901136957,5.858350332886809 L-58.50337506535454,5.7605625166449 L-58.52380856694844,5.662250491417581 L-58.540551504380545,5.5635009175185335 L-58.55358911904725,5.464400840952862 L-58.56290991852152,5.365037616687581 L-58.56850568668327,5.2654988316497535 L-58.57037149096168,5.165872227520181 " />
			<path d="M-58.57037149096168,5.165872227520166 L-58.567186516733976,5.0357170637765964 L-58.557636386520535,4.905757746100176 L-58.54173547051912,4.776189825866075 L-58.51950769503258,4.647208265508945 L-58.49098650646659,4.519007145160562 L-58.456214821002526,4.39177937061507 L-58.41524496002087,4.265716383061277 L-58.368138571372654,4.141007871018756 L-58.314966536617156,4.017841484911206 L-58.255808864365555,3.8964025547065644 L-58.190754569891,3.776873811048742 L-58.11990154118622,3.6594351103005844 L-58.04335639167032,3.5442631639118005 L-57.96123429976617,3.431531272519086 L-57.87365883559012,3.321409065178531 L-57.78076177501447,3.2140622441227196 " />
			<path d="M-57.78076177501446,-1.8757008255149632 L-57.780761775014454,3.2140622441227054 " />
			<path d="M-58.57037149096169,0.0761091578824943 L-58.56718651673398,-0.054046005861074414 L-58.55763638652054,-0.18400532353749527 L-58.54173547051913,-0.31357324377159657 L-58.51950769503259,-0.4425548041287263 L-58.4909865064666,-0.5707559244771094 L-58.45621482100253,-0.6979836990226012 L-58.41524496002087,-0.8240466865763941 L-58.36813857137266,-0.9487551986189149 L-58.31496653661716,-1.0719215847264654 L-58.25580886436556,-1.193360514931107 L-58.190754569891006,-1.3128892585889291 L-58.11990154118624,-1.4303279593370868 L-58.04335639167033,-1.5454999057258705 L-57.961234299766176,-1.658231797118585 L-57.87365883559012,-1.76835400445914 L-57.780761775014476,-1.8757008255149517 " />
			<path d="M21.045258348933743,47.890531706614134 L20.983798492344373,47.95694134301941 L20.92030128653649,48.02213527939181 L20.854804979852553,48.08607424534183 L20.787349024818646,48.148719726427196 L20.71797405437974,48.21003398735258 L20.646721857423938,48.26998009469988 L20.573635353610385,48.328521939175566 L20.498758567516106,48.38562425736155 L20.42213660211721,48.441252652956535 L20.343815611620585,48.495373617495105 L20.26384277366229,48.54795455053194 L20.182266260889534,48.598963779279096 L20.099135211943267,48.64837057768453 L20.01449970185891,48.69614518494034 L19.92841071190301,48.74225882340951 L19.84092009886404,48.78668371596053 L19.752080563815813,48.82939310269927 L19.66194562037231,48.870361257088184 L19.57056956245311,48.90956350144295 L19.478007431578725,48.94697622179744 L19.384314983715676,48.98257688212787 L19.289548655691167,49.01634403792765 L19.193765531197663,49.04825734912476 L19.097023306407788,49.07829759233385 L18.99938025522034,49.10644667243567 L18.900895194158245,49.13268763347696 L18.80162744693969,49.15700466888399 L18.70163680874374,49.179383130983894 L18.60098351019195,49.199809539827896 L18.499728181067702,49.2182715913111 L18.39793181379508,49.23475816458403 L18.29565572669932,49.24925932875142 L18.19296152707093,49.261766348854216 L18.089911074055795,49.27227169113117 L17.9865664413935,49.2807690275569 L17.882989880026454,49.28725323965371 L17.779243780602254,49.29172042157467 L17.67539063589187,49.294167882456435 L17.57149300314636,49.29459414804008 L17.467613466414708,49.29299896155918 L17.36381459884553,49.289383283894395 L17.260158924995366,49.28374929299477 L17.156708883166203,49.276100382565744 L17.053526787794997,49.266441160024954 L16.950674791917773,49.25477744372687 L16.848214849730958,49.24111625945807 L16.746208679272506,49.22546583620512 L16.644717725245243,49.20783560119778 L16.543803122004885,49.18823617423038 L16.44352565673498,49.16667936126487 L16.343945732830996,49.14317814731931 L16.245123333515558,49.117746688646214 L16.147117985706807,49.090400304205346 L16.049988724161604,49.061155466436134 L15.953794055915207,49.03002979133533 L15.85859192503882,48.997042027845744 L15.764439677736243,48.96221204656261 L15.671394027800675,48.925560827764286 L15.579511022452436,48.887110448774486 L15.488846008578218,48.84688407066376 L15.399453599392196,48.804905924298126 L15.311387641539069,48.7612012957433 L15.224701182658846,48.71579651103329 L15.139446439432959,48.668718920312614 " />
			<path d="M-57.78076177501446,3.214062244122708 L-21.120848701086267,-37.43495113940807 " />
			<path d="M21.045258348933743,47.89053170661413 L57.70517142286194,7.241518323083344 " />
			<path d="M-21.120848701086267,-37.43495113940808 L-21.059388844496894,-37.50136077581335 L-20.99589163868901,-37.566554712185756 L-20.930395332005073,-37.63049367813577 L-20.862939376971166,-37.69313915922114 L-20.793564406532266,-37.75445342014652 L-20.72231220957646,-37.814399527493826 L-20.64922570576291,-37.87294137196951 L-20.574348919668626,-37.93004369015549 L-20.497726954269734,-37.98567208575048 L-20.419405963773105,-38.03979305028905 L-20.33943312581481,-38.092373983325885 L-20.257856613042055,-38.14338321207304 L-20.17472556409579,-38.192790010478475 L-20.090090054011434,-38.240564617734286 L-20.004001064055533,-38.28667825620345 L-19.916510451016563,-38.331103148754465 L-19.827670915968334,-38.373812535493215 L-19.737535972524835,-38.41478068988212 L-19.646159914605633,-38.45398293423689 L-19.55359778373125,-38.491395654591386 L-19.4599053358682,-38.52699631492182 L-19.36513900784369,-38.5607634707216 L-19.269355883350183,-38.592676781918705 L-19.172613658560312,-38.622717025127784 L-19.074970607372865,-38.65086610522962 L-18.976485546310766,-38.677107066270906 L-18.877217799092207,-38.70142410167794 L-18.777227160896256,-38.72380256377784 L-18.67657386234447,-38.74422897262184 L-18.575318533220223,-38.762691024105045 L-18.4735221659476,-38.77917759737797 L-18.37124607885184,-38.793678761545365 L-18.268551879223455,-38.80618578164815 L-18.165501426208316,-38.81669112392511 L-18.062156793546023,-38.825188460350844 L-17.958580232178978,-38.83167267244765 L-17.854834132754775,-38.83613985436861 L-17.750980988044393,-38.83858731525038 L-17.64708335529888,-38.83901358083403 L-17.54320381856723,-38.83741839435312 L-17.43940495099805,-38.83380271668834 L-17.335749277147883,-38.828168725788714 L-17.23229923531872,-38.82051981535969 L-17.129117139947518,-38.8108605928189 L-17.02626514407029,-38.79919687652082 L-16.923805201883475,-38.78553569225201 L-16.821799031425023,-38.76988526899906 L-16.72030807739776,-38.75225503399172 L-16.619393474157402,-38.73265560702433 L-16.5191160088875,-38.71109879405881 L-16.419536084983516,-38.687597580113255 L-16.32071368566808,-38.66216612144016 L-16.222708337859327,-38.63481973699929 L-16.125579076314125,-38.60557489923008 L-16.029384408067727,-38.574449224129275 L-15.934182277191342,-38.54146146063969 L-15.840030029888766,-38.50663147935656 L-15.746984379953197,-38.46998026055823 L-15.655101374604959,-38.43152988156843 L-15.56443636073074,-38.391303503457706 L-15.47504395154472,-38.34932535709208 L-15.386977993691591,-38.30562072853724 L-15.300291534811368,-38.260215943827234 L-15.215036791585497,-38.21313835310657 " />
			<path d="M56.72353609759051,2.559711142589953 L56.82468304355938,2.6188567652815333 L56.9235705429422,2.6803566964587233 L57.020111428154976,2.7441567250185113 L57.11422060011268,2.8102006123626686 L57.20581510324255,2.8784301419710836 L57.29481419860797,2.9487851707185966 L57.38113943507844,3.0212036818900985 L57.46471471848283,3.09562183984717 L57.545466378685084,3.171974046298078 L57.62332323452309,3.2501929981215003 L57.69821665655369,3.330209746693045 L57.77008062754825,3.411953758662243 L57.83885180068574,3.495352978126446 L57.90446955539177,3.5803338901468367 L57.96687605077464,3.6668215855505504 L58.026016276610996,3.754739826961787 L58.081838101836404,3.8440111160037054 L58.13429232049794,3.9345567616118813 L58.183332695128406,4.026296949399086 L58.2289159975038,4.119150812010261 L58.271002046748244,4.213036500405659 L58.30955374475272,4.30787125600933 L58.344537108876416,4.403571483659348 L58.37592130190178,4.5000528252954615 L58.40367865921704,4.597230234319242 L58.427784713202016,4.69501805056115 L58.448218214795915,4.793330075788468 L58.46496115222802,4.892079649687518 L58.47799876689473,4.991179726253192 L58.487319566368996,5.090542950518472 L58.49291533453074,5.190081735556299 L58.49478113880916,5.289708339685856 " />
			<path d="M58.49478113880916,5.2897083396858875 L58.49159616458145,5.419863503429455 L58.48204603436801,5.549822821105877 L58.4661451183666,5.679390741339979 L58.443917342880056,5.8083723016971085 L58.41539615431407,5.936573422045491 L58.38062446885,6.063801196590982 L58.33965460786835,6.189864184144775 L58.29254821922013,6.314572696187296 L58.23937618446463,6.437739082294848 L58.18021851221303,6.55917801249949 L58.115164217738474,6.678706756157311 L58.04431118903371,6.796145456905467 L57.9677660395178,6.911317403294252 L57.885643947613644,7.024049294686966 L57.79806848343759,7.134171502027522 L57.70517142286194,7.241518323083342 " />
			<path d="M-15.215036791585458,-38.21313835310655 L56.72353609759051,2.559711142589954 " />
			<path d="M-27.48009743892624,8.23872296001673 L-27.444940790200892,8.366997997104614 L-27.414319552818924,8.502917554270503 L-27.388280619807045,8.645757259952706 L-27.36687088419197,8.79479274258953 L-27.350137239000414,8.949299630619281 L-27.338126577259086,9.108553552480267 L-27.3308857919947,9.271830136610793 L-27.32846177623397,9.438405011449165 " />
			<path d="M-27.32846177623397,9.438405011449166 L-27.32947522191268,9.547237701810898 L-27.332523943287363,9.656946559918296 L-27.337620516865837,9.767337312437949 L-27.344777519155933,9.878215686036443 L-27.35400752666547,9.989387407380367 L-27.365323115902278,10.100658203136309 L-27.378736863374176,10.211833799970854 L-27.394261345588987,10.322719924550594 L-27.41190913905454,10.433122303542115 L-27.431692820278656,10.542846663612004 L-27.453624965769162,10.651698731426848 L-27.47771815203388,10.759484233653238 L-27.503984955580634,10.866008896957759 L-27.53243795291725,10.971078448006997 L-27.56308972055155,11.074498613467544 L-27.59595283499136,11.176075120005985 L-27.631039872744502,11.275613694288909 L-27.6683634103188,11.372920062982903 L-27.707936024222082,11.467799952754557 L-27.74977029096217,11.560059090270455 L-27.79387878704689,11.649503202197186 L-27.84027408898406,11.735938015201338 L-27.888968773281512,11.8191692559495 L-27.939975416447062,11.899002651108258 L-27.993306594988542,11.975243927344202 L-28.048974885413774,12.047698811323917 L-28.10699286423058,12.116173029713991 L-28.167107517451285,12.181608818437732 L-28.228890401803525,12.245664537063192 L-28.29229349317876,12.308347005139042 L-28.357273102245518,12.369644364972178 L-28.423785539672327,12.429544758869493 L-28.49178711612771,12.48803632913788 L-28.5612341422802,12.545107218084233 L-28.7042897863506,12.654939521238415 L-28.85260295723174,12.758946806787186 L-29.005824140271837,12.8570342131857 L-29.163603820819116,12.94910687888911 L-29.32559248422178,13.035069942352559 L-29.491440615828058,13.114828542031205 L-29.66079870098616,13.188287816380194 L-29.8333172250443,13.25535290385468 L-30.008646673350704,13.315928942909812 L-30.18643753125358,13.369921072000741 L-30.366340284101152,13.417234429582617 L-30.548005417241633,13.457774154110593 L-30.73108341602324,13.491445384039817 L-30.915224765794186,13.518153257825439 L-31.100079951902686,13.537802913922613 " />
			<path d="M-31.100079951902693,13.537802913922615 L-31.286225438022594,13.547155394547044 L-31.46983074014016,13.549735566171059 L-31.65089776461838,13.545534336595441 L-31.82942841782025,13.534542613620967 L-32.005424606108754,13.51675130504842 L-32.178888235846884,13.492151318678575 L-32.34982121339764,13.460733562312214 L-32.518225445124,13.422488943750116 L-32.68410283738896,13.37740837079306 L-32.84745529655552,13.325482751241825 L-33.00828472898666,13.26670299289719 L-33.166593041045374,13.201060003559936 L-33.32238213909465,13.128544691030841 L-33.475653929497476,13.049147963110684 L-33.626410318616855,12.962860727600248 L-33.77465321281577,12.869673892300305 L-33.92038451845721,12.769578365011641 L-34.06360614190418,12.662565053535033 L-34.204319989519654,12.548624865671261 L-34.342527967666626,12.427748709221103 L-34.47823198270809,12.29992749198534 L-34.611433941007036,12.165152121764748 L-34.74213574892646,12.02341350636011 L-34.870339312829344,11.874702553572206 L-34.996046539078684,11.71901017120181 L-35.11925933403747,11.556327267049708 L-35.2399796040687,11.386644748916675 L-35.35820925553535,11.20995352460349 L-35.47395019480042,11.026244501910934 L-35.5872043282269,10.835508588639787 L-35.697973562177786,10.637736692590828 L-35.806259803016054,10.43291972156485 " />
			<path d="M-35.80625980301606,10.432919721564835 L-35.9472423555589,10.090486430869625 L-36.08164410635929,9.751782961718394 L-36.21058860693426,9.416172515310956 L-36.33519940880079,9.083018292847115 L-36.575914122476554,8.421531324549456 L-36.8127766595226,7.762227666423886 L-37.05477543207493,7.100012928068866 L-37.18050978545847,6.766221906804832 L-37.310898852269574,6.42979271908286 L-37.44706618402526,6.090088566102757 L-37.590135332242525,5.746472649064332 L-37.74122984843837,5.398308169167393 L-37.90147328412979,5.044958327611759 " />
			<path d="M-37.9014732841298,5.044958327611747 L-38.072948620932046,4.694813885913223 L-38.27196663253556,4.304446980573363 L-38.49852731894034,3.8738576115921695 L-38.752630680146396,3.403045778969641 L-39.034276716153705,2.8920114827057777 L-39.34346542696229,2.34075472280058 L-39.68019681257214,1.749275499254047 L-40.044470872983254,1.1175738120661913 " />
			<path d="M-34.66345413795373,1.4545983793049562 L-35.136861703608076,1.439240525528184 L-35.66718913389795,1.4162340382862477 L-36.254436428823354,1.3855789175791469 L-36.89860358838428,1.347275163406882 L-37.59969061258074,1.3013227757694528 L-38.357697501412716,1.2477217546668595 L-39.172624254880226,1.1864721000991016 L-40.04447087298325,1.1175738120661811 " />
			<path d="M-27.55453359179315,1.2832927565249435 L-28.00887283590141,1.288313654375551 L-28.456631278267235,1.2970643737701404 L-28.898932470407626,1.3089081159085196 L-29.336899963839585,1.3232080819904968 L-30.204328060646205,1.3566294907844763 L-31.067903980823107,1.392234209750543 L-31.936616136506302,1.4249278484871604 L-32.37570718145526,1.4385910157689457 L-32.81945293983179,1.4496160165927927 L-33.26897696315291,1.457366052158509 L-33.725402802935605,1.4612043236659034 L-34.18985401069688,1.460494032314783 L-34.663454137953714,1.4545983793049564 " />
			<path d="M-22.326092588070736,3.8090856346396915 L-22.34971234664912,3.737245219551525 L-22.375146115445315,3.6664286750187154 L-22.40239532811561,3.5966361899489026 L-22.431461418316296,3.527867953249727 L-22.462345819703657,3.4601241538288288 L-22.49504996593398,3.3934049805938487 L-22.52957529066356,3.327710622452427 L-22.56592322754868,3.263041268312204 L-22.60409521024563,3.19939710708082 L-22.6440926724107,3.1367783276659162 L-22.685917047700176,3.0751851189751322 L-22.729569769770347,3.0146176699161082 L-22.775052272277502,2.955076169396485 L-22.82236598887793,2.896560806323903 L-22.871512353227917,2.8390717696060026 L-22.92249279898375,2.7826092481504245 L-22.975308759801724,2.7271734308648083 L-23.02996166933812,2.6727645066567947 L-23.08645296124923,2.6193826644340246 L-23.144784069191342,2.5670280931041374 L-23.266971467793727,2.465401518753576 L-23.396535334395576,2.367886294866233 L-23.533487138247203,2.274483932703232 L-23.67783834859891,2.1851959435256965 L-23.829600434701003,2.1000238385947485 L-23.988784865803794,2.018969129171512 L-24.155403111157582,1.9420333265171097 L-24.32946664001268,1.869217941892665 L-24.51098692161939,1.800524486559301 L-24.699975425228025,1.7359544717781414 L-24.89644362008889,1.6755094088103082 L-25.100402975452283,1.6191908089169256 L-25.31186496056852,1.5670001833591156 L-25.530841044687907,1.5189390433980026 L-25.75734269706075,1.4750089002947084 L-25.991381386937352,1.4352112653103575 L-26.232968583568024,1.3995476497060721 L-26.482115756203072,1.3680195647429763 L-26.738834374092804,1.3406285216821918 L-27.00313590648752,1.317376031784843 L-27.275031822637533,1.2982636063120525 L-27.554533591793128,1.2832927565249443 " />
			<path d="M-27.48009743892624,8.23872296001673 L-27.369922560443396,8.229165057901993 L-27.256126562935588,8.216899360846977 L-27.138980247544865,8.201987168909286 L-27.018754415413277,8.184489782146523 L-26.89571986768287,8.164468500616293 L-26.770147405495706,8.1419846243762 L-26.512471942319273,8.089874287996832 L-26.247894435020388,8.028649173469246 L-25.978581292735445,7.958799681254273 L-25.706698924600847,7.880816211812739 L-25.434413739752994,7.795189165605471 L-25.16389214732829,7.702408943093299 L-24.897300556463133,7.602965944737047 L-24.76615551447051,7.5508991547614 L-24.63680537629392,7.497350570997545 L-24.509520943075422,7.442381493503083 L-24.384573015957063,7.38605322233562 L-24.26223239608089,7.328427057552758 L-24.142769884588954,7.2695642992120995 L-24.026456282623307,7.20952624737125 L-23.913562391325996,7.148374202087812 L-23.804359011839075,7.086169463419388 L-23.699116945304592,7.022973331423583 L-23.598106992864597,6.958847106158 L-23.501599955661142,6.893852087680243 L-23.409866634836277,6.828049576047914 L-23.323177831532046,6.761500871318618 L-23.241804346890508,6.694267273549957 L-23.166016982053705,6.626410082799535 L-23.096086538163696,6.557990599124956 L-23.03215585427092,6.4890551030325385 L-22.971680564741536,6.419337737183061 L-22.913576569984805,6.348752106481798 L-22.857843893286187,6.277340225338614 L-22.80448255793115,6.20514410816338 L-22.75349258720515,6.132205769365961 L-22.704874004393663,6.058567223356224 L-22.65862683278215,5.984270484544037 L-22.61475109565607,5.909357567339267 L-22.573246816300898,5.833870486151782 L-22.53411401800209,5.757851255391447 L-22.497352724045115,5.681341889468132 L-22.462962957715437,5.604384402791702 L-22.430944742298518,5.527020809772024 L-22.401298101079828,5.449293124818967 L-22.37402305734483,5.371243362342398 L-22.349119634378983,5.292913536752182 L-22.32658785546776,5.2143456624581885 L-22.306427743896624,5.135581753870284 L-22.288639322951035,5.056663825398335 L-22.273222615916463,4.977633891452209 L-22.26017764607837,4.898533966441774 L-22.24950443672222,4.819406064776897 L-22.24120301113348,4.740292200867444 L-22.235273392597616,4.661234389123283 L-22.231715604400087,4.582274643954282 L-22.230529669826364,4.503454979770314 " />
			<path d="M-22.230529669826364,4.503454979770307 L-22.232022802045833,4.415233174948241 L-22.236502220634577,4.327299986876616 L-22.243967958488117,4.239714769563173 L-22.254420048501963,4.152536877015654 L-22.267858523571633,4.065825663241805 L-22.284283416592643,3.9796404822493656 L-22.303694760460505,3.8940406880460805 L-22.326092588070736,3.8090856346396977 " />
			<path d="M-3.4220370582342383,-15.254799035668096 L-3.5381971378483645,-15.256466879122991 L-3.716673728407296,-15.263265870269155 L-4.250518975475318,-15.28476236757965 L-4.600858898542279,-15.295712409716154 L-5.003457865669788,-15.304298671488285 L-5.455801510136781,-15.308647420882126 L-5.955375465222193,-15.30688492588377 L-6.222088069646475,-15.303126420483169 L-6.49966536420496,-15.297137454479302 L-6.787793053057519,-15.28868381137043 L-7.086156840364017,-15.277531274654812 L-7.394442430284322,-15.263445627830713 L-7.7123355269783005,-15.246192654396388 L-8.03952183460582,-15.225538137850105 L-8.375687057326745,-15.20124786169012 L-8.720516899300947,-15.173087609414697 L-9.073697064688288,-15.140823164522095 L-9.434913257648638,-15.104220310510575 L-9.803851182341862,-15.0630448308784 L-10.180196542927831,-15.01706250912383 L-10.563635043566407,-14.966039128745125 L-10.95385238841746,-14.909740473240548 L-11.350534281640826,-14.847932326108365 " />
			<path d="M-11.350534281640854,-14.84793232610836 L-11.568654151875652,-14.822561199894784 L-11.78295285776559,-14.800322390839266 L-11.993442758154442,-14.781170745109879 L-12.200136211885983,-14.765061108874699 L-12.40304557780399,-14.751948328301799 L-12.602183214752234,-14.741787249559255 L-12.79756148157449,-14.734532718815144 L-12.989192737114537,-14.730139582237538 L-13.177089340216147,-14.728562685994515 L-13.361263649723094,-14.729756876254145 L-13.541728024479156,-14.733676999184507 L-13.718494823328104,-14.740277900953675 L-13.891576405113714,-14.749514427729723 L-14.060985128679762,-14.761341425680728 L-14.226733352870024,-14.775713740974762 L-14.388833436528271,-14.792586219779903 L-14.54729773849828,-14.811913708264223 L-14.702138617623827,-14.833651052595798 L-14.853368432748685,-14.857753098942704 L-15.000999542716627,-14.884174693473014 L-15.145044306371434,-14.912870682354805 L-15.285515082556875,-14.94379591175615 L-15.422424230116727,-14.976905227845124 L-15.555784107894764,-15.012153476789804 L-15.685607074734763,-15.049495504758264 L-15.811905489480495,-15.088886157918576 L-15.934691710975741,-15.13028028243882 L-16.05397809806427,-15.173632724487067 L-16.169777009589858,-15.218898330231394 L-16.28210080439628,-15.266031945839874 L-16.39096184132731,-15.314988417480583 L-16.49637247922673,-15.365722591321596 L-16.598345076938305,-15.418189313530988 L-16.69689199330581,-15.472343430276833 L-16.792025587173033,-15.528139787727207 L-16.883758217383733,-15.585533232050185 L-16.972102242781695,-15.644478609413841 L-17.057070022210688,-15.70493076598625 L-17.138673914514488,-15.766844547935488 L-17.21692627853687,-15.830174801429628 L-17.291839473121613,-15.894876372636746 L-17.36342585711249,-15.960904107724918 L-17.431697789353272,-16.028212852862218 L-17.49666762868773,-16.09675745421672 L-17.558347733959653,-16.1664927579565 L-17.616750464012807,-16.23737361024963 L-17.671888177690967,-16.309354857264193 L-17.723773233837907,-16.382391345168255 L-17.772417991297402,-16.456437920129893 L-17.81783480891323,-16.531449428317185 L-17.860036045529164,-16.607380715898206 L-17.899034059988978,-16.684186629041022 L-17.934841211136447,-16.761822013913722 L-17.96746985781535,-16.84024171668437 L-17.996932358869454,-16.919400583521046 L-18.02324107314254,-16.999253460591824 L-18.046408359478377,-17.07975519406478 L-18.06644657672075,-17.160860630107987 L-18.083368083713424,-17.24252461488952 L-18.097185239300178,-17.32470199457745 L-18.107910402324784,-17.40734761533986 L-18.11555593163102,-17.49041632334482 L-18.12013418606266,-17.573862964760405 L-18.12165752446348,-17.65764238575468 " />
			<path d="M-18.12165752446348,-17.65764238575469 L-18.118167907406367,-17.78519499485788 L-18.1077277692481,-17.913251380276346 L-18.090380179508294,-18.041654184745532 L-18.06616820770655,-18.17024605100088 L-18.03513492336248,-18.298869621777833 L-17.997323395995696,-18.42736753981183 L-17.952776695125802,-18.555582447838308 L-17.90153789027241,-18.68335698859271 L-17.843650050955134,-18.81053380481048 L-17.779156246693574,-18.93695553922705 L-17.708099547007343,-19.062464834577867 L-17.630523021416053,-19.186904333598374 L-17.54646973943931,-19.310116679024006 L-17.455982770596716,-19.431944513590206 L-17.359105184407895,-19.552230480032414 L-17.255880050392445,-19.67081722108607 L-17.146350438069984,-19.787547379486618 L-17.030559416960113,-19.902263597969494 L-16.908550056582442,-20.01480851927014 L-16.780365426456584,-20.125024786123998 L-16.64604859610214,-20.232755041266508 L-16.505642635038736,-20.337841927433107 L-16.359190612785966,-20.44012808735924 L-16.20673559886344,-20.539456163780347 L-16.048320662790772,-20.63566879943187 L-15.88398887408757,-20.72860863704924 L-15.713783302273443,-20.818118319367912 L-15.537747016868,-20.904040489123318 L-15.355923087390853,-20.9862177890509 L-15.168354583361603,-21.0644928618861 L-14.975084574299865,-21.138708350364357 L-14.77615612972528,-21.2087068972211 " />
			<path d="M-14.776156129725248,-21.20870689722111 L-15.317219304053115,-21.35580546778417 L-15.566552070310482,-21.420620632117803 L-15.802505198512181,-21.47994363717185 L-16.025643370569735,-21.534022423960565 L-16.23653126839468,-21.583104933498205 L-16.43573357389854,-21.627439106799027 L-16.62381496899284,-21.66727288487729 L-16.80134013558912,-21.70285420874724 L-16.9688737555989,-21.734431019423145 L-17.276225083505082,-21.786562865249827 L-17.55038640800363,-21.825651950471386 L-17.795875184386766,-21.85368180320187 L-18.017208867946724,-21.872635951555335 L-18.21890491397574,-21.884497923645824 L-18.405480777766044,-21.891251247587395 L-18.581453914609867,-21.89487945149409 L-18.919661828627007,-21.900694611659077 L-19.090931516384778,-21.906848624145468 L-19.269668298364998,-21.917811629053187 " />
			<path d="M-16.50168418953707,-24.98699029454125 L-19.26966829836501,-21.917811629053187 " />
			<path d="M-14.201668861855298,-21.845706242888443 L-14.382893695286906,-22.029317989645598 L-14.552277572400907,-22.20398332965873 L-14.710299109122982,-22.370045635085194 L-14.857436921378822,-22.527848278082335 L-14.99416962509411,-22.677734630807503 L-15.120975836194534,-22.820048065418053 L-15.23833417060578,-22.955131954071334 L-15.346723244253536,-23.083329668924698 L-15.446621673063486,-23.20498458213549 L-15.538508072961319,-23.320440065861067 L-15.622861059872719,-23.43003949225878 L-15.700159249723374,-23.53412623348597 L-15.770881258438969,-23.6330436617 L-15.835505701945193,-23.72713514905821 L-15.89451119616773,-23.81674406771796 L-15.948376357032268,-23.90221378983659 L-16.042600142390093,-24.062109133079918 L-16.122005985424153,-24.20956815604699 L-16.190422813539946,-24.347337835996623 L-16.25167955414296,-24.478165150187614 L-16.36802848243262,-24.729980590328886 L-16.43077852493025,-24.85646267079678 L-16.501684189537066,-24.986990294541243 " />
			<path d="M-5.501209372419552,-21.333743845630305 L-5.5364798853626995,-21.484988190038816 L-5.573688833963722,-21.6332325649755 L-5.61280232664502,-21.77849318844683 L-5.653786471828995,-21.92078627845929 L-5.696607377938046,-22.06012805301936 L-5.741231153394577,-22.196534730133514 L-5.787623906620986,-22.330022527808236 L-5.835751746039676,-22.46060766405001 L-5.885580780073046,-22.588306356865306 L-5.937077117143498,-22.713134824260614 L-5.990206865673432,-22.835109284242407 L-6.044936134085249,-22.954245954817164 L-6.10123103080135,-23.07056105399137 L-6.159057664244137,-23.184070799771497 L-6.218382142836009,-23.294791410164034 L-6.279170574999368,-23.402739103175453 L-6.341389069156613,-23.507930096812238 L-6.4050037337301475,-23.610380609080867 L-6.46998067714237,-23.71010685798782 L-6.536286007815684,-23.80712506153958 L-6.6038858341724875,-23.90145143774262 L-6.672746264635183,-23.993102204603424 L-6.74283340762617,-24.08209358012847 L-6.814113371567851,-24.168441782324237 L-6.886552264882626,-24.25216302919721 L-6.960116195992896,-24.33327353875386 L-7.034771273321061,-24.411789529000675 L-7.110483605289523,-24.48772721794413 L-7.187219300320682,-24.561102823590705 L-7.264944466836939,-24.631932563946883 L-7.343625213260696,-24.70023265701914 L-7.423227648014351,-24.766019320813957 L-7.503717879520308,-24.82930877333781 L-7.5850620162009665,-24.890117232597188 L-7.667226166478727,-24.948460916598563 L-7.75017643877599,-25.004356043348416 L-7.833878941515158,-25.057818830853225 L-7.918299783118631,-25.108865497119474 L-8.003405072008809,-25.15751226015364 L-8.089160916608092,-25.203775337962206 L-8.175533425338884,-25.247670948551644 L-8.262488706623584,-25.289215309928444 L-8.349992868884593,-25.328424640099076 L-8.43801202054431,-25.36531515707003 L-8.52651227002514,-25.39990307884777 L-8.61545972574948,-25.432204623438793 L-8.704820496139732,-25.46223600884957 L-8.794560689618299,-25.49001345308658 L-8.884646414607579,-25.515553174156306 L-8.975043779529972,-25.538871390065225 L-9.065718892807883,-25.55998431881982 L-9.15663786286371,-25.578908178426566 L-9.247766798119853,-25.595659186891943 L-9.339071806998714,-25.610253562222436 L-9.430518997922695,-25.622707522424523 L-9.522074479314195,-25.633037285504678 L-9.613704359595616,-25.64125906946939 L-9.705374747189357,-25.647389092325128 L-9.79705175051782,-25.65144357207838 L-9.888701478003409,-25.653438726735622 L-9.980290038068519,-25.653390774303336 L-10.071783539135556,-25.651315932788 L-10.163148089626917,-25.64723042019609 L-10.254349797965006,-25.641150454534095 L-10.436129121870962,-25.62307203602575 L-10.616850378232634,-25.5972104213148 L-10.796242434429228,-25.563695354453078 L-10.974034157839952,-25.522656579492427 L-11.149954415844011,-25.474223840484687 L-11.323732075820612,-25.418526881481686 L-11.495096005148959,-25.35569544653527 L-11.663775071208264,-25.285859279697274 L-11.829498141377726,-25.20914812501953 L-11.991994083036563,-25.125691726553885 L-12.150991763563969,-25.035619828352168 L-12.30622005033916,-24.939062174466223 L-12.457407810741339,-24.836148508947883 L-12.604283912149713,-24.727008575848988 L-12.746577221943486,-24.61177211922137 L-12.88401660750187,-24.490568883116875 L-13.016330936204067,-24.363528611587334 L-13.143249075429285,-24.23078104868459 L-13.264499892556731,-24.092455938460475 L-13.322915326389792,-24.021242348119102 L-13.379812254965612,-23.94868302496683 L-13.435156786706592,-23.874794187010128 L-13.488915030035134,-23.799592052255488 L-13.54105309337364,-23.723092838709384 L-13.591537085144505,-23.64531276437829 L-13.640333113770136,-23.566268047268693 L-13.687407287672931,-23.485974905387074 L-13.73272571527529,-23.40444955673991 L-13.776254504999617,-23.321708219333676 L-13.817959765268311,-23.237767111174858 L-13.85780760450377,-23.152642450269934 L-13.895764131128402,-23.066350454625386 L-13.931795453564598,-22.978907342247687 L-13.96586768023477,-22.89032933114332 L-13.997946919561306,-22.80063263931877 L-14.02799927996662,-22.709833484780507 L-14.055990869873105,-22.61794808553502 L-14.081887797703162,-22.52499265958878 L-14.105656171879195,-22.430983424948273 L-14.127262100823604,-22.335936599619973 L-14.146671692958789,-22.23986840161037 L-14.16385105670715,-22.142795048925933 L-14.178766300491088,-22.044732759573147 L-14.191383532733006,-21.94569775155849 L-14.201668861855298,-21.845706242888472 " />
			<path d="M-3.4220370582342383,-15.254799035668096 L-3.461604785706701,-15.34139352750331 L-3.527456064717886,-15.473073005605253 L-3.725809723713418,-15.866567167670693 L-3.852212326876262,-16.125821975164875 L-3.9926989279348226,-16.425042015987152 L-4.144219638478349,-16.762947351902863 L-4.223164694678614,-16.94600702482243 L-4.303724570096088,-17.138258044677357 L-4.38551802867943,-17.339540419188314 L-4.468163834377291,-17.54969415607597 L-4.551280751138332,-17.76855926306099 L-4.634487542911206,-17.995975747864044 L-4.71740297364457,-18.231783618205796 L-4.79964580728708,-18.47582288180692 L-4.880834807787393,-18.72793354638808 L-4.960588739094163,-18.98795561966994 L-5.038526365156048,-19.255729109373178 L-5.114266449921703,-19.53109402321845 L-5.187427757339785,-19.81389036892643 L-5.257629051358949,-20.103958154217786 L-5.324489095927851,-20.401137386813183 L-5.387626654995149,-20.70526807443329 L-5.446660492509498,-21.016190224798777 L-5.501209372419549,-21.33374384563028 " />
			<path d="M14.103529079051182,25.90032094479825 L14.371835465005017,26.391766417789093 L14.633435561880527,26.885179387607913 L14.888719386332863,27.380396342463623 L15.138076955017178,27.877253770565147 L15.381898284588623,28.3755881601214 L15.62057339170235,28.875235999341307 L15.85449229301351,29.37603377643378 L16.08404500517726,29.87781797960774 L16.309621544848742,30.38042509707211 L16.531611928683116,30.8836916170358 L16.75040617333553,31.38745402770774 L16.966394295461136,31.891548817296844 L17.391512238752536,32.90008148606222 L17.810085891798522,33.90798152900325 " />
			<path d="M7.053003518829074,33.71804018707917 L7.726393811481868,33.760323079906414 L8.399963093923741,33.79693897811409 L9.073642364218685,33.82823333600763 L9.747362620430692,33.85455160789244 L10.421054860623752,33.876239248073944 L11.094650082861857,33.89364171085758 L11.768079285209,33.90710445054875 L12.441273465729171,33.91697292145289 L13.11416362248636,33.92359257787541 L13.786680753544562,33.92730887412174 L14.458755856967766,33.9284672644973 L15.130319930819963,33.9274132033075 L16.47163898206731,33.92004954345356 L17.810085891798508,33.90798152900327 " />
			<path d="M7.053003518829074,33.71804018707917 L6.78469713287524,33.22659471408832 L6.52309703599973,32.73318174426951 L6.267813211547394,32.237964789413795 L6.0184556428630795,31.741107361312274 L5.774634313291634,31.24277297175602 L5.535959206177907,30.743125132536115 L5.302040304866746,30.242327355443642 L5.072487592702998,29.74054315226968 L4.846911053031515,29.237936034805312 L4.624920669197142,28.734669514841617 L4.406126424544727,28.230907104169678 L4.19013830241912,27.726812314580577 L3.7650203591277207,26.718279645815205 L3.3464467060817378,25.71037960287417 " />
			<path d="M14.103529079051182,25.90032094479825 L13.430138786398388,25.858038051971008 L12.756569503956515,25.82142215376333 L12.082890233661571,25.790127795869797 L11.409169977449565,25.763809523984985 L10.735477737256506,25.742121883803474 L10.0618825150184,25.724719421019845 L9.388453312671258,25.711256681328674 L8.715259132151086,25.701388210424536 L8.042368975393897,25.694768554002014 L7.369851844335695,25.691052257755686 L6.6977767409124915,25.68989386738013 L6.0262126670602925,25.69094792856992 L4.68489361581295,25.698311588423866 L3.3464467060817533,25.710379602874152 " />
			<path d="M27.59539713962998,-1.17718853484058 L27.562307124964725,-1.1162253032483116 L27.530184464172457,-1.05007944028217 L27.500090863853913,-0.9785069769498129 L27.473088030609823,-0.9012639442588977 L27.45023767104092,-0.8181063732170821 L27.43260149174794,-0.7287902948320233 L27.42124119933161,-0.6330717401113791 L27.418246294014924,-0.5827352938151056 L27.417218500392675,-0.5307067400628085 " />
			<path d="M27.417218500392675,-0.5307067400628069 L27.418709207719846,-0.46725629875135033 L27.42332561596782,-0.4013694865520757 L27.43128415453628,-0.33299657026890306 L27.442801252824903,-0.26208781670575154 L27.458093340233386,-0.1885934926665408 L27.477376846161405,-0.11246386495519034 L27.50086820000865,-0.03364920037561925 L27.528783831174803,0.047900234268253294 L27.561340169059545,0.1322341721725071 L27.59875364306257,0.21940234653322355 L27.64124068258355,0.3094544905464831 L27.68901771702218,0.40244033740836604 L27.742301175778138,0.4984096203149535 L27.801307488251112,0.5974120724623253 L27.866253083840785,0.6994974270465624 L27.937354391946844,0.8047154172637458 L28.01482784196897,0.9131157763099553 L28.09888986330685,1.0247482373812722 L28.18975688536017,1.1396625336737771 L28.28764533752861,1.2579083983835488 L28.392771649211856,1.3795355647066705 L28.505352249809597,1.5045937658392212 L28.625603568721512,1.6331327349772833 L28.753742035347287,1.765202205316935 L28.88998407908661,1.9008519100542585 L29.03454612933916,2.040131582385334 L29.187644615504624,2.1830909555062417 L29.349495966982687,2.329779762613062 L29.520316613173033,2.480247736901875 L29.700322983475345,2.634544611568764 L29.889731507289316,2.7927201198098075 L30.088758614014598,2.954823994821071 " />
			<path d="M30.08875861401462,2.954823994821087 L30.061149418993768,2.8928899460135047 L30.035385980178773,2.8301555083649457 L29.98936076192587,2.702433259543832 L29.950611740774963,2.5719528343556126 L29.91906769824512,2.4390098187981533 L29.8946574158554,2.3038997988693217 L29.877309675124856,2.166918360566984 L29.86695325757255,2.028361089889007 L29.86351694471755,1.8885235728332592 " />
			<path d="M29.86351694471755,1.8885235728332572 L29.864903974103264,1.79889674207363 L29.86905278263136,1.7089466520528325 L29.875944950858262,1.6187497510401432 L29.885562059340405,1.5283824873048397 L29.897885688634208,1.4379213091162002 L29.912897419296105,1.3474426647435025 L29.93057883188252,1.2570230024560243 L29.950911506949883,1.1667387705230436 L29.97387702505462,1.076666417213838 L29.999456966753158,0.9868823907976865 L30.027632912601927,0.8974631395438659 L30.058386443157353,0.8084851117216543 L30.091699138975862,0.7200247556003294 L30.127552580613887,0.6321585194491703 L30.16592834862785,0.5449628515374538 L30.206808023574183,0.45851420013445754 L30.250173186009313,0.37288901350946047 L30.296005416489663,0.28816373993174027 L30.344286295571663,0.20441482767057417 L30.394997403811747,0.12171872499524028 L30.448120321766336,0.04015188017501714 L30.503636629991856,-0.040209258520818025 L30.561527909044738,-0.11928824282298711 L30.62177573948141,-0.19700862446221246 L30.6843617018583,-0.2732939551692155 L30.749267376731833,-0.3480677866747186 L30.816474344658438,-0.4212536707094445 L30.885964186194546,-0.4927751590041143 L30.957718481896578,-0.5625558032894498 L31.031718812320968,-0.6305191552961751 L31.107946758024138,-0.6965887667550108 L31.18638389956252,-0.7606881893966793 L31.267011817492538,-0.8227409749519023 L31.349812092370627,-0.8826706751514029 L31.434766304753204,-0.9404008417259022 L31.521856035196706,-0.9958550264061219 L31.611062864257555,-1.0489567809227847 L31.702368372492177,-1.0996296570066137 L31.795754140457007,-1.1477972063883302 L31.89120174870847,-1.1933829807986553 L31.98869277780299,-1.2363105319683134 L32.088208808297,-1.276503411628024 L32.18973142074692,-1.3138851715085114 L32.29324219570918,-1.348379363340496 L32.39872271374021,-1.3799095388546991 L32.50615455539644,-1.408399249781847 L32.6155193012343,-1.433772047852658 L32.72679853181021,-1.455951484797855 L32.8399738276806,-1.4748611123481599 L32.9550267694019,-1.490424482234296 L33.07193893753053,-1.502565146186984 L33.19069191262293,-1.511206655936947 L33.31126727523552,-1.5162725632149066 L33.43364660592473,-1.5176864197515858 L33.55781148524698,-1.5153717772777044 L33.68374349375871,-1.5092521875239866 L33.81142421201634,-1.4992512022211546 L33.9408352205763,-1.48529237309993 L34.071958099995015,-1.467299251891034 L34.20477443082891,-1.445195390325189 L34.339265793634425,-1.4189043401331185 L34.475413768967975,-1.3883496530455428 L34.613199937386,-1.3534548807931852 L34.75260587944489,-1.3141435751067734 " />
			<path d="M34.752605879444914,-1.3141435751067672 L34.89624335395467,-1.268472303084597 L35.03474773663054,-1.2196690182905032 L35.1681566157826,-1.1678224068092693 L35.296507579720874,-1.1130211547256785 L35.41983821675541,-1.0553539481245142 L35.53818611519624,-0.99490947309056 L35.651588863353425,-0.9317764157085988 L35.76008404953699,-0.8660434620634145 L35.863709262056986,-0.7977992982397903 L35.962502089223456,-0.7271326103225092 L36.05650011934644,-0.654132084396355 L36.145740940735976,-0.5788864065461109 L36.23026214170212,-0.5014842628565603 L36.3101013105549,-0.42201433941248667 L36.38529603560437,-0.3405653222986733 L36.45588390516056,-0.25722589759990333 L36.521902507533525,-0.17208475140096047 L36.583389431033304,-0.08523056978662824 L36.64038226396993,0.003247961158310275 L36.69291859465346,0.09326215534907223 L36.74103601139393,0.18472332670087344 L36.784772102501385,0.2775427891289308 L36.82416445628586,0.37163185654846065 L36.8592506610574,0.4669018428746805 L36.89006830512606,0.563264062022806 L36.916654976801865,0.6606298279080545 L36.93904826439486,0.7589104544456418 L36.95728575621511,0.8580172555507857 L36.97140504057263,0.9578615451387011 L36.981443705777465,1.058354637124606 L36.98743934013967,1.1594078454237176 L36.98942953196929,1.2609324839512466 " />
			<path d="M36.989429531969286,1.260932483951251 L36.986453570978625,1.3860311959089562 L36.97757199462345,1.511542386880656 L36.962854262829026,1.6373021727009829 L36.942369835520566,1.7631466692045725 L36.91618817262333,1.8889119922260549 L36.884378734062544,2.0144342576000644 L36.84701097976346,2.1395495811612357 L36.80415436965131,2.2640940787441997 L36.755878363651334,2.3879038661835894 L36.702252421688776,2.5108150593140404 L36.64334600368887,2.632663773970183 L36.57922856957686,2.7532861259866523 L36.509969579277985,2.8725182311980806 L36.43563849271749,2.9901962054391014 L36.3563047698206,3.1061561645443474 L36.27203787051258,3.220234224348453 L36.18290725471864,3.3322665006860497 L36.088982382364044,3.4420891093917714 L35.99033271337402,3.549538166300251 L35.88702770767381,3.654449787246122 L35.77913682518865,3.7566600880640175 L35.66672952584379,3.85600518458857 L35.54987526956447,3.952321192654412 L35.42864351627591,4.04544422809618 L35.30310372590338,4.135210406748504 L35.17332535837209,4.221455844446017 L35.03937787360729,4.304016657023356 L34.90133073153424,4.3827289603151485 L34.75925339207815,4.457428870156031 L34.613215315164275,4.5279525023806375 L34.463285960717855,4.594135972823599 L34.30953478866415,4.65581539731954 " />
			<path d="M34.30953478866413,4.655815397319548 L34.428042827123086,4.620796137240939 L34.54870519217361,4.5887117797783405 L34.671393222076894,4.559539734595058 L34.795978255094155,4.533257411354397 L34.92233162948659,4.509842219719661 L35.0503246835154,4.489271569354157 L35.179828755441775,4.471522869921189 L35.31071518352692,4.456573531084061 L35.44285530603205,4.444400962506079 L35.57612046121836,4.434982573850549 L35.71038198734704,4.428295774780774 L35.8455112226793,4.42431797496006 L35.98137950547633,4.423026584051711 L36.11785817399935,4.424399011719033 L36.254818566509556,4.428412667625332 L36.39213202126813,4.43504496143391 L36.529669876536296,4.4442733028080745 L36.66730347057524,4.456075101411129 L36.804904141646176,4.470427766906379 L36.942343228010294,4.48730870895713 L37.079492067928804,4.506695337226686 L37.21622199966289,4.5285650613783535 L37.35240436147377,4.552895291075435 L37.48791049162265,4.579663435981238 L37.62261172837071,4.608846905759066 L37.75637940997916,4.640423110072224 L37.889084874709205,4.674369458584018 L38.02059946082205,4.710663360957752 L38.15079450657888,4.749282226856731 L38.27954135024091,4.79020346594426 L38.406711330069335,4.833404487883644 L38.53217578432536,4.878862702338189 L38.65580605127018,4.926555518971199 L38.777473469165,4.976460347445978 L38.89704937627103,5.028554597425833 L39.014405110849445,5.082815678574068 L39.12941201116147,5.139221000553987 L39.241941415468304,5.197747973028897 L39.35186466203113,5.258374005662102 L39.45905308911117,5.3210765081169065 L39.56337803496962,5.385832890056616 L39.664710837867666,5.452620561144535 L39.76292283606653,5.521416931043969 L39.85788536782739,5.592199409418222 L39.94946977141147,5.664945405930601 L40.03754738507996,5.739632330244408 L40.12198954709406,5.816237592022951 L40.20266759571498,5.894738600929533 L40.27945286920391,5.9751127666274595 L40.352216705822045,6.057337498780036 L40.42083044383061,6.141390207050568 L40.485165421490784,6.227248301102358 L40.545092977063774,6.314889190598713 L40.60048444881079,6.404290285202936 L40.651211174993016,6.495428994578337 L40.69714449387167,6.588282728388213 L40.73815574370794,6.6828288962958755 L40.77411626276304,6.779044907964628 L40.80489738929816,6.876908173057773 L40.8303704615745,6.976396101238619 L40.850406817853276,7.077486102170466 L40.86487779639567,7.1801555855166255 L40.87365473546289,7.284381960940399 L40.876608973316145,7.390142638105081 " />
			<path d="M40.876608973316145,7.39014263810509 L40.87493665804094,7.4702036067081785 L40.86988386500869,7.55110015428882 L40.86139682340944,7.6328228398063995 L40.84942176243325,7.715362222220305 L40.83390491127017,7.798708860489927 L40.81479249911024,7.882853313574653 L40.792030755143514,7.967786140433875 L40.76556590856004,8.053497900026976 L40.73534418854988,8.139979151313346 L40.701311824303076,8.227220453252377 L40.66341504500967,8.315212364803457 L40.62160007985973,8.40394544492597 L40.57581315804329,8.493410252579311 L40.52600050875041,8.583597346722865 L40.47210836117114,8.67449728631602 L40.41408294449552,8.766100630318167 L40.35187048791361,8.858397937688693 L40.28541722061545,8.951379767386987 L40.2146693717911,9.045036678372437 L40.13957317063062,9.139359229604434 L40.060074846324035,9.234337980042362 L39.976120628061416,9.329963488645618 L39.88926790756101,9.424457539766951 L39.80172752530788,9.515408519110805 L39.713541529720764,9.602838852114294 L39.6247385842155,9.68678581924026 L39.535347352207936,9.767286700951546 L39.44539649711392,9.844378777710993 L39.354914682349296,9.918099329981443 L39.26393057132991,9.988485638225736 L39.17247282747161,10.055574982906712 L39.08057011419023,10.119404644487217 L38.98825109490163,10.180011903430088 L38.89554443302164,10.23743404019817 L38.802478791966124,10.291708335254304 L38.70908283515091,10.34287206906133 L38.61538522599185,10.390962522082091 L38.52141462790479,10.436016974779427 L38.42719970430557,10.47807270761618 L38.33276911861005,10.517167001055192 L38.238151534234056,10.553337135559303 L38.143375614593445,10.586620391591358 L38.04847002310406,10.617054049614195 L37.953463423181745,10.644675390090656 L37.85838447824234,10.669521693483585 L37.76326185170171,10.691630240255819 L37.66812420697567,10.711038310870203 L37.573000207480085,10.727783185789578 L37.4779185166308,10.741902145476786 L37.38290779784366,10.753432470394667 L37.2879967145345,10.762411441006062 L37.19321393011917,10.768876337773817 L37.09858810801352,10.772864441160767 L37.004147911633396,10.774413031629757 L36.90992200439464,10.77355938964363 L36.815939049713094,10.770340795665224 L36.72222771100461,10.764794530157383 L36.62881665168503,10.756957873582946 L36.53573453517019,10.746868106404758 L36.443010024875946,10.73456250908566 L36.35067178421814,10.720078362088488 L36.25874847661263,10.70345294587609 L36.16726876547524,10.684723540911305 L36.076261314221824,10.663927427656976 L35.98575478626824,10.641101886575942 L35.89577784503031,10.616284198131046 L35.80635915392389,10.58951164278513 L35.71752737636483,10.560821501001033 L35.54173921555215,10.497837579969667 L35.36864266991903,10.427630678739684 L35.198467046792246,10.350499041013812 L35.03144165349855,10.266740910494786 L34.8677957973647,10.176654530885337 L34.707758785717466,10.080538145888195 L34.5515599258836,9.978689999206093 L34.399428525189876,9.871408334541767 L34.25159389096304,9.758991395597944 L34.10828533052987,9.641737426077357 L33.969732151217116,9.51994466968274 L33.83616366035155,9.393911370116824 L33.707809165259924,9.26393577108234 L33.58489797326901,9.130316116282021 L33.46765939170555,8.993350649418598 L33.35632272789633,8.853337614194805 L33.25111728916809,8.71057525431337 L33.15227238284761,8.565361813477033 L33.06001731626165,8.417995535388517 L32.974581396736966,8.268774663750557 L32.89619393160031,8.117997442265889 L32.825084228178454,7.96596211463724 L32.761481593798166,7.8129669245673465 L32.7056153357862,7.659310115758934 L32.657714761469315,7.505289931914737 L32.63682326423614,7.428236775511326 L32.618009178174276,7.351204616737494 L32.601301166699564,7.274230736056079 L32.586727893227845,7.197352413929927 L32.574318021174975,7.120606930821877 L32.56410021395679,7.044031567194775 L32.55610313498914,6.967663603511458 L32.55035544768786,6.891540320234768 L32.54688581546881,6.81569899782755 L32.54572290174783,6.740176916752656 " />
			<path d="M32.54572290174784,6.7401769167526355 L32.54940358502475,6.607472966971329 " />
			<path d="M25.566921160451958,8.871069366513266 L25.67950198241437,8.974290485260772 L25.794646267394974,9.07148854475574 L25.91222463195422,9.162742095772307 L26.03210769265255,9.248129689084617 L26.154166066050404,9.327729875466806 L26.278270368708228,9.401621205693013 L26.40429121718646,9.469882230537378 L26.532099228045553,9.532591500774041 L26.66156501784594,9.589827567177139 L26.79255920314807,9.641668980520814 L26.924952400512378,9.688194291579203 L27.058615226499317,9.729482051126444 L27.193418297669325,9.76561080993668 L27.329232230582843,9.796659118784047 L27.465927641800317,9.822705528442686 L27.603375147882186,9.843828589686733 L27.7414453653889,9.860106853290333 L27.880008910880896,9.87161887002762 L28.01893640091862,9.878443190672735 L28.15809845206251,9.880658365999816 L28.297365680873014,9.878342946783004 L28.436608703910572,9.871575483796438 L28.57569813773563,9.860434527814256 L28.71450459890863,9.844998629610599 L28.85289870399001,9.825346339959601 L28.99075106954022,9.80155620963541 L29.1279323121197,9.773706789412156 L29.26431304828889,9.741876630063985 L29.39976389460824,9.706144282365033 L29.534155467638186,9.666588297089438 L29.66735838393917,9.623287225011342 L29.79924326007164,9.576319616904884 L29.929680712596042,9.525764023544202 L30.05854135807281,9.471698995703434 L30.18569581306239,9.414203084156721 L30.311014694125227,9.353354839678202 L30.434368617821765,9.289232813042016 L30.555628200712444,9.221915555022301 L30.674664059357706,9.151481616393196 L30.791346810317997,9.078009547928843 L30.90554707015376,9.001577900403381 L31.01713545542543,8.922265224590946 L31.12598258269346,8.840150071265679 L31.23195906851829,8.755310991201718 L31.33493552946036,8.667826535173205 L31.434782582080118,8.577775253954275 L31.531370842938,8.485235698319071 L31.624570928594455,8.39028641904173 L31.71425345560992,8.293005966896393 L31.800289040544847,8.193472892657198 L31.882548299959673,8.091765747098284 L31.96090185041484,7.987963080993788 L32.03522030847079,7.882143445117854 L32.10537429068797,7.774385390244617 L32.17123441362682,7.664767467148217 L32.23267129384779,7.553368226602798 L32.289555547911306,7.440266219382491 L32.34175779237783,7.325539996261441 L32.38914864380779,7.209268108013785 L32.43159871876164,7.091529105413661 L32.46897863379982,6.972401539235213 L32.50115900548277,6.851963960252574 L32.528010450370935,6.730294919239889 L32.549403585024756,6.60747296697131 " />
			<path d="M29.153688912081208,3.9916420786985753 L29.058166733311968,3.9910090313730207 L28.96217706078629,3.9925550303972988 L28.86578299279023,3.9962515584905516 L28.769047627609854,4.002070098371921 L28.67203406353122,4.009982132760548 L28.574805398840383,4.0199591443755756 L28.37995516076634,4.045994030161397 L28.1850016996762,4.079946617482518 L27.990449801858432,4.121588768092072 L27.79680425360151,4.170692343743194 L27.604569841193907,4.227029206189016 L27.414251350924093,4.290371217182672 L27.22635356908054,4.360490238477298 L27.041381281951722,4.437158131826024 L26.859839275826104,4.520146758981987 L26.68223233699216,4.609227981698318 L26.50906525173837,4.704173661728153 L26.340842806353194,4.804755660824624 L26.17806978712511,4.910745840740865 L26.021250980342593,5.02191606323001 L25.870891172294108,5.138038190045192 L25.798291138510272,5.197884924372901 L25.727495149268126,5.258884082939545 L25.658566302853725,5.321007148464266 L25.591567697553124,5.384225603666204 L25.526562431652387,5.448510931264502 L25.463613603437572,5.5138346139783 L25.402784311194736,5.580168134526742 L25.34413765320994,5.64748297562897 L25.287736727769243,5.7157506200041235 L25.2336446331587,5.784942550371345 L25.181924467664377,5.855030249449776 L25.132639329572328,5.925985199958559 L25.085852317168612,5.997778884616835 L25.041626528739293,6.070382786143747 L25.000025062570423,6.143768387258435 L24.96111101694806,6.217907170680042 L24.92494749015827,6.292770619127708 L24.89159758048711,6.368330215320578 L24.861124386220638,6.444557441977789 L24.833591005644912,6.521423781818486 L24.80906053704599,6.598900717561811 L24.78759607870994,6.676959731926903 L24.769260728922806,6.755572307632907 L24.754117585970654,6.834709927398961 L24.74222974813955,6.9143440739442115 L24.733660313715543,6.994446229987797 L24.728472380984694,7.074987878248857 L24.726729048233068,7.155940501446532 " />
			<path d="M24.726729048233064,7.155940501446539 L24.729672092688872,7.260963894168825 L24.73859161431831,7.366562865333838 L24.753623195514386,7.472676138456551 L24.774902418670134,7.579242437051931 L24.802564866178564,7.686200484634947 L24.8367461204327,7.793489004720566 L24.877581763825557,7.901046720823761 L24.925207378750155,8.0088123564595 L24.979758547599516,8.11672463514275 L25.041370852766658,8.224722280388484 L25.110179876644597,8.332744015711667 L25.186321201626356,8.440728564627271 L25.26993041010495,8.548614650650263 L25.361143084473404,8.656340997295615 L25.460094807124733,8.76384632807829 L25.56692116045194,8.87106936651325 " />
			<path d="M23.41508553098648,3.457998193082309 L23.52281857930135,3.382713507807622 L23.583805729818923,3.344369075489191 L23.650038893936596,3.3061206257822073 L23.72189226867437,3.2683911904858 L23.799740051052243,3.231603801399098 L23.883956438090223,3.196181490321231 L23.97491562680831,3.1625472890513278 L24.072991814226505,3.1311242293885173 L24.178559197364816,3.102335343131929 L24.29199197324324,3.0766036620806925 L24.41366433888178,3.054352218033936 L24.543950491300443,3.036004042790789 L24.683224627519227,3.0219821681503807 L24.831860944558137,3.0127096259118407 L24.99023363943717,3.008609447874297 L25.15871690917634,3.01010466583688 L25.33768495079564,3.017618311598718 L25.527511961315078,3.03157341695894 L25.72857213775465,3.052393013716676 L25.941239677134362,3.0805001336710554 L26.16588877647422,3.116317808621206 L26.40289363279422,3.1602690703662573 L26.652628443114374,3.212776950705339 L26.915467404454674,3.27426448143758 L27.191784713835126,3.3451546943621095 L27.481954568275736,3.4258706212780567 L27.786351164796503,3.5168352939845504 L28.10534870041743,3.6184717442807197 L28.439321372158524,3.7312030039656947 L28.788643377039783,3.8554521048386032 L29.153688912081183,3.991642078698565 " />
			<path d="M23.41508553098648,3.457998193082309 L27.59539713962998,-1.17718853484058 " />
			<path d="M-57.78076177501446,-1.875700825514965 L-21.120848701086267,-42.52471420904574 " />
			<path d="M-21.120848701086274,-42.52471420904575 L-21.0593888444969,-42.59112384545102 L-20.995891638689017,-42.656317781823425 L-20.93039533200508,-42.72025674777344 L-20.862939376971173,-42.78290222885881 L-20.793564406532273,-42.84421648978419 L-20.72231220957647,-42.904162597131496 L-20.649225705762916,-42.96270444160718 L-20.574348919668633,-43.01980675979316 L-20.49772695426974,-43.07543515538815 L-20.419405963773112,-43.12955611992672 L-20.339433125814818,-43.182137052963554 L-20.257856613042062,-43.23314628171071 L-20.174725564095798,-43.282553080116145 L-20.09009005401144,-43.330327687371955 L-20.00400106405554,-43.37644132584112 L-19.91651045101657,-43.420866218392135 L-19.82767091596834,-43.463575605130885 L-19.737535972524842,-43.50454375951979 L-19.64615991460564,-43.54374600387456 L-19.553597783731256,-43.581158724229056 L-19.459905335868207,-43.61675938455949 L-19.3651390078437,-43.650526540359266 L-19.26935588335019,-43.682439851556374 L-19.17261365856032,-43.71248009476545 L-19.074970607372872,-43.74062917486729 L-18.976485546310773,-43.766870135908576 L-18.877217799092215,-43.791187171315606 L-18.777227160896263,-43.81356563341551 L-18.676573862344476,-43.83399204225951 L-18.57531853322023,-43.852454093742715 L-18.473522165947607,-43.86894066701564 L-18.371246078851847,-43.883441831183035 L-18.268551879223462,-43.89594885128582 L-18.165501426208323,-43.90645419356278 L-18.06215679354603,-43.914951529988514 L-17.958580232178985,-43.92143574208532 L-17.85483413275478,-43.92590292400628 L-17.7509809880444,-43.92835038488805 L-17.647083355298886,-43.9287766504717 L-17.543203818567235,-43.92718146399079 L-17.439404950998057,-43.92356578632601 L-17.33574927714789,-43.917931795426384 L-17.232299235318727,-43.91028288499736 L-17.129117139947525,-43.90062366245657 L-17.026265144070297,-43.88895994615849 L-16.923805201883482,-43.87529876188968 L-16.82179903142503,-43.85964833863673 L-16.720308077397767,-43.84201810362939 L-16.61939347415741,-43.822418676662 L-16.519116008887508,-43.80086186369648 L-16.419536084983523,-43.777360649750925 L-16.320713685668085,-43.75192919107783 L-16.222708337859334,-43.72458280663696 L-16.125579076314132,-43.69533796886775 L-16.029384408067735,-43.664212293766944 L-15.934182277191349,-43.63122453027736 L-15.840030029888773,-43.596394548994226 L-15.746984379953204,-43.5597433301959 L-15.655101374604966,-43.5212929512061 L-15.564436360730747,-43.481066573095376 L-15.475043951544727,-43.43908842672975 L-15.386977993691598,-43.39538379817491 L-15.300291534811375,-43.3499790134649 L-15.215036791585504,-43.30290142274424 " />
			<path d="M56.72353609759051,-2.530051927047715 L56.82468304355938,-2.4709063043561343 L56.9235705429422,-2.4094063731789443 L57.020111428154976,-2.3456063446191564 L57.11422060011268,-2.279562457274999 L57.20581510324255,-2.211332927666584 L57.29481419860797,-2.140977898919071 L57.38113943507844,-2.068559387747569 L57.46471471848283,-1.9941412297904977 L57.545466378685084,-1.9177890233395898 L57.62332323452309,-1.8395700715161674 L57.69821665655369,-1.7595533229446227 L57.77008062754825,-1.6778093109754246 L57.83885180068574,-1.5944100915112214 L57.90446955539177,-1.5094291794908312 L57.96687605077464,-1.4229414840871173 L58.026016276610996,-1.335023242675881 L58.081838101836404,-1.245751953633962 L58.13429232049794,-1.1552063080257864 L58.183332695128406,-1.0634661202385822 L58.2289159975038,-0.9706122576274068 L58.271002046748244,-0.8767265692320085 L58.30955374475272,-0.7818918136283378 L58.344537108876416,-0.6861915859783204 L58.37592130190178,-0.5897102443422061 L58.40367865921704,-0.49253283531842573 L58.427784713202016,-0.39474501907651727 L58.448218214795915,-0.2964329938491997 L58.46496115222802,-0.19768341995014976 L58.47799876689473,-0.09858334338447572 L58.487319566368996,0.0007798808808047175 L58.49291533453074,0.10031866591863073 L58.49478113880916,0.19994527004818882 " />
			<path d="M-15.215036791585465,-43.30290142274422 L56.72353609759051,-2.5300519270477153 " />
			<path d="M-21.120848701086267,-42.52471420904574 L-21.12084870108626,-37.43495113940807 " />
			<path d="M-15.215036791585472,-43.30290142274422 L-15.215036791585467,-38.21313835310655 " />
			<path d="M56.72353609759052,2.559711142589954 L56.72353609759051,-2.530051927047717 " />
			<path d="M-31.100079951902693,13.537802913922615 L-31.100079951902693,12.318697987063294 " />
			<path d="M-31.100079951902693,12.318697987063288 L-30.906257968783333,12.297912965184103 L-30.713964736413885,12.269494160349275 L-30.52361043808808,12.233641238338407 L-30.33559287736668,12.190554016149848 L-30.150297672811828,12.14043196792939 L-29.968098422682868,12.083473814205666 L-29.789356843830408,12.019877182596531 L-29.61442288902573,11.949838328150664 L-29.443634846962375,11.873551901488668 L-29.277319429166898,11.791210752907926 L-29.115791848055714,11.703005760615474 L-28.959355890374997,11.609125671253128 L-28.808303990260526,11.509756940879171 L-28.662928794717704,11.405092245263353 L-28.52354128110443,11.295349152349079 L-28.390424651339988,11.180740826469679 L-28.26385046916877,11.061487785974549 L-28.14402717247227,10.937764768077606 L-28.086867257127558,10.874088682817494 L-28.03304051306563,10.808558080440358 L-27.982523502351192,10.741284342628665 L-27.93505586608814,10.6725038110006 L-27.890412313651254,10.60242331644863 L-27.848395081397953,10.531223434019964 L-27.808828376308355,10.459060883468386 L-27.771554314966572,10.386070294785812 L-27.736429950929573,10.312365518915065 L-27.703325066163202,10.238040624738417 L-27.64270675057482,10.087812409349931 L-27.58885667156741,9.935768827732756 L-27.54109034095998,9.782110483290863 L-27.49896027043083,9.62729731419114 L-27.46205736262973,9.471567918564178 L-27.430050868740338,9.315097244496043 L-27.402682631744927,9.158034956063622 L-27.37975541904994,9.000507718175559 L-27.361125820514772,8.84262079380269 " />
			<path d="M-27.48009743892624,8.23872296001673 L-27.48009743892624,7.019618033157409 " />
			<path d="M-35.80625980301606,10.432919721564835 L-35.80625980301606,9.213814794705513 " />
			<path d="M-35.80625980301606,9.213814794705513 L-35.72659157988143,9.365638068583456 L-35.644028476586335,9.516381385697908 L-35.5584038139744,9.665977211817331 L-35.469545077607066,9.81433440849862 L-35.37727361248882,9.961338070192884 L-35.281404299785564,10.106849355843366 L-35.18174520074238,10.250705306643367 L-35.078097153007235,10.392718641621967 L-34.97025330456685,10.532677522725407 L-34.85799857050119,10.670345281061925 L-34.74110899776287,10.805460095977903 L-34.619351023188,10.93773461863312 L-34.49248060994463,11.066855531742988 L-34.360242247625365,11.192483037155522 L-34.22238600976653,11.314234718279447 L-34.07876287266241,11.431614877150842 L-33.92922101644193,11.544123594251825 L-33.852192994967055,11.598386599768807 L-33.773647200868396,11.651230153055742 L-33.69357882587441,11.702583304656073 L-33.61198798245273,11.752373605251005 L-33.52888127548322,11.800527152185795 L-33.444270664974596,11.84697001809174 L-33.35817431833178,11.891628607238689 L-33.270616652780234,11.934430482751882 L-33.18162662495933,11.975305940547749 L-33.09124551403629,12.014185319792647 L-32.99952142052642,12.051002734172968 L-32.90650814884957,12.085697245647482 L-32.81226547661021,12.118213341890444 L-32.716859423877445,12.1485014137347 L-32.62036252246511,12.176518232614784 L-32.52285408521179,12.202227428010044 L-32.42441845147971,12.225600418566785 L-32.32513818306163,12.246618028804203 L-32.22510435576251,12.265268075314081 L-32.12440835774062,12.281547243316663 L-32.02314065127071,12.295460849542376 L-31.921390664528847,12.30702232203475 L-31.819246683377276,12.316252679953333 L-31.716795743149238,12.323180013376604 L-31.614123520433797,12.327838963104892 L-31.51131256760059,12.330270224166423 L-31.40843483677531,12.330519826896367 L-31.305560479397652,12.328637967899763 L-31.202755264111858,12.324678450927173 L-31.100079951902707,12.318697987063288 " />
			<path d="M-37.9014732841298,5.044958327611747 L-37.9014732841298,3.8258534007524254 " />
			<path d="M-37.9014732841298,3.8258534007524254 L-37.750704220016296,4.157864810605658 L-37.60548766821781,4.49130716868024 L-37.465464334116135,4.826028206733111 L-37.330172131853516,5.161866665317727 L-37.19904771630027,5.498652565918771 L-37.07143222478281,5.836208442554396 L-36.82367831483796,6.512898965816728 L-36.580213725772204,7.190474322224851 L-36.33388770729923,7.867460200957324 L-36.20748059592095,8.205271942610688 L-36.077855012017054,8.542386632737543 L-35.944315504545116,8.87862542688071 L-35.80625980301607,9.2138147947055 " />
			<path d="M-39.312993968333664,1.1755968548940334 L-38.94278159244442,1.8378694771078328 L-38.760681613442806,2.169190860793048 L-38.58106704783976,2.500612609657815 L-38.404448038056685,2.8320991850041013 L-38.23153714754373,3.163570843023856 L-38.06334974460476,3.494914480884441 L-37.901473284129814,3.8258534007524183 " />
			<path d="M-22.302380942537344,3.8994264178103717 L-22.32330543793583,3.983035552195717 L-22.34683717289423,4.0662206441701665 L-22.372955421418926,4.148932227202383 L-22.401639345560476,4.231121672590864 L-22.432868005822677,4.312741189284361 L-22.466620371612315,4.393743823708526 L-22.502875331960944,4.474083459608469 L-22.54161170674993,4.55371481791696 L-22.582807986012536,4.632592958729764 L-22.62643748284483,4.7106650448781595 L-22.672473732154888,4.787881689255289 L-22.720890490032172,4.864196492429839 L-22.771660399939968,4.939563481637546 L-22.824754946406202,5.0139371253874385 L-22.88014424090012,5.087272425941581 L-22.937796993227625,5.159524993282502 L-22.997692529765427,5.230665117626051 L-23.0599440218597,5.300738411050415 L-23.12581660032637,5.3687600605831785 L-23.195563250564113,5.434445777688916 L-23.26869204360762,5.4979558261164225 L-23.344779354523162,5.559425558129461 L-23.423459710651844,5.618972803310932 L-23.50441852213461,5.676703154199448 L-23.587386902220683,5.732713707990347 L-23.672137938651908,5.787095720180113 L-23.846274264274566,5.891320955572594 L-24.02576132838291,5.99005386295414 L-24.209957449928858,6.083895101008144 L-24.39798724555473,6.173113978638197 L-24.589310526235028,6.258007341730925 L-24.783524480932556,6.338815675237196 L-24.9803015182082,6.415715537667303 L-25.179380048493044,6.488830757042469 L-25.380558898220375,6.558238481933922 L-25.583690087615505,6.623970192979307 L-25.788616962665234,6.685993314961789 L-25.995220925805892,6.744224987579666 L-26.203403997924063,6.7985195181910445 L-26.413076288451006,6.848653143781025 L-26.624152665353016,6.894303666085102 L-26.836511863235977,6.935011855541531 L-27.050091211123032,6.970149054459854 L-27.26472060574071,6.998799907823949 L-27.372339156765115,7.0102952067955995 L-27.48009743892622,7.019618033157407 " />
			<path d="M-11.350534281640854,-14.84793232610836 L-11.350534281640854,-16.067037252967683 " />
			<path d="M-11.350534281640856,-16.06703725296768 L-10.897244058099723,-16.13728812897418 L-10.442639864383207,-16.201702316919082 L-9.986855264273272,-16.26029447685856 L-9.53002366186611,-16.31307805333827 L-9.07227856563048,-16.36006463019278 L-8.613757847006598,-16.40126291712137 L-8.154596495000943,-16.43667876784252 L-7.694933209561521,-16.466313781784226 L-7.234916907777112,-16.490164449349525 L-6.774709186217914,-16.50822195985851 L-6.3144885487966205,-16.520472786536352 L-5.854465287942675,-16.526900952447686 L-5.394909615913874,-16.5274959134353 L-4.936214439575028,-16.52227614738249 L-4.479028048397795,-16.511363786214737 L-4.02481752368122,-16.49528089688765 " />
			<path d="M-14.776156129725248,-21.20870689722111 L-14.776156129725248,-22.427811824080433 " />
			<path d="M-18.040676287001073,-18.27783344672535 L-18.011544380287894,-18.181586695478963 L-17.97787803911652,-18.086275767630323 L-17.939680623479347,-17.992045436858206 L-17.896969664648495,-17.899040042277942 L-17.849777899758557,-17.80740320310517 L-17.79815443087638,-17.71727749950431 L-17.742165866834718,-17.628803908335442 L-17.681892186869742,-17.542113859132336 L-17.617430034166212,-17.457334103453267 L-17.548891263830665,-17.374583972923936 L-17.47640032569977,-17.29397215595044 L-17.40009380031973,-17.21559693090468 L-17.320119934925735,-17.139546399309783 L-17.236637375666614,-17.06589803623776 L-17.149808683084192,-16.99471403953576 L-17.059802242650726,-16.926045221381912 L-16.966790172202362,-16.859930599050326 L-16.8709459770881,-16.796397235078 L-16.772442805660067,-16.73546087622729 L-16.671451860477397,-16.67712653851285 L-16.56814135084168,-16.621389484747024 L-16.462676421228057,-16.56823663931012 L-16.355215707275214,-16.517646140839773 L-16.245910030652844,-16.469588294284957 L-16.134904241621907,-16.424027708022358 L-16.022336752365963,-16.38092405326091 L-15.908339092781846,-16.34023277400124 L-15.79303549613328,-16.301905751392187 L-15.676542514567448,-16.265891922484254 L-15.558968694882033,-16.232137861743023 L-15.44042254634355,-16.200590436601903 L-15.321000113700599,-16.17119369206593 L-15.200784563632126,-16.143889705185664 L-15.079854639101022,-16.118621166369813 L-14.836144412697806,-16.073964749538366 L-14.590410224784906,-16.03678132381952 L-14.343120942471975,-16.006642792459004 L-14.094672937820608,-15.983138683333939 L-13.845389515980575,-15.965878752586411 L-13.595532583779399,-15.95449598508466 L-13.345364657377097,-15.948648661067246 L-13.0950739056386,-15.948015888498889 L-12.844819564058598,-15.952299449070916 L-12.594741537227046,-15.96122235860441 L-12.344960353828636,-15.974527223716647 L-12.095577125571971,-15.991974898838508 L-11.84667351004842,-16.013343443582865 L-11.598311677520648,-16.038427380463943 L-11.350534281640888,-16.067037252967676 " />
			<path d="M-18.201011189962287,-23.102753257645343 L-17.986511192558936,-23.08948447361285 L-17.771069229172443,-23.070279480836852 L-17.555128945846075,-23.045363896027165 L-17.339063832411114,-23.01529224444951 L-17.12315428112169,-22.980707166567242 L-16.907566158757508,-22.94221968116609 L-16.692384447265333,-22.90036543429693 L-16.47766134287201,-22.855602293489696 L-16.263418542188916,-22.808314034044415 L-16.04964799424015,-22.758817959049512 L-15.623486189349421,-22.654227928157873 L-15.199044300211542,-22.543495073931 L-14.776156129725258,-22.427811824080433 " />
			<path d="M17.305194782376944,32.69380939719386 L16.022898004441142,32.704070497380194 L14.740538326315317,32.709169650488164 L14.099346246330057,32.709039953441085 L13.458156311465835,32.70672924276708 L12.816983869662259,32.7019421463775 L12.175850568902561,32.69438377187417 L11.53478435668147,32.683759659619305 L10.89381947862241,32.6697757806925 L10.252996476243986,32.652138579734945 L9.612362183875831,32.630555062680735 L8.9719725397696,32.604733078633664 L8.331896941292646,32.574381693648384 L7.692211756658456,32.53921152899127 L7.053003518829101,32.49893526021985 " />
			<path d="M7.053003518829074,33.71804018707917 L7.053003518829074,32.498935260219845 " />
			<path d="M3.851337803241443,25.705446799607294 L4.214684730615,26.565310347396043 L4.584651603328122,27.42340307551384 L4.772740469441522,27.8516052297901 L4.963228535603343,28.279143172713702 L5.156360420253409,28.705937233553428 L5.352379127075423,29.131904837720143 L5.55152604585004,29.556960507200326 L5.754040926454618,29.98101586862643 L5.960161826009657,30.403979668984153 L6.170124944624211,30.82575764411503 L6.38416262529497,31.24624889954296 L6.602504522518548,31.66534859204111 L6.825377191127828,32.082948330584884 L7.053003518829068,32.49893526021983 " />
			<path d="M30.08875861401462,2.954823994821087 L30.08875861401462,1.7357190679617653 " />
			<path d="M29.928908628874808,1.2650120996648924 L29.959319565856003,1.3846402546796632 L29.995961356383372,1.5031505749456393 L30.039039617220734,1.6202755626344882 L30.088758614014615,1.7357190679617491 " />
			<path d="M34.30953478866413,4.655815397319548 L34.30953478866413,3.436710470460227 " />
			<path d="M34.30953478866413,3.4367104704602287 L34.43592888864937,3.3864546865900733 L34.56018353709585,3.3329593277864396 L34.68218601839168,3.276307223673798 L34.80183142864553,3.2165850764638897 L34.91902216173401,3.1538828113342365 L35.0336673953491,3.0882929268066532 L35.14568257704549,3.0199098451257576 L35.25498891028802,2.94882926263748 L35.361513580925035,2.8751470025402686 L35.465191040851316,2.7989575110332288 L35.56595922206612,2.720355100271793 L35.66375973886368,2.6394329868226407 L35.75853753777098,2.556283481912505 L35.850239833269924,2.470997697457871 L35.93881777840187,2.3836632825324924 L36.024223545263375,2.294366442975024 L36.10640973924075,2.2031920024139837 L36.185329101258546,2.110223241592868 L36.26093421002806,2.015541737695266 L36.33317718429587,1.9192272036699745 L36.40200938509234,1.8213573275561117 L36.46737897317012,1.7220108779492125 L36.52923268862532,1.621264946205319 L36.58751650083823,1.5191930799210134 L36.64217245321808,1.4158698299666217 L36.69313875024342,1.3113707888658643 L36.740349800770346,1.205772611790191 L36.7837362146322,1.0991530244775576 L36.82322475253057,0.9915908180756422 L36.85873822921769,0.8831658309094989 L36.89019536997015,0.7739589171736527 L36.91750967979744,0.6640560887599984 " />
			<path d="M32.549403585024756,6.607472966971292 L32.549403585024756,5.3883680401119705 " />
			<path d="M32.54940358502475,5.655871027404321 L32.55486110540472,5.734358829957657 L32.56267439960359,5.812725145794937 L32.57277789346685,5.890930190323202 L32.58510796147533,5.968937607593121 L32.59960323396715,6.046714458473136 L32.61620466332393,6.124230241995095 L32.63485525945038,6.201455815750663 L32.655500615705535,6.278365046457799 L32.70257013490381,6.431138126911518 L32.75702618639323,6.582371938649367 L32.81851575753077,6.731901506805357 L32.886728671557144,6.879593964492241 L32.96138925868813,7.025325046418669 L33.04225133672599,7.168971273897269 L33.12909674788072,7.310410365848776 L33.22173457824979,7.44952141230246 L33.32000105995629,7.586184810392836 L33.423760155945665,7.720281962852673 L33.53288915974472,7.851676601079164 L33.64728140719544,7.980221026566901 L33.76685613965511,8.105766559897205 L33.89154353109801,8.228145696491868 L34.02128403472724,8.347172439081227 L34.156028237409274,8.462642293451996 L34.29573722036135,8.57433192552093 L34.44038289028775,8.681998100943453 L34.58992973921382,8.785363585294562 L34.74433727314801,8.884120701277794 L34.90355979114658,8.97793225305695 L35.067536232259826,9.066426002262144 L35.236185284956235,9.149194916616818 L35.409391946734345,9.225794032962023 L35.587000070347905,9.295743503991186 L35.67739231494914,9.328066008838675 L35.768801027419464,9.358531859637967 L35.86118917054922,9.387073104091943 L35.954514559181014,9.413620801830476 L36.04872962302826,9.438105573212015 L36.14378116978216,9.46045814823597 L36.239610141558394,9.480609914912412 L36.33615071500327,9.498493473848205 L36.43333018413227,9.514043523697612 L36.53106960886882,9.527197782740718 L36.629283733507876,9.53789784293925 L36.727883405861,9.546090214305295 L36.82676911329802,9.551726704889756 L36.925836217554966,9.554765932353437 L37.02497718091843,9.555174191341207 L37.12408157466557,9.552926080034798 L37.22303608750421,9.5480051267056 L37.32172453401286,9.540404416267464 L37.4200303210493,9.53012694449196 L37.51784163882971,9.517185308532184 L37.615044195848924,9.501602585933416 L37.711529322123546,9.4834113499581 L37.80719443925427,9.462653121492819 L37.901942905334344,9.439377877264961 L37.99568385985801,9.413643558059404 L38.08833206862892,9.385515576935173 L38.17981190130893,9.355064868335825 L38.27005949262332,9.322366227890173 L38.359017031977494,9.287498632362855 L38.44663513995538,9.250543967111325 L38.53287275125461,9.211586060406011 L38.61769724858764,9.170709325346426 L38.70108355821208,9.12799825244072 L38.783013550207286,9.083536785044615 L38.86347555212368,9.03740771509777 L38.94246386250273,8.989692078940648 L39.019973599353705,8.940471661969472 L39.096008257359685,8.889823935824825 L39.24370475149664,8.78452973267608 L39.385678251848915,8.674352301771833 L39.522082204781626,8.559794085731857 L39.65309392494262,8.441313559326593 L39.77891052402375,8.3193221298612 L39.89974543943048,8.194181516135334 L40.015812394949464,8.066204399322576 L40.12701801156264,7.935568224393636 L40.232938011203544,7.8022246665342605 L40.33308179974203,7.666125660205616 L40.42690406587282,7.52725117290404 L40.513808893655494,7.385610907606488 L40.55446839194125,7.313765256736332 L40.59315464035427,7.24124630040347 L40.629781214568375,7.168064552584067 L40.6642595795774,7.094232813319503 L40.696498312301415,7.0197686659568435 L40.72640111547896,6.944701783797131 L40.75387307468048,6.869061546211516 L40.77881910238403,6.79288163973191 " />
			<path d="M32.54940358502476,5.388368040111972 L32.52915461286342,5.505363313707282 L32.5038494982472,5.621733851221186 L32.47356190170404,5.7373499017597105 L32.43837416614321,5.852087366091019 L32.398376094891745,5.965827569061341 L32.35366372973079,6.078457032010917 L32.30433812893204,6.189867245189931 L32.25050412926136,6.299954467267556 L32.192268186314124,6.408621618880274 L32.129738004643194,6.515777017667737 L32.06302169027915,6.621332365431128 L31.99222717217511,6.7252032316932935 L31.91746237513297,6.827307568087702 L31.83883210097823,6.927568086584222 L31.75643899468814,7.025909943737328 L31.670383930768168,7.122259300219326 L31.58076563938664,7.216543098434844 L31.487680332509377,7.308688840135314 L31.39122133003433,7.398624364033454 L31.29147869057204,7.486277619400585 L31.188542884865353,7.571573093789912 L31.082500470660104,7.6544353232653695 L30.973433633023678,7.734788526333748 L30.861424490134997,7.8125529041116994 L30.74655517572561,7.887644705504519 L30.6289078795275,7.959976250268484 L30.50856484572765,8.02945590995676 L30.385608329429324,8.095988046748836 L30.26012051112007,8.159472910163544 L30.1321848635695,8.219805826811386 L30.001894281573936,8.276873647046868 L29.86934388676435,8.330558844382221 L29.734634136696293,8.380738453899523 L29.597872504461755,8.427283603501952 L29.459174961561395,8.470060013516957 L29.31866730857507,8.508928266214502 L29.176487604479874,8.543744264415137 L29.03278671520772,8.574360506304117 L28.887729307432195,8.6006273028924 L28.741497939447676,8.622393952795026 L28.59429289397103,8.639511127518889 L28.446332809358577,8.651833371289914 L28.297855268967254,8.659221982225851 L28.149117480092105,8.661548107653772 L28.000396189788333,8.658696342924932 L27.851984422908725,8.650568780591428 L27.70418913286909,8.637088201817772 L27.55733530205667,8.618202929587264 L27.411751704314437,8.593889200563707 L27.267768451813826,8.564153832052808 L27.125715757515625,8.529036828830371 L26.985910093172823,8.488610280841787 L26.848659089226146,8.442980973201845 L26.714247179248286,8.39228651368374 L26.58292990462251,8.336691934180239 L26.454934964893837,8.276387878311104 L26.3304622525995,8.211588211281214 L26.2096698194071,8.14251936198015 L26.092681317237815,8.069418367792938 L25.97958842592498,7.992529537565879 L25.870450142965307,7.9120989786029075 L25.76529524426751,7.82837024173944 L25.66412595850143,7.741581788592541 L25.56692116045197,7.651964439653957 " />
			<path d="M25.566921160451958,8.871069366513266 L25.566921160451958,7.651964439653945 " />
			<path d="M25.566921160451958,7.651964439653945 L25.443745052896514,7.5275665217700265 L25.384825743029158,7.463775673578109 L25.32780394146498,7.39892249581325 L25.27277194017646,7.333010493060966 L25.219824249976504,7.266046924312261 L25.169057094418584,7.198043060208036 L25.120567903696877,7.129014440283506 L25.07445493803466,7.0589814052749595 L25.030817126948566,6.987970690322698 L24.98975227177721,6.916014193486224 L24.951356296136062,6.843149366004062 L24.915722346139187,6.769419490580891 L24.882938456426185,6.694870555769713 L24.853090080520076,6.619559194583282 L24.82625686258328,6.543548933678891 " />
			<path d="M29.153688912081208,3.9916420786985753 L29.153688912081208,2.772537151839254 " />
			<path d="M29.153688912081208,2.772537151839254 L28.901237486248174,2.677686839998402 L28.647459979776627,2.5853853181242417 L28.392227115845607,2.4958306857489267 L28.13543055650158,2.409264155992795 L27.87698119547614,2.325974509817503 L27.61680694741185,2.246304021134667 L27.354849920539234,2.1706560154592873 L27.09106268267307,2.0995047483276155 L26.825403153221036,2.0334088132295447 L26.557827476722935,1.9730298123359993 L26.288280056263684,1.9191585468321923 L26.15280139498202,1.8949645814208131 L26.0169123862741,1.8727885210727349 L25.880598126117416,1.8527795887771823 L25.74386997106835,1.835108660816626 L25.606765794744735,1.8199688787693398 L25.46935009194107,1.8075763560793923 L25.331714104925638,1.798171022613356 L25.19397598960687,1.7920176212924501 L25.056281039256366,1.7894068708888318 L24.91880198347597,1.7906568090747528 " />
			<path d="M-58.57037149096169,0.0761091578824935 L-58.57037149096169,-5.013653911755174 " />
			<path d="M58.49478113880916,0.19994527004821983 L58.49478113880916,-4.889817799589448 " />
			<path d="M-58.57037149096169,5.165872227520161 L-58.57037149096169,0.0761091578824935 " />
			<path d="M58.49478113880916,5.2897083396858875 L58.49478113880916,0.19994527004821983 " />
			<path d="M27.41721850039267,-0.5307067400628043 L27.41721850039267,-0.9796216209089796 " />

        </g>
        </g>
    </svg>
    