<?xml version='1.0' encoding='utf-8'?>
<svg width="100.09mm" height="84.071698mm" viewBox="-58.623051 -49.347358 117.170511 98.418662" version="1.1" xmlns="http://www.w3.org/2000/svg">
  <g transform="scale(1,-1)" stroke-linecap="round">
    <g fill="none" stroke="rgb(0,0,0)" stroke-width="0.10535863736679375" id="Visible">
      <path d="M -58.570371,0.076109 A 4.233333333333333,3.355956928722662 -5.217852231402779e-15 0,1 -57.780762,-1.875701" />
      <line x1="-57.780762" y1="-6.965464" x2="-57.780762" y2="-1.875701" />
      <path d="M -58.570371,-5.013654 A 4.233333333333333,3.355956928722662 -5.217852231402779e-15 0,1 -57.780762,-6.965464" />
      <line x1="-57.780762" y1="-1.875701" x2="-21.120849" y2="-42.524714" />
      <path d="M -21.120849,-42.524714 A 4.233333333333333,3.355956928722662 -5.217852231402779e-15 0,1 -15.215037,-43.302901" />
      <path d="M 56.723536,-2.530052 A 4.233333333333333,3.355956928722662 -5.217852231402779e-15 0,1 58.494781,0.199945" />
      <path d="M 58.494781,0.199945 A 4.233333333333333,3.355956928722662 -5.217852231402779e-15 0,1 57.705171,2.151755" />
      <line x1="-15.215037" y1="-43.302901" x2="56.723536" y2="-2.530052" />
      <line x1="-57.780762" y1="-6.965464" x2="-21.120849" y2="-47.614477" />
      <path d="M -21.120849,-47.614477 A 4.233333333333333,3.355956928722662 -5.217852231402779e-15 0,1 -15.215037,-48.392664" />
      <line x1="-15.215037" y1="-48.392664" x2="56.723536" y2="-7.619815" />
      <path d="M 56.723536,-7.619815 A 4.233333333333333,3.355956928722662 -5.217852231402779e-15 0,1 58.494781,-4.889818" />
      <line x1="-21.120849" y1="-47.614477" x2="-21.120849" y2="-42.524714" />
      <line x1="-15.215037" y1="-48.392664" x2="-15.215037" y2="-43.302901" />
      <line x1="56.723536" y1="-7.619815" x2="56.723536" y2="-2.530052" />
      <line x1="-36.893794" y1="6.319199" x2="-28.361934" y2="11.154828" />
      <line x1="6.100707" y1="30.687327" x2="9.523421" y2="32.627229" />
      <line x1="-56.799126" y1="7.895869" x2="15.139446" y2="48.668719" />
      <path d="M -56.799126,7.895869 A 4.233333333333333,3.355956928722662 -5.217852231402779e-15 0,1 -58.570371,5.165872" />
      <path d="M -58.570371,5.165872 A 4.233333333333333,3.355956928722662 -5.217852231402779e-15 0,1 -57.780762,3.214062" />
      <line x1="-57.780762" y1="-1.875701" x2="-57.780762" y2="3.214062" />
      <path d="M -58.570371,0.076109 A 4.233333333333333,3.355956928722662 -5.217852231402779e-15 0,1 -57.780762,-1.875701" />
      <path d="M 21.045258,47.890532 A 4.233333333333333,3.355956928722662 -5.217852231402779e-15 0,1 15.139446,48.668719" />
      <line x1="-57.780762" y1="3.214062" x2="-21.120849" y2="-37.434951" />
      <line x1="21.045258" y1="47.890532" x2="57.705171" y2="7.241518" />
      <path d="M -21.120849,-37.434951 A 4.233333333333333,3.355956928722662 -5.217852231402779e-15 0,1 -15.215037,-38.213138" />
      <path d="M 56.723536,2.559711 A 4.233333333333333,3.355956928722662 -5.217852231402779e-15 0,1 58.494781,5.289708" />
      <path d="M 58.494781,5.289708 A 4.233333333333333,3.355956928722662 -5.217852231402779e-15 0,1 57.705171,7.241518" />
      <line x1="-15.215037" y1="-38.213138" x2="56.723536" y2="2.559711" />
      <path d="M -27.480097,8.238723 C -27.380341,8.569953 -27.328462,8.990452 -27.328462,9.438405" />
      <path d="M -27.328462,9.438405 C -27.328462,10.417515 -27.576312,11.527792 -28.113798,12.123764 C -28.844964,12.93449 -29.962195,13.438895 -31.10008,13.537803" />
      <path d="M -31.10008,13.537803 C -33.099186,13.673649 -34.664442,12.65524 -35.80626,10.43292" />
      <path d="M -35.80626,10.43292 C -36.577713,8.595531 -37.020447,6.944451 -37.901473,5.044958" />
      <path d="M -37.901473,5.044958 Q -38.532289,3.724825 -40.044471,1.117574" />
      <path d="M -34.663454,1.454598 Q -36.443245,1.408464 -40.044471,1.117574" />
      <path d="M -27.554534,1.283293 C -29.997222,1.298993 -32.111192,1.501002 -34.663454,1.454598" />
      <path d="M -22.326093,3.809086 C -22.810642,2.26557 -24.532576,1.420888 -27.554534,1.283293" />
      <path d="M -27.480097,8.238723 C -26.117776,8.135756 -23.831257,7.375223 -23.047865,6.506588 C -22.502998,5.902432 -22.23053,5.192484 -22.23053,4.503455" />
      <path d="M -22.23053,4.503455 Q -22.230529,4.148803 -22.326093,3.809086" />
      <path d="M -3.422037,-15.254799 C -3.87091,-15.24668 -7.085901,-15.537436 -11.350534,-14.847932" />
      <path d="M -11.350534,-14.847932 C -16.044605,-14.272949 -18.121658,-15.86712 -18.121658,-17.657642" />
      <path d="M -18.121658,-17.657642 C -18.121658,-19.014957 -16.928085,-20.485106 -14.776156,-21.208707" />
      <path d="M -14.776156,-21.208707 C -17.818597,-22.057987 -18.288462,-21.842992 -19.269668,-21.917812" />
      <line x1="-16.501684" y1="-24.98699" x2="-19.269668" y2="-21.917812" />
      <path d="M -14.201669,-21.845706 C -16.199587,-23.853167 -16.094965,-24.275171 -16.501684,-24.98699" />
      <path d="M -5.501209,-21.333744 C -6.964249,-27.851066 -13.813057,-26.132185 -14.201669,-21.845706" />
      <path d="M -3.422037,-15.254799 C -3.557553,-15.594134 -4.94463,-17.911706 -5.501209,-21.333744" />
      <path d="M 14.103529,25.900321 C 15.553073,28.515826 16.699842,31.222254 17.810086,33.907982" />
      <path d="M 7.053004,33.71804 C 10.643818,33.959275 14.245214,33.943979 17.810086,33.907982" />
      <path d="M 7.053004,33.71804 C 5.603459,31.102535 4.456691,28.396107 3.346447,25.71038" />
      <path d="M 14.103529,25.900321 C 10.512714,25.659086 6.911318,25.674382 3.346447,25.71038" />
      <path d="M 27.595397,-1.177189 C 27.506811,-1.021313 27.417219,-0.812759 27.417219,-0.530707" />
      <path d="M 27.417219,-0.530707 C 27.417219,0.133281 27.913734,1.204588 30.088759,2.954824" />
      <path d="M 30.088759,2.954824 C 29.936572,2.626709 29.863517,2.262868 29.863517,1.888524" />
      <path d="M 29.863517,1.888524 C 29.863517,-0.019524 31.761466,-2.200438 34.752606,-1.314144" />
      <path d="M 34.752606,-1.314144 C 36.312249,-0.844003 36.98943,0.175804 36.98943,1.260932" />
      <path d="M 36.98943,1.260932 C 36.98943,2.592536 35.969683,4.022506 34.309535,4.655815" />
      <path d="M 34.309535,4.655815 C 36.813812,3.877272 40.876609,5.11771 40.876609,7.390143" />
      <path d="M 40.876609,7.390143 C 40.876609,7.976394 40.606206,8.631331 39.968881,9.338007 C 36.912202,12.727294 32.545723,9.40044 32.545723,6.740177" />
      <path d="M 32.545723,6.740177 L 32.549404,6.607473" />
      <path d="M 25.566921,8.871069 C 27.940382,11.137924 32.152159,9.239414 32.549404,6.607473" />
      <path d="M 29.153689,3.991642 C 27.121318,3.954691 24.726729,5.42477 24.726729,7.155941" />
      <path d="M 24.726729,7.155941 C 24.726729,7.714421 24.975941,8.300075 25.566921,8.871069" />
      <path d="M 23.415086,3.457998 C 23.943018,3.065985 25.174681,2.47376 29.153689,3.991642" />
      <line x1="23.415086" y1="3.457998" x2="27.595397" y2="-1.177189" />
      <line x1="-57.780762" y1="-1.875701" x2="-21.120849" y2="-42.524714" />
      <path d="M -21.120849,-42.524714 A 4.233333333333333,3.355956928722662 -5.217852231402779e-15 0,1 -15.215037,-43.302901" />
      <path d="M 56.723536,-2.530052 A 4.233333333333333,3.355956928722662 -5.217852231402779e-15 0,1 58.494781,0.199945" />
      <line x1="-15.215037" y1="-43.302901" x2="56.723536" y2="-2.530052" />
      <line x1="-21.120849" y1="-42.524714" x2="-21.120849" y2="-37.434951" />
      <line x1="-15.215037" y1="-43.302901" x2="-15.215037" y2="-38.213138" />
      <line x1="56.723536" y1="2.559711" x2="56.723536" y2="-2.530052" />
      <line x1="-31.10008" y1="13.537803" x2="-31.10008" y2="12.318698" />
      <path d="M -31.10008,12.318698 C -30.077064,12.229787 -29.111705,11.817822 -28.422857,11.209622 C -28.312366,11.112329 -28.208981,11.010269 -28.112702,10.903442 C -27.842599,10.598048 -27.685223,10.236372 -27.568746,9.873516 C -27.464975,9.534639 -27.395768,9.191008 -27.361126,8.842621" />
      <line x1="-27.480097" y1="8.238723" x2="-27.480097" y2="7.019618" />
      <line x1="-35.80626" y1="10.43292" x2="-35.80626" y2="9.213815" />
      <path d="M -35.80626,9.213815 C -35.428203,9.944569 -34.960273,10.657206 -34.298574,11.248079 C -33.808552,11.685703 -33.190651,12.045077 -32.480723,12.212545 C -32.035478,12.319728 -31.56379,12.350798 -31.10008,12.318698" />
      <line x1="-37.901473" y1="5.044958" x2="-37.901473" y2="3.825853" />
      <path d="M -37.901473,3.825853 C -37.463371,4.767083 -37.104338,5.728063 -36.759592,6.690879 C -36.456712,7.534974 -36.156995,8.380159 -35.80626,9.213815" />
      <path d="M -39.312994,1.175597 C -38.816997,2.057897 -38.326767,2.943421 -37.901473,3.825853" />
      <path d="M -22.302381,3.899426 C -22.403731,4.333035 -22.611213,4.751421 -22.909933,5.125094 C -22.954247,5.180572 -23.000591,5.235106 -23.048963,5.288699 C -23.326108,5.590102 -23.706899,5.825152 -24.102328,6.029905 C -24.547478,6.257178 -25.02507,6.444842 -25.516279,6.602631 C -26.148901,6.802017 -26.808543,6.963681 -27.480097,7.019618" />
      <line x1="-11.350534" y1="-14.847932" x2="-11.350534" y2="-16.067037" />
      <path d="M -11.350534,-16.067037 C -9.683116,-16.336508 -7.985655,-16.487505 -6.289926,-16.520963 C -5.531918,-16.536177 -4.771327,-16.526172 -4.024818,-16.495281" />
      <line x1="-14.776156" y1="-21.208707" x2="-14.776156" y2="-22.427812" />
      <path d="M -18.040676,-18.277833 C -17.896803,-17.747649 -17.531897,-17.259426 -17.02181,-16.898476 C -16.602951,-16.598632 -16.097581,-16.381385 -15.56608,-16.234108 C -14.974443,-16.070141 -14.350221,-15.988609 -13.725342,-15.959695 C -12.932013,-15.923741 -12.135326,-15.971278 -11.350534,-16.067037" />
      <path d="M -18.201011,-23.102753 C -17.504929,-23.070284 -16.798062,-22.933115 -16.106344,-22.772155 C -15.660253,-22.666595 -15.216857,-22.551814 -14.776156,-22.427812" />
      <path d="M 17.305195,32.693809 C 13.886971,32.726054 10.462132,32.728016 7.053004,32.498935" />
      <line x1="7.053004" y1="33.71804" x2="7.053004" y2="32.498935" />
      <path d="M 3.851338,25.705447 C 4.812867,27.999686 5.825488,30.284144 7.053004,32.498935" />
      <line x1="30.088759" y1="2.954824" x2="30.088759" y2="1.735719" />
      <path d="M 29.928909,1.265012 Q 29.983089,1.505941 30.088759,1.735719" />
      <line x1="34.309535" y1="4.655815" x2="34.309535" y2="3.43671" />
      <path d="M 34.309535,3.43671 C 34.838087,3.235368 35.311939,2.947721 35.705189,2.603683 C 36.323899,2.061945 36.751763,1.383022 36.91751,0.664056" />
      <line x1="32.549404" y1="6.607473" x2="32.549404" y2="5.388368" />
      <path d="M 32.549404,5.655871 C 32.593197,6.391474 32.931037,7.1027 33.424886,7.721685 C 33.701395,8.06753 34.028867,8.379655 34.407301,8.658059 C 34.924423,9.035114 35.541268,9.339364 36.225939,9.477881 C 36.593286,9.552235 36.978101,9.575293 37.354676,9.537262 C 37.936052,9.480791 38.483673,9.275992 38.942089,8.989924 C 39.338471,8.744099 39.67635,8.442997 39.968881,8.118902 C 40.330488,7.717506 40.629487,7.273474 40.778819,6.792882" />
      <path d="M 32.549404,5.388368 C 32.432349,6.170813 31.968425,6.908597 31.294935,7.483326 C 30.850246,7.863217 30.312864,8.177007 29.714996,8.387692 C 29.267989,8.545046 28.785627,8.643454 28.296251,8.659274 C 27.911718,8.672031 27.523866,8.632431 27.157727,8.537465 C 26.531011,8.377457 25.983938,8.05345 25.566921,7.651964" />
      <line x1="25.566921" y1="8.871069" x2="25.566921" y2="7.651964" />
      <path d="M 25.566921,7.651964 C 25.229528,7.326794 24.960942,6.95174 24.826257,6.543549" />
      <line x1="29.153689" y1="3.991642" x2="29.153689" y2="2.772537" />
      <path d="M 29.153689,2.772537 C 28.228905,2.422256 27.276504,2.105813 26.281875,1.91797 C 25.83378,1.835484 25.375111,1.780455 24.918802,1.790657" />
      <line x1="-58.570371" y1="0.076109" x2="-58.570371" y2="-5.013654" />
      <line x1="58.494781" y1="0.199945" x2="58.494781" y2="-4.889818" />
      <line x1="-58.570371" y1="5.165872" x2="-58.570371" y2="0.076109" />
      <line x1="58.494781" y1="5.289708" x2="58.494781" y2="0.199945" />
      <path d="M 27.417219,-0.530707 L 27.417219,-0.979622" />
    </g>
    <g fill="none" stroke="rgb(99,99,99)" stroke-width="0.10535863736679375" id="Hidden" stroke-dasharray="0.002676 0.317414">
      <line x1="-56.799126" y1="-2.283657" x2="-56.799126" y2="2.806106" />
      <line x1="-56.799126" y1="2.806106" x2="15.139446" y2="43.578956" />
      <line x1="15.139446" y1="43.578956" x2="15.139446" y2="38.489193" />
      <line x1="-56.799126" y1="-2.283657" x2="15.139446" y2="38.489193" />
      <path d="M -56.799126,2.806106 A 4.233333333333333,3.355956928722662 -5.217852231402779e-15 0,1 -58.570371,0.076109" />
      <path d="M -56.799126,-2.283657 A 4.233333333333333,3.355956928722662 -5.217852231402779e-15 0,1 -58.570371,-5.013654" />
      <path d="M 21.045258,42.800769 A 4.233333333333333,3.355956928722662 -5.217852231402779e-15 0,1 15.139446,43.578956" />
      <line x1="21.045258" y1="42.800769" x2="57.705171" y2="2.151755" />
      <path d="M -55.490536,1.355124 A 1.9833333333333343,1.572279033535421 -5.217852231402779e-15 0,1 -56.320371,0.076109" />
      <path d="M -56.320371,0.076109 A 1.9833333333333343,1.572279033535421 -5.217852231402779e-15 0,1 -55.950436,-0.838322" />
      <line x1="-55.950436" y1="-0.838322" x2="-19.290523" y2="-41.487335" />
      <path d="M -19.290523,-41.487335 A 1.9833333333333343,1.572279033535421 -5.217852231402779e-15 0,1 -16.523627,-41.851919" />
      <line x1="-16.523627" y1="-41.851919" x2="55.414946" y2="-1.079069" />
      <path d="M 55.414946,-1.079069 A 1.9833333333333343,1.572279033535421 -5.217852231402779e-15 0,1 56.244781,0.199945" />
      <path d="M 56.244781,0.199945 A 1.9833333333333343,1.572279033535421 -5.217852231402779e-15 0,1 55.874846,1.114376" />
      <line x1="19.214933" y1="41.763389" x2="55.874846" y2="1.114376" />
      <path d="M 19.214933,41.763389 A 1.9833333333333343,1.572279033535421 -5.217852231402779e-15 0,1 16.448037,42.127973" />
      <line x1="-55.490536" y1="1.355124" x2="16.448037" y2="42.127973" />
      <line x1="21.045258" y1="42.800769" x2="21.045258" y2="37.711006" />
      <path d="M 21.045258,37.711006 A 4.233333333333333,3.355956928722662 -5.217852231402779e-15 0,1 15.139446,38.489193" />
      <path d="M 58.494781,-4.889818 A 4.233333333333333,3.355956928722662 -5.217852231402779e-15 0,1 57.705171,-2.938008" />
      <line x1="21.045258" y1="37.711006" x2="57.705171" y2="-2.938008" />
      <line x1="57.705171" y1="2.151755" x2="57.705171" y2="-2.938008" />
      <path d="M -55.490536,5.225782 A 1.9833333333333343,1.572279033535421 -5.217852231402779e-15 0,1 -56.320371,3.946767" />
      <path d="M -56.320371,3.946767 A 1.9833333333333343,1.572279033535421 -5.217852231402779e-15 0,1 -55.950436,3.032337" />
      <line x1="-55.950436" y1="3.032337" x2="-19.290523" y2="-37.616677" />
      <path d="M -19.290523,-37.616677 A 1.9833333333333343,1.572279033535421 -5.217852231402779e-15 0,1 -16.523627,-37.981261" />
      <line x1="-16.523627" y1="-37.981261" x2="55.414946" y2="2.791589" />
      <path d="M 55.414946,2.791589 A 1.9833333333333343,1.572279033535421 -5.217852231402779e-15 0,1 56.244781,4.070603" />
      <path d="M 56.244781,4.070603 A 1.9833333333333343,1.572279033535421 -5.217852231402779e-15 0,1 55.874846,4.985034" />
      <line x1="19.214933" y1="45.634047" x2="55.874846" y2="4.985034" />
      <path d="M 19.214933,45.634047 A 1.9833333333333343,1.572279033535421 -5.217852231402779e-15 0,1 16.448037,45.998631" />
      <line x1="-55.490536" y1="5.225782" x2="16.448037" y2="45.998631" />
      <path d="M -54.472744,4.09724 A 0.23333333333333428,0.18497400394534433 -5.217852231402779e-15 0,1 -54.570371,3.946767" />
      <path d="M -54.570371,3.946767 A 0.23333333333333428,0.18497400394534433 -5.217852231402779e-15 0,1 -54.52685,3.839187" />
      <line x1="-54.52685" y1="3.839187" x2="-17.866937" y2="-36.809826" />
      <path d="M -17.866937,-36.809826 A 0.23333333333333428,0.18497400394534433 -5.217852231402779e-15 0,1 -17.541419,-36.852718" />
      <line x1="-17.541419" y1="-36.852718" x2="54.397153" y2="3.920131" />
      <path d="M 54.397153,3.920131 A 0.23333333333333428,0.18497400394534433 -5.217852231402779e-15 0,1 54.494781,4.070603" />
      <path d="M 54.494781,4.070603 A 0.23333333333333428,0.18497400394534433 -5.217852231402779e-15 0,1 54.451259,4.178183" />
      <line x1="17.791346" y1="44.827197" x2="54.451259" y2="4.178183" />
      <path d="M 17.791346,44.827197 A 0.23333333333333428,0.18497400394534433 -5.217852231402779e-15 0,1 17.465829,44.870089" />
      <line x1="-54.472744" y1="4.09724" x2="17.465829" y2="44.870089" />
      <line x1="-54.52685" y1="3.839187" x2="-54.52685" y2="-3.902129" />
      <path d="M -54.472744,-3.644077 A 0.23333333333333428,0.18497400394534433 -5.217852231402779e-15 0,1 -54.570371,-3.794549" />
      <path d="M -54.570371,-3.794549 A 0.23333333333333428,0.18497400394534433 -5.217852231402779e-15 0,1 -54.52685,-3.902129" />
      <line x1="-54.472744" y1="-3.644077" x2="-54.472744" y2="4.09724" />
      <line x1="-17.866937" y1="-36.809826" x2="-17.866937" y2="-44.551142" />
      <line x1="-54.52685" y1="-3.902129" x2="-17.866937" y2="-44.551142" />
      <line x1="-17.541419" y1="-36.852718" x2="-17.541419" y2="-44.594035" />
      <path d="M -17.866937,-44.551142 A 0.23333333333333428,0.18497400394534433 -5.217852231402779e-15 0,1 -17.541419,-44.594035" />
      <line x1="54.397153" y1="3.920131" x2="54.397153" y2="-3.821185" />
      <line x1="-17.541419" y1="-44.594035" x2="54.397153" y2="-3.821185" />
      <line x1="54.451259" y1="4.178183" x2="54.451259" y2="-3.563133" />
      <path d="M 54.397153,-3.821185 A 0.23333333333333428,0.18497400394534433 -5.217852231402779e-15 0,1 54.494781,-3.670713" />
      <path d="M 54.494781,-3.670713 A 0.23333333333333428,0.18497400394534433 -5.217852231402779e-15 0,1 54.451259,-3.563133" />
      <line x1="17.791346" y1="44.827197" x2="17.791346" y2="37.085881" />
      <line x1="17.791346" y1="37.085881" x2="54.451259" y2="-3.563133" />
      <line x1="17.465829" y1="44.870089" x2="17.465829" y2="37.128773" />
      <path d="M 17.791346,37.085881 A 0.23333333333333428,0.18497400394534433 -5.217852231402779e-15 0,1 17.465829,37.128773" />
      <line x1="-54.472744" y1="-3.644077" x2="-36.893794" y2="6.319199" />
      <line x1="-28.361934" y1="11.154828" x2="6.100707" y2="30.687327" />
      <line x1="9.523421" y1="32.627229" x2="17.465829" y2="37.128773" />
      <line x1="-56.799126" y1="2.806106" x2="-56.799126" y2="7.895869" />
      <line x1="15.139446" y1="48.668719" x2="15.139446" y2="43.578956" />
      <line x1="-56.799126" y1="2.806106" x2="15.139446" y2="43.578956" />
      <path d="M -56.799126,2.806106 A 4.233333333333333,3.355956928722662 -5.217852231402779e-15 0,1 -58.570371,0.076109" />
      <line x1="21.045258" y1="47.890532" x2="21.045258" y2="42.800769" />
      <path d="M 21.045258,42.800769 A 4.233333333333333,3.355956928722662 -5.217852231402779e-15 0,1 15.139446,43.578956" />
      <line x1="21.045258" y1="42.800769" x2="57.705171" y2="2.151755" />
      <path d="M 58.494781,0.199945 A 4.233333333333333,3.355956928722662 -5.217852231402779e-15 0,1 57.705171,2.151755" />
      <path d="M -55.781334,1.677564 A 2.4833333333333343,1.9686518991325859 -5.217852231402779e-15 0,1 -56.820371,0.076109" />
      <path d="M -56.820371,0.076109 A 2.4833333333333343,1.9686518991325859 -5.217852231402779e-15 0,1 -56.357175,-1.06885" />
      <line x1="-56.357175" y1="-1.06885" x2="-19.697262" y2="-41.717864" />
      <path d="M -19.697262,-41.717864 A 2.4833333333333343,1.9686518991325859 -5.217852231402779e-15 0,1 -16.232829,-42.174359" />
      <line x1="-16.232829" y1="-42.174359" x2="55.705744" y2="-1.40151" />
      <path d="M 55.705744,-1.40151 A 2.4833333333333343,1.9686518991325859 -5.217852231402779e-15 0,1 56.744781,0.199945" />
      <path d="M 56.744781,0.199945 A 2.4833333333333343,1.9686518991325859 -5.217852231402779e-15 0,1 56.281585,1.344905" />
      <line x1="19.621672" y1="41.993918" x2="56.281585" y2="1.344905" />
      <path d="M 19.621672,41.993918 A 2.4833333333333343,1.9686518991325859 -5.217852231402779e-15 0,1 16.157239,42.450414" />
      <line x1="-55.781334" y1="1.677564" x2="16.157239" y2="42.450414" />
      <line x1="57.705171" y1="7.241518" x2="57.705171" y2="2.151755" />
      <path d="M -27.361126,8.842621 Q -27.328597,8.53136 -27.328462,8.2193" />
      <path d="M -27.328462,8.2193 C -27.330118,7.815473 -27.36556,7.40939 -27.480097,7.019618" />
      <line x1="-40.044471" y1="1.117574" x2="-40.044471" y2="-0.101531" />
      <path d="M -40.044471,-0.101531 Q -39.67407,0.536547 -39.312994,1.175597" />
      <path d="M -40.044471,-0.101531 C -38.786071,-0.000315 -37.528351,0.09412 -36.27911,0.165089 C -35.736454,0.196682 -35.197902,0.22015 -34.663454,0.235493" />
      <line x1="-34.663454" y1="1.454598" x2="-34.663454" y2="0.235493" />
      <path d="M -34.663454,0.235493 C -33.398269,0.259642 -32.135087,0.218089 -30.874335,0.165226 C -29.768834,0.119364 -28.663056,0.070776 -27.554534,0.064188" />
      <line x1="-27.554534" y1="1.283293" x2="-27.554534" y2="0.064188" />
      <path d="M -27.554534,0.064188 C -26.559998,0.111382 -25.558014,0.231853 -24.638686,0.537063 C -23.957815,0.763071 -23.328975,1.110315 -22.899427,1.588673 C -22.627458,1.887987 -22.437785,2.231758 -22.326093,2.589981" />
      <line x1="-22.326093" y1="3.809086" x2="-22.326093" y2="2.589981" />
      <path d="M -22.326093,2.589981 Q -22.230107,2.932787 -22.23053,3.28435" />
      <path d="M -22.23053,3.28435 Q -22.230846,3.594301 -22.302381,3.899426" />
      <path d="M -4.024818,-16.495281 C -3.932331,-16.491408 -3.839845,-16.487535 -3.747359,-16.483662 C -3.635402,-16.479309 -3.519733,-16.473183 -3.422037,-16.473904" />
      <line x1="-3.422037" y1="-15.254799" x2="-3.422037" y2="-16.473904" />
      <path d="M -14.776156,-22.427812 C -15.697311,-22.119181 -16.533151,-21.636894 -17.145346,-21.007684 C -17.737836,-20.401212 -18.121314,-19.649315 -18.121658,-18.876747" />
      <path d="M -18.121658,-18.876747 Q -18.122174,-18.573778 -18.040676,-18.277833" />
      <line x1="-19.269668" y1="-21.917812" x2="-19.269668" y2="-23.136917" />
      <path d="M -19.269668,-23.136917 C -18.91244,-23.108967 -18.561279,-23.121093 -18.201011,-23.102753" />
      <line x1="-16.501684" y1="-26.206095" x2="-19.269668" y2="-23.136917" />
      <line x1="-16.501684" y1="-24.98699" x2="-16.501684" y2="-26.206095" />
      <path d="M -16.501684,-26.206095 C -16.327858,-25.902015 -16.218289,-25.586219 -16.040528,-25.277533 C -15.933147,-25.088501 -15.811692,-24.902824 -15.676162,-24.720502 C -15.246831,-24.143364 -14.730321,-23.598764 -14.201669,-23.064811" />
      <line x1="-14.201669" y1="-21.845706" x2="-14.201669" y2="-23.064811" />
      <path d="M -14.201669,-23.064811 C -14.13127,-23.855628 -13.825995,-24.638625 -13.273004,-25.30139 C -12.953641,-25.68471 -12.552395,-26.026835 -12.081481,-26.295163 C -11.76632,-26.475847 -11.425401,-26.617269 -11.058726,-26.719429 C -10.547588,-26.860532 -9.993809,-26.908916 -9.45761,-26.845091 C -9.06163,-26.798862 -8.677793,-26.692451 -8.328243,-26.538023 C -7.834847,-26.320826 -7.412055,-26.012015 -7.064326,-25.660968 C -6.677223,-25.270212 -6.377974,-24.828346 -6.141318,-24.368965 C -5.841766,-23.785504 -5.640785,-23.172514 -5.501209,-22.552849" />
      <line x1="-5.501209" y1="-21.333744" x2="-5.501209" y2="-22.552849" />
      <path d="M -5.501209,-22.552849 C -5.283454,-21.214913 -4.91457,-19.892767 -4.405949,-18.609942 C -4.295343,-18.331108 -4.178215,-18.05449 -4.054566,-17.78009 C -3.945024,-17.537255 -3.831056,-17.296952 -3.712663,-17.05918 C -3.654776,-16.943084 -3.596863,-16.828283 -3.538924,-16.714778 C -3.497511,-16.632205 -3.45278,-16.547421 -3.422037,-16.473904" />
      <line x1="17.810086" y1="33.907982" x2="17.810086" y2="32.688877" />
      <path d="M 17.810086,32.688877 C 16.693378,29.986961 15.547615,27.286718 14.103529,24.681216" />
      <line x1="14.103529" y1="25.900321" x2="14.103529" y2="24.681216" />
      <path d="M 17.810086,32.688877 L 17.305195,32.693809" />
      <line x1="3.346447" y1="25.71038" x2="3.346447" y2="24.491275" />
      <path d="M 3.346447,24.491275 L 3.851338,25.705447" />
      <path d="M 3.346447,24.491275 C 6.932731,24.454889 10.52642,24.440839 14.103529,24.681216" />
      <path d="M 30.088759,1.735719 C 29.371498,1.155333 28.685692,0.543285 28.139725,-0.14204 C 27.863577,-0.493676 27.622949,-0.867808 27.496633,-1.266137 C 27.445238,-1.426103 27.418766,-1.587328 27.417219,-1.749812" />
      <path d="M 27.417219,-1.749812 C 27.415283,-1.977315 27.481679,-2.201213 27.595397,-2.396293" />
      <line x1="27.595397" y1="-1.177189" x2="27.595397" y2="-2.396293" />
      <line x1="34.752606" y1="-1.314144" x2="34.752606" y2="-2.533249" />
      <path d="M 34.752606,-2.533249 C 34.070202,-2.738621 33.306587,-2.808199 32.599145,-2.649306 C 32.05733,-2.531045 31.567108,-2.286233 31.174189,-1.970075 C 30.617839,-1.522813 30.240453,-0.948099 30.035162,-0.344171 C 29.922312,-0.012118 29.865097,0.325745 29.863517,0.669419" />
      <path d="M 29.863517,0.669419 Q 29.862699,0.969622 29.928909,1.265012" />
      <path d="M 36.91751,0.664056 Q 36.988667,0.35544 36.98943,0.041828" />
      <path d="M 36.98943,0.041828 C 36.992306,-0.550369 36.778335,-1.151229 36.324164,-1.626406 C 35.930439,-2.044757 35.366726,-2.350313 34.752606,-2.533249" />
      <path d="M 32.549404,5.388368 L 32.545723,5.521072" />
      <path d="M 32.545723,5.521072 L 32.549404,5.655871" />
      <path d="M 40.778819,6.792882 Q 40.875028,6.486465 40.876609,6.171038" />
      <path d="M 40.876609,6.171038 C 40.879644,5.710919 40.698994,5.254706 40.380159,4.871625 C 39.993337,4.402849 39.430636,4.038564 38.813293,3.772635 C 38.358566,3.578826 37.880075,3.434153 37.377822,3.338616 C 36.845068,3.236792 36.294731,3.189497 35.746994,3.207844 C 35.256873,3.22468 34.767037,3.29474 34.309535,3.43671" />
      <path d="M 24.826257,6.543549 Q 24.727132,6.245154 24.726729,5.936836" />
      <path d="M 24.726729,5.936836 C 24.724611,5.346849 25.013442,4.774092 25.454106,4.30488 C 25.783505,3.952401 26.194928,3.649694 26.653769,3.405163 C 27.389527,3.015913 28.262355,2.760027 29.153689,2.772537" />
      <path d="M 24.918802,1.790657 C 24.712396,1.794616 24.510078,1.815566 24.311847,1.853506 C 23.969125,1.918388 23.653823,2.056405 23.415086,2.238893" />
      <line x1="23.415086" y1="3.457998" x2="23.415086" y2="2.238893" />
      <line x1="23.415086" y1="2.238893" x2="27.595397" y2="-2.396293" />
      <path d="M -55.781334,5.548222 A 2.4833333333333343,1.9686518991325859 -5.217852231402779e-15 0,1 -56.820371,3.946767" />
      <path d="M -56.820371,3.946767 A 2.4833333333333343,1.9686518991325859 -5.217852231402779e-15 0,1 -56.357175,2.801808" />
      <line x1="-56.357175" y1="2.801808" x2="-19.697262" y2="-37.847205" />
      <path d="M -19.697262,-37.847205 A 2.4833333333333343,1.9686518991325859 -5.217852231402779e-15 0,1 -16.232829,-38.303701" />
      <line x1="-16.232829" y1="-38.303701" x2="55.705744" y2="2.469148" />
      <path d="M 55.705744,2.469148 A 2.4833333333333343,1.9686518991325859 -5.217852231402779e-15 0,1 56.744781,4.070603" />
      <path d="M 56.744781,4.070603 A 2.4833333333333343,1.9686518991325859 -5.217852231402779e-15 0,1 56.281585,5.215563" />
      <line x1="19.621672" y1="45.864576" x2="56.281585" y2="5.215563" />
      <path d="M 19.621672,45.864576 A 2.4833333333333343,1.9686518991325859 -5.217852231402779e-15 0,1 16.157239,46.321072" />
      <line x1="-55.781334" y1="5.548222" x2="16.157239" y2="46.321072" />
      <line x1="-56.320371" y1="3.946767" x2="-56.320371" y2="0.076109" />
      <line x1="56.244781" y1="4.070603" x2="56.244781" y2="0.199945" />
      <line x1="-54.570371" y1="3.946767" x2="-54.570371" y2="-3.794549" />
      <line x1="54.494781" y1="4.070603" x2="54.494781" y2="-3.670713" />
      <path d="M -27.328462,9.438405 L -27.328462,8.2193" />
      <path d="M -22.23053,4.503455 L -22.23053,3.28435" />
      <path d="M -18.121658,-17.657642 L -18.121658,-18.876747" />
      <path d="M 27.417219,-0.979622 L 27.417219,-1.749812" />
      <path d="M 29.863517,1.888524 L 29.863517,0.669419" />
      <path d="M 36.98943,1.260932 L 36.98943,0.041828" />
      <path d="M 40.876609,7.390143 L 40.876609,6.171038" />
      <path d="M 32.545723,6.740177 L 32.545723,5.521072" />
      <path d="M 24.726729,7.155941 L 24.726729,5.936836" />
      <line x1="-56.820371" y1="3.946767" x2="-56.820371" y2="0.076109" />
      <line x1="56.744781" y1="4.070603" x2="56.744781" y2="0.199945" />
    </g>
  </g>
</svg>