<?xml version="1.0" encoding="UTF-8" standalone="no"?>
    <svg
    xmlns:svg="http://www.w3.org/2000/svg"
    xmlns="http://www.w3.org/2000/svg"
    width="111"
    height="240"
    >
        <g transform="scale(50, -50)   translate(1.3281775885329017,-2.3379547379254415)" stroke-width="0.02"  fill="none">
        <!-- hidden lines -->
        <g  stroke="rgb(160,160,160)" fill="none" stroke-dasharray="0.02,0.02" >
    
        </g>

        <!-- solid lines -->
        <g  stroke="rgb(0,0,0)" fill="none">
    			<path d="M0.5056731831494121,-2.0699750362930587 L0.5039969623518692,-1.9576683366517802 L0.4989723381219613,-1.8413864624145737 L0.4906114152195633,-1.7214095468015649 L0.47893433584027756,-1.5980266247112023 L0.46396923109111987,-1.4715349364098689 L0.44575215322021977,-1.3422392114540471 L0.4243269887637955,-1.2104509345701222 L0.3997453528196453,-1.0764875952603976 L0.37206646470185567,-0.9406719229430737 L0.3413570052762869,-0.8033311094688103 L0.3076909563205259,-0.6647960208869019 L0.2711494222953048,-0.5254004003599825 L0.23182043495675075,-0.3854800641475156 L0.1897987412801747,-0.24537209259501225 L0.14518557520630937,-0.10541401807794967 L0.09808841375987809,0.03405698814328012 L0.048620718128029816,0.17270492819847305 L-0.0030983396775997596,0.31019578705591067 L-0.05694416391670287,0.44619833719382807 L-0.11278703528235035,0.5803849365565277 L-0.170492423406164,0.7124323178727863 L-0.22992131095375867,0.8420223674350273 L-0.2909305285296768,0.9688428914631095 L-0.3533730995850015,1.0925883682064825 L-0.4170985944967374,1.2129606839728477 L-0.4819534929659472,1.3296698513101535 L-0.5477815538616011,1.4424347076117696 L-0.6144241916191439,1.5509835924618296 L-0.6817208582870123,1.6550550020889716 L-0.7495094303007124,1.7543982193518253 L-0.8176265990526844,1.8487739177385647 L-0.8859082643170391,1.9379547379254336 " />
			<path d="M-0.8859082643170453,-0.307593589266717 L-0.42204778182822605,-0.8950540716088309 " />
			<path d="M-0.8859082643170453,-0.307593589266717 L-0.8859082643170453,0.440922519797336 " />
			<path d="M-0.8859082643170453,-0.307593589266717 L0.0,0.0 " />
			<path d="M-0.4220477818282261,-0.8950540716088309 L-0.43038277487294707,-0.8823539542959896 L-0.4365434219060017,-0.8688988887328892 L-0.4452408059526671,-0.8407305105229235 " />
			<path d="M-0.4220477818282261,-0.8950540716088309 L-0.43038277487294707,-0.8866423278375024 L-0.4365434219060017,-0.8844929743383904 L-0.44125450493127877,-0.8865185476874226 L-0.4452408059526671,-0.8906315844605269 " />
			<path d="M-0.8859082643170453,0.440922519797336 L-0.8872370313241748,0.4291554504693004 L-0.8907401443429704,0.4236507714134813 L-0.8956928213695438,0.42232101920580645 L-0.9013702804000059,0.4230787304222037 " />
			<path d="M-0.8859082643170453,0.440922519797336 L-0.8845794973099158,0.4257897914558821 L-0.8810763842911201,0.4114120113646873 L-0.8704462482340847,0.3839146982660629 " />
			<path d="M0.0,0.0 L-0.015918664124446924,-0.003382885536379912 L-0.02768463325990768,-0.0018152568618343412 L-0.036682139069377666,0.0030527146199948803 L-0.04429541321585225,0.009570857505465907 " />
			<path d="M0.0,0.0 L-0.015918664124446924,-0.007671259077892719 L-0.02768463325990768,-0.017409342467335456 L-0.04429541321585225,-0.04033021643213759 " />
			<path d="M-0.3507292326455701,-0.9171675294160722 L-0.37925657682050706,-0.9474696100467798 " />
			<path d="M-0.3792565768205072,-0.9474696100467798 L-0.34933780219435456,-1.0553469023381903 " />
			<path d="M-0.3493378021943545,-1.0553469023381903 L-0.3626737910659081,-1.0384574134708544 " />
			<path d="M-0.362673791065908,-1.0384574134708544 L-0.38575054807722514,-0.9523442908179239 " />
			<path d="M-0.3857505480772252,-0.952344290817924 L-0.40894357220166616,-0.9798586128184802 " />
			<path d="M-0.40894357220166616,-0.9798586128184801 L-0.4220477818282261,-0.9632626629616896 " />
			<path d="M-0.4220477818282261,-0.9632626629616896 L-0.39212862971144646,-0.9311676772770989 " />
			<path d="M-0.3921286297114464,-0.931167677277099 L-0.4201924153963962,-0.8291952265700278 " />
			<path d="M-0.42019241539639623,-0.8291952265700278 L-0.4070882057698363,-0.8457911764268182 " />
			<path d="M-0.40708820576983634,-0.8457911764268181 L-0.38540287920973487,-0.9267735427149721 " />
			<path d="M-0.3854028792097348,-0.9267735427149723 L-0.3636012855365095,-0.9008655966463914 " />
			<path d="M-0.3636012855365095,-0.9008655966463913 L-0.35072923264557015,-0.917167529416072 " />
			<path d="M-0.9281775885329017,0.6157147573843816 L-0.8768048891010142,0.4993798424346853 " />
			<path d="M-0.8768048891010141,0.49937984243468536 L-0.8436389401011889,0.45737651356253706 " />
			<path d="M-0.8436389401011889,0.45737651356253717 L-0.8436389401011889,0.43997327036921036 " />
			<path d="M-0.8436389401011889,0.4399732703692104 L-0.8768048891010141,0.4819765992413587 " />
			<path d="M-0.8768048891010141,0.4819765992413586 L-0.9281775885329016,0.4944549040584176 " />
			<path d="M-0.9281775885329017,0.4944549040584175 L-0.9281775885329017,0.5159747421940091 " />
			<path d="M-0.9281775885329017,0.5159747421940091 L-0.8870099707120189,0.5038833580498671 " />
			<path d="M-0.8870099707120189,0.5038833580498671 L-0.9281775885329017,0.5949429480426791 " />
			<path d="M-0.9281775885329017,0.5949429480426791 L-0.9281775885329017,0.6157147573843818 " />
			<path d="M0.16145692536257972,0.009370533062637243 L0.16145692536257972,0.10761327237729418 " />
			<path d="M0.16145692536257972,0.10761327237729418 L0.14285270762112354,0.10115375693863236 " />
			<path d="M0.14285270762112345,0.10115375693863232 L0.018160831036902872,-0.023728884081936574 " />
			<path d="M0.018160831036902914,-0.023728884081936574 L0.01816083103690291,0.05823387351816482 " />
			<path d="M0.018160831036902914,0.058233873518164836 L-5.898059818321144e-17,0.05192830506631864 " />
			<path d="M0.0,0.05192830506631868 L3.250684706338846e-18,6.938893903907228e-18 " />
			<path d="M3.250684706338846e-18,6.938893903907228e-18 L6.501369412677692e-18,-0.05192830506631867 " />
			<path d="M0.0,-0.05192830506631868 L0.018160831036902973,-0.045622736614472484 " />
			<path d="M0.018160831036903025,-0.04562273661447247 L0.14329537337168569,0.07978761546955271 " />
			<path d="M0.14329537337168552,0.07978761546955271 L0.14329537337168552,0.003064714290487283 " />
			<path d="M0.14329537337168552,0.0030647142904872693 L0.1614569253625796,0.00937053306263722 " />

        </g>
        </g>
    </svg>
    