<?xml version="1.0" encoding="UTF-8" standalone="no"?>
    <svg
    xmlns:svg="http://www.w3.org/2000/svg"
    xmlns="http://www.w3.org/2000/svg"
    width="194"
    height="194"
    >
        <g transform="scale(50, -50)   translate(0.4911250813802084,-3.4000000000000004)" stroke-width="0.02"  fill="none">
        <!-- hidden lines -->
        <g  stroke="rgb(160,160,160)" fill="none" stroke-dasharray="0.02,0.02" >
    
        </g>

        <!-- solid lines -->
        <g  stroke="rgb(0,0,0)" fill="none">
    			<path d="M3.0,0.0 L2.996149521513159,0.15194750651613814 L2.984607970175686,0.30350496596229654 L2.9654049729843344,0.4542833325137301 L2.938589823757484,0.6038955602659802 L2.904231356598613,0.7519575967761616 L2.862417769200147,0.8980893689200737 L2.8132563964412416,1.041915758534461 L2.756873434860692,1.1830675653399556 L2.693413618712225,1.3211824546729027 L2.6230398484337467,1.4559058875932434 L2.545932772484253,1.5868920309808874 L2.462290323621829,1.7138046452843771 L2.372327210813096,1.8363179476429883 L2.276274368078373,1.9541174481666665 L2.174378361687361,2.0669007572270597 L2.066900757227061,2.1743783616873595 L1.9541174481666672,2.276274368078373 L1.8363179476429892,2.372327210813096 L1.7138046452843774,2.462290323621829 L1.5868920309808876,2.545932772484253 L1.4559058875932434,2.6230398484337467 L1.3211824546729032,2.6934136187122255 L1.183067565339956,2.7568734348606925 L1.0419157585344614,2.8132563964412416 L0.8980893689200745,2.862417769200147 L0.7519575967761621,2.9042313565986135 L0.6038955602659809,2.938589823757484 L0.45428333251373065,2.965404972984335 L0.30350496596229726,2.984607970175686 L0.15194750651613886,2.996149521513159 L7.388085321846812e-16,3.0000000000000004 " />
			<path d="M0.0,0.0 L1.0,0.0 " />
			<path d="M0.0,0.0 L0.0,1.0 " />
			<path d="M1.0,0.0 L0.98203125,0.0028645833333333336 L0.96875,0.010416666666666668 L0.95859375,0.021093749999999998 L0.95,0.033333333333333284 " />
			<path d="M1.0,0.0 L0.98203125,-0.0028645833333333336 L0.96875,-0.010416666666666668 L0.95859375,-0.021093749999999998 L0.95,-0.033333333333333284 " />
			<path d="M0.0,1.0 L-0.002864583333333335,0.98203125 L-0.01041666666666667,0.96875 L-0.02109375,0.95859375 L-0.03333333333333329,0.95 " />
			<path d="M0.0,1.0 L0.002864583333333332,0.98203125 L0.010416666666666663,0.96875 L0.02109374999999999,0.95859375 L0.03333333333333328,0.95 " />
			<path d="M0.0,0.0 L-1.994931997373328e-18,0.0028645833333333336 L-3.469446951953614e-18,0.010416666666666668 L-5.551115123125779e-18,0.033333333333333284 " />
			<path d="M0.0,0.0 L-1.994931997373328e-18,-0.0028645833333333336 L-3.469446951953614e-18,-0.010416666666666668 L-5.551115123125779e-18,-0.033333333333333284 " />
			<path d="M1.15375,0.09112508138020833 L1.0922501627604166,0.0023750813802083243 " />
			<path d="M1.0922501627604166,0.0023750813802083407 L1.1567496744791668,-0.09112508138020833 " />
			<path d="M1.1567496744791668,-0.09112508138020833 L1.1279996744791667,-0.09112508138020833 " />
			<path d="M1.1279996744791667,-0.09112508138020833 L1.0782503255208333,-0.015124918619791664 " />
			<path d="M1.0782503255208333,-0.015124918619791662 L1.0282503255208333,-0.09112508138020833 " />
			<path d="M1.0282503255208333,-0.09112508138020833 L1.0,-0.09112508138020833 " />
			<path d="M1.0,-0.09112508138020833 L1.0645003255208334,0.002375081380208338 " />
			<path d="M1.0645003255208334,0.0023750813802083407 L1.0039998372395833,0.09112508138020833 " />
			<path d="M1.0039998372395833,0.09112508138020833 L1.0322501627604166,0.09112508138020833 " />
			<path d="M1.0322501627604166,0.09112508138020833 L1.0789998372395833,0.01962524414062501 " />
			<path d="M1.0789998372395833,0.019625244140625015 L1.1260001627604166,0.09112508138020833 " />
			<path d="M1.1260001627604166,0.09112508138020833 L1.1537499999999998,0.09112508138020833 " />
			<path d="M-0.09112508138020832,1.1620003255208333 L0.019625244140624998,1.0935001627604166 " />
			<path d="M0.019625244140625005,1.0935001627604166 L0.09112508138020833,1.0935001627604166 " />
			<path d="M0.09112508138020835,1.0935001627604166 L0.09112508138020835,1.0702498372395832 " />
			<path d="M0.09112508138020835,1.0702498372395834 L0.01962524414062501,1.0702498372395834 " />
			<path d="M0.019625244140625,1.0702498372395834 L-0.09112508138020835,1.0000000000000002 " />
			<path d="M-0.09112508138020833,1.0 L-0.09112508138020833,1.02875 " />
			<path d="M-0.09112508138020833,1.02875 L-0.0023750813802083243,1.0822501627604166 " />
			<path d="M-0.0023750813802083316,1.0822501627604166 L-0.09112508138020832,1.1342496744791666 " />
			<path d="M-0.09112508138020832,1.1342496744791668 L-0.09112508138020832,1.1620003255208335 " />
			<path d="M-6.924979976026999e-18,-0.062374674479166656 L7.646697222178182e-18,0.06887532552083335 " />
			<path d="M7.64669722217818e-18,0.06887532552083334 L-4.454806026380859e-18,-0.040125325520833366 " />
			<path d="M-4.454806026380858e-18,-0.040125325520833345 L7.702172233337026e-18,0.06937500000000002 " />
			<path d="M7.702172233337024e-18,0.069375 L0.0,0.0 " />
			<path d="M0.0,0.0 L-7.702172233337024e-18,-0.069375 " />
			<path d="M-7.702172233337024e-18,-0.069375 L4.454806026380857e-18,0.040125325520833366 " />
			<path d="M4.454806026380856e-18,0.040125325520833345 L-6.9249799760269996e-18,-0.06237467447916666 " />

        </g>
        </g>
    </svg>
    