<?xml version="1.0" encoding="UTF-8" standalone="no"?>
    <svg
    xmlns:svg="http://www.w3.org/2000/svg"
    xmlns="http://www.w3.org/2000/svg"
    width="280"
    height="280"
    >
        <g transform="scale(2, -2)   translate(70.0,-70.0)" stroke-width="0.5"  fill="none">
        <!-- hidden lines -->
        <g  stroke="rgb(160,160,160)" fill="none" stroke-dasharray="0.5,0.5" >
    
        </g>

        <!-- solid lines -->
        <g  stroke="rgb(0,0,0)" fill="none">
    			<path d="M60.00000000000001,2.1969059370739433e-15 L59.99601266085272,0.6917114996884327 L59.9840511733733,1.3833310630988185 L59.964117127378664,2.074766766172486 L59.93621317232887,2.765926709287878 L59.900343016975,3.456719029475054 L59.85651142886621,4.147051912625317 L59.80472423371607,4.836833605694345 L59.74498831462827,5.525972428897209 L59.67731161118176,6.214376787893653 L59.601703118375504,6.901955185962019 L59.51817288543295,7.588616236160191 L59.42673201446637,8.274268673471957 L59.32739265900121,8.958821366937158 L59.22016802236087,9.642183331764027 L59.1050723559117,10.324263741422094 L58.98212095716893,11.004971939714057 L58.851330167763415,11.68421745282502 L58.712717371269626,12.361910001347479 L58.566300990895236,13.037959512280484 L58.412100487032404,13.712276131001351 L58.25013635467133,14.384770233208368 L58.080430120676205,15.05535243683286 L57.90300434092402,15.723933613919103 L57.71788259730669,16.390424902470404 L57.52508949459674,17.054737718259897 L57.32465065717701,17.71678376660436 L57.11659272563495,18.376475054099608 L56.90094335322174,19.033723900315774 L56.67773120217685,19.688442949451055 L56.44698593991857,20.34054518194229 L56.2087382351008,20.98994392603082 L55.96301975353688,21.63655286928216 L55.70986315399083,22.280286070057894 L55.44930208383665,22.9210579689383 L55.18137117458617,23.558783400094146 L54.90610603728618,24.1933776026062 L54.623543257785265,24.82475623173092 L54.33372039187117,25.452835370110815 L54.0366759602792,26.07753153892802 L53.73244944357236,26.698761708999566 L53.421081276893986,27.316443311812893 L53.10261284459342,27.93049425050016 L52.77708647472557,28.540832910749824 L52.444545433425034,29.147378171654108 L52.105033919155545,29.750049416490903 L51.758597056835505,30.34876654343863 L51.40528089184035,30.94344997622267 L51.04513238388261,31.53402067469196 L50.678199400770445,32.120400145324325 L50.30453071204545,32.702510451659165 L49.92417598250065,33.280274224656054 L49.53718576557948,33.85361467297799 L49.14361149665665,34.42245559319783 L48.74350548620184,34.98672137992659 L48.336920912826976,35.54633703586223 L47.92391181621828,36.101228181757676 L47.50453308995371,36.65132106630665 L47.07884047420704,37.19654257594603 L46.64689054833931,37.736820244573515 L46.20874072337882,38.27208226317916 L45.76444923439055,38.802257489389596 L45.31407513273607,39.32727545692367 L44.85767827822493,39.84706638495823 L44.39531933115861,40.36156118740274 L43.92705974426811,40.87069148208165 L43.452961754546145,41.37438959982311 L42.9730883749752,41.87258859345302 L42.48750338615235,42.36522224669302 L41.996271327812075,42.85222508296144 L41.4994574902483,43.3335323740758 L40.99712790563644,43.80908014885597 L40.489349339257096,44.278805201626675 L39.97618928062214,44.742645100618184 L39.45771593450457,45.20053819626427 L38.933998211873394,45.652423629396054 L38.40510572073453,46.09824133933098 L37.87110875687914,46.53793207185546 L37.33207829454048,46.971437387100465 L36.788085976960716,47.398699667308875 L36.23920410686863,47.81966212449348 L35.6855056368698,48.23426880798479 L35.12706415975042,48.64246461186746 L34.56395389869593,49.04419528230454 L33.99624969742592,49.43940742474842 L33.42402701024659,49.8280485110375 L32.84736189202199,50.21006688637789 L32.26633098806549,50.58541177620881 L31.68101152395272,50.95403329295116 L31.091481295257452,51.315882442638134 L30.49781865721164,51.67091113142707 L29.900102514291213,52.01907217199165 L29.29841230972867,52.36031928979368 L28.692828014954266,52.694607129233404 L28.083430118966852,53.02189125967788 L27.47029961763598,53.34212818136626 L26.853518002936667,53.655275331191405 L26.23316725211818,53.96129108835699 L25.60932981680829,54.26013477990941 L24.98208861205459,54.55176668614365 L24.351527005304092,54.836148045882524 L23.717728805322785,55.1132410616284 L23.080778251056465,55.38300890458697 L22.440760000434466,55.64541571956221 L21.797759119117643,55.90042662972192 L21.151861069192194,56.14800774123328 L20.50315169781077,56.388126147767665 L19.851717225782437,56.62074993487435 L19.19764423611292,56.84584818422222 L18.541019662496794,57.06339097770923 L17.881930777762967,57.27334940143883 L17.22046518227517,57.475695549562936 L16.55671079228884,57.670402527990966 L15.8907558282661,57.85744445796433 L15.222688803150218,58.036796479496054 L14.552598510601282,58.208434754674904 L13.880574013194474,58.37233647083377 L13.206704630582676,58.52847984358167 L12.531079927624875,58.67684411969918 L11.853789702481963,58.817409579896776 L11.17492397468157,58.95015754143569 L10.494572973153439,59.07507036061114 L9.812827124236975,59.19213143509735 L9.129777039662574,59.301325206154125 L8.4455135045083,59.40263716069488 L7.760127465133508,59.496053833215534 L7.073710017091061,59.58156280758424 L6.38635239301969,59.65915271869164 L5.69814595051815,59.72881325396139 L5.009182160002761,59.79053515472086 L4.319552592549956,59.84431021743166 L3.6293489077254493,59.89013129478005 L2.9386628414016442,59.92799229662683 L2.2475861935648993,59.95788819081687 L1.5562108161142705,59.979815003847825 L0.8646286006533576,59.99376982139839 L0.17293146627686973,59.999750788715545 L-0.5187886526464609,59.99775711086111 L-1.210439818692996,59.987789052817426 L-1.901930103603714,59.96984793945209 L-2.593167600502515,59.94393615534189 L-3.2840604361116843,59.91005714445585 L-3.9745167829628874,59.86821540969754 L-4.664444871602082,59.81841651230652 L-5.353753002786712,59.760667071119215 L-6.042349559673578,59.69497476168921 L-6.730143019995749,59.6213483152671 L-7.417041968226903,59.53979751763992 L-8.102955107731491,59.450333207830624 L-8.787791272899085,59.35296727665735 L-9.471459441261324,59.24771266515309 L-10.153868745589827,59.13458336284558 L-10.834928485973473,59.01359440589804 L-11.514548141873446,58.8847618751106 L-12.192637384154436,58.74810289378304 L-12.86910608709041,58.60363562543891 L-13.543864340343328,58.45137927141135 L-14.216822460913251,58.29135406829106 L-14.887891005058226,58.1235812852366 L-15.556980780182366,57.9480832211475 L-16.224002856690554,57.764883201700464 L-16.88886857980821,57.574005576249135 L-17.55148958136447,57.3754757145878 L-18.211777791537365,57.16932000357942 L-18.86964545055926,56.95556584364857 L-19.525005120381138,56.734241645139576 L-20.177769696294106,56.50537682454047 L-20.827852418506566,56.26900180057319 L-21.47516688367562,56.02514799015065 L-22.119627056391018,55.773847804200976 L-22.76114728061023,55.515134643359815 L-23.399642291043136,55.24904289353097 L-24.035027224484722,54.97560792131614 L-24.66721763109436,54.69486606931428 L-25.29612948562015,54.406854651291304 L-25.921679198566856,54.11161194722059 L-26.543783627305828,53.8091771981952 L-27.162360087125663,53.49959060121229 L-27.777326362221885,53.18289330383044 L-28.388600716624403,52.85912739870071 L-28.996101905061124,52.52833591797203 L-29.599749183756344,52.19056282757175 L-30.199462321162557,51.84585302136211 L-30.795161608624085,51.49425231517324 L-31.38676787097132,51.13580744071381 L-31.974202477043924,50.77056603935983 L-32.55738735014186,50.39857665582256 L-33.13624497840264,50.01988873169637 L-33.71069842510353,49.63455259888742 L-34.28067133888733,49.24261947292394 L-34.84608796391029,48.84414144614916 L-35.406873149910986,48.43917148079756 L-35.96295236219854,48.027763401955724 L-36.51425169155925,47.60997189040823 L-37.06069786407983,47.18585247537008 L-37.60221825088642,46.75546152710615 L-38.1387408777978,46.318856249439 L-38.670194434891506,45.87609467214581 L-39.19650828598175,45.427235643245595 L-39.71761247800781,44.9723388211776 L-40.23343775033152,44.511464666872044 L-40.743915543942826,44.04467443571417 L-41.24897801057207,43.57203016940273 L-41.74855802170773,43.093594687703906 L-42.24258917751864,42.60943158010189 L-42.7310058156792,42.11960519734711 L-43.21374302009669,41.624180642903276 L-43.69073662953936,41.123223764294394 L-44.16192324616412,40.616801144352905 L-44.62724024394293,40.10498009237008 L-45.086625776986395,39.58782863514978 L-45.54001878776386,39.06541550796707 L-45.987359015218644,38.53781014543234 L-46.42858700277737,38.00508267226283 L-46.86364410625244,37.46730389396214 L-47.292472501636524,36.924545287409465 L-47.715015192788016,36.37687899135944 L-48.13121601900645,35.824377796854144 L-48.541019662496915,35.26711513754828 L-48.94437165572239,34.7051650799491 L-49.34121838864312,34.13860231357203 L-49.731507115841985,33.56750214101367 L-50.11518596353496,32.9919404679432 L-50.49220393646573,32.41199379301363 L-50.86251092468354,31.827739197694303 L-51.22605771020338,31.239254336025894 L-51.58279597354757,30.64661742429928 L-51.932678300168035,30.049907230659727 L-52.27565818674817,29.44920306463774 L-52.61169004738369,28.844584766607884 L-52.94072921964152,28.23613269717712 L-53.262731970495885,27.62392772650397 L-53.577655502141006,27.008051223549963 L-53.88545795767934,26.388585045264765 L-54.18609842668487,25.765611525706486 L-54.479536950640544,25.139213465098532 L-54.76573452824923,24.509474118824524 L-55.04465312061744,23.876477186362735 L-55.316255656311085,23.240306800161466 L-55.580506036282735,22.60104751445688 L-55.83736913866957,21.95878429403483 L-56.086810823461455,21.31360250293803 L-56.32879793703858,20.665587893120236 L-56.5632983165779,20.01482659304884 L-56.79028079432797,19.36140509625743 L-57.009715201751476,18.705410249849788 L-57.221572373535004,18.046929242956967 L-57.42582415146538,17.38604959514885 L-57.622443388172265,16.722859144801824 L-57.81140395073635,16.05744603742404 L-57.99268072416269,15.389898713939903 L-58.166249614718765,14.720305898935273 L-58.33208755313685,14.048756588864945 L-58.49017249768015,13.375340040224033 L-58.64048343707238,12.700145757684767 L-58.78300039329047,12.023263482200303 L-58.91770442421978,11.344783179077147 L-59.044577626171794,10.664795026017742 L-59.16360313626367,9.983389401134836 L-59.274765134659546,9.300656870939205 L-59.37804884667316,8.616688178302342 L-59.47344054473158,7.931574230395699 L-59.56092755019973,7.2454060866081065 L-59.64049823506556,6.5582749464429435 L-59.712142023485505,5.870272137396692 L-59.77584939319016,5.1814891028204855 L-59.83161187674988,4.4920173897662465 L-59.87942206270021,3.8019486368190587 L-59.919273596526956,3.111374561917351 L-59.951161181510756,2.420386950162556 L-59.97508057943107,1.7290776416198286 L-59.99102861112951,1.0375385191114634 L-59.99900315693237,0.34586149600462945 L-59.99900315693237,-0.3458614960049567 L-59.9910286111295,-1.0375385191117907 L-59.97508057943106,-1.7290776416201556 L-59.95116118151074,-2.4203869501628827 L-59.91927359652694,-3.111374561917678 L-59.879422062700186,-3.801948636819385 L-59.831611876749854,-4.492017389766574 L-59.77584939319013,-5.181489102820812 L-59.71214202348547,-5.870272137397019 L-59.64049823506552,-6.5582749464432695 L-59.560927550199686,-7.245406086608433 L-59.47344054473153,-7.9315742303960235 L-59.37804884667312,-8.616688178302665 L-59.27476513465949,-9.30065687093953 L-59.16360313626361,-9.983389401135161 L-59.04457762617173,-10.664795026018066 L-58.91770442421972,-11.344783179077469 L-58.78300039329041,-12.023263482200624 L-58.64048343707232,-12.700145757685087 L-58.49017249768007,-13.375340040224353 L-58.33208755313677,-14.048756588865265 L-58.16624961471868,-14.72030589893559 L-57.9926807241626,-15.389898713940223 L-57.81140395073626,-16.057446037424352 L-57.62244338817217,-16.722859144802133 L-57.42582415146528,-17.38604959514916 L-57.221572373534904,-18.046929242957276 L-57.009715201751376,-18.705410249850093 L-56.79028079432786,-19.361405096257734 L-56.563298316577786,-20.014826593049147 L-56.328797937038466,-20.66558789312054 L-56.086810823461335,-21.31360250293833 L-55.837369138669445,-21.958784294035134 L-55.58050603628261,-22.601047514457186 L-55.31625565631096,-23.240306800161765 L-55.044653120617305,-23.876477186363037 L-54.76573452824909,-24.50947411882482 L-54.47953695064041,-25.139213465098823 L-54.18609842668473,-25.76561152570678 L-53.8854579576792,-26.388585045265057 L-53.577655502140864,-27.00805122355025 L-53.26273197049573,-27.623927726504256 L-52.940729219641355,-28.236132697177403 L-52.611690047383526,-28.84458476660817 L-52.275658186748004,-29.449203064638024 L-51.93267830016787,-30.049907230660008 L-51.5827959735474,-30.646617424299553 L-51.2260577102032,-31.239254336026175 L-50.86251092468337,-31.827739197694584 L-50.49220393646555,-32.411993793013906 L-50.11518596353477,-32.99194046794347 L-49.7315071158418,-33.56750214101395 L-49.34121838864293,-34.1386023135723 L-48.94437165572219,-34.70516507994937 L-48.54101966249672,-35.26711513754856 L-48.13121601900625,-35.824377796854414 L-47.71501519278782,-36.37687899135971 L-47.29247250163632,-36.92454528740973 L-46.86364410625223,-37.467303893962395 L-46.42858700277716,-38.00508267226308 L-45.98735901521843,-38.537810145432594 L-45.54001878776365,-39.065415507967316 L-45.086625776986175,-39.58782863515004 L-44.62724024394271,-40.10498009237032 L-44.1619232461639,-40.616801144353154 L-43.69073662953913,-41.123223764294636 L-43.21374302009646,-41.62418064290351 L-42.73100581567896,-42.11960519734735 L-42.242589177518404,-42.609431580102125 L-41.7485580217075,-43.09359468770414 L-41.248978010571825,-43.57203016940295 L-40.743915543942585,-44.0446744357144 L-40.23343775033128,-44.51146466687226 L-39.71761247800756,-44.972338821177814 L-39.196508285981494,-45.427235643245815 L-38.67019443489127,-45.87609467214601 L-38.13874087779759,-46.31885624943918 L-37.60221825088623,-46.755461527106306 L-37.06069786407964,-47.18585247537022 L-36.51425169155909,-47.60997189040835 L-35.962952362198415,-48.02776340195582 L-35.406873149910865,-48.43917148079765 L-34.8460879639102,-48.84414144614922 L-34.28067133888725,-49.242619472924 L-33.71069842510347,-49.63455259888746 L-33.1362449784026,-50.01988873169639 L-32.557387350141845,-50.398576655822566 L-31.97420247704394,-50.77056603935982 L-31.386767870971354,-51.13580744071379 L-30.79516160862415,-51.494252315173206 L-30.199462321162635,-51.84585302136207 L-29.59974918375645,-52.1905628275717 L-28.996101905061252,-52.52833591797196 L-28.38860071662456,-52.85912739870062 L-27.777326362222063,-53.18289330383035 L-27.16236008712586,-53.499590601212184 L-26.543783627306063,-53.80917719819509 L-25.921679198567112,-54.11161194722047 L-25.296129485620433,-54.40685465129118 L-24.66721763109465,-54.69486606931415 L-24.03502722448504,-54.975607921316 L-23.399642291043477,-55.24904289353083 L-22.7611472806106,-55.515134643359666 L-22.119627056391415,-55.77384780420082 L-21.475166883676046,-56.02514799015049 L-20.82785241850702,-56.26900180057303 L-20.177769696294583,-56.5053768245403 L-19.52500512038165,-56.734241645139406 L-18.869645450559794,-56.955565843648394 L-18.211777791537926,-57.16932000357924 L-17.55148958136506,-57.375475714587616 L-16.888868579808822,-57.57400557624896 L-16.2240028566912,-57.76488320170028 L-15.556980780183036,-57.94808322114732 L-14.887891005058924,-58.12358128523642 L-14.216822460913976,-58.29135406829088 L-13.543864340344081,-58.45137927141118 L-12.869106087091193,-58.603635625438734 L-12.192637384155248,-58.74810289378287 L-11.514548141874284,-58.884761875110435 L-10.834928485974341,-59.01359440589788 L-10.153868745590723,-59.13458336284543 L-9.471459441262247,-59.24771266515294 L-8.787791272900035,-59.35296727665721 L-8.102955107732468,-59.45033320783049 L-7.417041968227909,-59.53979751763979 L-6.730143019996783,-59.62134831526698 L-6.042349559674641,-59.6949747616891 L-5.353753002787802,-59.760667071119116 L-4.664444871603199,-59.818416512306435 L-3.974516782964032,-59.86821540969747 L-3.2840604361128563,-59.91005714445579 L-2.5931676005037145,-59.94393615534183 L-1.9019301036049405,-59.96984793945205 L-1.2104398186942495,-59.9877890528174 L-0.5187886526477412,-59.9977571108611 L0.17293146627556275,-59.999750788715545 L0.8646286006520241,-59.99376982139841 L1.5562108161129107,-59.97981500384787 L2.2475861935635133,-59.95788819081692 L2.938662841400232,-59.927992296626904 L3.6293489077240118,-59.89013129478013 L4.319552592548492,-59.84431021743176 L5.009182160001273,-59.79053515472098 L5.698145950516636,-59.72881325396153 L6.386352393018152,-59.6591527186918 L7.073710017089498,-59.58156280758443 L7.760127465131921,-59.49605383321574 L8.445513504506689,-59.40263716069511 L9.12977703966094,-59.301325206154374 L9.812827124235316,-59.19213143509762 L10.494572973151756,-59.07507036061145 L11.174923974679867,-58.95015754143601 L11.853789702480237,-58.817409579897124 L12.531079927623127,-58.67684411969956 L13.206704630580909,-58.52847984358207 L13.880574013192684,-58.3723364708342 L14.552598510599472,-58.20843475467536 L15.22268880314839,-58.03679647949653 L15.890755828264247,-57.85744445796483 L16.55671079228697,-57.6704025279915 L17.22046518227328,-57.475695549563504 L17.881930777761063,-57.273349401439425 L18.541019662494868,-57.06339097770986 L19.197644236110975,-56.84584818422288 L19.85171722578047,-56.62074993487503 L20.503151697808796,-56.38812614776838 L21.151861069190197,-56.14800774123403 L21.797759119115632,-55.90042662972271 L22.440760000432434,-55.645415719563026 L23.08077825105442,-55.38300890458782 L23.717728805320725,-55.11324106162928 L24.351527005302025,-54.83614804588344 L24.982088612052507,-54.55176668614461 L25.609329816806195,-54.2601347799104 L26.23316725211606,-53.96129108835801 L26.85351800293455,-53.65527533119246 L27.47029961763384,-53.34212818136736 L28.083430118964706,-53.02189125967902 L28.692828014952113,-52.694607129234576 L29.29841230972651,-52.36031928979489 L29.90010251428904,-52.01907217199291 L30.497818657209464,-51.670911131428355 L31.091481295255257,-51.31588244263946 L31.68101152395053,-50.95403329295252 L32.266330988063295,-50.585411776210215 L32.84736189201979,-50.21006688637934 L33.42402701024438,-49.828048511038986 L33.9962496974237,-49.439407424749945 L34.563953898693704,-49.044195282306106 L35.127064159748194,-48.642464611869066 L35.685505636867575,-48.23426880798643 L36.239204106866396,-47.819662124495174 L36.788085976958484,-47.39869966731061 L37.33207829453825,-46.97143738710225 L37.8711087568769,-46.53793207185728 L38.4051057207323,-46.098241339332844 L38.93399821187116,-45.652423629397965 L39.45771593450234,-45.20053819626621 L39.97618928061991,-44.74264510062017 L40.48934933925487,-44.27880520162871 L40.99712790563422,-43.80908014885805 L41.49945749024608,-43.33353237407792 L41.99627132780987,-42.852225082963606 L42.48750338615014,-42.36522224669524 L42.97308837497301,-41.872588593455276 L43.452961754543956,-41.374389599825406 L43.927059744265925,-40.870691482083984 L44.395319331156436,-40.36156118740513 L44.85767827822277,-39.84706638496066 L45.314075132733926,-39.327275456926145 L45.764449234388415,-38.80225748939211 L46.20874072337669,-38.27208226318172 L46.64689054833719,-37.73682024457613 L47.078840474204945,-37.19654257594868 L47.504533089951636,-36.65132106630934 L47.92391181621621,-36.10122818176042 L48.33692091282492,-35.54633703586502 L48.7435054861998,-34.98672137992943 L49.143611496654636,-34.42245559320071 L49.53718576557748,-33.85361467298092 L49.924175982498674,-33.280274224659024 L50.30453071204349,-32.70251045166218 L50.6781994007685,-32.120400145327395 L51.045132383880684,-31.534020674695064 L51.40528089183845,-30.943449976225814 L51.75859705683363,-30.34876654344182 L52.1050339191537,-29.750049416494136 L52.44454543342321,-29.147378171657387 L52.777086474723774,-28.540832910753146 L53.10261284459165,-27.930494250503525 L53.421081276892245,-27.316443311816304 L53.73244944357064,-26.69876170900302 L54.036675960277506,-26.077531538931517 L54.33372039186951,-25.452835370114354 L54.62354325778363,-24.8247562317345 L54.90610603728457,-24.193377602609825 L55.1813711745846,-23.558783400097813 L55.44930208383511,-22.92105796894201 L55.709863153989325,-22.280286070061646 L55.96301975353541,-21.63655286928595 L56.20873823509937,-20.989943926034652 L56.44698593991718,-20.340545181946165 L56.677731202175494,-19.688442949454974 L56.900943353220406,-19.03372390031973 L57.116592725633666,-18.376475054103604 L57.324650657175766,-17.7167837666084 L57.52508949459553,-17.054737718263976 L57.717882597305525,-16.39042490247452 L57.903004340922884,-15.723933613923263 L58.08043012067512,-15.05535243683706 L58.25013635467029,-14.384770233212603 L58.4121004870314,-13.712276131005625 L58.56630099089428,-13.037959512284795 L58.71271737126871,-12.361910001351827 L58.85133016776254,-11.684217452829403 L58.982120957168114,-11.004971939718477 L59.10507235591093,-10.32426374142655 L59.22016802236014,-9.642183331768516 L59.32739265900053,-8.958821366941683 L59.42673201446573,-8.274268673476515 L59.51817288543237,-7.588616236164782 L59.60170311837497,-6.901955185966642 L59.677311611181274,-6.214376787898308 L59.74498831462784,-5.525972428901896 L59.804724233715696,-4.836833605699061 L59.856511428865886,-4.147051912630063 L59.90034301697473,-3.45671902947983 L59.93621317232865,-2.7659267092926823 L59.96411712737849,-2.074766766177318 L59.98405117337319,-1.3833310631036784 L59.996012660852664,-0.6917114996933195 L60.00000000000001,-4.915243732397385e-12 " />
			<path d="M-19.999999999999993,-19.999999999999996 L20.000000000000007,-19.999999999999996 " />
			<path d="M20.000000000000007,-19.999999999999996 L20.000000000000007,20.000000000000004 " />
			<path d="M-19.999999999999993,20.000000000000004 L20.000000000000007,20.000000000000004 " />
			<path d="M-19.999999999999993,-19.999999999999996 L-19.999999999999993,20.000000000000004 " />

        </g>
        </g>
    </svg>
    