<?xml version="1.0" encoding="UTF-8" standalone="no"?>
    <svg
    xmlns:svg="http://www.w3.org/2000/svg"
    xmlns="http://www.w3.org/2000/svg"
    width="240"
    height="240"
    >
        <g transform="scale(100, -100)   translate(1.1999999999999995,-1.2)" stroke-width="0.01"  fill="none">
        <!-- hidden lines -->
        <g  stroke="rgb(160,160,160)" fill="none" stroke-dasharray="0.01,0.01" >
    
        </g>

        <!-- solid lines -->
        <g  stroke="rgb(0,0,0)" fill="none">
    			<path d="M1.0000000000000004,4.38017677684144e-17 L0.9960868220749453,0.08838010459734252 L0.984377914222726,0.17606851504603624 L0.9649649145228104,0.2623789506419792 L0.9379997560189679,0.3466359152026194 L0.9036934776372043,0.42817998374045524 L0.8623145725200283,0.5063729633576438 L0.8141868867035748,0.5806028879707206 L0.7596870845832855,0.6502888077749368 L0.6992417010043146,0.7148853359641624 L0.6333238030480476,0.7738869171221067 L0.5624492876407813,0.8268317838789085 L0.4871728439607971,0.8733055708668926 L0.4080836122434655,0.9129445576913886 L0.32580057296011816,0.9454385155359702 L0.24096770245661508,0.9705331351235672 L0.15424893296530304,0.988032017031364 L0.0663229564351047,0.9977982087825711 L-0.022122087153186108,0.999755276685243 L-0.11039399541526893,0.9938879040295507 L-0.1978019209855164,0.980242010961803 L-0.28366177833429584,0.9589243950970403 L-0.3673015976647559,0.9301018956828964 L-0.4480667839875776,0.8940000878562759 L-0.5253252402142982,0.8509015172120623 L-0.5984723141740569,0.8011434885007482 L-0.6669355308366504,0.7451154257614284 L-0.7301790727058339,0.6832558245506933 L-0.7877079733177181,0.6160488201203638 L-0.8390719910244485,0.5440203984027318 L-0.883869132745561,0.46773427945748114 L-0.9217488001088784,0.38778750559790126 L-0.9524145333581313,0.30480576872528553 L-0.9756263315525067,0.21943851344145926 L-0.9912025308994143,0.13235385426422092 L-0.9990212265199733,0.04423334672537712 L-0.999021226519973,-0.04423334672538078 L-0.9912025308994139,-0.13235385426422452 L-0.9756263315525059,-0.2194385134414628 L-0.9524145333581301,-0.304805768725289 L-0.9217488001088768,-0.3877875055979046 L-0.8838691327455593,-0.4677342794574843 L-0.8390719910244465,-0.5440203984027349 L-0.7877079733177158,-0.6160488201203668 L-0.7301790727058314,-0.683255824550696 L-0.6669355308366476,-0.745115425761431 L-0.5984723141740542,-0.8011434885007502 L-0.5253252402142957,-0.8509015172120638 L-0.44806678398757543,-0.894000087856277 L-0.36730159766475384,-0.9301018956828971 L-0.2836617783342939,-0.9589243950970409 L-0.1978019209855147,-0.9802420109618033 L-0.11039399541526741,-0.993887904029551 L-0.022122087153184797,-0.999755276685243 L0.06632295643510579,-0.997798208782571 L0.1542489329653039,-0.9880320170313639 L0.2409677024566157,-0.9705331351235671 L0.32580057296011855,-0.9454385155359701 L0.40808361224346573,-0.9129445576913886 L0.4871728439607971,-0.8733055708668926 L0.562449287640781,-0.8268317838789088 L0.6333238030480471,-0.773886917122107 L0.699241701004314,-0.7148853359641629 L0.7596870845832848,-0.6502888077749376 L0.814186886703574,-0.5806028879707216 L0.8623145725200275,-0.506372963357645 L0.9036934776372036,-0.4281799837404567 L0.9379997560189672,-0.3466359152026211 L0.9649649145228099,-0.26237895064198113 L0.9843779142227256,-0.1760685150460385 L0.996086822074945,-0.08838010459734509 L1.0000000000000004,-2.865662851161432e-15 " />

        </g>
        </g>
    </svg>
    