<?xml version="1.0" encoding="UTF-8" standalone="no"?>
    <svg
    xmlns:svg="http://www.w3.org/2000/svg"
    xmlns="http://www.w3.org/2000/svg"
    width="440"
    height="311"
    >
        <g transform="scale(100, -100)   translate(2.2,-1.6331205998852025)" stroke-width="0.01"  fill="none">
        <!-- hidden lines -->
        <g  stroke="rgb(160,160,160)" fill="none" stroke-dasharray="0.01,0.01" >
    			<path d="M0.8944271909999161,-0.2918174357617793 L0.6763292193416804,-0.2674716570861868 L0.44871609575612875,-0.25003413204344194 L0.21479006759503963,-0.2397501859799488 L-0.022157802691449062,-0.23676450184952336 L-0.2587939389097426,-0.2411190846954131 L-0.4917891505957622,-0.25275267068903606 L-0.7178654707858928,-0.2715015890395656 L-0.8273100627382391,-0.2834656864067275 L-0.9338422731338831,-0.29710206464831274 L-1.0370870763823905,-0.31236271958997425 L-1.1366810195604267,-0.32919392911228285 L-1.2322735018759376,-0.3475364422688311 L-1.3235280088889385,-0.36732568786747855 L-1.4101232971440911,-0.3884920017804715 L-1.4917545250447921,-0.4109608721832354 L-1.5681343259877598,-0.43465320185852563 L-1.6389938199803662,-0.4594855866425475 L-1.704083560179503,-0.4853706090328299 L-1.7631744110198917,-0.5122171459242642 L-1.8160583548405507,-0.5399306893899856 L-1.8625492241698558,-0.5684136793778493 L-1.9024833570913284,-0.5975658471513119 L-1.935720173383065,-0.6272845682657002 L-1.9621426694026198,-0.6574652238372839 L-1.9816578299752043,-0.6880015688333763 " />
			<path d="M1.9816578299752057,-0.6880015688333786 L1.9616044288696173,-0.6567564011444488 L1.9343196091415924,-0.625886326601993 L1.8999039557768636,-0.595505147167628 L1.8584843414481178,-0.565724862500154 L1.810213458801223,-0.5366552570708719 L1.7552692575566007,-0.5084034954451522 L1.6938542885008558,-0.4810737272222362 L1.62619495678703,-0.4547667030896556 L1.5525406872961731,-0.4295794034076777 L1.4731630051371087,-0.40560468069299144 L1.3883545346741193,-0.38293091731961443 L1.2984279207726117,-0.3616416996988974 L1.203714676239577,-0.3418155101397574 L1.104563959707728,-0.3235254375250904 L1.0013412884686264,-0.30683890787094975 L0.89442719099992,-0.2918174357617799 " />

        </g>

        <!-- solid lines -->
        <g  stroke="rgb(0,0,0)" fill="none">
    			<path d="M0.4472135954999579,1.4055781215897865 L0.33816460967084017,1.4177510109275828 L0.22435804787806432,1.426469773448955 L0.10739503379751979,1.4316117464807017 L-0.01107890134572453,1.4331045885459144 L-0.12939696945487128,1.4309272971229696 L-0.24589457529788106,1.425110504126158 L-0.35893273539294634,1.4157360449508933 L-0.46692113656694145,1.4029358071465197 L-0.5683405097802132,1.3868898749145346 L-0.6617640044444691,1.367823995536937 L-0.745877262522396,1.3460064033790584 L-0.8194969099901829,1.3217440461494023 L-0.8815872055099456,1.295378266508544 L-0.9312746120849277,1.2672799997817514 L-0.951241678545664,1.2527039158950202 L-0.9678600866915322,1.2378445553378261 L-0.9810713347013097,1.2227542275520342 L-0.990828914987602,1.207486055053988 " />
			<path d="M-0.9908289149876025,1.207486055053987 L-0.9966223263671639,1.1936588552524754 L-0.9995826795923818,1.1797707533016748 L-0.9997015593863532,1.1658612283497432 L-0.9969786278142746,1.1519698204431406 L-0.991421625244077,1.1381360181277327 L-0.9830463483431925,1.1243991461962903 L-0.9718766051740045,1.1107982539014851 L-0.9579441475156276,1.0973720039521513 L-0.9219572505496904,1.0711954911877306 L-0.8754945606569645,1.0461670400530574 L-0.8190840128559638,1.0225710377810628 L-0.7533665752797528,1.0006755953210935 L-0.6790889661382237,0.9807295009126411 L-0.597095169088969,0.96295939321449 L-0.5083168434238458,0.9475671861097639 L-0.4137627380360379,0.9347277744476754 L-0.31450722945203824,0.9245870467906212 L-0.21167811416582713,0.9172602277468995 L-0.10644379398555724,0.912830568724391 L-1.8369701987210292e-16,0.9113484019815905 L0.10644379398555688,0.912830568724391 L0.21167811416582677,0.9172602277468995 L0.3145072294520379,0.9245870467906212 L0.4137627380360376,0.9347277744476753 L0.5083168434238455,0.9475671861097638 L0.597095169088968,0.9629593932144898 L0.6790889661382227,0.9807295009126409 L0.7533665752797523,1.0006755953210933 L0.8190840128559636,1.0225710377810628 L0.8754945606569643,1.0461670400530572 L0.9219572505496902,1.0711954911877306 L0.9579441475156276,1.097372003952151 L0.9718766051740043,1.110798253901485 L0.9830463483431924,1.1243991461962903 L0.9914216252440771,1.138136018127733 L0.9969786278142746,1.1519698204431406 L0.9997015593863532,1.165861228349743 L0.9995826795923818,1.1797707533016748 L0.996622326367164,1.1936588552524752 L0.9908289149876038,1.2074860550539845 " />
			<path d="M0.9908289149876026,1.2074860550539868 L0.9808022144348084,1.2231086388984518 L0.967159804570796,1.2385436761696798 L0.9499519778884316,1.253734265886862 L0.9292421707240587,1.268624408220599 L0.8776346287783001,1.2972850917481 L0.8130974783935148,1.3241034879258482 L0.7365815025685543,1.3486844991241804 L0.6492139603863057,1.3706659896212274 L0.5522819798538638,1.389724120708131 L0.44721359549995987,1.4055781215897862 " />
			<path d="M-1.9816578299752055,-0.6880015688333785 L-1.9932446527343282,-0.7156559684364016 L-1.999165359184764,-0.7434321723380027 L-1.9994031187727068,-0.771251222241866 L-1.9939572556285496,-0.7990340380550711 L-1.9828432504881544,-0.8267016426858869 L-1.9660926966863854,-0.8541753865487716 L-1.9437532103480095,-0.8813771711383823 L-1.9158882950312557,-0.90822967103705 L-1.8825771612088076,-0.9346565537246316 L-1.8439145010993812,-0.9605826965658911 L-1.8000102194899696,-0.9859344003585893 L-1.7509891213139295,-1.010639598835238 L-1.6969905568730232,-1.0346280635229772 L-1.638168025711928,-1.0578316033792268 L-1.5746887402712608,-1.0801842586356167 L-1.506733150559506,-1.1016224882991654 L-1.4344944311950454,-1.1220853507777007 L-1.3581779322764476,-1.1415146771160702 L-1.1941903381779382,-1.1770548925123725 L-1.0166336868476917,-1.2078393067218247 L-0.827525476072076,-1.2335181300460016 L-0.6290144589040766,-1.25379958536011 L-0.42335622833165437,-1.2684532234475534 L-0.21288758797111454,-1.2773125414925706 L-3.6739403974420594e-16,-1.2802768749781714 L0.21288758797111382,-1.2773125414925706 L0.42335622833165365,-1.2684532234475534 L0.6290144589040759,-1.25379958536011 L0.8275254760720754,-1.2335181300460019 L1.0166336868476913,-1.207839306721825 L1.1941903381779362,-1.177054892512373 L1.3581779322764456,-1.1415146771160707 L1.4344944311950447,-1.1220853507777009 L1.506733150559505,-1.1016224882991659 L1.5746887402712593,-1.0801842586356172 L1.6381680257119275,-1.057831603379227 L1.6969905568730235,-1.0346280635229772 L1.750989121313929,-1.0106395988352381 L1.800010219489969,-0.9859344003585896 L1.843914501099381,-0.9605826965658913 L1.8825771612088076,-0.9346565537246316 L1.9158882950312557,-0.9082296710370501 L1.943753210348009,-0.8813771711383827 L1.9660926966863852,-0.8541753865487718 L1.9828432504881546,-0.8267016426858866 L1.9939572556285496,-0.799034038055071 L1.9994031187727068,-0.7712512222418663 L1.999165359184764,-0.743432172338003 L1.9932446527343284,-0.715655968436402 L1.9816578299752081,-0.6880015688333834 " />
			<path d="M0.990828914987603,1.2074860550539865 L1.9816578299752055,-0.6880015688333785 " />
			<path d="M-0.9908289149876031,1.2074860550539865 L-1.9816578299752061,-0.6880015688333787 " />

        </g>
        </g>
    </svg>
    