<?xml version='1.0' encoding='utf-8'?>
<svg width="100.09mm" height="67.924925mm" viewBox="-2.0018 -1.434921 4.0036 2.716997" version="1.1" xmlns="http://www.w3.org/2000/svg">
  <g transform="scale(1,-1)" stroke-linecap="round">
    <g fill="none" stroke="rgb(0,0,0)" stroke-width="0.0036" id="Visible">
      <path d="M 0.447214,1.405578 A 0.9999999999999998,0.260886098951806 0.0 0,1 -0.990829,1.207486" />
      <path d="M -0.990829,1.207486 A 0.9999999999999998,0.260886098951806 0.0 1,1 0.990829,1.207486" />
      <path d="M 0.990829,1.207486 A 0.9999999999999998,0.260886098951806 0.0 0,1 0.447214,1.405578" />
      <path d="M -1.981658,-0.688002 A 2.0,0.5217721979036121 0.0 1,1 1.981658,-0.688002" />
      <line x1="0.990829" y1="1.207486" x2="1.981658" y2="-0.688002" />
      <line x1="-0.990829" y1="1.207486" x2="-1.981658" y2="-0.688002" />
    </g>
    <g fill="none" stroke="rgb(99,99,99)" stroke-width="0.0036" id="Hidden" stroke-dasharray="9.1e-05 0.010846">
      <path d="M 0.894427,-0.291817 A 2.0,0.5217721979036121 0.0 0,1 -1.981658,-0.688002" />
      <path d="M 1.981658,-0.688002 A 2.0,0.5217721979036121 0.0 0,1 0.894427,-0.291817" />
    </g>
  </g>
</svg>