<?xml version="1.0" encoding="UTF-8" standalone="no"?>
    <svg
    xmlns:svg="http://www.w3.org/2000/svg"
    xmlns="http://www.w3.org/2000/svg"
    width="382"
    height="552"
    >
        <g transform="scale(5, -5)   translate(40.40767004398752,-57.57348031164689)" stroke-width="0.2"  fill="none">
        <!-- hidden lines -->
        <g  stroke="rgb(160,160,160)" fill="none" stroke-dasharray="0.2,0.2" >
    
        </g>

        <!-- solid lines -->
        <g  stroke="rgb(0,0,0)" fill="none">
    			<path d="M-30.183707330037436,6.434627882601269 L-30.204815155685676,6.378807121989134 L-30.228755754789496,6.32500784925713 L-30.255432407257707,6.273447413626203 L-30.284737339335454,6.224334119408785 L-30.316552159010467,6.177866384458761 L-30.350748334317174,6.134231938562753 L-30.38718771260621,6.093607065011223 L-30.425723078681514,6.056155888413464 L-30.46619874955018,6.022029711633688 L-30.5084512033822,5.99136640452701 L-30.552309740139133,5.964289846944824 L-30.597597171202775,5.940909428259836 L-30.6441305352177,5.921319605432681 L-30.69172183725566,5.905599521405514 L-30.740178808315687,5.893812685364296 L-30.78930568209138,5.886006716161491 " />
			<path d="M-30.78930568209139,5.886006716161489 L-30.82757230645913,5.882723478081887 L-30.866027860833398,5.881840779100704 L-30.9045797024154,5.883360745717103 L-30.943134956442023,5.88727971619837 L-30.981600739929274,5.893588249401357 L-31.019884385435525,5.902271147517013 L-31.057893664305503,5.913307492683247 L-31.095537008857193,5.926670697377883 L-31.132723732976395,5.942328568470333 L-31.16936425058754,5.960243384777669 L-31.20537029147437,5.980371987938253 L-31.240655113930636,6.002665886384014 L-31.275133713728447,6.027071372160881 L-31.30872302890093,6.053529650315951 L-31.34134213984575,6.081976980539674 L-31.37291246426755,6.112344830721852 L-31.403357946489564,6.144560042051485 L-31.43260524067841,6.1785450052627615 L-31.46058388754062,6.2142178476025745 L-31.48722648406527,6.251492630069154 L-31.536250161995316,6.3304851796369155 L-31.579204149651005,6.414761912531988 L-31.61567477665018,6.503511197746245 L-31.645310810917966,6.595878331147777 L-31.66782684124366,6.690973766748916 L-31.683006025946707,6.787881683520372 L-31.690702181180633,6.885668805248379 L-31.690841188763393,6.983393388494816 L-31.68342170997597,7.080114292101332 L-31.668515198454987,7.174900040893169 L-31.646265212055123,7.266837796294301 L-31.616886030308486,7.355042147461928 L-31.599608797313213,7.397477210529315 L-31.58066059079559,7.438663638276901 L-31.560087058644786,7.478502208992734 L-31.537937764301784,7.516896948070515 L-31.5142660673567,7.553755359220822 L-31.489128995000875,7.58898864730278 L-31.46258710464336,7.622511932239328 L-31.434704338022822,7.654244453500759 L-31.40554786716629,7.684109764663915 L-31.375187932565865,7.712035917578311 L-31.343697673963213,7.737955635695536 L-31.31115295414953,7.7618064761443435 L-31.27763217620543,7.783530980161008 L-31.24321609462105,7.8030768115125095 L-31.20798762075142,7.820396882579112 L-31.172031623075746,7.835449467792555 L-31.1354347227418,7.848198304156608 L-31.09828508488799,7.858612678607806 L-31.060672206245837,7.866667502005904 L-31.022686699534493,7.872343369575815 " />
			<path d="M-31.02268669953449,7.872343369575816 L-30.97088268730134,7.876211900300106 L-30.918792793683608,7.875687617531432 L-30.86664651991369,7.870772831190841 L-30.81467361562754,7.8614891951816865 L-30.763103066617923,7.847877611985377 L-30.712162085953086,7.829998052450413 L-30.6620751129058,7.807929291568699 L-30.613062824103395,7.781768561403274 L-30.565341161255514,7.751631122696607 L-30.5191203797433,7.717649757046899 L-30.474604122261766,7.679974181889791 L-30.431988521596843,7.6387703908630025 L-30.39146133649006,7.594219922460156 L-30.35320112439819,7.546519060196008 L-30.31737645479253,7.495877967807051 L-30.284145166463944,7.442519763297686 L-30.253653672105873,7.38667953591159 L-30.226036313239234,7.328603310359365 L-30.201414768321317,7.268546962865973 L-30.179897516646463,7.206775093813677 L-30.16157936040056,7.143559861947498 L-30.146541006975035,7.079179785279518 L-30.134848713380695,7.01391851397508 L-30.126553994328038,6.948063580627404 L-30.1216933952602,6.881905133426734 L-30.12028833133852,6.815734657805499 L-30.122344993090174,6.749843692191769 L-30.1278543191335,6.684522543529219 L-30.136792036101266,6.620059008222851 L-30.14911876558595,6.556737104145812 L-30.164780197635814,6.494835819293936 L-30.183707330037432,6.434627882601277 " />
			<path d="M-19.35858809781148,37.68270207195999 L-19.37969592345972,37.62688131134785 L-19.40363652256354,37.57308203861585 L-19.430313175031753,37.52152160298492 L-19.4596181071095,37.472408308767506 L-19.491432926784512,37.42594057381748 L-19.52562910209122,37.38230612792147 L-19.562068480380255,37.34168125436994 L-19.60060384645556,37.30423007777218 L-19.641079517324226,37.2701039009924 L-19.683331971156246,37.239440593885725 L-19.72719050791318,37.21236403630354 L-19.77247793897682,37.188983617618554 L-19.819011302991743,37.1693937947914 L-19.866602605029705,37.15367371076423 L-19.91505957608973,37.14188687472301 L-19.964186449865426,37.13408090552021 " />
			<path d="M-19.964186449865434,37.13408090552021 L-20.002453074233173,37.1307976674406 L-20.040908628607443,37.129914968459424 L-20.079460470189446,37.13143493507582 L-20.118015724216068,37.13535390555709 L-20.15648150770332,37.14166243876007 L-20.19476515320957,37.15034533687573 L-20.232774432079548,37.16138168204196 L-20.270417776631238,37.1747448867366 L-20.30760450075044,37.19040275782905 L-20.344245018361587,37.20831757413639 L-20.380251059248415,37.22844617729697 L-20.41553588170468,37.25074007574273 L-20.450014481502492,37.2751455615196 L-20.483603796674974,37.30160383967467 L-20.516222907619795,37.33005116989839 L-20.547793232041595,37.36041902008057 L-20.57823871426361,37.392634231410206 L-20.607486008452454,37.42661919462148 L-20.635464655314664,37.462292036961294 L-20.662107251839316,37.49956681942787 L-20.71113092976936,37.578559368995634 L-20.75408491742505,37.662836101890704 L-20.790555544424226,37.75158538710496 L-20.82019157869201,37.8439525205065 L-20.842707609017705,37.939047956107636 L-20.857886793720752,38.03595587287909 L-20.86558294895468,38.1337429946071 L-20.86572195653744,38.231467577853536 L-20.858302477750016,38.328188481460046 L-20.843395966229032,38.42297423025189 L-20.82114597982917,38.51491198565302 L-20.79176679808253,38.60311633682065 L-20.774489565087258,38.645551399888035 L-20.755541358569634,38.68673782763562 L-20.73496782641883,38.726576398351455 L-20.71281853207583,38.764971137429235 L-20.689146835130746,38.80182954857954 L-20.66400976277492,38.837062836661495 L-20.637467872417407,38.870586121598045 L-20.609585105796867,38.90231864285948 L-20.580428634940336,38.93218395402263 L-20.55006870033991,38.96011010693703 L-20.518578441737258,38.98602982505425 L-20.486033721923576,39.00988066550306 L-20.452512943979475,39.03160516951973 L-20.418096862395096,39.05115100087123 L-20.382868388525466,39.06847107193783 L-20.34691239084979,39.083523657151275 L-20.310315490515844,39.09627249351533 L-20.273165852662036,39.10668686796652 L-20.235552974019882,39.11474169136462 L-20.197567467308538,39.120417558934534 " />
			<path d="M-20.197567467308534,39.120417558934534 L-20.145763455075386,39.124286089658824 L-20.093673561457653,39.12376180689015 L-20.041527287687735,39.11884702054956 L-19.989554383401586,39.1095633845404 L-19.937983834391968,39.09595180134409 L-19.88704285372713,39.07807224180913 L-19.836955880679845,39.056003480927416 L-19.78794359187744,39.02984275076199 L-19.74022192902956,38.999705312055326 L-19.694001147517344,38.96572394640562 L-19.64948489003581,38.92804837124851 L-19.606869289370888,38.88684458022172 L-19.566342104264105,38.84229411181887 L-19.528081892172235,38.79459324955472 L-19.492257222566575,38.74395215716577 L-19.45902593423799,38.69059395265641 L-19.42853443987992,38.63475372527031 L-19.40091708101328,38.57667749971808 L-19.376295536095363,38.516621152224694 L-19.354778284420508,38.45484928317239 L-19.336460128174604,38.39163405130622 L-19.321421774749076,38.32725397463824 L-19.30972948115474,38.261992703333796 L-19.301434762102083,38.19613776998612 L-19.296574163034244,38.12997932278545 L-19.295169099112567,38.06380884716422 L-19.29722576086422,37.997917881550485 L-19.302735086907546,37.93259673288794 L-19.31167280387531,37.86813319758157 L-19.323999533359995,37.80481129350453 L-19.33966096540986,37.74291000865266 L-19.358588097811477,37.682702071959994 " />
			<path d="M2.319291404860224,-13.569994329430987 L2.298183579211982,-13.625815090043123 L2.2742429801081636,-13.679614362775126 L2.24756632763995,-13.731174798406053 L2.218261395562206,-13.780288092623472 L2.186446575887192,-13.826755827573495 L2.152250400580483,-13.870390273469503 L2.1158110222914503,-13.911015147021033 L2.0772756562161456,-13.948466323618792 L2.036799985347478,-13.982592500398567 L1.9945475315154586,-14.013255807505246 L1.9506889947585258,-14.040332365087433 L1.9054015636948838,-14.06371278377242 L1.8588681996799623,-14.083302606599574 L1.8112768976419986,-14.099022690626741 L1.762819926581972,-14.11080952666796 L1.7136930528062775,-14.118615495870765 " />
			<path d="M1.7136930528062704,-14.118615495870767 L1.67542642843853,-14.121898733950369 L1.6369708740642603,-14.122781432931552 L1.5984190324822578,-14.121261466315154 L1.559863778455636,-14.117342495833885 L1.521397994968386,-14.111033962630898 L1.4831143494621337,-14.102351064515243 L1.445105070592155,-14.09131471934901 L1.4074617260404674,-14.077951514654373 L1.370275001921263,-14.062293643561922 L1.3336344843101178,-14.044378827254587 L1.2976284434232872,-14.024250224094004 L1.262343620967024,-14.001956325648242 L1.2278650211692113,-13.977550839871375 L1.1942757059967302,-13.951092561716306 L1.1616565950519082,-13.922645231492583 L1.1300862706301076,-13.892277381310404 L1.0996407884080945,-13.86006216998077 L1.0703934942192515,-13.826077206769494 L1.0424148473570392,-13.790404364429682 L1.015772250832389,-13.753129581963101 L0.966748572902345,-13.67413703239534 L0.9237945852466538,-13.589860299500268 L0.8873239582474781,-13.50111101428601 L0.8576879239796927,-13.40874388088448 L0.8351718936540005,-13.31364844528334 L0.8199927089509521,-13.216740528511885 L0.8122965537170243,-13.118953406783877 L0.8121575461342666,-13.02122882353744 L0.8195770249216897,-12.924507919930925 L0.8344835364426713,-12.829722171139087 L0.8567335228425361,-12.737784415737954 L0.8861127045891738,-12.649580064570328 L0.9033899375844476,-12.607145001502941 L0.9223381441020697,-12.565958573755356 L0.9429116762528724,-12.526120003039521 L0.9650609705958754,-12.48772526396174 L0.9887326675409575,-12.450866852811433 L1.0138697398967824,-12.415633564729475 L1.0404116302542974,-12.38211027979293 L1.068294396874836,-12.350377758531497 L1.0974508677313675,-12.32051244736834 L1.127810802331793,-12.292586294453944 L1.1593010609344445,-12.266666576336721 L1.1918457807481273,-12.242815735887913 L1.225366558692229,-12.221091231871249 L1.2597826402766088,-12.201545400519747 L1.2950111141462375,-12.184225329453145 L1.3309671118219133,-12.169172744239702 L1.3675640121558619,-12.156423907875649 L1.4047136500096693,-12.14600953342445 L1.4423265286518214,-12.137954710026353 L1.4803120353631665,-12.13227884245644 " />
			<path d="M1.48031203536317,-12.13227884245644 L1.5321160475963183,-12.12841031173215 L1.5842059412140523,-12.128934594500825 L1.6363522149839693,-12.133849380841415 L1.6883251192701192,-12.14313301685057 L1.7398956682797349,-12.15674460004688 L1.7908366489445724,-12.174624159581843 L1.84092362199186,-12.196692920463558 L1.8899359107942653,-12.222853650628982 L1.9376575736421435,-12.25299108933565 L1.98387835515436,-12.286972454985358 L2.0283946126358936,-12.324648030142466 L2.071010213300817,-12.365851821169255 L2.1115373984075987,-12.410402289572101 L2.149797610499468,-12.458103151836248 L2.1856222801051284,-12.508744244225205 L2.218853568433716,-12.562102448734569 L2.249345062791786,-12.617942676120666 L2.2769624216584234,-12.67601890167289 L2.3015839665763425,-12.736075249166282 L2.323101218251195,-12.797847118218579 L2.3414193744970997,-12.861062350084758 L2.356457727922626,-12.925442426752738 L2.368150021516965,-12.990703698057176 L2.376444740569621,-13.056558631404851 L2.3813053396374597,-13.122717078605522 L2.3827104035591367,-13.188887554226758 L2.380653741807484,-13.254778519840487 L2.3751444157641597,-13.320099668503037 L2.3662066987963923,-13.384563203809405 L2.353879969311709,-13.447885107886444 L2.338218537261845,-13.50978639273832 L2.3192914048602264,-13.56999432943098 " />
			<path d="M-19.666955850791563,32.998271792927085 L-19.62474019949508,33.109913314151356 L-19.576859001287442,33.217511859615364 L-19.523505696351016,33.32063273087722 L-19.464895832195527,33.418859319312055 L-19.401266192845497,33.511794789212104 L-19.332873842232082,33.59906368100412 L-19.259995085654015,33.680313428107176 L-19.182924353503406,33.755215781302695 L-19.101973011766074,33.823468134862246 L-19.017468104102033,33.8847947490756 L-18.929751030588168,33.93894786423998 L-18.839176168460884,33.98570870160995 L-18.74610944043104,34.02488834726426 L-18.69875877156883,34.041584544107934 L-18.650926836355115,34.0563285153186 L-18.602661957284347,34.06910536571243 L-18.55401289423506,34.07990218740103 L-18.50502879520992,34.08870807283166 L-18.455759146683665,34.095514125806645 " />
			<path d="M-18.455759146683658,34.095514125806645 L-18.4018563513041,34.10064184985954 L-18.347738675354513,34.10338529020545 L-18.293470911303437,34.10374116225632 L-18.239118031312614,34.10170903994379 L-18.18474510944898,34.09729135622935 L-18.130417243774623,34.09049340019144 L-18.07619947840805,34.081323310693094 L-18.02215672565,34.0697920666377 L-17.96835368826712,34.05591347382446 L-17.914854782026445,34.0397041484194 L-17.86172405857356,34.02118349706162 L-17.809025128746654,34.00037369362868 L-17.75682108641835,33.9772996526889 L-17.705174432956458,33.95198899967233 L-17.65414700239416,33.92447203779618 L-17.60379988739908,33.89478171178425 " />
			<path d="M-17.603799887399074,33.89478171178423 L8.39859910051905,17.89108394215843 " />
			<path d="M8.39859910051905,17.891083942158435 L8.468736065117932,17.845307313085502 L8.537213854460173,17.79533928690841 L8.6038674995533,17.741300240978898 L8.668536425928114,17.68332036009188 L8.731064840476648,17.621539322858844 L8.791302106771415,17.556105965209866 L8.849103107961747,17.487177921834807 L8.90432859637301,17.414921246427543 L8.956845528966435,17.339510011648066 L9.006527387851468,17.261125889766205 L9.053254485078437,17.179957714997208 L9.096914250977314,17.09620102858359 L9.137401505347901,17.01005760771914 L9.174618710848156,16.92173497944999 L9.208476207970186,16.831445920723795 L9.238892431037861,16.73940794579141 L9.26579410470566,16.64584278219602 L9.289116420485412,16.550975836612068 L9.308803192875608,16.45503565182083 L9.324806994717205,16.358253356130835 L9.337089271449797,16.260862106569526 L9.345620433992934,16.163096527187566 L9.350379930028812,16.065192143828938 L9.351356293514591,15.967384816728565 L9.348547172305121,15.86991017230434 L9.341959333819444,15.773003035512454 L9.331608648737497,15.676896864133498 L9.317520052766255,15.581823186352233 L9.29972748656743,15.488011042985903 L9.27827381399144,15.395686435704853 L9.253210718814639,15.3050717825747 L9.22459858022858,15.216385382231758 " />
			<path d="M9.224598580228577,15.216385382231739 L1.1830814362892967,-7.9964697298633105 " />
			<path d="M1.1830814362892947,-7.996469729863314 L1.140865784992811,-8.108111251087585 L1.0929845867851742,-8.215709796551593 L1.0396312818487472,-8.318830667813447 L0.9810214176932599,-8.417057256248283 L0.9173917783432313,-8.509992726148331 L0.8489994277298136,-8.597261617940347 L0.7761206711517477,-8.678511365043407 L0.6990499390011387,-8.753413718238924 L0.6180985972638033,-8.821666071798477 L0.5335936895997646,-8.882992686011832 L0.4458766160858989,-8.937145801176205 L0.3553017539586151,-8.98390663854618 L0.2622350259287721,-9.02308628420049 L0.21488435706656034,-9.039782481044163 L0.16705242185284475,-9.054526452254825 L0.11878754278207693,-9.06730330264866 L0.0701384797327913,-9.078100124337261 L0.021154380707651077,-9.086906009767883 L-0.02811526781859766,-9.09371206274287 " />
			<path d="M-0.028115267818611844,-9.093712062742874 L-0.0820180631981686,-9.098839786795772 L-0.13613573914775556,-9.101583227141685 L-0.19040350319883223,-9.101939099192549 L-0.24475638318965393,-9.099906976880021 L-0.2991293050532897,-9.095489293165581 L-0.35345717072764643,-9.088691337127669 L-0.4076749360942208,-9.079521247629325 L-0.46171768885226827,-9.067990003573932 L-0.5155207262351513,-9.054111410760694 L-0.5690196324758245,-9.03790208535563 L-0.6221503559287076,-9.01938143399785 L-0.6748492857556142,-8.998571630564914 L-0.7270533280839229,-8.975497589625132 L-0.7786999815458108,-8.950186936608558 L-0.8297274121081097,-8.922669974732408 L-0.8800745271031933,-8.892979648720475 " />
			<path d="M-26.882473515021317,7.110718120905334 L-0.8800745271031953,-8.892979648720472 " />
			<path d="M-26.882473515021317,7.110718120905335 L-26.9526104796202,7.156494749978269 L-27.02108826896244,7.206462776155362 L-27.087741914055567,7.260501822084873 L-27.15241084043038,7.3184817029718925 L-27.214939254978916,7.380262740204929 L-27.275176521273682,7.445696097853906 L-27.332977522464017,7.514624141228964 L-27.388203010875277,7.586880816636229 L-27.440719943468704,7.662292051415706 L-27.490401802353738,7.740676173297568 L-27.537128899580704,7.821844348066563 L-27.58078866547958,7.90560103448018 L-27.621275919850167,7.991744455344631 L-27.65849312535042,8.080067083613779 L-27.692350622472453,8.170356142339976 L-27.72276684554013,8.262394117272363 L-27.74966851920793,8.355959280867753 L-27.77299083498768,8.450826226451705 L-27.792677607377875,8.546766411242942 L-27.808681409219474,8.643548706932936 L-27.820963685952066,8.740939956494245 L-27.8294948484952,8.838705535876203 L-27.83425434453108,8.936609919234831 L-27.83523070801686,9.034417246335204 L-27.83242158680739,9.13189189075943 L-27.825833748321713,9.228799027551316 L-27.815483063239764,9.324905198930272 L-27.801394467268523,9.419978876711538 L-27.783601901069698,9.513791020077868 L-27.762148228493707,9.60611562735892 L-27.737085133316906,9.696730280489072 L-27.708472994730844,9.785416680832022 " />
			<path d="M-19.666955850791563,32.998271792927085 L-27.708472994730844,9.785416680832032 " />
			<path d="M13.144410637086178,17.678079859927728 L13.123302811437936,17.622259099315592 L13.099362212334118,17.568459826583588 L13.072685559865905,17.516899390952663 L13.043380627788162,17.467786096735242 L13.011565808113147,17.421318361785218 L12.977369632806438,17.37768391588921 L12.940930254517404,17.337059042337682 L12.9023948884421,17.299607865739922 L12.861919217573433,17.265481688960147 L12.819666763741413,17.23481838185347 L12.77580822698448,17.20774182427128 L12.730520795920839,17.184361405586294 L12.683987431905917,17.16477158275914 L12.636396129867954,17.14905149873197 L12.587939158807927,17.137264662690754 L12.538812285032233,17.129458693487948 " />
			<path d="M12.538812285032225,17.129458693487948 L12.500545660664486,17.126175455408344 L12.462090106290216,17.12529275642716 L12.423538264708213,17.12681272304356 L12.38498301068159,17.13073169352483 L12.34651722719434,17.137040226727816 L12.30823358168809,17.14572312484347 L12.27022430281811,17.156759470009703 L12.232580958266421,17.17012267470434 L12.195394234147217,17.185780545796792 L12.158753716536072,17.203695362104128 L12.122747675649242,17.22382396526471 L12.08746285319298,17.246117863710474 L12.052984253395167,17.27052334948734 L12.019394938222685,17.29698162764241 L11.986775827277864,17.325428957866134 L11.955205502856062,17.35579680804831 L11.92476002063405,17.388012019377943 L11.895512726445206,17.42199698258922 L11.867534079582994,17.45766982492903 L11.840891483058344,17.494944607395613 L11.7918678051283,17.573937156963375 L11.748913817472609,17.658213889858448 L11.712443190473433,17.746963175072704 L11.682807156205648,17.839330308474235 L11.660291125879954,17.934425744075376 L11.645111941176907,18.03133366084683 L11.637415785942979,18.129120782574837 L11.63727677836022,18.226845365821276 L11.644696257147645,18.32356626942779 L11.659602768668627,18.418352018219625 L11.68185275506849,18.51028977362076 L11.711231936815128,18.598494124788385 L11.728509169810403,18.640929187855775 L11.747457376328025,18.682115615603358 L11.768030908478828,18.72195418631919 L11.79018020282183,18.760348925396972 L11.813851899766913,18.79720733654728 L11.838988972122737,18.83244062462924 L11.865530862480252,18.865963909565785 L11.89341362910079,18.897696430827217 L11.922570099957323,18.927561741990374 L11.952930034557747,18.95548789490477 L11.9844202931604,18.981407613021993 L12.016965012974081,19.005258453470802 L12.050485790918184,19.026982957487466 L12.084901872502563,19.04652878883897 L12.120130346372193,19.06384885990557 L12.156086344047868,19.078901445119012 L12.192683244381817,19.091650281483066 L12.229832882235623,19.102064655934264 L12.267445760877775,19.11011947933236 L12.305431267589121,19.115795346902274 " />
			<path d="M12.305431267589125,19.115795346902274 L12.357235279822273,19.119663877626564 L12.409325173440006,19.11913959485789 L12.461471447209924,19.1142248085173 L12.513444351496075,19.104941172508145 L12.56501490050569,19.091329589311837 L12.615955881170528,19.073450029776872 L12.666042854217816,19.051381268895156 L12.715055143020221,19.02522053872973 L12.762776805868098,18.995083100023066 L12.808997587380315,18.961101734373358 L12.85351384486185,18.92342615921625 L12.896129445526771,18.88222236818946 L12.936656630633554,18.837671899786613 L12.974916842725422,18.789971037522466 L13.010741512331084,18.73932994513351 L13.04397280065967,18.685971740624144 L13.07446429501774,18.630131513238048 L13.102081653884378,18.572055287685824 L13.126703198802296,18.51199894019243 L13.148220450477151,18.450227071140134 L13.166538606723055,18.387011839273956 L13.18157696014858,18.322631762605976 L13.193269253742919,18.25737049130154 L13.201563972795576,18.191515557953863 L13.206424571863415,18.125357110753193 L13.207829635785092,18.059186635131958 L13.205772974033438,17.993295669518226 L13.200263647990115,17.927974520855678 L13.191325931022346,17.86351098554931 L13.178999201537664,17.80018908147227 L13.1633377694878,17.738287796620394 L13.144410637086182,17.678079859927735 " />
			<path d="M-30.48965945375046,6.004418011608154 L-30.5441907651072,6.029510138549672 L-30.597369735430163,6.059459957044003 L-30.648916287938697,6.094109730890273 L-30.69855894327936,6.133276970712512 L-30.74603624932161,6.176755395073343 L-30.791098158143317,6.224316016892935 L-30.83350734295391,6.275708349451367 L-30.873040448019356,6.330661725622788 L-30.909489265006005,6.388886723393373 L-30.94266182954791,6.450076690155336 L-30.97238343226227,6.513909357749013 L-30.99849753888839,6.5800485397471125 L-31.02086661470402,6.6481459020420655 L-31.03937284887711,6.717842797411362 L-31.05391877493817,6.788772154398787 L-31.064427784105227,6.860560410563438 L-31.07084452875802,6.9328294799146875 L-31.073135213936364,7.005198744171257 L-31.0712877753275,7.07728705735706 L-31.065311942805007,7.148714753176248 L-31.055239189184626,7.219105644595247 L-31.041122564466935,7.288089005100626 L-31.0230364164398,7.355301521198132 L-31.001075999112153,7.420389205869706 L-30.975356971041297,7.483009262910911 L-30.946014786195974,7.542831892329873 L-30.91320398056322,7.599542027299312 L-30.87709735825633,7.652840993513651 L-30.837885081410334,7.702448082211916 L-30.795773668658345,7.748102028581802 L-30.750984907463348,7.789562387758625 L-30.703754686033943,7.8266108011722135 " />
			<path d="M-19.66454022152449,37.25249220096688 L-19.71907153288123,37.27758432790839 L-19.772250503204194,37.30753414640272 L-19.823797055712728,37.34218392024899 L-19.87343971105339,37.381351160071226 L-19.92091701709564,37.42482958443206 L-19.965978925917348,37.47239020625165 L-20.008388110727946,37.52378253881008 L-20.04792121579339,37.5787359149815 L-20.08437003278004,37.63696091275209 L-20.117542597321943,37.69815087951405 L-20.147264200036304,37.761983547107725 L-20.17337830666243,37.82812272910583 L-20.195747382478057,37.89622009140078 L-20.214253616651153,37.965916986770075 L-20.22879954271221,38.0368463437575 L-20.23930855187927,38.108634599922155 L-20.24572529653206,38.1809036692734 L-20.248015981710406,38.25327293352997 L-20.246168543101543,38.32536124671577 L-20.240192710579052,38.39678894253496 L-20.23011995695867,38.46717983395396 L-20.21600333224098,38.53616319445934 L-20.197917184213846,38.60337571055685 L-20.1759567668862,38.66846339522842 L-20.150237738815342,38.73108345226963 L-20.12089555397002,38.79090608168859 L-20.088084748337266,38.84761621665803 L-20.051978126030374,38.90091518287237 L-20.01276584918438,38.950522271570634 L-19.97065443643239,38.99617621794052 L-19.925865675237393,39.03763657711735 L-19.87863545380799,39.07468499053093 " />
			<path d="M2.0133392811472,-14.000204200424106 L1.9588079697904606,-13.975112073482586 L1.9056289994674982,-13.945162254988256 L1.8540824469589636,-13.910512481141986 L1.8044397916183028,-13.871345241319746 L1.7569624855760533,-13.827866816958915 L1.7119005767543445,-13.780306195139323 L1.6694913919437504,-13.72891386258089 L1.6299582868783062,-13.67396048640947 L1.5935094698916556,-13.615735488638885 L1.560336905349753,-13.554545521876921 L1.5306153026353926,-13.490712854283244 L1.5045011960092696,-13.424573672285144 L1.4821321201936435,-13.35647630999019 L1.4636258860205493,-13.286779414620895 L1.4490799599594903,-13.21585005763347 L1.4385709507924345,-13.144061801468817 L1.4321542061396426,-13.071792732117569 L1.4298635209612982,-12.999423467860998 L1.43171095957016,-12.927335154675196 L1.4376867920926557,-12.855907458856008 L1.447759545713037,-12.785516567437009 L1.4618761704307284,-12.71653320693163 L1.4799623184578619,-12.649320690834124 L1.501922735785512,-12.584233006162549 L1.5276417638563675,-12.521612949121344 L1.5569839487016923,-12.461790319702382 L1.5897947543344446,-12.405080184732943 L1.625901376641338,-12.351781218518605 L1.6651136534873316,-12.30217412982034 L1.7072250662393214,-12.256520183450455 L1.75201382743432,-12.21505982427363 L1.7992440488637222,-12.178011410860043 " />
			<path d="M-19.04837760895008,33.07095051997014 L-19.014931628165893,33.16090604997428 L-18.97780903243882,33.24831072720802 L-18.93710654235576,33.33293682428554 L-18.892930205693073,33.414563853236714 L-18.845395121115757,33.492979139974715 L-18.794625138295117,33.567978378404895 L-18.740752535226253,33.63936616273151 L-18.68391767358606,33.70695649657519 L-18.62426863302972,33.7705732775748 L-18.561960825378463,33.830050756211094 L-18.497156589703877,33.88523396765662 L-18.430024769363634,33.93597913552683 L-18.360740272090787,33.982154046480424 L-18.289483614282652,34.02363839469287 L-18.216440450676703,34.06032409530565 L-18.14180109063885,34.0921155660346 " />
			<path d="M0.2765049179780802,-9.017634775927768 L0.20730110781715722,-9.006148414547262 L0.13838934796453992,-8.990818016422581 L0.06990400607054625,-8.97167347354283 L0.0019786183340949615,-8.948752114910322 L-0.06525437087295971,-8.922098633754604 L-0.13166386725259138,-8.891765000387325 L-0.197120382194926,-8.857810360867877 L-0.2614962852617084,-8.82030092167741 " />
			<path d="M-26.263895273179834,7.183396847948389 L-0.2614962852617122,-8.820300921677417 " />
			<path d="M-26.263895273179834,7.183396847948404 L-26.334032237778718,7.229173477021338 L-26.402510027120957,7.2791415031984315 L-26.469163672214084,7.333180549127942 L-26.533832598588898,7.391160430014962 L-26.596361013137432,7.452941467247998 L-26.6565982794322,7.518374824896975 L-26.714399280622533,7.587302868272033 L-26.769624769033793,7.659559543679298 L-26.82214170162722,7.734970778458775 L-26.871823560512254,7.813354900340637 L-26.91855065773922,7.894523075109632 L-26.962210423638098,7.9782797615232495 L-27.002697678008683,8.0644231823877 L-27.03991488350894,8.152745810656848 L-27.07377238063097,8.243034869383045 L-27.104188603698645,8.335072844315432 L-27.131090277366447,8.428638007910822 L-27.154412593146198,8.523504953494774 L-27.174099365536392,8.61944513828601 L-27.19010316737799,8.716227433976005 L-27.202385444110583,8.813618683537314 L-27.21091660665372,8.911384262919272 L-27.215676102689596,9.0092886462779 L-27.216652466175375,9.107095973378273 L-27.213843344965905,9.2045706178025 L-27.20725550648023,9.301477754594385 L-27.19690482139828,9.397583925973342 L-27.18281622542704,9.492657603754607 L-27.165023659228215,9.586469747120937 L-27.143569986652224,9.678794354401989 L-27.118506891475423,9.769409007532142 L-27.08989475288936,9.85809540787509 " />
			<path d="M-19.04837760895008,33.07095051997014 L-27.08989475288936,9.858095407875094 " />
			<path d="M12.838458513373162,17.24786998893461 L12.783927202016422,17.27296211587613 L12.73074823169346,17.302911934370456 L12.679201679184924,17.33756170821673 L12.629559023844264,17.376728948038966 L12.582081717802014,17.420207372399798 L12.537019808980306,17.46776799421939 L12.494610624169711,17.519160326777822 L12.455077519104266,17.57411370294924 L12.418628702117616,17.632338700719824 L12.385456137575712,17.693528667481786 L12.355734534861352,17.757361335075466 L12.329620428235229,17.823500517073562 L12.307251352419602,17.891597879368515 L12.288745118246506,17.961294774737812 L12.274199192185447,18.032224131725236 L12.26369018301839,18.104012387889888 L12.257273438365598,18.17628145724114 L12.254982753187253,18.248650721497707 L12.256830191796114,18.32073903468351 L12.262806024318609,18.392166730502698 L12.27287877793899,18.462557621921697 L12.28699540265668,18.531540982427074 L12.305081550683813,18.59875349852458 L12.327041968011462,18.66384118319616 L12.352760996082317,18.72646124023736 L12.382103180927642,18.786283869656323 L12.414913986560393,18.842994004625762 L12.451020608867285,18.896292970840104 L12.490232885713278,18.945900059538367 L12.532344298465267,18.991554005908256 L12.577133059660264,19.03301436508508 L12.624363281089666,19.070062778498666 " />
			<path d="M31.2769059889338,-31.45293253647858 L31.274895299769675,-31.55067453662513 L31.268866963813828,-31.64576010441139 L31.258832168750715,-31.73801277533109 L31.24480953765003,-31.827261342308255 L31.22682509440512,-31.913340173431823 L31.204912215436522,-31.99608951934351 L31.17911156775037,-32.075355809708604 L31.149471033466543,-32.1509919382194 L31.116045620956662,-32.22285753560234 L31.07889736275682,-32.2908192301223 L31.038095200444534,-32.354750895100466 L30.993714856693554,-32.41453388298643 L30.945838694743966,-32.47005724555023 L30.894555565548423,-32.52121793978555 L30.839960642878136,-32.56792101914204 L30.78215524669469,-32.61007980973182 " />
			<path d="M31.27690598893381,-31.45293253647858 L7.762795020216174,-47.23842111006749 " />
			<path d="M7.762795020216175,-47.238421110067485 L7.760784331052046,-47.33616311021403 L7.7547559950961995,-47.431248678000294 L7.744721200033085,-47.52350134891999 L7.730698568932405,-47.61274991589716 L7.712714125687494,-47.69882874702073 L7.6908012467188955,-47.78157809293241 L7.665000599032743,-47.86084438329751 L7.635360064748916,-47.9364805118083 L7.601934652239034,-48.00834610919124 L7.56478639403919,-48.07630780371121 L7.523984231726905,-48.14023946868937 L7.479603887975925,-48.20002245657534 L7.431727726026339,-48.25554581913914 L7.380444596830796,-48.30670651337446 L7.325849674160508,-48.35340959273095 L7.268044277977062,-48.39556838332073 " />
			<path d="M4.023477846831979,-48.459657148576646 L3.9649238478588944,-48.42014409229886 L3.909587548712554,-48.375668641772535 L3.857578118675046,-48.326318539638216 L3.8089981636709913,-48.272191145410424 L3.7639435238431798,-48.21339324340363 L3.722503084475966,-48.15004083206458 L3.6847586006394373,-48.08225889512678 L3.650784535900309,-48.01018115503837 L3.6206479154177336,-47.93394980915012 L3.594408193713848,-47.853715249183786 L3.572117137379929,-47.76963576453429 L3.5538187229495444,-47.68187722999123 L3.5395490501401943,-47.59061277849556 L3.529336270634595,-47.49602245957723 L3.523200532542106,-47.398292884147494 L3.5211539406498735,-47.29761685634672 " />
			<path d="M-35.482444541227316,-23.292070201907997 L-35.48039794933508,-23.39274622970878 L-35.47426221124259,-23.490475805138527 L-35.464049431736996,-23.585066124056855 L-35.44977975892764,-23.67633057555252 L-35.43148134449726,-23.76408911009558 L-35.40919028816334,-23.848168594745076 L-35.382950566459456,-23.928403154711415 L-35.35281394597688,-24.004634500599657 L-35.31883988123775,-24.076712240688067 L-35.281095397401224,-24.144494177625873 L-35.23965495803401,-24.207846588964916 L-35.1946003182062,-24.266644490971714 L-35.14602036320214,-24.320771885199505 L-35.09401093316463,-24.370121987333828 L-35.03867463401829,-24.414597437860152 L-34.98012063504522,-24.454110494137932 " />
			<path d="M3.5211539406498735,-47.297616856346714 L-35.48244454122731,-23.292070201908004 " />
			<path d="M31.2769059889338,-31.45293253647858 L31.373430869887578,-31.384957900942506 L31.46480024089586,-31.314100353583925 L31.550805982546425,-31.240521292373995 L31.631252192599813,-31.164388314296275 L31.705955632211687,-31.08587483359749 L31.774746143310796,-31.005159686787888 L31.837467036181778,-30.922426725290812 L31.893975446370018,-30.837864396669467 L31.944142660095572,-30.751665315384628 L31.987854407434966,-30.664025824061092 L32.02501112260305,-30.575145546262203 L32.05552817074205,-30.485226931791097 L32.079336040701214,-30.394474795554387 L32.09638050336803,-30.303095851038684 L32.106622735190214,-30.21129823946256 L32.11003940660729,-30.11929105567645 " />
			<path d="M-35.482444541227316,-23.292070201907997 L-35.589064716437846,-23.223052598187596 L-35.69013526796677,-23.150667102895454 L-35.785399065119954,-23.075097869896045 L-35.87461375000071,-22.99653715270972 L-35.95755235408554,-22.915184815406036 L-36.03400387564828,-22.8312478241353 L-36.10377381656352,-22.744939720591915 L-36.166684677123726,-22.65648007874908 L-36.222576407611164,-22.566093946246923 L-36.271306815475796,-22.47401127185527 L-36.31275192708327,-22.38046632046755 L-36.34680630311269,-22.285697077114204 L-36.373383306801784,-22.18994464151177 L-36.39241532435698,-22.093452614688026 L-36.40385393696776,-21.99646647924358 L-36.40767004398752,-21.899232974826642 " />
			<path d="M31.276905988933805,25.234292176406036 L31.276905988933805,-31.45293253647857 " />
			<path d="M7.762795020216174,-47.238421110067485 L7.762795020216174,-19.437323827464915 " />
			<path d="M20.80213166286066,18.202368636744016 L31.276905988933805,25.234292176406022 " />
			<path d="M7.762795020216177,-19.437323827464922 L20.80213166286066,18.20236863674402 " />
			<path d="M7.762795020216176,-47.238421110067485 L7.65838057518682,-47.30515796394679 L7.548997502309244,-47.3685211837592 L7.434909314986836,-47.42835812195821 L7.3163908616558,-47.484524626118606 L7.193727663651201,-47.53688538621227 L7.067215227361059,-47.58531426058186 L6.937158332325578,-47.62969457982717 L6.803870296996534,-47.66991942787186 L6.667672223925691,-47.705891899533725 L6.528892226200621,-47.73752533397771 L6.387864636991533,-47.76474352348948 L6.24492920411339,-47.787480897066466 L6.100430271543662,-47.805682678384166 L5.954715949867518,-47.819305017757095 L5.808137277648946,-47.82831509777653 L5.661047375748094,-47.83269121237051 L5.513800596622196,-47.83242281909568 L5.366751670659461,-47.82751056453495 L5.220254851602498,-47.81796628273981 L5.074663063120017,-47.8038129667211 L4.930327048582811,-47.785084713056776 L4.787594526092244,-47.761826639750325 L4.646809350796886,-47.73409477753751 L4.5083106865153475,-47.70195593490342 L4.372432188660934,-47.665487537135 L4.239501200436527,-47.624777439796716 L4.109837964236138,-47.579923717078856 L3.9837548501529327,-47.531034425528155 L3.8615556034523144,-47.47822734373016 L3.743534612822974,-47.42162968857028 L3.6299762011687555,-47.36137780875716 L3.521153940649894,-47.29761685634672 " />
			<path d="M3.5211539406498744,-47.297616856346714 L3.5211539406498744,-19.49651957374413 " />
			<path d="M-35.482444541227316,-23.292070201907997 L-35.482444541227316,4.509027080694587 " />
			<path d="M3.5211539406498735,-19.49651957374413 L-35.48244454122731,4.50902708069458 " />
			<path d="M31.2769059889338,25.234292176406022 L31.373430869887578,25.302266811942097 L31.46480024089586,25.37312435930068 L31.550805982546425,25.44670342051061 L31.631252192599813,25.52283639858833 L31.705955632211687,25.601349879287113 L31.774746143310796,25.682065026096716 L31.837467036181778,25.76479798759379 L31.893975446370018,25.849360316215137 L31.944142660095572,25.935559397499976 L31.987854407434966,26.02319888882351 L32.02501112260305,26.1120791666224 L32.05552817074205,26.201997781093507 L32.079336040701214,26.292749917330216 L32.09638050336803,26.38412886184592 L32.106622735190214,26.475926473422042 L32.11003940660729,26.567933657208155 " />
			<path d="M-8.32110848421221,53.1283578309582 L-8.358051661499726,53.149822959019716 L-8.396104003295783,53.16942708152653 L-8.435238022721052,53.18715603755913 L-8.475425451552903,53.20299702071317 L-8.516637260644783,53.21693858835014 L-8.558843680895244,53.228970669862825 L-8.602014224751468,53.2390845739498 L-8.646117708231774,53.24727299489352 L-8.691122273451185,53.25353001783756 L-8.736995411633758,53.25785112305918 L-8.831214258678198,53.26067449569124 L-8.9285020648657,53.255734956478186 L-9.028577779921775,53.24304677502796 L-9.131152299710061,53.222646605645146 L-9.235929301411982,53.194593381442004 L-9.342606099560134,53.15896814408935 L-9.450874520452425,53.11587380969896 L-9.56042179242092,53.06543487151397 L-9.67093144938356,53.00779704026605 L-9.782084245068477,52.94312682323836 L-9.893559075269877,52.87161104325033 " />
			<path d="M30.682489997664977,29.122811176519487 L30.64554682037746,29.144276304580995 L30.607494478581405,29.163880427087808 L30.568360459156136,29.181609383120406 L30.528173030324282,29.197450366274452 L30.486961221232402,29.211391933911422 L30.444754800981944,29.223424015424108 L30.40158425712572,29.233537919511082 L30.357480773645413,29.241726340454804 L30.312476208426002,29.247983363398845 L30.266603070243427,29.252304468620466 L30.17238422319899,29.255127841252524 L30.075096417011487,29.25018830203947 L29.975020701955412,29.237500120589246 L29.872446182167124,29.21709995120643 L29.767669180465205,29.189046727003287 L29.66099238231705,29.153421489650633 L29.552723961424764,29.11032715526024 L29.44317668945627,29.05988821707525 L29.332667032493628,29.00225038582733 L29.221514236808712,28.93758016879964 L29.11003940660731,28.866064388811616 " />
			<path d="M-9.893559075269895,52.87161104325032 L29.110039406607292,28.86606438881161 " />
			<path d="M-36.40767004398752,5.901864307775958 L-36.40385393696776,5.804630803359005 L-36.39241532435698,5.7076446679145585 L-36.373383306801784,5.611152641090814 L-36.34680630311269,5.51540020548838 L-36.31275192708327,5.4206309621350295 L-36.271306815475796,5.327086010747311 L-36.222576407611164,5.235003336355659 L-36.166684677123726,5.144617203853503 L-36.10377381656352,5.0561575620106645 L-36.03400387564828,4.96984945846728 L-35.95755235408554,4.885912467196544 L-35.87461375000071,4.804560129892861 L-35.785399065119954,4.725999412706537 L-35.69013526796677,4.6504301797071275 L-35.589064716437846,4.5780446844149845 L-35.48244454122732,4.5090270806945885 " />
			<path d="M-22.040449241430426,46.03234552604029 L-22.001856852127787,46.056882596192374 L-21.96202505882683,46.07951121202621 L-21.920984083122377,46.10021420452171 L-21.87876506405279,46.11897586568787 L-21.8354000344738,46.1357819604809 L-21.79092189675422,46.150619737604764 L-21.745364397811926,46.16347793918601 L-21.69876210350901,46.174346809315445 L-21.651150372425654,46.183218101450244 L-21.602565329032444,46.190085084670855 L-21.553043836281685,46.194942548787935 L-21.502623467638315,46.197786808295504 L-21.45134247857181,46.19861570516725 L-21.39923977753056,46.19742861049385 L-21.29272796061286,46.18901157816202 L-21.183411210608504,46.17256125148978 L-21.07162123237873,46.14812754646282 L-20.95769723541536,46.115784603400286 L-20.84198490456178,46.07563056198746 L-20.724835351085456,46.02778726348595 L-20.60660404728481,45.97239988102512 L-20.48764974786322,45.90963647909658 L-20.368333401343058,45.83968750358834 " />
			<path d="M-20.368333401343044,45.839687503588316 L-9.893559075269895,52.871611043250326 " />
			<path d="M-11.565674915357281,53.06426906570229 L-11.527082526054643,53.08880613585437 L-11.487250732753683,53.11143475168821 L-11.446209757049232,53.132137744183716 L-11.403990737979644,53.150899405349875 L-11.360625708400654,53.1677055001429 L-11.316147570681077,53.18254327726676 L-11.27059007173878,53.195401478848005 L-11.22398777743587,53.20627034897745 L-11.176376046352509,53.21514164111225 L-11.1277910029593,53.22200862433285 L-11.07826951020854,53.22686608844994 L-11.027849141565172,53.22971034795751 L-10.976568152498666,53.230539244829245 L-10.924465451457413,53.229352150155854 L-10.817953634539716,53.22093511782401 L-10.708636884535359,53.204484791151785 L-10.596846906305586,53.18005108612481 L-10.482922909342216,53.14770814306228 L-10.367210578488637,53.107554101649455 L-10.250061025012313,53.059710803147944 L-10.131829721211668,53.004323420687115 L-10.012875421790076,52.94156001875857 L-9.893559075269915,52.87161104325033 " />
			<path d="M-36.24239043747678,6.88388278557366 L-36.25087586023713,6.855129976258932 L-36.256719003952405,6.825491267694201 L-36.25991443840855,6.794994204047433 L-36.26045919398956,6.7636671271825035 L-36.258352764437234,6.731539150320223 L-36.25359710732167,6.698640130982526 L-36.246196642221996,6.665000643244954 L-36.23615824661919,6.630651949323215 L-36.22349124950455,6.595625970520248 L-36.20820742271002,6.559955257560764 L-36.19032096996824,6.523672960340855 L-36.169848513712594,6.48681279712077 L-36.12122407897705,6.411496399030237 L-36.0625148292691,6.334285973668446 L-35.993938955165675,6.25546847049123 L-35.915751316158435,6.175336811594807 L-35.82824249347861,6.094188803082531 L-35.73173771016352,6.012326028280431 L-35.626595622378154,5.930052726914844 L-35.513206986483894,5.847674664417649 L-35.39199320680814,5.765497995561284 L-35.26340476951199,5.683828126646786 " />
			<path d="M-35.26340476951197,5.683828126646774 L-22.224068126867486,43.32352059085571 " />
			<path d="M-23.2030537948323,44.52357524978259 L-23.211539217592648,44.494822440467864 L-23.217382361307926,44.46518373190313 L-23.220577795764072,44.43468666825636 L-23.221122551345083,44.403359591391435 L-23.219016121792755,44.37123161452915 L-23.214260464677185,44.33833259519146 L-23.206859999577517,44.304693107453886 L-23.196821603974712,44.27034441353214 L-23.18415460686007,44.23531843472918 L-23.16887078006554,44.19964772176969 L-23.15098432732376,44.16336542454979 L-23.130511871068116,44.126505261329704 L-23.081887436332572,44.05118886323917 L-23.023178186624616,43.97397843787738 L-22.954602312521196,43.895160934700165 L-22.876414673513956,43.81502927580374 L-22.788905850834134,43.733881267291466 L-22.69240106751904,43.65201849248936 L-22.587258979733672,43.56974519112377 L-22.473870343839412,43.48736712862658 L-22.352656564163652,43.40519045977022 L-22.224068126867508,43.323520590855715 " />
			<path d="M7.762795020216176,-19.437323827464905 L7.65838057518682,-19.504060681344214 L7.548997502309245,-19.56742390115662 L7.434909314986836,-19.62726083935563 L7.3163908616558,-19.683427343516026 L7.1937276636512015,-19.735788103609686 L7.067215227361059,-19.78421697797928 L6.937158332325578,-19.828597297224583 L6.803870296996535,-19.86882214526928 L6.667672223925692,-19.904794616931145 L6.528892226200622,-19.93642805137513 L6.387864636991534,-19.9636462408869 L6.24492920411339,-19.986383614463886 L6.100430271543662,-20.004585395781586 L5.954715949867518,-20.018207735154515 L5.808137277648946,-20.027217815173948 L5.661047375748094,-20.03159392976793 L5.513800596622197,-20.031325536493103 L5.366751670659461,-20.02641328193237 L5.220254851602498,-20.01686900013723 L5.074663063120017,-20.002715684118517 L4.930327048582811,-19.983987430454192 L4.787594526092244,-19.96072935714774 L4.646809350796886,-19.932997494934927 L4.5083106865153475,-19.90085865230084 L4.372432188660934,-19.864390254532417 L4.239501200436527,-19.82368015719414 L4.109837964236138,-19.778826434476276 L3.983754850152933,-19.729937142925575 L3.861555603452315,-19.677130061127585 L3.743534612822974,-19.6205324059677 L3.629976201168756,-19.56028052615458 L3.521153940649894,-19.49651957374414 " />
			<path d="M20.802131662860656,18.20236863674402 L20.799521577164697,18.31673899661439 L20.791697608001872,18.434046687410625 L20.778678603999197,18.554009104630655 L20.760495929077642,18.676337248303927 L20.73719338689371,18.800736419217653 L20.70882711531258,18.926906928873024 L20.67546545116709,19.054544821461047 L20.63718876562829,19.183342606118714 L20.5940892705843,19.31298999770144 L20.546270796493744,19.443174664287124 L20.493848542249104,19.573582979611135 L20.436948797652512,19.70390077861944 L20.375708639172526,19.83381411431973 L20.310275599714927,19.963010014107248 L20.24080731320303,20.091177233743174 L20.167471134823742,20.218007007169287 L20.09044373785427,20.343193790352426 L20.009910688040716,20.466435997366833 L19.926065996553945,20.58743672694107 L19.839111652599676,20.70590447771918 L19.749257136808794,20.82155385051299 L19.656718916580168,20.93410623585375 L19.561719924591713,21.043290485186752 L19.464489021736068,21.148843564091937 L19.365260445774627,21.25051118595687 L19.26427324703828,21.348048424575445 L19.161770712534214,21.441220304196573 L19.057999779846213,21.529802365601363 L18.953210442240383,21.61358120684501 L18.84765514640948,21.6923549973608 L18.74158818430671,21.76593396418761 L18.635265080534168,21.834140849149588 " />
			<path d="M18.635265080534143,21.834140849149602 L29.110039406607292,28.86606438881161 " />
			<path d="M31.2769059889338,25.234292176406022 L31.274295903237842,25.348662536276393 L31.266471934075017,25.465970227072628 L31.253452930072342,25.585932644292658 L31.235270255150787,25.70826078796593 L31.211967712966857,25.832659958879656 L31.183601441385726,25.958830468535027 L31.150239777240234,26.08646836112305 L31.111963091701437,26.215266145780717 L31.068863596657444,26.344913537363443 L31.02104512256689,26.475098203949127 L30.96862286832225,26.60550651927314 L30.911723123725658,26.73582431828144 L30.85048296524567,26.865737653981732 L30.785049925788073,26.99493355376925 L30.715581639276177,27.123100773405177 L30.642245460896888,27.24993054683129 L30.565218063927414,27.37511733001443 L30.48468501411386,27.498359537028836 L30.40084032262709,27.619360266603074 L30.313885978672822,27.737828017381183 L30.22403146288194,27.853477390174994 L30.131493242653313,27.966029775515754 L30.03649425066486,28.075214024848755 L29.939263347809213,28.18076710375394 L29.840034771847773,28.282434725618874 L29.739047573111424,28.37997196423745 L29.63654503860736,28.473143843858576 L29.53277410591936,28.561725905263366 L29.42798476831353,28.64550474650701 L29.322429472482625,28.7242785370228 L29.216362510379856,28.797857503849613 L29.110039406607314,28.86606438881159 " />
			<path d="M7.762795020216176,-19.437323827464905 L7.669128347370101,-19.44641592622192 L7.570467154351224,-19.452273262176206 L7.467049124615224,-19.45488172449241 L7.359123401254086,-19.45423502915633 L7.2469499867885645,-19.45033473411368 L7.130799116799338,-19.443190235516845 L7.010950608905825,-19.432818745088728 L6.887693188661029,-19.4192452486582 L6.761323793986396,-19.402502445967066 L6.632146859822349,-19.3826306718935 L6.500473584717851,-19.359677799281812 L6.366621181125845,-19.333699123612558 L6.230912111210671,-19.304757229790884 L6.093673310008469,-19.27292184137402 L5.95523539781203,-19.238269652601115 L5.815931883677566,-19.20088414363009 L5.676098361972172,-19.160855379426646 L5.5360717038976075,-19.118279792789853 L5.396189245938061,-19.073259952037095 L5.25678797718701,-19.025904313908026 L5.118203727510988,-18.976326962282755 L4.980770358506013,-18.92464733334382 L4.844818959195758,-18.870989927843926 L4.710677048409096,-18.815484011172764 L4.578667785758557,-18.75826330194533 L4.449109193120512,-18.699465649862102 L4.322313388492617,-18.639232703617015 L4.198585834074224,-18.57770956965335 L4.078224600381178,-18.515044462589625 L3.9615196481678465,-18.45138834815756 L3.848752129886257,-18.38689457951245 L3.740193712365236,-18.321718527791955 " />
			<path d="M3.74019371236522,-18.321718527791944 L16.779530355009705,19.31797393641699 " />
			<path d="M20.80213166286066,18.20236863674402 L20.708464990014583,18.193276537987003 L20.609803796995706,18.187419202032718 L20.506385767259705,18.184810739716514 L20.39846004389857,18.185457435052594 L20.286286629433047,18.189357730095242 L20.17013575944382,18.19650222869208 L20.050287251550305,18.2068737191202 L19.92702983130551,18.220447215550728 L19.800660436630878,18.23719001824186 L19.67148350246683,18.257061792315426 L19.539810227362334,18.280014664927112 L19.40595782377033,18.30599334059637 L19.270248753855153,18.334935234418044 L19.13300995265295,18.366770622834906 L18.99457204045651,18.401422811607812 L18.855268526322046,18.438808320578836 L18.715435004616655,18.47883708478228 L18.57540834654209,18.52141267141908 L18.435525888582543,18.566432512171833 L18.29612461983149,18.613788150300905 L18.15754037015547,18.663365501926172 L18.020107001150496,18.71504513086511 L17.88415560184024,18.768702536365005 L17.750013691053578,18.824208453036167 L17.61800442840304,18.8814291622636 L17.488445835764995,18.940226814346826 L17.3616500311371,19.000459760591916 L17.23792247671871,19.061982894555577 L17.117561243025662,19.124648001619306 L17.00085629081233,19.188304116051366 L16.88808877253074,19.25279788469648 L16.77953035500972,19.317973936416976 " />
			<path d="M3.5211539406498735,-19.49651957374413 L3.524637437439791,-19.361065230457573 L3.535076230393845,-19.22138865555479 L3.552435266544311,-19.07795887629724 L3.5766562550776198,-18.931257523027206 L3.6076578630721308,-18.781777211876094 L3.6453359886101895,-18.630019890583036 L3.6895641103473924,-18.476495152978377 L3.7401937123652074,-18.321718527791965 " />
			<path d="M-35.26340476951197,5.683828126646773 L-35.31403437152979,5.529051501460337 L-35.358262493267,5.37552676385568 L-35.39594061880506,5.223769442562622 L-35.42694222679957,5.074289131411508 L-35.451163215332876,4.92758777814147 L-35.46852225148334,4.784157998883922 L-35.4789610444374,4.644481423981139 L-35.482444541227316,4.509027080694604 " />
			<path d="M3.740193712365217,-18.321718527791944 L-35.26340476951197,5.683828126646766 " />
			<path d="M-20.36833340134304,45.839687503588316 L18.635265080534147,21.834140849149605 " />
			<path d="M-22.224068126867493,43.32352059085571 L-22.155472866378293,43.50923164832505 L-22.078323845009898,43.695097423086246 L-21.992990320055185,43.88022830835478 L-21.89988072218323,44.06373821473758 L-21.79944070057326,44.244748811310345 L-21.692150989910154,44.42239372956073 L-21.578525109450666,44.595822710075936 L-21.459106905173332,44.764205672127595 L-21.334467946775984,44.92673668667563 L-21.205204791979614,45.0826378337753 L-21.071936131232423,45.23116292592464 L-21.003998402015323,45.302435826946635 L-20.935299826480293,45.37160107953137 L-20.86592263199267,45.438575897733884 L-20.79594985817697,45.50328011740519 L-20.725465257524302,45.56563629214311 L-20.654553195146505,45.62556978599019 L-20.583298547797057,45.68300886276766 L-20.511786602279564,45.73788477193865 L-20.440102953365454,45.79013183089773 L-20.368333401343058,45.83968750358831 " />
			<path d="M-22.224068126867493,43.323520590855715 L16.779530355009697,19.317973936417005 " />
			<path d="M18.635265080534147,21.8341408491496 L18.563495528511737,21.784585176459007 L18.491811879597623,21.732338117499935 L18.42029993408013,21.677462208328937 L18.349045286730686,21.620023131551463 L18.278133224352885,21.560089637704394 L18.207648623700216,21.497733462966472 L18.137675849884516,21.433029243295163 L18.068298655396895,21.36605442509265 L17.999600079861867,21.296889172507914 L17.931662350644764,21.225616271485922 L17.798393689897576,21.077091179336584 L17.669130535101207,20.921190032236915 L17.54449157670386,20.758659017688874 L17.425073372426525,20.59027605563722 L17.311447491967037,20.41684707512201 L17.20415778130393,20.239202156871627 L17.10371775969396,20.058191560298866 L17.010608161822006,19.874681653916067 L16.925274636867293,19.68955076864753 L16.8481256154989,19.50368499388634 L16.779530355009708,19.317973936417015 " />
			<path d="M-19.048377608950084,33.07095051997014 L-19.666955850791567,32.99827179292708 " />
			<path d="M-0.2614962852617122,-8.820300921677415 L-0.8800745271031953,-8.892979648720477 " />
			<path d="M-26.263895273179834,7.183396847948394 L-26.882473515021317,7.110718120905332 " />
			<path d="M-27.08989475288936,9.858095407875098 L-27.708472994730844,9.785416680832036 " />
			<path d="M-11.338136796820901,30.038453744718414 L-11.338136796820901,-2.002960447356081 " />
			<path d="M-8.510376077110035,28.298051717040142 L-8.510376077110035,-3.7433624750343526 " />
			<path d="M30.782155246694675,-32.610079809731836 L7.26804427797704,-48.395568383320736 " />
			<path d="M4.023477846831979,-48.45965714857665 L-34.98012063504521,-24.454110494137943 " />
			<path d="M30.782155246694675,-32.610079809731836 L30.908293628189536,-32.52059939792689 L31.02965312204022,-32.42473747308062 L31.145911213566258,-32.322748789700306 L31.256758945140607,-32.21490438424621 L31.361901737249173,-32.10149085484808 L31.46106017134031,-31.982809599666314 L31.55397073238383,-31.85917601592183 L31.640386509166145,-31.73091866172319 L31.720077850460545,-31.5983783829185 L31.79283297532878,-31.461907407292422 L31.858458535932083,-31.321868408515552 L31.916780131355985,-31.17863354233369 L31.967642771083337,-31.03258345755832 L32.01091128688396,-30.88410628448671 L32.04647069202624,-30.733596603439768 L32.07422648685612,-30.58145439615892 L32.09410490993131,-30.42808398284863 L32.10605313404347,-30.273892947689347 L32.11003940660729,-30.11929105567643 " />
			<path d="M-36.40767004398752,-21.899232974826624 L-36.403776426080356,-22.05202874434459 L-36.39210567919913,-22.20442789496633 L-36.372688097629876,-22.35603483731725 L-36.34557408446813,-22.506456038393623 L-36.31083402078536,-22.65530104307403 L-36.26855808293759,-22.802183487641393 L-36.218856008490576,-22.94672210268477 L-36.16185681136906,-23.088541702777622 L-36.09770844696944,-23.22727416036361 L-36.026577428105284,-23.362559361321953 L-35.948648392782445,-23.494046139731974 L-35.86412362492589,-23.62139318941036 L-35.77322252930208,-23.744269949855067 L-35.676181062000175,-23.862357464296203 L-35.57325111795004,-23.975349207626547 L-35.46469987706724,-24.08295188206263 L-35.35080911072201,-24.184886178471096 L-35.23187445033254,-24.28088750138404 L-35.10820461998115,-24.37070665582146 L-34.9801206350452,-24.45411049413794 " />
			<path d="M4.023477846831979,-48.459657148576646 L4.152325663789335,-48.53461061824729 L4.284737540716644,-48.603071390949125 L4.4203865706014165,-48.664870446295176 L4.558937854338408,-48.719855210777496 L4.700049327550206,-48.76788993445048 L4.84337260509791,-48.80885602607915 L4.988553841196905,-48.84265234592484 L5.135234603014246,-48.869195455445556 L5.283052755590833,-48.88841982329444 L5.43164335590364,-48.90027798710779 L5.580639553860668,-48.90474067068323 L5.729673498004203,-48.90179685625869 L5.878377243686302,-48.891453811713774 L6.0263836614743544,-48.87373707262633 L6.1733273435439955,-48.848690379228586 L6.318845505821587,-48.816375568418415 L6.462578883649025,-48.77687242109242 L6.604172618759582,-48.73027846517767 L6.743277135374964,-48.67670873484845 L6.8795490032606175,-48.616295486522446 L7.0126517856085275,-48.54918787233755 L7.142256869654182,-48.47555157191538 L7.268044277977033,-48.39556838332075 " />
			<path d="M32.11003940660729,26.56793365720818 L32.11003940660729,-30.119291055676428 " />
			<path d="M-8.32110848421221,53.128357830958215 L30.682489997664977,29.122811176519505 " />
			<path d="M-36.40767004398752,-21.899232974826624 L-36.40767004398752,5.901864307775945 " />
			<path d="M-22.040449241430423,46.03234552604029 L-11.565674915357278,53.06426906570229 " />
			<path d="M-36.24239043747679,6.883882785573641 L-23.203053794832307,44.52357524978258 " />
			<path d="M-8.32110848421221,53.1283578309582 L-8.449956301169564,53.20331130062885 L-8.582368178096875,53.27177207333068 L-8.718017207981648,53.33357112867673 L-8.856568491718638,53.38855589315905 L-8.997679964930438,53.436590616832035 L-9.14100324247814,53.4775567084607 L-9.286184478577136,53.511353028306395 L-9.432865240394477,53.53789613782711 L-9.580683392971064,53.557120505676 L-9.72927399328387,53.56897866948935 L-9.8782701912409,53.57344135306479 L-10.027304135384433,53.57049753864025 L-10.176007881066532,53.56015449409533 L-10.324014298854586,53.54243775500788 L-10.470957980924227,53.51739106161014 L-10.616476143201817,53.48507625079997 L-10.760209521029257,53.445573103473976 L-10.901803256139813,53.398979147559224 L-11.040907772755194,53.34540941723 L-11.177179640640848,53.284996168904 L-11.31028242298876,53.2178885547191 L-11.439887507034413,53.14425225429694 L-11.565674915357263,53.064269065702305 " />
			<path d="M32.11003940660729,26.56793365720817 L32.106145788700125,26.720729426726134 L32.0944750418189,26.873128577347874 L32.075057460249646,27.024735519698794 L32.0479434470879,27.175156720775167 L32.013203383405134,27.324001725455574 L31.970927445557358,27.470884170022938 L31.92122537111035,27.615422785066315 L31.864226173988833,27.757242385159167 L31.800077809589215,27.895974842745154 L31.728946790725054,28.031260043703497 L31.65101775540222,28.16274682211352 L31.566492987545658,28.290093871791903 L31.47559189192186,28.41297063223661 L31.37855042461995,28.53105814667775 L31.275620480569813,28.64404989000809 L31.167069239687013,28.75165256444418 L31.05317847334178,28.85358686085264 L30.93424381295231,28.949588183765584 L30.810573982600925,29.039407338203006 L30.682489997664977,29.122811176519487 " />
			<path d="M-36.24239043747678,6.883882785573659 L-36.285940707790246,6.747770913668495 L-36.32295952069512,6.609739485330534 L-36.35336287199999,6.4701017255829045 L-36.37708176951568,6.32917450458375 L-36.39406238961438,6.187277618575045 L-36.404266199367875,6.044733064191448 L-36.40767004398752,5.901864307775956 " />
			<path d="M-22.040449241430423,46.032345526040295 L-22.162124415146568,45.94620098658249 L-22.279369776197058,45.85411811689767 L-22.391895784172014,45.756324317981424 L-22.499424553224365,45.65306109411476 L-22.60169053831603,45.54458345646311 L-22.698441190988163,45.431159293319766 L-22.78943758303602,45.313068708548904 L-22.87445499654824,45.190603329861936 L-22.953283478853496,45.06406558863545 L-23.025728361003925,44.9337679730492 L-23.09161073851509,44.80003225638859 L-23.15076791317516,44.663188702417315 L-23.203053794832297,44.523575249782596 " />

        </g>
        </g>
    </svg>
    