<?xml version='1.0' encoding='utf-8'?>
<svg width="66.950727mm" height="100.09mm" viewBox="-36.453785 -53.619596 68.60994 102.57049" version="1.1" xmlns="http://www.w3.org/2000/svg">
  <g transform="scale(1,-1)" stroke-linecap="round">
    <g fill="none" stroke="rgb(0,0,0)" stroke-width="0.092230433946821" id="Visible">
      <path d="M -30.183707,6.434628 A 1.0,0.782354626340063 -83.29885937846392 0,0 -30.789306,5.886007" />
      <path d="M -30.789306,5.886007 A 1.0,0.782354626340063 -83.29885937846392 0,0 -31.022687,7.872343" />
      <path d="M -31.022687,7.872343 A 1.0,0.782354626340063 -83.29885937846392 0,0 -30.183707,6.434628" />
      <path d="M -19.358588,37.682702 A 1.0,0.782354626340063 -83.29885937846392 0,0 -19.964186,37.134081" />
      <path d="M -19.964186,37.134081 A 1.000000171091235,0.7823547601940822 -83.29885937846392 0,0 -20.197567,39.120418" />
      <path d="M -20.197567,39.120418 A 1.0,0.782354626340063 -83.29885937846392 0,0 -19.358588,37.682702" />
      <path d="M 2.319291,-13.569994 A 1.0,0.782354626340063 -83.29885937846392 0,0 1.713693,-14.118615" />
      <path d="M 1.713693,-14.118615 A 1.0,0.782354626340063 -83.29885937846392 0,0 1.480312,-12.132279" />
      <path d="M 1.480312,-12.132279 A 1.0,0.782354626340063 -83.29885937846392 0,0 2.319291,-13.569994" />
      <path d="M -19.666956,32.998272 A 2.0,1.564709252680126 -83.29885937846392 0,0 -18.455759,34.095514" />
      <path d="M -18.455759,34.095514 A 2.0,1.564709252680126 -83.29885937846392 0,0 -17.6038,33.894782" />
      <line x1="-17.6038" y1="33.894782" x2="8.398599" y2="17.891084" />
      <path d="M 8.398599,17.891084 A 2.0,1.564709252680126 -83.29885937846392 0,0 9.224599,15.216385" />
      <line x1="9.224599" y1="15.216385" x2="1.183081" y2="-7.99647" />
      <path d="M 1.183081,-7.99647 A 2.0,1.564709252680126 -83.29885937846392 0,0 -0.028115,-9.093712" />
      <path d="M -0.028115,-9.093712 A 2.0,1.564709252680126 -83.29885937846392 0,0 -0.880075,-8.89298" />
      <line x1="-26.882474" y1="7.110718" x2="-0.880075" y2="-8.89298" />
      <path d="M -26.882474,7.110718 A 2.0,1.564709252680126 -83.29885937846392 0,0 -27.708473,9.785417" />
      <line x1="-19.666956" y1="32.998272" x2="-27.708473" y2="9.785417" />
      <path d="M 13.144411,17.67808 A 1.0,0.782354626340063 -83.29885937846392 0,0 12.538812,17.129459" />
      <path d="M 12.538812,17.129459 A 1.0,0.782354626340063 -83.29885937846392 0,0 12.305431,19.115795" />
      <path d="M 12.305431,19.115795 A 1.0,0.782354626340063 -83.29885937846392 0,0 13.144411,17.67808" />
      <path d="M -30.489659,6.004418 A 1.0,0.782354626340063 -83.29885937846392 0,0 -30.703755,7.826611" />
      <path d="M -19.66454,37.252492 A 1.0,0.782354626340063 -83.29885937846392 0,0 -19.878635,39.074685" />
      <path d="M 2.013339,-14.000204 A 1.0,0.782354626340063 -83.29885937846392 0,0 1.799244,-12.178011" />
      <path d="M -19.048378,33.070951 A 2.0,1.564709252680126 -83.29885937846392 0,0 -18.141801,34.092116" />
      <path d="M 0.276505,-9.017635 A 2.0,1.564709252680126 -83.29885937846392 0,0 -0.261496,-8.820301" />
      <line x1="-26.263895" y1="7.183397" x2="-0.261496" y2="-8.820301" />
      <path d="M -26.263895,7.183397 A 2.0,1.564709252680126 -83.29885937846392 0,0 -27.089895,9.858095" />
      <line x1="-19.048378" y1="33.070951" x2="-27.089895" y2="9.858095" />
      <path d="M 12.838459,17.24787 A 1.0,0.782354626340063 -83.29885937846392 0,0 12.624363,19.070063" />
      <path d="M 31.276906,-31.452933 A 3.0,1.6599142280430157 -56.125755517567846 0,0 30.782155,-32.61008" />
      <line x1="31.276906" y1="-31.452933" x2="7.762795" y2="-47.238421" />
      <path d="M 7.762795,-47.238421 A 3.0,1.6599142280430157 -56.125755517567846 0,0 7.268044,-48.395568" />
      <path d="M 4.023478,-48.459657 A 3.0,1.5893676777512735 58.38894746426813 0,0 3.521154,-47.297617" />
      <path d="M -35.482445,-23.29207 A 3.0,1.5893676777512733 -121.61105253573187 0,1 -34.980121,-24.45411" />
      <line x1="3.521154" y1="-47.297617" x2="-35.482445" y2="-23.29207" />
      <path d="M 31.276906,-31.452933 A 3.0,1.9283659249374545 -2.0759619792676526e-15 0,1 32.110039,-30.119291" />
      <path d="M -35.482445,-23.29207 A 3.0,1.9283659249374545 -180.0 0,0 -36.40767,-21.899233" />
      <line x1="31.276906" y1="25.234292" x2="31.276906" y2="-31.452933" />
      <line x1="7.762795" y1="-47.238421" x2="7.762795" y2="-19.437324" />
      <line x1="20.802132" y1="18.202369" x2="31.276906" y2="25.234292" />
      <line x1="7.762795" y1="-19.437324" x2="20.802132" y2="18.202369" />
      <path d="M 7.762795,-47.238421 A 3.0,1.9283659249374545 180.0 0,0 3.521154,-47.297617" />
      <line x1="3.521154" y1="-47.297617" x2="3.521154" y2="-19.49652" />
      <line x1="-35.482445" y1="-23.29207" x2="-35.482445" y2="4.509027" />
      <line x1="3.521154" y1="-19.49652" x2="-35.482445" y2="4.509027" />
      <path d="M 31.276906,25.234292 A 3.0,1.9283659249374545 0.0 0,1 32.110039,26.567934" />
      <path d="M -8.321108,53.128358 A 3.0,1.5893676777512733 -121.61105253573187 0,1 -9.893559,52.871611" />
      <path d="M 30.68249,29.122811 A 3.0,1.5893676777512733 -121.61105253573187 0,1 29.110039,28.866064" />
      <line x1="-9.893559" y1="52.871611" x2="29.110039" y2="28.866064" />
      <path d="M -36.40767,5.901864 A 3.0,1.9283659249374565 5.397501146095901e-14 0,1 -35.482445,4.509027" />
      <path d="M -22.040449,46.032346 A 3.0,1.6599142280430215 -56.12575551756797 0,0 -20.368333,45.839688" />
      <line x1="-20.368333" y1="45.839688" x2="-9.893559" y2="52.871611" />
      <path d="M -11.565675,53.064269 A 3.0,1.6599142280430157 -56.125755517567846 0,0 -9.893559,52.871611" />
      <path d="M -36.24239,6.883883 A 3.0,0.982446707317108 -19.10737283931542 0,1 -35.263405,5.683828" />
      <line x1="-35.263405" y1="5.683828" x2="-22.224068" y2="43.323521" />
      <path d="M -23.203054,44.523575 A 3.0,0.9824467073171028 -19.1073728393155 0,1 -22.224068,43.323521" />
      <path d="M 7.762795,-19.437324 A 3.0,1.9283659249374545 180.0 0,0 3.521154,-19.49652" />
      <path d="M 20.802132,18.202369 A 3.0,1.6599142280430157 123.87424448243215 0,1 18.635265,21.834141" />
      <line x1="18.635265" y1="21.834141" x2="29.110039" y2="28.866064" />
      <path d="M 31.276906,25.234292 A 3.0,1.6599142280430157 123.87424448243215 0,1 29.110039,28.866064" />
      <path d="M 7.762795,-19.437324 A 3.0,0.982446707317108 160.89262716068458 0,0 3.740194,-18.321719" />
      <line x1="3.740194" y1="-18.321719" x2="16.77953" y2="19.317974" />
      <path d="M 20.802132,18.202369 A 3.0,0.9824467073171028 160.8926271606845 0,0 16.77953,19.317974" />
      <path d="M 3.521154,-19.49652 A 3.0,1.5893676777512733 58.38894746426813 0,0 3.740194,-18.321719" />
      <path d="M -35.263405,5.683828 A 3.0,1.5893676777512733 -121.61105253573187 0,1 -35.482445,4.509027" />
      <line x1="3.740194" y1="-18.321719" x2="-35.263405" y2="5.683828" />
      <line x1="-20.368333" y1="45.839688" x2="18.635265" y2="21.834141" />
      <path d="M -22.224068,43.323521 A 3.0,1.5893676777512733 58.38894746426813 0,0 -20.368333,45.839688" />
      <line x1="-22.224068" y1="43.323521" x2="16.77953" y2="19.317974" />
      <path d="M 18.635265,21.834141 A 3.0,1.5893676777512733 -121.61105253573187 0,1 16.77953,19.317974" />
      <line x1="-19.048378" y1="33.070951" x2="-19.666956" y2="32.998272" />
      <line x1="-0.261496" y1="-8.820301" x2="-0.880075" y2="-8.89298" />
      <line x1="-26.263895" y1="7.183397" x2="-26.882474" y2="7.110718" />
      <line x1="-27.089895" y1="9.858095" x2="-27.708473" y2="9.785417" />
      <line x1="-11.338137" y1="30.038454" x2="-11.338137" y2="-2.00296" />
      <line x1="-8.510376" y1="28.298052" x2="-8.510376" y2="-3.743362" />
      <line x1="30.782155" y1="-32.61008" x2="7.268044" y2="-48.395568" />
      <line x1="4.023478" y1="-48.459657" x2="-34.980121" y2="-24.45411" />
      <path d="M 30.782155,-32.61008 A 3.0,3.0 1.2182217428360774e-15 0,1 32.110039,-30.119291" />
      <path d="M -36.40767,-21.899233 A 3.0,3.0 1.2182217428360774e-15 0,1 -34.980121,-24.45411" />
      <path d="M 4.023478,-48.459657 A 3.0,3.0 -5.616998167135672e-15 0,1 7.268044,-48.395568" />
      <line x1="32.110039" y1="26.567934" x2="32.110039" y2="-30.119291" />
      <line x1="-8.321108" y1="53.128358" x2="30.68249" y2="29.122811" />
      <line x1="-36.40767" y1="-21.899233" x2="-36.40767" y2="5.901864" />
      <line x1="-22.040449" y1="46.032346" x2="-11.565675" y2="53.064269" />
      <line x1="-36.24239" y1="6.883883" x2="-23.203054" y2="44.523575" />
      <path d="M -8.321108,53.128358 A 3.0,3.0 123.87424448243215 0,1 -11.565675,53.064269" />
      <path d="M 32.110039,26.567934 A 3.0,3.0 123.87424448243215 0,1 30.68249,29.122811" />
      <path d="M -36.24239,6.883883 A 3.0,3.0 -83.2988593784639 0,1 -36.40767,5.901864" />
      <path d="M -22.040449,46.032346 A 3.0,3.0 -83.29885937846409 0,1 -23.203054,44.523575" />
    </g>
    <g fill="none" stroke="rgb(99,99,99)" stroke-width="0.092230433946821" id="Hidden" stroke-dasharray="0.002343 0.277863">
      <path d="M -29.565129,6.507307 A 1.0,0.782354626340063 -83.29885937846392 0,0 -30.170727,5.958685" />
      <path d="M -30.170727,5.958685 A 1.0,0.782354626340063 -83.29885937846392 0,0 -30.489659,6.004418" />
      <path d="M -30.703755,7.826611 A 1.0,0.782354626340063 -83.29885937846392 0,0 -30.404108,7.945022" />
      <path d="M -30.404108,7.945022 A 1.0,0.782354626340063 -83.29885937846392 0,0 -29.565129,6.507307" />
      <path d="M -18.74001,37.755381 A 1.0,0.782354626340063 -83.29885937846392 0,0 -19.345608,37.20676" />
      <path d="M -19.345608,37.20676 A 1.0,0.782354626340063 -83.29885937846392 0,0 -19.66454,37.252492" />
      <path d="M -19.878635,39.074685 A 1.0,0.782354626340063 -83.29885937846392 0,0 -19.578989,39.193096" />
      <path d="M -19.578989,39.193096 A 1.0,0.782354626340063 -83.29885937846392 0,0 -18.74001,37.755381" />
      <path d="M 2.93787,-13.497316 A 1.0,0.782354626340063 -83.29885937846392 0,0 2.332271,-14.045937" />
      <path d="M 2.332271,-14.045937 A 1.0,0.782354626340063 -83.29885937846392 0,0 2.013339,-14.000204" />
      <path d="M 1.799244,-12.178011 A 1.0,0.782354626340063 -83.29885937846392 0,0 2.09889,-12.0596" />
      <path d="M 2.09889,-12.0596 A 1.0,0.782354626340063 -83.29885937846392 0,0 2.93787,-13.497316" />
      <path d="M -18.141801,34.092116 A 2.0,1.564709252680126 -83.29885937846392 0,0 -17.837181,34.168193" />
      <path d="M -17.837181,34.168193 A 2.0,1.564709252680126 -83.29885937846392 0,0 -16.985222,33.96746" />
      <line x1="-16.985222" y1="33.96746" x2="9.017177" y2="17.963763" />
      <path d="M 9.017177,17.963763 A 2.0,1.564709252680126 -83.29885937846392 0,0 9.843177,15.289064" />
      <line x1="9.843177" y1="15.289064" x2="1.80166" y2="-7.923791" />
      <path d="M 1.80166,-7.923791 A 2.0,1.564709252680126 -83.29885937846392 0,0 0.590463,-9.021033" />
      <path d="M 0.590463,-9.021033 A 2.0,1.564709252680126 -83.29885937846392 0,0 0.276505,-9.017635" />
      <path d="M 13.762989,17.750759 A 1.0,0.782354626340063 -83.29885937846392 0,0 13.157391,17.202137" />
      <path d="M 13.157391,17.202137 A 1.0,0.782354626340063 -83.29885937846392 0,0 12.838459,17.24787" />
      <path d="M 12.624363,19.070063 A 1.0,0.782354626340063 -83.29885937846392 0,0 12.92401,19.188474" />
      <path d="M 12.92401,19.188474 A 1.0,0.782354626340063 -83.29885937846392 0,0 13.762989,17.750759" />
      <line x1="-30.789306" y1="5.886007" x2="-30.170727" y2="5.958685" />
      <line x1="-31.022687" y1="7.872343" x2="-30.404108" y2="7.945022" />
      <line x1="-19.964186" y1="37.134081" x2="-19.345608" y2="37.20676" />
      <line x1="-20.197567" y1="39.120418" x2="-19.578989" y2="39.193096" />
      <line x1="1.713693" y1="-14.118615" x2="2.332271" y2="-14.045937" />
      <line x1="1.480312" y1="-12.132279" x2="2.09889" y2="-12.0596" />
      <line x1="-18.455759" y1="34.095514" x2="-17.837181" y2="34.168193" />
      <line x1="-0.028115" y1="-9.093712" x2="0.590463" y2="-9.021033" />
      <line x1="12.538812" y1="17.129459" x2="13.157391" y2="17.202137" />
      <line x1="12.305431" y1="19.115795" x2="12.92401" y2="19.188474" />
      <line x1="-35.297484" y1="6.556543" x2="-22.258147" y2="44.196236" />
      <path d="M -35.297484,6.556543 A 2.0,2.0 -83.2988593784639 0,1 -35.40767,5.901864" />
      <path d="M -21.483077,45.202083 A 2.0,2.0 -83.29885937846409 0,1 -22.258147,44.196236" />
      <line x1="4.547628" y1="-47.608031" x2="-34.45597" y2="-23.602485" />
      <line x1="-35.40767" y1="-21.899233" x2="-35.40767" y2="5.901864" />
      <line x1="30.224783" y1="-31.779817" x2="6.710672" y2="-47.565305" />
      <line x1="31.110039" y1="26.567934" x2="31.110039" y2="-30.119291" />
      <line x1="-21.483077" y1="45.202083" x2="-11.008303" y2="52.234006" />
      <line x1="-8.845259" y1="52.276732" x2="30.15834" y2="28.271185" />
      <path d="M 4.547628,-47.608031 A 2.0,2.0 -5.616998167135672e-15 0,1 6.710672,-47.565305" />
      <path d="M -35.40767,-21.899233 A 2.0,2.0 1.2182217428360774e-15 0,1 -34.45597,-23.602485" />
      <path d="M 30.224783,-31.779817 A 2.0,2.0 1.2182217428360774e-15 0,1 31.110039,-30.119291" />
      <path d="M 31.110039,26.567934 A 2.0,2.0 123.87424448243215 0,1 30.15834,28.271185" />
      <path d="M -8.845259,52.276732 A 2.0,2.0 123.87424448243215 0,1 -11.008303,52.234006" />
    </g>
  </g>
</svg>