<?xml version='1.0' encoding='utf-8'?>
<svg width="66.950727mm" height="100.09mm" viewBox="-36.453785 -53.619596 68.60994 102.57049" version="1.1" xmlns="http://www.w3.org/2000/svg">
  <g transform="scale(1,-1)" stroke-linecap="round">
    <g fill="none" stroke="rgb(0,0,0)" stroke-width="0.092230433946821" id="Visible">
      <path d="M -30.183707,6.434628 A 1.0,0.782354626340063 -83.29885937846392 0,0 -30.789306,5.886007" />
      <path d="M -30.789306,5.886007 A 1.0,0.782354626340063 -83.29885937846392 0,0 -31.022687,7.872343" />
      <path d="M -31.022687,7.872343 A 1.0,0.782354626340063 -83.29885937846392 0,0 -30.183707,6.434628" />
      <path d="M -19.358588,37.682702 A 1.0,0.782354626340063 -83.29885937846392 0,0 -19.964186,37.134081" />
      <path d="M -19.964186,37.134081 A 1.000000171091235,0.7823547601940822 -83.29885937846392 0,0 -20.197567,39.120418" />
      <path d="M -20.197567,39.120418 A 1.0,0.782354626340063 -83.29885937846392 0,0 -19.358588,37.682702" />
      <path d="M 2.319291,-13.569994 A 1.0,0.782354626340063 -83.29885937846392 0,0 1.713693,-14.118615" />
      <path d="M 1.713693,-14.118615 A 1.0,0.782354626340063 -83.29885937846392 0,0 1.480312,-12.132279" />
      <path d="M 1.480312,-12.132279 A 1.0,0.782354626340063 -83.29885937846392 0,0 2.319291,-13.569994" />
      <path d="M -19.666956,32.998272 A 2.0,1.564709252680126 -83.29885937846392 0,0 -18.455759,34.095514" />
      <path d="M -18.455759,34.095514 A 2.0,1.564709252680126 -83.29885937846392 0,0 -17.6038,33.894782" />
      <line x1="-17.6038" y1="33.894782" x2="8.398599" y2="17.891084" />
      <path d="M 8.398599,17.891084 A 2.0,1.564709252680126 -83.29885937846392 0,0 9.224599,15.216385" />
      <line x1="9.224599" y1="15.216385" x2="1.183081" y2="-7.99647" />
      <path d="M 1.183081,-7.99647 A 2.0,1.564709252680126 -83.29885937846392 0,0 -0.028115,-9.093712" />
      <path d="M -0.028115,-9.093712 A 2.0,1.564709252680126 -83.29885937846392 0,0 -0.880075,-8.89298" />
      <line x1="-26.882474" y1="7.110718" x2="-0.880075" y2="-8.89298" />
      <path d="M -26.882474,7.110718 A 2.0,1.564709252680126 -83.29885937846392 0,0 -27.708473,9.785417" />
      <line x1="-19.666956" y1="32.998272" x2="-27.708473" y2="9.785417" />
      <path d="M 13.144411,17.67808 A 1.0,0.782354626340063 -83.29885937846392 0,0 12.538812,17.129459" />
      <path d="M 12.538812,17.129459 A 1.0,0.782354626340063 -83.29885937846392 0,0 12.305431,19.115795" />
      <path d="M 12.305431,19.115795 A 1.0,0.782354626340063 -83.29885937846392 0,0 13.144411,17.67808" />
      <path d="M -30.489659,6.004418 A 1.0,0.782354626340063 -83.29885937846392 0,0 -30.703755,7.826611" />
      <path d="M -19.66454,37.252492 A 1.0,0.782354626340063 -83.29885937846392 0,0 -19.878635,39.074685" />
      <path d="M 2.013339,-14.000204 A 1.0,0.782354626340063 -83.29885937846392 0,0 1.799244,-12.178011" />
      <path d="M -19.048378,33.070951 A 2.0,1.564709252680126 -83.29885937846392 0,0 -18.141801,34.092116" />
      <path d="M 0.276505,-9.017635 A 2.0,1.564709252680126 -83.29885937846392 0,0 -0.261496,-8.820301" />
      <line x1="-26.263895" y1="7.183397" x2="-0.261496" y2="-8.820301" />
      <path d="M -26.263895,7.183397 A 2.0,1.564709252680126 -83.29885937846392 0,0 -27.089895,9.858095" />
      <line x1="-19.048378" y1="33.070951" x2="-27.089895" y2="9.858095" />
      <path d="M 12.838459,17.24787 A 1.0,0.782354626340063 -83.29885937846392 0,0 12.624363,19.070063" />
      <path d="M 31.276906,-31.452933 A 3.0,1.6599142280430157 -56.125755517567846 0,0 30.782155,-32.61008" />
      <line x1="31.276906" y1="-31.452933" x2="7.762795" y2="-47.238421" />
      <path d="M 7.762795,-47.238421 A 3.0,1.6599142280430157 -56.125755517567846 0,0 7.268044,-48.395568" />
      <path d="M 4.023478,-48.459657 A 3.0,1.5893676777512735 58.38894746426813 0,0 3.521154,-47.297617" />
      <path d="M -35.482445,-23.29207 A 3.0,1.5893676777512733 -121.61105253573187 0,1 -34.980121,-24.45411" />
      <line x1="3.521154" y1="-47.297617" x2="-35.482445" y2="-23.29207" />
      <path d="M 31.276906,-31.452933 A 3.0,1.9283659249374545 -2.0759619792676526e-15 0,1 32.110039,-30.119291" />
      <path d="M -35.482445,-23.29207 A 3.0,1.9283659249374545 -180.0 0,0 -36.40767,-21.899233" />
      <line x1="31.276906" y1="25.234292" x2="31.276906" y2="-31.452933" />
      <line x1="7.762795" y1="-47.238421" x2="7.762795" y2="-19.437324" />
      <line x1="20.802132" y1="18.202369" x2="31.276906" y2="25.234292" />
      <line x1="7.762795" y1="-19.437324" x2="20.802132" y2="18.202369" />
      <path d="M 7.762795,-47.238421 A 3.0,1.9283659249374545 180.0 0,0 3.521154,-47.297617" />
      <line x1="3.521154" y1="-47.297617" x2="3.521154" y2="-19.49652" />
      <line x1="-35.482445" y1="-23.29207" x2="-35.482445" y2="4.509027" />
      <line x1="3.521154" y1="-19.49652" x2="-35.482445" y2="4.509027" />
      <path d="M 31.276906,25.234292 A 3.0,1.9283659249374545 0.0 0,1 32.110039,26.567934" />
      <path d="M -8.321108,53.128358 A 3.0,1.5893676777512733 -121.61105253573187 0,1 -9.893559,52.871611" />
      <path d="M 30.68249,29.122811 A 3.0,1.5893676777512733 -121.61105253573187 0,1 29.110039,28.866064" />
      <line x1="-9.893559" y1="52.871611" x2="29.110039" y2="28.866064" />
      <path d="M -36.40767,5.901864 A 3.0,1.9283659249374565 5.397501146095901e-14 0,1 -35.482445,4.509027" />
      <path d="M -22.040449,46.032346 A 3.0,1.6599142280430215 -56.12575551756797 0,0 -20.368333,45.839688" />
      <line x1="-20.368333" y1="45.839688" x2="-9.893559" y2="52.871611" />
      <path d="M -11.565675,53.064269 A 3.0,1.6599142280430157 -56.125755517567846 0,0 -9.893559,52.871611" />
      <path d="M -36.24239,6.883883 A 3.0,0.982446707317108 -19.10737283931542 0,1 -35.263405,5.683828" />
      <line x1="-35.263405" y1="5.683828" x2="-22.224068" y2="43.323521" />
      <path d="M -23.203054,44.523575 A 3.0,0.9824467073171028 -19.1073728393155 0,1 -22.224068,43.323521" />
      <path d="M 7.762795,-19.437324 A 3.0,1.9283659249374545 180.0 0,0 3.521154,-19.49652" />
      <path d="M 20.802132,18.202369 A 3.0,1.6599142280430157 123.87424448243215 0,1 18.635265,21.834141" />
      <line x1="18.635265" y1="21.834141" x2="29.110039" y2="28.866064" />
      <path d="M 31.276906,25.234292 A 3.0,1.6599142280430157 123.87424448243215 0,1 29.110039,28.866064" />
      <path d="M 7.762795,-19.437324 A 3.0,0.982446707317108 160.89262716068458 0,0 3.740194,-18.321719" />
      <line x1="3.740194" y1="-18.321719" x2="16.77953" y2="19.317974" />
      <path d="M 20.802132,18.202369 A 3.0,0.9824467073171028 160.8926271606845 0,0 16.77953,19.317974" />
      <path d="M 3.521154,-19.49652 A 3.0,1.5893676777512733 58.38894746426813 0,0 3.740194,-18.321719" />
      <path d="M -35.263405,5.683828 A 3.0,1.5893676777512733 -121.61105253573187 0,1 -35.482445,4.509027" />
      <line x1="3.740194" y1="-18.321719" x2="-35.263405" y2="5.683828" />
      <line x1="-20.368333" y1="45.839688" x2="18.635265" y2="21.834141" />
      <path d="M -22.224068,43.323521 A 3.0,1.5893676777512733 58.38894746426813 0,0 -20.368333,45.839688" />
      <line x1="-22.224068" y1="43.323521" x2="16.77953" y2="19.317974" />
      <path d="M 18.635265,21.834141 A 3.0,1.5893676777512733 -121.61105253573187 0,1 16.77953,19.317974" />
      <line x1="-19.048378" y1="33.070951" x2="-19.666956" y2="32.998272" />
      <line x1="-0.261496" y1="-8.820301" x2="-0.880075" y2="-8.89298" />
      <line x1="-26.263895" y1="7.183397" x2="-26.882474" y2="7.110718" />
      <line x1="-27.089895" y1="9.858095" x2="-27.708473" y2="9.785417" />
      <line x1="-11.338137" y1="30.038454" x2="-11.338137" y2="-2.00296" />
      <line x1="-8.510376" y1="28.298052" x2="-8.510376" y2="-3.743362" />
      <line x1="30.782155" y1="-32.61008" x2="7.268044" y2="-48.395568" />
      <line x1="4.023478" y1="-48.459657" x2="-34.980121" y2="-24.45411" />
      <path d="M 30.782155,-32.61008 A 3.0,3.0 1.2182217428360774e-15 0,1 32.110039,-30.119291" />
      <path d="M -36.40767,-21.899233 A 3.0,3.0 1.2182217428360774e-15 0,1 -34.980121,-24.45411" />
      <path d="M 4.023478,-48.459657 A 3.0,3.0 -5.616998167135672e-15 0,1 7.268044,-48.395568" />
      <line x1="32.110039" y1="26.567934" x2="32.110039" y2="-30.119291" />
      <line x1="-8.321108" y1="53.128358" x2="30.68249" y2="29.122811" />
      <line x1="-36.40767" y1="-21.899233" x2="-36.40767" y2="5.901864" />
      <line x1="-22.040449" y1="46.032346" x2="-11.565675" y2="53.064269" />
      <line x1="-36.24239" y1="6.883883" x2="-23.203054" y2="44.523575" />
      <path d="M -8.321108,53.128358 A 3.0,3.0 123.87424448243215 0,1 -11.565675,53.064269" />
      <path d="M 32.110039,26.567934 A 3.0,3.0 123.87424448243215 0,1 30.68249,29.122811" />
      <path d="M -36.24239,6.883883 A 3.0,3.0 -83.2988593784639 0,1 -36.40767,5.901864" />
      <path d="M -22.040449,46.032346 A 3.0,3.0 -83.29885937846409 0,1 -23.203054,44.523575" />
    </g>
    <g fill="none" stroke="rgb(99,99,99)" stroke-width="0.092230433946821" id="Hidden" stroke-dasharray="0.002343 0.277863">
      <path d="M -29.565129,6.507307 A 1.0,0.782354626340063 -83.29885937846392 0,0 -30.170727,5.958685" />
      <path d="M -30.170727,5.958685 A 1.0,0.782354626340063 -83.29885937846392 0,0 -30.489659,6.004418" />
      <path d="M -30.703755,7.826611 A 1.0,0.782354626340063 -83.29885937846392 0,0 -30.404108,7.945022" />
      <path d="M -30.404108,7.945022 A 1.0,0.782354626340063 -83.29885937846392 0,0 -29.565129,6.507307" />
      <path d="M -18.74001,37.755381 A 1.0,0.782354626340063 -83.29885937846392 0,0 -19.345608,37.20676" />
      <path d="M -19.345608,37.20676 A 1.0,0.782354626340063 -83.29885937846392 0,0 -19.66454,37.252492" />
      <path d="M -19.878635,39.074685 A 1.0,0.782354626340063 -83.29885937846392 0,0 -19.578989,39.193096" />
      <path d="M -19.578989,39.193096 A 1.0,0.782354626340063 -83.29885937846392 0,0 -18.74001,37.755381" />
      <path d="M 2.93787,-13.497316 A 1.0,0.782354626340063 -83.29885937846392 0,0 2.332271,-14.045937" />
      <path d="M 2.332271,-14.045937 A 1.0,0.782354626340063 -83.29885937846392 0,0 2.013339,-14.000204" />
      <path d="M 1.799244,-12.178011 A 1.0,0.782354626340063 -83.29885937846392 0,0 2.09889,-12.0596" />
      <path d="M 2.09889,-12.0596 A 1.0,0.782354626340063 -83.29885937846392 0,0 2.93787,-13.497316" />
      <path d="M -18.141801,34.092116 A 2.0,1.564709252680126 -83.29885937846392 0,0 -17.837181,34.168193" />
      <path d="M -17.837181,34.168193 A 2.0,1.564709252680126 -83.29885937846392 0,0 -16.985222,33.96746" />
      <line x1="-16.985222" y1="33.96746" x2="9.017177" y2="17.963763" />
      <path d="M 9.017177,17.963763 A 2.0,1.564709252680126 -83.29885937846392 0,0 9.843177,15.289064" />
      <line x1="9.843177" y1="15.289064" x2="1.80166" y2="-7.923791" />
      <path d="M 1.80166,-7.923791 A 2.0,1.564709252680126 -83.29885937846392 0,0 0.590463,-9.021033" />
      <path d="M 0.590463,-9.021033 A 2.0,1.564709252680126 -83.29885937846392 0,0 0.276505,-9.017635" />
      <path d="M 13.762989,17.750759 A 1.0,0.782354626340063 -83.29885937846392 0,0 13.157391,17.202137" />
      <path d="M 13.157391,17.202137 A 1.0,0.782354626340063 -83.29885937846392 0,0 12.838459,17.24787" />
      <path d="M 12.624363,19.070063 A 1.0,0.782354626340063 -83.29885937846392 0,0 12.92401,19.188474" />
      <path d="M 12.92401,19.188474 A 1.0,0.782354626340063 -83.29885937846392 0,0 13.762989,17.750759" />
      <line x1="-30.789306" y1="5.886007" x2="-30.170727" y2="5.958685" />
      <line x1="-31.022687" y1="7.872343" x2="-30.404108" y2="7.945022" />
      <line x1="-19.964186" y1="37.134081" x2="-19.345608" y2="37.20676" />
      <line x1="-20.197567" y1="39.120418" x2="-19.578989" y2="39.193096" />
      <line x1="1.713693" y1="-14.118615" x2="2.332271" y2="-14.045937" />
      <line x1="1.480312" y1="-12.132279" x2="2.09889" y2="-12.0596" />
      <line x1="-18.455759" y1="34.095514" x2="-17.837181" y2="34.168193" />
      <line x1="-0.028115" y1="-9.093712" x2="0.590463" y2="-9.021033" />
      <line x1="12.538812" y1="17.129459" x2="13.157391" y2="17.202137" />
      <line x1="12.305431" y1="19.115795" x2="12.92401" y2="19.188474" />
      <line x1="-35.297484" y1="6.556543" x2="-22.258147" y2="44.196236" />
      <path d="M -35.297484,6.556543 A 2.0,2.0 -83.2988593784639 0,1 -35.40767,5.901864" />
      <path d="M -21.483077,45.202083 A 2.0,2.0 -83.29885937846409 0,1 -22.258147,44.196236" />
      <line x1="4.547628" y1="-47.608031" x2="-34.45597" y2="-23.602485" />
      <line x1="-35.40767" y1="-21.899233" x2="-35.40767" y2="5.901864" />
      <line x1="30.224783" y1="-31.779817" x2="6.710672" y2="-47.565305" />
      <line x1="31.110039" y1="26.567934" x2="31.110039" y2="-30.119291" />
      <line x1="-21.483077" y1="45.202083" x2="-11.008303" y2="52.234006" />
      <line x1="-8.845259" y1="52.276732" x2="30.15834" y2="28.271185" />
      <path d="M 4.547628,-47.608031 A 2.0,2.0 -5.616998167135672e-15 0,1 6.710672,-47.565305" />
      <path d="M -35.40767,-21.899233 A 2.0,2.0 1.2182217428360774e-15 0,1 -34.45597,-23.602485" />
      <path d="M 30.224783,-31.779817 A 2.0,2.0 1.2182217428360774e-15 0,1 31.110039,-30.119291" />
      <path d="M 31.110039,26.567934 A 2.0,2.0 123.87424448243215 0,1 30.15834,28.271185" />
      <path d="M -8.845259,52.276732 A 2.0,2.0 123.87424448243215 0,1 -11.008303,52.234006" />
      <line x1="-9.893559" y1="-8.411875" x2="29.110039" y2="-32.417422" />
      <line x1="-9.893559" y1="-8.411875" x2="-33.40767" y2="-24.197364" />
      <line x1="29.110039" y1="-32.417422" x2="5.595928" y2="-48.20291" />
      <line x1="5.595928" y1="-48.20291" x2="-33.40767" y2="-24.197364" />
      <path d="M -9.893559,-8.411875 A 3.0,1.5893676777512733 -121.61105253573187 0,1 -7.818785,-4.720907" />
      <path d="M 29.110039,-32.417422 A 3.0,1.5893676777512733 -121.61105253573187 0,1 31.184814,-28.726454" />
      <line x1="-7.818785" y1="-4.720907" x2="31.184814" y2="-28.726454" />
      <path d="M -12.060426,-4.780103 A 3.0,1.6599142280430157 123.87424448243215 0,1 -9.893559,-8.411875" />
      <line x1="-12.060426" y1="-4.780103" x2="-35.574537" y2="-20.565591" />
      <path d="M -33.40767,-24.197364 A 3.0,1.6599142280430157 -56.125755517567846 0,0 -35.574537,-20.565591" />
      <path d="M 30.782155,-32.61008 A 3.0,1.6599142280430157 -56.125755517567846 0,0 29.110039,-32.417422" />
      <path d="M 7.268044,-48.395568 A 3.0,1.6599142280430157 -56.125755517567846 0,0 5.595928,-48.20291" />
      <path d="M 5.595928,-48.20291 A 3.0,1.5893676777512735 58.38894746426813 0,0 4.023478,-48.459657" />
      <path d="M -34.980121,-24.45411 A 3.0,1.5893676777512733 -121.61105253573187 0,1 -33.40767,-24.197364" />
      <path d="M -12.060426,-4.780103 A 3.0,1.9283659249374545 180.0 0,0 -7.818785,-4.720907" />
      <path d="M 32.110039,-30.119291 A 3.0,1.9283659249374545 -2.0759619792676526e-15 0,1 31.184814,-28.726454" />
      <line x1="-7.818785" y1="51.966318" x2="-7.818785" y2="-4.720907" />
      <line x1="31.184814" y1="27.960771" x2="31.184814" y2="-28.726454" />
      <line x1="-7.818785" y1="51.966318" x2="31.184814" y2="27.960771" />
      <line x1="-12.060426" y1="51.907122" x2="-12.060426" y2="-4.780103" />
      <line x1="-35.574537" y1="-20.565591" x2="-35.574537" y2="7.235506" />
      <line x1="-22.5352" y1="44.875198" x2="-12.060426" y2="51.907122" />
      <line x1="-35.574537" y1="7.235506" x2="-22.5352" y2="44.875198" />
      <path d="M -36.40767,-21.899233 A 3.0,1.9283659249374545 -180.0 0,0 -35.574537,-20.565591" />
      <path d="M -12.060426,51.907122 A 3.0,1.9283659249374545 180.0 0,0 -7.818785,51.966318" />
      <path d="M 32.110039,26.567934 A 3.0,1.9283659249374545 0.0 0,1 31.184814,27.960771" />
      <path d="M -7.818785,51.966318 A 3.0,1.5893676777512733 -121.61105253573187 0,1 -8.321108,53.128358" />
      <path d="M 31.184814,27.960771 A 3.0,1.5893676777512733 -121.61105253573187 0,1 30.68249,29.122811" />
      <path d="M -35.574537,7.235506 A 3.0,1.9283659249374565 5.397501146095901e-14 0,1 -36.40767,5.901864" />
      <path d="M -22.5352,44.875198 A 3.0,1.6599142280430215 -56.12575551756797 0,0 -22.040449,46.032346" />
      <path d="M -12.060426,51.907122 A 3.0,1.6599142280430157 -56.125755517567846 0,0 -11.565675,53.064269" />
      <path d="M -35.574537,7.235506 A 3.0,0.982446707317108 -19.10737283931542 0,1 -36.24239,6.883883" />
      <path d="M -22.5352,44.875198 A 3.0,0.9824467073171028 -19.1073728393155 0,1 -23.203054,44.523575" />
      <line x1="-16.985222" y1="33.96746" x2="-17.6038" y2="33.894782" />
      <line x1="9.017177" y1="17.963763" x2="8.398599" y2="17.891084" />
      <line x1="9.843177" y1="15.289064" x2="9.224599" y2="15.216385" />
      <line x1="1.80166" y1="-7.923791" x2="1.183081" y2="-7.99647" />
      <line x1="4.358772" y1="-18.24904" x2="-34.644827" y2="5.756507" />
      <line x1="4.358772" y1="-18.24904" x2="17.398109" y2="19.390653" />
      <line x1="-34.644827" y1="5.756507" x2="-21.60549" y2="43.396199" />
      <line x1="-21.60549" y1="43.396199" x2="17.398109" y2="19.390653" />
      <line x1="4.212745" y1="-19.03224" x2="-34.790853" y2="4.973306" />
      <path d="M 4.212745,-19.03224 A 2.0,1.0595784518341822 58.38894746426813 0,0 4.358772,-18.24904" />
      <path d="M -34.644827,5.756507 A 2.0,1.0595784518341822 -121.61105253573187 0,1 -34.790853,4.973306" />
      <path d="M 7.040506,-18.992777 A 2.0,0.6549644715447387 160.89262716068458 0,0 4.358772,-18.24904" />
      <line x1="7.040506" y1="-18.992777" x2="20.079843" y2="18.646916" />
      <path d="M 20.079843,18.646916 A 2.0,0.6549644715447351 160.8926271606845 0,0 17.398109,19.390653" />
      <path d="M -34.852248,6.790959 A 2.0,0.6549644715447388 -19.107372839315424 0,1 -35.297484,6.556543" />
      <path d="M -35.297484,6.556543 A 2.0,0.6549644715447388 -19.107372839315424 0,1 -34.644827,5.756507" />
      <line x1="-34.852248" y1="6.790959" x2="-21.812911" y2="44.430651" />
      <path d="M -21.812911,44.430651 A 2.0,0.6549644715447354 -19.107372839315502 0,1 -22.258147,44.196236" />
      <path d="M -22.258147,44.196236 A 2.0,0.6549644715447354 -19.107372839315502 0,1 -21.60549,43.396199" />
      <line x1="-20.368333" y1="45.073644" x2="18.635265" y2="21.068097" />
      <path d="M -21.60549,43.396199 A 2.0,1.0595784518341822 58.38894746426813 0,0 -20.368333,45.073644" />
      <path d="M 18.635265,21.068097 A 2.0,1.0595784518341822 -121.61105253573187 0,1 17.398109,19.390653" />
      <line x1="4.212745" y1="-46.833338" x2="-34.790853" y2="-22.827791" />
      <line x1="4.212745" y1="-46.833338" x2="4.212745" y2="-19.03224" />
      <line x1="-34.790853" y1="-22.827791" x2="-34.790853" y2="4.973306" />
      <path d="M 7.040506,-18.992777 A 2.0,1.2855772832916363 180.0 0,0 4.212745,-19.03224" />
      <path d="M -34.852248,6.790959 A 2.0,1.2855772832916377 5.3975011460958996e-14 0,1 -35.40767,5.901864" />
      <path d="M -35.40767,5.901864 A 2.0,1.2855772832916377 5.3975011460958996e-14 0,1 -34.790853,4.973306" />
      <line x1="30.554617" y1="-31.008385" x2="7.040506" y2="-46.793874" />
      <line x1="30.554617" y1="25.678839" x2="30.554617" y2="-31.008385" />
      <line x1="7.040506" y1="-46.793874" x2="7.040506" y2="-18.992777" />
      <line x1="20.079843" y1="18.646916" x2="30.554617" y2="25.678839" />
      <path d="M 20.079843,18.646916 A 2.0,1.1066094853620105 123.87424448243215 0,1 18.635265,21.068097" />
      <line x1="-11.338137" y1="-5.22465" x2="-34.852248" y2="-21.010139" />
      <line x1="-11.338137" y1="51.462575" x2="-11.338137" y2="30.038454" />
      <line x1="-11.338137" y1="-2.00296" x2="-11.338137" y2="-5.22465" />
      <line x1="-34.852248" y1="-21.010139" x2="-34.852248" y2="6.790959" />
      <line x1="-21.812911" y1="44.430651" x2="-11.338137" y2="51.462575" />
      <path d="M -21.812911,44.430651 A 2.0,1.106609485362014 -56.125755517567974 0,0 -21.483077,45.202083" />
      <path d="M -21.483077,45.202083 A 2.0,1.106609485362014 -56.125755517567974 0,0 -20.368333,45.073644" />
      <line x1="-9.893559" y1="52.105567" x2="29.110039" y2="28.100021" />
      <line x1="-20.368333" y1="45.073644" x2="-9.893559" y2="52.105567" />
      <line x1="18.635265" y1="21.068097" x2="29.110039" y2="28.100021" />
      <line x1="5.595928" y1="-47.436867" x2="-33.40767" y2="-23.43132" />
      <path d="M 5.595928,-47.436867 A 2.0,1.0595784518341824 58.38894746426813 0,0 4.547628,-47.608031" />
      <path d="M 4.547628,-47.608031 A 2.0,1.0595784518341824 58.38894746426813 0,0 4.212745,-46.833338" />
      <path d="M -34.790853,-22.827791 A 2.0,1.0595784518341822 -121.61105253573187 0,1 -34.45597,-23.602485" />
      <path d="M -34.45597,-23.602485 A 2.0,1.0595784518341822 -121.61105253573187 0,1 -33.40767,-23.43132" />
      <path d="M 7.040506,-46.793874 A 2.0,1.2855772832916363 180.0 0,0 4.212745,-46.833338" />
      <path d="M -34.790853,-22.827791 A 2.0,1.2855772832916361 -180.0 0,0 -35.40767,-21.899233" />
      <path d="M -35.40767,-21.899233 A 2.0,1.2855772832916361 -180.0 0,0 -34.852248,-21.010139" />
      <path d="M 30.554617,-31.008385 A 2.0,1.1066094853620105 -56.125755517567846 0,0 30.224783,-31.779817" />
      <path d="M 30.224783,-31.779817 A 2.0,1.1066094853620105 -56.125755517567846 0,0 29.110039,-31.651378" />
      <line x1="29.110039" y1="-31.651378" x2="5.595928" y2="-47.436867" />
      <path d="M 7.040506,-46.793874 A 2.0,1.1066094853620108 -56.125755517567846 0,0 6.710672,-47.565305" />
      <path d="M 6.710672,-47.565305 A 2.0,1.1066094853620108 -56.125755517567846 0,0 5.595928,-47.436867" />
      <path d="M 30.554617,25.678839 A 2.0,1.2855772832916363 -2.0759619792676523e-15 0,1 31.110039,26.567934" />
      <path d="M 31.110039,26.567934 A 2.0,1.2855772832916363 -2.0759619792676523e-15 0,1 30.493222,27.496492" />
      <line x1="30.493222" y1="27.496492" x2="30.493222" y2="-29.190733" />
      <path d="M 30.554617,-31.008385 A 2.0,1.2855772832916361 -1.0379809896338261e-14 0,1 31.110039,-30.119291" />
      <path d="M 31.110039,-30.119291 A 2.0,1.2855772832916361 -1.0379809896338261e-14 0,1 30.493222,-29.190733" />
      <path d="M 30.554617,25.678839 A 2.0,1.1066094853620105 123.87424448243215 0,1 29.110039,28.100021" />
      <path d="M -11.338137,-5.22465 A 2.0,1.1066094853620105 123.87424448243215 0,1 -9.893559,-7.645832" />
      <line x1="-9.893559" y1="-7.645832" x2="-33.40767" y2="-23.43132" />
      <path d="M -33.40767,-23.43132 A 2.0,1.1066094853620105 -56.125755517567846 0,0 -34.852248,-21.010139" />
      <path d="M -11.338137,51.462575 A 2.0,1.2855772832916363 180.0 0,0 -8.510376,51.502038" />
      <line x1="-8.510376" y1="51.502038" x2="-8.510376" y2="28.298052" />
      <line x1="-8.510376" y1="-3.743362" x2="-8.510376" y2="-5.185186" />
      <path d="M -11.338137,-5.22465 A 2.0,1.2855772832916361 180.0 0,0 -8.510376,-5.185186" />
      <path d="M -11.338137,51.462575 A 2.0,1.1066094853620105 -56.125755517567846 0,0 -11.008303,52.234006" />
      <path d="M -11.008303,52.234006 A 2.0,1.1066094853620105 -56.125755517567846 0,0 -9.893559,52.105567" />
      <line x1="-8.510376" y1="51.502038" x2="30.493222" y2="27.496492" />
      <path d="M -8.510376,51.502038 A 2.0,1.0595784518341822 -121.61105253573187 0,1 -8.845259,52.276732" />
      <path d="M -8.845259,52.276732 A 2.0,1.0595784518341822 -121.61105253573187 0,1 -9.893559,52.105567" />
      <path d="M 30.493222,27.496492 A 2.0,1.0595784518341822 -121.61105253573187 0,1 30.15834,28.271185" />
      <path d="M 30.15834,28.271185 A 2.0,1.0595784518341822 -121.61105253573187 0,1 29.110039,28.100021" />
      <line x1="-9.893559" y1="-7.645832" x2="29.110039" y2="-31.651378" />
      <path d="M 29.110039,-31.651378 A 2.0,1.0595784518341822 -121.61105253573187 0,1 30.493222,-29.190733" />
      <line x1="-8.510376" y1="-5.185186" x2="30.493222" y2="-29.190733" />
      <path d="M -9.893559,-7.645832 A 2.0,1.0595784518341822 -121.61105253573187 0,1 -8.510376,-5.185186" />
    </g>
  </g>
</svg>