<?xml version='1.0' encoding='utf-8'?>
<svg width="100.090012mm" height="60.568693mm" viewBox="-1.566656 -0.956995 3.133313 1.8961" version="1.1" xmlns="http://www.w3.org/2000/svg">
  <g transform="scale(1,-1)" stroke-linecap="round">
    <g fill="none" stroke="rgb(0,0,0)" stroke-width="0.0028174456516497355" id="Visible">
      <line x1="0.223607" y1="-0.937696" x2="0.223607" y2="0.028119" />
      <line x1="0.223607" y1="0.028119" x2="-1.565248" y2="0.259986" />
      <line x1="-1.565248" y1="-0.705829" x2="-1.565248" y2="0.259986" />
      <line x1="0.223607" y1="-0.937696" x2="-1.565248" y2="-0.705829" />
      <line x1="0.223607" y1="-0.937696" x2="1.565248" y2="-0.242095" />
      <line x1="1.565248" y1="-0.242095" x2="1.565248" y2="0.723719" />
      <line x1="0.223607" y1="0.028119" x2="1.565248" y2="0.723719" />
      <line x1="-1.565248" y1="0.259986" x2="-0.223607" y2="0.955586" />
      <line x1="1.565248" y1="0.723719" x2="-0.223607" y2="0.955586" />
      <path d="M 0.178885,0.584599 A 0.4,0.10369406523821684 0.0 0,1 -0.4,0.491853" />
      <path d="M -0.4,0.491853 A 0.4,0.10369406523821684 0.0 0,1 0.4,0.491853" />
      <path d="M 0.4,0.491853 A 0.4,0.10369406523821684 0.0 0,1 0.178885,0.584599" />
    </g>
    <g fill="none" stroke="rgb(99,99,99)" stroke-width="0.0028174456516497355" id="Hidden" stroke-dasharray="7.2e-05 0.008488">
      <line x1="-1.565248" y1="-0.705829" x2="-0.223607" y2="-0.010228" />
      <line x1="-0.223607" y1="-0.010228" x2="-0.223607" y2="0.955586" />
      <line x1="1.565248" y1="-0.242095" x2="-0.223607" y2="-0.010228" />
      <path d="M 0.178885,0.101692 A 0.4,0.10369406523821684 0.0 0,1 -0.4,0.008945" />
      <path d="M -0.4,0.008945 A 0.4,0.10369406523821684 0.0 0,1 0.4,0.008945" />
      <path d="M 0.4,0.008945 A 0.4,0.10369406523821684 0.0 0,1 0.178885,0.101692" />
      <path d="M -0.089443,-0.037428 A 0.2,0.05184703261910842 180.0 0,0 -0.2,0.008945" />
      <path d="M -0.2,0.008945 A 0.2,0.05184703261910842 180.0 0,0 0.2,0.008945" />
      <path d="M 0.2,0.008945 A 0.2,0.05184703261910842 180.0 0,0 -0.089443,-0.037428" />
      <path d="M -0.089443,-0.423754 A 0.2,0.05184703261910842 180.0 0,0 -0.2,-0.37738" />
      <path d="M -0.2,-0.37738 A 0.2,0.05184703261910842 180.0 0,0 0.2,-0.37738" />
      <path d="M 0.2,-0.37738 A 0.2,0.05184703261910842 180.0 0,0 -0.089443,-0.423754" />
      <line x1="0.4" y1="0.008945" x2="0.4" y2="0.491853" />
      <line x1="-0.4" y1="0.008945" x2="-0.4" y2="0.491853" />
      <line x1="-0.2" y1="0.008945" x2="-0.2" y2="-0.37738" />
      <line x1="0.2" y1="0.008945" x2="0.2" y2="-0.37738" />
    </g>
  </g>
</svg>