<?xml version="1.0" encoding="UTF-8" standalone="no"?>
    <svg
    xmlns:svg="http://www.w3.org/2000/svg"
    xmlns="http://www.w3.org/2000/svg"
    width="353"
    height="229"
    >
        <g transform="scale(100, -100)   translate(1.765247584249853,-1.1555864633907678)" stroke-width="0.01"  fill="none">
        <!-- hidden lines -->
        <g  stroke="rgb(160,160,160)" fill="none" stroke-dasharray="0.01,0.01" >
    			<path d="M-1.565247584249853,-0.7058287045484397 L-0.22360679774997916,-0.010227768340587584 " />
			<path d="M-0.22360679774997894,-0.010227768340587529 L-0.22360679774997894,0.9555864633907676 " />
			<path d="M1.565247584249853,-0.24209474707653827 L-0.22360679774997894,-0.010227768340587556 " />
			<path d="M0.17888543819998323,0.10169218154756893 L0.08312656995769709,0.1103755904158152 L-0.017979290412889766,0.11253465354013222 L-0.11792865985212844,0.1080304924183022 L-0.21029244484765341,0.09715283046938694 L-0.25174329386988753,0.08952763620036928 L-0.2891294832468283,0.08060135700866511 L-0.3218473737199446,0.07051811703857797 L-0.34936870061516767,0.05944072078023021 L-0.3712491032303858,0.04754802442023193 L-0.387135299505268,0.03503204802086614 L-0.39677079013084315,0.022094875154687634 L-0.4,0.008945390053189091 " />
			<path d="M-0.4,0.00894539005318863 L-0.39807389066887877,-0.0012184056906082933 L-0.3923141121612922,-0.011284318525296527 L-0.3827761342928836,-0.021155408207690296 L-0.3695518130045148,-0.030736610748061728 L-0.3325878449210182,-0.048663945933957314 L-0.28284271247461906,-0.06437738664555476 L-0.22222809320784087,-0.07727307416850637 L-0.15307337294603615,-0.08685543446329 L-0.07803612880645147,-0.09275622279762674 L-7.347880794884119e-17,-0.09474867518502822 L0.07803612880645133,-0.09275622279762676 L0.153073372946036,-0.08685543446329001 L0.22222809320784076,-0.07727307416850639 L0.28284271247461895,-0.06437738664555477 L0.3325878449210181,-0.04866394593395734 L0.3695518130045146,-0.030736610748061804 L0.3827761342928835,-0.02115540820769042 L0.39231411216129214,-0.011284318525296565 L0.39807389066887877,-0.0012184056906082846 L0.4,0.00894539005318767 " />
			<path d="M0.4,0.008945390053188618 L0.3961755527827448,0.023250218848129754 L0.384775343113567,0.03728150732968026 L0.3660173684931937,0.05077094588690129 L0.340260323340816,0.06346058629103035 L0.3079967399547226,0.07510777424240972 L0.2698435701934116,0.08548978946329192 L0.22653038797649858,0.09440810460757189 L0.178885438199984,0.10169218154756882 " />
			<path d="M-0.08944271909999157,-0.037428005694001544 L-0.13492178509670585,-0.02932680965186301 L-0.17013016167040804,-0.018312208065732236 L-0.18300868424659686,-0.011967387863667717 L-0.1923876715567835,-0.005222668585057204 L-0.1980877763913724,0.0017929756557180446 L-0.2,0.008945390053188144 " />
			<path d="M-0.2,0.008945390053188618 L-0.1961570560806461,0.019060244342431185 L-0.18477590650225736,0.028786390453813798 L-0.16629392246050906,0.0377500580467616 L-0.14142135623730953,0.045606778402560305 L-0.11111404660392046,0.05205462216403611 L-0.07653668647301798,0.05684580231142794 L-0.039018064403225666,0.059796196478596304 L-1.2246467991473533e-17,0.060792422672297036 L0.03901806440322564,0.059796196478596304 L0.07653668647301795,0.05684580231142794 L0.1111140466039204,0.05205462216403612 L0.1414213562373095,0.04560677840256031 L0.16629392246050909,0.0377500580467616 L0.18477590650225736,0.028786390453813804 L0.1961570560806461,0.019060244342431205 L0.2,0.008945390053188854 " />
			<path d="M0.2,0.008945390053188625 L0.1983853950654216,0.0023706475024391207 L0.193567649752634,-0.004097938930650129 L0.17468435030758386,-0.016302275310332168 L0.14456474162341412,-0.026882593424549635 L0.10514622242382668,-0.03515833015491055 L0.05896432992606428,-0.040597161129368176 L0.008989645206444975,-0.04284924169028318 L-0.041563284978848584,-0.04176971012812467 L-0.08944271909998998,-0.037428005694001745 " />
			<path d="M-0.08944271909999157,-0.42375369838654364 L-0.13492178509670585,-0.4156525023444051 L-0.17013016167040804,-0.4046379007582743 L-0.18300868424659686,-0.3982930805562098 L-0.1923876715567835,-0.3915483612775993 L-0.1980877763913724,-0.384532717036824 L-0.2,-0.37738030263935396 " />
			<path d="M-0.2,-0.37738030263935346 L-0.1961570560806461,-0.3672654483501109 L-0.18477590650225736,-0.35753930223872826 L-0.16629392246050906,-0.34857563464578045 L-0.14142135623730953,-0.3407189142899818 L-0.11111404660392046,-0.33427107052850596 L-0.07653668647301798,-0.32947989038111414 L-0.039018064403225666,-0.3265294962139458 L-1.2246467991473533e-17,-0.325533270020245 L0.03901806440322564,-0.3265294962139458 L0.07653668647301795,-0.32947989038111414 L0.1111140466039204,-0.33427107052850596 L0.1414213562373095,-0.34071891428998174 L0.16629392246050909,-0.34857563464578045 L0.18477590650225736,-0.35753930223872826 L0.1961570560806461,-0.3672654483501109 L0.2,-0.37738030263935324 " />
			<path d="M0.2,-0.37738030263935346 L0.1983853950654216,-0.383955045190103 L0.193567649752634,-0.3904236316231922 L0.17468435030758386,-0.40262796800287426 L0.14456474162341412,-0.4132082861170917 L0.10514622242382668,-0.4214840228474526 L0.05896432992606428,-0.42692285382191025 L0.008989645206444975,-0.4291749343828253 L-0.041563284978848584,-0.42809540282066677 L-0.08944271909998998,-0.4237536983865438 " />
			<path d="M0.4000000000000001,0.008945390053188618 L0.4000000000000001,0.4918525059188662 " />
			<path d="M-0.4000000000000001,0.008945390053188618 L-0.4000000000000001,0.4918525059188662 " />
			<path d="M-0.20000000000000004,0.008945390053188618 L-0.20000000000000004,-0.3773803026393535 " />
			<path d="M0.20000000000000004,0.008945390053188618 L0.20000000000000004,-0.3773803026393535 " />

        </g>

        <!-- solid lines -->
        <g  stroke="rgb(0,0,0)" fill="none">
    			<path d="M0.22360679774997894,-0.9376956832843903 L0.22360679774997894,0.02811854844696482 " />
			<path d="M0.22360679774997894,0.028118548446964764 L-1.565247584249853,0.25998552718291545 " />
			<path d="M-1.565247584249853,-0.7058287045484397 L-1.565247584249853,0.25998552718291545 " />
			<path d="M0.22360679774997894,-0.9376956832843903 L-1.565247584249853,-0.7058287045484396 " />
			<path d="M0.22360679774997894,-0.9376956832843903 L1.5652475842498528,-0.24209474707653822 " />
			<path d="M1.565247584249853,-0.24209474707653827 L1.565247584249853,0.723719484654817 " />
			<path d="M0.22360679774997894,0.028118548446964764 L1.5652475842498528,0.723719484654817 " />
			<path d="M-1.565247584249853,0.2599855271829155 L-0.22360679774997916,0.9555864633907676 " />
			<path d="M1.565247584249853,0.723719484654817 L-0.22360679774997894,0.9555864633907677 " />
			<path d="M0.17888543819998323,0.5845992974132466 L0.08312656995769709,0.5932827062814928 L-0.017979290412889766,0.5954417694058098 L-0.11792865985212844,0.5909376082839798 L-0.21029244484765341,0.5800599463350645 L-0.25174329386988753,0.5724347520660469 L-0.2891294832468283,0.5635084728743427 L-0.3218473737199446,0.5534252329042555 L-0.34936870061516767,0.5423478366459078 L-0.3712491032303858,0.5304551402859095 L-0.387135299505268,0.5179391638865437 L-0.39677079013084315,0.5050019910203652 L-0.4,0.4918525059188667 " />
			<path d="M-0.4,0.4918525059188662 L-0.39807389066887877,0.4816887101750693 L-0.3923141121612922,0.47162279734038104 L-0.3827761342928836,0.4617517076579873 L-0.3695518130045148,0.45217050511761586 L-0.3325878449210182,0.4342431699317203 L-0.28284271247461906,0.4185297292201228 L-0.22222809320784087,0.4056340416971712 L-0.15307337294603615,0.39605168140238756 L-0.07803612880645147,0.39015089306805084 L-7.347880794884119e-17,0.38815844068064936 L0.07803612880645133,0.39015089306805084 L0.153073372946036,0.39605168140238756 L0.22222809320784076,0.4056340416971712 L0.28284271247461895,0.4185297292201228 L0.3325878449210181,0.43424316993172024 L0.3695518130045146,0.4521705051176158 L0.3827761342928835,0.4617517076579872 L0.39231411216129214,0.47162279734038104 L0.39807389066887877,0.4816887101750693 L0.4,0.49185250591886526 " />
			<path d="M0.4,0.4918525059188662 L0.3961755527827448,0.5061573347138073 L0.384775343113567,0.5201886231953579 L0.3660173684931937,0.5336780617525789 L0.340260323340816,0.5463677021567079 L0.3079967399547226,0.5580148901080872 L0.2698435701934116,0.5683969053289695 L0.22653038797649858,0.5773152204732495 L0.178885438199984,0.5845992974132463 " />

        </g>
        </g>
    </svg>
    