<?xml version="1.0" encoding="UTF-8" standalone="no"?>
    <svg
    xmlns:svg="http://www.w3.org/2000/svg"
    xmlns="http://www.w3.org/2000/svg"
    width="353"
    height="229"
    >
        <g transform="scale(100, -100)   translate(1.765247584249853,-1.150227354649857)" stroke-width="0.01"  fill="none">
        <!-- hidden lines -->
        <g  stroke="rgb(160,160,160)" fill="none" stroke-dasharray="0.01,0.01" >
    			<path d="M-1.565247584249853,-0.71108130582616 L-0.22360679774997894,-0.015598714104224642 " />
			<path d="M-0.22360679774997894,-0.015598714104224698 L-0.22360679774997894,0.950227354649857 " />
			<path d="M1.565247584249853,-0.24742624467820312 L-0.22360679774997894,-0.015598714104224642 " />
			<path d="M-0.08944271909999156,0.2179956281140719 L-0.12600284426264147,0.22410442936524091 L-0.15660263397880453,0.23211750084428903 L-0.17979462083322048,0.2416557987744563 L-0.19448175005596086,0.2522681313149151 " />
			<path d="M-0.19448175005596127,0.25226813131491554 L-0.1986156464269523,0.2582724885800971 L-0.2,0.2643611342288671 " />
			<path d="M-0.2,0.2643611342288676 L-0.1961570560806461,0.2744742676503415 L-0.18477590650225736,0.28419875902593866 L-0.16629392246050906,0.2931609016056526 L-0.14142135623730953,0.3010162852761723 L-0.11111404660392045,0.3074630320483896 L-0.07653668647301796,0.31225339705922545 L-0.03901806440322566,0.3152032892677811 L-2.5053943367735786e-18,0.31619934597080024 L0.039018064403225645,0.3152032892677811 L0.07653668647301796,0.31225339705922545 L0.11111404660392041,0.3074630320483896 L0.1414213562373095,0.3010162852761723 L0.16629392246050909,0.2931609016056526 L0.18477590650225736,0.2841987590259387 L0.1961570560806461,0.2744742676503415 L0.2,0.2643611342288678 " />
			<path d="M0.2,0.2643611342288676 L0.1986156464269523,0.2582724885800971 L0.19448175005596155,0.2522681313149158 " />
			<path d="M0.19448175005596133,0.2522681313149156 L0.17918146307164573,0.2413324742608499 L0.15485840105531823,0.23155643726244274 L0.12273736434570164,0.22343229770726064 L0.08443582432101522,0.21736915083472447 L0.04188247479309698,0.2136723095342321 L-0.0027798883647127083,0.2125279301570689 L-0.04730226880947328,0.21399363851728062 L-0.0894427190999898,0.21799562811407167 " />
			<path d="M-0.08944271909999156,-0.4290366744915692 L-0.13492178509670585,-0.42093685672802544 L-0.17013016167040804,-0.40992412908612685 L-0.18300868424659686,-0.40358038834564147 L-0.1923876715567835,-0.3968368165645315 L-0.1980877763913724,-0.3898223659144601 L-0.2,-0.38267116837677395 " />
			<path d="M-0.2,-0.38267116837677345 L-0.1961570560806461,-0.37255803495529954 L-0.18477590650225736,-0.3628335435797024 L-0.16629392246050906,-0.35387140099998843 L-0.14142135623730953,-0.34601601732946874 L-0.11111404660392045,-0.33956927055725145 L-0.07653668647301796,-0.3347789055464156 L-0.03901806440322566,-0.33182901333785997 L-2.5053943367735786e-18,-0.3308329566348408 L0.039018064403225645,-0.33182901333785997 L0.07653668647301796,-0.3347789055464156 L0.11111404660392041,-0.33956927055725145 L0.1414213562373095,-0.34601601732946874 L0.16629392246050909,-0.35387140099998843 L0.18477590650225736,-0.3628335435797023 L0.1961570560806461,-0.37255803495529954 L0.2,-0.38267116837677323 " />
			<path d="M0.2,-0.38267116837677345 L0.1983853950654216,-0.3892447923486271 L0.193567649752634,-0.39571227826345046 L0.17468435030758386,-0.40791453828607255 L0.14456474162341412,-0.4184930563418903 L0.1051462224238267,-0.4267673850985727 L0.058964329926064284,-0.43220529074987135 L0.008989645206444985,-0.4344569881581735 L-0.04156328497884858,-0.43337764025966624 L-0.08944271909998996,-0.42903667449156935 " />
			<path d="M-0.19448175005596124,0.2522681313149153 L-0.3889635001119226,0.4623862876739958 " />
			<path d="M0.19448175005596124,0.25226813131491554 L0.3889635001119225,0.4623862876739958 " />
			<path d="M-0.20000000000000004,0.26436113422886753 L-0.20000000000000004,-0.3826711683767735 " />
			<path d="M0.20000000000000004,0.26436113422886753 L0.20000000000000004,-0.3826711683767735 " />

        </g>

        <!-- solid lines -->
        <g  stroke="rgb(0,0,0)" fill="none">
    			<path d="M0.22360679774997894,-0.9429088364001386 L0.22360679774997894,0.02291723235394305 " />
			<path d="M0.22360679774997894,0.022917232353943107 L-1.565247584249853,0.2547447629279216 " />
			<path d="M-1.565247584249853,-0.71108130582616 L-1.565247584249853,0.2547447629279216 " />
			<path d="M0.22360679774997894,-0.9429088364001386 L-1.565247584249853,-0.71108130582616 " />
			<path d="M0.22360679774997894,-0.9429088364001386 L1.565247584249853,-0.24742624467820318 " />
			<path d="M1.565247584249853,-0.24742624467820312 L1.565247584249853,0.7183998240758784 " />
			<path d="M0.22360679774997894,0.022917232353943107 L1.565247584249853,0.7183998240758784 " />
			<path d="M1.565247584249853,0.7183998240758784 L-0.22360679774997894,0.950227354649857 " />
			<path d="M-1.565247584249853,0.25474476292792153 L-0.22360679774997894,0.950227354649857 " />
			<path d="M-0.17888543819998315,0.3938412812723086 L-0.25200568852528293,0.40605888377464666 L-0.31320526795760906,0.4220850267327429 L-0.33840415491223375,0.4312955066159675 L-0.35958924166644096,0.44116162259307745 L-0.37650925262498264,0.4515663529971947 L-0.3889635001119217,0.46238628767399503 " />
			<path d="M-0.38896350011192254,0.4623862876739959 L-0.39699944704895973,0.4738972437327404 L-0.39998129107623664,0.485569562751549 L-0.3978710710663847,0.4972546472904125 L-0.39069565171448417,0.5088037373946063 L-0.3785463815301988,0.5200698044213083 L-0.3615779299022297,0.5309094228253084 L-0.3400063180401392,0.5411845960745618 L-0.3141061688611403,0.5507645134503047 L-0.25069008028087997,0.5673611460066973 L-0.17454872506446437,0.5798568596587569 L-0.08954711073864297,0.5876173601103019 L-1.1272360626003537e-16,0.5902487169857653 L0.08954711073864276,0.5876173601103019 L0.17454872506446384,0.579856859658757 L0.2506900802808798,0.5673611460066974 L0.3141061688611401,0.5507645134503049 L0.3400063180401391,0.5411845960745619 L0.3615779299022297,0.5309094228253084 L0.3785463815301989,0.5200698044213082 L0.3906956517144843,0.5088037373946062 L0.39787107106638475,0.49725464729041247 L0.39998129107623664,0.48556956275154906 L0.39699944704895973,0.47389724373274045 L0.38896350011192415,0.4623862876739977 " />
			<path d="M0.3889635001119225,0.46238628767399587 L0.3760376559646101,0.4512274500179231 L0.35836292614329124,0.4405149735658645 L0.3361625203981308,0.4303841435084105 L0.3097168021106362,0.4209628995690502 L0.24547472869140266,0.404714620458686 L0.16887164864203008,0.39258832671361377 L0.08376494958619361,0.385194644112629 L-0.005559776729426137,0.3829058853583026 L-0.09460453761894691,0.38583730207872613 L-0.17888543819997996,0.3938412812723082 " />

        </g>
        </g>
    </svg>
    