<?xml version='1.0' encoding='utf-8'?>
<svg width="100.090012mm" height="60.564029mm" viewBox="-1.566656 -0.951636 3.133313 1.895954" version="1.1" xmlns="http://www.w3.org/2000/svg">
  <g transform="scale(1,-1)" stroke-linecap="round">
    <g fill="none" stroke="rgb(0,0,0)" stroke-width="0.0028174456516497355" id="Visible">
      <line x1="0.223607" y1="-0.942909" x2="0.223607" y2="0.022917" />
      <line x1="0.223607" y1="0.022917" x2="-1.565248" y2="0.254745" />
      <line x1="-1.565248" y1="-0.711081" x2="-1.565248" y2="0.254745" />
      <line x1="0.223607" y1="-0.942909" x2="-1.565248" y2="-0.711081" />
      <line x1="0.223607" y1="-0.942909" x2="1.565248" y2="-0.247426" />
      <line x1="1.565248" y1="-0.247426" x2="1.565248" y2="0.7184" />
      <line x1="0.223607" y1="0.022917" x2="1.565248" y2="0.7184" />
      <line x1="1.565248" y1="0.7184" x2="-0.223607" y2="0.950227" />
      <line x1="-1.565248" y1="0.254745" x2="-0.223607" y2="0.950227" />
      <path d="M -0.178885,0.393841 A 0.4,0.10367642348386535 180.0 0,0 -0.388964,0.462386" />
      <path d="M -0.388964,0.462386 A 0.4,0.10367642348386535 180.0 1,0 0.388964,0.462386" />
      <path d="M 0.388964,0.462386 A 0.4,0.10367642348386535 180.0 0,0 -0.178885,0.393841" />
    </g>
    <g fill="none" stroke="rgb(99,99,99)" stroke-width="0.0028174456516497355" id="Hidden" stroke-dasharray="7.2e-05 0.008488">
      <line x1="-1.565248" y1="-0.711081" x2="-0.223607" y2="-0.015599" />
      <line x1="-0.223607" y1="-0.015599" x2="-0.223607" y2="0.950227" />
      <line x1="1.565248" y1="-0.247426" x2="-0.223607" y2="-0.015599" />
      <path d="M -0.089443,0.217996 A 0.2,0.05183821174193268 180.0 0,0 -0.194482,0.252268" />
      <path d="M -0.194482,0.252268 A 0.2,0.05183821174193268 180.0 0,0 -0.2,0.264361" />
      <path d="M -0.2,0.264361 A 0.2,0.05183821174193268 180.0 0,0 0.2,0.264361" />
      <path d="M 0.2,0.264361 A 0.2,0.05183821174193268 180.0 0,0 0.194482,0.252268" />
      <path d="M 0.194482,0.252268 A 0.2,0.05183821174193268 180.0 0,0 -0.089443,0.217996" />
      <path d="M -0.089443,-0.429037 A 0.2,0.05183821174193268 180.0 0,0 -0.2,-0.382671" />
      <path d="M -0.2,-0.382671 A 0.2,0.05183821174193268 180.0 0,0 0.2,-0.382671" />
      <path d="M 0.2,-0.382671 A 0.2,0.05183821174193268 180.0 0,0 -0.089443,-0.429037" />
      <line x1="-0.194482" y1="0.252268" x2="-0.388964" y2="0.462386" />
      <line x1="0.194482" y1="0.252268" x2="0.388964" y2="0.462386" />
      <line x1="-0.2" y1="0.264361" x2="-0.2" y2="-0.382671" />
      <line x1="0.2" y1="0.264361" x2="0.2" y2="-0.382671" />
    </g>
  </g>
</svg>