<?xml version="1.0" encoding="UTF-8" standalone="no"?>
    <svg
    xmlns:svg="http://www.w3.org/2000/svg"
    xmlns="http://www.w3.org/2000/svg"
    width="240"
    height="284"
    >
        <g transform="scale(100, -100)   translate(1.2000000000000002,-1.424994789282228)" stroke-width="0.01"  fill="none">
        <!-- hidden lines -->
        <g  stroke="rgb(160,160,160)" fill="none" stroke-dasharray="0.01,0.01" >
    			<path d="M0.44721359549995804,-0.7340340388219431 L0.3301805660533586,-0.7212080291357508 L0.2078164248942427,-0.7123317666703257 L0.08209686948392014,-0.7075485679974409 L-0.04494822603222441,-0.7069356628788994 L-0.17126758527284722,-0.7105029473109894 L-0.2948216496303211,-0.7181928237432398 L-0.4136155090846586,-0.7298811310513127 L-0.5257311121191335,-0.7453791492486433 L-0.6293582346747187,-0.7644366465686555 L-0.7228237081170708,-0.7867459197192134 L-0.8046184342998615,-0.8119467620751593 L-0.8734217515379191,-0.8396322795922588 L-0.9025957662970502,-0.8542684740430225 L-0.9281227580759644,-0.8693554605385174 L-0.9498995826664683,-0.8848322786925931 L-0.9678382487631699,-0.9006363929676631 L-0.9818662735006137,-0.9167039453554191 L-0.9919269753271078,-0.9329700134011125 L-0.9979797030318572,-0.9493688725288306 L-1.0,-0.9658342616078186 " />
			<path d="M1.0,-0.9658342616078198 L0.9976068569223203,-0.9479154914953319 L0.9904388819568619,-0.9300824857441545 L0.9785303830829639,-0.912420598222823 L0.9619383577839175,-0.895014363779058 L0.9407422202407008,-0.8779470936317947 L0.9150434212329842,-0.8613004766198489 L0.8849649625666675,-0.8451541882157583 L0.85065080835204,-0.8295855091761717 L0.812265195950352,-0.8146689556540339 L0.7699918498868065,-0.8004759225429532 L0.6746089254835289,-0.7745283571081676 L0.5663259699412464,-0.7522389883439229 L0.44721359549996,-0.7340340388219433 " />

        </g>

        <!-- solid lines -->
        <g  stroke="rgb(0,0,0)" fill="none">
    			<path d="M0.44721359549995804,1.1976344843936966 L0.3301805660533586,1.2104604940798889 L0.2078164248942427,1.219336756545314 L0.08209686948392014,1.2241199552181987 L-0.04494822603222441,1.2247328603367402 L-0.17126758527284722,1.2211655759046502 L-0.2948216496303211,1.2134756994723999 L-0.4136155090846586,1.201787392164327 L-0.5257311121191335,1.1862893739669964 L-0.6293582346747187,1.167231876646984 L-0.7228237081170708,1.1449226034964264 L-0.8046184342998615,1.1197217611404804 L-0.8734217515379191,1.0920362436233808 L-0.9025957662970502,1.0774000491726172 L-0.9281227580759644,1.0623130626771222 L-0.9498995826664683,1.0468362445230466 L-0.9678382487631699,1.0310321302479766 L-0.9818662735006137,1.0149645778602205 L-0.9919269753271078,0.9986985098145271 L-0.9979797030318572,0.982299650686809 L-1.0,0.965834261607821 " />
			<path d="M-1.0,0.9658342616078198 L-0.9987954562051724,0.9531178572373702 L-0.9951847266721969,0.9404320877988744 L-0.9891765099647809,0.9278075144220519 L-0.9807852804032304,0.9152745508099498 L-0.9569403357322089,0.8906039314747581 L-0.9238795325112868,0.8666578213438295 L-0.881921264348355,0.8436668345480002 L-0.8314696123025455,0.8218523868582659 L-0.7730104533627371,0.8014245633308688 L-0.7071067811865477,0.7825800950733619 L-0.6343932841636452,0.7655004646164993 L-0.5555702330196022,0.7503501581382567 L-0.47139673682599786,0.737275081372019 L-0.38268343236509034,0.7264011544546093 L-0.2902846772544633,0.7178330992465354 L-0.19509032201612866,0.7116534308032263 L-0.09801714032956045,0.7079216627099416 L-1.8369701987210297e-16,0.7066737339334117 L0.09801714032956009,0.7079216627099416 L0.1950903220161283,0.7116534308032263 L0.29028467725446294,0.7178330992465354 L0.38268343236509,0.7264011544546093 L0.4713967368259976,0.737275081372019 L0.5555702330196018,0.7503501581382566 L0.6343932841636449,0.7655004646164993 L0.7071067811865474,0.7825800950733619 L0.7730104533627372,0.8014245633308688 L0.8314696123025452,0.8218523868582659 L0.8819212643483548,0.8436668345480001 L0.9238795325112865,0.8666578213438293 L0.9569403357322086,0.8906039314747578 L0.9807852804032303,0.9152745508099497 L0.989176509964781,0.9278075144220521 L0.9951847266721969,0.9404320877988744 L0.9987954562051724,0.9531178572373702 L1.0,0.9658342616078175 " />
			<path d="M1.0,0.9658342616078198 L0.9976068569223203,0.9837530317203077 L0.9904388819568619,1.0015860374714851 L0.9785303830829639,1.0192479249928168 L0.9619383577839175,1.0366541594365817 L0.9407422202407008,1.0537214295838448 L0.9150434212329842,1.0703680465957908 L0.8849649625666675,1.0865143349998814 L0.85065080835204,1.102083014039468 L0.812265195950352,1.1169995675616058 L0.7699918498868065,1.1311926006726865 L0.6746089254835289,1.157140166107472 L0.5663259699412464,1.1794295348717168 L0.44721359549996,1.1976344843936964 " />
			<path d="M-1.0,-0.9658342616078198 L-0.9987954562051724,-0.9785506659782695 L-0.9951847266721969,-0.9912364354167652 L-0.9891765099647809,-1.0038610087935878 L-0.9807852804032304,-1.0163939724056898 L-0.9569403357322089,-1.0410645917408814 L-0.9238795325112868,-1.06501070187181 L-0.881921264348355,-1.0880016886676396 L-0.8314696123025455,-1.1098161363573738 L-0.7730104533627371,-1.1302439598847709 L-0.7071067811865477,-1.1490884281422777 L-0.6343932841636452,-1.1661680585991403 L-0.5555702330196022,-1.181318365077383 L-0.47139673682599786,-1.1943934418436206 L-0.38268343236509034,-1.2052673687610302 L-0.2902846772544633,-1.2138354239691043 L-0.19509032201612866,-1.2200150924124133 L-0.09801714032956045,-1.223746860505698 L-1.8369701987210297e-16,-1.224994789282228 L0.09801714032956009,-1.223746860505698 L0.1950903220161283,-1.2200150924124133 L0.29028467725446294,-1.2138354239691043 L0.38268343236509,-1.2052673687610302 L0.4713967368259976,-1.1943934418436206 L0.5555702330196018,-1.181318365077383 L0.6343932841636449,-1.1661680585991403 L0.7071067811865474,-1.1490884281422777 L0.7730104533627372,-1.1302439598847709 L0.8314696123025452,-1.1098161363573738 L0.8819212643483548,-1.0880016886676396 L0.9238795325112865,-1.0650107018718102 L0.9569403357322086,-1.0410645917408818 L0.9807852804032303,-1.0163939724056898 L0.989176509964781,-1.0038610087935875 L0.9951847266721969,-0.9912364354167652 L0.9987954562051724,-0.9785506659782695 L1.0,-0.9658342616078222 " />
			<path d="M1.0000000000000002,-0.9658342616078198 L1.0000000000000002,0.9658342616078198 " />
			<path d="M-1.0000000000000002,-0.9658342616078198 L-1.0000000000000002,0.9658342616078198 " />

        </g>
        </g>
    </svg>
    