<?xml version='1.0' encoding='utf-8'?>
<svg width="81.723001mm" height="100.090018mm" viewBox="-1.001102 -1.226097 2.002205 2.452195" version="1.1" xmlns="http://www.w3.org/2000/svg">
  <g transform="scale(1,-1)" stroke-linecap="round">
    <g fill="none" stroke="rgb(0,0,0)" stroke-width="0.00220499062070801" id="Visible">
      <path d="M 0.447214,1.197634 A 1.0,0.2591605276744081 0.0 0,1 -1.0,0.965834" />
      <path d="M -1.0,0.965834 A 1.0,0.2591605276744081 0.0 0,1 1.0,0.965834" />
      <path d="M 1.0,0.965834 A 1.0,0.2591605276744081 0.0 0,1 0.447214,1.197634" />
      <path d="M -1.0,-0.965834 A 1.0,0.2591605276744081 0.0 0,1 1.0,-0.965834" />
      <line x1="1.0" y1="-0.965834" x2="1.0" y2="0.965834" />
      <line x1="-1.0" y1="-0.965834" x2="-1.0" y2="0.965834" />
    </g>
    <g fill="none" stroke="rgb(99,99,99)" stroke-width="0.00220499062070801" id="Hidden" stroke-dasharray="5.6e-05 0.006643">
      <path d="M 0.447214,-0.734034 A 1.0,0.2591605276744081 0.0 0,1 -1.0,-0.965834" />
      <path d="M 1.0,-0.965834 A 1.0,0.2591605276744081 0.0 0,1 0.447214,-0.734034" />
    </g>
  </g>
</svg>