<?xml version='1.0' encoding='utf-8'?>
<svg width="100.09mm" height="100.09mm" viewBox="-50.045 -50.045 100.09 100.09" version="1.1" xmlns="http://www.w3.org/2000/svg">
  <g transform="scale(1,-1)" stroke-linecap="round">
    <g fill="none" stroke="rgb(0,0,0)" stroke-width="0.09">
      <path d="M -50.0,50.0 L -50.0,-50.0 L 50.0,-50.0 L 50.0,50.0 L -50.0,50.0 M -45.0,0.0 A 45.0,45.0 0.0 0,0 45.0,0.0 A 45.0,45.0 0.0 0,0 -45.0,0.0" />
      <path d="M 42.0,-1.0 A 10.137937550497139,10.137937550497139 99.46232220802561 0,0 45.0,0.0 A 10.137937550497139,10.137937550497139 -99.46232220802564 0,0 42.0,1.0 L 42.28125,0.25 L 11.974984,0.25 L 11.974984,-0.25 L 42.28125,-0.25 L 42.0,-1.0" />
      <path d="M -42.0,1.0 A 10.137937550497139,10.137937550497139 -80.53767779197439 0,0 -45.0,0.0 A 10.137937550497139,10.137937550497139 80.53767779197437 0,0 -42.0,-1.0 L -42.28125,-0.25 L -11.974984,-0.25 L -11.974984,0.25 L -42.28125,0.25 L -42.0,1.0" />
      <path d="M -9.899984,-0.905005 Q -9.834993,-1.339998 -9.567489,-1.585002 Q -9.299984,-1.830005 -8.894987,-1.830005 Q -8.719987,-1.830005 -8.559985,-1.789998 Q -8.399984,-1.749992 -8.222485,-1.622493 Q -8.044987,-1.494995 -7.917489,-1.289998 Q -7.78999,-1.085002 -7.704989,-0.727498 Q -7.619987,-0.369995 -7.619987,0.100008 Q -7.619987,1.830005 -8.81499,1.830005 Q -9.319987,1.830005 -9.647485,1.492505 Q -9.974984,1.155005 -9.974984,0.635002 Q -9.974984,0.139998 -9.669987,-0.175 Q -9.36499,-0.489998 -8.884993,-0.489998 Q -8.404997,-0.489998 -8.074984,-0.094995 Q -8.079997,-0.744995 -8.282495,-1.092497 Q -8.484993,-1.439998 -8.86499,-1.439998 Q -9.094987,-1.439998 -9.249992,-1.3 Q -9.404997,-1.160002 -9.459993,-0.905005 L -9.899984,-0.905005 M -8.819987,1.444995 Q -8.509993,1.444995 -8.304989,1.217497 Q -8.099984,0.989998 -8.099984,0.644995 Q -8.099984,0.319995 -8.307487,0.110002 Q -8.51499,-0.099992 -8.834993,-0.099992 Q -9.154997,-0.099992 -9.33999,0.107503 Q -9.524984,0.314998 -9.524984,0.669995 Q -9.524984,1.005005 -9.324984,1.225 Q -9.124984,1.444995 -8.819987,1.444995" />
      <path d="M -7.169987,8e-06 Q -7.169987,-0.894995 -6.874992,-1.3625 Q -6.579997,-1.830005 -6.009993,-1.830005 Q -5.444987,-1.830005 -5.147493,-1.367505 Q -4.85,-0.905005 -4.85,-0.030005 Q -4.85,1.830005 -6.009993,1.830005 Q -6.175,1.830005 -6.322493,1.790007 Q -6.469987,1.750008 -6.629989,1.630005 Q -6.78999,1.510002 -6.904989,1.317505 Q -7.019987,1.125008 -7.094987,0.785002 Q -7.169987,0.444995 -7.169987,8e-06 M -5.3,0.010002 Q -5.3,-0.744995 -5.475,-1.104997 Q -5.65,-1.464998 -6.019987,-1.464998 Q -6.719987,-1.464998 -6.719987,-0.005005 Q -6.719987,1.439998 -6.009993,1.439998 Q -5.3,1.439998 -5.3,0.010002" />
      <path d="M -3.684993,-1.194995 L -4.204997,-1.194995 L -4.204997,-1.714998 L -3.684993,-1.714998 L -3.684993,-1.194995" />
      <path d="M -3.13999,8e-06 Q -3.13999,-0.894995 -2.844995,-1.3625 Q -2.55,-1.830005 -1.979997,-1.830005 Q -1.41499,-1.830005 -1.117497,-1.367505 Q -0.820003,-0.905005 -0.820003,-0.030005 Q -0.820003,1.830005 -1.979997,1.830005 Q -2.145003,1.830005 -2.292497,1.790007 Q -2.43999,1.750008 -2.599992,1.630005 Q -2.759993,1.510002 -2.874992,1.317505 Q -2.98999,1.125008 -3.06499,0.785002 Q -3.13999,0.444995 -3.13999,8e-06 M -1.270003,0.010002 Q -1.270003,-0.744995 -1.445003,-1.104997 Q -1.620003,-1.464998 -1.98999,-1.464998 Q -2.68999,-1.464998 -2.68999,-0.005005 Q -2.68999,1.439998 -1.979997,1.439998 Q -1.270003,1.439998 -1.270003,0.010002" />
      <path d="M -0.359993,8e-06 Q -0.359993,-0.894995 -0.064998,-1.3625 Q 0.229997,-1.830005 0.8,-1.830005 Q 1.365007,-1.830005 1.6625,-1.367505 Q 1.959993,-0.905005 1.959993,-0.030005 Q 1.959993,1.830005 0.8,1.830005 Q 0.634993,1.830005 0.4875,1.790007 Q 0.340007,1.750008 0.180005,1.630005 Q 0.020003,1.510002 -0.094995,1.317505 Q -0.209993,1.125008 -0.284993,0.785002 Q -0.359993,0.444995 -0.359993,8e-06 M 1.509993,0.010002 Q 1.509993,-0.744995 1.334993,-1.104997 Q 1.159993,-1.464998 0.790007,-1.464998 Q 0.090007,-1.464998 0.090007,-0.005005 Q 0.090007,1.439998 0.8,1.439998 Q 1.509993,1.439998 1.509993,0.010002" />
      <path d="M 2.504997,0.905005 L 2.504997,-1.714998 L 2.925,-1.714998 L 2.925,-0.069995 Q 2.925,0.214998 3.104997,0.414998 Q 3.284993,0.614998 3.53999,0.614998 Q 3.770003,0.614998 3.897502,0.477498 Q 4.025,0.339998 4.025,0.089998 L 4.025,-1.714998 L 4.445003,-1.714998 L 4.445003,-0.069995 Q 4.445003,0.214998 4.625,0.414998 Q 4.804997,0.614998 5.059993,0.614998 Q 5.28999,0.614998 5.417497,0.477498 Q 5.545003,0.339998 5.545003,0.089998 L 5.545003,-1.714998 L 5.96499,-1.714998 L 5.96499,0.250008 Q 5.96499,0.605005 5.767497,0.792505 Q 5.570003,0.980005 5.204997,0.980005 Q 4.945003,0.980005 4.764998,0.890007 Q 4.584993,0.800008 4.4,0.580005 Q 4.179997,0.980005 3.695003,0.980005 Q 3.434993,0.980005 3.247493,0.875 Q 3.059993,0.769995 2.88999,0.535002 L 2.88999,0.905005 L 2.504997,0.905005" />
      <path d="M 6.51499,0.905005 L 6.51499,-1.714998 L 6.934993,-1.714998 L 6.934993,-0.069995 Q 6.934993,0.214998 7.11499,0.414998 Q 7.294987,0.614998 7.549984,0.614998 Q 7.779997,0.614998 7.907495,0.477498 Q 8.034993,0.339998 8.034993,0.089998 L 8.034993,-1.714998 L 8.454997,-1.714998 L 8.454997,-0.069995 Q 8.454997,0.214998 8.634993,0.414998 Q 8.81499,0.614998 9.069987,0.614998 Q 9.299984,0.614998 9.42749,0.477498 Q 9.554997,0.339998 9.554997,0.089998 L 9.554997,-1.714998 L 9.974984,-1.714998 L 9.974984,0.250008 Q 9.974984,0.605005 9.77749,0.792505 Q 9.579997,0.980005 9.21499,0.980005 Q 8.954997,0.980005 8.774992,0.890007 Q 8.594987,0.800008 8.409993,0.580005 Q 8.18999,0.980005 7.704997,0.980005 Q 7.444987,0.980005 7.257487,0.875 Q 7.069987,0.769995 6.899984,0.535002 L 6.899984,0.905005 L 6.51499,0.905005" />
    </g>
  </g>
</svg>