<?xml version='1.0' encoding='utf-8'?>
<svg width="100.09mm" height="95.919717mm" viewBox="-52.046724 -49.796724 103.923452 99.593447" version="1.1" xmlns="http://www.w3.org/2000/svg">
  <g transform="scale(1,-1)" stroke-linecap="round">
    <g fill="none" stroke="rgb(0,0,0)" stroke-width="0.09344700448453125">
      <path d="M -40.0,-40.0 L 20.0,-40.0 A 50.00000000000001,50.00000000000001 53.13010235415597 0,1 20.0,40.0 L -40.0,40.0 L -40.0,-40.0" />
      <path d="M -49.955108,39.75 L -42.0,39.75 L -42.0,40.25 L -52.0,40.25 L -52.0,39.75 L -50.044892,39.75 A 10.137937550497139,10.137937550497139 -9.46232220802563 0,0 -51.0,37.0 L -50.25,37.28125 L -50.25,11.97749 L -49.75,11.97749 L -49.75,37.28125 L -49.0,37.0 A 10.137937550497139,10.137937550497139 -170.5376777919744 0,0 -49.955108,39.75" />
      <path d="M -52.0,-40.25 L -42.0,-40.25 L -42.0,-39.75 L -49.955108,-39.75 A 10.137937550497139,10.137937550497139 170.53767779197437 0,0 -49.0,-37.0 L -49.75,-37.28125 L -49.75,-11.97749 L -50.25,-11.97749 L -50.25,-37.28125 L -51.0,-37.0 A 10.137937550497139,10.137937550497139 9.462322208025604 0,0 -50.044892,-39.75 L -52.0,-39.75 L -52.0,-40.25" />
      <path d="M -49.849992,9.372477 Q -50.139998,9.97749 -50.730005,9.97749 Q -51.214998,9.97749 -51.522502,9.644987 Q -51.830005,9.312484 -51.830005,8.787484 Q -51.830005,8.262484 -51.525,7.92998 Q -51.219995,7.597477 -50.735002,7.597477 Q -50.139998,7.597477 -49.849992,8.207487 Q -49.685002,7.932487 -49.525,7.827482 Q -49.364998,7.722477 -49.114998,7.722477 Q -48.699992,7.722477 -48.434993,8.019979 Q -48.169995,8.31748 -48.169995,8.787484 Q -48.169995,9.257487 -48.434993,9.554989 Q -48.699992,9.85249 -49.114998,9.85249 Q -49.360002,9.85249 -49.520003,9.747485 Q -49.680005,9.64248 -49.849992,9.372477 M -48.7125,8.339982 Q -48.864998,8.172477 -49.124992,8.172477 Q -49.374992,8.172477 -49.524992,8.34248 Q -49.674992,8.512484 -49.674992,8.787484 Q -49.674992,9.06748 -49.522493,9.234985 Q -49.369995,9.40249 -49.119995,9.40249 Q -48.864998,9.40249 -48.7125,9.234985 Q -48.560002,9.06748 -48.560002,8.787484 Q -48.560002,8.507487 -48.7125,8.339982 M -50.2375,8.252482 Q -50.430005,8.047477 -50.739998,8.047477 Q -51.055005,8.047477 -51.247502,8.25498 Q -51.439998,8.462484 -51.439998,8.797477 Q -51.439998,9.122477 -51.244995,9.324984 Q -51.049992,9.52749 -50.739998,9.52749 Q -50.430005,9.52749 -50.2375,9.322485 Q -50.044995,9.11748 -50.044995,8.787484 Q -50.044995,8.457487 -50.2375,8.252482" />
      <path d="M -49.999992,7.16748 Q -50.894995,7.16748 -51.3625,6.872485 Q -51.830005,6.57749 -51.830005,6.007487 Q -51.830005,5.44248 -51.367505,5.144987 Q -50.905005,4.847493 -50.030005,4.847493 Q -48.169995,4.847493 -48.169995,6.007487 Q -48.169995,6.172493 -48.209993,6.319987 Q -48.249992,6.46748 -48.369995,6.627482 Q -48.489998,6.787484 -48.682495,6.902482 Q -48.874992,7.01748 -49.214998,7.09248 Q -49.555005,7.16748 -49.999992,7.16748 M -49.989998,5.297493 Q -50.744995,5.297493 -51.104997,5.472493 Q -51.464998,5.647493 -51.464998,6.01748 Q -51.464998,6.71748 -50.005005,6.71748 Q -48.560002,6.71748 -48.560002,6.007487 Q -48.560002,5.297493 -49.989998,5.297493" />
      <path d="M -51.194995,3.682487 L -51.194995,4.20249 L -51.714998,4.20249 L -51.714998,3.682487 L -51.194995,3.682487" />
      <path d="M -49.999992,3.137484 Q -50.894995,3.137484 -51.3625,2.842489 Q -51.830005,2.547493 -51.830005,1.97749 Q -51.830005,1.412484 -51.367505,1.11499 Q -50.905005,0.817497 -50.030005,0.817497 Q -48.169995,0.817497 -48.169995,1.97749 Q -48.169995,2.142497 -48.209993,2.28999 Q -48.249992,2.437484 -48.369995,2.597485 Q -48.489998,2.757487 -48.682495,2.872485 Q -48.874992,2.987484 -49.214998,3.062484 Q -49.555005,3.137484 -49.999992,3.137484 M -49.989998,1.267497 Q -50.744995,1.267497 -51.104997,1.442497 Q -51.464998,1.617497 -51.464998,1.987484 Q -51.464998,2.687484 -50.005005,2.687484 Q -48.560002,2.687484 -48.560002,1.97749 Q -48.560002,1.267497 -49.989998,1.267497" />
      <path d="M -49.999992,0.357487 Q -50.894995,0.357487 -51.3625,0.062492 Q -51.830005,-0.232503 -51.830005,-0.802507 Q -51.830005,-1.367513 -51.367505,-1.665007 Q -50.905005,-1.9625 -50.030005,-1.9625 Q -48.169995,-1.9625 -48.169995,-0.802507 Q -48.169995,-0.6375 -48.209993,-0.490007 Q -48.249992,-0.342513 -48.369995,-0.182511 Q -48.489998,-0.02251 -48.682495,0.092489 Q -48.874992,0.207487 -49.214998,0.282487 Q -49.555005,0.357487 -49.999992,0.357487 M -49.989998,-1.5125 Q -50.744995,-1.5125 -51.104997,-1.3375 Q -51.464998,-1.1625 -51.464998,-0.792513 Q -51.464998,-0.092513 -50.005005,-0.092513 Q -48.560002,-0.092513 -48.560002,-0.802507 Q -48.560002,-1.5125 -49.989998,-1.5125" />
      <path d="M -49.094995,-2.507503 L -51.714998,-2.507503 L -51.714998,-2.927507 L -50.069995,-2.927507 Q -49.785002,-2.927507 -49.585002,-3.107503 Q -49.385002,-3.2875 -49.385002,-3.542497 Q -49.385002,-3.77251 -49.522502,-3.900008 Q -49.660002,-4.027507 -49.910002,-4.027507 L -51.714998,-4.027507 L -51.714998,-4.44751 L -50.069995,-4.44751 Q -49.785002,-4.44751 -49.585002,-4.627507 Q -49.385002,-4.807503 -49.385002,-5.0625 Q -49.385002,-5.292497 -49.522502,-5.420003 Q -49.660002,-5.54751 -49.910002,-5.54751 L -51.714998,-5.54751 L -51.714998,-5.967497 L -49.749992,-5.967497 Q -49.394995,-5.967497 -49.207495,-5.770003 Q -49.019995,-5.57251 -49.019995,-5.207503 Q -49.019995,-4.94751 -49.109993,-4.767505 Q -49.199992,-4.5875 -49.419995,-4.402507 Q -49.019995,-4.182503 -49.019995,-3.69751 Q -49.019995,-3.4375 -49.125,-3.25 Q -49.230005,-3.0625 -49.464998,-2.892497 L -49.094995,-2.892497 L -49.094995,-2.507503" />
      <path d="M -49.094995,-6.517497 L -51.714998,-6.517497 L -51.714998,-6.9375 L -50.069995,-6.9375 Q -49.785002,-6.9375 -49.585002,-7.117497 Q -49.385002,-7.297493 -49.385002,-7.55249 Q -49.385002,-7.782503 -49.522502,-7.910002 Q -49.660002,-8.0375 -49.910002,-8.0375 L -51.714998,-8.0375 L -51.714998,-8.457503 L -50.069995,-8.457503 Q -49.785002,-8.457503 -49.585002,-8.6375 Q -49.385002,-8.817497 -49.385002,-9.072493 Q -49.385002,-9.30249 -49.522502,-9.429997 Q -49.660002,-9.557503 -49.910002,-9.557503 L -51.714998,-9.557503 L -51.714998,-9.97749 L -49.749992,-9.97749 Q -49.394995,-9.97749 -49.207495,-9.779997 Q -49.019995,-9.582503 -49.019995,-9.217497 Q -49.019995,-8.957503 -49.109993,-8.777498 Q -49.199992,-8.597493 -49.419995,-8.4125 Q -49.019995,-8.192497 -49.019995,-7.707503 Q -49.019995,-7.447493 -49.125,-7.259993 Q -49.230005,-7.072493 -49.464998,-6.90249 L -49.094995,-6.90249 L -49.094995,-6.517497" />
      <path d="M 27.0,49.75 L 21.0,41.75 L 21.4,41.45 L 26.173065,47.814086 A 10.137937550497139,10.137937550497139 43.66778014613035 0,0 27.8,45.4 L 28.00611,46.104209 A 59.75,59.75 53.13010235415597 0,0 48.845197,10.358827 L 49.337625,10.445512 A 60.25000000000001,60.25000000000001 53.13010235415597 0,1 28.270681,46.534046 L 29.0,47.0 A 10.137937550497139,10.137937550497139 -117.40757543781842 0,0 26.226935,47.885914 L 27.4,49.45 L 27.0,49.75" />
      <path d="M 26.173065,-47.814086 L 21.4,-41.45 L 21.0,-41.75 L 27.0,-49.75 L 27.4,-49.45 L 26.226935,-47.885914 A 10.137937550497139,10.137937550497139 117.4075754378184 0,0 29.0,-47.0 L 28.270681,-46.534046 A 60.25000000000001,60.25000000000001 -50.56532666288382 0,1 49.337625,-10.445512 L 48.845197,-10.358827 A 59.75,59.75 -9.983786567152602 0,0 28.00611,-46.104209 L 27.8,-45.4 A 10.137937550497139,10.137937550497139 -43.667780146130376 0,0 26.173065,-47.814086" />
      <path d="M 49.189998,-7.669987 L 51.714998,-7.669987 L 51.714998,-7.229997 L 48.169995,-7.229997 L 48.169995,-7.519987 Q 48.580005,-7.634993 48.695003,-7.78999 Q 48.810002,-7.944987 48.874992,-8.454997 L 49.189998,-8.454997 L 49.189998,-7.669987" />
      <path d="M 49.999992,-5.969987 Q 50.894995,-5.969987 51.3625,-5.674992 Q 51.830005,-5.379997 51.830005,-4.809993 Q 51.830005,-4.244987 51.367505,-3.947493 Q 50.905005,-3.65 50.030005,-3.65 Q 48.169995,-3.65 48.169995,-4.809993 Q 48.169995,-4.975 48.209993,-5.122493 Q 48.249992,-5.269987 48.369995,-5.429989 Q 48.489998,-5.58999 48.682495,-5.704989 Q 48.874992,-5.819987 49.214998,-5.894987 Q 49.555005,-5.969987 49.999992,-5.969987 M 49.989998,-4.1 Q 50.744995,-4.1 51.104997,-4.275 Q 51.464998,-4.45 51.464998,-4.819987 Q 51.464998,-5.519987 50.005005,-5.519987 Q 48.560002,-5.519987 48.560002,-4.809993 Q 48.560002,-4.1 49.989998,-4.1" />
      <path d="M 49.094995,-0.91499 Q 48.660002,-0.979997 48.414998,-1.247493 Q 48.169995,-1.51499 48.169995,-1.920003 Q 48.169995,-2.095003 48.209993,-2.252498 Q 48.249992,-2.409993 48.377498,-2.587492 Q 48.505005,-2.76499 48.710002,-2.892497 Q 48.914998,-3.020003 49.272502,-3.104997 Q 49.630005,-3.18999 50.099992,-3.18999 Q 51.830005,-3.18999 51.830005,-2.0 Q 51.830005,-1.495003 51.492505,-1.167497 Q 51.155005,-0.83999 50.635002,-0.83999 Q 50.139998,-0.83999 49.825,-1.144995 Q 49.510002,-1.45 49.510002,-1.925 Q 49.510002,-2.45 49.905005,-2.73999 Q 49.255005,-2.734993 48.907503,-2.532495 Q 48.560002,-2.329997 48.560002,-1.95 Q 48.560002,-1.720003 48.7,-1.564998 Q 48.839998,-1.409993 49.094995,-1.354997 L 49.094995,-0.91499 M 49.899992,-1.979997 Q 49.899992,-1.659993 50.107495,-1.474992 Q 50.314998,-1.28999 50.669995,-1.28999 Q 51.005005,-1.28999 51.222502,-1.48999 Q 51.439998,-1.68999 51.439998,-1.995003 Q 51.439998,-2.304997 51.2125,-2.509993 Q 50.985002,-2.71499 50.644995,-2.71499 Q 50.314998,-2.71499 50.107495,-2.509993 Q 49.899992,-2.304997 49.899992,-1.979997" />
      <path d="M 51.194995,0.295003 L 51.194995,-0.225 L 51.714998,-0.225 L 51.714998,0.295003 L 51.194995,0.295003" />
      <path d="M 49.399992,0.875 L 49.399992,1.315007 Q 48.555005,1.365007 48.555005,2.029997 Q 48.555005,2.329997 48.745003,2.529997 Q 48.935002,2.729997 49.219995,2.729997 Q 49.644995,2.729997 49.919995,2.25 L 50.180005,1.790007 Q 50.494995,1.234993 50.8125,1.029997 Q 51.130005,0.825 51.714998,0.795003 L 51.714998,3.154997 L 51.280005,3.154997 L 51.280005,1.290007 Q 51.055005,1.325 50.889998,1.464998 Q 50.724992,1.604997 50.549992,1.929997 L 50.280005,2.429997 Q 49.869995,3.179997 49.210002,3.179997 Q 48.749992,3.179997 48.459993,2.864998 Q 48.169995,2.55 48.169995,2.045003 Q 48.169995,0.909993 49.399992,0.875" />
      <path d="M 49.094995,5.895003 Q 48.660002,5.829997 48.414998,5.5625 Q 48.169995,5.295003 48.169995,4.88999 Q 48.169995,4.71499 48.209993,4.557495 Q 48.249992,4.4 48.377498,4.222502 Q 48.505005,4.045003 48.710002,3.917497 Q 48.914998,3.78999 49.272502,3.704997 Q 49.630005,3.620003 50.099992,3.620003 Q 51.830005,3.620003 51.830005,4.809993 Q 51.830005,5.31499 51.492505,5.642497 Q 51.155005,5.970003 50.635002,5.970003 Q 50.139998,5.970003 49.825,5.664998 Q 49.510002,5.359993 49.510002,4.884993 Q 49.510002,4.359993 49.905005,4.070003 Q 49.255005,4.075 48.907503,4.277498 Q 48.560002,4.479997 48.560002,4.859993 Q 48.560002,5.08999 48.7,5.244995 Q 48.839998,5.4 49.094995,5.454997 L 49.094995,5.895003 M 49.899992,4.829997 Q 49.899992,5.15 50.107495,5.335002 Q 50.314998,5.520003 50.669995,5.520003 Q 51.005005,5.520003 51.222502,5.320003 Q 51.439998,5.120003 51.439998,4.81499 Q 51.439998,4.504997 51.2125,4.3 Q 50.985002,4.095003 50.644995,4.095003 Q 50.314998,4.095003 50.107495,4.3 Q 49.899992,4.504997 49.899992,4.829997" />
      <path d="M 48.285002,7.7 Q 48.285002,7.384993 48.507503,7.162492 Q 48.730005,6.93999 49.039998,6.93999 Q 49.349992,6.93999 49.574992,7.162492 Q 49.799992,7.384993 49.799992,7.68999 Q 49.799992,8.009993 49.579997,8.232495 Q 49.360002,8.454997 49.039998,8.454997 Q 48.730005,8.454997 48.507503,8.232495 Q 48.285002,8.009993 48.285002,7.7 M 48.707495,8.032487 Q 48.844995,8.169987 49.039998,8.169987 Q 49.239998,8.169987 49.377498,8.029989 Q 49.514998,7.88999 49.514998,7.68999 Q 49.514998,7.5 49.375,7.3625 Q 49.235002,7.225 49.039998,7.225 Q 48.849992,7.225 48.709993,7.364998 Q 48.569995,7.504997 48.569995,7.699992 Q 48.569995,7.894987 48.707495,8.032487" />
    </g>
  </g>
</svg>