<?xml version="1.0" encoding="UTF-8" standalone="no"?>
    <svg
    xmlns:svg="http://www.w3.org/2000/svg"
    xmlns="http://www.w3.org/2000/svg"
    width="102"
    height="201"
    >
        <g transform="scale(50, -50)   translate(1.2592180535487834,-2.0285871146768604)" stroke-width="0.02"  fill="none">
        <!-- hidden lines -->
        <g  stroke="rgb(160,160,160)" fill="none" stroke-dasharray="0.02,0.02" >
    
        </g>

        <!-- solid lines -->
        <g  stroke="rgb(0,0,0)" fill="none">
    			<path d="M0.3808890392431825,-1.6019749669298735 L0.3734312996954072,-1.363994082463935 L0.3511518664539759,-1.114282333653625 L0.31433091631872756,-0.8559799906263648 L0.2634314941016265,-0.5923353552162327 L0.19909368956958473,-0.3266639116836911 L0.12212658794425668,-0.062306632577324106 L0.033498095185933385,0.1974120359344395 L-0.06567723398549996,0.44922598090278315 L-0.17415221226284627,0.6899684958638748 L-0.29056270385561944,0.9166121040100195 L-0.41344477928909995,1.126306630467094 L-0.5412531251668709,1.316415044897302 L-0.6723804773833895,1.4845466236857137 L-0.8051778334026609,1.6285870146768378 " />
			<path d="M-0.8051778334026718,-0.43116520735848635 L-0.21214439707974464,-1.0165700871441796 " />
			<path d="M-0.8051778334026718,-0.43116520735848635 L-0.8051778334026718,0.25541886665329233 " />
			<path d="M-0.8051778334026718,-0.43116520735848635 L0.0,0.0 " />
			<path d="M-0.21214439707974464,-1.0165700871441796 L-0.22280046663867223,-1.0040843159151842 L-0.2306766919648361,-0.991124267213254 L-0.24179606889589098,-0.9644137073545023 " />
			<path d="M-0.21214439707974464,-1.0165700871441796 L-0.22280046663867223,-1.0080178705058767 L-0.2306766919648361,-1.0054281020884994 L-0.23669968780249084,-1.0068132991517393 L-0.24179606889589098,-1.0101859789552876 " />
			<path d="M-0.8051778334026718,0.25541886665329233 L-0.8068766271004718,0.24475875013527928 L-0.8113552650310356,0.2400610818381919 L-0.8176871324501085,0.23933837902172156 L-0.8249456146134361,0.24060315894555978 " />
			<path d="M-0.8051778334026718,0.25541886665329233 L-0.8034790397048718,0.2414048680115071 L-0.799000401774308,0.2278651468426566 L-0.7854100521919075,0.20157616695984693 " />
			<path d="M0.0,0.0 L-0.014468039193954271,-0.0057807225243765685 L-0.025161807293833494,-0.006321995292330008 L-0.03333939466432937,-0.003370301556001379 L-0.040258891670133606,0.0013278754324682464 " />
			<path d="M0.0,0.0 L-0.014468039193954271,-0.009714277115069059 L-0.025161807293833494,-0.020625830167575417 L-0.040258891670133606,-0.04444439616831692 " />
			<path d="M-0.12096550624509461,-1.0440110577925519 L-0.15743696605658544,-1.0689430895350192 " />
			<path d="M-0.15743696605658541,-1.0689430895350192 L-0.11918659898086419,-1.170897141107781 " />
			<path d="M-0.11918659898086414,-1.170897141107781 L-0.13623631027514832,-1.1540667508139424 " />
			<path d="M-0.13623631027514838,-1.1540667508139424 L-0.16573933764273724,-1.0727627377939677 " />
			<path d="M-0.16573933764273718,-1.0727627377939677 L-0.19539100945888355,-1.0956729951782882 " />
			<path d="M-0.19539100945888355,-1.095672995178288 L-0.21214439707974464,-1.0791351167628578 " />
			<path d="M-0.21214439707974464,-1.079135116762858 L-0.17389354739217744,-1.0526981994017082 " />
			<path d="M-0.17389354739217744,-1.0526981994017082 L-0.2097723598568221,-0.9563465817639019 " />
			<path d="M-0.2097723598568222,-0.9563465817639021 L-0.1930189722359611,-0.9728844601793323 " />
			<path d="M-0.1930189722359611,-0.9728844601793321 L-0.16529485213260264,-1.0493425972909611 " />
			<path d="M-0.16529485213260264,-1.0493425972909611 L-0.13742208758068666,-1.027766167659241 " />
			<path d="M-0.13742208758068664,-1.027766167659241 L-0.12096550624509461,-1.0440110577925517 " />
			<path d="M-0.8592180535487831,0.4199907774514627 L-0.7935394074312805,0.308125875635196 " />
			<path d="M-0.7935394074312806,0.30812587563519606 L-0.7511376132565605,0.26626952201126114 " />
			<path d="M-0.7511376132565605,0.26626952201126114 L-0.7511376132565605,0.25030621879306736 " />
			<path d="M-0.7511376132565605,0.2503062187930674 L-0.7935394074312806,0.29216257241700233 " />
			<path d="M-0.7935394074312806,0.29216257241700233 L-0.8592180535487832,0.3087639339641347 " />
			<path d="M-0.8592180535487831,0.30876393396413476 L-0.8592180535487831,0.3285032260919734 " />
			<path d="M-0.8592180535487831,0.3285032260919734 L-0.8065863360751233,0.31328090271933323 " />
			<path d="M-0.8065863360751233,0.31328090271933323 L-0.8592180535487831,0.4009376224027961 " />
			<path d="M-0.8592180535487831,0.4009376224027961 L-0.8592180535487831,0.41999077745146285 " />
			<path d="M0.1467437911887166,0.035754471098648266 L0.1467437911887166,0.12586863081269423 " />
			<path d="M0.1467437911887166,0.12586863081269423 L0.12983492563618085,0.11681409128153722 " />
			<path d="M0.1298349256361807,0.11681409128153714 L0.01650588348259535,-0.018710663069551187 " />
			<path d="M0.016505883482595407,-0.01871066306955127 L0.016505883482595404,0.05647051653215843 " />
			<path d="M0.016505883482595407,0.056470516532158455 L-5.551115123125783e-17,0.047631770134567084 " />
			<path d="M0.0,0.04763177013456715 L1.633972684645633e-18,1.3877787807814457e-17 " />
			<path d="M1.633972684645633e-18,1.3877787807814457e-17 L3.267945369291266e-18,-0.047631770134567125 " />
			<path d="M0.0,-0.04763177013456715 L0.016505883482595463,-0.03879302373697578 " />
			<path d="M0.016505883482595518,-0.03879302373697574 L0.1302372524507229,0.09729024140412015 " />
			<path d="M0.13023725245072282,0.09729024140412018 L0.13023725245072282,0.02691537381791287 " />
			<path d="M0.13023725245072282,0.02691537381791287 L0.14674379118871653,0.03575447109864824 " />

        </g>
        </g>
    </svg>
    