<?xml version="1.0" encoding="UTF-8" standalone="no"?>
    <svg
    xmlns:svg="http://www.w3.org/2000/svg"
    xmlns="http://www.w3.org/2000/svg"
    width="340"
    height="240"
    >
        <g transform="scale(100, -100)   translate(1.6999999999999997,-1.2)" stroke-width="0.01"  fill="none">
        <!-- hidden lines -->
        <g  stroke="rgb(160,160,160)" fill="none" stroke-dasharray="0.01,0.01" >
    
        </g>

        <!-- solid lines -->
        <g  stroke="rgb(0,0,0)" fill="none">
    			<path d="M1.5000000000000002,6.6497733245777616e-18 L1.4981931843077587,0.04906767432741802 L1.4927770900082955,0.0980171403295606 L1.4837647649471717,0.14673047445536175 L1.4711779206048459,0.19509032201612825 L1.4550468797918161,0.24298017990326387 L1.4354105035983136,0.29028467725446233 L1.4123160977745315,0.33688985339222005 L1.3858192987669302,0.3826834323650898 L1.3559839396851652,0.4275550934302821 L1.3228818965225329,0.47139673682599764 L1.2865929150004083,0.5141027441932217 L1.247204418453818,0.5555702330196022 L1.2048112972209677,0.5956993044924334 L1.1595156800441058,0.6343932841636455 L1.1114266880324388,0.6715589548470183 L1.0606601717798216,0.7071067811865475 L1.0073384322705277,0.7409511253549591 L0.9515899262454685,0.773010453362737 L0.8935489567386504,0.8032075314806448 L0.8333553495294037,0.8314696123025452 L0.7711541162898328,0.8577286100002721 L0.7070951052389969,0.8819212643483549 L0.6413326401454236,0.9039892931234433 L0.574025148547635,0.9238795325112867 L0.5053347800883303,0.9415440651830208 L0.43542701588169375,0.9569403357322089 L0.36447026985489617,0.970031253194544 L0.29263548302419273,0.9807852804032304 L0.22009571168304284,0.989176509964781 L0.14702571049434138,0.9951847266721968 L0.07360151149112741,0.9987954562051724 L3.1389311486108277e-16,1.0 L-0.07360151149112679,0.9987954562051724 L-0.14702571049434074,0.9951847266721969 L-0.22009571168304223,0.989176509964781 L-0.29263548302419207,0.9807852804032304 L-0.3644702698548956,0.970031253194544 L-0.435427015881693,0.9569403357322089 L-0.5053347800883297,0.9415440651830208 L-0.5740251485476344,0.9238795325112867 L-0.6413326401454231,0.9039892931234432 L-0.7070951052389963,0.881921264348355 L-0.7711541162898323,0.8577286100002721 L-0.8333553495294027,0.8314696123025455 L-0.8935489567386492,0.8032075314806452 L-0.9515899262454679,0.7730104533627371 L-1.0073384322705274,0.740951125354959 L-1.060660171779821,0.7071067811865476 L-1.1114266880324382,0.6715589548470186 L-1.1595156800441053,0.6343932841636455 L-1.2048112972209675,0.5956993044924331 L-1.2472044184538178,0.5555702330196022 L-1.2865929150004078,0.5141027441932218 L-1.3228818965225322,0.47139673682599786 L-1.3559839396851645,0.4275550934302824 L-1.3858192987669298,0.3826834323650899 L-1.412316097774531,0.3368898533922199 L-1.4354105035983131,0.2902846772544624 L-1.4550468797918157,0.24298017990326407 L-1.4711779206048454,0.1950903220161286 L-1.483764764947171,0.14673047445536225 L-1.492777090008295,0.09801714032956083 L-1.4981931843077583,0.04906767432741797 L-1.4999999999999998,1.2911445323931307e-16 L-1.4981931843077583,-0.04906767432741772 L-1.492777090008295,-0.09801714032956059 L-1.483764764947171,-0.146730474455362 L-1.4711779206048454,-0.19509032201612836 L-1.4550468797918157,-0.24298017990326382 L-1.4354105035983131,-0.2902846772544621 L-1.412316097774531,-0.33688985339221966 L-1.38581929876693,-0.38268343236508967 L-1.3559839396851647,-0.4275550934302822 L-1.3228818965225324,-0.47139673682599764 L-1.2865929150004078,-0.5141027441932216 L-1.247204418453818,-0.555570233019602 L-1.2048112972209677,-0.5956993044924329 L-1.1595156800441055,-0.6343932841636453 L-1.1114266880324384,-0.6715589548470184 L-1.0606601717798212,-0.7071067811865475 L-1.0073384322705272,-0.7409511253549592 L-0.9515899262454675,-0.7730104533627372 L-0.8935489567386494,-0.803207531480645 L-0.833355349529403,-0.8314696123025452 L-0.7711541162898324,-0.857728610000272 L-0.7070951052389965,-0.8819212643483549 L-0.6413326401454235,-0.9039892931234431 L-0.5740251485476353,-0.9238795325112865 L-0.505334780088331,-0.9415440651830205 L-0.4354270158816947,-0.9569403357322086 L-0.3644702698548973,-0.9700312531945438 L-0.2926354830241928,-0.9807852804032303 L-0.22009571168304193,-0.989176509964781 L-0.14702571049434046,-0.9951847266721969 L-0.07360151149112681,-0.9987954562051724 L-5.350092488312317e-17,-1.0 L0.07360151149112672,-0.9987954562051724 L0.14702571049434035,-0.9951847266721969 L0.22009571168304184,-0.9891765099647811 L0.2926354830241927,-0.9807852804032304 L0.36447026985489717,-0.9700312531945439 L0.43542701588169463,-0.9569403357322087 L0.5053347800883309,-0.9415440651830206 L0.5740251485476352,-0.9238795325112866 L0.6413326401454235,-0.9039892931234433 L0.7070951052389967,-0.881921264348355 L0.7711541162898325,-0.8577286100002722 L0.833355349529403,-0.8314696123025455 L0.8935489567386496,-0.8032075314806453 L0.9515899262454677,-0.7730104533627374 L1.0073384322705268,-0.7409511253549598 L1.0606601717798212,-0.7071067811865477 L1.1114266880324395,-0.671558954847018 L1.159515680044106,-0.6343932841636453 L1.204811297220968,-0.5956993044924332 L1.247204418453818,-0.5555702330196022 L1.2865929150004083,-0.5141027441932219 L1.3228818965225324,-0.4713967368259979 L1.355983939685165,-0.42755509343028253 L1.38581929876693,-0.3826834323650904 L1.412316097774531,-0.33688985339222083 L1.4354105035983131,-0.29028467725446333 L1.455046879791816,-0.24298017990326504 L1.4711779206048456,-0.19509032201612872 L1.4837647649471717,-0.1467304744553615 L1.4927770900082955,-0.0980171403295605 L1.4981931843077587,-0.049067674327418084 L1.5000000000000002,-9.120063783506145e-15 " />

        </g>
        </g>
    </svg>
    