<?xml version='1.0' encoding='utf-8'?>
<svg width="100.090003mm" height="71.906344mm" viewBox="-2.65077 -2.610077 5.485314 3.940742" version="1.1" xmlns="http://www.w3.org/2000/svg">
  <g transform="scale(1,-1)" stroke-linecap="round">
    <g fill="none" stroke="rgb(0,0,0)" stroke-width="0.004932343361291367">
      <line x1="-2.377548" y1="-0.716021" x2="2.157573" y2="2.60761" />
      <line x1="-0.552313" y1="0.092164" x2="2.683609" y2="-0.783788" />
      <path d="M 2.683609,-0.783788 A 2.0,0.22111349621642595 -4.0002154198802075e-16 0,0 1.936703,-1.051719" />
      <line x1="1.936703" y1="-1.051719" x2="-1.698281" y2="-1.317973" />
      <path d="M -1.698281,-1.317973 A 2.0,0.543286814156766 -165.1284783115031 0,0 -2.377548,-0.716021" />
      <line x1="-0.552313" y1="0.092164" x2="-2.219587" y2="-0.02996" />
      <line x1="-0.552313" y1="0.092164" x2="-0.552313" y2="2.079904" />
      <line x1="-0.552313" y1="0.092164" x2="0.552313" y2="-0.092164" />
      <path d="M -2.219587,-0.02996 C -2.173274,-0.026567 -2.154748,0.007919 -2.136223,0.042405" />
      <path d="M -2.219587,-0.02996 C -2.173274,-0.026567 -2.154748,-0.058339 -2.136223,-0.090111" />
      <path d="M -0.552313,2.079904 C -0.552313,2.024689 -0.524525,2.004638 -0.496737,1.984588" />
      <path d="M -0.552313,2.079904 C -0.552313,2.024689 -0.580101,2.000567 -0.607889,1.976446" />
      <path d="M 0.552313,-0.092164 C 0.521629,-0.087044 0.509355,-0.051867 0.497081,-0.01669" />
      <path d="M 0.552313,-0.092164 C 0.521629,-0.087044 0.509355,-0.118125 0.497081,-0.149206" />
      <line x1="-2.47593" y1="0.132397" x2="-2.373393" y2="-0.036505" />
      <line x1="-2.373393" y1="-0.036505" x2="-2.480931" y2="-0.230235" />
      <line x1="-2.480931" y1="-0.230235" x2="-2.432997" y2="-0.226724" />
      <line x1="-2.432997" y1="-0.226724" x2="-2.350051" y2="-0.06958" />
      <line x1="-2.350051" y1="-0.06958" x2="-2.266688" y2="-0.214543" />
      <line x1="-2.266688" y1="-0.214543" x2="-2.219587" y2="-0.211093" />
      <line x1="-2.219587" y1="-0.211093" x2="-2.327126" y2="-0.033116" />
      <line x1="-2.327126" y1="-0.033116" x2="-2.226256" y2="0.150685" />
      <line x1="-2.226256" y1="0.150685" x2="-2.273357" y2="0.147235" />
      <line x1="-2.273357" y1="0.147235" x2="-2.351301" y2="-0.000598" />
      <line x1="-2.351301" y1="-0.000598" x2="-2.429664" y2="0.135786" />
      <line x1="-2.429664" y1="0.135786" x2="-2.47593" y2="0.132397" />
      <line x1="-0.400382" y1="2.413047" x2="-0.585033" y2="2.263361" />
      <line x1="-0.585033" y1="2.263361" x2="-0.704243" y2="2.254629" />
      <line x1="-0.704243" y1="2.254629" x2="-0.704243" y2="2.208414" />
      <line x1="-0.704243" y1="2.208414" x2="-0.585033" y2="2.217145" />
      <line x1="-0.585033" y1="2.217145" x2="-0.400382" y2="2.091032" />
      <line x1="-0.400382" y1="2.091032" x2="-0.400382" y2="2.14818" />
      <line x1="-0.400382" y1="2.14818" x2="-0.548353" y2="2.243686" />
      <line x1="-0.548353" y1="2.243686" x2="-0.400382" y2="2.357886" />
      <line x1="-0.400382" y1="2.357886" x2="-0.400382" y2="2.413047" />
      <line x1="0.753631" y1="-0.249743" x2="0.753631" y2="0.011148" />
      <line x1="0.753631" y1="0.011148" x2="0.730434" y2="0.015019" />
      <line x1="0.730434" y1="0.015019" x2="0.574957" y2="-0.175702" />
      <line x1="0.574957" y1="-0.175702" x2="0.574957" y2="0.041957" />
      <line x1="0.574957" y1="0.041957" x2="0.552313" y2="0.045735" />
      <line x1="0.552313" y1="0.045735" x2="0.552313" y2="-0.092164" />
      <line x1="0.552313" y1="-0.092164" x2="0.552313" y2="-0.230064" />
      <line x1="0.552313" y1="-0.230064" x2="0.574957" y2="-0.233842" />
      <line x1="0.574957" y1="-0.233842" x2="0.730986" y2="-0.042221" />
      <line x1="0.730986" y1="-0.042221" x2="0.730986" y2="-0.245964" />
      <line x1="0.730986" y1="-0.245964" x2="0.753631" y2="-0.249743" />
    </g>
  </g>
</svg>