<?xml version="1.0" encoding="UTF-8" standalone="no"?>
    <svg
    xmlns:svg="http://www.w3.org/2000/svg"
    xmlns="http://www.w3.org/2000/svg"
    width="321"
    height="245"
    >
        <g transform="scale(50, -50)   translate(3.4173847793716825,-3.401002182643657)" stroke-width="0.02"  fill="none">
        <!-- hidden lines -->
        <g  stroke="rgb(160,160,160)" fill="none" stroke-dasharray="0.02,0.02" >
    
        </g>

        <!-- solid lines -->
        <g  stroke="rgb(0,0,0)" fill="none">
    			<path d="M-2.7709189595071715,-0.4436898664333311 L1.5766329033850681,3.0010021826436573 " />
			<path d="M-0.5294695850188916,0.07834881233691557 L2.4900874828501967,-0.6612487076938894 " />
			<path d="M2.4900874828501958,-0.6612487076938892 L2.5436929332859854,-0.6763061556659846 L2.5831235981482625,-0.6917326099495374 L2.597428510557425,-0.6995487998219211 L2.608089127303822,-0.7074144768967672 L2.615085814319981,-0.7153151546543866 L2.618405685538593,-0.7232362821129876 L2.6180426266252774,-0.7311632706277786 L2.613997306239583,-0.7390815207594359 L2.6062771748034974,-0.7469764491624513 L2.5948964507797143,-0.7548335154438404 L2.5612437694865036,-0.7703762753815959 L2.5132870659547013,-0.7855953505010621 L2.45137947232923,-0.8003786742037263 L2.3759768489948536,-0.8146173885735154 L2.2876344278201115,-0.8282066459587756 L2.1870027236732006,-0.8410463810244241 L1.951920533945775,-0.8641053148223876 L1.6776417020019831,-0.8831162567437113 " />
			<path d="M1.6776417020019676,-0.8831162567437123 L-2.021405104409073,-1.0963395836453436 " />
			<path d="M-2.021405104409073,-1.0963395836453433 L-2.183145897058713,-1.1023120458144386 L-2.334207523099387,-1.1009997482373153 L-2.405274613844835,-1.0976130221919567 L-2.4731351764936402,-1.0924153290570162 L-2.5376257290065,-1.0854191905305204 L-2.5985909079937057,-1.0766414609229686 L-2.6558838429991565,-1.0661032865538238 L-2.7093665103241573,-1.0538300548081765 L-2.7589100655385934,-1.03985133297631 L-2.8043951538784513,-1.0242007970235083 L-2.8457121977818955,-1.006916150461707 L-2.8827616608712168,-0.9880390335184304 L-2.9154542877446845,-0.9676149228218343 L-2.9437113190006237,-0.9456930218435278 L-2.9674646809757155,-0.9223261423630992 L-2.986657149740413,-0.897570577239914 L-3.001242488956401,-0.8714859647986853 L-3.0111855612639826,-0.8441351451555257 L-3.016462412931059,-0.815584008830605 L-3.017060331559766,-0.7859013380121145 L-3.012977876711756,-0.7551586408539506 L-3.004224883378339,-0.7234299792063091 L-2.9908224382871262,-0.6907917901942021 L-2.972802829102258,-0.6573227020737274 L-2.950209466640593,-0.6231033448097132 L-2.9230967802912446,-0.5882161558310699 L-2.8915300868904206,-0.5527451814318042 L-2.8555854333674384,-0.5167758742961341 L-2.815349413541016,-0.48039488763548893 L-2.7709189595071804,-0.4436898664333382 " />
			<path d="M-0.5294695850188916,0.07834881233691557 L-1.377798506216279,0.029448778260277662 " />
			<path d="M-0.5294695850188916,0.07834881233691557 L-0.5294695850188916,1.074074803899202 " />
			<path d="M-0.5294695850188916,0.07834881233691557 L0.0,0.0 " />
			<path d="M-1.377798506216279,0.02944877826027767 L-1.3625550959135133,0.03317979082758839 L-1.3512882274288605,0.04134905007061309 L-1.3353820601564095,0.06508464634951906 " />
			<path d="M-1.377798506216279,0.02944877826027767 L-1.3625550959135133,0.02747511066759612 L-1.3512882274288605,0.020604758579732117 L-1.3426723868229495,0.010469950161746476 L-1.3353820601564095,-0.0012970864212999353 " />
			<path d="M-0.5294695850188916,1.074074803899202 L-0.527039476130045,1.0563229307109325 L-0.5206328254230855,1.0434677420178455 L-0.5115751468373843,1.0338770096548802 L-0.501191954312312,1.0259185054569757 " />
			<path d="M-0.5294695850188916,1.074074803899202 L-0.5318996939077383,1.056042774265702 L-0.5383063446146977,1.0424489913079156 L-0.5577472157254711,1.0226585031851998 " />
			<path d="M0.0,0.0 L-0.009513906605808194,0.0042601703016750874 L-0.016545924531840357,0.012820546130969099 L-0.02647347925094455,0.03710830700225528 " />
			<path d="M0.0,0.0 L-0.009513906605808194,-0.0014445098583171793 L-0.016545924531840357,-0.007923745359911874 L-0.02647347925094455,-0.02927342576856373 " />
			<path d="M-1.5082290778503773,0.11266601003449658 L-1.4560569872711067,0.027302672420066953 " />
			<path d="M-1.4560569872711064,0.027302672420066974 L-1.510773788465232,-0.06895189817675748 " />
			<path d="M-1.5107737884652321,-0.06895189817675748 L-1.4863843319808072,-0.06754602219705413 " />
			<path d="M-1.486384331980807,-0.06754602219705413 L-1.4441805204487117,0.010562060085809968 " />
			<path d="M-1.444180520448712,0.010562060085809968 L-1.4017640743888427,-0.0626682756338692 " />
			<path d="M-1.4017640743888424,-0.06266827563386917 L-1.377798506216279,-0.06128683375322431 " />
			<path d="M-1.377798506216279,-0.06128683375322433 L-1.432515997782248,0.02865964040670374 " />
			<path d="M-1.432515997782248,0.028659640406703754 L-1.3811916838267,0.11998879809646303 " />
			<path d="M-1.3811916838266995,0.11998879809646303 L-1.405157251999263,0.11860735621581817 " />
			<path d="M-1.4051572519992632,0.11860735621581817 L-1.4448163529165037,0.045127049208788975 " />
			<path d="M-1.4448163529165037,0.045127049208789 L-1.4846880883615183,0.1140229780211334 " />
			<path d="M-1.4846880883615183,0.11402297802113337 L-1.508229077850377,0.11266601003449658 " />
			<path d="M-0.4521655430375954,1.2398387582465755 L-0.5461182472089434,1.1662156710678142 " />
			<path d="M-0.5461182472089434,1.1662156710678142 L-0.6067736270001879,1.1627193265903246 " />
			<path d="M-0.6067736270001879,1.1627193265903246 L-0.6067736270001879,1.1395683731569468 " />
			<path d="M-0.6067736270001879,1.139568373156947 L-0.5461182472089434,1.1430647176344366 " />
			<path d="M-0.5461182472089434,1.1430647176344366 L-0.4521655430375954,1.0785308234839308 " />
			<path d="M-0.4521655430375954,1.0785308234839306 L-0.4521655430375954,1.1071579457413463 " />
			<path d="M-0.4521655430375954,1.1071579457413463 L-0.5274547347938635,1.1560895703304044 " />
			<path d="M-0.5274547347938635,1.1560895703304044 L-0.4521655430375954,1.212206713721613 " />
			<path d="M-0.4521655430375954,1.212206713721613 L-0.4521655430375954,1.2398387582465755 " />
			<path d="M0.09649591804638324,-0.07638716839463125 L0.09649591804638323,0.05430186799791886 " />
			<path d="M0.09649591804638324,0.05430186799791882 L0.08537697058429625,0.05594720580907939 " />
			<path d="M0.08537697058429627,0.0559472058090794 L0.010853954139506738,-0.041559954689727424 " />
			<path d="M0.010853954139506738,-0.04155995468972738 L0.010853954139506721,0.06747236551589755 " />
			<path d="M0.010853954139506738,0.06747236551589755 L-1.734723475976807e-18,0.06907849066463363 " />
			<path d="M0.0,0.06907849066463363 L1.0612041397712254e-17,0.0 " />
			<path d="M1.0612041397712254e-17,0.0 L2.122408279542451e-17,-0.06907849066463363 " />
			<path d="M0.0,-0.06907849066463365 L0.01085395413950674,-0.07068461581336972 " />
			<path d="M0.01085395413950685,-0.07068461581336974 L0.08564153302342528,0.02728093464966587 " />
			<path d="M0.08564153302342514,0.027280934649665897 L0.08564153302342516,-0.07478097948546847 " />
			<path d="M0.08564153302342514,-0.07478097948546847 L0.09649591804638322,-0.07638716839463126 " />

        </g>
        </g>
    </svg>
    