<?xml version="1.0" encoding="UTF-8" standalone="no"?>
    <svg
    xmlns:svg="http://www.w3.org/2000/svg"
    xmlns="http://www.w3.org/2000/svg"
    width="500.0"
    height="220.0"
    >
        <g transform="scale(3.330637377440307, -3.330637377440307)   translate(50.42883529491881,-27.161252552348465)" stroke-width="0.3002428324300286"  fill="none">
        <!-- hidden lines -->
        <g  stroke="rgb(160,160,160)" fill="none" stroke-dasharray="0.3002428324300286,0.3002428324300286" >
    			<path d="M-47.42640687061853,-0.7508025028454929 L-47.41854094570641,-0.7987204801192983 L-47.394967920082344,-0.8365238593522721 L-47.35576196320613,-0.8640936971274511 L-47.30104643152289,-0.8813432485353314 L-47.23099348033811,-0.8882182401054646 L-47.14582352215331,-0.8846970405708738 L-47.04580453316678,-0.8707907289280117 L-46.93125121012135,-0.8465430595781429 L-46.80252398015195,-0.8120303246598176 L-46.66002786674857,-0.7673611140055732 L-46.50421121540246,-0.7126759734781394 L-46.33556428294535,-0.6481469627611743 L-46.15461769502011,-0.5739771139958245 L-45.96194077653617,-0.4903997929665163 " />
			<path d="M-45.96194077653615,-0.49039979296650854 L3.535533906733764,21.519305940778512 " />
			<path d="M7.071067812672768,23.482219256078338 L7.071067812657439,24.15882422804818 " />
			<path d="M3.5355339067337663,21.519305940778512 L3.739334922907306,21.612027768899207 L3.9536188033744315,21.713602366936236 L4.1777113317697925,21.8237101436252 L4.410907430092806,21.942004659164674 L4.652473377143901,22.068113715244024 L4.901649117082858,22.20164052611696 L5.1576506508456905,22.342164967036318 L5.419672502895725,22.489244896121924 L5.686890255547679,22.642417545502546 L5.958463142890658,22.801200977354814 L6.233536696148782,22.965095600257904 L6.511245432156089,23.133585741092993 L6.79071557648677,23.306141267541665 L7.071067812672745,23.48221925607831 " />
			<path d="M47.42640687182763,5.537684849499666 L47.41854094691791,5.48976687222589 L47.394967921296235,5.451963492993006 L47.355761964422385,5.424393655217976 L47.3010464327415,5.407144103810305 L47.23099348155904,5.400269112240435 L47.14582352337653,5.403790311775353 L47.04580453439224,5.417696623418596 L46.93125121134899,5.4419442927689 L46.80252398138173,5.476457027687716 L46.66002786798041,5.521126238342501 L46.50421121663629,5.575811378870527 L46.3355642841811,5.640340389588134 L46.154617696257695,5.714510238354172 L45.961940777775496,5.798087559384211 " />
			<path d="M45.96194077777548,5.798087559384219 L10.606601718599247,21.51930594076507 " />
			<path d="M7.07106781267276,23.482219256078324 L7.351420048858687,23.306141267540603 L7.63089019318916,23.133585741090865 L7.908598929196138,22.965095600254724 L8.183672482453797,22.80120097735059 L8.45524536979617,22.64241754549729 L8.722463122447396,22.48924489611565 L8.98448497449658,22.342164967029042 L9.240486508258435,22.20164052610871 L9.489662248196291,22.068113715234833 L9.731228195246167,21.942004659154563 L9.964424293567848,21.823710143614203 L10.188516821961764,21.713602366924384 L10.402800702427344,21.61202776888654 L10.606601718599228,21.51930594076508 " />
			<path d="M-10.606601717239002,-9.008830554529236 L-10.863706243710286,-8.891664669528259 L-11.114266879760208,-8.771728398645731 L-11.35813269703067,-8.649093987006527 L-11.595156799872097,-8.523835304994611 L-11.82519641382783,-8.396027803756311 L-12.048112971636154,-8.265748469751344 L-12.26377219669805,-8.133075778379045 L-12.472044183960348,-7.998089646707751 L-12.67280347816571,-7.860871385335729 L-12.865929149422193,-7.7215036494126945 L-13.051304866046863,-7.58007038885148 L-13.228818964639663,-7.436656797759719 L-13.398364517345295,-7.291349263122093 L-13.559839396262522,-7.144235312764078 L-13.71314633496221,-6.995403562628425 L-13.858192987077018,-6.8449436633962275 L-13.99489198192735,-6.6929462464847305 L-14.123160977150208,-6.539502869454335 L-14.242922708299169,-6.384705960857735 L-14.354105035385562,-6.228648764564445 L-14.456640986332923,-6.071425283594162 L-14.504647065073593,-5.992405755952962 L-14.550468797318477,-5.913130223492845 L-14.594099282483247,-5.833610624817396 L-14.635531949977327,-5.753858935285671 L-14.67476056019339,-5.673887165208778 L-14.711779205447032,-5.593707358041124 L-14.746582310866444,-5.5133315885667376 L-14.779164635231965,-5.432771961080869 L-14.809521271765393,-5.352040607567089 L-14.837647648868927,-5.271149685870277 L-14.86353953081363,-5.190111377865714 L-14.887193018377324,-5.108937887624496 L-14.908604549431782,-5.027641439575667 L-14.927770899479187,-4.946234276665284 L-14.94468918213772,-4.864728658512636 L-14.959356849576245,-4.783136859564009 L-14.971771692897994,-4.701471167244219 L-14.981931842473232,-4.6197438801061335 L-14.989835768220802,-4.5379673059785715 L-14.99548227983856,-4.456153760112811 L-14.99887052698263,-4.37431556332792 L-14.999999999395449,-4.292465040155363 " />
			<path d="M-14.999999999395449,-4.292465040155301 L-14.996942178093217,-4.157793527611761 L-14.987769960889333,-4.023176921924202 L-14.972487087383952,-3.888670107562558 L-14.951099788549897,-3.754327924233796 L-14.92361678419223,-3.620205144523246 L-14.890049279393109,-3.486356451563296 L-14.850410959943364,-3.352836416738561 L-14.804717986762673,-3.2196994774366083 L-14.752988989310609,-3.08699991485332 L-14.695245057991213,-2.9547918318619315 L-14.631509735554257,-2.8231291309547757 L-14.561809007496626,-2.6920654922667255 L-14.486171291467791,-2.561654351689291 L-14.404627425683666,-2.4319488790842994 L-14.317210656353561,-2.303001956606038 L-14.223956624125403,-2.174866157140693 L-14.124903349554694,-2.0475937228718912 L-14.02009121760317,-1.9212365439810575 L-13.909562961173476,-1.7958461374912988 L-13.793363643686545,-1.6714736262634236 L-13.671540640708818,-1.5481697181526637 L-13.54414362063678,-1.425984685334602 L-13.411224524446666,-1.3049683438087278 L-13.272837544517659,-1.1851700330879793 L-13.12903910253711,-1.066638596082555 L-12.979887826496903,-0.9494223591861966 L-12.825444526790255,-0.8335691125730564 L-12.665772171418741,-0.7191260907131918 L-12.500935860319652,-0.6061399531146212 L-12.33100279882411,-0.49465676529979863 L-12.156042270256837,-0.3847219800242625 L-11.976125607688683,-0.27638041874512176 " />
			<path d="M11.9761362032374,-0.27638666544003776 L12.156052257861134,-0.3847281224209049 L12.331012192406442,-0.4946627951094147 L12.500944674303652,-0.6061458622570965 L12.665780420715901,-0.7191318713226358 L12.825452226786288,-0.8335747570032281 L12.979894993037831,-0.9494278600157786 L13.129045751915074,-1.0666439461202746 L13.272843693456423,-1.1851752253775487 L13.411230190086885,-1.3049733716336291 L13.544148820521004,-1.4259895422227062 L13.671545392766244,-1.5481743978806666 L13.793367966217529,-1.6714781228611137 L13.909566872833828,-1.7958504452456538 L14.02009473738822,-1.9212406574401473 L14.124906496783144,-2.0475976368486086 L14.223959418423007,-2.1748698667163078 L14.317213117636587,-2.3030054571335463 L14.404629574142188,-2.431952166191601 L14.486173147548833,-2.561657421282177 L14.561810591887115,-2.692068340531663 L14.631511069163853,-2.8231317543615084 L14.695246161935001,-2.9547942271658907 L14.752989884891651,-3.0870020790978288 L14.80471869545446,-3.2197014079548927 L14.850411503372152,-3.3528381111555734 L14.890049679320175,-3.4863579077973226 L14.923617062496026,-3.620206360787322 L14.951099967208156,-3.7543288990369303 L14.972487188455712,-3.888670839710737 L14.987770006496923,-4.0231774105212015 L14.996942190404203,-4.157793772059766 L15.000000000604551,-4.292465040155271 " />
			<path d="M15.000000000604551,-4.2924650401553 L14.997458727541893,-4.415236972868189 L14.989835769429757,-4.5379673059803505 L14.977133709203889,-4.660614453986517 L14.959356850784756,-4.783136859567564 L14.936511217619216,-4.905493007671639 L14.908604550639561,-5.0276414395809805 L14.875646305640593,-5.149540766959632 L14.837647650075679,-5.271149685877327 L14.794621459272786,-5.392426990804754 L14.74658231207188,-5.513331588575494 L14.69354648588505,-5.63382251230989 L14.635531951181163,-5.753858935296102 L14.572558365396784,-5.873400184823693 L14.504647066275545,-5.992405755965024 L14.431821064638127,-6.110835325299794 L14.354105036585358,-6.228648764578088 L14.271525315137055,-6.345806154317284 L14.184109881309436,-6.462267797328231 L14.09188835463414,-6.577994232166097 L13.994891983122029,-6.692946246501357 L13.893153632675254,-6.807084890406335 L13.786707775951077,-6.920371489552875 L13.675590480681267,-7.0327676583166125 L13.559839397451062,-7.144235312783408 L13.439493746941768,-7.254736683653575 L13.314594306641363,-7.364234329039489 L13.185183397027604,-7.472691147152263 L13.051304867228309,-7.580070388873189 L12.913004080163667,-7.686335670205667 L12.770327897175644,-7.79145098460344 L12.623324662149642,-7.895380715170911 L12.472044185133825,-7.99808964673146 L12.316537725461687,-8.099542977759604 L12.156857974383499,-8.199706332173045 L11.9930590372126,-8.298545770980528 L11.825196414992554,-8.396027803781598 L11.65332698569137,-8.492119400114387 L11.47750898492918,-8.586788000647514 L11.297801986245888,-8.680001528212397 L11.11426688091548,-8.771728398672142 L10.926965857313858,-8.861937531623411 L10.735962379847136,-8.9505983609276 L10.54132116744761,-9.03768084506774 L10.343108171644593,-9.123155477327678 L10.141390554217683,-9.206993295790014 L9.936236664439871,-9.289165893149452 L9.727716015918325,-9.369645426338241 L9.515899263040652,-9.44840462596041 L9.30085817703463,-9.525416805531634 L9.082665621649504,-9.600655870521585 L8.861395528467058,-9.674096327195711 L8.637122871850934,-9.745713291253455 L8.409923643542603,-9.81548249625993 L8.179874826912572,-9.883380301868296 L7.947054370875609,-9.949383701829973 L7.711541163478813,-10.013470331789975 L7.473415005171512,-10.075618476864785 L7.232756581765935,-10.135807079000134 L6.989647437097892,-10.194015744106256 L6.744169945396797,-10.250224748968131 L6.496407283374285,-10.30441504792843 L6.246443402040875,-10.356568279340891 L5.9943629982603195,-10.4066667717919 L5.740251486051278,-10.454693550088201 L5.484194967645859,-10.500632341008739 L5.226280204315078,-10.544467578818596 L4.966594586971032,-10.586184410543227 L4.705226106555589,-10.625768701001205 L4.442263324225896,-10.663207037593725 L4.177795341346677,-10.698486734849281 L3.9119117692993606,-10.731595838721965 L3.644702699118529,-10.762523130641942 L3.3762586709658122,-10.791258131316694 L3.1066706434515674,-10.817791104281795 L2.8360299628147607,-10.842113059199988 L2.5644283319715604,-10.864215754907423 L2.2919577794430777,-10.88409170220607 L2.0187106281727263,-10.901734166401337 L1.7447794642438226,-10.917137169584016 L1.4702571055080758,-10.930295492655837 L1.1952365701355459,-10.941204677097865 L0.9198110450966758,-10.94986102648123 L0.6440738545871252,-10.956261607719593 L0.3681184284061628,-10.960404252063 L0.09203827029928845,-10.962287555832717 L-0.18407307372432044,-10.961910880896863 L-0.46012204708856236,-10.959274354886617 L-0.736015114350746,-10.954378871152983 L-1.0116587928948835,-10.947226088464088 L-1.2869596846069649,-10.937818430443127 L-1.5618245075215993,-10.926159084747157 L-1.83616012742942,-10.912252001986994 L-2.1098735894343075,-10.896101894388613 L-2.382872149449851,-10.877714234196468 L-2.6550633056245028,-10.857095251819295 L-2.926354829684531,-10.834251933719026 L-3.1966547981842943,-10.809192020043522 L-3.465871623653274,-10.781924002003928 L-3.733914085629273,-10.752457118997537 L-4.000691361567201,-10.720801355477153 L-4.266113057613037,-10.68696743756799 L-4.530089239232579,-10.650966829433278 L-4.792530461684569,-10.612811729389772 L-5.053347800327803,-10.572515065774528 L-5.3124528807520015,-10.530090492564316 L-5.569757908722318,-10.485552384749155 L-5.825175699927234,-10.438915833461525 L-6.078619709519762,-10.390196640862962 L-6.3300040614419455,-10.339411314789707 L-6.5792435775228775,-10.286577063159246 L-6.826253806340121,-10.231711788139634 L-7.070951051834891,-10.174834080083606 L-7.313252401671402,-10.115963211229474 L-7.553075755330548,-10.055119129170993 L-7.790339851928515,-9.992322450098404 L-8.024964297750989,-9.927594451812897 L-8.256869593493446,-9.860957066516931 L-8.48597716119838,-9.792432873382806 L-8.712209370880428,-9.722045090902004 L-8.935489566830224,-9.649817569017934 L-9.1557420935881,-9.575774781044691 L-9.372892321578952,-9.499941815374628 L-9.586866672399463,-9.422344366977459 L-9.79759264374913,-9.343008728693896 L-10.004998833996666,-9.261961782326672 L-10.209014966373486,-9.179230989532005 L-10.409571912786058,-9.094844382514584 L-10.606601717238906,-9.008830554529277 " />
			<path d="M-47.42640687061853,-7.436708716337385 L-47.424900964099535,-7.38214580968429 L-47.42038415164433,-7.327615769685923 L-47.412859154011834,-7.273151443199373 L-47.40233050397925,-7.218785637498361 L-47.38880454361167,-7.164551100511375 L-47.372289420441845,-7.110480501095535 L-47.35279508256244,-7.056606409358101 L-47.33033327263364,-7.002961277037452 L-47.30491752080985,-6.949577417955379 L-47.27656313658963,-6.896486988552443 L-47.24528719959377,-6.843721968518135 L-47.21110854927725,-6.791314141527516 L-47.17404777358099,-6.7392950760959085 L-47.134127196530486,-6.687696106563212 L-47.091370864788615,-6.6365483142192625 L-47.04580453317087,-6.585882508581629 L-46.99745564913158,-6.535729208837113 L-46.9463533362306,-6.486118625458127 L-46.8925283765904,-6.43708064200504 L-46.83601319235401,-6.388644797125436 L-46.77684182615517,-6.3408402667611385 L-46.71504992061233,-6.293695846573712 L-46.65067469685884,-6.247239934599034 L-46.583754932122346,-6.201500514141381 L-46.44244452801141,-6.112280906459633 L-46.29145913742035,-6.026251961378091 L-46.13116249737987,-5.943620930160704 L-45.96194077653615,-5.864586878199302 " />
			<path d="M47.42640687182763,-1.1482213639732164 L47.424900965308666,-1.0936584573207144 L47.42038415285356,-1.039128417322941 L47.41285915522123,-0.9846640908369808 L47.40233050518888,-0.9302982851365567 L47.38880454482159,-0.8760637481501534 L47.37228942165213,-0.8219931487348916 L47.35279508377314,-0.7681190569980284 L47.33033327384483,-0.7144739246779439 L47.30491752202159,-0.6610900655964267 L47.27656313780197,-0.6079996361940359 L47.245287200806786,-0.5552346161602641 L47.211108550491005,-0.5028267891701685 L47.17404777479554,-0.4508077237390725 L47.13412719774588,-0.3992087542068732 L47.09137086600493,-0.3480609618634066 L47.045804534388154,-0.29739515622624146 L46.997455650349885,-0.24724185648217634 L46.946353337449985,-0.19763127310362416 L46.89252837781091,-0.14859328965095275 L46.8360131935757,-0.10015744477174504 L46.7768418273781,-0.052352914407823414 L46.715049921836545,-0.005208494220752202 L46.65067469808439,0.04124741775359175 L46.58375493334926,0.08698683821093378 L46.4424445292412,0.1762064458921302 L46.29145913865318,0.26223539097322024 L46.13116249861588,0.34486642219026065 L45.96194077777549,0.42390047415142607 " />
			<path d="M-45.96194077653615,-5.8645868781993 L3.535533906733764,16.14511885554572 " />
			<path d="M3.5355339067337663,16.14511885554572 L3.7132730384321357,16.220365528297002 L3.899101391849685,16.29164354601311 L4.092571290206392,16.35878119370615 L4.2932166475711515,16.421616730902265 L4.500554091703615,16.47999878128861 L4.714084128540252,16.533786697392138 L4.933292345519302,16.582850899411692 L5.157650650845689,16.62707318738709 L5.386618545710416,16.666347025953183 L5.6196444263995335,16.700577800992885 L5.856166913155804,16.729683047570862 L6.095616202591713,16.75359264859879 L6.337415440395725,16.772249003753558 L6.580982111024858,16.785607168241498 L6.825729441035649,16.793634961074318 L7.071067812672765,16.796313042595933 L7.316406184309829,16.793634961073387 L7.561153514320465,16.785607168239636 L7.804720184949342,16.77224900375077 L8.046519422752995,16.75359264859508 L8.285968712188444,16.729683047566244 L8.522491198944156,16.700577800987368 L8.755517079632614,16.666347025946777 L8.984484974496587,16.627073187379814 L9.208843279822124,16.582850899403564 L9.42805149680023,16.533786697383178 L9.641581533635833,16.479998781278837 L9.848918977767173,16.421616730891706 L10.049564335130723,16.358781193694828 L10.243034233486139,16.29164354600105 L10.42886258690232,16.220365528284237 L10.606601718599226,16.14511885553229 " />
			<path d="M45.96194077777548,0.4239004741514277 L10.606601718599247,16.145118855532278 " />
			<path d="M-14.999999999395449,2.873117740155081 L-14.999999999395449,-4.292465040155307 " />
			<path d="M15.000000000604551,2.873117740155081 L15.000000000604551,-4.292465040155307 " />

        </g>

        <!-- solid lines -->
        <g  stroke="rgb(0,0,0)" fill="none">
    			<path d="M-7.0710678114483345,-14.829797357582798 L-43.84062043299162,1.520269759053288 " />
			<path d="M-7.0710678114483345,-14.829797357582796 L43.84062043420072,7.808757111412083 " />
			<path d="M-43.84062043299163,1.520269759053289 L7.071067812657433,24.158824228048168 " />
			<path d="M43.84062043420072,7.80875711141208 L7.071067812657433,24.158824228048168 " />
			<path d="M-7.071067811463663,-18.695336909424164 L-7.0710678114483345,-14.829797357582798 " />
			<path d="M-10.606601717390141,-19.35586185061009 L-10.402800701218245,-19.43449269470834 L-10.188516820752666,-19.49383867612542 L-9.96442429235875,-19.533713070447902 L-9.731228194037069,-19.553990418079138 L-9.489662246987196,-19.554606918981587 L-9.240486507049336,-19.535560633415322 L-8.984484973287486,-19.49691148804119 L-8.722463121238299,-19.438781087369332 L-8.455245368587077,-19.36135233114645 L-8.183672481244699,-19.26486883888549 L-7.9085989279870414,-19.14963418334857 L-7.630890191980072,-19.01601093539472 L-7.351420047649585,-18.86441952319785 L-7.071067811463689,-18.69533690942416 " />
			<path d="M-10.60660171739014,-19.35586185061009 L-45.96194077656637,-3.6346434692292386 " />
			<path d="M-47.42640687061853,-0.7508025028454842 L-43.84062043299163,1.5202697590532956 " />
			<path d="M-45.96194077656638,-3.634643469229239 L-46.1546176950486,-3.5369751641759715 L-46.335564282972,-3.42057669878917 L-46.5042112154272,-3.285814305704231 L-46.660027866771316,-3.1331119972670773 L-46.80252398017263,-2.9629502314344736 L-46.93125121013989,-2.775864400075511 L-47.045804533183144,-2.5724431444307436 L-47.145823522167426,-2.353326503029038 L-47.230993480349944,-2.119203897889597 L-47.3010464315324,-1.8708119653452109 L-47.35576196321329,-1.6089322383118296 L-47.39496792008713,-1.334388687296867 L-47.418540945708806,-1.0480451278831429 L-47.42640687061853,-0.7508025028455055 " />
			<path d="M-7.071067811463664,-18.695336909424146 L-6.790715575277668,-18.864419523198915 L-6.511245430946987,-19.01601093539685 L-6.23353669493968,-19.149634183351758 L-5.958463141681555,-19.264868838889722 L-5.686890254338579,-19.361352331151707 L-5.419672501686625,-19.43878108737561 L-5.157650649636588,-19.49691148804846 L-4.901649115873756,-19.53556063342357 L-4.6524733759347985,-19.554606918990785 L-4.410907428883704,-19.55399041808925 L-4.17771133056069,-19.5337130704589 L-3.9536188021653302,-19.493838676137273 L-3.739334921698205,-19.434492694721005 L-3.535533905524681,-19.355861850623537 " />
			<path d="M-3.535533905524666,-19.35586185062353 L45.96194077774525,2.653843883121492 " />
			<path d="M47.426406871827645,5.537684849499671 L43.84062043420073,7.80875711141209 " />
			<path d="M45.961940777745255,2.653843883121488 L46.15461769622921,2.751512188174022 L46.33556428415445,2.867910653560137 L46.50421121661156,3.002673046644434 L46.66002786795767,3.155375355080994 L46.802523981361055,3.325537120913057 L46.931251211330455,3.5126229522715304 L47.04580453437588,3.716044207915865 L47.14582352336241,3.935160849317188 L47.23099348154721,4.169283454456304 L47.301046432731994,4.417675387000424 L47.35576196441523,4.679555114033598 L47.394967921291446,4.954098665048412 L47.41854094691551,5.240442224462046 L47.42640687182763,5.537684849499654 " />
			<path d="M-11.97612560768867,-0.27638041874511643 L-11.71018816670524,-0.12420123805377159 L-11.434474159441596,0.02449795523237963 L-11.149213773169528,0.16959301558312312 L-10.8546451652127,0.310962806475783 L-10.55101426411458,0.4484893015293183 L-10.238574564318379,0.5820576830418318 L-9.91758691453036,0.711556437849219 L-9.588319299943294,0.8368774504249394 L-9.251046618501762,0.9579160931431812 L-8.906050451396222,1.0745713136300576 L-8.553618827977353,1.1867457191298953 L-8.194045985286978,1.2943456578162156 L-7.8276321224063565,1.3972812969794743 L-7.454683149826865,1.4954666980263314 L-7.0755104340523935,1.5888198882277944 L-6.69043053764663,1.6772629291563623 L-6.299764954942249,1.7607219817550277 L-5.9038398436327135,1.839127367983803 L-5.502985752470737,1.9124136289923035 L-5.097537345300742,1.9805195797698403 L-4.687833121655716,2.043388360227377 L-4.2742151341517705,2.100967482668702 L-3.8570287029162844,2.153208875611199 L-3.436622127288074,2.2000689239196225 L-3.0133463950303243,2.241508505219368 L-2.5875548892989797,2.277493022558839 L-2.1596030936112784,2.307992433293647 L-1.7298482950607803,2.3329812741685227 L-1.2986492860265886,2.3524386825760013 L-0.8663660646258545,2.3663484139741318 L-0.43335953415966033,2.3746988554486714 L8.79819683765824e-06,2.3774830354084395 L0.43337712320842847,2.3746986294057395 L0.8663836316460334,2.3663479620769863 L1.2986668163528878,2.352438005201921 L1.7298657740585435,2.332980371883032 L2.159620506688703,2.3079913068500417 L2.5875722219192965,2.277491672897562 L3.0133636327239386,2.241506933467221 L3.436639255664642,2.200067131388824 L3.8570457076767277,2.1532068637982915 L4.274232001100216,2.100965253253303 L4.687849836711347,2.0433859150707736 L5.097553894509554,1.9805169209134377 L5.503002122017186,1.912410758655919 L5.903856019851252,1.8391242885638137 L6.299780924328733,1.760718695822372 L6.690446286869598,1.6772594394543878 L7.07552594996419,1.5888161976699742 L7.454698419474617,1.4954628096938292 L7.827647133042801,1.397277214118568 L8.194060724381096,1.2943413838355884 L8.553633283224823,1.186741257597796 L8.906064610729697,1.0745666682713173 L9.251060470100946,0.9579112678361064 L9.588332832244816,0.8368724491980641 L9.917600116237427,0.7115512648779534 L10.238587424410195,0.582052342644972 L10.551026771855561,0.44848379816543726 L10.854657310161436,0.3109571447395094 L11.149225545187493,0.16958720020131146 L11.434485548701605,0.024491991060160423 L11.710199163699675,-0.12420734603704986 L11.97613620323736,-0.27638666544001467 " />
			<path d="M-10.606601717390141,-24.73004893584288 L-10.42886258569322,-24.805295608594836 L-10.243034232277044,-24.87657362631165 L-10.049564333921628,-24.943711274005423 L-9.848918976558073,-25.006546811202305 L-9.641581532426729,-25.064928861589436 L-9.428051495591127,-25.118716777693777 L-9.20884327861302,-25.167780979714166 L-8.984484973287485,-25.212003267690413 L-8.755517078423514,-25.251277106257376 L-8.522491197735055,-25.285507881297967 L-8.285968710979345,-25.314613127876843 L-8.046519421543897,-25.33852272890568 L-7.804720183740245,-25.357179084061368 L-7.5611535131113685,-25.370537248550235 L-7.316406183100733,-25.378565041383986 L-7.071067811463665,-25.381243122906533 L-6.825729439826546,-25.378565041384917 L-6.580982109815757,-25.370537248552097 L-6.337415439186623,-25.357179084064157 L-6.0956162013826125,-25.33852272890939 L-5.856166911946705,-25.31461312788146 L-5.619644425190433,-25.285507881303484 L-5.386618544501317,-25.25127710626378 L-5.157650649636592,-25.21200326769769 L-4.933292344310205,-25.16778097972229 L-4.714084127331157,-25.118716777702737 L-4.5005540904945205,-25.06492886159921 L-4.293216646362053,-25.006546811212864 L-4.0925712889972905,-24.94371127401675 L-3.8991013906405847,-24.876573626323708 L-3.7132730372230354,-24.8052956086076 L-3.535533905524699,-24.730048935856335 " />
			<path d="M-10.60660171739014,-24.73004893584288 L-45.96194077656637,-9.00883055446203 " />
			<path d="M-45.96194077656638,-9.00883055446203 L-46.131162497406784,-8.929796502500862 L-46.29145913744408,-8.847165471283823 L-46.4424445280321,-8.761136526202733 L-46.58375493214016,-8.671916918521536 L-46.650674696875285,-8.626177498064195 L-46.71504992062744,-8.57972158608985 L-46.776841826169,-8.532577165902778 L-46.8360131923666,-8.484772635538858 L-46.89252837660181,-8.436336790659649 L-46.94635333624089,-8.387298807206978 L-46.99745564914078,-8.337688223828426 L-47.04580453317905,-8.28753492408436 L-47.09137086479583,-8.236869118447196 L-47.13412719653678,-8.18572132610373 L-47.17404777358644,-8.13412235657153 L-47.2111085492819,-8.082103291140433 L-47.24528719959768,-8.02969546415034 L-47.27656313659287,-7.976930444116567 L-47.30491752081249,-7.923840014714175 L-47.33033327263572,-7.8704561556326595 L-47.352795082564036,-7.8168110233125745 L-47.372289420443025,-7.762936931575711 L-47.38880454361249,-7.70886633216045 L-47.402330503979776,-7.654631795174046 L-47.412859154012125,-7.6002659894736215 L-47.420384151644456,-7.545801662987663 L-47.424900964099564,-7.491271622989888 L-47.42640687061853,-7.436708716337406 " />
			<path d="M-3.535533905524666,-24.73004893585632 L45.96194077774525,-2.7203432021112985 " />
			<path d="M45.961940777745255,-2.7203432021113025 L46.13116249858897,-2.6413091501498984 L46.29145913862945,-2.558678118932511 L46.44244452922051,-2.472649173850969 L46.58375493333145,-2.3834295661692213 L46.650674698067945,-2.3376901457115675 L46.71504992182143,-2.2912342337368905 L46.77684182736427,-2.244089813549465 L46.836013193563105,-2.196285283185166 L46.8925283777995,-2.1478494383055615 L46.9463533374397,-2.0988114548524752 L46.99745565034068,-2.04920087147349 L47.045804534379975,-1.9990475717289728 L47.09137086599772,-1.9483817660913392 L47.13412719773959,-1.8972339737473907 L47.17404777479009,-1.8456350042146945 L47.211108550486344,-1.7936159387830863 L47.24528720080287,-1.7412081117924658 L47.276563137798725,-1.68844309175816 L47.304917522018954,-1.6353526623552244 L47.33033327384274,-1.5819688032731505 L47.35279508377154,-1.5283236709525012 L47.37228942165095,-1.4744495792150676 L47.38880454482077,-1.420378979799229 L47.40233050518835,-1.3661444428122416 L47.412859155220936,-1.311778637111229 L47.42038415285343,-1.2573143106246794 L47.42490096530864,-1.202784270626314 L47.42640687182763,-1.148221363973237 " />
			<path d="M-12.020815279618141,-0.6807008143911073 L-12.312200409620493,-0.5479128113892715 L-12.596169130478552,-0.4119850377216423 L-12.87255039005315,-0.27299937119641005 L-13.141177706608072,-0.13103953158208093 L-13.40188926909246,0.013808969822182604 L-13.654528034609696,0.16145888169536882 L-13.898941823014217,0.31182126525155507 L-14.134983408579092,0.46480554781329086 L-14.362510608679347,0.6203195773692141 L-14.58138636943744,0.7782696780829723 L-14.791478848279368,0.9385607067200175 L-14.992661493351747,1.1010961099583727 L-15.184813119751887,1.265777982548717 L-15.36781798252506,1.4325071262888538 L-15.541565846384922,1.6011831097769984 L-15.624935478155068,1.686219459283576 L-15.705952052115135,1.7717043289078989 L-15.784603367467096,1.8576248449430461 L-15.860877579612165,1.9439680680753497 L-15.934763201934546,2.0307209953329948 L-16.006249107531286,2.1178705620442324 L-16.07532453088795,2.2054036438048836 L-16.141979069499868,2.2933070584548134 L-16.206202685438694,2.381567568063103 L-16.267985706864096,2.470171880921648 L-16.327318829480305,2.5591066535468494 L-16.384193117937308,2.648358492689084 L-16.438600007176458,2.737913957349665 L-16.490531303720353,2.827759560805019 L-16.53997918690676,2.9178817726377497 L-16.586936210066355,3.008267020774258 L-16.63139530164417,3.0989016935286307 L-16.673349766264543,3.1897721416525244 L-16.712793285739426,3.280864680390707 L-16.74971992001987,3.3721655915419153 L-16.784124108090584,3.4636611255247542 L-16.816000668807387,3.5553375034483468 L-16.845344801677488,3.647180919187396 L-16.872152087582414,3.7391775414613253 L-16.896418489443512,3.831313515917204 L-16.91814035282992,3.9235749672161746 L-16.93731440650891,4.015948001123043 L-16.953937762938526,4.108418706598683 L-16.96800791870244,4.200973157894978 L-16.979522754886943,4.293597416651999 L-16.988480537400065,4.386277533997088 L-16.994879917232705,4.478999552645472 L-16.9987199306618,4.571749509002192 L-16.99999999939545,4.664513435264998 L-16.998719930660016,4.757277361527797 L-16.994879917229138,4.8500273178845035 L-16.988480537394715,4.942749336532862 L-16.979522754879813,5.035429453877918 L-16.96800791869353,5.128053712634895 L-16.953937762927836,5.220608163931137 L-16.93731440649644,5.313078869406714 L-16.918140352815673,5.405451903313509 L-16.896418489427493,5.497713354612397 L-16.872152087564622,5.589849329068183 L-16.845344801657927,5.6818459513420105 L-16.816000668786064,5.773689367080948 L-16.7841241080675,5.86536574500442 L-16.749719919995027,5.956861278987128 L-16.712793285712824,6.0481621901381954 L-16.67334976623619,6.139254728876228 L-16.63139530161407,6.230125176999962 L-16.586936210034512,6.320759849754166 L-16.53997918687318,6.411145097890496 L-16.49053130368504,6.501267309723039 L-16.438600007139414,6.591112913178195 L-16.384193117898544,6.68066837783857 L-16.327318829439825,6.769920216980589 L-16.267985706821907,6.858854989605565 L-16.206202685394803,6.947459302463875 L-16.14197906945428,7.03571981207192 L-16.07532453084067,7.123623226721596 L-16.006249107482322,7.211156308481986 L-15.934763201883907,7.298305875192951 L-15.86087757955986,7.385058802450315 L-15.78460336741313,7.471402025582329 L-15.70595205205952,7.557322541617177 L-15.624935478097807,7.642807411241192 L-15.541565846326026,7.727843760747453 L-15.36781798246292,7.896519744234936 L-15.184813119686543,8.063248887974378 L-14.992661493283236,8.227930760563991 L-14.791478848207733,8.390466163801582 L-14.581386369362724,8.550757192437828 L-14.362510608601594,8.708707293150756 L-14.134983408498348,8.864221322705813 L-13.898941822930533,9.01720560526665 L-13.654528034523118,9.167567988821908 L-13.401889269003044,9.315217900694135 L-13.141177706515874,9.460066402097407 L-12.872550389958219,9.602026241710716 L-12.596169130380952,9.741011908234897 L-12.31220040952028,9.876939681901447 L-12.020815279515373,10.009727684902174 L-11.722189259872959,10.139295930709334 L-11.416502231740921,10.265566372256524 L-11.103938329554634,10.388462948951307 L-10.784685830121255,10.507911632491288 L-10.458937039208825,10.62384047145597 L-10.126888175708457,10.736179634647623 L-9.788739253439402,10.844861453154973 L-9.444693960668264,10.94982046111442 L-9.094959537414708,11.050993435144246 L-8.739746650617876,11.148319432427996 L-8.37926926723854,11.241739827424155 L-8.013744525373312,11.33119834717999 L-7.643392603458844,11.416641105228276 L-7.268436587644546,11.498016634046472 L-6.889102337413837,11.575275916058846 L-6.505618349534833,11.648372413162821 L-6.118215620422445,11.717262094761802 L-5.727127506994767,11.781903464287538 L-5.332589586107602,11.84225758419613 L-4.93483951265177,11.898288099422523 L-4.534116876398688,11.949961259279467 L-4.130663057680447,11.997245937787646 L-3.7247210819913374,12.040113652424814 L-3.316535473598363,12.078538581282604 L-2.9063521082489783,12.112497578620667 L-2.4944180650647256,12.14197018880882 L-2.080981477710013,12.166938658648736 L-1.6662913849256724,12.187387948067812 L-1.2505975805173368,12.203305739178752 L-0.8341504628889891,12.214682443699399 L-0.41720088421231233,12.221511208728348 L6.772170102638549e-10,12.22378792087289 L0.41720088556670265,12.221511208726763 L0.8341504642432479,12.214682443696228 L1.2505975818713773,12.203305739173999 L1.6662913862794066,12.187387948061478 L2.080981479063354,12.166938658640824 L2.494418066417587,12.141970188799338 L2.906352109601288,12.112497578609617 L3.316535474950005,12.078538581269996 L3.7247210833422253,12.040113652410657 L4.130663059030526,11.997245937771943 L4.534116877747872,11.94996125926223 L4.934839513999947,11.898288099403764 L5.332589587454686,11.84225758417586 L5.727127508340706,11.781903464265767 L6.118215621767154,11.71726209473854 L6.505618350878205,11.648372413138091 L6.889102338755789,11.575275916032659 L7.2684365889850255,11.498016634018843 L7.643392604797773,11.416641105199218 L8.013744526710585,11.331198347149527 L8.37926926857408,11.241739827392303 L8.739746651951634,11.148319432394771 L9.094959538746593,11.050993435109671 L9.444693961998192,10.94982046107852 L9.788739254767302,10.84486145311777 L10.126888177034267,10.736179634609133 L10.458937040532486,10.623840471416216 L10.784685831442678,10.507911632450298 L11.10393833087377,10.388462948909101 L11.416502233057708,10.265566372213124 L11.722189261187307,10.13929593066478 L12.020815280827241,10.009727684856477 L12.312200410829606,9.876939681854637 L12.596169131687654,9.741011908187012 L12.87255039126226,9.602026241661775 L13.141177707817194,9.460066402047442 L13.401889270301568,9.315217900643184 L13.654528035818815,9.167567988769992 L13.898941824223336,9.017205605213803 L14.134983409788202,8.864221322652075 L14.362510609888448,8.708707293096158 L14.581386370646543,8.550757192382399 L14.791478849488476,8.390466163745348 L14.992661494560847,8.227930760506998 L15.18481312096098,8.06324888791666 L15.36781798373416,7.896519744176517 L15.541565847594029,7.7278437606883665 L15.624935479364169,7.642807411181796 L15.705952053324236,7.557322541557472 L15.784603368676198,7.471402025522325 L15.860877580821262,7.385058802390027 L15.934763203143648,7.298305875132376 L16.006249108740384,7.211156308421138 L16.07532453209705,7.123623226660488 L16.141979070708974,7.0357198120105515 L16.206202686647796,6.947459302402267 L16.267985708073198,6.8588549895437225 L16.327318830689407,6.769920216918521 L16.384193119146406,6.680668377776293 L16.43860000838556,6.5911129131157065 L16.490531304929455,6.501267309660352 L16.53997918811586,6.411145097827621 L16.58693621127546,6.320759849691106 L16.63139530285327,6.23012517693674 L16.673349767473645,6.139254728812846 L16.712793286948525,6.048162190074663 L16.749719921228973,5.956861278923462 L16.784124109299686,5.8653657449406165 L16.81600067001649,5.773689367017024 L16.84534480288659,5.681845951277975 L16.872152088791516,5.589849329004038 L16.89641849065261,5.497713354548167 L16.91814035403902,5.4054519032491966 L16.937314407718013,5.313078869342328 L16.95393776414763,5.220608163866695 L16.968007919911543,5.128053712570392 L16.979522756096046,5.0354294538133715 L16.988480538609167,4.942749336468289 L16.994879918441807,4.850027317819899 L16.9987199318709,4.757277361463179 L17.00000000060455,4.66451343520038 L16.99871993186912,4.571749508937587 L16.99487991843824,4.478999552580881 L16.98848053860382,4.386277533932515 L16.979522756088915,4.293597416587467 L16.968007919902632,4.200973157830489 L16.95393776413694,4.10841870653424 L16.937314407705543,4.01594800105867 L16.91814035402478,3.923574967151875 L16.8964184906366,3.831313515852987 L16.87215208877373,3.7391775413972077 L16.845344802867036,3.6471809191233735 L16.81600066999517,3.555337503384435 L16.784124109276604,3.4636611254609644 L16.749719921204132,3.3721655914782493 L16.712793286921933,3.2808646803271886 L16.6733497674453,3.189772141589156 L16.63139530282318,3.098901693465421 L16.586936211243625,3.008267020711224 L16.539979188082288,2.917881772574888 L16.490531304894148,2.8277595607423445 L16.438600008348526,2.737913957287188 L16.384193119107653,2.6483584926268073 L16.327318830648938,2.5591066534847955 L16.267985708031016,2.4701718808598194 L16.206202686603906,2.3815675680014965 L16.141979070663385,2.293307058393457 L16.075324532049784,2.205403643743787 L16.006249108691424,2.117870561983386 L15.934763203093011,2.0307209952724197 L15.860877580768967,1.943968068015062 L15.784603368622234,1.8576248448830421 L15.705952053268621,1.7717043288481937 L15.62493547930691,1.686219459224179 L15.541565847535121,1.6011831097179123 L15.367817983672023,1.4325071262304343 L15.184813120895639,1.2657779824909872 L14.992661494492324,1.1010961099013672 L14.791478849416826,0.9385607066637824 L14.58138637057181,0.7782696780275304 L14.36251060981068,0.6203195773146044 L14.134983409707443,0.46480554775955163 L13.898941824139635,0.31182126519872 L13.654528035732222,0.161458881643461 L13.401889270212138,0.01380896977123136 L13.141177707724976,-0.13103953163203652 L12.872550391167332,-0.2729993712453398 L12.596169131590054,-0.41198503776952666 L12.312200410729371,-0.5479128114360803 L12.020815280724477,-0.6807008144368032 L11.722189261082075,-0.81026906024396 L11.416502232950025,-0.9365395017911533 L11.103938330763725,-1.059436078485943 L10.784685831330357,-1.178884762025917 L10.45893704041794,-1.2948136009905946 L10.12688817691756,-1.4071527641822517 L9.788739254648506,-1.5158345826896031 L9.44469396187738,-1.6207935906490478 L9.094959538623836,-1.7219665646788682 L8.739746651827005,-1.8192925619626186 L8.379269268447656,-1.9127129569587797 L8.013744526582443,-2.002171476714615 L7.6433926046679606,-2.0876142347629028 L7.26843658885365,-2.168989763581102 L6.889102338622953,-2.2462490455934727 L6.505618350743937,-2.3193455426974525 L6.118215621631535,-2.3882352242964338 L5.7271275082038695,-2.452876593822169 L5.332589587316692,-2.513230713730761 L4.934839513860844,-2.5692612289571573 L4.534116877607776,-2.6209343888140992 L4.130663058889521,-2.66821906732228 L3.724721083200396,-2.711086781959449 L3.316535474807437,-2.749511710817236 L2.906352109458067,-2.7834707081552983 L2.494418066273799,-2.812943318343452 L2.080981478919071,-2.8379117881833666 L1.6662913861347457,-2.858361077602442 L1.250597581726425,-2.8742788687133833 L0.8341504640980623,-2.88565557323403 L0.4172008854213855,-2.892484338262979 L5.318712361576812e-10,-2.8947610504075207 L-0.4172008843575992,-2.8924843382613927 L-0.8341504630341446,-2.885655573230858 L-1.2505975806622889,-2.874278868708629 L-1.6662913850703034,-2.858361077596107 L-2.0809814778542357,-2.8379117881754548 L-2.4944180652084835,-2.812943318333967 L-2.9063521083921846,-2.7834707081442476 L-3.3165354737409016,-2.749511710804626 L-3.7247210821331223,-2.711086781945288 L-4.1306630578214225,-2.668219067306574 L-4.534116876538768,-2.6209343887968606 L-4.934839512790843,-2.5692612289383954 L-5.332589586245582,-2.51323071371049 L-5.727127507131602,-2.452876593800398 L-6.1182156205580505,-2.3882352242731724 L-6.505618349669101,-2.319345542672722 L-6.889102337546685,-2.24624904556729 L-7.268436587775923,-2.168989763553472 L-7.643392603588669,-2.0876142347338478 L-8.013744525501481,-2.0021714766841576 L-8.379269267364975,-1.912712956926934 L-8.73974665074253,-1.8192925619294025 L-9.09495953753749,-1.721966564644303 L-9.44469396078909,-1.620793590613152 L-9.788739253558198,-1.515834582652401 L-10.126888175825162,-1.4071527641437642 L-10.458937039323382,-1.2948136009508469 L-10.784685830233574,-1.1788847619849303 L-11.103938329664667,-1.059436078443733 L-11.416502231848604,-0.9365395017477551 L-11.722189259978203,-0.8102690601994089 L-12.020815279617924,-0.6807008143912032 " />
			<path d="M-14.999999999395449,2.873117740155088 L-14.998870526982616,2.9549682633281464 L-14.995482279838512,3.036806460113485 L-14.989835768220692,3.118620005979692 L-14.981931842473035,3.2003965801076943 L-14.971771692897686,3.282123867246226 L-14.959356849575801,3.3637895595664604 L-14.944689182137118,3.445381358515524 L-14.927770899478404,3.526886976668614 L-14.90860454943079,3.6082941395794372 L-14.887193018376099,3.6895905876286985 L-14.86353953081215,3.770764077870353 L-14.837647648867165,3.851802385875351 L-14.809521271763325,3.9326933075725883 L-14.779164635229566,4.013424661086797 L-14.746582310863694,4.093984288573093 L-14.711779205443905,4.174360058047896 L-14.674760560189863,4.254539865215971 L-14.635531949973377,4.334511635293282 L-14.594099282478851,4.414263324825414 L-14.55046879731361,4.493782923501273 L-14.50464706506823,4.573058455961796 L-14.456640986327047,4.652077983603391 L-14.35410503537858,4.809301464574464 L-14.242922708291,4.965358660868519 L-14.123160977140762,5.120155569465863 L-13.994891981916533,5.273598946496987 L-13.85819298706475,5.425596363409184 L-13.713146334948409,5.576056262642057 L-13.5598393962471,5.724888012778363 L-13.39836451732818,5.872001963137001 L-13.228818964620775,6.017309497775219 L-13.05130486602612,6.160723088867548 L-12.86592914939953,6.3021563494292945 L-12.672803478141056,6.441524085352826 L-12.472044183933628,6.57874234672532 L-12.263772196669205,6.713728478397044 L-12.048112971605123,6.846401169769736 L-11.825196413794544,6.976680503775064 L-11.595156799836504,7.104488005013684 L-11.358132696992717,7.2297466870258775 L-11.114266879719837,7.352381098665325 L-10.863706243667455,7.472317369548051 L-10.606601717193662,7.589483254549182 L-10.343108170451453,7.703808177320708 L-10.073384322100726,7.815223272804034 L-9.797592643702101,7.923661428711722 L-9.515899261850134,8.029057325953417 L-9.228473858104852,8.131347477981624 L-8.935489566781952,8.230470269033638 L-8.63712287066313,8.326365991246572 L-8.333553494689482,8.41897688062313 L-8.024964297701906,8.508247151826506 L-7.711541162293775,8.594123031783349 L-7.393472882842211,8.67655279207468 L-7.070951051785416,8.75548678009515 L-6.744169944214551,8.830877448961907 L-6.413326400849682,8.90267938615506 L-6.078619709470296,8.970849340872498 L-5.740251484871797,9.035346250082533 L-5.398425547420274,9.096131263258751 L-5.05334780027875,9.153167765782118 L-4.70522610537882,9.206421400996241 L-4.354270158212383,9.255860090902551 L-4.000691361518925,9.30145405548288 L-3.644702697944409,9.343175830637833 L-3.286518601748499,9.381000284730131 L-2.926354829637374,9.414904633722983 L-2.5644283307999665,9.444868454904316 L-2.2009571162258754,9.47087369918867 L-1.8361601273836936,9.49290470198929 L-1.4702571043388608,9.510948192653876 L-1.1034684533904646,9.524993302458345 L-0.7360151143067215,9.53503157115373 L-0.3681184272391334,9.541056952062327 L6.045496574897313e-10,9.543065815719975 L0.3681184284482327,9.541056952062327 L0.7360151155158207,9.53503157115373 L1.103468454599564,9.524993302458345 L1.4702571055479605,9.510948192653878 L1.836160128592793,9.49290470198929 L2.2009571174349754,9.47087369918867 L2.564428332009066,9.444868454904316 L2.9263548308464737,9.414904633722983 L3.286518602957599,9.381000284730133 L3.6447026991535085,9.343175830637833 L4.000691362728025,9.30145405548288 L4.354270159421484,9.255860090902551 L4.705226106587919,9.206421400996243 L5.053347801487849,9.153167765782118 L5.398425548629373,9.096131263258751 L5.740251486080897,9.035346250082533 L6.0786197106793995,8.970849340872498 L6.413326402058786,8.90267938615506 L6.744169945423652,8.830877448961907 L7.070951052994516,8.75548678009515 L7.3934728840513095,8.67655279207468 L7.711541163502874,8.594123031783349 L8.024964298911005,8.508247151826506 L8.333553495898581,8.418976880623134 L8.637122871872224,8.326365991246574 L8.935489567991045,8.230470269033642 L9.228473859313947,8.131347477981627 L9.51589926305923,8.029057325953417 L9.797592644911203,7.923661428711722 L10.073384323309828,7.815223272804034 L10.343108171660553,7.703808177320709 L10.606601718402763,7.589483254549183 L10.863706244876555,7.472317369548053 L11.114266880928934,7.352381098665327 L11.358132698201816,7.229746687025879 L11.595156801045606,7.104488005013684 L11.82519641500365,6.9766805037750625 L12.048112972814227,6.8464011697697345 L12.263772197878309,6.713728478397043 L12.472044185142732,6.57874234672532 L12.672803479350158,6.441524085352826 L12.865929150608633,6.302156349429295 L13.05130486723522,6.160723088867549 L13.228818965829875,6.017309497775219 L13.39836451853728,5.872001963137004 L13.5598393974562,5.724888012778366 L13.713146336157507,5.57605626264206 L13.858192988273853,5.425596363409184 L13.994891983125635,5.2735989464969855 L14.123160978349864,5.120155569465862 L14.242922709500101,4.965358660868518 L14.354105036587683,4.809301464574464 L14.456640987536149,4.652077983603392 L14.504647066277332,4.573058455961797 L14.550468798522711,4.493782923501274 L14.594099283687951,4.4142633248254155 L14.635531951182479,4.334511635293284 L14.674760561398964,4.254539865215974 L14.711779206653008,4.174360058047899 L14.746582312072796,4.093984288573096 L14.779164636438669,4.0134246610868 L14.809521272972425,3.9326933075725914 L14.837647650076265,3.8518023858753545 L14.86353953202125,3.770764077870357 L14.887193019585201,3.689590587628703 L14.908604550639891,3.608294139579439 L14.927770900687504,3.526886976668616 L14.94468918334622,3.4453813585155264 L14.959356850784904,3.36378955956646 L14.971771694106788,3.2821238672462254 L14.981931843682137,3.2003965801076943 L14.989835769429794,3.1186200059796922 L14.995482281047614,3.0368064601134854 L14.998870528191718,2.9549682633281473 L15.000000000604551,2.8731177401551187 " />
			<path d="M-10.606601717390141,-24.73004893584288 L-10.606601717390141,-19.35586185061009 " />
			<path d="M-3.535533905524665,-24.73004893585632 L-3.535533905524665,-19.35586185062353 " />
			<path d="M-45.96194077656638,-9.008830554462028 L-45.96194077656638,-3.6346434692292364 " />
			<path d="M45.961940777745255,-2.7203432021113017 L45.961940777745255,2.65384388312149 " />
			<path d="M-11.208204524609783,-0.6446218144743389 L-11.41631670854845,-0.5502195888963133 L-11.61926405188809,-0.4544621526328696 L-11.816918887168782,-0.35743302374931607 L-12.009158471644513,-0.2592227543353317 L-12.195864987283173,-0.1599289305049664 L-12.376925540766555,-0.059656172396640644 L-12.552232163490364,0.04148386582685389 L-12.721681811564205,0.14337249597835555 L-12.885176365811592,0.24588399584633086 L-13.042622631769941,0.34888560919487627 L-13.193932339690578,0.45223754576371733 L-13.339022144538731,0.5557929812682086 L-13.477813625993534,0.6593980573993338 L-13.610233288448027,0.7628918818237065 L-13.736212561009156,0.8661065281835691 L-13.855687797497772,0.9688670360967926 L-13.939870174187304,1.0444428713431757 L-14.02048928442543,1.1196149319609352 L-14.097534895973228,1.1942912049786596 L-14.171004691597188,1.2683826668830167 L-14.240904269069237,1.341803283618754 L-14.307247141166716,1.4144700105886971 L-14.370054735672392,1.4863027926537524 L-14.429356395374464,1.5572245641329052 L-14.485189378066543,1.6271612488032194 L-14.537598856547673,1.6960417598998387 L-14.58663791862232,1.7637980001159859 L-14.632367567100369,1.8303648616029637 L-14.714182209533366,1.959684964285016 L-14.783689106434258,2.0835409943179988 L-14.820683370167092,2.156956321774601 L-14.85351965367927,2.228204705296717 L-14.882413782853542,2.2972985826128993 L-14.907590068290888,2.364285581445515 L-14.930661668429712,2.4337511550009348 L-14.94998277401144,2.501030408170347 L-14.96582828996403,2.5663334153241673 L-14.97843678266725,2.6299068276375417 L-14.988010479952688,2.692033873090347 L-14.99471527110375,2.7530343564671917 L-14.998680706855657,2.813264659357415 L-14.999999999395449,2.873117740155085 " />
			<path d="M15.000000000604551,2.87311774015509 L14.998732427109493,2.814443927400745 L14.994922196775406,2.755414432670575 L14.988483552787955,2.6956589365804455 L14.979296629145075,2.634840527870414 L14.967207450656971,2.5726557034047293 L14.952027932946116,2.508834368171831 L14.933535882447249,2.44313983528435 L14.91147499640738,2.3753688259791095 L14.889194795613085,2.3146309128989864 L14.863865519382058,2.2521481150572833 L14.835312720371407,2.1878814154438566 L14.80337077955014,2.121812602343901 L14.767882906199157,2.0539442693379497 L14.728701137911257,1.9842998153018765 L14.685686340591134,1.9129234444068932 L14.63870820845538,1.8398801661195507 L14.56849097934882,1.738324479405416 L14.490541143899227,1.6340439966329303 L14.4046684418799,1.5272980152584446 L14.310722039653047,1.418352304949945 L14.208590530169792,1.3074791075870535 L14.098201932970168,1.194957137261029 L13.979523694183122,1.0810715802747655 L13.852562686526515,0.9661140951427926 L13.722774703564866,0.8548495675380409 L13.585368492784783,0.7430786248996126 L13.440428792186463,0.631020447975118 L13.288046480538023,0.518884824583164 L13.128318577375502,0.406872149613354 L12.961348243002858,0.29517342502628774 L12.787244778491967,0.18397025985356172 L12.606123625682633,0.07343487019776858 L12.41810636718257,-0.03626992076750202 L12.223320726367424,-0.1449906827976647 L12.02190056738075,-0.25258337857713675 L11.813985895134033,-0.35891336371933946 L11.599722855306673,-0.46385538676669735 L11.379263734345994,-0.5672935891906388 L11.152766959467234,-0.6691215053915955 L10.920397098653563,-0.7692420626990013 L10.64246683739607,-0.8836468584561676 L10.356962127481523,-0.9953742650412212 L10.064128679874523,-1.1043087339404927 L9.764212841505625,-1.2103389927851873 L9.457461595271344,-1.3133580453513818 L9.144122560034155,-1.4132631715600243 L8.8244439906225,-1.5099559274769352 L8.498674777830775,-1.603342145312806 L8.167064448419344,-1.6933319334232004 L7.829863165114528,-1.7798396763085536 L7.487321726608609,-1.862784034614172 L7.139691567559836,-1.9420879451302342 L6.7872247585924095,-2.0176786207917905 L6.4301740062965,-2.0894875506787627 L6.068792653228237,-2.157450500015944 L5.703334677909709,-2.2215075101729997 L5.334054694828969,-2.281602898664467 L4.961207954440027,-2.3376852591497546 L4.585050343162858,-2.389707461433142 L4.205838383383399,-2.4376266514637814 L3.8238292334535444,-2.4814042513356958 L3.4392806876911535,-2.5210059592877814 L3.0524511763800435,-2.5564017497038045 L2.663599765769998,-2.5875658731124043 L2.2729861580767547,-2.614476856187091 L1.8808706914820197,-2.637117501746245 L1.4875143401334578,-2.6554748887531217 L1.0931787141446914,-2.6695403723158457 L0.6981260595953113,-2.6793095836874143 L0.30261925853086113,-2.684782430265696 L-0.09307817103714444,-2.685963095593431 L-0.4887020751312379,-2.682860039358231 L-0.866671878559678,-2.675709642059069 L-1.2441298453327574,-2.66465332324767 L-1.6208455760831537,-2.649689174965762 L-1.9965892587789924,-2.630819109472865 L-2.3711316687238493,-2.60804885924629 L-2.7442441685567482,-2.5813879769811394 L-3.1156987082521628,-2.550849835590309 L-3.4852678251200153,-2.5164516282044835 L-3.852724643805678,-2.478214368172142 L-4.2178428762899705,-2.436162889059554 L-4.5803968218891615,-2.39032584465078 L-4.940161367254973,-2.3407357089476735 L-5.296911986374571,-2.2874287761698784 L-5.650424740570573,-2.230445160754832 L-6.0004762785010435,-2.1698287973577615 L-6.3468438361594925,-2.1056274408516877 L-6.68930523687489,-2.037892666327421 L-7.027638891311659,-1.9666798690935623 L-7.361623797469652,-1.892048264676508 L-7.691039540684181,-1.8140608888204444 L-8.015666293626008,-1.7327845974873484 L-8.33528481630134,-1.648290066856991 L-8.649676456051841,-1.5606517933269324 L-8.958623147554613,-1.4699480935125258 L-9.261907412822216,-1.3762611042469157 L-9.559312361202656,-1.2796767825810382 L-9.850621689379386,-1.1802849057836216 L-10.135619681371312,-1.0781790713411852 L-10.41409120853279,-0.9734566969580395 L-10.685821729553616,-0.8662190205562885 L-10.950597290459049,-0.7565711002758261 L-11.208204524609673,-0.6446218144743877 " />
			<path d="M-47.42640687061853,-7.436708716337385 L-47.42640687061853,-0.7508025028549996 " />
			<path d="M47.42640687182763,-1.1482213639732162 L47.42640687182763,5.537684849509166 " />

        </g>
        </g>
    </svg>
    