<?xml version="1.0" encoding="UTF-8" standalone="no"?>
    <svg
    xmlns:svg="http://www.w3.org/2000/svg"
    xmlns="http://www.w3.org/2000/svg"
    width="340"
    height="340"
    >
        <g transform="scale(4, -4)   translate(42.499999282739616,-42.799776501582905)" stroke-width="0.25"  fill="none">
        <!-- hidden lines -->
        <g  stroke="rgb(160,160,160)" fill="none" stroke-dasharray="0.25,0.25" >
    			<path d="M28.28427210817436,12.89501068224803 L28.19671105906588,12.935250976693274 L28.108934661111764,12.978083478415819 L28.02099843636705,13.023480876597716 L27.932957848468973,13.071414182202565 L27.844868299419165,13.121852734396077 L27.756785126365827,13.174764206966657 L27.66876359838593,13.230114614745968 L27.580858913267395,13.287868320029505 L27.493126194291293,13.34798803899716 L27.40562048701403,13.410434848133802 L27.23150867307706,13.542146765206484 L27.0589562902964,13.682664340397514 L26.88839171866249,13.831624394377902 L26.72023527983533,13.988643514941078 L26.554899001509636,14.153318634151596 L26.392786309632914,14.325227754279142 L26.23428860694583,14.503933874304124 L26.079786739036688,14.688983926910753 L25.929648653892436,14.87991205162493 L25.784228818770313,15.076240791220417 L25.64386837813976,15.277481482257075 L25.508893535916588,15.483137186737755 L25.37961509672822,15.692703846946044 L25.25632869625483,15.905670890297285 L25.139313638286083,16.121523646987672 L25.02883315030846,16.339743597488447 L24.925134291947337,16.559809324314788 L24.82844665474048,16.781199745680116 L24.73898347013027,17.003392665785487 L24.65694077368328,17.225867379480658 L24.582497506454956,17.448105053830126 L24.515815715195327,17.669588954204873 L24.457039996172483,17.889806937194958 L24.40629779299577,18.10825067245865 L24.363699401728937,18.324417232777915 L24.329337827520174,18.537809820304176 L24.30328878460212,18.747937766558284 " />
			<path d="M24.303288784602117,18.747937766558298 L24.291469303687904,18.874761957906586 L24.282797665073055,19.000074275038944 L24.277281825059493,19.12376510851926 L24.274927152554707,19.24572656555968 L24.27573647223522,19.36585244317823 L24.279710098837477,19.48403820828093 L24.286845862576122,19.60018098466828 L24.29713912568967,19.71417954696627 L24.31058279011359,19.82593432148175 L24.327167296280745,19.93534739398229 L24.346880613049283,20.042322524400483 L24.369708218757886,20.146765168462654 L24.395633073408415,20.24858250624204 L24.42463558197598,20.347683477636412 L24.456693548846374,20.44397882477011 L24.49178212338093,20.53738114132056 L24.52987373660874,20.627804928769176 L24.570938029046314,20.715166659576784 L24.61494225387992,20.79938573463256 L24.66185212313418,20.880385811132953 L24.711629925272344,20.95809117814158 L24.764235370427528,21.03242865596716 L24.819625631808755,21.103327779253345 L24.87775531604471,21.17072084041832 L24.938576433527523,21.234542933094428 L25.002038368756534,21.29473199556778 L25.068087850682062,21.351228854217872 L25.136669288076362,21.403977583173987 L25.20772451899484,21.45292545015108 L25.28119259010043,21.498022758698554 L25.357010198700596,21.539223252920582 L25.435111669282687,21.57648416791607 " />
			<path d="M25.435111669282698,21.576484167916078 L25.537281554374545,21.617990478287858 L25.642866892895867,21.653033207557844 L25.751717386102293,21.681550280403503 L25.863681960175104,21.703490264281893 L25.978598139727644,21.718809995791055 L26.0962959004515,21.727476720393224 L26.216601290988034,21.7294688298155 L26.339336526024564,21.72477563091985 L26.464320057032317,21.713397193552435 L26.591366620646177,21.695344277372318 L26.720287264686142,21.670638337659536 L26.850889351820598,21.639311610102517 L26.982976540871352,21.601407274564874 L27.1163487457604,21.556979697831558 L27.250802072098516,21.506094755334363 L27.386128731415543,21.448830231856824 " />
			<path d="M27.386128731415557,21.44883023185682 L27.52742198019723,21.3826760759405 L27.669213734912233,21.309835228120345 L27.811267245540943,21.230430319267604 L27.953347514522523,21.144595016258695 L28.095221295267713,21.052473592140426 L28.236657100299226,20.954220578765753 L28.377425219019774,20.850000501900002 L28.51729774510767,20.739987698797695 L28.65604861354006,20.624366218249822 L28.793453647243805,20.503329803101693 L28.929290613373897,20.377081955241266 L29.06333928921955,20.245836083058027 L29.19538204257395,20.10981519581424 L29.32521426686137,19.96924061463042 L29.452633884290595,19.82434181330152 L29.577441402233365,19.675356641017487 L29.699442915407797,19.522528077730563 L29.81845005856311,19.36610409867996 L29.934279959164332,19.206337538916454 L30.046755850739462,19.043485037132626 L30.155707762672826,18.877805949161612 L30.260971533245385,18.709563429933294 L30.362389828266373,18.539022718543766 L30.45981208779001,18.366451015746684 L30.553094445977315,18.192117399886694 L30.64209967294065,18.01629269940842 L30.72669788199801,17.839247942756067 L30.806766297309863,17.6612546252443 L30.88218910312377,17.482584577122104 L30.952857625677666,17.303509550125714 L31.018670404659627,17.124300852085693 L31.079533221023052,16.945228922779663 L31.13535908782293,16.766563191861398 L31.186068347051634,16.588571531800955 L31.23158854541945,16.411520779744205 L31.27185454877915,16.23567578174481 L31.306808591990468,16.061299068932083 L31.336400278920063,15.888650857511 L31.36058658244154,15.717989048762195 L31.37933191739375,15.549568480624044 L31.392608146115478,15.383640113330827 L31.400394414911048,15.220453616078302 L31.402677498032613,15.060254585104381 L31.399451749250463,14.903284381029538 L31.39071907740962,14.749780123544241 L31.376488969079077,14.59997465554558 L31.35677855829363,14.454096476723088 L31.3316127433884,14.312369646593748 L31.3010243226947,14.175013529685781 L31.26505364238263,14.042240797721075 L31.22374885621749,13.914258768164741 L31.177166064297413,13.791268897115593 L31.12536924587511,13.673466338751423 L31.06843008478073,13.561039308209697 L31.006428509998578,13.454169462538873 L30.93945238883388,13.35303112722833 L30.867597359010457,13.25779061608805 L30.790966932452733,13.168606061890054 L30.70967259906779,13.085627247009848 L30.623833812113364,13.008995326560415 L30.533577224044798,12.93884175461594 L30.439037837103292,12.87528894048077 L30.34035803482405,12.818449273401193 L30.237687392936206,12.7684247079874 " />
			<path d="M30.237687392936195,12.768424707987396 L30.135246239608442,12.726798721307318 L30.029399634847277,12.691642644907795 L29.920297776445032,12.663018401480908 L29.808093979405744,12.640978027499338 L29.692954798695197,12.62556533108809 L29.575051287665943,12.616812929226015 L29.45455834433479,12.614742376151591 L29.331654613474786,12.619364375422307 L29.20652241168703,12.6306789143371 L29.07934767545239,12.648675320721892 L28.95031993216309,12.673332242078194 L28.819632294134188,12.704617547094802 L28.687481475594893,12.742488149522552 L28.554067832659833,12.786889754412174 L28.41959542628012,12.837756526715213 L28.284272108174385,12.895010682248017 " />
			<path d="M-39.32263229062437,7.163555654949961 L-39.28118059109796,7.446690278366688 L-39.234651235320456,7.737382954456802 L-39.183227305190854,8.034476194455536 L-39.12710938801155,8.33679915759596 L-39.06651474339678,8.643168576382333 L-39.00167673977539,8.952389534715893 L-38.93284451806191,9.263256131894815 L-38.86028285569382,9.57455206479813 L-38.7842722198559,9.88505115985134 L-38.705109014336486,10.19351788565951 L-38.62310604008336,10.498707876481609 L-38.538593205151045,10.799368496007846 L-38.45191529325205,11.094250258638825 L-38.36339688694371,11.382221260931288 L-38.27340541724596,11.66205439490075 L-38.182324442426136,11.932529872517263 L-38.09053889689691,12.192482173534387 L-37.99843476235683,12.440798200182266 L-37.9063987433986,12.676416575712192 L-37.814817939136915,12.89832797623343 L-37.724079499306924,13.10557647515814 L-37.634570250183295,13.297261969445358 L-37.546676272569535,13.472543846710149 L-37.46078241100598,13.630646142139096 L-37.37726715526606,13.770871757749097 L-37.29646165614816,13.892664899346311 L-37.25718435325517,13.946481681342739 L-37.21871502257967,13.995499042244422 L-37.18109498651768,14.039665784846637 L-37.14436408712683,14.078937150117229 L-37.1085607318042,14.11327458133895 L-37.07372193157545,14.14264552520767 L-37.039883332656125,14.167023266438799 L-37.00707924183776,14.186386792943212 L-36.975342646143595,14.200720689142827 L-36.94470522709074,14.210015055504902 L-36.91519736978773,14.21426545288305 L-36.88684816698813,14.213472870761805 " />
			<path d="M-36.88684816698812,14.213472870761805 L-36.86586069619576,14.20943906561134 L-36.845586472916935,14.202433970239415 L-36.82603714730937,14.192464586023574 L-36.80722390896205,14.17953983680006 L-36.78915748165251,14.163670589269381 L-36.7718481168252,14.144869679091816 L-36.75530558570412,14.123151943029358 L-36.73953916993977,14.098534257552666 L-36.724557650677035,14.071035584393547 L-36.71036929591801,14.040677023585676 L-36.68440249731563,13.971475706229196 L-36.661688407472404,13.891121423980863 L-36.642268204864,13.799818587154746 L-36.6261805859704,13.69781298911618 L-36.61345527014794,13.585373282272698 L-36.604113555420064,13.462789407739807 L-36.598168764762235,13.330371349997103 L-36.59562659482324,13.18844815711773 L-36.596485380200754,13.037367188650547 L-36.600736283275,12.87749356154309 L-36.608363416491116,12.709209772801959 L-36.61934390086717,12.532915485895826 L-36.63364786139124,12.34902747621495 L-36.651238356857505,12.157979739209598 L-36.67207123857771,11.960223773138413 L-36.69609492929079,11.7562290566664 L-36.72325057671253,11.5464802984512 L-36.75348106820242,11.331415013204122 L-36.78671899061969,11.111520349244689 L-36.82288742215239,10.887315413867181 L-36.861903482182846,10.659324904166844 L-36.90367858672987,10.428078794574526 L-36.94811863773561,10.19411206916132 L-36.995124155022786,9.957964491634947 L-37.04459035771471,9.720180406496075 L-37.096407199877206,9.48130856536929 L-37.1504593631079,9.241901973069767 L-37.20662620676519,9.002517748513291 L-37.26478167449575,8.763716996123533 L-37.32479415368595,8.526064683937113 L-37.38652628242927,8.290129525153368 L-37.44983469656842,8.056483860422166 L-37.514569707337316,7.825703538709541 L-37.58058131466134,7.598346066512426 L-37.64773320979397,7.374906675653902 L-37.71586078478371,7.155960297614016 L-37.78479539140337,6.9420731400061655 L-37.8543676307305,6.733792328634454 L-37.924407408498354,6.531646579790129 L-37.9947439883427,6.336146619125787 L-38.065206044173216,6.147785375767381 L-38.135621713210696,5.967037969696293 L-38.20581865154375,5.794361499806112 L-38.275624094371,5.630194629410855 L-38.34486492340731,5.474956955353743 L-38.41336774424484,5.329048136237841 L-38.48095897677226,5.192846744672156 L-38.54746496206776,5.066708797799041 L-38.612712089494025,4.950965909740954 L-38.676535692832864,4.845909176251481 L-38.738793508930165,4.751773108281452 L-38.79932260354079,4.668804848216461 L-38.857966048841824,4.59721594089371 L-38.91457490329358,4.537180833111486 L-38.9690078110658,4.4888390644144085 L-38.99536611014671,4.469087668974025 L-39.021130703560424,4.452296959721829 L-39.04628593696806,4.438475244701168 L-39.07081658961375,4.427628893198018 L-39.09470787194471,4.419762355403962 L-39.11794542431207,4.414878177063515 L-39.14051531673269,4.412977009249345 L-39.16240404970544,4.414057613347625 " />
			<path d="M-39.16240404970545,4.414057613347627 L-39.1918468567793,4.4205629492420915 L-39.219897791690165,4.432878274889755 L-39.24652423750395,4.450981514836214 L-39.271695297706195,4.474843195626037 L-39.295381837636675,4.504426309384219 L-39.31755653636144,4.539686132367136 L-39.33819395006185,4.580569993958916 L-39.357270588211826,4.627016990692167 L-39.37476500491836,4.678957641965811 L-39.390661080411576,4.736326110785238 L-39.40494414331255,4.799054104287076 L-39.417598624465846,4.867058352780659 L-39.42861124288697,4.940249890815058 L-39.43797089957192,5.0185343681242784 L-39.445668586624464,5.101812318245368 L-39.45169731007327,5.189979389330648 L-39.45872958120191,5.380540212286366 L-39.4590498373802,5.589291073322381 L-39.45266932073275,5.815237773419941 L-39.43962764362572,6.057320359780874 L-39.419992514479205,6.314414555666315 L-39.393859921526314,6.585332010081338 L-39.36135480462098,6.868819319556407 L-39.32263229062438,7.163555654949899 " />
			<path d="M-5.360085947265212,22.28737548591498 L-5.357329039217563,22.41301928304595 L-5.35890595773347,22.538043726739968 L-5.364816740044135,22.662335569330253 L-5.375057506191384,22.785782998928514 L-5.3896205848606105,22.908275597594837 L-5.408494620331677,23.029704307492352 L-5.43166466227299,23.149961404272283 L-5.459112239912589,23.26894047703563 L-5.490815421928737,23.38653641431871 L-5.526748863211122,23.502645395650454 L-5.566883839452413,23.61716488833028 L-5.611188270338582,23.729993649176144 L-5.659626731914978,23.841031731093164 L-5.712160458513842,23.950180494414035 L-5.768747334437527,24.057342623063345 L-5.829341875400365,24.16242214569858 " />
			<path d="M-5.829341875400367,24.16242214569858 L-5.881525259251672,24.24625169259844 L-5.936297410475882,24.328591988264105 L-5.9936288699285045,24.409393505181843 L-6.053488638015805,24.488607357080635 L-6.1158441497996,24.56618531609373 L-6.180661246186315,24.642079832104695 L-6.247904140915891,24.716244054464077 L-6.3175353830296475,24.788631856281988 L-6.3895158144596405,24.859197861521164 L-6.463804522345546,24.927897475134316 L-6.540358785648582,24.994686916508808 L-6.619134015595438,25.059523256500963 L-6.700083689448681,25.122364458361513 L-6.783164976936368,25.183173475652946 L-6.868343122012325,25.241920126204736 L-6.955567220444717,25.29856404704885 L-7.044784293286088,25.353066048220366 L-7.135940230478349,25.405388736312013 L-7.228979825969985,25.45549646350217 L-7.323846808990183,25.50335528341781 L-7.420483871769743,25.548932913319312 L-7.518832693974822,25.59219870214663 L-7.61883396409588,25.633123604019232 L-7.720427398010349,25.671680156834967 L-7.823551754913895,25.707842465665696 L-7.928144850791287,25.74158619070042 L-8.034143569574203,25.77288853953931 L-8.141483872109522,25.801728263694837 L-8.250100803037883,25.82808565920906 L-8.359928495658558,25.8519425713487 L-8.470900174832924,25.873282403392654 L-8.582948157955055,25.892090129579085 L-8.696003853994211,25.908352312332312 L-8.809997760590235,25.922057123942203 L-8.924859459159125,25.933194372921708 L-9.040517607942277,25.941755535320915 L-9.15689993290916,25.94773379132876 L-9.273933216399419,25.95112406754625 L-9.391543283366614,25.95192308536798 L-9.50965498506213,25.950129415961236 L-9.628192179973942,25.94574354238507 L-9.74707771181122,25.938767929444182 L-9.866233384302005,25.92920710192546 L-9.985579932547395,25.917067731917655 L-10.105043851139648,25.90235781856902 L-10.224570968771259,25.885083960745213 L-10.344083740708374,25.86525682528178 L-10.463502855286603,25.842889361546312 L-10.582749908645656,25.817996409242937 L-10.701747382959132,25.790594618801794 L-10.820418627440766,25.76070237996611 L-10.938687841923384,25.728339757941505 L-11.056480062826788,25.69352843651944 L-11.17372115135089,25.65629166763408 L-11.290337783750374,25.61665422685913 L-11.406257443567307,25.574642374398596 L-11.52140841571802,25.530283821172663 L-11.635719782350728,25.483607699647244 L-11.74912142041038,25.434644539103083 L-11.861544000867147,25.38342624508762 L-11.972918989585182,25.329986082840108 L-12.083178649828152,25.274358664527863 L-12.192256046418184,25.216579940178775 L-12.300085051584833,25.156687192242607 L-12.406600352560785,25.094719033760853 L-12.511737461000948,25.030715410172334 L-12.615432724321742,24.964717604828962 L-12.717623339077317,24.896768248343452 L-12.81824736650953,24.826911331938106 L-12.917243750428531,24.755192225011076 L-13.01455233760085,24.68165769718387 L-13.110113900841899,24.60635594514116 L-13.203870165029823,24.52933662462132 L-13.295763836277736,24.450650887963352 L-13.385738634521328,24.37035142766332 L-13.473741027970114,24.2884909134231 L-13.55973419436448,24.205107925918615 L-13.643670883509705,24.120251755466423 L-13.725501423400011,24.033976100409525 L-13.805177988153371,23.946335089872452 L-13.882654537985184,23.85738325992742 L-13.957886765445604,23.767175531973916 L-14.030832047444333,23.675767193155785 L-14.101449402623329,23.583213878650927 L-14.16969945367439,23.489571555679184 L-14.235544394235143,23.394896509085132 L-14.298947960033498,23.299245328362954 L-14.35987540398717,23.20267489600164 L-14.418293475001471,23.10524237703932 L-14.474170400245045,23.007005209726525 L-14.527475870719833,22.90802109720874 L-14.578181029978065,22.808348000149657 L-14.626258465875653,22.708044130227087 L-14.671682205287873,22.60716794444443 L-14.714427711749803,22.505778140211344 L-14.754471886020534,22.403933651158006 L-14.791793069606676,22.30169364365824 L-14.82637105131729,22.19911751404748 L-14.858187076958881,22.09626488653233 L-14.887223862315654,21.99319561179943 L-14.913465609596784,21.889969766341814 L-14.93689802756899,21.786647652532107 L-14.957508355629269,21.683289799482374 L-14.975285392109152,21.57995696474146 L-14.990219527138478,21.47671013689124 L-15.00230278043312,21.373610539114228 L-15.01152884440773,21.27071963381553 L-15.01789366708831,21.168088039258627 L-15.021393765339099,21.065765301598102 L-15.022026181433917,20.96381295225859 L-15.019789728267884,20.86229194427228 L-15.01468494005497,20.761262658068585 L-15.006714028232745,20.660784914324406 L-14.99588084283366,20.56091798467537 L-14.982190838908332,20.46172060045231 L-14.96565104762392,20.363250959589067 L-14.946270051698368,20.26556673182961 L-14.924057964868851,20.16872506234426 L-14.8990264151304,20.072782573846595 L-14.871188531518358,19.977795367284596 L-14.840558934245855,19.88381902116129 L-14.807153728045224,19.790908589522093 L-14.77099049859977,19.699118598627784 L-14.732088311990099,19.608503042314013 L-14.690467717116668,19.51911537602004 L-14.646150751097972,19.431008509451125 L-14.599160947681332,19.344234797821052 L-14.549523348740944,19.258846031602932 " />
			<path d="M-14.549523348740928,19.258846031602907 L-14.505478800304063,19.187721478120213 L-14.459574848830222,19.11765565136011 L-14.411829241739188,19.048678929661403 L-14.362260535726682,18.98082137517117 L-14.310888108803612,18.914112725793267 L-14.257732173868101,18.848582386323688 L-14.202813793908916,18.784259418714207 L-14.14615489894874,18.72117253140075 L-14.087778304845665,18.659350067628335 L-14.027707734081135,18.59881999269955 L-13.965967838672459,18.539609880068852 L-13.902584225357849,18.481746896200118 L-13.83758348321189,18.425257784100154 L-13.770993213859173,18.37016884543614 L-13.702840943664254,18.3165050597266 L-13.633144252156754,18.264283023440125 L-13.561930289572,18.213526422890876 L-13.489230127833242,18.16426062604302 L-13.415075449159895,18.116510053265483 L-13.339498528098922,18.070298202671154 L-13.262532215143041,18.02564767273477 L-13.18420992183394,17.982580182368125 L-13.104565607254973,17.941116588617607 L-13.023633765824144,17.901276902135578 L-12.94144941630455,17.863080300563382 L-12.858048091955764,17.826545139950305 L-12.687739172631186,17.758528513475635 L-12.513001255018196,17.697357759504428 L-12.334136356367242,17.643150905692362 L-12.151454114253433,17.596013342661475 L-11.965271687222039,17.556037801075433 L-11.775913702938498,17.523304234809206 L-11.583712252565979,17.497879607857357 L-11.389006931715778,17.479817579146317 L-11.192144929937863,17.469158075937614 L-10.993481172341108,17.46592674303016 L-10.793378518554844,17.470134251491228 L-10.592208025865487,17.481775447167067 L-10.390349284984193,17.50082831574538 L-10.188150471630927,17.527258734697106 L-9.985932820209136,17.56102549250247 L-9.78407874682873,17.602065734137117 L-9.582964495674778,17.650301145662016 L-9.382959203696238,17.70563910987042 L-9.184425115297238,17.76797355058066 L-8.987717743759152,17.83718562425216 L-8.793185985067906,17.91314427817484 L-8.601172188467542,17.995706691351327 L-8.412012186707585,18.084718611060715 L-8.226035287598224,18.180014594961733 L-8.0435642271339,18.28141816546258 L-7.86491508309239,18.388741879953802 L-7.690397146662991,18.501787317369956 L-7.520312748303933,18.620344978414952 L-7.3549570326756895,18.744194093655285 L-7.194617676143335,18.873102330554588 L-7.039574538987673,19.006825387392215 L-6.890099229674573,19.145106471755565 L-6.74641812752944,19.287713121254605 L-6.608745870106589,19.43441254100315 L-6.477314222533591,19.584938967065543 L-6.352339988611065,19.739023512998486 L-6.234025767429668,19.896394467852705 L-6.122560576518532,20.056777549693795 L-6.018120358110379,20.21989612059286 L-5.920868382628274,20.38547136836151 L-5.8309555610186745,20.553222459629765 L-5.748520675075153,20.722866668189425 L-5.673690532416899,20.89411948184954 L-5.606580050305793,21.06669469037444 L-5.547292270005588,21.240304456399056 L-5.495918300906419,21.414659370539983 L-5.452537191157619,21.589468491244954 L-5.417215719071477,21.76443936924727 L-5.390008097080341,21.93927805581582 L-5.379460390483222,22.026555556396644 L-5.370955577549151,22.113689093315266 L-5.364496706926542,22.20064149380447 L-5.3600859472652145,22.28737548591492 " />
			<path d="M7.172603721314562e-07,0.29977650158291996 L0.28978611065011056,0.8095248939101884 L0.5759272845805714,1.3691623351060112 L0.8548258477666026,1.9716510596381456 L1.122974488955425,2.609414422223499 L1.377001083400622,3.274432178538637 L1.6137110992873835,3.9583413444456097 L1.8301277708235832,4.652541365369794 L2.0235295327967746,5.348302273263835 L2.19148424583583,6.03687447102108 L2.331879781974687,6.709598763735841 L2.4429505858870146,7.358015253103504 L2.5232998777688316,7.973969725550256 L2.5719172186549786,8.54971619619997 L2.5881912172753774,9.078014319128325 " />
			<path d="M9.65925899327781,5.92920574202182 L9.636661391632426,5.620456774543179 L9.568974319783752,5.3077597312841265 L9.4565144822742,4.99257770661844 L9.299808073255857,4.676385422027968 L9.09958831445342,4.360662325951988 L8.856792024455174,4.046885671519364 L8.572555235383993,3.736523604552451 L8.248207877457876,3.431028294183646 L7.885267556310657,3.131829138226113 L7.48543245218847,2.840326075090391 L7.050573374246349,2.557883033540142 L6.582725007122473,2.2858215509352915 L6.084076390746947,2.025414589822502 L5.556960677929634,1.7778805818048613 " />
			<path d="M5.5569606779296254,1.7778805818048573 L5.205824028178063,1.6267617072285616 L4.844709421595862,1.4816802191820377 L4.474309003448083,1.3429141941074185 L4.095332717035063,1.210729603653192 L3.7085069429501925,1.0853798048886354 L3.3145731068324658,0.9671050546964943 L2.914286258282333,0.8561320492746761 L2.5084136236646075,0.7526734896296008 L2.0977331355722875,0.6569276738940012 L1.6830319417698363,0.5690781172506005 L1.2651048964738176,0.4892932001901338 L0.8447530368626492,0.41772584577791244 L0.422782047735522,0.3545132265474909 L7.172632964236314e-07,0.29977650158326263 " />
			<path d="M7.172603428797408e-07,9.253547176032207 L0.32799763880878025,9.290102006068402 L0.6556162510800183,9.321451066857442 L0.9824786811360426,9.347558200619334 L1.308207928213936,9.36839329557481 L1.6324282985558338,9.38393232067602 L1.9547658387313858,9.394157353323804 L2.2748487669529394,9.399056600039449 L2.5923079018859627,9.398624410067226 L2.9067770884601285,9.392861281891925 L3.2178936201899235,9.3817738626639 L3.5252986575176832,9.365374940532307 L3.828637641696546,9.343683429895332 L4.127560703735944,9.316724349584465 L4.421723067937895,9.284528794007981 " />
			<path d="M4.421723067937973,9.284528794007972 L5.079388306664217,9.190653041955732 L5.705978748687827,9.069773270841985 L6.297661024284803,8.922629001769762 L6.850815325731653,8.750120437404615 L7.3620575526501115,8.55330295469362 L7.828260015335928,8.333380648255494 L8.246570569412393,8.09169896394225 L8.614430064746214,7.8297364676389645 L8.929588001876294,7.54909579965868 L9.190116300172214,7.251493870071849 L9.394421093491186,6.938751354953579 L9.541252481169796,6.612781557808774 L9.629712174695621,6.2755787043190105 L9.659258993277806,5.9292057420218605 " />
			<path d="M2.588191217275378,9.078014319128346 L2.5866711734817263,9.228899356220412 L2.58211282754364,9.374554796800037 L2.5745215336925424,9.51480955404153 L2.563906208659335,9.649498884759822 L2.5502793212008066,9.778464582917735 L2.5336568774538373,9.901555165454745 L2.514058402134597,10.01862605021893 L2.4915069156048193,10.129539725793101 L2.4660289068320975,10.234165913015673 L2.4376543022759463,10.332381718006506 L2.406416430736197,10.424071776518016 L2.3723519842050087,10.509128389441985 L2.335500974768455,10.587451649312882 L2.295906687608357,10.65894955765913 " />
			<path d="M2.2959066876083516,10.658949557659138 L2.2537836341370663,10.723302711309103 L2.2090336400438786,10.780724641745483 L2.161708864556917,10.831148419717673 L2.1118644679909653,10.874515272808118 L2.059558547454281,10.910774653935658 L2.004852069132384,10.939884300271647 L1.9478087972277187,10.961810282500238 L1.8884952196380556,10.976527044365337 L1.8269804704602217,10.984017432458215 L1.763336249409503,10.984272716210988 L1.6976367382486508,10.977292598072697 L1.6299585143238744,10.963085213856136 L1.5603804613086258,10.941667123254984 L1.4889836772592133,10.913063290542352 " />
			<path d="M1.4889836772591947,10.913063290542345 L1.3948968938719906,10.865920264517278 L1.2981365249628973,10.80710600916419 L1.1988880302999958,10.736733253261203 L1.0973416386206258,10.654936879665172 L0.9936919830216064,10.561873666782871 L0.8881377279076479,10.457721988075178 L0.7808811882129916,10.34268147017018 L0.6721279416261169,10.216972610240543 L0.5620864345607481,10.080836353378464 L0.4509675826284052,9.934533630778288 L0.3389843663782622,9.778344859611927 L0.22635142307915684,9.612569405555677 L0.11328463532618238,9.437525008998591 L7.17260395743935e-07,9.253547176032255 " />
			<path d="M7.172574883903747e-07,0.29977650158256935 L-0.32799620429023574,0.2632216715464933 L-0.6556148165607597,0.23187261075754867 L-0.9824772466160714,0.20576547699573083 L-1.3082064936932563,0.1849303820403096 L-1.6324268640344526,0.16939135693912397 L-1.9547644042093115,0.15916632429134644 L-2.2748473324301832,0.1542670775756834 L-2.5923064673625387,0.154699267547865 L-2.9067756539360534,0.16046239572310236 L-3.2178921856652147,0.17154981495103888 L-3.525297222992362,0.1879487370825217 L-3.8286362071706357,0.20964024771936435 L-4.1275592692094705,0.2365993280300735 L-4.4217216334109315,0.26879488360638804 " />
			<path d="M-4.42172163341097,0.26879488360639225 L-5.079386872137917,0.3626706356584475 L-5.705977314162224,0.48355040677205074 L-6.2976595897598795,0.6306946758441736 L-6.850813891207384,0.8032032402092599 L-7.362056118126464,1.0000207229202345 L-7.828258580812857,1.2199430293583804 L-8.246569134889851,1.4616247136716816 L-8.614428630224143,1.7235872099750567 L-8.929586567354633,2.0042278779554623 L-9.190114865650894,2.3018298075424433 L-9.394419658970142,2.6145723226608886 L-9.541251046648947,2.9405421198058908 L-9.629710740174891,3.277744973295871 L-9.659257558757117,3.6241179355932767 " />
			<path d="M7.172582521560511e-07,9.253547176033152 L-0.24010969249669686,9.357888646504813 L-0.47994316064154197,9.456946163108507 L-0.7192230649886319,9.550605473620978 L-0.9576734218267962,9.638758552070843 L-1.1950192042389618,9.72130372333495 L-1.4309866593162106,9.798145780409737 L-1.6653036239024042,9.869196094222312 L-1.8976998385051989,9.934372715854563 L-2.1279072590113923,9.993600471062468 L-2.355660365847063,10.046811046981514 L-2.580696470225926,10.093943070918257 L-2.802756017132682,10.13494218113716 L-3.021582884691892,10.169761089561002 L-3.2369246795770663,10.19835963631262 " />
			<path d="M-3.2369246795770943,10.198359636312624 L-3.9222851449509477,10.24829948173107 L-4.558047197502757,10.229048923349282 L-5.136171446467347,10.140851389916518 L-5.649347347389289,9.984822164159933 L-6.091085646022872,9.76293427971941 L-6.4558004367853306,9.477993571579777 L-6.738879798111023,9.133603195494747 L-6.936744111502556,8.734118065064456 L-7.046891326817974,8.284589782622703 L-7.067928601401657,7.790702760298277 L-6.999589912973205,7.258702339017675 L-6.842739423554323,6.6953158144047045 L-6.59936055189592,6.107667368226775 L-6.27253089258767,5.503187981103786 " />
			<path d="M-6.272530892587657,5.503187981103762 L-5.999384264493665,5.07867134666656 L-5.689825381799369,4.652321716493076 L-5.345733059897463,4.22672674770647 L-4.969195709061538,3.8044695171399843 L-4.562498659192386,3.3881128437880603 L-4.128110289393875,2.9801837342089925 L-3.668667046562582,2.5831580452851197 L-3.186957443918319,2.1994454574273377 L-2.685905136593778,1.8313748494265414 L-2.168551177003142,1.481180163716859 L-1.6380355576877084,1.1509868478390834 L-1.0975781536611176,0.842798954395544 L-0.5504591799213885,0.5584869777910716 L7.172603183613901e-07,0.2997765015829369 " />
			<path d="M-9.659257558757119,3.624117935593296 L-9.636659957111853,3.932866903071135 L-9.568972885263527,4.245563946329369 L-9.456513047754555,4.5607459709942315 L-9.299806638737008,4.8769382555838865 L-9.099586879935593,5.192661351659066 L-8.85679058993857,5.506438006090919 L-8.572553800868803,5.816800073057102 L-8.248206442944284,6.122295383425226 L-7.88526612179883,6.421494539382142 L-7.485431017678556,6.7129976025173175 L-7.050571939738477,6.995440644067101 L-6.5827235726167554,7.267502126671578 L-6.084074956243477,7.527909087784089 L-5.556959243428548,7.775443095801525 " />
			<path d="M-5.55695924342848,7.775443095801557 L-5.205822593675885,7.92656197037886 L-4.844707987092525,8.071643458426346 L-4.47430756894347,8.210409483501888 L-4.095331282529066,8.342594073956983 L-3.7085055084427108,8.467943872722362 L-3.314571672323412,8.586218622915265 L-2.9142848237716255,8.697191628337787 L-2.5084121891521773,8.8006501879835 L-2.097731701058075,8.896396003719676 L-1.6830305072537928,8.984245560363583 L-1.2651034619559043,9.064030477424483 L-0.8447516023428392,9.135597831837066 L-0.422780613213799,9.19881045106777 L7.172602571325903e-07,9.253547176032196 " />
			<path d="M7.1726037276538e-07,9.253547176032217 L-0.28978467612936565,8.743798783704952 L-0.5759258500598267,8.184161342509126 L-0.8548244132458576,7.581672617976993 L-1.12297305443468,6.94390925539164 L-1.3769996488798768,6.278891499076501 L-1.6137096647666387,5.594982333169529 L-1.830126336302838,4.900782312245345 L-2.0235280982760298,4.205021404351305 L-2.191482811315085,3.5164492065940585 L-2.331878347453942,2.8437249138792966 L-2.442949151366269,2.1953084245116354 L-2.523298443248086,1.579353952064884 L-2.571915784134234,1.0036074814151679 L-2.588189782754632,0.4753093584868324 " />
			<path d="M-2.5881897827546334,0.4753093584867898 L-2.586669738960975,0.32442432139446087 L-2.582111393022873,0.17876888081458997 L-2.574520099171749,0.03851412357286854 L-2.5639047741385035,-0.09617520714562522 L-2.5502778866799267,-0.22514090530372188 L-2.5336554429328983,-0.34823148784089364 L-2.5140569676135884,-0.46530237260521723 L-2.491505481083731,-0.5762160481795049 L-2.4660274723109192,-0.6808422354021668 L-2.4376528677546685,-0.7790580403930649 L-2.4064149962148114,-0.8707480989046168 L-2.3723505496835045,-0.9558047118285997 L-2.3354995402468224,-1.0341279716994847 L-2.2959052530865844,-1.1056258800456995 " />
			<path d="M-2.295905253086584,-1.1056258800457006 L-2.2537821996145393,-1.169979033696464 L-2.209032205520511,-1.2274009641334178 L-2.1617074300326293,-1.2778247421059539 L-2.1118630334656814,-1.3211915951965192 L-2.0595571129279286,-1.3574509763239464 L-2.0048506346048907,-1.3865606226595915 L-1.9478073626990189,-1.4084866048876035 L-1.888493785108087,-1.423203366751894 L-1.826979035928924,-1.4306937548437302 L-1.7633348148768224,-1.4309490385952284 L-1.697635303714533,-1.4239689204554336 L-1.6299570797882739,-1.4097615362371412 L-1.5603790267714976,-1.3883434456340327 L-1.4889822427205042,-1.3597396129192147 " />
			<path d="M-1.488982242720502,-1.3597396129192139 L-1.3948954593340828,-1.3125965868926113 L-1.298135090425882,-1.2537823315383294 L-1.1988865957639727,-1.1834095756344873 L-1.0973402040856872,-1.101613202037938 L-0.9936905484878387,-1.008549989155457 L-0.888136293375128,-0.9043983104479114 L-0.7808797536817891,-0.7893577925433868 L-0.6721265070962937,-0.6636489326145406 L-0.5620850000323571,-0.5275126757535605 L-0.45096614810149094,-0.3812099531547848 L-0.3389829318528601,-0.22502118199011345 L-0.2263499885552942,-0.05924572793582994 L-0.11328320080387702,0.1157986686190223 L7.17260366378536e-07,0.29977650158291064 " />
			<path d="M7.07106849326284,1.6278532617010373 L7.066915656488502,1.7831137769806604 L7.054462024086002,1.9418905126871588 L7.033722224087271,2.103996969726524 L7.004720617453585,2.2692427379153224 L6.96749126946118,2.437433719636425 L6.9220779096882,2.608372357825996 L6.868533880649942,2.7818578680239483 L6.806922075142765,2.957686474215289 L6.737314862370231,3.1356516481853554 L6.659794002938269,3.3155443521077723 L6.5744505528191945,3.4971532840802118 L6.481384756397399,3.680265126319525 L6.380705928722339,3.864664795724725 L6.272532327107115,4.050135696513519 " />
			<path d="M6.272532327107113,4.050135696513522 L5.999385699013119,4.474652330950465 L5.689826816318871,4.901001961123679 L5.345734494417069,5.3265969299100036 L4.969197143581295,5.748854160476205 L4.562500093712339,6.165210833827847 L4.128111723914065,6.573139943406635 L3.6686684810830434,6.970165632330242 L3.1869588784390834,7.353878220187774 L2.6859065711148693,7.72194882818834 L2.1685526115245777,8.072143513897814 L1.6380369922095033,8.402336829775413 L1.0975795881832775,8.710524723218807 L0.5504606144439131,8.99483669982317 L7.172625086093731e-07,9.253547176031256 " />
			<path d="M7.172603810395946e-07,0.2997765015829074 L0.2401111270155776,0.19543503111109647 L0.4799445951606719,0.09637751450726229 L0.7192244995080117,0.0027182039946576086 L0.9576748563464259,-0.08543487445532616 L1.1950206387588407,-0.1679800457195405 L1.4309880938363366,-0.24482210279442618 L1.665305058422774,-0.3158724166070853 L1.8977012730258098,-0.3810490382394103 L2.1279086935322398,-0.440276793447377 L2.3556618003681415,-0.4934873693664711 L2.5806979047472307,-0.5406193933032533 L2.8027574516542058,-0.5816185035221786 L3.0215843192136274,-0.6164374119460334 L3.2369261140989747,-0.6450359586976465 " />
			<path d="M3.236926114099031,-0.645035958697654 L3.718370480122973,-0.6870789123889768 L4.177066516271999,-0.6956956645764564 L4.610208001161982,-0.6708334994911633 L5.01514505164273,-0.6126445194706371 L5.389400334315369,-0.521484714423631 L5.730684221420792,-0.39791178394668614 L6.03690879837815,-0.24268172541644217 L6.306200637277717,-0.05674420893112897 L6.536912258182158,0.15876323260347114 L6.727632208117987,0.40252216269954477 L6.877193696095721,0.6730413072489716 L6.984681731331207,0.9686656778750833 L7.049438720997727,1.2875866968594316 L7.071068493262837,1.6278532617009978 " />
			<path d="M5.556960694542283,1.7778805892025993 L30.237687393900543,12.768424705791443 " />
			<path d="M1.4889836939707521,10.913063297984134 L25.435111671599984,21.576484159350393 " />
			<path d="M-3.236924682772681,10.198359636693924 L-36.886848165024105,14.213472869868827 " />
			<path d="M-4.421721636625691,0.2687948839899743 L-39.16240405215336,4.414057614518452 " />
			<path d="M-26.169708958207273,-12.35028373669023 L-1.4889822594013253,-1.3597396203473444 " />
			<path d="M-29.503087238936423,-2.88797777352627 L-5.556959260264307,7.7754430883043995 " />
			<path d="M38.071646553371124,5.2694155604534245 L4.421723071352076,9.284528793600602 " />
			<path d="M37.97760853284764,-4.790298689610453 L3.2369261173986104,-0.645035959091361 " />
			<path d="M-14.549523346814928,19.25884602363192 L-6.272530891904328,5.503187979968118 " />
			<path d="M-5.829341878487913,24.162422153998133 L2.2959066882672694,10.658949556564075 " />
			<path d="M-2.2959052538135545,-1.105625878837543 L5.981087201136408,-14.861283922566763 " />
			<path d="M6.272532326409177,4.05013569767344 L14.397780893207972,-9.453336899833097 " />

        </g>

        <!-- solid lines -->
        <g  stroke="rgb(0,0,0)" fill="none">
    			<path d="M-31.374355126083813,-6.045805511836674 L-31.359394922754472,-5.907081914431171 L-31.341296575360676,-5.769862587574066 L-31.320075263838447,-5.6342709732190395 L-31.295748885293534,-5.500428232996021 L-31.268337967053405,-5.368453317097243 L-31.23786559235604,-5.238463020954224 L-31.204357337523177,-5.11057203083889 L-31.167841219590183,-4.984892959378938 L-31.128347653489595,-4.8615363718343945 L-31.085909418010132,-4.740610803839261 L-31.040561629877573,-4.622222771169013 L-30.9923417254288,-4.506476771951576 L-30.94128944947494,-4.393475281596353 L-30.88744685107431,-4.283318740572714 L-30.830858286060597,-4.176105535026275 L-30.77157042629647,-4.071931970078178 L-30.709632275747534,-3.9708922355094836 L-30.64509519359624,-3.873078363389647 L-30.578012924740204,-3.7785801770649803 L-30.508441638144028,-3.687485230779867 L-30.43643997363847,-3.599878739060386 L-30.362069097885644,-3.5158434948469055 L-30.285392770353464,-3.4354597752190803 L-30.20647742026757,-3.358805233413602 L-30.125392235633402,-3.2859547756919008 L-30.042209265546088,-3.216980421471938 L-29.95700345891084,-3.151951087760835 L-29.869836901726917,-3.0909217778796876 L-29.780778569645527,-3.033950054012581 L-29.68991122198195,-2.9810981291413645 L-29.597318974418997,-2.9324232309212586 L-29.503087243398028,-2.8879777755123612 " />
			<path d="M-29.503087243398028,-2.887977775512359 L-29.424967371401806,-2.854848213895965 L-29.345859442194335,-2.8245957373991875 L-29.26581179985043,-2.7972421228174666 L-29.184873299966426,-2.7728071910253784 L-29.103093298689174,-2.7513088307791325 L-29.020521643026292,-2.732763016881696 L-28.937208662349384,-2.717183822988206 L-28.85320516101241,-2.7045834292664264 L-28.768562412018092,-2.6949721250641367 L-28.683332151675742,-2.688358306672447 L-28.597566575204567,-2.684748470211134 L-28.51131833324702,-2.6841471995992325 L-28.424640529267457,-2.6865571495111955 L-28.33758671782185,-2.691979023156082 L-28.250210903694953,-2.7004115446543193 L-28.162567541911937,-2.711851425723715 L-28.074711538641992,-2.7262933263234945 L-27.98669825302218,-2.7437298088422675 L-27.898583499940152,-2.764151285352921 L-27.810423553825203,-2.787545957394572 L-27.722275153507546,-2.813899747678797 L-27.63419550821635,-2.843196223054501 L-27.54624230479767,-2.8754165080028735 L-27.458473716243986,-2.9105391878710054 L-27.370948251615665,-2.9485402731950714 L-27.283709184164287,-2.9894006687307755 L-27.196804955595915,-3.0330981435899536 L-27.110293599602517,-3.079603976964445 L-27.024232182192574,-3.1288874776688314 L-26.938676830835995,-3.1809160726664567 L-26.853682760309987,-3.2356553867437245 L-26.769304295495115,-3.293069314018966 L-26.685594891349346,-3.3531200819237594 L-26.60260715026635,-3.4157683082462538 L-26.520392837003115,-3.4809730517776467 L-26.43900289134026,-3.5486918570545933 L-26.358487438617267,-3.618880793641964 L-26.278895798263225,-3.691494490351986 L-26.20027649042241,-3.7664861647474215 L-26.122677240752488,-3.843807648228078 L-26.046144983451814,-3.9234094069515635 L-25.970725862550804,-4.005240558790824 L-25.89646523148099,-4.089248886482619 L-25.8234076509139,-4.175380847072756 L-25.751596884840527,-4.263581577715462 L-25.681075894840745,-4.353794897835961 L-25.61188683247052,-4.44596330761693 L-25.54407102967349,-4.540027982721108 L-25.477668987101925,-4.6359287651139995 L-25.412720360210756,-4.733604149802202 L-25.349263942966907,-4.8329912672545605 L-25.28733764899475,-4.93402586122491 L-25.226978489957087,-5.036642261646856 L-25.168222550949615,-5.140773352222651 L-25.11110496266549,-5.24635053227982 L-25.0556598700651,-5.353303672420854 L-25.00191490455199,-5.4615723752319285 L-24.94989323556983,-5.57110398604701 L-24.89962506496966,-5.681829587049209 L-24.85113923795674,-5.793679926319292 L-24.804463187742268,-5.906585644331994 L-24.759622981822666,-6.020477288509866 L-24.71664336344369,-6.135285326583377 L-24.675547788615276,-6.250940158856675 L-24.636358459014108,-6.367372129473696 L-24.59909635108232,-6.4845115367744075 L-24.563781241601706,-6.6022886428262115 L-24.53043172999418,-6.720633682210644 L-24.49906525757035,-6.839476870140742 L-24.46969812391925,-6.958748409979611 L-24.442345500603555,-7.078378500225874 L-24.417021442295695,-7.19829734102689 L-24.393738895461574,-7.318435140275818 L-24.372509704669767,-7.438722119343733 L-24.353344616575185,-7.559088518493218 L-24.33625328159759,-7.67946460201503 L-24.32124425328628,-7.799780663124589 L-24.30832498533376,-7.919967028650237 L-24.297501826172056,-8.0399540635404 L-24.288780011056947,-8.159672175211936 L-24.282163651516164,-8.279051817757137 L-24.277655722009136,-8.398023496022057 L-24.275258043616873,-8.516517769563988 L-24.274971264551848,-8.634465256491062 L-24.27679483724889,-8.7517966371822 L-24.280726991769367,-8.868442657880758 L-24.286764705222073,-8.984334134150377 L-24.294903893063065,-9.099404776149221 L-24.30514100908755,-9.21360501794733 L-24.317470778653743,-9.326869617873454 L-24.331886440667517,-9.439130517702726 L-24.348380020573043,-9.550320649480351 L-24.36694236346581,-9.660373910783274 L-24.387563163233644,-9.76922514353545 L-24.41023098802685,-9.876810116101117 L-24.434933302332702,-9.983065508407808 L-24.46165648590404,-10.087928899878266 L-24.490385849765886,-10.191338759977677 L-24.521105649498377,-10.29323444121 L-24.553799095968618,-10.393556174424607 L-24.58844836365836,-10.492245066321654 L-24.62503459670877,-10.589243099072046 L-24.66353791277777,-10.68449313199518 L-24.70393740477988,-10.777938905264987 L-24.74621114055269,-10.869525045642114 L-24.790336160468456,-10.959197074257519 L-24.836288472983664,-11.046901416499988 L-24.88404304809363,-11.1325854140875 L-24.933573808633604,-11.216197339429673 L-24.984853619342104,-11.297686412415946 L-25.037854273576603,-11.377002819791327 L-25.092546477545852,-11.45409773730912 L-25.14889983189763,-11.528923354877165 L-25.206882810474866,-11.601432904941609 L-25.266462736027496,-11.671580694379532 L-25.327605752641677,-11.739322140199084 L-25.390276794622324,-11.804613809373139 L-25.454439551539203,-11.867413463159833 L-25.52005642912126,-11.927680106290701 L-25.587088505657956,-11.985374041434415 L-25.65549560336701,-12.040457022684187 L-25.72524770850365,-12.092900629019605 L-25.796309524134845,-12.142673025416052 L-25.868637238860778,-12.189738184281918 L-25.942186402542134,-12.234062343168242 L-26.016911948275848,-12.275613933299075 L-26.09276821220118,-12.314363516964741 L-26.169708951299533,-12.350283733099392 " />
			<path d="M-26.169708951299558,-12.3502837330994 L-26.278187897779528,-12.395395485593635 L-26.3885381658318,-12.43494891503949 L-26.50063096067513,-12.468889874769761 L-26.614335568147812,-12.497171312291124 L-26.729519399132265,-12.519753185329996 L-26.84604802569893,-12.536602414624134 L-26.963785209678043,-12.547692871856968 L-27.08259292421649,-12.553005401982158 L-27.2023313687257,-12.552527880036333 L-27.32285897747522,-12.546255303388493 L-27.44403242193516,-12.534189921224996 L-27.5657066068196,-12.516341403919602 L-27.687734659631552,-12.492727055788464 L-27.80996791335884,-12.463372075580507 L-27.932255881818936,-12.428309869904078 L-28.054446226999417,-12.387582425641279 L-28.176384717589503,-12.341240748251833 L-28.2979158582482,-12.289345067109801 L-28.418916057555794,-12.231948731723962 L-28.539247538192317,-12.169115926300709 L-28.65875668782816,-12.100926141158531 L-28.777293291936505,-12.027465870478457 L-28.89471040314698,-11.94882820380416 L-29.010864232369308,-11.865112474826828 L-29.125614059488623,-11.776423961346778 L-29.238822161728294,-11.68287363095758 L-29.350353758070423,-11.584577927652258 L-29.46007696841867,-11.481658595204776 L-29.56786278648216,-11.374242533833854 L-29.673585065653782,-11.262461687309909 L-29.777120517450314,-11.146452958319548 L-29.878348722376277,-11.026358150555991 L-29.97715215336773,-10.902323936657348 L-30.073416212266444,-10.774501851768546 L-30.16702928006935,-10.64304831315642 L-30.257882781992446,-10.508124666961216 L-30.345871268682572,-10.369897263821521 L-30.430892515204985,-10.228537565763382 L-30.51284763972882,-10.084222287398088 L-30.591641244126937,-9.937133575126941 L-30.66718211689161,-9.787458129887188 L-30.739401257265715,-9.635348382042908 L-30.80822513385716,-9.480972067996401 L-30.87357644448684,-9.324515308150355 L-30.93538321668878,-9.166164496675725 L-30.99357857287269,-9.006106233393545 L-31.048100529319807,-8.844527263065526 L-31.098891825477775,-8.681614421224852 L-31.145899780418205,-8.517554585732706 L-31.189076173718906,-8.352534633300113 L-31.228377148430805,-8.186741400268955 L-31.263763134187773,-8.020361646999968 L-31.29519878891567,-7.853582025269818 L-31.322652957995146,-7.686589048133325 L-31.346098650130784,-7.519569061761157 L-31.365513029577382,-7.352708218817355 L-31.3808774247723,-7.1861924529952255 L-31.392177353820923,-7.020207454384214 L-31.399402567680468,-6.85493864539455 L-31.402547112285482,-6.690571157020527 L-31.401609411256523,-6.527289805277459 L-31.39659237123168,-6.365279067701415 L-31.387503512258725,-6.2047230598550165 L-31.37435512608382,-6.045805511836739 " />
			<path d="M36.734443225130136,-1.9115844576556356 L36.698184550865854,-1.6191774223599622 L36.667218266480894,-1.3192379564353545 L36.64167268533478,-1.0129607043689464 L36.621654545120805,-0.7015531769861068 L36.607249944674166,-0.386234838552157 L36.59852488650712,-0.0682363261453578 L36.595525480931904,0.25120123011779594 L36.598277842857286,0.570826817803789 L36.60678768756968,0.8893801160084673 L36.621039607034945,1.2055920648871052 L36.64099598348197,1.518185463806505 L36.66659547225454,1.825875631437364 L36.697752214368876,2.1273821872468925 L36.7343700206744,2.421545975860238 L36.77631887734835,2.7071115606443468 L36.82344009330292,2.9828323223880355 L36.87555255142552,3.2475184213376838 L36.9324536886613,3.500034874187178 L36.9939200652389,3.739300823408538 L37.02628974405751,3.853641954825556 L37.05970757756497,3.9642898828670274 L37.09413980500723,4.071125049696453 L37.129551341713636,4.1740315372023336 L37.165905757111446,4.2728971743093425 L37.203165246839404,4.367613665995098 L37.24129059847003,4.458076746211613 L37.28024115024251,4.544186357275854 L37.31997474210002,4.625846858659223 L37.360447658217886,4.702967268471173 L37.4016145601008,4.77546154129754 L37.44343305645544,4.8432561067456446 L37.48586675543445,4.906291618993436 L37.52886835848315,4.964496819656937 L37.57238990161714,5.017807178356512 L37.6163833075714,5.066165405878869 L37.66080040536573,5.109521122193165 L37.705592948165155,5.1478305711263 L37.75071262964139,5.1810563771027445 L37.79611109903032,5.209167339877427 L37.841739975068755,5.232138263713324 L37.887550858982465,5.249949817978555 L37.933495346686044,5.262588426660936 L37.97952504034368,5.270046184821072 L38.02559155942856,5.27232080052823 L38.07164655140708,5.269415561346374 " />
			<path d="M38.071646551407085,5.269415561346374 L38.10701186739493,5.263666189842951 L38.142319892028624,5.254867259344051 L38.17754871682205,5.243026995252265 L38.212676455766456,5.22815559770202 L38.24768124807935,5.2102652622626895 L38.28254126097516,5.189370206481678 L38.31723469246625,5.165486702633279 L38.35173977420194,5.138633117102867 L38.38603477435133,5.108829956899826 L38.420098000534736,5.076099923856346 L38.45390780280691,5.040467977133092 L38.48744257669383,5.001961404716455 L38.55361842472537,4.9164212598455626 L38.618479286285876,4.8196964377010385 L38.681867823767455,4.712046887923082 L38.743632967686516,4.593755742432227 L38.80362964759869,4.465127710885299 L38.86171857718472,4.326487807724381 L38.91776609604304,4.178180349674141 L38.97164406093507,4.020568185067291 L39.023229781206894,3.854032124822063 L39.07240599508843,3.6789705533398163 L39.11906088554897,3.4957992060349494 L39.16308813636544,3.304951108653511 L39.20438703103739,3.1068766819810394 L39.24286259916026,2.902044023984281 L39.27842581684613,2.6909393898756684 L39.31099437409231,2.4740643318158133 L39.34050085358931,2.2518712234454594 L39.36687688892842,2.0248634143173843 L39.39005834296787,1.7935768428985641 L39.40998917255387,1.558552782686638 L39.426621113721744,1.3203375368270673 L39.43991345378674,1.0794821750262267 L39.449832878821915,0.8365423060015764 L39.45635338807143,0.5920778791351446 L39.45945626989832,0.34665300942160293 L39.45913013691651,0.10083582022722926 L39.45537102100775,-0.1448017011988494 L39.448182531974815,-0.3896838400947029 L39.43757608663301,-0.6332312866454624 L39.42357121819305,-0.8748612683164914 L39.406195978838824,-1.1139876854182797 L39.38548745145462,-1.350021252836398 L39.361489922795705,-1.5823918503476007 L39.33424818990089,-1.8105933269406367 L39.30382373168477,-2.0340384457638834 L39.27028759149362,-2.252149352976715 L39.23371877381987,-2.464368136900228 L39.19420385892,-2.670156116340868 L39.15183671499114,-2.8689933937263694 L39.10671829554906,-3.0603786430659126 L39.05895651300748,-3.243829113812043 L39.008666182815574,-3.4188808427675443 L38.95596903586714,-3.5850890772460193 L38.90099380025248,-3.742028923760598 L38.84387635678032,-3.889296247580794 L38.78475997605462,-4.026508859563158 L38.72379564824772,-4.153308037726978 L38.66114252006838,-4.2693604421119264 L38.59695945984178,-4.374374285159446 L38.531389357444944,-4.468115130698844 L38.49813738608589,-4.5106798745480114 L38.464603040112614,-4.550336778137449 L38.43080800860952,-4.587060896145756 L38.396773983329076,-4.620829657107254 L38.36252265470538,-4.651622789032921 L38.328075708202185,-4.679422253647154 L38.29345482096473,-4.704212188587635 L38.25868165874574,-4.72597885697868 L38.223777873077424,-4.744710603851443 L38.18876509866242,-4.7603978189474185 L38.1536649509581,-4.773032905504692 L38.11849902392968,-4.7826102546894615 L38.083288887949095,-4.789126225398369 L38.048056087817756,-4.792579129220234 L38.01282214089249,-4.792969220408811 L37.97760853529555,-4.7902986907812295 " />
			<path d="M37.977608535295545,-4.790298690781229 L37.928439634087134,-4.781439634776825 L37.87941104175223,-4.766621252325221 L37.83058119726732,-4.745868699970256 L37.78200839739999,-4.719214720569099 L37.73375078803106,-4.6866997836193525 L37.68586635534888,-4.648372271846774 L37.638412916825565,-4.60428871869579 L37.59144811190395,-4.554514102287006 L37.54502938982001,-4.499122199145101 L37.499204424098934,-4.4381826112628415 L37.45401946907741,-4.371767399986183 L37.4095275846432,-4.299964308404847 L37.36578025567462,-4.222866860463319 L37.322827458032954,-4.140574045219235 L37.28071771505439,-4.05319004412296 L37.239498145513444,-3.9608239967188874 L37.199214503914035,-3.8635898006424156 L37.159911213848304,-3.761605942260036 L37.12163139504755,-3.6549953547734066 L37.084416884633384,-3.5438853010817652 L37.048308252961675,-3.428407279170477 L37.013344814335454,-3.308696948266986 L36.97956463274746,-3.1848940744788847 L36.947004522696695,-3.057142495102281 L36.91570004500765,-2.9255901012621184 L36.88568549746483,-2.790388839019519 L36.82965697372774,-2.5096679095076158 L36.77916735645028,-2.216277657588349 L36.73444322513014,-1.9115844576556986 " />
			<path d="M15.019345657803429,-11.58150790508562 L15.01225544932826,-11.439499037146975 L15.000834358314657,-11.29811441536387 L14.985091262159377,-11.157482102758022 L14.96503889764333,-11.017728630504761 L14.940693736988186,-10.878979042903653 L14.91207588230753,-10.741356933554059 L14.879208976770247,-10.60498447356144 L14.842120130979115,-10.469982432489232 L14.800839863252778,-10.336470192660146 L14.75540205268454,-10.204565757299708 L14.705843904036655,-10.074385752903911 L14.652205923714014,-9.946045426101783 L14.594531906246372,-9.81965863517275 L14.532868930893539,-9.695337836267637 L14.467267368173111,-9.573194064271119 L14.397780896295655,-9.453336908132549 " />
			<path d="M14.397780896295655,-9.453336908132547 L14.338464448718051,-9.357652815519819 L14.276650084225933,-9.263608959882156 L14.212371568908813,-9.17126202650986 L14.145664177972819,-9.080668007378337 L14.076564719231678,-8.991882181652883 L14.005111560367027,-8.904959093765594 L13.931344660230438,-8.819952528858424 L13.855305604494959,-8.736915485365166 L13.777037645999217,-8.655900144484022 L13.696585750162622,-8.576957836271145 L13.613996645885468,-8.500139002064483 L13.529318882383105,-8.425493152925892 L13.442602892438753,-8.353068823768492 L13.353894986117911,-8.28290884415099 L13.263232777321612,-8.215048145755986 L13.17067099224672,-8.149533443332576 L13.07626635908204,-8.086410157766093 L12.980076605364149,-8.025721694405513 L12.882160426114327,-7.9675094994436035 L12.782577455324068,-7.911813108640263 L12.68138824053718,-7.8586701889651405 L12.578654220296285,-7.808116573676281 L12.474437704241408,-7.760186291292297 L12.368801855668142,-7.714911588856273 L12.261810676372722,-7.672322949830296 L12.153528993631193,-7.632449106900245 L12.044022449179646,-7.595317049911191 L11.933357490082388,-7.560952029094425 L11.821601361394686,-7.529377553687904 L11.708822100546616,-7.500615385992576 L11.595088533394332,-7.474685530847774 L11.480470271904924,-7.45160622044957 L11.365037713460902,-7.4313938943767175 L11.2488620417901,-7.414063174629492 L11.132015229546685,-7.39962683542746 L11.014570042588815,-7.388095767452957 L10.896600046018214,-7.37947893616769 L10.778179612066904,-7.373783333770676 L10.659383929936045,-7.371013924306395 L10.540289017711778,-7.371173581372725 L10.4209717365027,-7.374263017819026 L10.301509806963482,-7.380280706765347 L10.181981828389018,-7.3892227932145085 L10.062467300583215,-7.401082995469529 L9.943039796138372,-7.4158534260365965 L9.823753474365006,-7.433527466112324 L9.70468575904904,-7.454094247856301 L9.585915668607885,-7.477540334549576 L9.467521147248311,-7.503850122583059 L9.349579093387144,-7.533005932120602 L9.232165384637778,-7.564988088471391 L9.115354899617822,-7.599774994892733 L8.999221536809298,-7.637343197490498 L8.883838230678862,-7.677667442830663 L8.769276965241527,-7.720720728821603 L8.655608785227553,-7.766474349372953 L8.542903804988061,-7.81489793328306 L8.431231215251143,-7.86595947775322 L8.320659287816202,-7.9196253768731175 L8.21125537825034,-7.975860445368011 L8.103085926626743,-8.034627937844471 L7.996216456320909,-8.09588956371761 L7.890711570856826,-8.159605497948954 L7.786634948771116,-8.225734387670302 L7.684049336439283,-8.29423335471507 L7.583016538784267,-8.365057994024871 L7.483597407763541,-8.438162367845203 L7.385851828507072,-8.513498995570338 L7.289838702954525,-8.591018839043706 L7.19561593081612,-8.670671283066225 L7.103240387657653,-8.752404110811247 L7.012767899886234,-8.836163473790931 L6.9242532163893635,-8.921893855965124 L6.837749976555991,-9.009538031529932 L6.7533106743843305,-9.099037015869406 L6.670985032367614,-9.190331808553688 L6.590807026573861,-9.283379098778216 L6.512820309032065,-9.3781236163804 L6.437070627867851,-9.474505141861716 L6.363601835648347,-9.57246294278588 L6.292455952221048,-9.671935802286862 L6.223673221044901,-9.772862044957746 L6.157292159508055,-9.87517956032667 L6.093349603688957,-9.978825824113391 L6.031880747979786,-10.083737917447136 L5.972919179953414,-10.189852544213712 L5.916496910817392,-10.29710604668709 L5.862644401760711,-10.405434419587841 L5.811390586461334,-10.5147733226981 L5.762762889984758,-10.625058092149951 L5.716787244266162,-10.73622375049135 L5.67348810033089,-10.848205015620925 L5.632888437370367,-10.960936308670268 L5.595009768752712,-11.074351760899525 L5.559872145009654,-11.18838521965935 L5.527494153803575,-11.302970253459499 L5.497892916840778,-11.418040156171596 L5.471084083659324,-11.533527950380826 L5.44708182218208,-11.64936638988856 L5.425898805887836,-11.765487961355106 L5.407546197415645,-11.88182488505906 L5.392033628379782,-11.998309114736951 L5.379369175134985,-12.114872336454113 L5.36955933019391,-12.231445966444909 L5.3626089689609735,-12.347961147847734 L5.358521311409046,-12.464348746247401 L5.357297878287685,-12.580539343924787 L5.358938773638473,-12.696475761488216 L5.363443618172001,-12.812102033760434 L5.370810567870543,-12.927348649226596 L5.381036044955028,-13.04214673602237 L5.394114787099202,-13.15642805599754 L5.410039890822371,-13.27012499069828 L5.428802849522279,-13.383170529665664 L5.450393586553755,-13.495498260871457 L5.474800483722228,-13.607042363132075 L5.50201040552462,-13.717737600361561 L5.532008719433606,-13.827519317544391 L5.564779312484635,-13.936323438328806 L5.600304604388554,-14.044086464161284 L5.638565557356141,-14.150745474902765 L5.6795416827842615,-14.256238130887134 L5.723211044916817,-14.360502676402332 L5.769550261557097,-14.463477944594539 L5.818534501871592,-14.565103363815673 L5.870137481288734,-14.665318965454421 L5.92433145345951,-14.764065393310997 L5.981087199210309,-14.861283914595656 " />
			<path d="M5.981087199210326,-14.861283914595685 L6.031083884028587,-14.942300412904714 L6.082872942807535,-15.022146787862766 L6.136434159303169,-15.100788558154994 L6.1917465273441685,-15.17819159081403 L6.248788239188044,-15.25432210992863 L6.307536672390821,-15.32914670624237 L6.3679683750953675,-15.402632347707272 L6.430059049633823,-15.474746391062341 L6.493783534330035,-15.545456594512316 L6.559115783378296,-15.614731131587147 L6.626028844665082,-15.682538606267942 L6.69449483539086,-15.748848069470345 L6.764484915339475,-15.81362903698157 L6.835969257633026,-15.876851508952514 L6.908918214834878,-15.938486980823102 L6.983312829555061,-15.99851656623807 L7.059123934960255,-16.05691322746872 L7.136318276177671,-16.11364796867419 L7.214862056274747,-16.16869285501201 L7.2947209522370295,-16.2220209839904 L7.375860129561023,-16.273606459877346 L7.4582442555507935,-16.323424370965995 L7.541837511401752,-16.37145076951132 L7.626603603149723,-16.41766265416817 L7.712505771558099,-16.462037954776154 L7.799506801010559,-16.504555519352053 L7.887569027471468,-16.545195103165696 L7.976654345570748,-16.583937359790546 L8.066724214864733,-16.62076383403546 L8.157739665319143,-16.655656956679408 L8.249661302055014,-16.68860004094612 L8.342449309393059,-16.71957728067102 L8.43606345422665,-16.74857375012792 L8.53046308874827,-16.775575405498337 L8.625607152548936,-16.80056908798152 L8.721454174104794,-16.823542528558495 L8.817962271659722,-16.844484354438787 L8.91508915350752,-16.86338409723368 L9.012792117671875,-16.88023220291513 L9.111028050976953,-16.895020043634812 L9.20975342749621,-16.90773993149291 L9.30892430636163,-16.91838513436163 L9.408496328910317,-16.92694989388363 L9.508424715139942,-16.933429445780867 L9.608664259439367,-16.937820042624534 L9.709169325555328,-16.940118979232196 L9.809893840750773,-16.94032462087329 L9.910791289105106,-16.938436434479616 L10.011814703901269,-16.934455023072537 L10.112916659039318,-16.92838216363406 L10.214049259410718,-16.920220848664005 L10.31516413016233,-16.909975331681 L10.416219223750044,-16.897650275712174 L10.51718498759041,-16.88324916510523 L10.618014003052458,-16.866778284193465 L10.71865820389583,-16.848245219401278 L10.819070072771217,-16.827658679067163 L10.91920262821331,-16.805028452323327 L11.019009412961626,-16.780365371530102 L11.118444483524337,-16.75368127803178 L11.217462400906417,-16.724988991014445 L11.316018222429854,-16.694302279260214 L11.414067494579818,-16.661635835606372 L11.511566246817102,-16.627005253931568 L11.608470986303349,-16.590427008505365 L11.704738693491986,-16.551918435551194 L11.800326818543995,-16.511497716886776 L11.895193278533968,-16.469183865519888 L11.989296455418216,-16.4249967130914 L12.082595194743016,-16.378956899071227 L12.175048805077303,-16.33108586162695 L12.266617058160499,-16.281405830098624 L12.357260189762396,-16.229939819027294 L12.44693890125838,-16.176711623698562 L12.535614361929536,-16.121745817176574 L12.623248212003457,-16.065067748817587 L12.795240019615862,-15.946680106951757 L12.962617029453423,-15.821767056408278 L13.125089811065935,-15.69055953520024 L13.282377045075819,-15.553301289206333 L13.43420583615405,-15.410249215788683 L13.580312100972701,-15.26167383662286 L13.720441054189488,-15.10785990272323 L13.854381675117327,-14.949065401232163 L13.98193482576718,-14.785548885995757 L14.102886654322026,-14.61760589134886 L14.217038670085904,-14.445535738558368 L14.324206961079776,-14.269641194965113 L14.42422154964961,-14.090228185157905 L14.516925868879795,-13.907605547196077 L14.602176345161228,-13.722084827698822 L14.67984207481941,-13.533980110421712 L14.715793156309026,-13.439057561936144 L14.749804585264009,-13.343607873742709 L14.781863468512473,-13.247670960548541 L14.811957673677451,-13.151286873281988 L14.840075828091308,-13.054495796598115 L14.86620731881619,-12.957338046681926 L14.890342293780883,-12.859854069340138 L14.912471664054374,-12.762084438375537 L14.932587107286476,-12.664069854241033 L14.950681072355788,-12.56585114297368 L14.966746785275307,-12.46746925541202 L14.980778256415942,-12.368965266703373 L14.992770289118214,-12.270380376110642 L15.002718489772365,-12.171755907131477 L15.0106192794571,-12.073133307945698 L15.016469907237212,-11.974554152210075 L15.020268465230242,-11.87606014022264 L15.02201390556238,-11.77769310048183 L15.021706059343781,-11.679494991668964 L15.019345657803433,-11.581507905085685 " />
			<path d="M16.271908995513947,36.8405072138183 L15.75436668674107,37.06660874070392 L15.233683627527194,37.285380525168144 L14.709963619926372,37.4967789534229 L14.183311071430985,37.700761881613694 L13.653830974157318,37.897288644221355 L13.12162888391461,38.086320062168944 L12.586810899161726,38.267818450632426 L12.04948363985561,38.441747626553436 L11.509754226195835,38.608072915852595 L10.967730257269343,38.76676116034209 L10.423519789599831,38.917780724336 L9.877231315605812,39.06110150095707 L9.328973741971884,39.196694918138796 L8.778856367937353,39.32453394432144 L8.2269888635066,39.44459309384099 L7.67348124758559,39.55684843200991 L7.118443866048738,39.6612775798887 L6.561987369740638,39.757859718747305 L6.00422269241705,39.846575594215494 L5.445261028629334,39.92740752012134 L4.885213811557065,40.00033938201713 L4.324192690792952,40.06535664039185 L3.762309510084698,40.12244633356977 L3.1996762850380573,40.17159708029446 L2.6364051807857383,40.21279908199773 L2.072608489626436,40.246044124753006 L1.5083986086385028,40.271325580912894 L0.9438880172727817,40.288638410430416 L0.37918925492896705,40.297979161863786 L-0.1855851014799672,40.2993459730645 L-0.7503224599707856,40.29273857154854 L-1.314910235936079,40.2781582745507 L-1.879235874588824,40.25560798876203 L-2.4431868734010322,40.2250922097503 L-3.006650804531958,40.18661702106381 L-3.5695153372414428,40.140190093018596 L-4.1316682602838615,40.085820681169274 L-4.6929975042783045,40.023519624463894 L-5.253391164050418,39.9532993430831 L-5.812737520941544,39.875173835964084 L-6.37092506508068,39.789158678009805 L-6.927842517614785,39.69527101698396 L-7.483378852893063,39.593529570092535 L-8.037423320600752,39.483954620252334 L-8.589865467838024,39.36656801204743 L-9.140595161139599,39.2413931473743 L-9.689502608430658,39.10845498077648 L-10.23647838091474,38.967780014469675 L-10.781413434889174,38.81939629305838 L-11.324199133483738,38.66333339794494 L-11.864727268318266,38.49962244143229 L-12.402890081074762,38.32829606052148 L-12.938580284979853,38.149388410405265 L-13.47169108619319,37.96293515765903 L-14.002116205097598,37.768973473130295 L-14.529749897486722,37.56754202452855 L-15.054486975645913,37.35868096871648 L-15.576222829322196,37.14243194370442 L-16.09485344657908,36.91883806034953 L-16.610275434532145,36.687943893761265 L-17.122386039961167,36.449795474415055 L-17.631083169794742,36.20444027897574 L-18.136265411463306,35.95192722083279 L-18.637832053116476,35.692306640348995 L-19.135683103700732,35.42563029482482 L-19.62971931289335,35.15195134818009 L-20.11984219088872,34.87132436035547 L-20.60595402803301,34.583805276435506 L-21.087957914303324,34.28945141549548 L-21.56575775862742,33.98832145917454 L-22.039258308040214,33.68047543997702 L-22.508365166673137,33.36597472930449 L-22.972984814572673,33.04488202522093 L-23.433024626344256,32.71726133995343 L-23.88839288961784,32.38317798713085 L-24.338998823331433,32.04269856876303 L-24.78475259582899,31.695890961963283 L-25.225565342769013,31.34282430541643 L-25.66134918484033,30.98356898559563 L-26.09201724528149,30.61819662273026 L-26.517483667200292,30.246780056527847 L-26.937663630689993,29.86939333165298 L-27.3524733697388,29.486111682965962 L-27.761830188929245,29.097011520524127 L-28.165652479924127,28.702170414348963 L-28.56385973773574,28.30166707896194 L-28.95637257677518,27.89558135769218 L-29.3431127466784,27.4839942067591 L-29.724003147906036,27.066987679133177 L-30.09896784711377,26.644644908178076 L-30.467932092290226,26.217050091077414 L-30.8308223276593,25.784288472049386 L-31.187566208344094,25.346446325352737 L-31.538092614789377,24.903610938087287 L-31.88233166693982,24.45587059279267 L-32.2202147381711,24.003314549848493 L-32.55167446897113,23.546033029679624 L-32.87664478036869,23.084117194770112 L-33.19506088710672,22.617659131489198 L-33.50685931055781,22.146751831733297 L-33.81197789137908,21.67148917438729 L-34.11035580190416,21.191965906609106 L-34.4019335582696,20.70827762494117 L-34.68665303227343,20.22052075625251 L-34.964457462963466,19.72879253851535 L-35.235291467953004,19.23319100141997 L-35.49910105446176,18.733814946831792 L-35.75583363007968,18.23076392909445 L-36.00543801325164,17.724138235182934 L-36.24786444348091,17.214038864710602 L-36.483064591249224,16.700567509794148 L-36.710991567651696,16.183826534780547 L-36.93159993374441,15.663918955839934 L-37.14484570960302,15.140948420428586 L-37.35068638309054,14.615019186625986 L-37.54908091833238,14.086236102350261 L-37.739989763897206,13.554704584455894 L-37.92337486068177,13.02053059771815 L-38.099199649498296,12.483820633708161 L-38.26742907836285,11.944681689563067 L-38.4280296094832,11.403221246655331 L-38.58096922594477,10.859547249165507 L-38.72621743809355,10.313768082562786 L-38.863745289614364,9.765992551997526 L-38.99352536330356,9.216329860610156 L-39.1155317865348,8.664889587760687 L-39.229740236417015,8.111781667183262 L-39.33612794464331,7.557116365070051 L-39.43467370202998,7.001004258088855 L-39.52535786274483,6.443556211338825 L-39.60816234822356,5.884883356248672 L-39.683070650773956,5.325097068421794 L-39.750067836866826,4.764308945432713 L-39.809140550113085,4.202630784579274 L-39.86027701392645,3.6401745605949998 L-39.90346703387118,3.0770524033261246 L-39.938701999694466,2.5133765753776363 L-39.96597488704287,1.9492594497329172 L-39.98528025886275,1.3848134873513285 L-39.99661426648416,0.8201512147482983 L-39.99997465038807,0.2553852015623086 L-39.99536074065687,-0.3093719618867006 L-39.98277345710791,-0.8740076870430542 L-39.96221530911011,-1.438409409560693 L-39.9336903950837,-2.002464611743747 L-39.897204401683204,-2.566060844977752 L-39.852764602663726,-3.1290857521471303 L-39.800379857430876,-3.6914270900344235 L-39.7400606092746,-4.252972751696804 L-39.67181888328722,-4.813610788815444 L-39.59566828396614,-5.373229434013243 L-39.511623992501704,-5.9317171231364885 L-39.419702763750685,-6.488962517495995 L-39.3199229228961,-7.044854526063318 L-39.212304361793954,-7.599282327617575 L-39.096868535007616,-8.152135392838467 L-38.97363845553074,-8.703303506341143 L-38.842638690199415,-9.252676788648465 L-38.703895354794575,-9.80014571809626 L-38.557436108835695,-10.345601152667353 L-38.403290150066546,-10.888934351749757 L-38.24148820863453,-11.430036997815003 L-38.07206254096428,-11.96880121801199 L-37.89504692332718,-12.505119605672286 L-37.7104766451078,-13.038885241722417 L-37.518388501768676,-13.569991715999002 L-37.318820787514824,-14.098333148462398 L-37.11181328765962,-14.623804210304703 L-36.89740727069318,-15.146300144947801 L-36.67564548005523,-15.6657167889274 L-36.446572125613876,-16.18195059265878 L-36.210232874852075,-16.694898641080183 L-35.9666748437634,-17.2044586741697 L-35.71594658745918,-17.710529107331556 L-35.458098090488654,-18.213009051647763 L-35.193180756874206,-18.711798333991105 L-34.921247399863496,-19.206797516995348 L-34.6423522314009,-19.697907918878876 L-34.356550851319795,-20.185031633117585 L-34.06390023625843,-20.668071547963336 L-33.76445872830117,-21.146931365803862 L-33.45828602334754,-21.621515622360434 L-33.14544315921144,-22.091729705719384 L-32.825992503452774,-22.557479875193685 L-32.499997740944046,-23.01867328001086 L-32.16752386117426,-23.47521797782347 L-31.828637145292824,-23.92702295303852 L-31.483405152895866,-24.373998134962093 L-31.131896708557775,-24.81605441575561 L-30.774181888110455,-25.253103668200133 L-30.410332004673215,-25.685058763265218 L-30.040419594435974,-26.111833587478706 L-29.664518402198603,-26.53334306009409 L-29.282703366669352,-26.94950315005201 L-28.895050605525313,-27.360230892732467 L-28.501637400237705,-27.765444406494417 L-28.102542180665296,-28.165062908999534 L-27.697844509418825,-28.55900673331673 L-27.287625065999556,-28.947197343804376 L-26.87196563071528,-29.32955735176695 L-26.450949068376755,-29.70601053088306 L-26.024659311778002,-30.076481832401754 L-25.593181344963657,-30.440897400103985 L-25.15660118628682,-30.799184585026488 L-24.7150058712606,-31.1512719599448 L-24.26848343520696,-31.497089333612895 L-23.81712289570619,-31.83656776475626 L-23.361014234850664,-32.16963957581591 L-22.900248381306135,-32.49623836644037 L-22.4349171921845,-32.81629902672312 L-21.965113434731393,-33.12975775018271 L-21.49093076783229,-33.43655204648309 L-21.012463723340986,-33.736620753891465 L-20.529807687233898,-34.02990405147142 L-20.043058880594202,-34.316343471008615 L-19.55231434042941,-34.59588190866689 L-19.057671900326355,-34.86846363637232 L-18.559230170947306,-35.13403431292303 L-18.057088520371206,-35.39254099482253 L-17.5513470542839,-35.64393214683438 L-17.042106596021334,-35.88815765225613 L-16.529468666469647,-36.12516882291047 L-16.013535463826244,-36.35491840885155 L-15.494409843225812,-36.577360607784655 L-14.972195296235384,-36.792451074197196 L-14.44699593022253,-37.000146928199335 L-13.918916447600763,-37.200406764072405 L-13.388062124956342,-37.393190658523444 L-12.854538792060595,-37.57846017864426 L-12.31845281077196,-37.75617838957319 L-11.779911053831965,-37.92630986185849 L-11.239020883559341,-38.088820678521344 L-10.695890130446534,-38.24367844181753 L-10.150627071662917,-38.39085227969614 L-9.603340409468915,-38.53031285195412 L-9.054139249545383,-38.66203235608553 L-8.503133079242586,-38.785984532824095 L-7.950431745753098,-38.90214467137827 L-7.396145434212915,-39.010489614357425 L-6.84038464573524,-39.11099776238856 L-6.283260175381242,-39.20364907842219 L-5.724883090072279,-39.28842509172694 L-5.165364706447837,-39.36530890157184 L-4.604816568673726,-39.43428518059555 L-4.043350426204949,-39.49534017786204 L-3.4810782115075956,-39.54846172160192 L-2.918112017744251,-39.59363922163894 L-2.354564076427433,-39.630863671501295 L-1.7905467350453588,-39.66012765021708 L-1.226172434664658,-39.68142532379371 L-0.6615536875144024,-39.69475244638101 L-0.0968030545559504,-39.700106361117605 L0.4679668769569201,-39.69748600066065 L1.0326435159231266,-39.686891887398566 L1.5971142898401425,-39.66832613334689 L2.1612666672461724,-39.64179243972725 L2.7249881801541544,-39.607296096229526 L3.2881664464730793,-39.56484397995725 L3.850689192412185,-39.51444455405666 L4.412444274863601,-39.45610786602946 L4.973319703758904,-39.389845545729834 L5.533203664395163,-39.31567080304586 L6.091984539726058,-39.23359842526613 L6.6495509326135505,-39.143644774131715 L7.205791688035735,-39.045827782574335 L7.760595915246437,-38.94016695114133 L8.313853009882106,-38.82668334410807 L8.865452676011609,-38.70539958527862 L9.415284948124558,-38.57633985347551 L9.963240213053762,-38.43952987771954 L10.509209231827404,-38.294996932100474 L11.053083161446683,-38.142769830339766 L11.594753576584438,-37.98287892004631 L12.134112491200582,-37.815356076666454 L12.671052380069913,-37.64023469712936 L13.205466200218043,-37.45754969318907 L13.737247412261251,-37.26733748446462 L14.266290001645899,-37.0696359911795 L14.792488499783206,-36.864484626601964 L15.315738005075206,-36.651924289187725 L15.835934203827673,-36.431997354426514 L16.352973391045825,-36.204747666394226 L16.8667524911087,-35.97022052901229 L17.37716907831803,-35.72846269701597 L17.88412139731759,-35.47952236663347 L18.387508383378876,-35.223449165977655 L18.887229682549112,-34.960294145152304 L19.38318567165757,-34.690109766074926 L19.875277478176187,-34.41294989201804 L20.363406999930525,-34.12886977687118 L20.847476924657204,-33.837926054125546 L21.327390749403804,-33.540176725583784 L21.803052799767457,-33.23568114979683 L22.27436824896825,-32.92450003023038 L22.74124313675365,-32.60669540316313 L23.203584388130192,-32.28233062531949 L23.661299831918665,-31.95147036123886 L24.114298219129125,-31.614180570384317 L24.562489241152065,-31.270528493993076 L25.005783547762093,-30.920582641671444 L25.444092764930613,-30.564412777736973 L25.877329512443794,-30.20208990731036 L26.30540742132249,-29.833686262160064 L26.728241151040546,-29.459275286302393 L27.145746406538063,-29.078931621359843 L27.557839955026253,-28.69273109168077 L27.964439642580494,-28.300750689223232 L28.365464410518364,-27.903068558206062 L28.76083431155927,-27.49976397953024 L29.150470525762536,-27.090917354973634 L29.534295376240756,-26.676610191162354 L29.91223234464525,-26.25692508332172 L30.28420608642059,-25.831945698810387 L30.650142445825068,-25.401756760440545 L31.009968470714217,-24.96644402958782 L31.363612427084362,-24.526094289094136 L31.71100381337333,-24.080795325966882 L32.05207337451546,-23.63063591387791 L32.386753115748114,-23.17570579546583 L32.714976316166954,-22.716095664445213 L33.03667754202721,-22.25189714752601 L33.35179265978849,-21.783202786147214 L33.66025884890011,-21.310106018027902 L33.96201461432503,-20.83270115853986 L34.256999798799185,-20.351083381904978 L34.54515559482441,-19.865348702221663 L34.826424556392055,-19.375593954323655 L35.100750610435355,-18.881916774475314 L35.36807906800796,-18.384415580907064 L35.62835663518659,-17.88318955419501 L35.88153142369564,-17.378338617488566 L36.127552961251396,-16.869963416589982 L36.36637220162414,-16.358165299889876 L36.59794153441583,-15.843046298162712 L36.82221479455163,-15.324709104226145 L37.03914727148323,-14.803257052468457 L37.248695718102255,-14.27879409824811 L37.450818359361875,-13.75142479716943 L37.64547490060498,-13.221254284238682 L37.83262653559723,-12.688388252904629 L38.012235954263346,-12.152932933987728 L38.18426735012519,-11.614995074502259 L38.34868642744001,-11.07468191637549 L38.50546040803758,-10.532101175068195 L38.654558037854756,-9.987361018100783 L38.79594959316623,-9.440570043489295 L38.92960688651014,-8.891837258095569 L39.055503272307504,-8.34127205589592 L39.17361365217417,-7.788984196172629 L39.28391447992436,-7.235083781632616 L39.38638376626484,-6.6796812364576255 L39.48100108317856,-6.122887284290369 L39.567747567997216,-5.5648129261609345 L39.646605927161616,-5.005569418357863 L39.71756043966928,-4.445268250248448 L39.78059696020856,-3.8840211220524274 L39.83570292197862,-3.3219399225737583 L39.882867339194675,-2.7591367068947363 L39.92208080927814,-2.195723674036966 L39.95333551473108,-1.6318131445936572 L39.97662522469469,-1.0675175383376878 L39.991945296191446,-0.5029493518098693 L39.99929267505078,0.06177886410808853 L39.99866589651786,0.6265545266314057 L39.99006508554567,1.1912650435164718 L39.97349195677007,1.755797835506952 L39.94894981416797,2.320040358777291 L39.916443550398675,2.883880127369167 L39.8759796458285,3.447204735616415 L39.8275661672388,4.009901880553924 L39.77121276621789,4.571859384306084 L39.70693067723687,5.132965216450266 L39.634732715409946,5.69310751635094 L39.554633273939665,6.252174615459921 L39.46664832124753,6.810055059578318 L39.37079539779055,7.366637631075786 L39.26709361256441,7.9218113710625495 L39.155563639294,8.47546560150993 L39.03622771231192,9.02748994731481 L38.90910962212587,9.577774358303738 L38.77423471067592,10.126209131172264 L38.63162986628231,10.67268493135508 L38.48132351828512,11.217092814822736 L38.323345631376675,11.759324249800384 L38.1577276996278,12.299271138404443 L37.98450274020931,12.836825838192699 L37.80370528680975,13.371881183623632 L37.61537138275088,13.90433050742067 L37.41953857380212,14.4340676618371 L37.21624590069554,14.960987039817418 L37.005533891342864,15.484983596050888 L36.78744455275581,16.005952867913095 L36.56202136267178,16.523790996291375 L36.329309260886184,17.03839474628987 L36.0893546402934,17.549661527810198 L35.842205337637985,18.057489416003552 L35.587910623978054,18.56177717159017 L35.32652119486273,19.062424261042157 L35.05808916022564,19.55933087662558 L34.78266803399636,20.052397956297884 L34.50031272343205,20.541527203456663 L34.211079518171275,21.026621106535806 L33.91502607901223,21.50758295844517 L33.61221142641765,21.98431687584984 L33.30269592874865,22.456727818285223 L32.986541290229766,22.924721607104026 L32.66381053864789,23.388204944251516 L32.334568012787074,23.847085430865153 L31.9988793496022,24.301271585695016 L31.656811471133746,24.750672863341254 L31.30843257116635,25.19519967230499 L30.953812101633886,25.634763392849077 L30.593020758773733,26.069276394665074 L30.226130469032913,26.49865205434302 L29.853214374728992,26.922804772640447 L29.47434681946872,27.34164999154724 L29.08960333332695,27.7551042111429 L28.699060617789236,28.163085006242873 L28.30279653046079,28.565511042830643 L27.900890069545,28.962302094272225 L27.493421358094537,29.353379057310043 L27.080471628038218,29.738663967832625 L26.662123203986855,30.11808001641745 L26.238459486821178,30.491551563643398 L25.809564937065286,30.85900415517007 L25.375525058048773,31.220364536580803 L24.936426378861064,31.575560667986522 L24.492356437101105,31.924521738387348 L24.043403761426184,32.26717817978938 L23.589657853903013,32.603461681073576 L23.13120917216486,32.93330520161403 L22.668149111378114,33.256642984643115 L22.200569986022025,33.57341057036049 L21.728565011485067,33.88354480878369 L21.252228285481785,34.186983872337585 L20.771654769293733,34.483667268180064 L20.28694026883818,34.773535850261844 L19.79818141556852,35.0565318311176 L19.305475647210095,35.33259879338639 L18.808921188335198,35.60168170105879 L18.308617030781306,35.86372691044884 L17.804662913916328,36.118682180888214 L17.29715930475479,36.36649668514088 L16.786207377929006,36.6071210195358 L16.271908995519155,36.84050721381598 " />

        </g>
        </g>
    </svg>
    