<?xml version="1.0" encoding="UTF-8" standalone="no"?>
    <svg
    xmlns:svg="http://www.w3.org/2000/svg"
    xmlns="http://www.w3.org/2000/svg"
    width="408"
    height="211"
    >
        <g transform="scale(4, -4)   translate(53.723031517782815,-27.876498055023628)" stroke-width="0.25"  fill="none">
        <!-- hidden lines -->
        <g  stroke="rgb(160,160,160)" fill="none" stroke-dasharray="0.25,0.25" >
    			<path d="M2.118690223517225,6.654951337271271 L2.118690223517225,7.556043319465603 " />
			<path d="M-17.0978947421003,4.251429063367158 L-17.0978947421003,5.152521045561491 " />
			<path d="M2.118690223517225,6.654951337271271 L-17.0978947421003,4.251429063367156 " />
			<path d="M-17.0978947421003,4.251429063367158 L-21.905963616117305,-4.166791205088496 " />
			<path d="M11.719137441100749,-7.777966925735928 L11.719137441100749,-6.876874943541596 " />
			<path d="M-1.212029562483277,-9.395337961031602 L11.719137441100749,-7.777966925735928 " />
			<path d="M-1.212029562483277,-8.49424597883727 L11.719137441100749,-6.876874943541596 " />
			<path d="M11.719137441100749,-7.777966925735928 L14.971587405448096,-2.083406192638174 " />
			<path d="M11.719137441100749,-6.876874943541596 L14.518852540103868,-1.9749862622676693 " />
			<path d="M16.52720631511775,0.6402533427197339 L2.1186902235172234,6.654951337271273 " />
			<path d="M31.98722225325165,13.856570993646212 L31.98722225325165,17.460938922423544 " />
			<path d="M31.98722225325165,13.856570993646212 L17.847644026701097,13.739952005955864 " />
			<path d="M32.25616011830163,7.725254011404322 L32.25616011830163,11.329621940181653 " />
			<path d="M26.430813069870048,7.677208301352136 L32.25616011830163,7.7252540114043216 " />
			<path d="M26.430813069870048,11.281576230129467 L32.25616011830163,11.329621940181653 " />
			<path d="M32.25616011830163,7.725254011404322 L31.98722225325165,13.856570993646216 " />
			<path d="M32.25616011830163,11.329621940181653 L32.151056364088895,13.725805285290681 " />
			<path d="M-16.546430614031376,19.068854179663294 L-16.546430614031376,25.376498055023625 " />
			<path d="M-16.546430614031376,19.068854179663294 L-23.383312704133818,13.7006684205417 " />
			<path d="M-4.166727738516293,16.104190694445816 L-16.54643061403138,19.068854179663298 " />
			<path d="M-37.63491741930118,-0.15907741386685492 L-35.18066747588721,0.4826458099896156 " />
			<path d="M-39.1122665073177,6.615667751857112 L-39.1122665073177,15.626587573800437 " />
			<path d="M-31.809570370869594,1.3641009804258664 L-39.1122665073177,6.615667751857113 " />
			<path d="M-39.1122665073177,6.615667751857112 L-51.223031517782815,3.449014254832701 " />
			<path d="M-23.49533919275063,-11.135172886082744 L-23.49533919275063,0.5790228824435797 " />
			<path d="M-23.226401327700657,-17.266489868324634 L-23.49533919275063,-11.135172886082742 " />
			<path d="M-23.49533919275063,-11.135172886082744 L-37.63491741930118,-11.25179187377309 " />
			<path d="M5.624852527619176,-14.262542797692994 L5.624852527619176,0.15492891741632775 " />
			<path d="M18.00455540313426,-17.227206282910476 L5.624852527619179,-14.262542797692994 " />
			<path d="M5.624852527619176,-14.262542797692994 L-1.2120295624832762,-19.63072855681459 " />
			<path d="M38.54157808033515,-1.7239853457702203 L38.54157808033515,15.3967623159221 " />
			<path d="M45.84427421678325,-6.975552117201463 L38.54157808033514,-1.7239853457702177 " />
			<path d="M38.54157808033515,-1.7239853457702203 L26.430813069870045,-4.8906388427946315 " />

        </g>

        <!-- solid lines -->
        <g  stroke="rgb(0,0,0)" fill="none">
    			<path d="M2.118690223517225,7.556043319465603 L-17.0978947421003,5.152521045561488 " />
			<path d="M-21.905963616117308,-4.166791205088496 L-21.905963616117308,-3.2656992228941637 " />
			<path d="M-17.0978947421003,5.152521045561491 L-21.905963616117305,-3.2656992228941633 " />
			<path d="M-7.497447524516784,-10.181489199640042 L-7.497447524516784,-9.28039721744571 " />
			<path d="M-21.905963616117308,-4.166791205088496 L-7.497447524516785,-10.18148919964004 " />
			<path d="M-21.905963616117308,-3.2656992228941637 L-7.497447524516785,-9.280397217445708 " />
			<path d="M-7.497447524516784,-10.181489199640042 L-1.212029562483277,-9.395337961031602 " />
			<path d="M-7.497447524516784,-9.28039721744571 L-1.212029562483277,-8.49424597883727 " />
			<path d="M16.52720631511775,0.6402533427197339 L16.52720631511775,1.5413453249140665 " />
			<path d="M14.971587405448096,-2.083406192638174 L16.52720631511775,0.6402533427197348 " />
			<path d="M14.518852540103868,-1.9749862622676693 L16.52720631511775,1.541345324914067 " />
			<path d="M16.52720631511775,1.5413453249140665 L2.1186902235172234,7.556043319465605 " />
			<path d="M17.8476440267011,13.739952005955866 L17.8476440267011,17.344319934733196 " />
			<path d="M31.98722225325165,17.460938922423544 L17.847644026701097,17.344319934733196 " />
			<path d="M18.11658189175108,7.608635023713974 L18.11658189175108,11.213002952491305 " />
			<path d="M17.8476440267011,13.739952005955866 L18.11658189175108,7.608635023713975 " />
			<path d="M17.8476440267011,17.344319934733196 L18.11658189175108,11.213002952491305 " />
			<path d="M18.11658189175108,7.608635023713974 L26.430813069870048,7.677208301352136 " />
			<path d="M18.11658189175108,11.213002952491305 L26.430813069870048,11.281576230129467 " />
			<path d="M32.151056364088895,13.725805285290681 L31.98722225325165,17.460938922423544 " />
			<path d="M-23.38331270413382,13.700668420541703 L-23.38331270413382,20.00831229590203 " />
			<path d="M-16.546430614031376,25.376498055023625 L-23.383312704133818,20.00831229590203 " />
			<path d="M-11.003609828618739,10.736004935324223 L-11.003609828618739,17.04364881068455 " />
			<path d="M-23.38331270413382,13.700668420541703 L-11.003609828618737,10.736004935324223 " />
			<path d="M-23.38331270413382,20.00831229590203 L-11.003609828618737,17.04364881068455 " />
			<path d="M-4.166727738516293,16.104190694445816 L-4.166727738516293,22.411834569806146 " />
			<path d="M-11.003609828618739,10.736004935324223 L-4.166727738516292,16.104190694445816 " />
			<path d="M-11.003609828618739,17.04364881068455 L-4.166727738516292,22.411834569806146 " />
			<path d="M-4.166727738516293,22.411834569806146 L-16.54643061403138,25.376498055023628 " />
			<path d="M-51.22303151778281,3.4490142548327025 L-51.22303151778281,12.459934076776028 " />
			<path d="M-43.9203353813347,-1.8025525165985439 L-43.9203353813347,7.208367305344781 " />
			<path d="M-51.22303151778281,3.4490142548327025 L-43.9203353813347,-1.8025525165985439 " />
			<path d="M-51.22303151778281,12.459934076776028 L-43.9203353813347,7.208367305344781 " />
			<path d="M-31.809570370869594,1.3641009804258664 L-31.809570370869594,10.375020802369193 " />
			<path d="M-43.9203353813347,-1.8025525165985439 L-37.63491741930118,-0.15907741386685492 " />
			<path d="M-35.18066747588721,0.4826458099896156 L-31.809570370869594,1.364100980425866 " />
			<path d="M-43.9203353813347,7.208367305344781 L-31.809570370869594,10.37502080236919 " />
			<path d="M-31.809570370869594,10.375020802369193 L-39.1122665073177,15.626587573800439 " />
			<path d="M-39.1122665073177,15.626587573800435 L-51.223031517782815,12.459934076776024 " />
			<path d="M-37.36597955425121,-17.383108856014978 L-37.36597955425121,-5.668913087488654 " />
			<path d="M-23.226401327700657,-17.266489868324634 L-23.226401327700657,-5.55229409979831 " />
			<path d="M-37.36597955425121,-17.383108856014978 L-23.226401327700657,-17.26648986832463 " />
			<path d="M-37.36597955425121,-5.668913087488656 L-23.226401327700657,-5.552294099798309 " />
			<path d="M-23.226401327700657,-5.55229409979831 L-23.49533919275063,0.5790228824435806 " />
			<path d="M-37.63491741930118,-11.25179187377309 L-37.63491741930118,0.4624038947532334 " />
			<path d="M-23.49533919275063,0.5790228824435797 L-37.63491741930118,0.4624038947532334 " />
			<path d="M-37.63491741930118,-11.25179187377309 L-37.365979554251204,-17.38310885601498 " />
			<path d="M-37.63491741930118,0.4624038947532334 L-37.365979554251204,-5.668913087488659 " />
			<path d="M11.167673313031806,-22.595392042032067 L11.167673313031806,-8.177920326922745 " />
			<path d="M18.00455540313426,-17.227206282910476 L18.00455540313426,-2.8097345678011543 " />
			<path d="M11.167673313031806,-22.595392042032067 L18.004555403134255,-17.227206282910473 " />
			<path d="M11.167673313031806,-8.177920326922745 L18.004555403134255,-2.8097345678011525 " />
			<path d="M18.00455540313426,-2.8097345678011543 L5.624852527619179,0.15492891741632775 " />
			<path d="M-1.212029562483277,-19.630728556814585 L-1.212029562483277,-5.213256841705263 " />
			<path d="M5.624852527619176,0.15492891741632775 L-1.2120295624832762,-5.213256841705265 " />
			<path d="M-1.212029562483277,-19.630728556814585 L11.167673313031806,-22.595392042032067 " />
			<path d="M-1.212029562483277,-5.213256841705263 L11.167673313031806,-8.177920326922745 " />
			<path d="M45.84427421678325,-6.975552117201463 L45.84427421678325,10.145195544490857 " />
			<path d="M45.84427421678325,10.145195544490857 L38.54157808033514,15.396762315922103 " />
			<path d="M26.430813069870048,-4.890638842794632 L26.430813069870048,12.230108818897687 " />
			<path d="M38.54157808033515,15.3967623159221 L26.430813069870045,12.230108818897689 " />
			<path d="M33.73350920631815,-10.142205614225878 L33.73350920631815,6.978542047466442 " />
			<path d="M26.430813069870048,-4.890638842794632 L33.73350920631815,-10.14220561422588 " />
			<path d="M26.430813069870048,12.230108818897687 L33.73350920631815,6.978542047466441 " />
			<path d="M33.73350920631815,-10.142205614225878 L45.84427421678326,-6.975552117201465 " />
			<path d="M33.73350920631815,6.978542047466442 L45.84427421678326,10.145195544490855 " />

        </g>
        </g>
    </svg>
    