<?xml version="1.0" encoding="UTF-8" standalone="no"?>
    <svg
    xmlns:svg="http://www.w3.org/2000/svg"
    xmlns="http://www.w3.org/2000/svg"
    width="472"
    height="291"
    >
        <g transform="scale(4, -4)   translate(59.068542495165346,-37.19529710528246)" stroke-width="0.25"  fill="none">
        <!-- hidden lines -->
        <g  stroke="rgb(160,160,160)" fill="none" stroke-dasharray="0.25,0.25" >
    			<path d="M-16.787378931908492,15.901257237991286 L-3.381401825208741e-10,22.855326809621396 " />
			<path d="M17.867364046316922,15.453879975799905 L-3.381472879482317e-10,22.855326809621396 " />
			<path d="M18.856180831367535,7.233210469432792 L18.473207241013217,7.388696354319533 L18.08276355248415,7.540960770111759 L17.68500765134114,7.689942144927578 L17.280100380018983,7.835580234463894 L16.868205472785846,7.9778161463577 L16.44948948953328,8.116592364000649 L16.024121748423607,8.251852769797317 L15.592274257421924,8.383542667857748 L15.154121644740444,8.511608806115076 L14.709841088223243,8.635999397859337 L14.259612243700037,8.75666414267868 L13.803617172337875,8.873554246799603 L13.342040267020238,8.986622442817913 L12.875068177783204,9.095823008812465 L12.402889736338876,9.201111786833964 L11.925695879716615,9.302446200761318 L11.443679573052954,9.399785273518336 L10.95703573156135,9.49308964364384 L10.465961141713393,9.58232158120843 L9.970654381663346,9.66744500307152 L9.47131574094815,9.748425487472456 L8.968147139495406,9.825230287949784 L8.461352045972042,9.897828346583118 L7.951135395506727,9.96619030655216 L7.43770350681931,10.030288524007867 L6.921263998790724,10.090097079250908 L6.40202570650714,10.145591787212961 L5.880198596812364,10.196750207236526 L5.355993683402547,10.24355165214936 L4.829622941497575,10.285977196629851 L4.3012992221236335,10.324009684859941 L3.7712361660416995,10.357633737462503 " />
			<path d="M3.771236166041641,10.357633737462507 L3.1751169995938135,10.390074467198966 L2.5773837728197284,10.416939689628563 L1.9783403414472394,10.438215747903477 L1.3782912272424168,10.453891826409178 L0.7775414632069216,10.463959956262507 L0.17639643851544365,10.468415019362633 L-0.4248382567278677,10.467254750992819 L-1.025856986835114,10.460479740971694 L-1.6263542259035837,10.44809343335341 L-2.226024713128827,10.43010212467687 L-2.8245636079829675,10.406514960764904 L-3.4216666451794215,10.377343932075027 L-4.017030289345142,10.342603867604117 L-4.610351889321815,10.302312427350152 L-5.201329832017619,10.256490093334802 L-5.789663695731231,10.20516015919147 L-6.375054402870208,10.148348718324034 L-6.957204371986112,10.086084650642364 L-7.535817669049073,10.018399607881314 L-8.110600157884877,9.945327997510654 L-8.681259649698102,9.86690696524416 L-9.247506051605377,9.783176376156707 L-9.80905151410313,9.694178794418978 L-10.36561057739492,9.59995946166013 L-10.916900316504027,9.500566273969337 L-11.462640485097417,9.396049757547985 L-12.00255365794803,9.286463043024836 L-12.536365371963036,9.171861838447247 L-13.063804265706196,9.052304400962173 L-13.584602217343575,8.92785150720133 L-14.09849448094243,8.798566422385594 L-14.605219821053893,8.66451486816434 L-15.104520645511176,8.525764989206044 L-15.596143136375703,8.382387318557182 L-16.079837378964623,8.234454741786973 L-16.555357488894156,8.082042459936236 L-17.022461737074046,7.9252279512892 L-17.480912672589803,7.7640909319876705 L-17.930477243410095,7.598713315507574 L-18.370926914857968,7.429179171018529 L-18.802037785785693,7.25557468064755 L-19.22359070239422,7.077988095668648 L-19.635371369639245,6.896509691640583 L-20.037170460167427,6.711231722515586 L-20.42878372072726,6.522248373742346 L-20.81001207600053,6.32965571438717 L-20.996671143918217,6.232036417877175 L-21.180661729801596,6.13355164829758 L-21.361960450154804,6.034213922148566 L-21.540544263593087,5.934035864333191 L-21.716390473771185,5.833030206552857 L-21.889476732267795,5.731209785689241 L-22.059781041425854,5.628587542172857 L-22.227281757148248,5.525176518338425 L-22.391957591648573,5.4209898567673225 L-22.553787616156594,5.316040798617295 L-22.712751263578127,5.21034268193961 L-22.86882833110892,5.103908939983921 L-23.021998982802213,4.996753099491032 L-23.17224375208974,4.888888778973768 L-23.319543544255747,4.780329686986182 L-23.463879638863705,4.671089620381347 L-23.605233692135563,4.561182462557879 L-23.743587739283054,4.450622181695495 L-23.878924196790827,4.339422828979804 L-24.01122586465117,4.227598536816498 L-24.140475928549996,4.115163517035279 L-24.266657962003723,4.002132059083671 L-24.38975592844699,3.8885185282109402 L-24.50975418327073,3.774337363642422 L-24.626637475810426,3.6596030767444363 L-24.740390951284397,3.544330249180005 L-24.851000152681642,3.428533531055673 L-24.95845102259921,3.312227639059624 L-25.062729905028778,3.1954273545913026 L-25.163823547092196,3.0781475218828485 L-25.26171910072579,2.960403046112545 L-25.35640412431326,2.8422088915104826 L-25.44786658426687,2.723580079456759 L-25.536094856556804,2.6045316865724124 L-25.621077728188503,2.485078842803299 L-25.702804398627666,2.3652367294972714 " />
			<path d="M25.857706501257347,2.1223784879167407 L25.74436722074217,2.3022251608384 L25.62373891082186,2.481256395742246 L25.495855725114982,2.659421503328967 L25.360753871320597,2.836670039526778 L25.21847160096676,3.012951819773702 L25.06904919858032,3.188216933226376 L24.912528970281116,3.3624157568913637 L24.748955231803798,3.535498969674963 L24.578374295950674,3.7074175663475355 L24.400834459479118,3.878122871418414 L24.216385989427252,4.047566552917439 L24.025081108881803,4.2157006360792435 L23.826973982192104,4.3824775169263965 L23.622120699634504,4.5478499757475666 L23.410579261531463,4.7117711904668855 L23.19240956182985,4.874194749900738 L22.967673371143142,5.035074666898201 L22.73643431926219,5.194365391361436 L22.498757877139717,5.352021823142337 L22.2547113383534,5.507999324811779 L22.004363800053003,5.662253734297864 L21.747786143396816,5.814741377389572 L21.485051013483016,5.965419080102283 L21.216232798781558,6.114244180901676 L20.941407610072517,6.261174542782532 L20.660653258896744,6.40616856519903 L20.37404923552501,6.549185195843146 L20.08167668645186,6.690183942267844 L19.783618391420493,6.829124883351741 L19.479958739985257,6.965968680602018 L19.17078370761836,7.100676589292356 L18.856180831367556,7.233210469432784 " />
			<path d="M-56.56854249516533,-9.679506774019815 L-3.381401825208741e-10,13.753667736323118 " />
			<path d="M-3.381366298071953e-10,13.753667736323116 L-3.381366298071953e-10,22.855326809621392 " />
			<path d="M56.568542494682276,-9.679506773939773 L-3.381472879482317e-10,13.753667736323118 " />
			<path d="M3.7712361660416445,10.35763373746251 L1.178511301721961,34.695297005282455 " />

        </g>

        <!-- solid lines -->
        <g  stroke="rgb(0,0,0)" fill="none">
    			<path d="M-1.4491874367195123e-10,-33.1126812842827 L-1.4491874367195123e-10,-24.011022210984425 " />
			<path d="M-1.4491874367195123e-10,-24.01102221098443 L-56.568542495165346,-0.5778477007215379 " />
			<path d="M-56.56854249516533,-9.679506774019815 L-56.56854249516533,-0.5778477007215397 " />
			<path d="M-1.4491874367195123e-10,-33.1126812842827 L-56.568542495165346,-9.67950677401981 " />
			<path d="M-1.4491874367195123e-10,-33.1126812842827 L56.568542494682276,-9.679506773939767 " />
			<path d="M56.568542494682276,-9.679506773939773 L56.568542494682276,-0.577847700641497 " />
			<path d="M-1.4491874367195123e-10,-24.01102221098443 L56.568542494682276,-0.5778477006414953 " />
			<path d="M-56.56854249516533,-0.5778477007215397 L-16.787378931908492,15.901257237991286 " />
			<path d="M56.568542494682276,-0.577847700641497 L17.867364046316922,15.453879975799905 " />
			<path d="M-25.7028043986277,2.3652367294972243 L-25.792056068571497,2.2280534139404153 L-25.877041053941547,2.0904059285256666 L-25.957745295985603,1.9523170437680961 L-26.03415544409899,1.813809603201885 L-26.106258858033115,1.6749065196013553 L-26.174043609986523,1.5356307711905965 L-26.237498486578055,1.3960053978422606 L-26.29661299070185,1.2560534972661659 L-26.35137734326382,1.1157982211883144 L-26.401782484799394,0.9752627715209974 L-26.447820076972178,0.8344703965245979 L-26.489482503953337,0.693444386961702 L-26.52676287368145,0.5522080722441993 L-26.559655019002648,0.4107848165739848 L-26.58815349869081,0.26919801507790386 L-26.61225359834771,0.12747108993758482 L-26.63195133118287,-0.014372513485207516 L-26.64724343867309,-0.15630933052705126 L-26.658127391101523,-0.29831588110453916 L-26.66460138797611,-0.4403686735985033 L-26.66666435832746,-0.582444208740146 L-26.664315960886007,-0.7245189834984376 L-26.65755658413847,-0.8665694949681355 L-26.646387346263573,-1.008572244257779 L-26.630810094947094,-1.1505037403770375 L-26.610827407076172,-1.2923405041227298 L-26.586442588313066,-1.4340590719628914 L-26.557659672548276,-1.5756359999182747 L-26.52448342123325,-1.7170478674405951 L-26.486919322592705,-1.858271281286906 L-26.444973590716742,-1.9992828793894561 L-26.39865316453288,-2.1400593347203416 " />
			<path d="M-26.398653164532863,-2.1400593347203904 L-26.359400734709244,-2.2499315531939006 L-26.317483468651243,-2.3596347302813045 L-26.272905604036747,-2.4691577754041676 L-26.225671647520137,-2.5784896161947186 L-26.175786374276694,-2.6876191996152263 L-26.123254827519848,-2.796535493075418 L-26.068082317991315,-2.9052274855478277 L-26.01027442342422,-3.0136841886809913 L-25.949836987979193,-3.1218946379102963 L-25.886776121653565,-3.2298478935664727 L-25.821098199663634,-3.3375330419815685 L-25.7528098618002,-3.444939196592251 L-25.681918011757283,-3.552055499040414 L-25.60842981643418,-3.6588711202709177 L-25.532352705210936,-3.7653752616263585 L-25.45369436919724,-3.8715571559387785 L-25.372462760454912,-3.9774060686181825 L-25.28866609119395,-4.082911298737766 L-25.202312832942322,-4.188062180115737 L-25.113411715689523,-4.29284808239363 L-25.021971727004015,-4.397258412110991 L-24.928002111124595,-4.5012826137763415 L-24.831512368025866,-4.604910170934289 L-24.732512252457795,-4.708130607228723 L-24.631011772959567,-4.810933487461906 L-24.527021190847766,-4.913308418649449 L-24.420551019178955,-5.015245051071014 L-24.311612021686887,-5.116733079316606 L-24.0863718509996,-5.318322329438126 L-23.85139176021892,-5.517994651415593 L-23.60676676935541,-5.715669302807888 L-23.352595798573496,-5.911266348981394 L-23.08898162819065,-6.104706695433544 L-22.81603085711562,-6.295912119776626 L-22.53385385974253,-6.484805303368967 L-22.242564741318258,-6.671309862580616 L-21.942281291801176,-6.855350379680949 L-21.633124938229855,-7.036852433335717 L-21.315220695621033,-7.215742628701129 L-20.988697116416713,-7.391948627102886 L-20.653686238500796,-7.56539917528811 L-20.310323531806308,-7.736024134238353 L-19.958747843534763,-7.903754507532059 L-19.59910134200988,-8.068522469244959 L-19.2315294591883,-8.230261391377159 L-18.856180831850594,-8.388905870795828 L-18.47320724149627,-8.544391755682572 L-18.082763552967204,-8.696656171474798 L-17.685007651824193,-8.845637546290616 L-17.280100380502034,-8.991275635826932 L-16.868205473268894,-9.13351154772074 L-16.449489490016326,-9.27228776536369 L-16.024121748906666,-9.407548171160352 L-15.592274257904982,-9.539238069220783 L-15.1541216452235,-9.667304207478113 L-14.709841088706316,-9.791694799222368 L-14.259612244183103,-9.912359544041713 L-13.803617172820942,-10.029249648162637 L-13.342040267503306,-10.142317844180946 L-12.875068178266268,-10.2515184101755 L-12.402889736821935,-10.356807188197001 L-11.925695880199674,-10.458141602124353 L-11.443679573536011,-10.555480674881373 L-10.957035732044401,-10.648785045006877 L-10.465961142196441,-10.738016982571468 L-9.970654382146392,-10.82314040443456 L-9.471315741431196,-10.904120888835495 L-8.968147139978448,-10.980925689312825 L-8.4613520464551,-11.053523747946155 L-7.951135395989786,-11.121885707915197 L-7.43770350730237,-11.185983925370902 L-6.921263999273799,-11.245792480613941 L-6.4020257069902105,-11.301287188575998 L-5.8801985972954345,-11.352445608599561 L-5.355993683885617,-11.399247053512395 L-4.82962294198064,-11.441672597992886 L-4.3012992226066915,-11.479705086222978 L-3.7712361665249348,-11.51332913882553 " />
			<path d="M-3.7712361665247003,-11.513329138825544 L-3.3883639436474216,-11.534815385229619 L-3.004780411372843,-11.554001467244522 L-2.6205660942773235,-11.570883357191803 L-2.235801649356043,-11.58545751110536 L-1.8505678490909663,-11.597720869475408 L-1.4649455644944382,-11.607670857890756 L-1.0790157481321896,-11.615305387579248 L-0.6928594171292259,-11.62062285584625 L-0.30655763616206494,-11.623622146411098 L0.0798084995588867,-11.624302629641438 L0.46615788131336894,-11.622664162685405 L0.8524094038982566,-11.618707089501603 L1.238481982653716,-11.61243224078691 L1.624294570485047,-11.603840933802086 L2.009766174876738,-11.592934972095241 L2.3948158748949373,-11.579716645123225 L2.779362838174908,-11.564188727771016 L3.1633263378899974,-11.546354479769185 L3.546625769698365,-11.526217645009593 L3.9291806686639927,-11.503782450759452 L4.310910726148525,-11.479053606773904 L4.691735806670181,-11.452036304307313 L5.07157596472632,-11.422736215023482 L5.450351461576235,-11.391159489805021 L5.8279827819804515,-11.357312757462104 L6.204390650893108,-11.321203123340911 L6.57949605010401,-11.282838167832006 L6.953220234826636,-11.242225944779026 L7.325484750228769,-11.199374979787951 L7.696211447902353,-11.154294268437354 L8.065322502268936,-11.106993274389984 L8.432740426917354,-11.057481927406082 L8.798388090870283,-11.00577062125886 L9.16218873477609,-10.951870211552555 L9.524065987022643,-10.895792013443568 L9.883943879769863,-10.837547799265087 L10.241746864897388,-10.777149796055758 L10.597399829864178,-10.714610682992904 L10.950828113476708,-10.649943588730808 L11.301957521562356,-10.583162088644674 L11.650714342544706,-10.51428020198077 L11.99702536291769,-10.443312388913423 L12.340817882615049,-10.37027354750942 L12.682019730272037,-10.295179010600522 L13.020559278376199,-10.218044542564657 L13.356365458303891,-10.138886336016576 L13.68936777523947,-10.057721008408578 L14.019496322974117,-9.97456559854205 L14.34668179858104,-9.889437562990567 L14.670855516964,-9.80235477243529 L14.991949425276252,-9.713335507913403 L15.30989611720661,-9.622398456980447 L15.624628847129863,-9.529562709787298 L15.936081544118508,-9.43484775507262 L16.24418882581283,-9.33827347607165 L16.54888601214641,-9.239860146342176 L16.85010913892428,-9.13962842550855 L17.14779497125069,-9.037599354924682 L17.44188101680381,-8.93379435325691 L17.73230553895459,-8.828235211987618 L18.019007569726973,-8.720944090840613 L18.301926922596664,-8.61194351312922 L18.58100420512599,-8.50125636102799 L18.856180831431942,-8.388905870769147 L19.127399034484903,-8.27491562776467 L19.394601878235548,-8.159309561655064 L19.657733269567295,-8.042111941285874 L19.91673797007174,-7.923347369613004 L20.171561607644666,-7.803040778537906 L20.42215068790025,-7.68121742367368 L20.66845260540099,-7.55790287904324 L20.910415654701005,-7.433123031710641 L21.147989041200415,-7.306904076346663 L21.381122891808513,-7.17927250972985 L21.609768265413415,-7.050255125184145 L21.833877163156203,-6.919879006954206 L22.053402538507154,-6.78817152451971 L22.268298307142064,-6.655160326849758 L22.47851935661664,-6.520873336598592 L22.684021555836807,-6.385338744243876 L22.88476176432298,-6.24858500216878 L23.080697841266467,-6.110640818689021 L23.271788654375953,-5.971535152026225 L23.457994088512265,-5.831297204228813 L23.639275054109678,-5.689956415041679 L23.815593495381826,-5.547542455726004 L23.98691239831063,-5.404085222830475 L24.153195798416597,-5.259614831915161 L24.314408788308697,-5.114161611229449 L24.47051752501237,-4.967756095345335 L24.621489237074133,-4.820429018747358 L24.767292231441143,-4.672211309380625 L24.907895900114436,-4.5231340821582044 L25.043270726574384,-4.373228632429246 L25.173388291977023,-4.222526429409243 L25.29822128111991,-4.071059109573797 L25.41774348817636,-3.918858470017248 L25.531929822196737,-3.765956461777609 L25.64075631237572,-3.612385183129204 L25.74420011308444,-3.458176872844338 L25.842239508666367,-3.3033639034255184 L25.934853917996058,-3.1479787743095957 L26.02202389879967,-2.992054105045225 L26.103731151736422,-2.835622628445157 L26.179958524240106,-2.6787171837147516 L26.250690014119904,-2.5213707095581137 L26.315910772919665,-2.363616237263372 L26.375607109034995,-2.2054868837685304 L26.429766490587514,-2.0470158447092937 L26.478377548055626,-1.8882363874504238 L26.52143007666127,-1.7291818441020392 L26.55891503851222,-1.5698856045222727 L26.590824564499346,-1.4103811093078436 L26.617151955948575,-1.2507018427739816 L26.63789168602712,-1.0908813259251322 L26.653039400903708,-0.9309531094180094 L26.662591920662567,-0.7709507665184226 L26.66654723997098,-0.61090788605331 L26.664904528500255,-0.45085806535954276 L26.657664131100045,-0.29083490323094413 L26.64482756772593,-0.13087199286496254 L26.626397533120368,0.028997085189430893 L26.602377896246967,0.18873877008119022 L26.572773699478308,0.3483195277025557 L26.537591157537396,0.5077058577287616 L26.496837656193037,0.6668643006506532 L26.450521750709356,0.8257614447987718 L26.39865316404984,0.9843639333572549 " />
			<path d="M26.398653164049808,0.9843639333573548 L26.346859256526752,1.1278173221527041 L26.29052270776059,1.2709766256377648 L26.229653231118952,1.4138171607431047 L26.1642613215224,1.5563142993603178 L26.094358253634933,1.698443472588321 L26.01995607992004,1.8401801749694484 L25.941067628562653,1.9814999687146027 L25.857706501257347,2.1223784879167376 " />
			<path d="M4.714045207660738,33.23072359839102 L1.1785113017219615,34.695297005282455 " />
			<path d="M-26.39865316453286,-2.1400593347203882 L-13.438532647050216,21.374888516483743 " />
			<path d="M-13.438532647050216,21.374888516483743 L-8.249579114082572,30.789767920225295 " />
			<path d="M-8.249579114082572,30.7897679202253 L1.1785113017219615,34.695297005282455 " />
			<path d="M-3.7712361665247,-11.513329138825542 L-1.1785113022050195,27.860621106442437 " />
			<path d="M-1.1785113022050178,27.860621106442437 L-8.249579114082572,30.7897679202253 " />
			<path d="M26.39865316404981,0.9843639333573497 L19.285469052994266,13.048699133746965 " />
			<path d="M19.285469052994266,13.048699133746965 L8.249579113599513,31.76615019149959 " />
			<path d="M-1.17851130220502,27.860621106442437 L8.249579113599513,31.76615019149959 " />
			<path d="M8.249579113599514,31.76615019149959 L4.714045207660738,33.23072359839102 " />
			<path d="M-25.702804391829567,2.3652367266886554 L-24.319634995019587,4.440281396565048 L-22.943738989435758,6.509600891126739 L-21.5774192975751,8.571227939910415 L-20.224094772360647,10.622145688510868 L-19.30961795998729,12.01473317509729 L-18.40605898576247,13.397804262560982 L-17.516989562966344,14.767838127787416 L-16.64775388201496,16.119320438439182 L-16.039425438242915,17.07478485831002 L-15.450061114080807,18.010961988536593 L-15.164436424637254,18.469499760027144 L-14.886282692952365,18.919862119822906 L-14.616921160098668,19.360335457666437 L-14.35787047440651,19.788920204662112 L-14.100719859661753,20.220398876894585 L-13.859652116315516,20.6319308105631 L-13.637774443097454,21.018682243066696 L-13.438532647050224,21.374888516483733 " />
			<path d="M25.85770653816196,2.1223784565100683 L24.180846860254725,4.8832376982905945 L23.348185943705474,6.2588906988309025 L22.520415208244316,7.630405148225626 L21.69862990707184,8.996745666748248 L20.884174978631485,10.356621028086183 L20.078905648573922,11.708187186290328 L19.28546905299428,13.04869913374694 " />

        </g>
        </g>
    </svg>
    