<?xml version="1.0" encoding="UTF-8" standalone="no"?>
    <svg
    xmlns:svg="http://www.w3.org/2000/svg"
    xmlns="http://www.w3.org/2000/svg"
    width="308"
    height="231"
    >
        <g transform="scale(4, -4)   translate(38.555512754639906,-28.888235165741666)" stroke-width="0.25"  fill="none">
        <!-- hidden lines -->
        <g  stroke="rgb(160,160,160)" fill="none" stroke-dasharray="0.25,0.25" >
    			<path d="M-36.0555127546399,-4.660965450470673 L19.414506867883013,25.456042075647527 " />
			<path d="M19.414506867883013,26.388235165741662 L19.414506867883013,25.456042075647527 " />
			<path d="M-28.151034958430387,-6.568375927124826 L27.318984664092525,23.548631598993374 " />
			<path d="M19.414506867883013,25.45604207564753 L27.31898466409253,23.548631598993378 " />
			<path d="M-28.151034958430387,-23.347851548819254 L27.318984664092525,6.769155977298947 " />
			<path d="M27.318984664092525,23.548631598993374 L27.318984664092525,6.769155977298947 " />
			<path d="M-28.151034958430383,-17.148767499693257 L19.414506867883013,8.6765664539531 " />
			<path d="M27.318984664092525,6.769155977298951 L19.41450686788301,8.676566453953104 " />
			<path d="M-36.0555127546399,-22.372634162259235 L19.414506867883013,7.744373363858966 " />
			<path d="M19.414506867883013,8.6765664539531 L19.414506867883013,7.744373363858966 " />
			<path d="M19.414506867883013,7.744373363858969 L36.05551275463989,3.728772360376543 " />
			<path d="M-27.31898466409254,-6.769155977298947 L28.151034958430373,23.347851548819254 " />
			<path d="M28.151034958430373,23.34785154881925 L28.151034958430373,17.14876749969326 " />
			<path d="M36.055512754639885,21.4404410721651 L28.15103495843037,23.347851548819254 " />

        </g>

        <!-- solid lines -->
        <g  stroke="rgb(0,0,0)" fill="none">
    			<path d="M-36.0555127546399,-3.7287723603765386 L19.414506867883013,26.388235165741662 " />
			<path d="M-36.0555127546399,-3.7287723603765386 L-19.414506867883023,-7.744373363858965 " />
			<path d="M-19.414506867883027,-7.744373363858966 L36.055512754639885,22.372634162259235 " />
			<path d="M36.055512754639885,22.37263416225924 L19.41450686788301,26.388235165741666 " />
			<path d="M-36.0555127546399,-3.7287723603765386 L-36.0555127546399,-4.660965450470673 " />
			<path d="M-36.0555127546399,-4.660965450470673 L-28.151034958430383,-6.568375927124825 " />
			<path d="M-28.151034958430387,-6.568375927124826 L-28.151034958430387,-23.347851548819254 " />
			<path d="M-36.0555127546399,-21.4404410721651 L-28.151034958430383,-17.148767499693257 " />
			<path d="M-28.151034958430387,-23.347851548819254 L-36.0555127546399,-21.4404410721651 " />
			<path d="M-36.0555127546399,-21.4404410721651 L-36.0555127546399,-22.372634162259235 " />
			<path d="M-19.414506867883027,-26.388235165741662 L36.055512754639885,3.7287723603765386 " />
			<path d="M-19.414506867883027,-26.388235165741662 L-36.055512754639906,-22.372634162259235 " />
			<path d="M-19.414506867883027,-25.456042075647527 L36.055512754639885,4.660965450470673 " />
			<path d="M-19.414506867883027,-25.456042075647527 L-19.414506867883027,-26.388235165741662 " />
			<path d="M36.055512754639885,4.660965450470677 L36.055512754639885,3.728772360376542 " />
			<path d="M-27.31898466409254,-23.548631598993374 L28.151034958430373,6.568375927124826 " />
			<path d="M-27.31898466409254,-23.548631598993374 L-19.414506867883023,-25.456042075647527 " />
			<path d="M28.151034958430373,6.568375927124826 L36.055512754639885,4.660965450470674 " />
			<path d="M-27.31898466409254,-6.769155977298947 L-27.31898466409254,-23.548631598993374 " />
			<path d="M28.151034958430373,17.14876749969326 L28.151034958430373,6.568375927124823 " />
			<path d="M-19.414506867883027,-8.6765664539531 L36.055512754639885,21.4404410721651 " />
			<path d="M-19.414506867883027,-8.6765664539531 L-27.318984664092543,-6.769155977298948 " />
			<path d="M-19.414506867883027,-7.744373363858966 L-19.414506867883027,-8.6765664539531 " />
			<path d="M36.055512754639885,22.37263416225924 L36.055512754639885,21.440441072165104 " />

        </g>
        </g>
    </svg>
    