<?xml version="1.0" encoding="UTF-8" standalone="no"?>
    <svg
    xmlns:svg="http://www.w3.org/2000/svg"
    xmlns="http://www.w3.org/2000/svg"
    width="340"
    height="180"
    >
        <g transform="scale(4, -4)   translate(41.65004707126816,-22.110766765483884)" stroke-width="0.25"  fill="none">
        <!-- hidden lines -->
        <g  stroke="rgb(160,160,160)" fill="none" stroke-dasharray="0.25,0.25" >
    			<path d="M-39.15004707126816,-11.105900280874199 L21.551695588711922,10.511921059910279 " />
			<path d="M21.551695588711922,10.511921059910273 L21.551695588711922,19.61076676548388 " />
			<path d="M41.092392680924206,1.0683649432934672 L21.55169558871193,10.511921059910271 " />
			<path d="M-0.6400553978120946,-13.793887228495858 L-0.8538287800536413,-13.68822828316618 L-1.06190428773143,-13.580629474031797 L-1.2641796739853746,-13.471143674400604 L-1.4605555420947898,-13.359824684834532 L-1.6509353943212552,-13.246727206712318 L-1.835225679326932,-13.131906815349632 L-2.013335838145043,-13.015419932689749 L-2.1851783486799192,-12.897323799578196 L-2.350668768714751,-12.77767644763501 L-2.509725777405908,-12.656536670738383 L-2.6622712152434342,-12.533963996133778 L-2.8082301224580863,-12.41001865518264 L-2.9475307758560536,-12.284761553765133 L-3.080104724063231,-12.1582542423514 L-3.205886821161748,-12.03055888575611 L-3.3248152587022215,-11.901738232591073 L-3.4368315960760007,-11.771855584431034 L-3.5418807892324775,-11.6409747647077 L-3.6399112177273487,-11.509160087347357 L-3.730874710088541,-11.37647632516745 L-3.814726567487341,-11.242988678047677 L-3.891425585703095,-11.108762740891208 L-3.9609340753706643,-10.973864471391815 L-4.023217880500734,-10.838360157622716 L-4.078246395263806,-10.70231638546308 L-4.12599257902972,-10.565800005878176 L-4.166432969655208,-10.42887810206929 L-4.199547695013036,-10.291617956509489 L-4.225320482757038,-10.154087017881496 L-4.243738668318217,-10.016352867933861 L-4.254793201128043,-9.87848318827177 L-4.258478649065831,-9.740545727098826 " />
			<path d="M-4.258478649065831,-9.74054572709877 L-4.254793201128043,-9.60260826592577 L-4.243738668318219,-9.46473858626368 L-4.225320482757038,-9.327004436316045 L-4.199547695013036,-9.189473497688052 L-4.166432969655208,-9.052213352128252 L-4.12599257902972,-8.915291448319365 L-4.0782463952638075,-8.778775068734461 L-4.023217880500734,-8.642731296574825 L-3.960934075370666,-8.507226982805726 L-3.891425585703095,-8.372328713306333 L-3.8147265674873427,-8.238102776149864 L-3.7308747100885427,-8.10461512903009 L-3.6399112177273505,-7.971931366850184 L-3.5418807892324793,-7.840116689489841 L-3.4368315960760025,-7.709235869766507 L-3.3248152587022215,-7.579353221606468 L-3.2058868211617497,-7.450532568441432 L-3.080104724063233,-7.32283721184614 L-2.9475307758560554,-7.196329900432408 L-2.8082301224580863,-7.0710727990149 L-2.662271215243436,-6.947127458063763 L-2.50972577740591,-6.824554783459158 L-2.350668768714753,-6.7034150065625315 L-2.185178348679921,-6.583767654619344 L-2.0133358381450446,-6.465671521507792 L-1.8352256793269337,-6.349184638847909 L-1.650935394321257,-6.234364247485222 L-1.4605555420947915,-6.121266769363008 L-1.2641796739853763,-6.009947779796937 L-1.0619042877314335,-5.900461980165743 L-0.8538287800536413,-5.7928631710313585 L-0.6400553978121071,-5.687204225701686 " />
			<path d="M-4.258478649065832,-0.641700021525164 L-4.258478649065832,-9.74054572709877 " />

        </g>

        <!-- solid lines -->
        <g  stroke="rgb(0,0,0)" fill="none">
    			<path d="M-19.609349979055875,-11.450610691917397 L-39.150047071268155,-2.007054575300593 " />
			<path d="M-39.15004707126816,-11.105900280874199 L-39.15004707126816,-2.007054575300593 " />
			<path d="M-19.609349979055875,-20.549456397491006 L-39.150047071268155,-11.105900280874202 " />
			<path d="M-19.609349979055878,-20.549456397491006 L-19.609349979055878,-11.450610691917404 " />
			<path d="M-39.15004707126816,-2.007054575300593 L21.551695588711922,19.610766765483884 " />
			<path d="M41.092392680924206,10.167210648867073 L21.55169558871193,19.610766765483877 " />
			<path d="M41.092392680924206,10.167210648867083 L22.123098099680433,3.411641479871932 " />
			<path d="M-0.6400553978120946,-4.695041522922255 L-0.8538287800536413,-4.589382577592576 L-1.06190428773143,-4.481783768458191 L-1.2641796739853746,-4.372297968827 L-1.4605555420947898,-4.260978979260928 L-1.6509353943212552,-4.1478815011387145 L-1.835225679326932,-4.033061109776028 L-2.013335838145043,-3.9165742271161434 L-2.1851783486799192,-3.7984780940045915 L-2.350668768714751,-3.678830742061404 L-2.509725777405908,-3.557690965164778 L-2.6622712152434342,-3.435118290560173 L-2.8082301224580863,-3.311172949609036 L-2.9475307758560536,-3.1859158481915273 L-3.080104724063231,-3.0594085367777963 L-3.205886821161748,-2.9317131801825043 L-3.3248152587022215,-2.8028925270174683 L-3.4368315960760007,-2.673009878857429 L-3.5418807892324775,-2.5421290591340946 L-3.6399112177273487,-2.410314381773752 L-3.730874710088541,-2.2776306195938463 L-3.814726567487341,-2.1441429724740724 L-3.891425585703095,-2.009917035317603 L-3.9609340753706643,-1.87501876581821 L-4.023217880500734,-1.739514452049112 L-4.078246395263806,-1.6034706798894742 L-4.12599257902972,-1.4669543003045709 L-4.166432969655208,-1.330032396495684 L-4.199547695013036,-1.192772250935884 L-4.225320482757038,-1.0552413123078905 L-4.243738668318217,-0.9175071623602562 L-4.254793201128043,-0.7796374826981662 L-4.258478649065831,-0.6417000215252218 " />
			<path d="M-4.258478649065831,-0.6417000215251649 L-4.2557707368129805,-0.5234608282187133 L-4.2476479777596,-0.4052643257603046 L-4.234113304668192,-0.28715318958423885 L-4.215171604299703,-0.16917006430289605 L-4.190829715649135,-0.05135754830968675 L-4.161096427476293,0.06624182160130954 L-4.125982475132558,0.18358558559346494 L-4.085500536684837,0.300631376117938 L-4.03966522833808,0.417336933210688 L-3.9884930991580365,0.5336601197506445 L-3.932002625096116,0.649558936673525 L-3.8702142023185733,0.7649915381358043 L-3.803150139842355,0.8799162466233654 L-3.7308346514803308,0.9942915679993727 L-3.6532938470987695,1.1080762064859353 L-3.570555723190237,1.2212290795741543 L-3.4826501527653395,1.3337093328571663 L-3.389608874566907,1.4454763547808271 L-3.291465481610576,1.556489791306721 L-3.188255409055852,1.6667095604821807 L-3.0800159214120857,1.7760958669120783 L-2.966786099083915,1.8846092161271506 L-2.8486068242611147,1.9922104288436726 L-2.72552076615786,2.098860655109333 L-2.597572365606803,2.2045213883302024 L-2.4648078190134886,2.309154479173728 L-2.327275061676909,2.412722149342745 L-2.1850237504822374,2.5151870052155125 L-2.038105245971945,2.6165120513468705 L-1.8865725938018407,2.716660703825626 L-1.7304805055886572,2.81559680348336 L-1.5698853391561585,2.91328462894987 L-1.404845078186872,3.0096889095505515 L-1.235419311286785,3.1047748380410485 L-1.0616692104705798,3.198508083174583 L-0.8836575090751815,3.290854802097424 L-0.701448479109569,3.381781652568013 L-0.5151079080490568,3.471255804995349 L-0.3247030750823843,3.559244954292276 L-0.1303027268202488,3.6457173315393954 L0.06802294752602123,3.7306417154553886 L0.2702023414866055,3.81398744366962 L0.47616245718707795,3.8957244237929336 L0.6858289317046555,3.9758231442826677 L0.89912606391729,4.054254685097934 L1.1159768418359377,4.130990728141347 L1.3363029704101255,4.206003567483417 L1.5600248997967583,4.279266119365904 L1.7870618540819958,4.350751931980555 L2.0173318604457915,4.4204351950196505 L2.2507517787585805,4.488290748994951 L2.487237331599454,4.5542940943216506 L2.7267031346849215,4.61842140016408 L2.9690627276973416,4.680649513039939 L3.214228605501847,4.740955965179986 L3.4621122497405032,4.79931898264013 L3.71262416079231,4.855717493163024 L3.965673890087481,4.910131133786311 L4.2211700727643375,4.9625402581947675 L4.479020460657066,5.012925943813709 L4.739131955602366,5.061269998641075 L5.0014106430529965,5.10755496781574 L5.265761825986104,5.1517641399196865 L5.532090059094051,5.193881553011737 L5.8002991832454045,5.2338920003906955 L6.0702923602036805,5.271781036085801 L6.341972107591271,5.30753498007252 L6.615240334085941,5.341140923211785 L6.8899983748371705,5.372586731910901 L7.166147027089614,5.401861052504447 L7.443586586000736,5.428953315353565 L7.7222168806397296,5.453853738662184 L8.00193731015475,5.4765533320087885 L8.282646880095339,5.497043899592449 L8.564244238876963,5.5153180431919635 L8.846627714374534,5.531369164837016 L9.129695350631613,5.545191469190409 L9.413344944672112,5.5567799656405015 L9.697474083401207,5.566130470103087 L9.98198018058208,5.573239606532088 L10.266760513875184,5.578104808138483 L10.551712261926664,5.580724318317068 L10.836732541492522,5.581097191280681 L11.121718444585113,5.579223292401686 L11.406567075628582,5.575103298260581 L11.691175588609836,5.5687386964017165 L11.975441224211604,5.560131784796205 L12.259261346914183,5.549285671012234 L12.54253348205253,5.536204271093056 L12.825155352815228,5.5208923081430905 L13.107024917172037,5.503355310622615 L13.388040404716687,5.483599610351691 L13.66810035341159,5.461632340224028 L13.947103646221192,5.43746143163162 L14.224949547620803,5.411095611601071 L14.501537739967652,5.382544399642663 L14.776768359721066,5.351818104313289 L15.050542033498692,5.318927819494498 L15.322759913955773,5.283885420386991 L15.593323715474451,5.246703559223021 L15.862135749650282,5.207395660698247 L16.129098960563123,5.165975917124675 L16.394116959819662,5.122459283306457 L16.657094061354908,5.07686147114038 L16.917935315980124,5.029198943943016 L17.176546545664735,4.979488910506549 L17.432834377539706,4.927749318885465 L17.686706277610366,4.873998849916311 L17.93807058416619,4.818256910472888 L18.18683654087576,4.760543626459308 L18.432914329554777,4.700879835543425 L18.676215102595346,4.639287079633307 L18.916651015044884,4.575787597099406 L19.154135256322952,4.510404314745295 L19.388582081564635,4.443160839529831 L19.61990684257917,4.374081450043741 L19.848026018412586,4.3031910877437225 L20.072857245503375,4.230515347947198 L20.29431934742025,4.156080470591005 L20.5123323641713,4.079913330757331 L20.726817581073952,4.002041428970343 L20.937697557175277,3.9224928812669733 L21.144896153212457,3.8412964090454906 L21.348338559103222,3.758481328695501 L21.54795132095642,3.674077541013107 L21.743662367592908,3.588115520405089 L21.935401036567182,3.5006263038859657 L22.12309809968039,3.411641479871945 " />
			<path d="M-0.6400553978120982,-4.695041522922246 L-19.609349979055875,-11.450610691917396 " />
			<path d="M41.092392680924206,1.0683649432934743 L22.123098099680433,-5.687204225701677 " />
			<path d="M-0.6400553978120982,-5.687204225701681 L-0.3729501863673068,-5.561580026751582 L-0.09779122776915017,-5.438983981951704 L0.18522209282294,-5.319504926614057 L0.475884698836726,-5.203229437423691 L0.7739859708893704,-5.090241769703675 L1.0793098994060397,-4.980623796362151 L1.3916352411443693,-4.874454948565759 L1.7107356795112985,-4.771812158182364 L2.0363799885561864,-4.672769802034839 L2.368332200521298,-4.577399648006275 L2.7063517768283365,-4.4857708030356696 L3.050193782377028,-4.39794966304179 L3.3996090630295344,-4.3139998648114934 L3.7543444261520467,-4.233982239887355 L4.114142824082757,-4.157954770488033 L4.47874354039323,-4.085972547493304 L4.847882378808255,-4.018087730524218 L5.22129185464724,-3.9543495101472885 L5.598701388648454,-3.8948040722301203 L5.979837503035661,-3.839494564474294 L6.36442401968505,-3.788461065149762 L6.752182260248906,-3.7417405540534068 L7.142831248090998,-3.699366885712812 L7.536087911887305,-3.661370764854662 L7.931667290744638,-3.6277797241555367 L8.329282740688456,-3.598618104291239 L8.728646142370263,-3.573907036299099 L9.129468109844126,-3.553664426266046 L9.531458200260943,-3.537904942353528 L9.934325124328588,-3.5266400041686996 L10.337776957385426,-3.5198777744895713 L10.741521350934168,-3.5176231533501063 L11.145265744482911,-3.5198777744895713 L11.54871757753975,-3.5266400041686996 L11.951584501607394,-3.537904942353528 L12.353574592024211,-3.553664426266046 L12.754396559498074,-3.573907036299099 L13.153759961179883,-3.598618104291239 L13.551375411123699,-3.6277797241555367 L13.946954789981032,-3.661370764854662 L14.34021145377734,-3.699366885712812 L14.73086044161943,-3.741740554053406 L15.118618682183287,-3.788461065149761 L15.503205198832676,-3.839494564474294 L15.884341313219883,-3.8948040722301203 L16.261750847221098,-3.9543495101472885 L16.63516032306008,-4.018087730524218 L17.004299161475107,-4.085972547493304 L17.368899877785577,-4.157954770488032 L17.72869827571629,-4.233982239887355 L18.08343363883881,-4.313999864811494 L18.432848919491313,-4.39794966304179 L18.77669092504,-4.485770803035669 L19.114710501347037,-4.577399648006274 L19.44666271331215,-4.672769802034837 L19.77230702235704,-4.771812158182363 L20.09140746072397,-4.874454948565759 L20.4037328024623,-4.980623796362151 L20.70905673097897,-5.090241769703674 L21.007158003031606,-5.2032294374236905 L21.29782060904539,-5.319504926614054 L21.580833929637485,-5.438983981951703 L21.855992888235647,-5.5615800267515825 L22.12309809968039,-5.6872042257016595 " />
			<path d="M-0.6400553978120982,-13.793887228495855 L-19.609349979055875,-20.549456397491006 " />
			<path d="M-0.6400553978121017,-4.695041522922251 L-0.6400553978121017,-13.793887228495857 " />
			<path d="M41.092392680924206,1.0683649432934672 L41.092392680924206,10.16721064886707 " />
			<path d="M22.123098099680433,-5.687204225701682 L22.123098099680433,3.411641479871924 " />

        </g>
        </g>
    </svg>
    