<?xml version="1.0" encoding="UTF-8" standalone="no"?>
    <svg
    xmlns:svg="http://www.w3.org/2000/svg"
    xmlns="http://www.w3.org/2000/svg"
    width="500.0"
    height="220.0"
    >
        <g transform="scale(3.394736799528328, -3.394736799528328)   translate(55.59798518949906,-27.248062357250245)" stroke-width="0.29457364710540807"  fill="none">
        <!-- hidden lines -->
        <g  stroke="rgb(160,160,160)" fill="none" stroke-dasharray="0.29457364710540807,0.29457364710540807" >
    			<path d="M3.8822856765378293,4.966070261914279 L3.8822856765378293,7.666021494485568 " />
			<path d="M-10.606601717798195,3.2736908694926896 L-10.606601717798195,5.9736421020639785 " />
			<path d="M3.8822856765378293,4.966070261914279 L-10.606601717798199,3.273690869492689 " />
			<path d="M-10.606601717798195,3.2736908694926896 L-14.488887394336011,-3.042355008707232 " />
			<path d="M14.488887394336038,0.3424037761359495 L3.882285676537829,4.966070261914279 " />
			<path d="M31.819805153394658,7.89735735527102 L23.45464211601658,6.92026165748544 " />
			<path d="M21.213203435596444,12.521023841049352 L12.848040398218364,11.543928143263772 " />
			<path d="M42.42640687119287,12.521023841049352 L34.061243833814785,11.543928143263772 " />
			<path d="M31.81980515339466,17.144690326827682 L23.454642116016583,16.167594629042103 " />
			<path d="M29.578366472974523,13.498119538834931 L29.578366472974523,15.22097507362064 " />
			<path d="M25.626169113804462,15.22097507362064 L29.578366472974523,13.498119538834931 " />
			<path d="M29.578366472974523,13.498119538834931 L30.637354563692558,15.22097507362064 " />
			<path d="M-2.4612704941764934,15.286328775424955 L-2.4612704941764934,17.986280007996243 " />
			<path d="M-2.4612704941764934,15.286328775424955 L-4.702709174596631,11.639757987432205 " />
			<path d="M3.662453862781449,12.616853685217784 L-2.4612704941764942,15.286328775424955 " />
			<path d="M-16.950157888512514,13.593949383003366 L-16.950157888512514,16.293900615574653 " />
			<path d="M-16.950157888512514,13.593949383003366 L-19.191596568932653,9.947378595010615 " />
			<path d="M-10.826433531554573,10.924474292796194 L-16.950157888512514,13.593949383003366 " />
			<path d="M-6.343556170714297,21.602374653624878 L-6.343556170714297,24.302325886196165 " />
			<path d="M-8.584994851134438,17.955803865632127 L-8.584994851134438,19.527502169922354 " />
			<path d="M-6.343556170714297,21.602374653624878 L-8.584994851134434,17.955803865632127 " />
			<path d="M-8.584994851134438,17.955803865632127 L-5.523132672655466,18.31344571295013 " />
			<path d="M-0.21983181375635819,18.932899563417706 L-6.343556170714302,21.602374653624878 " />
			<path d="M-20.83244356505032,19.90999526120329 L-20.83244356505032,22.609946493774576 " />
			<path d="M-20.83244356505032,19.90999526120329 L-23.073882245470458,16.263424473210538 " />
			<path d="M-14.708719208092377,17.240520170996117 L-14.708719208092377,17.986280007996246 " />
			<path d="M-15.182390935546147,17.18519278466907 L-14.708719208092374,17.240520170996117 " />
			<path d="M-14.708719208092377,17.240520170996117 L-20.83244356505032,19.90999526120329 " />
			<path d="M-25.915912610193054,7.01609150165388 L-34.281075647571136,6.038995803868301 " />
			<path d="M-29.79819828673087,0.7000456234539567 L-38.163361324108955,-0.2770500743316218 " />
			<path d="M-42.646238684949225,5.061900106082722 L-42.646238684949225,6.63359841037295 " />
			<path d="M-43.46666218300806,5.419541953400727 L-42.646238684949225,5.061900106082724 " />
			<path d="M-42.646238684949225,5.061900106082722 L-41.503358229355385,6.921239163600525 " />
			<path d="M-40.40480000452908,8.708470894075472 L-48.76996304190716,7.731375196289893 " />
			<path d="M-44.28708568106689,2.3924250158755473 L-52.65224871844497,1.4153293180899689 " />
			<path d="M-31.819805153394626,-10.597308587842303 L-31.819805153394626,-9.438579517197123 " />
			<path d="M-31.819805153394626,-10.597308587842303 L-24.748737341529147,-9.771370120552202 " />
			<path d="M-29.578366472974487,-6.950737799849552 L-29.578366472974487,-4.250786567278263 " />
			<path d="M-23.454642116016547,-9.620212890056724 L-29.57836647297449,-6.950737799849551 " />
			<path d="M-29.578366472974487,-6.950737799849552 L-31.819805153394626,-10.597308587842305 " />
			<path d="M-18.971764755176274,-11.574404285627885 L-18.971764755176274,-8.874453053056596 " />
			<path d="M-12.848040398218336,-14.243879375835057 L-18.971764755176277,-11.574404285627883 " />
			<path d="M-18.971764755176274,-11.574404285627885 L-21.213203435596412,-15.220975073620638 " />
			<path d="M-40.18496819077271,-11.574404285627885 L-40.18496819077271,-8.874453053056596 " />
			<path d="M-34.061243833814764,-14.243879375835053 L-40.18496819077271,-11.57440428562788 " />
			<path d="M-40.18496819077271,-11.574404285627885 L-42.426406871192846,-15.220975073620638 " />
			<path d="M-29.578366472974494,-16.198070771406215 L-29.578366472974494,-13.498119538834926 " />
			<path d="M-23.454642116016547,-18.867545861613387 L-29.57836647297449,-16.198070771406215 " />
			<path d="M-29.578366472974494,-16.198070771406215 L-31.819805153394633,-19.844641559398966 " />
			<path d="M4.702709174596647,-14.339709220003495 L-3.6624538627814345,-15.316804917789073 " />
			<path d="M19.19159656893268,-12.647329827581906 L10.8264335315546,-13.624425525367483 " />
			<path d="M11.95511593993799,-14.116444662465167 L15.182390935546161,-15.523289534611598 " />
			<path d="M8.584994851134446,-20.655755098203418 L0.21983181375636512,-21.632850795988993 " />
			<path d="M23.07388224547048,-18.96337570578183 L14.708719208092397,-19.940471403567404 " />
			<path d="M28.157351290613224,-6.06947194623241 L28.157351290613224,-3.3695207136611214 " />
			<path d="M34.281075647571164,-8.73894703643958 L28.15735129061322,-6.069471946232408 " />
			<path d="M28.157351290613224,-6.06947194623241 L25.915912610193086,-9.71604273422516 " />
			<path d="M38.163361324108976,-2.422901158239657 L38.163361324108976,-1.502599985806484 " />
			<path d="M32.03963696715103,0.2465739319675131 L32.03963696715103,2.9465251645388015 " />
			<path d="M38.163361324108976,-2.422901158239657 L32.03963696715103,0.2465739319675147 " />
			<path d="M32.03963696715103,0.2465739319675131 L29.798198286730894,-3.399996856025237 " />
			<path d="M33.80740392011741,-2.931700236053141 L38.163361324108976,-2.422901158239657 " />
			<path d="M42.646238684949246,-7.761851338654 L42.646238684949246,-5.061900106082712 " />
			<path d="M48.76996304190719,-10.43132642886117 L42.646238684949246,-7.761851338653997 " />
			<path d="M42.646238684949246,-7.761851338654 L40.40480000452911,-11.40842212664675 " />
			<path d="M46.52852436148706,-1.4458054604540789 L46.52852436148706,1.2541457721172096 " />
			<path d="M52.652248718445,-4.115280550661247 L46.52852436148706,-1.445805460454075 " />
			<path d="M46.52852436148706,-1.4458054604540789 L44.28708568106692,-5.092376248446829 " />
			<path d="M31.819805153394658,12.521023841049352 L31.819805153394658,15.220975073620641 " />
			<path d="M24.748737341529182,12.521023841049352 L24.748737341529182,15.220975073620641 " />
			<path d="M31.819805153394658,12.521023841049352 L24.748737341529182,12.521023841049352 " />
			<path d="M24.748737341529182,9.43857951719713 L24.748737341529182,9.771370120552207 " />
			<path d="M24.748737341529182,12.521023841049352 L24.748737341529182,9.438579517197132 " />
			<path d="M31.819805153394658,9.43857951719713 L31.819805153394658,10.597308587842308 " />
			<path d="M24.748737341529182,9.43857951719713 L31.819805153394658,9.43857951719713 " />
			<path d="M31.819805153394658,9.43857951719713 L31.819805153394658,12.521023841049352 " />
			<path d="M-11.646857029613406,17.598162018314124 L-11.646857029613406,20.29811325088541 " />
			<path d="M-15.182390935546149,14.928686928106952 L-15.182390935546149,15.523289534611601 " />
			<path d="M-11.646857029613406,17.598162018314124 L-15.182390935546145,14.928686928106952 " />
			<path d="M-15.182390935546149,14.928686928106952 L-11.955115939937953,14.11644466246516 " />
			<path d="M-5.523132672655466,16.056939856388013 L-11.646857029613411,17.598162018314124 " />
			<path d="M-33.80740392011737,2.5989096326980743 L-33.80740392011737,2.931700236053151 " />
			<path d="M-38.163361324108955,1.5025999858064918 L-33.80740392011737,2.598909632698073 " />
			<path d="M-37.34293782605012,5.268384722905246 L-37.34293782605012,7.968335955476535 " />
			<path d="M-33.80740392011737,2.5989096326980743 L-37.342937826050104,5.268384722905246 " />
			<path d="M-37.34293782605012,5.268384722905246 L-43.46666218300807,3.7271625609791363 " />
			<path d="M-30.637354563692533,-15.220975073620636 L-25.626169113804423,-15.220975073620636 " />
			<path d="M-24.74873734152915,-12.138530749768414 L-24.74873734152915,-9.438579517197125 " />
			<path d="M-24.74873734152915,-15.220975073620636 L-24.748737341529147,-12.138530749768416 " />
			<path d="M-31.819805153394626,-12.138530749768414 L-31.819805153394626,-9.438579517197125 " />
			<path d="M-24.74873734152915,-12.138530749768414 L-31.819805153394626,-12.138530749768412 " />
			<path d="M-31.819805153394626,-12.138530749768414 L-31.81980515339463,-15.220975073620636 " />
			<path d="M15.182390935546161,-17.628638160678243 L15.182390935546161,-17.18519278466907 " />
			<path d="M14.708719208092397,-17.98628000799625 L15.182390935546163,-17.628638160678246 " />
			<path d="M9.058666578588225,-16.087415998752128 L9.058666578588225,-13.38746476618084 " />
			<path d="M15.182390935546161,-17.628638160678243 L9.05866657858822,-16.08741599875213 " />
			<path d="M5.523132672655482,-18.7568910889593 L5.523132672655482,-18.313445712950134 " />
			<path d="M9.058666578588225,-16.087415998752128 L5.523132672655483,-18.756891088959296 " />
			<path d="M5.523132672655482,-18.7568910889593 L8.584994851134446,-19.527502169922354 " />
			<path d="M43.46666218300808,-6.427113793550413 L43.46666218300808,-5.419541953400714 " />
			<path d="M39.931128277075345,-3.757638703343244 L39.931128277075345,-1.0576874707719557 " />
			<path d="M43.46666218300808,-6.427113793550413 L39.931128277075345,-3.7576387033432415 " />
			<path d="M39.931128277075345,-3.757638703343244 L33.8074039201174,-5.298860865269354 " />
			<path d="M41.50335822935541,-6.921239163600516 L43.46666218300809,-6.427113793550416 " />

        </g>

        <!-- solid lines -->
        <g  stroke="rgb(0,0,0)" fill="none">
    			<path d="M3.8822856765378293,7.666021494485567 L-10.606601717798199,5.973642102063977 " />
			<path d="M-14.48888739433601,-3.0423550087072293 L-14.48888739433601,-0.34240377613594086 " />
			<path d="M-10.606601717798195,5.973642102063978 L-14.488887394336011,-0.3424037761359438 " />
			<path d="M-3.8822856765378004,-7.666021494485564 L-3.8822856765378004,-4.966070261914275 " />
			<path d="M-14.48888739433601,-3.0423550087072293 L-3.8822856765378,-7.666021494485564 " />
			<path d="M-14.48888739433601,-0.3424037761359411 L-3.8822856765378,-4.966070261914275 " />
			<path d="M10.606601717798226,-5.973642102063976 L10.606601717798226,-3.2736908694926874 " />
			<path d="M-3.8822856765378004,-7.666021494485564 L10.606601717798231,-5.973642102063976 " />
			<path d="M-3.8822856765378004,-4.966070261914275 L10.606601717798231,-3.273690869492687 " />
			<path d="M14.488887394336038,0.3424037761359495 L14.488887394336038,3.042355008707238 " />
			<path d="M10.606601717798226,-5.973642102063976 L14.48888739433604,0.34240377613594947 " />
			<path d="M10.606601717798226,-3.2736908694926874 L14.48888739433604,3.0423550087072377 " />
			<path d="M14.488887394336038,3.042355008707238 L3.882285676537829,7.666021494485568 " />
			<path d="M31.819805153394658,7.89735735527102 L31.819805153394658,10.597308587842308 " />
			<path d="M23.45464211601658,6.920261657485439 L23.45464211601658,9.620212890056727 " />
			<path d="M31.819805153394658,10.59730858784231 L23.45464211601658,9.62021289005673 " />
			<path d="M29.57836647297452,4.2507865672782685 L29.57836647297452,6.950737799849557 " />
			<path d="M23.45464211601658,6.920261657485439 L29.578366472974523,4.250786567278268 " />
			<path d="M23.45464211601658,9.620212890056727 L29.578366472974523,6.950737799849556 " />
			<path d="M29.57836647297452,4.2507865672782685 L31.819805153394658,7.897357355271021 " />
			<path d="M29.57836647297452,6.9507377998495565 L31.819805153394658,10.597308587842308 " />
			<path d="M21.213203435596444,12.521023841049352 L21.213203435596444,15.220975073620641 " />
			<path d="M12.848040398218362,11.543928143263773 L12.848040398218362,14.243879375835062 " />
			<path d="M21.213203435596444,15.22097507362064 L12.848040398218364,14.243879375835059 " />
			<path d="M18.97176475517631,8.874453053056602 L18.97176475517631,11.57440428562789 " />
			<path d="M12.848040398218362,11.543928143263773 L18.971764755176306,8.874453053056602 " />
			<path d="M12.848040398218362,14.24387937583506 L18.971764755176306,11.574404285627889 " />
			<path d="M18.97176475517631,8.874453053056602 L21.213203435596448,12.521023841049354 " />
			<path d="M18.97176475517631,11.574404285627889 L21.213203435596448,15.220975073620641 " />
			<path d="M42.42640687119287,12.521023841049352 L42.42640687119287,15.220975073620641 " />
			<path d="M34.061243833814785,11.54392814326377 L34.061243833814785,14.243879375835059 " />
			<path d="M42.42640687119287,15.22097507362064 L34.061243833814785,14.243879375835059 " />
			<path d="M40.18496819077273,8.874453053056602 L40.18496819077273,11.57440428562789 " />
			<path d="M34.061243833814785,11.54392814326377 L40.18496819077273,8.874453053056598 " />
			<path d="M34.061243833814785,14.24387937583506 L40.18496819077273,11.574404285627889 " />
			<path d="M40.18496819077273,8.874453053056602 L42.42640687119287,12.521023841049354 " />
			<path d="M40.18496819077273,11.574404285627889 L42.42640687119287,15.220975073620641 " />
			<path d="M31.81980515339466,17.144690326827682 L31.81980515339466,19.84464155939897 " />
			<path d="M23.45464211601658,16.167594629042103 L23.45464211601658,18.86754586161339 " />
			<path d="M31.81980515339466,19.84464155939897 L23.454642116016583,18.86754586161339 " />
			<path d="M29.578366472974523,15.22097507362064 L29.578366472974523,16.19807077140622 " />
			<path d="M23.45464211601658,16.167594629042103 L25.626169113804462,15.22097507362064 " />
			<path d="M23.45464211601658,18.86754586161339 L29.578366472974523,16.19807077140622 " />
			<path d="M30.637354563692558,15.22097507362064 L31.81980515339466,17.144690326827682 " />
			<path d="M29.578366472974523,16.19807077140622 L31.81980515339466,19.84464155939897 " />
			<path d="M-4.702709174596629,11.639757987432205 L-4.702709174596629,14.339709220003494 " />
			<path d="M-2.4612704941764934,17.986280007996243 L-4.702709174596631,14.339709220003492 " />
			<path d="M3.662453862781449,12.616853685217784 L3.662453862781449,15.316804917789073 " />
			<path d="M-4.702709174596629,11.639757987432205 L3.6624538627814505,12.616853685217784 " />
			<path d="M-4.702709174596629,14.339709220003495 L3.6624538627814505,15.316804917789074 " />
			<path d="M3.662453862781449,15.31680491778907 L-2.4612704941764942,17.986280007996243 " />
			<path d="M-19.19159656893265,9.947378595010615 L-19.19159656893265,12.647329827581904 " />
			<path d="M-16.950157888512514,16.293900615574653 L-19.191596568932653,12.647329827581903 " />
			<path d="M-10.826433531554573,10.924474292796194 L-10.826433531554573,13.624425525367483 " />
			<path d="M-19.19159656893265,9.947378595010615 L-10.826433531554569,10.924474292796194 " />
			<path d="M-19.19159656893265,12.647329827581906 L-10.826433531554569,13.624425525367485 " />
			<path d="M-10.826433531554573,13.624425525367485 L-16.950157888512514,16.293900615574657 " />
			<path d="M-8.584994851134438,19.527502169922354 L-8.584994851134438,20.655755098203414 " />
			<path d="M-6.343556170714297,24.302325886196165 L-8.584994851134434,20.655755098203414 " />
			<path d="M-0.21983181375635819,18.932899563417706 L-0.21983181375635819,21.632850795988993 " />
			<path d="M-5.523132672655466,18.31344571295013 L-0.219831813756358,18.932899563417706 " />
			<path d="M-8.584994851134438,20.655755098203414 L-0.219831813756358,21.632850795988993 " />
			<path d="M-0.21983181375635819,21.632850795988993 L-6.343556170714302,24.302325886196165 " />
			<path d="M-23.073882245470454,16.263424473210538 L-23.073882245470454,18.963375705781825 " />
			<path d="M-20.83244356505032,22.609946493774576 L-23.073882245470458,18.963375705781825 " />
			<path d="M-14.708719208092377,17.986280007996246 L-14.708719208092377,19.940471403567404 " />
			<path d="M-23.073882245470454,16.263424473210538 L-15.182390935546147,17.18519278466907 " />
			<path d="M-23.073882245470454,18.963375705781825 L-14.708719208092374,19.940471403567404 " />
			<path d="M-14.708719208092377,19.940471403567404 L-20.83244356505032,22.609946493774576 " />
			<path d="M-34.281075647571136,6.0389958038683 L-34.281075647571136,8.738947036439589 " />
			<path d="M-28.157351290613192,3.369520713661129 L-28.157351290613192,6.069471946232417 " />
			<path d="M-34.281075647571136,6.0389958038683 L-28.157351290613196,3.3695207136611276 " />
			<path d="M-34.281075647571136,8.738947036439587 L-28.157351290613196,6.069471946232415 " />
			<path d="M-25.915912610193054,7.01609150165388 L-25.915912610193054,9.716042734225168 " />
			<path d="M-28.157351290613192,3.369520713661129 L-25.91591261019305,7.01609150165388 " />
			<path d="M-28.157351290613192,6.069471946232418 L-25.91591261019305,9.71604273422517 " />
			<path d="M-25.915912610193054,9.71604273422517 L-34.281075647571136,8.73894703643959 " />
			<path d="M-38.163361324108955,-0.277050074331622 L-38.163361324108955,2.4229011582396662 " />
			<path d="M-32.03963696715102,-2.946525164538794 L-32.03963696715102,-0.24657393196750554 " />
			<path d="M-38.163361324108955,-0.277050074331622 L-32.03963696715101,-2.946525164538794 " />
			<path d="M-38.163361324108955,2.4229011582396662 L-32.03963696715101,-0.2465739319675058 " />
			<path d="M-29.79819828673087,0.7000456234539567 L-29.79819828673087,3.399996856025245 " />
			<path d="M-32.03963696715102,-2.946525164538794 L-29.798198286730877,0.7000456234539568 " />
			<path d="M-32.03963696715102,-0.24657393196750554 L-29.798198286730877,3.399996856025245 " />
			<path d="M-29.79819828673087,3.399996856025245 L-38.163361324108955,2.4229011582396667 " />
			<path d="M-48.76996304190717,7.731375196289895 L-48.76996304190717,10.431326428861183 " />
			<path d="M-42.646238684949225,6.63359841037295 L-42.646238684949225,7.76185133865401 " />
			<path d="M-48.76996304190717,7.731375196289895 L-43.46666218300806,5.419541953400727 " />
			<path d="M-48.76996304190717,10.431326428861183 L-42.646238684949225,7.761851338654012 " />
			<path d="M-40.40480000452908,8.708470894075472 L-40.40480000452908,11.40842212664676 " />
			<path d="M-41.503358229355385,6.921239163600525 L-40.404800004529086,8.708470894075473 " />
			<path d="M-42.646238684949225,7.761851338654011 L-40.404800004529086,11.408422126646762 " />
			<path d="M-40.40480000452908,11.408422126646759 L-48.76996304190716,10.43132642886118 " />
			<path d="M-52.65224871844498,1.415329318089971 L-52.65224871844498,4.115280550661259 " />
			<path d="M-46.52852436148704,-1.2541457721172007 L-46.52852436148704,1.4458054604540878 " />
			<path d="M-52.65224871844498,1.415329318089971 L-46.52852436148704,-1.254145772117201 " />
			<path d="M-52.65224871844498,4.11528055066126 L-46.52852436148704,1.445805460454088 " />
			<path d="M-44.28708568106689,2.3924250158755473 L-44.28708568106689,5.092376248446836 " />
			<path d="M-46.52852436148704,-1.2541457721172007 L-44.2870856810669,2.39242501587555 " />
			<path d="M-46.52852436148704,1.4458054604540878 L-44.2870856810669,5.092376248446839 " />
			<path d="M-44.28708568106689,5.092376248446835 L-52.65224871844497,4.115280550661256 " />
			<path d="M-31.819805153394626,-9.438579517197123 L-31.819805153394626,-7.897357355271014 " />
			<path d="M-23.454642116016547,-9.620212890056724 L-23.454642116016547,-6.920261657485435 " />
			<path d="M-24.748737341529147,-9.771370120552202 L-23.454642116016544,-9.620212890056724 " />
			<path d="M-31.819805153394626,-7.897357355271015 L-23.454642116016544,-6.920261657485436 " />
			<path d="M-23.454642116016547,-6.920261657485434 L-29.57836647297449,-4.250786567278261 " />
			<path d="M-29.578366472974487,-4.250786567278263 L-31.819805153394626,-7.897357355271015 " />
			<path d="M-21.213203435596412,-15.220975073620636 L-21.213203435596412,-12.521023841049347 " />
			<path d="M-12.848040398218336,-14.243879375835057 L-12.848040398218336,-11.543928143263768 " />
			<path d="M-21.213203435596412,-15.220975073620636 L-12.84804039821833,-14.243879375835057 " />
			<path d="M-21.213203435596412,-12.521023841049345 L-12.84804039821833,-11.543928143263766 " />
			<path d="M-12.848040398218336,-11.543928143263766 L-18.971764755176277,-8.874453053056593 " />
			<path d="M-18.971764755176274,-8.874453053056595 L-21.213203435596412,-12.521023841049347 " />
			<path d="M-42.426406871192846,-15.220975073620632 L-42.426406871192846,-12.521023841049344 " />
			<path d="M-34.061243833814764,-14.243879375835053 L-34.061243833814764,-11.543928143263765 " />
			<path d="M-42.426406871192846,-15.220975073620632 L-34.061243833814764,-14.243879375835053 " />
			<path d="M-42.426406871192846,-12.521023841049345 L-34.061243833814764,-11.543928143263766 " />
			<path d="M-34.061243833814764,-11.543928143263766 L-40.18496819077271,-8.874453053056593 " />
			<path d="M-40.18496819077271,-8.874453053056595 L-42.426406871192846,-12.521023841049347 " />
			<path d="M-31.81980515339463,-19.844641559398966 L-31.81980515339463,-17.14469032682768 " />
			<path d="M-23.454642116016547,-18.867545861613387 L-23.454642116016547,-16.1675946290421 " />
			<path d="M-31.81980515339463,-19.844641559398966 L-23.454642116016547,-18.867545861613387 " />
			<path d="M-31.81980515339463,-17.144690326827675 L-23.454642116016547,-16.167594629042096 " />
			<path d="M-23.454642116016547,-16.167594629042096 L-29.57836647297449,-13.498119538834922 " />
			<path d="M-29.578366472974494,-13.498119538834928 L-31.819805153394633,-17.14469032682768 " />
			<path d="M2.4612704941765067,-17.986280007996246 L2.4612704941765067,-15.286328775424957 " />
			<path d="M4.702709174596647,-14.339709220003495 L4.702709174596647,-11.639757987432207 " />
			<path d="M2.4612704941765067,-17.986280007996246 L4.702709174596647,-14.339709220003495 " />
			<path d="M2.4612704941765067,-15.286328775424955 L4.702709174596647,-11.639757987432205 " />
			<path d="M-3.662453862781432,-15.31680491778907 L-3.662453862781432,-12.616853685217782 " />
			<path d="M4.702709174596647,-11.639757987432205 L-3.6624538627814345,-12.616853685217782 " />
			<path d="M-3.662453862781432,-15.31680491778907 L2.461270494176509,-17.986280007996243 " />
			<path d="M-3.662453862781432,-12.616853685217784 L2.461270494176509,-15.286328775424957 " />
			<path d="M16.95015788851254,-16.293900615574657 L16.95015788851254,-13.593949383003368 " />
			<path d="M19.19159656893268,-12.647329827581906 L19.19159656893268,-9.947378595010617 " />
			<path d="M16.95015788851254,-16.293900615574657 L19.191596568932678,-12.647329827581906 " />
			<path d="M16.95015788851254,-13.59394938300337 L19.191596568932678,-9.947378595010619 " />
			<path d="M10.826433531554597,-13.624425525367485 L10.826433531554597,-10.924474292796196 " />
			<path d="M19.19159656893268,-9.947378595010619 L10.8264335315546,-10.924474292796196 " />
			<path d="M10.826433531554597,-13.624425525367485 L11.95511593993799,-14.116444662465167 " />
			<path d="M15.182390935546161,-15.523289534611598 L16.95015788851254,-16.293900615574657 " />
			<path d="M10.826433531554597,-10.924474292796194 L16.95015788851254,-13.593949383003368 " />
			<path d="M6.3435561707143115,-24.302325886196165 L6.3435561707143115,-21.602374653624878 " />
			<path d="M8.584994851134446,-20.655755098203418 L8.584994851134446,-17.95580386563213 " />
			<path d="M6.3435561707143115,-24.302325886196165 L8.584994851134452,-20.655755098203414 " />
			<path d="M6.3435561707143115,-21.602374653624878 L8.584994851134452,-17.955803865632127 " />
			<path d="M0.21983181375637034,-21.632850795988993 L0.21983181375637034,-18.932899563417706 " />
			<path d="M8.584994851134446,-17.95580386563213 L0.21983181375636512,-18.932899563417706 " />
			<path d="M0.21983181375637034,-21.632850795988993 L6.3435561707143115,-24.302325886196165 " />
			<path d="M0.21983181375637034,-18.932899563417706 L6.3435561707143115,-21.602374653624878 " />
			<path d="M20.832443565050337,-22.60994649377458 L20.832443565050337,-19.909995261203292 " />
			<path d="M23.07388224547048,-18.96337570578183 L23.07388224547048,-16.26342447321054 " />
			<path d="M20.832443565050337,-22.60994649377458 L23.073882245470475,-18.96337570578183 " />
			<path d="M20.832443565050337,-19.909995261203292 L23.073882245470475,-16.26342447321054 " />
			<path d="M14.708719208092397,-19.940471403567408 L14.708719208092397,-17.24052017099612 " />
			<path d="M23.07388224547048,-16.263424473210538 L14.708719208092397,-17.240520170996113 " />
			<path d="M14.708719208092397,-19.940471403567408 L20.832443565050337,-22.60994649377458 " />
			<path d="M14.708719208092397,-17.240520170996117 L20.832443565050337,-19.90999526120329 " />
			<path d="M34.281075647571164,-8.73894703643958 L34.281075647571164,-6.038995803868291 " />
			<path d="M34.281075647571164,-6.038995803868292 L28.15735129061322,-3.36952071366112 " />
			<path d="M25.915912610193086,-9.716042734225159 L25.915912610193086,-7.01609150165387 " />
			<path d="M28.157351290613224,-3.3695207136611214 L25.915912610193086,-7.016091501653872 " />
			<path d="M25.915912610193086,-9.716042734225159 L34.281075647571164,-8.73894703643958 " />
			<path d="M25.915912610193086,-7.016091501653871 L34.281075647571164,-6.038995803868291 " />
			<path d="M38.163361324108976,-1.502599985806484 L38.163361324108976,0.27705007433163154 " />
			<path d="M38.163361324108976,0.27705007433163154 L32.03963696715103,2.9465251645388033 " />
			<path d="M29.798198286730898,-3.3999968560252367 L29.798198286730898,-0.7000456234539483 " />
			<path d="M32.03963696715103,2.9465251645388015 L29.798198286730894,-0.7000456234539487 " />
			<path d="M29.798198286730898,-3.3999968560252367 L33.80740392011741,-2.931700236053141 " />
			<path d="M29.798198286730898,-0.7000456234539483 L38.163361324108976,0.2770500743316314 " />
			<path d="M48.76996304190719,-10.43132642886117 L48.76996304190719,-7.73137519628988 " />
			<path d="M48.76996304190719,-7.731375196289881 L42.646238684949246,-5.061900106082709 " />
			<path d="M40.40480000452911,-11.408422126646752 L40.40480000452911,-8.708470894075463 " />
			<path d="M42.646238684949246,-5.061900106082712 L40.40480000452911,-8.708470894075463 " />
			<path d="M40.40480000452911,-11.408422126646752 L48.76996304190719,-10.431326428861173 " />
			<path d="M40.40480000452911,-8.708470894075461 L48.76996304190719,-7.731375196289881 " />
			<path d="M52.652248718445,-4.115280550661247 L52.652248718445,-1.4153293180899582 " />
			<path d="M52.652248718445,-1.4153293180899587 L46.52852436148706,1.254145772117213 " />
			<path d="M44.28708568106693,-5.092376248446829 L44.28708568106693,-2.3924250158755407 " />
			<path d="M46.52852436148706,1.2541457721172096 L44.28708568106692,-2.3924250158755407 " />
			<path d="M44.28708568106693,-5.092376248446829 L52.65224871844501,-4.115280550661249 " />
			<path d="M44.28708568106693,-2.3924250158755402 L52.65224871844501,-1.4153293180899604 " />
			<path d="M31.819805153394658,15.22097507362064 L24.748737341529182,15.22097507362064 " />
			<path d="M24.748737341529182,9.771370120552207 L24.748737341529182,12.13853074976842 " />
			<path d="M24.748737341529182,15.22097507362064 L24.748737341529182,12.13853074976842 " />
			<path d="M31.819805153394658,10.597308587842308 L31.819805153394658,12.13853074976842 " />
			<path d="M24.748737341529182,12.138530749768421 L31.819805153394658,12.138530749768421 " />
			<path d="M31.819805153394658,12.138530749768421 L31.819805153394658,15.220975073620643 " />
			<path d="M-15.182390935546149,15.523289534611601 L-15.182390935546149,17.62863816067824 " />
			<path d="M-11.646857029613406,20.29811325088541 L-15.182390935546145,17.62863816067824 " />
			<path d="M-9.058666578588204,13.387464766180841 L-9.058666578588204,16.087415998752128 " />
			<path d="M-11.955115939937953,14.11644466246516 L-9.058666578588205,13.387464766180841 " />
			<path d="M-15.182390935546149,17.62863816067824 L-9.058666578588205,16.087415998752128 " />
			<path d="M-5.523132672655466,16.056939856388013 L-5.523132672655466,18.7568910889593 " />
			<path d="M-9.058666578588204,13.387464766180841 L-5.523132672655463,16.056939856388013 " />
			<path d="M-9.058666578588204,16.087415998752128 L-5.523132672655463,18.7568910889593 " />
			<path d="M-5.523132672655466,18.7568910889593 L-11.646857029613411,20.29811325088541 " />
			<path d="M-43.46666218300806,3.7271625609791377 L-43.46666218300806,6.427113793550426 " />
			<path d="M-39.931128277075324,1.0576874707719637 L-39.931128277075324,3.757638703343252 " />
			<path d="M-43.46666218300806,3.7271625609791377 L-39.931128277075324,1.0576874707719666 " />
			<path d="M-43.46666218300806,6.427113793550427 L-39.931128277075324,3.7576387033432552 " />
			<path d="M-33.80740392011737,2.931700236053151 L-33.80740392011737,5.298860865269363 " />
			<path d="M-39.931128277075324,1.0576874707719637 L-38.163361324108955,1.5025999858064918 " />
			<path d="M-39.931128277075324,3.757638703343252 L-33.80740392011737,5.298860865269361 " />
			<path d="M-33.80740392011737,5.298860865269362 L-37.342937826050104,7.968335955476534 " />
			<path d="M-37.34293782605012,7.968335955476534 L-43.46666218300807,6.427113793550424 " />
			<path d="M-31.819805153394626,-15.220975073620636 L-31.819805153394626,-12.521023841049347 " />
			<path d="M-24.74873734152915,-15.220975073620636 L-24.74873734152915,-12.521023841049347 " />
			<path d="M-31.819805153394626,-15.220975073620636 L-30.637354563692533,-15.220975073620636 " />
			<path d="M-25.626169113804423,-15.220975073620636 L-24.74873734152915,-15.220975073620636 " />
			<path d="M-31.819805153394626,-12.521023841049345 L-24.74873734152915,-12.521023841049345 " />
			<path d="M-24.74873734152915,-12.521023841049345 L-24.748737341529147,-9.438579517197125 " />
			<path d="M-24.74873734152915,-9.438579517197127 L-31.819805153394626,-9.438579517197125 " />
			<path d="M-31.819805153394626,-9.438579517197123 L-31.81980515339463,-12.521023841049345 " />
			<path d="M11.646857029613422,-20.298113250885415 L11.646857029613422,-17.598162018314127 " />
			<path d="M15.182390935546161,-17.18519278466907 L15.182390935546161,-14.928686928106954 " />
			<path d="M11.646857029613422,-20.298113250885415 L14.708719208092397,-17.98628000799625 " />
			<path d="M11.646857029613422,-17.598162018314127 L15.182390935546163,-14.928686928106957 " />
			<path d="M15.182390935546161,-14.928686928106952 L9.05866657858822,-13.38746476618084 " />
			<path d="M5.523132672655482,-18.313445712950134 L5.523132672655482,-16.056939856388013 " />
			<path d="M9.058666578588225,-13.387464766180841 L5.523132672655483,-16.05693985638801 " />
			<path d="M8.584994851134446,-19.527502169922354 L11.646857029613425,-20.29811325088541 " />
			<path d="M5.523132672655482,-16.05693985638801 L11.646857029613425,-17.59816201831412 " />
			<path d="M43.46666218300808,-5.419541953400714 L43.46666218300808,-3.727162560979125 " />
			<path d="M43.46666218300808,-3.727162560979125 L39.931128277075345,-1.057687470771953 " />
			<path d="M33.8074039201174,-5.298860865269354 L33.8074039201174,-2.598909632698066 " />
			<path d="M39.931128277075345,-1.0576874707719557 L33.8074039201174,-2.598909632698066 " />
			<path d="M37.34293782605014,-7.968335955476526 L37.34293782605014,-5.268384722905237 " />
			<path d="M33.8074039201174,-5.298860865269354 L37.34293782605014,-7.968335955476526 " />
			<path d="M33.8074039201174,-2.5989096326980654 L37.34293782605014,-5.268384722905237 " />
			<path d="M37.34293782605014,-7.968335955476526 L41.50335822935541,-6.921239163600516 " />
			<path d="M37.34293782605014,-5.268384722905237 L43.46666218300809,-3.7271625609791266 " />

        </g>
        </g>
    </svg>
    