<?xml version="1.0" encoding="UTF-8" standalone="no"?>
    <svg
    xmlns:svg="http://www.w3.org/2000/svg"
    xmlns="http://www.w3.org/2000/svg"
    width="340"
    height="180"
    >
        <g transform="scale(4, -4)   translate(41.65004707126816,-22.110766765483884)" stroke-width="0.25"  fill="none">
        <!-- hidden lines -->
        <g  stroke="rgb(160,160,160)" fill="none" stroke-dasharray="0.25,0.25" >
    			<path d="M-39.15004707126816,-11.105900280874199 L21.551695588711922,10.511921059910279 " />
			<path d="M21.551695588711922,10.511921059910277 L21.551695588711922,19.61076676548388 " />
			<path d="M41.092392680924206,1.0683649432934677 L21.551695588711926,10.511921059910273 " />
			<path d="M-0.6400553978120982,-13.793887228495858 L-0.853828780053643,-13.68822828316618 L-1.0619042877314318,-13.580629474031797 L-1.2641796739853763,-13.471143674400604 L-1.4605555420947915,-13.359824684834532 L-1.650935394321257,-13.246727206712318 L-1.8352256793269337,-13.131906815349632 L-2.0133358381450446,-13.015419932689749 L-2.185178348679921,-12.897323799578196 L-2.350668768714753,-12.77767644763501 L-2.50972577740591,-12.656536670738383 L-2.662271215243436,-12.533963996133778 L-2.808230122458088,-12.410018655182641 L-2.9475307758560554,-12.284761553765133 L-3.080104724063233,-12.1582542423514 L-3.2058868211617497,-12.03055888575611 L-3.3248152587022233,-11.901738232591073 L-3.4368315960760025,-11.771855584431034 L-3.541880789232481,-11.6409747647077 L-3.6399112177273505,-11.509160087347356 L-3.7308747100885427,-11.37647632516745 L-3.8147265674873427,-11.242988678047677 L-3.8914255857030966,-11.108762740891208 L-3.960934075370666,-10.973864471391815 L-4.023217880500736,-10.838360157622716 L-4.0782463952638075,-10.70231638546308 L-4.125992579029722,-10.565800005878176 L-4.16643296965521,-10.42887810206929 L-4.199547695013038,-10.291617956509489 L-4.22532048275704,-10.154087017881496 L-4.243738668318219,-10.016352867933861 L-4.254793201128045,-9.87848318827177 L-4.258478649065832,-9.740545727098826 " />
			<path d="M-4.258478649065832,-9.74054572709877 L-4.254793201128045,-9.60260826592577 L-4.243738668318221,-9.46473858626368 L-4.22532048275704,-9.327004436316045 L-4.199547695013038,-9.189473497688052 L-4.16643296965521,-9.052213352128252 L-4.125992579029722,-8.915291448319365 L-4.078246395263809,-8.778775068734461 L-4.023217880500736,-8.642731296574825 L-3.960934075370668,-8.507226982805726 L-3.8914255857030966,-8.372328713306333 L-3.8147265674873445,-8.238102776149864 L-3.7308747100885444,-8.10461512903009 L-3.6399112177273505,-7.9719313668501846 L-3.541880789232481,-7.840116689489841 L-3.4368315960760043,-7.709235869766507 L-3.3248152587022233,-7.579353221606468 L-3.2058868211617515,-7.450532568441432 L-3.0801047240632347,-7.3228372118461404 L-2.947530775856057,-7.196329900432409 L-2.808230122458088,-7.0710727990149005 L-2.662271215243436,-6.947127458063763 L-2.5097257774059116,-6.824554783459158 L-2.3506687687147547,-6.703415006562532 L-2.1851783486799228,-6.583767654619345 L-2.0133358381450464,-6.465671521507792 L-1.8352256793269355,-6.349184638847909 L-1.6509353943212588,-6.234364247485222 L-1.4605555420947933,-6.121266769363008 L-1.2641796739853781,-6.009947779796937 L-1.0619042877314353,-5.900461980165743 L-0.853828780053643,-5.7928631710313585 L-0.6400553978121089,-5.687204225701686 " />
			<path d="M-4.258478649065834,-0.641700021525164 L-4.258478649065834,-9.74054572709877 " />

        </g>

        <!-- solid lines -->
        <g  stroke="rgb(0,0,0)" fill="none">
    			<path d="M-19.609349979055878,-11.450610691917404 L-39.15004707126816,-2.0070545753005993 " />
			<path d="M-39.15004707126816,-11.105900280874199 L-39.15004707126816,-2.007054575300593 " />
			<path d="M-19.609349979055878,-20.54945639749101 L-39.15004707126816,-11.105900280874204 " />
			<path d="M-19.609349979055878,-20.549456397491006 L-19.609349979055878,-11.450610691917404 " />
			<path d="M-39.15004707126816,-2.007054575300594 L21.551695588711922,19.610766765483884 " />
			<path d="M41.092392680924206,10.167210648867075 L21.551695588711926,19.61076676548388 " />
			<path d="M41.09239268092421,10.167210648867082 L22.123098099680437,3.4116414798719332 " />
			<path d="M-0.6400553978120982,-4.695041522922254 L-0.853828780053643,-4.589382577592575 L-1.0619042877314318,-4.481783768458191 L-1.2641796739853763,-4.372297968826999 L-1.4605555420947915,-4.260978979260926 L-1.650935394321257,-4.147881501138713 L-1.8352256793269337,-4.0330611097760265 L-2.0133358381450446,-3.9165742271161426 L-2.185178348679921,-3.798478094004591 L-2.350668768714753,-3.6788307420614035 L-2.50972577740591,-3.5576909651647775 L-2.662271215243436,-3.4351182905601725 L-2.808230122458088,-3.3111729496090354 L-2.9475307758560554,-3.185915848191527 L-3.080104724063233,-3.059408536777796 L-3.2058868211617497,-2.9317131801825034 L-3.3248152587022233,-2.802892527017468 L-3.4368315960760025,-2.6730098788574286 L-3.541880789232481,-2.542129059134094 L-3.6399112177273505,-2.410314381773751 L-3.7308747100885427,-2.277630619593846 L-3.8147265674873427,-2.1441429724740715 L-3.8914255857030966,-2.0099170353176024 L-3.960934075370666,-1.8750187658182094 L-4.023217880500736,-1.7395144520491113 L-4.0782463952638075,-1.6034706798894738 L-4.125992579029722,-1.4669543003045702 L-4.16643296965521,-1.3300323964956833 L-4.199547695013038,-1.1927722509358833 L-4.22532048275704,-1.0552413123078899 L-4.243738668318219,-0.9175071623602555 L-4.254793201128045,-0.7796374826981656 L-4.258478649065832,-0.6417000215252211 " />
			<path d="M-4.258478649065832,-0.6417000215251643 L-4.255770736812982,-0.5234608282187126 L-4.247647977759602,-0.4052643257603039 L-4.234113304668194,-0.28715318958423824 L-4.215171604299705,-0.16917006430289544 L-4.190829715649137,-0.051357548309685974 L-4.161096427476295,0.0662418216013102 L-4.12598247513256,0.1835855855934656 L-4.0855005366848385,0.30063137611793866 L-4.039665228338082,0.41733693321068865 L-3.9884930991580383,0.5336601197506452 L-3.9320026250961178,0.6495589366735257 L-3.870214202318575,0.764991538135805 L-3.803150139842357,0.8799162466233661 L-3.7308346514803326,0.9942915679993733 L-3.6532938470987713,1.108076206485936 L-3.570555723190239,1.221229079574155 L-3.4826501527653413,1.333709332857167 L-3.3896088745669086,1.4454763547808276 L-3.2914654816105777,1.5564897913067215 L-3.188255409055854,1.666709560482181 L-3.0800159214120875,1.7760958669120788 L-2.966786099083917,1.884609216127151 L-2.848606824261118,1.992210428843673 L-2.725520766157862,2.0988606551093336 L-2.597572365606805,2.204521388330203 L-2.4648078190134903,2.3091544791737286 L-2.327275061676911,2.4127221493427453 L-2.185023750482239,2.515187005215513 L-2.0381052459719466,2.6165120513468714 L-1.8865725938018425,2.7166607038256267 L-1.7304805055886572,2.815596803483361 L-1.5698853391561602,2.913284628949871 L-1.4048450781868755,3.0096889095505523 L-1.2354193112867868,3.1047748380410494 L-1.0616692104705816,3.198508083174584 L-0.8836575090751833,3.290854802097425 L-0.7014484791095708,3.381781652568014 L-0.5151079080490586,3.4712558049953497 L-0.32470307508238605,3.559244954292277 L-0.13030272682025057,3.6457173315393963 L0.06802294752601945,3.7306417154553895 L0.27020234148660194,3.81398744366962 L0.47616245718707617,3.8957244237929345 L0.6858289317046538,3.9758231442826686 L0.8991260639172882,4.054254685097935 L1.1159768418359342,4.130990728141348 L1.336302970410122,4.206003567483417 L1.5600248997967565,4.2792661193659045 L1.787061854081994,4.350751931980556 L2.017331860445788,4.420435195019651 L2.2507517787585787,4.4882907489949515 L2.4872373315994523,4.554294094321651 L2.7267031346849198,4.61842140016408 L2.969062727697338,4.68064951303994 L3.2142286055018454,4.740955965179987 L3.4621122497405015,4.799318982640131 L3.7126241607923083,4.8557174931630245 L3.965673890087479,4.910131133786312 L4.221170072764336,4.962540258194769 L4.479020460657064,5.01292594381371 L4.739131955602364,5.061269998641076 L5.001410643052995,5.107554967815741 L5.265761825986102,5.151764139919687 L5.532090059094049,5.193881553011738 L5.800299183245403,5.233892000390696 L6.070292360203679,5.271781036085802 L6.341972107591269,5.3075349800725204 L6.615240334085939,5.3411409232117855 L6.889998374837169,5.372586731910902 L7.166147027089613,5.401861052504448 L7.443586586000734,5.428953315353566 L7.722216880639728,5.453853738662185 L8.001937310154748,5.476553332008789 L8.282646880095335,5.497043899592451 L8.564244238876961,5.515318043191964 L8.846627714374533,5.531369164837017 L9.12969535063161,5.54519146919041 L9.413344944672112,5.556779965640502 L9.697474083401206,5.566130470103088 L9.981980180582077,5.573239606532089 L10.266760513875182,5.578104808138484 L10.551712261926662,5.580724318317069 L10.83673254149252,5.581097191280682 L11.121718444585111,5.579223292401687 L11.40656707562858,5.575103298260582 L11.691175588609834,5.568738696401717 L11.975441224211602,5.560131784796206 L12.259261346914181,5.5492856710122345 L12.542533482052528,5.536204271093057 L12.825155352815226,5.520892308143091 L13.107024917172033,5.503355310622616 L13.388040404716687,5.483599610351692 L13.668100353411589,5.461632340224029 L13.94710364622119,5.437461431631621 L14.2249495476208,5.4110956116010716 L14.50153773996765,5.382544399642664 L14.776768359721064,5.35181810431329 L15.05054203349869,5.3189278194945 L15.322759913955771,5.283885420386992 L15.59332371547445,5.246703559223022 L15.862135749650278,5.207395660698248 L16.129098960563123,5.165975917124676 L16.394116959819662,5.1224592833064575 L16.657094061354904,5.076861471140381 L16.917935315980124,5.029198943943017 L17.17654654566473,4.97948891050655 L17.432834377539706,4.927749318885466 L17.686706277610362,4.873998849916312 L17.938070584166187,4.818256910472889 L18.18683654087576,4.760543626459309 L18.432914329554773,4.700879835543427 L18.676215102595343,4.639287079633308 L18.916651015044884,4.575787597099407 L19.154135256322952,4.510404314745296 L19.388582081564632,4.443160839529832 L19.619906842579162,4.374081450043742 L19.848026018412583,4.303191087743723 L20.07285724550337,4.230515347947199 L20.294319347420245,4.1560804705910055 L20.5123323641713,4.079913330757333 L20.72681758107395,4.002041428970344 L20.937697557175277,3.922492881266974 L21.144896153212457,3.8412964090454915 L21.34833855910322,3.7584813286955017 L21.54795132095642,3.6740775410131077 L21.743662367592904,3.58811552040509 L21.935401036567182,3.5006263038859666 L22.12309809968039,3.411641479871946 " />
			<path d="M-0.6400553978120967,-4.695041522922246 L-19.609349979055875,-11.450610691917396 " />
			<path d="M41.09239268092421,1.0683649432934725 L22.123098099680437,-5.687204225701676 " />
			<path d="M-0.6400553978121,-5.687204225701681 L-0.3729501863673086,-5.561580026751582 L-0.09779122776915194,-5.438983981951704 L0.18522209282293822,-5.319504926614057 L0.47588469883672424,-5.203229437423692 L0.7739859708893668,-5.090241769703675 L1.079309899406038,-4.980623796362152 L1.3916352411443658,-4.874454948565759 L1.7107356795112967,-4.771812158182364 L2.0363799885561846,-4.672769802034839 L2.368332200521296,-4.577399648006275 L2.706351776828333,-4.4857708030356696 L3.0501937823770247,-4.39794966304179 L3.3996090630295317,-4.3139998648114934 L3.754344426152045,-4.233982239887355 L4.114142824082755,-4.157954770488033 L4.4787435403932285,-4.085972547493304 L4.8478823788082535,-4.018087730524218 L5.221291854647238,-3.9543495101472885 L5.598701388648452,-3.8948040722301203 L5.979837503035659,-3.839494564474294 L6.364424019685048,-3.788461065149762 L6.7521822602489046,-3.7417405540534068 L7.142831248090996,-3.699366885712812 L7.536087911887304,-3.661370764854662 L7.931667290744636,-3.6277797241555367 L8.329282740688452,-3.598618104291239 L8.72864614237026,-3.573907036299099 L9.129468109844124,-3.553664426266046 L9.531458200260941,-3.537904942353528 L9.934325124328586,-3.5266400041686996 L10.337776957385424,-3.5198777744895713 L10.741521350934166,-3.5176231533501063 L11.14526574448291,-3.5198777744895713 L11.548717577539747,-3.5266400041686996 L11.951584501607392,-3.537904942353528 L12.35357459202421,-3.553664426266046 L12.754396559498073,-3.573907036299099 L13.15375996117988,-3.598618104291239 L13.551375411123697,-3.6277797241555367 L13.946954789981032,-3.661370764854662 L14.340211453777338,-3.699366885712812 L14.730860441619429,-3.741740554053406 L15.118618682183286,-3.788461065149761 L15.503205198832674,-3.839494564474294 L15.884341313219881,-3.8948040722301203 L16.261750847221094,-3.9543495101472885 L16.63516032306008,-4.018087730524218 L17.004299161475103,-4.085972547493304 L17.368899877785577,-4.157954770488032 L17.72869827571629,-4.233982239887355 L18.083433638838805,-4.3139998648114934 L18.43284891949131,-4.39794966304179 L18.77669092504,-4.485770803035669 L19.114710501347034,-4.577399648006274 L19.446662713312147,-4.672769802034837 L19.772307022357037,-4.771812158182363 L20.09140746072397,-4.874454948565759 L20.403732802462294,-4.980623796362151 L20.709056730978965,-5.090241769703674 L21.007158003031606,-5.20322943742369 L21.297820609045388,-5.319504926614054 L21.580833929637485,-5.438983981951703 L21.855992888235647,-5.5615800267515825 L22.12309809968039,-5.6872042257016595 " />
			<path d="M-0.6400553978120967,-13.793887228495855 L-19.609349979055875,-20.549456397491006 " />
			<path d="M-0.6400553978121035,-4.695041522922251 L-0.6400553978121035,-13.793887228495857 " />
			<path d="M41.092392680924206,1.0683649432934672 L41.092392680924206,10.16721064886707 " />
			<path d="M22.123098099680433,-5.687204225701681 L22.123098099680433,3.411641479871925 " />

        </g>
        </g>
    </svg>
    