<?xml version="1.0" encoding="UTF-8" standalone="no"?>
    <svg
    xmlns:svg="http://www.w3.org/2000/svg"
    xmlns="http://www.w3.org/2000/svg"
    width="685"
    height="315"
    >
        <g transform="scale(4, -4)   translate(69.98943668548662,-42.41108297644405)" stroke-width="0.25"  fill="none">
        <!-- hidden lines -->
        <g  stroke="rgb(160,160,160)" fill="none" stroke-dasharray="0.25,0.25" >
    			<path d="M74.30900449261009,31.48196263786909 L74.30900449261009,39.91108297644405 " />
			<path d="M98.93480154245316,2.0432727271972304 L74.30900449261009,31.481962637869085 " />
			<path d="M1.357634149408149,13.81537004507351 L74.30900449261011,31.481962637869092 " />
			<path d="M-9.274632347476988,18.33207270772622 L-9.356800876893114,18.310624507392497 L-9.43824812658698,18.28625222535704 L-9.51896183090237,18.258959531995878 L-9.5989298346523,18.22875053748824 L-9.678140094949551,18.195629791197575 L-9.756580683020282,18.159602280986455 L-9.834239786000454,18.120673432465395 L-9.911105708714814,18.07884910817579 L-9.987166875438135,18.034135606707032 L-10.062411831638482,17.986539661747983 L-10.136829245702225,17.936068441072877 L-10.210407910640534,17.8827295454619 L-10.283136745777117,17.826531007556532 L-10.355004798416914,17.76748129064987 L-10.426001245495552,17.705589287412074 L-10.496115395209248,17.640864318551188 L-10.565336688624953,17.573316131409427 L-10.633654701270494,17.502954898495332 L-10.701059144704463,17.429791215951752 L-10.767539868065608,17.353836101960177 L-10.83308685960153,17.275100995081374 L-10.8976902481764,17.193597752532845 L-10.961340304757531,17.10933864840311 L-11.024027443880525,17.022336371803334 L-11.085742225092813,16.932604024956348 L-11.14647535437535,16.840155121223518 L-11.206217685542255,16.74500358306971 L-11.264960221618207,16.647163739966558 L-11.322694116193347,16.546650326234563 L-11.379410674755508,16.443478478824105 L-11.435101355999597,16.33766373503591 L-11.489757773113862,16.229222030181184 L-11.543371695042927,16.11816969518179 L-11.595935047727359,16.004523454110902 L-11.697878541375996,15.769518100633453 L-11.795526847111114,15.524347528186366 L-11.888821145244643,15.269159418354961 L-11.977705238779883,15.004107486914494 L-12.062125587262482,14.729351391237552 L-12.142031339031192,14.445056634122361 L-12.217374361849018,14.151394464100152 L-12.288109271896271,13.848541772281408 L-12.354193461108087,13.53668098580329 L-12.41558712283993,13.215999957942346 L-12.472253275845633,12.886691854958718 L-12.524157786553506,12.548955039740031 L-12.571269389627137,12.20299295231497 L-12.613559706798448,11.84901398730865 L-12.65100326396171,11.487231368413463 L-12.683577506518198,11.117863019951107 L-12.711262812962222,10.741131435603123 L-12.734042506700398,10.357263544389024 L-12.751902866097012,9.966490573972733 L-12.7648331327394,9.56904791137968 L-12.772825517918433,9.165174961208484 L-12.775875207320132,8.755115001422531 L-12.773980363925638,8.339115036808478 L-12.767142129117758,7.917425650189758 L-12.755364621993444,7.4903008514849 L-12.738654936882597,7.057997924701414 L-12.717023139074714,6.620777272957548 L-12.690482258755926,6.178902261625173 L-12.65904828316011,5.732639059688349 L-12.62274014693878,5.282256479413064 L-12.581579720755537,4.828025814424795 L-12.535591798112034,4.370220676291346 L-12.484804080413266,3.9091168297094887 L-12.429247160281305,3.444992026394625 L-12.36895450312743,2.978125837773531 L-12.30396242699382,2.508799486580977 L-12.23431008067693,2.0372956774616777 L-12.160039420145715,1.563898426679586 L-12.081195183268914,1.0888928910371032 L-11.99782486286665,0.6125651961073046 L-11.909978678102515,0.13520226388257983 L-11.81770954423343,-0.3429083600564524 L-11.721073040735476,-0.8214786797476386 L-11.620127377824883,-1.3002204223252944 L-11.514933361394391,-1.7788452116650018 L-11.405554356386038,-2.2570647420905923 L-11.292056248622496,-2.734590952038712 L-11.174507405119918,-3.2111361975763493 L-11.052978632906191,-3.6864134256667693 L-10.927543136369446,-4.160136347079527 L-10.79827647316246,-4.632019608840402 L-10.66525650868956,-5.101778966117362 L-10.528563369203404,-5.56913145343902 L-10.388279393539936,-6.033795555142446 L-10.244489083520532,-6.495491374947689 L-10.097279053051292,-6.953940804556814 L-9.946737975950027,-7.4088676911759475 L-9.792956532532493,-7.859998003859407 L-9.636027354989945,-8.307059998575678 L-9.476044971590973,-8.749784381895873 L-9.313105749741208,-9.187904473206013 L-9.147307837935205,-9.62115636534545 L-8.978751106635457,-10.049279083574692 L-8.807537088114149,-10.472014742776825 L-8.63376891529394,-10.889108702797843 L-8.457551259624523,-11.300309721832376 L-8.278990268032475,-11.705370107762358 L-8.0981934989823,-12.104045867357483 L-7.915269857687249,-12.496096853247625 L-7.730329530508884,-12.881286908578609 L-7.543483918584931,-13.259384009264293 L-7.354845570725406,-13.630160403749178 L-7.164528115617419,-13.99339275019745 L-6.972646193379498,-14.348862251025748 L-6.779315386506668,-14.696354784698638 L-6.58465215024789,-15.035661034707404 L-6.38877374245776,-15.366576615654521 L-6.191798152964761,-15.688902196367758 L-5.993844032498617,-16.002443619969824 L-5.795030621219511,-16.30701202083121 L-5.595477676892287,-16.60242393833579 L-5.395305402748841,-16.888501427390615 L-5.1946343750821935,-17.16507216561341 L-4.993585470615837,-17.431969557133108 L-4.792279793692126,-17.689032832940995 L-4.5908386033235296,-17.936107147731946 L-4.389383240150757,-18.173043673177425 L-4.188035053351678,-18.39969968757414 L-3.986915327545133,-18.615938661814226 L-3.786145209733591,-18.82163034162531 L-3.585845636328747,-19.016650826030755 L-3.3861372603039355,-19.20088264198307 L-3.187140378517297,-19.37421481512518 L-2.988974859249446,-19.536542936637296 L-2.890241184433598,-19.613549661099057 L-2.7917600699993015,-19.687769226128857 L-2.6935463468401455,-19.75919045453319 L-2.5956148055815746,-19.827802590537786 L-2.49798019435349,-19.893595301407323 L-2.400657216569209,-19.95655867900156 L-2.303660528711206,-20.01668324126741 L-2.2070047381238913,-20.07395993366697 L-2.1107044008137965,-20.128380130541032 L-2.014774019257502,-20.179935636408132 L-1.9192280402176092,-20.22861868719871 L-1.8240808525671164,-20.2744219514244 L-1.7293467851225048,-20.317338531282083 L-1.6350401044858733,-20.357361963692682 L-1.5411750128964377,-20.394486221274512 L-1.447765646091728,-20.428705713250913 L-1.354826071178799,-20.460015286292283 L-1.2623702845157743,-20.48841022529207 L-1.1704122096040446,-20.513886254076922 L-1.0789656949914441,-20.536439536050608 L-0.9880445121867085,-20.556066674771806 L-0.8976623535855315,-20.572764714465634 L-0.8078328304085471,-20.58653114046873 L-0.7185694706515271,-20.597363879607975 L-0.6298857170481118,-20.6052613005127 L-0.5417949250453962,-20.61022221386036 L-0.4543103607926273,-20.61224587255567 L-0.36744519914338625,-20.611331971843057 L-0.2812125216715078,-20.60748064935261 L-0.19562531470102762,-20.600692485079335 L-0.1106964673505022,-20.590968501295798 L-0.02643876959194902,-20.578310162398196 L0.05713508967527403,-20.56271937468579 L0.14001252453534008,-20.54419848607389 " />

        </g>

        <!-- solid lines -->
        <g  stroke="rgb(0,0,0)" fill="none">
    			<path d="M25.98343119925122,-15.623319865598347 L25.98343119925122,-7.194199527023388 " />
			<path d="M25.98343119925122,-7.194199527023386 L1.3576341494081525,22.24449038364847 " />
			<path d="M1.357634149408149,13.81537004507351 L1.357634149408149,22.24449038364847 " />
			<path d="M25.98343119925122,-15.623319865598347 L1.3576341494081525,13.815370045073507 " />
			<path d="M98.93480154245316,2.0432727271972304 L98.93480154245316,10.47239306577219 " />
			<path d="M98.93480154245316,10.472393065772192 L74.30900449261009,39.91108297644405 " />
			<path d="M25.98343119925122,-15.623319865598347 L98.93480154245319,2.043272727197234 " />
			<path d="M25.98343119925122,-7.194199527023386 L98.93480154245319,10.472393065772195 " />
			<path d="M1.357634149408149,22.244490383648472 L74.30900449261011,39.91108297644405 " />
			<path d="M-4.567309911470802,15.752177787976079 L-4.723963043273473,15.936377213980682 L-4.880559116791592,16.11436921606927 L-5.037041094523126,16.286088963630505 L-5.193351980523546,16.45147391061691 L-5.349434841165605,16.610463818326217 L-5.5052328258764796,16.7630007773423 L-5.660689187844669,16.90902922862776 L-5.815747304689015,17.048495983760297 L-5.9703506990824975,17.18135024430577 L-6.124443059323163,17.30754362032065 L-6.277968259844686,17.427030147977234 L-6.430870381659189,17.53976630630524 L-6.583093732724819,17.64571103304356 L-6.734582868230596,17.744825739596514 L-6.885282610791292,17.837074325089105 L-7.0351380705448765,17.922423189516138 L-7.184094665145201,18.000841245980503 L-7.332098139642722,18.07229993201601 L-7.479094586245982,18.1367732199908 L-7.6250304639565805,18.194237626587537 L-7.769852618070603,18.244672221356694 L-7.913508299539362,18.28805863434024 L-8.055945184182308,18.324381062762505 L-8.197111391745265,18.353626276786137 L-8.336955504796958,18.375783624330808 L-8.47542658745692,18.390845034953053 L-8.612474203948047,18.39880502278585 L-8.748048436967018,18.399660688536684 L-8.88209990586579,18.393411720543604 L-9.01457978463769,18.38006039488875 L-9.145439819701505,18.3596115745693 L-9.274632347476926,18.332072707726233 " />
			<path d="M0.14001252453537028,-20.54419848607388 L0.27204808033201644,-20.50820115947056 L0.40219176216004016,-20.464618859738287 L0.5303926923112288,-20.413468624719364 L0.6566007525668214,-20.3547704508262 L0.7807666037904619,-20.288547285223963 L0.9028417052165949,-20.21482501685977 L1.022778333426741,-20.133632466341787 L1.1405296010062527,-20.045001374672225 L1.256049474874236,-19.94896639083872 L1.369292794279497,-19.845565058268768 L1.480215288455442,-19.73483780015276 L1.5887735939270762,-19.616827903641095 L1.6949252714632967,-19.491581502921747 L1.7986288226678724,-19.359147561184777 L1.8998437062026108,-19.219577851480963 L1.998530353636383,-19.07292693648182 L2.0946501849138137,-18.919252147149265 L2.188165623437552,-18.758613560322814 L2.2790401107582987,-18.591073975233556 L2.3672381208667597,-18.416698888953682 L2.452725174082019,-18.2355564707914 L2.535467850530842,-18.04771753564119 L2.6154338032126674,-17.853255516299782 L2.6925917706451834,-17.652246434758702 L2.7669115890855362,-17.444768872484644 L2.83836420432238,-17.230903939699218 L2.9069216830341897,-17.01073524367012 L2.972557223709373,-16.784348856026156 L3.0352451671239074,-16.55183327910883 L3.094961006372439,-16.313279411373685 L3.151681396448878,-16.06878051185492 L3.205384163372776,-15.818432163707197 L3.2560483128579207,-15.562332236838825 L3.3036540385197206,-15.300580849651 L3.3481827296182205,-15.033280329898057 L3.3896169783336862,-14.760535174683943 L3.427940586571932,-14.482452009610668 L3.4631385722967174,-14.199139547094635 L3.4951971753867515,-13.910708543867155 L3.524103863015,-13.617271757675775 L3.5498473345482164,-13.318943903203353 L3.572417525964733,-13.015841607222065 L3.5918056137888605,-12.708083362999938 L3.608004018540278,-12.395789483977682 L3.6210064076971253,-12.079082056733993 L3.6308076981716013,-11.758084893257633 L3.6374040582971183,-11.43292348254499 L3.640792909326244,-11.103724941542074 L3.640972926438815,-10.770617965450038 L3.6379440392598568,-10.43373277741375 L3.631707431887097,-10.093201077613015 L3.622265542428064,-9.749155991776377 L3.609622062046938,-9.40173201913763 L3.593781933521555,-9.051064979855354 L3.5747513493110894,-8.697291961916099 L3.5525377491352206,-8.340551267541892 L3.527149817065677,-7.980982359123068 L3.498597478131334,-7.618725804697561 L3.4668918944381684,-7.253923222997946 L3.4320454608056057,-6.886717228087735 L3.3940717999209546,-6.517251373608565 L3.352985757013818,-6.14567009666006 L3.3088033940525774,-5.772118661334332 L3.26154198346521,-5.396743101927193 L3.211220001386888,-5.0196901658482 L3.157857120437015,-4.641107256252005 L3.101474202028516,-4.26114237441335 L3.042093288212385,-3.879944061868148 L2.9797375930606664,-3.4976613423434326 L2.9144314935912714,-3.114443663498778 L2.8462005202381544,-2.7304408385019983 L2.7750713468705657,-2.345802987461939 L2.701071780365316,-1.9606804787412984 L2.6242307497360855,-1.5752238701723793 L2.5445782948240714,-1.189583850198776 L2.462145554554364,-0.8039111789660047 L2.376964754762649,-0.4183566293840979 L2.28906919559701,-0.03307092818521218 L2.1984932384997355,0.35179530300071415 L2.105272292774229,0.7360916065292133 L2.0094428017422805,1.1196677475604337 L1.911042228497097,1.5023737727911826 L1.8101090412576717,1.8840600690769067 L1.7066826983302166,2.2645774219206958 L1.600803632682533,2.643777073806433 L1.4925132361373485,3.021510782353305 L1.3818538431908145,3.397630878268922 L1.2688687144624762,3.7719903230783824 L1.15360201978317,4.144442766606794 L1.0360988209275082,4.5148426041926335 L0.9164050539976625,4.883045033609663 L0.7945675114653312,5.248906111675214 L0.6706338238789282,5.612282810522595 L0.544652441243139,5.973033073515677 L0.4166726140781245,6.331015870783782 L0.2867443741657709,6.686091254355195 L0.15491851499052434,7.038120412867702 L0.021246571882439724,7.386965725834802 L-0.1142191981297751,7.732490817446356 L-0.2514258367478579,8.074560609882658 L-0.39031970510724,8.413041376121058 L-0.5308465047463518,8.747800792214537 L-0.6729512988337789,9.078707989021746 L-0.816578533645,9.40563360336833 L-0.9616720602802658,9.728449828619501 L-1.1081751566151703,10.047030464644118 L-1.2560305494753075,10.36125096715072 L-1.4051804370263548,10.67098849637625 L-1.5555665113708264,10.976121965108383 L-1.7071299813426677,11.276532086022762 L-1.859811595490771,11.572101418316567 L-2.013551665242436,11.862714413620226 L-2.16829008823773,12.148257461169335 L-2.3239663718255876,12.428618932219027 L-2.4805196567124868,12.70368922368357 L-2.6378887407544886,12.973360800984015 L-2.796012102883288,13.237528240087256 L-2.9548279271569484,13.496088268719939 L-3.1142741269259036,13.748939806741195 L-3.274288369104806,13.995984005658414 L-3.434808098540699,14.237124287270555 L-3.5957705624680125,14.472266381423944 L-3.7571128350408074,14.701318362865774 L-3.918771841932691,14.92419068718087 L-4.080684384994765,15.140796225797759 L-4.242787166961992,15.351050300050249 L-4.405016816198307,15.55487071428128 L-4.56730991147073,15.752177787975993 " />
			<path d="M-59.280837668872266,2.5022333433793946 L-59.43749080067494,2.686432769383998 L-59.59408687419306,2.8644247714725886 L-59.75056885192459,3.0361445190338188 L-59.90687973792501,3.201529466020226 L-60.06296259856707,3.3605193737295345 L-60.21876058327795,3.5130563327456166 L-60.37421694524613,3.6590847840310765 L-60.52927506209048,3.798551539163615 L-60.68387845648396,3.9314057997090863 L-60.83797081672463,4.057599175723965 L-60.99149601724615,4.177085703380552 L-61.144398139060655,4.289821861708553 L-61.296621490126284,4.395766588446875 L-61.44811062563206,4.494881294999832 L-61.59881036819276,4.587129880492419 L-61.74866582794634,4.672478744919456 L-61.89762242254667,4.750896801383821 L-62.04562589704419,4.822355487419323 L-62.19262234364745,4.886828775394118 L-62.33855822135804,4.944293181990851 L-62.483380375472066,4.9947277767600085 L-62.627036056940824,5.038114189743556 L-62.76947294158377,5.074436618165823 L-62.91063914914673,5.103681832189455 L-63.050483262198426,5.125839179734122 L-63.18895434485838,5.14090059035637 L-63.32600196134951,5.148860578189165 L-63.46157619436848,5.149716243939999 L-63.59562766326725,5.143467275946918 L-63.728107542039155,5.1301159502920655 L-63.858967577102966,5.1096671299726175 L-63.98816010487839,5.0821282631295475 " />
			<path d="M-63.98816010487845,5.082128263129533 L-64.07032863429458,5.060680062795811 L-64.15177588398845,5.036307780760357 L-64.23248958830384,5.009015087399195 L-64.31245759205376,4.978806092891556 L-64.39166785235102,4.945685346600893 L-64.47010844042174,4.909657836389773 L-64.54776754340192,4.870728987868709 L-64.62463346611628,4.828904663579106 L-64.7006946328396,4.78419116211035 L-64.77593958903995,4.736595217151301 L-64.8503570031037,4.686123996476194 L-64.923935668042,4.632785100865213 L-64.99666450317858,4.576586562959847 L-65.06853255581838,4.517536846053186 L-65.13952900289702,4.455644842815392 L-65.20964315261071,4.390919873954502 L-65.27886444602642,4.323371686812745 L-65.34718245867197,4.25301045389865 L-65.41458690210592,4.17984677135507 L-65.48106762546708,4.103891657363491 L-65.54661461700299,4.025156550484692 L-65.61121800557787,3.9436533079361595 L-65.67486806215899,3.859394203806424 L-65.73755520128199,3.772391927206648 L-65.79926998249428,3.682659580359662 L-65.86000311177682,3.5902106766268354 L-65.91974544294372,3.4950591384730245 L-65.97848797901968,3.397219295369876 L-66.03622187359481,3.2967058816378767 L-66.09293843215697,3.1935340342274188 L-66.14862911340106,3.087719290439228 L-66.20328553051533,2.9792775855845015 L-66.25689945244439,2.8682252505851054 L-66.30946280512882,2.7545790095142166 L-66.41140629877746,2.519573656036769 L-66.50905460451258,2.2744030835896822 L-66.60234890264611,2.0192149737582774 L-66.69123299618136,1.7541630423178098 L-66.77565334466395,1.479406946640868 L-66.85555909643266,1.1951121895256769 L-66.93090211925048,0.9014500195034678 L-67.00163702929774,0.5985973276847236 L-67.06772121850955,0.2867365412066061 L-67.12911488024139,-0.033944486654338135 L-67.1857810332471,-0.36325258963796614 L-67.23768554395497,-0.700989404856653 L-67.2847971470286,-1.046951492281714 L-67.3270874641999,-1.400930457288034 L-67.36453102136318,-1.7627130761832213 L-67.39710526391966,-2.132081424645577 L-67.42479057036368,-2.5088130089935614 L-67.44757026410187,-2.89268090020766 L-67.46543062349848,-3.2834538706239513 L-67.47836089014086,-3.6808965332170036 L-67.4863532753199,-4.0847694833882 L-67.48940296472159,-4.494829443174153 L-67.4875081213271,-4.910829407788206 L-67.48066988651922,-5.332518794406926 L-67.4688923793949,-5.759643593111784 L-67.45218269428406,-6.19194651989527 L-67.43055089647618,-6.6291671716391365 L-67.40401001615739,-7.071042182971511 L-67.37257604056157,-7.517305384908335 L-67.33626790434025,-7.96768796518362 L-67.29510747815701,-8.421918630171888 L-67.2491195555135,-8.879723768305338 L-67.19833183781473,-9.340827614887196 L-67.14277491768277,-9.80495241820206 L-67.08248226052889,-10.271818606823153 L-67.01749018439529,-10.741144958015706 L-66.9478378380784,-11.212648767135006 L-66.87356717754719,-11.686046017917098 L-66.79472294067038,-12.161051553559581 L-66.71135262026812,-12.63737924848938 L-66.62350643550398,-13.114742180714105 L-66.53123730163489,-13.592852804653136 L-66.43460079813694,-14.071423124344323 L-66.33365513522635,-14.550164866921978 L-66.22846111879585,-15.028789656261687 L-66.1190821137875,-15.507009186687277 L-66.00558400602397,-15.984535396635396 L-65.88803516252139,-16.461080642173034 L-65.76650639030765,-16.936357870263453 L-65.64107089377092,-17.41008079167621 L-65.51180423056392,-17.881964053437088 L-65.37878426609103,-18.351723410714044 L-65.24209112660486,-18.819075898035706 L-65.1018071509414,-19.28373999973913 L-64.958016840922,-19.745435819544372 L-64.81080681045276,-20.203885249153497 L-64.6602657333515,-20.65881213577263 L-64.50648428993395,-21.109942448456092 L-64.34955511239141,-21.55700444317236 L-64.18957272899243,-21.999728826492557 L-64.02663350714268,-22.437848917802697 L-63.860835595336674,-22.871100809942135 L-63.69227886403692,-23.299223528171375 L-63.52106484551562,-23.721959187373507 L-63.34729667269541,-24.139053147394527 L-63.17107901702599,-24.55025416642906 L-62.99251802543394,-24.95531455235904 L-62.81172125638376,-25.353990311954167 L-62.628797615088715,-25.746041297844307 L-62.44385728791035,-26.131231353175295 L-62.2570116759864,-26.509328453860977 L-62.068373328126874,-26.880104848345862 L-61.87805587301889,-27.243337194794137 L-61.68617395078096,-27.598806695622432 L-61.49284314390813,-27.94629922929532 L-61.298179907649356,-28.28560547930409 L-61.10230149985922,-28.616521060251205 L-60.90532591036623,-28.938846640964442 L-60.70737178990008,-29.25238806456651 L-60.508558378620975,-29.556956465427895 L-60.30900543429375,-29.852368382932475 L-60.108833160150304,-30.1384458719873 L-59.90816213248366,-30.415016610210092 L-59.707113228017306,-30.68191400172979 L-59.50580755109359,-30.938977277537678 L-59.30436636072499,-31.186051592328628 L-59.10291099755222,-31.422988117774107 L-58.90156281075314,-31.649644132170824 L-58.7004430849466,-31.865883106410912 L-58.499672967135055,-32.07157478622199 L-58.299373393730214,-32.26659527062744 L-58.0996650177054,-32.45082708657975 L-57.900668135918764,-32.624159259721864 L-57.70250261665091,-32.78648738123398 L-57.603768941835064,-32.86349410569574 L-57.505287827400764,-32.93771367072554 L-57.40707410424161,-33.009134899129876 L-57.30914256298304,-33.07774703513447 L-57.21150795175495,-33.14353974600401 L-57.11418497397067,-33.20650312359824 L-57.01718828611267,-33.266627685864094 L-56.92053249552536,-33.32390437826365 L-56.82423215821526,-33.37832457513772 L-56.72830177665897,-33.42988008100482 L-56.632755797619076,-33.4785631317954 L-56.53760860996858,-33.52436639602109 L-56.44287454252397,-33.56728297587877 L-56.34856786188734,-33.60730640828937 L-56.254702770297904,-33.6444306658712 L-56.16129340349319,-33.6786501578476 L-56.068353828580264,-33.70995973088897 L-55.97589804191724,-33.73835466988876 L-55.88393996700551,-33.7638306986736 L-55.79249345239291,-33.78638398064729 L-55.701572269588176,-33.80601111936849 L-55.611190110986996,-33.82270915906232 L-55.521360587810015,-33.836475585065415 L-55.432097228052996,-33.84730832420466 L-55.34341347444958,-33.85520574510939 L-55.25532268244686,-33.86016665845705 L-55.16783811819409,-33.862190317152354 L-55.080972956544855,-33.861276416439736 L-54.99474027907297,-33.85742509394929 L-54.90915307210249,-33.850636929676014 L-54.824224224751966,-33.840912945892484 L-54.73996652699341,-33.828254606994875 L-54.656392667726195,-33.81266381928248 L-54.57351523286613,-33.794142930670574 " />
			<path d="M-54.57351523286609,-33.79414293067057 L-54.44147967706945,-33.75814560406724 L-54.31133599524142,-33.71456330433497 L-54.183135065090234,-33.66341306931605 L-54.05692700483464,-33.60471489542289 L-53.932761153611004,-33.53849172982065 L-53.81068605218487,-33.464769461456456 L-53.69074942397472,-33.38357691093847 L-53.572998156395215,-33.29494581926891 L-53.45747828252723,-33.1989108354354 L-53.34423496312197,-33.095509502865454 L-53.233312468946025,-32.98478224474944 L-53.12475416347439,-32.866772348237774 L-53.01860248593817,-32.741525947518426 L-52.91489893473359,-32.60909200578146 L-52.813684051198855,-32.46952229607764 L-52.71499740376508,-32.32287138107851 L-52.61887757248765,-32.16919659174595 L-52.52536213396391,-32.0085580049195 L-52.43448764664316,-31.84101841983024 L-52.346289636534706,-31.66664333355037 L-52.260802583319446,-31.485500915388084 L-52.17805990687062,-31.297661980237873 L-52.0980939541888,-31.103199960896465 L-52.020935986756285,-30.902190879355384 L-51.94661616831593,-30.694713317081327 L-51.875163553079084,-30.4808483842959 L-51.806606074367274,-30.260679688266805 L-51.74097053369209,-30.034293300622842 L-51.67828259027756,-29.801777723705513 L-51.61856675102903,-29.563223855970367 L-51.561846360952586,-29.318724956451604 L-51.50814359402869,-29.06837660830388 L-51.457479444543544,-28.81227668143551 L-51.40987371888174,-28.550525294247684 L-51.36534502778324,-28.28322477449474 L-51.32391077906778,-28.010479619280627 L-51.28558717082953,-27.732396454207354 L-51.25038918510475,-27.449083991691317 L-51.218330582014715,-27.160652988463838 L-51.189423894386465,-26.86721620227246 L-51.16368042285325,-26.568888347800037 L-51.141110231436734,-26.26578605181875 L-51.1217221436126,-25.958027807596622 L-51.10552373886119,-25.645733928574366 L-51.09252134970434,-25.329026501330677 L-51.082720059229864,-25.008029337854317 L-51.07612369910434,-24.68286792714167 L-51.07273484807522,-24.35366938613876 L-51.07255483096265,-24.020562410046722 L-51.07558371814161,-23.683677222010434 L-51.08182032551437,-23.3431455222097 L-51.0912622149734,-22.999100436373062 L-51.10390569535453,-22.65167646373431 L-51.11974582387991,-22.30100942445204 L-51.13877640809038,-21.947236406512783 L-51.160990008266246,-21.590495712138576 L-51.18637794033579,-21.230926803719754 L-51.214930279270135,-20.868670249294247 L-51.246635862963295,-20.50386766759463 L-51.28148229659586,-20.13666167268442 L-51.319455957480514,-19.76719581820525 L-51.360542000387646,-19.395614541256744 L-51.40472436334889,-19.022063105931018 L-51.45198577393626,-18.64668754652388 L-51.502307756014574,-18.269634610444886 L-51.55567063696445,-17.89105170084869 L-51.61205355537295,-17.511086819010032 L-51.67143446918908,-17.12988850646483 L-51.733790164340796,-16.747605786940117 L-51.79909626381019,-16.36438810809546 L-51.86732723716331,-15.980385283098682 L-51.9384564105309,-15.595747432058623 L-52.01245597703615,-15.210624923337983 L-52.08929700766538,-14.825168314769064 L-52.168949462577395,-14.43952829479546 L-52.251382202847104,-14.053855623562688 L-52.33656300263882,-13.668301073980782 L-52.42445856180446,-13.283015372781897 L-52.51503451890173,-12.89814914159597 L-52.608255464627234,-12.513852838067471 L-52.704084955659184,-12.130276697036251 L-52.80248552890437,-11.747570671805502 L-52.90341871614379,-11.365884375519776 L-53.006845059071246,-10.985367022675987 L-53.11272412471893,-10.606167370790251 L-53.22101452126412,-10.22843366224338 L-53.331673914210654,-9.852313566327762 L-53.44465904293899,-9.477954121518302 L-53.55992573761829,-9.10550167798989 L-53.67742893647396,-8.73510184040405 L-53.7971227034038,-8.36689941098702 L-53.918960245936134,-8.001038332921471 L-54.042893933522535,-7.637661634074089 L-54.16887531615833,-7.276911371081007 L-54.29685514332334,-6.918928573812902 L-54.426783383235694,-6.563853190241489 L-54.55860924241094,-6.211824031728982 L-54.69228118551902,-5.862978718761882 L-54.82774695553124,-5.517453627150328 L-54.96495359414932,-5.175383834714026 L-55.1038474625087,-4.8369030684756265 L-55.244374262147815,-4.502143652382147 L-55.386479056235245,-4.171236455574938 L-55.530106291046465,-3.8443108412283546 L-55.67519981768173,-3.5214946159771827 L-55.82170291401663,-3.202913979952566 L-55.96955830687677,-2.8886934774459636 L-56.11870819442782,-2.5789559482204343 L-56.26909426877229,-2.2738224794883006 L-56.42065773874413,-1.9734123585739223 L-56.57333935289223,-1.677843026280117 L-56.727079422643904,-1.3872300309764576 L-56.8818178456392,-1.1016869834273493 L-57.037494129227056,-0.8213255123776566 L-57.19404741411395,-0.546255220913114 L-57.351416498155956,-0.2765836436126694 L-57.509539860284754,-0.012416204509428042 L-57.66835568455841,0.24614382412325497 L-57.82780188432737,0.4989953621445107 L-57.987816126506274,0.7460395610617301 L-58.148335855942165,0.9871798426738714 L-58.30929831986948,1.2223219368272602 L-58.47064059244227,1.4513739182690895 L-58.632299599334154,1.6742462425841858 L-58.794212142396226,1.890851781201075 L-58.956314924363454,2.1011058554535644 L-59.11854457359977,2.3049262696845965 L-59.280837668872195,2.5022333433793094 " />
			<path d="M-54.57351523286609,-33.79414293067057 L0.14001252453537205,-20.54419848607388 " />
			<path d="M-63.98816010487845,5.082128263129535 L-9.274632347476988,18.33207270772622 " />

        </g>
        </g>
    </svg>
    