<?xml version="1.0" encoding="UTF-8" standalone="no"?>
    <svg
    xmlns:svg="http://www.w3.org/2000/svg"
    xmlns="http://www.w3.org/2000/svg"
    width="415"
    height="236"
    >
        <g transform="scale(4, -4)   translate(51.99747468305833,-31.688101123065103)" stroke-width="0.25"  fill="none">
        <!-- hidden lines -->
        <g  stroke="rgb(160,160,160)" fill="none" stroke-dasharray="0.25,0.25" >
    			<path d="M7.0710678118654755,20.28779613113847 L7.0710678118654755,29.188101123065103 " />
			<path d="M49.49747468305833,0.9455553376744179 L7.0710678118654755,20.287796131138464 " />
			<path d="M-49.49747468305833,-5.501858260146931 L7.0710678118654755,20.287796131138467 " />
			<path d="M-7.0710678118654755,-21.774555335661386 L-7.0710678118654755,-14.65431134212008 " />
			<path d="M-46.669047558312144,-3.7217972617616013 L-7.071067811865475,-21.774555335661383 " />
			<path d="M-46.66904755831214,-3.721797261761604 L-46.66904755831214,3.3984467317797025 " />
			<path d="M-46.669047558312144,-3.7217972617616044 L-38.8600668947525,-0.16167526499095164 " />
			<path d="M46.66904755831214,2.725616336059745 L46.66904755831214,9.845860329601052 " />
			<path d="M38.8600668947525,6.285738332830398 L46.669047558312144,2.725616336059745 " />
			<path d="M-7.071067811865476,-21.774555335661383 L46.66904755831213,2.725616336059744 " />

        </g>

        <!-- solid lines -->
        <g  stroke="rgb(0,0,0)" fill="none">
    			<path d="M49.49747468305833,0.9455553376744179 L49.49747468305833,9.845860329601052 " />
			<path d="M49.49747468305833,9.845860329601052 L7.0710678118654755,29.1881011230651 " />
			<path d="M-7.0710678118654755,-24.844099053610982 L49.49747468305833,0.945555337674417 " />
			<path d="M-7.0710678118654755,-15.94379406168435 L49.49747468305833,9.845860329601049 " />
			<path d="M-7.0710678118654755,-24.844099053610982 L-7.0710678118654755,-15.943794061684349 " />
			<path d="M-7.0710678118654755,-15.94379406168435 L-49.49747468305833,3.3984467317796963 " />
			<path d="M-49.49747468305833,-5.501858260146931 L-49.49747468305833,3.3984467317797025 " />
			<path d="M-7.0710678118654755,-24.844099053610982 L-49.49747468305833,-5.5018582601469355 " />
			<path d="M-49.49747468305833,3.3984467317797025 L7.0710678118654755,29.188101123065103 " />
			<path d="M46.669047558312144,9.845860329601052 L7.0710678118654755,27.898618403500834 " />
			<path d="M-7.071067811865476,-14.654311342120078 L46.66904755831213,9.845860329601049 " />
			<path d="M-7.071067811865475,-14.654311342120078 L-46.669047558312144,3.3984467317797034 " />
			<path d="M-46.669047558312144,3.398446731779703 L7.071067811865468,27.89861840350083 " />
			<path d="M7.0710678118654755,27.898618403500834 L7.0710678118654755,20.77837440995953 " />
			<path d="M-38.8600668947525,-0.16167526499095164 L7.071067811865468,20.778374409959522 " />
			<path d="M7.0710678118654755,20.778374409959525 L38.8600668947525,6.285738332830398 " />

        </g>
        </g>
    </svg>
    