<?xml version="1.0" encoding="UTF-8" standalone="no"?>
    <svg
    xmlns:svg="http://www.w3.org/2000/svg"
    xmlns="http://www.w3.org/2000/svg"
    width="482"
    height="316"
    >
        <g transform="scale(4, -4)   translate(52.17554087029063,-36.225338802065224)" stroke-width="0.25"  fill="none">
        <!-- hidden lines -->
        <g  stroke="rgb(160,160,160)" fill="none" stroke-dasharray="0.25,0.25" >
    			<path d="M-6.5734432719680065,-6.773092798444997 L-34.02858660347479,9.791713592601628 " />
			<path d="M-34.02858660347479,1.02084089562688 L-34.02858660347479,9.791713592601628 " />
			<path d="M-4.631468425104817,-16.71563802927447 L-34.02858660347479,1.020840895626879 " />
			<path d="M28.55923046378856,24.95446610509047 L28.55923046378856,33.72533880206522 " />
			<path d="M65.92974557329116,2.4073120054721047 L28.55923046378856,24.95446610509047 " />
			<path d="M-34.02858660347479,1.02084089562688 L28.559230463788566,24.954466105090475 " />
			<path d="M-34.02858660347479,9.791713592601628 L-19.99508030853341,15.158136257204413 " />
			<path d="M-33.88209778451168,19.162105619978227 L-34.06913824439137,19.08816274194608 L-34.2545368531644,19.01001112355744 L-34.43826569048227,18.927662534158586 L-34.62029708745786,18.841129375144163 L-34.80060363083235,18.75042467808963 L-34.97915816710354,18.65556210278873 L-35.155933806615046,18.556555935196364 L-35.330903927605775,18.453421085277213 L-35.5040421802191,18.346173084760302 L-35.675322490471046,18.234828084800014 L-35.844719064176886,18.119402853543797 L-36.01220639083572,17.99991477360691 L-36.177759247472224,17.876381839454673 L-36.34135270243513,17.748822654692574 L-36.50296211915187,17.617256429264657 L-36.662563159838726,17.48170297656052 L-36.82013178916604,17.342182710431537 L-36.97564427787781,17.198716642116594 L-37.12907720636527,17.05132637707787 L-37.28040746819373,16.900034111747132 L-37.42961227358243,16.744862630183043 L-37.57666915283647,16.585835300639964 L-37.72155595973077,16.42297607204877 L-37.86425087484514,16.256309470410244 L-38.004732408850245,16.085860595101558 L-38.14297940574378,15.911655115096357 L-38.27897104603653,15.733719265099156 L-38.41268684988769,15.552079841594471 L-38.544106680189046,15.366764198811355 L-38.67321074559755,15.177800244603963 L-38.79997960351584,14.985216436248743 L-38.92439416302019,14.789041776158848 L-39.04643568773558,14.589305807516501 L-39.166085798657306,14.386038609823897 L-39.28332647691875,14.179270794373329 L-39.39814006650502,13.969033499637254 L-39.51050927691185,13.755358386578946 L-39.62041718574946,13.538277633884471 L-39.72784724129107,13.317823933116697 L-39.832783264965464,13.094030483792077 L-39.93520945379347,12.866930988380885 L-40.03511038276779,12.636559647231811 L-40.132471007175994,12.40295115342145 L-40.22727666486617,12.166140687529692 L-40.31951307845499,11.926163912341641 L-40.40916635747784,11.683056967476938 L-40.49622300048066,11.436856463947263 L-40.58066989705324,11.187599478642847 L-40.662494329803586,10.935323548748842 L-40.74168397627309,10.680066666092346 L-40.818226910792276,10.421867271420977 L-40.89211160627675,10.16076424861384 L-40.96332693596315,9.896796918825755 L-41.03186217508477,9.630005034565643 L-41.097707002486686,9.36042877370994 L-41.1608515021801,9.088108733451948 L-41.22128616483561,8.813085924188053 L-41.27900188921532,8.535401763341723 L-41.33398998354345,8.255098069126179 L-41.38624216681522,7.9722170542467286 L-41.435750570044064,7.6868013195436955 L-41.48250773744654,7.398893847576888 L-41.52650662756524,7.108537996152561 L-41.56774061432913,6.81577749179395 L-41.60620348805149,6.52065642315614 L-41.64188945636502,6.223219234386532 L-41.67479314509414,5.9235107184316895 L-41.70490959906437,5.621576010291706 L-41.732234282848516,5.317460580223026 L-41.7567630814497,5.011210226890785 L-41.77849230092108,4.7028710704717245 L-41.797418668922134,4.392489545708633 L-41.81353933521146,4.080112394917476 L-41.826851872076,3.7657866609481427 L-41.83735427469668,3.4495596800999984 L-41.8450449614503,3.131479074993175 L-41.84992277414771,2.8115927473968068 L-41.85198697820826,2.489948871015196 L-41.851237262770425,2.1665958842330344 L-41.84767374073858,1.8415824828207423 L-41.84129694876604,1.5149576126010782 L-41.83210784717423,1.1867704620780746 L-41.82010781980803,0.857070455029433 L-41.80529867382744,0.5259072430634877 L-41.787682639435346,0.1933306981418479 L-41.76726236954177,-0.14060909493113982 L-41.74404093936421,-0.47586184605096626 L-41.71802184596466,-0.8123770673864623 L-41.689209007722866,-1.1501040809831036 L-41.65760676374629,-1.4889920263948948 L-41.623219873216634,-1.828989868343787 L-41.586053514673125,-2.1700464044053955 L-41.54611328523265,-2.512110272719891 L-41.50340519974686,-2.85512995972691 L-41.45793568989632,-3.1990538079233195 L-41.40971160322198,-3.5438300236426317 L-41.3587402020939,-3.889406684854947 L-41.3050291626176,-4.2357317489862165 L-41.24858657347807,-4.582753060755668 L-41.189420934721625,-4.930418360030197 L-41.12754115647582,-5.27867528969454 L-41.062956557607656,-5.627471403536077 L-40.99567686432016,-5.976754174143038 L-40.92571220868767,-6.326471000814936 L-40.85307312712997,-6.676569217484036 L-40.77777055882555,-7.026996100646661 L-40.69981584406422,-7.377698877303185 L-40.61922072253928,-7.72862473290543 L-40.535997331579594,-8.079720819310344 L-40.450158204321696,-8.430934262738754 L-40.361716267822416,-8.782212171737939 L-40.270684841112086,-9.133501645146914 L-40.17707763318872,-9.484749780063122 L-40.080908740953525,-9.83590367980943 L-39.982192647087935,-10.186910461900188 L-39.88094421787257,-10.537717266005117 L-39.777178700948454,-10.888271261909887 L-39.67091172302075,-11.238519657472153 L-39.562159287505466,-11.588409706571865 L-39.45093777211936,-11.937888717054616 L-39.33726392641355,-12.286904058666916 L-39.221154869251066,-12.6354031709821 L-39.10262808622883,-12.983333571315729 L-38.981701427044406,-13.330642862629313 L-38.85839310280785,-13.677278741421075 L-38.73272168329923,-14.023189005602688 L-38.60470609417207,-14.368321562360732 L-38.47436561410323,-14.712624436001658 L-38.34171987188955,-15.05604577577914 L-38.20678884349192,-15.39853386370261 L-38.06959284902689,-15.740037122325798 L-37.93015254970658,-16.080504122514107 L-37.78848894472716,-16.419883591189638 L-37.644623368106494,-16.758124419052745 L-37.4985774854712,-17.0951756682789 L-37.350373290794025,-17.43098658018974 L-37.200033103081545,-17.765506582897146 L-37.04757956301303,-18.098685298919165 L-36.89303562953086,-18.430472552766695 L-36.73642457638295,-18.76081837849972 L-36.577769988617845,-19.089673027251983 L-36.41709575903288,-19.416986974723017 L-36.25442608457603,-19.742710928636278 L-36.089785462701926,-20.06679583616242 L-35.923198687682614,-20.389192891306443 L-35.75469084687367,-20.70985354225771 L-35.5842873169361,-21.028729498701672 L-35.4120137600147,-21.345772739092205 L-35.2378961198735,-21.660935517883487 L-35.061960617988625,-21.974170372720295 L-34.88423374959953,-22.28543013158565 L-34.70474227971886,-22.59466791990478 L-34.52351323910175,-22.901837167604214 L-34.340573920175125,-23.206891616125127 L-34.15595187292749,-23.509785325389633 L-33.969674900760076,-23.810472680719258 L-33.781771056299704,-24.108908399704305 L-33.5922686371742,-24.405047539023215 L-33.401196181750834,-24.698845501210904 L-33.20858246483857,-24.990258041374936 L-33.014456493354686,-25.27924127385866 L-32.81884750195643,-25.565751678850233 L-32.62178494863841,-25.84974610893653 L-32.42329851029629,-26.131181795600988 L-32.22341807825762,-26.410016355664396 L-32.02217375378022,-26.686207797667656 L-31.81959584351914,-26.959714528195498 L-31.61571485496251,-27.23049535814036 L-31.410561491837278,-27.498509508905244 L-31.204166649485327,-27.763716618544883 L-30.996561410210724,-28.02607674784408 L-30.787777038598875,-28.285550386332396 L-30.577844976808176,-28.5420984582343 L-30.36679683983494,-28.795682328353806 L-30.154664410752304,-29.04626380789285 L-29.9414796359238,-29.293805160202297 L-29.72727462019236,-29.538269106465037 L-29.51208162204545,-29.779618831309975 L-29.295933048757043,-30.017817988356292 L-29.078861451507226,-30.252830705687103 L-28.86089952048009,-30.48462159125163 L-28.642080079940715,-30.7131557381951 L-28.42243608329197,-30.9383987301156 L-28.202000608111838,-31.160316646247047 L-27.980806851172055,-31.37887606656755 L-27.758888123438794,-31.59404407683234 L-27.536277845056183,-31.805788273530524 L-27.313009540313317,-32.014076768764916 L-27.089116832595643,-32.2188781950543 L-26.864633439321402,-32.42016171005719 L-26.639593166863907,-32.6178970012166 L-26.414029905460424,-32.812054290325015 L-26.187977624108434,-33.00260433800886 L-25.961470365450026,-33.18951844813185 L-25.734542240645194,-33.372768472116526 L-25.507227424234824,-33.55232681318333 L-25.279560148994136,-33.728166430506555 L-25.051574700777365,-33.90026084328662 L-24.823305413354397,-34.06858413473799 L-24.5947866632403,-34.23311095599209 L-24.366052864518267,-34.39381652991482 L-24.137138463657045,-34.5506766548379 L-23.908077934323387,-34.703667708203454 L-23.678905772190465,-34.85276665012161 L-23.449656489742928,-34.99795102684014 L-23.220364611079468,-35.13919897412594 L-22.991064666713616,-35.2764892205577 L-22.761791188373557,-35.4098010907293 L-22.532578703801796,-35.539114508363454 L-22.3034617315554,-35.66440999933512 L-22.07447477580763,-35.785668694604226 L-21.84565232115174,-35.90287233305729 L-21.617028827407726,-36.01600326425748 L-21.38863872443281,-36.12504445110266 L-21.160516406936406,-36.2299794723912 L-20.932696229300433,-36.33079252529487 L-20.705212500405654,-36.42746842773872 L-20.478099478464888,-36.51999262068744 L-20.251391365863856,-36.60835117033791 L-20.025122304010416,-36.69253077021756 L-19.799326368193,-36.77251874318827 L-19.574037562448996,-36.84830304335556 L-19.349289814443864,-36.91987225788255 L-19.12511697036179,-36.98721560870881 L-18.90155278980851,-37.05032295417339 L-18.678630940727263,-37.10918479054221 L-18.45638499432858,-37.16379225343921 L-18.23484842003448,-37.21413711918135 L-18.014054580438195,-37.260211806017026 L-17.794036726279813,-37.30200937526787 L-17.57482799143888,-37.33952353237371 L-17.356461387944556,-37.37274862784047 L-17.13896980100411,-37.401679658090984 L-16.922385984050532,-37.42631226621851 L-16.706742553810006,-37.44664274264287 L-16.492071985389924,-37.4626680256691 L-16.27840660738827,-37.47438570194851 L-16.065778597025044,-37.48179400684217 L-15.854219975296504,-37.484891824686606 L-15.643762602152906,-37.483678688961845 L-15.434438171700524,-37.47815478236166 L-15.226278207428631,-37.46832093676608 L-15.019314057462168,-37.45417863311606 L-14.81357688984085,-37.43573000119053 L-14.60909768782536,-37.41297781928558 L-14.405907245231385,-37.38592551379613 L-14.204036161792182,-37.354577158699875 L-14.00351483855039,-37.31893747494378 L-13.804373473279705,-37.279011829733136 L-13.606642055937234,-37.23480623572325 L-13.410350364147128,-37.18632735011398 L-13.215527958716144,-37.13358247364717 L-13.02220417918193,-37.07657954950721 L-12.83040813939458,-37.01532716212481 L-12.640168723132208,-36.94983453588419 L-12.45151457975121,-36.880111533734016 " />

        </g>

        <!-- solid lines -->
        <g  stroke="rgb(0,0,0)" fill="none">
    			<path d="M3.3419285060278057,-21.52631320399149 L3.3419285060278057,-12.755440507016742 " />
			<path d="M3.3419285060278057,-12.75544050701674 L-6.5734432719680065,-6.773092798444997 " />
			<path d="M3.3419285060278057,-21.52631320399149 L-4.631468425104817,-16.71563802927447 " />
			<path d="M65.92974557329116,2.4073120054721047 L65.92974557329116,11.178184702446853 " />
			<path d="M65.92974557329116,11.178184702446853 L28.55923046378856,33.725338802065224 " />
			<path d="M3.3419285060278057,-21.52631320399149 L65.92974557329117,2.4073120054721073 " />
			<path d="M3.3419285060278057,-12.75544050701674 L65.92974557329117,11.178184702446856 " />
			<path d="M-19.99508030853341,15.158136257204413 L28.559230463788566,33.725338802065224 " />
			<path d="M-23.166806182131396,17.45361513404636 L-23.345109287585892,17.55999464228082 L-23.523396156689394,17.663968426188788 L-23.701650554569373,17.765527017876536 L-23.879856249310127,17.864661169378692 L-24.057997013430935,17.9613618535004 L-24.236056625363645,18.055620264639266 L-24.414018870929873,18.14742781958725 L-24.59186754481746,18.236776158312253 L-24.7695864520561,18.32365714471934 L-24.947159409492087,18.408062867391685 L-25.124570247262,18.489985640310927 L-25.301802810265073,18.569418003557097 L-25.478840959634322,18.64635272398793 L-25.655668574206157,18.720782795897478 L-25.832269551988322,18.792701441654074 L-26.008627811626223,18.86210211231751 L-26.18472729386729,18.928978488235373 L-26.360551963023312,18.99332447961855 L-26.536085808430673,19.055134227095714 L-26.711312845908285,19.11440210224692 L-26.88621711921309,19.171122708116116 L-27.060782701493054,19.225290879702577 L-27.234993696737526,19.27690168443128 L-27.408834241224657,19.325950422602013 L-27.58228850496601,19.372432627817354 L-27.755340693148018,19.41634406738941 L-27.927975047570257,19.45768074272518 L-28.100175848080408,19.496438889690737 L-28.271927414005766,19.532614978953944 L-28.443214105581102,19.566205716305866 L-28.614020325372813,19.597208042960737 L-28.784330519699267,19.625619135834484 L-28.95412918004708,19.65143640780179 L-29.123400844483353,19.674657507931713 L-29.292130099063662,19.695280321701716 L-29.460301579235637,19.713302971190267 L-29.627899971238055,19.728723815247797 L-29.794910013495354,19.74154144964617 L-29.961316498007285,19.751754707206565 L-30.12710427173382,19.75936265790572 L-30.292258237975,19.764364608960626 L-30.45676335774561,19.76676010489168 L-30.620604651144664,19.766548927564067 L-30.783767198719463,19.763731096207678 L-30.946236142824148,19.758306867415342 L-31.10799668897267,19.750276735119485 L-31.269034107186,19.73964143054709 L-31.429333733333408,19.7264019221532 L-31.588880970467805,19.710559415532657 L-31.74766129015496,19.692115353310356 L-31.905660233796404,19.671071415009862 L-32.06286341394609,19.6474295169005 L-32.21925651562053,19.62119181182281 L-32.3748252976023,19.592360688992542 L-32.52955559373683,19.560938773783114 L-32.683433314222434,19.526928927486487 L-32.83644444689327,19.490334247052665 L-32.9885750584953,19.451158064807665 L-33.139811295955155,19.40940394815008 L-33.29013938764147,19.36507569922619 L-33.43954564461902,19.318177354583824 L-33.5880164618952,19.268713184804696 L-33.735538319658914,19.216687694115613 L-33.88209778451154,19.162105619978284 " />
			<path d="M-12.451514579751143,-36.88011153373399 L-12.300707116857781,-36.820873078271326 L-12.150961664271705,-36.75890173825631 L-12.002292857531685,-36.694203570526945 L-11.854715226949299,-36.62678489843079 L-11.70824319618882,-36.556652311206925 L-11.562891080857478,-36.483812663341965 L-11.41867308710633,-36.40827307390009 L-11.275603310241783,-36.330040925827326 L-11.133695733348004,-36.24912386522986 L-10.992964225920236,-36.16552980062685 L-10.853422542509263,-36.07926690217739 L-10.715084321377098,-35.99034360088204 L-10.577963083164024,-35.8987685877588 L-10.442072229567142,-35.80455081299368 L-10.307425042030534,-35.707699485065945 L-10.17403468044721,-35.60822406984811 L-10.041914181872874,-35.50613428968081 L-9.911076459251754,-35.4014401224225 L-9.781534300154558,-35.29415180047437 L-9.65330036552864,-35.18427980978017 L-9.526387188460568,-35.07183488880143 L-9.400807172951207,-34.95682802746787 L-9.27657259270339,-34.839270466103294 L-9.153695589922332,-34.71917369432705 L-9.0321881741289,-34.59654944993102 L-8.912062220985852,-34.47140971773245 L-8.793329471137156,-34.343766728402585 L-8.67600152906049,-34.213632957271315 L-8.560089861933097,-34.08102112310785 L-8.445605798510996,-33.94594418687766 L-8.332560528021766,-33.808415350475705 L-8.220965099070966,-33.668448055436144 L-8.110830418562259,-33.526055981618626 L-8.002167250631441,-33.38125304587124 L-7.894986215594388,-33.234053400670355 L-7.789297788909057,-33.08447143273742 L-7.685112300151669,-32.932521761632856 L-7.58243993200713,-32.77821923832716 L-7.481290719273812,-32.62157894374951 L-7.381674547882804,-32.46261618731374 L-7.283601153931677,-32.30134650542209 L-7.187080122732933,-32.13778565994669 L-7.092120887877176,-31.971949636689168 L-6.998732730311104,-31.80385464381815 L-6.906924777430412,-31.633517110285176 L-6.81670600218774,-31.460953684219014 L-6.728085222215679,-31.286181231298492 L-6.641071098964961,-31.109216833104178 L-6.555672136857936,-30.93007778544883 L-6.471896682457391,-30.74878159668699 L-6.389752923650761,-30.56534598600382 L-6.309248888849897,-30.37978888168324 L-6.230392446206402,-30.192128419355726 L-6.153191302842622,-30.002382940225807 L-6.077653004098366,-29.810570989279427 L-6.003784932793501,-29.616711313471484 L-5.931594308506316,-29.420822859893534 L-5.861088186867981,-29.22292477392199 L-5.792273458872895,-29.023036397346935 L-5.725156850205227,-28.821177266481712 L-5.659744920581559,-28.61736711025354 L-5.596044063109758,-28.411625848275285 L-5.534060503664158,-28.203973588898563 L-5.473800300277048,-27.994430627248484 L-5.415269342546594,-27.783017443240034 L-5.3584733510612,-27.569754699576436 L-5.303417876840427,-27.354663239729753 L-5.250108300792434,-27.137764085903605 L-5.198549833188068,-26.919078436978637 L-5.148747513151648,-26.698627666440565 L-5.100706208168447,-26.476433320291243 L-5.054430613608972,-26.252517114942826 L-5.009925252270058,-26.02690093509529 L-4.967194473932807,-25.799606831597536 L-4.926242454937491,-25.570657019292184 L-4.88707319777534,-25.340073874844407 L-4.8496905306973765,-25.107879934554916 L-4.8140981073402465,-24.87409789215735 L-4.748297731137761,-24.40186104981403 L-4.689697792831854,-23.9235479616807 L-4.638321201183992,-23.43934561704021 L-4.594188041097272,-22.949443307491347 L-4.55731556576454,-22.454032552948128 L-4.527718189923544,-21.953307026768044 L-4.505407484221649,-21.447462480038325 L-4.4903921706925445,-20.936696665050032 L-4.482678119346421,-20.421209257989773 L-4.482268345875234,-19.90120178087932 L-4.489163010473732,-19.376877522793606 L-4.503359417776856,-18.84844146038793 L-4.524852017913421,-18.316100177765456 L-4.553632408675792,-17.78006178571622 L-4.589689338804565,-17.240535840359414 L-4.633008712387095,-16.69773326122055 L-4.6835735943680845,-16.151866248775658 L-4.7413642171700765,-15.603148201494736 L-4.80635798842129,-15.051793632416807 L-4.878529499787781,-14.4980180852893 L-4.957850536906427,-13.942038050304483 L-5.044290090414933,-13.384070879465874 L-5.137814368074441,-12.824334701617758 L-5.23838680798012,-12.263048337171025 L-5.345968092854484,-11.700431212558623 L-5.460516165417889,-11.136703274454078 L-5.581986244830194,-10.572084903786664 L-5.710330844197141,-10.006796829586886 L-5.84549978913466,-9.441060042695714 L-5.987440237383769,-8.875095709371571 L-6.1360966994684745,-8.309125084828722 L-6.291411060388516,-7.743369426740888 L-6.453322602338595,-7.178049908743901 L-6.6217680284450395,-6.613387533971208 L-6.796681487510785,-6.049603048656028 L-6.977994599758905,-5.4869168558339485 L-7.16563648356464,-4.925548929179681 L-7.359533783165512,-4.365718727011673 L-7.559610697338645,-3.8076451064981978 L-7.765789009034121,-3.251546238098438 L-7.9779881159527335,-2.6976395202720402 L-8.196125062056264,-2.1461414944904744 L-8.420114569997875,-1.5972677605834047 L-8.649869074460009,-1.0512328924531955 L-8.885298756386732,-0.5082503541904835 L-9.126311578097127,0.031467583376395325 L-9.372813319266044,0.5677099256654667 L-9.62470761375812,1.1002670368262795 L-9.881895987300636,1.6289307216938536 L-10.144277895980595,2.1534943071794928 L-10.411750765550824,2.6737527230664817 L-10.684210031529805,3.189502582179136 L-10.961549180079608,3.7005422598940143 L-11.24365978964586,4.2066719729620115 L-11.530431573343524,4.707693857610591 L-11.821752422071883,5.20341204689565 L-12.117508448341901,5.693632747272742 L-12.417584030798825,6.178164314357735 L-12.721861859422592,6.656817327847298 L-13.030222981388434,7.129404665569902 L-13.342546847569684,7.595741576638419 L-13.658711359664611,8.055645753675675 L-13.97859291792895,8.508937404084785 L-14.302066469495323,8.955439320336362 L-14.629005557260788,9.39497694924509 L-14.959282369323331,9.827378460208694 L-15.292767788947994,10.252474812382514 L-15.629331445043125,10.670099820763449 L-15.96884176312697,11.0800902211575 L-16.311166016764766,11.482285734005439 L-16.656170379456086,11.87652912704168 L-17.003719976952347,12.26266627676184 L-17.353678939983787,12.640546228675037 L-17.705910457375616,13.010021256317243 L-18.06027682953218,13.370946919002746 L-18.416639522268586,13.723182118290987 L-18.77485922096851,14.066589153146944 L-19.134795885047204,14.401033773773223 L-19.496308802698213,14.726385234093017 L-19.859256645902533,15.042516342863296 L-20.223497525678667,15.349303513398306 L-20.406058374232785,15.49915549852849 L-20.588889047551998,15.646626811883932 L-20.771971676476607,15.791703040191416 L-20.95528836722174,15.934370004264006 L-21.138821203126245,16.074613760386903 L-21.32255224640377,16.212420601680236 L-21.506463539895954,16.347777059438727 L-21.69053710882747,16.480669904448064 L-21.874754962562832,16.61108614827787 L-22.059099096364708,16.739013044551143 L-22.243551493153646,16.864438090190042 L-22.428094125268995,16.987349026637894 L-22.612708956230847,17.107733841057282 L-22.797377942502862,17.225580767504155 L-22.982083035255773,17.340878288077754 L-23.166806182131232,17.453615134046252 " />
			<path d="M-30.990283315539315,14.461911982863409 L-31.16858642099381,14.568291491097874 L-31.346873290097314,14.672265275005842 L-31.525127687977292,14.773823866693586 L-31.703333382718046,14.872958018195742 L-31.881474146838855,14.969658702317453 L-32.059533758771565,15.063917113456316 L-32.23749600433779,15.1557246684043 L-32.41534467822538,15.245073007129303 L-32.593063585464016,15.331953993536395 L-32.77063654290001,15.416359716208735 L-32.94804738066992,15.498282489127977 L-33.12527994367299,15.577714852374147 L-33.302318093042246,15.654649572804981 L-33.47914570761407,15.729079644714531 L-33.655746685396245,15.800998290471128 L-33.832104945034146,15.870398961134558 L-34.00820442727521,15.937275337052426 L-34.18402909643123,16.001621328435604 L-34.35956294183859,16.063431075912767 L-34.53478997931621,16.122698951063974 L-34.709694252621006,16.179419556933166 L-34.88425983490097,16.23358772851963 L-35.058470830145446,16.28519853324833 L-35.23231137463258,16.334247271419063 L-35.40576563837393,16.380729476634407 L-35.578817826555934,16.424640916206464 L-35.75145218097818,16.465977591542234 L-35.923652981488324,16.504735738507787 L-36.095404547413686,16.540911827770994 L-36.266691238989026,16.57450256512292 L-36.43749745878073,16.60550489177779 L-36.60780765310719,16.633915984651537 L-36.777606313455,16.659733256618843 L-36.94687797789127,16.682954356748763 L-37.11560723247158,16.703577170518766 L-37.28377871264355,16.721599820007317 L-37.45137710464598,16.737020664064847 L-37.618387146903274,16.749838298463224 L-37.784793631415205,16.76005155602362 L-37.95058140514174,16.76765950672277 L-38.11573537138292,16.77266145777768 L-38.280240491153535,16.775056953708734 L-38.44408178455258,16.77484577638112 L-38.60724433212738,16.772027945024732 L-38.76971327623207,16.766603716232396 L-38.93147382238059,16.758573583936535 L-39.09251124059392,16.747938279364142 L-39.25281086674133,16.734698770970255 L-39.412358103875725,16.71885626434971 L-39.57113842356288,16.70041220212741 L-39.72913736720432,16.679368263826916 L-39.88634054735401,16.655726365717552 L-40.04273364902845,16.62948866063986 L-40.19830243101022,16.600657537809596 L-40.35303272714475,16.569235622600168 L-40.506910447630354,16.53522577630354 L-40.65992158030119,16.49863109586972 L-40.81205219190322,16.459454913624718 L-40.963288429363075,16.41770079696713 L-41.11361652104939,16.373372548043243 L-41.26302277802694,16.326474203400874 L-41.41149359530312,16.27701003362175 L-41.559015453066834,16.224984542932663 L-41.705574917919456,16.170402468795334 " />
			<path d="M-41.7055749179196,16.17040246879528 L-41.89261537779929,16.09645959076313 L-42.07801398657232,16.018307972374494 L-42.26174282389019,15.935959382975636 L-42.44377422086578,15.849426223961213 L-42.62408076424027,15.758721526906683 L-42.80263530051146,15.663858951605782 L-42.979410940022966,15.564852784013418 L-43.154381061013694,15.461717934094267 L-43.32751931362702,15.354469933577352 L-43.498799623878966,15.243124933617064 L-43.668196197584805,15.12769970236085 L-43.83568352424364,15.008211622423964 L-44.001236380880144,14.884678688271723 L-44.16482983584305,14.757119503509628 L-44.32643925255979,14.62555327808171 L-44.486040293246646,14.489999825377573 L-44.64360892257396,14.35047955924859 L-44.79912141128573,14.207013490933644 L-44.95255433977319,14.05962322589492 L-45.10388460160165,13.908330960564186 L-45.25308940699035,13.753159479000093 L-45.40014628624439,13.594132149457014 L-45.54503309313869,13.431272920865819 L-45.68772800825306,13.264606319227298 L-45.828209542258165,13.094157443918608 L-45.9664565391517,12.919951963913409 L-46.10244817944445,12.742016113916208 L-46.23616398329561,12.560376690411523 L-46.367583813596966,12.375061047628407 L-46.49668787900547,12.186097093421015 L-46.62345673692376,11.993513285065795 L-46.74787129642811,11.7973386249759 L-46.8699128211435,11.597602656333553 L-46.989562932065226,11.394335458640949 L-47.10680361032667,11.18756764319038 L-47.22161719991294,10.977330348454306 L-47.33398641031977,10.763655235395998 L-47.44389431915738,10.546574482701523 L-47.55132437469899,10.32612078193375 L-47.656260398373384,10.102327332609129 L-47.75868658720139,9.875227837197937 L-47.85858751617571,9.644856496048863 L-47.955948140583914,9.411248002238501 L-48.05075379827409,9.174437536346744 L-48.14299021186291,8.934460761158693 L-48.232643490885756,8.69135381629399 L-48.31970013388858,8.445153312764315 L-48.40414703046116,8.195896327459899 L-48.485971463211506,7.943620397565894 L-48.56516110968101,7.688363514909398 L-48.641704044200196,7.430164120238029 L-48.71558873968467,7.169061097430891 L-48.78680406937107,6.905093767642807 L-48.85533930849269,6.638301883382695 L-48.921184135894606,6.368725622526991 L-48.98432863558802,6.096405582269 L-49.04476329824353,5.821382773005105 L-49.10247902262324,5.543698612158774 L-49.157467116951366,5.263394917943231 L-49.20971930022314,4.98051390306378 L-49.259227703451984,4.695098168360747 L-49.30598487085446,4.40719069639394 L-49.34998376097316,4.116834844969613 L-49.39121774773705,3.824074340611002 L-49.42968062145941,3.528953271973192 L-49.46536658977294,3.2315160832035836 L-49.49827027850206,2.9318075672487414 L-49.52838673247229,2.629872859108758 L-49.555711416256436,2.3257574290400775 L-49.58024021485762,2.0195070757078373 L-49.601969434329,1.7111679192887763 L-49.620895802330054,1.400786394525685 L-49.63701646861938,1.088409243734528 L-49.65032900548392,0.7740835097651946 L-49.6608314081046,0.4578565289170502 L-49.66852209485822,0.13977592381022674 L-49.67339990755563,-0.1801104037861414 L-49.67546411161618,-0.5017542801677521 L-49.674714396178345,-0.8251072669499138 L-49.6711508741465,-1.1501206683622058 L-49.66477408217396,-1.47674553858187 L-49.65558498058215,-1.8049326891048736 L-49.64358495321595,-2.134632696153515 L-49.62877580723536,-2.4657959081194605 L-49.611159772843266,-2.7983724530411003 L-49.59073950294969,-3.132312246114088 L-49.56751807277213,-3.4675649972339144 L-49.54149897937258,-3.8040802185694105 L-49.512686141130786,-4.141807232166052 L-49.48108389715421,-4.480695177577843 L-49.446697006624554,-4.820693019526735 L-49.409530648081045,-5.161749555588344 L-49.36959041864057,-5.503813423902839 L-49.32688233315478,-5.846833110909858 L-49.28141282330424,-6.190756959106268 L-49.2331887366299,-6.53553317482558 L-49.18221733550182,-6.881109836037895 L-49.12850629602552,-7.227434900169165 L-49.07206370688599,-7.5744562119386165 L-49.012898068129545,-7.922121511213145 L-48.95101828988374,-8.270378440877488 L-48.886433691015576,-8.619174554719025 L-48.81915399772808,-8.968457325325986 L-48.74918934209559,-9.318174151997884 L-48.67655026053789,-9.668272368666983 L-48.60124769223347,-10.01869925182961 L-48.52329297747214,-10.369402028486133 L-48.4426978559472,-10.720327884088377 L-48.359474464987514,-11.071423970493292 L-48.273635337729615,-11.422637413921702 L-48.185193401230336,-11.773915322920889 L-48.094161974520006,-12.125204796329863 L-48.00055476659664,-12.476452931246072 L-47.904385874361445,-12.827606830992378 L-47.805669780495855,-13.178613613083137 L-47.70442135128049,-13.529420417188065 L-47.600655834356374,-13.879974413092835 L-47.49438885642867,-14.230222808655103 L-47.385636420913386,-14.580112857754813 L-47.27441490552728,-14.929591868237564 L-47.16074105982147,-15.278607209849865 L-47.044632002658986,-15.627106322165048 L-46.92610521963675,-15.975036722498679 L-46.805178560452326,-16.32234601381226 L-46.68187023621577,-16.668981892604023 L-46.55619881670715,-17.014892156785635 L-46.42818322757999,-17.36002471354368 L-46.29784274751115,-17.704327587184608 L-46.16519700529747,-18.047748926962086 L-46.03026597689984,-18.390237014885557 L-45.89306998243481,-18.731740273508745 L-45.7536296831145,-19.072207273697053 L-45.61196607813508,-19.411586742372588 L-45.468100501514414,-19.749827570235695 L-45.32205461887912,-20.086878819461848 L-45.173850424201945,-20.42268973137269 L-45.023510236489464,-20.757209734080092 L-44.87105669642095,-21.09038845010211 L-44.71651276293878,-21.422175703949645 L-44.55990170979087,-21.752521529682667 L-44.401247122025765,-22.081376178434933 L-44.2405728924408,-22.408690125905963 L-44.07790321798395,-22.734414079819224 L-43.913262596109846,-23.058498987345367 L-43.746675821090534,-23.380896042489393 L-43.57816798028159,-23.701556693440658 L-43.40776445034402,-24.02043264988462 L-43.23549089342262,-24.337475890275154 L-43.06137325328142,-24.652638669066437 L-42.885437751396545,-24.965873523903245 L-42.70771088300745,-25.2771332827686 L-42.52821941312678,-25.586371071087726 L-42.34699037250967,-25.893540318787164 L-42.164051053583044,-26.198594767308073 L-41.97942900633541,-26.501488476572582 L-41.793152034167996,-26.802175831902208 L-41.60524818970762,-27.100611550887255 L-41.41574577058212,-27.396750690206165 L-41.22467331515875,-27.69054865239385 L-41.03205959824649,-27.981961192557883 L-40.837933626762606,-28.270944425041606 L-40.642324635364346,-28.55745483003318 L-40.44526208204633,-28.841449260119475 L-40.24677564370421,-29.122884946783934 L-40.04689521166554,-29.401719506847346 L-39.84565088718814,-29.677910948850602 L-39.64307297692706,-29.951417679378448 L-39.439191988370425,-30.222198509323306 L-39.2340386252452,-30.49021266008819 L-39.02764378289325,-30.755419769727833 L-38.820038543618644,-31.01777989902703 L-38.611254172006795,-31.277253537515346 L-38.40132211021609,-31.533801609417246 L-38.19027397324286,-31.787385479536756 L-37.97814154416022,-32.037966959075796 L-37.76495676933172,-32.28550831138524 L-37.55075175360028,-32.529972257647984 L-37.33555875545337,-32.77132198249292 L-37.11941018216496,-33.009521139539245 L-36.90233858491515,-33.24453385687005 L-36.68437665388801,-33.47632474243458 L-36.46555721334864,-33.704858889378045 L-36.24591321669989,-33.93010188129855 L-36.02547774151976,-34.15201979742999 L-35.804283984579975,-34.370579217750496 L-35.582365256846714,-34.58574722801529 L-35.3597549784641,-34.79749142471347 L-35.13648667372124,-35.00577991994786 L-34.91259396600356,-35.21058134623725 L-34.68811057272932,-35.41186486124013 L-34.46307030027182,-35.60960015239955 L-34.237507038868344,-35.80375744150796 L-34.011454757516354,-35.99430748919181 L-33.784947498857946,-36.181221599314796 L-33.55801937405312,-36.36447162329948 L-33.33070455764275,-36.544029964366274 L-33.103037282402056,-36.7198695816895 L-32.875051834185285,-36.89196399446956 L-32.64678254676232,-37.060287285920936 L-32.41826379664822,-37.224814107175035 L-32.189529997926186,-37.385519681097776 L-31.960615597064965,-37.54237980602085 L-31.731555067731307,-37.6953708593864 L-31.502382905598385,-37.844469801304555 L-31.273133623150848,-37.98965417802309 L-31.043841744487388,-38.130902125308886 L-30.814541800121535,-38.26819237174065 L-30.585268321781477,-38.40150424191225 L-30.356055837209716,-38.5308176595464 L-30.12693886496332,-38.65611315051807 L-29.89795190921555,-38.77737184578717 L-29.66912945455966,-38.894575484240235 L-29.440505960815646,-39.007706415440424 L-29.21211585784073,-39.116747602285606 L-28.983993540344326,-39.221682623574154 L-28.756173362708353,-39.322495676477814 L-28.528689633813574,-39.41917157892166 L-28.301576611872807,-39.51169577187039 L-28.074868499271776,-39.60005432152086 L-27.848599437418336,-39.684233921400505 L-27.62280350160092,-39.76422189437122 L-27.397514695856916,-39.8400061945385 L-27.172766947851784,-39.911575409065506 L-26.94859410376971,-39.978918759891755 L-26.72502992321643,-40.04202610535634 L-26.502108074135183,-40.100887941725155 L-26.2798621277365,-40.15549540462216 L-26.0583255534424,-40.2058402703643 L-25.837531713846115,-40.25191495719997 L-25.617513859687733,-40.29371252645082 L-25.3983051248468,-40.331226683556665 L-25.179938521352476,-40.36445177902342 L-24.96244693441203,-40.39338280927393 L-24.745863117458452,-40.41801541740146 L-24.530219687217926,-40.438345893825826 L-24.315549118797843,-40.45437117685205 L-24.10188374079619,-40.46608885313146 L-23.889255730432964,-40.473497158025125 L-23.67769710870442,-40.47659497586956 L-23.467239735560824,-40.47538184014479 L-23.257915305108444,-40.46985793354462 L-23.04975534083655,-40.46002408794902 L-22.842791190870088,-40.445881784299004 L-22.63705402324877,-40.427433152373474 L-22.43257482123328,-40.404680970468526 L-22.229384378639303,-40.37762866497908 L-22.0275132952001,-40.34628030988282 L-21.826991971958307,-40.31064062612673 L-21.627850606687623,-40.27071498091608 L-21.430119189345156,-40.226509386906194 L-21.233827497555048,-40.178030501296924 L-21.039005092124064,-40.12528562483011 L-20.84568131258985,-40.06828270069016 L-20.653885272802498,-40.00703031330776 L-20.463645856540126,-39.94153768706714 L-20.27499171315913,-39.87181468491696 " />
			<path d="M-20.27499171315906,-39.871814684916934 L-20.1241842502657,-39.81257622945428 L-19.974438797679625,-39.75060488943926 L-19.825769990939605,-39.6859067217099 L-19.67819236035722,-39.61848804961374 L-19.531720329596737,-39.54835546238987 L-19.386368214265396,-39.47551581452491 L-19.242150220514247,-39.39997622508304 L-19.099080443649704,-39.32174407701027 L-18.957172866755926,-39.24082701641281 L-18.816441359328156,-39.157232951809796 L-18.676899675917184,-39.070970053360334 L-18.538561454785018,-38.98204675206499 L-18.40144021657194,-38.890471738941756 L-18.26554936297506,-38.79625396417663 L-18.130902175438454,-38.69940263624889 L-17.99751181385513,-38.59992722103106 L-17.865391315280796,-38.497837440863755 L-17.734553592659672,-38.393143273605446 L-17.605011433562478,-38.28585495165731 L-17.47677749893656,-38.17598296096312 L-17.349864321868488,-38.06353803998438 L-17.224284306359127,-37.94853117865082 L-17.10004972611131,-37.83097361728625 L-16.977172723330252,-37.71087684550999 L-16.855665307536817,-37.588252601113965 L-16.735539354393772,-37.463112868915395 L-16.616806604545076,-37.33546987958553 L-16.499478662468412,-37.20533610845426 L-16.383566995341017,-37.0727242742908 L-16.269082931918916,-36.93764733806061 L-16.156037661429686,-36.80011850165865 L-16.044442232478886,-36.66015120661909 L-15.934307551970178,-36.51775913280157 L-15.82564438403936,-36.37295619705419 L-15.718463349002308,-36.22575655185331 L-15.612774922316977,-36.07617458392038 L-15.508589433559589,-35.9242249128158 L-15.40591706541505,-35.769922389510114 L-15.304767852681731,-35.61328209493246 L-15.205151681290724,-35.45431933849669 L-15.107078287339597,-35.293049656605035 L-15.010557256140853,-35.12948881112963 L-14.915598021285096,-34.96365278787212 L-14.822209863719024,-34.7955577950011 L-14.730401910838332,-34.62522026146813 L-14.64018313559566,-34.45265683540196 L-14.551562355623599,-34.277884382481446 L-14.46454823237288,-34.10091998428713 L-14.379149270265856,-33.92178093663178 L-14.295373815865311,-33.74048474786994 L-14.21323005705868,-33.557049137186766 L-14.132726022257817,-33.371492032866186 L-14.053869579614322,-33.18383157053867 L-13.976668436250542,-32.994086091408754 L-13.901130137506286,-32.80227414046237 L-13.82726206620142,-32.60841446465443 L-13.755071441914236,-32.41252601107648 L-13.684565320275901,-32.214627925104935 L-13.615750592280815,-32.01473954852988 L-13.548633983613147,-31.81288041766466 L-13.48322205398948,-31.60907026143649 L-13.419521196517678,-31.403328999458232 L-13.357537637072078,-31.195676740081513 L-13.297277433684968,-30.986133778431434 L-13.238746475954514,-30.77472059442298 L-13.18195048446912,-30.561457850759385 L-13.126895010248347,-30.3463663909127 L-13.073585434200353,-30.129467237086555 L-13.022026966595988,-29.910781588161587 L-12.972224646559567,-29.690330817623515 L-12.924183341576367,-29.46813647147419 L-12.877907747016891,-29.244220266125772 L-12.833402385677978,-29.018604086278238 L-12.790671607340727,-28.791309982780483 L-12.74971958834541,-28.56236017047513 L-12.71055033118326,-28.331777026027353 L-12.673167664105296,-28.099583085737862 L-12.637575240748166,-27.865801043340298 L-12.57177486454568,-27.393564200996977 L-12.513174926239774,-26.91525111286365 L-12.461798334591911,-26.43104876822316 L-12.417665174505192,-25.941146458674297 L-12.38079269917246,-25.445735704131078 L-12.351195323331464,-24.94501017795099 L-12.32888461762957,-24.439165631221275 L-12.313869304100464,-23.928399816232982 L-12.30615525275434,-23.412912409172723 L-12.305745479283154,-22.89290493206227 L-12.312640143881652,-22.368580673976552 L-12.326836551184776,-21.84014461157088 L-12.348329151321341,-21.307803328948403 L-12.377109542083712,-20.771764936899167 L-12.413166472212485,-20.23223899154236 L-12.456485845795015,-19.689436412403495 L-12.507050727776004,-19.143569399958608 L-12.564841350577996,-18.594851352677686 L-12.62983512182921,-18.043496783599757 L-12.702006633195701,-17.48972123647225 L-12.781327670314347,-16.933741201487432 L-12.867767223822852,-16.37577403064882 L-12.96129150148236,-15.816037852800706 L-13.06186394138804,-15.254751488353971 L-13.169445226262404,-14.692134363741573 L-13.28399329882581,-14.128406425637024 L-13.405463378238114,-13.56378805496961 L-13.533807977605061,-12.998499980769832 L-13.66897692254258,-12.432763193878662 L-13.810917370791689,-11.86679886055452 L-13.959573832876394,-11.30082823601167 L-14.114888193796435,-10.735072577923837 L-14.276799735746515,-10.16975305992685 L-14.44524516185296,-9.605090685154156 L-14.620158620918705,-9.041306199838976 L-14.801471733166824,-8.478620007016897 L-14.98911361697256,-7.917252080362629 L-15.183010916573432,-7.3574218781946215 L-15.383087830746565,-6.799348257681146 L-15.58926614244204,-6.243249389281386 L-15.801465249360653,-5.689342671454988 L-16.019602195464184,-5.137844645673423 L-16.243591703405794,-4.588970911766353 L-16.473346207867927,-4.042936043636144 L-16.70877588979465,-3.4999535053734316 L-16.949788711505047,-2.960235567806553 L-17.196290452673964,-2.4239932255174814 L-17.44818474716604,-1.8914361143566687 L-17.705373120708558,-1.3627724294890946 L-17.967755029388513,-0.8382088440034554 L-18.235227898958744,-0.31795042811646645 L-18.507687164937725,0.1977994309961879 L-18.785026313487528,0.7088391087110661 L-19.06713692305378,1.2149688217790633 L-19.353908706751444,1.7159907064276432 L-19.6452295554798,2.211708895712702 L-19.94098558174982,2.701929596089794 L-20.241061164206744,3.186461163174787 L-20.545338992830512,3.66511417666435 L-20.853700114796354,4.137701514386954 L-21.166023980977606,4.604038425455471 L-21.48218849307253,5.063942602492727 L-21.80207005133687,5.5172342529018366 L-22.125543602903242,5.963736169153414 L-22.45248269066871,6.403273798062141 L-22.782759502731253,6.835675309025746 L-23.116244922355914,7.260771661199566 L-23.452808578451044,7.678396669580501 L-23.79231889653489,8.088387069974551 L-24.134643150172685,8.49058258282249 L-24.479647512864005,8.884825975858732 L-24.827197110360267,9.270963125578891 L-25.177156073391707,9.648843077492089 L-25.529387590783536,10.018318105134295 L-25.8837539629401,10.379243767819798 L-26.240116655676506,10.731478967108039 L-26.59833635437643,11.074886001963996 L-26.958273018455124,11.409330622590275 L-27.319785936106133,11.73468208291007 L-27.682733779310453,12.050813191680348 L-28.046974659086587,12.357600362215358 L-28.229535507640705,12.507452347345541 L-28.412366180959918,12.654923660700984 L-28.595448809884527,12.799999889008468 L-28.77876550062966,12.942666853081057 L-28.962298336534165,13.082910609203953 L-29.14602937981169,13.22071745049729 L-29.329940673303874,13.35607390825578 L-29.51401424223539,13.488966753265117 L-29.698232095970752,13.61938299709492 L-29.882576229772628,13.747309893368193 L-30.067028626561566,13.872734939007096 L-30.251571258676915,13.995645875454947 L-30.436186089638767,14.116030689874336 L-30.620855075910782,14.233877616321209 L-30.805560168663693,14.349175136894807 L-30.990283315539152,14.461911982863306 " />
			<path d="M-20.27499171315906,-39.87181468491693 L-12.45151457975114,-36.88011153373398 " />
			<path d="M-41.7055749179196,16.170402468795274 L-33.88209778451168,19.162105619978224 " />

        </g>
        </g>
    </svg>
    