<?xml version='1.0' encoding='utf-8'?>
<svg width="100.09mm" height="47.530902mm" viewBox="-80.072 -38.024722 160.144 76.049444" version="1.1" xmlns="http://www.w3.org/2000/svg">
  <g transform="scale(1,-1)" stroke-linecap="round">
    <g fill="none" stroke="rgb(0,0,0)" stroke-width="0.144" id="Visible">
      <path d="M -80.0,-4.543109 A 80.0,33.409613442568244 0.0 0,1 80.0,-4.543109" />
      <path d="M 56.568542,28.167273 A 80.0,33.409613442568244 0.0 0,1 -80.0,4.543109" />
      <path d="M -80.0,4.543109 A 80.0,33.409613442568244 0.0 0,1 80.0,4.543109" />
      <path d="M 80.0,4.543109 A 80.0,33.409613442568244 0.0 0,1 56.568542,28.167273" />
      <path d="M 49.497475,-10.221994 A 10.0,4.1762016803210305 0.0 0,1 32.426407,-13.175015" />
      <path d="M 32.426407,-13.175015 A 10.0,4.1762016803210305 0.0 0,1 52.426407,-13.175015" />
      <path d="M 52.426407,-13.175015 A 10.0,4.1762016803210305 0.0 0,1 49.497475,-10.221994" />
      <path d="M -35.355339,-10.221994 A 10.0,4.1762016803210305 0.0 0,1 -52.426407,-13.175015" />
      <path d="M -52.426407,-13.175015 A 10.0,4.1762016803210305 0.0 0,1 -32.426407,-13.175015" />
      <path d="M -32.426407,-13.175015 A 10.0,4.1762016803210305 0.0 0,1 -35.355339,-10.221994" />
      <path d="M 49.497475,25.214252 A 10.0,4.1762016803210305 0.0 0,1 32.426407,22.261232" />
      <path d="M 32.426407,22.261232 A 10.0,4.1762016803210305 0.0 0,1 52.426407,22.261232" />
      <path d="M 52.426407,22.261232 A 10.0,4.1762016803210305 0.0 0,1 49.497475,25.214252" />
      <path d="M -35.355339,25.214252 A 10.0,4.1762016803210305 0.0 0,1 -52.426407,22.261232" />
      <path d="M -52.426407,22.261232 A 10.0,4.1762016803210305 0.0 0,1 -32.426407,22.261232" />
      <path d="M -32.426407,22.261232 A 10.0,4.1762016803210305 0.0 0,1 -35.355339,25.214252" />
      <line x1="-80.0" y1="4.543109" x2="-80.0" y2="-4.543109" />
      <line x1="80.0" y1="4.543109" x2="80.0" y2="-4.543109" />
    </g>
    <g fill="none" stroke="rgb(99,99,99)" stroke-width="0.144" id="Hidden" stroke-dasharray="0.003658 0.433829">
      <path d="M 56.568542,19.081056 A 80.0,33.409613442568244 0.0 0,1 -80.0,-4.543109" />
      <path d="M 80.0,-4.543109 A 80.0,33.409613442568244 0.0 0,1 56.568542,19.081056" />
      <path d="M 49.497475,-19.308211 A 10.0,4.1762016803210305 0.0 0,1 32.426407,-22.261232" />
      <path d="M 32.426407,-22.261232 A 10.0,4.1762016803210305 0.0 0,1 52.426407,-22.261232" />
      <path d="M 52.426407,-22.261232 A 10.0,4.1762016803210305 0.0 0,1 49.497475,-19.308211" />
      <path d="M -35.355339,-19.308211 A 10.0,4.1762016803210305 0.0 0,1 -52.426407,-22.261232" />
      <path d="M -52.426407,-22.261232 A 10.0,4.1762016803210305 0.0 0,1 -32.426407,-22.261232" />
      <path d="M -32.426407,-22.261232 A 10.0,4.1762016803210305 0.0 0,1 -35.355339,-19.308211" />
      <path d="M 49.497475,16.128035 A 10.0,4.1762016803210305 0.0 0,1 32.426407,13.175015" />
      <path d="M 32.426407,13.175015 A 10.0,4.1762016803210305 0.0 0,1 52.426407,13.175015" />
      <path d="M 52.426407,13.175015 A 10.0,4.1762016803210305 0.0 0,1 49.497475,16.128035" />
      <path d="M -35.355339,16.128035 A 10.0,4.1762016803210305 0.0 0,1 -52.426407,13.175015" />
      <path d="M -52.426407,13.175015 A 10.0,4.1762016803210305 0.0 0,1 -32.426407,13.175015" />
      <path d="M -32.426407,13.175015 A 10.0,4.1762016803210305 0.0 0,1 -35.355339,16.128035" />
      <line x1="32.426407" y1="-13.175015" x2="32.426407" y2="-22.261232" />
      <line x1="52.426407" y1="-13.175015" x2="52.426407" y2="-22.261232" />
      <line x1="-52.426407" y1="-13.175015" x2="-52.426407" y2="-22.261232" />
      <line x1="-32.426407" y1="-13.175015" x2="-32.426407" y2="-22.261232" />
      <line x1="32.426407" y1="22.261232" x2="32.426407" y2="13.175015" />
      <line x1="52.426407" y1="22.261232" x2="52.426407" y2="13.175015" />
      <line x1="-52.426407" y1="22.261232" x2="-52.426407" y2="13.175015" />
      <line x1="-32.426407" y1="22.261232" x2="-32.426407" y2="13.175015" />
    </g>
  </g>
</svg>