<?xml version='1.0' encoding='utf-8'?>
<svg width="100.09mm" height="46.246293mm" viewBox="-52.699636 -24.349713 105.399271 48.699426" version="1.1" xmlns="http://www.w3.org/2000/svg">
  <g transform="scale(1,-1)" stroke-linecap="round">
    <g fill="none" stroke="rgb(0,0,0)" stroke-width="0.09477404769320098" id="Visible">
      <line x1="3.882286" y1="7.666021" x2="-10.606602" y2="5.973642" />
      <line x1="-14.488887" y1="-3.042355" x2="-14.488887" y2="-0.342404" />
      <line x1="-10.606602" y1="5.973642" x2="-14.488887" y2="-0.342404" />
      <line x1="-3.882286" y1="-7.666021" x2="-3.882286" y2="-4.96607" />
      <line x1="-14.488887" y1="-3.042355" x2="-3.882286" y2="-7.666021" />
      <line x1="-14.488887" y1="-0.342404" x2="-3.882286" y2="-4.96607" />
      <line x1="10.606602" y1="-5.973642" x2="10.606602" y2="-3.273691" />
      <line x1="-3.882286" y1="-7.666021" x2="10.606602" y2="-5.973642" />
      <line x1="-3.882286" y1="-4.96607" x2="10.606602" y2="-3.273691" />
      <line x1="14.488887" y1="0.342404" x2="14.488887" y2="3.042355" />
      <line x1="10.606602" y1="-5.973642" x2="14.488887" y2="0.342404" />
      <line x1="10.606602" y1="-3.273691" x2="14.488887" y2="3.042355" />
      <line x1="14.488887" y1="3.042355" x2="3.882286" y2="7.666021" />
      <line x1="52.652249" y1="-4.115281" x2="52.652249" y2="-1.415329" />
      <line x1="52.652249" y1="-1.415329" x2="46.528524" y2="1.254146" />
      <line x1="44.287086" y1="-5.092376" x2="44.287086" y2="-2.392425" />
      <line x1="46.528524" y1="1.254146" x2="44.287086" y2="-2.392425" />
      <line x1="44.287086" y1="-5.092376" x2="52.652249" y2="-4.115281" />
      <line x1="44.287086" y1="-2.392425" x2="52.652249" y2="-1.415329" />
      <line x1="31.819805" y1="7.897357" x2="31.819805" y2="10.597309" />
      <line x1="23.454642" y1="6.920262" x2="23.454642" y2="9.620213" />
      <line x1="31.819805" y1="10.597309" x2="23.454642" y2="9.620213" />
      <line x1="29.578366" y1="4.250787" x2="29.578366" y2="6.950738" />
      <line x1="23.454642" y1="6.920262" x2="29.578366" y2="4.250787" />
      <line x1="23.454642" y1="9.620213" x2="29.578366" y2="6.950738" />
      <line x1="29.578366" y1="4.250787" x2="31.819805" y2="7.897357" />
      <line x1="29.578366" y1="6.950738" x2="31.819805" y2="10.597309" />
      <line x1="21.213203" y1="12.521024" x2="21.213203" y2="15.220975" />
      <line x1="12.84804" y1="11.543928" x2="12.84804" y2="14.243879" />
      <line x1="21.213203" y1="15.220975" x2="12.84804" y2="14.243879" />
      <line x1="18.971765" y1="8.874453" x2="18.971765" y2="11.574404" />
      <line x1="12.84804" y1="11.543928" x2="18.971765" y2="8.874453" />
      <line x1="12.84804" y1="14.243879" x2="18.971765" y2="11.574404" />
      <line x1="18.971765" y1="8.874453" x2="21.213203" y2="12.521024" />
      <line x1="18.971765" y1="11.574404" x2="21.213203" y2="15.220975" />
      <line x1="42.426407" y1="12.521024" x2="42.426407" y2="15.220975" />
      <line x1="34.061244" y1="11.543928" x2="34.061244" y2="14.243879" />
      <line x1="42.426407" y1="15.220975" x2="34.061244" y2="14.243879" />
      <line x1="40.184968" y1="8.874453" x2="40.184968" y2="11.574404" />
      <line x1="34.061244" y1="11.543928" x2="40.184968" y2="8.874453" />
      <line x1="34.061244" y1="14.243879" x2="40.184968" y2="11.574404" />
      <line x1="40.184968" y1="8.874453" x2="42.426407" y2="12.521024" />
      <line x1="40.184968" y1="11.574404" x2="42.426407" y2="15.220975" />
      <line x1="31.819805" y1="17.14469" x2="31.819805" y2="19.844642" />
      <line x1="23.454642" y1="16.167595" x2="23.454642" y2="18.867546" />
      <line x1="31.819805" y1="19.844642" x2="23.454642" y2="18.867546" />
      <line x1="29.578366" y1="15.220975" x2="29.578366" y2="16.198071" />
      <line x1="23.454642" y1="16.167595" x2="25.626169" y2="15.220975" />
      <line x1="23.454642" y1="18.867546" x2="29.578366" y2="16.198071" />
      <line x1="30.637355" y1="15.220975" x2="31.819805" y2="17.14469" />
      <line x1="29.578366" y1="16.198071" x2="31.819805" y2="19.844642" />
      <line x1="-4.702709" y1="11.639758" x2="-4.702709" y2="14.339709" />
      <line x1="-2.46127" y1="17.98628" x2="-4.702709" y2="14.339709" />
      <line x1="3.662454" y1="12.616854" x2="3.662454" y2="15.316805" />
      <line x1="-4.702709" y1="11.639758" x2="3.662454" y2="12.616854" />
      <line x1="-4.702709" y1="14.339709" x2="3.662454" y2="15.316805" />
      <line x1="3.662454" y1="15.316805" x2="-2.46127" y2="17.98628" />
      <line x1="-19.191597" y1="9.947379" x2="-19.191597" y2="12.64733" />
      <line x1="-16.950158" y1="16.293901" x2="-19.191597" y2="12.64733" />
      <line x1="-10.826434" y1="10.924474" x2="-10.826434" y2="13.624426" />
      <line x1="-19.191597" y1="9.947379" x2="-10.826434" y2="10.924474" />
      <line x1="-19.191597" y1="12.64733" x2="-10.826434" y2="13.624426" />
      <line x1="-10.826434" y1="13.624426" x2="-16.950158" y2="16.293901" />
      <line x1="-8.584995" y1="19.527502" x2="-8.584995" y2="20.655755" />
      <line x1="-6.343556" y1="24.302326" x2="-8.584995" y2="20.655755" />
      <line x1="-0.219832" y1="18.9329" x2="-0.219832" y2="21.632851" />
      <line x1="-5.523133" y1="18.313446" x2="-0.219832" y2="18.9329" />
      <line x1="-8.584995" y1="20.655755" x2="-0.219832" y2="21.632851" />
      <line x1="-0.219832" y1="21.632851" x2="-6.343556" y2="24.302326" />
      <line x1="-23.073882" y1="16.263424" x2="-23.073882" y2="18.963376" />
      <line x1="-20.832444" y1="22.609946" x2="-23.073882" y2="18.963376" />
      <line x1="-14.708719" y1="17.98628" x2="-14.708719" y2="19.940471" />
      <line x1="-23.073882" y1="16.263424" x2="-15.182391" y2="17.185193" />
      <line x1="-23.073882" y1="18.963376" x2="-14.708719" y2="19.940471" />
      <line x1="-14.708719" y1="19.940471" x2="-20.832444" y2="22.609946" />
      <line x1="-34.281076" y1="6.038996" x2="-34.281076" y2="8.738947" />
      <line x1="-28.157351" y1="3.369521" x2="-28.157351" y2="6.069472" />
      <line x1="-34.281076" y1="6.038996" x2="-28.157351" y2="3.369521" />
      <line x1="-34.281076" y1="8.738947" x2="-28.157351" y2="6.069472" />
      <line x1="-25.915913" y1="7.016092" x2="-25.915913" y2="9.716043" />
      <line x1="-28.157351" y1="3.369521" x2="-25.915913" y2="7.016092" />
      <line x1="-28.157351" y1="6.069472" x2="-25.915913" y2="9.716043" />
      <line x1="-25.915913" y1="9.716043" x2="-34.281076" y2="8.738947" />
      <line x1="-38.163361" y1="-0.27705" x2="-38.163361" y2="2.422901" />
      <line x1="-32.039637" y1="-2.946525" x2="-32.039637" y2="-0.246574" />
      <line x1="-38.163361" y1="-0.27705" x2="-32.039637" y2="-2.946525" />
      <line x1="-38.163361" y1="2.422901" x2="-32.039637" y2="-0.246574" />
      <line x1="-29.798198" y1="0.700046" x2="-29.798198" y2="3.399997" />
      <line x1="-32.039637" y1="-2.946525" x2="-29.798198" y2="0.700046" />
      <line x1="-32.039637" y1="-0.246574" x2="-29.798198" y2="3.399997" />
      <line x1="-29.798198" y1="3.399997" x2="-38.163361" y2="2.422901" />
      <line x1="-48.769963" y1="7.731375" x2="-48.769963" y2="10.431326" />
      <line x1="-42.646239" y1="6.633598" x2="-42.646239" y2="7.761851" />
      <line x1="-48.769963" y1="7.731375" x2="-43.466662" y2="5.419542" />
      <line x1="-48.769963" y1="10.431326" x2="-42.646239" y2="7.761851" />
      <line x1="-40.4048" y1="8.708471" x2="-40.4048" y2="11.408422" />
      <line x1="-41.503358" y1="6.921239" x2="-40.4048" y2="8.708471" />
      <line x1="-42.646239" y1="7.761851" x2="-40.4048" y2="11.408422" />
      <line x1="-40.4048" y1="11.408422" x2="-48.769963" y2="10.431326" />
      <line x1="-52.652249" y1="1.415329" x2="-52.652249" y2="4.115281" />
      <line x1="-46.528524" y1="-1.254146" x2="-46.528524" y2="1.445805" />
      <line x1="-52.652249" y1="1.415329" x2="-46.528524" y2="-1.254146" />
      <line x1="-52.652249" y1="4.115281" x2="-46.528524" y2="1.445805" />
      <line x1="-44.287086" y1="2.392425" x2="-44.287086" y2="5.092376" />
      <line x1="-46.528524" y1="-1.254146" x2="-44.287086" y2="2.392425" />
      <line x1="-46.528524" y1="1.445805" x2="-44.287086" y2="5.092376" />
      <line x1="-44.287086" y1="5.092376" x2="-52.652249" y2="4.115281" />
      <line x1="-31.819805" y1="-9.43858" x2="-31.819805" y2="-7.897357" />
      <line x1="-23.454642" y1="-9.620213" x2="-23.454642" y2="-6.920262" />
      <line x1="-24.748737" y1="-9.77137" x2="-23.454642" y2="-9.620213" />
      <line x1="-31.819805" y1="-7.897357" x2="-23.454642" y2="-6.920262" />
      <line x1="-23.454642" y1="-6.920262" x2="-29.578366" y2="-4.250787" />
      <line x1="-29.578366" y1="-4.250787" x2="-31.819805" y2="-7.897357" />
      <line x1="-21.213203" y1="-15.220975" x2="-21.213203" y2="-12.521024" />
      <line x1="-12.84804" y1="-14.243879" x2="-12.84804" y2="-11.543928" />
      <line x1="-21.213203" y1="-15.220975" x2="-12.84804" y2="-14.243879" />
      <line x1="-21.213203" y1="-12.521024" x2="-12.84804" y2="-11.543928" />
      <line x1="-12.84804" y1="-11.543928" x2="-18.971765" y2="-8.874453" />
      <line x1="-18.971765" y1="-8.874453" x2="-21.213203" y2="-12.521024" />
      <line x1="-42.426407" y1="-15.220975" x2="-42.426407" y2="-12.521024" />
      <line x1="-34.061244" y1="-14.243879" x2="-34.061244" y2="-11.543928" />
      <line x1="-42.426407" y1="-15.220975" x2="-34.061244" y2="-14.243879" />
      <line x1="-42.426407" y1="-12.521024" x2="-34.061244" y2="-11.543928" />
      <line x1="-34.061244" y1="-11.543928" x2="-40.184968" y2="-8.874453" />
      <line x1="-40.184968" y1="-8.874453" x2="-42.426407" y2="-12.521024" />
      <line x1="-31.819805" y1="-19.844642" x2="-31.819805" y2="-17.14469" />
      <line x1="-23.454642" y1="-18.867546" x2="-23.454642" y2="-16.167595" />
      <line x1="-31.819805" y1="-19.844642" x2="-23.454642" y2="-18.867546" />
      <line x1="-31.819805" y1="-17.14469" x2="-23.454642" y2="-16.167595" />
      <line x1="-23.454642" y1="-16.167595" x2="-29.578366" y2="-13.49812" />
      <line x1="-29.578366" y1="-13.49812" x2="-31.819805" y2="-17.14469" />
      <line x1="2.46127" y1="-17.98628" x2="2.46127" y2="-15.286329" />
      <line x1="4.702709" y1="-14.339709" x2="4.702709" y2="-11.639758" />
      <line x1="2.46127" y1="-17.98628" x2="4.702709" y2="-14.339709" />
      <line x1="2.46127" y1="-15.286329" x2="4.702709" y2="-11.639758" />
      <line x1="-3.662454" y1="-15.316805" x2="-3.662454" y2="-12.616854" />
      <line x1="4.702709" y1="-11.639758" x2="-3.662454" y2="-12.616854" />
      <line x1="-3.662454" y1="-15.316805" x2="2.46127" y2="-17.98628" />
      <line x1="-3.662454" y1="-12.616854" x2="2.46127" y2="-15.286329" />
      <line x1="16.950158" y1="-16.293901" x2="16.950158" y2="-13.593949" />
      <line x1="19.191597" y1="-12.64733" x2="19.191597" y2="-9.947379" />
      <line x1="16.950158" y1="-16.293901" x2="19.191597" y2="-12.64733" />
      <line x1="16.950158" y1="-13.593949" x2="19.191597" y2="-9.947379" />
      <line x1="10.826434" y1="-13.624426" x2="10.826434" y2="-10.924474" />
      <line x1="19.191597" y1="-9.947379" x2="10.826434" y2="-10.924474" />
      <line x1="10.826434" y1="-13.624426" x2="11.955116" y2="-14.116445" />
      <line x1="15.182391" y1="-15.52329" x2="16.950158" y2="-16.293901" />
      <line x1="10.826434" y1="-10.924474" x2="16.950158" y2="-13.593949" />
      <line x1="6.343556" y1="-24.302326" x2="6.343556" y2="-21.602375" />
      <line x1="8.584995" y1="-20.655755" x2="8.584995" y2="-17.955804" />
      <line x1="6.343556" y1="-24.302326" x2="8.584995" y2="-20.655755" />
      <line x1="6.343556" y1="-21.602375" x2="8.584995" y2="-17.955804" />
      <line x1="0.219832" y1="-21.632851" x2="0.219832" y2="-18.9329" />
      <line x1="8.584995" y1="-17.955804" x2="0.219832" y2="-18.9329" />
      <line x1="0.219832" y1="-21.632851" x2="6.343556" y2="-24.302326" />
      <line x1="0.219832" y1="-18.9329" x2="6.343556" y2="-21.602375" />
      <line x1="20.832444" y1="-22.609946" x2="20.832444" y2="-19.909995" />
      <line x1="23.073882" y1="-18.963376" x2="23.073882" y2="-16.263424" />
      <line x1="20.832444" y1="-22.609946" x2="23.073882" y2="-18.963376" />
      <line x1="20.832444" y1="-19.909995" x2="23.073882" y2="-16.263424" />
      <line x1="14.708719" y1="-19.940471" x2="14.708719" y2="-17.24052" />
      <line x1="23.073882" y1="-16.263424" x2="14.708719" y2="-17.24052" />
      <line x1="14.708719" y1="-19.940471" x2="20.832444" y2="-22.609946" />
      <line x1="14.708719" y1="-17.24052" x2="20.832444" y2="-19.909995" />
      <line x1="34.281076" y1="-8.738947" x2="34.281076" y2="-6.038996" />
      <line x1="34.281076" y1="-6.038996" x2="28.157351" y2="-3.369521" />
      <line x1="25.915913" y1="-9.716043" x2="25.915913" y2="-7.016092" />
      <line x1="28.157351" y1="-3.369521" x2="25.915913" y2="-7.016092" />
      <line x1="25.915913" y1="-9.716043" x2="34.281076" y2="-8.738947" />
      <line x1="25.915913" y1="-7.016092" x2="34.281076" y2="-6.038996" />
      <line x1="38.163361" y1="-1.5026" x2="38.163361" y2="0.27705" />
      <line x1="38.163361" y1="0.27705" x2="32.039637" y2="2.946525" />
      <line x1="29.798198" y1="-3.399997" x2="29.798198" y2="-0.700046" />
      <line x1="32.039637" y1="2.946525" x2="29.798198" y2="-0.700046" />
      <line x1="29.798198" y1="-3.399997" x2="33.807404" y2="-2.9317" />
      <line x1="29.798198" y1="-0.700046" x2="38.163361" y2="0.27705" />
      <line x1="48.769963" y1="-10.431326" x2="48.769963" y2="-7.731375" />
      <line x1="48.769963" y1="-7.731375" x2="42.646239" y2="-5.0619" />
      <line x1="40.4048" y1="-11.408422" x2="40.4048" y2="-8.708471" />
      <line x1="42.646239" y1="-5.0619" x2="40.4048" y2="-8.708471" />
      <line x1="40.4048" y1="-11.408422" x2="48.769963" y2="-10.431326" />
      <line x1="40.4048" y1="-8.708471" x2="48.769963" y2="-7.731375" />
      <line x1="31.819805" y1="15.220975" x2="24.748737" y2="15.220975" />
      <line x1="24.748737" y1="9.77137" x2="24.748737" y2="12.138531" />
      <line x1="24.748737" y1="15.220975" x2="24.748737" y2="12.138531" />
      <line x1="31.819805" y1="10.597309" x2="31.819805" y2="12.138531" />
      <line x1="24.748737" y1="12.138531" x2="31.819805" y2="12.138531" />
      <line x1="31.819805" y1="12.138531" x2="31.819805" y2="15.220975" />
      <line x1="-15.182391" y1="15.52329" x2="-15.182391" y2="17.628638" />
      <line x1="-11.646857" y1="20.298113" x2="-15.182391" y2="17.628638" />
      <line x1="-9.058667" y1="13.387465" x2="-9.058667" y2="16.087416" />
      <line x1="-11.955116" y1="14.116445" x2="-9.058667" y2="13.387465" />
      <line x1="-15.182391" y1="17.628638" x2="-9.058667" y2="16.087416" />
      <line x1="-5.523133" y1="16.05694" x2="-5.523133" y2="18.756891" />
      <line x1="-9.058667" y1="13.387465" x2="-5.523133" y2="16.05694" />
      <line x1="-9.058667" y1="16.087416" x2="-5.523133" y2="18.756891" />
      <line x1="-5.523133" y1="18.756891" x2="-11.646857" y2="20.298113" />
      <line x1="-43.466662" y1="3.727163" x2="-43.466662" y2="6.427114" />
      <line x1="-39.931128" y1="1.057687" x2="-39.931128" y2="3.757639" />
      <line x1="-43.466662" y1="3.727163" x2="-39.931128" y2="1.057687" />
      <line x1="-43.466662" y1="6.427114" x2="-39.931128" y2="3.757639" />
      <line x1="-33.807404" y1="2.9317" x2="-33.807404" y2="5.298861" />
      <line x1="-39.931128" y1="1.057687" x2="-38.163361" y2="1.5026" />
      <line x1="-39.931128" y1="3.757639" x2="-33.807404" y2="5.298861" />
      <line x1="-33.807404" y1="5.298861" x2="-37.342938" y2="7.968336" />
      <line x1="-37.342938" y1="7.968336" x2="-43.466662" y2="6.427114" />
      <line x1="-31.819805" y1="-15.220975" x2="-31.819805" y2="-12.521024" />
      <line x1="-24.748737" y1="-15.220975" x2="-24.748737" y2="-12.521024" />
      <line x1="-31.819805" y1="-15.220975" x2="-30.637355" y2="-15.220975" />
      <line x1="-25.626169" y1="-15.220975" x2="-24.748737" y2="-15.220975" />
      <line x1="-31.819805" y1="-12.521024" x2="-24.748737" y2="-12.521024" />
      <line x1="-24.748737" y1="-12.521024" x2="-24.748737" y2="-9.43858" />
      <line x1="-24.748737" y1="-9.43858" x2="-31.819805" y2="-9.43858" />
      <line x1="-31.819805" y1="-9.43858" x2="-31.819805" y2="-12.521024" />
      <line x1="11.646857" y1="-20.298113" x2="11.646857" y2="-17.598162" />
      <line x1="15.182391" y1="-17.185193" x2="15.182391" y2="-14.928687" />
      <line x1="11.646857" y1="-20.298113" x2="14.708719" y2="-17.98628" />
      <line x1="11.646857" y1="-17.598162" x2="15.182391" y2="-14.928687" />
      <line x1="15.182391" y1="-14.928687" x2="9.058667" y2="-13.387465" />
      <line x1="5.523133" y1="-18.313446" x2="5.523133" y2="-16.05694" />
      <line x1="9.058667" y1="-13.387465" x2="5.523133" y2="-16.05694" />
      <line x1="8.584995" y1="-19.527502" x2="11.646857" y2="-20.298113" />
      <line x1="5.523133" y1="-16.05694" x2="11.646857" y2="-17.598162" />
      <line x1="43.466662" y1="-5.419542" x2="43.466662" y2="-3.727163" />
      <line x1="43.466662" y1="-3.727163" x2="39.931128" y2="-1.057687" />
      <line x1="33.807404" y1="-5.298861" x2="33.807404" y2="-2.59891" />
      <line x1="39.931128" y1="-1.057687" x2="33.807404" y2="-2.59891" />
      <line x1="37.342938" y1="-7.968336" x2="37.342938" y2="-5.268385" />
      <line x1="33.807404" y1="-5.298861" x2="37.342938" y2="-7.968336" />
      <line x1="33.807404" y1="-2.59891" x2="37.342938" y2="-5.268385" />
      <line x1="37.342938" y1="-7.968336" x2="41.503358" y2="-6.921239" />
      <line x1="37.342938" y1="-5.268385" x2="43.466662" y2="-3.727163" />
    </g>
    <g fill="none" stroke="rgb(99,99,99)" stroke-width="0.09477404769320098" id="Hidden" stroke-dasharray="0.002407 0.285526">
      <line x1="3.882286" y1="4.96607" x2="3.882286" y2="7.666021" />
      <line x1="-10.606602" y1="3.273691" x2="-10.606602" y2="5.973642" />
      <line x1="3.882286" y1="4.96607" x2="-10.606602" y2="3.273691" />
      <line x1="-10.606602" y1="3.273691" x2="-14.488887" y2="-3.042355" />
      <line x1="14.488887" y1="0.342404" x2="3.882286" y2="4.96607" />
      <line x1="46.528524" y1="-1.445805" x2="46.528524" y2="1.254146" />
      <line x1="52.652249" y1="-4.115281" x2="46.528524" y2="-1.445805" />
      <line x1="46.528524" y1="-1.445805" x2="44.287086" y2="-5.092376" />
      <line x1="31.819805" y1="7.897357" x2="23.454642" y2="6.920262" />
      <line x1="21.213203" y1="12.521024" x2="12.84804" y2="11.543928" />
      <line x1="42.426407" y1="12.521024" x2="34.061244" y2="11.543928" />
      <line x1="31.819805" y1="17.14469" x2="23.454642" y2="16.167595" />
      <line x1="29.578366" y1="13.49812" x2="29.578366" y2="15.220975" />
      <line x1="25.626169" y1="15.220975" x2="29.578366" y2="13.49812" />
      <line x1="29.578366" y1="13.49812" x2="30.637355" y2="15.220975" />
      <line x1="-2.46127" y1="15.286329" x2="-2.46127" y2="17.98628" />
      <line x1="-2.46127" y1="15.286329" x2="-4.702709" y2="11.639758" />
      <line x1="3.662454" y1="12.616854" x2="-2.46127" y2="15.286329" />
      <line x1="-16.950158" y1="13.593949" x2="-16.950158" y2="16.293901" />
      <line x1="-16.950158" y1="13.593949" x2="-19.191597" y2="9.947379" />
      <line x1="-10.826434" y1="10.924474" x2="-16.950158" y2="13.593949" />
      <line x1="-6.343556" y1="21.602375" x2="-6.343556" y2="24.302326" />
      <line x1="-8.584995" y1="17.955804" x2="-8.584995" y2="19.527502" />
      <line x1="-6.343556" y1="21.602375" x2="-8.584995" y2="17.955804" />
      <line x1="-8.584995" y1="17.955804" x2="-5.523133" y2="18.313446" />
      <line x1="-0.219832" y1="18.9329" x2="-6.343556" y2="21.602375" />
      <line x1="-20.832444" y1="19.909995" x2="-20.832444" y2="22.609946" />
      <line x1="-20.832444" y1="19.909995" x2="-23.073882" y2="16.263424" />
      <line x1="-14.708719" y1="17.24052" x2="-14.708719" y2="17.98628" />
      <line x1="-15.182391" y1="17.185193" x2="-14.708719" y2="17.24052" />
      <line x1="-14.708719" y1="17.24052" x2="-20.832444" y2="19.909995" />
      <line x1="-25.915913" y1="7.016092" x2="-34.281076" y2="6.038996" />
      <line x1="-29.798198" y1="0.700046" x2="-38.163361" y2="-0.27705" />
      <line x1="-42.646239" y1="5.0619" x2="-42.646239" y2="6.633598" />
      <line x1="-43.466662" y1="5.419542" x2="-42.646239" y2="5.0619" />
      <line x1="-42.646239" y1="5.0619" x2="-41.503358" y2="6.921239" />
      <line x1="-40.4048" y1="8.708471" x2="-48.769963" y2="7.731375" />
      <line x1="-44.287086" y1="2.392425" x2="-52.652249" y2="1.415329" />
      <line x1="-31.819805" y1="-10.597309" x2="-31.819805" y2="-9.43858" />
      <line x1="-31.819805" y1="-10.597309" x2="-24.748737" y2="-9.77137" />
      <line x1="-29.578366" y1="-6.950738" x2="-29.578366" y2="-4.250787" />
      <line x1="-23.454642" y1="-9.620213" x2="-29.578366" y2="-6.950738" />
      <line x1="-29.578366" y1="-6.950738" x2="-31.819805" y2="-10.597309" />
      <line x1="-18.971765" y1="-11.574404" x2="-18.971765" y2="-8.874453" />
      <line x1="-12.84804" y1="-14.243879" x2="-18.971765" y2="-11.574404" />
      <line x1="-18.971765" y1="-11.574404" x2="-21.213203" y2="-15.220975" />
      <line x1="-40.184968" y1="-11.574404" x2="-40.184968" y2="-8.874453" />
      <line x1="-34.061244" y1="-14.243879" x2="-40.184968" y2="-11.574404" />
      <line x1="-40.184968" y1="-11.574404" x2="-42.426407" y2="-15.220975" />
      <line x1="-29.578366" y1="-16.198071" x2="-29.578366" y2="-13.49812" />
      <line x1="-23.454642" y1="-18.867546" x2="-29.578366" y2="-16.198071" />
      <line x1="-29.578366" y1="-16.198071" x2="-31.819805" y2="-19.844642" />
      <line x1="4.702709" y1="-14.339709" x2="-3.662454" y2="-15.316805" />
      <line x1="19.191597" y1="-12.64733" x2="10.826434" y2="-13.624426" />
      <line x1="11.955116" y1="-14.116445" x2="15.182391" y2="-15.52329" />
      <line x1="8.584995" y1="-20.655755" x2="0.219832" y2="-21.632851" />
      <line x1="23.073882" y1="-18.963376" x2="14.708719" y2="-19.940471" />
      <line x1="28.157351" y1="-6.069472" x2="28.157351" y2="-3.369521" />
      <line x1="34.281076" y1="-8.738947" x2="28.157351" y2="-6.069472" />
      <line x1="28.157351" y1="-6.069472" x2="25.915913" y2="-9.716043" />
      <line x1="38.163361" y1="-2.422901" x2="38.163361" y2="-1.5026" />
      <line x1="32.039637" y1="0.246574" x2="32.039637" y2="2.946525" />
      <line x1="38.163361" y1="-2.422901" x2="32.039637" y2="0.246574" />
      <line x1="32.039637" y1="0.246574" x2="29.798198" y2="-3.399997" />
      <line x1="33.807404" y1="-2.9317" x2="38.163361" y2="-2.422901" />
      <line x1="42.646239" y1="-7.761851" x2="42.646239" y2="-5.0619" />
      <line x1="48.769963" y1="-10.431326" x2="42.646239" y2="-7.761851" />
      <line x1="42.646239" y1="-7.761851" x2="40.4048" y2="-11.408422" />
      <line x1="31.819805" y1="12.521024" x2="31.819805" y2="15.220975" />
      <line x1="24.748737" y1="12.521024" x2="24.748737" y2="15.220975" />
      <line x1="31.819805" y1="12.521024" x2="24.748737" y2="12.521024" />
      <line x1="24.748737" y1="9.43858" x2="24.748737" y2="9.77137" />
      <line x1="24.748737" y1="12.521024" x2="24.748737" y2="9.43858" />
      <line x1="31.819805" y1="9.43858" x2="31.819805" y2="10.597309" />
      <line x1="24.748737" y1="9.43858" x2="31.819805" y2="9.43858" />
      <line x1="31.819805" y1="9.43858" x2="31.819805" y2="12.521024" />
      <line x1="-11.646857" y1="17.598162" x2="-11.646857" y2="20.298113" />
      <line x1="-15.182391" y1="14.928687" x2="-15.182391" y2="15.52329" />
      <line x1="-11.646857" y1="17.598162" x2="-15.182391" y2="14.928687" />
      <line x1="-15.182391" y1="14.928687" x2="-11.955116" y2="14.116445" />
      <line x1="-5.523133" y1="16.05694" x2="-11.646857" y2="17.598162" />
      <line x1="-33.807404" y1="2.59891" x2="-33.807404" y2="2.9317" />
      <line x1="-38.163361" y1="1.5026" x2="-33.807404" y2="2.59891" />
      <line x1="-37.342938" y1="5.268385" x2="-37.342938" y2="7.968336" />
      <line x1="-33.807404" y1="2.59891" x2="-37.342938" y2="5.268385" />
      <line x1="-37.342938" y1="5.268385" x2="-43.466662" y2="3.727163" />
      <line x1="-30.637355" y1="-15.220975" x2="-25.626169" y2="-15.220975" />
      <line x1="-24.748737" y1="-12.138531" x2="-24.748737" y2="-9.43858" />
      <line x1="-24.748737" y1="-15.220975" x2="-24.748737" y2="-12.138531" />
      <line x1="-31.819805" y1="-12.138531" x2="-31.819805" y2="-9.43858" />
      <line x1="-24.748737" y1="-12.138531" x2="-31.819805" y2="-12.138531" />
      <line x1="-31.819805" y1="-12.138531" x2="-31.819805" y2="-15.220975" />
      <line x1="15.182391" y1="-17.628638" x2="15.182391" y2="-17.185193" />
      <line x1="14.708719" y1="-17.98628" x2="15.182391" y2="-17.628638" />
      <line x1="9.058667" y1="-16.087416" x2="9.058667" y2="-13.387465" />
      <line x1="15.182391" y1="-17.628638" x2="9.058667" y2="-16.087416" />
      <line x1="5.523133" y1="-18.756891" x2="5.523133" y2="-18.313446" />
      <line x1="9.058667" y1="-16.087416" x2="5.523133" y2="-18.756891" />
      <line x1="5.523133" y1="-18.756891" x2="8.584995" y2="-19.527502" />
      <line x1="43.466662" y1="-6.427114" x2="43.466662" y2="-5.419542" />
      <line x1="39.931128" y1="-3.757639" x2="39.931128" y2="-1.057687" />
      <line x1="43.466662" y1="-6.427114" x2="39.931128" y2="-3.757639" />
      <line x1="39.931128" y1="-3.757639" x2="33.807404" y2="-5.298861" />
      <line x1="41.503358" y1="-6.921239" x2="43.466662" y2="-6.427114" />
    </g>
  </g>
</svg>