<?xml version="1.0" encoding="UTF-8" standalone="no"?>
    <svg
    xmlns:svg="http://www.w3.org/2000/svg"
    xmlns="http://www.w3.org/2000/svg"
    width="356"
    height="255"
    >
        <g transform="scale(4, -4)   translate(44.52920471455008,-31.932610010310395)" stroke-width="0.25"  fill="none">
        <!-- hidden lines -->
        <g  stroke="rgb(160,160,160)" fill="none" stroke-dasharray="0.25,0.25" >
    			<path d="M6.228155452318495,10.507044254559727 L6.228155452318495,28.404560064829596 " />
			<path d="M-28.963657269600034,11.535094200040525 L-28.963657269600034,29.432610010310395 " />
			<path d="M6.228155452318495,10.507044254559727 L-28.963657269600034,11.535094200040525 " />
			<path d="M14.912344395235051,-4.748546175700961 L14.912344395235051,13.148969634568909 " />
			<path d="M14.912344395235051,-4.748546175700961 L6.228155452318493,10.507044254559725 " />
			<path d="M-28.963657269600034,11.535094200040525 L-42.02920471455008,-3.085126421780544 " />
			<path d="M14.912344395235051,-4.748546175700961 L42.029204714550104,-14.81238938848931 " />

        </g>

        <!-- solid lines -->
        <g  stroke="rgb(0,0,0)" fill="none">
    			<path d="M6.228155452318495,28.404560064829592 L-28.963657269600034,29.43261001031039 " />
			<path d="M14.912344395235051,13.148969634568909 L6.228155452318493,28.404560064829592 " />
			<path d="M-42.02920471455008,-3.085126421780548 L-42.02920471455008,14.812389388489322 " />
			<path d="M-28.963657269600034,29.43261001031039 L-42.02920471455008,14.812389388489322 " />
			<path d="M-42.02920471455008,-3.085126421780548 L-14.91234439523503,-13.148969634568894 " />
			<path d="M-6.228155452318478,-28.40456006482958 L-14.91234439523503,-13.148969634568894 " />
			<path d="M28.96365726960005,-29.432610010310388 L-6.228155452318472,-28.404560064829585 " />
			<path d="M42.02920471455011,-14.812389388489313 L28.963657269600052,-29.432610010310388 " />
			<path d="M-42.02920471455008,14.81238938848932 L-14.91234439523503,4.748546175700974 " />
			<path d="M-6.228155452318478,-10.50704425455971 L-14.91234439523503,4.748546175700976 " />
			<path d="M28.96365726960005,-11.535094200040517 L-6.228155452318472,-10.507044254559714 " />
			<path d="M42.02920471455011,3.0851264217805547 L28.963657269600052,-11.535094200040518 " />
			<path d="M14.912344395235051,13.148969634568909 L42.029204714550104,3.085126421780559 " />
			<path d="M42.02920471455011,-14.812389388489313 L42.02920471455011,3.085126421780556 " />
			<path d="M-14.912344395235028,-13.148969634568893 L-14.912344395235028,4.748546175700977 " />
			<path d="M28.96365726960005,-29.432610010310388 L28.96365726960005,-11.535094200040518 " />
			<path d="M-6.228155452318478,-28.40456006482958 L-6.228155452318478,-10.507044254559712 " />

        </g>
        </g>
    </svg>
    