<?xml version="1.0" encoding="UTF-8" standalone="no"?>
    <svg
    xmlns:svg="http://www.w3.org/2000/svg"
    xmlns="http://www.w3.org/2000/svg"
    width="236"
    height="261"
    >
        <g transform="scale(4, -4)   translate(39.73634812807258,-35.56943251236817)" stroke-width="0.25"  fill="none">
        <!-- hidden lines -->
        <g  stroke="rgb(160,160,160)" fill="none" stroke-dasharray="0.25,0.25" >
    			<path d="M15.632238280681413,-24.830593477674068 L15.506441217940115,-24.788759894944885 L15.375278134063327,-24.748357442217145 L15.238939626611819,-24.709444829676 L15.097623813731264,-24.672078602568888 L14.95153604626,-24.636313059037718 L14.800888609326693,-24.60220017121639 L14.645900413871578,-24.569789509708272 L14.486796678539474,-24.539128171553514 L14.32380860240688,-24.510260711790693 L14.157173029018692,-24.483229078712373 L13.98713210222275,-24.458072552908607 L13.813932914302338,-24.43482769018698 L13.637827146917937,-24.413528268452094 L13.459070705380011,-24.394205238621755 L13.277923346784235,-24.376886679651136 L13.094648302549595,-24.361597757730284 L12.909511895907816,-24.348360689714262 L12.722783154899954,-24.337194710839096 L12.534733421442567,-24.32811604677038 L12.345635957031504,-24.321137890025206 L12.155765545656267,-24.316270380801676 L11.965398094502023,-24.313520592243837 L11.774810233019425,-24.312892520163434 L11.58427891094491,-24.314387077233476 L11.394080995855573,-24.318002091662 L11.204492870843419,-24.323732310347964 L11.015790032893644,-24.331569406514717 L10.828246692550556,-24.34150199180992 L10.642135375452854,-24.35351563285436 L10.457726526317309,-24.36759287221556 L10.275288115946296,-24.383713253775806 L10.095085251830271,-24.4018533524576 L9.917379792911007,-24.421986808263462 L9.74242996906541,-24.44408436458053 L9.570490005862872,-24.468113910694356 L9.401809755141397,-24.49404052845007 L9.236634331939346,-24.52182654299316 L9.075203758310415,-24.551431577516073 L8.91775261453937,-24.582812611931146 L8.764509698265423,-24.615924045384563 L8.615697692008556,-24.650717762520518 L8.47153283958194,-24.687143203399273 L8.332224631860669,-24.725147436967553 L8.197975502363391,-24.764675237974444 L8.068980533089254,-24.80566916722112 L7.945427171037581,-24.84806965502768 L7.827494955822229,-24.8918150877959 L7.715355258776438,-24.936841897542074 L7.609171033927288,-24.98308465426979 L7.50909658120163,-25.03047616104852 L7.4152773222075945,-25.07894755165976 L7.327849588917475,-25.12842839066891 L7.2469404255590835,-25.17884677577738 L7.172667404003435,-25.230129442306314 L7.105138452917047,-25.28220186965996 L7.044451700927104,-25.33498838961413 L6.9906953340273965,-25.388412296272254 L6.943947467432235,-25.442395957529374 L6.904276032064563,-25.49686092788197 L6.871738675843214,-25.551728062419834 L6.846382679912747,-25.606917631834232 L6.828244889937597,-25.662349438275285 L6.81735166256039,-25.717942931890217 L6.813718827102193,-25.773617327873076 " />
			<path d="M16.813718827102193,-25.773617327873083 L16.812516545578067,-25.741584997996966 L16.808910279198038,-25.7095680728722 L16.802901762261076,-25.677581949841805 L16.794493884338745,-25.645642011435676 L16.783690688885557,-25.613763617972946 L16.770497371294432,-25.58196210017501 L16.75492027639816,-25.550252751792776 L16.736966895418103,-25.51865082225173 L16.716645862361553,-25.487171509318273 L16.693966949869555,-25.455829951790943 L16.641580241568008,-25.393620319658645 L16.579907532112028,-25.332141581053325 L16.50906744397273,-25.271511985358845 L16.429196232333055,-25.211848148701332 L16.34044752301194,-25.15326482964747 L16.24299201697746,-25.095874708475677 L16.13701716201734,-25.03978817044471 L16.02272679219826,-24.985113093476528 L15.90034073580752,-24.931954640661836 L15.770094392531107,-24.88041505798738 L15.632238280681417,-24.83059347767407 " />
			<path d="M7.995199373522971,-2.807357510022271 L7.838264733216507,-2.7442697932422355 L7.691316821828154,-2.6669590998617494 L7.554724786861934,-2.5756196418925796 L7.428831760848968,-2.4704808729731553 L7.31395399936504,-2.351806911958626 L7.210380086565713,-2.2198958794285097 L7.118370210234743,-2.0750791487786664 L7.03815550816696,-1.9177205137789777 L6.969937487527553,-1.7482152746878654 L6.913887518646392,-1.5669892452194425 L6.870146404519027,-1.3744976828578785 L6.838824027095808,-1.1712241452061392 L6.8199990712476986,-0.9576792752420573 L6.813718827102193,-0.734399518533317 " />
			<path d="M6.813718827102193,-0.7343995185333121 L6.823348582412538,-0.44525021711985957 L6.8522007554708635,-0.14314784212267284 L6.900164210530468,0.17074393767816431 L6.967054197056903,0.4952160418691349 L7.052613061368955,0.8290186356627416 L7.156511239095403,1.1708659441387645 L7.278348524624724,1.519441204923396 L7.417655612657931,1.8734017402290526 L7.573895905926662,2.231384128717753 L7.746467582113328,2.5920094572667267 L7.934705912011783,2.9538886324067555 L8.137885819999163,3.315627730974274 L8.355224676956217,3.6758333693669663 L8.585885314878071,4.033118070721008 " />
			<path d="M7.069525249494297,6.896111506685244 L7.034548507988761,6.886117721500462 L7.002088210217343,6.8740342963849415 L6.9721614479569585,6.859867593794419 L6.944783978966454,6.843625073121949 L6.919970218689452,6.825315286770284 L6.897733232663984,6.8049478756486295 L6.878084729642913,6.7825335640962905 L6.861035055428754,6.7580841542358385 L6.846593187426157,6.731612519758748 L6.834766729914909,6.703132599146869 L6.825561910045936,6.672659388333166 L6.8189835745624485,6.640208932805734 L6.815035187247908,6.605798319159099 L6.813718827102193,6.56944566609743 " />
			<path d="M6.813718827102193,6.5694456660974225 L6.8233485824123274,6.461530484897224 L6.852200755470476,6.3399641340206045 L6.900164210529937,6.205214875152787 L6.96705419705626,6.0578017492502845 L7.052613061368237,5.898292577245961 L7.156511239094643,5.727301772858343 L7.2783485246239525,5.545487975930154 L7.417655612657182,5.35355151541204 L7.573895905925966,5.152231711764067 L7.7464675821127145,4.9423040291656335 L7.934705912011282,4.724577088503345 L8.1378858199988,4.499889552642518 L8.35522467695602,4.269106895979906 L8.585885314878047,4.033118070721054 " />
			<path d="M9.467099792025373,-2.8122166868301974 L9.347982278905924,-2.839731904782056 L9.230686092032759,-2.8629945031234882 L9.115297872707398,-2.8819872988424002 L9.00190285290343,-2.8966962628336397 L8.89058479230959,-2.9071105302616225 L8.781425916460313,-2.9132224085857175 L8.674506855999503,-2.915027383242343 L8.56990658712241,-2.912524120979686 L8.467702373239515,-2.905714470842529 L8.36796970790562,-2.8946034628063906 L8.270782259056222,-2.8791993040621833 L8.176211814592396,-2.8595133729538844 L8.084328229354373,-2.8355602105739166 L7.995199373523001,-2.8073575100222805 " />
			<path d="M6.813718827102193,6.8329373994736855 L6.813718827102193,6.569445656265714 " />
			<path d="M6.813718827102193,-0.7343995087769848 L6.813718827102193,-3.467497238364704 " />

        </g>

        <!-- solid lines -->
        <g  stroke="rgb(0,0,0)" fill="none">
    			<path d="M6.813718827102193,-25.773617327873083 L6.8152247336211715,-25.80946639462737 L6.81974154607633,-25.84529386724433 L6.827266543708742,-25.881078164594133 L6.837795193741208,-25.91679773155411 L6.851321154108643,-25.95243105199277 L6.867836277278288,-25.9879566617303 L6.887330615157486,-26.023353161467778 L6.9097924250860405,-26.05859922967732 L6.9352081769095495,-26.093673635445374 L6.963562561129473,-26.128555251261425 L6.994838498124993,-26.16322306574441 L7.029017148441148,-26.1976561962992 L7.066077924137009,-26.23183390169548 L7.105998501187088,-26.265735594561516 L7.194321164545759,-26.33262943681491 L7.293772361484977,-26.398176569934186 L7.404112505360417,-26.462219085134407 L7.525075777100832,-26.524602698386996 L7.6563707655894655,-26.58517712210347 L7.797681169698967,-26.643796427191397 L7.948666560288507,-26.70031939461038 L8.108963200327397,-26.754609855581077 L8.278184921169455,-26.80653701962773 L8.4559240528671,-26.855975789663866 L8.641752406283967,-26.902807063362143 L8.835222304640027,-26.94691802008229 L9.035867662004183,-26.988202392665897 L9.243205106136084,-27.026560723443335 L9.456735142972203,-27.061900603835962 L9.67594335995078,-27.094136896976508 L9.900301665276741,-27.12319194281123 L10.12926956014109,-27.148995745189787 L10.362295440829875,-27.17148614049211 L10.598817927585868,-27.190608947385986 L10.83826721702155,-27.20631809735465 L11.080066454825385,-27.218575745679864 L11.323633125454391,-27.22735236261317 L11.568380455465103,-27.232626804515643 L11.813718827102191,-27.23438636479474 L12.05905719873928,-27.232626804515643 L12.303804528749993,-27.22735236261317 L12.547371199378999,-27.218575745679864 L12.789170437182834,-27.20631809735465 L13.028619726618516,-27.190608947385986 L13.265142213374506,-27.17148614049211 L13.498168094063296,-27.148995745189787 L13.727135988927643,-27.12319194281123 L13.951494294253603,-27.094136896976508 L14.17070251123218,-27.061900603835962 L14.3842325480683,-27.026560723443335 L14.591569992200203,-26.988202392665897 L14.792215349564357,-26.94691802008229 L14.985685247920417,-26.902807063362143 L15.171513601337281,-26.855975789663866 L15.34925273303493,-26.80653701962773 L15.51847445387699,-26.754609855581077 L15.678771093915879,-26.70031939461038 L15.829756484505417,-26.643796427191397 L15.971066888614919,-26.58517712210347 L16.102361877103554,-26.524602698387 L16.223325148843966,-26.462219085134407 L16.33366529271941,-26.398176569934186 L16.433116489658623,-26.332629436814912 L16.521439153017294,-26.265735594561516 L16.561359730067373,-26.231833901695484 L16.598420505763237,-26.1976561962992 L16.63259915607939,-26.16322306574441 L16.66387509307491,-26.128555251261428 L16.692229477294834,-26.093673635445377 L16.717645229118343,-26.05859922967732 L16.740107039046897,-26.023353161467778 L16.7596013769261,-25.9879566617303 L16.776116500095743,-25.95243105199277 L16.789642460463178,-25.91679773155411 L16.800171110495643,-25.881078164594133 L16.807696108128056,-25.84529386724433 L16.812212920583214,-25.80946639462737 L16.813718827102193,-25.773617327873097 " />
			<path d="M15.632238280681413,32.55168732564552 L15.506441217940115,32.5935209083747 L15.375278134063327,32.63392336110244 L15.238939626611819,32.67283597364359 L15.097623813731264,32.7102022007507 L14.95153604626,32.74596774428187 L14.800888609326693,32.7800806321032 L14.645900413871578,32.812491293611316 L14.486796678539474,32.843152631766074 L14.32380860240688,32.872020091528896 L14.157173029018692,32.89905172460722 L13.98713210222275,32.92420825041098 L13.813932914302338,32.94745311313261 L13.637827146917937,32.9687525348675 L13.459070705380011,32.98807556469783 L13.277923346784235,33.00539412366845 L13.094648302549595,33.02068304558931 L12.909511895907816,33.033920113605326 L12.722783154899954,33.04508609248049 L12.534733421442567,33.05416475654921 L12.345635957031504,33.06114291329438 L12.155765545656267,33.06601042251791 L11.965398094502023,33.068760211075755 L11.774810233019425,33.06938828315616 L11.58427891094491,33.06789372608611 L11.394080995855573,33.064278711657586 L11.204492870843419,33.058548492971624 L11.015790032893644,33.05071139680487 L10.828246692550556,33.04077881150967 L10.642135375452854,33.02876517046523 L10.457726526317309,33.01468793110403 L10.275288115946296,32.99856754954378 L10.095085251830271,32.98042745086199 L9.917379792911007,32.96029399505613 L9.74242996906541,32.938196438739055 L9.570490005862872,32.91416689262523 L9.401809755141397,32.88824027486952 L9.236634331939346,32.86045426032643 L9.075203758310415,32.83084922580352 L8.91775261453937,32.79946819138844 L8.764509698265423,32.76635675793503 L8.615697692008556,32.731563040799074 L8.47153283958194,32.695137599920315 L8.332224631860669,32.657133366352035 L8.197975502363391,32.617605565345144 L8.068980533089254,32.57661163609847 L7.945427171037581,32.53421114829191 L7.827494955822229,32.49046571552368 L7.715355258776438,32.445438905777515 L7.609171033927288,32.3991961490498 L7.50909658120163,32.35180464227107 L7.4152773222075945,32.30333325165983 L7.327849588917475,32.25385241265068 L7.2469404255590835,32.20343402754221 L7.172667404003435,32.152151361013274 L7.105138452917047,32.10007893365963 L7.044451700927104,32.04729241370546 L6.9906953340273965,31.993868507047335 L6.943947467432235,31.939884845790214 L6.904276032064563,31.88541987543762 L6.871738675843214,31.830552740899755 L6.846382679912747,31.775363171485356 L6.828244889937597,31.719931365044303 L6.81735166256039,31.66433787142937 L6.813718827102193,31.608663475446512 " />
			<path d="M6.813718827102193,31.608663475446505 L6.8152247336211715,31.572814408692217 L6.81974154607633,31.53698693607526 L6.827266543708742,31.501202638725456 L6.837795193741208,31.46548307176548 L6.851321154108643,31.429849751326817 L6.867836277278288,31.394324141589287 L6.887330615157486,31.35892764185181 L6.9097924250860405,31.32368157364227 L6.9352081769095495,31.288607167874215 L6.963562561129473,31.253725552058164 L6.994838498124993,31.219057737575177 L7.029017148441148,31.18462460702039 L7.066077924137009,31.150446901624107 L7.105998501187088,31.116545208758073 L7.194321164545759,31.04965136650468 L7.293772361484977,30.984104233385402 L7.404112505360417,30.92006171818518 L7.525075777100832,30.857678104932592 L7.6563707655894655,30.797103681216118 L7.797681169698967,30.73848437612819 L7.948666560288507,30.68196140870921 L8.108963200327397,30.627670947738512 L8.278184921169455,30.57574378369186 L8.4559240528671,30.526305013655723 L8.641752406283967,30.479473739957445 L8.835222304640027,30.4353627832373 L9.035867662004183,30.39407841065369 L9.243205106136084,30.355720079876253 L9.456735142972203,30.320380199483626 L9.67594335995078,30.28814390634308 L9.900301665276741,30.25908886050836 L10.12926956014109,30.233285058129802 L10.362295440829875,30.210794662827478 L10.598817927585868,30.191671855933603 L10.83826721702155,30.17596270596494 L11.080066454825385,30.163705057639724 L11.323633125454391,30.154928440706417 L11.568380455465103,30.149653998803945 L11.813718827102191,30.147894438524848 L12.05905719873928,30.149653998803945 L12.303804528749993,30.154928440706417 L12.547371199378999,30.163705057639724 L12.789170437182834,30.17596270596494 L13.028619726618516,30.191671855933603 L13.265142213374506,30.210794662827478 L13.498168094063296,30.233285058129802 L13.727135988927643,30.25908886050836 L13.951494294253603,30.28814390634308 L14.17070251123218,30.320380199483626 L14.3842325480683,30.355720079876253 L14.591569992200203,30.39407841065369 L14.792215349564357,30.4353627832373 L14.985685247920417,30.479473739957445 L15.171513601337281,30.526305013655723 L15.34925273303493,30.57574378369186 L15.51847445387699,30.627670947738512 L15.678771093915879,30.68196140870921 L15.829756484505417,30.73848437612819 L15.971066888614919,30.797103681216118 L16.102361877103554,30.85767810493259 L16.223325148843966,30.92006171818518 L16.33366529271941,30.984104233385402 L16.433116489658623,31.049651366504676 L16.521439153017294,31.116545208758073 L16.561359730067373,31.150446901624104 L16.598420505763237,31.18462460702039 L16.63259915607939,31.219057737575177 L16.66387509307491,31.25372555205816 L16.692229477294834,31.28860716787421 L16.717645229118343,31.32368157364227 L16.740107039046897,31.35892764185181 L16.7596013769261,31.394324141589287 L16.776116500095743,31.429849751326817 L16.789642460463178,31.46548307176548 L16.800171110495643,31.501202638725456 L16.807696108128056,31.53698693607526 L16.812212920583214,31.572814408692217 L16.813718827102193,31.60866347544649 " />
			<path d="M16.813718827102193,31.608663475446505 L16.812516545578067,31.640695805322622 L16.808910279198038,31.672712730447387 L16.802901762261076,31.704698853477783 L16.794493884338745,31.736638791883912 L16.783690688885557,31.768517185346642 L16.770497371294432,31.80031870314458 L16.75492027639816,31.832028051526812 L16.736966895418103,31.86362998106786 L16.716645862361553,31.895109294001315 L16.693966949869555,31.926450851528646 L16.641580241568008,31.988660483660944 L16.579907532112028,32.05013922226627 L16.50906744397273,32.110768817960746 L16.429196232333055,32.17043265461826 L16.34044752301194,32.22901597367212 L16.24299201697746,32.28640609484391 L16.13701716201734,32.34249263287488 L16.02272679219826,32.39716770984306 L15.90034073580752,32.45032616265775 L15.770094392531107,32.5018657453322 L15.632238280681417,32.55168732564552 " />
			<path d="M15.041552340013416,1.8019280761616372 L14.479751400779922,2.346067673077119 L13.86624272914224,2.901290654056467 L13.212925332837145,3.456828463003017 L12.532470310273816,4.001906437728085 L11.838075094434574,4.525952784647924 L11.14320748851052,5.01880361884173 L10.461344457703884,5.470900092716551 L9.80571074333304,5.873473789966134 L9.189022368822677,6.218716789106015 L8.623240012283324,6.499933098200373 L8.119337029021962,6.71166852370262 L7.687086623189731,6.849816454601921 L7.334872296375118,6.9116975101908835 L7.069525249494305,6.896111506685245 " />
			<path d="M15.041552339326305,1.801928076852402 L14.705630881604025,1.3198104657373264 L14.348817765352273,0.8492349989221211 L13.97369066846826,0.3936011926368046 L13.582959572122075,-0.04379937795451383 L13.179447183397428,-0.45980685764560647 L12.76606854358146,-0.8514159385129751 L12.345809969416742,-1.2157975707652326 L11.921707479447432,-1.5503194002740557 L11.496824861311243,-1.8525647851426434 L11.07423153842283,-2.1203502539327985 L10.65698039594337,-2.3517412794294223 L10.248085726225266,-2.5450662539901074 L9.850501453057792,-2.698928565519605 L9.467099792025413,-2.8122166868301854 " />
			<path d="M-34.00851461584847,-13.180619862211431 L-33.931758649201754,-13.205795883636334 L-33.85504609113622,-13.228253335018104 L-33.77842032568374,-13.247979515766232 L-33.701924687791475,-13.264963269933428 L-33.625602438814255,-13.279194992524747 L-33.54949674204849,-13.290666634929611 L-33.47365063832163,-13.299371709473608 L-33.39810702165082,-13.305305293087544 L-33.322908614984655,-13.308464030091628 L-33.248097946041604,-13.308846134093255 L-33.17371732325887,-13.30645138899726 L-33.0998088118653,-13.30128114912816 L-33.02641421009178,-13.293338338464203 L-32.953575025532686,-13.282627448983751 L-32.881332451671646,-13.26915453812489 L-32.809727344585,-13.2529272253597 " />
			<path d="M-32.809727344584985,-13.252927225359697 L-32.73653911596224,-13.233301467438206 L-32.664117077818396,-13.210763564396434 L-32.5925048544812,-13.185327092224423 L-32.521745582476235,-13.157007372901882 L-32.451881884543106,-13.125821465168785 L-32.38295584396106,-13.091788154249837 L-32.315008979199646,-13.054927940538947 L-32.24808221890949,-13.015263027250562 L-32.18221587726845,-12.97281730704528 L-32.117449629697816,-12.927616347637807 L-32.05382248896337,-12.879687376395916 L-31.991372781675505,-12.829059263939701 L-31.93013812520276,-12.775762506751 L-31.870155405012476,-12.719829208803453 L-31.8114607524524,-12.66129306222426 L-31.754089522986497,-12.600189326999313 L-31.698076274898153,-12.536554809733893 L-31.64345474847354,-12.470427841481758 L-31.59025784567775,-12.401848254655935 L-31.538517610335866,-12.330857359035168 L-31.488265208830967,-12.25749791688046 L-31.43953091133066,-12.181814117176682 L-31.392344073553467,-12.103851549014774 L-31.346733119086032,-12.023657174130589 L-31.30272552226183,-11.941279298616895 L-31.260347791611633,-11.856767543825597 L-31.219625453895777,-11.77017281647768 L-31.1805830387278,-11.681547277998913 L-31.143244063798708,-11.590944313099756 L-31.107631020710805,-11.4984184976184 L-31.073765361429587,-11.404025565646329 L-31.041667485361888,-11.307822375956182 L-31.011356727068037,-11.20986687775216 L-30.982851344615433,-11.110218075763589 L-30.956168508580582,-11.008935994702677 L-30.93132429170618,-10.906081643107877 L-30.908333659219483,-10.801716976594616 L-30.887210459817826,-10.695904860535556 L-30.867967417326682,-10.588709032192842 L-30.850616123035305,-10.480194062325154 L-30.83516702871457,-10.370425316292708 L-30.82162944032121,-10.259468914683595 L-30.81001151239228,-10.147391693485217 L-30.800320243133136,-10.034261163824786 L-30.786739867193567,-9.805113354946414 L-30.78092102881765,-9.572577525191045 L-30.782877746096702,-9.337213873740295 L-30.792605305127406,-9.099589412245928 L-30.810080271368022,-8.860276598849127 L-30.835260546094258,-8.619851959078693 L-30.86808546781876,-8.378894696950542 L-30.90847595842997,-8.137985299614511 L-30.95633471369822,-7.897704138909952 L-31.011546437690132,-7.658630073199143 L-31.07397812052664,-7.421339052846798 L-31.143479358815416,-7.186402732705183 L-31.219882717985836,-6.954387094947512 L-31.303004135653516,-6.725851085567307 L-31.392643365042716,-6.501345267828561 L-31.488584457398364,-6.281410495910597 L-31.590596282225533,-6.066576611942972 L-31.698433084103034,-5.857361169569391 L-31.811835074729753,-5.654268187115639 L-31.93052905877743,-5.457786933365292 L-31.991771670139972,-5.362174277327508 L-32.054229092042135,-5.2683907488683595 L-32.11786370246839,-5.176492839678601 L-32.18263717030888,-5.086535905622442 L-32.2485104784486,-4.998574133393253 L-32.315443947269905,-4.912660507873522 L-32.38339725855397,-4.828846780218743 L-32.452329479767016,-4.747183436684461 L-32.522199088716526,-4.667719668215231 L-32.59296399856266,-4.590503340813835 L-32.664581583169806,-4.515580966708594 L-32.737008702782944,-4.442997676336148 L-32.81020173001344,-4.372797191156549 L-32.884116576118565,-4.3050217973171 L-32.95870871755887,-4.239712320180773 L-33.03393322281753,-4.176908099734511 L-33.10974477946541,-4.116646966892311 L-33.18609772145555,-4.0589652207072895 L-33.26294605663074,-4.003897606506486 L-33.34024349442738,-3.9514772949615864 L-33.41794347375931,-3.9017358621081435 L-33.49599919106436,-3.8547032703253548 L-33.5743636284971,-3.8104078502878496 L-33.65298958225068,-3.7688762839003465 L-33.73182969099056,-3.7301335882254714 L-33.81083646438326,-3.6942031004144154 L-33.88996231170273,-3.661106463649509 L-33.969159570497276,-3.630863614107178 L-34.04838053529955,-3.603492768949131 L-34.12757748636264,-3.579010415349032 L-34.20670271840457,-3.557431300561234 L-34.28570856934426,-3.538768423037588 L-34.364547449011305,-3.5230330245976686 L-34.44317186781258,-3.510234583657109 L-34.521534465338156,-3.500380809518168 L-34.59958803888945,-3.493477637725931 L-34.67728557191236,-3.4895292264929587 L-34.75458026231829,-3.4885379541945367 L-34.83142555067598,-3.490504417936033 L-34.90777514825716,-3.4954274331932185 L-34.983583064919124,-3.5033040345257884 L-35.058803636807525,-3.514129477363623 L-35.13339155386254,-3.527897240864746 L-35.207301887111925,-3.5445990318432283 " />
			<path d="M-35.20730188711195,-3.5445990318432354 L-35.27166554243099,-3.5616924895007935 L-35.335441466990815,-3.581036584939808 L-35.39859998652863,-3.6026223175573753 L-35.46111171405365,-3.626439643740534 L-35.52294756352057,-3.6524774815394503 L-35.58407876336298,-3.680723715823736 L-35.64447686988052,-3.7111652039194825 L-35.70411378047336,-3.7437877817244205 L-35.76296174671809,-3.7785762702983154 L-35.82099338727876,-3.8155144829255727 L-35.878181700647126,-3.8545852326467456 L-35.93450007770615,-3.895770340255444 L-35.98992231411096,-3.9390506427569267 L-36.044422622481456,-3.98440600228444 L-36.09797564440087,-4.03181531546916 L-36.15055646221483,-4.081256523259352 L-36.202140610625214,-4.132706621184232 L-36.25270408807365,-4.18614167005769 L-36.30222336790916,-4.2415368071169475 L-36.35067540933484,-4.298866257590935 L-36.398037668128566,-4.358103346693016 L-36.44428810713251,-4.419220512032493 L-36.53336797374264,-4.546980461194462 L-36.61774923677342,-4.681908351326685 L-36.69727486765793,-4.823753089562505 L-36.771796873875026,-4.97225071118781 L-36.84117657435476,-5.127124870863846 L-36.905284857555664,-5.288087356889633 L-36.96400242173375,-5.454838627546992 L-37.01721999695604,-5.627068368530052 L-37.06483854844545,-5.804456070421933 L-37.106769460878745,-5.986671625143909 L-37.14293470329439,-6.173375940267124 L-37.173266974303594,-6.36422157004366 L-37.19770982733425,-6.558853361982635 L-37.21621777567467,-6.756909117768094 L-37.2287563771217,-6.958020267288776 L-37.23530229807559,-7.161812554525403 L-37.235843356962505,-7.367906734019119 L-37.23037854690368,-7.575919276624987 L-37.218918037589184,-7.7854630832371585 L-37.2014831563527,-7.996148205157544 L-37.17810634848264,-8.207582569767402 L-37.148831116843354,-8.419372710151418 L-37.11371194091886,-8.631124497316488 L-37.072814175429734,-8.842443873642594 L-37.026213928711826,-9.052937586200857 L-36.9739979210831,-9.262213918574094 L-36.916263323462246,-9.469883419818043 L-36.85311757653931,-9.675559629206651 L-36.78467819083489,-9.878859795412758 L-36.711072528019955,-10.079405588785802 L-36.6324375639033,-10.276823805401039 L-36.548919633527596,-10.470747061570098 L-36.460674158848484,-10.660814477520418 L-36.36786535950347,-10.846672348971266 L-36.27066594720883,-11.02797480535661 L-36.16925680435328,-11.20438445346989 L-36.06382664738648,-11.375573005332928 L-35.9545716756288,-11.541221889120546 L-35.84169520615597,-11.701022842003999 L-35.72540729543795,-11.854678483809957 L-35.60592434843615,-12.00190287042752 L-35.4834687158866,-12.142422025933385 L-35.358268280518246,-12.275974452444931 L-35.23055603297664,-12.402311616752385 L-35.10056963824201,-12.521198412824514 L-34.96855099334877,-12.632413599327123 L-34.834745777229315,-12.735750211340143 L-34.69940299352001,-12.831015945507206 L-34.56277450718005,-12.918033517900847 L-34.42511457578561,-12.996640993937488 L-34.286679376371424,-13.066692089728159 L-34.21725151407084,-13.098467628401426 L-34.14772652870042,-13.128056444304214 L-34.07813676950011,-13.1554447700736 L-34.00851461584848,-13.180619862211428 " />
			<path d="M6.813718827102193,31.608663475446505 L6.813718827102193,6.8329373994736855 " />
			<path d="M6.813718827102193,-3.467497238364704 L6.813718827102193,-25.773617327873083 " />
			<path d="M16.813718827102193,31.608663475446505 L16.813718827102193,-25.773617327873083 " />
			<path d="M-32.809727344584985,-13.252927225359697 L9.467099785018984,-2.8122166885605004 " />
			<path d="M-35.20730188711195,-3.544599031843239 L7.069525242495338,6.896111504956778 " />

        </g>
        </g>
    </svg>
    