<?xml version="1.0" encoding="UTF-8" standalone="no"?>
    <svg
    xmlns:svg="http://www.w3.org/2000/svg"
    xmlns="http://www.w3.org/2000/svg"
    width="399"
    height="218"
    >
        <g transform="scale(4, -4)   translate(49.92640697094438,-26.67391074060862)" stroke-width="0.25"  fill="none">
        <!-- hidden lines -->
        <g  stroke="rgb(160,160,160)" fill="none" stroke-dasharray="0.25,0.25" >
    			<path d="M-47.42640687094437,-0.7391595352304918 L-47.418540946032934,-0.7870514349606479 L-47.394967920409556,-0.8248292017346213 L-47.355761963534,-0.8523739727217066 L-47.30104643185143,-0.8695990818818016 L-47.23099348066731,-0.8764503326488102 L-47.145823522483155,-0.8729061684530974 L-47.04580453349727,-0.858977740546436 L-46.93125121045246,-0.8347088729160499 L-46.80252398048367,-0.8001759243981161 L-46.66002786708087,-0.7554875484246326 L-46.504211215735324,-0.7007843511595198 L-46.33556428327876,-0.6362384490996034 L-46.154617695354034,-0.562052927532452 L-45.961940776870584,-0.47846120155492183 " />
			<path d="M-45.96194077687058,-0.47846120155491323 L3.5355339062792837,21.53467730375595 " />
			<path d="M7.071067812214736,23.497641757552387 L7.071067812208104,24.17391074060862 " />
			<path d="M3.5355339062792908,21.534677303755945 L3.739334922452361,21.62741222364798 L3.953618802919049,21.728998559087923 L4.177711331313997,21.83911668188115 L4.410907429636637,21.957420119673582 L4.652473376687382,22.083536646081853 L4.901649116626032,22.217069451855274 L5.157650650388586,22.35759839338449 L5.419672502438381,22.504681314628762 L5.686890255090123,22.657855438302406 L5.958463142432933,22.81663882194338 L6.233536695690923,22.980531874282555 L6.511245431698136,23.149018927142684 L6.790715576028763,23.321569857921265 L7.071067812214724,23.497641757552362 " />
			<path d="M47.42640687146748,5.550308609077655 L47.41854094655707,5.502416709347511 L47.39496792093472,5.464638942573576 L47.35576196406021,5.437094171586555 L47.301046432378655,5.419869062426552 L47.23099348119553,5.41301781165966 L47.14582352301237,5.4165619758555135 L47.045804534027454,5.430490403762336 L46.93125121098359,5.454759271392912 L46.80252398101571,5.489292219911056 L46.660027867613806,5.533980595884777 L46.50421121626913,5.588683793150145 L46.33556428381339,5.65322969521034 L46.15461769588946,5.727415216777787 L45.96194077740677,5.8110069427556335 " />
			<path d="M45.96194077740675,5.811006942755641 L10.606601718144773,21.53467730375013 " />
			<path d="M7.071067812214736,23.497641757552373 L7.351420048400676,23.321569857920807 L7.630890192731215,23.149018927141768 L7.908598928738286,22.980531874281176 L8.183672481996073,22.81663882194155 L8.455245369338623,22.657855438300132 L8.72246312199005,22.504681314626048 L8.984484974039479,22.35759839338134 L9.240486507801606,22.217069451851703 L9.48966224773978,22.083536646077874 L9.731228194789995,21.957420119669205 L9.964424293112057,21.839116681876398 L10.188516821506383,21.728998559082797 L10.402800701972403,21.627412223642505 L10.60660171814475,21.534677303750136 " />
			<path d="M2.2231994023513835e-10,-7.547892299095556 L2.2231994023513835e-10,-13.714276869845666 " />
			<path d="M-5.805486404406451,-7.864631286715817 L-5.805486404406451,-13.305345854701324 " />
			<path d="M2.2231994023513835e-10,-13.714276869845666 L-5.805486404406451,-13.305345854701322 " />
			<path d="M-8.473975608694092,-6.677867258240191 L-8.473975608694092,-15.634501404523931 " />
			<path d="M-5.805486404406451,-13.305345854701324 L-8.473975608694092,-15.634501404523933 " />
			<path d="M-4.317706230927245,-8.526295568260359 L-4.317706230927245,-17.4829297145441 " />
			<path d="M-8.473975608694092,-15.634501404523931 L-4.317706230927246,-17.4829297145441 " />
			<path d="M0.9194987152206835,-7.339531539797738 L0.9194987152206835,-16.29616568608148 " />
			<path d="M-4.317706230927245,-17.4829297145441 L0.9194987152206844,-16.29616568608148 " />
			<path d="M0.9194987152206835,-16.29616568608148 L2.2231871898981126e-10,-13.714276869845667 " />
			<path d="M28.284271247736527,5.031043989653507 L28.284271247736527,-1.135340581096604 " />
			<path d="M22.478784843107757,4.714305002033246 L22.478784843107757,-0.7264095659522596 " />
			<path d="M28.284271247736527,-1.135340581096604 L22.478784843107757,-0.7264095659522605 " />
			<path d="M19.810295638820115,5.9010690305088715 L19.810295638820115,-3.0555651157748684 " />
			<path d="M22.478784843107757,-0.7264095659522605 L19.810295638820115,-3.0555651157748698 " />
			<path d="M23.966565016586962,4.0526407204887045 L23.966565016586962,-4.9039934257950355 " />
			<path d="M19.810295638820115,-3.0555651157748684 L23.966565016586962,-4.903993425795035 " />
			<path d="M29.203769962734892,5.239404748951325 L29.203769962734892,-3.7172293973324146 " />
			<path d="M23.966565016586962,-4.9039934257950355 L29.203769962734892,-3.7172293973324164 " />
			<path d="M29.203769962734892,-3.7172293973324146 L28.284271247736527,-1.1353405810966026 " />
			<path d="M-21.213203435334872,1.8863099175011375 L-21.213203435334872,-4.280074653248974 " />
			<path d="M-27.018689839963642,1.5695709298808747 L-27.018689839963642,-3.8711436381046314 " />
			<path d="M-21.213203435334872,-4.280074653248974 L-27.018689839963642,-3.8711436381046305 " />
			<path d="M-29.687179044251284,2.7563349583564998 L-29.687179044251284,-6.20029918792724 " />
			<path d="M-27.018689839963642,-3.8711436381046314 L-29.687179044251284,-6.200299187927241 " />
			<path d="M-25.530909666484437,0.9079066483363349 L-25.530909666484437,-8.048727497947405 " />
			<path d="M-29.687179044251284,-6.20029918792724 L-25.530909666484437,-8.048727497947407 " />
			<path d="M-20.293704720336507,2.0946706767989536 L-20.293704720336507,-6.861963469484786 " />
			<path d="M-25.530909666484437,-8.048727497947405 L-20.293704720336507,-6.861963469484786 " />
			<path d="M-20.293704720336507,-6.861963469484786 L-21.213203435334872,-4.280074653248974 " />
			<path d="M7.071067812179336,14.4652462062502 L7.071067812179336,8.298861635500089 " />
			<path d="M1.2655814075505667,14.148507218629938 L1.2655814075505667,8.707792650644432 " />
			<path d="M7.071067812179336,8.298861635500089 L1.2655814075505658,8.707792650644432 " />
			<path d="M-1.4029077967370753,15.335271247105563 L-1.4029077967370753,6.378637100821823 " />
			<path d="M1.2655814075505667,8.707792650644432 L-1.4029077967370744,6.378637100821823 " />
			<path d="M2.753361581029772,13.486842937085397 L2.753361581029772,4.530208790801657 " />
			<path d="M-1.4029077967370753,6.378637100821823 L2.753361581029771,4.530208790801657 " />
			<path d="M7.990566527177701,14.673606965548018 L7.990566527177701,5.716972819264278 " />
			<path d="M2.753361581029772,4.530208790801657 L7.990566527177701,5.716972819264276 " />
			<path d="M7.990566527177701,5.716972819264278 L7.071067812179336,8.29886163550009 " />
			<path d="M-47.426406870944376,-7.424808725424607 L-47.42490096442539,-7.3702373087991315 L-47.42038415197021,-7.315698763954474 L-47.41285915433777,-7.261225942870722 L-47.40233050430525,-7.206851657938428 L-47.38880454393775,-7.152608662193647 L-47.37228942076803,-7.098529629588742 L-47.35279508288873,-7.044647135310808 L-47.330333272960075,-6.990993636159603 L-47.304917521136446,-6.93760145099678 L-47.276563136916394,-6.884502741278221 L-47.245287199920725,-6.8317294916811715 L-47.21110854960441,-6.77931349083787 L-47.174047773908384,-6.727286312187263 L-47.13412719685812,-6.67567929495635 L-47.09137086511651,-6.6245235252826 L-47.04580453349904,-6.573849817488825 L-46.997455649460036,-6.523688695521791 L-46.94635333655937,-6.474070374565725 L-46.892528376919486,-6.425024742841822 L-46.836013192683424,-6.376581343604698 L-46.77684182648494,-6.328769357346641 L-46.71504992094247,-6.281617584220363 L-46.65067469718936,-6.235154426690881 L-46.583754932453246,-6.18940787242692 L-46.442444528343124,-6.100174349496697 L-46.29145913775293,-6.014131986802368 L-46.13116249771335,-5.931488067932085 L-45.96194077687058,-5.852441689325161 " />
			<path d="M47.42640687146748,-1.1353405811082355 L47.424900964948506,-1.0807691644830166 L47.42038415249337,-1.0262306196386157 L47.412859154860996,-0.9717577985551198 L47.402330504828576,-0.917383513623079 L47.3888045444612,-0.8631405178785511 L47.37228942129164,-0.809061485273896 L47.35279508341253,-0.7551789909962092 L47.33033327348408,-0.7015254918452475 L47.30491752166069,-0.6481333066826656 L47.2765631374409,-0.5950345969643429 L47.245287200445524,-0.5422613473675247 L47.21110855012953,-0.48984534652444967 L47.17404777443384,-0.43781816787406436 L47.13412719738395,-0.3862111506433663 L47.09137086564273,-0.33505538096982457 L47.04580453402568,-0.28438167317625285 L46.997455649987124,-0.2342205512094141 L46.94635333708692,-0.1846022302535355 L46.89252837744752,-0.1355565985298124 L46.836013193211976,-0.08711319929286043 L46.776841827014024,-0.03930121303496481 L46.71504992147211,0.007850560091158032 L46.650674697719566,0.05431371762049597 L46.58375493298406,0.10006027188432243 L46.44244452887518,0.18929379481430697 L46.2914591382863,0.2753361575084412 L46.131162498248095,0.3579800763785741 L45.96194077740676,0.4370264549853953 " />
			<path d="M-45.96194077687058,-5.852441689325158 L3.5355339062792837,16.160696815985702 " />
			<path d="M3.535533906279288,16.1606968159857 L3.713273037977247,16.235955224679383 L3.8991013913944075,16.30724435936162 L4.092571289750747,16.37439247826276 L4.293216647115164,16.4372378156829 L4.500554091247309,16.49562897169958 L4.714084128083654,16.549425276903513 L4.933292345062435,16.598497131283448 L5.157650650388581,16.642726316444 L5.386618545253093,16.682006280404103 L5.619644425942024,16.716242394290056 L5.856166912698137,16.745352180304778 L6.095616202133915,16.76926551042404 L6.337415439937825,16.787924775341033 L6.580982110566886,16.801285023252206 L6.825729440577632,16.809314068150123 L7.071067812214734,16.811992567362367 L7.316406183851813,16.80931406814972 L7.561153513862493,16.8012850232514 L7.804720184491442,16.787924775339828 L8.046519422295198,16.76926551042244 L8.285968711730776,16.74535218030278 L8.522491198486646,16.71624239428767 L8.755517079175293,16.682006280401335 L8.984484974039479,16.642726316440854 L9.208843279365258,16.59849713127993 L9.428051496343631,16.549425276899633 L9.641581533179526,16.495628971695353 L9.848918977311186,16.43723781567833 L10.049564334675079,16.37439247825786 L10.243034233030862,16.3072443593564 L10.42886258644743,16.235955224673862 L10.606601718144747,16.160696815979893 " />
			<path d="M45.96194077740675,0.4370264549853966 L10.606601718144773,16.160696815979883 " />
			<path d="M-10.606601717556273,-8.997175761547322 L-10.863706244028988,-8.879991602621235 L-11.114266880080304,-8.76003662572685 L-11.358132697352143,-8.637383087256833 L-11.595156800194907,-8.512104869116449 L-11.825196414151947,-8.384277434219854 L-12.048112971961553,-8.253977781034049 L-12.263772197024686,-8.121284397197897 L-12.472044184288189,-7.986277212244095 L-12.672803478494725,-7.849037549452615 L-12.865929149752336,-7.709648076864601 L-13.051304866378096,-7.568192757486233 L-13.228818964971948,-7.424756798712545 L-13.398364517678587,-7.27942660100169 L-13.559839396596772,-7.132289705830521 L-13.713146335297381,-6.983434742962885 L-13.858192987413059,-6.832951377062368 L-13.994891982264214,-6.6809302536816535 L-14.12316097748785,-6.527462944661028 L-14.242922708637535,-6.372641892968936 L-14.354105035724603,-6.21656035701778 L-14.45664098667259,-6.059312354488554 L-14.50464706541355,-5.980280502466846 L-14.550468797658716,-5.9009926056981 L-14.594099282823754,-5.821460604647923 L-14.635531950318086,-5.741696476543131 L-14.67476056053439,-5.661712233568024 L-14.711779205788257,-5.581519921055386 L-14.746582311207884,-5.501131615672512 L-14.779164635573604,-5.420559423602501 L-14.80952127210722,-5.3398154787211105 L-14.837647649210927,-5.258911940769441 L-14.86353953115579,-5.177860993522721 L-14.88719301871963,-5.096674842955476 L-14.90860454977422,-5.015365715403356 L-14.927770899821743,-4.933945855721892 L-14.94468918248038,-4.852427525442466 L-14.959356849918994,-4.77082300092577 L-14.97177169324082,-4.689144571513031 L-14.98193184281612,-4.607404537675282 L-14.989835768563738,-4.525615209160955 L-14.995482280181532,-4.44378890314208 L-14.998870527325623,-4.361937942359361 L-14.99999999973845,-4.280074653266483 " />
			<path d="M-14.99999999973845,-4.280074653266421 L-14.99694375847395,-4.145416936626146 L-14.98777628009521,-4.0108140928485625 L-14.972501300338989,-3.876320972435732 L-14.951125043741746,-3.7419923811775746 L-14.923656221103148,-3.6078830578185714 L-14.890106025936424,-3.474047651751788 L-14.850488129907031,-3.340540700749316 L-14.804818677261457,-3.207416608738188 L-14.753116278248458,-3.074729623630845 L-14.695402001535413,-2.9425338152191722 L-14.631699365622865,-2.810883053141125 L-14.562034329260749,-2.6798309849289117 L-14.486435280870241,-2.549431014147689 L-14.40493302697551,-2.419736278633669 L-14.317560779650085,-2.2907996288405132 L-14.224354142982989,-2.162673606302836 L-14.125351098570103,-2.0354104222255884 L-14.020591990036714,-1.909061936208054 L-13.910119506597528,-1.7836796351111235 L-13.79397866566088,-1.659314612076456 L-13.672216794484179,-1.5360175457060867 L-13.544883510888106,-1.413838679410953 L-13.41203070303742,-1.2928278009367644 L-13.273712508296578,-1.1730342220755534 L-13.129985291168838,-1.0545067585711787 L-12.980907620327775,-0.9372937102269656 L-12.826540244750618,-0.8214428412235928 L-12.666946068963119,-0.7070013606552421 L-12.50219012740603,-0.5940159032919534 L-12.332339557933633,-0.48253251057600277 L-12.15746357445516,-0.3725966118600734 L-11.977633438730207,-0.26425300589485357 " />
			<path d="M11.977644080978179,-0.26425928368809704 L12.157473606016097,-0.3726027847803719 L12.332348992795827,-0.4825385702981939 L12.50219898006095,-0.5940218417004677 L12.666954354392017,-0.7070071698497 L12.826547978410847,-0.8214485135242544 L12.980914818138823,-0.9372992381800325 L13.129991969498064,-1.0545121349539195 L13.273718683944683,-1.173039439901277 L13.412036393223637,-1.2928328534596192 L13.544888733235151,-1.4138435601305601 L13.672221567002932,-1.536022248371994 L13.793983006734859,-1.6593191306924315 L13.910123434967092,-1.7836839639392519 L14.020595524783076,-1.9090660697726638 L14.12535425909914,-2.0354143553170037 L14.224356949008818,-2.162677333980927 L14.317563251178484,-2.290803146438073 L14.404935184287146,-2.4197395817595977 L14.48643714450373,-2.5494340986899884 L14.562035919995559,-2.6798338470574885 L14.631700704462071,-2.810885689310399 L14.695403109688316,-2.9425362221704923 L14.753117177113072,-3.074731798394704 L14.804819388406901,-3.207418548636251 L14.85048867505579,-3.340542403396233 L14.89010642694652,-3.4740491150568165 L14.92365649995025,-3.6078842799870063 L14.951125222501183,-3.74199336071196 L14.972501401167722,-3.8763217081368806 L14.987776325213737,-4.010814583816369 L14.99694377014818,-4.1454171822602035 L15.00000000026155,-4.280074653266391 " />
			<path d="M15.00000000026155,-4.2800746532664204 L14.997458727198898,-4.402865734258502 L14.989835769086778,-4.525615209161723 L14.977133708860936,-4.648281485984878 L14.959356850441841,-4.770823000927307 L14.936511217276347,-4.8931982324622085 L14.908604550296747,-5.015365715405657 L14.875646305297849,-5.137284054966514 L14.837647649733011,-5.258911940772492 L14.794621458930209,-5.38020816086761 L14.746582311729398,-5.501131615676302 L14.69354648554268,-5.621641331929456 L14.63553195083891,-5.741696476547644 L14.57255836505466,-5.861256370476861 L14.504647065933561,-5.980280502472064 L14.43182106429629,-6.09872854282386 L14.354105036243677,-6.216560357023683 L14.27152531479554,-6.333736019362815 L14.184109880968101,-6.450215826460683 L14.091888354292987,-6.565960310717806 L13.994891982781073,-6.6809302536888495 L13.893153632334505,-6.795086699371271 L13.78670777561054,-6.908390967405023 L13.675590480340952,-7.020804666178876 L13.559839397110977,-7.132289705838885 L13.439493746601924,-7.242808311194629 L13.314594306301768,-7.352323034518813 L13.185183396688267,-7.460796768235921 L13.051304866889232,-7.568192757495626 L12.91300407982486,-7.67447461262665 L12.770327896837117,-7.779606321466927 L12.623324661811397,-7.88355226156583 L12.472044184795875,-7.986277212254354 L12.31653772512404,-8.087746366579161 L12.156857974046158,-8.187925343096436 L11.993059036875573,-8.28678019752159 L11.825196414655847,-8.384277434230796 L11.653326985354992,-8.480384017610543 L11.477508984593136,-8.575067383251305 L11.297801985910183,-8.668295448981532 L11.114266880580118,-8.760036625738277 L10.926965856978839,-8.850259828270708 L10.735962379512474,-8.938934485672931 L10.541321167113301,-9.026030551742515 L10.343108171310648,-9.111518515161254 L10.141390553884106,-9.195369409494667 L9.93623666410666,-9.27755482300688 L9.727716015585488,-9.35804690828756 L9.515899262708196,-9.43681839168763 L9.300858176702562,-9.51384258256057 L9.082665621317815,-9.589093382306194 L8.861395528135754,-9.662545293213785 L8.637122871520026,-9.73417342710167 L8.409923643212089,-9.803953513750221 L8.179874826582447,-9.871861909125505 L7.947054370545873,-9.937875603390737 L7.711541163149468,-10.001972228702849 L7.4734150048425585,-10.064130066791535 L7.232756581437371,-10.124328056318177 L6.989647436769722,-10.182545800012223 L6.744169945069028,-10.238763571582494 L6.496407283046909,-10.292962322401186 L6.246443401713888,-10.345123687958232 L5.994362997933734,-10.395229994083877 L5.74025148572508,-10.443264262937312 L5.484194967320046,-10.489210218759407 L5.226280203989662,-10.533052293387506 L4.966594586645996,-10.574775631530512 L4.705226106230931,-10.614366095802382 L4.442263323901628,-10.651810271512396 L4.177795341022781,-10.687095471210547 L3.9119117689758336,-10.720209738986497 L3.6447026987953794,-10.75114185452069 L3.376258670643036,-10.779881336886195 L3.106670643129148,-10.806418448100027 L2.836029962492693,-10.830744196422739 L2.564428331649852,-10.852850339405133 L2.291957779121723,-10.872729386681122 L2.0187106278517066,-10.890374602505727 L1.7447794639231322,-10.90578000803739 L1.4702571051877082,-10.918940383363832 L1.1952365698154943,-10.929851269270747 L0.9198110447769334,-10.938508968752739 L0.6440738542676847,-10.944910548266012 L0.36811842808703,-10.94905383872236 L0.09203826998044211,-10.95093743622412 L-0.1840730740428884,-10.950560702539882 L-0.460122047406847,-10.947923765320736 L-0.7360151146687692,-10.943027518057017 L-1.0116587932126546,-10.935873619775563 L-1.2869596849244795,-10.926464494477571 L-1.5618245078388802,-10.914803330317266 L-1.8361601277464772,-10.900894078521628 L-2.1098735897511376,-10.884741452051578 L-2.382872149766478,-10.866350924005054 L-2.655063305940937,-10.845728725762529 L-2.9263548300007707,-10.822881844875585 L-3.19665479850035,-10.797818022699287 L-3.4658716239691696,-10.770545751769118 L-3.733914085945021,-10.74107427292341 L-4.0006913618828,-10.709413572172203 L-4.266113057928498,-10.675574377313627 L-4.530089239547929,-10.639568154298924 L-4.792530461999821,-10.601407103347386 L-5.0533478006429675,-10.561104154812448 L-5.3124528810670935,-10.518672964800444 L-5.569757909037349,-10.474127910543402 L-5.825175700242219,-10.42748408552751 L-6.078619709834699,-10.378757294378913 L-6.330004061756864,-10.327964047508512 L-6.579243577837789,-10.275121555517645 L-6.826253806655028,-10.220247723366509 L-7.0709510521498204,-10.163361144307299 L-7.313252401986369,-10.104481093584148 L-7.553075755645556,-10.043627521901971 L-7.790339852243589,-9.980821048666428 L-8.024964298066143,-9.91608295499733 L-8.256869593808684,-9.849435176517824 L-8.485977161513729,-9.780900295921793 L-8.712209371195904,-9.710501535322024 L-8.93548956714583,-9.638262748381713 L-9.155742093903855,-9.564208412231968 L-9.372892321894877,-9.488363619178076 L-9.586866672715576,-9.410754068197306 L-9.797592644065439,-9.331406056231167 L-10.004998834313184,-9.25034646927504 L-10.209014966690239,-9.16760277326824 L-10.409571913103063,-9.083203004787528 L-10.60660171755618,-8.997175761547364 " />
			<path d="M-14.999999999738446,2.885232663760571 L-14.999999999738446,-4.280074653266421 " />
			<path d="M15.000000000261547,2.885232663760571 L15.000000000261547,-4.280074653266421 " />

        </g>

        <!-- solid lines -->
        <g  stroke="rgb(0,0,0)" fill="none">
    			<path d="M-7.071067811685005,-14.820791754573973 L-43.84062043331747,1.5318254208602973 " />
			<path d="M-7.071067811685005,-14.820791754573971 L43.84062043384057,7.821293565174344 " />
			<path d="M-43.84062043331747,1.5318254208602966 L7.071067812208106,24.173910740608612 " />
			<path d="M43.84062043384056,7.821293565174342 L7.071067812208099,24.173910740608612 " />
			<path d="M2.2231994023513835e-10,-4.757642723561926 L-5.805486404406451,-4.348711708417582 " />
			<path d="M-5.805486404406451,-4.348711708417584 L-8.473975608694092,-6.677867258240193 " />
			<path d="M-8.473975608694092,-6.677867258240191 L-4.317706230927246,-8.526295568260357 " />
			<path d="M-4.317706230927245,-8.526295568260359 L0.9194987152206844,-7.33953153979774 " />
			<path d="M0.9194987152206835,-7.339531539797738 L2.2231871898981126e-10,-4.757642723561926 " />
			<path d="M28.284271247736527,7.821293565187136 L22.478784843107757,8.23022458033148 " />
			<path d="M22.478784843107757,8.23022458033148 L19.810295638820115,5.9010690305088715 " />
			<path d="M19.810295638820115,5.9010690305088715 L23.966565016586962,4.052640720488705 " />
			<path d="M23.966565016586962,4.0526407204887045 L29.203769962734892,5.239404748951324 " />
			<path d="M29.203769962734892,5.239404748951325 L28.284271247736527,7.821293565187137 " />
			<path d="M-21.213203435334872,4.676559493034766 L-27.018689839963642,5.0854905081791095 " />
			<path d="M-27.018689839963642,5.085490508179109 L-29.687179044251284,2.7563349583564993 " />
			<path d="M-29.687179044251284,2.7563349583564998 L-25.530909666484437,0.9079066483363336 " />
			<path d="M-25.530909666484437,0.9079066483363349 L-20.293704720336507,2.0946706767989536 " />
			<path d="M-20.293704720336507,2.0946706767989536 L-21.213203435334872,4.676559493034766 " />
			<path d="M7.071067812179336,17.25549578178383 L1.2655814075505658,17.664426796928172 " />
			<path d="M1.2655814075505667,17.664426796928172 L-1.4029077967370744,15.335271247105563 " />
			<path d="M-1.4029077967370753,15.335271247105563 L2.753361581029771,13.486842937085397 " />
			<path d="M2.753361581029772,13.486842937085397 L7.990566527177701,14.673606965548016 " />
			<path d="M7.990566527177701,14.673606965548018 L7.071067812179336,17.25549578178383 " />
			<path d="M-7.071067811691632,-18.686492683705225 L-7.071067811685,-14.820791754573976 " />
			<path d="M-10.606601717621665,-19.346865634742485 L-10.402800701449305,-19.425510112305012 L-10.188516820983281,-19.484869454500302 L-9.964424292588959,-19.524756894876973 L-9.731228194266897,-19.545046932790658 L-9.489662247216678,-19.545675728275498 L-9.240486507278504,-19.526641302908256 L-8.984484973516384,-19.488003546033216 L-8.722463121466951,-19.42988402632807 L-8.455245368815522,-19.35246560930399 L-8.183672481472975,-19.25599188194297 L-7.908598928215184,-19.14076638628314 L-7.630890192208117,-19.007151664363175 L-7.351420047877578,-18.85556811753091 L-7.07106781169166,-18.686492683705218 " />
			<path d="M-10.606601717621666,-19.346865634742485 L-45.96194077688365,-3.6231952737479993 " />
			<path d="M-47.42640687094437,-0.7391595352304758 L-43.84062043331747,1.5318254208603026 " />
			<path d="M-45.96194077688365,-3.6231952737479975 L-46.15461769536637,-3.5255131054403 L-46.33556428329029,-3.4091005906278458 L-46.504211215746025,-3.2743240061507244 L-46.66002786709071,-3.1216074090062294 L-46.802523980492616,-2.9514313021086807 L-46.93125121046048,-2.7643311224494655 L-47.04580453350435,-2.560895556414204 L-47.145823522489266,-2.3417646875575433 L-47.23099348067244,-2.1076279826635225 L-47.301046431855546,-1.8592221224279752 L-47.3557619635371,-1.5973286835885219 L-47.39496792041162,-1.3227716797949902 L-47.41854094603397,-1.0364149689576214 L-47.426406870944376,-0.7391595352305034 " />
			<path d="M-7.071067811691634,-18.686492683705207 L-6.790715575505661,-18.855568117531377 L-6.511245431175034,-19.007151664364095 L-6.233536695167821,-19.140766386284525 L-5.9584631419098315,-19.2559918819448 L-5.686890254567022,-19.352465609306268 L-5.419672501915279,-19.42988402633079 L-5.157650649865484,-19.488003546036357 L-4.901649116102931,-19.52664130291183 L-4.652473376164281,-19.545675728279477 L-4.410907429113536,-19.545046932795035 L-4.1777113307908955,-19.524756894881733 L-3.9536188023959475,-19.484869454505432 L-3.7393349219292595,-19.42551011231049 L-3.535533905756205,-19.34686563474831 " />
			<path d="M-3.5355339057561914,-19.3468656347483 L45.961940777393664,2.6662728705625582 " />
			<path d="M47.42640687146745,5.550308609077687 L43.84062043384057,7.821293565174349 " />
			<path d="M45.96194077739367,2.6662728705625574 L46.15461769587715,2.763955038869942 L46.33556428380186,2.880367553682098 L46.504211216258426,3.0151441381589423 L46.660027867603986,3.1678607353031834 L46.80252398100678,3.338036842200502 L46.93125121097556,3.5251370218595035 L47.04580453402038,3.7285725878945826 L47.14582352300627,3.9477034567510807 L47.230993481190424,4.181840161644963 L47.301046432374534,4.430246021880396 L47.35576196405711,4.692139460719764 L47.39496792093266,4.966696464513236 L47.41854094655604,5.253053175350567 L47.42640687146748,5.550308609077653 " />
			<path d="M2.2231994023513835e-10,-4.757642723561926 L2.2231994023513835e-10,-7.547892299095556 " />
			<path d="M-5.805486404406451,-4.348711708417584 L-5.805486404406451,-7.864631286715817 " />
			<path d="M28.284271247736527,7.821293565187136 L28.284271247736527,5.031043989653507 " />
			<path d="M22.478784843107757,8.23022458033148 L22.478784843107757,4.714305002033246 " />
			<path d="M-21.213203435334872,4.676559493034766 L-21.213203435334872,1.8863099175011375 " />
			<path d="M-27.018689839963642,5.085490508179109 L-27.018689839963642,1.5695709298808747 " />
			<path d="M7.071067812179336,17.25549578178383 L7.071067812179336,14.4652462062502 " />
			<path d="M1.2655814075505667,17.664426796928172 L1.2655814075505667,14.148507218629938 " />
			<path d="M-10.606601717621663,-24.720846122512725 L-10.428862585924328,-24.796104531206705 L-10.24303423250776,-24.867393665889246 L-10.049564334151977,-24.934541784790703 L-9.848918976788084,-24.997387122211173 L-9.641581532656426,-25.055778278228196 L-9.42805149582053,-25.109574583432476 L-9.208843278842156,-25.158646437812774 L-8.98448497351638,-25.202875622973696 L-8.755517078652195,-25.242155586934174 L-8.52249119796355,-25.27639170082051 L-8.28596871120768,-25.305501486835624 L-8.046519421772098,-25.329414816955282 L-7.80472018396834,-25.34807408187267 L-7.56115351333939,-25.36143432978424 L-7.316406183328711,-25.369463374682564 L-7.071067811691633,-25.37214187389521 L-6.825729440054533,-25.369463374682965 L-6.580982110043787,-25.361434329785048 L-6.337415439414727,-25.348074081873875 L-6.095616201610813,-25.329414816956884 L-5.856166912175032,-25.30550148683762 L-5.61964442541892,-25.2763917008229 L-5.3866185447299895,-25.242155586936946 L-5.157650649865478,-25.202875622976844 L-4.933292344539334,-25.15864643781629 L-4.714084127560553,-25.109574583436356 L-4.50055409072421,-25.055778278232427 L-4.2932166465920645,-24.99738712221574 L-4.0925712892276485,-24.934541784795602 L-3.8991013908713086,-24.86739366589446 L-3.7132730374541487,-24.79610453121223 L-3.535533905756219,-24.720846122518555 " />
			<path d="M-10.606601717621666,-24.72084612251273 L-45.96194077688365,-8.997175761518243 " />
			<path d="M-45.96194077688365,-8.99717576151824 L-46.13116249772499,-8.918129382911417 L-46.2914591377632,-8.835485464041284 L-46.44244452835208,-8.749443101347149 L-46.583754932460955,-8.660209578417165 L-46.650674697196465,-8.614463024153338 L-46.715049920949006,-8.567999866624 L-46.77684182649092,-8.520848093497877 L-46.836013192688874,-8.473036107239981 L-46.892528376924425,-8.42459270800303 L-46.94635333656382,-8.375547076279307 L-46.99745564946402,-8.325928755323428 L-47.045804533502576,-8.27576763335659 L-47.09137086511963,-8.225093925563018 L-47.134127196860845,-8.173938155889477 L-47.174047773910736,-8.122331138658778 L-47.21110854960643,-8.070303960008394 L-47.24528719992242,-8.017887959165318 L-47.2765631369178,-7.9651147095685 L-47.30491752113759,-7.912015999850177 L-47.33033327296098,-7.858623814687595 L-47.35279508288943,-7.804970315536633 L-47.37228942076854,-7.751087821258947 L-47.3888045439381,-7.697008788654292 L-47.402330504305475,-7.642765792909764 L-47.412859154337895,-7.5883915079777235 L-47.42038415197027,-7.533918686894228 L-47.424900964425404,-7.479380142049827 L-47.426406870944376,-7.4248087254246276 " />
			<path d="M-3.5355339057561914,-24.720846122518545 L45.961940777393664,-2.707707617207685 " />
			<path d="M45.96194077739368,-2.707707617207684 L46.131162498236456,-2.628661238600758 L46.29145913827603,-2.546017319730475 L46.442444528866226,-2.459974957036146 L46.58375493297635,-2.3707414341059234 L46.650674697712454,-2.324994879841962 L46.71504992146557,-2.2785317223124806 L46.77684182700804,-2.231379949186204 L46.836013193206526,-2.1835679629281444 L46.89252837744259,-2.1351245636910194 L46.94635333708247,-2.086078931967117 L46.99745564998314,-2.0364606110110506 L47.04580453402214,-1.9862994890440169 L47.09137086563961,-1.935625781250243 L47.13412719738122,-1.8844700115764927 L47.174047774431486,-1.8328629943455799 L47.21110855012751,-1.7808358156949737 L47.245287200443826,-1.728419814851672 L47.276563137439496,-1.6756465652546226 L47.30491752165955,-1.6225478555360642 L47.33033327348318,-1.5691556703732403 L47.35279508341184,-1.515502171222033 L47.37228942129113,-1.4616196769440992 L47.388804544460854,-1.4075406443391945 L47.40233050482835,-1.3532976485944146 L47.41285915486087,-1.2989233636621198 L47.42038415249331,-1.2444505425783687 L47.42490096494849,-1.1899119977337116 L47.42640687146748,-1.1353405811082558 " />
			<path d="M-11.977633438730196,-0.26425300589484824 L-11.711704241771615,-0.11200316793386378 L-11.435993681441904,0.03676558641090555 L-11.150732025268324,0.18192900867703177 L-10.85615751764787,0.3233658614978543 L-10.552516180870665,0.46095801985732887 L-10.240061609647451,0.5945905697454954 L-9.919054759312731,0.7241519041321824 L-9.589763727880495,0.8495338161788073 L-9.25246353213453,0.9706315896103872 L-8.907435877940319,1.0873440861723287 L-8.554968924970353,1.1995738300989167 L-8.195357046039392,1.3072270895229767 L-7.828900581250609,1.4102139547587145 L-7.455905587158005,1.508448413392351 L-7.076683581154562,1.6018484221178397 L-6.691551281299608,1.6903359752576685 L-6.300830341802734,1.7738371699115278 L-5.9048470843850955,1.8522822676784125 L-5.5039322257425365,1.9256057529006494 L-5.098420601338134,1.9937463873811492 L-4.688650885754815,2.0566472615282407 L-4.274965309841629,2.1142558418853348 L-3.8577093748899154,2.1665240150057334 L-3.4372315640780604,2.2134081276359527 L-3.013883051425831,2.2548690231739723 L-2.588017408501401,2.2908720743719915 L-2.15999030912599,2.321387212256364 L-1.7301592323227366,2.3463889512405487 L-1.298883163757901,2.3658564104101334 L-0.8665222959237708,2.37977333096212 L-0.4334377273136461,2.388128089783926 L8.839159856468816e-06,2.3909137091607624 L0.4334553982513014,2.388127862603265 L0.8665399447214184,2.3797728767905326 L1.298900775676082,2.3658557296269347 L1.7301767926527925,2.3463880444143133 L2.160007803202348,2.321386080144454 L2.588034821713822,2.2908707179199235 L3.013900369231611,2.254867443514624 L3.437248772014178,2.2134063260886236 L3.85772645858511,2.166521993075037 L4.274982255028402,2.114253601259942 L4.688667678281348,2.0566448040794745 L5.098437227180106,1.9937437151614184 L5.503948671014838,1.925602868141735 L5.904863335353428,1.8522791727896033 L6.300846384895078,1.773833867477606 L6.691567103117551,1.6903324680367593 L7.076699168484495,1.601844713039096 L7.455920926982169,1.5084445055535172 L7.8289156607579535,1.4102098514235308 L8.195371852636267,1.3072227941184629 L8.554983446291045,1.1995693462125017 L8.907450101857373,1.0873394175488569 L9.252477446768873,0.970626740148993 L9.589777321611356,0.8495287899296571 L9.919068020787362,0.724146705293089 L10.240074527790586,0.5945852026584193 L10.552528744893788,0.4609524890047467 L10.856169717058217,0.3233601714990124 L11.150743849877644,0.18192316428409683 L11.436005121374974,0.036759592504989946 L11.711715287474492,-0.11200930634678308 L11.977644080978138,-0.26425928368807305 " />
			<path d="M-12.020815279931984,-0.6694884297010351 L-12.312200409935059,-0.5366797162511601 L-12.59616913079387,-0.40073074243718576 L-12.872550390369225,-0.2617233988374892 L-13.141177706924925,-0.11974141827803031 L-13.401889269410098,0.025129674605150143 L-13.654528034928141,0.17280261488277926 L-13.898941823333475,0.3231884498974784 L-14.134983408899185,0.4761965928455263 L-14.362510609000287,0.6317348773429519 L-14.581386369759235,0.7897096129431245 L-14.791478848602036,0.9500256415723767 L-14.992661493675302,1.1125863948496635 L-15.18481312007634,1.2772939522557487 L-15.367817982850422,1.444049100116863 L-15.541565846711205,1.6127513913673113 L-15.624935478481815,1.697801003675294 L-15.70595205244235,1.7832992060550303 L-15.78460336779478,1.8692331227917354 L-15.860877579940318,1.9555898125536446 L-15.934763202263174,2.042356270340919 L-16.006249107860388,2.1295194294441604 L-16.075324531217532,2.217066163412227 L-16.14197906982993,2.304983288029011 L-16.206202685769238,2.3932575632989233 L-16.26798570719512,2.4818756954408 L-16.327318829811816,2.57082433888991 L-16.384193118269305,2.660090098307736 L-16.438600007508946,2.7496595305992475 L-16.49053130405333,2.8395191469373975 L-16.539979187240235,2.929655414794509 L-16.58693621040032,3.020054759980182 L-16.63139530197863,3.1107035686855404 L-16.6733497665995,3.2015881895334397 L-16.71279328607488,3.2926949356342723 L-16.749719920355822,3.3840100866471863 L-16.784124108427037,3.4755198908463356 L-16.81600066914434,3.5672105671918017 L-16.84534480201494,3.659068307404984 L-16.872152087920366,3.7510792780481 L-16.89641848978197,3.843229622607406 L-16.918140353168877,3.935505463579961 L-16.937314406848373,4.027892904563538 L-16.953937763278496,4.12037803234936 L-16.968007919042915,4.212946919017363 L-16.979522755227922,4.305585624033702 L-16.988480537741548,4.398280196350161 L-16.994879917574693,4.4910166765051125 L-16.998719931004292,4.583781098725751 L-16.99999999973845,4.676559493031298 L-16.99871993100352,4.7693378873368415 L-16.99487991757315,4.862102309557474 L-16.988480537739235,4.954838789712415 L-16.97952275522484,5.04753336202886 L-16.96800791903906,5.14017206704518 L-16.95393776327387,5.232740953713159 L-16.93731440684298,5.325226081498953 L-16.918140353162716,5.417613522482499 L-16.896418489775037,5.509889363455018 L-16.87215208791267,5.602039708014285 L-16.84534480200648,5.694050678657357 L-16.816000669135114,5.78590841887049 L-16.78412410841705,5.8775990952159045 L-16.749719920345076,5.969108899414997 L-16.712793286063373,6.060424050427851 L-16.673349766587233,6.151530796528618 L-16.631395301965608,6.242415417376448 L-16.586936210386547,6.333064226081734 L-16.539979187225708,6.42346357126733 L-16.490531304038058,6.5135998391243595 L-16.438600007492923,6.603459455462424 L-16.38419311825254,6.693028887753846 L-16.327318829794308,6.782294647171579 L-16.267985707176873,6.871243290620591 L-16.20620268575025,6.9598614227623665 L-16.14197906981021,7.048135698032173 L-16.075324531197083,7.136052822648847 L-16.00624910783921,7.223599556616801 L-15.934763202241271,7.310762715719925 L-15.860877579917695,7.397529173507078 L-15.784603367771437,7.483885863268862 L-15.705952052418294,7.569819780005437 L-15.624935478457049,7.655317982385039 L-15.541565846685732,7.740367594692884 L-15.367817982823546,7.9090698859430475 L-15.184813120048076,8.075825033803861 L-14.992661493645667,8.24053259120963 L-14.791478848571051,8.403093344486585 L-14.581386369726916,8.563409373115492 L-14.362510608966646,8.721384108715313 L-14.13498340886425,8.876922393212363 L-13.89894182329727,9.029930536160023 L-13.654528034890676,9.180316371174325 L-13.401889269371404,9.327989311451539 L-13.141177706885024,9.47286040433429 L-12.872550390328144,9.614842384893308 L-12.596169130751635,9.753849728492549 L-12.312200409891702,9.889798702306049 L-12.02081527988752,10.022607415755445 L-11.722189260245813,10.152195869837794 L-11.416502232114462,10.278486005313974 L-11.103938329928846,10.401401749728672 L-10.78468583049612,10.520869063233567 L-10.45893703958432,10.636815983186175 L-10.126888176084565,10.749172667497449 L-9.788739253816104,10.857871436702052 L-9.444693961045537,10.962846814725918 L-9.094959537792532,11.06403556832661 L-8.739746650996231,11.161376745182652 L-8.379269267617405,11.254811710608923 L-8.013744525752665,11.344284182876008 L-7.643392603838662,11.429740267112209 L-7.268436588024809,11.511128487767788 L-6.88910233779452,11.588399819621927 L-6.505618349915916,11.661507717313674 L-6.118215620803903,11.73040814337914 L-5.7271275073765775,11.79505959477802 L-5.332589586489742,11.855423127893463 L-4.934839513034215,11.911462381990258 L-4.534116876781414,11.96314360111718 L-4.1306630580634325,12.010435654440311 L-3.724721082374556,12.053310054995094 L-3.3165354739817916,12.09174097684581 L-2.906352108632592,12.125705270642165 L-2.4944180654484995,12.155182477563578 L-2.080981478093923,12.180154841642826 L-1.6662913853096941,12.200607320461565 L-1.2505975809014453,12.216527594211321 L-0.8341504632731596,12.227906073114484 L-0.4172008845965201,12.234735903200832 L2.9299686230439764e-10,12.237012970436105 L0.4172008851824949,12.234735903200146 L0.8341504638590774,12.227906073113111 L1.2505975814872685,12.216527594209264 L1.6662913858953852,12.200607320458824 L2.0809814786794436,12.180154841639403 L2.4944180660338127,12.155182477559475 L2.9063521092176448,12.125705270637383 L3.3165354745665767,12.091740976840352 L3.724721082959036,12.053310054988962 L4.130663058647541,12.010435654433515 L4.534116877365116,11.96314360110972 L4.934839513617501,11.91146238198214 L5.332589587072576,11.855423127884688 L5.727127507958895,11.795059594768599 L6.118215621385668,11.730408143369077 L6.505618350497122,11.66150771730297 L6.889102338375133,11.58839981961059 L7.2684365886047635,11.51112848775583 L7.643392604417953,11.42974026709963 L8.013744526331259,11.344284182862818 L8.379269268195241,11.254811710595131 L8.739746651573304,11.161376745168266 L9.094959538368794,11.064035568311638 L9.444693961620946,10.962846814710375 L9.788739254390626,10.857871436685947 L10.126888176658182,10.749172667480787 L10.458937040157014,10.636815983168962 L10.784685831067836,10.520869063215823 L11.10393833049956,10.401401749710406 L11.416502232684167,10.27848600529519 L11.722189260814474,10.152195869818502 L12.020815280455095,10.022607415735667 L12.31220041045816,9.889798702285798 L12.596169131316971,9.753849728471824 L12.872550390892334,9.614842384872123 L13.141177707448023,9.47286040431267 L13.40188926993319,9.327989311429494 L13.654528035451241,9.180316371151859 L13.898941823856584,9.029930536137154 L14.134983409422283,8.876922393189112 L14.36251060952338,8.721384108691693 L14.581386370282335,8.563409373091513 L14.791478849125145,8.403093344462256 L14.992661494198401,8.240532591184975 L15.184813120599447,8.075825033778884 L15.367817983373538,7.909069885917763 L15.541565847234313,7.740367594667321 L15.624935479004927,7.655317982359332 L15.705952052965463,7.569819779979595 L15.78460336831789,7.48388586324289 L15.860877580463438,7.397529173480975 L15.934763202786286,7.310762715693707 L16.0062491083835,7.2235995565904645 L16.07532453174065,7.136052822622386 L16.14197907035304,7.048135698005608 L16.206202686292347,6.9598614227357025 L16.26798570771824,6.871243290593813 L16.327318830334935,6.7822946471447025 L16.38419311879242,6.693028887726883 L16.43860000803206,6.603459455435365 L16.490531304576447,6.513599839097214 L16.539979187763343,6.423463571240109 L16.586936210923433,6.3330642260544305 L16.63139530250174,6.242415417349072 L16.67334976712261,6.151530796501179 L16.71279328659799,6.060424050400353 L16.749719920878928,5.969108899387439 L16.784124108950145,5.877599095188282 L16.816000669667446,5.785908418842823 L16.845344802538044,5.69405067862964 L16.872152088443475,5.602039707986519 L16.896418490305074,5.509889363427219 L16.91814035369198,5.417613522454664 L16.937314407371474,5.325226081471087 L16.953937763801598,5.232740953685271 L16.968007919566016,5.140172067017262 L16.979522755751027,5.047533362000923 L16.98848053826465,4.954838789684464 L16.994879918097794,4.862102309529505 L16.998719931527393,4.769337887308874 L17.00000000026155,4.676559493003327 L16.998719931526622,4.583781098697783 L16.994879918096252,4.491016676477158 L16.988480538262333,4.39828019632221 L16.979522755747936,4.305585624005765 L16.968007919562158,4.212946918989445 L16.95393776379697,4.120378032321459 L16.937314407366078,4.027892904535672 L16.918140353685814,3.9355054635521256 L16.896418490298135,3.843229622579606 L16.872152088435772,3.7510792780203466 L16.845344802529578,3.6590683073772685 L16.816000669658212,3.5672105671641345 L16.784124108940148,3.4755198908187275 L16.749719920868174,3.384010086619628 L16.71279328658647,3.2926949356067743 L16.67334976711033,3.201588189506013 L16.63139530248871,3.11070356865819 L16.58693621090965,3.020054759952904 L16.539979187748806,2.9296554147673017 L16.49053130456116,2.8395191469102787 L16.438600008016024,2.749659530572214 L16.384193118775638,2.6600900982807856 L16.32731883031741,2.5708243388630594 L16.267985707699975,2.481875695414047 L16.206202686273354,2.3932575632722717 L16.141979070333317,2.3049832880024717 L16.075324531720184,2.217066163385791 L16.00624910836231,2.129519429417838 L15.934763202764373,2.042356270314714 L15.860877580440793,1.9555898125275548 L15.784603368294539,1.869233122765777 L15.705952052941395,1.7832992060292017 L15.62493547898015,1.6978010036495985 L15.541565847208838,1.6127513913417597 L15.367817983346647,1.4440491000915903 L15.184813120571171,1.2772939522307714 L14.992661494168768,1.112586394825008 L14.79147884909416,0.9500256415480579 L14.58138637025002,0.7897096129191459 L14.36251060948975,0.6317348773193263 L14.13498340938736,0.47619659282228 L13.898941823820387,0.32318844987462647 L13.654528035413795,0.17280261486032344 L13.401889269894516,0.025129674583105555 L13.141177707408147,-0.11974141829964147 L12.872550390851256,-0.26172339885866336 L12.596169131274737,-0.4007307424579105 L12.312200410414816,-0.5366797162714079 L12.020815280410623,-0.6694884297208086 L11.722189260768904,-0.799076883803159 L11.416502232637566,-0.925367019279336 L11.103938330451937,-1.048282763694039 L10.784685831019198,-1.1677500771989378 L10.458937040107411,-1.2836969971515408 L10.126888176607643,-1.3960536814628188 L9.788739254339184,-1.5047524506674232 L9.444693961568628,-1.6097278286912848 L9.094959538315635,-1.710916582291972 L8.739746651519335,-1.808257759148014 L8.379269268140494,-1.9016927245742874 L8.013744526275769,-1.9911651968413704 L7.643392604361779,-2.0766212810775677 L7.268436588547912,-2.15800950173315 L6.88910233831761,-2.2352808335872902 L6.505618350439019,-2.3083887312790354 L6.118215621327021,-2.377289157344501 L5.727127507899682,-2.4419406087433835 L5.332589587012832,-2.5023041418588283 L4.934839513557319,-2.558343395955621 L4.534116877304532,-2.6100246150825406 L4.130663058586536,-2.657316668405673 L3.724721082897645,-2.700191068960458 L3.316535474504895,-2.738621990811173 L2.9063521091557103,-2.7725862846075255 L2.494418065971603,-2.8020634915289406 L2.0809814786170113,-2.82703585560819 L1.6662913858327977,-2.8474883344269273 L1.250597581424564,-2.863408608176683 L0.8341504637962631,-2.874787087079847 L0.4172008851196237,-2.8816169171661956 L2.3012188069488158e-10,-2.8838939844014684 L-0.41720088465936106,-2.881616917165509 L-0.8341504633359437,-2.8747870870784755 L-1.25059758096415,-2.863408608174627 L-1.6662913853722512,-2.847488334424188 L-2.080981478156295,-2.827035855604768 L-2.494418065510679,-2.802063491524839 L-2.9063521086945414,-2.7725862846027463 L-3.3165354740434436,-2.7386219908057194 L-3.7247210824358734,-2.7001910689543323 L-4.130663058124409,-2.657316668398881 L-4.534116876842012,-2.6100246150750843 L-4.934839513094368,-2.5583433959475057 L-5.332589586549443,-2.502304141850056 L-5.7271275074357915,-2.4419406087339617 L-6.118215620862565,-2.377289157334441 L-6.505618349974019,-2.308388731268332 L-6.889102337852029,-2.2352808335759518 L-7.26843658808166,-2.1580095017211924 L-7.64339260389485,-2.0766212810649938 L-8.013744525808155,-1.99116519682818 L-8.379269267672138,-1.9016927245604949 L-8.7397466510502,-1.808257759133629 L-9.094959537845691,-1.7109165822770018 L-9.444693961097842,-1.6097278286757382 L-9.788739253867522,-1.5047524506513108 L-10.126888176135079,-1.3960536814461504 L-10.458937039633911,-1.2836969971343253 L-10.784685830544733,-1.1677500771811866 L-11.103938329976456,-1.0482827636757701 L-11.416502232161063,-0.9253670192605536 L-11.72218926029137,-0.7990768837838651 L-12.020815279931778,-0.6694884297011265 " />
			<path d="M-14.99999999973845,2.8852326637605703 L-14.998870527325616,2.9670959528537018 L-14.995482280181513,3.0489469136366125 L-14.989835768563692,3.130773219655681 L-14.981931842816035,3.2125625481702 L-14.971771693240687,3.294302582008141 L-14.959356849918802,3.3759810114210715 L-14.944689182480118,3.4575855359379584 L-14.927770899821404,3.539103866217575 L-14.90860454977379,3.6205237258992287 L-14.887193018719099,3.7018328534515375 L-14.86353953115515,3.78301900401897 L-14.837647649210165,3.8640699512658774 L-14.809521272106325,3.9449734892177335 L-14.779164635572567,4.025717434099309 L-14.746582311206694,4.106289626169503 L-14.711779205786906,4.186677931552559 L-14.674760560532864,4.2668702440653785 L-14.635531950316377,4.346854487040666 L-14.594099282821851,4.426618615145635 L-14.55046879765661,4.506150616195988 L-14.50464706541123,4.5854385129649105 L-14.456640986670047,4.66447036498679 L-14.354105035721581,4.821718367516356 L-14.242922708634,4.977799903467844 L-14.123160977483762,5.13262095516026 L-13.994891982259533,5.286088264181199 L-13.858192987407751,5.438109387562218 L-13.713146335291409,5.588592753463027 L-13.5598393965901,5.737447716330944 L-13.39836451767118,5.884584611502383 L-13.228818964963775,6.029914809213496 L-13.05130486636912,6.1733507679874275 L-12.86592914974253,6.314806087366026 L-12.672803478484056,6.4541955599542575 L-12.472044184276628,6.591435222745939 L-12.263772197012205,6.726442407699928 L-12.048112971948123,6.85913579153625 L-11.825196414137544,6.9894354447222105 L-11.595156800179504,7.117262879618946 L-11.358132697335718,7.24254109775945 L-11.114266880062836,7.36519463622957 L-10.863706244010455,7.485149613124043 L-10.606601717536662,7.6023337720501925 L-10.343108170794453,7.71667652565248 L-10.073384322443724,7.828108998131686 L-9.7975926440451,7.9365640667331165 L-9.515899262193132,8.041976402178845 L-9.22847385844785,8.144282508019618 L-8.935489567124952,8.243420758882749 L-8.63712287100613,8.339331437592936 L-8.333553495032483,8.431956771143655 L-8.024964298044907,8.52124096549746 L-7.711541162636774,8.607130239194223 L-7.39347288318521,8.689572855747077 L-7.070951052128416,8.768519154806535 L-6.744169944557552,8.84392158207404 L-6.413326401192682,8.915734717946883 L-6.078619709813297,8.983915304877282 L-5.740251485214797,9.0484222734291 L-5.398425547763273,9.10921676701656 L-5.05334780062175,9.166262165309973 L-4.705226105721819,9.219524106294475 L-4.3542701585553845,9.268970506968406 L-4.000691361861925,9.314571582668922 L-3.644702698287409,9.356299865013153 L-3.286518602091499,9.394130218444138 L-2.926354829980374,9.428039855371539 L-2.5644283311429663,9.45800834989803 L-2.2009571165688753,9.484017650123107 L-1.8361601277266935,9.506052089016862 L-1.4702571046818607,9.524098393857226 L-1.1034684537334645,9.538145694224959 L-0.7360151146497211,9.548185528551581 L-0.3681184275821332,9.55421184921631 L2.615498625481935e-10,9.556221026188911 L0.36811842810523293,9.55421184921631 L0.7360151151728209,9.548185528551581 L1.103468454256564,9.538145694224959 L1.4702571052049604,9.524098393857226 L1.836160128249793,9.506052089016862 L2.2009571170919755,9.484017650123107 L2.564428331666066,9.458008349898032 L2.926354830503474,9.428039855371539 L3.2865186026145987,9.39413021844414 L3.6447026988105087,9.356299865013153 L4.000691362385026,9.314571582668922 L4.354270159078483,9.268970506968406 L4.705226106244919,9.219524106294475 L5.05334780114485,9.166262165309973 L5.398425548286373,9.10921676701656 L5.740251485737897,9.0484222734291 L6.078619710336399,8.98391530487728 L6.413326401715785,8.915734717946883 L6.744169945080651,8.84392158207404 L7.070951052651516,8.768519154806537 L7.39347288370831,8.689572855747077 L7.711541163159875,8.607130239194223 L8.024964298568007,8.521240965497462 L8.33355349555558,8.431956771143657 L8.637122871529225,8.339331437592937 L8.935489567648045,8.243420758882749 L9.228473858970947,8.14428250801962 L9.515899262716232,8.041976402178847 L9.797592644568203,7.9365640667331165 L10.073384322966827,7.828108998131685 L10.343108171317555,7.71667652565248 L10.606601718059762,7.602333772050193 L10.863706244533553,7.485149613124044 L11.114266880585934,7.365194636229571 L11.358132697858816,7.242541097759451 L11.595156800702606,7.117262879618946 L11.825196414660647,6.989435444722209 L12.048112972471227,6.859135791536249 L12.263772197535308,6.726442407699926 L12.472044184799731,6.591435222745939 L12.672803479007158,6.4541955599542575 L12.86592915026563,6.314806087366028 L13.05130486689222,6.1733507679874275 L13.228818965486875,6.029914809213498 L13.39836451819428,5.884584611502385 L13.559839397113198,5.737447716330946 L13.713146335814507,5.58859275346303 L13.858192987930853,5.438109387562219 L13.994891982782635,5.286088264181197 L14.123160978006863,5.1326209551602595 L14.242922709157101,4.977799903467844 L14.354105036244682,4.821718367516356 L14.456640987193149,4.664470364986791 L14.504647065934332,4.585438512964911 L14.550468798179711,4.50615061619599 L14.594099283344951,4.426618615145636 L14.635531950839479,4.346854487040668 L14.674760561055963,4.26687024406538 L14.711779206310007,4.186677931552562 L14.746582311729796,4.106289626169506 L14.779164636095668,4.025717434099311 L14.809521272629425,3.9449734892177366 L14.837647649733265,3.864069951265881 L14.86353953167825,3.7830190040189735 L14.8871930192422,3.701832853451541 L14.908604550296891,3.6205237258992296 L14.927770900344504,3.539103866217576 L14.94468918300322,3.45758553593796 L14.959356850441903,3.37598101142107 L14.971771693763788,3.2943025820081404 L14.981931843339137,3.2125625481701996 L14.989835769086794,3.130773219655681 L14.995482280704614,3.048946913636613 L14.998870527848718,2.967095952853702 L15.00000000026155,2.885232663760601 " />
			<path d="M-10.606601717621665,-24.72084612251273 L-10.606601717621665,-19.346865634742485 " />
			<path d="M-3.535533905756189,-24.720846122518545 L-3.535533905756189,-19.3468656347483 " />
			<path d="M-45.96194077688365,-8.997175761518239 L-45.96194077688365,-3.6231952737479958 " />
			<path d="M45.96194077739367,-2.707707617207685 L45.96194077739367,2.6662728705625582 " />
			<path d="M-11.208098711883347,-0.633387618798193 L-11.416205241430974,-0.5389732816403188 L-11.6191472143957,-0.44320354343251034 L-11.816796983114607,-0.34616193002206513 L-12.009031825809615,-0.2479389979188233 L-12.195733946587485,-0.1486323342951681 L-12.376790475439808,-0.04834655698602608 L-12.552093468243019,0.052806685511133544 L-12.721539906758386,0.1547087140362985 L-12.885031698632014,0.2572338187669131 L-13.042475677394847,0.3602492592178791 L-13.193783602462663,0.46361526424155475 L-13.33887215913608,0.5671850320277563 L-13.47766295860055,0.6708047301037556 L-13.610082537926363,0.7743134953342818 L-13.736062360068647,0.877543433921522 L-13.855538813867367,0.9803196214051195 L-13.939729689198918,1.0559138906266925 L-14.020357054548157,1.1311045730054758 L-14.097410693121475,1.2057996606872672 L-14.170888301429443,1.279910137448181 L-14.240795489286812,1.3533499786946468 L-14.307145779812512,1.4260361514634117 L-14.369960609429645,1.4978886144215378 L-14.429269327865498,1.5688303178664038 L-14.485109198151536,1.6387872037257047 L-14.5375253966234,1.7076882055574512 L-14.58657101292091,1.775465248549971 L-14.632307049988066,1.8420532495219069 L-14.714133964728205,1.9714167508301828 L-14.783652430479378,2.0953178766377496 L-14.820655123722823,2.168765483543594 L-14.853499065327656,2.240046716692669 L-14.882400052632727,2.3091740654541284 L-14.907582354727973,2.3761952077865143 L-14.93065414289073,2.445681055769134 L-14.949976171500847,2.512982521685388 L-14.965823042965626,2.578309542459212 L-14.978433057869132,2.64190858218927 L-14.98800821497219,2.7040626321489527 L-14.994714211212397,2.7650912107863785 L-14.998680441704108,2.8253503637243935 L-14.999999999738447,2.8852326637605685 " />
			<path d="M15.000000000261547,2.88523266376057 L14.998731351278792,2.8265113159562674 L14.994917895669984,2.7674342968483567 L14.988473870339671,2.7076312967262988 L14.979279402622328,2.6467654183890796 L14.967180510282331,2.5845331771452154 L14.95198910151398,2.5206645008127495 L14.933482974941482,2.4549227297192515 L14.911405819618961,2.3871046167018215 L14.889109401510607,2.3263251441436523 L14.863762173463751,2.2638009012383957 L14.83518968417861,2.199492900191714 L14.803226313786134,2.1333829601246976 L14.76771527384799,2.0654737070738682 L14.728508607356579,1.9957885739911743 L14.68546718873502,1.924371800743995 L14.63846072383716,1.8512884341151374 L14.56820053270535,1.7496764023642657 L14.490204268899038,1.6453401749466274 L14.404281714563325,1.538539157362049 L14.31028208709695,1.429539223308883 L14.208094039152302,1.3186127146840083 L14.097645658635411,1.2060384415828291 L13.978904468705956,1.0921016822992762 L13.851877427777255,0.9770941833258062 L13.72201201700831,0.8657734686974516 L13.584524417249579,0.7539475212379354 L13.439499477370235,0.6418356337126867 L13.287028189633334,0.5296477005824413 L13.127207689695803,0.41758421800324064 L12.960141256608445,0.30583628382643246 L12.785938312815942,0.19458559759867078 L12.604714424156848,0.08400446056191435 L12.416591299863597,-0.025744224346569533 L12.221696792562502,-0.13450695249420774 L12.020164898273745,-0.24213961755312274 L11.812135756411386,-0.3485075115001304 L11.597755649783364,-0.45348532461673985 L11.377177004591491,-0.5569571454891553 L11.150558390431458,-0.6588164610082727 L10.918064520292829,-0.7589661563696843 L10.64002423310807,-0.873387093992765 L10.354408881116974,-0.985128159802305 L10.06146431044483,-1.0940737874896653 L9.761437003582508,-1.2001126887888667 L9.45457407938646,-1.303137853476589 L9.141123293078723,-1.403046549372172 L8.821333036246916,-1.4997403223376133 L8.495452336844238,-1.593124996277572 L8.163730859189476,-1.6831106731393648 L7.826418903966996,-1.7696117329129684 L7.483767408226747,-1.852546833631019 L7.13602794538426,-1.9318389113688115 L6.78345272522065,-2.007415180244301 L6.4262945938826155,-2.079207132418101 L6.064807033882427,-2.147150538093487 L5.699244164097963,-2.211185445516388 L5.329860739772661,-2.2712561809753984 L4.956912152515542,-2.3273113488017696 L4.580654430301231,-2.3793038313694104 L4.201344237469915,-2.427190789094892 L3.8192388747273682,-2.470933660437444 L3.434596279144949,-2.510498161898955 L3.0476750241596022,-2.545854288023973 L2.6587343195738455,-2.5769763113997053 L2.268034011555791,-2.6038427826560175 L1.8758345826391256,-2.6264365304654382 L1.48239715172312,-2.644744661543151 L1.0879834740726295,-2.6587585606470006 L0.6928559413180952,-2.6684738905774914 L0.2972775814555284,-2.6738905921777865 L-0.09848794115345783,-2.675012884333709 L-0.49417632578168824,-2.6718492639737415 L-0.8719659411081606,-2.66464483644607 L-1.2492409684700763,-2.6535375212758177 L-1.6257713257611137,-2.6385254500517417 L-2.001327517570542,-2.619610569146421 L-2.375680635183219,-2.596798639716254 L-2.7486023565795956,-2.5700992377014615 L-3.1198649464357104,-2.5395257538260836 L-3.4892412561231954,-2.5050953935979816 L-3.8565047237092687,-2.466829177308837 L-4.2214293739567434,-2.424751940034153 L-4.58378981832402,-2.3788923316332524 L-4.943361254965091,-2.3292828167492794 L-5.299919468729537,-2.275959674809198 L-5.653240831162532,-2.2189630000237943 L-6.003102300504847,-2.1583367013876718 L-6.349281421692817,-2.094128502679261 L-6.691556326358397,-2.0263899424608063 L-7.029705732829124,-1.9551763740783754 L-7.363508946128113,-1.8805469656618592 L-7.692745857974084,-1.8025647001249654 L-8.01719694678134,-1.7212963751652246 L-8.336643277659778,-1.636812603263987 L-8.650866502414885,-1.5491878116864237 L-8.959648859547737,-1.4585002424815265 L-9.262773174255003,-1.3648319524821084 L-9.560022858428933,-1.268268813304803 L-9.851181910657381,-1.1689005113500632 L-10.136034916223782,-1.0668205478021646 L-10.414367047107163,-0.9621262386292018 L-10.685964061982151,-0.8549187145830912 L-10.950612306218943,-0.7453029211995694 L-11.208098711883238,-0.6333876187982419 " />
			<path d="M-47.426406870944376,-7.424808725424608 L-47.426406870944376,-0.7391595352346085 " />
			<path d="M47.42640687146748,-1.1353405811082347 L47.42640687146748,5.550308609081767 " />

        </g>
        </g>
    </svg>
    