<?xml version="1.0" encoding="UTF-8" standalone="no"?>
    <svg
    xmlns:svg="http://www.w3.org/2000/svg"
    xmlns="http://www.w3.org/2000/svg"
    width="340"
    height="340"
    >
        <g transform="scale(4, -4)   translate(42.49999928273892,-42.79977650158257)" stroke-width="0.25"  fill="none">
        <!-- hidden lines -->
        <g  stroke="rgb(160,160,160)" fill="none" stroke-dasharray="0.25,0.25" >
    			<path d="M27.386128731416406,21.448830231856377 L27.527421980198163,21.382676075940022 L27.669213734913196,21.30983522811986 L27.811267245541934,21.230430319267093 L27.953347514523553,21.144595016258137 L28.0952212952688,21.052473592139812 L28.236657100300377,20.954220578765074 L28.37742521902098,20.85000050189927 L28.517297745108923,20.739987698796917 L28.656048613541355,20.624366218249 L28.793453647245126,20.50332980310082 L28.92929061337525,20.377081955240325 L29.06333928922094,20.245836083057004 L29.19538204257538,20.10981519581314 L29.32521426686288,19.969240614629225 L29.45263388429218,19.824341813300222 L29.577441402234996,19.675356641016087 L29.699442915409463,19.522528077729056 L29.818450058564817,19.36610409867834 L29.934279959166084,19.206337538914717 L30.04675585074126,19.043485037130754 L30.155707762674684,18.877805949159576 L30.260971533247282,18.70956342993112 L30.362389828268295,18.539022718541467 L30.459812087791953,18.36645101574423 L30.553094445979287,18.192117399884058 L30.64209967294261,18.016292699405675 L30.726697881999947,17.839247942753264 L30.806766297311764,17.661254625241437 L30.882189103125622,17.482584577119173 L30.952857625679467,17.30350955012273 L31.018670404661364,17.124300852082676 L31.07953322102473,16.94522892277662 L31.13535908782454,16.766563191858346 L31.18606834705317,16.58857153179791 L31.23158854542091,16.411520779741174 L31.271854548780535,16.235675781741797 L31.30680859199177,16.06129906892909 L31.33640027892129,15.88865085750803 L31.360586582442686,15.71798904875925 L31.379331917394815,15.549568480621142 L31.392608146116462,15.38364011332799 L31.40039441491195,15.22045361607552 L31.40267749803344,15.06025458510165 L31.399451749251213,14.903284381026868 L31.390719077410296,14.749780123541647 L31.37648896907967,14.599974655543067 L31.35677855829415,14.454096476720636 L31.33161274338885,14.312369646591351 L31.301024322695092,14.17501352968351 L31.265053642382977,14.042240797718968 L31.223748856217803,13.914258768162801 L31.17716606429771,13.791268897113811 L31.125369245875408,13.673466338749796 L31.068430084781024,13.561039308208228 L31.006428509998877,13.454169462537555 L30.9394523888342,13.353031127227153 L30.86759735901082,13.257790616087005 L30.790966932453152,13.168606061889134 L30.70967259906827,13.085627247009045 L30.623833812113904,13.008995326559706 L30.533577224045395,12.938841754615305 L30.43903783710395,12.875288940480198 L30.34035803482478,12.818449273400676 L30.23768739293702,12.76842470798693 " />
			<path d="M30.237687392937012,12.768424707986929 L30.13524623960933,12.72679872130688 L30.029399634848243,12.691642644907375 L29.92029777644604,12.663018401480498 L29.80809397940672,12.640978027498914 L29.69295479869614,12.625565331087648 L29.575051287666863,12.616812929225558 L29.454558344335712,12.614742376151128 L29.33165461347572,12.61936437542184 L29.20652241168797,12.630678914336634 L29.079347675453327,12.648675320721429 L28.95031993216401,12.673332242077734 L28.819632294135083,12.70461754709434 L28.687481475595774,12.742488149522087 L28.554067832660706,12.786889754411705 L28.419595426280996,12.837756526714744 L28.284272108175237,12.895010682247563 " />
			<path d="M28.284272108175212,12.895010682247573 L28.196711059066732,12.935250976692819 L28.108934661112613,12.978083478415366 L28.020998436367897,13.023480876597265 L27.93295784846982,13.071414182202114 L27.844868299420007,13.121852734395626 L27.756785126366662,13.174764206966207 L27.668763598386764,13.230114614745522 L27.580858913268234,13.287868320029062 L27.49312619429214,13.347988038996723 L27.405620487014883,13.410434848133372 L27.231508673077887,13.542146765206073 L27.058956290297168,13.682664340397135 L26.88839171866322,13.831624394377561 L26.72023527983603,13.98864351494078 L26.554899001510304,14.153318634151345 L26.392786309633557,14.325227754278929 L26.234288606946468,14.503933874303929 L26.079786739037328,14.68898392691058 L25.929648653893068,14.879912051624782 L25.784228818770934,15.076240791220282 L25.643868378140375,15.277481482256954 L25.508893535917213,15.483137186737679 L25.379615096728845,15.692703846946005 L25.256328696255448,15.905670890297278 L25.139313638286698,16.121523646987704 L25.028833150309094,16.339743597488525 L24.925134291947995,16.559809324314845 L24.828446654741178,16.781199745680066 L24.738983470131014,17.00339266578536 L24.656940773684067,17.22586737948046 L24.582497506455784,17.448105053829824 L24.51581571519617,17.669588954204524 L24.457039996173332,17.889806937194585 L24.406297792996625,18.108250672458247 L24.3636994017298,18.3244172327775 L24.329337827521044,18.537809820303757 L24.30328878460299,18.747937766557836 " />
			<path d="M24.303288784602987,18.74793776655785 L24.291469303688768,18.87476195790616 L24.282797665073915,19.00007427503852 L24.27728182506035,19.123765108518835 L24.274927152555566,19.245726565559252 L24.275736472236083,19.365852443177804 L24.279710098838347,19.484038208280506 L24.286845862576996,19.600180984667865 L24.297139125690553,19.714179546965862 L24.31058279011447,19.825934321481345 L24.32716729628163,19.935347393981893 L24.346880613050168,20.04232252440009 L24.369708218758767,20.146765168462263 L24.395633073409297,20.24858250624165 L24.42463558197686,20.347683477636025 L24.45669354884726,20.443978824769726 L24.491782123381814,20.537381141320175 L24.52987373660963,20.627804928768796 L24.570938029047213,20.715166659576408 L24.614942253880816,20.799385734632175 L24.661852123135066,20.88038581113255 L24.711629925273225,20.958091178141167 L24.764235370428413,21.032428655966743 L24.81962563180964,21.103327779252925 L24.877755316045587,21.1707208404179 L24.938576433528386,21.234542933093994 L25.002038368757372,21.29473199556733 L25.068087850682886,21.35122885421741 L25.1366692880772,21.403977583173532 L25.2077245189957,21.45292545015064 L25.28119259010131,21.49802275869812 L25.357010198701477,21.53922325292015 L25.435111669283565,21.576484167915638 " />
			<path d="M25.43511166928357,21.576484167915634 L25.53728155437538,21.617990478287403 L25.642866892896667,21.653033207557378 L25.751717386103053,21.681550280403034 L25.863681960175875,21.703490264281434 L25.978598139728444,21.71880999579061 L26.09629590045232,21.727476720392787 L26.21660129098885,21.729468829815065 L26.33933652602537,21.72477563091941 L26.46432005703312,21.71339719355199 L26.591366620646983,21.695344277371873 L26.72028726468696,21.670638337659096 L26.85088935182143,21.639311610102084 L26.982976540872194,21.601407274564448 L27.116348745761243,21.55697969783114 L27.25080207209935,21.50609475533394 L27.386128731416395,21.448830231856387 " />
			<path d="M-5.360085947264324,22.287375485914602 L-5.357329039216728,22.413019283045045 L-5.358905957732656,22.538043726739296 L-5.364816740043298,22.662335569329926 L-5.375057506190499,22.78578299892838 L-5.389620584859678,22.9082755975947 L-5.408494620330715,23.02970430749208 L-5.431664662272026,23.149961404271828 L-5.459112239911651,23.26894047703503 L-5.490815421927841,23.38653641431805 L-5.526748863210266,23.50264539564982 L-5.566883839451585,23.617164888329743 L-5.611188270337757,23.729993649175736 L-5.659626731914128,23.841031731092862 L-5.712160458512945,23.95018049441379 L-5.768747334436572,24.057342623063096 L-5.8293418753993596,24.162422145698265 " />
			<path d="M-5.829341875399362,24.16242214569827 L-5.8815252592497025,24.246251692596584 L-5.93629741047288,24.328591988260758 L-5.993628869924407,24.40939350517708 L-6.053488638010546,24.488607357074546 L-6.1158441497931095,24.566185316086422 L-6.180661246178507,24.642079832096268 L-6.2479041409066625,24.716244054454627 L-6.317535383018881,24.78863185627158 L-6.389515814447205,24.859197861509834 L-6.463804522331316,24.927897475122073 L-6.540358785632462,24.994686916495663 L-6.619134015577414,25.05952325648698 L-6.700083689428889,25.122364458346908 L-6.783164976915207,25.18317347563818 L-6.86834312199018,25.241920126190173 L-6.955567220421674,25.29856404703459 L-7.0447842932620865,25.353066048206387 L-7.135940230453289,25.40538873629827 L-7.228979825943781,25.45549646348863 L-7.323846808962792,25.503355283404485 L-7.420483871741164,25.548932913306245 L-7.518832693945083,25.592198702133892 L-7.6188339640650256,25.63312360400691 L-7.720427397978428,25.671680156823157 L-7.823551754880938,25.707842465654473 L-7.928144850757308,25.74158619068984 L-8.034143569539195,25.7728885395294 L-8.14148387207346,25.801728263685614 L-8.250100803000732,25.82808565920052 L-8.35992849562028,25.851942571340835 L-8.470900174793497,25.873282403385453 L-8.582948157914476,25.892090129572555 L-8.696003853952499,25.908352312326482 L-8.80999776054743,25.922057123937126 L-8.92485945911529,25.933194372917455 L-9.040517607897478,25.941755535317583 L-9.156899932863459,25.947733791326442 L-9.273933216352845,25.951124067545038 L-9.391543283319166,25.95192308536793 L-9.509654985013757,25.950129415962376 L-9.628192179924568,25.94574354238737 L-9.747077711760785,25.93876792944757 L-9.866233384250545,25.92920710192987 L-9.985579932495204,25.91706773192307 L-10.105043851087256,25.9023578185755 L-10.224570968718703,25.88508396075269 L-10.344083740655643,25.865256825290295 L-10.4635028552337,25.84288936155596 L-10.582749908592609,25.8179964092538 L-10.701747382905982,25.79059461881392 L-10.820418627387568,25.760702379979506 L-10.938687841870198,25.72833975795614 L-11.056480062773675,25.693528436535267 L-11.173721151297896,25.656291667651036 L-11.290337783697543,25.616654226877166 L-11.406257443514669,25.574642374417675 L-11.521408415665592,25.530283821192768 L-11.63571978229853,25.48360769966838 L-11.749121420358417,25.434644539125273 L-11.861544000815437,25.38342624511089 L-11.972918989533744,25.329986082864494 L-12.083178649777015,25.27435866455339 L-12.192256046367389,25.21657994020545 L-12.300085051534433,25.156687192270418 L-12.406600352510836,25.09471903378977 L-12.511737460951512,25.030715410202305 L-12.615432724272877,24.96471760485993 L-12.71762333902907,24.896768248375363 L-12.818247366461929,24.826911331970916 L-12.917243750381584,24.755192225044773 L-13.014552337554546,24.681657697218476 L-13.110113900796216,24.606355945176727 L-13.203870164984751,24.52933662465791 L-13.29576383623332,24.450650888000983 L-13.385738634477725,24.370351427701873 L-13.473741027927678,24.28849091346219 L-13.55973419432356,24.20510792595778 L-13.643670883470447,24.12025175550548 L-13.725501423362443,24.033976100448463 L-13.805177988117455,23.94633508991132 L-13.882654537950863,23.85738325996626 L-13.957886765412825,23.767175532012722 L-14.030832047413053,23.675767193194527 L-14.101449402593524,23.583213878689524 L-14.169699453646047,23.489571555717546 L-14.235544394208256,23.394896509123164 L-14.298947960008062,23.299245328400577 L-14.35987540396318,23.202674896038786 L-14.418293474978912,23.105242377075964 L-14.474170400223892,23.00700520976265 L-14.527475870700055,22.908021097244358 L-14.578181029959621,22.808348000184782 L-14.6262584658585,22.708044130261733 L-14.671682205271964,22.6071679444786 L-14.714427711735098,22.50577814024502 L-14.754471886006996,22.403933651191142 L-14.791793069594274,22.30169364369078 L-14.826371051306,22.19911751407934 L-14.858187076948681,22.096264886563443 L-14.887223862306524,21.993195611829726 L-14.9134656095887,21.88996976637127 L-14.93689802756192,21.78664765256073 L-14.957508355623162,21.68328979951023 L-14.975285392103952,21.579956964768627 L-14.99021952713412,21.47671013691778 L-15.002302780429549,21.373610539140074 L-15.011528844404936,21.270719633840336 L-15.017893667086275,21.16808803928211 L-15.021393765337749,21.065765301620328 L-15.022026181433187,20.963812952279582 L-15.019789728267716,20.86229194429203 L-15.0146849400553,20.761262658087077 L-15.006714028233507,20.66078491434163 L-14.99588084283479,20.56091798469131 L-14.982190838909757,20.46172060046697 L-14.965651047625569,20.363250959602446 L-14.94627005170017,20.265566731841727 L-14.924057964870734,20.168725062355133 L-14.899026415132296,20.072782573856244 L-14.871188531520199,19.977795367293048 L-14.840558934247579,19.88381902116857 L-14.807153728046767,19.79090858952823 L-14.770990498601076,19.699118598632797 L-14.732088311991104,19.608503042317928 L-14.690467717117315,19.519115376022878 L-14.646150751098196,19.431008509452912 L-14.59916094768107,19.344234797821805 L-14.549523348740134,19.258846031602676 " />
			<path d="M-14.549523348740118,19.25884603160265 L-14.505478800303404,19.187721478120174 L-14.459574848829723,19.117655651360284 L-14.411829241738854,19.048678929661772 L-14.362260535726517,18.980821375171733 L-14.310888108803626,18.914112725794016 L-14.257732173868305,18.84858238632462 L-14.20281379390932,18.784259418715315 L-14.146154898949359,18.721172531402036 L-14.087778304846513,18.659350067629788 L-14.027707734082234,18.59881999270117 L-13.965967838673832,18.539609880070635 L-13.90258422535951,18.481746896202047 L-13.83758348321385,18.425257784102207 L-13.77099321386143,18.370168845438307 L-13.702840943666777,18.31650505972884 L-13.633144252159482,18.26428302344239 L-13.561930289574894,18.21352642289312 L-13.489230127836281,18.16426062604523 L-13.415075449163083,18.116510053267653 L-13.339498528102265,18.070298202673285 L-13.262532215146548,18.02564767273687 L-13.184209921837626,17.98258018237019 L-13.104565607258843,17.94111658861964 L-13.023633765828203,17.901276902137575 L-12.9414494163088,17.863080300565336 L-12.85804809196021,17.826545139952213 L-12.687739172636018,17.758528513477415 L-12.513001255023404,17.697357759506048 L-12.334136356372813,17.64315090569379 L-12.151454114259364,17.596013342662697 L-11.965271687228336,17.556037801076435 L-11.775913702945159,17.52330423480998 L-11.583712252573003,17.497879607857882 L-11.389006931723157,17.47981757914657 L-11.19214492994559,17.469158075937557 L-10.993481172349176,17.46592674302976 L-10.793378518563241,17.470134251490464 L-10.5922080258742,17.481775447165933 L-10.390349284993171,17.50082831574388 L-10.188150471639727,17.5272587346953 L-9.985932820217329,17.56102549250044 L-9.784078746836382,17.602065734134847 L-9.582964495682017,17.65030114565951 L-9.38295920370309,17.705639109867725 L-9.184425115303643,17.767973550577846 L-8.987717743765032,17.837185624249287 L-8.793185985073215,17.913144278171938 L-8.601172188472294,17.99570669134841 L-8.412012186711832,18.084718611057784 L-8.22603528760203,18.180014594958806 L-8.0435642271373,18.28141816545969 L-7.864915083095364,18.388741879951013 L-7.690397146665478,18.501787317367338 L-7.520312748305885,18.620344978412547 L-7.354957032677138,18.744194093653068 L-7.194617676144409,18.8731023305525 L-7.039574538988497,19.006825387390233 L-6.890099229674915,19.14510647175398 L-6.74641812752946,19.287713121253216 L-6.608745870106687,19.434412541001606 L-6.477314222533712,19.584938967063938 L-6.352339988611081,19.73902351299697 L-6.234025767429518,19.896394467851323 L-6.122560576518232,20.05677754969251 L-6.018120358109984,20.219896120591617 L-5.920868382627834,20.385471368360275 L-5.830955561018205,20.55322245962855 L-5.748520675074634,20.722866668188285 L-5.673690532416293,20.894119481848524 L-5.6065800503050784,21.066694690373566 L-5.5472922700047755,21.240304456398288 L-5.49591830090556,21.41465937053925 L-5.452537191156776,21.589468491244205 L-5.417215719070689,21.76443936924652 L-5.390008097079581,21.939278055815194 L-5.3794603904824445,22.026555556396136 L-5.370955577548335,22.11368909331488 L-5.364496706925677,22.200641493804156 L-5.360085947264325,22.287375485914545 " />
			<path d="M-39.32263229062367,7.163555654949704 L-39.28118059109739,7.446690278365165 L-39.23465123531998,7.737382954454689 L-39.18322730519071,8.034476194451615 L-39.12710938801173,8.336799157590413 L-39.06651474339722,8.64316857637589 L-39.001676739776116,8.952389534708681 L-38.93284451806304,9.263256131886287 L-38.860282855695424,9.57455206478785 L-38.78427221985792,9.885051159839648 L-38.705109014338824,10.1935178856472 L-38.62310604008611,10.498707876468664 L-38.53859320515445,10.799368495993173 L-38.45191529325547,11.094250258624502 L-38.363396886946916,11.382221260918197 L-38.273405417248895,11.662054394889072 L-38.18232444242872,11.932529872507157 L-38.090538896899155,12.192482173525704 L-37.99843476235874,12.440798200174811 L-37.90639874340017,12.676416575705918 L-37.814817939138116,12.898327976228378 L-37.72407949930774,13.105576475154265 L-37.63457025018375,13.297261969442465 L-37.546676272569634,13.472543846708046 L-37.460782411005724,13.630646142137781 L-37.37726715526563,13.770871757748337 L-37.296461656147834,13.892664899345707 L-37.25718435325475,13.946481681342163 L-37.2187150225791,13.995499042243871 L-37.18109498651696,14.039665784846115 L-37.14436408712602,14.078937150116746 L-37.108560731803365,14.113274581338514 L-37.07372193157465,14.14264552520728 L-37.0398833326554,14.167023266438456 L-37.0070792418371,14.186386792942905 L-36.97534264614296,14.200720689142543 L-36.94470522709009,14.210015055504627 L-36.91519736978699,14.214265452882772 L-36.886848166987285,14.213472870761516 " />
			<path d="M-36.886848166987285,14.213472870761516 L-36.86586069619458,14.209439065610972 L-36.845586472915464,14.202433970238902 L-36.82603714730766,14.19246458602284 L-36.807223908960154,14.17953983679904 L-36.789157481650484,14.163670589268005 L-36.771848116823094,14.14486967909001 L-36.75530558570197,14.123151943027052 L-36.73953916993756,14.098534257549785 L-36.72455765067474,14.071035584390012 L-36.710369295915584,14.040677023581413 L-36.684402497312945,13.97147570622327 L-36.66168840746975,13.891121423973438 L-36.6422682048615,13.79981858714572 L-36.62618058596816,13.697812989105248 L-36.61345527014596,13.585373282259742 L-36.60411355541838,13.462789407724827 L-36.59816876476087,13.330371349980055 L-36.595626594822264,13.188448157098447 L-36.59648538020025,13.037367188628796 L-36.60073628327503,12.8774935615187 L-36.60836341649174,12.70920977277491 L-36.6193439008684,12.532915485866248 L-36.6336478613931,12.349027476182945 L-36.65123835686004,12.157979739175017 L-36.67207123858102,11.960223773100795 L-36.69609492929494,11.756229056625513 L-36.72325057671735,11.546480298408715 L-36.75348106820773,11.331415013161328 L-36.78671899062549,11.111520349201646 L-36.822887422158665,10.887315413823911 L-36.861903482189575,10.659324904123459 L-36.90367858673702,10.428078794531201 L-36.94811863774313,10.194112069118228 L-36.99512415503061,9.957964491592207 L-37.04459035772281,9.720180406453768 L-37.09640719988554,9.481308565327474 L-37.15045936311644,9.241901973028543 L-37.20662620677391,9.002517748472798 L-37.26478167450464,8.76371699608391 L-37.324794153694995,8.52606468389845 L-37.38652628243845,8.290129525115644 L-37.4498346965777,8.05648386038529 L-37.51456970734658,7.825703538673702 L-37.58058131467038,7.598346066478446 L-37.647733209802794,7.374906675621827 L-37.715860784792305,7.155960297583894 L-37.7847953914117,6.942073139978061 L-37.85436763073848,6.733792328608389 L-37.92440740850592,6.531646579766079 L-37.994743988349846,6.336146619103697 L-38.065206044179945,6.147785375747184 L-38.13562171321703,5.967037969677946 L-38.20581865154968,5.794361499789588 L-38.2756240943765,5.630194629396135 L-38.34486492341231,5.474956955340791 L-38.41336774424931,5.329048136226573 L-38.48095897677621,5.19284674466244 L-38.54746496207126,5.066708797790716 L-38.612712089497116,4.950965909733958 L-38.67653569283542,4.845909176245845 L-38.738793508932275,4.7517731082768995 L-38.799322603542485,4.668804848212881 L-38.85796604884312,4.597215940891023 L-38.91457490329446,4.537180833109574 L-38.96900781106628,4.48883906441312 L-38.995366110147,4.469087668972985 L-39.02113070356054,4.4522969597209965 L-39.046285936968,4.438475244700507 L-39.07081658961352,4.427628893197492 L-39.09470787194433,4.41976235540354 L-39.117945424311536,4.414878177063165 L-39.14051531673202,4.412977009249036 L-39.16240404970464,4.414057613347328 " />
			<path d="M-39.16240404970464,4.414057613347329 L-39.19184685677843,4.42056294924179 L-39.21989779168923,4.43287827488942 L-39.24652423750295,4.4509815148358065 L-39.271695297705136,4.474843195625511 L-39.29538183763557,4.504426309383524 L-39.31755653636028,4.539686132366228 L-39.338193950060656,4.580569993957767 L-39.357270588210596,4.627016990690781 L-39.374765004917144,4.678957641964233 L-39.3906610804104,4.7363261107835815 L-39.40494414331144,4.799054104285401 L-39.417598624464794,4.8670583527789635 L-39.42861124288598,4.940249890813327 L-39.43797089957096,5.018534368122506 L-39.44566858662355,5.1018123182435655 L-39.45169731007238,5.1899793893288395 L-39.45872958120108,5.38054021228463 L-39.45904983737942,5.589291073320787 L-39.452669320732014,5.81523777341849 L-39.439627643625,6.057320359779556 L-39.419992514478466,6.314414555665178 L-39.39385992152557,6.585332010080482 L-39.36135480462025,6.868819319555893 L-39.32263229062368,7.163555654949642 " />
			<path d="M7.172610676013044e-07,0.2997765015825901 L0.28978611065081145,0.809524893909856 L0.5759272845812775,1.3691623351056763 L0.8548258477673141,1.9716510596378085 L1.1229744889561413,2.6094144222231592 L1.3770010834013433,3.274432178538296 L1.6137110992881096,3.958341344445266 L1.8301277708243129,4.65254136536945 L2.023529532797508,5.348302273263488 L2.1914842458365666,6.036874471020733 L2.3318797819754264,6.709598763735494 L2.442950585887756,7.358015253103154 L2.523299877769574,7.973969725549907 L2.5719172186557224,8.549716196199622 L2.5881912172761212,9.078014319127977 " />
			<path d="M9.659258993278527,5.9292057420214705 L9.636661391633243,5.620456774543524 L9.568974319784873,5.3077597312851825 L9.456514482275823,4.992577706620213 L9.299808073258172,4.67638542203045 L9.09958831445662,4.360662325955165 L8.856792024459436,4.04688567152321 L8.572555235389483,3.7365236045569317 L8.248207877464754,3.4310282941887187 L7.885267556319067,3.1318291382317227 L7.485432452198541,2.840326075096476 L7.050573374258194,2.557883033546632 L6.5827250071361885,2.2858215509421074 L6.084076390762609,2.025414589829559 L5.5569606779472975,1.7778805818120653 " />
			<path d="M5.556960677947289,1.7778805818120613 L5.205824028194808,1.6267617072348852 L4.844709421611579,1.4816802191875187 L4.474309003462671,1.3429141941120946 L4.095332717048425,1.2107296036571062 L3.7085069429622424,1.0853798048918344 L3.3145731068431257,0.9671050546990274 L2.9142862582915323,0.8561320492765969 L2.5084136236722863,0.752673489630965 L2.0977331355783937,0.6569276738948664 L1.6830319417743271,0.5690781172510276 L1.26510489647666,0.4892932001901864 L0.8447530368638198,0.4177258457776538 L0.42278204773500694,0.35451322654698936 L7.172610724803796e-07,0.29977650158258307 " />
			<path d="M7.172610486407932e-07,9.253547176031889 L0.3279976388075916,9.290102006067887 L0.6556162510769419,9.321451066856792 L0.982478681131091,9.347558200618607 L1.3082079282071297,9.368393295574064 L1.632428298547198,9.383932320675324 L1.9547658387209537,9.394157353323218 L2.274848766940749,9.399056600039033 L2.5923079018720605,9.398624410067045 L2.9067770884445654,9.392861281892037 L3.217893620172756,9.381773862664367 L3.5252986574989764,9.36537494053319 L3.828637641676368,9.34368342989669 L4.127560703714371,9.316724349586359 L4.421723067914971,9.28452879401047 " />
			<path d="M4.421723067915048,9.28452879401046 L5.079388306643928,9.19065304195891 L5.705978748670148,9.069773270845698 L6.2976610242696704,8.92262900177385 L6.850815325718971,8.750120437408926 L7.362057552639753,8.553302954698003 L7.828260015327731,8.333380648259803 L8.246570569406176,8.091698963946346 L8.614430064741764,7.829736467642722 L8.929588001873379,7.5490957996619805 L9.190116300170583,7.251493870074586 L9.394421093490571,6.938751354955657 L9.541252481169915,6.61278155781011 L9.629712174696184,6.275578704319539 L9.659258993278524,5.92920574202151 " />
			<path d="M2.5881912172761217,9.078014319127998 L2.5866711734824666,9.228899356220229 L2.5821128275443703,9.374554796800009 L2.5745215336932565,9.514809554041644 L2.563906208660025,9.649498884760062 L2.5502793212014656,9.778464582918089 L2.53365687745446,9.901555165455202 L2.5140584021351753,10.018626050219474 L2.491506915605349,10.12953972579372 L2.466028906832569,10.234165913016344 L2.4376543022763553,10.33238171800722 L2.406416430736538,10.424071776518758 L2.372351984205275,10.509128389442736 L2.33550097476864,10.587451649313625 L2.2959066876084555,10.65894955765985 " />
			<path d="M2.29590668760845,10.65894955765986 L2.2537836341371924,10.72330271130962 L2.209033640044042,10.780724641745811 L2.1617088645571276,10.83114841971784 L2.1118644679912304,10.874515272808145 L2.0595585474546105,10.910774653935565 L2.004852069132785,10.939884300271459 L1.9478087972281988,10.961810282499977 L1.888495219638623,10.976527044365028 L1.8269804704608839,10.984017432457883 L1.7633362494102682,10.984272716210652 L1.6976367382495234,10.977292598072385 L1.6299585143248625,10.963085213855868 L1.5603804613097356,10.941667123254787 L1.4889836772604497,10.913063290542247 " />
			<path d="M1.488983677260431,10.91306329054224 L1.3948968938732034,10.865920264517218 L1.2981365249640848,10.807106009164169 L1.198888030301154,10.736733253261207 L1.097341638621752,10.654936879665193 L0.9936919830226987,10.5618736667829 L0.8881377279087033,10.457721988075205 L0.7808811882140088,10.342681470170197 L0.6721279416270936,10.21697261024054 L0.5620864345616832,10.080836353378432 L0.45096758262929704,9.93453363077822 L0.33898436637910984,9.778344859611813 L0.22635142307995954,9.612569405555512 L0.11328463532693972,9.437525008998367 L7.172610912153932e-07,9.253547176031939 " />
			<path d="M7.172610983385381e-07,9.253547176031859 L-0.24010969249486908,9.357888646503996 L-0.47994316064073156,9.456946163108125 L-0.7192230649888341,9.550605473620985 L-0.9576734218280031,9.63875855207119 L-1.195019204241162,9.72130372333559 L-1.430986659319389,9.798145780410621 L-1.665303623906542,9.869196094223383 L-1.8976998385102744,9.934372715855778 L-2.1279072590173804,9.99360047106377 L-2.3556603658539337,10.046811046982851 L-2.5806964702336495,10.093943070919579 L-2.8027560171412227,10.13494218113841 L-3.021582884701212,10.169761089562126 L-3.236924679587131,10.198359636313565 " />
			<path d="M-3.236924679587159,10.198359636313569 L-3.922285144959488,10.248299481730939 L-4.558047197509781,10.229048923348248 L-5.136171446472898,10.140851389914765 L-5.649347347393454,9.984822164157647 L-6.091085646025766,9.762934279716777 L-6.455800436787101,9.477993571576988 L-6.738879798111841,9.133603195491974 L-6.936744111502616,8.734118065061873 L-7.0468913268174855,8.284589782620463 L-7.06792860140084,7.790702760296514 L-6.999589912972286,7.258702339016502 L-6.842739423553524,6.695315814404211 L-6.599360551895458,6.107667368227023 L-6.272530892587768,5.503187981104839 " />
			<path d="M-6.2725308925877545,5.503187981104815 L-5.999384264493822,5.078671346667525 L-5.689825381799558,4.65232171649394 L-5.3457330598976665,4.22672674770723 L-4.969195709061734,3.8044695171406326 L-4.5624986591925545,3.388112843788595 L-4.1281102893939945,2.9801837342094104 L-3.6686670465626374,2.583158045285421 L-3.186957443918294,2.1994454574275233 L-2.6859051365936595,1.8313748494266162 L-2.168551177002917,1.4811801637168296 L-1.6380355576873695,1.1509868478389569 L-1.097578153660657,0.8427989543953293 L-0.5504591799208015,0.5584869777907799 L7.172610339001295e-07,0.2997765015825802 " />
			<path d="M7.17261051006629e-07,0.2997765015825803 L-0.3279962042846859,0.26322167154666587 L-0.6556148165532332,0.23187261075781973 L-0.982477246606585,0.20576547699603545 L-1.3082064936818338,0.18493038204058299 L-1.6324268640211241,0.16939135693930202 L-1.9547644041941155,0.1591663242913634 L-2.274847332413163,0.1542670775754743 L-2.5923064673437453,0.15469926754736446 L-2.9067756539155445,0.16046239572224677 L-3.217892185643053,0.1715498149497643 L-3.525297222968617,0.1879487370807641 L-3.828636207145384,0.2096402477170623 L-4.127559269182793,0.23659932802716488 L-4.421721633382913,0.2687948836028106 " />
			<path d="M-4.421721633382951,0.26879488360281484 L-5.07938687211295,0.36267063565407387 L-5.705977314140279,0.48355040676706273 L-6.29765958974088,0.6306946758387526 L-6.850813891191217,0.8032032402035836 L-7.362056118112983,1.0000207229144762 L-7.82825858080188,1.219943029352709 L-8.246569134881161,1.4616247136662557 L-8.614428630217498,1.7235872099700245 L-8.92958656734976,2.004227877950963 L-9.190114865647505,2.3018298075385992 L-9.39441965896792,2.6145723226578097 L-9.54125104664757,2.9405421198036716 L-9.629710740174026,3.277744973294587 L-9.659257558756424,3.624117935592979 " />
			<path d="M-9.659257558756426,3.6241179355929987 L-9.636659957111142,3.93286690307094 L-9.568972885262776,4.245563946329279 L-9.456513047753727,4.5607459709942475 L-9.299806638736078,4.876938255584006 L-9.09958687993453,5.192661351659289 L-8.85679058993735,5.5064380060912415 L-8.572553800867402,5.816800073057518 L-8.248206442942678,6.12229538342573 L-7.885266121796996,6.421494539382723 L-7.485431017676477,6.712997602517968 L-7.0505719397361375,6.99544064406781 L-6.582723572614136,7.267502126672333 L-6.084074956240566,7.527909087784879 L-5.5569592434253305,7.775443095802344 " />
			<path d="M-5.556959243425262,7.775443095802376 L-5.20582259367278,7.926561970379554 L-4.844707987089547,8.071643458426927 L-4.474307568940633,8.210409483502351 L-4.0953312825263835,8.342594073957343 L-3.7085055084401963,8.467943872722618 L-3.3145716723210743,8.586218622915428 L-2.914284823769475,8.69719162833786 L-2.508412189150224,8.800650187983493 L-2.0977317010563254,8.896396003719595 L-1.6830305072522527,8.984245560363435 L-1.2651034619545793,9.064030477424279 L-0.8447516023417327,9.135597831836813 L-0.4227806132129138,9.198810451067477 L7.172609629568782e-07,9.253547176031878 " />
			<path d="M7.172610682352283e-07,9.253547176031901 L-0.28978467612867553,8.743798783704634 L-0.5759258500591419,8.184161342508814 L-0.8548244132451779,7.581672617976682 L-1.1229730544340053,6.943909255391331 L-1.3769996488792073,6.278891499076194 L-1.6137096647659734,5.594982333169224 L-1.8301263363021771,4.900782312245041 L-2.0235280982753725,4.205021404351002 L-2.1914828113144305,3.516449206593757 L-2.331878347453291,2.8437249138789964 L-2.442949151365619,2.1953084245113343 L-2.523298443247439,1.5793539520645838 L-2.571915784133587,1.0036074814148677 L-2.588189782753985,0.47530935848653133 " />
			<path d="M-2.5881897827539864,0.4753093584864896 L-2.5866697389603175,0.3244243213936473 L-2.582111393022184,0.17876888081329945 L-2.574520099171009,0.038514123571141035 L-2.5639047741376886,-0.09617520714775152 L-2.550277886679018,-0.2251409053062039 L-2.533655442931875,-0.3482314878436892 L-2.5140569676124302,-0.4653023726082819 L-2.491505481082419,-0.5762160481827916 L-2.4660274723094324,-0.6808422354056285 L-2.4376528677529867,-0.7790580403966523 L-2.406414996212918,-0.8707480989082832 L-2.3723505496813813,-0.9558047118322963 L-2.3354995402444527,-1.034127971703159 L-2.295905253083949,-1.1056258800493015 " />
			<path d="M-2.2959052530839488,-1.1056258800493026 L-2.253782199612647,-1.1699790336985072 L-2.2090322055194687,-1.227400964134179 L-2.161707430032541,-1.2778247421057154 L-2.111863033466648,-1.321191595195563 L-2.0595571129300465,-1.3574509763225595 L-2.004850634608255,-1.3865606226580645 L-1.9478073627037173,-1.4084866048862272 L-1.8884937851142034,-1.4232033667509592 L-1.82697903593654,-1.4306937548435288 L-1.7633348148860137,-1.4309490385960526 L-1.697635303725371,-1.423968920457575 L-1.6299570798008247,-1.409761536240885 L-1.560379026785823,-1.3883434456396673 L-1.488982242736657,-1.35973961292702 " />
			<path d="M-1.4889822427366548,-1.3597396129270192 L-1.394895459349498,-1.3125965869018574 L-1.2981350904404598,-1.2537823315486971 L-1.1988865957776185,-1.1834095756456584 L-1.0973402040983158,-1.1016132020495948 L-0.9936905484993681,-1.008549989167284 L-0.8881362933854864,-0.9043983104596016 L-0.7808797536909111,-0.7893577925546351 L-0.6721265071041216,-0.6636489326250494 L-0.562085000038841,-0.5275126757630411 L-0.4509661481065892,-0.38120995316295414 L-0.3389829318565392,-0.22502118199670174 L-0.22634998855752897,-0.059245727940575976 L-0.11328320080465054,0.1157986686163669 L7.17261061863872e-07,0.29977650158258085 " />
			<path d="M7.172610966066261e-07,0.2997765015825507 L0.24011112701691967,0.19543503111047367 L0.47994459516263827,0.09637751450640059 L0.7192244995105981,0.0027182039935875757 L0.9576748563496257,-0.08543487445657605 L1.1950206387626454,-0.16798004572093933 L1.4309880938407349,-0.24482210279594385 L1.6653050584277538,-0.31587241660868914 L1.897701273031356,-0.3810490382410697 L2.127908693538335,-0.4402767934490577 L2.355661800374767,-0.4934873693681403 L2.580697904754365,-0.5406193933048775 L2.8027574516618263,-0.5816185035237259 L3.0215843192217093,-0.6164374119474694 L3.23692611410748,-0.6450359586989353 " />
			<path d="M3.2369261141075363,-0.6450359586989427 L3.7183704801306043,-0.6870789123897074 L4.177066516278765,-0.6956956645767024 L4.610208001167903,-0.6708334994910021 L5.015145051647839,-0.6126445194701469 L5.389400334319707,-0.5214847144228909 L5.730684221424414,-0.39791178394577775 L6.036908798381118,-0.2426817254154452 L6.306200637280099,-0.05674420893012 L6.536912258184034,0.1587632326044135 L6.727632208119439,0.40252216270035124 L6.877193696096838,0.6730413072495747 L6.984681731332082,0.9686656778754195 L7.049438720998454,1.287586696859444 L7.0710684932635175,1.6278532617006443 " />
			<path d="M7.07106849326352,1.6278532617006838 L7.0669156564891935,1.7831137769800987 L7.0544620240867255,1.9418905126863808 L7.0337222240880495,2.103996969725522 L7.004720617454441,2.2692427379140874 L6.967491269462134,2.4374337196349507 L6.922077909689273,2.608372357824278 L6.868533880651156,2.781857868021979 L6.80692207514414,2.9576864742130655 L6.737314862371789,3.135651648182873 L6.659794002940028,3.315544352105029 L6.574450552821175,3.4971532840772066 L6.48138475639962,3.680265126316257 L6.380705928724819,3.8646647957211937 L6.272532327109871,4.050135696509726 " />
			<path d="M6.272532327109869,4.050135696509729 L5.999385699015928,4.4746523309470145 L5.689826816321662,4.901001961120587 L5.3457344944197684,5.326596929907289 L4.969197143583836,5.748854160473876 L4.562500093714659,6.1652108338259035 L4.128111723916106,6.573139943405074 L3.668668481084756,6.970165632329052 L3.1869588784404215,7.353878220186938 L2.6859065711157974,7.721948828187833 L2.168552611525067,8.07214351389761 L1.6380369922095321,8.402336829775473 L1.0975795881828334,8.71052472321909 L0.5504606144429918,8.994836699823631 L7.172611139472096e-07,9.253547176031852 " />
			<path d="M5.556960694510465,1.7778805891877667 L30.237687393901354,12.768424705790977 " />
			<path d="M1.4889836937762198,10.91306329789684 L25.43511167160085,21.576484159349967 " />
			<path d="M-14.549523346814048,19.25884602363159 L-6.27253089194695,5.503187980039854 " />
			<path d="M-5.829341878487011,24.16242215399771 L2.295906688259855,10.658949556577262 " />
			<path d="M-3.2369246828110363,10.198359636698255 L-36.88684816502328,14.213472869868545 " />
			<path d="M-4.4217216365448735,0.2687948839800818 L-39.16240405215257,4.414057614518171 " />
			<path d="M-26.16970895820674,-12.350283736690457 L-1.488982259608406,-1.3597396204401804 " />
			<path d="M-29.503087238935834,-2.8879777735264724 L-5.556959260247368,7.775443088311327 " />
			<path d="M-2.2959052538230154,-1.10562587882103 L5.981087201136901,-14.861283922566997 " />
			<path d="M6.272532326375504,4.0501356977301555 L14.397780893208491,-9.453336899833431 " />
			<path d="M38.07164655337171,5.269415560453034 L4.4217230712096125,9.284528793617339 " />
			<path d="M37.97760853284825,-4.790298689610852 L3.2369261175070108,-0.6450359591045576 " />

        </g>

        <!-- solid lines -->
        <g  stroke="rgb(0,0,0)" fill="none">
    			<path d="M-31.374355126083223,-6.045805511836893 L-31.35939492275393,-5.907081914431249 L-31.341296575360225,-5.769862587574355 L-31.32007526383805,-5.634270973219614 L-31.295748885293133,-5.500428232996833 L-31.26833796705297,-5.36845331709821 L-31.237865592355583,-5.238463020955279 L-31.20435733752273,-5.11057203084 L-31.16784121958979,-4.984892959380102 L-31.1283476534893,-4.861536371835628 L-31.085909418009965,-4.74061080384059 L-31.040561629877548,-4.622222771170457 L-30.9923417254289,-4.506476771953144 L-30.941289449475146,-4.393475281598039 L-30.88744685107459,-4.283318740574499 L-30.830858286060923,-4.176105535028132 L-30.771570426296837,-4.071931970080081 L-30.709632275747943,-3.970892235511411 L-30.645095193596724,-3.8730783633915853 L-30.578012924740804,-3.778580177066929 L-30.508441638144784,-3.687485230781832 L-30.436439973639423,-3.5998787390623734 L-30.362069097886792,-3.5158434948489115 L-30.285392770354775,-3.4354597752210867 L-30.206477420268975,-3.358805233415573 L-30.125392235634838,-3.2859547756938037 L-30.042209265547573,-3.216980421473785 L-29.957003458912602,-3.151951087762765 L-29.869836901728434,-3.0909217778815092 L-29.780778569646326,-3.033950054013987 L-29.68991122198211,-2.98109812914228 L-29.59731897441873,-2.932423230921737 L-29.503087243397477,-2.8879777755125127 " />
			<path d="M-29.50308724339747,-2.8879777755125096 L-29.42496737140223,-2.8548482138964184 L-29.345859442195707,-2.824595737399925 L-29.265811799852692,-2.7972421228184543 L-29.184873299969507,-2.7728071910265646 L-29.103093298693018,-2.7513088307804483 L-29.02052164303087,-2.732763016883063 L-28.93720866235471,-2.7171838229895386 L-28.853205161018533,-2.7045834292676387 L-28.76856241202508,-2.694972125065149 L-28.683332151683683,-2.688358306673187 L-28.597566575213527,-2.684748470211541 L-28.511318333257048,-2.684147199599257 L-28.424640529278562,-2.6865571495107963 L-28.337586717834,-2.6919790231552243 L-28.25021090370808,-2.7004115446529666 L-28.162567541925945,-2.7118514257218247 L-28.074711538656796,-2.7262933263210107 L-27.986698253037712,-2.7437298088391167 L-27.89858349995641,-2.764151285349012 L-27.810423553842256,-2.7875459573897974 L-27.722275153525537,-2.813899747673046 L-27.63419550823544,-2.8431962230476815 L-27.54624230481794,-2.8754165079949465 L-27.458473716265253,-2.910539187862038 L-27.370948251637174,-2.9485402731853076 L-27.283709184185707,-2.989400668720267 L-27.196804955617356,-3.033098143578648 L-27.11029359962396,-3.079603976952374 L-27.024232182213968,-3.128887477656049 L-26.938676830857272,-3.180916072653004 L-26.8536827603311,-3.2356553867296216 L-26.769304295516047,-3.29306931400421 L-26.68559489137009,-3.3531200819083318 L-26.602607150286925,-3.4157683082301302 L-26.520392837023532,-3.4809730517608077 L-26.439002891360527,-3.5486918570370314 L-26.35848743863738,-3.6188807936236866 L-26.278895798283177,-3.6914944903330147 L-26.20027649044217,-3.7664861647277896 L-26.122677240772024,-3.8438076482078234 L-26.04614498347109,-3.923409406930724 L-25.970725862569786,-4.0052405587694295 L-25.896465231499647,-4.089248886460687 L-25.82340765093222,-4.1753808470502864 L-25.75159688485851,-4.263581577692438 L-25.681075894858406,-4.353794897812359 L-25.611886832487876,-4.4459633075927245 L-25.54407102969056,-4.540027982696286 L-25.477668987118715,-4.63592876508857 L-25.412720360227254,-4.733604149776208 L-25.34926394298307,-4.832991267228083 L-25.287337649010514,-4.934025861198057 L-25.22697848997237,-5.036642261619739 L-25.168222550964362,-5.1407733521953185 L-25.111104962679732,-5.246350532252165 L-25.05565987007905,-5.35330367239246 L-25.001914904565748,-5.461572375202726 L-24.949893235583108,-5.57110398601762 L-24.89962506498234,-5.681829587019801 L-24.851139237968827,-5.793679926289811 L-24.804463187753797,-5.906585644302312 L-24.75962298183368,-6.020477288479876 L-24.71664336345423,-6.135285326553026 L-24.675547788625355,-6.250940158825974 L-24.636358459023732,-6.367372129442699 L-24.599096351091468,-6.484511536743198 L-24.563781241610354,-6.602288642794876 L-24.530431730002302,-6.720633682179256 L-24.499065257577918,-6.839476870109348 L-24.469698123926253,-6.958748409948228 L-24.44234550060998,-7.07837850019449 L-24.417021442301547,-7.198297340995476 L-24.393738895466864,-7.31843514024434 L-24.372509704674503,-7.438722119312167 L-24.353344616579385,-7.55908851846156 L-24.33625328160126,-7.6794646019833035 L-24.321244253289432,-7.799780663092845 L-24.308324985336384,-7.919967028618547 L-24.297501826174148,-8.039954063508846 L-24.288780011058485,-8.159672175180589 L-24.282163651517124,-8.279051817726028 L-24.277655722009502,-8.398023495991172 L-24.27525804361664,-8.516517769533245 L-24.274971264551013,-8.634465256460345 L-24.27679483724748,-8.75179663715141 L-24.280726991767413,-8.868442657849917 L-24.286764705219618,-8.984334134119823 L-24.294903893060127,-9.099404776119703 L-24.305141009084135,-9.213605017918852 L-24.31747077864988,-9.32686961784593 L-24.33188644066324,-9.439130517676146 L-24.348380020568392,-9.55032064945474 L-24.36694236346082,-9.660373910758661 L-24.387563163228346,-9.769225143511864 L-24.410230988021272,-9.876810116078566 L-24.434933302326872,-9.98306550838629 L-24.46165648589798,-10.087928899857769 L-24.490385849759626,-10.19133875995818 L-24.52110564949194,-10.293234441191482 L-24.55379909596203,-10.393556174407044 L-24.588448363651658,-10.492245066305024 L-24.62503459670198,-10.589243099056338 L-24.66353791277093,-10.684493131980384 L-24.703937404773026,-10.777938905251093 L-24.74621114054585,-10.869525045629118 L-24.790336160461663,-10.959197074245418 L-24.83628847297695,-11.046901416488772 L-24.884043048087015,-11.132585414077147 L-24.93357380862711,-11.216197339420164 L-24.984853619335755,-11.297686412407252 L-25.03785427357042,-11.37700281978341 L-25.09254647753985,-11.454097737301943 L-25.14889983189184,-11.528923354870685 L-25.206882810469306,-11.60143290493579 L-25.266462736022206,-11.671580694374347 L-25.327605752636693,-11.739322140194513 L-25.390276794617677,-11.804613809369174 L-25.454439551534936,-11.867413463156474 L-25.520056429117393,-11.927680106287934 L-25.58708850565447,-11.985374041432193 L-25.65549560336384,-12.04045702268239 L-25.725247708500806,-12.09290062901817 L-25.796309524132376,-12.142673025414979 L-25.868637238858703,-12.189738184281186 L-25.94218640254046,-12.23406234316782 L-26.01691194827458,-12.275613933298924 L-26.09276821220032,-12.314363516964827 L-26.169708951299082,-12.350283733099674 " />
			<path d="M-26.169708951299103,-12.350283733099685 L-26.27818789777893,-12.395395485593852 L-26.38853816583106,-12.434948915039657 L-26.500630960674254,-12.468889874769895 L-26.614335568146807,-12.497171312291245 L-26.72951939913112,-12.519753185330122 L-26.846048025697645,-12.536602414624278 L-26.9637852096766,-12.547692871857144 L-27.08259292421488,-12.553005401982375 L-27.202331368723918,-12.552527880036601 L-27.322858977473274,-12.546255303388822 L-27.444032421933052,-12.534189921225403 L-27.565706606817344,-12.516341403920103 L-27.687734659629157,-12.49272705578908 L-27.809967913356306,-12.463372075581258 L-27.932255881816246,-12.428309869904982 L-28.05444622699655,-12.387582425642345 L-28.17638471758646,-12.341240748253059 L-28.297915858245062,-12.28934506711117 L-28.41891605755265,-12.231948731725494 L-28.53924753818922,-12.169115926302355 L-28.658756687825143,-12.100926141160235 L-28.77729329193359,-12.027465870480189 L-28.89471040314414,-11.948828203805935 L-29.010864232366508,-11.865112474828683 L-29.125614059485844,-11.77642396134875 L-29.23882216172552,-11.682873630959687 L-29.350353758067666,-11.58457792765449 L-29.460076968415947,-11.481658595207099 L-29.56786278647951,-11.374242533836227 L-29.67358506565123,-11.262461687312285 L-29.777120517447877,-11.146452958321909 L-29.878348722373946,-11.026358150558346 L-29.97715215336548,-10.902323936659736 L-30.073416212264235,-10.774501851771019 L-30.167029280067155,-10.64304831315902 L-30.257882781990244,-10.508124666963948 L-30.34587126868039,-10.36989726382433 L-30.430892515202896,-10.228537565766146 L-30.51284763972689,-10.084222287400701 L-30.591641244125157,-9.937133575129444 L-30.66718211688975,-9.787458129890018 L-30.739401257263893,-9.63534838204579 L-30.808225133855544,-9.480972067999017 L-30.873576444485415,-9.324515308152726 L-30.935383216687487,-9.166164496677963 L-30.99357857287146,-9.006106233395737 L-31.048100529318607,-8.844527263067707 L-31.098891825476592,-8.681614421227009 L-31.145899780417057,-8.517554585734791 L-31.189076173717822,-8.352534633302081 L-31.228377148429807,-8.186741400270773 L-31.26376313418687,-8.020361647001632 L-31.295198788914867,-7.853582025271337 L-31.32265295799443,-7.686589048134719 L-31.346098650130124,-7.5195690617624384 L-31.365513029576753,-7.3527082188185275 L-31.380877424771676,-7.186192452996275 L-31.39217735382029,-7.020207454385123 L-31.39940256767983,-6.854938645395311 L-31.402547112284843,-6.690571157021164 L-31.401609411255905,-6.527289805278028 L-31.39659237123109,-6.3652790677019775 L-31.387503512258156,-6.204723059855552 L-31.37435512608323,-6.045805511836958 " />
			<path d="M15.019345657803983,-11.581507905085953 L15.012255449328714,-11.439499037146964 L15.000834358315,-11.298114415364063 L14.985091262159688,-11.15748210275847 L14.965038897643694,-11.017728630505317 L14.940693736988651,-10.878979042904156 L14.9120758823081,-10.741356933554407 L14.87920897677089,-10.604984473561617 L14.842120130979781,-10.469982432489285 L14.800839863253415,-10.33647019266016 L14.755402052685112,-10.20456575729977 L14.705843904037145,-10.07438575290408 L14.65220592371443,-9.94604542610208 L14.594531906246743,-9.819658635173155 L14.532868930893905,-9.695337836268092 L14.46726736817351,-9.573194064271554 L14.397780896296114,-9.4533369081329 " />
			<path d="M14.397780896296112,-9.453336908132895 L14.338464448718716,-9.357652815520305 L14.276650084226807,-9.263608959882765 L14.212371568909889,-9.171262026510595 L14.145664177974083,-9.080668007379229 L14.07656471923311,-8.991882181653972 L14.005111560368608,-8.90495909376693 L13.931344660232167,-8.819952528860043 L13.855305604496849,-8.736915485367083 L13.777037646001297,-8.655900144486214 L13.696585750164948,-8.576957836273554 L13.613996645888093,-8.500139002067014 L13.529318882386068,-8.425493152928452 L13.442602892442023,-8.353068823771038 L13.353894986121567,-8.282908844153793 L13.263232777326143,-8.215048145759534 L13.170670992252404,-8.149533443336907 L13.076266359088986,-8.08641015777103 L12.980076605372364,-8.025721694410834 L12.88216042612376,-7.967509499449118 L12.782577455334652,-7.9118131086458625 L12.681388240548861,-7.85867018897079 L12.578654220309032,-7.808116573682 L12.474437704255225,-7.760186291298134 L12.368801855683062,-7.7149115888622735 L12.261810676388802,-7.672322949836477 L12.153528993648505,-7.632449106906587 L12.044022449198263,-7.595317049917625 L11.93335749010237,-7.560952029100843 L11.821601361416079,-7.529377553694168 L11.708822100569435,-7.50061538599854 L11.595088533418561,-7.474685530853296 L11.480470271930523,-7.451606220454538 L11.365037713487812,-7.431393894381062 L11.248862041818244,-7.414063174633184 L11.132015229576004,-7.399626835430518 L11.014570042619264,-7.388095767455426 L10.896600046049784,-7.37947893616962 L10.778179612099635,-7.3737833337720975 L10.659383929970021,-7.37101392430728 L10.540289017747117,-7.371173581372975 L10.420971736539514,-7.37426301781846 L10.301509807001814,-7.380280706763729 L10.181981828428736,-7.389222793211633 L10.06246730062386,-7.401082995465364 L9.943039796179265,-7.415853426031382 L9.823753474406228,-7.433527466106063 L9.70468575909064,-7.454094247848968 L9.58591566864984,-7.477540334541154 L9.467521147290563,-7.503850122573539 L9.349579093429632,-7.533005932109976 L9.232165384680442,-7.564988088459653 L9.115354899660614,-7.599774994879878 L8.999221536852186,-7.637343197476517 L8.883838230721816,-7.677667442815549 L8.769276965284531,-7.720720728805346 L8.655608785270589,-7.766474349355542 L8.542903805031107,-7.814897933264486 L8.431231215294176,-7.865959477733477 L8.32065928785919,-7.919625376852196 L8.21125537829325,-7.975860445345905 L8.10308592666953,-8.034627937821178 L7.996216456363532,-8.095889563693127 L7.890711570899241,-8.159605497923286 L7.7866349488132816,-8.225734387643449 L7.684049336481161,-8.294233354687037 L7.583016538825824,-8.365057993995665 L7.483597407804748,-8.438162367814828 L7.3858518285479065,-8.513498995538798 L7.289838702994961,-8.591018839011006 L7.19561593085613,-8.670671283032375 L7.103240387697204,-8.752404110776244 L7.0127678999252865,-8.836163473754784 L6.924253216427864,-8.921893855927838 L6.837749976593882,-9.009538031491523 L6.753310674421554,-9.0990370158299 L6.670985032404082,-9.190331808513205 L6.590807026609048,-9.283379098737486 L6.512820309065653,-9.37812361633983 L6.43707062789976,-9.474505141821378 L6.363601835678624,-9.572462942745709 L6.29245595224979,-9.671935802246763 L6.223673221072209,-9.772862044917648 L6.15729215953401,-9.875179560286561 L6.093349603713611,-9.978825824073317 L6.0318807480031635,-10.083737917407175 L5.972919179975517,-10.189852544173972 L5.916496910838212,-10.297106046647679 L5.862644401780239,-10.405434419548849 L5.811390586479563,-10.514773322659593 L5.762762890001695,-10.62505809211197 L5.716787244281824,-10.736223750453908 L5.673488100345313,-10.84820501558401 L5.632888437383595,-10.960936308633869 L5.595009768764793,-11.07435176086363 L5.559872145020641,-11.188385219623957 L5.527494153813517,-11.302970253424629 L5.497892916849715,-11.418040156137288 L5.471084083667288,-11.533527950347143 L5.4470818221890935,-11.649366389855576 L5.425898805893916,-11.765487961322881 L5.407546197420808,-11.881824885027637 L5.392033628384048,-11.99830911470634 L5.379369175138387,-12.11487233642428 L5.369559330196494,-12.231445966415793 L5.362608968962799,-12.347961147819287 L5.358521311410174,-12.464348746219677 L5.357297878288152,-12.580539343898076 L5.3589387736383145,-12.696475761462848 L5.363443618171283,-12.812102033736458 L5.3708105678693245,-12.927348649204012 L5.381036044953365,-13.042146736001156 L5.394114787097155,-13.156428055977676 L5.410039890820002,-13.270124990679747 L5.428802849519655,-13.38317052964846 L5.4503935865509465,-13.495498260855587 L5.474800483719303,-13.607042363117541 L5.502010405521648,-13.71773760034837 L5.532008719430656,-13.827519317532552 L5.564779312481769,-13.936323438318311 L5.600304604385833,-14.044086464152118 L5.638565557353627,-14.150745474894915 L5.67954168278201,-14.256238130880563 L5.7232110449148825,-14.360502676397006 L5.769550261555539,-14.463477944590423 L5.818534501870465,-14.56510336381272 L5.870137481288095,-14.665318965452588 L5.924331453459424,-14.764065393310256 L5.981087199210836,-14.861283914595969 " />
			<path d="M5.981087199210853,-14.861283914595996 L6.031083884029056,-14.94230041290491 L6.0828729428079455,-15.022146787862855 L6.136434159303522,-15.100788558154992 L6.191746527344463,-15.178191590813954 L6.248788239188276,-15.254322109928491 L6.307536672390988,-15.329146706242181 L6.36796837509546,-15.402632347707039 L6.430059049633822,-15.474746391062057 L6.493783534329925,-15.545456594511972 L6.559115783378063,-15.614731131586726 L6.626028844664713,-15.682538606267428 L6.694494835390352,-15.748848069469725 L6.764484915338843,-15.813629036980851 L6.835969257632317,-15.876851508951741 L6.908918214834159,-15.938486980822365 L6.983312829554221,-15.99851656623732 L7.059123934959207,-16.0569132274679 L7.136318276176396,-16.11364796867328 L7.214862056273253,-16.168692855011003 L7.294720952235338,-16.222020983989303 L7.375860129559157,-16.273606459876177 L7.45824425554877,-16.323424370964773 L7.54183751139958,-16.371450769510062 L7.626603603147397,-16.417662654166893 L7.712505771555612,-16.462037954774875 L7.7995068010079,-16.50455551935078 L7.887569027468621,-16.545195103164442 L7.9766543455677,-16.583937359789317 L8.06672421486147,-16.62076383403426 L8.157739665315658,-16.655656956678236 L8.249661302051301,-16.68860004094498 L8.342449309389117,-16.719577280669917 L8.436063454222484,-16.74857375012685 L8.53046308874389,-16.77557540549731 L8.625607152544351,-16.80056908798054 L8.72145417410001,-16.823542528557574 L8.817962271654746,-16.844484354437935 L8.915089153502356,-16.863384097232906 L9.012792117666521,-16.880232202914446 L9.111028050971402,-16.89502004363423 L9.209753427490455,-16.907739931492436 L9.308924306355673,-16.91838513436128 L9.408496328904146,-16.926949893883414 L9.50842471513355,-16.933429445780792 L9.608664259432757,-16.937820042624605 L9.709169325548512,-16.94011897923242 L9.809893840743765,-16.940324620873668 L9.910791289097928,-16.938436434480145 L10.011814703893942,-16.934455023073227 L10.112916659031853,-16.92838216363491 L10.214049259403096,-16.920220848665032 L10.315164130154475,-16.90997533168222 L10.416219223741884,-16.897650275713602 L10.517184987582022,-16.883249165106868 L10.618014003043879,-16.86677828419532 L10.718658203887054,-16.848245219403363 L10.819070072762239,-16.82765867906949 L10.91920262820412,-16.80502845232591 L11.019009412952219,-16.78036537153295 L11.11844448351471,-16.75368127803491 L11.217462400896576,-16.724988991017852 L11.316018222419807,-16.694302279263912 L11.414067494569583,-16.661635835610365 L11.511566246806693,-16.62700525393586 L11.608470986292783,-16.59042700850996 L11.704738693481282,-16.551918435556097 L11.800326818533167,-16.51149771689199 L11.895193278523024,-16.469183865525427 L11.989296455407162,-16.42499671309727 L12.082595194731855,-16.378956899077437 L12.175048805066037,-16.331085861633508 L12.266617058149125,-16.28140583010554 L12.357260189750914,-16.229939819034573 L12.446938901246794,-16.176711623706215 L12.535614361917855,-16.121745817184607 L12.623248211991688,-16.065067748826 L12.795240019603964,-15.946680106960931 L12.962617029441477,-15.821767056418224 L13.125089811054028,-15.690559535210959 L13.282377045064015,-15.55330128921784 L13.434205836142361,-15.410249215801006 L13.580312100961105,-15.261673836636025 L13.72044105417806,-15.10785990273719 L13.85438167510684,-14.949065401245944 L13.981934825758037,-14.785548886008831 L14.102886654314062,-14.617605891361425 L14.217038670078887,-14.445535738570609 L14.324206961073589,-14.269641194977 L14.424221549644251,-14.090228185169247 L14.516925868875301,-13.907605547206654 L14.602176345157613,-13.722084827708503 L14.67984207481662,-13.533980110430491 L14.715793156306608,-13.439057561944503 L14.749804585261925,-13.343607873750678 L14.781863468510688,-13.247670960556151 L14.811957673675925,-13.151286873289262 L14.840075828090008,-13.054495796605067 L14.866207318815091,-12.957338046688552 L14.890342293779966,-12.859854069346417 L14.912471664053633,-12.762084438381436 L14.932587107285908,-12.664069854246511 L14.950681072355398,-12.565851142978687 L14.966746785275099,-12.467469255416514 L14.980778256415924,-12.368965266707326 L14.992770289118386,-12.270380376114042 L15.002718489772715,-12.171755907134338 L15.0106192794576,-12.073133307948064 L15.01646990723782,-11.974554152212015 L15.020268465230902,-11.876060140224222 L15.022013905563036,-11.777693100483098 L15.021706059344385,-11.67949499166987 L15.019345657803985,-11.581507905086019 " />
			<path d="M36.73444322513073,-1.9115844576560184 L36.698184550866884,-1.6191774223641 L36.6672182664822,-1.3192379564435286 L36.64167268533623,-1.012960704381472 L36.62165454512227,-0.7015531770028463 L36.607249944675495,-0.3862348385729457 L36.59852488650815,-0.06823632617028652 L36.59552548093248,0.2512012300885158 L36.59827784285727,0.570826817770167 L36.60678768756894,0.8893801159708992 L36.621039607033325,1.2055920648460998 L36.640995983479314,1.5181854637621464 L36.66659547225069,1.8258756313893931 L36.69775221436394,2.12738218719749 L36.73437002066889,2.4215459758143245 L36.776318877342156,2.707111560601337 L36.82344009329606,2.982832322347333 L36.875552551418224,3.2475184212998407 L36.932453688653716,3.500034874152753 L36.99392006523104,3.739300823377379 L37.02628974404947,3.8536419547958247 L37.05970757755677,3.964289882838611 L37.09413980499889,4.071125049669314 L37.1295513417052,4.17403153717653 L37.165905757102976,4.272897174285006 L37.20316524683095,4.367613665972382 L37.241290598461624,4.458076746190611 L37.28024115023415,4.54418635725652 L37.31997474209165,4.625846858641348 L37.360447658209466,4.702967268454478 L37.4016145600924,4.775461541281992 L37.443433056447326,4.843256106731788 L37.48586675542686,4.906291618981507 L37.52886835847617,4.964496819646854 L37.57238990161077,5.017807178348078 L37.61638330756562,5.066165405871875 L37.66080040536054,5.109521122187437 L37.70559294816056,5.147830571121702 L37.75071262963739,5.181056377099166 L37.79611109902694,5.20916733987476 L37.84173997506601,5.232138263711449 L37.887550858980376,5.24994981797733 L37.93349534668462,5.262588426660195 L37.97952504034294,5.2700461848206315 L38.0255915594285,5.272320800527902 L38.071646551407696,5.269415561345981 " />
			<path d="M38.0716465514077,5.26941556134598 L38.10701186739544,5.263666189842529 L38.142319892029015,5.254867259343627 L38.17754871682233,5.243026995251879 L38.21267645576662,5.2281555977017184 L38.2476812480794,5.210265262262522 L38.28254126097509,5.189370206481691 L38.317234692466066,5.165486702633505 L38.35173977420163,5.138633117103321 L38.3860347743509,5.1088299569004985 L38.42009800053419,5.076099923857209 L38.453907802806256,5.040467977134107 L38.48744257669312,5.00196140471761 L38.55361842472497,4.916421259846621 L38.61847928628584,4.819696437701789 L38.68186782376757,4.712046887923607 L38.743632967686715,4.593755742432504 L38.803629647599074,4.465127710885186 L38.86171857718541,4.32648780772372 L38.91776609604405,4.17818034967284 L38.971644060936306,4.020568185065327 L39.02322978120823,3.854032124819441 L39.072405995089774,3.6789705533365007 L39.11906088555035,3.4957992060308385 L39.16308813636698,3.30495110864849 L39.204387031039175,3.1068766819750797 L39.24286259916221,2.902044023977501 L39.27842581684799,2.690939389868124 L39.31099437409415,2.474064331806883 L39.340500853591294,2.2518712234356215 L39.36687688893032,2.0248634143066075 L39.39005834296956,1.7935768428865244 L39.40998917255535,1.558552782673269 L39.4266211137231,1.3203375368125292 L39.439913453788044,1.079482175010713 L39.44983287882315,0.8365423059851571 L39.4563533880725,0.5920778791177443 L39.45945626989911,0.34665300940309063 L39.45913013691692,0.10083582020754278 L39.45537102100779,-0.1448017012196008 L39.448182531974545,-0.389683840116271 L39.43757608663251,-0.633231286667642 L39.42357121819231,-0.8748612683393149 L39.406195978837694,-1.1139876854420239 L39.38548745145293,-1.350021252861005 L39.36148992279367,-1.5823918503715089 L39.33424818989865,-1.8105933269630556 L39.303823731682385,-2.034038445784828 L39.27028759149111,-2.25214935299631 L39.233718773817245,-2.464368136918511 L39.19420385891728,-2.6701561163578087 L39.15183671498834,-2.868993393741924 L39.10671829554622,-3.0603786430800746 L39.05895651300465,-3.2438291138248645 L39.008666182812796,-3.418880842779099 L38.955969035864456,-3.5850890772563675 L38.90099380024989,-3.742028923769768 L38.843876356777834,-3.8892962475888013 L38.78475997605223,-4.026508859570057 L38.72379564824544,-4.153308037732888 L38.66114252006629,-4.269360442116941 L38.59695945983994,-4.374374285163512 L38.5313893574433,-4.468115130702166 L38.49813738608436,-4.510679874550996 L38.46460304011122,-4.550336778140104 L38.43080800860826,-4.587060896148093 L38.39677398332797,-4.620829657109285 L38.362522654704414,-4.651622789034667 L38.32807570820136,-4.679422253648639 L38.293454820964044,-4.704212188588887 L38.25868165874518,-4.725978856979727 L38.22377787307699,-4.744710603852318 L38.18876509866212,-4.760397818948152 L38.153664950957925,-4.773032905505313 L38.11849902392964,-4.782610254689997 L38.0832888879492,-4.789126225398843 L38.048056087818004,-4.79257912922067 L38.0128221408929,-4.792969220409227 L37.97760853529612,-4.790298690781647 " />
			<path d="M37.97760853529611,-4.790298690781647 L37.928439634087646,-4.781439634777209 L37.87941104175266,-4.766621252325547 L37.83058119726767,-4.745868699970506 L37.78200839740024,-4.719214720569264 L37.733750788031216,-4.686699783619431 L37.685866355348956,-4.6483722718467675 L37.63841291682559,-4.604288718695687 L37.59144811190394,-4.554514102286768 L37.54502938981991,-4.49912219914464 L37.4992044240988,-4.438182611262339 L37.45401946907735,-4.371767399985777 L37.409527584643236,-4.299964308404445 L37.36578025567471,-4.222866860462822 L37.32282745803306,-4.140574045218612 L37.280717715054514,-4.053190044122253 L37.239498145513586,-3.960823996718177 L37.19921450391421,-3.8635898006417797 L37.15991121384853,-3.7616059422595214 L37.12163139504782,-3.6549953547730105 L37.084416884633704,-3.543885301081446 L37.04830825296203,-3.428407279170174 L37.01334481433583,-3.3086969482666477 L36.979564632747845,-3.184894074478493 L36.947004522697085,-3.0571424951018695 L36.91570004500806,-2.9255901012617587 L36.88568549746527,-2.790388839019295 L36.829656973728255,-2.5096679095077787 L36.77916735645084,-2.216277657588553 L36.73444322513074,-1.9115844576560819 " />
			<path d="M16.27190899551473,36.84050721381792 L15.754366686741841,37.06660874070356 L15.233683627527967,37.28538052516778 L14.70996361992715,37.49677895342253 L14.183311071431758,37.70076188161333 L13.653830974158094,37.89728864422099 L13.121628883915385,38.08632006216858 L12.586810899162504,38.26781845063207 L12.049483639856389,38.441747626553074 L11.50975422619661,38.60807291585223 L10.967730257270121,38.76676116034174 L10.423519789600608,38.917780724335636 L9.87723131560659,39.06110150095672 L9.328973741972662,39.19669491813844 L8.778856367938133,39.32453394432109 L8.226988863507376,39.444593093840645 L7.6734812475863645,39.55684843200956 L7.118443866049512,39.66127757988835 L6.561987369741418,39.75785971874695 L6.004222692417825,39.846575594215146 L5.4452610286301155,39.927407520121 L4.885213811557843,40.00033938201679 L4.324192690793739,40.06535664039151 L3.762309510085476,40.12244633356943 L3.199676285038832,40.17159708029412 L2.636405180786518,40.21279908199738 L2.072608489627214,40.24604412475266 L1.5083986086392844,40.27132558091255 L0.9438880172735615,40.288638410430075 L0.37918925492974154,40.29797916186345 L-0.1855851014791856,40.29934597306416 L-0.7503224599700076,40.292738571548206 L-1.314910235935299,40.27815827455037 L-1.8792358745880406,40.255607988761696 L-2.4431868734002524,40.22509220974997 L-3.00665080453118,40.186617021063476 L-3.5695153372406594,40.14019009301827 L-4.131668260283083,40.08582068116895 L-4.6929975042775265,40.02351962446357 L-5.253391164049642,39.953299343082776 L-5.812737520940768,39.875173835963764 L-6.370925065079902,39.789158678009464 L-6.927842517614007,39.695271016983625 L-7.483378852892288,39.59352957009221 L-8.037423320599974,39.48395462025201 L-8.589865467837248,39.366568012047104 L-9.140595161138819,39.24139314737398 L-9.689502608429882,39.10845498077615 L-10.236478380913967,38.967780014469355 L-10.781413434888396,38.81939629305806 L-11.324199133482963,38.66333339794462 L-11.864727268317488,38.49962244143196 L-12.402890081073988,38.32829606052116 L-12.938580284979079,38.14938841040496 L-13.471691086192413,37.96293515765872 L-14.002116205096822,37.76897347312999 L-14.52974989748595,37.56754202452824 L-15.054486975645144,37.358680968716165 L-15.576222829321422,37.14243194370412 L-16.09485344657831,36.91883806034922 L-16.610275434531374,36.68794389376095 L-17.122386039960393,36.449795474414735 L-17.63108316979397,36.20444027897543 L-18.136265411462535,35.95192722083248 L-18.63783205311571,35.6923066403487 L-19.13568310369996,35.425630294824515 L-19.62971931289258,35.151951348179786 L-20.11984219088795,34.871324360355175 L-20.605954028032244,34.5838052764352 L-21.087957914302557,34.289451415495186 L-21.565757758626653,33.988321459174244 L-22.03925830803945,33.680475439976725 L-22.50836516667237,33.36597472930418 L-22.97298481457191,33.04488202522063 L-23.433024626343496,32.71726133995313 L-23.888392889617077,32.383177987130544 L-24.33899882333067,32.042698568762745 L-24.78475259582823,31.695890961962984 L-25.22556534276825,31.342824305416134 L-25.661349184839573,30.983568985595344 L-26.09201724528073,30.618196622729958 L-26.517483667199528,30.24678005652754 L-26.937663630689237,29.86939333165269 L-27.352473369738043,29.48611168296567 L-27.761830188928485,29.097011520523832 L-28.165652479923363,28.70217041434867 L-28.563859737734987,28.301667078961646 L-28.956372576774427,27.895581357691896 L-29.343112746677644,27.48399420675882 L-29.72400314790528,27.066987679132897 L-30.098967847113023,26.64464490817779 L-30.467932092289473,26.217050091077127 L-30.83082232765855,25.7842884720491 L-31.18756620834334,25.346446325352453 L-31.538092614788617,24.903610938087 L-31.882331666939066,24.455870592792387 L-32.220214738170355,24.003314549848206 L-32.55167446897039,23.54603302967934 L-32.87664478036794,23.08411719476983 L-33.195060887105974,22.617659131488914 L-33.50685931055706,22.146751831733013 L-33.81197789137834,21.671489174387006 L-34.11035580190342,21.19196590660883 L-34.401933558268865,20.70827762494089 L-34.68665303227269,20.220520756252235 L-34.96445746296271,19.728792538515073 L-35.235291467952266,19.233191001419698 L-35.49910105446102,18.733814946831515 L-35.75583363007894,18.230763929094174 L-36.0054380132509,17.724138235182657 L-36.24786444348017,17.214038864710325 L-36.48306459124849,16.70056750979387 L-36.710991567650964,16.183826534780266 L-36.93159993374367,15.663918955839655 L-37.144845709602286,15.140948420428307 L-37.35068638308981,14.615019186625712 L-37.549080918331654,14.086236102349982 L-37.739989763896475,13.554704584455617 L-37.92337486068104,13.020530597717874 L-38.099199649497564,12.483820633707888 L-38.26742907836213,11.944681689562794 L-38.428029609482465,11.403221246655052 L-38.58096922594404,10.859547249165228 L-38.726217438092824,10.313768082562513 L-38.86374528961364,9.765992551997252 L-38.99352536330284,9.216329860609884 L-39.115531786534085,8.664889587760412 L-39.22974023641629,8.111781667182989 L-39.336127944642584,7.5571163650697795 L-39.43467370202928,7.001004258088585 L-39.52535786274411,6.443556211338551 L-39.60816234822284,5.8848833562484 L-39.683070650773246,5.32509706842152 L-39.750067836866116,4.764308945432438 L-39.809140550112375,4.202630784578998 L-39.86027701392573,3.640174560594726 L-39.90346703387047,3.077052403325851 L-39.938701999693755,2.513376575377361 L-39.965974887042165,1.94925944973264 L-39.98528025886205,1.384813487351055 L-39.996614266483455,0.8201512147480283 L-39.999974650387365,0.2553852015620368 L-39.99536074065617,-0.30937196188697413 L-39.9827734571072,-0.8740076870433242 L-39.962215309109396,-1.4384094095609665 L-39.933690395083,-2.002464611744019 L-39.8972044016825,-2.566060844978024 L-39.852764602663015,-3.129085752147404 L-39.80037985743018,-3.691427090034697 L-39.7400606092739,-4.252972751697078 L-39.67181888328653,-4.813610788815721 L-39.59566828396545,-5.3732294340135205 L-39.51162399250101,-5.931717123136764 L-39.41970276374999,-6.488962517496269 L-39.31992292289541,-7.0448545260635935 L-39.21230436179326,-7.599282327617848 L-39.09686853500693,-8.15213539283874 L-38.97363845553004,-8.703303506341417 L-38.84263869019872,-9.252676788648737 L-38.703895354793886,-9.800145718096541 L-38.557436108835006,-10.34560115266763 L-38.403290150065864,-10.888934351750038 L-38.24148820863384,-11.430036997815279 L-38.07206254096359,-11.968801218012267 L-37.8950469233265,-12.505119605672563 L-37.71047664510712,-13.038885241722696 L-37.51838850176799,-13.56999171599928 L-37.31882078751415,-14.09833314846268 L-37.11181328765894,-14.623804210304982 L-36.89740727069249,-15.146300144948079 L-36.67564548005454,-15.665716788927677 L-36.4465721256132,-16.18195059265906 L-36.2102328748514,-16.694898641080464 L-35.966674843762725,-17.20445867416998 L-35.715946587458504,-17.710529107331833 L-35.45809809048799,-18.21300905164805 L-35.193180756873524,-18.711798333991386 L-34.92124739986282,-19.206797516995632 L-34.642352231400224,-19.697907918879157 L-34.35655085131913,-20.185031633117866 L-34.063900236257766,-20.66807154796362 L-33.764458728300504,-21.146931365804146 L-33.45828602334687,-21.62151562236072 L-33.145443159210764,-22.091729705719672 L-32.825992503452106,-22.557479875193973 L-32.49999774094338,-23.018673280011146 L-32.16752386117359,-23.475217977823753 L-31.828637145292152,-23.927022953038808 L-31.483405152895198,-24.373998134962378 L-31.131896708557115,-24.816054415755897 L-30.77418188810979,-25.253103668200424 L-30.41033200467255,-25.685058763265513 L-30.040419594435317,-26.111833587479 L-29.66451840219794,-26.533343060094385 L-29.2827033666687,-26.94950315005231 L-28.895050605524656,-27.36023089273276 L-28.501637400237044,-27.765444406494712 L-28.10254218066464,-28.16506290899983 L-27.697844509418168,-28.55900673331703 L-27.287625065998895,-28.94719734380467 L-26.871965630714623,-29.32955735176725 L-26.450949068376097,-29.70601053088336 L-26.024659311777345,-30.076481832402052 L-25.593181344963007,-30.44089740010429 L-25.156601186286167,-30.799184585026786 L-24.715005871259947,-31.151271959945106 L-24.268483435206303,-31.497089333613197 L-23.817122895705545,-31.836567764756566 L-23.36101423485001,-32.16963957581621 L-22.900248381305474,-32.49623836644068 L-22.434917192183853,-32.816299026723435 L-21.965113434730743,-33.129757750183025 L-21.490930767831642,-33.43655204648339 L-21.01246372334034,-33.73662075389177 L-20.52980768723325,-34.029904051471725 L-20.04305888059355,-34.31634347100893 L-19.55231434042875,-34.5958819086672 L-19.05767190032571,-34.86846363637263 L-18.559230170946655,-35.13403431292334 L-18.057088520370563,-35.392540994822845 L-17.55134705428326,-35.64393214683469 L-17.042106596020687,-35.888157652256446 L-16.529468666469,-36.12516882291078 L-16.013535463825598,-36.35491840885187 L-15.494409843225164,-36.577360607784975 L-14.972195296234739,-36.792451074197515 L-14.446995930221885,-37.00014692819965 L-13.918916447600116,-37.20040676407272 L-13.388062124955697,-37.39319065852377 L-12.85453879205995,-37.578460178644576 L-12.318452810771314,-37.75617838957351 L-11.77991105383132,-37.92630986185881 L-11.239020883558695,-38.08882067852167 L-10.695890130445889,-38.243678441817856 L-10.150627071662278,-38.39085227969647 L-9.603340409468274,-38.530312851954456 L-9.05413924954474,-38.66203235608586 L-8.503133079241948,-38.78598453282443 L-7.950431745752459,-38.90214467137859 L-7.396145434212274,-39.01048961435776 L-6.840384645734593,-39.1109977623889 L-6.283260175380606,-39.203649078422515 L-5.724883090071641,-39.28842509172728 L-5.165364706447194,-39.365308901572185 L-4.604816568673083,-39.434285180595886 L-4.043350426204308,-39.49534017786238 L-3.481078211506949,-39.54846172160225 L-2.918112017743608,-39.59363922163928 L-2.354564076426785,-39.630863671501636 L-1.7905467350447175,-39.66012765021742 L-1.226172434664015,-39.681425323794045 L-0.6615536875137611,-39.694752446381344 L-0.09680305455530736,-39.70010636111795 L0.46796687695756134,-39.697486000661 L1.0326435159237697,-39.68689188739891 L1.597114289840782,-39.66832613334723 L2.1612666672468155,-39.641792439727595 L2.724988180154801,-39.60729609622987 L3.2881664464737224,-39.5648439799576 L3.850689192412828,-39.514444554057015 L4.412444274864242,-39.45610786602982 L4.973319703759543,-39.38984554573019 L5.533203664395808,-39.315670803046224 L6.0919845397267025,-39.23359842526649 L6.6495509326141935,-39.14364477413207 L7.205791688036378,-39.04582778257469 L7.760595915247082,-38.94016695114169 L8.313853009882749,-38.82668334410843 L8.865452676012254,-38.70539958527898 L9.415284948125201,-38.57633985347587 L9.963240213054403,-38.4395298777199 L10.509209231828049,-38.29499693210084 L11.053083161447324,-38.14276983034012 L11.594753576585083,-37.98287892004667 L12.134112491201233,-37.81535607666682 L12.671052380070556,-37.64023469712972 L13.205466200218687,-37.45754969318943 L13.737247412261897,-37.26733748446499 L14.266290001646546,-37.069635991179865 L14.79248849978385,-36.864484626602334 L15.315738005075852,-36.65192428918809 L15.83593420382832,-36.431997354426876 L16.352973391046476,-36.204747666394596 L16.866752491109352,-35.970220529012664 L17.37716907831868,-35.72846269701635 L17.88412139731824,-35.47952236663385 L18.38750838337953,-35.22344916597803 L18.887229682549766,-34.96029414515269 L19.383185671658225,-34.6901097660753 L19.87527747817684,-34.41294989201842 L20.36340699993118,-34.128869776871554 L20.84747692465786,-33.83792605412592 L21.327390749404465,-33.54017672558417 L21.80305279976811,-33.235681149797216 L22.2743682489689,-32.924500030230746 L22.741243136754303,-32.606695403163506 L23.20358438813085,-32.282330625319865 L23.661299831919322,-31.951470361239245 L24.114298219129786,-31.614180570384708 L24.56248924115272,-31.270528493993456 L25.005783547762753,-30.920582641671828 L25.444092764931277,-30.564412777737363 L25.877329512444454,-30.20208990731075 L26.305407421323153,-29.833686262160455 L26.728241151041207,-29.45927528630278 L27.145746406538727,-29.078931621360226 L27.557839955026914,-28.692731091681157 L27.96443964258116,-28.30075068922362 L28.365464410519028,-27.903068558206453 L28.760834311559933,-27.499763979530627 L29.1504705257632,-27.090917354974025 L29.53429537624142,-26.676610191162748 L29.912232344645922,-26.256925083322113 L30.284206086421257,-25.831945698810785 L30.650142445825736,-25.40175676044094 L31.009968470714888,-24.96644402958821 L31.363612427085034,-24.526094289094537 L31.711003813374003,-24.080795325967287 L32.052073374516134,-23.630635913878304 L32.38675311574879,-23.175705795466232 L32.71497631616762,-22.716095664445604 L33.03667754202789,-22.251897147526414 L33.35179265978916,-21.783202786147612 L33.66025884890079,-21.310106018028307 L33.96201461432571,-20.832701158540264 L34.25699979879986,-20.351083381905376 L34.54515559482508,-19.86534870222207 L34.82642455639273,-19.37559395432406 L35.10075061043603,-18.881916774475716 L35.36807906800863,-18.38441558090747 L35.628356635187274,-17.88318955419542 L35.88153142369632,-17.37833861748897 L36.127552961252086,-16.86996341659038 L36.36637220162482,-16.358165299890285 L36.59794153441651,-15.843046298163124 L36.822214794552316,-15.324709104226544 L37.03914727148391,-14.803257052468862 L37.248695718102944,-14.278794098248511 L37.45081835936256,-13.751424797169836 L37.64547490060566,-13.221254284239091 L37.832626535597925,-12.68838825290503 L38.012235954264035,-12.152932933988135 L38.18426735012588,-11.614995074502668 L38.348686427440704,-11.074681916375898 L38.505460408038275,-10.532101175068602 L38.65455803785545,-9.98736101810119 L38.795949593166924,-9.440570043489702 L38.92960688651084,-8.891837258095974 L39.05550327230821,-8.341272055896328 L39.17361365217487,-7.788984196173033 L39.28391447992507,-7.235083781633019 L39.38638376626554,-6.679681236458032 L39.481001083179265,-6.122887284290785 L39.56774756799793,-5.564812926161341 L39.64660592716231,-5.005569418358279 L39.71756043966999,-4.4452682502488585 L39.780596960209266,-3.8840211220528342 L39.83570292197933,-3.3219399225741704 L39.88286733919538,-2.7591367068951484 L39.92208080927885,-2.1957236740373727 L39.9533355147318,-1.6318131445940658 L39.976625224695404,-1.0675175383380964 L39.99194529619217,-0.5029493518102779 L39.99929267505149,0.061778864107679965 L39.99866589651858,0.6265545266309953 L39.99006508554639,1.1912650435160632 L39.973491956770786,1.7557978355065433 L39.94894981416869,2.3200403587768825 L39.9164435503994,2.8838801273687604 L39.87597964582921,3.4472047356160065 L39.827566167239524,4.009901880553519 L39.77121276621862,4.571859384305677 L39.706930677237594,5.132965216449856 L39.63473271541067,5.693107516350532 L39.5546332739404,6.252174615459515 L39.466648321248265,6.810055059577914 L39.37079539779128,7.366637631075378 L39.267093612565134,7.921811371062139 L39.15556363929473,8.475465601509523 L39.03622771231265,9.027489947314404 L38.9091096221266,9.577774358303333 L38.77423471067666,10.126209131171859 L38.63162986628305,10.67268493135468 L38.48132351828586,11.21709281482233 L38.32334563137741,11.75932424979998 L38.15772769962854,12.299271138404041 L37.984502740210054,12.836825838192297 L37.80370528681049,13.371881183623227 L37.61537138275161,13.904330507420264 L37.41953857380285,14.434067661836695 L37.216245900696286,14.960987039817015 L37.0055338913436,15.484983596050485 L36.78744455275655,16.00595286791269 L36.56202136267252,16.523790996290973 L36.329309260886916,17.038394746289462 L36.08935464029415,17.549661527809793 L35.84220533763873,18.057489416003147 L35.5879106239788,18.56177717158977 L35.32652119486348,19.06242426104176 L35.05808916022638,19.559330876625182 L34.782668033997105,20.052397956297487 L34.50031272343279,20.541527203456262 L34.21107951817202,21.026621106535405 L33.91502607901298,21.50758295844477 L33.612211426418405,21.984316875849444 L33.302695928749394,22.456727818284826 L32.98654129023053,22.92472160710363 L32.66381053864863,23.388204944251118 L32.33456801278783,23.84708543086476 L31.99887934960295,24.30127158569462 L31.656811471134496,24.750672863340856 L31.3084325711671,25.195199672304597 L30.953812101634643,25.634763392848683 L30.593020758774497,26.069276394664683 L30.226130469033667,26.498652054342628 L29.853214374729756,26.922804772640056 L29.474346819469478,27.341649991546852 L29.08960333332771,27.75510421114251 L28.699060617789993,28.163085006242483 L28.30279653046155,28.565511042830252 L27.90089006954576,28.96230209427184 L27.493421358095294,29.353379057309656 L27.08047162803899,29.73866396783224 L26.66212320398762,30.118080016417064 L26.238459486821945,30.49155156364301 L25.80956493706605,30.859004155169682 L25.375525058049547,31.220364536580426 L24.936426378861825,31.575560667986135 L24.492356437101876,31.924521738386964 L24.043403761426948,32.267178179789 L23.589657853903784,32.6034616810732 L23.13120917216563,32.933305201613656 L22.668149111378888,33.25664298464273 L22.200569986022792,33.57341057036011 L21.72856501148583,33.88354480878331 L21.25222828548256,34.1869838723372 L20.771654769294503,34.483667268179694 L20.286940268838947,34.77353585026147 L19.798181415569296,35.05653183111723 L19.305475647210873,35.33259879338601 L18.80892118833597,35.60168170105842 L18.30861703078208,35.86372691044847 L17.804662913917106,36.11868218088785 L17.297159304755564,36.36649668514051 L16.78620737792978,36.607121019535434 L16.271908995519926,36.84050721381561 " />

        </g>
        </g>
    </svg>
    