<?xml version='1.0' encoding='utf-8'?>
<svg width="100.09mm" height="56.057446mm" viewBox="-61.645637 -32.008009 117.26213 65.675048" version="1.1" xmlns="http://www.w3.org/2000/svg">
  <g transform="scale(1,-1)" stroke-linecap="round">
    <g fill="none" stroke="rgb(0,0,0)" stroke-width="0.10544101997192745" id="Visible">
      <line x1="55.563773" y1="1.842449" x2="55.563773" y2="2.780001" />
      <line x1="55.563773" y1="2.780001" x2="44.09566" y2="27.966188" />
      <line x1="44.09566" y1="27.966188" x2="-28.311156" y2="31.955288" />
      <line x1="-61.592916" y1="8.296948" x2="-61.592916" y2="9.234501" />
      <line x1="-28.311156" y1="31.955288" x2="-61.592916" y2="9.234501" />
      <line x1="-9.75536" y1="-9.734371" x2="-9.75536" y2="-8.796818" />
      <line x1="-61.592916" y1="8.296948" x2="-9.75536" y2="-9.734371" />
      <line x1="-61.592916" y1="9.234501" x2="-9.75536" y2="-8.796818" />
      <line x1="-9.75536" y1="-9.734371" x2="55.563773" y2="1.842449" />
      <line x1="-9.75536" y1="-8.796818" x2="55.563773" y2="2.780001" />
      <line x1="-49.384417" y1="-19.157037" x2="-49.384417" y2="-18.219484" />
      <line x1="-41.420981" y1="-12.783007" x2="-49.384417" y2="-18.219484" />
      <line x1="-7.821723" y1="-33.614319" x2="-7.821723" y2="-32.676766" />
      <line x1="-49.384417" y1="-19.157037" x2="-7.821723" y2="-33.614319" />
      <line x1="-49.384417" y1="-18.219484" x2="-7.821723" y2="-32.676766" />
      <line x1="44.550326" y1="-24.332173" x2="44.550326" y2="-23.39462" />
      <line x1="-7.821723" y1="-33.614319" x2="44.550326" y2="-24.332173" />
      <line x1="-7.821723" y1="-32.676766" x2="44.550326" y2="-23.39462" />
      <line x1="44.550326" y1="-23.39462" x2="40.664886" y2="-14.861445" />
      <line x1="-48.855942" y1="3.866484" x2="-58.294482" y2="-2.577018" />
      <path d="M -56.455485,-7.553364 A 10.0,3.4784275855094138 180.0 0,0 -59.384417,-5.093744" />
      <path d="M -56.455485,-6.615811 A 10.0,3.4784275855094138 180.0 0,0 -59.384417,-4.156191" />
      <path d="M -59.384417,-4.156191 A 10.0,3.4784275855094138 180.0 0,0 -58.294482,-2.577018" />
      <line x1="-56.455485" y1="-7.553364" x2="-14.892791" y2="-22.010646" />
      <line x1="-56.455485" y1="-6.615811" x2="-14.892791" y2="-21.073093" />
      <path d="M -3.281818,-22.650328 A 10.0,3.478427585509414 180.0 0,0 -14.892791,-22.010646" />
      <path d="M -3.281818,-21.712775 A 10.0,3.478427585509414 180.0 0,0 -14.892791,-21.073093" />
      <line x1="-3.281818" y1="-22.650328" x2="49.090231" y2="-13.368181" />
      <line x1="-3.281818" y1="-21.712775" x2="49.090231" y2="-12.430628" />
      <path d="M 54.550326,-10.268879 A 10.0,3.478427585509415 180.0 0,0 49.090231,-13.368181" />
      <path d="M 54.42721,-8.787181 A 10.0,3.478427585509415 180.0 0,0 54.550326,-9.331327" />
      <path d="M 54.550326,-9.331327 A 10.0,3.478427585509415 180.0 0,0 49.090231,-12.430628" />
      <line x1="54.42721" y1="-8.787181" x2="50.033483" y2="0.862289" />
      <line x1="-56.455485" y1="-7.553364" x2="-56.455485" y2="-6.615811" />
      <line x1="-14.892791" y1="-22.010646" x2="-14.892791" y2="-21.073093" />
      <line x1="-3.281818" y1="-22.650328" x2="-3.281818" y2="-21.712775" />
      <line x1="49.090231" y1="-13.368181" x2="49.090231" y2="-12.430628" />
      <line x1="-59.384417" y1="-4.156191" x2="-59.384417" y2="-5.093744" />
      <line x1="54.550326" y1="-9.331327" x2="54.550326" y2="-10.268879" />
    </g>
    <g fill="none" stroke="rgb(99,99,99)" stroke-width="0.10544101997192745" id="Hidden" stroke-dasharray="0.002678 0.317662">
      <line x1="44.09566" y1="27.028635" x2="44.09566" y2="27.966188" />
      <line x1="55.563773" y1="1.842449" x2="44.09566" y2="27.028635" />
      <line x1="-28.311156" y1="31.017735" x2="-28.311156" y2="31.955288" />
      <line x1="44.09566" y1="27.028635" x2="-28.311156" y2="31.017735" />
      <line x1="-28.311156" y1="31.017735" x2="-61.592916" y2="8.296948" />
      <line x1="35.355339" y1="-4.138209" x2="35.355339" y2="-3.200656" />
      <line x1="-22.699525" y1="-0.939799" x2="-22.699525" y2="-0.002246" />
      <line x1="35.355339" y1="-4.138209" x2="-22.699525" y2="-0.939799" />
      <line x1="35.355339" y1="-3.200656" x2="-22.699525" y2="-0.002246" />
      <line x1="-22.699525" y1="-0.939799" x2="-49.384417" y2="-19.157037" />
      <line x1="-22.699525" y1="-0.002246" x2="-41.420981" y2="-12.783007" />
      <line x1="44.550326" y1="-24.332173" x2="35.355339" y2="-4.138209" />
      <line x1="40.664886" y1="-14.861445" x2="35.355339" y2="-3.200656" />
      <path d="M 36.919684,13.360687 A 10.0,3.478427585509414 180.0 0,0 45.232222,10.469231" />
      <path d="M 36.919684,14.29824 A 10.0,3.478427585509414 180.0 0,0 45.232222,11.406783" />
      <line x1="36.919684" y1="13.360687" x2="-21.13518" y2="16.559097" />
      <line x1="36.919684" y1="14.29824" x2="-21.13518" y2="17.49665" />
      <path d="M -31.60959,14.702667 A 10.0,3.478427585509415 -180.0 0,0 -21.13518,16.559097" />
      <path d="M -31.60959,15.64022 A 10.0,3.478427585509415 -180.0 0,0 -21.13518,17.49665" />
      <line x1="-31.60959" y1="14.702667" x2="-58.294482" y2="-3.514571" />
      <line x1="-31.60959" y1="15.64022" x2="-48.855942" y2="3.866484" />
      <path d="M -59.384417,-5.093744 A 10.0,3.4784275855094138 180.0 0,0 -58.294482,-3.514571" />
      <path d="M 54.42721,-9.724734 A 10.0,3.478427585509415 180.0 0,0 54.550326,-10.268879" />
      <line x1="54.42721" y1="-9.724734" x2="45.232222" y2="10.469231" />
      <line x1="50.033483" y1="0.862289" x2="45.232222" y2="11.406783" />
    </g>
  </g>
</svg>