<?xml version="1.0" encoding="UTF-8" standalone="no"?>
    <svg
    xmlns:svg="http://www.w3.org/2000/svg"
    xmlns="http://www.w3.org/2000/svg"
    width="415"
    height="231"
    >
        <g transform="scale(4, -4)   translate(52.10193331806586,-28.879096309382497)" stroke-width="0.25"  fill="none">
        <!-- hidden lines -->
        <g  stroke="rgb(160,160,160)" fill="none" stroke-dasharray="0.25,0.25" >
    			<path d="M-49.60193331806586,-7.682500378797018 L6.922603189123791,17.41551024583289 " />
			<path d="M6.9226031891237945,17.41551024583289 L6.9226031891237945,26.379096309382494 " />
			<path d="M49.38198889610446,-1.3787453523298314 L6.922603189123791,17.4155102458329 " />
			<path d="M-3.0466022707152565,-10.54042729678994 L-3.491358806731073,-10.400569679782524 L-4.043897163281864,-10.32435517002816 L-4.678361137248451,-10.315350249059708 L-5.365060790931155,-10.37397630493625 L-6.071861801858091,-10.497489913258645 L-6.765689198334174,-10.680111216561974 L-7.414075112961167,-10.91329439453147 L-7.9866781265245494,-11.186127568304656 L-8.456703104080626,-11.48584342521429 L-8.802155081575425,-11.798416669129491 L-9.006868526983649,-12.109220338521762 L-9.061263811374658,-12.403710279649161 L-8.962795490608222,-12.668105744724558 L-8.71607142017954,-12.890034266266316 " />
			<path d="M-8.716071420179535,-12.890034266266321 L-8.316804141307948,-13.064008347388015 L-7.7910640192923495,-13.172624164486257 L-7.165213859150173,-13.210435266951585 L-6.470636401233636,-13.175545648220975 L-5.742160659585554,-13.069704819463938 L-5.016315449741966,-12.898220081787166 L-4.3294976813900705,-12.669690395995676 L-3.716147265336283,-12.395575194791924 L-3.2070201525698367,-12.089619758969661 L-2.827646102454528,-11.767165971639663 L-2.597048513991215,-11.444383012148412 L-2.526790513157122,-11.137456565909062 L-2.6203951294859333,-10.86177720654928 L-2.8731686366560787,-10.631168648284136 " />
			<path d="M-2.8731686366560885,-10.631168648284127 L-2.884466986205254,-10.624244335757098 L-2.895935787710078,-10.617386581342606 L-2.9075743694259435,-10.610595786709444 L-2.9193820496639526,-10.603872349604467 L-2.931358136830859,-10.597216663829304 L-2.9435019294695737,-10.590629119217285 L-2.9558127163002554,-10.584110101610616 L-2.9682897762619627,-10.57765999283777 L-2.980932378554887,-10.571279170691131 L-2.993739782683172,-10.564968008904865 L-3.0067112384982675,-10.558726877133022 L-3.019845986242877,-10.552556140927898 L-3.033143256595448,-10.546456161718613 L-3.04660227071524,-10.540427296789948 " />
			<path d="M18.937539790903784,-0.7790340129068087 L18.492783254887822,-0.6391763958993608 L17.94024489833683,-0.5629618861450023 L17.30578092437001,-0.5539569651765981 L16.61908127068707,-0.6125830210532248 L15.912280259759928,-0.7360966293757367 L15.21845286328369,-0.9187179326792068 L14.570066948656628,-1.1519011106488541 L13.997463935093279,-1.424734284422191 L13.527438957537347,-1.7244501413319595 L13.181986980042817,-2.0370233852472666 L12.977273534634978,-2.3478270546395974 L12.922878250244459,-2.6423169957670045 L13.021346571011472,-2.906712460842345 L13.268070641440783,-3.1286409823839794 " />
			<path d="M13.268070641440794,-3.1286409823839882 L13.667337920312793,-3.3026150635054017 L14.193078042328644,-3.411230880603374 L14.818928202470921,-3.4490419830684576 L15.513505660387422,-3.4141523643376432 L16.241981402035343,-3.308311535580452 L16.96782661187868,-3.1368267979035784 L17.654644380230266,-2.9082971121120447 L18.267994796283723,-2.634181910908294 L18.77712190904984,-2.3282264750860806 L19.156495959164864,-2.005772687756161 L19.387093547627956,-1.6829897282650075 L19.45735154846191,-1.37606328202576 L19.363746932133054,-1.100383922666075 L19.11097342496297,-0.8697753644010128 " />
			<path d="M19.11097342496295,-0.8697753644009945 L19.099675075413785,-0.8628510518739643 L19.08820627390896,-0.8559932974594715 L19.076567692193095,-0.8492025028263086 L19.064760011955084,-0.8424790657213319 L19.052783924788177,-0.8358233799461665 L19.040640132149456,-0.8292358353341491 L19.028329345318774,-0.822716817727478 L19.015852285357067,-0.8162667089546307 L19.00320968306414,-0.8098858868079919 L18.990402278935854,-0.8035747250217247 L18.977430823120756,-0.7973335932498817 L18.964296075376147,-0.7911628570447578 L18.95099880502357,-0.7850628778354709 L18.937539790903816,-0.7790340129068236 " />
			<path d="M-13.661448697460422,-5.841863397249259 L-14.106205233476384,-5.702005780241812 L-14.658743590027377,-5.625791270487453 L-15.293207563994201,-5.6167863495190495 L-15.979907217677141,-5.675412405395676 L-16.68670822860429,-5.798926013718191 L-17.380535625080526,-5.98154731702166 L-18.028921539707593,-6.2147304949913105 L-18.60152455327094,-6.48756366876465 L-19.07154953082687,-6.787279525674419 L-19.4170015083214,-7.099852769589729 L-19.62171495372923,-7.410656438982061 L-19.676110238119747,-7.705146380109468 L-19.57764191735273,-7.969541845184809 L-19.330917846923406,-8.19147036672644 " />
			<path d="M-19.330917846923402,-8.191470366726445 L-18.931650568051403,-8.365444447847857 L-18.40591044603555,-8.474060264945827 L-17.78006028589327,-8.51187136741091 L-17.085482827976772,-8.476981748680092 L-16.357007086328856,-8.371140919922901 L-15.631161876485521,-8.199656182246027 L-14.944344108133935,-7.9711264964544934 L-14.330993692080485,-7.6970112952507455 L-13.821866579314365,-7.391055859428531 L-13.442492529199342,-7.068602072098611 L-13.211894940736249,-6.745819112607458 L-13.141636939902295,-6.4388926663682104 L-13.235241556231149,-6.163213307008524 L-13.488015063401242,-5.932604748743456 " />
			<path d="M-13.488015063401253,-5.932604748743447 L-13.49931341295042,-5.9256804362164175 L-13.510782214455244,-5.918822681801926 L-13.522420796171108,-5.912031887168763 L-13.534228476409119,-5.905308450063787 L-13.546204563576024,-5.898652764288623 L-13.55834835621474,-5.892065219676605 L-13.570659143045422,-5.885546202069934 L-13.583136203007129,-5.879096093297089 L-13.595778805300053,-5.872715271150451 L-13.608586209428339,-5.866404109364183 L-13.621557665243433,-5.860162977592342 L-13.634692412988041,-5.853992241387218 L-13.647989683340613,-5.847892262177931 L-13.661448697460406,-5.841863397249266 " />
			<path d="M8.322693364158617,3.919529886633872 L7.877936828142658,4.059387503641319 L7.325398471591669,4.135602013395679 L6.69093449762485,4.144606934364082 L6.004234843941908,4.085980878487457 L5.297433833014767,3.962467270164944 L4.603606436538527,3.7798459668614752 L3.955220521911466,3.546662788891827 L3.3826175083481145,3.2738296151184914 L2.9125925307921845,2.9741137582087225 L2.5671405532976515,2.6615405142934145 L2.362427107889813,2.3507368449010846 L2.3080318234992916,2.056246903773677 L2.406500144266305,1.7918514386983366 L2.653224214695616,1.5699229171567046 " />
			<path d="M2.6532242146956264,1.5699229171566955 L3.0524914935676417,1.3959488360352745 L3.5782316155835225,1.2873330189373027 L4.204081775725835,1.249521916472223 L4.898659233642372,1.2844115352030485 L5.6271349752903275,1.3902523639602578 L6.352980185133694,1.561737101637152 L7.0397979534852935,1.7902667874287106 L7.653148369538747,2.0643819886324852 L8.162275482304844,2.3703374244547204 L8.541649532419829,2.692791211784659 L8.772247120882863,3.0155741712758246 L8.84250512171674,3.3225006175150753 L8.748900505387791,3.5981799768747527 L8.496126998217607,3.828788535139792 " />
			<path d="M8.496126998217587,3.82878853513981 L8.484828648668433,3.835712847666831 L8.473359847163618,3.8425706020813104 L8.461721265447766,3.849361396714465 L8.44991358520977,3.8560848338194313 L8.437937498042878,3.8627405195945856 L8.425793705404175,3.869328064206594 L8.413482918573509,3.875847081813256 L8.401005858611818,3.882297190586093 L8.388363256318906,3.888678012732723 L8.375555852190635,3.8949891745189804 L8.362584396375556,3.901230306290814 L8.349449648630966,3.9074010424959296 L8.33615237827841,3.9135010217052093 L8.32269336415865,3.9195298866338577 " />
			<path d="M-17.136486355581546,-7.665278741417225 L-8.71607142405953,-12.890034263858833 " />
			<path d="M-11.293583574128592,-5.406413122150317 L-2.873168642608601,-10.63116864459067 " />
			<path d="M4.847655706037948,2.0961145424656262 L13.26807063755698,-3.128640979974132 " />
			<path d="M10.690558487489971,4.354980161733107 L19.110973419010122,-0.8697753607073455 " />
			<path d="M-27.75133278232658,-2.966714841876623 L-19.330917850804852,-8.191470364318057 " />
			<path d="M-21.908430000873757,-0.7078492226096369 L-13.488015069353766,-5.932604745049989 " />
			<path d="M-5.767190720707232,6.794678442006315 L2.6532242108118136,1.5699229195665487 " />
			<path d="M0.07571206074476972,9.05354406127381 L8.49612699226498,3.8287885388333205 " />

        </g>

        <!-- solid lines -->
        <g  stroke="rgb(0,0,0)" fill="none">
    			<path d="M-7.142547611085195,-26.476755976959744 L-7.142547611085195,-17.51316991341014 " />
			<path d="M-7.142547611085195,-17.513169913410138 L-49.60193331806586,1.2810856847525898 " />
			<path d="M-49.60193331806586,-7.682500378797018 L-49.60193331806586,1.2810856847525844 " />
			<path d="M-7.142547611085195,-26.476755976959744 L-49.60193331806586,-7.682500378797016 " />
			<path d="M-7.142547611085195,-26.476755976959744 L49.38198889610446,-1.3787453523298332 " />
			<path d="M49.38198889610446,-1.3787453523298314 L49.38198889610446,7.584840711219771 " />
			<path d="M-7.142547611085195,-17.513169913410138 L49.38198889610446,7.584840711219773 " />
			<path d="M-49.60193331806586,1.2810856847525844 L6.922603189123791,26.379096309382497 " />
			<path d="M49.38198889610446,7.584840711219771 L6.922603189123791,26.379096309382497 " />
			<path d="M-11.467017202235986,-5.315671774349132 L-11.911773738252023,-5.175814157341668 L-12.464312094803116,-5.099599647587313 L-13.098776068770057,-5.0905947266189315 L-13.785475722453114,-5.1492207824956004 L-14.492276733380367,-5.272734390818174 L-15.186104129856684,-5.455355694121717 L-15.834490044483783,-5.688538872091442 L-16.407093058047117,-5.961372045864858 L-16.877118035602976,-6.261087902774696 L-17.222570013097368,-6.573661146690059 L-17.427283458505006,-6.884464816082421 L-17.481678742895276,-7.178954757209832 L-17.383210422127963,-7.443350222285142 L-17.136486351698323,-7.665278743826716 " />
			<path d="M-17.13648635169832,-7.66527874382672 L-16.73721907282615,-7.839252824947977 L-16.211478950810232,-7.94786864204581 L-15.58562879066798,-7.985679744510783 L-14.891051332751584,-7.950790125779889 L-14.162575591103815,-7.844949297022659 L-13.436730381260663,-7.6734645593457795 L-12.749912612909263,-7.444934873554274 L-12.136562196855975,-7.170819672350579 L-11.62743508408997,-6.864864236528433 L-11.248061033975006,-6.542410449198588 L-11.017463445511899,-6.219627489707506 L-10.947205444677849,-5.912701043468312 L-11.040810061006539,-5.637021684108655 L-11.293583568176405,-5.406413125843578 " />
			<path d="M-11.293583568176416,-5.406413125843569 L-11.30488191772561,-5.399488813316518 L-11.316350719230456,-5.392631058902007 L-11.327989300946346,-5.385840264268824 L-11.339796981184382,-5.379116827163829 L-11.35177306835131,-5.372461141388646 L-11.363916860990056,-5.365873596776611 L-11.376227647820766,-5.359354579169922 L-11.388704707782498,-5.352904470397059 L-11.401347310075458,-5.346523648250404 L-11.414154714203768,-5.34021248646412 L-11.427126170018902,-5.333971354692261 L-11.440260917763538,-5.327800618487121 L-11.453558188116144,-5.32170063927782 L-11.46701720223597,-5.3156717743491395 " />
			<path d="M10.517124859383053,4.4457215095340015 L10.072368323367108,4.585579126541445 L9.519829966816138,4.661793636295805 L8.88536599284934,4.670798557264214 L8.198666339166426,4.612172501387597 L7.491865328239303,4.488658893065096 L6.798037931763082,4.306037589761641 L6.149652017136026,4.072854411792008 L5.577049003572671,3.8000212380186866 L5.107024026016726,3.500305381108932 L4.761572048522169,3.1877321371936347 L4.55685860311429,2.87692846780131 L4.50246331872372,2.5824385266739034 L4.600931639490676,2.318043061598557 L4.847655709919927,2.096114540056909 " />
			<path d="M4.847655709919932,2.0961145400569046 L5.246922988791896,1.9221404589354587 L5.772663110807736,1.8135246418374593 L6.398513270950016,1.7757135393723527 L7.093090728866537,1.8106031581031514 L7.821566470514487,1.916443986860335 L8.547411680357866,2.0879287245372065 L9.234229448709488,2.316458410328747 L9.847579864762977,2.5905736115325073 L10.356706977529122,2.8965290473547376 L10.736081027644158,3.218982834684674 L10.966678616107245,3.541765794175843 L11.036936616941182,3.8486922404151027 L10.943332000612287,4.124371599774794 L10.690558493442138,4.354980158039864 " />
			<path d="M10.690558493442127,4.354980158039873 L10.679260143892966,4.361904470566899 L10.667791342388146,4.368762224981387 L10.656152760672288,4.375553019614545 L10.644345080434285,4.3822764567195165 L10.632368993267384,4.388932142494676 L10.620225200628674,4.39551968710669 L10.607914413798,4.402038704713355 L10.5954373538363,4.408488813486198 L10.58279475154338,4.414869635632832 L10.5699873474151,4.421180797419095 L10.557015891600015,4.427421929190933 L10.543881143855415,4.433592665396054 L10.530583873502849,4.439692644605335 L10.51712485938307,4.445721509533994 " />
			<path d="M-22.081863628981154,-0.6171078748084504 L-22.526620164997063,-0.4772502578010158 L-23.079158521547974,-0.4010357480466542 L-23.71362249551471,-0.3920308270782318 L-24.40032214919756,-0.4506568829548261 L-25.107123160124626,-0.5741704912772958 L-25.800950556600807,-0.7567917945807121 L-26.44933647122784,-0.9899749725503018 L-27.021939484791204,-1.2628081463235823 L-27.49196446234719,-1.5625240032332997 L-27.83741643984182,-1.8750972471485694 L-28.0421298852498,-2.185900916540877 L-28.096525169640508,-2.480390857668283 L-27.99805684887371,-2.7447863227436438 L-27.75133277844463,-2.9667148442853266 " />
			<path d="M-27.751332778444628,-2.966714844285331 L-27.352065499572824,-3.1406889254068355 L-26.826325377557126,-3.2493047425049086 L-26.20047521741496,-3.2871158449700983 L-25.505897759498527,-3.2522262262393857 L-24.777422017850615,-3.1463853974822875 L-24.051576808007237,-2.974900659805498 L-23.36475903965556,-2.74637097401403 L-22.75140862360198,-2.47225577281033 L-22.242281510835692,-2.166300336988143 L-21.862907460720475,-1.8438465496582275 L-21.632309872257174,-1.5210635901670582 L-21.56205187142301,-1.2141371439277746 L-21.655656487751664,-0.9384577845680342 L-21.908429994921573,-0.7078492263028962 " />
			<path d="M-21.908429994921583,-0.707849226302887 L-21.919728344470773,-0.7009249137758369 L-21.93119714597562,-0.6940671593613246 L-21.94283572769151,-0.6872763647281435 L-21.954643407929545,-0.6805529276231486 L-21.966619495096477,-0.6738972418479658 L-21.97876328773522,-0.6673096972359298 L-21.99107407456593,-0.6607906796292413 L-22.00355113452766,-0.6543405708563785 L-22.01619373682062,-0.6479597487097228 L-22.029001140948935,-0.6416485869234378 L-22.041972596764065,-0.6354074551515811 L-22.055107344508702,-0.629236718946439 L-22.06840461486131,-0.6231367397371379 L-22.081863628981136,-0.6171078748084574 " />
			<path d="M-0.0977215673621119,9.144285409074682 L-0.5424781033780723,9.28414302608213 L-1.0950164599290595,9.360357535836489 L-1.729480433895879,9.369362456804893 L-2.416180087578815,9.310736400928267 L-3.1229810985059565,9.187222792605755 L-3.816808494982194,9.004601489302289 L-4.465194409609257,8.77141831133264 L-5.037797423172608,8.498585137559305 L-5.507822400728541,8.198869280649538 L-5.853274378223073,7.88629603673423 L-6.057987823630914,7.5754923673419 L-6.112383108021438,7.281002426214492 L-6.0139147872544285,7.016606961139152 L-5.767190716825119,6.794678439597516 " />
			<path d="M-5.767190716825113,6.7946784395975115 L-5.367923437953142,6.620704358476101 L-4.842183315937326,6.512088541378127 L-4.216333155795091,6.474277438913033 L-3.5217556978786324,6.509167057643832 L-2.7932799562307506,6.615007886401001 L-2.0674347463874385,6.786492624077848 L-1.3806169780358668,7.015022309869355 L-0.7672665619824066,7.2891375110730765 L-0.25813944921625875,7.595092946895266 L0.12123460089881499,7.917546734225168 L0.35183218936198024,8.240329693716312 L0.4220901901960241,8.547256139955559 L0.32848557386726895,8.822935499315257 L0.07571206669728192,9.053544057580353 " />
			<path d="M0.07571206669727193,9.053544057580362 L0.06441371714809385,9.060468370107403 L0.05294491564325554,9.067326124521905 L0.041306333927376926,9.07411691915508 L0.029498653689354448,9.080840356260065 L0.017522566522433003,9.087496042035239 L0.005378773883701449,9.094083586647267 L-0.006932012946994526,9.100602604253947 L-0.01940907290871685,9.107052713026803 L-0.03205167520165997,9.11343353517345 L-0.04485907932996103,9.119744696959726 L-0.05783053514507319,9.125985828731578 L-0.07096528288969939,9.13215656493671 L-0.08426255324229004,9.138256544146005 L-0.09772156736209539,9.144285409074675 " />

        </g>
        </g>
    </svg>
    