<?xml version="1.0" encoding="UTF-8" standalone="no"?>
    <svg
    xmlns:svg="http://www.w3.org/2000/svg"
    xmlns="http://www.w3.org/2000/svg"
    width="374"
    height="231"
    >
        <g transform="scale(4, -4)   translate(50.521359140086986,-29.046346080373063)" stroke-width="0.25"  fill="none">
        <!-- hidden lines -->
        <g  stroke="rgb(160,160,160)" fill="none" stroke-dasharray="0.25,0.25" >
    			<path d="M-48.021359140086986,-7.267079995989082 L9.164052093661844,17.58740382126 " />
			<path d="M9.164052093661848,17.587403821259997 L9.164052093661848,26.54634608037306 " />
			<path d="M40.633042789376745,3.2967454843446617 L9.164052093661844,17.587403821259997 " />
			<path d="M40.40044174828714,-6.127023010361319 L40.14974565215839,-6.010386715766803 L39.90547599518959,-5.891089422239534 L39.66777583668184,-5.7692009975954655 L39.43678438843481,-5.644792827175937 L39.21263693321573,-5.517937772040048 L38.995464745529524,-5.3887101262927395 L38.78539501473642,-5.257185573573613 L38.582550770562015,-5.12344114273195 L38.387050811043544,-4.987555162713883 L38.199009632954464,-4.84960721668816 L38.01853736474809,-4.709678095437365 L37.845739702059646,-4.567849750041865 L37.6807178458044,-4.42420524388424 L37.52356844290819,-4.27882870400226 L37.37438352970507,-4.131805271818935 L37.233250478035174,-3.9832210532784726 L37.1002519440744,-3.8331630684173463 L36.9754658199259,-3.6817192004000305 L36.85896518800166,-3.5289781440492223 L36.75081827822099,-3.3750293539007092 L36.65108842805085,-3.2199629918133077 L36.55983404541157,-3.0638698741645403 L36.4771085744696,-2.9068414186629967 L36.43895951714796,-2.8280051585087365 L36.40296046433728,-2.748969590808511 L36.36911668704415,-2.669746288005584 L36.337433140698145,-2.5903468500315228 L36.30791446442636,-2.51078290260772 L36.28056498037408,-2.431066095543158 L36.25538869307194,-2.3512081010286443 L36.23238928884959,-2.2712206119277543 L36.211570135295915,-2.1911153400647376 L36.19293428076599,-2.11090401450968 L36.176484453934705,-2.030598379861134 L36.162223063397235,-1.9502101945264574 L36.1501521973164,-1.8697512290001237 L36.14027362311687,-1.7892332641402922 L36.1325887872264,-1.7086680894438586 L36.12709881486407,-1.6280675013202153 L36.12380450987547,-1.5474433013640017 L36.12270635461505,-1.4668072946271775 " />
			<path d="M36.12270635461505,-1.4668072946271167 L36.12668620155179,-1.3133069114305398 L36.13862363047114,-1.1598879826379433 L36.158512306821095,-1.0066319194298332 L36.18634167674998,-0.8536200465627023 L36.22209697270677,-0.7009335592143526 L36.26575922127746,-0.5486534798979782 L36.31730525325321,-0.396860615467872 L36.37670771592503,-0.24563551423956964 L36.44393508759837,-0.09505842324718938 L36.51895169432,0.05479075433935887 L36.60171772880827,0.20383250161468913 L36.69218927157665,0.3519877301332892 L36.790318314239514,0.49917782187750803 L36.89605278498753,0.6453246709759135 L37.009336576219454,0.790350725149878 L37.13010957431532,0.9341790268664085 L37.25830769153561,1.0767332541753705 L37.39386290002912,1.2179377612094484 L37.53670326793166,1.357717618325338 L37.68675299753647,1.4959986518648858 L37.84393246551602,1.6327074835150581 L38.008158265173726,1.7677715692458729 L38.1793432507035,1.9011192378056152 L38.35739658343332,2.03267972875292 L38.542223780028394,2.1623832300055357 L38.73372676262842,2.290160914885842 L38.93180391089227,2.4159449786434712 L39.13635011592235,2.539668674435646 L39.34725683604033,2.66126634874614 L39.56441215438436,2.7806734762240684 L39.787700838297276,2.8978266939240305 L40.01700440047447,3.012663834929408 " />
			<path d="M36.12270635461505,7.492134964485942 L36.12270635461505,-1.4668072946271167 " />

        </g>

        <!-- solid lines -->
        <g  stroke="rgb(0,0,0)" fill="none">
    			<path d="M-6.062704879133786,-26.321291111876192 L-6.062704879133786,-17.36234885276313 " />
			<path d="M-6.062704879133786,-17.362348852763134 L-48.021359140086986,1.69186226312398 " />
			<path d="M-48.021359140086986,-7.267079995989082 L-48.021359140086986,1.69186226312398 " />
			<path d="M-6.062704879133786,-26.321291111876192 L-48.021359140086986,-7.267079995989079 " />
			<path d="M-6.062704879133786,-26.321291111876192 L40.400441748287136,-6.127023010361313 " />
			<path d="M40.400441748287136,2.8319192487517455 L40.400441748287136,-6.127023010361313 " />
			<path d="M-6.062704879133786,-17.362348852763134 L40.400441748287136,2.8319192487517455 " />
			<path d="M-48.021359140086986,1.69186226312398 L9.164052093661844,26.546346080373063 " />
			<path d="M40.633042789376745,12.255687743457724 L9.164052093661844,26.54634608037306 " />
			<path d="M40.40044174828714,2.831919248751743 L40.14974565215839,2.9485555433462594 L39.90547599518959,3.067852836873528 L39.66777583668184,3.1897412615175966 L39.43678438843481,3.3141494319371247 L39.21263693321573,3.4410044870730143 L38.995464745529524,3.570232132820323 L38.78539501473642,3.7017566855394484 L38.582550770562015,3.8355011163811117 L38.387050811043544,3.9713870963991793 L38.199009632954464,4.109335042424902 L38.01853736474809,4.249264163675697 L37.845739702059646,4.391092509071197 L37.6807178458044,4.534737015228822 L37.52356844290819,4.680113555110802 L37.37438352970507,4.827136987294127 L37.233250478035174,4.975721205834589 L37.1002519440744,5.125779190695716 L36.9754658199259,5.277223058713032 L36.85896518800166,5.429964115063839 L36.75081827822099,5.583912905212353 L36.65108842805085,5.738979267299754 L36.55983404541157,5.895072384948522 L36.4771085744696,6.052100840450065 L36.43895951714796,6.130937100604326 L36.40296046433728,6.209972668304551 L36.36911668704415,6.289195971107478 L36.337433140698145,6.368595409081539 L36.30791446442636,6.448159356505342 L36.28056498037408,6.527876163569904 L36.25538869307194,6.607734158084417 L36.23238928884959,6.687721647185308 L36.211570135295915,6.767826919048325 L36.19293428076599,6.848038244603382 L36.176484453934705,6.928343879251928 L36.162223063397235,7.008732064586605 L36.1501521973164,7.089191030112938 L36.14027362311687,7.16970899497277 L36.1325887872264,7.250274169669203 L36.12709881486407,7.330874757792847 L36.12380450987547,7.41149895774906 L36.12270635461505,7.492134964485885 " />
			<path d="M36.12270635461505,7.492134964485945 L36.12386758445811,7.575054293095122 L36.12735109419333,7.657960783251106 L36.13315634446665,7.7408415984884895 L36.14128243644741,7.823683906317131 L36.15172811196756,7.906474880209013 L36.16449175371639,7.989201701584188 L36.17957138549102,8.07185156179548 L36.19696467250233,8.154411664111665 L36.216668921736456,8.236869225698786 L36.23868108237176,8.319211479599337 L36.26299774625121,8.401425676708977 L36.289615148410014,8.483499087750475 L36.318529167658625,8.565419005244603 L36.349735327220756,8.647172745477638 L36.38322879542659,8.728747650465184 L36.419004386460806,8.81013108991203 L36.457056561165544,8.89131046316769 L36.497379427898025,8.972273201177382 L36.53996674344275,9.053006768428101 L36.58481191397815,9.133498664889496 L36.631907996097524,9.21373642794926 L36.681247697884054,9.293707634342727 L36.73282338003986,9.37339990207637 L36.78662705706877,9.452800892344914 L36.90088473024157,9.610679912662444 L37.02394995778424,9.76724692103742 L37.15574652557237,9.922404955739115 L37.29619281217467,10.076057927612236 L37.445201839400994,10.228110679584816 L37.60268132616784,10.378469045598843 L37.76853374564789,10.527039908927177 L37.94265638566823,10.673731259840611 L38.12494141231982,10.818452252589356 L38.31527593673898,10.961113261663705 L38.5135420850192,11.101625937298971 L38.71961707121037,11.23990326019039 L38.933373273359884,11.375859595384036 L39.15467831254878,11.509410745310444 L39.3833951348738,11.640474001928041 L39.61938209632471,11.768968197944126 L39.8624930505042,11.894813757081659 L40.112577439136146,12.017932743360731 L40.36948038530619,12.138248909364226 L40.63304278937673,12.255687743457717 " />
			<path d="M40.01700440047448,3.0126638349294135 L40.32029119184088,3.156730173621403 L40.63304278937673,3.2967454843446555 " />
			<path d="M40.633042789376745,12.255687743457727 L40.633042789376745,3.296745484344669 " />

        </g>
        </g>
    </svg>
    