<?xml version="1.0" encoding="UTF-8" standalone="no"?>
    <svg
    xmlns:svg="http://www.w3.org/2000/svg"
    xmlns="http://www.w3.org/2000/svg"
    width="488"
    height="282"
    >
        <g transform="scale(4, -4)   translate(58.06377253234473,-34.4552880041942)" stroke-width="0.25"  fill="none">
        <!-- hidden lines -->
        <g  stroke="rgb(160,160,160)" fill="none" stroke-dasharray="0.25,0.25" >
    			<path d="M-44.0956595483038,27.028635061770643 L-44.0956595483038,27.966187948451534 " />
			<path d="M-55.56377253234472,1.8424485426350867 L-44.0956595483038,27.028635061770643 " />
			<path d="M28.311156175149137,31.017735117513304 L28.311156175149137,31.955288004194195 " />
			<path d="M-44.09565954830381,27.028635061770643 L28.31115617514913,31.01773511751331 " />
			<path d="M28.31115617514914,31.017735117513308 L61.592916325352434,8.296948017350829 " />
			<path d="M-35.35533905932738,-4.138208728160958 L-35.35533905932738,-3.200655841480067 " />
			<path d="M22.69952498697734,-0.9397990330328412 L22.69952498697734,-0.0022461463519503067 " />
			<path d="M-35.35533905932738,-4.138208728160958 L22.699524986977337,-0.9397990330328385 " />
			<path d="M-35.35533905932738,-3.200655841480067 L22.699524986977337,-0.002246146351947864 " />
			<path d="M22.69952498697734,-0.9397990330328412 L49.38441702975689,-19.157037188662976 " />
			<path d="M22.69952498697734,-0.0022461463519505287 L41.42098094326055,-12.783006931480719 " />
			<path d="M-44.55032620941839,-24.33217278532746 L-35.35533905932737,-4.138208728160958 " />
			<path d="M-40.664886295960734,-14.86144495474605 L-35.35533905932737,-3.200655841480067 " />
			<path d="M-36.91968370972968,13.36068694186455 L-37.30624227948866,13.336675146868588 L-37.68979269788643,13.307402926483277 L-38.06974355797812,13.272915416350758 L-38.44550900307685,13.23326579371195 L-38.81650963010231,13.188515195411103 L-39.18217338297828,13.138732623627206 L-39.541936434701654,13.08399483947764 L-39.895244056722845,13.024386244658086 L-40.24155147429693,12.959998751301239 L-40.58032470648686,12.89093164025496 L-40.9110413895234,12.817291407998397 L-41.233191582252104,12.739191602432138 L-41.54627855242572,12.656752647795578 L-41.84981954262921,12.570101658981475 L-42.14334651465679,12.479372245533991 L-42.42640687119285,12.38470430563246 L-42.69856415368423,12.286243810378545 L-42.95939871532769,12.184142578719367 L-43.20850836813482,12.0785580433537 L-43.32854559705445,12.024510209941827 L-43.44550900307685,11.969653007982155 L-43.55935349458251,11.91400758597029 L-43.670035182352834,11.857595396275682 L-43.77751139649024,11.80043818687131 L-43.8817407028683,11.742557992949438 L-43.982682919105294,11.683977128426623 L-44.08029913005535,11.624718177341272 L-44.17455170281093,11.564803985147078 L-44.265404301211056,11.50425764990565 L-44.35282189984959,11.443102513381776 L-44.43677079757819,11.381362152044726 L-44.51721863049874,11.319060367979079 L-44.594134384440245,11.256221179708561 L-44.66748840691541,11.192868812936446 L-44.73725241855222,11.129027691206094 L-44.803399523996156,11.064722426485204 L-44.865904222278914,10.99997780967743 L-44.924742416649465,10.934818801065024 L-44.97989142386385,10.869270520686165 L-45.031329982929975,10.803358238650706 L-45.07903826330414,10.737107365398069 L-45.122997872536104,10.670543441901039 L-45.163191863359685,10.603692129819223 L-45.19960474022629,10.536579201606 L-45.232222465278745,10.469230530572768 " />
			<path d="M-36.91968370972968,14.29823982854544 L-37.30624227948866,14.274228033549479 L-37.68979269788643,14.244955813164168 L-38.06974355797812,14.210468303031648 L-38.44550900307685,14.170818680392841 L-38.81650963010231,14.126068082091994 L-39.18217338297828,14.076285510308097 L-39.541936434701654,14.02154772615853 L-39.895244056722845,13.961939131338976 L-40.24155147429693,13.89755163798213 L-40.58032470648686,13.828484526935851 L-40.9110413895234,13.754844294679287 L-41.233191582252104,13.676744489113029 L-41.54627855242572,13.594305534476469 L-41.84981954262921,13.507654545662366 L-42.14334651465679,13.416925132214882 L-42.42640687119285,13.322257192313351 L-42.69856415368423,13.223796697059436 L-42.95939871532769,13.121695465400258 L-43.20850836813482,13.016110930034591 L-43.32854559705445,12.962063096622717 L-43.44550900307685,12.907205894663045 L-43.55935349458251,12.851560472651181 L-43.670035182352834,12.795148282956573 L-43.77751139649024,12.7379910735522 L-43.8817407028683,12.680110879630329 L-43.982682919105294,12.621530015107513 L-44.08029913005535,12.562271064022163 L-44.17455170281093,12.502356871827969 L-44.265404301211056,12.44181053658654 L-44.35282189984959,12.380655400062667 L-44.43677079757819,12.318915038725617 L-44.51721863049874,12.25661325465997 L-44.594134384440245,12.193774066389452 L-44.66748840691541,12.130421699617337 L-44.73725241855222,12.066580577886985 L-44.803399523996156,12.002275313166095 L-44.865904222278914,11.937530696358321 L-44.924742416649465,11.872371687745915 L-44.97989142386385,11.806823407367055 L-45.031329982929975,11.740911125331596 L-45.07903826330414,11.67466025207896 L-45.122997872536104,11.60809632858193 L-45.163191863359685,11.541245016500113 L-45.19960474022629,11.47413208828689 L-45.232222465278745,11.406783417253658 " />
			<path d="M-36.91968370972969,13.36068694186455 L21.135180336575026,16.55909663699267 " />
			<path d="M-36.91968370972969,14.29823982854544 L21.135180336575026,17.49664952367356 " />
			<path d="M31.60959022886102,14.702667345033767 L31.51873763046089,14.763213680275195 L31.42448505770531,14.823127872469387 L31.32686884675526,14.882386823554738 L31.225926630518266,14.940967688077555 L31.121697324140207,14.998847881999428 L31.014221110002794,15.0560050914038 L30.903539422232477,15.11241728109841 L30.789694930726817,15.168062703110271 L30.67273152470441,15.222919905069944 L30.55269429578479,15.276967738481815 L30.30358464297765,15.382552273847484 L30.042750081334198,15.484653505506664 L29.770592798842817,15.58311400076058 L29.487532442306758,15.677781940662108 L29.19400547027918,15.768511354109593 L28.89046448007568,15.855162342923697 L28.57737750990207,15.937601297560255 L28.255227317173365,16.015701103126514 L27.92451063413683,16.08934133538308 L27.58573740194689,16.158408446429355 L27.23942998437281,16.222795939786202 L26.88612236235162,16.282404534605757 L26.52635931062824,16.337142318755326 L26.16069555775227,16.38692489053922 L25.789694930726817,16.431675488840067 L25.413929485628085,16.471325111478876 L25.033978625536395,16.505812621611394 L24.650428207138624,16.535084841996706 L24.26386963737965,16.559096636992667 L23.87489896155572,16.577810982151806 L23.48411594425579,16.59119902131033 L23.092123144568028,16.59924011108224 L22.69952498697734,16.601921852689937 L22.306926829386654,16.59924011108224 L21.91493402969889,16.59119902131033 L21.524151012398967,16.577810982151806 L21.135180336575054,16.55909663699267 " />
			<path d="M31.60959022886102,15.640220231714657 L31.51873763046089,15.700766566956085 L31.42448505770531,15.760680759150278 L31.32686884675526,15.819939710235628 L31.225926630518266,15.878520574758445 L31.121697324140207,15.936400768680318 L31.014221110002794,15.993557978084691 L30.903539422232477,16.0499701677793 L30.789694930726817,16.105615589791164 L30.67273152470441,16.160472791750834 L30.55269429578479,16.214520625162706 L30.30358464297765,16.320105160528374 L30.042750081334198,16.422206392187555 L29.770592798842817,16.52066688744147 L29.487532442306758,16.615334827343 L29.19400547027918,16.706064240790482 L28.89046448007568,16.792715229604585 L28.57737750990207,16.875154184241147 L28.255227317173365,16.953253989807404 L27.92451063413683,17.02689422206397 L27.58573740194689,17.095961333110246 L27.23942998437281,17.160348826467093 L26.88612236235162,17.219957421286647 L26.52635931062824,17.274695205436217 L26.16069555775227,17.32447777722011 L25.789694930726817,17.369228375520958 L25.413929485628085,17.408877998159767 L25.033978625536395,17.443365508292285 L24.650428207138624,17.472637728677597 L24.26386963737965,17.496649523673558 L23.87489896155572,17.515363868832697 L23.48411594425579,17.52875190799122 L23.092123144568028,17.53679299776313 L22.69952498697734,17.539474739370828 L22.306926829386654,17.53679299776313 L21.91493402969889,17.52875190799122 L21.524151012398967,17.515363868832697 L21.135180336575054,17.49664952367356 " />
			<path d="M31.609590228861016,14.702667345033767 L58.29448227164056,-3.514570810596368 " />
			<path d="M31.609590228861016,15.640220231714657 L48.85594163246424,3.8664836045830633 " />
			<path d="M59.38441702975689,-5.093743888449607 L59.38333274222797,-5.042521665403554 L59.3800801147771,-4.991310550281032 L59.37465985276096,-4.940121648596734 L59.367073131604045,-4.888966061048204 L59.35732159654379,-4.837854881108563 L59.34540736227376,-4.786799192620812 L59.33133301248508,-4.735810067394212 L59.31510159930615,-4.684898562803282 L59.296716642640746,-4.634075719389923 L59.2761821294047,-4.583352558469194 L59.228682710655804,-4.482249258896015 L59.172644543247614,-4.38167635936663 L59.108116233733654,-4.281721095103945 L59.03515375287236,-4.182470165604538 L58.95382038707898,-4.08400965943699 L58.864186683532,-3.986424979570124 L58.766330388981736,-3.889800769295922 L58.660336382314135,-3.7942208388113734 L58.54629660092825,-3.699768092522936 L58.42430996099132,-3.606524457136662 L58.294482271640575,-3.514570810596368 " />
			<path d="M-54.42720961536976,-9.72473352659375 L-54.45601961385416,-9.792291976252299 L-54.48101077896765,-9.860034159467771 L-54.50217347614036,-9.927933960339008 L-54.519499546749664,-9.995965202200239 L-54.53298231126554,-10.064101657712692 L-54.54261657182562,-10.132317058975735 L-54.548398614239034,-10.20058510765364 L-54.55032620941839,-10.268879485114082 " />
			<path d="M-54.42720961536977,-9.724733526593752 L-45.23222246527875,10.469230530572752 " />
			<path d="M-50.03348331329983,0.8622891823640746 L-45.23222246527875,11.406783417253642 " />

        </g>

        <!-- solid lines -->
        <g  stroke="rgb(0,0,0)" fill="none">
    			<path d="M-55.563772532344714,1.8424485426350863 L-55.563772532344714,2.780001429315977 " />
			<path d="M-55.56377253234472,2.7800014293159774 L-44.0956595483038,27.966187948451534 " />
			<path d="M-44.09565954830381,27.966187948451534 L28.31115617514913,31.955288004194202 " />
			<path d="M61.59291632535244,8.296948017350829 L61.59291632535244,9.23450090403172 " />
			<path d="M28.31115617514914,31.9552880041942 L61.592916325352434,9.23450090403172 " />
			<path d="M9.755359580146948,-9.734370717442413 L9.755359580146948,-8.796817830761523 " />
			<path d="M61.592916325352434,8.296948017350827 L9.755359580146958,-9.73437071744241 " />
			<path d="M61.592916325352434,9.234500904031718 L9.755359580146958,-8.796817830761519 " />
			<path d="M9.755359580146955,-9.734370717442415 L-55.56377253234473,1.8424485426350934 " />
			<path d="M9.755359580146955,-8.796817830761524 L-55.56377253234473,2.780001429315984 " />
			<path d="M49.38441702975689,-19.15703718866297 L49.38441702975689,-18.219484301982078 " />
			<path d="M41.42098094326055,-12.783006931480719 L49.38441702975689,-18.219484301982085 " />
			<path d="M7.821723252011548,-33.61431924512196 L7.821723252011548,-32.67676635844107 " />
			<path d="M49.38441702975689,-19.15703718866297 L7.821723252011552,-33.614319245121955 " />
			<path d="M49.38441702975689,-18.219484301982078 L7.821723252011552,-32.676766358441064 " />
			<path d="M-44.55032620941839,-24.33217278532746 L-44.55032620941839,-23.39461989864657 " />
			<path d="M7.821723252011548,-33.61431924512196 L-44.5503262094184,-24.332172785327458 " />
			<path d="M7.821723252011548,-32.67676635844107 L-44.5503262094184,-23.394619898646567 " />
			<path d="M-44.55032620941839,-23.39461989864657 L-40.664886295960734,-14.86144495474605 " />
			<path d="M48.85594163246424,3.8664836045830633 L58.29448227164056,-2.577017923915477 " />
			<path d="M56.455484841622365,-7.553363622029663 L56.626887859271555,-7.4922607405902095 L56.793928283306485,-7.429713082285345 L56.95650549482174,-7.365758323485632 L57.11452156338426,-7.3004349881463435 L57.26788130602296,-7.233782424602093 L57.41649234456334,-7.165840781864859 L57.560265161272724,-7.096650985439725 L57.699113152782346,-7.026254712672884 L57.83295268225396,-6.954694367646766 L57.96170312975961,-6.8820130556374 L58.085286940844,-6.808254557149411 L58.203629673240435,-6.73346330154428 L58.31666004171204,-6.6576843402777595 L58.42430996099132,-6.5809633197625566 L58.526514586792196,-6.503346453872648 L58.62321235486975,-6.4248804961057635 L58.714345018104275,-6.345612711420831 L58.79985768158709,-6.2655908477673306 L58.87969883568725,-6.184863107323717 L58.95382038707898,-6.103478117462229 L59.022177687711284,-6.02148490145758 L59.084729561702325,-5.9389328489571644 L59.14143833014217,-5.8558716862305875 L59.19226983378919,-5.772351446216424 L59.2371934536463,-5.688422438384233 L59.2761821294047,-5.604135218430021 L59.30921237574399,-5.519540557823394 L59.33626429647886,-5.434689413224698 L59.35732159654379,-5.349632895790652 L59.372371591808616,-5.2644222403868906 L59.38140521671893,-5.1791087747259965 L59.38441702975689,-5.093743888449639 " />
			<path d="M56.455484841622365,-6.615810735348773 L56.626887859271555,-6.554707853909319 L56.793928283306485,-6.492160195604455 L56.95650549482174,-6.428205436804741 L57.11452156338426,-6.362882101465453 L57.26788130602296,-6.296229537921202 L57.41649234456334,-6.228287895183969 L57.560265161272724,-6.159098098758834 L57.699113152782346,-6.088701825991993 L57.83295268225396,-6.017141480965876 L57.96170312975961,-5.9444601689565095 L58.085286940844,-5.87070167046852 L58.203629673240435,-5.795910414863389 L58.31666004171204,-5.720131453596869 L58.42430996099132,-5.643410433081666 L58.526514586792196,-5.565793567191758 L58.62321235486975,-5.487327609424873 L58.714345018104275,-5.40805982473994 L58.79985768158709,-5.32803796108644 L58.87969883568725,-5.247310220642826 L58.95382038707898,-5.165925230781339 L59.022177687711284,-5.083932014776689 L59.084729561702325,-5.001379962276274 L59.14143833014217,-4.918318799549697 L59.19226983378919,-4.834798559535534 L59.2371934536463,-4.750869551703342 L59.2761821294047,-4.66658233174913 L59.30921237574399,-4.581987671142503 L59.33626429647886,-4.497136526543807 L59.35732159654379,-4.412080009109761 L59.372371591808616,-4.326869353706 L59.38140521671893,-4.241555888045106 L59.38441702975689,-4.1561910017687484 " />
			<path d="M59.38441702975689,-4.1561910017687165 L59.38333274222797,-4.104968778722664 L59.3800801147771,-4.053757663600141 L59.37465985276096,-4.002568761915843 L59.367073131604045,-3.951413174367313 L59.35732159654379,-3.9003019944276724 L59.34540736227376,-3.8492463059399213 L59.33133301248508,-3.798257180713321 L59.31510159930615,-3.747345676122391 L59.296716642640746,-3.696522832709032 L59.2761821294047,-3.645799671788303 L59.228682710655804,-3.544696372215124 L59.172644543247614,-3.4441234726857393 L59.108116233733654,-3.3441682084230546 L59.03515375287236,-3.244917278923648 L58.95382038707898,-3.1464567727560997 L58.864186683532,-3.0488720928892334 L58.766330388981736,-2.952247882615031 L58.660336382314135,-2.8566679521304827 L58.54629660092825,-2.7622152058420455 L58.42430996099132,-2.6689715704557715 L58.294482271640575,-2.577017923915477 " />
			<path d="M56.455484841622365,-7.553363622029663 L14.892791063877027,-22.01064567848865 " />
			<path d="M56.455484841622365,-6.615810735348773 L14.892791063877027,-21.07309279180776 " />
			<path d="M3.281818254616079,-22.650327617514275 L3.635125876637259,-22.709936212333826 L3.994888928360645,-22.764673996483396 L4.360552681236614,-22.814456568267293 L4.731553308262073,-22.85920716656814 L5.107318753360806,-22.898856789206945 L5.487269613452497,-22.933344299339467 L5.87082003185027,-22.962616519724776 L6.257378601609237,-22.98662831472074 L6.646349277433163,-23.00534265987988 L7.037132294733092,-23.0187306990384 L7.429125094420858,-23.02677178881031 L7.821723252011546,-23.02945353041801 L8.214321409602235,-23.02677178881031 L8.60631420929,-23.0187306990384 L8.99709722658993,-23.00534265987988 L9.386067902413854,-22.98662831472074 L9.772626472172822,-22.96261651972478 L10.156176890570595,-22.933344299339467 L10.536127750662287,-22.89885678920695 L10.91189319576102,-22.85920716656814 L11.282893822786479,-22.814456568267293 L11.648557575662448,-22.764673996483396 L12.008320627385833,-22.70993621233383 L12.361628249407016,-22.650327617514275 L12.70793566698109,-22.585940124157432 L13.046708899171032,-22.51687301311115 L13.377425582207566,-22.443232780854586 L13.699575774936278,-22.365132975288326 L14.012662745109887,-22.282694020651768 L14.316203735313387,-22.196043031837664 L14.609730707340969,-22.10531361839018 L14.89279106387696,-22.010645678488675 " />
			<path d="M3.281818254616079,-21.712774730833384 L3.635125876637259,-21.772383325652935 L3.994888928360645,-21.827121109802505 L4.360552681236614,-21.876903681586402 L4.731553308262073,-21.92165427988725 L5.107318753360806,-21.961303902526055 L5.487269613452497,-21.995791412658576 L5.87082003185027,-22.025063633043885 L6.257378601609237,-22.04907542803985 L6.646349277433163,-22.06778977319899 L7.037132294733092,-22.08117781235751 L7.429125094420858,-22.08921890212942 L7.821723252011546,-22.09190064373712 L8.214321409602235,-22.08921890212942 L8.60631420929,-22.08117781235751 L8.99709722658993,-22.06778977319899 L9.386067902413854,-22.04907542803985 L9.772626472172822,-22.02506363304389 L10.156176890570595,-21.995791412658576 L10.536127750662287,-21.96130390252606 L10.91189319576102,-21.92165427988725 L11.282893822786479,-21.876903681586402 L11.648557575662448,-21.827121109802505 L12.008320627385833,-21.77238332565294 L12.361628249407016,-21.712774730833384 L12.70793566698109,-21.64838723747654 L13.046708899171032,-21.57932012643026 L13.377425582207566,-21.505679894173696 L13.699575774936278,-21.427580088607435 L14.012662745109887,-21.345141133970877 L14.316203735313387,-21.258490145156774 L14.609730707340969,-21.16776073170929 L14.89279106387696,-21.073092791807785 " />
			<path d="M3.281818254616085,-22.650327617514275 L-49.09023120681387,-13.368181157719771 " />
			<path d="M3.281818254616085,-21.712774730833384 L-49.09023120681387,-12.43062827103888 " />
			<path d="M-54.55032620941839,-10.268879485114098 L-54.54885038324633,-10.328637965357668 L-54.54442334034276,-10.388378806975409 L-54.537046387416815,-10.4480843765478 L-54.52672170188855,-10.507737051066405 L-54.51345233124617,-10.567319223135566 L-54.49724219214658,-10.626813306169494 L-54.478096069259294,-10.686201739583227 L-54.45601961385416,-10.745466993975896 L-54.431019342133304,-10.804591576304796 L-54.403102633307796,-10.86355803504872 L-54.372277727419544,-10.922348965359056 L-54.33855372290911,-10.980947014197076 L-54.301940573930196,-11.03933488545596 L-54.262449087411504,-11.097495345065996 L-54.220090919866905,-11.155411226081492 L-54.17487857395486,-11.213065433747857 L-54.12682539478804,-11.270440950547366 L-54.07594556599434,-11.327520841222153 L-54.02225410553036,-11.384288257772907 L-53.965766861248596,-11.440726444431817 L-53.906500506219764,-11.496818742608289 L-53.844472533811434,-11.552548595805979 L-53.77970125252462,-11.607899554509705 L-53.71220578058975,-11.662855281040772 L-53.569122752249,-11.771516274951974 L-53.41539236886585,-11.87840329521545 L-53.2511961205055,-11.9833901538139 L-53.07672785295931,-12.08635290601113 L-52.89219353889551,-12.187169996677962 L-52.69781103469328,-12.28572240379704 L-52.4938098232472,-12.3818937789771 L-52.280430743045756,-12.475570584810836 L-52.05792570384373,-12.566642228914201 L-51.82655738926413,-12.655001194488866 L-51.586598946680816,-12.74054316725374 L-51.33833366474781,-12.823167158595684 L-51.08205463895616,-12.902775624794018 L-50.81806442561308,-12.979274582178087 L-50.546674684651904,-13.052573718081918 L-50.268205811694514,-13.12258649746499 L-49.98298655980063,-13.18923026507324 L-49.6913536513506,-13.25242634301969 L-49.3936513805198,-13.312100123669499 L-49.09023120681393,-13.368181157719764 " />
			<path d="M-54.42720961536976,-8.78718063991286 L-54.45601961385416,-8.854739089571408 L-54.48101077896765,-8.92248127278688 L-54.50217347614036,-8.990381073658117 L-54.519499546749664,-9.058412315519348 L-54.53298231126554,-9.126548771031802 L-54.54261657182562,-9.194764172294844 L-54.548398614239034,-9.263032220972748 L-54.55032620941839,-9.331326598433192 " />
			<path d="M-54.55032620941839,-9.331326598433208 L-54.54885038324633,-9.391085078676777 L-54.54442334034276,-9.450825920294518 L-54.537046387416815,-9.51053148986691 L-54.52672170188855,-9.570184164385514 L-54.51345233124617,-9.629766336454676 L-54.49724219214658,-9.689260419488603 L-54.478096069259294,-9.748648852902337 L-54.45601961385416,-9.807914107295005 L-54.431019342133304,-9.867038689623906 L-54.403102633307796,-9.92600514836783 L-54.372277727419544,-9.984796078678166 L-54.33855372290911,-10.043394127516185 L-54.301940573930196,-10.101781998775069 L-54.262449087411504,-10.159942458385105 L-54.220090919866905,-10.217858339400602 L-54.17487857395486,-10.275512547066967 L-54.12682539478804,-10.332888063866475 L-54.07594556599434,-10.389967954541262 L-54.02225410553036,-10.446735371092016 L-53.965766861248596,-10.503173557750927 L-53.906500506219764,-10.559265855927398 L-53.844472533811434,-10.614995709125088 L-53.77970125252462,-10.670346667828815 L-53.71220578058975,-10.72530239435988 L-53.569122752249,-10.833963388271084 L-53.41539236886585,-10.94085040853456 L-53.2511961205055,-11.04583726713301 L-53.07672785295931,-11.14880001933024 L-52.89219353889551,-11.249617109997072 L-52.69781103469328,-11.34816951711615 L-52.4938098232472,-11.444340892296209 L-52.280430743045756,-11.538017698129945 L-52.05792570384373,-11.62908934223331 L-51.82655738926413,-11.717448307807976 L-51.586598946680816,-11.80299028057285 L-51.33833366474781,-11.885614271914793 L-51.08205463895616,-11.965222738113127 L-50.81806442561308,-12.041721695497197 L-50.546674684651904,-12.115020831401027 L-50.268205811694514,-12.1850336107841 L-49.98298655980063,-12.25167737839235 L-49.6913536513506,-12.3148734563388 L-49.3936513805198,-12.374547236988608 L-49.09023120681393,-12.430628271038874 " />
			<path d="M-54.42720961536977,-8.787180639912862 L-50.03348331329983,0.8622891823640746 " />
			<path d="M56.455484841622365,-7.5533636220296625 L56.455484841622365,-6.615810735348772 " />
			<path d="M14.892791063877024,-22.01064567848865 L14.892791063877024,-21.07309279180776 " />
			<path d="M3.281818254616084,-22.650327617514275 L3.281818254616084,-21.712774730833384 " />
			<path d="M-49.09023120681386,-13.368181157719778 L-49.09023120681386,-12.430628271038888 " />
			<path d="M59.38441702975689,-4.1561910017687165 L59.38441702975689,-5.093743888449607 " />
			<path d="M-54.550326209418394,-9.331326598433206 L-54.550326209418394,-10.268879485114097 " />

        </g>
        </g>
    </svg>
    