<?xml version="1.0" encoding="UTF-8" standalone="no"?>
    <svg
    xmlns:svg="http://www.w3.org/2000/svg"
    xmlns="http://www.w3.org/2000/svg"
    width="340"
    height="340"
    >
        <g transform="scale(4, -4)   translate(42.500000048765685,-42.79977434370163)" stroke-width="0.25"  fill="none">
        <!-- hidden lines -->
        <g  stroke="rgb(160,160,160)" fill="none" stroke-dasharray="0.25,0.25" >
    			<path d="M5.360086801636882,22.287372865720172 L5.364497667867136,22.200637173892286 L5.3709567635072455,22.113682620218196 L5.3794619420140295,22.026546557900677 L5.390010170363265,21.93926623416879 L5.4172193388415515,21.764421274369028 L5.452543038786038,21.58944367286932 L5.4959270191195095,21.414627765905635 L5.5473044202201,21.240266310571812 L5.606596086361549,21.06665048183438 L5.67371078936298,20.894069851760786 L5.748545372180931,20.722812352100387 L5.830984818763327,20.55316422062583 L5.9209022540720495,20.385409930911077 L6.018158875767739,20.219832104490525 L6.12260381663742,20.05671140361229 L6.234073934432504,19.896326402067015 L6.352393523371701,19.738953430842034 L6.477373939150325,19.58486639461912 L6.608813126884465,19.43433655440247 L6.746495039005435,19.287632270832074 L6.890188927706894,19.14501870200584 L7.039657958119761,19.006748991115835 L7.194691934128221,18.873038556997106 L7.355026079237657,18.74413852408202 L7.520379613840856,18.62029462532813 L7.690464001641312,18.50174030851255 L7.86498331201806,18.388697188715035 L8.043634515809691,18.281375381419554 L8.226107722615087,18.179973729402235 L8.412086366381155,18.084679933395876 L8.601247344720814,17.995670593343544 L8.793261116077197,17.91311116387612 L8.987791757522995,17.837155824471072 L9.184496984656668,17.76794726157194 L9.383028133730102,17.705616356770506 L9.583030104815101,17.65028177197585 L9.784141263489055,17.602049419316938 L9.98599329719285,17.561011800347654 L10.188211021087026,17.52724719594553 L10.390412407445517,17.500818653536847 L10.59226810433801,17.48176828375896 L10.793435467228928,17.47012938393827 L10.993535080058402,17.465923962134998 L11.192196011137062,17.469157189669822 L11.389055481257515,17.479818427947215 L11.583758603942238,17.49788207245655 L11.775958189472565,17.52330823704186 L11.965314605965094,17.55604329803035 L12.151495692383817,17.59602031430881 L12.334176719997911,17.64315933593622 L12.51304040041703,17.697367610380084 L12.68777693995767,17.758539691962994 L12.858084141716015,17.826557456605236 L12.94148441812682,17.86309307156165 L13.023667558344425,17.9012900204483 L13.104598001439735,17.941129919169036 L13.184240700150603,17.98259355744326 L13.26256113086584,18.025660886952508 L13.339525304760143,18.07031100748726 L13.415099780157279,18.11652215096667 L13.48925167620508,18.164271663190327 L13.561948687952185,18.213535983167255 L13.633159102922821,18.264290619854 L13.7028518785583,18.31651017165835 L13.77100554700673,18.370175480645614 L13.83759710237877,18.425265977923026 L13.90259817159709,18.481755927146647 L13.965981390057877,18.539619130618128 L14.027720371792523,18.598828947710704 L14.087789682209218,18.659358311820142 L14.14616481324777,18.72117974593691 L14.202822160791047,18.784265376930747 L14.257739004186512,18.84858694863367 L14.310893487741362,18.914115833802324 L14.362264604064801,18.98082304503527 L14.411832179141056,19.048679244715803 L14.459576859026809,19.117654754045695 L14.505480098076697,19.187719561229972 L14.549524148610674,19.25884332886785 " />
			<path d="M14.549524148610681,19.25884332886786 L14.59915864668442,19.34422656515116 L14.64614590941355,19.430994991477903 L14.690460855940511,19.519096835644312 L14.732079904185076,19.60847973706726 L14.770980962661588,19.69909075555985 L14.80714342536625,19.790876378576396 L14.840548169703833,19.883782526976937 L14.871177557461394,19.97775455934203 L14.899015438874905,20.07273727484874 L14.9240471598729,20.168674914699118 L14.946259572619537,20.265511162072883 L14.96564104951771,20.36318914055625 L14.982181500871112,20.461651410979265 L14.995872396442413,20.560839966574353 L15.006706791182951,20.660696226349057 L15.014679355447617,20.761161026546404 L15.019786410046851,20.862174610046537 L15.022025966525943,20.963676613543733 L15.021397760366629,21.065606682467312 L15.017902499931033,21.167919341564936 L15.011541593658606,21.270560021413644 L15.002318164399641,21.373467338990643 L14.990237050467204,21.47658011438849 L14.975304757752761,21.57983736702931 L14.957529417480762,21.6831783128076 L14.93692074917266,21.78654236208454 L14.913490028426818,21.88986911846626 L14.887250059156736,21.993098378308066 L14.85821514996596,22.0961701308962 L14.826401094374052,22.199024559268242 L14.791825154643968,22.30160204164278 L14.754506048997108,22.403843153438533 L14.714463942038366,22.505688669872626 L14.671720438249388,22.607079569137372 L14.626298578444272,22.707957036164267 L14.578222839117913,22.808262466993614 L14.527519134653135,22.907937473777665 L14.474214822388758,23.00692389045472 L14.418338710586706,23.105163779141137 L14.359921069372215,23.202599437297845 L14.298993644757234,23.299173405737335 L14.235589675892982,23.394828477546813 L14.169743915733699,23.489507708012667 L14.101492655329533,23.583154425640878 L14.030873752002506,23.67571224437768 L13.957926661695469,23.767125077144236 L13.882692475819901,23.85733715080862 L13.805213962964439,23.946293022728014 L13.725535615861947,24.03393759900351 L13.643703704048892,24.120216154599454 L13.559766332686824,24.20507435548887 L13.473773508051679,24.288458282995947 L13.385770428368902,24.37032064325244 L13.295794097818867,24.450622587470793 L13.203898942895329,24.529310612816776 L13.110141241882715,24.606332043267706 L13.014578286650979,24.68163574151427 L12.917268350041187,24.75517206556013 L12.818270656663508,24.826892831313017 L12.717645356850646,24.89675128071531 L12.615453503529782,24.964702055009337 L12.511757031795966,25.03070117277986 L12.406618740990059,25.094706012463384 L12.300102279104106,25.15667529906113 L12.192272129357095,25.216569094839926 L12.083193598804064,25.274348793852127 L11.972932808861389,25.329977120153277 L11.861556687651147,25.38341812964321 L11.749132964087396,25.434637215503535 L11.635730163647198,25.483601117251794 L11.521417605789129,25.530277933479613 L11.406265403002115,25.57463713838955 L11.290344461487285,25.616649602292505 L11.173726483495571,25.656287616274696 L11.05648397136374,25.693524921290585 L10.938690233311561,25.72833674198523 L10.820419391082718,25.760699825596777 L10.70174638953207,25.79059248633708 L10.58274700828191,25.817994655695646 L10.463497875589736,25.842887939159226 L10.34407648459012,25.865255679886726 L10.224561212093162,25.885083029926253 L10.105031340142027,25.902357029608353 L9.985565839295296,25.91706683540667 L9.866219923883799,25.929205827200345 L9.747063923204923,25.9387663691605 L9.628177322184039,25.94574171657574 L9.509638511277982,25.9501272908125 L9.391524816745306,25.95192058944238 L9.273912527339675,25.951121105625518 L9.156876917694293,25.94773025603677 L9.040492268641126,25.9417513166738 L8.924831884684735,25.9331893659384 L8.809968108826482,25.922051234434974 L8.695972334910847,25.908345460982197 L8.582915017641671,25.892082254386448 L8.470865680391993,25.873273460577842 L8.359892920907207,25.85193253476206 L8.25006441497726,25.82807451829362 L8.141446918129567,25.80171602002843 L8.034106265370319,25.77287520196604 L7.928107368977813,25.74157176904413 L7.823514214327474,25.7078269630003 L7.7203898537041855,25.671663560268545 L7.618796398033536,25.633105873930106 L7.518795006439575,25.5921797597908 L7.4204458735126435,25.548912626709264 L7.323808214146879,25.503333451352937 L7.228940245782921,25.455472797610913 L7.135899167867342,25.405362840945173 L7.044741138316327,25.353037398014123 L6.955521246747143,25.29853196195461 L6.868293484216824,25.24188374376106 L6.783110709183596,25.183131720252643 L6.70002460938246,25.12231668917179 L6.619079561801518,25.05947644775748 L6.540310173687309,24.994642378526276 L6.463762081542274,24.92785595199131 L6.3894795954759545,24.859159929940848 L6.317505222061976,24.788597929387755 L6.247879712944966,24.716214390045327 L6.1806421094894874,24.64205454447648 L6.115829783517295,24.56616439083607 L6.053478474179195,24.48859066812619 L5.993622321007778,24.40938083388423 L5.9362938931973,24.32858304422355 L5.881524215157012,24.246246136146485 L5.829342788384222,24.162419612049675 " />
			<path d="M5.829342788384207,24.16241961204965 L5.768745564760602,24.057335219666694 L5.712156055527531,23.95016742179198 L5.6596199002950005,23.84101234149428 L5.611179374627981,23.72996752376728 L5.56687339626455,23.617131922148445 L5.526737519656162,23.502605891074317 L5.4908039190272655,23.386491183630383 L5.459101360151519,23.268890954353868 L5.431655161041844,23.149909766747665 L5.40848714175155,23.029653605163663 L5.389615563483762,22.908229890713724 L5.375055057206401,22.78574750086655 L5.364816530606934,22.662316629943415 L5.358906784390325,22.53804019363164 L5.357329864944291,22.413022653728337 L5.360086801636884,22.28737286572024 " />
			<path d="M-24.30328796780175,18.747935306124987 L-24.32047408697635,18.602523271427213 L-24.34167374779322,18.455451008478388 L-24.36686454813867,18.306887103323486 L-24.396019677238176,18.157000662813367 L-24.429108069217452,18.005961289026708 L-24.466094530438372,17.853939053963693 L-24.506939843268448,17.701104474509247 L-24.55160084859756,17.547628487614332 L-24.600030509070702,17.393682425594115 L-24.65217795466058,17.239437991392233 L-24.7079885118589,17.085067233610967 L-24.767403717420297,16.930742521057407 L-24.830361317247863,16.776636516506247 L-24.896795250664336,16.62292214933026 L-24.966635619967978,16.469772586599905 L-25.039808644827325,16.317361202204026 L-25.116236600723962,16.165861543493964 L-25.1958377403076,16.015447294903957 L-25.278526196182696,15.866292237950981 L-25.364211863301,15.718570206967822 L-25.452800258789438,15.572455039873413 L-25.544192356697707,15.428120523235073 L-25.638284394805194,15.28574033082763 L-25.734968803657054,15.145486315981948 L-25.83415685920257,15.007497530789113 L-25.935740764730113,14.87193592877963 L-26.039599991312016,14.73897368275122 L-26.145611825592304,14.608777934880496 L-26.25365146407288,14.481510972346314 L-26.36359209426611,14.357330366788478 L-26.475304964082746,14.236389081195604 L-26.588659440679113,14.11883554721584 L-26.703523059842638,14.004813715284048 L-26.819761566849557,13.894463079358948 L-26.93723894958383,13.787918677463628 L-27.055817464561198,13.685311068622706 L-27.175357656357324,13.586766286189357 L-27.295718370793956,13.492405766955288 L-27.416756762092056,13.402346254836646 L-27.538328294055813,13.316699677328765 L-27.660286735206483,13.23557299232255 L-27.78248414763997,13.159068002275156 L-27.90477086923707,13.087281132127558 L-28.026995488710252,13.020303166761533 L-28.149004812825968,12.958218943188383 L-28.2706438249963,12.901106992061708 L-28.39177016645042,12.849033161141431 L-28.51226200222641,12.802050092692 L-28.631966421097065,12.760218255448729 L-28.75073233903411,12.723590010881479 L-28.86841198095234,12.692209354165762 L-28.984860765448595,12.666112315770947 L-29.099937209781814,12.645327302528298 L-29.21350285310363,12.629875384504196 L-29.325422196244684,12.619770533213162 L-29.43556265665803,12.615019815914517 L-29.543794537416872,12.615623549945768 L-29.64999100945979,12.621575420255052 L-29.75402810657266,12.632862562504199 L-29.855784732892417,12.649465613323244 L-29.95514268301369,12.671358728506428 L-30.051986675075476,12.698509569148989 L-30.146204397500757,12.73087925493329 L-30.237686570358136,12.768422282982058 " />
			<path d="M-30.237686570358147,12.76842228298206 L-30.301851955435435,12.798653310881846 L-30.3645030171371,12.831521842834205 L-30.425601941276476,12.86700422233402 L-30.485111823028,12.90507485151138 L-30.542996694542808,12.945706139518164 L-30.599221555965542,12.988868443203447 L-30.653752950069624,13.034530471411978 L-30.706567954274732,13.082667921724399 L-30.757638785365792,13.133251355937068 L-30.80693541736065,13.186246971209561 L-30.85442929072704,13.24161968097104 L-30.90009326285282,13.2993331686676 L-30.943901563630476,13.359349936289245 L-30.985829755765444,13.421631348079412 L-31.025854699446807,13.48613766980235 L-31.063954521048256,13.552828103915907 L-31.10010858555625,13.621660820969602 L-31.13429747245153,13.692592987520193 L-31.16650295479936,13.765580790829214 L-31.196707981332935,13.840579460579296 L-31.22489666134366,13.917543287818411 L-31.251054252221117,13.996425641313415 L-31.27516714951474,14.077178981466648 L-31.29722287941839,14.159754871921649 L-31.31721009360813,14.244103988956278 L-31.33511856639279,14.330176128733962 L-31.35093919416597,14.417920212455977 L-31.364663997177335,14.507284289430071 L-31.376286123670273,14.598215538042993 L-31.385799856462082,14.690660264596815 L-31.3932006220721,14.784563899941247 L-31.39848500253228,14.879870993806458 L-31.401650750043935,14.976525206713179 L-31.402696804673603,15.074469299309266 L-31.401623315309962,15.173645118954093 L-31.398431664133163,15.273993583344556 L-31.393124494876876,15.375454660948703 L-31.38570574519267,15.477967347985356 L-31.364551486148283,15.685935467486903 L-31.335012915351882,15.897457393989647 L-31.297156422567337,16.112032047912827 L-31.251067396369145,16.329155293896644 L-31.196849297931873,16.548320941839957 L-31.13462301323448,16.76902091414877 L-31.064526386833556,16.990745403142466 L-30.98671391443206,17.212983021394535 L-30.901356577930404,17.43522094835755 L-30.808641813106803,17.656945077194777 L-30.708773606534002,17.8776401663138 L-30.601972724799626,18.0967900006701 L-30.48847708555755,18.313877568481626 L-30.36854228639782,18.528385259567894 L-30.242442313982863,18.739795092100223 L-30.110470462357814,18.947588975122315 L-29.972939886015443,19.1512498910995 L-29.830138704576438,19.35032475620212 L-29.682390932186056,19.544331242546416 L-29.530061224934034,19.73276206974234 L-29.373523537573696,19.915130653296966 L-29.21316058584284,20.090970241971732 L-29.049363414622423,20.259833339818066 L-28.882531056873805,20.421291378017845 L-28.7130702710402,20.574934612800735 L-28.541395347343098,20.72037223685586 L-28.36792797614923,20.857232702800882 L-28.280655905175543,20.922335788640467 L-28.193097174328702,20.985164268416995 L-28.105306552689868,21.045677398061382 L-28.017339268269975,21.103835784503936 L-27.92925101070469,21.159601425927356 L-27.841097934962107,21.212937757354535 L-27.75293666612248,21.263809702017074 L-27.664824305299923,21.31218372899395 L-27.576818436786837,21.35802791765334 L-27.48897713651253,21.401312029474138 L-27.40135898191813,21.44200758786716 L-27.314015144437843,21.480091307806607 L-27.22698627590663,21.515545296654892 L-27.14033004331231,21.548345525783382 L-27.054103900314235,21.578470082698807 L-26.968364345299243,21.605899416722906 L-26.883166948804618,21.630616247233732 L-26.79856637777067,21.652605481582818 L-26.714616416861322,21.671854141942607 L-26.63136998706964,21.6883513003963 L-26.548879161803836,21.70208802164005 L-26.467195180627797,21.713057312725176 L-26.38636846080868,21.721254079325774 L-26.306448606802714,21.72667508807504 L-26.227484417788894,21.729318934571157 L-26.14952389333876,21.729186016711484 L-26.072614237288995,21.72627851307157 L-25.996801859862178,21.72060036610316 L-25.92213237805947,21.71215726998326 L-25.848650614327656,21.70095666300393 L-25.776400593481466,21.687007724450424 L-25.705425537840565,21.670321375972854 L-25.635767860519294,21.650910287514478 L-25.56746915678569,21.628788887917384 L-25.500570193384835,21.603973380384126 L-25.435110895700213,21.576481763031627 " />
			<path d="M-25.4351108957002,21.57648176303162 L-25.35697928198857,21.5392054783858 L-25.28113444317489,21.497987197968524 L-25.20764428397665,21.452871363737632 L-25.136574620479664,21.40390681760228 L-25.067989102583883,21.35114695526544 L-25.00194653549529,21.294647567058195 L-24.938490324182343,21.23445537213742 L-24.877673021181778,21.17062846998645 L-24.819546454233592,21.103229819547835 L-24.764159401232305,21.03232512324287 L-24.711557691443538,20.957982713005197 L-24.661784296410044,20.880273447989783 L-24.61487941071131,20.799270623584253 L-24.57088052274075,20.71504989134948 L-24.52982247566467,20.627689189516403 L-24.491737518726996,20.537268683666007 L-24.45665534906394,20.443870717219394 L-24.424603144192606,20.347579771364884 L-24.395605585337698,20.248482434049098 L-24.36968487176036,20.14666737765895 L-24.34686072625327,20.0422253450215 L-24.32715039196607,19.9352491433486 L-24.310568620725196,19.825833645753246 L-24.297127653012218,19.714075799964657 L-24.286837189764768,19.60007464386891 L-24.279704356164157,19.483931327502148 L-24.27573365757374,19.365749141123302 L-24.274926927792134,19.245633548993187 L-24.277283275256046,19.123692037262973 L-24.282799489495897,19.000025499503362 L-24.29147029866775,18.874737208184445 L-24.30328796780174,18.747935306125044 " />
			<path d="M39.32263298445608,7.163553379113516 L39.3613558691871,6.86881403175352 L39.39386153429184,6.585321044622386 L39.4199944830142,6.3143975740805836 L39.439629623868036,6.057298436726906 L39.4526709623056,5.815212684268131 L39.45905086897137,5.589264732564748 L39.458729842195034,5.380514233542634 L39.45169672721502,5.189954758181955 L39.44566755982307,5.101788474613645 L39.43796939946074,5.0185112383159955 L39.428609212984675,4.940227290214134 L39.417595964059245,4.8670359944940085 L39.40494068615244,4.799031615295761 L39.39065656856918,4.736303056683571 L39.37475905706791,4.678933561483397 L39.35726533181845,4.626998642565381 L39.33819017658614,4.5805578314413795 L39.31755397582564,4.539678005593169 L39.295380231525876,4.504420718431398 L39.27169441696571,4.474839133894452 L39.246523895754414,4.450978336723418 L39.219897854147995,4.432875585096518 L39.191847245306406,4.420560511399465 L39.16240474434819,4.414055276003641 " />
			<path d="M39.16240474434819,4.414055276003642 L39.140516428723224,4.412974664252509 L39.117947002640584,4.414875708815442 L39.09470998284845,4.4197596347868195 L39.070819314300316,4.4276257711738145 L39.046289368836554,4.438471548282433 L39.02113494492437,4.452292490275143 L38.99537126845662,4.469082202846804 L38.969013994623225,4.4888323559037495 L38.91458344106622,4.5371708437753355 L38.85797725350234,4.597201604788965 L38.799336583683726,4.668785285663256 L38.73881004296884,4.751747930602462 L38.67655407823183,4.845878897807984 L38.6127318824517,4.9509309113713424 L38.54748759693491,5.066666193583183 L38.480984457121004,5.192795933272176 L38.41339598995032,5.328988706034386 L38.344895791245165,5.474888671543936 L38.275657399014555,5.630117406918102 L38.205854187067615,5.794275362868736 L38.135659275195046,5.966942998644696 L38.06524545250409,6.1476816410529445 L37.99478511081847,6.336034102128801 L37.924450185380934,6.531525079308815 L37.85441210042182,6.733661351242568 L37.784841717483424,6.941931771662693 L37.71590928471587,7.155807053015218 L37.64778438568609,7.374739320835335 L37.580635886567805,7.598161409136533 L37.51462533037407,7.825508809198785 L37.44988998419985,8.056283591895617 L37.386582441953266,8.289918984154 L37.32485157281442,8.525841787918594 L37.26484017038296,8.763481712885419 L37.20668523505357,9.002271531058074 L37.150518192913545,9.241647222060822 L37.09646505940474,9.481048112927809 L37.04464655397161,9.719917016316781 L36.99517816989711,9.95770037132463 L36.9481702015084,10.193848391311167 L36.903727728913665,10.427815223366657 L36.86195055841178,10.659059124287523 L36.822933114696156,10.887042658153826 L36.786764278954124,11.111232920831094 L36.75352716494306,11.331101796948134 L36.723294162986726,11.54616074533519 L36.696129168642734,11.755955868466534 L36.67209821520218,11.959986416511423 L36.65125972168649,12.157768667725971 L36.63366464057981,12.348836556838373 L36.61935671300255,12.532741141031682 L36.60837264179077,12.709050260040273 L36.60074219231332,12.87734836779853 L36.59648822783632,13.037236520965559 L36.59562668322253,13.188332517535109 L36.59816647773099,13.330271186625252 L36.60410936466024,13.462704838427591 L36.61344971255621,13.585303891181253 L36.62617420968391,13.697757699922164 L36.64226148043977,13.799775619643436 L36.66168159935942,13.89108834338811 L36.68439554030999,13.971449732778613 L36.71036295013256,14.04065836809461 L36.72455172164127,14.071020031645483 L36.73953372812585,14.09852145455437 L36.75530069913566,14.12314154850575 L36.77184385127534,14.144861362322075 L36.78915390083296,14.163664029034726 L36.80722107470582,14.179534720425506 L36.82603511975055,14.192460608496848 L36.84558531067006,14.20243083339083 L36.865860456537796,14.209436477339032 L36.886848906045785,14.21347054428721 " />
			<path d="M36.886848906045785,14.21347054428721 L36.91519892823736,14.214263077301698 L36.944707654325796,14.210012348470968 L36.97534599228336,14.200717374327548 L37.007083558537744,14.186382597349791 L37.03988867400317,14.167017917509034 L37.07372835508517,14.142638747641968 L37.10856829953947,14.113266093547573 L37.144372866957845,14.078926660215624 L37.18110505354605,14.039652986101645 L37.218726460751164,13.99548360787094 L37.257197257188146,13.94646325854205 L37.29647613320752,13.89264310246791 L37.37728516373414,13.770841883993349 L37.460802875523505,13.630609066824169 L37.546699459839054,13.472498440606683 L37.63459701260353,13.2972057925295 L37.7241100414002,13.105508162807096 L37.81485201167178,12.89824715709853 L37.90643583583317,12.676323630862305 L37.998474295348316,12.440693880769103 L38.09058041639561,12.19236708517522 L38.18236781693748,11.932403824310049 L38.273451040201,11.66191559948142 L38.36344588676793,11.382065359253069 L38.451969754663494,11.094069129198974 L38.53864859458955,10.799175957338711 L38.62315599520398,10.498526369747244 L38.7051531766276,10.193350125950516 L38.784311266371105,9.884895936789876 L38.860317924321805,9.574405939595778 L38.93287674721424,9.263115088474722 L39.00170688664722,8.952250634530275 L39.06654288017434,8.643031648186309 L39.127134694995064,8.33666853578062 L39.18324798377367,8.034362502597087 L39.23466455211303,7.737304914504518 L39.28118431404474,7.44666824790158 L39.32263298445607,7.163553379113577 " />
			<path d="M-4.8765695305162645e-08,0.29977434370161465 L0.5504598403096891,0.5584848068055439 L1.0975788061224048,0.8427967695725117 L1.6380362025788706,1.150984648596507 L2.1685518148548324,1.481177949633104 L2.6859057681048406,1.8313726202481373 L3.1869580699484352,2.1994432130752517 L3.668667668123196,2.5831557858594585 L4.128110907637484,2.9801814599920995 L4.5624992754002776,3.3881105552459463 L4.969196324630088,3.804467214922083 L5.3457336763231105,4.2267244326436835 L5.689826000662401,4.6523193895941315 L5.999384887440958,5.078669009112676 L6.272531521314489,5.503185634241634 " />
			<path d="M6.272531521314504,5.503185634241658 L6.599361204066283,6.1076650358148665 L6.842740095591273,6.695313498271966 L6.999590600909056,7.258700040450314 L7.067929300977758,7.7907004800374 L7.0468920335893,8.28458752087293 L6.936744820945158,8.73411582151319 L6.73888050573032,9.133600969341552 L6.455801138223231,9.4779913615752 L6.0910863371617365,9.762932084212345 L5.649348024450801,9.9848199811526 L5.136172106104448,10.140849217125869 L4.558047836882924,10.229046758273626 L3.9222857618292455,10.248297321720596 L3.2369252723576576,10.19835747864243 " />
			<path d="M3.2369252723576034,10.198357478642427 L3.0215834815265272,10.16975893374503 L2.8027566183163004,10.1349400275869 L2.580697076032996,10.093940920040135 L2.355660976531125,10.046808899175987 L2.1279078748045595,9.993598326723156 L1.8977004596176947,9.934370575367332 L1.6653042505221511,9.869193957964438 L1.4309872916084583,9.79814364874904 L1.1950198423459613,9.721301596628951 L0.95767406586752,9.63875643066596 L0.719223715058541,9.550603357851715 L0.4799438168123969,9.456944053296668 L0.2401103548164176,9.357886542958767 L-4.876563075573159e-08,9.2535450790471 " />
			<path d="M-4.8765664567928484e-08,9.253545079047113 L-0.11328396226411169,9.437522902971498 L-0.22635074546832779,9.612567290850919 L-0.3389836842558331,9.778342736625683 L-0.45096689604997775,9.93453149993703 L-0.5620857436002037,10.080834215137301 L-0.6721272463753997,10.216970465081495 L-0.7808804887818395,10.342679318600366 L-0.8881370244232691,10.457719830624931 L-0.9936912756283072,10.561871504003806 L-1.0973409274793822,10.654934712128172 L-1.1988873155879847,10.736731081554368 L-1.2981358068729707,10.807103833890725 L-1.3948961726121032,10.865918086293341 L-1.488982953051788,10.913061109994862 " />
			<path d="M-1.4889829530517975,10.913061109994867 L-1.560379735480697,10.941664941518862 L-1.6299577869982191,10.963083031215834 L-1.6976360095523173,10.977290414814513 L-1.7633355194735656,10.984270532622439 L-1.8269797394195537,10.984015248827463 L-1.8884944876311067,10.976524860980577 L-1.9478080643962663,10.961808099649112 L-2.0048513356212974,10.939882118240648 L-2.059557813411268,10.910772473009533 L-2.111863733566313,10.874513093269288 L-2.1617081299032392,10.831146241845635 L-2.20903290531584,10.780722465816238 L-2.2537828994911195,10.723300537594579 L-2.2959059532024475,10.658947386426634 " />
			<path d="M-2.295905953202453,10.658947386426625 L-2.335500243046386,10.587449476361767 L-2.372351254997901,10.509126214220807 L-2.406415703868394,10.424069598486136 L-2.437653577565496,10.33237953663544 L-2.466028184091263,10.234163727790406 L-2.4915061946405945,10.129537536213373 L-2.514057682749238,10.018623855800477 L-2.5336561594453975,9.901552965730545 L-2.550278604363682,9.778462377439178 L-2.563905492784816,9.649496673097875 L-2.574520818569369,9.514807335787852 L-2.5821121129585647,9.374552571568042 L-2.586670459220079,9.22889712364632 L-2.5881905031216337,9.07801207887219 " />
			<path d="M-2.5881905031216337,9.07801207887217 L-2.5719165047883292,8.549713953244096 L-2.5232991647598553,7.973967481347451 L-2.442949874295504,7.358013009122213 L-2.33187907234261,6.709596521441727 L-2.1914835386805116,6.036872231858582 L-2.0235288286043955,5.348300038638015 L-1.8301270700430616,4.652539136628662 L-1.6137104023247337,3.9583391228631735 L-1.3770003906138435,3.2744299652988764 L-1.1229738006500045,2.6094122184054807 L-0.8548251641916722,1.9716488662024547 L-0.5759266059257733,1.3691601528826662 L-0.2897854370432136,0.8095227235882081 L-4.8765688098750815e-08,0.2997743437016961 " />
			<path d="M-9.65925831254881,5.929203603230376 L-9.629711493223246,6.275576572464958 L-9.541251797476619,6.612779432676832 L-9.394420406127677,6.9387492362328285 L-9.19011560773502,7.251491757359445 L-8.929587303026144,7.549093692464461 L-8.614429358225186,7.829734365390896 L-8.246569854060443,8.09169686599267 L-7.828259290106509,8.333378553888092 L-7.3620568166247375,8.553300863131096 L-6.8508145781332495,8.750118347816954 L-6.297660264489755,8.922626913283048 L-5.7059779762365626,9.06977118254768 L-5.079387521270244,9.190650952920329 L-4.421722269495308,9.284526703282957 " />
			<path d="M-4.421722269495289,9.284526703282959 L-4.12755991259561,9.316722256537187 L-3.82863685828994,9.343681334805016 L-3.525297882246269,9.365372843682444 L-3.2178928534244724,9.381771764341524 L-2.906776330540012,9.392859182386923 L-2.592307153118494,9.398622309671628 L-2.274848027612789,9.399054499046718 L-1.954765109060052,9.394155252028122 L-1.6324275787611797,9.383930219371571 L-1.3082072184697924,9.368391194555072 L-0.9824779815818752,9.34755610017637 L-0.6556155618206603,9.321448967281178 L-0.3279969599142316,9.290099907645935 L-4.876566939149285e-08,9.253545079047104 " />
			<path d="M-4.876564560741735e-08,0.29977434370164474 L-0.4227813691154319,0.35451106685926037 L-0.8447523481762629,0.41772368396030496 L-1.2651041978333026,0.4892910359299691 L-1.6830312333429958,0.5690759502456019 L-2.0977324175820278,0.6569255038540938 L-2.50841289638823,0.7526713162781649 L-2.9142855220506547,0.8561298723497683 L-3.3145723620287666,0.9671028739520147 L-3.7085061900089915,1.0853776200954588 L-4.095331956440738,1.210727414600239 L-4.474308235733322,1.3429120006026745 L-4.844708647339958,1.4816780210535176 L-5.205823248005059,1.6267595043252092 L-5.556959892506212,1.7778783739973463 " />
			<path d="M-5.556959892506283,1.777878373997377 L-6.084075617650416,2.0254123836048947 L-6.58272424601574,2.2858193470499026 L-7.050572624668575,2.5578808326830336 L-7.485431713561318,2.840323877906499 L-7.885266827945483,3.1318269453048226 L-8.248207158563712,3.431026106054799 L-8.572554525076251,3.7365214216828235 L-8.856791321765039,4.046883494309631 L-9.099587618337821,4.360660154734181 L-9.299807382607973,4.676383257063459 L-9.45651379593445,4.992575548096459 L-9.568973636551092,5.307757579320806 L-9.636660710276008,5.620454629181154 L-9.659258312548806,5.929203603230335 " />
			<path d="M-4.876569357325053e-08,9.253545079047074 L-0.5504599378436436,8.994834615941876 L-1.0975789036588781,8.710522653173406 L-1.6380363001177698,8.402334774147704 L-2.168551912396018,8.072141473109223 L-2.6859058656481323,7.721946802492157 L-3.1869581674936076,7.353876209662893 L-3.6686677656699866,6.970163636876452 L-4.128111005185591,6.573137962741534 L-4.5624993729493655,6.165208867485397 L-4.96919642217979,5.748852207806998 L-5.345733773873033,5.3265949900831995 L-5.68982609821213,4.901000033130652 L-5.999384984990059,4.474650413610149 L-6.272531618862479,4.050133788479462 " />
			<path d="M-6.27253161886251,4.050133788479414 L-6.380705230227467,3.864662879516281 L-6.481384067023407,3.680263201783561 L-6.574449871916037,3.497151351092515 L-6.659793329836266,3.3155424105731135 L-6.737314196381658,3.1356496980374486 L-6.806921415563471,2.9576845154166915 L-6.868533226761005,2.7818559005658954 L-6.922077260757603,2.608370381728195 L-6.967490624745507,2.437431734946788 L-7.004719976199741,2.269240744709646 L-7.0337215855342246,2.103994968108111 L-7.054461387466526,1.941888502786394 L-7.066915021030946,1.7831117589545253 L-7.071067858192886,1.6278512357326018 " />
			<path d="M2.5881904055903044,0.4753073438766 L2.571916407257,1.0036054695046728 L2.523299067228526,1.5793519414013177 L2.442949776764175,2.1953064136265565 L2.3318789748112807,2.843722901307042 L2.1914834411491824,3.5164471908901858 L2.023528731073066,4.205019384110754 L1.8301269725117324,4.900780286120106 L1.6137103047934032,5.594980299885597 L1.3770002930825136,6.278889457449893 L1.1229737031186748,6.943907204343289 L0.8548250666603423,7.581670556546314 L0.5759265083944433,8.184159269866104 L0.2897853395118838,8.74379669916056 L-4.876565889988527e-08,9.253545079047102 " />
			<path d="M-4.8765665201852316e-08,0.2997743437016559 L0.1132838647323427,0.11579651977796612 L0.22635064793612214,-0.05924786810082694 L0.33898358672319584,-0.22502331387504126 L0.45096679851691646,-0.38121207718591466 L0.562085646066728,-0.5275147923857945 L0.6721271488415225,-0.6636510423296804 L0.7808803912475757,-0.7893598958483263 L0.8881369268886357,-0.9044004078727592 L0.9936911780933237,-1.0085520812515933 L1.097340829944071,-1.1016152893760103 L1.1988872180523689,-1.1834116588023529 L1.2981357093370756,-1.253784411138948 L1.3948960750759583,-1.3125986635418982 L1.488982855515423,-1.3597416872438497 " />
			<path d="M1.488982855515442,-1.3597416872438592 L1.560379637944401,-1.3883455187683305 L1.6299576894619938,-1.4097636084657963 L1.6976359120161697,-1.4239709920649788 L1.763335421937506,-1.4309511098734267 L1.8269796418835913,-1.4306958260789817 L1.8884943900952487,-1.4232054382326413 L1.9478079668605237,-1.4084886769017326 L2.0048512380856804,-1.386562695493839 L2.0595577158757843,-1.357453050263304 L2.1118636360309737,-1.3211936705236476 L2.1617080323680504,-1.277826819100591 L2.209032807780813,-1.227403043071802 L2.253782801956262,-1.1699811148507568 L2.295905855667762,-1.1056279636834423 " />
			<path d="M2.295905855667773,-1.1056279636834256 L2.335500145512151,-1.0341300536186915 L2.3723511574640845,-0.9558067914777704 L2.4064156063349658,-0.8707501757430496 L2.437653480032423,-0.7790601138922209 L2.466028086558516,-0.6808443050469752 L2.4915060971081426,-0.5762181134696438 L2.514057585217046,-0.46530443305637403 L2.5336560619134327,-0.34823354298598774 L2.5502785068319116,-0.2251429546940944 L2.563905395253203,-0.09617725035219138 L2.5745207210378793,0.038512086958505165 L2.582112015427163,0.178766851179053 L2.5866703616887308,0.32442229910158105 L2.588190405590304,0.47530734387656004 " />
			<path d="M-7.071067858192887,1.6278512357325607 L-7.049438085254033,1.2875846638399597 L-6.984681093573907,0.9686636377909941 L-6.877193055007735,0.6730392601814188 L-6.7276315624199885,0.4025201088201906 L-6.536911606647199,0.15876117216938113 L-6.306199978745388,-0.056746275583387185 L-6.036908131768143,-0.24268379787742456 L-5.730683545745744,-0.3979138617413551 L-5.389399648692876,-0.5214867970192267 L-5.015144355306414,-0.6126466062850546 L-4.610207293471504,-0.6708355899017513 L-4.17706579672194,-0.6956977579291563 L-3.718369748350481,-0.6870810080077137 L-3.2369253698901916,-0.645038055893883 " />
			<path d="M-3.236925369890178,-0.6450380558938817 L-3.021583579059035,-0.6164395109965077 L-2.8027567158487376,-0.5816206048383917 L-2.5806971735653583,-0.5406214972916374 L-2.3556610740634096,-0.4934894764274995 L-2.1279079723367627,-0.44027890397466585 L-1.8977005571498144,-0.38105115261884215 L-1.665304348054184,-0.31587453521593944 L-1.4309873891404021,-0.2448242260005279 L-1.1950199398778143,-0.16798217388042153 L-0.9576741633992808,-0.08543700791740688 L-0.7192238125902078,0.0027160648968681533 L-0.4799439143439691,0.09637536945194516 L-0.24011045234789435,0.1954328797898834 L-4.876571102485627e-08,0.2997743437016078 " />
			<path d="M-4.876564797325329e-08,9.253545079047102 L0.4227812715866025,9.198808355889144 L0.8447522506498835,9.135595738787655 L1.2651041003093448,9.064028386817453 L1.683031135821417,8.98424347250119 L2.0977323200627724,8.896393918891976 L2.5084127988712277,8.800648106467095 L2.914285424535822,8.697189550394599 L3.3145722645160065,8.586216548791384 L3.7085060924981947,8.467941802646891 L4.095331858931783,8.342592008140995 L4.474308138226073,8.21040742213738 L4.8447085498342695,8.071641401685294 L5.205823150500773,7.9265599184123054 L5.556959795003234,7.7754410487387915 " />
			<path d="M5.556959795003269,7.775441048738776 L6.084075520144061,7.527907039131503 L6.58272414850614,7.267500075686892 L7.050572527155856,6.995438590054304 L7.485431616045641,6.71299554483151 L7.885266730427036,6.421492477433977 L8.24820706104271,6.1222933166848925 L8.572554427552934,5.816798001057853 L8.856791224239668,5.506435928432102 L9.099587520810678,5.192659268008668 L9.29980728507936,4.876936165680546 L9.456513698404674,4.560743874648729 L9.568973539020478,4.245561843425575 L9.636660612744885,3.932864793566412 L9.659258215017513,3.6241158195183925 " />
			<path d="M9.659258215017514,3.6241158195183725 L9.629711395692015,3.277742850284153 L9.541251699945576,2.9405399900726192 L9.39442030859694,2.6145701865169366 L9.190115510204713,2.301827665390598 L8.929587205496377,2.004225730285821 L8.614429260696063,1.7235850573595783 L8.246569756532068,1.4616225567579475 L7.82825919257897,1.2199408688626145 L7.36205671909811,1.0000185596196416 L6.850814480607603,0.8032010749337535 L6.297660166965143,0.6306925094675657 L5.705977878713023,0.483548240202774 L5.079387423747807,0.3626684698298993 L4.421722171974029,0.26879271946698813 " />
			<path d="M4.421722171973954,0.26879271946697747 L4.127559815073721,0.23659716621249927 L3.8286367607674623,0.20963808794444216 L3.52529778472317,0.18794657906681544 L3.217892755900724,0.1715476584075583 L2.906776233015586,0.1604602403620098 L2.592307055593367,0.15469711307717873 L2.2748479300869393,0.15426492370199044 L1.954765011533461,0.15916417072051536 L1.6324274812338304,0.1693892033770175 L1.3082071209416717,0.18492822819349827 L0.9824778840529712,0.20576332257220528 L0.6556154642909651,0.23187045546742796 L0.3279968623837396,0.2632195151027288 L-4.876555992350262e-08,0.2997743437016352 " />
			<path d="M5.829342775255405,24.162419625979894 L-2.2959059538802222,10.658947385300223 " />
			<path d="M14.549524146708187,19.258843322914537 L6.2725315206469645,5.503185633132276 " />
			<path d="M-1.4889829696637946,10.913061117392303 L-25.43511090157105,21.576481766005514 " />
			<path d="M-5.556959909163908,1.7778783814151282 L-30.23768656466187,12.768422280177873 " />
			<path d="M-6.2725316181249084,4.050133789705228 L-14.397780347293597,-9.453338451029381 " />
			<path d="M2.2959058564130075,-1.1056279624448848 L-5.981086769732713,-14.861285652367584 " />
			<path d="M29.50308774348248,-2.8879796072541097 L5.556959811844067,7.7754410412393895 " />
			<path d="M26.169709527687687,-12.350285593431849 L1.4889828723571128,-1.3597416947436471 " />
			<path d="M4.421722175296594,0.26879271986342346 L39.16240474618519,4.414055276572277 " />
			<path d="M3.236925275477688,10.198357479014724 L36.88684890392153,14.213470543315495 " />
			<path d="M-37.977607944097784,-4.790300612998752 L-3.236925373256298,-0.6450380562955154 " />
			<path d="M-38.07164590107148,5.26941363860842 L-4.421722272778879,9.284526702891142 " />

        </g>

        <!-- solid lines -->
        <g  stroke="rgb(0,0,0)" fill="none">
    			<path d="M-15.019345162951417,-11.581509551115477 L-15.0217055904623,-11.679498557163894 L-15.022013378597798,-11.777699096070448 L-15.020267767402766,-11.876068984279792 L-15.016468904126146,-11.974566178650024 L-15.0106178213122,-12.073148773533722 L-15.002716417096714,-12.171774998370456 L-14.992767437565576,-12.270403215754397 L-14.98077446104294,-12.36899191994403 L-14.966741884185868,-12.467499735784308 L-14.95067490977212,-12.565885418015034 L-14.932579536077464,-12.664107850942562 L-14.912462547748651,-12.762126048455304 L-14.890331508087918,-12.859899154366945 L-14.866194752674588,-12.957386443074554 L-14.840061384259146,-13.05454732052226 L-14.811941268874847,-13.151341325464443 L-14.781845033121646,-13.247728131025818 L-14.749784062587034,-13.343667546559148 L-14.715770501378035,-13.439119519804702 L-14.679817252748398,-13.534044139358937 L-14.602147113365106,-13.722152393127113 L-14.516892146041572,-13.907675948234397 L-14.424183223740215,-14.090300913688655 L-14.324163809334594,-14.269716010251631 L-14.216990255011495,-14.445612742908178 L-14.102832191070151,-14.617685607317194 L-13.981873015159339,-14.785632335737311 L-13.854310495485775,-14.949154188784158 L-13.720357504019734,-15.107956300239788 L-13.580234002769563,-15.261757485650266 L-13.434136002844658,-15.41031875191002 L-13.282311833797399,-15.553361641166681 L-13.125026395451584,-15.690614029613082 L-12.962553364361613,-15.821817773845058 L-12.795174787492186,-15.94672818532748 L-12.623180752674473,-16.065113641186464 L-12.535545723928012,-16.121790633030194 L-12.446869126630556,-16.176755316313955 L-12.35718937644512,-16.22998231164989 L-12.266545352947583,-16.28144702538465 L-12.174976396184263,-16.331125650162836 L-12.082522303972596,-16.378995166998937 L-11.989223329925789,-16.42503334886051 L-11.895120182188464,-16.469218765779317 L-11.800254022876567,-16.51153079152147 L-11.704666468221,-16.551949611861488 L-11.608399589420655,-16.590456234519532 L-11.511495914216747,-16.627032500835046 L-11.41399842920651,-16.661661099264176 L-11.315950582920593,-16.69432558080251 L-11.217396289694632,-16.725010376448754 L-11.118379934371765,-16.753700816839057 L-11.018946377878976,-16.780383154195853 L-10.919140963726427,-16.805044586749226 L-10.819009525485132,-16.82767328580281 L-10.718598395304523,-16.848258425630497 L-10.617954413537667,-16.866790216404244 L-10.51712493954814,-16.883259940367402 L-10.41615786377868,-16.89765999148215 L-10.315101340481375,-16.909983950131714 L-10.213987883523235,-16.920228053425067 L-10.112856748410405,-16.928388009203857 L-10.011756283290534,-16.934459567584877 L-9.91073435978251,-16.9384397374865 L-9.80983838358842,-16.940326741444274 L-9.709115304004465,-16.94011997435644 L-9.608611622401082,-16.937819965902612 L-9.508373399737293,-16.93342834639426 L-9.408446263168944,-16.926947815830914 L-9.308875411805198,-16.918382115951527 L-9.209705621662287,-16.907736005085624 L-9.11098124985827,-16.89501523562436 L-9.012746238087153,-16.88022653394688 L-8.915044115405491,-16.86337758265284 L-8.817918000359194,-16.844477004967192 L-8.721410602472982,-16.82353435119879 L-8.625564223119628,-16.800560087149744 L-8.530420755780757,-16.77556558438769 L-8.4360216857057,-16.74856311230867 L-8.342408088969577,-16.719565831933625 L-8.249620630926408,-16.68858779139673 L-8.15769956404783,-16.655643923099426 L-8.066684725132582,-16.62075004251913 L-7.97661553186668,-16.583922848677112 L-7.887530978708795,-16.545179926285293 L-7.7994696320701475,-16.504539749607204 L-7.712469624752801,-16.462021688083578 L-7.626568649604975,-16.41764601378846 L-7.541803952346676,-16.37143391079719 L-7.458212323513611,-16.323407486562743 L-7.375830089462042,-16.273589785412558 L-7.2946931023719,-16.22200480429306 L-7.214836729180197,-16.16867751090475 L-7.136295839371407,-16.113633864385786 L-7.059104791546217,-16.05690083871762 L-6.983297418684679,-15.998506449041423 L-6.908906948665263,-15.93847972876494 L-6.835956461795362,-15.876842515586858 L-6.764470700291996,-15.813618264028904 L-6.69448022493244,-15.748836346206167 L-6.626014615349164,-15.682526641006172 L-6.559102498856221,-15.614719513981132 L-6.493771576784311,-15.54544579886249 L-6.430048648485176,-15.474736780591433 L-6.367959633156266,-15.402624179764791 L-6.307529589626814,-15.329140138401325 L-6.248782734236788,-15.25431720693919 L-6.191742456930404,-15.17818833238095 L-6.136431335676146,-15.100786847508235 L-6.08287114931553,-15.022146461093817 L-6.031082888933076,-14.942301249044538 L-5.98108676783024,-14.861285646414235 " />
			<path d="M-5.981086767830233,-14.861285646414222 L-5.9243345829032945,-14.76407342002327 L-5.870143587427717,-14.665333002633686 L-5.818543038476699,-14.5651231069644 L-5.769560731577903,-14.463503095989775 L-5.72322300853324,-14.360532973560769 L-5.67955476225162,-14.256273376694718 L-5.638579438621588,-14.150785569477323 L-5.600319035413699,-14.044131438541942 L-5.564794098165398,-13.936373490113027 L-5.532023712964095,-13.827574848622033 L-5.502025496007057,-13.71779925692585 L-5.474815579779639,-13.607111078179337 L-5.450408595656297,-13.495575299435218 L-5.42881765269179,-13.38325753706615 L-5.410054312332823,-13.270224044125445 L-5.394128558743381,-13.15654171978451 L-5.381048764399858,-13.04227812100668 L-5.370821650575075,-12.927501476638758 L-5.363452205655879,-12.812279991919112 L-5.35894327488274,-12.696665047884746 L-5.357297717649302,-12.580718306734497 L-5.358517205821306,-12.46450911990171 L-5.362601671788249,-12.348106595795834 L-5.3695493570337165,-12.23157960472826 L-5.379356854930118,-12.1149967826825 L-5.39201914819739,-11.998426534022476 L-5.407529641428179,-11.881937033221348 L-5.425880189044955,-11.765596225681898 L-5.447061119017442,-11.649471827708238 L-5.4710612526317,-11.533631325677202 L-5.497867920565136,-11.418141974446435 L-5.527466975484655,-11.303070795024839 L-5.559842801348112,-11.188484571519702 L-5.594978319552164,-11.07444984736351 L-5.632854992032552,-10.961032920812023 L-5.673452821385816,-10.848299839693908 L-5.716750348044349,-10.736316395380836 L-5.762724644499652,-10.625148115935652 L-5.811351306531616,-10.514860258384813 L-5.862604441364558,-10.405517800049967 L-5.916456652633717,-10.297185428862202 L-5.97287902200883,-10.189927532571152 L-6.031841087284357,-10.083808186749806 L-6.093310816708886,-9.978891141484418 L-6.157254579289166,-9.875239806627736 L-6.223637110767148,-9.772917235482286 L-6.292421474931397,-9.671986106769133 L-6.363569019887139,-9.572508704726225 L-6.437039328872186,-9.474546897169017 L-6.512790165168867,-9.37816211133478 L-6.590777410625091,-9.283415307320638 L-6.670954997260607,-9.190366948913969 L-6.753281185725798,-9.099070078339631 L-6.837721837588574,-9.0095683070161 L-6.924226393444245,-8.921921564551296 L-7.012742359795711,-8.83618881696279 L-7.103216098107679,-8.75242727309145 L-7.195592860713627,-8.67069243347385 L-7.289816822813933,-8.591038132398172 L-7.385831110860316,-8.513516573658988 L-7.483577827597777,-8.438178360472623 L-7.5829980740113765,-8.365072519961183 L-7.684031968401356,-8.29424652255949 L-7.786618662786203,-8.225746296645625 L-7.890696356809374,-8.159616238641979 L-7.996202309301584,-8.09589921878009 L-8.10307284762662,-8.034636582668762 L-8.211243374914819,-7.975868148751411 L-8.320648375264467,-7.919632201684714 L-8.431221416967494,-7.8659654816170965 L-8.542895153791983,-7.814903169291802 L-8.655601324330135,-7.766478866845642 L-8.76927074939647,-7.720724574120804 L-8.883833327437145,-7.677670660253435 L-8.999218027887418,-7.637345830248982 L-9.115352882390445,-7.599777086200614 L-9.232164973766686,-7.5649896827533265 L-9.349580422599317,-7.533007076362663 L-9.467524371277204,-7.503850867843291 L-9.585920965313147,-7.477540737648928 L-9.70469333173116,-7.454094373271504 L-9.82376355429274,-7.433527388093685 L-9.94305264530816,-7.41585323097521 L-10.062481755691143,-7.401082947318857 L-10.181995674855921,-7.389223163470012 L-10.30152400757166,-7.380281405681797 L-10.420987037714339,-7.374264034432931 L-10.54030597425508,-7.371174962640214 L-10.659402927955584,-7.371015757107526 L-10.778200890959079,-7.373785729586525 L-10.896623719062251,-7.3794820182508145 L-11.01459611647373,-7.388099660326572 L-11.132043622884776,-7.399631656563796 L-11.24889260269804,-7.414069028173514 L-11.365070236280296,-7.431400866797462 L-11.480504513125265,-7.451614378017968 L-11.595124226832725,-7.474694918856897 L-11.708858971830217,-7.50062602965375 L-11.821639141783828,-7.529389460654167 L-11.933395929664652,-7.560965193581253 L-12.044061329457616,-7.595331458403358 L-12.15356813951956,-7.6324647454531185 L-12.261849967613466,-7.672339812993711 L-12.368841237666057,-7.714929690269508 L-12.474477198315892,-7.760205676019485 L-12.57869393333936,-7.808137332372875 L-12.681428374062058,-7.858692473987814 L-12.78261831388316,-7.911837152234845 L-12.88220242506055,-7.96753563416839 L-12.980120277924524,-8.025750375970386 L-13.076312362708135,-8.086441990491586 L-13.170720114202261,-8.149569208457114 L-13.263285939463678,-8.215088832844076 L-13.353953248824508,-8.282955685880232 L-13.442666490471545,-8.353122548053856 L-13.529377732633728,-8.425545714379055 L-13.614049417141006,-8.500188898155368 L-13.696632050969654,-8.577004219659383 L-13.77707737957283,-8.655942361783598 L-13.855338903592028,-8.736953071846337 L-13.93137183271993,-8.819985198220438 L-14.005133043336976,-8.904986723982411 L-14.076581039881244,-8.991904797672014 L-14.145675919911334,-9.080685761252312 L-14.212379342821823,-9.1712751753602 L-14.27665450217094,-9.263617841937387 L-14.338466101580083,-9.357657824331836 L-14.397780334164795,-9.453338464959696 " />
			<path d="M-14.397780334164812,-9.453338464959723 L-14.467269899576532,-9.573201172997141 L-14.532874568878407,-9.695351400061679 L-14.594540494972877,-9.819679382938418 L-14.652217127792834,-9.94607382511498 L-14.705857209726291,-10.074421912892863 L-14.755416782340298,-10.204609325133145 L-14.800855204232032,-10.336520237020112 L-14.842135179835012,-10.470037318226405 L-14.879222799008337,-10.605041725863273 L-14.912087587236941,-10.741413092599524 L-14.940702566270742,-10.879029510332735 L-14.965044325030682,-11.01776750979634 L-14.985093124860631,-11.15750222035037 L-15.000833963065848,-11.298117095298162 L-15.012254512428608,-11.439493910807514 L-15.019345162951419,-11.581509551115415 " />
			<path d="M31.374355679697562,-6.045807407734485 L31.387504259956394,-6.204727749963488 L31.396593223321123,-6.365287802730616 L31.401610180193035,-6.527303486935754 L31.4025475489934,-6.690590380511582 L31.399402391368135,-6.854963738998573 L31.39217627593556,-7.02023851688066 L31.38087516766204,-7.1862293895693385 L31.365509340339802,-7.352750775993377 L31.346093310030533,-7.519616861820619 L31.32264578772775,-7.686641623407743 L31.295189649880413,-7.853638852643181 L31.263751925809512,-8.020422182917773 L31.228363801438903,-8.186805116527069 L31.189060639150913,-8.352601053878557 L31.14588201396676,-8.517623324946463 L31.098871766641093,-8.681685223486072 L31.04807807464952,-8.844600044588955 L30.993553542437173,-9.00618112622976 L30.935355312685957,-9.16624189552465 L30.873545200747387,-9.324595920490758 L30.808189854777368,-9.481056968165458 L30.73936094449863,-9.63543907001354 L30.667135381906004,-9.78755659561976 L30.591594668966792,-9.937226083573822 L30.512806781864146,-10.084299242576646 L30.430855639603465,-10.228603486145222 L30.345836907896686,-10.369955569673946 L30.25784974113506,-10.508177859972681 L30.166996634803937,-10.643098135908932 L30.073383300450562,-10.77454942940917 L29.977118560909588,-10.902369902813028 L29.87831426378254,-11.026402759239406 L29.777085211459138,-11.146496183288951 L29.673549106259927,-11.26250331007273 L29.567826509571262,-11.374282221222323 L29.46004081413538,-11.48169596720189 L29.35031822894972,-11.584612615908238 L29.238787776521463,-11.682905328210172 L29.125581302514686,-11.7764524617439 L29.01083349811919,-11.865137704946608 L28.894681935761735,-11.948850243975652 L28.777267119071823,-12.02748496582628 L28.658732548306006,-12.100942701626117 L28.539224802726086,-12.169130514750027 L28.41889364171833,-12.231962039064395 L28.29789212673229,-12.289357873275188 L28.1763621238696,-12.34125195023219 L28.054425792590962,-12.38759177217326 L27.932237607150604,-12.428317566393078 L27.809951731067517,-12.463378342746127 L27.687720449591342,-12.492732114472657 L27.56569421050981,-12.516345463455718 L27.444021656234227,-12.534193171127917 L27.322849647953436,-12.546257908168078 L27.202323282496092,-12.55252997698348 L27.082585902390385,-12.55300710182877 L26.963779099459718,-12.547694262268182 L26.846042712142264,-12.536603566543091 L26.72951481657161,-12.519754162262492 L26.6143317113051,-12.497172182689358 L26.50062789543587,-12.468890727751411 L26.388536039673873,-12.434949879760236 L26.278186949830566,-12.395396754678139 L26.1697095219914,-12.350285590627708 " />
			<path d="M26.16970952199139,-12.350285590627703 L26.092773635340087,-12.314367746447372 L26.016922400965765,-12.275621061908216 L25.942202102034532,-12.23407296482614 L25.8686584448037,-12.18975297242577 L25.796336540708413,-12.14269274727436 L25.725280886434366,-12.092926161544618 L25.655534646883446,-12.040488829304692 L25.58712791324463,-11.985408245218325 L25.520097226841294,-11.927717747551478 L25.4544825425364,-11.86745556056216 L25.390322491125424,-11.804661255642971 L25.327654422879327,-11.739375694907766 L25.266514446597608,-11.671640980276726 L25.206937464511586,-11.60150040763449 L25.148957203352214,-11.52899842566511 L25.09260624187075,-11.454180598996716 L25.037916035074588,-11.377093575317875 L24.984916935414706,-11.297785056156835 L24.93363821113513,-11.216303771043851 L24.88410806196894,-11.13269945480602 L24.836353632339325,-11.047022827773102 L24.790401022198274,-10.959325578701984 L24.74627529560953,-10.869660350256511 L24.704000487156474,-10.778080726908586 L24.663599606229663,-10.684641225155529 L24.625094639222745,-10.589397285977828 L24.588506549639607,-10.492405269490515 L24.553855276089543,-10.393722451770572 L24.521159728121408,-10.29340702387182 L24.490437779821605,-10.191518093067959 L24.461706261074983,-10.088115686393468 L24.434980946361588,-9.983260756581252 L24.41027654093641,-9.877015190525029 L24.387606664213187,-9.769441820423557 L24.36698383014746,-9.660604437792966 L24.34841942438807,-9.550567810562546 L24.331923677940363,-9.43939770349847 L24.317505637058385,-9.327160902229085 L24.305172415577943,-9.213918053827138 L24.294929482435876,-9.09971924623749 L24.28678340241078,-8.984631942074458 L24.28073953026966,-8.868724625192435 L24.27680194260964,-8.752065896115608 L24.27497347183354,-8.6347244668725 L24.275255735933964,-8.516769155886097 L24.277649164403336,-8.398268882919457 L24.28215302055905,-8.279292664073157 L24.28876542054472,-8.159909606827439 L24.297483349240338,-8.040188905118171 L24.30830267328591,-7.920199834432445 L24.321218151394977,-7.800011746905842 L24.336223442106125,-7.679694066399935 L24.353311109092562,-7.559316283535075 L24.37247262412146,-7.438947950649875 L24.393698367726632,-7.318658676655248 L24.416977627629947,-7.198518121747387 L24.4422985949186,-7.078595991940407 L24.469648357957215,-6.958962033375862 L24.499012893985547,-6.839686026362772 L24.530377058324287,-6.720837779098293 L24.563724571083362,-6.602487121015507 L24.599038001238856,-6.484703895701318 L24.636298747916463,-6.367557953323859 L24.675487018691282,-6.251119142505273 L24.71658180468538,-6.135457301572151 L24.75956085221654,-6.020642249112344 L24.804400630723297,-5.906743773763319 L24.85107629666313,-5.793831623153709 L24.899561653052615,-5.681975491916074 L24.949829104289986,-5.571245008685349 L25.001849605872444,-5.461709721993961 L25.055593083437675,-5.353438148553892 L25.111037966298547,-5.246479820379807 L25.168155391793118,-5.1408976482337145 L25.226911213899353,-5.036761745161104 L25.287270301178072,-4.934140697035908 L25.349196568103952,-4.833101606730693 L25.4126530029061,-4.733710132099032 L25.477601692182997,-4.63603051824365 L25.544003842534984,-4.540125624495669 L25.61181979943625,-4.446056946481971 L25.681009063546913,-4.353884633609406 L25.751530304644376,-4.263667502246353 L25.823341373331786,-4.175463044833842 L25.8963993106601,-4.089327435110148 L25.970660355778886,-4.005315529584517 L26.04607995170959,-3.9234808653473996 L26.122612749313696,-3.843875654256324 L26.200212609506785,-3.7665507734882144 L26.278832603748217,-3.691555752400709 L26.358425012814713,-3.6189387555967722 L26.438941323844794,-3.5487465620386125 L26.520332225619704,-3.4810245400086304 L26.602547602025,-3.415816617666838 L26.685536523615742,-3.3531652489059742 L26.769247237186732,-3.29311137415719 L26.853627153228004,-3.235694375750943 L26.93862283112431,-3.180952027389476 L27.02417996193607,-3.1289204372389596 L27.110243348577843,-3.0796339841010854 L27.196756883188993,-3.0331252460756857 L27.283663521469936,-2.9894249210776134 L27.37090525373595,-2.9485617385228666 L27.45843103288274,-2.9105590388022824 L27.54620015386493,-2.875434690858391 L27.63415455454539,-2.843212547356557 L27.72223591414851,-2.8139141346556595 L27.810386414361464,-2.7875584156593654 L27.89854872998038,-2.764161889621207 L27.986666020940856,-2.7437386814784235 L28.07468192563445,-2.7263006215225647 L28.162540555423742,-2.7118573161523547 L28.250186490279226,-2.7004162103918383 L28.337564775472398,-2.6919826427943385 L28.42462091926996,-2.6865598932902692 L28.511300891585112,-2.684149224474367 L28.597551123552677,-2.684749916765407 L28.68331850800559,-2.6883592978089896 L28.768550400841278,-2.6949727664314955 L28.85319462327708,-2.704583811390821 L28.937199465004984,-2.7171840251070165 L29.020513688266455,-2.732763112493464 L29.103086532879338,-2.751308894946749 L29.184867722259362,-2.7728073094908856 L29.26580747048979,-2.7972424030090752 L29.345856490503543,-2.824596321433684 L29.424966003452973,-2.8548492937026553 L29.50308774935328,-2.8879796102280437 " />
			<path d="M29.503087749353302,-2.887979610228053 L29.59732613241653,-2.932428380436945 L29.68992564683999,-2.9811076647527144 L29.780801060434882,-3.033965305142739 L29.8698684548941,-3.0909443986201026 L29.957045280310055,-3.151983133142796 L30.042253785037634,-3.2170172813642215 L30.125435178093795,-3.2859932726003587 L30.206518081827397,-3.358844624379474 L30.285430845210723,-3.4354995502752814 L30.36210457478116,-3.5158833902277027 L30.43647305142058,-3.5999187325230526 L30.508472655777965,-3.6875255233563555 L30.578042302237762,-3.7786211643785124 L30.645123381336457,-3.873120598631008 L30.70965971052978,-3.9709363852708606 L30.771597493213108,-4.071978763488515 L30.830885285897427,-4.176155706021378 L30.887473973443445,-4.283372962665702 L30.941316752256213,-4.393534094189508 L30.992369121342797,-4.506540497049253 L31.040588881135477,-4.622291419312949 L31.0859361399829,-4.740683968192423 L31.128373328211683,-4.8616131095874175 L31.167865219660957,-4.984971660044254 L31.20437896059229,-5.110650271531718 L31.237884105877484,-5.238537409436912 L31.268352662366713,-5.368519324183755 L31.295759139339474,-5.5004800168768195 L31.32008064212015,-5.63430140914437 L31.341298325968623,-5.76987278603748 L31.35939513184046,-5.907080930945659 L31.37435567969755,-6.045807407734419 " />
			<path d="M-36.734442627631424,-1.9115863238625774 L-36.779167254666135,-2.216282638685153 L-36.829658044534106,-2.509678773126054 L-36.88568816596015,-2.7904059513971706 L-36.91570358753773,-2.925609987495452 L-36.947008946265996,-3.057164759312932 L-36.979569915372664,-3.1849182508757625 L-37.013350909215994,-3.3087225371472058 L-37.04831509389554,-3.4284337790038313 L-37.08442439271905,-3.543912236979862 L-37.121639486750446,-3.6550223034843845 L-37.15991981055287,-3.761632553674457 L-37.1992235431306,-3.8636158156454803 L-37.23950759396271,-3.9608492610785033 L-37.28072758391096,-4.053214517962472 L-37.32283782067356,-4.140597807487728 L-37.365791268346236,-4.222890107685415 L-37.409539510540974,-4.299987346865727 L-37.45403270640259,-4.371790630386307 L-37.49921953875247,-4.438206504760373 L-37.54504715347823,-4.499147263592501 L-37.591462721646096,-4.5545331403974645 L-37.638422952769886,-4.604301202237986 L-37.68587301712906,-4.64838046161896 L-37.73375502396856,-4.686705261857921 L-37.78201093214972,-4.719218553015425 L-37.830582558295625,-4.7458715729319 L-37.87941158484104,-4.766623587477686 L-37.92843956803107,-4.781441684085868 L-37.97760794593483,-4.790300613567395 " />
			<path d="M-37.97760794593483,-4.790300613567396 L-38.01282088994268,-4.792971121631158 L-38.048054138553525,-4.792581125944239 L-38.08328618099838,-4.789128447564705 L-38.11849548317526,-4.782612851947244 L-38.153660489391406,-4.773036051607689 L-38.188759624197964,-4.760401713753284 L-38.223771294335876,-4.744715472934247 L-38.2586738908129,-4.72598494883581 L-38.293445791133564,-4.704219769393453 L-38.32806536170491,-4.679431599477611 L-38.362510960442734,-4.651634175457763 L-38.396760939604135,-4.620843346019315 L-38.43079364887401,-4.587077119670309 L-38.46458743873428,-4.5503557194385476 L-38.49812066414638,-4.5107016453232855 L-38.53137168857878,-4.468139745129244 L-38.596940657762445,-4.374404086025289 L-38.66112315515261,-4.269395063694592 L-38.723774464468626,-4.153350387240625 L-38.78473718144761,-4.026559563611247 L-38.84385222535118,-3.8893557409329826 L-38.900968643850845,-3.7420974613562548 L-38.95594318044612,-3.585166760957166 L-39.008639948601996,-3.4189676620100595 L-39.05893019825796,-3.24392499946776 L-39.106692163727836,-3.060483534644215 L-39.15181098537754,-2.869107320252118 L-39.19417870083521,-2.67027929210584 L-39.23369430485593,-2.4645010739579014 L-39.27026388033039,-2.252292993094969 L-39.30380080629478,-2.0341943154772313 L-39.33422605216657,-1.8107637203627833 L-39.361468570798145,-1.582580045516523 L-39.385468046354184,-1.350219878098112 L-39.40617911605814,-1.1141921132684909 L-39.42355667082426,-0.8750763492029793 L-39.43756398839694,-0.633459165341917 L-39.448173193685015,-0.3899245640800231 L-39.455364798303115,-0.14505379496123805 L-39.459127342708356,0.1005748072157544 L-39.45945712638668,0.34638597485277933 L-39.456358014687396,0.591807655134555 L-39.44984131404905,0.8362711573994555 L-39.43992571050381,1.079211305054791 L-39.42663726949205,1.320066596887649 L-39.41000949816329,1.5582793827172157 L-39.39008347448362,1.7932960584294146 L-39.366908050614455,2.0245672855295735 L-39.34054014117172,2.251548240443732 L-39.31104007198306,2.473734546294187 L-39.27846976349574,2.6906572931737793 L-39.24290525600223,2.901798779014559 L-39.20442920350105,3.106658449222393 L-39.16313039743841,3.304753564262236 L-39.11910353615584,3.4956186627032633 L-39.072449052277555,3.678805221259704 L-39.02327299043842,3.853881488999494 L-38.97168692973777,4.020432480902075 L-38.917807947288495,4.178060123955802 L-38.86175862121499,4.326383556994621 L-38.803667073437836,4.465039593482809 L-38.743667054567325,4.593683364465795 L-38.68189807521208,4.711989166914195 L-38.618505589993305,4.819651550697387 L-38.55364124253942,4.916386685432136 L-38.487463030888236,5.001934236998661 L-38.453926413302334,5.040444846570843 L-38.420114783674045,5.076080438969946 L-38.3860497459402,5.1088137410746555 L-38.351752949668644,5.1386198070990785 L-38.31724608699192,5.165475947250911 L-38.282550889596386,5.189361665360878 L-38.247689125764744,5.210258604799801 L-38.21268259746865,5.2281505020633325 L-38.177553137506685,5.243023147468014 L-38.14232260668148,5.25486435246603 L-38.107012891008445,5.2636639231496485 L-38.071645898947224,5.269413639580033 " />
			<path d="M-38.07164589894722,5.2694136395800335 L-38.02558960269886,5.272318887412782 L-37.979521803706305,5.270043989216437 L-37.93349085119571,5.262585663752224 L-37.88754512206,5.249946206533231 L-37.841733010115625,5.232133523127012 L-37.796102914984864,5.209161186927869 L-37.75070323047656,5.181048522327505 L-37.705582332326934,5.147820714734765 L-37.66078856515024,5.109508949417143 L-37.616370228438086,5.0661505816587535 L-37.57237556143438,5.017789341251463 L-37.528852726701814,4.964475574857825 L-37.48584979218405,4.90626653030652 L-37.44341471155644,4.843226687402951 L-37.401595096005806,4.7754277910541605 L-37.36042801339325,4.702930509621433 L-37.319954553624385,4.625806225915911 L-37.280220192641266,4.544141099429165 L-37.24126875878768,4.458026240155285 L-37.20314250240217,4.367557424011897 L-37.165882155720894,4.272834845140026 L-37.12952698404055,4.173962901370366 L-37.09411482898404,4.071050009503995 L-37.059682144603315,3.964208447416036 L-37.02626402694615,3.8535542203512643 L-36.99389423760581,3.7392069491411357 L-36.9324281203321,3.499929303376035 L-36.875527747152326,3.247401753575704 L-36.8234163307386,2.9827043493585483 L-36.776296175439775,2.7069704458024324 L-36.73434815945404,2.421387251784234 L-36.6977308148171,2.127197528930816 L-36.666576742448946,1.825679134913024 L-36.64098191450391,1.5180000918388 L-36.62102977902654,1.205420625458916 L-36.606781456352124,0.8892213948349588 L-36.59827463939818,0.5706773082351393 L-36.595524944885824,0.25105682325135614 L-36.59852687387056,-0.06837864201220079 L-36.60725439983243,-0.38637523663222195 L-36.62166120257569,-0.701687193394545 L-36.641680566188086,-1.0130773841108374 L-36.66722495930982,-1.3193179636770096 L-36.69818626789067,-1.6191996812310956 L-36.73444262763142,-1.9115863238625144 " />
			<path d="M16.271907709005546,36.840505287712375 L15.75436539701209,37.06660680722619 L15.233682334682054,37.28537858427384 L14.7099623240701,37.49677700506879 L14.183309772669197,37.70075992575801 L13.653829672596226,37.8972866808238 L13.121627579660975,38.08631809119076 L12.586809592322847,38.26781647203636 L12.049482330539306,38.44174564030373 L11.509752914510406,38.608070921915036 L10.96772894332358,38.76675915868401 L10.42351847350296,38.917778714926236 L9.877229997467495,39.06109948376603 L9.32897242190219,39.19669289313843 L8.778855046046726,39.324531911485266 L8.226987539905869,39.444591053144066 L7.673479922385905,39.55684638342888 L7.118442539361569,39.66127552340178 L6.5619860416777716,39.75785765433428 L6.004221363090522,39.84657352185772 L5.4452596981514425,39.92740543980179 L4.885212480040337,40.000337293720314 L4.324191358350136,40.065354544103904 L3.762308176828695,40.12244422927842 L3.199674951081956,40.17159496798903 L2.636403846242761,40.21279696166911 L2.0726071546099174,40.246041996393735 L1.5083972732618793,40.27132344451707 L0.9438866816495555,40.28863626599377 L0.37918791917268635,40.29797700938363 L-0.18558643725571145,40.29934381253976 L-0.7503237956524131,40.292736402979735 L-1.3149115714100255,40.27815609793997 L-1.8792372097415644,40.2556058041131 L-2.4431882081191105,40.22509001706851 L-3.006652138702,40.186614820356105 L-3.5695166707501844,40.14018788429351 L-4.131669593018174,40.08581846443693 L-4.692998836125206,40.02351739973604 L-5.253392494897108,39.95329711037306 L-5.812738850675425,39.87517159528677 L-6.370926393589372,39.78915642938173 L-6.927843844786146,39.69526876042321 L-7.48338017861523,39.593527305618785 L-8.037424644762146,39.48395234788683 L-8.589866790327378,39.366565731813 L-9.140596481845972,39.24139085929533 L-9.689503927243475,39.10845268487893 L-10.236479697723798,38.967777710781064 L-10.781414749584666,38.81939398160777 L-11.324200445956286,38.66333107876294 L-11.864728578458934,38.499620114551064 L-12.402891388775075,38.32829372597472 L-12.938581590131824,38.14938606822821 L-13.471692388689338,37.962932807888386 L-14.002117504830979,37.76897111580433 L-14.529751194350935,37.56753965968703 L-15.054488269535131,37.35867859640066 L-15.576224120131185,37.14242956395705 L-16.094854734203224,36.918835673214836 L-16.610276718867453,36.687941499284946 L-17.122387320904316,36.44979307264429 L-17.631084447243076,36.20443786995915 L-18.13626668531487,35.95192480462043 L-18.637833323270034,35.69230421699238 L-19.135684370055774,35.42562786437686 L-19.62972057535014,35.15194891069513 L-20.11984344934829,34.87132191588927 L-20.60595528239719,34.58380282504516 L-21.087959164474753,34.28944895723953 L-21.565759004509594,33.988318994112866 L-22.03925954953746,33.680472968170854 L-22.50836640369066,33.3659722508164 L-22.97298604701659,33.04487954011485 L-23.433025854121578,32.717258848294584 L-23.88839411263652,32.38317548898579 L-24.339000041500356,32.042696064199596 L-24.784753809058017,31.695888451050568 L-25.225566550969,31.342821788224832 L-25.66135038792312,30.983566462196777 L-26.09201844315995,30.618194093196998 L-26.51748485978834,30.24677752093429 L-26.937664817902583,29.869390790074437 L-27.352474551491966,29.486109135478905 L-27.761831365140107,29.097008967206236 L-28.16565365051091,28.702167855279068 L-28.5638609026178,28.301664514220025 L-28.956373735872994,27.895578787359355 L-29.34311389991361,27.483991630917586 L-29.724004295201446,27.066985097866297 L-30.09896898839338,26.644642321570245 L-30.46793322747922,26.217047499214097 L-30.830823456684083,25.784285875017098 L-31.187567331132293,25.34644372323902 L-31.538093731269875,24.903608330980713 L-31.882332777042755,24.455867980782788 L-32.22021584182788,24.00331193302584 L-32.55167556611444,23.546030408135692 L-32.87664587093252,23.084114568597336 L-33.19506197102636,22.61765650078094 L-33.506860387769905,22.146749196583816 L-33.81197896182158,21.67148653489172 L-34.11035686551639,21.19196326286348 L-34.401934614992214,20.708274977042343 L-34.68665408204849,20.220518104298172 L-34.96445850573439,19.72878988260399 L-35.23529250366464,19.233188341650884 L-35.499102083060336,18.733812283305024 L-35.75583465151284,18.230761261910814 L-36.00543902746849,17.724135564443955 L-36.24786545043195,17.214036190518527 L-36.48306559088643,16.700564832251906 L-36.7109925599285,16.183823853991736 L-36.9316009186157,15.663916271908802 L-37.14484668702518,15.140945733460002 L-37.350687353021414,14.615016496725433 L-37.549081880731336,14.08623340962379 L-37.739990718725075,13.554701889010143 L-37.92337580790091,13.020527899660276 L-38.0992005890726,12.483817933145858 L-38.267430010257726,11.94467898660453 L-38.428030533665556,11.403218541409212 L-38.580970142383094,10.85954454174093 L-38.726218346757854,10.313765373069307 L-38.86374619047622,9.76598984054512 L-38.99352625633607,9.216327147309176 L-39.11553267171266,8.664886872721858 L-39.22974111371646,8.111778950517664 L-39.336128814042155,7.55711364688908 L-39.434674563507635,7.001001538504207 L-39.52535871628225,6.443553490462476 L-39.608163193803286,5.884880634192864 L-39.68307148838016,5.325094345298998 L-39.75006866648522,4.764306221355621 L-39.809141371731,4.20262805966075 L-39.860277827532784,3.6401718349481005 L-39.90346783945647,3.0770496770640285 L-39.93870279725081,2.513373848613659 L-39.96597567656399,1.949256722580465 L-39.98528104034397,1.3848107599238944 L-39.99661503992238,0.8201484871594253 L-39.99997541578182,0.2553824739255717 L-39.99536149800629,-0.3093746894577194 L-39.98277420641471,-0.8740104144347765 L-39.96221605037763,-1.43841213665959 L-39.93369112831688,-2.0024673384363396 L-39.89720512688858,-2.566063571150643 L-39.85276531984943,-3.129088477687027 L-39.80038056660664,-3.6914298148281546 L-39.74006131045178,-4.252975475631354 L-39.67181957647873,-4.813613511777968 L-39.5956689691865,-5.373232155891085 L-39.51162466976702,-5.9317198438172145 L-39.41970343307865,-6.488965236867399 L-39.319923584306004,-7.044857244013473 L-39.21230501530665,-7.599285044034819 L-39.096869180645534,-8.152138107611457 L-38.97363909331787,-8.703306219358858 L-38.842639320161325,-9.252679499800227 L-38.7038959769584,-9.800148427271782 L-38.557436723230104,-10.345603859756721 L-38.40329075672178,-10.88893705664349 L-38.24148880758236,-11.430039700404043 L-38.07206313223801,-11.96880391818775 L-37.89504750696164,-12.505122303326653 L-37.710477221139364,-13.038887936747784 L-37.5183890702352,-13.569994408288284 L-37.31882134845572,-14.098335837909064 L-37.111813841115755,-14.62380689680277 L-36.89740781670694,-15.146302828391896 L-36.67564601867047,-15.66571946921274 L-36.446572656875944,-16.181953269681227 L-36.210233398807766,-16.69490131473624 L-35.966675360460975,-17.204461344356538 L-35.715947096948334,-17.710531773947046 L-35.45809859282054,-18.21301171459049 L-35.193181252101375,-18.711800993160374 L-34.921247888039964,-19.206800172291228 L-34.64235271258203,-19.6979105702022 L-34.35655132556239,-20.185034280369983 L-34.06390070362067,-20.66807419104725 L-33.76445918884255,-21.14693400462259 L-33.45828647712899,-21.62151825681807 L-33.14544360629521,-22.091732335720923 L-32.82599294390245,-22.557482500645 L-32.49999817482452,-23.01867590081874 L-32.16752428855176,-23.475220593895624 L-31.828637566234868,-23.92702556428361 L-31.483405567471245,-24.374000741289734 L-31.13189711683655,-24.816057017076396 L-30.774182290163946,-25.253106264425675 L-30.410332400573985,-25.685061354308118 L-30.040419984257802,-26.111836173252613 L-29.664518786016487,-26.5333456405137 L-29.282703744559505,-26.949505725033085 L-28.895050977565106,-27.360233462191854 L-28.501637766505663,-27.765446970350062 L-28.102542541241135,-28.165065467170514 L-27.697844864383363,-28.55900928572324 L-27.28762541543476,-28.94719989036776 L-26.87196597470419,-29.329559892409723 L-26.450949407003506,-29.70601306552892 L-26.024659645127784,-30.076484360975584 L-25.593181673122757,-30.440899922531894 L-25.156601509342508,-30.79918710123579 L-24.7150061893012,-31.15127446986407 L-24.268483748321753,-31.497091837171936 L-23.817123203985503,-31.836570261886173 L-23.361014538385724,-32.16964206644906 L-22.90024868018916,-32.49624085051042 L-22.434917486508617,-32.81630150416504 L-21.965113724590637,-33.129760220932795 L-21.490931053321596,-33.43655451047896 L-21.012464004556143,-33.7366232110721 L-20.529807964271548,-34.029906501777155 L-20.043059153551837,-34.316345914381145 L-19.552314609405336,-34.59588434504931 L-19.057672165419653,-34.86846606570911 L-18.55923043225784,-35.134036735160066 L-18.0570887779996,-35.39254340990711 L-17.551347308331508,-35.64393455471524 L-17.04210684659022,-35.888160052883414 L-16.52946891366257,-36.12517121623579 L-16.01353570774663,-36.354920794827976 L-15.494410083977753,-36.57736298636671 L-14.972195533923607,-36.792453445340875 L-14.446996164952354,-37.00014929186212 L-13.918916679478107,-37.20040912021329 L-13.38806235408769,-37.393193007102894 L-12.854539018552979,-37.57846251962425 L-12.318453034732945,-37.756180722917236 L-11.779911275369619,-37.92631218753161 L-11.239021102782207,-38.08882299649007 L-10.695890347463624,-38.24368075204996 L-10.150627286583685,-38.3908545821619 L-9.603340622403216,-38.53031514662439 L-9.054139460603476,-38.66203464293304 L-8.503133288535128,-38.785986811823136 L-7.950431953391064,-38.90214694250468 L-7.396145640307628,-39.01049187758864 L-6.840384850398321,-39.111000017703574 L-6.283260378724613,-39.20365132580157 L-5.7248832922081085,-39.28842733115287 L-5.1653649074885415,-39.365311133028044 L-4.604816768731938,-39.43428740406736 L-4.043350625393499,-39.495342393336394 L-3.4810784099394834,-39.54846392906732 L-2.9181122155326396,-39.59364142108551 L-2.3545642736855985,-39.63086586292075 L-1.790546931886695,-39.660129833602724 L-1.2261726312026333,-39.68142749914047 L-0.6615538838625472,-39.69475461368539 L-0.09680325082783447,-39.700108520377746 L0.4679666806477165,-39.697488151876264 L1.032643319463018,-39.68689403057098 L1.597114093115584,-39.66832826847904 L2.1612664701436746,-39.64179456682368 L2.7249879825602967,-39.60729821529636 L3.288166248274532,-39.56484609100224 L3.8506889934957567,-39.514446657089124 L4.41244407511623,-39.456109961060356 L4.973319503067694,-39.38984763277166 L5.533203462647423,-39.31567288211277 L6.091984336809286,-39.23360049637383 L6.649550728415486,-39.14364683729748 L7.205791482444374,-39.04582983781707 L7.760595708150056,-38.9401689984815 L8.313852801169276,-38.8266853835677 L8.865452465571224,-38.70540161688132 L9.415284735845864,-38.57634187724645 L9.963239998826356,-38.43953189368546 L10.509209015541288,-38.294998940289666 L11.053082942992257,-38.14277183078207 L11.594753355852546,-37.982880912773126 L12.134112268082514,-37.8153580617107 L12.671052154457428,-37.64023667452548 L13.205465972003415,-37.45755166297306 L13.737247181337262,-37.26733944667398 L14.26628976790587,-37.06963794585322 L14.79248826312102,-36.86448657378058 L15.315737765385332,-36.651926228913226 L15.835933961005185,-36.43199928674239 L16.352973144986418,-36.204749591345454 L16.86675224170871,-35.97022244664531 L17.377168825474467,-35.72846460737867 L17.884121140928148,-35.47952426977519 L18.387508123341956,-35.22345106194918 L18.887229418763837,-34.96029603400586 L19.38318540402382,-34.690111647864136 L19.875277206594596,-34.41295176679794 L20.36340672430253,-34.1288716446982 L20.847476644885038,-33.837927915057534 L21.327390465390522,-33.540178579679925 L21.803052511416976,-33.23568299711769 L22.274367956185333,-32.924501870837865 L22.741242839443956,-32.6066972371205 L23.20358408620028,-32.28233245269132 L23.661299525276014,-31.951472182091045 L24.11429790768215,-31.614182384784037 L24.562488924810147,-31.27053030200881 L25.005783226435586,-30.92058444337294 L25.44409243853086,-30.56441457319524 L25.877329180883144,-30.202091696597645 L26.305407084514343,-29.833688045349856 L26.72824080889933,-29.45927706346938 L27.14574605897927,-29.078933392579927 L27.557839601966453,-28.69273285703104 L27.964439283937367,-28.30075244878193 L28.365464046210697,-27.90307031205262 L28.760833941506974,-27.499765727745185 L29.150470149886672,-27.09091909763864 L29.534294994463544,-26.676611928360195 L29.91223195689009,-26.25692681513628 L30.28420569261207,-25.831947425326582 L30.650142045888977,-25.401758481744373 L31.009968064577578,-24.966445745766325 L31.363612014675425,-24.52609600023539 L31.711003394621606,-24.080797032159925 L32.05207294935171,-23.630637615212777 L32.38675268410439,-23.175707492033567 L32.714975877976585,-22.71609735633777 L33.03667709722485,-22.25189883483629 L33.35179220831009,-21.783204468969018 L33.66025839068297,-21.310107696455958 L33.962014149307784,-20.83270283266973 L34.25699932692182,-20.35108505183311 L34.5451551160283,-19.865350368045334 L34.82642407061993,-19.375595616140973 L35.100750117631335,-18.88191843238515 L35.36807856811758,-18.384417235009103 L35.62835612815681,-17.883191204589686 L35.88153090947482,-17.378340264277043 L36.127552439789326,-16.869965059874147 L36.36637167287207,-16.35816693977233 L36.59794099832646,-15.843047934746718 L36.82221425107911,-15.324710737615623 L37.039146720583204,-14.803258682767973 L37.24869515973184,-14.27879572556284 L37.450817793479665,-13.751426421605146 L37.64547432717107,-13.221255905901733 L37.83262595457323,-12.688389871901904 L38.01223536561238,-12.152934550426668 L38.1842667538119,-11.614996688490804 L38.34868582343055,-11.074683528022064 L38.50545979629965,-10.5321027844817 L38.654557418357605,-9.987362625390555 L38.79594896588064,-9.440571648765102 L38.92960625140847,-8.891838861467575 L39.055502629363644,-8.341273657474671 L39.17361300136358,-7.788985796069026 L39.283913821224075,-7.235085379957898 L39.38638309965345,-6.679682833323346 L39.481000408636255,-6.122888879808373 L39.567746885505755,-5.564814520443328 L39.646605236704346,-5.005571011517011 L39.717559741231135,-4.445269842396922 L39.780596253776075,-3.88402271330302 L39.83570220753991,-3.3219415130394285 L39.88286661673945,-2.7591382966885973 L39.92208007879772,-2.1957252632722764 L39.953334776218384,-1.6318147333837771 L39.97662447814422,-1.0675191267960749 L39.99194454159934,-0.5029509400500345 L39.99929191241473,0.061777275972573875 L39.998665125837206,0.626552938486963 L39.99006430682134,1.1912634552495227 L39.97349117000459,1.7557962470039392 L39.94894901936548,2.3200387699247003 L39.916442747564915,2.8838785380535636 L39.87597883497079,3.4472031457244423 L39.82756534836609,4.009900289972357 L39.77121193934072,4.571857792921824 L39.706929842367366,5.1329636241503795 L39.63473187256184,5.693105923022674 L39.55463242312826,6.2521730209907265 L39.46664746248973,6.810053463855876 L39.37079453110484,7.3666360339880175 L39.26709273797088,7.921809772497669 L39.15556275681427,8.475464001356428 L39.0362268219692,9.0274883454615 L38.909108723944975,9.577772754639774 L38.77423380468317,10.126207525587148 L38.63162895250562,10.67268332373872 L38.48132259675395,11.217091205065428 L38.323344702122,11.759322637792856 L38.15772676268219,12.299269524037872 L37.98450179560682,12.83682422135873 L37.803704334585994,13.371879564214403 L37.615370422942966,13.90432888532883 L37.41953760644867,14.434066036955834 L37.21624492583672,14.960985412040475 L37.00553290902028,15.484981965272583 L36.7874435630126,16.005951234028352 L36.562020365552534,16.523789359195728 L36.329308256436974,17.038393105879493 L36.089353628561774,17.54965988398193 L35.842204318672906,18.057487768654916 L35.58790959782994,18.56177552061939 L35.32652016158346,19.062422606348175 L35.05808811986848,19.559329218108076 L34.782666986616,20.05239629385731 L34.50031166908459,20.54152553699425 L34.21107845691419,21.026619435953585 L33.91502501090437,21.50758128364599 L33.612210351519245,21.984315196737406 L33.30269484712127,22.456726134764082 L32.986540201936336,22.92471991907961 L32.66380944375264,23.388203251630156 L32.33456691135559,23.847083733554097 L31.998878241701334,24.301269883602444 L31.656810356831652,24.750671156376303 L31.308431450532456,25.195197960377765 L30.953810974738893,25.634761675870674 L30.593019625689585,26.069274672547596 L30.226129329832773,26.498650326999595 L29.853213229487277,26.922803039985244 L29.474345668261016,27.34164825349549 L29.089602176230045,27.755102467610904 L28.699059454881088,28.163083257148024 L28.302795361820536,28.565509288091448 L27.900888895252898,28.962300333808322 L27.49342017823197,29.353377291042193 L27.080470442687698,29.73866219568277 L26.66212201323197,30.118078238308676 L26.238458290746603,30.491549779499998 L25.809563735756754,30.859002364917544 L25.375523851593066,31.220362740145866 L24.93642516734598,31.5755588652971 L24.492355220615455,31.92451992937264 L24.04340254005977,32.26717636437984 L23.589656627746614,32.603459859200925 L23.1312079413102,32.93330337321129 L22.668147875917867,33.25664114964459 L22.200568746049772,33.573408728701814 L21.72856376709529,33.88354296040183 L21.25222703676986,34.18698201717083 L20.771653516355876,34.48366540616807 L20.286939011771462,34.77353398134563 L19.798180154470842,35.056529955239554 L19.305474382180144,35.33259691049029 L18.808919919472462,35.601679811089824 L18.308615758186026,35.86372501335359 L17.80466163768949,36.1186802766147 L17.29715802499811,36.366494773638536 L16.786206094744895,36.60711910075551 L16.271907709010712,36.84050528771007 " />

        </g>
        </g>
    </svg>
    