<?xml version='1.0' encoding='utf-8'?>
<svg width="100.09mm" height="48.252623mm" viewBox="-90.019431 -43.634282 180.162 86.854722" version="1.1" xmlns="http://www.w3.org/2000/svg">
  <g transform="scale(1,-1)" stroke-linecap="round">
    <g fill="none" stroke="rgb(0,0,0)" stroke-width="0.16199999999999998" id="Visible">
      <path d="M -89.938431,-6.648959 A 90.0,36.49048099077618 -1.7396862652098675e-15 0,1 90.061569,-6.648959" />
      <path d="M 63.728879,32.854232 A 90.0,36.49048099077618 -1.7396862652098675e-15 0,1 -89.938431,7.062801" />
      <path d="M -89.938431,7.062801 A 90.0,36.49048099077618 -1.7396862652098675e-15 0,1 90.061569,7.062801" />
      <path d="M 90.061569,7.062801 A 90.0,36.49048099077618 -1.7396862652098675e-15 0,1 63.728879,32.854232" />
      <line x1="31.890606" y1="15.658073" x2="42.501824" y2="19.956644" />
      <line x1="31.890606" y1="15.658073" x2="21.288623" y2="19.960389" />
      <line x1="31.899841" y1="15.661814" x2="31.899841" y2="24.258961" />
      <line x1="42.501824" y1="19.956644" x2="31.899841" y2="24.258961" />
      <line x1="21.288623" y1="19.960389" x2="31.899841" y2="24.258961" />
      <path d="M -26.438771,22.119036 A 7.5,3.0408734158980146 -1.7396862652098675e-15 0,1 -39.244381,19.96975" />
      <path d="M -39.244381,19.96975 A 7.5,3.0408734158980146 -1.7396862652098675e-15 0,1 -24.244381,19.96975" />
      <path d="M -24.244381,19.96975 A 7.5,3.0408734158980146 -1.7396862652098675e-15 0,1 -26.438771,22.119036" />
      <line x1="-89.938431" y1="7.062801" x2="-89.938431" y2="-6.648959" />
      <line x1="90.061569" y1="7.062801" x2="90.061569" y2="-6.648959" />
    </g>
    <g fill="none" stroke="rgb(99,99,99)" stroke-width="0.16199999999999998" id="Hidden" stroke-dasharray="0.004115 0.488057">
      <path d="M 63.728879,19.142472 A 90.0,36.49048099077618 -1.7396862652098675e-15 0,1 -89.938431,-6.648959" />
      <path d="M 90.061569,-6.648959 A 90.0,36.49048099077618 -1.7396862652098675e-15 0,1 63.728879,19.142472" />
      <line x1="31.890606" y1="1.946313" x2="31.890606" y2="15.658073" />
      <line x1="42.501824" y1="6.244885" x2="42.501824" y2="19.956644" />
      <line x1="31.890606" y1="1.946313" x2="42.501824" y2="6.244885" />
      <line x1="21.288623" y1="6.248629" x2="21.288623" y2="19.960389" />
      <line x1="31.890606" y1="1.946313" x2="21.288623" y2="6.248629" />
      <line x1="31.899841" y1="10.547201" x2="31.899841" y2="15.661814" />
      <line x1="42.501824" y1="6.244885" x2="31.899841" y2="10.547201" />
      <line x1="21.288623" y1="6.248629" x2="31.899841" y2="10.547201" />
      <path d="M -26.438771,8.407276 A 7.5,3.0408734158980146 -1.7396862652098675e-15 0,1 -39.244381,6.25799" />
      <path d="M -39.244381,6.25799 A 7.5,3.0408734158980146 -1.7396862652098675e-15 0,1 -24.244381,6.25799" />
      <path d="M -24.244381,6.25799 A 7.5,3.0408734158980146 -1.7396862652098675e-15 0,1 -26.438771,8.407276" />
      <line x1="-39.244381" y1="19.96975" x2="-39.244381" y2="6.25799" />
      <line x1="-24.244381" y1="19.96975" x2="-24.244381" y2="6.25799" />
    </g>
  </g>
</svg>