<?xml version="1.0" encoding="UTF-8" standalone="no"?>
    <svg
    xmlns:svg="http://www.w3.org/2000/svg"
    xmlns="http://www.w3.org/2000/svg"
    width="500.0"
    height="220.0"
    >
        <g transform="scale(2.516409765466772, -2.516409765466772)   translate(65.56683191622008,-35.929203595061836)" stroke-width="0.3973915590867645"  fill="none">
        <!-- hidden lines -->
        <g  stroke="rgb(160,160,160)" fill="none" stroke-dasharray="0.3973915590867645,0.3973915590867645" >
    			<path d="M44.09565954830381,27.028635061770636 L44.09565954830381,27.966187948451527 " />
			<path d="M55.56377253234472,1.8424485426350876 L44.0956595483038,27.028635061770643 " />
			<path d="M-28.31115617514914,31.017735117513297 L-28.31115617514914,31.955288004194188 " />
			<path d="M44.09565954830381,27.028635061770636 L-28.31115617514915,31.0177351175133 " />
			<path d="M-28.31115617514914,31.0177351175133 L-61.59291632535244,8.296948017350818 " />
			<path d="M35.35533905932738,-4.138208728160958 L35.35533905932738,-3.200655841480067 " />
			<path d="M-22.699524986977337,-0.9397990330328394 L-22.699524986977337,-0.0022461463519485303 " />
			<path d="M35.35533905932738,-4.138208728160958 L-22.699524986977348,-0.9397990330328403 " />
			<path d="M35.35533905932738,-3.200655841480067 L-22.699524986977348,-0.0022461463519496926 " />
			<path d="M-22.699524986977337,-0.9397990330328394 L-49.3844170297569,-19.157037188662976 " />
			<path d="M-22.699524986977337,-0.002246146351946976 L-41.42098094326056,-12.783006931480722 " />
			<path d="M44.55032620941839,-24.33217278532746 L35.35533905932737,-4.138208728160956 " />
			<path d="M40.66488629596074,-14.861444954746052 L35.35533905932737,-3.2006558414800654 " />
			<path d="M36.91968370972968,13.36068694186455 L37.30624227948866,13.336675146868588 L37.68979269788643,13.307402926483277 L38.06974355797812,13.272915416350758 L38.44550900307685,13.23326579371195 L38.81650963010231,13.188515195411103 L39.18217338297828,13.138732623627206 L39.541936434701654,13.08399483947764 L39.895244056722845,13.024386244658086 L40.24155147429693,12.959998751301239 L40.58032470648686,12.89093164025496 L40.9110413895234,12.817291407998397 L41.233191582252104,12.739191602432136 L41.54627855242572,12.656752647795578 L41.84981954262921,12.570101658981475 L42.14334651465679,12.479372245533991 L42.42640687119285,12.38470430563246 L42.69856415368423,12.286243810378545 L42.95939871532769,12.184142578719367 L43.20850836813482,12.078558043353699 L43.32854559705445,12.024510209941827 L43.44550900307685,11.969653007982155 L43.55935349458251,11.91400758597029 L43.670035182352834,11.857595396275682 L43.77751139649024,11.80043818687131 L43.8817407028683,11.742557992949438 L43.982682919105294,11.683977128426621 L44.08029913005535,11.624718177341272 L44.17455170281093,11.564803985147078 L44.265404301211056,11.50425764990565 L44.352821899849594,11.443102513381776 L44.43677079757819,11.381362152044726 L44.51721863049874,11.319060367979079 L44.594134384440245,11.25622117970856 L44.66748840691541,11.192868812936446 L44.73725241855222,11.129027691206094 L44.803399523996156,11.064722426485202 L44.865904222278914,10.99997780967743 L44.924742416649465,10.934818801065024 L44.97989142386385,10.869270520686165 L45.031329982929975,10.803358238650704 L45.07903826330414,10.737107365398069 L45.122997872536104,10.670543441901039 L45.163191863359685,10.60369212981922 L45.19960474022629,10.536579201606 L45.232222465278745,10.469230530572768 " />
			<path d="M36.91968370972968,14.29823982854544 L37.30624227948866,14.274228033549479 L37.68979269788643,14.244955813164168 L38.06974355797812,14.210468303031648 L38.44550900307685,14.170818680392841 L38.81650963010231,14.126068082091994 L39.18217338297828,14.076285510308097 L39.541936434701654,14.02154772615853 L39.895244056722845,13.961939131338976 L40.24155147429693,13.89755163798213 L40.58032470648686,13.828484526935851 L40.9110413895234,13.754844294679287 L41.233191582252104,13.676744489113027 L41.54627855242572,13.594305534476469 L41.84981954262921,13.507654545662366 L42.14334651465679,13.416925132214882 L42.42640687119285,13.322257192313351 L42.69856415368423,13.223796697059436 L42.95939871532769,13.121695465400258 L43.20850836813482,13.01611093003459 L43.32854559705445,12.962063096622717 L43.44550900307685,12.907205894663045 L43.55935349458251,12.851560472651181 L43.670035182352834,12.795148282956573 L43.77751139649024,12.7379910735522 L43.8817407028683,12.680110879630329 L43.982682919105294,12.621530015107512 L44.08029913005535,12.562271064022163 L44.17455170281093,12.502356871827969 L44.265404301211056,12.44181053658654 L44.352821899849594,12.380655400062667 L44.43677079757819,12.318915038725617 L44.51721863049874,12.25661325465997 L44.594134384440245,12.19377406638945 L44.66748840691541,12.130421699617337 L44.73725241855222,12.066580577886985 L44.803399523996156,12.002275313166093 L44.865904222278914,11.937530696358321 L44.924742416649465,11.872371687745915 L44.97989142386385,11.806823407367055 L45.031329982929975,11.740911125331595 L45.07903826330414,11.67466025207896 L45.122997872536104,11.60809632858193 L45.163191863359685,11.541245016500111 L45.19960474022629,11.47413208828689 L45.232222465278745,11.406783417253658 " />
			<path d="M36.919683709729696,13.36068694186455 L-21.13518033657503,16.559096636992667 " />
			<path d="M36.919683709729696,14.29823982854544 L-21.13518033657503,17.496649523673558 " />
			<path d="M-31.609590228861016,14.702667345033765 L-31.51873763046089,14.763213680275193 L-31.42448505770531,14.823127872469387 L-31.326868846755257,14.882386823554736 L-31.22592663051826,14.940967688077553 L-31.121697324140207,14.998847881999426 L-31.014221110002794,15.056005091403799 L-30.903539422232477,15.112417281098407 L-30.789694930726814,15.168062703110271 L-30.67273152470441,15.222919905069944 L-30.55269429578479,15.276967738481815 L-30.30358464297765,15.382552273847484 L-30.042750081334198,15.484653505506662 L-29.770592798842817,15.583114000760578 L-29.487532442306758,15.677781940662108 L-29.194005470279176,15.768511354109592 L-28.89046448007568,15.855162342923695 L-28.57737750990207,15.937601297560255 L-28.255227317173365,16.015701103126514 L-27.92451063413683,16.08934133538308 L-27.58573740194689,16.158408446429355 L-27.23942998437281,16.222795939786202 L-26.88612236235162,16.282404534605757 L-26.526359310628237,16.337142318755326 L-26.160695557752266,16.38692489053922 L-25.78969493072681,16.431675488840067 L-25.41392948562808,16.471325111478876 L-25.033978625536392,16.505812621611394 L-24.65042820713862,16.535084841996706 L-24.263869637379646,16.559096636992667 L-23.874898961555715,16.577810982151806 L-23.484115944255787,16.59119902131033 L-23.092123144568024,16.59924011108224 L-22.699524986977337,16.601921852689937 L-22.30692682938665,16.59924011108224 L-21.914934029698887,16.59119902131033 L-21.52415101239896,16.577810982151806 L-21.13518033657505,16.55909663699267 " />
			<path d="M-31.609590228861016,15.64022023171466 L-31.51873763046089,15.700766566956087 L-31.42448505770531,15.760680759150281 L-31.326868846755257,15.81993971023563 L-31.22592663051826,15.878520574758447 L-31.121697324140207,15.93640076868032 L-31.014221110002794,15.993557978084693 L-30.903539422232477,16.049970167779303 L-30.789694930726814,16.105615589791164 L-30.67273152470441,16.160472791750838 L-30.55269429578479,16.21452062516271 L-30.30358464297765,16.320105160528378 L-30.042750081334198,16.422206392187558 L-29.770592798842817,16.52066688744147 L-29.487532442306758,16.615334827343002 L-29.194005470279176,16.706064240790486 L-28.89046448007568,16.79271522960459 L-28.57737750990207,16.875154184241147 L-28.255227317173365,16.953253989807408 L-27.92451063413683,17.026894222063973 L-27.58573740194689,17.09596133311025 L-27.23942998437281,17.160348826467096 L-26.88612236235162,17.21995742128665 L-26.526359310628237,17.274695205436217 L-26.160695557752266,17.324477777220118 L-25.78969493072681,17.36922837552096 L-25.41392948562808,17.40887799815977 L-25.033978625536392,17.44336550829229 L-24.65042820713862,17.4726377286776 L-24.263869637379646,17.49664952367356 L-23.874898961555715,17.5153638688327 L-23.484115944255787,17.528751907991225 L-23.092123144568024,17.536792997763133 L-22.699524986977337,17.53947473937083 L-22.30692682938665,17.536792997763133 L-21.914934029698887,17.528751907991225 L-21.52415101239896,17.5153638688327 L-21.13518033657505,17.496649523673565 " />
			<path d="M-31.609590228861016,14.702667345033765 L-58.29448227164057,-3.51457081059637 " />
			<path d="M-31.609590228861016,15.640220231714656 L-48.855941632464244,3.866483604583062 " />
			<path d="M-59.38441702975689,-5.093743888449607 L-59.38333274222797,-5.042521665403554 L-59.3800801147771,-4.991310550281032 L-59.37465985276096,-4.940121648596734 L-59.367073131604045,-4.888966061048204 L-59.35732159654379,-4.837854881108563 L-59.34540736227376,-4.786799192620812 L-59.33133301248508,-4.735810067394212 L-59.31510159930615,-4.684898562803282 L-59.296716642640746,-4.634075719389923 L-59.2761821294047,-4.583352558469194 L-59.228682710655804,-4.482249258896015 L-59.172644543247614,-4.3816763593666295 L-59.108116233733654,-4.281721095103945 L-59.03515375287236,-4.182470165604538 L-58.95382038707898,-4.08400965943699 L-58.864186683532,-3.986424979570124 L-58.766330388981736,-3.889800769295922 L-58.660336382314135,-3.7942208388113734 L-58.54629660092825,-3.699768092522936 L-58.42430996099132,-3.606524457136662 L-58.294482271640575,-3.514570810596368 " />
			<path d="M54.42720961536976,-9.724733526593749 L54.45601961385416,-9.792291976252296 L54.48101077896765,-9.86003415946777 L54.50217347614036,-9.927933960339004 L54.519499546749664,-9.995965202200237 L54.53298231126554,-10.064101657712692 L54.54261657182562,-10.132317058975735 L54.548398614239034,-10.20058510765364 L54.55032620941839,-10.268879485114082 " />
			<path d="M54.42720961536977,-9.72473352659375 L45.23222246527875,10.469230530572753 " />
			<path d="M50.03348331329983,0.8622891823640723 L45.23222246527875,11.406783417253644 " />

        </g>

        <!-- solid lines -->
        <g  stroke="rgb(0,0,0)" fill="none">
    			<path d="M55.563772532344736,1.8424485426350863 L55.563772532344736,2.780001429315977 " />
			<path d="M55.56377253234472,2.7800014293159783 L44.0956595483038,27.966187948451534 " />
			<path d="M44.09565954830381,27.966187948451527 L-28.31115617514915,31.95528800419419 " />
			<path d="M-61.59291632535244,8.296948017350825 L-61.59291632535244,9.234500904031716 " />
			<path d="M-28.31115617514914,31.95528800419419 L-61.59291632535244,9.234500904031709 " />
			<path d="M-9.75535958014695,-9.734370717442413 L-9.75535958014695,-8.796817830761523 " />
			<path d="M-61.592916325352434,8.296948017350822 L-9.755359580146957,-9.734370717442413 " />
			<path d="M-61.592916325352434,9.234500904031712 L-9.755359580146957,-8.796817830761523 " />
			<path d="M-9.755359580146955,-9.734370717442415 L55.563772532344736,1.8424485426350936 " />
			<path d="M-9.755359580146955,-8.796817830761524 L55.563772532344736,2.7800014293159845 " />
			<path d="M-49.38441702975689,-19.157037188662972 L-49.38441702975689,-18.21948430198208 " />
			<path d="M-41.42098094326056,-12.783006931480722 L-49.3844170297569,-18.219484301982085 " />
			<path d="M-7.821723252011546,-33.61431924512196 L-7.821723252011546,-32.67676635844107 " />
			<path d="M-49.38441702975689,-19.157037188662972 L-7.821723252011554,-33.61431924512196 " />
			<path d="M-49.38441702975689,-18.21948430198208 L-7.821723252011554,-32.67676635844107 " />
			<path d="M44.55032620941839,-24.33217278532746 L44.55032620941839,-23.39461989864657 " />
			<path d="M-7.821723252011546,-33.61431924512196 L44.550326209418394,-24.33217278532746 " />
			<path d="M-7.821723252011546,-32.67676635844107 L44.550326209418394,-23.39461989864657 " />
			<path d="M44.55032620941839,-23.39461989864657 L40.66488629596074,-14.861444954746052 " />
			<path d="M-48.855941632464244,3.866483604583062 L-58.29448227164057,-2.5770179239154793 " />
			<path d="M-56.45548484162236,-7.553363622029666 L-56.62688785927155,-7.492260740590211 L-56.79392828330647,-7.42971308228535 L-56.95650549482173,-7.365758323485636 L-57.11452156338425,-7.300434988146348 L-57.26788130602294,-7.233782424602097 L-57.41649234456333,-7.165840781864864 L-57.560265161272724,-7.096650985439727 L-57.69911315278234,-7.026254712672888 L-57.83295268225395,-6.954694367646769 L-57.96170312975961,-6.8820130556374 L-58.085286940844,-6.808254557149411 L-58.20362967324044,-6.73346330154428 L-58.31666004171204,-6.6576843402777595 L-58.42430996099132,-6.5809633197625566 L-58.526514586792196,-6.503346453872648 L-58.62321235486975,-6.4248804961057635 L-58.714345018104275,-6.345612711420831 L-58.79985768158709,-6.2655908477673306 L-58.87969883568725,-6.184863107323717 L-58.95382038707898,-6.103478117462229 L-59.022177687711284,-6.02148490145758 L-59.084729561702325,-5.9389328489571644 L-59.14143833014217,-5.8558716862305875 L-59.19226983378919,-5.772351446216424 L-59.2371934536463,-5.688422438384233 L-59.2761821294047,-5.604135218430021 L-59.30921237574399,-5.519540557823394 L-59.33626429647886,-5.434689413224698 L-59.35732159654379,-5.349632895790652 L-59.372371591808616,-5.2644222403868906 L-59.38140521671893,-5.1791087747259965 L-59.38441702975689,-5.093743888449639 " />
			<path d="M-56.45548484162236,-6.615810735348775 L-56.62688785927155,-6.554707853909321 L-56.79392828330647,-6.492160195604459 L-56.95650549482173,-6.428205436804745 L-57.11452156338425,-6.362882101465457 L-57.26788130602294,-6.2962295379212065 L-57.41649234456333,-6.228287895183973 L-57.560265161272724,-6.159098098758836 L-57.69911315278234,-6.088701825991997 L-57.83295268225395,-6.017141480965878 L-57.96170312975961,-5.9444601689565095 L-58.085286940844,-5.87070167046852 L-58.20362967324044,-5.795910414863389 L-58.31666004171204,-5.720131453596869 L-58.42430996099132,-5.643410433081666 L-58.526514586792196,-5.565793567191758 L-58.62321235486975,-5.487327609424873 L-58.714345018104275,-5.40805982473994 L-58.79985768158709,-5.32803796108644 L-58.87969883568725,-5.247310220642826 L-58.95382038707898,-5.165925230781339 L-59.022177687711284,-5.083932014776689 L-59.084729561702325,-5.001379962276274 L-59.14143833014217,-4.918318799549697 L-59.19226983378919,-4.834798559535534 L-59.2371934536463,-4.750869551703342 L-59.2761821294047,-4.66658233174913 L-59.30921237574399,-4.581987671142503 L-59.33626429647886,-4.497136526543807 L-59.35732159654379,-4.412080009109761 L-59.372371591808616,-4.326869353706 L-59.38140521671893,-4.241555888045106 L-59.38441702975689,-4.1561910017687484 " />
			<path d="M-59.38441702975689,-4.1561910017687165 L-59.38333274222797,-4.104968778722664 L-59.3800801147771,-4.053757663600141 L-59.37465985276096,-4.002568761915843 L-59.367073131604045,-3.951413174367313 L-59.35732159654379,-3.9003019944276724 L-59.34540736227376,-3.8492463059399213 L-59.33133301248508,-3.798257180713321 L-59.31510159930615,-3.747345676122391 L-59.296716642640746,-3.696522832709032 L-59.2761821294047,-3.645799671788303 L-59.228682710655804,-3.544696372215124 L-59.172644543247614,-3.4441234726857393 L-59.108116233733654,-3.3441682084230546 L-59.03515375287236,-3.244917278923648 L-58.95382038707898,-3.1464567727560997 L-58.864186683532,-3.0488720928892334 L-58.766330388981736,-2.952247882615031 L-58.660336382314135,-2.8566679521304827 L-58.54629660092825,-2.7622152058420455 L-58.42430996099132,-2.6689715704557715 L-58.294482271640575,-2.577017923915477 " />
			<path d="M-56.45548484162236,-7.553363622029666 L-14.892791063877029,-22.010645678488654 " />
			<path d="M-56.45548484162236,-6.615810735348775 L-14.892791063877029,-21.073092791807763 " />
			<path d="M-3.281818254616077,-22.650327617514275 L-3.6351258766372574,-22.709936212333826 L-3.994888928360643,-22.764673996483396 L-4.360552681236612,-22.814456568267293 L-4.731553308262071,-22.85920716656814 L-5.107318753360804,-22.89885678920695 L-5.4872696134524945,-22.933344299339467 L-5.870820031850268,-22.96261651972478 L-6.257378601609235,-22.98662831472074 L-6.646349277433162,-23.00534265987988 L-7.03713229473309,-23.018730699038404 L-7.429125094420856,-23.02677178881031 L-7.8217232520115445,-23.02945353041801 L-8.214321409602233,-23.02677178881031 L-8.606314209289998,-23.018730699038404 L-8.997097226589927,-23.00534265987988 L-9.386067902413853,-22.98662831472074 L-9.77262647217282,-22.96261651972478 L-10.156176890570594,-22.933344299339467 L-10.536127750662285,-22.89885678920695 L-10.911893195761019,-22.85920716656814 L-11.282893822786477,-22.814456568267293 L-11.648557575662446,-22.764673996483396 L-12.008320627385832,-22.70993621233383 L-12.361628249407012,-22.650327617514275 L-12.707935666981088,-22.585940124157432 L-13.04670889917103,-22.51687301311115 L-13.377425582207565,-22.443232780854586 L-13.699575774936275,-22.365132975288326 L-14.012662745109886,-22.282694020651768 L-14.316203735313383,-22.196043031837664 L-14.609730707340965,-22.10531361839018 L-14.892791063876956,-22.01064567848867 " />
			<path d="M-3.281818254616077,-21.712774730833384 L-3.6351258766372574,-21.772383325652935 L-3.994888928360643,-21.827121109802505 L-4.360552681236612,-21.876903681586402 L-4.731553308262071,-21.92165427988725 L-5.107318753360804,-21.96130390252606 L-5.4872696134524945,-21.995791412658576 L-5.870820031850268,-22.02506363304389 L-6.257378601609235,-22.04907542803985 L-6.646349277433162,-22.06778977319899 L-7.03713229473309,-22.081177812357513 L-7.429125094420856,-22.08921890212942 L-7.8217232520115445,-22.09190064373712 L-8.214321409602233,-22.08921890212942 L-8.606314209289998,-22.081177812357513 L-8.997097226589927,-22.06778977319899 L-9.386067902413853,-22.04907542803985 L-9.77262647217282,-22.02506363304389 L-10.156176890570594,-21.995791412658576 L-10.536127750662285,-21.96130390252606 L-10.911893195761019,-21.92165427988725 L-11.282893822786477,-21.876903681586402 L-11.648557575662446,-21.827121109802505 L-12.008320627385832,-21.77238332565294 L-12.361628249407012,-21.712774730833384 L-12.707935666981088,-21.64838723747654 L-13.04670889917103,-21.57932012643026 L-13.377425582207565,-21.505679894173696 L-13.699575774936275,-21.427580088607435 L-14.012662745109886,-21.345141133970877 L-14.316203735313383,-21.258490145156774 L-14.609730707340965,-21.16776073170929 L-14.892791063876956,-21.07309279180778 " />
			<path d="M-3.2818182546160837,-22.650327617514275 L49.09023120681386,-13.368181157719773 " />
			<path d="M-3.2818182546160837,-21.712774730833384 L49.09023120681386,-12.430628271038882 " />
			<path d="M54.55032620941839,-10.268879485114098 L54.54885038324633,-10.328637965357668 L54.54442334034276,-10.388378806975409 L54.537046387416815,-10.4480843765478 L54.52672170188855,-10.507737051066405 L54.51345233124617,-10.567319223135566 L54.49724219214658,-10.626813306169494 L54.478096069259294,-10.686201739583227 L54.45601961385416,-10.745466993975898 L54.431019342133304,-10.804591576304796 L54.403102633307796,-10.86355803504872 L54.372277727419544,-10.922348965359056 L54.33855372290911,-10.980947014197076 L54.301940573930196,-11.03933488545596 L54.262449087411504,-11.097495345065996 L54.220090919866905,-11.155411226081492 L54.17487857395486,-11.213065433747857 L54.12682539478804,-11.270440950547366 L54.07594556599434,-11.327520841222153 L54.02225410553036,-11.384288257772907 L53.965766861248596,-11.440726444431817 L53.906500506219764,-11.496818742608289 L53.844472533811434,-11.552548595805979 L53.77970125252462,-11.607899554509705 L53.71220578058975,-11.662855281040772 L53.569122752249,-11.771516274951974 L53.41539236886585,-11.87840329521545 L53.2511961205055,-11.9833901538139 L53.07672785295931,-12.08635290601113 L52.89219353889551,-12.187169996677962 L52.69781103469328,-12.28572240379704 L52.4938098232472,-12.3818937789771 L52.280430743045756,-12.475570584810837 L52.05792570384373,-12.566642228914201 L51.82655738926413,-12.655001194488866 L51.586598946680816,-12.74054316725374 L51.33833366474781,-12.823167158595684 L51.08205463895616,-12.902775624794018 L50.81806442561308,-12.979274582178087 L50.546674684651904,-13.052573718081918 L50.268205811694514,-13.12258649746499 L49.98298655980063,-13.18923026507324 L49.6913536513506,-13.25242634301969 L49.3936513805198,-13.312100123669499 L49.09023120681393,-13.368181157719764 " />
			<path d="M54.42720961536976,-8.787180639912858 L54.45601961385416,-8.854739089571405 L54.48101077896765,-8.922481272786879 L54.50217347614036,-8.990381073658114 L54.519499546749664,-9.058412315519346 L54.53298231126554,-9.126548771031802 L54.54261657182562,-9.194764172294844 L54.548398614239034,-9.263032220972748 L54.55032620941839,-9.331326598433192 " />
			<path d="M54.55032620941839,-9.331326598433208 L54.54885038324633,-9.391085078676777 L54.54442334034276,-9.450825920294518 L54.537046387416815,-9.51053148986691 L54.52672170188855,-9.570184164385514 L54.51345233124617,-9.629766336454676 L54.49724219214658,-9.689260419488603 L54.478096069259294,-9.748648852902337 L54.45601961385416,-9.807914107295007 L54.431019342133304,-9.867038689623906 L54.403102633307796,-9.92600514836783 L54.372277727419544,-9.984796078678166 L54.33855372290911,-10.043394127516185 L54.301940573930196,-10.101781998775069 L54.262449087411504,-10.159942458385105 L54.220090919866905,-10.217858339400602 L54.17487857395486,-10.275512547066967 L54.12682539478804,-10.332888063866475 L54.07594556599434,-10.389967954541262 L54.02225410553036,-10.446735371092016 L53.965766861248596,-10.503173557750927 L53.906500506219764,-10.559265855927398 L53.844472533811434,-10.614995709125088 L53.77970125252462,-10.670346667828815 L53.71220578058975,-10.72530239435988 L53.569122752249,-10.833963388271084 L53.41539236886585,-10.94085040853456 L53.2511961205055,-11.04583726713301 L53.07672785295931,-11.14880001933024 L52.89219353889551,-11.249617109997072 L52.69781103469328,-11.34816951711615 L52.4938098232472,-11.444340892296209 L52.280430743045756,-11.538017698129947 L52.05792570384373,-11.62908934223331 L51.82655738926413,-11.717448307807976 L51.586598946680816,-11.80299028057285 L51.33833366474781,-11.885614271914793 L51.08205463895616,-11.965222738113127 L50.81806442561308,-12.041721695497197 L50.546674684651904,-12.115020831401027 L50.268205811694514,-12.1850336107841 L49.98298655980063,-12.25167737839235 L49.6913536513506,-12.3148734563388 L49.3936513805198,-12.374547236988608 L49.09023120681393,-12.430628271038874 " />
			<path d="M54.42720961536977,-8.78718063991286 L50.03348331329983,0.8622891823640723 " />
			<path d="M-56.45548484162236,-7.553363622029666 L-56.45548484162236,-6.615810735348775 " />
			<path d="M-14.892791063877025,-22.01064567848865 L-14.892791063877025,-21.07309279180776 " />
			<path d="M-3.28181825461608,-22.650327617514275 L-3.28181825461608,-21.712774730833384 " />
			<path d="M49.09023120681386,-13.368181157719778 L49.09023120681386,-12.430628271038888 " />
			<path d="M-59.38441702975689,-4.1561910017687165 L-59.38441702975689,-5.093743888449607 " />
			<path d="M54.550326209418394,-9.331326598433206 L54.550326209418394,-10.268879485114097 " />

        </g>
        </g>
    </svg>
    