<?xml version='1.0' encoding='utf-8'?>
<svg width="100.09mm" height="60.218266mm" viewBox="-56.619454 -35.557578 113.238908 68.129191" version="1.1" xmlns="http://www.w3.org/2000/svg">
  <g transform="scale(1,-1)" stroke-linecap="round">
    <g fill="none" stroke="rgb(0,0,0)" stroke-width="0.10182337649086286" id="Visible">
      <line x1="0.0" y1="-32.520701" x2="0.0" y2="-23.441802" />
      <line x1="0.0" y1="-23.441802" x2="-56.568542" y2="0.272225" />
      <line x1="-56.568542" y1="-8.806674" x2="-56.568542" y2="0.272225" />
      <line x1="0.0" y1="-32.520701" x2="-56.568542" y2="-8.806674" />
      <line x1="0.0" y1="-32.520701" x2="56.568542" y2="-8.806674" />
      <line x1="56.568542" y1="-8.806674" x2="56.568542" y2="0.272225" />
      <line x1="0.0" y1="-23.441802" x2="56.568542" y2="0.272225" />
      <line x1="-56.568542" y1="0.272225" x2="-14.078212" y2="18.084542" />
      <line x1="56.568542" y1="0.272225" x2="15.029801" y2="17.685628" />
      <path d="M 22.365526,1.611628 L 22.363928,1.615131" />
      <path d="M 22.363928,1.615131 L 22.362527,1.618199" />
      <path d="M -21.94681,1.733457 C -22.407431,0.81426 -22.551594,-0.132406 -22.365526,-1.067179" />
      <path d="M -22.365526,-1.067179 C -21.916284,-2.054464 -21.106377,-3.013256 -19.977961,-3.901295 C -18.852115,-4.7882 -17.40907,-5.604489 -15.713484,-6.315005 C -12.325232,-7.740068 -7.905696,-8.729665 -3.195075,-9.103599" />
      <path d="M -3.195075,-9.103599 C 0.214783,-9.223527 3.687938,-9.01683 6.897818,-8.513216 C 10.098552,-8.013006 13.036348,-7.218952 15.451593,-6.205218 C 17.8698,-5.192726 19.763974,-3.961177 20.957198,-2.619401 C 22.158542,-1.273791 22.651607,0.182186 22.365526,1.611628" />
      <line x1="8.249579" y1="32.542413" x2="4.714045" y2="34.024539" />
      <path d="M 22.365526,1.611628 L 22.341419,1.66445" />
      <path d="M 22.341419,1.66445 L 8.249579,32.542413" />
      <line x1="4.714045" y1="34.024539" x2="1.178511" y2="35.506666" />
      <path d="M -22.365526,-1.067179 L -14.186573,17.834124" />
      <path d="M -14.186573,17.834124 L -8.249579,31.554328" />
      <line x1="-8.249579" y1="31.554328" x2="1.178511" y2="35.506666" />
      <path d="M -3.195075,-9.103599 L -1.178511,28.590075" />
      <line x1="-1.178511" y1="28.590075" x2="-8.249579" y2="31.554328" />
      <line x1="-1.178511" y1="28.590075" x2="8.249579" y2="32.542413" />
      <path d="M 22.341419,1.66445 L 22.363928,1.615131" />
      <path d="M -14.186573,17.834124 C -14.796944,16.424506 -15.529048,14.846502 -16.29078,13.243331 C -17.318849,11.081299 -18.411832,8.849249 -19.522421,6.602817 C -20.321668,4.987759 -21.129798,3.364639 -21.94681,1.733457" />
    </g>
    <g fill="none" stroke="rgb(99,99,99)" stroke-width="0.10182337649086286" id="Hidden" stroke-dasharray="0.002586 0.306763">
      <line x1="-14.078212" y1="18.084542" x2="0.0" y2="23.986251" />
      <line x1="15.029801" y1="17.685628" x2="0.0" y2="23.986251" />
      <path d="M 22.362527,1.618199 C 21.913592,2.601194 21.107117,3.55584 19.984727,4.440413 C 18.857893,5.329376 17.412469,6.147515 15.713484,6.859454" />
      <path d="M 15.713484,6.859454 C 12.325237,8.284515 7.905702,9.274114 3.195075,9.648048" />
      <path d="M 3.195075,9.648048 C -0.214783,9.767976 -3.687938,9.561279 -6.897818,9.057665 C -10.098552,8.557455 -13.036348,7.763401 -15.451593,6.749667 C -18.712689,5.386697 -21.008207,3.621775 -21.94681,1.733457" />
      <line x1="-56.568542" y1="-8.806674" x2="0.0" y2="14.907352" />
      <line x1="0.0" y1="14.907352" x2="0.0" y2="23.986251" />
      <line x1="56.568542" y1="-8.806674" x2="0.0" y2="14.907352" />
      <path d="M 3.195075,9.648048 L 1.178511,35.506666" />
    </g>
  </g>
</svg>