<?xml version="1.0" encoding="UTF-8" standalone="no"?>
    <svg
    xmlns:svg="http://www.w3.org/2000/svg"
    xmlns="http://www.w3.org/2000/svg"
    width="500"
    height="281"
    >
        <g transform="scale(4, -4)   translate(62.5,-35.13975015553153)" stroke-width="0.25"  fill="none">
        <!-- hidden lines -->
        <g  stroke="rgb(160,160,160)" fill="none" stroke-dasharray="0.25,0.25" >
    			<path d="M42.426406871192846,7.364596943186587 L42.0341276365949,7.516404473630576 L41.63828765337924,7.666795455708531 L41.23892045350554,7.81575714966559 L40.83605986772718,7.963276936823185 L40.429740022725355,8.109342320647954 L40.01999533821825,8.253940927810348 L39.606860524045224,8.397060509232784 L39.1903705772266,8.538688941127276 L38.77056077899898,8.678814226022446 L38.34746669182654,8.817424493779846 L37.92112415638853,8.9545080025995 L37.491569288543175,9.090053140014525 L37.058838476268235,9.224048423874883 L36.622968376578555,9.356482503320006 L36.18399591242088,9.48734415974035 L35.741958269546,9.616622307727738 L35.29689289335872,9.744305996014422 L34.848837485745875,9.870384408400739 L34.397830001882525,9.994846864671409 L33.943908647016784,10.117682821500235 L33.48711187323336,10.238881873343239 L33.027478376196285,10.358433753320138 L32.565047091870944,10.476328334084055 L32.09985719322583,10.592555628679406 L31.631948086914072,10.707105791387924 L31.161359409935372,10.819969118562675 L30.68813102627823,10.931136049450082 L30.212303023543054,11.040597166999817 L29.73391570954635,11.148343198662527 L29.25300960890615,11.254365017175324 L28.76962545960917,11.358653641334957 L28.283804209559854,11.461200236758618 L27.795587013111614,11.561996116632326 L27.30501522758063,11.661032742446775 L26.812130409742448,11.758301724720646 L26.31697431231165,11.853794823711297 L25.819588880404943,11.947503950112736 L25.320016247987976,12.039421165740897 L24.818298734306072,12.129538684206079 L24.31447884029939,12.21784887157255 L23.80859924500261,12.304344247005194 L23.300702801929567,12.389017483403261 L22.790832535443055,12.471861408021017 L22.279031637110247,12.552869003075372 L21.765343462043834,12.632033406340366 L21.249811525229422,12.709347911728457 L20.732479497839336,12.784805969858617 L20.213391203533188,12.858401188611122 L19.692590614745534,12.930127333669052 L19.17012184896093,12.999978329046378 L18.64602916497669,13.067948257602698 L18.12035695915368,13.134031361544455 L17.593149761655507,13.198222042912697 L17.064452232676295,13.260514864057289 L16.534309158657468,13.320904548097534 L16.002765448493893,13.379385979369175 L15.469866129729535,13.435954203857776 L14.935656344743203,13.490604429618344 L14.400181346924477,13.54333202718129 L13.86348649684025,13.59413252994457 L13.32561725839219,13.643001634552082 L12.786619194965468,13.689935201258177 L12.246537965569008,13.734929254278367 L11.705419320967687,13.777979982126102 L11.163309099806785,13.819083737935653 L10.62025322472892,13.858237039771026 L10.076297698483874,13.895436570920943 L9.531488600031683,13.93067918017979 L8.985872080639284,13.96396188211455 L8.439494359970944,13.995281857317725 L7.344640511952964,14.052023181445737 L6.24729803232327,14.100883926537353 L5.14783874066638,14.141847536793204 L4.046635173819833,14.174900132250713 L2.9440604596450743,14.200030513487143 L1.840488190598195,14.217230165414382 L0.7362922971431967,14.226493260164148 L-0.3681530789492769,14.227816659062679 L-1.472473711374742,14.22119991369425 L-2.57629541609645,14.20664526605309 L-3.679244178132525,14.184157647783742 L-4.780946278285814,14.153744678510002 L-5.881028419773639,14.115416663253157 L-6.979117854714286,14.069186588940223 L-8.074842510427567,14.015070120003546 L-8.621701989017666,13.985060113529162 L-9.167831115506612,13.953085593073094 L-9.71318362680672,13.919149267225631 L-10.257713325618075,13.883254010763341 L-10.801374084341964,13.845402864405568 L-11.34411984898837,13.805599034556831 L-11.885904643077216,13.763845893035231 L-12.42668257153312,13.720146976786793 L-12.966407824573182,13.67450598758587 L-13.505034681587574,13.626926791721562 L-14.0425175150126,13.57741341967018 L-14.578810794195832,13.525970065753835 L-15.113869089253022,13.47260108778514 L-15.647647074916527,13.41731100669804 L-16.180099534374893,13.360104506164848 L-16.711181363103176,13.30098643219948 L-17.240847572683766,13.23996179274696 L-17.769053294617432,13.17703575725918 L-18.295753784124148,13.11221365625699 L-18.820904423933484,13.045500980878654 L-19.34446072806418,12.976903382414683 L-19.86637834559258,12.906426671829102 L-20.386613064409612,12.834076819267228 L-20.90512081496608,12.759859953549896 L-21.421857674005807,12.683782361654306 L-21.936779868286433,12.605850488181442 L-22.449843778287473,12.526070934810136 L-22.961005941905384,12.44445045973784 L-23.470223058135232,12.360995977108136 L-23.9774519907388,12.275714556425033 L-24.482649771898704,12.188613421954095 L-24.98577360585822,12.099699952110463 L-25.48678087254652,12.008981678833848 L-25.985629131189114,11.916466286950467 L-26.482276123903002,11.82216161352207 L-26.976679779276402,11.72607564718204 L-27.468798215932644,11.628216527458697 L-27.958589746077983,11.528592544085754 L-28.446012879033017,11.42721213630011 L-28.931026324747364,11.324083892126964 L-29.41358899729745,11.21921654765228 L-29.893660018366894,11.11261898628278 L-30.37119872070931,11.004300237993405 L-30.8461646515933,10.894269478562386 L-31.318517576229258,10.782536028793949 L-31.788217481177682,10.669109353728743 L-32.25522457773874,10.55399906184206 L-32.71949930532279,10.437214904229862 L-33.18100233480167,10.318766773782794 L-33.639694571840174,10.198664704348122 L-34.09553716020792,10.07691886987977 L-34.54849148507072,9.953539583576472 L-34.99851917626189,9.828537297008126 L-35.445582111532445,9.701922599230425 L-35.88964241978053,9.573706215887885 L-36.33066248425953,9.44389900830523 L-36.76860494576458,9.312511972567329 L-37.203432705797354,9.179556238587711 L-37.63510892970865,9.045043069165747 L-38.06359704981874,8.908983859032539 L-38.488860768515,8.771390133885706 L-38.91086406132677,8.632273549413 L-39.329571179976945,8.491645890304945 L-39.74494665541032,8.349519069256562 L-40.15695530079815,8.205905125958218 L-40.56556221451895,8.060816226075726 L-40.970732783114876,7.914264660219811 L-41.372432684224016,7.766262842904943 L-41.77062788948778,7.616823311497686 L-42.165284667433525,7.46595872515465 L-42.55636958633195,7.3136818637501335 L-42.94384951702913,7.160005626793513 L-43.327691635752934,7.004943032336534 L-43.70786342689353,6.848507215870509 L-44.08433268575783,6.690711429213639 L-44.45706752129755,6.531569039388408 L-44.8260363588108,6.3710935274892595 L-45.19120794261674,6.209298487540593 L-45.55255133870328,6.046197625345233 L-45.91003593734754,5.881804757323362 L-46.26363145570883,5.716133809342141 L-46.61330794039395,5.549198815536029 L-46.95903576999456,5.381013917117929 L-47.300785657596386,5.211593361181302 L-47.638528653260245,5.0409514994932465 L-47.97223614647432,4.869102787278779 L-48.30187986857784,4.6960617819962955 L-48.6274318951557,4.521843142104421 L-48.94886464840402,4.346461625820247 L-49.26615089946628,4.1699320898691585 L-49.579263770739814,3.992269488226345 L-49.88817673815272,3.8134888708499872 L-50.192863633410724,3.633605382406378 L-50.493298646213916,3.4526342609870184 L-50.78945632644314,3.2705908368177674 L-51.08131158631591,3.087490530960215 L-51.36883970251166,2.903348854005335 L-51.65201631826603,2.7181814047595783 L-51.93081744543414,2.5320038689235 L-52.20521946652268,2.344832017762993 L-52.47519913669057,2.156681706773286 L-52.74073358571801,1.9675688743358215 L-53.001800319943904,1.7775095403680918 L-53.25837722417124,1.586519804966585 L-53.51044256354057,1.3946158470429264 L-53.75797498537112,1.2018139229533542 L-54.000953520969624,1.0081303651216196 L-54.2393575874066,0.8135815806554731 L-54.473166989259965,0.6181840499567652 L-54.702361920325785,0.42195432532540345 L-54.926922965296065,0.2249090295572067 L-55.146831101403464,0.027064854535744587 L-55.36206770003272,-0.1715614401816321 L-55.572614528298686,-0.3709530287835161 L-55.77845375059088,-0.5710930206297657 L-55.979567930084336,-0.7719644616823338 L-56.1759400302167,-0.9735503359414501 L-56.3675534161314,-1.175833566887075 L-56.55439185608682,-1.378797018925452 L-56.73643952283128,-1.5824234988406793 L-56.91368099494382,-1.7866957572511906 L-57.0861012581405,-1.9915964900709406 L-57.253685706546335,-2.1971083399752382 L-57.41642014393253,-2.4032138978711233 L-57.57429078491907,-2.6098957043721045 L-57.727284256142504,-2.817136251277147 L-57.875387597388766,-3.024917983053821 L-58.018588262691125,-3.2332232983254325 L-58.1568741213929,-3.4420345513620756 L-58.2902334591751,-3.6513340535754066 L-58.41865497904871,-3.8611040750170362 L-58.54212780231171,-4.071326845880478 L-58.6606414694706,-4.281984558006437 L-58.77418594112643,-4.493059366391356 L-58.88275159882527,-4.704533390699078 L-58.98632924587298,-4.916388716775507 L-59.08491010811425,-5.128607398166134 L-59.17848583467592,-5.341171457636295 L-59.26704849867433,-5.55406288869404 L-59.350590597886864,-5.767263657115467 L-59.42910505538742,-5.98075570247245 L-59.502585220145974,-6.1945209396625325 L-59.57102486759191,-6.408541260440914 L-59.63441820014136,-6.622798534954443 L-59.692759847688336,-6.837274613277405 L-59.74604486805959,-7.05195132694902 L-59.79426874743329,-7.266810490512507 L-59.83742740072141,-7.48183390305559 L-59.87551717191576,-7.6970033497523165 L-59.908534834397685,-7.9123006034060515 L-59.936477591211414,-8.127707425993513 L-59.95934307530097,-8.343205570209731 L-59.977129349710715,-8.558776781013817 L-59.989834907749405,-8.774402797175346 L-59.99745867311783,-8.990065352821263 L-60.0,-9.205746178983127 " />
			<path d="M60.0,-9.205746178983233 L59.99887051695607,-9.061957833715306 L59.99548211034867,-8.918174901997308 L59.989834907749405,-8.774402797175352 L59.981929121772254,-8.630646932187926 L59.971765050065585,-8.486912719362094 L59.95934307530097,-8.343205570209731 L59.94466366515872,-8.199530895223777 L59.92772737231034,-8.055894103674543 L59.908534834397685,-7.912300603406044 L59.88708677400895,-7.768755800632408 L59.8633839986515,-7.625265099734326 L59.83742740072141,-7.481833903055587 L59.80921795746994,-7.338467610699677 L59.77875673096668,-7.195171620326473 L59.74604486805959,-7.051951326949021 L59.71108360033182,-6.908812122730418 L59.67387424405533,-6.7657593967808 L59.63441820014136,-6.622798534954447 L59.59271695408767,-6.479934919647004 L59.5487720759226,-6.337173929592839 L59.502585220145974,-6.1945209396625405 L59.4541581256668,-6.051981320660552 L59.403492615737825,-5.909560439122963 L59.350590597886864,-5.767263657115468 L59.29545406384497,-5.625096332031483 L59.238085089471504,-5.483063816390445 L59.17848583467592,-5.341171457636291 L59.11665854333647,-5.199424597936128 L59.05260554321574,-5.0578285739791085 L58.98632924587298,-4.916388716775506 L58.91783214657332,-4.775110351456001 L58.847116824193826,-4.633998797071197 L58.77418594112643,-4.493059366391359 L58.69904224317766,-4.352297365706394 L58.62168855946526,-4.211718094626069 L58.54212780231171,-4.071326845880484 L58.37639713233361,-3.7911295507202603 L58.20187519167264,-3.511747676907728 L58.018588262691125,-3.233223298325435 L57.82656394772639,-2.9555983597203044 L57.62583116493395,-2.678914670386904 L57.41642014393253,-2.403213897871125 L57.19836242125163,-2.1285375616951994 L56.9716908355822,-1.8549270271050196 L56.736439522831276,-1.5824234988406767 L56.49264391098125,-1.3110680149311769 L56.240340714754495,-1.0409014405142756 L55.979567930084336,-0.7719644616823285 L55.71036482839293,-0.5042975793551179 L55.43277195067721,-0.23794110318056916 L55.146831101403464,0.02706485453574281 L54.85258534221184,0.2906803848713544 L54.55007898543134,0.5528657882970531 L54.2393575874066,0.8135815806554749 L53.92046794163723,1.0727884991072791 L53.59345807173092,1.3304475080439815 L53.258377224171234,1.5865198049665885 L52.9152758609013,1.840966826329085 L52.56420565172439,2.093750253345986 L52.205219466522685,2.3448320177629913 L51.83837136729521,2.594174307589933 L51.463716600016326,2.841739572795113 L51.08131158631591,3.0874905309602134 L50.69121391498243,3.3313901728948743 L50.293482333290285,3.5734017682101555 L49.888176738152715,3.8134888708499872 L49.47535816710152,4.051615324579824 L49.055088789095024,4.287745268431635 L48.62743189515569,4.5218431421044265 L48.1924518888387,4.753873691319503 L47.750214276533015,4.98380197312963 L47.30078565759638,5.211593361181308 L46.84423371432567,5.43721355092938 L46.38062720176422,5.660628564803167 L45.91003593734753,5.881804757323364 L45.43253079038907,6.100708820168926 L44.94818367140756,6.317307787193183 L44.457067521297546,6.53156903938841 L43.95925630034478,6.743460309798147 L43.45482497708802,6.952949688376467 L42.943849517029115,7.16000562679352 L42.4264068711929,7.364596943186566 " />
			<path d="M-3.5355339059327378,-18.87177966691563 L-3.5355339059327378,-0.46028730894916237 " />
			<path d="M24.74873734152916,-7.824884252135748 L24.74873734152916,10.586608105830718 " />
			<path d="M-3.5355339059327378,-18.87177966691563 L24.74873734152916,-7.824884252135748 " />
			<path d="M3.5355339059327378,0.46028730894916237 L3.5355339059327378,2.30143654474581 " />
			<path d="M24.74873734152916,-7.824884252135748 L3.5355339059327378,0.46028730894916237 " />
			<path d="M-24.74873734152916,-10.586608105830718 L-24.74873734152916,7.824884252135748 " />
			<path d="M-24.74873734152916,-10.586608105830717 L3.5355339059327378,0.4602873089491615 " />
			<path d="M-3.5355339059327378,-18.87177966691563 L-24.74873734152916,-10.58660810583072 " />

        </g>

        <!-- solid lines -->
        <g  stroke="rgb(0,0,0)" fill="none">
    			<path d="M-60.0,-9.20574617898323 L-59.99887051695607,-9.349534524251153 L-59.99548211034867,-9.493317455969155 L-59.989834907749405,-9.637089560791114 L-59.981929121772254,-9.780845425778535 L-59.971765050065585,-9.924579638604362 L-59.95934307530097,-10.06828678775673 L-59.94466366515872,-10.211961462742687 L-59.92772737231034,-10.355598254291916 L-59.908534834397685,-10.49919175456041 L-59.88708677400895,-10.64273655733405 L-59.8633839986515,-10.786227258232136 L-59.83742740072141,-10.929658454910872 L-59.80921795746995,-11.073024747266786 L-59.77875673096668,-11.216320737639993 L-59.74604486805959,-11.359541031017441 L-59.71108360033182,-11.502680235236049 L-59.67387424405533,-11.64573296118567 L-59.63441820014136,-11.788693823012018 L-59.59271695408767,-11.931557438319466 L-59.5487720759226,-12.074318428373635 L-59.502585220145974,-12.216971418303928 L-59.4541581256668,-12.359511037305921 L-59.40349261573782,-12.501931918843516 L-59.35059059788686,-12.644228700851004 L-59.29545406384497,-12.786396025934984 L-59.2380850894715,-12.928428541576025 L-59.17848583467591,-13.070320900330186 L-59.11665854333647,-13.212067760030344 L-59.05260554321575,-13.353663783987356 L-58.98632924587298,-13.495103641190964 L-58.91783214657332,-13.636382006510473 L-58.847116824193826,-13.777493560895273 L-58.77418594112643,-13.918432991575104 L-58.69904224317766,-14.059194992260073 L-58.621688559465255,-14.199774263340402 L-58.54212780231171,-14.340165512085981 L-58.37639713233361,-14.620362807246206 L-58.20187519167264,-14.899744681058738 L-58.01858826269113,-15.178269059641028 L-57.8265639477264,-15.45589399824616 L-57.625831164933956,-15.732577687579557 L-57.416420143932534,-16.008278460095337 L-57.19836242125164,-16.28295479627126 L-56.97169083558221,-16.55656533086144 L-56.73643952283129,-16.829068859125783 L-56.49264391098126,-17.10042434303528 L-56.2403407147545,-17.37059091745218 L-55.97956793008434,-17.63952789628413 L-55.71036482839293,-17.907194778611345 L-55.432771950677214,-18.17355125478589 L-55.146831101403464,-18.438557212502204 L-54.85258534221183,-18.702172742837824 L-54.550078985431334,-18.96435814626352 L-54.239357587406595,-19.225073938621943 L-53.92046794163723,-19.48428085707375 L-53.59345807173092,-19.74193986601045 L-53.258377224171234,-19.99801216293306 L-52.9152758609013,-20.252459184295553 L-52.56420565172439,-20.50524261131245 L-52.205219466522685,-20.756324375729456 L-51.83837136729521,-21.005666665556397 L-51.463716600016326,-21.25323193076158 L-51.08131158631592,-21.498982888926676 L-50.691213914982434,-21.742882530861337 L-50.29348233329029,-21.984894126176613 L-49.88817673815273,-22.224981228816446 L-49.47535816710153,-22.463107682546287 L-49.05508878909504,-22.69923762639809 L-48.62743189515571,-22.933335500070882 L-48.19245188883872,-23.165366049285957 L-47.750214276533036,-23.395294331096085 L-47.3007856575964,-23.623085719147763 L-46.844233714325675,-23.848705908895845 L-46.38062720176423,-24.072120922769628 L-45.910035937347544,-24.293297115289825 L-45.432530790389066,-24.512201178135392 L-44.948183671407556,-24.72880014515965 L-44.457067521297546,-24.94306139735488 L-43.95925630034477,-25.154952667764615 L-43.45482497708802,-25.364442046342933 L-42.94384951702912,-25.571497984759986 L-42.42640687119286,-25.77608930115305 L-41.90257496453838,-25.978185184822426 L-41.37243268422402,-26.177755200871406 L-40.83605986772717,-26.37476929478965 L-40.2935372908211,-26.56919779697928 L-39.7449466554103,-26.761011427223032 L-39.19037057722659,-26.950181299093746 L-38.62989257338745,-27.136678924304533 L-38.06359704981871,-27.320476216999015 L-37.49156928854319,-27.501545497980988 L-36.9138954348376,-27.67985949888277 L-36.3306624842595,-27.855391366271707 L-35.74195826954599,-28.028114665694208 L-35.14787144738634,-28.198003385656726 L-34.54849148507071,-28.36503194154294 L-33.94390864701677,-28.52917517946671 L-33.334213981176134,-28.690408380060145 L-32.719499305322806,-28.848707262196324 L-32.09985719322584,-29.00404798664587 L-31.475380960708115,-29.15640715966706 L-30.846164651593305,-29.30576183652885 L-30.212303023543083,-29.452089524966276 L-29.57389153378705,-29.595368188567715 L-28.931026324747354,-29.73557625009343 L-28.28380420955987,-29.87269259472508 L-27.632322657494445,-30.006696573245524 L-26.976679779276417,-30.137568005148506 L-26.316974312311658,-30.26528718167776 L-25.65330560581695,-30.38983486879508 L-24.98577360585828,-30.511192310076915 L-24.314478840299422,-30.62934122953901 L-23.63952240366289,-30.74426383438866 L-22.96100594190542,-30.8559428177043 L-22.27903163711031,-30.964361361041828 L-21.593702192099325,-31.06950313696742 L-20.90512081496609,-31.17135231151636 L-20.213391203533245,-31.26989354657758 L-19.51861752973585,-31.365112002203556 L-18.820904423933538,-31.456993338845113 L-18.12035695915371,-31.545523719510918 L-17.417080635267798,-31.63068981185127 L-16.71118136310327,-31.712478790165935 L-16.00276544849396,-31.790878337335634 L-15.291939576270911,-31.86587664667693 L-14.578810794195899,-31.937462423720294 L-13.863486496840308,-32.00562488791103 L-13.146074409412206,-32.07035377423275 L-12.42668257153316,-32.13163933475325 L-11.705419320967719,-32.189472340092564 L-10.982393277308457,-32.243844080812806 L-10.257713325618102,-32.294746368729804 L-9.531488600031691,-32.34217153814625 L-8.803828467321686,-32.38611244700607 L-8.074842510427581,-32.42656247797001 L-7.344640511952957,-32.4635155394122 L-6.613332437632946,-32.49696606633751 L-5.881028419773627,-32.52690902121962 L-5.147838740666414,-32.553339894759674 L-4.4138738159800415,-32.57625470656532 L-3.6792441781324863,-32.595650005750215 L-2.944060459645082,-32.61152287145361 L-2.20843337648156,-32.623870913280335 L-1.4724737113747433,-32.632692271660716 L-0.7362922971431775,-32.637985618130614 L-1.1021821192326178e-14,-32.63975015553153 L0.7362922971431554,-32.637985618130614 L1.4724737113747213,-32.632692271660716 L2.208433376481538,-32.62387091328034 L2.9440604596450597,-32.61152287145361 L3.6792441781324645,-32.595650005750215 L4.413873815980019,-32.57625470656532 L5.1478387406663915,-32.553339894759674 L5.881028419773606,-32.52690902121962 L6.613332437632923,-32.496966066337514 L7.344640511952936,-32.4635155394122 L8.074842510427558,-32.42656247797001 L8.803828467321665,-32.38611244700608 L9.53148860003167,-32.34217153814626 L10.257713325618079,-32.294746368729804 L10.982393277308436,-32.243844080812806 L11.705419320967698,-32.189472340092564 L12.426682571533139,-32.13163933475326 L13.146074409412185,-32.07035377423276 L13.863486496840288,-32.00562488791103 L14.578810794195878,-31.937462423720298 L15.291939576270892,-31.86587664667693 L16.002765448493943,-31.790878337335638 L16.711181363103247,-31.71247879016594 L17.417080635267777,-31.630689811851273 L18.12035695915369,-31.54552371951092 L18.820904423933516,-31.45699333884512 L19.518617529735824,-31.36511200220356 L20.213391203533227,-31.269893546577585 L20.90512081496607,-31.17135231151636 L21.593702192099308,-31.069503136967423 L22.279031637110293,-30.964361361041828 L22.961005941905402,-30.855942817704303 L23.639522403662873,-30.74426383438867 L24.3144788402994,-30.629341229539012 L24.985773605858263,-30.511192310076922 L25.65330560581693,-30.389834868795084 L26.316974312311636,-30.265287181677763 L26.976679779276395,-30.13756800514851 L27.632322657494424,-30.006696573245524 L28.283804209559854,-29.872692594725084 L28.931026324747332,-29.735576250093438 L29.573891533787034,-29.59536818856772 L30.21230302354307,-29.45208952496628 L30.84616465159329,-29.305761836528852 L31.475380960708097,-29.156407159667065 L32.099857193225816,-29.004047986645876 L32.719499305322785,-28.848707262196328 L33.33421398117611,-28.690408380060152 L33.94390864701675,-28.529175179466712 L34.54849148507069,-28.36503194154295 L35.14787144738632,-28.19800338565673 L35.741958269545975,-28.028114665694215 L36.33066248425948,-27.85539136627171 L36.91389543483758,-27.679859498882774 L37.49156928854317,-27.50154549798099 L38.063597049818696,-27.320476216999023 L38.62989257338743,-27.13667892430454 L39.19037057722657,-26.950181299093753 L39.74494665541029,-26.761011427223035 L40.29353729082106,-26.569197796979292 L40.83605986772716,-26.374769294789658 L41.37243268422401,-26.177755200871413 L41.90257496453834,-25.97818518482244 L42.42640687119284,-25.776089301153057 L42.94384951702913,-25.571497984759983 L43.454824977088,-25.36444204634294 L43.95925630034478,-25.154952667764615 L44.45706752129757,-24.943061397354867 L44.94818367140756,-24.72880014515965 L45.43253079038909,-24.512201178135385 L45.910035937347565,-24.293297115289814 L46.380627201764234,-24.072120922769628 L46.84423371432566,-23.848705908895848 L47.300785657596386,-23.623085719147767 L47.750214276533036,-23.395294331096082 L48.192451888838704,-23.165366049285964 L48.62743189515568,-22.933335500070896 L49.055088789095024,-22.6992376263981 L49.47535816710153,-22.46310768254628 L49.888176738152715,-22.224981228816453 L50.293482333290264,-21.98489412617663 L50.69121391498242,-21.742882530861344 L51.08131158631592,-21.498982888926676 L51.46371660001632,-21.253231930761586 L51.83837136729518,-21.00566666555641 L52.20521946652268,-20.756324375729463 L52.5642056517244,-20.505242611312447 L52.91527586090129,-20.25245918429556 L53.25837722417121,-19.998012162933072 L53.59345807173091,-19.74193986601046 L53.92046794163723,-19.484280857073745 L54.23935758740659,-19.225073938621954 L54.55007898543131,-18.964358146263542 L54.852585342211825,-18.702172742837835 L55.14683110140346,-18.43855721250221 L55.43277195067719,-18.173551254785913 L55.71036482839291,-17.907194778611373 L55.979567930084315,-17.639527896284157 L56.24034071475449,-17.370590917452198 L56.49264391098123,-17.100424343035307 L56.736439522831255,-16.82906885912582 L56.97169083558218,-16.556565330861467 L57.198362421251616,-16.282954796271277 L57.41642014393251,-16.008278460095365 L57.62583116493392,-15.732577687579596 L57.82656394772638,-15.455893998246186 L58.01858826269112,-15.178269059641046 L58.20187519167263,-14.899744681058767 L58.376397132333594,-14.620362807246224 L58.54212780231171,-14.340165512085992 L58.62168855946525,-14.199774263340412 L58.699042243177644,-14.059194992260093 L58.77418594112643,-13.918432991575113 L58.84711682419382,-13.77749356089528 L58.91783214657331,-13.636382006510482 L58.98632924587298,-13.495103641190962 L59.05260554321574,-13.353663783987365 L59.11665854333647,-13.21206776003035 L59.17848583467592,-13.070320900330174 L59.2380850894715,-12.928428541576025 L59.29545406384497,-12.786396025934991 L59.350590597886864,-12.644228700850991 L59.403492615737825,-12.501931918843503 L59.4541581256668,-12.359511037305921 L59.502585220145974,-12.216971418303915 L59.5487720759226,-12.074318428373623 L59.59271695408767,-11.931557438319464 L59.63441820014136,-11.788693823012006 L59.673874244055334,-11.645732961185658 L59.71108360033182,-11.502680235236046 L59.74604486805959,-11.35954103101745 L59.77875673096668,-11.216320737640002 L59.80921795746995,-11.073024747266784 L59.83742740072141,-10.929658454910879 L59.8633839986515,-10.786227258232145 L59.88708677400895,-10.642736557334048 L59.908534834397685,-10.499191754560417 L59.92772737231034,-10.355598254291925 L59.94466366515872,-10.211961462742696 L59.959343075300964,-10.06828678775675 L59.971765050065585,-9.92457963860437 L59.981929121772254,-9.780845425778544 L59.989834907749405,-9.637089560791123 L59.99548211034867,-9.493317455969153 L59.99887051695607,-9.34953452425116 L60.0,-9.205746178983446 " />
			<path d="M42.426406871192846,25.776089301153053 L42.0341276365949,25.927896831597042 L41.63828765337924,26.078287813674997 L41.23892045350554,26.227249507632056 L40.83605986772718,26.37476929478965 L40.429740022725355,26.52083467861442 L40.01999533821825,26.665433285776814 L39.606860524045224,26.80855286719925 L39.1903705772266,26.950181299093742 L38.77056077899898,27.090306583988912 L38.34746669182654,27.228916851746312 L37.92112415638853,27.366000360565966 L37.491569288543175,27.50154549798099 L37.058838476268235,27.63554078184135 L36.622968376578555,27.767974861286472 L36.18399591242088,27.898836517706815 L35.741958269546,28.028114665694204 L35.29689289335872,28.155798353980888 L34.848837485745875,28.281876766367205 L34.397830001882525,28.406339222637875 L33.943908647016784,28.5291751794667 L33.48711187323336,28.650374231309705 L33.027478376196285,28.769926111286605 L32.565047091870944,28.88782069205052 L32.09985719322583,29.004047986645872 L31.631948086914072,29.11859814935439 L31.161359409935372,29.23146147652914 L30.68813102627823,29.342628407416548 L30.212303023543054,29.452089524966283 L29.73391570954635,29.559835556628993 L29.25300960890615,29.66585737514179 L28.76962545960917,29.770145999301423 L28.283804209559854,29.872692594725084 L27.795587013111614,29.973488474598792 L27.30501522758063,30.07252510041324 L26.812130409742448,30.169794082687112 L26.31697431231165,30.265287181677763 L25.819588880404943,30.358996308079202 L25.320016247987976,30.450913523707364 L24.818298734306072,30.541031042172545 L24.31447884029939,30.629341229539016 L23.80859924500261,30.71583660497166 L23.300702801929567,30.800509841369728 L22.790832535443055,30.883353765987483 L22.279031637110247,30.96436136104184 L21.765343462043834,31.043525764306832 L21.249811525229422,31.120840269694924 L20.732479497839336,31.196298327825083 L20.213391203533188,31.26989354657759 L19.692590614745534,31.34161969163552 L19.17012184896093,31.411470687012844 L18.64602916497669,31.479440615569164 L18.12035695915368,31.54552371951092 L17.593149761655507,31.609714400879163 L17.064452232676295,31.672007222023755 L16.534309158657468,31.732396906064 L16.002765448493893,31.79087833733564 L15.469866129729535,31.847446561824242 L14.935656344743203,31.90209678758481 L14.400181346924477,31.954824385147756 L13.86348649684025,32.00562488791104 L13.32561725839219,32.054493992518545 L12.786619194965468,32.101427559224646 L12.246537965569008,32.146421612244836 L11.705419320967687,32.189472340092564 L11.163309099806785,32.23057609590212 L10.62025322472892,32.26972939773749 L10.076297698483874,32.30692892888741 L9.531488600031683,32.34217153814626 L8.985872080639284,32.37545424008101 L8.439494359970944,32.40677421528419 L7.344640511952964,32.4635155394122 L6.24729803232327,32.512376284503816 L5.14783874066638,32.553339894759674 L4.046635173819833,32.58639249021718 L2.9440604596450743,32.61152287145361 L1.840488190598195,32.628722523380844 L0.7362922971431967,32.637985618130614 L-0.3681530789492769,32.63930901702915 L-1.472473711374742,32.632692271660716 L-2.57629541609645,32.61813762401955 L-3.679244178132525,32.59565000575021 L-4.780946278285814,32.56523703647647 L-5.881028419773639,32.52690902121962 L-6.979117854714286,32.48067894690669 L-8.074842510427567,32.42656247797001 L-8.621701989017666,32.396552471495625 L-9.167831115506612,32.364577951039564 L-9.71318362680672,32.3306416251921 L-10.257713325618075,32.294746368729804 L-10.801374084341964,32.25689522237204 L-11.34411984898837,32.2170913925233 L-11.885904643077216,32.1753382510017 L-12.42668257153312,32.13163933475326 L-12.966407824573182,32.08599834555234 L-13.505034681587574,32.038419149688025 L-14.0425175150126,31.988905777636646 L-14.578810794195832,31.9374624237203 L-15.113869089253022,31.884093445751606 L-15.647647074916527,31.828803364664505 L-16.180099534374893,31.771596864131315 L-16.711181363103176,31.712478790165946 L-17.240847572683766,31.651454150713427 L-17.769053294617432,31.588528115225646 L-18.295753784124148,31.523706014223457 L-18.820904423933484,31.45699333884512 L-19.34446072806418,31.38839574038115 L-19.86637834559258,31.31791902979557 L-20.386613064409612,31.245569177233694 L-20.90512081496608,31.17135231151636 L-21.421857674005807,31.09527471962077 L-21.936779868286433,31.01734284614791 L-22.449843778287473,30.937563292776602 L-22.961005941905384,30.855942817704307 L-23.470223058135232,30.772488335074602 L-23.9774519907388,30.6872069143915 L-24.482649771898704,30.60010577992056 L-24.98577360585822,30.51119231007693 L-25.48678087254652,30.420474036800314 L-25.985629131189114,30.327958644916933 L-26.482276123903002,30.233653971488536 L-26.976679779276402,30.137568005148506 L-27.468798215932644,30.039708885425163 L-27.958589746077983,29.94008490205222 L-28.446012879033017,29.838704494266576 L-28.931026324747364,29.73557625009343 L-29.41358899729745,29.630708905618746 L-29.893660018366894,29.524111344249246 L-30.37119872070931,29.41579259595987 L-30.8461646515933,29.305761836528852 L-31.318517576229258,29.194028386760415 L-31.788217481177682,29.08060171169521 L-32.25522457773874,28.965491419808526 L-32.71949930532279,28.848707262196328 L-33.18100233480167,28.73025913174926 L-33.639694571840174,28.610157062314588 L-34.09553716020792,28.488411227846235 L-34.54849148507072,28.365031941542938 L-34.99851917626189,28.24002965497459 L-35.445582111532445,28.11341495719689 L-35.88964241978053,27.98519857385435 L-36.33066248425953,27.855391366271697 L-36.76860494576458,27.724004330533795 L-37.203432705797354,27.591048596554177 L-37.63510892970865,27.456535427132213 L-38.06359704981874,27.320476216999005 L-38.488860768515,27.182882491852173 L-38.91086406132677,27.043765907379466 L-39.329571179976945,26.90313824827141 L-39.74494665541032,26.76101142722303 L-40.15695530079815,26.617397483924684 L-40.56556221451895,26.472308584042192 L-40.970732783114876,26.325757018186277 L-41.372432684224016,26.17775520087141 L-41.77062788948778,26.028315669464153 L-42.165284667433525,25.877451083121116 L-42.55636958633195,25.7251742217166 L-42.94384951702913,25.57149798475998 L-43.327691635752934,25.416435390303 L-43.70786342689353,25.259999573836975 L-44.08433268575783,25.102203787180105 L-44.45706752129755,24.943061397354874 L-44.8260363588108,24.782585885455724 L-45.19120794261674,24.62079084550706 L-45.55255133870328,24.4576899833117 L-45.91003593734754,24.29329711528983 L-46.26363145570883,24.127626167308605 L-46.61330794039395,23.960691173502497 L-46.95903576999456,23.792506275084396 L-47.300785657596386,23.623085719147767 L-47.638528653260245,23.452443857459713 L-47.97223614647432,23.280595145245243 L-48.30187986857784,23.10755413996276 L-48.6274318951557,22.93333550007089 L-48.94886464840402,22.757953983786713 L-49.26615089946628,22.581424447835623 L-49.579263770739814,22.40376184619281 L-49.88817673815272,22.224981228816453 L-50.192863633410724,22.045097740372846 L-50.493298646213916,21.864126618953485 L-50.78945632644314,21.682083194784234 L-51.08131158631591,21.498982888926683 L-51.36883970251166,21.314841211971803 L-51.65201631826603,21.129673762726043 L-51.93081744543414,20.943496226889966 L-52.20521946652268,20.75632437572946 L-52.47519913669057,20.56817406473975 L-52.74073358571801,20.379061232302288 L-53.001800319943904,20.18900189833456 L-53.25837722417124,19.99801216293305 L-53.51044256354057,19.806108205009394 L-53.75797498537112,19.613306280919822 L-54.000953520969624,19.419622723088086 L-54.2393575874066,19.22507393862194 L-54.473166989259965,19.029676407923233 L-54.702361920325785,18.833446683291868 L-54.926922965296065,18.636401387523673 L-55.146831101403464,18.43855721250221 L-55.36206770003272,18.239930917784832 L-55.572614528298686,18.04053932918295 L-55.77845375059088,17.8403993373367 L-55.979567930084336,17.639527896284132 L-56.1759400302167,17.437942022025016 L-56.3675534161314,17.23565879107939 L-56.55439185608682,17.032695339041013 L-56.73643952283128,16.829068859125787 L-56.91368099494382,16.624796600715275 L-57.0861012581405,16.419895867895526 L-57.253685706546335,16.21438401799123 L-57.41642014393253,16.008278460095344 L-57.57429078491907,15.801596653594363 L-57.727284256142504,15.594356106689318 L-57.875387597388766,15.386574374912644 L-58.018588262691125,15.178269059641034 L-58.1568741213929,14.96945780660439 L-58.2902334591751,14.760158304391059 L-58.41865497904871,14.55038828294943 L-58.54212780231171,14.340165512085989 L-58.6606414694706,14.12950779996003 L-58.77418594112643,13.91843299157511 L-58.88275159882527,13.706958967267388 L-58.98632924587298,13.495103641190958 L-59.08491010811425,13.282884959800331 L-59.17848583467592,13.07032090033017 L-59.26704849867433,12.857429469272425 L-59.350590597886864,12.644228700850999 L-59.42910505538742,12.430736655494016 L-59.502585220145974,12.216971418303935 L-59.57102486759191,12.002951097525553 L-59.63441820014136,11.788693823012023 L-59.692759847688336,11.574217744689062 L-59.74604486805959,11.359541031017446 L-59.79426874743329,11.14468186745396 L-59.83742740072141,10.929658454910877 L-59.87551717191576,10.71448900821415 L-59.908534834397685,10.499191754560416 L-59.936477591211414,10.283784931972953 L-59.95934307530097,10.068286787756735 L-59.977129349710715,9.852715576952649 L-59.989834907749405,9.63708956079112 L-59.99745867311783,9.421427005145203 L-60.0,9.20574617898334 " />
			<path d="M-60.0,9.205746178983237 L-59.99887051695607,9.061957833715313 L-59.99548211034867,8.918174901997311 L-59.989834907749405,8.774402797175352 L-59.981929121772254,8.63064693218793 L-59.971765050065585,8.486912719362104 L-59.95934307530097,8.343205570209737 L-59.94466366515872,8.199530895223779 L-59.92772737231034,8.05589410367455 L-59.908534834397685,7.912300603406057 L-59.88708677400895,7.768755800632416 L-59.8633839986515,7.62526509973433 L-59.83742740072141,7.481833903055596 L-59.80921795746995,7.338467610699681 L-59.77875673096668,7.195171620326472 L-59.74604486805959,7.051951326949025 L-59.71108360033182,6.908812122730418 L-59.67387424405533,6.765759396780796 L-59.63441820014136,6.622798534954448 L-59.59271695408767,6.479934919647 L-59.5487720759226,6.337173929592831 L-59.502585220145974,6.194520939662539 L-59.4541581256668,6.051981320660545 L-59.40349261573782,5.90956043912295 L-59.35059059788686,5.767263657115462 L-59.29545406384497,5.625096332031483 L-59.2380850894715,5.48306381639044 L-59.17848583467591,5.34117145763628 L-59.11665854333647,5.199424597936122 L-59.05260554321575,5.05782857397911 L-58.98632924587298,4.9163887167755025 L-58.91783214657332,4.775110351455993 L-58.847116824193826,4.633998797071194 L-58.77418594112643,4.493059366391362 L-58.69904224317766,4.352297365706393 L-58.621688559465255,4.211718094626064 L-58.54212780231171,4.071326845880484 L-58.37639713233361,3.791129550720261 L-58.20187519167264,3.5117476769077287 L-58.01858826269113,3.233223298325438 L-57.8265639477264,2.955598359720307 L-57.625831164933956,2.6789146703869084 L-57.416420143932534,2.4032138978711304 L-57.19836242125164,2.1285375616952065 L-56.97169083558221,1.8549270271050275 L-56.73643952283129,1.5824234988406847 L-56.49264391098126,1.3110680149311857 L-56.2403407147545,1.0409014405142862 L-55.97956793008434,0.7719644616823391 L-55.71036482839293,0.5042975793551214 L-55.432771950677214,0.2379411031805727 L-55.146831101403464,-0.027064854535739258 L-54.85258534221183,-0.2906803848713597 L-54.550078985431334,-0.5528657882970567 L-54.239357587406595,-0.8135815806554767 L-53.92046794163723,-1.072788499107281 L-53.59345807173092,-1.330447508043985 L-53.258377224171234,-1.5865198049665903 L-52.9152758609013,-1.840966826329085 L-52.56420565172439,-2.093750253345984 L-52.205219466522685,-2.3448320177629878 L-51.83837136729521,-2.594174307589931 L-51.463716600016326,-2.8417395727951114 L-51.08131158631592,-3.08749053096021 L-50.691213914982434,-3.331390172894869 L-50.29348233329029,-3.5734017682101484 L-49.88817673815273,-3.813488870849982 L-49.47535816710153,-4.051615324579819 L-49.05508878909504,-4.287745268431625 L-48.62743189515571,-4.521843142104416 L-48.19245188883872,-4.753873691319493 L-47.750214276533036,-4.983801973129619 L-47.3007856575964,-5.211593361181297 L-46.844233714325675,-5.437213550929377 L-46.38062720176423,-5.660628564803162 L-45.910035937347544,-5.8818047573233585 L-45.432530790389066,-6.1007088201689275 L-44.948183671407556,-6.317307787193183 L-44.457067521297546,-6.531569039388414 L-43.95925630034477,-6.743460309798149 L-43.45482497708802,-6.952949688376467 L-42.94384951702912,-7.16000562679352 L-42.42640687119286,-7.364596943186584 L-41.90257496453838,-7.5666928268559595 L-41.37243268422402,-7.76626284290494 L-40.83605986772717,-7.963276936823185 L-40.2935372908211,-8.157705439012815 L-39.7449466554103,-8.349519069256566 L-39.19037057722659,-8.53868894112728 L-38.62989257338745,-8.725186566338067 L-38.06359704981871,-8.90898385903255 L-37.49156928854319,-9.090053140014522 L-36.9138954348376,-9.268367140916304 L-36.3306624842595,-9.443899008305241 L-35.74195826954599,-9.616622307727742 L-35.14787144738634,-9.78651102769026 L-34.54849148507071,-9.953539583576475 L-33.94390864701677,-10.117682821500242 L-33.334213981176134,-10.278916022093679 L-32.719499305322806,-10.437214904229858 L-32.09985719322584,-10.592555628679403 L-31.475380960708115,-10.744914801700595 L-30.846164651593305,-10.894269478562382 L-30.212303023543083,-11.04059716699981 L-29.57389153378705,-11.183875830601249 L-28.931026324747354,-11.324083892126964 L-28.28380420955987,-11.461200236758614 L-27.632322657494445,-11.595204215279058 L-26.976679779276417,-11.72607564718204 L-26.316974312311658,-11.853794823711294 L-25.65330560581695,-11.978342510828615 L-24.98577360585828,-12.099699952110448 L-24.314478840299422,-12.217848871572542 L-23.63952240366289,-12.332771476422195 L-22.96100594190542,-12.444450459737833 L-22.27903163711031,-12.552869003075362 L-21.593702192099325,-12.658010779000954 L-20.90512081496609,-12.759859953549896 L-20.213391203533245,-12.858401188611115 L-19.51861752973585,-12.95361964423709 L-18.820904423933538,-13.045500980878646 L-18.12035695915371,-13.134031361544451 L-17.417080635267798,-13.219197453884803 L-16.71118136310327,-13.300986432199469 L-16.00276544849396,-13.379385979369168 L-15.291939576270911,-13.454384288710465 L-14.578810794195899,-13.525970065753828 L-13.863486496840308,-13.594132529944567 L-13.146074409412206,-13.658861416266284 L-12.42668257153316,-13.720146976786786 L-11.705419320967719,-13.777979982126098 L-10.982393277308457,-13.832351722846337 L-10.257713325618102,-13.883254010763341 L-9.531488600031691,-13.930679180179787 L-8.803828467321686,-13.974620089039608 L-8.074842510427581,-14.015070120003546 L-7.344640511952957,-14.052023181445737 L-6.613332437632946,-14.085473708371044 L-5.881028419773627,-14.115416663253157 L-5.147838740666414,-14.141847536793204 L-4.4138738159800415,-14.164762348598856 L-3.6792441781324863,-14.184157647783746 L-2.944060459645082,-14.200030513487143 L-2.20843337648156,-14.212378555313869 L-1.4724737113747433,-14.22119991369425 L-0.7362922971431775,-14.226493260164148 L-1.1021821192326178e-14,-14.22825779756506 L0.7362922971431554,-14.226493260164148 L1.4724737113747213,-14.22119991369425 L2.208433376481538,-14.212378555313872 L2.9440604596450597,-14.200030513487143 L3.6792441781324645,-14.184157647783746 L4.413873815980019,-14.164762348598856 L5.1478387406663915,-14.141847536793204 L5.881028419773606,-14.115416663253157 L6.613332437632923,-14.085473708371048 L7.344640511952936,-14.052023181445737 L8.074842510427558,-14.015070120003546 L8.803828467321665,-13.974620089039611 L9.53148860003167,-13.93067918017979 L10.257713325618079,-13.883254010763341 L10.982393277308436,-13.83235172284634 L11.705419320967698,-13.777979982126102 L12.426682571533139,-13.72014697678679 L13.146074409412185,-13.658861416266287 L13.863486496840288,-13.594132529944567 L14.578810794195878,-13.525970065753832 L15.291939576270892,-13.454384288710465 L16.002765448493943,-13.379385979369172 L16.711181363103247,-13.300986432199473 L17.417080635267777,-13.219197453884806 L18.12035695915369,-13.134031361544455 L18.820904423933516,-13.045500980878654 L19.518617529735824,-12.953619644237094 L20.213391203533227,-12.858401188611118 L20.90512081496607,-12.759859953549896 L21.593702192099308,-12.658010779000957 L22.279031637110293,-12.552869003075362 L22.961005941905402,-12.444450459737837 L23.639522403662873,-12.332771476422202 L24.3144788402994,-12.217848871572546 L24.985773605858263,-12.099699952110456 L25.65330560581693,-11.978342510828618 L26.316974312311636,-11.853794823711297 L26.976679779276395,-11.726075647182043 L27.632322657494424,-11.595204215279058 L28.283804209559854,-11.461200236758618 L28.931026324747332,-11.324083892126971 L29.573891533787034,-11.183875830601252 L30.21230302354307,-11.040597166999813 L30.84616465159329,-10.894269478562386 L31.475380960708097,-10.744914801700599 L32.099857193225816,-10.59255562867941 L32.719499305322785,-10.437214904229862 L33.33421398117611,-10.278916022093686 L33.94390864701675,-10.117682821500246 L34.54849148507069,-9.953539583576482 L35.14787144738632,-9.786511027690263 L35.741958269545975,-9.616622307727749 L36.33066248425948,-9.443899008305245 L36.91389543483758,-9.268367140916308 L37.49156928854317,-9.090053140014525 L38.063597049818696,-8.908983859032556 L38.62989257338743,-8.725186566338074 L39.19037057722657,-8.538688941127287 L39.74494665541029,-8.34951906925657 L40.29353729082106,-8.157705439012826 L40.83605986772716,-7.963276936823192 L41.37243268422401,-7.766262842904947 L41.90257496453834,-7.566692826855974 L42.42640687119284,-7.364596943186591 L42.94384951702913,-7.160005626793517 L43.454824977088,-6.952949688376474 L43.95925630034478,-6.743460309798149 L44.45706752129757,-6.531569039388403 L44.94818367140756,-6.317307787193183 L45.43253079038909,-6.100708820168917 L45.910035937347565,-5.881804757323348 L46.380627201764234,-5.660628564803162 L46.84423371432566,-5.437213550929382 L47.300785657596386,-5.211593361181302 L47.750214276533036,-4.9838019731296175 L48.192451888838704,-4.7538736913195 L48.62743189515568,-4.52184314210443 L49.055088789095024,-4.2877452684316335 L49.47535816710153,-4.051615324579815 L49.888176738152715,-3.8134888708499872 L50.293482333290264,-3.5734017682101644 L50.69121391498242,-3.331390172894876 L51.08131158631592,-3.087490530960208 L51.46371660001632,-2.8417395727951185 L51.83837136729518,-2.5941743075899453 L52.20521946652268,-2.3448320177629967 L52.5642056517244,-2.0937502533459824 L52.91527586090129,-1.8409668263290921 L53.25837722417121,-1.5865198049666045 L53.59345807173091,-1.3304475080439921 L53.92046794163723,-1.0727884991072791 L54.23935758740659,-0.8135815806554856 L54.55007898543131,-0.5528657882970744 L54.852585342211825,-0.2906803848713686 L55.14683110140346,-0.027064854535746363 L55.43277195067719,0.23794110318055495 L55.71036482839291,0.504297579355093 L55.979567930084315,0.7719644616823107 L56.24034071475449,1.0409014405142667 L56.49264391098123,1.3110680149311582 L56.736439522831255,1.5824234988406465 L56.97169083558218,1.854927027105 L57.198362421251616,2.128537561695188 L57.41642014393251,2.403213897871101 L57.62583116493392,2.6789146703868694 L57.82656394772638,2.9555983597202795 L58.01858826269112,3.233223298325419 L58.20187519167263,3.5117476769077003 L58.376397132333594,3.7911295507202416 L58.54212780231171,4.071326845880475 L58.62168855946525,4.211718094626055 L58.699042243177644,4.352297365706375 L58.77418594112643,4.493059366391353 L58.84711682419382,4.633998797071186 L58.91783214657331,4.775110351455984 L58.98632924587298,4.916388716775504 L59.05260554321574,5.057828573979101 L59.11665854333647,5.1994245979361144 L59.17848583467592,5.3411714576362925 L59.2380850894715,5.483063816390442 L59.29545406384497,5.625096332031475 L59.350590597886864,5.767263657115474 L59.403492615737825,5.909560439122963 L59.4541581256668,6.051981320660546 L59.502585220145974,6.194520939662551 L59.5487720759226,6.3371739295928435 L59.59271695408767,6.479934919647002 L59.63441820014136,6.622798534954461 L59.673874244055334,6.765759396780808 L59.71108360033182,6.908812122730421 L59.74604486805959,7.051951326949017 L59.77875673096668,7.195171620326464 L59.80921795746995,7.3384676106996825 L59.83742740072141,7.481833903055588 L59.8633839986515,7.625265099734321 L59.88708677400895,7.768755800632418 L59.908534834397685,7.912300603406048 L59.92772737231034,8.055894103674541 L59.94466366515872,8.19953089522377 L59.959343075300964,8.343205570209717 L59.971765050065585,8.486912719362095 L59.981929121772254,8.630646932187922 L59.989834907749405,8.774402797175343 L59.99548211034867,8.918174901997313 L59.99887051695607,9.061957833715306 L60.0,9.20574617898302 " />
			<path d="M60.0,9.205746178983233 L59.99887051695607,9.34953452425116 L59.99548211034867,9.493317455969159 L59.989834907749405,9.637089560791114 L59.981929121772254,9.78084542577854 L59.971765050065585,9.924579638604373 L59.95934307530097,10.068286787756735 L59.94466366515872,10.21196146274269 L59.92772737231034,10.355598254291923 L59.908534834397685,10.499191754560421 L59.88708677400895,10.642736557334057 L59.8633839986515,10.78622725823214 L59.83742740072141,10.929658454910879 L59.80921795746994,11.073024747266789 L59.77875673096668,11.216320737639993 L59.74604486805959,11.359541031017446 L59.71108360033182,11.502680235236049 L59.67387424405533,11.645732961185665 L59.63441820014136,11.788693823012018 L59.59271695408767,11.931557438319462 L59.5487720759226,12.074318428373626 L59.502585220145974,12.216971418303926 L59.4541581256668,12.359511037305914 L59.403492615737825,12.501931918843503 L59.350590597886864,12.644228700850999 L59.29545406384497,12.786396025934984 L59.238085089471504,12.928428541576022 L59.17848583467592,13.070320900330175 L59.11665854333647,13.212067760030338 L59.05260554321574,13.353663783987358 L58.98632924587298,13.49510364119096 L58.91783214657332,13.636382006510466 L58.847116824193826,13.77749356089527 L58.77418594112643,13.918432991575107 L58.69904224317766,14.059194992260071 L58.62168855946526,14.199774263340398 L58.54212780231171,14.340165512085981 L58.37639713233361,14.620362807246206 L58.20187519167264,14.899744681058738 L58.018588262691125,15.178269059641032 L57.82656394772639,15.455893998246161 L57.62583116493395,15.732577687579562 L57.41642014393253,16.00827846009534 L57.19836242125163,16.282954796271266 L56.9716908355822,16.556565330861446 L56.736439522831276,16.82906885912579 L56.49264391098125,17.10042434303529 L56.240340714754495,17.37059091745219 L55.979567930084336,17.639527896284136 L55.71036482839293,17.90719477861135 L55.43277195067721,18.1735512547859 L55.146831101403464,18.43855721250221 L54.85258534221184,18.70217274283782 L54.55007898543134,18.96435814626352 L54.2393575874066,19.22507393862194 L53.92046794163723,19.484280857073745 L53.59345807173092,19.741939866010448 L53.258377224171234,19.998012162933055 L52.9152758609013,20.252459184295553 L52.56420565172439,20.505242611312454 L52.205219466522685,20.756324375729456 L51.83837136729521,21.005666665556397 L51.463716600016326,21.25323193076158 L51.08131158631591,21.49898288892668 L50.69121391498243,21.74288253086134 L50.293482333290285,21.98489412617662 L49.888176738152715,22.224981228816453 L49.47535816710152,22.46310768254629 L49.055088789095024,22.6992376263981 L48.62743189515569,22.933335500070893 L48.1924518888387,23.16536604928597 L47.750214276533015,23.395294331096096 L47.30078565759638,23.623085719147774 L46.84423371432567,23.848705908895845 L46.38062720176422,24.072120922769635 L45.91003593734753,24.293297115289832 L45.43253079038907,24.512201178135392 L44.94818367140756,24.72880014515965 L44.457067521297546,24.943061397354874 L43.95925630034478,25.15495266776461 L43.45482497708802,25.364442046342933 L42.943849517029115,25.571497984759986 L42.4264068711929,25.776089301153032 " />
			<path d="M-3.5355339059327378,-0.4602873089491606 L24.74873734152916,10.586608105830718 " />
			<path d="M3.5355339059327378,2.30143654474581 L3.5355339059327378,18.87177966691563 " />
			<path d="M24.74873734152916,10.58660810583072 L3.5355339059327378,18.87177966691563 " />
			<path d="M-24.74873734152916,7.824884252135748 L3.5355339059327378,18.87177966691563 " />
			<path d="M-3.5355339059327378,-0.46028730894916325 L-24.74873734152916,7.824884252135747 " />
			<path d="M-59.999999999999986,9.205746178983233 L-59.999999999999986,-9.205746178983233 " />
			<path d="M59.999999999999986,9.205746178983233 L59.999999999999986,-9.205746178983233 " />

        </g>
        </g>
    </svg>
    