<?xml version="1.0" encoding="UTF-8" standalone="no"?>
    <svg
    xmlns:svg="http://www.w3.org/2000/svg"
    xmlns="http://www.w3.org/2000/svg"
    width="223"
    height="433"
    >
        <g transform="scale(4, -4)   translate(27.92493872743218,-56.05923195352641)" stroke-width="0.25"  fill="none">
        <!-- hidden lines -->
        <g  stroke="rgb(160,160,160)" fill="none" stroke-dasharray="0.25,0.25" >
    			<path d="M-10.995152697656795,39.377227084737115 L-24.49001358379531,40.87491311672322 " />
			<path d="M-10.995152697656806,39.377227084737115 L-10.995152697656806,-48.79055588091035 " />
			<path d="M-10.995152697656795,-48.79055588091035 L-24.49001358379531,-47.29286984892424 " />
			<path d="M-24.490013583795303,40.87491311672322 L-24.490013583795303,-47.29286984892424 " />
			<path d="M24.490013583795292,46.032807218473195 L24.490013583795292,-42.134975747174266 " />
			<path d="M24.490013583795292,-42.134975747174266 L24.448595368574072,-42.2040626900964 L24.402884938861508,-42.27309327119557 L24.352885970215485,-42.342061939749556 L24.298602483033672,-42.4109631500145 L24.240038842230188,-42.47979136167084 L24.177199756884644,-42.54854104026881 L24.110090279863503,-42.61720665767344 L24.03871580741374,-42.68578269250911 L23.96308207872897,-42.754263630603475 L23.88319517548796,-42.822643965430906 L23.799061521365555,-42.89091819855524 L23.71068788151624,-42.95908084007189 L23.61808136203005,-43.02712640904932 L23.521249409361264,-43.09504943396977 L23.420199809729606,-43.162844453169164 L23.31494068849413,-43.23050601527634 L23.20548050949991,-43.29802867965137 L23.091828074397423,-43.36540701682302 L22.973992521934843,-43.432635608925374 L22.8519833272232,-43.49970905013344 L22.725810300974434,-43.56662194709786 L22.595483588712614,-43.63336891937857 L22.322411357384713,-43.766343635269884 L22.032854462002202,-43.89859042888609 L21.726906033322965,-44.03006676542897 L21.40466447414619,-44.16073035790395 L21.066233427662926,-44.29053918072095 L20.711721744121082,-44.41945148321112 L20.34124344581573,-44.54742580305523 L19.95491769041588,-44.67442097961929 L19.552868732639528,-44.80039616719307 L19.135225884289458,-44.92531084812743 L18.702123472662297,-45.0491248458661 L18.25370079734471,-45.171798337867706 L17.790102085410066,-45.29329186841399 L17.311476445030497,-45.41356636130004 L16.81797781751884,-45.532583132402465 L16.309764927816314,-45.65030390212139 L15.787001233441405,-45.766690807692434 L15.249854871916728,-45.88170641536462 L14.698498606690624,-45.99531373244019 L14.133109771570904,-46.107476219172696 L13.553870213688679,-46.21815780051934 L12.960966235010407,-46.32732287774386 L12.354588532417278,-46.4349363398662 L11.734932136371032,-46.540963574955356 L11.102196348185881,-46.64537048126167 L10.456584675926837,-46.74812347818504 L9.798304768954974,-46.8491895170755 L9.127568351140855,-46.94853609186276 L8.444591152767241,-47.04613124951117 L7.749592841143443,-47.14194360029682 L7.042796949953246,-47.23594232790354 L6.324430807359274,-47.328097199334344 L5.594725462887059,-47.41837857463538 L4.853915613112104,-47.50675741642907 L4.102239526173886,-47.59320529925344 L3.339938965141396,-47.67769441870469 L2.5672591102541737,-47.76019760037995 L1.7844484800646114,-47.840688308617466 L0.9917588515064644,-47.919140655031285 L0.18944517891523915,-47.99552940683783 L-0.6222344879730812,-48.06982999497152 L-1.4430190870193407,-48.14201852198701 L-2.2726446276470043,-48.21207176974535 L-3.1108442757498693,-48.27996720688168 L-3.9573484395146785,-48.345682996052055 L-4.81188485613032,-48.409198000957026 L-5.674178679356263,-48.47049179313974 L-6.543952567921991,-48.5295446585564 L-7.42092677472861,-48.5863376039169 L-8.304819236824738,-48.64085236279374 L-9.195345666126844,-48.693071401497015 L-10.092219640855241,-48.74297792471386 L-10.99515269765633,-48.790555880910325 " />
			<path d="M24.490013583795292,46.032807218473195 L24.448595368574072,45.96372027555106 L24.402884938861508,45.89468969445189 L24.352885970215485,45.825721025897906 L24.298602483033672,45.75681981563296 L24.240038842230188,45.68799160397662 L24.177199756884644,45.61924192537865 L24.110090279863503,45.55057630797402 L24.03871580741374,45.482000273138354 L23.96308207872897,45.413519335043986 L23.88319517548796,45.345139000216555 L23.799061521365555,45.27686476709222 L23.71068788151624,45.20870212557557 L23.61808136203005,45.14065655659814 L23.521249409361264,45.07273353167769 L23.420199809729606,45.0049385124783 L23.31494068849413,44.93727695037112 L23.20548050949991,44.869754285996095 L23.091828074397423,44.80237594882444 L22.973992521934843,44.73514735672209 L22.8519833272232,44.66807391551402 L22.725810300974434,44.601161018549604 L22.595483588712614,44.53441404626889 L22.322411357384713,44.40143933037758 L22.032854462002202,44.26919253676137 L21.726906033322965,44.13771620021849 L21.40466447414619,44.00705260774351 L21.066233427662926,43.87724378492651 L20.711721744121082,43.74833148243634 L20.34124344581573,43.62035716259223 L19.95491769041588,43.49336198602817 L19.552868732639528,43.36738679845439 L19.135225884289458,43.24247211752003 L18.702123472662297,43.11865811978136 L18.25370079734471,42.995984627779755 L17.790102085410066,42.874491097233474 L17.311476445030497,42.75421660434742 L16.81797781751884,42.635199833245 L16.309764927816314,42.517479063526075 L15.787001233441405,42.40109215795503 L15.249854871916728,42.28607655028284 L14.698498606690624,42.17246923320727 L14.133109771570904,42.060306746474765 L13.553870213688679,41.94962516512812 L12.960966235010407,41.8404600879036 L12.354588532417278,41.732846625781264 L11.734932136371032,41.626819390692106 L11.102196348185881,41.52241248438579 L10.456584675926837,41.41965948746242 L9.798304768954974,41.31859344857196 L9.127568351140855,41.2192468737847 L8.444591152767241,41.12165171613629 L7.749592841143443,41.02583936535064 L7.042796949953246,40.931840637743925 L6.324430807359274,40.83968576631312 L5.594725462887059,40.74940439101208 L4.853915613112104,40.661025549218394 L4.102239526173886,40.57457766639402 L3.339938965141396,40.49008854694277 L2.5672591102541737,40.40758536526751 L1.7844484800646114,40.327094657029996 L0.9917588515064644,40.24864231061618 L0.18944517891523915,40.17225355880963 L-0.6222344879730812,40.09795297067594 L-1.4430190870193407,40.02576444366045 L-2.2726446276470043,39.95571119590211 L-3.1108442757498693,39.88781575876578 L-3.9573484395146785,39.822099969595406 L-4.81188485613032,39.758584964690435 L-5.674178679356263,39.69729117250772 L-6.543952567921991,39.638238307091065 L-7.42092677472861,39.58144536173056 L-8.304819236824738,39.526930602853724 L-9.195345666126844,39.47471156415045 L-10.092219640855241,39.4248050409336 L-10.99515269765633,39.377227084737136 " />
			<path d="M-24.4900135837953,40.87491311672321 L-24.44859536857408,40.94400005964535 L-24.402884938861508,41.01303064074452 L-24.352885970215493,41.0819993092985 L-24.298602483033672,41.15090051956344 L-24.240038842230195,41.21972873121979 L-24.17719975688465,41.28847840981775 L-24.11009027986351,41.35714402722238 L-24.03871580741374,41.42572006205805 L-23.963082078728977,41.49420100015242 L-23.88319517548796,41.56258133497985 L-23.799061521365562,41.63085556810418 L-23.71068788151624,41.69901820962083 L-23.61808136203005,41.76706377859827 L-23.52124940936127,41.83498680351872 L-23.420199809729606,41.90278182271811 L-23.31494068849413,41.97044338482529 L-23.20548050949991,42.037966049200314 L-23.091828074397423,42.10534438637196 L-22.97399252193485,42.172572978474314 L-22.8519833272232,42.23964641968238 L-22.725810300974434,42.3065593166468 L-22.59548358871262,42.37330628892751 L-22.322411357384713,42.506281004818824 L-22.032854462002202,42.63852779843503 L-21.726906033322958,42.77000413497792 L-21.404664474146184,42.9006677274529 L-21.06623342766292,43.030476550269896 L-20.711721744121075,43.15938885276006 L-20.341243445815724,43.28736317260418 L-19.954917690415865,43.41435834916824 L-19.55286873263952,43.54033353674202 L-19.135225884289436,43.66524821767638 L-18.702123472662283,43.78906221541505 L-18.253700797344695,43.911735707416646 L-17.79010208541005,44.03322923796293 L-17.31147644503047,44.15350373084899 L-16.817977817518827,44.272520501951405 L-16.309764927816307,44.39024127167033 L-15.78700123344139,44.50662817724138 L-15.249854871916707,44.621643784913566 L-14.698498606690595,44.735251101989135 L-14.13310977157089,44.84741358872164 L-13.553870213688658,44.95809517006829 L-12.960966235010385,45.0672602472928 L-12.354588532417264,45.174873709415145 L-11.734932136371032,45.2809009445043 L-11.102196348185881,45.38530785081062 L-10.456584675926816,45.48806084773398 L-9.798304768954946,45.58912688662445 L-9.127568351140827,45.68847346141171 L-8.44459115276722,45.78606861906011 L-7.7495928411434285,45.88188096984577 L-7.042796949953225,45.97587969745248 L-6.324430807359239,46.06803456888329 L-5.59472546288703,46.15831594418433 L-4.853915613112061,46.246694785978015 L-4.1022395261738644,46.33314266880239 L-3.339938965141375,46.41763178825363 L-2.567259110254131,46.500134969928894 L-1.7844484800645652,46.580625678166406 L-0.9917588515064075,46.65907802458023 L-0.18944517891521073,46.73546677638677 L0.6222344879731239,46.80976736452047 L1.4430190870193904,46.88195589153595 L2.272644627647022,46.95200913929429 L3.110844275749887,47.01990457643062 L3.9573484395147105,47.085620365600995 L4.811884856130359,47.149135370505974 L5.674178679356302,47.21042916268868 L6.543952567922002,47.269482028105344 L7.420926774728631,47.32627497346585 L8.30481923682477,47.380789732342684 L9.195345666126844,47.433008771045955 L10.092219640855252,47.4829152942628 L10.995152697656689,47.53049325045929 " />
			<path d="M10.995152697656797,47.530493250459294 L24.490013583795296,46.03280721847319 " />
			<path d="M-5.487396847647238,42.424646744855515 L-5.460471467504672,42.43076960278861 L-5.4336109529612555,42.439023204278726 L-5.38034304584346,42.46183801808793 L-5.328106125358595,42.4928714671543 L-5.277403261606536,42.53182468239872 L-5.228722750882221,42.578322523064394 L-5.182533413115397,42.63191718952739 L-5.139280076878421,42.69209253585187 L-5.099379295443934,42.75826904055753 L-5.063215335149134,42.82980938772828 L-5.031136474700893,42.90602460471296 L-5.0034516510614155,42.98618069730851 L-4.980427484216414,43.06950571852548 L-4.9622857094788975,43.15519720285943 L-4.949201042056888,43.24242989447252 L-4.94129949445047,43.33036369485827 L-4.938657162882515,43.41815175344945 " />
			<path d="M11.15770692354937,-41.38209242234762 L11.15770692354937,48.566857875939185 " />
			<path d="M25.424938727432174,-42.96549768810561 L11.15770692354937,-41.38209242234762 " />
			<path d="M-25.424938727432174,-48.24351524063224 L-25.3865884777461,-48.17211249666182 L-25.343732301640262,-48.10076310869928 L-25.296373754272015,-48.02947299557185 L-25.24451676429535,-47.95824807118955 L-25.188165633535018,-47.887094244054644 L-25.127325036629674,-47.81601741677147 L-25.06200002064404,-47.745023485556835 L-24.992196004650285,-47.67411833975083 L-24.917918779278427,-47.6033078613283 L-24.839174506236038,-47.53259792441093 L-24.75596971779702,-47.46199439477991 L-24.66831131625975,-47.39150312938936 L-24.576206573374517,-47.32112997588048 L-24.47966312974025,-47.2508807720964 L-24.378688994170734,-47.18076134559795 L-24.273292543030177,-47.110777513180224 L-24.1634825195384,-47.04093508039002 L-24.049268033045504,-46.97123984104426 L-23.930658558276196,-46.901697576749356 L-23.807663934543857,-46.83231405642158 L-23.680294364934237,-46.76309503580853 L-23.548560415459132,-46.694046257011635 L-23.41247301417982,-46.62517344800981 L-23.272043450300533,-46.556482322184316 L-22.978204791624908,-46.419667897756476 L-22.667141939591847,-46.28364838084597 L-22.33895810961165,-46.148468904808176 L-21.993762198096878,-46.014174324260075 L-21.631668746328845,-45.88080920019679 L-21.252797902451082,-45.748417785205575 L-20.85727538160233,-45.617044008782116 L-20.445232424202363,-45.48673146275408 L-20.01680575240437,-45.35752338681665 L-19.57213752472848,-45.22946265418495 L-19.111375288891406,-45.102591757368046 L-18.63467193284782,-44.976952794069305 L-18.142185634059818,-44.852587453217694 L-17.634079807011215,-44.729537001134815 L-17.110523048984103,-44.60784226784203 L-16.571689084115736,-44.4875436335125 L-16.01775670575415,-44.36868101507241 L-15.448909717131844,-44.25129385295591 L-14.865336870377032,-44.13542109801818 L-14.267231803882797,-44.021101198610936 L-13.65479297805496,-43.90837208782471 L-13.028223609459797,-43.79727117090203 L-12.38773160339375,-43.6878353128258 L-11.733529484897229,-43.580100826086955 L-11.065834328235592,-43.47410345863541 L-10.384867684870546,-43.36987838201832 L-9.690855509946022,-43.26746017970967 L-8.984028087312726,-43.1668828356349 L-8.264619953116561,-43.068179722894556 L-7.532869817975833,-42.97138359269057 L-6.789020487773495,-42.8765265634589 L-6.033318783090383,-42.78364011021217 L-5.26601545730642,-42.692755054095755 L-4.487365113396795,-42.603901552160856 L-3.697626119450799,-42.517109087357944 L-2.8970605229413344,-42.43240645875386 L-2.085933963773588,-42.34982177197583 L-1.2645155861416129,-42.26938242988561 L-0.43307794922218434,-42.19111512348678 L0.40810306326448753,-42.11504582306827 L1.2587483345972217,-42.04119976958703 L2.118575607669044,-41.96960146629267 L2.9872995786444143,-41.90027467059692 L3.864631991627398,-41.83324238619058 L4.750281734309393,-41.768526855410485 L5.643954934564622,-41.70614955185923 L6.5453550579614195,-41.64613117327985 L7.454183006156885,-41.588491634688005 L8.370137216142268,-41.53325006176389 L9.292913760306213,-41.480424784506 L10.222206447282563,-41.43003333114902 L11.157706923549252,-41.382092422347625 " />
			<path d="M-9.000000000000004,46.779834879304296 L-8.021423583487152,46.91333449190931 L-7.020282113386639,47.04330470985983 L-5.997186941970288,47.16966616616289 L-4.9527628276524105,47.29234169753468 L-3.8876475534777875,47.41125639152073 L-2.8024915376561026,47.526337632241564 L-1.6979574363807046,47.637515144736 L-0.5747197391741032,47.74472103787488 L0.5665356429925623,47.84788984581919 L1.7251117965546499,47.946958567997065 L2.9003012309279406,48.041866707575466 L4.091386310541434,48.13255630840286 L5.297639693065282,48.21897199040046 L6.518324773566167,48.30106098338034 L7.752696134318974,48.378773159269834 L8.999999999999883,48.45206106272253 " />
			<path d="M8.999999999999996,44.344443833917886 L8.997289368265834,44.376310345849866 L8.989159105846548,44.40815766258663 L8.975614110108209,44.43996660049541 L8.956662540049768,44.47171799906143 L8.932315811388387,44.50339273242946 L8.902588589683026,44.53497172092451 L8.867498781500467,44.56643594254472 L8.82706752362907,44.59776644441952 L8.781319170346753,44.628944354226086 L8.730281278750892,44.659950891557386 L8.673984592158956,44.69076737923473 L8.612463021589877,44.72137525455824 L8.545753625337326,44.751756080488335 L8.473896586647184,44.78189155675148 L8.396935189512647,44.81176353086362 L8.314915792601576,44.841354009064524 L8.135903638110987,44.89961936124145 L7.937291379135191,44.95654724694542 L7.719557490002445,45.01200052191347 L7.483226510722902,45.065845594349085 L7.228867783325801,45.117952746756494 L6.957094080264628,45.16819644844149 L6.668560128194628,45.21645565792589 L6.363961030678924,45.26261411454705 L6.044030593623162,45.30656061853995 L5.709539557472806,45.34818929892721 L5.361293740431895,45.38739986857155 L5.000132097176416,45.424097865776254 L4.626924697738991,45.45819488185168 L4.242570631433972,45.489608774099565 L3.8479958408725343,45.518263863701954 L3.444150891285803,45.5440911180381 L3.032008680529975,45.567028316990104 L2.6125620952901567,45.587020202836634 L2.18682161912937,45.604018613373604 L1.7558128981451495,45.61798259794115 L1.3205742700982501,45.628878516077336 L0.8821542629660394,45.63668011856102 L0.44160906894675767,45.641368610648456 L-5.0026197575375976e-15,45.642932697351554 L-0.4416090689467676,45.641368610648456 L-0.8821542629660495,45.63668011856102 L-1.3205742700982603,45.628878516077336 L-1.7558128981451593,45.61798259794115 L-2.1868216191293803,45.604018613373604 L-2.612562095290167,45.587020202836634 L-3.0320086805299864,45.567028316990104 L-3.4441508912858145,45.5440911180381 L-3.847995840872544,45.518263863701954 L-4.242570631433987,45.489608774099565 L-4.626924697739004,45.45819488185168 L-5.000132097176428,45.424097865776254 L-5.361293740431907,45.38739986857155 L-5.709539557472815,45.34818929892721 L-6.0440305936231695,45.30656061853995 L-6.363961030678934,45.26261411454705 L-6.668560128194638,45.21645565792589 L-6.957094080264638,45.16819644844149 L-7.228867783325809,45.117952746756494 L-7.483226510722911,45.065845594349085 L-7.719557490002453,45.01200052191347 L-7.9372913791352,44.95654724694542 L-8.135903638110996,44.89961936124145 L-8.314915792601585,44.841354009064524 L-8.396935189512654,44.81176353086362 L-8.473896586647191,44.78189155675148 L-8.545753625337333,44.751756080488335 L-8.612463021589885,44.72137525455824 L-8.673984592158964,44.69076737923473 L-8.730281278750901,44.65995089155738 L-8.781319170346762,44.628944354226086 L-8.82706752362908,44.59776644441951 L-8.867498781500476,44.56643594254472 L-8.902588589683033,44.53497172092451 L-8.932315811388394,44.50339273242946 L-8.956662540049775,44.47171799906143 L-8.975614110108216,44.43996660049541 L-8.989159105846555,44.408157662586625 L-8.997289368265841,44.376310345849866 L-9.000000000000004,44.34444383391789 " />
			<path d="M-24.490013583795292,-47.29286984892424 L-24.44859536857408,-47.22378290600211 L-24.402884938861508,-47.15475232490294 L-24.352885970215485,-47.08578365634895 L-24.298602483033672,-47.01688244608401 L-24.240038842230188,-46.948054234427666 L-24.17719975688465,-46.879304555829705 L-24.110090279863503,-46.81063893842507 L-24.03871580741374,-46.7420629035894 L-23.963082078728977,-46.67358196549503 L-23.88319517548796,-46.6052016306676 L-23.799061521365555,-46.536927397543266 L-23.71068788151624,-46.468764756026616 L-23.61808136203005,-46.400719187049184 L-23.52124940936127,-46.33279616212874 L-23.420199809729606,-46.26500114292934 L-23.31494068849413,-46.19733958082217 L-23.20548050949991,-46.12981691644714 L-23.091828074397416,-46.06243857927549 L-22.973992521934843,-45.99520998717314 L-22.85198332722319,-45.928136545965074 L-22.725810300974434,-45.86122364900066 L-22.595483588712614,-45.794476676719945 L-22.322411357384706,-45.66150196082863 L-22.032854462002202,-45.529255167212426 L-21.726906033322958,-45.39777883066954 L-21.404664474146177,-45.267115238194556 L-21.06623342766291,-45.13730641537756 L-20.711721744121075,-45.00839411288739 L-20.341243445815724,-44.880419793043274 L-19.954917690415858,-44.753424616479215 L-19.552868732639514,-44.627449428905436 L-19.135225884289436,-44.50253474797107 L-18.702123472662283,-44.378720750232404 L-18.25370079734469,-44.25604725823081 L-17.79010208541005,-44.13455372768452 L-17.31147644503047,-44.014279234798465 L-16.817977817518827,-43.89526246369604 L-16.3097649278163,-43.77754169397713 L-15.78700123344139,-43.66115478840607 L-15.249854871916707,-43.54613918073389 L-14.698498606690595,-43.43253186365832 L-14.13310977157089,-43.32036937692581 L-13.553870213688658,-43.209687795579164 L-12.960966235010371,-43.100522718354654 L-12.354588532417264,-42.99290925623231 L-11.734932136371018,-42.88688202114315 L-11.102196348185874,-42.782475114836835 L-10.456584675926816,-42.67972211791347 L-9.798304768954946,-42.578656079023006 L-9.127568351140813,-42.479309504235744 L-8.444591152767213,-42.381714346587344 L-7.749592841143421,-42.28590199580169 L-7.04279694995321,-42.19190326819497 L-6.3244308073592315,-42.09974839676416 L-5.594725462887016,-42.009467021463124 L-4.853915613112047,-41.92108817966944 L-4.102239526173857,-41.834640296845066 L-3.3399389651413607,-41.75015117739382 L-2.5672591102541276,-41.66764799571856 L-1.7844484800645546,-41.58715728748104 L-0.9917588515064004,-41.50870494106722 L-0.18944517891521073,-41.43231618926068 L0.6222344879731239,-41.358015601126986 L1.4430190870193904,-41.2858270741115 L2.272644627647022,-41.215773826353164 L3.1108442757498977,-41.147878389216835 L3.957348439514721,-41.08216260004646 L4.811884856130369,-41.01864759514148 L5.674178679356327,-40.95735380295877 L6.543952567922023,-40.89830093754211 L7.4209267747286525,-40.841507992181604 L8.304819236824795,-40.78699323330477 L9.195345666126865,-40.7347741946015 L10.092219640855266,-40.68486767138465 L10.995152697656696,-40.63728971518817 " />
			<path d="M10.995152697656799,47.5304932504593 L10.995152697656799,-40.63728971518816 " />
			<path d="M10.995152697656797,-40.63728971518816 L24.490013583795296,-42.134975747174266 " />
			<path d="M8.099999999999998,44.344443833917886 L8.103371959092488,44.27522281443876 L8.113265639251763,44.207749699567756 L8.129024646203124,44.143698597365876 L8.149584728989776,44.08459539072718 L8.173525256583334,44.031738602163074 L8.199163403355726,43.986100415302424 L8.224701443229181,43.94826263791232 L8.248384483032876,43.91838172251965 L8.285414361348481,43.88016642868203 L8.298724638787249,43.86916962443306 " />
			<path d="M8.298724638787249,43.86916962443306 L8.297535469654537,43.8699869988473 L8.293961946478952,43.8723137319415 L8.279780240826984,43.8808135751756 L8.224527049741042,43.909273180579596 L8.154573735000087,43.940188770946286 L8.06452362229965,43.97509522199988 L7.955937122663031,44.01264294043721 L7.830180538154173,44.05173961198539 L7.688426061877648,44.09155020140184 L7.531651777978663,44.13149695247428 L7.3606416616430606,44.17125938802073 L7.175985579097315,44.21077430988952 L6.965459238042928,44.25202251431633 L6.741128216889904,44.29226546007863 L6.503601504273022,44.33136991369976 L6.253488867736323,44.36921132783367 L5.991400853733106,44.405673841264914 L5.717948787625935,44.440650278908684 L5.433744773686638,44.47404215181076 L5.139401695096305,44.50575965714752 L4.835533213945286,44.53572167822599 L4.522753771233193,44.56385578448377 L4.201678586868905,44.590098231489094 L3.872923659670562,44.61439396094079 L3.5371057673655604,44.636696600668316 L3.1948424665905693,44.65696846463172 L2.8467520928915135,44.67518055292167 L2.493453760723579,44.691312551759445 L2.081919682310224,44.70717541691001 L1.665373980466061,44.72017078575567 L1.244841821914045,44.73026549958193 L0.8213452577411554,44.737433870360256 L0.3959032233983898,44.741657680748055 L-0.030468461299246904,44.742926184088695 L-0.4567570921727242,44.7412361044115 L-0.8819530806789955,44.73659163643175 L-1.305049953911002,44.72900444555067 L-1.725044354597666,44.718493667855455 L-2.1409360411038927,44.70508591011924 L-2.5517278874305767,44.68881524980112 L-2.9564258832145835,44.66972323504613 L-3.3540391337287643,44.647858884685284 L-3.743579859881962,44.623278688235544 L-4.124063398218999,44.59604660589981 L-4.692194780486165,44.54887126369224 L-4.9661491512728375,44.523140112962345 L-5.232849535890838,44.49600188034994 L-5.4918979174433105,44.46748893628508 L-5.742885729078358,44.43764640482089 L-5.9853938539890486,44.40653216363358 L-6.218992625413408,44.374216844022456 L-6.443241826634418,44.340783830909906 L-6.657690690980023,44.3063292628414 L-6.8618779018231235,44.27096203198551 L-7.055331592581583,44.234803784133874 L-7.2375693467182165,44.19798891870122 L-7.408098197740802,44.16066458872538 L-7.566414629202079,44.122990700867255 L-7.712004574699744,44.08513991541084 L-7.880996548131569,44.03643008268898 L-8.025141775210496,43.98924939148764 L-8.142132013479227,43.94524246082633 L-8.229044884965731,43.90711973480466 L-8.280954054515897,43.880140107032354 L-8.294258846114786,43.87212480059465 L-8.297609566102377,43.869936884138035 L-8.298724638787254,43.86916962443306 " />
			<path d="M-8.298724638787256,43.86916962443306 L-8.285616410381202,43.87998634721276 L-8.249101674048852,43.91754561448865 L-8.22545198579777,43.947244401692494 L-8.199888503099451,43.984932796584616 L-8.174173678717082,44.030465766173975 L-8.150117945863075,44.08326901708312 L-8.129351123770885,44.142603244503455 L-8.113419400578865,44.20696931484368 L-8.103411724201434,44.27481713063919 L-8.100000000000003,44.344443833917886 " />
			<path d="M-8.100000000000005,52.260743090092745 L-8.100000000000005,44.344443833917886 " />
			<path d="M8.099999999999998,52.260743090092745 L8.099999999999998,44.344443833917886 " />

        </g>

        <!-- solid lines -->
        <g  stroke="rgb(0,0,0)" fill="none">
    			<path d="M-4.938657162882515,51.33445100962432 L-4.480360461135901,51.28715573634797 L-4.000382722548416,51.244571776696375 L-3.5010466207360293,51.206905199892326 L-2.9847685069082663,51.17433827931458 L-2.454046716835904,51.147028610453724 L-1.911449481084904,51.12510834828742 L-1.3596024970204927,51.1086835677656 L-0.801176222722054,51.09783375050023 L-0.23887295429523162,51.0926114001436 L0.3245862508842818,51.09304178831649 L0.8864747417151381,51.09912283231552 L1.444073467983445,51.11082510519166 L1.994684138194241,51.128091978150955 L2.535642276948868,51.15083989458853 L3.0643301186819336,51.17895877442967 L3.57818927536342,51.21231254682135 L4.074733116865311,51.25073980859653 L4.551558804082562,51.294054605324625 L5.0063589165786055,51.34204733116886 L5.436932618487709,51.3944857431956 L5.841196308641,51.45111608522769 L6.032845324052841,51.48091834881507 L6.217193703378788,51.51166431580292 L6.394018357784608,51.54331677901884 L6.563105303257203,51.57583743429575 L6.724249919556957,51.60918692682567 L6.877257197838525,51.643324898784776 L7.021941976640402,51.67821003817243 L7.158129165957707,51.71380012880475 L7.285653959127029,51.750052101402474 L7.4043620322668735,51.786922085711176 L7.514109731032416,51.824365463590745 L7.61476424445853,51.862336923009956 L7.706203765680717,51.90079051288071 L7.788317639339447,51.939679698665714 L7.861006495489535,51.97895741869209 L7.924182369852475,52.01857614110302 L7.977768810266251,52.05848792137829 L8.02170096920377,52.0986444603543 L8.055925682247974,52.13899716267317 L8.06938434340429,52.1592318225122 L8.080401532428647,52.17949719559034 L8.08897391596142,52.199787150418324 L8.095098900343094,52.22009554806941 L8.098774632398996,52.2404162440368 L8.099999999999996,52.26074309009273 " />
			<path d="M8.099999999999996,52.26074309009274 L8.09756043143925,52.28942295083152 L8.090243195261893,52.3180855358946 L8.078052699097388,52.34671358001251 L8.06099628604479,52.37528983872193 L8.039084230249546,52.40379709875316 L8.012329730714722,52.4322181883987 L7.98074890335042,52.46053598785689 L7.944360771266163,52.488733439544205 L7.903187253312078,52.51679355837012 L7.857253150875803,52.544699441968284 L7.806586132943059,52.57243428087789 L7.751216719430888,52.599981368669056 L7.691178262803593,52.62732411200614 L7.626506927982464,52.65444604064298 L7.483424213341419,52.707962247724716 L7.322313274299887,52.76040106468395 L7.143562241221671,52.81163616181752 L6.9476017410022,52.861544109288765 L6.734903859650611,52.91000467448082 L6.50598100499322,52.95690111164748 L6.261384672238165,53.00212044316398 L6.001704115375164,53.04555373169995 L5.727564927611031,53.08709634265898 L5.439627534260846,53.12664819625259 L5.1385856017255245,53.16411400860113 L4.825164366388705,53.199403521281035 L4.500118887458774,53.23243171876527 L4.1642322279650905,53.26311903323315 L3.818313568290575,53.29139153625625 L3.46319625678528,53.3171811168984 L3.0997358021572223,53.34042564580093 L2.728807812476977,53.361069124857735 L2.351305885761141,53.37906182211961 L1.9681394572164328,53.39436039160289 L1.580231608330634,53.40692797771368 L1.1885168430884248,53.41673430403625 L0.7939388366694351,53.42375574627155 L0.3974481620520815,53.42797538915025 L-4.857629149663888e-15,53.42938306718304 L-0.3974481620520912,53.42797538915025 L-0.7939388366694449,53.42375574627155 L-1.1885168430884345,53.41673430403625 L-1.5802316083306436,53.40692797771368 L-1.9681394572164426,53.39436039160289 L-2.3513058857611506,53.37906182211961 L-2.728807812476988,53.361069124857735 L-3.0997358021572334,53.34042564580093 L-3.4631962567852903,53.3171811168984 L-3.8183135682905878,53.29139153625625 L-4.164232227965104,53.26311903323315 L-4.500118887458784,53.23243171876527 L-4.825164366388716,53.199403521281035 L-5.138585601725533,53.16411400860113 L-5.439627534260853,53.12664819625259 L-5.7275649276110405,53.08709634265898 L-6.0017041153751745,53.04555373169995 L-6.261384672238175,53.00212044316398 L-6.505981004993228,52.95690111164748 L-6.734903859650621,52.91000467448082 L-6.947601741002208,52.861544109288765 L-7.14356224122168,52.81163616181752 L-7.322313274299896,52.76040106468395 L-7.483424213341427,52.707962247724716 L-7.626506927982471,52.65444604064298 L-7.6911782628036,52.62732411200614 L-7.7512167194308965,52.599981368669056 L-7.8065861329430675,52.57243428087789 L-7.857253150875811,52.544699441968284 L-7.903187253312086,52.51679355837012 L-7.944360771266171,52.488733439544205 L-7.980748903350428,52.46053598785689 L-8.012329730714729,52.4322181883987 L-8.039084230249555,52.40379709875316 L-8.060996286044798,52.37528983872193 L-8.078052699097395,52.34671358001251 L-8.0902431952619,52.3180855358946 L-8.097560431439257,52.28942295083152 L-8.100000000000003,52.260743090092745 " />
			<path d="M-8.100000000000003,52.26074309009274 L-8.096688206530063,52.22732816795473 L-8.086755534262464,52.193940570093496 L-8.07021010540934,52.16060759844201 L-8.047065449610997,52.12735651026395 L-8.017340492872359,52.09421449586468 L-7.981059542086664,52.06120865635698 L-7.938252265159071,52.028365981499824 L-7.888953666746421,51.99571332762805 L-7.833204059632982,51.96327739569126 L-7.771049031765618,51.93108470941971 L-7.702539408975295,51.89916159363518 L-7.627731213415443,51.86753415272444 L-7.546685617751136,51.83622824929297 L-7.459468895136564,51.80526948301649 L-7.366152365021715,51.774683169707316 L-7.266812334832531,51.74449432061305 L-7.050391565395208,51.68540741478725 L-6.810914334346991,51.62820199381063 L-6.549163789337644,51.57306513305062 L-6.265995917064737,51.5201771431895 L-5.962336743993032,51.46971098056545 L-5.639179308027133,51.42183168156411 L-5.2975804110407365,51.37669582291019 L-4.938657162882572,51.334451009624324 " />
			<path d="M11.15770692354937,48.566857875939185 L25.424938727432174,46.983452610181196 " />
			<path d="M25.424938727432174,-42.96549768810561 L25.424938727432174,46.983452610181196 " />
			<path d="M-25.424938727432178,-48.24351524063224 L-25.424938727432178,41.70543505765456 " />
			<path d="M-25.424938727432174,41.70543505765457 L-25.376325942476644,41.79463042645348 L-25.320681886802046,41.88374021650796 L-25.25801376477776,41.972752890559704 L-25.18832969019589,42.06165692392427 L-25.11163868522073,42.15044080598317 L-25.027950679220684,42.23909304167421 L-24.93727650748266,42.32760215297976 L-24.839627909809185,42.41595668041285 L-24.735017528998466,42.504145184500835 L-24.623458909207468,42.592156247266544 L-24.504966494198317,42.679978473706534 L-24.379555625468253,42.76760049326647 L-24.247242540263297,42.855010961313276 L-24.10804436947603,42.942198560603956 L-23.961979135427537,43.02915200275086 L-23.80906574953409,43.11586002968324 L-23.649324009858592,43.202311415104845 L-23.482774598547298,43.28849496594739 L-23.309439079152046,43.37439952381981 L-23.129339893838353,43.46001396645291 L-22.94250036047981,43.54532720913941 L-22.74894466963902,43.63032820616912 L-22.548697881435604,43.71500595225903 L-22.341785922301643,43.79934948397821 L-22.12823558162484,43.88334788116729 L-21.908074508280126,43.966990268352255 L-21.681331207049812,44.05026581615258 L-21.44803503493309,44.13316374268333 L-21.208216197345013,44.215673314951076 L-20.96190574420582,44.29778385024355 L-20.709135565920764,44.379484717512774 L-20.449938389251233,44.460765338751465 L-20.184347773077494,44.54161519036259 L-19.912398104053768,44.622023804521916 L-19.634124592156116,44.70198077053326 L-19.349563266123685,44.78147573617642 L-19.058750968794033,44.86049840904749 L-18.76172535233294,44.93903855789143 L-18.149188787967187,45.0946306721621 L-17.512270789072257,45.248171502059456 L-16.85130119817651,45.399581532958955 L-16.166622313474416,45.548782353718984 L-15.458588711559596,45.695696697287815 L-14.727567063799217,45.840248480718174 L-13.973935946444872,45.98236284456847 L-13.198085644578246,46.121966191670516 L-12.400417949993017,46.258986225243476 L-11.58134595311785,46.393351986334395 L-10.741293829088097,46.52499389056595 L-9.880696618076936,46.653843764172265 L-9.000000000000046,46.77983487930429 " />
			<path d="M8.999999999999996,48.452061062722535 L10.074656120755353,48.51110167791571 L11.157706923549252,48.566857875939185 " />
			<path d="M-11.157706923549373,40.12202979189657 L-10.22220644728258,40.16997070069797 L-9.29291376030623,40.220362154054946 L-8.370137216142286,40.273187431312834 L-7.454183006156903,40.32842900423695 L-6.545355057961437,40.386068542828795 L-5.643954934564636,40.446086921408174 L-4.750281734309407,40.50846422495943 L-3.864631991627416,40.573179755739524 L-2.987299578644432,40.64021204014587 L-2.1185756076690687,40.70953883584161 L-1.258748334597243,40.78113713913598 L-0.4081030632645053,40.85498319261722 L0.4330779492221666,40.93105249303573 L1.264515586141588,41.00931979943456 L2.085933963773563,41.08975914152478 L2.8970605229413096,41.17234382830281 L3.6976261194507707,41.25704645690689 L4.487365113396766,41.3438389217098 L5.266015457306391,41.432692423644696 L6.033318783090348,41.523577479761116 L6.78902048777346,41.61646393300784 L7.532869817975804,41.71132096223951 L8.264619953116533,41.8081170924435 L8.984028087312705,41.90682020518385 L9.690855509945987,42.00739754925861 L10.384867684870532,42.10981575156727 L11.065834328235571,42.21404082818435 L11.7335294848972,42.3200381956359 L12.387731603393714,42.42777268237474 L13.028223609459761,42.53720854045097 L13.654792978054932,42.64830945737366 L14.267231803882776,42.76103856815988 L14.865336870376996,42.875358467567125 L15.448909717131823,42.99123122250486 L16.017756705754127,43.10861838462136 L16.571689084115707,43.22748100306145 L17.11052304898408,43.34777963739097 L17.634079807011187,43.469474370683756 L18.142185634059796,43.59252482276664 L18.63467193284779,43.716890163618245 L19.11137528889137,43.842529126916986 L19.57213752472845,43.96940002373389 L20.016805752404334,44.09746075636559 L20.445232424202327,44.22666883230302 L20.857275381602303,44.35698137833106 L21.252797902451054,44.488355154754515 L21.631668746328817,44.620746569745734 L21.99376219809685,44.754111693809016 L22.33895810961162,44.888406274357116 L22.66714193959182,45.02358575039491 L22.97820479162488,45.159605267305416 L23.27204345030051,45.296419691733256 L23.4124730141798,45.36511081755876 L23.548560415459118,45.433983626560575 L23.68029436493421,45.50303240535747 L23.807663934543836,45.57225142597052 L23.930658558276182,45.641634946298296 L24.049268033045475,45.7111772105932 L24.163482519538373,45.780872449938954 L24.273292543030156,45.850714882729164 L24.37868899417072,45.92069871514689 L24.479663129740228,45.990818141645335 L24.57620657337449,46.061067345429414 L24.66831131625973,46.131440498938304 L24.755969717797004,46.20193176432885 L24.839174506236024,46.27253529395986 L24.917918779278413,46.34324523087723 L24.992196004650264,46.41405570929976 L25.062000020644025,46.484960855105776 L25.127325036629653,46.55595478632041 L25.188165633534997,46.62703161360358 L25.24451676429533,46.69818544073849 L25.296373754272,46.76941036512079 L25.343732301640255,46.84070047824823 L25.38658847774609,46.912049866210765 L25.42493872743213,46.98345261018112 " />
			<path d="M-11.157706923549377,40.12202979189657 L-25.42493872743218,41.70543505765456 " />
			<path d="M-5.487396847647238,43.31523041117519 L-4.978178290151002,43.26268010753481 L-4.444869691720462,43.21536459681082 L-3.8900518008178104,43.17351284480632 L-3.316409452120296,43.13732737749771 L-2.726718574262115,43.10698330098565 L-2.1238327567610042,43.0826274541342 L-1.5106694411338806,43.06437769799885 L-0.8901958030245041,43.05232234548177 L-0.2654143936613681,43.04651973397441 L0.3606513898714246,43.04699794305539 L0.9849719352390427,43.05375465860987 L1.6045260755371615,43.0667571840278 L2.216315709104713,43.08594259842701 L2.817380307720965,43.11121806113543 L3.404811242979927,43.14246126095892 L3.975765861514912,43.179521008060796 L4.527481240961457,43.22221796558876 L5.057287560091737,43.27034551750887 L5.562621018420673,43.3236707684469 L5.805341291853348,43.35220284031444 L6.041036242764122,43.38193567069885 L6.269420645364589,43.41283327847301 L6.490218120712223,43.44485827295672 L6.703161471169823,43.47797189916492 L6.90799300375421,43.51213408470697 L7.1044648419828995,43.547303488280214 L7.292339225841337,43.58343754969901 L7.47138879950773,43.62049254139892 L7.641396886487251,43.658423621353485 L7.802157751822669,43.697184887339766 L7.95347685106412,43.73672943248678 L8.0951710656967,43.777009402039816 L8.227068924740971,43.81797605127171 L8.349010812258241,43.85957980447123 L8.460849160509479,43.90177031493701 L8.562448628534131,43.944496525904526 L8.65368626593272,43.987706732332306 L8.73445166165504,44.031348643472725 L8.804647077613861,44.07536944615153 L8.864187566962501,44.119715868679606 L8.91300107689308,44.16433424531962 L8.93336624556766,44.18672855411479 L8.951028535831082,44.20917058122948 L8.965982603782544,44.231653536606174 L8.97822392492072,44.254170617804114 L8.98774879551269,44.27671501205743 L8.99455433371455,44.29927989833641 L8.99863848044333,44.321858449411295 L8.999999999999996,44.34444383391787 " />
			<path d="M-9.000000000000004,44.344443833917886 L-8.996320229477849,44.30731614265343 L-8.985283926958292,44.2702188116965 L-8.966900117121488,44.23318217652819 L-8.941183832901109,44.19623652299701 L-8.908156103191509,44.15941206255337 L-8.867843935651848,44.12273890754482 L-8.82028029462119,44.086247046592426 L-8.765504074162688,44.04996632006823 L-8.70356006625887,44.013926395694014 L-8.63449892418402,43.978156744281186 L-8.558377121083662,43.94268661563171 L-8.475256903794937,43.90754501461977 L-8.385206241945706,43.8727606774737 L-8.28829877237396,43.8383620482776 L-8.184613738913017,43.80437725571186 L-8.074235927591701,43.770834090051565 L-7.957255597302546,43.737759980441645 L-7.833768405994675,43.705181972467344 L-7.703875332451744,43.6731267060383 L-7.567682593718879,43.64162039360443 L-7.276848654819605,43.58035721498219 L-6.962217685627485,43.52159278180317 L-6.624818604436702,43.46551926777646 L-6.265754786696815,43.41232004666385 L-5.886200456711929,43.36216909260394 L-5.487396847647302,43.3152304111752 " />
			<path d="M-11.157706923549377,-49.82692050639023 L-11.157706923549377,40.12202979189657 " />
			<path d="M-11.157706923549373,-49.82692050639023 L-10.22220644728258,-49.77897959758884 L-9.29291376030623,-49.72858814423186 L-8.370137216142286,-49.67576286697397 L-7.454183006156903,-49.62052129404985 L-6.545355057961437,-49.56288175545801 L-5.643954934564636,-49.50286337687863 L-4.750281734309407,-49.44048607332737 L-3.864631991627416,-49.37577054254728 L-2.987299578644432,-49.308738258140934 L-2.1185756076690687,-49.23941146244519 L-1.258748334597243,-49.167813159150825 L-0.4081030632645053,-49.093967105669584 L0.4330779492221666,-49.017897805251074 L1.264515586141588,-48.939630498852246 L2.085933963773563,-48.85919115676202 L2.8970605229413096,-48.776606469983996 L3.6976261194507707,-48.69190384137991 L4.487365113396766,-48.605111376577 L5.266015457306391,-48.51625787464211 L6.033318783090348,-48.42537281852569 L6.78902048777346,-48.33248636527896 L7.532869817975804,-48.23762933604729 L8.264619953116533,-48.1408332058433 L8.984028087312705,-48.042130093102955 L9.690855509945987,-47.94155274902819 L10.384867684870532,-47.839134546719535 L11.065834328235571,-47.73490947010245 L11.7335294848972,-47.6289121026509 L12.387731603393714,-47.521177615912066 L13.028223609459761,-47.411741757835834 L13.654792978054932,-47.30064084091315 L14.267231803882776,-47.18791173012692 L14.865336870376996,-47.07359183071968 L15.448909717131823,-46.957719075781945 L16.017756705754127,-46.840331913665445 L16.571689084115707,-46.721469295225354 L17.11052304898408,-46.60117066089583 L17.634079807011187,-46.47947592760305 L18.142185634059796,-46.35642547552016 L18.63467193284779,-46.23206013466856 L19.11137528889137,-46.10642117136982 L19.57213752472845,-45.97955027455291 L20.016805752404334,-45.85148954192121 L20.445232424202327,-45.722281465983784 L20.857275381602303,-45.59196891995575 L21.252797902451054,-45.46059514353229 L21.631668746328817,-45.32820372854107 L21.99376219809685,-45.19483860447779 L22.33895810961162,-45.06054402392969 L22.66714193959182,-44.925364547891895 L22.97820479162488,-44.78934503098139 L23.27204345030051,-44.65253060655355 L23.4124730141798,-44.583839480728045 L23.548560415459118,-44.51496667172623 L23.68029436493421,-44.44591789292933 L23.807663934543836,-44.37669887231628 L23.930658558276182,-44.30731535198851 L24.049268033045475,-44.237773087693604 L24.163482519538373,-44.16807784834785 L24.273292543030156,-44.09823541555764 L24.37868899417072,-44.02825158313991 L24.479663129740228,-43.95813215664147 L24.57620657337449,-43.88788295285739 L24.66831131625973,-43.8175097993485 L24.755969717797004,-43.747018533957956 L24.839174506236024,-43.67641500432694 L24.917918779278413,-43.60570506740957 L24.992196004650264,-43.534894588987044 L25.062000020644025,-43.46398944318103 L25.127325036629653,-43.39299551196639 L25.188165633534997,-43.321918684683226 L25.24451676429533,-43.25076485754831 L25.296373754272,-43.17953993316601 L25.343732301640255,-43.10824982003857 L25.38658847774609,-43.03690043207604 L25.42493872743213,-42.965497688105685 " />
			<path d="M-25.424938727432178,-48.24351524063224 L-11.157706923549373,-49.82692050639023 " />
			<path d="M-5.487396847647238,51.231529667350046 L-4.978178290151002,51.178979363709665 L-4.444869691720462,51.131663852985675 L-3.8900518008178104,51.08981210098117 L-3.316409452120296,51.053626633672565 L-2.726718574262115,51.0232825571605 L-2.1238327567610042,50.99892671030905 L-1.5106694411338806,50.9806769541737 L-0.8901958030245041,50.96862160165662 L-0.2654143936613681,50.96281899014926 L0.3606513898714246,50.96329719923024 L0.9849719352390427,50.97005391478472 L1.6045260755371615,50.98305644020265 L2.216315709104713,51.00224185460186 L2.817380307720965,51.027517317310284 L3.404811242979927,51.05876051713377 L3.975765861514912,51.09582026423565 L4.527481240961457,51.138517221763614 L5.057287560091737,51.186644773683724 L5.562621018420673,51.239970024621755 L5.805341291853348,51.26850209648929 L6.041036242764122,51.298234926873704 L6.269420645364589,51.32913253464786 L6.490218120712223,51.361157529131575 L6.703161471169823,51.39427115533977 L6.90799300375421,51.428433340881824 L7.1044648419828995,51.463602744455066 L7.292339225841337,51.499736805873866 L7.47138879950773,51.53679179757377 L7.641396886487251,51.57472287752834 L7.802157751822669,51.61348414351462 L7.95347685106412,51.653028688661635 L8.0951710656967,51.69330865821467 L8.227068924740971,51.73427530744656 L8.349010812258241,51.77587906064608 L8.460849160509479,51.81806957111186 L8.562448628534131,51.86079578207938 L8.65368626593272,51.90400598850716 L8.73445166165504,51.94764789964758 L8.804647077613861,51.99166870232638 L8.864187566962501,52.03601512485446 L8.91300107689308,52.080633501494475 L8.93336624556766,52.10302781028964 L8.951028535831082,52.12546983740433 L8.965982603782544,52.14795279278103 L8.97822392492072,52.170469873978966 L8.98774879551269,52.19301426823228 L8.99455433371455,52.21557915451126 L8.99863848044333,52.23815770558615 L8.999999999999996,52.260743090092724 " />
			<path d="M8.999999999999996,52.26074309009274 L8.997289368265834,52.29260960202472 L8.989159105846548,52.324456918761484 L8.975614110108209,52.35626585667026 L8.956662540049768,52.388017255236285 L8.932315811388387,52.41969198860431 L8.902588589683026,52.45127097709936 L8.867498781500467,52.482735198719574 L8.82706752362907,52.51406570059437 L8.781319170346753,52.54524361040094 L8.730281278750892,52.57625014773224 L8.673984592158956,52.60706663540958 L8.612463021589877,52.63767451073309 L8.545753625337326,52.66805533666319 L8.473896586647184,52.698190812926335 L8.396935189512647,52.728062787038475 L8.314915792601576,52.75765326523938 L8.135903638110987,52.8159186174163 L7.937291379135191,52.87284650312027 L7.719557490002445,52.92829977808832 L7.483226510722902,52.98214485052394 L7.228867783325801,53.034252002931346 L6.957094080264628,53.084495704616344 L6.668560128194628,53.132754914100744 L6.363961030678924,53.1789133707219 L6.044030593623162,53.2228598747148 L5.709539557472806,53.26448855510206 L5.361293740431895,53.3036991247464 L5.000132097176416,53.340397121951106 L4.626924697738991,53.374494138026535 L4.242570631433972,53.40590803027442 L3.8479958408725343,53.434563119876806 L3.444150891285803,53.46039037421295 L3.032008680529975,53.48332757316496 L2.6125620952901567,53.503319459011486 L2.18682161912937,53.52031786954846 L1.7558128981451495,53.534281854116 L1.3205742700982501,53.54517777225219 L0.8821542629660394,53.55297937473587 L0.44160906894675767,53.55766786682331 L-5.0026197575375976e-15,53.55923195352641 L-0.4416090689467676,53.55766786682331 L-0.8821542629660495,53.55297937473587 L-1.3205742700982603,53.54517777225219 L-1.7558128981451593,53.534281854116 L-2.1868216191293803,53.52031786954846 L-2.612562095290167,53.503319459011486 L-3.0320086805299864,53.48332757316496 L-3.4441508912858145,53.46039037421295 L-3.847995840872544,53.434563119876806 L-4.242570631433987,53.40590803027442 L-4.626924697739004,53.374494138026535 L-5.000132097176428,53.340397121951106 L-5.361293740431907,53.3036991247464 L-5.709539557472815,53.26448855510206 L-6.0440305936231695,53.2228598747148 L-6.363961030678934,53.1789133707219 L-6.668560128194638,53.132754914100744 L-6.957094080264638,53.084495704616344 L-7.228867783325809,53.034252002931346 L-7.483226510722911,52.98214485052394 L-7.719557490002453,52.92829977808832 L-7.9372913791352,52.87284650312027 L-8.135903638110996,52.8159186174163 L-8.314915792601585,52.75765326523938 L-8.396935189512654,52.728062787038475 L-8.473896586647191,52.698190812926335 L-8.545753625337333,52.66805533666319 L-8.612463021589885,52.63767451073309 L-8.673984592158964,52.60706663540958 L-8.730281278750901,52.57625014773223 L-8.781319170346762,52.54524361040094 L-8.82706752362908,52.514065700594365 L-8.867498781500476,52.482735198719574 L-8.902588589683033,52.45127097709936 L-8.932315811388394,52.41969198860431 L-8.956662540049775,52.388017255236285 L-8.975614110108216,52.35626585667026 L-8.989159105846555,52.32445691876148 L-8.997289368265841,52.29260960202472 L-9.000000000000004,52.260743090092745 " />
			<path d="M-9.000000000000004,52.26074309009274 L-8.996320229477849,52.22361539882828 L-8.985283926958292,52.186518067871354 L-8.966900117121488,52.14948143270304 L-8.941183832901109,52.112535779171864 L-8.908156103191509,52.075711318728224 L-8.867843935651848,52.039038163719674 L-8.82028029462119,52.00254630276728 L-8.765504074162688,51.96626557624308 L-8.70356006625887,51.93022565186887 L-8.63449892418402,51.89445600045604 L-8.558377121083662,51.85898587180656 L-8.475256903794937,51.82384427079462 L-8.385206241945706,51.78905993364855 L-8.28829877237396,51.754661304452455 L-8.184613738913017,51.720676511886715 L-8.074235927591701,51.68713334622642 L-7.957255597302546,51.6540592366165 L-7.833768405994675,51.621481228642196 L-7.703875332451744,51.589425962213156 L-7.567682593718879,51.55791964977928 L-7.276848654819605,51.496656471157046 L-6.962217685627485,51.437892037978024 L-6.624818604436702,51.38181852395131 L-6.265754786696815,51.3286193028387 L-5.886200456711929,51.278468348778794 L-5.487396847647302,51.23152966735005 " />
			<path d="M-9.000000000000007,52.260743090092745 L-9.000000000000007,44.344443833917886 " />
			<path d="M8.999999999999996,52.260743090092745 L8.999999999999996,44.344443833917886 " />

        </g>
        </g>
    </svg>
    