<?xml version='1.0' encoding='utf-8'?>
<svg width="100.09mm" height="52.372251mm" viewBox="-56.619454 -29.626219 113.238908 59.252438" version="1.1" xmlns="http://www.w3.org/2000/svg">
  <g transform="scale(1,-1)" stroke-linecap="round">
    <g fill="none" stroke="rgb(0,0,0)" stroke-width="0.10182337649086286" id="Visible">
      <line x1="0.0" y1="-29.575307" x2="0.0" y2="-20.613093" />
      <line x1="0.0" y1="-20.613093" x2="-56.568542" y2="4.481107" />
      <line x1="-56.568542" y1="-4.481107" x2="-56.568542" y2="4.481107" />
      <line x1="0.0" y1="-29.575307" x2="-56.568542" y2="-4.481107" />
      <line x1="0.0" y1="-29.575307" x2="56.568542" y2="-4.481107" />
      <line x1="56.568542" y1="-4.481107" x2="56.568542" y2="4.481107" />
      <line x1="0.0" y1="-20.613093" x2="56.568542" y2="4.481107" />
      <line x1="-56.568542" y1="4.481107" x2="0.0" y2="29.575307" />
      <line x1="56.568542" y1="4.481107" x2="-0.0" y2="29.575307" />
      <path d="M 17.67767,12.323045 A 24.999999999999986,11.090174384178361 180.0 0,0 25.0,4.481107" />
      <path d="M 25.0,4.481107 A 24.999999999999986,11.090174384178361 180.0 0,0 17.67767,-3.36083" />
      <path d="M 24.748737,-6.497605 A 5.0,2.2180348768356732 180.0 0,0 16.213203,-4.929218" />
      <path d="M 16.213203,-4.929218 A 5.0,2.2180348768356732 180.0 0,0 17.67767,-3.36083" />
      <path d="M 24.748737,-6.497605 A 34.999999999999986,15.526244137849707 0.0 0,1 35.0,4.481107" />
      <path d="M 35.0,4.481107 A 34.999999999999986,15.526244137849707 0.0 0,1 24.748737,15.45982" />
      <path d="M 17.67767,12.323045 A 5.0,2.2180348768356732 180.0 0,0 16.213203,13.891432" />
      <path d="M 16.213203,13.891432 A 5.0,2.2180348768356732 180.0 0,0 24.748737,15.45982" />
      <path d="M -24.748737,15.45982 A 34.999999999999986,15.526244137849707 0.0 0,1 -35.0,4.481107" />
      <path d="M -35.0,4.481107 A 34.999999999999986,15.526244137849707 0.0 0,1 -24.748737,-6.497605" />
      <path d="M -17.67767,-3.36083 A 5.0,2.2180348768356732 180.0 0,0 -16.213203,-4.929218" />
      <path d="M -16.213203,-4.929218 A 5.0,2.2180348768356732 180.0 0,0 -24.748737,-6.497605" />
      <path d="M -17.67767,-3.36083 A 24.999999999999986,11.090174384178361 180.0 0,0 -25.0,4.481107" />
      <path d="M -25.0,4.481107 A 24.999999999999986,11.090174384178361 180.0 0,0 -17.67767,12.323045" />
      <path d="M -24.748737,15.45982 A 5.0,2.2180348768356732 180.0 0,0 -16.213203,13.891432" />
      <path d="M -16.213203,13.891432 A 5.0,2.2180348768356732 180.0 0,0 -17.67767,12.323045" />
      <line x1="7.071068" y1="10.754657" x2="-14.142136" y2="1.344332" />
      <path d="M -7.071068,-1.792443 A 5.0,2.2180348768356732 180.0 0,0 -15.606602,-0.224055" />
      <path d="M -15.606602,-0.224055 A 5.0,2.2180348768356732 180.0 0,0 -14.142136,1.344332" />
      <line x1="-7.071068" y1="-1.792443" x2="14.142136" y2="7.617882" />
      <path d="M 7.071068,10.754657 A 5.0,2.2180348768356732 180.0 0,0 15.606602,9.18627" />
      <path d="M 15.606602,9.18627 A 5.0,2.2180348768356732 180.0 0,0 14.142136,7.617882" />
      <path d="M 25.0,-4.481107 A 24.999999999999986,11.090174384178361 180.0 0,0 24.547251,-6.58216" />
      <path d="M 33.510583,0.0 A 34.999999999999986,15.526244137849707 0.0 0,1 24.748737,6.497605" />
      <path d="M 24.547251,6.58216 A 5.0,2.2180348768356732 180.0 0,0 24.748737,6.497605" />
      <path d="M -24.748737,6.497605 A 34.999999999999986,15.526244137849707 0.0 0,1 -33.510583,0.0" />
      <path d="M -24.547251,-6.58216 A 24.999999999999986,11.090174384178361 180.0 0,0 -25.0,-4.481107" />
      <path d="M -24.748737,6.497605 A 5.0,2.2180348768356732 180.0 0,0 -24.547251,6.58216" />
      <line x1="17.67767" y1="-3.36083" x2="17.67767" y2="-6.497605" />
      <line x1="24.748737" y1="15.45982" x2="24.748737" y2="6.497605" />
      <line x1="-24.748737" y1="15.45982" x2="-24.748737" y2="6.497605" />
      <line x1="-17.67767" y1="-3.36083" x2="-17.67767" y2="-6.497605" />
      <line x1="7.071068" y1="10.754657" x2="7.071068" y2="4.481107" />
      <line x1="-14.142136" y1="1.344332" x2="-14.142136" y2="-1.792443" />
      <line x1="25.0" y1="-4.481107" x2="25.0" y2="4.481107" />
      <line x1="-25.0" y1="-4.481107" x2="-25.0" y2="4.481107" />
    </g>
    <g fill="none" stroke="rgb(99,99,99)" stroke-width="0.10182337649086286" id="Hidden" stroke-dasharray="0.002586 0.306763">
      <line x1="-56.568542" y1="-4.481107" x2="0.0" y2="20.613093" />
      <line x1="0.0" y1="20.613093" x2="0.0" y2="29.575307" />
      <line x1="56.568542" y1="-4.481107" x2="-0.0" y2="20.613093" />
      <path d="M 17.67767,3.36083 A 24.999999999999986,11.090174384178361 180.0 0,0 25.0,-4.481107" />
      <path d="M 24.547251,-6.58216 A 24.999999999999986,11.090174384178361 180.0 0,0 17.67767,-12.323045" />
      <path d="M 24.748737,-15.45982 A 5.0,2.2180348768356732 180.0 0,0 16.213203,-13.891432" />
      <path d="M 16.213203,-13.891432 A 5.0,2.2180348768356732 180.0 0,0 17.67767,-12.323045" />
      <path d="M 24.748737,-15.45982 A 34.999999999999986,15.526244137849707 0.0 0,1 35.0,-4.481107" />
      <path d="M 35.0,-4.481107 A 34.999999999999986,15.526244137849707 0.0 0,1 33.510583,0.0" />
      <path d="M 17.67767,3.36083 A 5.0,2.2180348768356732 180.0 0,0 16.213203,4.929218" />
      <path d="M 16.213203,4.929218 A 5.0,2.2180348768356732 180.0 0,0 24.547251,6.58216" />
      <path d="M -33.510583,0.0 A 34.999999999999986,15.526244137849707 0.0 0,1 -35.0,-4.481107" />
      <path d="M -35.0,-4.481107 A 34.999999999999986,15.526244137849707 0.0 0,1 -24.748737,-15.45982" />
      <path d="M -17.67767,-12.323045 A 5.0,2.2180348768356732 180.0 0,0 -16.213203,-13.891432" />
      <path d="M -16.213203,-13.891432 A 5.0,2.2180348768356732 180.0 0,0 -24.748737,-15.45982" />
      <path d="M -17.67767,-12.323045 A 24.999999999999986,11.090174384178361 180.0 0,0 -24.547251,-6.58216" />
      <path d="M -25.0,-4.481107 A 24.999999999999986,11.090174384178361 180.0 0,0 -17.67767,3.36083" />
      <path d="M -24.547251,6.58216 A 5.0,2.2180348768356732 180.0 0,0 -16.213203,4.929218" />
      <path d="M -16.213203,4.929218 A 5.0,2.2180348768356732 180.0 0,0 -17.67767,3.36083" />
      <line x1="7.071068" y1="1.792443" x2="-14.142136" y2="-7.617882" />
      <path d="M -7.071068,-10.754657 A 5.0,2.2180348768356732 180.0 0,0 -15.606602,-9.18627" />
      <path d="M -15.606602,-9.18627 A 5.0,2.2180348768356732 180.0 0,0 -14.142136,-7.617882" />
      <line x1="-7.071068" y1="-10.754657" x2="14.142136" y2="-1.344332" />
      <path d="M 7.071068,1.792443 A 5.0,2.2180348768356732 180.0 0,0 15.606602,0.224055" />
      <path d="M 15.606602,0.224055 A 5.0,2.2180348768356732 180.0 0,0 14.142136,-1.344332" />
      <line x1="16.213203" y1="-13.891432" x2="16.213203" y2="-4.929218" />
      <line x1="35.0" y1="-4.481107" x2="35.0" y2="4.481107" />
      <line x1="16.213203" y1="4.929218" x2="16.213203" y2="13.891432" />
      <line x1="-35.0" y1="-4.481107" x2="-35.0" y2="4.481107" />
      <line x1="-16.213203" y1="-13.891432" x2="-16.213203" y2="-4.929218" />
      <line x1="-16.213203" y1="4.929218" x2="-16.213203" y2="13.891432" />
      <line x1="-15.606602" y1="-9.18627" x2="-15.606602" y2="-0.224055" />
      <line x1="15.606602" y1="0.224055" x2="15.606602" y2="9.18627" />
    </g>
  </g>
</svg>