<?xml version="1.0" encoding="UTF-8" standalone="no"?>
    <svg
    xmlns:svg="http://www.w3.org/2000/svg"
    xmlns="http://www.w3.org/2000/svg"
    width="308"
    height="231"
    >
        <g transform="scale(4, -4)   translate(38.5555127546399,-28.888235165741662)" stroke-width="0.25"  fill="none">
        <!-- hidden lines -->
        <g  stroke="rgb(160,160,160)" fill="none" stroke-dasharray="0.25,0.25" >
    			<path d="M-36.0555127546399,-4.660965450470675 L19.414506867883013,25.456042075647527 " />
			<path d="M19.414506867883016,26.388235165741662 L19.414506867883016,25.456042075647527 " />
			<path d="M-28.151034958430383,-6.568375927124826 L27.31898466409253,23.548631598993374 " />
			<path d="M19.414506867883016,25.45604207564753 L27.318984664092532,23.548631598993378 " />
			<path d="M-28.151034958430383,-23.34785154881925 L27.31898466409253,6.769155977298951 " />
			<path d="M27.318984664092536,23.548631598993374 L27.318984664092536,6.769155977298947 " />
			<path d="M-28.151034958430383,-17.148767499693257 L19.414506867883013,8.6765664539531 " />
			<path d="M27.318984664092536,6.769155977298947 L19.41450686788302,8.6765664539531 " />
			<path d="M-36.0555127546399,-22.372634162259235 L19.414506867883013,7.744373363858966 " />
			<path d="M19.414506867883016,8.676566453953104 L19.414506867883016,7.744373363858969 " />
			<path d="M19.414506867883016,7.744373363858969 L36.05551275463989,3.728772360376543 " />
			<path d="M-27.318984664092536,-6.769155977298949 L28.151034958430376,23.347851548819254 " />
			<path d="M28.151034958430376,23.34785154881925 L28.151034958430376,17.14876749969326 " />
			<path d="M36.05551275463989,21.4404410721651 L28.151034958430376,23.347851548819254 " />

        </g>

        <!-- solid lines -->
        <g  stroke="rgb(0,0,0)" fill="none">
    			<path d="M-36.0555127546399,-3.7287723603765404 L19.414506867883013,26.388235165741662 " />
			<path d="M-36.0555127546399,-3.7287723603765404 L-19.414506867883023,-7.7443733638589665 " />
			<path d="M-19.41450686788302,-7.744373363858966 L36.05551275463989,22.372634162259235 " />
			<path d="M36.05551275463989,22.37263416225923 L19.414506867883016,26.38823516574166 " />
			<path d="M-36.0555127546399,-3.7287723603765404 L-36.0555127546399,-4.660965450470675 " />
			<path d="M-36.0555127546399,-4.660965450470675 L-28.151034958430383,-6.568375927124827 " />
			<path d="M-28.151034958430383,-6.568375927124826 L-28.151034958430383,-23.347851548819254 " />
			<path d="M-36.0555127546399,-21.4404410721651 L-28.151034958430383,-17.148767499693257 " />
			<path d="M-28.151034958430383,-23.34785154881925 L-36.0555127546399,-21.440441072165097 " />
			<path d="M-36.0555127546399,-21.4404410721651 L-36.0555127546399,-22.372634162259235 " />
			<path d="M-19.41450686788302,-26.388235165741662 L36.05551275463989,3.7287723603765386 " />
			<path d="M-19.41450686788302,-26.388235165741662 L-36.05551275463989,-22.372634162259235 " />
			<path d="M-19.41450686788302,-25.456042075647524 L36.05551275463989,4.660965450470677 " />
			<path d="M-19.41450686788302,-25.456042075647524 L-19.41450686788302,-26.38823516574166 " />
			<path d="M36.05551275463989,4.660965450470673 L36.05551275463989,3.7287723603765386 " />
			<path d="M-27.318984664092536,-23.548631598993374 L28.151034958430376,6.568375927124826 " />
			<path d="M-27.318984664092536,-23.548631598993374 L-19.41450686788302,-25.456042075647527 " />
			<path d="M28.151034958430376,6.568375927124826 L36.05551275463989,4.660965450470674 " />
			<path d="M-27.318984664092536,-6.769155977298949 L-27.318984664092536,-23.548631598993374 " />
			<path d="M28.151034958430376,17.14876749969326 L28.151034958430376,6.568375927124823 " />
			<path d="M-19.41450686788302,-8.6765664539531 L36.05551275463989,21.4404410721651 " />
			<path d="M-19.41450686788302,-8.6765664539531 L-27.318984664092536,-6.769155977298948 " />
			<path d="M-19.41450686788302,-7.744373363858966 L-19.41450686788302,-8.6765664539531 " />
			<path d="M36.05551275463989,22.37263416225923 L36.05551275463989,21.440441072165097 " />

        </g>
        </g>
    </svg>
    