<?xml version="1.0" encoding="UTF-8" standalone="no"?>
    <svg
    xmlns:svg="http://www.w3.org/2000/svg"
    xmlns="http://www.w3.org/2000/svg"
    width="399"
    height="218"
    >
        <g transform="scale(4, -4)   translate(49.926406971192854,-26.61784078892056)" stroke-width="0.25"  fill="none">
        <!-- hidden lines -->
        <g  stroke="rgb(160,160,160)" fill="none" stroke-dasharray="0.25,0.25" >
    			<path d="M-47.426406871192846,-0.7824307536299675 L-47.41854094628193,-0.8304195694407217 L-47.39496792065906,-0.868292524108192 L-47.355761963784026,-0.89593045530535 L-47.30104643210197,-0.9132464038756041 L-47.23099348091834,-0.9201858874384661 L-47.14582352273469,-0.9167270718112839 L-47.045804533749276,-0.9028808397076578 L-46.93125121070494,-0.8786907564964059 L-46.80252398073661,-0.8442329331287723 L-46.660027867334264,-0.7996157866652431 L-46.504211215989145,-0.7449796991553439 L-46.335564283532996,-0.6804965759437851 L-46.15461769560868,-0.6063693047926517 L-45.9619407771256,-0.5228311175214395 " />
			<path d="M-47.426406871192846,-7.469034971889891 L-47.42490096467387,-7.414495184339761 L-47.42038415221871,-7.359988249518278 L-47.4128591545863,-7.305547000364831 L-47.40233050455383,-7.251204230252222 L-47.3888045441864,-7.19699267323316 L-47.37228942101675,-7.142944984322491 L-47.35279508313755,-7.089093719827043 L-47.330333273209,-7.03547131773492 L-47.30491752138549,-6.9821100781760705 L-47.27656313716557,-6.929042143965899 L-47.24528720017005,-6.876299481243636 L-47.21110854985389,-6.823913860217132 L-47.174047774158026,-6.771916836025667 L-47.13412719710795,-6.720339729732322 L-47.09137086536654,-6.669213609457333 L-47.045804533749276,-6.6185692716638265 L-46.9974556497105,-6.568437222607175 L-46.94635333681006,-6.518847659959173 L-46.89252837717042,-6.469830454618085 L-46.83601319293462,-6.4214151327155395 L-46.7768418267364,-6.373630857831083 L-46.71504992119421,-6.326506413425138 L-46.65067469744138,-6.280070185500917 L-46.583754932705574,-6.23435014550576 L-46.44244452859607,-6.14516834147876 L-46.29145913800653,-6.059175848121443 L-46.131162497967644,-5.9765798288823575 L-45.96194077712559,-5.897579264806411 " />
			<path d="M-45.961940777125584,-5.897579264806408 L3.5355339059327378,16.102800634362342 " />
			<path d="M47.426406871192846,-1.1832121435559617 L47.42490096467387,-1.1286723560058318 L47.42038415221871,-1.074165421184348 L47.4128591545863,-1.0197241720309016 L47.40233050455383,-0.9653814019182928 L47.3888045441864,-0.9111698448992305 L47.37228942101675,-0.857122155988562 L47.35279508313755,-0.8032708914931144 L47.330333273209,-0.7496484894009907 L47.30491752138549,-0.6962872498421409 L47.27656313716557,-0.6432193156319699 L47.24528720017005,-0.5904766529097076 L47.21110854985389,-0.5380910318832034 L47.174047774158026,-0.4860940076917385 L47.13412719710795,-0.4345169013983923 L47.09137086536654,-0.3833907811234033 L47.045804533749276,-0.332746443329897 L46.9974556497105,-0.28261439427324586 L46.94635333681006,-0.23302483162524357 L46.89252837717042,-0.18400762628415657 L46.83601319293462,-0.13559230438161052 L46.7768418267364,-0.08780802949715416 L46.71504992119421,-0.04068358509120906 L46.65067469744138,0.00575264283301169 L46.583754932705574,0.05147268282816864 L46.44244452859607,0.14065448685516868 L46.29145913800653,0.22664698021248642 L46.131162497967644,0.3092429994515715 L45.96194077712559,0.3882435635275183 " />
			<path d="M3.5355339059327378,16.102800634362342 L3.7132730376303837,16.178015423996662 L3.899101391047248,16.24926324017309 L4.092571289403308,16.31637244066188 L4.293216646767464,16.379181353520988 L4.500554090899367,16.43753866657792 L4.714084127735486,16.49130379195403 L4.933292344714065,16.540347204753022 L5.1576506500400265,16.584550755097755 L5.386618544904375,16.623807952763684 L5.6196444255931635,16.658024223723107 L5.856166912349155,16.687117137982288 L6.095616201784834,16.711016608162538 L6.337415439588667,16.72966505834685 L6.580982110217672,16.743017562785315 L6.825729440228385,16.751041954125203 L7.0710678118654755,16.75371890090492 L7.316406183502566,16.751041954125203 L7.561153513513279,16.743017562785315 L7.804720184142283,16.72966505834685 L8.046519421946117,16.711016608162538 L8.285968711381795,16.687117137982288 L8.522491198137786,16.658024223723107 L8.755517078826575,16.623807952763684 L8.984484973690924,16.584550755097755 L9.208843279016886,16.54034720475302 L9.428051495995465,16.491303791954035 L9.641581532831584,16.43753866657792 L9.848918976963486,16.379181353520988 L10.04956433432764,16.31637244066188 L10.243034232683701,16.24926324017309 L10.428862586100568,16.178015423996662 L10.606601717798197,16.10280063436235 " />
			<path d="M45.961940777125584,0.38824356352751943 L10.606601717798206,16.10280063436234 " />
			<path d="M-7.0710678118654755,-4.3261235577229264 L4.440892098500626e-16,-7.46903497188989 " />
			<path d="M-4.440892098500626e-16,-7.46903497188989 L7.0710678118654755,-4.3261235577229264 " />
			<path d="M-4.440892098500626e-16,-1.1832121435559624 L7.0710678118654755,-4.3261235577229264 " />
			<path d="M-7.0710678118654755,-4.3261235577229264 L4.440892098500626e-16,-1.1832121435559624 " />
			<path d="M-45.961940777125584,-0.5228311175214309 L3.5355339059327378,21.477548781647318 " />
			<path d="M7.0710678118654755,23.440323119164862 L7.0710678118654755,24.11784078892056 " />
			<path d="M3.5355339059327378,21.477548781647318 L3.739334922105453,21.570235042995307 L3.9536188025718033,21.67177775315127 L4.177711330966442,21.781857421181858 L4.410907429288791,21.900127695725896 L4.652473376339277,22.026216454743878 L4.901649116277682,22.159726976351596 L5.157650650040026,22.30023918705392 L5.419672502089636,22.447310983451477 L5.686890254741222,22.60047962326148 L5.958463142083904,22.759263181276147 L6.233536695341794,22.9231620656777 L6.511245431348936,23.091660589939067 L6.7907155756795134,23.26422859536448 L7.071067811865464,23.440323119164834 " />
			<path d="M47.426406871192846,5.503392074703959 L47.41854094628193,5.455403258893209 L47.394967920659056,5.417530304225735 L47.355761963784026,5.389892373028578 L47.30104643210197,5.372576424458324 L47.23099348091834,5.365636940895462 L47.14582352273469,5.369095756522645 L47.045804533749276,5.382941988626268 L46.93125121070494,5.407132071837522 L46.80252398073661,5.441589895205154 L46.660027867334264,5.486207041668685 L46.504211215989145,5.540843129178584 L46.335564283532996,5.605326252390144 L46.15461769560868,5.679453523541276 L45.9619407771256,5.762991710812489 " />
			<path d="M7.0710678118654755,23.440323119164844 L7.3514200480514305,23.26422859536448 L7.630890192382015,23.091660589939067 L7.908598928389154,22.923162065677705 L8.183672481647044,22.75926318127615 L8.455245368989722,22.600479623261485 L8.722463121641308,22.447310983451484 L8.984484973690922,22.300239187053922 L9.240486507453262,22.159726976351596 L9.48966224739167,22.026216454743885 L9.731228194442153,21.9001276957259 L9.964424292764502,21.78185742118186 L10.188516821159137,21.67177775315127 L10.402800701625495,21.57023504299531 L10.606601717798197,21.47754878164732 " />
			<path d="M45.961940777125584,5.762991710812496 L10.606601717798206,21.477548781647315 " />
			<path d="M-7.071067811865475,-4.3261235577229264 L-7.071067811865475,4.631790021085369 " />
			<path d="M0.0,-7.46903497188989 L0.0,1.488878606918405 " />
			<path d="M7.071067811865475,-4.3261235577229264 L7.071067811865475,4.631790021085369 " />
			<path d="M0.0,-1.1832121435559624 L0.0,1.4888786069184055 " />

        </g>

        <!-- solid lines -->
        <g  stroke="rgb(0,0,0)" fill="none">
    			<path d="M-10.606601717798213,-19.380299602523216 L-45.96194077712559,-3.665742531688398 " />
			<path d="M-10.606601717798213,-24.755047749808192 L-45.96194077712559,-9.040490678973374 " />
			<path d="M-7.071067811865472,-18.71936179809087 L-7.071067811865472,-14.854260746749812 " />
			<path d="M-10.606601717798213,-19.380299602523216 L-10.402800701625495,-19.458893408757337 L-10.18851682115914,-19.518203093649152 L-9.964424292764502,-19.558042046987534 L-9.731228194442156,-19.578284920686286 L-9.489662247391674,-19.5788680231756 L-9.240486507453262,-19.55978951979932 L-8.984484973690925,-19.521109438587445 L-8.722463121641312,-19.462949481385703 L-8.455245368989726,-19.385492640936572 L-8.183672481647044,-19.28898262511638 L-7.908598928389154,-19.173723090140157 L-7.630890192382015,-19.040076685146857 L-7.3514200480514305,-18.888463911171005 L-7.071067811865498,-18.719361798090866 " />
			<path d="M-7.071067811865477,-14.85426074674981 L-43.840620433565945,1.4888786069184015 " />
			<path d="M-47.426406871192846,-0.7824307536299493 L-43.840620433565945,1.4888786069184148 " />
			<path d="M-45.961940777125584,-3.665742531688397 L-46.15461769560868,-3.5681118893032995 L-46.335564283532996,-3.4517515928880242 L-46.504211215989145,-3.3170277549842613 L-46.660027867334264,-3.164364266629069 L-46.80252398073661,-2.9942414636368717 L-46.93125121070494,-2.807194615285247 L-47.04580453374928,-2.603812240159792 L-47.14582352273469,-2.38473425445687 L-47.23099348091834,-2.150649958570557 L-47.30104643210196,-1.902295868298558 L-47.355761963784026,-1.6404533974910334 L-47.394967920659056,-1.3659463994335281 L-47.41854094628193,-1.0796385746997363 L-47.42640687119285,-0.782430753629979 " />
			<path d="M-7.0710678118654755,-18.719361798090848 L-6.7907155756795134,-18.88846391117101 L-6.511245431348936,-19.040076685146857 L-6.233536695341794,-19.173723090140157 L-5.958463142083904,-19.288982625116383 L-5.686890254741222,-19.385492640936576 L-5.419672502089636,-19.462949481385703 L-5.157650650040026,-19.521109438587445 L-4.901649116277682,-19.559789519799324 L-4.652473376339277,-19.5788680231756 L-4.410907429288791,-19.578284920686283 L-4.177711330966442,-19.558042046987534 L-3.9536188025718033,-19.518203093649152 L-3.739334922105453,-19.458893408757334 L-3.5355339059327537,-19.380299602523227 " />
			<path d="M-10.606601717798213,-24.755047749808195 L-10.428862586100568,-24.830262539442515 L-10.243034232683701,-24.901510355618942 L-10.049564334327641,-24.968619556107733 L-9.848918976963486,-25.03142846896684 L-9.641581532831584,-25.089785782023775 L-9.428051495995465,-25.143550907399884 L-9.208843279016888,-25.19259432019887 L-8.984484973690927,-25.236797870543608 L-8.755517078826578,-25.276055068209537 L-8.522491198137793,-25.310271339168956 L-8.2859687113818,-25.339364253428137 L-8.046519421946119,-25.36326372360839 L-7.804720184142282,-25.381912173792703 L-7.561153513513278,-25.395264678231168 L-7.316406183502566,-25.403289069571056 L-7.071067811865476,-25.405966016350774 L-6.825729440228387,-25.403289069571056 L-6.580982110217675,-25.395264678231168 L-6.33741543958867,-25.381912173792703 L-6.095616201784834,-25.36326372360839 L-5.856166912349153,-25.33936425342814 L-5.619644425593161,-25.31027133916896 L-5.3866185449043735,-25.276055068209537 L-5.157650650040026,-25.236797870543608 L-4.933292344714065,-25.192594320198875 L-4.714084127735488,-25.143550907399888 L-4.500554090899367,-25.089785782023775 L-4.293216646767466,-25.03142846896684 L-4.0925712894033115,-24.968619556107733 L-3.899101391047251,-24.901510355618942 L-3.7132730376303873,-24.830262539442515 L-3.5355339059327697,-24.75504774980821 " />
			<path d="M-45.961940777125584,-9.040490678973374 L-46.131162497967644,-8.961490114897423 L-46.29145913800653,-8.878894095658339 L-46.44244452859607,-8.792901602301022 L-46.583754932705574,-8.703719798274022 L-46.65067469744138,-8.657999758278866 L-46.71504992119421,-8.611563530354644 L-46.7768418267364,-8.564439085948699 L-46.83601319293462,-8.516654811064242 L-46.89252837717042,-8.468239489161697 L-46.94635333681006,-8.419222283820611 L-46.997455649710496,-8.369632721172609 L-47.045804533749276,-8.319500672115957 L-47.09137086536654,-8.26885633432245 L-47.13412719710795,-8.217730214047462 L-47.174047774158026,-8.166153107754116 L-47.21110854985389,-8.114156083562651 L-47.24528720017005,-8.061770462536147 L-47.27656313716557,-8.009027799813886 L-47.30491752138549,-7.955959865603712 L-47.330333273209,-7.902598626044863 L-47.35279508313755,-7.848976223952739 L-47.37228942101675,-7.79512495945729 L-47.3888045441864,-7.741077270546622 L-47.40233050455383,-7.68686571352756 L-47.4128591545863,-7.632522943414951 L-47.42038415221871,-7.578081694261504 L-47.42490096467387,-7.523574759440021 L-47.426406871192846,-7.469034971889911 " />
			<path d="M-3.5355339059327378,-24.755047749808192 L45.961940777125584,-2.754667850639443 " />
			<path d="M45.961940777125584,-2.7546678506394446 L46.131162497967644,-2.6756672865634945 L46.29145913800653,-2.59307126732441 L46.44244452859607,-2.507078773967092 L46.583754932705574,-2.4178969699400925 L46.65067469744138,-2.372176929944936 L46.71504992119421,-2.3257407020207155 L46.7768418267364,-2.27861625761477 L46.83601319293462,-2.2308319827303142 L46.89252837717042,-2.1824166608277684 L46.94635333681006,-2.133399455486681 L46.997455649710496,-2.083809892838679 L47.045804533749276,-2.033677843782028 L47.09137086536654,-1.983033505988522 L47.13412719710795,-1.9319073857135334 L47.174047774158026,-1.8803302794201873 L47.21110854985389,-1.8283332552287226 L47.24528720017005,-1.7759476342022182 L47.27656313716557,-1.7232049714799564 L47.30491752138549,-1.6701370372697837 L47.330333273209,-1.6167757977109338 L47.35279508313755,-1.5631533956188106 L47.37228942101675,-1.509302131123361 L47.3888045441864,-1.455254442212693 L47.40233050455383,-1.4010428851936307 L47.4128591545863,-1.346700115081022 L47.42038415221871,-1.2922588659275756 L47.42490096467387,-1.237751931106092 L47.426406871192846,-1.1832121435559821 " />
			<path d="M-7.071067811865474,-14.85426074674981 L43.840620433565945,7.774701435252332 " />
			<path d="M-3.5355339059327378,-19.380299602523216 L45.961940777125584,2.6200802966455328 " />
			<path d="M47.42640687119281,5.503392074703996 L43.840620433565945,7.774701435252345 " />
			<path d="M45.961940777125584,2.620080296645531 L46.15461769560868,2.717710939030629 L46.335564283532996,2.8340712354459057 L46.50421121598915,2.9687950733496686 L46.66002786733428,3.1214585617048627 L46.80252398073662,3.2915813646970657 L46.93125121070495,3.4786282130486885 L47.04580453374929,3.6820105881741494 L47.145823522734695,3.9010885738770744 L47.23099348091836,4.135172869763387 L47.30104643210197,4.383526960035388 L47.35576196378403,4.645369430842917 L47.39496792065906,4.919876428900427 L47.41854094628194,5.206184253634219 L47.42640687119285,5.503392074703957 " />
			<path d="M-43.84062043356594,1.488878606918405 L7.071067811865483,24.117840788920546 " />
			<path d="M43.84062043356594,7.774701435252332 L7.071067811865468,24.117840788920546 " />
			<path d="M-7.0710678118654755,4.631790021085369 L4.440892098500626e-16,1.4888786069184046 " />
			<path d="M-4.440892098500626e-16,1.4888786069184046 L7.0710678118654755,4.631790021085369 " />
			<path d="M-4.440892098500626e-16,7.774701435252332 L7.0710678118654755,4.631790021085369 " />
			<path d="M-7.0710678118654755,4.631790021085369 L4.440892098500626e-16,7.774701435252332 " />
			<path d="M0.0,1.4888786069184055 L0.0,7.774701435252332 " />
			<path d="M-10.606601717798213,-24.755047749808192 L-10.606601717798213,-19.380299602523216 " />
			<path d="M-45.961940777125584,-9.040490678973374 L-45.961940777125584,-3.665742531688397 " />
			<path d="M-3.5355339059327378,-24.755047749808195 L-3.5355339059327378,-19.38029960252322 " />
			<path d="M45.961940777125584,-2.7546678506394446 L45.961940777125584,2.620080296645532 " />
			<path d="M-47.426406871192846,-7.469034971889892 L-47.426406871192846,-0.7824307536299733 " />
			<path d="M47.426406871192846,-1.183212143555961 L47.426406871192846,5.503392074703958 " />

        </g>
        </g>
    </svg>
    