<?xml version="1.0" encoding="UTF-8" standalone="no"?>
    <svg
    xmlns:svg="http://www.w3.org/2000/svg"
    xmlns="http://www.w3.org/2000/svg"
    width="483"
    height="290"
    >
        <g transform="scale(4, -4)   translate(58.32454196238922,-33.906673353989504)" stroke-width="0.25"  fill="none">
        <!-- hidden lines -->
        <g  stroke="rgb(160,160,160)" fill="none" stroke-dasharray="0.25,0.25" >
    			<path d="M-39.679404054413524,-1.9202515087282261 L-39.679404054413524,4.793218534950327 " />
			<path d="M-24.327605618698882,-10.222530229751687 L-39.679404054413524,-1.920251508728228 " />
			<path d="M20.821492153610112,22.568688490439186 L20.821492153610112,31.406673353989504 " />
			<path d="M60.077681173809154,1.3388746588129106 L20.821492153610116,22.568688490439186 " />
			<path d="M-39.679404054413524,-1.9202515087282261 L20.821492153610116,22.568688490439186 " />
			<path d="M-42.680515658417676,4.300483904104819 L-42.81150119832701,4.245840250408133 L-42.94133694019909,4.188412937970639 L-43.07000333124878,4.128210615134353 L-43.19748099479085,4.06524234814766 L-43.32375073315808,3.999517619799942 L-43.44879353059231,3.9310463279935455 L-43.57259055610821,3.859838784253153 L-43.69512316632909,3.78590571217293 L-43.81637290829456,3.7092582458015855 L-43.936321522239474,3.629907927965622 L-44.05495094434378,3.547866708531032 L-44.17224330945285,3.463146942603693 L-44.288180953767956,3.3757613886687317 L-44.40274641750629,3.285723206669136 L-44.51592244753044,3.19304595602393 L-44.62769199994657,3.09774359358617 L-44.73803824267121,2.999830471541088 L-44.846944557966076,2.899321335244718 L-44.95439454494069,2.796231321003269 L-45.06037202202224,2.690575953793701 L-45.1648610293925,2.582371144925684 L-45.26784583139129,2.471633189645427 L-45.36931091888624,2.358378764681664 L-45.4692410116084,2.2426249257342192 L-45.56762106045336,2.1243891049054504 L-45.66443624974765,2.003689108075079 L-45.75967199947988,1.8805431122186533 L-45.85331396749643,1.754969662670188 L-45.94534805166137,1.6269876703292852 L-46.03576039198014,1.4966164088132352 L-46.12453737268686,1.3638755115544825 L-46.21166562429479,1.2287849688438914 L-46.297132025609706,1.091365124820296 L-46.380923705705946,0.951636674406739 L-46.463028045864704,0.8096206601938825 L-46.54343268147434,0.6653384692710951 L-46.622125503892505,0.5188118300056175 L-46.69909466226957,0.37006280877035813 L-46.77432856533343,0.2191138066207774 L-46.847815883134984,0.06598755592134964 L-46.919545548754506,-0.0892928830777997 L-46.98950675996818,-0.2467041257137268 L-47.05768898087494,-0.4062224664322951 L-47.124081943483105,-0.5678238823581427 L-47.18867564925673,-0.7314840369124571 L-47.25146037062131,-0.8971782834779418 L-47.312426652428755,-1.0648816691105427 L-47.37156531338127,-1.2345689382972438 L-47.42886744741405,-1.4062145367594638 L-47.484324425036476,-1.5797926153014341 L-47.53792789463171,-1.7552770337029955 L-47.589669783714406,-1.9326413646562237 L-47.639542300146374,-2.1118588977452735 L-47.687537933310104,-2.292902643468876 L-47.73364945523977,-2.475745337304856 L-47.77786992170979,-2.6603594438160645 L-47.82019267328056,-2.84671716079713 L-47.860611336301375,-3.034790423461356 L-47.89911982387025,-3.2245509086671706 L-47.935712336750605,-3.4159700391834917 L-47.9703833642446,-3.6090189879933607 L-48.00312768502303,-3.8036686826351787 L-48.03394036791161,-3.999889809580907 L-48.06281677263366,-4.197652818650589 L-48.08975255050883,-4.396927927462491 L-48.11474364510804,-4.597685125918209 L-48.13778629286439,-4.799894180722106 L-48.158877023639874,-5.003524639934307 L-48.178012661248005,-5.2085458375566684 L-48.19519032393217,-5.414926898150956 L-48.210407424799534,-5.622636741488574 L-48.22366167221068,-5.831644087231128 L-48.234951070124715,-6.041917459641141 L-48.24427391839983,-6.2534251923221795 L-48.25162881304935,-6.466135432987683 L-48.25701464645323,-6.68001614825782 L-48.26187618183272,-7.111159992597454 L-48.25885559613117,-7.546597020410754 L-48.247954708836474,-7.9860649407142095 L-48.2291800862355,-8.429299034465394 L-48.202543037458895,-8.876032314019824 L-48.168059607668816,-9.325995683954316 L-48.12575056839395,-9.778918103160052 L-48.07564140501751,-10.234526748107552 L-48.01776230142582,-10.692547177185407 L-47.952148121826646,-11.152703496013636 L-47.878838389748296,-11.61471852363212 L-47.79787726423216,-12.078313959464074 L-47.709313513232914,-12.543210550953908 L-47.61320048424254,-13.00912826177851 L-47.50959607215581,-13.475786440530667 L-47.39856268439654,-13.942903989772972 L-47.280167203325725,-14.410199535360414 L-47.154480945954056,-14.877391595929627 L-47.021579620983275,-15.344198752452767 L-46.88154328320203,-15.810339817753793 L-46.7344562852639,-16.275534005885095 L-46.58040722687653,-16.73950110126248 L-46.419488901432416,-17.201961627456534 L-46.25179824011367,-17.6626370155388 L-46.077436253504324,-18.12124977188125 L-45.8965079707453,-18.57752364530811 L-45.70912237626877,-19.031183793499196 L-45.51539234415007,-19.481956948544685 L-45.31543457011651,-19.929571581551475 L-45.10936950125425,-20.37375806620203 L-44.897321263455524,-20.8142488411672 L-44.67941758664977,-21.25077857127516 L-44.455789727863966,-21.683084307339385 L-44.22657239215825,-22.110905644549423 L-43.99190365148468,-22.53398487932901 L-43.751924861517786,-22.95206716456707 L-43.506780576507275,-23.364900663128076 L-43.25661846220389,-23.77223669954933 L-43.001589206911135,-24.17382990983378 L-42.74184643071624,-24.569438389248074 L-42.477546592955164,-24.95882383803697 L-42.20884889796738,-25.34175170496618 L-41.93591519919708,-25.71799132860726 L-41.65890990169878,-26.087316076279436 L-41.37799986310577,-26.449503480564648 L-41.09335429312141,-26.80433537331362 L-40.805144651593466,-27.151598017062184 L-40.51354454523316,-27.491082233778712 L-40.21872962304092,-27.822583530865202 L-39.920877470502035,-28.145902224335913 L-39.62016750261579,-28.460843559099573 L-39.316780855822564,-28.767217826272525 L-39.16414082684897,-28.917134433494205 L-39.010900278894034,-29.064840477452304 L-38.8570822894206,-29.21031371415991 L-38.70271002285212,-29.35353223588266 L-38.547806727084094,-29.494474474437993 L-38.39239572998309,-29.633119204443204 L-38.23650043587364,-29.76944554651193 L-38.08014432201358,-29.903432970398494 L-37.92335093505856,-30.035061298089715 L-37.76614388751591,-30.16431070684361 L-37.60854685418874,-30.291161732174636 L-37.45058356861058,-30.415595270784966 L-37.29227781947121,-30.537592583441395 L-37.13365344703415,-30.657135297797375 L-36.97473433954643,-30.774205411159834 L-36.81554442964108,-30.888785293200318 L-36.65610769073299,-31.000857688610058 L-36.49644813340858,-31.11040571969853 L-36.336589801809914,-31.217412888935204 L-36.17655677001372,-31.321863081434003 L-36.016373138405946,-31.423740567380126 L-35.8560630300523,-31.523030004398926 L-35.695650587065444,-31.61971643986641 L-35.535159966969246,-31.71378531316103 L-35.37461533906075,-31.80522245785648 L-35.21404088077041,-31.894014103855103 L-35.05346077402099,-31.980146879461618 L-34.89289920158591,-32.06360781339683 L-34.732380343447396,-32.14438433675109 L-34.57192837315503,-32.222464284877105 L-34.411567454185366,-32.297835899221866 L-34.25132173630294,-32.37048782909751 L-34.09121535192343,-32.440409133390645 L-33.93127241247942,-32.50758928221 L-33.77151700478925,-32.5720181584723 L-33.611973187429726,-32.63368605942575 L-33.45266498711287,-32.69258369811131 L-33.293616395067666,-32.74870220476123 L-33.13485136342706,-32.80203312813482 L-32.97639380162084,-32.852568436791216 L-32.81826757277494,-32.900300520298785 L-32.66049649011781,-32.94522219038136 L-32.503104313394154,-32.987326682000614 L-32.34611474528687,-33.02660765437501 L-32.18955142784745,-33.063059191934606 L-32.03343793893561,-33.0966758052119 L-31.877797788668566,-33.1274524316686 L-31.72265441588045,-33.155384436457965 L-31.568031184592538,-33.1804676131228 L-31.413951380494723,-33.20269818422898 L-31.260438207438735,-33.22207280193426 L-31.10751478394379,-33.23858854849249 L-30.95520413971496,-33.252242936692966 L-30.80352921217502,-33.263033910235066 L-30.652512843010165,-33.270959844037876 L-30.5021777747301,-33.276019544484896 L-30.352546647243138,-33.278212249603854 L-30.203641994446684,-33.27753762918144 L-30.05548624083374,-33.273995784812996 L-29.908101698115843,-33.26758724988726 L-29.761510561863,-33.25831298950602 L-29.61573490816112,-33.246174400338774 L-29.470796690287457,-33.231173310412395 L-29.32671773540449,-33.21331197883586 L-29.183519741272864,-33.19259309546 L-29.04122427298377,-33.16901978047244 L-28.89985275971133,-33.1425955839277 L-28.759426491485435,-33.1133244852126 L-28.619966615985554,-33.08121089244693 L-28.481494135355966,-33.046259641819645 L-28.3440299030429,-33.00847599686052 L-28.207594620654127,-32.96786564764751 L-28.072208834841312,-32.92443470994982 L-27.93789293420582,-32.878189724306935 L-27.804667146228223,-32.82913765504357 L-27.6725515342222,-32.77728588922096 " />

        </g>

        <!-- solid lines -->
        <g  stroke="rgb(0,0,0)" fill="none">
    			<path d="M-0.4232150342144827,-23.1500653403545 L-0.4232150342144827,-14.312080476804184 " />
			<path d="M-0.4232150342144827,-14.312080476804184 L-39.679404054413524,6.91773335482209 " />
			<path d="M-39.679404054413524,4.793218534950327 L-39.679404054413524,6.917733354822092 " />
			<path d="M-0.4232150342144827,-23.1500653403545 L-24.327605618698882,-10.222530229751687 " />
			<path d="M60.077681173809154,1.3388746588129106 L60.077681173809154,10.176859522363229 " />
			<path d="M60.077681173809154,10.176859522363229 L20.821492153610116,31.406673353989504 " />
			<path d="M-0.4232150342144827,-23.1500653403545 L60.077681173809154,1.3388746588129088 " />
			<path d="M-0.4232150342144827,-14.312080476804184 L60.077681173809154,10.176859522363227 " />
			<path d="M-39.679404054413524,6.917733354822092 L20.821492153610116,31.406673353989504 " />
			<path d="M-35.176533596319906,3.4375687345425696 L-35.4262556638008,3.5693997653888374 L-35.675886774193124,3.6947446024948043 L-35.92533600353788,3.8135575910988955 L-36.17451249412324,3.925795455556173 L-36.423325487577884,4.031417315100729 L-36.67168435792824,4.13038469873586 L-36.91949864460753,4.222661559246486 L-37.16667808540441,4.308214286328713 L-37.41313264933957,4.387011718831854 L-37.65877256945801,4.45902515610835 L-37.90350837552506,4.5242283684674796 L-38.147250926614504,4.582597606729127 L-38.38991144357667,4.634111610873987 L-38.631401541374714,4.678751617787189 L-38.87163326127739,4.716501368092445 L-39.110519102896596,4.747347112074252 L-39.34797205605788,4.771277614685996 L-39.583905632492424,4.788284159642149 L-39.81823389733906,4.798360552592985 L-40.05087150044448,4.801503123380833 L-40.281733707450634,4.79771072737681 L-40.510736430657886,4.786984745897758 L-40.737796259652434,4.769329085703138 L-40.96283049168722,4.744750177572023 L-41.185757161805064,4.713256973960835 L-41.406495072692934,4.674860945742523 L-41.62496382425677,4.629576078028521 L-41.841083842905874,4.577418865074879 L-42.05477641053625,4.518408304274526 L-42.26596369320234,4.452565889237778 L-42.474568769466764,4.379915601963649 L-42.680515658417576,4.300483904104858 " />
			<path d="M-27.672551534222155,-32.77728588922094 L-27.46207255052676,-32.687872879278444 L-27.254609418946288,-32.59124732675149 L-27.050243244060898,-32.487447005941505 L-26.849053919742246,-32.3765124960173 L-26.651120097920213,-32.25848716515125 L-26.456519157835118,-32.13341715356514 L-26.26532717578746,-32.00135135549238 L-26.07761889539704,-31.862341400063528 L-25.89346769838309,-31.716441631122624 L-25.712945575876766,-31.56370908598235 L-25.53612310027732,-31.4042034731261 L-25.36306939766289,-31.237987148865873 L-25.193852120766685,-31.065125092965012 L-25.028537422529183,-30.885684883235335 L-24.86718993023665,-30.699736669118625 L-24.709872720256044,-30.507353144262762 L-24.556647293376287,-30.308609518103232 L-24.407573550765463,-30.103583486461126 L-24.262709770553336,-29.89235520116916 L-24.122112585048416,-29.67500723873748 L-23.985836958598412,-29.451624568071665 L-23.853936166102727,-29.222294517255406 L-23.726461772185473,-28.98710673941089 L-23.603463611037043,-28.74615317765028 L-23.48498976693217,-28.499528029131945 L-23.371086555432143,-28.24732770823549 L-23.2617985052784,-27.989650808870017 L-23.157168340984718,-27.726598065930336 L-23.057236966134692,-27.45827231591617 L-22.962043447391096,-27.184778456729752 L-22.871624999223375,-26.90622340666762 L-22.78601696935919,-26.622716062622484 L-22.705252824965775,-26.33436725751165 L-22.62936413956644,-26.041289716948555 L-22.558380580697396,-25.7435980151744 L-22.49232989830965,-25.441408530267054 L-22.43123791392061,-25.13483939864484 L-22.375128510519545,-24.82401046888285 L-22.32402362323087,-24.509043254859975 L-22.277943230738984,-24.19006088825488 L-22.236905347477844,-23.86718807040953 L-22.20092601658855,-23.540551023579074 L-22.1700193036475,-23.21027744158719 L-22.144197291167643,-22.87649643990609 L-22.12347007387505,-22.539338505180773 L-22.10784575476249,-22.19893544421724 L-22.097330441921713,-21.855420332454628 L-22.091928246155565,-21.50892746194136 L-22.09164127937095,-21.159592288835704 L-22.096469653753207,-20.807551380451216 L-22.106411481722237,-20.452942361867837 L-22.121462876670442,-20.09590386212943 L-22.141617954482143,-19.73657546004884 L-22.166868835833846,-19.37509762964168 L-22.197205649274593,-19.011611685210127 L-22.232616535085036,-18.64625972609822 L-22.273087649913794,-18.279184581140278 L-22.31860317218935,-17.91052975282413 L-22.369145308305207,-17.540439361190952 L-22.424694299576068,-17.169058087493752 L-22.485228429962163,-16.796531117636384 L-22.55072403455884,-16.42300408541534 L-22.621155508847977,-16.04862301558638 L-22.696495318707683,-15.673534266778407 L-22.776714011176374,-15.297884474276703 L-22.861780225966932,-14.921820492698117 L-22.951660707726546,-14.545489338580499 L-23.046320319037406,-14.16903813290875 L-23.14572205415312,-13.792614043600116 L-23.24982705346557,-13.416364227971115 L-23.358594618696486,-13.040435775208596 L-23.471982228807825,-12.664975648867443 L-23.589945556624713,-12.290130629417401 L-23.712438486164523,-11.916047256861454 L-23.839413130665164,-11.542871773448226 L-23.97081985130576,-11.17075006650079 L-24.106607276612124,-10.799827611384208 L-24.246722322539718,-10.430249414634142 L-24.391110213226032,-10.062159957268733 L-24.53971450240438,-9.695703138305925 L-24.69247709547073,-9.331022218508325 L-24.849338272194895,-8.968259764377562 L-25.010236710067275,-8.607557592420065 L-25.17510950827195,-8.249056713706041 L-25.343892212276813,-7.892897278743336 L-25.516518839031104,-7.539218522687689 L-25.692921902760457,-7.188158710910862 L-25.87303244134948,-6.839855084947901 L-26.056780043301444,-6.494443808844565 L-26.24409287526459,-6.152059915926095 L-26.4348977101143,-5.812837256007995 L-26.6291199555801,-5.476908443069425 L-26.82668368340645,-5.144404803409778 L-27.027511659035696,-4.815456324308647 L-27.231525371801766,-4.490191603209269 L-27.43864506562275,-4.1687377974452815 L-27.648789770180308,-3.851220574530487 L-27.861877332573812,-3.537764063031041 L-28.077824449436783,-3.22849080403925 L-28.29654669950308,-2.9235217032679977 L-28.517958576610113,-2.6229759837844675 L-28.741973523126198,-2.3269711394016888 L-28.968503963788955,-2.0356228887461008 L-29.197461339941526,-1.7490451300191125 L-29.428756144153255,-1.4673498964703064 L-29.66229795521127,-1.1906473125997383 L-29.897995473469276,-0.9190455511064233 L-30.13575655653979,-0.6526507905998535 L-30.375488255315805,-0.3915671740910689 L-30.61709685030785,-0.13589676827952601 L-30.860487888282204,0.11426047634833836 L-31.10556621918595,0.35880676459324334 L-31.352236033344493,0.5976464947746347 L-31.600400898916874,0.8306862961047123 L-31.84996379959433,1.057835065190302 L-32.10082717252738,1.2790040016483815 L-32.35289294646655,1.494106642821249 L-32.60606258010183,1.7030588975777903 L-32.86023710058592,1.9057790791876208 L-33.115317142226196,2.1021879372553123 L-33.37120298533018,2.292208688702118 L-33.62779459518948,2.4757670477831475 L-33.88499166118684,2.6527912551282924 L-34.142693636011074,2.823212105795438 L-34.40079977496451,2.9869629763250956 L-34.6592091753476,3.143979850785854 L-34.917820815905316,3.294201345800431 L-35.176533596319786,3.437568734542509 " />
			<path d="M-42.739145622322866,0.37645123464664465 L-42.98886768980376,0.5082822654929124 L-43.23849880019608,0.6336271025988793 L-43.48794802954084,0.7524400912029705 L-43.7371245201262,0.8646779556602482 L-43.98593751358084,0.9702998152048039 L-44.23429638393121,1.0692671988399347 L-44.48211067061049,1.161544059350561 L-44.72929011140737,1.2470967864327882 L-44.97574467534254,1.3258942189359288 L-45.22138459546097,1.3979076562124249 L-45.466120401528016,1.4631108685715546 L-45.70986295261746,1.5214801068332022 L-45.95252346957963,1.5729941109780619 L-46.19401356737768,1.6176341178912637 L-46.43424528728035,1.6553838681965196 L-46.673131128899556,1.6862296121783267 L-46.910584082060836,1.710160114790071 L-47.146517658495384,1.7271666597462243 L-47.38084592334202,1.7372430526970604 L-47.61348352644744,1.740385623484908 L-47.84434573345359,1.7365932274808848 L-48.073348456660845,1.7258672460018332 L-48.300408285655394,1.7082115858072129 L-48.52544251769018,1.6836326776760977 L-48.748369187808024,1.65213947406491 L-48.96910709869589,1.6137434458465982 L-49.18757585025973,1.5684585781325957 L-49.403695868908834,1.516301365178954 L-49.61738843653921,1.4572908043786015 L-49.82857571920529,1.3914483893418534 L-50.03718079546972,1.3187981020677242 L-50.24312768442054,1.2393664042089334 " />
			<path d="M-50.243127684420635,1.2393664042088943 L-50.37411322432997,1.1847227505122078 L-50.50394896620205,1.1272954380747144 L-50.63261535725174,1.0670931152384284 L-50.76009302079381,1.0041248482517346 L-50.88636275916103,0.9384001199040171 L-51.01140555659527,0.8699288280976205 L-51.13520258211117,0.798721284357228 L-51.25773519233205,0.7247882122770051 L-51.37898493429752,0.6481407459056605 L-51.498933548242434,0.5687904280696969 L-51.61756297034674,0.48674920863510707 L-51.73485533545581,0.40202944270776797 L-51.850792979770915,0.3146438887728067 L-51.96535844350925,0.224605706773211 L-52.0785344735334,0.13192845612800497 L-52.19030402594953,0.03662609369024494 L-52.30065026867416,-0.06128702835483679 L-52.409556583969035,-0.16179616465120716 L-52.51700657094365,-0.264886178892656 L-52.6229840480252,-0.3705415461022241 L-52.72747305539546,-0.4787463549702409 L-52.83045785739425,-0.5894843102504979 L-52.9319229448892,-0.7027387352142611 L-53.031853037611356,-0.8184925741617057 L-53.13023308645633,-0.9367283949904746 L-53.22704827575062,-1.0574283918208458 L-53.322284025482844,-1.1805743876772716 L-53.41592599349939,-1.306147837225737 L-53.50796007766432,-1.4341298295666398 L-53.5983724179831,-1.5645010910826898 L-53.687149398689826,-1.6972419883414425 L-53.77427765029775,-1.8323325310520335 L-53.859744051612665,-1.969752375075629 L-53.943535731708906,-2.109480825489186 L-54.025640071867656,-2.2514968397020425 L-54.1060447074773,-2.39577903062483 L-54.18473752989546,-2.5423056698903075 L-54.26170668827253,-2.691054691125567 L-54.336940591336386,-2.8420036932751476 L-54.41042790913795,-2.9951299439745753 L-54.482157574757466,-3.1504103829737247 L-54.55211878597114,-3.3078216256096518 L-54.620301006877895,-3.46733996632822 L-54.686693969486065,-3.6289413822540677 L-54.75128767525969,-3.792601536808382 L-54.81407239662427,-3.958295783373867 L-54.87503867843171,-4.125999169006468 L-54.93417733938423,-4.295686438193169 L-54.991479473417,-4.467332036655389 L-55.04693645103943,-4.640910115197359 L-55.100539920634674,-4.8163945335989204 L-55.152281809717365,-4.993758864552149 L-55.20215432614934,-5.172976397641198 L-55.25014995931306,-5.354020143364801 L-55.29626148124274,-5.536862837200781 L-55.340481947712746,-5.7214769437119894 L-55.38280469928352,-5.907834660693055 L-55.42322336230433,-6.095907923357281 L-55.46173184987321,-6.285668408563096 L-55.498324362753564,-6.477087539079417 L-55.532995390247564,-6.670136487889286 L-55.565739711025984,-6.864786182531104 L-55.59655239391457,-7.061007309476832 L-55.62542879863662,-7.258770318546514 L-55.652364576511786,-7.458045427358416 L-55.677355671111,-7.658802625814134 L-55.70039831886734,-7.861011680618031 L-55.72148904964283,-8.064642139830232 L-55.74062468725097,-8.269663337452593 L-55.757802349935126,-8.47604439804688 L-55.773019450802494,-8.683754241384499 L-55.78627369821365,-8.892761587127053 L-55.797563096127675,-9.103034959537066 L-55.80688594440278,-9.314542692218104 L-55.81424083905232,-9.527252932883608 L-55.81962667245619,-9.741133648153745 L-55.82448820783568,-10.172277492493379 L-55.821467622134136,-10.60771452030668 L-55.810566734839426,-11.047182440610134 L-55.79179211223846,-11.49041653436132 L-55.76515506346186,-11.937149813915749 L-55.730671633671776,-12.387113183850241 L-55.68836259439691,-12.840035603055977 L-55.63825343102047,-13.295644248003477 L-55.580374327428785,-13.753664677081332 L-55.514760147829605,-14.213820995909561 L-55.44145041575126,-14.675836023528046 L-55.36048929023512,-15.139431459359999 L-55.27192553923587,-15.604328050849833 L-55.17581251024549,-16.070245761674435 L-55.07220809815877,-16.53690394042659 L-54.961174710399504,-17.004021489668897 L-54.842779229328684,-17.47131703525634 L-54.717092971957015,-17.93850909582555 L-54.584191646986234,-18.40531625234869 L-54.44415530920499,-18.871457317649718 L-54.29706831126687,-19.33665150578102 L-54.14301925287949,-19.800618601158405 L-53.98210092743537,-20.263079127352462 L-53.81441026611663,-20.723754515434724 L-53.64004827950728,-21.182367271777174 L-53.45911999674826,-21.638641145204033 L-53.27173440227173,-22.09230129339512 L-53.07800437015303,-22.543074448440613 L-52.87804659611946,-22.9906890814474 L-52.67198152725721,-23.434875566097954 L-52.45993328945848,-23.875366341063124 L-52.24202961265273,-24.311896071171084 L-52.018401753866925,-24.74420180723531 L-51.78918441816121,-25.172023144445347 L-51.554515677487636,-25.595102379224937 L-51.314536887520745,-26.013184664462994 L-51.069392602510234,-26.426018163023997 L-50.81923048820685,-26.83335419944526 L-50.564201232914094,-27.234947409729706 L-50.304458456719196,-27.630555889144 L-50.04015861895812,-28.019941337932895 L-49.77146092397034,-28.402869204862103 L-49.49852722520004,-28.779108828503183 L-49.22152192770174,-29.148433576175357 L-48.94061188910873,-29.510620980460573 L-48.65596631912437,-29.86545287320955 L-48.36775667759643,-30.21271551695811 L-48.07615657123612,-30.552199733674637 L-47.78134164904388,-30.883701030761124 L-47.483489496504994,-31.20701972423184 L-47.18277952861875,-31.521961058995497 L-46.879392881825524,-31.82833532616845 L-46.72675285285193,-31.978251933390133 L-46.573512304896994,-32.12595797734823 L-46.41969431542357,-32.27143121405583 L-46.26532204885508,-32.41464973577859 L-46.11041875308706,-32.55559197433392 L-45.95500775598606,-32.69423670433913 L-45.7991124618766,-32.83056304640785 L-45.64275634801655,-32.96455047029442 L-45.48596296106152,-33.096178797985644 L-45.328755913518876,-33.22542820673954 L-45.1711588801917,-33.35227923207056 L-45.01319559461354,-33.47671277068089 L-44.854889845474176,-33.59871008333732 L-44.696265473037116,-33.718252797693296 L-44.53734636554939,-33.835322911055755 L-44.37815645564404,-33.94990279309624 L-44.21871971673595,-34.06197518850598 L-44.05906015941154,-34.171523219594455 L-43.899201827812874,-34.27853038883113 L-43.73916879601668,-34.38298058132993 L-43.578985164408905,-34.48485806727605 L-43.418675056055264,-34.58414750429485 L-43.2582626130684,-34.68083393976234 L-43.0977719929722,-34.774902813056954 L-42.93722736506371,-34.8663399577524 L-42.77665290677337,-34.95513160375103 L-42.61607280002395,-35.04126437935754 L-42.45551122758887,-35.12472531329276 L-42.294992369450355,-35.20550183664702 L-42.13454039915799,-35.28358178477303 L-41.974179480188326,-35.358953399117794 L-41.8139337623059,-35.43160532899344 L-41.65382737792639,-35.501526633286566 L-41.49388443848238,-35.56870678210592 L-41.33412903079221,-35.63313565836822 L-41.174585213432685,-35.69480355932167 L-41.01527701311583,-35.75370119800723 L-40.856228421070625,-35.80981970465715 L-40.69746338943002,-35.86315062803075 L-40.5390058276238,-35.913685936687145 L-40.3808795987779,-35.961418020194714 L-40.22310851612077,-36.00633969027728 L-40.06571633939711,-36.04844418189654 L-39.90872677128983,-36.08772515427094 L-39.75216345385041,-36.12417669183053 L-39.59604996493857,-36.15779330510783 L-39.440409814671526,-36.18856993156453 L-39.28526644188341,-36.216501936353886 L-39.1306432105955,-36.24158511301873 L-38.97656340649768,-36.26381568412491 L-38.8230502334417,-36.28319030183019 L-38.67012680994675,-36.299706048388416 L-38.51781616571792,-36.313360436588894 L-38.36614123817798,-36.324151410130995 L-38.215124869013124,-36.3320773439338 L-38.06478980073306,-36.33713704438082 L-37.9151586732461,-36.33932974949978 L-37.766254020449644,-36.33865512907737 L-37.6180982668367,-36.335113284708925 L-37.4707137241188,-36.328704749783185 L-37.32412258786596,-36.31943048940194 L-37.17834693416408,-36.3072919002347 L-37.03340871629042,-36.292290810308316 L-36.889329761407446,-36.27442947873179 L-36.74613176727582,-36.253710595355926 L-36.60383629898673,-36.23013728036837 L-36.46246478571429,-36.20371308382363 L-36.322038517488394,-36.17444198510853 L-36.18257864198851,-36.14232839234286 L-36.044106161358926,-36.107377141715574 L-35.90664192904586,-36.06959349675644 L-35.77020664665709,-36.02898314754343 L-35.63482086084427,-35.98555220984575 L-35.50050496020878,-35.93930722420286 L-35.36727917223118,-35.890255154939496 L-35.23516356022516,-35.838403389116884 " />
			<path d="M-35.23516356022512,-35.83840338911686 L-35.02468457652972,-35.74899037917437 L-34.81722144494925,-35.652364826647414 L-34.61285527006386,-35.54856450583743 L-34.411665945745206,-35.43762999591323 L-34.21373212392317,-35.31960466504717 L-34.01913118383808,-35.19453465346106 L-33.827939201790414,-35.0624688553883 L-33.640230921400004,-34.923458899959456 L-33.45607972438605,-34.77755913101855 L-33.275557601879726,-34.624826585878274 L-33.098735126280275,-34.465320973022024 L-32.92568142366585,-34.2991046487618 L-32.756464146769645,-34.12624259286093 L-32.59114944853214,-33.946802383131256 L-32.42980195623961,-33.76085416901455 L-32.272484746259,-33.56847064415869 L-32.119259319379246,-33.36972701799915 L-31.970185576768422,-33.16470098635705 L-31.825321796556295,-32.95347270106508 L-31.684724611051376,-32.73612473863341 L-31.54844898460137,-32.512742067967594 L-31.416548192105687,-32.28341201715133 L-31.289073798188433,-32.04822423930681 L-31.166075637040002,-31.807270677546207 L-31.04760179293513,-31.560645529027873 L-30.933698581435102,-31.308445208131413 L-30.82441053128136,-31.05076830876594 L-30.719780366987678,-30.78771556582626 L-30.61984899213765,-30.519389815812094 L-30.524655473394056,-30.245895956625677 L-30.434237025226334,-29.967340906563543 L-30.348628995362148,-29.68383356251841 L-30.267864850968735,-29.395484757407573 L-30.1919761655694,-29.10240721684448 L-30.120992606700355,-28.80471551507032 L-30.054941924312608,-28.50252603016298 L-29.99384993992357,-28.195956898540764 L-29.937740536522504,-27.885127968778775 L-29.88663564923383,-27.5701607547559 L-29.840555256741943,-27.251178388150805 L-29.799517373480803,-26.928305570305454 L-29.76353804259151,-26.601668523475 L-29.73263132965046,-26.271394941483116 L-29.706809317170602,-25.937613939802016 L-29.68608209987801,-25.6004560050767 L-29.67045778076545,-25.260052944113166 L-29.659942467924672,-24.916537832350553 L-29.654540272158524,-24.570044961837286 L-29.65425330537391,-24.220709788731625 L-29.659081679756166,-23.868668880347137 L-29.669023507725196,-23.514059861763762 L-29.6840749026734,-23.157021362025354 L-29.704229980485103,-22.79769295994476 L-29.729480861836805,-22.436215129537608 L-29.759817675277553,-22.07272918510605 L-29.795228561087995,-21.707377225994144 L-29.835699675916754,-21.340302081036203 L-29.881215198192308,-20.971647252720054 L-29.931757334308166,-20.601556861086877 L-29.987306325579027,-20.230175587389674 L-30.047840455965122,-19.857648617532313 L-30.1133360605618,-19.484121585311264 L-30.183767534850936,-19.109740515482304 L-30.259107344710642,-18.734651766674332 L-30.339326037179333,-18.359001974172628 L-30.42439225196989,-17.982937992594042 L-30.514272733729506,-17.606606838476424 L-30.608932345040365,-17.230155632804674 L-30.708334080156078,-16.853731543496043 L-30.81243907946853,-16.47748172786704 L-30.921206644699446,-16.10155327510452 L-31.034594254810784,-15.726093148763368 L-31.152557582627672,-15.351248129313326 L-31.275050512167482,-14.977164756757379 L-31.402025156668124,-14.603989273344151 L-31.53343187730872,-14.231867566396716 L-31.669219302615083,-13.860945111280133 L-31.809334348542677,-13.491366914530067 L-31.95372223922899,-13.123277457164658 L-32.10232652840734,-12.75682063820185 L-32.25508912147369,-12.39213971840425 L-32.41195029819785,-12.029377264273487 L-32.572848736070235,-11.66867509231599 L-32.73772153427491,-11.310174213601966 L-32.90650423827977,-10.95401477863926 L-33.07913086503406,-10.600336022583614 L-33.25553392876341,-10.249276210806787 L-33.43564446735244,-9.900972584843826 L-33.6193920693044,-9.55556130874049 L-33.80670490126755,-9.21317741582202 L-33.99750973611726,-8.87395475590392 L-34.19173198158306,-8.53802594296535 L-34.38929570940941,-8.205522303305703 L-34.590123685038655,-7.876573824204572 L-34.794137397804725,-7.5513091031051935 L-35.00125709162571,-7.2298552973412065 L-35.21140179618327,-6.912338074426412 L-35.42448935857677,-6.598881562926966 L-35.64043647543974,-6.289608303935175 L-35.859158725506035,-5.984639203163923 L-36.08057060261307,-5.6840934836803925 L-36.30458554912916,-5.388088639297614 L-36.531115989791914,-5.096740388642026 L-36.760073365944486,-4.8101626299150375 L-36.991368170156214,-4.528467396366231 L-37.224909981214225,-4.251764812495663 L-37.46060749947223,-3.9801630510023482 L-37.69836858254275,-3.7137682904957785 L-37.93810028131876,-3.452684673986994 L-38.179708876310805,-3.197014268175451 L-38.42309991428516,-2.9468570235475866 L-38.66817824518891,-2.7023107353026816 L-38.91484805934745,-2.4634710051212902 L-39.16301292491983,-2.2304312037912126 L-39.41257582559729,-2.003282434705623 L-39.66343919853034,-1.7821134982475435 L-39.915504972469506,-1.567010857074676 L-40.16867460610479,-1.3580586023181347 L-40.42284912658888,-1.1553384207083042 L-40.677929168229156,-0.9589295626406127 L-40.93381501133314,-0.7689088111938069 L-41.19040662119244,-0.5853504521127775 L-41.4476036871898,-0.4083262447676326 L-41.705305662014034,-0.23790539410048694 L-41.963411800967464,-0.07415452357082941 L-42.22182120135056,0.0828623508899291 L-42.480432841908275,0.23308384590450615 L-42.73914562232275,0.37645123464658425 " />
			<path d="M-35.235163560225104,-35.83840338911687 L-27.67255153422215,-32.77728588922094 " />
			<path d="M-50.24312768442063,1.2393664042088983 L-42.680515658417676,4.300483904104825 " />

        </g>
        </g>
    </svg>
    