<?xml version="1.0" encoding="UTF-8" standalone="no"?>
    <svg
    xmlns:svg="http://www.w3.org/2000/svg"
    xmlns="http://www.w3.org/2000/svg"
    width="488"
    height="282"
    >
        <g transform="scale(4, -4)   translate(64.09291632535243,-34.45528800419417)" stroke-width="0.25"  fill="none">
        <!-- hidden lines -->
        <g  stroke="rgb(160,160,160)" fill="none" stroke-dasharray="0.25,0.25" >
    			<path d="M35.35533905932738,-4.138208728160976 L35.35533905932738,-3.200655841480085 " />
			<path d="M-22.69952498697734,-0.9397990330328589 L-22.69952498697734,-0.0022461463519680702 " />
			<path d="M35.35533905932738,-4.138208728160976 L-22.699524986977337,-0.9397990330328576 " />
			<path d="M35.35533905932738,-3.200655841480085 L-22.699524986977337,-0.00224614635196696 " />
			<path d="M-22.69952498697734,-0.9397990330328589 L-49.38441702975689,-19.157037188662986 " />
			<path d="M-22.69952498697734,-0.0022461463519682923 L-41.42098094326055,-12.783006931480733 " />
			<path d="M44.55032620941839,-24.332172785327472 L35.35533905932737,-4.138208728160976 " />
			<path d="M40.66488629596074,-14.86144495474607 L35.35533905932737,-3.200655841480085 " />
			<path d="M36.91968370972968,13.360686941864532 L37.30624227948866,13.33667514686857 L37.68979269788643,13.30740292648326 L38.06974355797812,13.27291541635074 L38.44550900307685,13.233265793711933 L38.81650963010231,13.188515195411085 L39.18217338297828,13.138732623627188 L39.541936434701654,13.083994839477622 L39.895244056722845,13.024386244658068 L40.24155147429693,12.959998751301221 L40.58032470648686,12.890931640254943 L40.9110413895234,12.817291407998379 L41.233191582252104,12.739191602432118 L41.54627855242572,12.65675264779556 L41.84981954262921,12.570101658981457 L42.14334651465679,12.479372245533973 L42.42640687119285,12.384704305632443 L42.69856415368423,12.286243810378528 L42.95939871532769,12.18414257871935 L43.20850836813482,12.07855804335368 L43.32854559705445,12.024510209941809 L43.44550900307685,11.969653007982137 L43.55935349458251,11.914007585970273 L43.670035182352834,11.857595396275665 L43.77751139649024,11.800438186871292 L43.8817407028683,11.74255799294942 L43.982682919105294,11.683977128426605 L44.08029913005535,11.624718177341254 L44.17455170281093,11.56480398514706 L44.265404301211056,11.504257649905632 L44.352821899849594,11.443102513381758 L44.43677079757819,11.381362152044709 L44.51721863049874,11.319060367979061 L44.594134384440245,11.256221179708543 L44.66748840691541,11.192868812936428 L44.73725241855222,11.129027691206076 L44.803399523996156,11.064722426485186 L44.865904222278914,10.999977809677413 L44.924742416649465,10.934818801065006 L44.97989142386385,10.869270520686147 L45.031329982929975,10.803358238650688 L45.07903826330414,10.737107365398051 L45.122997872536104,10.670543441901021 L45.163191863359685,10.603692129819205 L45.19960474022629,10.536579201605981 L45.232222465278745,10.46923053057275 " />
			<path d="M36.91968370972968,14.298239828545423 L37.30624227948866,14.274228033549461 L37.68979269788643,14.24495581316415 L38.06974355797812,14.21046830303163 L38.44550900307685,14.170818680392824 L38.81650963010231,14.126068082091976 L39.18217338297828,14.076285510308079 L39.541936434701654,14.021547726158513 L39.895244056722845,13.961939131338958 L40.24155147429693,13.897551637982112 L40.58032470648686,13.828484526935833 L40.9110413895234,13.75484429467927 L41.233191582252104,13.676744489113009 L41.54627855242572,13.594305534476451 L41.84981954262921,13.507654545662348 L42.14334651465679,13.416925132214864 L42.42640687119285,13.322257192313334 L42.69856415368423,13.223796697059418 L42.95939871532769,13.12169546540024 L43.20850836813482,13.016110930034571 L43.32854559705445,12.9620630966227 L43.44550900307685,12.907205894663027 L43.55935349458251,12.851560472651164 L43.670035182352834,12.795148282956555 L43.77751139649024,12.737991073552182 L43.8817407028683,12.68011087963031 L43.982682919105294,12.621530015107496 L44.08029913005535,12.562271064022145 L44.17455170281093,12.502356871827951 L44.265404301211056,12.441810536586523 L44.352821899849594,12.380655400062649 L44.43677079757819,12.3189150387256 L44.51721863049874,12.256613254659952 L44.594134384440245,12.193774066389434 L44.66748840691541,12.130421699617319 L44.73725241855222,12.066580577886967 L44.803399523996156,12.002275313166077 L44.865904222278914,11.937530696358303 L44.924742416649465,11.872371687745897 L44.97989142386385,11.806823407367038 L45.031329982929975,11.740911125331579 L45.07903826330414,11.674660252078942 L45.122997872536104,11.608096328581912 L45.163191863359685,11.541245016500095 L45.19960474022629,11.474132088286872 L45.232222465278745,11.40678341725364 " />
			<path d="M36.91968370972969,13.360686941864532 L-21.135180336575026,16.55909663699265 " />
			<path d="M36.91968370972969,14.298239828545423 L-21.135180336575026,17.49664952367354 " />
			<path d="M-31.60959022886102,14.702667345033747 L-31.51873763046089,14.763213680275175 L-31.42448505770531,14.82312787246937 L-31.32686884675526,14.88238682355472 L-31.225926630518263,14.940967688077537 L-31.121697324140207,14.99884788199941 L-31.014221110002794,15.056005091403781 L-30.903539422232477,15.11241728109839 L-30.789694930726817,15.168062703110254 L-30.67273152470441,15.222919905069926 L-30.55269429578479,15.276967738481797 L-30.30358464297765,15.382552273847466 L-30.042750081334198,15.484653505506644 L-29.770592798842817,15.58311400076056 L-29.487532442306758,15.67778194066209 L-29.19400547027918,15.768511354109574 L-28.89046448007568,15.855162342923677 L-28.57737750990207,15.937601297560235 L-28.255227317173365,16.015701103126496 L-27.92451063413683,16.089341335383057 L-27.58573740194689,16.158408446429338 L-27.23942998437281,16.222795939786185 L-26.88612236235162,16.28240453460574 L-26.52635931062824,16.337142318755305 L-26.16069555775227,16.386924890539202 L-25.789694930726817,16.43167548884005 L-25.413929485628085,16.471325111478855 L-25.033978625536395,16.505812621611376 L-24.650428207138624,16.535084841996685 L-24.26386963737965,16.55909663699265 L-23.87489896155572,16.57781098215179 L-23.48411594425579,16.59119902131031 L-23.092123144568028,16.59924011108222 L-22.69952498697734,16.60192185268992 L-22.306926829386654,16.59924011108222 L-21.91493402969889,16.59119902131031 L-21.524151012398967,16.57781098215179 L-21.135180336575054,16.55909663699265 " />
			<path d="M-31.60959022886102,15.640220231714638 L-31.51873763046089,15.700766566956066 L-31.42448505770531,15.76068075915026 L-31.32686884675526,15.81993971023561 L-31.225926630518263,15.878520574758427 L-31.121697324140207,15.9364007686803 L-31.014221110002794,15.993557978084672 L-30.903539422232477,16.049970167779282 L-30.789694930726817,16.105615589791142 L-30.67273152470441,16.160472791750816 L-30.55269429578479,16.214520625162688 L-30.30358464297765,16.320105160528357 L-30.042750081334198,16.422206392187533 L-29.770592798842817,16.52066688744145 L-29.487532442306758,16.61533482734298 L-29.19400547027918,16.706064240790464 L-28.89046448007568,16.792715229604568 L-28.57737750990207,16.875154184241126 L-28.255227317173365,16.953253989807386 L-27.92451063413683,17.026894222063948 L-27.58573740194689,17.09596133311023 L-27.23942998437281,17.160348826467075 L-26.88612236235162,17.21995742128663 L-26.52635931062824,17.274695205436196 L-26.16069555775227,17.324477777220093 L-25.789694930726817,17.36922837552094 L-25.413929485628085,17.408877998159745 L-25.033978625536395,17.443365508292267 L-24.650428207138624,17.472637728677576 L-24.26386963737965,17.49664952367354 L-23.87489896155572,17.51536386883268 L-23.48411594425579,17.5287519079912 L-23.092123144568028,17.53679299776311 L-22.69952498697734,17.53947473937081 L-22.306926829386654,17.53679299776311 L-21.91493402969889,17.5287519079912 L-21.524151012398967,17.51536386883268 L-21.135180336575054,17.49664952367354 " />
			<path d="M-31.609590228861016,14.702667345033749 L-58.29448227164056,-3.5145708105963784 " />
			<path d="M-31.609590228861016,15.640220231714636 L-48.85594163246424,3.866483604583049 " />
			<path d="M-59.38441702975689,-5.093743888449621 L-59.38333274222797,-5.0425216654035685 L-59.3800801147771,-4.991310550281046 L-59.37465985276096,-4.940121648596748 L-59.367073131604045,-4.888966061048217 L-59.35732159654379,-4.837854881108577 L-59.34540736227376,-4.786799192620826 L-59.33133301248508,-4.735810067394226 L-59.31510159930615,-4.684898562803296 L-59.296716642640746,-4.634075719389936 L-59.2761821294047,-4.583352558469207 L-59.228682710655804,-4.4822492588960285 L-59.172644543247614,-4.381676359366644 L-59.108116233733654,-4.2817210951039595 L-59.03515375287236,-4.182470165604553 L-58.95382038707898,-4.084009659437005 L-58.864186683532,-3.986424979570138 L-58.766330388981736,-3.8898007692959355 L-58.660336382314135,-3.7942208388113876 L-58.54629660092825,-3.69976809252295 L-58.42430996099132,-3.6065244571366764 L-58.294482271640575,-3.514570810596382 " />
			<path d="M54.42720961536976,-9.724733526593761 L54.45601961385416,-9.79229197625231 L54.48101077896765,-9.860034159467784 L54.50217347614036,-9.927933960339018 L54.519499546749664,-9.99596520220025 L54.53298231126554,-10.064101657712703 L54.54261657182562,-10.132317058975746 L54.548398614239034,-10.20058510765365 L54.55032620941839,-10.268879485114093 " />
			<path d="M54.42720961536977,-9.724733526593763 L45.23222246527875,10.46923053057273 " />
			<path d="M50.03348331329983,0.8622891823640586 L45.23222246527875,11.40678341725362 " />
			<path d="M44.0956595483038,27.028635061770622 L44.0956595483038,27.966187948451513 " />
			<path d="M55.56377253234472,1.842448542635077 L44.0956595483038,27.028635061770622 " />
			<path d="M-28.311156175149137,31.017735117513283 L-28.311156175149137,31.955288004194173 " />
			<path d="M44.09565954830381,27.028635061770622 L-28.31115617514913,31.017735117513286 " />
			<path d="M-28.311156175149144,31.017735117513286 L-61.592916325352434,8.296948017350811 " />

        </g>

        <!-- solid lines -->
        <g  stroke="rgb(0,0,0)" fill="none">
    			<path d="M-49.38441702975689,-19.157037188662983 L-49.38441702975689,-18.219484301982092 " />
			<path d="M-41.42098094326055,-12.783006931480733 L-49.38441702975689,-18.219484301982096 " />
			<path d="M-7.821723252011552,-33.614319245121976 L-7.821723252011552,-32.676766358441085 " />
			<path d="M-49.38441702975689,-19.157037188662983 L-7.821723252011559,-33.61431924512197 " />
			<path d="M-49.38441702975689,-18.219484301982092 L-7.821723252011559,-32.67676635844108 " />
			<path d="M44.55032620941839,-24.332172785327472 L44.55032620941839,-23.39461989864658 " />
			<path d="M-7.821723252011552,-33.614319245121976 L44.5503262094184,-24.33217278532748 " />
			<path d="M-7.821723252011552,-32.676766358441085 L44.5503262094184,-23.39461989864659 " />
			<path d="M44.55032620941839,-23.39461989864658 L40.66488629596074,-14.86144495474607 " />
			<path d="M-48.85594163246424,3.866483604583049 L-58.29448227164056,-2.5770179239154913 " />
			<path d="M-56.455484841622365,-7.553363622029678 L-56.626887859271555,-7.492260740590224 L-56.793928283306485,-7.429713082285359 L-56.95650549482174,-7.365758323485645 L-57.11452156338426,-7.300434988146357 L-57.26788130602296,-7.233782424602106 L-57.41649234456334,-7.165840781864873 L-57.560265161272724,-7.096650985439739 L-57.699113152782346,-7.026254712672898 L-57.83295268225396,-6.9546943676467805 L-57.96170312975961,-6.8820130556374135 L-58.085286940844,-6.808254557149425 L-58.203629673240435,-6.733463301544294 L-58.31666004171204,-6.657684340277773 L-58.42430996099132,-6.580963319762571 L-58.526514586792196,-6.503346453872663 L-58.62321235486975,-6.424880496105778 L-58.714345018104275,-6.345612711420845 L-58.79985768158709,-6.265590847767344 L-58.87969883568725,-6.184863107323731 L-58.95382038707898,-6.1034781174622434 L-59.022177687711284,-6.021484901457594 L-59.084729561702325,-5.938932848957179 L-59.14143833014217,-5.855871686230602 L-59.19226983378919,-5.7723514462164385 L-59.2371934536463,-5.688422438384247 L-59.2761821294047,-5.604135218430035 L-59.30921237574399,-5.519540557823407 L-59.33626429647886,-5.434689413224712 L-59.35732159654379,-5.349632895790666 L-59.372371591808616,-5.264422240386905 L-59.38140521671893,-5.179108774726011 L-59.38441702975689,-5.093743888449653 " />
			<path d="M-56.455484841622365,-6.615810735348787 L-56.626887859271555,-6.554707853909333 L-56.793928283306485,-6.492160195604469 L-56.95650549482174,-6.428205436804754 L-57.11452156338426,-6.362882101465466 L-57.26788130602296,-6.296229537921215 L-57.41649234456334,-6.228287895183982 L-57.560265161272724,-6.159098098758848 L-57.699113152782346,-6.088701825992008 L-57.83295268225396,-6.01714148096589 L-57.96170312975961,-5.944460168956523 L-58.085286940844,-5.870701670468534 L-58.203629673240435,-5.795910414863403 L-58.31666004171204,-5.720131453596882 L-58.42430996099132,-5.64341043308168 L-58.526514586792196,-5.565793567191772 L-58.62321235486975,-5.487327609424887 L-58.714345018104275,-5.408059824739954 L-58.79985768158709,-5.328037961086453 L-58.87969883568725,-5.247310220642841 L-58.95382038707898,-5.165925230781353 L-59.022177687711284,-5.083932014776703 L-59.084729561702325,-5.001379962276288 L-59.14143833014217,-4.918318799549711 L-59.19226983378919,-4.834798559535548 L-59.2371934536463,-4.750869551703357 L-59.2761821294047,-4.666582331749145 L-59.30921237574399,-4.5819876711425165 L-59.33626429647886,-4.497136526543821 L-59.35732159654379,-4.412080009109776 L-59.372371591808616,-4.326869353706014 L-59.38140521671893,-4.24155588804512 L-59.38441702975689,-4.156191001768763 " />
			<path d="M-59.38441702975689,-4.156191001768731 L-59.38333274222797,-4.104968778722678 L-59.3800801147771,-4.053757663600155 L-59.37465985276096,-4.002568761915858 L-59.367073131604045,-3.951413174367327 L-59.35732159654379,-3.900301994427686 L-59.34540736227376,-3.849246305939935 L-59.33133301248508,-3.7982571807133354 L-59.31510159930615,-3.747345676122405 L-59.296716642640746,-3.6965228327090456 L-59.2761821294047,-3.6457996717883168 L-59.228682710655804,-3.544696372215138 L-59.172644543247614,-3.444123472685753 L-59.108116233733654,-3.344168208423069 L-59.03515375287236,-3.244917278923662 L-58.95382038707898,-3.1464567727561135 L-58.864186683532,-3.048872092889247 L-58.766330388981736,-2.952247882615045 L-58.660336382314135,-2.856667952130497 L-58.54629660092825,-2.7622152058420593 L-58.42430996099132,-2.6689715704557857 L-58.294482271640575,-2.5770179239154913 " />
			<path d="M-56.455484841622365,-7.553363622029676 L-14.892791063877034,-22.01064567848866 " />
			<path d="M-56.455484841622365,-6.615810735348785 L-14.892791063877034,-21.07309279180777 " />
			<path d="M-3.2818182546160823,-22.65032761751429 L-3.6351258766372627,-22.70993621233384 L-3.9948889283606484,-22.76467399648341 L-4.3605526812366175,-22.814456568267307 L-4.731553308262076,-22.859207166568154 L-5.1073187533608095,-22.89885678920696 L-5.487269613452501,-22.93334429933948 L-5.870820031850274,-22.96261651972479 L-6.257378601609242,-22.986628314720754 L-6.646349277433167,-23.005342659879894 L-7.037132294733096,-23.018730699038414 L-7.429125094420861,-23.026771788810326 L-7.82172325201155,-23.029453530418024 L-8.214321409602238,-23.026771788810326 L-8.606314209290003,-23.018730699038414 L-8.997097226589933,-23.005342659879894 L-9.386067902413858,-22.986628314720754 L-9.772626472172826,-22.962616519724794 L-10.156176890570599,-22.93334429933948 L-10.53612775066229,-22.898856789206963 L-10.911893195761024,-22.859207166568154 L-11.282893822786482,-22.814456568267307 L-11.648557575662451,-22.76467399648341 L-12.008320627385837,-22.709936212333844 L-12.361628249407019,-22.65032761751429 L-12.707935666981093,-22.585940124157446 L-13.046708899171035,-22.516873013111166 L-13.37742558220757,-22.4432327808546 L-13.699575774936282,-22.36513297528834 L-14.01266274510989,-22.282694020651782 L-14.31620373531339,-22.19604303183768 L-14.609730707340972,-22.105313618390195 L-14.892791063876963,-22.010645678488686 " />
			<path d="M-3.2818182546160823,-21.7127747308334 L-3.6351258766372627,-21.77238332565295 L-3.9948889283606484,-21.82712110980252 L-4.3605526812366175,-21.876903681586416 L-4.731553308262076,-21.921654279887264 L-5.1073187533608095,-21.96130390252607 L-5.487269613452501,-21.99579141265859 L-5.870820031850274,-22.0250636330439 L-6.257378601609242,-22.049075428039863 L-6.646349277433167,-22.067789773199003 L-7.037132294733096,-22.081177812357524 L-7.429125094420861,-22.089218902129435 L-7.82172325201155,-22.091900643737134 L-8.214321409602238,-22.089218902129435 L-8.606314209290003,-22.081177812357524 L-8.997097226589933,-22.067789773199003 L-9.386067902413858,-22.049075428039863 L-9.772626472172826,-22.025063633043903 L-10.156176890570599,-21.99579141265859 L-10.53612775066229,-21.961303902526073 L-10.911893195761024,-21.921654279887264 L-11.282893822786482,-21.876903681586416 L-11.648557575662451,-21.82712110980252 L-12.008320627385837,-21.772383325652953 L-12.361628249407019,-21.7127747308334 L-12.707935666981093,-21.648387237476555 L-13.046708899171035,-21.579320126430275 L-13.37742558220757,-21.50567989417371 L-13.699575774936282,-21.42758008860745 L-14.01266274510989,-21.34514113397089 L-14.31620373531339,-21.258490145156788 L-14.609730707340972,-21.167760731709304 L-14.892791063876963,-21.073092791807795 " />
			<path d="M-3.2818182546160903,-22.65032761751429 L49.09023120681387,-13.36818115771979 " />
			<path d="M-3.2818182546160903,-21.7127747308334 L49.09023120681387,-12.4306282710389 " />
			<path d="M54.55032620941839,-10.268879485114109 L54.54885038324633,-10.328637965357679 L54.54442334034276,-10.38837880697542 L54.537046387416815,-10.448084376547811 L54.52672170188855,-10.507737051066416 L54.51345233124617,-10.567319223135577 L54.49724219214658,-10.626813306169504 L54.478096069259294,-10.686201739583238 L54.45601961385416,-10.745466993975906 L54.431019342133304,-10.804591576304807 L54.403102633307796,-10.863558035048731 L54.372277727419544,-10.922348965359067 L54.33855372290911,-10.980947014197087 L54.301940573930196,-11.039334885455968 L54.262449087411504,-11.097495345066005 L54.220090919866905,-11.155411226081503 L54.17487857395486,-11.213065433747868 L54.12682539478804,-11.270440950547377 L54.07594556599434,-11.327520841222162 L54.02225410553036,-11.384288257772917 L53.965766861248596,-11.440726444431828 L53.906500506219764,-11.4968187426083 L53.844472533811434,-11.55254859580599 L53.77970125252462,-11.607899554509716 L53.71220578058975,-11.66285528104078 L53.569122752249,-11.771516274951985 L53.41539236886585,-11.87840329521546 L53.2511961205055,-11.983390153813911 L53.07672785295931,-12.08635290601114 L52.89219353889551,-12.187169996677973 L52.69781103469328,-12.28572240379705 L52.4938098232472,-12.381893778977108 L52.280430743045756,-12.475570584810846 L52.05792570384373,-12.566642228914212 L51.82655738926414,-12.655001194488875 L51.586598946680816,-12.740543167253751 L51.33833366474781,-12.823167158595695 L51.08205463895616,-12.902775624794028 L50.81806442561308,-12.979274582178096 L50.546674684651904,-13.052573718081927 L50.268205811694514,-13.122586497464999 L49.98298655980063,-13.189230265073249 L49.6913536513506,-13.252426343019701 L49.3936513805198,-13.31210012366951 L49.09023120681393,-13.368181157719775 " />
			<path d="M54.42720961536976,-8.78718063991287 L54.45601961385416,-8.854739089571419 L54.48101077896765,-8.922481272786893 L54.50217347614036,-8.990381073658128 L54.519499546749664,-9.058412315519359 L54.53298231126554,-9.126548771031812 L54.54261657182562,-9.194764172294855 L54.548398614239034,-9.26303222097276 L54.55032620941839,-9.331326598433202 " />
			<path d="M54.55032620941839,-9.331326598433218 L54.54885038324633,-9.391085078676788 L54.54442334034276,-9.450825920294529 L54.537046387416815,-9.51053148986692 L54.52672170188855,-9.570184164385525 L54.51345233124617,-9.629766336454686 L54.49724219214658,-9.689260419488614 L54.478096069259294,-9.748648852902347 L54.45601961385416,-9.807914107295016 L54.431019342133304,-9.867038689623916 L54.403102633307796,-9.92600514836784 L54.372277727419544,-9.984796078678176 L54.33855372290911,-10.043394127516196 L54.301940573930196,-10.101781998775078 L54.262449087411504,-10.159942458385114 L54.220090919866905,-10.217858339400612 L54.17487857395486,-10.275512547066977 L54.12682539478804,-10.332888063866486 L54.07594556599434,-10.389967954541271 L54.02225410553036,-10.446735371092027 L53.965766861248596,-10.503173557750937 L53.906500506219764,-10.559265855927409 L53.844472533811434,-10.614995709125099 L53.77970125252462,-10.670346667828825 L53.71220578058975,-10.72530239435989 L53.569122752249,-10.833963388271094 L53.41539236886585,-10.940850408534569 L53.2511961205055,-11.04583726713302 L53.07672785295931,-11.148800019330249 L52.89219353889551,-11.249617109997082 L52.69781103469328,-11.34816951711616 L52.4938098232472,-11.444340892296218 L52.280430743045756,-11.538017698129956 L52.05792570384373,-11.629089342233321 L51.82655738926414,-11.717448307807985 L51.586598946680816,-11.80299028057286 L51.33833366474781,-11.885614271914804 L51.08205463895616,-11.965222738113138 L50.81806442561308,-12.041721695497206 L50.546674684651904,-12.115020831401036 L50.268205811694514,-12.185033610784108 L49.98298655980063,-12.251677378392358 L49.6913536513506,-12.31487345633881 L49.3936513805198,-12.374547236988619 L49.09023120681393,-12.430628271038884 " />
			<path d="M54.42720961536977,-8.787180639912872 L50.03348331329983,0.8622891823640586 " />
			<path d="M55.563772532344714,1.8424485426350756 L55.563772532344714,2.7800014293159663 " />
			<path d="M55.56377253234472,2.7800014293159676 L44.0956595483038,27.966187948451513 " />
			<path d="M44.09565954830381,27.966187948451513 L-28.31115617514913,31.955288004194177 " />
			<path d="M-61.59291632535244,8.296948017350811 L-61.59291632535244,9.234500904031702 " />
			<path d="M-28.311156175149144,31.955288004194177 L-61.592916325352434,9.234500904031702 " />
			<path d="M-9.755359580146955,-9.734370717442424 L-9.755359580146955,-8.796817830761533 " />
			<path d="M-61.592916325352434,8.296948017350811 L-9.755359580146965,-9.73437071744242 " />
			<path d="M-61.592916325352434,9.234500904031702 L-9.755359580146965,-8.79681783076153 " />
			<path d="M-9.755359580146957,-9.734370717442427 L55.56377253234473,1.8424485426350738 " />
			<path d="M-9.755359580146957,-8.796817830761537 L55.56377253234473,2.7800014293159645 " />
			<path d="M-56.455484841622365,-7.553363622029677 L-56.455484841622365,-6.615810735348786 " />
			<path d="M-14.892791063877034,-22.01064567848866 L-14.892791063877034,-21.07309279180777 " />
			<path d="M-3.2818182546160877,-22.65032761751429 L-3.2818182546160877,-21.7127747308334 " />
			<path d="M49.09023120681386,-13.368181157719789 L49.09023120681386,-12.430628271038898 " />
			<path d="M-59.38441702975689,-4.156191001768729 L-59.38441702975689,-5.09374388844962 " />
			<path d="M54.550326209418394,-9.331326598433218 L54.550326209418394,-10.268879485114109 " />

        </g>
        </g>
    </svg>
    