<?xml version="1.0" encoding="UTF-8" standalone="no"?>
    <svg
    xmlns:svg="http://www.w3.org/2000/svg"
    xmlns="http://www.w3.org/2000/svg"
    width="449"
    height="190"
    >
        <g transform="scale(4, -4)   translate(50.57072654572461,-22.130910184064568)" stroke-width="0.25"  fill="none">
        <!-- hidden lines -->
        <g  stroke="rgb(160,160,160)" fill="none" stroke-dasharray="0.25,0.25" >
    			<path d="M17.421158219096228,7.3965033312940776 L17.421158219096228,16.91022339340831 " />
			<path d="M59.26473227838938,-5.849815641549625 L17.421158219096228,7.396503331294079 " />
			<path d="M17.421158219096224,7.3965033312940776 L16.865077874585467,7.531079553158518 L16.301419493832704,7.662630177810719 L15.730356539077484,7.791114721392471 L15.15206475126935,7.916493643612279 L14.566722095984716,8.03872835991364 L13.97450870865908,8.15778125334919 L13.375606839151512,8.273615686157077 L12.770200795658432,8.386196011035997 L12.158476887993956,8.495487582115418 L11.540623370254234,8.601456765617632 L10.916830382883479,8.704070950208322 L10.28728989415946,8.803298557032505 L9.652195641116503,8.8991090494327 L9.011743069924183,8.991472942346416 L8.366129275739976,9.080361811379966 L7.715552942054529,9.165748301555901 L7.060214279548095,9.247606135731331 L6.400314964476978,9.32591012268454 L5.736058076608945,9.40063616486743 L5.0676480367267605,9.471761265821378 L4.395290543719,9.539263537254254 L3.7191925112775426,9.6031222057764 L3.039562004221189,9.663317619293505 L2.356608174465082,9.71983125305442 L1.6705411966555364,9.772645715352013 L0.9815722034901491,9.821744752875375 L0.28991322074307035,9.867113255711661 L-0.4042228979845799,9.908737261996066 L-1.1006225367690021,9.946603962208505 L-1.7990713831026648,9.98070170311566 L-2.499354493847619,10.011019991357182 L-3.201256361382838,10.037549496674968 L-3.9045609799253094,10.060282054784468 L-4.609051912004423,10.07921066988721 L-5.3145123550692155,10.0943295168237 L-6.020725208207961,10.105633942866083 L-6.72747313895956,10.113120469149989 L-7.434538650196222,10.11678679174513 L-8.141704147056819,10.116631782364315 L-8.848752003910286,10.112655488710692 L-9.555464631328514,10.104859134463037 L-10.26162454304809,10.093245118899208 L-10.967014422900304,10.077817016157752 L-11.671417191688809,10.058579574138014 L-12.374616073994314,10.03553871303898 L-13.07639466488585,10.008701523537386 L-13.776536996518004,9.978076264605605 L-14.474827604593619,9.94367236097 L-15.171051594671539,9.905500400210528 L-15.864994708299001,9.863572129502476 L-16.556443388948296,9.817900452001346 L-17.24518484773742,9.768499422871995 L-17.931007128914448,9.715384244963241 L-18.613699175085596,9.658571264129293 L-19.293050892166768,9.59807796419941 L-19.96885321403864,9.533922961597375 L-20.640898166885435,9.466125999612402 L-21.308978933197498,9.394707942323269 L-21.972889915418087,9.319690768177534 L-22.632426799214677,9.241097563227806 L-23.28738661635538,9.158952514027163 L-23.93756780717111,9.073280900185898 L-24.582770282584303,8.984109086591873 L-25.22279548568501,8.891464515296903 L-25.857446452835525,8.795375697071641 L-26.486527874284672,8.695872202631564 L-27.109846154273118,8.592984653536785 L-27.727209470611243,8.48674471276846 L-28.338427833711158,8.377185074984705 L-28.943313145054788,8.26433945645904 L-29.541679255080012,8.148242584704398 L-30.133342020466905,8.028930187785992 L-30.718119360806774,7.906438983326197 L-31.29583131463617,7.7808066672049545 L-31.866300094818836,7.652071901959117 L-32.42935014325864,7.520274304884278 L-32.98480818492638,7.385454435842826 L-33.53250328118409,7.247653784781894 L-34.07226688239032,7.106914758965102 L-34.60393287977014,6.963280669921996 L-35.12733765653414,6.8167957201191935 L-35.642320138230346,6.667504989357372 L-36.14872184231392,6.515454420898239 L-36.646386926919114,6.360690807325799 L-37.13516223881861,6.203261776146226 L-37.61489736055542,6.043215775130816 L-38.08544465673293,5.880602057406483 L-38.54665931944867,5.715470666298453 L-38.99839941285812,5.547872419929714 L-39.44052591685447,5.377858895582095 L-39.87290276985115,5.205482413823689 L-40.295396910654034,5.030796022407514 L-40.707878319410014,4.853853479946426 L-41.11022005761984,4.6747092393692435 L-41.502298307202636,4.493418431163222 L-41.88399240860012,4.310036846407979 L-42.25518489790879,4.124620919606169 L-42.615761543028654,3.9372277113161207 L-42.96561137881747,3.7479148905918107 L-43.304626741239574,3.556740717235596 L-43.63270330049873,3.363764023869124 L-43.94974009314498,3.169044197827981 L-44.25563955314554,2.9726411628856066 L-44.550307541910016,2.7746153608121658 L-44.833653377261044,2.5750277327739513 L-45.105589861341144,2.373939700579145 L-45.23725330669379,2.272852354014832 L-45.36603330744724,2.1714131477756684 L-45.491919955606804,2.069629886327503 L-45.61490356578473,1.9675104006068889 L-45.73497467594534,1.8650625474185976 L-45.85212404813308,1.762294208831137 L-45.966342669183234,1.6592132915703015 L-46.07762175141538,1.5558277264108717 L-46.185952733309435,1.4521454675664454 L-46.29132728016448,1.3481744920774519 L-46.393737284739885,1.2439227991974104 L-46.493174867879134,1.139398409777499 L-46.58963237911598,1.0346093656494593 L-46.683102397263085,0.9295637290068726 L-46.77357773098298,0.8242695817848604 L-46.86105141934135,0.7187350250382982 L-46.94551673234257,0.6129681783185461 L-47.02696717144748,0.5069771790487452 L-47.10539647007346,0.4007701818977343 L-47.180798594076435,0.2943553581526599 L-47.253167742215226,0.18774089509031322 L-47.3224983465978,0.08093499534720783 L-47.388785073109744,-0.026054123711518162 L-47.452022821824556,-0.13321823062431326 L-47.51220672739613,-0.2405490804665109 L-47.569332159432975,-0.34803841548468695 L-47.62339472285451,-0.45567796573198316 L-47.67439025822925,-0.5634594497043734 L-47.72231484209476,-0.6713745749778324 L-47.767164787259546,-0.7794150388463261 L-47.808936643086724,-0.8875725289605871 L-47.84762719575954,-0.9958387239676616 L-47.88323346852857,-1.104205294151127 L-47.915752721940805,-1.2126639020719534 L-47.94518245405037,-1.32120620320998 L-47.97152040061104,-1.42982384660591 L-47.994764535250454,-1.5385084755038008 L-48.014913069626004,-1.6472517279940204 L-48.03196445356241,-1.7560452376566036 L-48.045917375171015,-1.8648806342049302 L-48.05677076095074,-1.9737495441297017 L-48.06452377587058,-2.0826435913431895 L-48.06917582343398,-2.191554397823678 L-48.07072654572461,-2.300473584259983 " />

        </g>

        <!-- solid lines -->
        <g  stroke="rgb(0,0,0)" fill="none">
    			<path d="M1.9296112218510189,-23.036049643850582 L1.9296112218510189,-13.52232958173635 " />
			<path d="M59.26473227838938,-5.849815641549625 L59.26473227838938,3.663904420564606 " />
			<path d="M1.9296112218510189,-23.036049643850582 L59.26473227838939,-5.849815641549622 " />
			<path d="M1.9296112218510189,-13.52232958173635 L59.26473227838939,3.6639044205646094 " />
			<path d="M59.26473227838938,3.663904420564606 L17.421158219096228,16.91022339340831 " />
			<path d="M-39.913962837442135,-9.789730671006877 L-39.913962837442135,-0.27601060889264595 " />
			<path d="M-48.07072654572461,-2.3004735842600383 L-48.06866413009989,-2.426083548167277 L-48.062477094261325,-2.5516806591015517 L-48.05216607129407,-2.677252065405071 L-48.037732116268074,-2.802784918050261 L-48.01917670613017,-2.9282663719545217 L-47.99650173955281,-3.0536835872946004 L-47.96970953673997,-3.1790237308204334 L-47.93880283918959,-3.3042739771682825 L-47.9037848094131,-3.429421510173093 L-47.86465903061183,-3.5544535241798965 L-47.82142950631038,-3.6793572253541447 L-47.77410065994688,-3.804119832990839 L-47.72267733442045,-3.9287285808222903 L-47.66716479159561,-4.0531707183244325 L-47.607568711763875,-4.1774335120215245 L-47.543895193062525,-4.301504246789079 L-47.47615075085061,-4.4253702271549376 L-47.40434231704225,-4.549018778598326 L-47.32847723939736,-4.672437248846769 L-47.2485632807698,-4.795613009170738 L-47.16460861831304,-4.918533455675851 L-47.07662184264338,-5.04118601059258 L-46.98461195696099,-5.163558123563274 L-46.88858837612868,-5.285637272926349 L-46.78856092570841,-5.407410966997567 L-46.684539840956035,-5.528866745348238 L-46.5765357657739,-5.649992180080235 L-46.46455975162175,-5.770774877097669 L-46.34862325638585,-5.891202477375092 L-46.22873814320664,-6.011262658222149 L-46.10491667926473,-6.130943134544488 L-45.97717153452582,-6.250231660100818 L-45.84551578044409,-6.369116028756003 L-45.70996288862477,-6.487584075730046 L-45.57052672944569,-6.605623678842848 L-45.42722157063787,-6.723222759754602 L-45.28006207582574,-6.840369285201696 L-45.1290633030266,-6.957051268228012 L-44.974240703109814,-7.073256769411501 L-44.815610118215815,-7.188973898085862 L-44.65318778013514,-7.30419081355725 L-44.48699030864741,-7.418895726315872 L-44.31703470982079,-7.533076899242341 L-44.14333837427179,-7.646722648808675 L-43.96591907538591,-7.759821346273793 L-43.78479496749884,-7.872361418873434 L-43.59998458403889,-7.984331351004334 L-43.411506835630576,-8.095719685402551 L-43.21938100815957,-8.20651502431582 L-43.02362676079932,-8.316706030669824 L-42.8242641239994,-8.426281429228254 L-42.62131349743592,-8.535230007746552 L-42.414795647924166,-8.643540618119177 L-42.20473170729362,-8.751202177520334 L-41.99114317022563,-8.858203669538039 L-41.77405189205399,-8.96453414530135 L-41.553480086528666,-9.070182724600707 L-41.32945032354273,-9.175138597001245 L-41.1019855268229,-9.27939102294896 L-40.87110897158392,-9.38292933486963 L-40.63684428214691,-9.485742938260385 L-40.399215429522,-9.587821312773764 L-39.91396283744224,-9.78973067100683 " />
			<path d="M17.421158219096224,16.91022339340831 L16.865077874585467,17.04479961527275 L16.301419493832704,17.17635023992495 L15.730356539077484,17.304834783506703 L15.15206475126935,17.43021370572651 L14.566722095984716,17.552448422027872 L13.97450870865908,17.671501315463424 L13.375606839151512,17.78733574827131 L12.770200795658432,17.89991607315023 L12.158476887993956,18.009207644229647 L11.540623370254234,18.115176827731865 L10.916830382883479,18.217791012322554 L10.28728989415946,18.317018619146737 L9.652195641116503,18.412829111546934 L9.011743069924183,18.505193004460647 L8.366129275739976,18.594081873494197 L7.715552942054529,18.679468363670132 L7.060214279548095,18.761326197845563 L6.400314964476978,18.83963018479877 L5.736058076608945,18.91435622698166 L5.0676480367267605,18.98548132793561 L4.395290543719,19.052983599368485 L3.7191925112775426,19.116842267890632 L3.039562004221189,19.177037681407736 L2.356608174465082,19.23355131516865 L1.6705411966555364,19.286365777466244 L0.9815722034901491,19.335464814989606 L0.28991322074307035,19.380833317825893 L-0.4042228979845799,19.422457324110297 L-1.1006225367690021,19.460324024322738 L-1.7990713831026648,19.49442176522989 L-2.499354493847619,19.52474005347141 L-3.201256361382838,19.5512695587892 L-3.9045609799253094,19.574002116898697 L-4.609051912004423,19.59293073200144 L-5.3145123550692155,19.60804957893793 L-6.020725208207961,19.619354004980316 L-6.72747313895956,19.62684053126422 L-7.434538650196222,19.63050685385936 L-8.141704147056819,19.630351844478547 L-8.848752003910286,19.626375550824925 L-9.555464631328514,19.61857919657727 L-10.26162454304809,19.60696518101344 L-10.967014422900304,19.591537078271983 L-11.671417191688809,19.572299636252247 L-12.374616073994314,19.549258775153213 L-13.07639466488585,19.522421585651617 L-13.776536996518004,19.491796326719836 L-14.474827604593619,19.45739242308423 L-15.171051594671539,19.41922046232476 L-15.864994708299001,19.377292191616707 L-16.556443388948296,19.331620514115578 L-17.24518484773742,19.28221948498623 L-17.931007128914448,19.22910430707747 L-18.613699175085596,19.172291326243524 L-19.293050892166768,19.111798026313643 L-19.96885321403864,19.047643023711608 L-20.640898166885435,18.979846061726633 L-21.308978933197498,18.9084280044375 L-21.972889915418087,18.833410830291765 L-22.632426799214677,18.754817625342035 L-23.28738661635538,18.672672576141395 L-23.93756780717111,18.58700096230013 L-24.582770282584303,18.497829148706103 L-25.22279548568501,18.405184577411134 L-25.857446452835525,18.309095759185873 L-26.486527874284672,18.209592264745794 L-27.109846154273118,18.106704715651016 L-27.727209470611243,18.00046477488269 L-28.338427833711158,17.890905137098937 L-28.943313145054788,17.778059518573272 L-29.541679255080012,17.66196264681863 L-30.133342020466905,17.542650249900223 L-30.718119360806774,17.42015904544043 L-31.29583131463617,17.294526729319188 L-31.866300094818836,17.16579196407335 L-32.42935014325864,17.03399436699851 L-32.98480818492638,16.899174497957056 L-33.53250328118409,16.761373846896127 L-34.07226688239032,16.620634821079335 L-34.60393287977014,16.477000732036228 L-35.12733765653414,16.330515782233427 L-35.642320138230346,16.181225051471603 L-36.14872184231392,16.02917448301247 L-36.646386926919114,15.87441086944003 L-37.13516223881861,15.716981838260457 L-37.61489736055542,15.556935837245048 L-38.08544465673293,15.394322119520714 L-38.54665931944867,15.229190728412684 L-38.99839941285812,15.061592482043945 L-39.44052591685447,14.891578957696327 L-39.87290276985115,14.71920247593792 L-40.295396910654034,14.544516084521746 L-40.707878319410014,14.367573542060658 L-41.11022005761984,14.188429301483474 L-41.502298307202636,14.007138493277452 L-41.88399240860012,13.82375690852221 L-42.25518489790879,13.6383409817204 L-42.615761543028654,13.450947773430352 L-42.96561137881747,13.261634952706043 L-43.304626741239574,13.070460779349826 L-43.63270330049873,12.877484085983355 L-43.94974009314498,12.682764259942212 L-44.25563955314554,12.486361224999838 L-44.550307541910016,12.288335422926398 L-44.833653377261044,12.088747794888182 L-45.105589861341144,11.887659762693376 L-45.23725330669379,11.786572416129063 L-45.36603330744724,11.6851332098899 L-45.491919955606804,11.583349948441734 L-45.61490356578473,11.48123046272112 L-45.73497467594534,11.378782609532829 L-45.85212404813308,11.276014270945367 L-45.966342669183234,11.172933353684533 L-46.07762175141538,11.069547788525103 L-46.185952733309435,10.965865529680677 L-46.29132728016448,10.861894554191682 L-46.393737284739885,10.757642861311641 L-46.493174867879134,10.65311847189173 L-46.58963237911598,10.54832942776369 L-46.683102397263085,10.443283791121104 L-46.77357773098298,10.337989643899093 L-46.86105141934135,10.23245508715253 L-46.94551673234257,10.126688240432777 L-47.02696717144748,10.020697241162976 L-47.10539647007346,9.914490244011965 L-47.180798594076435,9.808075420266892 L-47.253167742215226,9.701460957204544 L-47.3224983465978,9.59465505746144 L-47.388785073109744,9.487665938402714 L-47.452022821824556,9.380501831489918 L-47.51220672739613,9.27317098164772 L-47.569332159432975,9.165681646629544 L-47.62339472285451,9.058042096382248 L-47.67439025822925,8.950260612409858 L-47.72231484209476,8.842345487136399 L-47.767164787259546,8.734305023267906 L-47.808936643086724,8.626147533153643 L-47.84762719575954,8.51788133814657 L-47.88323346852857,8.409514767963104 L-47.915752721940805,8.301056160042277 L-47.94518245405037,8.19251385890425 L-47.97152040061104,8.083896215508322 L-47.994764535250454,7.97521158661043 L-48.014913069626004,7.866468334120211 L-48.03196445356241,7.757674824457627 L-48.045917375171015,7.6488394279093015 L-48.05677076095074,7.539970517984529 L-48.06452377587058,7.431076470771042 L-48.06917582343398,7.322165664290553 L-48.07072654572461,7.213246477854248 " />
			<path d="M-48.07072654572461,7.213246477854193 L-48.06866413009989,7.087636513946954 L-48.062477094261325,6.962039403012679 L-48.05216607129407,6.83646799670916 L-48.037732116268074,6.710935144063971 L-48.01917670613017,6.585453690159709 L-47.99650173955281,6.46003647481963 L-47.96970953673997,6.334696331293798 L-47.93880283918959,6.209446084945949 L-47.9037848094131,6.0842985519411386 L-47.86465903061183,5.959266537934335 L-47.82142950631038,5.834362836760087 L-47.77410065994688,5.709600229123392 L-47.72267733442045,5.584991481291941 L-47.66716479159561,5.460549343789799 L-47.607568711763875,5.336286550092707 L-47.543895193062525,5.212215815325152 L-47.47615075085061,5.088349834959294 L-47.40434231704225,4.964701283515906 L-47.32847723939736,4.841282813267462 L-47.2485632807698,4.718107052943493 L-47.16460861831304,4.59518660643838 L-47.07662184264338,4.472534051521651 L-46.98461195696099,4.350161938550957 L-46.88858837612868,4.228082789187882 L-46.78856092570841,4.106309095116664 L-46.684539840956035,3.984853316765993 L-46.5765357657739,3.863727882033996 L-46.46455975162175,3.742945185016563 L-46.34862325638585,3.622517584739139 L-46.22873814320664,3.5024574038920826 L-46.10491667926473,3.382776927569743 L-45.97717153452582,3.263488402013413 L-45.84551578044409,3.1446040333582284 L-45.70996288862477,3.026135986384185 L-45.57052672944569,2.908096383271383 L-45.42722157063787,2.790497302359629 L-45.28006207582574,2.6733507769125353 L-45.1290633030266,2.556668793886219 L-44.974240703109814,2.44046329270273 L-44.815610118215815,2.324746164028369 L-44.65318778013514,2.209529248556981 L-44.48699030864741,2.094824335798359 L-44.31703470982079,1.98064316287189 L-44.14333837427179,1.8669974133055565 L-43.96591907538591,1.753898715840438 L-43.78479496749884,1.641358643240797 L-43.59998458403889,1.5293887111098972 L-43.411506835630576,1.4180003767116798 L-43.21938100815957,1.3072050377984112 L-43.02362676079932,1.1970140314444073 L-42.8242641239994,1.0874386328859762 L-42.62131349743592,0.9784900543676782 L-42.414795647924166,0.8701794439950543 L-42.20473170729362,0.7625178845938976 L-41.99114317022563,0.6555163925761924 L-41.77405189205399,0.5491859168128812 L-41.553480086528666,0.44353733751352387 L-41.32945032354273,0.3385814651129859 L-41.1019855268229,0.2343290391652717 L-40.87110897158392,0.1307907272446016 L-40.63684428214691,0.02797712385384621 L-40.399215429522,-0.07410125065953288 L-39.91396283744224,-0.2760106088925971 " />
			<path d="M-39.913962837442135,-9.789730671006877 L1.9296112218510189,-23.036049643850582 " />
			<path d="M-39.913962837442135,-0.2760106088926477 L1.9296112218510189,-13.522329581736352 " />
			<path d="M-48.070726545724604,7.213246477854192 L-48.070726545724604,-2.3004735842600397 " />

        </g>
        </g>
    </svg>
    