<?xml version="1.0" encoding="UTF-8" standalone="no"?>
    <svg
    xmlns:svg="http://www.w3.org/2000/svg"
    xmlns="http://www.w3.org/2000/svg"
    width="374"
    height="231"
    >
        <g transform="scale(4, -4)   translate(50.521359140086986,-29.046346080373063)" stroke-width="0.25"  fill="none">
        <!-- hidden lines -->
        <g  stroke="rgb(160,160,160)" fill="none" stroke-dasharray="0.25,0.25" >
    			<path d="M-48.021359140086986,-7.267079995989082 L9.164052093661844,17.58740382126 " />
			<path d="M9.164052093661848,17.587403821259997 L9.164052093661848,26.54634608037306 " />
			<path d="M40.63304278937675,3.296745484344661 L9.164052093661844,17.587403821259997 " />
			<path d="M40.01700440047448,3.0126638349294126 L39.787700838297276,2.8978266939240305 L39.56441215438436,2.7806734762240692 L39.34725683604033,2.6612663487461408 L39.13635011592235,2.539668674435645 L38.93180391089226,2.415944978643469 L38.73372676262842,2.29016091488584 L38.54222378002839,2.162383230005535 L38.35739658343332,2.03267972875292 L38.1793432507035,1.9011192378056152 L38.008158265173726,1.7677715692458733 L37.84393246551602,1.6327074835150595 L37.68675299753647,1.4959986518648853 L37.53670326793166,1.3577176183253363 L37.39386290002912,1.217937761209447 L37.25830769153561,1.07673325417537 L37.13010957431532,0.9341790268664085 L37.009336576219454,0.7903507251498785 L36.89605278498753,0.6453246709759148 L36.790318314239514,0.49917782187751025 L36.69218927157665,0.3519877301332892 L36.60171772880827,0.20383250161468713 L36.51895169432,0.05479075433935776 L36.44393508759837,-0.0950584232471896 L36.37670771592503,-0.24563551423956942 L36.31730525325321,-0.39686061546787066 L36.26575922127746,-0.5486534798979763 L36.22209697270678,-0.7009335592143499 L36.18634167674998,-0.8536200465627016 L36.158512306821095,-1.0066319194298348 L36.13862363047114,-1.159887982637944 L36.12668620155179,-1.3133069114305398 L36.12270635461505,-1.4668072946270863 " />
			<path d="M36.12270635461505,-1.4668072946271158 L36.12380450987547,-1.547443301363996 L36.12709881486407,-1.6280675013202128 L36.1325887872264,-1.7086680894438593 L36.14027362311687,-1.78923326414029 L36.1501521973164,-1.8697512290001181 L36.162223063397235,-1.950210194526455 L36.176484453934705,-2.030598379861135 L36.19293428076599,-2.1109040145096776 L36.211570135295915,-2.191115340064732 L36.23238928884959,-2.2712206119277516 L36.25538869307194,-2.3512081010286447 L36.28056498037408,-2.4310660955431556 L36.30791446442636,-2.5107829026077146 L36.337433140698145,-2.59034685003152 L36.36911668704415,-2.6697462880055842 L36.40296046433728,-2.7489695908085086 L36.43895951714796,-2.8280051585087316 L36.4771085744696,-2.906841418662994 L36.55983404541157,-3.0638698741645376 L36.65108842805084,-3.219962991813305 L36.75081827822099,-3.375029353900707 L36.85896518800166,-3.5289781440492196 L36.975465819925894,-3.6817192004000283 L37.100251944074394,-3.833163068417344 L37.23325047803517,-3.98322105327847 L37.37438352970507,-4.1318052718189335 L37.523568442908186,-4.278828704002258 L37.680717845804395,-4.424205243884238 L37.845739702059646,-4.567849750041862 L38.018537364748084,-4.709678095437362 L38.19900963295446,-4.849607216688159 L38.387050811043544,-4.98755516271388 L38.58255077056201,-5.123441142731949 L38.785395014736416,-5.257185573573612 L38.995464745529524,-5.388710126292738 L39.21263693321572,-5.517937772040046 L39.4367843884348,-5.644792827175936 L39.66777583668184,-5.769200997595464 L39.90547599518958,-5.891089422239532 L40.14974565215839,-6.010386715766801 L40.40044174828709,-6.127023010361297 " />
			<path d="M36.12270635461505,-1.4668072946271167 L36.12270635461505,7.492134964485945 " />

        </g>

        <!-- solid lines -->
        <g  stroke="rgb(0,0,0)" fill="none">
    			<path d="M-6.062704879133786,-26.321291111876192 L-6.062704879133786,-17.36234885276313 " />
			<path d="M-6.062704879133786,-17.362348852763134 L-48.021359140086986,1.69186226312398 " />
			<path d="M-48.021359140086986,-7.267079995989082 L-48.021359140086986,1.69186226312398 " />
			<path d="M-6.062704879133786,-26.321291111876192 L-48.021359140086986,-7.267079995989079 " />
			<path d="M-6.062704879133786,-26.321291111876192 L40.400441748287136,-6.127023010361313 " />
			<path d="M40.400441748287136,-6.127023010361318 L40.400441748287136,2.8319192487517437 " />
			<path d="M-6.062704879133786,-17.362348852763134 L40.400441748287136,2.8319192487517455 " />
			<path d="M-48.021359140086986,1.69186226312398 L9.164052093661844,26.546346080373063 " />
			<path d="M40.63304278937675,12.255687743457724 L9.164052093661844,26.54634608037306 " />
			<path d="M40.63304278937697,12.25568774345782 L40.369480385306396,12.138248909364322 L40.11257743913634,12.017932743360827 L39.862493050504376,11.894813757081751 L39.61938209632489,11.76896819794422 L39.38339513487397,11.640474001928135 L39.15467831254894,11.509410745310536 L38.933373273360026,11.375859595384124 L38.71961707121051,11.239903260190477 L38.513542085019324,11.101625937299058 L38.31527593673909,10.961113261663787 L38.12494141231993,10.818452252589434 L37.942656385668315,10.673731259840686 L37.76853374564798,10.52703990892725 L37.60268132616792,10.378469045598912 L37.44520183940106,10.22811067958488 L37.29619281217472,10.0760579276123 L37.155746525572425,9.922404955739177 L37.02394995778429,9.76724692103748 L36.900884730241614,9.6106799126625 L36.7866270570688,9.452800892344966 L36.73282338003989,9.373399902076418 L36.68124769788408,9.293707634342775 L36.63190799609755,9.213736427949305 L36.58481191397817,9.133498664889538 L36.53996674344277,9.05300676842814 L36.49737942789804,8.972273201177419 L36.457056561165565,8.891310463167725 L36.41900438646082,8.810131089912062 L36.383228795426604,8.728747650465216 L36.34973532722077,8.647172745477667 L36.31852916765863,8.56541900524463 L36.28961514841002,8.483499087750499 L36.262997746251216,8.401425676708998 L36.23868108237177,8.319211479599357 L36.21666892173646,8.236869225698802 L36.19696467250234,8.15441166411168 L36.17957138549103,8.071851561795498 L36.16449175371639,7.989201701584203 L36.15172811196756,7.906474880209026 L36.14128243644741,7.823683906317141 L36.13315634446665,7.7408415984884975 L36.12735109419333,7.657960783251112 L36.12386758445811,7.575054293095126 L36.12270635461505,7.492134964485976 " />
			<path d="M36.12270635461505,7.492134964485946 L36.12380450987547,7.411498957749066 L36.12709881486407,7.3308747577928495 L36.1325887872264,7.250274169669203 L36.14027362311687,7.169708994972773 L36.1501521973164,7.089191030112944 L36.162223063397235,7.008732064586607 L36.176484453934705,6.928343879251927 L36.19293428076599,6.8480382446033845 L36.211570135295915,6.76782691904833 L36.23238928884959,6.6877216471853105 L36.25538869307194,6.607734158084417 L36.28056498037408,6.527876163569906 L36.30791446442636,6.448159356505347 L36.337433140698145,6.368595409081542 L36.36911668704415,6.289195971107478 L36.40296046433728,6.2099726683045535 L36.43895951714796,6.1309371006043305 L36.4771085744696,6.052100840450068 L36.55983404541157,5.8950723849485245 L36.65108842805084,5.738979267299757 L36.75081827822099,5.583912905212355 L36.85896518800166,5.429964115063843 L36.975465819925894,5.277223058713034 L37.100251944074394,5.125779190695718 L37.23325047803517,4.975721205834592 L37.37438352970507,4.8271369872941285 L37.523568442908186,4.680113555110804 L37.680717845804395,4.534737015228824 L37.845739702059646,4.3910925090712 L38.018537364748084,4.2492641636757 L38.19900963295446,4.109335042424903 L38.387050811043544,3.9713870963991815 L38.58255077056201,3.8355011163811135 L38.785395014736416,3.7017566855394497 L38.995464745529524,3.5702321328203244 L39.21263693321572,3.441004487073016 L39.4367843884348,3.3141494319371265 L39.66777583668184,3.1897412615175984 L39.90547599518958,3.06785283687353 L40.14974565215839,2.948555543346261 L40.40044174828709,2.831919248751765 " />
			<path d="M40.63304278937697,3.296745484344757 L40.32029119184099,3.156730173621453 L40.01700440047453,3.012663834929435 " />
			<path d="M40.633042789376745,3.2967454843446617 L40.633042789376745,12.255687743457724 " />

        </g>
        </g>
    </svg>
    