<?xml version="1.0" encoding="UTF-8" standalone="no"?>
    <svg
    xmlns:svg="http://www.w3.org/2000/svg"
    xmlns="http://www.w3.org/2000/svg"
    width="330"
    height="183"
    >
        <g transform="scale(4, -4)   translate(39.9360105819399,-23.53444456414004)" stroke-width="0.25"  fill="none">
        <!-- hidden lines -->
        <g  stroke="rgb(160,160,160)" fill="none" stroke-dasharray="0.25,0.25" >
    			<path d="M19.276119532817567,8.517571557164258 L-4.027505619194107,11.945744497494896 " />
			<path d="M-4.027505619194105,11.945744497494896 L-4.027505619194105,21.03444456414004 " />
			<path d="M19.276119532817567,8.51757155716426 L19.276119532817567,14.831624963771144 " />
			<path d="M19.276119532817546,8.51757155716423 L19.20774853307217,8.433907556684058 L19.143643787011577,8.349658045152193 L19.08383408592843,8.264860861457201 L19.028346292086642,8.179554090463032 L18.977205326656804,8.093776045904017 L18.930434158523326,8.007565253177043 L18.888053793968467,7.920960432038704 L18.850083267237792,7.834000479215125 L18.81653963199137,7.746724450932332 L18.78743795364445,7.659171545374968 L18.762791302601173,7.571381085081251 L18.74261074838426,7.4833924992820915 L18.72690535466338,7.39524530619229 L18.715682175184398,7.306979095261758 L18.708946250601308,7.218633509394758 L18.70670060621236,7.130248227145149 " />
			<path d="M18.70670060621236,7.130248227145131 L18.7078079668252,7.068180426448464 L18.71112980341421,7.006126372039362 L18.71666538028519,6.944099807160968 L18.724413471462185,6.88211446896826 L18.734372360958986,6.820184085485656 L18.746539843159212,6.758322372566639 L18.76091322330474,6.696543030856072 L18.777489318092574,6.6348597427558955 L18.796264456379806,6.573286169394852 L18.817234479996714,6.511835947602929 L18.840394744667655,6.450522686891178 L18.865740121039657,6.38935996643759 L18.893264995818413,6.3283613320796865 L18.922963273011483,6.267540293314493 L18.988853245387276,6.146484840904702 L19.063351670230777,6.026300844902435 L19.146392553899016,5.907094769031451 L19.237902335502078,5.788972210735289 L19.33779995206624,5.672037807634882 L19.44599691034275,5.556395144836436 L19.56239736519863,5.4421466631716475 L19.686898204520105,5.329393568451576 L19.819389140553337,5.218235741814549 L19.9597528076017,5.1087716512475065 L20.107864865992923,5.001098264359178 L20.263594112224098,4.895310962482346 L20.426802595186885,4.791503456181303 L20.597345738370073,4.689767702239337 L20.775072467931153,4.590193822199788 L20.959825346523466,4.492870022532825 L21.151440712760433,4.397882516498678 L21.349748826193263,4.305315447776534 L21.55457401767373,4.215250815926749 L21.76573484496884,4.1277684037523965 L21.983044253489517,4.042945706624517 L22.20630974199093,3.9608578638336676 L22.435333533097683,3.8815775920285676 L22.669912748502835,3.805175120800824 L22.909839588685493,3.731718130472793 L23.154901516987813,3.6612716921436768 L23.40488144788838,3.5938982100469814 L23.659557939305095,3.5296573662703836 L23.91870538875733,3.468606067886982 L24.18209423321349,3.410798396544772 L24.449491152446996,3.3562855605589834 L24.72065927572056,3.3051158495497392 L24.99535839161563,3.257334591665202 L25.273345160821094,3.212984113428118 L25.554373331692886,3.1721037022413108 L25.8381939583934,3.134729571585346 L26.124555621417517,3.100894828939208 L26.413204650309915,3.0706294464523882 L26.70388534837638,3.043960234394371 L26.99634021919001,3.020910817405041 L27.29031019469171,3.0015016135670445 L27.5855348646829,2.9857498163186484 L27.881752707507122,2.973669379223111 L28.178701321716268,2.965271003608069 L28.47611765851611,2.9605621290858766 L28.773738254785297,2.9595469269633057 L29.07129946646139,2.9622262965464365 L29.36853770208716,2.9685978643440176 L29.66518965631031,2.9786559861699953 L29.960992543129723,2.9923917521433623 L30.25568432868167,3.0097929945808737 L30.549003963359763,3.0308442987756674 L30.840691613062965,3.055527016652217 L31.13048888936691,3.083819283285531 L31.41813907841453,3.115696036269969 L31.703387368323337,3.1511290379205072 L31.985981074907748,3.190086900286779 " />
			<path d="M-4.027505619194105,11.945744497494896 L-33.46378135517492,4.273994694609055 " />
			<path d="M-33.463781355174916,4.273994694609056 L-37.43601058193989,-10.108017104762855 " />
			<path d="M40.089312377194744,-6.546327206644406 L31.985981074907894,3.1900869002868 " />
			<path d="M-33.463781355174916,4.273994694609056 L-33.463781355174916,13.362694761254197 " />
			<path d="M31.985981074907894,3.1900869002868006 L31.985981074907894,12.278786966931943 " />
			<path d="M18.70670060621236,7.130248227145131 L18.70670060621236,16.218948293790273 " />

        </g>

        <!-- solid lines -->
        <g  stroke="rgb(0,0,0)" fill="none">
    			<path d="M19.276119532817567,17.606271623809402 L-4.027505619194107,21.03444456414004 " />
			<path d="M19.276119532817567,14.831624963771144 L19.276119532817567,17.606271623809402 " />
			<path d="M-37.4360105819399,-10.108017104762853 L-20.006464693512985,-17.413811742212886 " />
			<path d="M-3.013144786796026,-19.9136820023367 L-3.0338661764718715,-19.841076420042405 L-3.057636074558946,-19.76863350001393 L-3.0844471757257015,-19.696375506526355 L-3.114291239971161,-19.624324647020277 L-3.147159095157379,-19.552503065276696 L-3.1830406398283557,-19.480932834611426 L-3.221924846314577,-19.409635951091193 L-3.263799764122206,-19.338634326773466 L-3.3086525236058915,-19.267949782972106 L-3.356469339924068,-19.197604043550896 L-3.4072355172755255,-19.127618728247036 L-3.4609354534159475,-19.05801534602663 L-3.5175526444530387,-18.988815288474218 L-3.5770696899187477,-18.92003982321838 L-3.639468298117052,-18.85171008739546 L-3.7047292917456467,-18.78384708115334 L-3.772832613789806,-18.716471661197385 L-3.8437573336866055,-18.649604534380423 L-3.9174816537576422,-18.583266251338795 L-3.993982915908221,-18.517477200176423 L-4.073237608590992,-18.452257600198816 L-4.155221374031887,-18.387627495698965 L-4.239909015716117,-18.32360674979703 L-4.327274506131964,-18.260215038335684 L-4.417290994769946,-18.197471843833043 L-4.50993081637494,-18.135396449494984 L-4.702965775000102,-18.013325162079603 L-4.906142094322114,-17.894151231879665 L-5.119210020416242,-17.778021153116995 L-5.3419076401276735,-17.665077678367524 L-5.573961203027535,-17.55545964308307 L-5.8150854579198406,-17.44930179492824 L-6.064984003485735,-17.346734628142265 L-6.323349652633984,-17.247884223129287 L-6.589864810109854,-17.152872091474396 L-6.864201862898196,-17.06181502657585 L-7.146023582940825,-16.974824960077097 L-7.434983541673183,-16.892008824275145 L-7.730726535870676,-16.813468420674294 L-8.032889024281257,-16.739300294846966 L-8.34109957450749,-16.66959561775529 L-8.654979319588799,-16.604440073679477 L-8.974142423722617,-16.543913754890635 L-9.298196556551972,-16.488091063197587 L-9.626743375436497,-16.43704061848864 L-9.959379015113994,-16.3908251743808 L-10.295694584150691,-16.34950154108003 L-10.635276667569912,-16.31312051554749 L-10.977707835041254,-16.28172681905751 L-11.32256715400569,-16.255359042224068 L-11.669430707105727,-16.23404959756342 L-12.017872113284643,-16.217824679651063 L-12.367463051914212,-16.206704232922164 L-12.717773789306646,-16.200701927154896 L-13.06837370696353,-16.199825140666906 L-13.418831830912415,-16.20407495124555 L-13.768717361480375,-16.213446134823002 L-14.1176002028533,-16.227927171897946 L-14.46505149176998,-16.24750026169589 L-14.81064412470108,-16.2721413440507 L-15.153953282864956,-16.30182012898051 L-15.49455695443496,-16.336500133921593 L-15.832036453296315,-16.376138728574453 L-16.16597693371483,-16.420687187307 L-16.4959679002849,-16.47009074905038 L-16.8216037125298,-16.52428868461391 L-17.142484083534146,-16.583214371336222 L-17.45821457199545,-16.646795374981 L-17.768407067089996,-16.714953538776577 L-18.072680265557004,-16.787605079489904 L-18.370660140414568,-16.86466069041688 L-18.661980400731323,-16.946025651162355 L-18.946282941888537,-17.03159994407491 L-19.22321828577919,-17.121278377193278 L-19.492446010402997,-17.214950713553293 L-19.753635168329208,-17.31250180669633 L-20.00646469351274,-17.413811742212786 " />
			<path d="M-3.0131447867959977,-19.91368200233678 L21.548990867237684,-18.785241550933556 " />
			<path d="M21.548990867237677,-18.78524155093356 L40.08931237719476,-6.5463272066444045 " />
			<path d="M-4.027505619194105,21.03444456414004 L-33.46378135517492,13.362694761254197 " />
			<path d="M19.276119532817546,17.60627162380937 L19.20774853307217,17.5226076233292 L19.143643787011577,17.438358111797335 L19.08383408592843,17.35356092810234 L19.028346292086642,17.268254157108174 L18.977205326656804,17.182476112549157 L18.930434158523326,17.096265319822184 L18.888053793968467,17.009660498683846 L18.850083267237792,16.922700545860266 L18.81653963199137,16.835424517577472 L18.78743795364445,16.74787161202011 L18.762791302601173,16.66008115172639 L18.74261074838426,16.572092565927232 L18.72690535466338,16.483945372837432 L18.715682175184398,16.395679161906898 L18.708946250601308,16.3073335760399 L18.70670060621236,16.21894829379029 " />
			<path d="M18.70670060621236,16.218948293790273 L18.7078079668252,16.156880493093606 L18.71112980341421,16.094826438684503 L18.71666538028519,16.03279987380611 L18.724413471462185,15.970814535613401 L18.734372360958986,15.908884152130797 L18.746539843159212,15.847022439211779 L18.76091322330474,15.785243097501212 L18.777489318092574,15.723559809401037 L18.796264456379806,15.661986236039994 L18.817234479996714,15.60053601424807 L18.840394744667655,15.539222753536318 L18.865740121039657,15.47806003308273 L18.893264995818413,15.417061398724828 L18.922963273011483,15.356240359959633 L18.988853245387276,15.235184907549844 L19.063351670230777,15.115000911547575 L19.146392553899016,14.995794835676593 L19.237902335502078,14.87767227738043 L19.33779995206624,14.760737874280023 L19.44599691034275,14.645095211481577 L19.56239736519863,14.530846729816789 L19.686898204520105,14.418093635096717 L19.819389140553337,14.306935808459691 L19.9597528076017,14.197471717892647 L20.107864865992923,14.089798331004319 L20.263594112224098,13.984011029127487 L20.426802595186885,13.880203522826443 L20.597345738370073,13.778467768884479 L20.775072467931153,13.678893888844929 L20.959825346523466,13.581570089177966 L21.151440712760433,13.486582583143818 L21.349748826193263,13.394015514421676 L21.55457401767373,13.30395088257189 L21.76573484496884,13.216468470397537 L21.983044253489517,13.131645773269657 L22.20630974199093,13.049557930478809 L22.435333533097683,12.970277658673709 L22.669912748502835,12.893875187445966 L22.909839588685493,12.820418197117935 L23.154901516987813,12.749971758788817 L23.40488144788838,12.682598276692122 L23.659557939305095,12.618357432915525 L23.91870538875733,12.557306134532123 L24.18209423321349,12.499498463189912 L24.449491152446996,12.444985627204124 L24.72065927572056,12.39381591619488 L24.99535839161563,12.346034658310343 L25.273345160821094,12.30168418007326 L25.554373331692886,12.260803768886452 L25.8381939583934,12.223429638230487 L26.124555621417517,12.18959489558435 L26.413204650309915,12.159329513097529 L26.70388534837638,12.132660301039511 L26.99634021919001,12.109610884050182 L27.29031019469171,12.090201680212186 L27.5855348646829,12.07444988296379 L27.881752707507122,12.062369445868253 L28.178701321716268,12.05397107025321 L28.47611765851611,12.049262195731018 L28.773738254785297,12.048246993608448 L29.07129946646139,12.050926363191579 L29.36853770208716,12.057297930989158 L29.66518965631031,12.067356052815136 L29.960992543129723,12.081091818788504 L30.25568432868167,12.098493061226016 L30.549003963359763,12.119544365420808 L30.840691613062965,12.14422708329736 L31.13048888936691,12.172519349930672 L31.41813907841453,12.20439610291511 L31.703387368323337,12.239829104565649 L31.985981074907748,12.27878696693192 " />
			<path d="M-33.463781355174916,13.362694761254197 L-37.43601058193989,-1.019317038117713 " />
			<path d="M-37.4360105819399,-1.0193170381177117 L-20.006464693512985,-8.325111675567745 " />
			<path d="M-20.006464693512772,-8.325111675567658 L-19.753635168329204,-8.22380174005119 L-19.492446010402997,-8.126250646908153 L-19.223218285779186,-8.03257831054814 L-18.946282941888533,-7.942899877429767 L-18.661980400731323,-7.857325584517214 L-18.370660140414564,-7.775960623771741 L-18.072680265556997,-7.698905012844764 L-17.768407067089996,-7.626253472131435 L-17.45821457199545,-7.55809530833586 L-17.142484083534143,-7.49451430469108 L-16.8216037125298,-7.435588617968772 L-16.4959679002849,-7.381390682405243 L-16.16597693371483,-7.331987120661859 L-15.832036453296315,-7.287438661929315 L-15.494556954434962,-7.247800067276454 L-15.153953282864956,-7.213120062335369 L-14.810644124701081,-7.183441277405558 L-14.46505149176998,-7.158800195050749 L-14.1176002028533,-7.139227105252807 L-13.768717361480373,-7.124746068177862 L-13.418831830912413,-7.11537488460041 L-13.068373706963527,-7.111125074021768 L-12.717773789306644,-7.112001860509755 L-12.36746305191421,-7.118004166277023 L-12.017872113284641,-7.1291246130059225 L-11.669430707105727,-7.145349530918279 L-11.322567154005691,-7.16665897557893 L-10.977707835041254,-7.193026752412369 L-10.635276667569912,-7.224420448902351 L-10.295694584150693,-7.260801474434889 L-9.959379015113994,-7.30212510773566 L-9.626743375436497,-7.348340551843503 L-9.298196556551973,-7.399390996552446 L-8.974142423722617,-7.455213688245496 L-8.654979319588797,-7.5157400070343385 L-8.341099574507492,-7.580895551110153 L-8.032889024281257,-7.650600228201828 L-7.730726535870678,-7.724768354029155 L-7.434983541673185,-7.803308757630003 L-7.146023582940826,-7.886124893431958 L-6.864201862898193,-7.97311495993071 L-6.589864810109854,-8.064172024829258 L-6.323349652633986,-8.159184156484146 L-6.064984003485735,-8.258034561497125 L-5.815085457919837,-8.360601728283102 L-5.573961203027533,-8.46675957643793 L-5.3419076401276735,-8.576377611722386 L-5.11921002041624,-8.689321086471859 L-4.906142094322112,-8.805451165234528 L-4.7029657750001,-8.924625095434465 L-4.509930816374938,-9.046696382849845 L-4.417290994769944,-9.108771777187904 L-4.32727450613196,-9.171514971690549 L-4.2399090157161154,-9.234906683151891 L-4.155221374031884,-9.298927429053828 L-4.07323760859099,-9.363557533553678 L-3.9939829159082194,-9.428777133531284 L-3.9174816537576405,-9.494566184693657 L-3.8437573336866038,-9.560904467735286 L-3.772832613789806,-9.627771594552247 L-3.7047292917456467,-9.695147014508201 L-3.639468298117052,-9.763010020750322 L-3.5770696899187477,-9.831339756573243 L-3.5175526444530387,-9.900115221829079 L-3.4609354534159475,-9.96931527938149 L-3.4072355172755255,-10.038918661601896 L-3.356469339924068,-10.108903976905756 L-3.3086525236058897,-10.179249716326966 L-3.263799764122206,-10.249934260128327 L-3.221924846314577,-10.320935884446053 L-3.1830406398283557,-10.392232767966288 L-3.147159095157379,-10.463802998631557 L-3.114291239971161,-10.535624580375138 L-3.0844471757257015,-10.607675439881215 L-3.057636074558946,-10.67993343336879 L-3.0338661764718715,-10.752376353397263 L-3.0131447867960315,-10.824981935691543 " />
			<path d="M-3.0131447867959977,-10.82498193569164 L21.548990867237684,-9.696541484288417 " />
			<path d="M21.548990867237677,-9.696541484288417 L40.08931237719476,2.5423728600007376 " />
			<path d="M40.089312377194744,2.542372860000735 L31.985981074907894,12.278786966931941 " />
			<path d="M40.089312377194744,-6.546327206644406 L40.089312377194744,2.542372860000736 " />
			<path d="M21.548990867237677,-18.78524155093356 L21.548990867237677,-9.696541484288417 " />
			<path d="M-3.0131447867960066,-19.91368200233678 L-3.0131447867960066,-10.824981935691639 " />
			<path d="M-20.006464693512985,-17.413811742212886 L-20.006464693512985,-8.325111675567745 " />
			<path d="M-37.4360105819399,-10.108017104762853 L-37.4360105819399,-1.0193170381177108 " />

        </g>
        </g>
    </svg>
    