<?xml version="1.0" encoding="UTF-8" standalone="no"?>
    <svg
    xmlns:svg="http://www.w3.org/2000/svg"
    xmlns="http://www.w3.org/2000/svg"
    width="472"
    height="308"
    >
        <g transform="scale(4, -4)   translate(59.06854249518433,-40.79246810664993)" stroke-width="0.25"  fill="none">
        <!-- hidden lines -->
        <g  stroke="rgb(160,160,160)" fill="none" stroke-dasharray="0.25,0.25" >
    			<path d="M-18.602825418194,13.91254892756443 L-3.6473579712037463e-10,21.508431829657113 " />
			<path d="M19.422904397226304,13.577695282500343 L-3.6474290254773223e-10,21.508431829657113 " />
			<path d="M18.856180831346002,6.109766480693659 L18.473207240991634,6.26302837272674 L18.08276355246252,6.413114873958842 L17.685007651319463,6.559965293201681 L17.280100379997258,6.703520247856745 L16.86820547276407,6.84372168792813 L16.44948948951146,6.980512919496481 L16.024121748401743,7.113838627644584 L15.592274257400016,7.2436448988253135 L15.154121644718492,7.369879242662921 L14.70984108820125,7.4924906131788065 L14.259612243678005,7.611429429433229 L13.803617172315805,7.726647595574577 L13.342040266998133,7.838098520288127 L12.875068177761063,7.945737135636379 L12.4028897363167,8.049519915283408 L11.925695879694407,8.14940489209581 L11.443679573030714,8.245351675113131 L10.957035731539078,8.33732146588098 L10.465961141691094,8.425277074140123 L9.970654381641015,8.509182932865293 L9.471315740925794,8.589005112647598 L8.968147139473027,8.664711335414701 L8.461352045949639,8.73627098748328 L7.951135395484303,8.803655131938417 L7.437703506796866,8.866836520334935 L6.921263998768258,8.925789603716026 L6.4020257064846575,8.980490542944558 L5.880198596789864,9.030917218343053 L5.355993683380032,9.077049238638299 L4.829622941475047,9.118867949207083 L4.301299222101092,9.15635643961965 L3.771236166019149,9.189499550477837 " />
			<path d="M3.7712361660190905,9.18949955047784 L3.158328549636298,9.222296115842376 L2.543723842488732,9.249283053935454 L1.9277522951997814,9.270445863642738 L1.3107448928483538,9.285773173376903 L0.6930331771178948,9.295256747188017 L0.07494906814637567,9.298891489189042 L-0.543175313827079,9.296675446294035 L-1.1610078269231376,9.28860980926763 L-1.7782164860947771,9.274698912085185 L-2.3944696415155557,9.25495022960397 L-3.0094361567877543,9.229374373546658 L-3.6227855868746324,9.197985086799218 L-4.2341883556611855,9.160799236026335 L-4.843315933048003,9.117836802608341 L-5.44984101148307,9.06912087190441 L-6.0534376818366065,9.01467762084794 L-6.653781608524552,8.95453630388068 L-7.2505502037864655,8.888729237233182 L-7.843422801024251,8.817291781560083 L-8.432080827108624,8.740262322939447 L-9.016207973560629,8.657682252246477 L-9.595490366516275,8.569595942912596 L-10.169616735382984,8.476050727081915 L-10.73827858009719,8.377096870177855 L-11.30117033689321,8.272787543893628 L-11.857989542494384,8.163178797621018 L-12.408436996638113,8.048329528332943 L-12.95221692284764,7.928301448935824 L-13.489037127364064,7.803159055108888 L-14.018609156153216,7.672969590648182 L-14.540648449903067,7.537803011333895 L-15.054874496928326,7.3977319473404455 L-15.561010983900074,7.252831664209517 L-16.058785944319503,7.103180022406998 L-16.54793190465596,6.948857435485569 L-17.028186028070657,6.789946826875428 L-17.499290255648972,6.626533585326366 L-17.960991445065375,6.458705519025119 L-18.413041506606515,6.286552808412666 L-18.855197536479295,6.110167957726827 L-19.287221947332345,5.929645745296211 L-19.708882595920823,5.745083172612185 L-20.11995290784589,5.556579412206251 L-20.321447435814946,5.460881158576779 L-20.520211999301754,5.3642357543608625 L-20.7162198964584,5.266656182812855 L-20.909444795765,5.168155552682286 L-21.09986073956701,5.068747096452845 L-21.287442147562388,4.968444168564742 L-21.472163820238,4.86726024362068 L-21.654000942254935,4.765208914575699 L-21.83292908578213,4.6623038909111045 L-22.008924213778034,4.558558996792737 L-22.181962683219666,4.453988169213873 L-22.35202124827884,4.348605456122923 L-22.519077063444975,4.24242501453624 L-22.68310768659413,4.135461108636294 L-22.844091082003864,4.0277281078554275 L-23.002005623313508,3.919240484945478 L-23.156830096429406,3.810012814033519 L-23.308543702374816,3.700059768663996 L-23.45712606008402,3.5893961198274837 L-23.602557209140297,3.4780367339763725 L-23.74481761245737,3.3659965710277246 L-23.883888158904053,3.2532906823535566 L-24.01975016587155,3.139934208758877 L-24.152385381783304,3.025942378447671 L-24.281775988546908,2.9113305049771467 L-24.407904603947735,2.7961139852005497 L-24.530754283984063,2.6803082971987475 L-24.650308525143323,2.5639289982009226 L-24.766551266619164,2.4469917224946354 L-24.879466892469047,2.3295121793255062 L-24.989040233712068,2.2115061507868807 L-25.095256570366743,2.0929894896996624 L-25.198101633428507,1.9739781174826452 L-25.297561606786555,1.8544880220136748 L-25.393623129079916,1.7345352554818305 L-25.486273295492396,1.6141359322309956 L-25.57549965948619,1.4933062265950756 L-25.661290234473974,1.372062370725133 L-25.743633495429115,1.2504206524088053 L-25.82251838043398,1.1283974128822032 L-25.89793429216597,1.0060090446346308 L-25.96987109932112,0.8832719892065084 " />
			<path d="M26.080874835436447,0.6801529330626677 L25.97671040160665,0.8712660158678176 L25.864147053763702,1.0615834506555655 L25.743221186426574,1.2510437030843704 L25.613971897923964,1.4395855159609834 L25.476440977752834,1.6271479290464157 L25.33067289306683,1.8136702987658944 L25.176714774298947,1.9990923178164333 L25.01461639992311,2.1833540346656766 L24.844430180359527,2.3663958729357146 L24.666211141029137,2.5481586506656058 L24.480016904562508,2.728583599446365 L24.285907672169017,2.9076123834222516 L24.083946204172307,3.0851871181521933 L23.874197799718317,3.261250389325263 L23.65673027566247,3.4357452713241443 L23.431613944642766,3.6086153456305965 L23.198921592346004,3.7798047190669593 L22.958728453974338,3.9492580418677967 L22.71111218991989,4.116920525575858 L22.456152860655198,4.282737960756535 L22.19393290084772,4.446656734525114 L21.92453709270663,4.608623847881152 L21.648052538570635,4.768586932844374 L21.364568632745645,4.926494269386529 L21.074177032601373,5.082294802153754 L20.776971628936227,5.235938156974046 L20.473048515620107,5.387374657144471 L20.16250595852485,5.536555339492875 L19.845444363752474,5.6834319702088925 L19.521966245171363,5.827957060439128 L19.19217619127102,5.970083881641485 L18.85618083134603,6.109766480693649 " />
			<path d="M-56.568542495184325,-10.717960232694274 L-3.6473579712037463e-10,12.380037790814733 " />
			<path d="M-3.6473579712037463e-10,12.380037790814729 L-3.6473579712037463e-10,21.508431829657113 " />
			<path d="M56.56854249466327,-10.717960232609173 L-3.6474290254773223e-10,12.380037790814733 " />
			<path d="M3.771236166019099,9.189499550477843 L1.1785113017018545,38.292468006649926 " />

        </g>

        <!-- solid lines -->
        <g  stroke="rgb(0,0,0)" fill="none">
    			<path d="M-1.5631940186722204e-10,-33.81595825611818 L-1.5631940186722204e-10,-24.6875642172758 " />
			<path d="M-1.5631940186722204e-10,-24.687564217275796 L-56.56854249518433,-1.5895661938518906 " />
			<path d="M-56.568542495184325,-10.717960232694274 L-56.568542495184325,-1.5895661938518924 " />
			<path d="M-1.5631940186722204e-10,-33.81595825611818 L-56.56854249518433,-10.717960232694274 " />
			<path d="M-1.5631940186722204e-10,-33.81595825611818 L56.56854249466327,-10.717960232609173 " />
			<path d="M56.56854249466327,-10.717960232609173 L56.56854249466327,-1.5895661937667906 " />
			<path d="M-1.5631940186722204e-10,-24.687564217275796 L56.56854249466327,-1.5895661937667889 " />
			<path d="M-56.568542495184325,-1.5895661938518932 L-18.602825418194,13.91254892756443 " />
			<path d="M56.56854249466327,-1.5895661937667915 L19.422904397226304,13.577695282500343 " />
			<path d="M-25.969871099321146,0.8832719892064609 L-26.038337893170812,0.7601680843256227 L-26.1033047533331,0.6367483407691261 L-26.164762947311196,0.5130293479567696 L-26.222704214224386,0.389027735531831 L-26.277120765918415,0.2647601711258012 L-26.32800528801235,0.14024335811800825 L-26.375350940881706,0.015494033390440975 L-26.419151360577843,-0.10947103492193411 L-26.45940065968332,-0.23463504968505533 L-26.49609342810328,-0.3599811870235463 L-26.529224733792653,-0.4854925985820915 L-26.558790123419065,-0.6111524137901004 L-26.584785622961466,-0.7369437421293612 L-26.607207738244256,-0.8628496754043721 L-26.626053455407003,-0.9888532900150504 L-26.641320241309508,-1.1149376492315175 L-26.65300604387231,-1.2410858054706286 L-26.661109292352524,-1.367280802573985 L-26.665628897554964,-1.4935056780870999 L-26.66656425197854,-1.6197434655393865 L-26.663915229897935,-1.7459771967247042 L-26.65768218738048,-1.872189903982134 L-26.647865962238313,-1.9983646224766805 L-26.63446787391576,-2.124484392479594 L-26.617489723311966,-2.2505322616480066 L-26.596933792538852,-2.3764912873035744 L-26.572802844614355,-2.5023445387098224 L-26.545100123091036,-2.6280750993478814 L-26.5138293516201,-2.7536660691903188 L-26.47899473345088,-2.879100566972747 L-26.440600950865875,-3.004361732462913 L-26.398653164551373,-3.129432728726913 " />
			<path d="M-26.398653164551355,-3.129432728726961 L-26.3594007347277,-3.2377333895708063 L-26.317483468669668,-3.3458674269125543 L-26.272905604055136,-3.4538239088078946 L-26.22567164753849,-3.5615919212627034 L-26.17578637429501,-3.6691605693364107 L-26.123254827538126,-3.7765189782434336 L-26.068082318009562,-3.8836562944525737 L-26.010274423442432,-3.990561686784287 L-25.949836987997372,-4.0972243475056445 L-25.886776121671705,-4.2036334934229735 L-25.82109819968174,-4.309778366972006 L-25.752809861818275,-4.4156482373054 L-25.68191801177532,-4.521232401377613 L-25.608429816452183,-4.626520185026928 L-25.532352705228902,-4.731500944054574 L-25.453694369215174,-4.836164065300812 L-25.37246276047281,-4.940498967717891 L-25.288666091211812,-5.044495103439748 L-25.202312832960153,-5.148141958848355 L-25.113411715707322,-5.251429055636613 L-25.02197172702178,-5.354345951867666 L-24.928002111142327,-5.456882243030538 L-24.831512368043562,-5.559027563091991 L-24.732512252475455,-5.66077158554451 L-24.6310117729772,-5.762104024450241 L-24.527021190865362,-5.863014635480879 L-24.420551019196516,-5.9634932169533466 L-24.311612021704416,-6.06352961086111 L-24.086371851017063,-6.262235428496336 L-23.851391760236318,-6.45905173677537 L-23.606766769372744,-6.653898948156861 L-23.35259579859077,-6.846698271352479 L-23.088981628207858,-7.037371743188126 L-22.81603085713277,-7.225842260130269 L-22.533853859759617,-7.412033609464671 L-22.242564741335283,-7.595870500114877 L-21.942281291818144,-7.7772785930880195 L-21.633124938246766,-7.956184531535636 L-21.315220695637883,-8.132515970417323 L-20.988697116433507,-8.306201605755243 L-20.653686238517533,-8.477171203467648 L-20.31032353182299,-8.645355627769764 L-19.958747843551393,-8.810686869130574 L-19.599101342026454,-8.973098071774134 L-19.231529459204822,-9.13252356071436 L-18.856180831867064,-9.28889886831234 L-18.47320724151269,-9.442160760345423 L-18.082763552983586,-9.592247261577523 L-17.685007651840536,-9.739097680820358 L-17.280100380518327,-9.882652635475424 L-16.868205473285144,-10.02285407554681 L-16.449489490032526,-10.159645307115163 L-16.02412174892281,-10.292971015263266 L-15.59227425792108,-10.422777286443996 L-15.154121645239556,-10.549011630281605 L-14.709841088722314,-10.671623000797492 L-14.259612244199063,-10.790561817051913 L-13.803617172836862,-10.90577998319326 L-13.342040267519192,-11.01723090790681 L-12.875068178282115,-11.124869523255065 L-12.402889736837768,-11.228652302902091 L-11.925695880215475,-11.328537279714492 L-11.443679573551782,-11.424484062731814 L-10.957035732060163,-11.516453853499659 L-10.465961142212173,-11.604409461758802 L-9.970654382162097,-11.688315320483973 L-9.471315741446876,-11.768137500266278 L-8.968147139994102,-11.843843723033384 L-8.461352046470708,-11.915403375101967 L-7.9511353960053714,-11.982787519557096 L-7.437703507317934,-12.045968907953618 L-6.921263999289322,-12.10492199133471 L-6.402025707005715,-12.159622930563245 L-5.880198597310923,-12.210049605961736 L-5.355993683901091,-12.256181626256982 L-4.8296229419960985,-12.298000336825769 L-4.301299222622162,-12.335488827238333 L-3.7712361665403953,-12.36863193809651 " />
			<path d="M-3.7712361665401604,-12.368631938096524 L-3.388363943662898,-12.389810855906159 L-3.00478041138829,-12.408722509735348 L-2.620566094292741,-12.42536292951555 L-2.235801649371456,-12.439728621971796 L-1.8505678491063753,-12.451816571356009 L-1.4649455645098672,-12.461624240080095 L-1.07901574814764,-12.469149569248657 L-0.6928594171446508,-12.474390979091208 L-0.3065576361774653,-12.47734736929381 L0.07980849954348662,-12.478018119230061 L0.4661578812979683,-12.47640308809137 L0.8524094038828309,-12.472502614916536 L1.2384819826382645,-12.466317518520558 L1.6242945704696168,-12.45784909732275 L2.009766174861327,-12.447099129074168 L2.3948158748795225,-12.434069870484414 L2.779362838159488,-12.418764056747879 L3.1633263378745484,-12.401184900969575 L3.546625769682886,-12.381336093490592 L3.9291806686485296,-12.359221801113414 L4.310910726133078,-12.334846666227179 L4.691735806654726,-12.308215805833129 L5.071575964710855,-12.279334810470413 L5.450351461560737,-12.248209743042466 L5.827982781964918,-12.214847137544258 L6.204390650877587,-12.17925399769062 L6.579496050088498,-12.141437795445977 L6.953220234811112,-12.101406469455792 L7.325484750213232,-12.059168423380012 L7.696211447886777,-12.014732524128927 L8.065322502253323,-11.968108100001746 L8.432740426901747,-11.919304938728356 L8.798388090854681,-11.868333285414597 L9.162188734760448,-11.815203840391547 L9.524065987006962,-11.759927756969226 L9.883943879754161,-11.702516639095212 L10.24174686488167,-11.642982538918663 L10.59739982984846,-11.581337954260253 L10.950828113460993,-11.517595825988515 L11.301957521546594,-11.451769535303239 L11.650714342528902,-11.383872900926352 L11.997025362901864,-11.313920176201023 L12.3408178825992,-11.241926046099504 L12.682019730256183,-11.167905624140335 L13.02055927836034,-11.091874449215627 L13.356365458287987,-11.013848482329017 L13.68936777522352,-10.933844103245015 L14.01949632295814,-10.851878107050453 L14.346681798565035,-10.767967700628752 L14.670855516947988,-10.682130499047723 L14.991949425260229,-10.594384521861684 L15.30989611719054,-10.504748189328673 L15.624628847113744,-10.413240318543526 L15.936081544102356,-10.31988011948766 L16.24418882579665,-10.224687190996399 L16.548886012130218,-10.127681516644625 L16.850109138908074,-10.028883460551697 L17.14779497123443,-9.928313763106466 L17.441881016787494,-9.82599353661329 L17.732305538938245,-9.721944260860003 L18.019007569710592,-9.61618777860875 L18.301926922580265,-9.508746291010556 L18.581004205109572,-9.399642352944731 L18.85618083141547,-9.28889886828398 L19.12739903446838,-9.176539085086254 L19.394601878219003,-9.06258659071436 L19.65773326955073,-8.947065306884344 L19.916737970055134,-8.829999484643656 L20.171561607628018,-8.711413699280211 L20.422150687883544,-8.591332845163375 L20.66845260538424,-8.469782130517931 L20.910415654684225,-8.346787072132217 L21.14798904118361,-8.222373490001473 L21.381122891791662,-8.09656750190749 L21.60976826539652,-7.969395517935812 L21.83387716313926,-7.84088423493152 L22.05340253849015,-7.711060630894848 L22.26829830712503,-7.57995195931776 L22.47851935659958,-7.447585743462737 L22.6840215558197,-7.3139897705848655 L22.88476176430583,-7.1791920860985545 L23.080697841249258,-7.043220987690044 L23.271788654358687,-6.906105019376933 L23.457994088494967,-6.767872965516033 L23.639275054092344,-6.62855384476077 L23.815593495364443,-6.488176903969354 L23.986912398293207,-6.346771612065083 L24.153195798399114,-6.204367653850023 L24.314408788291153,-6.060994923773343 L24.47051752499479,-5.91668351965567 L24.621489237056515,-5.771463736370765 L24.76729223142348,-5.6253660594857795 L24.90789590009672,-5.478421158861516 L25.043270726556614,-5.330659882214004 L25.173388291959196,-5.182113248638702 L25.29822128110204,-5.032812442098768 L25.417743488158447,-4.882788804878716 L25.53192982217877,-4.7320738310048025 L25.6407563123577,-4.5806991596335624 L25.744200113066363,-4.4286965684099115 L25.84223950864824,-4.27609796679617 L25.93485391797789,-4.1229353893733816 L26.02202389878146,-3.9692409891163893 L26.10373115171815,-3.8150470306440725 L26.17995852422178,-3.660385883446093 L26.25069001410153,-3.5052900150876853 L26.315910772901237,-3.349791984393853 L26.37560710901652,-3.19392443461436 L26.429766490568994,-3.0377200865710394 L26.47837754803705,-2.881211731788814 L26.52143007664264,-2.7244322256118387 L26.55891503849354,-2.5674144803062933 L26.590824564480616,-2.4101914581512247 L26.617151955929796,-2.252796164518843 L26.637891686008288,-2.095261640945808 L26.653039400884822,-1.9376209581969266 L26.66259192064363,-1.7799072093226742 L26.666547239951992,-1.6221535027120852 L26.664904528481216,-1.464392955142425 L26.657664131080953,-1.3066586848270514 L26.644827567706784,-1.1489838044630152 L26.626397533101173,-0.9914014142798167 L26.60237789622772,-0.8339445950907418 L26.57277369945901,-0.676646401348323 L26.537591157518044,-0.5195398542053324 L26.496837656173636,-0.3626579345827188 L26.450521750689898,-0.20603357624602858 L26.398653164030335,-0.04969965889182104 " />
			<path d="M26.3986531640303,-0.0496996588917229 L26.33063169552289,0.1335654362690164 L26.254979834934712,0.3163311826068267 L26.171719505528554,0.49854461617007884 L26.08087483543645,0.6801529330626646 " />
			<path d="M4.714045207641105,36.848843130185934 L1.178511301701854,38.292468006649926 " />
			<path d="M-26.398653164551355,-3.1294327287269628 L-13.921219877417798,22.701364305214927 " />
			<path d="M-13.921219877417798,22.701364305214927 L-8.24957911410141,34.44280166939843 " />
			<path d="M-8.24957911410141,34.44280166939842 L1.1785113017018545,38.292468006649926 " />
			<path d="M-3.7712361665401524,-12.368631938096524 L-1.1785113022229088,31.555551916470435 " />
			<path d="M-1.1785113022229092,31.555551916470435 L-8.249579114101412,34.44280166939842 " />
			<path d="M26.3986531640303,-0.049699658891723786 L21.1958829461218,10.114113132955023 " />
			<path d="M21.1958829461218,10.114113132955023 L8.249579113580355,35.405218253721934 " />
			<path d="M-1.1785113022229097,31.55555191647044 L8.249579113580355,35.40521825372194 " />
			<path d="M8.249579113580356,35.40521825372194 L4.714045207641105,36.848843130185934 " />
			<path d="M-25.969871090709066,0.8832719858395395 L-24.57569861333708,3.3273182142396855 L-23.188781807848656,5.765522475384408 L-21.811388079446786,8.195886058528288 L-20.44686504292878,10.615350385986664 L-19.525059423944363,12.258756004720782 L-18.613961509912368,13.892510659387007 L-17.71700423560663,15.513056827861563 L-17.27535710720864,16.316715788222158 L-16.839288243540864,17.114828216597655 L-16.43551227224492,17.858740661683797 L-16.03894827440706,18.59492357782016 L-15.650766294373883,19.322014981343134 L-15.272727220751143,20.03776129944981 L-14.907242117937088,20.73884497133074 L-14.557431557655836,21.420712049302722 L-14.22718495049075,22.07739979994158 L-13.921219877417816,22.701364305214895 " />
			<path d="M26.080874871076084,0.680152902442388 L24.845230405397366,3.0510212094064717 L23.61744326551829,5.415288529279957 L22.399858536106176,7.770759735586776 L21.19588294612181,10.114113132955001 " />

        </g>
        </g>
    </svg>
    