<?xml version="1.0" encoding="UTF-8" standalone="no"?>
    <svg
    xmlns:svg="http://www.w3.org/2000/svg"
    xmlns="http://www.w3.org/2000/svg"
    width="472"
    height="308"
    >
        <g transform="scale(4, -4)   translate(59.06854249518433,-40.79246810664993)" stroke-width="0.25"  fill="none">
        <!-- hidden lines -->
        <g  stroke="rgb(160,160,160)" fill="none" stroke-dasharray="0.25,0.25" >
    			<path d="M-18.602825418194016,13.912548927564423 L-3.647350387681216e-10,21.508431829657113 " />
			<path d="M19.422904397226294,13.577695282500347 L-3.6474595221788206e-10,21.508431829657113 " />
			<path d="M18.856180831346002,6.109766480693657 L18.473207240991634,6.263028372726739 L18.08276355246252,6.4131148739588415 L17.685007651319463,6.559965293201676 L17.280100379997258,6.703520247856741 L16.86820547276407,6.843721687928127 L16.449489489511464,6.98051291949648 L16.024121748401743,7.113838627644581 L15.592274257400016,7.243644898825311 L15.154121644718495,7.369879242662918 L14.709841088201252,7.492490613178804 L14.259612243678005,7.611429429433226 L13.803617172315805,7.726647595574574 L13.342040266998133,7.838098520288122 L12.875068177761065,7.945737135636376 L12.4028897363167,8.049519915283406 L11.925695879694407,8.149404892095808 L11.443679573030714,8.24535167511313 L10.957035731539078,8.337321465880976 L10.465961141691094,8.42527707414012 L9.970654381641015,8.509182932865292 L9.471315740925794,8.589005112647595 L8.968147139473027,8.6647113354147 L8.461352045949639,8.736270987483278 L7.951135395484302,8.803655131938413 L7.437703506796865,8.866836520334934 L6.921263998768257,8.925789603716023 L6.4020257064846575,8.980490542944557 L5.880198596789864,9.030917218343049 L5.3559936833800315,9.077049238638295 L4.829622941475046,9.11886794920708 L4.3012992221010915,9.156356439619646 L3.7712361660191487,9.189499550477834 " />
			<path d="M3.77123616601909,9.189499550477837 L3.158328549636297,9.222296115842374 L2.5437238424887316,9.24928305393545 L1.927752295199781,9.270445863642735 L1.3107448928483534,9.2857731733769 L0.6930331771178944,9.295256747188015 L0.0749490681463752,9.29889148918904 L-0.5431753138270794,9.296675446294032 L-1.161007826923138,9.288609809267628 L-1.7782164860947776,9.274698912085181 L-2.394469641515556,9.254950229603969 L-3.0094361567877552,9.229374373546657 L-3.622785586874633,9.197985086799214 L-4.2341883556611855,9.160799236026334 L-4.843315933048004,9.11783680260834 L-5.4498410114830715,9.069120871904408 L-6.053437681836607,9.014677620847939 L-6.653781608524552,8.954536303880676 L-7.2505502037864655,8.888729237233179 L-7.843422801024252,8.81729178156008 L-8.432080827108624,8.740262322939445 L-9.016207973560629,8.657682252246476 L-9.595490366516275,8.569595942912594 L-10.169616735382984,8.476050727081912 L-10.73827858009719,8.377096870177853 L-11.301170336893211,8.272787543893624 L-11.857989542494384,8.163178797621017 L-12.408436996638113,8.048329528332943 L-12.952216922847638,7.928301448935821 L-13.489037127364064,7.803159055108885 L-14.018609156153213,7.672969590648181 L-14.540648449903065,7.537803011333894 L-15.054874496928324,7.397731947340445 L-15.56101098390007,7.2528316642095145 L-16.058785944319503,7.103180022406997 L-16.547931904655957,6.948857435485568 L-17.028186028070657,6.7899468268754255 L-17.499290255648972,6.626533585326364 L-17.960991445065375,6.458705519025116 L-18.413041506606515,6.286552808412663 L-18.85519753647929,6.110167957726825 L-19.287221947332345,5.929645745296209 L-19.708882595920823,5.7450831726121825 L-20.11995290784589,5.556579412206249 L-20.321447435814946,5.460881158576776 L-20.520211999301754,5.364235754360861 L-20.7162198964584,5.266656182812852 L-20.909444795765,5.168155552682284 L-21.09986073956701,5.068747096452843 L-21.287442147562384,4.96844416856474 L-21.472163820238002,4.867260243620678 L-21.654000942254935,4.765208914575697 L-21.83292908578213,4.662303890911103 L-22.008924213778034,4.558558996792735 L-22.18196268321967,4.453988169213871 L-22.35202124827884,4.348605456122921 L-22.519077063444975,4.242425014536238 L-22.68310768659413,4.135461108636292 L-22.844091082003864,4.027728107855426 L-23.002005623313508,3.919240484945476 L-23.156830096429406,3.8100128140335174 L-23.308543702374816,3.700059768663994 L-23.45712606008402,3.589396119827482 L-23.602557209140297,3.4780367339763707 L-23.74481761245737,3.365996571027723 L-23.883888158904053,3.253290682353555 L-24.01975016587155,3.1399342087588753 L-24.152385381783304,3.0259423784476693 L-24.28177598854691,2.911330504977146 L-24.407904603947735,2.796113985200548 L-24.530754283984063,2.6803082971987457 L-24.650308525143323,2.5639289982009217 L-24.766551266619164,2.4469917224946336 L-24.879466892469047,2.329512179325505 L-24.989040233712068,2.2115061507868794 L-25.095256570366743,2.092989489699661 L-25.198101633428507,1.9739781174826438 L-25.297561606786555,1.8544880220136735 L-25.39362312907992,1.7345352554818292 L-25.486273295492396,1.6141359322309943 L-25.57549965948619,1.4933062265950743 L-25.661290234473974,1.3720623707251316 L-25.743633495429115,1.250420652408804 L-25.82251838043398,1.1283974128822019 L-25.89793429216597,1.0060090446346295 L-25.96987109932112,0.8832719892065066 " />
			<path d="M26.080874835436447,0.6801529330626663 L25.97671040160665,0.8712660158678163 L25.864147053763702,1.0615834506555641 L25.743221186426574,1.251043703084369 L25.613971897923964,1.439585515960982 L25.476440977752834,1.6271479290464144 L25.33067289306683,1.813670298765893 L25.176714774298947,1.999092317816432 L25.014616399923106,2.183354034665675 L24.844430180359527,2.3663958729357133 L24.666211141029137,2.548158650665604 L24.480016904562508,2.728583599446363 L24.285907672169017,2.90761238342225 L24.083946204172307,3.0851871181521915 L23.874197799718317,3.2612503893252613 L23.65673027566247,3.4357452713241425 L23.431613944642766,3.6086153456305947 L23.198921592346007,3.7798047190669575 L22.958728453974338,3.949258041867795 L22.71111218991989,4.116920525575856 L22.456152860655198,4.282737960756533 L22.19393290084772,4.446656734525112 L21.92453709270663,4.60862384788115 L21.648052538570635,4.768586932844372 L21.364568632745645,4.926494269386527 L21.074177032601373,5.082294802153752 L20.77697162893623,5.235938156974044 L20.473048515620107,5.387374657144469 L20.16250595852485,5.536555339492873 L19.845444363752474,5.683431970208891 L19.521966245171363,5.827957060439126 L19.19217619127102,5.970083881641483 L18.85618083134603,6.109766480693646 " />
			<path d="M-56.568542495184325,-10.717960232694276 L-3.647350387681216e-10,12.380037790814729 " />
			<path d="M-3.647371293880042e-10,12.380037790814729 L-3.647371293880042e-10,21.508431829657113 " />
			<path d="M56.56854249466327,-10.717960232609174 L-3.6474595221788206e-10,12.380037790814733 " />
			<path d="M3.771236166019098,9.18949955047784 L1.178511301701854,38.292468006649926 " />

        </g>

        <!-- solid lines -->
        <g  stroke="rgb(0,0,0)" fill="none">
    			<path d="M-1.563189577780122e-10,-33.81595825611818 L-1.563189577780122e-10,-24.6875642172758 " />
			<path d="M-1.563189577780122e-10,-24.687564217275796 L-56.56854249518433,-1.5895661938518897 " />
			<path d="M-56.568542495184325,-10.717960232694276 L-56.568542495184325,-1.5895661938518941 " />
			<path d="M-1.563189577780122e-10,-33.81595825611818 L-56.56854249518433,-10.717960232694272 " />
			<path d="M-1.563189577780122e-10,-33.81595825611818 L56.56854249466327,-10.717960232609174 " />
			<path d="M56.56854249466327,-10.717960232609174 L56.56854249466327,-1.5895661937667924 " />
			<path d="M-1.563189577780122e-10,-24.687564217275796 L56.56854249466327,-1.58956619376679 " />
			<path d="M-56.568542495184325,-1.5895661938518941 L-18.602825418194016,13.912548927564423 " />
			<path d="M56.56854249466327,-1.5895661937667924 L19.422904397226294,13.577695282500347 " />
			<path d="M-25.969871099321146,0.8832719892064596 L-26.038337893170812,0.7601680843256213 L-26.1033047533331,0.6367483407691248 L-26.164762947311196,0.5130293479567682 L-26.222704214224386,0.3890277355318297 L-26.277120765918415,0.26476017112579986 L-26.32800528801235,0.14024335811800714 L-26.375350940881706,0.015494033390439865 L-26.419151360577843,-0.10947103492193544 L-26.45940065968332,-0.23463504968505644 L-26.49609342810328,-0.3599811870235474 L-26.529224733792653,-0.48549259858209237 L-26.558790123419065,-0.6111524137901015 L-26.584785622961466,-0.7369437421293622 L-26.607207738244256,-0.862849675404373 L-26.626053455407003,-0.9888532900150514 L-26.641320241309508,-1.1149376492315186 L-26.65300604387231,-1.2410858054706297 L-26.661109292352524,-1.367280802573986 L-26.665628897554964,-1.493505678087101 L-26.66656425197854,-1.6197434655393874 L-26.663915229897935,-1.745977196724705 L-26.65768218738048,-1.8721899039821348 L-26.647865962238313,-1.9983646224766813 L-26.63446787391576,-2.124484392479595 L-26.617489723311966,-2.2505322616480075 L-26.596933792538852,-2.3764912873035753 L-26.572802844614355,-2.502344538709823 L-26.545100123091036,-2.628075099347882 L-26.5138293516201,-2.753666069190319 L-26.47899473345088,-2.8791005669727476 L-26.440600950865875,-3.0043617324629137 L-26.398653164551373,-3.129432728726914 " />
			<path d="M-26.398653164551355,-3.129432728726962 L-26.3594007347277,-3.237733389570807 L-26.317483468669668,-3.3458674269125552 L-26.272905604055136,-3.453823908807895 L-26.22567164753849,-3.5615919212627043 L-26.17578637429501,-3.6691605693364115 L-26.123254827538126,-3.7765189782434345 L-26.068082318009562,-3.8836562944525745 L-26.010274423442432,-3.9905616867842877 L-25.949836987997372,-4.097224347505645 L-25.886776121671705,-4.203633493422974 L-25.82109819968174,-4.309778366972006 L-25.752809861818275,-4.415648237305401 L-25.68191801177532,-4.521232401377614 L-25.608429816452183,-4.626520185026929 L-25.532352705228902,-4.731500944054574 L-25.453694369215174,-4.836164065300812 L-25.37246276047281,-4.940498967717891 L-25.288666091211812,-5.044495103439748 L-25.202312832960153,-5.148141958848355 L-25.113411715707322,-5.251429055636613 L-25.02197172702178,-5.354345951867666 L-24.928002111142327,-5.456882243030538 L-24.831512368043562,-5.559027563091991 L-24.732512252475455,-5.66077158554451 L-24.6310117729772,-5.762104024450242 L-24.527021190865362,-5.86301463548088 L-24.420551019196516,-5.9634932169533466 L-24.311612021704416,-6.06352961086111 L-24.086371851017063,-6.262235428496337 L-23.851391760236318,-6.459051736775371 L-23.606766769372744,-6.653898948156861 L-23.35259579859077,-6.846698271352479 L-23.088981628207858,-7.037371743188126 L-22.816030857132766,-7.225842260130269 L-22.533853859759617,-7.412033609464672 L-22.242564741335283,-7.595870500114877 L-21.942281291818144,-7.77727859308802 L-21.633124938246766,-7.956184531535636 L-21.315220695637883,-8.132515970417323 L-20.988697116433507,-8.306201605755245 L-20.653686238517533,-8.477171203467648 L-20.31032353182299,-8.645355627769765 L-19.958747843551393,-8.810686869130574 L-19.59910134202645,-8.973098071774134 L-19.231529459204822,-9.13252356071436 L-18.856180831867068,-9.28889886831234 L-18.47320724151269,-9.442160760345423 L-18.082763552983586,-9.592247261577523 L-17.685007651840536,-9.739097680820358 L-17.28010038051833,-9.882652635475424 L-16.868205473285144,-10.02285407554681 L-16.44948949003253,-10.159645307115163 L-16.02412174892281,-10.292971015263264 L-15.59227425792108,-10.422777286443994 L-15.154121645239556,-10.549011630281601 L-14.709841088722314,-10.67162300079749 L-14.259612244199063,-10.79056181705191 L-13.803617172836862,-10.90577998319326 L-13.342040267519192,-11.017230907906809 L-12.875068178282117,-11.124869523255063 L-12.402889736837768,-11.228652302902091 L-11.925695880215475,-11.32853727971449 L-11.443679573551782,-11.424484062731812 L-10.957035732060163,-11.516453853499657 L-10.465961142212173,-11.6044094617588 L-9.970654382162097,-11.688315320483973 L-9.471315741446874,-11.768137500266278 L-8.968147139994102,-11.843843723033382 L-8.461352046470708,-11.915403375101965 L-7.9511353960053714,-11.982787519557096 L-7.437703507317934,-12.045968907953618 L-6.921263999289323,-12.10492199133471 L-6.402025707005716,-12.159622930563243 L-5.880198597310924,-12.210049605961736 L-5.355993683901092,-12.256181626256982 L-4.829622941996099,-12.298000336825767 L-4.301299222622163,-12.335488827238333 L-3.7712361665403957,-12.36863193809651 " />
			<path d="M-3.771236166540161,-12.368631938096524 L-3.3883639436628985,-12.389810855906157 L-3.0047804113882903,-12.408722509735346 L-2.6205660942927413,-12.42536292951555 L-2.2358016493714565,-12.439728621971796 L-1.8505678491063753,-12.451816571356007 L-1.4649455645098677,-12.461624240080093 L-1.0790157481476401,-12.469149569248655 L-0.6928594171446513,-12.474390979091206 L-0.30655763617746573,-12.47734736929381 L0.07980849954348618,-12.47801811923006 L0.46615788129796787,-12.47640308809137 L0.8524094038828307,-12.472502614916536 L1.2384819826382643,-12.466317518520558 L1.6242945704696163,-12.45784909732275 L2.009766174861327,-12.447099129074168 L2.394815874879522,-12.434069870484413 L2.7793628381594875,-12.418764056747879 L3.163326337874548,-12.401184900969575 L3.5466257696828856,-12.381336093490592 L3.929180668648529,-12.359221801113412 L4.310910726133077,-12.334846666227177 L4.691735806654725,-12.308215805833129 L5.0715759647108545,-12.279334810470411 L5.450351461560736,-12.248209743042466 L5.827982781964918,-12.214847137544258 L6.204390650877587,-12.179253997690617 L6.579496050088498,-12.141437795445976 L6.953220234811111,-12.10140646945579 L7.325484750213231,-12.059168423380012 L7.6962114478867765,-12.014732524128927 L8.065322502253323,-11.968108100001748 L8.432740426901747,-11.919304938728354 L8.798388090854683,-11.868333285414593 L9.162188734760448,-11.815203840391545 L9.524065987006962,-11.759927756969224 L9.883943879754161,-11.70251663909521 L10.241746864881671,-11.642982538918663 L10.59739982984846,-11.58133795426025 L10.950828113460993,-11.517595825988515 L11.301957521546596,-11.451769535303237 L11.650714342528904,-11.38387290092635 L11.997025362901864,-11.313920176201023 L12.3408178825992,-11.241926046099504 L12.682019730256185,-11.167905624140337 L13.02055927836034,-11.091874449215627 L13.356365458287987,-11.013848482329017 L13.689367775223516,-10.933844103245015 L14.01949632295814,-10.851878107050451 L14.346681798565035,-10.767967700628752 L14.670855516947988,-10.682130499047723 L14.991949425260227,-10.594384521861686 L15.30989611719054,-10.504748189328673 L15.62462884711374,-10.413240318543526 L15.936081544102356,-10.319880119487658 L16.24418882579665,-10.224687190996397 L16.548886012130215,-10.127681516644625 L16.85010913890807,-10.028883460551697 L17.14779497123443,-9.928313763106464 L17.441881016787494,-9.825993536613288 L17.732305538938245,-9.721944260860004 L18.019007569710592,-9.61618777860875 L18.301926922580265,-9.508746291010556 L18.581004205109572,-9.399642352944731 L18.85618083141547,-9.28889886828398 L19.127399034468382,-9.176539085086254 L19.394601878219,-9.06258659071436 L19.657733269550725,-8.947065306884344 L19.916737970055134,-8.829999484643656 L20.171561607628018,-8.711413699280211 L20.422150687883548,-8.591332845163375 L20.66845260538424,-8.469782130517931 L20.910415654684225,-8.346787072132217 L21.14798904118361,-8.222373490001473 L21.381122891791662,-8.09656750190749 L21.609768265396525,-7.969395517935812 L21.83387716313926,-7.84088423493152 L22.05340253849015,-7.711060630894846 L22.26829830712503,-7.57995195931776 L22.47851935659958,-7.447585743462736 L22.6840215558197,-7.3139897705848655 L22.88476176430583,-7.1791920860985545 L23.080697841249258,-7.043220987690044 L23.271788654358687,-6.906105019376933 L23.457994088494967,-6.767872965516033 L23.639275054092344,-6.62855384476077 L23.815593495364443,-6.488176903969354 L23.986912398293207,-6.346771612065083 L24.153195798399114,-6.204367653850023 L24.314408788291153,-6.060994923773343 L24.47051752499479,-5.91668351965567 L24.621489237056515,-5.771463736370766 L24.76729223142348,-5.6253660594857795 L24.907895900096722,-5.478421158861515 L25.043270726556617,-5.330659882214004 L25.173388291959196,-5.182113248638703 L25.29822128110204,-5.032812442098768 L25.417743488158447,-4.882788804878716 L25.53192982217877,-4.7320738310048025 L25.6407563123577,-4.580699159633563 L25.744200113066363,-4.4286965684099115 L25.84223950864824,-4.27609796679617 L25.93485391797789,-4.1229353893733816 L26.02202389878146,-3.96924098911639 L26.10373115171815,-3.815047030644073 L26.17995852422178,-3.660385883446094 L26.25069001410153,-3.5052900150876862 L26.315910772901237,-3.3497919843938533 L26.37560710901652,-3.1939244346143605 L26.429766490568994,-3.0377200865710403 L26.47837754803705,-2.881211731788815 L26.52143007664264,-2.7244322256118396 L26.55891503849354,-2.567414480306294 L26.590824564480616,-2.4101914581512256 L26.617151955929796,-2.2527961645188435 L26.637891686008288,-2.0952616409458082 L26.653039400884822,-1.9376209581969273 L26.66259192064363,-1.779907209322675 L26.666547239951992,-1.6221535027120861 L26.664904528481216,-1.4643929551424257 L26.657664131080953,-1.3066586848270523 L26.644827567706784,-1.148983804463016 L26.626397533101173,-0.9914014142798175 L26.60237789622772,-0.8339445950907429 L26.57277369945901,-0.676646401348324 L26.537591157518044,-0.5195398542053336 L26.496837656173636,-0.3626579345827199 L26.450521750689898,-0.20603357624602991 L26.398653164030335,-0.04969965889182215 " />
			<path d="M26.3986531640303,-0.04969965889172401 L26.33063169552289,0.1335654362690153 L26.254979834934712,0.3163311826068256 L26.171719505528554,0.49854461617007795 L26.08087483543645,0.6801529330626632 " />
			<path d="M4.714045207641105,36.848843130185934 L1.1785113017018538,38.292468006649926 " />
			<path d="M-26.398653164551355,-3.1294327287269637 L-13.921219877417828,22.701364305214867 " />
			<path d="M-13.921219877417828,22.701364305214867 L-8.24957911410141,34.44280166939843 " />
			<path d="M-8.249579114101412,34.44280166939842 L1.178511301701854,38.292468006649926 " />
			<path d="M-3.7712361665401577,-12.368631938096524 L-1.178511302222909,31.555551916470435 " />
			<path d="M-1.178511302222909,31.555551916470442 L-8.249579114101412,34.44280166939843 " />
			<path d="M26.3986531640303,-0.04969965889172645 L21.195882946121596,10.11411313295542 " />
			<path d="M21.195882946121596,10.11411313295542 L8.249579113580355,35.40521825372194 " />
			<path d="M-1.1785113022229101,31.55555191647044 L8.249579113580355,35.40521825372194 " />
			<path d="M8.249579113580356,35.40521825372194 L4.714045207641105,36.848843130185934 " />
			<path d="M-25.969871090709066,0.883271985839535 L-24.575698613337085,3.3273182142396953 L-23.188781807848642,5.765522475384423 L-21.81138807944677,8.195886058528293 L-20.446865042928742,10.61535038598667 L-19.52505942394435,12.25875600472078 L-18.613961509912343,13.892510659387076 L-17.717004235606616,15.513056827861579 L-17.275357107208638,16.316715788222144 L-16.83928824354085,17.114828216597687 L-16.43551227224491,17.858740661683857 L-16.038948274407044,18.59492357782018 L-15.650766294373875,19.322014981343127 L-15.272727220751142,20.037761299449805 L-14.907242117937091,20.73884497133075 L-14.55743155765584,21.420712049302725 L-14.227184950490756,22.077399799941546 L-13.92121987741784,22.701364305214835 " />
			<path d="M26.080874871076084,0.680152902442388 L24.845230405397317,3.051021209406556 L23.617443265518194,5.415288529280147 L22.399858536106024,7.770759735587061 L21.195882946121603,10.114113132955405 " />

        </g>
        </g>
    </svg>
    