<?xml version="1.0" encoding="UTF-8" standalone="no"?>
    <svg
    xmlns:svg="http://www.w3.org/2000/svg"
    xmlns="http://www.w3.org/2000/svg"
    width="500.0"
    height="220.0"
    >
        <g transform="scale(2.7894892005526737, -2.7894892005526737)   translate(60.153428214509574,-33.160192906168355)" stroke-width="0.3584885719585768"  fill="none">
        <!-- hidden lines -->
        <g  stroke="rgb(160,160,160)" fill="none" stroke-dasharray="0.3584885719585768,0.3584885719585768" >
    			<path d="M-56.568542494923804,-4.481107149482203 L4.138170147187384e-15,20.61309288761817 " />
			<path d="M3.1086244689504383e-15,20.613092887618166 L3.1086244689504383e-15,29.575307186582585 " />
			<path d="M56.568542494923804,-4.481107149482203 L-4.138170147187384e-15,20.61309288761817 " />
			<path d="M17.67766952966369,3.360830362111665 L17.89327063209547,3.2640072422317514 L18.106177073786675,3.166017736613216 L18.31635679181032,3.06687660211517 L18.523778133873975,2.966598769027799 L18.72840986308648,2.865199338823917 L18.93022116266211,2.7626935818847347 L19.129181640561477,2.659096935200197 L19.32526133406843,2.5544250000442466 L19.518430714302365,2.448693539625297 L19.708660690665166,2.341918476712374 L19.895922615222098,2.234115891237211 L20.08018828701613,2.1253020178726487 L20.261429956314878,2.0154932435877635 L20.439620328789598,1.9047061051800576 L20.614732569625637,1.7929572867850654 L20.786740307563637,1.6802636173637957 L20.955617638870955,1.5666420681683402 L21.12133913124268,1.452109750186077 L21.283879827631633,1.3366839115628117 L21.443215250006805,1.2203819350052694 L21.59932140303967,1.1032213351633278 L21.752174777717787,0.9852197559923743 L21.901752354885165,0.866394968096186 L22.04803160870888,0.7467648660507491 L22.190990510071348,0.6263474657093981 L22.330607529887885,0.5051609014896936 L22.466861642348846,0.3832234236424483 L22.599732328086084,0.2605533955033037 L22.729199577263056,0.13716929072728323 L22.855243892588266,0.013089690506722818 L22.97784629225145,-0.11166671922698956 L23.096988312782173,-0.23708115061742863 L23.21265201183039,-0.36313471671254227 L23.32481997086848,-0.48980843430894216 L23.43347529781438,-0.6170832268106925 L23.538601629575524,-0.7449399271021999 L23.640183134513038,-0.8733592804346948 L23.73820451482592,-1.0023219473259286 L23.83265100885485,-1.1318085064726295 L23.923508393305223,-1.2617994576752798 L24.01076298538915,-1.392275224774771 L24.094401644886,-1.5232161586005062 L24.174411776121307,-1.6546025399294906 L24.250781329863603,-1.7864145824559725 L24.323498805139007,-1.91863243577119 L24.392553250963214,-2.05123618835277 L24.45793426799069,-2.1842058705633276 L24.519632010080766,-2.3175214576578242 L24.57763718578041,-2.4511628727992156 L24.631941059723534,-2.585109990081954 L24.68253545394646,-2.719342637562872 L24.729412749119525,-2.853840600299006 L24.7725658856945,-2.98858362339189 L24.811988364967753,-3.1235514150378703 L24.847674250058905,-3.25872364958398 L24.879618166804924,-3.3940799705888907 L24.907815304569453,-3.529599993888542 L24.932261416967258,-3.665263310665912 L24.952952822503732,-3.8010494905244934 L24.969886405129312,-3.936938084565065 L24.983059614708743,-4.0729086284652025 L24.99247046740511,-4.208940645561133 L24.998117545978616,-4.345013649931446 L25.000000000000004,-4.481107149482152 " />
			<path d="M24.547250795488058,-6.582160089552128 L24.502173820957736,-6.68326967219258 L24.454980555850554,-6.784189050656471 L24.354261640961457,-6.985422345985645 L24.24512884706204,-7.1857904537194095 L24.127619877209675,-7.385224150941426 L24.001775328252236,-7.583654537554304 L23.867638676802756,-7.78101306008311 L23.725256264219176,-7.977231535359137 L23.574677280594397,-8.172242174075741 L23.41595374776215,-8.365977604208094 L23.24914050132456,-8.558370894288785 L23.074295171707615,-8.749355576531237 L22.891478164251062,-8.938865669792893 L22.700752638339672,-9.126835702370302 L22.502184485583,-9.313200734618201 L22.295842307051263,-9.497896381384772 L22.081797389575094,-9.680858834255346 L21.86012368111748,-9.862024883596863 L21.630897765226305,-10.041331940395445 L21.394198834576382,-10.21871805787956 L21.150108663610062,-10.39412195292132 L20.898711580285887,-10.567483027208514 L20.6400944369451,-10.738741388180003 L20.37434658030598,-10.907837869717353 L20.10155982059649,-11.074714052585458 L19.821828399835777,-11.239312284615133 L19.535248959275567,-11.401575700620725 L19.24192050601265,-11.561448242045826 L18.94194437878406,-11.718874676330298 L18.63542421295669,-11.87380061599196 L18.322465904723455,-12.026172537416304 L18.003177574518475,-12.175937799347743 L17.677669529663774,-12.323044661076032 " />
			<path d="M24.748737341529175,-15.459819665713614 L24.616208424573703,-15.516484890626892 L24.479067650365323,-15.570947793994733 L24.33750087630837,-15.623134566011771 L24.191699958058603,-15.672974481556 L24.0418624895145,-15.72039999603764 L23.888191535031922,-15.765346836937656 L23.730895354225026,-15.80775409091185 L23.570187119726427,-15.847564286342507 L23.406284628289075,-15.884723471225696 L23.239410005621387,-15.919181286288694 L23.06978940535562,-15.950891033238426 L22.897652702557536,-15.979809738048424 L22.72323318219258,-16.00589820919856 L22.54676722297093,-16.0291210907886 L22.368493976999794,-16.049446910453607 L22.188655045677077,-16.066848122016264 L22.007494152265743,-16.081301142818294 L21.825256811592517,-16.09278638568042 L21.64218999731864,-16.1012882854475 L21.45854180723353,-16.106795320082913 L21.274561127025038,-16.109300026283577 L21.090497292981876,-16.10879900959445 L20.90659975408539,-16.10529294900878 L20.723117733948634,-16.098786596047955 L20.54029989306081,-16.089288768322046 L20.358393991794934,-16.076812337579945 L20.177646554635345,-16.061374212265154 L19.998302536080114,-16.042995314600958 L19.820604988671167,-16.02170055223597 L19.64479473360198,-15.997518784488522 L19.471110034349266,-15.970482783235624 L19.299786273770987,-15.940629188499518 L19.13105563510825,-15.907998458791969 L18.965146787323402,-15.87263481628367 L18.80228457520082,-15.83458618687297 L18.642689714630325,-15.793904135235232 L18.486578493486206,-15.75064379494079 L18.33416247850721,-15.704863793736235 L18.185648228574806,-15.656626174090295 L18.041237014778204,-15.605996309111951 L17.901124547645573,-15.553042813954807 L17.7655007119111,-15.4978374528277 L17.63454930917734,-15.440455041737637 L17.50844780882164,-15.380973347096846 L17.38736710748414,-15.319472980331327 L17.2714712974634,-15.256037288633761 L17.160917444333457,-15.190752242008838 L17.055855374083706,-15.123706316764046 L16.956427470070107,-15.05499037560385 L16.86276848005288,-14.984697544489762 L16.77500533358216,-14.912923086433166 L16.693256969979213,-14.839764272391946 L16.617634177146144,-14.765320249445887 L16.548239441422737,-14.689691906429498 L16.485166808693826,-14.612981737204349 L16.428501756935386,-14.535293701756231 L16.37832108037217,-14.456733085305387 L16.33469278540379,-14.377406355620732 L16.297675998440347,-14.297421018731441 L16.267320885772527,-14.216885473231484 L16.24366858558465,-14.13590886337449 L16.22675115220298,-14.054600931158104 L16.21659151265468,-13.973071867598245 L16.21320343559643,-13.891432163394864 " />
			<path d="M16.21320343559643,-13.891432163394844 L16.21470934211541,-13.83699886261063 L16.219226154570567,-13.782598350411417 L16.22675115220298,-13.728263395631586 L16.237279802235445,-13.674026727616182 L16.25080576260288,-13.619921016505979 L16.267320885772527,-13.565978853558207 L16.286815223651722,-13.512232731514795 L16.30927703358028,-13.458715025029969 L16.33469278540379,-13.405457971168957 L16.363047169623712,-13.352493649989597 L16.394323106619233,-13.299853965218505 L16.428501756935386,-13.24757062503346 L16.465562532631246,-13.19567512296359 L16.50548310968133,-13.144198718918842 L16.548239441422737,-13.09317242036019 L16.593805773039996,-13.042626963621888 L16.642154657078777,-12.992592795397059 L16.693256969979213,-12.943100054397743 L16.747081929618854,-12.894178553200465 L16.803597113854657,-12.845857760288254 L16.862768480052875,-12.798166782299928 L16.924560385595072,-12.751134346497349 L16.988935609347898,-12.704788783461186 L17.055855374083706,-12.659158010025644 L17.19716577819321,-12.570150329923873 L17.34815116878275,-12.484325733489554 L17.508447808821636,-12.401890979692844 L17.677669529663692,-12.323044661076072 " />
			<path d="M24.748737341529164,-15.459819665713619 L25.05057888493366,-15.324267297881734 L25.348647903301337,-15.18708199001579 L25.642899508534455,-15.04828440171852 L25.933289387423585,-14.907895435396195 L26.219773808321083,-14.765936233110766 L26.50230962772697,-14.622428173395905 L26.780854296786085,-14.477392868037555 L27.0553658676958,-14.330852158819228 L27.325803000023306,-14.182828114232702 L27.59212496693123,-14.033343026154611 L27.85429166131094,-13.88241940648938 L28.11226360182258,-13.730079983778996 L28.366001938840817,-13.576347699780163 L28.615468460305433,-13.421245706009367 L28.860625597475895,-13.264797360256374 L29.101436430589086,-13.107026223066601 L29.337864694419324,-12.94795605419297 L29.569874783739753,-12.787610809017796 L29.79743175868429,-12.626014634945218 L30.020501350009525,-12.463191867764664 L30.239049964255532,-12.299167027985954 L30.4530446888049,-12.133964817146612 L30.66245329683924,-11.967610114091944 L30.867244252192425,-11.800127971228337 L31.06738671409988,-11.631543610750452 L31.262850541843033,-11.461882420842858 L31.45360629928839,-11.291169951856709 L31.639625259320514,-11.119431912461913 L31.82087940816827,-10.94669416577549 L31.99734144962357,-10.7729827254667 L32.16898480915202,-10.598323751839501 L32.335783637895034,-10.422743547892894 L32.49771281656254,-10.246268555359741 L32.65474795921586,-10.068925350724783 L32.80686541694013,-9.890740641222326 L32.95404228140573,-9.711741260814222 L33.09625638831824,-9.531954166148733 L33.23348632075628,-9.351406432501001 L33.365711412396784,-9.170125249695612 L33.49291175062731,-8.98813791801191 L33.6150681795448,-8.805471844072628 L33.73216230284039,-8.622154536716593 L33.84417648656983,-8.438213602856008 L33.951093861809035,-8.253676743318941 L34.052898327194605,-8.068571748677629 L34.1495745513485,-7.88292649506341 L34.24110797518697,-7.696768939968635 L34.32748481411307,-7.510127118036333 L34.40869206009258,-7.323029136838379 L34.48471748361295,-7.135503172642553 L34.55554963552505,-6.94757746616926 L34.621177848767346,-6.759280318338666 L34.68159223997231,-6.570640086008635 L34.73678371095485,-6.381685177704256 L34.78674395008247,-6.192444049339701 L34.8314654335269,-6.002945199932834 L34.87094142639724,-5.813217167313329 L34.905165983754166,-5.623288523825011 L34.93413395150523,-5.43318787202299 L34.95784096718104,-5.2429438403661965 L34.976283460592235,-5.052585078906011 L34.989458654367155,-4.862140254971702 L34.997364564370066,-4.671638048853255 L35.00000000000001,-4.481107149482344 " />
			<path d="M35.00000000000001,-4.481107149482199 L34.998535066848056,-4.339053712569395 L34.99414039002246,-4.197012167015968 L34.986816337403646,-4.054994403185861 L34.97656352209148,-3.9130123094522413 L34.963382802353905,-3.771077771202313 L34.947275281555115,-3.6292026698423907 L34.92824230806317,-3.4873988818032977 L34.90628547513715,-3.3456782775461873 L34.881406620793776,-3.204052720568858 L34.85360782765352,-3.062534066412657 L34.82289142276632,-2.9211341616700475 L34.78925997741673,-2.7798648429929234 L34.7527163069087,-2.638737936101757 L34.71326347032992,-2.4977652547956652 L34.67090477029572,-2.356958599963469 L34.62564375267261,-2.2163297585958355 L34.57748420628145,-2.0758905027985834 L34.52643016258031,-1.9356525888072373 L34.472485895326976,-1.7956277560029026 L34.41565592022118,-1.6558277259295608 L34.35594499452661,-1.5162642013128518 L34.29335811667267,-1.3769488650804331 L34.22790052583607,-1.2378933793839977 L34.15957770150222,-1.0991093846230293 L34.08839536300658,-0.9606084984703775 L34.01435946905586,-0.8224023148997399 L33.93747621722923,-0.6845024032151232 L33.85775204345951,-0.5469203070823716 L33.77519362149443,-0.4096675435628425 L33.68980786233796,-0.27275560214930383 L33.60160191367175,-0.13619594380415112 L33.510583159256875,-3.552713678800501e-15 " />
			<path d="M17.677669529663696,3.360830362111666 L17.508447808821636,3.439676680728441 L17.348151168782746,3.5221114345251507 L17.197165778193206,3.6079360309594697 L17.055855374083706,3.6969437110612406 L16.988935609347898,3.7425744844967843 L16.924560385595072,3.7889200475329456 L16.86276848005288,3.835952483335525 L16.803597113854657,3.8836434613238495 L16.747081929618858,3.9319642542360613 L16.693256969979217,3.9808857554333392 L16.64215465707878,4.030378496432656 L16.593805773040003,4.0804126646574845 L16.54823944142274,4.130958121395786 L16.505483109681332,4.181984419954438 L16.465562532631253,4.233460823999184 L16.42850175693539,4.285356326069054 L16.394323106619236,4.337639666254099 L16.363047169623716,4.3902793510251925 L16.334692785403796,4.443243672204552 L16.309277033580283,4.496500726065563 L16.28681522365173,4.550018432550389 L16.267320885772534,4.603764554593799 L16.250805762602887,4.657706717541572 L16.237279802235452,4.7118124286517755 L16.226751152202986,4.766049096667179 L16.219226154570574,4.820384051447009 L16.214709342115416,4.874784563646223 L16.213203435596437,4.9292178644304165 " />
			<path d="M16.213203435596437,4.929217864430437 L16.216433856871458,5.0089361202974505 L16.226120946447875,5.088551366744559 L16.242252186973584,5.167960727457389 L16.26480673416755,5.247061592160626 L16.293755443754133,5.325751749207786 L16.329060909122397,5.403929517655886 L16.370677509661764,5.481493878654353 L16.418551469711524,5.558344605978408 L16.472620928048052,5.63438239553823 L16.532816017819925,5.709508993696581 L16.59905895682769,5.7836273242290535 L16.671264148031554,5.856641613762921 L16.749338290157173,5.928457515532468 L16.833180498256656,5.99898223129091 L16.922682434068882,6.068124631221364 L17.017728446010814,6.135795371691937 L17.118195718618814,6.201907010702741 L17.223954431246934,6.266374120875703 L17.334867925817058,6.329113399841126 L17.450792883404166,6.39004377787839 L17.57157950942854,6.449086522671692 L17.6970717272156,6.506165341045466 L17.827107379673272,6.561206477548021 L17.96151843882627,6.614138809756012 L18.100131222936565,6.664893940176601 L18.242766620929437,6.713406284628536 L18.389240323835196,6.759613156987969 L18.539363062947395,6.8034548501894925 L18.69294085438992,6.844874713377724 L18.849775249776833,6.8838192251097645 L19.00966359264113,6.920238062513915 L19.17239928030104,6.954084166315312 L19.33777203082552,6.985313801644436 L19.505568154753924,7.013886614549936 L19.675570831218813,7.039765684142733 L19.84756038811504,7.062917570304032 L20.02131458595313,7.083312356895585 L20.196608905030168,7.100923690416393 L20.373216835547044,7.115728814055861 L20.550910170297335,7.127708597099433 L20.729459299549436,7.1368475596487055 L20.908633507741037,7.143133892624059 L21.08820127160251,7.146559473023975 L21.26793055932398,7.147119874421337 L21.447589130379523,7.144814372683105 L21.62694483562107,7.139645946906024 L21.80576591725422,7.131621275567129 L21.98382130830836,7.120750727894029 L22.160880931214134,7.107048350466112 L22.336715995102423,7.0905318490640035 L22.511099291440722,7.071222565790711 L22.683805487624827,7.049145451494031 L22.854611418146547,7.02432903352585 L23.02329637296114,6.996805378879996 L23.189642382681885,6.966610052756284 L23.35343450023325,6.933782072604281 L23.51446107859875,6.898363857706185 L23.672514044304542,6.86040117436397 L23.827389166285435,6.819943076761604 L23.978886319785822,6.777041843578785 L24.126809744954585,6.731752910438072 L24.270968299799836,6.684134798272723 L24.411175707176554,6.6342490377077805 L24.54725079548804,6.582160089552154 " />
			<path d="M-33.510583159256846,9.769962616701378e-15 L-33.60160191367173,-0.13619594380414402 L-33.689807862337936,-0.27275560214930206 L-33.77519362149442,-0.4096675435628372 L-33.85775204345949,-0.546920307082364 L-33.93747621722921,-0.6845024032151197 L-34.01435946905584,-0.8224023148997337 L-34.08839536300656,-0.9606084984703687 L-34.15957770150221,-1.0991093846230244 L-34.227900525836056,-1.2378933793839977 L-34.29335811667266,-1.37694886508043 L-34.35594499452659,-1.516264201312846 L-34.41565592022116,-1.6558277259295595 L-34.47248589532696,-1.7956277560029053 L-34.5264301625803,-1.9356525888072378 L-34.57748420628143,-2.0758905027985817 L-34.625643752672595,-2.2163297585958373 L-34.67090477029571,-2.356958599963475 L-34.713263470329906,-2.497765254795669 L-34.75271630690869,-2.6387379361017578 L-34.78925997741671,-2.779864842992928 L-34.822891422766304,-2.921134161670057 L-34.85360782765351,-3.0625340664126632 L-34.88140662079376,-3.2040527205688614 L-34.90628547513714,-3.3456782775461953 L-34.92824230806316,-3.4873988818033106 L-34.9472752815551,-3.629202669842401 L-34.96338280235389,-3.7710777712023207 L-34.97656352209147,-3.913012309452253 L-34.98681633740363,-4.05499440318587 L-34.994140390022444,-4.197012167015974 L-34.99853506684804,-4.339053712569406 L-34.99999999999999,-4.481107149482138 " />
			<path d="M-34.99999999999999,-4.481107149482207 L-34.99736456437005,-4.671638048853263 L-34.98945865436714,-4.86214025497171 L-34.97628346059222,-5.052585078906012 L-34.95784096718103,-5.2429438403662045 L-34.93413395150522,-5.433187872023004 L-34.90516598375415,-5.6232885238250185 L-34.87094142639722,-5.81321716731333 L-34.83146543352688,-6.002945199932841 L-34.78674395008245,-6.1924440493397155 L-34.73678371095484,-6.381685177704263 L-34.6815922399723,-6.570640086008636 L-34.621177848767324,-6.759280318338674 L-34.55554963552503,-6.947577466169261 L-34.48471748361293,-7.135503172642547 L-34.40869206009256,-7.32302913683838 L-34.327484814113056,-7.510127118036328 L-34.241107975186964,-7.6967689399686225 L-34.14957455134849,-7.882926495063405 L-34.0528983271946,-8.068571748677616 L-33.951093861809035,-8.25367674331892 L-33.84417648656982,-8.438213602855996 L-33.73216230284039,-8.622154536716574 L-33.61506817954479,-8.80547184407261 L-33.4929117506273,-8.988137918011898 L-33.36571141239678,-9.170125249695607 L-33.23348632075627,-9.351406432500994 L-33.09625638831823,-9.531954166148722 L-32.95404228140571,-9.711741260814215 L-32.806865416940106,-9.890740641222326 L-32.65474795921585,-10.068925350724776 L-32.49771281656253,-10.24626855535973 L-32.33578363789503,-10.422743547892889 L-32.16898480915201,-10.598323751839503 L-31.99734144962356,-10.772982725466694 L-31.82087940816827,-10.94669416577548 L-31.639625259320503,-11.11943191246191 L-31.453606299288374,-11.291169951856709 L-31.262850541843026,-11.461882420842853 L-31.06738671409988,-11.631543610750441 L-30.867244252192418,-11.800127971228331 L-30.66245329683922,-11.967610114091944 L-30.45304468880489,-12.133964817146605 L-30.23904996425553,-12.299167027985941 L-30.020501350009514,-12.463191867764658 L-29.797431758684272,-12.626014634945218 L-29.569874783739742,-12.78761080901779 L-29.33786469441932,-12.947956054192964 L-29.101436430589068,-13.107026223066601 L-28.860625597475874,-13.26479736025638 L-28.61546846030541,-13.421245706009374 L-28.3660019388408,-13.576347699780163 L-28.112263601822555,-13.730079983779001 L-27.854291661310906,-13.88241940648939 L-27.592124966931202,-14.033343026154617 L-27.325803000023292,-14.182828114232704 L-27.05536586769578,-14.330852158819233 L-26.78085429678605,-14.477392868037565 L-26.502309627726945,-14.62242817339591 L-26.21977380832106,-14.765936233110766 L-25.933289387423553,-14.907895435396203 L-25.642899508534438,-15.04828440171852 L-25.348647903301334,-15.187081990015784 L-25.050578884933643,-15.324267297881734 L-24.748737341529267,-15.459819665713564 " />
			<path d="M-17.67766952966369,-12.323044661076064 L-17.508447808821632,-12.401890979692837 L-17.348151168782742,-12.484325733489548 L-17.1971657781932,-12.570150329923868 L-17.0558553740837,-12.659158010025639 L-16.988935609347887,-12.704788783461181 L-16.924560385595065,-12.751134346497345 L-16.862768480052864,-12.798166782299923 L-16.803597113854646,-12.845857760288249 L-16.747081929618844,-12.89417855320046 L-16.693256969979206,-12.943100054397737 L-16.64215465707877,-12.992592795397053 L-16.59380577303999,-13.042626963621885 L-16.548239441422727,-13.093172420360187 L-16.505483109681315,-13.144198718918839 L-16.46556253263124,-13.195675122963584 L-16.428501756935376,-13.247570625033454 L-16.394323106619222,-13.2998539652185 L-16.363047169623698,-13.352493649989594 L-16.334692785403778,-13.405457971168953 L-16.309277033580265,-13.458715025029965 L-16.286815223651715,-13.512232731514791 L-16.267320885772513,-13.565978853558201 L-16.25080576260287,-13.619921016505975 L-16.237279802235435,-13.674026727616178 L-16.22675115220297,-13.728263395631583 L-16.219226154570556,-13.782598350411414 L-16.2147093421154,-13.836998862610626 L-16.21320343559642,-13.89143216339483 " />
			<path d="M-16.21320343559642,-13.89143216339484 L-16.216591512654674,-13.973071867598241 L-16.22675115220297,-14.054600931158099 L-16.24366858558464,-14.135908863374485 L-16.267320885772513,-14.21688547323148 L-16.29767599844034,-14.297421018731438 L-16.334692785403774,-14.377406355620726 L-16.37832108037216,-14.456733085305384 L-16.428501756935376,-14.535293701756226 L-16.485166808693812,-14.612981737204343 L-16.548239441422727,-14.689691906429495 L-16.61763417714613,-14.765320249445884 L-16.693256969979203,-14.839764272391943 L-16.77500533358215,-14.912923086433162 L-16.862768480052864,-14.984697544489757 L-16.956427470070096,-15.054990375603843 L-17.055855374083695,-15.123706316764041 L-17.160917444333446,-15.190752242008836 L-17.27147129746339,-15.256037288633758 L-17.387367107484128,-15.319472980331321 L-17.508447808821625,-15.380973347096841 L-17.634549309177327,-15.440455041737632 L-17.765500711911088,-15.497837452827694 L-17.901124547645562,-15.553042813954804 L-18.041237014778194,-15.605996309111948 L-18.185648228574795,-15.65662617409029 L-18.334162478507196,-15.704863793736232 L-18.486578493486192,-15.750643794940785 L-18.642689714630315,-15.793904135235229 L-18.802284575200808,-15.834586186872967 L-18.965146787323388,-15.872634816283666 L-19.131055635108236,-15.907998458791965 L-19.299786273770977,-15.940629188499512 L-19.471110034349252,-15.97048278323562 L-19.644794733601966,-15.997518784488518 L-19.820604988671157,-16.021700552235966 L-19.998302536080104,-16.042995314600955 L-20.17764655463533,-16.06137421226515 L-20.35839399179492,-16.076812337579938 L-20.540299893060798,-16.089288768322042 L-20.723117733948623,-16.09878659604795 L-20.906599754085377,-16.105292949008778 L-21.090497292981862,-16.108799009594446 L-21.274561127025024,-16.109300026283574 L-21.458541807233516,-16.10679532008291 L-21.642189997318628,-16.101288285447495 L-21.825256811592507,-16.092786385680416 L-22.00749415226573,-16.08130114281829 L-22.188655045677066,-16.06684812201626 L-22.36849397699978,-16.049446910453604 L-22.54676722297092,-16.0291210907886 L-22.72323318219257,-16.005898209198556 L-22.897652702557526,-15.97980973804842 L-23.06978940535561,-15.950891033238422 L-23.239410005621373,-15.91918128628869 L-23.406284628289065,-15.884723471225692 L-23.570187119726416,-15.847564286342504 L-23.730895354225016,-15.807754090911848 L-23.88819153503191,-15.765346836937653 L-24.04186248951449,-15.720399996037637 L-24.191699958058592,-15.672974481555997 L-24.337500876308358,-15.62313456601177 L-24.47906765036531,-15.57094779399473 L-24.616208424573692,-15.516484890626888 L-24.748737341529132,-15.459819665713626 " />
			<path d="M-17.677669529663678,-12.323044661076072 L-18.003177574518453,-12.175937799347746 L-18.322465904723447,-12.026172537416304 L-18.63542421295667,-11.873800615991968 L-18.941944378784047,-11.718874676330303 L-19.241920506012637,-11.56144824204583 L-19.53524895927555,-11.401575700620729 L-19.82182839983576,-11.239312284615139 L-20.101559820596467,-11.074714052585467 L-20.37434658030595,-10.907837869717365 L-20.640094436945066,-10.738741388180017 L-20.898711580285873,-10.567483027208517 L-21.150108663610048,-10.394121952921326 L-21.39419883457637,-10.218718057879565 L-21.630897765226294,-10.041331940395445 L-21.860123681117464,-9.862024883596867 L-22.08179738957508,-9.68085883425535 L-22.29584230705125,-9.497896381384777 L-22.502184485582983,-9.31320073461821 L-22.700752638339655,-9.126835702370306 L-22.891478164251048,-8.938865669792897 L-23.0742951717076,-8.74935557653124 L-23.249140501324558,-8.558370894288778 L-23.415953747762142,-8.365977604208089 L-23.574677280594383,-8.172242174075741 L-23.725256264219162,-7.977231535359141 L-23.86763867680274,-7.781013060083114 L-24.001775328252222,-7.583654537554308 L-24.12761987720966,-7.38522415094143 L-24.245128847062027,-7.185790453719415 L-24.354261640961443,-6.985422345985654 L-24.45498055585054,-6.784189050656476 L-24.502173820957726,-6.683269672192578 L-24.547250795488004,-6.582160089552229 " />
			<path d="M-24.999999999999993,-4.4811071494822015 L-24.998117545978605,-4.345013649931445 L-24.9924704674051,-4.208940645561132 L-24.983059614708733,-4.072908628465201 L-24.9698864051293,-3.936938084565063 L-24.952952822503722,-3.8010494905244907 L-24.932261416967247,-3.6652633106659085 L-24.907815304569443,-3.529599993888543 L-24.879618166804914,-3.3940799705888915 L-24.847674250058894,-3.2587236495839806 L-24.811988364967743,-3.123551415037875 L-24.772565885694494,-2.988583623391894 L-24.729412749119515,-2.853840600299009 L-24.68253545394645,-2.7193426375628746 L-24.631941059723523,-2.585109990081956 L-24.5776371857804,-2.451162872799218 L-24.519632010080752,-2.317521457657826 L-24.45793426799068,-2.1842058705633285 L-24.392553250963203,-2.0512361883527697 L-24.323498805138996,-1.91863243577119 L-24.250781329863592,-1.7864145824559716 L-24.174411776121296,-1.6546025399294892 L-24.094401644885988,-1.5232161586005044 L-24.01076298538914,-1.3922752247747687 L-23.923508393305212,-1.2617994576752767 L-23.832651008854835,-1.131808506472626 L-23.738204514825906,-1.002321947325925 L-23.640183134513023,-0.8733592804346912 L-23.53860162957551,-0.744939927102195 L-23.433475297814365,-0.6170832268106872 L-23.324819970868464,-0.48980843430893684 L-23.21265201183038,-0.3631347167125405 L-23.096988312782162,-0.23708115061742685 L-22.977846292251435,-0.1116667192269869 L-22.855243892588256,0.013089690506721041 L-22.72919957726305,0.13716929072728234 L-22.599732328086073,0.2605533955033037 L-22.466861642348835,0.38322342364244744 L-22.330607529887875,0.5051609014896936 L-22.190990510071337,0.6263474657093981 L-22.048031608708865,0.74676486605075 L-21.901752354885154,0.8663949680961887 L-21.752174777717777,0.9852197559923761 L-21.59932140303966,1.1032213351633295 L-21.443215250006794,1.2203819350052711 L-21.28387982763162,1.3366839115628126 L-21.121339131242667,1.4521097501860805 L-20.95561763887094,1.5666420681683437 L-20.78674030756362,1.6802636173637993 L-20.614732569625623,1.7929572867850698 L-20.439620328789584,1.904706105180062 L-20.26142995631486,2.0154932435877697 L-20.080188287016114,2.125302017872655 L-19.895922615222077,2.2341158912372174 L-19.708660690665145,2.3419184767123813 L-19.518430714302347,2.4486935396253013 L-19.32526133406841,2.55442500004425 L-19.12918164056146,2.6590969352002025 L-18.9302211626621,2.7626935818847356 L-18.72840986308647,2.8651993388239196 L-18.52377813387396,2.9665987690278017 L-18.316356791810307,3.0668766021151717 L-18.106177073786657,3.1660177366132185 L-17.893270632095454,3.264007242231754 L-17.677669529663696,3.3608303621116598 " />
			<path d="M-24.547250795488043,6.582160089552145 L-24.411175707176543,6.634249037707779 L-24.270968299799826,6.684134798272721 L-24.126809744954574,6.731752910438071 L-23.97888631978581,6.777041843578783 L-23.82738916628543,6.819943076761602 L-23.672514044304535,6.860401174363968 L-23.51446107859874,6.898363857706183 L-23.353434500233238,6.933782072604279 L-23.189642382681875,6.966610052756282 L-23.023296372961134,6.996805378879994 L-22.85461141814654,7.024329033525848 L-22.683805487624817,7.049145451494029 L-22.51109929144071,7.071222565790709 L-22.336715995102413,7.090531849064002 L-22.160880931214123,7.10704835046611 L-21.98382130830835,7.120750727894027 L-21.80576591725421,7.131621275567127 L-21.62694483562106,7.139645946906022 L-21.447589130379512,7.144814372683103 L-21.267930559323965,7.147119874421335 L-21.088201271602497,7.146559473023974 L-20.908633507741026,7.143133892624057 L-20.729459299549422,7.136847559648704 L-20.55091017029732,7.127708597099431 L-20.373216835547034,7.115728814055859 L-20.196608905030153,7.1009236904163915 L-20.02131458595312,7.083312356895584 L-19.847560388115028,7.0629175703040294 L-19.6755708312188,7.039765684142731 L-19.50556815475391,7.013886614549934 L-19.33777203082551,6.985313801644434 L-19.17239928030103,6.95408416631531 L-19.009663592641118,6.9202380625139135 L-18.849775249776823,6.883819225109763 L-18.69294085438991,6.844874713377722 L-18.539363062947384,6.803454850189491 L-18.389240323835185,6.759613156987968 L-18.24276662092943,6.713406284628535 L-18.100131222936554,6.664893940176599 L-17.96151843882626,6.61413880975601 L-17.82710737967326,6.561206477548019 L-17.69707172721559,6.506165341045464 L-17.571579509428528,6.449086522671689 L-17.450792883404155,6.390043777878388 L-17.334867925817047,6.329113399841124 L-17.223954431246923,6.266374120875701 L-17.118195718618804,6.2019070107027385 L-17.017728446010803,6.135795371691934 L-16.92268243406887,6.068124631221362 L-16.833180498256645,5.998982231290907 L-16.749338290157162,5.928457515532466 L-16.67126414803154,5.85664161376292 L-16.599058956827683,5.783627324229052 L-16.532816017819915,5.709508993696579 L-16.47262092804804,5.634382395538229 L-16.418551469711513,5.558344605978407 L-16.370677509661753,5.4814938786543514 L-16.329060909122386,5.403929517655884 L-16.293755443754122,5.325751749207785 L-16.26480673416754,5.247061592160624 L-16.242252186973573,5.167960727457387 L-16.226120946447864,5.088551366744558 L-16.216433856871447,5.00893612029745 L-16.213203435596427,4.929217864430445 " />
			<path d="M-16.213203435596427,4.929217864430435 L-16.214709342115405,4.874784563646222 L-16.219226154570563,4.820384051447008 L-16.226751152202976,4.766049096667178 L-16.23727980223544,4.711812428651775 L-16.250805762602877,4.657706717541571 L-16.26732088577252,4.603764554593798 L-16.286815223651722,4.550018432550388 L-16.309277033580273,4.496500726065562 L-16.33469278540378,4.443243672204551 L-16.363047169623705,4.390279351025192 L-16.394323106619225,4.337639666254098 L-16.428501756935383,4.285356326069053 L-16.465562532631242,4.233460823999183 L-16.50548310968132,4.181984419954437 L-16.54823944142273,4.1309581213957856 L-16.59380577303999,4.0804126646574845 L-16.64215465707877,4.030378496432656 L-16.693256969979203,3.9808857554333397 L-16.747081929618844,3.9319642542360618 L-16.803597113854643,3.8836434613238504 L-16.862768480052864,3.835952483335525 L-16.924560385595058,3.7889200475329465 L-16.988935609347884,3.7425744844967848 L-17.05585537408369,3.696943711061241 L-17.19716577819319,3.60793603095947 L-17.34815116878273,3.522111434525151 L-17.508447808821618,3.439676680728441 L-17.67766952966366,3.360830362111675 " />
			<path d="M7.071067811865477,1.7924428597928896 L-14.14213562373095,-7.61788215411975 " />
			<path d="M-7.071067811865473,-10.754657158757297 L-7.203596728820945,-10.811322383670573 L-7.340737503029326,-10.865785287038417 L-7.482304277086279,-10.917972059055455 L-7.628105195336046,-10.967811974599682 L-7.777942663880148,-11.015237489081322 L-7.931613618362725,-11.060184329981338 L-8.08890979916962,-11.102591583955531 L-8.249618033668222,-11.142401779386189 L-8.413520525105573,-11.179560964269378 L-8.580395147773263,-11.214018779332376 L-8.750015748039027,-11.245728526282107 L-8.922152450837112,-11.274647231092105 L-9.096571971202069,-11.300735702242243 L-9.273037930423719,-11.323958583832283 L-9.451311176394857,-11.34428440349729 L-9.631150107717573,-11.361685615059944 L-9.812311001128908,-11.376138635861976 L-9.994548341802131,-11.387623878724101 L-10.17761515607601,-11.39612577849118 L-10.361263346161122,-11.401632813126593 L-10.545244026369613,-11.404137519327259 L-10.729307860412776,-11.403636502638127 L-10.913205399309259,-11.400130442052461 L-11.096687419446017,-11.393624089091634 L-11.279505260333842,-11.384126261365724 L-11.461411161599719,-11.371649830623621 L-11.642158598759305,-11.356211705308834 L-11.821502617314534,-11.337832807644638 L-11.999200164723483,-11.31653804527965 L-12.17501041979267,-11.2923562775322 L-12.348695119045384,-11.265320276279304 L-12.520018879623661,-11.235466681543196 L-12.6887495182864,-11.202835951835649 L-12.854658366071245,-11.16747230932735 L-13.017520578193823,-11.12942367991665 L-13.177115438764318,-11.08874162827891 L-13.333226659908444,-11.045481287984467 L-13.485642674887439,-10.999701286779914 L-13.634156924819841,-10.951463667133972 L-13.77856813861644,-10.900833802155631 L-13.918680605749069,-10.847880306998487 L-14.054304441483545,-10.792674945871378 L-14.185255844217306,-10.735292534781314 L-14.311357344573008,-10.675810840140523 L-14.432438045910509,-10.614310473375003 L-14.548333855931244,-10.55087478167744 L-14.658887709061185,-10.485589735052518 L-14.763949779310938,-10.418543809807725 L-14.863377683324538,-10.349827868647527 L-14.957036673341769,-10.27953503753344 L-15.044799819812479,-10.207760579476846 L-15.126548183415427,-10.134601765435626 L-15.2021709762485,-10.060157742489567 L-15.271565711971906,-9.984529399473177 L-15.334638344700819,-9.907819230248025 L-15.391303396459255,-9.83013119479991 L-15.441484073022473,-9.751570578349067 L-15.485112367990855,-9.672243848664412 L-15.522129154954293,-9.592258511775121 L-15.552484267622116,-9.511722966275162 L-15.576136567809993,-9.430746356418167 L-15.593054001191662,-9.349438424201782 L-15.603213640739959,-9.267909360641925 L-15.606601717798211,-9.186269656438544 " />
			<path d="M-15.606601717798211,-9.186269656438524 L-15.605095811279233,-9.131836355654311 L-15.600578998824073,-9.077435843455097 L-15.593054001191662,-9.023100888675266 L-15.582525351159196,-8.968864220659862 L-15.568999390791761,-8.914758509549658 L-15.552484267622116,-8.860816346601887 L-15.532989929742918,-8.807070224558476 L-15.510528119814364,-8.753552518073649 L-15.485112367990855,-8.700295464212639 L-15.456757983770931,-8.647331143033279 L-15.42548204677541,-8.594691458262185 L-15.391303396459255,-8.54240811807714 L-15.354242620763394,-8.490512616007269 L-15.314322043713315,-8.439036211962524 L-15.271565711971906,-8.388009913403872 L-15.225999380354645,-8.33746445666557 L-15.177650496315865,-8.28743028844074 L-15.126548183415428,-8.237937547441424 L-15.072723223775789,-8.189016046244145 L-15.016208039539986,-8.140695253331934 L-14.957036673341769,-8.09300427534361 L-14.895244767799571,-8.04597183954103 L-14.830869544046747,-7.999626276504868 L-14.763949779310938,-7.953995503069325 L-14.622639375201437,-7.864987822967554 L-14.471653984611896,-7.779163226533234 L-14.311357344573008,-7.696728472736524 L-14.142135623730953,-7.617882154119753 " />
			<path d="M-7.071067811865474,-10.754657158757295 L14.142135623730953,-1.344332144844656 " />
			<path d="M7.071067811865477,1.79244285979289 L7.2035967288209495,1.8491080847061667 L7.340737503029331,1.9035709880740093 L7.482304277086283,1.9557577600910472 L7.6281051953360475,2.005597675635274 L7.7779426638801485,2.053023190116914 L7.931613618362729,2.0979700310169305 L8.088909799169627,2.1403772849911253 L8.249618033668225,2.1801874804217816 L8.413520525105575,2.2173466653049703 L8.580395147773265,2.2518044803679684 L8.750015748039027,2.283514227317699 L8.922152450837114,2.312432932127697 L9.096571971202074,2.3385214032778343 L9.273037930423722,2.361744284867875 L9.451311176394858,2.382070104532882 L9.631150107717573,2.3994713160955374 L9.812311001128908,2.413924336897568 L9.994548341802133,2.425409579759693 L10.177615156076016,2.4339114795267727 L10.361263346161126,2.4394185141621865 L10.545244026369616,2.441923220362851 L10.729307860412776,2.4414222036737203 L10.913205399309259,2.437916143088054 L11.096687419446019,2.4314097901272262 L11.279505260333845,2.421911962401317 L11.461411161599722,2.4094355316592146 L11.642158598759309,2.393997406344426 L11.821502617314534,2.375618508680231 L11.99920016472348,2.3543237463152433 L12.175010419792672,2.3301419785677937 L12.348695119045388,2.3031059773148965 L12.520018879623663,2.273252382578788 L12.6887495182864,2.2406216528712415 L12.854658366071249,2.205258010362942 L13.017520578193828,2.167209380952242 L13.177115438764323,2.126527329314504 L13.333226659908448,2.0832669890200606 L13.485642674887442,2.037486987815507 L13.634156924819841,1.9892493681695653 L13.778568138616443,1.938619503191223 L13.918680605749074,1.8856660080340781 L14.054304441483549,1.8304606469069695 L14.18525584421731,1.773078235816907 L14.311357344573011,1.7135965411761163 L14.43243804591051,1.6520961744105969 L14.548333855931247,1.5886604827130322 L14.65888770906119,1.52337543608811 L14.763949779310941,1.4563295108433165 L14.86337768332454,1.3876135696831196 L14.957036673341772,1.3173207385690322 L15.044799819812486,1.245546280512436 L15.126548183415432,1.1723874664712173 L15.202170976248503,1.0979434435251596 L15.27156571197191,1.0223151005087687 L15.33463834470082,0.9456049312836183 L15.391303396459259,0.8679168958355014 L15.441484073022476,0.7893562793846592 L15.485112367990858,0.7100295497000033 L15.522129154954296,0.6300442128107132 L15.55248426762212,0.5495086673107552 L15.576136567809996,0.46853205745376125 L15.593054001191666,0.3872241252373749 L15.603213640739963,0.30569506167751687 L15.606601717798215,0.22405535747412697 " />
			<path d="M15.606601717798215,0.22405535747411712 L15.605095811279236,0.16962205668990343 L15.600578998824076,0.11522154449068996 L15.593054001191666,0.06088658971085928 L15.5825253511592,0.00664992169545503 L15.568999390791765,-0.04745578941474898 L15.55248426762212,-0.10139795236252191 L15.532989929742921,-0.15514407440593236 L15.510528119814367,-0.2086617808907582 L15.485112367990858,-0.26191883475176914 L15.456757983770935,-0.3148831559311286 L15.425482046775414,-0.36752284070222185 L15.39130339645926,-0.4198061808872673 L15.354242620763399,-0.4717016829571373 L15.31432204371332,-0.5231780870018831 L15.27156571197191,-0.5742043855605347 L15.225999380354649,-0.6247498422988375 L15.177650496315868,-0.6747840105236677 L15.12654818341543,-0.724276751522984 L15.072723223775792,-0.7731982527202619 L15.01620803953999,-0.821519045632473 L14.957036673341772,-0.869210023620798 L14.895244767799575,-0.9162424594233769 L14.830869544046752,-0.9625880224595385 L14.763949779310941,-1.0082187958950823 L14.622639375201441,-1.0972264759968529 L14.471653984611901,-1.1830510724311722 L14.311357344573011,-1.2654858262278832 L14.142135623730969,-1.3443321448446492 " />
			<path d="M16.21320343559643,-13.891432163394843 L16.21320343559643,-4.929217864430426 " />
			<path d="M35.00000000000001,-4.481107149482202 L35.00000000000001,4.481107149482215 " />
			<path d="M16.213203435596434,4.929217864430438 L16.213203435596434,13.891432163394855 " />
			<path d="M-35.0,-4.481107149482202 L-35.0,4.481107149482215 " />
			<path d="M-16.21320343559642,-13.891432163394843 L-16.21320343559642,-4.9292178644304245 " />
			<path d="M-16.213203435596427,4.929217864430434 L-16.213203435596427,13.891432163394851 " />
			<path d="M-15.606601717798213,-9.186269656438522 L-15.606601717798213,-0.22405535747410532 " />
			<path d="M15.606601717798217,0.22405535747411598 L15.606601717798217,9.186269656438533 " />

        </g>

        <!-- solid lines -->
        <g  stroke="rgb(0,0,0)" fill="none">
    			<path d="M1.3322676295501878e-15,-29.575307186582577 L1.3322676295501878e-15,-20.61309288761816 " />
			<path d="M1.3322676295501878e-15,-20.61309288761816 L-56.568542494923804,4.481107149482215 " />
			<path d="M-56.568542494923804,-4.481107149482203 L-56.568542494923804,4.481107149482214 " />
			<path d="M1.3322676295501878e-15,-29.575307186582577 L-56.568542494923804,-4.481107149482204 " />
			<path d="M1.3322676295501878e-15,-29.575307186582577 L56.56854249492381,-4.481107149482204 " />
			<path d="M56.568542494923804,-4.481107149482203 L56.568542494923804,4.481107149482214 " />
			<path d="M1.3322676295501878e-15,-20.61309288761816 L56.56854249492381,4.481107149482215 " />
			<path d="M-56.568542494923804,4.481107149482214 L4.138170147187384e-15,29.575307186582588 " />
			<path d="M56.568542494923804,4.481107149482214 L-4.138170147187384e-15,29.575307186582588 " />
			<path d="M17.67766952966369,12.323044661076082 L17.89327063209547,12.226221541196168 L18.106177073786675,12.128232035577632 L18.31635679181032,12.029090901079588 L18.523778133873975,11.928813067992216 L18.72840986308648,11.827413637788334 L18.93022116266211,11.724907880849152 L19.129181640561477,11.621311234164615 L19.32526133406843,11.516639299008663 L19.518430714302365,11.410907838589715 L19.708660690665166,11.304132775676791 L19.895922615222098,11.196330190201628 L20.08018828701613,11.087516316837066 L20.261429956314878,10.977707542552182 L20.439620328789598,10.866920404144475 L20.614732569625637,10.755171585749483 L20.786740307563637,10.642477916328213 L20.955617638870955,10.528856367132757 L21.12133913124268,10.414324049150494 L21.283879827631633,10.298898210527229 L21.443215250006805,10.182596233969686 L21.59932140303967,10.065435634127745 L21.752174777717787,9.94743405495679 L21.901752354885165,9.828609267060603 L22.04803160870888,9.708979165015165 L22.190990510071348,9.588561764673816 L22.330607529887885,9.46737520045411 L22.466861642348846,9.345437722606865 L22.599732328086084,9.22276769446772 L22.729199577263056,9.099383589691701 L22.855243892588266,8.97530398947114 L22.97784629225145,8.850547579737427 L23.096988312782173,8.725133148346988 L23.21265201183039,8.599079582251875 L23.32481997086848,8.472405864655475 L23.43347529781438,8.345131072153725 L23.538601629575524,8.217274371862217 L23.640183134513038,8.088855018529722 L23.73820451482592,7.959892351638489 L23.83265100885485,7.830405792491788 L23.923508393305223,7.700414841289137 L24.01076298538915,7.569939074189646 L24.094401644886,7.4389981403639105 L24.174411776121307,7.307611759034927 L24.250781329863603,7.175799716508445 L24.323498805139007,7.043581863193227 L24.392553250963214,6.910978110611647 L24.45793426799069,6.7780084284010895 L24.519632010080766,6.644692841306593 L24.57763718578041,6.511051426165201 L24.631941059723534,6.377104308882464 L24.68253545394646,6.242871661401545 L24.729412749119525,6.108373698665411 L24.7725658856945,5.973630675572528 L24.811988364967753,5.838662883926547 L24.847674250058905,5.703490649380437 L24.879618166804924,5.5681343283755265 L24.907815304569453,5.432614305075875 L24.932261416967258,5.296950988298505 L24.952952822503732,5.161164808439924 L24.969886405129312,5.0252762143993515 L24.983059614708743,4.889305670499215 L24.99247046740511,4.7532736534032844 L24.998117545978616,4.617200649032971 L25.000000000000004,4.481107149482265 " />
			<path d="M25.000000000000004,4.481107149482216 L24.998117545978616,4.345013649931461 L24.99247046740511,4.208940645561148 L24.983059614708743,4.072908628465218 L24.969886405129312,3.9369380845650803 L24.952952822503732,3.8010494905245085 L24.932261416967258,3.6652633106659267 L24.907815304569453,3.5295999938885565 L24.879618166804928,3.3940799705889058 L24.847674250058905,3.2587236495839953 L24.811988364967753,3.1235514150378854 L24.772565885694505,2.988583623391905 L24.729412749119525,2.8538406002990206 L24.68253545394646,2.719342637562887 L24.631941059723534,2.5851099900819685 L24.57763718578041,2.4511628727992307 L24.519632010080766,2.3175214576578393 L24.457934267990694,2.1842058705633427 L24.392553250963218,2.0512361883527848 L24.323498805139007,1.9186324357712046 L24.250781329863603,1.7864145824559872 L24.174411776121307,1.6546025399295052 L24.094401644886002,1.5232161586005208 L24.01076298538915,1.392275224774786 L23.923508393305227,1.261799457675294 L23.832651008854853,1.1318085064726446 L23.738204514825924,1.0023219473259433 L23.640183134513038,0.8733592804347099 L23.538601629575528,0.744939927102215 L23.43347529781438,0.6170832268107067 L23.32481997086848,0.48980843430895726 L23.212652011830393,0.3631347167125565 L23.096988312782173,0.23708115061744284 L22.97784629225145,0.11166671922700377 L22.85524389258827,-0.013089690506708607 L22.72919957726306,-0.13716929072726902 L22.599732328086084,-0.2605533955032895 L22.46686164234885,-0.3832234236424332 L22.330607529887885,-0.5051609014896794 L22.19099051007135,-0.6263474657093839 L22.04803160870888,-0.7467648660507349 L21.90175235488517,-0.8663949680961718 L21.75217477771779,-0.9852197559923592 L21.599321403039674,-1.1032213351633136 L21.443215250006805,-1.2203819350052543 L21.283879827631633,-1.3366839115627966 L21.121339131242685,-1.4521097501860627 L20.955617638870958,-1.566642068168326 L20.78674030756364,-1.6802636173637806 L20.61473256962564,-1.792957286785052 L20.4396203287896,-1.9047061051800425 L20.26142995631488,-2.0154932435877484 L20.08018828701613,-2.1253020178726336 L19.8959226152221,-2.234115891237198 L19.708660690665166,-2.34191847671236 L19.51843071430237,-2.4486935396252827 L19.325261334068433,-2.5544250000442315 L19.12918164056148,-2.659096935200184 L18.930221162662114,-2.7626935818847205 L18.728409863086487,-2.8651993388239028 L18.52377813387398,-2.9665987690277857 L18.316356791810325,-3.0668766021151557 L18.10617707378668,-3.1660177366132007 L17.893270632095472,-3.264007242231737 L17.677669529663774,-3.3608303621116153 " />
			<path d="M24.748737341529175,-6.497605366749196 L24.616208424573703,-6.554270591662473 L24.479067650365323,-6.608733495030316 L24.33750087630837,-6.660920267047354 L24.191699958058603,-6.7107601825915815 L24.0418624895145,-6.7581856970732215 L23.888191535031922,-6.803132537973237 L23.730895354225026,-6.845539791947433 L23.570187119726427,-6.885349987378089 L23.406284628289075,-6.922509172261278 L23.239410005621387,-6.956966987324277 L23.06978940535562,-6.988676734274008 L22.897652702557536,-7.017595439084006 L22.72323318219258,-7.043683910234142 L22.54676722297093,-7.0669067918241835 L22.368493976999794,-7.08723261148919 L22.188655045677077,-7.104633823051847 L22.007494152265743,-7.119086843853877 L21.825256811592517,-7.130572086716002 L21.64218999731864,-7.139073986483082 L21.45854180723353,-7.144581021118496 L21.274561127025038,-7.14708572731916 L21.090497292981876,-7.14658471063003 L20.90659975408539,-7.143078650044364 L20.723117733948634,-7.136572297083536 L20.54029989306081,-7.127074469357627 L20.358393991794934,-7.114598038615525 L20.177646554635345,-7.099159913300736 L19.998302536080114,-7.080781015636541 L19.820604988671167,-7.059486253271553 L19.64479473360198,-7.0353044855241045 L19.471110034349266,-7.008268484271207 L19.299786273770987,-6.978414889535099 L19.13105563510825,-6.945784159827552 L18.965146787323402,-6.9104205173192526 L18.80228457520082,-6.872371887908552 L18.642689714630325,-6.831689836270814 L18.486578493486206,-6.788429495976372 L18.33416247850721,-6.742649494771818 L18.185648228574806,-6.694411875125876 L18.041237014778204,-6.643782010147533 L17.901124547645573,-6.590828514990388 L17.7655007119111,-6.5356231538632805 L17.63454930917734,-6.478240742773219 L17.50844780882164,-6.418759048132428 L17.38736710748414,-6.357258681366908 L17.2714712974634,-6.293822989669343 L17.160917444333457,-6.2285379430444205 L17.055855374083706,-6.1614920177996275 L16.956427470070107,-6.092776076639431 L16.86276848005288,-6.022483245525343 L16.77500533358216,-5.950708787468748 L16.693256969979213,-5.877549973427528 L16.617634177146144,-5.803105950481469 L16.548239441422737,-5.72747760746508 L16.485166808693826,-5.650767438239931 L16.428501756935386,-5.573079402791813 L16.37832108037217,-5.49451878634097 L16.33469278540379,-5.415192056656313 L16.297675998440347,-5.335206719767023 L16.267320885772527,-5.254671174267066 L16.24366858558465,-5.173694564410073 L16.22675115220298,-5.092386632193687 L16.21659151265468,-5.010857568633828 L16.21320343559643,-4.929217864430447 " />
			<path d="M16.21320343559643,-4.929217864430426 L16.21470934211541,-4.874784563646212 L16.219226154570567,-4.820384051446998 L16.22675115220298,-4.766049096667167 L16.237279802235445,-4.711812428651764 L16.25080576260288,-4.6577067175415605 L16.267320885772527,-4.603764554593788 L16.286815223651722,-4.550018432550377 L16.30927703358028,-4.496500726065551 L16.33469278540379,-4.44324367220454 L16.363047169623712,-4.39027935102518 L16.394323106619233,-4.337639666254087 L16.428501756935386,-4.285356326069041 L16.465562532631246,-4.23346082399917 L16.50548310968133,-4.181984419954425 L16.548239441422737,-4.130958121395773 L16.593805773039996,-4.080412664657471 L16.642154657078777,-4.0303784964326415 L16.693256969979213,-3.9808857554333246 L16.747081929618854,-3.9319642542360467 L16.803597113854657,-3.8836434613238353 L16.862768480052875,-3.83595248333551 L16.924560385595072,-3.788920047532931 L16.988935609347898,-3.742574484496769 L17.055855374083706,-3.6969437110612255 L17.19716577819321,-3.607936030959454 L17.34815116878275,-3.5221114345251356 L17.508447808821636,-3.439676680728425 L17.677669529663692,-3.3608303621116535 " />
			<path d="M24.748737341529164,-6.497605366749202 L25.05057888493366,-6.362052998917317 L25.348647903301337,-6.224867691051372 L25.642899508534455,-6.086070102754103 L25.933289387423585,-5.945681136431778 L26.219773808321083,-5.803721934146349 L26.50230962772697,-5.660213874431488 L26.780854296786085,-5.515178569073138 L27.0553658676958,-5.368637859854811 L27.325803000023306,-5.220613815268285 L27.59212496693123,-5.071128727190194 L27.85429166131094,-4.920205107524962 L28.11226360182258,-4.767865684814579 L28.366001938840817,-4.614133400815746 L28.615468460305433,-4.45903140704495 L28.860625597475895,-4.302583061291957 L29.101436430589086,-4.144811924102184 L29.337864694419324,-3.9857417552285526 L29.569874783739753,-3.8253965100533787 L29.79743175868429,-3.6638003359808007 L30.020501350009525,-3.5009775688002476 L30.239049964255532,-3.3369527290215366 L30.4530446888049,-3.1717505181821943 L30.66245329683924,-3.0053958151275255 L30.867244252192425,-2.8379136722639196 L31.06738671409988,-2.6693293117860337 L31.262850541843033,-2.4996681218784422 L31.45360629928839,-2.328955652892292 L31.639625259320514,-2.1572176134974965 L31.82087940816827,-1.984479866811073 L31.99734144962357,-1.8107684265022828 L32.16898480915202,-1.6361094528750852 L32.335783637895034,-1.4605292489284771 L32.49771281656254,-1.2840542563953248 L32.65474795921586,-1.1067110517603647 L32.80686541694013,-0.928526342257908 L32.95404228140573,-0.7495269618498037 L33.09625638831824,-0.5697398671843166 L33.23348632075628,-0.3891921335365831 L33.365711412396784,-0.20791095073119514 L33.49291175062731,-0.025923619047492963 L33.6150681795448,0.1567424548917895 L33.73216230284039,0.34005976224782497 L33.84417648656983,0.5240006961084096 L33.951093861809035,0.7085375556454769 L34.052898327194605,0.8936425502867884 L34.1495745513485,1.079287803901007 L34.24110797518697,1.2654453589957817 L34.32748481411307,1.4520871809280833 L34.40869206009258,1.6391851621260378 L34.48471748361295,1.8267111263218645 L34.55554963552505,2.0146368327951567 L34.621177848767346,2.202933980625751 L34.68159223997231,2.391574212955782 L34.73678371095485,2.5805291212601613 L34.78674395008247,2.769770249624716 L34.8314654335269,2.959269099031583 L34.87094142639724,3.148997131651088 L34.905165983754166,3.3389257751394057 L34.93413395150523,3.529026426941427 L34.95784096718104,3.7192704585982206 L34.976283460592235,3.909629220058406 L34.989458654367155,4.1000740439927155 L34.997364564370066,4.290576250111162 L35.00000000000001,4.481107149482074 " />
			<path d="M35.00000000000001,4.481107149482218 L34.997364564370066,4.671638048853276 L34.989458654367155,4.862140254971715 L34.97628346059224,5.052585078906018 L34.95784096718104,5.242943840366211 L34.93413395150523,5.433187872023012 L34.905165983754166,5.6232885238250265 L34.87094142639724,5.813217167313339 L34.831465433526894,6.002945199932851 L34.78674395008247,6.192444049339726 L34.73678371095485,6.381685177704274 L34.68159223997231,6.5706400860086465 L34.62117784876734,6.759280318338686 L34.55554963552505,6.947577466169275 L34.48471748361295,7.13550317264256 L34.40869206009258,7.323029136838393 L34.32748481411307,7.510127118036342 L34.24110797518697,7.6967689399686385 L34.1495745513485,7.88292649506342 L34.05289832719461,8.068571748677632 L33.95109386180905,8.253676743318938 L33.84417648656983,8.438213602856013 L33.7321623028404,8.622154536716591 L33.61506817954481,8.80547184407262 L33.492911750627314,8.98813791801191 L33.36571141239679,9.170125249695621 L33.233486320756285,9.351406432501003 L33.09625638831825,9.53195416614873 L32.954042281405734,9.711741260814225 L32.80686541694013,9.890740641222337 L32.65474795921587,10.068925350724786 L32.49771281656255,10.246268555359741 L32.33578363789504,10.4227435478929 L32.16898480915202,10.598323751839516 L31.997341449623573,10.772982725466708 L31.820879408168285,10.946694165775492 L31.639625259320518,11.119431912461923 L31.453606299288385,11.291169951856723 L31.262850541843036,11.46188242084287 L31.067386714099886,11.631543610750455 L30.867244252192425,11.800127971228347 L30.66245329683923,11.967610114091961 L30.4530446888049,12.133964817146623 L30.23904996425554,12.299167027985959 L30.020501350009525,12.463191867764678 L29.797431758684283,12.626014634945236 L29.56987478373975,12.78761080901781 L29.337864694419334,12.947956054192979 L29.101436430589082,13.107026223066617 L28.860625597475885,13.264797360256395 L28.61546846030543,13.421245706009383 L28.366001938840817,13.576347699780175 L28.112263601822573,13.730079983779014 L27.85429166131092,13.8824194064894 L27.592124966931216,14.033343026154629 L27.325803000023306,14.182828114232715 L27.055365867695794,14.330852158819248 L26.78085429678606,14.47739286803758 L26.502309627726955,14.622428173395926 L26.219773808321076,14.76593623311078 L25.933289387423567,14.907895435396217 L25.642899508534448,15.048284401718535 L25.348647903301345,15.1870819900158 L25.05057888493365,15.324267297881752 L24.74873734152919,15.459819665713619 " />
			<path d="M17.677669529663696,12.323044661076084 L17.508447808821636,12.401890979692858 L17.348151168782746,12.48432573348957 L17.197165778193206,12.570150329923887 L17.055855374083706,12.659158010025658 L16.988935609347898,12.704788783461202 L16.924560385595072,12.751134346497365 L16.86276848005288,12.798166782299942 L16.803597113854657,12.845857760288268 L16.747081929618858,12.89417855320048 L16.693256969979217,12.943100054397757 L16.64215465707878,12.992592795397073 L16.593805773040003,13.042626963621903 L16.54823944142274,13.093172420360204 L16.505483109681332,13.144198718918856 L16.465562532631253,13.195675122963602 L16.42850175693539,13.247570625033472 L16.394323106619236,13.299853965218517 L16.363047169623716,13.352493649989611 L16.334692785403796,13.40545797116897 L16.309277033580283,13.458715025029981 L16.28681522365173,13.512232731514807 L16.267320885772534,13.565978853558217 L16.250805762602887,13.619921016505991 L16.237279802235452,13.674026727616193 L16.226751152202986,13.728263395631597 L16.219226154570574,13.782598350411428 L16.214709342115416,13.83699886261064 L16.213203435596437,13.891432163394835 " />
			<path d="M16.213203435596437,13.891432163394855 L16.216591512654688,13.973071867598255 L16.226751152202986,14.054600931158113 L16.243668585584658,14.1359088633745 L16.267320885772534,14.216885473231493 L16.297675998440354,14.297421018731452 L16.334692785403796,14.37740635562074 L16.378321080372174,14.456733085305396 L16.428501756935393,14.535293701756238 L16.48516680869383,14.612981737204356 L16.548239441422744,14.689691906429507 L16.617634177146147,14.765320249445898 L16.69325696997922,14.839764272391955 L16.775005333582165,14.912923086433175 L16.86276848005288,14.98469754448977 L16.95642747007011,15.054990375603857 L17.05585537408371,15.123706316764054 L17.160917444333464,15.190752242008848 L17.271471297463403,15.25603728863377 L17.387367107484142,15.319472980331334 L17.50844780882164,15.380973347096853 L17.63454930917734,15.440455041737644 L17.765500711911102,15.497837452827707 L17.901124547645576,15.553042813954816 L18.041237014778208,15.60599630911196 L18.185648228574806,15.656626174090302 L18.334162478507206,15.704863793736244 L18.4865784934862,15.750643794940798 L18.642689714630325,15.793904135235241 L18.80228457520082,15.83458618687298 L18.9651467873234,15.872634816283679 L19.131055635108247,15.90799845879198 L19.299786273770984,15.940629188499525 L19.47111003434926,15.970482783235633 L19.644794733601977,15.99751878448853 L19.820604988671167,16.02170055223598 L19.998302536080114,16.04299531460097 L20.177646554635338,16.061374212265164 L20.358393991794927,16.076812337579952 L20.5402998930608,16.089288768322056 L20.72311773394863,16.098786596047965 L20.906599754085388,16.105292949008792 L21.09049729298187,16.108799009594456 L21.27456112702503,16.109300026283588 L21.458541807233523,16.106795320082924 L21.64218999731863,16.10128828544751 L21.82525681159251,16.09278638568043 L22.007494152265735,16.081301142818305 L22.18865504567707,16.066848122016275 L22.368493976999787,16.04944691045362 L22.54676722297092,16.029121090788614 L22.72323318219257,16.005898209198573 L22.89765270255753,15.979809738048438 L23.069789405355618,15.950891033238438 L23.23941000562138,15.919181286288708 L23.406284628289068,15.88472347122571 L23.57018711972642,15.847564286342521 L23.730895354225016,15.807754090911866 L23.888191535031915,15.76534683693767 L24.041862489514497,15.720399996037655 L24.191699958058596,15.672974481556015 L24.33750087630836,15.623134566011789 L24.479067650365316,15.57094779399475 L24.616208424573696,15.516484890626908 L24.748737341529154,15.459819665713638 " />
			<path d="M-24.74873734152915,15.459819665713628 L-25.05057888493364,15.324267297881748 L-25.34864790330133,15.1870819900158 L-25.642899508534434,15.048284401718536 L-25.93328938742355,14.907895435396217 L-26.219773808321055,14.765936233110782 L-26.50230962772694,14.622428173395924 L-26.780854296786053,14.477392868037574 L-27.055365867695784,14.330852158819242 L-27.325803000023296,14.182828114232713 L-27.59212496693122,14.03334302615462 L-27.85429166131092,13.882419406489394 L-28.112263601822566,13.730079983779005 L-28.366001938840814,13.576347699780166 L-28.615468460305422,13.421245706009378 L-28.860625597475877,13.264797360256388 L-29.101436430589075,13.107026223066612 L-29.337864694419324,12.947956054192975 L-29.56987478373974,12.787610809017806 L-29.797431758684272,12.626014634945234 L-30.020501350009514,12.463191867764674 L-30.239049964255525,12.299167027985956 L-30.453044688804887,12.133964817146621 L-30.662453296839224,11.967610114091952 L-30.86724425219242,11.800127971228342 L-31.067386714099882,11.631543610750448 L-31.262850541843036,11.461882420842857 L-31.45360629928838,11.291169951856713 L-31.639625259320514,11.119431912461911 L-31.82087940816828,10.946694165775483 L-31.99734144962357,10.772982725466697 L-32.16898480915202,10.598323751839507 L-32.335783637895034,10.422743547892892 L-32.49771281656254,10.246268555359734 L-32.654747959215854,10.06892535072478 L-32.80686541694012,9.890740641222328 L-32.95404228140572,9.711741260814218 L-33.09625638831824,9.531954166148726 L-33.23348632075628,9.351406432500998 L-33.365711412396784,9.170125249695609 L-33.49291175062731,8.988137918011901 L-33.6150681795448,8.805471844072613 L-33.73216230284039,8.622154536716575 L-33.84417648656982,8.438213602855999 L-33.95109386180904,8.253676743318923 L-34.052898327194605,8.068571748677618 L-34.14957455134849,7.882926495063407 L-34.241107975186964,7.696768939968625 L-34.32748481411306,7.51012711803633 L-34.40869206009257,7.323029136838382 L-34.48471748361294,7.135503172642549 L-34.55554963552504,6.947577466169264 L-34.62117784876733,6.759280318338676 L-34.6815922399723,6.570640086008638 L-34.736783710954846,6.3816851777042665 L-34.78674395008245,6.192444049339719 L-34.83146543352689,6.002945199932845 L-34.87094142639722,5.813217167313333 L-34.90516598375415,5.623288523825022 L-34.93413395150522,5.433187872023008 L-34.95784096718103,5.242943840366207 L-34.97628346059223,5.052585078906015 L-34.98945865436714,4.862140254971712 L-34.99736456437005,4.671638048853267 L-34.99999999999999,4.481107149482279 " />
			<path d="M-34.99999999999999,4.48110714948221 L-34.99736456437005,4.290576250111154 L-34.98945865436714,4.1000740439927075 L-34.97628346059222,3.909629220058405 L-34.95784096718103,3.719270458598213 L-34.93413395150522,3.5290264269414124 L-34.90516598375415,3.3389257751393986 L-34.87094142639722,3.148997131651087 L-34.83146543352688,2.9592690990315758 L-34.78674395008245,2.7697702496247016 L-34.73678371095484,2.580529121260154 L-34.6815922399723,2.391574212955781 L-34.621177848767324,2.202933980625743 L-34.55554963552503,2.014636832795156 L-34.48471748361293,1.8267111263218703 L-34.40869206009256,1.6391851621260374 L-34.327484814113056,1.452087180928089 L-34.241107975186964,1.2654453589957941 L-34.14957455134849,1.0792878039010128 L-34.0528983271946,0.8936425502868008 L-33.951093861809035,0.7085375556454965 L-33.84417648656982,0.524000696108422 L-33.73216230284039,0.3400597622478436 L-33.61506817954479,0.15674245489180727 L-33.4929117506273,-0.02592361904748053 L-33.36571141239678,-0.20791095073118981 L-33.23348632075627,-0.3891921335365778 L-33.09625638831823,-0.569739867184305 L-32.95404228140571,-0.7495269618497975 L-32.806865416940106,-0.9285263422579089 L-32.65474795921585,-1.1067110517603584 L-32.49771281656253,-1.2840542563953123 L-32.33578363789503,-1.4605292489284718 L-32.16898480915201,-1.6361094528750861 L-31.99734144962356,-1.8107684265022774 L-31.82087940816827,-1.9844798668110624 L-31.639625259320503,-2.157217613497491 L-31.453606299288374,-2.328955652892292 L-31.262850541843026,-2.499668121878436 L-31.06738671409988,-2.669329311786023 L-30.867244252192418,-2.837913672263915 L-30.66245329683922,-3.0053958151275264 L-30.45304468880489,-3.171750518182188 L-30.23904996425553,-3.336952729021525 L-30.020501350009514,-3.5009775688002414 L-29.797431758684272,-3.6638003359808007 L-29.569874783739742,-3.8253965100533733 L-29.33786469441932,-3.9857417552285472 L-29.101436430589068,-4.144811924102184 L-28.860625597475874,-4.302583061291962 L-28.61546846030541,-4.459031407044957 L-28.3660019388408,-4.614133400815746 L-28.112263601822555,-4.767865684814584 L-27.854291661310906,-4.920205107524973 L-27.592124966931202,-5.0711287271901995 L-27.325803000023292,-5.220613815268287 L-27.05536586769578,-5.368637859854816 L-26.78085429678605,-5.515178569073148 L-26.502309627726945,-5.660213874431493 L-26.21977380832106,-5.803721934146349 L-25.933289387423553,-5.945681136431785 L-25.642899508534438,-6.086070102754103 L-25.348647903301334,-6.224867691051367 L-25.050578884933643,-6.362052998917317 L-24.748737341529267,-6.497605366749147 " />
			<path d="M-17.67766952966369,-3.360830362111648 L-17.508447808821632,-3.4396766807284216 L-17.348151168782742,-3.522111434525132 L-17.1971657781932,-3.6079360309594515 L-17.0558553740837,-3.6969437110612215 L-16.988935609347887,-3.742574484496765 L-16.924560385595065,-3.788920047532928 L-16.862768480052864,-3.8359524833355074 L-16.803597113854646,-3.8836434613238326 L-16.747081929618844,-3.9319642542360436 L-16.693256969979206,-3.9808857554333215 L-16.64215465707877,-4.030378496432638 L-16.59380577303999,-4.080412664657468 L-16.548239441422727,-4.1309581213957705 L-16.505483109681315,-4.181984419954422 L-16.46556253263124,-4.2334608239991685 L-16.428501756935376,-4.285356326069038 L-16.394323106619222,-4.337639666254083 L-16.363047169623698,-4.390279351025177 L-16.334692785403778,-4.443243672204538 L-16.309277033580265,-4.496500726065549 L-16.286815223651715,-4.550018432550375 L-16.267320885772513,-4.603764554593785 L-16.25080576260287,-4.657706717541558 L-16.237279802235435,-4.711812428651762 L-16.22675115220297,-4.7660490966671665 L-16.219226154570556,-4.820384051446997 L-16.2147093421154,-4.874784563646211 L-16.21320343559642,-4.929217864430415 " />
			<path d="M-16.21320343559642,-4.9292178644304245 L-16.216591512654674,-5.010857568633825 L-16.22675115220297,-5.0923866321936835 L-16.24366858558464,-5.173694564410068 L-16.267320885772513,-5.254671174267063 L-16.29767599844034,-5.335206719767021 L-16.334692785403774,-5.415192056656311 L-16.37832108037216,-5.494518786340968 L-16.428501756935376,-5.57307940279181 L-16.485166808693812,-5.650767438239926 L-16.548239441422727,-5.727477607465078 L-16.61763417714613,-5.803105950481467 L-16.693256969979203,-5.877549973427525 L-16.77500533358215,-5.950708787468745 L-16.862768480052864,-6.02248324552534 L-16.956427470070096,-6.092776076639428 L-17.055855374083695,-6.161492017799625 L-17.160917444333446,-6.228537943044419 L-17.27147129746339,-6.293822989669341 L-17.387367107484128,-6.357258681366906 L-17.508447808821625,-6.418759048132426 L-17.634549309177327,-6.478240742773216 L-17.765500711911088,-6.535623153863278 L-17.901124547645562,-6.5908285149903865 L-18.041237014778194,-6.643782010147531 L-18.185648228574795,-6.694411875125874 L-18.334162478507196,-6.742649494771816 L-18.486578493486192,-6.78842949597637 L-18.642689714630315,-6.831689836270812 L-18.802284575200808,-6.87237188790855 L-18.965146787323388,-6.91042051731925 L-19.131055635108236,-6.94578415982755 L-19.299786273770977,-6.978414889535097 L-19.471110034349252,-7.0082684842712055 L-19.644794733601966,-7.035304485524103 L-19.820604988671157,-7.059486253271551 L-19.998302536080104,-7.080781015636539 L-20.17764655463533,-7.099159913300734 L-20.35839399179492,-7.114598038615522 L-20.540299893060798,-7.127074469357625 L-20.723117733948623,-7.136572297083534 L-20.906599754085377,-7.143078650044362 L-21.090497292981862,-7.146584710630028 L-21.274561127025024,-7.147085727319158 L-21.458541807233516,-7.144581021118494 L-21.642189997318628,-7.13907398648308 L-21.825256811592507,-7.1305720867160005 L-22.00749415226573,-7.119086843853875 L-22.188655045677066,-7.104633823051845 L-22.36849397699978,-7.087232611489189 L-22.54676722297092,-7.066906791824183 L-22.72323318219257,-7.043683910234141 L-22.897652702557526,-7.017595439084005 L-23.06978940535561,-6.988676734274007 L-23.239410005621373,-6.956966987324275 L-23.406284628289065,-6.922509172261277 L-23.570187119726416,-6.8853499873780875 L-23.730895354225016,-6.845539791947431 L-23.88819153503191,-6.803132537973236 L-24.04186248951449,-6.758185697073221 L-24.191699958058592,-6.710760182591581 L-24.337500876308358,-6.660920267047353 L-24.47906765036531,-6.6087334950303145 L-24.616208424573692,-6.554270591662471 L-24.748737341529132,-6.49760536674921 " />
			<path d="M-17.677669529663678,-3.3608303621116553 L-17.89327063209546,-3.264007242231737 L-18.106177073786657,-3.166017736613206 L-18.316356791810314,-3.0668766021151566 L-18.52377813387398,-2.966598769027782 L-18.728409863086476,-2.8651993388239037 L-18.93022116266211,-2.762693581884717 L-19.12918164056148,-2.6590969352001803 L-19.32526133406842,-2.5544250000442323 L-19.51843071430235,-2.4486935396252862 L-19.708660690665152,-2.3419184767123635 L-19.89592261522209,-2.234115891237198 L-20.080188287016117,-2.125302017872638 L-20.26142995631486,-2.0154932435877573 L-20.439620328789584,-1.904706105180047 L-20.61473256962563,-1.7929572867850512 L-20.786740307563623,-1.6802636173637842 L-20.955617638870937,-1.566642068168334 L-21.12133913124267,-1.4521097501860671 L-21.283879827631626,-1.3366839115627966 L-21.443215250006794,-1.2203819350052587 L-21.599321403039653,-1.1032213351633224 L-21.752174777717777,-0.9852197559923637 L-21.90175235488516,-0.8663949680961718 L-22.048031608708865,-0.7467648660507393 L-22.190990510071334,-0.6263474657093919 L-22.33060752988787,-0.5051609014896838 L-22.46686164234884,-0.3832234236424332 L-22.59973232808607,-0.2605533955032939 L-22.729199577263042,-0.13716929072727702 L-22.855243892588256,-0.013089690506713048 L-22.977846292251435,0.11166671922699933 L-23.096988312782155,0.23708115061743396 L-23.21265201183037,0.36313471671254316 L-23.324819970868457,0.4898084343089435 L-23.433475297814365,0.6170832268106983 L-23.538601629575506,0.7449399271022012 L-23.640183134513016,0.8733592804346917 L-23.738204514825902,1.00232194732593 L-23.832651008854835,1.1318085064726362 L-23.92350839330521,1.2617994576752807 L-24.01076298538913,1.3922752247747674 L-24.094401644885984,1.5232161586005075 L-24.174411776121293,1.6546025399294964 L-24.250781329863585,1.7864145824559734 L-24.323498805138993,1.9186324357711957 L-24.392553250963203,2.0512361883527803 L-24.45793426799068,2.184205870563334 L-24.519632010080752,2.317521457657835 L-24.5776371857804,2.451162872799231 L-24.63194105972352,2.585109990081964 L-24.68253545394645,2.719342637562887 L-24.72941274911952,2.8538406002990264 L-24.772565885694494,2.9885836233919054 L-24.811988364967743,3.123551415037891 L-24.847674250058894,3.258723649584001 L-24.879618166804917,3.394079970588906 L-24.907815304569443,3.529599993888553 L-24.932261416967247,3.6652633106659227 L-24.952952822503722,3.8010494905245094 L-24.9698864051293,3.9369380845650763 L-24.98305961470873,4.072908628465209 L-24.9924704674051,4.208940645561143 L-24.998117545978605,4.345013649931462 L-24.999999999999993,4.4811071494821135 " />
			<path d="M-24.999999999999993,4.481107149482216 L-24.998117545978605,4.617200649032972 L-24.9924704674051,4.753273653403285 L-24.983059614708733,4.889305670499216 L-24.9698864051293,5.025276214399354 L-24.952952822503722,5.161164808439927 L-24.932261416967247,5.296950988298509 L-24.907815304569443,5.432614305075874 L-24.879618166804914,5.568134328375526 L-24.847674250058894,5.703490649380436 L-24.811988364967743,5.838662883926542 L-24.772565885694494,5.973630675572523 L-24.729412749119515,6.1083736986654085 L-24.68253545394645,6.2428716614015425 L-24.631941059723523,6.377104308882461 L-24.5776371857804,6.511051426165199 L-24.519632010080752,6.6446928413065915 L-24.45793426799068,6.778008428401089 L-24.392553250963203,6.910978110611648 L-24.323498805138996,7.043581863193227 L-24.250781329863592,7.175799716508445 L-24.174411776121296,7.307611759034928 L-24.094401644885988,7.438998140363912 L-24.01076298538914,7.569939074189648 L-23.923508393305212,7.70041484128914 L-23.832651008854835,7.830405792491791 L-23.738204514825906,7.9598923516384925 L-23.640183134513023,8.088855018529726 L-23.53860162957551,8.217274371862223 L-23.433475297814365,8.34513107215373 L-23.324819970868464,8.47240586465548 L-23.21265201183038,8.599079582251877 L-23.096988312782162,8.725133148346991 L-22.977846292251435,8.85054757973743 L-22.855243892588256,8.975303989471138 L-22.72919957726305,9.0993835896917 L-22.599732328086073,9.22276769446772 L-22.466861642348835,9.345437722606864 L-22.330607529887875,9.46737520045411 L-22.190990510071337,9.588561764673816 L-22.048031608708865,9.708979165015167 L-21.901752354885154,9.828609267060607 L-21.752174777717777,9.947434054956794 L-21.59932140303966,10.065435634127747 L-21.443215250006794,10.182596233969688 L-21.28387982763162,10.29889821052723 L-21.121339131242667,10.414324049150498 L-20.95561763887094,10.52885636713276 L-20.78674030756362,10.642477916328216 L-20.614732569625623,10.755171585749487 L-20.439620328789584,10.86692040414448 L-20.26142995631486,10.977707542552187 L-20.080188287016114,11.087516316837071 L-19.895922615222077,11.196330190201635 L-19.708660690665145,11.304132775676798 L-19.518430714302347,11.410907838589718 L-19.32526133406841,11.516639299008666 L-19.12918164056146,11.621311234164619 L-18.9302211626621,11.724907880849152 L-18.72840986308647,11.827413637788336 L-18.52377813387396,11.92881306799222 L-18.316356791810307,12.029090901079588 L-18.106177073786657,12.128232035577636 L-17.893270632095454,12.226221541196171 L-17.677669529663696,12.323044661076077 " />
			<path d="M-24.748737341529147,15.459819665713633 L-24.616208424573674,15.51648489062691 L-24.47906765036529,15.570947793994751 L-24.33750087630834,15.623134566011789 L-24.191699958058575,15.672974481556015 L-24.04186248951447,15.720399996037655 L-23.888191535031893,15.76534683693767 L-23.730895354224995,15.807754090911864 L-23.570187119726395,15.847564286342521 L-23.406284628289047,15.884723471225708 L-23.23941000562136,15.919181286288707 L-23.069789405355596,15.950891033238438 L-22.897652702557508,15.979809738048434 L-22.723233182192548,16.005898209198573 L-22.5467672229709,16.029121090788614 L-22.368493976999762,16.049446910453618 L-22.18865504567705,16.066848122016275 L-22.007494152265714,16.081301142818305 L-21.82525681159249,16.092786385680427 L-21.64218999731861,16.10128828544751 L-21.458541807233498,16.10679532008292 L-21.27456112702501,16.109300026283584 L-21.090497292981848,16.108799009594456 L-20.906599754085367,16.10529294900879 L-20.72311773394861,16.09878659604796 L-20.54029989306078,16.08928876832205 L-20.358393991794905,16.07681233757995 L-20.17764655463532,16.061374212265157 L-19.998302536080093,16.042995314600965 L-19.82060498867115,16.021700552235977 L-19.64479473360196,15.997518784488527 L-19.471110034349245,15.97048278323563 L-19.299786273770966,15.940629188499521 L-19.13105563510823,15.907998458791972 L-18.965146787323384,15.872634816283675 L-18.802284575200805,15.834586186872974 L-18.642689714630308,15.793904135235236 L-18.486578493486185,15.750643794940792 L-18.334162478507192,15.704863793736239 L-18.18564822857479,15.656626174090297 L-18.041237014778194,15.605996309111955 L-17.901124547645562,15.55304281395481 L-17.765500711911088,15.497837452827701 L-17.634549309177327,15.44045504173764 L-17.508447808821625,15.380973347096848 L-17.387367107484128,15.31947298033133 L-17.271471297463393,15.256037288633765 L-17.16091744433345,15.190752242008843 L-17.0558553740837,15.12370631676405 L-16.956427470070096,15.054990375603852 L-16.862768480052868,14.984697544489766 L-16.775005333582154,14.91292308643317 L-16.69325696997921,14.839764272391951 L-16.617634177146137,14.765320249445892 L-16.54823944142273,14.689691906429504 L-16.48516680869382,14.612981737204352 L-16.428501756935383,14.535293701756235 L-16.378321080372167,14.456733085305393 L-16.33469278540378,14.377406355620735 L-16.297675998440344,14.297421018731447 L-16.26732088577252,14.216885473231489 L-16.243668585584647,14.135908863374494 L-16.226751152202976,14.05460093115811 L-16.21659151265468,13.973071867598252 L-16.213203435596427,13.891432163394862 " />
			<path d="M-16.213203435596427,13.891432163394851 L-16.214709342115405,13.836998862610638 L-16.219226154570563,13.782598350411424 L-16.226751152202976,13.728263395631593 L-16.23727980223544,13.67402672761619 L-16.250805762602877,13.619921016505987 L-16.26732088577252,13.565978853558214 L-16.286815223651722,13.512232731514803 L-16.309277033580273,13.458715025029978 L-16.33469278540378,13.405457971168968 L-16.363047169623705,13.352493649989608 L-16.394323106619225,13.299853965218515 L-16.428501756935383,13.24757062503347 L-16.465562532631242,13.1956751229636 L-16.50548310968132,13.144198718918853 L-16.54823944142273,13.093172420360201 L-16.59380577303999,13.0426269636219 L-16.64215465707877,12.992592795397073 L-16.693256969979203,12.943100054397757 L-16.747081929618844,12.894178553200478 L-16.803597113854643,12.845857760288267 L-16.862768480052864,12.798166782299942 L-16.924560385595058,12.751134346497363 L-16.988935609347884,12.7047887834612 L-17.05585537408369,12.659158010025656 L-17.19716577819319,12.570150329923887 L-17.34815116878273,12.484325733489568 L-17.508447808821618,12.401890979692858 L-17.67766952966366,12.323044661076091 " />
			<path d="M7.071067811865477,10.754657158757306 L-14.14213562373095,1.3443321448446666 " />
			<path d="M-7.071067811865473,-1.7924428597928794 L-7.203596728820945,-1.8491080847061558 L-7.340737503029326,-1.9035709880739982 L-7.482304277086279,-1.9557577600910365 L-7.628105195336046,-2.005597675635264 L-7.777942663880148,-2.053023190116904 L-7.931613618362725,-2.09797003101692 L-8.08890979916962,-2.1403772849911142 L-8.249618033668222,-2.180187480421771 L-8.413520525105573,-2.2173466653049596 L-8.580395147773263,-2.251804480367958 L-8.750015748039027,-2.283514227317689 L-8.922152450837112,-2.312432932127687 L-9.096571971202069,-2.3385214032778237 L-9.273037930423719,-2.3617442848678643 L-9.451311176394857,-2.382070104532872 L-9.631150107717573,-2.3994713160955268 L-9.812311001128908,-2.4139243368975576 L-9.994548341802131,-2.4254095797596826 L-10.17761515607601,-2.433911479526762 L-10.361263346161122,-2.439418514162176 L-10.545244026369613,-2.4419232203628405 L-10.729307860412776,-2.4414222036737097 L-10.913205399309259,-2.437916143088043 L-11.096687419446017,-2.4314097901272156 L-11.279505260333842,-2.4219119624013064 L-11.461411161599719,-2.409435531659204 L-11.642158598759305,-2.393997406344415 L-11.821502617314534,-2.37561850868022 L-11.999200164723483,-2.354323746315232 L-12.17501041979267,-2.3301419785677826 L-12.348695119045384,-2.303105977314886 L-12.520018879623661,-2.2732523825787774 L-12.6887495182864,-2.24062165287123 L-12.854658366071245,-2.2052580103629316 L-13.017520578193823,-2.167209380952232 L-13.177115438764318,-2.1265273293144933 L-13.333226659908444,-2.08326698902005 L-13.485642674887439,-2.0374869878154955 L-13.634156924819841,-1.9892493681695538 L-13.77856813861644,-1.9386195031912123 L-13.918680605749069,-1.8856660080340684 L-14.054304441483545,-1.830460646906959 L-14.185255844217306,-1.7730782358168964 L-14.311357344573008,-1.7135965411761052 L-14.432438045910509,-1.6520961744105849 L-14.548333855931244,-1.5886604827130217 L-14.658887709061185,-1.5233754360881004 L-14.763949779310938,-1.4563295108433059 L-14.863377683324538,-1.3876135696831082 L-14.957036673341769,-1.3173207385690218 L-15.044799819812479,-1.2455462805124273 L-15.126548183415427,-1.1723874664712077 L-15.2021709762485,-1.097943443525149 L-15.271565711971906,-1.0223151005087585 L-15.334638344700819,-0.9456049312836069 L-15.391303396459255,-0.8679168958354909 L-15.441484073022473,-0.7893562793846498 L-15.485112367990855,-0.710029549699993 L-15.522129154954293,-0.6300442128107029 L-15.552484267622116,-0.5495086673107439 L-15.576136567809993,-0.4685320574537489 L-15.593054001191662,-0.3872241252373646 L-15.603213640739959,-0.30569506167750743 L-15.606601717798211,-0.22405535747412644 " />
			<path d="M-15.606601717798211,-0.22405535747410618 L-15.605095811279233,-0.16962205668989233 L-15.600578998824073,-0.11522154449067866 L-15.593054001191662,-0.06088658971084779 L-15.582525351159196,-0.006649921695444316 L-15.568999390791761,0.047455789414758864 L-15.552484267622116,0.10139795236253196 L-15.532989929742918,0.15514407440594258 L-15.510528119814364,0.20866178089076864 L-15.485112367990855,0.26191883475177974 L-15.456757983770931,0.31488315593113936 L-15.42548204677541,0.36752284070223273 L-15.391303396459255,0.4198061808872783 L-15.354242620763394,0.47170168295714876 L-15.314322043713315,0.5231780870018946 L-15.271565711971906,0.5742043855605463 L-15.225999380354645,0.6247498422988484 L-15.177650496315865,0.6747840105236779 L-15.126548183415428,0.7242767515229943 L-15.072723223775789,0.7731982527202723 L-15.016208039539986,0.8215190456324837 L-14.957036673341769,0.8692100236208089 L-14.895244767799571,0.9162424594233878 L-14.830869544046747,0.9625880224595496 L-14.763949779310938,1.0082187958950934 L-14.622639375201437,1.0972264759968644 L-14.471653984611896,1.1830510724311836 L-14.311357344573008,1.2654858262278936 L-14.142135623730953,1.3443321448446652 " />
			<path d="M-7.071067811865474,-1.792442859792879 L14.142135623730953,7.61788215411976 " />
			<path d="M7.071067811865477,10.754657158757308 L7.2035967288209495,10.811322383670586 L7.340737503029331,10.865785287038427 L7.482304277086283,10.917972059055465 L7.6281051953360475,10.967811974599693 L7.7779426638801485,11.015237489081333 L7.931613618362729,11.060184329981348 L8.088909799169627,11.102591583955544 L8.249618033668225,11.1424017793862 L8.413520525105575,11.179560964269388 L8.580395147773265,11.214018779332386 L8.750015748039027,11.245728526282118 L8.922152450837114,11.274647231092114 L9.096571971202074,11.300735702242253 L9.273037930423722,11.323958583832294 L9.451311176394858,11.3442844034973 L9.631150107717573,11.361685615059955 L9.812311001128908,11.376138635861986 L9.994548341802133,11.38762387872411 L10.177615156076016,11.396125778491191 L10.361263346161126,11.401632813126604 L10.545244026369616,11.40413751932727 L10.729307860412776,11.403636502638138 L10.913205399309259,11.400130442052472 L11.096687419446019,11.393624089091645 L11.279505260333845,11.384126261365735 L11.461411161599722,11.371649830623632 L11.642158598759309,11.356211705308844 L11.821502617314534,11.337832807644649 L11.99920016472348,11.31653804527966 L12.175010419792672,11.292356277532212 L12.348695119045388,11.265320276279315 L12.520018879623663,11.235466681543206 L12.6887495182864,11.20283595183566 L12.854658366071249,11.16747230932736 L13.017520578193828,11.12942367991666 L13.177115438764323,11.088741628278921 L13.333226659908448,11.045481287984478 L13.485642674887442,10.999701286779924 L13.634156924819841,10.951463667133984 L13.778568138616443,10.900833802155642 L13.918680605749074,10.847880306998496 L14.054304441483549,10.792674945871388 L14.18525584421731,10.735292534781324 L14.311357344573011,10.675810840140535 L14.43243804591051,10.614310473375015 L14.548333855931247,10.55087478167745 L14.65888770906119,10.485589735052528 L14.763949779310941,10.418543809807735 L14.86337768332454,10.349827868647537 L14.957036673341772,10.27953503753345 L15.044799819812486,10.207760579476854 L15.126548183415432,10.134601765435635 L15.202170976248503,10.060157742489578 L15.27156571197191,9.984529399473187 L15.33463834470082,9.907819230248036 L15.391303396459259,9.83013119479992 L15.441484073022476,9.751570578349078 L15.485112367990858,9.672243848664422 L15.522129154954296,9.592258511775132 L15.55248426762212,9.511722966275173 L15.576136567809996,9.43074635641818 L15.593054001191666,9.349438424201793 L15.603213640739963,9.267909360641935 L15.606601717798215,9.186269656438546 " />
			<path d="M15.606601717798215,9.186269656438535 L15.605095811279236,9.131836355654322 L15.600578998824076,9.077435843455108 L15.593054001191666,9.023100888675277 L15.5825253511592,8.968864220659873 L15.568999390791765,8.914758509549669 L15.55248426762212,8.860816346601895 L15.532989929742921,8.807070224558485 L15.510528119814367,8.75355251807366 L15.485112367990858,8.70029546421265 L15.456757983770935,8.64733114303329 L15.425482046775414,8.594691458262195 L15.39130339645926,8.542408118077152 L15.354242620763399,8.490512616007281 L15.31432204371332,8.439036211962534 L15.27156571197191,8.388009913403883 L15.225999380354649,8.33746445666558 L15.177650496315868,8.287430288440751 L15.12654818341543,8.237937547441433 L15.072723223775792,8.189016046244156 L15.01620803953999,8.140695253331945 L14.957036673341772,8.09300427534362 L14.895244767799575,8.045971839541041 L14.830869544046752,7.99962627650488 L14.763949779310941,7.9539955030693354 L14.622639375201441,7.864987822967565 L14.471653984611901,7.779163226533246 L14.311357344573011,7.696728472736535 L14.142135623730969,7.617882154119769 " />
			<path d="M25.000000000000004,-4.4811071494822015 L24.998226105399176,-4.613218329136467 L24.992904673332866,-4.745310760686065 L24.98403645897384,-4.877365698686908 L24.971622720824303,-5.009364403015678 L24.955665220537295,-5.141288141529258 L24.936166222666717,-5.273118192723048 L24.913128494345923,-5.404835848387767 L24.88655530489507,-5.536422416264352 L24.85645042535713,-5.667859222696624 L24.822818127962783,-5.799127615281284 L24.785663185524072,-5.930208965514901 L24.74499087075715,-6.061084671437517 L24.700806955533977,-6.191736160272484 L24.653117710063253,-6.322144891062144 L24.601929902000577,-6.4522923572990285 L24.54725079548808,-6.5821600895520795 " />
			<path d="M33.51058315925687,5.329070518200751e-15 L33.35111252806591,0.2283046709337082 L33.183738338338785,0.4554933037753619 L33.00850025447065,0.6815120592817658 L32.82543980444508,0.9063073754476649 L32.63460036999279,1.1298259801988992 L32.43602717631098,1.3520149040168334 L32.229767281345886,1.5728214924910944 L32.01586956464094,1.792193418797627 L31.7943847157533,2.010078696099134 L31.56536522224141,2.2264256898649277 L31.328865357226494,2.4411831301073006 L31.084941166530864,2.6543001235315034 L30.83365045539619,2.865726165596463 L30.575052774784776,3.075411152483359 L30.309209407267165,3.2833053929692495 L30.036183352499357,3.4893596202029107 L29.756039312293144,3.6935250033801204 L29.46884367528304,3.8957531593155856 L29.174664501193483,4.095996163908827 L28.87357150471003,4.294206563501229 L28.565636038958306,4.4903373861216345 L28.250931078594782,4.684342152617784 L27.929531202513136,4.876174887670951 L27.601512576170588,5.065790130691196 L27.266952933538132,5.253142946590636 L26.925931558679157,5.438188936432166 L26.57852926696064,5.620884247951151 L26.22482838590152,5.801185585947534 L25.864912735662678,5.979050222545965 L25.498867609183215,6.154436007321456 L25.126779751967693,6.3273013772882045 L24.74873734152919,6.497605366749202 " />
			<path d="M24.547250795488054,6.582160089552147 L24.64931598854974,6.540502611686664 L24.748737341529154,6.49760536674922 " />
			<path d="M-24.74873734152915,6.497605366749211 L-25.126779751967685,6.327301377288201 L-25.498867609183208,6.154436007321449 L-25.86491273566266,5.979050222545965 L-26.224828385901507,5.8011855859475325 L-26.578529266960626,5.620884247951148 L-26.925931558679135,5.438188936432169 L-27.266952933538114,5.253142946590636 L-27.60151257617057,5.065790130691196 L-27.92953120251312,4.876174887670951 L-28.250931078594768,4.684342152617781 L-28.56563603895829,4.490337386121638 L-28.873571504710007,4.294206563501229 L-29.17466450119347,4.095996163908827 L-29.468843675283015,3.895753159315591 L-29.756039312293122,3.693525003380124 L-30.036183352499336,3.489359620202915 L-30.309209407267144,3.283305392969252 L-30.575052774784762,3.07541115248336 L-30.833650455396167,2.8657261655964694 L-31.084941166530843,2.6543001235315087 L-31.328865357226473,2.441183130107304 L-31.565365222241386,2.2264256898649375 L-31.794384715753274,2.010078696099142 L-32.015869564640916,1.792193418797634 L-32.229767281345865,1.5728214924910997 L-32.43602717631096,1.3520149040168388 L-32.63460036999277,1.1298259801989028 L-32.82543980444506,0.9063073754476676 L-33.00850025447063,0.6815120592817667 L-33.18373833833877,0.4554933037753628 L-33.35111252806589,0.22830467093371443 L-33.510583159256804,7.549516567451064e-14 " />
			<path d="M-24.547250795488043,-6.582160089552133 L-24.601929902000563,-6.452292357299043 L-24.65311771006324,-6.322144891062154 L-24.700806955533967,-6.191736160272487 L-24.744990870757135,-6.061084671437522 L-24.78566318552406,-5.930208965514906 L-24.82281812796277,-5.799127615281289 L-24.85645042535712,-5.667859222696627 L-24.886555304895058,-5.536422416264351 L-24.913128494345912,-5.404835848387762 L-24.936166222666706,-5.273118192723043 L-24.955665220537288,-5.141288141529252 L-24.971622720824293,-5.009364403015683 L-24.98403645897383,-4.877365698686922 L-24.992904673332855,-4.745310760686074 L-24.998226105399166,-4.613218329136472 L-24.999999999999993,-4.481107149482304 " />
			<path d="M-24.748737341529147,6.497605366749216 L-24.649315988549723,6.540502611686664 L-24.547250795488047,6.5821600895521435 " />
			<path d="M17.677669529663696,-3.360830362111651 L17.677669529663696,-6.497605366749202 " />
			<path d="M24.748737341529164,15.45981966571363 L24.748737341529164,6.497605366749212 " />
			<path d="M-24.748737341529147,15.459819665713633 L-24.748737341529147,6.497605366749216 " />
			<path d="M-17.677669529663678,-3.3608303621116526 L-17.677669529663678,-6.4976053667491955 " />
			<path d="M7.071067811865477,10.754657158757306 L7.071067811865477,4.481107149482214 " />
			<path d="M-14.142135623730951,1.344332144844667 L-14.142135623730951,-1.7924428597928785 " />
			<path d="M25.00000000000001,-4.481107149482202 L25.00000000000001,4.481107149482215 " />
			<path d="M-24.999999999999996,-4.4811071494822015 L-24.999999999999996,4.481107149482216 " />

        </g>
        </g>
    </svg>
    