<?xml version='1.0' encoding='utf-8'?>
<svg width="89.719592mm" height="100.089999mm" viewBox="-37.263485 -33.096569 54.10434 60.358092" version="1.1" xmlns="http://www.w3.org/2000/svg">
  <g transform="scale(1,-1)" stroke-linecap="round">
    <g fill="none" stroke="rgb(0,0,0)" stroke-width="0.054273436989446616" id="Visible">
      <path d="M 6.813719,-25.773617 A 5.0,1.460769036921659 0.0 0,1 16.813719,-25.773617" />
      <path d="M 15.632238,32.551687 A 5.0,1.460769036921659 0.0 0,1 6.813719,31.608663" />
      <path d="M 6.813719,31.608663 A 5.0,1.460769036921659 0.0 0,1 16.813719,31.608663" />
      <path d="M 16.813719,31.608663 A 5.0,1.460769036921659 0.0 0,1 15.632238,32.551687" />
      <path d="M 15.041552,1.801928 L 14.479751,2.346068 L 13.866243,2.901291 L 13.212925,3.456828 L 12.53247,4.001906 L 11.838075,4.525953 L 11.143207,5.018804 L 10.461344,5.4709 L 9.805711,5.873474 L 9.189022,6.218717 L 8.62324,6.499933 L 8.119337,6.711669 L 7.687087,6.849816 L 7.334872,6.911698 L 7.069525,6.896112" />
      <path d="M 15.041552,1.801928 L 14.705631,1.31981 L 14.348818,0.849235 L 13.973691,0.393601 L 13.58296,-0.043799 L 13.179447,-0.459807 L 12.766069,-0.851416 L 12.34581,-1.215798 L 11.921707,-1.550319 L 11.496825,-1.852565 L 11.074232,-2.12035 L 10.65698,-2.351741 L 10.248086,-2.545066 L 9.850501,-2.698929 L 9.4671,-2.812217" />
      <path d="M -34.008515,-13.18062 A 5.0,3.0870074830801553 103.87222556376464 0,1 -32.809727,-13.252927" />
      <path d="M -32.809727,-13.252927 A 5.0,3.0870074830801553 103.87222556376464 1,1 -35.207302,-3.544599" />
      <path d="M -35.207302,-3.544599 A 5.0,3.0870074830801553 103.87222556376464 0,1 -34.008515,-13.18062" />
      <line x1="6.813719" y1="31.608663" x2="6.813719" y2="6.832937" />
      <line x1="6.813719" y1="-3.467497" x2="6.813719" y2="-25.773617" />
      <line x1="16.813719" y1="31.608663" x2="16.813719" y2="-25.773617" />
      <line x1="-32.809727" y1="-13.252927" x2="9.4671" y2="-2.812217" />
      <line x1="-35.207302" y1="-3.544599" x2="7.069525" y2="6.896112" />
    </g>
    <g fill="none" stroke="rgb(99,99,99)" stroke-width="0.054273436989446616" id="Hidden" stroke-dasharray="0.001379 0.16351">
      <path d="M 15.632238,-24.830593 A 5.0,1.460769036921659 0.0 0,1 6.813719,-25.773617" />
      <path d="M 16.813719,-25.773617 A 5.0,1.460769036921659 0.0 0,1 15.632238,-24.830593" />
      <path d="M 7.995199,-2.807358 L 7.838265,-2.74427 L 7.691317,-2.666959 L 7.554725,-2.57562 L 7.428832,-2.470481 L 7.313954,-2.351807 L 7.21038,-2.219896 L 7.11837,-2.075079 L 7.038156,-1.917721 L 6.969937,-1.748215 L 6.913888,-1.566989 L 6.870146,-1.374498 L 6.838824,-1.171224 L 6.819999,-0.957679 L 6.813719,-0.7344" />
      <path d="M 6.813719,-0.7344 L 6.823349,-0.44525 L 6.852201,-0.143148 L 6.900164,0.170744 L 6.967054,0.495216 L 7.052613,0.829019 L 7.156511,1.170866 L 7.278349,1.519441 L 7.417656,1.873402 L 7.573896,2.231384 L 7.746468,2.592009 L 7.934706,2.953889 L 8.137886,3.315628 L 8.355225,3.675833 L 8.585885,4.033118" />
      <path d="M 7.069525,6.896112 Q 6.815145,6.831821 6.813719,6.569446" />
      <path d="M 6.813719,6.569446 L 6.823349,6.46153 L 6.852201,6.339964 L 6.900164,6.205215 L 6.967054,6.057802 L 7.052613,5.898293 L 7.156511,5.727302 L 7.278349,5.545488 L 7.417656,5.353552 L 7.573896,5.152232 L 7.746468,4.942304 L 7.934706,4.724577 L 8.137886,4.49989 L 8.355225,4.269107 L 8.585885,4.033118" />
      <path d="M 9.4671,-2.812217 C 8.907136,-2.950259 8.404845,-2.948601 7.995199,-2.807358" />
      <line x1="6.813719" y1="6.832937" x2="6.813719" y2="6.569446" />
      <line x1="6.813719" y1="-0.7344" x2="6.813719" y2="-3.467497" />
    </g>
  </g>
</svg>