<?xml version="1.0" encoding="UTF-8" standalone="no"?>
    <svg
    xmlns:svg="http://www.w3.org/2000/svg"
    xmlns="http://www.w3.org/2000/svg"
    width="330"
    height="183"
    >
        <g transform="scale(4, -4)   translate(39.9360105819399,-23.534444564140042)" stroke-width="0.25"  fill="none">
        <!-- hidden lines -->
        <g  stroke="rgb(160,160,160)" fill="none" stroke-dasharray="0.25,0.25" >
    			<path d="M19.276119532817567,8.517571557164262 L-4.027505619194105,11.9457444974949 " />
			<path d="M-4.027505619194109,11.9457444974949 L-4.027505619194109,21.034444564140042 " />
			<path d="M19.276119532817567,14.831624963771148 L19.276119532817567,8.517571557164263 " />
			<path d="M19.276119532817546,8.517571557164233 L19.20774853307217,8.43390755668406 L19.143643787011577,8.349658045152195 L19.08383408592843,8.264860861457203 L19.028346292086642,8.179554090463036 L18.977205326656804,8.093776045904018 L18.930434158523326,8.007565253177047 L18.888053793968467,7.920960432038707 L18.850083267237792,7.834000479215128 L18.81653963199137,7.7467244509323345 L18.78743795364445,7.659171545374971 L18.762791302601173,7.571381085081254 L18.74261074838426,7.483392499282094 L18.72690535466338,7.395245306192292 L18.715682175184398,7.30697909526176 L18.708946250601308,7.218633509394761 L18.70670060621236,7.1302482271451515 " />
			<path d="M18.70670060621236,7.130248227145133 L18.7078079668252,7.068180426448467 L18.71112980341421,7.006126372039365 L18.71666538028519,6.9440998071609705 L18.724413471462185,6.882114468968263 L18.734372360958986,6.820184085485659 L18.746539843159212,6.758322372566641 L18.76091322330474,6.696543030856074 L18.777489318092574,6.634859742755898 L18.796264456379806,6.573286169394855 L18.817234479996714,6.511835947602932 L18.840394744667655,6.450522686891181 L18.865740121039657,6.389359966437593 L18.893264995818413,6.328361332079689 L18.922963273011483,6.267540293314496 L18.988853245387276,6.146484840904705 L19.063351670230777,6.026300844902438 L19.146392553899016,5.907094769031454 L19.237902335502078,5.788972210735292 L19.33779995206624,5.672037807634885 L19.44599691034275,5.556395144836439 L19.56239736519863,5.44214666317165 L19.686898204520105,5.329393568451579 L19.81938914055334,5.218235741814552 L19.9597528076017,5.10877165124751 L20.107864865992923,5.001098264359181 L20.263594112224094,4.895310962482348 L20.426802595186885,4.791503456181305 L20.597345738370073,4.68976770223934 L20.775072467931153,4.590193822199791 L20.959825346523466,4.492870022532827 L21.151440712760433,4.39788251649868 L21.349748826193263,4.305315447776538 L21.55457401767373,4.215250815926751 L21.76573484496884,4.127768403752398 L21.983044253489517,4.042945706624519 L22.20630974199093,3.9608578638336702 L22.435333533097683,3.8815775920285702 L22.669912748502835,3.805175120800827 L22.909839588685493,3.7317181304727955 L23.154901516987817,3.661271692143679 L23.404881447888382,3.593898210046984 L23.659557939305095,3.5296573662703863 L23.91870538875733,3.4686060678869852 L24.182094233213487,3.4107983965447746 L24.449491152446996,3.356285560558986 L24.72065927572056,3.305115849549742 L24.99535839161563,3.2573345916652046 L25.273345160821094,3.2129841134281207 L25.554373331692886,3.1721037022413134 L25.8381939583934,3.1347295715853485 L26.124555621417517,3.100894828939211 L26.413204650309915,3.070629446452391 L26.70388534837638,3.0439602343943735 L26.99634021919001,3.020910817405044 L27.29031019469171,3.001501613567047 L27.5855348646829,2.985749816318651 L27.881752707507122,2.9736693792231135 L28.178701321716268,2.9652710036080716 L28.47611765851611,2.9605621290858792 L28.773738254785297,2.9595469269633083 L29.07129946646139,2.962226296546439 L29.36853770208716,2.9685978643440203 L29.66518965631031,2.978655986169998 L29.960992543129723,2.992391752143365 L30.25568432868167,3.0097929945808763 L30.549003963359763,3.03084429877567 L30.840691613062965,3.0555270166522197 L31.13048888936691,3.083819283285534 L31.41813907841453,3.1156960362699717 L31.703387368323337,3.15112903792051 L31.985981074907748,3.1900869002867815 " />
			<path d="M-4.027505619194109,11.9457444974949 L-33.46378135517492,4.2739946946090575 " />
			<path d="M-33.463781355174916,4.27399469460906 L-37.4360105819399,-10.10801710476285 " />
			<path d="M40.089312377194744,-6.546327206644402 L31.985981074907894,3.1900869002868015 " />
			<path d="M-33.463781355174916,4.27399469460906 L-33.463781355174916,13.362694761254202 " />
			<path d="M31.985981074907894,12.278786966931944 L31.985981074907894,3.1900869002868024 " />
			<path d="M18.706700606212358,16.218948293790277 L18.706700606212358,7.130248227145135 " />

        </g>

        <!-- solid lines -->
        <g  stroke="rgb(0,0,0)" fill="none">
    			<path d="M19.276119532817567,17.606271623809402 L-4.027505619194105,21.034444564140042 " />
			<path d="M19.276119532817567,17.606271623809405 L19.276119532817567,14.831624963771148 " />
			<path d="M-37.4360105819399,-10.108017104762848 L-20.006464693512985,-17.413811742212882 " />
			<path d="M-3.013144786796028,-19.913682002336696 L-3.0338661764718733,-19.8410764200424 L-3.0576360745589497,-19.768633500013927 L-3.0844471757257033,-19.696375506526348 L-3.1142912399711644,-19.624324647020273 L-3.147159095157381,-19.552503065276692 L-3.1830406398283575,-19.480932834611423 L-3.2219248463145806,-19.40963595109119 L-3.2637997641222096,-19.338634326773462 L-3.308652523605895,-19.267949782972103 L-3.3564693399240717,-19.19760404355089 L-3.407235517275529,-19.127618728247032 L-3.460935453415951,-19.058015346026625 L-3.5175526444530405,-18.988815288474214 L-3.5770696899187495,-18.920039823218378 L-3.6394682981170554,-18.851710087395457 L-3.704729291745652,-18.783847081153336 L-3.7728326137898094,-18.71647166119738 L-3.843757333686609,-18.64960453438042 L-3.917481653757644,-18.58326625133879 L-3.993982915908223,-18.51747720017642 L-4.073237608590995,-18.45225760019881 L-4.155221374031889,-18.38762749569896 L-4.239909015716119,-18.323606749797026 L-4.327274506131966,-18.26021503833568 L-4.417290994769948,-18.197471843833036 L-4.509930816374943,-18.13539644949498 L-4.7029657750001075,-18.0133251620796 L-4.906142094322119,-17.89415123187966 L-5.119210020416245,-17.778021153116992 L-5.341907640127677,-17.66507767836752 L-5.5739612030275385,-17.555459643083065 L-5.815085457919846,-17.449301794928235 L-6.0649840034857405,-17.346734628142258 L-6.32334965263399,-17.247884223129283 L-6.58986481010986,-17.152872091474393 L-6.8642018628982004,-17.061815026575847 L-7.146023582940829,-16.974824960077093 L-7.434983541673187,-16.892008824275138 L-7.730726535870682,-16.81346842067429 L-8.03288902428126,-16.739300294846963 L-8.341099574507494,-16.66959561775529 L-8.654979319588804,-16.604440073679473 L-8.974142423722618,-16.54391375489063 L-9.298196556551977,-16.488091063197583 L-9.6267433754365,-16.437040618488638 L-9.959379015114,-16.390825174380797 L-10.295694584150699,-16.349501541080027 L-10.635276667569915,-16.31312051554749 L-10.977707835041258,-16.281726819057507 L-11.322567154005693,-16.255359042224065 L-11.669430707105729,-16.234049597563416 L-12.017872113284644,-16.21782467965106 L-12.367463051914214,-16.20670423292216 L-12.717773789306648,-16.200701927154892 L-13.068373706963532,-16.199825140666903 L-13.418831830912417,-16.204074951245545 L-13.768717361480377,-16.213446134823 L-14.117600202853302,-16.227927171897946 L-14.465051491769982,-16.247500261695887 L-14.810644124701081,-16.272141344050695 L-15.153953282864958,-16.301820128980506 L-15.494556954434962,-16.33650013392159 L-15.832036453296315,-16.376138728574453 L-16.16597693371483,-16.420687187306996 L-16.4959679002849,-16.470090749050378 L-16.8216037125298,-16.524288684613907 L-17.142484083534146,-16.58321437133622 L-17.45821457199545,-16.646795374980996 L-17.768407067089996,-16.714953538776573 L-18.072680265556997,-16.7876050794899 L-18.370660140414564,-16.864660690416876 L-18.661980400731323,-16.94602565116235 L-18.946282941888533,-17.0315999440749 L-19.223218285779186,-17.121278377193274 L-19.492446010402997,-17.21495071355329 L-19.753635168329204,-17.312501806696325 L-20.00646469351274,-17.413811742212783 " />
			<path d="M-3.0131447867960066,-19.913682002336778 L21.54899086723767,-18.785241550933552 " />
			<path d="M21.548990867237674,-18.785241550933556 L40.08931237719475,-6.546327206644401 " />
			<path d="M-4.027505619194109,21.034444564140042 L-33.46378135517492,13.3626947612542 " />
			<path d="M19.276119532817546,17.606271623809373 L19.20774853307217,17.522607623329204 L19.143643787011577,17.43835811179734 L19.08383408592843,17.353560928102347 L19.028346292086642,17.268254157108178 L18.977205326656804,17.18247611254916 L18.930434158523326,17.096265319822187 L18.888053793968467,17.00966049868385 L18.850083267237792,16.92270054586027 L18.81653963199137,16.835424517577476 L18.78743795364445,16.747871612020113 L18.762791302601173,16.660081151726395 L18.74261074838426,16.572092565927235 L18.72690535466338,16.483945372837436 L18.715682175184398,16.3956791619069 L18.708946250601308,16.307333576039902 L18.70670060621236,16.218948293790294 " />
			<path d="M18.70670060621236,16.218948293790277 L18.7078079668252,16.15688049309361 L18.71112980341421,16.094826438684507 L18.71666538028519,16.032799873806113 L18.724413471462185,15.970814535613405 L18.734372360958986,15.9088841521308 L18.746539843159212,15.847022439211782 L18.76091322330474,15.785243097501215 L18.777489318092574,15.72355980940104 L18.796264456379806,15.661986236039997 L18.817234479996714,15.600536014248073 L18.840394744667655,15.539222753536322 L18.865740121039657,15.478060033082734 L18.893264995818413,15.417061398724831 L18.922963273011483,15.356240359959637 L18.988853245387276,15.235184907549847 L19.063351670230777,15.115000911547579 L19.146392553899016,14.995794835676596 L19.237902335502078,14.877672277380434 L19.33779995206624,14.760737874280027 L19.44599691034275,14.64509521148158 L19.56239736519863,14.530846729816792 L19.686898204520105,14.41809363509672 L19.81938914055334,14.306935808459695 L19.9597528076017,14.197471717892652 L20.107864865992923,14.089798331004323 L20.263594112224094,13.98401102912749 L20.426802595186885,13.880203522826447 L20.597345738370073,13.778467768884482 L20.775072467931153,13.678893888844932 L20.959825346523466,13.58157008917797 L21.151440712760433,13.486582583143822 L21.349748826193263,13.39401551442168 L21.55457401767373,13.303950882571893 L21.76573484496884,13.21646847039754 L21.983044253489517,13.13164577326966 L22.20630974199093,13.049557930478812 L22.435333533097683,12.970277658673712 L22.669912748502835,12.89387518744597 L22.909839588685493,12.820418197117938 L23.154901516987817,12.74997175878882 L23.404881447888382,12.682598276692126 L23.659557939305095,12.618357432915529 L23.91870538875733,12.557306134532126 L24.182094233213487,12.499498463189916 L24.449491152446996,12.444985627204128 L24.72065927572056,12.393815916194884 L24.99535839161563,12.346034658310346 L25.273345160821094,12.301684180073263 L25.554373331692886,12.260803768886456 L25.8381939583934,12.22342963823049 L26.124555621417517,12.189594895584353 L26.413204650309915,12.159329513097532 L26.70388534837638,12.132660301039515 L26.99634021919001,12.109610884050186 L27.29031019469171,12.09020168021219 L27.5855348646829,12.074449882963794 L27.881752707507122,12.062369445868256 L28.178701321716268,12.053971070253214 L28.47611765851611,12.049262195731021 L28.773738254785297,12.048246993608451 L29.07129946646139,12.050926363191582 L29.36853770208716,12.057297930989161 L29.66518965631031,12.06735605281514 L29.960992543129723,12.081091818788508 L30.25568432868167,12.09849306122602 L30.549003963359763,12.119544365420811 L30.840691613062965,12.144227083297363 L31.13048888936691,12.172519349930676 L31.41813907841453,12.204396102915114 L31.703387368323337,12.239829104565652 L31.985981074907748,12.278786966931923 " />
			<path d="M-33.463781355174916,13.362694761254204 L-37.4360105819399,-1.0193170381177055 " />
			<path d="M-37.4360105819399,-1.0193170381177055 L-20.006464693512985,-8.32511167556774 " />
			<path d="M-20.006464693512772,-8.325111675567653 L-19.753635168329204,-8.223801740051183 L-19.492446010403,-8.126250646908147 L-19.223218285779186,-8.032578310548134 L-18.946282941888533,-7.942899877429761 L-18.661980400731323,-7.857325584517207 L-18.370660140414564,-7.775960623771735 L-18.072680265557,-7.698905012844758 L-17.768407067089996,-7.626253472131429 L-17.45821457199545,-7.558095308335854 L-17.142484083534146,-7.494514304691075 L-16.821603712529804,-7.435588617968765 L-16.4959679002849,-7.381390682405237 L-16.16597693371483,-7.331987120661852 L-15.832036453296316,-7.2874386619293094 L-15.494556954434964,-7.247800067276448 L-15.153953282864958,-7.213120062335363 L-14.810644124701083,-7.183441277405552 L-14.465051491769982,-7.158800195050743 L-14.117600202853303,-7.139227105252802 L-13.768717361480377,-7.124746068177856 L-13.418831830912417,-7.115374884600404 L-13.068373706963532,-7.1111250740217615 L-12.717773789306648,-7.112001860509749 L-12.367463051914214,-7.118004166277017 L-12.017872113284644,-7.129124613005916 L-11.669430707105729,-7.145349530918272 L-11.322567154005695,-7.166658975578923 L-10.977707835041258,-7.193026752412363 L-10.635276667569917,-7.224420448902345 L-10.2956945841507,-7.260801474434883 L-9.959379015114,-7.3021251077356535 L-9.626743375436503,-7.348340551843496 L-9.298196556551979,-7.39939099655244 L-8.97414242372262,-7.45521368824549 L-8.654979319588804,-7.515740007034331 L-8.341099574507492,-7.580895551110148 L-8.03288902428126,-7.650600228201821 L-7.730726535870683,-7.724768354029148 L-7.434983541673187,-7.803308757629996 L-7.146023582940831,-7.886124893431951 L-6.864201862898202,-7.973114959930702 L-6.58986481010986,-8.06417202482925 L-6.323349652633992,-8.159184156484137 L-6.064984003485742,-8.258034561497116 L-5.815085457919846,-8.360601728283093 L-5.57396120302754,-8.466759576437921 L-5.341907640127681,-8.576377611722378 L-5.119210020416247,-8.68932108647185 L-4.906142094322119,-8.805451165234519 L-4.7029657750001075,-8.924625095434457 L-4.509930816374945,-9.046696382849836 L-4.417290994769951,-9.108771777187894 L-4.3272745061319675,-9.171514971690538 L-4.239909015716119,-9.234906683151884 L-4.155221374031889,-9.29892742905382 L-4.073237608590995,-9.363557533553667 L-3.993982915908223,-9.428777133531277 L-3.917481653757644,-9.49456618469365 L-3.843757333686609,-9.560904467735277 L-3.7728326137898094,-9.62777159455224 L-3.7047292917456502,-9.695147014508194 L-3.6394682981170536,-9.763010020750315 L-3.5770696899187495,-9.831339756573238 L-3.5175526444530405,-9.90011522182907 L-3.460935453415951,-9.969315279381483 L-3.4072355172755273,-10.03891866160189 L-3.3564693399240717,-10.108903976905749 L-3.308652523605895,-10.179249716326959 L-3.263799764122208,-10.24993426012832 L-3.2219248463145806,-10.320935884446046 L-3.1830406398283575,-10.39223276796628 L-3.147159095157381,-10.463802998631552 L-3.1142912399711644,-10.535624580375131 L-3.0844471757257033,-10.607675439881207 L-3.057636074558948,-10.679933433368785 L-3.0338661764718733,-10.752376353397258 L-3.013144786796035,-10.824981935691536 " />
			<path d="M-3.0131447867960066,-10.824981935691635 L21.54899086723767,-9.696541484288412 " />
			<path d="M21.548990867237674,-9.696541484288412 L40.08931237719475,2.542372860000743 " />
			<path d="M40.089312377194744,2.5423728600007403 L31.985981074907894,12.278786966931943 " />
			<path d="M40.089312377194744,-6.546327206644402 L40.089312377194744,2.5423728600007403 " />
			<path d="M21.548990867237674,-18.785241550933556 L21.548990867237674,-9.696541484288414 " />
			<path d="M-3.013144786796005,-10.824981935691635 L-3.013144786796005,-19.913682002336778 " />
			<path d="M-20.006464693512985,-8.325111675567744 L-20.006464693512985,-17.413811742212886 " />
			<path d="M-37.4360105819399,-10.108017104762848 L-37.4360105819399,-1.0193170381177055 " />

        </g>
        </g>
    </svg>
    