<?xml version='1.0' encoding='utf-8'?>
<svg width="100.09mm" height="45.05413mm" viewBox="-63.371701 -26.862944 102.828039 46.28662" version="1.1" xmlns="http://www.w3.org/2000/svg">
  <g transform="scale(1,-1)" stroke-linecap="round">
    <g fill="none" stroke="rgb(0,0,0)" stroke-width="0.09246201902842702" id="Visible">
      <line x1="6.332119" y1="19.680417" x2="6.332119" y2="20.564906" />
      <line x1="13.363718" y1="20.912988" x2="6.332119" y2="20.564906" />
      <line x1="7.078179" y1="16.399749" x2="7.078179" y2="17.284238" />
      <line x1="6.332119" y1="19.680417" x2="7.078179" y2="16.399749" />
      <line x1="6.332119" y1="20.564906" x2="7.078179" y2="17.284238" />
      <line x1="14.109779" y1="16.747831" x2="14.109779" y2="17.63232" />
      <line x1="7.078179" y1="16.399749" x2="14.109779" y2="16.747831" />
      <line x1="7.078179" y1="17.284238" x2="14.109779" y2="17.63232" />
      <line x1="14.109779" y1="17.63232" x2="13.363718" y2="20.912988" />
      <line x1="-35.825321" y1="19.941989" x2="-35.825321" y2="22.595457" />
      <line x1="-31.807752" y1="26.816713" x2="-35.825321" y2="22.595457" />
      <line x1="-26.777717" y1="18.067549" x2="-26.777717" y2="20.721017" />
      <line x1="-35.825321" y1="19.941989" x2="-26.777717" y2="18.067549" />
      <line x1="-35.825321" y1="22.595457" x2="-26.777717" y2="20.721017" />
      <line x1="-22.760148" y1="22.288806" x2="-22.760148" y2="24.942273" />
      <line x1="-26.777717" y1="18.067549" x2="-22.760148" y2="22.288806" />
      <line x1="-26.777717" y1="20.721017" x2="-22.760148" y2="24.942273" />
      <line x1="-22.760148" y1="24.942273" x2="-31.807752" y2="26.816713" />
      <line x1="-63.32547" y1="7.253181" x2="-63.32547" y2="11.675627" />
      <line x1="-55.834038" y1="2.4524" x2="-55.834038" y2="6.874846" />
      <line x1="-63.32547" y1="7.253181" x2="-55.834038" y2="2.4524" />
      <line x1="-63.32547" y1="11.675627" x2="-55.834038" y2="6.874846" />
      <line x1="-45.544313" y1="5.947608" x2="-45.544313" y2="10.370054" />
      <line x1="-55.834038" y1="2.4524" x2="-45.544313" y2="5.947608" />
      <line x1="-55.834038" y1="6.874846" x2="-45.544313" y2="10.370054" />
      <line x1="-45.544313" y1="10.370054" x2="-53.035746" y2="15.170835" />
      <line x1="-53.035746" y1="15.170835" x2="-63.32547" y2="11.675627" />
      <line x1="-46.977458" y1="-14.807507" x2="-46.977458" y2="-8.616083" />
      <line x1="-31.507939" y1="-14.041726" x2="-31.507939" y2="-7.850301" />
      <line x1="-46.977458" y1="-14.807507" x2="-31.507939" y2="-14.041726" />
      <line x1="-46.977458" y1="-8.616083" x2="-31.507939" y2="-7.850301" />
      <line x1="-31.507939" y1="-7.850301" x2="-33.149272" y2="-0.632831" />
      <line x1="-48.618791" y1="-7.590037" x2="-48.618791" y2="-1.398613" />
      <line x1="-33.149272" y1="-0.632831" x2="-48.618791" y2="-1.398613" />
      <line x1="-48.618791" y1="-7.590037" x2="-46.977458" y2="-14.807507" />
      <line x1="-48.618791" y1="-1.398613" x2="-46.977458" y2="-8.616083" />
      <line x1="4.121064" y1="-19.377445" x2="4.121064" y2="-11.417042" />
      <line x1="11.582265" y1="-11.537968" x2="11.582265" y2="-3.577566" />
      <line x1="4.121064" y1="-19.377445" x2="11.582265" y2="-11.537968" />
      <line x1="4.121064" y1="-11.417042" x2="11.582265" y2="-3.577566" />
      <line x1="11.582265" y1="-3.577566" x2="-5.220428" y2="-0.096463" />
      <line x1="-12.681629" y1="-15.896341" x2="-12.681629" y2="-7.935939" />
      <line x1="-5.220428" y1="-0.096463" x2="-12.681629" y2="-7.935939" />
      <line x1="-12.681629" y1="-15.896341" x2="4.121064" y2="-19.377445" />
      <line x1="-12.681629" y1="-7.935939" x2="4.121064" y2="-11.417042" />
      <line x1="39.410106" y1="-0.29013" x2="39.410106" y2="9.439251" />
      <line x1="39.410106" y1="9.439251" x2="26.924385" y2="17.440553" />
      <line x1="9.774844" y1="1.885825" x2="9.774844" y2="11.615206" />
      <line x1="26.924385" y1="17.440553" x2="9.774844" y2="11.615206" />
      <line x1="22.260565" y1="-6.115477" x2="22.260565" y2="3.613904" />
      <line x1="9.774844" y1="1.885825" x2="22.260565" y2="-6.115477" />
      <line x1="9.774844" y1="11.615206" x2="22.260565" y2="3.613904" />
      <line x1="22.260565" y1="-6.115477" x2="39.410106" y2="-0.29013" />
      <line x1="22.260565" y1="3.613904" x2="39.410106" y2="9.439251" />
    </g>
    <g fill="none" stroke="rgb(99,99,99)" stroke-width="0.09246201902842702" id="Hidden" stroke-dasharray="0.002349 0.27856">
      <line x1="13.363718" y1="20.028499" x2="13.363718" y2="20.912988" />
      <line x1="13.363718" y1="20.028499" x2="6.332119" y2="19.680417" />
      <line x1="14.109779" y1="16.747831" x2="13.363718" y2="20.028499" />
      <line x1="-31.807752" y1="24.163246" x2="-31.807752" y2="26.816713" />
      <line x1="-31.807752" y1="24.163246" x2="-35.825321" y2="19.941989" />
      <line x1="-22.760148" y1="22.288806" x2="-31.807752" y2="24.163246" />
      <line x1="-53.035746" y1="10.74839" x2="-53.035746" y2="15.170835" />
      <line x1="-45.544313" y1="5.947608" x2="-53.035746" y2="10.74839" />
      <line x1="-53.035746" y1="10.74839" x2="-63.32547" y2="7.253181" />
      <line x1="-33.149272" y1="-6.824256" x2="-33.149272" y2="-0.632831" />
      <line x1="-31.507939" y1="-14.041726" x2="-33.149272" y2="-6.824256" />
      <line x1="-33.149272" y1="-6.824256" x2="-48.618791" y2="-7.590037" />
      <line x1="-5.220428" y1="-8.056865" x2="-5.220428" y2="-0.096463" />
      <line x1="11.582265" y1="-11.537968" x2="-5.220428" y2="-8.056865" />
      <line x1="-5.220428" y1="-8.056865" x2="-12.681629" y2="-15.896341" />
      <line x1="26.924385" y1="7.711172" x2="26.924385" y2="17.440553" />
      <line x1="39.410106" y1="-0.29013" x2="26.924385" y2="7.711172" />
      <line x1="26.924385" y1="7.711172" x2="9.774844" y2="1.885825" />
    </g>
  </g>
</svg>