<?xml version="1.0" encoding="UTF-8" standalone="no"?>
    <svg
    xmlns:svg="http://www.w3.org/2000/svg"
    xmlns="http://www.w3.org/2000/svg"
    width="500.0"
    height="220.0"
    >
        <g transform="scale(2.4671982660273866, -2.4671982660273866)   translate(45.408519695775276,-32.76871945534781)" stroke-width="0.40531805399254434"  fill="none">
        <!-- hidden lines -->
        <g  stroke="rgb(160,160,160)" fill="none" stroke-dasharray="0.40531805399254434,0.40531805399254434" >
    			<path d="M-31.112698368599435,-14.811847537113378 L-31.271733068944314,-14.767634184998059 L-31.4363019979929,-14.725139206331455 L-31.606182126859974,-14.684420191618493 L-31.78114322875863,-14.645532324523005 L-31.960948191010694,-14.608528307081135 L-32.145353336389135,-14.573458288277907 L-32.33410875335696,-14.540369796083775 L-32.52695863475501,-14.50930767304326 L-32.723641624479754,-14.480314015502943 L-32.9238911716811,-14.453428116561206 L-33.1274358920003,-14.428686412817004 L-33.33399993535848,-14.406122434989875 L-33.543303359797065,-14.385766762478069 L-33.755062510863844,-14.3676469819164 L-33.96899040603017,-14.351787649789998 L-34.184797123618544,-14.338210259154597 L-34.40219019571341,-14.32693321050849 L-34.62087500452268,-14.317971786855594 L-34.84055518165287,-14.311338132993468 L-35.06093300975666,-14.307041239054294 L-35.28170982600862,-14.305086928321186 L-35.5025864268623,-14.305477849336285 L-35.723263473540065,-14.308213472311385 L-35.943441897706265,-14.313290089845905 L-36.16282330677383,-14.320700821951288 L-36.381110388295134,-14.33043562537496 L-36.59800731288896,-14.34248130721126 L-36.813220135157614,-14.356821542780878 L-37.02645719205079,-14.373436897754557 L-37.23742949813631,-14.392304854491094 L-37.445851137242094,-14.413399842553948 L-37.65143964993858,-14.436693273365078 L-37.853916416336446,-14.462153578949067 L-38.053007033680856,-14.489746254715019 L-38.24844168823055,-14.519433906218234 L-38.43995552091774,-14.551176299838326 L-38.62728898629328,-14.584930417305054 L-38.810188204270645,-14.620650513998013 L-38.98840530419207,-14.658288180941152 L-39.1616987607505,-14.697792410408113 L-39.32983372131213,-14.739109665049469 L-39.49258232419592,-14.782183950448195 L-39.6497240074788,-14.826956891005029 L-39.801045807907954,-14.873367809050873 L-39.94634264951519,-14.921353807079054 L-40.08541762154224,-14.97084985298596 L-40.21808224530025,-15.02178886820454 L-40.344156729601956,-15.074101818611263 L-40.463470214420184,-15.127717808083279 L-40.57586100244267,-15.182564174579031 L-40.681176778209235,-15.238566588612098 L-40.77927481453437,-15.295649153984801 L-40.870022165935545,-15.35373451064507 L-40.953295848805006,-15.41274393952718 L-41.02898300808096,-15.472597469234243 L-41.096981070192214,-15.53321398441791 L-41.15719788206908,-15.594511335708408 L-41.20955183603201,-15.656406451045875 L-41.25397198038888,-15.718815448262195 L-41.29039811559089,-15.781653748760686 L-41.31878087581681,-15.84483619213963 L-41.33908179587517,-15.908277151604263 L-41.35127336333333,-15.971890650010861 L-41.354322546578224,-16.00373516632881 L-41.3553390558033,-16.035590476385597 " />
			<path d="M-29.3553390558033,-16.035590476385604 L-29.357146143625982,-15.993118595299382 L-29.362566318571897,-15.9506722976862 L-29.371596315730333,-15.908277151608567 L-29.38423069576865,-15.865958694317223 L-29.40046184820875,-15.823742416868454 L-29.42027999601132,-15.78165374876922 L-29.443673201465177,-15.739718042659389 L-29.470627373378083,-15.697960559040244 L-29.501126275564758,-15.6564064510585 L-29.53515153662695,-15.615080749354997 L-29.57268266101969,-15.574008346987174 L-29.613697041397025,-15.53321398443442 L-29.658169972229835,-15.492722234695334 L-29.70607466468754,-15.452557488485875 L-29.757382262774684,-15.412743939547301 L-29.81206186071269,-15.373305570072766 L-29.870080521556364,-15.334266136261348 L-29.93140329703387,-15.295649154008192 L-29.995993248598275,-15.257477884739426 L-30.063811469677926,-15.21977532140034 L-30.208967395759387,-15.145866858957715 L-30.36652138193819,-15.074101818639951 L-30.536093866861535,-15.004653088715038 L-30.71727633556048,-14.937687977256347 L-30.909632303598237,-14.873367809082827 L-31.112698368599432,-14.81184753711338 " />
			<path d="M39.597979748645685,-35.20756319246364 L39.80104581364689,-35.26908346443309 L39.99340178168464,-35.33340363260661 L40.17458425038359,-35.4003687440653 L40.34415673530694,-35.46981747399021 L40.501710721485736,-35.541582514307976 L40.646866647567194,-35.6154909767506 L40.71468486864685,-35.65319354008969 L40.77927482021125,-35.691364809358454 L40.840597595688756,-35.72998179161161 L40.898616256532435,-35.769021225423025 L40.95329585447044,-35.80845959489756 L41.004603452557575,-35.84827314383614 L41.05250814501529,-35.888437890045594 L41.0969810758481,-35.928929639784684 L41.13799545622543,-35.969724002337436 L41.17552658061817,-36.01079640470526 L41.209551841680366,-36.05212210640876 L41.240050743867045,-36.093676214390506 L41.26700491577995,-36.13543369800965 L41.2903981212338,-36.17736940411948 L41.310216269036374,-36.219458072218714 L41.32644742147647,-36.26167434966749 L41.339081801514794,-36.303992806958824 L41.34811179867323,-36.34638795303646 L41.35353197361914,-36.388834250649644 L41.355339061441825,-36.43130613173586 " />
			<path d="M29.355339061441825,-36.431306131735866 L29.356355570666903,-36.399450821679075 L29.359404753911797,-36.36760630536112 L29.371596321369957,-36.303992806954525 L29.391897241428307,-36.24055184748989 L29.420280001654234,-36.17736940411095 L29.456706136856237,-36.11453110361246 L29.50112628121311,-36.05212210639614 L29.553480235176046,-35.99022699105867 L29.613697047052913,-35.92892963976817 L29.681695109164167,-35.8683131245845 L29.757382268440118,-35.80845959487744 L29.84065595130958,-35.749450165995334 L29.931403302710756,-35.69136480933506 L30.02950133903589,-35.63428224396236 L30.134817114802452,-35.57827982992929 L30.24720790282494,-35.52343346343354 L30.366521387643168,-35.46981747396153 L30.492595871944868,-35.417504523554804 L30.625260495702882,-35.36656550833622 L30.764335467729936,-35.317069462429316 L30.909632309337173,-35.269083464401135 L31.06095410976632,-35.22267254635529 L31.2180957930492,-35.17789960579846 L31.380844395932996,-35.134825320399734 L31.548979356494623,-35.09350806575838 L31.722272813053056,-35.054003836291415 L31.90048991297448,-35.016366169348274 L32.08338913095184,-34.98064607265532 L32.27072259632738,-34.94689195518859 L32.46223642901457,-34.9151495615685 L32.65767108356427,-34.88546191006528 L32.85676170090868,-34.85786923429933 L33.05923846730654,-34.83240892871534 L33.26482698000303,-34.80911549790421 L33.473248619108816,-34.78802050984136 L33.68422092519433,-34.76915255310482 L33.89745798208751,-34.752537198131144 L34.11267080435616,-34.738196962561524 L34.32956772894999,-34.72615128072522 L34.54785481047129,-34.71641647730155 L34.76723621953886,-34.709005745196166 L34.98741464370505,-34.703929127661645 L35.20809169038282,-34.70119350468655 L35.4289682912365,-34.70080258367145 L35.649745107488464,-34.70275689440456 L35.870122935592256,-34.70705378834373 L36.08980311272244,-34.71368744220586 L36.308487921531714,-34.72264886585875 L36.52588099362658,-34.73392591450486 L36.74168771121495,-34.747503305140256 L36.95561560638127,-34.76336263726666 L37.16737475744806,-34.78148241782833 L37.376678181886646,-34.80183809034014 L37.58324222524482,-34.82440206816727 L37.786786945564025,-34.849143771911464 L37.98703649276537,-34.87602967085321 L38.18371948249011,-34.90502332839352 L38.376569363888166,-34.93608545143404 L38.56532478085599,-34.96917394362817 L38.74972992623443,-35.004243962431396 L38.929534888486494,-35.04124797987327 L39.104495990385146,-35.08013584696875 L39.274376119252224,-35.120854861681714 L39.43894504830081,-35.16334984034832 L39.59797974864567,-35.20756319246364 " />
			<path d="M15.55634917186146,3.6559539856479004 L15.673999454002715,3.5830265791135685 L15.794280545955042,3.516417264463078 L15.917092361760343,3.4563156108218878 L16.042324299352842,3.4029068175364414 L16.169853500864008,3.3563701894402427 L16.299545104607027,3.316876558740849 L16.431252865896923,3.284586000294672 L16.5648187515133,3.2596457456146153 L16.700077633376246,3.2421875397060655 L16.83684502416717,3.232327255012194 L16.97492503066248,3.2301605514803042 L17.114114870574987,3.235760975276858 L17.254204779736867,3.249178887471872 L17.394977902596192,3.270440217066069 L17.536210166027065,3.2995450383608 L17.677670181954962,3.336465985783355 L17.81913079823491,3.381150480179303 L17.96036291930268,3.4335194853896 L18.101135750571533,3.49346703231883 L18.24122556260422,3.5608639323554296 L18.380415569171138,3.6355592283509965 L18.51849582028555,3.717381481166897 L18.655263110215955,3.8061398917881655 L18.79052090047557,3.9016252590047062 L18.924086596055496,4.003616611325729 L19.055794389341546,4.11188652429479 L19.18548604515488,4.226196456232597 L19.313015263655533,4.3463019135878325 L19.43824700747267,4.471954098434545 L19.5610586666795,4.602903014041553 L19.68133966312652,4.738899725178411 L19.79898989503126,4.879696930172118 " />
			<path d="M19.798989875732495,4.879696962167056 L19.555066535242666,5.169934158298446 L19.30965173693394,5.4575371391941445 L19.062766476054026,5.742481300405412 L18.814431873648793,6.024742264945633 L18.564669174755323,6.304295885375829 L18.31349974658444,6.581118245870421 L18.060945076692715,6.855185664263253 L17.807026771144233,7.126474694073558 L17.551766552662144,7.394962126511913 L17.2951862587703,7.660624992465692 L17.037307839925113,7.923440564463981 L16.778153357637642,8.183386358622059 L16.517744982586205,8.440440136564824 L16.256104992719735,8.694579907329285 L15.99325577135185,8.945783929245941 L15.729219805245993,9.194030711798703 L15.464019682691674,9.439299017463476 L15.197678091572032,9.681567863524997 L14.930217817422916,9.920816523871927 L14.661661741483565,10.157024530769924 L14.39203283873908,10.39017167661273 L14.121354175954943,10.62023801565092 L13.849648909703689,10.847203865698184 L13.576940284383838,11.0710498098152 L13.303251630231303,11.291756697970762 L13.028606361323506,11.509305648680062 L12.753027973576328,11.723678050619966 L12.476540042733996,11.934855564221259 L12.199166222352186,12.14282012323757 L11.920930241774485,12.34755393629095 L11.64185590410232,12.549039488393895 L11.361967084158627,12.747259542447807 L11.081287726445286,12.942197140717603 L10.79984184309473,13.133835606282467 L10.517653511815737,13.322158544462496 L10.23474687383354,13.507149844221331 L9.951146131824506,13.688793679544474 L9.666875547845674,13.867074510793103 L9.381959441259058,14.041977086033611 L9.096422186651195,14.21348644234233 L8.810288211747848,14.381587907085631 L8.523581995324227,14.546267099175196 L8.236328065110843,14.707509930298272 L7.948550995695166,14.865302606122931 L7.660275406419208,15.019631627478248 L7.371525959273351,15.170483791509099 L7.082327356786628,15.317846192805604 L6.79270433991328,15.461706224507331 L6.502681685916238,15.60205157938168 L6.212284206247396,15.738870250876843 L5.921536744425007,15.872150534148943 L5.630464173908315,16.00188102706337 L5.339091395969618,16.128050631170282 L5.047443337563994,16.250648552654006 L4.755544949196754,16.369664303256506 L4.463421202788995,16.485087701174635 L4.1710970895411394,16.5969088719312 L3.8785976177950077,16.7051182492197 L3.5859478108943996,16.809706575722743 L3.2931727050442747,16.910664903904 L3.000297347168915,17.00798459677366 L2.7073467927691697,17.101657328627383 L2.414346103778958,17.191675085758455 L2.121320346421212,17.27803016714347 L1.8282945890634652,17.3607151851011 L1.5352939000732517,17.439723065924092 L1.242343345673508,17.515047050484476 L0.949467987798148,17.586680694811783 L0.6566928819480196,17.65461787064431 L0.3640430750474115,17.71885276595343 L0.07154360330128062,17.77937988544077 L-0.22078050994657206,17.836194051008377 L-0.5129042563543291,17.889290402201667 L-0.8048026447215708,17.938664396625278 L-1.096450703127199,17.98431181033162 L-1.387823481065893,18.02622873818226 L-1.6788960515825888,18.064411594182026 L-1.9696435134049763,18.09885711178577 L-2.2600409930738175,18.129562344177806 L-2.5500636470708593,18.156524664524042 L-2.8396866639442027,18.179741766196685 L-3.128885266430927,18.199211662971578 L-3.4176347135767835,18.21493268919813 L-3.705910302852747,18.226903499941777 L-3.9936873722684214,18.23512307109911 L-4.280941302481805,18.23959069948541 L-4.567647518905424,18.24030600289486 L-4.853781493808773,18.237268920133218 L-5.1393187484166365,18.230479711023065 L-5.424234855003249,18.219938956381547 L-5.708505438982089,18.205647557970757 L-5.992106180991119,18.187606738420484 L-6.275012818973321,18.165818041123707 L-6.557201150252309,18.14028333010453 L-6.838647033602866,18.111004789858697 L-7.119326391316205,18.077984925166724 L-7.399215211259902,18.041226560879608 L-7.6782895489320655,18.000732841677163 L-7.956525529509765,17.956507231799016 L-8.233899349891571,17.908553514748192 L-8.51038728073391,17.856875792967486 L-8.785965668481088,17.801478487488446 L-9.060610937388882,17.742366337553214 L-9.33429959154142,17.67954440020904 L-9.60700821686127,17.613018049875656 L-9.87871348311252,17.542792977885526 L-10.149392145896662,17.468875191996887 L-10.419021048641145,17.391271015879873 L-10.687577124580496,17.309987088575454 L-10.955037398729614,17.225030363927466 L-11.221378989849255,17.13640810998779 L-11.486579112403577,17.044127908394465 L-11.750615078509432,16.94819765372315 L-12.013464299877315,16.84862555281171 L-12.275104289743785,16.745420124058136 L-12.535512664795219,16.638590196691787 L-12.794667147082697,16.52814491001805 L-13.052545565927877,16.414093712636465 L-13.309125859819723,16.29644636163242 L-13.564386078301814,16.17521292174243 L-13.818304383850293,16.05040376449304 L-14.070859053742023,15.922029567313615 L-14.322028481912906,15.790101312622852 L-14.571791180806375,15.654630286889244 L-14.820125783211612,15.515628079665511 L-15.067011044091519,15.373106582597124 L-15.312425842400248,15.227077988404957 L-15.556349182889843,15.07755478984236 " />
			<path d="M-19.7989898867611,13.853811813323036 L-19.716981369190503,13.802148072638927 L-19.633671855303675,13.753547110740985 L-19.549094029382168,13.708074343903732 L-19.46328299798525,13.665794340985803 L-19.376276389060685,13.626770591487281 L-19.28811458204684,13.591065281961194 L-19.198841247392867,13.55873894812177 L-19.108502683763664,13.529849928520472 L-19.017147903298998,13.504454042751075 L-18.924828747100705,13.482604247766483 L-18.831599980761133,13.464350290408749 L-18.737517489856835,13.449738086505631 L-18.64264040399595,13.438809876132916 L-18.54703393382124,13.43160392045573 L-18.450764973178646,13.428153397153753 L-18.3539020602384,13.428486242941995 L-18.256515392032174,13.43262498476387 L-18.15867684094396,13.440586550417352 L-18.060459973154742,13.452382058614182 L-17.961940069040846,13.468016588472121 L-17.863194145526094,13.487488928440273 L-17.7643009803877,13.510791304657463 L-17.665340902878448,13.537909157726927 L-17.56638954610133,13.568822940479246 L-17.467525571215077,13.603506158222885 L-17.368828838541322,13.64192553798887 L-17.27037750138833,13.684042059157703 L-17.172248028129417,13.729811214636733 L-17.074515222527705,13.779183252784795 L-16.977252242307323,13.83210340008414 L-16.880530615970986,13.888512064559633 L-16.784420257863975,13.94834501994524 " />
			<path d="M-16.784420257863967,13.948345019945243 L-16.702360680714868,14.002451108934117 L-16.62084550739208,14.058989608810787 L-16.539916155451063,14.117912166311582 L-16.459609564652208,14.179171036249963 L-16.37996177508045,14.24271684605704 L-16.30100825539683,14.308498395015974 L-16.222782870108414,14.376463565297609 L-16.145317923668657,14.446559459984273 L-16.06864420457771,14.518732541093598 L-15.992791065754435,14.592928739941092 L-15.843656208707406,14.747172933452491 L-15.698115769628421,14.908858501148853 L-15.556349163591307,15.077554757847249 " />
			<path d="M15.556349188528632,3.6559540228948286 L15.197565794571727,4.081341991435675 L14.835586100442196,4.5010222664466895 L14.470476911577176,4.914917393516255 L14.102305610980046,5.322950985915121 L13.73114014678458,5.725047738694023 L13.35704901971467,6.12113344258163 L12.98010127044216,6.511134997680273 L12.600366466844909,6.894980426957062 L12.217914691167762,7.272598889527515 L11.832816527088426,7.64392069372969 L11.44514304669073,8.008877309986296 L11.054965797348059,8.36740138345207 L10.662356788518737,8.719426746444569 L10.267388478456308,9.064888430655799 L9.870133760836941,9.40372267914249 L9.470665951306497,9.735866958092807 L9.069058773949685,10.061259968367288 L8.665386347683869,10.379841656812033 L8.259723172580024,10.69155322734175 L7.8521441161132,10.99633715179106 L7.442724399345465,11.294137180531472 L7.031539583043358,11.584898352852704 L6.61866555373261,11.86856700710598 L6.204178509693023,12.145090790607568 L5.788154946895533,12.414418669300751 L5.370671644884457,12.67650093717451 L4.951805652607387,12.931289225437034 L4.531634274195387,13.17873651144243 L4.110235054696021,13.418797127369068 L3.687685765762011,13.651426768647816 L3.264064391298047,13.876582502138689 L2.8394491130685693,14.094222774054323 " />
			<path d="M19.798989875732474,-2.5872217531941715 L19.798989875732474,4.879696962167081 " />
			<path d="M15.55634918852861,3.431989999257663 L15.55634918852861,3.655954022894857 " />
			<path d="M19.798989875732474,-30.720505748262187 L-15.556349182890088,-20.522647920587058 " />
			<path d="M-15.556349182890088,-20.522647920587058 L-15.556349182890088,15.077554789842214 " />
			<path d="M-19.798989870093948,-21.746390859859282 L-15.556349182890086,-20.522647920587055 " />
			<path d="M-19.798989870093948,11.559476710260045 L-19.61796688033916,11.731019133309832 L-19.435884664136612,11.899588416185907 L-19.25276042163832,12.065184356020092 L-19.0686109537167,12.22780734333443 L-18.883452661964586,12.38745836204119 L-18.69730154869523,12.544138989442853 L-18.51017321694229,12.697851396232128 L-18.322082870459845,12.848598346491938 L-18.133045313722384,12.99638319769543 L-17.94307495192481,13.141209900705972 L-17.752185790982434,13.283082999777152 L-17.560391437530996,13.422007632552775 L-17.367705098926635,13.557989530066871 L-17.174139583245907,13.69103501674369 L-16.979707299285792,13.821151010397699 L-16.784420256563713,13.948345022233559 " />

        </g>

        <!-- solid lines -->
        <g  stroke="rgb(0,0,0)" fill="none">
    			<path d="M-41.3553390558033,-16.035590476385604 L-41.35353196798052,-16.078062357472902 L-41.348111793034334,-16.120508655087164 L-41.339081795875444,-16.162903801165868 L-41.32644741583648,-16.205222258458278 L-41.31021626339556,-16.247438535908106 L-41.290398115591984,-16.28952720400839 L-41.26700491013695,-16.331462910119257 L-41.24005073822268,-16.373220393739427 L-41.20955183603447,-16.414774501722178 L-41.17552657497056,-16.45610020342667 L-41.137995450575936,-16.497172605795463 L-41.09698107019655,-16.53796696834917 L-41.05250813936152,-16.578458718089184 L-41.00460344690143,-16.618623464299546 L-40.953295848811734,-16.658437013238995 L-40.898616250871015,-16.69787538271438 L-40.84059759002448,-16.736914816526617 L-40.77927481454396,-16.77553179878056 L-40.71468486297639,-16.81370306805008 L-40.64686664189343,-16.851405631389884 L-40.50171071580493,-16.925314093833837 L-40.344156729618575,-16.99707913415277 L-40.17458424468717,-17.066527864078687 L-39.99340177597972,-17.133492975538196 L-39.80104580793305,-17.197813143712345 L-39.59797974292258,-17.259333415682224 L-39.38469278488541,-17.317905583724116 L-39.16169876078517,-17.37338854235489 L-38.9295348827579,-17.42564862826747 L-38.688760453920914,-17.474559942337454 L-38.43995552096263,-17.52000465292512 L-38.183719476759286,-17.56187327974218 L-37.92066961638499,-17.600064957599365 L-37.65143964999384,-17.634487679399527 L-37.376678176156624,-17.665058517790776 L-37.09704711933008,-17.691703824945733 L-36.81322013522289,-17.71435940998561 L-36.525880987900074,-17.73297069362166 L-36.23572190253547,-17.747492839641435 L-35.94344189778066,-17.75789086292319 L-35.649745101767806,-17.764139713718077 L-35.3553390558033,-17.7662243379972 L-35.06093300983879,-17.764139713718077 L-34.76723621382594,-17.75789086292319 L-34.47495620907113,-17.747492839641435 L-34.18479712370653,-17.73297069362166 L-33.89745797638372,-17.714359409985615 L-33.61363099227653,-17.691703824945733 L-33.33399993544999,-17.665058517790776 L-33.059238461612765,-17.634487679399527 L-32.790008495221606,-17.600064957599365 L-32.52695863484731,-17.56187327974218 L-32.27072259064397,-17.52000465292512 L-32.02191765768569,-17.474559942337454 L-31.781143228848702,-17.42564862826747 L-31.54897935082143,-17.37338854235489 L-31.32598532672119,-17.317905583724116 L-31.11269836868402,-17.259333415682224 L-30.90963230367355,-17.19781314371235 L-30.717276335626885,-17.133492975538196 L-30.536093866919437,-17.066527864078687 L-30.36652138198803,-16.997079134152774 L-30.208967395801665,-16.925314093833837 L-30.06381146971317,-16.851405631389888 L-29.995993248630207,-16.81370306805008 L-29.93140329706264,-16.77553179878056 L-29.870080521582118,-16.736914816526617 L-29.81206186073558,-16.69787538271438 L-29.757382262794867,-16.658437013239 L-29.706074664705177,-16.618623464299546 L-29.65816997224508,-16.578458718089184 L-29.61369704141005,-16.53796696834917 L-29.57268266103066,-16.497172605795466 L-29.535151536636036,-16.456100203426672 L-29.50112627557213,-16.414774501722178 L-29.47062737338392,-16.373220393739427 L-29.443673201469654,-16.33146291011926 L-29.420279996014614,-16.28952720400839 L-29.400461848211037,-16.24743853590811 L-29.384230695770118,-16.20522225845828 L-29.371596315731157,-16.16290380116587 L-29.362566318572263,-16.120508655087168 L-29.357146143626075,-16.078062357472906 L-29.3553390558033,-16.03559047638562 " />
			<path d="M41.355339061441825,-36.431306131735866 L41.35353197361905,-36.47377801282317 L41.34811179867286,-36.51622431043742 L41.33908180151397,-36.55861945651613 L41.32644742147501,-36.60093791380854 L41.310216269034086,-36.64315419125837 L41.29039812123051,-36.68524285935865 L41.26700491577547,-36.727178565469515 L41.240050743861204,-36.76893604908969 L41.209551841673,-36.81049015707244 L41.17552658060909,-36.85181585877693 L41.13799545621446,-36.89288826114573 L41.096981075835075,-36.93368262369943 L41.05250814500005,-36.974174373439446 L41.004603452539946,-37.01433911964981 L40.95329585445026,-37.05415266858926 L40.89861625650954,-37.093591038064645 L40.840597595663006,-37.13263047187688 L40.779274820182486,-37.17124745413082 L40.71468486861492,-37.20941872340034 L40.64686664753196,-37.247121286740146 L40.50171072144346,-37.3210297491841 L40.344156735257094,-37.392794789503036 L40.174584250325694,-37.462243519428945 L39.993401781618246,-37.529208630888455 L39.80104581357158,-37.59352879906261 L39.59797974856111,-37.65504907103249 L39.384692790523935,-37.71362123907438 L39.1616987664237,-37.76910419770515 L38.929534888396425,-37.82136428361773 L38.68876045955944,-37.870275597687716 L38.43995552660115,-37.91572030827538 L38.18371948239781,-37.95758893509244 L37.92066962202352,-37.99578061294962 L37.651439655632366,-38.030203334749785 L37.37667818179515,-38.060774173141034 L37.097047124968604,-38.08741948029599 L36.81322014086142,-38.11007506533588 L36.5258809935386,-38.12868634897192 L36.23572190817399,-38.1432084949917 L35.943441903419185,-38.15360651827345 L35.64974510740633,-38.15985536906834 L35.355339061441825,-38.16193999334746 L35.06093301547732,-38.15985536906834 L34.767236219464465,-38.15360651827345 L34.47495621470966,-38.1432084949917 L34.18479712934506,-38.12868634897192 L33.89745798202224,-38.11007506533588 L33.613630997915045,-38.08741948029599 L33.3339999410885,-38.060774173141034 L33.059238467251284,-38.03020333474979 L32.79000850086013,-37.99578061294963 L32.52695864048584,-37.95758893509244 L32.270722596282496,-37.91572030827538 L32.02191766332422,-37.870275597687716 L31.781143234487228,-37.82136428361773 L31.548979356459956,-37.76910419770515 L31.325985332359718,-37.71362123907438 L31.11269837432254,-37.65504907103249 L30.909632309312066,-37.59352879906261 L30.717276341265404,-37.529208630888455 L30.536093872557956,-37.462243519428945 L30.366521387626555,-37.392794789503036 L30.20896740144019,-37.3210297491841 L30.063811475351695,-37.247121286740146 L29.995993254268733,-37.20941872340034 L29.931403302701167,-37.17124745413082 L29.870080527220644,-37.13263047187688 L29.812061866374105,-37.093591038064645 L29.757382268433393,-37.05415266858926 L29.706074670343703,-37.01433911964981 L29.658169977883606,-36.974174373439446 L29.613697047048575,-36.93368262369943 L29.572682666669188,-36.89288826114573 L29.535151542274562,-36.85181585877693 L29.501126281210652,-36.81049015707244 L29.470627379022442,-36.76893604908969 L29.443673207108176,-36.72717856546952 L29.42028000165314,-36.68524285935865 L29.400461853849563,-36.64315419125837 L29.384230701408644,-36.60093791380854 L29.371596321369683,-36.55861945651613 L29.36256632421079,-36.51622431043742 L29.3571461492646,-36.47377801282317 L29.355339061441825,-36.43130613173588 " />
			<path d="M2.8394491130682913,14.094222774054465 L2.472830080526655,14.275699884105968 L2.105581505720892,14.45154212863374 L1.737753713189376,14.621725411751811 L1.3693971068414377,14.786226413028878 L1.000562163050458,14.945022590683891 L0.6312994237369542,15.098092184675075 L0.26165948944287765,15.245414219681628 L-0.10830698760231927,15.386968507978082 L-0.47854931042266613,15.522735652200623 L-0.8490167442426795,15.652697048005138 L-1.219658523439617,15.776834886616584 L-1.590423858500006,15.895132157269359 L-1.961261942979292,16.007572649538268 L-2.3321219604639856,16.114140955559947 L-2.7029530915351376,16.214822472144128 L-3.0737045207321163,16.309603402774798 L-3.4443254435159325,16.398470759500697 L-3.8147650732310705,16.48141236471514 L-4.1849726480648215,16.55841685282467 L-4.55489743800328,16.629473671806537 L-4.924488751782874,16.69457308465463 L-5.293695943836667,16.753706170713755 L-5.662468421234485,16.80686482690208 L-6.030755650615622,16.854041768821467 L-6.3985071651135215,16.895230531755665 L-6.76567257127132,16.930425471556212 L-7.132201555947322,16.959621765415825 L-7.498043893209507,16.982815412529305 L-7.863149451217964,17.00000323464173 L-8.227468199094574,17.011182876484035 L-8.590950213778868,17.016352806095682 L-8.953545686868965,17.015512315034677 L-9.315204931446896,17.008661518474568 L-9.675878388887284,16.995801355188703 L-10.035516635648401,16.976933587421584 L-10.394070390044794,16.95206080064738 L-10.751490519000308,16.921186403215636 L-11.10772804478093,16.884314625884222 L-11.462734151706313,16.841450521239594 L-11.816460192838974,16.792599963004427 L-12.168857696650464,16.737769645232724 L-12.519878373663497,16.676967081392526 L-12.869474123069107,16.61020060333636 L-13.217597039317996,16.537479360159445 L-13.564199418685003,16.45881331694605 L-13.909233765806077,16.374213253403965 L-14.252652800186663,16.283690762387266 L-14.594409462680535,16.18725824830782 L-14.934456921938395,16.084928925435435 L-15.27274858082524,15.976716816087126 L-15.609238082805614,15.862636748705604 L-15.943879318295943,15.742704355827321 L-16.276626430982894,15.616936071940302 L-16.607433824107197,15.485349131232176 L-16.936256166711864,15.347961565228445 L-17.263048399853872,15.204792200321691 L-17.587765742778675,15.055860655191715 L-17.91036369905657,14.901187338117218 L-18.23079806268009,14.740793444179175 L-18.54902492412165,14.574700952356473 L-18.865000676350437,14.402932622514115 L-19.178682020807987,14.22551199228441 L-19.490025973341503,14.042463373841514 L-19.798989870093706,13.853811850570132 " />
			<path d="M15.556349188528612,-31.94424868753442 L19.798989875732474,-30.72050574826219 " />
			<path d="M19.798989875732474,-30.72050574826219 L19.798989875732474,-2.5872217531941715 " />
			<path d="M15.55634918852861,-31.944248687534415 L15.55634918852861,3.431989999257663 " />
			<path d="M-19.798989870093948,-21.746390859859282 L-19.798989870093948,13.85381185056999 " />
			<path d="M15.556349188528612,-31.944248687534415 L-19.79898987009395,-21.746390859859286 " />
			<path d="M-41.355339055803306,-16.0355904763856 L-41.35428961805134,-15.650247266922024 L-41.35113994831696,-15.265426189651743 L-41.34588939157677,-14.881146084073007 L-41.338537364459874,-14.49742573860629 L-41.32908335524792,-14.114283890594274 L-41.31752692387507,-13.731739226301864 L-41.30386770192802,-13.349810380916173 L-41.28810539264599,-12.968515938546538 L-41.27023977092072,-12.587874432224508 L-41.25027068329649,-12.207904343903845 L-41.2281980479701,-11.828624104460532 L-41.204021854790874,-11.450052093692769 L-41.17774216526066,-11.072206640320966 L-41.149359112533844,-10.69510602198775 L-41.11887290141732,-10.318768465257968 L-41.086283808370524,-9.94321214561868 L-41.05159218150541,-9.568455187479163 L-41.01479844058646,-9.194515664170908 L-40.975903077030694,-8.821411597947627 L-40.93490665390764,-8.449160959985239 L-40.89180980593935,-8.077781670381887 L-40.846613239500435,-7.707291598157926 L-40.79931773261799,-7.337708561255931 L-40.749924134971664,-6.9690503265406845 L-40.69843336789363,-6.6013346097991965 L-40.644846424368566,-6.234579075740683 L-40.5891643690337,-5.86880133799658 L-40.531388338178786,-5.50401895912054 L-40.47151953974609,-5.140249450588425 L-40.40955925333041,-4.777510272798328 L-40.345508830179064,-4.415818835070543 L-40.27936969319192,-4.0551924956475816 L-40.15386889154328,-3.4027845268720482 L-40.021491773928695,-2.7540621556622247 L-39.88224734170849,-2.1091257256604576 L-39.73614531510184,-1.4680753598174954 L-39.583196133186696,-0.8310109603924937 L-39.423410953899854,-0.19803220895301202 L-39.25680165403689,0.43076143362498936 L-39.08338082925222,1.0552707271571449 L-38.90316179405905,1.6753966521506822 L-38.71615858182942,2.2910404098044324 L-38.522385944794145,2.9021034220088158 L-38.32185935404289,3.5084873313458473 L-38.114594999524115,4.110094001089145 L-37.90060979004509,4.706825515203921 L-37.79110234526071,5.003332550485096 L-37.679921353271894,5.298584178346976 L-37.567069129858595,5.592568221354721 L-37.45254803572943,5.885272515866716 L-37.336360476521705,6.176684912034575 L-37.218508902801396,6.46679327380314 L-37.09899581006315,6.7555854789104695 L-36.97782373873031,7.043049418887843 L-36.85499527415487,7.329172999059781 L-36.7305130466175,7.613944138544019 L-36.604379731327576,7.897350770251512 L-36.47659804842312,8.179380840886449 L-36.34717076297083,8.46002231094624 L-36.21610068496611,8.739263154721517 L-36.08339066933299,9.017091360296146 L-35.94904361592423,9.293494929547206 L-35.81306246952123,9.568461878145007 L-35.67545021983407,9.84198023555309 L-35.53620990150151,10.114038045028206 L-35.395344594091,10.384623363620335 L-35.25285742209864,10.653724262172695 L-35.10875155494922,10.921328825321716 L-34.963030206996216,11.187425151497054 L-34.815696637521754,11.452001352921592 L-34.66675415073666,11.715045555611436 L-34.51620609578041,11.976545899375925 L-34.36405586672119,12.236490537817605 L-34.21030690255582,12.494867638332265 L-34.054962687209844,12.75166538210891 L-33.898026749537436,13.00687196412977 L-33.739502663321474,13.260475593170305 L-33.5793940472735,13.51246449179919 L-33.417704565033745,13.762826896378328 L-33.25443792517109,14.011551057062862 L-33.089597881183124,14.25862523780113 L-32.923188231496084,14.504037716334718 L-32.70836682669763,14.815057610951797 L-32.49100870416779,15.123318045461057 L-32.27112240083243,15.428793229248354 L-32.04871687552833,15.731457376507336 L-31.82380150900322,16.031284706239457 L-31.596386103915773,16.328249442253966 L-31.36648088483561,16.622325813167897 L-31.134096498243295,16.91348805240609 L-30.89924401253034,17.20171039820118 L-30.6619349179992,17.486967093593574 L-30.422181126863276,17.769232386431508 L-30.17999497324691,18.048480529370995 L-29.935389213185392,18.324685779875846 L-29.688377024624955,18.597822400217673 L-29.43897200742278,18.867864657475874 L-29.187188183346993,19.13478682353764 L-28.933039996076662,19.398563175097973 L-28.676542311201796,19.659167993659654 L-28.41771041622336,19.91657556553327 L-28.156560020553247,20.170760181837203 L-27.893107255514316,20.42169613849762 L-27.627368674340357,20.669357736248486 L-27.359361252176107,20.91371928063157 L-27.089102386077247,21.154755081996438 L-26.816609895010405,21.392439455500433 L-26.54190201985315,21.62674672110872 L-26.264997423394007,21.85765120359423 L-25.985915190332435,22.085127232537708 L-25.70467482727884,22.309149142327684 L-25.421296262754574,22.529691272160502 L-25.135799847191933,22.746727966040275 L-24.848206352934152,22.960233572778932 L-24.572715119237298,23.160028917951127 L-24.29536637914291,23.356593010699655 L-24.01618075318662,23.549903688040082 L-23.735179248080208,23.739939194663627 L-23.4523832567116,23.926678182937174 L-23.167814558144872,24.110099712903263 L-22.881495317620253,24.2901832522801 L-22.593448086554115,24.466908676461546 L-22.30369580253898,24.640256268517117 L-22.01226178934352,24.810206719192003 L-21.71916975691255,24.97674112690704 L-21.424443801367048,25.139840997758736 L-21.128108405004124,25.299488245519242 L-20.830188436297046,25.45566519163639 L-20.53070914989523,25.608354565233657 L-20.229696186624242,25.757539503110184 L-19.927175573485794,25.903203549740773 L-19.62317372365774,26.045330657275887 L-19.3177174364941,26.183905185541644 L-19.010833897525025,26.318911902039826 L-18.702550678456824,26.45033598194788 L-18.392895737171955,26.5781630081189 L-18.081897417729024,26.702378971081647 L-17.769584450362782,26.822970269040546 L-17.45598595148413,26.939923707875675 L-17.14113142368012,27.053226501142777 L-16.825050755713956,27.162866270073252 L-16.50777422252498,27.26883104357416 L-16.189332485228693,27.371109258228223 L-15.869756591116738,27.46968975829382 L-15.549077973656914,27.564561795704993 L-15.227328452493158,27.65571503007144 L-14.995015398377708,27.71907016782486 L-14.7621658694584,27.78048669278716 L-14.528792532724149,27.83996232906688 L-14.29490799655754,27.897494925454687 L-14.060524810734812,27.953082455423395 L-13.825655466425818,28.006723017127957 L-13.590312396194088,28.058414833405458 L-13.354507973996796,28.108156251775128 L-13.118254515184745,28.155945744438334 L-12.88156427650238,28.201781908278583 L-12.406922193472838,28.287589260434924 L-11.9306786067368,28.365569576954975 L-11.452929460421181,28.435716121463788 L-10.973769760951301,28.498024152500637 L-10.493293577050823,28.552490923519013 L-10.011594039741702,28.599115682886634 L-9.528763342344297,28.637899673885443 L-9.04489274047729,28.6688461347116 L-8.560072552057706,28.691960298475493 L-8.074392157300947,28.707249393201728 L-7.587939998720695,28.71472264182914 L-7.100803581129038,28.71439126221078 L-6.6130694716364085,28.706268467113926 L-6.124823299651529,28.690369464220076 L-5.636149756881521,28.666711456124954 L-5.1471325973318605,28.63531364033851 L-4.657854637306306,28.596197209284902 L-4.168397755407021,28.549385350302526 L-3.6788428925345125,28.494903245644 L-3.189270051887584,28.432778072476154 L-2.6997582989634332,28.363039002880043 L-2.210385761557607,28.285717203850965 L-1.7212296297639436,28.200845837298406 L-1.2323661559746846,28.108460060046102 L-0.7438706548804092,28.008597023832007 L-0.25581750346999793,27.901295875308286 L0.2317198589692753,27.78659775604134 L0.6709204470308432,27.6768306460731 L1.1096026389951952,27.561080890521733 L1.5477200660323023,27.439376994314863 L1.9852268539443358,27.31174767644178 L2.4220776231656687,27.178221869953447 L2.858227488762874,27.03882872196249 L3.2936320604347427,26.893597593643197 L3.728247442512214,26.742558060231552 L4.162030233958481,26.58573991102518 L4.594937528368936,26.42317314938338 L5.026926913971122,26.254887992727134 L5.457956473624834,26.08091487253908 L5.887984784822047,25.90128443436352 L6.316970919686943,25.71602753780644 L6.7448744449759,25.525175256535476 L7.171655422077498,25.32875887827995 L7.5972744070125175,25.12680990483084 L8.02169245043394,24.9193600520408 L8.444871097626947,24.706441249824152 L8.86677238850892,24.488085642156882 L9.287358857629448,24.264325587076645 L9.706593534170311,24.03519365668277 L10.124439941945493,23.800722637136253 L10.540862099401181,23.56094552865975 L10.955824519615762,23.3158955455376 L11.369292210299824,23.0656061161158 L11.781230673796149,22.810110882802014 L12.191605907079731,22.549443702065588 L12.600384401757758,22.28363864443752 L13.007533144069615,22.01272999451049 L13.413019614886915,21.736752250938824 L13.816811789713414,21.45574012643856 L14.118025579956637,21.242054646419017 L14.418253361182312,21.02558240046605 L14.71748118009422,20.80633770356622 L15.015695120988857,20.584334971876054 L15.312881305755448,20.35958872272202 L15.609025893875964,20.13211357460053 L15.904115082425076,19.90192424717798 L16.198135106070175,19.669035561290702 L16.491072237071425,19.433462438944964 L16.782912785281695,19.19521990331699 L17.07364309814659,18.954323078752953 L17.36324956070445,18.71078719076898 L17.651718595586324,18.464627566051156 L17.939036663015987,18.215859632455526 L18.225190260809967,17.964498919008054 L18.510165924377517,17.710561055904677 L18.793950226720614,17.45406177451127 L19.076529778433976,17.195016907363655 L19.357891227705032,16.93344238816763 L19.638021260313923,16.66935425179894 L19.916906599633563,16.402768634303257 L20.194534006629578,16.133701772896213 L20.470890279860317,15.8621700059634 L20.745962255476883,15.588189773060332 L21.019736807223065,15.311777614912513 L21.2922008464354,15.032950173415397 L21.563341322043165,14.751724191634356 L21.833145220568362,14.468116513804727 L22.101599566125724,14.182144085331801 L22.36869142042272,13.893823952790802 L22.634407882759525,13.603173263926935 L22.898736090029047,13.310209267655358 L23.16166321671694,13.01494931406115 L23.42317647490158,12.717410854399347 L23.68326311425408,12.417611441094946 L23.94191042203828,12.115568727742875 L24.199105723110737,11.81130046910804 L24.454836379920724,11.504824521125311 L24.709089792510287,11.196158840899459 L24.96185339851417,10.885321486705234 L25.213114673159858,10.57233061798733 L25.462861129267573,10.257204495360382 L25.711080317250243,9.939961480609002 L25.957759825113524,9.620620036687757 L26.20288727845583,9.299198727721128 L26.446450340468285,8.975716219003568 L26.688436711934752,8.65019127699947 L26.92883413123183,8.322642769343176 L27.167630374328816,7.993089664839003 L27.40481325478775,7.66155103346122 L27.640370623763417,7.328046046354016 L27.87429037000332,6.9925939758315385 L28.106560419847696,6.655214195377895 L28.337168737229515,6.315926179647127 L28.56610332367446,5.974749504463252 L28.793352218300942,5.631703846820243 L29.018903497820123,5.286808984881997 L29.24274527653588,4.940084797982367 L29.464865706344828,4.591551266625161 L29.68525297673632,4.241228472484118 L29.9038953147924,3.8891365984029673 L30.120780985187864,3.53529592839539 L30.33589829019025,3.1797268476449765 L30.54923556965981,2.8224498425052875 L30.849869004869287,2.3108962130252464 L31.146845289231628,1.795982960097523 L31.440131790231444,1.277771212749004 L31.729696265488304,0.7563223963824266 L32.01550686275674,0.2316982327763787 L32.29753211992623,-0.2960392599147028 L32.575740965021225,-0.8268277671605098 L32.85010271620115,-1.3606046780549452 L33.12058708176035,-1.897307085316003 L33.38716416012815,-2.4368717852858213 L33.64980443986885,-2.9792352779307567 L33.908478799681696,-3.52433376684125 L34.163158508400876,-4.0721031592319115 L34.41381522499556,-4.622479065941505 L34.660420998569876,-5.175396801432942 L34.90294826836289,-5.730791383793285 L35.14136986374866,-6.288597534733746 L35.37565900423617,-6.848749679589684 L35.605789299469386,-7.411181947320614 L35.83173474922723,-7.975828170510193 L36.053469743423584,-8.542621885366238 L36.27096906210727,-9.111496331720705 L36.4842078754621,-9.682384453029709 L36.69316174380682,-10.255218896373512 L36.89780661759515,-10.82993201245652 L37.09811883741576,-11.4064558556073 L37.294075133992294,-11.98472218377856 L37.48565262818334,-12.564662458547158 L37.67282883098244,-13.14620784511411 L37.855581643518114,-13.729289212304577 L38.03388935705384,-14.31383713256784 L38.20773065298804,-14.89978188197741 L38.398753925213555,-15.563436598842431 L38.58402253045624,-16.228696284155042 L38.76350837926363,-16.895459204881227 L38.937184174791824,-17.563623714327534 L39.10502341280552,-18.233088252141158 L39.267000381678024,-18.903751344309924 L39.42309016239122,-19.575511603162287 L39.573268628535594,-20.248267727367327 L39.717512446310224,-20.92191850193476 L39.85579907452278,-21.596362798214916 L39.98810676458954,-22.27149957389877 L40.11441456053535,-22.94722787301792 L40.234702298993675,-23.623446825944583 L40.34895060920657,-24.30005564939162 L40.45714091302467,-24.97695364641251 L40.559255424907214,-25.654040206401362 L40.65527715192204,-26.331214805092916 L40.74518989374557,-27.008377004562536 L40.82897824266282,-27.68542645322622 L40.90662758356741,-28.362262885840593 L40.978124093961554,-29.038786123502913 L41.04345474395605,-29.714896073651047 L41.10260729627029,-30.390492730063517 L41.15557030623228,-31.06547617285946 L41.20233312177858,-31.73974656849863 L41.2428858834544,-32.41320416978144 L41.27721952441349,-33.0857493158489 L41.305325770418236,-33.75728243218267 L41.32719713983958,-34.42770403060503 L41.3428269436571,-35.096914709278884 L41.35220928545894,-35.764815152707776 L41.35533906144183,-36.43130613173541 " />
			<path d="M-29.355339055803302,-16.035590476385607 L-29.35272079817848,-15.48165632437612 L-29.34487633741244,-14.929668912260023 L-29.331812091279563,-14.379732370356354 L-29.31353585091641,-13.8319503991406 L-29.290056780821693,-13.286426269244707 L-29.2613854188563,-12.743262821457071 L-29.227533676243283,-12.202562466722544 L-29.188514837567855,-11.66442718614243 L-29.144343560777404,-11.128958530974488 L-29.095035877181477,-10.596257622632931 L-29.040609191451793,-10.066425152688426 L-28.98108228162223,-9.539561382868097 L-28.916475299088837,-9.015766145055515 L-28.846809768609827,-8.49513884129071 L-28.772108588305585,-7.977778443770165 L-28.69239602965865,-7.463783494846816 L-28.607697737513735,-6.953252107030054 L-28.518040730077725,-6.446281962985725 L-28.423453398919662,-5.942970315536123 L-28.32396550897075,-5.443413987660004 L-28.219608198524377,-4.947709372492575 L-28.11041397923608,-4.455952433325494 L-27.996416736123564,-3.968238703606877 L-27.877651727566708,-3.484663286941292 L-27.754154664125995,-3.00531716185575 L-27.62595966069831,-2.5302758068703914 L-27.49310803724467,-2.0596324703275393 L-27.355643220694002,-1.5934816656383386 L-27.2136098825381,-1.1319159998709025 L-27.067053938831645,-0.6750261737503045 L-26.91602255019218,-0.22290098165858188 L-26.760564121800122,0.22437268836525973 L-26.60072830339877,0.6667098546252552 L-26.436565989294287,1.104027441768474 L-26.26812931835572,1.536244280785018 L-26.09547167401497,1.9632811090080313 L-25.918647684266833,2.38506057011369 L-25.737713221668972,2.801507214121206 L-25.552725403341917,3.2125474973928254 L-25.36374259096908,3.618109782633838 L-25.170824390796735,4.0181243388925605 L-24.974031653634047,4.412523341560346 L-24.773426474853036,4.801240872371594 L-24.569072194388607,5.184212919403729 L-24.361033396738534,5.5613773770772115 L-24.14937591096347,5.932674046155547 L-23.934166810686932,6.298044633745269 L-23.715474414095322,6.6574327532959465 L-23.493368283937905,7.01078392460019 L-23.26791922752682,7.358045573793643 L-23.039199296737095,7.699167033354982 L-22.80728178800661,8.034099542105928 L-22.572231414334762,8.362800272154608 L-22.334096358007457,8.685240516710877 L-22.092951759869177,9.001387862758605 L-21.848872728544677,9.311212102634096 L-21.601932481603807,9.614685839069002 L-21.352202345561494,9.911784485190337 L-21.09975175587775,10.202486264520456 L-20.844648256957676,10.486772210977069 L-20.586957502151453,10.764626168873246 L-20.32674325375434,11.036034792917397 L-20.064067383006698,11.300987548213289 L-19.798989870093976,11.559476710260025 " />
			<path d="M29.355339061441825,-36.431306131735866 L29.3533933540979,-35.95179288606166 L29.347545175555425,-35.4709668363367 L29.337792664217346,-34.988895083430144 L29.32413455094716,-34.50564467187105 L29.306570159068936,-34.021282589848376 L29.28509940436729,-33.535875769210946 L29.25972279508741,-33.04949108546751 L29.230441431935034,-32.56219535778667 L29.197257008076463,-32.07405534899696 L29.160171809138557,-31.585137765586783 L29.11918871320874,-31.09550925770444 L29.07431119083499,-30.605236419158125 L29.025543305025845,-30.114385787415927 L28.972889711250403,-29.623023843605818 L28.91635565743833,-29.13121701251567 L28.855946983979837,-28.639031662593247 L28.791670123725705,-28.146534105946202 L28.72353210198727,-27.653790598342077 L28.651540536536434,-27.160867339208316 L28.57570363760565,-26.66783047163225 L28.49603020788793,-26.1747460823611 L28.41252964253686,-25.68168020180198 L28.32521192916657,-25.188698804021904 L28.234087647851755,-24.69586780674776 L28.139167971127673,-24.20325307136635 L28.04046466399014,-23.710920402924355 L27.937990083895524,-23.21893555012835 L27.83175718076076,-22.727364205344802 L27.721779496963347,-22.236272004600075 L27.608071167341336,-21.74572452758042 L27.490646919193335,-21.25578729763198 L27.369522072278524,-20.766525781760798 L27.24471253881663,-20.278005390632803 L27.116234823487943,-19.790291478573806 L26.984106023433316,-19.303449343569532 L26.848343828254166,-18.81754422726558 L26.708966520012453,-18.332641314967454 L26.565992959582697,-17.848805690592158 L26.419441021405248,-17.366097416278933 L26.269329386798102,-16.8845780032859 L26.115678249471795,-16.404312088968187 L25.95850833350219,-15.925364031645712 L25.797840893330484,-15.447797910603173 L25.63369771376318,-14.971677526090053 L25.466101109972126,-14.497066399320614 L25.29507392749448,-14.024027772473906 L25.12063954223274,-13.552624608693762 L24.942821860454718,-13.082919592088794 L24.761645318793555,-12.614975127732405 L24.57713488424772,-12.148853341662777 L24.38931605418101,-11.684616080882874 L24.198214856322537,-11.222324913360447 L24.00385784876675,-10.76204112802803 L23.806272119973418,-10.303825734782937 L23.605485288767635,-9.847739464487269 L23.401525504339823,-9.39384276896791 L23.19442144624573,-8.942195821016528 L22.984202324406425,-8.49285851438957 L22.77089787910831,-8.045890463808275 L22.554538381003105,-7.601351004958653 L22.335154631107862,-7.1592991944915125 L22.112777960804955,-6.719793810022437 L21.887440231842078,-6.282893350131789 L21.659173836332265,-5.848656034364723 L21.428011696753863,-5.417139803231174 L21.193987265950554,-4.988402318205863 L20.95713452713133,-4.562500961728286 L20.71748799387053,-4.139492837202734 L20.475082710107802,-3.7194347689982714 L20.22995425014813,-3.3023833024487566 L19.982138718661812,-2.888394703852817 L19.73167275068448,-2.47752496047388 L19.478593511617092,-2.069829780540142 L19.22293866572703,-1.6653641564098567 L18.964746047022384,-1.264177273613972 L18.70405439444419,-0.8663220358682795 L18.44090311092976,-0.4718526588720768 L18.175332114961517,-0.08082274403176477 L17.907381840566998,0.3067147215391523 L17.63709323731885,0.6907073650200674 L17.364507770334843,1.07110342788327 L17.08966742027785,1.4478517658939467 L16.81261468335585,1.8209018491101812 L16.533392571321958,2.1902037618829526 L16.252044611474375,2.55570820285614 L15.968614846656438,2.917366484966514 L15.683147835256579,3.2751305354437483 L15.395688651208353,3.6289528958104085 L15.106282883990424,3.9787867218819595 L14.814976638626572,4.324585783766763 L14.521816535685684,4.666304465866076 L14.226849711281766,5.003897766874054 L13.930123817073932,5.337321299777749 L13.631687020266412,5.666531291857108 L13.33158800360855,5.991484584684977 L13.029875965394796,6.3121386341270975 L12.726600619464719,6.628451510342112 L12.421812195202998,6.940381897781552 L12.11556143753943,7.2478890951898505 L11.807899606948917,7.550933015604339 L11.498878479451477,7.849474186355243 L11.188550346612244,8.143473749065688 L10.876964787598144,8.432898167676663 L10.564172230026285,8.717715256493648 L10.250227447913874,8.997888549079319 L9.935185351624275,9.273382772058657 L9.619100983678255,9.544163850872287 L9.302029518753992,9.81019890977648 L8.984026263687069,10.071456271843145 L8.665146657470475,10.327905458959837 L8.345446271254609,10.579517191829757 L8.024980808347275,10.826263389971745 L7.703806104213683,11.068117171720289 L7.3819781264764535,11.305052854225515 L7.0595529749156105,11.5370459534532 L6.736586881468589,11.764073184184756 L6.413136210230224,11.986112460017248 L6.089257457452767,12.203142893363374 L5.765007251545868,12.415144795451484 L5.440442353076589,12.622099676325568 L5.1156196547694,12.823990244845259 L4.79059618150617,13.020800408685835 L4.465429090326185,13.212515274338216 L4.140175670426134,13.399121147108968 L3.814893343160111,13.580605531120296 L3.4896396620396177,13.756957129310054 L3.1644723127335674,13.928165843431735 L2.8394491130683663,14.094222774054431 " />

        </g>
        </g>
    </svg>
    