<?xml version="1.0" encoding="UTF-8" standalone="no"?>
    <svg
    xmlns:svg="http://www.w3.org/2000/svg"
    xmlns="http://www.w3.org/2000/svg"
    width="223"
    height="426"
    >
        <g transform="scale(4, -4)   translate(27.924938727432227,-54.39596038615748)" stroke-width="0.25"  fill="none">
        <!-- hidden lines -->
        <g  stroke="rgb(160,160,160)" fill="none" stroke-dasharray="0.25,0.25" >
    			<path d="M-24.490013583795353,41.00637198424069 L-24.448595368574132,41.078874611140314 L-24.40288493886156,41.15131808966764 L-24.352885970215546,41.22369659467067 L-24.298602483033733,41.29600430622193 L-24.24003884223025,41.36823541008642 L-24.177199756884704,41.440384098189114 L-24.110090279863563,41.51244456908203 L-24.038715807413794,41.58441102841068 L-23.96308207872903,41.65627768938001 L-23.88319517548802,41.72803877321973 L-23.799061521365616,41.79968850964895 L-23.710687881516293,41.87122113734019 L-23.61808136203011,41.94263090438264 L-23.521249409361324,42.013912068744645 L-23.420199809729667,42.08505889873547 L-23.31494068849419,42.156065673466145 L-23.20548050949997,42.22692668330948 L-23.091828074397483,42.297636230359196 L-22.973992521934903,42.36818862888808 L-22.85198332722326,42.43857820580514 L-22.725810300974494,42.50879930111186 L-22.595483588712675,42.57884626835721 L-22.46101366995812,42.64871347509177 L-22.322411357384773,42.71839530332057 L-22.032854462002256,42.857180427262655 L-21.72690603332302,42.99515700244912 L-21.404664474146244,43.13228065120076 L-21.06623342766298,43.26850727016678 L-20.711721744121135,43.40379304450986 L-20.341243445815785,43.53809446199839 L-19.954917690415925,43.67136832700142 L-19.55286873263958,43.80357177438173 L-19.135225884289497,43.93466228328264 L-18.70212347266235,44.064597690804085 L-18.253700797344756,44.19333620556354 L-17.790102085410112,44.32083642113747 L-17.31147644503053,44.447057329378964 L-16.817977817518887,44.57195833360726 L-16.309764927816367,44.695499261664935 L-15.787001233441458,44.81764037883857 L-15.249854871916774,44.93834240063868 L-14.69849860669067,45.05756650543489 L-14.133109771570957,45.17527434694218 L-13.553870213688725,45.29142806655431 L-12.960966235010446,45.40599030552035 L-12.354588532417324,45.51892421696042 L-11.734932136371093,45.630193477716865 L-11.102196348185942,45.73976230003693 L-10.456584675926877,45.84759544308322 L-9.79830476895502,45.95365822426834 L-9.12756835114088,46.05791653040985 L-8.44459115276728,46.16033682870221 L-7.749592841143489,46.260886177502 L-7.042796949953278,46.35953223692297 L-6.324430807359299,46.456243279237604 L-5.594725462887084,46.55098819908178 L-4.853915613112122,46.64373652345924 L-4.102239526173932,46.73445842154268 L-3.3399389651414353,46.8231247142683 L-2.5672591102541986,46.90970688372072 L-1.7844484800646256,46.994177082305264 L-0.9917588515064715,47.07650814170462 L-0.1894451789152818,47.156673581617056 L0.6222344879730528,47.23464761827332 L1.4430190870193194,47.310405172729546 L2.272644627646951,47.38392187893342 L3.1108442757498267,47.45517409156108 L3.9573484395146465,47.52413889362222 L4.811884856130295,47.59079410383095 L5.674178679356249,47.65511828373997 L6.543952567921945,47.71709074463584 L7.420926774728578,47.77669155419323 L8.304819236824716,47.83390154288567 L9.19534566612679,47.88870231015117 L10.092219640855188,47.94107623031039 L10.995152697656621,47.99100645823564 " />
			<path d="M10.995152697656735,47.991006458235645 L10.995152697656735,-40.08176898760971 " />
			<path d="M-24.490013583795353,-47.06640346160467 L-24.448595368574132,-46.993900834705045 L-24.40288493886156,-46.92145735617772 L-24.352885970215546,-46.84907885117469 L-24.298602483033733,-46.77677113962343 L-24.24003884223025,-46.70454003575894 L-24.177199756884704,-46.632391347656245 L-24.110090279863563,-46.56033087676333 L-24.038715807413794,-46.48836441743468 L-23.96308207872903,-46.41649775646535 L-23.88319517548802,-46.34473667262563 L-23.799061521365616,-46.27308693619641 L-23.710687881516293,-46.201554308505166 L-23.61808136203011,-46.13014454146272 L-23.521249409361324,-46.058863377100714 L-23.420199809729667,-45.98771654710989 L-23.31494068849419,-45.916709772379214 L-23.20548050949997,-45.84584876253588 L-23.091828074397483,-45.77513921548616 L-22.973992521934903,-45.70458681695728 L-22.85198332722326,-45.634197240040216 L-22.725810300974494,-45.5639761447335 L-22.595483588712675,-45.49392917748815 L-22.46101366995812,-45.42406197075359 L-22.322411357384773,-45.35438014252479 L-22.032854462002256,-45.215595018582704 L-21.72690603332302,-45.07761844339624 L-21.404664474146244,-44.9404947946446 L-21.06623342766298,-44.80426817567858 L-20.711721744121135,-44.6689824013355 L-20.341243445815785,-44.53468098384697 L-19.954917690415925,-44.401407118843935 L-19.55286873263958,-44.26920367146363 L-19.135225884289497,-44.13811316256272 L-18.70212347266235,-44.008177755041274 L-18.253700797344756,-43.87943924028182 L-17.790102085410112,-43.75193902470789 L-17.31147644503053,-43.625718116466395 L-16.817977817518887,-43.500817112238096 L-16.309764927816367,-43.37727618418042 L-15.787001233441458,-43.25513506700679 L-15.249854871916774,-43.13443304520668 L-14.69849860669067,-43.015208940410474 L-14.133109771570957,-42.89750109890318 L-13.553870213688725,-42.78134737929105 L-12.960966235010446,-42.66678514032501 L-12.354588532417324,-42.55385122888494 L-11.734932136371093,-42.44258196812849 L-11.102196348185942,-42.33301314580844 L-10.456584675926877,-42.22518000276214 L-9.79830476895502,-42.11911722157702 L-9.12756835114088,-42.01485891543551 L-8.44459115276728,-41.91243861714314 L-7.749592841143489,-41.81188926834335 L-7.042796949953278,-41.713243208922385 L-6.324430807359299,-41.616532166607755 L-5.594725462887084,-41.52178724676358 L-4.853915613112122,-41.42903892238612 L-4.102239526173932,-41.338317024302675 L-3.3399389651414353,-41.249650731577056 L-2.5672591102541986,-41.163068562124636 L-1.7844484800646256,-41.078598363540095 L-0.9917588515064715,-40.996267304140744 L-0.1894451789152818,-40.91610186422831 L0.6222344879730528,-40.83812782757204 L1.4430190870193194,-40.762370273115806 L2.272644627646951,-40.688853566911945 L3.1108442757498267,-40.61760135428428 L3.9573484395146465,-40.54863655222314 L4.811884856130295,-40.48198134201441 L5.674178679356249,-40.4176571621054 L6.543952567921945,-40.35568470120951 L7.420926774728578,-40.29608389165213 L8.304819236824716,-40.238873902959696 L9.19534566612679,-40.18407313569419 L10.092219640855188,-40.131699215534965 L10.995152697656621,-40.08176898760972 " />
			<path d="M-24.490013583795353,41.00637198424069 L-24.490013583795353,-47.06640346160467 " />
			<path d="M24.490013583795232,46.4192742756109 L10.995152697656742,47.991006458235645 " />
			<path d="M24.490013583795232,46.4192742756109 L24.490013583795232,-41.653501170234456 " />
			<path d="M24.490013583795232,-41.653501170234456 L10.995152697656742,-40.08176898760971 " />
			<path d="M24.490013583795232,-41.65350117023445 L24.44859536857401,-41.726003797134084 L24.402884938861447,-41.7984472756614 L24.352885970215425,-41.87082578066444 L24.298602483033612,-41.9431334922157 L24.240038842230128,-42.01536459608018 L24.177199756884583,-42.08751328418288 L24.110090279863442,-42.1595737550758 L24.03871580741368,-42.23154021440444 L23.963082078728917,-42.30340687537378 L23.8831951754879,-42.3751679592135 L23.799061521365495,-42.44681769564272 L23.71068788151618,-42.51835032333396 L23.61808136202999,-42.5897600903764 L23.521249409361204,-42.661041254738414 L23.420199809729546,-42.73218808472924 L23.31494068849407,-42.803194859459914 L23.20548050949985,-42.87405586930325 L23.091828074397363,-42.944765416352965 L22.973992521934782,-43.01531781488185 L22.851983327223138,-43.08570739179891 L22.725810300974373,-43.155928487105626 L22.595483588712554,-43.22597545435098 L22.461013669958,-43.29584266108554 L22.322411357384652,-43.36552448931434 L22.032854462002142,-43.504309613256424 L21.726906033322905,-43.64228618844289 L21.40466447414613,-43.77940983719452 L21.066233427662866,-43.91563645616055 L20.71172174412102,-44.05092223050363 L20.34124344581567,-44.18522364799216 L19.95491769041582,-44.31849751299519 L19.552868732639467,-44.45070096037549 L19.135225884289397,-44.5817914692764 L18.702123472662237,-44.71172687679785 L18.25370079734465,-44.8404653915573 L17.790102085410012,-44.967965607131234 L17.311476445030436,-45.094186515372726 L16.81797781751878,-45.219087519601025 L16.309764927816254,-45.342628447658704 L15.787001233441345,-45.46476956483234 L15.249854871916668,-45.58547158663245 L14.698498606690563,-45.704695691428654 L14.133109771570844,-45.82240353293595 L13.553870213688619,-45.93855725254808 L12.960966235010346,-46.05311949151412 L12.354588532417218,-46.166053402954184 L11.734932136370972,-46.277322663710635 L11.102196348185828,-46.38689148603069 L10.456584675926777,-46.49472462907699 L9.798304768954914,-46.6007874102621 L9.127568351140795,-46.70504571640362 L8.444591152767181,-46.80746601469598 L7.749592841143382,-46.90801536349577 L7.0427969499531855,-47.006661422916736 L6.324430807359214,-47.103372465231374 L5.5947254628869985,-47.19811738507555 L4.853915613112044,-47.29086570945301 L4.102239526173825,-47.38158760753645 L3.339938965141336,-47.470253900262065 L2.5672591102541062,-47.55683606971449 L1.784448480064551,-47.641306268299026 L0.991758851506404,-47.723637327698384 L0.1894451789151752,-47.80380276761082 L-0.6222344879731487,-47.88177680426709 L-1.443019087019401,-47.957534358723315 L-2.2726446276470647,-48.03105106492718 L-3.1108442757499333,-48.102303277554846 L-3.957348439514739,-48.17126807961599 L-4.811884856130376,-48.23792328982472 L-5.674178679356324,-48.30224746973373 L-6.543952567922052,-48.36421993062961 L-7.42092677472867,-48.423820740187 L-8.304819236824798,-48.48103072887943 L-9.195345666126904,-48.53583149614494 L-10.092219640855301,-48.588205416304156 L-10.99515269765639,-48.638135644229386 " />
			<path d="M-10.995152697656852,39.434639801615944 L-10.995152697656852,-48.638135644229415 " />
			<path d="M24.490013583795232,46.41927427561091 L24.44859536857401,46.346771648711275 L24.402884938861447,46.274328170183956 L24.352885970215425,46.20194966518092 L24.298602483033612,46.12964195362966 L24.240038842230128,46.057410849765176 L24.177199756884583,45.985262161662476 L24.110090279863442,45.91320169076956 L24.03871580741368,45.84123523144092 L23.963082078728917,45.769368570471585 L23.8831951754879,45.69760748663186 L23.799061521365495,45.62595775020264 L23.71068788151618,45.5544251225114 L23.61808136202999,45.48301535546896 L23.521249409361204,45.411734191106945 L23.420199809729546,45.34058736111612 L23.31494068849407,45.269580586385445 L23.20548050949985,45.19871957654211 L23.091828074397363,45.128010029492394 L22.973992521934782,45.05745763096351 L22.851983327223138,44.987068054046446 L22.725810300974373,44.91684695873973 L22.595483588712554,44.84679999149438 L22.461013669958,44.77693278475982 L22.322411357384652,44.70725095653102 L22.032854462002142,44.56846583258894 L21.726906033322905,44.43048925740247 L21.40466447414613,44.29336560865084 L21.066233427662866,44.15713898968481 L20.71172174412102,44.02185321534173 L20.34124344581567,43.8875517978532 L19.95491769041582,43.75427793285017 L19.552868732639467,43.62207448546987 L19.135225884289397,43.490983976568955 L18.702123472662237,43.36104856904751 L18.25370079734465,43.23231005428806 L17.790102085410012,43.104809838714125 L17.311476445030436,42.97858893047263 L16.81797781751878,42.85368792624433 L16.309764927816254,42.730146998186655 L15.787001233441345,42.60800588101302 L15.249854871916668,42.487303859212915 L14.698498606690563,42.368079754416705 L14.133109771570844,42.25037191290941 L13.553870213688619,42.13421819329728 L12.960966235010346,42.01965595433124 L12.354588532417218,41.906722042891175 L11.734932136370972,41.795452782134724 L11.102196348185828,41.68588395981467 L10.456584675926777,41.57805081676837 L9.798304768954914,41.47198803558326 L9.127568351140795,41.36772972944175 L8.444591152767181,41.265309431149376 L7.749592841143382,41.16476008234959 L7.0427969499531855,41.06611402292862 L6.324430807359214,40.96940298061399 L5.5947254628869985,40.87465806076981 L4.853915613112044,40.78190973639235 L4.102239526173825,40.691187838308906 L3.339938965141336,40.602521545583286 L2.5672591102541062,40.51593937613087 L1.784448480064551,40.43146917754633 L0.991758851506404,40.349138118146975 L0.1894451789151752,40.26897267823454 L-0.6222344879731487,40.19099864157827 L-1.443019087019401,40.115241087122044 L-2.2726446276470647,40.041724380918176 L-3.1108442757499333,39.97047216829051 L-3.957348439514739,39.90150736622937 L-4.811884856130376,39.83485215602064 L-5.674178679356324,39.77052797611163 L-6.543952567922052,39.70855551521575 L-7.42092677472867,39.64895470565836 L-8.304819236824798,39.59174471696593 L-9.195345666126904,39.53694394970042 L-10.092219640855301,39.4845700295412 L-10.99515269765639,39.43463980161597 " />
			<path d="M-10.995152697656852,-48.638135644229415 L-24.49001358379535,-47.06640346160467 " />
			<path d="M-24.490013583795356,41.00637198424068 L-10.995152697656835,39.43463980161594 " />
			<path d="M-5.487396847647291,42.63272501539049 L-5.460471467504726,42.63909639670524 L-5.433610952961309,42.64759561092872 L-5.380343045843513,42.670890559886864 L-5.328106125358649,42.70238551917213 L-5.27740326160659,42.741777175109725 L-5.228722750882274,42.788686164519284 L-5.1825334131154515,42.84266072818974 L-5.139280076878475,42.90318106156744 L-5.099379295443987,42.969664320758184 L-5.063215335149187,43.04147023563252 L-5.031136474700946,43.11790727597709 L-5.003451651061469,43.198239311308654 L-4.980427484216468,43.28169270021301 L-4.962285709478951,43.36746374093473 L-4.949201042056942,43.45472641146446 L-4.941299494450523,43.54264032458237 L-4.938657162882568,43.630358821246496 " />
			<path d="M11.157706923549298,-40.81840455838234 L11.157706923549298,49.03361887626798 " />
			<path d="M-25.424938727432227,-48.019058655284354 L-25.38658847774615,-47.94412573327719 L-25.343732301640316,-47.86924880521866 L-25.296373754272068,-47.794434082564976 L-25.244516764295405,-47.71968777161206 L-25.18816563353508,-47.6450160729807 L-25.127325036629728,-47.5704251811022 L-25.062000020644092,-47.49592128370448 L-24.99219600465034,-47.42151056129878 L-24.917918779278487,-47.34719918666698 L-24.83917450623609,-47.272993324349486 L-24.755969717797072,-47.19889913013388 L-24.668311316259803,-47.12492275054427 L-24.57620657337457,-47.051070322331384 L-24.47966312974031,-46.97734797196347 L-24.378688994170794,-46.90376181511814 L-24.273292543030237,-46.83031795617495 L-24.163482519538462,-46.757022487709115 L-24.049268033045557,-46.68388148998598 L-23.930658558276257,-46.61090103045672 L-23.80766393454391,-46.53808716325497 L-23.680294364934298,-46.4654459286946 L-23.548560415459193,-46.39298335276865 L-23.41247301417988,-46.32070544664945 L-23.272043450300593,-46.24861820618992 L-23.127283373232032,-46.17672761142622 L-22.978204791624968,-46.10503962608168 L-22.6671419395919,-45.96229525401204 L-22.338958109611703,-45.82043245474617 L-21.99376219809693,-45.679498300529865 L-21.6316687463289,-45.539539555470306 L-21.252797902451135,-45.400602660019004 L-20.857275381602392,-45.262733715562156 L-20.445232424202423,-45.125978469123474 L-20.016805752404423,-44.99038229818464 L-19.57213752472854,-44.85599019562839 L-19.111375288891466,-44.72284675480912 L-18.63467193284788,-44.5909961547562 L-18.142185634059885,-44.46048214551466 L-17.634079807011283,-44.33134803362826 L-17.110523048984177,-44.20363666776972 L-16.571689084115796,-44.077390424522875 L-16.01775670575421,-43.952651194321476 L-15.448909717131905,-43.82946036754931 L-14.865336870377092,-43.70785882080622 L-14.267231803882865,-43.58788690334465 L-13.654792978055013,-43.46958442368113 L-13.028223609459857,-43.35299063638718 L-12.387731603393803,-43.238144229064105 L-11.73352948489729,-43.12508330950579 L-11.06583432823566,-43.013845393053984 L-10.384867684870613,-42.90446739015016 L-9.690855509946076,-42.79698559408799 L-8.984028087312787,-42.691435668970776 L-8.264619953116615,-42.58785263787747 L-7.532869817975893,-42.48627087124151 L-6.7890204877735485,-42.38672407544621 L-6.033318783090444,-42.28924528164045 L-5.26601545730648,-42.19386683477839 L-4.487365113396855,-42.100620382887 L-3.6976261194508666,-42.00953686656472 L-2.897060522941402,-41.92064650871488 L-2.0859339637736483,-41.83397880451731 L-1.2645155861416733,-41.74956251164136 L-0.43307794922224474,-41.66742564070369 L0.40810306326442713,-41.58759544597391 L1.2587483345971648,-41.5100984163312 L2.1185756076689835,-41.434960266474896 L2.9872995786443504,-41.36220592839193 L3.864631991627334,-41.29185954308406 L4.75028173430934,-41.22394445255749 L5.643954934564569,-41.15848319207765 L6.545355057961366,-41.095497482691634 L7.454183006156832,-41.03500822402084 L8.370137216142215,-40.97703548732615 L9.29291376030616,-40.921598508847964 L10.22220644728251,-40.86871568342335 L11.157706923549188,-40.81840455838234 " />
			<path d="M-9.000000000000057,47.15824480258655 L-8.021423583487206,47.298344685351026 L-7.020282113386685,47.43474067888559 L-5.997186941970341,47.56734949226383 L-4.952762827652471,47.69609014722069 L-3.8876475534778407,47.820884027602276 L-2.802491537656156,47.941654927373214 L-1.697957436380758,48.05832909715227 L-0.5747197391741565,48.17083528924779 L0.5665356429925161,48.279104801165495 L1.7251117965546001,48.38307151756198 L2.9003012309278873,48.48267195061843 L4.091386310541381,48.577845278809775 L5.2976396930652285,48.66853338404567 L6.518324773566114,48.75468088716062 L7.752696134318921,48.83623518173152 L8.99999999999983,48.91314646620209 " />
			<path d="M11.157706923549298,-40.81840455838234 L25.424938727432107,-42.48009396535973 " />
			<path d="M8.99999999999994,44.60244712432827 L8.997289368265777,44.635889128381066 L8.989159105846491,44.66931098822109 L8.975614110108152,44.70269257176972 L8.956662540049711,44.736013771209215 L8.93231581138833,44.769254515095014 L8.902588589682969,44.802394780445944 L8.86749878150041,44.83541460480536 L8.827067523629013,44.86829409826574 L8.781319170346697,44.901013455449686 L8.730281278750835,44.93355296743988 L8.673984592158899,44.96589303365103 L8.61246302158982,44.99801417363651 L8.54575362533727,45.0298970388227 L8.473896586647127,45.06152242416378 L8.39693518951259,45.09287127971017 L8.31491579260152,45.1239247220835 L8.13590363811093,45.18507073479418 L7.937291379135135,45.24481315619545 L7.719557490002389,45.30300806156133 L7.483226510722847,45.35951525426753 L7.228867783325745,45.41419860353736 L6.957094080264572,45.46692637239275 L6.668560128194573,45.51757153502011 L6.363961030678869,45.566012082786685 L6.0440305936231065,45.612131318170015 L5.70953955747275,45.65581813589248 L5.361293740431841,45.696967290583686 L5.000132097176361,45.73547965032574 L4.626924697738937,45.771262435470746 L4.24257063143392,45.80422944215507 L3.847995840872481,45.83430124997205 L3.4441508912857497,45.86140541330268 L3.032008680529922,45.885476635843446 L2.6125620952901043,45.90645692791086 L2.1868216191293173,45.92429574614368 L1.7558128981450962,45.93895011526627 L1.3205742700981973,45.95038473161986 L0.8821542629659865,45.9585720482121 L0.4416090689467047,45.96349234108018 L-5.784664003566693e-14,45.96513375680763 L-0.44160906894682045,45.96349234108018 L-0.8821542629661022,45.9585720482121 L-1.3205742700983132,45.95038473161986 L-1.7558128981452121,45.93895011526627 L-2.1868216191294314,45.92429574614368 L-2.6125620952902184,45.90645692791086 L-3.032008680530038,45.885476635843446 L-3.444150891285864,45.861405413302684 L-3.847995840872594,45.83430124997205 L-4.2425706314340355,45.80422944215507 L-4.626924697739055,45.771262435470746 L-5.000132097176478,45.73547965032574 L-5.3612937404319565,45.69696729058369 L-5.709539557472866,45.65581813589248 L-6.04403059362322,45.612131318170015 L-6.363961030678984,45.566012082786685 L-6.668560128194691,45.51757153502011 L-6.957094080264691,45.46692637239275 L-7.228867783325862,45.414198603537365 L-7.483226510722964,45.35951525426753 L-7.719557490002504,45.30300806156133 L-7.937291379135253,45.24481315619545 L-8.13590363811105,45.18507073479418 L-8.314915792601639,45.1239247220835 L-8.396935189512709,45.092871279710174 L-8.473896586647246,45.06152242416378 L-8.545753625337388,45.0298970388227 L-8.612463021589939,44.99801417363651 L-8.67398459215902,44.96589303365103 L-8.730281278750956,44.93355296743988 L-8.781319170346816,44.901013455449686 L-8.827067523629134,44.86829409826574 L-8.867498781500531,44.83541460480536 L-8.902588589683088,44.80239478044595 L-8.93231581138845,44.769254515095014 L-8.956662540049832,44.736013771209215 L-8.975614110108273,44.70269257176972 L-8.989159105846612,44.6693109882211 L-8.997289368265898,44.635889128381066 L-9.00000000000006,44.60244712432828 " />
			<path d="M8.099999999999937,44.60244712432827 L8.103154380680825,44.536393383915474 L8.112403612066515,44.472030591831064 L8.127117798383434,44.410974301060264 L8.146280180984068,44.35469047026867 L8.168547363701444,44.304397663382 L8.192356873575198,44.2610207070089 L8.215957894151813,44.22516109438879 L8.237724810904384,44.19695352010254 L8.270276508444534,44.16224633579961 L8.279031005783906,44.15450271800753 L8.282023040396723,44.152105477744136 " />
			<path d="M8.282023040396723,44.152105477744136 L8.280791059268697,44.15299393816843 L8.277077883398086,44.155526081782625 L8.262286647659023,44.16478515693907 L8.204345192645388,44.195814244694226 L8.131438274050515,44.22919794714646 L8.03750779301799,44.26684099527755 L7.924166420591817,44.30728567836839 L7.792832305887589,44.34935156417431 L7.644729076092491,44.39213549892506 L7.480885836465304,44.43501160732478 L7.302137170336396,44.47763129255207 L7.10912313910773,44.519923236259906 L6.89532649969223,44.56279444591677 L6.667886973128782,44.60457861077296 L6.42741428465069,44.64513941569299 L6.1745190764477496,44.68434941707739 L5.909812907666247,44.722090042862675 L5.6339082544089525,44.75825159252136 L5.347418509735133,44.79273323706196 L5.050957983660547,44.82544301902896 L4.745141903157434,44.85629785250287 L4.43058641215453,44.88522352310017 L4.107908571537061,44.91215468797336 L3.777726359146741,44.93703487581092 L3.4406586697817736,44.959816486837326 L3.0973253151968576,44.98046079281305 L2.7483470241031727,44.99893793703454 L2.394345442168394,45.01522693433429 L1.9072197453439788,45.03368801177004 L1.4136650497658243,45.04794792978932 L0.9153834176486373,45.05795383853582 L0.4140668517161874,45.06366852966441 L-0.08860270479872723,45.06507043634116 L-0.5909533681542629,45.062153633243334 L-1.0913233140995136,45.054927836559386 L-1.588060777874544,45.04341840398897 L-2.079524054210374,45.02766633474293 L-2.564081497328962,45.00772826954331 L-3.0401115209432357,44.98367649062333 L-3.506002598257078,44.95559892172743 L-3.960153261965309,44.92359912811121 L-4.400972104253722,44.887796316541504 L-4.826877776799063,44.8483253352963 L-5.236298990769015,44.80533667416481 L-5.700645174003877,44.749819442583686 L-5.922401573163083,44.72038063631321 L-6.136814775957403,44.689917019740356 L-6.34358096135908,44.65848875474272 L-6.5423879486319105,44.62615432954256 L-6.732911410896377,44.592976714417695 L-6.914811088694745,44.55902951741246 L-7.087727003556168,44.5244031400486 L-7.251275671561812,44.4892109330362 L-7.4050463169099565,44.45359535198462 L-7.548597085481102,44.417734113113404 L-7.681451258403088,44.3818463489632 L-7.803093465616199,44.3461987641067 L-7.912965899438271,44.311111790859556 L-8.01046452812981,44.27696574499128 L-8.125111735867062,44.23185728652608 L-8.210647578836738,44.192699915354865 L-8.263893710804075,44.16380234104082 L-8.277510948214976,44.15526719288823 L-8.28092430842111,44.152938580943676 L-8.282023040396847,44.152105477744136 " />
			<path d="M-8.282023040396847,44.152105477744136 L-8.27087768494138,44.16168254352962 L-8.239896300762286,44.19437368933418 L-8.217859039356156,44.22252458792607 L-8.193770207737558,44.258684622016105 L-8.169387138647387,44.30272191557531 L-8.146525617783812,44.35406540076017 L-8.127268346225378,44.41045767225345 L-8.112474612975918,44.47166228051331 L-8.103172758920088,44.5362018371288 L-8.100000000000058,44.60244712432827 " />
			<path d="M-8.100000000000062,50.53327375367813 L-8.100000000000062,44.60244712432827 " />
			<path d="M8.099999999999937,50.53327375367813 L8.099999999999937,44.60244712432827 " />

        </g>

        <!-- solid lines -->
        <g  stroke="rgb(0,0,0)" fill="none">
    			<path d="M-4.9386571628825715,49.561185450596355 L-4.480360461135957,49.51155188153923 L-4.000382722548473,49.46686255519275 L-3.5010466207360866,49.42733372891817 L-2.984768506908323,49.393156687757454 L-2.4540467168359608,49.36449681878043 L-1.9114494810849607,49.341492810755696 L-1.3596024970205494,49.32425598301787 L-0.801176222722111,49.31286974677918 L-0.23887295429528846,49.30738920149188 L0.32458625088422494,49.30784086821502 L0.8864747417150811,49.314222561275585 L1.4440734679833882,49.32650339884531 L1.9946841381941842,49.344623952381774 L2.535642276948811,49.368496534210685 L3.0643301186818768,49.398005621857756 L3.578189275363363,49.43300841707675 L4.0747331168652545,49.4733355368684 L4.551558804082506,49.51879183314641 L5.006358916578549,49.56915733708399 L5.436932618487652,49.62418832357112 L5.642478580828072,49.65337100079508 L5.841196308640943,49.68361849063145 L6.032845324052783,49.714894189138995 L6.217193703378731,49.74716024809171 L6.394018357784551,49.78037762078085 L6.563105303257146,49.814506109267185 L6.724249919556899,49.84950441302646 L6.8772571978384684,49.88533017892915 L7.0219419766403455,49.92194005249405 L7.15812916595765,49.95928973035354 L7.2856539591269724,49.9973340138673 L7.404362032266817,50.03602686381931 L7.514109731032359,50.07532145613213 L7.614764244458473,50.11517023853097 L7.70620376568066,50.15552498808898 L7.7883176393393905,50.19633686958413 L7.8610064954894785,50.237556494597065 L7.924182369852418,50.279133981278406 L7.977768810266194,50.32101901471315 L8.021700969203714,50.36316090780921 L8.055925682247917,50.405508662636265 L8.069384343404232,50.426743731532035 L8.08040153242859,50.44801103214082 L8.088973915961363,50.46930412983022 L8.095098900343038,50.49061658216272 L8.09877463239894,50.51194194084483 L8.09999999999994,50.53327375367811 " />
			<path d="M8.09999999999994,50.533273753678124 L8.097560431439193,50.56337155732564 L8.090243195261836,50.59345123118167 L8.07805269909733,50.62349465637542 L8.060996286044734,50.65348373587098 L8.03908423024949,50.6834004053682 L8.012329730714665,50.71322664418403 L7.980748903350364,50.742944486107504 L7.944360771266106,50.77253603022185 L7.903187253312021,50.8019834516874 L7.857253150875746,50.83126901247857 L7.806586132943002,50.8603750720686 L7.751216719430832,50.88928409805554 L7.691178262803536,50.91797867672311 L7.626506927982407,50.94644152353008 L7.483424213341362,51.002603591657824 L7.32231327429983,51.05763500309744 L7.143562241221615,51.111403182358586 L6.947601741002144,51.16377859718788 L6.734903859650557,51.21463507062345 L6.505981004993164,51.26385008496631 L6.261384672238109,51.31130507693615 L6.001704115375109,51.35688572330078 L5.727564927610976,51.4004822162907 L5.43962753426079,51.441989528135686 L5.1385856017254685,51.48130766408591 L4.82516436638865,51.518341903308 L4.500118887458719,51.553003027075846 L4.164232227965036,51.585207533706345 L3.8183135682905216,51.61487783972224 L3.463196256785227,51.64194246675753 L3.0997358021571686,51.66633621375509 L2.7288078124769237,51.68800031404178 L2.3513058857610876,51.70688257690245 L1.9681394572163795,51.72293751331199 L1.5802316083305805,51.73612644552232 L1.1885168430883715,51.746417600240555 L0.7939388366693818,51.75378618517357 L0.3974481620520282,51.75821444875484 L-5.810158928606108e-14,51.759691722909544 L-0.39744816205214445,51.75821444875484 L-0.7939388366694979,51.75378618517357 L-1.1885168430884878,51.746417600240555 L-1.5802316083306969,51.73612644552232 L-1.9681394572164943,51.72293751331199 L-2.3513058857612026,51.70688257690245 L-2.72880781247704,51.68800031404178 L-3.0997358021572836,51.666336213755095 L-3.46319625678534,51.64194246675753 L-3.818313568290638,51.61487783972224 L-4.1642322279651545,51.585207533706345 L-4.500118887458836,51.553003027075846 L-4.8251643663887664,51.518341903308 L-5.138585601725585,51.48130766408591 L-5.439627534260904,51.44198952813569 L-5.727564927611092,51.4004822162907 L-6.001704115375227,51.35688572330078 L-6.261384672238227,51.31130507693616 L-6.505981004993282,51.26385008496631 L-6.7349038596506725,51.21463507062345 L-6.94760174100226,51.16377859718788 L-7.1435622412217334,51.111403182358586 L-7.322313274299949,51.05763500309744 L-7.483424213341481,51.00260359165783 L-7.626506927982526,50.94644152353008 L-7.691178262803655,50.91797867672311 L-7.751216719430951,50.88928409805554 L-7.8065861329431225,50.8603750720686 L-7.8572531508758665,50.83126901247857 L-7.903187253312141,50.8019834516874 L-7.9443607712662265,50.77253603022185 L-7.980748903350484,50.742944486107504 L-8.012329730714786,50.71322664418403 L-8.03908423024961,50.6834004053682 L-8.060996286044855,50.65348373587098 L-8.078052699097451,50.62349465637543 L-8.090243195261957,50.59345123118167 L-8.097560431439314,50.56337155732564 L-8.10000000000006,50.53327375367813 " />
			<path d="M-8.10000000000006,50.533273753678124 L-8.09668820653012,50.49820678544676 L-8.08675553426252,50.46316849241451 L-8.070210105409396,50.428187526332 L-8.047065449611054,50.39329249207209 L-8.017340492872416,50.358511924238876 L-7.9810595420867205,50.32387426383418 L-7.938252265159128,50.28940783500061 L-7.8889536667464775,50.25514082186014 L-7.833204059633039,50.22110124546716 L-7.771049031765675,50.18731694089497 L-7.702539408975352,50.153815534474255 L-7.6277312134155,50.120624421202294 L-7.5466856177511925,50.08777074234137 L-7.459468895136622,50.05528136322458 L-7.3661523650217715,50.023182851287395 L-7.266812334832588,49.99150145434271 L-7.161530037572349,49.96026307911731 L-7.050391565395265,49.92949327006728 L-6.810914334347048,49.869459591946956 L-6.549163789337701,49.81159674442445 L-6.265995917064794,49.75609395280876 L-5.96233674399309,49.70313272446333 L-5.639179308027189,49.65288625523364 L-5.297580411040793,49.60551886305553 L-4.938657162882629,49.56118545059636 " />
			<path d="M-25.424938727432227,-48.019058655284354 L-25.424938727432227,41.832964779365966 " />
			<path d="M-25.424938727432227,-48.019058655284354 L-11.157706923549421,-49.68074806226174 " />
			<path d="M-11.157706923549421,-49.68074806226174 L-11.157706923549421,40.17127537238858 " />
			<path d="M-11.157706923549421,40.17127537238857 L-25.424938727432227,41.83296477936596 " />
			<path d="M-25.424938727432227,41.832964779365966 L-25.376325942476697,41.926570000145404 L-25.3206818868021,42.02008541113566 L-25.258013764777814,42.11349890467214 L-25.188329690195943,42.20679838628574 L-25.11163868522079,42.29997177626874 L-25.027950679220737,42.39300701123883 L-24.937276507482714,42.485892045700936 L-24.839627909809245,42.57861485360682 L-24.735017528998526,42.671163429912106 L-24.62345890920752,42.763525792130594 L-24.50496649419837,42.855689981885675 L-24.379555625468306,42.947644066458594 L-24.247242540263358,43.039376140333424 L-24.108044369476083,43.1308743267385 L-23.96197913542759,43.22212677918413 L-23.809065749534142,43.313121682996375 L-23.649324009858645,43.403847256846745 L-23.48277459854735,43.49429175427754 L-23.3094390791521,43.58444346522271 L-23.129339893838413,43.67429071752397 L-22.94250036047987,43.763821878442 L-22.748944669639073,43.85302535616264 L-22.548697881435665,43.94188960129761 L-22.341785922301703,44.03040310837992 L-22.1282355816249,44.118554417353465 L-21.908074508280187,44.20633211505679 L-21.681331207049872,44.2937248367008 L-21.44803503493315,44.38072126734017 L-21.208216197345074,44.467310143338324 L-20.96190574420588,44.55348025382576 L-20.709135565920825,44.63922044215155 L-20.449938389251294,44.72451960732782 L-20.184347773077548,44.80936670546703 L-19.91239810405382,44.89375075121183 L-19.634124592156176,44.977660819157386 L-19.349563266123745,45.061086045265895 L-19.058750968794094,45.14401562827321 L-18.761725352333002,45.22643883108726 L-18.458524873359593,45.30834498217824 L-18.149188787967248,45.38972347696029 L-17.833757146641055,45.470563779164465 L-17.512270789072318,45.550855422202886 L-16.851301198176564,45.7097512209581 L-16.166622313474477,45.866328585408496 L-15.45858871155965,46.02050642839078 L-14.72756706379927,46.17220490538867 L-13.973935946444932,46.32134545588212 L-13.198085644578306,46.46785084403176 L-12.400417949993077,46.6116451986772 L-11.58134595311791,46.75265405262866 L-10.74129382908815,46.890804381231476 L-9.880696618076989,47.02602464018363 L-9.0000000000001,47.158244802586545 " />
			<path d="M8.999999999999943,48.9131464662021 L10.0746561207553,48.97510607121893 L11.157706923549188,49.03361887626798 " />
			<path d="M-11.157706923549433,-49.68074806226174 L-10.222206447282641,-49.63043693722073 L-9.292913760306291,-49.57755411179612 L-8.370137216142346,-49.522117133317934 L-7.454183006156963,-49.46414439662324 L-6.545355057961501,-49.40365513795245 L-5.6439549345647,-49.340669428566436 L-4.750281734309471,-49.27520816808659 L-3.8646319916274763,-49.20729307756003 L-2.9872995786444925,-49.13694669225216 L-2.1185756076691256,-49.06419235416919 L-1.2587483345973034,-48.98905420431288 L-0.4081030632645657,-48.91155717467017 L0.4330779492221062,-48.8317269799404 L1.2645155861415276,-48.749590109002725 L2.0859339637735097,-48.665173816126774 L2.897060522941249,-48.5785061119292 L3.6976261194507103,-48.48961575407936 L4.487365113396706,-48.39853223775708 L5.266015457306331,-48.3052857858657 L6.033318783090287,-48.20990733900364 L6.789020487773399,-48.11242854519787 L7.532869817975751,-48.01288174940258 L8.264619953116473,-47.91129998276662 L8.984028087312645,-47.80771695167331 L9.690855509945926,-47.70216702655609 L10.384867684870471,-47.59468523049393 L11.065834328235503,-47.4853072275901 L11.73352948489714,-47.3740693111383 L12.387731603393654,-47.261008391579985 L13.028223609459701,-47.146161984256906 L13.654792978054893,-47.029568196962956 L14.267231803882744,-46.91126571729943 L14.865336870376971,-46.79129379983786 L15.448909717131812,-46.669692253094766 L16.017756705754124,-46.5465014263226 L16.571689084115704,-46.4217621961212 L17.11052304898407,-46.29551595287436 L17.634079807011176,-46.167804587015816 L18.142185634059786,-46.038670475129415 L18.63467193284778,-45.90815646588788 L19.11137528889136,-45.776305865834956 L19.572137524728433,-45.64316242501569 L20.016805752404316,-45.50877032245943 L20.44523242420231,-45.3731741515206 L20.857275381602285,-45.23641890508192 L21.25279790245103,-45.09854996062507 L21.631668746328792,-44.95961306517378 L21.993762198096825,-44.81965432011422 L22.338958109611596,-44.67872016589791 L22.667141939591787,-44.536857366632034 L22.978204791624847,-44.394112994562406 L23.12728337323191,-44.32242500921786 L23.27204345030048,-44.25053441445416 L23.412473014179774,-44.17844717399463 L23.54856041545908,-44.10616926787542 L23.680294364934177,-44.03370669194948 L23.807663934543797,-43.96106545738911 L23.93065855827615,-43.88825159018735 L24.049268033045443,-43.8152711306581 L24.16348251953834,-43.74213013293497 L24.273292543030124,-43.668834664469124 L24.37868899417068,-43.59539080552594 L24.479663129740196,-43.52180464868061 L24.57620657337445,-43.448082298312706 L24.66831131625969,-43.3742298700998 L24.755969717796958,-43.300253490510194 L24.839174506235977,-43.2261592962946 L24.917918779278367,-43.151953433977106 L24.992196004650218,-43.077642059345294 L25.06200002064398,-43.0032313369396 L25.127325036629607,-42.92872743954188 L25.18816563353495,-42.85413654766338 L25.244516764295284,-42.779464849032024 L25.296373754271947,-42.7047185380791 L25.343732301640195,-42.629903815425415 L25.38658847774603,-42.55502688736689 L25.42493872743207,-42.4800939653598 " />
			<path d="M25.424938727432107,47.371929469290585 L11.1577069235493,49.03361887626797 " />
			<path d="M-11.157706923549433,40.17127537238858 L-10.222206447282641,40.22158649742959 L-9.292913760306291,40.2744693228542 L-8.370137216142346,40.329906301332386 L-7.454183006156963,40.38787903802708 L-6.545355057961501,40.44836829669787 L-5.6439549345647,40.511354006083884 L-4.750281734309471,40.57681526656373 L-3.8646319916274763,40.64473035709029 L-2.9872995786444925,40.71507674239816 L-2.1185756076691256,40.78783108048113 L-1.2587483345973034,40.86296923033744 L-0.4081030632645657,40.94046625998015 L0.4330779492221062,41.02029645470992 L1.2645155861415276,41.102433325647596 L2.0859339637735097,41.186849618523546 L2.897060522941249,41.27351732272112 L3.6976261194507103,41.36240768057096 L4.487365113396706,41.45349119689324 L5.266015457306331,41.54673764878462 L6.033318783090287,41.64211609564668 L6.789020487773399,41.73959488945245 L7.532869817975751,41.83914168524774 L8.264619953116473,41.9407234518837 L8.984028087312645,42.044306482977014 L9.690855509945926,42.14985640809423 L10.384867684870471,42.25733820415639 L11.065834328235503,42.36671620706022 L11.73352948489714,42.47795412351202 L12.387731603393654,42.591015043070335 L13.028223609459701,42.705861450393414 L13.654792978054893,42.822455237687365 L14.267231803882744,42.94075771735089 L14.865336870376971,43.06072963481246 L15.448909717131812,43.182331181555554 L16.017756705754124,43.30552200832772 L16.571689084115704,43.43026123852912 L17.11052304898407,43.55650748177596 L17.634079807011176,43.684218847634504 L18.142185634059786,43.813352959520905 L18.63467193284778,43.94386696876244 L19.11137528889136,44.075717568815364 L19.572137524728433,44.20886100963463 L20.016805752404316,44.34325311219089 L20.44523242420231,44.47884928312972 L20.857275381602285,44.6156045295684 L21.25279790245103,44.75347347402525 L21.631668746328792,44.89241036947654 L21.993762198096825,45.0323691145361 L22.338958109611596,45.17330326875241 L22.667141939591787,45.315166068018286 L22.978204791624847,45.457910440087915 L23.12728337323191,45.52959842543246 L23.27204345030048,45.60148902019616 L23.412473014179774,45.67357626065569 L23.54856041545908,45.7458541667749 L23.680294364934177,45.81831674270084 L23.807663934543797,45.89095797726121 L23.93065855827615,45.96377184446297 L24.049268033045443,46.03675230399222 L24.16348251953834,46.10989330171535 L24.273292543030124,46.1831887701812 L24.37868899417068,46.25663262912438 L24.479663129740196,46.33021878596971 L24.57620657337445,46.403941136337615 L24.66831131625969,46.47779356455052 L24.755969717796958,46.551769944140126 L24.839174506235977,46.62586413835572 L24.917918779278367,46.700070000673215 L24.992196004650218,46.774381375305026 L25.06200002064398,46.84879209771072 L25.127325036629607,46.92329599510844 L25.18816563353495,46.99788688698694 L25.244516764295284,47.072558585618296 L25.296373754271947,47.14730489657122 L25.343732301640195,47.222119619224905 L25.38658847774603,47.29699654728343 L25.42493872743207,47.37192946929052 " />
			<path d="M-5.487396847647295,43.52234900979297 L-5.2359557097303515,43.4941041752245 L-4.978178290151057,43.46720059972951 L-4.444869691720519,43.417545792677856 L-3.8900518008178677,43.373624874594995 L-3.316409452120353,43.33565038441642 L-2.726718574262172,43.30380608555306 L-2.123832756761061,43.278246076636684 L-1.5106694411339372,43.25909404581688 L-0.890195803024561,43.246442672218336 L-0.26541439366142494,43.24035317745467 L0.36065138987136774,43.24085502936926 L0.9849719352389857,43.24794579943656 L1.6045260755371047,43.26159117451404 L2.216315709104656,43.281725122887885 L2.8173803077209083,43.30825021380889 L3.40481124297987,43.341038088972304 L3.9757658615148546,43.37993008366008 L4.5274812409614,43.42473799453968 L5.057287560091681,43.47524499040414 L5.3131691499348905,43.50256031297765 L5.562621018420616,43.53120666144591 L5.805341291853291,43.56114936948579 L6.041036242764065,43.592352201987154 L6.269420645364532,43.624777398902665 L6.490218120712166,43.65838572094309 L6.703161471169765,43.69313649706257 L6.907993003754153,43.7289876736767 L7.104464841982843,43.765895865553524 L7.29233922584128,43.803816408316116 L7.471388799507673,43.84270341249309 L7.641396886487194,43.88250981905164 L7.802157751822612,43.923187456345964 L7.953476851064063,43.96468709841207 L8.095171065696643,44.00695852453847 L8.227068924740914,44.0499505800407 L8.349010812258182,44.093611238166055 L8.460849160509422,44.137887663053654 L8.562448628534073,44.182726273673666 L8.653686265932663,44.22807280866828 L8.734451661654983,44.27387239201599 L8.804647077613804,44.32006959943969 L8.864187566962444,44.3666085254783 L8.913001076893023,44.41343285114059 L8.933366245567603,44.43693434283463 L8.951028535831025,44.46048591205954 L8.965982603782487,44.48408043305484 L8.978223924920663,44.507710767064594 L8.987748795512633,44.53136976449727 L8.994554333714493,44.55505026708893 L8.998638480443272,44.57874511006905 L8.99999999999994,44.60244712432826 " />
			<path d="M-9.00000000000006,44.60244712432827 L-8.996320229477906,44.56348382629343 L-8.985283926958349,44.52455238959093 L-8.966900117121545,44.485684649499255 L-8.941183832901165,44.44691238921046 L-8.908156103191565,44.40826731384021 L-8.867843935651905,44.36978102450166 L-8.820280294621247,44.33148499246437 L-8.765504074162745,44.2934105334194 L-8.703560066258927,44.25558878187165 L-8.634498924184077,44.21805066568032 L-8.55837712108372,44.180826880768414 L-8.475256903794994,44.1439478660218 L-8.385206241945763,44.10744377839854 L-8.288298772374018,44.07134446826878 L-8.184613738913074,44.03567945500524 L-8.074235927591758,44.00047790284448 L-7.957255597302603,43.96576859703848 L-7.833768405994732,43.931579920316224 L-7.703875332451801,43.89793982967432 L-7.567682593718936,43.86487583351587 L-7.276848654819662,43.800583780713076 L-6.962217685627542,43.7389140122512 L-6.62481860443676,43.6800682029785 L-6.265754786696871,43.62423879272328 L-5.886200456711986,43.57160835696983 L-5.487396847647359,43.522349009792975 " />
			<path d="M25.424938727432107,-42.48009396535973 L25.424938727432107,47.37192946929059 " />
			<path d="M-5.487396847647295,49.45317563914282 L-5.2359557097303515,49.42493080457435 L-4.978178290151057,49.39802722907936 L-4.444869691720519,49.34837242202771 L-3.8900518008178677,49.30445150394485 L-3.316409452120353,49.26647701376627 L-2.726718574262172,49.234632714902915 L-2.123832756761061,49.209072705986536 L-1.5106694411339372,49.18992067516673 L-0.890195803024561,49.17726930156819 L-0.26541439366142494,49.171179806804524 L0.36065138987136774,49.17168165871911 L0.9849719352389857,49.17877242878641 L1.6045260755371047,49.19241780386389 L2.216315709104656,49.21255175223774 L2.8173803077209083,49.23907684315874 L3.40481124297987,49.271864718322156 L3.9757658615148546,49.31075671300993 L4.5274812409614,49.355564623889535 L5.057287560091681,49.406071619753995 L5.3131691499348905,49.4333869423275 L5.562621018420616,49.46203329079576 L5.805341291853291,49.49197599883564 L6.041036242764065,49.523178831337006 L6.269420645364532,49.55560402825252 L6.490218120712166,49.58921235029294 L6.703161471169765,49.62396312641242 L6.907993003754153,49.65981430302655 L7.104464841982843,49.696722494903376 L7.29233922584128,49.73464303766597 L7.471388799507673,49.77353004184294 L7.641396886487194,49.81333644840149 L7.802157751822612,49.854014085695816 L7.953476851064063,49.89551372776192 L8.095171065696643,49.93778515388832 L8.227068924740914,49.98077720939055 L8.349010812258182,50.02443786751591 L8.460849160509422,50.068714292403506 L8.562448628534073,50.11355290302352 L8.653686265932663,50.15889943801813 L8.734451661654983,50.20469902136584 L8.804647077613804,50.25089622878954 L8.864187566962444,50.29743515482815 L8.913001076893023,50.34425948049044 L8.933366245567603,50.367760972184485 L8.951028535831025,50.39131254140939 L8.965982603782487,50.414907062404694 L8.978223924920663,50.438537396414446 L8.987748795512633,50.46219639384712 L8.994554333714493,50.48587689643878 L8.998638480443272,50.5095717394189 L8.99999999999994,50.53327375367811 " />
			<path d="M8.99999999999994,50.533273753678124 L8.997289368265777,50.56671575773092 L8.989159105846491,50.600137617570944 L8.975614110108152,50.63351920111957 L8.956662540049711,50.66684040055907 L8.93231581138833,50.700081144444866 L8.902588589682969,50.733221409795796 L8.86749878150041,50.76624123415521 L8.827067523629013,50.799120727615595 L8.781319170346697,50.83184008479954 L8.730281278750835,50.86437959678973 L8.673984592158899,50.89671966300088 L8.61246302158982,50.928840802986365 L8.54575362533727,50.960723668172555 L8.473896586647127,50.992349053513635 L8.39693518951259,51.02369790906002 L8.31491579260152,51.05475135143335 L8.13590363811093,51.11589736414403 L7.937291379135135,51.1756397855453 L7.719557490002389,51.23383469091118 L7.483226510722847,51.29034188361738 L7.228867783325745,51.34502523288721 L6.957094080264572,51.3977530017426 L6.668560128194573,51.44839816436996 L6.363961030678869,51.49683871213654 L6.0440305936231065,51.54295794751987 L5.70953955747275,51.58664476524233 L5.361293740431841,51.62779391993354 L5.000132097176361,51.666306279675595 L4.626924697738937,51.7020890648206 L4.24257063143392,51.73505607150492 L3.847995840872481,51.7651278793219 L3.4441508912857497,51.79223204265253 L3.032008680529922,51.8163032651933 L2.6125620952901043,51.83728355726071 L2.1868216191293173,51.85512237549353 L1.7558128981450962,51.869776744616125 L1.3205742700981973,51.881211360969715 L0.8821542629659865,51.88939867756195 L0.4416090689467047,51.894318970430035 L-5.784664003566693e-14,51.89596038615748 L-0.44160906894682045,51.894318970430035 L-0.8821542629661022,51.88939867756195 L-1.3205742700983132,51.881211360969715 L-1.7558128981452121,51.869776744616125 L-2.1868216191294314,51.85512237549353 L-2.6125620952902184,51.83728355726071 L-3.032008680530038,51.8163032651933 L-3.444150891285864,51.792232042652536 L-3.847995840872594,51.7651278793219 L-4.2425706314340355,51.73505607150492 L-4.626924697739055,51.7020890648206 L-5.000132097176478,51.666306279675595 L-5.3612937404319565,51.627793919933545 L-5.709539557472866,51.58664476524233 L-6.04403059362322,51.54295794751987 L-6.363961030678984,51.49683871213654 L-6.668560128194691,51.44839816436996 L-6.957094080264691,51.3977530017426 L-7.228867783325862,51.34502523288722 L-7.483226510722964,51.29034188361738 L-7.719557490002504,51.23383469091118 L-7.937291379135253,51.1756397855453 L-8.13590363811105,51.11589736414403 L-8.314915792601639,51.05475135143335 L-8.396935189512709,51.023697909060026 L-8.473896586647246,50.992349053513635 L-8.545753625337388,50.960723668172555 L-8.612463021589939,50.928840802986365 L-8.67398459215902,50.89671966300088 L-8.730281278750956,50.86437959678973 L-8.781319170346816,50.83184008479954 L-8.827067523629134,50.799120727615595 L-8.867498781500531,50.76624123415521 L-8.902588589683088,50.7332214097958 L-8.93231581138845,50.700081144444866 L-8.956662540049832,50.66684040055907 L-8.975614110108273,50.63351920111957 L-8.989159105846612,50.60013761757095 L-8.997289368265898,50.56671575773092 L-9.00000000000006,50.53327375367813 " />
			<path d="M-9.00000000000006,50.533273753678124 L-8.996320229477906,50.49431045564328 L-8.985283926958349,50.45537901894078 L-8.966900117121545,50.41651127884911 L-8.941183832901165,50.37773901856031 L-8.908156103191565,50.339093943190065 L-8.867843935651905,50.300607653851515 L-8.820280294621247,50.26231162181422 L-8.765504074162745,50.22423716276925 L-8.703560066258927,50.1864154112215 L-8.634498924184077,50.148877295030175 L-8.55837712108372,50.111653510118266 L-8.475256903794994,50.07477449537165 L-8.385206241945763,50.03827040774839 L-8.288298772374018,50.00217109761863 L-8.184613738913074,49.96650608435509 L-8.074235927591758,49.93130453219433 L-7.957255597302603,49.896595226388335 L-7.833768405994732,49.862406549666076 L-7.703875332451801,49.82876645902417 L-7.567682593718936,49.79570246286572 L-7.276848654819662,49.73141041006293 L-6.962217685627542,49.66974064160105 L-6.62481860443676,49.61089483232835 L-6.265754786696871,49.555065422073135 L-5.886200456711986,49.502434986319685 L-5.487396847647359,49.45317563914283 " />
			<path d="M-9.00000000000006,50.53327375367813 L-9.00000000000006,44.60244712432827 " />
			<path d="M8.999999999999943,50.53327375367813 L8.999999999999943,44.60244712432827 " />

        </g>
        </g>
    </svg>
    