<?xml version="1.0" encoding="UTF-8" standalone="no"?>
    <svg
    xmlns:svg="http://www.w3.org/2000/svg"
    xmlns="http://www.w3.org/2000/svg"
    width="430"
    height="204"
    >
        <g transform="scale(4, -4)   translate(65.82547033308353,-29.316713259075016)" stroke-width="0.25"  fill="none">
        <!-- hidden lines -->
        <g  stroke="rgb(160,160,160)" fill="none" stroke-dasharray="0.25,0.25" >
    			<path d="M13.363718409010186,20.02849920875454 L13.363718409010186,20.912988382586928 " />
			<path d="M13.363718409010186,20.02849920875454 L6.332118743071486,19.68041672914502 " />
			<path d="M14.109778820753611,16.747831036559475 L13.363718409010184,20.028499208754535 " />
			<path d="M-31.807751671091673,24.163245737577846 L-31.807751671091673,26.816713259075016 " />
			<path d="M-31.807751671091673,24.163245737577846 L-35.82532126019,19.941989231940003 " />
			<path d="M-22.76014786694815,22.28880559497707 L-31.80775167109167,24.163245737577842 " />
			<path d="M-53.03574561175146,10.748389591519611 L-53.03574561175146,15.170835460681563 " />
			<path d="M-45.5443128276168,5.947608261853805 L-53.03574561175146,10.748389591519611 " />
			<path d="M-53.03574561175146,10.748389591519611 L-63.32547033308353,7.253181350626638 " />
			<path d="M-33.149272072034826,-6.824255614599355 L-33.149272072034826,-0.632831397772625 " />
			<path d="M-31.507939166199286,-14.041725593428488 L-33.14927207203482,-6.824255614599354 " />
			<path d="M-33.149272072034826,-6.824255614599355 L-48.618791337099964,-7.590037069740294 " />
			<path d="M-5.220427962995682,-8.056865117397686 L-5.220427962995682,-0.09646255290617489 " />
			<path d="M11.582264816127989,-11.537968239370555 L-5.220427962995682,-8.056865117397688 " />
			<path d="M-5.220427962995682,-8.056865117397686 L-12.681628628464019,-15.896341485010819 " />
			<path d="M26.924385058277593,7.711172387159958 L26.924385058277593,17.44055329931625 " />
			<path d="M39.41010636516871,-0.2901298289497163 L26.9243850582776,7.711172387159957 " />
			<path d="M26.924385058277593,7.711172387159958 L9.774843856057476,1.885825319004999 " />

        </g>

        <!-- solid lines -->
        <g  stroke="rgb(0,0,0)" fill="none">
    			<path d="M6.332118743071483,19.680416729145023 L6.332118743071483,20.56490590297741 " />
			<path d="M13.363718409010186,20.912988382586928 L6.332118743071486,20.564905902977408 " />
			<path d="M7.0781791548149116,16.39974855694996 L7.0781791548149116,17.284237730782348 " />
			<path d="M6.332118743071483,19.680416729145023 L7.07817915481491,16.399748556949962 " />
			<path d="M6.332118743071483,20.56490590297741 L7.07817915481491,17.28423773078235 " />
			<path d="M14.109778820753611,16.747831036559475 L14.109778820753611,17.632320210391864 " />
			<path d="M7.0781791548149116,16.39974855694996 L14.109778820753611,16.74783103655948 " />
			<path d="M7.0781791548149116,17.28423773078235 L14.109778820753611,17.63232021039187 " />
			<path d="M14.109778820753611,17.632320210391867 L13.363718409010184,20.912988382586928 " />
			<path d="M-35.82532126019,19.941989231940006 L-35.82532126019,22.595456753437176 " />
			<path d="M-31.807751671091673,26.816713259075016 L-35.82532126019,22.595456753437173 " />
			<path d="M-26.77771745604648,18.06754908933923 L-26.77771745604648,20.7210166108364 " />
			<path d="M-35.82532126019,19.941989231940006 L-26.77771745604648,18.067549089339234 " />
			<path d="M-35.82532126019,22.595456753437176 L-26.77771745604648,20.721016610836404 " />
			<path d="M-22.76014786694815,22.28880559497707 L-22.76014786694815,24.94227311647424 " />
			<path d="M-26.77771745604648,18.06754908933923 L-22.760147866948152,22.288805594977074 " />
			<path d="M-26.77771745604648,20.7210166108364 L-22.760147866948152,24.942273116474244 " />
			<path d="M-22.76014786694815,24.94227311647424 L-31.80775167109167,26.816713259075012 " />
			<path d="M-63.32547033308353,7.253181350626637 L-63.32547033308353,11.675627219788588 " />
			<path d="M-55.83403754894887,2.452400020960832 L-55.83403754894887,6.874845890122783 " />
			<path d="M-63.32547033308353,7.253181350626637 L-55.83403754894887,2.4524000209608303 " />
			<path d="M-63.32547033308353,11.675627219788588 L-55.83403754894887,6.874845890122781 " />
			<path d="M-45.5443128276168,5.947608261853805 L-45.5443128276168,10.370054131015756 " />
			<path d="M-55.83403754894887,2.452400020960832 L-45.5443128276168,5.947608261853805 " />
			<path d="M-55.83403754894887,6.874845890122783 L-45.5443128276168,10.370054131015756 " />
			<path d="M-45.5443128276168,10.370054131015756 L-53.03574561175146,15.170835460681563 " />
			<path d="M-53.03574561175146,15.170835460681563 L-63.32547033308353,11.675627219788588 " />
			<path d="M-46.97745843126443,-14.807507048569427 L-46.97745843126443,-8.616082831742697 " />
			<path d="M-31.507939166199286,-14.041725593428488 L-31.507939166199286,-7.850301376601758 " />
			<path d="M-46.97745843126443,-14.807507048569427 L-31.507939166199293,-14.041725593428486 " />
			<path d="M-46.97745843126443,-8.616082831742697 L-31.507939166199293,-7.850301376601756 " />
			<path d="M-31.507939166199286,-7.850301376601758 L-33.14927207203482,-0.6328313977726232 " />
			<path d="M-48.618791337099964,-7.590037069740294 L-48.618791337099964,-1.3986128529135637 " />
			<path d="M-33.149272072034826,-0.632831397772625 L-48.618791337099964,-1.3986128529135637 " />
			<path d="M-48.618791337099964,-7.590037069740294 L-46.97745843126443,-14.80750704856943 " />
			<path d="M-48.618791337099964,-1.3986128529135637 L-46.97745843126443,-8.6160828317427 " />
			<path d="M4.1210641506596595,-19.377444606983687 L4.1210641506596595,-11.417042042492175 " />
			<path d="M11.582264816127989,-11.537968239370555 L11.582264816127989,-3.577565674879043 " />
			<path d="M4.1210641506596595,-19.377444606983687 L11.582264816127992,-11.537968239370553 " />
			<path d="M4.1210641506596595,-11.417042042492175 L11.582264816127992,-3.5775656748790423 " />
			<path d="M11.582264816127989,-3.577565674879043 L-5.220427962995682,-0.09646255290617622 " />
			<path d="M-12.681628628464015,-15.896341485010815 L-12.681628628464015,-7.935938920519304 " />
			<path d="M-5.220427962995682,-0.09646255290617489 L-12.681628628464019,-7.935938920519307 " />
			<path d="M-12.681628628464015,-15.896341485010815 L4.121064150659663,-19.377444606983683 " />
			<path d="M-12.681628628464015,-7.935938920519304 L4.121064150659663,-11.417042042492172 " />
			<path d="M39.41010636516871,-0.2901298289497163 L39.41010636516871,9.439251083206575 " />
			<path d="M39.41010636516871,9.439251083206575 L26.9243850582776,17.44055329931625 " />
			<path d="M9.77484385605748,1.8858253190049998 L9.77484385605748,11.615206231161292 " />
			<path d="M26.924385058277593,17.44055329931625 L9.774843856057476,11.615206231161292 " />
			<path d="M22.260565162948588,-6.115476897104678 L22.260565162948588,3.613904015051613 " />
			<path d="M9.77484385605748,1.8858253190049998 L22.260565162948588,-6.115476897104677 " />
			<path d="M9.77484385605748,11.615206231161292 L22.260565162948588,3.613904015051615 " />
			<path d="M22.260565162948588,-6.115476897104678 L39.410106365168716,-0.29012982894971806 " />
			<path d="M22.260565162948588,3.613904015051613 L39.410106365168716,9.439251083206573 " />

        </g>
        </g>
    </svg>
    