<?xml version="1.0" encoding="UTF-8" standalone="no"?>
    <svg
    xmlns:svg="http://www.w3.org/2000/svg"
    xmlns="http://www.w3.org/2000/svg"
    width="330"
    height="183"
    >
        <g transform="scale(4, -4)   translate(39.9360105819399,-23.53444456414004)" stroke-width="0.25"  fill="none">
        <!-- hidden lines -->
        <g  stroke="rgb(160,160,160)" fill="none" stroke-dasharray="0.25,0.25" >
    			<path d="M19.27611953281757,8.517571557164256 L-4.027505619194107,11.945744497494896 " />
			<path d="M-4.027505619194105,11.945744497494896 L-4.027505619194105,21.03444456414004 " />
			<path d="M19.27611953281757,14.831624963771143 L19.27611953281757,8.517571557164256 " />
			<path d="M19.276119532817546,8.517571557164228 L19.207748533072174,8.433907556684057 L19.143643787011584,8.349658045152191 L19.08383408592843,8.264860861457198 L19.028346292086646,8.17955409046303 L18.977205326656808,8.093776045904015 L18.930434158523333,8.007565253177042 L18.88805379396847,7.920960432038703 L18.8500832672378,7.834000479215123 L18.816539631991375,7.74672445093233 L18.787437953644453,7.659171545374966 L18.762791302601176,7.571381085081249 L18.742610748384266,7.48339249928209 L18.726905354663387,7.3952453061922885 L18.715682175184398,7.306979095261756 L18.70894625060131,7.218633509394756 L18.706700606212365,7.130248227145147 " />
			<path d="M18.706700606212365,7.130248227145129 L18.707807966825204,7.068180426448462 L18.711129803414213,7.00612637203936 L18.716665380285193,6.944099807160966 L18.724413471462185,6.8821144689682585 L18.734372360958993,6.820184085485654 L18.746539843159212,6.758322372566637 L18.760913223304748,6.69654303085607 L18.777489318092577,6.634859742755894 L18.79626445637981,6.5732861693948506 L18.81723447999672,6.511835947602927 L18.840394744667663,6.450522686891176 L18.86574012103966,6.389359966437588 L18.893264995818413,6.328361332079685 L18.922963273011487,6.267540293314491 L18.988853245387276,6.146484840904701 L19.06335167023078,6.026300844902433 L19.14639255389902,5.907094769031449 L19.23790233550208,5.788972210735287 L19.33779995206624,5.67203780763488 L19.44599691034275,5.556395144836435 L19.562397365198635,5.442146663171646 L19.68689820452011,5.329393568451574 L19.81938914055334,5.2182357418145475 L19.959752807601703,5.108771651247505 L20.10786486599293,5.001098264359176 L20.263594112224098,4.895310962482344 L20.426802595186885,4.791503456181301 L20.59734573837008,4.689767702239335 L20.775072467931157,4.590193822199787 L20.959825346523466,4.4928700225328235 L21.151440712760436,4.397882516498676 L21.349748826193263,4.3053154477765325 L21.554574017673733,4.215250815926748 L21.765734844968843,4.127768403752395 L21.98304425348952,4.042945706624515 L22.206309741990932,3.960857863833666 L22.435333533097683,3.881577592028566 L22.66991274850284,3.8051751208008224 L22.909839588685497,3.731718130472791 L23.15490151698782,3.661271692143675 L23.404881447888386,3.5938982100469796 L23.659557939305103,3.529657366270382 L23.918705388757335,3.4686060678869803 L24.18209423321349,3.41079839654477 L24.449491152447,3.3562855605589816 L24.720659275720564,3.3051158495497375 L24.995358391615632,3.2573345916652 L25.273345160821098,3.2129841134281163 L25.55437333169289,3.172103702241309 L25.838193958393404,3.134729571585344 L26.12455562141752,3.1008948289392064 L26.41320465030992,3.0706294464523864 L26.70388534837638,3.043960234394369 L26.996340219190014,3.0209108174050394 L27.290310194691713,3.0015016135670427 L27.5855348646829,2.9857498163186467 L27.881752707507125,2.973669379223109 L28.17870132171627,2.965271003608067 L28.476117658516113,2.960562129085875 L28.7737382547853,2.959546926963304 L29.071299466461394,2.9622262965464348 L29.368537702087163,2.968597864344016 L29.665189656310314,2.9786559861699935 L29.960992543129727,2.9923917521433605 L30.255684328681674,3.009792994580872 L30.549003963359766,3.0308442987756656 L30.840691613062972,3.0555270166522153 L31.130488889366916,3.0838192832855293 L31.418139078414534,3.1156960362699673 L31.70338736832334,3.1511290379205055 L31.98598107490775,3.190086900286777 " />
			<path d="M-4.027505619194105,11.945744497494896 L-33.46378135517492,4.273994694609055 " />
			<path d="M-33.463781355174916,4.273994694609056 L-37.43601058193989,-10.108017104762855 " />
			<path d="M40.089312377194744,-6.546327206644406 L31.985981074907894,3.1900869002867958 " />
			<path d="M-33.463781355174916,4.273994694609056 L-33.463781355174916,13.362694761254197 " />
			<path d="M31.985981074907897,12.278786966931941 L31.985981074907897,3.190086900286799 " />
			<path d="M18.70670060621236,16.218948293790273 L18.70670060621236,7.13024822714513 " />

        </g>

        <!-- solid lines -->
        <g  stroke="rgb(0,0,0)" fill="none">
    			<path d="M19.27611953281757,17.6062716238094 L-4.027505619194107,21.03444456414004 " />
			<path d="M19.27611953281757,17.6062716238094 L19.27611953281757,14.831624963771143 " />
			<path d="M-37.4360105819399,-10.108017104762853 L-20.006464693512985,-17.413811742212886 " />
			<path d="M-3.0131447867960244,-19.913682002336703 L-3.033866176471868,-19.841076420042405 L-3.0576360745589444,-19.76863350001393 L-3.0844471757256997,-19.696375506526355 L-3.1142912399711573,-19.62432464702028 L-3.1471590951573756,-19.5525030652767 L-3.183040639828354,-19.48093283461143 L-3.2219248463145753,-19.409635951091197 L-3.2637997641222025,-19.33863432677347 L-3.308652523605888,-19.267949782972106 L-3.3564693399240664,-19.197604043550896 L-3.407235517275522,-19.127618728247036 L-3.460935453415944,-19.058015346026632 L-3.517552644453035,-18.988815288474218 L-3.5770696899187424,-18.920039823218385 L-3.63946829811705,-18.85171008739546 L-3.704729291745645,-18.783847081153343 L-3.7728326137898023,-18.71647166119739 L-3.843757333686602,-18.649604534380426 L-3.9174816537576387,-18.5832662513388 L-3.9939829159082176,-18.517477200176423 L-4.073237608590988,-18.452257600198816 L-4.155221374031882,-18.38762749569897 L-4.239909015716114,-18.323606749797033 L-4.327274506131959,-18.260215038335687 L-4.417290994769942,-18.197471843833043 L-4.509930816374936,-18.135396449494984 L-4.7029657750001,-18.013325162079603 L-4.906142094322112,-17.894151231879665 L-5.119210020416238,-17.778021153117 L-5.341907640127669,-17.665077678367528 L-5.573961203027531,-17.55545964308307 L-5.815085457919838,-17.449301794928243 L-6.064984003485732,-17.346734628142265 L-6.323349652633981,-17.247884223129287 L-6.589864810109851,-17.1528720914744 L-6.864201862898191,-17.06181502657585 L-7.1460235829408205,-16.9748249600771 L-7.434983541673177,-16.892008824275145 L-7.73072653587067,-16.813468420674297 L-8.03288902428125,-16.73930029484697 L-8.341099574507485,-16.669595617755295 L-8.654979319588794,-16.60444007367948 L-8.974142423722611,-16.54391375489064 L-9.298196556551968,-16.488091063197587 L-9.626743375436494,-16.437040618488645 L-9.95937901511399,-16.3908251743808 L-10.295694584150691,-16.34950154108003 L-10.635276667569908,-16.313120515547492 L-10.977707835041251,-16.28172681905751 L-11.322567154005686,-16.25535904222407 L-11.66943070710572,-16.23404959756342 L-12.017872113284636,-16.217824679651063 L-12.367463051914205,-16.206704232922164 L-12.717773789306639,-16.200701927154896 L-13.068373706963524,-16.19982514066691 L-13.41883183091241,-16.204074951245552 L-13.768717361480372,-16.213446134823002 L-14.117600202853296,-16.227927171897946 L-14.465051491769978,-16.24750026169589 L-14.810644124701076,-16.2721413440507 L-15.15395328286495,-16.30182012898051 L-15.494556954434957,-16.336500133921593 L-15.832036453296308,-16.376138728574453 L-16.165976933714827,-16.420687187307 L-16.495967900284896,-16.47009074905038 L-16.821603712529797,-16.52428868461391 L-17.142484083534143,-16.583214371336222 L-17.45821457199545,-16.646795374981 L-17.768407067089992,-16.714953538776577 L-18.072680265556993,-16.787605079489904 L-18.370660140414564,-16.86466069041688 L-18.66198040073132,-16.946025651162355 L-18.946282941888526,-17.031599944074905 L-19.223218285779183,-17.121278377193278 L-19.492446010402993,-17.214950713553293 L-19.753635168329197,-17.31250180669633 L-20.006464693512736,-17.413811742212786 " />
			<path d="M-3.013144786796005,-19.91368200233678 L21.548990867237677,-18.785241550933556 " />
			<path d="M21.548990867237677,-18.78524155093356 L40.08931237719476,-6.5463272066444045 " />
			<path d="M-4.027505619194105,21.03444456414004 L-33.46378135517492,13.362694761254197 " />
			<path d="M19.276119532817546,17.60627162380937 L19.207748533072174,17.5226076233292 L19.143643787011584,17.438358111797335 L19.08383408592843,17.35356092810234 L19.028346292086646,17.268254157108174 L18.977205326656808,17.182476112549157 L18.930434158523333,17.096265319822184 L18.88805379396847,17.009660498683846 L18.8500832672378,16.922700545860266 L18.816539631991375,16.835424517577472 L18.787437953644453,16.74787161202011 L18.762791302601176,16.66008115172639 L18.742610748384266,16.572092565927232 L18.726905354663387,16.483945372837432 L18.715682175184398,16.395679161906898 L18.70894625060131,16.3073335760399 L18.706700606212365,16.21894829379029 " />
			<path d="M18.706700606212365,16.218948293790273 L18.707807966825204,16.156880493093606 L18.711129803414213,16.094826438684503 L18.716665380285193,16.03279987380611 L18.724413471462185,15.970814535613401 L18.734372360958993,15.908884152130797 L18.746539843159212,15.847022439211779 L18.760913223304748,15.785243097501212 L18.777489318092577,15.723559809401037 L18.79626445637981,15.661986236039994 L18.81723447999672,15.60053601424807 L18.840394744667663,15.539222753536318 L18.86574012103966,15.47806003308273 L18.893264995818413,15.417061398724828 L18.922963273011487,15.356240359959633 L18.988853245387276,15.235184907549844 L19.06335167023078,15.115000911547575 L19.14639255389902,14.995794835676593 L19.23790233550208,14.87767227738043 L19.33779995206624,14.760737874280023 L19.44599691034275,14.645095211481577 L19.562397365198635,14.530846729816789 L19.68689820452011,14.418093635096717 L19.81938914055334,14.306935808459691 L19.959752807601703,14.197471717892647 L20.10786486599293,14.089798331004319 L20.263594112224098,13.984011029127487 L20.426802595186885,13.880203522826443 L20.59734573837008,13.778467768884479 L20.775072467931157,13.678893888844929 L20.959825346523466,13.581570089177966 L21.151440712760436,13.486582583143818 L21.349748826193263,13.394015514421676 L21.554574017673733,13.30395088257189 L21.765734844968843,13.216468470397537 L21.98304425348952,13.131645773269657 L22.206309741990932,13.049557930478809 L22.435333533097683,12.970277658673709 L22.66991274850284,12.893875187445966 L22.909839588685497,12.820418197117935 L23.15490151698782,12.749971758788817 L23.404881447888386,12.682598276692122 L23.659557939305103,12.618357432915525 L23.918705388757335,12.557306134532123 L24.18209423321349,12.499498463189912 L24.449491152447,12.444985627204124 L24.720659275720564,12.39381591619488 L24.995358391615632,12.346034658310343 L25.273345160821098,12.30168418007326 L25.55437333169289,12.260803768886452 L25.838193958393404,12.223429638230487 L26.12455562141752,12.18959489558435 L26.41320465030992,12.159329513097529 L26.70388534837638,12.132660301039511 L26.996340219190014,12.109610884050182 L27.290310194691713,12.090201680212186 L27.5855348646829,12.07444988296379 L27.881752707507125,12.062369445868253 L28.17870132171627,12.05397107025321 L28.476117658516113,12.049262195731018 L28.7737382547853,12.048246993608448 L29.071299466461394,12.050926363191579 L29.368537702087163,12.057297930989158 L29.665189656310314,12.067356052815136 L29.960992543129727,12.081091818788504 L30.255684328681674,12.098493061226016 L30.549003963359766,12.119544365420808 L30.840691613062972,12.14422708329736 L31.130488889366916,12.172519349930672 L31.418139078414534,12.20439610291511 L31.70338736832334,12.239829104565649 L31.98598107490775,12.27878696693192 " />
			<path d="M-33.463781355174916,13.362694761254197 L-37.43601058193989,-1.019317038117713 " />
			<path d="M-37.4360105819399,-1.0193170381177117 L-20.006464693512985,-8.325111675567745 " />
			<path d="M-20.00646469351277,-8.325111675567658 L-19.753635168329204,-8.22380174005119 L-19.492446010402993,-8.126250646908153 L-19.223218285779183,-8.03257831054814 L-18.946282941888533,-7.942899877429767 L-18.66198040073132,-7.857325584517214 L-18.370660140414564,-7.775960623771741 L-18.072680265556997,-7.698905012844764 L-17.768407067089996,-7.626253472131435 L-17.458214571995445,-7.55809530833586 L-17.142484083534143,-7.49451430469108 L-16.8216037125298,-7.435588617968772 L-16.495967900284896,-7.381390682405243 L-16.16597693371483,-7.331987120661859 L-15.832036453296313,-7.287438661929315 L-15.49455695443496,-7.247800067276454 L-15.153953282864954,-7.213120062335369 L-14.81064412470108,-7.183441277405558 L-14.465051491769978,-7.158800195050749 L-14.117600202853296,-7.139227105252807 L-13.768717361480372,-7.124746068177862 L-13.418831830912412,-7.11537488460041 L-13.068373706963525,-7.111125074021768 L-12.717773789306642,-7.112001860509755 L-12.367463051914209,-7.118004166277023 L-12.01787211328464,-7.1291246130059225 L-11.669430707105725,-7.145349530918279 L-11.32256715400569,-7.16665897557893 L-10.977707835041253,-7.193026752412369 L-10.635276667569912,-7.224420448902351 L-10.295694584150691,-7.260801474434889 L-9.959379015113992,-7.30212510773566 L-9.626743375436495,-7.348340551843503 L-9.298196556551972,-7.399390996552446 L-8.974142423722615,-7.455213688245496 L-8.654979319588797,-7.5157400070343385 L-8.341099574507489,-7.580895551110153 L-8.032889024281253,-7.650600228201828 L-7.7307265358706765,-7.724768354029155 L-7.4349835416731835,-7.803308757630003 L-7.146023582940824,-7.886124893431958 L-6.864201862898192,-7.97311495993071 L-6.5898648101098525,-8.064172024829258 L-6.3233496526339845,-8.159184156484146 L-6.064984003485733,-8.258034561497125 L-5.815085457919835,-8.360601728283102 L-5.573961203027531,-8.46675957643793 L-5.341907640127672,-8.576377611722386 L-5.119210020416238,-8.689321086471859 L-4.90614209432211,-8.805451165234528 L-4.702965775000099,-8.924625095434465 L-4.509930816374936,-9.046696382849845 L-4.417290994769942,-9.108771777187904 L-4.327274506131959,-9.171514971690549 L-4.239909015716112,-9.234906683151895 L-4.15522137403188,-9.29892742905383 L-4.073237608590988,-9.363557533553678 L-3.993982915908216,-9.428777133531284 L-3.917481653757637,-9.494566184693658 L-3.843757333686602,-9.560904467735286 L-3.7728326137898005,-9.627771594552248 L-3.704729291745643,-9.695147014508203 L-3.6394682981170483,-9.763010020750324 L-3.5770696899187424,-9.831339756573247 L-3.5175526444530334,-9.900115221829079 L-3.460935453415944,-9.969315279381494 L-3.407235517275522,-10.0389186616019 L-3.3564693399240646,-10.108903976905758 L-3.308652523605888,-10.179249716326968 L-3.2637997641222025,-10.249934260128331 L-3.2219248463145753,-10.320935884446055 L-3.183040639828352,-10.39223276796629 L-3.1471590951573756,-10.46380299863156 L-3.1142912399711573,-10.53562458037514 L-3.0844471757256997,-10.607675439881216 L-3.0576360745589444,-10.679933433368793 L-3.033866176471868,-10.752376353397267 L-3.0131447867960297,-10.824981935691545 " />
			<path d="M-3.013144786796005,-10.82498193569164 L21.548990867237677,-9.696541484288417 " />
			<path d="M21.548990867237677,-9.696541484288417 L40.08931237719476,2.5423728600007376 " />
			<path d="M40.089312377194744,2.542372860000735 L31.985981074907894,12.278786966931937 " />
			<path d="M40.089312377194744,-6.546327206644406 L40.089312377194744,2.542372860000736 " />
			<path d="M21.548990867237677,-18.78524155093356 L21.548990867237677,-9.696541484288417 " />
			<path d="M-3.013144786796003,-10.824981935691639 L-3.013144786796003,-19.91368200233678 " />
			<path d="M-20.00646469351298,-8.325111675567744 L-20.00646469351298,-17.413811742212886 " />
			<path d="M-37.4360105819399,-10.108017104762853 L-37.4360105819399,-1.0193170381177108 " />

        </g>
        </g>
    </svg>
    