<?xml version="1.0" encoding="UTF-8" standalone="no"?>
    <svg
    xmlns:svg="http://www.w3.org/2000/svg"
    xmlns="http://www.w3.org/2000/svg"
    width="236"
    height="144"
    >
        <g transform="scale(4, -4)   translate(28.50795806538496,-17.422995994133824)" stroke-width="0.25"  fill="none">
        <!-- hidden lines -->
        <g  stroke="rgb(160,160,160)" fill="none" stroke-dasharray="0.25,0.25" >
    			<path d="M2.2004272847441406,5.330506616255807 L2.2004272847441406,14.696327296391702 " />
			<path d="M2.2004272847441406,5.330506616255807 L28.229662185033323,-0.18255829943671978 " />
			<path d="M2.2004272847441406,5.330506616255807 L1.8536514509293402,5.368972213467831 L1.5151261496782498,5.403717451519915 L1.1847255092536324,5.434789033754748 L0.8623236579182506,5.462233663515017 L0.5477947239348677,5.48609804414341 L0.24101283556624675,5.506428878982616 L-0.05814787892484971,5.5232728713753225 L-0.3498132912756583,5.536676724664218 L-0.6341092732234159,5.546687142191991 L-0.9111616965053607,5.553350827301329 L-1.1810964328587288,5.55671448333492 L-1.444039354020757,5.556824813635453 L-1.7001163317286823,5.553728521545614 L-1.9494532377197424,5.547472310408095 L-2.1921759437311743,5.53810288356558 L-2.4284103215002144,5.52566694436076 L-2.6582822427641006,5.5102111961363205 L-2.8819175792600693,5.491782342234952 L-3.0994422027253576,5.470427085999342 L-3.3109819848972037,5.446192130772178 L-3.5166627975128426,5.419124179896149 L-3.7166105123095123,5.3892699367139425 L-3.9109510010244497,5.356676104568247 L-4.099810135394892,5.32138938680175 L-4.283313787158077,5.28345648675714 L-4.46158782805124,5.242924107777105 L-4.63475812981162,5.199838953204334 L-4.802950564176452,5.154247726381514 L-4.966284047730849,5.106197435193707 L-5.1248094739001235,5.055738066027959 L-5.278539262237778,5.002921289910848 L-5.427485395574538,4.947798796991549 L-5.571659856741133,4.890422277419237 L-5.711074628568286,4.830843421343087 L-5.845741693886728,4.769113918912275 L-5.9756730355271825,4.705285460275977 L-6.100880636320378,4.639409735583367 L-6.2213764790970405,4.571538434983621 L-6.337172546687897,4.501723248625914 L-6.4482808219236745,4.4300158666594225 L-6.554713287635099,4.35646797923332 L-6.656481926652899,4.281131276496783 L-6.753598721807799,4.204057448598988 L-6.846075655930526,4.125298185689108 L-6.93392471185181,4.04490517791632 L-7.017157872402373,3.9629301154297987 L-7.095787120412946,3.8794246883787196 L-7.169824438714254,3.7944405869122577 L-7.239281810137022,3.7080295011795887 L-7.30417121751198,3.620243121329888 L-7.364504643669854,3.5311331375123314 L-7.4202940714413685,3.4407512398760938 L-7.471551483657253,3.3491491185703492 L-7.518288863148233,3.256378463744276 L-7.560518192745034,3.1624909655470472 L-7.598251455278386,3.0675383141278387 L-7.631500633579014,2.9715721996358258 L-7.6602777104776445,2.874644312220184 L-7.684594668805004,2.7768063420300897 L-7.70446349139182,2.6781099792147156 L-7.71989616106882,2.57860691392324 L-7.730904660666728,2.478348836304837 L-7.7375009730162745,2.3773874365086813 L-7.739697080948184,2.275774404683956 " />
			<path d="M-7.739697080948184,2.2757744046839483 L-7.738421522988721,2.197864897492515 L-7.734598393839481,2.119629304856649 L-7.728233010594182,2.0410905630402274 L-7.719330690346545,1.96227160830713 L-7.7078967501902875,1.8831953769212333 L-7.6939365072191315,1.8038848051464156 L-7.6774552785267955,1.7243628292465534 L-7.658458381207,1.6446523854855253 L-7.636951132353463,1.5647764101272084 L-7.612938849059905,1.4847578394354801 L-7.586426848420047,1.4046196096742185 L-7.557420580472507,1.3243846512860977 L-7.525956601441566,1.2440745326800942 L-7.492142362491313,1.1637077180177506 L-7.417932222592039,1.0028761357836293 L-7.335728396293019,0.8420341751029028 L-7.246469119112583,0.6813261064947407 L-7.1510926265690635,0.5208962004783122 L-7.05053715418079,0.3608887275727868 L-6.945740937466096,0.2014479582973335 L-6.837642211943312,0.042718163171121974 L-6.6152901765468,-0.27203142255689927 L-6.172238362863286,-0.8866510013785921 L-6.067292670197155,-1.0363644029233714 L-5.966550352869586,-1.1842126661655543 L-5.870949646398911,-1.330051520585972 L-5.781428786303461,-1.473736695665455 L-5.698926008101568,-1.6151239208848338 L-5.6243795473115625,-1.7540689257249387 L-5.558727639451776,-1.8904274396666012 L-5.529530341470195,-1.957591678013276 L-5.502908520040542,-2.0240551921906516 L-5.47897945460261,-2.089799948383832 L-5.4578604245961895,-2.1548079127779203 L-5.439668709461073,-2.2190610515580214 L-5.4245215886370515,-2.2825413309092384 L-5.412536341563916,-2.3452307170166757 L-5.403830247681459,-2.4071111760654365 L-5.398520586429471,-2.468164674240625 L-5.396724637247743,-2.5283731777273344 " />
			<path d="M-5.396724637247742,-2.528373177727345 L-5.397750700826332,-2.5728912011741296 L-5.400861713828517,-2.6169177970226496 L-5.406106909653926,-2.6604453947557114 L-5.413535521702186,-2.703466423856117 L-5.423196783372923,-2.745973313806672 L-5.435139928065765,-2.787958494090183 L-5.449414189180339,-2.829414394189452 L-5.466068800116272,-2.8703334435872856 L-5.485152994273191,-2.9107080717664875 L-5.506716005050724,-2.9505307082098637 L-5.530807065848498,-2.9897937824002185 L-5.5574754100661385,-3.0284897238203565 L-5.5867702711032745,-3.0666109619530824 L-5.618740882359533,-3.1041499262812016 L-5.653436477234541,-3.1410990462875192 L-5.690906289127925,-3.1774507514548387 L-5.731199551439312,-3.213197471265966 L-5.774365497568331,-3.2483316352037055 L-5.820453360914606,-3.2828456727508617 L-5.8695123748777664,-3.316732013390239 L-5.92159177285744,-3.3499830866046434 L-5.976740788253251,-3.382591321876878 L-6.035008654464829,-3.4145491486897503 L-6.096444604891801,-3.445848996526063 L-6.229017691990433,-3.5064444732002293 L-6.374853916746165,-3.5643171877618176 L-6.534340961571524,-3.6194078267132577 L-6.70747709649796,-3.671735820561303 L-6.893646222648046,-3.7214448328118905 L-7.092178111910066,-3.7686894725722455 L-7.302402536172282,-3.813624348949589 L-7.523649267322977,-3.856404071051147 L-7.755248077250425,-3.8971832479841426 L-7.996528737842901,-3.9361164888558005 L-8.246821020988682,-3.9733584027733437 L-8.505454698576042,-4.009063598843997 L-8.771759542493255,-4.0433866861749825 L-9.045065324628599,-4.076482273873527 L-9.609998791106785,-4.139609386802183 L-10.194893273116795,-4.199681810487756 L-10.794386945764824,-4.257936417788036 L-12.015724563399775,-4.373939674663886 L-12.626844858599105,-4.434162069955037 L-13.231117044861264,-4.497514140292061 L-13.823179297292462,-4.565232758532749 L-14.112956128042137,-4.601116045885027 L-14.3976697909989,-4.6385547975348915 L-14.676650058051022,-4.6777036225895685 L-14.949226701086783,-4.718717130156281 L-15.214729491994461,-4.761749929342254 L-15.47248820266232,-4.806956629254709 L-15.72183260497864,-4.854491839000872 L-15.962092470831706,-4.904510167687967 L-16.192597572109776,-4.957166224423215 L-16.412677680701137,-5.012614618313843 L-16.62166256849406,-5.071009958467074 L-16.818882986663755,-5.132506622524852 L-17.00396969486217,-5.197188077813295 L-17.177275154844047,-5.2649672093983115 L-17.33925814341474,-5.33573177360979 L-17.490377437379603,-5.409369526777615 L-17.631091813543996,-5.48576822523168 L-17.76186004871327,-5.564815625301864 L-17.88314091969278,-5.646399483318058 L-17.995393203287893,-5.730407555610151 L-18.099075676303954,-5.816727598508026 L-18.19464711554632,-5.905247368341572 L-18.282566297820352,-5.995854621440676 L-18.363291999931402,-6.088437114135226 L-18.437282998684832,-6.18288260275511 L-18.504998070885993,-6.279078843630212 L-18.56689599334024,-6.37691359309042 L-18.62343554285293,-6.4762746074656246 L-18.67507549622942,-6.577049643085708 L-18.72227463027507,-6.679126456280559 L-18.76549172179523,-6.782392803380065 L-18.805185547595258,-6.886736440714113 L-18.84181488448051,-6.992045124612591 L-18.875838509256344,-7.098206611405386 L-18.937903729701176,-7.3126390189934725 L-18.9950514233726,-7.529135714117473 L-19.05095180471347,-7.7467987474164826 L-19.10927508816663,-7.964730169529594 L-19.17369148817493,-8.182032031095908 L-19.20933154890065,-8.290166267498734 L-19.24787121918122,-8.39780638275452 L-19.289769275822,-8.504840133193158 L-19.335484495628346,-8.611155275144531 L-19.385475655405614,-8.716639564938529 L-19.440201531959158,-8.821180758905037 L-19.500120901650547,-8.924666613478834 L-19.56563262109873,-9.026999047787443 L-19.636909738212204,-9.128133353340207 L-19.714072117814837,-9.22803739205572 L-19.797239624730498,-9.326679025852576 L-19.88653212378305,-9.424026116649367 L-19.982069479796355,-9.520046526364686 L-20.083971557594282,-9.614708116917122 L-20.192358222000692,-9.707978750225267 L-20.307349337839458,-9.799826288207719 L-20.42906476993444,-9.89021859278306 L-20.5576243831095,-9.979123525869891 L-20.693148042188508,-10.066508949386801 L-20.835755611995324,-10.15234272525238 L-20.98556695735382,-10.236592715385223 L-21.14270194308786,-10.319226781703922 L-21.30728043402131,-10.400212786127067 L-21.479422294978026,-10.479518590573251 L-21.65924739078189,-10.55711205696107 L-21.846875586256747,-10.63296104720911 L-22.04242674622648,-10.707033423235965 L-22.246020735514946,-10.77929704696023 L-22.45777741894601,-10.849719780300491 L-22.677816661343535,-10.918269485175346 L-22.90625832753139,-10.984914023503382 L-23.14322228233344,-11.049621257203196 L-23.38882839057355,-11.112359048193378 L-23.643196517075584,-11.17309525839252 L-23.90644652666341,-11.231797749719213 L-24.17869828416089,-11.288434384092051 L-24.4600716543919,-11.342973023429627 L-24.750686502180283,-11.39538152965053 L-25.050662692349924,-11.445627764673352 L-25.360120089724685,-11.493679590416688 L-25.67917855912843,-11.53950486879913 L-26.00795796538484,-11.583071461739245 " />
			<path d="M-7.739697080948189,2.275774404683947 L-7.739697080948189,5.471263447620325 " />
			<path d="M-5.396724637247742,-2.528373177727344 L-5.396724637247742,6.83744750240853 " />

        </g>

        <!-- solid lines -->
        <g  stroke="rgb(0,0,0)" fill="none">
    			<path d="M28.229662185033323,-0.1825582994367192 L28.229662185033323,9.183262380699176 " />
			<path d="M2.2004272847441406,14.696327296391704 L28.229662185033323,9.183262380699178 " />
			<path d="M-26.007957965385003,-11.583071461739266 L-26.007957965385003,-2.2172507816033704 " />
			<path d="M2.2004272847441406,14.696327296391704 L1.8536514509293402,14.734792893603728 L1.5151261496782498,14.769538131655812 L1.1847255092536324,14.800609713890646 L0.8623236579182506,14.828054343650914 L0.5477947239348677,14.851918724279308 L0.24101283556624675,14.872249559118513 L-0.05814787892484971,14.88909355151122 L-0.3498132912756583,14.902497404800116 L-0.6341092732234159,14.912507822327889 L-0.9111616965053607,14.919171507437227 L-1.1810964328587288,14.922535163470817 L-1.444039354020757,14.92264549377135 L-1.7001163317286823,14.919549201681512 L-1.9494532377197424,14.913292990543992 L-2.1921759437311743,14.903923563701477 L-2.4284103215002144,14.891487624496657 L-2.6582822427641006,14.876031876272219 L-2.8819175792600693,14.85760302237085 L-3.0994422027253576,14.836247766135239 L-3.3109819848972037,14.812012810908076 L-3.5166627975128426,14.784944860032047 L-3.7166105123095123,14.75509061684984 L-3.9109510010244497,14.722496784704143 L-4.099810135394892,14.687210066937647 L-4.283313787158077,14.649277166893038 L-4.46158782805124,14.608744787913002 L-4.63475812981162,14.565659633340232 L-4.802950564176452,14.520068406517412 L-4.966284047730849,14.472018115329602 L-5.1248094739001235,14.421558746163855 L-5.278539262237778,14.368741970046743 L-5.427485395574538,14.313619477127444 L-5.571659856741133,14.256242957555132 L-5.711074628568286,14.196664101478984 L-5.845741693886728,14.13493459904817 L-5.9756730355271825,14.071106140411873 L-6.100880636320378,14.005230415719263 L-6.2213764790970405,13.937359115119516 L-6.337172546687897,13.86754392876181 L-6.4482808219236745,13.795836546795318 L-6.554713287635099,13.722288659369216 L-6.656481926652899,13.646951956632678 L-6.753598721807799,13.569878128734883 L-6.846075655930526,13.491118865825003 L-6.93392471185181,13.410725858052215 L-7.017157872402373,13.328750795565695 L-7.095787120412946,13.245245368514615 L-7.169824438714254,13.160261267048153 L-7.239281810137022,13.073850181315484 L-7.30417121751198,12.986063801465784 L-7.364504643669854,12.896953817648226 L-7.4202940714413685,12.806571920011988 L-7.471551483657253,12.714969798706244 L-7.518288863148233,12.622199143880172 L-7.560518192745034,12.528311645682942 L-7.598251455278386,12.433358994263735 L-7.631500633579014,12.337392879771722 L-7.6602777104776445,12.24046499235608 L-7.684594668805004,12.142627022165986 L-7.70446349139182,12.043930659350611 L-7.71989616106882,11.944427594059135 L-7.730904660666728,11.844169516440733 L-7.7375009730162745,11.743208116644576 L-7.739697080948184,11.641595084819851 " />
			<path d="M-7.739697080948184,11.641595084819846 L-7.738421522988721,11.56368557762841 L-7.734598393839481,11.485449984992544 L-7.728233010594182,11.406911243176124 L-7.719330690346545,11.328092288443026 L-7.7078967501902875,11.249016057057128 L-7.6939365072191315,11.16970548528231 L-7.6774552785267955,11.090183509382449 L-7.658458381207,11.01047306562142 L-7.636951132353463,10.930597090263104 L-7.612938849059905,10.850578519571375 L-7.586426848420047,10.770440289810114 L-7.557420580472507,10.690205331421994 L-7.525956601441566,10.60989521281599 L-7.492142362491313,10.529528398153648 L-7.417932222592039,10.368696815919526 L-7.335728396293019,10.2078548552388 L-7.246469119112583,10.047146786630638 L-7.1510926265690635,9.886716880614209 L-7.05053715418079,9.726709407708684 L-6.945740937466096,9.56726863843323 L-6.837642211943312,9.408538843307019 L-6.6152901765468,9.093789257578997 L-6.172238362863286,8.479169678757305 L-6.067292670197155,8.329456277212525 L-5.966550352869586,8.181608013970342 L-5.870949646398911,8.035769159549925 L-5.781428786303461,7.892083984470442 L-5.698926008101568,7.750696759251063 L-5.6243795473115625,7.611751754410958 L-5.558727639451776,7.4753932404692955 L-5.529530341470195,7.408229002122621 L-5.502908520040542,7.341765487945246 L-5.47897945460261,7.276020731752065 L-5.4578604245961895,7.2110127673579765 L-5.439668709461073,7.146759628577875 L-5.4245215886370515,7.083279349226658 L-5.412536341563916,7.020589963119221 L-5.403830247681459,6.958709504070461 L-5.398520586429471,6.897656005895271 L-5.396724637247743,6.837447502408563 " />
			<path d="M-5.396724637247742,6.837447502408552 L-5.397750700826332,6.792929478961767 L-5.400861713828517,6.748902883113247 L-5.406106909653926,6.705375285380185 L-5.413535521702186,6.66235425627978 L-5.423196783372923,6.619847366329225 L-5.435139928065765,6.577862186045714 L-5.449414189180339,6.536406285946445 L-5.466068800116272,6.495487236548612 L-5.485152994273191,6.455112608369409 L-5.506716005050724,6.4152899719260335 L-5.530807065848498,6.376026897735679 L-5.5574754100661385,6.33733095631554 L-5.5867702711032745,6.299209718182814 L-5.618740882359533,6.261670753854696 L-5.653436477234541,6.224721633848378 L-5.690906289127925,6.188369928681058 L-5.731199551439312,6.15262320886993 L-5.774365497568331,6.117489044932191 L-5.820453360914606,6.082975007385036 L-5.8695123748777664,6.049088666745658 L-5.92159177285744,6.015837593531253 L-5.976740788253251,5.983229358259019 L-6.035008654464829,5.951271531446147 L-6.096444604891801,5.919971683609834 L-6.229017691990433,5.859376206935668 L-6.374853916746165,5.801503492374079 L-6.534340961571524,5.7464128534226395 L-6.70747709649796,5.694084859574594 L-6.893646222648046,5.644375847324007 L-7.092178111910066,5.597131207563652 L-7.302402536172282,5.552196331186308 L-7.523649267322977,5.5094166090847505 L-7.755248077250425,5.468637432151755 L-7.996528737842901,5.429704191280097 L-8.246821020988682,5.3924622773625535 L-8.505454698576042,5.356757081291901 L-8.771759542493255,5.322433993960915 L-9.045065324628599,5.289338406262371 L-9.609998791106785,5.226211293333715 L-10.194893273116795,5.166138869648141 L-10.794386945764824,5.107884262347862 L-12.015724563399775,4.991881005472012 L-12.626844858599105,4.931658610180861 L-13.231117044861264,4.868306539843838 L-13.823179297292462,4.8005879216031495 L-14.112956128042137,4.764704634250871 L-14.3976697909989,4.7272658826010066 L-14.676650058051022,4.68811705754633 L-14.949226701086783,4.647103549979617 L-15.214729491994461,4.604070750793644 L-15.47248820266232,4.558864050881189 L-15.72183260497864,4.511328841135026 L-15.962092470831706,4.461310512447931 L-16.192597572109776,4.408654455712683 L-16.412677680701137,4.353206061822055 L-16.62166256849406,4.294810721668824 L-16.818882986663755,4.233314057611044 L-17.00396969486217,4.168632602322601 L-17.177275154844047,4.100853470737585 L-17.33925814341474,4.030088906526107 L-17.490377437379603,3.9564511533582807 L-17.631091813543996,3.880052454904217 L-17.76186004871327,3.801005054834033 L-17.88314091969278,3.7194211968178386 L-17.995393203287893,3.6354131245257455 L-18.099075676303954,3.5490930816278707 L-18.19464711554632,3.4605733117943247 L-18.282566297820352,3.3699660586952205 L-18.363291999931402,3.2773835660006707 L-18.437282998684832,3.1829380773807863 L-18.504998070885993,3.0867418365056847 L-18.56689599334024,2.9889070870454764 L-18.62343554285293,2.8895460726702717 L-18.67507549622942,2.788771037050189 L-18.72227463027507,2.6866942238553375 L-18.76549172179523,2.5834278767558314 L-18.805185547595258,2.479084239421783 L-18.84181488448051,2.373775555523305 L-18.875838509256344,2.2676140687305106 L-18.937903729701176,2.0531816611424243 L-18.9950514233726,1.8366849660184235 L-19.05095180471347,1.6190219327194142 L-19.10927508816663,1.4010905106063023 L-19.17369148817493,1.183788649039988 L-19.20933154890065,1.0756544126371628 L-19.24787121918122,0.9680142973813748 L-19.289769275822,0.8609805469427384 L-19.335484495628346,0.7546654049913656 L-19.385475655405614,0.6491811151973671 L-19.440201531959158,0.5446399212308605 L-19.500120901650547,0.4411540666570621 L-19.56563262109873,0.3388216323484541 L-19.636909738212204,0.23768732679569057 L-19.714072117814837,0.13778328808017679 L-19.797239624730498,0.03914165428332071 L-19.88653212378305,-0.05820543651346968 L-19.982069479796355,-0.15422584622878904 L-20.083971557594282,-0.24888743678122438 L-20.192358222000692,-0.3421580700893705 L-20.307349337839458,-0.4340056080718214 L-20.42906476993444,-0.5243979126471647 L-20.5576243831095,-0.6133028457339951 L-20.693148042188508,-0.7006882692509041 L-20.835755611995324,-0.7865220451164843 L-20.98556695735382,-0.8707720352493274 L-21.14270194308786,-0.9534061015680256 L-21.30728043402131,-1.0343921059911712 L-21.479422294978026,-1.1136979104373559 L-21.65924739078189,-1.1912913768251738 L-21.846875586256747,-1.267140367073213 L-22.04242674622648,-1.3412127431000684 L-22.246020735514946,-1.4134763668243326 L-22.45777741894601,-1.483899100164595 L-22.677816661343535,-1.5524488050394487 L-22.90625832753139,-1.6190933433674866 L-23.14322228233344,-1.6838005770673001 L-23.38882839057355,-1.7465383680574815 L-23.643196517075584,-1.807274578256623 L-23.90644652666341,-1.8659770695833167 L-24.17869828416089,-1.9226137039561548 L-24.4600716543919,-1.9771523432937301 L-24.750686502180283,-2.029560849514632 L-25.050662692349924,-2.079807084537455 L-25.360120089724685,-2.1278589102807914 L-25.67917855912843,-2.1736841886632323 L-26.00795796538484,-2.2172507816033464 " />
			<path d="M-10.82482863285254,-16.14526511765767 L-10.82482863285254,-6.779444437521773 " />
			<path d="M-10.82482863285254,-16.14526511765767 L-26.007957965385,-11.583071461739264 " />
			<path d="M-10.82482863285254,-6.779444437521773 L-26.007957965385,-2.2172507816033695 " />
			<path d="M28.229662185033323,-0.1825582994367192 L-10.824828632852538,-16.14526511765767 " />
			<path d="M28.229662185033323,9.183262380699176 L-10.824828632852538,-6.779444437521772 " />
			<path d="M-7.739697080948189,5.471263447620331 L-7.739697080948189,11.641595084819823 " />

        </g>
        </g>
    </svg>
    