<?xml version="1.0" encoding="UTF-8" standalone="no"?>
    <svg
    xmlns:svg="http://www.w3.org/2000/svg"
    xmlns="http://www.w3.org/2000/svg"
    width="236"
    height="144"
    >
        <g transform="scale(4, -4)   translate(28.50795806538496,-17.42299599413383)" stroke-width="0.25"  fill="none">
        <!-- hidden lines -->
        <g  stroke="rgb(160,160,160)" fill="none" stroke-dasharray="0.25,0.25" >
    			<path d="M2.2004272847441406,5.330506616255818 L2.2004272847441406,14.696327296391713 " />
			<path d="M2.2004272847441406,5.330506616255818 L1.8536514509293398,5.368972213467842 L1.515126149678249,5.403717451519926 L1.1847255092536313,5.434789033754758 L0.8623236579182492,5.462233663515027 L0.5477947239348662,5.486098044143421 L0.24101283556624487,5.506428878982627 L-0.05814787892485196,5.523272871375333 L-0.3498132912756615,5.536676724664229 L-0.634109273223419,5.546687142192002 L-0.9111616965053639,5.553350827301339 L-1.1810964328587317,5.556714483334931 L-1.44403935402076,5.556824813635463 L-1.7001163317286854,5.553728521545625 L-1.9494532377197462,5.5474723104081045 L-2.1921759437311783,5.53810288356559 L-2.4284103215002197,5.525666944360768 L-2.6582822427641046,5.51021119613633 L-2.881917579260074,5.491782342234962 L-3.0994422027253616,5.470427085999352 L-3.310981984897208,5.446192130772188 L-3.516662797512847,5.4191241798961585 L-3.716610512309517,5.389269936713951 L-3.910951001024454,5.356676104568256 L-4.099810135394897,5.3213893868017585 L-4.2833137871580815,5.2834564867571485 L-4.461587828051245,5.242924107777114 L-4.634758129811624,5.199838953204343 L-4.802950564176458,5.154247726381523 L-4.966284047730854,5.106197435193715 L-5.124809473900129,5.055738066027967 L-5.278539262237783,5.002921289910856 L-5.427485395574544,4.947798796991557 L-5.571659856741137,4.890422277419244 L-5.711074628568292,4.830843421343094 L-5.845741693886733,4.769113918912283 L-5.975673035527188,4.705285460275984 L-6.100880636320383,4.639409735583374 L-6.221376479097045,4.571538434983629 L-6.337172546687902,4.501723248625922 L-6.448280821923679,4.4300158666594305 L-6.554713287635104,4.356467979233328 L-6.656481926652903,4.281131276496792 L-6.753598721807803,4.204057448598996 L-6.84607565593053,4.125298185689116 L-6.933924711851814,4.044905177916328 L-7.017157872402377,3.962930115429807 L-7.09578712041295,3.8794246883787276 L-7.169824438714257,3.7944405869122657 L-7.239281810137026,3.708029501179597 L-7.304171217511984,3.620243121329896 L-7.364504643669857,3.5311331375123403 L-7.420294071441372,3.440751239876102 L-7.471551483657256,3.349149118570358 L-7.518288863148236,3.2563784637442845 L-7.560518192745039,3.1624909655470557 L-7.5982514552783895,3.067538314127847 L-7.631500633579018,2.9715721996358346 L-7.660277710477647,2.874644312220193 L-7.6845946688050075,2.7768063420300977 L-7.704463491391824,2.678109979214724 L-7.719896161068823,2.5786069139232484 L-7.730904660666732,2.4783488363048445 L-7.737500973016278,2.377387436508689 L-7.739697080948187,2.275774404683964 " />
			<path d="M-7.739697080948187,2.2757744046839568 L-7.738421522988725,2.197864897492523 L-7.734598393839484,2.1196293048566566 L-7.7282330105941845,2.0410905630402354 L-7.719330690346547,1.9622716083071379 L-7.70789675019029,1.883195376921241 L-7.693936507219135,1.8038848051464238 L-7.677455278526798,1.7243628292465618 L-7.658458381207002,1.6446523854855335 L-7.636951132353465,1.5647764101272164 L-7.612938849059907,1.4847578394354888 L-7.586426848420049,1.404619609674227 L-7.55742058047251,1.3243846512861066 L-7.525956601441568,1.2440745326801028 L-7.4921423624913155,1.1637077180177595 L-7.417932222592042,1.0028761357836382 L-7.335728396293022,0.842034175102912 L-7.246469119112586,0.68132610649475 L-7.151092626569066,0.5208962004783216 L-7.050537154180793,0.3608887275727962 L-6.945740937466098,0.2014479582973432 L-6.837642211943315,0.04271816317113175 L-6.615290176546804,-0.27203142255688917 L-6.17223836286329,-0.88665100137858 L-6.067292670197159,-1.0363644029233594 L-5.966550352869591,-1.1842126661655423 L-5.870949646398916,-1.3300515205859598 L-5.781428786303466,-1.4737366956654427 L-5.698926008101573,-1.6151239208848214 L-5.624379547311568,-1.7540689257249267 L-5.5587276394517815,-1.8904274396665888 L-5.529530341470199,-1.9575916780132632 L-5.502908520040547,-2.0240551921906387 L-5.478979454602615,-2.089799948383819 L-5.457860424596195,-2.1548079127779074 L-5.4396687094610785,-2.219061051558009 L-5.424521588637058,-2.282541330909225 L-5.412536341563921,-2.345230717016663 L-5.403830247681464,-2.407111176065423 L-5.398520586429477,-2.468164674240612 L-5.396724637247749,-2.528373177727321 " />
			<path d="M-5.396724637247748,-2.5283731777273326 L-5.397750700826338,-2.5728912011741167 L-5.400861713828524,-2.616917797022637 L-5.406106909653933,-2.6604453947556985 L-5.413535521702192,-2.7034664238561037 L-5.42319678337293,-2.745973313806659 L-5.435139928065771,-2.7879584940901703 L-5.449414189180345,-2.829414394189439 L-5.466068800116279,-2.8703334435872723 L-5.485152994273198,-2.910708071766474 L-5.506716005050731,-2.9505307082098504 L-5.530807065848505,-2.9897937824002048 L-5.5574754100661465,-3.0284897238203436 L-5.586770271103282,-3.066610961953069 L-5.61874088235954,-3.1041499262811882 L-5.653436477234548,-3.141099046287506 L-5.690906289127932,-3.177450751454826 L-5.731199551439319,-3.2131974712659526 L-5.774365497568338,-3.2483316352036926 L-5.820453360914614,-3.282845672750849 L-5.869512374877774,-3.316732013390226 L-5.921591772857448,-3.34998308660463 L-5.976740788253259,-3.3825913218768653 L-6.035008654464837,-3.414549148689737 L-6.096444604891808,-3.445848996526049 L-6.229017691990441,-3.506444473200217 L-6.374853916746173,-3.564317187761805 L-6.534340961571531,-3.6194078267132466 L-6.707477096497967,-3.671735820561292 L-6.893646222648053,-3.7214448328118794 L-7.092178111910073,-3.7686894725722344 L-7.3024025361722895,-3.8136243489495785 L-7.523649267322984,-3.856404071051136 L-7.755248077250433,-3.897183247984132 L-7.996528737842909,-3.93611648885579 L-8.246821020988689,-3.973358402773333 L-8.505454698576049,-4.009063598843986 L-8.771759542493264,-4.043386686174973 L-9.045065324628606,-4.076482273873516 L-9.609998791106793,-4.139609386802173 L-10.194893273116802,-4.199681810487746 L-10.794386945764831,-4.257936417788026 L-12.015724563399784,-4.373939674663876 L-12.626844858599114,-4.434162069955027 L-13.231117044861271,-4.4975141402920515 L-13.82317929729247,-4.56523275853274 L-14.112956128042146,-4.601116045885017 L-14.39766979099891,-4.638554797534883 L-14.676650058051031,-4.67770362258956 L-14.949226701086793,-4.718717130156272 L-15.214729491994468,-4.761749929342245 L-15.47248820266233,-4.8069566292547 L-15.721832604978651,-4.854491839000863 L-15.962092470831713,-4.904510167687958 L-16.192597572109786,-4.957166224423206 L-16.412677680701147,-5.012614618313834 L-16.62166256849407,-5.071009958467065 L-16.81888298666376,-5.1325066225248435 L-17.003969694862175,-5.197188077813286 L-17.17727515484405,-5.264967209398303 L-17.339258143414742,-5.335731773609781 L-17.490377437379607,-5.409369526777606 L-17.631091813544,-5.48576822523167 L-17.761860048713274,-5.564815625301855 L-17.883140919692785,-5.646399483318048 L-17.995393203287897,-5.730407555610142 L-18.099075676303958,-5.816727598508017 L-18.194647115546324,-5.905247368341563 L-18.282566297820356,-5.995854621440667 L-18.36329199993141,-6.088437114135217 L-18.437282998684836,-6.182882602755101 L-18.504998070885996,-6.279078843630202 L-18.566895993340243,-6.376913593090411 L-18.623435542852935,-6.476274607465616 L-18.67507549622943,-6.577049643085698 L-18.722274630275074,-6.6791264562805495 L-18.765491721795236,-6.782392803380056 L-18.805185547595265,-6.886736440714104 L-18.841814884480517,-6.992045124612582 L-18.875838509256347,-7.0982066114053755 L-18.93790372970118,-7.312639018993462 L-18.995051423372608,-7.529135714117463 L-19.050951804713478,-7.746798747416472 L-19.109275088166637,-7.9647301695295845 L-19.17369148817494,-8.182032031095897 L-19.209331548900657,-8.290166267498723 L-19.247871219181228,-8.39780638275451 L-19.289769275822007,-8.504840133193147 L-19.33548449562835,-8.61115527514452 L-19.38547565540562,-8.716639564938518 L-19.440201531959165,-8.821180758905026 L-19.500120901650554,-8.924666613478824 L-19.565632621098736,-9.026999047787433 L-19.63690973821221,-9.128133353340196 L-19.714072117814844,-9.22803739205571 L-19.797239624730505,-9.326679025852565 L-19.886532123783056,-9.424026116649356 L-19.982069479796362,-9.520046526364675 L-20.08397155759429,-9.614708116917111 L-20.1923582220007,-9.707978750225257 L-20.307349337839465,-9.799826288207708 L-20.429064769934445,-9.89021859278305 L-20.557624383109506,-9.97912352586988 L-20.69314804218851,-10.06650894938679 L-20.83575561199533,-10.15234272525237 L-20.98556695735383,-10.236592715385214 L-21.142701943087868,-10.319226781703911 L-21.307280434021312,-10.400212786127057 L-21.479422294978033,-10.479518590573242 L-21.659247390781893,-10.55711205696106 L-21.846875586256754,-10.632961047209099 L-22.042426746226482,-10.707033423235954 L-22.24602073551495,-10.779297046960219 L-22.457777418946012,-10.84971978030048 L-22.677816661343538,-10.918269485175335 L-22.906258327531393,-10.984914023503372 L-23.143222282333443,-11.049621257203185 L-23.388828390573554,-11.112359048193367 L-23.643196517075587,-11.17309525839251 L-23.906446526663412,-11.231797749719203 L-24.17869828416089,-11.288434384092042 L-24.4600716543919,-11.342973023429618 L-24.750686502180287,-11.39538152965052 L-25.050662692349924,-11.445627764673342 L-25.36012008972469,-11.49367959041668 L-25.67917855912843,-11.539504868799119 L-26.00795796538484,-11.583071461739234 " />
			<path d="M2.2004272847441406,5.330506616255818 L28.229662185033323,-0.18255829943670943 " />
			<path d="M-7.7396970809481935,2.2757744046839576 L-7.7396970809481935,5.471263447620331 " />
			<path d="M-5.396724637247747,-2.5283731777273335 L-5.396724637247747,6.837447502408541 " />

        </g>

        <!-- solid lines -->
        <g  stroke="rgb(0,0,0)" fill="none">
    			<path d="M-26.007957965385003,-11.583071461739255 L-26.007957965385003,-2.2172507816033598 " />
			<path d="M2.2004272847441406,14.696327296391715 L1.8536514509293398,14.73479289360374 L1.515126149678249,14.769538131655823 L1.1847255092536313,14.800609713890655 L0.8623236579182492,14.828054343650923 L0.5477947239348662,14.851918724279317 L0.24101283556624487,14.872249559118522 L-0.05814787892485196,14.889093551511229 L-0.3498132912756615,14.902497404800124 L-0.634109273223419,14.912507822327896 L-0.9111616965053639,14.919171507437234 L-1.1810964328587317,14.922535163470826 L-1.44403935402076,14.922645493771357 L-1.7001163317286854,14.91954920168152 L-1.9494532377197462,14.913292990543999 L-2.1921759437311783,14.903923563701484 L-2.4284103215002197,14.891487624496664 L-2.6582822427641046,14.876031876272226 L-2.881917579260074,14.857603022370856 L-3.0994422027253616,14.836247766135246 L-3.310981984897208,14.812012810908083 L-3.516662797512847,14.784944860032054 L-3.716610512309517,14.755090616849847 L-3.910951001024454,14.722496784704152 L-4.099810135394897,14.687210066937654 L-4.2833137871580815,14.649277166893045 L-4.461587828051245,14.60874478791301 L-4.634758129811624,14.565659633340239 L-4.802950564176458,14.520068406517419 L-4.966284047730854,14.47201811532961 L-5.124809473900129,14.42155874616386 L-5.278539262237783,14.36874197004675 L-5.427485395574544,14.313619477127451 L-5.571659856741137,14.25624295755514 L-5.711074628568292,14.196664101478989 L-5.845741693886733,14.134934599048178 L-5.975673035527188,14.07110614041188 L-6.100880636320383,14.00523041571927 L-6.221376479097045,13.937359115119524 L-6.337172546687902,13.867543928761817 L-6.448280821923679,13.795836546795325 L-6.554713287635104,13.722288659369223 L-6.656481926652903,13.646951956632686 L-6.753598721807803,13.56987812873489 L-6.84607565593053,13.491118865825012 L-6.933924711851814,13.410725858052222 L-7.017157872402377,13.328750795565702 L-7.09578712041295,13.245245368514622 L-7.169824438714257,13.16026126704816 L-7.239281810137026,13.073850181315493 L-7.304171217511984,12.986063801465791 L-7.364504643669857,12.896953817648235 L-7.420294071441372,12.806571920011997 L-7.471551483657256,12.714969798706253 L-7.518288863148236,12.622199143880179 L-7.560518192745039,12.528311645682951 L-7.5982514552783895,12.433358994263742 L-7.631500633579018,12.337392879771729 L-7.660277710477647,12.240464992356088 L-7.6845946688050075,12.142627022165993 L-7.704463491391824,12.043930659350618 L-7.719896161068823,11.944427594059142 L-7.730904660666732,11.84416951644074 L-7.737500973016278,11.743208116644583 L-7.739697080948187,11.641595084819858 " />
			<path d="M-7.739697080948187,11.641595084819851 L-7.738421522988725,11.563685577628418 L-7.734598393839484,11.48544998499255 L-7.7282330105941845,11.406911243176129 L-7.719330690346547,11.328092288443031 L-7.70789675019029,11.249016057057135 L-7.693936507219135,11.169705485282318 L-7.677455278526798,11.090183509382456 L-7.658458381207002,11.010473065621428 L-7.636951132353465,10.930597090263111 L-7.612938849059907,10.850578519571382 L-7.586426848420049,10.770440289810121 L-7.55742058047251,10.690205331422 L-7.525956601441568,10.609895212815996 L-7.4921423624913155,10.529528398153653 L-7.417932222592042,10.368696815919531 L-7.335728396293022,10.207854855238805 L-7.246469119112586,10.047146786630643 L-7.151092626569066,9.886716880614216 L-7.050537154180793,9.72670940770869 L-6.945740937466098,9.567268638433237 L-6.837642211943315,9.408538843307024 L-6.615290176546804,9.093789257579004 L-6.17223836286329,8.479169678757314 L-6.067292670197159,8.329456277212534 L-5.966550352869591,8.18160801397035 L-5.870949646398916,8.035769159549934 L-5.781428786303466,7.892083984470451 L-5.698926008101573,7.750696759251072 L-5.624379547311568,7.611751754410967 L-5.5587276394517815,7.475393240469305 L-5.529530341470199,7.4082290021226305 L-5.502908520040547,7.3417654879452545 L-5.478979454602615,7.276020731752075 L-5.457860424596195,7.211012767357986 L-5.4396687094610785,7.146759628577884 L-5.424521588637058,7.083279349226668 L-5.412536341563921,7.020589963119231 L-5.403830247681464,6.9587095040704705 L-5.398520586429477,6.897656005895282 L-5.396724637247749,6.837447502408573 " />
			<path d="M-5.396724637247748,6.837447502408564 L-5.397750700826338,6.792929478961777 L-5.400861713828524,6.748902883113257 L-5.406106909653933,6.705375285380195 L-5.413535521702192,6.66235425627979 L-5.42319678337293,6.6198473663292345 L-5.435139928065771,6.577862186045724 L-5.449414189180345,6.536406285946455 L-5.466068800116279,6.495487236548622 L-5.485152994273198,6.4551126083694195 L-5.506716005050731,6.415289971926043 L-5.530807065848505,6.376026897735689 L-5.5574754100661465,6.33733095631555 L-5.586770271103282,6.299209718182825 L-5.61874088235954,6.261670753854705 L-5.653436477234548,6.224721633848388 L-5.690906289127932,6.188369928681068 L-5.731199551439319,6.152623208869941 L-5.774365497568338,6.117489044932201 L-5.820453360914614,6.082975007385046 L-5.869512374877774,6.049088666745668 L-5.921591772857448,6.015837593531264 L-5.976740788253259,5.983229358259028 L-6.035008654464837,5.951271531446157 L-6.096444604891808,5.919971683609845 L-6.229017691990441,5.859376206935677 L-6.374853916746173,5.8015034923740885 L-6.534340961571531,5.746412853422651 L-6.707477096497967,5.694084859574605 L-6.893646222648053,5.644375847324018 L-7.092178111910073,5.597131207563663 L-7.3024025361722895,5.55219633118632 L-7.523649267322984,5.509416609084761 L-7.755248077250433,5.468637432151765 L-7.996528737842909,5.429704191280108 L-8.246821020988689,5.392462277362564 L-8.505454698576049,5.356757081291912 L-8.771759542493264,5.322433993960925 L-9.045065324628606,5.289338406262381 L-9.609998791106793,5.226211293333725 L-10.194893273116802,5.166138869648151 L-10.794386945764831,5.107884262347871 L-12.015724563399784,4.991881005472021 L-12.626844858599114,4.931658610180869 L-13.231117044861271,4.868306539843845 L-13.82317929729247,4.8005879216031575 L-14.112956128042146,4.764704634250879 L-14.39766979099891,4.727265882601014 L-14.676650058051031,4.688117057546337 L-14.949226701086793,4.647103549979624 L-15.214729491994468,4.604070750793651 L-15.47248820266233,4.558864050881196 L-15.721832604978651,4.511328841135033 L-15.962092470831713,4.461310512447938 L-16.192597572109786,4.408654455712689 L-16.412677680701147,4.353206061822062 L-16.62166256849407,4.294810721668831 L-16.81888298666376,4.233314057611051 L-17.003969694862175,4.168632602322608 L-17.17727515484405,4.100853470737592 L-17.339258143414742,4.030088906526114 L-17.490377437379607,3.956451153358288 L-17.631091813544,3.880052454904224 L-17.761860048713274,3.80100505483404 L-17.883140919692785,3.7194211968178457 L-17.995393203287897,3.6354131245257526 L-18.099075676303958,3.549093081627878 L-18.194647115546324,3.460573311794332 L-18.282566297820356,3.3699660586952276 L-18.36329199993141,3.277383566000678 L-18.437282998684836,3.1829380773807934 L-18.504998070885996,3.0867418365056922 L-18.566895993340243,2.988907087045484 L-18.623435542852935,2.8895460726702793 L-18.67507549622943,2.7887710370501964 L-18.722274630275074,2.686694223855345 L-18.765491721795236,2.583427876755839 L-18.805185547595265,2.4790842394217907 L-18.841814884480517,2.373775555523313 L-18.875838509256347,2.2676140687305186 L-18.93790372970118,2.0531816611424323 L-18.995051423372608,1.8366849660184315 L-19.050951804713478,1.6190219327194226 L-19.109275088166637,1.401090510606311 L-19.17369148817494,1.1837886490399967 L-19.209331548900657,1.0756544126371712 L-19.247871219181228,0.9680142973813837 L-19.289769275822007,0.8609805469427476 L-19.33548449562835,0.7546654049913744 L-19.38547565540562,0.6491811151973761 L-19.440201531959165,0.5446399212308695 L-19.500120901650554,0.4411540666570712 L-19.565632621098736,0.3388216323484633 L-19.63690973821221,0.23768732679569982 L-19.714072117814844,0.13778328808018614 L-19.797239624730505,0.03914165428333005 L-19.886532123783056,-0.05820543651346022 L-19.982069479796362,-0.15422584622877955 L-20.08397155759429,-0.24888743678121483 L-20.1923582220007,-0.34215807008936083 L-20.307349337839465,-0.43400560807181177 L-20.429064769934445,-0.5243979126471552 L-20.557624383109506,-0.6133028457339853 L-20.69314804218851,-0.7006882692508942 L-20.83575561199533,-0.7865220451164743 L-20.98556695735383,-0.8707720352493176 L-21.142701943087868,-0.9534061015680158 L-21.307280434021312,-1.0343921059911612 L-21.479422294978033,-1.113697910437346 L-21.659247390781893,-1.1912913768251638 L-21.846875586256754,-1.2671403670732033 L-22.042426746226482,-1.3412127431000584 L-22.24602073551495,-1.4134763668243229 L-22.457777418946012,-1.483899100164585 L-22.677816661343538,-1.5524488050394387 L-22.906258327531393,-1.6190933433674763 L-23.143222282333443,-1.68380057706729 L-23.388828390573554,-1.746538368057472 L-23.643196517075587,-1.8072745782566135 L-23.906446526663412,-1.865977069583307 L-24.17869828416089,-1.9226137039561444 L-24.4600716543919,-1.9771523432937201 L-24.750686502180287,-2.0295608495146222 L-25.050662692349924,-2.0798070845374452 L-25.36012008972469,-2.127858910280782 L-25.67917855912843,-2.1736841886632225 L-26.00795796538484,-2.2172507816033367 " />
			<path d="M-10.824828632852544,-16.145265117657658 L-10.824828632852544,-6.779444437521763 " />
			<path d="M-10.824828632852544,-16.145265117657658 L-26.007957965385003,-11.583071461739255 " />
			<path d="M-10.824828632852544,-6.779444437521763 L-26.007957965385003,-2.217250781603359 " />
			<path d="M28.22966218503332,-0.18255829943670854 L28.22966218503332,9.183262380699187 " />
			<path d="M28.22966218503332,-0.18255829943670854 L-10.824828632852544,-16.145265117657658 " />
			<path d="M28.22966218503332,9.183262380699187 L-10.824828632852544,-6.779444437521761 " />
			<path d="M2.2004272847441406,14.696327296391715 L28.229662185033323,9.183262380699187 " />
			<path d="M-7.7396970809481935,5.471263447620336 L-7.7396970809481935,11.641595084819834 " />

        </g>
        </g>
    </svg>
    