<?xml version="1.0" encoding="UTF-8" standalone="no"?>
    <svg
    xmlns:svg="http://www.w3.org/2000/svg"
    xmlns="http://www.w3.org/2000/svg"
    width="606"
    height="293"
    >
        <g transform="scale(4, -4)   translate(79.78611230571353,-38.39887414896134)" stroke-width="0.25"  fill="none">
        <!-- hidden lines -->
        <g  stroke="rgb(160,160,160)" fill="none" stroke-dasharray="0.25,0.25" >
    			<path d="M42.99534575369045,17.30165608341696 L42.99534575369045,35.89887414896134 " />
			<path d="M69.37285848601589,6.238430168621036 L42.99534575369045,17.301656083416958 " />
			<path d="M27.960163496264954,12.449364015524012 L27.960163496264954,21.258572572887132 " />
			<path d="M42.99534575369045,17.30165608341696 L27.960163496264954,12.449364015524012 " />
			<path d="M41.148919862427675,6.917751058126047 L41.148919862427675,25.514969123670426 " />
			<path d="M27.960163496264954,12.449364015524012 L41.148919862427675,6.91775105812605 " />
			<path d="M-49.062173682125305,-22.19600134923165 L-49.062173682125305,-3.598783283687272 " />
			<path d="M41.148919862427675,6.917751058126047 L-49.062173682125305,-22.19600134923165 " />
			<path d="M-62.250930048288026,-16.66438839183369 L-62.250930048288026,1.932829673710689 " />
			<path d="M-62.250930048288026,-16.66438839183369 L-49.062173682125305,-22.19600134923165 " />
			<path d="M-77.28611230571353,-21.51668045972664 L-62.25093004828803,-16.66438839183369 " />

        </g>

        <!-- solid lines -->
        <g  stroke="rgb(0,0,0)" fill="none">
    			<path d="M69.37285848601589,6.238430168621036 L69.37285848601589,24.835648234165415 " />
			<path d="M-50.90859957338809,-32.579906374522565 L69.37285848601589,6.238430168621029 " />
			<path d="M-50.90859957338809,-32.579906374522565 L-50.90859957338809,-13.982688308978187 " />
			<path d="M69.37285848601589,24.83564823416542 L-50.90859957338809,-13.982688308978176 " />
			<path d="M69.37285848601589,24.83564823416542 L42.99534575369045,35.89887414896134 " />
			<path d="M27.960163496264954,21.258572572887132 L27.960163496264954,31.04658208106839 " />
			<path d="M42.99534575369045,35.89887414896134 L27.960163496264954,31.04658208106839 " />
			<path d="M27.960163496264954,31.046582081068394 L41.148919862427675,25.514969123670433 " />
			<path d="M-49.062173682125305,-3.598783283687272 L41.148919862427675,25.514969123670426 " />
			<path d="M-62.250930048288026,1.9328296737106907 L-49.062173682125305,-3.598783283687271 " />
			<path d="M-77.28611230571353,-21.51668045972664 L-77.28611230571353,-2.9194623941822613 " />
			<path d="M-77.28611230571353,-2.9194623941822613 L-62.25093004828803,1.932829673710688 " />
			<path d="M-50.90859957338809,-32.579906374522565 L-77.28611230571352,-21.516680459726643 " />
			<path d="M-50.90859957338809,-13.982688308978187 L-77.28611230571352,-2.919462394182263 " />

        </g>
        </g>
    </svg>
    