<?xml version="1.0" encoding="UTF-8" standalone="no"?>
    <svg
    xmlns:svg="http://www.w3.org/2000/svg"
    xmlns="http://www.w3.org/2000/svg"
    width="500.0"
    height="220.0"
    >
        <g transform="scale(2.0185375161871812, -2.0185375161871812)   translate(91.27494194066477,-43.28442710012919)" stroke-width="0.49540818140893494"  fill="none">
        <!-- hidden lines -->
        <g  stroke="rgb(160,160,160)" fill="none" stroke-dasharray="0.49540818140893494,0.49540818140893494" >
    			<path d="M4.85247056900063,0.9928291147360122 L4.691762532119878,0.7944661327933096 L4.535871336416594,0.5949584292960042 L4.384824276253386,0.3943409352456646 L4.238647797852636,0.19264877595261254 L4.097367494666148,-0.010082735114009367 L3.961008102894109,-0.2138181025091317 L3.8295934971541037,-0.41852165502653094 L3.7031466863010074,-0.624157551944343 L3.5816898093984797,-0.8306897893002576 L3.4652441318427023,-1.0380822061953285 L3.3538300416391174,-1.2462984911252342 L3.2474670458327672,-1.4553021883379031 L3.1461737670928898,-1.665056704216429 L3.0499679404523405,-1.875525313686083 L2.958866410202454,-2.086671166644347 L2.872885126943835,-2.2984572944128727 L2.792039144793616,-2.510846616210167 L2.716342618749735,-2.7238019456439146 L2.6458088022125423,-2.937285997221813 L2.5804500446643424,-3.151261392879725 L2.5202777895071904,-3.365690668526042 L2.4653025720592794,-3.580536280601137 L2.4155340177103675,-3.7957606126507146 L2.3709808402365127,-4.011325981911913 L2.331650840274399,-4.227194645911053 L2.2975509039555746,-4.443328809071797 L2.2686870017007656,-4.659690629332614 L2.245064187174556,-4.876242224772412 L2.2266865964005476,-5.092945680243128 L2.2135574470372106,-5.30976305400813 L2.2056790378145124,-5.526656384385301 L2.203052748131448,-5.743587696393519 " />
			<path d="M2.203052748131448,-5.7435876963935915 L2.207033275105431,-6.010652289100068 L2.2189737997210486,-6.2776460112855395 L2.2388711533396126,-6.544498011235811 L2.266720055830934,-6.811137474845278 L2.3025131169745165,-7.077493644408799 L2.346240838420666,-7.343495837398538 L2.3978916162110586,-7.609073465220858 L2.4574517438580905,-7.874156051948352 L2.524905415982115,-8.1386732530219 L2.600234732505701,-8.402554873917904 L2.6834197034037643,-8.665730888775709 L2.774438254008267,-8.928131458980232 L2.8732662308661574,-9.18968695169497 L2.97987740814893,-9.45032795834033 L3.0942434946121153,-9.709985313012467 L3.216334141102873,-9.968590110837702 " />
			<path d="M3.216334141102905,-9.96859011083777 L3.319682334863323,-10.183867666586393 L3.4198185519208977,-10.39959810721328 L3.5167361489168982,-10.61576712046709 L3.6104286960262044,-10.832360365000175 L3.7008899773838664,-11.049363471319987 L3.7881139914974895,-11.266762042742442 L3.8720949516454297,-11.484541656347034 L3.952827286260643,-11.702687863933672 L4.03030563930038,-11.92118619298127 L4.10452487060148,-12.140022147607878 L4.17548005622141,-12.359181209532343 L4.2431664887649205,-12.578648839037555 L4.30757967769636,-12.798410475935032 L4.368715349637569,-13.018451540530894 L4.426569448651435,-13.23875743459314 L4.481138136510943,-13.459313542320139 L4.532417792953801,-13.680105231310254 L4.580405015922658,-13.901117853532629 L4.625096621790789,-14.12233674629901 L4.666489645573314,-14.343747233236495 L4.704581341123891,-14.565334625261183 L4.739369181316896,-14.787084221552728 L4.77085085821512,-15.008981310529636 L4.799024283222863,-15.231011170825262 L4.823887587224476,-15.453159072264505 L4.845439120708406,-15.67541027684104 L4.863677453876591,-15.897750039695051 L4.87860137673934,-16.120163610091495 L4.890209899195625,-16.342636232398696 L4.898502251098705,-16.56515314706728 L4.9034778823073,-16.787699591609393 L4.905136462722012,-17.010260801577953 " />
			<path d="M-37.363748197500314,-32.85130710849189 L-86.32086012657541,-17.36324858519921 " />
			<path d="M-16.108144930249452,-12.785258387133892 L-15.986054283758659,-13.043863184959198 L-15.871688197295473,-13.303520539631336 L-15.7650770200127,-13.564161546276697 L-15.66624904315481,-13.825717038991433 L-15.575230492550308,-14.088117609195958 L-15.49204552165224,-14.351293624053763 L-15.416716205128655,-14.615175244949766 L-15.34926253300463,-14.879692446023313 L-15.289702405357598,-15.144775032750807 L-15.238051627567206,-15.410352660573128 L-15.194323906121056,-15.676354853562867 L-15.158530844977477,-15.942711023126387 L-15.130681942486152,-16.209350486735854 L-15.110784588867592,-16.476202486686127 L-15.09884406425197,-16.7431962088716 L-15.094863537277988,-17.010260801578003 " />
			<path d="M-15.094863537277988,-17.010260801578074 L-15.096435022976909,-17.178067759058205 L-15.10114931543584,-17.345857136122746 L-15.10900592075858,-17.51361135419793 L-15.12000401584227,-17.681312838393456 L-15.134142448463624,-17.848944019343712 L-15.15141973739967,-18.016487335048446 L-15.171834072582907,-18.183925232712703 L-15.195383315290954,-18.3512401705857 L-15.222064998370595,-18.518414619798634 L-15.251876326496276,-18.685431066201097 L-15.284814176462937,-18.85227201219595 L-15.320875097513238,-19.01891997857249 L-15.360055311699064,-19.185357506337652 L-15.402350714277329,-19.35156715854513 L-15.447756874140012,-19.517531522122155 L-15.496269034278399,-19.68323320969381 L-15.547882112281417,-19.8486548614046 L-15.602590700868145,-20.013779146737193 L-15.660389068454268,-20.17858876632806 L-15.721271159752593,-20.34306645377985 L-15.785230596407391,-20.507194977470334 L-15.852260677662667,-20.670957142357647 L-15.922354381064142,-20.83433579178179 L-15.995504363194993,-20.997313809262014 L-16.07170296044516,-21.159874120290084 L-16.150942189814252,-21.321999694119057 L-16.233213749747893,-21.483673545547553 L-16.31850902100742,-21.644878736699226 L-16.406819067572904,-21.805598378797235 L-16.498134637579327,-21.96581563393363 L-16.592446164285864,-22.125513716833407 L-16.68974376707815,-22.284675896613006 L-16.790017252503432,-22.443285498533136 L-16.893256115338488,-22.60132590574573 L-16.99944953969022,-22.75878056103479 L-17.10858640012878,-22.91563296855105 L-17.220655262853136,-23.071866695540173 L-17.335644386888955,-23.227465374064302 L-17.45354172531864,-23.382412702716906 L-17.574334926543447,-23.53669244833058 L-17.698011335577483,-23.690288447677734 L-17.82455799537354,-23.843184609163934 L-17.95396164818054,-23.99536491451377 L-18.08620873693251,-24.146813420449014 L-18.221285406668862,-24.297514260358913 L-18.35917750598595,-24.447451645962488 L-18.499870588519638,-24.596609868962588 L-18.643349914458778,-24.744973302691598 L-18.789600452089452,-24.89252640374856 L-18.93860687936977,-25.03925371362759 L-19.090353585535098,-25.185139860337426 L-19.24482467273354,-25.330169560011846 L-19.402003957691452,-25.474327618510927 L-19.561874973408937,-25.617598933012832 L-19.724420970885006,-25.75996849359612 L-19.889624920872297,-25.90142138481222 L-20.05746951566115,-26.0419427872481 L-20.22793717089289,-26.181517979078805 L-20.401010027402013,-26.320132337609806 L-20.57666995308727,-26.45777134080896 L-20.754898544811248,-26.59442056882793 L-20.935677130328422,-26.730065705512878 L-21.118986770241328,-26.8646925399043 L-21.304808259984803,-26.998286967725882 L-21.49312213183793,-27.13083499286209 L-21.68390865696359,-27.262322728824536 L-21.87714784747542,-27.392736400206772 L-22.072819458531793,-27.522062344127498 L-22.2709029904568,-27.650287011661966 L-22.471377690887945,-27.77739696926141 L-22.67422255695024,-27.90337890016046 L-22.879416337456618,-28.028219605772286 L-23.0869375351343,-28.1519060070713 L-23.296764408876996,-28.274425145963455 L-23.50887497602262,-28.39576418664378 L-23.723247014656327,-28.51591041694114 L-23.939858065938562,-28.634851249650012 L-24.158685436458043,-28.752574223849212 L-24.37970620060922,-28.869067006207395 L-24.602897202994097,-28.98431739227512 L-24.828235060848108,-29.09831330776349 L-25.05569616648986,-29.211042809809115 L-25.285256689794377,-29.322494088225305 L-25.51689258068968,-29.432655466739376 L-25.750579571676464,-29.541515404215936 L-25.98629318037043,-29.649062495865994 L-26.224008712067242,-29.75528547444178 L-26.463701262329668,-29.860173211417184 L-26.705345719596714,-29.963714718153625 L-26.948916767814456,-30.0658991470513 L-27.441736366356388,-30.26615409292883 L-27.94195354097757,-30.460854131838783 L-28.44935867473197,-30.649917674364367 L-28.963739138545815,-30.833265493073178 L-29.48487938032013,-31.01082075571761 L-30.012561015258328,-31.182509057431545 L-30.54656291738076,-31.348258451909864 L-31.086661312187886,-31.507999481557658 L-31.632629870433476,-31.661665206596588 L-32.18423980296833,-31.809191233116117 L-32.74125995661474,-31.950515740057902 L-33.3034569110317,-32.08557950512202 L-33.870595076530094,-32.21432592958417 L-34.44243679279706,-32.33670106201351 L-35.01874242848793,-32.452653620881065 L-35.59927048164424,-32.56213501604939 L-36.183777680895545,-32.6650993691343 L-36.77201908740277,-32.76150353273037 L-37.363748197500044,-32.85130710849184 " />
			<path d="M80.51425042651235,1.298082994346724 L80.36618820497041,1.5947481774792251 L80.21202638891901,1.8904840009929993 L80.05178450209883,2.185253011582975 L79.88548283825781,2.479017878385587 L79.71314245858119,2.771741397706526 L79.53478518902408,3.063386497732374 L79.35043361754742,3.35391624322555 L79.1601110912573,3.6432938402019452 L78.9638417134482,3.931482640590687 L78.7616503405504,4.218446146875415 L78.55356257898211,4.504148016716474 L78.33960478190649,4.788552067553489 L78.11980404589423,5.071622281187677 L77.8941882074919,5.35332280834335 L77.66278583969657,5.633617973208034 L77.42562624833727,5.912472277950611 L77.18273946836347,6.189850407216918 L76.93415626004143,6.46571723260225 L76.6799081050585,6.740037817100166 L76.4200272025362,7.012777419527083 L76.15454646495229,7.283901498922038 L75.88349951397271,7.553375718921126 L75.60692067619344,7.821165952105995 L75.32484497879338,8.087238284325904 L75.03730814509821,8.351559018992761 L74.74434659005635,8.614094681348611 L74.44599741562712,8.874812022705019 L74.14229840608199,9.133678024653848 L73.8332880232195,9.390659903248842 L73.51900540149416,9.645725113157543 L73.19949034306036,9.89884135178297 L72.87478331273167,10.149976563354576 L72.54492543285613,10.399098942987909 L72.2099584781084,10.64617694071255 L71.86992487019913,10.891179265467738 L71.52486767250258,11.13407488906519 L71.17483058460286,11.374833050118674 L70.8198579367596,11.613423257939761 L70.4599946842938,11.849815296399285 L70.09528640189443,12.083979227754067 L69.7257792778467,12.315885396438368 L69.35152010818251,12.545504432819591 L68.97255629075413,12.772807256917776 L68.58893581923132,12.997765082088439 L68.20070727702341,13.22034941866822 L67.80791983112624,13.440532077582962 L67.41062322589572,13.658285173917687 L67.00886777674772,13.873581130448052 L66.60270436378605,14.086392681132903 L66.19218442535876,14.296692874567306 L65.77735995154367,14.504455077395836 L65.35828347756427,14.709652977685518 L64.93500807713625,14.912260588258118 L64.50758735574613,15.112252249981236 L64.07607544386241,15.309602635017932 L63.640526990080176,15.504286750034314 L63.20099715420022,15.69627993936486 L62.75754160024334,15.885557888134876 L62.3102164894008,16.072096625339846 L61.859078472921816,16.25587252688125 L61.404184684939004,16.43686231855842 L60.94559273523265,16.615043079016043 L60.48336070193476,16.790392242647105 L60.01754712417375,16.962887602450635 L59.54821099466086,17.13250731284412 L59.07541175221899,17.29922989243013 L58.59920927425511,17.46303422671681 L58.11966386917713,17.62389957079194 L57.63683626875621,17.781805551950114 L57.150787620435366,17.936732172272873 L56.66157947958548,18.08865981116132 L56.169273801709686,18.237569227820945 L55.67393293459706,18.38344156369838 L55.17561961042655,18.526258344869742 L54.67439693782238,18.66600148438021 L54.170328393861624,18.802653284534692 L53.663477816035225,18.936196439139096 L53.1539093941633,19.066614035692098 L52.641687662265866,19.193889557526987 L52.12687749039001,19.318006885903422 L51.609544076394364,19.4389503020488 L51.089752937692225,19.55670448914891 L50.56756990295414,19.671254534287762 L50.043061103771024,19.782585930336204 L49.516292966278996,19.89068457778918 L48.98733220274687,19.99553678655134 L48.45624580312737,20.097129277670835 L47.92310102657335,20.195449185021 L47.38796539291963,20.290484056929806 L46.850906674132084,20.38222185775676 L46.311992885724706,20.470650969417193 L45.77129227814574,20.555760192853576 L45.22887332813421,20.63753874945388 L44.684804730047716,20.71597628241657 L44.1391553871626,20.791062858062272 L43.59199440294787,20.8627889670918 L43.04339107231346,20.931145525790477 L42.49341487283452,20.996123877178512 L41.942135455952474,21.057715792107373 L41.389622638153966,21.115913470301965 L40.83594639212905,21.170709541348483 L40.28117683790957,21.222097065627842 L39.725384233988734,21.270069535194533 L39.16863896842337,21.31462087460083 L38.61101154991965,21.3557454416662 L38.05257259890349,21.393438028191863 L37.49339283857691,21.427693860620362 L36.93354308596136,21.45850860064015 L36.373094242929085,21.485878345734964 L35.812117287223806,21.50979962967809 L35.25068326347182,21.530269422971323 L34.688863274184534,21.547285133228648 L34.12672847075377,21.560844605504556 L33.5643500444408,21.57094612256693 L33.0017992173604,21.577588405114554 L32.439147233460965,21.58077061193911 L31.876465349501803,21.58049234003171 L31.31382482602892,21.57675362463396 L30.751296918350263,21.569554939233466 L30.18895286751158,21.558897195503892 L29.626863891274187,21.544781743189482 L29.065101175095602,21.527210369934142 L28.50373586311431,21.506185301055027 L27.94283904913979,21.481709199260738 L27.382481767648795,21.453785164314084 L26.822734984789285,21.422416732639526 L26.263669589392986,21.387607876875293 L25.70535638399763,21.3493630053703 L25.14786607588026,21.307686961625823 L24.591269268102543,21.262585023682117 L24.03563645056926,21.21406290344997 L23.48103799110119,21.162126745987326 L22.927544126523358,21.106783128721045 L22.37522495376996,21.048039060613913 L21.82415042100702,20.985901981276992 L21.274390318773737,20.920379760027433 L20.72601427114399,20.85148069489188 L20.179091726908812,20.779213511555543 L19.63369195078106,20.70358736225719 L19.08988401462343,20.62461182463 L18.54773678870093,20.542296900488683 L18.007318932958782,20.456653014562733 L17.468698888327047,20.367691013176238 L16.931944868052984,20.27542216287425 L16.39712484906217,20.179858148995926 L15.86430656334963,20.081011074194652 L15.333557489401969,19.9788934569053 L14.804944843651555,19.873518229758858 L14.278535571963943,19.76489873794456 L13.754396341159602,19.653048737519804 L13.232593530570835,19.537982393668027 L12.71319322363528,19.41971427890475 L12.196261199526798,19.298259371232064 L11.681862924824891,19.173633052241737 L11.170063545223705,19.045851105167234 L10.660927877281708,18.91492971288484 L10.154520400213062,18.780885455864208 L9.650905247721607,18.643735310068504 L9.150146199878769,18.50349664480454 L8.652306675046137,18.360187220523013 L8.157449721843843,18.213825186569252 L7.6656380111658144,18.064429078884697 L7.17693382824292,17.912017817659432 L6.691399064754826,17.756610704936076 L6.20909521099173,17.59822742216521 L5.730083348067041,17.43688802771291 L5.254424140181765,17.27261295432044 L4.782177826941634,17.10542300651652 L4.3134042157282195,16.9353393579826 L3.8481626741246266,16.762383548871316 L3.3865121223968053,16.586577483078525 L2.928511026031792,16.407943425469327 L2.4742173883333045,16.226503999058338 L2.0236887430758834,16.042282182144586 L1.5769821472186578,15.855301305401465 L1.1341541736793772,15.665585048922036 L0.6952609041696967,15.473157439220042 L0.2603579220927834,15.278042846187105 L-0.17049969449597313,15.08026598000643 L-0.5972573798643168,14.879851888023374 L-1.019861087513668,14.676825951573328 L-1.4382572970236467,14.471213882767337 L-1.8523930208302417,14.263041721235819 L-2.262215810936432,14.052335830830714 L-2.667673765554312,13.839122896286742 L-3.06871553567823,13.623429919841875 L-3.4652903315879087,13.405284217817648 L-3.8573479292805786,13.184713417159735 L-4.244838676831627,12.961745451939116 L-4.627713500682766,12.7364085598144 L-5.005923911856868,12.508731278455663 L-5.3794220120988285,12.278742441930355 L-5.74816049994169,12.046471177051558 L-6.112092676697053,11.811946899689275 L-6.471172452369174,11.575199311045083 L-6.825354351492059,11.336258393890635 L-7.174593518888699,11.095154408770465 L-7.5188457253516745,10.85191789016972 L-7.858067373244545,10.606579642647112 L-8.192215502023316,10.359170736933653 L-8.521247793677077,10.10972250599779 L-8.845122578087349,9.858266541077214 L-9.163798838305446,9.604834687677986 L-9.477236215746963,9.349459041541532 L-9.785395015303003,9.09217194457987 L-10.088236210367363,8.833005980779662 L-10.385721447778984,8.571993972075674 L-10.677813052679205,8.309168974194046 L-10.964474033283082,8.044564272465939 L-11.24566808556417,7.778213377612165 L-11.521359597852232,7.510150021499234 L-11.791513655343252,7.240408152867406 L-12.056096044521247,6.969021933031232 L-12.31507325749115,6.696025731553263 L-12.568412496222443,6.421454121891319 L-12.816081676702865,6.145341877019915 L-13.0580494330016,5.867723965026515 L-13.294285121241678,5.588635544682997 L-13.524758823480823,5.308111960992941 L-13.749441351500373,5.026188740715458 L-13.968304250501824,4.742901587865886 L-14.181319802710512,4.458286379194041 L-14.388461030885814,4.172379159640686 L-14.589701701737788,3.885216137772616 L-14.785016329249373,3.596833681197012 L-14.974380177904145,3.307268311955715 L-15.157769265818843,3.0165567018999226 L-15.33516036778056,2.7247356680458967 L-15.506531018188184,2.43184216791224 L-15.671859513897395,2.1379132948395085 L-15.831124916969365,1.8429862732925146 L-15.984307057322368,1.5470984541460133 L-16.13138653528624,1.2502873099544862 L-16.272344724059195,0.9525904302064303 L-16.4071637720669,0.6540455165638068 L-16.53582660522318,0.35469037808741266 L-16.65831692909238,0.054562926448534554 L-16.774619230953014,-0.2462988288723862 L-16.884718781762317,-0.5478567853993823 L-16.9886016380216,-0.8500727524864509 L-17.086254643542148,-1.152908456154221 L-17.17766543111135,-1.4563255439371128 L-17.26282242405894,-1.760285589740445 L-17.341714837723117,-2.0647500987069054 L-17.4143326808164,-2.369680512091752 L-17.480666756690916,-2.6750382121459904 L-17.540708664503114,-2.980784527007136 L-17.594450800277748,-3.2868807355968253 L-17.64188635787078,-3.5932880725245533 L-17.683009329831414,-3.899967732997136 L-17.71781450816288,-4.206880877733154 L-17.746297484981994,-4.5139886378816625 L-17.768454653077406,-4.821252119944752 L-17.784283206366425,-5.128632410703231 L-17.793781140250395,-5.436090582144697 L-17.796947251868552,-5.743587696393469 " />
			<path d="M-17.744281358147163,-6.997407558959022 L-17.727760422160536,-7.180552844734748 L-17.708990925265432,-7.363633418893455 L-17.687973712718623,-7.5466410366701275 L-17.664709730999412,-7.7295674565851975 L-17.639200027767103,-7.912404440815764 L-17.611445751813733,-8.095143755566525 L-17.58144815301241,-8.27777717144055 L-17.549208582260967,-8.46029646380994 L-17.514728491421188,-8.64269341318617 L-17.478009433253355,-8.824959805590252 L-17.439053061346378,-9.007087432922656 L-17.397861130043317,-9.189068093332894 L-17.354435494362342,-9.370893591588953 L-17.30877810991325,-9.552555739446316 L-17.260891032809354,-9.734046356016686 L-17.2107764195749,-9.915357268136452 L-17.158436527047975,-10.096480310734723 L-17.103873712278833,-10.277407327201036 L-17.047090432423786,-10.458130169752685 L-16.988089244634516,-10.638640699801602 L-16.92687280594295,-10.818930788320944 L-16.863443873141577,-10.998992316211119 L-16.79780530265932,-11.178817174665394 L-16.7299600504329,-11.358397265535139 L-16.659911171773686,-11.537724501694454 L-16.587661821230157,-11.716790807404383 L-16.513215252445796,-11.895588118676601 L-16.43657481801261,-12.074108383636517 L-16.357743969320097,-12.252343562885953 L-16.276726256399854,-12.430285629865143 L-16.193525327765734,-12.607926571214165 L-16.10814493024951,-12.785258387133776 " />
			<path d="M-37.363748197500314,-32.85130710849188 L-37.363748197500314,-16.10203705474322 " />
			<path d="M2.203052748131441,11.005682357355063 L2.203052748131441,-5.743587696393594 " />
			<path d="M-15.094863537277988,-17.010260801578074 L-15.094863537277988,-0.26099074782941756 " />

        </g>

        <!-- solid lines -->
        <g  stroke="rgb(0,0,0)" fill="none">
    			<path d="M61.189771355159984,15.230684771799254 L61.100934022234824,15.408683881678755 L61.00843693260399,15.58612537578702 L60.91229180051187,15.762986782141004 L60.81251080220727,15.939245702222571 L60.70910657440129,16.114879813815136 L60.602092212667024,16.289866873830643 L60.49148126978103,16.46418472112655 L60.37728775400696,16.637811279312388 L60.25952612732151,16.810724559545633 L60.13821130358282,16.98290266331647 L60.01335864664185,17.154323785221102 L59.88498396839647,17.324966215723315 L59.75310352678912,17.494808343903827 L59.617734023747715,17.66382866019723 L59.47889260307052,17.83200575911604 L59.336596848254935,17.999318341961587 L59.19086478027066,18.16574521952137 L59.04171485527744,18.33126531475257 L58.88916596228769,18.495857665451318 L58.7332374207743,18.659501426907468 L58.57394897822395,18.822175874544442 L58.4113208076362,18.983860406543894 L58.24537350496864,19.144534546454814 L58.076128086528605,19.304177945786762 L57.903605986311504,19.462770386586875 L57.727829053286385,19.620291784000386 L57.54881954862884,19.776722188814233 L57.366600142901774,19.93204178998353 L57.18119391318427,20.086230917140526 L56.99262434014907,20.239270043085746 L56.80091530508879,20.391139786261 L56.60609108689158,20.541820913203964 L56.408176358966266,20.691294340983966 L56.20719618611761,20.83954113961875 L56.00317602137205,20.986542534471862 L55.79614170275412,21.132279908630334 L55.586119450014294,21.276734805262425 L55.37313586130834,21.41988892995508 L55.15721790982886,21.561724153030788 L54.938392940389235,21.702222511843658 L54.716688665960596,21.84136621305424 L54.49213316416209,21.979137634882974 L54.26475487370506,22.115519329341886 L54.03458259079137,22.250494024444283 L53.80164546546662,22.384044626392154 L53.56597299792833,22.516154221740997 L53.32759503479001,22.646806079541832 L53.086541765301206,22.775983653460052 L52.84284371752422,22.903670583870962 L52.59653175446783,23.029850699931604 L52.347637070178784,23.154508021628722 L52.09619118579114,23.27762676180253 L51.84222594553433,23.399191328146088 L51.58577351270026,23.51918632517996 L51.32686636557003,23.637596556201977 L51.065537293300686,23.75440702521181 L50.80181939177271,23.869602938810136 L50.53574605939858,23.983169708072147 L50.26735099289306,24.095092950395127 L49.99666818300567,24.20535849131997 L49.72373191021598,24.31395236632627 L49.44857674039217,24.420860822600844 L49.17123752041343,24.526070320779482 L48.89174937375683,24.6295675366616 L48.6101476960491,24.731339362897693 L48.32646815058398,24.831372910649296 L48.04074666380564,24.929655511221306 L47.753019420758854,25.026174717666386 L47.46332286050631,25.12091830636129 L47.1716936715138,25.213874278554943 L46.878168787003865,25.305030861888014 L46.582785380278395,25.394376511883785 L46.28558086001081,25.481899913410246 L45.986592865508506,25.567589982113063 L45.68585926194601,25.651435865819344 L45.383418135569556,25.733426945912036 L45.07930778887371,25.813552838674674 L44.773566735750556,25.891803396606477 L44.4662336966121,25.968168709707413 L44.157347593486584,26.042639106733272 L43.84694754508919,26.115205156420497 L43.53507286186792,26.185857668680566 L43.22176304102506,26.254587695763878 L42.9070577615152,26.321386533392943 L42.59099687901998,26.386245721864725 L42.2736204209007,26.44915704712202 L41.95496858112901,26.51011254179372 L41.63508171519659,26.56910448620382 L41.31400033500436,26.6261254093491 L40.99176510373183,26.68116808984528 L40.6684168306874,26.734225556841537 L40.34399646614002,26.785291090903364 L40.01854509613311,26.83435822486355 L39.6921039372812,26.88142074464116 L39.36471433155015,26.926472690028582 L39.0364177410213,26.9695083554463 L38.707255742640655,27.010522290665506 L38.3772700229533,27.049509301498325 L38.046502372824065,27.086464450455644 L37.714994682144955,27.121383057372398 L37.38278893453001,27.154260700000307 L37.049927201998315,27.185093214567924 L36.71645163964582,27.21387669630794 L36.382404480306604,27.240607499951718 L36.04782802920437,27.265282240190942 L35.71276465859467,27.287897792106335 L35.377256802398726,27.308451291563436 L35.04134695082939,27.32694013557531 L34.70507764501003,27.3433619826322 L34.368491471586864,27.357714752998074 L34.03163105733567,27.369996628974015 L33.6945390637633,27.380206055128408 L33.35725818170484,27.388341738493953 L33.01983112591706,27.39440264873138 L32.682300629668816,27.398388018259954 L32.34470943932916,27.400297342354683 L32.00710030895366,27.400130379210246 L31.669515994869933,27.397887149971595 L31.331999250262736,27.3935679387313 L30.99459281975953,27.387173292493557 L30.657339434017093,27.37870402110491 L30.320281804309943,27.368161197151704 L29.983462617121166,27.355546155824236 L29.646924528736452,27.340860494747663 L29.310710159841854,27.32410607377967 L28.97486209012615,27.305285014774935 L28.63942285288837,27.284399701316396 L28.304434929651155,27.2614527784134 L27.969940744780736,27.236447152166715 L27.635982660114106,27.20938598940049 L27.302602969594137,27.180272717261204 L26.969843893913293,27.149111022783615 L26.637747575166593,27.115904852423846 L26.306356071514557,27.08065841155957 L25.975711351856788,27.043376163957415 L25.64585529051682,27.00406283120768 L25.31682966193897,26.96272339212635 L24.988676135397867,26.919363082124548 L24.661436269721214,26.873987392545533 L24.335151508026637,26.82660206996922 L24.00986317247314,26.77721311548443 L23.68561245902785,26.72582678392886 L23.362440432248807,26.672449583096963 L23.04038802008437,26.617088272915773 L22.71949600868988,26.559749864588774 L22.399805037262357,26.50044161970801 L22.08135559289376,26.4391710493344 L21.764188005443515,26.375945913046536 L21.448342442430945,26.310774217957956 L21.13385890394834,26.243664217703103 L20.82077721759508,26.17462441139204 L20.509137033433746,26.10366354253407 L20.198977818968658,26.030790597930455 L19.890338854147515,25.95601480653626 L19.5832592263868,25.87934563829156 L19.277777825621605,25.800792802922125 L18.973933339380416,25.720366248709745 L18.67176424788554,25.63807616123232 L18.371308819179838,25.553932962073944 L18.072605104280264,25.467947307505028 L17.775690932358884,25.38013008713277 L17.480603905952066,25.290492422522036 L17.18738139619833,25.19904566578688 L16.896060538105473,25.105801398152863 L16.606678225847617,25.010771428490344 L16.319271108092806,24.91396779181897 L16.033875583361638,24.815402747783484 L15.750527795417561,24.71508877910113 L15.46926362868951,24.61303858998078 L15.190118703727354,24.509265104514007 L14.913128372690661,24.403781465038335 L14.638327714871654,24.296601030472814 L14.36575153225256,24.187737374626224 L14.09543434509811,24.077204284477972 L13.827410387583772,23.9650157584321 L13.561713603460205,23.85118600454444 L13.298377641754396,23.735729438723247 L13.03743585250825,23.61866068290348 L12.778921282554997,23.499994563195077 L12.52286667133399,23.379746108005243 L12.269304446744382,23.257930546135213 L12.018266721038394,23.134563304851625 L11.769785286754434,23.00966000793271 L11.523891612690718,22.88323647368965 L11.280616839919993,22.755308712963263 L11.03999177784564,22.625892927096345 L10.802046900299835,22.495005505881807 L10.566812341684233,22.36266302548706 L10.334317893153603,22.22888224635469 L10.104592998842918,22.09368011107986 L9.87766675213846,21.95707374226462 L9.65356789199328,21.81908044034943 L9.432324799287564,21.679717681422154 L9.213965493234348,21.539003115004782 L8.998517627831074,21.39695456181827 L8.786008488357343,21.253590011525603 L8.576464987919358,21.1089276204535 L8.369913664041572,20.96298570929305 L8.166380675305852,20.815782760779484 L7.965891798038591,20.667337417351412 L7.768472423046333,20.517668478789894 L7.57414755240017,20.366794899837547 L7.382941796269314,20.214735787798013 L7.194879369804404,20.06151040011614 L7.009984090070777,19.907138141939143 L6.82827937303216,19.751638563659014 L6.649788230585187,19.59503135843662 L6.474533267645057,19.437336359707647 L6.302536679282731,19.278573538670784 L6.13382024791408,19.118763001758516 L5.968405340541242,18.95792498809076 L5.806312906046628,18.796079866911665 L5.647563472539829,18.633248135009957 L5.492177144757889,18.469450414123177 L5.340173601519112,18.30470744832601 L5.19157209323086,18.139040101403168 L5.046391439451618,17.972469354207128 L4.904650026507571,17.805016302001018 L4.766365805164085,17.636702151786984 L4.631556288352353,17.467548219620493 L4.500238548951483,17.29757592791075 L4.372429217626273,17.126806802707645 L4.248144480721091,16.95526247097563 L4.127400078209909,16.782964657854787 L4.010211301702952,16.60993518390943 L3.89659299251009,16.43619596236465 L3.7865595397612744,16.261768996331174 L3.680124878584241,16.086676376018758 L3.5773024883396687,15.910940275938563 L3.4781053909141413,15.734582952094925 L3.3825461490709614,15.557626739166729 L3.2906368648591595,15.380094047678828 L3.2023891780808356,15.202007361163911 L3.11781426481706,15.023389233315077 L3.0369228360124367,14.844262285129503 L2.9597251361186743,14.664649202043666 L2.8862309417971517,14.48457273106034 L2.81644956068077,14.304055677867787 L2.7503898301951892,14.123120903951591 L2.688060116439619,13.941791323699348 L2.6294683131272905,13.760089901498686 L2.574621840585767,13.578039648828952 L2.5235276448172144,13.395663621346952 L2.476192196618708,13.212984915967077 L2.4326214907627417,13.030026667936168 L2.3928210452380334,12.846812047903624 L2.3567959005507113,12.663364258986938 L2.324550619085933,12.479706533833124 L2.2960892845301117,12.295862131676486 L2.2714155013537294,12.111854335392938 L2.2505323943548525,11.927706448551326 L2.233442608263381,11.743441792462221 L2.2201483074061343,11.559083703224367 L2.210651175432723,11.37465552876928 L2.204952415102344,11.1901806259044 L2.203052748131448,11.005682357355138 " />
			<path d="M2.203052748131448,11.005682357355065 L2.207033275105431,10.73861776464859 L2.2189737997210486,10.471624042463116 L2.2388711533396126,10.204772042512845 L2.266720055830934,9.938132578903378 L2.3025131169745165,9.671776409339857 L2.346240838420666,9.40577421635012 L2.3978916162110586,9.140196588527798 L2.4574517438580905,8.875114001800304 L2.524905415982115,8.610596800726757 L2.600234732505701,8.346715179830753 L2.6834197034037643,8.083539164972947 L2.774438254008267,7.821138594768424 L2.8732662308661574,7.559583102053687 L2.97987740814893,7.298942095408327 L3.0942434946121153,7.039284740736189 L3.216334141102873,6.780679942910953 " />
			<path d="M61.18977135515998,15.230684771799254 L61.18977135515998,-1.5185852819494023 " />
			<path d="M61.189771355159984,-1.5185852819494023 L61.11422058197486,-1.3667131755862272 L61.03600554872415,-1.2152444127360127 L60.95513346318274,-1.0641929517479465 L60.87161177798171,-0.9135727125154629 L60.785448189921546,-0.7633975751934834 L60.69665063926284,-0.6136813789193116 L60.605227308994586,-0.46443792053730704 L60.51118662408007,-0.3156809533274645 L60.414537250680524,-0.1674241857380041 L60.315288095356465,-0.019681280122092026 L60.21344830424693,0.12753414852119516 L60.10902726222666,0.2742085338015334 L60.00203459204123,0.42032835918753886 L59.892480153420266,0.5658801592523623 L59.7803740421689,0.7108505209145761 L59.665726589237316,0.8552260846742268 L59.5485483597688,0.9989935458439643 L59.42885015212609,1.142139655775111 L59.30664299689626,1.2846512230785647 L59.181938155874256,1.4265151148404351 L59.05474712102504,1.5677182578322837 L58.92508161342459,1.7082476397158581 L58.79295358217976,1.8480903102422364 L58.65837520332714,1.987233382445222 L58.52135887871098,2.125664033828924 L58.3819172348403,2.2633695075494007 L58.240063121725385,2.400337113590231 L58.09580961169351,2.5365542299319586 L57.9491699981844,2.6720083037152342 L57.80015779452509,2.8066868523976165 L57.648786732684684,2.94057746490388 L57.49507076200889,3.073667802769725 L57.339024047934586,3.2059456012788257 L57.180660970684315,3.3373986705930445 L57.01999612394125,3.468014896875781 L56.85704431350422,3.5977822434082984 L56.69182055592334,3.726688751698946 L56.524340077116236,3.8547225425851703 L56.35461831096485,3.981871817328228 L56.18267089789321,4.108124858700471 L56.008513683426074,4.23347003206513 L55.83216271672874,4.357895786448488 L55.47294473261485,4.603943259070631 L55.105149355018575,4.846176582291676 L54.72891215507522,5.084506467750119 L54.34437181561617,5.318845065910276 L53.951670080049766,5.54910599844405 L53.55095170011397,5.775204390070405 L53.142364382520206,5.997056899840786 L52.72605873450798,6.214581751859001 L52.30218820833028,6.427698765424198 L51.87090904469035,6.636329384585876 L51.43238021515069,6.840396707099947 L50.98676336353528,7.039825512775311 L50.534222746346956,7.234542291200354 L50.07492517222167,7.42447526883924 L49.60903994044199,7.609554435487986 L49.13673877853261,7.789711570080561 L48.65819577896079,7.964880265835477 L48.17358733496497,8.134995954733675 L47.68309207553543,8.29999593131859 L47.18689079957076,8.459819375809671 L46.68516640923457,8.614407376520862 L46.1781038425368,8.763702951575738 L45.66589000516476,8.907651069911262 L45.148713701588754,9.046198671562532 L44.62676556546787,9.179294687220928 L44.100237989381505,9.30689005705849 L43.56932505391249,9.42893774881163 L43.034222456108154,9.54539277511743 L42.49512743734537,9.656212210096196 L41.95223871062646,9.76135520517417 L41.40575638733267,9.860783004140474 L40.855881903462134,9.95445895743286 L40.30281794537956,10.042348535646907 L39.74676837510515,10.12441934226372 L39.18793815517001,10.20064112559144 L38.62653327306603,10.270985789916182 L38.06276066531787,10.335427405858223 L37.496828141205214,10.393942219929706 L36.92894430616322,10.446508663290306 L36.3593184848896,10.493107359697568 L35.78816064418653,10.533721132649134 L35.21568131556587,10.568335011714037 L34.64209151764622,10.596936238050901 L34.06760267837053,10.619514269110898 L33.49242655707265,10.6360607825238 L32.916775166421886,10.646569679165616 L32.34086069427409,10.651037085406784 L31.764895425458235,10.649461354539998 L31.189091663527172,10.641843067387189 L30.613661652501534,10.62818503208544 L30.038817498635595,10.608492283051888 L29.46477109223388,10.582772079128016 L28.891734029547383,10.551033900904002 L28.31991753477817,10.513289447224146 L27.74953238222113,10.469552630874595 L27.180788818571582,10.419839573455043 L26.61389648542732,10.364168599436233 L26.049064342013697,10.30256022940545 L25.486500588160308,10.235037172502555 L24.92641258755749,10.161624318049272 L24.36900679132109,10.08234872637488 L23.81448866189362,9.997239618841636 L23.26306259730975,9.906328367073641 L22.7149318558543,9.809648481393113 L22.17029848114021,9.707235598468323 L21.629363227634304,9.599127468177745 L21.092325486658254,9.485363939695269 L20.559383212891966,9.36598694680161 L20.03073285140654,9.241040492427318 L19.506569265253688,9.110570632433072 L18.987085663638275,8.974625458633293 L18.472473530700473,8.833255081069245 L17.962922554933822,8.68651160953826 L17.4586205592651,8.534449134385799 L16.95975343182191,8.37712370656749 L16.466505057413443,8.214593316988504 L15.97905724974968,8.0469178751278 L15.497589684423907,7.874159186955218 L15.022279832683488,7.696380932149497 L14.553302896013143,7.513648640625654 L14.090831741554776,7.326029668380327 L13.635036838387848,7.133593172664041 L13.186086194693697,6.93641008648952 L12.74414529582685,6.734553092485431 L12.30937704331637,6.528096596105209 L11.881941694819588,6.3171166982008895 L11.461996805050319,6.101691166971923 L11.049697167703467,5.881899409299466 L10.645194758397352,5.657822441476647 L10.248638678654721,5.429542859345526 L9.860175100943234,5.197144807851908 L9.479947214795615,4.960713950029113 L9.10809517402928,4.720337435422145 L8.744756045084973,4.476103867963975 L8.566320799147139,4.3525687678023814 L8.39006375650343,4.228103273315718 L8.216001159825286,4.102718854412384 L8.04414904955867,3.9764270656827083 L7.874523262445873,3.8492395453341466 L7.707139430066132,3.7211680141188097 L7.542012977395114,3.592224274253349 L7.3791591213834415,3.462420208331311 L7.218592869554424,3.3317677782281745 L7.0603290186210685,3.200279023998979 L6.904382153122455,3.0679660627688 L6.7507666440798,2.934841087616139 L6.59949664767209,2.80091636644927 L6.45058610393151,2.6662042408757074 L6.304048735458871,2.530717125064905 L6.159898046159011,2.3944675046042434 L6.018147319996338,2.2574679353484193 L5.878809619770717,2.119731042262414 L5.741897785913654,1.9812695182580509 L5.607424435305013,1.8420961230242785 L5.475401960110339,1.7022236818513568 L5.34584252663889,1.561665084448955 L5.218758074222421,1.4204332837582898 L5.094160314114994,1.2785412947585204 L4.972060728413716,1.1360021932673456 L4.852470569000683,0.9928291147360788 " />
			<path d="M4.905136462722012,-17.010260801578074 L4.902517319890478,-17.289939064044958 L4.894660165792253,-17.569588025819193 L4.881565823587685,-17.849178389277835 L4.863235665114878,-18.128680862937046 L4.8396716107459525,-18.4080661645208 L4.810876129185871,-18.687305024028692 L4.776852237213809,-18.966368186802452 L4.737603499367069,-19.245226416590782 L4.693134027567666,-19.52385049861234 L4.643448480691532,-19.802211242616444 L4.588552064080432,-20.0802794859412 L4.5284505289965935,-20.358026096568768 L4.463150172020214,-20.63542197617737 L4.392657834389773,-20.912438063189832 L4.316980901285305,-21.189045335818207 L4.236127301054665,-21.4652148151043 L4.150105504382964,-21.74091756795562 L4.058924523405082,-22.016124710176605 L3.962593910761541,-22.290807409494715 L3.861123758597671,-22.564936888581038 L3.7545246975063407,-22.838484428065172 L3.642807895414215,-23.11142136954403 L3.5259850564117556,-23.383719118584263 L3.4040684195270003,-23.655349147717974 L3.27707075744339,-23.92628299943142 L3.145005375161574,-24.196492289146374 L3.007886108605504,-24.465948708193874 L2.865727323172962,-24.734624026779997 L2.71854391223048,-25.002490096943344 L2.566351295553112,-25.269518855503996 L2.4091654177088913,-25.535682327003627 L2.247002746388411,-25.800952626636292 L2.0798802706796025,-26.065301963169844 L1.9078154992878424,-26.328702641857497 L1.7308264587016282,-26.59112706733926 L1.548931691304027,-26.852547746533038 L1.3621502534301015,-27.112937291514903 L1.170501713370399,-27.37226842238845 L0.9740061493209211,-27.630513970142786 L0.7726841472795769,-27.887646879498917 L0.5665567988895219,-28.143640211744174 L0.35564569922942724,-28.398467147554506 L0.13997294455109,-28.652100989804232 L-0.08043887003552186,-28.90451516636297 L-0.30556665292944274,-29.15568323287947 L-0.5353868184579298,-29.405578875552095 L-0.7698752893474037,-29.6541759138856 L-1.0090074992459748,-29.901448303433945 L-1.2527583952970929,-30.147370138528878 L-1.5011024407642921,-30.391915654993934 L-1.754013617706505,-30.63505923284366 L-2.011465429703904,-30.876775398967695 L-2.273430904633763,-31.117038829799494 L-2.5398825974962307,-31.355824353969336 L-2.8107925932896833,-31.59310695494148 L-3.086132509935169,-31.828861773634983 L-3.3658735012499292,-32.06306411102811 L-3.649986259969488,-32.29568943074595 L-3.9384410208180256,-32.526713361630954 L-4.231207563626789,-32.756111700296216 L-4.528255216500085,-32.98386041366116 L-4.829552859028709,-33.209935641469414 L-5.135068925550215,-33.43431369878845 L-5.444771408456013,-33.65697107849108 L-5.758627861544554,-33.8778844537181 L-6.076605403420658,-34.09703068032218 L-6.398670720940373,-34.31438679929257 L-6.724790072700991,-34.52993003916045 L-7.054929292576006,-34.743637818384556 L-7.389053793294579,-34.95548774771696 L-7.7271285700650765,-35.16545763254872 L-8.069118204242372,-35.37352547523509 L-8.414986867038508,-35.57966947740012 L-8.764698323276335,-35.78386804222038 L-9.11821593518571,-35.98609977668759 L-9.47550266624188,-36.18634349384985 L-9.83652108504561,-36.3845782150313 L-10.201233369244747,-36.58078317202997 L-10.569601309496711,-36.774937809293604 L-10.941586313471497,-36.96702178607315 L-11.317149409894853,-37.15701497855377 L-11.6962512526311,-37.344897481963145 L-12.078852124805294,-37.53064961265679 L-12.464911942964143,-37.71425191018024 L-12.854390261275448,-37.895685139307844 L-13.247246275765391,-38.07493029205794 L-13.64343882859341,-38.25196858968425 L-14.042926412364118,-38.42678148464326 L-14.445667174475858,-38.599350662537326 L-14.85161892150543,-38.76965804403345 L-15.260739123628511,-38.93768578675734 L-15.672984919075315,-39.103416287162666 L-16.08831311862103,-39.26683218237535 L-16.506680210110616,-39.42791635201259 L-16.92804236301731,-39.58665191997643 L-17.352355433034624,-39.7430222562219 L-17.779574966701144,-39.89701097849917 L-18.209656206057694,-40.048601954069916 L-18.64255409333647,-40.197779301397475 L-19.07822327568155,-40.34452739181063 L-19.5166181099003,-40.488830851141046 L-19.95769266724522,-40.63067456133386 L-20.40140073822571,-40.7700436620316 L-20.84769583744927,-40.906923552131055 L-21.29653120849147,-41.041299891312875 L-21.747859828794482,-41.173158601544046 L-22.201634414593528,-41.302485868552736 L-22.657807425870462,-41.42926814327559 L-23.116331071334393,-41.55349214327716 L-23.57715731342855,-41.67514485414148 L-24.040237873362997,-41.79421353083552 L-24.505524236172572,-41.91068569904446 L-24.97296765579961,-42.0245491564785 L-25.442519160200835,-42.13579197415132 L-25.91412955647798,-42.24440249762977 L-26.3877494360315,-42.3503693482549 L-26.863329179736894,-42.45368142433402 L-27.340818963143104,-42.5543279023038 L-27.820168761692393,-42.65229823786417 L-28.30132835596122,-42.74758216708307 L-28.784247336921492,-42.84016970747166 L-29.268875111221732,-42.930051159030256 L-29.755160906487482,-43.01721710526448 L-30.243053776640572,-43.10165841417179 L-30.732502607236448,-43.18336623919823 L-31.22345612081928,-43.26233202016524 L-31.71586288229403,-43.33854748416645 L-32.20967130431474,-43.412004646434355 " />
			<path d="M-32.209671304315194,-43.41200464643442 L-81.16678323339029,-27.92394612314174 " />
			<path d="M-81.16678323339028,-27.92394612314174 L-86.32086012657541,-17.36324858519921 " />
			<path d="M-17.796947251868552,-5.74358769639359 L-17.793655091623556,-6.057145882258262 L-17.78377904442133,-6.370662776771174 L-17.767320410803073,-6.684097094018076 L-17.74428135814717,-6.9974075589589 " />
			<path d="M61.18977135515998,-1.5185852819494023 L80.51425042651233,1.298082994346725 " />
			<path d="M80.51425042651233,1.298082994346725 L80.51425042651233,18.04735304809538 " />
			<path d="M80.51425042651235,18.04735304809538 L80.36618820497041,18.34401823122788 L80.21202638891901,18.639754054741655 L80.05178450209883,18.934523065331632 L79.88548283825781,19.228287932134243 L79.71314245858119,19.52101145145518 L79.53478518902408,19.81265655148103 L79.35043361754742,20.103186296974208 L79.1601110912573,20.3925638939506 L78.9638417134482,20.680752694339343 L78.7616503405504,20.96771620062407 L78.55356257898211,21.25341807046513 L78.33960478190649,21.537822121302145 L78.11980404589423,21.82089233493633 L77.8941882074919,22.102592862092006 L77.66278583969657,22.382888026956692 L77.42562624833727,22.661742331699266 L77.18273946836347,22.939120460965576 L76.93415626004143,23.214987286350905 L76.6799081050585,23.489307870848823 L76.4200272025362,23.76204747327574 L76.15454646495229,24.033171552670694 L75.88349951397271,24.302645772669784 L75.60692067619344,24.570436005854653 L75.32484497879338,24.83650833807456 L75.03730814509821,25.10082907274142 L74.74434659005635,25.363364735097267 L74.44599741562712,25.624082076453675 L74.14229840608199,25.882948078402507 L73.8332880232195,26.1399299569975 L73.51900540149416,26.3949951669062 L73.19949034306036,26.648111405531626 L72.87478331273167,26.89924661710323 L72.54492543285613,27.148368996736565 L72.2099584781084,27.395446994461206 L71.86992487019913,27.640449319216394 L71.52486767250258,27.883344942813846 L71.17483058460286,28.12410310386733 L70.8198579367596,28.362693311688417 L70.4599946842938,28.59908535014794 L70.09528640189443,28.833249281502724 L69.7257792778467,29.065155450187024 L69.35152010818251,29.294774486568247 L68.97255629075413,29.522077310666432 L68.58893581923132,29.747035135837095 L68.20070727702341,29.969619472416877 L67.80791983112624,30.189802131331618 L67.41062322589572,30.407555227666343 L67.00886777674772,30.62285118419671 L66.60270436378605,30.83566273488156 L66.19218442535876,31.045962928315962 L65.77735995154367,31.253725131144492 L65.35828347756427,31.458923031434175 L64.93500807713625,31.661530642006774 L64.50758735574613,31.861522303729892 L64.07607544386241,32.058872688766584 L63.640526990080176,32.25355680378297 L63.20099715420022,32.44554999311352 L62.75754160024334,32.63482794188353 L62.3102164894008,32.8213666790885 L61.859078472921816,33.00514258062991 L61.404184684939004,33.18613237230707 L60.94559273523265,33.3643131327647 L60.48336070193476,33.53966229639576 L60.01754712417375,33.712157656199295 L59.54821099466086,33.88177736659277 L59.07541175221899,34.04849994617879 L58.59920927425511,34.21230428046547 L58.11966386917713,34.373169624540594 L57.63683626875621,34.531075605698774 L57.150787620435366,34.68600222602153 L56.66157947958548,34.83792986490998 L56.169273801709686,34.9868392815696 L55.67393293459706,35.132711617447036 L55.17561961042655,35.2755283986184 L54.67439693782238,35.41527153812886 L54.170328393861624,35.551923338283345 L53.663477816035225,35.685466492887755 L53.1539093941633,35.81588408944076 L52.641687662265866,35.94315961127565 L52.12687749039001,36.067276939652075 L51.609544076394364,36.188220355797455 L51.089752937692225,36.305974542897566 L50.56756990295414,36.420524588036415 L50.043061103771024,36.53185598408486 L49.516292966278996,36.63995463153783 L48.98733220274687,36.7448068403 L48.45624580312737,36.84639933141949 L47.92310102657335,36.94471923876966 L47.38796539291963,37.03975411067846 L46.850906674132084,37.13149191150542 L46.311992885724706,37.21992102316585 L45.77129227814574,37.30503024660223 L45.22887332813421,37.38680880320254 L44.684804730047716,37.46524633616522 L44.1391553871626,37.54033291181093 L43.59199440294787,37.612059020840455 L43.04339107231346,37.68041557953913 L42.49341487283452,37.745393930927165 L41.942135455952474,37.80698584585603 L41.389622638153966,37.86518352405062 L40.83594639212905,37.91997959509714 L40.28117683790957,37.971367119376495 L39.725384233988734,38.01933958894319 L39.16863896842337,38.06389092834949 L38.61101154991965,38.10501549541486 L38.05257259890349,38.14270808194052 L37.49339283857691,38.17696391436902 L36.93354308596136,38.207778654388804 L36.373094242929085,38.23514839948362 L35.812117287223806,38.259069683426745 L35.25068326347182,38.279539476719975 L34.688863274184534,38.2965551869773 L34.12672847075377,38.310114659253216 L33.5643500444408,38.32021617631558 L33.0017992173604,38.326858458863214 L32.439147233460965,38.33004066568776 L31.876465349501803,38.32976239378037 L31.31382482602892,38.32602367838261 L30.751296918350263,38.31882499298212 L30.18895286751158,38.30816724925255 L29.626863891274187,38.294051796938135 L29.065101175095602,38.2764804236828 L28.50373586311431,38.255455354803686 L27.94283904913979,38.230979253009394 L27.382481767648795,38.203055218062744 L26.822734984789285,38.17168678638818 L26.263669589392986,38.13687793062395 L25.70535638399763,38.09863305911895 L25.14786607588026,38.05695701537448 L24.591269268102543,38.01185507743077 L24.03563645056926,37.96333295719863 L23.48103799110119,37.91139679973598 L22.927544126523358,37.8560531824697 L22.37522495376996,37.79730911436257 L21.82415042100702,37.73517203502565 L21.274390318773737,37.66964981377609 L20.72601427114399,37.600750748640536 L20.179091726908812,37.5284835653042 L19.63369195078106,37.45285741600584 L19.08988401462343,37.373881878378654 L18.54773678870093,37.29156695423734 L18.007318932958782,37.20592306831139 L17.468698888327047,37.116961066924894 L16.931944868052984,37.02469221662291 L16.39712484906217,36.92912820274458 L15.86430656334963,36.83028112794331 L15.333557489401969,36.72816351065396 L14.804944843651555,36.62278828350752 L14.278535571963943,36.514168791693216 L13.754396341159602,36.402318791268456 L13.232593530570835,36.287252447416684 L12.71319322363528,36.16898433265341 L12.196261199526798,36.04752942498072 L11.681862924824891,35.92290310599039 L11.170063545223705,35.79512115891589 L10.660927877281708,35.6641997666335 L10.154520400213062,35.53015550961287 L9.650905247721607,35.39300536381716 L9.150146199878769,35.252766698553195 L8.652306675046137,35.10945727427167 L8.157449721843843,34.96309524031791 L7.6656380111658144,34.81369913263335 L7.17693382824292,34.66128787140809 L6.691399064754826,34.50588075868473 L6.20909521099173,34.34749747591387 L5.730083348067041,34.18615808146157 L5.254424140181765,34.021883008069096 L4.782177826941634,33.85469306026518 L4.3134042157282195,33.68460941173126 L3.8481626741246266,33.51165360261997 L3.3865121223968053,33.33584753682718 L2.928511026031792,33.15721347921799 L2.4742173883333045,32.975774052807 L2.0236887430758834,32.79155223589324 L1.5769821472186578,32.60457135915012 L1.1341541736793772,32.41485510267069 L0.6952609041696967,32.2224274929687 L0.2603579220927834,32.027312899935765 L-0.17049969449597313,31.829536033755087 L-0.5972573798643168,31.62912194177203 L-1.019861087513668,31.426096005321984 L-1.4382572970236467,31.220483936515993 L-1.8523930208302417,31.012311774984475 L-2.262215810936432,30.80160588457937 L-2.667673765554312,30.5883929500354 L-3.06871553567823,30.37269997359053 L-3.4652903315879087,30.154554271566305 L-3.8573479292805786,29.93398347090839 L-4.244838676831627,29.711015505687772 L-4.627713500682766,29.485678613563056 L-5.005923911856868,29.25800133220432 L-5.3794220120988285,29.02801249567901 L-5.74816049994169,28.795741230800214 L-6.112092676697053,28.56121695343793 L-6.471172452369174,28.32446936479374 L-6.825354351492059,28.08552844763929 L-7.174593518888699,27.84442446251912 L-7.5188457253516745,27.601187943918376 L-7.858067373244545,27.35584969639577 L-8.192215502023316,27.10844079068231 L-8.521247793677077,26.858992559746447 L-8.845122578087349,26.60753659482587 L-9.163798838305446,26.354104741426642 L-9.477236215746963,26.09872909529019 L-9.785395015303003,25.841441998328527 L-10.088236210367363,25.58227603452832 L-10.385721447778984,25.32126402582433 L-10.677813052679205,25.058439027942704 L-10.964474033283082,24.793834326214593 L-11.24566808556417,24.52748343136082 L-11.521359597852232,24.25942007524789 L-11.791513655343252,23.989678206616063 L-12.056096044521247,23.71829198677989 L-12.31507325749115,23.44529578530192 L-12.568412496222443,23.170724175639975 L-12.816081676702865,22.89461193076857 L-13.0580494330016,22.616994018775173 L-13.294285121241678,22.337905598431654 L-13.524758823480823,22.0573820147416 L-13.749441351500373,21.775458794464114 L-13.968304250501824,21.49217164161454 L-14.181319802710512,21.207556432942695 L-14.388461030885814,20.921649213389344 L-14.589701701737788,20.634486191521273 L-14.785016329249373,20.346103734945668 L-14.974380177904145,20.05653836570437 L-15.157769265818843,19.76582675564858 L-15.33516036778056,19.474005721794555 L-15.506531018188184,19.181112221660896 L-15.671859513897395,18.887183348588167 L-15.831124916969365,18.59225632704117 L-15.984307057322368,18.29636850789467 L-16.13138653528624,17.999557363703143 L-16.272344724059195,17.701860483955087 L-16.4071637720669,17.403315570312465 L-16.53582660522318,17.103960431836068 L-16.65831692909238,16.803832980197193 L-16.774619230953014,16.50297122487627 L-16.884718781762317,16.201413268349274 L-16.9886016380216,15.899197301262205 L-17.086254643542148,15.596361597594434 L-17.17766543111135,15.292944509811544 L-17.26282242405894,14.988984464008212 L-17.341714837723117,14.68451995504175 L-17.4143326808164,14.379589541656905 L-17.480666756690916,14.074231841602666 L-17.540708664503114,13.76848552674152 L-17.594450800277748,13.462389318151832 L-17.64188635787078,13.155981981224103 L-17.683009329831414,12.849302320751521 L-17.71781450816288,12.542389176015503 L-17.746297484981994,12.235281415866995 L-17.768454653077406,11.928017933803904 L-17.784283206366425,11.620637643045425 L-17.793781140250395,11.31317947160396 L-17.796947251868552,11.005682357355187 " />
			<path d="M-17.796947251868552,11.005682357355067 L-17.79528867145384,10.783121147386385 L-17.790313040245245,10.560574702844272 L-17.782020688342165,10.33805778817569 L-17.770412165885887,10.115585165868486 L-17.75548824302313,9.893171595472042 L-17.737249909854945,9.670831832618033 L-17.715698376371016,9.448580628041498 L-17.690835072369403,9.226432726602255 L-17.66266164736166,9.004402866306629 L-17.631179970463435,8.782505777329721 L-17.59639213027043,8.560756181038176 L-17.558300434719854,8.339168789013488 L-17.516907410937335,8.117758302076004 L-17.472215805069197,7.8965394093096215 L-17.42422858210034,7.675526787087247 L-17.372948925657482,7.454735098097132 L-17.318380237797975,7.234178990370133 L-17.26052613878411,7.013873096307886 L-17.1993904668429,6.793832031712027 L-17.134977277911467,6.574070394814547 L-17.067290845367957,6.354602765309336 L-16.996335659748027,6.135443703384872 L-16.92211642844692,5.916607748758265 L-16.84463807540719,5.698109419710664 L-16.76390574079197,5.4799632121240265 L-16.679924780644036,5.262183598519437 L-16.592700766530406,5.044785027096981 L-16.50223948517275,4.82778192077717 L-16.408546938063445,4.611188676244084 L-16.311629341067444,4.395019662990273 L-16.211493124009863,4.179289222363387 L-16.10814493024951,3.964011666614881 " />
			<path d="M-16.108144930249452,3.964011666614768 L-15.986054283758659,3.705406868789462 L-15.871688197295473,3.445749514117324 L-15.7650770200127,3.1851085074719636 L-15.66624904315481,2.9235530147572266 L-15.575230492550308,2.6611524445527026 L-15.49204552165224,2.397976429694897 L-15.416716205128655,2.1340948087988934 L-15.34926253300463,1.869577607725346 L-15.289702405357598,1.6044950209978521 L-15.238051627567206,1.3389173931755316 L-15.194323906121056,1.0729152001857925 L-15.158530844977477,0.8065590306222721 L-15.130681942486152,0.5399195670128053 L-15.110784588867592,0.273067567062533 L-15.09884406425197,0.006073844877060863 L-15.094863537277988,-0.26099074782934273 " />
			<path d="M-15.094863537277988,-0.26099074782941556 L-15.096435022976909,-0.42879770530954664 L-15.10114931543584,-0.5965870823740873 L-15.10900592075858,-0.7643413004492714 L-15.12000401584227,-0.9320427846447971 L-15.134142448463624,-1.0996739655950503 L-15.15141973739967,-1.267217281299787 L-15.171834072582907,-1.434655178964042 L-15.195383315290954,-1.6019701168370402 L-15.222064998370595,-1.7691445660499756 L-15.251876326496276,-1.9361610124524373 L-15.284814176462937,-2.103001958447292 L-15.320875097513238,-2.2696499248238307 L-15.360055311699064,-2.4360874525889935 L-15.402350714277329,-2.6022971047964694 L-15.447756874140012,-2.7682614683734945 L-15.496269034278399,-2.9339631559451504 L-15.547882112281417,-3.099384807655942 L-15.602590700868145,-3.2645090929885323 L-15.660389068454268,-3.429318712579399 L-15.721271159752593,-3.593796400031193 L-15.785230596407391,-3.757924923721673 L-15.852260677662667,-3.921687088608988 L-15.922354381064142,-4.085065738033128 L-15.995504363194993,-4.248043755513356 L-16.07170296044516,-4.410604066541422 L-16.150942189814252,-4.572729640370396 L-16.233213749747893,-4.734403491798895 L-16.31850902100742,-4.895608682950568 L-16.406819067572904,-5.056328325048576 L-16.498134637579327,-5.21654558018497 L-16.592446164285864,-5.376243663084748 L-16.68974376707815,-5.535405842864346 L-16.790017252503432,-5.694015444784477 L-16.893256115338488,-5.852055851997068 L-16.99944953969022,-6.009510507286128 L-17.10858640012878,-6.166362914802393 L-17.220655262853136,-6.322596641791512 L-17.335644386888955,-6.478195320315642 L-17.45354172531864,-6.633142648968244 L-17.574334926543447,-6.78742239458192 L-17.698011335577483,-6.941018393929075 L-17.82455799537354,-7.093914555415274 L-17.95396164818054,-7.246094860765111 L-18.08620873693251,-7.3975433667003525 L-18.221285406668862,-7.548244206610252 L-18.35917750598595,-7.698181592213826 L-18.499870588519638,-7.84733981521393 L-18.643349914458778,-7.995703248942939 L-18.789600452089452,-8.143256349999898 L-18.93860687936977,-8.289983659878931 L-19.090353585535098,-8.435869806588766 L-19.24482467273354,-8.580899506263188 L-19.402003957691452,-8.725057564762267 L-19.561874973408937,-8.868328879264173 L-19.724420970885006,-9.010698439847458 L-19.889624920872297,-9.15215133106356 L-20.05746951566115,-9.29267273349944 L-20.22793717089289,-9.432247925330143 L-20.401010027402013,-9.570862283861144 L-20.57666995308727,-9.708501287060301 L-20.754898544811248,-9.84515051507927 L-20.935677130328422,-9.980795651764216 L-21.118986770241328,-10.11542248615564 L-21.304808259984803,-10.249016913977222 L-21.49312213183793,-10.381564939113433 L-21.68390865696359,-10.513052675075874 L-21.87714784747542,-10.643466346458112 L-22.072819458531793,-10.77279229037884 L-22.2709029904568,-10.901016957913304 L-22.471377690887945,-11.028126915512749 L-22.67422255695024,-11.154108846411804 L-22.879416337456618,-11.278949552023624 L-23.0869375351343,-11.40263595332264 L-23.296764408876996,-11.525155092214797 L-23.50887497602262,-11.646494132895123 L-23.723247014656327,-11.766640363192481 L-23.939858065938562,-11.885581195901352 L-24.158685436458043,-12.003304170100552 L-24.37970620060922,-12.119796952458733 L-24.602897202994097,-12.23504733852646 L-24.828235060848108,-12.34904325401483 L-25.05569616648986,-12.461772756060457 L-25.285256689794377,-12.573224034476645 L-25.51689258068968,-12.683385412990715 L-25.750579571676464,-12.792245350467274 L-25.98629318037043,-12.899792442117334 L-26.224008712067242,-13.00601542069312 L-26.463701262329668,-13.110903157668524 L-26.705345719596714,-13.214444664404967 L-26.948916767814456,-13.316629093302641 L-27.441736366356388,-13.51688403918017 L-27.94195354097757,-13.711584078090123 L-28.44935867473197,-13.90064762061571 L-28.963739138545815,-14.08399543932452 L-29.48487938032013,-14.261550701968952 L-30.012561015258328,-14.433239003682885 L-30.54656291738076,-14.598988398161202 L-31.086661312187886,-14.758729427808998 L-31.632629870433476,-14.912395152847926 L-32.18423980296833,-15.059921179367457 L-32.74125995661474,-15.201245686309244 L-33.3034569110317,-15.33630945137336 L-33.870595076530094,-15.465055875835512 L-34.44243679279706,-15.58743100826485 L-35.01874242848793,-15.703383567132407 L-35.59927048164424,-15.812864962300727 L-36.183777680895545,-15.915829315385643 L-36.77201908740277,-16.012233478981713 L-37.363748197500044,-16.10203705474318 " />
			<path d="M-37.363748197500314,-16.102037054743228 L-86.32086012657541,-0.6139785314505485 " />
			<path d="M-86.32086012657541,-0.6139785314505518 L-81.16678323339028,-11.174676069393083 " />
			<path d="M-32.209671304315194,-26.66273459268576 L-81.16678323339029,-11.17467606939308 " />
			<path d="M3.216334141102905,6.780679942910891 L3.319682334863323,6.565402387162267 L3.4198185519208977,6.3496719465353815 L3.5167361489168982,6.133502933281569 L3.6104286960262044,5.916909688748484 L3.7008899773838664,5.699906582428673 L3.7881139914974895,5.4825080110062165 L3.8720949516454297,5.264728397401627 L3.952827286260643,5.0465821898149885 L4.03030563930038,4.828083860767388 L4.10452487060148,4.609247906140782 L4.17548005622141,4.390088844216317 L4.2431664887649205,4.1706212147111055 L4.30757967769636,3.9508595778136266 L4.368715349637569,3.730818513217767 L4.426569448651435,3.51051261915552 L4.481138136510943,3.2899565114285214 L4.532417792953801,3.069164822438407 L4.580405015922658,2.8481522002160315 L4.625096621790789,2.6269333074496495 L4.666489645573314,2.405522820512164 L4.704581341123891,2.1839354284874775 L4.739369181316896,1.9621858321959325 L4.77085085821512,1.7402887432190237 L4.799024283222863,1.518258882923398 L4.823887587224476,1.2961109814841543 L4.845439120708406,1.07385977690762 L4.863677453876591,0.8515200140536092 L4.87860137673934,0.6291064436571661 L4.890209899195625,0.40663382134996306 L4.898502251098705,0.18411690668137914 L4.9034778823073,-0.038429537860733165 L4.905136462722012,-0.2609907478292935 " />
			<path d="M4.905136462722012,-0.26099074782941484 L4.902517319890478,-0.5406690102963001 L4.894660165792253,-0.8203179720705344 L4.881565823587685,-1.0999083355291746 L4.863235665114878,-1.379410809188384 L4.8396716107459525,-1.6587961107721396 L4.810876129185871,-1.938034970280034 L4.776852237213809,-2.217098133053793 L4.737603499367069,-2.4959563628421226 L4.693134027567666,-2.7745804448636813 L4.643448480691532,-3.052941188867784 L4.588552064080432,-3.331009432192542 L4.5284505289965935,-3.6087560428201066 L4.463150172020214,-3.886151922428711 L4.392657834389773,-4.163168009441171 L4.316980901285305,-4.439775282069547 L4.236127301054665,-4.71594476135564 L4.150105504382964,-4.991647514206959 L4.058924523405082,-5.2668546564279435 L3.962593910761541,-5.541537355746055 L3.861123758597671,-5.815666834832378 L3.7545246975063407,-6.08921437431651 L3.642807895414215,-6.362151315795369 L3.5259850564117556,-6.634449064835603 L3.4040684195270003,-6.906079093969315 L3.27707075744339,-7.17701294568276 L3.145005375161574,-7.447222235397715 L3.007886108605504,-7.716678654445215 L2.865727323172962,-7.985353973031337 L2.71854391223048,-8.253220043194684 L2.566351295553112,-8.520248801755338 L2.4091654177088913,-8.786412273254967 L2.247002746388411,-9.051682572887632 L2.0798802706796025,-9.316031909421184 L1.9078154992878424,-9.579432588108835 L1.7308264587016282,-9.841857013590602 L1.548931691304027,-10.103277692784378 L1.3621502534301015,-10.363667237766242 L1.170501713370399,-10.622998368639793 L0.9740061493209211,-10.881243916394128 L0.7726841472795769,-11.138376825750257 L0.5665567988895219,-11.394370157995514 L0.35564569922942724,-11.649197093805844 L0.13997294455109,-11.902830936055574 L-0.08043887003552186,-12.15524511261431 L-0.30556665292944274,-12.40641317913081 L-0.5353868184579298,-12.656308821803433 L-0.7698752893474037,-12.904905860136939 L-1.0090074992459748,-13.152178249685287 L-1.2527583952970929,-13.39810008478022 L-1.5011024407642921,-13.642645601245274 L-1.754013617706505,-13.885789179094997 L-2.011465429703904,-14.127505345219037 L-2.273430904633763,-14.367768776050834 L-2.5398825974962307,-14.606554300220676 L-2.8107925932896833,-14.84383690119282 L-3.086132509935169,-15.079591719886322 L-3.3658735012499292,-15.313794057279456 L-3.649986259969488,-15.546419376997296 L-3.9384410208180256,-15.777443307882296 L-4.231207563626789,-16.006841646547556 L-4.528255216500085,-16.234590359912506 L-4.829552859028709,-16.46066558772075 L-5.135068925550215,-16.68504364503979 L-5.444771408456013,-16.907701024742426 L-5.758627861544554,-17.128614399969443 L-6.076605403420658,-17.347760626573514 L-6.398670720940373,-17.56511674554391 L-6.724790072700991,-17.780659985411788 L-7.054929292576006,-17.994367764635896 L-7.389053793294579,-18.206217693968302 L-7.7271285700650765,-18.416187578800063 L-8.069118204242372,-18.62425542148643 L-8.414986867038508,-18.830399423651457 L-8.764698323276335,-19.03459798847172 L-9.11821593518571,-19.23682972293893 L-9.47550266624188,-19.43707344010119 L-9.83652108504561,-19.63530816128264 L-10.201233369244747,-19.831513118281308 L-10.569601309496711,-20.025667755544944 L-10.941586313471497,-20.217751732324487 L-11.317149409894853,-20.407744924805108 L-11.6962512526311,-20.59562742821448 L-12.078852124805294,-20.78137955890813 L-12.464911942964143,-20.96498185643158 L-12.854390261275448,-21.14641508555918 L-13.247246275765391,-21.32566023830928 L-13.64343882859341,-21.50269853593559 L-14.042926412364118,-21.677511430894594 L-14.445667174475858,-21.850080608788666 L-14.85161892150543,-22.02038799028479 L-15.260739123628511,-22.18841573300868 L-15.672984919075315,-22.354146233414006 L-16.08831311862103,-22.517562128626697 L-16.506680210110616,-22.678646298263928 L-16.92804236301731,-22.837381866227776 L-17.352355433034624,-22.99375220247324 L-17.779574966701144,-23.147740924750504 L-18.209656206057694,-23.299331900321256 L-18.64255409333647,-23.448509247648815 L-19.07822327568155,-23.595257338061973 L-19.5166181099003,-23.739560797392382 L-19.95769266724522,-23.8814045075852 L-20.40140073822571,-24.02077360828294 L-20.84769583744927,-24.157653498382395 L-21.29653120849147,-24.29202983756422 L-21.747859828794482,-24.423888547795386 L-22.201634414593528,-24.55321581480408 L-22.657807425870462,-24.679998089526933 L-23.116331071334393,-24.8042220895285 L-23.57715731342855,-24.92587480039282 L-24.040237873362997,-25.044943477086864 L-24.505524236172572,-25.161415645295797 L-24.97296765579961,-25.275279102729836 L-25.442519160200835,-25.386521920402657 L-25.91412955647798,-25.49513244388111 L-26.3877494360315,-25.60109929450624 L-26.863329179736894,-25.704411370585365 L-27.340818963143104,-25.80505784855514 L-27.820168761692393,-25.903028184115513 L-28.30132835596122,-25.998312113334404 L-28.784247336921492,-26.090899653723 L-29.268875111221732,-26.1807811052816 L-29.755160906487482,-26.267947051515815 L-30.243053776640572,-26.352388360423127 L-30.732502607236448,-26.43409618544957 L-31.22345612081928,-26.51306196641658 L-31.71586288229403,-26.589277430417788 L-32.20967130431474,-26.66273459268569 " />
			<path d="M80.51425042651233,18.04735304809538 L61.18977135515998,15.230684771799254 " />
			<path d="M-32.20967130431518,-26.66273459268575 L-32.20967130431518,-43.41200464643441 " />
			<path d="M-81.16678323339029,-11.174676069393081 L-81.16678323339029,-27.92394612314174 " />
			<path d="M-86.32086012657543,-17.36324858519921 L-86.32086012657543,-0.6139785314505524 " />
			<path d="M-16.108144930249452,-4.4859931622736 L-16.108144930249452,3.964011666614761 " />
			<path d="M-17.79694725186856,-5.743587696393595 L-17.79694725186856,11.005682357355061 " />
			<path d="M4.905136462722012,-0.26099074782941756 L4.905136462722012,-17.010260801578074 " />

        </g>
        </g>
    </svg>
    