<?xml version="1.0" encoding="UTF-8" standalone="no"?>
    <svg
    xmlns:svg="http://www.w3.org/2000/svg"
    xmlns="http://www.w3.org/2000/svg"
    width="223"
    height="426"
    >
        <g transform="scale(4, -4)   translate(27.924938727432163,-54.3959603861574)" stroke-width="0.25"  fill="none">
        <!-- hidden lines -->
        <g  stroke="rgb(160,160,160)" fill="none" stroke-dasharray="0.25,0.25" >
    			<path d="M11.157706923549387,-40.818404558382426 L11.157706923549387,49.033618876267894 " />
			<path d="M-25.424938727432156,-48.01905865528442 L-25.386588477746088,-47.944125733277254 L-25.34373230164025,-47.869248805218724 L-25.296373754271997,-47.79443408256504 L-25.244516764295334,-47.71968777161212 L-25.188165633535007,-47.645016072980766 L-25.127325036629664,-47.570425181102266 L-25.062000020644028,-47.49592128370455 L-24.992196004650268,-47.421510561298845 L-24.917918779278416,-47.34719918666704 L-24.839174506236027,-47.27299332434955 L-24.755969717797008,-47.198899130133945 L-24.66831131625974,-47.124922750544336 L-24.5762065733745,-47.05107032233145 L-24.47966312974024,-46.97734797196354 L-24.378688994170723,-46.9037618151182 L-24.273292543030166,-46.83031795617502 L-24.16348251953839,-46.75702248770918 L-24.049268033045486,-46.68388148998605 L-23.930658558276185,-46.61090103045679 L-23.80766393454384,-46.538087163255035 L-23.680294364934227,-46.46544592869466 L-23.54856041545912,-46.392983352768724 L-23.41247301417981,-46.32070544664952 L-23.272043450300522,-46.24861820618999 L-23.12728337323196,-46.176727611426294 L-22.978204791624897,-46.10503962608174 L-22.66714193959183,-45.96229525401211 L-22.33895810961163,-45.82043245474624 L-21.99376219809686,-45.679498300529936 L-21.631668746328835,-45.53953955547038 L-21.25279790245107,-45.400602660019075 L-20.85727538160232,-45.26273371556223 L-20.445232424202345,-45.125978469123545 L-20.016805752404352,-44.99038229818472 L-19.57213752472846,-44.85599019562846 L-19.111375288891388,-44.72284675480919 L-18.63467193284781,-44.590996154756276 L-18.142185634059807,-44.46048214551473 L-17.634079807011204,-44.33134803362834 L-17.110523048984092,-44.20363666776979 L-16.571689084115725,-44.077390424522946 L-16.017756705754138,-43.952651194321554 L-15.448909717131826,-43.82946036754939 L-14.865336870377014,-43.7078588208063 L-14.26723180388278,-43.58788690334473 L-13.654792978054942,-43.469584423681205 L-13.02822360945978,-43.35299063638726 L-12.387731603393732,-43.23814422906418 L-11.733529484897211,-43.12508330950587 L-11.065834328235574,-43.01384539305407 L-10.384867684870528,-42.90446739015024 L-9.690855509945997,-42.79698559408807 L-8.984028087312701,-42.691435668970854 L-8.264619953116544,-42.587852637877546 L-7.532869817975815,-42.48627087124159 L-6.78902048777347,-42.386724075446296 L-6.033318783090358,-42.289245281640525 L-5.266015457306395,-42.19386683477847 L-4.487365113396777,-42.10062038288709 L-3.6976261194507742,-42.00953686656481 L-2.897060522941313,-41.92064650871497 L-2.0859339637735665,-41.83397880451739 L-1.2645155861415915,-41.74956251164144 L-0.43307794922216303,-41.66742564070377 L0.40810306326450885,-41.587595445973996 L1.2587483345972466,-41.51009841633129 L2.1185756076690687,-41.43496026647498 L2.9872995786444356,-41.362205928392015 L3.8646319916274194,-41.29185954308414 L4.750281734309425,-41.223944452557575 L5.643954934564654,-41.15848319207773 L6.5453550579614515,-41.09549748269172 L7.454183006156914,-41.03500822402093 L8.3701372161423,-40.97703548732623 L9.292913760306245,-40.92159850884805 L10.222206447282595,-40.86871568342344 L11.157706923549274,-40.81840455838243 " />
			<path d="M-8.999999999999986,47.15824480258645 L-8.021423583487135,47.298344685350926 L-7.020282113386614,47.43474067888549 L-5.997186941970277,47.56734949226373 L-4.952762827652393,47.696090147220595 L-3.8876475534777697,47.820884027602176 L-2.802491537656092,47.941654927373115 L-1.6979574363806904,48.05832909715217 L-0.5747197391740855,48.17083528924769 L0.5665356429925801,48.279104801165396 L1.7251117965546747,48.38307151756188 L2.9003012309279725,48.48267195061833 L4.091386310541459,48.577845278809676 L5.2976396930652925,48.668533384045574 L6.518324773566178,48.75468088716051 L7.752696134318985,48.83623518173142 L8.999999999999904,48.913146466201994 " />
			<path d="M11.157706923549387,-40.818404558382426 L25.424938727432192,-42.480093965359806 " />
			<path d="M9.000000000000014,44.602447124328194 L8.997289368265852,44.63588912838099 L8.989159105846566,44.669310988221014 L8.975614110108227,44.70269257176964 L8.956662540049786,44.73601377120914 L8.932315811388404,44.769254515094936 L8.902588589683043,44.802394780445866 L8.867498781500485,44.83541460480528 L8.827067523629088,44.868294098265665 L8.781319170346771,44.90101345544961 L8.73028127875091,44.9335529674398 L8.673984592158973,44.96589303365094 L8.612463021589894,44.998014173636435 L8.545753625337344,45.029897038822625 L8.473896586647202,45.0615224241637 L8.396935189512664,45.09287127971009 L8.314915792601594,45.123924722083416 L8.135903638111005,45.1850707347941 L7.9372913791352095,45.24481315619537 L7.7195574900024635,45.30300806156125 L7.483226510722921,45.35951525426744 L7.228867783325819,45.41419860353728 L6.957094080264647,45.46692637239267 L6.668560128194647,45.51757153502003 L6.363961030678943,45.56601208278661 L6.044030593623179,45.61213131816993 L5.709539557472824,45.6558181358924 L5.361293740431916,45.69696729058361 L5.000132097176435,45.735479650325665 L4.6269246977390095,45.77126243547066 L4.242570631433995,45.804229442154984 L3.847995840872554,45.83430124997197 L3.4441508912858225,45.8614054133026 L3.032008680529995,45.88547663584337 L2.6125620952901754,45.90645692791078 L2.18682161912939,45.92429574614359 L1.7558128981451693,45.93895011526619 L1.3205742700982699,45.95038473161978 L0.8821542629660611,45.95857204821201 L0.4416090689467773,45.9634923410801 L1.4761945774818312e-14,45.965133756807546 L-0.44160906894674784,45.9634923410801 L-0.8821542629660316,45.95857204821201 L-1.3205742700982406,45.95038473161978 L-1.7558128981451395,45.93895011526619 L-2.186821619129361,45.92429574614359 L-2.612562095290145,45.90645692791078 L-3.032008680529965,45.88547663584337 L-3.444150891285793,45.8614054133026 L-3.847995840872526,45.83430124997197 L-4.242570631433965,45.804229442154984 L-4.62692469773898,45.77126243547066 L-5.000132097176404,45.735479650325665 L-5.361293740431882,45.69696729058361 L-5.7095395574727945,45.6558181358924 L-6.044030593623152,45.61213131816993 L-6.363961030678913,45.56601208278661 L-6.668560128194616,45.51757153502003 L-6.957094080264619,45.46692637239267 L-7.228867783325791,45.41419860353728 L-7.4832265107228935,45.35951525426744 L-7.719557490002434,45.30300806156125 L-7.93729137913518,45.24481315619537 L-8.135903638110975,45.1850707347941 L-8.314915792601566,45.123924722083416 L-8.396935189512636,45.09287127971009 L-8.473896586647173,45.0615224241637 L-8.545753625337316,45.029897038822625 L-8.612463021589866,44.998014173636435 L-8.673984592158945,44.96589303365094 L-8.730281278750882,44.9335529674398 L-8.781319170346741,44.90101345544961 L-8.82706752362906,44.868294098265665 L-8.867498781500457,44.83541460480528 L-8.902588589683013,44.802394780445866 L-8.932315811388376,44.769254515094936 L-8.956662540049757,44.73601377120914 L-8.975614110108198,44.70269257176964 L-8.989159105846538,44.669310988221014 L-8.997289368265823,44.63588912838099 L-8.999999999999986,44.6024471243282 " />
			<path d="M-5.48739684764722,42.63272501539043 L-5.460471467504655,42.63909639670518 L-5.433610952961238,42.647595610928654 L-5.380343045843442,42.6708905598868 L-5.328106125358577,42.70238551917207 L-5.277403261606518,42.74177717510966 L-5.228722750882203,42.78868616451922 L-5.1825334131153795,42.84266072818968 L-5.1392800768784035,42.90318106156737 L-5.099379295443916,42.96966432075812 L-5.063215335149116,43.04147023563245 L-5.031136474700875,43.117907275977025 L-5.003451651061398,43.19823931130859 L-4.9804274842163965,43.28169270021294 L-4.96228570947888,43.36746374093467 L-4.94920104205687,43.4547264114644 L-4.941299494450451,43.54264032458231 L-4.938657162882497,43.63035882124643 " />
			<path d="M-24.49001358379529,41.006371984240616 L-10.995152697656772,39.43463980161587 " />
			<path d="M-24.49001358379528,41.00637198424061 L-24.44859536857407,41.07887461114024 L-24.402884938861497,41.15131808966756 L-24.352885970215475,41.22369659467059 L-24.29860248303366,41.29600430622185 L-24.240038842230177,41.36823541008634 L-24.17719975688464,41.440384098189035 L-24.110090279863492,41.51244456908195 L-24.03871580741373,41.5844110284106 L-23.963082078728966,41.656277689379934 L-23.88319517548795,41.72803877321965 L-23.799061521365545,41.799688509648874 L-23.710687881516222,41.871221137340115 L-23.61808136203004,41.94263090438256 L-23.52124940936126,42.01391206874457 L-23.420199809729596,42.08505889873539 L-23.31494068849412,42.15606567346607 L-23.205480509499893,42.2269266833094 L-23.091828074397405,42.29763623035912 L-22.973992521934832,42.36818862888799 L-22.85198332722318,42.438578205805065 L-22.725810300974416,42.50879930111178 L-22.595483588712604,42.578846268357125 L-22.461013669958042,42.64871347509169 L-22.322411357384695,42.718395303320484 L-22.032854462002184,42.85718042726257 L-21.72690603332294,42.99515700244904 L-21.404664474146166,43.13228065120068 L-21.0662334276629,43.2685072701667 L-20.711721744121057,43.403793044509776 L-20.341243445815707,43.53809446199831 L-19.954917690415847,43.67136832700134 L-19.552868732639496,43.803571774381645 L-19.13522588428942,43.934662283282556 L-18.702123472662265,44.064597690804 L-18.25370079734467,44.193336205563455 L-17.790102085410034,44.320836421137386 L-17.311476445030458,44.44705732937888 L-16.81797781751881,44.57195833360717 L-16.309764927816282,44.69549926166485 L-15.787001233441366,44.81764037883848 L-15.249854871916689,44.9383424006386 L-14.698498606690585,45.0575665054348 L-14.13310977157088,45.17527434694209 L-13.55387021368864,45.291428066554225 L-12.96096623501036,45.40599030552026 L-12.354588532417239,45.51892421696033 L-11.734932136371,45.63019347771677 L-11.10219634818585,45.73976230003684 L-10.456584675926791,45.84759544308313 L-9.798304768954928,45.953658224268246 L-9.127568351140795,46.057916530409756 L-8.444591152767188,46.16033682870213 L-7.7495928411433965,46.26088617750192 L-7.0427969499531855,46.35953223692288 L-6.324430807359214,46.45624327923751 L-5.594725462886991,46.55098819908169 L-4.853915613112029,46.64373652345915 L-4.10223952617384,46.73445842154259 L-3.339938965141336,46.82312471426821 L-2.5672591102541027,46.90970688372063 L-1.7844484800645333,46.99417708230517 L-0.991758851506372,47.07650814170452 L-0.18944517891517876,47.15667358161696 L0.6222344879731594,47.23464761827323 L1.4430190870194224,47.31040517272945 L2.2726446276470575,47.38392187893332 L3.1108442757499226,47.45517409156098 L3.9573484395147425,47.52413889362212 L4.811884856130391,47.59079410383086 L5.674178679356334,47.65511828373987 L6.543952567922034,47.71709074463575 L7.420926774728663,47.77669155419313 L8.304819236824805,47.83390154288557 L9.195345666126872,47.88870231015107 L10.092219640855284,47.941076230310294 L10.99515269765672,47.99100645823554 " />
			<path d="M10.995152697656817,47.99100645823555 L24.49001358379531,46.41927427561082 " />
			<path d="M24.490013583795314,46.41927427561082 L24.448595368574093,46.34677164871118 L24.40288493886153,46.274328170183864 L24.352885970215507,46.201949665180834 L24.298602483033694,46.12964195362957 L24.24003884223021,46.057410849765084 L24.177199756884665,45.98526216166239 L24.110090279863524,45.913201690769476 L24.038715807413762,45.84123523144083 L23.963082078729,45.76936857047149 L23.88319517548798,45.697607486631775 L23.799061521365577,45.62595775020255 L23.71068788151626,45.55442512251131 L23.618081362030072,45.48301535546887 L23.521249409361285,45.41173419110686 L23.420199809729628,45.340587361116036 L23.31494068849415,45.26958058638536 L23.20548050949993,45.198719576542025 L23.091828074397444,45.12801002949231 L22.973992521934864,45.05745763096343 L22.85198332722322,44.98706805404636 L22.725810300974455,44.91684695873965 L22.595483588712636,44.846799991494294 L22.46101366995808,44.77693278475974 L22.322411357384734,44.70725095653094 L22.032854462002224,44.568465832588856 L21.726906033322987,44.430489257402385 L21.404664474146212,44.29336560865075 L21.066233427662947,44.15713898968473 L20.711721744121103,44.02185321534165 L20.341243445815753,43.88755179785312 L19.9549176904159,43.75427793285009 L19.55286873263955,43.62207448546978 L19.13522588428948,43.49098397656888 L18.70212347266232,43.36104856904743 L18.25370079734473,43.23231005428797 L17.790102085410094,43.10480983871405 L17.311476445030518,42.978588930472554 L16.817977817518862,42.853687926244255 L16.309764927816335,42.73014699818658 L15.787001233441426,42.60800588101294 L15.24985487191675,42.48730385921283 L14.698498606690645,42.36807975441663 L14.133109771570926,42.25037191290933 L13.5538702136887,42.1342181932972 L12.960966235010428,42.01965595433117 L12.3545885324173,41.9067220428911 L11.734932136371054,41.795452782134646 L11.10219634818591,41.68588395981459 L10.456584675926859,41.5780508167683 L9.798304768954996,41.47198803558318 L9.127568351140877,41.36772972944167 L8.444591152767263,41.265309431149305 L7.749592841143464,41.16476008234951 L7.042796949953267,41.066114022928545 L6.324430807359295,40.969402980613914 L5.59472546288708,40.87465806076974 L4.853915613112125,40.78190973639228 L4.102239526173907,40.691187838308835 L3.3399389651414175,40.602521545583215 L2.567259110254188,40.515939376130795 L1.7844484800646327,40.43146917754626 L0.9917588515064857,40.349138118146904 L0.18944517891525692,40.26897267823447 L-0.622234487973067,40.1909986415782 L-1.4430190870193194,40.11524108712197 L-2.272644627646983,40.041724380918104 L-3.1108442757498516,39.97047216829044 L-3.957348439514657,39.901507366229296 L-4.811884856130295,39.83485215602057 L-5.674178679356242,39.77052797611156 L-6.54395256792197,39.70855551521568 L-7.4209267747285885,39.6489547056583 L-8.304819236824716,39.591744716965856 L-9.195345666126823,39.53694394970035 L-10.09221964085522,39.48457002954113 L-10.995152697656309,39.4346398016159 " />
			<path d="M-24.490013583795285,41.00637198424062 L-24.490013583795285,-47.066403461604736 " />
			<path d="M-24.49001358379529,-47.066403461604736 L-10.995152697656772,-48.63813564422948 " />
			<path d="M-10.995152697656788,39.43463980161589 L-10.995152697656788,-48.63813564422947 " />
			<path d="M10.995152697656813,47.99100645823555 L10.995152697656813,-40.081768987609806 " />
			<path d="M-24.49001358379528,-47.066403461604736 L-24.44859536857407,-46.9939008347051 L-24.402884938861497,-46.92145735617778 L-24.352885970215475,-46.84907885117475 L-24.29860248303366,-46.77677113962349 L-24.240038842230177,-46.704540035759 L-24.17719975688464,-46.63239134765631 L-24.110090279863492,-46.560330876763395 L-24.03871580741373,-46.488364417434745 L-23.963082078728966,-46.41649775646541 L-23.88319517548795,-46.34473667262569 L-23.799061521365545,-46.27308693619647 L-23.710687881516222,-46.20155430850523 L-23.61808136203004,-46.13014454146278 L-23.52124940936126,-46.05886337710078 L-23.420199809729596,-45.987716547109954 L-23.31494068849412,-45.91670977237928 L-23.205480509499893,-45.845848762535944 L-23.091828074397405,-45.77513921548623 L-22.973992521934832,-45.70458681695735 L-22.85198332722318,-45.63419724004028 L-22.725810300974416,-45.563976144733566 L-22.595483588712604,-45.49392917748821 L-22.461013669958042,-45.424061970753655 L-22.322411357384695,-45.35438014252486 L-22.032854462002184,-45.215595018582775 L-21.72690603332294,-45.077618443396304 L-21.404664474146166,-44.940494794644664 L-21.0662334276629,-44.804268175678644 L-20.711721744121057,-44.66898240133557 L-20.341243445815707,-44.53468098384704 L-19.954917690415847,-44.401407118844006 L-19.552868732639496,-44.2692036714637 L-19.13522588428942,-44.13811316256279 L-18.702123472662265,-44.008177755041345 L-18.25370079734467,-43.87943924028189 L-17.790102085410034,-43.75193902470796 L-17.311476445030458,-43.625718116466466 L-16.81797781751881,-43.50081711223817 L-16.309764927816282,-43.377276184180495 L-15.787001233441366,-43.25513506700686 L-15.249854871916689,-43.13443304520675 L-14.698498606690585,-43.015208940410545 L-14.13310977157088,-42.897501098903255 L-13.55387021368864,-42.78134737929112 L-12.96096623501036,-42.66678514032508 L-12.354588532417239,-42.553851228885016 L-11.734932136371,-42.44258196812857 L-11.10219634818585,-42.33301314580851 L-10.456584675926791,-42.225180002762215 L-9.798304768954928,-42.1191172215771 L-9.127568351140795,-42.01485891543559 L-8.444591152767188,-41.91243861714322 L-7.7495928411433965,-41.811889268343435 L-7.0427969499531855,-41.713243208922464 L-6.324430807359214,-41.61653216660783 L-5.594725462886991,-41.52178724676366 L-4.853915613112029,-41.4290389223862 L-4.10223952617384,-41.338317024302754 L-3.339938965141336,-41.249650731577134 L-2.5672591102541027,-41.163068562124714 L-1.7844484800645333,-41.07859836354017 L-0.991758851506372,-40.99626730414082 L-0.18944517891517876,-40.91610186422839 L0.6222344879731594,-40.838127827572116 L1.4430190870194224,-40.76237027311589 L2.2726446276470575,-40.68885356691202 L3.1108442757499226,-40.61760135428437 L3.9573484395147425,-40.54863655222322 L4.811884856130391,-40.481981342014485 L5.674178679356334,-40.41765716210548 L6.543952567922034,-40.3556847012096 L7.420926774728663,-40.296083891652216 L8.304819236824805,-40.238873902959774 L9.195345666126872,-40.18407313569428 L10.092219640855284,-40.13169921553505 L10.99515269765672,-40.081768987609806 " />
			<path d="M10.995152697656817,-40.0817689876098 L24.49001358379531,-41.653501170234534 " />
			<path d="M24.490013583795314,-41.653501170234534 L24.448595368574093,-41.72600379713417 L24.40288493886153,-41.79844727566149 L24.352885970215507,-41.87082578066452 L24.298602483033694,-41.94313349221578 L24.24003884223021,-42.01536459608027 L24.177199756884665,-42.08751328418296 L24.110090279863524,-42.159573755075876 L24.038715807413762,-42.231540214404525 L23.963082078729,-42.30340687537386 L23.88319517548798,-42.37516795921358 L23.799061521365577,-42.4468176956428 L23.71068788151626,-42.51835032333404 L23.618081362030072,-42.58976009037648 L23.521249409361285,-42.66104125473849 L23.420199809729628,-42.732188084729316 L23.31494068849415,-42.80319485945999 L23.20548050949993,-42.87405586930333 L23.091828074397444,-42.94476541635304 L22.973992521934864,-43.015317814881925 L22.85198332722322,-43.08570739179899 L22.725810300974455,-43.155928487105705 L22.595483588712636,-43.22597545435106 L22.46101366995808,-43.295842661085615 L22.322411357384734,-43.36552448931441 L22.032854462002224,-43.504309613256495 L21.726906033322987,-43.64228618844297 L21.404664474146212,-43.7794098371946 L21.066233427662947,-43.91563645616062 L20.711721744121103,-44.0509222305037 L20.341243445815753,-44.18522364799223 L19.9549176904159,-44.318497512995265 L19.55286873263955,-44.45070096037557 L19.13522588428948,-44.581791469276475 L18.70212347266232,-44.71172687679792 L18.25370079734473,-44.84046539155738 L17.790102085410094,-44.967965607131305 L17.311476445030518,-45.0941865153728 L16.817977817518862,-45.219087519601096 L16.309764927816335,-45.342628447658775 L15.787001233441426,-45.46476956483241 L15.24985487191675,-45.58547158663252 L14.698498606690645,-45.704695691428725 L14.133109771570926,-45.82240353293602 L13.5538702136887,-45.93855725254815 L12.960966235010428,-46.05311949151418 L12.3545885324173,-46.166053402954255 L11.734932136371054,-46.277322663710706 L11.10219634818591,-46.38689148603076 L10.456584675926859,-46.494724629077055 L9.798304768954996,-46.60078741026217 L9.127568351140877,-46.70504571640368 L8.444591152767263,-46.80746601469605 L7.749592841143464,-46.90801536349584 L7.042796949953267,-47.00666142291681 L6.324430807359295,-47.10337246523144 L5.59472546288708,-47.19811738507561 L4.853915613112125,-47.29086570945307 L4.102239526173907,-47.38158760753652 L3.3399389651414175,-47.470253900262136 L2.567259110254188,-47.55683606971456 L1.7844484800646327,-47.64130626829909 L0.9917588515064857,-47.72363732769845 L0.18944517891525692,-47.80380276761088 L-0.622234487973067,-47.881776804267155 L-1.4430190870193194,-47.95753435872338 L-2.272644627646983,-48.03105106492725 L-3.1108442757498516,-48.10230327755491 L-3.957348439514657,-48.171268079616056 L-4.811884856130295,-48.237923289824785 L-5.674178679356242,-48.30224746973379 L-6.54395256792197,-48.36421993062967 L-7.4209267747285885,-48.423820740187054 L-8.304819236824716,-48.481030728879496 L-9.195345666126823,-48.535831496145 L-10.09221964085522,-48.58820541630422 L-10.995152697656309,-48.63813564422945 " />
			<path d="M24.49001358379531,46.41927427561082 L24.49001358379531,-41.65350117023454 " />
			<path d="M-8.099999999999987,50.533273753678046 L-8.099999999999987,44.602447124328194 " />
			<path d="M8.100000000000012,50.533273753678046 L8.100000000000012,44.602447124328194 " />
			<path d="M8.100000000000009,44.602447124328194 L8.103154380680898,44.536393383915396 L8.11240361206659,44.472030591830986 L8.127117798383509,44.41097430106019 L8.146280180984142,44.35469047026861 L8.168547363701522,44.304397663381934 L8.192356873575273,44.26102070700883 L8.215957894151884,44.22516109438871 L8.237724810904458,44.196953520102454 L8.270276508444612,44.16224633579952 L8.279031005783981,44.15450271800744 L8.282023040396798,44.15210547774406 " />
			<path d="M8.282023040396798,44.15210547774406 L8.28079105926877,44.15299393816835 L8.277077883398158,44.15552608178255 L8.2622866476591,44.16478515693899 L8.204345192645462,44.19581424469415 L8.131438274050586,44.22919794714638 L8.037507793018056,44.26684099527747 L7.924166420591878,44.307285678368316 L7.7928323058876465,44.34935156417424 L7.644729076092547,44.392135498924986 L7.480885836465357,44.435011607324704 L7.302137170336444,44.47763129255199 L7.109123139107766,44.51992323625983 L6.895326499692262,44.562794445916694 L6.6678869731288115,44.60457861077288 L6.427414284650716,44.64513941569291 L6.174519076447773,44.684349417077314 L5.909812907666266,44.7220900428626 L5.633908254408969,44.75825159252128 L5.347418509735148,44.79273323706188 L5.050957983660558,44.82544301902888 L4.745141903157442,44.85629785250279 L4.430586412154535,44.8852235231001 L4.107908571537065,44.91215468797329 L3.7777263591467407,44.93703487581085 L3.440658669781771,44.959816486837255 L3.0973253151968514,44.98046079281297 L2.748347024103161,44.99893793703447 L2.3943454421683796,45.01522693433421 L1.9072197453439261,45.03368801176996 L1.4136650497657426,45.047947929789245 L0.9153834176485327,45.057953838535745 L0.4140668517160633,45.063668529664334 L-0.08860270479886978,45.06507043634108 L-0.5909533681544246,45.06215363324325 L-1.091323314099696,45.054927836559294 L-1.588060777874749,45.04341840398888 L-2.0795240542106033,45.02766633474283 L-2.5640814973292168,45.00772826954321 L-3.0401115209435154,44.98367649062323 L-3.506002598257382,44.95559892172732 L-3.960153261965633,44.92359912811111 L-4.40097210425406,44.88779631654139 L-4.826877776799403,44.84832533529619 L-5.236298990769345,44.80533667416469 L-5.700645174004155,44.749819442583565 L-5.92240157316334,44.72038063631309 L-6.136814775957637,44.689917019740236 L-6.343580961359287,44.6584887547426 L-6.542387948632088,44.62615432954244 L-6.732911410896524,44.592976714417574 L-6.914811088694861,44.55902951741234 L-7.087727003556257,44.524403140048484 L-7.251275671561878,44.489210933036084 L-7.405046316910008,44.453595351984504 L-7.548597085481143,44.41773411311329 L-7.681451258403124,44.38184634896309 L-7.803093465616228,44.346198764106596 L-7.912965899438284,44.31111179085945 L-8.010464528129784,44.27696574499119 L-8.12511173586704,44.231857286525994 L-8.210647578836653,44.19269991535477 L-8.26389371080402,44.163802341040736 L-8.277510948214939,44.155267192888154 L-8.280924308421065,44.152938580943605 L-8.282023040396775,44.15210547774407 " />
			<path d="M-8.282023040396773,44.15210547774407 L-8.270877684941306,44.16168254352956 L-8.239896300762211,44.194373689334114 L-8.217859039356078,44.222524587925996 L-8.19377020773748,44.25868462201604 L-8.169387138647307,44.30272191557524 L-8.146525617783734,44.35406540076009 L-8.127268346225302,44.41045767225338 L-8.112474612975843,44.471662280513236 L-8.103172758920014,44.53620183712873 L-8.099999999999987,44.602447124328194 " />

        </g>

        <!-- solid lines -->
        <g  stroke="rgb(0,0,0)" fill="none">
    			<path d="M-25.42493872743216,-48.01905865528442 L-25.42493872743216,41.8329647793659 " />
			<path d="M-25.42493872743216,-48.01905865528442 L-11.157706923549357,-49.6807480622618 " />
			<path d="M-11.157706923549359,-49.680748062261806 L-11.157706923549359,40.171275372388514 " />
			<path d="M-11.157706923549359,40.17127537238851 L-25.424938727432163,41.83296477936589 " />
			<path d="M-25.424938727432156,41.83296477936589 L-25.376325942476633,41.926570000145325 L-25.320681886802035,42.02008541113558 L-25.25801376477775,42.11349890467206 L-25.18832969019588,42.20679838628566 L-25.11163868522072,42.29997177626866 L-25.027950679220673,42.39300701123875 L-24.937276507482643,42.48589204570086 L-24.839627909809174,42.578614853606744 L-24.735017528998455,42.67116342991203 L-24.623458909207457,42.763525792130515 L-24.5049664941983,42.85568998188559 L-24.379555625468235,42.94764406645851 L-24.247242540263287,43.03937614033334 L-24.10804436947602,43.13087432673842 L-23.96197913542752,43.222126779184045 L-23.809065749534078,43.31312168299629 L-23.64932400985858,43.40384725684666 L-23.482774598547287,43.49429175427746 L-23.309439079152035,43.58444346522263 L-23.129339893838342,43.67429071752388 L-22.942500360479798,43.763821878441924 L-22.748944669639002,43.853025356162554 L-22.548697881435594,43.941889601297525 L-22.341785922301625,44.030403108379836 L-22.12823558162483,44.11855441735338 L-21.90807450828011,44.2063321150567 L-21.6813312070498,44.29372483670071 L-21.448035034933078,44.380721267340085 L-21.208216197345003,44.46731014333824 L-20.961905744205808,44.553480253825676 L-20.709135565920754,44.63922044215146 L-20.449938389251216,44.724519607327736 L-20.184347773077484,44.80936670546694 L-19.912398104053757,44.89375075121174 L-19.6341245921561,44.9776608191573 L-19.349563266123674,45.06108604526581 L-19.058750968794023,45.14401562827312 L-18.76172535233293,45.226438831087165 L-18.458524873359515,45.308344982178156 L-18.149188787967176,45.38972347696021 L-17.833757146640977,45.47056377916437 L-17.51227078907224,45.5508554222028 L-16.851301198176493,45.709751220958005 L-16.166622313474406,45.866328585408404 L-15.458588711559578,46.02050642839069 L-14.7275670637992,46.172204905388575 L-13.973935946444861,46.321345455882025 L-13.198085644578235,46.46785084403166 L-12.400417949993006,46.6116451986771 L-11.58134595311784,46.752654052628564 L-10.741293829088086,46.89080438123138 L-9.880696618076925,47.026024640183536 L-9.000000000000028,47.158244802586445 " />
			<path d="M9.000000000000018,48.913146466202 L10.074656120755378,48.97510607121883 L11.157706923549274,49.03361887626787 " />
			<path d="M-11.157706923549352,-49.680748062261806 L-10.22220644728256,-49.63043693722079 L-9.29291376030621,-49.57755411179618 L-8.370137216142265,-49.522117133318 L-7.454183006156882,-49.464144396623304 L-6.5453550579614195,-49.40365513795251 L-5.6439549345646185,-49.3406694285665 L-4.7502817343093895,-49.27520816808666 L-3.8646319916273946,-49.207293077560095 L-2.9872995786444108,-49.136946692252224 L-2.118575607669044,-49.06419235416925 L-1.2587483345972217,-48.98905420431294 L-0.408103063264484,-48.911557174670236 L0.4330779492221879,-48.83172697994046 L1.2645155861416093,-48.749590109002796 L2.0859339637735914,-48.66517381612684 L2.897060522941331,-48.578506111929265 L3.697626119450792,-48.48961575407942 L4.487365113396788,-48.398532237757145 L5.266015457306413,-48.30528578586576 L6.033318783090369,-48.209907339003706 L6.789020487773481,-48.11242854519794 L7.532869817975833,-48.012881749402645 L8.264619953116554,-47.91129998276669 L8.984028087312726,-47.80771695167338 L9.690855509946008,-47.70216702655616 L10.384867684870553,-47.594685230494 L11.065834328235585,-47.48530722759017 L11.733529484897222,-47.37406931113837 L12.387731603393735,-47.261008391580056 L13.028223609459783,-47.14616198425698 L13.654792978054953,-47.029568196963034 L14.267231803882797,-46.91126571729951 L14.865336870377018,-46.79129379983794 L15.448909717131837,-46.66969225309485 L16.01775670575414,-46.546501426322685 L16.57168908411573,-46.421762196121286 L17.110523048984103,-46.295515952874446 L17.634079807011208,-46.1678045870159 L18.142185634059818,-46.0386704751295 L18.634671932847812,-45.90815646588796 L19.11137528889139,-45.77630586583504 L19.572137524728472,-45.643162425015774 L20.016805752404355,-45.50877032245952 L20.44523242420235,-45.37317415152069 L20.857275381602324,-45.23641890508201 L21.252797902451075,-45.09854996062516 L21.631668746328838,-44.95961306517386 L21.99376219809687,-44.8196543201143 L22.338958109611642,-44.678720165898 L22.66714193959184,-44.53685736663213 L22.9782047916249,-44.3941129945625 L23.127283373231972,-44.32242500921795 L23.272043450300533,-44.25053441445425 L23.41247301417982,-44.17844717399472 L23.54856041545914,-44.106169267875515 L23.68029436493423,-44.033706691949575 L23.807663934543857,-43.9610654573892 L23.930658558276203,-43.88825159018745 L24.049268033045497,-43.81527113065819 L24.163482519538395,-43.74213013293506 L24.273292543030177,-43.668834664469216 L24.37868899417074,-43.59539080552604 L24.47966312974025,-43.5218046486807 L24.57620657337451,-43.4480822983128 L24.66831131625975,-43.3742298700999 L24.755969717797026,-43.300253490510286 L24.839174506236045,-43.226159296294696 L24.917918779278434,-43.1519534339772 L24.992196004650285,-43.07764205934539 L25.062000020644046,-43.00323133693969 L25.12732503662968,-42.92872743954197 L25.188165633535018,-42.85413654766348 L25.24451676429535,-42.779464849032124 L25.29637375427202,-42.7047185380792 L25.343732301640276,-42.62990381542551 L25.386588477746113,-42.55502688736698 L25.424938727432153,-42.480093965359885 " />
			<path d="M25.424938727432185,47.37192946929051 L11.157706923549382,49.03361887626789 " />
			<path d="M-11.157706923549352,40.17127537238851 L-10.22220644728256,40.22158649742952 L-9.29291376030621,40.27446932285413 L-8.370137216142265,40.329906301332315 L-7.454183006156882,40.38787903802701 L-6.5453550579614195,40.4483682966978 L-5.6439549345646185,40.51135400608381 L-4.7502817343093895,40.576815266563656 L-3.8646319916273946,40.644730357090225 L-2.9872995786444108,40.71507674239809 L-2.118575607669044,40.78783108048106 L-1.2587483345972217,40.86296923033737 L-0.408103063264484,40.94046625998008 L0.4330779492221879,41.02029645470985 L1.2645155861416093,41.102433325647524 L2.0859339637735914,41.186849618523475 L2.897060522941331,41.27351732272105 L3.697626119450792,41.36240768057089 L4.487365113396788,41.45349119689317 L5.266015457306413,41.54673764878455 L6.033318783090369,41.64211609564661 L6.789020487773481,41.73959488945237 L7.532869817975833,41.83914168524767 L8.264619953116554,41.94072345188363 L8.984028087312726,42.044306482976936 L9.690855509946008,42.14985640809415 L10.384867684870553,42.25733820415631 L11.065834328235585,42.36671620706014 L11.733529484897222,42.47795412351194 L12.387731603393735,42.59101504307026 L13.028223609459783,42.705861450393336 L13.654792978054953,42.82245523768728 L14.267231803882797,42.940757717350806 L14.865336870377018,43.060729634812375 L15.448909717131837,43.18233118155546 L16.01775670575414,43.30552200832763 L16.57168908411573,43.43026123852903 L17.110523048984103,43.55650748177587 L17.634079807011208,43.68421884763441 L18.142185634059818,43.81335295952081 L18.634671932847812,43.94386696876235 L19.11137528889139,44.07571756881527 L19.572137524728472,44.20886100963454 L20.016805752404355,44.343253112190794 L20.44523242420235,44.47884928312962 L20.857275381602324,44.6156045295683 L21.252797902451075,44.75347347402516 L21.631668746328838,44.89241036947645 L21.99376219809687,45.03236911453601 L22.338958109611642,45.17330326875231 L22.66714193959184,45.315166068018186 L22.9782047916249,45.457910440087815 L23.127283373231972,45.52959842543236 L23.272043450300533,45.60148902019606 L23.41247301417982,45.673576260655594 L23.54856041545914,45.7458541667748 L23.68029436493423,45.81831674270074 L23.807663934543857,45.89095797726111 L23.930658558276203,45.96377184446287 L24.049268033045497,46.036752303992124 L24.163482519538395,46.10989330171525 L24.273292543030177,46.1831887701811 L24.37868899417074,46.256632629124276 L24.47966312974025,46.33021878596961 L24.57620657337451,46.403941136337515 L24.66831131625975,46.47779356455041 L24.755969717797026,46.55176994414002 L24.839174506236045,46.62586413835562 L24.917918779278434,46.700070000673115 L24.992196004650285,46.77438137530492 L25.062000020644046,46.84879209771062 L25.12732503662968,46.92329599510834 L25.188165633535018,46.997886886986834 L25.24451676429535,47.07255858561819 L25.29637375427202,47.147304896571114 L25.343732301640276,47.222119619224806 L25.386588477746113,47.296996547283335 L25.424938727432153,47.37192946929043 " />
			<path d="M-5.48739684764722,43.5223490097929 L-5.235955709730277,43.49410417522442 L-4.978178290150982,43.46720059972943 L-4.444869691720444,43.41754579267778 L-3.890051800817793,43.37362487459492 L-3.3164094521202783,43.33565038441634 L-2.7267185742620974,43.303806085552985 L-2.1238327567609865,43.278246076636606 L-1.5106694411338626,43.25909404581681 L-0.8901958030244864,43.24644267221826 L-0.26541439366135033,43.240353177454594 L0.36065138987144235,43.240855029369186 L0.9849719352390603,43.247945799436486 L1.6045260755371793,43.26159117451397 L2.2163157091047307,43.28172512288781 L2.817380307720983,43.30825021380882 L3.4048112429799446,43.34103808897223 L3.975765861514929,43.37993008366 L4.527481240961475,43.42473799453961 L5.057287560091756,43.47524499040407 L5.313169149934965,43.50256031297757 L5.562621018420691,43.53120666144583 L5.805341291853366,43.56114936948571 L6.0410362427641395,43.592352201987076 L6.269420645364606,43.624777398902594 L6.490218120712241,43.65838572094301 L6.70316147116984,43.6931364970625 L6.907993003754227,43.72898767367663 L7.104464841982917,43.765895865553446 L7.292339225841355,43.80381640831604 L7.471388799507747,43.84270341249301 L7.641396886487269,43.88250981905156 L7.802157751822687,43.92318745634589 L7.953476851064138,43.96468709841199 L8.095171065696718,44.00695852453839 L8.227068924740989,44.04995058004062 L8.349010812258257,44.093611238165984 L8.460849160509497,44.13788766305358 L8.562448628534147,44.18272627367359 L8.653686265932738,44.2280728086682 L8.734451661655058,44.27387239201591 L8.804647077613879,44.32006959943961 L8.864187566962519,44.36660852547822 L8.913001076893098,44.41343285114051 L8.933366245567678,44.436934342834554 L8.9510285358311,44.46048591205946 L8.965982603782562,44.484080433054764 L8.978223924920737,44.507710767064516 L8.987748795512708,44.53136976449719 L8.994554333714568,44.55505026708885 L8.998638480443347,44.57874511006897 L9.000000000000014,44.60244712432818 " />
			<path d="M-8.999999999999986,44.602447124328194 L-8.996320229477831,44.56348382629335 L-8.985283926958274,44.52455238959085 L-8.96690011712147,44.48568464949918 L-8.94118383290109,44.44691238921038 L-8.90815610319149,44.408267313840135 L-8.86784393565183,44.369781024501584 L-8.820280294621172,44.33148499246429 L-8.76550407416267,44.29341053341932 L-8.703560066258852,44.25558878187157 L-8.634498924184003,44.21805066568025 L-8.558377121083645,44.18082688076834 L-8.47525690379492,44.14394786602172 L-8.385206241945689,44.10744377839846 L-8.288298772373944,44.071344468268705 L-8.184613738912999,44.035679455005166 L-8.074235927591683,44.0004779028444 L-7.957255597302528,43.965768597038405 L-7.8337684059946575,43.931579920316146 L-7.703875332451727,43.89793982967424 L-7.567682593718861,43.86487583351579 L-7.276848654819587,43.800583780713 L-6.962217685627468,43.73891401225113 L-6.624818604436685,43.68006820297842 L-6.265754786696796,43.62423879272321 L-5.8862004567119115,43.571608356969755 L-5.487396847647284,43.522349009792904 " />
			<path d="M25.424938727432185,-42.48009396535981 L25.424938727432185,47.37192946929051 " />
			<path d="M-5.48739684764722,49.45317563914275 L-5.235955709730277,49.424930804574274 L-4.978178290150982,49.39802722907928 L-4.444869691720444,49.34837242202763 L-3.890051800817793,49.30445150394477 L-3.3164094521202783,49.26647701376619 L-2.7267185742620974,49.23463271490284 L-2.1238327567609865,49.20907270598646 L-1.5106694411338626,49.18992067516666 L-0.8901958030244864,49.17726930156811 L-0.26541439366135033,49.171179806804446 L0.36065138987144235,49.17168165871904 L0.9849719352390603,49.17877242878634 L1.6045260755371793,49.19241780386382 L2.2163157091047307,49.212551752237665 L2.817380307720983,49.23907684315867 L3.4048112429799446,49.271864718322085 L3.975765861514929,49.31075671300985 L4.527481240961475,49.355564623889464 L5.057287560091756,49.406071619753924 L5.313169149934965,49.433386942327424 L5.562621018420691,49.46203329079568 L5.805341291853366,49.491975998835564 L6.0410362427641395,49.52317883133693 L6.269420645364606,49.555604028252446 L6.490218120712241,49.58921235029286 L6.70316147116984,49.62396312641235 L6.907993003754227,49.65981430302648 L7.104464841982917,49.6967224949033 L7.292339225841355,49.73464303766589 L7.471388799507747,49.77353004184286 L7.641396886487269,49.813336448401415 L7.802157751822687,49.854014085695745 L7.953476851064138,49.895513727761845 L8.095171065696718,49.93778515388824 L8.227068924740989,49.980777209390475 L8.349010812258257,50.024437867515836 L8.460849160509497,50.068714292403435 L8.562448628534147,50.11355290302344 L8.653686265932738,50.158899438018054 L8.734451661655058,50.20469902136576 L8.804647077613879,50.250896228789465 L8.864187566962519,50.29743515482807 L8.913001076893098,50.344259480490365 L8.933366245567678,50.367760972184406 L8.9510285358311,50.39131254140931 L8.965982603782562,50.414907062404616 L8.978223924920737,50.43853739641437 L8.987748795512708,50.462196393847044 L8.994554333714568,50.485876896438704 L8.998638480443347,50.509571739418824 L9.000000000000014,50.53327375367803 " />
			<path d="M9.000000000000014,50.533273753678046 L8.997289368265852,50.56671575773084 L8.989159105846566,50.600137617570866 L8.975614110108227,50.63351920111949 L8.956662540049786,50.66684040055899 L8.932315811388404,50.70008114444479 L8.902588589683043,50.73322140979572 L8.867498781500485,50.76624123415513 L8.827067523629088,50.79912072761552 L8.781319170346771,50.83184008479946 L8.73028127875091,50.864379596789654 L8.673984592158973,50.896719663000795 L8.612463021589894,50.92884080298629 L8.545753625337344,50.96072366817248 L8.473896586647202,50.99234905351355 L8.396935189512664,51.02369790905994 L8.314915792601594,51.05475135143327 L8.135903638111005,51.115897364143954 L7.9372913791352095,51.17563978554522 L7.7195574900024635,51.2338346909111 L7.483226510722921,51.290341883617295 L7.228867783325819,51.34502523288713 L6.957094080264647,51.39775300174252 L6.668560128194647,51.448398164369884 L6.363961030678943,51.49683871213646 L6.044030593623179,51.54295794751978 L5.709539557472824,51.586644765242255 L5.361293740431916,51.62779391993346 L5.000132097176435,51.66630627967552 L4.6269246977390095,51.70208906482051 L4.242570631433995,51.735056071504836 L3.847995840872554,51.765127879321824 L3.4441508912858225,51.79223204265245 L3.032008680529995,51.81630326519322 L2.6125620952901754,51.83728355726063 L2.18682161912939,51.855122375493444 L1.7558128981451693,51.86977674461604 L1.3205742700982699,51.88121136096963 L0.8821542629660611,51.889398677561864 L0.4416090689467773,51.89431897042995 L1.4761945774818312e-14,51.8959603861574 L-0.44160906894674784,51.89431897042995 L-0.8821542629660316,51.889398677561864 L-1.3205742700982406,51.88121136096963 L-1.7558128981451395,51.86977674461604 L-2.186821619129361,51.855122375493444 L-2.612562095290145,51.83728355726063 L-3.032008680529965,51.81630326519322 L-3.444150891285793,51.79223204265245 L-3.847995840872526,51.765127879321824 L-4.242570631433965,51.735056071504836 L-4.62692469773898,51.70208906482051 L-5.000132097176404,51.66630627967552 L-5.361293740431882,51.62779391993346 L-5.7095395574727945,51.586644765242255 L-6.044030593623152,51.54295794751978 L-6.363961030678913,51.49683871213646 L-6.668560128194616,51.448398164369884 L-6.957094080264619,51.39775300174252 L-7.228867783325791,51.34502523288713 L-7.4832265107228935,51.290341883617295 L-7.719557490002434,51.2338346909111 L-7.93729137913518,51.17563978554522 L-8.135903638110975,51.115897364143954 L-8.314915792601566,51.05475135143327 L-8.396935189512636,51.02369790905994 L-8.473896586647173,50.99234905351355 L-8.545753625337316,50.96072366817248 L-8.612463021589866,50.92884080298629 L-8.673984592158945,50.896719663000795 L-8.730281278750882,50.864379596789654 L-8.781319170346741,50.83184008479946 L-8.82706752362906,50.79912072761552 L-8.867498781500457,50.76624123415513 L-8.902588589683013,50.73322140979572 L-8.932315811388376,50.70008114444479 L-8.956662540049757,50.66684040055899 L-8.975614110108198,50.63351920111949 L-8.989159105846538,50.600137617570866 L-8.997289368265823,50.56671575773084 L-8.999999999999986,50.53327375367805 " />
			<path d="M-8.999999999999986,50.533273753678046 L-8.996320229477831,50.4943104556432 L-8.985283926958274,50.455379018940704 L-8.96690011712147,50.41651127884903 L-8.94118383290109,50.377739018560234 L-8.90815610319149,50.33909394318999 L-8.86784393565183,50.300607653851436 L-8.820280294621172,50.26231162181414 L-8.76550407416267,50.22423716276917 L-8.703560066258852,50.186415411221425 L-8.634498924184003,50.148877295030104 L-8.558377121083645,50.111653510118195 L-8.47525690379492,50.07477449537157 L-8.385206241945689,50.038270407748314 L-8.288298772373944,50.00217109761856 L-8.184613738912999,49.96650608435502 L-8.074235927591683,49.931304532194254 L-7.957255597302528,49.89659522638826 L-7.8337684059946575,49.862406549666 L-7.703875332451727,49.828766459024095 L-7.567682593718861,49.79570246286564 L-7.276848654819587,49.73141041006285 L-6.962217685627468,49.66974064160098 L-6.624818604436685,49.61089483232827 L-6.265754786696796,49.55506542207306 L-5.8862004567119115,49.50243498631961 L-5.487396847647284,49.453175639142756 " />
			<path d="M-4.938657162882497,49.56118545059628 L-4.4803604611358825,49.51155188153916 L-4.000382722548398,49.46686255519268 L-3.501046620736012,49.4273337289181 L-2.9847685069082486,49.393156687757376 L-2.454046716835886,49.36449681878036 L-1.911449481084886,49.34149281075562 L-1.3596024970204748,49.3242559830178 L-0.8011762227220364,49.31286974677911 L-0.23887295429521385,49.30738920149181 L0.32458625088429954,49.30784086821494 L0.8864747417151557,49.31422256127551 L1.4440734679834628,49.32650339884524 L1.9946841381942588,49.3446239523817 L2.5356422769488858,49.36849653421061 L3.0643301186819514,49.39800562185768 L3.5781892753634374,49.43300841707667 L4.074733116865329,49.47333553686832 L4.551558804082581,49.51879183314633 L5.006358916578623,49.569157337083915 L5.4369326184877265,49.62418832357104 L5.642478580828147,49.653371000795005 L5.841196308641018,49.68361849063138 L6.0328453240528574,49.71489418913892 L6.217193703378806,49.74716024809163 L6.394018357784626,49.780377620780776 L6.56310530325722,49.81450610926711 L6.724249919556974,49.84950441302638 L6.877257197838543,49.88533017892908 L7.02194197664042,49.92194005249397 L7.158129165957725,49.95928973035347 L7.285653959127047,49.997334013867224 L7.404362032266891,50.03602686381924 L7.514109731032433,50.07532145613205 L7.614764244458548,50.115170238530894 L7.706203765680734,50.1555249880889 L7.788317639339465,50.19633686958405 L7.861006495489553,50.23755649459699 L7.924182369852493,50.27913398127833 L7.9777688102662685,50.32101901471307 L8.021700969203788,50.36316090780913 L8.055925682247992,50.40550866263619 L8.069384343404307,50.42674373153196 L8.080401532428665,50.44801103214074 L8.088973915961438,50.46930412983014 L8.095098900343112,50.490616582162644 L8.098774632399014,50.51194194084475 L8.100000000000014,50.53327375367803 " />
			<path d="M8.100000000000014,50.533273753678046 L8.097560431439268,50.56337155732556 L8.09024319526191,50.59345123118159 L8.078052699097405,50.62349465637534 L8.060996286044809,50.6534837358709 L8.039084230249564,50.68340040536812 L8.01232973071474,50.713226644183955 L7.980748903350438,50.74294448610742 L7.94436077126618,50.77253603022177 L7.903187253312096,50.80198345168732 L7.85725315087582,50.831269012478494 L7.806586132943076,50.86037507206852 L7.751216719430905,50.88928409805546 L7.691178262803611,50.91797867672303 L7.626506927982482,50.946441523530005 L7.483424213341436,51.002603591657746 L7.322313274299905,51.05763500309736 L7.14356224122169,51.1114031823585 L6.947601741002218,51.16377859718779 L6.734903859650631,51.21463507062337 L6.505981004993238,51.26385008496622 L6.261384672238184,51.31130507693607 L6.001704115375183,51.3568857233007 L5.727564927611049,51.40048221629061 L5.439627534260863,51.44198952813561 L5.138585601725542,51.48130766408583 L4.825164366388725,51.51834190330792 L4.500118887458792,51.55300302707577 L4.164232227965109,51.58520753370627 L3.818313568290596,51.61487783972216 L3.4631962567852996,51.64194246675744 L3.099735802157242,51.66633621375501 L2.7288078124769966,51.6880003140417 L2.351305885761159,51.70688257690237 L1.9681394572164523,51.722937513311905 L1.5802316083306536,51.736126445522245 L1.1885168430884443,51.74641760024048 L0.7939388366694564,51.75378618517348 L0.39744816205210104,51.758214448754764 L1.4706836668856683e-14,51.759691722909466 L-0.3974481620520716,51.758214448754764 L-0.793938836669427,51.75378618517348 L-1.188516843088415,51.74641760024048 L-1.580231608330624,51.736126445522245 L-1.968139457216423,51.722937513311905 L-2.3513058857611293,51.70688257690237 L-2.7288078124769672,51.6880003140417 L-3.0997358021572126,51.66633621375501 L-3.4631962567852717,51.64194246675744 L-3.818313568290567,51.61487783972216 L-4.16423222796508,51.58520753370627 L-4.500118887458761,51.55300302707577 L-4.825164366388692,51.51834190330792 L-5.138585601725513,51.48130766408583 L-5.439627534260835,51.44198952813561 L-5.72756492761102,51.40048221629061 L-6.001704115375152,51.3568857233007 L-6.261384672238155,51.31130507693607 L-6.5059810049932105,51.26385008496622 L-6.734903859650603,51.21463507062337 L-6.947601741002189,51.16377859718779 L-7.143562241221661,51.1114031823585 L-7.322313274299875,51.05763500309736 L-7.483424213341408,51.002603591657746 L-7.6265069279824536,50.946441523530005 L-7.691178262803582,50.91797867672303 L-7.751216719430877,50.88928409805546 L-7.806586132943048,50.86037507206852 L-7.857253150875792,50.831269012478494 L-7.903187253312066,50.80198345168732 L-7.944360771266152,50.77253603022177 L-7.98074890335041,50.74294448610742 L-8.012329730714711,50.713226644183955 L-8.039084230249536,50.68340040536812 L-8.06099628604478,50.6534837358709 L-8.078052699097377,50.62349465637534 L-8.090243195261882,50.59345123118159 L-8.09756043143924,50.56337155732556 L-8.099999999999985,50.53327375367805 " />
			<path d="M-8.099999999999985,50.533273753678046 L-8.096688206530045,50.49820678544668 L-8.086755534262446,50.46316849241443 L-8.070210105409322,50.428187526331925 L-8.04706544961098,50.393292492072014 L-8.017340492872341,50.3585119242388 L-7.981059542086646,50.3238742638341 L-7.938252265159053,50.28940783500053 L-7.888953666746403,50.25514082186006 L-7.833204059632965,50.22110124546708 L-7.7710490317656005,50.187316940894895 L-7.7025394089752774,50.15381553447418 L-7.627731213415426,50.120624421202216 L-7.546685617751118,50.08777074234129 L-7.459468895136547,50.0552813632245 L-7.366152365021697,50.02318285128732 L-7.2668123348325135,49.99150145434263 L-7.161530037572274,49.96026307911724 L-7.0503915653951905,49.929493270067205 L-6.810914334346974,49.869459591946885 L-6.549163789337626,49.81159674442437 L-6.2659959170647195,49.75609395280868 L-5.962336743993015,49.70313272446325 L-5.639179308027114,49.65288625523356 L-5.297580411040719,49.60551886305545 L-4.938657162882555,49.561185450596284 " />
			<path d="M-8.999999999999988,50.533273753678046 L-8.999999999999988,44.602447124328194 " />
			<path d="M9.000000000000014,50.533273753678046 L9.000000000000014,44.602447124328194 " />

        </g>
        </g>
    </svg>
    