<?xml version="1.0" encoding="UTF-8" standalone="no"?>
    <svg
    xmlns:svg="http://www.w3.org/2000/svg"
    xmlns="http://www.w3.org/2000/svg"
    width="408"
    height="211"
    >
        <g transform="scale(4, -4)   translate(53.72303151778279,-27.876498055023628)" stroke-width="0.25"  fill="none">
        <!-- hidden lines -->
        <g  stroke="rgb(160,160,160)" fill="none" stroke-dasharray="0.25,0.25" >
    			<path d="M2.118690223517249,6.654951337271271 L2.118690223517249,7.556043319465604 " />
			<path d="M-17.09789474210028,4.2514290633671585 L-17.09789474210028,5.152521045561492 " />
			<path d="M2.118690223517249,6.654951337271271 L-17.097894742100284,4.251429063367158 " />
			<path d="M-17.09789474210028,4.2514290633671585 L-21.905963616117287,-4.166791205088495 " />
			<path d="M11.719137441100766,-7.777966925735929 L11.719137441100766,-6.876874943541596 " />
			<path d="M-1.2120295624832624,-9.395337961031604 L11.719137441100768,-7.77796692573593 " />
			<path d="M-1.2120295624832624,-8.49424597883727 L11.719137441100768,-6.876874943541596 " />
			<path d="M11.719137441100766,-7.777966925735929 L14.971587405448117,-2.0834061926381757 " />
			<path d="M11.719137441100766,-6.876874943541596 L14.518852540103886,-1.9749862622676704 " />
			<path d="M16.52720631511777,0.6402533427197323 L2.1186902235172456,6.654951337271274 " />
			<path d="M31.987222253251673,13.85657099364621 L31.987222253251673,17.46093892242354 " />
			<path d="M31.987222253251673,13.85657099364621 L17.847644026701122,13.739952005955862 " />
			<path d="M32.25616011830165,7.725254011404319 L32.25616011830165,11.32962194018165 " />
			<path d="M26.43081306987006,7.677208301352134 L32.25616011830166,7.725254011404319 " />
			<path d="M26.43081306987006,11.281576230129463 L32.25616011830166,11.32962194018165 " />
			<path d="M32.25616011830165,7.725254011404319 L31.987222253251677,13.85657099364621 " />
			<path d="M32.25616011830165,11.32962194018165 L32.151056364088916,13.72580528529068 " />
			<path d="M-16.546430614031348,19.068854179663298 L-16.546430614031348,25.376498055023625 " />
			<path d="M-16.546430614031348,19.068854179663298 L-23.383312704133793,13.700668420541705 " />
			<path d="M-4.166727738516267,16.104190694445816 L-16.54643061403135,19.068854179663298 " />
			<path d="M-37.63491741930117,-0.1590774138668502 L-35.18066747588719,0.48264580998962164 " />
			<path d="M-39.11226650731768,6.615667751857121 L-39.11226650731768,15.626587573800448 " />
			<path d="M-31.809570370869576,1.3641009804258706 L-39.11226650731768,6.615667751857119 " />
			<path d="M-39.11226650731768,6.615667751857121 L-51.22303151778279,3.4490142548327114 " />
			<path d="M-23.495339192750617,-11.13517288608274 L-23.495339192750617,0.579022882443585 " />
			<path d="M-23.226401327700643,-17.26648986832463 L-23.495339192750613,-11.13517288608274 " />
			<path d="M-23.495339192750617,-11.13517288608274 L-37.63491741930117,-11.251791873773087 " />
			<path d="M5.624852527619191,-14.262542797692996 L5.624852527619191,0.15492891741632775 " />
			<path d="M18.004555403134272,-17.227206282910476 L5.624852527619193,-14.262542797692992 " />
			<path d="M5.624852527619191,-14.262542797692996 L-1.2120295624832622,-19.63072855681459 " />
			<path d="M38.54157808033517,-1.7239853457702243 L38.54157808033517,15.396762315922096 " />
			<path d="M45.84427421678327,-6.975552117201469 L38.541578080335164,-1.723985345770223 " />
			<path d="M38.54157808033517,-1.7239853457702243 L26.430813069870062,-4.890638842794634 " />

        </g>

        <!-- solid lines -->
        <g  stroke="rgb(0,0,0)" fill="none">
    			<path d="M2.118690223517249,7.556043319465603 L-17.097894742100284,5.15252104556149 " />
			<path d="M-21.905963616117287,-4.1667912050884945 L-21.905963616117287,-3.265699222894162 " />
			<path d="M-17.09789474210028,5.152521045561492 L-21.905963616117287,-3.2656992228941624 " />
			<path d="M-7.497447524516765,-10.181489199640042 L-7.497447524516765,-9.28039721744571 " />
			<path d="M-21.905963616117287,-4.1667912050884945 L-7.497447524516763,-10.18148919964004 " />
			<path d="M-21.905963616117287,-3.2656992228941624 L-7.497447524516763,-9.280397217445708 " />
			<path d="M-7.497447524516765,-10.181489199640042 L-1.2120295624832624,-9.395337961031604 " />
			<path d="M-7.497447524516765,-9.280397217445708 L-1.2120295624832624,-8.49424597883727 " />
			<path d="M16.52720631511777,0.6402533427197323 L16.52720631511777,1.5413453249140652 " />
			<path d="M14.971587405448117,-2.0834061926381757 L16.52720631511777,0.6402533427197327 " />
			<path d="M14.518852540103886,-1.9749862622676704 L16.52720631511777,1.5413453249140658 " />
			<path d="M16.52720631511777,1.541345324914065 L2.1186902235172456,7.556043319465607 " />
			<path d="M17.847644026701126,13.739952005955862 L17.847644026701126,17.344319934733193 " />
			<path d="M31.987222253251673,17.46093892242354 L17.847644026701122,17.344319934733193 " />
			<path d="M18.116581891751103,7.608635023713973 L18.116581891751103,11.213002952491303 " />
			<path d="M17.847644026701126,13.739952005955862 L18.1165818917511,7.608635023713973 " />
			<path d="M17.847644026701126,17.344319934733193 L18.1165818917511,11.213002952491303 " />
			<path d="M18.116581891751103,7.608635023713973 L26.43081306987006,7.677208301352134 " />
			<path d="M18.116581891751103,11.213002952491303 L26.43081306987006,11.281576230129463 " />
			<path d="M32.151056364088916,13.72580528529068 L31.987222253251677,17.46093892242354 " />
			<path d="M-23.383312704133793,13.700668420541703 L-23.383312704133793,20.00831229590203 " />
			<path d="M-16.546430614031348,25.376498055023628 L-23.383312704133793,20.008312295902034 " />
			<path d="M-11.003609828618714,10.736004935324225 L-11.003609828618714,17.04364881068455 " />
			<path d="M-23.383312704133793,13.700668420541703 L-11.003609828618712,10.736004935324223 " />
			<path d="M-23.383312704133793,20.008312295902034 L-11.003609828618712,17.043648810684555 " />
			<path d="M-4.166727738516267,16.104190694445816 L-4.166727738516267,22.411834569806146 " />
			<path d="M-11.003609828618714,10.736004935324225 L-4.166727738516267,16.10419069444582 " />
			<path d="M-11.003609828618714,17.043648810684555 L-4.166727738516267,22.41183456980615 " />
			<path d="M-4.166727738516267,22.411834569806146 L-16.54643061403135,25.376498055023628 " />
			<path d="M-51.22303151778279,3.449014254832708 L-51.22303151778279,12.459934076776035 " />
			<path d="M-43.92033538133469,-1.8025525165985383 L-43.92033538133469,7.2083673053447885 " />
			<path d="M-51.22303151778279,3.449014254832708 L-43.92033538133469,-1.8025525165985385 " />
			<path d="M-51.22303151778279,12.459934076776035 L-43.92033538133469,7.2083673053447885 " />
			<path d="M-31.809570370869576,1.3641009804258706 L-31.809570370869576,10.375020802369198 " />
			<path d="M-43.92033538133469,-1.8025525165985383 L-37.63491741930117,-0.1590774138668502 " />
			<path d="M-35.18066747588719,0.48264580998962164 L-31.80957037086958,1.3641009804258701 " />
			<path d="M-43.92033538133469,7.2083673053447885 L-31.80957037086958,10.375020802369198 " />
			<path d="M-31.809570370869576,10.375020802369198 L-39.11226650731768,15.626587573800446 " />
			<path d="M-39.11226650731768,15.62658757380045 L-51.22303151778279,12.45993407677604 " />
			<path d="M-37.36597955425119,-17.383108856014978 L-37.36597955425119,-5.668913087488653 " />
			<path d="M-23.226401327700643,-17.26648986832463 L-23.226401327700643,-5.552294099798305 " />
			<path d="M-37.36597955425119,-17.383108856014978 L-23.22640132770064,-17.26648986832463 " />
			<path d="M-37.36597955425119,-5.668913087488653 L-23.22640132770064,-5.552294099798306 " />
			<path d="M-23.226401327700643,-5.552294099798305 L-23.495339192750613,0.5790228824435847 " />
			<path d="M-37.63491741930117,-11.251791873773087 L-37.63491741930117,0.46240389475323873 " />
			<path d="M-23.495339192750617,0.5790228824435852 L-37.63491741930117,0.46240389475323973 " />
			<path d="M-37.63491741930117,-11.251791873773087 L-37.3659795542512,-17.383108856014978 " />
			<path d="M-37.63491741930117,0.46240389475323895 L-37.3659795542512,-5.668913087488652 " />
			<path d="M11.16767331303182,-22.59539204203207 L11.16767331303182,-8.177920326922747 " />
			<path d="M18.004555403134272,-17.227206282910476 L18.004555403134272,-2.8097345678011525 " />
			<path d="M11.16767331303182,-22.59539204203207 L18.004555403134272,-17.227206282910476 " />
			<path d="M11.16767331303182,-8.177920326922747 L18.004555403134272,-2.809734567801154 " />
			<path d="M18.004555403134272,-2.8097345678011543 L5.624852527619193,0.15492891741632903 " />
			<path d="M-1.2120295624832629,-19.630728556814585 L-1.2120295624832629,-5.213256841705261 " />
			<path d="M5.624852527619191,0.15492891741632797 L-1.2120295624832622,-5.213256841705264 " />
			<path d="M-1.2120295624832629,-19.630728556814585 L11.16767331303182,-22.59539204203207 " />
			<path d="M-1.2120295624832629,-5.213256841705261 L11.16767331303182,-8.177920326922745 " />
			<path d="M45.84427421678327,-6.975552117201469 L45.84427421678327,10.14519554449085 " />
			<path d="M45.84427421678327,10.145195544490852 L38.541578080335164,15.396762315922098 " />
			<path d="M26.43081306987006,-4.890638842794635 L26.43081306987006,12.230108818897685 " />
			<path d="M38.54157808033517,15.396762315922096 L26.430813069870062,12.230108818897687 " />
			<path d="M33.73350920631817,-10.142205614225881 L33.73350920631817,6.978542047466439 " />
			<path d="M26.43081306987006,-4.890638842794635 L33.73350920631816,-10.142205614225881 " />
			<path d="M26.43081306987006,12.230108818897687 L33.73350920631816,6.978542047466441 " />
			<path d="M33.73350920631817,-10.142205614225881 L45.844274216783276,-6.97555211720147 " />
			<path d="M33.73350920631817,6.978542047466441 L45.844274216783276,10.145195544490852 " />

        </g>
        </g>
    </svg>
    