<?xml version="1.0" encoding="UTF-8" standalone="no"?>
    <svg
    xmlns:svg="http://www.w3.org/2000/svg"
    xmlns="http://www.w3.org/2000/svg"
    width="500.0"
    height="220.0"
    >
        <g transform="scale(2.4254944248554398, -2.4254944248554398)   translate(60.69141323345677,-39.62953686737606)" stroke-width="0.4122870742362561"  fill="none">
        <!-- hidden lines -->
        <g  stroke="rgb(160,160,160)" fill="none" stroke-dasharray="0.4122870742362561,0.4122870742362561" >
    			<path d="M-14.078211748195752,18.084542044472276 L5.361457863103913e-09,23.986251297305262 " />
			<path d="M15.029801004416612,17.685627525855192 L5.3614404716437e-09,23.986251297305262 " />
			<path d="M22.362526588245288,1.6181992933474663 L22.273898059743985,1.8025842509786423 L22.176954371421076,1.9862505450153787 L22.071741747356032,2.1691329987247023 L21.958308804742824,2.3511669800708317 L21.836706553889936,2.532288401715179 L21.706988398220364,2.7124337210163483 L21.569210134271607,2.891539940030136 L21.42342995147935,3.069544605594086 L21.26970826521714,3.2463858741679736 L21.108107754216675,3.422002485974312 L20.938693392192373,3.596333737017766 L20.761532320790785,3.7693195268592694 L20.5766938495906,3.9409003586160214 L20.384249456102655,4.1110173389614895 L20.184272785769902,4.279612178125406 L19.97683965179399,4.446627189960135 L19.762027886404198,4.612005347412728 L19.53991738338166,4.7756902555031715 L19.31059013242021,4.937626130820323 L19.074130103389294,5.097757845504678 L18.830623246333964,5.256030927248363 L18.580157491474882,5.412391559295141 L18.322822749208324,5.566786580440408 L18.05871091009662,5.719163485035019 L17.78791571618635,5.869470471983477 L17.510532793009965,6.017656421222916 L17.22665970259888,6.163670873719734 L16.93639583009166,6.307464078327496 L16.639842383734006,6.448986991786932 L16.337102394878784,6.588191278725943 L16.02828071798601,6.72502931165959 L15.713484030622865,6.859454170990095 " />
			<path d="M15.713484030622839,6.859454170990105 L15.392461033820219,6.99156500255288 L15.065668858627356,7.121165435788893 L14.733219806254196,7.2482106022538275 L14.395227873795728,7.372656401296003 L14.051808754231995,7.49445950005638 L13.70307983642809,7.61357733346856 L13.349160205134156,7.7299681042587824 L12.990170640985387,7.843590782945927 L12.626233513152982,7.954405153517747 L12.25747281372064,8.062371796853546 L11.884014228027453,8.167452071102675 L11.505985011788505,8.269608168457923 L11.12351399097967,8.368803115206184 L10.736731561837642,8.465000771728443 L10.345769690859907,8.55816583249978 L9.950761914804762,8.648263826089378 L9.551843238667058,8.735261162332836 L9.149150176631048,8.81912512147806 L8.742820824738457,8.89982383276265 L8.332994724977713,8.977326338493437 L7.919812864981268,9.051602594185535 L7.503417678025595,9.122623468562333 L7.083953043031182,9.190360743555507 L6.661564284562541,9.254787114305016 L6.236398060647325,9.315876241683723 L5.808602424955339,9.373602741098065 L5.378326891339627,9.427942165482703 L4.945722278789196,9.478871075536084 L4.510940711172375,9.526367039835993 L4.074135617236813,9.570408634839543 L3.6354617306094847,9.61097544488318 L3.195075089796716,9.648048062182683 " />
			<path d="M3.19507508979669,9.648048062182683 L2.6610408984310086,9.664047045622587 L2.126188525072341,9.674804726397765 L1.5908136194849303,9.680326755039898 L1.0552098107630894,9.680621368772048 L0.5196686989122324,9.675699356088021 L-0.015520153570093093,9.665574021331738 L-0.5500692301131711,9.650261149276579 L-1.0836930684920925,9.629778969704772 L-1.6161082692467132,9.604148121986727 L-2.1470335041006288,9.573391619660423 L-2.67618952438014,9.537534815010753 L-3.2032996749604354,9.496605337057302 L-3.728090805041599,9.450633022622537 L-4.250291391912004,9.399649981582762 L-4.769632528542387,9.343690503903881 L-5.285847992802999,9.282791031003452 L-5.798674240903199,9.216990131536814 L-6.307850400831028,9.146328477183213 L-6.813118265792796,9.07084881843192 L-7.314222493813425,8.990595927898733 L-7.810910859910235,8.905616563340217 L-8.302933879273278,8.815959483240057 L-8.790045066291775,8.721675371613312 L-9.272000941411465,8.622816836610278 L-9.748561069040933,8.519438401337785 L-10.219488835095165,8.411596285037273 L-10.684549835104844,8.299348737920496 L-11.143512609770708,8.182755905739306 L-11.596149169061924,8.061879686611926 L-12.042234969194086,7.936783711945277 L-12.48154889466193,7.807533330293272 L-12.913873245326798,7.674195594151094 L-13.338993728558808,7.5368392496854435 L-13.756699456433774,7.395534729400764 L-14.166782947984839,7.250354147741447 L-14.569040136508853,7.101371299630005 L-14.963270381927492,6.948661661941224 L-15.349276488203063,6.792302397912296 L-15.726865432748694,6.632372058346143 L-16.09584890115827,6.468950292844974 L-16.45604075241445,6.302118947771238 L-16.807258779919046,6.131961358180475 L-17.149324794065333,5.958562299260256 L-17.482064614956933,5.782007980009293 L-17.805308072130323,5.602386039035543 L-18.118889011280974,5.419785542473301 L-18.42264530799306,5.234296984019277 L-18.71641888847283,5.046012287087659 L-19.000055757285516,4.855024809084163 L-19.138025924825442,4.758547095006637 L-19.273406032095938,4.661429347799074 L-19.406177993325574,4.563683643641852 L-19.536323985412665,4.46532214991927 L-19.6638264496128,4.366357125601433 L-19.78866811929397,4.266800901884065 L-19.910832152757173,4.166665773399281 L-20.030301867479107,4.065964195638602 L-20.147060838015584,3.9647087243850447 L-20.261092925792514,3.8629119941819487 L-20.37238227910591,3.7605867183329744 L-20.480913333121897,3.6577456889021045 L-20.586670809876697,3.5544017767136418 L-20.689639718276638,3.4505679313522117 L-20.78980535409815,3.34625718116276 L-20.887153299987766,3.241482633250556 L-20.981669427464393,3.136257471733308 L-21.07333993736017,3.0305949288291765 L-21.162151309441295,2.9245083401890213 L-21.248090312582754,2.818011126354715 L-21.331144021844654,2.7111167775199645 L-21.411299820277254,2.603838853616258 L-21.48854540072599,2.496190984398804 L-21.562868767636502,2.3881868695324777 L-21.634258238859665,2.279840278677764 L-21.702702447456616,2.171165051576699 L-21.768190343503782,2.062175098138817 L-21.830711195897912,1.95288439852709 L-21.89025459416109,1.843307003243876 L-21.946810450245778,1.7334570332168713 " />
			<path d="M-56.5685424910942,-8.806674333291063 L5.361457863103913e-09,14.907352456102322 " />
			<path d="M5.361443289331191e-09,14.907352456102316 L5.361443289331191e-09,23.98625129730526 " />
			<path d="M56.56854249875341,-8.806674334575384 L5.3614404716437e-09,14.90735245610232 " />
			<path d="M3.195075089796678,9.648048062182687 L1.1785113060305765,35.506666025013494 " />

        </g>

        <!-- solid lines -->
        <g  stroke="rgb(0,0,0)" fill="none">
    			<path d="M2.297762424774419e-09,-32.52070112396876 L2.297762424774419e-09,-23.44180228276582 " />
			<path d="M2.297762424774419e-09,-23.44180228276582 L-56.568542491094206,0.27222450791188235 " />
			<path d="M-56.5685424910942,-8.806674333291063 L-56.5685424910942,0.27222450791187924 " />
			<path d="M2.297762424774419e-09,-32.52070112396876 L-56.568542491094206,-8.80667433329106 " />
			<path d="M2.297762424774419e-09,-32.52070112396876 L56.568542498753416,-8.806674334575378 " />
			<path d="M56.56854249875341,-8.806674334575384 L56.56854249875341,0.27222450662755904 " />
			<path d="M2.297762424774419e-09,-23.44180228276582 L56.568542498753416,0.27222450662756387 " />
			<path d="M-56.5685424910942,0.27222450791187924 L-14.078211748195752,18.084542044472276 " />
			<path d="M56.56854249875341,0.27222450662755904 L15.029801004416612,17.685627525855192 " />
			<path d="M22.365525601446187,1.6116278720085768 L22.363928023009283,1.6151314645392338 " />
			<path d="M22.363928023009283,1.6151314645392338 L22.362526588245288,1.6181992933474663 " />
			<path d="M-21.946810450245785,1.7334570332168533 L-22.02941113934403,1.5607868796111217 L-22.104614330366942,1.3875370711229102 L-22.172386156151937,1.2137626980301448 L-22.232694694022523,1.039519543289975 L-22.285510060160227,0.8648638073505813 L-22.330804461294065,0.6898520198798344 L-22.36855221966283,0.5145410387226326 L-22.39872979797742,0.33898804885822353 L-22.421315824383132,0.16325056135752494 L-22.43629111742195,-0.012613587659537493 L-22.44363871099488,-0.18854623806670814 L-22.44334387932423,-0.3644889067740823 L-22.43539416191593,-0.5403827887707651 L-22.41977938852182,-0.7161687581675537 L-22.396491704101972,-0.8917873692396134 L-22.365525593786987,-1.067178857469103 " />
			<path d="M-22.36552559378698,-1.0671788574691412 L-22.277090951450894,-1.2517926248461329 L-22.18032110001424,-1.4356884090133597 L-22.07526231044299,-1.618800778501186 L-21.96196329847844,-1.8010648591734897 L-21.840475201017497,-1.982416333008192 L-21.710851552492997,-2.1627914368777876 L-21.57314826125401,-2.3421269613298725 L-21.427423585946133,-2.5203602493676738 L-21.273738111891824,-2.6974291952305767 L-21.11215470371695,-2.873272266933124 L-20.942738416502735,-3.0478286045138185 L-20.765556596643993,-3.221037892333703 L-20.580678762238648,-3.3928404156379925 L-20.388176589203507,-3.5631770713837283 L-20.18812391127427,-3.7319893682397765 L-19.98059672000554,-3.8992194265868303 L-19.765672909916216,-4.064810146231782 L-19.543432519500165,-4.228704970059789 L-19.313957895146352,-4.390847802463355 L-19.077333366863286,-4.551183244526959 L-18.833645229053644,-4.70965658991341 L-18.58298172352754,-4.866213821385524 L-18.32543302471197,-5.020801607994086 L-18.06109122705646,-5.173367302932146 L-17.790050334634802,-5.323858942055604 L-17.512406252943045,-5.472225243070113 L-17.228256782893574,-5.6184156053842855 L-16.937701617005427,-5.7623801106292065 L-16.6408423377907,-5.904069523844264 L-16.33778241833721,-6.043435295329273 L-16.028627225087227,-6.18042956316292 L-15.713484022812453,-6.3150051563875085 L-15.39246114335373,-6.44711593761406 L-15.065668644984616,-6.576716493189312 L-14.733219051501557,-6.703761856784698 L-14.39522653495777,-6.828207857867904 L-14.0518069080662,-6.950011119617329 L-13.703077618191903,-7.069129057757199 L-13.3491577429339,-7.185519880313334 L-12.990167987296433,-7.299142588289564 L-12.626230682449702,-7.409956977264801 L-12.257469786080014,-7.517923639910753 L-11.884010884329394,-7.623003969430307 L-11.505981195324626,-7.725160163916544 L-11.123509574295738,-7.8243552316324205 L-10.736726520283938,-7.920552997211094 L-10.345764184438973,-8.013718108776903 L-9.95075637983201,-8.103816046004821 L-9.551838020435373,-8.190813256059569 L-9.149145315705645,-8.27467708487887 L-8.742816334378865,-8.355375676139715 L-8.332990604396889,-8.432878078095605 L-7.919809112907389,-8.507154243576567 L-7.503414306263861,-8.578175029989143 L-7.083950064196835,-8.645912205136778 L-6.6615615648892295,-8.710338497361555 L-6.236395589601157,-8.771427553263573 L-5.808600288302655,-8.82915397494682 L-5.378325125908128,-8.883493339878527 L-4.94572088518534,-8.934422210790746 L-4.510939669664395,-8.981918145581938 L-4.074134906546724,-9.025959707218547 L-3.635461349614073,-9.066526473636594 L-3.1950750821375484,-9.103599047643243 " />
			<path d="M-3.19507508213748,-9.103599047643245 L-2.5563190930921524,-9.122118118544076 L-1.9164759173071602,-9.133142638619358 L-1.27605020251951,-9.13668357526793 L-0.6355424566465233,-9.132757158314929 L0.004550972807724749,-9.121384793369762 L0.6437379193459724,-9.102592975184129 L1.281530418071335,-9.076413201009993 L1.9174447262808674,-9.0428818839576 L2.551001344059129,-9.002040266353452 L3.181725480956559,-8.953934309544321 L3.8091490317383334,-8.898614524030732 L4.4328079746215225,-8.836136032449781 L5.0522435477977305,-8.766558414462622 L5.667002476437888,-8.68994563293061 L6.276636956644883,-8.606365974686033 L6.880704639406184,-8.51589199130283 L7.478769050976453,-8.418600375184482 L8.070399851182847,-8.31457190372828 L8.655172525621907,-8.203891382278956 L9.232668708183251,-8.0866475518585 L9.802476266002218,-7.962933068345972 L10.084370104934482,-7.898679252747615 L10.364190332991162,-7.832844190255855 L10.641887101378725,-7.76544055505658 L10.917411007144839,-7.696481247215612 L11.190713091074198,-7.625979391020388 L11.461744835815368,-7.553948333455834 L11.73045816423868,-7.480401642814436 L11.996805438025168,-7.40535310744051 L12.260739456486542,-7.328816734608658 L12.522213455616196,-7.250806749536431 L12.781181107371271,-7.1713375945311775 L13.037596519185742,-7.0904239282710915 L13.291414233714555,-7.008080625220457 L13.5425892288088,-6.924322775179089 L13.791076917721925,-6.839165682965962 L14.036833149546986,-6.752624868237044 L14.279814209884949,-6.664716065437319 L14.519976821744015,-6.575455223887008 L14.757278146669996,-6.484858508001984 L14.991675786107738,-6.392942297648384 L15.223127782993554,-6.299723188631414 L15.451592623578742,-6.2052179933183504 L15.677029712128887,-6.109443537923495 L15.899398910609813,-6.01241684053305 L16.118660114018677,-5.914155304072819 L16.33477373394986,-5.81467651731012 L16.54770069710882,-5.713998254089357 L16.7574024441461,-5.612138472664453 L16.963840928811397,-5.50911531512813 L17.166978617427795,-5.404947106938042 L17.366778488686084,-5.299652356539766 L17.563204033759217,-5.193249755086649 L17.756219256736852,-5.085758176256505 L17.945788675380037,-4.9771966761651685 L18.131877322196,-4.867584493376902 L18.31445074583305,-4.756941049011657 L18.4934750127956,-4.6452859469491905 L18.668916709479312,-4.532638974130036 L18.840742944526337,-4.419020100953323 L19.008921351500685,-4.304449481771464 L19.173420091883717,-4.188947455481681 L19.334207858389725,-4.072534546214394 L19.49125387860167,-3.955231464118465 L19.644527918926983,-3.8370591062432897 L19.794000319794623,-3.718038533911396 L19.939642202152342,-3.598190804269563 L20.081425100989783,-3.477537240829333 L20.219321088528396,-3.3560993636909795 L20.353302823752973,-3.2338988540509335 L20.483343552411657,-3.11095755420178 L20.609417107015954,-2.987297467532259 L20.73149790684071,-2.862940758527266 L20.84956095792413,-2.737909752767851 L20.96358185320171,-2.612226936810893 L21.073536822474384,-2.4859149210141127 L21.17940270133407,-2.358996491409422 L21.281156912479595,-2.2314946136593155 L21.37877750561136,-2.1034323959267858 L21.472243161846567,-1.9748330890855483 L21.561533198134498,-1.8457200869302668 L21.646627571671765,-1.7161169263867804 L21.72750688431756,-1.5860472877223284 L21.80415238700893,-1.455534994755777 L21.876545984176015,-1.324604015067845 L21.944670238157318,-1.1932784602113296 L22.008508373614955,-1.061582585921331 L22.06804428194992,-0.9295407923254813 L22.123262560531927,-0.7971775222645588 L22.174148505872495,-0.6645173290785966 L22.220688054829612,-0.5315850578979239 L22.262867844280237,-0.3984056676892688 L22.30067521817365,-0.26500422912226784 L22.33409823399021,-0.13140592429968348 L22.36312566920009,0.0023639535123749942 L22.387747027722035,0.13628000015423428 L22.40795254638209,0.2703167008424361 L22.423733201372364,0.40444843043952045 L22.435080714709766,0.538649453723804 L22.441987560694756,0.6728939256591636 L22.444446972370077,0.8071558916648149 L22.442452947979532,0.9414092878850947 L22.436000257426688,1.0756279414592422 L22.42508444873366,1.2097855707911784 L22.409701854499833,1.343855785819289 L22.389849598360613,1.4778120882862034 L22.36552560144619,1.6116278720085395 " />
			<path d="M8.249579117704572,32.54241267617878 L4.714045211867575,34.024539350596136 " />
			<path d="M22.365525601446187,1.6116278720085766 L22.341418945767465,1.664450244210512 " />
			<path d="M22.341418945767465,1.664450244210512 L8.249579117704572,32.54241267617878 " />
			<path d="M4.714045211867575,34.024539350596136 L1.1785113060305765,35.506666025013494 " />
			<path d="M-22.36552559378698,-1.0671788574691403 L-14.186572578955714,17.834123582461043 " />
			<path d="M-14.186572578955714,17.834123582461043 L-8.249579110045365,31.55432822678126 " />
			<path d="M-8.249579110045365,31.554328226781262 L1.1785113060305772,35.506666025013494 " />
			<path d="M-3.1950750821374787,-9.103599047643248 L-1.1785112983713693,28.59007487794655 " />
			<path d="M-1.1785112983713681,28.590074877946552 L-8.249579110045364,31.554328226781262 " />
			<path d="M-1.1785112983713697,28.590074877946552 L8.249579117704574,32.542412676178785 " />
			<path d="M22.34141894576746,1.6644502442105127 L22.36392802303321,1.6151314645318973 " />
			<path d="M-14.186572578955715,17.834123582461046 L-14.379287448829388,17.392435472030332 L-14.579692883297032,16.939961998192125 L-14.786861634399791,16.478252027845894 L-14.999961359051538,16.008674773086973 L-15.441098881021185,15.050496984691812 L-15.898344801971717,14.072789233686853 L-16.368444041167468,13.080064441970714 L-16.84882431876014,12.07577042139077 L-17.337529949586422,11.06253190262559 L-17.83314010532649,10.04208567782016 L-18.334477625278723,9.015840464898242 L-18.840609016359746,7.984876907562384 L-19.864675006330387,5.911570104365692 L-20.901070833027546,3.8267298456581726 L-21.946810455747666,1.7334570332042931 " />

        </g>
        </g>
    </svg>
    