<?xml version="1.0" encoding="UTF-8" standalone="no"?>
    <svg
    xmlns:svg="http://www.w3.org/2000/svg"
    xmlns="http://www.w3.org/2000/svg"
    width="350"
    height="287"
    >
        <g transform="scale(4, -4)   translate(43.855339155849826,-31.215538915422417)" stroke-width="0.25"  fill="none">
        <!-- hidden lines -->
        <g  stroke="rgb(160,160,160)" fill="none" stroke-dasharray="0.25,0.25" >
    			<path d="M-31.112698368599435,-14.811847537113387 L-31.271733068944318,-14.767634184998066 L-31.4363019979929,-14.725139206331463 L-31.606182126859974,-14.6844201916185 L-31.78114322875863,-14.645532324523012 L-31.960948191010694,-14.608528307081142 L-32.145353336389135,-14.573458288277914 L-32.33410875335696,-14.540369796083782 L-32.52695863475501,-14.509307673043267 L-32.72364162447976,-14.48031401550295 L-32.9238911716811,-14.453428116561213 L-33.12743589200031,-14.428686412817012 L-33.33399993535848,-14.406122434989884 L-33.543303359797065,-14.385766762478076 L-33.75506251086385,-14.367646981916407 L-33.96899040603017,-14.351787649790005 L-34.184797123618544,-14.338210259154604 L-34.40219019571341,-14.326933210508496 L-34.62087500452268,-14.317971786855601 L-34.84055518165287,-14.311338132993475 L-35.06093300975666,-14.307041239054302 L-35.28170982600862,-14.305086928321193 L-35.5025864268623,-14.305477849336294 L-35.72326347354007,-14.308213472311392 L-35.943441897706265,-14.313290089845914 L-36.16282330677383,-14.320700821951295 L-36.381110388295134,-14.330435625374967 L-36.59800731288896,-14.342481307211267 L-36.81322013515762,-14.356821542780887 L-37.0264571920508,-14.373436897754566 L-37.237429498136315,-14.392304854491103 L-37.4458511372421,-14.413399842553956 L-37.65143964993859,-14.436693273365087 L-37.85391641633645,-14.462153578949076 L-38.053007033680856,-14.489746254715026 L-38.24844168823056,-14.519433906218243 L-38.43995552091775,-14.551176299838335 L-38.62728898629328,-14.584930417305062 L-38.810188204270645,-14.62065051399802 L-38.98840530419207,-14.65828818094116 L-39.1616987607505,-14.69779241040812 L-39.32983372131213,-14.739109665049476 L-39.49258232419592,-14.782183950448204 L-39.6497240074788,-14.826956891005036 L-39.801045807907954,-14.87336780905088 L-39.94634264951519,-14.921353807079063 L-40.08541762154224,-14.970849852985967 L-40.21808224530026,-15.021788868204547 L-40.344156729601956,-15.074101818611272 L-40.463470214420184,-15.127717808083288 L-40.57586100244267,-15.18256417457904 L-40.681176778209235,-15.238566588612105 L-40.779274814534375,-15.295649153984808 L-40.870022165935545,-15.35373451064508 L-40.953295848805006,-15.41274393952719 L-41.02898300808096,-15.47259746923425 L-41.096981070192214,-15.53321398441792 L-41.15719788206908,-15.594511335708415 L-41.20955183603201,-15.656406451045882 L-41.25397198038889,-15.718815448262202 L-41.29039811559089,-15.781653748760695 L-41.31878087581681,-15.844836192139638 L-41.33908179587517,-15.908277151604272 L-41.35127336333333,-15.97189065001087 L-41.354322546578224,-16.003735166328816 L-41.3553390558033,-16.035590476385604 " />
			<path d="M-29.3553390558033,-16.03559047638561 L-29.357146143625982,-15.99311859529939 L-29.362566318571897,-15.950672297686205 L-29.371596315730333,-15.908277151608573 L-29.38423069576865,-15.86595869431723 L-29.40046184820875,-15.823742416868459 L-29.420279996011324,-15.781653748769227 L-29.443673201465177,-15.739718042659394 L-29.470627373378083,-15.697960559040249 L-29.501126275564758,-15.656406451058505 L-29.53515153662695,-15.615080749355004 L-29.57268266101969,-15.574008346987181 L-29.613697041397025,-15.533213984434425 L-29.658169972229835,-15.49272223469534 L-29.706074664687545,-15.45255748848588 L-29.757382262774687,-15.412743939547306 L-29.812061860712692,-15.373305570072773 L-29.870080521556364,-15.334266136261354 L-29.931403297033874,-15.2956491540082 L-29.995993248598275,-15.257477884739433 L-30.06381146967793,-15.219775321400347 L-30.20896739575939,-15.145866858957723 L-30.36652138193819,-15.074101818639958 L-30.536093866861535,-15.004653088715045 L-30.71727633556048,-14.937687977256354 L-30.909632303598237,-14.873367809082835 L-31.112698368599432,-14.811847537113389 " />
			<path d="M39.597979748645685,-35.207563192463645 L39.80104581364689,-35.269083464433095 L39.99340178168464,-35.33340363260662 L40.17458425038359,-35.400368744065304 L40.34415673530694,-35.46981747399022 L40.501710721485736,-35.54158251430798 L40.646866647567194,-35.61549097675061 L40.71468486864685,-35.653193540089696 L40.77927482021125,-35.69136480935846 L40.840597595688756,-35.729981791611614 L40.898616256532435,-35.76902122542303 L40.95329585447044,-35.80845959489757 L41.004603452557575,-35.848273143836145 L41.05250814501529,-35.8884378900456 L41.0969810758481,-35.92892963978469 L41.13799545622543,-35.96972400233744 L41.17552658061817,-36.01079640470527 L41.209551841680366,-36.05212210640877 L41.240050743867045,-36.09367621439051 L41.26700491577994,-36.135433698009656 L41.2903981212338,-36.17736940411949 L41.310216269036374,-36.21945807221872 L41.32644742147647,-36.261674349667494 L41.339081801514794,-36.30399280695883 L41.34811179867322,-36.34638795303647 L41.35353197361914,-36.38883425064965 L41.355339061441825,-36.431306131735866 " />
			<path d="M29.355339061441825,-36.43130613173587 L29.356355570666903,-36.39945082167908 L29.359404753911797,-36.36760630536113 L29.371596321369957,-36.30399280695453 L29.391897241428307,-36.2405518474899 L29.420280001654234,-36.177369404110955 L29.456706136856237,-36.114531103612464 L29.50112628121311,-36.05212210639615 L29.553480235176046,-35.99022699105868 L29.613697047052913,-35.92892963976818 L29.681695109164167,-35.86831312458451 L29.757382268440118,-35.80845959487745 L29.84065595130958,-35.74945016599534 L29.931403302710756,-35.69136480933507 L30.02950133903589,-35.63428224396237 L30.134817114802452,-35.5782798299293 L30.24720790282494,-35.52343346343355 L30.366521387643168,-35.469817473961534 L30.492595871944868,-35.41750452355481 L30.625260495702882,-35.36656550833623 L30.764335467729936,-35.31706946242932 L30.909632309337173,-35.26908346440114 L31.06095410976632,-35.2226725463553 L31.2180957930492,-35.177899605798466 L31.380844395932996,-35.13482532039974 L31.548979356494623,-35.093508065758385 L31.722272813053056,-35.05400383629142 L31.90048991297448,-35.01636616934828 L32.08338913095184,-34.980646072655325 L32.27072259632738,-34.9468919551886 L32.46223642901457,-34.915149561568505 L32.65767108356427,-34.88546191006529 L32.85676170090868,-34.857869234299336 L33.05923846730654,-34.832408928715346 L33.26482698000303,-34.809115497904216 L33.473248619108816,-34.78802050984137 L33.68422092519433,-34.769152553104824 L33.89745798208751,-34.75253719813115 L34.11267080435616,-34.73819696256153 L34.32956772894999,-34.726151280725226 L34.54785481047129,-34.71641647730156 L34.76723621953886,-34.70900574519617 L34.98741464370505,-34.70392912766165 L35.20809169038282,-34.70119350468656 L35.4289682912365,-34.700802583671454 L35.649745107488464,-34.702756894404565 L35.870122935592256,-34.707053788343735 L36.08980311272244,-34.71368744220587 L36.308487921531714,-34.72264886585876 L36.52588099362658,-34.733925914504866 L36.74168771121495,-34.74750330514027 L36.95561560638127,-34.76336263726667 L37.16737475744806,-34.781482417828336 L37.376678181886646,-34.80183809034015 L37.58324222524482,-34.824402068167274 L37.786786945564025,-34.84914377191147 L37.98703649276537,-34.876029670853214 L38.18371948249011,-34.905023328393526 L38.376569363888166,-34.936085451434046 L38.56532478085599,-34.96917394362818 L38.74972992623443,-35.0042439624314 L38.929534888486494,-35.041247979873276 L39.10449599038515,-35.08013584696876 L39.274376119252224,-35.12085486168172 L39.43894504830081,-35.16334984034833 L39.59797974864567,-35.207563192463645 " />
			<path d="M15.556349171861461,3.6559539856478906 L15.67399945400279,3.5830265791135245 L15.794280545955214,3.5164172644629907 L15.917092361760616,3.456315610821754 L16.042324299353155,3.402906817536303 L16.16985350086436,3.3563701894401166 L16.299545104607407,3.316876558740733 L16.431252865897328,3.284586000294577 L16.56481875151373,3.259645745614546 L16.700077633376694,3.2421875397059963 L16.836845024167644,3.2323272550121476 L16.97492503066297,3.230160551480302 L17.114114870575495,3.235760975276897 L17.2542047797374,3.2491788874719334 L17.394977902596743,3.2704402170661466 L17.536210166027626,3.2995450383609137 L17.677670181955545,3.336465985783519 L17.81913079823546,3.3811504801794867 L17.960362919303186,3.4335194853898057 L18.10113575057202,3.4934670323190615 L18.241225562604686,3.560863932355672 L18.380415569171568,3.635559228351232 L18.51849582028594,3.717381481167123 L18.655263110216325,3.806139891788402 L18.790520900475908,3.9016252590049465 L18.924086596055773,4.003616611325946 L19.05579438934177,4.111886524294977 L19.185486045155056,4.226196456232749 L19.313015263655668,4.346301913587958 L19.43824700747275,4.47195409843463 L19.56105866667955,4.602903014041605 L19.68133966312654,4.738899725178431 L19.79898989503125,4.879696930172106 " />
			<path d="M19.798989875732495,4.879696962167053 L19.555066535242666,5.169934158298442 L19.309651736933937,5.4575371391941445 L19.06276647605403,5.742481300405402 L18.814431873648793,6.024742264945623 L18.564669174755323,6.304295885375822 L18.31349974658444,6.581118245870421 L18.06094507669271,6.855185664263239 L17.807026771144237,7.126474694073551 L17.551766552662144,7.394962126511913 L17.2951862587703,7.660624992465685 L17.037307839925116,7.923440564463974 L16.778153357637642,8.183386358622052 L16.51774498258621,8.44044013656481 L16.256104992719738,8.694579907329278 L15.993255771351853,8.945783929245934 L15.729219805245997,9.194030711798696 L15.464019682691678,9.439299017463469 L15.197678091572035,9.68156786352499 L14.93021781742292,9.92081652387192 L14.661661741483568,10.157024530769917 L14.392032838739084,10.390171676612724 L14.121354175954945,10.62023801565092 L13.849648909703692,10.847203865698177 L13.576940284383843,11.071049809815186 L13.303251630231307,11.291756697970754 L13.02860636132351,11.509305648680055 L12.753027973576332,11.72367805061996 L12.476540042734,11.934855564221252 L12.199166222352194,12.142820123237563 L11.920930241774489,12.347553936290943 L11.641855904102323,12.549039488393888 L11.36196708415863,12.7472595424478 L11.08128772644529,12.942197140717596 L10.799841843094734,13.13383560628246 L10.517653511815741,13.32215854446249 L10.234746873833549,13.507149844221324 L9.951146131824514,13.688793679544467 L9.666875547845676,13.867074510793088 L9.381959441259065,14.041977086033604 L9.096422186651198,14.213486442342315 L8.810288211747851,14.381587907085631 L8.523581995324234,14.546267099175182 L8.236328065110847,14.707509930298265 L7.948550995695173,14.865302606122931 L7.660275406419212,15.01963162747824 L7.371525959273356,15.170483791509085 L7.082327356786632,15.317846192805604 L6.792704339913284,15.461706224507324 L6.502681685916242,15.602051579381673 L6.2122842062474,15.738870250876836 L5.921536744425014,15.872150534148929 L5.630464173908319,16.00188102706337 L5.339091395969621,16.128050631170268 L5.0474433375639975,16.250648552654 L4.755544949196759,16.3696643032565 L4.463421202789,16.485087701174628 L4.171097089541142,16.59690887193119 L3.8785976177950126,16.705118249219687 L3.5859478108944067,16.80970657572273 L3.2931727050442774,16.910664903903992 L3.000297347168921,17.007984596773653 L2.707346792769174,17.101657328627375 L2.4143461037789624,17.191675085758447 L2.121320346421218,17.278030167143463 L1.8282945890634679,17.360715185101085 L1.5352939000732562,17.439723065924078 L1.2423433456735111,17.51504705048447 L0.9494679877981511,17.586680694811776 L0.6566928819480236,17.6546178706443 L0.36404307504741773,17.71885276595343 L0.0715436033012864,17.77937988544077 L-0.22078050994656806,17.83619405100837 L-0.5129042563543251,17.88929040220166 L-0.8048026447215673,17.938664396625263 L-1.0964507031271946,17.984311810331604 L-1.3878234810658885,18.026228738182255 L-1.6788960515825835,18.06441159418202 L-1.9696435134049706,18.09885711178576 L-2.2600409930738135,18.129562344177792 L-2.5500636470708544,18.156524664524035 L-2.8396866639441996,18.179741766196685 L-3.128885266430924,18.19921166297157 L-3.4176347135767795,18.214932689198122 L-3.705910302852743,18.22690349994177 L-3.9936873722684183,18.235123071099096 L-4.280941302481803,18.239590699485404 L-4.567647518905422,18.240306002894854 L-4.853781493808768,18.23726892013321 L-5.139318748416635,18.230479711023058 L-5.424234855003245,18.21993895638154 L-5.708505438982085,18.20564755797075 L-5.992106180991113,18.187606738420477 L-6.275012818973318,18.1658180411237 L-6.557201150252304,18.140283330104523 L-6.838647033602861,18.11100478985869 L-7.1193263913162035,18.077984925166717 L-7.399215211259897,18.0412265608796 L-7.678289548932062,18.000732841677156 L-7.95652552950976,17.95650723179901 L-8.233899349891567,17.908553514748185 L-8.510387280733905,17.856875792967486 L-8.785965668481085,17.80147848748844 L-9.060610937388878,17.742366337553207 L-9.334299591541416,17.679544400209032 L-9.607008216861265,17.61301804987565 L-9.878713483112515,17.54279297788552 L-10.149392145896659,17.46887519199688 L-10.419021048641142,17.391271015879866 L-10.687577124580493,17.309987088575447 L-10.95503739872961,17.22503036392746 L-11.22137898984925,17.136408109987777 L-11.486579112403572,17.044127908394458 L-11.750615078509426,16.948197653723142 L-12.013464299877311,16.848625552811697 L-12.275104289743782,16.745420124058136 L-12.535512664795213,16.63859019669178 L-12.794667147082691,16.52814491001805 L-13.052545565927874,16.414093712636458 L-13.30912585981972,16.296446361632412 L-13.56438607830181,16.17521292174242 L-13.81830438385029,16.050403764493034 L-14.070859053742018,15.9220295673136 L-14.322028481912904,15.790101312622838 L-14.571791180806374,15.654630286889237 L-14.820125783211607,15.515628079665511 L-15.067011044091513,15.373106582597117 L-15.312425842400243,15.227077988404957 L-15.556349182889837,15.077554789842353 " />
			<path d="M-19.798989886761102,13.853811813323025 L-19.71698136919049,13.80214807263891 L-19.63367185530365,13.75354711074096 L-19.54909402938213,13.708074343903698 L-19.463282997985196,13.665794340985762 L-19.37627638906062,13.626770591487237 L-19.288114582046784,13.591065281961157 L-19.19884124739283,13.558738948121746 L-19.10850268376364,13.529849928520456 L-19.017147903298994,13.504454042751064 L-18.924828747100722,13.482604247766476 L-18.831599980761172,13.464350290408747 L-18.737517489856874,13.449738086505624 L-18.64264040399598,13.438809876132902 L-18.547033933821254,13.431603920455714 L-18.45076497317865,13.428153397153745 L-18.353902060238397,13.428486242941991 L-18.256515392032163,13.43262498476387 L-18.158676840943947,13.44058655041735 L-18.060459973154718,13.452382058614175 L-17.961940069040807,13.468016588472112 L-17.863194145526045,13.48748892844027 L-17.764300980387635,13.510791304657472 L-17.665340902878388,13.537909157726943 L-17.56638954610127,13.568822940479262 L-17.46752557121503,13.603506158222894 L-17.36882883854129,13.641925537988863 L-17.270377501388317,13.684042059157685 L-17.172248028129413,13.729811214636714 L-17.0745152225277,13.779183252784783 L-16.977252242307323,13.832103400084138 L-16.88053061597099,13.888512064559634 L-16.784420257863996,13.94834501994523 " />
			<path d="M-16.784420257863985,13.948345019945235 L-16.702360680714943,14.00245110893406 L-16.620845507392204,14.058989608810686 L-16.539916155451184,14.117912166311472 L-16.459609564652286,14.179171036249889 L-16.379961775080485,14.242716846057005 L-16.30100825539683,14.308498395015974 L-16.222782870108382,14.37646356529764 L-16.145317923668582,14.446559459984336 L-16.06864420457759,14.518732541093698 L-15.992791065754304,14.59292873994121 L-15.843656208707328,14.74717293345257 L-15.698115769628398,14.908858501148881 L-15.55634916359131,15.077554757847246 " />
			<path d="M15.556349188528634,3.655954022894825 L15.197565794571728,4.0813419914356714 L14.835586100442201,4.501022266446679 L14.470476911577178,4.914917393516248 L14.102305610980048,5.322950985915114 L13.731140146784583,5.725047738694016 L13.357049019714674,6.121133442581623 L12.980101270442164,6.511134997680266 L12.600366466844909,6.894980426957062 L12.217914691167765,7.272598889527508 L11.83281652708843,7.643920693729683 L11.445143046690733,8.008877309986289 L11.054965797348062,8.367401383452062 L10.662356788518741,8.719426746444562 L10.267388478456308,9.064888430655792 L9.870133760836945,9.403722679142476 L9.4706659513065,9.735866958092792 L9.069058773949688,10.061259968367281 L8.665386347683873,10.379841656812026 L8.259723172580028,10.691553227341743 L7.8521441161132035,10.996337151791053 L7.442724399345469,11.294137180531465 L7.031539583043362,11.584898352852697 L6.618665553732614,11.868567007105973 L6.204178509693026,12.145090790607554 L5.7881549468955384,12.41441866930073 L5.37067164488446,12.676500937174502 L4.951805652607391,12.931289225437027 L4.53163427419539,13.178736511442423 L4.110235054696025,13.41879712736906 L3.687685765762014,13.65142676864781 L3.264064391298051,13.876582502138682 L2.8394491130685733,14.094222774054323 " />
			<path d="M19.798989875732474,-2.587221753194381 L19.798989875732474,4.879696962167067 " />
			<path d="M15.556349188528612,3.4319899992576772 L15.556349188528612,3.655954022894843 " />
			<path d="M19.798989875732474,-30.720505748262198 L-15.556349182890086,-20.52264792058706 " />
			<path d="M-15.556349182890086,-20.522647920587065 L-15.556349182890086,15.077554789842207 " />
			<path d="M-19.798989870093948,-21.74639085985929 L-15.556349182890086,-20.52264792058706 " />
			<path d="M-19.798989870093948,11.55947671026001 L-19.617966880339154,11.731019133309797 L-19.43588466413661,11.899588416185876 L-19.252760421638317,12.065184356020065 L-19.068610953716696,12.227807343334415 L-18.883452661964583,12.387458362041183 L-18.69730154869523,12.544138989442853 L-18.510173216942295,12.697851396232135 L-18.32208287045985,12.84859834649195 L-18.13304531372239,12.996383197695451 L-17.94307495192482,13.141209900705999 L-17.75218579098245,13.283082999777179 L-17.560391437531006,13.422007632552805 L-17.367705098926645,13.5579895300669 L-17.174139583245918,13.691035016743712 L-16.979707299285796,13.82115101039771 L-16.78442025656371,13.94834502223355 " />

        </g>

        <!-- solid lines -->
        <g  stroke="rgb(0,0,0)" fill="none">
    			<path d="M-41.3553390558033,-16.03559047638561 L-41.35353196798052,-16.078062357472913 L-41.348111793034334,-16.12050865508717 L-41.339081795875444,-16.162903801165875 L-41.32644741583648,-16.205222258458285 L-41.31021626339556,-16.247438535908113 L-41.290398115591984,-16.289527204008394 L-41.26700491013695,-16.331462910119264 L-41.24005073822268,-16.373220393739434 L-41.20955183603447,-16.414774501722185 L-41.17552657497056,-16.456100203426676 L-41.137995450575936,-16.49717260579547 L-41.09698107019655,-16.537966968349178 L-41.05250813936152,-16.57845871808919 L-41.00460344690142,-16.618623464299553 L-40.953295848811734,-16.658437013239006 L-40.898616250871015,-16.697875382714386 L-40.84059759002448,-16.736914816526625 L-40.77927481454396,-16.775531798780566 L-40.71468486297639,-16.81370306805009 L-40.64686664189343,-16.85140563138989 L-40.50171071580493,-16.925314093833844 L-40.34415672961857,-16.99707913415278 L-40.17458424468717,-17.066527864078694 L-39.99340177597972,-17.133492975538203 L-39.80104580793305,-17.197813143712352 L-39.59797974292258,-17.25933341568223 L-39.38469278488541,-17.31790558372412 L-39.16169876078517,-17.373388542354895 L-38.9295348827579,-17.425648628267478 L-38.688760453920914,-17.47455994233746 L-38.43995552096263,-17.520004652925127 L-38.183719476759286,-17.561873279742187 L-37.92066961638499,-17.600064957599372 L-37.65143964999384,-17.634487679399534 L-37.376678176156624,-17.665058517790783 L-37.09704711933008,-17.69170382494574 L-36.81322013522289,-17.71435940998562 L-36.525880987900074,-17.732970693621667 L-36.23572190253547,-17.747492839641442 L-35.94344189778066,-17.757890862923194 L-35.649745101767806,-17.764139713718084 L-35.3553390558033,-17.76622433799721 L-35.06093300983879,-17.764139713718084 L-34.76723621382594,-17.757890862923194 L-34.47495620907113,-17.747492839641442 L-34.18479712370653,-17.732970693621667 L-33.89745797638371,-17.71435940998562 L-33.61363099227652,-17.69170382494574 L-33.333999935449974,-17.665058517790783 L-33.05923846161276,-17.634487679399534 L-32.790008495221606,-17.600064957599372 L-32.52695863484731,-17.561873279742187 L-32.27072259064397,-17.520004652925127 L-32.02191765768569,-17.47455994233746 L-31.781143228848702,-17.425648628267478 L-31.54897935082143,-17.373388542354895 L-31.32598532672119,-17.317905583724123 L-31.112698368684015,-17.25933341568223 L-30.90963230367354,-17.197813143712352 L-30.717276335626877,-17.133492975538203 L-30.53609386691943,-17.066527864078694 L-30.36652138198803,-16.99707913415278 L-30.208967395801665,-16.925314093833844 L-30.06381146971317,-16.85140563138989 L-29.995993248630207,-16.81370306805009 L-29.93140329706264,-16.775531798780566 L-29.870080521582118,-16.736914816526625 L-29.81206186073558,-16.697875382714386 L-29.757382262794867,-16.658437013239006 L-29.706074664705177,-16.618623464299553 L-29.65816997224508,-16.57845871808919 L-29.61369704141005,-16.537966968349178 L-29.57268266103066,-16.497172605795473 L-29.535151536636036,-16.45610020342668 L-29.501126275572126,-16.414774501722185 L-29.470627373383916,-16.373220393739434 L-29.44367320146965,-16.331462910119264 L-29.420279996014614,-16.289527204008394 L-29.400461848211037,-16.247438535908113 L-29.384230695770118,-16.205222258458285 L-29.371596315731157,-16.162903801165875 L-29.362566318572263,-16.12050865508717 L-29.357146143626075,-16.078062357472913 L-29.3553390558033,-16.035590476385625 " />
			<path d="M41.355339061441825,-36.43130613173587 L41.35353197361905,-36.473778012823175 L41.34811179867286,-36.51622431043743 L41.33908180151397,-36.55861945651613 L41.32644742147501,-36.600937913808544 L41.310216269034086,-36.643154191258375 L41.29039812123051,-36.68524285935866 L41.26700491577547,-36.72717856546952 L41.240050743861204,-36.768936049089696 L41.209551841673,-36.810490157072444 L41.17552658060909,-36.85181585877694 L41.13799545621446,-36.892888261145735 L41.096981075835075,-36.93368262369944 L41.05250814500005,-36.97417437343945 L41.00460345253995,-37.01433911964981 L40.95329585445026,-37.05415266858927 L40.89861625650955,-37.093591038064645 L40.840597595663006,-37.13263047187689 L40.779274820182486,-37.17124745413083 L40.71468486861492,-37.20941872340035 L40.64686664753196,-37.24712128674015 L40.50171072144346,-37.321029749184106 L40.3441567352571,-37.39279478950304 L40.174584250325694,-37.46224351942895 L39.993401781618246,-37.52920863088846 L39.80104581357158,-37.59352879906262 L39.59797974856111,-37.655049071032494 L39.384692790523935,-37.713621239074385 L39.1616987664237,-37.769104197705154 L38.929534888396425,-37.82136428361774 L38.68876045955944,-37.87027559768772 L38.43995552660115,-37.91572030827539 L38.18371948239781,-37.957588935092446 L37.92066962202352,-37.99578061294963 L37.651439655632366,-38.0302033347498 L37.37667818179515,-38.06077417314104 L37.097047124968604,-38.087419480296 L36.81322014086142,-38.110075065335884 L36.5258809935386,-38.128686348971925 L36.23572190817399,-38.143208494991704 L35.943441903419185,-38.153606518273456 L35.64974510740633,-38.159855369068346 L35.355339061441825,-38.16193999334747 L35.06093301547732,-38.159855369068346 L34.767236219464465,-38.153606518273456 L34.47495621470966,-38.143208494991704 L34.18479712934506,-38.128686348971925 L33.89745798202224,-38.110075065335884 L33.613630997915045,-38.087419480296 L33.3339999410885,-38.06077417314104 L33.059238467251284,-38.0302033347498 L32.79000850086013,-37.99578061294964 L32.52695864048584,-37.957588935092446 L32.270722596282496,-37.91572030827539 L32.02191766332422,-37.87027559768772 L31.781143234487228,-37.82136428361774 L31.548979356459956,-37.76910419770516 L31.325985332359718,-37.713621239074385 L31.11269837432254,-37.655049071032494 L30.909632309312066,-37.59352879906262 L30.717276341265404,-37.52920863088846 L30.536093872557956,-37.46224351942895 L30.366521387626555,-37.39279478950304 L30.20896740144019,-37.321029749184106 L30.063811475351695,-37.24712128674015 L29.995993254268733,-37.20941872340035 L29.931403302701167,-37.17124745413083 L29.870080527220644,-37.13263047187689 L29.812061866374105,-37.09359103806465 L29.757382268433393,-37.05415266858927 L29.706074670343703,-37.01433911964982 L29.658169977883606,-36.97417437343945 L29.613697047048575,-36.93368262369944 L29.572682666669188,-36.892888261145735 L29.535151542274562,-36.85181585877694 L29.501126281210652,-36.810490157072444 L29.470627379022442,-36.768936049089696 L29.443673207108176,-36.72717856546953 L29.42028000165314,-36.68524285935866 L29.400461853849563,-36.643154191258375 L29.384230701408644,-36.600937913808544 L29.371596321369683,-36.55861945651614 L29.36256632421079,-36.51622431043743 L29.3571461492646,-36.473778012823175 L29.355339061441825,-36.43130613173589 " />
			<path d="M2.8394491130682944,14.094222774054458 L2.472830080526659,14.275699884105961 L2.1055815057208953,14.451542128633733 L1.7377537131893792,14.621725411751804 L1.3693971068414417,14.78622641302887 L1.0005621630504642,14.945022590683877 L0.6312994237369605,15.09809218467506 L0.26165948944288075,15.24541421968162 L-0.10830698760231527,15.386968507978075 L-0.4785493104226628,15.522735652200609 L-0.8490167442426735,15.65269704800513 L-1.2196585234396125,15.776834886616577 L-1.5904238585000012,15.895132157269344 L-1.9612619429792861,16.007572649538268 L-2.332121960463981,16.114140955559932 L-2.7029530915351323,16.21482247214412 L-3.073704520732111,16.30960340277479 L-3.444325443515927,16.39847075950069 L-3.814765073231067,16.481412364715133 L-4.184972648064818,16.558416852824664 L-4.554897438003277,16.62947367180653 L-4.924488751782869,16.69457308465462 L-5.293695943836662,16.75370617071375 L-5.662468421234479,16.80686482690207 L-6.0307556506156175,16.85404176882146 L-6.398507165113519,16.895230531755658 L-6.765672571271315,16.930425471556198 L-7.132201555947318,16.95962176541581 L-7.498043893209504,16.98281541252929 L-7.86314945121796,17.00000323464173 L-8.22746819909457,17.01118287648403 L-8.590950213778864,17.016352806095682 L-8.95354568686896,17.015512315034677 L-9.315204931446893,17.00866151847456 L-9.67587838888728,16.995801355188696 L-10.0355166356484,16.976933587421577 L-10.39407039004479,16.952060800647374 L-10.751490519000303,16.92118640321563 L-11.107728044780925,16.884314625884215 L-11.462734151706309,16.841450521239587 L-11.816460192838969,16.79259996300442 L-12.168857696650461,16.737769645232717 L-12.519878373663493,16.676967081392526 L-12.869474123069102,16.610200603336352 L-13.21759703931799,16.537479360159438 L-13.564199418684998,16.458813316946042 L-13.909233765806073,16.37421325340396 L-14.252652800186658,16.283690762387252 L-14.594409462680531,16.187258248307813 L-14.934456921938391,16.084928925435428 L-15.272748580825235,15.976716816087112 L-15.609238082805609,15.862636748705597 L-15.943879318295938,15.742704355827314 L-16.276626430982887,15.616936071940302 L-16.607433824107197,15.48534913123217 L-16.936256166711864,15.347961565228438 L-17.263048399853872,15.204792200321684 L-17.58776574277867,15.055860655191715 L-17.910363699056568,14.90118733811721 L-18.230798062680087,14.740793444179168 L-18.549024924121646,14.574700952356466 L-18.865000676350434,14.402932622514108 L-19.178682020807983,14.225511992284403 L-19.490025973341496,14.042463373841507 L-19.7989898700937,13.853811850570125 " />
			<path d="M15.556349188528612,-31.944248687534426 L19.798989875732474,-30.720505748262198 " />
			<path d="M19.798989875732474,-30.720505748262198 L19.798989875732474,-2.587221753194381 " />
			<path d="M15.556349188528612,-31.944248687534422 L15.556349188528612,3.4319899992576772 " />
			<path d="M-19.798989870093948,-21.74639085985929 L-19.798989870093948,13.853811850569983 " />
			<path d="M15.556349188528612,-31.944248687534426 L-19.798989870093948,-21.74639085985929 " />
			<path d="M-41.3553390558033,-16.035590476385607 L-41.35428961805132,-15.650247266922037 L-41.35113994831694,-15.265426189651755 L-41.34588939157674,-14.881146084073022 L-41.338537364459846,-14.497425738606303 L-41.329083355247896,-14.114283890594285 L-41.31752692387505,-13.731739226301872 L-41.303867701928006,-13.349810380916178 L-41.28810539264598,-12.96851593854654 L-41.27023977092072,-12.587874432224506 L-41.2502706832965,-12.207904343903841 L-41.22819804797011,-11.828624104460527 L-41.20402185479089,-11.450052093692761 L-41.177742165260675,-11.072206640320957 L-41.14935911253386,-10.69510602198774 L-41.11887290141733,-10.318768465257957 L-41.08628380837053,-9.94321214561867 L-41.05159218150541,-9.568455187479156 L-41.01479844058646,-9.194515664170906 L-40.97590307703068,-8.821411597947627 L-40.93490665390761,-8.449160959985246 L-40.89180980593931,-8.0777816703819 L-40.84661323950038,-7.707291598157946 L-40.799317732617915,-7.3377085612559565 L-40.74992413497158,-6.969050326540721 L-40.69843336789352,-6.601334609799242 L-40.644846424368446,-6.234579075740735 L-40.58916436903357,-5.868801337996636 L-40.53138833817864,-5.504018959120604 L-40.47151953974593,-5.140249450588499 L-40.40955925333024,-4.777510272798406 L-40.34550883017889,-4.415818835070622 L-40.27936969319175,-4.055192495647667 L-40.15386889154313,-3.4027845268721313 L-40.021491773928545,-2.7540621556623037 L-39.88224734170836,-2.1091257256605296 L-39.73614531510171,-1.4680753598175595 L-39.58319613318658,-0.8310109603925486 L-39.42341095389975,-0.19803220895305662 L-39.2568016540368,0.4307614336249541 L-39.08338082925214,1.0552707271571187 L-38.90316179405899,1.675396652150666 L-38.71615858182936,2.291040409804424 L-38.5223859447941,2.902103422008815 L-38.32185935404286,3.508487331345851 L-38.11459499952409,4.110094001089154 L-37.90060979004507,4.706825515203931 L-37.79110234526069,5.003332550485107 L-37.67992135327187,5.298584178346989 L-37.567069129858574,5.592568221354734 L-37.45254803572941,5.885272515866729 L-37.33636047652168,6.176684912034586 L-37.218508902801375,6.466793273803152 L-37.09899581006314,6.7555854789104774 L-36.977823738730294,7.0430494188878505 L-36.854995274154845,7.329172999059788 L-36.73051304661749,7.613944138544021 L-36.60437973132756,7.897350770251508 L-36.4765980484231,8.179380840886443 L-36.34717076297081,8.46002231094623 L-36.21610068496608,8.739263154721504 L-36.083390669332964,9.017091360296128 L-35.949043615924204,9.293494929547185 L-35.81306246952119,9.568461878144982 L-35.67545021983403,9.841980235553056 L-35.53620990150147,10.114038045028167 L-35.39534459409096,10.384623363620296 L-35.25285742209859,10.653724262172648 L-35.10875155494917,10.92132882532166 L-34.963030206996166,11.187425151496997 L-34.8156966375217,11.452001352921526 L-34.666754150736594,11.715045555611372 L-34.51620609578035,11.97654589937585 L-34.36405586672112,12.236490537817527 L-34.21030690255575,12.494867638332185 L-34.054962687209766,12.751665382108825 L-33.89802674953736,13.006871964129687 L-33.739502663321396,13.260475593170213 L-33.57939404727342,13.512464491799097 L-33.41770456503366,13.762826896378236 L-33.25443792517101,14.01155105706276 L-33.08959788118304,14.258625237801034 L-32.923188231496,14.504037716334627 L-32.70836682669754,14.815057610951703 L-32.49100870416772,15.123318045460966 L-32.27112240083237,15.428793229248264 L-32.04871687552827,15.731457376507255 L-31.823801509003165,16.031284706239386 L-31.596386103915723,16.328249442253906 L-31.366480884835568,16.622325813167848 L-31.13409649824326,16.913488052406052 L-30.89924401253031,17.201710398201147 L-30.661934917999176,17.486967093593556 L-30.422181126863254,17.769232386431497 L-30.17999497324689,18.04848052937099 L-29.935389213185378,18.32468577987585 L-29.688377024624945,18.597822400217677 L-29.438972007422777,18.867864657475877 L-29.18718818334699,19.13478682353764 L-28.93303999607666,19.39856317509797 L-28.676542311201793,19.659167993659647 L-28.417710416223354,19.916575565533257 L-28.156560020553243,20.170760181837174 L-27.893107255514312,20.42169613849758 L-27.627368674340353,20.66935773624844 L-27.359361252176093,20.91371928063152 L-27.089102386077233,21.154755081996374 L-26.81660989501039,21.392439455500362 L-26.541902019853133,21.62674672110864 L-26.26499742339399,21.85765120359414 L-25.985915190332413,22.085127232537616 L-25.70467482727882,22.3091491423276 L-25.421296262754552,22.52969127216042 L-25.13579984719191,22.746727966040204 L-24.848206352934135,22.960233572778883 L-24.572715119237312,23.160028917951074 L-24.295366379142944,23.356593010699605 L-24.016180753186664,23.549903688040033 L-23.735179248080257,23.73993919466358 L-23.45238325671165,23.926678182937135 L-23.167814558144915,24.11009971290323 L-22.881495317620285,24.290183252280073 L-22.593448086554133,24.46690867646152 L-22.303695802538986,24.640256268517103 L-22.012261789343512,24.810206719191992 L-21.71916975691253,24.976741126907037 L-21.424443801367016,25.139840997758732 L-21.128108405004085,25.299488245519246 L-20.830188436297,25.455665191636395 L-20.530709149895184,25.608354565233665 L-20.22969618662419,25.757539503110195 L-19.927175573485737,25.903203549740788 L-19.62317372365769,26.045330657275898 L-19.317717436494057,26.183905185541654 L-19.010833897524993,26.318911902039833 L-18.702550678456806,26.45033598194788 L-18.39289573717195,26.578163008118896 L-18.08189741772903,26.70237897108164 L-17.769584450362807,26.822970269040535 L-17.455985951484166,26.93992370787566 L-17.14113142368017,27.05322650114276 L-16.82505075571401,27.16286627007323 L-16.50777422252504,27.268831043574135 L-16.18933248522875,27.371109258228195 L-15.869756591116785,27.469689758293796 L-15.549077973656939,27.56456179570497 L-15.227328452493154,27.655715030071427 L-14.995015398377708,27.719070167824828 L-14.762165869458393,27.780486692787115 L-14.528792532724141,27.839962329066825 L-14.294907996557543,27.897494925454623 L-14.060524810734815,27.953082455423324 L-13.825655466425822,28.006723017127886 L-13.590312396194092,28.058414833405386 L-13.35450797399679,28.108156251775057 L-13.11825451518473,28.155945744438267 L-12.881564276502372,28.20178190827852 L-12.406922193472848,28.28758926043487 L-11.930678606736805,28.365569576954936 L-11.452929460421185,28.435716121463766 L-10.973769760951301,28.498024152500633 L-10.4932935770508,28.552490923519027 L-10.011594039741675,28.599115682886662 L-9.52876334234428,28.637899673885485 L-9.044892740477287,28.66884613471165 L-8.5600725520577,28.69196029847555 L-8.074392157300917,28.70724939320179 L-7.587939998720661,28.714722641829198 L-7.100803581128998,28.714391262210835 L-6.613069471636363,28.706268467113972 L-6.1248232996514975,28.69036946422011 L-5.636149756881485,28.666711456124975 L-5.147132597331803,28.635313640338513 L-4.6578546373062455,28.596197209284888 L-4.168397755406957,28.549385350302494 L-3.678842892534446,28.494903245643947 L-3.189270051887533,28.432778072476086 L-2.6997582989633813,28.36303900287997 L-2.210385761557534,28.28571720385088 L-1.7212296297638723,28.20084583729832 L-1.23236615597461,28.108460060046028 L-0.743870654880336,28.008597023831953 L-0.2558175034699417,27.90129587530827 L0.23171985896933123,27.78659775604137 L0.6709204470308856,27.676830646073178 L1.109602638995229,27.56108089052184 L1.5477200660323311,27.43937699431498 L1.9852268539443636,27.311747676441897 L2.4220776231656966,27.178221869953553 L2.8582274887629047,27.038828721962574 L3.2936320604347586,26.893597593643268 L3.728247442512234,26.742558060231595 L4.162030233958504,26.585739911025197 L4.594937528368947,26.423173149383377 L5.026926913971136,26.254887992727106 L5.457956473624849,26.08091487253903 L5.887984784822063,25.901284434363454 L6.316970919686958,25.71602753780636 L6.744874444975913,25.525175256535395 L7.171655422077507,25.328758878279867 L7.59727440701252,25.126809904830765 L8.021692450433935,24.91936005204074 L8.444871097626937,24.70644124982411 L8.866772388508902,24.488085642156864 L9.287358857629423,24.26432558707666 L9.706593534170274,24.035193656682818 L10.124439941945447,23.800722637136335 L10.540862099401128,23.56094552865987 L10.955824519615703,23.315895545537757 L11.369292210299758,23.065606116115994 L11.781230673796083,22.810110882802242 L12.191605907079667,22.549443702065837 L12.6003844017577,22.283638644437787 L13.007533144069571,22.012729994510757 L13.413019614886856,21.7367522509391 L13.81681178971338,21.45574012643881 L14.118025579956592,21.24205464641926 L14.418253361182288,21.025582400466266 L14.717481180094213,20.806337703566413 L15.015695120988866,20.58433497187622 L15.312881305755472,20.359588722722165 L15.60902589387597,20.132113574600687 L15.90411508242506,19.90192424717814 L16.19813510607017,19.669035561290848 L16.491072237071428,19.43346243894509 L16.78291278528169,19.195219903317113 L17.073643098146576,18.954323078753077 L17.36324956070443,18.710787190769103 L17.651718595586296,18.46462756605128 L17.939036663015948,18.21585963245565 L18.225190260809917,17.964498919008182 L18.510165924377475,17.71056105590479 L18.793950226720575,17.454061774511374 L19.076529778433915,17.19501690736378 L19.357891227704943,16.93344238816777 L19.63802126031384,16.66935425179907 L19.916906599633485,16.402768634303378 L20.194534006629492,16.133701772896337 L20.47089027986022,15.862170005963529 L20.745962255476776,15.588189773060467 L21.019736807222955,15.311777614912652 L21.29220084643528,15.03295017341554 L21.563341322043037,14.751724191634501 L21.83314522056824,14.468116513804862 L22.101599566125614,14.182144085331924 L22.368691420422593,13.893823952790946 L22.634407882759376,13.603173263927099 L22.898736090028905,13.31020926765551 L23.16166321671681,13.014949314061287 L23.423176474901446,12.717410854399489 L23.683263114253943,12.417611441095092 L23.94191042203814,12.115568727743023 L24.1991057231106,11.811300469108193 L24.454836379920586,11.504824521125462 L24.709089792510145,11.196158840899615 L24.961853398514044,10.885321486705374 L25.213114673159744,10.572330617987456 L25.46286112926745,10.257204495360527 L25.711080317250108,9.939961480609165 L25.957759825113406,9.620620036687905 L26.202887278455723,9.29919872772126 L26.446450340468196,8.975716219003681 L26.688436711934678,8.650191276999571 L26.928834131231742,8.322642769343297 L27.167630374328724,7.993089664839143 L27.40481325478767,7.661551033461349 L27.64037062376335,7.328046046354125 L27.87429037000327,6.992593975831635 L28.106560419847654,6.655214195377978 L28.33716873722947,6.31592617964723 L28.566103323674398,5.974749504463382 L28.79335221830089,5.631703846820363 L29.01890349782008,5.286808984882104 L29.242745276535835,4.9400847979824825 L29.46486570634478,4.591551266625288 L29.685252976736262,4.241228472484256 L29.90389531479234,3.8891365984031125 L30.120780985187796,3.535295928395552 L30.33589829019017,3.179726847645153 L30.54923556965973,2.8224498425054634 L30.849869004869202,2.310896213025421 L31.146845289231543,1.795982960097697 L31.440131790231355,1.2777712127491787 L31.729696265488215,0.7563223963826031 L32.015506862756645,0.23169823277655688 L32.29753211992614,-0.29603925991452273 L32.575740965021154,-0.8268277671603674 L32.85010271620107,-1.3606046780548002 L33.12058708176028,-1.8973070853158536 L33.387164160128094,-2.436871785285712 L33.6498044398688,-2.979235277930645 L33.90847879968164,-3.524333766841134 L34.16315850840082,-4.072103159231794 L34.4138152249955,-4.622479065941384 L34.66042099856982,-5.17539680143282 L34.902948268362834,-5.730791383793157 L35.1413698637486,-6.288597534733617 L35.37565900423611,-6.848749679589551 L35.60578929946933,-7.411181947320479 L35.831734749227174,-7.9758281705100575 L36.05346974342352,-8.5426218853661 L36.27096906210721,-9.111496331720565 L36.48420787546204,-9.682384453029567 L36.69316174380676,-10.255218896373366 L36.897806617595094,-10.829932012456375 L37.09811883741571,-11.406455855607149 L37.29407513399224,-11.984722183778405 L37.48565262818328,-12.564662458547001 L37.67282883098238,-13.146207845113949 L37.855581643518065,-13.729289212304408 L38.033889357053795,-14.313837132567713 L38.207730652988005,-14.899781881977274 L38.39875392521352,-15.563436598842287 L38.58402253045622,-16.228696284154932 L38.76350837926361,-16.89545920488113 L38.93718417479181,-17.56362371432745 L39.10502341280551,-18.23308825214108 L39.26700038167801,-18.903751344309836 L39.4230901623912,-19.575511603162184 L39.57326862853557,-20.248267727367235 L39.7175124463102,-20.921918501934677 L39.855799074522764,-21.596362798214845 L39.98810676458952,-22.27149957389871 L40.11441456053533,-22.947227873017845 L40.23470229899365,-23.623446825944498 L40.34895060920655,-24.300055649391545 L40.45714091302465,-24.976953646412447 L40.5592554249072,-25.654040206401312 L40.65527715192202,-26.331214805092873 L40.745189893745554,-27.008377004562487 L40.82897824266281,-27.685426453226164 L40.9066275835674,-28.362262885840547 L40.97812409396155,-29.038786123502874 L41.04345474395604,-29.714896073651026 L41.102607296270286,-30.39049273006351 L41.15557030623227,-31.06547617285944 L41.20233312177858,-31.739746568498603 L41.24288588345439,-32.41320416978143 L41.27721952441349,-33.0857493158489 L41.305325770418236,-33.757282432182684 L41.32719713983958,-34.42770403060506 L41.3428269436571,-35.0969147092789 L41.35220928545893,-35.76481515270778 L41.355339061441825,-36.431306131735425 " />
			<path d="M-29.355339055803295,-16.035590476385615 L-29.352720798178478,-15.481656324376122 L-29.344876337412437,-14.929668912260022 L-29.331812091279563,-14.379732370356347 L-29.31353585091641,-13.83195039914059 L-29.29005678082169,-13.286426269244693 L-29.261385418856296,-12.743262821457051 L-29.227533676243276,-12.202562466722519 L-29.188514837567848,-11.664427186142401 L-29.144343560777394,-11.128958530974455 L-29.095035877181466,-10.596257622632892 L-29.04060919145178,-10.066425152688385 L-28.981082281622214,-9.53956138286805 L-28.91647529908882,-9.015766145055464 L-28.846809768609813,-8.495138841290654 L-28.772108588305567,-7.977778443770104 L-28.69239602965863,-7.463783494846751 L-28.60769773751372,-6.953252107029982 L-28.51804073007771,-6.446281962985646 L-28.423453398919648,-5.942970315536041 L-28.323965508970744,-5.443413987659914 L-28.21960819852437,-4.947709372492477 L-28.11041397923607,-4.45595243332539 L-27.99641673612356,-3.968238703606767 L-27.877651727566708,-3.484663286941169 L-27.754154664126,-3.0053171618556207 L-27.625959660698314,-2.53027580687026 L-27.493108037244667,-2.0596324703274087 L-27.355643220693995,-1.593481665638214 L-27.213609882538094,-1.131915999870785 L-27.067053938831634,-0.6750261737501959 L-26.916022550192164,-0.22290098165848482 L-26.7605641218001,0.22437268836534674 L-26.600728303398746,0.6667098546253323 L-26.43656598929426,1.1040274417685412 L-26.268129318355683,1.5362442807850778 L-26.095471674014934,1.9632811090080855 L-25.9186476842668,2.3850605701137395 L-25.737713221668937,2.801507214121255 L-25.552725403341885,3.2125474973928787 L-25.363742590969046,3.6181097826338915 L-25.170824390796707,4.018124338892617 L-24.97403165363402,4.412523341560415 L-24.773426474853014,4.801240872371673 L-24.56907219438859,5.184212919403817 L-24.361033396738527,5.561377377077311 L-24.149375910963467,5.932674046155657 L-23.93416681068694,6.298044633745389 L-23.715474414095333,6.657432753296077 L-23.49336828393792,7.010783924600331 L-23.267919227526843,7.358045573793789 L-23.039199296737124,7.6991670333551285 L-22.80728178800664,8.034099542106066 L-22.57223141433479,8.362800272154733 L-22.334096358007482,8.685240516710989 L-22.092951759869194,9.0013878627587 L-21.848872728544695,9.311212102634165 L-21.601932481603818,9.61468583906905 L-21.352202345561498,9.911784485190363 L-21.09975175587775,10.202486264520463 L-20.844648256957672,10.486772210977062 L-20.586957502151446,10.764626168873223 L-20.326743253754334,11.036034792917366 L-20.064067383006687,11.300987548213255 L-19.79898987009397,11.559476710259986 " />
			<path d="M29.355339061441818,-36.43130613173588 L29.353393354097893,-35.95179288606172 L29.34754517555542,-35.4709668363368 L29.33779266421734,-34.988895083430286 L29.324134550947157,-34.505644671871245 L29.306570159068936,-34.02128258984861 L29.285099404367298,-33.53587576921123 L29.25972279508742,-33.049491085467835 L29.230441431935052,-32.56219535778705 L29.197257008076487,-32.07405534899738 L29.16017180913859,-31.58513776558726 L29.11918871320878,-31.09550925770497 L29.074311190835036,-30.605236419158704 L29.025543305025902,-30.114385787416552 L28.972889711250474,-29.623023843606497 L28.91635565743841,-29.131217012516398 L28.855946983979926,-28.639031662594025 L28.791670123725808,-28.146534105947026 L28.723532101987388,-27.65379059834295 L28.65154053653656,-27.16086733920924 L28.57570363760579,-26.667830471633224 L28.49603020788809,-26.17474608236212 L28.412529642537034,-25.681680201803047 L28.32521192916676,-25.18869880402302 L28.23408764785196,-24.69586780674892 L28.139167971127897,-24.20325307136756 L28.04046466399038,-23.71092040292561 L27.937990083895784,-23.21893555012965 L27.83175718076104,-22.727364205346145 L27.721779496963645,-22.236272004601464 L27.608071167341652,-21.745724527581853 L27.490646919193676,-21.25578729763346 L27.369522072278883,-20.76652578176232 L27.244712538817012,-20.278005390634362 L27.116234823488348,-19.790291478575416 L26.984106023433746,-19.303449343571184 L26.84834382825462,-18.81754422726728 L26.708966520012932,-18.332641314969198 L26.565992959583205,-17.84880569059395 L26.41944102140578,-17.366097416280763 L26.269329386798656,-16.88457800328776 L26.115678249472374,-16.40431208897007 L25.958508333502795,-15.925364031647613 L25.797840893331106,-15.447797910605086 L25.633697713763823,-14.971677526091973 L25.466101109972787,-14.497066399322536 L25.295073927495164,-14.02402777247583 L25.12063954223344,-13.552624608695684 L24.942821860455435,-13.082919592090716 L24.76164531879429,-12.614975127734326 L24.577134884248476,-12.148853341664694 L24.389316054181783,-11.68461608088479 L24.19821485632333,-11.222324913362362 L24.003857848767563,-10.762041128029946 L23.80627211997425,-10.303825734784855 L23.605485288768488,-9.847739464489193 L23.401525504340697,-9.393842768969842 L23.194421446246622,-8.942195821018467 L22.984202324407338,-8.492858514391521 L22.770897879109246,-8.045890463810238 L22.55453838100406,-7.601351004960634 L22.33515463110884,-7.159299194493508 L22.11277796080595,-6.7197938100244485 L21.887440231843097,-6.2828933501338184 L21.659173836333306,-5.848656034366774 L21.428011696754925,-5.417139803233246 L21.193987265951634,-4.988402318207951 L20.957134527132432,-4.562500961730391 L20.71748799387165,-4.139492837204854 L20.475082710108943,-3.7194347690004044 L20.229954250149284,-3.3023833024508935 L19.98213871866298,-2.8883947038549618 L19.731672750685664,-2.4775249604760194 L19.478593511618293,-2.069829780542273 L19.222938665728236,-1.665364156411971 L18.9647460470236,-1.2641772736160564 L18.704054394445414,-0.8663220358703262 L18.440903110930993,-0.47185265887408034 L18.175332114962757,-0.08082274403372103 L17.907381840568245,0.3067147215372459 L17.637093237320105,0.6907073650182114 L17.3645077703361,1.0711034278814644 L17.08966742027911,1.4478517658921901 L16.81261468335712,1.8209018491084699 L16.533392571323226,2.190203761881285 L16.252044611475647,2.5557082028545106 L15.968614846657712,2.9173664849649197 L15.683147835257854,3.2751305354421834 L15.395688651209628,3.6289528958088684 L15.1062828839917,3.9787867218804407 L14.814976638627844,4.32458578376526 L14.521816535686954,4.666304465864586 L14.226849711283034,5.003897766872573 L13.930123817075195,5.3373212997762725 L13.63168702026767,5.666531291855637 L13.3315880036098,5.9914845846835085 L13.029875965396037,6.3121386341256365 L12.726600619465954,6.628451510340657 L12.421812195204224,6.940381897780107 L12.115561437540645,7.247889095188421 L11.807899606950118,7.550933015602935 L11.498878479452664,7.849474186353872 L11.188550346613413,8.143473749064361 L10.876964787599288,8.4328981676754 L10.5641722300274,8.71771525649245 L10.250227447914956,8.997888549078194 L9.935185351625318,9.273382772057607 L9.619100983679257,9.544163850871314 L9.30202951875495,9.810198909775583 L8.98402626368798,10.071456271842324 L8.665146657471338,10.32790545895909 L8.345446271255422,10.57951719182908 L8.024980808348039,10.826263389971135 L7.703806104214398,11.06811717171974 L7.381978126477119,11.305052854225027 L7.059552974916227,11.537045953452763 L6.7365868814691545,11.764073184184369 L6.413136210230743,11.986112460016901 L6.089257457453239,12.203142893363069 L5.765007251546293,12.41514479545121 L5.440442353076968,12.622099676325325 L5.1156196547697315,12.823990244845044 L4.790596181506458,13.020800408685645 L4.4654290903264275,13.212515274338049 L4.140175670426331,13.399121147108826 L3.814893343160259,13.580605531120181 L3.4896396620397194,13.75695712930997 L3.1644723127336167,13.928165843431687 L2.8394491130683654,14.094222774054426 " />

        </g>
        </g>
    </svg>
    