<?xml version="1.0" encoding="UTF-8" standalone="no"?>
    <svg
    xmlns:svg="http://www.w3.org/2000/svg"
    xmlns="http://www.w3.org/2000/svg"
    width="500.0"
    height="220.0"
    >
        <g transform="scale(2.673779997015856, -2.673779997015856)   translate(46.629394842434195,-29.868444360600506)" stroke-width="0.37400234915216546"  fill="none">
        <!-- hidden lines -->
        <g  stroke="rgb(160,160,160)" fill="none" stroke-dasharray="0.37400234915216546,0.37400234915216546" >
    			<path d="M18.157379376745272,-12.675000404284749 L18.157379376745272,-7.532410786230677 " />
			<path d="M21.78885525209433,-2.2190123188238644 L21.78885525209433,7.060264942831731 " />
			<path d="M18.157379376745272,-12.675000404284749 L21.78885525209433,-2.2190123188238626 " />
			<path d="M21.78885525209433,-2.2190123188238644 L49.83903141850651,-3.5726818380461776 " />
			<path d="M-42.88937135091254,16.849143607423244 L97.36150948114837,10.080796011311676 " />
			<path d="M18.157379376745272,-12.675000404284749 L18.19891937168836,-12.563209397467732 L18.245731609567983,-12.45174838836983 L18.29772782323361,-12.34068783280153 L18.354816615379136,-12.230097048905744 L18.416903593624244,-12.120044160397944 L18.48389150800581,-12.01059604244166 L18.5556803905538,-11.901818270223027 L18.63216769662717,-11.793775070279134 L18.713248447687615,-11.686529274626562 L18.79881537519224,-11.580142277727722 L18.888759065290376,-11.474673996324114 L18.982968104015285,-11.370182832157337 L19.081329222667502,-11.266725637590321 L19.183727443093694,-11.164357684133321 L19.290046222572713,-11.063132633871263 L19.400167598029263,-10.963102513781518 L19.51397232930484,-10.86431769292387 L19.631340041225496,-10.766826862477267 L19.752149364216557,-10.67067701859137 L19.87627807322543,-10.575913448014376 L20.003603224725016,-10.482579716452602 L20.134001291582077,-10.390717659611484 L20.267348295587126,-10.30036737686245 L20.40351993745457,-10.211567227474918 L20.542391724114637,-10.124353829348246 L20.683839093131176,-10.03876206017414 L20.827737534092122,-9.95482506095611 L20.973962706832413,-9.87257424180925 L21.122390556361648,-9.792039289960346 L21.272897424381586,-9.713248179865767 L21.425360157291117,-9.636227185362074 L21.57965621058858,-9.561000893762495 L21.735663749593606,-9.487592221810576 L21.893261746422354,-9.416022433401224 L22.052330073161873,-9.346311158978308 L22.21274959120025,-9.27847641651734 L22.374402236680503,-9.212534634001559 L22.53717110205647,-9.148500673299589 L22.70094051373916,-9.086387855353198 L22.865596105831866,-9.026207986584167 L23.031024889961586,-8.967971386430124 L23.197115321223084,-8.911686915920116 L23.363757360260465,-8.85736200720204 L23.530842531519028,-8.805002693935458 L23.86591651051853,-8.70619818369068 L24.201502706254868,-8.615294886072295 L24.536794688944457,-8.532293986738177 L24.871015371127328,-8.457177432661576 L25.203418009279908,-8.389909028917383 L25.53328699726258,-8.330435546996773 L25.859938462826015,-8.278687836611736 L26.182720679053496,-8.234581933645652 L26.50101430307605,-8.198020157609339 L26.814232454679008,-8.168892192662867 L27.121820647539007,-8.147076146953628 L27.42325658580681,-8.132439585692506 L27.71804983860067,-8.124840534036544 L28.005741404714556,-8.12412844646288 L28.285903179490884,-8.130145139900812 L28.558137335375676,-8.142725688433982 L28.822075627177814,-8.161699277890294 L29.077378632509543,-8.186890019102675 L29.323734937302692,-8.21811771904811 L29.560860275687066,-8.255198609456167 L29.788496632894216,-8.297946032821926 L30.00641131921944,-8.34617108606311 L30.214396022446177,-8.399683222328875 L30.41226584551605,-8.458290811699788 L30.59985833562088,-8.521801661717388 L30.689755711716913,-8.55533571477308 L30.777032510304057,-8.590023498849002 L30.86167430385799,-8.625841039867062 L30.943667885592266,-8.66276441213227 L31.023001239508083,-8.700769750224666 L31.0996635106372,-8.739833260355576 L31.17364497550425,-8.779931231200148 L31.24493701283296,-8.821040044218234 L31.313532074518925,-8.863136183475902 L31.379423656890047,-8.906196244979895 L31.442606272274194,-8.95019694553753 L31.50307542089187,-8.995115131154423 L31.560827563090537,-9.040927784982635 L31.61586009193552,-9.087612034831686 L31.668171306171196,-9.135145160254867 L31.717760383564894,-9.183504599223346 L31.764627354644627,-9.232667954400341 L31.808773076840616,-9.282612999027616 L31.85019920903935,-9.333317682436471 L31.88890818655802,-9.384760135195199 L31.924903196546005,-9.436918673904923 L31.9581881538191,-9.489771805655497 L31.98876767713129,-9.543298232153068 L32.01664706588804,-9.597476853530639 L32.04183227730424,-9.65228677185287 L32.064329904008915,-9.707707294326072 L32.084147152098566,-9.763717936224262 L32.101291819639755,-9.820298423541784 L32.11577227562131,-9.877428695382973 L32.1275974393557,-9.935088906098914 L32.13677676032863,-9.993259427181364 L32.143320198495374,-10.051920848923409 L32.14723820502173,-10.111053981856463 L32.14854170346723,-10.17063985797274 " />
			<path d="M32.14854170346724,-10.17063985797275 L32.14668309316477,-10.242475793839098 L32.14112093001699,-10.314900934473235 L32.131876346589586,-10.387884084656825 L32.11897128364789,-10.461394508595095 L32.10242844989064,-10.535401930407172 L32.08227128290299,-10.609876534150073 L32.05852391131078,-10.684788963402436 L32.03121111811774,-10.760110320433325 L32.000358305206,-10.83581216498037 L31.965991458979797,-10.911866512660644 L31.928137117131662,-10.988245833036812 L31.886822336509677,-11.064923047360107 L31.84207466206422,-11.14187152601093 L31.793922096851965,-11.219065085656961 L31.742393073074815,-11.296477986147815 L31.687516424131275,-11.374084927164576 L31.629321357657247,-11.45186104464164 L31.567837429533757,-11.529781906977547 L31.503094518838363,-11.607823511050858 L31.435122803717682,-11.685962278056207 L31.363952738157995,-11.764175049175163 L31.289615029631324,-11.842439081095677 L31.212140617594315,-11.920732041393356 L31.131560652817594,-11.99903200378711 L31.047906477523323,-12.077317443281123 L30.961209606308966,-12.155567231204463 L30.778814587259376,-12.311877288886707 L30.584630482518534,-12.46780088003284 L30.378913840425593,-12.623182718084962 L30.161922386181157,-12.777873355843147 L29.933914578245737,-12.931729012133847 L29.695149203309175,-13.084611396941316 L29.445885007474626,-13.236387535808099 L29.186380361403874,-13.386929594215971 L28.916892957274534,-13.536114702571835 L28.637679535504372,-13.683824782343994 L28.348995639302114,-13.829946373822096 L28.051095395206765,-13.974370465908569 L27.744231317878754,-14.11699232829012 L27.428654137504722,-14.257711346284115 L27.10461264827398,-14.396430858606495 L26.772353576477563,-14.533057998264308 L26.432121466870615,-14.66750353673696 L26.084158586025175,-14.799681731575527 L25.728704841483502,-14.929510177518283 L25.36599771560121,-15.056909661192975 L24.996272213045312,-15.181804019452006 L24.619760820984688,-15.304120001364966 L24.236693481079044,-15.423787133873931 L23.847297572437956,-15.54073759110047 L23.45179790478343,-15.654906067278594 L23.050416721108352,-15.76622965327554 L22.643373709179073,-15.874647716651358 L22.23088602128259,-15.980101785198997 L21.813168301669382,-16.082535433898972 L21.39043272118974,-16.181894175215916 L20.96288901866613,-16.27812535265909 L20.530744548586583,-16.371178037524444 L20.094204334744,-16.46100292873246 L19.653471129483858,-16.547552255673125 L19.20874547825934,-16.63077968396768 L18.76022578922597,-16.710640224055307 L18.308108407641335,-16.78709014251226 L17.852587694865036,-16.860086876010595 L17.393856111784068,-16.929588947824005 L16.93210430651667,-16.995555886788612 L16.46752120627403,-17.057948148627748 L16.000294113285676,-17.116727039550806 L15.530608804718208,-17.17185464203765 L15.058649636541741,-17.223293742722145 L14.584599651320957,-17.271007762289774 L14.10864068993062,-17.31496068730691 L13.630953507216896,-17.35511700390119 L13.151717891648262,-17.39144163321507 L12.671112789020023,-17.423899868557182 L12.18931643029823,-17.45245731417856 L11.706506463709637,-17.477079825603834 L11.222860091205206,-17.49773345145029 L10.738554209445757,-17.514384376670613 L10.253765555479529,-17.526998867158245 L9.768670857303357,-17.53554321565772 L9.283446989520561,-17.539983688925215 L8.798271134331978,-17.54028647608852 L8.31332094811861,-17.536417638158678 L7.828774733899303,-17.52834305864977 L7.3448116199708195,-17.516028395266677 L6.861611745063731,-17.4994390326252 L6.379356450374341,-17.47854003597257 L5.8982284788605845,-17.453296105881417 L5.418412182219647,-17.423671533894403 L4.9400937359955455,-17.389630159102047 L4.463461363297684,-17.35113532564124 L3.988705567645885,-17.30814984110758 L3.516019375493232,-17.260635935880632 L3.0455985890174677,-17.208555223367416 L2.577642049811745,-17.151868661176263 L2.112351914149311,-17.090536513240412 L1.6499339405432327,-17.02451831291854 L1.1905977903712728,-16.953772827107947 L0.7345573423884435,-16.878258021415068 L0.2820310220062955,-16.79793102643805 L-0.16675785372248378,-16.712748105226837 L-0.6115807144111302,-16.622664621997718 L-1.0522033568662699,-16.527635012192267 L-1.488385546690907,-16.42761275398431 L-1.9198805997395716,-16.322550341353665 L-2.346434942117645,-16.2123992588621 L-2.7677876473269176,-16.09710995828498 L-3.183669949062422,-15.976631837271754 L-3.5938047280610563,-15.850913220230641 L-3.9979059712912886,-15.719901341656147 L-4.395678201652911,-15.583542332144841 L-4.786815876227042,-15.441781207373184 L-5.171002750977423,-15.294561860342936 L-5.547911209656185,-15.141827057235 L-5.73353036957266,-15.063373165840748 L-5.917201554505188,-14.983518437250131 L-6.09888029144593,-14.902255400968306 L-6.278521256173607,-14.819576516857865 L-6.4560782473865235,-14.735474175546171 L-6.631504160085192,-14.649940698921089 L-6.804750958178933,-14.562968340719793 L-6.975769646290539,-14.474549287215629 L-7.144510240732129,-14.38467565800786 L-7.310921739623389,-14.293339506920065 L-7.4749520921240915,-14.200532823012438 L-7.636548166749928,-14.106247531714164 L-7.795655718741075,-14.010475496082186 L-7.952219356450595,-13.913208518192757 L-8.106182506719847,-13.814438340672833 L-8.257487379205541,-13.714156648378646 L-8.406074929622743,-13.612355070229075 L-8.551884821866935,-13.509025181201777 L-8.694855388975533,-13.40415850450088 L-8.834923592890005,-13.297746513904888 L-8.97202498297622,-13.18978063630444 L-9.106093653260372,-13.080252254439506 L-9.237062198335837,-12.969152709846943 L-9.364861667894978,-12.85647330602877 L-9.48942151983743,-12.742205311853144 L-9.610669571906103,-12.626339965200096 L-9.728531951798479,-12.508868476864528 L-9.842933045700521,-12.389782034730207 L-9.953795445187938,-12.26907180822873 L-10.061039892436627,-12.146728953098288 L-10.164585223684155,-12.022744616458121 L-10.264348310879443,-11.897109942214765 L-10.360244001457595,-11.769816076817646 L-10.452185056173303,-11.640854175382179 L-10.540082084924281,-11.51021540819969 L-10.62384348049351,-11.377890967653894 L-10.703375350136684,-11.243872075565795 L-10.778581444938165,-11.108149990988952 L-10.84936308685633,-10.970716018478589 L-10.915619093376282,-10.831561516859711 L-10.977245699684463,-10.690677908519726 L-11.034136478277121,-10.54805668925359 L-11.086182255911389,-10.40368943868986 L-11.133271027803472,-10.25756783132833 L-11.175287868976792,-10.109683648221166 L-11.212114842657503,-9.960028789331238 L-11.243630905611981,-9.80859528660313 L-11.26971181031801,-9.65537531778406 L-11.29023000385508,-9.500361221034256 L-11.305054523398415,-9.343545510367917 L-11.314050888193526,-9.184920891968636 L-11.317080987887554,-9.024480281424877 " />
			<path d="M-11.317080987887554,-9.024480281424793 L-11.315004979034786,-8.891260463766207 L-11.308722863103547,-8.756805788104508 L-11.298152142394235,-8.621112692446417 L-11.283208462923401,-8.484177742859154 L-11.263805565698059,-8.345997641746118 L-11.239855236630369,-8.206569236497579 L-11.211267255053578,-8.06588952853268 L-11.17794934079942,-7.923955682749556 L-11.139807099793488,-7.780765037401501 L-11.096743968128312,-7.636315114416818 L-11.048661154567297,-7.490603630182511 L-10.99545758143711,-7.343628506811169 L-10.937029823859852,-7.195387883911849 L-10.873272047279551,-7.045880130887483 L-10.804075943232366,-6.895103859780854 L-10.729330663312219,-6.7430579386931235 L-10.648922751278972,-6.5897415058000846 L-10.562736073258312,-6.435153983991041 L-10.470651745977658,-6.2792950961589185 L-10.37254806298542,-6.122164881167757 L-10.26830041879451,-5.963763710529104 L-10.1577812308951,-5.804092305816139 L-10.040859859575479,-5.643151756849228 L-9.917402525492237,-5.480943540685132 L-9.787272224928216,-5.317469541445103 L-9.650328642673912,-5.152732071018993 L-9.50642806247096,-4.986733890682241 L-9.355423274949409,-4.819478233666482 L-9.197163482995348,-4.650968828724106 L-9.031494204478513,-4.481209924731461 L-8.858257172273483,-4.310206316373676 L-8.677290231503703,-4.1379633709607315 " />
			<path d="M21.72984450423548,6.890357253036053 L22.505772575201725,7.025667330240925 " />
			<path d="M32.14854170346723,-10.170639857972747 L32.14854170346723,-0.891362596317172 " />
			<path d="M-11.317080987887628,-9.02448028142469 L-11.317080987887628,0.2547969802308843 " />

        </g>

        <!-- solid lines -->
        <g  stroke="rgb(0,0,0)" fill="none">
    			<path d="M18.157379376745272,-7.532410786230677 L18.157379376745272,-3.395723142629153 " />
			<path d="M18.157379376745272,-3.395723142629153 L21.78885525209433,7.060264942831733 " />
			<path d="M49.83903141850651,-3.5726818380461776 L49.83903141850651,5.706595423609418 " />
			<path d="M21.78885525209433,7.060264942831729 L49.83903141850651,5.706595423609416 " />
			<path d="M42.57607966780839,-24.484658008967948 L42.57607966780839,-15.205380747312352 " />
			<path d="M49.83903141850651,-3.5726818380461776 L42.57607966780839,-24.48465800896795 " />
			<path d="M49.83903141850651,5.706595423609418 L42.57607966780839,-15.205380747312354 " />
			<path d="M-29.36509868589658,-26.328478253642604 L-29.36509868589658,-17.049200991987007 " />
			<path d="M42.57607966780839,-24.484658008967948 L-29.36509868589658,-26.328478253642608 " />
			<path d="M42.57607966780839,-15.20538074731235 L-29.36509868589658,-17.04920099198701 " />
			<path d="M-42.88937135091254,16.849143607423244 L-42.88937135091254,26.128420869078838 " />
			<path d="M-29.36509868589658,-26.328478253642604 L-42.88937135091254,16.849143607423255 " />
			<path d="M-29.36509868589658,-17.049200991987007 L-42.88937135091254,26.12842086907885 " />
			<path d="M97.3615094811486,10.080796011311751 L97.3615094811486,19.360073272967348 " />
			<path d="M-42.88937135091254,26.12842086907884 L97.36150948114837,19.360073272967274 " />
			<path d="M-8.67729023150357,-4.1379633709606045 L-8.51132315283409,-3.9851967725526505 L-8.339111407734391,-3.831477376532133 L-8.160536224320376,-3.6768100630534715 L-7.975476240197915,-3.5212001245794053 L-7.783807440488761,-3.3646532832983174 L-7.585403094364959,-3.2071757092134545 L-7.380133690061767,-3.0487740389284945 L-7.167866868339169,-2.8894553951568938 L-6.948467354358637,-2.729227406981778 L-6.721796887946198,-2.568098230895704 L-6.4877141522090085,-2.4060765726487743 L-6.246074700476065,-2.243171709937385 L-5.996730881530314,-2.07939351596385 L-5.739531763103171,-1.9147524839008638 L-5.474323053600492,-1.7492597522950017 L-5.200947022030318,-1.5829271314440236 L-4.919242416102716,-1.4157671307858244 L-4.629044378472969,-1.2477929873360356 L-4.330184361101577,-1.0790186952142662 L-4.022490037701551,-0.9094590363006221 L-3.7057852142495826,-0.7391296120628557 L-3.379889737533866,-0.5680468766000463 L-3.0446194017170924,-0.39622817094749363 L-2.6997858528912126,-0.22369175868870605 L-2.345196491604916,-0.05045686292514171 L-1.980654373343678,0.12345629534790875 L-1.605958106949041,0.29802645740590783 L-1.2209017509607598,0.47323128544777543 L-0.825274707871891,0.6490473196794614 L-0.418861616289467,0.8254499337723777 L-0.0014422409944948047,1.0024132886372628 L0.42720863909927337,1.179910284451152 L0.8673213450837701,1.3579125108757693 L1.319131414287775,1.5363901954012797 L1.7828797185866014,1.7153121497487658 L2.2588125847731306,1.8946457142610509 L2.7471819169704146,2.074356700213025 L3.2482453210513875,2.254409329964869 L3.762266231036892,2.4347661748858567 L4.289514037421397,2.615388090967865 L4.830264217382157,2.796234152052414 L5.384798466805943,2.9772615805858313 L5.953404834070706,3.1584256758211864 L6.53637785549619,3.3396797393790263 L7.134018692378191,3.52097499808033 L7.746635269502431,3.7022605239595743 L8.374542415022917,3.8834831513675145 L9.018062001577434,4.064587391067697 L9.67752308849414,4.245515341232664 L10.353262064932327,4.426206595239692 L11.045622793779431,4.6065981461683485 L11.754956756107463,4.78662428789842 L12.481623195976054,4.966216512705256 L13.22598926534276,5.145303405249382 L13.988430168823427,5.323810532855835 L14.769329308015536,5.501660331977141 L15.569078425075977,5.678771990734618 L16.388077745212755,5.85506132743231 L17.226736117722734,6.030440664935422 L18.08547115517201,6.2048187008101925 L18.96470937028337,6.378100373118496 L19.864886310059124,6.550186721764841 L20.786446686623744,6.720974745293367 L21.729844504234894,6.890357253035971 " />
			<path d="M22.505772575202318,7.025667330241123 L23.190796777686856,7.142205319272729 L23.887054010245595,7.257916960245338 L24.59470999208535,7.372760528840747 L25.313932769758487,7.4866931423198295 L26.044892733397795,7.599670730781364 L26.787762632004696,7.711648007820881 L27.54271758772327,7.822578440587236 L28.30993510901539,7.932414219230287 L29.089595102660255,8.0411062257362 L29.881879884488328,8.148604002147527 L30.686974188759596,8.254855718164313 L31.50506517609463,8.359808138124617 L32.336342439850945,8.463406587364348 L33.180998010850296,8.565594917953346 L34.03922636033862,8.666315473811448 L34.911224401068935,8.765509055203841 L35.7971914863866,8.86311488261908 L36.69732940718908,8.959070560034247 L37.61184238663309,9.053312037571468 L38.540937072446255,9.145773573552075 L39.484822526706296,9.236387695958324 L40.443710212933276,9.325085163308518 L41.41781398034062,9.411794924960814 L42.40735004508198,9.496444080854925 L43.412536968322115,9.57895784070959 L44.433595630958166,9.65925948269046 L45.470749204802445,9.737270311568436 L46.52422312003804,9.81290961638921 L47.594245028745604,9.886094627678784 L48.68104476429089,9.956740474210033 L49.78485429636365,10.024760139360389 L50.90590768143333,10.090064417091359 L52.044441008398955,10.152561867587904 L53.20069233917841,10.212158772591026 L54.37490164400092,10.268759090471905 L55.56731073112806,10.322264411087428 L56.77816317074118,10.37257391046915 L58.00770421271778,10.419584305399983 L59.2561806980001,10.463189807933526 L60.52384096326514,10.503282079921767 L61.81093473858479,10.539750187615725 L63.117713037757575,10.57248055641222 L64.44442804098404,10.60135692582305 L65.79133296954805,10.626260304752385 L67.15868195215832,10.647068927166481 L68.5467298825873,10.663658208254853 L69.95573226824413,10.675900701180622 L71.38594506930674,10.683666054530235 L72.83762452801653,10.686820970575331 L74.31102698775312,10.685229164469716 L75.80640870147212,10.678751324509085 L77.32402562910312,10.667245073594064 L78.86413322347606,10.650564932036929 L80.42698620435615,10.628562281869169 L82.01283832014377,10.601085332812918 L83.62194209679797,10.567979090083101 L85.25454857353687,10.52908532420555 L86.91090702485896,10.484242543041008 L88.59126466842483,10.433285966210958 L90.29586635834096,10.37604750214211 L92.02495426338025,10.312355727945738 L93.77876752967808,10.242035872365816 L95.55754192743073,10.1649098020374 L97.36150948114567,10.0807960113112 " />
			<path d="M18.157379376745272,-3.395723142629153 L18.19891937168836,-3.2839321358121363 L18.245731609567983,-3.1724711267142345 L18.29772782323361,-3.061410571145935 L18.354816615379136,-2.9508197872501505 L18.416903593624244,-2.840766898742347 L18.48389150800581,-2.731318780786066 L18.5556803905538,-2.6225410085674317 L18.63216769662717,-2.514497808623538 L18.713248447687615,-2.4072520129709676 L18.79881537519224,-2.3008650160721267 L18.888759065290376,-2.195396734668518 L18.982968104015285,-2.09090557050174 L19.081329222667502,-1.9874483759347257 L19.183727443093694,-1.8850804224777273 L19.290046222572713,-1.7838553722156671 L19.400167598029263,-1.683825252125923 L19.51397232930484,-1.5850404312682744 L19.631340041225496,-1.4875496008216715 L19.752149364216557,-1.391399756935773 L19.87627807322543,-1.2966361863587812 L20.003603224725016,-1.203302454797005 L20.134001291582077,-1.1114403979558896 L20.267348295587126,-1.0210901152068557 L20.40351993745457,-0.9322899658193217 L20.542391724114637,-0.8450765676926513 L20.683839093131176,-0.7594847985185449 L20.827737534092122,-0.6755477993005155 L20.973962706832413,-0.5932969801536532 L21.122390556361648,-0.5127620283047506 L21.272897424381586,-0.4339709182101699 L21.425360157291117,-0.35694992370647977 L21.57965621058858,-0.28172363210690116 L21.735663749593606,-0.20831496015498113 L21.893261746422354,-0.13674517174563056 L22.052330073161873,-0.06703389732271214 L22.21274959120025,0.0008008451382562522 L22.374402236680503,0.06674262765403678 L22.53717110205647,0.13077658835600603 L22.70094051373916,0.19288940630239884 L22.865596105831866,0.2530692750714284 L23.031024889961586,0.3113058752254712 L23.197115321223084,0.3675903457354806 L23.363757360260465,0.42191525445355427 L23.530842531519028,0.47427456772013615 L23.86591651051853,0.5730790779649165 L24.201502706254868,0.663982375583301 L24.536794688944457,0.74698327491742 L24.871015371127328,0.8220998289940178 L25.203418009279908,0.889368232738212 L25.53328699726258,0.9488417146588212 L25.859938462826015,1.0005894250438603 L26.182720679053496,1.0446953280099442 L26.50101430307605,1.0812571040462595 L26.814232454679008,1.1103850689927297 L27.121820647539007,1.132201114701966 L27.42325658580681,1.1468376759630898 L27.71804983860067,1.154436727619052 L28.005741404714556,1.1551488151927178 L28.285903179490884,1.1491321217547827 L28.558137335375676,1.1365515732216132 L28.822075627177814,1.117577983765301 L29.077378632509543,1.092387242552921 L29.323734937302692,1.061159542607487 L29.560860275687066,1.0240786521994283 L29.788496632894216,0.9813312288336683 L30.00641131921944,0.9331061755924835 L30.214396022446177,0.8795940393267225 L30.41226584551605,0.8209864499558073 L30.59985833562088,0.7574755999382079 L30.689755711716913,0.7239415468825152 L30.777032510304057,0.6892537628065951 L30.86167430385799,0.6534362217885352 L30.943667885592266,0.6165128495233262 L31.023001239508083,0.5785075114309314 L31.0996635106372,0.53944400130002 L31.17364497550425,0.49934603045544773 L31.24493701283296,0.4582372174373615 L31.313532074518925,0.4161410781796956 L31.379423656890047,0.3730810166756999 L31.442606272274194,0.3290803161180672 L31.50307542089187,0.28416213050117367 L31.560827563090537,0.23834947667295828 L31.61586009193552,0.1916652268239088 L31.668171306171196,0.1441321014007292 L31.717760383564894,0.09577266243224976 L31.764627354644627,0.046609307255255035 L31.808773076840616,-0.0033357373720208296 L31.85019920903935,-0.05404042078087484 L31.88890818655802,-0.1054828735396032 L31.924903196546005,-0.1576414122493261 L31.9581881538191,-0.21049454399990056 L31.98876767713129,-0.2640209704974711 L32.01664706588804,-0.3181995918750443 L32.04183227730424,-0.37300951019727324 L32.064329904008915,-0.42843003267047636 L32.084147152098566,-0.4844406745686659 L32.101291819639755,-0.5410211618861882 L32.11577227562131,-0.5981514337273747 L32.1275974393557,-0.6558116444433171 L32.13677676032863,-0.7139821655257671 L32.143320198495374,-0.7726435872678151 L32.14723820502173,-0.8317767202008652 L32.14854170346723,-0.8913625963171427 " />
			<path d="M32.14854170346724,-0.8913625963171529 L32.14668309316477,-0.9631985321835015 L32.14112093001699,-1.0356236728176378 L32.131876346589586,-1.1086068230012296 L32.11897128364789,-1.182117246939497 L32.10242844989064,-1.256124668751576 L32.08227128290299,-1.330599272494475 L32.05852391131078,-1.4055117017468384 L32.03121111811774,-1.480833058777728 L32.000358305206,-1.5565349033247713 L31.965991458979797,-1.6325892510050468 L31.928137117131662,-1.7089685713812144 L31.886822336509677,-1.7856457857045078 L31.84207466206422,-1.8625942643553344 L31.793922096851965,-1.9397878240013628 L31.742393073074815,-2.017200724492217 L31.687516424131275,-2.0948076655089802 L31.629321357657247,-2.172583782986041 L31.567837429533757,-2.2505046453219495 L31.503094518838363,-2.328546249395259 L31.435122803717682,-2.4066850164006106 L31.363952738157995,-2.4848977875195675 L31.289615029631324,-2.5631618194400807 L31.212140617594315,-2.6414547797377566 L31.131560652817594,-2.7197547421315114 L31.047906477523323,-2.7980401816255274 L30.961209606308966,-2.876289969548864 L30.778814587259376,-3.0326000272311093 L30.584630482518534,-3.188523618377243 L30.378913840425593,-3.3439054564293627 L30.161922386181157,-3.4985960941875485 L29.933914578245737,-3.6524517504782503 L29.695149203309175,-3.8053341352857193 L29.445885007474626,-3.957110274152502 L29.186380361403874,-4.107652332560374 L28.916892957274534,-4.256837440916234 L28.637679535504372,-4.404547520688395 L28.348995639302114,-4.550669112166493 L28.051095395206765,-4.695093204252968 L27.744231317878754,-4.83771506663452 L27.428654137504722,-4.978434084628514 L27.10461264827398,-5.117153596950893 L26.772353576477563,-5.2537807366087055 L26.432121466870615,-5.388226275081356 L26.084158586025175,-5.520404469919927 L25.728704841483502,-5.650232915862681 L25.36599771560121,-5.777632399537373 L24.996272213045312,-5.902526757796406 L24.619760820984688,-6.024842739709365 L24.236693481079044,-6.144509872218332 L23.847297572437956,-6.261460329444868 L23.45179790478343,-6.375628805622989 L23.050416721108352,-6.48695239161994 L22.643373709179073,-6.595370454995755 L22.23088602128259,-6.700824523543397 L21.813168301669382,-6.803258172243373 L21.39043272118974,-6.902616913560316 L20.96288901866613,-6.9988480910034845 L20.530744548586583,-7.091900775868838 L20.094204334744,-7.181725667076857 L19.653471129483858,-7.268274994017522 L19.20874547825934,-7.351502422312076 L18.76022578922597,-7.431362962399702 L18.308108407641335,-7.507812880856652 L17.852587694865036,-7.580809614354992 L17.393856111784068,-7.650311686168401 L16.93210430651667,-7.716278625133005 L16.46752120627403,-7.778670886972143 L16.000294113285676,-7.837449777895198 L15.530608804718208,-7.892577380382043 L15.058649636541741,-7.94401648106654 L14.584599651320957,-7.991730500634173 L14.10864068993062,-8.035683425651305 L13.630953507216896,-8.075839742245579 L13.151717891648262,-8.11216437155946 L12.671112789020023,-8.144622606901573 L12.18931643029823,-8.173180052522948 L11.706506463709637,-8.197802563948224 L11.222860091205206,-8.218456189794683 L10.738554209445757,-8.235107115014996 L10.253765555479529,-8.247721605502637 L9.768670857303357,-8.256265954002108 L9.283446989520561,-8.260706427269605 L8.798271134331978,-8.26100921443291 L8.31332094811861,-8.25714037650307 L7.828774733899303,-8.249065796994152 L7.3448116199708195,-8.236751133611069 L6.861611745063731,-8.220161770969586 L6.379356450374341,-8.19926277431696 L5.8982284788605845,-8.174018844225797 L5.418412182219647,-8.144394272238781 L4.9400937359955455,-8.11035289744643 L4.463461363297684,-8.07185806398562 L3.988705567645885,-8.028872579451956 L3.516019375493232,-7.981358674225008 L3.0455985890174677,-7.929277961711791 L2.577642049811745,-7.872591399520646 L2.112351914149311,-7.811259251584793 L1.6499339405432327,-7.745241051262923 L1.1905977903712728,-7.674495565452327 L0.7345573423884435,-7.598980759759444 L0.2820310220062955,-7.518653764782426 L-0.16675785372248378,-7.433470843571214 L-0.6115807144111302,-7.343387360342095 L-1.0522033568662699,-7.24835775053664 L-1.488385546690907,-7.1483354923286875 L-1.9198805997395716,-7.043273079698031 L-2.346434942117645,-6.933121997206475 L-2.7677876473269176,-6.817832696629355 L-3.183669949062422,-6.6973545756161315 L-3.5938047280610563,-6.571635958575011 L-3.9979059712912886,-6.440624080000509 L-4.395678201652911,-6.304265070489214 L-4.786815876227042,-6.162503945717551 L-5.171002750977423,-6.015284598687298 L-5.547911209656185,-5.862549795579371 L-5.73353036957266,-5.784095904185114 L-5.917201554505188,-5.704241175594508 L-6.09888029144593,-5.622978139312678 L-6.278521256173607,-5.540299255202224 L-6.4560782473865235,-5.456196913890532 L-6.631504160085192,-5.370663437265444 L-6.804750958178933,-5.283691079064168 L-6.975769646290539,-5.19527202555998 L-7.144510240732129,-5.105398396352215 L-7.310921739623389,-5.014062245264431 L-7.4749520921240915,-4.9212555613567925 L-7.636548166749928,-4.826970270058513 L-7.795655718741075,-4.731198234426544 L-7.952219356450595,-4.633931256537108 L-8.106182506719847,-4.535161079017179 L-8.257487379205541,-4.434879386723011 L-8.406074929622743,-4.333077808573431 L-8.551884821866935,-4.229747919546131 L-8.694855388975533,-4.124881242845228 L-8.834923592890005,-4.018469252249254 L-8.97202498297622,-3.9105033746487976 L-9.106093653260372,-3.800974992783871 L-9.237062198335837,-3.6898754481912843 L-9.364861667894978,-3.5771960443730912 L-9.48942151983743,-3.462928050197482 L-9.610669571906103,-3.347062703544442 L-9.728531951798479,-3.229591215208876 L-9.842933045700521,-3.1105047730745863 L-9.953795445187938,-2.98979454657306 L-10.061039892436627,-2.8674516914426307 L-10.164585223684155,-2.743467354802468 L-10.264348310879443,-2.617832680559099 L-10.360244001457595,-2.490538815161982 L-10.452185056173303,-2.361576913726537 L-10.540082084924281,-2.2309381465440516 L-10.62384348049351,-2.098613705998249 L-10.703375350136684,-1.9645948139101255 L-10.778581444938165,-1.8288727293332794 L-10.84936308685633,-1.6914387568229217 L-10.915619093376282,-1.5522842552040472 L-10.977245699684463,-1.4114006468640488 L-11.034136478277121,-1.268779427597943 L-11.086182255911389,-1.1244121770341962 L-11.133271027803472,-0.9782905696726971 L-11.175287868976792,-0.8304063865654875 L-11.212114842657503,-0.6807515276755691 L-11.243630905611981,-0.5293180249474434 L-11.26971181031801,-0.37609805612838193 L-11.29023000385508,-0.22108395937857225 L-11.305054523398415,-0.06426824871226977 L-11.314050888193526,0.0943563696870114 L-11.317080987887554,0.25479698023078245 " />
			<path d="M-11.317080987887554,0.25479698023087133 L-11.31498922036003,0.38852217043918075 L-11.308659209919895,0.5234915755497466 L-11.298007510263986,0.6597087973401733 L-11.282948790239121,0.7971773075198302 L-11.263395784176033,0.9359004392931225 L-11.239259240832753,1.0758813785391828 L-11.210447870906748,1.2171231545909655 L-11.176868293074394,1.3596286305961722 L-11.138424978514012,1.5034004934427847 L-11.095020193869768,1.648441243229292 L-11.046553942610545,1.794753182260731 L-10.992923904737477,1.942338403549181 L-10.934025374792315,2.091198778798084 L-10.869751198118475,2.241335945847162 L-10.799991705324086,2.392751295554989 L-10.724634644895692,2.545445958094773 L-10.643565113910185,2.6994207886374526 L-10.556665486790742,2.8546763523958916 L-10.46381534205189,3.011212909002345 L-10.364891386975815,3.169030396189609 L-10.259767380164611,3.328128412746493 L-10.148314051905519,3.4885062007152556 L-10.030399022292308,3.650162626798006 L-9.905886717037573,3.813096162938289 L-9.774638280915541,3.977304866041004 L-9.636511488768658,4.142786356793881 L-9.491360654012958,4.309537797550735 L-9.33903653457611,4.477555869235773 L-9.179386236197416,4.646836747226965 L-9.012253113022512,4.817376076172371 L-8.837476665421311,4.989168943694806 L-8.6548924349568,5.1622098529348195 L-8.464331896432629,5.336492693882147 L-8.26562234694533,5.512010713442895 L-8.058586791867013,5.6887564841867455 L-7.843043827681971,5.866721871717331 L-7.618807521601802,6.045898000605437 L-7.3856872878827176,6.226275218822911 L-7.143487760767206,6.407843060611487 L-6.892008663971588,6.590590207718888 L-6.631044676644551,6.77450444893161 L-6.360385295716787,6.9595726378293525 L-6.079814694565147,7.145780648685922 L-5.789111577915571,7.33311333043388 L-5.488049032907146,7.521554458611741 L-5.176394376244447,7.711086685204614 L-4.85390899736263,7.901691486288578 L-4.520348197535626,8.093349107383798 L-4.175461024856272,8.286038506418185 L-3.818990105021842,8.479737294198696 L-3.450671467861845,8.674421672284014 L-3.070234369545643,8.87006636814767 L-2.677401110415948,9.06664456751576 L-2.27188684839429,9.264127843759669 L-1.8533994079138987,9.462486084219014 L-1.4216390843383921,9.661687413325282 L-0.9762984438341507,9.861698112391187 L-0.5170621186705038,10.06248253592644 L-0.04360659792997717,10.26400302433515 L0.44439998637634126,10.466219812843374 L0.947298077786214,10.669090936502458 L1.4654369184407408,10.872572131105615 L1.9991747766833918,11.076616729850157 L2.548879179163664,11.28117555557373 L3.114927147381839,11.486196808383928 L3.6977054385959525,11.691625948497567 L4.297610790994412,11.897405574097307 L4.915050173010161,12.103475294010307 L5.550441036635433,12.309771595003815 L6.204211574563258,12.516227703490419 L6.876800980955376,12.722773441425872 L7.5686597156092645,12.929335076180465 L8.280249771251006,13.135835164155836 L9.012044943658273,13.34219238791442 L9.764531104262211,13.54832138658566 L10.538206474843609,13.754132579303896 L11.333581903883168,13.959531981431477 L12.151181144076151,14.164421013315179 L12.991541130464572,14.368696301319247 L13.855212258576008,14.572249470876312 L14.742758661893486,14.774966931295067 L15.654758487907005,14.976729652059667 L16.591804171917243,15.177412930357065 L17.554502707681095,15.376886149569161 L18.543475913891182,15.575012528463182 L19.55936069538875,15.77164886082314 L20.602809297896144,15.9666452452651 L21.674489554949602,16.159844804983642 L22.775085125577597,16.35108339718893 L23.905295721147105,16.540189312001523 L25.06583731965489,16.726982960582383 L26.257442365585796,16.911276552294876 L27.480859953299564,17.092873760708628 L28.736855991730767,17.271569378282646 L30.02621334799896,17.44714895958186 L31.34973196732984,17.61938845291923 L32.02455642690151,17.704182930461347 L32.70822896646781,17.78805382034245 L33.400854419159415,17.870970243199658 L34.102538697542045,17.952900645925602 L34.81338879376225,18.03381278878834 L35.53351277909816,18.1136737323707 L36.26301980288066,18.19244982432824 L37.00202009075858,18.27010668597061 L37.75062494227087,18.34660919866154 L38.50894672769529,18.42192149004715 L39.277098884135874,18.496006920106744 L40.055195910816145,18.56882806703526 L40.84335336353603,18.64034671295389 L41.64168784825888,18.710523829458772 L42.45031701378372,18.779319563003142 L43.269359543463956,18.846693220125402 L44.09893514592854,18.912603252518004 L44.939164544761304,18.97700724195167 L45.790169467091324,19.03986188505116 L46.65207263104918,19.101122977933805 L47.52499773203869,19.160745400714788 L48.40906942777049,19.218683101885702 L49.30441332201301,19.274889082573466 L50.211155946996975,19.329315380689014 L51.129424744427595,19.38191305497077 L52.05934804503682,19.432632168935484 L53.00105504662784,19.48142177474256 L53.95467579054023,19.52822989698588 L54.92034113648138,19.573003516419156 L55.89818273565447,19.615688553633678 L56.888333002119865,19.656229852692167 L57.89092508231918,19.69457116474172 L58.90609282269301,19.730655131609993 L59.93397073532252,19.76442326940996 L60.974693961516515,19.79581595216012 L62.028398233273414,19.824772395444658 L63.095219832531704,19.851230640126232 L64.17529554814368,19.87512753613437 L65.26876263047437,19.89639872634525 L66.37575874355475,19.914978630580727 L67.49642191469528,19.930800429741808 L68.63089048147903,19.9437960501069 L69.77930303603884,19.953896147813943 L70.94179836653389,19.961030093558858 L72.1185153957255,19.965125957531555 L73.30959311656186,19.96611049462548 L74.51517052467894,19.963909129944224 L75.73538654770572,19.958445944644193 L76.9703799712903,19.94964366214141 L78.22028936173159,19.937423634721135 L79.48525298512759,19.92170583058471 L80.76540872291801,19.902408821375705 L82.06089398373216,19.87944977022267 L83.37184561142378,19.852744420340468 L84.6983997891948,19.822207084236464 L86.04069193968493,19.787750633568137 L87.39885662093387,19.74928648969445 L88.77302741809308,19.706724614977663 L90.16333683077676,19.659973504884082 L91.56991615595228,19.60894018093705 L92.99289536624573,19.55353018457901 L94.43240298355606,19.493647572003912 L95.88856594786694,19.429194910013255 L97.36150948114567,19.360073272967416 " />

        </g>
        </g>
    </svg>
    