<?xml version="1.0" encoding="UTF-8" standalone="no"?>
    <svg
    xmlns:svg="http://www.w3.org/2000/svg"
    xmlns="http://www.w3.org/2000/svg"
    width="399"
    height="218"
    >
        <g transform="scale(4, -4)   translate(49.926406971192854,-26.613713863686087)" stroke-width="0.25"  fill="none">
        <!-- hidden lines -->
        <g  stroke="rgb(160,160,160)" fill="none" stroke-dasharray="0.25,0.25" >
    			<path d="M-47.426406871192846,-0.7856155882792342 L-47.41854094628193,-0.8336115371256922 L-47.39496792065906,-0.8714914976643817 L-47.355761963784026,-0.8991362855252059 L-47.30104643210197,-0.9164589199779727 L-47.23099348091834,-0.9234048976059364 L-47.14582352273469,-0.9199523637937117 L-47.045804533749276,-0.9061121814899851 L-46.93125121070494,-0.8819278970286664 L-46.80252398073661,-0.8474756031159874 L-46.660027867334264,-0.8028636994147229 L-46.504211215989145,-0.7482325514787295 L-46.335564283532996,-0.6837540491109899 L-46.15461769560868,-0.6096310655347028 L-45.9619407771256,-0.5260968190790729 " />
			<path d="M-47.426406871192846,-7.472290076394885 L-47.42490096467387,-7.41775261697835 L-47.42038415221871,-7.363248008888081 L-47.4128591545863,-7.308809083661933 L-47.40233050455383,-7.254468633272858 L-47.3888045441864,-7.200259390376252 L-47.37228942101675,-7.146214008593021 L-47.35279508313755,-7.092365042840265 L-47.330333273209,-7.0387449297214095 L-47.30491752138549,-6.985385967987613 L-47.27656313716557,-6.932320299082203 L-47.24528720017005,-6.879579887779877 L-47.21110854985389,-6.827196502932311 L-47.174047774158026,-6.775201698331796 L-47.13412719710795,-6.723626793704413 L-47.09137086536654,-6.6725028558442 L-47.045804533749276,-6.621860679899675 L-46.9974556497105,-6.571730770823997 L-46.94635333681006,-6.522143324999912 L-46.89252837717042,-6.473128212050593 L-46.83601319293462,-6.4247149568472866 L-46.7768418267364,-6.376932721724638 L-46.71504992119421,-6.329810288914394 L-46.65067469744138,-6.283376043208057 L-46.583754932705574,-6.237657954858952 L-46.44244452859607,-6.148479957725293 L-46.29145913800653,-6.062491135119581 L-46.131162497967644,-5.979898641647203 L-45.96194077712559,-5.9009014498591865 " />
			<path d="M-45.961940777125584,-5.900901449859185 L3.535533905932745,16.098539321640626 " />
			<path d="M47.426406871192846,-1.1867355702520834 L47.42490096467387,-1.1321981108355486 L47.42038415221871,-1.0776935027452794 L47.4128591545863,-1.0232545775191308 L47.40233050455383,-0.9689141271300563 L47.3888045441864,-0.9147048842334504 L47.37228942101675,-0.8606595024502194 L47.35279508313755,-0.8068105366974628 L47.330333273209,-0.7531904235786075 L47.30491752138549,-0.6998314618448109 L47.27656313716557,-0.646765792939402 L47.24528720017005,-0.5940253816370753 L47.21110854985389,-0.5416419967895091 L47.174047774158026,-0.48964719218899433 L47.13412719710795,-0.43807228756161143 L47.09137086536654,-0.3869483497013979 L47.045804533749276,-0.33630617375687377 L46.9974556497105,-0.28617626468119506 L46.94635333681006,-0.2365888188571108 L46.89252837717042,-0.18757370590779165 L46.83601319293462,-0.1391604507044848 L46.7768418267364,-0.09137821558183656 L46.71504992119421,-0.044255782771592145 L46.65067469744138,0.0021784629347445517 L46.583754932705574,0.047896551283848954 L46.44244452859607,0.1370745484175082 L46.29145913800653,0.22306337102322082 L46.131162497967644,0.305655864495598 L45.96194077712559,0.384653056283615 " />
			<path d="M3.5355339059327378,16.098539321640622 L3.7132730376303837,16.17375090058993 L3.899101391047248,16.244995675419077 L4.092571289403308,16.3121020112252 L4.293216646767464,16.374908242967518 L4.500554090899367,16.43326306493259 L4.714084127735486,16.48702589524302 L4.933292344714065,16.536067214531524 L5.1576506500400265,16.580268877964425 L5.386618544904375,16.619524399862904 L5.6196444255931635,16.653739210236328 L5.856166912349155,16.682830882609647 L6.095616201784834,16.70672933259598 L6.337415439588667,16.72537698673606 L6.580982110217672,16.738728921197715 L6.825729440228385,16.74675297000134 L7.0710678118654755,16.74942980251054 L7.316406183502566,16.74675297000134 L7.561153513513279,16.738728921197715 L7.804720184142283,16.72537698673606 L8.046519421946117,16.70672933259598 L8.285968711381795,16.682830882609647 L8.522491198137786,16.653739210236328 L8.755517078826575,16.619524399862904 L8.984484973690924,16.580268877964425 L9.208843279016886,16.53606721453152 L9.428051495995465,16.48702589524302 L9.641581532831584,16.43326306493259 L9.848918976963486,16.374908242967518 L10.04956433432764,16.3121020112252 L10.243034232683701,16.244995675419077 L10.428862586100568,16.17375090058993 L10.606601717798197,16.09853932164063 " />
			<path d="M45.961940777125584,0.38465305628361723 L10.606601717798206,16.098539321640622 " />
			<path d="M-45.961940777125584,-0.5260968190790647 L3.535533905932745,21.473343952420745 " />
			<path d="M7.0710678118654755,23.43610429062621 L7.0710678118654755,24.113713863686087 " />
			<path d="M3.5355339059327378,21.47334395242074 L3.739334922105453,21.566026632111686 L3.9536188025718033,21.66756613103835 L4.177711330966442,21.777642968371104 L4.410907429288791,21.89591080165519 L4.652473376339277,22.02199751653222 L4.901649116277682,22.1555063975496 L5.157650650040026,22.296017376374113 L5.419672502089636,22.443088353482324 L5.686890254741222,22.59625658916923 L5.958463142083904,22.755040159498577 L6.233536695341794,22.91893947261384 L6.511245431348936,23.08743884063905 L6.7907155756795134,23.260008102223644 L7.071067811865464,23.436104290626183 " />
			<path d="M47.426406871192846,5.499938917863567 L47.41854094628193,5.451942969017109 L47.394967920659056,5.414063008478419 L47.355761963784026,5.386418220617596 L47.30104643210197,5.36909558616483 L47.23099348091834,5.362149608536868 L47.14582352273469,5.365602142349092 L47.045804533749276,5.379442324652815 L46.93125121070494,5.403626609114134 L46.80252398073661,5.438078903026813 L46.660027867334264,5.482690806728078 L46.504211215989145,5.537321954664073 L46.335564283532996,5.601800457031814 L46.15461769560868,5.6759234406080985 L45.9619407771256,5.759457687063729 " />
			<path d="M7.0710678118654755,23.436104290626194 L7.3514200480514305,23.260008102223644 L7.630890192382015,23.08743884063905 L7.908598928389154,22.91893947261384 L8.183672481647044,22.75504015949858 L8.455245368989722,22.596256589169236 L8.722463121641308,22.443088353482327 L8.984484973690922,22.296017376374113 L9.240486507453262,22.1555063975496 L9.48966224739167,22.021997516532224 L9.731228194442153,21.89591080165519 L9.964424292764502,21.777642968371104 L10.188516821159137,21.667566131038352 L10.402800701625495,21.56602663211169 L10.606601717798197,21.47334395242075 " />
			<path d="M45.961940777125584,5.759457687063737 L10.606601717798206,21.47334395242074 " />

        </g>

        <!-- solid lines -->
        <g  stroke="rgb(0,0,0)" fill="none">
    			<path d="M-10.606601717798213,-19.38276033750747 L-45.96194077712559,-3.668874072150466 " />
			<path d="M-10.606601717798213,-24.75756496828759 L-45.96194077712559,-9.043678702930585 " />
			<path d="M-7.071067811865472,-18.721780961041876 L-7.071067811865472,-14.856724074399308 " />
			<path d="M-10.606601717798213,-19.38276033750747 L-10.402800701625495,-19.461350413986235 L-10.18851682115914,-19.520656443819792 L-9.964424292764502,-19.56049182829718 L-9.731228194442156,-19.580731230561156 L-9.489662247391674,-19.581310969964342 L-9.240486507453262,-19.562229222432087 L-8.984484973690925,-19.523546026201707 L-8.722463121641312,-19.465383092919932 L-8.455245368989726,-19.387923424693085 L-8.183672481647044,-19.291410738294726 L-7.908598928389154,-19.17614869834252 L-7.630890192382015,-19.042499961857 L-7.3514200480514305,-18.890885037208427 L-7.071067811865498,-18.721780961041873 " />
			<path d="M-7.071067811865477,-14.856724074399306 L-43.840620433565945,1.4857176415719806 " />
			<path d="M-47.42640687119284,-0.7856155882792173 L-43.840620433565945,1.4857176415719895 " />
			<path d="M-45.961940777125584,-3.668874072150467 L-46.15461769560868,-3.5712472224826413 L-46.335564283532996,-3.4548907698132534 L-46.504211215989145,-3.3201708145901514 L-46.660027867334264,-3.1675112356340405 L-46.80252398073661,-2.997392356458932 L-46.93125121070494,-2.810349433996624 L-47.04580453374928,-2.606970974480407 L-47.14582352273469,-2.3878968817866966 L-47.23099348091834,-2.1538164440607197 L-47.30104643210196,-1.9054661649609796 L-47.355761963784026,-1.6436274463462774 L-47.394967920659056,-1.369124129696375 L-47.41854094628193,-1.082819904001894 L-47.42640687119285,-0.785615588279247 " />
			<path d="M-7.0710678118654755,-18.72178096104186 L-6.7907155756795134,-18.890885037208427 L-6.511245431348936,-19.042499961857 L-6.233536695341794,-19.176148698342523 L-5.958463142083904,-19.29141073829473 L-5.686890254741222,-19.387923424693085 L-5.419672502089636,-19.46538309291993 L-5.157650650040026,-19.523546026201704 L-4.901649116277682,-19.56222922243209 L-4.652473376339277,-19.58131096996434 L-4.410907429288791,-19.580731230561156 L-4.177711330966442,-19.56049182829718 L-3.9536188025718033,-19.52065644381979 L-3.739334922105453,-19.46135041398623 L-3.5355339059327537,-19.382760337507477 " />
			<path d="M-10.606601717798213,-24.75756496828759 L-10.428862586100568,-24.832776547236897 L-10.243034232683701,-24.904021322066043 L-10.049564334327641,-24.971127657872167 L-9.848918976963486,-25.033933889614485 L-9.641581532831584,-25.092288711579556 L-9.428051495995465,-25.146051541889985 L-9.208843279016888,-25.195092861178487 L-8.984484973690927,-25.23929452461139 L-8.755517078826578,-25.278550046509867 L-8.522491198137793,-25.312764856883295 L-8.2859687113818,-25.341856529256614 L-8.046519421946119,-25.365754979242947 L-7.804720184142282,-25.384402633383026 L-7.561153513513278,-25.397754567844682 L-7.316406183502566,-25.405778616648306 L-7.071067811865476,-25.408455449157508 L-6.825729440228387,-25.405778616648306 L-6.580982110217675,-25.397754567844682 L-6.33741543958867,-25.384402633383026 L-6.095616201784834,-25.365754979242947 L-5.856166912349153,-25.341856529256614 L-5.619644425593161,-25.312764856883295 L-5.3866185449043735,-25.278550046509867 L-5.157650650040026,-25.23929452461139 L-4.933292344714065,-25.19509286117849 L-4.714084127735488,-25.146051541889985 L-4.500554090899367,-25.092288711579556 L-4.293216646767466,-25.033933889614485 L-4.0925712894033115,-24.971127657872167 L-3.899101391047251,-24.904021322066043 L-3.7132730376303873,-24.832776547236897 L-3.5355339059327697,-24.757564968287603 " />
			<path d="M-45.961940777125584,-9.043678702930587 L-46.131162497967644,-8.964681511142565 L-46.29145913800653,-8.88208901767019 L-46.44244452859607,-8.796100195064477 L-46.583754932705574,-8.706922197930817 L-46.65067469744138,-8.661204109581714 L-46.71504992119421,-8.614769863875377 L-46.7768418267364,-8.567647431065133 L-46.83601319293462,-8.519865195942485 L-46.89252837717042,-8.471451940739177 L-46.94635333681006,-8.42243682778986 L-46.997455649710496,-8.372849381965775 L-47.045804533749276,-8.322719472890096 L-47.09137086536654,-8.272077296945572 L-47.13412719710795,-8.220953359085359 L-47.174047774158026,-8.169378454457977 L-47.21110854985389,-8.117383649857462 L-47.24528720017005,-8.065000265009896 L-47.27656313716557,-8.012259853707569 L-47.30491752138549,-7.959194184802159 L-47.330333273209,-7.905835223068363 L-47.35279508313755,-7.852215109949507 L-47.37228942101675,-7.7983661441967485 L-47.3888045441864,-7.744320762413518 L-47.40233050455383,-7.690111519516912 L-47.4128591545863,-7.635771069127838 L-47.42038415221871,-7.581332143901689 L-47.42490096467387,-7.52682753581142 L-47.426406871192846,-7.472290076394906 " />
			<path d="M-3.5355339059327378,-24.75756496828759 L45.96194077712559,-2.7581241967877794 " />
			<path d="M45.961940777125584,-2.758124196787784 L46.131162497967644,-2.679127004999764 L46.29145913800653,-2.5965345115273877 L46.44244452859607,-2.5105456889216753 L46.583754932705574,-2.4213676917880163 L46.65067469744138,-2.375649603438912 L46.71504992119421,-2.329215357732575 L46.7768418267364,-2.282092924922331 L46.83601319293462,-2.234310689799683 L46.89252837717042,-2.1858974345963764 L46.94635333681006,-2.1368823216470574 L46.997455649710496,-2.0872948758229732 L47.045804533749276,-2.0371649667472944 L47.09137086536654,-1.9865227908027705 L47.13412719710795,-1.9353988529425572 L47.174047774158026,-1.8838239483151746 L47.21110854985389,-1.83182914371466 L47.24528720017005,-1.779445758867094 L47.27656313716557,-1.7267053475647676 L47.30491752138549,-1.6736396786593568 L47.330333273209,-1.6202807169255604 L47.35279508313755,-1.5666606038067052 L47.37228942101675,-1.512811638053947 L47.3888045441864,-1.4587662562707162 L47.40233050455383,-1.4045570133741103 L47.4128591545863,-1.350216562985036 L47.42038415221871,-1.2957776377588877 L47.42490096467387,-1.2412730296686185 L47.426406871192846,-1.1867355702521036 " />
			<path d="M-7.071067811865474,-14.856724074399306 L43.840620433565945,7.771272147714782 " />
			<path d="M-3.5355339059327378,-19.38276033750747 L45.96194077712559,2.6166804339923395 " />
			<path d="M47.42640687119281,5.499938917863599 L43.840620433565945,7.771272147714793 " />
			<path d="M45.961940777125584,2.6166804339923346 L46.15461769560868,2.714307283660163 L46.335564283532996,2.830663736329549 L46.50421121598915,2.9653836915526526 L46.66002786733428,3.1180432705087657 L46.80252398073662,3.288162149683878 L46.93125121070495,3.4752050721461862 L47.04580453374929,3.678583531662407 L47.145823522734695,3.8976576243561185 L47.23099348091836,4.1317380620821 L47.30104643210197,4.380088341181842 L47.35576196378403,4.641927059796548 L47.39496792065906,4.9164303764464545 L47.41854094628194,5.202734602140936 L47.42640687119285,5.499938917863565 " />
			<path d="M-43.84062043356594,1.4857176415719828 L7.071067811865483,24.113713863686073 " />
			<path d="M43.84062043356594,7.771272147714784 L7.071067811865468,24.113713863686073 " />
			<path d="M-10.606601717798213,-24.75756496828759 L-10.606601717798213,-19.38276033750747 " />
			<path d="M-45.961940777125584,-9.043678702930585 L-45.961940777125584,-3.668874072150464 " />
			<path d="M-3.5355339059327378,-24.75756496828759 L-3.5355339059327378,-19.38276033750747 " />
			<path d="M45.961940777125584,-2.758124196787784 L45.961940777125584,2.616680433992337 " />
			<path d="M-47.426406871192846,-7.472290076394885 L-47.426406871192846,-0.7856155882792377 " />
			<path d="M47.426406871192846,-1.1867355702520834 L47.426406871192846,5.499938917863566 " />

        </g>
        </g>
    </svg>
    