<?xml version="1.0" encoding="UTF-8" standalone="no"?>
    <svg
    xmlns:svg="http://www.w3.org/2000/svg"
    xmlns="http://www.w3.org/2000/svg"
    width="500.0"
    height="400.0"
    >
        <g transform="scale(2.9674062478441448, -2.9674062478441448)   translate(28.66178675039467,-55.25767224005285)" stroke-width="0.33699463992384315"  fill="none">
        <!-- hidden lines -->
        <g  stroke="rgb(160,160,160)" fill="none" stroke-dasharray="0.33699463992384315,0.33699463992384315" >
    			<path d="M-5.48739684764724,42.62522496114226 L-5.460471467504674,42.63159464532581 L-5.433610952961257,42.640092182683254 L-5.380343045843461,42.66338385480517 L-5.328106125358596,42.694875665972944 L-5.277403261606539,42.734264332829866 L-5.2287227508822225,42.78117052098206 L-5.182533413115399,42.83514249819609 L-5.139280076878424,42.89566048482731 L-5.099379295443936,42.96214165958196 L-5.063215335149136,43.033945772404834 L-5.031136474700895,43.11038131043734 L-5.003451651061417,43.19071215766431 L-4.980427484216417,43.274164684113636 L-4.962285709478899,43.35993519633582 L-4.949201042056891,43.44719767741123 L-4.941299494450472,43.53511174194458 L-4.938657162882516,43.62283072943571 " />
			<path d="M8.999999999999993,44.59460626090339 L8.99728936826583,44.6280375049156 L8.989159105846545,44.661448611196505 L8.975614110108205,44.694819454144984 L8.956662540049765,44.72812993241306 L8.932315811388383,44.7613599810142 L8.902588589683022,44.794489583409664 L8.867498781500464,44.827498783565765 L8.827067523629067,44.86036769797463 L8.78131917034675,44.893076527631266 L8.730281278750889,44.92560556995975 L8.673984592158952,44.957935230681315 L8.612463021589873,44.990046035617226 L8.545753625337323,45.0219186424193 L8.47389658664718,45.053533852220994 L8.396935189512643,45.08487262120208 L8.314915792601573,45.11591607205996 L8.135903638110983,45.17704241090251 L7.937291379135187,45.23676561004432 L7.719557490002441,45.294941791067544 L7.483226510722899,45.35143080245645 L7.228867783325797,45.406096557234754 L6.957094080264625,45.45880736081104 L6.668560128194624,45.50943622824258 L6.3639610306789205,45.55786119015315 L6.044030593623159,45.60396558656799 L5.7095395574728025,45.64763834795787 L5.361293740431892,45.68877426281532 L5.0001320971764125,45.727274231118365 L4.626924697738987,45.76304550307117 L4.242570631433969,45.796001902546394 L3.8479958408725308,45.82606403469107 L3.4441508912857994,45.85315947719574 L3.0320086805299713,45.87722295476611 L2.612562095290153,45.89819649637702 L2.1868216191293666,45.916029574929645 L1.755812898145146,45.93067922897577 L1.3205742700982466,45.94211016621564 L0.8821542629660358,45.95029484852021 L0.4416090689467541,45.955213558272916 L-8.563155573447644e-15,45.95685444587114 L-0.44160906894677115,45.955213558272916 L-0.882154262966053,45.95029484852021 L-1.320574270098264,45.94211016621564 L-1.7558128981451628,45.93067922897577 L-2.186821619129384,45.916029574929645 L-2.6125620952901705,45.89819649637702 L-3.03200868052999,45.87722295476611 L-3.444150891285818,45.85315947719574 L-3.8479958408725476,45.82606403469107 L-4.24257063143399,45.796001902546394 L-4.626924697739008,45.76304550307117 L-5.000132097176431,45.727274231118365 L-5.36129374043191,45.68877426281532 L-5.7095395574728185,45.64763834795787 L-6.044030593623173,45.60396558656799 L-6.363961030678937,45.55786119015315 L-6.668560128194642,45.50943622824258 L-6.957094080264642,45.45880736081104 L-7.228867783325812,45.406096557234754 L-7.483226510722915,45.35143080245645 L-7.719557490002456,45.294941791067544 L-7.937291379135203,45.23676561004432 L-8.135903638111,45.17704241090251 L-8.314915792601589,45.11591607205996 L-8.396935189512657,45.08487262120208 L-8.473896586647195,45.053533852220994 L-8.545753625337337,45.0219186424193 L-8.612463021589889,44.990046035617226 L-8.673984592158968,44.957935230681315 L-8.730281278750905,44.92560556995975 L-8.781319170346766,44.893076527631266 L-8.827067523629083,44.86036769797463 L-8.86749878150048,44.827498783565765 L-8.902588589683036,44.794489583409664 L-8.932315811388397,44.761359981014195 L-8.956662540049779,44.72812993241306 L-8.97561411010822,44.694819454144984 L-8.989159105846559,44.661448611196505 L-8.997289368265845,44.6280375049156 L-9.000000000000007,44.5946062609034 " />
			<path d="M-24.39184035115624,-44.85315675681069 L-24.38798297323577,-44.98038139240285 L-24.376425010297613,-45.10713864370903 L-24.357208922752292,-45.232962843469764 L-24.33040530461106,-45.35739175217075 L-24.296112624145152,-45.47996825616903 L-24.25445686214359,-45.60024204698834 L-24.20559104909838,-45.71777127561428 L-24.149694703017424,-45.83212417571208 L-24.086973169930452,-45.942880649803655 L-24.017656869510667,-46.04963381257691 L-23.942000448583563,-46.15199148565753 L-23.860281845632592,-46.24957763835206 L-23.77280126973844,-46.34203376906931 L-23.679880097702934,-46.42902022234525 L-23.58185969340927,-46.51021743663296 L-23.47910015375581,-46.585327118273796 L-23.371978985770532,-46.65407333733672 L-23.260889719766002,-46.71620354130029 L-23.14624046362974,-46.77148948285309 L-23.028452403561,-46.819728058404415 L-22.90795825676188,-46.86074205422451 L-22.785200681767055,-46.894380797473445 L-22.6606306522521,-46.92052070972697 L-22.534705800294546,-46.939065760965676 " />
			<path d="M-22.534705800294528,-46.939065760965676 L-10.875406183865445,-48.29657514049351 " />
			<path d="M-24.02152774283337,40.259547751689304 L-24.09014591626219,40.153153584962304 L-24.152228136925892,40.04281786855232 L-24.20754876660721,39.92894161830714 L-24.255906742133376,39.8119387181668 L-24.297126306141458,39.69223441589982 L-24.331057645869613,39.570263777537576 L-24.357577437652484,39.44647010612408 L-24.37658929514183,39.321303330528295 L-24.388024119623324,39.1952183701749 L-24.39184035115624,39.06867348163677 " />
			<path d="M-24.39184035115624,-44.85315675681069 L-24.39184035115624,39.06867348163677 " />
			<path d="M10.875406183865438,47.63308602890956 L22.534705800294514,46.275576649381726 " />
			<path d="M24.391840351156233,-39.732162593220714 L24.391840351156233,44.18966764522675 " />
			<path d="M24.021527742833356,-40.92303686327326 L24.090145916262177,-40.81664269654626 L24.15222813692588,-40.706306980136276 L24.207548766607204,-40.5924307298911 L24.255906742133366,-40.47542782975075 L24.29712630614145,-40.35572352748377 L24.331057645869606,-40.233752889121526 L24.357577437652477,-40.109959217708024 L24.376589295141823,-39.984792442112244 L24.388024119623317,-39.85870748175884 L24.391840351156233,-39.732162593220714 " />
			<path d="M-10.511920040469356,-48.307199143022835 L-9.744052132010204,-48.26197105755547 L-8.980925302213125,-48.21489169588118 L-8.222734474050284,-48.165974020486985 L-7.469672045043996,-48.11523117309494 L-6.721927887266734,-48.0626764746621 L-5.979689347341121,-48.00832342538054 L-5.243141246439933,-47.95218570467733 L-4.512465880286101,-47.89427717121459 L-3.7878430191527053,-47.83461186288941 L-3.0694499078629867,-47.773203996833935 L-2.357461265790334,-47.71006796941529 L-1.6520492868582863,-47.64521835623564 L-0.9533836395405441,-47.578669912132135 L-0.26163146686095295,-47.51043757117697 L0.4230426136064841,-47.44053644667733 L1.100476509737609,-47.368981831175425 L1.7705106548581155,-47.29578919644847 L2.4329880077435453,-47.2209741935087 L3.0877540526192755,-47.14455265260337 L3.734656799160541,-47.06654058321474 L4.373546782492419,-46.986954174060074 L5.004277063189841,-46.90580979309167 L5.626703227277573,-46.82312398749683 L6.240683386230238,-46.738913483697864 L6.846078176972299,-46.6531951873521 L7.442750761878071,-46.56598618335188 L8.030566828771711,-46.47730373582457 L8.609394590927225,-46.38716528813253 L9.179104787068473,-46.29558846287314 L9.739570681369143,-46.202591061878806 L10.290668063452792,-46.10819106621693 L10.832275248392806,-46.012406636189944 L11.411232007966849,-45.90652182294511 L11.97871337729032,-45.79901108475026 L12.53458979132454,-45.68989184143805 L13.07874021319893,-45.57917884963336 L13.611052134211041,-45.466884202753334 L14.131421573826543,-45.353017331007386 L14.639753079679222,-45.237585001397164 L15.135959727570988,-45.120591317716574 L15.601237637961297,-45.00670630538821 L16.05519749783193,-44.891370486716454 L16.497789857443653,-44.77457677317317 L16.92897797386675,-44.656309928358226 L17.348737810981007,-44.53654656799949 L17.757058039475726,-44.41525515995285 L18.153940036849725,-44.292396024202226 L18.53939788741132,-44.16792133285954 L18.780384490518138,-44.087269392271594 L19.016708809314917,-44.005878881349766 L19.24838500356023,-43.92373863824567 L19.47543116741351,-43.840829565377746 L19.697869329435054,-43.75712462943121 L19.915725452586003,-43.672588861358065 L20.12902943422838,-43.5871793563771 L20.337815106125067,-43.500845273973894 L20.542120234439793,-43.41352783790083 L20.74198651973716,-43.32516033617707 L20.93745959698263,-43.23566812108856 L21.128589035542525,-43.14496860918804 L21.315428339184027,-43.05297128129505 L21.498034946075176,-42.959577682495905 L21.67647022878488,-42.86468142214371 L21.85079949428291,-42.76816817385838 L22.013230004824614,-42.6745348928186 L22.17184114575755,-42.57916128013997 L22.32680146865935,-42.48186837078118 L22.478244236948004,-42.3824563543195 L22.626267425881878,-42.28070457495081 L22.770933722559693,-42.1763715314896 L22.91227052592053,-42.069194877368936 L23.050269946743843,-41.958891420640505 L23.184888807649443,-41.845157123974595 L23.316048643097506,-41.72766710466007 L23.44363569938858,-41.60607563460443 L23.567500934663556,-41.480016140333746 L23.68746001890371,-41.349101202992706 L23.80329333393067,-41.21292255834459 L23.914745973406436,-41.07105109677127 L24.021527742833346,-40.92303686327327 " />
			<path d="M24.391840351156233,44.189667645226734 L24.38798297323576,44.31689228081889 L24.376425010297606,44.44364953212507 L24.357208922752285,44.56947373188581 L24.33040530461105,44.693902640586785 L24.296112624145145,44.816479144585074 L24.254456862143584,44.936752935404385 L24.205591049098373,45.054282164030326 L24.14969470301742,45.168635064128125 L24.086973169930445,45.2793915382197 L24.01765686951066,45.38614470099295 L23.942000448583556,45.488502374073576 L23.86028184563259,45.58608852676811 L23.772801269738434,45.678544657485354 L23.679880097702927,45.765531110761295 L23.581859693409264,45.84672832504901 L23.479100153755805,45.92183800668984 L23.371978985770525,45.99058422575277 L23.260889719766,46.05271442971633 L23.146240463629734,46.108000371269135 L23.028452403560994,46.15623894682046 L22.907958256761873,46.19725294264055 L22.785200681767048,46.23089168588949 L22.660630652252095,46.257031598143016 L22.53470580029454,46.27557664938172 " />
			<path d="M-10.875406183865445,-48.29657514049351 L-10.754516419515323,-48.30712074646497 L-10.63321936300495,-48.310666026687 L-10.51192004046936,-48.30719914302283 " />
			<path d="M8.099999999999994,44.59460626090339 L8.103154892083507,44.528540820474944 L8.11240572862127,44.46416596148412 L8.127122805813642,44.40309693541679 L8.146289634236396,44.34679951805512 L8.168571820723658,44.29647466343136 L8.192398942539112,44.25307032436097 L8.216018213223046,44.21718878019686 L8.23780223762734,44.18896483517828 L8.270379165765322,44.15423961411169 L8.279140099064977,44.146492616191566 L8.28213425928454,44.144094450387755 " />
			<path d="M8.28213425928454,44.144094450387755 L8.280904517397266,44.144981031236426 L8.277198180024772,44.147507906231716 L8.262434396352596,44.15674830412764 L8.204600741632412,44.18771871352561 L8.131775526510602,44.22106650565994 L8.037938421374461,44.25867433250175 L7.924701381897317,44.29908482114005 L7.793481890080947,44.34111781578599 L7.645502954255581,44.383870377772844 L7.481793109079906,44.426716785556 L7.303186415541058,44.469308534713015 L7.110322460954631,44.511574337943514 L6.896617750152604,44.55443427392161 L6.6692690050616585,44.59620857161782 L6.428885843293813,44.63676089754705 L6.176078788898785,44.67596379167419 L5.911459272363986,44.71369866741419 L5.635639630614521,44.749855811632 L5.349233107013192,44.784334384642605 L5.0528538513604975,44.81704242021099 L4.7471169198946255,44.84789682555219 L4.432638275291465,44.87682338133124 L4.110034786664599,44.90375674166321 L3.7799242295653017,44.92864043411319 L3.442925285982547,44.9514268596963 L3.099657544343004,44.97207729287765 L2.750741499511031,44.99056188157242 L2.396798552788688,45.006859647145774 L1.9097757360725647,45.025333671737634 L1.4163172392369507,45.039609328355006 L0.9181243438736186,45.04963373858155 L0.4168882933171558,45.0553696490984 L-0.08570970735506747,45.05679543168417 L-0.5879984913228827,45.05390508321494 L-1.088316930023305,45.04670822566428 L-1.585013933150568,45.035230106103214 L-2.0764484486561057,45.01951159670026 L-2.560989462748538,44.9996091947214 L-3.0370159998937,44.9755950225301 L-3.50291712281463,44.94755682758729 L-3.9570919324915503,44.915597982451395 L-4.397949568161901,44.87983748477829 L-4.823909207320321,44.84040995732134 L-5.233400065718637,44.79746564793139 L-5.698202821814943,44.74195677891768 L-5.920179723189823,44.712519694911485 L-6.134807469416441,44.68205622157966 L-6.3417816889930165,44.65062654984021 L-6.540789663022329,44.61828918907384 L-6.731506531367013,44.585107127067786 L-6.913591498804845,44.551153989959694 L-7.086684041184017,44.51652020218151 L-7.2504001115784416,44.48131914640334 L-7.404328346443025,44.44569332347729 L-7.548026271768955,44.40982051238138 L-7.681016509238994,44.37391993016337 L-7.802782982382759,44.338258391884644 L-7.912767122732009,44.30315647056411 L-8.010364075975936,44.26899465712201 L-8.125095034879914,44.22387618290958 L-8.210697434885661,44.1847069381795 L-8.263988376194357,44.1557974903733 L-8.277617905444773,44.14725803577443 L-8.28103446732206,44.14492810781184 L-8.282134259284552,44.144094450387755 " />
			<path d="M-8.282134259284554,44.144094450387755 L-8.270985312842438,44.15367138233697 L-8.239991575843796,44.18636449301954 L-8.217945794799899,44.21451636425709 L-8.19384646687346,44.25067860057701 L-8.169451225909276,44.29471985071033 L-8.146576359530822,44.34606947736627 L-8.12729868012213,44.40249353951294 L-8.112488674021206,44.46373578971912 L-8.103176362108885,44.52831710118561 L-8.100000000000007,44.59460626090339 " />
			<path d="M-8.100000000000005,50.52547765584667 L-8.100000000000005,44.59460626090339 " />
			<path d="M8.099999999999994,50.52547765584667 L8.099999999999994,44.59460626090339 " />
			<path d="M-9.000000000000007,46.57282789123019 L-8.035113373877971,46.72357524747895 L-7.045894961505838,46.87021197346777 L-6.032901876467568,47.01267637413454 L-4.996717905933462,47.15090392472374 L-3.937952931638591,47.284827854873896 L-2.857242350861237,47.414379732705086 L-1.7552464974013349,47.53949004890646 L-0.6326500625589051,47.66008880082371 L0.5098384838875134,47.776106076546604 L1.671487472702426,47.887472638996435 L2.8515426142149436,47.99412051001358 L4.049227577340346,48.095983554444935 L5.263744568601656,48.19299806423146 L6.4942749111511775,48.28510334249567 L7.739979623792095,48.37224228762909 L8.999999999999934,48.454361977379826 " />
			<path d="M10.87540618386544,47.63308602890956 L10.754516419515317,47.643631634881025 L10.633219363004942,47.64717691510306 L10.511920040469352,47.643710031438886 " />
			<path d="M-24.02152774283337,40.2595477516893 L-23.912206532149668,40.410911191671616 L-23.798018651260712,40.55585247513272 L-23.679266680740653,40.694854149910206 L-23.556215873746243,40.82837564770798 L-23.429094156016834,40.95685328409624 L-23.298092125874376,41.0807002585115 L-23.163363054223424,41.200306654256565 L-23.02502288455112,41.316039438500574 L-22.883150232927218,41.42824246227894 L-22.737786388004068,41.537236460493396 L-22.588935311016613,41.64331905191199 L-22.43656363578241,41.74676473916904 L-22.280600668701595,41.84782490876521 L-22.120938388756926,41.94672783106745 L-21.95743144751374,42.04367866030901 L-21.789897169119993,42.13885943458946 L-21.617608045958228,42.23291803699566 L-21.44135087391566,42.32546458209522 L-21.261065256031905,42.41660300982791 L-21.07669443631401,42.506430116274785 L-20.888185299736453,42.595035553658256 L-20.695488372241133,42.68250183034204 L-20.49855782073739,42.768904310831175 L-20.297351453101975,42.854311215772036 L-20.09183071817908,42.9387836219523 L-19.881960705780322,43.02237546230098 L-19.667710146684744,43.105133525888405 L-19.44905141263882,43.187097457926235 L-19.225960516356444,43.26829975976745 L-18.998417111518954,43.348765788906356 L-18.766404492775102,43.42851375897855 L-18.529909595741078,43.50755473976101 L-18.14220513516967,43.63261056956561 L-17.742960988254644,43.756035299076856 L-17.332163389145915,43.87787736026033 L-16.909811487438642,43.998176888887464 L-16.475917348173194,44.1169657245356 L-16.03050595183518,44.23426741058796 L-15.573615194355424,44.35009719423363 L-15.105295887109978,44.46446202646758 L-14.60738897444803,44.581575001761045 L-14.097317059357826,44.6971207272906 L-13.575168179716675,44.81109483969361 L-13.041038921712902,44.92349032780258 L-12.495034419845846,45.0342975326452 L-11.937268356925863,45.143504147444254 L-11.367862964074323,45.25109521761772 L-10.786949020723616,45.357053140778696 L-10.245981279487596,45.45247029279353 L-9.695582602823512,45.5465089926769 L-9.135873983955904,45.63915121505925 L-8.566978910999104,45.730379113272846 L-7.989023366957234,45.82017501935171 L-7.402135829724218,45.90852144403167 L-6.806447272083762,45.99540107675033 L-6.202091161709366,46.08079678564711 L-5.589203461164332,46.16469161756318 L-4.967922627901757,46.247068798041525 L-4.33838961426452,46.32791173132692 L-3.7007478674852963,46.407204000365915 L-3.0551433296865618,46.48492936680686 L-2.401724437880585,46.56107177099988 L-1.7406421239694232,46.6356153319969 L-1.0720498147449224,46.708544347551644 L-0.39610343188873165,46.779843294119594 L0.2870386080276997,46.84949682685806 L0.9772153935431476,46.917489779626095 L1.6742635183065921,46.98380716498459 L2.3780170810772057,47.04843417419619 L3.0883076857243745,47.11135617722534 L3.8049644412276953,47.17255872273827 L4.527813961676955,47.232027538103004 L5.256680366272174,47.289748529389364 L5.991385279323565,47.34570778136894 L6.731747830251545,47.39989155751511 L7.477584653586737,47.45228630000307 L8.228709888969972,47.50287862970978 L8.984935181152284,47.551655346213984 L9.746069679994928,47.59860342779625 L10.511920040469239,47.64371003143888 " />

        </g>

        <!-- solid lines -->
        <g  stroke="rgb(0,0,0)" fill="none">
    			<path d="M-4.938657162882518,49.553702124379 L-4.480360461135905,49.50408452503519 L-4.000382722548419,49.459409577580715 L-3.501046620736033,49.419893469795554 L-2.98476850690827,49.38572742517527 L-2.4540467168359075,49.35707677757603 L-1.9114494810849076,49.334080171143 L-1.3596024970204963,49.316848889393555 L-0.8011762227220576,49.30546631670217 L-0.23887295429523517,49.29998753479274 L0.3245862508842782,49.30043905619108 L0.8864747417151345,49.30681869592745 L1.4440734679834415,49.31909558210986 L1.9946841381942375,49.337210305317164 L2.5356422769488645,49.36107520608878 L3.06433011868193,49.39057479912004 L3.5781892753634166,49.42556633211036 L4.074733116865308,49.46588047655984 L4.551558804082559,49.511322147171526 L5.006358916578602,49.5616714458941 L5.436932618487705,49.61668472603663 L5.642478580828126,49.645858013668075 L5.841196308640996,49.67609577130606 L6.032845324052837,49.70736140678674 L6.2171937033787845,49.73961708406188 L6.394018357784605,49.77282376898609 L6.563105303257199,49.80694127655392 L6.724249919556954,49.841928319529664 L6.877257197838522,49.87774255841101 L7.021941976640399,49.91434065266613 L7.158129165957703,49.95167831318214 L7.285653959127026,49.98971035586148 L7.40436203226687,50.02839075630135 L7.514109731032413,50.067672705490054 L7.614764244458526,50.107508666452865 L7.706203765680714,50.14785043177877 L7.788317639339444,50.188649181958574 L7.861006495489532,50.22985554446377 L7.924182369852471,50.271419653494554 L7.977768810266247,50.31329121032489 L8.021700969203767,50.35541954417136 L8.05592568224797,50.39775367351235 L8.069384343404286,50.41898190997659 L8.080401532428644,50.440242367783206 L8.088973915961416,50.46152861437019 L8.09509890034309,50.482834209372854 L8.098774632398992,50.50415270657249 L8.099999999999993,50.52547765584666 " />
			<path d="M8.099999999999993,50.52547765584667 L8.097560431439247,50.555565775457666 L8.09024319526189,50.585635771110475 L8.078052699097384,50.615669529764105 L8.060996286044787,50.64564896020538 L8.039084230249543,50.6755560039464 L8.012329730714718,50.70537264610232 L7.980748903350417,50.73508092624281 L7.944360771266159,50.76466294921079 L7.903187253312074,50.794100895901764 L7.857253150875799,50.823377033997396 L7.806586132943055,50.8524737286468 L7.751216719430884,50.881373453089125 L7.691178262803589,50.910058799210994 L7.626506927982461,50.938512488032515 L7.483424213341415,50.99465648588758 L7.3223132742998835,51.04967019084587 L7.143562241221668,51.10342107007351 L6.947601741002196,51.15577963299441 L6.734903859650608,51.206619743244424 L6.505981004993217,51.2558189225449 L6.261384672238162,51.303258645763556 L6.00170411537516,51.348824626451936 L5.727564927611027,51.39240709217145 L5.4396275342608424,51.43390104894481 L5.138585601725521,51.473206534195704 L4.825164366388702,51.51022885756741 L4.50011888745877,51.54487882904015 L4.164232227965087,51.57707297379767 L3.8183135682905713,51.60673373332538 L3.4631962567852765,51.63378965225559 L3.099735802157219,51.65817555050978 L2.7288078124769735,51.67983268032312 L2.3513058857611373,51.698708867772936 L1.9681394572164292,51.7147586384703 L1.5802316083306305,51.72794332711182 L1.1885168430884212,51.7382311706277 L0.7939388366694315,51.74559738470181 L0.39744816205207795,51.750024223479244 L-8.41738275186298e-15,51.75150102231764 L-0.39744816205209477,51.750024223479244 L-0.7939388366694484,51.74559738470181 L-1.188516843088438,51.7382311706277 L-1.5802316083306471,51.72794332711182 L-1.9681394572164461,51.7147586384703 L-2.351305885761154,51.698708867772936 L-2.7288078124769917,51.67983268032312 L-3.099735802157237,51.65817555050978 L-3.463196256785294,51.63378965225559 L-3.8183135682905913,51.60673373332538 L-4.164232227965107,51.57707297379767 L-4.500118887458788,51.54487882904015 L-4.825164366388719,51.51022885756741 L-5.138585601725537,51.473206534195704 L-5.439627534260857,51.43390104894481 L-5.727564927611044,51.39240709217145 L-6.001704115375178,51.348824626451936 L-6.2613846722381785,51.303258645763556 L-6.505981004993232,51.2558189225449 L-6.7349038596506245,51.206619743244424 L-6.947601741002211,51.15577963299441 L-7.143562241221684,51.10342107007351 L-7.3223132742998995,51.04967019084587 L-7.48342421334143,50.99465648588758 L-7.626506927982475,50.938512488032515 L-7.691178262803604,50.910058799210994 L-7.7512167194309,50.881373453089125 L-7.806586132943071,50.8524737286468 L-7.857253150875815,50.82337703399739 L-7.9031872533120895,50.794100895901764 L-7.944360771266174,50.76466294921079 L-7.980748903350432,50.73508092624281 L-8.012329730714733,50.70537264610232 L-8.039084230249559,50.6755560039464 L-8.060996286044801,50.64564896020538 L-8.078052699097398,50.615669529764105 L-8.090243195261904,50.585635771110475 L-8.09756043143926,50.555565775457666 L-8.100000000000007,50.52547765584668 " />
			<path d="M-8.100000000000007,50.52547765584667 L-8.096688206530066,50.490421970491795 L-8.086755534262467,50.45539495110972 L-8.070210105409343,50.42042524023231 L-8.047065449611,50.385541433528736 L-8.017340492872362,50.350772056422024 L-7.981059542086667,50.316145540763046 L-7.938252265159075,50.28169020158105 L-7.888953666746424,50.2474342139297 L-7.833204059632986,50.213405589847554 L-7.771049031765622,50.17963215545191 L-7.702539408975299,50.14614152818462 L-7.627731213415447,50.11296109422856 L-7.546685617751139,50.080117986113244 L-7.459468895136568,50.04763906052781 L-7.366152365021718,50.01555087635957 L-7.266812334832535,49.98387967297613 L-7.1615300375722954,49.95265134876875 L-7.050391565395212,49.921891439974495 L-6.810914334346995,49.86187707782613 L-6.549163789337648,49.80403284780592 L-6.265995917064741,49.74854791433919 L-5.962336743993036,49.69560372638898 L-5.639179308027137,49.64537342407461 L-5.29758041104074,49.59802127246226 L-4.938657162882576,49.55370212437901 " />
			<path d="M-5.487396847647242,43.51485567038375 L-5.235955709730298,43.48661992365481 L-4.978178290151005,43.459725004446184 L-4.4448696917204655,43.41008617394122 L-3.890051800817814,43.36617938751326 L-3.3164094521202996,43.328217115712945 L-2.7267185742621187,43.2963830628249 L-2.123832756761008,43.270831277899305 L-1.5106694411338841,43.25168540928882 L-0.8901958030245076,43.23903810629839 L-0.26541439366137165,43.232950570843464 L0.36065138987142104,43.23345226128607 L0.9849719352390391,43.24054074988203 L1.604526075537158,43.254181734529155 L2.2163157091047094,43.2743092047595 L2.8173803077209616,43.3008257611724 L3.4048112429799233,43.333603086762686 L3.9757658615149083,43.37248256786304 L4.527481240961453,43.4172760616958 L5.0572875600917335,43.467766806819895 L5.313169149934943,43.495073340626476 L5.5626210184206695,43.5237104720672 L5.8053412918533445,43.55364354597293 L6.041036242764118,43.58483633889223 L6.269420645364585,43.61725110292717 L6.490218120712219,43.65084861141382 L6.703161471169819,43.68558820639235 L6.907993003754206,43.721427847809174 L7.104464841982896,43.75832416439163 L7.292339225841333,43.79623250613367 L7.471388799507727,43.83510699832893 L7.6413968864872475,43.87490059708598 L7.802157751822666,43.915565146258345 L7.953476851064116,43.95705143572058 L8.095171065696697,43.999309260919844 L8.227068924740967,44.04228748363081 L8.349010812258237,44.085934093840486 L8.460849160509476,44.13019627268805 L8.562448628534128,44.1750204563835 L8.653686265932716,44.22035240102773 L8.734451661655037,44.26613724825572 L8.804647077613858,44.312319591623265 L8.864187566962498,44.35884354365697 L8.913001076893076,44.40565280348638 L8.933366245567656,44.429146733522224 L8.951028535831078,44.452690724976364 L8.96598260378254,44.47627765438108 L8.978223924920716,44.49990038527732 L8.987748795512687,44.52355177037396 L8.994554333714547,44.54722465371026 L8.998638480443326,44.570911872820965 L8.999999999999993,44.594606260903376 " />
			<path d="M-9.000000000000007,44.59460626090339 L-8.996320229477853,44.55565549939797 L-8.985283926958296,44.516736588973444 L-8.966900117121492,44.47788135466521 L-8.941183832901112,44.43912156943902 L-8.908156103191512,44.400488928209334 L-8.867843935651852,44.362015021921586 L-8.820280294621194,44.32373131171937 L-8.765504074162692,44.28566910321786 L-8.703560066258873,44.24785952090437 L-8.634498924184024,44.21033348268699 L-8.558377121083666,44.17312167461222 L-8.475256903794941,44.13625452577215 L-8.38520624194571,44.0997621834218 L-8.288298772373963,44.063674488326875 L-8.18461373891302,44.02802095036216 L-8.074235927591705,43.99283072438057 L-7.95725559730255,43.95813258637236 L-7.833768405994679,43.9239549099343 L-7.703875332451748,43.89032564306778 L-7.5676825937188825,43.85727228532501 L-7.2768486548196085,43.79300091863589 L-6.962217685627489,43.73135099256175 L-6.6248186044367054,43.67252411706151 L-6.265754786696818,43.61671267004555 L-5.886200456711933,43.564099168254046 L-5.487396847647306,43.51485567038377 " />
			<path d="M-5.487396847647242,49.445727065327034 L-5.235955709730298,49.41749131859809 L-4.978178290151005,49.390596399389466 L-4.4448696917204655,49.3409575688845 L-3.890051800817814,49.297050782456544 L-3.3164094521202996,49.25908851065623 L-2.7267185742621187,49.22725445776818 L-2.123832756761008,49.201702672842586 L-1.5106694411338841,49.1825568042321 L-0.8901958030245076,49.16990950124167 L-0.26541439366137165,49.163821965786745 L0.36065138987142104,49.16432365622935 L0.9849719352390391,49.17141214482531 L1.604526075537158,49.185053129472436 L2.2163157091047094,49.20518059970278 L2.8173803077209616,49.23169715611568 L3.4048112429799233,49.26447448170597 L3.9757658615149083,49.30335396280632 L4.527481240961453,49.34814745663908 L5.0572875600917335,49.39863820176318 L5.313169149934943,49.42594473556976 L5.5626210184206695,49.45458186701048 L5.8053412918533445,49.48451494091621 L6.041036242764118,49.51570773383551 L6.269420645364585,49.54812249787045 L6.490218120712219,49.5817200063571 L6.703161471169819,49.616459601335634 L6.907993003754206,49.652299242752456 L7.104464841982896,49.68919555933491 L7.292339225841333,49.72710390107695 L7.471388799507727,49.76597839327221 L7.6413968864872475,49.805771992029264 L7.802157751822666,49.846436541201626 L7.953476851064116,49.88792283066386 L8.095171065696697,49.930180655863126 L8.227068924740967,49.97315887857409 L8.349010812258237,50.01680548878377 L8.460849160509476,50.061067667631335 L8.562448628534128,50.10589185132678 L8.653686265932716,50.15122379597101 L8.734451661655037,50.197008643199 L8.804647077613858,50.243190986566546 L8.864187566962498,50.28971493860025 L8.913001076893076,50.336524198429665 L8.933366245567656,50.360018128465505 L8.951028535831078,50.383562119919645 L8.96598260378254,50.40714904932436 L8.978223924920716,50.4307717802206 L8.987748795512687,50.454423165317245 L8.994554333714547,50.47809604865354 L8.998638480443326,50.501783267764246 L8.999999999999993,50.52547765584666 " />
			<path d="M8.999999999999993,50.52547765584667 L8.99728936826583,50.558908899858885 L8.989159105846545,50.592320006139786 L8.975614110108205,50.625690849088265 L8.956662540049765,50.65900132735634 L8.932315811388383,50.69223137595748 L8.902588589683022,50.725360978352946 L8.867498781500464,50.75837017850905 L8.827067523629067,50.79123909291791 L8.78131917034675,50.82394792257455 L8.730281278750889,50.85647696490303 L8.673984592158952,50.888806625624596 L8.612463021589873,50.92091743056051 L8.545753625337323,50.95279003736258 L8.47389658664718,50.984405247164275 L8.396935189512643,51.01574401614536 L8.314915792601573,51.04678746700324 L8.135903638110983,51.10791380584579 L7.937291379135187,51.167637004987604 L7.719557490002441,51.225813186010825 L7.483226510722899,51.28230219739973 L7.228867783325797,51.336967952178036 L6.957094080264625,51.389678755754325 L6.668560128194624,51.44030762318586 L6.3639610306789205,51.48873258509643 L6.044030593623159,51.53483698151127 L5.7095395574728025,51.578509742901154 L5.361293740431892,51.6196456577586 L5.0001320971764125,51.658145626061646 L4.626924697738987,51.69391689801445 L4.242570631433969,51.726873297489675 L3.8479958408725308,51.75693542963435 L3.4441508912857994,51.78403087213902 L3.0320086805299713,51.80809434970939 L2.612562095290153,51.8290678913203 L2.1868216191293666,51.84690096987293 L1.755812898145146,51.86155062391905 L1.3205742700982466,51.87298156115892 L0.8821542629660358,51.88116624346349 L0.4416090689467541,51.8860849532162 L-8.563155573447644e-15,51.88772584081442 L-0.44160906894677115,51.8860849532162 L-0.882154262966053,51.88116624346349 L-1.320574270098264,51.87298156115892 L-1.7558128981451628,51.86155062391905 L-2.186821619129384,51.84690096987293 L-2.6125620952901705,51.8290678913203 L-3.03200868052999,51.80809434970939 L-3.444150891285818,51.78403087213902 L-3.8479958408725476,51.75693542963435 L-4.24257063143399,51.726873297489675 L-4.626924697739008,51.69391689801445 L-5.000132097176431,51.658145626061646 L-5.36129374043191,51.6196456577586 L-5.7095395574728185,51.578509742901154 L-6.044030593623173,51.53483698151127 L-6.363961030678937,51.48873258509643 L-6.668560128194642,51.44030762318586 L-6.957094080264642,51.389678755754325 L-7.228867783325812,51.336967952178036 L-7.483226510722915,51.28230219739973 L-7.719557490002456,51.225813186010825 L-7.937291379135203,51.167637004987604 L-8.135903638111,51.10791380584579 L-8.314915792601589,51.04678746700324 L-8.396935189512657,51.01574401614536 L-8.473896586647195,50.984405247164275 L-8.545753625337337,50.95279003736258 L-8.612463021589889,50.92091743056051 L-8.673984592158968,50.888806625624596 L-8.730281278750905,50.85647696490303 L-8.781319170346766,50.82394792257455 L-8.827067523629083,50.79123909291791 L-8.86749878150048,50.75837017850905 L-8.902588589683036,50.725360978352946 L-8.932315811388397,50.692231375957476 L-8.956662540049779,50.65900132735634 L-8.97561411010822,50.625690849088265 L-8.989159105846559,50.592320006139786 L-8.997289368265845,50.558908899858885 L-9.000000000000007,50.52547765584668 " />
			<path d="M-9.000000000000007,50.52547765584667 L-8.996320229477853,50.48652689434125 L-8.985283926958296,50.447607983916726 L-8.966900117121492,50.40875274960849 L-8.941183832901112,50.3699929643823 L-8.908156103191512,50.331360323152616 L-8.867843935651852,50.29288641686487 L-8.820280294621194,50.25460270666265 L-8.765504074162692,50.216540498161145 L-8.703560066258873,50.17873091584765 L-8.634498924184024,50.14120487763027 L-8.558377121083666,50.1039930695555 L-8.475256903794941,50.06712592071543 L-8.38520624194571,50.030633578365084 L-8.288298772373963,49.994545883270156 L-8.18461373891302,49.95889234530544 L-8.074235927591705,49.92370211932385 L-7.95725559730255,49.88900398131564 L-7.833768405994679,49.854826304877584 L-7.703875332451748,49.821197038011064 L-7.5676825937188825,49.78814368026829 L-7.2768486548196085,49.72387231357917 L-6.962217685627489,49.66222238750503 L-6.6248186044367054,49.603395512004795 L-6.265754786696818,49.54758406498883 L-5.886200456711933,49.49497056319733 L-5.487396847647306,49.44572706532705 " />
			<path d="M-24.120972633705314,-45.21307362031723 L-24.120972633705314,38.70875661813023 " />
			<path d="M-24.120972633705314,-45.21307362031723 L-12.461673017276231,-46.570582999845065 " />
			<path d="M-12.461673017276231,37.35124723860238 L-24.120972633705318,38.70875661813022 " />
			<path d="M-12.461673017276231,-46.570582999845065 L-12.461673017276231,37.3512472386024 " />
			<path d="M-24.120972633705318,-45.21307362031724 L-24.380425280055174,-45.179121287096635 L-24.500113219301806,-45.16051747142465 L-24.612579579698732,-45.14090851292457 L-24.717456569429437,-45.120358537566524 L-24.814401215729198,-45.09893474867015 L-24.903096486487797,-45.07670720713372 L-24.98325232702014,-45.0537486023183 L-25.054606608614222,-45.0301340143362 L-25.11692598575455,-45.005940668521106 L-25.170006659217577,-44.981247682882824 L-25.2136750425438,-44.95613580937253 L-25.247788329706854,-44.93068716980463 L-25.272234962123274,-44.90498498729882 L-25.280807056863402,-44.89206505889008 L-25.28693499347567,-44.87911331412067 L-25.290613760982186,-44.86614034397916 L-25.29184035115624,-44.8531567568107 " />
			<path d="M-24.120972633705318,38.70875661813022 L-24.380425280055174,38.74270895135082 L-24.500113219301806,38.76131276702281 L-24.612579579698732,38.78092172552289 L-24.717456569429437,38.80147170088093 L-24.814401215729198,38.8228954897773 L-24.903096486487797,38.84512303131373 L-24.98325232702014,38.868081636129155 L-25.054606608614222,38.89169622411126 L-25.11692598575455,38.91588956992635 L-25.170006659217577,38.94058255556463 L-25.2136750425438,38.96569442907492 L-25.247788329706854,38.99114306864283 L-25.272234962123274,39.01684525114864 L-25.280807056863402,39.02976517955737 L-25.28693499347567,39.04271692432678 L-25.290613760982186,39.055689894468294 L-25.29184035115624,39.06867348163676 " />
			<path d="M-22.63879099278237,-47.833026762746385 L-22.715891479738392,-47.82124194581985 L-22.792203499306662,-47.80393836424948 L-22.867585159308,-47.78114819177295 L-22.941896297444647,-47.75291380372318 L-23.014998741913683,-47.71928769823705 L-23.08675656831934,-47.680332398641994 L-23.15703635240656,-47.63612033720202 L-23.225707418145888,-47.586733720439526 L-23.29264208070837,-47.53226437628299 L-23.357715883878754,-47.472813583325014 L-23.420807831465446,-47.408491882508116 L-23.481800612277066,-47.339418871588315 L-23.54058081824719,-47.26572298275884 L-23.597039155301754,-47.18754124384732 L-23.651070646577043,-47.10501902353053 L-23.702574827610377,-47.01830976104044 L-23.75145593314059,-46.927574680864105 L-23.797623075170947,-46.83298249296789 L-23.840990411963457,-46.734709079103474 L-23.881477307650297,-46.6329371657788 L-23.919008482165623,-46.52785598450212 L-23.95351415121897,-46.419660919930905 L-23.984930156049973,-46.30855314657969 L-24.01319808272316,-46.19473925476249 L-24.038265370740987,-46.07843086646524 L-24.060085410773194,-45.95984424186251 L-24.078617631320718,-45.83919987721011 L-24.093827574153075,-45.71672209486125 L-24.105686958378925,-45.59263862616857 L-24.114173733030654,-45.467180188047635 L-24.11927211806527,-45.340580053989086 L-24.120972633705318,-45.21307362031726 " />
			<path d="M-10.979491376353284,-49.19053614227421 L-11.056591863309306,-49.178751325347676 L-11.13290388287758,-49.16144774377731 L-11.208285542878913,-49.138657571300776 L-11.282596681015562,-49.11042318325101 L-11.3556991254846,-49.07679707776488 L-11.427456951890255,-49.03784177816982 L-11.497736735977476,-48.99362971672985 L-11.566407801716801,-48.94424309996735 L-11.633342464279286,-48.889773755810815 L-11.698416267449668,-48.83032296285284 L-11.761508215036361,-48.76600126203594 L-11.822500995847982,-48.69692825111614 L-11.881281201818105,-48.623232362286664 L-11.93773953887267,-48.54505062337514 L-11.991771030147959,-48.46252840305836 L-12.043275211181294,-48.37581914056827 L-12.092156316711504,-48.28508406039193 L-12.138323458741862,-48.19049187249572 L-12.181690795534374,-48.0922184586313 L-12.222177691221212,-47.990446545306625 L-12.259708865736538,-47.885365364029944 L-12.294214534789885,-47.77717029945873 L-12.325630539620889,-47.66606252610752 L-12.353898466294076,-47.552248634290315 L-12.378965754311904,-47.435940245993066 L-12.40078579434411,-47.31735362139034 L-12.419318014891633,-47.19670925673794 L-12.434527957723992,-47.07423147438907 L-12.446387341949839,-46.9501480056964 L-12.454874116601568,-46.82468956757546 L-12.459972501636186,-46.69808943351691 L-12.461673017276231,-46.57058299984509 " />
			<path d="M-10.632540734727154,40.67659979958058 L-10.722292001869038,40.655367518968745 L-10.811827050347096,40.62704239444393 L-10.9009301823872,40.59169266371211 L-10.98938674073975,40.54940348737088 L-11.076983625807797,40.500276743750156 L-11.163509809022631,40.444430783478296 L-11.248756841230088,40.38200014436513 L-11.332519354862827,40.313135227288555 L-11.41459555868877,40.238001933865675 L-11.494787723943878,40.156781266781245 L-11.572902660678047,40.06966889373634 L-11.648752183166621,39.976874676067794 L-11.722153563266296,39.87862216317377 L-11.79292997062321,39.77514805396374 L-11.860910898672753,39.666701626630044 L-11.925932575404834,39.55354413811492 L-11.987838357904977,39.435948194719636 L-12.046479109720833,39.314197095371995 L-12.101713560144955,39.188584149134485 L-12.153408644548305,39.05941196859697 L-12.2014398249446,38.92699174085652 L-12.24569139001323,38.79164247784041 L-12.286056733857965,38.65369024777843 L-12.322438612829899,38.513467389675995 L-12.35474937979591,38.37131171268034 L-12.38291119528829,38.22756568226872 L-12.406856215026831,38.082575595219055 L-12.426526753361651,37.93669074535069 L-12.441875422242964,37.790262582044946 L-12.45286524538305,37.643643863572834 L-12.459469747335369,37.49718780726943 L-12.461673017276231,37.35124723860242 " />
			<path d="M-10.632540734727154,40.67659979958057 L-22.29184035115624,42.034109179108405 " />
			<path d="M-22.29184035115624,42.034109179108405 L-22.381591618298124,42.01287689849657 L-22.471126666776183,41.98455177397176 L-22.560229798816284,41.949202043239936 L-22.648686357168835,41.90691286689871 L-22.73628324223688,41.85778612327798 L-22.822809425451716,41.80194016300612 L-22.908056457659175,41.739509523892956 L-22.99181897129191,41.67064460681638 L-23.073895175117855,41.5955113133935 L-23.154087340372964,41.51429064630907 L-23.23220227710713,41.42717827326417 L-23.308051799595706,41.33438405559562 L-23.38145317969538,41.2361315427016 L-23.452229587052294,41.132657433491566 L-23.520210515101837,41.02421100615787 L-23.585232191833917,40.91105351764275 L-23.64713797433406,40.79345757424746 L-23.70577872614992,40.67170647489982 L-23.76101317657404,40.54609352866231 L-23.812708260977388,40.416921348124795 L-23.860739441373685,40.28450112038435 L-23.904991006442316,40.14915185736824 L-23.94535635028705,40.011199627306254 L-23.981738229258983,39.87097676920382 L-24.014048996224993,39.728821092208165 L-24.042210811717375,39.585075061796545 L-24.066155831455916,39.44008497474688 L-24.085826369790738,39.294200124878515 L-24.10117503867205,39.14777196157277 L-24.112164861812133,39.00115324310066 L-24.118769363764454,38.85469718679725 L-24.120972633705318,38.708756618130245 " />
			<path d="M-9.566624140498565,-46.63512006788665 L-9.931462581337112,-46.65217554217845 L-10.307658804480107,-46.662078364953935 L-10.689118261430279,-46.6646681060175 L-11.069661136928712,-46.65990281039583 L-11.443122464749425,-46.64785967802736 L-11.803452002932936,-46.62873381308849 L-11.976857205349194,-46.61660732599207 L-12.14481225043494,-46.6028350632179 L-12.306636211161326,-46.58747286057589 L-12.46167301727621,-46.570582999845065 " />
			<path d="M-12.461673017276233,37.3512472386024 L-12.306636211161326,37.33435737787156 L-12.144812250434942,37.31899517522955 L-11.976857205349196,37.305222912455385 L-11.803452002932936,37.29309642535897 L-11.443122464749427,37.273970560420096 L-11.069661136928712,37.26192742805163 L-10.689118261430279,37.257162132429954 L-10.307658804480107,37.25975187349352 L-9.931462581337113,37.26965469626901 L-9.566624140498591,37.286710170560795 " />
			<path d="M-9.566624140498568,-46.63512006788666 L-9.566624140498568,37.2867101705608 " />
			<path d="M-22.291840351156235,42.034109179108405 L-22.3828098594929,42.034165601730585 L-22.473694793817213,42.03146501739758 L-22.56441065874497,42.026009936832565 L-22.65487311607514,42.01780543160359 L-22.74499806319881,42.00685912940853 L-22.83470171128903,41.993181206983685 L-22.923900663198996,41.97678438064248 L-23.012511990996057,41.957683894453154 L-23.100453313059504,41.93589750606644 L-23.187642870670466,41.91144547020629 L-23.27399960402267,41.88435051983917 L-23.35944322758345,41.85463784503931 L-23.443894304734908,41.82233506956957 L-23.52727432162583,41.78747222519973 L-23.60950576016573,41.75008172378607 L-23.69051217009314,41.710198327138194 L-23.770218240051108,41.6678591147011 L-23.848549867603897,41.623103449082556 L-23.925434228129753,41.575972939457834 L-24.000799842525673,41.526511402885816 L-24.074576643661256,41.47476482357243 L-24.146696041519863,41.420781310119324 L-24.21709098696649,41.36461105079745 L-24.285696034083117,41.306306266887255 L-24.352447401013507,41.2459211641287 L-24.417283029260975,41.183511882326435 L-24.48014264138395,41.119136443156805 L-24.540967797035663,41.052854696225324 L-24.59970194729594,40.98472826342471 L-24.65629048724451,40.91482048164525 L-24.71068080672701,40.84319634389073 L-24.762822339266407,40.7699224388547 " />
			<path d="M-10.46022545721602,-49.20571328874468 L-10.414109889799672,-49.200150016026285 L-10.368417391248562,-49.18879654663011 L-10.323236461305106,-49.17167487057964 L-10.278654608877526,-49.148818150078064 L-10.234758182547784,-49.12027065527782 L-10.191632203326911,-49.0860876785358 L-10.14936019998163,-49.04633542732001 L-10.108024047251252,-49.001090895975366 L-10.067703807268192,-48.95044171659677 L-10.02847757448921,-48.894485989298495 L-9.9904213244378,-48.833332092208444 L-9.9536087665506,-48.76709847155547 L-9.918111201412914,-48.6959134122562 L-9.88399738265982,-48.619914789445765 L-9.851333383810344,-48.539249801433634 L-9.820182470292647,-48.45407468460188 L-9.790604976908057,-48.364554410797936 L-9.762658190971317,-48.270862367808064 L-9.736396241353361,-48.17318002353038 L-9.711869993641546,-48.0716965744978 L-9.689126951620384,-47.96660857943187 L-9.668211165263598,-47.85811957853699 L-9.64916314541572,-47.74643969927256 L-9.632019785328456,-47.63178524936656 L-9.616814289203806,-47.5143782978589 L-9.603576107882347,-47.39444624498584 L-9.592330881801221,-47.27222138173877 L-9.583100391332332,-47.147940439950176 L-9.57590251459692,-47.02184413377852 L-9.570751192838236,-46.89417669347974 L-9.567656403419374,-46.7651853923687 L-9.566624140498568,-46.63512006788668 " />
			<path d="M-10.632540734727154,40.67659979958058 L-10.580238686421357,40.652200835132035 L-10.528062638331043,40.62071665558924 L-10.476138287126151,40.58222310909841 L-10.424590723116765,40.53681292998468 L-10.373544128899619,40.484595515346975 L-10.323121480191334,40.42569666151089 L-10.273444249569152,40.360258260974234 L-10.224632113832852,40.28843796057562 L-10.176802665692863,40.21040878170944 L-10.130071130479118,40.12635870350212 L-10.084550088553145,40.036490209953975 L-10.040349204092118,39.941019802137525 L-9.997574960898243,39.84017747662742 L-9.956330405869954,39.73420617141854 L-9.916714900752911,39.623361180667146 L-9.878823882768852,39.507909539664816 L-9.842748634698959,39.3881293815271 L-9.80857606497565,39.264309267146466 L-9.776388498312556,39.136747490023794 L-9.746263477377061,39.00575135765328 L-9.718273575983245,38.87163645119171 L-9.692486224255186,38.734725865195834 L-9.668963546181907,38.59534942925925 L-9.647762209955225,38.453842913424076 L-9.62893329145113,38.31054721928147 L-9.612522151183517,38.16580755870982 L-9.598568325026738,38.01997262222917 L-9.587105428970213,37.87339373897511 L-9.578161078134576,37.7264240303162 L-9.57175682024442,37.57941755915363 L-9.567908083717949,37.432728476952676 L-9.566624140498568,37.28671017056083 " />
			<path d="M-10.632540734727147,40.67659979958057 L-9.805105060269085,40.72544505446542 L-8.983357436528312,40.77644280459817 L-8.167542254526381,40.82957788304449 L-7.357902140952987,40.88483448722008 L-6.5546778860077275,40.94219618359043 L-5.758108371788374,41.001645912558196 L-4.968430501246253,41.06316599353681 L-4.185879127730253,41.1267381302088 L-3.4106869851407247,41.19234341596707 L-2.6430846187133987,41.25996233953795 L-1.8833003164541644,41.329574790783795 L-1.1315600412455744,41.401160066683914 L-0.3880873636444271,41.47469687749167 L0.34689660460909977,41.55016335306617 L1.0731732763507225,41.62753704937652 L1.790526654000896,41.70679495517677 L2.498743393803437,41.787913498849555 L3.1976128692746,41.87086855541637 L3.8869272338443537,41.95563545371247 L4.566481482670838,42.04218898372413 L5.236073513609476,42.13050340408625 L5.895504187319034,42.22055244973789 L6.544577386486537,42.312309339733645 L7.183100074153188,42.40574678520838 L7.810882351124356,42.50083699749306 L8.427737512446534,42.59755169637921 L9.033482102933881,42.69586211852957 L9.627935971728668,42.79573902603237 L10.210922325878897,42.897152715096915 L10.782267782917131,43.000073024887485 L11.341802422425125,43.104469346493374 L11.889359836569007,43.21031063203207 L12.424777179589398,43.317565403883016 L12.947895216232517,43.42620176404919 L13.45855836910745,43.5361874036437 L13.956614764955305,43.64748961249857 L14.441916279817036,43.76007528889285 L14.914318583086157,43.87391094939726 L15.373681180433096,43.988962738832235 L15.819867455588827,44.10519644033661 L16.25274471097522,44.22257748554389 L16.6721842071696,44.34107096486294 L17.07806120119251,44.460641637860306 L17.470254983606807,44.58125394374084 L17.848648914416998,44.702872011923624 L18.21313045775851,44.82545967270998 L18.563591215366365,44.94898046804058 L18.899926958813126,45.073397662338124 L19.22203766050695,45.19867425343267 L19.52982752344017,45.32477298356629 L19.823205009679675,45.45165635047358 L20.102082867590674,45.57928661853503 L20.36637815778571,45.70762582999979 L20.61601227779113,45.83663581627438 L20.850910985423752,45.96627820927421 L20.962812556645396,46.03132451652828 L21.07100442087087,46.09651445283443 L21.175478533777614,46.16184317116576 L21.276227127466754,46.227305814176646 L21.373242711040618,46.29289751456379 L21.466518071159747,46.35861339542822 L21.556046272579167,46.42444857063783 L21.641820658664095,46.49039814519069 L21.723834851884817,46.55645721557901 L21.80208275429092,46.622620870153725 L21.87655854796469,46.688884189489684 L21.94725669545366,46.75524224675144 L22.014171940182337,46.821690108059535 L22.077299306843067,46.88822283285739 L22.13663410176592,46.95483547427859 L22.192171913267728,47.02152307951475 L22.243908611980046,47.088280690183744 L22.291840351156182,47.15510334269832 " />
			<path d="M-22.29184035115623,42.0341091791084 L-22.235987591149232,42.11148349194788 L-22.175033383372977,42.18876953529161 L-22.108983805106703,42.26595960353758 L-22.037845441650177,42.34304600065273 L-21.961625385667134,42.42002104094024 L-21.880331236478114,42.49687704980585 L-21.793971099302794,42.57360636452301 L-21.702553584451884,42.65020133499686 L-21.606087806468658,42.726654324527 L-21.504583383220208,42.80295771056886 L-21.39805043493852,42.8791038854937 L-21.286499583211473,42.95508525734709 L-21.169941949923803,43.03089425060587 L-21.04838915614831,43.10652330693342 L-20.921853320987097,43.18196488593327 L-20.790347060363352,43.25721146590088 L-20.653883485763487,43.332255544573584 L-20.51247620292986,43.40708963987857 L-20.366139310504323,43.48170629067886 L-20.21488739862246,43.556098057517225 L-20.05873554745898,43.63025752335789 L-19.89769932572419,43.70417729432604 L-19.731794789111717,43.77785000044501 L-19.561038478697753,43.85126829637109 L-19.38544741929185,43.92442486212587 L-19.20503911773951,43.99731240382605 L-18.829843215236593,44.142251374365706 L-18.43560039914839,44.28602740639292 L-18.022467893334962,44.42858316208995 L-17.590610454856254,44.56986179028469 L-17.140200308267048,44.70980694912293 L-16.671417076933878,44.84836282853744 L-16.18444771140134,44.985474172505 L-15.67948641483624,45.121086301082514 L-15.156734565579526,45.255145132213286 L-14.616400636836651,45.38759720329496 L-14.05870011353857,45.51838969250039 L-13.483855406406413,45.647470439842934 L-12.892095763254254,45.774787967977836 L-12.283657177565104,45.90029150273139 L-11.658782294376884,46.02393099334966 L-11.017720313515653,46.14565713245864 L-10.360726890214828,46.2654213757281 L-9.688064033160003,46.38317596123098 L-9.00000000000005,46.49887392849084 " />
			<path d="M8.99999999999999,48.41382750062263 L9.813485068442041,48.464274671477206 L10.632540734727044,48.5126127222262 " />
			<path d="M10.632540734727145,48.51261272222622 L22.29184035115622,47.15510334269839 " />
			<path d="M-9.566624140498561,-46.63512006788666 L-8.6909883296643,-46.583429458348334 L-7.8213719123075585,-46.5294609654894 L-6.958033515820077,-46.47323063975494 L-6.1012299004851265,-46.41475520426815 L-5.251215883115872,-46.35405204985681 L-4.408244261272092,-46.29113922988122 L-3.5725657380770315,-46.226035454865006 L-2.7444288476571863,-46.15876008693058 L-1.9240798812274917,-46.08933313404075 L-1.1117628138432316,-46.01777524404827 L-0.3077192318407427,-45.944107698555094 L0.48781173901106456,-45.86835240658313 L1.2745935046278163,-45.79053189805841 L2.0523920729737775,-45.71066931711064 L2.820976123651807,-45.62878841518998 L3.580117076699082,-45.54491354400331 L4.32958916056775,-45.45906964827192 L5.0691694792702435,-45.37128225831286 L5.798638078669335,-45.28157748244611 L6.517778011893441,-45.189981999229886 L7.226375403857638,-45.09652304952629 L7.9242195148707,-45.0012284283998 L8.611102803310068,-44.9041264768509 L9.286820987345642,-44.80524607338734 L9.951173105693812,-44.704616625435584 L10.603961577384233,-44.6022680605949 L11.244992260521329,-44.49823081773676 L11.874074510022638,-44.39253583795223 L12.491021234317522,-44.28521455534995 L13.095648950989045,-44.1762988877075 L13.687777841342196,-44.06582122697894 L14.26723180388278,-43.9538144296613 L14.83383850669074,-43.84031180702292 L15.38742943867232,-43.72534711519658 L15.927839959675893,-43.60895454514025 L16.4549093494566,-43.4911687124686 L16.968480855475356,-43.37202464715814 L17.468401739517432,-43.2515577831292 L17.95452332311757,-43.12980394770773 L18.426701031777547,-43.00679935097008 L18.884794437963144,-42.88258057497403 L19.328667302867856,-42.75718456287912 L19.75818761693096,-42.63064860795957 L20.173227639097547,-42.50301034251318 L20.573663934809282,-42.37430772666927 L20.959377412714396,-42.244579037099236 L21.330253360085813,-42.113862855632874 L21.68618147693723,-41.982198057784025 L22.027055908826824,-41.84962380118882 L22.352775278338683,-41.71617951396004 L22.663242715232904,-41.58190488296107 L22.958365885255233,-41.446839842002824 L23.238057017597562,-41.3110245599673 L23.502232931001345,-41.17449942886119 L23.628477947529035,-41.105983350464456 L23.750815058496073,-41.037305051803116 L23.869235167847144,-40.9684696392721 L23.983729470765354,-40.899482230948124 L24.094289454326848,-40.830347956209145 L24.200906898133795,-40.761071955352975 L24.30357387492556,-40.69165937921512 L24.402282751168137,-40.62211538878576 L24.497026187621714,-40.552445154826074 L24.587797139886334,-40.48265385748373 L24.674588858925738,-40.41274668590775 L24.757394891569092,-40.342728837862666 L24.836209080990848,-40.27260551934208 L24.9110255671685,-40.202381944181575 L24.981838787318274,-40.132063333671056 L25.048643476308747,-40.061654916166546 L25.11143466705235,-39.991161926701395 L25.170207690874648,-39.92058960659711 L25.224958177861467,-39.849943203073614 L25.2756820571838,-39.77922796885915 " />
			<path d="M-9.566624140498561,37.2867101705608 L-8.6909883296643,37.33840078009913 L-7.8213719123075585,37.392369272958064 L-6.958033515820077,37.448599598692525 L-6.1012299004851265,37.507075034179316 L-5.251215883115872,37.56777818859065 L-4.408244261272092,37.630691008566245 L-3.5725657380770315,37.69579478358246 L-2.7444288476571863,37.763070151516885 L-1.9240798812274917,37.83249710440671 L-1.1117628138432316,37.90405499439919 L-0.3077192318407427,37.97772253989237 L0.48781173901106456,38.05347783186434 L1.2745935046278163,38.13129834038905 L2.0523920729737775,38.21116092133682 L2.820976123651807,38.29304182325748 L3.580117076699082,38.376916694444155 L4.32958916056775,38.46276059017554 L5.0691694792702435,38.5505479801346 L5.798638078669335,38.640252756001345 L6.517778011893441,38.73184823921757 L7.226375403857638,38.82530718892117 L7.9242195148707,38.920601810047664 L8.611102803310068,39.017703761596565 L9.286820987345642,39.116584165060125 L9.951173105693812,39.21721361301188 L10.603961577384233,39.31956217785256 L11.244992260521329,39.4235994207107 L11.874074510022638,39.52929440049523 L12.491021234317522,39.6366156830975 L13.095648950989045,39.74553135073996 L13.687777841342196,39.85600901146852 L14.26723180388278,39.96801580878616 L14.83383850669074,40.08151843142454 L15.38742943867232,40.196483123250886 L15.927839959675893,40.31287569330721 L16.4549093494566,40.43066152597886 L16.968480855475356,40.54980559128932 L17.468401739517432,40.67027245531826 L17.95452332311757,40.792026290739734 L18.426701031777547,40.915030887477386 L18.884794437963144,41.03924966347343 L19.328667302867856,41.164645675568345 L19.75818761693096,41.29118163048789 L20.173227639097547,41.418819895934284 L20.573663934809282,41.54752251177819 L20.959377412714396,41.67725120134823 L21.330253360085813,41.80796738281459 L21.68618147693723,41.93963218066344 L22.027055908826824,42.07220643725864 L22.352775278338683,42.20565072448743 L22.663242715232904,42.339925355486386 L22.958365885255233,42.47499039644464 L23.238057017597562,42.61080567848016 L23.502232931001345,42.74733080958627 L23.628477947529035,42.81584688798301 L23.750815058496073,42.884525186644346 L23.869235167847144,42.95336059917536 L23.983729470765354,43.02234800749934 L24.094289454326848,43.09148228223832 L24.200906898133795,43.16075828309449 L24.30357387492556,43.230170859232345 L24.402282751168137,43.299714849661704 L24.497026187621714,43.36938508362139 L24.587797139886334,43.43917638096373 L24.674588858925738,43.509083552539714 L24.757394891569092,43.5791014005848 L24.836209080990848,43.64922471910538 L24.9110255671685,43.71944829426589 L24.981838787318274,43.7897669047764 L25.048643476308747,43.86017532228092 L25.11143466705235,43.93066831174607 L25.170207690874648,44.00124063185035 L25.224958177861467,44.07188703537385 L25.2756820571838,44.14260226958831 " />
			<path d="M25.275682057183843,-39.77922796885908 L25.275682057183843,44.14260226958838 " />
			<path d="M10.632540734727147,48.512612722226216 L10.589283920819934,48.52739495848839 L10.54609837515642,48.53726710362759 L10.503055248561514,48.54221289268159 L10.460225457216021,48.54222417716074 " />
			<path d="M24.762822339266418,-41.43341155043863 L24.823303933860686,-41.341906815257886 L24.880284568070298,-41.24817583799754 L24.933685438888002,-41.15234824660898 L24.98343269404331,-41.05455656861639 L25.029457534138615,-40.954936047834046 L25.07169630779731,-40.853624457326944 L25.110090599692278,-40.750761908873635 L25.144587311333037,-40.646490659194555 L25.175138734499864,-40.54095491321404 L25.20170261722321,-40.434300624627944 L25.22424222221729,-40.32667529405282 L25.24272637768698,-40.21822776503565 L25.257129520437744,-40.10910801820641 L25.26743173122897,-39.999466963858055 L25.273618762321885,-39.88945623324074 L25.27568205718385,-39.77922796885909 " />
			<path d="M22.29184035115623,47.155103342698375 L22.438250524232167,47.149221957006105 L22.58430798237714,47.13621074575042 L22.72966086038136,47.11610105407887 L22.873958990430314,47.08894132800011 L23.016854745689685,47.054796997673165 L23.158003877768866,47.013750319780485 L23.29706634604547,46.96590017936437 L23.433707136852988,46.911361851604276 L23.567597070558044,46.85026672410876 L23.69841359458297,46.78276198039126 L23.825841560463214,46.709010245292106 L23.949573983067605,46.62918919320105 L24.0693127801524,46.543491120024065 L24.18476949046755,46.45212247992571 L24.295665968685086,46.355303387962934 L24.401735055475598,46.25326708980861 L24.502721221118456,46.14625939984233 L24.598381181095284,46.03453810896198 L24.68848448218367,45.91837236354293 L24.772814057639184,45.79804201704079 L24.851166750128144,45.673836955800006 L24.923353801151464,45.54605640069217 L24.98920130578039,45.415008186266796 L25.04855063160871,45.2810080191509 L25.101258800912117,45.1443787174841 L25.14719883509407,45.005449433221415 L25.18626006058835,44.8645548591774 L25.218348375481384,44.72203442272184 L25.24338647621199,44.578231468069475 L25.26131404380243,44.433492429133715 L25.27208788917211,44.28816599493699 L25.27568205718385,44.142602269588394 " />
			<path d="M10.632540734727145,48.512612722226216 L10.719774016922807,48.526403273543565 L10.806808779438928,48.53341390067036 L10.893446954373808,48.533628649289454 L10.979491376353263,48.52704703069028 " />
			<path d="M22.29184035115623,47.155103342698375 L22.37907363335189,47.168893894015724 L22.466108395868012,47.17590452114252 L22.552746570802892,47.176119269761614 L22.638790992782347,47.169537651162436 " />
			<path d="M25.29184035115623,-39.732162593220714 L25.287798054302495,-39.75572703252618 L25.275682057183854,-39.779227968859075 " />
			<path d="M25.27568205718385,44.14260226958837 L25.287798054302495,44.16610320592127 L25.29184035115623,44.18966764522673 " />
			<path d="M-25.29184035115624,-44.85315675681069 L-25.29184035115624,39.06867348163677 " />
			<path d="M-22.63879099278237,-47.833026762746385 L-10.979491376353286,-49.19053614227422 " />
			<path d="M-25.29184035115624,-44.85315675681069 L-25.28806582406121,-45.00359915613808 L-25.27675174081265,-45.1536629895238 L-25.25792657161975,-45.30297064363112 L-25.231637687223287,-45.45114640793609 L-25.197951239694245,-45.59781742014725 L-25.156951995971905,-45.74261460445816 L-25.10874312456047,-45.885173600271855 L-25.053445935920855,-46.0251356790601 L-24.991199577210917,-46.16214864705046 L-24.922160682142344,-46.29586773146956 L-24.84650297683516,-46.425956448112565 L-24.76441684266179,-46.55208744805566 L-24.676108837180607,-46.67394334138096 L-24.581801174364543,-46.79121749584112 L-24.48173116543264,-46.903614808453746 L-24.376150621691647,-47.01085244808428 L-24.26532522089026,-47.11266056714846 L-24.149533838680586,-47.208782980643676 L-24.029067846868962,-47.29897781080047 L-23.904230380222142,-47.38301809573203 L-23.775335573673676,-47.46069236054996 L-23.642707771850056,-47.53180514950952 L-23.506680712905634,-47.596177517844886 L-23.367596688720173,-47.653647482057075 L-23.22580568357219,-47.704070427521394 L-23.081664493455527,-47.74731947238858 L-22.93553582825525,-47.78328578686419 L-22.787787399042138,-47.81187886706256 L-22.638790992782393,-47.833026762746385 " />
			<path d="M-24.762822339266425,40.76992243885468 L-24.845149840741037,40.643668926200405 L-24.921032287776487,40.513439815827546 L-24.99027813817857,40.379563831578366 L-25.052712601825938,40.24237890272079 L-25.10817808187468,40.102231310948554 L-25.156534572563697,39.95947481629827 L-25.197660012616733,39.814469764189596 L-25.231450593348995,39.66758217584269 L-25.257821020700664,39.519182824368755 L-25.276704730535833,39.36964629886594 L-25.288054056663473,39.21935005888288 L-25.29184035115624,39.06867348163676 " />
			<path d="M-10.979491376353284,-49.19053614227421 L-10.850043750949402,-49.20277115420374 L-10.720187548951294,-49.2093855356749 L-10.590166703549741,-49.210366861657924 L-10.460225457216021,-49.205713288744676 " />
			<path d="M-24.762822339266425,40.76992243885468 L-24.691792144032654,40.87025413861283 L-24.619265896625524,40.967871416657424 L-24.545314780015428,41.06288177762032 L-24.470005802659053,41.15539015572145 L-24.393401798499422,41.245498914768845 L-24.315561426965864,41.3333078481586 L-24.23653917297402,41.41891417887491 L-24.156385346925852,41.502412559490026 L-24.075146084709637,41.58389507216431 L-23.992863347699963,41.66345122864618 L-23.825314422230175,41.817129667966846 L-23.653990771239528,41.96411256320109 L-23.479077803232087,42.1050234735073 L-23.300694134492975,42.240444831453175 L-23.118891589088353,42.37091794301571 L-22.933655198865424,42.496942987581235 L-22.744903203452438,42.618979017945364 L-22.552487050258694,42.73744396031303 L-22.356191394474525,42.85271461429848 L-22.155734099071314,42.96512665292524 L-21.95076623480149,43.0749746226262 L-21.752757488258478,43.17691072431736 L-21.550879281740126,43.27691161805971 L-21.34503966536066,43.37511495413908 L-21.135152073769657,43.471648963309036 L-20.921135325448184,43.56663246370881 L-20.702913622004882,43.66017486778122 L-20.48041654747212,43.75237618919069 L-20.253579067602082,43.843327049741156 L-20.0223415291629,43.933108686294 L-19.786649659234776,44.021792957686046 L-19.54645456450607,44.10944235164749 L-19.30171273056946,44.19610999171984 L-19.05238602121802,44.28183964417387 L-18.798441677741362,44.366665724927614 L-18.539852318221747,44.450613306464234 L-18.276595936830194,44.53369812475005 L-17.846704425290206,44.664617222152756 L-17.404793739952673,44.79357908057592 L-16.950825311634215,44.92064936906871 L-16.484778214528546,45.04588369891468 L-16.006649460728493,45.169327293476066 L-15.516454294748076,45.291014658038186 L-15.014226488044551,45.41096924965386 L-14.500018633540442,45.52920314698771 L-13.870640519974977,45.66810263837864 L-13.224266434252879,45.804622808249015 L-12.56107623865638,45.93874979366944 L-11.881261669013702,46.07046710474065 L-11.185026157187368,46.199755803658284 L-10.47258465356247,46.32659468377768 L-9.744163449534975,46.45096044867862 L-9.00000000000005,46.57282789123018 " />
			<path d="M8.999999999999991,48.454361977379826 L10.460225457215902,48.542224177160726 " />
			<path d="M-10.460225457216012,-49.20571328874468 L-9.522183253322002,-49.15015774130833 L-8.591193536354153,-49.091858231132484 L-7.66760830803815,-49.030832695577224 L-6.751774110982298,-48.96710058169921 L-5.844031904193429,-48.90068272063281 L-4.944716938592788,-48.83160120197118 L-4.054158632531925,-48.75987924814739 L-3.1726804473085997,-48.6855410888155 L-2.300599762682666,-48.60861183523162 L-1.4382277523919713,-48.5291173546351 L-0.5858692596682495,-48.44708414462953 L0.256177327246984,-48.3625392075639 L1.087620199586543,-48.27550992491365 L1.9081742525416638,-48.186023931661815 L2.717561209746124,-48.09410899068009 L3.515509747760344,-47.999792867109925 L4.301755620555488,-47.90310320274363 L5.0760417839975736,-47.804067390405486 L5.83811852033158,-47.70271244833281 L6.587743562665548,-47.59906489455708 L7.324682219454688,-47.49315062128501 L8.048707498985493,-47.38499476927967 L8.759600233859823,-47.27462160224156 L9.457149205479041,-47.16205438118972 L10.141151268528096,-47.047315238842806 L10.811411475459629,-46.930425054000224 L11.467743200978099,-46.81140332592321 L12.10996826652385,-46.690268048715886 L12.737917064757275,-46.567035585706435 L13.35142868404286,-46.441720543828126 L13.95035103293334,-46.314335648000444 L14.53454096465376,-46.184891615510196 L15.04584601784705,-46.067039769627925 L15.545267504971434,-45.94748037782331 L16.032754179667176,-45.826201154102336 L16.508273427011105,-45.7031784848544 L16.971810967080305,-45.57837774782668 L17.423370558515817,-45.451753631098505 L17.862973702086293,-45.32325045205573 L18.290659344251722,-45.192802476365046 L18.550597538441487,-45.110657373190165 L18.80597883158571,-45.02766944037537 L19.0568246336624,-44.94382295686845 L19.30316148225464,-44.8590933492779 L19.54502104321747,-44.773447185368866 L19.782440111344798,-44.68684216755911 L20.015460611036303,-44.599227126414924 L20.24412959696434,-44.51054201414714 L20.46849925474083,-44.42071789810706 L20.688626901584183,-44.32967695428236 L20.904574986986173,-44.23733246079314 L21.11641109337887,-44.143588791387806 L21.32420793680151,-44.048341408939045 L21.52804336756743,-43.951476858939756 L21.728000370930946,-43.85287276299907 L21.92416706775427,-43.75239781233822 L22.13131218160785,-43.64198150004518 L22.333853148227565,-43.52898808229048 L22.532148441810925,-43.41312205301451 L22.72648845170233,-43.294045274720084 L22.917095482393037,-43.17137697847239 L23.104123753521183,-43.04469376389903 L23.287659399871778,-42.91352959919 L23.46772047137671,-42.777375821097685 L23.644256933114733,-42.63568113493687 L23.817150665311477,-42.48785161458474 L23.986215463339445,-42.333250702480875 L24.069235206142018,-42.253200393250694 L24.151197037718017,-42.171199209627254 L24.232058533624055,-42.08715559182369 L24.311773014113438,-42.00097531558825 L24.390289544136145,-41.912561492204375 L24.467552933338837,-41.82181456849064 L24.54350373606485,-41.72863232680074 L24.61807825135421,-41.63290988502357 L24.691208522943604,-41.53453969658314 L24.76282233926641,-41.43341155043864 " />
			<path d="M10.979491376353279,48.52704703069027 L22.638790992782354,47.169537651162436 " />
			<path d="M-9.000000000000005,50.52547765584667 L-9.000000000000005,44.59460626090339 " />
			<path d="M8.999999999999993,50.52547765584667 L8.999999999999993,44.59460626090339 " />
			<path d="M25.29184035115623,-39.732162593220714 L25.29184035115623,44.18966764522675 " />
			<path d="M10.97949137635328,48.52704703069027 L10.850043750949396,48.539282042619796 L10.720187548951287,48.545896424090955 L10.590166703549734,48.54687775007398 L10.460225457216012,48.54222417716074 " />
			<path d="M24.762822339266418,-41.43341155043863 L24.84514984074103,-41.307158037784355 L24.92103228777648,-41.176928927411495 L24.990278138178564,-41.043052943162316 L25.05271260182593,-40.90586801430474 L25.108178081874673,-40.7657204225325 L25.15653457256369,-40.62296392788222 L25.197660012616726,-40.477958875773545 L25.23145059334899,-40.33107128742664 L25.257821020700657,-40.182671935952705 L25.276704730535826,-40.03313541044989 L25.288054056663466,-39.88283917046683 L25.29184035115623,-39.73216259322071 " />
			<path d="M25.29184035115623,44.189667645226734 L25.288065824061203,44.34011004455412 L25.276751740812646,44.490173877939846 L25.25792657161974,44.639481532047164 L25.23163768722328,44.78765729635214 L25.197951239694238,44.934328308563295 L25.156951995971898,45.079125492874205 L25.108743124560466,45.2216844886879 L25.05344593592085,45.36164656747614 L24.991199577210914,45.4986595354665 L24.922160682142337,45.63237861988561 L24.846502976835154,45.76246733652861 L24.764416842661785,45.8885983364717 L24.6761088371806,46.010454229797006 L24.581801174364536,46.12772838425716 L24.481731165432635,46.24012569686979 L24.37615062169164,46.34736333650032 L24.265325220890254,46.4491714555645 L24.14953383868058,46.54529386905972 L24.029067846868955,46.635488699216516 L23.904230380222135,46.71952898414807 L23.775335573673672,46.79720324896601 L23.64270777185005,46.86831603792557 L23.506680712905627,46.93268840626093 L23.367596688720166,46.99015837047312 L23.225805683572183,47.04058131593744 L23.08166449345552,47.083830360804626 L22.935535828255244,47.119796675280234 L22.78778739904213,47.148389755478604 L22.638790992782386,47.16953765116243 " />

        </g>
        </g>
    </svg>
    