<?xml version='1.0' encoding='utf-8'?>
<svg width="100.09mm" height="53.508396mm" viewBox="-49.542022 -26.493638 99.084045 52.97061" version="1.1" xmlns="http://www.w3.org/2000/svg">
  <g transform="scale(1,-1)" stroke-linecap="round">
    <g fill="none" stroke="rgb(0,0,0)" stroke-width="0.089095454429505" id="Visible">
      <line x1="-7.071068" y1="-17.470445" x2="-49.497475" y2="1.352213" />
      <line x1="-49.497475" y1="1.352213" x2="7.071068" y2="26.44909" />
      <line x1="-7.071068" y1="-17.470445" x2="49.497475" y2="7.626432" />
      <line x1="49.497475" y1="7.626432" x2="7.071068" y2="26.44909" />
      <line x1="-7.071068" y1="-26.432425" x2="-7.071068" y2="-17.470445" />
      <line x1="-49.497475" y1="-7.609767" x2="-49.497475" y2="1.352213" />
      <line x1="-7.071068" y1="-26.432425" x2="-49.497475" y2="-7.609767" />
      <line x1="-7.071068" y1="-26.432425" x2="49.497475" y2="-1.335548" />
      <line x1="49.497475" y1="-1.335548" x2="49.497475" y2="7.626432" />
      <path d="M -11.95408,-0.452749 A 15.0,6.6548144970763285 180.0 0,0 11.95409,-0.452755" />
      <path d="M -12.020815,-0.843764 A 17.0,7.542123096686506 180.0 0,0 12.020815,9.822409 A 17.0,7.542123096686506 180.0 0,0 -12.020815,-0.843764" />
      <path d="M -15.0,2.696927 A 15.0,6.6548144970763285 180.0 0,0 15.0,2.696927" />
      <path d="M -11.209745,-0.808001 C -12.334626,-0.310588 -13.23919,0.25564 -13.857863,0.802315 C -14.317188,1.205452 -14.616613,1.592019 -14.784229,1.912278 C -14.94725,2.225742 -14.998371,2.467276 -15.0,2.696927" />
      <path d="M 15.0,2.696927 C 14.999541,2.542833 14.975229,2.386918 14.912479,2.204683 C 14.859839,2.04668 14.769779,1.869769 14.642299,1.67395 C 14.467242,1.409265 14.209944,1.112287 13.862504,0.806402 C 13.197775,0.217315 12.200393,-0.393457 10.954196,-0.918728 C 9.501118,-1.535296 7.714165,-2.039548 5.762548,-2.371628 C 3.811177,-2.705367 1.69514,-2.866934 -0.409468,-2.842888 C -2.440143,-2.820233 -4.460102,-2.624992 -6.311544,-2.272784 C -8.163219,-1.922097 -9.846378,-1.414441 -11.209745,-0.808001" />
    </g>
    <g fill="none" stroke="rgb(99,99,99)" stroke-width="0.089095454429505" id="Hidden" stroke-dasharray="0.002263 0.268418">
      <line x1="-49.497475" y1="-7.609767" x2="7.071068" y2="17.48711" />
      <line x1="7.071068" y1="17.48711" x2="7.071068" y2="26.44909" />
      <line x1="49.497475" y1="-1.335548" x2="7.071068" y2="17.48711" />
      <path d="M -10.606602,-9.178322 A 15.0,6.6548144970763285 180.0 0,0 -15.0,-4.472658" />
      <path d="M -15.0,-4.472658 A 15.0,6.6548144970763285 180.0 0,0 -11.95408,-0.452749" />
      <path d="M 11.95409,-0.452755 A 15.0,6.6548144970763285 180.0 0,0 15.0,-4.472658" />
      <path d="M 15.0,-4.472658 A 15.0,6.6548144970763285 180.0 0,0 -10.606602,-9.178322" />
      <line x1="-15.0" y1="2.696927" x2="-15.0" y2="-4.472658" />
      <line x1="15.0" y1="2.696927" x2="15.0" y2="-4.472658" />
    </g>
  </g>
</svg>