<?xml version="1.0" encoding="UTF-8" standalone="no"?>
    <svg
    xmlns:svg="http://www.w3.org/2000/svg"
    xmlns="http://www.w3.org/2000/svg"
    width="415"
    height="231"
    >
        <g transform="scale(4, -4)   translate(52.101933318060055,-28.879096309377758)" stroke-width="0.25"  fill="none">
        <!-- hidden lines -->
        <g  stroke="rgb(160,160,160)" fill="none" stroke-dasharray="0.25,0.25" >
    			<path d="M-49.601933318060055,-7.682500378799604 L6.9226031891320545,17.415510245828052 " />
			<path d="M6.922603189132047,17.41551024582805 L6.922603189132047,26.379096309377754 " />
			<path d="M49.381988896110876,-1.3787453523346098 L6.922603189132047,17.415510245828052 " />
			<path d="M-3.0466022707097293,-10.540427296793288 L-3.4913588067257164,-10.40056967978583 L-4.043897163276753,-10.324355170031467 L-4.678361137243633,-10.315350249063062 L-5.365060790926638,-10.373976304939694 L-6.07186180185385,-10.49748991326222 L-6.765689198330148,-10.680111216565702 L-7.414075112957253,-10.913294394535368 L-7.986678126520621,-11.186127568308722 L-8.456703104076546,-11.485843425218505 L-8.802155081571033,-11.798416669133818 L-9.006868526978801,-12.109220338526148 L-9.06126381136922,-12.403710279653541 L-8.962795490602076,-12.668105744728857 L-8.716071420172616,-12.890034266270453 " />
			<path d="M-8.71607142017261,-12.890034266270458 L-8.316804141300523,-13.064008347391798 L-7.791064019284614,-13.172624164489704 L-7.165213859142312,-13.210435266954736 L-6.470636401225817,-13.175545648223881 L-5.742160659577929,-13.069704819466669 L-5.016315449734636,-12.89822008178979 L-4.329497681383109,-12.669690395998266 L-3.7161472653297167,-12.395575194794542 L-3.2070201525636506,-12.089619758972361 L-2.8276461024486723,-11.767165971642482 L-2.597048513985605,-11.444383012151373 L-2.526790513151661,-11.137456565912165 L-2.620395129480511,-10.861777206552517 L-2.8731686366505764,-10.631168648287472 " />
			<path d="M-2.873168636650586,-10.631168648287463 L-2.884466986199752,-10.624244335760435 L-2.895935787704574,-10.617386581345944 L-2.9075743694204377,-10.610595786712784 L-2.919382049658444,-10.603872349607808 L-2.9313581368253487,-10.597216663832645 L-2.9435019294640625,-10.590629119220626 L-2.9558127162947416,-10.584110101613959 L-2.9682897762564453,-10.577659992841113 L-2.9809323785493698,-10.571279170694476 L-2.993739782677653,-10.56496800890821 L-3.0067112384927457,-10.558726877136369 L-3.0198459862373523,-10.552556140931244 L-3.0331432565899235,-10.54645616172196 L-3.046602270709714,-10.540427296793295 " />
			<path d="M18.937539790910265,-0.7790340129110311 L18.492783254894075,-0.6391763959035286 L17.94024489834275,-0.5629618861491741 L17.30578092437554,-0.5539569651808378 L16.6190812706922,-0.6125830210575902 L15.912280259764692,-0.7360966293802802 L15.218452863288181,-0.9187179326839638 L14.570066948660976,-1.1519011106538466 L13.997463935097647,-1.4247342844274145 L13.527438957541934,-1.724450141337388 L13.181986980047824,-2.0370233852528523 L12.977273534640606,-2.3478270546452693 L12.92287825025089,-2.642316995772674 L13.021346571018848,-2.9067124608479094 L13.268070641449206,-3.128640982389329 " />
			<path d="M13.268070641449217,-3.128640982389338 L13.66733792032186,-3.3026150635102716 L14.19307804233809,-3.4112308806077922 L14.818928202480485,-3.4490419830724846 L15.513505660396872,-3.4141523643413585 L16.241981402044487,-3.3083115355839503 L16.967826611887386,-3.13682679790696 L17.65464438023845,-2.908297112115404 L18.267994796291376,-2.6341819109117197 L18.77712190905701,-2.328226475089636 L19.156495959171643,-2.0057726877598925 L19.38709354763448,-1.682989728268935 L19.457351548468335,-1.3760632820298762 L19.363746932139545,-1.1003839226703471 L19.110973424969686,-0.8697753644053843 " />
			<path d="M19.110973424969664,-0.8697753644053661 L19.099675075420485,-0.8628510518783252 L19.08820627391565,-0.8559932974638214 L19.07656769219977,-0.8492025028306474 L19.06476001196175,-0.84247906572566 L19.052783924794827,-0.8358233799504857 L19.040640132156092,-0.8292358353384568 L19.028329345325396,-0.822716817731775 L19.015852285363675,-0.8162667089589193 L19.003209683070732,-0.8098858868122703 L18.99040227894243,-0.8035747250259941 L18.977430823127314,-0.7973335932541432 L18.964296075382688,-0.7911628570490086 L18.950998805030096,-0.7850628778397137 L18.9375397909103,-0.779034012911046 " />
			<path d="M-13.661448697454436,-5.841863397252623 L-14.106205233470423,-5.702005780245165 L-14.65874359002146,-5.625791270490801 L-15.293207563988341,-5.616786349522398 L-15.979907217671347,-5.67541240539903 L-16.686708228598558,-5.798926013721554 L-17.380535625074856,-5.981547317025038 L-18.02892153970196,-6.214730494994704 L-18.601524553265328,-6.487563668768058 L-19.07154953082125,-6.787279525677841 L-19.417001508315742,-7.099852769593154 L-19.621714953723508,-7.410656438985482 L-19.676110238113928,-7.705146380112877 L-19.57764191734678,-7.969541845188192 L-19.33091784691732,-8.191470366729787 " />
			<path d="M-19.330917846917316,-8.191470366729792 L-18.931650568045267,-8.365444447851122 L-18.405910446029413,-8.474060264949028 L-17.780060285887178,-8.51187136741407 L-17.085482827970754,-8.47698174868324 L-16.357007086322927,-8.371140919926058 L-15.63116187647968,-8.19965618224922 L-14.944344108128181,-7.9711264964577415 L-14.330993692074783,-7.697011295254061 L-13.821866579308677,-7.391055859431923 L-13.442492529193622,-7.068602072102075 L-13.211894940730446,-6.745819112610983 L-13.141636939896358,-6.43889266637178 L-13.235241556225038,-6.163213307012114 L-13.488015063394922,-5.932604748747031 " />
			<path d="M-13.488015063394933,-5.932604748747022 L-13.499313412944119,-5.925680436219975 L-13.510782214448966,-5.918822681805466 L-13.522420796164848,-5.912031887172287 L-13.53422847640288,-5.905308450067293 L-13.546204563569809,-5.898652764292115 L-13.558348356208548,-5.892065219680081 L-13.570659143039254,-5.885546202073396 L-13.583136203000983,-5.879096093300534 L-13.595778805293936,-5.872715271153881 L-13.60858620942225,-5.8664041093676005 L-13.621557665237368,-5.860162977595744 L-13.634692412982004,-5.853992241390606 L-13.647989683334606,-5.847892262181306 L-13.66144869745442,-5.841863397252631 " />
			<path d="M8.32269336416556,3.9195298866296344 L7.87793682814969,4.0593875036370655 L7.325398471598815,4.135602013391434 L6.690934497632121,4.144606934359876 L6.004234843949304,4.085980878483312 L5.297433833022261,3.9624672701608823 L4.603606436546089,3.7798459668575113 L3.955220521919042,3.546662788887968 L3.3826175083556453,3.273829615114737 L2.912592530799608,2.974113758205064 L2.5671405533049008,2.6615405142898343 L2.362427107896824,2.350736844897555 L2.308031823506009,2.056246903770166 L2.4065001442726857,1.791851438694807 L2.6532242147016336,1.5699229171531146 " />
			<path d="M2.653224214701644,1.5699229171531055 L3.0524914935733776,1.3959488360315468 L3.5782316155890452,1.287333018933424 L4.204081775731222,1.2495219164681899 L4.898659233647701,1.2844115351988643 L5.627134975295677,1.3902523639559323 L6.352980185139138,1.561737101632703 L7.039797953490899,1.7902667874241596 L7.653148369544564,2.0643819886278587 L8.162275482310914,2.3703374244500486 L8.541649532426174,2.6927912117799693 L8.772247120889489,3.015574171271144 L8.842505121723638,3.32250061751043 L8.748900505394943,3.598179976870167 L8.496126998224977,3.828788535135281 " />
			<path d="M8.496126998224957,3.828788535135299 L8.484828648675776,3.8357128476623394 L8.47335984717094,3.8425706020768438 L8.461721265455063,3.8493613967100178 L8.44991358521704,3.8560848338150056 L8.437937498050118,3.8627405195901794 L8.425793705411387,3.8693280642022074 L8.41348291858069,3.8758470818088906 L8.401005858618966,3.8822971905817454 L8.388363256326024,3.888678012728395 L8.37555585219772,3.89498917451467 L8.362584396382609,3.9012303062865215 L8.34944964863798,3.9074010424916565 L8.336152378285387,3.9135010217009523 L8.322693364165591,3.9195298866296184 " />
			<path d="M10.87452470710051,4.223959655365607 L10.96762780656194,4.178841326600338 L11.05720588302098,4.127480327085025 " />
			<path d="M11.057205883020988,4.127480327085021 L11.13597014613796,4.075064194909974 L11.211369250730865,4.017656728522148 L11.283221553752556,3.955396227536374 L11.351353956711533,3.888432682952903 L11.415602322681377,3.8169274158159485 L11.475811871720973,3.741052688577166 L11.531837553752952,3.660991290100315 L11.583544398002028,3.576936095306875 L11.630807838151421,3.489089600523471 L11.67351401243402,3.3976634356504802 L11.711560037935364,3.302877854327067 L11.744854258447578,3.204961203320876 L11.77331646527722,3.1041493724206672 L11.796878090475044,3.0006852261571515 L11.815482372022192,2.894818018721068 L11.829084490574875,2.786802793488003 L11.837651677438092,2.6768997685965568 L11.841163293508298,2.565373710060063 L11.839610878994794,2.452493293922065 L11.83299817380012,2.3385304589921962 L11.821341108510296,2.223759751721767 L11.804667766016642,2.108457664797318 L11.783018313861637,1.9929019710455225 L11.756444907471792,1.87737105425411 L11.725011564510655,1.7621432385209448 L11.688794010654654,1.647496117746893 L11.647879497163313,1.5337058868878002 L11.602366590683319,1.421046676576652 L11.552364935792841,1.3097898927188707 L11.497994990858142,1.2002035626517156 L11.439387737838814,1.0925516894429448 L11.376684366740765,0.9870936158843091 L11.310035935477142,0.8840833997120472 L11.239603005956567,0.7837692015595479 L11.165555257275457,0.6863926871166459 L11.088071076946196,0.5921884449358084 L11.007337131146013,0.5013834212877673 L10.923547915021798,0.4141963734280738 L10.836905284134264,0.3308373425917033 L10.747617968170218,0.251507147985329 L10.65590106809446,0.17639690299626265 L10.561975537952724,0.10568755478356273 L10.46606765257403,0.03954944836048169 L10.36840846245479,-0.02185808378159315 L10.269233237137938,-0.07838710551906791 L10.168780898427986,-0.12990143348721883 L10.06729344480747,-0.17627696515784796 L9.965015368441414,-0.21740197781314574 L9.862193066174285,-0.25317739769549874 L9.759074245938416,-0.2835170386848529 L9.655907330003897,-0.30834780992862587 L9.55294085650757,-0.3276098919239745 L9.450422880702881,-0.34125688062821213 L9.348600377373062,-0.3492558992502146 L9.24771864584723,-0.35158767745349184 L9.148020719052829,-0.34824659778011036 L9.049746778028013,-0.3392407091836489 L8.95313357330449,-0.3245917076385587 L8.858413854554755,-0.30433488387266205 L8.765815809877745,-0.2785190383486995 L8.67556251607372,-0.24720636369973992 L8.587871401232707,-0.21047229490167974 L8.502953720931195,-0.16840532754377602 L8.421014049298952,-0.12110680463503565 " />
			<path d="M8.421014049298936,-0.12110680463502632 L8.366692537067426,-0.0857370851982906 L8.313923373416852,-0.048004572998985306 L8.262766245826096,-0.007951947480352217 L8.213279018391557,0.03437548762197484 L8.165517666376777,0.07892985552326404 L8.119536212898522,0.12566076054336683 L8.075386667820952,0.17451534510953892 L8.033118968926987,0.22543834954391828 L7.9927809254334194,0.27837217456803875 L7.954418163913657,0.33325694645367543 L7.918074076689267,0.3900305847463361 L7.88378977274869,0.44862887248478867 L7.8516040312486455,0.5089855288372038 L7.821553257650831,0.5710322840717552 L7.793671442543504,0.6346989567768708 L7.767990123194552,0.6999135332437962 L7.744538347879523,0.7666022489216826 L7.723342643024971,0.8346896718530572 L7.704426983204268,0.9040987879953053 L7.687812764019843,0.9747510883316641 L7.673518777902503,1.0465666576731807 L7.661561192855217,1.119464265051206 L7.651953534165395,1.1933614555981704 L7.644706669106375,1.2681746438127166 L7.639828794645386,1.343819208103703 L7.637325428171916,1.4202095865061306 L7.637199401256966,1.4972593734607302 L7.639450856450243,1.5748814175477488 L7.644077247118923,1.6529879200643758 L7.651073340328157,1.7314905343343203 L7.660431222760078,1.8103004656372024 L7.672140309664588,1.8893285716447221 " />
			<path d="M10.847516742149976,4.235600189872885 L10.8745247071005,4.223959655365611 " />
			<path d="M0.25967828035580287,8.922523554906272 L0.352781379817233,8.877405226141002 L0.4423594562762725,8.82604422662569 " />
			<path d="M0.4423594562762798,8.826044226625687 L0.5211237193932527,8.773628094450638 L0.5965228239861577,8.716220628062814 L0.6683751270078482,8.65396012707704 L0.736507529966826,8.586996582493567 L0.8007558959366696,8.515491315356613 L0.860965444976266,8.43961658811783 L0.9169911270082447,8.35955518964098 L0.9686979712573209,8.275499994847541 L1.0159614114067135,8.187653500064137 L1.0586675856893144,8.096227335191145 L1.096713611190657,8.001441753867732 L1.1300078317028714,7.903525102861542 L1.158470038532514,7.802713271961332 L1.1820316637303372,7.699249125697817 L1.2006359452774849,7.593381918261733 L1.2142380638301677,7.485366693028668 L1.2228052506933862,7.375463668137222 L1.2263168667635913,7.2639376096007275 L1.2247644522500876,7.15105719346273 L1.2181517470554142,7.037094358532861 L1.20649468176559,6.922323651262432 L1.1898213392719352,6.807021564337983 L1.1681718871169307,6.691465870586187 L1.1415984807270854,6.575934953794775 L1.1101651377659483,6.4607071380616095 L1.0739475839099475,6.346060017287558 L1.0330330704186061,6.232269786428465 L0.9875201639386118,6.119610576117317 L0.937518509048135,6.008353792259536 L0.883148564113436,5.898767462192381 L0.8245413110941062,5.79111558898361 L0.7618379399960584,5.685657515424975 L0.6951895087324342,5.582647299252712 L0.624756579211861,5.482333101100213 L0.5507088305307499,5.384956586657311 L0.4732246502014885,5.2907523444764735 L0.39249070440130507,5.199947320828432 L0.3087014882770909,5.112760272968739 L0.22205885738955722,5.029401242132368 L0.13277154142551018,4.950071047525994 L0.04105464134975234,4.874960802536927 L-0.05287088879198221,4.804251454324228 L-0.1487787741706773,4.738113347901146 L-0.24643796428991704,4.676705815759072 L-0.34561318960676923,4.620176794021598 L-0.44606552831672186,4.568662466053446 L-0.547552981937237,4.522286934382818 L-0.6498310583032938,4.481161921727519 L-0.7526533605704228,4.445386501845166 L-0.8557721808062906,4.415046860855812 L-0.9589390967408092,4.390216089612039 L-1.0619055702371376,4.370954007616691 L-1.1644235460418253,4.3573070189124525 L-1.2662460493716443,4.349308000290451 L-1.3671277808974762,4.346976222087173 L-1.4668257076918776,4.350317301760555 L-1.5650996487166948,4.359323190357016 L-1.6617128534402184,4.373972191902107 L-1.7564325721899519,4.394229015668003 L-1.849030616866961,4.420044861191966 L-1.939283910670987,4.451357535840925 L-2.026975025511999,4.488091604638985 L-2.1118927058135126,4.530158571996889 L-2.193832377445756,4.577457094905629 " />
			<path d="M-2.1938323774457706,4.577457094905639 L-2.248153889677282,4.612826814342375 L-2.300923053327854,4.65055932654168 L-2.3520801809186116,4.690611952060313 L-2.4015674083531504,4.73293938716264 L-2.44932876036793,4.777493755063929 L-2.4953102138461847,4.824224660084032 L-2.5394597589237544,4.873079244650204 L-2.5817274578177196,4.924002249084584 L-2.6220655013112877,4.976936074108703 L-2.66042826283105,5.031820845994341 L-2.69677235005544,5.088594484287001 L-2.7310566539960175,5.147192772025454 L-2.7632423954960617,5.2075494283778685 L-2.793293169093876,5.26959618361242 L-2.8211749842012037,5.3332628563175355 L-2.8468563035501555,5.398477432784461 L-2.8703080788651842,5.465166148462348 L-2.8915037837197364,5.533253571393722 L-2.9104194435404396,5.60266268753597 L-2.927033662724864,5.673314987872329 L-2.9413276488422038,5.745130557213846 L-2.9532852338894906,5.818028164591872 L-2.9628928925793123,5.891925355138835 L-2.970139757638332,5.966738543353381 L-2.975017632099321,6.042383107644368 L-2.977520998572791,6.118773486046796 L-2.9776470254877405,6.195823273001396 L-2.975395570294464,6.273445317088414 L-2.9707691796257842,6.3515518196050404 L-2.96377308641655,6.430054433874986 L-2.9544152039846296,6.5088643651778675 L-2.9427061170801196,6.587892471185387 " />
			<path d="M0.23267031540526895,8.93416408941355 L0.25967828035579354,8.922523554906277 " />
			<path d="M-17.136486355574625,-7.6652787414211545 L-8.716071424054974,-12.890034263861505 " />
			<path d="M-11.293583574123897,-5.40641312215295 L-2.8731686426027965,-10.631168644594197 " />
			<path d="M4.847655706043666,2.096114542462161 L8.421014049298936,-0.12110680463502632 " />
			<path d="M10.69055848749613,4.3549801617292925 L11.057205883020988,4.1274803270850215 " />
			<path d="M-27.751332782319334,-2.9667148418804885 L-19.33091785079968,-8.191470364320839 " />
			<path d="M-21.90843000086861,-0.7078492226122783 L-13.488015069347545,-5.932604745053505 " />
			<path d="M-5.767190720701052,6.794678442002834 L-2.19383237744577,4.577457094905639 " />
			<path d="M0.07571206075139858,9.053544061269973 L0.4423594562762805,8.826044226625687 " />
			<path d="M19.110973419016986,-0.8697753607118042 L11.057205883020988,4.1274803270850215 " />
			<path d="M13.268070637563051,-3.1286409799780235 L8.421014049298936,-0.12110680463502632 " />
			<path d="M8.496126992272279,3.828788538828861 L0.4423594562762805,8.826044226625687 " />
			<path d="M2.6532242108186823,1.5699229195624316 L-2.19383237744577,4.577457094905639 " />

        </g>

        <!-- solid lines -->
        <g  stroke="rgb(0,0,0)" fill="none">
    			<path d="M-7.142547611081227,-26.476755976962263 L-7.142547611081227,-17.513169913412558 " />
			<path d="M-7.142547611081227,-17.513169913412558 L-49.601933318060055,1.2810856847501064 " />
			<path d="M-49.601933318060055,-7.682500378799604 L-49.601933318060055,1.281085684750101 " />
			<path d="M-7.142547611081227,-26.476755976962263 L-49.601933318060055,-7.682500378799599 " />
			<path d="M-7.142547611081227,-26.476755976962263 L49.38198889611088,-1.378745352334608 " />
			<path d="M49.381988896110876,-1.3787453523346098 L49.381988896110876,7.5848407112150955 " />
			<path d="M-7.142547611081227,-17.513169913412558 L49.38198889611088,7.584840711215097 " />
			<path d="M-49.601933318060055,1.281085684750101 L6.9226031891320545,26.379096309377758 " />
			<path d="M49.381988896110876,7.5848407112150955 L6.922603189132047,26.379096309377758 " />
			<path d="M-11.467017202230824,-5.31567177435204 L-11.911773738247046,-5.175814157344533 L-12.464312094798402,-5.099599647590178 L-13.098776068765652,-5.09059472662185 L-13.785475722449032,-5.149220782498617 L-14.49227673337657,-5.272734390821327 L-15.186104129853113,-5.455355694125036 L-15.834490044480331,-5.688538872094943 L-16.407093058043657,-5.961372045868538 L-16.87711803559934,-6.261087902778534 L-17.222570013093407,-6.573661146694018 L-17.42728345850056,-6.884464816086446 L-17.481678742890196,-7.178954757213852 L-17.383210422122133,-7.443350222289078 L-17.136486351691662,-7.665278743830476 " />
			<path d="M-17.13648635169166,-7.665278743830481 L-16.737219072818952,-7.839252824951366 L-16.21147895080269,-7.9478686420488405 L-15.585628790660286,-7.985679744513494 L-14.891051332743917,-7.950790125782339 L-14.162575591096338,-7.8449492970249075 L-13.43673038125349,-7.673464559347906 L-12.749912612902477,-7.444934873556351 L-12.136562196849614,-7.170819672352673 L-11.627435084084027,-6.864864236530604 L-11.248061033969432,-6.542410449200879 L-11.017463445506618,-6.219627489709943 L-10.947205444672761,-5.9127010434709 L-11.04081006100153,-5.637021684111385 L-11.29358356817136,-5.406413125846418 " />
			<path d="M-11.293583568171371,-5.406413125846409 L-11.304881917720554,-5.3994888133193655 L-11.316350719225397,-5.392631058904859 L-11.32798930094128,-5.385840264271684 L-11.339796981179303,-5.379116827166692 L-11.35177306834623,-5.372461141391515 L-11.363916860984965,-5.365873596779483 L-11.376227647815668,-5.359354579172802 L-11.388704707777393,-5.3529044703999435 L-11.40134731007034,-5.346523648253292 L-11.414154714198649,-5.3402124864670135 L-11.427126170013764,-5.333971354695159 L-11.440260917758394,-5.3278006184900235 L-11.453558188110991,-5.321700639280724 L-11.467017202230808,-5.315671774352047 " />
			<path d="M10.51712485938917,4.445721509530216 L10.07236832337329,4.5855791265376515 L9.5198299668224,4.661793636292019 L8.885365992855684,4.670798557260457 L8.19866633917285,4.612172501383887 L7.491865328245787,4.488658893061446 L6.798037931769601,4.306037589758063 L6.149652017142548,4.072854411788508 L5.577049003579155,3.800021238015263 L5.107024026023129,3.50030538110558 L4.761572048528445,3.1877321371903404 L4.556858603120401,2.876928467798056 L4.502463318729627,2.582438526670667 L4.600931639496352,2.3180430615953114 L4.847655709925357,2.0961145400536263 " />
			<path d="M4.8476557099253625,2.096114540053622 L5.246922988797186,1.9221404589320699 L5.772663110812958,1.8135246418339692 L6.39851327095524,1.775713539368772 L7.093090728871819,1.8106031580994983 L7.821566470519875,1.9164439868566272 L8.547411680363387,2.0879287245334663 L9.234229448715158,2.3164584103249934 L9.84757986476879,2.5905736115287583 L10.356706977535055,2.8965290473510046 L10.736081027650176,3.2189828346809666 L10.96667861611331,3.541765794172162 L11.036936616947237,3.8486922404114434 L10.94333200061828,4.124371599771148 L10.69055849344803,4.354980158036215 " />
			<path d="M10.69055849344802,4.3549801580362235 L10.679260143898873,4.361904470563238 L10.667791342394066,4.368762224977715 L10.656152760678221,4.375553019610862 L10.644345080440234,4.382276456715823 L10.632368993273346,4.388932142490972 L10.620225200634653,4.3955196871029765 L10.607914413803993,4.402038704709632 L10.59543735384231,4.408488813482466 L10.582794751549407,4.414869635629089 L10.569987347421147,4.421180797415344 L10.557015891606078,4.427421929187172 L10.543881143861496,4.433592665392284 L10.530583873508949,4.439692644601558 L10.517124859389186,4.445721509530209 " />
			<path d="M-22.081863628975533,-0.6171078748113752 L-22.52662016499175,-0.47725025780386865 L-23.079158521543107,-0.40103574804951414 L-23.71362249551036,-0.392030827081185 L-24.40032214919374,-0.4506568829579507 L-25.107123160121276,-0.5741704912806611 L-25.80095055659782,-0.7567917945843714 L-26.44933647122504,-0.989974972554279 L-27.021939484788366,-1.262808146327873 L-27.49196446234405,-1.5625240032378702 L-27.837416439838115,-1.875097247153354 L-28.042129885245267,-2.1859009165457817 L-28.0965251696349,-2.4803908576731857 L-27.99805684886684,-2.7447863227484124 L-27.75133277843637,-2.966714844289812 " />
			<path d="M-27.751332778436367,-2.9667148442898164 L-27.352065499563665,-3.140688925410698 L-26.82632537754741,-3.2493047425081745 L-26.200475217405018,-3.2871158449728295 L-25.505897759488658,-3.2522262262416763 L-24.777422017841086,-3.1463853974842486 L-24.05157680799824,-2.974900659807255 L-23.364759039647236,-2.7463709740157034 L-22.751408623594365,-2.472255772812031 L-22.242281510828775,-2.1663003369899663 L-21.86290746071417,-1.8438465496602454 L-21.63230987225134,-1.521063590169308 L-21.562051871417466,-1.2141371439302677 L-21.655656487746214,-0.9384577845707494 L-21.90842999491602,-0.7078492263057845 " />
			<path d="M-21.90842999491603,-0.7078492263057754 L-21.919728344465216,-0.7009249137787279 L-21.931197145970064,-0.6940671593642191 L-21.942835727685946,-0.6872763647310389 L-21.954643407923978,-0.6805529276260467 L-21.966619495090907,-0.6738972418508684 L-21.97876328772964,-0.6673096972388324 L-21.991074074560352,-0.6607906796321483 L-22.00355113452208,-0.6543405708592864 L-22.016193736815033,-0.6479597487126334 L-22.029001140943347,-0.6416485869263528 L-22.041972596758463,-0.6354074551544961 L-22.0551073445031,-0.6292367189493593 L-22.0684046148557,-0.6231367397400582 L-22.08186362897552,-0.6171078748113831 " />
			<path d="M-0.09772156735553583,9.144285409070882 L-0.5424781033714297,9.284143026078318 L-1.0950164599223386,9.360357535832687 L-1.729480433889071,9.36936245680112 L-2.4161800875719273,9.310736400924544 L-3.1229810984990047,9.187222792602093 L-3.816808494975203,9.004601489298697 L-4.4651944096022635,8.771418311329128 L-5.037797423165654,8.498585137555873 L-5.507822400721668,8.198869280646178 L-5.853274378216329,7.88629603673093 L-6.057987823624342,7.57549236733864 L-6.112383108015074,7.28100242621125 L-6.013914787248301,7.016606961135899 L-5.767190716819243,6.794678439594224 " />
			<path d="M-5.767190716819238,6.79467843959422 L-5.367923437947401,6.620704358472699 L-4.842183315931641,6.51208854137462 L-4.21633315578939,6.4742774389094375 L-3.521755697872854,6.509167057640166 L-2.793279956224846,6.61500788639729 L-2.0674347463813842,6.786492624074112 L-1.3806169780296558,7.015022309865618 L-0.7672665619760508,7.289137511069355 L-0.25813944920978926,7.595092946891573 L0.12123460090535376,7.917546734221509 L0.3518321893685341,8.240329693712685 L0.4220901902025336,8.547256139951957 L0.3284855738736763,8.822935499311662 L0.07571206670353559,9.053544057576747 " />
			<path d="M0.0757120667035256,9.053544057576756 L0.06441371715436528,9.06046837010378 L0.05294491564954651,9.067326124518269 L0.041306333933687434,9.074116919151425 L0.029498653695685384,9.080840356256399 L0.017522566528785255,9.087496042031557 L0.005378773890076793,9.09408358664357 L-0.006932012940597865,9.100602604250238 L-0.019409072902297986,9.10705271302308 L-0.032051675195215346,9.113433535169714 L-0.0448590793234942,9.119744696955976 L-0.05783053513858061,9.125985828727813 L-0.07096528288318105,9.132156564932934 L-0.08426255323574594,9.138256544142218 L-0.0977215673555202,9.144285409070873 " />
			<path d="M7.672140309664588,1.8893285716447275 L7.699188039527449,2.0322625041174067 L7.7337540445630495,2.175089275902679 L7.775710929338216,2.3172824889270207 L7.82490405881471,2.4583180801421074 L7.88115212826749,2.597676252995895 L7.944247831495981,2.7348433931792258 L8.013958624865598,2.869313961587345 L8.090027584363602,3.0005923575196936 L8.172174352510552,3.128194745251007 L8.260096171637432,3.2516508372417774 L8.353468999720254,3.3705056274159304 L8.451948704659639,3.4843210681175916 L8.555172332603773,3.592677684566412 L8.662759445640267,3.695176120861261 L8.774313523926724,3.7914386118343737 L8.8894234270924,3.881110375331345 L9.007664909524852,3.963860919785614 L9.128602183956854,4.0393852622682855 L9.251789527590905,4.107405052524083 L9.376772924841827,4.1676695988507095 L9.50309174064301,4.219956792040689 L9.566606589421506,4.2430474912702945 L9.630280418149214,4.2640739239803995 L9.69405454471655,4.283016712108571 L9.757870194578956,4.299858397889336 L9.821668554923802,4.31458345994334 L9.885390828872563,4.32717832758193 L9.948978289668302,4.337631393313964 L10.012372334798547,4.345933023543331 L10.075514540003633,4.352075567447321 L10.138346713120796,4.3560533640276615 L10.200810947714348,4.357862747327719 L10.262849676442533,4.35750204981106 L10.32440572411186,4.354971603898271 L10.38542236037005,4.3502737416605815 L10.445843351988996,4.343412792670633 L10.50561301468958,4.334395080012311 L10.564676264460578,4.323228914453368 L10.622978668324352,4.309924586786176 L10.68046649450254,4.294494358343682 L10.737086761935533,4.276952449699306 L10.79278728911007,4.257315027561191 L10.847516742149969,4.235600189872889 " />
			<path d="M-2.9427061170801188,6.587892471185392 L-2.9156583872172575,6.730826403658072 L-2.8810923821816576,6.873653175443344 L-2.839135497406491,7.015846388467685 L-2.7899423679299975,7.1568819796827725 L-2.733694298477217,7.29624015253656 L-2.670598595248726,7.433407292719891 L-2.600887801879109,7.56787786112801 L-2.524818842381104,7.699156257060358 L-2.4426720742341548,7.826758644791672 L-2.354750255107275,7.950214736782442 L-2.2613774270244535,8.069069526956596 L-2.162897722085069,8.182884967658257 L-2.0596740941409344,8.291241584107077 L-1.9520869811044403,8.393740020401927 L-1.840532902817984,8.490002511375039 L-1.7254229996523072,8.57967427487201 L-1.6071815172198551,8.66242481932628 L-1.4862442427878528,8.73794916180895 L-1.3630568991538017,8.805968952064747 L-1.2380735019028803,8.866233498391374 L-1.1117546861016985,8.918520691581353 L-1.0482398373232016,8.941611390810959 L-0.9845660085954928,8.962637823521064 L-0.9207918820281564,8.981580611649235 L-0.8569762321657515,8.99842229743 L-0.7931778718209053,9.013147359484005 L-0.7294555978721445,9.025742227122596 L-0.6658681370764044,9.036195292854629 L-0.6024740919461596,9.044496923083996 L-0.5393318867410735,9.050639466987986 L-0.4764997136239113,9.054617263568327 L-0.4140354790303581,9.056426646868385 L-0.3519967503021736,9.056065949351726 L-0.2904407026328467,9.053535503438935 L-0.2294240663746565,9.048837641201247 L-0.1690030747557112,9.041976692211298 L-0.10923341205512749,9.032958979552976 L-0.05017016228412863,9.021792813994033 L0.008132241579644983,9.00848848632684 L0.06562006775783302,8.993058257884346 L0.12224033519082633,8.975516349239971 L0.17794086236536355,8.955878927101857 L0.23267031540526095,8.934164089413555 " />

        </g>
        </g>
    </svg>
    