<?xml version='1.0' encoding='utf-8'?>
<svg width="100.09mm" height="49.085892mm" viewBox="-86.395936 -38.405421 166.985262 81.892502" version="1.1" xmlns="http://www.w3.org/2000/svg">
  <g transform="scale(1,-1)" stroke-linecap="round">
    <g fill="none" stroke="rgb(0,0,0)" stroke-width="0.15015159949777898" id="Visible">
      <path d="M 61.189771,15.230685 A 30.0,16.39479775721087 9.494606843334274e-16 0,1 2.203053,11.005682" />
      <path d="M 2.203053,11.005682 A 30.0,16.39479775721087 9.494606843334274e-16 0,1 3.216334,6.78068" />
      <line x1="61.189771" y1="15.230685" x2="61.189771" y2="-1.518585" />
      <path d="M 61.189771,-1.518585 A 30.0,16.39479775721087 9.494606843334274e-16 0,1 4.852471,0.992829" />
      <path d="M 4.905136,-17.010261 A 50.0,27.324662928684784 180.0 0,0 -32.209671,-43.412005" />
      <line x1="-32.209671" y1="-43.412005" x2="-81.166783" y2="-27.923946" />
      <line x1="-81.166783" y1="-27.923946" x2="-86.32086" y2="-17.363249" />
      <path d="M -17.796947,-5.743588 A 50.0,27.324662928684784 9.494606843334274e-16 0,1 -17.744281,-6.997408" />
      <line x1="61.189771" y1="-1.518585" x2="80.51425" y2="1.298083" />
      <line x1="80.51425" y1="1.298083" x2="80.51425" y2="18.047353" />
      <path d="M 80.51425,18.047353 A 50.0,27.324662928684784 9.494606843334274e-16 0,1 -17.796947,11.005682" />
      <path d="M -17.796947,11.005682 A 50.0,27.324662928684784 9.494606843334274e-16 0,1 -16.108145,3.964012" />
      <path d="M -16.108145,3.964012 A 30.0,16.39479775721087 180.0 0,0 -15.094864,-0.260991" />
      <path d="M -15.094864,-0.260991 A 30.0,16.39479775721087 180.0 0,0 -37.363748,-16.102037" />
      <line x1="-37.363748" y1="-16.102037" x2="-86.32086" y2="-0.613979" />
      <line x1="-86.32086" y1="-0.613979" x2="-81.166783" y2="-11.174676" />
      <line x1="-32.209671" y1="-26.662735" x2="-81.166783" y2="-11.174676" />
      <path d="M 3.216334,6.78068 A 50.0,27.324662928684784 180.0 0,0 4.905136,-0.260991" />
      <path d="M 4.905136,-0.260991 A 50.0,27.324662928684784 180.0 0,0 -32.209671,-26.662735" />
      <line x1="80.51425" y1="18.047353" x2="61.189771" y2="15.230685" />
      <line x1="-32.209671" y1="-26.662735" x2="-32.209671" y2="-43.412005" />
      <line x1="-81.166783" y1="-11.174676" x2="-81.166783" y2="-27.923946" />
      <line x1="-86.32086" y1="-17.363249" x2="-86.32086" y2="-0.613979" />
      <line x1="-16.108145" y1="-4.485993" x2="-16.108145" y2="3.964012" />
      <line x1="-17.796947" y1="-5.743588" x2="-17.796947" y2="11.005682" />
      <line x1="4.905136" y1="-0.260991" x2="4.905136" y2="-17.010261" />
    </g>
    <g fill="none" stroke="rgb(99,99,99)" stroke-width="0.15015159949777898" id="Hidden" stroke-dasharray="0.003814 0.452362">
      <path d="M 4.852471,0.992829 A 30.0,16.39479775721087 9.494606843334274e-16 0,1 2.203053,-5.743588" />
      <path d="M 2.203053,-5.743588 A 30.0,16.39479775721087 9.494606843334274e-16 0,1 3.216334,-9.96859" />
      <path d="M 3.216334,-9.96859 A 50.0,27.324662928684784 180.0 0,0 4.905136,-17.010261" />
      <line x1="-37.363748" y1="-32.851307" x2="-86.32086" y2="-17.363249" />
      <path d="M -16.108145,-12.785258 A 30.0,16.39479775721087 180.0 0,0 -15.094864,-17.010261" />
      <path d="M -15.094864,-17.010261 A 30.0,16.39479775721087 180.0 0,0 -37.363748,-32.851307" />
      <path d="M 80.51425,1.298083 A 50.0,27.324662928684784 9.494606843334274e-16 0,1 -17.796947,-5.743588" />
      <path d="M -17.744281,-6.997408 A 50.0,27.324662928684784 9.494606843334274e-16 0,1 -16.108145,-12.785258" />
      <line x1="-37.363748" y1="-32.851307" x2="-37.363748" y2="-16.102037" />
      <line x1="2.203053" y1="11.005682" x2="2.203053" y2="-5.743588" />
      <line x1="-15.094864" y1="-17.010261" x2="-15.094864" y2="-0.260991" />
    </g>
  </g>
</svg>