<?xml version="1.0" encoding="UTF-8" standalone="no"?>
    <svg
    xmlns:svg="http://www.w3.org/2000/svg"
    xmlns="http://www.w3.org/2000/svg"
    width="449"
    height="190"
    >
        <g transform="scale(4, -4)   translate(50.5707265457246,-22.130910184064575)" stroke-width="0.25"  fill="none">
        <!-- hidden lines -->
        <g  stroke="rgb(160,160,160)" fill="none" stroke-dasharray="0.25,0.25" >
    			<path d="M17.42115821909623,7.396503331294085 L17.42115821909623,16.910223393408316 " />
			<path d="M59.26473227838939,-5.849815641549618 L17.421158219096235,7.396503331294086 " />
			<path d="M17.42115821909623,7.396503331294081 L16.865077874585474,7.531079553158522 L16.301419493832714,7.662630177810723 L15.73035653907749,7.791114721392473 L15.152064751269357,7.916493643612281 L14.56672209598473,8.038728359913643 L13.97450870865909,8.157781253349192 L13.375606839151523,8.27361568615708 L12.770200795658443,8.386196011036 L12.158476887993967,8.495487582115421 L11.540623370254242,8.601456765617636 L10.916830382883486,8.704070950208326 L10.287289894159468,8.803298557032509 L9.65219564111651,8.899109049432704 L9.01174306992419,8.99147294234642 L8.36612927573998,9.08036181137997 L7.715552942054536,9.165748301555904 L7.060214279548102,9.247606135731335 L6.400314964476985,9.325910122684544 L5.736058076608952,9.400636164867434 L5.067648036726768,9.471761265821382 L4.395290543719007,9.539263537254257 L3.7191925112775497,9.603122205776403 L3.039562004221196,9.663317619293508 L2.356608174465089,9.719831253054423 L1.6705411966555435,9.772645715352017 L0.9815722034901562,9.821744752875379 L0.28991322074307746,9.867113255711665 L-0.40422289798457367,9.90873726199607 L-1.100622536768995,9.946603962208508 L-1.7990713831026577,9.980701703115663 L-2.499354493847612,10.011019991357186 L-3.201256361382831,10.037549496674972 L-3.9045609799253023,10.060282054784471 L-4.609051912004416,10.079210669887214 L-5.314512355069208,10.094329516823704 L-6.020725208207954,10.105633942866087 L-6.727473138959553,10.113120469149992 L-7.434538650196215,10.116786791745133 L-8.141704147056812,10.116631782364319 L-8.84875200391028,10.112655488710695 L-9.555464631328507,10.104859134463041 L-10.261624543048082,10.093245118899212 L-10.967014422900297,10.077817016157756 L-11.671417191688802,10.058579574138017 L-12.374616073994307,10.035538713038983 L-13.076394664885843,10.00870152353739 L-13.776536996517997,9.978076264605608 L-14.474827604593612,9.943672360970004 L-15.171051594671532,9.905500400210531 L-15.864994708298994,9.86357212950248 L-16.55644338894829,9.81790045200135 L-17.245184847737413,9.768499422871999 L-17.93100712891444,9.715384244963245 L-18.61369917508559,9.658571264129296 L-19.29305089216676,9.598077964199414 L-19.96885321403863,9.533922961597378 L-20.640898166885428,9.466125999612405 L-21.30897893319749,9.394707942323272 L-21.97288991541808,9.319690768177537 L-22.63242679921467,9.24109756322781 L-23.287386616355374,9.158952514027167 L-23.937567807171103,9.073280900185901 L-24.582770282584296,8.984109086591875 L-25.222795485685,8.891464515296907 L-25.857446452835518,8.795375697071645 L-26.486527874284665,8.695872202631568 L-27.10984615427311,8.592984653536789 L-27.727209470611236,8.486744712768463 L-28.338427833711144,8.377185074984709 L-28.94331314505478,8.264339456459043 L-29.541679255080002,8.148242584704404 L-30.1333420204669,8.028930187785996 L-30.718119360806767,7.906438983326202 L-31.295831314636164,7.78080666720496 L-31.86630009481883,7.65207190195912 L-32.42935014325863,7.520274304884282 L-32.98480818492637,7.38545443584283 L-33.53250328118409,7.247653784781898 L-34.07226688239031,7.106914758965107 L-34.60393287977014,6.963280669922 L-35.12733765653413,6.816795720119199 L-35.64232013823033,6.667504989357376 L-36.14872184231392,6.515454420898244 L-36.646386926919114,6.360690807325803 L-37.13516223881861,6.203261776146229 L-37.61489736055542,6.04321577513082 L-38.08544465673292,5.880602057406486 L-38.546659319448665,5.715470666298456 L-38.998399412858106,5.547872419929718 L-39.440525916854455,5.377858895582099 L-39.87290276985115,5.205482413823693 L-40.295396910654034,5.030796022407517 L-40.70787831941,4.853853479946429 L-41.11022005761983,4.674709239369247 L-41.502298307202636,4.493418431163225 L-41.88399240860012,4.310036846407982 L-42.25518489790878,4.124620919606173 L-42.61576154302864,3.9372277113161225 L-42.96561137881747,3.7479148905918143 L-43.304626741239574,3.5567407172355994 L-43.63270330049873,3.3637640238691278 L-43.94974009314498,3.1690441978279846 L-44.25563955314553,2.9726411628856093 L-44.55030754191,2.7746153608121693 L-44.833653377261044,2.575027732773955 L-45.105589861341144,2.3739397005791485 L-45.23725330669379,2.2728523540148355 L-45.36603330744724,2.171413147775672 L-45.491919955606804,2.0696298863275064 L-45.61490356578473,1.9675104006068915 L-45.73497467594534,1.8650625474186011 L-45.85212404813308,1.7622942088311397 L-45.966342669183234,1.659213291570305 L-46.077621751415364,1.5558277264108753 L-46.185952733309435,1.452145467566449 L-46.29132728016448,1.3481744920774554 L-46.393737284739885,1.243922799197414 L-46.49317486787912,1.1393984097775025 L-46.58963237911597,1.0346093656494628 L-46.68310239726307,0.9295637290068761 L-46.77357773098298,0.824269581784864 L-46.86105141934135,0.7187350250383018 L-46.945516732342554,0.6129681783185492 L-47.02696717144748,0.5069771790487487 L-47.105396470073444,0.4007701818977374 L-47.180798594076435,0.29435535815266345 L-47.25316774221521,0.18774089509031677 L-47.3224983465978,0.08093499534721138 L-47.38878507310973,-0.02605412371151461 L-47.452022821824556,-0.13321823062431015 L-47.51220672739613,-0.24054908046650736 L-47.56933215943296,-0.3480384154846834 L-47.62339472285451,-0.45567796573198005 L-47.67439025822924,-0.5634594497043699 L-47.72231484209475,-0.6713745749778288 L-47.76716478725953,-0.7794150388463226 L-47.808936643086724,-0.8875725289605836 L-47.84762719575954,-0.995838723967658 L-47.88323346852857,-1.1042052941511233 L-47.915752721940805,-1.2126639020719499 L-47.94518245405037,-1.3212062032099765 L-47.97152040061104,-1.4298238466059066 L-47.994764535250454,-1.5385084755037972 L-48.01491306962599,-1.6472517279940169 L-48.031964453562395,-1.7560452376566 L-48.045917375171015,-1.8648806342049267 L-48.05677076095073,-1.9737495441296984 L-48.06452377587058,-2.082643591343186 L-48.069175823433966,-2.1915543978236744 L-48.0707265457246,-2.3004735842599793 " />

        </g>

        <!-- solid lines -->
        <g  stroke="rgb(0,0,0)" fill="none">
    			<path d="M1.9296112218510255,-23.036049643850575 L1.9296112218510255,-13.522329581736344 " />
			<path d="M59.26473227838939,-5.849815641549618 L59.26473227838939,3.663904420564613 " />
			<path d="M1.9296112218510255,-23.036049643850575 L59.264732278389396,-5.8498156415496165 " />
			<path d="M1.9296112218510255,-13.522329581736344 L59.264732278389396,3.6639044205646147 " />
			<path d="M59.26473227838939,3.663904420564613 L17.421158219096235,16.910223393408316 " />
			<path d="M-39.91396283744213,-9.78973067100687 L-39.91396283744213,-0.27601060889263884 " />
			<path d="M-48.0707265457246,-2.300473584260035 L-48.06866413009989,-2.4260835481672736 L-48.06247709426131,-2.551680659101548 L-48.05216607129407,-2.6772520654050673 L-48.037732116268074,-2.8027849180502575 L-48.01917670613015,-2.928266371954518 L-47.99650173955281,-3.053683587294597 L-47.96970953673997,-3.17902373082043 L-47.93880283918958,-3.304273977168279 L-47.9037848094131,-3.429421510173089 L-47.86465903061183,-3.554453524179893 L-47.82142950631038,-3.679357225354141 L-47.77410065994687,-3.8041198329908354 L-47.72267733442044,-3.928728580822287 L-47.667164791595596,-4.05317071832443 L-47.607568711763875,-4.177433512021522 L-47.543895193062525,-4.301504246789076 L-47.47615075085059,-4.425370227154934 L-47.404342317042236,-4.549018778598322 L-47.32847723939736,-4.672437248846767 L-47.2485632807698,-4.795613009170735 L-47.164608618313025,-4.918533455675847 L-47.07662184264336,-5.041186010592576 L-46.98461195696099,-5.163558123563271 L-46.888588376128666,-5.285637272926346 L-46.788560925708396,-5.407410966997563 L-46.684539840956035,-5.5288667453482345 L-46.5765357657739,-5.649992180080232 L-46.464559751621735,-5.770774877097665 L-46.34862325638585,-5.891202477375089 L-46.22873814320663,-6.011262658222146 L-46.10491667926473,-6.130943134544484 L-45.97717153452581,-6.250231660100814 L-45.845515780444074,-6.369116028756 L-45.70996288862477,-6.487584075730043 L-45.570526729445675,-6.605623678842845 L-45.42722157063787,-6.7232227597545995 L-45.28006207582574,-6.840369285201692 L-45.1290633030266,-6.957051268228009 L-44.9742407031098,-7.073256769411499 L-44.815610118215815,-7.188973898085859 L-44.65318778013514,-7.304190813557247 L-44.48699030864741,-7.41889572631587 L-44.317034709820774,-7.533076899242338 L-44.14333837427179,-7.646722648808671 L-43.96591907538591,-7.75982134627379 L-43.78479496749884,-7.872361418873431 L-43.59998458403889,-7.984331351004331 L-43.41150683563056,-8.095719685402548 L-43.21938100815956,-8.206515024315816 L-43.0236267607993,-8.31670603066982 L-42.824264123999384,-8.426281429228252 L-42.62131349743592,-8.535230007746549 L-42.414795647924166,-8.643540618119173 L-42.20473170729362,-8.75120217752033 L-41.99114317022561,-8.858203669538035 L-41.774051892053976,-8.964534145301347 L-41.553480086528666,-9.070182724600704 L-41.32945032354273,-9.175138597001242 L-41.10198552682289,-9.279391022948957 L-40.87110897158392,-9.382929334869626 L-40.636844282146896,-9.485742938260383 L-40.39921542952199,-9.58782131277376 L-39.91396283744224,-9.789730671006826 " />
			<path d="M17.42115821909623,16.910223393408312 L16.865077874585474,17.04479961527275 L16.301419493832714,17.176350239924954 L15.73035653907749,17.304834783506706 L15.152064751269357,17.430213705726512 L14.56672209598473,17.552448422027872 L13.97450870865909,17.671501315463424 L13.375606839151523,17.78733574827131 L12.770200795658443,17.89991607315023 L12.158476887993967,18.009207644229654 L11.540623370254242,18.115176827731865 L10.916830382883486,18.217791012322557 L10.287289894159468,18.31701861914674 L9.65219564111651,18.412829111546934 L9.01174306992419,18.50519300446065 L8.36612927573998,18.5940818734942 L7.715552942054536,18.679468363670136 L7.060214279548102,18.761326197845566 L6.400314964476985,18.839630184798775 L5.736058076608952,18.914356226981667 L5.067648036726768,18.985481327935613 L4.395290543719007,19.05298359936849 L3.7191925112775497,19.116842267890632 L3.039562004221196,19.17703768140774 L2.356608174465089,19.233551315168654 L1.6705411966555435,19.286365777466248 L0.9815722034901562,19.33546481498961 L0.28991322074307746,19.380833317825896 L-0.40422289798457367,19.4224573241103 L-1.100622536768995,19.460324024322738 L-1.7990713831026577,19.494421765229895 L-2.499354493847612,19.52474005347142 L-3.201256361382831,19.5512695587892 L-3.9045609799253023,19.574002116898704 L-4.609051912004416,19.592930732001445 L-5.314512355069208,19.608049578937937 L-6.020725208207954,19.619354004980316 L-6.727473138959553,19.62684053126422 L-7.434538650196215,19.630506853859366 L-8.141704147056812,19.63035184447855 L-8.84875200391028,19.626375550824925 L-9.555464631328507,19.618579196577272 L-10.261624543048082,19.606965181013443 L-10.967014422900297,19.591537078271987 L-11.671417191688802,19.572299636252247 L-12.374616073994307,19.549258775153213 L-13.076394664885843,19.52242158565162 L-13.776536996517997,19.49179632671984 L-14.474827604593612,19.457392423084237 L-15.171051594671532,19.419220462324763 L-15.864994708298994,19.37729219161671 L-16.55644338894829,19.33162051411558 L-17.245184847737413,19.28221948498623 L-17.93100712891444,19.229104307077478 L-18.61369917508559,19.172291326243528 L-19.29305089216676,19.111798026313643 L-19.96885321403863,19.047643023711608 L-20.640898166885428,18.979846061726636 L-21.30897893319749,18.908428004437503 L-21.97288991541808,18.83341083029177 L-22.63242679921467,18.754817625342042 L-23.287386616355374,18.672672576141398 L-23.937567807171103,18.58700096230013 L-24.582770282584296,18.497829148706106 L-25.222795485685,18.405184577411138 L-25.857446452835518,18.309095759185876 L-26.486527874284665,18.2095922647458 L-27.10984615427311,18.10670471565102 L-27.727209470611236,18.000464774882694 L-28.338427833711144,17.89090513709894 L-28.94331314505478,17.778059518573272 L-29.541679255080002,17.661962646818637 L-30.1333420204669,17.542650249900227 L-30.718119360806767,17.420159045440435 L-31.295831314636164,17.29452672931919 L-31.86630009481883,17.16579196407335 L-32.42935014325863,17.033994366998513 L-32.98480818492637,16.899174497957063 L-33.53250328118409,16.761373846896127 L-34.07226688239031,16.62063482107934 L-34.60393287977014,16.47700073203623 L-35.12733765653413,16.33051578223343 L-35.64232013823033,16.181225051471607 L-36.14872184231392,16.029174483012476 L-36.646386926919114,15.874410869440034 L-37.13516223881861,15.71698183826046 L-37.61489736055542,15.556935837245051 L-38.08544465673292,15.394322119520718 L-38.546659319448665,15.229190728412688 L-38.998399412858106,15.061592482043949 L-39.440525916854455,14.89157895769633 L-39.87290276985115,14.719202475937923 L-40.295396910654034,14.54451608452175 L-40.70787831941,14.367573542060661 L-41.11022005761983,14.188429301483477 L-41.502298307202636,14.007138493277456 L-41.88399240860012,13.823756908522213 L-42.25518489790878,13.638340981720404 L-42.61576154302864,13.450947773430354 L-42.96561137881747,13.261634952706046 L-43.304626741239574,13.07046077934983 L-43.63270330049873,12.877484085983358 L-43.94974009314498,12.682764259942216 L-44.25563955314553,12.48636122499984 L-44.55030754191,12.288335422926401 L-44.833653377261044,12.088747794888185 L-45.105589861341144,11.88765976269338 L-45.23725330669379,11.786572416129067 L-45.36603330744724,11.685133209889903 L-45.491919955606804,11.583349948441738 L-45.61490356578473,11.481230462721122 L-45.73497467594534,11.378782609532832 L-45.85212404813308,11.276014270945371 L-45.966342669183234,11.172933353684536 L-46.077621751415364,11.069547788525107 L-46.185952733309435,10.96586552968068 L-46.29132728016448,10.861894554191686 L-46.393737284739885,10.757642861311645 L-46.49317486787912,10.653118471891734 L-46.58963237911597,10.548329427763694 L-46.68310239726307,10.443283791121107 L-46.77357773098298,10.337989643899096 L-46.86105141934135,10.232455087152534 L-46.945516732342554,10.126688240432781 L-47.02696717144748,10.02069724116298 L-47.105396470073444,9.914490244011969 L-47.180798594076435,9.808075420266896 L-47.25316774221521,9.701460957204548 L-47.3224983465978,9.594655057461443 L-47.38878507310973,9.487665938402717 L-47.452022821824556,9.380501831489921 L-47.51220672739613,9.273170981647723 L-47.56933215943296,9.165681646629547 L-47.62339472285451,9.058042096382252 L-47.67439025822924,8.950260612409862 L-47.72231484209475,8.842345487136402 L-47.76716478725953,8.73430502326791 L-47.808936643086724,8.626147533153647 L-47.84762719575954,8.517881338146573 L-47.88323346852857,8.409514767963108 L-47.915752721940805,8.30105616004228 L-47.94518245405037,8.192513858904254 L-47.97152040061104,8.083896215508325 L-47.994764535250454,7.975211586610434 L-48.01491306962599,7.866468334120214 L-48.031964453562395,7.757674824457631 L-48.045917375171015,7.648839427909305 L-48.05677076095073,7.539970517984533 L-48.06452377587058,7.431076470771045 L-48.069175823433966,7.322165664290557 L-48.0707265457246,7.213246477854252 " />
			<path d="M-48.0707265457246,7.213246477854197 L-48.06866413009989,7.087636513946958 L-48.06247709426131,6.962039403012683 L-48.05216607129407,6.836467996709164 L-48.037732116268074,6.710935144063974 L-48.01917670613015,6.585453690159713 L-47.99650173955281,6.460036474819634 L-47.96970953673997,6.334696331293801 L-47.93880283918958,6.209446084945952 L-47.9037848094131,6.084298551941142 L-47.86465903061183,5.959266537934338 L-47.82142950631038,5.83436283676009 L-47.77410065994687,5.709600229123396 L-47.72267733442044,5.584991481291944 L-47.667164791595596,5.460549343789801 L-47.607568711763875,5.3362865500927095 L-47.543895193062525,5.212215815325155 L-47.47615075085059,5.088349834959297 L-47.404342317042236,4.964701283515909 L-47.32847723939736,4.841282813267465 L-47.2485632807698,4.7181070529434965 L-47.164608618313025,4.595186606438384 L-47.07662184264336,4.472534051521655 L-46.98461195696099,4.3501619385509604 L-46.888588376128666,4.228082789187885 L-46.788560925708396,4.106309095116668 L-46.684539840956035,3.9848533167659967 L-46.5765357657739,3.8637278820339995 L-46.464559751621735,3.7429451850165667 L-46.34862325638585,3.6225175847391426 L-46.22873814320663,3.502457403892086 L-46.10491667926473,3.3827769275697466 L-45.97717153452581,3.2634884020134165 L-45.845515780444074,3.144604033358231 L-45.70996288862477,3.0261359863841886 L-45.570526729445675,2.9080963832713866 L-45.42722157063787,2.790497302359632 L-45.28006207582574,2.673350776912539 L-45.1290633030266,2.5566687938862227 L-44.9742407031098,2.4404632927027325 L-44.815610118215815,2.3247461640283724 L-44.65318778013514,2.2095292485569846 L-44.48699030864741,2.0948243357983616 L-44.317034709820774,1.9806431628718935 L-44.14333837427179,1.86699741330556 L-43.96591907538591,1.7538987158404415 L-43.78479496749884,1.6413586432408005 L-43.59998458403889,1.5293887111099007 L-43.41150683563056,1.4180003767116833 L-43.21938100815956,1.3072050377984148 L-43.0236267607993,1.1970140314444109 L-42.824264123999384,1.0874386328859789 L-42.62131349743592,0.9784900543676818 L-42.414795647924166,0.8701794439950579 L-42.20473170729362,0.7625178845939011 L-41.99114317022561,0.655516392576196 L-41.774051892053976,0.5491859168128839 L-41.553480086528666,0.4435373375135274 L-41.32945032354273,0.3385814651129895 L-41.10198552682289,0.23432903916527525 L-40.87110897158392,0.13079072724460516 L-40.636844282146896,0.027977123853848873 L-40.39921542952199,-0.07410125065952933 L-39.91396283744224,-0.27601060889259355 " />
			<path d="M-39.91396283744213,-9.78973067100687 L1.9296112218510268,-23.036049643850575 " />
			<path d="M-39.91396283744213,-0.2760106088926406 L1.9296112218510268,-13.522329581736345 " />
			<path d="M-48.0707265457246,7.213246477854199 L-48.0707265457246,-2.3004735842600326 " />

        </g>
        </g>
    </svg>
    