<?xml version="1.0" encoding="UTF-8" standalone="no"?>
    <svg
    xmlns:svg="http://www.w3.org/2000/svg"
    xmlns="http://www.w3.org/2000/svg"
    width="340"
    height="180"
    >
        <g transform="scale(4, -4)   translate(41.65004707126816,-22.110766765483884)" stroke-width="0.25"  fill="none">
        <!-- hidden lines -->
        <g  stroke="rgb(160,160,160)" fill="none" stroke-dasharray="0.25,0.25" >
    			<path d="M-39.15004707126816,-11.105900280874199 L21.551695588711922,10.511921059910279 " />
			<path d="M21.551695588711922,10.511921059910273 L21.551695588711922,19.61076676548388 " />
			<path d="M41.092392680924206,1.0683649432934672 L21.55169558871193,10.511921059910271 " />
			<path d="M-0.6400553978121,-13.793887228495858 L-0.8538287800536448,-13.68822828316618 L-1.0619042877314335,-13.580629474031797 L-1.2641796739853781,-13.471143674400604 L-1.4605555420947933,-13.359824684834532 L-1.6509353943212588,-13.246727206712318 L-1.8352256793269355,-13.131906815349632 L-2.0133358381450464,-13.015419932689749 L-2.1851783486799228,-12.897323799578196 L-2.3506687687147547,-12.77767644763501 L-2.5097257774059116,-12.656536670738383 L-2.662271215243438,-12.533963996133778 L-2.80823012245809,-12.41001865518264 L-2.947530775856057,-12.284761553765133 L-3.0801047240632347,-12.1582542423514 L-3.2058868211617515,-12.03055888575611 L-3.324815258702225,-11.901738232591073 L-3.4368315960760043,-11.771855584431034 L-3.541880789232481,-11.6409747647077 L-3.6399112177273523,-11.509160087347357 L-3.7308747100885444,-11.37647632516745 L-3.8147265674873445,-11.242988678047677 L-3.8914255857030984,-11.108762740891208 L-3.960934075370668,-10.973864471391815 L-4.023217880500738,-10.838360157622716 L-4.078246395263809,-10.70231638546308 L-4.125992579029724,-10.565800005878176 L-4.166432969655212,-10.42887810206929 L-4.19954769501304,-10.291617956509489 L-4.225320482757041,-10.154087017881496 L-4.243738668318221,-10.016352867933861 L-4.254793201128047,-9.87848318827177 L-4.258478649065834,-9.740545727098826 " />
			<path d="M-4.258478649065834,-9.74054572709877 L-4.254793201128047,-9.60260826592577 L-4.2437386683182226,-9.46473858626368 L-4.225320482757041,-9.327004436316045 L-4.19954769501304,-9.189473497688052 L-4.166432969655212,-9.052213352128252 L-4.125992579029724,-8.915291448319365 L-4.078246395263811,-8.778775068734461 L-4.023217880500738,-8.642731296574825 L-3.9609340753706697,-8.507226982805726 L-3.8914255857030984,-8.372328713306333 L-3.8147265674873463,-8.238102776149864 L-3.730874710088546,-8.10461512903009 L-3.6399112177273523,-7.971931366850184 L-3.541880789232483,-7.840116689489841 L-3.436831596076006,-7.709235869766507 L-3.324815258702225,-7.579353221606468 L-3.2058868211617533,-7.450532568441432 L-3.0801047240632364,-7.32283721184614 L-2.947530775856059,-7.196329900432408 L-2.8082301224580917,-7.0710727990149 L-2.6622712152434396,-6.947127458063763 L-2.5097257774059134,-6.824554783459158 L-2.3506687687147565,-6.7034150065625315 L-2.1851783486799246,-6.583767654619344 L-2.013335838145048,-6.465671521507792 L-1.8352256793269373,-6.349184638847909 L-1.6509353943212606,-6.234364247485222 L-1.460555542094795,-6.121266769363008 L-1.26417967398538,-6.009947779796937 L-1.061904287731437,-5.900461980165743 L-0.8538287800536448,-5.79286317103136 L-0.6400553978121124,-5.687204225701686 " />
			<path d="M-4.258478649065836,-0.6417000215251623 L-4.258478649065836,-9.740545727098768 " />

        </g>

        <!-- solid lines -->
        <g  stroke="rgb(0,0,0)" fill="none">
    			<path d="M-19.609349979055875,-11.450610691917397 L-39.150047071268155,-2.007054575300593 " />
			<path d="M-39.15004707126816,-11.105900280874199 L-39.15004707126816,-2.007054575300593 " />
			<path d="M-19.609349979055875,-20.549456397491006 L-39.150047071268155,-11.105900280874202 " />
			<path d="M-19.609349979055878,-20.549456397491006 L-19.609349979055878,-11.450610691917404 " />
			<path d="M-39.15004707126816,-2.007054575300593 L21.551695588711922,19.610766765483884 " />
			<path d="M41.092392680924206,10.167210648867073 L21.55169558871193,19.610766765483877 " />
			<path d="M41.092392680924206,10.167210648867083 L22.123098099680433,3.411641479871932 " />
			<path d="M-0.6400553978121,-4.695041522922253 L-0.8538287800536448,-4.589382577592574 L-1.0619042877314335,-4.48178376845819 L-1.2641796739853781,-4.372297968826998 L-1.4605555420947933,-4.260978979260926 L-1.6509353943212588,-4.147881501138713 L-1.8352256793269355,-4.0330611097760265 L-2.0133358381450464,-3.9165742271161417 L-2.1851783486799228,-3.7984780940045897 L-2.3506687687147547,-3.678830742061402 L-2.5097257774059116,-3.557690965164776 L-2.662271215243438,-3.435118290560171 L-2.80823012245809,-3.311172949609034 L-2.947530775856057,-3.185915848191526 L-3.0801047240632347,-3.0594085367777946 L-3.2058868211617515,-2.9317131801825025 L-3.324815258702225,-2.8028925270174665 L-3.4368315960760043,-2.6730098788574272 L-3.541880789232481,-2.542129059134093 L-3.6399112177273523,-2.41031438177375 L-3.7308747100885444,-2.2776306195938445 L-3.8147265674873445,-2.1441429724740706 L-3.8914255857030984,-2.009917035317601 L-3.960934075370668,-1.8750187658182083 L-4.023217880500738,-1.7395144520491101 L-4.078246395263809,-1.6034706798894724 L-4.125992579029724,-1.466954300304569 L-4.166432969655212,-1.3300323964956822 L-4.19954769501304,-1.1927722509358822 L-4.225320482757041,-1.0552413123078888 L-4.243738668318221,-0.9175071623602544 L-4.254793201128047,-0.7796374826981645 L-4.258478649065834,-0.64170002152522 " />
			<path d="M-4.258478649065834,-0.6417000215251631 L-4.255770736812984,-0.5234608282187115 L-4.247647977759604,-0.4052643257603028 L-4.234113304668195,-0.2871531895842371 L-4.215171604299707,-0.16917006430289427 L-4.190829715649139,-0.051357548309684975 L-4.161096427476297,0.06624182160131131 L-4.125982475132561,0.18358558559346672 L-4.08550053668484,0.3006313761179398 L-4.039665228338084,0.41733693321068976 L-3.98849309915804,0.5336601197506463 L-3.9320026250961195,0.6495589366735268 L-3.870214202318577,0.7649915381358061 L-3.8031501398423586,0.8799162466233672 L-3.7308346514803343,0.9942915679993745 L-3.653293847098773,1.108076206485937 L-3.5705557231902407,1.221229079574156 L-3.482650152765343,1.333709332857168 L-3.3896088745669104,1.445476354780829 L-3.2914654816105795,1.5564897913067228 L-3.1882554090558557,1.6667095604821824 L-3.0800159214120892,1.77609586691208 L-2.9667860990839188,1.8846092161271524 L-2.848606824261118,1.9922104288436744 L-2.7255207661578638,2.098860655109335 L-2.5975723656068066,2.204521388330204 L-2.464807819013492,2.30915447917373 L-2.3272750616769127,2.4127221493427466 L-2.185023750482241,2.5151870052155143 L-2.0381052459719484,2.6165120513468723 L-1.8865725938018443,2.7166607038256276 L-1.7304805055886607,2.8155968034833614 L-1.5698853391561638,2.9132846289498717 L-1.4048450781868755,3.0096889095505532 L-1.2354193112867886,3.1047748380410503 L-1.0616692104705834,3.198508083174585 L-0.883657509075185,3.2908548020974258 L-0.7014484791095725,3.381781652568015 L-0.5151079080490604,3.4712558049953506 L-0.3247030750823878,3.5592449542922777 L-0.13030272682025235,3.645717331539397 L0.06802294752601767,3.7306417154553904 L0.27020234148660194,3.813987443669621 L0.4761624571870744,3.8957244237929354 L0.685828931704652,3.9758231442826695 L0.8991260639172864,4.054254685097936 L1.1159768418359342,4.130990728141349 L1.336302970410122,4.206003567483418 L1.5600248997967547,4.279266119365905 L1.7870618540819923,4.3507519319805565 L2.017331860445788,4.420435195019652 L2.250751778758577,4.488290748994952 L2.4872373315994505,4.554294094321653 L2.726703134684918,4.618421400164082 L2.969062727697338,4.680649513039941 L3.2142286055018436,4.740955965179988 L3.4621122497404997,4.7993189826401315 L3.7126241607923065,4.855717493163025 L3.9656738900874773,4.9101311337863125 L4.221170072764334,4.96254025819477 L4.479020460657062,5.012925943813711 L4.739131955602362,5.061269998641077 L5.001410643052993,5.107554967815742 L5.2657618259861,5.151764139919688 L5.532090059094047,5.193881553011739 L5.800299183245401,5.233892000390697 L6.070292360203677,5.271781036085803 L6.341972107591268,5.307534980072521 L6.615240334085938,5.341140923211786 L6.889998374837167,5.372586731910903 L7.16614702708961,5.401861052504449 L7.443586586000732,5.428953315353567 L7.722216880639726,5.453853738662186 L8.001937310154746,5.47655333200879 L8.282646880095335,5.497043899592451 L8.56424423887696,5.515318043191965 L8.84662771437453,5.531369164837018 L9.129695350631609,5.545191469190411 L9.413344944672108,5.556779965640503 L9.697474083401204,5.566130470103089 L9.981980180582076,5.5732396065320895 L10.26676051387518,5.578104808138485 L10.55171226192666,5.58072431831707 L10.836732541492518,5.581097191280683 L11.12171844458511,5.579223292401688 L11.406567075628578,5.575103298260583 L11.691175588609832,5.568738696401718 L11.9754412242116,5.560131784796207 L12.25926134691418,5.549285671012235 L12.542533482052526,5.536204271093058 L12.825155352815225,5.520892308143092 L13.107024917172033,5.5033553106226165 L13.388040404716683,5.483599610351693 L13.668100353411587,5.46163234022403 L13.947103646221189,5.437461431631622 L14.224949547620799,5.411095611601072 L14.501537739967649,5.382544399642665 L14.776768359721062,5.351818104313291 L15.050542033498688,5.3189278194945 L15.32275991395577,5.2838854203869925 L15.593323715474448,5.246703559223023 L15.862135749650278,5.207395660698249 L16.12909896056312,5.165975917124677 L16.39411695981966,5.122459283306458 L16.657094061354904,5.076861471140382 L16.917935315980124,5.029198943943018 L17.176546545664728,4.979488910506551 L17.432834377539702,4.927749318885467 L17.686706277610362,4.873998849916313 L17.938070584166187,4.81825691047289 L18.18683654087576,4.7605436264593095 L18.432914329554773,4.700879835543427 L18.676215102595343,4.639287079633308 L18.91665101504488,4.575787597099408 L19.154135256322952,4.510404314745297 L19.38858208156463,4.443160839529832 L19.619906842579162,4.374081450043743 L19.848026018412583,4.303191087743724 L20.07285724550337,4.2305153479471995 L20.29431934742024,4.156080470591006 L20.5123323641713,4.079913330757333 L20.72681758107395,4.002041428970345 L20.937697557175273,3.922492881266975 L21.144896153212454,3.8412964090454924 L21.34833855910322,3.7584813286955026 L21.547951320956418,3.6740775410131086 L21.743662367592904,3.5881155204050907 L21.93540103656718,3.5006263038859675 L22.123098099680387,3.411641479871947 " />
			<path d="M-0.6400553978120982,-4.695041522922246 L-19.609349979055875,-11.450610691917396 " />
			<path d="M41.092392680924206,1.0683649432934743 L22.123098099680433,-5.687204225701677 " />
			<path d="M-0.6400553978121017,-5.687204225701681 L-0.37295018636731214,-5.561580026751582 L-0.09779122776915372,-5.438983981951704 L0.18522209282293645,-5.319504926614057 L0.47588469883672246,-5.203229437423691 L0.7739859708893668,-5.090241769703675 L1.0793098994060362,-4.980623796362151 L1.3916352411443658,-4.874454948565759 L1.710735679511295,-4.771812158182364 L2.036379988556183,-4.672769802034839 L2.3683322005212943,-4.577399648006275 L2.706351776828333,-4.4857708030356696 L3.0501937823770247,-4.39794966304179 L3.399609063029531,-4.3139998648114934 L3.754344426152043,-4.233982239887355 L4.114142824082753,-4.157954770488033 L4.478743540393227,-4.085972547493304 L4.847882378808252,-4.018087730524218 L5.221291854647236,-3.9543495101472885 L5.5987013886484505,-3.8948040722301203 L5.979837503035657,-3.839494564474294 L6.364424019685046,-3.788461065149762 L6.752182260248903,-3.7417405540534068 L7.142831248090994,-3.699366885712812 L7.536087911887302,-3.661370764854662 L7.931667290744635,-3.6277797241555367 L8.329282740688452,-3.598618104291239 L8.728646142370259,-3.573907036299099 L9.129468109844122,-3.553664426266046 L9.53145820026094,-3.537904942353528 L9.934325124328584,-3.5266400041686996 L10.337776957385422,-3.5198777744895713 L10.741521350934164,-3.5176231533501063 L11.145265744482908,-3.5198777744895713 L11.548717577539746,-3.5266400041686996 L11.95158450160739,-3.537904942353528 L12.353574592024207,-3.553664426266046 L12.75439655949807,-3.573907036299099 L13.15375996117988,-3.598618104291239 L13.551375411123695,-3.6277797241555367 L13.946954789981028,-3.661370764854662 L14.340211453777336,-3.699366885712812 L14.730860441619427,-3.741740554053406 L15.118618682183284,-3.788461065149761 L15.503205198832672,-3.839494564474294 L15.88434131321988,-3.8948040722301203 L16.261750847221094,-3.9543495101472885 L16.635160323060077,-4.018087730524218 L17.004299161475103,-4.085972547493304 L17.368899877785573,-4.157954770488032 L17.728698275716287,-4.233982239887355 L18.083433638838805,-4.313999864811494 L18.43284891949131,-4.39794966304179 L18.776690925039997,-4.485770803035669 L19.114710501347034,-4.577399648006274 L19.446662713312143,-4.672769802034837 L19.772307022357033,-4.771812158182363 L20.091407460723968,-4.874454948565759 L20.403732802462294,-4.980623796362151 L20.709056730978965,-5.090241769703674 L21.007158003031606,-5.2032294374236905 L21.297820609045388,-5.319504926614054 L21.580833929637485,-5.438983981951703 L21.855992888235644,-5.5615800267515825 L22.123098099680387,-5.6872042257016595 " />
			<path d="M-0.6400553978120982,-13.793887228495855 L-19.609349979055875,-20.549456397491006 " />
			<path d="M-0.6400553978121017,-4.695041522922251 L-0.6400553978121017,-13.793887228495857 " />
			<path d="M41.092392680924206,1.0683649432934672 L41.092392680924206,10.16721064886707 " />
			<path d="M22.123098099680433,-5.68720422570168 L22.123098099680433,3.4116414798719257 " />

        </g>
        </g>
    </svg>
    