<?xml version="1.0" encoding="UTF-8" standalone="no"?>
    <svg
    xmlns:svg="http://www.w3.org/2000/svg"
    xmlns="http://www.w3.org/2000/svg"
    width="340"
    height="340"
    >
        <g transform="scale(4, -4)   translate(42.49999928273939,-42.799776501583004)" stroke-width="0.25"  fill="none">
        <!-- hidden lines -->
        <g  stroke="rgb(160,160,160)" fill="none" stroke-dasharray="0.25,0.25" >
    			<path d="M28.284272108174655,12.895010682248119 L28.196711059066175,12.935250976693363 L28.108934661112066,12.978083478415904 L28.020998436367357,13.023480876597798 L27.93295784846929,13.071414182202641 L27.844868299419485,13.121852734396152 L27.75678512636615,13.17476420696673 L27.668763598386256,13.230114614746038 L27.580858913267726,13.287868320029569 L27.493126194291634,13.347988038997217 L27.405620487014374,13.410434848133855 L27.23150867307741,13.542146765206532 L27.05895629029676,13.68266434039755 L26.888391718662856,13.83162439437793 L26.7202352798357,13.988643514941096 L26.55489900151002,14.153318634151601 L26.392786309633298,14.325227754279146 L26.234288606946173,14.503933874304167 L26.079786739036997,14.688983926910835 L25.92964865389272,14.879912051625045 L25.78422881877057,15.076240791220576 L25.643868378139985,15.277481482257274 L25.508893535916766,15.483137186738045 L25.379615096728347,15.692703846946426 L25.25632869625493,15.905670890297738 L25.139313638286144,16.121523646988226 L25.02883315030848,16.339743597489118 L24.925134291947387,16.559809324315438 L24.828446654740578,16.781199745680684 L24.738983470130414,17.003392665785988 L24.656940773683463,17.225867379481095 L24.582497506455177,17.44810505383048 L24.51581571519557,17.669588954205164 L24.457039996172742,17.88980693719521 L24.406297792996046,18.10825067245886 L24.363699401729225,18.324417232778085 L24.329337827520472,18.537809820304304 L24.30328878460242,18.747937766558373 " />
			<path d="M24.30328878460242,18.74793776655839 L24.2914693036882,18.874761957906692 L24.282797665073343,19.000074275039044 L24.277281825059777,19.123765108519347 L24.274927152554994,19.245726565559753 L24.27573647223551,19.365852443178294 L24.279710098837775,19.484038208280985 L24.286845862576428,19.600180984668334 L24.29713912568998,19.714179546966324 L24.310582790113898,19.8259343214818 L24.327167296281047,19.93534739398234 L24.34688061304958,20.042322524400532 L24.369708218758174,20.1467651684627 L24.395633073408696,20.248582506242084 L24.424635581976254,20.347683477636455 L24.456693548846648,20.443978824770156 L24.491782123381203,20.5373811413206 L24.529873736609016,20.627804928769223 L24.57093802904659,20.715166659576823 L24.614942253880194,20.799385734632594 L24.66185212313446,20.880385811133 L24.711629925272625,20.95809117814164 L24.76423537042781,21.03242865596723 L24.819625631809032,21.10332777925342 L24.87775531604499,21.170720840418397 L24.93857643352781,21.234542933094513 L25.002038368756832,21.294731995567872 L25.068087850682364,21.351228854217965 L25.13666928807666,21.40397758317408 L25.207724518995143,21.452925450151174 L25.281192590100733,21.49802275869865 L25.357010198700895,21.539223252920674 L25.435111669282982,21.57648416791616 " />
			<path d="M25.43511166928299,21.576484167916163 L25.53728155437484,21.617990478287947 L25.64286689289617,21.653033207557936 L25.751717386102595,21.6815502804036 L25.863681960175406,21.70349026428199 L25.978598139727946,21.71880999579116 L26.096295900451803,21.727476720393323 L26.216601290988336,21.72946882981559 L26.339336526024862,21.724775630919932 L26.464320057032616,21.713397193552517 L26.591366620646475,21.695344277372403 L26.720287264686437,21.670638337659625 L26.850889351820893,21.639311610102613 L26.982976540871643,21.601407274564977 L27.116348745760693,21.556979697831657 L27.250802072098807,21.50609475533446 L27.386128731415834,21.448830231856917 " />
			<path d="M27.386128731415848,21.44883023185691 L27.527421980197666,21.382676075940527 L27.66921373491272,21.309835228120345 L27.811267245541494,21.23043031926755 L27.953347514523173,21.144595016258553 L28.09522129526849,21.052473592140174 L28.236657100300132,20.954220578765387 L28.377425219020783,20.850000501899533 L28.51729774510875,20.739987698797137 L28.656048613541202,20.62436621824918 L28.793453647245013,20.503329803100943 L28.929290613375194,20.37708195524038 L29.063339289220956,20.245836083056993 L29.195382042575414,20.10981519581309 L29.325214266862933,19.96924061462909 L29.45263388429225,19.824341813300013 L29.577441402235085,19.675356641015824 L29.699442915409573,19.52252807772874 L29.81845005856496,19.36610409867793 L29.934279959166243,19.206337538914234 L30.046755850741388,19.043485037130264 L30.155707762674787,18.87780594915907 L30.260971533247357,18.709563429930615 L30.362389828268338,18.539022718540963 L30.45981208779197,18.366451015743724 L30.55309444597928,18.19211739988355 L30.642099672942567,18.016292699405177 L30.72669788199985,17.8392479427528 L30.80676629731163,17.661254625241003 L30.88218910312545,17.482584577118782 L30.95285762567925,17.30350955012238 L31.018670404661115,17.12430085208237 L31.079533221024445,16.945228922776355 L31.13535908782422,16.766563191858108 L31.186068347052824,16.58857153179767 L31.231588545420543,16.411520779740922 L31.27185454878015,16.235675781741534 L31.30680859199137,16.061299068928825 L31.336400278920863,15.888650857507772 L31.360586582442238,15.717989048758993 L31.379331917394346,15.549568480620895 L31.392608146115965,15.383640113327791 L31.40039441491143,15.220453616075364 L31.40267749803289,15.060254585101529 L31.399451749250645,14.90328438102678 L31.390719077409706,14.749780123541596 L31.376488969079066,14.599974655543056 L31.356778558293524,14.454096476720665 L31.331612743388206,14.312369646591412 L31.30102432269444,14.175013529683605 L31.265053642382316,14.042240797719105 L31.22374885621713,13.914258768162972 L31.177166064297026,13.791268897114012 L31.1253692458747,13.673466338750028 L31.06843008478032,13.5610393082085 L31.006428509998187,13.45416946253787 L30.939452388833526,13.353031127227506 L30.867597359010148,13.257790616087387 L30.790966932452474,13.16860606188954 L30.709672599067584,13.085627247009468 L30.623833812113233,13.008995326560154 L30.53357722404477,12.938841754615794 L30.439037837103367,12.87528894048072 L30.340358034824227,12.818449273401216 L30.23768739293649,12.768424707987482 " />
			<path d="M30.237687392936483,12.768424707987476 L30.135246239608744,12.726798721307407 L30.029399634847604,12.691642644907887 L29.920297776445363,12.663018401481002 L29.80809397940607,12.640978027499429 L29.69295479869552,12.625565331088177 L29.57505128766626,12.616812929226102 L29.454558344335105,12.614742376151678 L29.3316546134751,12.619364375422395 L29.206522411687345,12.630678914337187 L29.07934767545271,12.648675320721976 L28.950319932163413,12.673332242078278 L28.819632294134504,12.704617547094884 L28.687481475595206,12.742488149522636 L28.55406783266013,12.786889754412263 L28.41959542628041,12.837756526715305 L28.28427210817468,12.895010682248108 " />
			<path d="M-5.360085947264892,22.287375485915092 L-5.357329039217372,22.413019283045255 L-5.358905957733368,22.538043726739676 L-5.364816740044012,22.662335569330516 L-5.3750575061911565,22.785782998929072 L-5.389620584860254,22.90827559759537 L-5.408494620331224,23.029704307492658 L-5.431664662272504,23.149961404272304 L-5.459112239912141,23.268940477035446 L-5.490815421928378,23.38653641431846 L-5.526748863210868,23.50264539565028 L-5.566883839452245,23.61716488833028 L-5.6111882703384515,23.729993649176347 L-5.659626731914824,23.841031731093523 L-5.712160458513608,23.950180494414454 L-5.76874733443718,24.05734262306371 L-5.829341875399909,24.162422145698805 " />
			<path d="M-5.829341875399911,24.162422145698812 L-5.881525259250131,24.246251692596925 L-5.936297410473202,24.328591988260918 L-5.993628869924643,24.40939350517709 L-6.053488638010716,24.488607357074454 L-6.115844149793226,24.566185316086273 L-6.180661246178565,24.6420798320961 L-6.247904140906637,24.71624405445445 L-6.317535383018721,24.788631856271373 L-6.389515814446841,24.859197861509546 L-6.463804522330677,24.927897475121632 L-6.540358785631513,24.994686916495013 L-6.619134015576212,25.059523256486134 L-6.700083689427673,25.122364458346055 L-6.783164976914221,25.183173475637638 L-6.8683431219892395,25.2419201261899 L-6.955567220420816,25.298564047034528 L-7.044784293261444,25.353066048206493 L-7.135940230452992,25.405388736298505 L-7.228979825943909,25.455496463488974 L-7.323846808963362,25.503355283404925 L-7.420483871742137,25.548932913306782 L-7.518832693946397,25.592198702134528 L-7.618833964066604,25.63312360400765 L-7.720427397980209,25.671680156823996 L-7.8235517548828915,25.707842465655403 L-7.928144850759436,25.741586190690853 L-8.034143569541532,25.772888539530477 L-8.14148387207607,25.801728263686737 L-8.250100803003688,25.828085659201662 L-8.359928495623656,25.851942571341976 L-8.470900174797343,25.87328240338657 L-8.582948157918818,25.892090129573628 L-8.696003853957322,25.908352312327498 L-8.809997760552692,25.922057123938075 L-8.924859459120915,25.933194372918333 L-9.040517607903391,25.941755535318382 L-9.156899932869594,25.947733791327156 L-9.27393321635918,25.951124067545656 L-9.391543283325733,25.95192308536843 L-9.509654985020658,25.95012941596273 L-9.628192179931945,25.94574354238755 L-9.747077711768767,25.938767929447554 L-9.866233384259134,25.929207101929638 L-9.985579932504061,25.917067731922643 L-10.105043851095733,25.902357818574945 L-10.224570968726843,25.885083960752002 L-10.344083740663478,25.865256825289492 L-10.463502855241213,25.842889361555073 L-10.58274990859977,25.81799640925286 L-10.701747382912766,25.790594618812943 L-10.820418627393964,25.7607023799785 L-10.938687841876208,25.728339757955116 L-11.056480062779306,25.693528436534226 L-11.173721151303166,25.656291667649985 L-11.290337783702466,25.61665422687611 L-11.406257443519252,25.574642374416637 L-11.521408415669836,25.530283821191766 L-11.635719782302429,25.48360769966744 L-11.749121420361964,25.434644539124424 L-11.861544000818617,25.383426245110158 L-11.972918989536549,25.3299860828639 L-12.083178649779443,25.27435866455295 L-12.192256046369447,25.216579940205175 L-12.300085051536136,25.156687192270304 L-12.40660035251221,25.094719033789808 L-12.511737460952592,25.03071541020249 L-12.61543272427369,24.964717604860255 L-12.71762333902964,24.896768248375828 L-12.818247366462264,24.82691133197154 L-12.917243750381676,24.75519222504559 L-13.014552337554365,24.681657697219535 L-13.110113900795715,24.60635594517809 L-13.203870164983899,24.52933662465962 L-13.295763836232128,24.450650888003043 L-13.385738634476319,24.37035142770418 L-13.473741027926339,24.28849091346451 L-13.559734194322306,24.205107925960153 L-13.64367088346922,24.120251755507958 L-13.725501423361212,24.03397610045105 L-13.805177988116206,23.946335089913983 L-13.882654537949602,23.857383259968973 L-13.957886765411562,23.767175532015468 L-14.030832047411806,23.675767193197288 L-14.101449402592307,23.583213878692305 L-14.169699453644878,23.48957155572036 L-14.235544394207146,23.39489650912602 L-14.298947960007018,23.299245328403494 L-14.359875403962203,23.202674896041778 L-14.418293474977999,23.105242377079037 L-14.474170400223041,23.007005209765808 L-14.527475870699257,22.90802109724759 L-14.578181029958873,22.808348000188083 L-14.626258465857795,22.708044130265083 L-14.671682205271303,22.60716794448199 L-14.714427711734482,22.50577814024843 L-14.754471886006431,22.40393365119457 L-14.79179306959377,22.30169364369422 L-14.826371051305564,22.1991175140828 L-14.858187076948328,22.096264886566928 L-14.887223862306262,21.99319561183325 L-14.913465609588537,21.889969766374843 L-14.936898027561854,21.786647652564366 L-14.957508355623192,21.68328979951393 L-14.975285392104066,21.579956964772382 L-14.990219527134306,21.476710136921568 L-15.002302780429803,21.373610539143872 L-15.011528844405266,21.270719633844116 L-15.017893667086698,21.168088039285802 L-15.021393765338262,21.065765301623838 L-15.022026181433784,20.963812952282883 L-15.019789728268385,20.862291944295123 L-15.014684940056036,20.761262658089972 L-15.006714028234299,20.660784914344347 L-14.995880842835628,20.560917984693877 L-14.982190838910636,20.46172060046939 L-14.965651047626476,20.36325095960473 L-14.9462700517011,20.265566731843876 L-14.924057964871677,20.168725062357144 L-14.899026415133243,20.07278257385811 L-14.87118853152114,19.977795367294753 L-14.840558934248506,19.883819021170115 L-14.80715372804767,19.790908589529607 L-14.770990498601943,19.699118598634005 L-14.732088311991928,19.60850304231897 L-14.690467717118084,19.519115376023755 L-14.646150751098906,19.431008509453637 L-14.599160947681716,19.344234797822388 L-14.549523348740705,19.25884603160313 " />
			<path d="M-14.549523348740689,19.258846031603106 L-14.505478800304063,19.187721478120775 L-14.459574848830478,19.117655651361023 L-14.411829241739714,19.048678929662657 L-14.36226053572749,18.980821375172756 L-14.310888108804715,18.914112725795167 L-14.257732173869519,18.8485823863259 L-14.202813793910664,18.784259418716715 L-14.146154898950833,18.721172531403536 L-14.08777830484812,18.65935006763138 L-14.027707734083979,18.598819992702843 L-13.965967838675715,18.53960988007238 L-13.902584225361544,18.481746896203862 L-13.837583483216045,18.425257784104094 L-13.770993213863807,18.37016884544027 L-13.702840943669372,18.3165050597309 L-13.633144252162335,18.264283023444555 L-13.561930289578031,18.2135264228954 L-13.489230127839718,18.164260626047614 L-13.415075449166824,18.11651005327013 L-13.339498528106311,18.070298202675847 L-13.262532215150905,18.0256476727395 L-13.184209921842294,17.982580182372878 L-13.104565607263831,17.941116588622375 L-13.02363376583352,17.901276902140346 L-12.941449416314454,17.863080300568132 L-12.858048091966204,17.82654513995502 L-12.687739172642715,17.758528513480215 L-12.513001255030824,17.697357759508794 L-12.334136356380974,17.64315090569643 L-12.15145411426827,17.596013342665177 L-11.965271687237985,17.556037801078695 L-11.775913702955554,17.523304234811974 L-11.583712252584156,17.49787960785956 L-11.389006931735077,17.47981757914789 L-11.192144929958268,17.469158075938484 L-10.993481172362594,17.46592674303025 L-10.793378518577363,17.470134251490467 L-10.592208025888995,17.481775447165386 L-10.390349285008671,17.50082831574272 L-10.18815047165583,17.5272587346935 L-9.985932820233735,17.561025492498004 L-9.784078746853048,17.602065734131777 L-9.582964495698981,17.65030114565578 L-9.382959203720393,17.705639109863302 L-9.184425115321282,17.76797355057269 L-8.98771774378295,17.83718562424338 L-8.793185985091323,17.91314427816527 L-8.601172188490501,17.995706691340988 L-8.412012186730081,18.084718611049613 L-8.22603528762028,18.180014594949878 L-8.043564227155532,18.281418165449992 L-7.864915083113583,18.388741879940515 L-7.690397146683672,18.501787317356012 L-7.520312748324011,18.620344978400382 L-7.354957032695103,18.744194093640097 L-7.194617676162097,18.873102330538774 L-7.039574539005833,19.00682538737579 L-6.89009922969197,19.145106471738718 L-6.746418127545341,19.287713121238053 L-6.608745870120733,19.434412540987285 L-6.4773142225461475,19.584938967050338 L-6.352339988622253,19.739023512983863 L-6.234025767439615,19.896394467838658 L-6.122560576527268,20.05677754968042 L-6.018120358117893,20.219896120580295 L-5.920868382634572,20.385471368349894 L-5.830955561023809,20.553222459619192 L-5.7485206750792415,20.722866668179922 L-5.673690532420093,20.894119481841074 L-5.606580050308242,21.06669469036697 L-5.547292270007411,21.24030445639255 L-5.495918300907688,21.41465937053447 L-5.452537191158374,21.589468491240506 L-5.417215719071765,21.76443936924399 L-5.390008097080262,21.939278055813794 L-5.37946039048302,22.02655555639524 L-5.370955577548875,22.11368909331444 L-5.364496706926233,22.20064149380416 L-5.360085947264894,22.287375485915035 " />
			<path d="M-39.32263229062409,7.163555654950082 L-39.281180591097936,7.446690278365065 L-39.23465123532075,7.737382954453725 L-39.18322730519162,8.034476194450077 L-39.12710938801275,8.336799157588374 L-39.066514743398386,8.643168576373215 L-39.001676739777466,8.952389534705251 L-38.932844518064606,9.263256131882116 L-38.86028285569721,9.574552064783045 L-38.784272219859915,9.88505115983429 L-38.705109014341026,10.193517885641269 L-38.62310604008854,10.498707876462127 L-38.53859320515711,10.799368495986112 L-38.451915293258345,11.094250258617112 L-38.36339688694987,11.38222126091102 L-38.27340541725186,11.66205439488213 L-38.182324442431735,11.932529872500341 L-38.09053889690225,12.19248217351904 L-37.99843476236191,12.440798200168418 L-37.90639874340332,12.67641657569989 L-37.814817939141236,12.898327976222726 L-37.72407949931085,13.10557647514895 L-37.6345702501869,13.297261969437496 L-37.546676272572796,13.472543846703536 L-37.46078241100877,13.630646142133838 L-37.37726715526858,13.770871757744809 L-37.296461656150164,13.892664899343243 L-37.25718435325688,13.946481681340254 L-37.21871502258112,13.995499042242443 L-37.18109498651891,14.039665784845084 L-37.144364087127876,14.078937150116031 L-37.10856073180507,14.113274581338052 L-37.073721931576166,14.14264552520703 L-37.039883332656686,14.16702326643838 L-37.00707924183816,14.18638679294298 L-36.97534264614382,14.200720689142742 L-36.9447052270908,14.210015055504927 L-36.915197369787606,14.214265452883144 L-36.886848166987846,14.21347287076192 " />
			<path d="M-36.886848166987846,14.213472870761924 L-36.865860696195185,14.209439065611397 L-36.84558647291611,14.202433970239339 L-36.82603714730832,14.192464586023284 L-36.80722390896081,14.179539836799483 L-36.789157481651095,14.16367058926844 L-36.77184811682364,14.144869679090428 L-36.755305585702445,14.123151943027446 L-36.73953916993797,14.098534257550147 L-36.72455765067512,14.071035584390343 L-36.71036929591599,14.040677023581713 L-36.68440249731348,13.971475706223568 L-36.66168840747013,13.891121423973885 L-36.64226820486185,13.799818587146186 L-36.62618058596867,13.697812989105573 L-36.613455270146645,13.585373282259937 L-36.60411355541908,13.462789407725005 L-36.59816876476146,13.330371349980325 L-36.59562659482272,13.188448157098831 L-36.596485380200654,13.03736718862923 L-36.60073628327552,12.877493561519094 L-36.608363416492374,12.70920977277522 L-36.61934390086913,12.532915485866516 L-36.63364786139376,12.349027476183283 L-36.651238356860524,12.157979739175499 L-36.67207123858138,11.960223773101367 L-36.69609492929542,11.756229056626026 L-36.72325057671795,11.546480298409255 L-36.753481068208394,11.331415013161843 L-36.786718990626134,11.111520349202227 L-36.822887422159226,10.887315413824664 L-36.861903482190044,10.659324904124377 L-36.90367858673744,10.428078794532208 L-36.94811863774354,10.194112069119265 L-36.99512415503104,9.957964491593287 L-37.044590357723244,9.720180406454945 L-37.09640719988595,9.481308565328803 L-37.1504593631168,9.24190197303002 L-37.20662620677423,9.002517748474338 L-37.26478167450494,8.763716996085416 L-37.32479415369527,8.526064683899914 L-37.3865262824387,8.290129525117226 L-37.44983469657787,8.056483860387237 L-37.51456970734671,7.825703538675861 L-37.58058131467071,7.5983460664799845 L-37.64773320980311,7.374906675623429 L-37.715860784792554,7.155960297585493 L-37.78479539141193,6.942073139979419 L-37.85436763073877,6.733792328609435 L-37.9244074085063,6.5316465797669085 L-37.994743988350294,6.336146619104445 L-38.065206044180435,6.147785375747918 L-38.13562171321754,5.967037969678638 L-38.20581865155019,5.794361499790154 L-38.27562409437703,5.630194629396506 L-38.34486492341291,5.474956955340979 L-38.413367744249996,5.329048136226673 L-38.48095897677697,5.1928467446625515 L-38.54746496207205,5.066708797790855 L-38.612712089497904,4.950965909734015 L-38.676535692836254,4.845909176245853 L-38.73879350893308,4.751773108277025 L-38.79932260354322,4.66880484821311 L-38.85796604884378,4.597215940891303 L-38.91457490329508,4.537180833109881 L-38.9690078110669,4.488839064413452 L-38.99536611014762,4.469087668973333 L-39.021130703561155,4.452296959721362 L-39.04628593696861,4.438475244700891 L-39.07081658961413,4.427628893197892 L-39.09470787194493,4.419762355403952 L-39.11794542431212,4.414878177063585 L-39.14051531673259,4.412977009249459 L-39.16240404970518,4.4140576133477465 " />
			<path d="M-39.162404049705195,4.4140576133477465 L-39.191846856779065,4.420562949242233 L-39.219897791689945,4.432878274889927 L-39.246524237503756,4.450981514836425 L-39.271695297706025,4.474843195626289 L-39.29538183763653,4.504426309384515 L-39.317556536361316,4.539686132367478 L-39.33819395006174,4.580569993959318 L-39.35727058821171,4.627016990692656 L-39.37476500491825,4.6789576419664405 L-39.39066108041147,4.7363261107859 L-39.40494414331242,4.799054104287681 L-39.41759862446568,4.8670583527812505 L-39.42861124288679,4.940249890815695 L-39.43797089957172,5.0185343681249845 L-39.445668586624244,5.10181231824613 L-39.451697310073044,5.189979389331426 L-39.458729581201666,5.380540212287063 L-39.45904983737994,5.589291073322962 L-39.45266932073247,5.815237773420486 L-39.439627643625435,6.057320359781429 L-39.41999251447893,6.314414555666795 L-39.393859921526044,6.585332010081643 L-39.36135480462069,6.86881931955665 L-39.3226322906241,7.163555654950022 " />
			<path d="M7.172606141119812e-07,0.29977650158301106 L0.28978611065035437,0.80952489391028 L0.575927284580817,1.3691623351061033 L0.8548258477668502,1.9716510596382384 L1.1229744889556743,2.609414422223592 L1.3770010834008728,3.2744321785387305 L1.6137110992876358,3.958341344445703 L1.830127770823837,4.6525413653698875 L2.02352953279703,5.348302273263927 L2.1914842458360857,6.036874471021174 L2.331879781974944,6.709598763735936 L2.4429505858872718,7.358015253103597 L2.523299877769089,7.97396972555035 L2.5719172186552366,8.549716196200066 L2.5881912172756354,9.078014319128421 " />
			<path d="M9.659258993278069,5.92920574202191 L9.63666139163274,5.620456774543642 L9.568974319784227,5.307759731284969 L9.456514482274944,4.992577706619665 L9.299808073256969,4.676385422029573 L9.099588314455008,4.360662325953964 L8.856792024457329,4.046885671521699 L8.572555235386803,3.7365236045551242 L8.24820787746143,3.4310282941866364 L7.88526755631503,3.1318291382293904 L7.4854324521937325,2.8403260750939223 L7.05057337425256,2.557883033543889 L6.582725007129682,2.2858215509392132 L6.084076390755197,2.0254145898265525 L5.556960677938957,1.777880581808991 " />
			<path d="M5.556960677938948,1.777880581808987 L5.205824028186987,1.626761707232258 L4.844709421604337,1.481680219185319 L4.474309003456055,1.3429141941103016 L4.095332717042487,1.2107296036556963 L3.708506942957025,1.085379804890781 L3.3145731068386692,0.9671050546983043 L2.914286258287871,0.8561320492761754 L2.508413623669449,0.7526734896308145 L2.0977331355764064,0.6569276738949554 L1.6830319417732091,0.5690781172513228 L1.2651048964764267,0.48929320019065475 L0.8447530368644811,0.4177258457782599 L0.42278204773656763,0.35451322654769785 L7.172635404740855e-07,0.2997765015833575 " />
			<path d="M7.172605976214872e-07,9.253547176032303 L0.3279976388074575,9.290102006068334 L0.6556162510771237,9.321451066857263 L0.9824786811315869,9.34755820061909 L1.3082079282079353,9.36839329557455 L1.63242829854831,9.383932320675806 L1.954765838722366,9.39415735332368 L2.2748487669424557,9.399056600039469 L2.5923079018740536,9.39862441006744 L2.9067770884468365,9.392861281892381 L3.2178936201752957,9.381773862664655 L3.525298657501773,9.365374940533409 L3.828637641679411,9.34368342989683 L4.1275607037176485,9.31672434958641 L4.421723067918458,9.284528794010425 " />
			<path d="M4.421723067918535,9.284528794010416 L5.079388306646974,9.19065304195875 L5.705978748672759,9.06977327084545 L6.297661024271855,8.92262900177354 L6.850815325720745,8.750120437408581 L7.362057552641138,8.55330295469765 L7.828260015328757,8.333380648259462 L8.246570569406872,8.091698963946042 L8.614430064742164,7.829736467642475 L8.929588001873524,7.549095799661813 L9.190116300170512,7.251493870074512 L9.394421093490331,6.938751354955695 L9.541252481169554,6.6127815578102735 L9.629712174695753,6.275578704319837 L9.659258993278065,5.92920574202195 " />
			<path d="M2.588191217275636,9.078014319128442 L2.5866711734819816,9.228899356220648 L2.5821128275438863,9.374554796800403 L2.574521533692776,9.514809554042017 L2.5639062086595477,9.649498884760416 L2.550279321200993,9.778464582918424 L2.533656877453993,9.901555165455521 L2.5140584021347157,10.018626050219781 L2.4915069156048952,10.129539725794013 L2.466028906832127,10.234165913016634 L2.437654302275921,10.332381718007499 L2.4064164307361144,10.42407177651903 L2.372351984204863,10.509128389443008 L2.3355009747682427,10.587451649313898 L2.2959066876080745,10.658949557660119 " />
			<path d="M2.295906687608069,10.658949557660128 L2.253783634136784,10.723302711309952 L2.209033640043602,10.780724641746202 L2.1617088645566493,10.831148419718271 L2.1118644679907126,10.87451527280861 L2.0595585474540474,10.910774653936052 L2.004852069132172,10.939884300271954 L1.9478087972275346,10.961810282500469 L1.8884952196379028,10.976527044365506 L1.8269804704601036,10.984017432458332 L1.7633362494094256,10.984272716211063 L1.6976367382486166,10.977292598072745 L1.6299585143238864,10.963085213856166 L1.5603804613086873,10.941667123255009 L1.4889836772593334,10.913063290542386 " />
			<path d="M1.4889836772593148,10.913063290542379 L1.3948968938721154,10.8659202645173 L1.2981365249630292,10.807106009164206 L1.1988880303001332,10.736733253261212 L1.097341638620771,10.654936879665176 L0.9936919830217598,10.561873666782875 L0.8881377279078093,10.45772198807518 L0.7808811882131621,10.342681470170186 L0.6721279416262965,10.216972610240555 L0.5620864345609378,10.080836353378483 L0.45096758262860487,9.934533630778319 L0.338984366378472,9.77834485961197 L0.22635142307937742,9.612569405555732 L0.11328463532641361,9.437525008998664 L7.172606377414368e-07,9.253547176032347 " />
			<path d="M7.172585055748962e-07,9.253547176033239 L-0.24010969249619984,9.357888646504797 L-0.47994316064080217,9.456946163108398 L-0.719223064987651,9.55060547362079 L-0.9576734218255767,9.638758552070588 L-1.1950192042375074,9.721303723334636 L-1.4309866593145255,9.79814578040938 L-1.6653036239004928,9.869196094221916 L-1.8976998385030674,9.934372715854149 L-2.127907259009047,9.993600471062047 L-2.3556603658445114,10.046811046981096 L-2.580696470223177,10.09394307091786 L-2.802756017129744,10.134942181136791 L-3.0215828846887747,10.16976108956068 L-3.2369246795737925,10.198359636312356 " />
			<path d="M-3.2369246795738205,10.19835963631236 L-3.9222851449495075,10.24829948173114 L-4.558047197502921,10.229048923349344 L-5.136171446468822,10.14085138991623 L-5.649347347391734,9.984822164158967 L-6.091085646025901,9.762934279717452 L-6.455800436788518,9.47799357157654 L-6.738879798113922,9.133603195489975 L-6.936744111504703,8.734118065057944 L-7.046891326818907,8.284589782614285 L-7.067928601400919,7.7907027602878385 L-6.999589912970361,7.258702339005163 L-6.8427394235489665,6.6953158143901215 L-6.5993605518876866,6.107667368210185 L-6.272530892576253,5.503187981085329 " />
			<path d="M-6.27253089257624,5.503187981085305 L-5.999384264481529,5.078671346649303 L-5.689825381786811,4.652321716477132 L-5.345733059884775,4.2267267476919335 L-4.969195709048998,3.804469517126922 L-4.5624986591802585,3.388112843776516 L-4.1281102893824055,2.9801837341989845 L-3.6686670465519953,2.5831580452766394 L-3.186957443908818,2.199445457420353 L-2.68590513658554,1.8313748494209987 L-2.168551176996317,1.4811801637126805 L-1.6380355576824197,1.1509868478361698 L-1.097578153657458,0.8427989543937752 L-0.55045917991942,0.5584869777903092 L7.172605575786679e-07,0.29977650158302915 " />
			<path d="M7.172577259738316e-07,0.2997765015826635 L-0.32799620428887716,0.2632216715467039 L-0.6556148165582842,0.2318726107578403 L-0.9824772466124865,0.20576547699606756 L-1.3082064936885738,0.18493038204065426 L-1.6324268640286874,0.16939135693944135 L-1.9547644042024834,0.15916632429159847 L-2.2748473324223153,0.1542670775758338 L-2.5923064673536573,0.1546992675478773 L-2.9067756539261893,0.1604623957229411 L-3.2178921856544016,0.1715498149506674 L-3.5252972229806367,0.18794873708190452 L-3.8286362071580404,0.2096402477184662 L-4.127559269196052,0.23659932802885897 L-4.421721633396728,0.2687948836048216 " />
			<path d="M-4.421721633396766,0.26879488360482584 L-5.079386872125273,0.36267063565647445 L-5.705977314151125,0.48355040676976324 L-6.297659589750287,0.6306946758416656 L-6.850813891199239,0.803203240206622 L-7.362056118119691,1.000020722917555 L-7.828258580807365,1.2199430293557454 L-8.246569134885524,1.4616247136691731 L-8.61442863022086,1.72358720997275 L-8.929586567352255,2.0042278779534284 L-9.190114865649273,2.301829807540745 L-9.394419658969115,2.6145723226595816 L-9.541251046648352,2.9405421198050243 L-9.629710740174556,3.2777449732954835 L-9.659257558756867,3.624117935593379 " />
			<path d="M-9.659257558756869,3.6241179355933983 L-9.636659957111586,3.9328669030713517 L-9.56897288526321,4.245563946329703 L-9.456513047754154,4.5607459709946845 L-9.299806638736493,4.876938255584455 L-9.09958687993493,5.1926613516597495 L-8.85679058993773,5.506438006091713 L-8.572553800867762,5.816800073058001 L-8.248206442943015,6.122295383426223 L-7.885266121797308,6.421494539383226 L-7.48543101767676,6.71299760251848 L-7.050571939736388,6.995440644068331 L-6.582723572614357,7.267502126672858 L-6.0840749562407535,7.527909087785412 L-5.556959243425475,7.77544309580288 " />
			<path d="M-5.556959243425407,7.775443095802912 L-5.205822593672938,7.926561970380078 L-4.84470798708972,8.071643458427436 L-4.474307568940821,8.21040948350285 L-4.09533128252659,8.34259407395783 L-3.7085055084404224,8.467943872723094 L-3.314571672321321,8.586218622915894 L-2.914284823769744,8.697191628338318 L-2.5084121891505147,8.800650187983944 L-2.097731701056641,8.896396003720035 L-1.6830305072525926,8.984245560363869 L-1.2651034619549446,9.064030477424707 L-0.8447516023421234,9.135597831837236 L-0.42278061321333016,9.198810451067898 L7.172605118819796e-07,9.253547176032292 " />
			<path d="M7.17260614745905e-07,9.25354717603231 L-0.2897846761291255,8.74379878370504 L-0.5759258500595881,8.184161342509217 L-0.8548244132456212,7.581672617977081 L-1.122973054434445,6.943909255391728 L-1.3769996488796439,6.278891499076589 L-1.6137096647664069,5.594982333169616 L-1.830126336302608,4.900782312245431 L-2.0235280982758006,4.205021404351392 L-2.191482811314857,3.516449206594145 L-2.3318783474537153,2.8437249138793828 L-2.4429491513660437,2.1953084245117216 L-2.523298443247861,1.57935395206497 L-2.571915784134009,1.0036074814152547 L-2.588189782754407,0.4753093584869192 " />
			<path d="M-2.5881897827544083,0.4753093584868767 L-2.5866697389607283,0.3244243213934414 L-2.5821113930225588,0.17876888081254494 L-2.5745200991713206,0.038514123569882375 L-2.563904774137919,-0.09617520714947025 L-2.5502778866791385,-0.22514090530833164 L-2.5336554429318636,-0.3482314878461774 L-2.514056967612264,-0.4653023726110781 L-2.4915054810820743,-0.5762160481858438 L-2.466027472308888,-0.6808422354088824 L-2.437652867752221,-0.7790580404000536 L-2.406414996211909,-0.8707480989117728 L-2.3723505496801067,-0.9558047118358175 L-2.3354995402428935,-1.034127971706655 L-2.2959052530820854,-1.1056258800527112 " />
			<path d="M-2.295905253082085,-1.1056258800527123 L-2.253782199610811,-1.169979033701283 L-2.209032205517684,-1.227400964136372 L-2.1617074300308325,-1.2778247421073812 L-2.1118630334650375,-1.3211915951967554 L-2.059557112928557,-1.357450976323334 L-2.0048506346069064,-1.3865606226584792 L-1.9478073627025325,-1.4084866048863376 L-1.8884937851132022,-1.4232033667508237 L-1.8269790359357416,-1.4306937548432057 L-1.7633348148854373,-1.4309490385955994 L-1.6976353037250351,-1.4239689204570507 L-1.629957079800745,-1.40976153624035 L-1.560379026786015,-1.3883434456391783 L-1.4889822427371358,-1.3597396129266353 " />
			<path d="M-1.4889822427371335,-1.3597396129266344 L-1.3948954593499763,-1.3125965869014755 L-1.2981350904409374,-1.2537823315483176 L-1.1988865957780943,-1.1834095756452783 L-1.0973402040987899,-1.101613202049215 L-0.9936905484998406,-1.0085499891669036 L-0.8881362933859566,-0.9043983104592184 L-0.7808797536913794,-0.7893577925542501 L-0.6721265071045874,-0.6636489326246602 L-0.5620850000393048,-0.5275126757626482 L-0.4509661481070507,-0.3812099531625567 L-0.33898293185699824,-0.22502118199629817 L-0.2263499885579854,-0.059245727940166915 L-0.11328320080510436,0.11579866861678378 L7.172606083632181e-07,0.29977650158300173 " />
			<path d="M7.071068493263066,1.6278532617011192 L7.0669156564887405,1.7831137769805119 L7.054462024086277,1.9418905126867696 L7.033722224087608,2.1039969697258867 L7.004720617454007,2.2692427379144258 L6.967491269461711,2.437433719635264 L6.922077909688863,2.608372357824563 L6.8685338806507605,2.7818578680222377 L6.806922075143762,2.957686474213296 L6.737314862371429,3.1356516481830745 L6.659794002939693,3.315544352105203 L6.574450552820862,3.4971532840773527 L6.481384756399333,3.680265126316373 L6.380705928724559,3.864664795721281 L6.272532327109639,4.050135696509786 " />
			<path d="M6.272532327109637,4.0501356965097886 L5.999385699015791,4.474652330946978 L5.689826816321631,4.901001961120463 L5.345734494419858,5.326596929907078 L4.969197143584054,5.748854160473584 L4.562500093715013,6.165210833825538 L4.128111723916604,6.573139943404643 L3.668668481085402,6.970165632328564 L3.186958878441219,7.353878220186405 L2.685906571116746,7.721948828187268 L2.168552611526166,8.072143513897027 L1.6380369922107765,8.402336829774885 L1.0975795881842174,8.710524723218514 L0.5504606144445068,8.994836699823084 L7.172627511340617e-07,9.253547176031347 " />
			<path d="M7.172606203276077e-07,0.2997765015829997 L0.24011112701535833,0.1954350311113821 L0.47994459515999555,0.09637751450772147 L0.7192244995068816,0.0027182039952697856 L0.9576748563448466,-0.08543487445458287 L1.1950206387568183,-0.16798004571868946 L1.4309880938338795,-0.24482210279348837 L1.6653050584198916,-0.31587241660608456 L1.8977012730225127,-0.38104903823837 L2.127908693528541,-0.440276793446322 L2.3556618003640546,-0.4934873693654245 L2.58069790474277,-0.5406193933022385 L2.8027574516493887,-0.5816185035212224 L3.021584319208473,-0.6164374119451579 L3.2369261140934853,-0.6450359586968761 " />
			<path d="M3.2369261140935417,-0.6450359586968836 L3.718370480118121,-0.6870789123886157 L4.177066516267775,-0.6956956645764514 L4.610208001158375,-0.6708334994914579 L5.015145051639715,-0.612644519471174 L5.389400334312915,-0.5214847144243515 L5.730684221418862,-0.39791178394753135 L6.0369087983766985,-0.242681725417355 L6.306200637276692,-0.05674420893205073 L6.536912258181506,0.15876323260259295 L6.727632208117644,0.40252216269876484 L6.877193696095624,0.6730413072483397 L6.984681731331289,0.9686656778746446 L7.049438720997916,1.2875866968592287 L7.071068493263064,1.62785326170108 " />
			<path d="M5.55696069462084,1.7778805892375642 L30.237687393900803,12.768424705791507 " />
			<path d="M1.4889836938979688,10.913063297951702 L25.435111671600257,21.576484159350475 " />
			<path d="M-14.54952334681463,19.258846023632056 L-6.2725308919145935,5.503187979985693 " />
			<path d="M-5.829341878487595,24.162422153998243 L2.295906688281667,10.658949556540671 " />
			<path d="M-3.2369246827578384,10.198359636692274 L-36.88684816502381,14.213472869868946 " />
			<path d="M-4.421721636589198,0.2687948839857389 L-39.16240405215309,4.414057614518572 " />
			<path d="M-26.16970895820709,-12.350283736690137 L-1.488982259510546,-1.3597396203959962 " />
			<path d="M-29.50308723893623,-2.8879777735261754 L-5.556959260198119,7.775443088333859 " />
			<path d="M38.07164655337135,5.26941556045348 L4.421723071191221,9.28452879361991 " />
			<path d="M37.97760853284787,-4.7902986896104025 L3.236926117405425,-0.6450359590920621 " />
			<path d="M-2.2959052537949014,-1.1056258788680842 L5.981087201136567,-14.861283922566688 " />
			<path d="M6.272532326407829,4.050135697676143 L14.397780893208152,-9.453336899833047 " />

        </g>

        <!-- solid lines -->
        <g  stroke="rgb(0,0,0)" fill="none">
    			<path d="M-31.37435512608361,-6.045805511836575 L-31.35939492275427,-5.907081914430591 L-31.341296575360538,-5.769862587573635 L-31.320075263838323,-5.634270973218815 L-31.29574888529337,-5.500428232995853 L-31.268337967053153,-5.368453317096969 L-31.2378655923557,-5.238463020953755 L-31.204357337522772,-5.110572030838228 L-31.167841219589747,-4.98489295937815 L-31.128347653489158,-4.861536371833572 L-31.085909418009713,-4.740610803838488 L-31.04056162987717,-4.6222227711683335 L-30.992341725428393,-4.506476771950984 L-30.941289449474496,-4.393475281595801 L-30.887446851073793,-4.283318740572126 L-30.830858286059986,-4.176105535025572 L-30.771570426295753,-4.0719319700773084 L-30.709632275746724,-3.9708922355084346 L-30.645095193595363,-3.87307836338846 L-30.5780129247393,-3.7785801770637426 L-30.50844163814313,-3.6874852307786883 L-30.436439973637594,-3.599878739059362 L-30.362069097884753,-3.5158434948460764 L-30.28539277035249,-3.4354597752184 L-30.206477420266417,-3.358805233412932 L-30.125392235632006,-3.2859547756910703 L-30.042209265544535,-3.2169804214708955 L-29.95700345890955,-3.151951087759944 L-29.869836901725826,-3.090921777879193 L-29.780778569644454,-3.03395005401229 L-29.689911221981035,-2.981098129141139 L-29.597318974418414,-2.932423230921036 L-29.503087243397868,-2.887977775512146 " />
			<path d="M-29.50308724339786,-2.8879777755121436 L-29.424967371402378,-2.8548482138959455 L-29.345859442195597,-2.8245957373993704 L-29.265811799852315,-2.7972421228178512 L-29.184873299968878,-2.7728071910259486 L-29.10309329869215,-2.7513088307798523 L-29.02052164302979,-2.7327630168825094 L-28.93720866235343,-2.7171838229890395 L-28.853205161017062,-2.7045834292671955 L-28.76856241202342,-2.694972125064755 L-28.68333215168182,-2.6883583066728325 L-28.597566575211452,-2.684748470211219 L-28.511318333254746,-2.6841471995989674 L-28.424640529276015,-2.6865571495105516 L-28.337586717831197,-2.6919790231550493 L-28.250210903705014,-2.700411544652901 L-28.16256754192262,-2.7118514257219157 L-28.074711538653222,-2.7262933263213105 L-27.986698253033914,-2.7437298088396704 L-27.898583499952405,-2.7641512853498504 L-27.810423553838067,-2.787545957390928 L-27.72227515352117,-2.8138997476744505 L-27.6341955082309,-2.8431962230493175 L-27.5462423048132,-2.8754165079967664 L-27.458473716260286,-2.910539187864028 L-27.370948251631933,-2.9485402731875485 L-27.283709184180164,-2.9894006687229044 L-27.19680495561153,-3.033098143581707 L-27.110293599617883,-3.0796039769558115 L-27.024232182207665,-3.128887477659814 L-26.938676830850767,-3.180916072657071 L-26.8536827603244,-3.235655386733994 L-26.76930429550915,-3.2930693140089193 L-26.68559489136299,-3.3531200819134277 L-26.60260715027961,-3.4157683082356707 L-26.520392837015997,-3.4809730517668434 L-26.43900289135278,-3.5486918570435977 L-26.35848743862943,-3.6188807936308023 L-26.278895798275048,-3.6914944903406806 L-26.200276490433886,-3.7664861647359884 L-26.122677240763615,-3.8438076482165324 L-26.04614498346258,-3.92340940693992 L-25.9707258625612,-4.00524055877909 L-25.896465231491003,-4.089248886470808 L-25.82340765092352,-4.1753808470608815 L-25.751596884849757,-4.263581577703538 L-25.681075894849588,-4.353794897824006 L-25.611886832478987,-4.44596330760497 L-25.544071029681596,-4.540027982709169 L-25.477668987109688,-4.635928765102112 L-25.412720360218184,-4.733604149790404 L-25.349263942974,-4.832991267242883 L-25.287337649001508,-4.93402586121338 L-25.226978489963486,-5.036642261635494 L-25.16822255095564,-5.140773352211453 L-25.11110496267115,-5.246350532268755 L-25.055659870070446,-5.353303672409852 L-25.001914904557065,-5.461572375220996 L-24.94989323557457,-5.571103986036292 L-24.899625064974046,-5.681829587038781 L-24.851139237960787,-5.793679926309176 L-24.804463187746,-5.906585644322182 L-24.759622981826098,-6.020477288500346 L-24.716643363446853,-6.135285326574127 L-24.67554778861818,-6.250940158847682 L-24.636358459016765,-6.367372129464953 L-24.59909635108474,-6.484511536765921 L-24.563781241603888,-6.602288642817997 L-24.53043172999613,-6.720633682202719 L-24.499065257572074,-6.839476870133131 L-24.469698123920757,-6.958748409972343 L-24.44234550060485,-7.078378500218969 L-24.417021442296793,-7.1982973410203694 L-24.39373889546249,-7.318435140269696 L-24.372509704670517,-7.438722119338013 L-24.353344616575782,-7.559088518487898 L-24.336253281598047,-7.679464602010103 L-24.32124425328662,-7.799780663120038 L-24.308324985333986,-7.919967028646048 L-24.297501826172184,-8.039954063536557 L-24.288780011056982,-8.159672175208426 L-24.282163651516118,-8.279051817753952 L-24.277655722009015,-8.398023496019205 L-24.275258043616695,-8.516517769561474 L-24.274971264551628,-8.634465256488907 L-24.27679483724864,-8.75179663718043 L-24.28072699176911,-8.868442657879385 L-24.286764705221824,-8.984334134149396 L-24.294903893062827,-9.099404776148566 L-24.3051410090873,-9.213605017946788 L-24.317470778653483,-9.326869617872935 L-24.331886440667255,-9.439130517702223 L-24.34838002057279,-9.550320649479891 L-24.366942363465572,-9.660373910782894 L-24.38756316323343,-9.769225143535177 L-24.410230988026658,-9.876810116100959 L-24.43493330233253,-9.983065508407766 L-24.461656485903887,-10.087928899878326 L-24.490385849765755,-10.191338759977814 L-24.521105649498264,-10.293234441210192 L-24.553799095968525,-10.393556174424841 L-24.588448363658294,-10.492245066321917 L-24.625034596708733,-10.58924309907234 L-24.66353791277777,-10.684493131995511 L-24.70393740477992,-10.77793890526536 L-24.74621114055278,-10.869525045642547 L-24.7903361604686,-10.959197074258029 L-24.836288472983867,-11.046901416500583 L-24.884043048093886,-11.13258541408818 L-24.93357380863391,-11.216197339430433 L-24.98485361934246,-11.297686412416764 L-25.037854273577,-11.377002819792182 L-25.092546477546293,-11.454097737309986 L-25.148899831898117,-11.528923354878016 L-25.206882810475406,-11.60143290494243 L-25.266462736028103,-11.671580694380319 L-25.327605752642373,-11.739322140199851 L-25.39027679462312,-11.804613809373913 L-25.454439551540123,-11.867413463160657 L-25.52005642912229,-11.927680106291596 L-25.58708850565905,-11.98537404143536 L-25.655495603368053,-12.04045702268506 L-25.725247708504543,-12.092900629020319 L-25.79630952413557,-12.142673025416611 L-25.868637238861332,-12.18973818428233 L-25.942186402542514,-12.234062343168514 L-26.016911948276057,-12.275613933299216 L-26.092768212201218,-12.314363516964763 L-26.16970895129939,-12.35028373309931 " />
			<path d="M-26.169708951299413,-12.350283733099321 L-26.278187897779897,-12.395395485593738 L-26.38853816583269,-12.434948915039735 L-26.500630960676546,-12.468889874770102 L-26.614335568149766,-12.497171312291512 L-26.729519399134766,-12.519753185330375 L-26.846048025701997,-12.536602414624445 L-26.96378520968168,-12.547692871857153 L-27.082592924220716,-12.553005401982158 L-27.202331368730523,-12.552527880036095 L-27.322858977480635,-12.546255303387964 L-27.444032421941156,-12.534189921224128 L-27.56570660682617,-12.51634140391835 L-27.68773465963868,-12.49272705578678 L-27.809967913366524,-12.46337207557834 L-27.932255881827178,-12.428309869901373 L-28.054446227008228,-12.387582425637975 L-28.176384717598868,-12.34124074824788 L-28.29791585825804,-12.289345067105184 L-28.418916057565465,-12.231948731719012 L-28.53924753820152,-12.169115926295545 L-28.658756687836984,-12.100926141153078 L-28.77729329194511,-12.027465870472644 L-28.894710403155436,-11.948828203797996 L-29.010864232377582,-11.865112474820384 L-29.125614059496638,-11.776423961340146 L-29.238822161735953,-11.682873630950843 L-29.350353758077674,-11.584577927645451 L-29.460076968425508,-11.48165859519789 L-29.567862786488643,-11.374242533826852 L-29.673585065659985,-11.262461687302746 L-29.777120517456307,-11.14645295831221 L-29.878348722382093,-11.026358150548509 L-29.97715215337334,-10.902323936649804 L-30.073416212271763,-10.774501851761057 L-30.167029280074285,-10.643048313149086 L-30.257882781996926,-10.508124666954068 L-30.345871268686615,-10.369897263814485 L-30.43089251520872,-10.228537565756277 L-30.512847639732435,-10.084222287390748 L-30.59164124413048,-9.937133575119496 L-30.667182116894615,-9.787458129880536 L-30.73940125726832,-9.635348382036653 L-30.808225133859654,-9.48097206799002 L-30.87357644448922,-9.324515308143916 L-30.935383216690955,-9.166164496669458 L-30.993578572874572,-9.006106233387644 L-31.048100529321363,-8.844527263060073 L-31.098891825479022,-8.681614421219827 L-31.145899780419196,-8.51755458572803 L-31.189076173719705,-8.352534633295702 L-31.22837714843147,-8.186741400264749 L-31.263763134188334,-8.020361646995955 L-31.295198788916142,-7.85358202526603 L-31.322652957995523,-7.686589048129823 L-31.346098650131047,-7.5195690617580055 L-31.365513029577514,-7.352708218814602 L-31.380877424772294,-7.186192452992876 L-31.3921773538208,-7.020207454382236 L-31.399402567680262,-6.854938645392896 L-31.402547112285237,-6.690571157019165 L-31.401609411256278,-6.527289805276395 L-31.396592371231456,-6.365279067700699 L-31.38750351225852,-6.204723059854684 L-31.374355126083618,-6.04580551183664 " />
			<path d="M36.734443225130356,-1.9115844576555816 L36.69818455086616,-1.6191774223603173 L36.667218266481186,-1.3192379564359784 L36.641672685335074,-1.012960704370314 L36.62165454512112,-0.70155317698802 L36.60724994467448,-0.38623483855426977 L36.59852488650739,-0.06823632614769955 L36.5955254809321,0.2512012301148843 L36.598277842857414,0.570826817800109 L36.606787687569756,0.8893801160042741 L36.621039607034945,1.205592064882841 L36.640995983481844,1.5181854638020826 L36.66659547225424,1.8258756314321039 L36.69775221436854,2.127382187242002 L36.73437002067401,2.4215459758555027 L36.77631887734784,2.707111560639745 L36.82344009330233,2.982832322383854 L36.87555255142493,3.2475184213339707 L36.932453688660715,3.5000348741838248 L36.9939200652383,3.7393008234054586 L37.02628974405687,3.8536419548226135 L37.059707577564296,3.964289882864237 L37.094139805006535,4.07112504969383 L37.12955134171293,4.174031537199893 L37.16590575711076,4.272897174307089 L37.20316524683874,4.367613665993029 L37.24129059846942,4.458076746209719 L37.28024115024194,4.544186357274124 L37.319974742099475,4.6258468586576456 L37.36044765821733,4.702967268469737 L37.401614560100214,4.775461541296218 L37.44343305645484,4.843256106744483 L37.48586675543391,4.906291618992557 L37.52886835848269,4.964496819656271 L37.572389901616745,5.017807178355948 L37.616383307571056,5.066165405878334 L37.660800405365435,5.109521122192647 L37.705592948164906,5.147830571125833 L37.7507126296412,5.181056377102381 L37.79611109903019,5.209167339877211 L37.841739975068684,5.232138263713271 L37.88755085898246,5.249949817978645 L37.9334953466861,5.262588426661117 L37.9795250403438,5.270046184821273 L38.02559155942874,5.272320800528381 L38.07164655140732,5.269415561346426 " />
			<path d="M38.07164655140732,5.269415561346424 L38.10701186739496,5.263666189842965 L38.14231989202844,5.2548672593440795 L38.17754871682166,5.243026995252374 L38.212676455765866,5.228155597702288 L38.247681248078564,5.210265262263192 L38.28254126097418,5.189370206482486 L38.31723469246507,5.165486702634441 L38.35173977420056,5.138633117104406 L38.386034774349746,5.108829956901733 L38.42009800053295,5.0760999238585915 L38.45390780280493,5.040467977135648 L38.487442576691684,5.001961404719344 L38.553618424723,4.916421259849201 L38.618479286283254,4.8196964377055735 L38.68186782376457,4.712046887928713 L38.74363296768339,4.593755742439062 L38.80362964759538,4.465127710893368 L38.86171857718128,4.32648780773369 L38.9177660960395,4.178180349684726 L38.97164406093145,4.020568185079223 L39.0232297812032,3.8540321248354408 L39.07240599508468,3.6789705533547243 L39.119060885545196,3.4957992060514345 L39.16308813636171,3.304951108671582 L39.204387031033754,3.106876682000688 L39.24286259915675,2.902044024005533 L39.278425816842734,2.690939389898571 L39.310994374089084,2.474064331840292 L39.34050085358643,2.251871223471088 L39.366876888925844,2.024863414344076 L39.39005834296557,1.7935768429263554 L39.40998917255184,1.5585527827155123 L39.42662111372005,1.3203375368569508 L39.43991345378545,1.079482175057032 L39.44983287882107,0.8365423060332399 L39.45635338807105,0.5920778791676319 L39.459456269898396,0.34665300945487787 L39.459130136917025,0.10083582026122202 L39.45537102100872,-0.14480170116425306 L39.44818253197627,-0.3896838400596398 L39.43757608663501,-0.6332312866100456 L39.42357121819564,-0.8748612682807577 L39.406195978842,-1.1139876853822024 L39.38548745145832,-1.3500212528001205 L39.36148992279982,-1.5823918503120897 L39.33424818990528,-1.8105933269069023 L39.30382373168956,-2.034038445731863 L39.27028759149885,-2.252149352946234 L39.23371877382543,-2.4643681368712995 L39.19420385892577,-2.6701561163136325 L39.15183671499702,-2.8689933937009418 L39.10671829555504,-3.0603786430422946 L39.05895651301363,-3.243829113790144 L39.008666182821905,-3.418880842747263 L38.95596903587363,-3.5850890772273285 L38.90099380025901,-3.7420289237435664 L38.84387635678676,-3.889296247565509 L38.78475997606094,-4.026508859549581 L38.72379564825403,-4.153308037714882 L38.66114252007472,-4.269360442101196 L38.596959459847696,-4.374374285150642 L38.53138935745031,-4.468115130691933 L38.498137386090974,-4.510679874541961 L38.464603040117424,-4.5503367781321975 L38.430808008614044,-4.587060896141241 L38.39677398333332,-4.620829657103416 L38.36252265470932,-4.651622789029705 L38.32807570820582,-4.679422253644507 L38.293454820968044,-4.7042121885855055 L38.25868165874871,-4.725978856977014 L38.22377787308005,-4.744710603850189 L38.188765098664696,-4.7603978189465215 L38.15366495096003,-4.773032905504094 L38.11849902393126,-4.782610254689102 L38.08328888795033,-4.789126225398187 L38.048056087818644,-4.792579129220165 L38.01282214089305,-4.792969220408791 L37.97760853529578,-4.790298690781195 " />
			<path d="M37.97760853529577,-4.790298690781193 L37.92843963408729,-4.781439634776757 L37.87941104175229,-4.766621252325095 L37.83058119726729,-4.745868699970053 L37.78200839739985,-4.719214720568805 L37.73375078803081,-4.686699783618955 L37.68586635534852,-4.648372271846259 L37.63841291682512,-4.604288718695133 L37.591448111903446,-4.554514102286172 L37.54502938981942,-4.4991221991440415 L37.49920442409834,-4.438182611261734 L37.45401946907689,-4.371767399985145 L37.40952758464277,-4.299964308403804 L37.365780255674245,-4.22286686046219 L37.32282745803261,-4.140574045218 L37.28071771505407,-4.053190044121657 L37.23949814551315,-3.960823996717583 L37.19921450391378,-3.8635898006411784 L37.159911213848105,-3.7616059422589068 L37.1216313950474,-3.6549953547723866 L37.084416884633285,-3.54388530108082 L37.04830825296162,-3.4284072791695612 L37.013344814335426,-3.3086969482660593 L36.979564632747454,-3.1848940744779317 L36.9470045226967,-3.057142495101334 L36.91570004500768,-2.9255901012612378 L36.88568549746489,-2.7903888390187723 L36.829656973727886,-2.509667909507251 L36.77916735645047,-2.2162776575880927 L36.73444322513036,-1.9115844576556444 " />
			<path d="M15.019345657803608,-11.581507905085555 L15.012255449328377,-11.439499037146875 L15.000834358314695,-11.298114415363818 L14.985091262159393,-11.157482102758012 L14.965038897643387,-11.017728630504754 L14.940693736988322,-10.878979042903616 L14.912075882307747,-10.741356933553982 L14.87920897677052,-10.604984473561329 L14.842120130979406,-10.469982432489106 L14.800839863253048,-10.336470192660029 L14.755402052684762,-10.204565757299621 L14.70584390403682,-10.074385752903861 L14.652205923714128,-9.946045426101767 L14.59453190624646,-9.81965863517276 L14.532868930893628,-9.695337836267646 L14.46726736817323,-9.573194064271107 L14.397780896295826,-9.453336908132497 " />
			<path d="M14.397780896295826,-9.453336908132496 L14.338464448718389,-9.357652815519922 L14.27665008422644,-9.26360895988241 L14.21237156890948,-9.171262026510265 L14.145664177973636,-9.0806680073789 L14.076564719232628,-8.991882181653615 L14.005111560368096,-8.90495909376651 L13.931344660231629,-8.81995252885953 L13.85530560449628,-8.73691548536646 L13.777037646000698,-8.655900144485486 L13.696585750164308,-8.576957836272756 L13.613996645887404,-8.500139002066199 L13.529318882385319,-8.425493152927668 L13.442602892441219,-8.353068823770299 L13.353894986120562,-8.282908844152903 L13.263232777324552,-8.215048145758168 L13.170670992250106,-8.149533443335027 L13.076266359086,-8.086410157768745 L12.98007660536875,-8.025721694408285 L12.882160426119567,-7.967509499446426 L12.782577455329898,-7.911813108643103 L12.681388240543525,-7.858670188967988 L12.578654220303068,-7.808116573679145 L12.474437704248578,-7.760186291295193 L12.368801855675676,-7.714911588859212 L12.26181067638064,-7.672322949833275 L12.153528993639544,-7.632449106903245 L12.044022449188505,-7.595317049914174 L11.933357490091838,-7.560952029097341 L11.821601361404802,-7.529377553690693 L11.70882210055745,-7.50061538599518 L11.595088533405892,-7.474685530850142 L11.480470271917183,-7.451606220451665 L11.365037713473788,-7.431393894378524 L11.248862041803509,-7.41406317463101 L11.132015229560512,-7.399626835428707 L11.014570042602967,-7.388095767453957 L10.896600046032649,-7.379478936168461 L10.778179612081647,-7.373783333771223 L10.659383929951215,-7.371013924306687 L10.540289017727568,-7.371173581372699 L10.420971736519325,-7.374263017818587 L10.301509806981086,-7.380280706764385 L10.181981828407482,-7.389222793212955 L10.062467300601867,-7.401082995467433 L9.943039796156,-7.415853426034179 L9.82375347438138,-7.433527466109673 L9.704685759064139,-7.454094247853474 L9.58591566862173,-7.477540334546628 L9.467521147260934,-7.503850122580047 L9.349579093398567,-7.533005932117588 L9.232165384648013,-7.56498808846844 L9.115354899626864,-7.599774994889913 L8.999221536817139,-7.637343197487874 L8.883838230685484,-7.677667442828296 L8.769276965246926,-7.720720728819552 L8.655608785231731,-7.766474349371271 L8.542903804991035,-7.814897933281794 L8.431231215252938,-7.865959477752419 L8.32065928781685,-7.919625376872823 L8.21125537824989,-7.975860445368267 L8.103085926625235,-8.034627937845322 L7.996216456318389,-8.095889563719103 L7.890711570853333,-8.159605497951144 L7.786634948766681,-8.22573438767324 L7.684049336433927,-8.294233354718815 L7.583016538778003,-8.365057994029481 L7.48359740775638,-8.43816236785073 L7.385851828499033,-8.513498995576827 L7.289838702945631,-8.591018839051195 L7.195615930806408,-8.670671283074746 L7.103240387647183,-8.752404110820814 L7.012767899875086,-8.836163473801555 L6.924253216377624,-8.921893855976819 L6.837749976543733,-9.009538031542728 L6.75331067437157,-9.099037015883384 L6.6709850323543245,-9.190331808568894 L6.5908070265605225,-9.283379098793917 L6.512820309019005,-9.37812361639629 L6.43707062785517,-9.474505141877877 L6.363601835636032,-9.57246294280252 L6.292455952209043,-9.671935802304171 L6.223673221033148,-9.772862044975819 L6.157292159496516,-9.875179560345504 L6.093349603677627,-9.97882582413291 L6.0318807479686845,-10.08373791746721 L5.97291917994258,-10.189852544234213 L5.916496910806875,-10.297106046707913 L5.862644401750563,-10.405434419608932 L5.811390586451597,-10.514773322719462 L5.762762889975465,-10.625058092171637 L5.716787244257333,-10.736223750513446 L5.673488100322535,-10.84820501564353 L5.632888437362486,-10.960936308693466 L5.5950097687452995,-11.074351760923369 L5.559872145002709,-11.188385219683838 L5.527494153797101,-11.30297025348457 L5.497892916834788,-11.418040156197137 L5.471084083653842,-11.533527950406697 L5.4470818221771395,-11.649366389914622 L5.425898805883478,-11.765487961381261 L5.407546197411909,-11.88182488508529 L5.3920336283767005,-11.99830911476335 L5.3793691751325765,-12.114872336480873 L5.369559330192176,-12.23144596647227 L5.362608968959901,-12.347961147875846 L5.35852131140862,-12.464348746276086 L5.357297878287923,-12.580539343953133 L5.358938773639386,-12.696475761515245 L5.363443618173531,-12.812102033786037 L5.370810567872618,-12.927348649250725 L5.38103604495757,-13.042146736045012 L5.394114787102133,-13.156428056018703 L5.4100398908256135,-13.27012499071798 L5.428802849525761,-13.38317052968392 L5.450393586557408,-13.49549826088829 L5.474800483725985,-13.607042363147494 L5.502010405528417,-13.717737600375576 L5.532008719437386,-13.82751931755702 L5.564779312488336,-13.936323438340052 L5.600304604392117,-14.04408646417116 L5.638565557359506,-14.150745474911293 L5.679541682787365,-14.256238130894332 L5.723211044919595,-14.360502676408226 L5.769550261559486,-14.463477944599159 L5.818534501873524,-14.565103363819048 L5.87013748129014,-14.665318965456587 L5.924331453460327,-14.764065393311993 L5.981087199210466,-14.861283914595514 " />
			<path d="M5.981087199210483,-14.86128391459554 L6.031083884029008,-14.942300412905015 L6.082872942808233,-15.02214678786349 L6.136434159304162,-15.100788558156127 L6.191746527345477,-15.178191590815558 L6.248788239189688,-15.25432210993053 L6.307536672392823,-15.329146706244629 L6.367968375097751,-15.402632347709872 L6.43005904963661,-15.474746391065269 L6.493783534333248,-15.545456594515558 L6.559115783381959,-15.614731131590693 L6.6260288446692135,-15.68253860627178 L6.694494835395468,-15.74884806947446 L6.764484915344563,-15.813629036985938 L6.8359692576385855,-15.876851508957104 L6.908918214840883,-15.938486980827852 L6.9833128295614655,-15.998516566242916 L7.059123934967036,-16.056913227473622 L7.136318276184828,-16.113647968679132 L7.214862056282287,-16.168692855016978 L7.294720952244964,-16.22202098399539 L7.375860129569365,-16.273606459882345 L7.458244255559562,-16.323424370970997 L7.541837511410957,-16.37145076951632 L7.626603603159371,-16.417662654173146 L7.712505771568194,-16.462037954781092 L7.799506801021107,-16.504555519356934 L7.887569027482468,-16.5451951031705 L7.9766543455821965,-16.583937359795254 L8.066724214876627,-16.62076383404005 L8.157739665331482,-16.65565695668386 L8.249661302067794,-16.688600040950423 L8.342449309406279,-16.719577280675153 L8.436063454240307,-16.748573750131865 L8.530463088762366,-16.775575405502085 L8.625607152563473,-16.800569087985057 L8.72145417411977,-16.823542528561806 L8.81796227167514,-16.844484354441864 L8.915089153523386,-16.863384097236505 L9.012792117688187,-16.88023220291769 L9.111028050993712,-16.895020043637086 L9.20975342751341,-16.90773993149488 L9.308924306379275,-16.918385134363277 L9.408496328928397,-16.92694989388494 L9.508424715158446,-16.933429445781815 L9.608664259458285,-16.937820042625106 L9.709169325574651,-16.94011897923237 L9.809893840770489,-16.940324620873056 L9.9107912891252,-16.93843643447896 L10.011814703921731,-16.93445502307145 L10.112916659060144,-16.92838216363253 L10.214049259431906,-16.920220848662026 L10.315164130183886,-16.909975331678552 L10.416219223771936,-16.897650275709246 L10.517184987612504,-16.883249165101848 L10.618014003074688,-16.86677828418962 L10.718658203918173,-16.848245219396954 L10.819070072793677,-16.82765867906234 L10.919202628235901,-16.805028452317984 L11.019009412984362,-16.780365371524226 L11.118444483547213,-16.75368127802537 L11.21746240092943,-16.724988991007493 L11.316018222452987,-16.694302279252728 L11.414067494603056,-16.661635835598354 L11.511566246840417,-16.627005253923024 L11.608470986326715,-16.590427008496295 L11.704738693515386,-16.5519184355416 L11.800326818567408,-16.511497716876654 L11.895193278557375,-16.469183865509233 L11.989296455441606,-16.4249967130802 L12.082595194766384,-16.378956899059474 L12.175048805100644,-16.331085861614632 L12.266617058183806,-16.281405830085735 L12.357260189785663,-16.229939819013822 L12.446938901281603,-16.176711623684508 L12.535614361952705,-16.121745817161937 L12.623248212026553,-16.06506774880237 L12.795240019638753,-15.946680106935407 L12.96261702947601,-15.821767056390842 L13.12508981108813,-15.690559535181732 L13.282377045097578,-15.55330128918673 L13.43420583617539,-15.41024921576791 L13.580312100993622,-15.26167383660089 L13.720441054209713,-15.107859902700335 L13.854381675135901,-14.949065401209552 L13.981934825783645,-14.785548885974103 L14.102886654336515,-14.617605891328132 L14.217038670098681,-14.445535738538421 L14.324206961091052,-14.269641194945928 L14.424221549659489,-14.09022818513961 L14.516925868888311,-13.907605547178866 L14.602176345168406,-13.722084827682872 L14.679842074825302,-13.533980110407134 L14.715793156314312,-13.439057561922267 L14.74980458526872,-13.343607873729528 L14.781863468516647,-13.247670960536054 L14.811957673681128,-13.151286873270182 L14.84007582809453,-13.054495796586984 L14.866207318819,-12.957338046671467 L14.89034229378332,-12.859854069330352 L14.912471664056476,-12.762084438366434 L14.932587107288274,-12.664069854232633 L14.95068107235731,-12.565851142965995 L14.966746785276575,-12.467469255405076 L14.98077825641698,-12.368965266697193 L14.992770289119042,-12.270380376105246 L15.002718489773,-12.171755907126867 L15.01061927945757,-12.07313330794187 L15.016469907237548,-11.974554152207018 L15.02026846523048,-11.87606014022033 L15.02201390556256,-11.777693100480246 L15.021706059343943,-11.67949499166811 L15.01934565780361,-11.581507905085621 " />
			<path d="M16.27190899551426,36.84050721381836 L15.754366686741381,37.06660874070399 L15.233683627527503,37.285380525168215 L14.709963619926684,37.49677895342296 L14.1833110714313,37.700761881613765 L13.653830974157627,37.897288644221426 L13.121628883914925,38.08632006216902 L12.586810899162037,38.2678184506325 L12.049483639855923,38.441747626553514 L11.509754226196144,38.608072915852674 L10.967730257269661,38.76676116034217 L10.423519789600146,38.91778072433607 L9.877231315606126,39.06110150095715 L9.328973741972202,39.196694918138874 L8.778856367937667,39.32453394432152 L8.22698886350692,39.44459309384107 L7.673481247585908,39.55684843200999 L7.11844386604905,39.66127757988878 L6.561987369740956,39.75785971874739 L6.004222692417365,39.84657559421557 L5.44526102862965,39.927407520121434 L4.885213811557385,40.000339382017216 L4.3241926907932715,40.06535664039193 L3.762309510085008,40.12244633356986 L3.1996762850383704,40.17159708029455 L2.6364051807860522,40.21279908199782 L2.0726084896267505,40.2460441247531 L1.5083986086388201,40.271325580912986 L0.9438880172730983,40.28863841043051 L0.379189254929281,40.297979161863886 L-0.18558510147965035,40.2993459730646 L-0.7503224599704685,40.29273857154863 L-1.314910235935761,40.278158274550805 L-1.8792358745885072,40.25560798876213 L-2.4431868734007147,40.2250922097504 L-3.0066508045316445,40.18661702106392 L-3.569515337241126,40.140190093018695 L-4.131668260283547,40.08582068116937 L-4.69299750427799,40.023519624464 L-5.253391164050102,39.9532993430832 L-5.812737520941232,39.87517383596419 L-6.370925065080364,39.789158678009905 L-6.927842517614469,39.695271016984066 L-7.48337885289275,39.59352957009264 L-8.037423320600439,39.48395462025244 L-8.589865467837711,39.36656801204754 L-9.140595161139283,39.24139314737441 L-9.689502608430345,39.10845498077659 L-10.236478380914429,38.96778001446979 L-10.78141343488886,38.819396293058496 L-11.324199133483425,38.66333339794505 L-11.864727268317951,38.4996224414324 L-12.402890081074451,38.3282960605216 L-12.938580284979542,38.14938841040539 L-13.471691086192877,37.962935157659146 L-14.00211620509729,37.76897347313042 L-14.529749897486411,37.56754202452867 L-15.054486975645606,37.358680968716605 L-15.576222829321887,37.14243194370455 L-16.09485344657877,36.91883806034966 L-16.610275434531836,36.687943893761386 L-17.12238603996086,36.449795474415176 L-17.631083169794437,36.204440278975866 L-18.136265411462997,35.951927220832914 L-18.63783205311617,35.69230664034914 L-19.135683103700426,35.42563029482495 L-19.629719312893045,35.15195134818022 L-20.119842190888416,34.87132436035561 L-20.605954028032706,34.58380527643563 L-21.08795791430302,34.28945141549562 L-21.565757758627118,33.988321459174685 L-22.039258308039912,33.68047543997716 L-22.508365166672835,33.365974729304625 L-22.97298481457237,33.044882025221064 L-23.433024626343954,32.717261339953566 L-23.888392889617542,32.383177987130985 L-24.338998823331135,32.04269856876318 L-24.784752595828692,31.69589096196342 L-25.225565342768714,31.342824305416563 L-25.661349184840034,30.983568985595777 L-26.09201724528119,30.618196622730395 L-26.517483667199997,30.246780056527985 L-26.9376636306897,29.86939333165313 L-27.352473369738505,29.486111682966108 L-27.761830188928954,29.097011520524273 L-28.165652479923832,28.702170414349112 L-28.563859737735452,28.301667078962087 L-28.95637257677489,27.895581357692325 L-29.343112746678106,27.48399420675925 L-29.724003147905744,27.066987679133327 L-30.098967847113485,26.644644908178226 L-30.46793209228994,26.217050091077567 L-30.83082232765901,25.784288472049546 L-31.187566208343807,25.346446325352883 L-31.538092614789086,24.90361093808744 L-31.882331666939535,24.45587059279282 L-32.220214738170824,24.003314549848643 L-32.55167446897085,23.54603302967978 L-32.87664478036841,23.08411719477026 L-33.19506088710644,22.617659131489354 L-33.50685931055753,22.146751831733454 L-33.81197789137881,21.671489174387446 L-34.110355801903886,21.191965906609262 L-34.40193355826932,20.708277624941328 L-34.686653032273156,20.22052075625267 L-34.96445746296319,19.728792538515506 L-35.23529146795274,19.23319100142013 L-35.49910105446149,18.73381494683195 L-35.75583363007941,18.23076392909461 L-36.00543801325137,17.724138235183094 L-36.247864443480644,17.21403886471076 L-36.48306459124896,16.7005675097943 L-36.71099156765143,16.183826534780703 L-36.93159993374414,15.663918955840092 L-37.144845709602755,15.140948420428742 L-37.35068638309028,14.615019186626148 L-37.54908091833212,14.086236102350421 L-37.73998976389694,13.55470458445606 L-37.9233748606815,13.020530597718315 L-38.09919964949804,12.483820633708325 L-38.26742907836259,11.944681689563232 L-38.428029609482934,11.403221246655491 L-38.58096922594451,10.859547249165669 L-38.726217438093286,10.313768082562946 L-38.86374528961411,9.76599255199769 L-38.993525363303306,9.216329860610319 L-39.11553178653455,8.664889587760848 L-39.22974023641677,8.111781667183426 L-39.33612794464305,7.557116365070217 L-39.434673702029734,7.001004258089023 L-39.525357862744585,6.443556211338987 L-39.6081623482233,5.884883356248839 L-39.6830706507737,5.325097068421957 L-39.750067836866585,4.7643089454328775 L-39.809140550112836,4.202630784579435 L-39.8602770139262,3.6401745605951614 L-39.90346703387094,3.0770524033262845 L-39.93870199969422,2.5133765753778015 L-39.96597488704263,1.94925944973308 L-39.98528025886251,1.3848134873514915 L-39.99661426648392,0.8201512147484642 L-39.999974650387834,0.25538520156247246 L-39.995360740656636,-0.30937196188653915 L-39.98277345710768,-0.8740076870428883 L-39.962215309109865,-1.438409409560527 L-39.933690395083474,-2.0024646117435863 L-39.89720440168297,-2.566060844977586 L-39.8527646026635,-3.129085752146967 L-39.80037985743065,-3.6914270900342583 L-39.74006060927437,-4.252972751696643 L-39.671818883286996,-4.813610788815284 L-39.59566828396592,-5.3732294340130835 L-39.511623992501484,-5.931717123136327 L-39.41970276375046,-6.4889625174958345 L-39.31992292289588,-7.044854526063158 L-39.21230436179373,-7.599282327617412 L-39.09686853500739,-8.1521353928383 L-38.97363845553052,-8.703303506340983 L-38.84263869019918,-9.2526767886483 L-38.70389535479436,-9.800145718096106 L-38.55743610883547,-10.345601152667191 L-38.40329015006633,-10.8889343517496 L-38.24148820863431,-11.430036997814842 L-38.072062540964055,-11.968801218011833 L-37.89504692332697,-12.505119605672128 L-37.71047664510759,-13.038885241722259 L-37.51838850176845,-13.569991715998842 L-37.31882078751461,-14.09833314846224 L-37.11181328765941,-14.623804210304547 L-36.897407270692966,-15.146300144947645 L-36.67564548005502,-15.665716788927242 L-36.44657212561367,-16.181950592658623 L-36.21023287485187,-16.69489864108003 L-35.966674843763194,-17.204458674169548 L-35.71594658745898,-17.7105291073314 L-35.458098090488456,-18.21300905164761 L-35.19318075687399,-18.711798333990952 L-34.92124739986329,-19.206797516995195 L-34.642352231400686,-19.697907918878723 L-34.35655085131959,-20.185031633117436 L-34.063900236258235,-20.668071547963184 L-33.76445872830096,-21.14693136580374 L-33.45828602334732,-21.621515622360317 L-33.14544315921122,-22.091729705719267 L-32.82599250345256,-22.557479875193565 L-32.49999774094383,-23.01867328001074 L-32.16752386117404,-23.47521797782335 L-31.828637145292603,-23.9270229530384 L-31.483405152895642,-24.373998134961973 L-31.131896708557562,-24.816054415755485 L-30.774181888110235,-25.253103668200012 L-30.41033200467299,-25.6850587632651 L-30.040419594435754,-26.11183358747859 L-29.66451840219838,-26.533343060093976 L-29.282703366669146,-26.9495031500519 L-28.8950506055251,-27.360230892732346 L-28.501637400237488,-27.7654444064943 L-28.10254218066508,-28.165062908999417 L-27.697844509418605,-28.559006733316615 L-27.28762506599934,-28.947197343804262 L-26.87196563071507,-29.329557351766834 L-26.45094906837654,-29.706010530882946 L-26.024659311777786,-30.076481832401637 L-25.59318134496344,-30.440897400103875 L-25.15660118628661,-30.799184585026378 L-24.715005871260384,-31.15127195994469 L-24.268483435206743,-31.497089333612784 L-23.817122895705978,-31.836567764756147 L-23.361014234850447,-32.1696395758158 L-22.900248381305918,-32.49623836644026 L-22.434917192184287,-32.816299026723016 L-21.96511343473118,-33.129757750182605 L-21.49093076783208,-33.43655204648297 L-21.012463723340776,-33.73662075389135 L-20.52980768723368,-34.02990405147131 L-20.043058880593986,-34.31634347100851 L-19.5523143404292,-34.59588190866678 L-19.05767190032614,-34.86846363637221 L-18.559230170947092,-35.13403431292293 L-18.057088520370996,-35.392540994822426 L-17.55134705428369,-35.643932146834274 L-17.04210659602112,-35.88815765225603 L-16.529468666469434,-36.12516882291036 L-16.013535463826027,-36.35491840885145 L-15.494409843225602,-36.577360607784556 L-14.97219529623517,-36.792451074197096 L-14.44699593022232,-37.00014692819923 L-13.918916447600546,-37.2004067640723 L-13.388062124956134,-37.393190658523345 L-12.854538792060383,-37.57846017864416 L-12.318452810771749,-37.756178389573094 L-11.779911053831757,-37.92630986185839 L-11.239020883559126,-38.088820678521245 L-10.695890130446323,-38.24367844181743 L-10.15062707166271,-38.39085227969604 L-9.603340409468704,-38.53031285195403 L-9.054139249545173,-38.66203235608543 L-8.503133079242376,-38.785984532824 L-7.950431745752891,-38.902144671378174 L-7.396145434212704,-39.01048961435734 L-6.840384645735028,-39.11099776238846 L-6.283260175381034,-39.203649078422096 L-5.724883090072073,-39.28842509172685 L-5.165364706447631,-39.365308901571744 L-4.6048165686735185,-39.43428518059547 L-4.043350426204739,-39.495340177861955 L-3.4810782115073815,-39.54846172160182 L-2.918112017744041,-39.593639221638846 L-2.354564076427223,-39.6308636715012 L-1.790546735045152,-39.660127650216985 L-1.22617243466445,-39.68142532379362 L-0.6615536875141955,-39.69475244638092 L-0.09680305455574129,-39.70010636111752 L0.46796687695712863,-39.69748600066057 L1.0326435159233338,-39.686891887398474 L1.597114289840351,-39.668326133346795 L2.1612666672463816,-39.64179243972716 L2.7249881801543654,-39.60729609622943 L3.288166446473288,-39.56484397995717 L3.8506891924123945,-39.514444554056574 L4.412444274863809,-39.456107866029384 L4.973319703759113,-39.38984554572975 L5.533203664395373,-39.31567080304578 L6.091984539726267,-39.23359842526605 L6.649550932613758,-39.14364477413163 L7.205791688035944,-39.04582778257425 L7.760595915246647,-38.940166951141244 L8.313853009882317,-38.82668334410799 L8.86545267601182,-38.70539958527854 L9.41528494812477,-38.576339853475424 L9.96324021305397,-38.43952987771946 L10.509209231827615,-38.29499693210039 L11.053083161446892,-38.14276983033968 L11.594753576584651,-37.98287892004623 L12.134112491200797,-37.815356076666376 L12.671052380070126,-37.64023469712928 L13.205466200218254,-37.457549693188994 L13.737247412261466,-37.26733748446455 L14.266290001646112,-37.069635991179425 L14.792488499783419,-36.86448462660189 L15.315738005075419,-36.65192428918765 L15.835934203827888,-36.431997354426436 L16.352973391046042,-36.20474766639415 L16.866752491108915,-35.97022052901222 L17.377169078318246,-35.7284626970159 L17.884121397317806,-35.4795223666334 L18.38750838337909,-35.223449165977584 L18.88722968254933,-34.96029414515223 L19.383185671657788,-34.690109766074855 L19.8752774781764,-34.41294989201797 L20.363406999930742,-34.1288697768711 L20.847476924657425,-33.83792605412547 L21.32739074940402,-33.54017672558371 L21.803052799767677,-33.23568114979676 L22.274368248968468,-32.9245000302303 L22.741243136753866,-32.60669540316306 L23.20358438813041,-32.28233062531942 L23.661299831918882,-31.95147036123879 L24.114298219129342,-31.61418057038425 L24.56248924115228,-31.270528493993005 L25.005783547762313,-30.92058264167138 L25.444092764930833,-30.56441277773691 L25.87732951244401,-30.20208990731029 L26.305407421322705,-29.83368626216 L26.728241151040766,-29.459275286302326 L27.145746406538283,-29.078931621359775 L27.55783995502647,-28.692731091680702 L27.964439642580714,-28.300750689223168 L28.365464410518584,-27.903068558205998 L28.760834311559492,-27.499763979530176 L29.150470525762756,-27.090917354973573 L29.534295376240976,-26.67661019116229 L29.912232344645474,-26.256925083321654 L30.284206086420813,-25.831945698810326 L30.650142445825292,-25.40175676044048 L31.009968470714444,-24.96644402958776 L31.363612427084586,-24.526094289094075 L31.711003813373562,-24.08079532596683 L32.052073374515686,-23.630635913877846 L32.38675311574834,-23.175705795465763 L32.714976316167174,-22.71609566444514 L33.03667754202744,-22.25189714752595 L33.35179265978871,-21.78320278614715 L33.66025884890034,-21.31010601802784 L33.962014614325255,-20.8327011585398 L34.25699979879941,-20.351083381904918 L34.545155594824635,-19.8653487022216 L34.82642455639228,-19.375593954323598 L35.100750610435576,-18.88191677447525 L35.36807906800818,-18.384415580907 L35.62835663518682,-17.883189554194953 L35.88153142369587,-17.37833861748851 L36.12755296125163,-16.86996341658992 L36.36637220162437,-16.35816529988982 L36.59794153441606,-15.843046298162655 L36.82221479455186,-15.324709104226077 L37.03914727148346,-14.8032570524684 L37.24869571810249,-14.27879409824805 L37.45081835936211,-13.751424797169372 L37.64547490060521,-13.221254284238626 L37.83262653559746,-12.688388252904568 L38.01223595426358,-12.15293293398767 L38.184267350125424,-11.614995074502202 L38.34868642744024,-11.074681916375432 L38.50546040803781,-10.532101175068139 L38.65455803785499,-9.987361018100726 L38.79594959316646,-9.44057004348924 L38.92960688651038,-8.891837258095514 L39.055503272307746,-8.341272055895864 L39.17361365217441,-7.788984196172572 L39.283914479924604,-7.23508378163256 L39.386383766265084,-6.6796812364575695 L39.4810010831788,-6.12288728429032 L39.56774756799746,-5.5648129261608785 L39.64660592716185,-5.005569418357807 L39.71756043966952,-4.445268250248392 L39.780596960208804,-3.8840211220523724 L39.835702921978864,-3.321939922573703 L39.88286733919492,-2.7591367068946786 L39.922080809278384,-2.195723674036909 L39.95333551473132,-1.6318131445936022 L39.976625224694935,-1.0675175383376319 L39.9919452961917,-0.502949351809813 L39.99929267505103,0.06177886410814373 L39.998665896518105,0.6265545266314594 L39.990065085545915,1.1912650435165286 L39.97349195677031,1.755797835507009 L39.948949814168216,2.3200403587773453 L39.916443550398924,2.8838801273692223 L39.87597964582875,3.447204735616473 L39.82756616723905,4.009901880553981 L39.771212766218135,4.57185938430614 L39.706930677237125,5.132965216450322 L39.634732715410195,5.693107516350997 L39.55463327393992,6.252174615459977 L39.46664832124778,6.810055059578375 L39.3707953977908,7.366637631075843 L39.267093612564665,7.921811371062608 L39.15556363929426,8.475465601509987 L39.03622771231217,9.027489947314871 L38.90910962212613,9.577774358303797 L38.774234710676176,10.126209131172322 L38.631629866282566,10.67268493135514 L38.481323518285386,11.217092814822795 L38.32334563137693,11.759324249800446 L38.157727699628055,12.299271138404501 L37.984502740209564,12.836825838192757 L37.80370528681001,13.37188118362369 L37.615371382751135,13.90433050742073 L37.41953857380237,14.434067661837163 L37.2162459006958,14.960987039817478 L37.00553389134312,15.484983596050947 L36.787444552756064,16.005952867913155 L36.562021362672034,16.523790996291435 L36.32930926088644,17.03839474628993 L36.08935464029367,17.549661527810258 L35.84220533763825,18.057489416003612 L35.58791062397831,18.56177717159023 L35.32652119486299,19.062424261042224 L35.0580891602259,19.559330876625644 L34.782668033996615,20.052397956297945 L34.500312723432316,20.541527203456727 L34.21107951817153,21.026621106535867 L33.91502607901249,21.50758295844523 L33.61221142641792,21.984316875849906 L33.30269592874891,22.45672781828529 L32.986541290230036,22.92472160710409 L32.66381053864816,23.388204944251584 L32.33456801278734,23.84708543086522 L31.998879349602472,24.301271585695083 L31.65681147113402,24.75067286334132 L31.308432571166616,25.19519967230506 L30.953812101634156,25.634763392849145 L30.593020758774006,26.06927639466514 L30.226130469033183,26.498652054343086 L29.85321437472927,26.922804772640514 L29.474346819468987,27.341649991547307 L29.089603333327222,27.75510421114297 L28.699060617789506,28.16308500624294 L28.302796530461062,28.565511042830707 L27.90089006954527,28.9623020942723 L27.493421358094807,29.35337905731011 L27.0804716280385,29.7386639678327 L26.662123203987136,30.11808001641752 L26.23845948682146,30.491551563643466 L25.80956493706556,30.859004155170137 L25.375525058049046,31.22036453658088 L24.936426378861338,31.57556066798659 L24.49235643710138,31.924521738387416 L24.043403761426458,32.267178179789454 L23.589657853903294,32.603461681073654 L23.131209172165136,32.93330520161411 L22.668149111378398,33.25664298464319 L22.200569986022302,33.57341057036056 L21.72856501148534,33.88354480878377 L21.252228285482065,34.186983872337656 L20.77165476929401,34.48366726818014 L20.286940268838457,34.77353585026192 L19.798181415568802,35.05653183111768 L19.305475647210375,35.33259879338647 L18.808921188335475,35.601681701058865 L18.308617030781583,35.86372691044892 L17.804662913916612,36.1186821808883 L17.29715930475507,36.36649668514096 L16.786207377929287,36.60712101953588 L16.271908995519432,36.84050721381606 " />

        </g>
        </g>
    </svg>
    