<?xml version='1.0' encoding='utf-8'?>
<svg width="100.09mm" height="57.371756mm" viewBox="-26.032365 -14.947403 54.286434 31.117075" version="1.1" xmlns="http://www.w3.org/2000/svg">
  <g transform="scale(1,-1)" stroke-linecap="round">
    <g fill="none" stroke="rgb(0,0,0)" stroke-width="0.048813858225376455" id="Visible">
      <line x1="-26.007958" y1="-11.583071" x2="-26.007958" y2="-2.217251" />
      <path d="M 2.200427,14.696327 C -1.108313,15.076671 -3.300187,14.954735 -4.849896,14.50665 C -6.806759,13.94084 -7.739697,12.854992 -7.739697,11.641595" />
      <path d="M -7.739697,11.641595 C -7.739454,11.334577 -7.68062,11.022596 -7.563195,10.705651 C -7.045224,9.309311 -5.396725,7.877468 -5.396725,6.837448" />
      <path d="M -5.396725,6.837448 C -5.396725,6.399585 -5.688925,6.031173 -6.480713,5.764103 C -8.593476,5.051466 -14.263336,5.060382 -16.785577,4.2442 C -19.307817,3.428018 -18.682439,1.786736 -19.498876,0.4432 C -20.22912,-0.758495 -22.112815,-1.721993 -26.007958,-2.217251" />
      <line x1="-10.824829" y1="-16.145265" x2="-10.824829" y2="-6.779444" />
      <line x1="-10.824829" y1="-16.145265" x2="-26.007958" y2="-11.583071" />
      <line x1="-10.824829" y1="-6.779444" x2="-26.007958" y2="-2.217251" />
      <line x1="28.229662" y1="-0.182558" x2="28.229662" y2="9.183262" />
      <line x1="28.229662" y1="-0.182558" x2="-10.824829" y2="-16.145265" />
      <line x1="28.229662" y1="9.183262" x2="-10.824829" y2="-6.779444" />
      <line x1="2.200427" y1="14.696327" x2="28.229662" y2="9.183262" />
      <path d="M -7.739697,5.471263 L -7.739697,11.641595" />
    </g>
    <g fill="none" stroke="rgb(99,99,99)" stroke-width="0.048813858225376455" id="Hidden" stroke-dasharray="0.00124 0.147062">
      <line x1="2.200427" y1="5.330507" x2="2.200427" y2="14.696327" />
      <path d="M 2.200427,5.330507 C -1.108313,5.71085 -3.300187,5.588914 -4.849896,5.140829 C -6.806759,4.57502 -7.739697,3.489171 -7.739697,2.275774" />
      <path d="M -7.739697,2.275774 C -7.739454,1.968756 -7.68062,1.656775 -7.563195,1.33983 C -7.045224,-0.056509 -5.396725,-1.488352 -5.396725,-2.528373" />
      <path d="M -5.396725,-2.528373 C -5.396725,-2.966236 -5.688925,-3.334647 -6.480713,-3.601718 C -8.593476,-4.314355 -14.263336,-4.305438 -16.785577,-5.121621 C -19.307817,-5.937803 -18.682439,-7.579084 -19.498876,-8.92262 C -20.22912,-10.124315 -22.112815,-11.087814 -26.007958,-11.583071" />
      <line x1="2.200427" y1="5.330507" x2="28.229662" y2="-0.182558" />
      <path d="M -7.739697,2.275774 L -7.739697,5.471263" />
      <path d="M -5.396725,-2.528373 L -5.396725,6.837448" />
    </g>
  </g>
</svg>