<?xml version='1.0' encoding='utf-8'?>
<svg width="100.09mm" height="52.909033mm" viewBox="-37.470897 -21.069331 77.595096 41.017899" version="1.1" xmlns="http://www.w3.org/2000/svg">
  <g transform="scale(1,-1)" stroke-linecap="round">
    <g fill="none" stroke="rgb(0,0,0)" stroke-width="0.06977279066322119" id="Visible">
      <line x1="19.27612" y1="17.606272" x2="-4.027506" y2="21.034445" />
      <line x1="19.27612" y1="14.831625" x2="19.27612" y2="17.606272" />
      <line x1="-37.436011" y1="-10.108017" x2="-20.006465" y2="-17.413812" />
      <path d="M -3.013145,-19.913682 A 10.0,4.170795019964975 4.3743256160690116e-16 0,1 -20.006465,-17.413812" />
      <line x1="-3.013145" y1="-19.913682" x2="21.548991" y2="-18.785242" />
      <line x1="21.548991" y1="-18.785242" x2="40.089312" y2="-6.546327" />
      <line x1="-4.027506" y1="21.034445" x2="-33.463781" y2="13.362695" />
      <path d="M 19.27612,17.606272 A 10.0,4.170795019964975 0.0 0,1 18.706701,16.218948" />
      <path d="M 18.706701,16.218948 A 10.0,4.170795019964975 0.0 0,1 31.985981,12.278787" />
      <line x1="-33.463781" y1="13.362695" x2="-37.436011" y2="-1.019317" />
      <line x1="-37.436011" y1="-1.019317" x2="-20.006465" y2="-8.325112" />
      <path d="M -20.006465,-8.325112 A 10.0,4.170795019964975 180.0 0,0 -3.013145,-10.824982" />
      <line x1="-3.013145" y1="-10.824982" x2="21.548991" y2="-9.696541" />
      <line x1="21.548991" y1="-9.696541" x2="40.089312" y2="2.542373" />
      <line x1="40.089312" y1="2.542373" x2="31.985981" y2="12.278787" />
      <line x1="40.089312" y1="-6.546327" x2="40.089312" y2="2.542373" />
      <line x1="21.548991" y1="-18.785242" x2="21.548991" y2="-9.696541" />
      <line x1="-3.013145" y1="-19.913682" x2="-3.013145" y2="-10.824982" />
      <line x1="-20.006465" y1="-17.413812" x2="-20.006465" y2="-8.325112" />
      <line x1="-37.436011" y1="-10.108017" x2="-37.436011" y2="-1.019317" />
    </g>
    <g fill="none" stroke="rgb(99,99,99)" stroke-width="0.06977279066322119" id="Hidden" stroke-dasharray="0.001772 0.210204">
      <line x1="19.27612" y1="8.517572" x2="-4.027506" y2="11.945744" />
      <line x1="-4.027506" y1="11.945744" x2="-4.027506" y2="21.034445" />
      <line x1="19.27612" y1="8.517572" x2="19.27612" y2="14.831625" />
      <path d="M 19.27612,8.517572 A 10.0,4.170795019964975 0.0 0,1 18.706701,7.130248" />
      <path d="M 18.706701,7.130248 A 10.0,4.170795019964975 0.0 0,1 31.985981,3.190087" />
      <line x1="-4.027506" y1="11.945744" x2="-33.463781" y2="4.273995" />
      <line x1="-33.463781" y1="4.273995" x2="-37.436011" y2="-10.108017" />
      <line x1="40.089312" y1="-6.546327" x2="31.985981" y2="3.190087" />
      <line x1="-33.463781" y1="4.273995" x2="-33.463781" y2="13.362695" />
      <line x1="31.985981" y1="3.190087" x2="31.985981" y2="12.278787" />
      <line x1="18.706701" y1="7.130248" x2="18.706701" y2="16.218948" />
    </g>
  </g>
</svg>