<?xml version='1.0' encoding='utf-8'?>
<svg width="100.089999mm" height="52.324668mm" viewBox="-47.469091 -24.216595 94.938181 49.63142" version="1.1" xmlns="http://www.w3.org/2000/svg">
  <g transform="scale(1,-1)" stroke-linecap="round">
    <g fill="none" stroke="rgb(0,0,0)" stroke-width="0.08536753254817066" id="Visible">
      <line x1="-7.071068" y1="-14.820792" x2="-43.84062" y2="1.531825" />
      <line x1="-7.071068" y1="-14.820792" x2="43.84062" y2="7.821294" />
      <line x1="-43.84062" y1="1.531825" x2="7.071068" y2="24.173911" />
      <line x1="43.84062" y1="7.821294" x2="7.071068" y2="24.173911" />
      <line x1="0.0" y1="-4.757643" x2="-5.805486" y2="-4.348712" />
      <line x1="-5.805486" y1="-4.348712" x2="-8.473976" y2="-6.677867" />
      <line x1="-8.473976" y1="-6.677867" x2="-4.317706" y2="-8.526296" />
      <line x1="-4.317706" y1="-8.526296" x2="0.919499" y2="-7.339532" />
      <line x1="0.919499" y1="-7.339532" x2="0.0" y2="-4.757643" />
      <line x1="28.284271" y1="7.821294" x2="22.478785" y2="8.230225" />
      <line x1="22.478785" y1="8.230225" x2="19.810296" y2="5.901069" />
      <line x1="19.810296" y1="5.901069" x2="23.966565" y2="4.052641" />
      <line x1="23.966565" y1="4.052641" x2="29.20377" y2="5.239405" />
      <line x1="29.20377" y1="5.239405" x2="28.284271" y2="7.821294" />
      <line x1="-21.213203" y1="4.676559" x2="-27.01869" y2="5.085491" />
      <line x1="-27.01869" y1="5.085491" x2="-29.687179" y2="2.756335" />
      <line x1="-29.687179" y1="2.756335" x2="-25.53091" y2="0.907907" />
      <line x1="-25.53091" y1="0.907907" x2="-20.293705" y2="2.094671" />
      <line x1="-20.293705" y1="2.094671" x2="-21.213203" y2="4.676559" />
      <line x1="7.071068" y1="17.255496" x2="1.265581" y2="17.664427" />
      <line x1="1.265581" y1="17.664427" x2="-1.402908" y2="15.335271" />
      <line x1="-1.402908" y1="15.335271" x2="2.753362" y2="13.486843" />
      <line x1="2.753362" y1="13.486843" x2="7.990567" y2="14.673607" />
      <line x1="7.990567" y1="14.673607" x2="7.071068" y2="17.255496" />
      <line x1="-7.071068" y1="-18.686493" x2="-7.071068" y2="-14.820792" />
      <path d="M -10.606602,-19.346866 L -10.402801,-19.42551 L -10.188517,-19.484869 L -9.964424,-19.524757 L -9.731228,-19.545047 L -9.489662,-19.545676 L -9.240487,-19.526641 L -8.984485,-19.488004 L -8.722463,-19.429884 L -8.455245,-19.352466 L -8.183672,-19.255992 L -7.908599,-19.140766 L -7.63089,-19.007152 L -7.35142,-18.855568 L -7.071068,-18.686493" />
      <line x1="-10.606602" y1="-19.346866" x2="-45.961941" y2="-3.623195" />
      <line x1="-47.426407" y1="-0.73916" x2="-43.84062" y2="1.531825" />
      <path d="M -45.961941,-3.623195 L -46.154618,-3.525513 L -46.335564,-3.409101 L -46.504211,-3.274324 L -46.660028,-3.121607 L -46.802524,-2.951431 L -46.931251,-2.764331 L -47.045805,-2.560896 L -47.145824,-2.341765 L -47.230993,-2.107628 L -47.301046,-1.859222 L -47.355762,-1.597329 L -47.394968,-1.322772 L -47.418541,-1.036415 L -47.426407,-0.73916" />
      <path d="M -7.071068,-18.686493 L -6.790716,-18.855568 L -6.511245,-19.007152 L -6.233537,-19.140766 L -5.958463,-19.255992 L -5.68689,-19.352466 L -5.419673,-19.429884 L -5.157651,-19.488004 L -4.901649,-19.526641 L -4.652473,-19.545676 L -4.410907,-19.545047 L -4.177711,-19.524757 L -3.953619,-19.484869 L -3.739335,-19.42551 L -3.535534,-19.346866" />
      <line x1="-3.535534" y1="-19.346866" x2="45.961941" y2="2.666273" />
      <line x1="47.426407" y1="5.550309" x2="43.84062" y2="7.821294" />
      <path d="M 45.961941,2.666273 L 46.154618,2.763955 L 46.335564,2.880368 L 46.504211,3.015144 L 46.660028,3.167861 L 46.802524,3.338037 L 46.931251,3.525137 L 47.045805,3.728573 L 47.145824,3.947703 L 47.230993,4.18184 L 47.301046,4.430246 L 47.355762,4.692139 L 47.394968,4.966696 L 47.418541,5.253053 L 47.426407,5.550309" />
      <line x1="0.0" y1="-4.757643" x2="0.0" y2="-7.547892" />
      <line x1="-5.805486" y1="-4.348712" x2="-5.805486" y2="-7.864631" />
      <line x1="28.284271" y1="7.821294" x2="28.284271" y2="5.031044" />
      <line x1="22.478785" y1="8.230225" x2="22.478785" y2="4.714305" />
      <line x1="-21.213203" y1="4.676559" x2="-21.213203" y2="1.88631" />
      <line x1="-27.01869" y1="5.085491" x2="-27.01869" y2="1.569571" />
      <line x1="7.071068" y1="17.255496" x2="7.071068" y2="14.465246" />
      <line x1="1.265581" y1="17.664427" x2="1.265581" y2="14.148507" />
      <path d="M -10.606602,-24.720846 A 5.0,2.2236627874761137 0.0 0,1 -3.535534,-24.720846" />
      <line x1="-10.606602" y1="-24.720846" x2="-45.961941" y2="-8.997176" />
      <path d="M -45.961941,-8.997176 A 5.0,2.2236627874761137 180.0 0,0 -47.426407,-7.424809" />
      <line x1="-3.535534" y1="-24.720846" x2="45.961941" y2="-2.707708" />
      <path d="M 45.961941,-2.707708 A 5.0,2.2236627874761137 0.0 0,1 47.426407,-1.135341" />
      <path d="M -11.977633,-0.264253 A 15.0,6.670988362428342 180.0 0,0 11.977644,-0.264259" />
      <path d="M -12.020815,-0.669488 A 17.0,7.560453477418787 180.0 0,0 12.020815,10.022607 A 17.0,7.560453477418787 180.0 0,0 -12.020815,-0.669488" />
      <path d="M -15.0,2.885233 A 15.0,6.670988362428342 180.0 0,0 15.0,2.885233" />
      <line x1="-10.606602" y1="-24.720846" x2="-10.606602" y2="-19.346866" />
      <line x1="-3.535534" y1="-24.720846" x2="-3.535534" y2="-19.346866" />
      <line x1="-45.961941" y1="-8.997176" x2="-45.961941" y2="-3.623195" />
      <line x1="45.961941" y1="-2.707708" x2="45.961941" y2="2.666273" />
      <path d="M -11.208099,-0.633388 C -12.3325,-0.134969 -13.236741,0.432339 -13.855539,0.98032 C -14.315574,1.384981 -14.615566,1.773159 -14.783652,2.095318 C -14.83547,2.194659 -14.87678,2.288285 -14.907582,2.376195 C -14.973933,2.565011 -14.999509,2.726121 -15.0,2.885233" />
      <path d="M 15.0,2.885233 C 14.999541,2.729173 14.974874,2.571287 14.911406,2.387105 C 14.85813,2.227372 14.767149,2.048767 14.638461,1.851288 C 14.4617,1.58426 14.202112,1.285024 13.851877,0.977094 C 13.180929,0.3833 12.174596,-0.231387 10.918065,-0.758966 C 9.455943,-1.376981 7.659452,-1.881024 5.699244,-2.211185 C 3.739285,-2.543016 1.615609,-2.700965 -0.494176,-2.671849 C -2.510131,-2.644569 -4.513321,-2.446778 -6.349281,-2.094129 C -8.18547,-1.742967 -9.854429,-1.236947 -11.208099,-0.633388" />
      <line x1="-47.426407" y1="-7.424809" x2="-47.426407" y2="-0.73916" />
      <line x1="47.426407" y1="-1.135341" x2="47.426407" y2="5.550309" />
    </g>
    <g fill="none" stroke="rgb(99,99,99)" stroke-width="0.08536753254817066" id="Hidden" stroke-dasharray="0.002168 0.257187">
      <path d="M -47.426407,-0.73916 L -47.418541,-0.787051 L -47.394968,-0.824829 L -47.355762,-0.852374 L -47.301046,-0.869599 L -47.230993,-0.87645 L -47.145824,-0.872906 L -47.045805,-0.858978 L -46.931251,-0.834709 L -46.802524,-0.800176 L -46.660028,-0.755488 L -46.504211,-0.700784 L -46.335564,-0.636238 L -46.154618,-0.562053 L -45.961941,-0.478461" />
      <line x1="-45.961941" y1="-0.478461" x2="3.535534" y2="21.534677" />
      <line x1="7.071068" y1="23.497642" x2="7.071068" y2="24.173911" />
      <path d="M 3.535534,21.534677 Q 3.637434,21.581045 3.739335,21.627412 Q 3.846477,21.678205 3.953619,21.728999 Q 4.065665,21.784058 4.177711,21.839117 Q 4.294309,21.898268 4.410907,21.95742 Q 4.53169,22.020478 4.652473,22.083537 Q 4.777061,22.150303 4.901649,22.217069 Q 5.02965,22.287334 5.157651,22.357598 Q 5.418215,22.502973 5.68689,22.657855 Q 5.957481,22.815206 6.233537,22.980532 Q 6.64961,23.231361 7.071068,23.497642" />
      <path d="M 47.426407,5.550309 L 47.418541,5.502417 L 47.394968,5.464639 L 47.355762,5.437094 L 47.301046,5.419869 L 47.230993,5.413018 L 47.145824,5.416562 L 47.045805,5.43049 L 46.931251,5.454759 L 46.802524,5.489292 L 46.660028,5.533981 L 46.504211,5.588684 L 46.335564,5.65323 L 46.154618,5.727415 L 45.961941,5.811007" />
      <line x1="45.961941" y1="5.811007" x2="10.606602" y2="21.534677" />
      <path d="M 7.071068,23.497642 Q 7.492526,23.231361 7.908599,22.980532 Q 8.184654,22.815206 8.455245,22.657855 Q 8.72392,22.502973 8.984485,22.357598 Q 9.112486,22.287334 9.240487,22.217069 Q 9.365074,22.150303 9.489662,22.083537 Q 9.610445,22.020478 9.731228,21.95742 Q 9.847826,21.898268 9.964424,21.839117 Q 10.076471,21.784058 10.188517,21.728999 Q 10.295659,21.678205 10.402801,21.627412 Q 10.504701,21.581045 10.606602,21.534677" />
      <line x1="0.0" y1="-7.547892" x2="0.0" y2="-13.714277" />
      <line x1="-5.805486" y1="-7.864631" x2="-5.805486" y2="-13.305346" />
      <line x1="0.0" y1="-13.714277" x2="-5.805486" y2="-13.305346" />
      <line x1="-8.473976" y1="-6.677867" x2="-8.473976" y2="-15.634501" />
      <line x1="-5.805486" y1="-13.305346" x2="-8.473976" y2="-15.634501" />
      <line x1="-4.317706" y1="-8.526296" x2="-4.317706" y2="-17.48293" />
      <line x1="-8.473976" y1="-15.634501" x2="-4.317706" y2="-17.48293" />
      <line x1="0.919499" y1="-7.339532" x2="0.919499" y2="-16.296166" />
      <line x1="-4.317706" y1="-17.48293" x2="0.919499" y2="-16.296166" />
      <line x1="0.919499" y1="-16.296166" x2="0.0" y2="-13.714277" />
      <line x1="28.284271" y1="5.031044" x2="28.284271" y2="-1.135341" />
      <line x1="22.478785" y1="4.714305" x2="22.478785" y2="-0.72641" />
      <line x1="28.284271" y1="-1.135341" x2="22.478785" y2="-0.72641" />
      <line x1="19.810296" y1="5.901069" x2="19.810296" y2="-3.055565" />
      <line x1="22.478785" y1="-0.72641" x2="19.810296" y2="-3.055565" />
      <line x1="23.966565" y1="4.052641" x2="23.966565" y2="-4.903993" />
      <line x1="19.810296" y1="-3.055565" x2="23.966565" y2="-4.903993" />
      <line x1="29.20377" y1="5.239405" x2="29.20377" y2="-3.717229" />
      <line x1="23.966565" y1="-4.903993" x2="29.20377" y2="-3.717229" />
      <line x1="29.20377" y1="-3.717229" x2="28.284271" y2="-1.135341" />
      <line x1="-21.213203" y1="1.88631" x2="-21.213203" y2="-4.280075" />
      <line x1="-27.01869" y1="1.569571" x2="-27.01869" y2="-3.871144" />
      <line x1="-21.213203" y1="-4.280075" x2="-27.01869" y2="-3.871144" />
      <line x1="-29.687179" y1="2.756335" x2="-29.687179" y2="-6.200299" />
      <line x1="-27.01869" y1="-3.871144" x2="-29.687179" y2="-6.200299" />
      <line x1="-25.53091" y1="0.907907" x2="-25.53091" y2="-8.048727" />
      <line x1="-29.687179" y1="-6.200299" x2="-25.53091" y2="-8.048727" />
      <line x1="-20.293705" y1="2.094671" x2="-20.293705" y2="-6.861963" />
      <line x1="-25.53091" y1="-8.048727" x2="-20.293705" y2="-6.861963" />
      <line x1="-20.293705" y1="-6.861963" x2="-21.213203" y2="-4.280075" />
      <line x1="7.071068" y1="14.465246" x2="7.071068" y2="8.298862" />
      <line x1="1.265581" y1="14.148507" x2="1.265581" y2="8.707793" />
      <line x1="7.071068" y1="8.298862" x2="1.265581" y2="8.707793" />
      <line x1="-1.402908" y1="15.335271" x2="-1.402908" y2="6.378637" />
      <line x1="1.265581" y1="8.707793" x2="-1.402908" y2="6.378637" />
      <line x1="2.753362" y1="13.486843" x2="2.753362" y2="4.530209" />
      <line x1="-1.402908" y1="6.378637" x2="2.753362" y2="4.530209" />
      <line x1="7.990567" y1="14.673607" x2="7.990567" y2="5.716973" />
      <line x1="2.753362" y1="4.530209" x2="7.990567" y2="5.716973" />
      <line x1="7.990567" y1="5.716973" x2="7.071068" y2="8.298862" />
      <path d="M -47.426407,-7.424809 A 5.0,2.2236627874761137 180.0 0,0 -45.961941,-5.852442" />
      <path d="M 47.426407,-1.135341 A 5.0,2.2236627874761137 0.0 0,1 45.961941,0.437026" />
      <line x1="-45.961941" y1="-5.852442" x2="3.535534" y2="16.160697" />
      <path d="M 3.535534,16.160697 A 5.0,2.2236627874761137 180.0 0,0 10.606602,16.160697" />
      <line x1="45.961941" y1="0.437026" x2="10.606602" y2="16.160697" />
      <path d="M -10.606602,-8.997176 A 15.0,6.670988362428342 180.0 0,0 -15.0,-4.280075" />
      <path d="M -15.0,-4.280075 A 15.0,6.670988362428342 180.0 0,0 -11.977633,-0.264253" />
      <path d="M 11.977644,-0.264259 A 15.0,6.670988362428342 180.0 0,0 15.0,-4.280075" />
      <path d="M 15.0,-4.280075 A 15.0,6.670988362428342 180.0 0,0 -10.606602,-8.997176" />
      <line x1="-15.0" y1="2.885233" x2="-15.0" y2="-4.280075" />
      <line x1="15.0" y1="2.885233" x2="15.0" y2="-4.280075" />
    </g>
  </g>
</svg>