<?xml version="1.0" encoding="UTF-8" standalone="no"?>
    <svg
    xmlns:svg="http://www.w3.org/2000/svg"
    xmlns="http://www.w3.org/2000/svg"
    width="223"
    height="426"
    >
        <g transform="scale(4, -4)   translate(27.924938727432178,-54.39596038615748)" stroke-width="0.25"  fill="none">
        <!-- hidden lines -->
        <g  stroke="rgb(160,160,160)" fill="none" stroke-dasharray="0.25,0.25" >
    			<path d="M-24.490013583795303,41.00637198424069 L-24.448595368574082,41.07887461114032 L-24.40288493886151,41.15131808966764 L-24.352885970215496,41.22369659467067 L-24.298602483033676,41.29600430622194 L-24.2400388422302,41.36823541008642 L-24.177199756884654,41.440384098189114 L-24.110090279863513,41.51244456908203 L-24.038715807413745,41.58441102841068 L-23.96308207872898,41.65627768938001 L-23.883195175487963,41.72803877321974 L-23.799061521365566,41.79968850964896 L-23.710687881516243,41.8712211373402 L-23.618081362030054,41.94263090438264 L-23.521249409361275,42.013912068744645 L-23.42019980972961,42.085058898735475 L-23.314940688494133,42.156065673466145 L-23.205480509499914,42.226926683309486 L-23.091828074397426,42.2976362303592 L-22.973992521934854,42.36818862888808 L-22.851983327223202,42.43857820580514 L-22.725810300974437,42.50879930111186 L-22.595483588712625,42.57884626835721 L-22.461013669958064,42.648713475091775 L-22.322411357384716,42.71839530332057 L-22.032854462002206,42.857180427262655 L-21.72690603332296,42.995157002449126 L-21.404664474146188,43.132280651200766 L-21.066233427662922,43.268507270166786 L-20.71172174412108,43.40379304450987 L-20.341243445815728,43.5380944619984 L-19.95491769041587,43.671368327001424 L-19.552868732639524,43.80357177438174 L-19.13522588428944,43.93466228328265 L-18.702123472662286,44.06459769080409 L-18.2537007973447,44.19333620556355 L-17.790102085410055,44.32083642113748 L-17.31147644503048,44.44705732937897 L-16.81797781751883,44.57195833360726 L-16.30976492781631,44.69549926166494 L-15.787001233441394,44.817640378838576 L-15.24985487191671,44.93834240063869 L-14.698498606690599,45.05756650543489 L-14.133109771570894,45.17527434694219 L-13.553870213688661,45.29142806655432 L-12.960966235010389,45.405990305520355 L-12.354588532417267,45.51892421696043 L-11.734932136371036,45.63019347771687 L-11.102196348185878,45.73976230003693 L-10.45658467592682,45.84759544308323 L-9.798304768954957,45.953658224268345 L-9.12756835114083,46.057916530409855 L-8.444591152767224,46.16033682870222 L-7.749592841143432,46.26088617750201 L-7.042796949953228,46.35953223692298 L-6.324430807359242,46.45624327923761 L-5.594725462887027,46.550988199081786 L-4.853915613112058,46.64373652345925 L-4.102239526173868,46.73445842154269 L-3.3399389651413713,46.82312471426831 L-2.5672591102541347,46.90970688372073 L-1.7844484800645688,46.99417708230527 L-0.9917588515064111,47.07650814170462 L-0.18944517891521073,47.15667358161706 L0.6222344879731203,47.23464761827333 L1.4430190870193904,47.31040517272956 L2.272644627647022,47.38392187893343 L3.110844275749887,47.455174091561084 L3.957348439514707,47.52413889362223 L4.811884856130355,47.59079410383096 L5.674178679356299,47.65511828373997 L6.543952567921995,47.71709074463585 L7.420926774728628,47.776691554193235 L8.304819236824766,47.83390154288567 L9.19534566612684,47.888702310151174 L10.092219640855248,47.9410762303104 L10.995152697656682,47.991006458235645 " />
			<path d="M10.995152697656799,47.991006458235645 L10.995152697656799,-40.0817689876097 " />
			<path d="M-24.490013583795303,-47.06640346160466 L-24.448595368574082,-46.99390083470502 L-24.40288493886151,-46.921457356177704 L-24.352885970215496,-46.849078851174674 L-24.298602483033676,-46.776771139623406 L-24.2400388422302,-46.704540035758924 L-24.177199756884654,-46.632391347656224 L-24.110090279863513,-46.56033087676332 L-24.038715807413745,-46.48836441743467 L-23.96308207872898,-46.41649775646533 L-23.883195175487963,-46.34473667262561 L-23.799061521365566,-46.273086936196385 L-23.710687881516243,-46.201554308505145 L-23.618081362030054,-46.130144541462705 L-23.521249409361275,-46.0588633771007 L-23.42019980972961,-45.98771654710987 L-23.314940688494133,-45.9167097723792 L-23.205480509499914,-45.84584876253586 L-23.091828074397426,-45.77513921548614 L-22.973992521934854,-45.70458681695727 L-22.851983327223202,-45.634197240040194 L-22.725810300974437,-45.56397614473349 L-22.595483588712625,-45.493929177488134 L-22.461013669958064,-45.42406197075357 L-22.322411357384716,-45.354380142524775 L-22.032854462002206,-45.21559501858269 L-21.72690603332296,-45.07761844339622 L-21.404664474146188,-44.94049479464458 L-21.066233427662922,-44.80426817567856 L-20.71172174412108,-44.668982401335484 L-20.341243445815728,-44.53468098384695 L-19.95491769041587,-44.40140711884392 L-19.552868732639524,-44.26920367146361 L-19.13522588428944,-44.138113162562696 L-18.702123472662286,-44.00817775504125 L-18.2537007973447,-43.8794392402818 L-17.790102085410055,-43.751939024707866 L-17.31147644503048,-43.62571811646637 L-16.81797781751883,-43.50081711223808 L-16.30976492781631,-43.3772761841804 L-15.787001233441394,-43.25513506700677 L-15.24985487191671,-43.134433045206656 L-14.698498606690599,-43.015208940410446 L-14.133109771570894,-42.897501098903156 L-13.553870213688661,-42.78134737929103 L-12.960966235010389,-42.66678514032499 L-12.354588532417267,-42.55385122888492 L-11.734932136371036,-42.44258196812847 L-11.102196348185878,-42.33301314580841 L-10.45658467592682,-42.225180002762116 L-9.798304768954957,-42.119117221577 L-9.12756835114083,-42.01485891543549 L-8.444591152767224,-41.912438617143124 L-7.749592841143432,-41.811889268343336 L-7.042796949953228,-41.713243208922364 L-6.324430807359242,-41.61653216660773 L-5.594725462887027,-41.52178724676356 L-4.853915613112058,-41.4290389223861 L-4.102239526173868,-41.338317024302654 L-3.3399389651413713,-41.249650731577034 L-2.5672591102541347,-41.163068562124614 L-1.7844484800645688,-41.078598363540074 L-0.9917588515064111,-40.99626730414072 L-0.18944517891521073,-40.91610186422828 L0.6222344879731203,-40.838127827572016 L1.4430190870193904,-40.762370273115785 L2.272644627647022,-40.68885356691192 L3.110844275749887,-40.61760135428426 L3.957348439514707,-40.548636552223115 L4.811884856130355,-40.481981342014386 L5.674178679356299,-40.41765716210538 L6.543952567921995,-40.3556847012095 L7.420926774728628,-40.29608389165211 L8.304819236824766,-40.23887390295967 L9.19534566612684,-40.18407313569417 L10.092219640855248,-40.13169921553495 L10.995152697656682,-40.0817689876097 " />
			<path d="M-24.4900135837953,41.00637198424069 L-24.4900135837953,-47.06640346160466 " />
			<path d="M-10.995152697656804,39.43463980161594 L-24.490013583795296,41.00637198424068 " />
			<path d="M10.995152697656803,47.991006458235645 L24.490013583795296,46.4192742756109 " />
			<path d="M24.490013583795296,46.4192742756109 L24.448595368574075,46.346771648711275 L24.40288493886151,46.274328170183956 L24.35288597021549,46.20194966518092 L24.298602483033676,46.12964195362966 L24.24003884223019,46.057410849765176 L24.177199756884647,45.985262161662476 L24.110090279863506,45.91320169076956 L24.038715807413745,45.84123523144091 L23.96308207872898,45.76936857047158 L23.883195175487963,45.69760748663186 L23.79906152136556,45.62595775020264 L23.710687881516243,45.5544251225114 L23.618081362030054,45.48301535546896 L23.521249409361268,45.411734191106945 L23.42019980972961,45.34058736111612 L23.314940688494133,45.269580586385445 L23.205480509499914,45.19871957654211 L23.091828074397426,45.128010029492394 L22.973992521934846,45.05745763096351 L22.851983327223202,44.987068054046446 L22.725810300974437,44.91684695873973 L22.595483588712618,44.84679999149438 L22.461013669958064,44.77693278475982 L22.322411357384716,44.70725095653102 L22.032854462002206,44.568465832588934 L21.72690603332297,44.43048925740247 L21.404664474146195,44.29336560865083 L21.06623342766293,44.15713898968481 L20.711721744121085,44.02185321534173 L20.341243445815735,43.8875517978532 L19.954917690415883,43.75427793285017 L19.55286873263953,43.62207448546986 L19.13522588428946,43.490983976568955 L18.7021234726623,43.361048569047504 L18.253700797344713,43.23231005428805 L17.790102085410076,43.10480983871412 L17.3114764450305,42.978588930472625 L16.817977817518845,42.85368792624433 L16.309764927816317,42.73014699818665 L15.787001233441408,42.608005881013014 L15.249854871916732,42.48730385921291 L14.698498606690627,42.3680797544167 L14.133109771570908,42.25037191290941 L13.553870213688683,42.13421819329727 L12.96096623501041,42.01965595433124 L12.354588532417281,41.90672204289117 L11.734932136371036,41.79545278213472 L11.102196348185892,41.68588395981466 L10.456584675926841,41.57805081676837 L9.798304768954978,41.47198803558325 L9.127568351140859,41.36772972944174 L8.444591152767245,41.26530943114937 L7.749592841143446,41.16476008234958 L7.0427969499532495,41.066114022928616 L6.324430807359278,40.969402980613985 L5.594725462887062,40.874658060769804 L4.8539156131121075,40.78190973639235 L4.102239526173889,40.691187838308906 L3.3399389651413998,40.602521545583286 L2.56725911025417,40.515939376130866 L1.784448480064615,40.431469177546326 L0.9917588515064679,40.34913811814697 L0.18944517891523915,40.26897267823453 L-0.6222344879730848,40.19099864157826 L-1.4430190870193371,40.11524108712204 L-2.2726446276470007,40.04172438091817 L-3.1108442757498693,39.97047216829051 L-3.957348439514675,39.90150736622937 L-4.8118848561303125,39.83485215602063 L-5.67417867935626,39.77052797611162 L-6.543952567921988,39.70855551521574 L-7.420926774728606,39.648954705658355 L-8.304819236824734,39.59174471696592 L-9.19534566612684,39.536943949700415 L-10.092219640855237,39.484570029541196 L-10.995152697656327,39.434639801615965 " />
			<path d="M24.490013583795296,46.41927427561091 L24.490013583795296,-41.653501170234435 " />
			<path d="M24.490013583795296,-41.653501170234435 L24.448595368574075,-41.72600379713406 L24.40288493886151,-41.79844727566138 L24.35288597021549,-41.87082578066442 L24.298602483033676,-41.94313349221568 L24.24003884223019,-42.01536459608016 L24.177199756884647,-42.08751328418286 L24.110090279863506,-42.159573755075776 L24.038715807413745,-42.231540214404426 L23.96308207872898,-42.30340687537376 L23.883195175487963,-42.37516795921348 L23.79906152136556,-42.4468176956427 L23.710687881516243,-42.51835032333394 L23.618081362030054,-42.58976009037638 L23.521249409361268,-42.66104125473839 L23.42019980972961,-42.732188084729216 L23.314940688494133,-42.80319485945989 L23.205480509499914,-42.87405586930323 L23.091828074397426,-42.94476541635294 L22.973992521934846,-43.015317814881826 L22.851983327223202,-43.08570739179889 L22.725810300974437,-43.155928487105605 L22.595483588712618,-43.22597545435096 L22.461013669958064,-43.295842661085516 L22.322411357384716,-43.36552448931432 L22.032854462002206,-43.5043096132564 L21.72690603332297,-43.64228618844287 L21.404664474146195,-43.77940983719451 L21.06623342766293,-43.91563645616053 L20.711721744121085,-44.05092223050361 L20.341243445815735,-44.18522364799214 L19.954917690415883,-44.318497512995165 L19.55286873263953,-44.45070096037548 L19.13522588428946,-44.58179146927638 L18.7021234726623,-44.71172687679783 L18.253700797344713,-44.84046539155729 L17.790102085410076,-44.96796560713122 L17.3114764450305,-45.09418651537271 L16.817977817518845,-45.219087519601004 L16.309764927816317,-45.34262844765869 L15.787001233441408,-45.464769564832324 L15.249854871916732,-45.58547158663243 L14.698498606690627,-45.70469569142864 L14.133109771570908,-45.82240353293593 L13.553870213688683,-45.938557252548065 L12.96096623501041,-46.053119491514096 L12.354588532417281,-46.16605340295417 L11.734932136371036,-46.27732266371062 L11.102196348185892,-46.38689148603068 L10.456584675926841,-46.49472462907697 L9.798304768954978,-46.600787410262086 L9.127568351140859,-46.705045716403596 L8.444591152767245,-46.80746601469597 L7.749592841143446,-46.90801536349576 L7.0427969499532495,-47.00666142291672 L6.324430807359278,-47.10337246523135 L5.594725462887062,-47.198117385075534 L4.8539156131121075,-47.29086570945299 L4.102239526173889,-47.38158760753643 L3.3399389651413998,-47.47025390026205 L2.56725911025417,-47.55683606971447 L1.784448480064615,-47.64130626829901 L0.9917588515064679,-47.72363732769837 L0.18944517891523915,-47.803802767610804 L-0.6222344879730848,-47.881776804267076 L-1.4430190870193371,-47.9575343587233 L-2.2726446276470007,-48.03105106492717 L-3.1108442757498693,-48.102303277554824 L-3.957348439514675,-48.17126807961597 L-4.8118848561303125,-48.23792328982471 L-5.67417867935626,-48.302247469733715 L-6.543952567921988,-48.364219930629595 L-7.420926774728606,-48.42382074018698 L-8.304819236824734,-48.48103072887942 L-9.19534566612684,-48.53583149614492 L-10.092219640855237,-48.58820541630414 L-10.995152697656327,-48.63813564422937 " />
			<path d="M-10.995152697656803,39.434639801615944 L-10.995152697656803,-48.6381356442294 " />
			<path d="M-5.487396847647236,42.63272501539049 L-5.460471467504671,42.63909639670525 L-5.433610952961254,42.64759561092872 L-5.380343045843458,42.670890559886864 L-5.328106125358593,42.70238551917213 L-5.277403261606534,42.741777175109725 L-5.228722750882219,42.788686164519284 L-5.182533413115396,42.84266072818974 L-5.13928007687842,42.90318106156744 L-5.099379295443932,42.969664320758184 L-5.063215335149132,43.04147023563252 L-5.031136474700891,43.11790727597709 L-5.003451651061414,43.198239311308654 L-4.980427484216413,43.28169270021301 L-4.962285709478896,43.36746374093473 L-4.949201042056887,43.45472641146446 L-4.941299494450468,43.54264032458237 L-4.938657162882513,43.630358821246496 " />
			<path d="M11.157706923549366,-40.81840455838232 L11.157706923549366,49.03361887626799 " />
			<path d="M-25.424938727432178,-48.01905865528434 L-25.386588477746102,-47.944125733277176 L-25.343732301640266,-47.869248805218646 L-25.296373754272018,-47.794434082564955 L-25.244516764295348,-47.71968777161204 L-25.18816563353502,-47.64501607298068 L-25.127325036629678,-47.57042518110218 L-25.062000020644042,-47.49592128370446 L-24.992196004650282,-47.42151056129877 L-24.91791877927843,-47.34719918666696 L-24.83917450623604,-47.272993324349464 L-24.755969717797022,-47.19889913013386 L-24.668311316259754,-47.12492275054426 L-24.57620657337452,-47.05107032233136 L-24.479663129740253,-46.977347971963454 L-24.378688994170737,-46.903761815118116 L-24.27329254303018,-46.83031795617494 L-24.163482519538405,-46.757022487709094 L-24.049268033045507,-46.683881489985964 L-23.9306585582762,-46.6109010304567 L-23.807663934543854,-46.53808716325495 L-23.680294364934248,-46.46544592869458 L-23.548560415459136,-46.39298335276863 L-23.412473014179824,-46.32070544664943 L-23.272043450300536,-46.2486182061899 L-23.127283373231982,-46.17672761142621 L-22.97820479162491,-46.105039626081656 L-22.667141939591843,-45.96229525401203 L-22.338958109611646,-45.82043245474615 L-21.99376219809688,-45.67949830052984 L-21.63166874632885,-45.539539555470284 L-21.252797902451086,-45.40060266001899 L-20.857275381602335,-45.262733715562135 L-20.44523242420236,-45.12597846912345 L-20.016805752404366,-44.99038229818463 L-19.572137524728483,-44.855990195628365 L-19.111375288891402,-44.7228467548091 L-18.634671932847823,-44.59099615475618 L-18.14218563405982,-44.46048214551464 L-17.63407980701122,-44.33134803362824 L-17.110523048984106,-44.2036366677697 L-16.57168908411574,-44.077390424522854 L-16.017756705754152,-43.952651194321454 L-15.448909717131848,-43.82946036754929 L-14.865336870377035,-43.7078588208062 L-14.267231803882801,-43.58788690334463 L-13.654792978054957,-43.469584423681106 L-13.028223609459793,-43.35299063638716 L-12.387731603393746,-43.23814422906408 L-11.733529484897232,-43.12508330950577 L-11.065834328235596,-43.01384539305397 L-10.384867684870557,-42.90446739015014 L-9.690855509946019,-42.79698559408797 L-8.98402808731273,-42.691435668970755 L-8.264619953116565,-42.58785263787745 L-7.532869817975836,-42.48627087124149 L-6.789020487773492,-42.38672407544619 L-6.0333187830903725,-42.28924528164042 L-5.266015457306409,-42.19386683477836 L-4.487365113396791,-42.10062038288699 L-3.6976261194507885,-42.0095368665647 L-2.8970605229413344,-41.92064650871486 L-2.0859339637735914,-41.83397880451729 L-1.2645155861416129,-41.74956251164134 L-0.4330779492221879,-41.66742564070367 L0.408103063264484,-41.58759544597389 L1.2587483345972181,-41.51009841633118 L2.1185756076690403,-41.434960266474874 L2.9872995786444108,-41.3622059283919 L3.8646319916273946,-41.29185954308404 L4.7502817343093895,-41.22394445255747 L5.6439549345646185,-41.158483192077625 L6.545355057961416,-41.09549748269161 L7.454183006156882,-41.03500822402082 L8.370137216142265,-40.97703548732613 L9.29291376030621,-40.92159850884794 L10.22220644728256,-40.86871568342333 L11.157706923549249,-40.818404558382326 " />
			<path d="M-9.000000000000007,47.15824480258655 L-8.021423583487156,47.298344685351026 L-7.020282113386635,47.43474067888559 L-5.997186941970291,47.56734949226384 L-4.952762827652421,47.696090147220694 L-3.887647553477791,47.82088402760228 L-2.802491537656106,47.941654927373214 L-1.6979574363807082,48.058329097152274 L-0.5747197391741068,48.1708352892478 L0.5665356429925659,48.2791048011655 L1.7251117965546499,48.38307151756199 L2.900301230927937,48.48267195061844 L4.091386310541431,48.57784527880978 L5.297639693065278,48.66853338404568 L6.518324773566164,48.75468088716062 L7.75269613431897,48.836235181731524 L8.99999999999988,48.9131464662021 " />
			<path d="M11.157706923549366,-40.81840455838232 L25.424938727432167,-42.48009396535971 " />
			<path d="M8.999999999999996,44.60244712432827 L8.997289368265834,44.635889128381066 L8.989159105846548,44.66931098822109 L8.975614110108209,44.70269257176972 L8.956662540049768,44.736013771209215 L8.932315811388387,44.769254515095014 L8.902588589683026,44.80239478044595 L8.867498781500467,44.83541460480536 L8.82706752362907,44.86829409826574 L8.781319170346753,44.901013455449686 L8.730281278750892,44.93355296743988 L8.673984592158956,44.96589303365103 L8.612463021589877,44.99801417363651 L8.545753625337326,45.0298970388227 L8.473896586647184,45.06152242416378 L8.396935189512647,45.092871279710174 L8.314915792601576,45.1239247220835 L8.135903638110987,45.18507073479418 L7.937291379135191,45.24481315619545 L7.719557490002445,45.30300806156133 L7.483226510722903,45.35951525426753 L7.228867783325801,45.414198603537365 L6.957094080264628,45.46692637239275 L6.668560128194628,45.51757153502011 L6.363961030678924,45.566012082786685 L6.0440305936231615,45.612131318170015 L5.709539557472806,45.65581813589248 L5.361293740431895,45.69696729058369 L5.000132097176415,45.73547965032574 L4.626924697738991,45.771262435470746 L4.242570631433972,45.80422944215507 L3.8479958408725343,45.83430124997205 L3.444150891285803,45.861405413302684 L3.032008680529975,45.885476635843446 L2.6125620952901576,45.90645692791086 L2.1868216191293706,45.92429574614368 L1.7558128981451495,45.93895011526627 L1.3205742700982501,45.95038473161986 L0.8821542629660394,45.9585720482121 L0.44160906894675755,45.96349234108018 L-5.01915570614476e-15,45.96513375680763 L-0.4416090689467676,45.96349234108018 L-0.8821542629660494,45.9585720482121 L-1.3205742700982603,45.95038473161986 L-1.7558128981451593,45.93895011526627 L-2.1868216191293803,45.92429574614368 L-2.612562095290167,45.90645692791086 L-3.0320086805299864,45.885476635843446 L-3.4441508912858145,45.861405413302684 L-3.8479958408725436,45.83430124997205 L-4.242570631433987,45.80422944215507 L-4.626924697739004,45.771262435470746 L-5.0001320971764285,45.73547965032574 L-5.361293740431907,45.69696729058369 L-5.709539557472815,45.65581813589248 L-6.0440305936231695,45.612131318170015 L-6.363961030678934,45.566012082786685 L-6.668560128194639,45.51757153502011 L-6.957094080264638,45.46692637239275 L-7.228867783325809,45.414198603537365 L-7.483226510722911,45.35951525426753 L-7.719557490002452,45.30300806156133 L-7.9372913791352,45.24481315619545 L-8.135903638110996,45.18507073479418 L-8.314915792601585,45.1239247220835 L-8.396935189512654,45.09287127971017 L-8.473896586647191,45.06152242416378 L-8.545753625337333,45.0298970388227 L-8.612463021589885,44.99801417363651 L-8.673984592158964,44.96589303365102 L-8.730281278750901,44.93355296743988 L-8.781319170346762,44.901013455449686 L-8.82706752362908,44.86829409826574 L-8.867498781500476,44.83541460480536 L-8.902588589683033,44.802394780445944 L-8.932315811388394,44.769254515095014 L-8.956662540049775,44.736013771209215 L-8.975614110108216,44.70269257176972 L-8.989159105846555,44.66931098822109 L-8.997289368265841,44.635889128381066 L-9.000000000000004,44.60244712432828 " />
			<path d="M24.49001358379529,-41.653501170234435 L10.995152697656808,-40.08176898760969 " />
			<path d="M-10.995152697656804,-48.6381356442294 L-24.490013583795296,-47.06640346160466 " />
			<path d="M8.099999999999994,44.60244712432827 L8.103154380680882,44.53639338391549 L8.112403612066577,44.47203059183108 L8.127117798383493,44.41097430106027 L8.146280180984125,44.354690470268686 L8.168547363701503,44.304397663382005 L8.192356873575255,44.2610207070089 L8.215957894151869,44.22516109438879 L8.23772481090444,44.19695352010254 L8.27027650844459,44.16224633579961 L8.279031005783962,44.15450271800753 L8.282023040396773,44.152105477744136 " />
			<path d="M8.282023040396773,44.152105477744136 L8.280791059268749,44.15299393816843 L8.277077883398139,44.155526081782625 L8.262286647659081,44.16478515693907 L8.204345192645441,44.19581424469424 L8.131438274050566,44.22919794714647 L8.037507793018035,44.26684099527755 L7.9241664205918525,44.307285678368395 L7.792832305887616,44.34935156417432 L7.644729076092515,44.392135498925064 L7.480885836465325,44.435011607324796 L7.302137170336412,44.47763129255208 L7.109123139107734,44.51992323625992 L6.89532649969223,44.562794445916786 L6.667886973128779,44.60457861077297 L6.427414284650682,44.645139415692995 L6.174519076447737,44.6843494170774 L5.90981290766623,44.72209004286269 L5.633908254408931,44.758251592521376 L5.347418509735108,44.79273323706197 L5.050957983660516,44.825443019028974 L4.745141903157398,44.856297852502884 L4.430586412154489,44.88522352310019 L4.107908571537017,44.912154687973384 L3.7777263591466914,44.937034875810944 L3.4406586697817194,44.95981648683735 L3.097325315196797,44.98046079281307 L2.748347024103107,44.99893793703457 L2.394345442168323,45.015226934334315 L1.9072197453438744,45.03368801177007 L1.413665049765692,45.047947929789345 L0.915383417648481,45.05795383853584 L0.4140668517160093,45.063668529664426 L-0.08860270479892574,45.065070436341166 L-0.5909533681544819,45.062153633243334 L-1.091323314099753,45.05492783655938 L-1.5880607778748042,45.04341840398896 L-2.079524054210655,45.02766633474292 L-2.564081497329264,45.00772826954329 L-3.040111520943557,44.98367649062331 L-3.5060025982574166,44.95559892172741 L-3.9601532619656634,44.923599128111185 L-4.400972104254087,44.887796316541476 L-4.826877776799431,44.848325335296266 L-5.236298990769377,44.80533667416477 L-5.700645174004178,44.74981944258364 L-5.922401573163356,44.720380636313166 L-6.1368147759576495,44.68991701974031 L-6.343580961359299,44.65848875474267 L-6.542387948632104,44.62615432954251 L-6.732911410896545,44.59297671441765 L-6.914811088694889,44.55902951741242 L-7.08772700355629,44.52440314004856 L-7.251275671561912,44.489210933036176 L-7.405046316910038,44.453595351984596 L-7.548597085481168,44.41773411311338 L-7.681451258403137,44.38184634896318 L-7.803093465616232,44.34619876410669 L-7.912965899438285,44.31111179085954 L-8.0104645281298,44.27696574499128 L-8.12511173586705,44.23185728652608 L-8.210647578836682,44.192699915354865 L-8.263893710804028,44.16380234104083 L-8.27751094821494,44.15526719288824 L-8.280924308421067,44.15293858094369 L-8.282023040396785,44.15210547774415 " />
			<path d="M-8.282023040396787,44.15210547774415 L-8.27087768494132,44.161682543529636 L-8.23989630076223,44.194373689334206 L-8.217859039356094,44.222524587926095 L-8.193770207737495,44.258684622016126 L-8.169387138647325,44.30272191557533 L-8.146525617783752,44.354065400760184 L-8.12726834622532,44.41045767225347 L-8.112474612975861,44.47166228051332 L-8.103172758920032,44.536201837128814 L-8.100000000000005,44.60244712432827 " />
			<path d="M-8.100000000000001,50.533273753678124 L-8.100000000000001,44.60244712432827 " />
			<path d="M8.099999999999994,50.533273753678124 L8.099999999999994,44.60244712432827 " />

        </g>

        <!-- solid lines -->
        <g  stroke="rgb(0,0,0)" fill="none">
    			<path d="M-4.938657162882515,49.56118545059635 L-4.4803604611359,49.51155188153923 L-4.000382722548416,49.46686255519275 L-3.50104662073603,49.42733372891817 L-2.9847685069082663,49.393156687757454 L-2.454046716835904,49.36449681878043 L-1.9114494810849039,49.341492810755696 L-1.3596024970204925,49.32425598301787 L-0.8011762227220541,49.31286974677918 L-0.2388729542952316,49.30738920149188 L0.3245862508842818,49.30784086821501 L0.886474741715138,49.31422256127558 L1.444073467983445,49.32650339884531 L1.994684138194241,49.344623952381774 L2.535642276948868,49.36849653421068 L3.0643301186819336,49.398005621857756 L3.5781892753634197,49.43300841707675 L4.074733116865311,49.4733355368684 L4.551558804082563,49.51879183314641 L5.0063589165786055,49.56915733708399 L5.436932618487709,49.62418832357111 L5.642478580828129,49.65337100079508 L5.841196308641,49.68361849063145 L6.03284532405284,49.714894189138995 L6.217193703378788,49.74716024809171 L6.394018357784608,49.78037762078085 L6.563105303257203,49.81450610926718 L6.724249919556956,49.84950441302645 L6.877257197838525,49.88533017892915 L7.021941976640402,49.92194005249405 L7.158129165957707,49.95928973035354 L7.285653959127029,49.9973340138673 L7.4043620322668735,50.03602686381931 L7.514109731032415,50.07532145613213 L7.61476424445853,50.11517023853097 L7.7062037656807165,50.15552498808898 L7.788317639339447,50.19633686958413 L7.861006495489535,50.237556494597065 L7.924182369852475,50.279133981278406 L7.977768810266251,50.32101901471315 L8.02170096920377,50.36316090780921 L8.055925682247974,50.405508662636265 L8.06938434340429,50.426743731532035 L8.080401532428647,50.44801103214082 L8.08897391596142,50.46930412983022 L8.095098900343094,50.49061658216272 L8.098774632398996,50.51194194084483 L8.099999999999996,50.53327375367811 " />
			<path d="M8.099999999999996,50.533273753678124 L8.09756043143925,50.56337155732564 L8.090243195261893,50.59345123118167 L8.078052699097388,50.62349465637542 L8.06099628604479,50.65348373587098 L8.039084230249546,50.6834004053682 L8.012329730714722,50.71322664418403 L7.98074890335042,50.742944486107504 L7.944360771266163,50.77253603022185 L7.903187253312078,50.8019834516874 L7.857253150875803,50.83126901247857 L7.806586132943059,50.8603750720686 L7.751216719430888,50.88928409805554 L7.691178262803593,50.91797867672311 L7.626506927982464,50.94644152353008 L7.483424213341419,51.00260359165783 L7.322313274299887,51.05763500309744 L7.143562241221671,51.111403182358586 L6.9476017410022,51.16377859718788 L6.734903859650613,51.21463507062345 L6.50598100499322,51.26385008496631 L6.261384672238165,51.31130507693616 L6.001704115375164,51.35688572330078 L5.727564927611031,51.4004822162907 L5.439627534260845,51.44198952813569 L5.1385856017255245,51.48130766408591 L4.825164366388705,51.518341903308 L4.500118887458773,51.55300302707585 L4.1642322279650905,51.585207533706345 L3.818313568290575,51.61487783972224 L3.46319625678528,51.64194246675753 L3.0997358021572223,51.666336213755095 L2.728807812476977,51.68800031404178 L2.3513058857611413,51.70688257690246 L1.968139457216433,51.72293751331199 L1.580231608330634,51.73612644552232 L1.1885168430884248,51.746417600240555 L0.7939388366694351,51.75378618517357 L0.39744816205208144,51.75821444875484 L-4.8725115034103345e-15,51.759691722909544 L-0.3974481620520912,51.75821444875484 L-0.7939388366694448,51.75378618517357 L-1.1885168430884345,51.746417600240555 L-1.5802316083306436,51.73612644552232 L-1.9681394572164426,51.72293751331199 L-2.3513058857611506,51.70688257690246 L-2.728807812476988,51.68800031404178 L-3.0997358021572334,51.666336213755095 L-3.4631962567852894,51.64194246675753 L-3.8183135682905878,51.61487783972224 L-4.164232227965104,51.585207533706345 L-4.500118887458785,51.553003027075846 L-4.825164366388716,51.518341903308 L-5.138585601725533,51.48130766408591 L-5.439627534260853,51.44198952813569 L-5.7275649276110405,51.4004822162907 L-6.001704115375175,51.35688572330078 L-6.261384672238175,51.31130507693615 L-6.505981004993228,51.26385008496631 L-6.734903859650621,51.21463507062345 L-6.947601741002207,51.16377859718788 L-7.14356224122168,51.111403182358586 L-7.322313274299896,51.05763500309744 L-7.483424213341427,51.002603591657824 L-7.626506927982471,50.94644152353008 L-7.6911782628036,50.91797867672311 L-7.7512167194308965,50.88928409805554 L-7.8065861329430675,50.8603750720686 L-7.857253150875811,50.83126901247857 L-7.903187253312086,50.8019834516874 L-7.944360771266171,50.77253603022185 L-7.980748903350428,50.7429444861075 L-8.012329730714729,50.71322664418403 L-8.039084230249555,50.6834004053682 L-8.060996286044798,50.65348373587098 L-8.078052699097395,50.62349465637542 L-8.0902431952619,50.59345123118167 L-8.097560431439257,50.56337155732564 L-8.100000000000003,50.53327375367813 " />
			<path d="M-8.100000000000003,50.533273753678124 L-8.096688206530063,50.49820678544676 L-8.086755534262464,50.46316849241451 L-8.07021010540934,50.428187526332 L-8.047065449610997,50.39329249207209 L-8.017340492872359,50.358511924238876 L-7.981059542086664,50.32387426383418 L-7.938252265159071,50.28940783500061 L-7.888953666746421,50.25514082186014 L-7.833204059632982,50.22110124546716 L-7.771049031765618,50.18731694089497 L-7.702539408975295,50.153815534474255 L-7.627731213415443,50.120624421202294 L-7.546685617751136,50.08777074234136 L-7.459468895136565,50.05528136322458 L-7.366152365021715,50.023182851287395 L-7.266812334832531,49.99150145434271 L-7.161530037572292,49.96026307911731 L-7.050391565395208,49.92949327006728 L-6.810914334346991,49.869459591946956 L-6.549163789337644,49.81159674442445 L-6.265995917064737,49.75609395280876 L-5.962336743993033,49.70313272446332 L-5.639179308027132,49.65288625523363 L-5.2975804110407365,49.60551886305552 L-4.938657162882572,49.561185450596355 " />
			<path d="M-25.424938727432174,-48.01905865528434 L-25.424938727432174,41.832964779365966 " />
			<path d="M-25.424938727432174,-48.01905865528434 L-11.157706923549373,-49.68074806226173 " />
			<path d="M-11.157706923549373,-49.68074806226173 L-11.157706923549373,40.17127537238858 " />
			<path d="M-11.157706923549373,40.17127537238857 L-25.424938727432174,41.83296477936596 " />
			<path d="M-25.424938727432178,41.832964779365966 L-25.376325942476647,41.926570000145404 L-25.32068188680205,42.02008541113567 L-25.258013764777765,42.11349890467215 L-25.188329690195893,42.20679838628574 L-25.111638685220733,42.29997177626875 L-25.027950679220687,42.39300701123883 L-24.937276507482665,42.485892045700936 L-24.839627909809188,42.57861485360683 L-24.73501752899847,42.67116342991211 L-24.62345890920747,42.7635257921306 L-24.50496649419832,42.855689981885675 L-24.379555625468257,42.947644066458594 L-24.2472425402633,43.039376140333424 L-24.108044369476033,43.13087432673851 L-23.96197913542754,43.22212677918413 L-23.809065749534092,43.313121682996375 L-23.649324009858596,43.403847256846745 L-23.4827745985473,43.49429175427755 L-23.30943907915205,43.58444346522272 L-23.129339893838356,43.674290717523974 L-22.942500360479812,43.76382187844201 L-22.748944669639023,43.85302535616265 L-22.548697881435608,43.94188960129762 L-22.341785922301646,44.03040310837993 L-22.128235581624843,44.118554417353465 L-21.90807450828013,44.206332115056796 L-21.681331207049823,44.293724836700804 L-21.448035034933092,44.38072126734018 L-21.208216197345017,44.46731014333833 L-20.961905744205822,44.55348025382576 L-20.709135565920768,44.639220442151554 L-20.449938389251237,44.72451960732783 L-20.184347773077498,44.809366705467035 L-19.91239810405377,44.89375075121183 L-19.63412459215612,44.97766081915739 L-19.349563266123695,45.0610860452659 L-19.058750968794044,45.14401562827321 L-18.761725352332952,45.22643883108726 L-18.458524873359536,45.30834498217825 L-18.149188787967198,45.3897234769603 L-17.833757146641,45.470563779164465 L-17.51227078907226,45.55085542220289 L-16.851301198176515,45.709751220958104 L-16.166622313474427,45.866328585408496 L-15.4585887115596,46.02050642839079 L-14.72756706379922,46.17220490538867 L-13.973935946444882,46.32134545588212 L-13.198085644578256,46.46785084403176 L-12.400417949993027,46.6116451986772 L-11.58134595311786,46.752654052628664 L-10.7412938290881,46.89080438123148 L-9.88069661807694,47.026024640183635 L-9.00000000000005,47.158244802586545 " />
			<path d="M8.999999999999993,48.91314646620211 L10.07465612075535,48.97510607121894 L11.157706923549249,49.03361887626798 " />
			<path d="M-11.15770692354937,-49.68074806226173 L-10.222206447282577,-49.630436937220715 L-9.292913760306227,-49.577554111796104 L-8.370137216142282,-49.52211713331792 L-7.454183006156899,-49.464144396623226 L-6.545355057961437,-49.403655137952434 L-5.643954934564636,-49.34066942856642 L-4.750281734309407,-49.27520816808658 L-3.8646319916274123,-49.20729307756001 L-2.9872995786444285,-49.136946692252145 L-2.1185756076690616,-49.06419235416917 L-1.2587483345972394,-48.989054204312865 L-0.40810306326450174,-48.91155717467016 L0.43307794922217013,-48.83172697994038 L1.2645155861415915,-48.74959010900271 L2.0859339637735737,-48.66517381612676 L2.897060522941313,-48.57850611192919 L3.6976261194507742,-48.489615754079345 L4.48736511339677,-48.39853223775707 L5.266015457306395,-48.305285785865685 L6.033318783090351,-48.20990733900363 L6.789020487773463,-48.11242854519786 L7.532869817975815,-48.01288174940256 L8.264619953116537,-47.91129998276661 L8.984028087312709,-47.80771695167329 L9.69085550994599,-47.702167026556076 L10.384867684870535,-47.594685230493916 L11.065834328235567,-47.485307227590084 L11.733529484897204,-47.374069311138285 L12.387731603393718,-47.26100839157997 L13.028223609459765,-47.14616198425689 L13.654792978054935,-47.02956819696294 L14.26723180388278,-46.911265717299415 L14.865336870377,-46.791293799837845 L15.44890971713182,-46.669692253094766 L16.017756705754124,-46.54650142632259 L16.57168908411571,-46.4217621961212 L17.110523048984085,-46.295515952874354 L17.63407980701119,-46.167804587015816 L18.1421856340598,-46.03867047512941 L18.634671932847795,-45.90815646588787 L19.111375288891374,-45.776305865834956 L19.572137524728454,-45.64316242501569 L20.016805752404338,-45.508770322459426 L20.44523242420233,-45.3731741515206 L20.857275381602307,-45.23641890508192 L21.252797902451057,-45.098549960625064 L21.63166874632882,-44.95961306517377 L21.993762198096853,-44.81965432011421 L22.338958109611625,-44.6787201658979 L22.667141939591822,-44.53685736663203 L22.978204791624883,-44.3941129945624 L23.127283373231954,-44.32242500921785 L23.272043450300515,-44.25053441445415 L23.412473014179803,-44.17844717399462 L23.54856041545912,-44.10616926787542 L23.680294364934213,-44.033706691949476 L23.80766393454384,-43.961065457389104 L23.930658558276185,-43.88825159018735 L24.04926803304548,-43.8152711306581 L24.163482519538377,-43.74213013293497 L24.27329254303016,-43.66883466446912 L24.378688994170723,-43.59539080552594 L24.47966312974023,-43.5218046486806 L24.576206573374492,-43.4480822983127 L24.668311316259732,-43.3742298700998 L24.755969717797008,-43.30025349051019 L24.839174506236027,-43.22615929629459 L24.917918779278416,-43.1519534339771 L24.992196004650268,-43.077642059345294 L25.062000020644028,-43.00323133693959 L25.127325036629664,-42.92872743954187 L25.188165633535,-42.85413654766338 L25.244516764295334,-42.77946484903202 L25.296373754272004,-42.7047185380791 L25.34373230164026,-42.62990381542541 L25.386588477746095,-42.55502688736687 L25.424938727432135,-42.480093965359785 " />
			<path d="M25.42493872743217,47.371929469290585 L11.15770692354937,49.03361887626797 " />
			<path d="M-11.15770692354937,40.17127537238857 L-10.222206447282577,40.221586497429584 L-9.292913760306227,40.274469322854195 L-8.370137216142282,40.32990630133238 L-7.454183006156899,40.38787903802707 L-6.545355057961437,40.448368296697865 L-5.643954934564636,40.51135400608388 L-4.750281734309407,40.57681526656372 L-3.8646319916274123,40.64473035709028 L-2.9872995786444285,40.71507674239815 L-2.1185756076690616,40.787831080481126 L-1.2587483345972394,40.862969230337434 L-0.40810306326450174,40.94046625998014 L0.43307794922217013,41.02029645470992 L1.2645155861415915,41.10243332564759 L2.0859339637735737,41.18684961852354 L2.897060522941313,41.27351732272111 L3.6976261194507742,41.36240768057095 L4.48736511339677,41.45349119689323 L5.266015457306395,41.546737648784614 L6.033318783090351,41.64211609564667 L6.789020487773463,41.73959488945244 L7.532869817975815,41.83914168524774 L8.264619953116537,41.94072345188369 L8.984028087312709,42.04430648297701 L9.69085550994599,42.14985640809422 L10.384867684870535,42.25733820415638 L11.065834328235567,42.366716207060215 L11.733529484897204,42.47795412351201 L12.387731603393718,42.59101504307033 L13.028223609459765,42.70586145039341 L13.654792978054935,42.82245523768736 L14.26723180388278,42.94075771735088 L14.865336870377,43.060729634812446 L15.44890971713182,43.18233118155554 L16.017756705754124,43.305522008327706 L16.57168908411571,43.4302612385291 L17.110523048984085,43.556507481775945 L17.63407980701119,43.68421884763448 L18.1421856340598,43.813352959520884 L18.634671932847795,43.94386696876243 L19.111375288891374,44.07571756881534 L19.572137524728454,44.20886100963462 L20.016805752404338,44.34325311219087 L20.44523242420233,44.4788492831297 L20.857275381602307,44.61560452956838 L21.252797902451057,44.753473474025235 L21.63166874632882,44.89241036947653 L21.993762198096853,45.03236911453609 L22.338958109611625,45.17330326875239 L22.667141939591822,45.31516606801827 L22.978204791624883,45.4579104400879 L23.127283373231954,45.52959842543245 L23.272043450300515,45.60148902019614 L23.412473014179803,45.67357626065568 L23.54856041545912,45.745854166774876 L23.680294364934213,45.81831674270082 L23.80766393454384,45.890957977261195 L23.930658558276185,45.96377184446295 L24.04926803304548,46.0367523039922 L24.163482519538377,46.10989330171533 L24.27329254303016,46.18318877018118 L24.378688994170723,46.25663262912436 L24.47966312974023,46.3302187859697 L24.576206573374492,46.4039411363376 L24.668311316259732,46.477793564550495 L24.755969717797008,46.55176994414011 L24.839174506236027,46.62586413835571 L24.917918779278416,46.7000700006732 L24.992196004650268,46.774381375305005 L25.062000020644028,46.84879209771071 L25.127325036629664,46.923295995108425 L25.188165633535,46.99788688698692 L25.244516764295334,47.07255858561828 L25.296373754272004,47.1473048965712 L25.34373230164026,47.22211961922489 L25.386588477746095,47.29699654728343 L25.424938727432135,47.371929469290514 " />
			<path d="M-5.487396847647238,43.52234900979297 L-5.235955709730295,43.4941041752245 L-4.978178290151,43.46720059972951 L-4.444869691720462,43.417545792677856 L-3.890051800817811,43.373624874594995 L-3.316409452120296,43.33565038441641 L-2.726718574262115,43.303806085553056 L-2.1238327567610042,43.278246076636684 L-1.5106694411338804,43.25909404581688 L-0.8901958030245042,43.24644267221833 L-0.2654143936613681,43.240353177454665 L0.3606513898714246,43.24085502936926 L0.9849719352390426,43.24794579943656 L1.6045260755371615,43.26159117451404 L2.216315709104713,43.281725122887885 L2.817380307720965,43.30825021380889 L3.404811242979927,43.341038088972304 L3.9757658615149114,43.37993008366007 L4.527481240961457,43.42473799453968 L5.057287560091738,43.47524499040414 L5.313169149934947,43.50256031297765 L5.562621018420673,43.53120666144591 L5.805341291853348,43.56114936948579 L6.041036242764122,43.59235220198715 L6.269420645364589,43.624777398902665 L6.490218120712223,43.65838572094309 L6.703161471169822,43.69313649706257 L6.90799300375421,43.7289876736767 L7.1044648419828995,43.765895865553524 L7.292339225841337,43.803816408316116 L7.4713887995077295,43.84270341249309 L7.641396886487251,43.88250981905164 L7.802157751822669,43.923187456345964 L7.95347685106412,43.96468709841207 L8.0951710656967,44.00695852453847 L8.227068924740971,44.0499505800407 L8.34901081225824,44.093611238166055 L8.460849160509479,44.137887663053654 L8.56244862853413,44.182726273673666 L8.65368626593272,44.22807280866828 L8.73445166165504,44.27387239201599 L8.804647077613861,44.32006959943969 L8.864187566962501,44.3666085254783 L8.91300107689308,44.41343285114059 L8.93336624556766,44.43693434283463 L8.951028535831082,44.46048591205954 L8.965982603782544,44.48408043305484 L8.97822392492072,44.507710767064594 L8.98774879551269,44.53136976449727 L8.99455433371455,44.55505026708893 L8.99863848044333,44.57874511006905 L8.999999999999996,44.60244712432826 " />
			<path d="M-9.000000000000004,44.60244712432827 L-8.996320229477849,44.56348382629343 L-8.985283926958292,44.52455238959092 L-8.966900117121488,44.485684649499255 L-8.941183832901109,44.44691238921046 L-8.908156103191509,44.40826731384021 L-8.867843935651848,44.36978102450166 L-8.82028029462119,44.33148499246437 L-8.765504074162688,44.2934105334194 L-8.70356006625887,44.255588781871644 L-8.63449892418402,44.21805066568032 L-8.558377121083662,44.180826880768414 L-8.475256903794937,44.1439478660218 L-8.385206241945706,44.10744377839854 L-8.288298772373961,44.07134446826878 L-8.184613738913017,44.03567945500524 L-8.074235927591701,44.00047790284448 L-7.957255597302546,43.96576859703848 L-7.833768405994675,43.931579920316224 L-7.703875332451744,43.89793982967432 L-7.567682593718879,43.86487583351587 L-7.276848654819605,43.800583780713076 L-6.962217685627485,43.7389140122512 L-6.624818604436703,43.6800682029785 L-6.265754786696814,43.62423879272328 L-5.886200456711929,43.57160835696983 L-5.487396847647302,43.522349009792975 " />
			<path d="M25.42493872743217,-42.48009396535971 L25.42493872743217,47.3719294692906 " />
			<path d="M-5.487396847647238,49.45317563914282 L-5.235955709730295,49.42493080457435 L-4.978178290151,49.39802722907936 L-4.444869691720462,49.34837242202771 L-3.890051800817811,49.30445150394485 L-3.316409452120296,49.26647701376626 L-2.726718574262115,49.23463271490291 L-2.1238327567610042,49.209072705986536 L-1.5106694411338804,49.18992067516673 L-0.8901958030245042,49.17726930156818 L-0.2654143936613681,49.17117980680452 L0.3606513898714246,49.17168165871911 L0.9849719352390426,49.17877242878641 L1.6045260755371615,49.19241780386389 L2.216315709104713,49.21255175223774 L2.817380307720965,49.23907684315874 L3.404811242979927,49.271864718322156 L3.9757658615149114,49.31075671300992 L4.527481240961457,49.355564623889535 L5.057287560091738,49.406071619753995 L5.313169149934947,49.4333869423275 L5.562621018420673,49.46203329079576 L5.805341291853348,49.49197599883564 L6.041036242764122,49.523178831337 L6.269420645364589,49.55560402825252 L6.490218120712223,49.58921235029294 L6.703161471169822,49.62396312641242 L6.90799300375421,49.65981430302655 L7.1044648419828995,49.696722494903376 L7.292339225841337,49.73464303766597 L7.4713887995077295,49.77353004184294 L7.641396886487251,49.81333644840149 L7.802157751822669,49.854014085695816 L7.95347685106412,49.89551372776192 L8.0951710656967,49.93778515388832 L8.227068924740971,49.98077720939055 L8.34901081225824,50.02443786751591 L8.460849160509479,50.068714292403506 L8.56244862853413,50.11355290302352 L8.65368626593272,50.15889943801813 L8.73445166165504,50.20469902136584 L8.804647077613861,50.25089622878954 L8.864187566962501,50.29743515482815 L8.91300107689308,50.34425948049044 L8.93336624556766,50.367760972184485 L8.951028535831082,50.39131254140939 L8.965982603782544,50.414907062404694 L8.97822392492072,50.438537396414446 L8.98774879551269,50.46219639384712 L8.99455433371455,50.48587689643878 L8.99863848044333,50.5095717394189 L8.999999999999996,50.53327375367811 " />
			<path d="M8.999999999999996,50.533273753678124 L8.997289368265834,50.56671575773092 L8.989159105846548,50.600137617570944 L8.975614110108209,50.63351920111957 L8.956662540049768,50.66684040055907 L8.932315811388387,50.700081144444866 L8.902588589683026,50.7332214097958 L8.867498781500467,50.76624123415521 L8.82706752362907,50.799120727615595 L8.781319170346753,50.83184008479954 L8.730281278750892,50.86437959678973 L8.673984592158956,50.89671966300088 L8.612463021589877,50.928840802986365 L8.545753625337326,50.960723668172555 L8.473896586647184,50.992349053513635 L8.396935189512647,51.023697909060026 L8.314915792601576,51.05475135143335 L8.135903638110987,51.11589736414403 L7.937291379135191,51.1756397855453 L7.719557490002445,51.23383469091118 L7.483226510722903,51.29034188361738 L7.228867783325801,51.34502523288722 L6.957094080264628,51.3977530017426 L6.668560128194628,51.44839816436996 L6.363961030678924,51.49683871213654 L6.0440305936231615,51.54295794751987 L5.709539557472806,51.58664476524233 L5.361293740431895,51.627793919933545 L5.000132097176415,51.666306279675595 L4.626924697738991,51.7020890648206 L4.242570631433972,51.73505607150492 L3.8479958408725343,51.7651278793219 L3.444150891285803,51.792232042652536 L3.032008680529975,51.8163032651933 L2.6125620952901576,51.83728355726071 L2.1868216191293706,51.85512237549353 L1.7558128981451495,51.869776744616125 L1.3205742700982501,51.881211360969715 L0.8821542629660394,51.88939867756195 L0.44160906894675755,51.894318970430035 L-5.01915570614476e-15,51.89596038615748 L-0.4416090689467676,51.894318970430035 L-0.8821542629660494,51.88939867756195 L-1.3205742700982603,51.881211360969715 L-1.7558128981451593,51.869776744616125 L-2.1868216191293803,51.85512237549353 L-2.612562095290167,51.83728355726071 L-3.0320086805299864,51.8163032651933 L-3.4441508912858145,51.792232042652536 L-3.8479958408725436,51.7651278793219 L-4.242570631433987,51.73505607150492 L-4.626924697739004,51.7020890648206 L-5.0001320971764285,51.666306279675595 L-5.361293740431907,51.627793919933545 L-5.709539557472815,51.58664476524233 L-6.0440305936231695,51.54295794751987 L-6.363961030678934,51.49683871213654 L-6.668560128194639,51.44839816436996 L-6.957094080264638,51.3977530017426 L-7.228867783325809,51.34502523288722 L-7.483226510722911,51.29034188361738 L-7.719557490002452,51.23383469091118 L-7.9372913791352,51.1756397855453 L-8.135903638110996,51.11589736414403 L-8.314915792601585,51.05475135143335 L-8.396935189512654,51.02369790906002 L-8.473896586647191,50.992349053513635 L-8.545753625337333,50.960723668172555 L-8.612463021589885,50.928840802986365 L-8.673984592158964,50.89671966300087 L-8.730281278750901,50.86437959678973 L-8.781319170346762,50.83184008479954 L-8.82706752362908,50.799120727615595 L-8.867498781500476,50.76624123415521 L-8.902588589683033,50.733221409795796 L-8.932315811388394,50.700081144444866 L-8.956662540049775,50.66684040055907 L-8.975614110108216,50.63351920111957 L-8.989159105846555,50.600137617570944 L-8.997289368265841,50.56671575773092 L-9.000000000000004,50.53327375367813 " />
			<path d="M-9.000000000000004,50.533273753678124 L-8.996320229477849,50.49431045564328 L-8.985283926958292,50.455379018940775 L-8.966900117121488,50.41651127884911 L-8.941183832901109,50.37773901856031 L-8.908156103191509,50.339093943190065 L-8.867843935651848,50.300607653851515 L-8.82028029462119,50.26231162181422 L-8.765504074162688,50.22423716276925 L-8.70356006625887,50.186415411221496 L-8.63449892418402,50.148877295030175 L-8.558377121083662,50.111653510118266 L-8.475256903794937,50.07477449537165 L-8.385206241945706,50.03827040774839 L-8.288298772373961,50.00217109761863 L-8.184613738913017,49.96650608435509 L-8.074235927591701,49.93130453219433 L-7.957255597302546,49.896595226388335 L-7.833768405994675,49.862406549666076 L-7.703875332451744,49.82876645902417 L-7.567682593718879,49.79570246286572 L-7.276848654819605,49.73141041006293 L-6.962217685627485,49.66974064160105 L-6.624818604436703,49.61089483232835 L-6.265754786696814,49.555065422073135 L-5.886200456711929,49.502434986319685 L-5.487396847647302,49.45317563914283 " />
			<path d="M-9.000000000000004,50.533273753678124 L-9.000000000000004,44.60244712432827 " />
			<path d="M8.999999999999993,50.533273753678124 L8.999999999999993,44.60244712432827 " />

        </g>
        </g>
    </svg>
    