<?xml version="1.0" encoding="UTF-8" standalone="no"?>
    <svg
    xmlns:svg="http://www.w3.org/2000/svg"
    xmlns="http://www.w3.org/2000/svg"
    width="416"
    height="231"
    >
        <g transform="scale(4, -4)   translate(51.89282333569898,-28.997936573637958)" stroke-width="0.25"  fill="none">
        <!-- hidden lines -->
        <g  stroke="rgb(160,160,160)" fill="none" stroke-dasharray="0.25,0.25" >
    			<path d="M-49.39282333569898,-7.553228896856849 L7.21975940688592,17.53709554493323 " />
			<path d="M7.219759406885924,17.537095544933226 L7.219759406885924,26.497936573637954 " />
			<path d="M49.61311035733408,-1.3099823721834074 L7.219759406885927,17.53709554493323 " />
			<path d="M-2.8475823584463535,-10.446891832698865 L-3.169562111715755,-10.335926838794904 L-3.555556244212756,-10.260014092717338 L-3.9953977038201316,-10.221153129642362 L-4.47750110447458,-10.220367543981506 L-4.989167884235181,-10.25767802799324 L-5.516920784308312,-10.332101826750662 L-6.046858838880451,-10.441678623821415 L-6.56502352535727,-10.583522175833217 L-7.057766430643373,-10.753896335875059 L-7.512108749164623,-10.9483134632842 L-7.9160831434861585,-11.161652627713678 L-8.25904896294699,-11.388294493995453 L-8.53197251747952,-11.622269334943446 L-8.727665024225836,-11.857414273452113 " />
			<path d="M-8.727665024225841,-11.85741427345212 L-8.861777775248019,-12.172647169310272 L-8.83232538163047,-12.462509376284236 L-8.640784709371674,-12.712465992957126 L-8.296760407582902,-12.90998315084099 L-7.81750329127628,-13.045156514879675 L-7.227045313466934,-13.111207928165449 L-6.554994502700106,-13.104825297029471 L-5.8350502928675425,-13.026328673248447 L-5.103313692875576,-12.879654205312125 L-4.396477031313857,-12.672156763502091 L-3.749984049886063,-12.414241135984598 L-3.1962526062006704,-12.118840289285279 L-2.763049107025296,-11.800766855344198 L-2.472096184708956,-11.475970364298218 " />
			<path d="M-2.4720961847089447,-11.475970364298206 L-2.4189836497077186,-11.387336355883827 L-2.378065046943145,-11.29977325537093 L-2.349497237412737,-11.213616734907744 L-2.333389735488864,-11.129197074533892 L-2.329804289096641,-11.046837896055644 L-2.3387546430039645,-10.966854922445389 L-2.3602064861310996,-10.88955476752123 L-2.394077583081815,-10.815233760546397 L-2.4402380893918405,-10.744176810254407 L-2.498511049286133,-10.67665631265466 L-2.568673074036832,-10.612931106805458 L-2.650455198321403,-10.553245482557411 L-2.7435439112981292,-10.497828244071087 L-2.8475823584463376,-10.446891832698872 " />
			<path d="M19.170803609740123,-0.6884879432611166 L18.848823856470695,-0.577522949357149 L18.462829723973655,-0.5016102032795811 L18.022988264366237,-0.4627492402046087 L17.54088486371174,-0.4619636545437631 L17.029218083951093,-0.4992741385555126 L16.50146518387791,-0.5736979373129589 L15.971527129305736,-0.6832747343837369 L15.453362442828887,-0.8251182863955675 L14.960619537542765,-0.9954924464374413 L14.506277219021513,-1.1899095738466126 L14.102302824699992,-1.403248738276123 L13.759337005239198,-1.6298906045579242 L13.486413450706715,-1.8638654455059385 L13.290720943960476,-2.099010384014615 " />
			<path d="M13.290720943960466,-2.099010384014628 L13.156608192938378,-2.4142432798729785 L13.186060586556248,-2.7041054868470824 L13.37760125881558,-2.954062103520028 L13.721625560605059,-3.1515792614038403 L14.2008826769125,-3.2867526254423596 L14.791340654722704,-3.3528040387278497 L15.463391465490343,-3.3464214075914804 L16.183335675323583,-3.2679247838099768 L16.915072275316014,-3.121250315873117 L17.6219089368779,-2.913752874062527 L18.268401918305518,-2.6558372465444977 L18.822133361990346,-2.3604363998447098 L19.255336861164764,-2.0423629659032696 L19.546289783479764,-1.717566474857088 " />
			<path d="M19.546289783479786,-1.7175664748570623 L19.599402318480422,-1.6289324664429565 L19.64032092124447,-1.5413693659303402 L19.66888873077441,-1.4552128454674373 L19.68499623269788,-1.3707931850938722 L19.68858167908977,-1.2884340066159048 L19.679631325182186,-1.2084510330059257 L19.65817948205485,-1.1311508780820336 L19.62430838510401,-1.0568298711074604 L19.578147878793924,-0.9857729208157155 L19.519874918899646,-0.9182524232161984 L19.449712894149023,-0.8545272173672069 L19.367930769864596,-0.7948415931193513 L19.27484205688808,-0.7394243546331949 L19.17080360974015,-0.6884879432611317 " />
			<path d="M-13.44592009605839,-5.735122353419706 L-13.767899849327762,-5.624157359515755 L-14.153893981824721,-5.5482446134381895 L-14.593735441432047,-5.509383650363207 L-15.075838842086444,-5.5085980647023405 L-15.58750562184699,-5.545908548714057 L-16.115258521920072,-5.620332347471456 L-16.645196576492168,-5.729909144542179 L-17.16336126296895,-5.8717526965539495 L-17.656104168255034,-6.0421268565957575 L-18.110446486776283,-6.236543984004861 L-18.514420881097834,-6.449883148434308 L-18.8573867005587,-6.676525014716052 L-19.130310255091292,-6.91049985566402 L-19.326002761837685,-7.145644794172669 " />
			<path d="M-19.32600276183769,-7.145644794172675 L-19.460115512860014,-7.460877690030863 L-19.430663119242592,-7.750739897004871 L-19.2391224469839,-8.000696513677811 L-18.895098145195202,-8.198213671561724 L-18.415841028888625,-8.33338703560046 L-17.825383051079292,-8.399438448886276 L-17.15333224031245,-8.393055817750332 L-16.433388030479858,-8.31455919396933 L-15.701651430487843,-8.167884726033023 L-14.994814768926066,-7.960387284222993 L-14.348321787498213,-7.702471656705492 L-13.794590343812768,-7.40707081000616 L-13.361386844637359,-7.088997376065061 L-13.070433922320992,-6.764200885019061 " />
			<path d="M-13.070433922320982,-6.764200885019048 L-13.017321387319758,-6.675566876604668 L-12.976402784555184,-6.588003776091772 L-12.947834975024774,-6.501847255628585 L-12.931727473100903,-6.4174275952547335 L-12.928142026708677,-6.335068416776485 L-12.937092380616,-6.25508544316623 L-12.958544223743136,-6.17778528824207 L-12.992415320693851,-6.103464281267239 L-13.038575827003879,-6.032407330975248 L-13.096848786898171,-5.964886833375502 L-13.167010811648868,-5.9011616275262995 L-13.24879293593344,-5.841476003278253 L-13.341881648910167,-5.78605876479193 L-13.445920096058376,-5.7351223534197135 " />
			<path d="M8.572465872128085,4.023281536018041 L8.250486118858689,4.134246529922001 L7.864491986361691,4.210159275999567 L7.424650526754323,4.249020239074547 L6.94254712609988,4.249805824735402 L6.430880346339289,4.21249534072367 L5.903127446266164,4.13807154196625 L5.373189391694034,4.028494744895504 L4.855024705217221,3.886651192883704 L4.362281799931118,3.7162770328418677 L3.907939481409869,3.521859905432734 L3.503965087088334,3.3085207410032584 L3.160999267627499,3.0818788747214896 L2.888075713094957,2.8479040337734993 L2.6923832063486373,2.6127590952648405 " />
			<path d="M2.6923832063486266,2.6127590952648276 L2.558270455326407,2.2975261994065477 L2.587722848944047,2.00766399243248 L2.779263521203065,1.757707375759531 L3.1232878229921672,1.5601902178756637 L3.6025449392991975,1.425016853837037 L4.193002917108993,1.3589654405513878 L4.865053727876261,1.3653480716875537 L5.584997937709206,1.4438446954688189 L6.316734537701448,1.5905191634054203 L7.023571199263291,1.7980166052157474 L7.6700641806910275,2.0559322327335305 L8.223795624376152,2.3513330794331075 L8.656999123551037,2.6694065133743914 L8.947952045866677,2.994203004420487 " />
			<path d="M8.9479520458667,2.9942030044205126 L9.00106458086761,3.082837012834746 L9.041983183631903,3.1704001133474913 L9.07055099316206,3.2565566338105274 L9.086658495085718,3.340976294184224 L9.090243941477762,3.4233354726623215 L9.0812935875703,3.50331844627243 L9.05984174444306,3.5806186011964467 L9.025970647492276,3.654939608171139 L8.979810141182224,3.725996558462999 L8.921537181287938,3.7935170560626226 L8.85137515653728,3.8572422619117113 L8.769593032252791,3.9169278861596553 L8.676504319276178,3.9723451246458907 L8.572465872128115,4.023281536018027 " />
			<path d="M-0.2941339126917565,0.8411122961436099 L-8.727665021380991,-11.857414269168576 " />
			<path d="M5.961434921488135,1.2225561972614933 L-2.4720961871963487,-11.47597036804354 " />
			<path d="M21.72425205549522,10.599516185582107 L13.2907209468056,-2.099010379730659 " />
			<path d="M27.979820889644685,10.980960086654182 L19.546289780980025,-1.717566478621002 " />
			<path d="M-10.892471650303452,5.552881775423286 L-19.326002758992782,-7.1456447898890465 " />
			<path d="M-4.636902816126767,5.934325676536339 L-13.070433924808388,-6.76420088876438 " />
			<path d="M11.125914317883371,15.31128566486155 L2.692383209193812,2.612759099548877 " />
			<path d="M17.38148315203815,15.692729565941622 L8.947952043366634,2.994203000656114 " />

        </g>

        <!-- solid lines -->
        <g  stroke="rgb(0,0,0)" fill="none">
    			<path d="M-6.999472385250822,-26.400306813973483 L-6.999472385250822,-17.439465785268755 " />
			<path d="M-6.999472385250822,-17.439465785268755 L-49.39282333569898,1.4076121318478805 " />
			<path d="M-49.39282333569898,-7.553228896856849 L-49.39282333569898,1.4076121318478787 " />
			<path d="M-6.999472385250822,-26.400306813973483 L-49.39282333569898,-7.553228896856847 " />
			<path d="M-6.999472385250822,-26.400306813973483 L49.61311035733408,-1.3099823721834056 " />
			<path d="M49.61311035733408,-1.3099823721834074 L49.61311035733408,7.65085865652132 " />
			<path d="M-6.999472385250822,-17.439465785268755 L49.61311035733408,7.650858656521322 " />
			<path d="M-49.39282333569898,1.4076121318478787 L7.21975940688592,26.497936573637958 " />
			<path d="M49.61311035733408,7.65085865652132 L7.219759406885927,26.497936573637958 " />
			<path d="M5.58594875024271,2.2516347326130672 L5.263968996973292,2.362599726517032 L4.877974864476265,2.4385124725945997 L4.438133404868861,2.4773734356695747 L3.95603000421438,2.478159021330423 L3.4443632244537485,2.440848537318678 L2.9166103243805894,2.3664247385612405 L2.386672269808425,2.2568479414904723 L1.8685075833315872,2.115004389478651 L1.375764678045471,1.944630229436787 L0.9214223595242186,1.7502131020276277 L0.517447965202694,1.5368739375981275 L0.17448214574188636,1.310232071316336 L-0.0984414087906127,1.076257230368328 L-0.29413391553687473,0.8411122918596603 " />
			<path d="M-0.2941339155368854,0.8411122918596474 L-0.42824666655904675,0.5258793960011223 L-0.3987942729410703,0.23601718902687452 L-0.2072536006814545,-0.013939427646157299 L0.13677070110845513,-0.2114565855299837 L0.6160278174164384,-0.3466299495684293 L1.206485795227242,-0.4126813628537578 L1.8785366059954738,-0.4062987317171416 L2.598480815829231,-0.3278021079353186 L3.330217415822036,-0.18112763999808656 L4.0370540773841,0.026369801812899496 L4.683547058811648,0.2842854293313195 L5.237278502496126,0.5796862760314578 L5.670482001669894,0.8977597099731729 L5.961434923983965,1.2225562010195232 " />
			<path d="M5.961434923983988,1.222556201019549 L6.014547458984202,1.3111902094334575 L6.055466061747869,1.3987533099458722 L6.084033871277477,1.4849098304085722 L6.10014137320066,1.5693294907819348 L6.10372681959231,1.6516886692597006 L6.094776465684532,1.7316716428694816 L6.073324622557062,1.8089717977931814 L6.03945352560613,1.8832928047675703 L5.993293019296008,1.9543497550591415 L5.935020059401736,2.0218702526584944 L5.864858034651171,2.0855954585073353 L5.783075910366849,2.145281082755055 L5.689987197390481,2.2006983212410893 L5.585948750242741,2.251634732613052 " />
			<path d="M27.60433471842919,12.010038622050816 L27.28235496515979,12.121003615954775 L26.89636083266279,12.19691636203234 L26.456519373055418,12.23577732510732 L25.974415972400973,12.236562910768175 L25.462749192640377,12.199252426756445 L24.93499629256725,12.12482862799902 L24.405058237995114,12.015251830928271 L23.8868935515183,11.873408278916472 L23.394150646232195,11.703034118874632 L22.93980832771095,11.508616991465496 L22.535833933389412,11.295277827036017 L22.19286811392858,11.068635960754248 L21.919944559396043,10.834661119806258 L21.724252052649728,10.599516181297593 " />
			<path d="M21.724252052649717,10.59951618129758 L21.59013930162758,10.284283285439738 L21.61959169524484,9.994421078466013 L21.81113236750303,9.744464461793257 L22.155156669290932,9.546947303909384 L22.63441378559649,9.411773939870528 L23.224871763404693,9.345722526584417 L23.896922574170407,9.352105157719903 L24.616866784002006,9.430601781500306 L25.348603383993293,9.577276249435915 L26.055440045554707,9.784773691245192 L26.70193302698268,10.042689318761948 L27.255664470668776,10.338090165460612 L27.6888679698454,10.656163599401182 L27.979820892163517,10.980960090446846 " />
			<path d="M27.979820892163538,10.980960090446871 L28.032933427165563,11.069594098861625 L28.07385202993086,11.1571571993749 L28.1024198394619,11.243313719838474 L28.118527341386315,11.32773338021271 L28.12211278777899,11.410092558691343 L28.113162433872027,11.490075532301972 L28.09171059074516,11.567375687226498 L28.05783949379461,11.641696694201679 L28.011678987484665,11.712753644493999 L27.95340602759035,11.780274142094056 L27.88324400283954,11.843999347943544 L27.801461878554772,11.903684972191849 L27.708373165577765,11.959102210678402 L27.604334718429218,12.010038622050802 " />
			<path d="M-5.012388987369328,6.963404211892225 L-5.334368740638702,7.074369205796179 L-5.72036287313567,7.150281951873744 L-6.160204332743005,7.189142914948726 L-6.642307733397413,7.189928500609591 L-7.153974513157968,7.152618016597871 L-7.681727413231056,7.078194217840467 L-8.211665467803158,6.96861742076974 L-8.729830154279949,6.826773868757964 L-9.222573059566038,6.65639970871615 L-9.676915378087283,6.461982581307041 L-10.080889772408831,6.248643416877588 L-10.423855591869689,6.0220015505958395 L-10.69677914640227,5.788026709647868 L-10.892471653148645,5.552881771139221 " />
			<path d="M-10.892471653148656,5.552881771139209 L-11.026584404170983,5.23764887528086 L-10.997132010553392,4.947786668306728 L-10.80559133829436,4.697830051633725 L-10.461567036505183,4.500312893749823 L-9.982309920198034,4.365139529711186 L-9.391851942388083,4.299088116425556 L-8.719801131620645,4.305470747561769 L-7.9998569217875435,4.383967371343106 L-7.268120321795168,4.5306418392798 L-6.561283660233244,4.738139281090233 L-5.914790678805492,4.996054908608126 L-5.36105923512043,5.291455755307807 L-4.927855735945695,5.609529189249178 L-4.636902813630295,5.934325680295335 " />
			<path d="M-4.636902813630272,5.934325680295361 L-4.583790278629477,6.022959688709542 L-4.542871675865288,6.110522789222234 L-4.514303866335221,6.196679309685214 L-4.4981963644116405,6.281098970058858 L-4.494610918019662,6.3634581485369015 L-4.503561271927179,6.4434411221469565 L-4.525013115054457,6.520741277070922 L-4.5588842120052675,6.595062284045564 L-4.605044718315335,6.666119234337377 L-4.66331767820962,6.733639731936956 L-4.733479702960264,6.797364937786005 L-4.815261827244731,6.857050562033913 L-4.908350540221307,6.912467800520114 L-5.012388987369296,6.963404211892211 " />
			<path d="M17.00599698081715,16.721808101329977 L16.684017227547773,16.832773095233925 L16.29802309505081,16.90868584131149 L15.858181635443476,16.947546804386477 L15.37607823478907,16.94833239004734 L14.864411455028517,16.91102190603562 L14.33665855495543,16.836598107278217 L13.806720500383332,16.72702131020749 L13.288555813906534,16.585177758195716 L12.795812908620452,16.414803598153902 L12.341470590099199,16.220386470744792 L11.937496195777655,16.007047306315343 L11.594530376316794,15.780405440033594 L11.321606821784215,15.546430599085621 L11.125914315037836,15.31128566057698 " />
			<path d="M11.125914315037825,15.311285660576967 L10.991801564015503,14.99605276471866 L11.021253957633048,14.706190557744561 L11.212794629891995,14.456233941071575 L11.556818931681043,14.258716783187673 L12.036076047988045,14.12354341914901 L12.626534025797833,14.057492005863331 L13.298584836565112,14.063874636999474 L14.01852904639808,14.14237126078072 L14.750265646390359,14.289045728717314 L15.457102307952242,14.49654317052764 L16.103595289380017,14.75445879804543 L16.65732673306518,15.049859644745018 L17.09053023224009,15.367933078686315 L17.381483154555745,15.692729569732421 " />
			<path d="M17.381483154555767,15.692729569732448 L17.434595689556673,15.781363578146681 L17.47551429232097,15.868926678659427 L17.504082101851125,15.95508319912246 L17.520189603774785,16.03950285949616 L17.52377505016683,16.121862037974257 L17.514824696259364,16.201845011584364 L17.493372853132122,16.27914516650838 L17.459501756181346,16.353466173483074 L17.413341249871287,16.424523123774932 L17.355068289977005,16.492043621374556 L17.284906265226347,16.555768827223645 L17.203124140941853,16.615454451471592 L17.110035427965244,16.670871689957828 L17.00599698081718,16.72180810132996 " />

        </g>
        </g>
    </svg>
    