<?xml version='1.0' encoding='utf-8'?>
<svg width="50.12411mm" height="100.09mm" viewBox="-25.337335 -51.93322 50.674669 101.189381" version="1.1" xmlns="http://www.w3.org/2000/svg">
  <g transform="scale(1,-1)" stroke-linecap="round">
    <g fill="none" stroke="rgb(0,0,0)" stroke-width="0.09098855277943761" id="Visible">
      <path d="M -4.938657,49.553702 A 8.1,1.2260233664709683 -8.044065879194296e-16 0,1 8.1,50.525478" />
      <path d="M 8.1,50.525478 A 8.1,1.2260233664709683 -8.044065879194296e-16 0,1 -8.1,50.525478" />
      <path d="M -8.1,50.525478 A 8.1,1.2260233664709683 -8.044065879194296e-16 0,1 -4.938657,49.553702" />
      <path d="M -5.487397,43.514856 A 9.0,1.3622481849677426 -8.044065879194296e-16 0,1 9.0,44.594606" />
      <path d="M -9.0,44.594606 A 9.0,1.3622481849677426 -8.044065879194296e-16 0,1 -5.487397,43.514856" />
      <path d="M -5.487397,49.445727 A 9.0,1.3622481849677426 -8.044065879194296e-16 0,1 9.0,50.525478" />
      <path d="M 9.0,50.525478 A 9.0,1.3622481849677426 -8.044065879194296e-16 0,1 -9.0,50.525478" />
      <path d="M -9.0,50.525478 A 9.0,1.3622481849677426 -8.044065879194296e-16 0,1 -5.487397,49.445727" />
      <path d="M -25.29184,-44.853157 A 3.0,0.45408272832258084 -7.038557644295008e-16 0,1 -24.120973,-45.213074" />
      <path d="M -25.29184,39.068673 A 3.0,0.45408272832258084 -7.038557644295008e-16 0,1 -24.120973,38.708757" />
      <line x1="-24.120973" y1="-45.213074" x2="-24.120973" y2="38.708757" />
      <path d="M -22.29184,42.034109 A 3.0,2.949463570219663 145.45293705778977 0,1 -24.762822,40.769922" />
      <path d="M -22.29184,42.034109 A 51.5,7.795086836204304 180.0 0,0 -9.0,46.498874" />
      <path d="M 9.0,48.413828 A 51.5,7.795086836204304 180.0 0,0 10.632541,48.512613" />
      <path d="M 10.632541,48.512613 A 3.0,1.053635706350959 93.29279165910903 0,1 10.460225,48.542224" />
      <path d="M -22.638791,-47.833027 A 3.0,1.8080580553562737 83.35887020056403 0,0 -24.120973,-45.213074" />
      <path d="M -22.29184,42.034109 A 3.0,1.8080580553562737 -96.64112979943597 0,1 -24.120973,38.708757" />
      <line x1="-12.461673" y1="-46.570583" x2="-24.120973" y2="-45.213074" />
      <line x1="-12.461673" y1="37.351247" x2="-24.120973" y2="38.708757" />
      <line x1="-12.461673" y1="-46.570583" x2="-12.461673" y2="37.351247" />
      <line x1="-10.632541" y1="40.6766" x2="-22.29184" y2="42.034109" />
      <line x1="10.632541" y1="48.512613" x2="22.29184" y2="47.155103" />
      <path d="M -10.632541,40.6766 A 51.5,7.795086836204304 -4.022032939597148e-16 0,1 22.29184,47.155103" />
      <path d="M 10.632541,48.512613 A 3.0,1.8080580553562697 83.35887020056406 0,0 10.979491,48.527047" />
      <path d="M -10.979491,-49.190536 A 3.0,1.808058055356271 83.35887020056406 0,0 -12.461673,-46.570583" />
      <path d="M -10.632541,40.6766 A 3.0,1.808058055356271 -96.64112979943596 0,1 -12.461673,37.351247" />
      <line x1="-9.566624" y1="-46.63512" x2="-9.566624" y2="37.28671" />
      <path d="M -9.566624,-46.63512 A 3.0,0.45408272832258084 180.0 0,0 -12.461673,-46.570583" />
      <path d="M -9.566624,37.28671 A 3.0,0.45408272832258084 180.0 0,0 -12.461673,37.351247" />
      <path d="M -10.460225,-49.205713 A 3.0,1.0536357063509472 93.292791659109 0,1 -9.566624,-46.63512" />
      <path d="M -9.566624,-46.63512 A 54.5,8.249169564526886 -4.022032939597148e-16 0,1 25.275682,-39.779228" />
      <path d="M 24.762822,-41.433412 A 3.0,2.9494635702196623 145.45293705778926 0,1 25.275682,-39.779228" />
      <path d="M 22.29184,47.155103 A 3.0,1.808058055356272 83.35887020056404 0,0 22.638791,47.169538" />
      <path d="M -10.632541,40.6766 A 3.0,1.0536357063509472 -86.70720834089101 0,0 -9.566624,37.28671" />
      <path d="M -9.566624,37.28671 A 54.5,8.249169564526886 -4.022032939597148e-16 0,1 25.275682,44.142602" />
      <path d="M 22.29184,47.155103 A 3.0,2.9494635702196623 -34.54706294221075 0,0 25.275682,44.142602" />
      <path d="M 25.29184,-39.732163 A 3.0,0.45408272832258084 180.0 0,0 25.275682,-39.779228" />
      <path d="M 25.29184,44.189668 A 3.0,0.45408272832258084 180.0 0,0 25.275682,44.142602" />
      <line x1="25.275682" y1="-39.779228" x2="25.275682" y2="44.142602" />
      <line x1="-25.29184" y1="-44.853157" x2="-25.29184" y2="39.068673" />
      <path d="M -24.762822,40.769922 C -24.387302,41.311956 -23.949364,41.736329 -23.479078,42.105023 C -23.007164,42.472715 -22.502902,42.78473 -21.950766,43.074975 C -20.905917,43.622221 -19.694157,44.091037 -18.276596,44.533698 C -15.800946,45.303494 -12.68896,45.980371 -9.0,46.572828" />
      <path d="M 9.0,48.454362 Q 9.72587,48.499965 10.460225,48.542224" />
      <path d="M -25.29184,-44.853157 A 3.0,3.0 -90.90367520859903 0,1 -22.638791,-47.833027" />
      <path d="M -24.762822,40.769922 A 3.0,3.0 -90.90367520859903 0,1 -25.29184,39.068673" />
      <path d="M 10.979491,48.527047 A 3.0,3.0 -111.71272285973266 0,1 10.460225,48.542224" />
      <line x1="-10.979491" y1="-49.190536" x2="-22.638791" y2="-47.833027" />
      <path d="M -10.460225,-49.205713 C -5.43798,-48.916942 -0.708,-48.509283 3.51551,-47.999793 C 7.741829,-47.490206 11.460019,-46.88046 14.534541,-46.184892 C 15.914108,-45.873326 17.166148,-45.542629 18.290659,-45.192802 C 19.69018,-44.755194 20.88889,-44.291763 21.924167,-43.752398 C 22.482227,-43.460637 22.99139,-43.147066 23.46772,-42.777376 C 23.942391,-42.406646 24.38423,-41.979796 24.762822,-41.433412" />
      <line x1="10.979491" y1="48.527047" x2="22.638791" y2="47.169538" />
      <line x1="-9.0" y1="50.525478" x2="-9.0" y2="44.594606" />
      <line x1="9.0" y1="50.525478" x2="9.0" y2="44.594606" />
      <line x1="25.29184" y1="-39.732163" x2="25.29184" y2="44.189668" />
      <path d="M -10.979491,-49.190536 A 3.0,3.0 68.2872771402671 0,1 -10.460225,-49.205713" />
      <path d="M 24.762822,-41.433412 A 3.0,3.0 101.13182987083563 0,1 25.29184,-39.732163" />
      <path d="M 25.29184,44.189668 A 3.0,3.0 101.13182987083563 0,1 22.638791,47.169538" />
    </g>
    <g fill="none" stroke="rgb(99,99,99)" stroke-width="0.09098855277943761" id="Hidden" stroke-dasharray="0.002311 0.274121">
      <path d="M -5.487397,42.625225 A 0.9,0.5424174166068818 -96.64112979943597 0,1 -4.938657,43.622831" />
      <path d="M 9.0,44.594606 A 9.0,1.3622481849677426 -8.044065879194296e-16 0,1 -9.0,44.594606" />
      <line x1="10.875406" y1="47.633086" x2="22.534706" y2="46.275577" />
      <line x1="24.39184" y1="-39.732163" x2="24.39184" y2="44.189668" />
      <path d="M 24.021528,-40.923037 A 2.1,2.1 101.13182987083563 0,1 24.39184,-39.732163" />
      <line x1="-10.875406" y1="-48.296575" x2="-22.534706" y2="-46.939066" />
      <path d="M -24.39184,-44.853157 A 2.1,2.1 -90.90367520859903 0,1 -22.534706,-46.939066" />
      <line x1="-24.39184" y1="-44.853157" x2="-24.39184" y2="39.068673" />
      <path d="M -24.021528,40.259548 A 2.1,2.1 -90.90367520859903 0,1 -24.39184,39.068673" />
      <path d="M -10.51192,-48.307199 C -6.403839,-48.070977 -2.49242,-47.755023 1.100477,-47.368982 C 4.694358,-46.98301 7.969716,-46.526951 10.832275,-46.012407 C 13.891189,-45.46225 16.474946,-44.848684 18.539398,-44.167921 C 19.83788,-43.73819 20.932639,-43.285883 21.850799,-42.768168 C 22.288783,-42.520401 22.686322,-42.257215 23.05027,-41.958891 C 23.413358,-41.66006 23.742855,-41.326092 24.021528,-40.923037" />
      <path d="M 10.875406,47.633086 A 2.1,2.1 -111.71272285973266 0,1 10.51192,47.64371" />
      <path d="M 8.1,44.594606 C 8.10116,44.503307 8.11659,44.420705 8.14629,44.3468 C 8.204683,44.200104 8.285601,44.141329 8.282134,44.144094" />
      <path d="M 8.282134,44.144094 C 8.281692,44.146393 8.255848,44.160934 8.204601,44.187719 C 8.037608,44.272865 7.640826,44.402558 7.110322,44.511574 C 6.008207,44.744532 4.29697,44.927526 2.396799,45.00686 C -0.182415,45.119516 -3.098103,45.03864 -5.2334,44.797466 C -5.870797,44.726609 -6.439726,44.642674 -6.913591,44.551154 C -7.386884,44.460194 -7.766692,44.359085 -8.010364,44.268995 C -8.181493,44.207916 -8.282779,44.14627 -8.282134,44.144094" />
      <path d="M -8.282134,44.144094 Q -8.280853,44.142128 -8.239992,44.186364 Q -8.194398,44.235224 -8.146576,44.346069 Q -8.101764,44.457163 -8.1,44.594606" />
      <line x1="-8.1" y1="50.525478" x2="-8.1" y2="44.594606" />
      <line x1="8.1" y1="50.525478" x2="8.1" y2="44.594606" />
      <path d="M -9.0,46.572828 C -3.924443,47.38766 2.238884,48.030136 9.0,48.454362" />
      <path d="M -10.875406,-48.296575 A 2.1,2.1 68.2872771402671 0,1 -10.51192,-48.307199" />
      <path d="M 24.39184,44.189668 A 2.1,2.1 101.13182987083563 0,1 22.534706,46.275577" />
      <path d="M -24.021528,40.259548 C -23.736332,40.671909 -23.398212,41.011991 -23.025023,41.316039 C -22.650924,41.619524 -22.241757,41.886976 -21.789897,42.138859 C -20.882201,42.643338 -19.803897,43.086485 -18.52991,43.507555 C -16.456882,44.190418 -13.860913,44.805682 -10.786949,45.357053 C -7.927635,45.869623 -4.658113,46.323958 -1.07205,46.708544 C 2.51304,47.093201 6.41467,47.40811 10.51192,47.64371" />
    </g>
  </g>
</svg>