<?xml version="1.0" encoding="UTF-8" standalone="no"?>
    <svg
    xmlns:svg="http://www.w3.org/2000/svg"
    xmlns="http://www.w3.org/2000/svg"
    width="415"
    height="231"
    >
        <g transform="scale(4, -4)   translate(52.101933318057576,-28.879096309375868)" stroke-width="0.25"  fill="none">
        <!-- hidden lines -->
        <g  stroke="rgb(160,160,160)" fill="none" stroke-dasharray="0.25,0.25" >
    			<path d="M-49.601933318057576,-7.6825003788006105 L6.922603189135579,17.41551024582612 " />
			<path d="M6.922603189135582,17.41551024582612 L6.922603189135582,26.379096309375868 " />
			<path d="M49.381988896113626,-1.3787453523365434 L6.922603189135586,17.41551024582612 " />
			<path d="M-3.0466022707073694,-10.540427296794626 L-3.491358806723264,-10.400569679787186 L-4.043897163274179,-10.324355170032813 L-4.678361137240924,-10.315350249064377 L-5.365060790923794,-10.373976304940953 L-6.071861801850886,-10.4974899132634 L-6.765689198327101,-10.680111216566793 L-7.414075112954173,-10.91329439453636 L-7.986678126517575,-11.186127568309615 L-8.456703104073592,-11.485843425219308 L-8.802155081568253,-11.79841666913455 L-9.00686852697626,-12.109220338526836 L-9.061263811366981,-12.40371027965422 L-8.962795490600188,-12.668105744729566 L-8.71607142017111,-12.89003426627123 " />
			<path d="M-8.716071420171104,-12.890034266271236 L-8.316804141299288,-13.064008347392736 L-7.7910640192835645,-13.172624164490802 L-7.165213859141366,-13.210435266955987 L-6.4706364012248905,-13.175545648225274 L-5.7421606595769425,-13.069704819468178 L-5.016315449733524,-12.898220081791393 L-4.329497681381819,-12.669690395999933 L-3.7161472653282166,-12.395575194796244 L-3.207020152561924,-12.08961975897407 L-2.8276461024467165,-11.767165971644175 L-2.5970485139834407,-11.444383012153025 L-2.5267905131493142,-11.13745656591377 L-2.6203951294780206,-10.86177720655406 L-2.8731686366479945,-10.63116864828895 " />
			<path d="M-2.8731686366480043,-10.631168648288941 L-2.8844669861971823,-10.624244335761901 L-2.895935787702019,-10.617386581347397 L-2.9075743694178975,-10.610595786714224 L-2.919382049655918,-10.603872349609238 L-2.931358136822838,-10.597216663834065 L-2.9435019294615703,-10.590629119222037 L-2.9558127162922636,-10.584110101615355 L-2.968289776253986,-10.577659992842502 L-2.980932378546928,-10.571279170695853 L-2.993739782675229,-10.564968008909577 L-3.0067112384903414,-10.558726877137726 L-3.019845986234966,-10.552556140932595 L-3.0331432565875556,-10.546456161723299 L-3.046602270707353,-10.540427296794633 " />
			<path d="M18.937539790913036,-0.7790340129127271 L18.492783254897144,-0.6391763959052872 L17.940244898346233,-0.5629618861509158 L17.30578092437949,-0.55395696518248 L16.619081270696626,-0.6125830210590539 L15.912280259769538,-0.7360966293814992 L15.218452863293326,-0.9187179326848907 L14.570066948666254,-1.1519011106544537 L13.997463935102854,-1.4247342844277053 L13.527438957546833,-1.7244501413373952 L13.181986980052168,-2.0370233852526374 L12.977273534644155,-2.347827054644922 L12.922878250253426,-2.6423169957723056 L13.021346571020207,-2.90671246084765 L13.268070641449274,-3.1286409823893173 " />
			<path d="M13.268070641449285,-3.128640982389326 L13.66733792032116,-3.3026150635108484 L14.193078042336975,-3.41123088060892 L14.818928202479286,-3.44904198307409 L15.513505660395886,-3.4141523643433387 L16.241981402043947,-3.3083115355861885 L16.967826611887453,-3.1368267979093343 L17.654644380239205,-2.9082971121177974 L18.267994796292804,-2.634181910914029 L18.777121909059026,-2.328226475091786 L19.15649595917411,-2.0057726877618323 L19.387093547637196,-1.682989728270651 L19.457351548471074,-1.3760632820313856 L19.36374693214207,-1.1003839226717025 L19.11097342497179,-0.8697753644066669 " />
			<path d="M19.110973424971768,-0.8697753644066486 L19.099675075422624,-0.8628510518796402 L19.088206273917827,-0.8559932974651692 L19.07656769220199,-0.8492025028320258 L19.064760011964008,-0.8424790657270695 L19.05278392479713,-0.8358233799519263 L19.040640132158444,-0.8292358353399267 L19.02832934532779,-0.822716817733276 L19.015852285366115,-0.8162667089604487 L19.003209683073223,-0.8098858868138277 L18.99040227894497,-0.80357472502758 L18.97743082312991,-0.7973335932557548 L18.964296075385334,-0.7911628570506481 L18.9509988050328,-0.7850628778413782 L18.93753979091307,-0.779034012912742 " />
			<path d="M-13.661448697451881,-5.841863397253959 L-14.106205233467774,-5.702005780246519 L-14.65874359001869,-5.625791270492147 L-15.293207563985433,-5.6167863495237125 L-15.979907217668304,-5.675412405400286 L-16.686708228595396,-5.798926013722735 L-17.380535625071612,-5.981547317026127 L-18.028921539698686,-6.214730494995694 L-18.601524553262085,-6.487563668768949 L-19.071549530818103,-6.787279525678642 L-19.417001508312765,-7.099852769593884 L-19.621714953720772,-7.41065643898617 L-19.67611023811149,-7.705146380113555 L-19.5776419173447,-7.969541845188898 L-19.33091784691562,-8.191470366730565 " />
			<path d="M-19.330917846915618,-8.19147036673057 L-18.9316505680438,-8.365444447852068 L-18.405910446028074,-8.474060264950134 L-17.780060285885877,-8.51187136741532 L-17.0854828279694,-8.476981748684606 L-16.357007086321453,-8.371140919927512 L-15.631161876478036,-8.199656182250727 L-14.94434410812633,-7.971126496459267 L-14.330993692072727,-7.697011295255578 L-13.821866579306434,-7.391055859433405 L-13.442492529191227,-7.068602072103507 L-13.211894940727952,-6.74581911261236 L-13.141636939893825,-6.4388926663731025 L-13.235241556222531,-6.163213307013391 L-13.488015063392504,-5.932604748748284 " />
			<path d="M-13.488015063392515,-5.932604748748275 L-13.499313412941692,-5.925680436221233 L-13.510782214446529,-5.918822681806731 L-13.522420796162407,-5.912031887173558 L-13.534228476400429,-5.905308450068572 L-13.546204563567349,-5.898652764293399 L-13.558348356206082,-5.8920652196813705 L-13.570659143036774,-5.885546202074691 L-13.583136202998496,-5.879096093301835 L-13.595778805291438,-5.872715271155188 L-13.608586209419741,-5.866404109368912 L-13.621557665234853,-5.86016297759706 L-13.634692412979476,-5.8539922413919285 L-13.647989683332067,-5.847892262182634 L-13.661448697451863,-5.841863397253967 " />
			<path d="M8.322693364168526,3.919529886627938 L7.877936828152586,4.05938750363539 L7.325398471601605,4.135602013389757 L6.690934497634782,4.144606934358178 L6.004234843951838,4.085980878481575 L5.297433833024675,3.96246727015909 L4.603606436548415,3.7798459668556514 L3.9552205219213192,3.546662788886037 L3.3826175083579306,3.2738296151127333 L2.912592530801958,2.9741137582029973 L2.567140553307384,2.6615405142877195 L2.362427107899503,2.3507368448954136 L2.3080318235089416,2.0562469037680273 L2.4065001442759186,1.791851438692703 L2.6532242147051996,1.5699229171510771 " />
			<path d="M2.65322421470521,1.569922917151068 L3.0524914935772793,1.3959488360296248 L3.578231615593263,1.287333018931644 L4.204081775735708,1.2495219164665743 L4.8986592336523955,1.2844115351974272 L5.627134975300498,1.39025236395468 L6.35298018514399,1.5617371016316284 L7.039797953495674,1.7902667874232483 L7.653148369549154,2.0643819886270816 L8.162275482315211,2.370337424449369 L8.541649532430082,2.692791211779342 L8.772247120892924,3.0155741712705204 L8.842505121726543,3.3225006175097533 L8.748900505397277,3.598179976869382 L8.496126998226737,3.828788535134336 " />
			<path d="M8.496126998226718,3.828788535134354 L8.484828648677606,3.835712847661336 L8.473359847172837,3.8425706020757797 L8.461721265457035,3.849361396708897 L8.449913585219088,3.856084833813826 L8.437937498052246,3.862740519588945 L8.425793705413597,3.8693280642009196 L8.413482918582986,3.875847081807546 L8.40100585862135,3.8822971905803474 L8.388363256328496,3.8886780127269454 L8.375555852200288,3.894989174513171 L8.36258439638527,3.9012303062849725 L8.34944964864074,3.907401042490058 L8.336152378288247,3.9135010216993056 L8.32269336416856,3.919529886627924 " />
			<path d="M10.87452470710313,4.223959655364082 L10.967627806564558,4.178841326598813 L11.057205883023595,4.127480327083502 " />
			<path d="M11.057205883023602,4.127480327083497 L11.135970146140574,4.07506419490845 L11.211369250733478,4.017656728520626 L11.283221553755165,3.9553962275348518 L11.351353956714142,3.8884326829513807 L11.415602322683984,3.8169274158144266 L11.475811871723579,3.7410526885756448 L11.531837553755555,3.660991290098794 L11.58354439800463,3.5769360953053546 L11.63080783815402,3.4890896005219503 L11.67351401243662,3.39766343564896 L11.71156003793796,3.302877854325547 L11.744854258450173,3.204961203319357 L11.773316465279814,3.1041493724191485 L11.796878090477636,3.0006852261556336 L11.815482372024782,2.8948180187195502 L11.829084490577461,2.7868027934864856 L11.837651677440679,2.67689976859504 L11.841163293510883,2.5653737100585463 L11.839610878997377,2.4524932939205493 L11.832998173802704,2.3385304589906806 L11.821341108512875,2.2237597517202516 L11.804667766019222,2.1084576647958038 L11.783018313864215,1.9929019710440086 L11.756444907474368,1.8773710542525968 L11.72501156451323,1.7621432385194322 L11.688794010657228,1.6474961177453806 L11.647879497165885,1.5337058868862885 L11.60236659068589,1.4210466765751406 L11.552364935795412,1.3097898927173601 L11.497994990860713,1.2002035626502052 L11.43938773784138,1.092551689441435 L11.376684366743333,0.9870936158827999 L11.310035935479707,0.8840833997105384 L11.239603005959134,0.7837692015580393 L11.165555257278022,0.6863926871151378 L11.088071076948761,0.5921884449343007 L11.007337131148576,0.5013834212862602 L10.923547915024363,0.414196373426567 L10.83690528413683,0.3308373425901967 L10.747617968172781,0.2515071479838229 L10.655901068097023,0.17639690299475674 L10.56197553795529,0.10568755478205727 L10.466067652576594,0.03954944835897667 L10.368408462457355,-0.02185808378309817 L10.269233237140503,-0.07838710552057249 L10.168780898430551,-0.12990143348872296 L10.067293444810035,-0.17627696515935254 L9.96501536844398,-0.21740197781464987 L9.862193066176852,-0.2531773976970024 L9.759074245940985,-0.2835170386863566 L9.655907330006468,-0.30834780993013 L9.552940856510139,-0.3276098919254782 L9.450422880705453,-0.3412568806297158 L9.348600377375634,-0.3492558992517183 L9.247718645849805,-0.3515876774549951 L9.148020719055404,-0.3482465977816136 L9.049746778030588,-0.33924070918515215 L8.953133573307065,-0.32459170764006195 L8.858413854557334,-0.3043348838741662 L8.765815809880326,-0.2785190383502032 L8.675562516076301,-0.24720636370124405 L8.58787140123529,-0.21047229490318387 L8.502953720933778,-0.1684053275452806 L8.421014049301537,-0.12110680463654022 " />
			<path d="M8.421014049301522,-0.1211068046365309 L8.36669253707001,-0.08573708519979384 L8.313923373419437,-0.048004573000487216 L8.26276624582868,-0.007951947481853239 L8.21327901839414,0.0343754876204756 L8.16551766637936,0.07892985552176612 L8.119536212901107,0.12566076054187048 L8.075386667823537,0.17451534510804478 L8.033118968929571,0.22543834954242659 L7.992780925436004,0.27837217456654884 L7.954418163916243,0.33325694645218795 L7.918074076691853,0.39003058474485064 L7.8837897727512765,0.44862887248330563 L7.851604031251233,0.5089855288357237 L7.821553257653419,0.5710322840702773 L7.793671442546094,0.6346989567753956 L7.767990123197142,0.6999135332423236 L7.744538347882116,0.7666022489202131 L7.723342643027566,0.8346896718515902 L7.704426983206865,0.9040987879938411 L7.687812764022442,0.9747510883302026 L7.673518777905105,1.0465666576717227 L7.66156119285782,1.1194642650497508 L7.651953534168001,1.1933614555967176 L7.644706669108984,1.268174643811267 L7.639828794647999,1.3438192081022564 L7.637325428174531,1.4202095865046864 L7.6371994012595845,1.4972593734592894 L7.639450856452866,1.5748814175463104 L7.644077247121548,1.6529879200629403 L7.651073340330786,1.731490534332888 L7.6604312227627105,1.8103004656357726 L7.672140309667224,1.8893285716432944 " />
			<path d="M10.847516742152584,4.235600189871366 L10.874524707103124,4.2239596553640855 " />
			<path d="M0.2596782803586206,8.922523554904748 L0.35278137982004765,8.87740522613948 L0.44235945627908446,8.826044226624168 " />
			<path d="M0.4423594562790918,8.826044226624164 L0.521123719396063,8.773628094449116 L0.5965228239889664,8.716220628061292 L0.668375127010655,8.653960127075518 L0.7365075299696309,8.586996582492047 L0.8007558959394727,8.515491315355092 L0.8609654449790676,8.439616588116312 L0.9169911270110442,8.35955518963946 L0.9686979712601187,8.27549999484602 L1.01596141140951,8.187653500062616 L1.0586675856921088,8.096227335189626 L1.09671361119345,8.001441753866214 L1.1300078317056625,7.903525102860023 L1.1584700385353028,7.802713271959815 L1.1820316637331243,7.6992491256963 L1.2006359452802706,7.593381918260217 L1.2142380638329513,7.485366693027152 L1.2228052506961689,7.375463668135707 L1.2263168667663717,7.263937609599213 L1.2247644522528667,7.151057193461216 L1.218151747058192,7.0370943585313475 L1.2064946817683655,6.9223236512609185 L1.18982133927471,6.807021564336471 L1.168171887119704,6.6914658705846755 L1.1415984807298574,6.575934953793263 L1.1101651377687185,6.460707138060099 L1.0739475839127168,6.346060017286047 L1.0330330704213744,6.232269786426955 L0.9875201639413789,6.119610576115807 L0.9375185090509011,6.008353792258027 L0.8831485641162014,5.898767462190872 L0.8245413110968707,5.791115588982102 L0.761837939998822,5.6856575154234665 L0.6951895087351971,5.582647299251205 L0.6247565792146232,5.482333101098706 L0.5507088305335115,5.384956586655804 L0.4732246502042501,5.290752344474967 L0.39249070440406575,5.199947320826927 L0.30870148827985155,5.1127602729672335 L0.22205885739231768,5.029401242130863 L0.13277154142827063,4.95007104752449 L0.0410546413525128,4.874960802535423 L-0.05287088878922175,4.804251454322724 L-0.14877877416791674,4.738113347899644 L-0.24643796428715603,4.676705815757568 L-0.3456131896040082,4.620176794020094 L-0.4460655283139604,4.5686624660519435 L-0.5475529819344749,4.522286934381314 L-0.649831058300531,4.481161921726017 L-0.7526533605676592,4.4453865018436645 L-0.8557721808035266,4.41504686085431 L-0.9589390967380442,4.390216089610536 L-1.0619055702343716,4.370954007615188 L-1.1644235460390584,4.357307018910951 L-1.2662460493688763,4.349308000288948 L-1.367127780894707,4.346976222085671 L-1.4668257076891074,4.350317301759053 L-1.5650996487139235,4.359323190355514 L-1.6617128534374457,4.373972191900604 L-1.7564325721871776,4.3942290156665 L-1.8490306168641855,4.420044861190464 L-1.9392839106682098,4.451357535839422 L-2.0269750255092207,4.488091604637482 L-2.111892705810732,4.530158571995386 L-2.193832377442974,4.577457094904126 " />
			<path d="M-2.193832377442989,4.577457094904135 L-2.2481538896745006,4.612826814340872 L-2.3009230533250737,4.650559326540179 L-2.352080180915831,4.690611952058813 L-2.4015674083503704,4.732939387161142 L-2.4493287603651503,4.777493755062433 L-2.495310213843405,4.824224660082537 L-2.539459758920975,4.873079244648711 L-2.5817274578149396,4.9240022490830935 L-2.622065501308507,4.976936074107215 L-2.6604282628282685,5.031820845992854 L-2.696772350052658,5.088594484285517 L-2.731056653993235,5.147192772023972 L-2.7632423954932777,5.207549428376391 L-2.7932931690910916,5.269596183610943 L-2.8211749841984175,5.333262856316062 L-2.846856303547368,5.39847743278299 L-2.8703080788623945,5.465166148460879 L-2.891503783716945,5.533253571392256 L-2.9104194435376463,5.602662687534508 L-2.927033662722069,5.673314987870869 L-2.941327648839406,5.745130557212389 L-2.9532852338866906,5.818028164590418 L-2.9628928925765097,5.891925355137384 L-2.9701397576355264,5.9667385433519335 L-2.9750176320965127,6.042383107642923 L-2.9775209985699793,6.118773486045352 L-2.977647025484926,6.195823272999956 L-2.9753955702916453,6.273445317086977 L-2.9707691796229625,6.351551819603607 L-2.963773086413725,6.430054433873554 L-2.9544152039818004,6.508864365176439 L-2.942706117077287,6.587892471183961 " />
			<path d="M0.23267031540807515,8.934164089412032 L0.25967828035861196,8.922523554904753 " />
			<path d="M10.87452470710313,4.223959655364082 L10.967627806564558,4.178841326598813 L11.057205883023595,4.127480327083502 " />
			<path d="M11.057205883023602,4.127480327083497 L11.135970146140574,4.07506419490845 L11.211369250733478,4.017656728520626 L11.283221553755165,3.9553962275348518 L11.351353956714142,3.8884326829513807 L11.415602322683984,3.8169274158144266 L11.475811871723579,3.7410526885756448 L11.531837553755555,3.660991290098794 L11.58354439800463,3.5769360953053546 L11.63080783815402,3.4890896005219503 L11.67351401243662,3.39766343564896 L11.71156003793796,3.302877854325547 L11.744854258450173,3.204961203319357 L11.773316465279814,3.1041493724191485 L11.796878090477636,3.0006852261556336 L11.815482372024782,2.8948180187195502 L11.829084490577461,2.7868027934864856 L11.837651677440679,2.67689976859504 L11.841163293510883,2.5653737100585463 L11.839610878997377,2.4524932939205493 L11.832998173802704,2.3385304589906806 L11.821341108512875,2.2237597517202516 L11.804667766019222,2.1084576647958038 L11.783018313864215,1.9929019710440086 L11.756444907474368,1.8773710542525968 L11.72501156451323,1.7621432385194322 L11.688794010657228,1.6474961177453806 L11.647879497165885,1.5337058868862885 L11.60236659068589,1.4210466765751406 L11.552364935795412,1.3097898927173601 L11.497994990860713,1.2002035626502052 L11.43938773784138,1.092551689441435 L11.376684366743333,0.9870936158827999 L11.310035935479707,0.8840833997105384 L11.239603005959134,0.7837692015580393 L11.165555257278022,0.6863926871151378 L11.088071076948761,0.5921884449343007 L11.007337131148576,0.5013834212862602 L10.923547915024363,0.414196373426567 L10.83690528413683,0.3308373425901967 L10.747617968172781,0.2515071479838229 L10.655901068097023,0.17639690299475674 L10.56197553795529,0.10568755478205727 L10.466067652576594,0.03954944835897667 L10.368408462457355,-0.02185808378309817 L10.269233237140503,-0.07838710552057249 L10.168780898430551,-0.12990143348872296 L10.067293444810035,-0.17627696515935254 L9.96501536844398,-0.21740197781464987 L9.862193066176852,-0.2531773976970024 L9.759074245940985,-0.2835170386863566 L9.655907330006468,-0.30834780993013 L9.552940856510139,-0.3276098919254782 L9.450422880705453,-0.3412568806297158 L9.348600377375634,-0.3492558992517183 L9.247718645849805,-0.3515876774549951 L9.148020719055404,-0.3482465977816136 L9.049746778030588,-0.33924070918515215 L8.953133573307065,-0.32459170764006195 L8.858413854557334,-0.3043348838741662 L8.765815809880326,-0.2785190383502032 L8.675562516076301,-0.24720636370124405 L8.58787140123529,-0.21047229490318387 L8.502953720933778,-0.1684053275452806 L8.421014049301537,-0.12110680463654022 " />
			<path d="M8.421014049301522,-0.1211068046365309 L8.36669253707001,-0.08573708519979384 L8.313923373419437,-0.048004573000487216 L8.26276624582868,-0.007951947481853239 L8.21327901839414,0.0343754876204756 L8.16551766637936,0.07892985552176612 L8.119536212901107,0.12566076054187048 L8.075386667823537,0.17451534510804478 L8.033118968929571,0.22543834954242659 L7.992780925436004,0.27837217456654884 L7.954418163916243,0.33325694645218795 L7.918074076691853,0.39003058474485064 L7.8837897727512765,0.44862887248330563 L7.851604031251233,0.5089855288357237 L7.821553257653419,0.5710322840702773 L7.793671442546094,0.6346989567753956 L7.767990123197142,0.6999135332423236 L7.744538347882116,0.7666022489202131 L7.723342643027566,0.8346896718515902 L7.704426983206865,0.9040987879938411 L7.687812764022442,0.9747510883302026 L7.673518777905105,1.0465666576717227 L7.66156119285782,1.1194642650497508 L7.651953534168001,1.1933614555967176 L7.644706669108984,1.268174643811267 L7.639828794647999,1.3438192081022564 L7.637325428174531,1.4202095865046864 L7.6371994012595845,1.4972593734592894 L7.639450856452866,1.5748814175463104 L7.644077247121548,1.6529879200629403 L7.651073340330786,1.731490534332888 L7.6604312227627105,1.8103004656357726 L7.672140309667224,1.8893285716432944 " />
			<path d="M10.847516742152584,4.235600189871366 L10.874524707103124,4.2239596553640855 " />
			<path d="M0.2596782803586206,8.922523554904748 L0.35278137982004765,8.87740522613948 L0.44235945627908446,8.826044226624168 " />
			<path d="M0.4423594562790918,8.826044226624164 L0.521123719396063,8.773628094449116 L0.5965228239889664,8.716220628061292 L0.668375127010655,8.653960127075518 L0.7365075299696309,8.586996582492047 L0.8007558959394727,8.515491315355092 L0.8609654449790676,8.439616588116312 L0.9169911270110442,8.35955518963946 L0.9686979712601187,8.27549999484602 L1.01596141140951,8.187653500062616 L1.0586675856921088,8.096227335189626 L1.09671361119345,8.001441753866214 L1.1300078317056625,7.903525102860023 L1.1584700385353028,7.802713271959815 L1.1820316637331243,7.6992491256963 L1.2006359452802706,7.593381918260217 L1.2142380638329513,7.485366693027152 L1.2228052506961689,7.375463668135707 L1.2263168667663717,7.263937609599213 L1.2247644522528667,7.151057193461216 L1.218151747058192,7.0370943585313475 L1.2064946817683655,6.9223236512609185 L1.18982133927471,6.807021564336471 L1.168171887119704,6.6914658705846755 L1.1415984807298574,6.575934953793263 L1.1101651377687185,6.460707138060099 L1.0739475839127168,6.346060017286047 L1.0330330704213744,6.232269786426955 L0.9875201639413789,6.119610576115807 L0.9375185090509011,6.008353792258027 L0.8831485641162014,5.898767462190872 L0.8245413110968707,5.791115588982102 L0.761837939998822,5.6856575154234665 L0.6951895087351971,5.582647299251205 L0.6247565792146232,5.482333101098706 L0.5507088305335115,5.384956586655804 L0.4732246502042501,5.290752344474967 L0.39249070440406575,5.199947320826927 L0.30870148827985155,5.1127602729672335 L0.22205885739231768,5.029401242130863 L0.13277154142827063,4.95007104752449 L0.0410546413525128,4.874960802535423 L-0.05287088878922175,4.804251454322724 L-0.14877877416791674,4.738113347899644 L-0.24643796428715603,4.676705815757568 L-0.3456131896040082,4.620176794020094 L-0.4460655283139604,4.5686624660519435 L-0.5475529819344749,4.522286934381314 L-0.649831058300531,4.481161921726017 L-0.7526533605676592,4.4453865018436645 L-0.8557721808035266,4.41504686085431 L-0.9589390967380442,4.390216089610536 L-1.0619055702343716,4.370954007615188 L-1.1644235460390584,4.357307018910951 L-1.2662460493688763,4.349308000288948 L-1.367127780894707,4.346976222085671 L-1.4668257076891074,4.350317301759053 L-1.5650996487139235,4.359323190355514 L-1.6617128534374457,4.373972191900604 L-1.7564325721871776,4.3942290156665 L-1.8490306168641855,4.420044861190464 L-1.9392839106682098,4.451357535839422 L-2.0269750255092207,4.488091604637482 L-2.111892705810732,4.530158571995386 L-2.193832377442974,4.577457094904126 " />
			<path d="M-2.193832377442989,4.577457094904135 L-2.2481538896745006,4.612826814340872 L-2.3009230533250737,4.650559326540179 L-2.352080180915831,4.690611952058813 L-2.4015674083503704,4.732939387161142 L-2.4493287603651503,4.777493755062433 L-2.495310213843405,4.824224660082537 L-2.539459758920975,4.873079244648711 L-2.5817274578149396,4.9240022490830935 L-2.622065501308507,4.976936074107215 L-2.6604282628282685,5.031820845992854 L-2.696772350052658,5.088594484285517 L-2.731056653993235,5.147192772023972 L-2.7632423954932777,5.207549428376391 L-2.7932931690910916,5.269596183610943 L-2.8211749841984175,5.333262856316062 L-2.846856303547368,5.39847743278299 L-2.8703080788623945,5.465166148460879 L-2.891503783716945,5.533253571392256 L-2.9104194435376463,5.602662687534508 L-2.927033662722069,5.673314987870869 L-2.941327648839406,5.745130557212389 L-2.9532852338866906,5.818028164590418 L-2.9628928925765097,5.891925355137384 L-2.9701397576355264,5.9667385433519335 L-2.9750176320965127,6.042383107642923 L-2.9775209985699793,6.118773486045352 L-2.977647025484926,6.195823272999956 L-2.9753955702916453,6.273445317086977 L-2.9707691796229625,6.351551819603607 L-2.963773086413725,6.430054433873554 L-2.9544152039818004,6.508864365176439 L-2.942706117077287,6.587892471183961 " />
			<path d="M0.23267031540807515,8.934164089412032 L0.25967828035861196,8.922523554904753 " />
			<path d="M-17.136486355570604,-7.6652787414234105 L-8.716071424052194,-12.890034263863072 " />
			<path d="M-11.29358357412132,-5.406413122154339 L-2.873168642599848,-10.631168644595899 " />
			<path d="M4.84765570604633,2.0961145424606427 L8.421014049301522,-0.12110680463653112 " />
			<path d="M10.69055848749869,4.354980161727806 L11.057205883023602,4.127480327083497 " />
			<path d="M-27.751332782315128,-2.9667148418827356 L-19.330917850796702,-8.191470364322406 " />
			<path d="M-21.908430000865827,-0.7078492226136728 L-13.488015069344359,-5.932604745055233 " />
			<path d="M-5.767190720698178,6.794678442001308 L-2.193832377442989,4.577457094904135 " />
			<path d="M0.07571206075417902,9.053544061268472 L0.44235945627909157,8.826044226624163 " />
			<path d="M19.11097341901985,-0.8697753607135628 L11.057205883023602,4.127480327083497 " />
			<path d="M13.268070637566996,-3.1286409799804202 L8.421014049301522,-0.12110680463653112 " />
			<path d="M8.4961269922754,3.828788538827065 L0.44235945627909157,8.826044226624163 " />
			<path d="M2.6532242108224344,1.5699229195602786 L-2.193832377442989,4.577457094904135 " />

        </g>

        <!-- solid lines -->
        <g  stroke="rgb(0,0,0)" fill="none">
    			<path d="M-7.142547611079532,-26.476755976963275 L-7.142547611079532,-17.513169913413527 " />
			<path d="M-7.142547611079532,-17.513169913413527 L-49.601933318057576,1.2810856847491365 " />
			<path d="M-49.601933318057576,-7.6825003788006105 L-49.601933318057576,1.2810856847491356 " />
			<path d="M-7.142547611079532,-26.476755976963275 L-49.601933318057576,-7.682500378800611 " />
			<path d="M-7.142547611079532,-26.476755976963275 L49.381988896113626,-1.3787453523365443 " />
			<path d="M49.381988896113626,-1.3787453523365434 L49.381988896113626,7.584840711213203 " />
			<path d="M-7.142547611079532,-17.513169913413527 L49.381988896113626,7.584840711213204 " />
			<path d="M-49.601933318057576,1.2810856847491356 L6.922603189135579,26.379096309375868 " />
			<path d="M49.381988896113626,7.584840711213203 L6.922603189135586,26.379096309375868 " />
			<path d="M-11.467017202228618,-5.315671774353199 L-11.911773738244548,-5.175814157345752 L-12.46431209479551,-5.099599647591382 L-13.09877606876231,-5.090594726622956 L-13.785475722445236,-5.149220782499552 L-14.49227673337238,-5.272734390822028 L-15.18610412984863,-5.455355694125454 L-15.834490044475718,-5.688538872095058 L-16.407093058039113,-5.961372045868347 L-16.877118035595096,-6.261087902778072 L-17.222570013089694,-6.573661146693342 L-17.42728345849761,-6.884464816085642 L-17.481678742888214,-7.178954757213028 L-17.383210422121287,-7.443350222288358 L-17.136486351692053,-7.665278743829996 " />
			<path d="M-17.13648635169205,-7.66527874383 L-16.73721907282011,-7.839252824951438 L-16.2114789508043,-7.947868642049442 L-15.585628790662035,-7.985679744514562 L-14.891051332745533,-7.950790125783787 L-14.162575591097582,-7.844949297026637 L-13.436730381254197,-7.673464559349804 L-12.749912612902552,-7.444934873558306 L-12.136562196849027,-7.170819672354592 L-11.627435084082837,-6.864864236532408 L-11.248061033967744,-6.542410449202511 L-11.017463445504582,-6.2196274897113755 L-10.947205444670573,-5.912701043472141 L-11.04081006099939,-5.637021684112461 L-11.293583568169456,-5.406413125847394 " />
			<path d="M-11.293583568169467,-5.4064131258473855 L-11.304881917718632,-5.399488813320354 L-11.316350719223458,-5.392631058905862 L-11.327989300939318,-5.385840264272699 L-11.339796981177328,-5.379116827167723 L-11.351773068344233,-5.37246114139256 L-11.36391686098295,-5.365873596780543 L-11.376227647813632,-5.359354579173872 L-11.388704707775332,-5.352904470401026 L-11.40134731006826,-5.346523648254387 L-11.414154714196542,-5.340212486468121 L-11.427126170011636,-5.33397135469628 L-11.440260917756245,-5.327800618491156 L-11.453558188108818,-5.321700639281871 L-11.467017202228602,-5.315671774353208 " />
			<path d="M10.517124859391785,4.445721509528699 L10.07236832337584,4.5855791265361505 L9.519829966824858,4.661793636290519 L8.885365992858034,4.670798557258939 L8.198666339175086,4.612172501382335 L7.491865328247922,4.488658893059848 L6.798037931771657,4.306037589756407 L6.14965201714456,4.07285441178679 L5.57704900358117,3.800021238013484 L5.1070240260252,3.5003053811037463 L4.761572048530629,3.1877321371884664 L4.5568586031227545,2.876928467796159 L4.502463318732199,2.5824385266687724 L4.600931639499187,2.318043061593447 L4.847655709928479,2.0961145400518224 " />
			<path d="M4.8476557099284845,2.096114540051818 L5.24692298880044,1.9221404589304147 L5.772663110816248,1.8135246418324398 L6.398513270958482,1.7757135393673362 L7.093090728874943,1.810603158098119 L7.821566470522837,1.9164439868552652 L8.547411680366169,2.0879287245320834 L9.234229448717766,2.316458410323558 L9.847579864771259,2.5905736115272457 L10.356706977537442,2.8965290473494023 L10.736081027652551,3.218982834679272 L10.966678616115756,3.5417657941703866 L11.036936616949838,3.8486922404096098 L10.943332000621115,4.124371599769289 L10.690558493451164,4.354980158034374 " />
			<path d="M10.690558493451153,4.354980158034383 L10.679260143901974,4.361904470561424 L10.667791342397138,4.368762224975926 L10.656152760681259,4.375553019609098 L10.644345080443237,4.382276456714086 L10.632368993276318,4.388932142489259 L10.620225200637588,4.395519687101286 L10.60791441380689,4.402038704707967 L10.59543735384517,4.408488813480822 L10.582794751552228,4.414869635627469 L10.569987347423927,4.421180797413745 L10.557015891608815,4.427421929185597 L10.54388114386419,4.43359266539073 L10.530583873511599,4.439692644600024 L10.517124859391801,4.445721509528692 " />
			<path d="M-22.081863628973128,-0.6171078748125334 L-22.526620164989072,-0.4772502578050828 L-23.079158521540055,-0.40103574805071407 L-23.713622495506876,-0.3920308270822934 L-24.400322149189826,-0.4506568829588966 L-25.107123160116988,-0.5741704912813814 L-25.80095055659325,-0.7567917945848244 L-26.44933647122035,-0.9899749725544398 L-27.021939484783736,-1.2628081463277452 L-27.49196446233971,-1.562524003237482 L-27.83741643983428,-1.8750972471527598 L-28.04212988524216,-2.1859009165450667 L-28.096525169632713,-2.480390857672454 L-27.998056848865737,-2.74478632274778 L-27.751332778436446,-2.9667148442894042 " />
			<path d="M-27.751332778436442,-2.9667148442894087 L-27.352065499564468,-3.14068892541082 L-26.826325377548628,-3.249304742508799 L-26.200475217406357,-3.287115844973897 L-25.50589775948986,-3.2522262262431036 L-24.777422017841925,-3.146385397485939 L-24.051576807998565,-2.974900659809098 L-23.36475903964695,-2.746370974017598 L-22.751408623593456,-2.4722557728138836 L-22.242281510827297,-2.1663003369917044 L-21.862907460712226,-1.8438465496618166 L-21.63230987224908,-1.521063590170689 L-21.562051871415086,-1.214137143931464 L-21.6556564877439,-0.938457784571793 L-21.90842999491397,-0.7078492263067278 " />
			<path d="M-21.90842999491398,-0.7078492263067186 L-21.91972834446314,-0.700924913779688 L-21.93119714596797,-0.694067159365197 L-21.94283572768383,-0.6872763647320337 L-21.95464340792184,-0.6805529276270574 L-21.966619495088743,-0.6738972418518943 L-21.97876328772746,-0.6673096972398769 L-21.991074074558142,-0.6607906796332061 L-22.003551134519842,-0.6543405708603602 L-22.01619373681277,-0.6479597487137214 L-22.02900114094105,-0.6416485869274551 L-22.041972596756146,-0.6354074551556135 L-22.055107344500755,-0.629236718950489 L-22.06840461485333,-0.623136739741204 L-22.081863628973114,-0.6171078748125413 " />
			<path d="M-0.09772156735272564,9.144285409069365 L-0.5424781033686665,9.284143026076816 L-1.0950164599196457,9.360357535831184 L-1.7294804338864633,9.369362456799607 L-2.41618008756941,9.310736400923002 L-3.12298109849657,9.187222792600519 L-3.816808494972833,9.00460148929708 L-4.465194409599928,8.771418311327466 L-5.037797423163318,8.498585137554162 L-5.507822400719291,8.198869280644427 L-5.853274378213865,7.886296036729148 L-6.05798782362175,7.575492367336844 L-6.112383108012313,7.281002426209457 L-6.013914787245336,7.016606961134131 L-5.767190716816055,6.794678439592503 " />
			<path d="M-5.7671907168160494,6.794678439592499 L-5.367923437944102,6.620704358471091 L-4.842183315928298,6.51208854137311 L-4.216333155786066,6.474277438908002 L-3.521755697869604,6.509167057638781 L-2.7932799562217054,6.615007886395925 L-2.06743474637837,6.786492624072742 L-1.380616978026767,7.015022309864215 L-0.7672665619732704,7.289137511067903 L-0.2581394492070821,7.595092946890059 L0.12123460090803473,7.91754673421993 L0.35183218937124217,8.240329693711047 L0.4220901902053269,8.547256139950271 L0.32848557387660726,8.822935499309953 L0.07571206670665132,9.05354405757504 " />
			<path d="M0.07571206670664132,9.05354405757505 L0.06441371715746325,9.06046837010209 L0.052944915652625824,9.06732612451659 L0.041306333936748096,9.074116919149766 L0.029498653698727395,9.08084035625475 L0.017522566531806838,9.087496042029926 L0.005378773893076172,9.094083586641954 L-0.006932012937620691,9.100602604248632 L-0.01940907289934035,9.107052713021488 L-0.03205167519228347,9.113433535168134 L-0.04485907932058364,9.119744696954413 L-0.057830535135695804,9.125985828726261 L-0.07096528288031934,9.132156564931396 L-0.08426255323291088,9.13825654414069 L-0.09772156735270912,9.144285409069358 " />
			<path d="M7.672140309667225,1.8893285716432993 L7.6991880395300925,2.0322625041159754 L7.733754044565697,2.1750892759012435 L7.775710929340868,2.317282488925581 L7.824904058817366,2.458318080140663 L7.88115212827015,2.597676252994446 L7.944247831498644,2.734843393177772 L8.013958624868264,2.8693139615858865 L8.09002758436627,3.0005923575182294 L8.17217435251322,3.1281947452495373 L8.260096171640102,3.2516508372403035 L8.353468999722924,3.3705056274144516 L8.451948704662307,3.4843210681161074 L8.555172332606443,3.5926776845649235 L8.662759445642935,3.695176120859768 L8.77431352392939,3.7914386118328762 L8.889423427095066,3.8811103753298433 L9.007664909527515,3.9638609197841084 L9.128602183959513,4.0393852622667765 L9.251789527593562,4.107405052522569 L9.37677292484448,4.167669598849194 L9.50309174064566,4.219956792039172 L9.566606589424156,4.243047491268776 L9.630280418151862,4.26407392397888 L9.694054544719197,4.283016712107051 L9.7578701945816,4.299858397887814 L9.821668554926443,4.314583459941819 L9.885390828875202,4.327178327580407 L9.94897828967094,4.33763139331244 L10.012372334801183,4.345933023541807 L10.075514540006267,4.352075567445797 L10.138346713123427,4.356053364026137 L10.200810947716977,4.357862747326195 L10.26284967644516,4.357502049809536 L10.324405724114486,4.354971603896747 L10.385422360372674,4.350273741659057 L10.445843351991616,4.34341279266911 L10.5056130146922,4.334395080010788 L10.564676264463197,4.323228914451846 L10.622978668326967,4.309924586784653 L10.680466494505152,4.294494358342161 L10.737086761938144,4.276952449697786 L10.79278728911268,4.257315027559672 L10.847516742152575,4.23560018987137 " />
			<path d="M-2.942706117077286,6.587892471183966 L-2.915658387214419,6.730826403656643 L-2.8810923821788137,6.873653175441911 L-2.8391354974036425,7.015846388466247 L-2.7899423679271447,7.15688197968133 L-2.7336942984743606,7.2962401525351135 L-2.670598595245867,7.433407292718439 L-2.600887801876247,7.567877861126553 L-2.5248188423782407,7.699156257058897 L-2.4426720742312895,7.826758644790205 L-2.3547502551044084,7.950214736780971 L-2.261377427021586,8.069069526955118 L-2.162897722082202,8.182884967656776 L-2.0596740941380673,8.291241584105592 L-1.9520869811015744,8.393740020400436 L-1.8405329028151196,8.490002511373543 L-1.725422999649444,8.579674274870511 L-1.607181517216994,8.662424819324777 L-1.486244242784994,8.737949161807444 L-1.3630568991509449,8.805968952063239 L-1.2380735019000262,8.866233498389862 L-1.1117546860988488,8.918520691579838 L-1.0482398373203532,8.941611390809442 L-0.9845660085926468,8.962637823519547 L-0.9207918820253127,8.981580611647718 L-0.8569762321629091,8.998422297428482 L-0.7931778718180645,9.013147359482485 L-0.7294555978693065,9.025742227121075 L-0.6658681370735672,9.036195292853108 L-0.6024740919433244,9.044496923082473 L-0.5393318867382406,9.050639466986464 L-0.4764997136210799,9.054617263566804 L-0.41403547902752935,9.05642664686686 L-0.35199675029934796,9.056065949350202 L-0.2904407026300224,9.053535503437413 L-0.22942406637183466,9.048837641199725 L-0.16900307475289156,9.041976692209776 L-0.10923341205230974,9.032958979551454 L-0.050170162281312436,9.021792813992512 L0.00813224158245851,9.00848848632532 L0.0656200677606451,8.993058257882826 L0.12224033519363653,8.97551634923845 L0.17794086236817153,8.955878927100336 L0.23267031540806737,8.934164089412036 " />
			<path d="M7.672140309667225,1.8893285716432993 L7.6991880395300925,2.0322625041159754 L7.733754044565697,2.1750892759012435 L7.775710929340868,2.317282488925581 L7.824904058817366,2.458318080140663 L7.88115212827015,2.597676252994446 L7.944247831498644,2.734843393177772 L8.013958624868264,2.8693139615858865 L8.09002758436627,3.0005923575182294 L8.17217435251322,3.1281947452495373 L8.260096171640102,3.2516508372403035 L8.353468999722924,3.3705056274144516 L8.451948704662307,3.4843210681161074 L8.555172332606443,3.5926776845649235 L8.662759445642935,3.695176120859768 L8.77431352392939,3.7914386118328762 L8.889423427095066,3.8811103753298433 L9.007664909527515,3.9638609197841084 L9.128602183959513,4.0393852622667765 L9.251789527593562,4.107405052522569 L9.37677292484448,4.167669598849194 L9.50309174064566,4.219956792039172 L9.566606589424156,4.243047491268776 L9.630280418151862,4.26407392397888 L9.694054544719197,4.283016712107051 L9.7578701945816,4.299858397887814 L9.821668554926443,4.314583459941819 L9.885390828875202,4.327178327580407 L9.94897828967094,4.33763139331244 L10.012372334801183,4.345933023541807 L10.075514540006267,4.352075567445797 L10.138346713123427,4.356053364026137 L10.200810947716977,4.357862747326195 L10.26284967644516,4.357502049809536 L10.324405724114486,4.354971603896747 L10.385422360372674,4.350273741659057 L10.445843351991616,4.34341279266911 L10.5056130146922,4.334395080010788 L10.564676264463197,4.323228914451846 L10.622978668326967,4.309924586784653 L10.680466494505152,4.294494358342161 L10.737086761938144,4.276952449697786 L10.79278728911268,4.257315027559672 L10.847516742152575,4.23560018987137 " />
			<path d="M-2.942706117077286,6.587892471183966 L-2.915658387214419,6.730826403656643 L-2.8810923821788137,6.873653175441911 L-2.8391354974036425,7.015846388466247 L-2.7899423679271447,7.15688197968133 L-2.7336942984743606,7.2962401525351135 L-2.670598595245867,7.433407292718439 L-2.600887801876247,7.567877861126553 L-2.5248188423782407,7.699156257058897 L-2.4426720742312895,7.826758644790205 L-2.3547502551044084,7.950214736780971 L-2.261377427021586,8.069069526955118 L-2.162897722082202,8.182884967656776 L-2.0596740941380673,8.291241584105592 L-1.9520869811015744,8.393740020400436 L-1.8405329028151196,8.490002511373543 L-1.725422999649444,8.579674274870511 L-1.607181517216994,8.662424819324777 L-1.486244242784994,8.737949161807444 L-1.3630568991509449,8.805968952063239 L-1.2380735019000262,8.866233498389862 L-1.1117546860988488,8.918520691579838 L-1.0482398373203532,8.941611390809442 L-0.9845660085926468,8.962637823519547 L-0.9207918820253127,8.981580611647718 L-0.8569762321629091,8.998422297428482 L-0.7931778718180645,9.013147359482485 L-0.7294555978693065,9.025742227121075 L-0.6658681370735672,9.036195292853108 L-0.6024740919433244,9.044496923082473 L-0.5393318867382406,9.050639466986464 L-0.4764997136210799,9.054617263566804 L-0.41403547902752935,9.05642664686686 L-0.35199675029934796,9.056065949350202 L-0.2904407026300224,9.053535503437413 L-0.22942406637183466,9.048837641199725 L-0.16900307475289156,9.041976692209776 L-0.10923341205230974,9.032958979551454 L-0.050170162281312436,9.021792813992512 L0.00813224158245851,9.00848848632532 L0.0656200677606451,8.993058257882826 L0.12224033519363653,8.97551634923845 L0.17794086236817153,8.955878927100336 L0.23267031540806737,8.934164089412036 " />

        </g>
        </g>
    </svg>
    