<?xml version="1.0" encoding="UTF-8" standalone="no"?>
    <svg
    xmlns:svg="http://www.w3.org/2000/svg"
    xmlns="http://www.w3.org/2000/svg"
    width="223"
    height="433"
    >
        <g transform="scale(4, -4)   translate(27.924938727432192,-56.05923195352629)" stroke-width="0.25"  fill="none">
        <!-- hidden lines -->
        <g  stroke="rgb(160,160,160)" fill="none" stroke-dasharray="0.25,0.25" >
    			<path d="M10.995152697656788,47.53049325045919 L24.490013583795285,46.03280721847309 " />
			<path d="M24.490013583795278,46.032807218473096 L24.448595368574058,45.96372027555096 L24.402884938861494,45.89468969445179 L24.35288597021547,45.8257210258978 L24.298602483033658,45.75681981563286 L24.240038842230174,45.68799160397652 L24.17719975688463,45.61924192537855 L24.11009027986349,45.55057630797392 L24.038715807413727,45.482000273138254 L23.963082078728963,45.41351933504389 L23.883195175487945,45.34513900021645 L23.79906152136554,45.27686476709212 L23.710687881516225,45.20870212557547 L23.618081362030036,45.14065655659804 L23.52124940936125,45.07273353167759 L23.420199809729592,45.0049385124782 L23.314940688494115,44.93727695037102 L23.205480509499896,44.869754285995995 L23.09182807439741,44.80237594882435 L22.97399252193483,44.73514735672199 L22.851983327223184,44.66807391551393 L22.72581030097442,44.60116101854951 L22.5954835887126,44.5344140462688 L22.3224113573847,44.401439330377485 L22.032854462002188,44.26919253676128 L21.72690603332295,44.1377162002184 L21.404664474146177,44.00705260774341 L21.06623342766291,43.87724378492642 L20.711721744121068,43.74833148243625 L20.341243445815717,43.620357162592136 L19.954917690415865,43.49336198602808 L19.552868732639514,43.3673867984543 L19.135225884289444,43.24247211751994 L18.702123472662283,43.118658119781266 L18.253700797344695,42.99598462777967 L17.79010208541006,42.87449109723339 L17.311476445030483,42.754216604347334 L16.817977817518827,42.63519983324491 L16.3097649278163,42.51747906352599 L15.78700123344139,42.401092157954935 L15.249854871916714,42.28607655028276 L14.69849860669061,42.17246923320719 L14.13310977157089,42.06030674647467 L13.553870213688665,41.94962516512803 L12.960966235010392,41.840460087903516 L12.354588532417264,41.73284662578118 L11.734932136371018,41.62681939069202 L11.102196348185874,41.522412484385704 L10.456584675926823,41.41965948746234 L9.79830476895496,41.318593448571875 L9.127568351140841,41.21924687378461 L8.444591152767227,41.12165171613621 L7.7495928411434285,41.025839365350556 L7.042796949953232,40.931840637743846 L6.32443080735926,40.83968576631304 L5.594725462887045,40.749404391012 L4.85391561311209,40.66102554921831 L4.1022395261738716,40.574577666393935 L3.339938965141382,40.490088546942694 L2.5672591102541524,40.40758536526743 L1.7844484800645972,40.32709465702992 L0.9917588515064502,40.24864231061609 L0.1894451789152214,40.17225355880955 L-0.6222344879731025,40.09795297067586 L-1.4430190870193549,40.02576444366038 L-2.2726446276470185,39.95571119590204 L-3.110844275749887,39.887815758765704 L-3.9573484395146927,39.82209996959533 L-4.81188485613033,39.75858496469036 L-5.674178679356277,39.69729117250764 L-6.543952567922005,39.63823830709099 L-7.420926774728624,39.58144536173048 L-8.304819236824752,39.526930602853646 L-9.195345666126858,39.47471156415037 L-10.092219640855255,39.42480504093353 L-10.995152697656344,39.37722708473706 " />
			<path d="M-24.490013583795314,40.87491311672314 L-10.995152697656817,39.37722708473704 " />
			<path d="M-24.490013583795317,40.87491311672314 L-24.448595368574097,40.944000059645276 L-24.402884938861526,41.01303064074445 L-24.35288597021551,41.08199930929843 L-24.29860248303369,41.15090051956338 L-24.240038842230213,41.21972873121972 L-24.17719975688467,41.28847840981768 L-24.110090279863527,41.35714402722231 L-24.03871580741376,41.42572006205798 L-23.963082078728995,41.49420100015235 L-23.883195175487977,41.56258133497978 L-23.79906152136558,41.63085556810411 L-23.710687881516257,41.69901820962076 L-23.61808136203007,41.7670637785982 L-23.52124940936129,41.83498680351864 L-23.420199809729624,41.90278182271803 L-23.314940688494154,41.97044338482522 L-23.205480509499928,42.037966049200236 L-23.09182807439744,42.10534438637189 L-22.973992521934868,42.17257297847424 L-22.851983327223216,42.23964641968231 L-22.72581030097446,42.30655931664673 L-22.59548358871264,42.37330628892743 L-22.32241135738473,42.506281004818746 L-22.03285446200222,42.63852779843496 L-21.726906033322976,42.77000413497784 L-21.4046644741462,42.90066772745282 L-21.066233427662937,43.03047655026982 L-20.7117217441211,43.15938885275999 L-20.341243445815742,43.2873631726041 L-19.954917690415883,43.414358349168154 L-19.55286873263954,43.54033353674193 L-19.135225884289454,43.6652482176763 L-18.702123472662308,43.789062215414965 L-18.253700797344713,43.91173570741657 L-17.79010208541007,44.03322923796285 L-17.311476445030493,44.153503730848904 L-16.817977817518845,44.27252050195133 L-16.309764927816325,44.39024127167025 L-15.787001233441416,44.506628177241296 L-15.249854871916732,44.62164378491348 L-14.698498606690627,44.73525110198905 L-14.133109771570915,44.84741358872156 L-13.553870213688683,44.958095170068205 L-12.960966235010403,45.067260247292715 L-12.354588532417281,45.17487370941506 L-11.73493213637105,45.28090094450422 L-11.102196348185899,45.385307850810534 L-10.456584675926834,45.4880608477339 L-9.79830476895497,45.58912688662436 L-9.127568351140845,45.68847346141162 L-8.444591152767238,45.786068619060025 L-7.749592841143446,45.881880969845675 L-7.042796949953242,45.97587969745239 L-6.324430807359256,46.0680345688832 L-5.594725462887041,46.15831594418424 L-4.853915613112072,46.24669478597792 L-4.102239526173882,46.333142668802296 L-3.3399389651413856,46.417631788253544 L-2.567259110254149,46.5001349699288 L-1.784448480064583,46.580625678166314 L-0.9917588515064253,46.65907802458014 L-0.18944517891522494,46.73546677638668 L0.6222344879731061,46.809767364520376 L1.4430190870193762,46.88195589153586 L2.272644627647008,46.9520091392942 L3.110844275749873,47.01990457643053 L3.9573484395146927,47.0856203656009 L4.811884856130341,47.149135370505874 L5.6741786793562845,47.21042916268859 L6.5439525679219805,47.269482028105244 L7.420926774728613,47.32627497346576 L8.304819236824752,47.38078973234259 L9.195345666126826,47.43300877104586 L10.092219640855234,47.48291529426271 L10.995152697656668,47.530493250459195 " />
			<path d="M-24.490013583795314,40.874913116723135 L-24.490013583795314,-47.292869848924326 " />
			<path d="M10.995152697656785,47.530493250459195 L10.995152697656785,-40.63728971518827 " />
			<path d="M-24.49001358379531,-47.292869848924326 L-24.448595368574097,-47.22378290600219 L-24.402884938861526,-47.15475232490302 L-24.352885970215503,-47.08578365634904 L-24.29860248303369,-47.01688244608409 L-24.240038842230206,-46.94805423442775 L-24.17719975688467,-46.87930455582978 L-24.11009027986352,-46.81063893842516 L-24.03871580741376,-46.742062903589485 L-23.963082078728995,-46.67358196549512 L-23.883195175487977,-46.60520163066768 L-23.799061521365573,-46.53692739754335 L-23.710687881516257,-46.4687647560267 L-23.61808136203007,-46.40071918704927 L-23.52124940936129,-46.33279616212882 L-23.420199809729624,-46.26500114292943 L-23.314940688494147,-46.19733958082225 L-23.205480509499928,-46.129816916447226 L-23.091828074397434,-46.06243857927558 L-22.97399252193486,-45.995209987173226 L-22.85198332722321,-45.92813654596516 L-22.72581030097445,-45.86122364900074 L-22.595483588712632,-45.79447667672003 L-22.32241135738473,-45.661501960828716 L-22.03285446200222,-45.52925516721251 L-21.726906033322976,-45.39777883066963 L-21.4046644741462,-45.26711523819464 L-21.066233427662937,-45.13730641537765 L-20.711721744121093,-45.00839411288748 L-20.341243445815742,-44.880419793043366 L-19.954917690415876,-44.75342461647931 L-19.55286873263953,-44.62744942890553 L-19.135225884289454,-44.50253474797117 L-18.7021234726623,-44.378720750232496 L-18.253700797344706,-44.2560472582309 L-17.79010208541007,-44.13455372768462 L-17.311476445030486,-44.014279234798565 L-16.817977817518845,-43.89526246369614 L-16.309764927816317,-43.77754169397722 L-15.787001233441408,-43.661154788406165 L-15.249854871916725,-43.54613918073399 L-14.698498606690613,-43.43253186365842 L-14.133109771570908,-43.32036937692591 L-13.553870213688676,-43.20968779557926 L-12.960966235010396,-43.10052271835475 L-12.354588532417281,-42.99290925623241 L-11.734932136371036,-42.88688202114325 L-11.102196348185892,-42.782475114836934 L-10.456584675926834,-42.67972211791357 L-9.798304768954964,-42.578656079023105 L-9.12756835114083,-42.47930950423584 L-8.444591152767224,-42.381714346587444 L-7.749592841143439,-42.285901995801794 L-7.042796949953228,-42.19190326819508 L-6.324430807359249,-42.09974839676427 L-5.594725462887034,-42.00946702146323 L-4.853915613112065,-41.92108817966954 L-4.102239526173868,-41.83464029684517 L-3.3399389651413784,-41.750151177393924 L-2.567259110254138,-41.66764799571867 L-1.7844484800645724,-41.58715728748115 L-0.9917588515064182,-41.50870494106733 L-0.18944517891522494,-41.43231618926079 L0.6222344879731061,-41.35801560112709 L1.4430190870193762,-41.28582707411161 L2.272644627647008,-41.21577382635327 L3.1108442757498835,-41.14787838921694 L3.9573484395147034,-41.082162600046566 L4.8118848561303516,-41.01864759514159 L5.674178679356306,-40.95735380295888 L6.543952567922005,-40.89830093754222 L7.420926774728635,-40.84150799218171 L8.304819236824777,-40.78699323330488 L9.195345666126844,-40.734774194601606 L10.092219640855248,-40.68486767138476 L10.995152697656678,-40.637289715188274 " />
			<path d="M-10.995152697656799,-48.790555880910425 L-24.490013583795317,-47.29286984892432 " />
			<path d="M-10.995152697656817,39.37722708473704 L-10.995152697656817,-48.790555880910425 " />
			<path d="M24.49001358379528,46.032807218473096 L24.49001358379528,-42.134975747174366 " />
			<path d="M24.490013583795285,-42.134975747174366 L10.995152697656788,-40.63728971518827 " />
			<path d="M-5.4873968476472506,42.42464674485542 L-5.460471467504685,42.430769602788516 L-5.433610952961268,42.439023204278634 L-5.380343045843472,42.46183801808784 L-5.328106125358607,42.49287146715421 L-5.277403261606549,42.53182468239863 L-5.228722750882233,42.5783225230643 L-5.18253341311541,42.6319171895273 L-5.139280076878435,42.69209253585178 L-5.0993792954439465,42.75826904055744 L-5.063215335149146,42.82980938772819 L-5.031136474700905,42.90602460471287 L-5.003451651061428,42.98618069730842 L-4.980427484216428,43.069505718525384 L-4.96228570947891,43.15519720285934 L-4.9492010420569015,43.24242989447243 L-4.941299494450482,43.33036369485818 L-4.938657162882527,43.41815175344936 " />
			<path d="M11.157706923549352,-41.38209242234773 L11.157706923549352,48.56685787593907 " />
			<path d="M25.424938727432156,-42.965497688105714 L11.157706923549352,-41.38209242234773 " />
			<path d="M-25.424938727432192,-48.24351524063233 L-25.386588477746116,-48.172112496661896 L-25.34373230164028,-48.10076310869937 L-25.296373754272032,-48.029472995571936 L-25.24451676429537,-47.95824807118964 L-25.188165633535036,-47.88709424405472 L-25.127325036629692,-47.81601741677156 L-25.062000020644057,-47.74502348555692 L-24.992196004650303,-47.67411833975091 L-24.917918779278445,-47.60330786132838 L-24.839174506236056,-47.532597924411014 L-24.755969717797036,-47.46199439477999 L-24.668311316259768,-47.39150312938945 L-24.576206573374535,-47.32112997588057 L-24.479663129740267,-47.25088077209649 L-24.37868899417075,-47.180761345598036 L-24.273292543030195,-47.11077751318031 L-24.16348251953842,-47.040935080390106 L-24.04926803304552,-46.97123984104435 L-23.93065855827622,-46.90169757674944 L-23.807663934543875,-46.83231405642167 L-23.680294364934262,-46.763095035808625 L-23.54856041545915,-46.69404625701173 L-23.412473014179838,-46.6251734480099 L-23.27204345030055,-46.5564823221844 L-22.978204791624925,-46.41966789775656 L-22.667141939591865,-46.28364838084606 L-22.338958109611667,-46.14846890480827 L-21.993762198096896,-46.01417432426017 L-21.631668746328863,-45.880809200196886 L-21.2527979024511,-45.74841778520567 L-20.85727538160235,-45.617044008782216 L-20.44523242420238,-45.48673146275418 L-20.01680575240438,-45.357523386816744 L-19.572137524728497,-45.22946265418504 L-19.111375288891423,-45.10259175736814 L-18.634671932847844,-44.9769527940694 L-18.142185634059842,-44.852587453217794 L-17.63407980701124,-44.72953700113491 L-17.110523048984128,-44.60784226784212 L-16.571689084115754,-44.4875436335126 L-16.017756705754167,-44.36868101507251 L-15.448909717131862,-44.25129385295601 L-14.86533687037705,-44.13542109801828 L-14.267231803882822,-44.021101198611035 L-13.654792978054978,-43.90837208782481 L-13.028223609459815,-43.79727117090213 L-12.387731603393767,-43.6878353128259 L-11.733529484897247,-43.580100826087055 L-11.06583432823561,-43.47410345863551 L-10.38486768487057,-43.36987838201843 L-9.690855509946033,-43.26746017970977 L-8.984028087312744,-43.16688283563501 L-8.26461995311658,-43.06817972289466 L-7.53286981797585,-42.97138359269067 L-6.789020487773506,-42.876526563459 L-6.033318783090394,-42.783640110212275 L-5.2660154573064375,-42.692755054095855 L-4.487365113396812,-42.60390155216096 L-3.697626119450817,-42.51710908735805 L-2.897060522941352,-42.43240645875397 L-2.0859339637736056,-42.34982177197594 L-1.264515586141627,-42.26938242988572 L-0.4330779492222021,-42.19111512348689 L0.40810306326446977,-42.115045823068385 L1.258748334597204,-42.04119976958714 L2.118575607669026,-41.96960146629278 L2.9872995786443965,-41.90027467059703 L3.8646319916273804,-41.83324238619068 L4.750281734309375,-41.76852685541059 L5.643954934564604,-41.70614955185933 L6.545355057961402,-41.646131173279954 L7.4541830061568675,-41.58849163468811 L8.37013721614225,-41.533250061763994 L9.292913760306195,-41.48042478450611 L10.222206447282545,-41.430033331149126 L11.157706923549235,-41.38209242234774 " />
			<path d="M-9.000000000000028,46.77983487930419 L-8.02142358348717,46.91333449190921 L-7.020282113386656,47.043304709859726 L-5.997186941970305,47.169666166162784 L-4.952762827652435,47.292341697534575 L-3.8876475534778123,47.411256391520624 L-2.8024915376561275,47.526337632241464 L-1.6979574363807224,47.63751514473589 L-0.5747197391741246,47.744721037874776 L0.5665356429925374,47.84788984581908 L1.7251117965546356,47.94695856799696 L2.900301230927923,48.04186670757536 L4.0913863105414165,48.132556308402755 L5.297639693065264,48.21897199040035 L6.51832477356615,48.301060983380225 L7.752696134318956,48.37877315926973 L8.999999999999865,48.45206106272242 " />
			<path d="M8.999999999999982,44.34444383391778 L8.99728936826582,44.37631034584976 L8.989159105846534,44.40815766258652 L8.975614110108195,44.4399666004953 L8.956662540049754,44.471717999061326 L8.932315811388372,44.503392732429354 L8.902588589683011,44.5349717209244 L8.867498781500453,44.566435942544615 L8.827067523629056,44.597766444419406 L8.78131917034674,44.62894435422598 L8.730281278750878,44.65995089155727 L8.673984592158941,44.69076737923462 L8.612463021589862,44.72137525455813 L8.545753625337312,44.75175608048823 L8.47389658664717,44.781891556751376 L8.396935189512632,44.811763530863516 L8.314915792601562,44.84135400906442 L8.135903638110973,44.89961936124134 L7.937291379135177,44.956547246945306 L7.719557490002431,45.012000521913365 L7.483226510722889,45.06584559434898 L7.228867783325787,45.11795274675638 L6.957094080264614,45.16819644844138 L6.668560128194613,45.216455657925785 L6.36396103067891,45.262614114546935 L6.044030593623147,45.306560618539834 L5.709539557472792,45.3481892989271 L5.361293740431881,45.38739986857144 L5.000132097176401,45.42409786577614 L4.626924697738977,45.45819488185157 L4.242570631433958,45.48960877409945 L3.84799584087252,45.51826386370184 L3.4441508912857888,45.54409111803798 L3.0320086805299606,45.56702831698999 L2.6125620952901434,45.58702020283653 L2.1868216191293564,45.6040186133735 L1.7558128981451353,45.61798259794104 L1.320574270098236,45.62887851607723 L0.8821542629660252,45.6366801185609 L0.44160906894674334,45.64136861064834 L-1.9210878778711478e-14,45.64293269735144 L-0.4416090689467818,45.64136861064834 L-0.8821542629660636,45.6366801185609 L-1.3205742700982745,45.62887851607723 L-1.7558128981451735,45.61798259794104 L-2.1868216191293945,45.6040186133735 L-2.612562095290181,45.58702020283653 L-3.0320086805300006,45.56702831698999 L-3.4441508912858287,45.54409111803798 L-3.847995840872558,45.51826386370184 L-4.242570631434001,45.48960877409945 L-4.626924697739018,45.45819488185157 L-5.000132097176443,45.42409786577614 L-5.361293740431921,45.38739986857144 L-5.709539557472829,45.3481892989271 L-6.044030593623184,45.306560618539834 L-6.363961030678948,45.262614114546935 L-6.668560128194653,45.216455657925785 L-6.957094080264652,45.16819644844138 L-7.228867783325823,45.11795274675638 L-7.483226510722925,45.06584559434898 L-7.719557490002466,45.012000521913365 L-7.937291379135214,44.956547246945306 L-8.13590363811101,44.89961936124134 L-8.3149157926016,44.84135400906442 L-8.396935189512668,44.811763530863516 L-8.473896586647205,44.781891556751376 L-8.545753625337348,44.75175608048823 L-8.6124630215899,44.72137525455813 L-8.673984592158979,44.690767379234615 L-8.730281278750915,44.65995089155727 L-8.781319170346777,44.62894435422598 L-8.827067523629093,44.597766444419406 L-8.86749878150049,44.566435942544615 L-8.902588589683047,44.5349717209244 L-8.932315811388408,44.503392732429354 L-8.95666254004979,44.471717999061326 L-8.97561411010823,44.4399666004953 L-8.98915910584657,44.40815766258652 L-8.997289368265855,44.37631034584976 L-9.000000000000018,44.344443833917786 " />
			<path d="M24.490013583795278,-42.134975747174366 L24.448595368574058,-42.2040626900965 L24.402884938861494,-42.27309327119567 L24.35288597021547,-42.34206193974966 L24.298602483033658,-42.4109631500146 L24.240038842230174,-42.47979136167094 L24.17719975688463,-42.54854104026891 L24.11009027986349,-42.61720665767354 L24.038715807413727,-42.68578269250921 L23.963082078728963,-42.754263630603575 L23.883195175487945,-42.82264396543101 L23.79906152136554,-42.89091819855534 L23.710687881516225,-42.95908084007199 L23.618081362030036,-43.02712640904942 L23.52124940936125,-43.09504943396987 L23.420199809729592,-43.162844453169264 L23.314940688494115,-43.23050601527644 L23.205480509499896,-43.298028679651466 L23.09182807439741,-43.36540701682311 L22.97399252193483,-43.43263560892547 L22.851983327223184,-43.49970905013353 L22.72581030097442,-43.56662194709795 L22.5954835887126,-43.63336891937866 L22.3224113573847,-43.766343635269976 L22.032854462002188,-43.89859042888618 L21.72690603332295,-44.03006676542906 L21.404664474146177,-44.16073035790405 L21.06623342766291,-44.29053918072104 L20.711721744121068,-44.41945148321121 L20.341243445815717,-44.547425803055326 L19.954917690415865,-44.674420979619384 L19.552868732639514,-44.80039616719316 L19.135225884289444,-44.92531084812752 L18.702123472662283,-45.049124845866196 L18.253700797344695,-45.17179833786779 L17.79010208541006,-45.29329186841407 L17.311476445030483,-45.41356636130013 L16.817977817518827,-45.53258313240255 L16.3097649278163,-45.65030390212147 L15.78700123344139,-45.76669080769253 L15.249854871916714,-45.881706415364704 L14.69849860669061,-45.99531373244027 L14.13310977157089,-46.10747621917279 L13.553870213688665,-46.21815780051943 L12.960966235010392,-46.327322877743946 L12.354588532417264,-46.43493633986628 L11.734932136371018,-46.54096357495544 L11.102196348185874,-46.64537048126176 L10.456584675926823,-46.74812347818512 L9.79830476895496,-46.84918951707559 L9.127568351140841,-46.94853609186285 L8.444591152767227,-47.04613124951125 L7.7495928411434285,-47.141943600296905 L7.042796949953232,-47.235942327903615 L6.32443080735926,-47.32809719933442 L5.594725462887045,-47.41837857463546 L4.85391561311209,-47.50675741642915 L4.1022395261738716,-47.593205299253526 L3.339938965141382,-47.67769441870477 L2.5672591102541524,-47.76019760038003 L1.7844484800645972,-47.840688308617544 L0.9917588515064502,-47.91914065503137 L0.1894451789152214,-47.99552940683791 L-0.6222344879731025,-48.0698299949716 L-1.4430190870193549,-48.14201852198708 L-2.2726446276470185,-48.21207176974542 L-3.110844275749887,-48.27996720688176 L-3.9573484395146927,-48.34568299605213 L-4.81188485613033,-48.409198000957105 L-5.674178679356277,-48.47049179313982 L-6.543952567922005,-48.529544658556475 L-7.420926774728624,-48.58633760391698 L-8.304819236824752,-48.640852362793815 L-9.195345666126858,-48.69307140149709 L-10.092219640855255,-48.742977924713934 L-10.995152697656344,-48.790555880910404 " />
			<path d="M8.09999999999998,44.34444383391778 L8.103371959092476,44.27522281443867 L8.11326563925175,44.207749699567664 L8.129024646203112,44.14369859736578 L8.149584728989765,44.08459539072709 L8.17352525658332,44.031738602162974 L8.199163403355714,43.98610041530233 L8.224701443229167,43.94826263791222 L8.248384483032861,43.91838172251954 L8.285414361348469,43.88016642868194 L8.298724638787235,43.86916962443297 " />
			<path d="M8.298724638787235,43.86916962443297 L8.297535469654528,43.8699869988472 L8.29396194647894,43.8723137319414 L8.279780240826966,43.8808135751755 L8.224527049741024,43.909273180579504 L8.154573735000076,43.94018877094619 L8.064523622299633,43.97509522199979 L7.955937122663007,44.01264294043712 L7.830180538154142,44.0517396119853 L7.688426061877612,44.09155020140175 L7.531651777978625,44.131496952474194 L7.360641661643019,44.171259388020644 L7.175985579097265,44.21077430988943 L6.965459238042865,44.25202251431624 L6.741128216889833,44.29226546007854 L6.503601504272948,44.33136991369967 L6.253488867736248,44.369211327833575 L5.991400853733031,44.40567384126482 L5.71794878762586,44.44065027890859 L5.433744773686561,44.474042151810664 L5.139401695096225,44.50575965714743 L4.835533213945203,44.5357216782259 L4.522753771233105,44.56385578448368 L4.201678586868809,44.590098231489 L3.872923659670459,44.614393960940696 L3.537105767365451,44.63669660066822 L3.194842466590453,44.656968464631625 L2.8467520928913945,44.675180552921574 L2.4934537607234617,44.69131255175935 L2.0819196823101414,44.70717541690992 L1.6653739804660095,44.72017078575558 L1.2448418219140231,44.73026549958184 L0.8213452577411626,44.73743387036016 L0.39590322339842565,44.741657680747956 L-0.030468461299182348,44.742926184088596 L-0.45675709217263005,44.7412361044114 L-0.8819530806788713,44.73659163643165 L-1.305049953910847,44.72900444555057 L-1.7250443545974798,44.718493667855356 L-2.140936041103677,44.70508591011914 L-2.5517278874303306,44.68881524980102 L-2.956425883214309,44.669723235046035 L-3.354039133728466,44.6478588846852 L-3.7435798598816437,44.62327868823546 L-4.1240633982186665,44.59604660589973 L-4.692194780485887,44.54887126369217 L-4.966149151272577,44.523140112962274 L-5.23284953589059,44.49600188034987 L-5.491897917443075,44.46748893628501 L-5.742885729078134,44.43764640482082 L-5.985393853988837,44.40653216363351 L-6.218992625413211,44.374216844022385 L-6.443241826634239,44.34078383090984 L-6.657690690979862,44.30632926284134 L-6.861877901822984,44.27096203198545 L-7.055331592581464,44.23480378413381 L-7.237569346718118,44.19798891870116 L-7.408098197740721,44.16066458872532 L-7.566414629202012,44.122990700867184 L-7.712004574699684,44.085139915410764 L-7.880996548131519,44.03643008268891 L-8.025141775210482,43.98924939148757 L-8.142132013479221,43.94524246082625 L-8.229044884965736,43.90711973480457 L-8.280954054515915,43.88014010703226 L-8.294258846114804,43.87212480059455 L-8.297609566102391,43.869936884137935 L-8.298724638787274,43.86916962443297 " />
			<path d="M-8.298724638787274,43.86916962443297 L-8.285616410381218,43.87998634721266 L-8.249101674048868,43.91754561448856 L-8.225451985797786,43.9472444016924 L-8.199888503099467,43.98493279658452 L-8.174173678717098,44.030465766173876 L-8.15011794586309,44.083269017083026 L-8.129351123770899,44.142603244503356 L-8.113419400578879,44.20696931484358 L-8.103411724201449,44.274817130639086 L-8.10000000000002,44.34444383391778 " />
			<path d="M-8.100000000000017,52.26074309009263 L-8.100000000000017,44.34444383391778 " />
			<path d="M8.09999999999998,52.26074309009263 L8.09999999999998,44.34444383391778 " />

        </g>

        <!-- solid lines -->
        <g  stroke="rgb(0,0,0)" fill="none">
    			<path d="M-4.938657162882529,51.33445100962421 L-4.480360461135915,51.28715573634787 L-4.00038272254843,51.244571776696276 L-3.501046620736044,51.20690519989222 L-2.9847685069082805,51.174338279314476 L-2.454046716835918,51.147028610453624 L-1.911449481084918,51.12510834828732 L-1.3596024970205067,51.1086835677655 L-0.8011762227220683,51.09783375050013 L-0.23887295429524583,51.092611400143504 L0.32458625088426757,51.09304178831639 L0.8864747417151237,51.09912283231542 L1.4440734679834308,51.11082510519156 L1.9946841381942269,51.12809197815085 L2.535642276948854,51.15083989458843 L3.0643301186819194,51.17895877442957 L3.5781892753634055,51.21231254682125 L4.074733116865297,51.25073980859642 L4.551558804082549,51.294054605324526 L5.006358916578591,51.34204733116875 L5.4369326184876945,51.3944857431955 L5.841196308640986,51.45111608522758 L6.0328453240528255,51.48091834881496 L6.217193703378774,51.51166431580281 L6.394018357784594,51.54331677901873 L6.563105303257188,51.57583743429565 L6.724249919556942,51.609186926825565 L6.877257197838511,51.64332489878468 L7.021941976640388,51.678210038172324 L7.158129165957693,51.71380012880464 L7.285653959127015,51.75005210140237 L7.404362032266859,51.786922085711076 L7.514109731032401,51.824365463590645 L7.614764244458516,51.86233692300985 L7.706203765680702,51.90079051288061 L7.788317639339433,51.93967969866561 L7.861006495489521,51.978957418691984 L7.924182369852461,52.01857614110291 L7.9777688102662365,52.05848792137818 L8.021700969203756,52.098644460354194 L8.05592568224796,52.138997162673064 L8.069384343404275,52.15923182251209 L8.080401532428633,52.17949719559024 L8.088973915961406,52.19978715041822 L8.09509890034308,52.2200955480693 L8.098774632398982,52.240416244036695 L8.099999999999982,52.26074309009262 " />
			<path d="M8.099999999999982,52.26074309009263 L8.097560431439236,52.289422950831415 L8.090243195261879,52.3180855358945 L8.078052699097373,52.346713580012405 L8.060996286044777,52.37528983872183 L8.039084230249532,52.40379709875305 L8.012329730714708,52.43221818839859 L7.980748903350406,52.46053598785679 L7.944360771266148,52.4887334395441 L7.903187253312064,52.51679355837001 L7.857253150875788,52.54469944196818 L7.806586132943044,52.572434280877786 L7.751216719430873,52.59998136866895 L7.691178262803579,52.627324112006036 L7.62650692798245,52.65444604064287 L7.483424213341404,52.70796224772461 L7.322313274299873,52.76040106468383 L7.143562241221657,52.811636161817404 L6.9476017410021855,52.86154410928866 L6.734903859650599,52.91000467448071 L6.505981004993206,52.956901111647376 L6.261384672238151,53.002120443163875 L6.00170411537515,53.04555373169983 L5.7275649276110165,53.087096342658874 L5.439627534260831,53.12664819625248 L5.13858560172551,53.16411400860102 L4.825164366388691,53.19940352128093 L4.5001188874587585,53.232431718765156 L4.164232227965076,53.26311903323304 L3.8183135682905607,53.29139153625614 L3.463196256785266,53.31718111689829 L3.099735802157208,53.34042564580081 L2.728807812476963,53.36106912485762 L2.351305885761127,53.3790618221195 L1.9681394572164188,53.394360391602774 L1.5802316083306198,53.406927977713565 L1.1885168430884105,53.41673430403613 L0.7939388366694209,53.42375574627144 L0.39744816205206723,53.427975389150134 L-1.906614774024058e-14,53.42938306718293 L-0.3974481620521054,53.427975389150134 L-0.793938836669459,53.42375574627144 L-1.1885168430884487,53.41673430403613 L-1.5802316083306578,53.406927977713565 L-1.9681394572164568,53.394360391602774 L-2.351305885761165,53.3790618221195 L-2.7288078124770023,53.36106912485762 L-3.0997358021572476,53.34042564580081 L-3.4631962567853036,53.31718111689829 L-3.818313568290602,53.29139153625614 L-4.164232227965118,53.26311903323304 L-4.500118887458799,53.232431718765156 L-4.82516436638873,53.19940352128093 L-5.138585601725548,53.16411400860102 L-5.439627534260867,53.12664819625248 L-5.727564927611055,53.087096342658874 L-6.0017041153751896,53.04555373169983 L-6.261384672238189,53.002120443163875 L-6.5059810049932425,52.956901111647376 L-6.734903859650635,52.91000467448071 L-6.947601741002221,52.86154410928866 L-7.143562241221694,52.811636161817404 L-7.32231327429991,52.76040106468383 L-7.483424213341441,52.70796224772461 L-7.6265069279824855,52.65444604064287 L-7.691178262803614,52.627324112006036 L-7.751216719430911,52.59998136866895 L-7.806586132943082,52.572434280877786 L-7.857253150875826,52.54469944196818 L-7.9031872533121,52.51679355837001 L-7.944360771266185,52.4887334395441 L-7.980748903350443,52.46053598785679 L-8.012329730714743,52.43221818839859 L-8.03908423024957,52.40379709875305 L-8.060996286044812,52.37528983872183 L-8.078052699097409,52.346713580012405 L-8.090243195261914,52.3180855358945 L-8.097560431439272,52.289422950831415 L-8.100000000000017,52.26074309009264 " />
			<path d="M-8.100000000000017,52.26074309009263 L-8.096688206530077,52.227328167954624 L-8.086755534262478,52.19394057009339 L-8.070210105409354,52.160607598441906 L-8.047065449611011,52.12735651026385 L-8.017340492872373,52.09421449586457 L-7.981059542086678,52.061208656356875 L-7.938252265159085,52.02836598149972 L-7.888953666746435,51.995713327627946 L-7.833204059632997,51.96327739569115 L-7.771049031765633,51.9310847094196 L-7.702539408975309,51.89916159363508 L-7.627731213415458,51.86753415272433 L-7.54668561775115,51.836228249292866 L-7.459468895136578,51.80526948301638 L-7.366152365021729,51.77468316970722 L-7.2668123348325455,51.744494320612944 L-7.0503915653952225,51.68540741478714 L-6.8109143343470055,51.62820199381052 L-6.549163789337658,51.57306513305051 L-6.2659959170647515,51.52017714318939 L-5.962336743993047,51.46971098056535 L-5.639179308027146,51.421831681564 L-5.297580411040751,51.37669582291009 L-4.938657162882587,51.33445100962422 " />
			<path d="M11.157706923549352,48.56685787593908 L25.424938727432156,46.9834526101811 " />
			<path d="M25.424938727432156,-42.965497688105714 L25.424938727432156,46.98345261018109 " />
			<path d="M-25.42493872743219,-48.24351524063232 L-25.42493872743219,41.70543505765448 " />
			<path d="M-25.424938727432192,41.70543505765448 L-25.37632594247666,41.7946304264534 L-25.320681886802063,41.883740216507874 L-25.25801376477778,41.97275289055962 L-25.188329690195907,42.06165692392418 L-25.111638685220747,42.15044080598309 L-25.0279506792207,42.239093041674124 L-24.93727650748268,42.32760215297968 L-24.839627909809202,42.41595668041276 L-24.735017528998483,42.50414518450075 L-24.623458909207486,42.59215624726646 L-24.504966494198335,42.67997847370645 L-24.37955562546827,42.767600493266386 L-24.247242540263315,42.85501096131319 L-24.108044369476048,42.94219856060387 L-23.961979135427555,43.02915200275078 L-23.809065749534106,43.115860029683155 L-23.64932400985861,43.20231141510475 L-23.482774598547316,43.2884949659473 L-23.309439079152064,43.374399523819726 L-23.12933989383837,43.46001396645282 L-22.942500360479826,43.545327209139316 L-22.748944669639037,43.630328206169025 L-22.54869788143563,43.715005952258934 L-22.34178592230166,43.79934948397812 L-22.128235581624857,43.8833478811672 L-21.908074508280144,43.96699026835216 L-21.681331207049837,44.05026581615249 L-21.448035034933113,44.13316374268324 L-21.20821619734503,44.215673314950976 L-20.961905744205836,44.297783850243455 L-20.70913556592079,44.37948471751268 L-20.44993838925125,44.46076533875137 L-20.184347773077512,44.5416151903625 L-19.912398104053786,44.622023804521824 L-19.634124592156134,44.70198077053317 L-19.34956326612371,44.781475736176326 L-19.058750968794058,44.86049840904739 L-18.761725352332967,44.93903855789133 L-18.149188787967212,45.094630672162005 L-17.512270789072275,45.24817150205936 L-16.85130119817653,45.39958153295886 L-16.16662231347444,45.548782353718885 L-15.458588711559614,45.695696697287715 L-14.727567063799235,45.840248480718074 L-13.973935946444897,45.98236284456837 L-13.19808564457827,46.12196619167042 L-12.400417949993042,46.258986225243376 L-11.581345953117875,46.393351986334295 L-10.741293829088121,46.524993890565845 L-9.88069661807696,46.653843764172166 L-9.000000000000071,46.77983487930418 " />
			<path d="M8.999999999999979,48.45206106272243 L10.074656120755336,48.511101677915605 L11.157706923549235,48.56685787593907 " />
			<path d="M-11.157706923549387,40.122029791896495 L-10.222206447282595,40.16997070069789 L-9.292913760306245,40.22036215405487 L-8.3701372161423,40.273187431312756 L-7.454183006156917,40.328429004236874 L-6.545355057961455,40.38606854282872 L-5.643954934564654,40.446086921408096 L-4.750281734309425,40.508464224959354 L-3.86463199162743,40.573179755739446 L-2.9872995786444463,40.64021204014579 L-2.1185756076690794,40.70953883584154 L-1.2587483345972572,40.7811371391359 L-0.4081030632645195,40.85498319261714 L0.43307794922215237,40.93105249303565 L1.2645155861415809,41.00931979943448 L2.085933963773556,41.089759141524695 L2.8970605229412953,41.17234382830273 L3.6976261194507565,41.257046456906814 L4.487365113396752,41.34383892170972 L5.266015457306377,41.43269242364462 L6.033318783090333,41.52357747976104 L6.7890204877734455,41.616463933007765 L7.532869817975797,41.711320962239434 L8.264619953116519,41.80811709244342 L8.98402808731269,41.90682020518376 L9.690855509945973,42.007397549258535 L10.384867684870517,42.10981575156718 L11.06583432823555,42.21404082818427 L11.733529484897186,42.32003819563582 L12.3877316033937,42.42777268237466 L13.028223609459747,42.537208540450884 L13.654792978054918,42.64830945737357 L14.267231803882762,42.7610385681598 L14.865336870376982,42.87535846756703 L15.448909717131802,42.991231222504766 L16.017756705754106,43.108618384621266 L16.571689084115693,43.22748100306136 L17.110523048984067,43.34777963739088 L17.634079807011172,43.46947437068366 L18.142185634059782,43.59252482276655 L18.634671932847777,43.71689016361815 L19.111375288891356,43.842529126916894 L19.572137524728436,43.9694000237338 L20.01680575240432,44.0974607563655 L20.445232424202313,44.226668832302934 L20.85727538160229,44.35698137833097 L21.25279790245104,44.48835515475442 L21.631668746328803,44.62074656974564 L21.993762198096835,44.75411169380892 L22.338958109611607,44.888406274357024 L22.667141939591804,45.023585750394815 L22.978204791624865,45.15960526730532 L23.272043450300497,45.296419691733156 L23.412473014179785,45.36511081755866 L23.548560415459104,45.43398362656048 L23.680294364934195,45.503032405357374 L23.80766393454382,45.57225142597043 L23.930658558276168,45.6416349462982 L24.04926803304546,45.7111772105931 L24.16348251953836,45.780872449938855 L24.27329254303014,45.850714882729065 L24.378688994170705,45.92069871514679 L24.479663129740214,45.990818141645235 L24.576206573374474,46.061067345429315 L24.668311316259715,46.131440498938204 L24.75596971779699,46.20193176432875 L24.83917450623601,46.27253529395976 L24.9179187792784,46.34324523087713 L24.99219600465025,46.41405570929966 L25.06200002064401,46.484960855105676 L25.127325036629646,46.555954786320314 L25.188165633534982,46.62703161360347 L25.244516764295316,46.698185440738385 L25.296373754271986,46.76941036512069 L25.34373230164024,46.840700478248124 L25.386588477746077,46.91204986621066 L25.424938727432117,46.98345261018101 " />
			<path d="M-11.157706923549387,40.122029791896495 L-25.424938727432192,41.705435057654476 " />
			<path d="M-5.487396847647252,43.315230411175094 L-4.978178290151016,43.262680107534706 L-4.444869691720476,43.215364596810716 L-3.890051800817825,43.17351284480621 L-3.3164094521203102,43.137327377497606 L-2.7267185742621294,43.10698330098555 L-2.1238327567610185,43.0826274541341 L-1.5106694411338946,43.06437769799875 L-0.8901958030245184,43.05232234548166 L-0.2654143936613823,43.0465197339743 L0.3606513898714104,43.04699794305529 L0.9849719352390284,43.05375465860977 L1.6045260755371473,43.06675718402769 L2.2163157091046988,43.08594259842691 L2.817380307720951,43.11121806113533 L3.4048112429799127,43.14246126095882 L3.975765861514897,43.17952100806069 L4.527481240961443,43.22221796558866 L5.057287560091724,43.27034551750877 L5.562621018420659,43.3236707684468 L5.805341291853334,43.35220284031434 L6.0410362427641076,43.381935670698745 L6.269420645364574,43.41283327847291 L6.490218120712209,43.444858272956616 L6.703161471169808,43.477971899164814 L6.9079930037541954,43.51213408470687 L7.104464841982885,43.547303488280114 L7.292339225841323,43.58343754969891 L7.471388799507715,43.62049254139882 L7.641396886487237,43.658423621353386 L7.802157751822655,43.69718488733966 L7.953476851064106,43.73672943248668 L8.095171065696686,43.77700940203971 L8.227068924740957,43.8179760512716 L8.349010812258225,43.859579804471124 L8.460849160509465,43.90177031493691 L8.562448628534115,43.94449652590442 L8.653686265932706,43.9877067323322 L8.734451661655026,44.03134864347262 L8.804647077613847,44.07536944615142 L8.864187566962487,44.1197158686795 L8.913001076893066,44.164334245319516 L8.933366245567646,44.18672855411469 L8.951028535831068,44.20917058122937 L8.96598260378253,44.23165353660607 L8.978223924920705,44.25417061780401 L8.987748795512676,44.27671501205732 L8.994554333714536,44.2992798983363 L8.998638480443315,44.32185844941119 L8.999999999999982,44.344443833917765 " />
			<path d="M-9.000000000000018,44.34444383391778 L-8.996320229477863,44.30731614265332 L-8.985283926958306,44.270218811696395 L-8.966900117121503,44.23318217652808 L-8.941183832901123,44.196236522996905 L-8.908156103191523,44.159412062553265 L-8.867843935651862,44.122738907544715 L-8.820280294621204,44.08624704659232 L-8.765504074162703,44.04996632006813 L-8.703560066258884,44.013926395693915 L-8.634498924184035,43.97815674428108 L-8.558377121083677,43.94268661563161 L-8.475256903794952,43.907545014619664 L-8.38520624194572,43.8727606774736 L-8.288298772373974,43.8383620482775 L-8.184613738913031,43.80437725571176 L-8.074235927591715,43.77083409005146 L-7.95725559730256,43.73775998044154 L-7.8337684059946895,43.70518197246724 L-7.703875332451759,43.673126706038204 L-7.567682593718893,43.64162039360432 L-7.276848654819619,43.580357214982094 L-6.9622176856274995,43.52159278180307 L-6.624818604436717,43.46551926777636 L-6.265754786696828,43.41232004666375 L-5.8862004567119435,43.36216909260384 L-5.487396847647316,43.3152304111751 " />
			<path d="M-11.157706923549387,-49.82692050639031 L-11.157706923549387,40.122029791896495 " />
			<path d="M-11.157706923549387,-49.82692050639031 L-10.222206447282595,-49.778979597588915 L-9.292913760306245,-49.728588144231935 L-8.3701372161423,-49.67576286697405 L-7.454183006156917,-49.62052129404993 L-6.545355057961455,-49.562881755458086 L-5.643954934564654,-49.50286337687871 L-4.750281734309425,-49.44048607332745 L-3.86463199162743,-49.37577054254736 L-2.9872995786444463,-49.30873825814101 L-2.1185756076690794,-49.23941146244526 L-1.2587483345972572,-49.1678131591509 L-0.4081030632645195,-49.09396710566966 L0.43307794922215237,-49.01789780525115 L1.2645155861415809,-48.939630498852324 L2.085933963773556,-48.85919115676211 L2.8970605229412953,-48.776606469984074 L3.6976261194507565,-48.69190384137999 L4.487365113396752,-48.605111376577085 L5.266015457306377,-48.516257874642186 L6.033318783090333,-48.425372818525766 L6.7890204877734455,-48.33248636527904 L7.532869817975797,-48.23762933604737 L8.264619953116519,-48.140833205843386 L8.98402808731269,-48.04213009310304 L9.690855509945973,-47.94155274902827 L10.384867684870517,-47.83913454671962 L11.06583432823555,-47.73490947010254 L11.733529484897186,-47.628912102650986 L12.3877316033937,-47.521177615912144 L13.028223609459747,-47.41174175783592 L13.654792978054918,-47.30064084091323 L14.267231803882762,-47.187911730127006 L14.865336870376982,-47.07359183071977 L15.448909717131802,-46.95771907578204 L16.017756705754106,-46.84033191366554 L16.571689084115693,-46.72146929522545 L17.110523048984067,-46.601170660895924 L17.634079807011172,-46.47947592760314 L18.142185634059782,-46.356425475520254 L18.634671932847777,-46.23206013466865 L19.111375288891356,-46.10642117136991 L19.572137524728436,-45.979550274553006 L20.01680575240432,-45.8514895419213 L20.445232424202313,-45.72228146598387 L20.85727538160229,-45.59196891995583 L21.25279790245104,-45.46059514353238 L21.631668746328803,-45.32820372854116 L21.993762198096835,-45.19483860447788 L22.338958109611607,-45.06054402392978 L22.667141939591804,-44.92536454789199 L22.978204791624865,-44.78934503098149 L23.272043450300497,-44.65253060655365 L23.412473014179785,-44.583839480728145 L23.548560415459104,-44.51496667172632 L23.680294364934195,-44.44591789292943 L23.80766393454382,-44.376698872316375 L23.930658558276168,-44.307315351988606 L24.04926803304546,-44.237773087693704 L24.16348251953836,-44.16807784834795 L24.27329254303014,-44.09823541555774 L24.378688994170705,-44.02825158314001 L24.479663129740214,-43.95813215664157 L24.576206573374474,-43.88788295285749 L24.668311316259715,-43.8175097993486 L24.75596971779699,-43.747018533958055 L24.83917450623601,-43.67641500432704 L24.9179187792784,-43.60570506740967 L24.99219600465025,-43.53489458898714 L25.06200002064401,-43.46398944318113 L25.127325036629646,-43.39299551196649 L25.188165633534982,-43.32191868468333 L25.244516764295316,-43.25076485754842 L25.296373754271986,-43.17953993316611 L25.34373230164024,-43.10824982003868 L25.386588477746077,-43.036900432076145 L25.424938727432117,-42.96549768810579 " />
			<path d="M-25.42493872743219,-48.24351524063232 L-11.157706923549384,-49.8269205063903 " />
			<path d="M-5.487396847647252,51.231529667349946 L-4.978178290151016,51.17897936370956 L-4.444869691720476,51.13166385298557 L-3.890051800817825,51.089812100981064 L-3.3164094521203102,51.05362663367246 L-2.7267185742621294,51.0232825571604 L-2.1238327567610185,50.99892671030895 L-1.5106694411338946,50.9806769541736 L-0.8901958030245184,50.968621601656515 L-0.2654143936613823,50.96281899014915 L0.3606513898714104,50.96329719923014 L0.9849719352390284,50.97005391478462 L1.6045260755371473,50.983056440202546 L2.2163157091046988,51.00224185460176 L2.817380307720951,51.027517317310185 L3.4048112429799127,51.05876051713367 L3.975765861514897,51.09582026423554 L4.527481240961443,51.138517221763514 L5.057287560091724,51.186644773683625 L5.562621018420659,51.239970024621655 L5.805341291853334,51.26850209648919 L6.0410362427641076,51.2982349268736 L6.269420645364574,51.32913253464776 L6.490218120712209,51.36115752913147 L6.703161471169808,51.394271155339666 L6.9079930037541954,51.428433340881725 L7.104464841982885,51.46360274445497 L7.292339225841323,51.49973680587376 L7.471388799507715,51.53679179757367 L7.641396886487237,51.57472287752824 L7.802157751822655,51.61348414351451 L7.953476851064106,51.653028688661536 L8.095171065696686,51.69330865821456 L8.227068924740957,51.73427530744645 L8.349010812258225,51.77587906064598 L8.460849160509465,51.818069571111764 L8.562448628534115,51.86079578207927 L8.653686265932706,51.90400598850705 L8.734451661655026,51.94764789964747 L8.804647077613847,51.99166870232627 L8.864187566962487,52.03601512485435 L8.913001076893066,52.08063350149437 L8.933366245567646,52.10302781028954 L8.951028535831068,52.125469837404225 L8.96598260378253,52.14795279278092 L8.978223924920705,52.17046987397886 L8.987748795512676,52.193014268232176 L8.994554333714536,52.215579154511154 L8.998638480443315,52.23815770558604 L8.999999999999982,52.26074309009262 " />
			<path d="M8.999999999999982,52.26074309009263 L8.99728936826582,52.29260960202461 L8.989159105846534,52.32445691876137 L8.975614110108195,52.356265856670156 L8.956662540049754,52.38801725523618 L8.932315811388372,52.41969198860421 L8.902588589683011,52.451270977099256 L8.867498781500453,52.48273519871947 L8.827067523629056,52.51406570059426 L8.78131917034674,52.54524361040083 L8.730281278750878,52.576250147732125 L8.673984592158941,52.607066635409474 L8.612463021589862,52.637674510732985 L8.545753625337312,52.66805533666308 L8.47389658664717,52.69819081292623 L8.396935189512632,52.72806278703837 L8.314915792601562,52.75765326523927 L8.135903638110973,52.815918617416195 L7.937291379135177,52.87284650312016 L7.719557490002431,52.92829977808822 L7.483226510722889,52.98214485052383 L7.228867783325787,53.03425200293123 L6.957094080264614,53.08449570461623 L6.668560128194613,53.13275491410064 L6.36396103067891,53.17891337072179 L6.044030593623147,53.222859874714686 L5.709539557472792,53.264488555101956 L5.361293740431881,53.303699124746295 L5.000132097176401,53.34039712195099 L4.626924697738977,53.37449413802642 L4.242570631433958,53.405908030274304 L3.84799584087252,53.43456311987669 L3.4441508912857888,53.460390374212835 L3.0320086805299606,53.48332757316484 L2.6125620952901434,53.50331945901138 L2.1868216191293564,53.52031786954835 L1.7558128981451353,53.53428185411589 L1.320574270098236,53.54517777225208 L0.8821542629660252,53.552979374735756 L0.44160906894674334,53.557667866823195 L-1.9210878778711478e-14,53.55923195352629 L-0.4416090689467818,53.557667866823195 L-0.8821542629660636,53.552979374735756 L-1.3205742700982745,53.54517777225208 L-1.7558128981451735,53.53428185411589 L-2.1868216191293945,53.52031786954835 L-2.612562095290181,53.50331945901138 L-3.0320086805300006,53.48332757316484 L-3.4441508912858287,53.460390374212835 L-3.847995840872558,53.43456311987669 L-4.242570631434001,53.405908030274304 L-4.626924697739018,53.37449413802642 L-5.000132097176443,53.34039712195099 L-5.361293740431921,53.303699124746295 L-5.709539557472829,53.264488555101956 L-6.044030593623184,53.222859874714686 L-6.363961030678948,53.17891337072179 L-6.668560128194653,53.13275491410064 L-6.957094080264652,53.08449570461623 L-7.228867783325823,53.03425200293123 L-7.483226510722925,52.98214485052383 L-7.719557490002466,52.92829977808822 L-7.937291379135214,52.87284650312016 L-8.13590363811101,52.815918617416195 L-8.3149157926016,52.75765326523927 L-8.396935189512668,52.72806278703837 L-8.473896586647205,52.69819081292623 L-8.545753625337348,52.66805533666308 L-8.6124630215899,52.637674510732985 L-8.673984592158979,52.60706663540947 L-8.730281278750915,52.576250147732125 L-8.781319170346777,52.54524361040083 L-8.827067523629093,52.51406570059426 L-8.86749878150049,52.48273519871947 L-8.902588589683047,52.451270977099256 L-8.932315811388408,52.41969198860421 L-8.95666254004979,52.38801725523618 L-8.97561411010823,52.356265856670156 L-8.98915910584657,52.32445691876137 L-8.997289368265855,52.29260960202461 L-9.000000000000018,52.26074309009264 " />
			<path d="M-9.000000000000018,52.26074309009263 L-8.996320229477863,52.22361539882817 L-8.985283926958306,52.18651806787125 L-8.966900117121503,52.149481432702935 L-8.941183832901123,52.11253577917176 L-8.908156103191523,52.07571131872812 L-8.867843935651862,52.03903816371957 L-8.820280294621204,52.00254630276717 L-8.765504074162703,51.96626557624298 L-8.703560066258884,51.93022565186877 L-8.634498924184035,51.89445600045593 L-8.558377121083677,51.85898587180646 L-8.475256903794952,51.82384427079452 L-8.38520624194572,51.78905993364845 L-8.288298772373974,51.754661304452355 L-8.184613738913031,51.720676511886616 L-8.074235927591715,51.68713334622631 L-7.95725559730256,51.65405923661639 L-7.8337684059946895,51.62148122864209 L-7.703875332451759,51.589425962213056 L-7.567682593718893,51.55791964977917 L-7.276848654819619,51.496656471156946 L-6.9622176856274995,51.437892037977925 L-6.624818604436717,51.38181852395121 L-6.265754786696828,51.328619302838604 L-5.8862004567119435,51.278468348778695 L-5.487396847647316,51.23152966734995 " />
			<path d="M-9.00000000000002,52.26074309009263 L-9.00000000000002,44.34444383391778 " />
			<path d="M8.999999999999982,52.26074309009263 L8.999999999999982,44.34444383391778 " />

        </g>
        </g>
    </svg>
    