<?xml version='1.0' encoding='utf-8'?>
<svg width="100.09mm" height="80.947128mm" viewBox="-41.392559 -28.752759 82.785118 66.951919" version="1.1" xmlns="http://www.w3.org/2000/svg">
  <g transform="scale(1,-1)" stroke-linecap="round">
    <g fill="none" stroke="rgb(0,0,0)" stroke-width="0.07443961048556248" id="Visible">
      <path d="M -41.355339,-16.03559 A 6.0,1.7306338616115955 -1.6608670465714222e-15 0,1 -29.355339,-16.03559" />
      <path d="M 41.355339,-36.431306 A 6.0,1.7306338616115953 -180.0 0,0 29.355339,-36.431306" />
      <path d="M 2.839449,14.094223 A 44.80384757729337,30.334603020441975 106.08962296198385 0,1 -19.79899,13.853812" />
      <line x1="15.556349" y1="-31.944249" x2="19.79899" y2="-30.720506" />
      <line x1="19.79899" y1="-30.720506" x2="19.79899" y2="-2.587222" />
      <line x1="15.556349" y1="-31.944249" x2="15.556349" y2="3.43199" />
      <line x1="-19.79899" y1="-21.746391" x2="-19.79899" y2="13.853812" />
      <line x1="15.556349" y1="-31.944249" x2="-19.79899" y2="-21.746391" />
      <path d="M -41.355339,-16.03559 C -41.355567,-11.922386 -40.996212,-7.895972 -40.27937,-4.055192 C -38.979642,2.923814 -36.492219,9.287068 -32.923188,14.504038 C -30.646635,17.836224 -27.928296,20.701779 -24.848206,22.960234 C -21.920817,25.10981 -18.666126,26.704555 -15.227328,27.655715 C -12.752046,28.342223 -10.184071,28.696078 -7.58794,28.714723 C -4.991444,28.734146 -2.366792,28.41836 0.23172,27.786598 C 4.920668,26.648425 9.520388,24.480597 13.816812,21.45574 C 20.255001,16.931995 26.018987,10.467483 30.549236,2.82245 C 33.776597,-2.615063 36.378537,-8.641579 38.207731,-14.899782 C 40.278375,-21.970113 41.357791,-29.330208 41.355339,-36.431306" />
      <path d="M -29.355339,-16.03559 C -29.356778,-11.508352 -28.827633,-7.167633 -27.819617,-3.25659 C -26.677484,1.193824 -24.913614,5.07649 -22.737062,8.133411 C -21.819673,9.421239 -20.840316,10.563261 -19.79899,11.559477" />
      <path d="M 29.355339,-36.431306 C 29.359036,-30.382211 28.408604,-24.00477 26.580928,-17.898734 C 24.861377,-12.132131 22.363029,-6.61162 19.305984,-1.79595 C 16.886137,2.023016 14.118847,5.3985 11.178076,8.153297 C 8.486359,10.678513 5.652056,12.680868 2.839449,14.094223" />
    </g>
    <g fill="none" stroke="rgb(99,99,99)" stroke-width="0.07443961048556248" id="Hidden" stroke-dasharray="0.001891 0.224264">
      <path d="M -31.112698,-14.811848 A 6.0,1.7306338616115955 -1.6608670465714222e-15 0,1 -41.355339,-16.03559" />
      <path d="M -29.355339,-16.03559 A 6.0,1.7306338616115955 -1.6608670465714222e-15 0,1 -31.112698,-14.811848" />
      <path d="M 39.59798,-35.207563 A 6.0,1.7306338616115953 -180.0 0,0 41.355339,-36.431306" />
      <path d="M 29.355339,-36.431306 A 6.0,1.7306338616115953 -180.0 0,0 39.59798,-35.207563" />
      <path d="M 15.556349,3.655954 C 16.17184,3.249483 16.914679,3.116056 17.667994,3.333693 C 18.427809,3.546697 19.178265,4.111559 19.79899,4.879697" />
      <path d="M 19.79899,4.879697 A 44.80384757729337,30.334603020441975 106.08962296198385 0,1 -15.556349,15.077555" />
      <path d="M -19.79899,13.853812 C -19.49563,13.654171 -19.169088,13.523645 -18.819364,13.462235 C -18.167485,13.347783 -17.450659,13.517019 -16.78442,13.948345" />
      <path d="M -16.78442,13.948345 C -16.345098,14.230209 -15.928924,14.61868 -15.556349,15.077555" />
      <path d="M 15.556349,3.655954 A 44.80384757729337,30.334603020441975 106.08962296198385 0,1 2.839449,14.094223" />
      <line x1="19.79899" y1="-2.587222" x2="19.79899" y2="4.879697" />
      <line x1="15.556349" y1="3.43199" x2="15.556349" y2="3.655954" />
      <line x1="19.79899" y1="-30.720506" x2="-15.556349" y2="-20.522648" />
      <line x1="-15.556349" y1="-20.522648" x2="-15.556349" y2="15.077555" />
      <line x1="-19.79899" y1="-21.746391" x2="-15.556349" y2="-20.522648" />
      <path d="M -19.79899,11.559477 Q -18.35248,12.943257 -16.78442,13.948345" />
    </g>
  </g>
</svg>