<?xml version="1.0" encoding="UTF-8" standalone="no"?>
    <svg
    xmlns:svg="http://www.w3.org/2000/svg"
    xmlns="http://www.w3.org/2000/svg"
    width="399"
    height="218"
    >
        <g transform="scale(4, -4)   translate(49.9264069709444,-26.673910740608655)" stroke-width="0.25"  fill="none">
        <!-- hidden lines -->
        <g  stroke="rgb(160,160,160)" fill="none" stroke-dasharray="0.25,0.25" >
    			<path d="M-47.4264068709444,-0.7391595352304698 L-47.41854094603296,-0.7870514349606279 L-47.39496792040958,-0.8248292017345993 L-47.35576196353403,-0.8523739727216877 L-47.30104643185146,-0.8695990818817825 L-47.23099348066734,-0.876450332648786 L-47.14582352248318,-0.8729061684530728 L-47.0458045334973,-0.8589777405464165 L-46.93125121045248,-0.8347088729160297 L-46.8025239804837,-0.8001759243980955 L-46.66002786708089,-0.7554875484246103 L-46.504211215735346,-0.700784351159496 L-46.33556428327878,-0.6362384490995802 L-46.15461769535406,-0.5620529275324302 L-45.96194077687061,-0.47846120155489985 " />
			<path d="M-45.9619407768706,-0.4784612015548919 L3.5355339062792615,21.534677303755974 " />
			<path d="M7.071067812214719,23.49764175755242 L7.071067812208088,24.173910740608655 " />
			<path d="M3.5355339062792703,21.534677303755977 L3.73933492245234,21.62741222364801 L3.9536188029190287,21.728998559087955 L4.177711331313976,21.839116681881183 L4.410907429636614,21.95742011967361 L4.652473376687361,22.083536646081885 L4.901649116626009,22.217069451855306 L5.157650650388563,22.35759839338452 L5.419672502438358,22.50468131462879 L5.686890255090102,22.657855438302434 L5.9584631424329135,22.81663882194341 L6.233536695690901,22.980531874282587 L6.511245431698114,23.149018927142716 L6.790715576028742,23.321569857921297 L7.071067812214694,23.497641757552387 " />
			<path d="M47.42640687146746,5.550308609077682 L47.41854094655705,5.502416709347536 L47.394967920934704,5.464638942573604 L47.35576196406018,5.4370941715865815 L47.301046432378634,5.419869062426578 L47.230993481195505,5.413017811659687 L47.145823523012346,5.416561975855542 L47.045804534027425,5.430490403762363 L46.93125121098356,5.454759271392938 L46.802523981015696,5.489292219911087 L46.66002786761379,5.5339805958848025 L46.504211216269105,5.588683793150176 L46.33556428381337,5.653229695210369 L46.15461769588944,5.727415216777818 L45.961940777406745,5.811006942755662 " />
			<path d="M45.96194077740673,5.811006942755669 L10.606601718144743,21.534677303750158 " />
			<path d="M7.071067812214713,23.497641757552405 L7.351420048400657,23.321569857920842 L7.63089019273119,23.1490189271418 L7.908598928738261,22.980531874281212 L8.183672481996052,22.81663882194158 L8.455245369338595,22.657855438300157 L8.722463121990028,22.504681314626076 L8.984484974039455,22.357598393381373 L9.240486507801585,22.217069451851735 L9.489662247739755,22.08353664607791 L9.73122819478998,21.957420119669237 L9.964424293112035,21.83911668187643 L10.188516821506362,21.72899855908283 L10.40280070197238,21.627412223642537 L10.606601718144729,21.534677303750165 " />
			<path d="M2.2230339791207143e-10,-7.547892299095533 L2.2230339791207143e-10,-13.714276869845644 " />
			<path d="M-5.805486404406466,-7.864631286715795 L-5.805486404406466,-13.3053458547013 " />
			<path d="M2.2230339791207143e-10,-13.714276869845644 L-5.8054864044064685,-13.3053458547013 " />
			<path d="M-8.473975608694108,-6.67786725824017 L-8.473975608694108,-15.63450140452391 " />
			<path d="M-5.805486404406466,-13.3053458547013 L-8.473975608694106,-15.63450140452391 " />
			<path d="M-4.317706230927259,-8.526295568260336 L-4.317706230927259,-17.482929714544078 " />
			<path d="M-8.473975608694108,-15.63450140452391 L-4.31770623092726,-17.482929714544078 " />
			<path d="M0.9194987152206676,-7.339531539797717 L0.9194987152206676,-16.29616568608146 " />
			<path d="M-4.317706230927259,-17.482929714544074 L0.9194987152206703,-16.296165686081455 " />
			<path d="M0.9194987152206676,-16.296165686081455 L2.2230208209640834e-10,-13.714276869845643 " />
			<path d="M28.284271247736513,5.031043989653533 L28.284271247736513,-1.1353405810965782 " />
			<path d="M22.478784843107743,4.714305002033271 L22.478784843107743,-0.7264095659522347 " />
			<path d="M28.284271247736513,-1.135340581096577 L22.478784843107743,-0.7264095659522336 " />
			<path d="M19.8102956388201,5.901069030508896 L19.8102956388201,-3.0555651157748436 " />
			<path d="M22.478784843107743,-0.726409565952234 L19.8102956388201,-3.0555651157748436 " />
			<path d="M23.966565016586948,4.05264072048873 L23.966565016586948,-4.90399342579501 " />
			<path d="M19.8102956388201,-3.055565115774843 L23.966565016586948,-4.90399342579501 " />
			<path d="M29.203769962734874,5.239404748951349 L29.203769962734874,-3.7172293973323907 " />
			<path d="M23.966565016586948,-4.90399342579501 L29.203769962734878,-3.71722939733239 " />
			<path d="M29.203769962734874,-3.7172293973323898 L28.28427124773651,-1.1353405810965769 " />
			<path d="M-21.213203435334893,1.8863099175011597 L-21.213203435334893,-4.280074653248951 " />
			<path d="M-27.01868983996366,1.5695709298808977 L-27.01868983996366,-3.8711436381046074 " />
			<path d="M-21.213203435334893,-4.280074653248951 L-27.018689839963663,-3.8711436381046074 " />
			<path d="M-29.6871790442513,2.7563349583565224 L-29.6871790442513,-6.200299187927218 " />
			<path d="M-27.01868983996366,-3.871143638104608 L-29.6871790442513,-6.200299187927217 " />
			<path d="M-25.530909666484455,0.9079066483363578 L-25.530909666484455,-8.048727497947382 " />
			<path d="M-29.6871790442513,-6.200299187927216 L-25.530909666484455,-8.048727497947382 " />
			<path d="M-20.293704720336525,2.0946706767989767 L-20.293704720336525,-6.861963469484763 " />
			<path d="M-25.530909666484455,-8.04872749794738 L-20.293704720336525,-6.8619634694847615 " />
			<path d="M-20.293704720336525,-6.861963469484763 L-21.21320343533489,-4.28007465324895 " />
			<path d="M7.071067812179315,14.465246206250228 L7.071067812179315,8.298861635500117 " />
			<path d="M1.2655814075505463,14.148507218629966 L1.2655814075505463,8.70779265064446 " />
			<path d="M7.071067812179315,8.298861635500117 L1.2655814075505436,8.70779265064446 " />
			<path d="M-1.4029077967370946,15.33527124710559 L-1.4029077967370946,6.37863710082185 " />
			<path d="M1.2655814075505463,8.70779265064446 L-1.4029077967370942,6.378637100821851 " />
			<path d="M2.7533615810297523,13.486842937085425 L2.7533615810297523,4.5302087908016855 " />
			<path d="M-1.4029077967370946,6.37863710082185 L2.753361581029753,4.530208790801684 " />
			<path d="M7.990566527177682,14.673606965548045 L7.990566527177682,5.716972819264305 " />
			<path d="M2.7533615810297523,4.5302087908016855 L7.990566527177681,5.716972819264305 " />
			<path d="M7.990566527177682,5.716972819264305 L7.071067812179317,8.298861635500117 " />
			<path d="M-47.4264068709444,-7.424808725424587 L-47.42490096442541,-7.370237308799111 L-47.42038415197023,-7.315698763954454 L-47.41285915433778,-7.261225942870702 L-47.40233050430527,-7.206851657938407 L-47.38880454393777,-7.152608662193627 L-47.37228942076805,-7.098529629588722 L-47.35279508288876,-7.044647135310788 L-47.3303332729601,-6.9909936361595815 L-47.304917521136474,-6.93760145099676 L-47.276563136916415,-6.884502741278201 L-47.24528719992075,-6.831729491681151 L-47.21110854960443,-6.779313490837849 L-47.174047773908406,-6.727286312187243 L-47.13412719685814,-6.675679294956329 L-47.09137086511653,-6.624523525282578 L-47.045804533499066,-6.573849817488805 L-46.99745564946006,-6.523688695521771 L-46.94635333655939,-6.474070374565704 L-46.89252837691951,-6.425024742841801 L-46.83601319268345,-6.376581343604678 L-46.77684182648496,-6.328769357346619 L-46.71504992094249,-6.281617584220342 L-46.65067469718938,-6.23515442669086 L-46.583754932453274,-6.1894078724269 L-46.442444528343145,-6.100174349496676 L-46.29145913775295,-6.014131986802346 L-46.13116249771337,-5.931488067932063 L-45.961940776870605,-5.85244168932514 " />
			<path d="M47.42640687146746,-1.1353405811082073 L47.424900964948485,-1.0807691644829884 L47.42038415249335,-1.0262306196385875 L47.41285915486097,-0.9717577985550916 L47.402330504828555,-0.9173835136230508 L47.38880454446118,-0.8631405178785228 L47.37228942129162,-0.8090614852738677 L47.35279508341251,-0.7551789909961809 L47.33033327348406,-0.7015254918452192 L47.30491752166067,-0.6481333066826374 L47.27656313744088,-0.5950345969643146 L47.2452872004455,-0.5422613473674964 L47.21110855012951,-0.48984534652442135 L47.17404777443382,-0.43781816787403594 L47.134127197383926,-0.3862111506433379 L47.09137086564271,-0.33505538096979615 L47.04580453402566,-0.2843816731762244 L46.9974556499871,-0.23422055120938567 L46.9463533370869,-0.18460223025350708 L46.892528377447505,-0.13555659852978386 L46.836013193211954,-0.08711319929283179 L46.776841827014,-0.03930121303493617 L46.71504992147209,0.007850560091186676 L46.65067469771955,0.05431371762052484 L46.583754932984036,0.10006027188435129 L46.44244452887516,0.18929379481433561 L46.29145913828627,0.27533615750846985 L46.131162498248074,0.35798007637860296 L45.96194077740674,0.43702645498542414 " />
			<path d="M-45.9619407768706,-5.852441689325135 L3.5355339062792615,16.16069681598573 " />
			<path d="M3.535533906279268,16.160696815985734 L3.7132730379772276,16.235955224679415 L3.8991013913943875,16.30724435936165 L4.092571289750728,16.37439247826279 L4.293216647115145,16.43723781568293 L4.50055409124729,16.495628971699617 L4.714084128083634,16.549425276903545 L4.933292345062416,16.59849713128348 L5.157650650388561,16.642726316444033 L5.386618545253073,16.68200628040414 L5.619644425942004,16.71624239429009 L5.856166912698117,16.74535218030481 L6.095616202133895,16.769265510424077 L6.337415439937805,16.787924775341068 L6.580982110566866,16.801285023252237 L6.8257294405776126,16.809314068150158 L7.071067812214714,16.8119925673624 L7.316406183851793,16.809314068149753 L7.5611535138624735,16.80128502325143 L7.804720184491423,16.78792477533986 L8.046519422295178,16.76926551042247 L8.285968711730757,16.745352180302813 L8.522491198486627,16.716242394287704 L8.755517079175274,16.682006280401367 L8.984484974039459,16.642726316440886 L9.208843279365238,16.598497131279963 L9.428051496343612,16.54942527689967 L9.641581533179506,16.49562897169539 L9.848918977311167,16.437237815678362 L10.04956433467506,16.374392478257896 L10.243034233030842,16.307244359356435 L10.428862586447412,16.235955224673894 L10.606601718144727,16.160696815979925 " />
			<path d="M45.96194077740673,0.4370264549854247 L10.606601718144743,16.160696815979914 " />
			<path d="M-10.606601717556291,-8.997175761547298 L-10.863706244029006,-8.879991602621212 L-11.114266880080322,-8.760036625726826 L-11.358132697352161,-8.637383087256808 L-11.595156800194925,-8.512104869116426 L-11.825196414151964,-8.384277434219829 L-12.04811297196157,-8.253977781034024 L-12.263772197024704,-8.121284397197872 L-12.472044184288208,-7.986277212244071 L-12.672803478494743,-7.849037549452591 L-12.865929149752354,-7.709648076864578 L-13.051304866378114,-7.568192757486209 L-13.228818964971968,-7.424756798712522 L-13.398364517678605,-7.279426601001667 L-13.55983939659679,-7.132289705830496 L-13.713146335297399,-6.983434742962862 L-13.858192987413076,-6.832951377062345 L-13.994891982264232,-6.6809302536816295 L-14.123160977487867,-6.527462944661005 L-14.242922708637552,-6.372641892968911 L-14.35410503572462,-6.216560357017755 L-14.456640986672609,-6.0593123544885295 L-14.504647065413568,-5.980280502466822 L-14.550468797658734,-5.900992605698075 L-14.594099282823771,-5.821460604647899 L-14.635531950318104,-5.741696476543107 L-14.674760560534407,-5.661712233568 L-14.711779205788275,-5.581519921055362 L-14.746582311207902,-5.501131615672488 L-14.779164635573622,-5.420559423602477 L-14.809521272107238,-5.3398154787210865 L-14.837647649210945,-5.2589119407694165 L-14.863539531155809,-5.177860993522696 L-14.887193018719648,-5.096674842955451 L-14.908604549774237,-5.015365715403332 L-14.92777089982176,-4.933945855721868 L-14.944689182480397,-4.852427525442442 L-14.959356849919011,-4.770823000925746 L-14.971771693240838,-4.6891445715130065 L-14.981931842816138,-4.607404537675257 L-14.989835768563756,-4.5256152091609305 L-14.99548228018155,-4.443788903142055 L-14.998870527325641,-4.3619379423593365 L-14.999999999738467,-4.280074653266458 " />
			<path d="M-14.999999999738467,-4.2800746532663965 L-14.996943758473968,-4.145416936626122 L-14.987776280095227,-4.0108140928485385 L-14.972501300339006,-3.8763209724357077 L-14.951125043741763,-3.7419923811775506 L-14.923656221103165,-3.607883057818547 L-14.890106025936442,-3.474047651751764 L-14.850488129907049,-3.340540700749292 L-14.804818677261474,-3.207416608738164 L-14.753116278248475,-3.0747296236308204 L-14.695402001535431,-2.9425338152191483 L-14.631699365622884,-2.810883053141101 L-14.562034329260767,-2.6798309849288886 L-14.48643528087026,-2.549431014147666 L-14.404933026975527,-2.4197362786336454 L-14.317560779650105,-2.2907996288404897 L-14.224354142983008,-2.1626736063028122 L-14.125351098570123,-2.0354104222255645 L-14.020591990036731,-1.9090619362080306 L-13.910119506597548,-1.7836796351110995 L-13.7939786656609,-1.6593146120764328 L-13.672216794484198,-1.5360175457060632 L-13.544883510888125,-1.4138386794109299 L-13.412030703037438,-1.2928278009367409 L-13.2737125082966,-1.1730342220755303 L-13.129985291168861,-1.054506758571156 L-12.980907620327796,-0.9372937102269434 L-12.826540244750639,-0.8214428412235693 L-12.666946068963142,-0.7070013606552195 L-12.502190127406053,-0.5940159032919308 L-12.332339557933656,-0.4825325105759788 L-12.157463574455184,-0.37259661186005033 L-11.97763343873023,-0.2642530058948305 " />
			<path d="M11.977644080978164,-0.26425928368807305 L12.157473606016085,-0.37260278478034836 L12.332348992795817,-0.48253857029817215 L12.502198980060935,-0.594021841700445 L12.666954354392002,-0.7070071698496765 L12.826547978410833,-0.8214485135242318 L12.980914818138805,-0.9372992381800067 L13.129991969498048,-1.0545121349538942 L13.273718683944665,-1.1730394399012511 L13.41203639322362,-1.2928328534595934 L13.544888733235133,-1.4138435601305344 L13.672221567002918,-1.5360222483719714 L13.793983006734845,-1.6593191306924089 L13.910123434967078,-1.7836839639392292 L14.020595524783063,-1.9090660697726443 L14.125354259099124,-2.035414355316981 L14.224356949008802,-2.1626773339809042 L14.31756325117847,-2.2908031464380505 L14.404935184287128,-2.419739581759572 L14.486437144503713,-2.5494340986899626 L14.562035919995541,-2.6798338470574627 L14.631700704462054,-2.8108856893103735 L14.695403109688298,-2.9425362221704674 L14.753117177113056,-3.074731798394682 L14.804819388406885,-3.2074185486362286 L14.850488675055773,-3.340542403396211 L14.890106426946504,-3.4740491150567974 L14.923656499950232,-3.6078842799869837 L14.951125222501167,-3.741993360711938 L14.972501401167705,-3.8763217081368584 L14.98777632521372,-4.0108145838163445 L14.996943770148162,-4.145417182260178 L15.000000000261533,-4.280074653266366 " />
			<path d="M15.000000000261533,-4.280074653266396 L14.99745872719888,-4.402865734258477 L14.98983576908676,-4.525615209161697 L14.977133708860919,-4.648281485984853 L14.959356850441823,-4.770823000927282 L14.93651121727633,-4.893198232462184 L14.90860455029673,-5.015365715405631 L14.875646305297831,-5.137284054966489 L14.837647649732993,-5.258911940772467 L14.794621458930191,-5.380208160867585 L14.74658231172938,-5.501131615676277 L14.693546485542662,-5.621641331929431 L14.635531950838892,-5.74169647654762 L14.572558365054642,-5.861256370476837 L14.504647065933543,-5.98028050247204 L14.431821064296273,-6.098728542823835 L14.35410503624366,-6.216560357023658 L14.271525314795522,-6.333736019362791 L14.184109880968084,-6.450215826460659 L14.09188835429297,-6.565960310717781 L13.994891982781056,-6.680930253688825 L13.893153632334487,-6.795086699371247 L13.786707775610521,-6.908390967404999 L13.675590480340935,-7.020804666178851 L13.55983939711096,-7.132289705838861 L13.439493746601906,-7.242808311194605 L13.31459430630175,-7.352323034518788 L13.185183396688249,-7.460796768235898 L13.051304866889215,-7.568192757495602 L12.913004079824843,-7.674474612626627 L12.770327896837097,-7.779606321466903 L12.62332466181138,-7.883552261565806 L12.472044184795857,-7.986277212254331 L12.316537725124022,-8.087746366579136 L12.15685797404614,-8.187925343096413 L11.993059036875556,-8.286780197521566 L11.825196414655828,-8.384277434230771 L11.653326985354974,-8.480384017610522 L11.47750898459312,-8.57506738325128 L11.297801985910166,-8.668295448981507 L11.1142668805801,-8.760036625738254 L10.926965856978821,-8.850259828270687 L10.735962379512454,-8.938934485672906 L10.541321167113283,-9.02603055174249 L10.34310817131063,-9.111518515161231 L10.141390553884088,-9.195369409494646 L9.936236664106644,-9.277554823006858 L9.72771601558547,-9.358046908287537 L9.515899262708178,-9.436818391687606 L9.300858176702544,-9.513842582560548 L9.082665621317798,-9.58909338230617 L8.861395528135736,-9.662545293213764 L8.637122871520008,-9.734173427101647 L8.409923643212071,-9.803953513750198 L8.179874826582429,-9.871861909125482 L7.947054370545855,-9.937875603390712 L7.711541163149452,-10.001972228702826 L7.473415004842542,-10.06413006679151 L7.232756581437354,-10.124328056318154 L6.989647436769703,-10.1825458000122 L6.744169945069009,-10.23876357158247 L6.49640728304689,-10.292962322401163 L6.246443401713869,-10.34512368795821 L5.994362997933715,-10.395229994083854 L5.740251485725063,-10.44326426293729 L5.484194967320027,-10.489210218759382 L5.226280203989644,-10.533052293387483 L4.966594586645977,-10.574775631530489 L4.7052261062309135,-10.614366095802358 L4.44226332390161,-10.651810271512375 L4.1777953410227635,-10.687095471210524 L3.9119117689758154,-10.720209738986474 L3.6447026987953612,-10.751141854520668 L3.376258670643018,-10.77988133688617 L3.10667064312913,-10.806418448100004 L2.836029962492675,-10.830744196422714 L2.5644283316498337,-10.85285033940511 L2.291957779121705,-10.872729386681101 L2.0187106278516884,-10.890374602505704 L1.744779463923114,-10.905780008037366 L1.47025710518769,-10.918940383363811 L1.195236569815476,-10.929851269270724 L0.9198110447769152,-10.938508968752718 L0.6440738542676666,-10.944910548265991 L0.36811842808701184,-10.949053838722335 L0.09203826998042398,-10.950937436224097 L-0.18407307404290651,-10.95056070253986 L-0.46012204740686513,-10.947923765320713 L-0.7360151146687874,-10.943027518056994 L-1.0116587932126728,-10.935873619775538 L-1.2869596849244977,-10.926464494477548 L-1.5618245078388984,-10.914803330317241 L-1.8361601277464956,-10.900894078521604 L-2.109873589751156,-10.884741452051554 L-2.3828721497664964,-10.86635092400503 L-2.6550633059409554,-10.845728725762505 L-2.926354830000789,-10.822881844875562 L-3.196654798500368,-10.797818022699264 L-3.465871623969188,-10.770545751769095 L-3.733914085945039,-10.741074272923388 L-4.000691361882819,-10.709413572172181 L-4.266113057928518,-10.675574377313602 L-4.530089239547948,-10.639568154298901 L-4.79253046199984,-10.601407103347363 L-5.053347800642987,-10.561104154812426 L-5.312452881067111,-10.518672964800423 L-5.569757909037367,-10.474127910543377 L-5.825175700242237,-10.427484085527487 L-6.078619709834717,-10.37875729437889 L-6.330004061756883,-10.327964047508488 L-6.579243577837808,-10.275121555517622 L-6.826253806655046,-10.220247723366484 L-7.070951052149839,-10.163361144307274 L-7.313252401986388,-10.104481093584127 L-7.553075755645574,-10.043627521901946 L-7.790339852243605,-9.980821048666403 L-8.02496429806616,-9.916082954997307 L-8.256869593808702,-9.849435176517801 L-8.485977161513745,-9.78090029592177 L-8.712209371195922,-9.710501535322 L-8.935489567145847,-9.638262748381688 L-9.155742093903871,-9.564208412231945 L-9.372892321894895,-9.488363619178052 L-9.586866672715594,-9.410754068197281 L-9.797592644065455,-9.331406056231142 L-10.004998834313202,-9.25034646927502 L-10.209014966690257,-9.167602773268216 L-10.40957191310308,-9.083203004787507 L-10.606601717556197,-8.99717576154734 " />
			<path d="M-14.999999999738467,2.885232663760596 L-14.999999999738467,-4.2800746532663965 " />
			<path d="M15.000000000261533,2.885232663760596 L15.000000000261533,-4.2800746532663965 " />

        </g>

        <!-- solid lines -->
        <g  stroke="rgb(0,0,0)" fill="none">
    			<path d="M-7.07106781168502,-14.820791754573952 L-43.84062043331749,1.5318254208603201 " />
			<path d="M-7.07106781168502,-14.82079175457395 L43.840620433840556,7.821293565174372 " />
			<path d="M-43.84062043331749,1.531825420860316 L7.071067812208084,24.173910740608637 " />
			<path d="M43.84062043384055,7.8212935651743685 L7.071067812208079,24.17391074060864 " />
			<path d="M2.2230339791207143e-10,-4.757642723561904 L-5.8054864044064685,-4.348711708417561 " />
			<path d="M-5.805486404406466,-4.348711708417561 L-8.473975608694106,-6.677867258240171 " />
			<path d="M-8.473975608694108,-6.67786725824017 L-4.31770623092726,-8.526295568260336 " />
			<path d="M-4.317706230927259,-8.526295568260336 L0.9194987152206703,-7.339531539797717 " />
			<path d="M0.9194987152206676,-7.339531539797717 L2.2230208209640834e-10,-4.757642723561903 " />
			<path d="M28.284271247736513,7.821293565187162 L22.478784843107743,8.230224580331505 " />
			<path d="M22.478784843107743,8.230224580331505 L19.8102956388201,5.9010690305088955 " />
			<path d="M19.8102956388201,5.901069030508896 L23.966565016586948,4.05264072048873 " />
			<path d="M23.966565016586948,4.05264072048873 L29.203769962734878,5.239404748951349 " />
			<path d="M29.203769962734874,5.239404748951349 L28.28427124773651,7.821293565187163 " />
			<path d="M-21.213203435334893,4.676559493034789 L-27.018689839963663,5.085490508179133 " />
			<path d="M-27.01868983996366,5.085490508179133 L-29.6871790442513,2.756334958356523 " />
			<path d="M-29.6871790442513,2.7563349583565224 L-25.530909666484455,0.907906648336356 " />
			<path d="M-25.530909666484455,0.9079066483363578 L-20.293704720336525,2.094670676798977 " />
			<path d="M-20.293704720336525,2.0946706767989767 L-21.21320343533489,4.67655949303479 " />
			<path d="M7.071067812179315,17.255495781783857 L1.2655814075505436,17.6644267969282 " />
			<path d="M1.2655814075505463,17.6644267969282 L-1.4029077967370942,15.335271247105592 " />
			<path d="M-1.4029077967370946,15.33527124710559 L2.753361581029753,13.486842937085424 " />
			<path d="M2.7533615810297523,13.486842937085425 L7.990566527177681,14.673606965548045 " />
			<path d="M7.990566527177682,14.673606965548045 L7.071067812179317,17.255495781783857 " />
			<path d="M-7.071067811691652,-18.686492683705204 L-7.071067811685021,-14.820791754573953 " />
			<path d="M-10.606601717621679,-19.346865634742464 L-10.402800701449317,-19.425510112304995 L-10.188516820983299,-19.484869454500284 L-9.964424292588973,-19.524756894876955 L-9.731228194266913,-19.54504693279064 L-9.489662247216696,-19.54567572827548 L-9.240486507278522,-19.52664130290824 L-8.984484973516398,-19.488003546033195 L-8.722463121466966,-19.429884026328054 L-8.455245368815534,-19.35246560930397 L-8.183672481472989,-19.25599188194295 L-7.9085989282152,-19.140766386283126 L-7.630890192208133,-19.007151664363157 L-7.351420047877591,-18.855568117530893 L-7.071067811691674,-18.6864926837052 " />
			<path d="M-10.60660171762168,-19.346865634742464 L-45.96194077688367,-3.623195273747975 " />
			<path d="M-47.4264068709444,-0.7391595352304609 L-43.8406204333175,1.5318254208603244 " />
			<path d="M-45.96194077688367,-3.6231952737479776 L-46.15461769536639,-3.5255131054402793 L-46.33556428329031,-3.409100590627825 L-46.504211215746054,-3.2743240061507035 L-46.66002786709074,-3.1216074090062067 L-46.80252398049264,-2.951431302108659 L-46.9312512104605,-2.7643311224494456 L-47.04580453350437,-2.560895556414183 L-47.145823522489295,-2.341764687557521 L-47.23099348067246,-2.1076279826635 L-47.30104643185557,-1.859222122427954 L-47.35576196353713,-1.5973286835885 L-47.394967920411645,-1.322771679794969 L-47.418540946034,-1.0364149689575994 L-47.4264068709444,-0.7391595352304826 " />
			<path d="M-7.071067811691652,-18.68649268370519 L-6.790715575505676,-18.85556811753136 L-6.51124543117505,-19.007151664364077 L-6.233536695167835,-19.140766386284508 L-5.9584631419098475,-19.255991881944784 L-5.686890254567036,-19.352465609306243 L-5.419672501915294,-19.429884026330768 L-5.157650649865497,-19.48800354603634 L-4.901649116102945,-19.526641302911813 L-4.652473376164295,-19.54567572827946 L-4.41090742911355,-19.545046932795014 L-4.1777113307909115,-19.524756894881715 L-3.9536188023959635,-19.484869454505414 L-3.7393349219292746,-19.425510112310473 L-3.535533905756221,-19.34686563474829 " />
			<path d="M-3.5355339057562056,-19.34686563474828 L45.96194077739365,2.6662728705625853 " />
			<path d="M47.42640687146748,5.55030860907769 L43.840620433840556,7.82129356517438 " />
			<path d="M45.96194077739366,2.666272870562584 L46.15461769587712,2.7639550388699647 L46.33556428380184,2.88036755368212 L46.504211216258405,3.0151441381589663 L46.66002786760395,3.1678607353032047 L46.80252398100676,3.338036842200521 L46.93125121097554,3.5251370218595217 L47.045804534020355,3.7285725878945977 L47.145823523006236,3.9477034567510922 L47.230993481190396,4.181840161644973 L47.30104643237452,4.430246021880405 L47.35576196405709,4.692139460719769 L47.394967920932636,4.966696464513236 L47.41854094655602,5.253053175350566 L47.42640687146746,5.550308609077671 " />
			<path d="M2.2230339791207143e-10,-4.757642723561904 L2.2230339791207143e-10,-7.547892299095533 " />
			<path d="M-5.805486404406466,-4.348711708417561 L-5.805486404406466,-7.864631286715795 " />
			<path d="M28.284271247736513,7.821293565187162 L28.284271247736513,5.031043989653533 " />
			<path d="M22.478784843107743,8.230224580331505 L22.478784843107743,4.714305002033271 " />
			<path d="M-21.213203435334893,4.676559493034789 L-21.213203435334893,1.8863099175011597 " />
			<path d="M-27.01868983996366,5.085490508179133 L-27.01868983996366,1.5695709298808977 " />
			<path d="M7.071067812179315,17.255495781783857 L7.071067812179315,14.465246206250228 " />
			<path d="M1.2655814075505463,17.6644267969282 L1.2655814075505463,14.148507218629966 " />
			<path d="M-10.606601717621679,-24.72084612251271 L-10.428862585924344,-24.796104531206687 L-10.243034232507776,-24.867393665889228 L-10.049564334151995,-24.93454178479069 L-9.8489189767881,-24.997387122211155 L-9.641581532656442,-25.055778278228182 L-9.428051495820545,-25.10957458343246 L-9.208843278842174,-25.158646437812756 L-8.984484973516397,-25.20287562297368 L-8.755517078652211,-25.24215558693416 L-8.522491197963566,-25.276391700820493 L-8.285968711207696,-25.305501486835606 L-8.046519421772114,-25.329414816955264 L-7.804720183968356,-25.348074081872653 L-7.561153513339406,-25.361434329784224 L-7.316406183328727,-25.369463374682546 L-7.071067811691649,-25.372141873895192 L-6.825729440054549,-25.36946337468295 L-6.580982110043803,-25.361434329785034 L-6.337415439414743,-25.34807408187386 L-6.095616201610829,-25.32941481695687 L-5.856166912175048,-25.305501486837603 L-5.619644425418936,-25.27639170082288 L-5.3866185447300055,-25.24215558693693 L-5.157650649865494,-25.202875622976826 L-4.93329234453935,-25.158646437816273 L-4.714084127560569,-25.109574583436338 L-4.500554090724226,-25.05577827823241 L-4.2932166465920805,-24.997387122215724 L-4.092571289227664,-24.934541784795588 L-3.8991013908713255,-24.867393665894443 L-3.7132730374541647,-24.79610453121221 L-3.535533905756235,-24.72084612251854 " />
			<path d="M-10.60660171762168,-24.720846122512707 L-45.96194077688367,-8.997175761518218 " />
			<path d="M-45.96194077688367,-8.997175761518221 L-46.131162497725015,-8.918129382911397 L-46.29145913776322,-8.835485464041263 L-46.4424445283521,-8.74944310134713 L-46.58375493246098,-8.660209578417145 L-46.65067469719649,-8.614463024153318 L-46.71504992094903,-8.56799986662398 L-46.776841826490944,-8.520848093497857 L-46.836013192688895,-8.473036107239961 L-46.892528376924446,-8.42459270800301 L-46.94635333656384,-8.375547076279286 L-46.997455649464044,-8.325928755323408 L-47.045804533502604,-8.275767633356569 L-47.09137086511965,-8.225093925562998 L-47.13412719686087,-8.173938155889456 L-47.17404777391076,-8.122331138658758 L-47.21110854960645,-8.070303960008372 L-47.245287199922444,-8.017887959165298 L-47.27656313691782,-7.965114709568479 L-47.30491752113761,-7.912015999850157 L-47.330333272961,-7.858623814687575 L-47.35279508288945,-7.804970315536614 L-47.37228942076856,-7.751087821258927 L-47.38880454393812,-7.697008788654272 L-47.402330504305496,-7.642765792909744 L-47.41285915433791,-7.588391507977703 L-47.42038415197029,-7.533918686894207 L-47.424900964425426,-7.4793801420498065 L-47.4264068709444,-7.424808725424607 " />
			<path d="M-3.5355339057562056,-24.720846122518523 L45.96194077739365,-2.707707617207658 " />
			<path d="M45.96194077739366,-2.7077076172076566 L46.131162498236435,-2.6286612386007304 L46.29145913827601,-2.5460173197304474 L46.442444528866204,-2.4599749570361182 L46.583754932976326,-2.3707414341058954 L46.65067469771243,-2.3249948798419346 L46.71504992146555,-2.2785317223124526 L46.77684182700802,-2.2313799491861763 L46.836013193206504,-2.1835679629281164 L46.89252837744257,-2.135124563690992 L46.94635333708245,-2.086078931967089 L46.997455649983124,-2.036460611011023 L47.045804534022125,-1.9862994890439891 L47.09137086563959,-1.9356257812502156 L47.1341271973812,-1.884470011576465 L47.17404777443146,-1.8328629943455519 L47.21110855012749,-1.7808358156949458 L47.245287200443805,-1.728419814851644 L47.276563137439474,-1.6756465652545949 L47.304917521659526,-1.6225478555360362 L47.330333273483156,-1.5691556703732124 L47.35279508341182,-1.515502171222005 L47.37228942129111,-1.4616196769440712 L47.38880454446083,-1.4075406443391665 L47.40233050482833,-1.3532976485943864 L47.41285915486084,-1.2989233636620918 L47.42038415249329,-1.2444505425783405 L47.42490096494847,-1.1899119977336836 L47.42640687146746,-1.1353405811082278 " />
			<path d="M-11.97763343873022,-0.26425300589482514 L-11.711704241771638,-0.11200316793384069 L-11.435993681441927,0.03676558641092864 L-11.150732025268347,0.18192900867705486 L-10.856157517647894,0.3233658614978774 L-10.552516180870692,0.46095801985735196 L-10.240061609647475,0.5945905697455194 L-9.919054759312754,0.7241519041322064 L-9.589763727880518,0.8495338161788313 L-9.252463532134556,0.9706315896104121 L-8.907435877940344,1.0873440861723536 L-8.554968924970376,1.1995738300989425 L-8.195357046039415,1.3072270895230016 L-7.8289005812506325,1.4102139547587393 L-7.455905587158027,1.5084484133923768 L-7.07668358115458,1.6018484221178655 L-6.691551281299629,1.6903359752576943 L-6.300830341802758,1.7738371699115527 L-5.904847084385116,1.8522822676784383 L-5.503932225742558,1.9256057529006751 L-5.098420601338157,1.993746387381175 L-4.6886508857548375,2.0566472615282665 L-4.274965309841651,2.1142558418853605 L-3.8577093748899403,2.166524015005759 L-3.437231564078082,2.2134081276359794 L-3.0138830514258492,2.254869023173999 L-2.5880174085014227,2.290872074372018 L-2.159990309126012,2.3213872122563908 L-1.7301592323227548,2.3463889512405753 L-1.2988831637579192,2.36585641041016 L-0.8665222959237892,2.3797733309621467 L-0.4334377273136644,2.3881280897839527 L8.839159838178283e-06,2.390913709160789 L0.43345539825128315,2.388127862603292 L0.8665399447214001,2.3797728767905593 L1.2989007756760638,2.3658557296269613 L1.7301767926527742,2.34638804441434 L2.1600078032023333,2.32138608014448 L2.5880348217138067,2.29087071791995 L3.013900369231593,2.2548674435146507 L3.437248772014163,2.2134063260886494 L3.8577264585850983,2.1665219930750625 L4.274982255028387,2.1142536012599678 L4.688667678281334,2.056644804079501 L5.098437227180094,1.993743715161444 L5.503948671014827,1.9256028681417607 L5.904863335353417,1.8522791727896282 L6.300846384895067,1.7738338674776308 L6.6915671031175386,1.6903324680367842 L7.076699168484483,1.601844713039121 L7.455920926982161,1.5084445055535403 L7.828915660757941,1.4102098514235557 L8.195371852636255,1.3072227941184877 L8.554983446291038,1.1995693462125239 L8.90745010185736,1.0873394175488809 L9.252477446768859,0.9706267401490178 L9.589777321611349,0.8495287899296793 L9.91906802078735,0.7241467052931139 L10.240074527790574,0.5945852026584433 L10.55252874489378,0.46095248900476893 L10.856169717058204,0.3233601714990364 L11.150743849877632,0.1819231642841208 L11.436005121374965,0.036759592505010374 L11.71171528747448,-0.1120093063467591 L11.977644080978123,-0.2642592836880491 " />
			<path d="M-12.020815279932002,-0.6694884297010111 L-12.312200409935079,-0.5366797162511361 L-12.59616913079389,-0.40073074243716267 L-12.872550390369243,-0.2617233988374652 L-13.141177706924942,-0.11974141827800633 L-13.401889269410116,0.025129674605173236 L-13.654528034928159,0.17280261488280235 L-13.898941823333493,0.3231884498975024 L-14.134983408899199,0.47619659284555027 L-14.362510609000305,0.631734877342975 L-14.581386369759253,0.7897096129431493 L-14.791478848602054,0.9500256415724011 L-14.99266149367532,1.1125863948496875 L-15.184813120076358,1.2772939522557727 L-15.36781798285044,1.4440491001168874 L-15.541565846711222,1.6127513913673361 L-15.624935478481833,1.6978010036753184 L-15.705952052442369,1.7832992060550548 L-15.784603367794798,1.8692331227917593 L-15.860877579940336,1.955589812553669 L-15.934763202263191,2.0423562703409432 L-16.006249107860405,2.1295194294441853 L-16.07532453121755,2.2170661634122517 L-16.141979069829947,2.3049832880290353 L-16.206202685769256,2.3932575632989472 L-16.267985707195137,2.481875695440824 L-16.327318829811833,2.570824338889935 L-16.384193118269323,2.6600900983077604 L-16.438600007508963,2.7496595305992715 L-16.49053130405335,2.839519146937422 L-16.539979187240252,2.929655414794533 L-16.58693621040034,3.020054759980206 L-16.631395301978646,3.1107035686855644 L-16.673349766599518,3.2015881895334637 L-16.7127932860749,3.2926949356342963 L-16.74971992035584,3.3840100866472103 L-16.784124108427054,3.4755198908463605 L-16.81600066914436,3.567210567191826 L-16.845344802014957,3.6590683074050085 L-16.872152087920384,3.751079278048124 L-16.896418489781986,3.8432296226074305 L-16.918140353168894,3.9355054635799855 L-16.93731440684839,4.027892904563563 L-16.953937763278514,4.120378032349385 L-16.968007919042932,4.212946919017387 L-16.97952275522794,4.305585624033727 L-16.988480537741566,4.398280196350186 L-16.99487991757471,4.491016676505137 L-16.99871993100431,4.583781098725776 L-16.999999999738467,4.676559493031323 L-16.99871993100354,4.769337887336866 L-16.99487991757317,4.862102309557499 L-16.988480537739253,4.95483878971244 L-16.979522755224856,5.047533362028885 L-16.968007919039078,5.140172067045205 L-16.95393776327389,5.232740953713184 L-16.937314406842997,5.325226081498978 L-16.918140353162734,5.417613522482524 L-16.896418489775055,5.509889363455043 L-16.87215208791269,5.60203970801431 L-16.845344802006498,5.694050678657382 L-16.816000669135132,5.785908418870515 L-16.784124108417068,5.877599095215929 L-16.749719920345093,5.969108899415022 L-16.71279328606339,6.0604240504278755 L-16.67334976658725,6.151530796528643 L-16.631395301965625,6.242415417376473 L-16.586936210386565,6.333064226081759 L-16.539979187225725,6.423463571267355 L-16.490531304038075,6.513599839124384 L-16.43860000749294,6.603459455462449 L-16.384193118252558,6.693028887753872 L-16.327318829794326,6.782294647171604 L-16.26798570717689,6.871243290620617 L-16.206202685750267,6.959861422762392 L-16.141979069810226,7.048135698032199 L-16.0753245311971,7.136052822648873 L-16.006249107839228,7.223599556616826 L-15.934763202241289,7.3107627157199495 L-15.860877579917712,7.3975291735071025 L-15.784603367771455,7.4838858632688865 L-15.705952052418311,7.569819780005462 L-15.624935478457067,7.655317982385066 L-15.54156584668575,7.740367594692911 L-15.367817982823562,7.909069885943073 L-15.184813120048092,8.075825033803888 L-14.992661493645684,8.240532591209657 L-14.791478848571069,8.403093344486612 L-14.581386369726934,8.563409373115519 L-14.362510608966664,8.721384108715338 L-14.134983408864267,8.87692239321239 L-13.898941823297287,9.029930536160048 L-13.654528034890694,9.180316371174351 L-13.401889269371422,9.327989311451564 L-13.141177706885042,9.472860404334316 L-12.872550390328161,9.614842384893333 L-12.596169130751651,9.753849728492575 L-12.31220040989172,9.889798702306077 L-12.020815279887538,10.022607415755473 L-11.722189260245832,10.152195869837819 L-11.416502232114482,10.278486005313999 L-11.103938329928864,10.401401749728699 L-10.784685830496137,10.520869063233594 L-10.458937039584338,10.636815983186201 L-10.126888176084583,10.749172667497476 L-9.788739253816122,10.85787143670208 L-9.444693961045557,10.962846814725944 L-9.09495953779255,11.064035568326634 L-8.739746650996251,11.161376745182679 L-8.379269267617422,11.254811710608948 L-8.013744525752683,11.344284182876034 L-7.643392603838681,11.429740267112235 L-7.2684365880248265,11.511128487767815 L-6.889102337794538,11.588399819621952 L-6.505618349915935,11.6615077173137 L-6.118215620803921,11.730408143379169 L-5.727127507376597,11.79505959477805 L-5.33258958648976,11.855423127893491 L-4.934839513034234,11.911462381990285 L-4.534116876781432,11.963143601117206 L-4.130663058063451,12.010435654440336 L-3.724721082374574,12.05331005499512 L-3.31653547398181,12.091740976845838 L-2.90635210863261,12.12570527064219 L-2.4944180654485177,12.155182477563605 L-2.0809814780939413,12.180154841642853 L-1.6662913853097123,12.200607320461591 L-1.2505975809014636,12.216527594211346 L-0.8341504632731779,12.22790607311451 L-0.41720088459653837,12.23473590320086 L2.9297856072211575e-10,12.237012970436133 L0.41720088518247656,12.234735903200173 L0.8341504638590591,12.22790607311314 L1.2505975814872503,12.216527594209289 L1.666291385895367,12.20060732045885 L2.0809814786794254,12.180154841639428 L2.4944180660337945,12.1551824775595 L2.9063521092176265,12.125705270637411 L3.3165354745665585,12.09174097684038 L3.7247210829590176,12.05331005498899 L4.130663058647523,12.010435654433541 L4.534116877365097,11.96314360110975 L4.934839513617483,11.911462381982165 L5.332589587072556,11.855423127884716 L5.727127507958876,11.795059594768626 L6.11821562138565,11.730408143369104 L6.5056183504971035,11.661507717302996 L6.889102338375114,11.588399819610615 L7.268436588604745,11.511128487755856 L7.643392604417935,11.429740267099657 L8.01374452633124,11.344284182862843 L8.379269268195221,11.25481171059516 L8.739746651573284,11.16137674516829 L9.094959538368776,11.064035568311663 L9.444693961620926,10.962846814710403 L9.788739254390608,10.857871436685974 L10.126888176658165,10.749172667480813 L10.458937040156997,10.636815983168988 L10.784685831067817,10.52086906321585 L11.10393833049954,10.401401749710434 L11.416502232684149,10.278486005295218 L11.722189260814456,10.152195869818527 L12.020815280455077,10.022607415735695 L12.312200410458141,9.889798702285823 L12.596169131316952,9.75384972847185 L12.872550390892316,9.614842384872148 L13.141177707448005,9.472860404312694 L13.401889269933173,9.32798931142952 L13.654528035451223,9.180316371151886 L13.898941823856566,9.02993053613718 L14.134983409422265,8.876922393189137 L14.362510609523364,8.72138410869172 L14.581386370282317,8.563409373091538 L14.791478849125127,8.403093344462281 L14.992661494198384,8.240532591185001 L15.18481312059943,8.075825033778909 L15.36781798337352,7.909069885917789 L15.541565847234295,7.7403675946673465 L15.62493547900491,7.655317982359358 L15.705952052965443,7.569819779979621 L15.784603368317873,7.483885863242916 L15.860877580463418,7.397529173481001 L15.934763202786268,7.310762715693732 L16.006249108383482,7.223599556590491 L16.075324531740634,7.136052822622411 L16.141979070353024,7.048135698005634 L16.20620268629233,6.959861422735727 L16.26798570771822,6.8712432905938385 L16.327318830334917,6.782294647144727 L16.384193118792403,6.693028887726909 L16.438600008032044,6.603459455435391 L16.49053130457643,6.51359983909724 L16.539979187763326,6.423463571240135 L16.586936210923415,6.333064226054455 L16.631395302501723,6.242415417349097 L16.67334976712259,6.151530796501205 L16.71279328659797,6.060424050400378 L16.74971992087891,5.969108899387464 L16.784124108950127,5.877599095188308 L16.816000669667428,5.7859084188428485 L16.845344802538026,5.694050678629666 L16.872152088443457,5.602039707986544 L16.896418490305056,5.509889363427244 L16.918140353691964,5.417613522454689 L16.937314407371456,5.325226081471111 L16.95393776380158,5.232740953685297 L16.968007919566,5.1401720670172875 L16.97952275575101,5.047533362000948 L16.988480538264632,4.954838789684489 L16.994879918097777,4.862102309529531 L16.998719931527376,4.7693378873088985 L17.000000000261533,4.676559493003352 L16.998719931526605,4.583781098697808 L16.994879918096235,4.491016676477183 L16.988480538262316,4.398280196322235 L16.97952275574792,4.30558562400579 L16.96800791956214,4.21294691898947 L16.95393776379695,4.120378032321485 L16.93731440736606,4.027892904535697 L16.918140353685796,3.9355054635521505 L16.896418490298117,3.843229622579631 L16.872152088435755,3.7510792780203714 L16.84534480252956,3.6590683073772934 L16.816000669658195,3.5672105671641594 L16.78412410894013,3.4755198908187523 L16.749719920868156,3.3840100866196527 L16.712793286586454,3.292694935606799 L16.673349767110313,3.2015881895060376 L16.63139530248869,3.1107035686582147 L16.58693621090963,3.020054759952929 L16.539979187748788,2.9296554147673266 L16.49053130456114,2.8395191469103036 L16.438600008016007,2.749659530572239 L16.38419311877562,2.66009009828081 L16.32731883031739,2.570824338863084 L16.267985707699957,2.4818756954140713 L16.206202686273336,2.393257563272296 L16.1419790703333,2.3049832880024956 L16.075324531720167,2.2170661633858155 L16.006249108362294,2.1295194294178628 L15.934763202764355,2.042356270314738 L15.860877580440775,1.9555898125275792 L15.78460336829452,1.869233122765802 L15.705952052941377,1.7832992060292256 L15.624935478980133,1.697801003649623 L15.54156584720882,1.6127513913417837 L15.36781798334663,1.4440491000916147 L15.184813120571155,1.2772939522307953 L14.99266149416875,1.112586394825032 L14.791478849094142,0.9500256415480819 L14.58138637025,0.789709612919169 L14.362510609489732,0.6317348773193503 L14.134983409387342,0.476196592822304 L13.898941823820369,0.32318844987465045 L13.654528035413778,0.17280261486034654 L13.401889269894498,0.025129674583128647 L13.14117770740813,-0.11974141829961749 L12.872550390851238,-0.2617233988586394 L12.596169131274719,-0.4007307424578874 L12.312200410414798,-0.5366797162713839 L12.020815280410606,-0.6694884297207855 L11.72218926076889,-0.799076883803135 L11.416502232637548,-0.925367019279312 L11.103938330451921,-1.048282763694015 L10.784685831019182,-1.1677500771989138 L10.458937040107394,-1.2836969971515169 L10.126888176607626,-1.3960536814627957 L9.788739254339166,-1.5047524506673993 L9.44469396156861,-1.60972782869126 L9.094959538315617,-1.710916582291948 L8.739746651519317,-1.808257759147991 L8.379269268140476,-1.9016927245742634 L8.013744526275751,-1.9911651968413473 L7.643392604361761,-2.0766212810775446 L7.268436588547894,-2.158009501733127 L6.889102338317592,-2.235280833587267 L6.505618350439002,-2.3083887312790123 L6.118215621327003,-2.377289157344478 L5.727127507899663,-2.4419406087433604 L5.332589587012814,-2.5023041418588052 L4.9348395135573,-2.558343395955598 L4.534116877304514,-2.6100246150825175 L4.130663058586517,-2.6573166684056497 L3.7247210828976267,-2.700191068960435 L3.3165354745048767,-2.7386219908111498 L2.906352109155692,-2.7725862846075024 L2.4944180659715847,-2.8020634915289175 L2.080981478616993,-2.827035855608167 L1.6662913858327795,-2.847488334426904 L1.2505975814245458,-2.86340860817666 L0.8341504637962451,-2.8747870870798238 L0.4172008851196056,-2.8816169171661725 L2.3010376696195576e-10,-2.8838939844014453 L-0.4172008846593791,-2.881616917165486 L-0.8341504633359618,-2.8747870870784524 L-1.2505975809641683,-2.8634086081746037 L-1.6662913853722694,-2.847488334424165 L-2.080981478156313,-2.827035855604745 L-2.4944180655106973,-2.802063491524816 L-2.9063521086945596,-2.772586284602723 L-3.316535474043462,-2.7386219908056963 L-3.724721082435892,-2.700191068954309 L-4.130663058124426,-2.657316668398858 L-4.534116876842029,-2.6100246150750612 L-4.934839513094387,-2.5583433959474826 L-5.332589586549462,-2.502304141850032 L-5.727127507435808,-2.4419406087339386 L-6.118215620862584,-2.3772891573344177 L-6.505618349974037,-2.308388731268309 L-6.889102337852046,-2.2352808335759278 L-7.268436588081679,-2.1580095017211693 L-7.643392603894869,-2.07662128106497 L-8.013744525808173,-1.991165196828156 L-8.379269267672154,-1.9016927245604718 L-8.739746651050218,-1.808257759133605 L-9.094959537845709,-1.7109165822769778 L-9.44469396109786,-1.609727828675715 L-9.78873925386754,-1.5047524506512877 L-10.126888176135097,-1.3960536814461273 L-10.458937039633929,-1.2836969971343013 L-10.78468583054475,-1.1677500771811626 L-11.103938329976474,-1.048282763675747 L-11.416502232161081,-0.9253670192605306 L-11.722189260291389,-0.7990768837838402 L-12.020815279931796,-0.6694884297011026 " />
			<path d="M-14.999999999738467,2.8852326637605947 L-14.998870527325634,2.967095952853726 L-14.99548228018153,3.048946913636637 L-14.98983576856371,3.1307732196557048 L-14.981931842816053,3.212562548170224 L-14.971771693240704,3.2943025820081653 L-14.95935684991882,3.3759810114210955 L-14.944689182480136,3.457585535937983 L-14.927770899821422,3.5391038662175993 L-14.908604549773807,3.620523725899253 L-14.887193018719117,3.7018328534515614 L-14.863539531155167,3.7830190040189944 L-14.837647649210183,3.8640699512659022 L-14.809521272106343,3.944973489217758 L-14.779164635572585,4.025717434099333 L-14.746582311206712,4.106289626169527 L-14.711779205786923,4.186677931552584 L-14.674760560532881,4.266870244065403 L-14.635531950316395,4.346854487040691 L-14.594099282821869,4.42661861514566 L-14.550468797656627,4.506150616196013 L-14.504647065411248,4.585438512964934 L-14.456640986670065,4.664470364986815 L-14.354105035721599,4.821718367516381 L-14.242922708634017,4.977799903467869 L-14.12316097748378,5.132620955160286 L-13.994891982259551,5.286088264181224 L-13.858192987407769,5.438109387562243 L-13.713146335291427,5.588592753463052 L-13.559839396590117,5.737447716330969 L-13.398364517671197,5.884584611502408 L-13.228818964963793,6.029914809213522 L-13.051304866369138,6.173350767987452 L-12.865929149742549,6.314806087366052 L-12.672803478484074,6.454195559954282 L-12.472044184276646,6.5914352227459645 L-12.263772197012223,6.7264424076999525 L-12.048112971948141,6.859135791536276 L-11.825196414137562,6.989435444722236 L-11.595156800179522,7.117262879618972 L-11.358132697335735,7.242541097759476 L-11.114266880062855,7.365194636229596 L-10.863706244010473,7.485149613124069 L-10.60660171753668,7.602333772050217 L-10.343108170794471,7.716676525652506 L-10.073384322443744,7.828108998131711 L-9.79759264404512,7.936564066733142 L-9.515899262193152,8.04197640217887 L-9.22847385844787,8.144282508019643 L-8.93548956712497,8.243420758882774 L-8.637122871006149,8.339331437592962 L-8.3335534950325,8.43195677114368 L-8.024964298044925,8.521240965497487 L-7.711541162636793,8.60713023919425 L-7.393472883185229,8.689572855747102 L-7.070951052128434,8.768519154806562 L-6.744169944557569,8.843921582074067 L-6.4133264011927,8.91573471794691 L-6.078619709813314,8.983915304877307 L-5.740251485214815,9.048422273429127 L-5.398425547763292,9.109216767016587 L-5.0533478006217685,9.16626216531 L-4.705226105721838,9.219524106294502 L-4.354270158555401,9.268970506968433 L-4.000691361861943,9.314571582668947 L-3.644702698287427,9.35629986501318 L-3.286518602091517,9.394130218444165 L-2.926354829980392,9.428039855371566 L-2.5644283311429845,9.458008349898057 L-2.2009571165688935,9.484017650123134 L-1.8361601277267117,9.506052089016888 L-1.4702571046818789,9.524098393857251 L-1.1034684537334827,9.538145694224985 L-0.7360151146497396,9.548185528551608 L-0.36811842758215146,9.554211849216337 L2.6153157201587373e-10,9.556221026188938 L0.36811842810521467,9.554211849216337 L0.7360151151728026,9.548185528551608 L1.103468454256546,9.538145694224985 L1.4702571052049425,9.524098393857253 L1.836160128249775,9.506052089016888 L2.2009571170919573,9.484017650123134 L2.564428331666048,9.458008349898058 L2.9263548305034557,9.428039855371566 L3.286518602614581,9.394130218444165 L3.6447026988104905,9.35629986501318 L4.000691362385007,9.314571582668947 L4.354270159078466,9.268970506968433 L4.705226106244901,9.219524106294502 L5.053347801144831,9.16626216531 L5.398425548286355,9.109216767016587 L5.740251485737879,9.048422273429127 L6.0786197103363815,8.983915304877307 L6.413326401715768,8.91573471794691 L6.744169945080634,8.843921582074067 L7.070951052651498,8.768519154806562 L7.3934728837082915,8.689572855747103 L7.711541163159856,8.60713023919425 L8.024964298567987,8.521240965497487 L8.333553495555563,8.431956771143682 L8.637122871529206,8.339331437592962 L8.935489567648027,8.243420758882776 L9.22847385897093,8.144282508019646 L9.515899262716212,8.041976402178872 L9.797592644568185,7.936564066733142 L10.07338432296681,7.828108998131711 L10.343108171317535,7.716676525652506 L10.606601718059744,7.602333772050219 L10.863706244533537,7.4851496131240705 L11.114266880585916,7.365194636229598 L11.358132697858798,7.242541097759478 L11.595156800702588,7.117262879618972 L11.825196414660631,6.989435444722233 L12.048112972471209,6.859135791536275 L12.26377219753529,6.726442407699952 L12.472044184799714,6.5914352227459645 L12.67280347900714,6.454195559954282 L12.865929150265615,6.314806087366053 L13.051304866892202,6.173350767987453 L13.228818965486857,6.029914809213523 L13.398364518194262,5.884584611502411 L13.559839397113182,5.737447716330972 L13.71314633581449,5.588592753463056 L13.858192987930835,5.438109387562243 L13.994891982782617,5.286088264181222 L14.123160978006846,5.132620955160284 L14.242922709157083,4.977799903467869 L14.354105036244665,4.821718367516381 L14.456640987193131,4.6644703649868156 L14.504647065934314,4.585438512964936 L14.550468798179693,4.506150616196015 L14.594099283344933,4.426618615145661 L14.63553195083946,4.346854487040693 L14.674760561055946,4.266870244065405 L14.71177920630999,4.186677931552587 L14.746582311729778,4.106289626169531 L14.77916463609565,4.025717434099336 L14.809521272629407,3.9449734892177615 L14.837647649733247,3.864069951265906 L14.863539531678231,3.7830190040189984 L14.887193019242183,3.701832853451566 L14.908604550296873,3.620523725899255 L14.927770900344486,3.539103866217601 L14.944689183003202,3.457585535937985 L14.959356850441885,3.375981011421095 L14.97177169376377,3.2943025820081653 L14.981931843339119,3.212562548170224 L14.989835769086776,3.130773219655705 L14.995482280704596,3.0489469136366374 L14.9988705278487,2.967095952853727 L15.000000000261533,2.8852326637606254 " />
			<path d="M-10.606601717621679,-24.720846122512707 L-10.606601717621679,-19.346865634742464 " />
			<path d="M-3.535533905756205,-24.720846122518527 L-3.535533905756205,-19.346865634748283 " />
			<path d="M-45.96194077688367,-8.99717576151822 L-45.96194077688367,-3.6231952737479762 " />
			<path d="M45.96194077739366,-2.707707617207658 L45.96194077739366,2.6662728705625853 " />
			<path d="M-11.208098711883364,-0.6333876187981705 L-11.41620524143099,-0.5389732816402981 L-11.619147214395715,-0.44320354343249035 L-11.816796983114623,-0.34616193002204476 L-12.009031825809632,-0.24793899791880214 L-12.195733946587502,-0.14863233429514594 L-12.376790475439828,-0.048346556986002875 L-12.55209346824304,0.05280668551115758 L-12.721539906758407,0.15470871403632291 L-12.885031698632035,0.2572338187669376 L-13.042475677394867,0.3602492592179033 L-13.19378360246268,0.46361526424157845 L-13.338872159136097,0.567185032027779 L-13.477662958600565,0.6708047301037776 L-13.610082537926377,0.7743134953343037 L-13.736062360068663,0.877543433921544 L-13.855538813867385,0.9803196214051428 L-13.939729689198932,1.0559138906267178 L-14.02035705454817,1.1311045730055014 L-14.097410693121489,1.2057996606872923 L-14.170888301429459,1.279910137448205 L-14.24079548928683,1.3533499786946699 L-14.307145779812531,1.4260361514634337 L-14.369960609429665,1.4978886144215595 L-14.429269327865521,1.5688303178664256 L-14.485109198151559,1.638787203725727 L-14.537525396623423,1.7076882055574751 L-14.586571012920933,1.775465248549996 L-14.632307049988087,1.8420532495219337 L-14.714133964728223,1.9714167508302114 L-14.783652430479398,2.095317876637775 L-14.820655123722842,2.1687654835436154 L-14.853499065327677,2.240046716692696 L-14.88240005263275,2.3091740654541564 L-14.907582354728003,2.3761952077865467 L-14.930654142890765,2.4456810557691733 L-14.949976171500875,2.5129825216854207 L-14.965823042965644,2.5783095424592357 L-14.978433057869143,2.6419085821892887 L-14.9880082149722,2.7040626321489722 L-14.994714211212413,2.765091210786404 L-14.998680441704131,2.8253503637244233 L-14.999999999738467,2.8852326637605916 " />
			<path d="M15.000000000261533,2.885232663760596 L14.998731351278778,2.8265113159562856 L14.994917895669962,2.767434296848377 L14.988473870339648,2.7076312967263245 L14.979279402622304,2.6467654183891094 L14.967180510282311,2.5845331771452456 L14.951989101513963,2.5206645008127753 L14.933482974941462,2.454922729719273 L14.91140581961892,2.3871046167018415 L14.88910940151056,2.3263251441436736 L14.863762173463718,2.263800901238422 L14.835189684178596,2.199492900191744 L14.803226313786126,2.1333829601247296 L14.767715273847974,2.065473707073898 L14.728508607356542,1.9957885739912005 L14.685467188734961,1.9243718007440185 L14.638460723837106,1.8512884341151645 L14.568200532705319,1.7496764023642992 L14.490204268899014,1.6453401749466574 L14.404281714563302,1.5385391573620744 L14.310282087096931,1.4295392233089075 L14.208094039152293,1.3186127146840367 L14.097645658635413,1.2060384415828647 L13.978904468705961,1.0921016822993153 L13.851877427777247,0.977094183325835 L13.722012017008296,0.8657734686974796 L13.584524417249565,0.753947521237964 L13.439499477370225,0.6418356337127162 L13.287028189633327,0.5296477005824705 L13.127207689695796,0.41758421800326917 L12.960141256608441,0.30583628382646144 L12.785938312815938,0.19458559759869973 L12.604714424156844,0.084004460561943 L12.416591299863592,-0.025744224346541677 L12.221696792562494,-0.13450695249418052 L12.02016489827373,-0.24213961755309646 L11.812135756411367,-0.348507511500106 L11.59775564978334,-0.453485324616717 L11.377177004591466,-0.5569571454891317 L11.150558390431438,-0.6588164610082479 L10.91806452029282,-0.758966156369657 L10.640024233108063,-0.8733870939927375 L10.354408881116974,-0.9851281598022754 L10.061464310444833,-1.0940737874896345 L9.761437003582513,-1.2001126887888354 L9.454574079386466,-1.3031378534765576 L9.14112329307873,-1.4030465493721405 L8.821333036246923,-1.4997403223375827 L8.49545233684424,-1.593124996277544 L8.16373085918947,-1.6831106731393393 L7.82641890396699,-1.7696117329129435 L7.48376740822674,-1.8525468336309947 L7.136027945384253,-1.931838911368788 L6.783452725220644,-2.0074151802442777 L6.42629459388261,-2.0792071324180785 L6.064807033882431,-2.1471505380934626 L5.699244164097962,-2.2111854455163655 L5.329860739772656,-2.271256180975376 L4.956912152515548,-2.3273113488017456 L4.580654430301242,-2.3793038313693864 L4.201344237469931,-2.4271907890948667 L3.8192388747273895,-2.470933660437418 L3.4345962791449756,-2.510498161898928 L3.0476750241596338,-2.5458542880239445 L2.6587343195738744,-2.576976311399677 L2.2680340115558164,-2.6038427826559896 L1.875834582639155,-2.626436530465409 L1.4823971517231533,-2.6447446615431214 L1.0879834740726675,-2.6587585606469712 L0.6928559413181347,-2.668473890577463 L0.2972775814555685,-2.6738905921777594 L-0.09848794115342109,-2.6750128843336847 L-0.4941763257816632,-2.67184926397372 L-0.8719659411081498,-2.6646448364460467 L-1.2492409684700692,-2.6535375212757932 L-1.6257713257611084,-2.638525450051717 L-2.001327517570536,-2.619610569146396 L-2.3756806351832123,-2.5967986397162304 L-2.7486023565795947,-2.570099237701438 L-3.119864946435715,-2.539525753826061 L-3.489241256123196,-2.5050953935979603 L-3.8565047237092664,-2.466829177308817 L-4.221429373956737,-2.4247519400341346 L-4.583789818324011,-2.3788923316332355 L-4.943361254965086,-2.3292828167492625 L-5.299919468729537,-2.2759596748091813 L-5.65324083116253,-2.218963000023778 L-6.0031023005048345,-2.158336701387658 L-6.349281421692805,-2.094128502679247 L-6.691556326358383,-2.026389942460793 L-7.029705732829107,-1.955176374078363 L-7.363508946128096,-1.8805469656618465 L-7.692745857974075,-1.802564700124951 L-8.017196946781342,-1.7212963751652073 L-8.336643277659784,-1.6368126032639685 L-8.650866502414893,-1.5491878116864044 L-8.959648859547748,-1.4585002424815061 L-9.262773174255013,-1.3648319524820873 L-9.560022858428948,-1.2682688133047808 L-9.851181910657397,-1.1689005113500408 L-10.136034916223807,-1.0668205478021393 L-10.414367047107195,-0.9621262386291748 L-10.685964061982176,-0.8549187145830651 L-10.950612306218968,-0.7453029211995443 L-11.208098711883252,-0.6333876187982196 " />
			<path d="M-47.4264068709444,-7.424808725424585 L-47.4264068709444,-0.7391595352345837 " />
			<path d="M47.42640687146746,-1.1353405811082082 L47.42640687146746,5.55030860908179 " />

        </g>
        </g>
    </svg>
    