<?xml version='1.0' encoding='utf-8'?>
<svg width="100.09mm" height="53.492262mm" viewBox="-50.045 -26.89316 100.09 53.492262" version="1.1" xmlns="http://www.w3.org/2000/svg">
  <g transform="scale(1,-1)" stroke-linecap="round">
    <g fill="none" stroke="rgb(0,0,0)" stroke-width="0.09000000000000001" id="Visible">
      <path d="M 35.355339,20.33946 A 50.0,22.222092239240137 0.0 0,1 -50.0,4.626068" />
      <path d="M -50.0,4.626068 A 50.0,22.222092239240137 0.0 0,1 50.0,4.626068" />
      <path d="M 50.0,4.626068 A 50.0,22.222092239240137 0.0 0,1 35.355339,20.33946" />
      <path d="M -50.0,-4.33201 A 50.0,22.222092239240137 0.0 0,1 50.0,-4.33201" />
      <path d="M -0.0,-16.707141 A 8.0,3.555534758278422 -1.6148609802360516e-15 0,1 8.0,-13.151606" />
      <path d="M 8.0,-13.151606 A 8.0,3.555534758278422 -1.6148609802360516e-15 0,1 -8.0,-13.151606" />
      <path d="M -8.0,-13.151606 A 8.0,3.555534758278422 -1.6148609802360516e-15 0,1 -0.0,-16.707141" />
      <path d="M 22.627417,-5.430503 A 8.0,3.555534758278422 180.0 0,0 35.502002,-9.478091" />
      <path d="M 35.502002,-9.478091 A 8.0,3.555534758278422 180.0 0,0 21.066541,-9.478091" />
      <path d="M 21.066541,-9.478091 A 8.0,3.555534758278422 180.0 0,0 22.627417,-5.430503" />
      <path d="M 48.0,4.626068 A 8.0,3.5555347582784216 -4.916727900858599e-17 0,1 32.0,4.626068" />
      <path d="M 32.0,4.626068 A 8.0,3.5555347582784216 -4.916727900858599e-17 0,1 48.0,4.626068" />
      <path d="M -22.627417,-5.430503 A 8.0,3.555534758278422 180.0 0,0 -21.066541,-9.478091" />
      <path d="M -21.066541,-9.478091 A 8.0,3.555534758278422 180.0 0,0 -35.502002,-9.478091" />
      <path d="M -35.502002,-9.478091 A 8.0,3.555534758278422 180.0 0,0 -22.627417,-5.430503" />
      <path d="M -48.0,4.626068 A 8.0,3.5555347582784216 -1.6025691604839051e-15 0,1 -32.0,4.626068" />
      <path d="M -32.0,4.626068 A 8.0,3.5555347582784216 -1.6025691604839051e-15 0,1 -48.0,4.626068" />
      <path d="M 22.627417,14.682639 A 8.0,3.555534758278422 180.0 0,0 21.066541,15.663337" />
      <path d="M 21.066541,15.663337 A 8.0,3.555534758278422 180.0 1,0 35.502002,15.663337" />
      <path d="M 35.502002,15.663337 A 8.0,3.555534758278422 180.0 0,0 22.627417,14.682639" />
      <path d="M -22.627417,14.682639 A 8.0,3.555534758278422 180.0 0,0 -35.502002,15.663337" />
      <path d="M -35.502002,15.663337 A 8.0,3.555534758278422 180.0 1,0 -21.066541,15.663337" />
      <path d="M -21.066541,15.663337 A 8.0,3.555534758278422 180.0 0,0 -22.627417,14.682639" />
      <path d="M 0.0,25.959276 A 8.0,3.5555347582784216 -1.6025691604839051e-15 0,1 -8.0,22.403741" />
      <path d="M -8.0,22.403741 A 8.0,3.5555347582784216 -1.6025691604839051e-15 0,1 8.0,22.403741" />
      <path d="M 8.0,22.403741 A 8.0,3.5555347582784216 -1.6025691604839051e-15 0,1 0.0,25.959276" />
      <path d="M 6.91012,-14.943222 A 8.0,3.555534758278422 -1.6148609802360516e-15 0,1 -6.91012,-14.943222" />
      <path d="M 25.455844,-10.80961 A 4.0,1.777767379139211 180.0 0,0 31.719251,-11.155747" />
      <path d="M 24.849292,-11.155747 A 4.0,1.777767379139211 180.0 0,0 25.455844,-10.80961" />
      <path d="M 46.91012,2.834452 A 8.0,3.5555347582784216 -4.916727900858599e-17 0,1 33.08988,2.834452" />
      <path d="M -25.455844,-10.80961 A 4.0,1.777767379139211 180.0 0,0 -24.849292,-11.155747" />
      <path d="M -31.719251,-11.155747 A 4.0,1.777767379139211 180.0 0,0 -25.455844,-10.80961" />
      <path d="M -33.08988,2.834452 A 8.0,3.5555347582784216 -1.6025691604839051e-15 0,1 -46.91012,2.834452" />
      <path d="M 24.849292,13.98568 A 4.0,1.777767379139211 180.0 0,0 31.719251,13.98568" />
      <path d="M -31.719251,13.98568 A 4.0,1.777767379139211 180.0 0,0 -24.849292,13.98568" />
      <path d="M 0.0,22.376045 A 8.0,3.5555347582784216 -1.6025691604839051e-15 0,1 -6.91012,20.612126" />
      <path d="M 6.91012,20.612126 A 8.0,3.5555347582784216 -1.6025691604839051e-15 0,1 0.0,22.376045" />
      <path d="M -0.0,-14.95707 A 4.0,1.777767379139211 180.0 0,0 3.858543,-16.266241" />
      <path d="M -3.858543,-16.266241 A 4.0,1.777767379139211 180.0 0,0 -0.0,-14.95707" />
      <path d="M 36.141457,1.511432 A 4.0,1.7777673791392108 180.0 0,0 43.858543,1.511432" />
      <path d="M -43.858543,1.511432 A 4.0,1.7777673791392108 180.0 0,0 -36.141457,1.511432" />
      <path d="M -3.858543,19.289106 A 4.0,1.7777673791392108 180.0 0,0 3.858543,19.289106" />
      <line x1="50.0" y1="-4.33201" x2="50.0" y2="4.626068" />
      <line x1="-50.0" y1="-4.33201" x2="-50.0" y2="4.626068" />
    </g>
    <g fill="none" stroke="rgb(99,99,99)" stroke-width="0.09000000000000001" id="Hidden" stroke-dasharray="0.002286 0.271143">
      <path d="M 35.355339,11.381383 A 50.0,22.222092239240137 0.0 0,1 -50.0,-4.33201" />
      <path d="M 50.0,-4.33201 A 50.0,22.222092239240137 0.0 0,1 35.355339,11.381383" />
      <path d="M -0.0,-20.331916 A 4.0,1.777767379139211 180.0 0,0 4.0,-22.109683" />
      <path d="M 4.0,-22.109683 A 4.0,1.777767379139211 180.0 0,0 -4.0,-22.109683" />
      <path d="M -4.0,-22.109683 A 4.0,1.777767379139211 180.0 0,0 -0.0,-20.331916" />
      <path d="M 25.455844,-15.645652 A 4.0,1.777767379139211 180.0 0,0 32.284271,-16.902723" />
      <path d="M 32.284271,-16.902723 A 4.0,1.777767379139211 180.0 0,0 24.284271,-16.902723" />
      <path d="M 24.284271,-16.902723 A 4.0,1.777767379139211 180.0 0,0 25.455844,-15.645652" />
      <path d="M 36.0,-4.33201 A 4.0,1.7777673791392108 180.0 0,0 44.0,-4.33201" />
      <path d="M 44.0,-4.33201 A 4.0,1.7777673791392108 180.0 0,0 36.0,-4.33201" />
      <path d="M -25.455844,-15.645652 A 4.0,1.777767379139211 180.0 0,0 -24.284271,-16.902723" />
      <path d="M -24.284271,-16.902723 A 4.0,1.777767379139211 180.0 0,0 -32.284271,-16.902723" />
      <path d="M -32.284271,-16.902723 A 4.0,1.777767379139211 180.0 0,0 -25.455844,-15.645652" />
      <path d="M -36.0,-4.33201 A 4.0,1.7777673791392108 180.0 0,0 -44.0,-4.33201" />
      <path d="M -44.0,-4.33201 A 4.0,1.7777673791392108 180.0 1,0 -36.0,-4.33201" />
      <path d="M 25.455844,6.981633 A 4.0,1.777767379139211 180.0 0,0 24.284271,8.238704" />
      <path d="M 24.284271,8.238704 A 4.0,1.777767379139211 180.0 0,0 32.284271,8.238704" />
      <path d="M 32.284271,8.238704 A 4.0,1.777767379139211 180.0 0,0 25.455844,6.981633" />
      <path d="M -25.455844,6.981633 A 4.0,1.777767379139211 180.0 0,0 -32.284271,8.238704" />
      <path d="M -32.284271,8.238704 A 4.0,1.777767379139211 180.0 0,0 -24.284271,8.238704" />
      <path d="M -24.284271,8.238704 A 4.0,1.777767379139211 180.0 0,0 -25.455844,6.981633" />
      <path d="M 0.0,11.667897 A 4.0,1.7777673791392108 180.0 0,0 -4.0,13.445664" />
      <path d="M -4.0,13.445664 A 4.0,1.7777673791392108 180.0 0,0 4.0,13.445664" />
      <path d="M 4.0,13.445664 A 4.0,1.7777673791392108 180.0 0,0 0.0,11.667897" />
      <path d="M -0.0,-20.290372 A 8.0,3.555534758278422 -1.6148609802360516e-15 0,1 8.0,-16.734837" />
      <path d="M 8.0,-16.734837 A 8.0,3.555534758278422 -1.6148609802360516e-15 0,1 6.91012,-14.943222" />
      <path d="M -6.91012,-14.943222 A 8.0,3.555534758278422 -1.6148609802360516e-15 0,1 -8.0,-16.734837" />
      <path d="M -8.0,-16.734837 A 8.0,3.555534758278422 -1.6148609802360516e-15 0,1 -0.0,-20.290372" />
      <path d="M 31.719251,-11.155747 A 4.0,1.777767379139211 180.0 0,0 32.284271,-12.066682" />
      <path d="M 32.284271,-12.066682 A 4.0,1.777767379139211 180.0 0,0 31.893136,-12.833404" />
      <path d="M 31.893136,-12.833404 A 4.0,1.777767379139211 180.0 0,0 24.675406,-12.833404" />
      <path d="M 24.675406,-12.833404 A 4.0,1.777767379139211 180.0 0,0 24.284271,-12.066682" />
      <path d="M 24.284271,-12.066682 A 4.0,1.777767379139211 180.0 0,0 24.849292,-11.155747" />
      <line x1="48.0" y1="1.042837" x2="48.0" y2="4.626068" />
      <path d="M 48.0,1.042837 A 8.0,3.5555347582784216 -4.916727900858599e-17 0,1 46.91012,2.834452" />
      <path d="M 33.08988,2.834452 A 8.0,3.5555347582784216 -4.916727900858599e-17 0,1 32.0,1.042837" />
      <path d="M 32.0,1.042837 A 8.0,3.5555347582784216 -4.916727900858599e-17 0,1 48.0,1.042837" />
      <path d="M -24.849292,-11.155747 A 4.0,1.777767379139211 180.0 0,0 -24.284271,-12.066682" />
      <path d="M -24.284271,-12.066682 A 4.0,1.777767379139211 180.0 0,0 -24.675406,-12.833404" />
      <path d="M -24.675406,-12.833404 A 4.0,1.777767379139211 180.0 0,0 -31.893136,-12.833404" />
      <path d="M -31.893136,-12.833404 A 4.0,1.777767379139211 180.0 0,0 -32.284271,-12.066682" />
      <path d="M -32.284271,-12.066682 A 4.0,1.777767379139211 180.0 0,0 -31.719251,-11.155747" />
      <line x1="-48.0" y1="1.042837" x2="-48.0" y2="4.626068" />
      <path d="M -48.0,1.042837 A 8.0,3.5555347582784216 -1.6025691604839051e-15 0,1 -32.0,1.042837" />
      <path d="M -32.0,1.042837 A 8.0,3.5555347582784216 -1.6025691604839051e-15 0,1 -33.08988,2.834452" />
      <path d="M -46.91012,2.834452 A 8.0,3.5555347582784216 -1.6025691604839051e-15 0,1 -48.0,1.042837" />
      <path d="M 25.455844,11.817674 A 4.0,1.777767379139211 180.0 0,0 24.675406,12.308023" />
      <path d="M 24.675406,12.308023 A 4.0,1.777767379139211 180.0 0,0 24.284271,13.074746" />
      <path d="M 24.284271,13.074746 A 4.0,1.777767379139211 180.0 0,0 24.849292,13.98568" />
      <path d="M 31.719251,13.98568 A 4.0,1.777767379139211 180.0 0,0 32.284271,13.074746" />
      <path d="M 32.284271,13.074746 A 4.0,1.777767379139211 180.0 0,0 31.893136,12.308023" />
      <path d="M 31.893136,12.308023 A 4.0,1.777767379139211 180.0 0,0 25.455844,11.817674" />
      <path d="M -25.455844,11.817674 A 4.0,1.777767379139211 180.0 0,0 -31.893136,12.308023" />
      <path d="M -31.893136,12.308023 A 4.0,1.777767379139211 180.0 0,0 -32.284271,13.074746" />
      <path d="M -32.284271,13.074746 A 4.0,1.777767379139211 180.0 0,0 -31.719251,13.98568" />
      <path d="M -24.849292,13.98568 A 4.0,1.777767379139211 180.0 0,0 -24.284271,13.074746" />
      <path d="M -24.284271,13.074746 A 4.0,1.777767379139211 180.0 0,0 -24.675406,12.308023" />
      <path d="M -24.675406,12.308023 A 4.0,1.777767379139211 180.0 0,0 -25.455844,11.817674" />
      <path d="M -6.91012,20.612126 A 8.0,3.5555347582784216 -1.6025691604839051e-15 0,1 -8.0,18.820511" />
      <path d="M -8.0,18.820511 A 8.0,3.5555347582784216 -1.6025691604839051e-15 0,1 8.0,18.820511" />
      <path d="M 8.0,18.820511 A 8.0,3.5555347582784216 -1.6025691604839051e-15 0,1 6.91012,20.612126" />
      <path d="M 3.858543,-16.266241 A 4.0,1.777767379139211 180.0 0,0 4.0,-16.734837" />
      <path d="M 4.0,-16.734837 A 4.0,1.777767379139211 180.0 0,0 -4.0,-16.734837" />
      <path d="M -4.0,-16.734837 A 4.0,1.777767379139211 180.0 0,0 -3.858543,-16.266241" />
      <path d="M 36.0,1.042837 A 4.0,1.7777673791392108 180.0 0,0 36.141457,1.511432" />
      <path d="M 43.858543,1.511432 A 4.0,1.7777673791392108 180.0 0,0 44.0,1.042837" />
      <path d="M 44.0,1.042837 A 4.0,1.7777673791392108 180.0 0,0 36.0,1.042837" />
      <line x1="36.0" y1="1.042837" x2="36.0" y2="-4.33201" />
      <path d="M -36.0,1.042837 A 4.0,1.7777673791392108 180.0 0,0 -44.0,1.042837" />
      <path d="M -44.0,1.042837 A 4.0,1.7777673791392108 180.0 0,0 -43.858543,1.511432" />
      <path d="M -36.141457,1.511432 A 4.0,1.7777673791392108 180.0 0,0 -36.0,1.042837" />
      <line x1="-36.0" y1="1.042837" x2="-36.0" y2="-4.33201" />
      <path d="M 0.0,17.042743 A 4.0,1.7777673791392108 180.0 0,0 -4.0,18.820511" />
      <path d="M -4.0,18.820511 A 4.0,1.7777673791392108 180.0 0,0 -3.858543,19.289106" />
      <path d="M 3.858543,19.289106 A 4.0,1.7777673791392108 180.0 0,0 4.0,18.820511" />
      <path d="M 4.0,18.820511 A 4.0,1.7777673791392108 180.0 0,0 0.0,17.042743" />
      <line x1="8.0" y1="-16.734837" x2="8.0" y2="-13.151606" />
      <line x1="-8.0" y1="-16.734837" x2="-8.0" y2="-13.151606" />
      <line x1="24.675406" y1="-12.833404" x2="21.066541" y2="-9.478091" />
      <line x1="31.893136" y1="-12.833404" x2="35.502002" y2="-9.478091" />
      <line x1="32.0" y1="1.042837" x2="32.0" y2="4.626068" />
      <line x1="-31.893136" y1="-12.833404" x2="-35.502002" y2="-9.478091" />
      <line x1="-24.675406" y1="-12.833404" x2="-21.066541" y2="-9.478091" />
      <line x1="-32.0" y1="1.042837" x2="-32.0" y2="4.626068" />
      <line x1="24.675406" y1="12.308023" x2="21.066541" y2="15.663337" />
      <line x1="31.893136" y1="12.308023" x2="35.502002" y2="15.663337" />
      <line x1="-31.893136" y1="12.308023" x2="-35.502002" y2="15.663337" />
      <line x1="-24.675406" y1="12.308023" x2="-21.066541" y2="15.663337" />
      <line x1="8.0" y1="18.820511" x2="8.0" y2="22.403741" />
      <line x1="-8.0" y1="18.820511" x2="-8.0" y2="22.403741" />
      <line x1="-4.0" y1="-16.734837" x2="-4.0" y2="-22.109683" />
      <line x1="4.0" y1="-16.734837" x2="4.0" y2="-22.109683" />
      <line x1="24.284271" y1="-12.066682" x2="24.284271" y2="-16.902723" />
      <line x1="32.284271" y1="-12.066682" x2="32.284271" y2="-16.902723" />
      <line x1="44.0" y1="1.042837" x2="44.0" y2="-4.33201" />
      <line x1="-32.284271" y1="-12.066682" x2="-32.284271" y2="-16.902723" />
      <line x1="-24.284271" y1="-12.066682" x2="-24.284271" y2="-16.902723" />
      <line x1="-44.0" y1="1.042837" x2="-44.0" y2="-4.33201" />
      <line x1="24.284271" y1="13.074746" x2="24.284271" y2="8.238704" />
      <line x1="32.284271" y1="13.074746" x2="32.284271" y2="8.238704" />
      <line x1="-32.284271" y1="13.074746" x2="-32.284271" y2="8.238704" />
      <line x1="-24.284271" y1="13.074746" x2="-24.284271" y2="8.238704" />
      <line x1="-4.0" y1="18.820511" x2="-4.0" y2="13.445664" />
      <line x1="4.0" y1="18.820511" x2="4.0" y2="13.445664" />
    </g>
  </g>
</svg>