<?xml version="1.0" encoding="UTF-8" standalone="no"?>
    <svg
    xmlns:svg="http://www.w3.org/2000/svg"
    xmlns="http://www.w3.org/2000/svg"
    width="236"
    height="261"
    >
        <g transform="scale(4, -4)   translate(39.73634812806765,-35.56943251237168)" stroke-width="0.25"  fill="none">
        <!-- hidden lines -->
        <g  stroke="rgb(160,160,160)" fill="none" stroke-dasharray="0.25,0.25" >
    			<path d="M15.632238280688108,-24.830593477670206 L15.506441217946811,-24.788759894941016 L15.37527813407003,-24.74835744221327 L15.238939626618524,-24.709444829672115 L15.097623813737973,-24.672078602564998 L14.95153604626671,-24.636313059033828 L14.800888609333406,-24.602200171212488 L14.645900413878293,-24.569789509704368 L14.48679667854619,-24.539128171549606 L14.323808602413596,-24.510260711786778 L14.157173029025408,-24.483229078708455 L13.987132102229467,-24.458072552904685 L13.813932914309053,-24.434827690183052 L13.637827146924653,-24.41352826844816 L13.459070705386724,-24.39420523861782 L13.277923346790946,-24.376886679647196 L13.094648302556308,-24.36159775772634 L12.909511895914525,-24.348360689710315 L12.722783154906661,-24.33719471083515 L12.534733421449273,-24.328116046766425 L12.345635957038207,-24.32113789002125 L12.155765545662968,-24.31627038079772 L11.96539809450872,-24.31352059223988 L11.774810233026118,-24.312892520159473 L11.584278910951598,-24.314387077229515 L11.394080995862257,-24.318002091658038 L11.204492870850098,-24.323732310344 L11.015790032900318,-24.331569406510752 L10.828246692557226,-24.341501991805956 L10.642135375459521,-24.353515632850396 L10.45772652632397,-24.367592872211596 L10.275288115952954,-24.38371325377184 L10.095085251836924,-24.401853352453635 L9.917379792917654,-24.421986808259497 L9.742429969072052,-24.444084364576568 L9.570490005869509,-24.468113910690395 L9.401809755148026,-24.494040528446114 L9.236634331945972,-24.521826542989206 L9.075203758317034,-24.55143157751212 L8.917752614545986,-24.582812611927192 L8.764509698272034,-24.615924045380613 L8.61569769201516,-24.65071776251657 L8.471532839588543,-24.68714320339533 L8.332224631867266,-24.725147436963614 L8.197975502369985,-24.764675237970508 L8.068980533095843,-24.805669167217186 L7.945427171044166,-24.848069655023746 L7.8274949558288105,-24.891815087791976 L7.715355258783016,-24.936841897538155 L7.609171033933862,-24.983084654265873 L7.5090965812082,-25.030476161044604 L7.415277322214163,-25.07894755165585 L7.32784958892404,-25.128428390665004 L7.246940425565644,-25.178846775773483 L7.172667404009992,-25.23012944230242 L7.105138452923602,-25.282201869656074 L7.044451700933657,-25.334988389610245 L6.990695334033948,-25.388412296268378 L6.943947467438783,-25.442395957525502 L6.9042760320711105,-25.496860927878103 L6.87173867584976,-25.551728062415975 L6.846382679919292,-25.606917631830378 L6.828244889944142,-25.662349438271438 L6.817351662566935,-25.717942931886373 L6.813718827108737,-25.77361732786924 " />
			<path d="M16.813718827108737,-25.773617327869246 L16.81251654558461,-25.741584997993126 L16.808910279204582,-25.70956807286836 L16.80290176226762,-25.677581949837965 L16.79449388434529,-25.645642011431836 L16.783690688892104,-25.613763617969106 L16.770497371300984,-25.581962100171168 L16.75492027640471,-25.550252751788932 L16.736966895424658,-25.518650822247885 L16.71664586236811,-25.48717150931443 L16.693966949876113,-25.4558299517871 L16.641580241574573,-25.3936203196548 L16.5799075321186,-25.332141581049477 L16.509067443979312,-25.271511985354998 L16.42919623233965,-25.21184814869748 L16.340447523018543,-25.153264829643614 L16.24299201698408,-25.095874708471822 L16.137017162023973,-25.039788170440854 L16.022726792204903,-24.98511309347267 L15.90034073581418,-24.931954640657978 L15.770094392537784,-24.88041505798352 L15.63223828068811,-24.830593477670206 " />
			<path d="M7.995199373529366,-2.807357510018651 L7.838264733222633,-2.7442697932384803 L7.69131682183405,-2.6669590998578094 L7.55472478686764,-2.5756196418884016 L7.428831760854523,-2.470480872968686 L7.313953999370488,-2.3518069119538296 L7.210380086571097,-2.219895879423337 L7.1183702102401085,-2.075079148773071 L7.038155508172354,-1.9177205137729203 L6.969937487533021,-1.748215274681307 L6.913887518651982,-1.5669892452123513 L6.870146404524785,-1.3744976828502224 L6.838824027101782,-1.1712241451978826 L6.8199990712539345,-0.9576792752331791 L6.813718827108737,-0.7343995185237957 " />
			<path d="M6.813718827108737,-0.7343995185237908 L6.823348582419466,-0.4452502171104875 L6.852200755478116,-0.1431478421135104 L6.900164210537985,0.1707439376870532 L6.967054197064627,0.4952160418777076 L7.052613061376825,0.8290186356709519 L7.156511239103362,1.1708659441465699 L7.278348524632713,1.5194412049307608 L7.417655612665893,1.8734017402359378 L7.573895905934541,2.2313841287241445 L7.746467582121071,2.592009457272603 L7.934705912019339,2.953888632412106 L8.137885820006485,3.315627730979088 L8.355224676963262,3.6758333693712473 L8.585885314884793,4.033118070724752 " />
			<path d="M7.069525249501279,6.896111506688975 L7.034548507995464,6.886117721504128 L7.002088210223804,6.874034296388544 L6.972161447963217,6.859867593797908 L6.944783978972546,6.8436250731253025 L6.919970218695415,6.825315286773467 L6.897733232669857,6.804947875651607 L6.878084729648735,6.782533564099047 L6.861035055434563,6.758084154238325 L6.846593187431992,6.731612519760951 L6.834766729920807,6.703132599148745 L6.825561910051938,6.672659388334701 L6.818983574568592,6.6402089328068925 L6.8150351872542325,6.605798319159867 L6.813718827108737,6.569445666097764 " />
			<path d="M6.813718827108737,6.5694456660977565 L6.823348582419475,6.461530484897381 L6.852200755478132,6.339964134020661 L6.900164210538008,6.205214875152816 L6.967054197064654,6.057801749250366 L7.052613061376856,5.898292577246156 L7.156511239103393,5.7273017728587305 L7.278348524632742,5.545487975930779 L7.4176556126659206,5.353551515412981 L7.573895905934566,5.152231711765374 L7.746467582121091,4.9423040291673495 L7.9347059120193535,4.724577088505516 L8.137885820006492,4.499889552645186 L8.35522467696326,4.2691068959831 L8.585885314884768,4.033118070724798 " />
			<path d="M9.467099792034038,-2.812216686826055 L9.347982278914396,-2.8397319047780236 L9.230686092041037,-2.8629945031195625 L9.115297872715484,-2.881987298838567 L9.001902852911332,-2.896696262829881 L8.890584792317313,-2.9071105302579348 L8.781425916467859,-2.9132224085820795 L8.67450685600688,-2.915027383238751 L8.569906587129623,-2.91252412097613 L8.46770237324657,-2.9057144708389835 L8.367969707912525,-2.8946034628028556 L8.270782259062983,-2.8791993040586448 L8.17621181459902,-2.859513372950328 L8.084328229360867,-2.835560210570332 L7.995199373529396,-2.8073575100186603 " />
			<path d="M6.813718827108738,6.832937399477309 L6.813718827108738,6.569445656289993 " />
			<path d="M6.813718827108738,-0.7343995087398376 L6.813718827108738,-3.46749723836108 " />

        </g>

        <!-- solid lines -->
        <g  stroke="rgb(0,0,0)" fill="none">
    			<path d="M6.813718827108737,-25.773617327869246 L6.815224733627716,-25.809466394623538 L6.8197415460828745,-25.8452938672405 L6.827266543715286,-25.881078164590303 L6.837795193747752,-25.916797731550286 L6.851321154115187,-25.952431051988953 L6.867836277284832,-25.987956661726482 L6.88733061516403,-26.02335316146396 L6.909792425092585,-26.058599229673508 L6.935208176916094,-26.093673635441565 L6.963562561136017,-26.12855525125762 L6.9948384981315375,-26.163223065740606 L7.029017148447692,-26.197656196295398 L7.066077924143553,-26.231833901691683 L7.105998501193632,-26.265735594557718 L7.194321164552303,-26.33262943681112 L7.293772361491521,-26.398176569930403 L7.404112505366961,-26.46221908513063 L7.525075777107376,-26.524602698383223 L7.65637076559601,-26.5851771220997 L7.797681169705511,-26.64379642718763 L7.9486665602950515,-26.70031939460662 L8.108963200333942,-26.754609855577325 L8.278184921175999,-26.80653701962398 L8.455924052873645,-26.85597578966012 L8.641752406290511,-26.902807063358402 L8.835222304646571,-26.94691802007855 L9.035867662010727,-26.988202392662163 L9.243205106142627,-27.0265607234396 L9.456735142978747,-27.061900603832232 L9.675943359957325,-27.09413689697278 L9.900301665283285,-27.123191942807505 L10.129269560147634,-27.148995745186067 L10.36229544083642,-27.17148614048839 L10.598817927592412,-27.19060894738227 L10.838267217028093,-27.206318097350934 L11.080066454831929,-27.218575745676148 L11.323633125460935,-27.22735236260946 L11.568380455471647,-27.232626804511927 L11.813718827108735,-27.23438636479103 L12.059057198745824,-27.232626804511927 L12.303804528756537,-27.22735236260946 L12.547371199385543,-27.218575745676148 L12.789170437189378,-27.206318097350934 L13.02861972662506,-27.19060894738227 L13.26514221338105,-27.17148614048839 L13.49816809406984,-27.148995745186067 L13.727135988934187,-27.123191942807505 L13.951494294260147,-27.09413689697278 L14.170702511238725,-27.061900603832232 L14.384232548074845,-27.0265607234396 L14.59156999220675,-26.988202392662163 L14.792215349570908,-26.94691802007855 L14.985685247926968,-26.902807063358402 L15.171513601343833,-26.85597578966012 L15.349252733041476,-26.80653701962398 L15.518474453883535,-26.754609855577325 L15.678771093922421,-26.70031939460662 L15.829756484511961,-26.643796427187635 L15.971066888621465,-26.5851771220997 L16.102361877110102,-26.524602698383223 L16.223325148850513,-26.462219085130627 L16.333665292725957,-26.3981765699304 L16.433116489665174,-26.332629436811118 L16.52143915302384,-26.265735594557718 L16.56135973007392,-26.231833901691683 L16.59842050576978,-26.197656196295398 L16.632599156085938,-26.163223065740606 L16.663875093081458,-26.128555251257616 L16.69222947730138,-26.093673635441565 L16.71764522912489,-26.058599229673504 L16.74010703905344,-26.02335316146396 L16.759601376932643,-25.987956661726482 L16.776116500102287,-25.95243105198895 L16.78964246046972,-25.916797731550286 L16.800171110502188,-25.881078164590303 L16.8076961081346,-25.8452938672405 L16.812212920589758,-25.809466394623538 L16.813718827108737,-25.773617327869257 " />
			<path d="M15.632238280688108,32.551687325648935 L15.506441217946811,32.593520908378125 L15.37527813407003,32.63392336110587 L15.238939626618524,32.672835973647025 L15.097623813737973,32.71020220075414 L14.95153604626671,32.745967744285316 L14.800888609333406,32.78008063210665 L14.645900413878293,32.81249129361477 L14.48679667854619,32.843152631769534 L14.323808602413596,32.87202009153236 L14.157173029025408,32.899051724610686 L13.987132102229467,32.92420825041446 L13.813932914309053,32.94745311313609 L13.637827146924653,32.96875253487098 L13.459070705386724,32.98807556470132 L13.277923346790946,33.00539412367194 L13.094648302556308,33.020683045592804 L12.909511895914525,33.03392011360882 L12.722783154906661,33.04508609248399 L12.534733421449273,33.054164756552716 L12.345635957038207,33.06114291329789 L12.155765545662968,33.06601042252142 L11.96539809450872,33.068760211079265 L11.774810233026118,33.06938828315967 L11.584278910951598,33.06789372608963 L11.394080995862257,33.0642787116611 L11.204492870850098,33.05854849297514 L11.015790032900318,33.05071139680839 L10.828246692557226,33.040778811513185 L10.642135375459521,33.028765170468745 L10.45772652632397,33.014687931107545 L10.275288115952954,32.9985675495473 L10.095085251836924,32.980427450865506 L9.917379792917654,32.960293995059644 L9.742429969072052,32.93819643874257 L9.570490005869509,32.91416689262874 L9.401809755148026,32.88824027487303 L9.236634331945972,32.86045426032994 L9.075203758317034,32.83084922580702 L8.917752614545986,32.799468191391945 L8.764509698272034,32.766356757938524 L8.61569769201516,32.73156304080257 L8.471532839588543,32.69513759992381 L8.332224631867266,32.65713336635553 L8.197975502369985,32.61760556534863 L8.068980533095843,32.57661163610196 L7.945427171044166,32.53421114829539 L7.8274949558288105,32.490465715527165 L7.715355258783016,32.44543890578099 L7.609171033933862,32.39919614905327 L7.5090965812082,32.35180464227454 L7.415277322214163,32.30333325166329 L7.32784958892404,32.25385241265413 L7.246940425565644,32.203434027545654 L7.172667404009992,32.15215136101672 L7.105138452923602,32.10007893366307 L7.044451700933657,32.047292413708895 L6.990695334033948,31.993868507050763 L6.943947467438783,31.93988484579364 L6.9042760320711105,31.885419875441038 L6.87173867584976,31.830552740903165 L6.846382679919292,31.775363171488763 L6.828244889944142,31.719931365047703 L6.817351662566935,31.664337871432767 L6.813718827108737,31.6086634754499 " />
			<path d="M6.813718827108737,31.608663475449895 L6.815224733627716,31.572814408695603 L6.8197415460828745,31.53698693607864 L6.827266543715286,31.501202638728838 L6.837795193747752,31.465483071768855 L6.851321154115187,31.429849751330188 L6.867836277284832,31.39432414159266 L6.88733061516403,31.358927641855182 L6.909792425092585,31.323681573645633 L6.935208176916094,31.288607167877576 L6.963562561136017,31.25372555206152 L6.9948384981315375,31.219057737578535 L7.029017148447692,31.184624607023743 L7.066077924143553,31.150446901627458 L7.105998501193632,31.116545208761423 L7.194321164552303,31.04965136650802 L7.293772361491521,30.984104233388738 L7.404112505366961,30.92006171818851 L7.525075777107376,30.857678104935918 L7.65637076559601,30.79710368121944 L7.797681169705511,30.73848437613151 L7.9486665602950515,30.68196140871252 L8.108963200333942,30.627670947741816 L8.278184921175999,30.57574378369516 L8.455924052873645,30.52630501365902 L8.641752406290511,30.47947373996074 L8.835222304646571,30.435362783240592 L9.035867662010727,30.394078410656977 L9.243205106142627,30.35572007987954 L9.456735142978747,30.32038019948691 L9.675943359957325,30.28814390634636 L9.900301665283285,30.259088860511635 L10.129269560147634,30.233285058133074 L10.36229544083642,30.21079466283075 L10.598817927592412,30.19167185593687 L10.838267217028093,30.175962705968207 L11.080066454831929,30.163705057642993 L11.323633125460935,30.154928440709682 L11.568380455471647,30.149653998807214 L11.813718827108735,30.147894438528112 L12.059057198745824,30.149653998807214 L12.303804528756537,30.154928440709682 L12.547371199385543,30.163705057642993 L12.789170437189378,30.175962705968207 L13.02861972662506,30.19167185593687 L13.26514221338105,30.21079466283075 L13.49816809406984,30.233285058133074 L13.727135988934187,30.259088860511635 L13.951494294260147,30.28814390634636 L14.170702511238725,30.32038019948691 L14.384232548074845,30.35572007987954 L14.59156999220675,30.394078410656977 L14.792215349570908,30.435362783240592 L14.985685247926968,30.47947373996074 L15.171513601343833,30.52630501365902 L15.349252733041476,30.57574378369516 L15.518474453883535,30.627670947741816 L15.678771093922421,30.68196140871252 L15.829756484511961,30.738484376131506 L15.971066888621465,30.79710368121944 L16.102361877110102,30.857678104935918 L16.223325148850513,30.920061718188514 L16.333665292725957,30.98410423338874 L16.433116489665174,31.049651366508023 L16.52143915302384,31.116545208761423 L16.56135973007392,31.150446901627458 L16.59842050576978,31.184624607023743 L16.632599156085938,31.219057737578535 L16.663875093081458,31.253725552061525 L16.69222947730138,31.288607167877576 L16.71764522912489,31.323681573645636 L16.74010703905344,31.358927641855182 L16.759601376932643,31.39432414159266 L16.776116500102287,31.42984975133019 L16.78964246046972,31.465483071768855 L16.800171110502188,31.501202638728838 L16.8076961081346,31.53698693607864 L16.812212920589758,31.572814408695603 L16.813718827108737,31.608663475449884 " />
			<path d="M16.813718827108737,31.608663475449895 L16.81251654558461,31.640695805326015 L16.808910279204582,31.67271273045078 L16.80290176226762,31.704698853481176 L16.79449388434529,31.736638791887305 L16.783690688892104,31.768517185350035 L16.770497371300984,31.800318703147973 L16.75492027640471,31.83202805153021 L16.736966895424658,31.863629981071256 L16.71664586236811,31.895109294004712 L16.693966949876113,31.926450851532042 L16.641580241574573,31.98866048366434 L16.5799075321186,32.050139222269664 L16.509067443979312,32.11076881796414 L16.42919623233965,32.170432654621656 L16.340447523018543,32.22901597367552 L16.24299201698408,32.286406094847315 L16.137017162023973,32.34249263287828 L16.022726792204903,32.39716770984647 L15.90034073581418,32.45032616266116 L15.770094392537784,32.50186574533562 L15.63223828068811,32.551687325648935 " />
			<path d="M15.041552340299681,1.801928075883719 L14.479751401074274,2.3460676728111913 L13.866242729435237,2.901290653808573 L13.212925333120259,3.4568284627780628 L12.532470310539658,4.001906437529733 L11.83807509467707,4.5259527844785055 L11.143207488725059,5.018803618702279 L10.461344457887403,5.470900092606794 L9.805710743484068,5.873473789884578 L9.189022368941318,6.218716789050028 L8.623240012371205,6.499933098166331 L8.119337029082125,6.711668523686065 L7.68708662322649,6.849816454597743 L7.334872296393864,6.911697510193541 L7.069525249501288,6.8961115066889755 " />
			<path d="M15.041552339332672,1.801928076855873 L14.705630881610531,1.319810465741007 L14.348817765358937,0.8492349989260042 L13.973690668475099,0.3936011926408689 L13.582959572129099,-0.04379937795028255 L13.179447183404646,-0.4598068576412295 L12.766068543588874,-0.8514159385084845 L12.345809969424353,-1.2157975707606568 L11.921707479455236,-1.5503194002694265 L11.496824861319231,-1.8525647851379965 L11.074231538430988,-2.1203502539281764 L10.656980395951683,-2.351741279424857 L10.248085726233715,-2.545066253985649 L9.850501453066354,-2.698928565515285 L9.467099792034078,-2.812216686826043 " />
			<path d="M-34.008514615843715,-13.180619862208111 L-33.931758649197,-13.20579588363302 L-33.85504609113146,-13.228253335014793 L-33.77842032567899,-13.247979515762925 L-33.70192468778673,-13.264963269930124 L-33.62560243880951,-13.279194992521447 L-33.54949674204374,-13.290666634926314 L-33.473650638316876,-13.299371709470314 L-33.39810702164607,-13.305305293084253 L-33.32290861497991,-13.308464030088341 L-33.24809794603686,-13.308846134089965 L-33.173717323254124,-13.306451388993974 L-33.099808811860555,-13.301281149124875 L-33.02641421008703,-13.29333833846092 L-32.95357502552794,-13.28262744898047 L-32.8813324516669,-13.269154538121612 L-32.80972734458025,-13.25292722535642 " />
			<path d="M-32.809727344580246,-13.252927225356418 L-32.7365391159575,-13.233301467434929 L-32.664117077813664,-13.210763564393158 L-32.59250485447647,-13.185327092221147 L-32.52174558247151,-13.157007372898608 L-32.45188188453838,-13.125821465165512 L-32.382955843956346,-13.091788154246565 L-32.31500897919493,-13.054927940535677 L-32.248082218904784,-13.015263027247292 L-32.182215877263744,-12.972817307042012 L-32.11744962969312,-12.927616347634538 L-32.05382248895867,-12.87968737639265 L-31.99137278167082,-12.829059263936436 L-31.930138125198077,-12.77576250674774 L-31.870155405007797,-12.719829208800192 L-31.811460752447726,-12.661293062220999 L-31.754089522981825,-12.600189326996052 L-31.698076274893484,-12.536554809730635 L-31.643454748468876,-12.470427841478498 L-31.59025784567309,-12.401848254652675 L-31.538517610331212,-12.33085735903191 L-31.488265208826316,-12.257497916877206 L-31.439530911326013,-12.18181411717343 L-31.392344073548824,-12.103851549011523 L-31.346733119081392,-12.023657174127338 L-31.302725522257195,-11.941279298613647 L-31.260347791607,-11.856767543822349 L-31.219625453891148,-11.770172816474433 L-31.180583038723174,-11.681547277995667 L-31.143244063794086,-11.59094431309651 L-31.107631020706187,-11.498418497615155 L-31.07376536142497,-11.404025565643087 L-31.041667485357276,-11.307822375952941 L-31.011356727063426,-11.209866877748919 L-30.982851344610825,-11.110218075760347 L-30.956168508575978,-11.008935994699437 L-30.93132429170158,-10.906081643104638 L-30.908333659214883,-10.801716976591377 L-30.88721045981323,-10.69590486053232 L-30.867967417322088,-10.588709032189605 L-30.85061612303071,-10.48019406232192 L-30.83516702870998,-10.370425316289474 L-30.821629440316624,-10.259468914680362 L-30.810011512387693,-10.147391693481982 L-30.80032024312855,-10.03426116382155 L-30.786739867188988,-9.805113354943181 L-30.780921028813076,-9.572577525187814 L-30.78287774609213,-9.337213873737063 L-30.792605305122834,-9.099589412242697 L-30.810080271363454,-8.860276598845898 L-30.83526054608969,-8.619851959075463 L-30.868085467814193,-8.378894696947313 L-30.908475958425402,-8.137985299611284 L-30.95633471369365,-7.8977041389067235 L-31.011546437685567,-7.658630073195915 L-31.07397812052207,-7.421339052843568 L-31.143479358810847,-7.1864027327019535 L-31.219882717981267,-6.954387094944281 L-31.303004135648944,-6.725851085564076 L-31.39264336503814,-6.501345267825329 L-31.488584457393785,-6.281410495907364 L-31.59059628222095,-6.066576611939739 L-31.698433084098447,-5.857361169566156 L-31.811835074725163,-5.654268187112404 L-31.930529058772837,-5.457786933362055 L-31.991771670135375,-5.36217427732427 L-32.05422909203753,-5.268390748865122 L-32.11786370246379,-5.176492839675362 L-32.182637170304275,-5.086535905619202 L-32.248510478444,-4.998574133390012 L-32.315443947265294,-4.91266050787028 L-32.38339725854935,-4.8288467802155015 L-32.4523294797624,-4.747183436681219 L-32.5221990887119,-4.667719668211986 L-32.59296399855804,-4.59050334081059 L-32.66458158316518,-4.515580966705349 L-32.73700870277831,-4.442997676332901 L-32.81020173000881,-4.372797191153301 L-32.884116576113925,-4.305021797313851 L-32.95870871755423,-4.2397123201775235 L-33.033933222812884,-4.176908099731261 L-33.10974477946076,-4.11664696688906 L-33.186097721450906,-4.058965220704036 L-33.26294605662608,-4.003897606503232 L-33.34024349442273,-3.9514772949583303 L-33.41794347375465,-3.9017358621048857 L-33.49599919105969,-3.854703270322097 L-33.574363628492435,-3.81040785028459 L-33.65298958224601,-3.768876283897086 L-33.731829690985876,-3.73013358822221 L-33.810836464378575,-3.694203100411152 L-33.88996231169805,-3.661106463646246 L-33.96915957049258,-3.6308636141039132 L-34.048380535294854,-3.6034927689458653 L-34.127577486357936,-3.5790104153457643 L-34.20670271839987,-3.5574313005579645 L-34.28570856933955,-3.538768423034318 L-34.364547449006594,-3.5230330245943966 L-34.44317186780786,-3.510234583653837 L-34.52153446533344,-3.500380809514894 L-34.59958803888472,-3.4934776377226564 L-34.677285571907625,-3.4895292264896813 L-34.75458026231355,-3.4885379541912593 L-34.83142555067124,-3.490504417932754 L-34.90777514825241,-3.4954274331899375 L-34.98358306491437,-3.5033040345225066 L-35.05880363680277,-3.5141294773603384 L-35.13339155385778,-3.527897240861461 L-35.207301887107164,-3.544599031839943 " />
			<path d="M-35.20730188710719,-3.544599031839949 L-35.27166554242622,-3.5616924894975064 L-35.33544146698604,-3.5810365849365198 L-35.39859998652385,-3.6026223175540855 L-35.46111171404887,-3.6264396437372435 L-35.52294756351578,-3.652477481536158 L-35.58407876335819,-3.6807237158204416 L-35.644476869875724,-3.7111652039161873 L-35.70411378046856,-3.7437877817211236 L-35.76296174671329,-3.778576270295016 L-35.82099338727395,-3.8155144829222722 L-35.878181700642315,-3.854585232643444 L-35.93450007770133,-3.895770340252141 L-35.98992231410614,-3.939050642753622 L-36.04442262247663,-3.9844060022811343 L-36.097975644396044,-4.031815315465852 L-36.15055646220999,-4.081256523256042 L-36.202140610620376,-4.132706621180922 L-36.25270408806881,-4.186141670054378 L-36.30222336790431,-4.241536807113634 L-36.350675409329995,-4.298866257587619 L-36.39803766812371,-4.358103346689698 L-36.444288107127655,-4.419220512029174 L-36.533367973737775,-4.54698046119114 L-36.61774923676855,-4.68190835132336 L-36.69727486765306,-4.823753089559175 L-36.771796873870144,-4.972250711184477 L-36.84117657434987,-5.12712487086051 L-36.905284857550775,-5.288087356886295 L-36.96400242172886,-5.45483862754365 L-37.017219996951134,-5.6270683685267056 L-37.06483854844055,-5.804456070418585 L-37.106769460873835,-5.986671625140557 L-37.14293470328947,-6.173375940263768 L-37.17326697429867,-6.364221570040302 L-37.19770982732933,-6.558853361979274 L-37.21621777566975,-6.756909117764732 L-37.22875637711677,-6.958020267285411 L-37.23530229807066,-7.161812554522033 L-37.235843356957574,-7.367906734015747 L-37.23037854689875,-7.5759192766216135 L-37.21891803758425,-7.785463083233782 L-37.20148315634776,-7.9961482051541655 L-37.178106348477705,-8.207582569764023 L-37.148831116838416,-8.419372710148036 L-37.11371194091392,-8.631124497313106 L-37.0728141754248,-8.84244387363921 L-37.026213928706895,-9.052937586197471 L-36.97399792107817,-9.262213918570708 L-36.91626332345732,-9.469883419814655 L-36.85311757653439,-9.675559629203264 L-36.784678190829965,-9.87885979540937 L-36.711072528015045,-10.079405588782414 L-36.63243756389839,-10.276823805397651 L-36.548919633522694,-10.470747061566712 L-36.46067415884358,-10.66081447751703 L-36.36786535949857,-10.846672348967882 L-36.27066594720394,-11.027974805353226 L-36.1692568043484,-11.204384453466506 L-36.063826647381596,-11.375573005329548 L-35.954571675623924,-11.54122188911717 L-35.84169520615111,-11.701022842000624 L-35.72540729543309,-11.854678483806584 L-35.6059243484313,-12.00190287042415 L-35.483468715881756,-12.142422025930017 L-35.35826828051341,-12.275974452441567 L-35.230556032971805,-12.402311616749024 L-35.10056963823719,-12.521198412821157 L-34.96855099334396,-12.632413599323767 L-34.83474577722451,-12.735750211336795 L-34.699402993515214,-12.83101594550386 L-34.56277450717526,-12.918033517897506 L-34.425114575780825,-12.996640993934154 L-34.28667937636665,-13.066692089724828 L-34.21725151406607,-13.098467628398097 L-34.14772652869565,-13.128056444300888 L-34.07813676949535,-13.155444770070279 L-34.00851461584373,-13.180619862208108 " />
			<path d="M6.813718827108738,31.608663475449895 L6.813718827108738,6.832937399477309 " />
			<path d="M6.813718827108738,-3.46749723836108 L6.813718827108738,-25.773617327869246 " />
			<path d="M16.813718827108737,31.608663475449895 L16.813718827108737,-25.773617327869246 " />
			<path d="M-32.80972734458024,-13.252927225356418 L9.467099785026768,-2.812216688556577 " />
			<path d="M-35.207301887107185,-3.5445990318399496 L7.069525242503101,6.896111504960701 " />

        </g>
        </g>
    </svg>
    