<?xml version="1.0" encoding="UTF-8" standalone="no"?>
    <svg
    xmlns:svg="http://www.w3.org/2000/svg"
    xmlns="http://www.w3.org/2000/svg"
    width="236"
    height="261"
    >
        <g transform="scale(4, -4)   translate(39.73634812807356,-35.56943251236756)" stroke-width="0.25"  fill="none">
        <!-- hidden lines -->
        <g  stroke="rgb(160,160,160)" fill="none" stroke-dasharray="0.25,0.25" >
    			<path d="M15.632238280680077,-24.83059347767474 L15.506441217938775,-24.788759894945557 L15.375278134061988,-24.74835744221782 L15.238939626610478,-24.709444829676674 L15.097623813729923,-24.672078602569563 L14.951536046258656,-24.636313059038397 L14.80088860932535,-24.602200171217063 L14.645900413870233,-24.56978950970895 L14.48679667853813,-24.539128171554193 L14.323808602405537,-24.510260711791375 L14.157173029017349,-24.48322907871305 L13.987132102221405,-24.45807255290929 L13.813932914300995,-24.434827690187664 L13.637827146916594,-24.413528268452776 L13.459070705378668,-24.39420523862244 L13.277923346782892,-24.37688667965182 L13.094648302548253,-24.36159775773097 L12.909511895906473,-24.348360689714948 L12.722783154898611,-24.337194710839785 L12.534733421441226,-24.328116046771065 L12.345635957030163,-24.32113789002589 L12.155765545654928,-24.316270380802365 L11.965398094500683,-24.313520592244526 L11.774810233018085,-24.312892520164123 L11.584278910943572,-24.314387077234166 L11.394080995854237,-24.31800209166269 L11.204492870842083,-24.323732310348653 L11.015790032892308,-24.331569406515406 L10.828246692549222,-24.341501991810613 L10.64213537545152,-24.35351563285505 L10.457726526315975,-24.367592872216253 L10.275288115944965,-24.383713253776495 L10.095085251828941,-24.40185335245829 L9.917379792909676,-24.42198680826415 L9.742429969064082,-24.444084364581222 L9.570490005861545,-24.468113910695045 L9.40180975514007,-24.494040528450764 L9.23663433193802,-24.52182654299385 L9.07520375830909,-24.551431577516762 L8.917752614538049,-24.582812611931836 L8.7645096982641,-24.615924045385253 L8.615697692007231,-24.650717762521204 L8.471532839580618,-24.687143203399962 L8.332224631859347,-24.72514743696824 L8.197975502362072,-24.764675237975133 L8.068980533087935,-24.805669167221804 L7.945427171036264,-24.84806965502836 L7.827494955820914,-24.891815087796587 L7.715355258775124,-24.93684189754276 L7.609171033925974,-24.983084654270474 L7.509096581200318,-25.0304761610492 L7.415277322206283,-25.07894755166044 L7.327849588916164,-25.128428390669587 L7.2469404255577725,-25.178846775778062 L7.172667404002125,-25.230129442306993 L7.105138452915737,-25.282201869660636 L7.044451700925795,-25.334988389614804 L6.990695334026088,-25.38841229627293 L6.9439474674309265,-25.442395957530046 L6.904276032063255,-25.496860927882643 L6.871738675841906,-25.551728062420505 L6.8463826799114385,-25.606917631834904 L6.82824488993629,-25.662349438275957 L6.817351662559083,-25.717942931890885 L6.813718827100885,-25.773617327873744 " />
			<path d="M16.813718827100885,-25.77361732787375 L16.81251654557676,-25.741584997997634 L16.808910279196727,-25.70956807287287 L16.802901762259765,-25.677581949842473 L16.794493884337435,-25.645642011436344 L16.78369068888425,-25.613763617973614 L16.770497371293125,-25.581962100175677 L16.754920276396852,-25.550252751793444 L16.736966895416792,-25.518650822252397 L16.716645862360245,-25.48717150931894 L16.693966949868244,-25.45582995179161 L16.641580241566697,-25.393620319659313 L16.579907532110713,-25.332141581053992 L16.50906744397141,-25.271511985359513 L16.429196232331737,-25.211848148702 L16.340447523010617,-25.153264829648137 L16.24299201697614,-25.095874708476344 L16.137017162016015,-25.03978817044538 L16.02272679219693,-24.985113093477196 L15.90034073580619,-24.931954640662507 L15.77009439252977,-24.880415057988053 L15.632238280680077,-24.83059347767474 " />
			<path d="M7.995199373521695,-2.8073575100229036 L7.838264733215638,-2.7442697932430598 L7.6913168218276375,-2.66695909986284 L7.554724786861714,-2.575619641894008 L7.428831760848982,-2.4704808729749956 L7.313953999365227,-2.351806911960953 L7.210380086566007,-2.2198958794313874 L7.118370210235078,-2.075079148782155 L7.038155508167268,-1.9177205137831415 L6.969937487527766,-1.748215274692761 L6.913887518646441,-1.5669892452251268 L6.870146404518841,-1.3744976828643942 L6.838824027095319,-1.1712241452135288 L6.819999071246834,-0.95767927525036 L6.813718827100886,-0.7343995185425682 " />
			<path d="M6.813718827100886,-0.7343995185425634 L6.823348582410683,-0.44525021712887636 L6.852200755468548,-0.14314784213136988 L6.900164210527777,0.17074393766986518 L6.967054197053924,0.49521604186131185 L7.052613061365777,0.8290186356554727 L7.156511239092113,1.1708659441320997 L7.278348524621406,1.519441204917392 L7.41765561265467,1.8734017402237413 L7.573895905923539,2.2313841287131844 L7.74646758211042,2.5920094572629218 L7.934705912009165,2.9538886324037357 L8.137885819996905,3.3156277309720465 L8.355224676954386,3.6758333693655274 L8.585885314876728,4.033118070720354 " />
			<path d="M7.069525249492143,6.896111506684413 L7.034548507986354,6.886117721499453 L7.0020882102147315,6.874034296383762 L6.972161447954188,6.859867593793005 L6.9447839789635735,6.843625073120272 L6.91997021868651,6.825315286768294 L6.897733232661028,6.804947875646306 L6.878084729639992,6.782533564093583 L6.861035055425917,6.758084154232719 L6.846593187423453,6.731612519755181 L6.834766729912385,6.703132599142805 L6.8255619100436435,6.672659388328583 L6.818983574560436,6.640208932800597 L6.815035187246224,6.605798319153379 L6.813718827100885,6.569445666091099 " />
			<path d="M6.813718827100885,6.569445666091092 L6.823348582412028,6.461530484890567 L6.852200755471025,6.339964134013762 L6.900164210531171,6.205214875145877 L6.967054197058022,6.0578017492434455 L7.0526130613703595,5.89829257723931 L7.156511239096965,5.727301772851998 L7.278348524626319,5.5454879759242175 L7.417655612659435,5.353551515406625 L7.573895905927955,5.152231711759271 L7.746467582114297,4.94230402916153 L7.934705912012319,4.724577088500013 L8.137885819999163,4.499889552640024 L8.355224676955586,4.269106895978307 L8.585885314876704,4.033118070720397 " />
			<path d="M9.467099792025223,-2.812216686830542 L9.347982278905683,-2.8397319047824574 L9.23068609203242,-2.862994503123943 L9.115297872706961,-2.881987298842901 L9.001902852902903,-2.8966962628341797 L8.890584792308974,-2.9071105302622016 L8.781425916459607,-2.913222408586325 L8.674506855998715,-2.9150273832429683 L8.569906587121537,-2.9125241209803328 L8.467702373238563,-2.9057144708431792 L8.36796970790459,-2.8946034628070514 L8.270782259055121,-2.879199304062844 L8.176211814591225,-2.8595133729545417 L8.084328229353135,-2.8355602105745596 L7.995199373521724,-2.807357510022913 " />
			<path d="M6.813718827100885,6.83293739947306 L6.813718827100885,6.569445656272954 " />
			<path d="M6.813718827100885,-0.7343995087834578 L6.813718827100885,-3.467497238365336 " />

        </g>

        <!-- solid lines -->
        <g  stroke="rgb(0,0,0)" fill="none">
    			<path d="M6.813718827100885,-25.77361732787375 L6.815224733619864,-25.80946639462804 L6.819741546075023,-25.845293867244997 L6.8272665437074345,-25.881078164594797 L6.837795193739901,-25.916797731554777 L6.851321154107335,-25.95243105199344 L6.8678362772769805,-25.987956661730966 L6.887330615156179,-26.023353161468442 L6.909792425084733,-26.058599229677984 L6.935208176908242,-26.093673635446038 L6.963562561128166,-26.12855525126209 L6.994838498123686,-26.163223065745072 L7.029017148439841,-26.19765619629986 L7.066077924135703,-26.231833901696145 L7.105998501185782,-26.265735594562177 L7.194321164544452,-26.33262943681557 L7.293772361483669,-26.398176569934844 L7.40411250535911,-26.462219085135068 L7.5250757770995245,-26.524602698387653 L7.656370765588159,-26.585177122104124 L7.797681169697662,-26.643796427192054 L7.948666560287201,-26.700319394611036 L8.10896320032609,-26.75460985558173 L8.278184921168148,-26.806537019628383 L8.455924052865793,-26.85597578966452 L8.64175240628266,-26.902807063362793 L8.83522230463872,-26.94691802008294 L9.035867662002875,-26.988202392666548 L9.243205106134777,-27.026560723443982 L9.456735142970896,-27.06190060383661 L9.675943359949473,-27.094136896977155 L9.900301665275434,-27.123191942811875 L10.129269560139782,-27.148995745190437 L10.362295440828568,-27.171486140492757 L10.59881792758456,-27.190608947386632 L10.838267217020242,-27.206318097355297 L11.080066454824077,-27.21857574568051 L11.323633125453084,-27.227352362613818 L11.568380455463796,-27.23262680451629 L11.813718827100884,-27.234386364795387 L12.059057198737973,-27.23262680451629 L12.303804528748685,-27.227352362613818 L12.547371199377691,-27.21857574568051 L12.789170437181527,-27.206318097355297 L13.028619726617208,-27.190608947386632 L13.265142213373199,-27.171486140492757 L13.498168094061988,-27.148995745190437 L13.727135988926335,-27.123191942811875 L13.951494294252296,-27.094136896977155 L14.170702511230873,-27.061900603836612 L14.384232548066993,-27.026560723443982 L14.591569992198895,-26.988202392666548 L14.79221534956305,-26.94691802008294 L14.98568524791911,-26.902807063362797 L15.171513601335974,-26.85597578966452 L15.349252733033623,-26.806537019628383 L15.518474453875683,-26.75460985558173 L15.678771093914571,-26.700319394611032 L15.82975648450411,-26.64379642719205 L15.971066888613612,-26.585177122104124 L16.102361877102247,-26.524602698387653 L16.223325148842658,-26.462219085135068 L16.333665292718102,-26.398176569934847 L16.433116489657316,-26.33262943681557 L16.521439153015987,-26.265735594562177 L16.561359730066066,-26.231833901696145 L16.59842050576193,-26.19765619629986 L16.632599156078083,-26.163223065745076 L16.663875093073603,-26.12855525126209 L16.692229477293527,-26.093673635446038 L16.717645229117036,-26.058599229677984 L16.74010703904559,-26.023353161468442 L16.759601376924792,-25.987956661730966 L16.776116500094435,-25.952431051993436 L16.78964246046187,-25.916797731554777 L16.800171110494336,-25.881078164594797 L16.80769610812675,-25.845293867244997 L16.812212920581906,-25.80946639462804 L16.813718827100885,-25.773617327873765 " />
			<path d="M15.632238280680077,32.551687325644934 L15.506441217938775,32.59352090837412 L15.375278134061988,32.63392336110186 L15.238939626610478,32.672835973643004 L15.097623813729923,32.71020220075011 L14.951536046258656,32.74596774428128 L14.80088860932535,32.78008063210261 L14.645900413870233,32.81249129361072 L14.48679667853813,32.84315263176548 L14.323808602405537,32.8720200915283 L14.157173029017349,32.89905172460662 L13.987132102221405,32.92420825041038 L13.813932914300995,32.94745311313201 L13.637827146916594,32.968752534866894 L13.459070705378668,32.98807556469723 L13.277923346782892,33.005394123667855 L13.094648302548253,33.020683045588704 L12.909511895906473,33.03392011360472 L12.722783154898611,33.04508609247989 L12.534733421441226,33.05416475654861 L12.345635957030163,33.06114291329378 L12.155765545654928,33.06601042251731 L11.965398094500683,33.06876021107515 L11.774810233018085,33.069388283155554 L11.584278910943572,33.06789372608551 L11.394080995854237,33.06427871165698 L11.204492870842083,33.05854849297102 L11.015790032892308,33.05071139680427 L10.828246692549222,33.040778811509064 L10.64213537545152,33.028765170464624 L10.457726526315975,33.014687931103424 L10.275288115944965,32.998567549543175 L10.095085251828941,32.980427450861384 L9.917379792909676,32.96029399505552 L9.742429969064082,32.93819643873845 L9.570490005861545,32.91416689262463 L9.40180975514007,32.88824027486891 L9.23663433193802,32.860454260325824 L9.07520375830909,32.83084922580291 L8.917752614538049,32.79946819138784 L8.7645096982641,32.766356757934425 L8.615697692007231,32.73156304079847 L8.471532839580618,32.69513759991971 L8.332224631859347,32.65713336635143 L8.197975502362072,32.61760556534454 L8.068980533087935,32.57661163609787 L7.945427171036264,32.53421114829131 L7.827494955820914,32.49046571552309 L7.715355258775124,32.44543890577692 L7.609171033925974,32.3991961490492 L7.509096581200318,32.35180464227047 L7.415277322206283,32.30333325165923 L7.327849588916164,32.25385241265008 L7.2469404255577725,32.20343402754161 L7.172667404002125,32.152151361012685 L7.105138452915737,32.100078933659034 L7.044451700925795,32.04729241370487 L6.990695334026088,31.993868507046745 L6.9439474674309265,31.939884845789628 L6.904276032063255,31.88541987543703 L6.871738675841906,31.83055274089917 L6.8463826799114385,31.77536317148477 L6.82824488993629,31.719931365043717 L6.817351662559083,31.66433787142879 L6.813718827100885,31.60866347544593 " />
			<path d="M6.813718827100885,31.608663475445923 L6.815224733619864,31.572814408691634 L6.819741546075023,31.536986936074676 L6.8272665437074345,31.501202638724877 L6.837795193739901,31.465483071764897 L6.851321154107335,31.429849751326234 L6.8678362772769805,31.394324141588708 L6.887330615156179,31.35892764185123 L6.909792425084733,31.32368157364169 L6.935208176908242,31.288607167873636 L6.963562561128166,31.253725552057585 L6.994838498123686,31.2190577375746 L7.029017148439841,31.184624607019813 L7.066077924135703,31.15044690162353 L7.105998501185782,31.116545208757497 L7.194321164544452,31.049651366504104 L7.293772361483669,30.98410423338483 L7.40411250535911,30.920061718184606 L7.5250757770995245,30.85767810493202 L7.656370765588159,30.79710368121555 L7.797681169697662,30.73848437612762 L7.948666560287201,30.681961408708638 L8.10896320032609,30.627670947737943 L8.278184921168148,30.57574378369129 L8.455924052865793,30.526305013655154 L8.64175240628266,30.47947373995688 L8.83522230463872,30.435362783236734 L9.035867662002875,30.394078410653126 L9.243205106134777,30.35572007987569 L9.456735142970896,30.320380199483065 L9.675943359949473,30.28814390634252 L9.900301665275434,30.2590888605078 L10.129269560139782,30.233285058129237 L10.362295440828568,30.210794662826917 L10.59881792758456,30.19167185593304 L10.838267217020242,30.175962705964377 L11.080066454824077,30.163705057639163 L11.323633125453084,30.154928440705856 L11.568380455463796,30.149653998803384 L11.813718827100884,30.147894438524286 L12.059057198737973,30.149653998803384 L12.303804528748685,30.154928440705856 L12.547371199377691,30.163705057639163 L12.789170437181527,30.175962705964377 L13.028619726617208,30.19167185593304 L13.265142213373199,30.210794662826917 L13.498168094061988,30.233285058129237 L13.727135988926335,30.2590888605078 L13.951494294252296,30.28814390634252 L14.170702511230873,30.32038019948306 L14.384232548066993,30.35572007987569 L14.591569992198895,30.394078410653126 L14.79221534956305,30.435362783236734 L14.98568524791911,30.479473739956877 L15.171513601335974,30.526305013655154 L15.349252733033623,30.57574378369129 L15.518474453875683,30.627670947737943 L15.678771093914571,30.68196140870864 L15.82975648450411,30.738484376127623 L15.971066888613612,30.79710368121555 L16.102361877102247,30.85767810493202 L16.223325148842658,30.920061718184606 L16.333665292718102,30.984104233384826 L16.433116489657316,31.049651366504104 L16.521439153015987,31.116545208757497 L16.561359730066066,31.15044690162353 L16.59842050576193,31.184624607019813 L16.632599156078083,31.219057737574598 L16.663875093073603,31.253725552057585 L16.692229477293527,31.288607167873636 L16.717645229117036,31.32368157364169 L16.74010703904559,31.35892764185123 L16.759601376924792,31.394324141588708 L16.776116500094435,31.429849751326238 L16.78964246046187,31.465483071764897 L16.800171110494336,31.501202638724877 L16.80769610812675,31.536986936074676 L16.812212920581906,31.572814408691634 L16.813718827100885,31.60866347544591 " />
			<path d="M16.813718827100885,31.608663475445923 L16.81251654557676,31.64069580532204 L16.808910279196727,31.672712730446804 L16.802901762259765,31.7046988534772 L16.794493884337435,31.73663879188333 L16.78369068888425,31.76851718534606 L16.770497371293125,31.800318703143997 L16.754920276396852,31.83202805152623 L16.736966895416792,31.863629981067277 L16.716645862360245,31.895109294000733 L16.693966949868244,31.926450851528063 L16.641580241566697,31.98866048366036 L16.579907532110713,32.050139222265685 L16.50906744397141,32.110768817960164 L16.429196232331737,32.17043265461768 L16.340447523010617,32.22901597367154 L16.24299201697614,32.28640609484333 L16.137017162016015,32.3424926328743 L16.02272679219693,32.39716770984248 L15.90034073580619,32.45032616265717 L15.77009439252977,32.50186574533162 L15.632238280680077,32.551687325644934 " />
			<path d="M15.041552339962658,1.8019280762107819 L14.479751400727586,2.3460676731242884 L13.866242729089972,2.901290654100581 L13.212925332786442,3.456828463043209 L12.532470310225982,4.001906437763704 L11.838075094390685,4.52595278467852 L11.14320748847141,5.0188036188671035 L10.46134445767012,5.470900092736709 L9.805710743304921,5.873473789981315 L9.189022368800224,6.21871678911663 L8.623240012266303,6.499933098207009 L8.119337029009888,6.711668523706045 L7.687086623181907,6.849816454602966 L7.334872296370652,6.911697510190493 L7.069525249492152,6.896111506684414 " />
			<path d="M15.041552339325033,1.8019280768518016 L14.705630881602827,1.319810465736822 L14.348817765351157,0.8492349989217161 L13.973690668467235,0.39360119263647775 L13.582959572121142,-0.04379937795476607 L13.179447183396592,-0.45980685764578766 L12.766068543580719,-0.8514159385131066 L12.345809969416099,-1.2157975707653321 L11.921707479446882,-1.5503194002741303 L11.49682486131078,-1.852564785142718 L11.074231538422445,-2.120350253932891 L10.656980395943057,-2.3517412794295467 L10.248085726225016,-2.5450662539902886 L9.85050145305759,-2.6989285655198607 L9.467099792025264,-2.81221668683053 " />
			<path d="M-34.008514615849414,-13.180619862212017 L-33.9317586492027,-13.20579588363692 L-33.85504609113716,-13.228253335018689 L-33.77842032568468,-13.247979515766815 L-33.70192468779242,-13.264963269934011 L-33.6256024388152,-13.27919499252533 L-33.549496742049435,-13.290666634930192 L-33.47365063832257,-13.29937170947419 L-33.39810702165176,-13.305305293088125 L-33.3229086149856,-13.308464030092209 L-33.24809794604255,-13.308846134093832 L-33.173717323259815,-13.30645138899784 L-33.09980881186624,-13.301281149128737 L-33.026414210092724,-13.293338338464782 L-32.95357502553363,-13.282627448984329 L-32.881332451672584,-13.26915453812547 L-32.80972734458594,-13.252927225360278 " />
			<path d="M-32.80972734458592,-13.252927225360274 L-32.736539115963176,-13.233301467438785 L-32.664117077819334,-13.210763564397011 L-32.59250485448214,-13.185327092225 L-32.52174558247717,-13.15700737290246 L-32.451881884544036,-13.125821465169361 L-32.382955843961994,-13.091788154250413 L-32.31500897920058,-13.054927940539523 L-32.248082218910426,-13.015263027251137 L-32.18221587726938,-12.972817307045855 L-32.11744962969875,-12.92761634763838 L-32.05382248896429,-12.879687376396488 L-31.991372781676436,-12.829059263940273 L-31.93013812520369,-12.775762506751576 L-31.870155405013406,-12.719829208804029 L-31.81146075245333,-12.661293062224834 L-31.754089522987424,-12.600189326999885 L-31.69807627489908,-12.536554809734465 L-31.643454748474465,-12.47042784148233 L-31.590257845678675,-12.401848254656503 L-31.538517610336793,-12.330857359035738 L-31.48826520883189,-12.257497916881032 L-31.439530911331584,-12.181814117177254 L-31.39234407355439,-12.103851549015346 L-31.346733119086956,-12.023657174131161 L-31.30272552226275,-11.941279298617467 L-31.260347791612553,-11.856767543826168 L-31.219625453896697,-11.770172816478253 L-31.18058303872872,-11.681547277999485 L-31.143244063799628,-11.590944313100326 L-31.10763102071172,-11.498418497618971 L-31.073765361430503,-11.4040255656469 L-31.041667485362805,-11.307822375956754 L-31.011356727068954,-11.20986687775273 L-30.98285134461635,-11.110218075764159 L-30.9561685085815,-11.008935994703247 L-30.931324291707096,-10.906081643108447 L-30.908333659220396,-10.801716976595186 L-30.88721045981874,-10.695904860536125 L-30.867967417327595,-10.58870903219341 L-30.850616123036218,-10.480194062325724 L-30.835167028715478,-10.370425316293279 L-30.821629440322123,-10.259468914684163 L-30.810011512393192,-10.147391693485785 L-30.800320243134045,-10.034261163825354 L-30.78673986719448,-9.805113354946982 L-30.78092102881856,-9.572577525191614 L-30.78287774609761,-9.337213873740863 L-30.792605305128316,-9.099589412246495 L-30.810080271368932,-8.860276598849696 L-30.835260546095167,-8.61985195907926 L-30.868085467819668,-8.378894696951109 L-30.908475958430877,-8.13798529961508 L-30.95633471369913,-7.89770413891052 L-31.01154643769104,-7.658630073199712 L-31.07397812052755,-7.421339052847365 L-31.143479358816325,-7.186402732705751 L-31.219882717986746,-6.954387094948079 L-31.303004135654426,-6.725851085567875 L-31.392643365043625,-6.501345267829128 L-31.488584457399277,-6.281410495911166 L-31.590596282226446,-6.066576611943541 L-31.698433084103947,-5.857361169569959 L-31.811835074730666,-5.654268187116208 L-31.930529058778347,-5.4577869333658615 L-31.99177167014089,-5.362174277328077 L-32.05422909204305,-5.26839074886893 L-32.11786370246931,-5.176492839679171 L-32.182637170309796,-5.086535905623013 L-32.24851047844952,-4.998574133393824 L-32.31544394727082,-4.912660507874093 L-32.383397258554886,-4.8288467802193145 L-32.45232947976793,-4.747183436685032 L-32.52219908871744,-4.667719668215801 L-32.59296399856358,-4.590503340814406 L-32.66458158317073,-4.515580966709166 L-32.73700870278387,-4.44299767633672 L-32.81020173001436,-4.372797191157121 L-32.88411657611949,-4.305021797317673 L-32.958708717559794,-4.239712320181345 L-33.033933222818455,-4.176908099735084 L-33.10974477946633,-4.116646966892885 L-33.186097721456484,-4.058965220707862 L-33.26294605663166,-4.00389760650706 L-33.340243494428314,-3.95147729496216 L-33.41794347376024,-3.9017358621087173 L-33.49599919106529,-3.8547032703259285 L-33.574363628498034,-3.8104078502884233 L-33.652989582251614,-3.768876283900921 L-33.73182969099149,-3.730133588226046 L-33.81083646438419,-3.69420310041499 L-33.88996231170367,-3.6611064636500847 L-33.969159570498206,-3.6308636141077546 L-34.04838053530049,-3.6034927689497085 L-34.12757748636358,-3.5790104153496083 L-34.20670271840551,-3.5574313005618103 L-34.285708569345196,-3.5387684230381655 L-34.36454744901224,-3.523033024598245 L-34.44317186781352,-3.510234583657687 L-34.5215344653391,-3.500380809518746 L-34.59958803889039,-3.4934776377265093 L-34.6772855719133,-3.489529226493536 L-34.75458026231924,-3.488537954195116 L-34.831425550676926,-3.490504417936612 L-34.907775148258104,-3.4954274331937976 L-34.98358306492007,-3.5033040345263675 L-35.05880363680848,-3.514129477364202 L-35.13339155386349,-3.527897240865326 L-35.20730188711288,-3.5445990318438083 " />
			<path d="M-35.207301887112905,-3.5445990318438154 L-35.27166554243194,-3.5616924895013744 L-35.33544146699177,-3.5810365849403896 L-35.39859998652958,-3.602622317557957 L-35.4611117140546,-3.626439643741115 L-35.52294756352152,-3.652477481540033 L-35.584078763363934,-3.6807237158243176 L-35.64447686988147,-3.711165203920064 L-35.704113780474316,-3.743787781725003 L-35.76296174671904,-3.778576270298897 L-35.82099338727972,-3.8155144829261554 L-35.878181700648085,-3.854585232647329 L-35.934500077707106,-3.8957703402560275 L-35.98992231411192,-3.9390506427575094 L-36.044422622482415,-3.9844060022850236 L-36.09797564440183,-4.031815315469744 L-36.15055646221579,-4.0812565232599365 L-36.202140610626174,-4.132706621184816 L-36.252704088074616,-4.186141670058276 L-36.302223367910116,-4.241536807117533 L-36.35067540933581,-4.298866257591519 L-36.39803766812953,-4.358103346693602 L-36.444288107133474,-4.419220512033079 L-36.53336797374361,-4.546980461195048 L-36.617749236774394,-4.681908351327273 L-36.6972748676589,-4.823753089563093 L-36.771796873876,-4.972250711188398 L-36.841176574355735,-5.127124870864434 L-36.90528485755664,-5.288087356890223 L-36.964002421734726,-5.454838627547581 L-37.01721999695701,-5.627068368530643 L-37.06483854844643,-5.804456070422524 L-37.106769460879725,-5.9866716251445 L-37.14293470329537,-6.173375940267716 L-37.17326697430457,-6.3642215700442515 L-37.197709827335224,-6.558853361983227 L-37.21621777567565,-6.756909117768688 L-37.22875637712268,-6.9580202672893705 L-37.23530229807657,-7.161812554525997 L-37.235843356963485,-7.367906734019714 L-37.23037854690466,-7.575919276625582 L-37.218918037590164,-7.785463083237753 L-37.20148315635368,-7.996148205158139 L-37.17810634848362,-8.207582569767997 L-37.148831116844335,-8.419372710152013 L-37.113711940919835,-8.631124497317082 L-37.072814175430715,-8.84244387364319 L-37.02621392871281,-9.052937586201452 L-36.97399792108408,-9.262213918574687 L-36.91626332346323,-9.469883419818636 L-36.853117576540285,-9.675559629207246 L-36.78467819083586,-9.878859795413355 L-36.711072528020935,-10.079405588786399 L-36.63243756390428,-10.276823805401634 L-36.54891963352857,-10.470747061570695 L-36.46067415884946,-10.660814477521011 L-36.36786535950444,-10.846672348971861 L-36.27066594720981,-11.027974805357205 L-36.169256804354255,-11.204384453470485 L-36.063826647387444,-11.375573005333521 L-35.954571675629765,-11.541221889121141 L-35.84169520615694,-11.701022842004594 L-35.72540729543891,-11.854678483810552 L-35.605924348437114,-12.001902870428113 L-35.48346871588756,-12.142422025933978 L-35.35826828051921,-12.275974452445523 L-35.230556032977596,-12.402311616752975 L-35.10056963824297,-12.521198412825106 L-34.96855099334973,-12.63241359932771 L-34.834745777230275,-12.735750211340733 L-34.69940299352096,-12.831015945507794 L-34.562774507181004,-12.918033517901435 L-34.42511457578656,-12.996640993938074 L-34.286679376372376,-13.066692089728743 L-34.21725151407179,-13.098467628402013 L-34.14772652870136,-13.1280564443048 L-34.07813676950106,-13.155444770074185 L-34.00851461584943,-13.180619862212012 " />
			<path d="M6.813718827100885,31.608663475445923 L6.813718827100885,6.83293739947306 " />
			<path d="M6.813718827100885,-3.467497238365336 L6.813718827100885,-25.77361732787375 " />
			<path d="M16.813718827100885,31.608663475445923 L16.813718827100885,-25.77361732787375 " />
			<path d="M-32.80972734458592,-13.252927225360274 L9.46709978501869,-2.81221668856088 " />
			<path d="M-35.207301887112905,-3.5445990318438163 L7.069525242494955,6.896111504956378 " />

        </g>
        </g>
    </svg>
    