<?xml version="1.0" encoding="UTF-8" standalone="no"?>
    <svg
    xmlns:svg="http://www.w3.org/2000/svg"
    xmlns="http://www.w3.org/2000/svg"
    width="430"
    height="204"
    >
        <g transform="scale(4, -4)   translate(65.82547033308353,-29.31671325907502)" stroke-width="0.25"  fill="none">
        <!-- hidden lines -->
        <g  stroke="rgb(160,160,160)" fill="none" stroke-dasharray="0.25,0.25" >
    			<path d="M13.363718409010199,20.02849920875454 L13.363718409010199,20.912988382586928 " />
			<path d="M13.363718409010199,20.02849920875454 L6.332118743071498,19.68041672914502 " />
			<path d="M14.109778820753624,16.747831036559475 L13.363718409010197,20.02849920875454 " />
			<path d="M-31.807751671091665,24.16324573757785 L-31.807751671091665,26.81671325907502 " />
			<path d="M-31.807751671091665,24.16324573757785 L-35.825321260189995,19.941989231940006 " />
			<path d="M-22.760147866948138,22.288805594977074 L-31.80775167109166,24.163245737577846 " />
			<path d="M-53.03574561175146,10.748389591519615 L-53.03574561175146,15.170835460681566 " />
			<path d="M-45.5443128276168,5.947608261853808 L-53.03574561175146,10.748389591519617 " />
			<path d="M-53.03574561175146,10.748389591519615 L-63.32547033308354,7.253181350626641 " />
			<path d="M-33.14927207203482,-6.8242556145993545 L-33.14927207203482,-0.6328313977726241 " />
			<path d="M-31.507939166199286,-14.041725593428488 L-33.14927207203482,-6.824255614599354 " />
			<path d="M-33.14927207203482,-6.8242556145993545 L-48.61879133709996,-7.590037069740292 " />
			<path d="M-5.220427962995675,-8.056865117397688 L-5.220427962995675,-0.09646255290617667 " />
			<path d="M11.582264816127998,-11.53796823937056 L-5.2204279629956725,-8.056865117397692 " />
			<path d="M-5.220427962995675,-8.056865117397688 L-12.681628628464013,-15.896341485010822 " />
			<path d="M26.924385058277608,7.711172387159954 L26.924385058277608,17.440553299316246 " />
			<path d="M39.410106365168716,-0.29012982894972383 L26.92438505827761,7.711172387159953 " />
			<path d="M26.924385058277608,7.711172387159954 L9.774843856057487,1.8858253190049967 " />

        </g>

        <!-- solid lines -->
        <g  stroke="rgb(0,0,0)" fill="none">
    			<path d="M6.332118743071499,19.68041672914502 L6.332118743071499,20.564905902977408 " />
			<path d="M13.363718409010199,20.912988382586928 L6.332118743071498,20.564905902977408 " />
			<path d="M7.078179154814924,16.39974855694996 L7.078179154814924,17.284237730782348 " />
			<path d="M6.332118743071499,19.68041672914502 L7.078179154814925,16.39974855694996 " />
			<path d="M6.332118743071499,20.56490590297741 L7.078179154814925,17.28423773078235 " />
			<path d="M14.109778820753624,16.747831036559475 L14.109778820753624,17.632320210391864 " />
			<path d="M7.078179154814924,16.39974855694996 L14.109778820753624,16.747831036559475 " />
			<path d="M7.078179154814924,17.284237730782348 L14.109778820753624,17.632320210391864 " />
			<path d="M14.109778820753624,17.632320210391867 L13.363718409010197,20.91298838258693 " />
			<path d="M-35.82532126018999,19.941989231940006 L-35.82532126018999,22.595456753437176 " />
			<path d="M-31.807751671091665,26.81671325907502 L-35.825321260189995,22.595456753437176 " />
			<path d="M-26.77771745604647,18.067549089339234 L-26.77771745604647,20.721016610836404 " />
			<path d="M-35.82532126018999,19.941989231940006 L-26.777717456046467,18.067549089339234 " />
			<path d="M-35.82532126018999,22.595456753437176 L-26.777717456046467,20.721016610836404 " />
			<path d="M-22.760147866948138,22.288805594977074 L-22.760147866948138,24.942273116474244 " />
			<path d="M-26.77771745604647,18.067549089339234 L-22.760147866948138,22.288805594977077 " />
			<path d="M-26.77771745604647,20.721016610836404 L-22.760147866948138,24.942273116474247 " />
			<path d="M-22.760147866948138,24.942273116474244 L-31.80775167109166,26.816713259075016 " />
			<path d="M-63.32547033308354,7.25318135062664 L-63.32547033308354,11.675627219788591 " />
			<path d="M-55.83403754894887,2.452400020960835 L-55.83403754894887,6.874845890122787 " />
			<path d="M-63.32547033308354,7.25318135062664 L-55.83403754894887,2.4524000209608308 " />
			<path d="M-63.32547033308354,11.675627219788591 L-55.83403754894887,6.874845890122782 " />
			<path d="M-45.5443128276168,5.947608261853808 L-45.5443128276168,10.37005413101576 " />
			<path d="M-55.83403754894887,2.452400020960835 L-45.54431282761679,5.9476082618538095 " />
			<path d="M-55.83403754894887,6.874845890122786 L-45.54431282761679,10.37005413101576 " />
			<path d="M-45.5443128276168,10.37005413101576 L-53.03574561175146,15.170835460681568 " />
			<path d="M-53.03574561175146,15.170835460681566 L-63.32547033308354,11.675627219788593 " />
			<path d="M-46.977458431264424,-14.80750704856943 L-46.977458431264424,-8.6160828317427 " />
			<path d="M-31.507939166199286,-14.041725593428488 L-31.507939166199286,-7.850301376601758 " />
			<path d="M-46.977458431264424,-14.80750704856943 L-31.507939166199282,-14.041725593428492 " />
			<path d="M-46.977458431264424,-8.616082831742702 L-31.507939166199282,-7.850301376601762 " />
			<path d="M-31.507939166199286,-7.850301376601759 L-33.14927207203482,-0.632831397772624 " />
			<path d="M-48.618791337099964,-7.590037069740295 L-48.618791337099964,-1.3986128529135646 " />
			<path d="M-33.14927207203482,-0.6328313977726241 L-48.61879133709996,-1.3986128529135624 " />
			<path d="M-48.618791337099964,-7.590037069740295 L-46.97745843126443,-14.807507048569432 " />
			<path d="M-48.618791337099964,-1.3986128529135646 L-46.97745843126443,-8.616082831742702 " />
			<path d="M4.121064150659665,-19.377444606983687 L4.121064150659665,-11.417042042492175 " />
			<path d="M11.582264816127998,-11.53796823937056 L11.582264816127998,-3.5775656748790485 " />
			<path d="M4.121064150659665,-19.377444606983687 L11.582264816128001,-11.537968239370553 " />
			<path d="M4.121064150659665,-11.417042042492177 L11.582264816128001,-3.577565674879044 " />
			<path d="M11.582264816127998,-3.5775656748790476 L-5.2204279629956725,-0.09646255290617953 " />
			<path d="M-12.681628628464011,-15.896341485010819 L-12.681628628464011,-7.935938920519307 " />
			<path d="M-5.220427962995675,-0.096462552906178 L-12.681628628464013,-7.935938920519312 " />
			<path d="M-12.681628628464011,-15.896341485010819 L4.121064150659664,-19.377444606983687 " />
			<path d="M-12.681628628464011,-7.935938920519308 L4.121064150659664,-11.417042042492175 " />
			<path d="M39.410106365168716,-0.29012982894972383 L39.410106365168716,9.439251083206567 " />
			<path d="M39.410106365168716,9.439251083206567 L26.92438505827761,17.440553299316246 " />
			<path d="M9.774843856057489,1.8858253190049963 L9.774843856057489,11.615206231161288 " />
			<path d="M26.924385058277608,17.440553299316246 L9.774843856057487,11.615206231161288 " />
			<path d="M22.260565162948595,-6.1154768971046805 L22.260565162948595,3.6139040150516104 " />
			<path d="M9.774843856057489,1.8858253190049963 L22.26056516294859,-6.115476897104681 " />
			<path d="M9.774843856057489,11.615206231161288 L22.26056516294859,3.613904015051611 " />
			<path d="M22.260565162948595,-6.1154768971046805 L39.410106365168716,-0.29012982894972167 " />
			<path d="M22.260565162948595,3.613904015051611 L39.410106365168716,9.43925108320657 " />

        </g>
        </g>
    </svg>
    