<?xml version="1.0" encoding="UTF-8" standalone="no"?>
    <svg
    xmlns:svg="http://www.w3.org/2000/svg"
    xmlns="http://www.w3.org/2000/svg"
    width="687"
    height="346"
    >
        <g transform="scale(4, -4)   translate(88.82086012657545,-40.830345286039865)" stroke-width="0.25"  fill="none">
        <!-- hidden lines -->
        <g  stroke="rgb(160,160,160)" fill="none" stroke-dasharray="0.25,0.25" >
    			<path d="M4.8524705690005945,0.9928291147360309 L4.691762532119842,0.7944661327933273 L4.535871336416559,0.5949584292960228 L4.384824276253351,0.39434093524568237 L4.2386477978526,0.1926487759526312 L4.097367494666113,-0.010082735113991603 L3.9610081028940733,-0.21381810250911393 L3.829593497154068,-0.4185216550265132 L3.703146686300972,-0.6241575519443252 L3.581689809398444,-0.830689789300239 L3.4652441318426668,-1.0380822061953099 L3.353830041639082,-1.2462984911252164 L3.2474670458327317,-1.4553021883378854 L3.1461737670928542,-1.6650567042164113 L3.049967940452305,-1.8755253136860648 L2.9588664102024183,-2.086671166644329 L2.8728851269437996,-2.298457294412854 L2.7920391447935806,-2.5108466162101486 L2.7163426187496995,-2.723801945643896 L2.645808802212507,-2.937285997221795 L2.580450044664307,-3.1512613928797073 L2.520277789507155,-3.365690668526024 L2.465302572059244,-3.580536280601119 L2.415534017710332,-3.7957606126506964 L2.370980840236477,-4.011325981911895 L2.3316508402743636,-4.227194645911036 L2.297550903955539,-4.4433288090717795 L2.26868700170073,-4.659690629332596 L2.2450641871745205,-4.876242224772394 L2.226686596400512,-5.09294568024311 L2.213557447037175,-5.309763054008112 L2.205679037814477,-5.526656384385284 L2.2030527481314124,-5.743587696393501 " />
			<path d="M2.2030527481314124,-5.743587696393574 L2.2070332751053954,-6.01065228910005 L2.218973799721013,-6.277646011285523 L2.238871153339577,-6.544498011235794 L2.2667200558308984,-6.811137474845261 L2.302513116974481,-7.077493644408782 L2.3462408384206306,-7.343495837398521 L2.397891616211023,-7.609073465220841 L2.457451743858055,-7.874156051948335 L2.5249054159820794,-8.138673253021889 L2.6002347325056654,-8.402554873917893 L2.683419703403729,-8.665730888775691 L2.774438254008235,-8.928131458980223 L2.8732662308661254,-9.18968695169496 L2.9798774081488943,-9.450327958340313 L3.09424349461208,-9.709985313012458 L3.2163341411028448,-9.968590110837694 " />
			<path d="M3.2163341411028767,-9.96859011083776 L3.3196823348632876,-10.183867666586371 L3.419818551920862,-10.399598107213269 L3.516736148916877,-10.61576712046709 L3.610428696026176,-10.832360365000177 L3.700889977383831,-11.049363471319989 L3.788113991497454,-11.266762042742432 L3.872094951645394,-11.48454165634701 L3.9528272862606073,-11.70268786393366 L4.030305639300352,-11.921186192981274 L4.104524870601452,-12.14002214760788 L4.175480056221382,-12.359181209532345 L4.243166488764892,-12.578648839037545 L4.307579677696324,-12.798410475935011 L4.36871534963754,-13.018451540530883 L4.4265694486514064,-13.23875743459314 L4.481138136510914,-13.459313542320139 L4.532417792953773,-13.680105231310254 L4.580405015922629,-13.901117853532629 L4.62509662179076,-14.122336746299013 L4.666489645573286,-14.343747233236497 L4.704581341123863,-14.565334625261183 L4.739369181316867,-14.787084221552728 L4.770850858215091,-15.008981310529638 L4.799024283222835,-15.231011170825262 L4.823887587224448,-15.453159072264507 L4.845439120708377,-15.67541027684104 L4.863677453876562,-15.897750039695051 L4.8786013767393115,-16.120163610091495 L4.890209899195597,-16.342636232398696 L4.898502251098677,-16.56515314706728 L4.903477882307271,-16.787699591609393 L4.905136462721984,-17.010260801577953 " />
			<path d="M-37.36374819750033,-32.85130710849187 L-86.32086012657544,-17.3632485851992 " />
			<path d="M-16.10814493024948,-12.785258387133887 L-15.986054283758687,-13.043863184959191 L-15.871688197295502,-13.303520539631336 L-15.765077020012733,-13.56416154627669 L-15.666249043154842,-13.825717038991426 L-15.575230492550336,-14.088117609195958 L-15.492045521652273,-14.351293624053756 L-15.416716205128683,-14.61517524494976 L-15.349262533004659,-14.879692446023315 L-15.289702405357627,-15.144775032750807 L-15.238051627567234,-15.410352660573128 L-15.194323906121085,-15.676354853562868 L-15.158530844977506,-15.942711023126389 L-15.13068194248618,-16.209350486735854 L-15.110784588867617,-16.476202486686127 L-15.098844064251999,-16.7431962088716 L-15.094863537278016,-17.010260801578003 " />
			<path d="M-15.094863537278016,-17.010260801578074 L-15.096435022976937,-17.178067759058205 L-15.101149315435869,-17.345857136122746 L-15.109005920758609,-17.51361135419793 L-15.120004015842298,-17.681312838393456 L-15.134142448463653,-17.848944019343712 L-15.1514197373997,-18.016487335048446 L-15.171834072582936,-18.183925232712703 L-15.195383315290982,-18.3512401705857 L-15.222064998370623,-18.518414619798634 L-15.251876326496301,-18.685431066201097 L-15.284814176462966,-18.85227201219595 L-15.320875097513266,-19.01891997857249 L-15.360055311699092,-19.185357506337652 L-15.402350714277357,-19.35156715854513 L-15.44775687414004,-19.517531522122155 L-15.496269034278427,-19.68323320969381 L-15.547882112281446,-19.8486548614046 L-15.602590700868173,-20.013779146737193 L-15.660389068454297,-20.17858876632806 L-15.721271159752622,-20.34306645377985 L-15.785230596407416,-20.50719497747033 L-15.852260677662695,-20.670957142357647 L-15.92235438106417,-20.834335791781786 L-15.995504363195021,-20.997313809262014 L-16.071702960445187,-21.15987412029008 L-16.15094218981428,-21.321999694119054 L-16.23321374974792,-21.483673545547553 L-16.318509021007447,-21.644878736699226 L-16.406819067572933,-21.805598378797235 L-16.498134637579355,-21.96581563393363 L-16.59244616428589,-22.125513716833407 L-16.689743767078177,-22.284675896613006 L-16.79001725250346,-22.443285498533136 L-16.893256115338517,-22.601325905745725 L-16.999449539690247,-22.758780561034786 L-17.108586400128804,-22.91563296855105 L-17.22065526285316,-23.07186669554017 L-17.335644386888983,-23.227465374064302 L-17.45354172531867,-23.382412702716902 L-17.574334926543475,-23.53669244833058 L-17.69801133557751,-23.690288447677734 L-17.824557995373564,-23.84318460916393 L-17.953961648180567,-23.995364914513768 L-18.086208736932537,-24.14681342044901 L-18.22128540666889,-24.29751426035891 L-18.35917750598598,-24.447451645962484 L-18.499870588519663,-24.596609868962588 L-18.643349914458806,-24.744973302691598 L-18.789600452089477,-24.892526403748555 L-18.938606879369797,-25.039253713627588 L-19.090353585535127,-25.185139860337422 L-19.244824672733564,-25.330169560011846 L-19.402003957691477,-25.474327618510927 L-19.561874973408962,-25.61759893301283 L-19.72442097088503,-25.759968493596116 L-19.889624920872322,-25.901421384812217 L-20.05746951566118,-26.041942787248097 L-20.227937170892915,-26.1815179790788 L-20.401010027402037,-26.320132337609802 L-20.576669953087293,-26.45777134080896 L-20.754898544811276,-26.59442056882793 L-20.935677130328447,-26.730065705512875 L-21.11898677024135,-26.864692539904297 L-21.304808259984824,-26.99828696772588 L-21.493122131837954,-27.13083499286209 L-21.683908656963617,-27.262322728824532 L-21.877147847475445,-27.392736400206772 L-22.072819458531818,-27.522062344127498 L-22.270902990456825,-27.65028701166196 L-22.47137769088797,-27.777396969261407 L-22.67422255695027,-27.90337890016046 L-22.879416337456643,-28.028219605772282 L-23.086937535134325,-28.151906007071297 L-23.29676440887702,-28.274425145963455 L-23.508874976022646,-28.39576418664378 L-23.723247014656348,-28.51591041694114 L-23.939858065938587,-28.634851249650005 L-24.158685436458068,-28.75257422384921 L-24.37970620060925,-28.86906700620739 L-24.602897202994118,-28.984317392275116 L-24.828235060848133,-29.09831330776349 L-25.055696166489884,-29.211042809809115 L-25.2852566897944,-29.3224940882253 L-25.51689258068971,-29.43265546673937 L-25.750579571676493,-29.541515404215932 L-25.98629318037046,-29.64906249586599 L-26.22400871206727,-29.755285474441777 L-26.463701262329693,-29.860173211417184 L-26.705345719596735,-29.963714718153625 L-26.94891676781448,-30.065899147051297 L-27.44173636635641,-30.26615409292883 L-27.94195354097759,-30.46085413183878 L-28.449358674731997,-30.649917674364367 L-28.963739138545836,-30.833265493073178 L-29.48487938032015,-31.01082075571761 L-30.012561015258353,-31.182509057431542 L-30.546562917380783,-31.348258451909857 L-31.086661312187907,-31.507999481557654 L-31.632629870433494,-31.66166520659658 L-32.18423980296835,-31.809191233116113 L-32.74125995661476,-31.950515740057902 L-33.30345691103172,-32.08557950512201 L-33.870595076530115,-32.21432592958417 L-34.44243679279708,-32.3367010620135 L-35.018742428487954,-32.452653620881065 L-35.599270481644254,-32.56213501604938 L-36.18377768089556,-32.665099369134296 L-36.77201908740278,-32.76150353273037 L-37.36374819750006,-32.85130710849184 " />
			<path d="M80.51425042651229,1.2980829943467551 L80.36618820497037,1.594748177479258 L80.21202638891899,1.8904840009930304 L80.05178450209877,2.185253011583006 L79.88548283825777,2.4790178783856174 L79.71314245858115,2.771741397706558 L79.53478518902403,3.063386497732404 L79.35043361754738,3.3539162432255782 L79.16011109125726,3.6432938402019737 L78.96384171344816,3.9314826405907173 L78.76165034055037,4.2184461468754435 L78.55356257898207,4.504148016716504 L78.33960478190644,4.788552067553519 L78.11980404589418,5.071622281187706 L77.89418820749185,5.353322808343378 L77.66278583969653,5.633617973208066 L77.42562624833721,5.912472277950641 L77.18273946836342,6.189850407216948 L76.93415626004139,6.46571723260228 L76.67990810505847,6.740037817100198 L76.42002720253615,7.012777419527113 L76.15454646495226,7.28390149892207 L75.88349951397265,7.553375718921158 L75.6069206761934,7.821165952106027 L75.32484497879332,8.087238284325938 L75.03730814509817,8.351559018992791 L74.7443465900563,8.614094681348643 L74.44599741562706,8.874812022705052 L74.14229840608195,9.133678024653879 L73.83328802321944,9.390659903248869 L73.5190054014941,9.645725113157575 L73.19949034306032,9.898841351783004 L72.87478331273164,10.149976563354603 L72.5449254328561,10.399098942987937 L72.20995847810835,10.646176940712579 L71.86992487019907,10.891179265467766 L71.52486767250252,11.134074889065218 L71.1748305846028,11.374833050118703 L70.81985793675956,11.613423257939786 L70.45999468429376,11.84981529639931 L70.09528640189438,12.083979227754092 L69.72577927784664,12.315885396438397 L69.35152010818248,12.54550443281962 L68.97255629075408,12.772807256917805 L68.5889358192313,12.997765082088463 L68.20070727702335,13.220349418668246 L67.8079198311262,13.440532077582994 L67.41062322589568,13.658285173917712 L67.00886777674768,13.873581130448084 L66.60270436378602,14.086392681132931 L66.1921844253587,14.296692874567334 L65.77735995154363,14.504455077395864 L65.35828347756421,14.70965297768555 L64.9350080771362,14.912260588258142 L64.5075873557461,15.112252249981264 L64.07607544386236,15.309602635017956 L63.64052699008013,15.504286750034346 L63.20099715420018,15.696279939364892 L62.7575416002433,15.885557888134905 L62.31021648940075,16.072096625339878 L61.859078472921766,16.255872526881284 L61.404184684938954,16.436862318558443 L60.9455927352326,16.615043079016075 L60.48336070193471,16.790392242647133 L60.0175471241737,16.96288760245066 L59.54821099466082,17.132507312844144 L59.07541175221894,17.299229892430155 L58.599209274255045,17.463034226716843 L58.11966386917708,17.62389957079197 L57.63683626875617,17.781805551950143 L57.15078762043531,17.936732172272905 L56.66157947958543,18.088659811161346 L56.16927380170964,18.23756922782097 L55.67393293459701,18.38344156369841 L55.17561961042651,18.526258344869767 L54.67439693782234,18.666001484380235 L54.17032839386158,18.802653284534717 L53.66347781603518,18.936196439139124 L53.15390939416324,19.066614035692123 L52.641687662265824,19.19388955752701 L52.12687749038996,19.31800688590345 L51.609544076394315,19.438950302048823 L51.08975293769219,19.556704489148935 L50.5675699029541,19.671254534287787 L50.04306110377098,19.782585930336232 L49.516292966278954,19.89068457778921 L48.98733220274681,19.99553678655137 L48.45624580312733,20.09712927767086 L47.923101026573306,20.19544918502103 L47.38796539291958,20.29048405692983 L46.85090667413205,20.382221857756786 L46.311992885724656,20.470650969417218 L45.771292278145694,20.555760192853604 L45.22887332813416,20.637538749453906 L44.68480473004766,20.715976282416598 L44.13915538716256,20.791062858062297 L43.591994402947826,20.862788967091827 L43.04339107231341,20.9311455257905 L42.49341487283449,20.996123877178537 L41.942135455952425,21.0577157921074 L41.38962263815392,21.11591347030199 L40.83594639212902,21.170709541348508 L40.28117683790952,21.222097065627867 L39.72538423398869,21.270069535194562 L39.16863896842334,21.314620874600855 L38.61101154991962,21.355745441666226 L38.05257259890345,21.393438028191888 L37.49339283857687,21.427693860620387 L36.933543085961325,21.458508600640176 L36.37309424292905,21.48587834573499 L35.81211728722377,21.509799629678113 L35.250683263471785,21.530269422971347 L34.6888632741845,21.547285133228673 L34.12672847075373,21.56084460550458 L33.564350044440765,21.570946122566955 L33.001799217360364,21.57758840511458 L32.43914723346093,21.580770611939133 L31.876465349501768,21.580492340031736 L31.313824826028885,21.576753624633984 L30.751296918350228,21.56955493923349 L30.188952867511546,21.558897195503917 L29.62686389127415,21.544781743189507 L29.065101175095567,21.527210369934167 L28.503735863114276,21.50618530105505 L27.942839049139753,21.481709199260763 L27.382481767648756,21.45378516431411 L26.82273498478925,21.422416732639547 L26.26366958939295,21.387607876875318 L25.705356383997593,21.349363005370325 L25.147866075880223,21.307686961625848 L24.591269268102508,21.262585023682142 L24.035636450569225,21.214062903449996 L23.481037991101154,21.16212674598735 L22.927544126523323,21.10678312872107 L22.375224953769926,21.048039060613938 L21.824150421006983,20.985901981277017 L21.2743903187737,20.92037976002746 L20.726014271143953,20.851480694891904 L20.17909172690878,20.779213511555568 L19.633691950781024,20.703587362257213 L19.089884014623394,20.62461182463003 L18.547736788700895,20.542296900488708 L18.007318932958746,20.456653014562757 L17.468698888327012,20.367691013176263 L16.93194486805295,20.275422162874275 L16.397124849062134,20.17985814899595 L15.864306563349594,20.081011074194677 L15.333557489401933,19.978893456905325 L14.80494484365152,19.873518229758883 L14.278535571963907,19.764898737944584 L13.754396341159566,19.65304873751983 L13.2325935305708,19.537982393668052 L12.713193223635244,19.419714278904774 L12.196261199526763,19.29825937123209 L11.681862924824859,19.17363305224176 L11.17006354522367,19.045851105167262 L10.660927877281672,18.914929712884863 L10.154520400213027,18.780885455864233 L9.650905247721571,18.64373531006853 L9.150146199878733,18.503496644804564 L8.652306675046106,18.360187220523038 L8.157449721843804,18.213825186569274 L7.665638011165779,18.064429078884714 L7.176933828242877,17.912017817659457 L6.6913990647547905,17.756610704936097 L6.209095210991691,17.598227422165234 L5.730083348067005,17.436888027712936 L5.2544241401817295,17.272612954320465 L4.782177826941599,17.105423006516542 L4.313404215728184,16.935339357982624 L3.848162674124584,16.76238354887134 L3.3865121223967627,16.586577483078546 L2.9285110260317566,16.40794342546935 L2.474217388333269,16.226503999058362 L2.023688743075841,16.042282182144607 L1.5769821472186223,15.85530130540149 L1.1341541736793381,15.665585048922061 L0.695260904169654,15.473157439220067 L0.2603579220927408,15.27804284618713 L-0.17049969449600866,15.080265980006452 L-0.5972573798643595,14.879851888023396 L-1.0198610875137035,14.676825951573345 L-1.4382572970236822,14.471213882767362 L-1.8523930208302843,14.26304172123584 L-2.2622158109364747,14.052335830830735 L-2.6676737655543477,13.839122896286764 L-3.0687155356782654,13.623429919841897 L-3.465290331587944,13.40528421781767 L-3.857347929280614,13.184713417159756 L-4.244838676831655,12.96174545193914 L-4.627713500682802,12.736408559814421 L-5.005923911856904,12.508731278455688 L-5.379422012098864,12.27874244193038 L-5.748160499941726,12.046471177051583 L-6.112092676697095,11.811946899689296 L-6.47117245236921,11.575199311045104 L-6.825354351492095,11.336258393890656 L-7.174593518888734,11.095154408770487 L-7.51884572535171,10.851917890169744 L-7.85806737324458,10.606579642647134 L-8.192215502023352,10.359170736933674 L-8.521247793677112,10.109722505997812 L-8.845122578087377,9.858266541077239 L-9.163798838305482,9.604834687678007 L-9.477236215746998,9.349459041541554 L-9.785395015303038,9.092171944579896 L-10.088236210367398,8.833005980779683 L-10.38572144777902,8.571993972075695 L-10.677813052679241,8.309168974194067 L-10.96447403328311,8.04456427246596 L-11.245668085564205,7.778213377612186 L-11.521359597852268,7.510150021499255 L-11.791513655343287,7.240408152867428 L-12.056096044521283,6.969021933031254 L-12.315073257491186,6.696025731553284 L-12.568412496222479,6.421454121891342 L-12.8160816767029,6.145341877019936 L-13.058049433001635,5.867723965026537 L-13.294285121241714,5.588635544683017 L-13.524758823480859,5.30811196099296 L-13.749441351500408,5.0261887407154795 L-13.968304250501859,4.742901587865907 L-14.18131980271054,4.45828637919406 L-14.38846103088585,4.172379159640705 L-14.589701701737823,3.8852161377726357 L-14.785016329249409,3.596833681197033 L-14.97438017790418,3.3072683119557347 L-15.157769265818878,3.016556701899944 L-15.335160367780595,2.7247356680459163 L-15.50653101818822,2.4318421679122597 L-15.671859513897438,2.137913294839529 L-15.8311249169694,1.842986273292535 L-15.984307057322404,1.547098454146032 L-16.131386535286275,1.2502873099545058 L-16.27234472405923,0.9525904302064498 L-16.407163772066937,0.6540455165638255 L-16.535826605223214,0.3546903780874313 L-16.658316929092415,0.054562926448554094 L-16.77461923095305,-0.24629882887236842 L-16.884718781762352,-0.5478567853993637 L-16.988601638021635,-0.8500727524864322 L-17.086254643542183,-1.1529084561542025 L-17.177665431111386,-1.4563255439370941 L-17.262822424058974,-1.7602855897404268 L-17.341714837723153,-2.0647500987068867 L-17.414332680816436,-2.3696805120917337 L-17.48066675669095,-2.6750382121459726 L-17.54070866450315,-2.9807845270071183 L-17.594450800277784,-3.286880735596807 L-17.641886357870817,-3.5932880725245355 L-17.68300932983145,-3.8999677329971183 L-17.717814508162917,-4.206880877733136 L-17.74629748498203,-4.513988637881645 L-17.76845465307744,-4.8212521199447345 L-17.78428320636646,-5.128632410703213 L-17.79378114025043,-5.43609058214468 L-17.796947251868588,-5.743587696393452 " />
			<path d="M-17.74428135814719,-6.997407558959017 L-17.72776042216057,-7.180552844734744 L-17.708990925265468,-7.363633418893463 L-17.68797371271866,-7.546641036670122 L-17.664709730999448,-7.729567456585194 L-17.63920002776714,-7.912404440815759 L-17.61144575181377,-8.09514375556651 L-17.58144815301244,-8.277777171440544 L-17.549208582261002,-8.460296463809934 L-17.514728491421224,-8.642693413186164 L-17.47800943325339,-8.824959805590261 L-17.439053061346414,-9.007087432922653 L-17.397861130043346,-9.189068093332889 L-17.35443549436237,-9.370893591588947 L-17.308778109913284,-9.5525557394463 L-17.260891032809383,-9.73404635601668 L-17.210776419574934,-9.915357268136448 L-17.15843652704801,-10.09648031073472 L-17.10387371227886,-10.277407327201043 L-17.047090432423815,-10.45813016975268 L-16.988089244634544,-10.638640699801599 L-16.926872805942985,-10.818930788320941 L-16.863443873141613,-10.998992316211101 L-16.79780530265935,-11.17881717466539 L-16.72996005043293,-11.358397265535135 L-16.659911171773714,-11.53772450169445 L-16.587661821230178,-11.71679080740439 L-16.513215252445825,-11.895588118676597 L-16.436574818012637,-12.074108383636514 L-16.357743969320126,-12.25234356288595 L-16.27672625639989,-12.430285629865127 L-16.193525327765762,-12.607926571214161 L-16.108144930249537,-12.785258387133771 " />
			<path d="M-37.36374819750033,-32.85130710849188 L-37.36374819750033,-16.10203705474322 " />
			<path d="M2.2030527481314124,11.00568235735508 L2.2030527481314124,-5.743587696393576 " />
			<path d="M-15.094863537278016,-17.010260801578077 L-15.094863537278016,-0.26099074782941933 " />

        </g>

        <!-- solid lines -->
        <g  stroke="rgb(0,0,0)" fill="none">
    			<path d="M61.18977135515995,15.230684771799279 L61.10093402223479,15.408683881678781 L61.008436932603956,15.586125375787045 L60.91229180051183,15.76298678214103 L60.81251080220723,15.939245702222598 L60.70910657440125,16.11487981381516 L60.60209221266699,16.28986687383067 L60.49148126978099,16.464184721126575 L60.37728775400692,16.637811279312412 L60.259526127321465,16.81072455954566 L60.138211303582786,16.982902663316494 L60.013358646641805,17.15432378522113 L59.88498396839643,17.32496621572334 L59.753103526789076,17.494808343903852 L59.61773402374767,17.663828660197254 L59.47889260307048,17.832005759116065 L59.3365968482549,17.99931834196161 L59.190864780270616,18.165745219521398 L59.0417148552774,18.331265314752596 L58.88916596228765,18.495857665451346 L58.73323742077426,18.659501426907497 L58.57394897822391,18.822175874544467 L58.41132080763616,18.98386040654392 L58.2453735049686,19.144534546454842 L58.076128086528556,19.30417794578679 L57.90360598631146,19.4627703865869 L57.72782905328634,19.620291784000415 L57.5488195486288,19.776722188814258 L57.36660014290173,19.932041789983554 L57.18119391318423,20.086230917140547 L56.99262434014903,20.23927004308577 L56.80091530508875,20.39113978626103 L56.606091086891546,20.54182091320399 L56.40817635896623,20.691294340983987 L56.20719618611757,20.839541139618774 L56.003176021372006,20.986542534471887 L55.796141702754085,21.13227990863036 L55.58611945001425,21.27673480526245 L55.3731358613083,21.4198889299551 L55.157217909828816,21.56172415303081 L54.93839294038919,21.702222511843683 L54.716688665960554,21.841366213054265 L54.49213316416205,21.979137634882996 L54.264754873705016,22.115519329341907 L54.03458259079133,22.250494024444304 L53.80164546546658,22.384044626392175 L53.565972997928284,22.51615422174102 L53.327595034789965,22.646806079541854 L53.08654176530117,22.775983653460074 L52.842843717524175,22.903670583870984 L52.59653175446779,23.02985069993163 L52.34763707017874,23.154508021628743 L52.0961911857911,23.277626761802555 L51.84222594553429,23.399191328146113 L51.585773512700214,23.519186325179987 L51.326866365569984,23.637596556202 L51.06553729330064,23.754407025211833 L50.80181939177267,23.86960293881016 L50.53574605939854,23.983169708072168 L50.267350992893014,24.095092950395152 L49.996668183005625,24.20535849132 L49.72373191021594,24.31395236632629 L49.44857674039213,24.420860822600872 L49.17123752041339,24.526070320779507 L48.89174937375679,24.629567536661625 L48.610147696049054,24.731339362897714 L48.32646815058393,24.83137291064932 L48.04074666380559,24.929655511221334 L47.75301942075881,25.026174717666407 L47.46332286050627,25.12091830636131 L47.17169367151375,25.213874278554968 L46.87816878700382,25.305030861888035 L46.58278538027835,25.39437651188381 L46.28558086001077,25.48189991341027 L45.98659286550847,25.567589982113084 L45.685859261945964,25.651435865819366 L45.383418135569514,25.733426945912058 L45.07930778887368,25.8135528386747 L44.773566735750514,25.891803396606498 L44.46623369661206,25.968168709707435 L44.15734759348654,26.042639106733297 L43.84694754508916,26.115205156420522 L43.535072861867874,26.185857668680587 L43.22176304102502,26.2545876957639 L42.907057761515155,26.321386533392968 L42.59099687901994,26.38624572186475 L42.273620420900656,26.449157047122046 L41.954968581128966,26.510112541793745 L41.63508171519655,26.56910448620384 L41.314000335004316,26.62612540934912 L40.991765103731794,26.6811680898453 L40.668416830687356,26.734225556841558 L40.34399646613998,26.78529109090339 L40.01854509613307,26.83435822486357 L39.69210393728116,26.881420744641183 L39.364714331550104,26.926472690028604 L39.03641774102126,26.969508355446322 L38.70725574264061,27.010522290665527 L38.377270022953255,27.049509301498347 L38.04650237282402,27.086464450455665 L37.71499468214491,27.12138305737242 L37.38278893452998,27.15426070000033 L37.04992720199827,27.185093214567946 L36.71645163964578,27.213876696307963 L36.38240448030657,27.24060749995174 L36.04782802920433,27.265282240190963 L35.71276465859464,27.287897792106357 L35.37725680239869,27.308451291563458 L35.04134695082936,27.32694013557533 L34.70507764500999,27.34336198263222 L34.36849147158683,27.357714752998096 L34.03163105733564,27.369996628974036 L33.694539063763266,27.38020605512843 L33.35725818170481,27.388341738493974 L33.01983112591702,27.3944026487314 L32.68230062966878,27.398388018259975 L32.34470943932912,27.400297342354705 L32.007100308953625,27.400130379210268 L31.669515994869897,27.397887149971616 L31.3319992502627,27.393567938731323 L30.994592819759493,27.38717329249358 L30.657339434017057,27.37870402110493 L30.320281804309907,27.368161197151725 L29.98346261712113,27.355546155824257 L29.646924528736417,27.340860494747684 L29.31071015984182,27.324106073779692 L28.974862090126116,27.305285014774956 L28.639422852888334,27.284399701316417 L28.30443492965112,27.26145277841342 L27.9699407447807,27.236447152166736 L27.63598266011407,27.209385989400513 L27.3026029695941,27.180272717261225 L26.969843893913257,27.149111022783636 L26.637747575166557,27.115904852423867 L26.30635607151452,27.08065841155959 L25.975711351856752,27.043376163957436 L25.645855290516785,27.0040628312077 L25.31682966193894,26.96272339212637 L24.98867613539783,26.91936308212457 L24.66143626972118,26.873987392545555 L24.335151508026602,26.826602069969244 L24.009863172473104,26.77721311548445 L23.685612459027816,26.72582678392888 L23.362440432248775,26.672449583096984 L23.040388020084336,26.61708827291579 L22.719496008689845,26.559749864588795 L22.399805037262322,26.50044161970803 L22.081355592893726,26.439171049334423 L21.76418800544348,26.375945913046557 L21.44834244243091,26.310774217957977 L21.133858903948305,26.243664217703124 L20.820777217595044,26.174624411392056 L20.50913703343371,26.10366354253409 L20.198977818968622,26.030790597930476 L19.89033885414748,25.95601480653628 L19.583259226386765,25.879345638291582 L19.27777782562157,25.800792802922146 L18.97393333938038,25.720366248709766 L18.671764247885505,25.63807616123234 L18.371308819179802,25.553932962073965 L18.07260510428023,25.46794730750505 L17.77569093235885,25.38013008713279 L17.48060390595203,25.290492422522057 L17.18738139619829,25.1990456657869 L16.896060538105438,25.105801398152884 L16.60667822584758,25.010771428490365 L16.31927110809277,24.913967791818987 L16.033875583361603,24.8154027477835 L15.750527795417526,24.71508877910115 L15.469263628689475,24.6130385899808 L15.190118703727315,24.50926510451403 L14.913128372690622,24.403781465038357 L14.638327714871618,24.296601030472836 L14.365751532252524,24.187737374626245 L14.09543434509807,24.077204284477993 L13.827410387583736,23.96501575843212 L13.561713603460166,23.85118600454446 L13.298377641754357,23.735729438723265 L13.03743585250821,23.618660682903503 L12.778921282554961,23.4999945631951 L12.52286667133395,23.379746108005264 L12.269304446744346,23.257930546135235 L12.018266721038358,23.134563304851643 L11.769785286754395,23.00966000793273 L11.523891612690683,22.883236473689667 L11.280616839919954,22.755308712963284 L11.039991777845604,22.625892927096366 L10.8020469002998,22.495005505881828 L10.566812341684198,22.36266302548708 L10.334317893153571,22.228882246354708 L10.104592998842886,22.093680111079877 L9.877666752138424,21.95707374226464 L9.653567891993244,21.819080440349452 L9.432324799287528,21.679717681422176 L9.213965493234308,21.539003115004803 L8.998517627831038,21.39695456181829 L8.786008488357307,21.25359001152562 L8.576464987919323,21.108927620453517 L8.369913664041537,20.962985709293072 L8.166380675305817,20.815782760779506 L7.965891798038555,20.667337417351433 L7.768472423046298,20.517668478789915 L7.574147552400138,20.36679489983757 L7.382941796269279,20.21473578779803 L7.194879369804369,20.06151040011616 L7.009984090070741,19.907138141939164 L6.8282793730321245,19.751638563659036 L6.649788230585152,19.595031358436643 L6.474533267645022,19.437336359707665 L6.302536679282699,19.278573538670802 L6.133820247914045,19.118763001758538 L5.968405340541203,18.957924988090777 L5.806312906046593,18.796079866911683 L5.647563472539794,18.63324813500998 L5.492177144757854,18.469450414123195 L5.340173601519076,18.30470744832603 L5.191572093230825,18.139040101403186 L5.0463914394515825,17.97246935420715 L4.904650026507536,17.805016302001036 L4.76636580516405,17.636702151787002 L4.631556288352318,17.46754821962051 L4.500238548951447,17.29757592791077 L4.372429217626241,17.126806802707662 L4.248144480721056,16.955262470975647 L4.127400078209874,16.782964657854805 L4.010211301702917,16.609935183909446 L3.8965929925100546,16.436195962364664 L3.786559539761239,16.26176899633119 L3.6801248785842056,16.086676376018776 L3.577302488339633,15.910940275938582 L3.478105390914102,15.734582952094943 L3.382546149070926,15.557626739166746 L3.290636864859124,15.380094047678845 L3.2023891780808,15.202007361163929 L3.1178142648170244,15.023389233315095 L3.036922836012401,14.84426228512952 L2.9597251361186387,14.664649202043684 L2.886230941797116,14.484572731060359 L2.8164495606807343,14.304055677867805 L2.7503898301951537,14.123120903951609 L2.6880601164395834,13.941791323699366 L2.629468313127255,13.760089901498706 L2.5746218405857313,13.57803964882897 L2.523527644817179,13.39566362134697 L2.4761921966186726,13.212984915967095 L2.432621490762706,13.030026667936186 L2.392821045237998,12.846812047903644 L2.356795900550676,12.663364258986956 L2.3245506190858976,12.479706533833141 L2.296089284530076,12.295862131676504 L2.271415501353694,12.111854335392955 L2.250532394354817,11.927706448551344 L2.2334426082633456,11.743441792462239 L2.220148307406099,11.559083703224385 L2.2106511754326874,11.374655528769297 L2.2049524151023085,11.190180625904418 L2.2030527481314124,11.005682357355155 " />
			<path d="M2.2030527481314124,11.005682357355083 L2.2070332751053954,10.738617764648605 L2.218973799721013,10.471624042463134 L2.238871153339577,10.204772042512861 L2.2667200558308984,9.938132578903396 L2.302513116974481,9.671776409339873 L2.3462408384206306,9.405774216350135 L2.397891616211023,9.140196588527814 L2.457451743858055,8.875114001800322 L2.5249054159820794,8.610596800726768 L2.6002347325056654,8.346715179830763 L2.683419703403729,8.083539164972965 L2.774438254008235,7.821138594768433 L2.8732662308661254,7.559583102053697 L2.9798774081488943,7.298942095408343 L3.09424349461208,7.039284740736198 L3.2163341411028448,6.780679942910963 " />
			<path d="M61.189771355159934,15.230684771799279 L61.189771355159934,-1.5185852819493775 " />
			<path d="M61.18977135515995,-1.5185852819493766 L61.11422058197482,-1.3667131755862005 L61.03600554872411,-1.215244412735986 L60.955133463182705,-1.064192951747919 L60.87161177798167,-0.9135727125154363 L60.78544818992151,-0.7633975751934576 L60.6966506392628,-0.613681378919285 L60.60522730899454,-0.4644379205372795 L60.51118662408003,-0.31568095332743784 L60.41453725068048,-0.16742418573797746 L60.31528809535642,-0.01968128012206538 L60.213448304246896,0.1275341485212227 L60.10902726222662,0.27420853380156096 L60.002034592041184,0.4203283591875655 L59.89248015342022,0.565880159252389 L59.78037404216886,0.7108505209146028 L59.66572658923728,0.8552260846742534 L59.54854835976876,0.9989935458439909 L59.428850152126046,1.1421396557751375 L59.30664299689622,1.2846512230785905 L59.181938155874214,1.4265151148404618 L59.054747121024995,1.5677182578323103 L58.925081613424545,1.7082476397158848 L58.79295358217972,1.8480903102422621 L58.6583752033271,1.9872333824452477 L58.521358878710934,2.1256640338289507 L58.38191723484026,2.2633695075494273 L58.24006312172534,2.4003371135902576 L58.09580961169347,2.5365542299319834 L57.94916999818436,2.672008303715259 L57.80015779452505,2.8066868523976414 L57.64878673268464,2.940577464903905 L57.49507076200885,3.0736678027697533 L57.33902404793454,3.2059456012788523 L57.18066097068427,3.337398670593071 L57.01999612394121,3.4680148968758058 L56.857044313504176,3.597782243408325 L56.6918205559233,3.7266887516989726 L56.52434007711619,3.854722542585195 L56.35461831096481,3.981871817328253 L56.18267089789316,4.108124858700496 L56.008513683426024,4.233470032065156 L55.832162716728696,4.357895786448513 L55.472944732614806,4.603943259070656 L55.10514935501854,4.846176582291703 L54.72891215507518,5.0845064677501455 L54.34437181561613,5.318845065910301 L53.951670080049716,5.549105998444075 L53.55095170011392,5.77520439007043 L53.142364382520164,5.997056899840812 L52.72605873450793,6.214581751859027 L52.30218820833022,6.427698765424227 L51.87090904469031,6.636329384585901 L51.432380215150644,6.840396707099973 L50.98676336353523,7.039825512775337 L50.53422274634691,7.2345422912003805 L50.07492517222162,7.424475268839265 L49.60903994044193,7.609554435488011 L49.13673877853256,7.789711570080584 L48.658195778960746,7.964880265835502 L48.17358733496492,8.134995954733702 L47.68309207553538,8.299995931318614 L47.18689079957071,8.459819375809694 L46.685166409234526,8.614407376520889 L46.17810384253676,8.76370295157576 L45.66589000516471,8.907651069911285 L45.148713701588704,9.046198671562555 L44.62676556546782,9.17929468722095 L44.100237989381455,9.306890057058514 L43.56932505391245,9.428937748811654 L43.03422245610811,9.545392775117453 L42.49512743734532,9.65621221009622 L41.95223871062641,9.761355205174194 L41.40575638733262,9.860783004140497 L40.855881903462084,9.954458957432884 L40.30281794537951,10.04234853564693 L39.7467683751051,10.124419342263742 L39.18793815516996,10.200641125591464 L38.62653327306598,10.270985789916207 L38.062760665317825,10.335427405858244 L37.496828141205164,10.39394221992973 L36.928944306163174,10.446508663290327 L36.35931848488955,10.493107359697593 L35.78816064418648,10.533721132649156 L35.21568131556582,10.568335011714058 L34.64209151764617,10.596936238050922 L34.06760267837048,10.619514269110923 L33.4924265570726,10.63606078252382 L32.916775166421836,10.646569679165637 L32.34086069427404,10.651037085406806 L31.76489542545819,10.64946135454002 L31.189091663527122,10.64184306738721 L30.613661652501484,10.628185032085462 L30.038817498635545,10.608492283051909 L29.46477109223384,10.582772079128034 L28.89173402954734,10.551033900904024 L28.31991753477812,10.513289447224164 L27.74953238222109,10.469552630874617 L27.18078881857154,10.419839573455064 L26.61389648542727,10.364168599436255 L26.049064342013654,10.302560229405472 L25.486500588160265,10.235037172502574 L24.926412587557447,10.161624318049293 L24.369006791321056,10.082348726374901 L23.814488661893577,9.997239618841656 L23.26306259730971,9.90632836707366 L22.714931855854264,9.809648481393134 L22.170298481140172,9.707235598468344 L21.629363227634265,9.599127468177764 L21.09232548665822,9.485363939695288 L20.55938321289193,9.365986946801632 L20.030732851406505,9.241040492427338 L19.506569265253653,9.110570632433094 L18.98708566363824,8.974625458633314 L18.472473530700437,8.833255081069266 L17.962922554933787,8.68651160953828 L17.458620559265064,8.534449134385818 L16.959753431821866,8.377123706567511 L16.466505057413407,8.214593316988523 L15.979057249749644,8.046917875127821 L15.497589684423872,7.874159186955239 L15.022279832683452,7.6963809321495145 L14.553302896013108,7.5136486406256715 L14.09083174155474,7.326029668380345 L13.635036838387812,7.1335931726640585 L13.186086194693662,6.9364100864895395 L12.744145295826815,6.73455309248545 L12.309377043316335,6.528096596105231 L11.881941694819552,6.317116698200909 L11.461996805050283,6.101691166971943 L11.049697167703432,5.881899409299487 L10.64519475839732,5.657822441476666 L10.248638678654686,5.429542859345547 L9.860175100943195,5.197144807851929 L9.47994721479558,4.960713950029133 L9.108095174029245,4.720337435422165 L8.744756045084937,4.476103867963996 L8.566320799147103,4.352568767802401 L8.390063756503395,4.228103273315739 L8.21600115982525,4.102718854412405 L8.044149049558634,3.976427065682728 L7.8745232624458374,3.849239545334166 L7.707139430066096,3.721168014118831 L7.542012977395078,3.5922242742533683 L7.379159121383406,3.4624202083313307 L7.218592869554392,3.331767778228194 L7.060329018621033,3.2002790239989984 L6.90438215312242,3.0679660627688197 L6.750766644079764,2.9348410876161584 L6.599496647672055,2.8009163664492895 L6.4505861039314745,2.666204240875727 L6.304048735458835,2.5307171250649247 L6.159898046158975,2.394467504604263 L6.018147319996302,2.257467935348439 L5.878809619770681,2.1197310422624334 L5.741897785913618,1.9812695182580713 L5.607424435304978,1.842096123024298 L5.475401960110304,1.7022236818513772 L5.3458425266388545,1.5616650844489737 L5.218758074222386,1.4204332837583076 L5.0941603141149585,1.2785412947585382 L4.97206072841368,1.1360021932673643 L4.852470569000648,0.9928291147360975 " />
			<path d="M4.905136462721984,-17.010260801578074 L4.90251731989045,-17.28993906404496 L4.894660165792224,-17.569588025819193 L4.881565823587657,-17.849178389277835 L4.86323566511485,-18.128680862937046 L4.839671610745924,-18.4080661645208 L4.810876129185843,-18.687305024028692 L4.776852237213781,-18.966368186802452 L4.73760349936704,-19.245226416590782 L4.693134027567638,-19.52385049861234 L4.643448480691504,-19.802211242616444 L4.588552064080403,-20.0802794859412 L4.528450528996565,-20.358026096568764 L4.463150172020185,-20.63542197617737 L4.392657834389752,-20.91243806318983 L4.316980901285277,-21.189045335818207 L4.236127301054637,-21.465214815104297 L4.150105504382935,-21.74091756795562 L4.058924523405061,-22.0161247101766 L3.9625939107615125,-22.29080740949471 L3.8611237585976426,-22.564936888581038 L3.7545246975063122,-22.83848442806517 L3.6428078954141867,-23.111421369544026 L3.525985056411727,-23.38371911858426 L3.404068419526979,-23.655349147717974 L3.2770707574433615,-23.926282999431415 L3.1450053751615457,-24.196492289146374 L3.007886108605476,-24.465948708193874 L2.8657273231729334,-24.734624026779997 L2.7185439122304587,-25.00249009694334 L2.5663512955530834,-25.269518855503996 L2.409165417708863,-25.535682327003627 L2.2470027463883824,-25.80095262663629 L2.079880270679574,-26.065301963169844 L1.907815499287814,-26.32870264185749 L1.7308264587015998,-26.591127067339258 L1.5489316913040057,-26.852547746533034 L1.3621502534300731,-27.1129372915149 L1.1705017133703706,-27.372268422388448 L0.9740061493208998,-27.630513970142786 L0.7726841472795556,-27.887646879498913 L0.5665567988894935,-28.14364021174417 L0.3556456992294059,-28.398467147554502 L0.13997294455106868,-28.652100989804232 L-0.08043887003555028,-28.904515166362966 L-0.30556665292947116,-29.155683232879465 L-0.5353868184579511,-29.405578875552088 L-0.7698752893474321,-29.654175913885595 L-1.009007499245996,-29.901448303433945 L-1.2527583952971213,-30.147370138528878 L-1.5011024407643134,-30.39191565499393 L-1.7540136177065335,-30.635059232843652 L-2.0114654297039323,-30.876775398967695 L-2.273430904633784,-31.11703882979949 L-2.539882597496259,-31.355824353969332 L-2.8107925932897118,-31.593106954941476 L-3.0861325099351973,-31.828861773634976 L-3.3658735012499506,-32.06306411102811 L-3.6499862599695163,-32.29568943074595 L-3.938441020818054,-32.526713361630954 L-4.2312075636268105,-32.756111700296216 L-4.5282552165001135,-32.98386041366116 L-4.82955285902873,-33.2099356414694 L-5.135068925550236,-33.43431369878844 L-5.444771408456035,-33.65697107849108 L-5.758627861544575,-33.877884453718096 L-6.076605403420686,-34.09703068032217 L-6.398670720940402,-34.31438679929256 L-6.724790072701019,-34.52993003916045 L-7.054929292576034,-34.74363781838455 L-7.389053793294607,-34.95548774771696 L-7.727128570065105,-35.16545763254872 L-8.069118204242393,-35.373525475235084 L-8.414986867038529,-35.57966947740011 L-8.764698323276356,-35.78386804222038 L-9.11821593518573,-35.98609977668758 L-9.475502666241901,-36.18634349384985 L-9.836521085045632,-36.3845782150313 L-10.201233369244768,-36.58078317202997 L-10.56960130949674,-36.774937809293604 L-10.941586313471525,-36.96702178607315 L-11.317149409894874,-37.15701497855376 L-11.696251252631136,-37.34489748196314 L-12.078852124805323,-37.53064961265679 L-12.464911942964171,-37.71425191018024 L-12.854390261275476,-37.89568513930784 L-13.24724627576542,-38.07493029205793 L-13.643438828593439,-38.251968589684246 L-14.042926412364139,-38.42678148464326 L-14.445667174475883,-38.59935066253732 L-14.851618921505459,-38.76965804403345 L-15.260739123628532,-38.93768578675733 L-15.672984919075336,-39.10341628716266 L-16.08831311862106,-39.26683218237535 L-16.506680210110638,-39.42791635201259 L-16.928042363017333,-39.58665191997643 L-17.352355433034653,-39.74302225622189 L-17.779574966701166,-39.89701097849916 L-18.209656206057716,-40.04860195406991 L-18.642554093336493,-40.19777930139747 L-19.078223275681577,-40.34452739181063 L-19.51661810990032,-40.48883085114104 L-19.957692667245244,-40.63067456133385 L-20.401400738225732,-40.7700436620316 L-20.84769583744929,-40.90692355213105 L-21.29653120849149,-41.041299891312875 L-21.7478598287945,-41.17315860154404 L-22.201634414593546,-41.302485868552736 L-22.65780742587048,-41.429268143275586 L-23.11633107133441,-41.553492143277154 L-23.57715731342857,-41.67514485414147 L-24.04023787336302,-41.79421353083552 L-24.505524236172594,-41.91068569904445 L-24.97296765579963,-42.02454915647849 L-25.442519160200852,-42.13579197415131 L-25.914129556478,-42.244402497629764 L-26.38774943603152,-42.350369348254894 L-26.863329179736915,-42.45368142433402 L-27.340818963143125,-42.5543279023038 L-27.820168761692415,-42.652298237864166 L-28.30132835596124,-42.74758216708305 L-28.784247336921513,-42.84016970747165 L-29.26887511122175,-42.93005115903025 L-29.755160906487504,-43.01721710526447 L-30.243053776640586,-43.10165841417178 L-30.732502607236466,-43.18336623919822 L-31.223456120819293,-43.26233202016523 L-31.715862882294047,-43.33854748416644 L-32.20967130431475,-43.41200464643434 " />
			<path d="M-32.20967130431521,-43.412004646434404 L-81.1667832333903,-27.923946123141732 " />
			<path d="M-81.16678323339032,-27.92394612314174 L-86.32086012657545,-17.36324858519921 " />
			<path d="M-17.796947251868588,-5.743587696393573 L-17.79365509162359,-6.0571458822582445 L-17.783779044421365,-6.370662776771157 L-17.76732041080311,-6.684097094018071 L-17.744281358147205,-6.997407558958896 " />
			<path d="M61.189771355159934,-1.518585281949378 L80.51425042651229,1.2980829943467538 " />
			<path d="M80.51425042651229,1.2980829943467533 L80.51425042651229,18.04735304809541 " />
			<path d="M80.51425042651229,18.04735304809541 L80.36618820497037,18.344018231227913 L80.21202638891899,18.639754054741687 L80.05178450209877,18.93452306533166 L79.88548283825777,19.228287932134272 L79.71314245858115,19.521011451455216 L79.53478518902403,19.812656551481062 L79.35043361754738,20.103186296974236 L79.16011109125726,20.39256389395063 L78.96384171344816,20.680752694339375 L78.76165034055037,20.9677162006241 L78.55356257898207,21.25341807046516 L78.33960478190644,21.537822121302177 L78.11980404589418,21.82089233493636 L77.89418820749185,22.102592862092035 L77.66278583969653,22.38288802695672 L77.42562624833721,22.661742331699298 L77.18273946836342,22.939120460965604 L76.93415626004139,23.214987286350937 L76.67990810505847,23.489307870848855 L76.42002720253615,23.76204747327577 L76.15454646495226,24.033171552670726 L75.88349951397265,24.302645772669813 L75.6069206761934,24.57043600585468 L75.32484497879332,24.836508338074594 L75.03730814509817,25.100829072741448 L74.7443465900563,25.3633647350973 L74.44599741562706,25.62408207645371 L74.14229840608195,25.882948078402535 L73.83328802321944,26.139929956997527 L73.5190054014941,26.39499516690623 L73.19949034306032,26.648111405531658 L72.87478331273164,26.89924661710326 L72.5449254328561,27.148368996736593 L72.20995847810835,27.395446994461235 L71.86992487019907,27.640449319216422 L71.52486767250252,27.883344942813874 L71.1748305846028,28.12410310386736 L70.81985793675956,28.362693311688442 L70.45999468429376,28.599085350147966 L70.09528640189438,28.83324928150275 L69.72577927784664,29.065155450187053 L69.35152010818248,29.294774486568276 L68.97255629075408,29.52207731066646 L68.5889358192313,29.74703513583712 L68.20070727702335,29.969619472416902 L67.8079198311262,30.18980213133165 L67.41062322589568,30.407555227666368 L67.00886777674768,30.62285118419674 L66.60270436378602,30.835662734881588 L66.1921844253587,31.04596292831599 L65.77735995154363,31.25372513114452 L65.35828347756421,31.458923031434207 L64.9350080771362,31.6615306420068 L64.5075873557461,31.86152230372992 L64.07607544386236,32.05887268876661 L63.64052699008013,32.253556803783 L63.20099715420018,32.445549993113545 L62.7575416002433,32.63482794188356 L62.31021648940075,32.821366679088534 L61.859078472921766,33.005142580629936 L61.404184684938954,33.1861323723071 L60.9455927352326,33.364313132764735 L60.48336070193471,33.53966229639579 L60.0175471241737,33.71215765619932 L59.54821099466082,33.8817773665928 L59.07541175221894,34.04849994617881 L58.599209274255045,34.2123042804655 L58.11966386917708,34.37316962454062 L57.63683626875617,34.5310756056988 L57.15078762043531,34.68600222602156 L56.66157947958543,34.83792986491 L56.16927380170964,34.98683928156963 L55.67393293459701,35.132711617447065 L55.17561961042651,35.27552839861842 L54.67439693782234,35.41527153812889 L54.17032839386158,35.55192333828337 L53.66347781603518,35.685466492887784 L53.15390939416324,35.81588408944078 L52.641687662265824,35.94315961127567 L52.12687749038996,36.0672769396521 L51.609544076394315,36.18822035579748 L51.08975293769219,36.30597454289759 L50.5675699029541,36.42052458803644 L50.04306110377098,36.531855984084885 L49.516292966278954,36.63995463153786 L48.98733220274681,36.74480684030003 L48.45624580312733,36.84639933141952 L47.923101026573306,36.944719238769686 L47.38796539291958,37.03975411067849 L46.85090667413205,37.13149191150544 L46.311992885724656,37.219921023165874 L45.771292278145694,37.30503024660226 L45.22887332813416,37.38680880320256 L44.68480473004766,37.46524633616525 L44.13915538716256,37.54033291181095 L43.591994402947826,37.61205902084048 L43.04339107231341,37.68041557953916 L42.49341487283449,37.74539393092719 L41.942135455952425,37.806985845856055 L41.38962263815392,37.86518352405065 L40.83594639212902,37.91997959509716 L40.28117683790952,37.971367119376524 L39.72538423398869,38.01933958894322 L39.16863896842334,38.06389092834951 L38.61101154991962,38.10501549541488 L38.05257259890345,38.14270808194054 L37.49339283857687,38.17696391436904 L36.933543085961325,38.20777865438883 L36.37309424292905,38.23514839948365 L35.81211728722377,38.25906968342677 L35.250683263471785,38.279539476720004 L34.6888632741845,38.29655518697733 L34.12672847075373,38.31011465925324 L33.564350044440765,38.32021617631561 L33.001799217360364,38.326858458863235 L32.43914723346093,38.33004066568779 L31.876465349501768,38.32976239378039 L31.313824826028885,38.32602367838264 L30.751296918350228,38.318824992982144 L30.188952867511546,38.30816724925258 L29.62686389127415,38.29405179693816 L29.065101175095567,38.27648042368283 L28.503735863114276,38.25545535480371 L27.942839049139753,38.23097925300942 L27.382481767648756,38.203055218062765 L26.82273498478925,38.17168678638821 L26.26366958939295,38.136877930623974 L25.705356383997593,38.09863305911898 L25.147866075880223,38.05695701537451 L24.591269268102508,38.011855077430795 L24.035636450569225,37.96333295719865 L23.481037991101154,37.91139679973601 L22.927544126523323,37.85605318246972 L22.375224953769926,37.79730911436259 L21.824150421006983,37.73517203502567 L21.2743903187737,37.66964981377612 L20.726014271143953,37.600750748640564 L20.17909172690878,37.52848356530423 L19.633691950781024,37.45285741600587 L19.089884014623394,37.37388187837868 L18.547736788700895,37.29156695423737 L18.007318932958746,37.205923068311414 L17.468698888327012,37.116961066924915 L16.93194486805295,37.02469221662293 L16.397124849062134,36.92912820274461 L15.864306563349594,36.83028112794334 L15.333557489401933,36.728163510653985 L14.80494484365152,36.62278828350754 L14.278535571963907,36.51416879169324 L13.754396341159566,36.402318791268485 L13.2325935305708,36.287252447416705 L12.713193223635244,36.16898433265343 L12.196261199526763,36.047529424980745 L11.681862924824859,35.922903105990414 L11.17006354522367,35.79512115891592 L10.660927877281672,35.664199766633516 L10.154520400213027,35.53015550961289 L9.650905247721571,35.39300536381718 L9.150146199878733,35.252766698553216 L8.652306675046106,35.10945727427169 L8.157449721843804,34.96309524031793 L7.665638011165779,34.813699132633374 L7.176933828242877,34.66128787140811 L6.6913990647547905,34.505880758684754 L6.209095210991691,34.34749747591389 L5.730083348067005,34.18615808146159 L5.2544241401817295,34.021883008069125 L4.782177826941599,33.8546930602652 L4.313404215728184,33.68460941173128 L3.848162674124584,33.51165360262 L3.3865121223967627,33.3358475368272 L2.9285110260317566,33.15721347921801 L2.474217388333269,32.97577405280702 L2.023688743075841,32.79155223589326 L1.5769821472186223,32.60457135915014 L1.1341541736793381,32.414855102670714 L0.695260904169654,32.22242749296872 L0.2603579220927408,32.02731289993579 L-0.17049969449600866,31.829536033755108 L-0.5972573798643595,31.629121941772052 L-1.0198610875137035,31.426096005322 L-1.4382572970236822,31.22048393651602 L-1.8523930208302843,31.012311774984497 L-2.2622158109364747,30.80160588457939 L-2.6676737655543477,30.58839295003542 L-3.0687155356782654,30.372699973590553 L-3.465290331587944,30.154554271566326 L-3.857347929280614,29.933983470908412 L-4.244838676831655,29.711015505687797 L-4.627713500682802,29.485678613563078 L-5.005923911856904,29.258001332204344 L-5.379422012098864,29.028012495679036 L-5.748160499941726,28.79574123080024 L-6.112092676697095,28.561216953437953 L-6.47117245236921,28.32446936479376 L-6.825354351492095,28.085528447639312 L-7.174593518888734,27.844424462519143 L-7.51884572535171,27.6011879439184 L-7.85806737324458,27.35584969639579 L-8.192215502023352,27.10844079068233 L-8.521247793677112,26.85899255974647 L-8.845122578087377,26.607536594825895 L-9.163798838305482,26.354104741426664 L-9.477236215746998,26.09872909529021 L-9.785395015303038,25.841441998328552 L-10.088236210367398,25.58227603452834 L-10.38572144777902,25.32126402582435 L-10.677813052679241,25.058439027942725 L-10.96447403328311,24.793834326214615 L-11.245668085564205,24.527483431360842 L-11.521359597852268,24.25942007524791 L-11.791513655343287,23.989678206616084 L-12.056096044521283,23.71829198677991 L-12.315073257491186,23.44529578530194 L-12.568412496222479,23.170724175639997 L-12.8160816767029,22.89461193076859 L-13.058049433001635,22.616994018775195 L-13.294285121241714,22.337905598431675 L-13.524758823480859,22.057382014741616 L-13.749441351500408,21.775458794464136 L-13.968304250501859,21.49217164161456 L-14.18131980271054,21.207556432942717 L-14.38846103088585,20.92164921338936 L-14.589701701737823,20.63448619152129 L-14.785016329249409,20.34610373494569 L-14.97438017790418,20.05653836570439 L-15.157769265818878,19.7658267556486 L-15.335160367780595,19.474005721794573 L-15.50653101818822,19.181112221660918 L-15.671859513897438,18.887183348588184 L-15.8311249169694,18.59225632704119 L-15.984307057322404,18.296368507894687 L-16.131386535286275,17.99955736370316 L-16.27234472405923,17.701860483955105 L-16.407163772066937,17.403315570312483 L-16.535826605223214,17.103960431836086 L-16.658316929092415,16.80383298019721 L-16.77461923095305,16.502971224876287 L-16.884718781762352,16.20141326834929 L-16.988601638021635,15.899197301262223 L-17.086254643542183,15.596361597594454 L-17.177665431111386,15.292944509811562 L-17.262822424058974,14.98898446400823 L-17.341714837723153,14.68451995504177 L-17.414332680816436,14.379589541656923 L-17.48066675669095,14.074231841602684 L-17.54070866450315,13.768485526741538 L-17.594450800277784,13.46238931815185 L-17.641886357870817,13.155981981224121 L-17.68300932983145,12.849302320751537 L-17.717814508162917,12.54238917601552 L-17.74629748498203,12.23528141586701 L-17.76845465307744,11.928017933803922 L-17.78428320636646,11.620637643045443 L-17.79378114025043,11.313179471603977 L-17.796947251868588,11.005682357355205 " />
			<path d="M-17.796947251868588,11.005682357355083 L-17.795288671453875,10.783121147386401 L-17.79031304024528,10.56057470284429 L-17.7820206883422,10.338057788175705 L-17.770412165885922,10.115585165868502 L-17.755488243023166,9.89317159547206 L-17.73724990985498,9.670831832618049 L-17.71569837637105,9.448580628041515 L-17.69083507236944,9.22643272660227 L-17.662661647361695,9.004402866306645 L-17.63117997046347,8.782505777329737 L-17.596392130270466,8.560756181038192 L-17.55830043471989,8.339168789013506 L-17.51690741093737,8.11775830207602 L-17.472215805069233,7.8965394093096375 L-17.424228582100376,7.6755267870872625 L-17.372948925657518,7.454735098097148 L-17.31838023779801,7.2341789903701486 L-17.260526138784144,7.013873096307891 L-17.199390466842928,6.793832031712019 L-17.134977277911503,6.574070394814552 L-17.067290845367992,6.354602765309353 L-16.996335659748063,6.135443703384888 L-16.922116428446955,5.91660774875828 L-16.844638075407218,5.6981094197106685 L-16.763905740791998,5.4799632121240185 L-16.679924780644065,5.2621835985194405 L-16.59270076653044,5.044785027096997 L-16.502239485172787,4.827781920777185 L-16.40854693806348,4.6111886762441 L-16.311629341067473,4.395019662990276 L-16.21149312400989,4.179289222363378 L-16.108144930249537,3.9640116666148852 " />
			<path d="M-16.10814493024948,3.9640116666147724 L-15.986054283758687,3.705406868789467 L-15.871688197295502,3.4457495141173218 L-15.765077020012733,3.185108507471968 L-15.666249043154842,2.9235530147572315 L-15.575230492550336,2.6611524445527 L-15.492045521652273,2.3979764296949018 L-15.416716205128683,2.1340948087988982 L-15.349262533004659,1.8695776077253439 L-15.289702405357627,1.60449502099785 L-15.238051627567234,1.3389173931755292 L-15.194323906121085,1.0729152001857905 L-15.158530844977506,0.8065590306222701 L-15.13068194248618,0.5399195670128033 L-15.110784588867617,0.2730675670625311 L-15.098844064251999,0.006073844877059031 L-15.094863537278016,-0.2609907478293445 " />
			<path d="M-15.094863537278016,-0.26099074782941734 L-15.096435022976937,-0.4287977053095484 L-15.101149315435869,-0.596587082374089 L-15.109005920758609,-0.764341300449273 L-15.120004015842298,-0.9320427846447986 L-15.134142448463653,-1.099673965595052 L-15.1514197373997,-1.2672172812997886 L-15.171834072582936,-1.4346551789640436 L-15.195383315290982,-1.6019701168370417 L-15.222064998370623,-1.769144566049977 L-15.251876326496301,-1.9361610124524387 L-15.284814176462966,-2.103001958447293 L-15.320875097513266,-2.269649924823832 L-15.360055311699092,-2.4360874525889944 L-15.402350714277357,-2.6022971047964703 L-15.44775687414004,-2.768261468373496 L-15.496269034278427,-2.9339631559451513 L-15.547882112281446,-3.099384807655943 L-15.602590700868173,-3.2645090929885336 L-15.660389068454297,-3.4293187125794 L-15.721271159752622,-3.5937964000311937 L-15.785230596407416,-3.757924923721674 L-15.852260677662695,-3.9216870886089885 L-15.92235438106417,-4.085065738033129 L-15.995504363195021,-4.248043755513356 L-16.071702960445187,-4.410604066541422 L-16.15094218981428,-4.5727296403703965 L-16.23321374974792,-4.734403491798896 L-16.318509021007447,-4.895608682950569 L-16.406819067572933,-5.056328325048577 L-16.498134637579355,-5.21654558018497 L-16.59244616428589,-5.376243663084748 L-16.689743767078177,-5.535405842864347 L-16.79001725250346,-5.694015444784478 L-16.893256115338517,-5.852055851997067 L-16.999449539690247,-6.009510507286128 L-17.108586400128804,-6.166362914802394 L-17.22065526285316,-6.322596641791512 L-17.335644386888983,-6.478195320315642 L-17.45354172531867,-6.633142648968244 L-17.574334926543475,-6.787422394581921 L-17.69801133557751,-6.941018393929075 L-17.824557995373564,-7.093914555415274 L-17.953961648180567,-7.246094860765111 L-18.086208736932537,-7.3975433667003525 L-18.22128540666889,-7.548244206610252 L-18.35917750598598,-7.698181592213827 L-18.499870588519663,-7.84733981521393 L-18.643349914458806,-7.995703248942938 L-18.789600452089477,-8.143256349999898 L-18.938606879369797,-8.289983659878931 L-19.090353585535127,-8.435869806588764 L-19.244824672733564,-8.580899506263188 L-19.402003957691477,-8.725057564762267 L-19.561874973408962,-8.868328879264173 L-19.72442097088503,-9.010698439847458 L-19.889624920872322,-9.152151331063559 L-20.05746951566118,-9.29267273349944 L-20.227937170892915,-9.432247925330143 L-20.401010027402037,-9.570862283861144 L-20.576669953087293,-9.708501287060301 L-20.754898544811276,-9.84515051507927 L-20.935677130328447,-9.980795651764216 L-21.11898677024135,-10.115422486155639 L-21.304808259984824,-10.24901691397722 L-21.493122131837954,-10.381564939113433 L-21.683908656963617,-10.513052675075874 L-21.877147847475445,-10.643466346458112 L-22.072819458531818,-10.77279229037884 L-22.270902990456825,-10.901016957913303 L-22.47137769088797,-11.028126915512749 L-22.67422255695027,-11.154108846411804 L-22.879416337456643,-11.278949552023624 L-23.086937535134325,-11.402635953322639 L-23.29676440887702,-11.525155092214797 L-23.508874976022646,-11.646494132895123 L-23.723247014656348,-11.76664036319248 L-23.939858065938587,-11.885581195901349 L-24.158685436458068,-12.00330417010055 L-24.37970620060925,-12.119796952458733 L-24.602897202994118,-12.235047338526458 L-24.828235060848133,-12.34904325401483 L-25.055696166489884,-12.461772756060455 L-25.2852566897944,-12.573224034476643 L-25.51689258068971,-12.683385412990713 L-25.750579571676493,-12.792245350467274 L-25.98629318037046,-12.899792442117333 L-26.22400871206727,-13.00601542069312 L-26.463701262329693,-13.110903157668524 L-26.705345719596735,-13.214444664404965 L-26.94891676781448,-13.316629093302641 L-27.44173636635641,-13.51688403918017 L-27.94195354097759,-13.711584078090123 L-28.449358674731997,-13.900647620615707 L-28.963739138545836,-14.08399543932452 L-29.48487938032015,-14.26155070196895 L-30.012561015258353,-14.433239003682884 L-30.546562917380783,-14.5989883981612 L-31.086661312187907,-14.758729427808996 L-31.632629870433494,-14.912395152847925 L-32.18423980296835,-15.059921179367455 L-32.74125995661476,-15.201245686309244 L-33.30345691103172,-15.336309451373358 L-33.870595076530115,-15.46505587583551 L-34.44243679279708,-15.587431008264849 L-35.018742428487954,-15.703383567132406 L-35.599270481644254,-15.812864962300724 L-36.18377768089556,-15.91582931538564 L-36.77201908740278,-16.012233478981713 L-37.36374819750006,-16.102037054743178 " />
			<path d="M-37.36374819750033,-16.102037054743214 L-86.32086012657544,-0.6139785314505435 " />
			<path d="M-86.32086012657545,-0.6139785314505533 L-81.16678323339032,-11.174676069393087 " />
			<path d="M-32.20967130431521,-26.662734592685744 L-81.1667832333903,-11.174676069393074 " />
			<path d="M3.2163341411028767,6.780679942910899 L3.3196823348632876,6.565402387162287 L3.419818551920862,6.34967194653539 L3.516736148916877,6.133502933281567 L3.610428696026176,5.916909688748482 L3.700889977383831,5.699906582428669 L3.788113991497454,5.482508011006225 L3.872094951645394,5.264728397401647 L3.9528272862606073,5.046582189814998 L4.030305639300352,4.828083860767385 L4.104524870601452,4.609247906140779 L4.175480056221382,4.390088844216314 L4.243166488764892,4.170621214711114 L4.307579677696324,3.950859577813648 L4.36871534963754,3.730818513217776 L4.4265694486514064,3.510512619155518 L4.481138136510914,3.2899565114285183 L4.532417792953773,3.0691648224384034 L4.580405015922629,2.848152200216029 L4.62509662179076,2.626933307449646 L4.666489645573286,2.405522820512161 L4.704581341123863,2.183935428487475 L4.739369181316867,1.9621858321959293 L4.770850858215091,1.740288743219021 L4.799024283222835,1.5182588829233956 L4.823887587224448,1.2961109814841518 L4.845439120708377,1.0738597769076175 L4.863677453876562,0.851520014053607 L4.8786013767393115,0.629106443657164 L4.890209899195597,0.40663382134996096 L4.898502251098677,0.1841169066813771 L4.903477882307271,-0.03842953786073519 L4.905136462721984,-0.2609907478292955 " />
			<path d="M4.905136462721984,-0.26099074782941684 L4.90251731989045,-0.540669010296302 L4.894660165792224,-0.8203179720705361 L4.881565823587657,-1.099908335529176 L4.86323566511485,-1.3794108091883857 L4.839671610745924,-1.6587961107721414 L4.810876129185843,-1.9380349702800355 L4.776852237213781,-2.2170981330537938 L4.73760349936704,-2.495956362842124 L4.693134027567638,-2.774580444863683 L4.643448480691504,-3.0529411888677855 L4.588552064080403,-3.3310094321925434 L4.528450528996565,-3.608756042820108 L4.463150172020185,-3.8861519224287115 L4.392657834389752,-4.163168009441172 L4.316980901285277,-4.439775282069547 L4.236127301054637,-4.71594476135564 L4.150105504382935,-4.99164751420696 L4.058924523405061,-5.2668546564279435 L3.9625939107615125,-5.541537355746054 L3.8611237585976426,-5.815666834832378 L3.7545246975063122,-6.089214374316511 L3.6428078954141867,-6.362151315795368 L3.525985056411727,-6.634449064835603 L3.404068419526979,-6.906079093969315 L3.2770707574433615,-7.177012945682758 L3.1450053751615457,-7.447222235397715 L3.007886108605476,-7.716678654445215 L2.8657273231729334,-7.985353973031337 L2.7185439122304587,-8.253220043194682 L2.5663512955530834,-8.520248801755338 L2.409165417708863,-8.786412273254967 L2.2470027463883824,-9.051682572887632 L2.079880270679574,-9.316031909421184 L1.907815499287814,-9.579432588108832 L1.7308264587015998,-9.841857013590602 L1.5489316913040057,-10.103277692784378 L1.3621502534300731,-10.363667237766242 L1.1705017133703706,-10.62299836863979 L0.9740061493208998,-10.881243916394128 L0.7726841472795556,-11.138376825750255 L0.5665567988894935,-11.394370157995512 L0.3556456992294059,-11.649197093805844 L0.13997294455106868,-11.902830936055572 L-0.08043887003555028,-12.155245112614308 L-0.30556665292947116,-12.406413179130807 L-0.5353868184579511,-12.656308821803432 L-0.7698752893474321,-12.904905860136937 L-1.009007499245996,-13.152178249685285 L-1.2527583952971213,-13.398100084780218 L-1.5011024407643134,-13.642645601245272 L-1.7540136177065335,-13.885789179094994 L-2.0114654297039323,-14.127505345219035 L-2.273430904633784,-14.367768776050832 L-2.539882597496259,-14.606554300220674 L-2.8107925932897118,-14.843836901192816 L-3.0861325099351973,-15.07959171988632 L-3.3658735012499506,-15.313794057279454 L-3.6499862599695163,-15.546419376997294 L-3.938441020818054,-15.777443307882294 L-4.2312075636268105,-16.006841646547556 L-4.5282552165001135,-16.234590359912502 L-4.82955285902873,-16.460665587720747 L-5.135068925550236,-16.685043645039784 L-5.444771408456035,-16.907701024742423 L-5.758627861544575,-17.128614399969443 L-6.076605403420686,-17.34776062657351 L-6.398670720940402,-17.565116745543904 L-6.724790072701019,-17.780659985411788 L-7.054929292576034,-17.99436776463589 L-7.389053793294607,-18.2062176939683 L-7.727128570065105,-18.416187578800063 L-8.069118204242393,-18.624255421486424 L-8.414986867038529,-18.83039942365145 L-8.764698323276356,-19.034597988471717 L-9.11821593518573,-19.23682972293893 L-9.475502666241901,-19.437073440101187 L-9.836521085045632,-19.635308161282637 L-10.201233369244768,-19.831513118281308 L-10.56960130949674,-20.025667755544944 L-10.941586313471525,-20.217751732324487 L-11.317149409894874,-20.4077449248051 L-11.696251252631136,-20.595627428214478 L-12.078852124805323,-20.781379558908128 L-12.464911942964171,-20.964981856431578 L-12.854390261275476,-21.146415085559177 L-13.24724627576542,-21.325660238309275 L-13.643438828593439,-21.502698535935586 L-14.042926412364139,-21.677511430894597 L-14.445667174475883,-21.850080608788666 L-14.851618921505459,-22.02038799028479 L-15.260739123628532,-22.188415733008675 L-15.672984919075336,-22.354146233414 L-16.08831311862106,-22.517562128626693 L-16.506680210110638,-22.678646298263928 L-16.928042363017333,-22.837381866227773 L-17.352355433034653,-22.99375220247323 L-17.779574966701166,-23.1477409247505 L-18.209656206057716,-23.299331900321256 L-18.642554093336493,-23.448509247648808 L-19.078223275681577,-23.59525733806197 L-19.51661810990032,-23.73956079739238 L-19.957692667245244,-23.881404507585195 L-20.401400738225732,-24.020773608282937 L-20.84769583744929,-24.157653498382388 L-21.29653120849149,-24.292029837564215 L-21.7478598287945,-24.42388854779538 L-22.201634414593546,-24.553215814804076 L-22.65780742587048,-24.679998089526926 L-23.11633107133441,-24.804222089528494 L-23.57715731342857,-24.925874800392812 L-24.04023787336302,-25.04494347708686 L-24.505524236172594,-25.16141564529579 L-24.97296765579963,-25.275279102729833 L-25.442519160200852,-25.38652192040265 L-25.914129556478,-25.495132443881104 L-26.38774943603152,-25.601099294506234 L-26.863329179736915,-25.704411370585362 L-27.340818963143125,-25.805057848555137 L-27.820168761692415,-25.903028184115506 L-28.30132835596124,-25.9983121133344 L-28.784247336921513,-26.090899653722992 L-29.26887511122175,-26.18078110528159 L-29.755160906487504,-26.26794705151581 L-30.243053776640586,-26.35238836042312 L-30.732502607236466,-26.43409618544956 L-31.223456120819293,-26.513061966416572 L-31.715862882294047,-26.58927743041778 L-32.20967130431475,-26.662734592685688 " />
			<path d="M80.51425042651229,18.047353048095413 L61.189771355159934,15.23068477179928 " />
			<path d="M-32.20967130431521,-26.662734592685744 L-32.20967130431521,-43.412004646434404 " />
			<path d="M-81.1667832333903,-11.174676069393085 L-81.1667832333903,-27.92394612314174 " />
			<path d="M-86.32086012657544,-17.36324858519921 L-86.32086012657544,-0.6139785314505541 " />
			<path d="M-16.10814493024948,-4.4859931622736 L-16.10814493024948,3.9640116666147662 " />
			<path d="M-17.796947251868588,-5.743587696393576 L-17.796947251868588,11.00568235735508 " />
			<path d="M4.905136462721984,-0.26099074782941933 L4.905136462721984,-17.010260801578077 " />

        </g>
        </g>
    </svg>
    