<?xml version="1.0" encoding="UTF-8" standalone="no"?>
    <svg
    xmlns:svg="http://www.w3.org/2000/svg"
    xmlns="http://www.w3.org/2000/svg"
    width="415"
    height="231"
    >
        <g transform="scale(4, -4)   translate(52.1019333181019,-28.87909630944602)" stroke-width="0.25"  fill="none">
        <!-- hidden lines -->
        <g  stroke="rgb(160,160,160)" fill="none" stroke-dasharray="0.25,0.25" >
    			<path d="M-49.6019333181019,-7.682500378754741 L6.922603189072568,17.415510245897806 " />
			<path d="M6.922603189072571,17.415510245897803 L6.922603189072571,26.379096309446016 " />
			<path d="M49.38198889606461,-1.3787453522717836 L6.922603189072568,17.415510245897806 " />
			<path d="M-11.46701720226803,-14.279257837856102 L-11.789254680790393,-14.168688199659504 L-12.175340081429178,-14.093144498125223 L-12.615111415977186,-14.054615086614586 L-13.096993651791003,-14.054114081239605 L-13.60830337325974,-14.09165466874784 L-14.135582616546396,-14.166248759439648 L-14.664953090880807,-14.275932994253331 L-15.182481463097506,-14.417820421496726 L-15.674546090920828,-14.588176483064265 L-16.12819555236785,-14.782517310138818 L-16.531489534570486,-14.995727741179332 L-16.873813109628344,-15.222195955893456 L-17.14615612557237,-15.455961181552095 L-17.34135035870969,-15.690870583931348 " />
			<path d="M-17.341350358709697,-15.690870583931355 L-17.474960049585572,-16.00586773245267 L-17.445103484206033,-16.295470078574194 L-17.25327779542938,-16.54515575138727 L-16.909101924285217,-16.742404468660453 L-16.429834286106026,-16.87732535607073 L-15.839507361517532,-16.943152916942775 L-15.167722607509239,-16.936586282502496 L-14.448166116776033,-16.857954731220612 L-13.716919456369602,-16.711201177415166 L-13.010650387262935,-16.503684457063454 L-12.364774189703915,-16.245810325038292 L-11.811677793182364,-15.950509667108054 L-11.37909576054934,-15.632590091329556 L-11.088719561226387,-15.307993412748916 " />
			<path d="M-11.088719561226377,-15.307993412748903 L-11.035709075045354,-15.219336278545944 L-10.994910041075254,-15.131754962180029 L-10.966479164061555,-15.045585854162256 L-10.950525643975741,-14.961159920861821 L-10.94711075658984,-14.878801433299426 L-10.956247618122703,-14.798826721656827 L-10.977901134862016,-14.721542960286277 L-11.011988137955498,-14.64724698788655 L-11.058377702853633,-14.576224167377102 L-11.11689165217688,-14.508747289849483 L-11.18730524007606,-14.445075526805791 L-11.269348015457222,-14.385453434708543 L-11.362704860755475,-14.330110015665328 L-11.467017202268016,-14.27925783785611 " />
			<path d="M10.517124859345104,-4.517864553964166 L10.194887380822781,-4.4072949157675785 L9.808801980184047,-4.331751214233299 L9.369030645636094,-4.293221802722655 L8.887148409822343,-4.292720797347662 L8.37583868835367,-4.330261384855872 L7.848559445067078,-4.404855475547653 L7.319188970732718,-4.5145397103613005 L6.801660598516062,-4.6564271376046555 L6.309595970692763,-4.826783199172153 L5.8559465092457454,-5.021124026246662 L5.452652527043088,-5.234334457287136 L5.110328951985188,-5.460802672001225 L4.837985936041087,-5.694567897659834 L4.642791702903674,-5.929477300039065 " />
			<path d="M4.6427917029036685,-5.929477300039071 L4.509182012027592,-6.244474448560574 L4.539038577407102,-6.534076794682262 L4.730864266183905,-6.78376246749546 L5.075040137328379,-6.981011184768704 L5.554307775508006,-7.115932072178962 L6.144634700097009,-7.1817596330509055 L6.81641945410583,-7.175192998610443 L7.53597594483952,-7.096561447328301 L8.267222605246332,-6.949807893522541 L8.973491674353207,-6.742291173170482 L9.619367871912214,-6.484417041144973 L10.17246426843351,-6.189116383214415 L10.605046301066004,-5.871196807435656 L10.895422500388158,-5.54660012885485 " />
			<path d="M10.895422500388168,-5.546600128854837 L10.948432986568822,-5.457942994652051 L10.98923202053859,-5.370361678286313 L11.017662897551995,-5.28419257026872 L11.033616417637557,-5.199766636968462 L11.037031305023252,-5.117408149406246 L11.027894443490222,-5.03743343776382 L11.006240926750788,-4.96014967639344 L10.972153923657224,-4.885853703993876 L10.925764358759059,-4.814830883484581 L10.86725040943582,-4.747354005957105 L10.79683682153669,-4.683682242913546 L10.714794046155625,-4.624060150816418 L10.621437200857505,-4.568716731773309 L10.517124859345119,-4.5178645539641735 " />
			<path d="M-22.08186362901604,-9.580693938313704 L-22.404101107538395,-9.47012430011711 L-22.790186508177168,-9.394580598582829 L-23.22995784272517,-9.35605118707219 L-23.711840078538973,-9.355550181697208 L-24.2231498000077,-9.393090769205436 L-24.750429043294343,-9.46768485989724 L-25.279799517628746,-9.577369094710917 L-25.797327889845434,-9.719256521954303 L-26.28939251766875,-9.889612583521835 L-26.743041979115773,-10.083953410596381 L-27.146335961318414,-10.297163841636886 L-27.48865953637628,-10.523632056351003 L-27.76100255232032,-10.757397282009638 L-27.956196785457664,-10.992306684388888 " />
			<path d="M-27.956196785457667,-10.992306684388895 L-28.08980647633357,-11.307303832910218 L-28.05994991095406,-11.596906179031752 L-27.868124222177435,-11.846591851844837 L-27.523948351033287,-12.043840569118032 L-27.044680712854102,-12.17876145652832 L-26.454353788265617,-12.244589017400376 L-25.78256903425732,-12.238022382960105 L-25.063012543524106,-12.159390831678225 L-24.33176588311766,-12.012637277872782 L-23.625496814010983,-11.805120557521068 L-22.97962061645195,-11.547246425495906 L-22.426524219930386,-11.251945767565665 L-21.993942187297357,-10.934026191787162 L-21.703565987974397,-10.60942951320652 " />
			<path d="M-21.703565987974386,-10.609429513206507 L-21.650555501793363,-10.520772379003548 L-21.609756467823264,-10.433191062637633 L-21.581325590809563,-10.34702195461986 L-21.56537207072375,-10.262596021319425 L-21.56195718333785,-10.18023753375703 L-21.571094044870712,-10.10026282211443 L-21.592747561610025,-10.02297906074388 L-21.626834564703508,-9.948683088344152 L-21.673224129601643,-9.877660267834704 L-21.73173807892489,-9.810183390307085 L-21.80215166682407,-9.746511627263393 L-21.88419444220523,-9.686889535166147 L-21.977551287503484,-9.631546116122932 L-22.081863629016027,-9.580693938313713 " />
			<path d="M-0.09772156740290594,0.18069934557823153 L-0.4199590459251912,0.2912689837748079 L-0.8060444465638748,0.3668126853090854 L-1.2458157811117632,0.40534209681973543 L-1.7276980169254514,0.4058431021947433 L-2.239007738394058,0.3683025146865555 L-2.7662869816805893,0.29370842399480424 L-3.2956574560148946,0.18402418918119157 L-3.813185828231511,0.04213676193787652 L-4.305250456054786,-0.12821929962957768 L-4.758899917501801,-0.32256012670404477 L-5.162193899704477,-0.5357705577444776 L-5.504517474762423,-0.7622387724585282 L-5.776860490706595,-0.9960039981171063 L-5.972054723844103,-1.230913400496316 " />
			<path d="M-5.972054723844108,-1.2309134004963225 L-6.105664414720317,-1.5459105490175968 L-6.075807849341211,-1.8355128951391255 L-5.88398216056506,-2.085198567952267 L-5.539806289421437,-2.2824472852255777 L-5.06053865124279,-2.417368172636043 L-4.470211726654807,-2.4831957335083295 L-3.7984269726469484,-2.476629099068338 L-3.078870481914061,-2.397997547786769 L-2.347623821507793,-2.2512439939816504 L-1.6413547524011114,-2.0437272736302567 L-0.9954785548418843,-1.785853141605386 L-0.44238215831991345,-1.490552483675386 L-0.009800125686275862,-1.1726329078970537 L0.28057607363747034,-0.8480362293164894 " />
			<path d="M0.2805760736374818,-0.8480362293164765 L0.3335865598188388,-0.7593790951133625 L0.37438559378923486,-0.6717977787472917 L0.40281647080319427,-0.5856286707293608 L0.41876999088923395,-0.5012027374287653 L0.422184878275325,-0.41884424986621305 L0.4130480167426107,-0.33886953822345944 L0.39139450000340936,-0.2615857768527601 L0.3573074969099954,-0.187289804452889 L0.31091793201189777,-0.11626698394330504 L0.2524039826886444,-0.048790106415554924 L0.1819903947894188,0.014881656628253026 L0.09994761940818098,0.07450374872560772 L0.0065907741098127914,0.1298471677689168 L-0.0977215674028901,0.18069934557822337 " />
			<path d="M-11.08871956359245,-15.307993416318181 L-2.6683046320899284,-2.605576811681857 " />
			<path d="M-17.341350355796415,-15.690870579536593 L-8.920935424276507,-2.988453974874039 " />
			<path d="M13.063206637336815,6.772939309018179 L4.642791705818139,-5.929477295642514 " />
			<path d="M19.315837429509713,7.155816472189721 L10.895422497998524,-5.546600132459677 " />
			<path d="M-21.703565990340458,-10.609429516775785 L-13.283151058837937,2.092987087860539 " />
			<path d="M-27.956196782544367,-10.992306679994112 L-19.535781851024463,1.7101099246684353 " />
			<path d="M2.4483602105884867,11.471503208560094 L-5.97205472092957,-1.2309133960996643 " />
			<path d="M8.700991002761704,11.85438037173212 L0.2805760712470594,-0.848036232922492 " />

        </g>

        <!-- solid lines -->
        <g  stroke="rgb(0,0,0)" fill="none">
    			<path d="M-7.142547611109858,-26.476755976924327 L-7.142547611109858,-17.513169913376114 " />
			<path d="M-7.142547611109858,-17.513169913376114 L-49.6019333181019,1.2810856847934744 " />
			<path d="M-49.6019333181019,-7.682500378754741 L-49.6019333181019,1.2810856847934726 " />
			<path d="M-7.142547611109858,-26.476755976924327 L-49.6019333181019,-7.682500378754739 " />
			<path d="M-7.142547611109858,-26.476755976924327 L49.38198889606461,-1.3787453522717783 " />
			<path d="M49.38198889606461,-1.3787453522717836 L49.38198889606461,7.58484071127643 " />
			<path d="M-7.142547611109858,-17.513169913376114 L49.38198889606461,7.584840711276435 " />
			<path d="M-49.6019333181019,1.2810856847934726 L6.922603189072568,26.37909630944602 " />
			<path d="M49.38198889606461,7.58484071127643 L6.922603189072568,26.37909630944602 " />
			<path d="M-3.0466022707495615,-1.576841233195724 L-3.368839749271854,-1.466271594999145 L-3.7549251499105436,-1.3907278934648675 L-4.19469648445844,-1.3521984819542183 L-4.676578720272137,-1.3516974765792122 L-5.187888441740752,-1.3892380640874027 L-5.715167685027291,-1.4638321547791593 L-6.244538159361603,-1.5735163895927755 L-6.762066531578226,-1.7154038168360968 L-7.2541311594015045,-1.8857598784035563 L-7.707780620848521,-2.0801007054780296 L-8.111074603051195,-2.2933111365184677 L-8.453398178109135,-2.5197793512325237 L-8.725741194053297,-2.753544576891106 L-8.920935427190791,-2.988453979270318 " />
			<path d="M-8.920935427190797,-2.988453979270324 L-9.054545118067018,-3.3034511277918224 L-9.024688552687685,-3.5930534739135265 L-8.832862863911073,-3.8427391467267604 L-8.488686992766791,-4.039987864000057 L-8.00941935458735,-4.17490875141039 L-7.419092429998518,-4.240736312282422 L-6.7473076759898305,-4.234169677842061 L-6.027751185256231,-4.155538126560026 L-5.29650452484946,-4.008784572754376 L-4.5902354557425635,-3.80126785240242 L-3.9443592581834706,-3.5433937203770016 L-3.391262861662028,-3.2480930624465145 L-2.9586808290293254,-2.9301734866678046 L-2.6683046297069124,-2.6055768080870148 " />
			<path d="M-2.668304629706901,-2.605576808087002 L-2.6152941435261416,-2.5169196738841677 L-2.574495109556281,-2.429338357518379 L-2.54606423254279,-2.3431692495007344 L-2.530110712457157,-2.2587433162004267 L-2.5266958250714042,-2.1763848286381595 L-2.535832686604383,-2.096410116995685 L-2.5574862033437835,-2.019126355625257 L-2.5915732064373262,-1.9448303832256464 L-2.63796277133548,-1.8738075627163076 L-2.696476720658721,-1.8063306851887901 L-2.7668903085578647,-1.7426589221451945 L-2.848933083938956,-1.6830368300480325 L-2.9422899292371136,-1.627693411004893 L-3.0466022707495464,-1.5768412331957313 " />
			<path d="M18.93753979086357,8.184552050696212 L18.615302312341214,8.29512168889281 L18.229216911702437,8.370665390427092 L17.78944557715443,8.40919480193773 L17.307563341340625,8.40969580731271 L16.796253619871894,8.37215521980448 L16.26897437658525,8.297561129112674 L15.739603902250844,8.187876894298997 L15.222075530034154,8.045989467055607 L14.730010902210832,7.875633405488073 L14.27636144076381,7.681292578413526 L13.873067458561174,7.468082147373018 L13.53074388350331,7.241613932658897 L13.25840086755927,7.007848707000262 L13.063206634421942,6.772939304621013 " />
			<path d="M13.063206634421931,6.7729393046210005 L12.929596943545908,6.457942156098916 L12.959453508926115,6.168339809976791 L13.151279197704222,5.918654137163378 L13.4954550688505,5.721405419890202 L13.974722707032278,5.586484532480327 L14.565049631623573,5.520656971609093 L15.236834385634598,5.527223606050566 L15.956390876370161,5.60585515733397 L16.687637536778283,5.7526087111411615 L17.393906605885693,5.960125431494722 L18.039782803444297,6.217999563521688 L18.59287919996414,6.513300221453532 L19.025461232594107,6.831219797233286 L19.315837431912687,7.155816475814676 " />
			<path d="M19.31583743191271,7.155816475814702 L19.368847918091774,7.2444736100167475 L19.40964695206011,7.332054926381727 L19.438077829072256,7.418224034398554 L19.454031349156736,7.502649967698043 L19.45744623654153,7.5850084552595 L19.448309375007785,7.664983166901179 L19.42665585826782,7.742266928270835 L19.39256885517392,7.816562900669704 L19.346179290275604,7.887585721178339 L19.287665340952397,7.955062598705199 L19.217251753053482,8.018734361748187 L19.13520897767281,8.078356453844803 L19.041852132375254,8.133699872887457 L18.9375397908636,8.184552050696198 " />
			<path d="M-13.661448697497573,3.121722666346673 L-13.983686176019857,3.2322923045432503 L-14.369771576658538,3.3078360060775274 L-14.809542911206425,3.3463654175881774 L-15.291425147020108,3.346866422963186 L-15.802734868488713,3.309325835454999 L-16.33001411177524,3.2347317447632484 L-16.859384586109545,3.125047509949638 L-17.37691295832616,2.9831600827063247 L-17.868977586149434,2.8128040211388714 L-18.32262704759645,2.618463194064406 L-18.725921029799128,2.4052527630239755 L-19.068244604857075,2.178784548309925 L-19.340587620801248,1.9450193226513495 L-19.535781853938758,1.7101099202721424 " />
			<path d="M-19.535781853938765,1.710109920272136 L-19.66939154481502,1.395112771750628 L-19.639534979435712,1.1055104256289163 L-19.447709290659123,0.8558247528156713 L-19.103533419514857,0.6585760355423624 L-18.624265781335428,0.5236551481320184 L-18.033938856746595,0.45782758725997796 L-17.362154102737907,0.4643942217003314 L-16.6425976120043,0.54302577298236 L-15.911350951597523,0.6897793267880088 L-15.205081882490614,0.8972960471399629 L-14.55920568493151,1.1551701791653821 L-14.006109288410055,1.450470837095871 L-13.573527255777346,1.7683904128745849 L-13.283151056454921,2.0929870914553823 " />
			<path d="M-13.28315105645491,2.092987091455395 L-13.230140570274152,2.18164422565823 L-13.18934153630429,2.269225542024018 L-13.1609106592908,2.3553946500416623 L-13.144957139205166,2.4398205833419704 L-13.141542251819413,2.5221790709042375 L-13.150679113352393,2.6021537825467123 L-13.172332630091793,2.6794375439171403 L-13.206419633185336,2.753733516316751 L-13.252809198083488,2.824756336826089 L-13.31132314740673,2.8922332143536074 L-13.381736735305875,2.9559049773972026 L-13.463779510686965,3.0155270694943646 L-13.557136355985124,3.070870488537504 L-13.661448697497557,3.1217226663466655 " />
			<path d="M8.322693364115562,12.883115950238608 L8.000455885593162,12.993685588435216 L7.61437048495433,13.069229289969499 L7.174599150406263,13.107758701480133 L6.692716914592384,13.108259706855097 L6.18140719312358,13.070719119346847 L5.654127949836863,12.996125028655005 L5.1247574755024,12.886440793841288 L4.607229103285663,12.744553366597856 L4.1151644754623184,12.574197305030275 L3.6615150140152917,12.37985647795568 L3.258221031812673,12.166646046915126 L2.915897456754861,11.940177832200963 L2.643554440810897,11.706412606542294 L2.4483602076736792,11.47150320416303 " />
			<path d="M2.4483602076736686,11.471503204163017 L2.31475051679784,11.156506055640978 L2.3446070821782206,10.866903709518912 L2.5364327709564636,10.617218036705566 L2.8806086421028425,10.419969319432457 L3.3598762802846807,10.285048432022645 L3.950203204875999,10.219220871151471 L4.6219879588870105,10.22578750559299 L5.341544449622532,10.304419056876426 L6.072791110030586,10.451172610683635 L6.779060179137923,10.658689331037202 L7.424936376696452,10.91656346306416 L7.978032773216228,11.211864120995989 L8.410614805846134,11.529783696775716 L8.700991005164676,11.854380375357074 " />
			<path d="M8.700991005164699,11.8543803753571 L8.754001491343764,11.943037509559147 L8.7948005253121,12.030618825924126 L8.823231402324247,12.116787933940952 L8.839184922408727,12.201213867240444 L8.84259980979352,12.2835723548019 L8.833462948259774,12.363547066443576 L8.811809431519814,12.440830827813233 L8.777722428425909,12.515126800212101 L8.73133286352759,12.58614962072074 L8.672818914204385,12.653626498247597 L8.60240532630547,12.717298261290587 L8.520362550924798,12.776920353387201 L8.427005705627241,12.832263772429854 L8.322693364115592,12.883115950238594 " />

        </g>
        </g>
    </svg>
    