<?xml version='1.0' encoding='utf-8'?>
<svg width="100.09mm" height="49.511265mm" viewBox="-51.266712 -25.420178 97.154666 48.059251" version="1.1" xmlns="http://www.w3.org/2000/svg">
  <g transform="scale(1,-1)" stroke-linecap="round">
    <g fill="none" stroke="rgb(0,0,0)" stroke-width="0.08736057516110945" id="Visible">
      <line x1="2.11869" y1="7.556043" x2="-17.097895" y2="5.152521" />
      <line x1="-21.905964" y1="-4.166791" x2="-21.905964" y2="-3.265699" />
      <line x1="-17.097895" y1="5.152521" x2="-21.905964" y2="-3.265699" />
      <line x1="-7.497448" y1="-10.181489" x2="-7.497448" y2="-9.280397" />
      <line x1="-21.905964" y1="-4.166791" x2="-7.497448" y2="-10.181489" />
      <line x1="-21.905964" y1="-3.265699" x2="-7.497448" y2="-9.280397" />
      <line x1="-7.497448" y1="-10.181489" x2="-1.21203" y2="-9.395338" />
      <line x1="-7.497448" y1="-9.280397" x2="-1.21203" y2="-8.494246" />
      <line x1="16.527206" y1="0.640253" x2="16.527206" y2="1.541345" />
      <line x1="14.971587" y1="-2.083406" x2="16.527206" y2="0.640253" />
      <line x1="14.518853" y1="-1.974986" x2="16.527206" y2="1.541345" />
      <line x1="16.527206" y1="1.541345" x2="2.11869" y2="7.556043" />
      <line x1="17.847644" y1="13.739952" x2="17.847644" y2="17.34432" />
      <line x1="31.987222" y1="17.460939" x2="17.847644" y2="17.34432" />
      <line x1="18.116582" y1="7.608635" x2="18.116582" y2="11.213003" />
      <line x1="17.847644" y1="13.739952" x2="18.116582" y2="7.608635" />
      <line x1="17.847644" y1="17.34432" x2="18.116582" y2="11.213003" />
      <line x1="18.116582" y1="7.608635" x2="26.430813" y2="7.677208" />
      <line x1="18.116582" y1="11.213003" x2="26.430813" y2="11.281576" />
      <line x1="32.151056" y1="13.725805" x2="31.987222" y2="17.460939" />
      <line x1="-23.383313" y1="13.700668" x2="-23.383313" y2="20.008312" />
      <line x1="-16.546431" y1="25.376498" x2="-23.383313" y2="20.008312" />
      <line x1="-11.00361" y1="10.736005" x2="-11.00361" y2="17.043649" />
      <line x1="-23.383313" y1="13.700668" x2="-11.00361" y2="10.736005" />
      <line x1="-23.383313" y1="20.008312" x2="-11.00361" y2="17.043649" />
      <line x1="-4.166728" y1="16.104191" x2="-4.166728" y2="22.411835" />
      <line x1="-11.00361" y1="10.736005" x2="-4.166728" y2="16.104191" />
      <line x1="-11.00361" y1="17.043649" x2="-4.166728" y2="22.411835" />
      <line x1="-4.166728" y1="22.411835" x2="-16.546431" y2="25.376498" />
      <line x1="-51.223032" y1="3.449014" x2="-51.223032" y2="12.459934" />
      <line x1="-43.920335" y1="-1.802553" x2="-43.920335" y2="7.208367" />
      <line x1="-51.223032" y1="3.449014" x2="-43.920335" y2="-1.802553" />
      <line x1="-51.223032" y1="12.459934" x2="-43.920335" y2="7.208367" />
      <line x1="-31.80957" y1="1.364101" x2="-31.80957" y2="10.375021" />
      <line x1="-43.920335" y1="-1.802553" x2="-37.634917" y2="-0.159077" />
      <line x1="-35.180667" y1="0.482646" x2="-31.80957" y2="1.364101" />
      <line x1="-43.920335" y1="7.208367" x2="-31.80957" y2="10.375021" />
      <line x1="-31.80957" y1="10.375021" x2="-39.112267" y2="15.626588" />
      <line x1="-39.112267" y1="15.626588" x2="-51.223032" y2="12.459934" />
      <line x1="-37.36598" y1="-17.383109" x2="-37.36598" y2="-5.668913" />
      <line x1="-23.226401" y1="-17.26649" x2="-23.226401" y2="-5.552294" />
      <line x1="-37.36598" y1="-17.383109" x2="-23.226401" y2="-17.26649" />
      <line x1="-37.36598" y1="-5.668913" x2="-23.226401" y2="-5.552294" />
      <line x1="-23.226401" y1="-5.552294" x2="-23.495339" y2="0.579023" />
      <line x1="-37.634917" y1="-11.251792" x2="-37.634917" y2="0.462404" />
      <line x1="-23.495339" y1="0.579023" x2="-37.634917" y2="0.462404" />
      <line x1="-37.634917" y1="-11.251792" x2="-37.36598" y2="-17.383109" />
      <line x1="-37.634917" y1="0.462404" x2="-37.36598" y2="-5.668913" />
      <line x1="11.167673" y1="-22.595392" x2="11.167673" y2="-8.17792" />
      <line x1="18.004555" y1="-17.227206" x2="18.004555" y2="-2.809735" />
      <line x1="11.167673" y1="-22.595392" x2="18.004555" y2="-17.227206" />
      <line x1="11.167673" y1="-8.17792" x2="18.004555" y2="-2.809735" />
      <line x1="18.004555" y1="-2.809735" x2="5.624853" y2="0.154929" />
      <line x1="-1.21203" y1="-19.630729" x2="-1.21203" y2="-5.213257" />
      <line x1="5.624853" y1="0.154929" x2="-1.21203" y2="-5.213257" />
      <line x1="-1.21203" y1="-19.630729" x2="11.167673" y2="-22.595392" />
      <line x1="-1.21203" y1="-5.213257" x2="11.167673" y2="-8.17792" />
      <line x1="45.844274" y1="-6.975552" x2="45.844274" y2="10.145196" />
      <line x1="45.844274" y1="10.145196" x2="38.541578" y2="15.396762" />
      <line x1="26.430813" y1="-4.890639" x2="26.430813" y2="12.230109" />
      <line x1="38.541578" y1="15.396762" x2="26.430813" y2="12.230109" />
      <line x1="33.733509" y1="-10.142206" x2="33.733509" y2="6.978542" />
      <line x1="26.430813" y1="-4.890639" x2="33.733509" y2="-10.142206" />
      <line x1="26.430813" y1="12.230109" x2="33.733509" y2="6.978542" />
      <line x1="33.733509" y1="-10.142206" x2="45.844274" y2="-6.975552" />
      <line x1="33.733509" y1="6.978542" x2="45.844274" y2="10.145196" />
    </g>
    <g fill="none" stroke="rgb(99,99,99)" stroke-width="0.08736057516110945" id="Hidden" stroke-dasharray="0.002219 0.263191">
      <line x1="2.11869" y1="6.654951" x2="2.11869" y2="7.556043" />
      <line x1="-17.097895" y1="4.251429" x2="-17.097895" y2="5.152521" />
      <line x1="2.11869" y1="6.654951" x2="-17.097895" y2="4.251429" />
      <line x1="-17.097895" y1="4.251429" x2="-21.905964" y2="-4.166791" />
      <line x1="11.719137" y1="-7.777967" x2="11.719137" y2="-6.876875" />
      <line x1="-1.21203" y1="-9.395338" x2="11.719137" y2="-7.777967" />
      <line x1="-1.21203" y1="-8.494246" x2="11.719137" y2="-6.876875" />
      <line x1="11.719137" y1="-7.777967" x2="14.971587" y2="-2.083406" />
      <line x1="11.719137" y1="-6.876875" x2="14.518853" y2="-1.974986" />
      <line x1="16.527206" y1="0.640253" x2="2.11869" y2="6.654951" />
      <line x1="31.987222" y1="13.856571" x2="31.987222" y2="17.460939" />
      <line x1="31.987222" y1="13.856571" x2="17.847644" y2="13.739952" />
      <line x1="32.25616" y1="7.725254" x2="32.25616" y2="11.329622" />
      <line x1="26.430813" y1="7.677208" x2="32.25616" y2="7.725254" />
      <line x1="26.430813" y1="11.281576" x2="32.25616" y2="11.329622" />
      <line x1="32.25616" y1="7.725254" x2="31.987222" y2="13.856571" />
      <line x1="32.25616" y1="11.329622" x2="32.151056" y2="13.725805" />
      <line x1="-16.546431" y1="19.068854" x2="-16.546431" y2="25.376498" />
      <line x1="-16.546431" y1="19.068854" x2="-23.383313" y2="13.700668" />
      <line x1="-4.166728" y1="16.104191" x2="-16.546431" y2="19.068854" />
      <line x1="-37.634917" y1="-0.159077" x2="-35.180667" y2="0.482646" />
      <line x1="-39.112267" y1="6.615668" x2="-39.112267" y2="15.626588" />
      <line x1="-31.80957" y1="1.364101" x2="-39.112267" y2="6.615668" />
      <line x1="-39.112267" y1="6.615668" x2="-51.223032" y2="3.449014" />
      <line x1="-23.495339" y1="-11.135173" x2="-23.495339" y2="0.579023" />
      <line x1="-23.226401" y1="-17.26649" x2="-23.495339" y2="-11.135173" />
      <line x1="-23.495339" y1="-11.135173" x2="-37.634917" y2="-11.251792" />
      <line x1="5.624853" y1="-14.262543" x2="5.624853" y2="0.154929" />
      <line x1="18.004555" y1="-17.227206" x2="5.624853" y2="-14.262543" />
      <line x1="5.624853" y1="-14.262543" x2="-1.21203" y2="-19.630729" />
      <line x1="38.541578" y1="-1.723985" x2="38.541578" y2="15.396762" />
      <line x1="45.844274" y1="-6.975552" x2="38.541578" y2="-1.723985" />
      <line x1="38.541578" y1="-1.723985" x2="26.430813" y2="-4.890639" />
    </g>
  </g>
</svg>