<?xml version='1.0' encoding='utf-8'?>
<svg width="100.089999mm" height="52.299489mm" viewBox="-47.469091 -24.156398 94.938181 49.607537" version="1.1" xmlns="http://www.w3.org/2000/svg">
  <g transform="scale(1,-1)" stroke-linecap="round">
    <g fill="none" stroke="rgb(0,0,0)" stroke-width="0.08536753254814713" id="Visible">
      <line x1="-10.606602" y1="-19.38276" x2="-45.961941" y2="-3.668874" />
      <line x1="-10.606602" y1="-24.757565" x2="-45.961941" y2="-9.043679" />
      <line x1="-7.071068" y1="-18.721781" x2="-7.071068" y2="-14.856724" />
      <path d="M -10.606602,-19.38276 L -10.402801,-19.46135 L -10.188517,-19.520656 L -9.964424,-19.560492 L -9.731228,-19.580731 L -9.489662,-19.581311 L -9.240487,-19.562229 L -8.984485,-19.523546 L -8.722463,-19.465383 L -8.455245,-19.387923 L -8.183672,-19.291411 L -7.908599,-19.176149 L -7.63089,-19.0425 L -7.35142,-18.890885 L -7.071068,-18.721781" />
      <line x1="-7.071068" y1="-14.856724" x2="-43.84062" y2="1.485718" />
      <line x1="-47.426407" y1="-0.785616" x2="-43.84062" y2="1.485718" />
      <path d="M -45.961941,-3.668874 L -46.154618,-3.571247 L -46.335564,-3.454891 L -46.504211,-3.320171 L -46.660028,-3.167511 L -46.802524,-2.997392 L -46.931251,-2.810349 L -47.045805,-2.606971 L -47.145824,-2.387897 L -47.230993,-2.153816 L -47.301046,-1.905466 L -47.355762,-1.643627 L -47.394968,-1.369124 L -47.418541,-1.08282 L -47.426407,-0.785616" />
      <path d="M -7.071068,-18.721781 L -6.790716,-18.890885 L -6.511245,-19.0425 L -6.233537,-19.176149 L -5.958463,-19.291411 L -5.68689,-19.387923 L -5.419673,-19.465383 L -5.157651,-19.523546 L -4.901649,-19.562229 L -4.652473,-19.581311 L -4.410907,-19.580731 L -4.177711,-19.560492 L -3.953619,-19.520656 L -3.739335,-19.46135 L -3.535534,-19.38276" />
      <path d="M -10.606602,-24.757565 A 5.0,2.2222791074056176 0.0 0,1 -3.535534,-24.757565" />
      <path d="M -45.961941,-9.043679 A 5.0,2.2222791074056176 180.0 0,0 -47.426407,-7.47229" />
      <line x1="-3.535534" y1="-24.757565" x2="45.961941" y2="-2.758124" />
      <path d="M 45.961941,-2.758124 A 5.0,2.2222791074056176 0.0 0,1 47.426407,-1.186736" />
      <line x1="-7.071068" y1="-14.856724" x2="43.84062" y2="7.771272" />
      <line x1="-3.535534" y1="-19.38276" x2="45.961941" y2="2.61668" />
      <line x1="47.426407" y1="5.499939" x2="43.84062" y2="7.771272" />
      <path d="M 45.961941,2.61668 L 46.154618,2.714307 L 46.335564,2.830664 L 46.504211,2.965384 L 46.660028,3.118043 L 46.802524,3.288162 L 46.931251,3.475205 L 47.045805,3.678584 L 47.145824,3.897658 L 47.230993,4.131738 L 47.301046,4.380088 L 47.355762,4.641927 L 47.394968,4.91643 L 47.418541,5.202735 L 47.426407,5.499939" />
      <line x1="-43.84062" y1="1.485718" x2="7.071068" y2="24.113714" />
      <line x1="43.84062" y1="7.771272" x2="7.071068" y2="24.113714" />
      <line x1="-10.606602" y1="-24.757565" x2="-10.606602" y2="-19.38276" />
      <line x1="-45.961941" y1="-9.043679" x2="-45.961941" y2="-3.668874" />
      <line x1="-3.535534" y1="-24.757565" x2="-3.535534" y2="-19.38276" />
      <line x1="45.961941" y1="-2.758124" x2="45.961941" y2="2.61668" />
      <line x1="-47.426407" y1="-7.47229" x2="-47.426407" y2="-0.785616" />
      <line x1="47.426407" y1="-1.186736" x2="47.426407" y2="5.499939" />
    </g>
    <g fill="none" stroke="rgb(99,99,99)" stroke-width="0.08536753254814713" id="Hidden" stroke-dasharray="0.002168 0.257187">
      <path d="M -47.426407,-0.785616 L -47.418541,-0.833612 L -47.394968,-0.871491 L -47.355762,-0.899136 L -47.301046,-0.916459 L -47.230993,-0.923405 L -47.145824,-0.919952 L -47.045805,-0.906112 L -46.931251,-0.881928 L -46.802524,-0.847476 L -46.660028,-0.802864 L -46.504211,-0.748233 L -46.335564,-0.683754 L -46.154618,-0.609631 L -45.961941,-0.526097" />
      <path d="M -47.426407,-7.47229 A 5.0,2.2222791074056176 180.0 0,0 -45.961941,-5.900901" />
      <line x1="-45.961941" y1="-5.900901" x2="3.535534" y2="16.098539" />
      <path d="M 47.426407,-1.186736 A 5.0,2.2222791074056176 0.0 0,1 45.961941,0.384653" />
      <path d="M 3.535534,16.098539 A 5.0,2.2222791074056176 180.0 0,0 10.606602,16.098539" />
      <line x1="45.961941" y1="0.384653" x2="10.606602" y2="16.098539" />
      <line x1="-45.961941" y1="-0.526097" x2="3.535534" y2="21.473344" />
      <line x1="7.071068" y1="23.436104" x2="7.071068" y2="24.113714" />
      <path d="M 3.535534,21.473344 Q 3.637434,21.519685 3.739335,21.566027 Q 3.846477,21.616796 3.953619,21.667566 Q 4.065665,21.722605 4.177711,21.777643 Q 4.294309,21.836777 4.410907,21.895911 Q 4.53169,21.958954 4.652473,22.021998 Q 4.777061,22.088752 4.901649,22.155506 Q 5.02965,22.225762 5.157651,22.296017 Q 5.418215,22.441379 5.68689,22.596257 Q 5.957481,22.753606 6.233537,22.918939 Q 6.64961,23.169784 7.071068,23.436104" />
      <path d="M 47.426407,5.499939 L 47.418541,5.451943 L 47.394968,5.414063 L 47.355762,5.386418 L 47.301046,5.369096 L 47.230993,5.36215 L 47.145824,5.365602 L 47.045805,5.379442 L 46.931251,5.403627 L 46.802524,5.438079 L 46.660028,5.482691 L 46.504211,5.537322 L 46.335564,5.6018 L 46.154618,5.675923 L 45.961941,5.759458" />
      <path d="M 7.071068,23.436104 Q 7.492526,23.169784 7.908599,22.918939 Q 8.184654,22.753606 8.455245,22.596257 Q 8.72392,22.441379 8.984485,22.296017 Q 9.112486,22.225762 9.240487,22.155506 Q 9.365074,22.088752 9.489662,22.021998 Q 9.610445,21.958954 9.731228,21.895911 Q 9.847826,21.836777 9.964424,21.777643 Q 10.076471,21.722605 10.188517,21.667566 Q 10.295659,21.616796 10.402801,21.566027 Q 10.504701,21.519685 10.606602,21.473344" />
      <line x1="45.961941" y1="5.759458" x2="10.606602" y2="21.473344" />
    </g>
  </g>
</svg>