<?xml version='1.0' encoding='utf-8'?>
<svg width="100.090913mm" height="54.671678mm" viewBox="-49.542475 -29.233101 99.084949 54.1222" version="1.1" xmlns="http://www.w3.org/2000/svg">
  <g transform="scale(1,-1)" stroke-linecap="round">
    <g fill="none" stroke="rgb(0,0,0)" stroke-width="0.09" id="Visible">
      <line x1="49.497475" y1="0.945555" x2="49.497475" y2="9.84586" />
      <line x1="49.497475" y1="9.84586" x2="7.071068" y2="29.188101" />
      <line x1="-7.071068" y1="-24.844099" x2="49.497475" y2="0.945555" />
      <line x1="-7.071068" y1="-15.943794" x2="49.497475" y2="9.84586" />
      <line x1="-7.071068" y1="-24.844099" x2="-7.071068" y2="-15.943794" />
      <line x1="-7.071068" y1="-15.943794" x2="-49.497475" y2="3.398447" />
      <line x1="-49.497475" y1="-5.501858" x2="-49.497475" y2="3.398447" />
      <line x1="-7.071068" y1="-24.844099" x2="-49.497475" y2="-5.501858" />
      <line x1="-49.497475" y1="3.398447" x2="7.071068" y2="29.188101" />
      <line x1="46.669048" y1="9.84586" x2="7.071068" y2="27.898618" />
      <line x1="-7.071068" y1="-14.654311" x2="46.669048" y2="9.84586" />
      <line x1="-7.071068" y1="-14.654311" x2="-46.669048" y2="3.398447" />
      <line x1="-46.669048" y1="3.398447" x2="7.071068" y2="27.898618" />
      <line x1="7.071068" y1="27.898618" x2="7.071068" y2="20.778374" />
      <line x1="-38.860067" y1="-0.161675" x2="7.071068" y2="20.778374" />
      <line x1="7.071068" y1="20.778374" x2="38.860067" y2="6.285738" />
    </g>
    <g fill="none" stroke="rgb(99,99,99)" stroke-width="0.09" id="Hidden" stroke-dasharray="0.002286 0.271143">
      <line x1="7.071068" y1="20.287796" x2="7.071068" y2="29.188101" />
      <line x1="49.497475" y1="0.945555" x2="7.071068" y2="20.287796" />
      <line x1="-49.497475" y1="-5.501858" x2="7.071068" y2="20.287796" />
      <line x1="-7.071068" y1="-21.774555" x2="-7.071068" y2="-14.654311" />
      <line x1="-46.669048" y1="-3.721797" x2="-7.071068" y2="-21.774555" />
      <line x1="-46.669048" y1="-3.721797" x2="-46.669048" y2="3.398447" />
      <line x1="-46.669048" y1="-3.721797" x2="-38.860067" y2="-0.161675" />
      <line x1="46.669048" y1="2.725616" x2="46.669048" y2="9.84586" />
      <line x1="38.860067" y1="6.285738" x2="46.669048" y2="2.725616" />
      <line x1="-7.071068" y1="-21.774555" x2="46.669048" y2="2.725616" />
    </g>
  </g>
</svg>