<?xml version="1.0" encoding="UTF-8" standalone="no"?>
    <svg
    xmlns:svg="http://www.w3.org/2000/svg"
    xmlns="http://www.w3.org/2000/svg"
    width="687"
    height="346"
    >
        <g transform="scale(4, -4)   translate(88.82086012657545,-40.83034528603983)" stroke-width="0.25"  fill="none">
        <!-- hidden lines -->
        <g  stroke="rgb(160,160,160)" fill="none" stroke-dasharray="0.25,0.25" >
    			<path d="M4.852470569000609,0.992829114735998 L4.691762532119849,0.7944661327932874 L4.535871336416577,0.59495842929599 L4.384824276253372,0.3943409352456566 L4.238647797852622,0.19264877595260543 L4.097367494666134,-0.01008273511401736 L3.961008102894091,-0.2138181025091468 L3.829593497154079,-0.41852165502655225 L3.7031466863009896,-0.6241575519443572 L3.5816898093984655,-0.8306897893002647 L3.465244131842688,-1.0380822061953365 L3.353830041639103,-1.2462984911252422 L3.2474670458327495,-1.4553021883379182 L3.1461737670928684,-1.6650567042164512 L3.049967940452323,-1.8755253136860977 L2.9588664102024396,-2.0866711666443547 L2.872885126943821,-2.2984572944128803 L2.792039144793602,-2.510846616210175 L2.716342618749721,-2.723801945643922 L2.645808802212528,-2.937285997221821 L2.580450044664328,-3.151261392879733 L2.5202777895071797,-3.36569066852605 L2.465302572059265,-3.580536280601145 L2.4155340177103533,-3.795760612650722 L2.3709808402364985,-4.011325981911922 L2.331650840274385,-4.2271946459110605 L2.2975509039555604,-4.443328809071804 L2.2686870017007514,-4.659690629332621 L2.245064187174542,-4.87624222477242 L2.2266865964005333,-5.092945680243136 L2.2135574470371964,-5.309763054008138 L2.205679037814498,-5.526656384385309 L2.2030527481314337,-5.743587696393527 " />
			<path d="M2.2030527481314337,-5.7435876963935995 L2.2070332751054167,-6.010652289100076 L2.2189737997210344,-6.2776460112855474 L2.2388711533395984,-6.54449801123582 L2.2667200558309197,-6.811137474845286 L2.3025131169745023,-7.077493644408807 L2.346240838420652,-7.343495837398546 L2.3978916162110444,-7.609073465220866 L2.4574517438580763,-7.8741560519483595 L2.5249054159821007,-8.138673253021913 L2.6002347325056867,-8.402554873917918 L2.68341970340375,-8.665730888775716 L2.774438254008256,-8.928131458980246 L2.8732662308661467,-9.189686951694984 L2.9798774081489157,-9.450327958340338 L3.094243494612101,-9.709985313012483 L3.2163341411028625,-9.968590110837717 " />
			<path d="M80.51425042651232,1.2980829943467267 L80.3661882049704,1.5947481774792287 L80.212026388919,1.890484000993002 L80.0517845020988,2.1852530115829767 L79.88548283825779,2.479017878385589 L79.71314245858116,2.7717413977065295 L79.53478518902406,3.0633864977323757 L79.3504336175474,3.3539162432255516 L79.16011109125728,3.6432938402019452 L78.96384171344818,3.9314826405906906 L78.76165034055039,4.218446146875415 L78.55356257898208,4.504148016716476 L78.33960478190647,4.788552067553491 L78.1198040458942,5.071622281187677 L77.89418820749188,5.353322808343352 L77.66278583969654,5.633617973208036 L77.42562624833724,5.912472277950613 L77.18273946836345,6.18985040721692 L76.93415626004142,6.465717232602252 L76.6799081050585,6.740037817100168 L76.42002720253618,7.012777419527085 L76.15454646495228,7.283901498922042 L75.88349951397268,7.553375718921128 L75.60692067619343,7.821165952105995 L75.32484497879335,8.087238284325908 L75.0373081450982,8.351559018992765 L74.74434659005632,8.614094681348615 L74.44599741562709,8.87481202270502 L74.14229840608198,9.133678024653848 L73.83328802321947,9.390659903248842 L73.51900540149413,9.645725113157544 L73.19949034306035,9.89884135178297 L72.87478331273167,10.149976563354572 L72.54492543285613,10.399098942987909 L72.20995847810838,10.64617694071255 L71.8699248701991,10.891179265467734 L71.52486767250255,11.13407488906519 L71.17483058460283,11.374833050118674 L70.81985793675958,11.613423257939758 L70.45999468429378,11.849815296399278 L70.09528640189441,12.083979227754064 L69.72577927784667,12.315885396438365 L69.3515201081825,12.545504432819587 L68.97255629075411,12.772807256917773 L68.58893581923131,12.997765082088435 L68.20070727702338,13.220349418668217 L67.80791983112621,13.440532077582962 L67.4106232258957,13.658285173917683 L67.00886777674769,13.873581130448052 L66.60270436378603,14.0863926811329 L66.19218442535873,14.296692874567306 L65.77735995154364,14.504455077395836 L65.35828347756424,14.709652977685518 L64.93500807713622,14.912260588258114 L64.50758735574611,15.112252249981236 L64.07607544386238,15.309602635017928 L63.640526990080154,15.504286750034314 L63.2009971542002,15.69627993936486 L62.757541600243314,15.885557888134873 L62.31021648940077,16.072096625339846 L61.859078472921794,16.25587252688125 L61.40418468493898,16.43686231855841 L60.94559273523263,16.61504307901604 L60.48336070193473,16.790392242647105 L60.01754712417373,16.962887602450632 L59.54821099466085,17.132507312844115 L59.075411752218955,17.299229892430123 L58.59920927425508,17.46303422671681 L58.11966386917712,17.623899570791934 L57.63683626875619,17.78180555195011 L57.15078762043534,17.936732172272873 L56.661579479585455,18.088659811161314 L56.169273801709664,18.23756922782094 L55.67393293459703,18.383441563698376 L55.17561961042654,18.526258344869735 L54.67439693782236,18.666001484380203 L54.1703283938616,18.802653284534685 L53.6634778160352,18.936196439139092 L53.153909394163264,19.066614035692094 L52.641687662265845,19.19388955752698 L52.12687749038999,19.31800688590342 L51.60954407639434,19.43895030204879 L51.08975293769221,19.556704489148903 L50.56756990295412,19.671254534287755 L50.043061103771,19.7825859303362 L49.51629296627898,19.890684577789177 L48.987332202746835,19.995536786551337 L48.45624580312735,20.09712927767083 L47.92310102657333,20.195449185020998 L47.38796539291961,20.2904840569298 L46.85090667413207,20.382221857756754 L46.31199288572468,20.470650969417186 L45.77129227814571,20.555760192853572 L45.228873328134185,20.637538749453874 L44.684804730047674,20.715976282416563 L44.13915538716258,20.791062858062265 L43.59199440294785,20.862788967091795 L43.04339107231344,20.93114552579047 L42.49341487283451,20.996123877178505 L41.942135455952446,21.057715792107366 L41.38962263815394,21.115913470301958 L40.83594639212903,21.170709541348476 L40.28117683790954,21.222097065627835 L39.72538423398871,21.27006953519453 L39.16863896842336,21.314620874600823 L38.61101154991964,21.355745441666194 L38.052572598903474,21.393438028191856 L37.493392838576895,21.427693860620355 L36.93354308596135,21.458508600640144 L36.37309424292907,21.485878345734957 L35.81211728722379,21.50979962967808 L35.25068326347181,21.530269422971315 L34.68886327418452,21.54728513322864 L34.126728470753754,21.56084460550455 L33.564350044440786,21.570946122566923 L33.001799217360386,21.577588405114547 L32.43914723346095,21.5807706119391 L31.87646534950179,21.580492340031704 L31.313824826028906,21.57675362463395 L30.75129691835025,21.56955493923346 L30.188952867511567,21.558897195503885 L29.626863891274173,21.544781743189475 L29.065101175095588,21.527210369934135 L28.503735863114297,21.50618530105502 L27.942839049139774,21.48170919926073 L27.382481767648777,21.453785164314077 L26.82273498478927,21.42241673263952 L26.263669589392972,21.387607876875286 L25.705356383997614,21.349363005370293 L25.147866075880245,21.307686961625816 L24.59126926810253,21.26258502368211 L24.035636450569243,21.214062903449964 L23.481037991101175,21.16212674598732 L22.92754412652334,21.106783128721037 L22.375224953769948,21.048039060613906 L21.824150421007005,20.985901981276985 L21.274390318773722,20.920379760027426 L20.726014271143974,20.851480694891873 L20.1790917269088,20.779213511555536 L19.633691950781046,20.70358736225718 L19.089884014623415,20.624611824629998 L18.547736788700917,20.542296900488676 L18.007318932958768,20.456653014562725 L17.468698888327033,20.36769101317623 L16.93194486805297,20.275422162874243 L16.397124849062156,20.17985814899592 L15.864306563349615,20.081011074194645 L15.333557489401954,19.978893456905293 L14.80494484365154,19.87351822975885 L14.278535571963928,19.764898737944552 L13.754396341159588,19.653048737519796 L13.23259353057082,19.53798239366802 L12.713193223635265,19.419714278904742 L12.196261199526784,19.298259371232056 L11.681862924824877,19.173633052241733 L11.170063545223691,19.04585110516723 L10.660927877281694,18.914929712884835 L10.154520400213048,18.7808854558642 L9.650905247721592,18.643735310068497 L9.150146199878755,18.50349664480453 L8.652306675046127,18.360187220523006 L8.157449721843829,18.213825186569245 L7.6656380111658,18.064429078884686 L7.176933828242898,17.912017817659425 L6.691399064754812,17.75661070493607 L6.209095210991713,17.598227422165202 L5.730083348067026,17.436888027712904 L5.254424140181751,17.272612954320433 L4.78217782694162,17.105423006516514 L4.313404215728205,16.935339357982592 L3.8481626741246053,16.76238354887131 L3.386512122396784,16.586577483078518 L2.928511026031778,16.40794342546932 L2.4742173883332903,16.22650399905833 L2.023688743075862,16.04228218214458 L1.5769821472186436,15.855301305401458 L1.1341541736793594,15.66558504892203 L0.6952609041696753,15.473157439220035 L0.2603579220927621,15.278042846187098 L-0.17049969449598734,15.080265980006423 L-0.5972573798643381,14.879851888023367 L-1.0198610875136822,14.676825951573317 L-1.438257297023661,14.47121388276733 L-1.852393020830256,14.263041721235808 L-2.2622158109364534,14.052335830830707 L-2.6676737655543263,13.839122896286732 L-3.068715535678244,13.623429919841868 L-3.465290331587923,13.405284217817641 L-3.857347929280593,13.184713417159724 L-4.244838676831634,12.961745451939109 L-4.6277135006827805,12.736408559814393 L-5.005923911856883,12.508731278455656 L-5.379422012098843,12.278742441930348 L-5.748160499941704,12.04647117705155 L-6.112092676697067,11.811946899689268 L-6.4711724523691885,11.575199311045075 L-6.825354351492074,11.336258393890628 L-7.174593518888713,11.095154408770458 L-7.518845725351689,10.851917890169712 L-7.858067373244559,10.606579642647105 L-8.19221550202333,10.359170736933645 L-8.521247793677091,10.109722505997782 L-8.845122578087356,9.858266541077205 L-9.16379883830546,9.604834687677977 L-9.477236215746984,9.349459041541524 L-9.785395015303017,9.092171944579862 L-10.088236210367377,8.833005980779653 L-10.385721447778998,8.571993972075665 L-10.67781305267922,8.309168974194037 L-10.964474033283096,8.04456427246593 L-11.245668085564184,7.778213377612156 L-11.521359597852246,7.510150021499225 L-11.791513655343266,7.240408152867397 L-12.056096044521261,6.9690219330312235 L-12.315073257491164,6.696025731553254 L-12.568412496222457,6.421454121891312 L-12.81608167670288,6.1453418770199075 L-13.058049433001614,5.8677239650265065 L-13.294285121241693,5.5886355446829885 L-13.524758823480838,5.308111960992932 L-13.749441351500387,5.026188740715449 L-13.968304250501838,4.742901587865877 L-14.181319802710519,4.458286379194032 L-14.388461030885829,4.172379159640677 L-14.589701701737802,3.8852161377726073 L-14.785016329249387,3.5968336811970048 L-14.974380177904159,3.3072683119557063 L-15.157769265818857,3.0165567018999138 L-15.335160367780574,2.724735668045888 L-15.506531018188198,2.4318421679122313 L-15.67185951389741,2.1379132948395014 L-15.83112491696938,1.8429862732925075 L-15.984307057322383,1.5470984541460044 L-16.131386535286254,1.2502873099544782 L-16.27234472405921,0.9525904302064214 L-16.407163772066916,0.654045516563798 L-16.535826605223193,0.3546903780874038 L-16.658316929092393,0.05456292644852567 L-16.77461923095303,-0.24629882887239507 L-16.88471878176233,-0.5478567853993912 L-16.988601638021613,-0.8500727524864597 L-17.086254643542162,-1.152908456154229 L-17.177665431111365,-1.4563255439371217 L-17.262822424058953,-1.7602855897404535 L-17.34171483772313,-2.064750098706914 L-17.414332680816415,-2.3696805120917603 L-17.48066675669093,-2.675038212145999 L-17.54070866450313,-2.9807845270071445 L-17.594450800277762,-3.2868807355968337 L-17.641886357870796,-3.5932880725245617 L-17.683009329831428,-3.899967732997144 L-17.717814508162895,-4.2068808777331625 L-17.74629748498201,-4.5139886378816705 L-17.76845465307742,-4.82125211994476 L-17.78428320636644,-5.12863241070324 L-17.79378114025041,-5.436090582144706 L-17.796947251868566,-5.743587696393477 " />
			<path d="M-17.744281358147177,-6.99740755895903 L-17.72776042216055,-7.180552844734757 L-17.708990925265446,-7.363633418893464 L-17.687973712718637,-7.5466410366701355 L-17.664709730999427,-7.729567456585206 L-17.639200027767117,-7.912404440815772 L-17.611445751813747,-8.095143755566534 L-17.581448153012417,-8.277777171440558 L-17.54920858226098,-8.460296463809946 L-17.514728491421202,-8.642693413186176 L-17.47800943325337,-8.824959805590261 L-17.439053061346392,-9.007087432922667 L-17.39786113004333,-9.189068093332903 L-17.354435494362356,-9.37089359158896 L-17.308778109913263,-9.552555739446325 L-17.26089103280937,-9.734046356016693 L-17.21077641957492,-9.91535726813646 L-17.15843652704799,-10.096480310734732 L-17.103873712278848,-10.277407327201043 L-17.0470904324238,-10.458130169752692 L-16.98808924463453,-10.638640699801613 L-16.926872805942963,-10.818930788320952 L-16.86344387314159,-10.998992316211126 L-16.797805302659334,-11.178817174665403 L-16.729960050432915,-11.358397265535146 L-16.659911171773693,-11.537724501694473 L-16.587661821230164,-11.716790807404404 L-16.51321525244581,-11.89558811867661 L-16.436574818012616,-12.074108383636538 L-16.357743969320104,-12.252343562885972 L-16.27672625639987,-12.43028562986515 L-16.19352532776574,-12.607926571214186 L-16.108144930249516,-12.785258387133794 " />
			<path d="M3.216334141102891,-9.968590110837773 L3.3196823348633018,-10.183867666586385 L3.4198185519208764,-10.399598107213283 L3.516736148916891,-10.615767120467105 L3.61042869602619,-10.832360365000191 L3.700889977383845,-11.049363471320003 L3.788113991497468,-11.266762042742446 L3.8720949516454084,-11.484541656347023 L3.9528272862606215,-11.702687863933674 L4.030305639300366,-11.921186192981287 L4.104524870601466,-12.140022147607894 L4.175480056221396,-12.359181209532357 L4.243166488764906,-12.578648839037557 L4.307579677696339,-12.798410475935023 L4.368715349637554,-13.018451540530895 L4.426569448651421,-13.238757434593154 L4.481138136510928,-13.459313542320153 L4.532417792953787,-13.680105231310268 L4.5804050159226435,-13.901117853532643 L4.6250966217907745,-14.122336746299025 L4.6664896455733,-14.34374723323651 L4.704581341123877,-14.565334625261197 L4.7393691813168815,-14.787084221552742 L4.7708508582151055,-15.00898131052965 L4.799024283222849,-15.231011170825276 L4.823887587224462,-15.45315907226452 L4.845439120708392,-15.675410276841053 L4.863677453876576,-15.897750039695064 L4.878601376739326,-16.120163610091506 L4.890209899195611,-16.34263623239871 L4.898502251098691,-16.565153147067292 L4.9034778823072855,-16.787699591609407 L4.905136462721998,-17.010260801577967 " />
			<path d="M-16.108144930249466,-12.7852583871339 L-15.986054283758673,-13.043863184959205 L-15.871688197295487,-13.30352053963135 L-15.765077020012718,-13.564161546276704 L-15.666249043154828,-13.82571703899144 L-15.575230492550322,-14.088117609195972 L-15.492045521652258,-14.35129362405377 L-15.416716205128669,-14.615175244949773 L-15.349262533004644,-14.879692446023327 L-15.289702405357612,-15.144775032750822 L-15.23805162756722,-15.410352660573142 L-15.19432390612107,-15.67635485356288 L-15.158530844977491,-15.942711023126401 L-15.130681942486166,-16.209350486735868 L-15.110784588867602,-16.47620248668614 L-15.098844064251985,-16.743196208871613 L-15.094863537278002,-17.010260801578017 " />
			<path d="M-15.094863537278002,-17.010260801578088 L-15.096435022976923,-17.17806775905822 L-15.101149315435855,-17.34585713612276 L-15.109005920758594,-17.513611354197945 L-15.120004015842284,-17.68131283839347 L-15.134142448463638,-17.848944019343723 L-15.151419737399685,-18.01648733504846 L-15.171834072582921,-18.183925232712713 L-15.195383315290968,-18.35124017058571 L-15.222064998370609,-18.518414619798648 L-15.251876326496287,-18.685431066201108 L-15.284814176462952,-18.852272012195964 L-15.320875097513252,-19.0189199785725 L-15.360055311699078,-19.185357506337667 L-15.402350714277343,-19.35156715854514 L-15.447756874140026,-19.517531522122166 L-15.496269034278413,-19.68323320969382 L-15.547882112281432,-19.848654861404615 L-15.60259070086816,-20.013779146737203 L-15.660389068454283,-20.17858876632807 L-15.721271159752607,-20.343066453779866 L-15.785230596407402,-20.507194977470345 L-15.85226067766268,-20.670957142357658 L-15.922354381064157,-20.8343357917818 L-15.995504363195007,-20.997313809262028 L-16.071702960445172,-21.15987412029009 L-16.150942189814266,-21.321999694119068 L-16.233213749747907,-21.483673545547568 L-16.318509021007433,-21.64487873669924 L-16.40681906757292,-21.80559837879725 L-16.49813463757934,-21.96581563393364 L-16.592446164285874,-22.125513716833417 L-16.689743767078163,-22.284675896613017 L-16.790017252503446,-22.44328549853315 L-16.893256115338502,-22.60132590574574 L-16.999449539690232,-22.758780561034797 L-17.10858640012879,-22.915632968551066 L-17.220655262853146,-23.071866695540184 L-17.33564438688897,-23.227465374064312 L-17.453541725318654,-23.382412702716913 L-17.57433492654346,-23.53669244833059 L-17.698011335577498,-23.690288447677744 L-17.82455799537355,-23.84318460916394 L-17.953961648180552,-23.99536491451378 L-18.086208736932523,-24.14681342044902 L-18.221285406668876,-24.297514260358923 L-18.359177505985965,-24.447451645962495 L-18.49987058851965,-24.5966098689626 L-18.643349914458792,-24.74497330269161 L-18.789600452089463,-24.89252640374857 L-18.938606879369786,-25.039253713627602 L-19.090353585535112,-25.185139860337436 L-19.24482467273355,-25.33016956001186 L-19.402003957691463,-25.474327618510937 L-19.561874973408948,-25.617598933012843 L-19.724420970885017,-25.759968493596126 L-19.889624920872308,-25.90142138481223 L-20.057469515661165,-26.04194278724811 L-20.2279371708929,-26.181517979078812 L-20.401010027402023,-26.320132337609813 L-20.57666995308728,-26.457771340808968 L-20.75489854481126,-26.594420568827942 L-20.935677130328433,-26.730065705512885 L-21.118986770241335,-26.86469253990431 L-21.30480825998481,-26.99828696772589 L-21.49312213183794,-27.130834992862102 L-21.683908656963602,-27.262322728824543 L-21.87714784747543,-27.392736400206783 L-22.072819458531804,-27.52206234412751 L-22.27090299045681,-27.650287011661973 L-22.471377690887955,-27.777396969261417 L-22.674222556950255,-27.903378900160476 L-22.87941633745663,-28.028219605772293 L-23.08693753513431,-28.15190600707131 L-23.296764408877007,-28.274425145963466 L-23.508874976022632,-28.39576418664379 L-23.723247014656334,-28.51591041694115 L-23.939858065938573,-28.63485124965002 L-24.158685436458054,-28.752574223849223 L-24.379706200609235,-28.869067006207402 L-24.602897202994107,-28.98431739227513 L-24.82823506084812,-29.098313307763497 L-25.05569616648987,-29.211042809809125 L-25.285256689794387,-29.322494088225312 L-25.516892580689696,-29.432655466739384 L-25.75057957167648,-29.541515404215943 L-25.986293180370446,-29.649062495866 L-26.224008712067256,-29.75528547444179 L-26.46370126232968,-29.860173211417194 L-26.70534571959672,-29.963714718153636 L-26.948916767814467,-30.06589914705131 L-27.441736366356395,-30.266154092928836 L-27.941953540977575,-30.460854131838794 L-28.449358674731982,-30.649917674364374 L-28.963739138545822,-30.833265493073192 L-29.484879380320137,-31.010820755717617 L-30.01256101525834,-31.182509057431552 L-30.54656291738077,-31.34825845190987 L-31.086661312187893,-31.507999481557665 L-31.63262987043348,-31.661665206596595 L-32.184239802968335,-31.809191233116124 L-32.74125995661475,-31.950515740057913 L-33.3034569110317,-32.08557950512203 L-33.8705950765301,-32.21432592958418 L-34.44243679279707,-32.33670106201352 L-35.01874242848794,-32.45265362088107 L-35.59927048164424,-32.562135016049396 L-36.183777680895545,-32.66509936913431 L-36.77201908740277,-32.76150353273038 L-37.363748197500044,-32.85130710849185 " />
			<path d="M-37.36374819750033,-16.102037054743235 L-37.36374819750033,-32.851307108491895 " />
			<path d="M-37.36374819750033,-32.85130710849189 L-86.32086012657544,-17.363248585199223 " />
			<path d="M2.2030527481314266,-5.743587696393602 L2.2030527481314266,11.005682357355054 " />
			<path d="M-15.094863537278002,-0.2609907478294371 L-15.094863537278002,-17.01026080157809 " />

        </g>

        <!-- solid lines -->
        <g  stroke="rgb(0,0,0)" fill="none">
    			<path d="M61.18977135515996,15.230684771799252 L61.10093402223481,15.408683881678753 L61.00843693260397,15.586125375787017 L60.91229180051185,15.762986782141002 L60.81251080220725,15.93924570222257 L60.709106574401275,16.114879813815133 L60.602092212667,16.289866873830643 L60.49148126978101,16.464184721126546 L60.37728775400694,16.637811279312384 L60.259526127321486,16.81072455954563 L60.13821130358281,16.982902663316466 L60.01335864664183,17.154323785221102 L59.884983968396455,17.32496621572331 L59.753103526789104,17.494808343903824 L59.6177340237477,17.663828660197225 L59.478892603070506,17.832005759116036 L59.33659684825491,17.999318341961583 L59.190864780270644,18.16574521952137 L59.04171485527742,18.331265314752567 L58.88916596228767,18.495857665451318 L58.73323742077429,18.659501426907468 L58.57394897822394,18.822175874544442 L58.41132080763618,18.983860406543894 L58.245373504968626,19.144534546454814 L58.076128086528584,19.304177945786762 L57.90360598631149,19.462770386586875 L57.72782905328637,19.620291784000386 L57.54881954862883,19.776722188814226 L57.36660014290176,19.932041789983522 L57.18119391318426,20.08623091714052 L56.99262434014905,20.239270043085742 L56.80091530508878,20.391139786261 L56.60609108689157,20.54182091320396 L56.408176358966244,20.69129434098396 L56.2071961861176,20.839541139618746 L56.00317602137203,20.98654253447186 L55.7961417027541,21.13227990863033 L55.58611945001427,21.27673480526242 L55.37313586130833,21.41988892995507 L55.157217909828844,21.561724153030784 L54.93839294038922,21.702222511843654 L54.716688665960575,21.841366213054236 L54.49213316416207,21.979137634882967 L54.26475487370504,22.11551932934188 L54.03458259079136,22.25049402444428 L53.8016454654666,22.384044626392146 L53.56597299792831,22.516154221740994 L53.327595034789994,22.646806079541825 L53.08654176530119,22.77598365346005 L52.84284371752419,22.903670583870955 L52.59653175446781,23.0298506999316 L52.34763707017876,23.15450802162872 L52.09619118579111,23.27762676180253 L51.84222594553431,23.399191328146085 L51.58577351270024,23.51918632517996 L51.326866365570005,23.63759655620197 L51.065537293300665,23.754407025211805 L50.801819391772696,23.869602938810132 L50.53574605939856,23.98316970807214 L50.267350992893036,24.095092950395127 L49.99666818300565,24.20535849131997 L49.72373191021596,24.313952366326262 L49.448576740392156,24.42086082260084 L49.17123752041341,24.52607032077948 L48.89174937375681,24.629567536661597 L48.61014769604908,24.731339362897685 L48.32646815058395,24.831372910649293 L48.04074666380562,24.929655511221306 L47.75301942075884,25.02617471766638 L47.46332286050629,25.120918306361283 L47.17169367151378,25.21387427855494 L46.87816878700385,25.305030861888007 L46.582785380278374,25.39437651188378 L46.285580860010796,25.481899913410242 L45.98659286550849,25.567589982113056 L45.685859261945986,25.651435865819337 L45.383418135569535,25.73342694591203 L45.07930778887369,25.81355283867467 L44.773566735750535,25.89180339660647 L44.46623369661208,25.968168709707406 L44.15734759348656,26.04263910673327 L43.84694754508918,26.115205156420494 L43.5350728618679,26.18585766868056 L43.22176304102504,26.25458769576387 L42.907057761515176,26.32138653339294 L42.59099687901996,26.38624572186472 L42.27362042090067,26.449157047122018 L41.95496858112898,26.510112541793717 L41.63508171519657,26.569104486203813 L41.31400033500434,26.626125409349093 L40.991765103731815,26.681168089845272 L40.66841683068738,26.73422555684153 L40.34399646614,26.78529109090336 L40.01854509613308,26.834358224863543 L39.69210393728118,26.881420744641154 L39.36471433155012,26.926472690028575 L39.03641774102128,26.969508355446294 L38.70725574264063,27.0105222906655 L38.377270022953276,27.04950930149832 L38.04650237282404,27.086464450455637 L37.71499468214493,27.12138305737239 L37.38278893453,27.1542607000003 L37.049927201998294,27.185093214567917 L36.7164516396458,27.213876696307935 L36.38240448030659,27.24060749995171 L36.047828029204354,27.265282240190935 L35.71276465859466,27.287897792106328 L35.377256802398705,27.30845129156343 L35.04134695082938,27.326940135575303 L34.705077645010014,27.343361982632192 L34.36849147158685,27.357714752998067 L34.03163105733566,27.369996628974008 L33.69453906376329,27.3802060551284 L33.35725818170483,27.388341738493946 L33.019831125917044,27.394402648731372 L32.6823006296688,27.398388018259947 L32.344709439329144,27.400297342354676 L32.007100308953646,27.40013037921024 L31.66951599486992,27.397887149971588 L31.331999250262722,27.393567938731294 L30.994592819759514,27.38717329249355 L30.65733943401708,27.3787040211049 L30.32028180430993,27.368161197151696 L29.983462617121152,27.35554615582423 L29.646924528736438,27.340860494747655 L29.31071015984184,27.324106073779664 L28.974862090126138,27.305285014774928 L28.639422852888355,27.28439970131639 L28.30443492965114,27.261452778413393 L27.969940744780722,27.236447152166708 L27.63598266011409,27.209385989400484 L27.30260296959412,27.180272717261197 L26.96984389391328,27.149111022783607 L26.63774757516658,27.11590485242384 L26.306356071514543,27.08065841155956 L25.975711351856773,27.043376163957408 L25.645855290516806,27.004062831207673 L25.316829661938957,26.962723392126343 L24.988676135397853,26.91936308212454 L24.6614362697212,26.873987392545526 L24.335151508026623,26.826602069969216 L24.009863172473125,26.77721311548442 L23.685612459027837,26.725826783928852 L23.362440432248796,26.672449583096956 L23.040388020084357,26.617088272915765 L22.719496008689866,26.559749864588767 L22.399805037262343,26.500441619708003 L22.081355592893747,26.439171049334394 L21.7641880054435,26.37594591304653 L21.44834244243093,26.31077421795795 L21.133858903948326,26.243664217703095 L20.820777217595065,26.17462441139203 L20.50913703343373,26.10366354253406 L20.198977818968643,26.030790597930448 L19.8903388541475,25.956014806536256 L19.583259226386787,25.879345638291554 L19.27777782562159,25.800792802922118 L18.9739333393804,25.720366248709738 L18.671764247885527,25.638076161232313 L18.371308819179824,25.553932962073937 L18.07260510428025,25.46794730750502 L17.77569093235887,25.380130087132763 L17.48060390595205,25.29049242252203 L17.18738139619831,25.199045665786873 L16.89606053810546,25.105801398152856 L16.606678225847602,25.010771428490337 L16.319271108092792,24.913967791818962 L16.033875583361624,24.815402747783477 L15.750527795417547,24.715088779101123 L15.469263628689497,24.61303858998077 L15.190118703727336,24.509265104514 L14.913128372690643,24.40378146503833 L14.63832771487164,24.296601030472807 L14.365751532252546,24.187737374626217 L14.095434345098091,24.077204284477965 L13.827410387583758,23.96501575843209 L13.561713603460188,23.851186004544434 L13.298377641754378,23.73572943872324 L13.037435852508231,23.618660682903474 L12.778921282554982,23.49999456319507 L12.522866671333972,23.379746108005236 L12.269304446744368,23.257930546135206 L12.01826672103838,23.134563304851618 L11.76978528675442,23.009660007932702 L11.523891612690704,22.883236473689642 L11.280616839919976,22.755308712963256 L11.039991777845625,22.625892927096338 L10.802046900299821,22.4950055058818 L10.56681234168422,22.362663025487052 L10.334317893153592,22.228882246354683 L10.104592998842907,22.093680111079852 L9.877666752138445,21.957073742264612 L9.653567891993266,21.819080440349424 L9.43232479928755,21.679717681422147 L9.213965493234333,21.539003115004775 L8.99851762783106,21.396954561818262 L8.786008488357329,21.253590011525596 L8.576464987919344,21.108927620453493 L8.369913664041558,20.962985709293044 L8.166380675305838,20.815782760779477 L7.965891798038577,20.667337417351405 L7.768472423046319,20.517668478789886 L7.574147552400159,20.36679489983754 L7.3829417962693,20.214735787798006 L7.1948793698043865,20.061510400116134 L7.009984090070763,19.907138141939136 L6.828279373032146,19.751638563659007 L6.649788230585173,19.595031358436614 L6.474533267645043,19.43733635970764 L6.302536679282717,19.278573538670777 L6.133820247914066,19.11876300175851 L5.968405340541224,18.957924988090753 L5.806312906046614,18.796079866911654 L5.647563472539815,18.63324813500995 L5.492177144757875,18.46945041412317 L5.340173601519098,18.304707448326003 L5.191572093230846,18.13904010140316 L5.046391439451604,17.97246935420712 L4.904650026507557,17.805016302001007 L4.766365805164071,17.636702151786977 L4.631556288352339,17.467548219620486 L4.500238548951469,17.297575927910742 L4.372429217626262,17.126806802707634 L4.248144480721077,16.955262470975622 L4.127400078209895,16.78296465785478 L4.010211301702938,16.60993518390942 L3.896592992510076,16.43619596236464 L3.78655953976126,16.261768996331163 L3.680124878584227,16.08667637601875 L3.5773024883396545,15.910940275938554 L3.478105390914127,15.734582952094918 L3.382546149070947,15.557626739166722 L3.2906368648591453,15.380094047678819 L3.2023891780808214,15.202007361163904 L3.1178142648170457,15.023389233315068 L3.0369228360124225,14.844262285129496 L2.95972513611866,14.664649202043659 L2.8862309417971375,14.484572731060332 L2.8164495606807556,14.30405567786778 L2.750389830195175,14.123120903951582 L2.6880601164396047,13.941791323699341 L2.6294683131272762,13.760089901498679 L2.5746218405857526,13.578039648828945 L2.5235276448172,13.395663621346944 L2.476192196618694,13.212984915967068 L2.4326214907627275,13.030026667936161 L2.392821045238019,12.846812047903617 L2.356795900550697,12.66336425898693 L2.324550619085919,12.479706533833117 L2.2960892845300975,12.29586213167648 L2.271415501353715,12.11185433539293 L2.2505323943548383,11.92770644855132 L2.233442608263367,11.743441792462214 L2.22014830740612,11.55908370322436 L2.2106511754327087,11.374655528769273 L2.20495241510233,11.190180625904393 L2.2030527481314337,11.00568235735513 " />
			<path d="M2.2030527481314337,11.005682357355058 L2.2070332751054167,10.73861776464858 L2.2189737997210344,10.471624042463109 L2.2388711533395984,10.204772042512836 L2.2667200558309197,9.93813257890337 L2.3025131169745023,9.671776409339849 L2.346240838420652,9.40577421635011 L2.3978916162110444,9.14019658852779 L2.4574517438580763,8.875114001800297 L2.5249054159821007,8.610596800726743 L2.6002347325056867,8.346715179830738 L2.68341970340375,8.08353916497294 L2.774438254008256,7.821138594768409 L2.8732662308661467,7.559583102053672 L2.9798774081489157,7.298942095408319 L3.094243494612101,7.039284740736173 L3.2163341411028625,6.780679942910939 " />
			<path d="M61.18977135515996,-1.518585281949406 L61.18977135515996,15.23068477179925 " />
			<path d="M61.18977135515996,-1.5185852819494041 L61.11422058197485,-1.366713175586228 L61.036005548724134,-1.2152444127360136 L60.95513346318272,-1.0641929517479465 L60.8716117779817,-0.9135727125154638 L60.78544818992153,-0.7633975751934852 L60.69665063926282,-0.6136813789193125 L60.605227308994564,-0.4644379205373079 L60.511186624080054,-0.3156809533274654 L60.41453725068051,-0.167424185738005 L60.31528809535645,-0.019681280122092915 L60.21344830424692,0.12753414852119427 L60.10902726222664,0.27420853380153254 L60.00203459204121,0.42032835918753797 L59.89248015342025,0.5658801592523606 L59.78037404216888,0.7108505209145752 L59.665726589237295,0.855226084674225 L59.54854835976879,0.9989935458439625 L59.428850152126074,1.1421396557751091 L59.306642996896244,1.284651223078563 L59.181938155874235,1.4265151148404334 L59.05474712102502,1.567718257832282 L58.92508161342457,1.7082476397158581 L58.79295358217974,1.8480903102422346 L58.658375203327125,1.9872333824452202 L58.521358878710956,2.125664033828924 L58.38191723484029,2.263369507549397 L58.240063121725356,2.400337113590229 L58.0958096116935,2.536554229931955 L57.94916999818438,2.6720083037152307 L57.80015779452507,2.8066868523976147 L57.64878673268467,2.9405774649038765 L57.49507076200888,3.073667802769723 L57.33902404793456,3.205945601278822 L57.1806609706843,3.337398670593041 L57.01999612394123,3.4680148968757774 L56.85704431350419,3.5977822434082967 L56.69182055592333,3.7266887516989424 L56.52434007711622,3.8547225425851686 L56.35461831096484,3.9818718173282246 L56.18267089789319,4.108124858700467 L56.008513683426045,4.233470032065126 L55.83216271672872,4.357895786448484 L55.472944732614835,4.6039432590706255 L55.10514935501856,4.8461765822916725 L54.7289121550752,5.0845064677501135 L54.34437181561615,5.318845065910271 L53.95167008004974,5.549105998444045 L53.55095170011394,5.7752043900703995 L53.142364382520185,5.997056899840782 L52.72605873450796,6.214581751858997 L52.30218820833025,6.427698765424196 L51.87090904469033,6.636329384585872 L51.432380215150665,6.840396707099943 L50.98676336353526,7.039825512775309 L50.53422274634694,7.23454229120035 L50.07492517222164,7.424475268839236 L49.60903994044196,7.6095544354879845 L49.13673877853259,7.789711570080556 L48.65819577896077,7.964880265835474 L48.17358733496494,8.134995954733675 L47.683092075535406,8.299995931318584 L47.18689079957074,8.459819375809666 L46.68516640923454,8.61440737652086 L46.17810384253678,8.763702951575732 L45.66589000516474,8.907651069911257 L45.14871370158873,9.046198671562525 L44.626765565467856,9.179294687220919 L44.10023798938148,9.306890057058483 L43.56932505391248,9.428937748811624 L43.03422245610813,9.545392775117422 L42.49512743734534,9.656212210096191 L41.95223871062644,9.761355205174164 L41.40575638733265,9.860783004140467 L40.855881903462105,9.954458957432855 L40.30281794537954,10.042348535646902 L39.74676837510512,10.124419342263712 L39.18793815516998,10.200641125591435 L38.626533273066,10.270985789916178 L38.062760665317846,10.335427405858216 L37.496828141205185,10.393942219929702 L36.92894430616319,10.446508663290299 L36.35931848488957,10.493107359697564 L35.788160644186505,10.533721132649127 L35.21568131556584,10.56833501171403 L34.64209151764619,10.596936238050894 L34.0676026783705,10.619514269110894 L33.49242655707262,10.636060782523792 L32.91677516642186,10.646569679165609 L32.34086069427406,10.651037085406777 L31.764895425458207,10.64946135453999 L31.189091663527144,10.641843067387182 L30.613661652501506,10.628185032085433 L30.038817498635566,10.60849228305188 L29.46477109223386,10.582772079128006 L28.89173402954736,10.551033900903995 L28.319917534778142,10.513289447224135 L27.74953238222111,10.469552630874588 L27.18078881857156,10.419839573455036 L26.61389648542729,10.364168599436226 L26.049064342013676,10.302560229405444 L25.486500588160286,10.235037172502546 L24.926412587557465,10.161624318049265 L24.369006791321077,10.082348726374873 L23.8144886618936,9.997239618841627 L23.26306259730973,9.906328367073632 L22.714931855854285,9.809648481393106 L22.170298481140193,9.707235598468316 L21.629363227634286,9.599127468177738 L21.09232548665824,9.485363939695262 L20.55938321289195,9.365986946801604 L20.030732851406526,9.241040492427311 L19.506569265253674,9.110570632433065 L18.98708566363826,8.974625458633286 L18.47247353070046,8.833255081069238 L17.962922554933808,8.686511609538252 L17.458620559265086,8.53444913438579 L16.959753431821888,8.377123706567483 L16.46650505741343,8.214593316988497 L15.979057249749665,8.046917875127793 L15.497589684423893,7.874159186955211 L15.022279832683473,7.696380932149488 L14.553302896013129,7.513648640625645 L14.090831741554762,7.32602966838032 L13.635036838387833,7.133593172664034 L13.186086194693683,6.936410086489513 L12.744145295826836,6.734553092485424 L12.309377043316356,6.528096596105202 L11.881941694819574,6.317116698200882 L11.461996805050305,6.101691166971914 L11.049697167703453,5.881899409299459 L10.645194758397341,5.65782244147664 L10.248638678654707,5.429542859345519 L9.860175100943216,5.197144807851901 L9.47994721479559,4.960713950029101 L9.108095174029259,4.720337435422133 L8.744756045084959,4.4761038679639675 L8.566320799147121,4.352568767802367 L8.390063756503409,4.228103273315705 L8.216001159825272,4.102718854412377 L8.044149049558648,3.976427065682696 L7.874523262445852,3.8492395453341324 L7.707139430066118,3.7211680141188026 L7.542012977395093,3.5922242742533346 L7.37915912138342,3.4624202083312987 L7.21859286955441,3.3317677782281674 L7.060329018621047,3.2002790239989665 L6.904382153122434,3.0679660627687877 L6.7507666440797856,2.9348410876161317 L6.599496647672073,2.800916366449256 L6.450586103931489,2.666204240875693 L6.304048735458856,2.530717125064898 L6.15989804615899,2.394467504604229 L6.0181473199963165,2.257467935348405 L5.878809619770703,2.119731042262406 L5.741897785913633,1.9812695182580367 L5.607424435304992,1.8420961230242634 L5.475401960110325,1.7022236818513496 L5.345842526638869,1.5616650844489408 L5.2187580742224,1.4204332837582747 L5.09416031411498,1.2785412947585124 L4.972060728413698,1.1360021932673314 L4.852470569000662,0.9928291147360646 " />
			<path d="M61.18977135515996,-1.5185852819494055 L80.51425042651232,1.2980829943467245 " />
			<path d="M-17.796947251868566,-5.743587696393599 L-17.79365509162357,-6.05714588225827 L-17.783779044421344,-6.370662776771183 L-17.767320410803087,-6.684097094018084 L-17.744281358147184,-6.997407558958909 " />
			<path d="M80.51425042651232,1.298082994346725 L80.51425042651232,18.04735304809538 " />
			<path d="M80.51425042651232,18.04735304809538 L80.3661882049704,18.344018231227885 L80.212026388919,18.63975405474166 L80.0517845020988,18.934523065331632 L79.88548283825779,19.228287932134243 L79.71314245858116,19.521011451455188 L79.53478518902406,19.812656551481034 L79.3504336175474,20.103186296974208 L79.16011109125728,20.3925638939506 L78.96384171344818,20.680752694339347 L78.76165034055039,20.96771620062407 L78.55356257898208,21.25341807046513 L78.33960478190647,21.53782212130215 L78.1198040458942,21.82089233493633 L77.89418820749188,22.10259286209201 L77.66278583969654,22.382888026956692 L77.42562624833724,22.66174233169927 L77.18273946836345,22.939120460965576 L76.93415626004142,23.214987286350908 L76.6799081050585,23.489307870848826 L76.42002720253618,23.762047473275743 L76.15454646495228,24.033171552670698 L75.88349951397268,24.302645772669784 L75.60692067619343,24.570436005854653 L75.32484497879335,24.836508338074566 L75.0373081450982,25.10082907274142 L74.74434659005632,25.36336473509727 L74.44599741562709,25.624082076453675 L74.14229840608198,25.882948078402507 L73.83328802321947,26.1399299569975 L73.51900540149413,26.3949951669062 L73.19949034306035,26.648111405531626 L72.87478331273167,26.89924661710323 L72.54492543285613,27.148368996736565 L72.20995847810838,27.395446994461206 L71.8699248701991,27.64044931921639 L71.52486767250255,27.883344942813846 L71.17483058460283,28.12410310386733 L70.81985793675958,28.362693311688414 L70.45999468429378,28.599085350147934 L70.09528640189441,28.83324928150272 L69.72577927784667,29.06515545018702 L69.3515201081825,29.294774486568244 L68.97255629075411,29.52207731066643 L68.58893581923131,29.74703513583709 L68.20070727702338,29.969619472416873 L67.80791983112621,30.189802131331618 L67.4106232258957,30.40755522766634 L67.00886777674769,30.62285118419671 L66.60270436378603,30.835662734881556 L66.19218442535873,31.045962928315962 L65.77735995154364,31.253725131144492 L65.35828347756424,31.458923031434175 L64.93500807713622,31.66153064200677 L64.50758735574611,31.861522303729892 L64.07607544386238,32.058872688766584 L63.640526990080154,32.25355680378297 L63.2009971542002,32.44554999311352 L62.757541600243314,32.63482794188353 L62.31021648940077,32.8213666790885 L61.859078472921794,33.00514258062991 L61.40418468493898,33.18613237230707 L60.94559273523263,33.36431313276469 L60.48336070193473,33.53966229639576 L60.01754712417373,33.71215765619929 L59.54821099466085,33.88177736659277 L59.075411752218955,34.04849994617878 L58.59920927425508,34.21230428046547 L58.11966386917712,34.373169624540594 L57.63683626875619,34.53107560569877 L57.15078762043534,34.68600222602153 L56.661579479585455,34.83792986490997 L56.169273801709664,34.9868392815696 L55.67393293459703,35.13271161744703 L55.17561961042654,35.27552839861839 L54.67439693782236,35.41527153812886 L54.1703283938616,35.551923338283345 L53.6634778160352,35.68546649288775 L53.153909394163264,35.81588408944075 L52.641687662265845,35.94315961127563 L52.12687749038999,36.067276939652075 L51.60954407639434,36.18822035579745 L51.08975293769221,36.30597454289756 L50.56756990295412,36.420524588036415 L50.043061103771,36.53185598408486 L49.51629296627898,36.63995463153783 L48.987332202746835,36.744806840299994 L48.45624580312735,36.84639933141949 L47.92310102657333,36.94471923876965 L47.38796539291961,37.03975411067846 L46.85090667413207,37.13149191150541 L46.31199288572468,37.21992102316584 L45.77129227814571,37.30503024660223 L45.228873328134185,37.38680880320253 L44.684804730047674,37.46524633616522 L44.13915538716258,37.54033291181092 L43.59199440294785,37.61205902084045 L43.04339107231344,37.68041557953913 L42.49341487283451,37.745393930927165 L41.942135455952446,37.80698584585602 L41.38962263815394,37.865183524050614 L40.83594639212903,37.91997959509713 L40.28117683790954,37.971367119376495 L39.72538423398871,38.01933958894318 L39.16863896842336,38.06389092834948 L38.61101154991964,38.10501549541485 L38.052572598903474,38.14270808194051 L37.493392838576895,38.17696391436901 L36.93354308596135,38.207778654388804 L36.37309424292907,38.23514839948361 L35.81211728722379,38.25906968342674 L35.25068326347181,38.279539476719975 L34.68886327418452,38.2965551869773 L34.126728470753754,38.3101146592532 L33.564350044440786,38.32021617631558 L33.001799217360386,38.3268584588632 L32.43914723346095,38.33004066568776 L31.87646534950179,38.329762393780356 L31.313824826028906,38.32602367838261 L30.75129691835025,38.318824992982115 L30.188952867511567,38.30816724925254 L29.626863891274173,38.294051796938135 L29.065101175095588,38.27648042368279 L28.503735863114297,38.25545535480367 L27.942839049139774,38.23097925300939 L27.382481767648777,38.20305521806273 L26.82273498478927,38.17168678638818 L26.263669589392972,38.13687793062394 L25.705356383997614,38.09863305911895 L25.147866075880245,38.05695701537447 L24.59126926810253,38.011855077430766 L24.035636450569243,37.96333295719862 L23.481037991101175,37.911396799735975 L22.92754412652334,37.856053182469694 L22.375224953769948,37.79730911436256 L21.824150421007005,37.73517203502564 L21.274390318773722,37.66964981377608 L20.726014271143974,37.60075074864053 L20.1790917269088,37.52848356530419 L19.633691950781046,37.45285741600584 L19.089884014623415,37.373881878378654 L18.547736788700917,37.29156695423733 L18.007318932958768,37.20592306831138 L17.468698888327033,37.11696106692489 L16.93194486805297,37.024692216622896 L16.397124849062156,36.92912820274458 L15.864306563349615,36.8302811279433 L15.333557489401954,36.72816351065395 L14.80494484365154,36.622788283507504 L14.278535571963928,36.51416879169321 L13.754396341159588,36.402318791268456 L13.23259353057082,36.28725244741668 L12.713193223635265,36.168984332653395 L12.196261199526784,36.04752942498071 L11.681862924824877,35.922903105990386 L11.170063545223691,35.79512115891589 L10.660927877281694,35.66419976663349 L10.154520400213048,35.530155509612854 L9.650905247721592,35.39300536381715 L9.150146199878755,35.25276669855319 L8.652306675046127,35.10945727427166 L8.157449721843829,34.9630952403179 L7.6656380111658,34.813699132633346 L7.176933828242898,34.66128787140808 L6.691399064754812,34.505880758684725 L6.209095210991713,34.347497475913855 L5.730083348067026,34.186158081461556 L5.254424140181751,34.02188300806909 L4.78217782694162,33.85469306026517 L4.313404215728205,33.684609411731245 L3.8481626741246053,33.511653602619965 L3.386512122396784,33.335847536827174 L2.928511026031778,33.15721347921797 L2.4742173883332903,32.97577405280698 L2.023688743075862,32.791552235893235 L1.5769821472186436,32.604571359150114 L1.1341541736793594,32.414855102670685 L0.6952609041696753,32.22242749296869 L0.2603579220927621,32.02731289993575 L-0.17049969449598734,31.82953603375508 L-0.5972573798643381,31.629121941772024 L-1.0198610875136822,31.426096005321973 L-1.438257297023661,31.220483936515986 L-1.852393020830256,31.012311774984465 L-2.2622158109364534,30.801605884579363 L-2.6676737655543263,30.588392950035388 L-3.068715535678244,30.372699973590525 L-3.465290331587923,30.154554271566298 L-3.857347929280593,29.93398347090838 L-4.244838676831634,29.711015505687765 L-4.6277135006827805,29.48567861356305 L-5.005923911856883,29.258001332204312 L-5.379422012098843,29.028012495679004 L-5.748160499941704,28.795741230800207 L-6.112092676697067,28.561216953437924 L-6.4711724523691885,28.324469364793732 L-6.825354351492074,28.085528447639284 L-7.174593518888713,27.844424462519115 L-7.518845725351689,27.60118794391837 L-7.858067373244559,27.35584969639576 L-8.19221550202333,27.1084407906823 L-8.521247793677091,26.85899255974644 L-8.845122578087356,26.60753659482586 L-9.16379883830546,26.35410474142663 L-9.477236215746984,26.09872909529018 L-9.785395015303017,25.84144199832852 L-10.088236210367377,25.58227603452831 L-10.385721447778998,25.32126402582432 L-10.67781305267922,25.058439027942693 L-10.964474033283096,24.793834326214586 L-11.245668085564184,24.527483431360814 L-11.521359597852246,24.25942007524788 L-11.791513655343266,23.989678206616055 L-12.056096044521261,23.71829198677988 L-12.315073257491164,23.44529578530191 L-12.568412496222457,23.170724175639968 L-12.81608167670288,22.894611930768562 L-13.058049433001614,22.616994018775163 L-13.294285121241693,22.337905598431647 L-13.524758823480838,22.057382014741588 L-13.749441351500387,21.775458794464107 L-13.968304250501838,21.492171641614533 L-14.181319802710519,21.207556432942688 L-14.388461030885829,20.921649213389333 L-14.589701701737802,20.634486191521262 L-14.785016329249387,20.34610373494566 L-14.974380177904159,20.056538365704363 L-15.157769265818857,19.76582675564857 L-15.335160367780574,19.474005721794544 L-15.506531018188198,19.18111222166089 L-15.67185951389741,18.88718334858816 L-15.83112491696938,18.592256327041163 L-15.984307057322383,18.296368507894663 L-16.131386535286254,17.999557363703133 L-16.27234472405921,17.701860483955077 L-16.407163772066916,17.403315570312454 L-16.535826605223193,17.10396043183606 L-16.658316929092393,16.803832980197182 L-16.77461923095303,16.502971224876262 L-16.88471878176233,16.201413268349263 L-16.988601638021613,15.899197301262197 L-17.086254643542162,15.596361597594427 L-17.177665431111365,15.292944509811534 L-17.262822424058953,14.988984464008203 L-17.34171483772313,14.684519955041743 L-17.414332680816415,14.379589541656896 L-17.48066675669093,14.074231841602657 L-17.54070866450313,13.768485526741511 L-17.594450800277762,13.462389318151823 L-17.641886357870796,13.155981981224095 L-17.683009329831428,12.849302320751512 L-17.717814508162895,12.542389176015494 L-17.74629748498201,12.235281415866986 L-17.76845465307742,11.928017933803895 L-17.78428320636644,11.620637643045416 L-17.79378114025041,11.31317947160395 L-17.796947251868566,11.005682357355179 " />
			<path d="M-17.796947251868566,11.005682357355058 L-17.795288671453854,10.783121147386376 L-17.79031304024526,10.560574702844264 L-17.78202068834218,10.33805778817568 L-17.7704121658859,10.115585165868477 L-17.755488243023144,9.893171595472033 L-17.73724990985496,9.670831832618024 L-17.71569837637103,9.448580628041489 L-17.690835072369417,9.226432726602246 L-17.662661647361674,9.00440286630662 L-17.63117997046345,8.782505777329712 L-17.596392130270445,8.560756181038167 L-17.558300434719868,8.339168789013481 L-17.51690741093735,8.117758302075995 L-17.47221580506921,7.896539409309613 L-17.424228582100355,7.675526787087238 L-17.372948925657496,7.454735098097123 L-17.31838023779799,7.234178990370124 L-17.260526138784122,7.013873096307866 L-17.199390466842907,6.793832031711994 L-17.13497727791148,6.574070394814528 L-17.06729084536797,6.354602765309328 L-16.99633565974804,6.135443703384863 L-16.922116428446934,5.916607748758256 L-16.844638075407197,5.6981094197106446 L-16.763905740791976,5.4799632121239945 L-16.679924780644043,5.2621835985194165 L-16.59270076653042,5.044785027096972 L-16.502239485172765,4.827781920777161 L-16.40854693806346,4.611188676244076 L-16.31162934106745,4.395019662990252 L-16.21149312400987,4.179289222363354 L-16.108144930249516,3.9640116666148613 " />
			<path d="M80.51425042651232,18.04735304809538 L61.18977135515996,15.230684771799252 " />
			<path d="M3.216334141102891,6.780679942910881 L3.3196823348633018,6.565402387162269 L3.4198185519208764,6.349671946535373 L3.516736148916891,6.133502933281549 L3.61042869602619,5.916909688748464 L3.700889977383845,5.6999065824286514 L3.788113991497468,5.4825080110062085 L3.8720949516454084,5.264728397401631 L3.9528272862606215,5.0465821898149805 L4.030305639300366,4.828083860767368 L4.104524870601466,4.609247906140761 L4.175480056221396,4.390088844216297 L4.243166488764906,4.1706212147110975 L4.307579677696339,3.950859577813631 L4.368715349637554,3.7308185132177587 L4.426569448651421,3.5105126191555005 L4.481138136510928,3.2899565114285014 L4.532417792953787,3.0691648224383865 L4.5804050159226435,2.848152200216012 L4.6250966217907745,2.6269333074496295 L4.6664896455733,2.405522820512144 L4.704581341123877,2.183935428487458 L4.7393691813168815,1.962185832195913 L4.7708508582151055,1.7402887432190046 L4.799024283222849,1.5182588829233792 L4.823887587224462,1.2961109814841354 L4.845439120708392,1.073859776907601 L4.863677453876576,0.8515200140535908 L4.878601376739326,0.6291064436571475 L4.890209899195611,0.40663382134994464 L4.898502251098691,0.18411690668136088 L4.9034778823072855,-0.038429537860751345 L4.905136462721998,-0.2609907478293116 " />
			<path d="M4.905136462721998,-0.26099074782943293 L4.902517319890464,-0.5406690102963181 L4.894660165792239,-0.8203179720705522 L4.881565823587671,-1.099908335529192 L4.863235665114864,-1.3794108091884014 L4.839671610745938,-1.658796110772157 L4.810876129185857,-1.938034970280051 L4.776852237213795,-2.2170981330538098 L4.737603499367054,-2.4959563628421395 L4.693134027567652,-2.774580444863698 L4.643448480691518,-3.052941188867801 L4.588552064080417,-3.3310094321925585 L4.528450528996579,-3.608756042820123 L4.4631501720202,-3.8861519224287266 L4.392657834389766,-4.163168009441186 L4.316980901285291,-4.439775282069562 L4.236127301054651,-4.715944761355655 L4.15010550438295,-4.991647514206974 L4.058924523405075,-5.266854656427959 L3.9625939107615267,-5.541537355746069 L3.8611237585976568,-5.815666834832392 L3.7545246975063264,-6.0892143743165255 L3.642807895414201,-6.3621513157953835 L3.5259850564117414,-6.634449064835617 L3.4040684195269932,-6.906079093969329 L3.2770707574433757,-7.1770129456827725 L3.14500537516156,-7.447222235397729 L3.00788610860549,-7.716678654445229 L2.8657273231729476,-7.985353973031351 L2.718543912230473,-8.253220043194696 L2.5663512955530976,-8.520248801755354 L2.409165417708877,-8.786412273254982 L2.2470027463883966,-9.051682572887648 L2.0798802706795883,-9.316031909421199 L1.9078154992878282,-9.579432588108848 L1.730826458701614,-9.841857013590616 L1.5489316913040199,-10.103277692784392 L1.3621502534300873,-10.363667237766256 L1.1705017133703848,-10.622998368639806 L0.974006149320914,-10.881243916394142 L0.7726841472795698,-11.13837682575027 L0.5665567988895077,-11.394370157995526 L0.35564569922942013,-11.649197093805858 L0.1399729445510829,-11.902830936055587 L-0.08043887003553607,-12.155245112614324 L-0.30556665292945695,-12.406413179130821 L-0.5353868184579369,-12.656308821803446 L-0.7698752893474179,-12.904905860136951 L-1.0090074992459819,-13.1521782496853 L-1.252758395297107,-13.39810008478023 L-1.5011024407643063,-13.642645601245286 L-1.7540136177065193,-13.885789179095008 L-2.011465429703918,-14.127505345219049 L-2.27343090463377,-14.367768776050847 L-2.539882597496245,-14.606554300220688 L-2.8107925932896975,-14.843836901192828 L-3.086132509935183,-15.079591719886334 L-3.3658735012499363,-15.313794057279468 L-3.649986259969502,-15.546419376997306 L-3.93844102081804,-15.777443307882304 L-4.231207563626796,-16.006841646547567 L-4.528255216500099,-16.234590359912517 L-4.829552859028716,-16.46066558772076 L-5.135068925550222,-16.685043645039798 L-5.44477140845602,-16.907701024742437 L-5.758627861544561,-17.128614399969457 L-6.076605403420672,-17.347760626573525 L-6.3986707209403875,-17.565116745543918 L-6.724790072701005,-17.780659985411802 L-7.05492929257602,-17.994367764635903 L-7.389053793294593,-18.206217693968313 L-7.727128570065091,-18.41618757880007 L-8.069118204242379,-18.62425542148644 L-8.414986867038515,-18.830399423651464 L-8.764698323276342,-19.03459798847173 L-9.118215935185717,-19.236829722938936 L-9.475502666241887,-19.4370734401012 L-9.836521085045618,-19.63530816128265 L-10.201233369244754,-19.831513118281322 L-10.569601309496726,-20.02566775554496 L-10.941586313471511,-20.217751732324494 L-11.31714940989486,-20.407744924805115 L-11.696251252631122,-20.59562742821449 L-12.078852124805309,-20.781379558908142 L-12.464911942964157,-20.964981856431592 L-12.854390261275462,-21.14641508555919 L-13.247246275765406,-21.32566023830929 L-13.643438828593425,-21.5026985359356 L-14.042926412364125,-21.677511430894604 L-14.445667174475869,-21.850080608788673 L-14.851618921505445,-22.020387990284803 L-15.260739123628518,-22.188415733008682 L-15.672984919075322,-22.354146233414014 L-16.088313118621045,-22.517562128626707 L-16.506680210110623,-22.678646298263935 L-16.92804236301732,-22.83738186622778 L-17.35235543303464,-22.993752202473246 L-17.77957496670115,-23.147740924750515 L-18.2096562060577,-23.299331900321263 L-18.64255409333648,-23.448509247648822 L-19.078223275681562,-23.595257338061984 L-19.516618109900307,-23.739560797392393 L-19.95769266724523,-23.88140450758521 L-20.401400738225718,-24.02077360828295 L-20.847695837449276,-24.157653498382402 L-21.296531208491476,-24.29202983756423 L-21.747859828794486,-24.423888547795393 L-22.20163441459353,-24.55321581480409 L-22.657807425870466,-24.67999808952694 L-23.116331071334397,-24.80422208952851 L-23.577157313428557,-24.925874800392826 L-24.040237873363004,-25.044943477086875 L-24.50552423617258,-25.161415645295804 L-24.972967655799614,-25.275279102729847 L-25.44251916020084,-25.386521920402664 L-25.914129556477985,-25.49513244388112 L-26.387749436031505,-25.60109929450625 L-26.8633291797369,-25.70441137058537 L-27.340818963143107,-25.805057848555144 L-27.8201687616924,-25.90302818411552 L-28.301328355961225,-25.998312113334407 L-28.7842473369215,-26.090899653723007 L-29.268875111221735,-26.180781105281604 L-29.75516090648749,-26.267947051515826 L-30.243053776640572,-26.352388360423134 L-30.73250260723645,-26.434096185449576 L-31.22345612081928,-26.513061966416586 L-31.715862882294033,-26.589277430417795 L-32.20967130431474,-26.662734592685695 " />
			<path d="M4.905136462721998,-17.010260801578088 L4.902517319890464,-17.289939064044972 L4.894660165792239,-17.569588025819208 L4.881565823587671,-17.849178389277846 L4.863235665114864,-18.128680862937056 L4.839671610745938,-18.40806616452081 L4.810876129185857,-18.687305024028706 L4.776852237213795,-18.966368186802463 L4.737603499367054,-19.245226416590793 L4.693134027567652,-19.523850498612354 L4.643448480691518,-19.802211242616455 L4.588552064080417,-20.08027948594121 L4.528450528996579,-20.35802609656878 L4.4631501720202,-20.63542197617738 L4.392657834389766,-20.912438063189843 L4.316980901285291,-21.189045335818218 L4.236127301054651,-21.46521481510431 L4.15010550438295,-21.740917567955627 L4.058924523405075,-22.016124710176612 L3.9625939107615267,-22.290807409494725 L3.8611237585976568,-22.564936888581045 L3.7545246975063264,-22.83848442806518 L3.642807895414201,-23.11142136954404 L3.5259850564117414,-23.38371911858427 L3.4040684195269932,-23.655349147717985 L3.2770707574433757,-23.92628299943143 L3.14500537516156,-24.196492289146384 L3.00788610860549,-24.465948708193885 L2.8657273231729476,-24.734624026780004 L2.718543912230473,-25.00249009694335 L2.5663512955530976,-25.26951885550401 L2.409165417708877,-25.535682327003634 L2.2470027463883966,-25.800952626636303 L2.0798802706795883,-26.06530196316985 L1.9078154992878282,-26.328702641857504 L1.730826458701614,-26.591127067339272 L1.5489316913040199,-26.852547746533048 L1.3621502534300873,-27.11293729151491 L1.1705017133703848,-27.37226842238846 L0.974006149320914,-27.630513970142797 L0.7726841472795698,-27.887646879498924 L0.5665567988895077,-28.14364021174418 L0.35564569922942013,-28.398467147554513 L0.1399729445510829,-28.65210098980424 L-0.08043887003553607,-28.904515166362977 L-0.30556665292945695,-29.155683232879475 L-0.5353868184579369,-29.405578875552102 L-0.7698752893474179,-29.654175913885606 L-1.0090074992459819,-29.901448303433952 L-1.252758395297107,-30.147370138528885 L-1.5011024407643063,-30.39191565499394 L-1.7540136177065193,-30.635059232843663 L-2.011465429703918,-30.876775398967702 L-2.27343090463377,-31.1170388297995 L-2.539882597496245,-31.355824353969343 L-2.8107925932896975,-31.593106954941483 L-3.086132509935183,-31.82886177363499 L-3.3658735012499363,-32.063064111028126 L-3.649986259969502,-32.29568943074596 L-3.93844102081804,-32.52671336163096 L-4.231207563626796,-32.75611170029622 L-4.528255216500099,-32.983860413661176 L-4.829552859028716,-33.209935641469414 L-5.135068925550222,-33.43431369878846 L-5.44477140845602,-33.65697107849109 L-5.758627861544561,-33.87788445371811 L-6.076605403420672,-34.09703068032218 L-6.3986707209403875,-34.31438679929258 L-6.724790072701005,-34.529930039160455 L-7.05492929257602,-34.743637818384556 L-7.389053793294593,-34.95548774771697 L-7.727128570065091,-35.16545763254872 L-8.069118204242379,-35.3735254752351 L-8.414986867038515,-35.57966947740012 L-8.764698323276342,-35.783868042220384 L-9.118215935185717,-35.986099776687595 L-9.475502666241887,-36.186343493849854 L-9.836521085045618,-36.384578215031304 L-10.201233369244754,-36.580783172029975 L-10.569601309496726,-36.77493780929361 L-10.941586313471511,-36.96702178607315 L-11.31714940989486,-37.157014978553775 L-11.696251252631122,-37.344897481963145 L-12.078852124805309,-37.530649612656795 L-12.464911942964157,-37.714251910180245 L-12.854390261275462,-37.895685139307844 L-13.247246275765406,-38.07493029205794 L-13.643438828593425,-38.25196858968425 L-14.042926412364125,-38.42678148464326 L-14.445667174475869,-38.59935066253733 L-14.851618921505445,-38.769658044033456 L-15.260739123628518,-38.93768578675734 L-15.672984919075322,-39.10341628716267 L-16.088313118621045,-39.26683218237536 L-16.506680210110623,-39.42791635201259 L-16.92804236301732,-39.58665191997643 L-17.35235543303464,-39.7430222562219 L-17.77957496670115,-39.89701097849917 L-18.2096562060577,-40.04860195406992 L-18.64255409333648,-40.197779301397475 L-19.078223275681562,-40.34452739181064 L-19.516618109900307,-40.488830851141046 L-19.95769266724523,-40.63067456133386 L-20.401400738225718,-40.770043662031604 L-20.847695837449276,-40.906923552131055 L-21.296531208491476,-41.04129989131288 L-21.747859828794486,-41.173158601544046 L-22.20163441459353,-41.30248586855274 L-22.657807425870466,-41.42926814327559 L-23.116331071334397,-41.55349214327716 L-23.577157313428557,-41.67514485414148 L-24.040237873363004,-41.79421353083553 L-24.50552423617258,-41.91068569904446 L-24.972967655799614,-42.0245491564785 L-25.44251916020084,-42.13579197415132 L-25.914129556477985,-42.24440249762977 L-26.387749436031505,-42.3503693482549 L-26.8633291797369,-42.45368142433402 L-27.340818963143107,-42.5543279023038 L-27.8201687616924,-42.65229823786417 L-28.301328355961225,-42.74758216708307 L-28.7842473369215,-42.84016970747166 L-29.268875111221735,-42.930051159030256 L-29.75516090648749,-43.01721710526448 L-30.243053776640572,-43.10165841417179 L-30.73250260723645,-43.18336623919823 L-31.22345612081928,-43.26233202016524 L-31.715862882294033,-43.33854748416645 L-32.20967130431474,-43.412004646434355 " />
			<path d="M-32.209671304315194,-26.66273459268576 L-32.209671304315194,-43.41200464643442 " />
			<path d="M-16.108144930249466,3.9640116666147547 L-15.986054283758673,3.7054068687894492 L-15.871688197295487,3.445749514117304 L-15.765077020012718,3.1851085074719507 L-15.666249043154828,2.923553014757214 L-15.575230492550322,2.6611524445526826 L-15.492045521652258,2.397976429694884 L-15.416716205128669,2.134094808798881 L-15.349262533004644,1.8695776077253266 L-15.289702405357612,1.6044950209978328 L-15.23805162756722,1.338917393175512 L-15.19432390612107,1.0729152001857734 L-15.158530844977491,0.806559030622253 L-15.130681942486166,0.5399195670127863 L-15.110784588867602,0.2730675670625142 L-15.098844064251985,0.0060738448770422115 L-15.094863537278002,-0.26099074782936127 " />
			<path d="M-15.094863537278002,-0.2609907478294341 L-15.096435022976923,-0.4287977053095652 L-15.101149315435855,-0.5965870823741056 L-15.109005920758594,-0.7643413004492896 L-15.120004015842284,-0.9320427846448153 L-15.134142448463638,-1.0996739655950685 L-15.151419737399685,-1.2672172812998053 L-15.171834072582921,-1.4346551789640603 L-15.195383315290968,-1.6019701168370581 L-15.222064998370609,-1.7691445660499936 L-15.251876326496287,-1.936161012452455 L-15.284814176462952,-2.10300195844731 L-15.320875097513252,-2.2696499248238484 L-15.360055311699078,-2.436087452589011 L-15.402350714277343,-2.6022971047964867 L-15.447756874140026,-2.7682614683735123 L-15.496269034278413,-2.9339631559451673 L-15.547882112281432,-3.0993848076559596 L-15.60259070086816,-3.2645090929885496 L-15.660389068454283,-3.429318712579416 L-15.721271159752607,-3.5937964000312097 L-15.785230596407402,-3.75792492372169 L-15.85226067766268,-3.9216870886090045 L-15.922354381064157,-4.085065738033145 L-15.995504363195007,-4.248043755513372 L-16.071702960445172,-4.410604066541438 L-16.150942189814266,-4.5727296403704125 L-16.233213749747907,-4.734403491798912 L-16.318509021007433,-4.895608682950585 L-16.40681906757292,-5.056328325048593 L-16.49813463757934,-5.216545580184986 L-16.592446164285874,-5.376243663084764 L-16.689743767078163,-5.535405842864362 L-16.790017252503446,-5.694015444784494 L-16.893256115338502,-5.852055851997083 L-16.999449539690232,-6.009510507286144 L-17.10858640012879,-6.166362914802409 L-17.220655262853146,-6.322596641791528 L-17.33564438688897,-6.478195320315657 L-17.453541725318654,-6.63314264896826 L-17.57433492654346,-6.787422394581936 L-17.698011335577498,-6.94101839392909 L-17.82455799537355,-7.093914555415289 L-17.953961648180552,-7.246094860765126 L-18.086208736932523,-7.3975433667003685 L-18.221285406668876,-7.548244206610267 L-18.359177505985965,-7.698181592213842 L-18.49987058851965,-7.847339815213945 L-18.643349914458792,-7.995703248942953 L-18.789600452089463,-8.143256349999913 L-18.938606879369786,-8.289983659878947 L-19.090353585535112,-8.43586980658878 L-19.24482467273355,-8.580899506263204 L-19.402003957691463,-8.725057564762283 L-19.561874973408948,-8.868328879264189 L-19.724420970885017,-9.010698439847472 L-19.889624920872308,-9.152151331063575 L-20.057469515661165,-9.292672733499456 L-20.2279371708929,-9.43224792533016 L-20.401010027402023,-9.570862283861157 L-20.57666995308728,-9.708501287060315 L-20.75489854481126,-9.845150515079286 L-20.935677130328433,-9.98079565176423 L-21.118986770241335,-10.115422486155655 L-21.30480825998481,-10.249016913977236 L-21.49312213183794,-10.381564939113447 L-21.683908656963602,-10.51305267507589 L-21.87714784747543,-10.643466346458128 L-22.072819458531804,-10.772792290378854 L-22.27090299045681,-10.901016957913319 L-22.471377690887955,-11.028126915512763 L-22.674222556950255,-11.15410884641182 L-22.87941633745663,-11.27894955202364 L-23.08693753513431,-11.402635953322655 L-23.296764408877007,-11.525155092214812 L-23.508874976022632,-11.646494132895137 L-23.723247014656334,-11.766640363192495 L-23.939858065938573,-11.885581195901366 L-24.158685436458054,-12.003304170100568 L-24.379706200609235,-12.119796952458747 L-24.602897202994107,-12.235047338526474 L-24.82823506084812,-12.349043254014845 L-25.05569616648987,-12.461772756060471 L-25.285256689794387,-12.57322403447666 L-25.516892580689696,-12.683385412990729 L-25.75057957167648,-12.792245350467288 L-25.986293180370446,-12.899792442117347 L-26.224008712067256,-13.006015420693137 L-26.46370126232968,-13.11090315766854 L-26.70534571959672,-13.214444664404981 L-26.948916767814467,-13.316629093302655 L-27.441736366356395,-13.516884039180184 L-27.941953540977575,-13.711584078090137 L-28.449358674731982,-13.900647620615722 L-28.963739138545822,-14.083995439324536 L-29.484879380320137,-14.261550701968964 L-30.01256101525834,-14.4332390036829 L-30.54656291738077,-14.598988398161216 L-31.086661312187893,-14.75872942780901 L-31.63262987043348,-14.912395152847939 L-32.184239802968335,-15.059921179367471 L-32.74125995661475,-15.201245686309258 L-33.3034569110317,-15.336309451373372 L-33.8705950765301,-15.465055875835525 L-34.44243679279707,-15.587431008264863 L-35.01874242848794,-15.70338356713242 L-35.59927048164424,-15.81286496230074 L-36.183777680895545,-15.915829315385654 L-36.77201908740277,-16.012233478981727 L-37.363748197500044,-16.102037054743192 " />
			<path d="M-32.209671304315194,-26.66273459268576 L-81.1667832333903,-11.174676069393092 " />
			<path d="M-32.209671304315194,-43.41200464643442 L-81.1667832333903,-27.923946123141754 " />
			<path d="M-81.1667832333903,-11.174676069393099 L-81.1667832333903,-27.923946123141754 " />
			<path d="M-81.16678323339032,-27.923946123141754 L-86.32086012657545,-17.363248585199223 " />
			<path d="M-37.36374819750033,-16.102037054743228 L-86.32086012657544,-0.6139785314505612 " />
			<path d="M-86.32086012657544,-17.363248585199223 L-86.32086012657544,-0.6139785314505684 " />
			<path d="M-86.32086012657545,-0.6139785314505692 L-81.16678323339032,-11.174676069393097 " />
			<path d="M-16.108144930249466,-4.4859931622736156 L-16.108144930249466,3.9640116666147467 " />
			<path d="M-16.108144930249452,3.9640116666147467 L3.2163341411029034,6.78067994291087 " />
			<path d="M-37.36374819750032,-16.102037054743235 L-32.2096713043152,-26.662734592685766 " />
			<path d="M-17.796947251868573,-5.743587696393604 L-17.796947251868573,11.005682357355052 " />
			<path d="M4.905136462722012,-0.26099074782943354 L4.905136462722012,-17.01026080157809 " />

        </g>
        </g>
    </svg>
    