<?xml version="1.0" encoding="UTF-8" standalone="no"?>
    <svg
    xmlns:svg="http://www.w3.org/2000/svg"
    xmlns="http://www.w3.org/2000/svg"
    width="500.0"
    height="220.0"
    >
        <g transform="scale(2.2365807482764013, -2.2365807482764013)   translate(71.96054733405427,-44.382193625011695)" stroke-width="0.4471110648567641"  fill="none">
        <!-- hidden lines -->
        <g  stroke="rgb(160,160,160)" fill="none" stroke-dasharray="0.4471110648567641,0.4471110648567641" >
    			<path d="M74.30900449261011,31.481962637869096 L74.30900449261011,39.91108297644405 " />
			<path d="M98.93480154245317,2.0432727271972375 L74.30900449261011,31.481962637869092 " />
			<path d="M1.357634149408156,13.81537004507352 L74.30900449261011,31.481962637869096 " />
			<path d="M-9.274632347476981,18.332072707726226 L-9.356800876893107,18.310624507392504 L-9.438248126586974,18.28625222535705 L-9.518961830902363,18.258959531995888 L-9.598929834652292,18.22875053748825 L-9.678140094949544,18.195629791197586 L-9.756580683020275,18.159602280986466 L-9.834239786000447,18.120673432465406 L-9.911105708714807,18.0788491081758 L-9.987166875438128,18.034135606707046 L-10.062411831638475,17.986539661747994 L-10.136829245702216,17.936068441072887 L-10.210407910640527,17.882729545461906 L-10.28313674577711,17.82653100755654 L-10.355004798416907,17.76748129064988 L-10.426001245495545,17.705589287412085 L-10.496115395209241,17.640864318551195 L-10.565336688624946,17.573316131409438 L-10.633654701270487,17.502954898495343 L-10.701059144704455,17.429791215951763 L-10.767539868065601,17.353836101960184 L-10.833086859601522,17.275100995081385 L-10.897690248176392,17.193597752532852 L-10.961340304757524,17.10933864840312 L-11.024027443880518,17.02233637180334 L-11.085742225092806,16.932604024956355 L-11.14647535437534,16.84015512122353 L-11.206217685542248,16.745003583069717 L-11.2649602216182,16.64716373996657 L-11.322694116193338,16.546650326234566 L-11.379410674755501,16.44347847882411 L-11.435101355999588,16.33766373503592 L-11.489757773113855,16.229222030181194 L-11.54337169504292,16.118169695181802 L-11.595935047727352,16.00452345411091 L-11.697878541375989,15.769518100633466 L-11.795526847111105,15.524347528186375 L-11.888821145244634,15.269159418354967 L-11.977705238779876,15.004107486914506 L-12.062125587262475,14.729351391237557 L-12.142031339031185,14.445056634122372 L-12.21737436184901,14.151394464100159 L-12.288109271896264,13.848541772281417 L-12.354193461108078,13.5366809858033 L-12.415587122839923,13.215999957942353 L-12.472253275845624,12.886691854958727 L-12.524157786553499,12.548955039740036 L-12.571269389627128,12.202992952314979 L-12.613559706798439,11.849013987308659 L-12.651003263961703,11.48723136841347 L-12.683577506518189,11.117863019951114 L-12.711262812962211,10.741131435603135 L-12.73404250670039,10.357263544389035 L-12.751902866097003,9.966490573972742 L-12.76483313273939,9.56904791137969 L-12.772825517918424,9.165174961208487 L-12.775875207320123,8.755115001422539 L-12.773980363925629,8.339115036808485 L-12.76714212911775,7.917425650189768 L-12.755364621993435,7.490300851484907 L-12.738654936882588,7.057997924701416 L-12.717023139074705,6.6207772729575485 L-12.690482258755917,6.178902261625176 L-12.659048283160104,5.732639059688354 L-12.62274014693877,5.282256479413074 L-12.581579720755528,4.828025814424801 L-12.535591798112023,4.370220676291347 L-12.484804080413257,3.909116829709494 L-12.429247160281296,3.444992026394635 L-12.368954503127421,2.978125837773539 L-12.303962426993811,2.508799486580986 L-12.234310080676922,2.037295677461683 L-12.160039420145704,1.5638984266795863 L-12.081195183268903,1.088892891037108 L-11.99782486286664,0.6125651961073137 L-11.909978678102505,0.13520226388258472 L-11.81770954423342,-0.34290836005645164 L-11.721073040735465,-0.8214786797476379 L-11.620127377824872,-1.3002204223252938 L-11.51493336139438,-1.7788452116649967 L-11.405554356386027,-2.2570647420905825 L-11.292056248622487,-2.7345909520387073 L-11.174507405119908,-3.2111361975763484 L-11.052978632906182,-3.6864134256667644 L-10.927543136369437,-4.1601363470795185 L-10.798276473162453,-4.632019608840393 L-10.66525650868955,-5.101778966117353 L-10.528563369203393,-5.569131453439015 L-10.388279393539921,-6.033795555142445 L-10.244489083520524,-6.495491374947684 L-10.097279053051281,-6.953940804556805 L-9.946737975950018,-7.408867691175942 L-9.792956532532482,-7.859998003859405 L-9.636027354989933,-8.307059998575678 L-9.476044971590959,-8.749784381895871 L-9.313105749741197,-9.18790447320601 L-9.147307837935195,-9.621156365345449 L-8.978751106635446,-10.04927908357469 L-8.807537088114142,-10.47201474277682 L-8.633768915293931,-10.889108702797834 L-8.457551259624516,-11.300309721832367 L-8.278990268032462,-11.705370107762354 L-8.098193498982283,-12.104045867357488 L-7.915269857687234,-12.496096853247629 L-7.730329530508868,-12.881286908578613 L-7.543483918584915,-13.259384009264293 L-7.3548455707253915,-13.63016040374918 L-7.164528115617404,-13.993392750197458 L-6.972646193379484,-14.348862251025754 L-6.779315386506656,-14.696354784698634 L-6.584652150247881,-15.035661034707395 L-6.38877374245775,-15.36657661565451 L-6.191798152964754,-15.688902196367748 L-5.993844032498605,-16.002443619969824 L-5.795030621219495,-16.307012020831216 L-5.595477676892271,-16.60242393833579 L-5.395305402748826,-16.888501427390615 L-5.194634375082181,-17.165072165613402 L-4.9935854706158285,-17.4319695571331 L-4.792279793692118,-17.689032832940985 L-4.590838603323522,-17.936107147731935 L-4.389383240150749,-18.173043673177414 L-4.188035053351671,-18.39969968757413 L-3.986915327545124,-18.615938661814223 L-3.7861452097335837,-18.821630341625298 L-3.5858456363287354,-19.01665082603075 L-3.3861372603039204,-19.200882641983068 L-3.187140378517282,-19.374214815125175 L-2.9889748592494314,-19.53654293663729 L-2.8902411844335862,-19.613549661099054 L-2.791760069999291,-19.687769226128847 L-2.693546346840133,-19.75919045453319 L-2.595614805581566,-19.82780259053778 L-2.4979801943534814,-19.893595301407316 L-2.400657216569202,-19.956558679001546 L-2.303660528711199,-20.0166832412674 L-2.2070047381238838,-20.07395993366696 L-2.1107044008137845,-20.12838013054103 L-2.0147740192574894,-20.17993563640813 L-1.919228040217598,-20.228618687198708 L-1.8240808525671017,-20.274421951424397 L-1.729346785122491,-20.317338531282076 L-1.6350401044858587,-20.357361963692682 L-1.5411750128964234,-20.394486221274505 L-1.4477656460917139,-20.42870571325091 L-1.3548260711787847,-20.460015286292276 L-1.2623702845157596,-20.488410225292068 L-1.1704122096040308,-20.513886254076915 L-1.0789656949914308,-20.536439536050594 L-0.9880445121866943,-20.5560666747718 L-0.8976623535855177,-20.572764714465624 L-0.8078328304085334,-20.586531140468722 L-0.7185694706515142,-20.597363879607965 L-0.6298857170481016,-20.60526130051269 L-0.5417949250453846,-20.610222213860357 L-0.45431036079261666,-20.61224587255566 L-0.36744519914337914,-20.611331971843047 L-0.2812125216715007,-20.6074806493526 L-0.1956253147010214,-20.60069248507933 L-0.11069646735049599,-20.59096850129579 L-0.026438769591941913,-20.578310162398182 L0.0571350896752838,-20.562719374685784 L0.14001252453535074,-20.54419848607388 " />

        </g>

        <!-- solid lines -->
        <g  stroke="rgb(0,0,0)" fill="none">
    			<path d="M25.98343119925122,-15.62331986559834 L25.98343119925122,-7.1941995270233825 " />
			<path d="M25.98343119925122,-7.194199527023379 L1.3576341494081583,22.244490383648476 " />
			<path d="M1.357634149408156,13.81537004507352 L1.357634149408156,22.244490383648476 " />
			<path d="M25.98343119925122,-15.62331986559834 L1.3576341494081583,13.815370045073516 " />
			<path d="M98.93480154245317,2.0432727271972375 L98.93480154245317,10.472393065772195 " />
			<path d="M98.93480154245317,10.472393065772197 L74.30900449261011,39.91108297644405 " />
			<path d="M25.98343119925122,-15.62331986559834 L98.93480154245319,2.043272727197236 " />
			<path d="M25.98343119925122,-7.194199527023379 L98.93480154245319,10.472393065772197 " />
			<path d="M1.357634149408156,22.24449038364848 L74.30900449261011,39.91108297644406 " />
			<path d="M-4.567309911470796,15.752177787976088 L-4.723963043273467,15.936377213980691 L-4.880559116791586,16.11436921606928 L-5.03704109452312,16.286088963630515 L-5.1933519805235395,16.45147391061692 L-5.349434841165599,16.610463818326224 L-5.505232825876474,16.76300077734231 L-5.660689187844662,16.90902922862777 L-5.81574730468901,17.04849598376031 L-5.970350699082491,17.18135024430578 L-6.1244430593231565,17.307543620320658 L-6.2779682598446795,17.427030147977245 L-6.430870381659183,17.539766306305246 L-6.583093732724812,17.64571103304357 L-6.734582868230591,17.744825739596525 L-6.885282610791286,17.83707432508911 L-7.035138070544869,17.92242318951615 L-7.184094665145194,18.000841245980514 L-7.332098139642715,18.072299932016012 L-7.479094586245975,18.13677321999081 L-7.625030463956573,18.194237626587544 L-7.769852618070598,18.2446722213567 L-7.913508299539355,18.28805863434025 L-8.055945184182303,18.324381062762516 L-8.197111391745258,18.353626276786148 L-8.33695550479695,18.37578362433081 L-8.475426587456912,18.390845034953063 L-8.61247420394804,18.398805022785858 L-8.74804843696701,18.39966068853669 L-8.882099905865783,18.393411720543615 L-9.014579784637682,18.380060394888762 L-9.145439819701497,18.359611574569307 L-9.274632347476919,18.33207270772624 " />
			<path d="M0.14001252453538093,-20.544198486073874 L0.27204808033202355,-20.50820115947055 L0.40219176216004726,-20.464618859738277 L0.5303926923112359,-20.413468624719354 L0.6566007525668285,-20.35477045082619 L0.780766603790469,-20.288547285223952 L0.9028417052166011,-20.214825016859763 L1.0227783334267482,-20.133632466341776 L1.1405296010062624,-20.045001374672218 L1.2560494748742483,-19.948966390838706 L1.3692927942795086,-19.845565058268754 L1.4802152884554536,-19.734837800152746 L1.5887735939270842,-19.616827903641084 L1.694925271463303,-19.491581502921736 L1.7986288226678786,-19.35914756118477 L1.899843706202617,-19.21957785148095 L1.99853035363639,-19.072926936481817 L2.09465018491382,-18.91925214714926 L2.188165623437559,-18.758613560322807 L2.279040110758305,-18.59107397523355 L2.3672381208667677,-18.416698888953672 L2.452725174082029,-18.235556470791384 L2.5354678505308526,-18.04771753564117 L2.615433803212677,-17.85325551629976 L2.6925917706451923,-17.652246434758688 L2.7669115890855416,-17.444768872484637 L2.838364204322385,-17.230903939699207 L2.906921683034196,-17.010735243670112 L2.9725572237093782,-16.78434885602615 L3.0352451671239145,-16.551833279108823 L3.0949610063724453,-16.313279411373678 L3.1516813964488843,-16.06878051185491 L3.205384163372784,-15.818432163707184 L3.256048312857928,-15.562332236838802 L3.3036540385197286,-15.300580849650977 L3.3481827296182294,-15.033280329898036 L3.3896169783336942,-14.760535174683929 L3.427940586571938,-14.48245200961066 L3.4631385722967227,-14.199139547094628 L3.495197175386757,-13.910708543867147 L3.524103863015007,-13.617271757675766 L3.5498473345482218,-13.318943903203344 L3.5724175259647364,-13.015841607222058 L3.591805613788864,-12.70808336299993 L3.6080040185402833,-12.395789483977673 L3.6210064076971307,-12.079082056733986 L3.6308076981716066,-11.758084893257625 L3.6374040582971254,-11.432923482544984 L3.640792909326251,-11.103724941542064 L3.6409729264388204,-10.770617965450029 L3.637944039259862,-10.43373277741374 L3.6317074318871025,-10.093201077613006 L3.622265542428069,-9.74915599177637 L3.6096220620469452,-9.401732019137622 L3.5937819335215604,-9.051064979855347 L3.5747513493110947,-8.697291961916092 L3.552537749135226,-8.340551267541883 L3.5271498170656823,-7.98098235912306 L3.498597478131339,-7.618725804697552 L3.4668918944381737,-7.253923222997937 L3.432045460805611,-6.886717228087727 L3.39407179992096,-6.517251373608556 L3.3529857570138235,-6.145670096660052 L3.3088033940525827,-5.772118661334323 L3.2615419834652153,-5.396743101927183 L3.2112200013868932,-5.019690165848191 L3.1578571204370203,-4.641107256251996 L3.1014742020285224,-4.2611423744133425 L3.0420932882123903,-3.8799440618681404 L2.9797375930606718,-3.4976613423434237 L2.9144314935912767,-3.11444366349877 L2.8462005202381597,-2.7304408385019894 L2.775071346870571,-2.345802987461931 L2.7010717803653215,-1.9606804787412904 L2.624230749736091,-1.5752238701723709 L2.5445782948240767,-1.1895838501987674 L2.462145554554369,-0.8039111789659961 L2.3769647547626542,-0.41835662938408946 L2.2890691955970155,-0.03307092818520374 L2.1984932384997418,0.3517953030007226 L2.1052722927742353,0.7360916065292218 L2.0094428017422867,1.1196677475604422 L1.9110422284971023,1.502373772791191 L1.810109041257677,1.8840600690769156 L1.706682698330222,2.264577421920704 L1.6008036326825383,2.643777073806441 L1.4925132361373539,3.021510782353313 L1.3818538431908207,3.39763087826893 L1.2688687144624815,3.7719903230783904 L1.1536020197831753,4.144442766606802 L1.0360988209275135,4.514842604192642 L0.9164050539976678,4.883045033609671 L0.7945675114653374,5.248906111675223 L0.6706338238789336,5.612282810522605 L0.5446524412431453,5.973033073515686 L0.41667261407812983,6.331015870783791 L0.28674437416577625,6.686091254355203 L0.15491851499052967,7.038120412867711 L0.021246571882445053,7.386965725834811 L-0.11421919812976888,7.732490817446365 L-0.25142583674785257,8.074560609882667 L-0.3903197051072347,8.413041376121067 L-0.5308465047463464,8.747800792214546 L-0.6729512988337736,9.078707989021753 L-0.8165785336449947,9.405633603368338 L-0.9616720602802595,9.728449828619508 L-1.108175156615165,10.047030464644124 L-1.2560305494753021,10.361250967150731 L-1.4051804370263494,10.670988496376259 L-1.5555665113708206,10.97612196510839 L-1.707129981342662,11.276532086022769 L-1.8598115954907648,11.572101418316576 L-2.0135516652424297,11.862714413620237 L-2.1682900882377245,12.148257461169342 L-2.3239663718255823,12.428618932219036 L-2.4805196567124805,12.703689223683577 L-2.637888740754483,12.973360800984024 L-2.7960121028832816,13.237528240087265 L-2.9548279271569413,13.496088268719948 L-3.1142741269258973,13.748939806741204 L-3.2742883691048004,13.995984005658421 L-3.4348080985406932,14.237124287270564 L-3.595770562468007,14.472266381423958 L-3.757112835040802,14.70131836286578 L-3.918771841932685,14.924190687180879 L-4.080684384994759,15.140796225797768 L-4.242787166961986,15.351050300050257 L-4.405016816198301,15.55487071428129 L-4.567309911470724,15.752177787976002 " />
			<path d="M-59.28083766887226,2.5022333433794053 L-59.43749080067493,2.686432769384009 L-59.59408687419305,2.864424771472599 L-59.750568851924584,3.036144519033833 L-59.906879737925,3.2015294660202365 L-60.06296259856706,3.3605193737295416 L-60.21876058327794,3.5130563327456272 L-60.374216945246125,3.659084784031087 L-60.52927506209048,3.798551539163629 L-60.68387845648395,3.931405799709097 L-60.83797081672462,4.0575991757239755 L-60.99149601724614,4.177085703380563 L-61.14439813906065,4.289821861708564 L-61.29662149012628,4.395766588446886 L-61.448110625632054,4.494881294999843 L-61.59881036819275,4.5871298804924265 L-61.74866582794633,4.6724787449194665 L-61.89762242254666,4.750896801383831 L-62.04562589704418,4.82235548741933 L-62.19262234364744,4.886828775394129 L-62.33855822135804,4.9442931819908615 L-62.48338037547206,4.994727776760019 L-62.627036056940824,5.038114189743567 L-62.769472941583764,5.074436618165834 L-62.910639149146725,5.103681832189466 L-63.05048326219841,5.125839179734129 L-63.188954344858374,5.140900590356381 L-63.326001961349505,5.148860578189176 L-63.461576194368476,5.149716243940009 L-63.595627663267244,5.143467275946932 L-63.72810754203915,5.13011595029208 L-63.85896757710296,5.109667129972625 L-63.98816010487838,5.082128263129558 " />
			<path d="M-63.988160104878446,5.082128263129544 L-64.07032863429457,5.0606800627958215 L-64.15177588398844,5.036307780760367 L-64.23248958830382,5.009015087399206 L-64.31245759205376,4.978806092891567 L-64.391667852351,4.945685346600904 L-64.47010844042174,4.909657836389783 L-64.54776754340192,4.870728987868723 L-64.62463346611628,4.828904663579117 L-64.70069463283959,4.784191162110364 L-64.77593958903994,4.7365952171513115 L-64.85035700310368,4.686123996476205 L-64.92393566804199,4.632785100865224 L-64.99666450317858,4.576586562959857 L-65.06853255581836,4.517536846053197 L-65.139529002897,4.455644842815403 L-65.20964315261071,4.3909198739545126 L-65.2788644460264,4.323371686812756 L-65.34718245867195,4.253010453898661 L-65.41458690210592,4.179846771355081 L-65.48106762546706,4.103891657363501 L-65.54661461700299,4.025156550484702 L-65.61121800557785,3.94365330793617 L-65.67486806215899,3.8593942038064384 L-65.73755520128198,3.772391927206659 L-65.79926998249427,3.6826595803596724 L-65.8600031117768,3.590210676626846 L-65.91974544294371,3.495059138473035 L-65.97848797901966,3.3972192953698865 L-66.0362218735948,3.296705881637884 L-66.09293843215697,3.1935340342274294 L-66.14862911340106,3.0877192904392388 L-66.20328553051532,2.979277585584512 L-66.25689945244439,2.8682252505851196 L-66.30946280512882,2.7545790095142273 L-66.41140629877745,2.5195736560367834 L-66.50905460451257,2.274403083589693 L-66.6023489026461,2.0192149737582845 L-66.69123299618134,1.754163042317824 L-66.77565334466394,1.479406946640875 L-66.85555909643264,1.1951121895256893 L-66.93090211925048,0.9014500195034767 L-67.00163702929773,0.5985973276847343 L-67.06772121850955,0.2867365412066185 L-67.12911488024139,-0.03394448665432925 L-67.1857810332471,-0.3632525896379555 L-67.23768554395497,-0.7009894048566458 L-67.2847971470286,-1.0469514922817034 L-67.3270874641999,-1.4009304572880232 L-67.36453102136316,-1.7627130761832124 L-67.39710526391966,-2.132081424645568 L-67.42479057036368,-2.508813008993547 L-67.44757026410186,-2.8926809002076475 L-67.46543062349846,-3.2834538706239407 L-67.47836089014086,-3.680896533216993 L-67.48635327531989,-4.084769483388195 L-67.48940296472159,-4.494829443174144 L-67.4875081213271,-4.9108294077881975 L-67.48066988651921,-5.332518794406914 L-67.4688923793949,-5.759643593111775 L-67.45218269428405,-6.191946519895266 L-67.43055089647618,-6.629167171639134 L-67.40401001615739,-7.071042182971507 L-67.37257604056157,-7.517305384908329 L-67.33626790434023,-7.967687965183608 L-67.295107478157,-8.42191863017188 L-67.24911955551349,-8.879723768305336 L-67.19833183781472,-9.34082761488719 L-67.14277491768276,-9.804952418202047 L-67.08248226052889,-10.271818606823143 L-67.01749018439527,-10.741144958015695 L-66.94783783807839,-11.212648767134999 L-66.87356717754717,-11.686046017917096 L-66.79472294067037,-12.161051553559574 L-66.7113526202681,-12.637379248489369 L-66.62350643550397,-13.114742180714098 L-66.53123730163489,-13.592852804653134 L-66.43460079813693,-14.07142312434432 L-66.33365513522634,-14.550164866921977 L-66.22846111879585,-15.02878965626168 L-66.1190821137875,-15.507009186687265 L-66.00558400602395,-15.984535396635389 L-65.88803516252138,-16.46108064217303 L-65.76650639030764,-16.936357870263446 L-65.6410708937709,-17.4100807916762 L-65.51180423056391,-17.881964053437073 L-65.37878426609102,-18.351723410714037 L-65.24209112660486,-18.8190758980357 L-65.10180715094138,-19.283739999739126 L-64.95801684092199,-19.745435819544365 L-64.81080681045275,-20.203885249153487 L-64.66026573335148,-20.658812135772624 L-64.50648428993395,-21.10994244845609 L-64.3495551123914,-21.55700444317236 L-64.18957272899243,-21.999728826492554 L-64.02663350714266,-22.43784891780269 L-63.86083559533666,-22.87110080994213 L-63.69227886403691,-23.299223528171375 L-63.5210648455156,-23.7219591873735 L-63.3472966726954,-24.139053147394517 L-63.17107901702598,-24.55025416642905 L-62.992518025433924,-24.955314552359035 L-62.81172125638375,-25.35399031195417 L-62.6287976150887,-25.74604129784431 L-62.44385728791033,-26.131231353175295 L-62.257011675986384,-26.509328453860974 L-62.06837332812685,-26.880104848345862 L-61.878055873018866,-27.24333719479414 L-61.68617395078095,-27.598806695622436 L-61.492843143908125,-27.946299229295317 L-61.29817990764935,-28.285605479304078 L-61.102301499859216,-28.616521060251195 L-60.905325910366216,-28.938846640964428 L-60.70737178990007,-29.252388064566503 L-60.50855837862096,-29.5569564654279 L-60.30900543429374,-29.85236838293247 L-60.10883316015029,-30.138445871987294 L-59.908162132483646,-30.415016610210085 L-59.70711322801729,-30.681914001729783 L-59.50580755109358,-30.938977277537667 L-59.304366360724984,-31.186051592328617 L-59.102910997552215,-31.422988117774096 L-58.901562810753134,-31.649644132170813 L-58.70044308494659,-31.865883106410905 L-58.49967296713505,-32.07157478622198 L-58.2993733937302,-32.266595270627434 L-58.099665017705384,-32.45082708657975 L-57.90066813591875,-32.62415925972186 L-57.7025026166509,-32.78648738123397 L-57.60376894183505,-32.863494105695736 L-57.50528782740076,-32.93771367072553 L-57.4070741042416,-33.009134899129876 L-57.309142562983034,-33.077747035134465 L-57.211507951754946,-33.143539746003995 L-57.114184973970666,-33.206503123598225 L-57.01718828611266,-33.26662768586408 L-56.92053249552535,-33.32390437826364 L-56.82423215821525,-33.37832457513771 L-56.72830177665895,-33.42988008100481 L-56.63275579761906,-33.47856313179539 L-56.537608609968565,-33.52436639602108 L-56.44287454252395,-33.567282975878754 L-56.348567861887325,-33.60730640828936 L-56.25470277029789,-33.644430665871184 L-56.161293403493175,-33.67865015784759 L-56.06835382858025,-33.709959730888954 L-55.975898041917226,-33.73835466988875 L-55.883939967005496,-33.7638306986736 L-55.7924934523929,-33.78638398064727 L-55.70157226958816,-33.80601111936848 L-55.61119011098698,-33.822709159062306 L-55.52136058781,-33.8364755850654 L-55.43209722805298,-33.84730832420465 L-55.34341347444957,-33.85520574510937 L-55.25532268244685,-33.86016665845704 L-55.167838118194084,-33.86219031715234 L-55.08097295654484,-33.86127641643973 L-54.994740279072964,-33.85742509394928 L-54.909153072102484,-33.850636929676014 L-54.82422422475196,-33.84091294589247 L-54.739966526993406,-33.82825460699486 L-54.65639266772618,-33.81266381928246 L-54.573515232866114,-33.79414293067056 " />
			<path d="M-54.573515232866086,-33.79414293067056 L-54.44147967706944,-33.75814560406723 L-54.31133599524142,-33.71456330433496 L-54.18313506509023,-33.663413069316036 L-54.056927004834634,-33.60471489542287 L-53.932761153611,-33.538491729820635 L-53.81068605218486,-33.46476946145644 L-53.690749423974715,-33.38357691093846 L-53.5729981563952,-33.294945819268904 L-53.45747828252722,-33.198910835435385 L-53.344234963121956,-33.09550950286544 L-53.23331246894601,-32.984782244749425 L-53.12475416347438,-32.86677234823777 L-53.01860248593816,-32.74152594751842 L-52.914898934733586,-32.60909200578145 L-52.81368405119885,-32.46952229607763 L-52.714997403765075,-32.3228713810785 L-52.61887757248765,-32.169196591745944 L-52.52536213396391,-32.00855800491949 L-52.43448764664316,-31.84101841983023 L-52.3462896365347,-31.666643333550354 L-52.26080258331944,-31.485500915388066 L-52.178059906870615,-31.29766198023785 L-52.09809395418879,-31.103199960896443 L-52.02093598675627,-30.90219087935537 L-51.94661616831593,-30.69471331708132 L-51.87516355307908,-30.48084838429589 L-51.80660607436727,-30.26067968826679 L-51.740970533692085,-30.03429330062283 L-51.67828259027755,-29.801777723705506 L-51.61856675102902,-29.563223855970357 L-51.56184636095258,-29.318724956451597 L-51.50814359402868,-29.068376608303865 L-51.45747944454354,-28.812276681435485 L-51.409873718881734,-28.55052529424766 L-51.365345027783235,-28.28322477449472 L-51.32391077906777,-28.01047961928061 L-51.28558717082953,-27.73239645420734 L-51.250389185104744,-27.44908399169131 L-51.21833058201471,-27.16065298846383 L-51.18942389438646,-26.86721620227245 L-51.16368042285325,-26.568888347800026 L-51.14111023143673,-26.26578605181874 L-51.1217221436126,-25.958027807596615 L-51.10552373886118,-25.645733928574355 L-51.092521349704334,-25.329026501330667 L-51.08272005922986,-25.008029337854307 L-51.07612369910434,-24.682867927141665 L-51.072734848075214,-24.353669386138748 L-51.072554830962645,-24.02056241004671 L-51.0755837181416,-23.683677222010424 L-51.081820325514364,-23.34314552220969 L-51.0912622149734,-22.999100436373052 L-51.10390569535452,-22.651676463734304 L-51.1197458238799,-22.30100942445203 L-51.13877640809037,-21.947236406512772 L-51.16099000826624,-21.590495712138566 L-51.18637794033578,-21.230926803719743 L-51.21493027927013,-20.868670249294233 L-51.24663586296329,-20.50386766759462 L-51.281482296595854,-20.13666167268441 L-51.31945595748051,-19.767195818205238 L-51.36054200038764,-19.395614541256734 L-51.40472436334888,-19.022063105931004 L-51.45198577393625,-18.646687546523864 L-51.502307756014574,-18.26963461044487 L-51.55567063696444,-17.891051700848678 L-51.612053555372945,-17.511086819010025 L-51.67143446918907,-17.129888506464823 L-51.733790164340796,-16.747605786940106 L-51.799096263810185,-16.364388108095454 L-51.86732723716331,-15.980385283098672 L-51.9384564105309,-15.595747432058614 L-52.01245597703614,-15.210624923337972 L-52.08929700766537,-14.825168314769053 L-52.16894946257739,-14.43952829479545 L-52.2513822028471,-14.05385562356268 L-52.33656300263881,-13.668301073980771 L-52.42445856180445,-13.283015372781886 L-52.51503451890172,-12.89814914159596 L-52.60825546462723,-12.51385283806746 L-52.70408495565918,-12.13027669703624 L-52.80248552890436,-11.74757067180549 L-52.90341871614379,-11.365884375519766 L-53.006845059071246,-10.985367022675979 L-53.11272412471892,-10.606167370790242 L-53.22101452126411,-10.228433662243368 L-53.33167391421065,-9.852313566327751 L-53.44465904293898,-9.477954121518291 L-53.559925737618286,-9.105501677989881 L-53.67742893647395,-8.73510184040404 L-53.7971227034038,-8.366899410987012 L-53.91896024593613,-8.00103833292146 L-54.042893933522535,-7.637661634074077 L-54.16887531615832,-7.276911371080996 L-54.296855143323334,-6.918928573812892 L-54.42678338323569,-6.563853190241479 L-54.55860924241094,-6.2118240317289715 L-54.69228118551902,-5.862978718761871 L-54.82774695553123,-5.517453627150317 L-54.96495359414932,-5.175383834714015 L-55.103847462508696,-4.836903068475616 L-55.244374262147815,-4.502143652382136 L-55.38647905623524,-4.171236455574929 L-55.53010629104646,-3.844310841228344 L-55.67519981768172,-3.521494615977174 L-55.82170291401663,-3.2029139799525588 L-55.96955830687677,-2.888693477445951 L-56.11870819442782,-2.5789559482204236 L-56.269094268772285,-2.2738224794882917 L-56.420657738744126,-1.9734123585739134 L-56.57333935289223,-1.6778430262801063 L-56.7270794226439,-1.3872300309764451 L-56.88181784563919,-1.1016869834273404 L-57.03749412922705,-0.821325512377646 L-57.194047414113946,-0.5462552209131051 L-57.35141649815595,-0.27658364361265875 L-57.50953986028475,-0.012416204509417383 L-57.668355684558406,0.24614382412326563 L-57.827801884327364,0.49899536214452134 L-57.98781612650627,0.746039561061739 L-58.14833585594216,0.987179842673882 L-58.30929831986947,1.2223219368272762 L-58.470640592442265,1.4513739182690983 L-58.632299599334154,1.6742462425841964 L-58.794212142396226,1.8908517812010857 L-58.956314924363454,2.101105855453575 L-59.11854457359976,2.304926269684607 L-59.28083766887219,2.50223334337932 " />
			<path d="M-54.573515232866086,-33.79414293067055 L0.14001252453537916,-20.544198486073874 " />
			<path d="M-63.988160104878446,5.082128263129546 L-9.274632347476981,18.332072707726226 " />

        </g>
        </g>
    </svg>
    