<?xml version="1.0" encoding="UTF-8" standalone="no"?>
    <svg
    xmlns:svg="http://www.w3.org/2000/svg"
    xmlns="http://www.w3.org/2000/svg"
    width="350"
    height="287"
    >
        <g transform="scale(4, -4)   translate(43.85533915044513,-31.215539073752787)" stroke-width="0.25"  fill="none">
        <!-- hidden lines -->
        <g  stroke="rgb(160,160,160)" fill="none" stroke-dasharray="0.25,0.25" >
    			<path d="M-31.112698363065036,-14.811847330663452 L-31.271733063407332,-14.767633978389796 L-31.43630199245365,-14.725138999570929 L-31.60618212131878,-14.684419984711987 L-31.781143223215814,-14.645532117477 L-31.960948185466563,-14.608528099902301 L-32.145353330843996,-14.573458080973097 L-32.334108747811115,-14.540369588660015 L-32.526958629208764,-14.509307465507737 L-32.7236416189334,-14.480313807862998 L-32.92389116613491,-14.453427908824318 L-33.12743588645456,-14.428686204990791 L-33.33399992981346,-14.406122227082072 L-33.54330335425303,-14.385766554496524 L-33.755062505321035,-14.36764677386906 L-33.96899040048884,-14.351787441684904 L-34.18479711807892,-14.338210050999866 L-34.402190190175716,-14.326933002312304 L-34.620874998987134,-14.317971578626198 L-34.84055517611967,-14.311337924739146 L-35.06093300422601,-14.307041030783369 L-35.28170982048069,-14.305086720042 L-35.50258642133727,-14.305477641057193 L-35.72326346801808,-14.308213264040742 L-35.94344189218748,-14.313289881592054 L-36.16282330125838,-14.320700613722549 L-36.381110382783135,-14.330435417179618 L-36.59800730738052,-14.342481099057556 L-36.81322012965284,-14.356821334676997 L-37.026457186549756,-14.373436689708612 L-37.237429492639095,-14.392304646511121 L-37.44585113174875,-14.413399634647895 L-37.65143964444916,-14.436693065540789 L-37.85391641085098,-14.462153371214278 L-38.05300702819936,-14.489746047077338 L-38.24844168275305,-14.519433698685141 L-38.43995551544422,-14.551176092417158 L-38.62728898082372,-14.584930210002994 L-38.81018819880503,-14.62065030682208 L-38.988405298730356,-14.658287973898195 L-39.16169875529264,-14.6977922035048 L-39.32983371585806,-14.739109458292276 L-39.49258231874557,-14.782183743843401 L-39.64972400203208,-14.826956684558699 L-39.80104580246477,-14.87336760276886 L-39.94634264407544,-14.92135360096699 L-40.085417616105815,-14.970849647049237 L-40.21808223986702,-15.021788662448317 L-40.34415672417179,-15.074101613040451 L-40.463470208992945,-15.127717602702532 L-40.575860997018204,-15.18256396939275 L-40.68117677278739,-15.238566383624413 L-40.77927480911498,-15.295648949199572 L-40.87002216051844,-15.353734306065887 L-40.95329584339,-15.412743735157342 L-41.02898300266788,-15.472597265076768 L-41.09698106478087,-15.533213780475528 L-41.157197876659275,-15.59451113198355 L-41.20955183062356,-15.656406247540682 L-41.253971974981575,-15.7188152449785 L-41.29039811018452,-15.781653545700028 L-41.31878087041118,-15.844835989303238 L-41.339081790470054,-15.908276948993063 L-41.351273357928534,-15.97189044762547 L-41.35432254117351,-16.003734964056456 L-41.35533905039861,-16.03559027422632 " />
			<path d="M-29.355339050398612,-16.035590274226326 L-29.357146138221154,-15.993118392991544 L-29.36256631316665,-15.950672095229889 L-29.37159631032438,-15.90827694900396 L-29.38423069036172,-15.865958491564584 L-29.400461842800556,-15.823742213968128 L-29.42027999060159,-15.781653545721646 L-29.44367319605363,-15.73971783946509 L-29.470627367964447,-15.697960355699827 L-29.501126270148767,-15.656406247572663 L-29.535151531208335,-15.615080545724524 L-29.572682655598186,-15.574008143212929 L-29.613697035972372,-15.533213780517352 L-29.658169966801772,-15.49272203063648 L-29.70607465925582,-15.452557284286353 L-29.757382257339053,-15.412743735208315 L-29.812061855272905,-15.373305365595598 L-29.870080516112186,-15.334265931647364 L-29.931403291585067,-15.295648949258837 L-29.995993243144618,-15.257477679856226 L-30.063811464219196,-15.219775116384898 L-30.208967390289867,-15.145866653682916 L-30.366521376457065,-15.07410161311313 L-30.536093861368062,-15.00465288294413 L-30.717276330053966,-14.93768777124986 L-30.90963229807806,-14.873367602849822 L-31.11269836306503,-14.811847330663454 " />
			<path d="M39.59797975201822,-35.20756305877167 L39.801045817005196,-35.26908333095804 L39.99340178502929,-35.33340349935808 L40.174584253715196,-35.40036861105235 L40.34415673862619,-35.46981734122135 L40.50171072479339,-35.54158238179113 L40.64686665086406,-35.61549084449312 L40.71468487193864,-35.653193407964444 L40.779274823498184,-35.691364677367055 L40.84059759897107,-35.72998165975558 L40.89861625981035,-35.76902109370382 L40.9532958577442,-35.80845946331653 L41.004603455827436,-35.84827301239457 L41.05250814828148,-35.8884377587447 L41.09698107911088,-35.92892950862557 L41.13799545948507,-35.96972387132114 L41.17552658387492,-36.01079627383274 L41.20955184493449,-36.05212197568088 L41.24005074711881,-36.09367608380804 L41.267004919029624,-36.13543356757331 L41.29039812448167,-36.17736927382986 L41.3102162722827,-36.219457942076346 L41.326447424721536,-36.2616742196728 L41.33908180475888,-36.30399267711218 L41.34811180191661,-36.346387823338105 L41.3535319768621,-36.38883412109976 L41.35533906468464,-36.43130600233454 " />
			<path d="M29.355339064684642,-36.431306002334544 L29.356355573909745,-36.39945069216467 L29.35940475715472,-36.367606175733684 L29.371596324613197,-36.303992677101284 L29.391897244672073,-36.240551717411456 L29.420280004898736,-36.177369273808246 L29.45670614010168,-36.11453097308672 L29.501126284459694,-36.0521219756489 L29.553480238423976,-35.99022686009177 L29.613697050302385,-35.92892950858375 L29.681695112415376,-35.868312993184986 L29.757382271693253,-35.808459463265564 L29.840655954564816,-35.7494500341741 L29.931403305968278,-35.69136467730779 L30.029501342295866,-35.63428211173263 L30.13481711806505,-35.57827969750097 L30.24720790609031,-35.523433330810754 L30.366521390911462,-35.46981734114867 L30.492595875216228,-35.41750439055654 L30.625260498977443,-35.36656537515746 L30.76433547100781,-35.31706932907521 L30.909632312618484,-35.26908333087708 L31.060954113051174,-35.22267241266692 L31.218095796337685,-35.17789947195162 L31.380844399225197,-35.1348251864005 L31.548979359790618,-35.09350793161302 L31.7222728163529,-35.05400370200641 L31.900489916278225,-35.0163660349303 L32.08338913425953,-34.98064593811121 L32.27072259963903,-34.94689182052538 L32.46223643233021,-34.91514942679336 L32.65767108688389,-34.885461775185554 L32.85676170423228,-34.8578690993225 L33.05923847063409,-34.83240879364901 L33.2648269833345,-34.80911536275612 L33.47324862244416,-34.78802037461934 L33.68422092853349,-34.769152417816834 L33.897457985430414,-34.752537062785215 L34.112670807702735,-34.73819682716577 L34.32956773230012,-34.72615114528784 L34.54785481382488,-34.716416341830765 L34.76723622289577,-34.70900560970027 L34.987414647065165,-34.70392899214896 L35.208091693745985,-34.70119336916541 L35.428968294602555,-34.70080244815022 L35.649745110857246,-34.70275675889159 L35.870122938963576,-34.707053652847364 L36.089803116096114,-34.713687306734414 L36.30848792490754,-34.722648730420524 L36.52588099700433,-34.733925779108084 L36.74168771459441,-34.74750316979312 L36.95561560976221,-34.76336250197728 L37.16737476083023,-34.78148228260474 L37.376678185269796,-34.801837955190294 L37.583242228628684,-34.82440193309901 L37.78678694894834,-34.84914363693254 L37.98703649614985,-34.87602953597121 L38.183719485874484,-34.90502319361595 L38.37656936727214,-34.936085316768235 L38.56532478423925,-34.96917380908131 L38.74972992961669,-35.004243828010516 L38.92953489186744,-35.04124784558522 L39.104495993764466,-35.0801357128202 L39.274376122629604,-35.120854727679145 L39.43894505167592,-35.16334970649801 L39.5979797520182,-35.20756305877166 " />
			<path d="M15.55634919224704,3.655954156914511 L15.674001698107311,3.5830254216808726 L15.794285510755728,3.5164147600919784 L15.917099889756239,3.4563122536372948 L16.042333558943792,3.4029032963430876 L16.169864073918337,3.356366797547479 L16.299557208388418,3.316873348512572 L16.431266669189487,3.284583117849874 L16.564834004827613,3.2596435336770835 L16.700089069234195,3.2421865288133853 L16.836853064508656,3.2323270824339945 L16.974932167645512,3.2301607962166243 L17.114121754503238,3.235761548757781 L17.254210944746895,3.249179759373478 L17.39498253600205,3.2704412087339425 L17.536212938008692,3.2995458594983194 L17.677672138583677,3.336466686089247 L17.819131879724054,3.38115103386238 L17.960362429024418,3.4335194522650907 L18.10113406431376,3.493466371484666 L18.241223372270372,3.5608629204854814 L18.380413191540683,3.63555804734938 L18.51849255585812,3.7173796396160528 L18.655256637161955,3.8061356446234162 L18.79051162412368,3.901618587062211 L18.92407820885239,4.003610099798187 L19.055785965891133,4.1118794805199075 L19.185477288847018,4.226188602791054 L19.31300674796878,4.3462937714633485 L19.438240466091454,4.471947418360695 L19.561055540764333,4.602899656530657 L19.681339512562328,4.738899693063304 L19.79898987958061,4.87969710047738 " />
			<path d="M19.798989879580617,4.879697100477383 L19.55508360621185,5.16991414265887 L19.30968113566861,5.457503090808944 L19.062804090244377,5.742438360838345 L18.81447417675763,6.024694692553723 L18.564713185388975,6.304247145953399 L18.313542988567146,6.581071097703615 L18.060985539902475,6.855142237789931 L17.807062873166327,7.126436566338624 L17.551797101315188,7.394930390603134 L17.295210415558028,7.660600322110804 L17.037325084465678,7.923423273965325 L16.77816345312095,8.183376458300522 L16.517747942308336,8.440437383881285 L16.256101047742103,8.694583853847645 L15.993245339331716,8.945793963598177 L15.729203460483488,9.19404609880916 L15.463998127437485,9.439318933585998 L15.197652128638692,9.681591428743733 L14.93018832414154,9.92084283021358 L14.661629645046892,10.157052667572604 L14.391999092970696,10.390200752693975 L14.121319739543498,10.620267178515183 L13.849614725940086,10.847232317922106 L13.576907262438567,11.071076822746683 L13.303220628008258,11.291781622876435 L13.028578169925758,11.509327925474016 L12.75300330341868,11.723697214305382 L12.476519511336525,11.934871249175167 L12.199150343848219,12.142832065468195 L11.920919418165948,12.347561973796182 L11.641850418294863,12.549043559748839 L11.361967094808401,12.747259683748878 L11.081293264648862,12.942193481010506 L10.799852810953098,13.13382836160127 L10.517669682903088,13.322148010607235 L10.234767895601248,13.507136388401733 L9.951171529970415,13.68877773101808 L9.666904732678447,13.867056550626812 L9.381991716087454,14.041957636118273 L9.09645675822766,14.21346605379151 L8.810324202796043,14.381567148150621 L8.523618459179886,14.546246542809936 L8.236364002505386,14.70749014150955 L7.9485853737115715,14.865284129242994 L7.660307179649836,15.019614973498907 L7.371554093209349,15.170469425618885 L7.082350853468794,15.317834522273783 L6.7927222658747475,15.461697587060996 L6.502693202447256,15.602046232225401 L6.212288602013073,15.738868360506835 L5.921533470467098,15.872152167117207 L5.630452881062652,16.001886141850495 L5.339071974731196,16.128059071329094 L5.047415960432222,16.250660041390162 L4.755510115534042,16.369678439615782 L4.463379786226213,16.485103958011045 L4.171050387964518,16.596926595834184 L3.8785474059492966,16.705136662583207 L3.5858963956380983,16.809724781143682 L3.2931229832935607,16.910681891102406 L3.00025286656766,17.00799925223198 L2.707311815123198,17.10166844815145 L2.414325671293831,17.191681390168405 L2.1213203507836504,17.278030321308083 L1.8283150302736804,17.360709700551674 L1.5353288864448642,17.439714006313473 L1.2423878350011779,17.515036045369875 L0.9495177182761902,17.586668998540706 L0.6567443059326497,17.65460641625653 L0.3640932956224727,17.718842214335822 L0.07159031360828072,17.779370669965775 L-0.22073908465240555,17.83618641788072 L-0.5128694139592569,17.88928444673237 L-0.8047752588564951,17.938660095646313 L-1.0964312731545558,17.984309050959435 L-1.387812179485132,18.026227343133083 L-1.6788927688887227,18.06441134383708 L-1.9696479004338583,18.09885776319987 L-2.2600525008672125,18.129563647220348 L-2.5500815642938806,18.156526375337066 L-2.839710151887103,18.179743658150784 L-3.1289133916268286,18.199213535296536 L-3.4176664780664705,18.214934373461606 L-3.705944672127356,18.226904864545997 L-3.9937233009203057,18.23512402396224 L-4.280977757593931,18.239591189071557 L-4.5676835012092,18.240306017753678 L-4.853816056639926,18.237268487107734 L-5.139351014498825,18.230478892281955 L-5.424264031088922,18.21993784543009 L-5.708530828379991,18.205646274792638 L-5.992127194009935,18.187605423901303 L-6.275028981310895,18.16581685090514 L-6.5572121093600355,18.14028242801731 L-6.838652563054943,18.111004341081273 L-7.119326393213644,18.077985089255826 L-7.399209716699284,18.04122748481825 L-7.678278716569553,18.000734653085345 L-7.956509642251028,17.95651003245215 L-8.233878809738549,17.90855737454847 L-8.510362601819926,17.856880744513493 L-8.785937468326228,17.801484521389085 L-9.060579926407955,17.74237339863239 L-9.334266560837492,17.679552384748813 L-9.60697402433823,17.613026804046484 L-9.878679037940849,17.542802297513656 L-10.149358391367244,17.468884823820584 L-10.41898894344262,17.39128066044779 L-10.687547622536437,17.309996404942698 L-10.955011427032735,17.225038976306955 L-11.221357425830664,17.136415616516892 L-11.486562758875793,17.044133892179822 L-11.750604637723141,16.94820169632914 L-12.013460346132648,16.8486272503613 L-12.27510724069801,16.745419106118078 L-12.535522751509768,16.638586148117657 L-12.794684382853667,16.528137595938343 L-13.052569713945216,16.414083006758922 L-13.30915639970162,16.29643227805987 L-13.564422171552053,16.175195650489883 L-13.818344838287544,16.050383710902345 L-14.0709022869516,15.922007395566693 L-14.322072483772853,15.790077993559665 L-14.571833475140952,15.654607150341864 L-14.82016338862713,15.51560687152507 L-15.067040434050728,15.373089526836132 L-15.312442904593208,15.227067854283334 L-15.55634917796094,15.077554964531537 " />
			<path d="M-19.798989865294587,13.853812020968618 L-19.71697976254468,13.802147309951433 L-19.6336683231958,13.753545297339643 L-19.549088450174708,13.7080715863297 L-19.463275476971376,13.665790916810831 L-19.376267273520646,13.626766864509186 L-19.28810435208388,13.591061540131992 L-19.19882997313063,13.558735288511711 L-19.10849025122027,13.529846387750178 L-19.01713418963141,13.504450637741803 L-18.924813705845544,13.482601129211732 L-18.83158362513184,13.464347636178182 L-18.73750155430446,13.449736148179118 L-18.642627786396485,13.438808851704385 L-18.547023661483845,13.431603559777303 L-18.4507556103726,13.428153460565383 L-18.353892888625282,13.428486636011995 L-18.256506241114,13.432625696948795 L-18.158667913043057,13.440587585669718 L-18.060451660971626,13.452383378504956 L-17.961932763836355,13.468018088394958 L-17.863188033974048,13.487490467464404 L-17.76429582814428,13.510792809596206 L-17.66533589390896,13.537910800587436 L-17.56638497781174,13.568824665985039 L-17.467521932944067,13.603507724088473 L-17.368826154160512,13.641926821468754 L-17.27037551939505,13.684043090102755 L-17.172246399182967,13.729812134918438 L-17.074513666182785,13.779184221340085 L-16.97725070469818,13.832104462833522 L-16.88052942019989,13.888513008451357 L-16.784420248847645,13.948345230378193 " />
			<path d="M-16.78442024884764,13.948345230378195 L-16.702363233377923,14.002449555922876 L-16.620850888383444,14.058985959870883 L-16.5399219053727,14.117908059762344 L-16.45961504748854,14.179166933025224 L-16.379967366390584,14.242712456105949 L-16.301014217527968,14.30849348686808 L-16.222789314240785,14.376458013364887 L-16.145324779682607,14.446553295939129 L-16.068651196564115,14.518726002650077 L-15.99279765471777,14.592922338027735 L-15.84365985991607,14.747169121072877 L-15.698115926559545,14.908858483005247 L-15.556349177961017,15.077554964531483 " />
			<path d="M15.55634919224704,3.655954156914511 L15.19758857140813,4.081315424638287 L14.835622051835525,4.500981187560292 L14.470518334301238,4.914871100894133 L14.102346507918428,5.322906311234246 L13.731176042580614,5.725009432668372 L13.357076781871392,6.121104524627862 L12.980118936423988,6.511117071401757 L12.600373077711128,6.89497396324472 L12.217910132246516,7.272603479013011 L11.832801376180402,7.643935270266878 L11.445118430272554,8.008900346781857 L11.054933255227052,8.367431063415612 L10.66231814737431,8.719461108281081 L10.26734573468661,9.064925492180897 L9.870088973114658,9.403760539262063 L9.47062114323341,9.735903878854145 L9.069015847186616,10.06129443845833 L8.66534700592042,10.379872437858756 L8.259688856697377,10.691579384331838 L7.852115950883272,10.996358068933276 L7.4427031520000675,11.294152563846705 L7.031525634039376,11.58490822078199 L6.618658880031759,11.868571670415397 L6.204178680868276,12.14509082286793 L5.788161134371542,12.414414869222336 L5.370682644614732,12.676494284083377 L4.9518199214878,12.931280829190118 L4.531649980511316,13.178727558093126 L4.110250142899188,13.418788821913624 L3.6876980358726907,13.651420276205778 L3.2640715932290565,13.876578888947403 L2.8394490561690127,14.094222949688582 " />
			<path d="M19.798989879580617,-2.587221624408201 L19.798989879580617,4.879697100477383 " />
			<path d="M15.55634919224704,3.4319901316192016 L15.55634919224704,3.655954156914511 " />
			<path d="M19.798989879580617,-30.720505598526056 L-15.55634917796101,-20.522647734471942 " />
			<path d="M-15.55634917796101,-20.522647734471946 L-15.55634917796101,15.077554964531494 " />
			<path d="M-19.798989865294587,-21.746390678034818 L-15.55634917796101,-20.522647734471942 " />
			<path d="M-19.798989865294583,11.559476889136544 L-19.617966875557073,11.731019311852398 L-19.435884659372412,11.899588594393283 L-19.252760416892553,12.065184533891122 L-19.06861094898985,12.227807520868062 L-18.883452657257074,12.387458539236466 L-18.6973015440074,12.544139166298919 L-18.510173212274406,12.697851572748231 L-18.322082865812096,12.848598522667423 L-18.133045309094868,12.996383373529747 L-17.943074947317534,13.141210076198664 L-17.75218578639531,13.283083174927869 L-17.560391432963836,13.422007807361261 L-17.367705094379144,13.557989704532972 L-17.17413957871768,13.691035190867353 L-16.979707294776304,13.82115118417897 L-16.784420252072326,13.94834519567258 " />

        </g>

        <!-- solid lines -->
        <g  stroke="rgb(0,0,0)" fill="none">
    			<path d="M-41.35533905039861,-16.035590274226326 L-41.353531962575836,-16.078062155463837 L-41.34811178762965,-16.12050845322822 L-41.33908179047076,-16.162903599456865 L-41.3264474104318,-16.205222056898943 L-41.310216257990874,-16.24743833449808 L-41.2903981101873,-16.28952700274722 L-41.26700490473226,-16.331462709006402 L-41.24005073281799,-16.37322019277426 L-41.209551830629785,-16.414774300903975 L-41.175526569565875,-16.456100002754628 L-41.13799544517125,-16.49717240526868 L-41.09698106479186,-16.53796676796667 L-41.052508133956835,-16.57845851784989 L-41.00460344149674,-16.618623264202306 L-40.95329584340705,-16.658436813282567 L-40.898616245466336,-16.697875182897434 L-40.84059758461979,-16.73691461684774 L-40.779274809139274,-16.775531599238263 L-40.714684857571704,-16.813702868642785 L-40.646866636488745,-16.851405432115936 L-40.501710710400246,-16.925313894821283 L-40.34415672421389,-16.997078935394033 L-40.17458423928248,-17.066527665565566 L-39.99340177057503,-17.133492777261917 L-39.801045802528364,-17.19781294566355 L-39.597979737517896,-17.259333217851008 L-39.38469277948072,-17.317905386100055 L-39.161698755380485,-17.373388344927058 L-38.92953487735321,-17.42564843102447 L-38.68876044851623,-17.47455974526744 L-38.43995551555794,-17.520004456015833 L-38.1837194713546,-17.56187308298097 L-37.920669610980305,-17.60006476097323 L-37.65143964458915,-17.634487482895135 L-37.37667817075194,-17.665058321394504 L-37.09704711392539,-17.6917036286437 L-36.813220129818205,-17.714359213763707 L-36.52588098249539,-17.732970497465576 L-36.23572189713078,-17.747492643536713 L-35.94344189237597,-17.757890666855243 L-35.64974509636312,-17.76413951767223 L-35.35533905039861,-17.766224141958727 L-35.060933004434105,-17.76413951767223 L-34.76723620842125,-17.757890666855243 L-34.474956203666444,-17.747492643536713 L-34.184797118301844,-17.732970497465576 L-33.897457970979026,-17.714359213763707 L-33.61363098687183,-17.6917036286437 L-33.33399993004529,-17.665058321394504 L-33.05923845620807,-17.63448748289514 L-32.79000848981692,-17.60006476097323 L-32.526958629442625,-17.56187308298097 L-32.270722585239284,-17.520004456015833 L-32.021917652281005,-17.47455974526744 L-31.781143223444015,-17.42564843102447 L-31.548979345416743,-17.373388344927058 L-31.325985321316505,-17.317905386100055 L-31.11269836327933,-17.25933321785101 L-30.909632298268853,-17.19781294566355 L-30.71727633022219,-17.133492777261917 L-30.536093861514743,-17.066527665565566 L-30.366521376583343,-16.997078935394033 L-30.208967390396978,-16.925313894821283 L-30.063811464308483,-16.851405432115936 L-29.99599324322552,-16.813702868642785 L-29.931403291657954,-16.775531599238263 L-29.87008051617743,-16.736914616847745 L-29.812061855330892,-16.697875182897434 L-29.75738225739018,-16.658436813282567 L-29.70607465930049,-16.618623264202306 L-29.658169966840394,-16.578458517849892 L-29.613697036005362,-16.53796676796667 L-29.572682655625975,-16.497172405268685 L-29.53515153123135,-16.456100002754628 L-29.50112627016744,-16.414774300903975 L-29.47062736797923,-16.37322019277426 L-29.443673196064964,-16.331462709006402 L-29.420279990609927,-16.289527002747217 L-29.40046184280635,-16.24743833449808 L-29.38423069036543,-16.205222056898943 L-29.37159631032647,-16.162903599456865 L-29.362566313167576,-16.12050845322822 L-29.35714613822139,-16.07806215546384 L-29.355339050398612,-16.03559027422634 " />
			<path d="M41.35533906468464,-36.431306002334544 L41.353531976861866,-36.473777883572055 L41.34811180191568,-36.51622418133643 L41.33908180475679,-36.55861932756508 L41.32644742471783,-36.60093778500716 L41.310216272276904,-36.6431540626063 L41.29039812447333,-36.685242730855435 L41.26700491901829,-36.727178437114624 L41.24005074710402,-36.76893592088248 L41.209551844915815,-36.81049002901219 L41.175526583851905,-36.851815730862846 L41.13799545945728,-36.8928881333769 L41.09698107907789,-36.93368249607489 L41.052508148242865,-36.97417424595811 L41.00460345578277,-37.01433899231052 L40.95329585769308,-37.054152541390785 L40.898616259752366,-37.09359091100565 L40.84059759890582,-37.13263034495596 L40.779274823425304,-37.17124732734648 L40.714684871857735,-37.209418596751 L40.646866650774776,-37.247121160224154 L40.501710724686276,-37.3210296229295 L40.34415673849992,-37.39279466350225 L40.17458425356851,-37.46224339367379 L39.993401784861064,-37.529208505370136 L39.801045816814394,-37.59352867377177 L39.597979751803926,-37.65504894595923 L39.38469279376675,-37.71362111420827 L39.161698769666515,-37.76910407303527 L38.92953489163924,-37.821364159132685 L38.68876046280226,-37.870275473375656 L38.43995552984397,-37.91572018412405 L38.18371948564063,-37.95758881108919 L37.920669625266335,-37.99578048908145 L37.651439658875184,-38.030203211003354 L37.37667818503797,-38.060774049502726 L37.09704712821142,-38.087419356751916 L36.813220144104235,-38.11007494187193 L36.52588099678142,-38.128686225573794 L36.23572191141681,-38.14320837164493 L35.943441906662,-38.15360639496346 L35.64974511064915,-38.15985524578045 L35.35533906468464,-38.161939870066945 L35.060933018720135,-38.15985524578045 L34.76723622270728,-38.15360639496346 L34.474956217952474,-38.14320837164493 L34.184797132587875,-38.128686225573794 L33.897457985265056,-38.11007494187193 L33.61363100115786,-38.08741935675192 L33.33399994433132,-38.060774049502726 L33.0592384704941,-38.030203211003354 L32.79000850410295,-37.99578048908145 L32.526958643728655,-37.95758881108919 L32.270722599525314,-37.915720184124055 L32.021917666567035,-37.870275473375656 L31.781143237730046,-37.821364159132685 L31.548979359702773,-37.76910407303527 L31.325985335602535,-37.71362111420827 L31.11269837756536,-37.65504894595923 L30.909632312554884,-37.59352867377177 L30.71727634450822,-37.529208505370136 L30.536093875800773,-37.46224339367379 L30.366521390869373,-37.39279466350225 L30.20896740468301,-37.3210296229295 L30.063811478594513,-37.247121160224154 L29.99599325751155,-37.20941859675101 L29.931403305943984,-37.171247327346485 L29.87008053046346,-37.13263034495596 L29.812061869616922,-37.09359091100565 L29.75738227167621,-37.054152541390785 L29.70607467358652,-37.01433899231053 L29.658169981126424,-36.97417424595811 L29.613697050291393,-36.93368249607489 L29.572682669912005,-36.89288813337691 L29.53515154551738,-36.851815730862846 L29.50112628445347,-36.81049002901219 L29.47062738226526,-36.76893592088248 L29.443673210350994,-36.727178437114624 L29.420280004895957,-36.685242730855435 L29.40046185709238,-36.6431540626063 L29.38423070465146,-36.60093778500716 L29.3715963246125,-36.55861932756508 L29.362566327453607,-36.51622418133644 L29.35714615250742,-36.473777883572055 L29.355339064684642,-36.43130600233456 " />
			<path d="M2.8394490561689905,14.094222949688591 L2.4728231531679956,14.275703404612006 L2.1055664207115985,14.451549377779425 L1.737729469524874,14.621736581969529 L1.3693630828021366,14.786241483220218 L1.0005182172131075,14.945041307974643 L0.6312460040324837,15.098114050799591 L0.26159775039666044,15.24543848269611 L-0.10837505930823887,15.386994160023598 L-0.47862076192261327,15.522761434059722 L-0.8490875138491489,15.652721461219887 L-1.219723289243106,15.776856213961171 L-1.590475878051791,15.895148492396942 L-1.9612928838975598,16.007581936649622 L-2.3321252468219624,16.114142025026233 L-2.7029365350922054,16.214818259321216 L-3.0736762206523327,16.30959654343992 L-3.444291932769438,16.398463141517674 L-3.814731486736065,16.48140526327682 L-4.184942881775022,16.558411050568004 L-4.55487429909984,16.629469564735558 L-4.924474100125348,16.694570774776523 L-5.293690824822983,16.753705546264126 L-5.662473190215889,16.806865631008165 L-6.030770089009163,16.854043657426022 L-6.398530588350772,16.895233121599535 L-6.765703928719114,16.930428378994414 L-7.132239522933477,16.959624636820248 L-7.498086955283845,16.982817947010638 L-7.863195980776914,17.000005199804413 L-8.22751652449551,17.011184117910318 L-8.590998681068722,17.016353251238968 L-8.953592714250597,17.015511972187362 L-9.315249056605388,17.0086604714626 L-9.675918309297701,16.99579975443297 L-10.035551241986187,16.976931637995893 L-10.394098792819769,16.95205874795381 L-10.751512068535583,16.921184516890307 L-11.107742344658273,16.88431318254045 L-11.462741065800422,16.84144978665054 L-11.816459846064348,16.792600174324036 L-12.168850469545674,16.73777099385181 L-12.519864890939502,16.676969697026273 L-12.869455236250193,16.61020453994047 L-13.217573803606179,16.53748458427452 L-13.564173064181485,16.45881969907336 L-13.909205663225901,16.374220563021023 L-14.252624421206118,16.28369866721832 L-14.594382335060441,16.187266318472002 L-14.93443257956989,16.084936643105085 L-15.272728508848996,15.976723591299416 L-15.609223657959642,15.862641941982865 L-15.943871744651915,15.742707308275186 L-16.276626671235938,15.616936143507818 L-16.607442526589146,15.48534574783445 L-16.93627358830372,15.34795427545056 L-17.26307432497916,15.20478074244159 L-17.58779939866534,15.055845035280832 L-17.910403667461654,14.901167919999557 L-18.23084218827818,14.740771052053352 L-18.549070219765024,14.574676986910026 L-18.86504322541653,14.402909191385927 L-19.178716876856985,14.225492055758913 L-19.490047057315085,14.042450906687694 L-19.79898986529452,13.853812020968661 " />
			<path d="M15.55634919224704,-31.944248542088932 L19.798989879580617,-30.720505598526056 " />
			<path d="M19.798989879580617,-30.720505598526056 L19.798989879580617,-2.587221624408201 " />
			<path d="M15.55634919224704,-31.94424854208893 L15.55634919224704,3.4319901316192016 " />
			<path d="M-19.798989865294587,-21.746390678034818 L-19.798989865294587,13.853812020968622 " />
			<path d="M15.55634919224704,-31.944248542088932 L-19.798989865294587,-21.746390678034818 " />
			<path d="M-41.355339050398605,-16.035590274226326 L-41.354289612646575,-15.65024706486618 L-41.351139942912084,-15.265425987701057 L-41.34588938617173,-14.881145882229204 L-41.3385373590546,-14.497425536871077 L-41.32908334984234,-14.114283688969358 L-41.31752691846912,-13.731739024788938 L-41.303867696521614,-13.349810179516922 L-41.288105387239035,-12.968515737262635 L-41.27023976551313,-12.587874231057619 L-41.25027067788817,-12.207904142855625 L-41.22819804256093,-11.82862390353263 L-41.20402184938075,-11.450051892886815 L-41.177742159849466,-11.072206439638585 L-41.14935910712145,-10.695105821430559 L-41.11887289600359,-10.318768264827574 L-41.08628380295532,-9.943211945316675 L-41.0515921760886,-9.56845498730713 L-41.01479843516788,-9.194515464130422 L-40.9759030716102,-8.821411398040247 L-40.934906648485054,-8.449160760212518 L-40.891809800514515,-8.077781470745366 L-40.84661323407317,-7.707291398659136 L-40.79931772718812,-7.337708361896384 L-40.749924129539,-6.969050127321893 L-40.69843336245797,-6.60133441072265 L-40.64484641892972,-6.2345788768078645 L-40.58916436359146,-5.868801139208964 L-40.53138833273293,-5.504018760479585 L-40.471519534296405,-5.1402492520955825 L-40.40955924787667,-4.77751007445503 L-40.345508824721044,-4.415818636878212 L-40.27936968772938,-4.055192297607634 L-40.15386888606872,-3.4027843290963125 L-40.02149176844098,-2.754061958155529 L-39.88224733620642,-2.109125528427554 L-39.73614530958413,-1.4680751628630637 L-39.583196127652016,-0.8310107637211468 L-39.42341094834678,-0.19803201256929892 L-39.25680164846395,0.4307616297165797 L-39.08338082365786,1.0552709229521762 L-38.90316178844167,1.675396847644774 L-38.71615857618734,2.2910406049932472 L-38.52238593912564,2.9021036168880574 L-38.32185934834616,3.5084875259112653 L-38.1145949937973,4.110094195336517 L-37.90060978428627,4.706825709129056 L-37.79110233948515,5.003332744247553 L-37.6799213474791,5.298584371945713 L-37.567069124048054,5.592568414788705 L-37.45254802990063,5.885272709134913 L-37.33636047067413,6.1766851051359595 L-37.218508896934516,6.466793466736675 L-37.09899580417643,6.75558567167513 L-36.97782373282321,7.043049611482607 L-36.85499526822684,7.329173191483619 L-36.730513040667994,7.613944330795906 L-36.604379725356026,7.8973509623304246 L-36.47659804242896,8.179381032791367 L-36.34717075695349,8.46002250267614 L-36.216100678925,8.739263346275376 L-36.083390663267544,9.017091551672936 L-35.94904360983385,9.293495120745902 L-35.81306246340531,9.568462069164587 L-35.67545021369201,9.841980426392523 L-35.53620989533271,10.114038235686467 L-35.39534458789484,10.384623554096397 L-35.2528574158745,10.653724452465523 L-35.10875154869648,10.921329015430272 L-34.963030200714236,11.187425341420301 L-34.8156966312099,11.452001542658492 L-34.66675414439429,11.715045745160946 L-34.516206089406886,11.976546088736994 L-34.36405586031585,12.23649072698919 L-34.21030689611802,12.494867827313305 L-34.05496268073891,12.751665570898348 L-33.8980267430327,13.00687215272655 L-33.73950265678227,13.260475781573353 L-33.57939404069916,13.512464680007428 L-33.41770455842357,13.762827084390691 L-33.2544379185244,14.011551244878257 L-33.089597874499226,14.258625425418481 L-32.92318822477429,14.504037903752923 L-32.708366819920755,14.815057798122185 L-32.49100869733464,15.123318232381665 L-32.27112239394179,15.428793415917191 L-32.048716868578985,15.731457562922387 L-31.823801501993973,16.031284892398677 L-31.59638609684544,16.328249628155266 L-31.36648087770301,16.62232599880918 L-31.13409649104726,16.913488237785224 L-30.89924400526972,17.201710583316 L-30.66193491067286,17.48696727844191 L-30.422181119470093,17.76923257101114 L-30.1799949657858,18.048480713679684 L-29.935389205655284,18.324685963911328 L-29.6883770170248,18.597822583977663 L-29.438971999751562,18.867864840958056 L-29.187188175603723,19.134787006739682 L-28.933039988260383,19.398563358017512 L-28.67654230331159,19.6591681762943 L-28.41771040825834,19.91657574788062 L-28.15656001251258,20.170760363894814 L-27.893107247397197,20.421696320263038 L-27.627368666146015,20.669357917719246 L-27.359361243903827,20.913719461805172 L-27.089102377726366,21.154755262870353 L-26.816609886580302,21.392439636072126 L-26.541902011343268,21.62674690137562 L-26.264997414803826,21.857651383553755 L-25.985915181661504,22.08512741218725 L-25.70467481852676,22.309149321664627 L-25.421296253921007,22.5296914511822 L-25.135799838276604,22.74672814474407 L-24.848206343936855,22.960233751162136 L-24.572715110164008,23.160029096025365 L-24.295366369993545,23.356593188462572 L-24.016180743961172,23.549903865489313 L-23.73517923877873,23.739939371796815 L-23.45238324733422,23.92667835975195 L-23.1678145486918,24.110099889397265 L-22.881495308091758,24.29018342845097 L-22.593448076950526,24.466908852306933 L-22.303695792860704,24.640256444034684 L-22.01226177959103,24.810206894379423 L-21.719169747086386,24.976741301762004 L-21.42444379146781,25.139841172278945 L-21.128108395032477,25.299488419702428 L-20.83018842625373,25.455665365480304 L-20.53070913978104,25.60835473873607 L-20.229696176440033,25.757539676268912 L-19.927175563232485,25.90320372255365 L-19.623173713336325,26.045330829740774 L-19.31771742610562,26.18390535765645 L-19.01083388707059,26.318912073802498 L-18.7025506679376,26.450336153356396 L-18.392895726589167,26.57816317917129 L-18.081897407083957,26.702379141775992 L-17.769584439656775,26.822970439374966 L-17.45598594071859,26.939923877848347 L-17.141131412856502,27.053226670751933 L-16.82505074483377,27.162866439317174 L-16.507774211589794,27.2688312124512 L-16.18933247424013,27.371109426736787 L-15.869756580076482,27.469689926432377 L-15.549077962566697,27.564561963472084 L-15.227328441354768,27.655715197465675 L-14.99501538722021,27.719070334946007 L-14.762165858282831,27.780486859634745 L-14.528792521531567,27.839962495640464 L-14.294907985349015,27.897495091753864 L-14.060524799511393,27.953082621447795 L-13.825655455188574,28.00672318287724 L-13.590312384944088,28.058414998879325 L-13.354507962735104,28.108156416973305 L-13.118254503912437,28.155945909360582 L-12.88156426522055,28.201782072924694 L-12.406922182175192,28.287589424528274 L-11.930678595427644,28.365569740495122 L-11.45292944910487,28.43571628445053 L-10.973769749632147,28.498024314934007 L-10.493293565733083,28.552491085399296 L-10.011594028429661,28.599115844214335 L-9.528763331042182,28.637899834661287 L-9.044892729189284,28.668846294936536 L-8.560072540787946,28.691960458150678 L-8.07439214605348,28.70724955232853 L-7.587939987499558,28.714722800409124 L-7.100803569938151,28.714391420245708 L-6.613069460479569,28.70626862460575 L-6.124823288532495,28.690369621170934 L-5.636149745803927,28.666711612537163 L-5.147132586299206,28.63531379621455 L-4.657854626322013,28.596197364627436 L-4.168397744474358,28.549385505114373 L-3.678842881656614,28.494903399928127 L-3.189270041067454,28.43277822623569 L-2.6997582882038795,28.363039156118262 L-2.210385750861283,28.28571735657126 L-1.7212296191333607,28.200845989504334 L-1.2323661454121506,28.10846021174133 L-0.7438706443880374,28.008597175020324 L-0.25581749304972945,27.901296025993606 L0.23171986931570077,27.786597906227687 L0.6709204572843395,27.676830795819345 L1.1096026491544535,27.5610810398319 L1.5477200760961523,27.439377143193003 L1.9852268639117252,27.31174782489197 L2.4220776330356584,27.17822201797978 L2.858227498534636,27.03882886956909 L3.293632070107539,26.893597740834217 L3.7282474520854456,26.74255820701114 L4.162030243431632,26.585740057397516 L4.594937537741572,26.42317329535266 L5.026926923242934,26.25488813829756 L5.4579564827955895,26.080915017714865 L5.887984793891603,25.901284579148893 L6.316970928655236,25.716027682205635 L6.744874453842948,25.525175400552733 L7.171655430843398,25.32875902191952 L7.59727441567744,25.12681004809697 L8.021692458998128,24.919360194937745 L8.444871106090709,24.70644139235616 L8.866772396872634,24.488085784328202 L9.287358865893541,24.264325728891524 L9.706593542335279,24.03519379814545 L10.124439950011883,23.80072277825096 L10.540862107369605,23.560945669430705 L10.955824527486866,23.31589568596901 L11.369292218074278,23.06560625621188 L11.781230681474687,22.81011102256695 L12.19160591466312,22.549443841503553 L12.6003844092468,22.283638783552664 L13.007533151465147,22.01273013330695 L13.413019622189777,21.736752389420726 L13.816811796924508,21.455740264609982 L14.118025587101059,21.242054784359627 L14.41825336826063,21.02558253817812 L14.717481187106996,20.80633784105203 L15.015695127936652,20.58433510913788 L15.31288131263883,20.359588859762138 L15.609025900695485,20.132113711421233 L15.904115089181321,19.901924383781523 L16.198135112763723,19.66903569767936 L16.49107224370285,19.433462575121002 L16.782912791851594,19.195220039282667 L17.073643104655524,18.95432321451056 L17.363249567152995,18.71078732632079 L17.651718601975066,18.464627701399436 L17.939036669345526,18.215859767602534 L18.225190267080897,17.96449905395606 L18.510165930590432,17.710561190655945 L18.793950232876107,17.454061909068066 L19.076529784532624,17.195017041728267 L19.35789123374743,16.933442522342318 L19.638021266300687,16.669354385785965 L19.916906605565288,16.402768768104885 L20.19453401250686,16.133701906514712 L20.470890285683776,15.862170139401023 L20.745962261247083,15.588189906319382 L21.01973681294061,15.311777747995261 L21.292200852100915,15.032950306324087 L21.563341327657238,14.751724324371278 L21.83314522613159,14.468116646372158 L22.101599571638708,14.182144217732017 L22.36869142588604,13.8938240850261 L22.634407888173783,13.603173395999598 L22.898736095394845,13.31020939956765 L23.161663222034882,13.014949445815356 L23.42317648017226,12.717410985997759 L23.683263119478084,12.417611572539853 L23.94191042721619,12.115568859036584 L24.19910572824314,11.81130060025285 L24.454836385008225,11.504824652123498 L24.70908979755348,11.196158971753311 L24.96185340351363,10.885321617417073 L25.213114678116156,10.572330748559462 L25.4628611341813,10.257204625795119 L25.71108032212195,9.939961610908675 L25.957759829943807,9.620620166854664 L26.202887283245254,9.299198857757597 L26.446450345217418,8.975716348911916 L26.688436716644155,8.650191406782039 L26.92883413590205,8.322642899002307 L27.16763037896041,7.993089794377038 L27.404813259381285,7.661551162880485 L27.64037062831944,7.328046175656857 L27.87429037452238,6.9925941050203075 L28.106560424330326,6.655214324454954 L28.337168741676244,6.315926308614847 L28.566103328085834,5.9747496333239845 L28.793352222677484,5.6317039755763645 L29.01890350216235,5.286809113535881 L29.24274528084433,4.940084926536375 L29.46486571061999,4.591551395081705 L29.68525298097869,4.241228600845613 L29.903895319002483,3.8891367266718113 L30.120780989366164,3.535296056573973 L30.33589829433726,3.179726975735708 L30.54923557377601,2.822449970510587 L30.84986900895071,2.3108963408989336 L31.146845293279092,1.7959830878442749 L31.440131794245765,1.2777713403735151 L31.729696269470292,0.7563225238893874 L32.015506866707184,0.23169836017051315 L32.29753212384591,-0.2960391326286351 L32.57574096891093,-0.8268276399777781 L32.85010272006162,-1.3606045509707636 L33.120587085592355,-1.8973069583255944 L33.387164163932454,-2.436871658384442 L33.64980444364618,-2.9792351511135866 L33.90847880343277,-3.5243336401034613 L34.16315851212643,-4.07210303256869 L34.4138152286963,-4.622478939348026 L34.66042100224651,-5.175396674904374 L34.90294827201613,-5.730791257324813 L35.1413698673792,-6.288597408320524 L35.37565900784469,-6.848749553226848 L35.605789303056575,-7.41118182100331 L35.83173475279376,-7.975828044233567 L36.05346974697011,-8.542621759125431 L36.270969065634475,-9.111496205510882 L36.48420787897063,-9.682384326846009 L36.693161747297324,-10.255218770211052 L36.89780662106827,-10.82993188631044 L37.09811884087215,-11.406455729472743 L37.294075137432564,-11.984722057650668 L37.48565263160814,-12.564662332421104 L37.6728288343924,-13.146207718985043 L37.85558164691385,-13.729289086167626 L38.033889360435964,-14.31383700641819 L38.207730656357164,-14.899781755810206 L38.398753928572916,-15.563436472664675 L38.584022533806326,-16.228696157961014 L38.76350838260489,-16.895459078665088 L38.9371841781247,-17.563623588083388 L39.105023416130464,-18.233088125863087 L39.26700038499547,-18.903751217991978 L39.423090165701595,-19.575511476798482 L39.57326863183932,-20.248267600951685 L39.71751244960772,-20.92191837546125 L39.855799077814446,-21.59636267167749 L39.98810676787576,-22.27149944729139 L40.11441456381652,-22.947227746334555 L40.234702302270165,-23.623446699179215 L40.348950612478745,-24.300055522538273 L40.45714091629288,-24.9769535194652 L40.5592554281718,-25.654040079354125 L40.655277155183335,-26.331214677939847 L40.74518989700389,-27.008376877297806 L40.82897824591848,-27.685426325844016 L40.906627586820704,-28.36226275833515 L40.97812409721275,-29.038785995868544 L41.04345474720542,-29.714895945882148 L41.1026072995181,-30.390492602154563 L41.155570309478755,-31.06547604480503 L41.20233312502397,-31.73974644029339 L41.24288588669889,-32.413204041420116 L41.2772195276573,-33.085749187326364 L41.30532577366154,-33.757282303493895 L41.32719714308255,-34.42770390174512 L41.34282694689988,-35.096914580243094 L41.35220928870167,-35.76481502349147 L41.355339064684635,-36.43130600233408 " />
			<path d="M-29.355339050398612,-16.035590274226326 L-29.352720792773248,-15.481656122350259 L-29.344876332005622,-14.929668710374965 L-29.331812085870148,-14.379732168619523 L-29.31353584550341,-13.831950197559458 L-29.29005677540416,-13.286426067826756 L-29.261385413433324,-12.74326262020985 L-29.22753367081399,-12.202562265653626 L-29.188514832131418,-11.664426985259421 L-29.144343555333037,-11.128958330285023 L-29.09503587172845,-10.596257422144681 L-29.04060918598941,-10.066424952409083 L-28.981082276149863,-9.539561182805379 L-28.916475293605906,-9.015765945217165 L-28.846809763115814,-8.495138641684493 L-28.77210858280003,-7.9777782444038685 L-28.692396024141164,-7.463783295728243 L-28.60769773198399,-6.9532519081670205 L-28.518040724535457,-6.44628176438607 L-28.42345339336468,-5.942970117207695 L-28.323965503402952,-5.443413789610659 L-28.219608192943717,-4.94770917473018 L-28.110413973642604,-4.455952235857927 L-27.9964167305174,-3.9682385064420167 L-27.877651721948066,-3.4846630900870217 L-27.754154658495153,-3.005316965319885 L-27.625959655055578,-2.5302756106606847 L-27.49310803159049,-2.0596322744517863 L-27.355643215028934,-1.5934814701043285 L-27.213609876862822,-1.1319158046864097 L-27.067053933146948,-0.6750259789230775 L-26.91602254449897,-0.22290078719633488 L-26.760564116099424,0.2243728824548552 L-26.600728297691724,0.6667100483345809 L-26.436565983582142,1.1040276350899747 L-26.268129312639836,1.5362444737112098 L-26.09547166829683,1.9632813015315085 L-25.918647678548023,2.3850607622271385 L-25.73771321595119,2.8015074058174108 L-25.552725397626965,3.212547688664685 L-25.363742585258876,3.618109973474361 L-25.170824385093308,4.018124529294886 L-24.974031647939523,4.412523531517754 L-24.773426469169653,4.801241061877501 L-24.569072188718717,5.184213108451708 L-24.361033391084586,5.561377565661006 L-24.14937590532801,5.932674234269072 L-23.934166805072625,6.29804482138262 L-23.715474408504924,6.657432940451416 L-23.493368278374277,7.010784111268267 L-23.267919221992933,7.358045759969029 L-23.039199291236006,7.6991672190325975 L-22.807281782541487,8.034099727280921 L-22.572231408908543,8.362800456822445 L-22.334096352623124,8.68524070086723 L-22.092951754529846,9.001388046399448 L-21.848872723253475,9.311212285755747 L-21.601932476363853,9.614686021668128 L-21.35220234037587,9.911784667263941 L-21.09975175074949,10.202486446065883 L-20.844648251889733,10.486772391992012 L-20.586957497146685,10.76462634935572 L-20.326743248815493,11.036034972865753 L-20.064067378136368,11.300987727626215 L-19.798989865294608,11.559476889136526 " />
			<path d="M29.355339064684642,-36.431306002334544 L29.353393357336135,-35.951792756223 L29.34754517877926,-35.47096670605215 L29.33779266741696,-34.98889495269145 L29.32413455411273,-34.50564454067024 L29.30657016219064,-34.02128245817772 L29.28509940743531,-33.535875637063036 L29.259722798091925,-33.04949095283518 L29.230441434866236,-32.56219522466305 L29.197257010924552,-32.07405521537543 L29.160171811893747,-31.585137631460995 L29.11918871586125,-31.09550912306832 L29.07431119337506,-30.605236284005862 L29.02554330744373,-30.114385651741962 L28.972889713536382,-29.623023707404858 L28.916355659582695,-29.13121687578268 L28.855946985972913,-28.63903152532345 L28.791670125557836,-28.146533968135067 L28.723532103648836,-27.653790459985338 L28.651540538017834,-27.16086720030195 L28.575703638897323,-26.66783033217248 L28.496030208980358,-26.174745942344387 L28.412529643420545,-25.681680061225048 L28.325211929832058,-25.188698662881706 L28.23408764828964,-24.69586766504149 L28.139167971328586,-24.203252929091448 L28.040464663944757,-23.71092026007849 L27.93799008359457,-23.21893540670942 L27.831757180195016,-22.727364061350947 L27.721779496123638,-22.23627186002966 L27.608071166218537,-21.745724382432037 L27.490646917778392,-21.255787151904453 L27.369522070562425,-20.766525635453167 L27.244712536790434,-20.278005243744328 L27.11623482114277,-19.79029133110398 L26.98410602076035,-19.303449195518056 L26.84834382524465,-18.817544078632377 L26.708966516657714,-18.33264116575265 L26.565992955874293,-17.848805540796654 L26.419441017336244,-17.36609726590769 L26.26932938236031,-16.884577852339188 L26.115678244657126,-16.40431193744666 L25.958508328302635,-15.925363879550394 L25.797840887738126,-15.44779775793545 L25.63369770777021,-14.97167737285166 L25.46610110357083,-14.497066245513627 L25.295073920677243,-14.024027618100732 L25.120639534992055,-13.552624453757117 L24.942821852783187,-13.082919436591709 L24.761645310683893,-12.614974971678198 L24.577134875692753,-12.14885318505505 L24.38931604517368,-11.684615923725499 L24.198214846855905,-11.222324755657564 L24.003857838834,-10.762040969784017 L23.806272109567864,-10.303825576002415 L23.60548527788271,-9.847739305175086 L23.401525492969096,-9.393842609129125 L23.1944214343829,-8.942195660656404 L22.984202312045333,-8.492858353513569 L22.770897866242926,-8.045890302422032 L22.55453836762755,-7.601350843067978 L22.335154617216396,-7.1592990321023695 L22.112777946391986,-6.719793647140934 L21.88744021690217,-6.282893186764179 L21.65917382086013,-5.848655870517378 L21.42801168074437,-5.417139638910584 L21.19398724939872,-4.988402153418605 L20.95713451003235,-4.562500796481043 L20.71748797621975,-4.139492671502262 L20.475082691900745,-3.719434602851397 L20.22995423138048,-3.302383135862353 L19.982138699329433,-2.88839453683382 L19.731672730783405,-2.477524793029243 L19.478593491143535,-2.0698296126768483 L19.222938644677864,-1.6653639881418196 L18.964746025394852,-1.2641771049616186 L18.704054372234573,-0.8663218668376437 L18.440903088134604,-0.47185248946989367 L18.175332091577626,-0.08082257426542538 L17.907381816591432,0.30671489166164445 L17.63709321274892,0.6907075354901413 L17.364507745168094,1.0711035986918311 L17.089667394512066,1.4478519370314218 L16.812614656989062,1.8209020205665607 L16.533392544352402,2.190203933647838 L16.25204458390053,2.555708374918784 L15.96861481847699,2.9173666573158714 L15.683147806470428,3.275130708068513 L15.395688621814607,3.6289530686990625 L15.10628285398839,3.9787868950228154 L14.814976608015753,4.324585957148009 L14.521816504465779,4.666304639475819 L14.226849679452656,5.003897940700367 L13.930123784635683,5.33732147380871 L13.631686987219263,5.66653146608085 L13.33158796995291,5.99148475908973 L13.02987593113124,6.312138808701233 L12.726600584593989,6.628451685074182 L12.421812159725981,6.940382072660347 L12.115561401457168,7.24788927020443 L11.807899570262597,7.550933190744081 L11.498878442162425,7.849474361609889 L11.188550308721922,8.143473924425384 L10.876964749124939,8.43289834310685 L10.564172190970321,8.717715431983162 L10.250227408275403,8.997888724617352 L9.935185311404267,9.273382947633928 L9.619100942878367,9.54416402647308 L9.302029477376522,9.810199085390675 L8.984026221734918,10.071456447458267 L8.665146614947114,10.32790563456309 L8.345446228164029,10.579517367408057 L8.024980764693954,10.826263565511764 L7.703806060002545,11.068117347208492 L7.381978081712832,11.3050530296482 L7.059552929605205,11.537046128796526 L6.736586835617426,11.764073359434796 L6.413136163844624,11.986112635160014 L6.089257410539293,12.203143068384867 L5.765007204111299,12.41514497033772 L5.440442305127872,12.622099851062623 L5.1156196063136115,12.823990419419308 L4.790596132550487,13.020800583083187 L4.465429040877828,13.212515448545354 L4.140175620492339,13.399121321112583 L3.8148932927480876,13.580605704907333 L3.489639611156517,13.756957302867741 L3.1644722613864253,13.928166016747628 L2.839449061264082,14.094222947116451 " />

        </g>
        </g>
    </svg>
    