<?xml version="1.0" encoding="UTF-8" standalone="no"?>
    <svg
    xmlns:svg="http://www.w3.org/2000/svg"
    xmlns="http://www.w3.org/2000/svg"
    width="415"
    height="231"
    >
        <g transform="scale(4, -4)   translate(51.99747468305833,-28.938532181945046)" stroke-width="0.25"  fill="none">
        <!-- hidden lines -->
        <g  stroke="rgb(160,160,160)" fill="none" stroke-dasharray="0.25,0.25" >
    			<path d="M-49.49747468305833,-7.617882154119747 L7.071067811865483,17.476317882980627 " />
			<path d="M7.0710678118654755,17.476317882980624 L7.0710678118654755,26.438532181945043 " />
			<path d="M49.49747468305833,-1.344332144844656 L7.0710678118654755,17.47631788298062 " />
			<path d="M7.778174593052023,-1.0306546443809004 L7.592053652274914,-0.9500201092672178 L7.4016860921767735,-0.8713606896013455 L7.2071783949554185,-0.794720383572264 L7.008639358596599,-0.7201420599766455 L6.806180036017801,-0.6476674342401734 L6.59991367295073,-0.5773370450839943 L6.3899556445972445,-0.5091902318493613 L6.176423391094187,-0.4432651124931546 L5.9594363518231654,-0.3795985622665823 L5.739115898602085,-0.31822619308898226 L5.5155852677957435,-0.2591823336282859 L5.288969491383511,-0.2025000100992509 L5.059395327022617,-0.14821092779023104 L4.826991187146206,-0.09634545332881217 L4.591887067135744,-0.04693259769621605 L4.354214472608076,2.6645352591003757e-15 " />
			<path d="M-4.354214472608052,7.105427357601002e-15 L-4.718639145436031,-0.07319723390241695 L-5.0768230517454676,-0.15222427079888678 L-5.42829246551895,-0.23697659129923032 L-5.772582541176609,-0.3273421038813291 L-6.109237928370472,-0.42320129314085264 L-6.437813374220645,-0.5244273778596598 L-6.757874312196804,-0.6308864786837995 L-7.068997436866164,-0.7424377951893506 L-7.370771263747772,-0.8589337921019058 L-7.51802696817085,-0.9189881472178305 L-7.662796673532663,-0.9802203944234269 L-7.805032508582792,-1.042610285944948 L-7.944687439950128,-1.1061371912083873 L-8.081715287695475,-1.170780103661425 L-8.216070740581944,-1.2365176477197006 L-8.347709371058112,-1.3033280858351168 L-8.476587649948947,-1.3711893256838321 L-8.602662960849678,-1.4400789274715646 L-8.72589361421784,-1.5099741113538028 L-8.846238861158826,-1.5808517649684526 L-8.963658906900392,-1.6526884510784448 L-9.07811492395166,-1.7254604153217645 L-9.189569064942289,-1.7991435940663498 L-9.297984475137511,-1.8737136223672541 L-9.403325304624957,-1.9491458420234435 L-9.50555672016922,-2.0254153097315686 L-9.604644916730203,-2.102496805334011 L-9.70055712864151,-2.180364840158473 L-9.793261640445104,-2.258993665446365 L-9.882727797378738,-2.33835728086719 L-9.968926015512599,-2.4184294431161204 L-10.051827791531883,-2.4991836745919143 L-10.13140571216204,-2.5805932721523126 L-10.207633463233567,-2.6626313159440116 L-10.280485838383353,-2.7452706783042995 L-10.349938747389725,-2.8284840327314056 L-10.41596922413839,-2.9122438629206053 L-10.478555434216691,-2.996522471863081 L-10.537676682133618,-3.0812919910045444 L-10.593313418163236,-3.1665243894605735 L-10.645447244809215,-3.2521914832856416 L-10.69406092288837,-3.3382649447927455 L-10.73913837723117,-3.4247163119205744 L-10.780664701997331,-3.5115169976451077 L-10.818626165604783,-3.5986382994325368 L-10.853010215270285,-3.686051408730382 L-10.883805481160296,-3.773727420493665 L-10.911001780150652,-3.861637342742993 L-10.934590119193834,-3.9497521061513856 L-10.95456269829272,-4.0380425736566785 L-10.970912913079824,-4.12647955009633 L-10.983635357001164,-4.2150337918614325 L-10.99272582310407,-4.30367601656675 L-10.998181305428293,-4.392376912733574 L-11.0,-4.481107149482179 " />
			<path d="M-11.0,-4.481107149482201 L-10.996687005658247,-4.600860411207471 L-10.986750018256897,-4.72054153804574 L-10.970195023465592,-4.840078438561368 L-10.947031993394166,-4.9593991081952575 L-10.91727488058581,-5.078431672637707 L-10.88094160961259,-5.197104431122806 L-10.838054066278353,-5.315345899618309 L-10.788638084435535,-5.433084853884926 L-10.732723430423814,-5.550250372379151 L-10.670343785139984,-5.666771878973742 L-10.60153672374984,-5.782579185470147 L-10.526343693054299,-5.897602533877246 L-10.444809986523405,-6.01177263843096 L-10.35698471701323,-6.125020727329401 L-10.26292078718213,-6.237278584158434 L-10.162674857624156,-6.348478588982701 L-10.056307312738836,-6.458553759077327 L-9.943882224357875,-6.567437789275823 L-9.825467313150668,-6.675065091909834 L-9.701133907831906,-6.781370836316699 L-9.570956902195826,-6.886290987891014 L-9.435014710002994,-6.989762346656688 L-9.29338921774678,-7.091722585336243 L-9.146165735328,-7.192110286894439 L-8.993432944667424,-7.290864981533595 L-8.835282846287098,-7.387927183118334 L-8.671810703892673,-7.483238425007814 L-8.503114986990107,-7.5767412952738376 L-8.32929731157133,-7.668379471283653 L-8.15046237890455,-7.758097753626601 L-7.966717912466137,-7.845842099364184 L-7.778174593052024,-7.931559654583502 L-7.584945992107738,-8.015198786234476 L-7.387148503317202,-8.09670911323167 L-7.18490127249154,-8.176041536801968 L-6.978326125800097,-8.253148270059835 L-6.767547496386893,-8.327982866792372 L-6.552692349416764,-8.400500249436748 L-6.333890105596297,-8.47065673623326 L-6.111272563215624,-8.53841006753758 L-5.88497381875807,-8.60371943127639 L-5.655130186125439,-8.666545487531053 L-5.421880114527626,-8.726850392234493 L-5.185364105085976,-8.784597819967065 L-4.945724626200676,-8.839752985837617 L-4.703106027733107,-8.892282666436614 L-4.457654454054894,-8.942155219848674 L-4.209517756015994,-8.989340604712478 L-3.9588454018848767,-9.033810398316557 L-3.7057883873144286,-9.075537813720077 L-3.4504991443878152,-9.11449771588829 L-3.193131449799096,-9.15066663683293 L-2.933840332223893,-9.184022789748468 L-2.6727819789359146,-9.214546082135652 L-2.4101136417255713,-9.242218127904486 L-2.1459935421774152,-9.267022258449327 L-1.8805807763633187,-9.288943532689416 L-1.614035219008976,-9.307968746068845 L-1.3465174271913756,-9.32408643851047 L-1.078188543625165,-9.337286901319043 L-0.8092101995963409,-9.347562183029366 L-0.5397444176015983,-9.354906094195954 L-0.2699535137520363,-9.35931421112133 L-2.0206672185931327e-15,-9.360783878520682 L0.26995351375203225,-9.35931421112133 L0.5397444176015943,-9.354906094195954 L0.8092101995963368,-9.347562183029366 L1.078188543625161,-9.337286901319043 L1.3465174271913716,-9.32408643851047 L1.614035219008972,-9.307968746068845 L1.8805807763633147,-9.288943532689416 L2.1459935421774112,-9.267022258449327 L2.4101136417255673,-9.242218127904486 L2.6727819789359106,-9.214546082135652 L2.9338403322238893,-9.184022789748468 L3.1931314497990924,-9.15066663683293 L3.4504991443878117,-9.114497715888291 L3.705788387314425,-9.075537813720079 L3.958845401884873,-9.033810398316557 L4.20951775601599,-8.989340604712478 L4.45765445405489,-8.942155219848674 L4.703106027733104,-8.892282666436614 L4.945724626200673,-8.839752985837617 L5.185364105085974,-8.784597819967065 L5.421880114527623,-8.726850392234493 L5.655130186125437,-8.666545487531053 L5.884973818758066,-8.603719431276392 L6.11127256321562,-8.53841006753758 L6.333890105596294,-8.470656736233261 L6.552692349416762,-8.40050024943675 L6.767547496386889,-8.327982866792373 L6.978326125800094,-8.253148270059837 L7.184901272491537,-8.176041536801968 L7.387148503317194,-8.096709113231674 L7.584945992107735,-8.015198786234478 L7.778174593052021,-7.931559654583504 L7.966717912466134,-7.8458420993641855 L8.150462378904553,-7.758097753626599 L8.329297311571333,-7.66837947128365 L8.50311498699011,-7.5767412952738376 L8.671810703892671,-7.483238425007816 L8.835282846287095,-7.387927183118336 L8.99343294466742,-7.290864981533597 L9.146165735327997,-7.19211028689444 L9.293389217746777,-7.091722585336244 L9.435014710002992,-6.98976234665669 L9.570956902195825,-6.886290987891016 L9.701133907831903,-6.7813708363167 L9.825467313150666,-6.675065091909836 L9.943882224357875,-6.567437789275825 L10.056307312738834,-6.458553759077329 L10.162674857624152,-6.3484785889827045 L10.262920787182125,-6.237278584158441 L10.356984717013225,-6.125020727329407 L10.4448099865234,-6.011772638430966 L10.526343693054294,-5.897602533877253 L10.601536723749836,-5.782579185470152 L10.67034378513998,-5.666771878973748 L10.732723430423814,-5.5502503723791525 L10.788638084435533,-5.433084853884928 L10.838054066278353,-5.315345899618311 L10.880941609612591,-5.1971044311228045 L10.91727488058581,-5.078431672637704 L10.947031993394166,-4.959399108195257 L10.970195023465592,-4.8400784385613695 L10.986750018256897,-4.720541538045742 L10.996687005658247,-4.6008604112074725 L11.0,-4.481107149482246 " />
			<path d="M11.0,-4.4811071494822015 L10.996687005658247,-4.361353887756931 L10.986750018256897,-4.241672760918661 L10.970195023465592,-4.122135860403033 L10.947031993394166,-4.002815190769145 L10.91727488058581,-3.883782626326698 L10.880941609612591,-3.7651098678415975 L10.838054066278353,-3.6468683993460944 L10.788638084435535,-3.5291294450794766 L10.732723430423814,-3.411963926585252 L10.670343785139984,-3.2954424199906613 L10.601536723749838,-3.179635113494256 L10.526343693054297,-3.0646117650871556 L10.444809986523403,-2.9504416605334405 L10.356984717013228,-2.837193571635 L10.262920787182129,-2.724935714805966 L10.162674857624154,-2.613735709981701 L10.056307312738838,-2.5036605398870764 L9.943882224357877,-2.3947765096885805 L9.825467313150668,-2.287149207054569 L9.701133907831906,-2.1808434626477036 L9.570956902195826,-2.0759233110733883 L9.435014710002994,-1.9724519523077144 L9.293389217746778,-1.8704917136281587 L9.146165735327997,-1.7701040120699623 L8.99343294466742,-1.6713493174308063 L8.835282846287095,-1.574287115846066 L8.67181070389267,-1.4789758739565864 L8.503114986990107,-1.385473003690564 L8.329297311571331,-1.2938348276807505 L8.15046237890455,-1.204116545337802 L7.966717912466137,-1.1163721996002187 L7.778174593052032,-1.0306546443809044 " />
			<path d="M11.000000000000002,-4.4811071494822015 L11.000000000000002,4.481107149482216 " />
			<path d="M-11.000000000000002,-4.4811071494822015 L-11.000000000000002,4.481107149482216 " />

        </g>

        <!-- solid lines -->
        <g  stroke="rgb(0,0,0)" fill="none">
    			<path d="M-7.0710678118654755,-26.43853218194503 L-7.0710678118654755,-17.47631788298061 " />
			<path d="M-7.0710678118654755,-17.47631788298061 L-49.49747468305833,1.3443321448446675 " />
			<path d="M-49.49747468305833,-7.617882154119747 L-49.49747468305833,1.3443321448446701 " />
			<path d="M-7.0710678118654755,-26.43853218194503 L-49.49747468305833,-7.6178821541197514 " />
			<path d="M-7.0710678118654755,-26.43853218194503 L49.497474683058336,-1.3443321448446532 " />
			<path d="M49.49747468305833,-1.344332144844656 L49.49747468305833,7.617882154119761 " />
			<path d="M-7.0710678118654755,-17.47631788298061 L49.497474683058336,7.617882154119766 " />
			<path d="M-49.49747468305833,1.3443321448446701 L7.071067811865483,26.438532181945046 " />
			<path d="M49.49747468305833,7.617882154119761 L7.0710678118654755,26.43853218194504 " />
			<path d="M7.778174593052023,7.931559654583516 L7.6336860697861955,7.9944866324307124 L7.486610975749985,8.056223149392725 L7.3369991453400125,8.116748286889884 L7.184901272491544,8.176041536801979 L7.030368893501534,8.234082808417176 L6.873454369566251,8.290852435239461 L6.552692349416768,8.400500249436762 L6.223049918619745,8.504836381296368 L5.88497381875807,8.603719431276405 L5.538922220982894,8.697015390019633 L5.185364105085976,8.784597819967079 L4.824778623923807,8.866348026710092 L4.45765445405489,8.942155219848688 L4.084489133470214,9.011916663138097 L3.705788387314423,9.075537813720093 L3.3220654425115104,9.132932450250394 L2.9338403322238826,9.184022789748482 L2.541639191087384,9.2287395930115 L2.1459935421774117,9.267022258449341 L1.7474395766724753,9.298818904213807 L1.3465174271913791,9.324086438510482 L0.9437704357888387,9.342790617998059 L0.539744417601597,9.354906094195968 L0.13498692114291938,9.36041644783743 L-0.269953513752036,9.359314211121344 L-0.6745280993242962,9.351600877832876 L-1.078188543625167,9.337286901319057 L-1.4803877935783873,9.316391680322056 L-1.8805807763633138,9.28894353268943 L-2.278225138114405,9.254979656996895 L-2.6727819789359026,9.214546082135666 L-3.0637165832355824,9.167697604932695 L-3.4504991443878055,9.114497715888305 L-3.832605482743781,9.05501851313193 L-4.209517756015987,8.989340604712492 L-4.580725161074007,8.91755299935589 L-4.945724626200674,8.839752985837631 L-5.3040214928703495,8.756046001134091 L-5.655130186125438,8.666545487531067 L-5.9985748726425125,8.57137273888329 L-6.333890105596299,8.470656736233273 L-6.66062145544758,8.364533973012202 L-6.978326125800103,8.253148270059848 L-7.133658411243241,8.195528716018346 L-7.286573553491891,8.13665058071413 L-7.437019739328474,8.076533814203097 L-7.584945992107737,8.01519878623449 L-7.730302189029479,7.952666279348897 L-7.873039078122007,7.8889574818363535 L-8.01310829493048,7.82409398055699 L-8.150462378904551,7.758097753626615 L-8.285054789479737,7.690991162969724 L-8.416839921847048,7.622796946742471 L-8.545773122405558,7.5535382116281555 L-8.671810703892671,7.48323842500783 L-8.794909960186958,7.4119214070087 L-8.915029180778545,7.339611322433001 L-9.032127664902152,7.266332672570076 L-9.146165735328,7.192110286894454 L-9.257104751805883,7.116969314652717 L-9.364907124157916,7.040935216342022 L-9.469536325015438,6.9640337550831495 L-9.570956902195825,6.886290987891029 L-9.669134490714969,6.807733256845673 L-9.764035824431394,6.728387180166518 L-9.855628747318038,6.648279643193202 L-9.943882224357877,6.567437789275837 L-10.028766352059728,6.485889010577846 L-10.110252368590636,6.403660938794509 L-10.188312663521426,6.320781435790336 L-10.262920787182129,6.2372785841584495 L-10.33405145962409,6.153180677705186 L-10.401680579185735,6.068516211863119 L-10.465785230659092,5.983313874035767 L-10.526343693054297,5.8976025338772615 L-10.583335446959458,5.811411233510259 L-10.636741181493372,5.724769177685409 L-10.686542800848768,5.637705723885717 L-10.732723430423814,5.550250372379166 L-10.775267422539846,5.462432756222953 L-10.81416036174338,5.374282631222727 L-10.849389069690586,5.28582986585024 L-10.880941609612591,5.19710443112282 L-10.908807290360095,5.108136390448099 L-10.932976670025917,5.018955889437433 L-10.953441559144258,4.929593145691484 L-10.970195023465592,4.840078438561384 L-10.983231386306242,4.750442098888989 L-10.992546230471845,4.660714498729695 L-10.998136399754058,4.570926041061269 L-11.0,4.481107149482238 " />
			<path d="M-11.0,4.481107149482217 L-10.996687005658247,4.361353887756946 L-10.986750018256897,4.241672760918677 L-10.970195023465592,4.122135860403049 L-10.947031993394166,4.00281519076916 L-10.91727488058581,3.8837826263267106 L-10.88094160961259,3.7651098678416104 L-10.838054066278353,3.6468683993461073 L-10.788638084435535,3.5291294450794903 L-10.732723430423814,3.4119639265852664 L-10.670343785139984,3.2954424199906756 L-10.60153672374984,3.17963511349427 L-10.526343693054299,3.0646117650871707 L-10.444809986523405,2.9504416605334565 L-10.35698471701323,2.837193571635016 L-10.26292078718213,2.7249357148059827 L-10.162674857624156,2.6137357099817162 L-10.056307312738836,2.5036605398870897 L-9.943882224357875,2.3947765096885942 L-9.825467313150668,2.2871492070545827 L-9.701133907831906,2.180843462647718 L-9.570956902195826,2.075923311073403 L-9.435014710002994,1.9724519523077295 L-9.29338921774678,1.8704917136281738 L-9.146165735328,1.7701040120699778 L-8.993432944667424,1.6713493174308227 L-8.835282846287098,1.5742871158460825 L-8.671810703892673,1.4789758739566028 L-8.503114986990107,1.3854730036905796 L-8.32929731157133,1.2938348276807643 L-8.15046237890455,1.2041165453378158 L-7.966717912466137,1.116372199600233 L-7.778174593052024,1.0306546443809146 L-7.584945992107738,0.9470155127299407 L-7.387148503317202,0.8655051857327467 L-7.18490127249154,0.7861727621624501 L-6.978326125800097,0.7090660289045809 L-6.767547496386893,0.634231432172045 L-6.552692349416764,0.5617140495276689 L-6.333890105596297,0.49155756273115747 L-6.111272563215624,0.4238042314268373 L-5.88497381875807,0.35849486768802663 L-5.655130186125439,0.295668811433365 L-5.421880114527626,0.23536390672992535 L-5.185364105085976,0.17761647899735333 L-4.945724626200676,0.12246131312680131 L-4.703106027733107,0.06993163252780388 L-4.457654454054894,0.020059079115743117 L-4.209517756015994,-0.027126305748059742 L-3.9588454018848767,-0.0715960993521394 L-3.7057883873144286,-0.11332351475565972 L-3.4504991443878152,-0.15228341692387204 L-3.193131449799096,-0.18845233786851345 L-2.933840332223893,-0.22180849078405096 L-2.6727819789359146,-0.2523317831712344 L-2.4101136417255713,-0.28000382894006925 L-2.1459935421774152,-0.3048079594849087 L-1.8805807763633187,-0.32672923372499874 L-1.614035219008976,-0.3457544471044276 L-1.3465174271913756,-0.361872139546052 L-1.078188543625165,-0.37507260235462514 L-0.8092101995963409,-0.3853478840649487 L-0.5397444176015983,-0.39269179523153763 L-0.2699535137520363,-0.39709991215691165 L-2.0206672185931327e-15,-0.3985695795562654 L0.26995351375203225,-0.39709991215691165 L0.5397444176015943,-0.39269179523153763 L0.8092101995963368,-0.3853478840649487 L1.078188543625161,-0.37507260235462514 L1.3465174271913716,-0.361872139546052 L1.614035219008972,-0.3457544471044276 L1.8805807763633147,-0.3267292337249996 L2.1459935421774112,-0.3048079594849096 L2.4101136417255673,-0.28000382894007014 L2.6727819789359106,-0.2523317831712344 L2.9338403322238893,-0.22180849078405185 L3.1931314497990924,-0.18845233786851434 L3.4504991443878117,-0.15228341692387293 L3.705788387314425,-0.1133235147556606 L3.958845401884873,-0.0715960993521394 L4.20951775601599,-0.02712630574806063 L4.45765445405489,0.020059079115743117 L4.703106027733104,0.06993163252780299 L4.945724626200673,0.12246131312680042 L5.185364105085974,0.17761647899735333 L5.421880114527623,0.23536390672992447 L5.655130186125437,0.2956688114333641 L5.884973818758066,0.35849486768802574 L6.11127256321562,0.42380423142683643 L6.333890105596294,0.49155756273115614 L6.552692349416762,0.5617140495276676 L6.767547496386889,0.6342314321720441 L6.978326125800094,0.7090660289045796 L7.184901272491537,0.7861727621624492 L7.387148503317194,0.865505185732744 L7.584945992107735,0.9470155127299398 L7.778174593052021,1.0306546443809137 L7.966717912466134,1.1163721996002312 L8.150462378904553,1.204116545337818 L8.329297311571333,1.2938348276807665 L8.50311498699011,1.3854730036905796 L8.671810703892671,1.478975873956602 L8.835282846287095,1.5742871158460807 L8.99343294466742,1.671349317430821 L9.146165735327997,1.7701040120699765 L9.293389217746777,1.8704917136281725 L9.435014710002992,1.9724519523077277 L9.570956902195825,2.0759233110734017 L9.701133907831903,2.1808434626477164 L9.825467313150666,2.287149207054581 L9.943882224357875,2.3947765096885925 L10.056307312738834,2.503660539887088 L10.162674857624152,2.6137357099817127 L10.262920787182125,2.7249357148059765 L10.356984717013225,2.83719357163501 L10.4448099865234,2.9504416605334507 L10.526343693054294,3.064611765087165 L10.601536723749836,3.179635113494265 L10.67034378513998,3.2954424199906693 L10.732723430423814,3.4119639265852646 L10.788638084435533,3.5291294450794886 L10.838054066278353,3.6468683993461055 L10.880941609612591,3.7651098678416126 L10.91727488058581,3.8837826263267132 L10.947031993394166,4.0028151907691605 L10.970195023465592,4.122135860403048 L10.986750018256897,4.241672760918675 L10.996687005658247,4.361353887756945 L11.0,4.481107149482171 " />
			<path d="M11.0,4.481107149482216 L10.996687005658247,4.600860411207486 L10.986750018256897,4.720541538045756 L10.970195023465592,4.840078438561384 L10.947031993394166,4.959399108195272 L10.91727488058581,5.078431672637719 L10.880941609612591,5.19710443112282 L10.838054066278353,5.315345899618323 L10.788638084435535,5.433084853884941 L10.732723430423814,5.550250372379165 L10.670343785139984,5.666771878973756 L10.601536723749838,5.782579185470161 L10.526343693054297,5.8976025338772615 L10.444809986523403,6.011772638430976 L10.356984717013228,6.125020727329417 L10.262920787182129,6.237278584158451 L10.162674857624154,6.348478588982716 L10.056307312738838,6.458553759077341 L9.943882224357877,6.567437789275837 L9.825467313150668,6.675065091909849 L9.701133907831906,6.781370836316714 L9.570956902195826,6.886290987891028 L9.435014710002994,6.989762346656702 L9.293389217746778,7.091722585336258 L9.146165735327997,7.192110286894454 L8.99343294466742,7.290864981533611 L8.835282846287095,7.387927183118351 L8.67181070389267,7.483238425007831 L8.503114986990107,7.5767412952738535 L8.329297311571331,7.668379471283666 L8.15046237890455,7.758097753626615 L7.966717912466137,7.845842099364198 L7.778174593052032,7.931559654583513 " />
			<path d="M4.354214472608053,7.105427357601002e-15 L4.095888824379484,0.04767676052338299 L3.8349132692817895,0.09242354513518336 L3.5714566500120672,0.13421140412095411 L3.305689414435248,0.17301330209488963 L3.037783505309878,0.2088041354908583 L2.767912249046732,0.2415607488035878 L2.496250243572269,0.2712619495695243 L2.222973245369458,0.29788852207767036 L1.948258055769037,0.321423239801522 L1.6722824065648063,0.341850876544072 L1.395224845026947,0.3591582162886633 L1.1172646183877286,0.3733340617493255 L0.8385815578743859,0.38436924161504926 L0.5593559623641707,0.39225661648333254 L0.27976848173682695,0.3969910834791355 L6.735557395310443e-16,0.3985695795562796 L-0.2797684817368256,0.3969910834791355 L-0.5593559623641694,0.39225661648333254 L-0.8385815578743846,0.38436924161504926 L-1.1172646183877273,0.3733340617493255 L-1.3952248450269455,0.3591582162886633 L-1.6722824065648048,0.341850876544072 L-1.9482580557690354,0.321423239801522 L-2.222973245369457,0.29788852207767036 L-2.4962502435722675,0.2712619495695243 L-2.7679122490467307,0.2415607488035878 L-3.0377835053098767,0.2088041354908592 L-3.305689414435246,0.17301330209489052 L-3.571456650012066,0.13421140412095411 L-3.834913269281788,0.09242354513518425 L-4.095888824379482,0.04767676052338299 L-4.35421447260803,1.1546319456101628e-14 " />

        </g>
        </g>
    </svg>
    