<?xml version="1.0" encoding="UTF-8" standalone="no"?>
    <svg
    xmlns:svg="http://www.w3.org/2000/svg"
    xmlns="http://www.w3.org/2000/svg"
    width="340"
    height="340"
    >
        <g transform="scale(4, -4)   translate(42.49999928273937,-42.79977650158316)" stroke-width="0.25"  fill="none">
        <!-- hidden lines -->
        <g  stroke="rgb(160,160,160)" fill="none" stroke-dasharray="0.25,0.25" >
    			<path d="M28.28427210817467,12.895010682248296 L28.196711059066192,12.93525097669354 L28.108934661112084,12.978083478416083 L28.02099843636737,13.02348087659798 L27.932957848469297,13.071414182202824 L27.844868299419492,13.121852734396333 L27.756785126366154,13.17476420696691 L27.66876359838626,13.23011461474622 L27.580858913267736,13.287868320029755 L27.49312619429165,13.34798803899741 L27.405620487014396,13.410434848134054 L27.231508673077403,13.542146765206745 L27.058956290296685,13.682664340397803 L26.88839171866274,13.831624394378224 L26.72023527983555,13.988643514941435 L26.554899001509824,14.153318634151997 L26.392786309633067,14.32522775427959 L26.234288606945892,14.503933874304684 L26.079786739036685,14.688983926911416 L25.929648653892386,14.879912051625686 L25.78422881877019,15.07624079122129 L25.64386837813958,15.277481482258047 L25.50889353591645,15.483137186738743 L25.379615096728116,15.692703846947033 L25.256328696254737,15.905670890298282 L25.13931363828601,16.121523646988674 L25.028833150308436,16.33974359748945 L24.925134291947355,16.559809324315744 L24.828446654740556,16.78119974568094 L24.738983470130407,17.003392665786215 L24.656940773683473,17.22586737948129 L24.582497506455198,17.448105053830627 L24.515815715195593,17.669588954205313 L24.45703999617276,17.88980693719536 L24.40629779299606,18.108250672459008 L24.36369940172924,18.324417232778245 L24.329337827520487,18.53780982030449 L24.303288784602433,18.747937766558554 " />
			<path d="M24.303288784602433,18.747937766558568 L24.29146930368822,18.874761957906866 L24.282797665073367,19.000074275039214 L24.277281825059806,19.123765108519514 L24.27492715255502,19.245726565559913 L24.275736472235536,19.36585244317845 L24.279710098837793,19.484038208281138 L24.28684586257644,19.600180984668487 L24.297139125689988,19.714179546966474 L24.3105827901139,19.82593432148195 L24.327167296281054,19.93534739398249 L24.34688061304959,20.042322524400678 L24.369708218758184,20.146765168462842 L24.395633073408707,20.248582506242222 L24.424635581976265,20.347683477636586 L24.45669354884665,20.44397882477028 L24.4917821233812,20.53738114132072 L24.529873736609,20.627804928769336 L24.570938029046573,20.715166659576944 L24.614942253880177,20.799385734632722 L24.661852123134437,20.880385811133127 L24.711629925272604,20.958091178141768 L24.764235370427794,21.03242865596736 L24.81962563180903,21.10332777925356 L24.877755316044986,21.170720840418547 L24.938576433527796,21.23454293309466 L25.002038368756804,21.294731995568014 L25.068087850682325,21.351228854218107 L25.136669288076636,21.403977583174232 L25.207724518995136,21.45292545015134 L25.281192590100744,21.498022758698824 L25.357010198700916,21.53922325292085 L25.435111669283007,21.576484167916337 " />
			<path d="M25.435111669283014,21.576484167916337 L25.53728155437484,21.617990478288114 L25.642866892896144,21.653033207558096 L25.751717386102552,21.681550280403755 L25.863681960175377,21.70349026428214 L25.97859813972794,21.718809995791307 L26.096295900451807,21.72747672039348 L26.216601290988336,21.72946882981576 L26.33933652602485,21.724775630920117 L26.4643200570326,21.713397193552705 L26.591366620646458,21.695344277372588 L26.720287264686426,21.670638337659803 L26.850889351820896,21.63931161010278 L26.982976540871654,21.601407274565137 L27.116348745760703,21.55697969783182 L27.250802072098814,21.50609475533463 L27.386128731415848,21.448830231857087 " />
			<path d="M27.386128731415862,21.44883023185708 L27.527421980197722,21.382676075940687 L27.669213734912844,21.30983522812048 L27.81126724554168,21.230430319267644 L27.953347514523408,21.1445950162586 L28.09522129526876,21.05247359214017 L28.23665710030044,20.954220578765334 L28.377425219021134,20.85000050189944 L28.51729774510915,20.739987698796995 L28.65604861354166,20.624366218248984 L28.793453647245524,20.50332980310068 L28.92929061337575,20.377081955240037 L29.063339289221535,20.24583608305657 L29.195382042575996,20.10981519581262 L29.32521426686347,19.96924061462867 L29.45263388429274,19.82434181329964 L29.577441402235536,19.67535664101547 L29.69944291540997,19.522528077728417 L29.81845005856529,19.366104098677678 L29.934279959166524,19.206337538914035 L30.04675585074165,19.043485037130083 L30.155707762674975,18.877805949158983 L30.2609715332475,18.709563429930583 L30.36238982826845,18.53902271854096 L30.45981208779204,18.366451015743785 L30.553094445979298,18.19211739988371 L30.64209967294258,18.01629269940535 L30.726697881999897,17.839247942752923 L30.806766297311693,17.66125462524108 L30.88218910312553,17.482584577118804 L30.952857625679346,17.303509550122353 L31.01867040466121,17.124300852082303 L31.079533221024544,16.945228922776252 L31.135359087824327,16.766563191857983 L31.186068347052924,16.58857153179755 L31.23158854542063,16.411520779740826 L31.271854548780226,16.235675781741456 L31.306808591991434,16.061299068928754 L31.33640027892092,15.888650857507704 L31.36058658244228,15.717989048758938 L31.379331917394378,15.549568480620856 L31.39260814611599,15.38364011332776 L31.400394414911446,15.220453616075345 L31.4026774980329,15.060254585101521 L31.399451749250648,14.903284381026785 L31.390719077409706,14.749780123541612 L31.37648896907906,14.599974655543077 L31.356778558293513,14.454096476720691 L31.33161274338819,14.312369646591451 L31.301024322694417,14.175013529683662 L31.265053642382288,14.042240797719172 L31.22374885621711,13.914258768163055 L31.177166064297015,13.791268897114117 L31.125369245874705,13.67346633875015 L31.06843008478032,13.561039308208628 L31.006428509998177,13.454169462538001 L30.93945238883351,13.353031127227643 L30.867597359010134,13.257790616087533 L30.790966932452477,13.168606061889697 L30.70967259906761,13.085627247009642 L30.62383381211326,13.008995326560333 L30.53357722404478,12.938841754615964 L30.439037837103363,12.875288940480885 L30.340358034824224,12.818449273401384 L30.2376873929365,12.768424707987656 " />
			<path d="M30.23768739293649,12.768424707987652 L30.135246239608787,12.726798721307595 L30.029399634847675,12.691642644908084 L29.92029777644545,12.663018401481205 L29.808093979406134,12.640978027499626 L29.692954798695563,12.625565331088366 L29.575051287666298,12.61681292922628 L29.45455834433515,12.614742376151849 L29.331654613475155,12.619364375422563 L29.206522411687402,12.630678914337357 L29.079347675452755,12.648675320722154 L28.950319932163442,12.67333224207846 L28.81963229413452,12.704617547095069 L28.68748147559522,12.742488149522814 L28.554067832660166,12.78688975441243 L28.41959542628046,12.837756526715465 L28.284272108174694,12.895010682248286 " />
			<path d="M-5.360085947264903,22.287375485915305 L-5.3573290392173165,22.413019283045635 L-5.3589059577332465,22.53804372673995 L-5.364816740043883,22.66233556933066 L-5.375057506191075,22.785782998929154 L-5.389620584860244,22.908275597595463 L-5.408494620331276,23.0297043074928 L-5.43166466227259,23.149961404272503 L-5.459112239912222,23.268940477035677 L-5.4908154219284215,23.386536414318687 L-5.526748863210857,23.502645395650475 L-5.566883839452181,23.61716488833043 L-5.611188270338353,23.729993649176453 L-5.659626731914718,23.841031731093604 L-5.712160458513525,23.950180494414546 L-5.7687473344371405,24.05734262306384 L-5.829341875399919,24.162422145698983 " />
			<path d="M-5.829341875399922,24.162422145698986 L-5.881525259250323,24.246251692597376 L-5.936297410473575,24.32859198826162 L-5.993628869925186,24.409393505178016 L-6.05348863801142,24.48860735707557 L-6.1158441497940865,24.566185316087537 L-6.18066124617959,24.64207983209749 L-6.247904140907853,24.716244054455956 L-6.317535383020173,24.788631856273007 L-6.389515814448592,24.859197861511344 L-6.463804522332792,24.927897475123636 L-6.540358785634028,24.994686916497255 L-6.619134015579094,25.059523256488585 L-6.700083689430739,25.12236445834856 L-6.783164976917253,25.183173475639933 L-6.868343121992323,25.241920126191964 L-6.955567220423908,25.298564047036397 L-7.044784293264449,25.353066048208206 L-7.135940230455826,25.4053887363001 L-7.228979825946523,25.45549646349047 L-7.323846808965753,25.503355283406332 L-7.4204838717443335,25.5489329133081 L-7.518832693948446,25.59219870213574 L-7.618833964068558,25.63312360400875 L-7.720427397982105,25.671680156824962 L-7.823551754884749,25.707842465656242 L-7.928144850761248,25.741586190691564 L-8.034143569543271,25.772888539531074 L-8.14148387207769,25.801728263687234 L-8.250100803005134,25.82808565920208 L-8.35992849562488,25.85194257134234 L-8.470900174798311,25.8732824033869 L-8.582948157919512,25.892090129573937 L-8.696003853957757,25.908352312327796 L-8.8099977605529,25.92205712393836 L-8.924859459120949,25.9331943729186 L-9.0405176079033,25.941755535318617 L-9.156899932869424,25.947733791327355 L-9.273933216358941,25.951124067545816 L-9.391543283325394,25.951923085368563 L-9.509654985020141,25.950129415962856 L-9.628192179931144,25.9457435423877 L-9.747077711767588,25.93876792944776 L-9.86623338425758,25.929207101929926 L-9.985579932502374,25.917067731923 L-10.105043851094408,25.902357818575297 L-10.224570968725951,25.885083960752333 L-10.34408374066302,25.865256825289784 L-10.463502855241183,25.842889361555294 L-10.582749908600158,25.81799640925298 L-10.701747382913565,25.790594618812943 L-10.820418627395165,25.76070237997836 L-10.938687841877805,25.72833975795482 L-11.056480062781295,25.693528436533764 L-11.173721151305545,25.65629166764935 L-11.290337783705233,25.61665422687529 L-11.40625744352241,25.574642374415614 L-11.521408415673388,25.53028382119053 L-11.635719782306372,25.483607699665967 L-11.749121420366295,25.434644539122694 L-11.86154400082333,25.383426245108158 L-11.972918989541629,25.329986082861605 L-12.083178649784873,25.27435866455035 L-12.192256046375205,25.21657994020225 L-12.300085051542199,25.156687192267054 L-12.406600352518552,25.094719033786227 L-12.511737460959182,25.03071541019857 L-12.615432724280515,24.964717604855995 L-12.717623339036685,24.896768248371217 L-12.818247366469524,24.826911331966564 L-12.917243750389149,24.75519222504023 L-13.014552337562062,24.681657697213765 L-13.110113900803647,24.60635594517188 L-13.203870164992061,24.529336624652945 L-13.295763836240491,24.450650887995902 L-13.385738634484808,24.37035142769662 L-13.473741027934803,24.288490913456634 L-13.559734194330611,24.205107925952017 L-13.643670883477322,24.12025175549961 L-13.725501423369113,24.03397610044253 L-13.805177988123926,23.946335089905325 L-13.882654537957158,23.857383259960194 L-13.957886765418968,23.767175532006565 L-14.030832047419057,23.675767193188253 L-14.101449402599393,23.583213878683125 L-14.169699453651777,23.489571555711013 L-14.235544394213838,23.394896509116496 L-14.29894796001348,23.29924532839378 L-14.35987540396842,23.202674896031876 L-14.418293474983964,23.10524237706895 L-14.474170400228745,23.007005209755555 L-14.527475870704704,22.90802109723719 L-14.578181029964068,22.808348000177556 L-14.626258465862744,22.708044130254457 L-14.67168220527601,22.607167944471282 L-14.714427711738946,22.50577814023766 L-14.754471886010647,22.40393365118374 L-14.791793069597727,22.301693643683326 L-14.826371051309247,22.199117514071833 L-14.858187076951713,22.096264886555876 L-14.887223862309334,21.993195611822095 L-14.91346560959128,21.88996976636357 L-14.936898027564261,21.78664765255297 L-14.957508355625269,21.683289799502415 L-14.975285392105828,21.57995696476077 L-14.990219527135777,21.4767101369099 L-15.00230278043099,21.37361053913221 L-15.011528844406152,21.27071963383252 L-15.017893667087245,21.168088039274544 L-15.021393765338468,21.06576530161323 L-15.022026181433676,20.96381295227301 L-15.019789728268002,20.862291944285975 L-15.014684940055416,20.761262658081495 L-15.006714028233487,20.660784914336467 L-14.995880842834662,20.560917984686544 L-14.982190838909549,20.461720600462577 L-14.965651047625304,20.36325095959844 L-14.946270051699868,20.265566731838117 L-14.92405796487041,20.168725062351932 L-14.899026415131965,20.072782573853473 L-14.871188531519877,19.977795367290714 L-14.840558934247284,19.88381902116668 L-14.807153728046515,19.79090858952677 L-14.770990498600886,19.699118598631745 L-14.732088311991003,19.608503042317263 L-14.690467717117327,19.519115376022572 L-14.646150751098352,19.431008509452937 L-14.599160947681403,19.344234797822143 L-14.54952334874067,19.258846031603312 " />
			<path d="M-14.549523348740658,19.258846031603287 L-14.505478800304056,19.187721478120935 L-14.4595748488305,19.11765565136117 L-14.411829241739762,19.048678929662795 L-14.362260535727565,18.980821375172905 L-14.31088810880481,18.91411272579535 L-14.257732173869625,18.848582386326118 L-14.202813793910769,18.78425941871698 L-14.146154898950929,18.721172531403855 L-14.087778304848198,18.659350067631742 L-14.02770773408403,18.598819992703223 L-13.96596783867574,18.53960988007275 L-13.902584225361553,18.481746896204193 L-13.837583483216068,18.42525778410438 L-13.770993213863898,18.370168845440542 L-13.702840943669603,18.31650505973126 L-13.633144252162687,18.264283023444996 L-13.561930289578477,18.213526422895896 L-13.489230127840251,18.16426062604815 L-13.41507544916745,18.116510053270712 L-13.339498528107049,18.070298202676472 L-13.262532215151763,18.02564767274017 L-13.184209921843282,17.982580182373596 L-13.104565607264952,17.941116588623135 L-13.02363376583478,17.901276902141145 L-12.941449416315855,17.863080300568964 L-12.858048091967744,17.826545139955876 L-12.687739172644532,17.758528513481096 L-12.513001255032913,17.697357759509664 L-12.334136356383343,17.643150905697276 L-12.151454114270933,17.59601334266598 L-11.965271687240959,17.55603780107945 L-11.77591370295885,17.52330423481267 L-11.583712252587766,17.497879607860177 L-11.38900693173899,17.479817579148396 L-11.192144929962476,17.46915807593884 L-10.993481172367094,17.46592674303042 L-10.793378518582179,17.470134251490435 L-10.592208025894143,17.481775447165155 L-10.390349285014086,17.500828315742297 L-10.188150471661286,17.527258734692886 L-9.985932820239137,17.56102549249721 L-9.78407874685842,17.602065734130782 L-9.582964495704347,17.650301145654588 L-9.382959203725736,17.705639109861917 L-9.184425115326569,17.76797355057113 L-8.987717743788142,17.837185624241652 L-8.79318598509641,17.91314427816338 L-8.601172188495491,17.995706691338924 L-8.41201218673499,18.08471861104737 L-8.226035287625127,18.180014594947462 L-8.043564227160317,18.28141816544741 L-7.86491508311827,18.388741879937793 L-7.69039714668822,18.50178731735317 L-7.520312748328381,18.620344978397434 L-7.354957032699287,18.744194093637038 L-7.194617676166141,18.873102330535566 L-7.039574539009785,19.006825387372423 L-6.890099229695752,19.145106471735275 L-6.746418127548786,19.287713121234706 L-6.608745870123839,19.434412540984052 L-6.477314222548943,19.584938967047204 L-6.352339988624753,19.739023512980836 L-6.234025767441824,19.896394467835783 L-6.122560576529185,20.056777549677733 L-6.018120358119526,20.21989612057783 L-5.9208683826359385,20.385471368347645 L-5.830955561024946,20.553222459617132 L-5.748520675080183,20.72286666817804 L-5.673690532420871,20.894119481839358 L-5.606580050308876,21.066694690365438 L-5.547292270007902,21.240304456391257 L-5.495918300908032,21.414659370533453 L-5.452537191158571,21.58946849123979 L-5.417215719071837,21.76443936924354 L-5.390008097080262,21.939278055813517 L-5.37946039048301,22.026555556395024 L-5.370955577548871,22.1136890933143 L-5.364496706926243,22.200641493804138 L-5.360085947264905,22.28737548591525 " />
			<path d="M-39.32263229062424,7.163555654950261 L-39.28118059109798,7.44669027836496 L-39.234651235320655,7.73738295445368 L-39.18322730519157,8.034476194449729 L-39.1271093880128,8.336799157587718 L-39.06651474339848,8.643168576372446 L-39.00167673977758,8.952389534704434 L-38.93284451806476,9.263256131881137 L-38.860282855697434,9.574552064781784 L-38.78427221986021,9.885051159832802 L-38.70510901434136,10.193517885639736 L-38.62310604008893,10.498707876460562 L-38.53859320515763,10.799368495984258 L-38.451915293258836,11.09425025861541 L-38.363396886950206,11.382221260909825 L-38.27340541725207,11.662054394881336 L-38.18232444243181,11.932529872499954 L-38.09053889690217,12.192482173519092 L-37.99843476236167,12.440798200168878 L-37.90639874340296,12.676416575700674 L-37.81481793914075,12.89832797622377 L-37.72407949931023,13.10557647515025 L-37.634570250186115,13.297261969439045 L-37.54667627257189,13.472543846705204 L-37.46078241100781,13.630646142135436 L-37.377267155267454,13.7708717577466 L-37.29646165614937,13.892664899344588 L-37.2571843532562,13.94648168134131 L-37.21871502258049,13.99549904224326 L-37.18109498651829,14.039665784845726 L-37.14436408712727,14.078937150116557 L-37.108560731804516,14.113274581338505 L-37.073721931575676,14.142645525207431 L-37.03988333265629,14.167023266438736 L-37.00707924183786,14.186386792943292 L-36.97534264614361,14.200720689143008 L-36.944705227090644,14.210015055505146 L-36.915197369787485,14.214265452883321 L-36.88684816698774,14.213472870762073 " />
			<path d="M-36.88684816698774,14.213472870762073 L-36.86586069619529,14.209439065611598 L-36.84558647291641,14.202433970239662 L-36.82603714730882,14.192464586023807 L-36.8072239089615,14.179539836800274 L-36.789157481651976,14.163670589269568 L-36.77184811682471,14.14486967909196 L-36.755305585703674,14.123151943029443 L-36.73953916993934,14.098534257552666 L-36.724557650676594,14.07103558439344 L-36.71036929591751,14.040677023585456 L-36.684402497315034,13.971475706228855 L-36.66168840747164,13.8911214239801 L-36.64226820486313,13.7998185871533 L-36.62618058596969,13.697812989114183 L-36.61345527014743,13.58537328227016 L-36.604113555419644,13.462789407736567 L-36.598168764761766,13.330371349992962 L-36.59562659482272,13.188448157112557 L-36.596485380200306,13.037367188644318 L-36.6007362832748,12.877493561535848 L-36.60836341649127,12.709209772793729 L-36.61934390086764,12.532915485886551 L-36.633647861391886,12.349027476204505 L-36.651238356858215,12.157979739197865 L-36.67207123857855,11.960223773125398 L-36.69609492929205,11.75622905665221 L-36.723250576714264,11.546480298435776 L-36.753481068204316,11.331415013188499 L-36.78671899062177,11.11152034922901 L-36.82288742215474,10.887315413851145 L-36.86190348218547,10.659324904150342 L-36.9036785867327,10.428078794557704 L-36.94811863773859,10.194112069144406 L-36.99512415502588,9.957964491618071 L-37.04459035771794,9.720180406479226 L-37.096407199880616,9.481308565352373 L-37.150459363111516,9.241901973052723 L-37.206626206768995,9.002517748496171 L-37.26478167449969,8.763716996106497 L-37.324794153689965,8.52606468392033 L-37.386526282433366,8.290129525136848 L-37.44983469657265,8.056483860405702 L-37.51456970734168,7.825703538693128 L-37.5805813146656,7.59834606649695 L-37.64773320979813,7.374906675639403 L-37.71586078478768,7.155960297600596 L-37.784795391407116,6.942073139993892 L-37.85436763073401,6.7337923286232915 L-37.924407408501644,6.531646579779997 L-37.994743988345796,6.336146619116619 L-38.0652060441761,6.147785375759149 L-38.13562171321334,5.967037969689015 L-38.20581865154612,5.794361499799802 L-38.27562409437308,5.630194629405485 L-38.34486492340912,5.474956955349234 L-38.41336774424641,5.329048136234091 L-38.480958976773586,5.192846744669104 L-38.547464962068815,5.066708797796682 L-38.612712089494806,4.950965909739249 L-38.67653569283348,4.845909176250168 L-38.73879350893062,4.751773108280468 L-38.799322603541135,4.668804848215779 L-38.857966048842094,4.597215940893293 L-38.91457490329374,4.53718083311129 L-38.969007811065836,4.48883906441439 L-38.995366110146676,4.469087668974078 L-39.021130703560324,4.452296959721942 L-39.0462859369679,4.438475244701334 L-39.070816589613536,4.427628893198227 L-39.09470787194445,4.419762355404204 L-39.11794542431177,4.414878177063782 L-39.14051531673236,4.412977009249626 L-39.16240404970509,4.41405761334791 " />
			<path d="M-39.16240404970509,4.414057613347912 L-39.191846856778966,4.4205629492423775 L-39.21989779168983,4.432878274890038 L-39.24652423750361,4.45098151483649 L-39.271695297705826,4.474843195626304 L-39.29538183763627,4.504426309384476 L-39.31755653636101,4.539686132367387 L-39.33819395006144,4.580569993959168 L-39.35727058821144,4.627016990692421 L-39.374765004918,4.678957641966048 L-39.3906610804112,4.736326110785481 L-39.404944143312164,4.799054104287338 L-39.41759862446546,4.867058352780917 L-39.4286112428866,4.940249890815289 L-39.43797089957157,5.018534368124478 L-39.445668586624116,5.101812318245551 L-39.451697310072916,5.189979389330835 L-39.45872958120153,5.380540212286604 L-39.45904983737983,5.58929107332265 L-39.452669320732404,5.815237773420174 L-39.439627643625386,6.057320359781054 L-39.419992514478835,6.314414555666511 L-39.393859921525916,6.585332010081611 L-39.36135480462069,6.8688193195566924 L-39.32263229062425,7.1635556549501995 " />
			<path d="M7.172606128539535e-07,0.29977650158317987 L0.28978611065035337,0.8095248939104497 L0.5759272845808161,1.3691623351062736 L0.8548258477668493,1.9716510596384091 L1.1229744889556736,2.6094144222237636 L1.3770010834008723,3.2744321785389037 L1.6137110992876358,3.958341344445876 L1.8301277708238368,4.652541365370061 L2.0235295327970295,5.348302273264102 L2.1914842458360853,6.036874471021348 L2.3318797819749437,6.7095987637361105 L2.4429505858872727,7.358015253103772 L2.52329987776909,7.973969725550525 L2.571917218655237,8.54971619620024 L2.588191217275636,9.078014319128595 " />
			<path d="M9.659258993278044,5.929205742022065 L9.636661391632515,5.620456774542417 L9.568974319783402,5.307759731282337 L9.456514482273128,4.9925777066156165 L9.299808073253777,4.6763854220241186 L9.099588314450068,4.360662325947134 L8.856792024450288,4.046885671513543 L8.572555235377326,3.736523604545712 L8.248207877449204,3.4310282941760555 L7.885267556299771,3.131829138217747 L7.485432452175185,2.8403260750813404 L7.050573374230501,2.5578830335305094 L6.582725007103924,2.2858215509251902 L6.084076390725585,2.0254145898120552 L5.55696067790537,1.7778805817942 " />
			<path d="M5.556960677905361,1.777880581794196 L5.205824028154874,1.6267617072190679 L4.844709421573891,1.4816802191736707 L4.474309003427468,1.3429141941001297 L4.095332717015932,1.2107296036469288 L3.7085069429326603,1.0853798048833412 L3.31457310681664,0.9671050546921078 L2.9142862582683082,0.8561320492711337 L2.508413623652468,0.7526734896268323 L2.0977331355621063,0.656927673891935 L1.6830319417616733,0.5690781172491602 L1.2651048964677212,0.4892932001892425 L0.8447530368586564,0.41772584577748634 L0.4227820477336575,0.3545132265474493 L7.172635616004008e-07,0.29977650158351754 " />
			<path d="M7.172605737619129e-07,9.253547176032452 L0.3279976388070478,9.290102006068443 L0.6556162510763295,9.32145106685734 L0.9824786811304106,9.347558200619156 L1.3082079282063814,9.368393295574615 L1.6324282985463838,9.383932320675878 L1.954765838720074,9.394157353323775 L2.274848766939806,9.399056600039598 L2.5923079018710546,9.398624410067617 L2.9067770884434996,9.392861281892621 L3.2178936201716324,9.381773862664964 L3.5252986574977956,9.365374940533805 L3.828637641675134,9.343683429897322 L4.127560703713087,9.316724349587012 L4.421723067913667,9.28452879401114 " />
			<path d="M4.421723067913744,9.28452879401113 L5.07938830664272,9.190653041959608 L5.7059787486690325,9.069773270846415 L6.297661024268645,8.922629001774581 L6.850815325718031,8.750120437409665 L7.362057552638894,8.553302954698747 L7.828260015326949,8.333380648260544 L8.246570569405463,8.091698963947081 L8.614430064741113,7.829736467643445 L8.92958800187278,7.549095799662688 L9.190116300170025,7.251493870075272 L9.394421093490049,6.938751354956319 L9.541252481169415,6.612781557810748 L9.629712174695701,6.2755787043201465 L9.65925899327804,5.929205742022104 " />
			<path d="M2.5881912172756363,9.078014319128616 L2.586671173481982,9.228899356220847 L2.582112827543885,9.374554796800624 L2.574521533692771,9.514809554042259 L2.563906208659541,9.649498884760677 L2.5502793212009816,9.778464582918703 L2.5336568774539745,9.901555165455814 L2.5140584021346912,10.018626050220085 L2.491506915604865,10.12953972579433 L2.466028906832085,10.234165913016957 L2.437654302275871,10.33238171800783 L2.4064164307360554,10.424071776519368 L2.3723519842047924,10.509128389443346 L2.3355009747681588,10.587451649314234 L2.295906687607972,10.658949557660462 " />
			<path d="M2.2959066876079666,10.65894955766047 L2.253783634136707,10.723302711310232 L2.209033640043552,10.78072464174643 L2.1617088645566325,10.831148419718458 L2.1118644679907317,10.874515272808765 L2.059558547454107,10.910774653936183 L2.0048520691322755,10.939884300272077 L1.9478087972276836,10.961810282500592 L1.8884952196381013,10.976527044365639 L1.8269804704603554,10.984017432458485 L1.7633362494097327,10.984272716211247 L1.6976367382489812,10.977292598072971 L1.6299585143243123,10.963085213856445 L1.5603804613091765,10.941667123255352 L1.488983677259887,10.913063290542802 " />
			<path d="M1.4889836772598684,10.913063290542794 L1.3948968938726454,10.865920264517763 L1.2981365249635317,10.807106009164702 L1.1988880303006055,10.736733253261736 L1.0973416386212098,10.654936879665717 L0.9936919830221624,10.56187366678342 L0.8881377279081732,10.457721988075722 L0.7808811882134854,10.342681470170714 L0.6721279416265777,10.216972610241058 L0.5620864345611745,10.080836353378952 L0.4509675826287963,9.934533630778743 L0.3389843663786169,9.778344859612343 L0.2263514230794747,9.612569405556046 L0.11328463532646293,9.437525008998907 L7.172606364680423e-07,9.25354717603251 " />
			<path d="M7.172584825159382e-07,9.253547176033402 L-0.24010969249646605,9.357888646505062 L-0.4799431606413106,9.456946163108755 L-0.7192230649884,9.55060547362123 L-0.9576734218265638,9.638758552071094 L-1.195019204238729,9.7213037233352 L-1.4309866593159775,9.798145780409987 L-1.66530362390217,9.869196094222561 L-1.8976998385049644,9.934372715854812 L-2.1279072590111574,9.993600471062718 L-2.355660365846827,10.046811046981762 L-2.580696470225689,10.093943070918506 L-2.802756017132445,10.13494218113741 L-3.021582884691653,10.169761089561252 L-3.236924679576832,10.19835963631287 " />
			<path d="M-3.23692467957686,10.198359636312874 L-3.922285144951131,10.24829948173133 L-4.55804719750329,10.229048923349461 L-5.136171446468146,10.140851389916534 L-5.649347347390259,9.9848221641597 L-6.091085646023907,9.76293427971885 L-6.4558004367863155,9.477993571578825 L-6.738879798111839,9.133603195493333 L-6.9367441115030815,8.734118065062539 L-7.046891326818087,8.284589782620245 L-7.067928601401241,7.790702760295254 L-6.999589912972149,7.25870233901408 L-6.8427394235525245,6.695315814400548 L-6.599360551893287,6.1076673682220814 L-6.272530892584128,5.503187981098596 " />
			<path d="M-6.272530892584115,5.503187981098572 L-5.9993842644899145,5.078671346661723 L-5.689825381795494,4.652321716488625 L-5.345733059893552,4.226726747702433 L-4.969195709057673,3.80446951713638 L-4.562498659188644,3.388112843784903 L-4.128110289390327,2.9801837342062867 L-3.668667046559296,2.5831580452828624 L-3.1869574439153543,2.1994454574255187 L-2.6859051365911877,1.831374849425146 L-2.168551177000968,1.4811801637158637 L-1.6380355576859882,1.1509868478384595 L-1.0975781536598783,0.842798954395255 L-0.5504591799206482,0.5584869777910779 L7.172605690497491e-07,0.2997765015831833 " />
			<path d="M7.172606134878774e-07,9.253547176032473 L-0.2897846761291269,8.743798783705202 L-0.57592585005959,8.184161342509379 L-0.8548244132456226,7.581672617977242 L-1.1229730544344474,6.943909255391888 L-1.376999648879646,6.2788914990767495 L-1.6137096647664095,5.594982333169776 L-1.8301263363026106,4.90078231224559 L-2.0235280982758037,4.20502140435155 L-2.1914828113148594,3.516449206594303 L-2.331878347453718,2.8437249138795417 L-2.442949151366046,2.1953084245118797 L-2.523298443247863,1.5793539520651283 L-2.5719157841340112,1.0036074814154121 L-2.588189782754409,0.47530935848707667 " />
			<path d="M-2.5881897827544105,0.4753093584870349 L-2.5866697389607416,0.32442432139419264 L-2.582111393022609,0.1787688808138448 L-2.5745200991714325,0.038514123571686376 L-2.5639047741381136,-0.09617520714720618 L-2.5502778866794418,-0.22514090530565767 L-2.5336554429323,-0.34823148784314295 L-2.5140569676128552,-0.4653023726077352 L-2.4915054810828434,-0.5762160481822436 L-2.4660274723098583,-0.6808422354050805 L-2.4376528677534135,-0.7790580403961052 L-2.4064149962133445,-0.8707480989077352 L-2.3723505496818063,-0.9558047118317465 L-2.335499540244879,-1.0341279717026088 L-2.2959052530843747,-1.10562588004875 " />
			<path d="M-2.295905253084374,-1.105625880048751 L-2.2537821996130742,-1.1699790336979539 L-2.2090322055198968,-1.2274009641336239 L-2.1617074300329717,-1.2778247421051594 L-2.1118630334670794,-1.3211915951950048 L-2.05955711293048,-1.3574509763220004 L-2.004850634608688,-1.3865606226575042 L-1.9478073627041521,-1.4084866048856652 L-1.88849378511464,-1.4232033667503972 L-1.8269790359369789,-1.4306937548429668 L-1.7633348148864534,-1.4309490385954895 L-1.6976353037258138,-1.4239689204570107 L-1.6299570798012684,-1.409761536240322 L-1.5603790267862685,-1.3883434456391037 L-1.4889822427371056,-1.3597396129264578 " />
			<path d="M-1.4889822427371033,-1.359739612926457 L-1.3948954593499479,-1.3125965869012943 L-1.2981350904409101,-1.2537823315481336 L-1.1988865957780692,-1.1834095756450926 L-1.0973402040987663,-1.1016132020490281 L-0.9936905484998193,-1.0085499891667167 L-0.8881362933859371,-0.9043983104590312 L-0.7808797536913628,-0.7893577925540634 L-0.6721265071045733,-0.6636489326244749 L-0.5620850000392931,-0.5275126757624644 L-0.4509661481070415,-0.3812099531623746 L-0.3389829318569917,-0.22502118199611887 L-0.2263499885579816,-0.05924572793999028 L-0.11328320080510343,0.11579866861695526 L7.172606071026433e-07,0.29977650158317054 " />
			<path d="M7.172577342860501e-07,0.299776501582822 L-0.32799620428822157,0.2632216715469292 L-0.6556148165569835,0.23187261075811155 L-0.9824772466105454,0.20576547699636344 L-1.3082064936859987,0.18493038204095408 L-1.6324268640254878,0.1693913569397234 L-1.95476440419867,0.15916632429184327 L-2.274847332417901,0.1542670775760198 L-2.5923064673486587,0.1546992675479827 L-2.906775653920623,0.16046239572294468 L-3.217892185648288,0.17154981495054844 L-3.525297222973998,0.18794873708164223 L-3.8286362071508986,0.2096402477180403 L-4.127559269188431,0.23659932802825057 L-4.4217216333886515,0.26879488360400927 " />
			<path d="M-4.42172163338869,0.2687948836040135 L-5.079386872118098,0.3626706356554239 L-5.705977314144842,0.4835504067685297 L-6.297659589744876,0.6306946758403007 L-6.850813891194667,0.8032032402051794 L-7.362056118115914,1.000020722916087 L-7.828258580804327,1.2199430293543 L-8.246569134883167,1.4616247136677976 L-8.614428630219107,1.7235872099714895 L-8.92958656735103,2.004227877952322 L-9.19011486564849,2.3018298075398307 L-9.394419658968678,2.6145723226588924 L-9.541251046648167,2.9405421198045874 L-9.629710740174527,3.277744973295321 L-9.659257558756892,3.624117935593529 " />
			<path d="M-9.659257558756893,3.6241179355935484 L-9.636659957111599,3.93286690307157 L-9.568972885263197,4.245563946329992 L-9.45651304775409,4.560745970995043 L-9.29980663873636,4.876938255584884 L-9.09958687993471,5.192661351660247 L-8.856790589937408,5.506438006092276 L-8.572553800867315,5.816800073058627 L-8.248206442942433,6.1222953834269065 L-7.885266121796574,6.421494539383962 L-7.485431017675863,6.712997602519263 L-7.050571939735316,6.995440644069153 L-6.5827235726131,7.267502126673714 L-6.084074956239305,7.5279090877862895 L-5.556959243423837,7.7754430958037695 " />
			<path d="M-5.556959243423768,7.775443095803801 L-5.205822593671371,7.926561970380889 L-4.844707987088237,8.071643458428168 L-4.474307568939432,8.210409483503511 L-4.095331282525302,8.34259407395842 L-3.708505508439242,8.467943872723618 L-3.314571672320257,8.586218622916354 L-2.914284823768803,8.697191628338722 L-2.5084121891497024,8.800650187984294 L-2.0977317010559617,8.896396003720339 L-1.6830305072520502,8.984245560364132 L-1.265103461954543,9.064030477424932 L-0.8447516023418653,9.135597831837428 L-0.4227806132132169,9.198810451068063 L7.172604880589795e-07,9.253547176032441 " />
			<path d="M7.172606318106835e-07,0.29977650158315383 L0.24011112701758547,0.19543503111059712 L0.4799445951644307,0.09637751450609613 L0.7192244995135094,0.0027182039929056767 L0.9576748563536441,-0.08543487445758186 L1.1950206387677553,-0.16798004572221503 L1.4309880938469173,-0.2448221027974321 L1.665305058434985,-0.3158724166103347 L1.8977012730396092,-0.38104903824281267 L2.1279086935475795,-0.4402767934508408 L2.3556618003849685,-0.49348736936990445 L2.580697904765486,-0.5406193933065622 L2.8027574516738247,-0.5816185035252703 L3.0215843192345404,-0.6164374119488132 L3.236926114121152,-0.6450359587000246 " />
			<path d="M3.2369261141212085,-0.645035958700032 L3.7183704801427044,-0.6870789123897891 L4.177066516289305,-0.6956956645759091 L4.61020800117692,-0.6708334994894722 L5.015145051655391,-0.6126445194680221 L5.389400334325871,-0.5214847144203176 L5.730684221429285,-0.3979117839429003 L6.036908798384805,-0.24268172541240762 L6.306200637282732,-0.05674420892706378 L6.536912258185748,0.15876323260735292 L6.727632208120387,0.40252216270304375 L6.877193696097184,0.6730413072518946 L6.98468173133199,0.9686656778772558 L7.0494387209981,1.287586696860692 L7.071068493263074,1.6278532617012251 " />
			<path d="M7.071068493263077,1.6278532617012647 L7.066915656488748,1.7831137769807226 L7.0544620240862725,1.94189051268705 L7.033722224087587,2.1039969697262366 L7.004720617453962,2.2692427379148503 L6.967491269461635,2.437433719635763 L6.922077909688748,2.6083723578251417 L6.8685338806506016,2.7818578680228945 L6.806922075143552,2.9576864742140336 L6.7373148623711625,3.1356516481838934 L6.6597940029393605,3.3155443521061043 L6.57445055282046,3.497153284078338 L6.481384756398856,3.6802651263174413 L6.380705928724001,3.864664795722433 L6.272532327108994,4.050135696511021 " />
			<path d="M6.272532327108992,4.050135696511024 L5.999385699015105,4.474652330948144 L5.689826816320919,4.901001961121551 L5.345734494419137,5.326596929908083 L4.969197143583341,5.7488541604745045 L4.562500093714324,6.165210833826369 L4.128111723915953,6.573139943405386 L3.6686684810848034,6.970165632329217 L3.1869588784406844,7.353878220186969 L2.6859065711162873,7.721948828187747 L2.16855261152579,8.072143513897426 L1.6380369922104911,8.402336829775209 L1.0975795881840285,8.710524723218771 L0.5504606144444181,8.994836699823281 L7.172627594087544e-07,9.253547176031498 " />
			<path d="M5.556960694578265,1.7778805892187606 L30.237687393900828,12.76842470579168 " />
			<path d="M1.4889836937755234,10.913063297897331 L25.435111671600282,21.576484159350656 " />
			<path d="M-14.549523346814617,19.25884602363226 L-6.272530891915196,5.503187979986876 " />
			<path d="M-5.82934187848759,24.162422153998435 L2.2959066882593646,10.658949556577902 " />
			<path d="M-26.16970895820708,-12.35028373669001 L-1.4889822596088607,-1.3597396204396262 " />
			<path d="M-29.503087238936217,-2.887977773526032 L-5.556959260284813,7.775443088295404 " />
			<path d="M-2.2959052538234417,-1.10562587882049 L5.981087201136567,-14.861283922566557 " />
			<path d="M6.272532326390788,4.050135697704619 L14.39778089320815,-9.453336899832934 " />
			<path d="M38.07164655337131,5.269415560453631 L4.4217230710825675,9.28452879363303 " />
			<path d="M37.97760853284785,-4.790298689610248 L3.2369261174581823,-0.6450359590981911 " />
			<path d="M-3.236924682635788,10.198359636677871 L-36.886848165023736,14.213472869869108 " />
			<path d="M-4.421721636621527,0.2687948839897629 L-39.16240405215299,4.4140576145187325 " />

        </g>

        <!-- solid lines -->
        <g  stroke="rgb(0,0,0)" fill="none">
    			<path d="M-31.3743551260836,-6.045805511836437 L-31.359394922754323,-5.907081914430647 L-31.341296575360634,-5.769862587573573 L-31.320075263838415,-5.634270973218614 L-31.295748885293413,-5.500428232995597 L-31.26833796705314,-5.36845331709675 L-31.237865592355636,-5.238463020953624 L-31.204357337522683,-5.11057203083819 L-31.167841219589665,-4.98489295937817 L-31.128347653489115,-4.861536371833602 L-31.085909418009727,-4.740610803838481 L-31.04056162987724,-4.62222277116826 L-30.992341725428503,-4.506476771950842 L-30.941289449474624,-4.393475281595612 L-30.88744685107391,-4.283318740571929 L-30.830858286060067,-4.176105535025412 L-30.771570426295785,-4.07193197007722 L-30.709632275746703,-3.9708922355084337 L-30.64509519359531,-3.8730783633885353 L-30.578012924739244,-3.7785801770638567 L-30.508441638143104,-3.687485230778784 L-30.43643997363763,-3.599878739059382 L-30.36206909788487,-3.515843494845981 L-30.28539277035268,-3.4354597752181895 L-30.20647742026664,-3.3588052334126575 L-30.12539223563221,-3.285954775690823 L-30.042209265544678,-3.2169804214707622 L-29.957003458909675,-3.1519510877599015 L-29.869836901725957,-3.090921777879175 L-29.78077856964456,-3.033950054012284 L-29.689911221981106,-2.9810981291411207 L-29.59731897441845,-2.932423230920987 L-29.503087243397875,-2.8879777755120566 " />
			<path d="M-29.503087243397864,-2.887977775512055 L-29.424967371402495,-2.854848213895875 L-29.34585944219583,-2.8245957373993145 L-29.265811799852674,-2.7972421228178086 L-29.184873299969368,-2.77280719102592 L-29.103093298692777,-2.7513088307798363 L-29.020521643030552,-2.7327630168825037 L-28.937208662354326,-2.7171838229890386 L-28.85320516101809,-2.704583429267191 L-28.76856241202458,-2.6949721250647363 L-28.68333215168311,-2.688358306672787 L-28.59756657521287,-2.684748470211134 L-28.511318333256288,-2.684147199598829 L-28.424640529277685,-2.6865571495103473 L-28.33758671783299,-2.6919790231547687 L-28.25021090370694,-2.7004115446525354 L-28.162567541924673,-2.7118514257214597 L-28.074711538655407,-2.726293326320759 L-27.986698253036227,-2.74372980883902 L-27.89858349995485,-2.764151285349097 L-27.810423553840636,-2.787545957390066 L-27.72227515352386,-2.8138997476734713 L-27.634195508233702,-2.8431962230482104 L-27.546242304816115,-2.8754165079955167 L-27.458473716263313,-2.9105391878626197 L-27.370948251635088,-2.948540273185971 L-27.283709184183422,-2.9894006687211316 L-27.196804955614844,-3.033098143579745 L-27.110293599621233,-3.0796039769536954 L-27.024232182211037,-3.1288874776575777 L-26.938676830854163,-3.1809160726547328 L-26.853682760327825,-3.2356553867315565 L-26.769304295512615,-3.2930693140063676 L-26.685594891366502,-3.353120081910739 L-26.602607150283177,-3.415768308232821 L-26.520392837019617,-3.4809730517638102 L-26.43900289135645,-3.548691857040369 L-26.35848743863314,-3.618880793627375 L-26.27889579827878,-3.69149449033706 L-26.200276490437627,-3.7664861647321892 L-26.12267724076735,-3.8438076482125716 L-26.046144983466295,-3.9234094069358116 L-25.970725862564887,-4.0052405587748465 L-25.896465231494666,-4.089248886466431 L-25.823407650927162,-4.175380847056361 L-25.751596884853384,-4.263581577698854 L-25.681075894853212,-4.353794897819139 L-25.61188683248262,-4.44596330759989 L-25.544071029685245,-4.54002798270386 L-25.477668987113343,-4.635928765096568 L-25.412720360221833,-4.7336041497846395 L-25.34926394297762,-4.83299126723694 L-25.287337649005057,-4.9340258612073145 L-25.226978489966932,-5.036642261629362 L-25.168222550958966,-5.140773352205285 L-25.111104962674386,-5.246350532262486 L-25.055659870073715,-5.353303672403243 L-25.00191490456041,-5.461572375213975 L-24.94989323557785,-5.571103986029168 L-24.899625064977204,-5.6818295870316415 L-24.851139237963814,-5.793679926301993 L-24.804463187748905,-5.906585644314889 L-24.759622981828908,-6.020477288492878 L-24.71664336344958,-6.135285326566444 L-24.675547788620833,-6.250940158839773 L-24.636358459019345,-6.367372129456835 L-24.599096351087237,-6.484511536757627 L-24.56378124160629,-6.602288642809565 L-24.530431729998426,-6.720633682194185 L-24.49906525757425,-6.839476870124521 L-24.4696981239228,-6.958748409963669 L-24.442345500606756,-7.078378500210229 L-24.417021442298555,-7.198297341011548 L-24.393738895464114,-7.318435140260774 L-24.372509704671998,-7.438722119328969 L-24.35334461657713,-7.559088518478717 L-24.33625328159926,-7.679464602000779 L-24.32124425328769,-7.79978066311058 L-24.308324985334917,-7.919967028636473 L-24.29750182617297,-8.0399540635269 L-24.28878001105761,-8.159672175198718 L-24.282163651516576,-8.279051817744223 L-24.277655722009296,-8.39802349600947 L-24.27525804361679,-8.516517769551733 L-24.274971264551535,-8.634465256479132 L-24.276794837248367,-8.751796637170582 L-24.280726991768663,-8.868442657869444 L-24.28676470522121,-8.984334134139404 L-24.294903893062042,-9.0994047761387 L-24.30514100908637,-9.213605017937226 L-24.317470778652417,-9.326869617863734 L-24.331886440666057,-9.439130517693394 L-24.34838002057147,-9.550320649471413 L-24.36694236346413,-9.660373910774737 L-24.387563163231874,-9.769225143527324 L-24.410230988025,-9.876810116093399 L-24.43493330233078,-9.983065508400493 L-24.461656485902058,-10.087928899871347 L-24.490385849763857,-10.191338759971144 L-24.521105649496313,-10.293234441203843 L-24.55379909596653,-10.393556174418817 L-24.588448363656262,-10.492245066316224 L-24.625034596706676,-10.589243099066973 L-24.663537912775695,-10.68449313199046 L-24.70393740477784,-10.777938905260616 L-24.746211140550695,-10.86952504563809 L-24.790336160466516,-10.959197074253838 L-24.836288472981796,-11.046901416496647 L-24.88404304809184,-11.132585414084485 L-24.93357380863189,-11.216197339426973 L-24.984853619340484,-11.297686412413542 L-25.03785427357508,-11.377002819789201 L-25.09254647754443,-11.454097737307253 L-25.148899831896323,-11.528923354875536 L-25.206882810473687,-11.601432904940207 L-25.266462736026465,-11.67158069437835 L-25.327605752640814,-11.739322140198116 L-25.390276794621645,-11.80461380937239 L-25.45443955153873,-11.867413463159306 L-25.52005642912099,-11.927680106290383 L-25.587088505657867,-11.985374041434278 L-25.65549560336704,-12.040457022684148 L-25.72524770850368,-12.092900629019578 L-25.796309524134816,-12.142673025415998 L-25.868637238860693,-12.18973818428182 L-25.94218640254201,-12.234062343168096 L-26.016911948275705,-12.275613933298885 L-26.092768212201033,-12.314363516964521 L-26.169708951299377,-12.350283733099149 " />
			<path d="M-26.1697089512994,-12.350283733099158 L-26.278187897780082,-12.395395485593665 L-26.388538165833058,-12.434948915039731 L-26.50063096067709,-12.468889874770143 L-26.61433556815048,-12.497171312291567 L-26.72951939913567,-12.519753185330414 L-26.846048025703112,-12.536602414624447 L-26.963785209683035,-12.547692871857096 L-27.082592924222315,-12.55300540198203 L-27.20233136873237,-12.552527880035885 L-27.322858977482717,-12.546255303387664 L-27.444032421943447,-12.534189921223724 L-27.565706606828638,-12.516341403917824 L-27.687734659641315,-12.492727055786101 L-27.80996791336935,-12.46337207557747 L-27.932255881830237,-12.42830986990027 L-28.054446227011564,-12.387582425636612 L-28.17638471760246,-12.341240748246266 L-28.297915858261675,-12.289345067103394 L-28.418916057569195,-12.231948731716997 L-28.539247538205434,-12.169115926293262 L-28.658756687841034,-12.100926141150541 L-28.777293291949228,-12.027465870469866 L-28.894710403159582,-11.948828203794974 L-29.010864232381763,-11.865112474817105 L-29.12561405950087,-11.776423961336587 L-29.238822161740263,-11.682873630946986 L-29.350353758082072,-11.58457792764129 L-29.460076968429988,-11.48165859519343 L-29.567862786493173,-11.374242533822105 L-29.67358506566453,-11.26246168729772 L-29.777120517460826,-11.146452958306904 L-29.878348722386566,-11.026358150542915 L-29.97715215337777,-10.902323936643901 L-30.073416212276168,-10.774501851754819 L-30.16702928007869,-10.643048313142497 L-30.257882782001342,-10.50812466694714 L-30.345871268691027,-10.369897263807259 L-30.430892515213074,-10.228537565748818 L-30.512847639736652,-10.08422228738311 L-30.591641244134532,-9.937133575111618 L-30.667182116898662,-9.787458129872123 L-30.739401257272124,-9.635348382028338 L-30.808225133863,-9.48097206798224 L-30.873576444492127,-9.324515308136606 L-30.935383216693513,-9.166164496662441 L-30.993578572876867,-9.006106233380793 L-31.048100529323445,-8.844527263053376 L-31.0988918254809,-8.681614421213368 L-31.145899780420862,-8.51755458572192 L-31.189076173721134,-8.352534633290036 L-31.22837714843265,-8.186741400259578 L-31.263763134189272,-8.02036164699128 L-31.295198788916856,-7.853582025261798 L-31.32265295799605,-7.686589048125959 L-31.346098650131427,-7.519569061754444 L-31.365513029577794,-7.352708218811317 L-31.380877424772503,-7.186192452989895 L-31.39217735382095,-7.020207454379623 L-31.399402567680358,-6.854938645390732 L-31.402547112285276,-6.690571157017504 L-31.40160941125626,-6.527289805275219 L-31.3965923712314,-6.365279067699905 L-31.387503512258466,-6.204723059854169 L-31.374355126083607,-6.045805511836502 " />
			<path d="M15.019345657803644,-11.581507905085473 L15.012255449328425,-11.439499037146971 L15.000834358314748,-11.298114415363779 L14.98509126215945,-11.157482102757829 L14.96503889764344,-11.017728630504516 L14.940693736988363,-10.878979042903417 L14.912075882307768,-10.741356933553865 L14.879208976770519,-10.604984473561288 L14.842120130979382,-10.469982432489104 L14.800839863253007,-10.33647019266001 L14.755402052684714,-10.204565757299545 L14.705843904036778,-10.074385752903705 L14.652205923714101,-9.946045426101541 L14.594531906246457,-9.819658635172491 L14.532868930893653,-9.695337836267383 L14.467267368173275,-9.573194064270892 L14.397780896295874,-9.45333690813236 " />
			<path d="M14.397780896295872,-9.453336908132357 L14.33846444871816,-9.357652815519435 L14.276650084225901,-9.263608959881573 L14.212371568908601,-9.171262026509066 L14.14566417797239,-9.08066800737732 L14.076564719231001,-8.991882181651631 L14.005111560366082,-8.90495909376411 L13.931344660229229,-8.81995252885672 L13.855305604493509,-8.736915485363284 L13.777037645997568,-8.655900144482008 L13.696585750160825,-8.576957836269061 L13.613996645883542,-8.500139002062372 L13.529318882381002,-8.425493152923739 L13.442602892436273,-8.353068823766154 L13.353894986114927,-8.282908844148405 L13.263232777318558,-8.215048145753542 L13.170670992243803,-8.149533443330398 L13.076266359079305,-8.086410157764153 L12.980076605361548,-8.025721694403725 L12.882160426111774,-7.967509499441881 L12.78257745532148,-7.911813108638554 L12.681388240534496,-7.858670188963426 L12.578654220293478,-7.808116573674575 L12.474437704238479,-7.760186291290636 L12.368801855665119,-7.7149115888547 L12.261810676369652,-7.672322949828847 L12.15352899362813,-7.632449106898947 L12.044022449176643,-7.595317049910051 L11.93335749007948,-7.560952029093429 L11.821601361391894,-7.529377553687028 L11.708822100543939,-7.500615385991787 L11.595088533391747,-7.474685530847037 L11.480470271902394,-7.451606220448859 L11.365037713458381,-7.431393894376023 L11.248862041787538,-7.4140631746288195 L11.132015229544049,-7.399626835426835 L11.014570042586088,-7.3880957674524135 L10.89660004601541,-7.379478936167267 L10.778179612064065,-7.373783333770408 L10.65938392993325,-7.37101392430629 L10.540289017709117,-7.371173581372765 L10.420971736500253,-7.374263017819159 L10.301509806961283,-7.380280706765498 L10.181981828386984,-7.389222793214619 L10.062467300581059,-7.401082995469618 L9.943039796135654,-7.415853426036819 L9.823753474361695,-7.433527466112755 L9.704685759045155,-7.454094247856957 L9.585915668603445,-7.4775403345504525 L9.467521147243326,-7.503850122584156 L9.349579093381623,-7.533005932121931 L9.232165384631722,-7.564988088472977 L9.115354899611232,-7.599774994894615 L8.999221536802176,-7.637343197492717 L8.883838230671213,-7.677667442833264 L8.76927696523336,-7.720720728824626 L8.655608785218881,-7.766474349376432 L8.542903804978906,-7.814897933287021 L8.431231215241528,-7.8659594777576824 L8.320659287806148,-7.919625376878092 L8.211255378239876,-7.975860445373505 L8.103085926615892,-8.034627937850491 L7.996216456309689,-8.095889563724167 L7.890711570845259,-8.159605497956065 L7.786634948759215,-8.225734387677987 L7.684049336427061,-8.294233354723357 L7.583016538771739,-8.36505799403379 L7.483597407750718,-8.438162367854789 L7.38585182849398,-8.513498995580616 L7.289838702941191,-8.591018839054696 L7.195615930802582,-8.670671283077933 L7.103240387643957,-8.752404110823663 L7.012767899872433,-8.836163473804033 L6.924253216375501,-8.921893855978896 L6.8377499765420815,-9.00953803154438 L6.753310674370336,-9.099037015884605 L6.670985032353469,-9.190331808569757 L6.590807026559948,-9.283379098794692 L6.512820309018615,-9.378123616397051 L6.437070627854896,-9.474505141878563 L6.363601835635835,-9.572462942803027 L6.292455952208909,-9.671935802304407 L6.223673221033084,-9.772862044975739 L6.157292159496538,-9.875179560345105 L6.093349603677753,-9.97882582413222 L6.0318807479689305,-10.083737917466285 L5.972919179942956,-10.189852544233107 L5.916496910807379,-10.297106046706675 L5.862644401751185,-10.405434419607587 L5.811390586452316,-10.514773322718009 L5.762762889976257,-10.625058092170056 L5.716787244258166,-10.736223750511693 L5.67348810032338,-10.848205015641557 L5.632888437363316,-10.96093630869123 L5.595009768746097,-11.074351760920827 L5.559872145003462,-11.188385219680972 L5.52749415379781,-11.302970253481385 L5.497892916835459,-11.418040156193662 L5.471084083654488,-11.533527950402979 L5.447081822177774,-11.649366389910712 L5.42589880588411,-11.765487961377207 L5.407546197412538,-11.881824885081116 L5.3920336283773125,-11.998309114759042 L5.379369175133141,-12.114872336476385 L5.369559330192649,-12.231445966467522 L5.362608968960233,-12.347961147870771 L5.358521311408776,-12.464348746270696 L5.357297878287913,-12.58053934394764 L5.358938773639223,-12.696475761509943 L5.363443618173209,-12.812102033781006 L5.370810567872166,-12.927348649245996 L5.381036044957027,-13.042146736040591 L5.394114787101537,-13.156428056014583 L5.410039890824995,-13.270124990714148 L5.4288028495251375,-13.38317052968036 L5.450393586556787,-13.495498260884991 L5.474800483725369,-13.607042363144453 L5.502010405527805,-13.717737600372793 L5.5320087194367735,-13.827519317554497 L5.564779312487724,-13.936323438337796 L5.600304604391509,-14.044086464169169 L5.638565557358911,-14.150745474909568 L5.6795416827868,-14.256238130892875 L5.72321104491908,-14.360502676407032 L5.769550261559042,-14.463477944598218 L5.818534501873174,-14.56510336381835 L5.870137481289907,-14.66531896545612 L5.924331453460227,-14.764065393311743 L5.981087199210518,-14.861283914595473 " />
			<path d="M5.981087199210534,-14.861283914595498 L6.031083884029044,-14.942300412904906 L6.082872942808247,-15.022146787863313 L6.136434159304144,-15.100788558155886 L6.191746527345415,-15.178191590815254 L6.24878823918957,-15.254322109930172 L6.30753667239264,-15.329146706244218 L6.3679683750974965,-15.40263234770942 L6.430059049636281,-15.474746391064778 L6.493783534332847,-15.545456594515038 L6.559115783381494,-15.614731131590146 L6.6260288446686975,-15.682538606271208 L6.694494835394916,-15.748848069473862 L6.76448491534398,-15.813629036985311 L6.835969257637961,-15.876851508956438 L6.908918214840181,-15.938486980827143 L6.9833128295606945,-15.998516566242188 L7.0591239349662045,-16.056913227472883 L7.1363182761839346,-16.113647968678386 L7.214862056281326,-16.168692855016218 L7.294720952243926,-16.222020983994607 L7.375860129568245,-16.273606459881538 L7.458244255558354,-16.323424370970162 L7.541837511409657,-16.371450769515455 L7.626603603157981,-16.41766265417226 L7.712505771566714,-16.462037954780197 L7.799506801019537,-16.504555519356032 L7.88756902748081,-16.545195103169604 L7.976654345580453,-16.58393735979437 L8.0667242148748,-16.620763834039188 L8.157739665329574,-16.655656956683025 L8.249661302065807,-16.688600040949613 L8.342449309404207,-16.719577280674375 L8.436063454238152,-16.74857375013112 L8.530463088760126,-16.775575405501367 L8.625607152561146,-16.800569087984368 L8.721454174117353,-16.823542528561145 L8.817962271672627,-16.844484354441228 L8.915089153520775,-16.863384097235897 L9.012792117685478,-16.880232202917114 L9.111028050990907,-16.89502004363655 L9.209753427510513,-16.907739931494387 L9.308924306376284,-16.918385134362836 L9.408496328925317,-16.92694989388456 L9.508424715155282,-16.933429445781506 L9.608664259455042,-16.93782004262487 L9.709169325571334,-16.940118979232217 L9.809893840767105,-16.940324620872985 L9.910791289121745,-16.938436434478966 L10.011814703918207,-16.934455023071532 L10.112916659056545,-16.928382163632683 L10.214049259428222,-16.920220848662247 L10.3151641301801,-16.909975331678847 L10.416219223767989,-16.89765027570964 L10.517184987608273,-16.88324916510236 L10.618014003070112,-16.866778284190275 L10.718658203913234,-16.84824521939777 L10.819070072788389,-16.827658679063337 L10.91920262823028,-16.805028452319174 L11.019009412978436,-16.780365371525622 L11.118444483541008,-16.753681278026978 L11.217462400922965,-16.72498899100932 L11.316018222446282,-16.694302279254774 L11.414067494596116,-16.661635835600627 L11.511566246833247,-16.627005253925535 L11.608470986319315,-16.590427008499052 L11.704738693507752,-16.551918435544614 L11.800326818559538,-16.511497716879937 L11.895193278549266,-16.469183865512804 L11.98929645543326,-16.424996713084074 L12.0825951947578,-16.378956899063663 L12.175048805091834,-16.33108586161915 L12.266617058174782,-16.2814058300906 L12.357260189776438,-16.22993981901904 L12.446938901272194,-16.176711623690085 L12.535614361943129,-16.12174581716788 L12.623248212016827,-16.065067748808683 L12.795240019628784,-15.946680106942459 L12.962617029465852,-15.821767056398627 L13.125089811077807,-15.690559535190273 L13.282377045087099,-15.553301289196074 L13.434205836164764,-15.410249215778137 L13.580312100982916,-15.261673836612053 L13.720441054199135,-15.107859902712285 L13.854381675126108,-14.949065401221382 L13.981934825775019,-14.785548885985314 L14.10288665432899,-14.617605891338814 L14.217038670092082,-14.44553573854874 L14.324206961085231,-14.269641194955929 L14.424221549654373,-14.0902281851492 L14.516925868883888,-13.90760554718789 L14.602176345164676,-13.722084827691186 L14.679842074822258,-13.533980110414655 L14.715793156311598,-13.439057561929385 L14.749804585266318,-13.343607873736257 L14.781863468514539,-13.247670960542406 L14.811957673679293,-13.151286873276177 L14.84007582809294,-13.054495796592636 L14.866207318817633,-12.957338046676787 L14.890342293782153,-12.859854069335343 L14.912471664055486,-12.762084438371097 L14.932587107287441,-12.664069854236955 L14.950681072356618,-12.565851142969962 L14.96674678527601,-12.467469255408663 L14.98077825641653,-12.368965266700373 L14.992770289118699,-12.270380376107994 L15.002718489772755,-12.171755907129171 L15.010619279457414,-12.073133307943726 L15.016469907237468,-11.974554152208432 L15.020268465230458,-11.876060140221325 L15.022013905562579,-11.777693100480853 L15.021706059343982,-11.679494991668363 L15.019345657803647,-11.58150790508554 " />
			<path d="M36.7344432251305,-1.911584457655457 L36.69818455086626,-1.619177422360902 L36.667218266481264,-1.319237956437246 L36.64167268533519,-1.012960704372245 L36.62165454512126,-0.7015531769906931 L36.60724994467459,-0.38623483855774365 L36.598524886507434,-0.06823632615194541 L36.595525480932075,0.2512012301099418 L36.59827784285729,0.5708268177945031 L36.606787687569515,0.8893801159979642 L36.621039607034525,1.2055920648757983 L36.64099598348123,1.5181854637944308 L36.66659547225346,1.8258756314240534 L36.697752214367554,2.1273821872334393 L36.73437002067293,2.4215459758480327 L36.776318877346725,2.707111560633115 L36.82344009330118,2.9828323223777145 L36.87555255142374,3.247518421328482 L36.93245368865951,3.500034874179189 L36.99392006523713,3.739300823401595 L37.026289744055724,3.853641954819043 L37.05970757756319,3.9642898828609043 L37.09413980500546,4.071125049690713 L37.129551341711895,4.174031537197008 L37.16590575710975,4.272897174304487 L37.20316524683777,4.367613665990771 L37.241290598468474,4.458076746207844 L37.280241150241025,4.544186357272611 L37.31997474209861,4.625846858656404 L37.36044765821652,4.702967268468638 L37.40161456009949,4.775461541295213 L37.44343305645421,4.84325610674362 L37.48586675543337,4.906291618991727 L37.528868358482185,4.964496819655528 L37.57238990161624,5.017807178355376 L37.61638330757054,5.066165405877975 L37.66080040536492,5.1095211221924846 L37.70559294816442,5.147830571125807 L37.75071262964077,5.181056377102419 L37.79611109902985,5.209167339877251 L37.841739975068435,5.232138263713278 L37.88755085898229,5.249949817978619 L37.93349534668599,5.262588426661088 L37.97952504034373,5.270046184821282 L38.02559155942868,5.2723208005284645 L38.07164655140727,5.269415561346597 " />
			<path d="M38.07164655140728,5.269415561346597 L38.10701186739524,5.26366618984313 L38.14231989202904,5.254867259344158 L38.17754871682261,5.243026995252274 L38.21267645576717,5.228155597701909 L38.24768124808025,5.210265262262443 L38.282541260976224,5.189370206481284 L38.31723469246749,5.165486702632729 L38.35173977420332,5.138633117102156 L38.38603477435281,5.108829956898939 L38.42009800053629,5.076099923855257 L38.45390780280852,5.040467977131748 L38.48744257669559,5.001961404714761 L38.55361842472712,4.9164212598433865 L38.61847928628745,4.819696437698703 L38.6818678237691,4.71204688792057 L38.7436329676883,4.593755742429454 L38.8036296476005,4.4651277108822125 L38.86171857718641,4.326487807720979 L38.917766096044545,4.178180349670451 L38.97164406093646,4.020568185063345 L39.0232297812083,3.854032124817894 L39.07240599508992,3.678970553335444 L39.119060885550496,3.4957992060303775 L39.163088136366845,3.3049511086487176 L39.20438703103856,3.106876681975966 L39.24286259916124,2.9020440239788745 L39.27842581684715,2.6909393898699863 L39.31099437409332,2.4740643318102644 L39.34050085359017,2.251871223440116 L39.36687688892917,2.0248634143122626 L39.39005834296855,1.793576842893719 L39.409989172554475,1.5585527826820855 L39.42662111372225,1.320337536822802 L39.43991345378713,1.079482175022249 L39.4498328788222,0.8365423059979158 L39.456353388071655,0.592077879131857 L39.45945626989852,0.346653009418731 L39.459130136916706,0.10083582022478099 L39.45537102100795,-0.1448017012009042 L39.448182531974986,-0.3896838400964113 L39.43757608663312,-0.6332312866468497 L39.42357121819311,-0.8748612683175234 L39.406195978838895,-1.113987685418858 L39.38548745145475,-1.350021252836536 L39.361489922795855,-1.5823918503475933 L39.33424818990109,-1.8105933269402898 L39.303823731685036,-2.0340384457631786 L39.270287591493954,-2.2521493529757364 L39.23371877382025,-2.4643681368990507 L39.19420385892044,-2.6701561163395278 L39.15183671499164,-2.868993393724864 L39.10671829554962,-3.0603786430642224 L39.05895651300813,-3.243829113810164 L39.008666182816306,-3.4188808427654998 L38.95596903586798,-3.5850890772438575 L38.900993800253424,-3.742028923758375 L38.84387635678137,-3.8892962475785584 L38.784759976055774,-4.026508859560925 L38.72379564824897,-4.1533080377247416 L38.6611425200697,-4.2693604421097096 L38.59695945984312,-4.374374285157453 L38.53138935744619,-4.4681151306972735 L38.49813738608706,-4.510679874546642 L38.46460304011372,-4.550336778136255 L38.43080800861057,-4.58706089614471 L38.39677398333007,-4.62082965710633 L38.36252265470631,-4.651622789032104 L38.32807570820306,-4.679422253646432 L38.29345482096554,-4.704212188586999 L38.2586816587465,-4.725978856978125 L38.22377787307811,-4.744710603850967 L38.18876509866304,-4.760397818947018 L38.15366495095866,-4.77303290550436 L38.11849902393016,-4.78261025468919 L38.08328888794952,-4.789126225398147 L38.04805608781811,-4.792579129220047 L38.01282214089278,-4.792969220408642 L37.97760853529578,-4.790298690781062 " />
			<path d="M37.97760853529576,-4.790298690781062 L37.928439634087354,-4.781439634776648 L37.87941104175243,-4.766621252325025 L37.83058119726751,-4.745868699970037 L37.78200839740017,-4.7192147205688615 L37.73375078803123,-4.68669978361911 L37.68586635534905,-4.648372271846542 L37.638412916825736,-4.6042887186955745 L37.59144811190412,-4.554514102286787 L37.54502938982014,-4.49912219914482 L37.49920442409902,-4.438182611262566 L37.45401946907751,-4.37176739998597 L37.40952758464333,-4.299964308404642 L37.36578025567478,-4.222866860463071 L37.32282745803312,-4.140574045218926 L37.28071771505455,-4.053190044122609 L37.23949814551361,-3.960823996718535 L37.199214503914185,-3.8635898006420963 L37.15991121384846,-3.7616059422597665 L37.1216313950477,-3.654995354773182 L37.08441688463355,-3.5438853010815614 L37.048308252961846,-3.4284072791702624 L37.01334481433564,-3.3086969482667374 L36.97956463274765,-3.1848940744785934 L36.94700452269688,-3.0571424951019632 L36.91570004500783,-2.9255901012618084 L36.885685497465,-2.7903888390192555 L36.8296569737279,-2.509667909507479 L36.77916735645051,-2.2162776575881313 L36.73444322513051,-1.9115844576555197 " />
			<path d="M16.271908995514316,36.840507213818505 L15.754366686741431,37.06660874070413 L15.233683627527556,37.28538052516836 L14.709963619926738,37.4967789534231 L14.18331107143135,37.70076188161391 L13.653830974157687,37.89728864422157 L13.121628883914976,38.08632006216916 L12.586810899162094,38.267818450632646 L12.049483639855984,38.441747626553656 L11.509754226196199,38.608072915852816 L10.967730257269714,38.76676116034231 L10.423519789600197,38.91778072433622 L9.877231315606181,39.06110150095729 L9.328973741972257,39.19669491813902 L8.778856367937719,39.32453394432167 L8.226988863506971,39.44459309384122 L7.6734812475859595,39.55684843201014 L7.118443866049104,39.66127757988893 L6.561987369741015,39.75785971874754 L6.00422269241742,39.84657559421573 L5.445261028629705,39.927407520121584 L4.885213811557435,40.00033938201737 L4.32419269079333,40.06535664039209 L3.762309510085073,40.12244633357001 L3.199676285038427,40.17159708029471 L2.6364051807861095,40.21279908199797 L2.0726084896268056,40.246044124753254 L1.508398608638874,40.27132558091315 L0.943888017273153,40.288638410430664 L0.37918925492933653,40.29797916186404 L-0.18558510147959595,40.29934597306475 L-0.7503224599704108,40.29273857154879 L-1.314910235935704,40.27815827455096 L-1.879235874588451,40.25560798876229 L-2.443186873400659,40.22509220975056 L-3.0066508045315867,40.186617021064066 L-3.5695153372410697,40.14019009301886 L-4.131668260283492,40.08582068116954 L-4.692997504277935,40.023519624464164 L-5.253391164050049,39.95329934308337 L-5.8127375209411785,39.87517383596436 L-6.370925065080311,39.78915867801007 L-6.927842517614415,39.695271016984236 L-7.4833788528926934,39.593529570092805 L-8.037423320600384,39.48395462025261 L-8.589865467837658,39.36656801204771 L-9.140595161139228,39.24139314737458 L-9.68950260843029,39.108454980776756 L-10.236478380914377,38.96778001446996 L-10.781413434888805,38.81939629305867 L-11.324199133483374,38.66333339794523 L-11.8647272683179,38.49962244143258 L-12.402890081074395,38.328296060521765 L-12.938580284979489,38.149388410405564 L-13.471691086192829,37.962935157659324 L-14.002116205097234,37.76897347313059 L-14.529749897486361,37.56754202452885 L-15.054486975645556,37.358680968716776 L-15.576222829321836,37.14243194370472 L-16.094853446578718,36.91883806034983 L-16.61027543453179,36.68794389376157 L-17.122386039960812,36.44979547441536 L-17.631083169794387,36.204440278976044 L-18.13626541146295,35.9519272208331 L-18.63783205311612,35.692306640349315 L-19.135683103700377,35.425630294825126 L-19.629719312892995,35.1519513481804 L-20.119842190888367,34.87132436035579 L-20.60595402803266,34.58380527643582 L-21.08795791430297,34.2894514154958 L-21.565757758627072,33.98832145917487 L-22.039258308039866,33.68047543997734 L-22.50836516667279,33.36597472930481 L-22.972984814572325,33.04488202522125 L-23.43302462634391,32.71726133995375 L-23.888392889617496,32.38317798713117 L-24.33899882333109,32.04269856876336 L-24.78475259582865,31.695890961963606 L-25.225565342768668,31.34282430541675 L-25.661349184839988,30.98356898559596 L-26.09201724528115,30.618196622730586 L-26.51748366719995,30.246780056528173 L-26.937663630689656,29.869393331653313 L-27.352473369738462,29.48611168296629 L-27.761830188928908,29.09701152052446 L-28.165652479923786,28.702170414349297 L-28.56385973773541,28.301667078962268 L-28.95637257677485,27.89558135769252 L-29.343112746678067,27.483994206759437 L-29.7240031479057,27.06698767913351 L-30.09896784711345,26.64464490817842 L-30.4679320922899,26.217050091077756 L-30.83082232765897,25.784288472049735 L-31.187566208343767,25.346446325353078 L-31.53809261478905,24.903610938087635 L-31.882331666939493,24.45587059279302 L-32.22021473817078,24.003314549848838 L-32.551674468970816,23.546033029679975 L-32.87664478036837,23.084117194770457 L-33.1950608871064,22.61765913148955 L-33.50685931055749,22.146751831733646 L-33.81197789137877,21.671489174387638 L-34.11035580190385,21.19196590660946 L-34.40193355826929,20.708277624941523 L-34.686653032273114,20.220520756252867 L-34.96445746296315,19.72879253851571 L-35.2352914679527,19.23319100142033 L-35.49910105446146,18.73381494683214 L-35.75583363007938,18.23076392909481 L-36.005438013251336,17.724138235183297 L-36.24786444348061,17.21403886471096 L-36.48306459124893,16.700567509794503 L-36.710991567651405,16.183826534780906 L-36.9315999337441,15.663918955840293 L-37.14484570960273,15.140948420428945 L-37.35068638309025,14.615019186626345 L-37.549080918332095,14.086236102350618 L-37.739989763896915,13.554704584456253 L-37.92337486068148,13.020530597718508 L-38.099199649498004,12.483820633708522 L-38.26742907836257,11.944681689563433 L-38.428029609482905,11.403221246655692 L-38.580969225944486,10.859547249165862 L-38.72621743809327,10.313768082563143 L-38.86374528961409,9.765992551997892 L-38.99352536330328,9.216329860610518 L-39.115531786534525,8.664889587761047 L-39.229740236416745,8.111781667183626 L-39.33612794464303,7.557116365070417 L-39.43467370202972,7.001004258089221 L-39.52535786274456,6.443556211339192 L-39.60816234822329,5.884883356249038 L-39.683070650773686,5.32509706842216 L-39.75006783686656,4.764308945433074 L-39.80914055011282,4.202630784579638 L-39.860277013926186,3.640174560595364 L-39.903467033870925,3.077052403326485 L-39.9387019996942,2.513376575378004 L-39.96597488704262,1.9492594497332814 L-39.9852802588625,1.3848134873516926 L-39.9966142664839,0.820151214748666 L-39.99997465038781,0.2553852015626745 L-39.99536074065662,-0.3093719618863364 L-39.98277345710767,-0.8740076870426865 L-39.96221530910986,-1.4384094095603288 L-39.93369039508346,-2.002464611743381 L-39.89720440168296,-2.566060844977388 L-39.852764602663484,-3.129085752146766 L-39.800379857430634,-3.6914270900340593 L-39.740060609274366,-4.252972751696442 L-39.67181888328699,-4.813610788815083 L-39.59566828396591,-5.373229434012883 L-39.51162399250147,-5.931717123136126 L-39.41970276375045,-6.488962517495631 L-39.31992292289587,-7.044854526062956 L-39.21230436179373,-7.599282327617213 L-39.096868535007395,-8.152135392838105 L-38.97363845553051,-8.703303506340783 L-38.84263869019918,-9.252676788648099 L-38.70389535479436,-9.800145718095905 L-38.557436108835475,-10.345601152666994 L-38.40329015006634,-10.888934351749402 L-38.24148820863431,-11.430036997814643 L-38.07206254096407,-11.968801218011635 L-37.89504692332697,-12.50511960567193 L-37.71047664510758,-13.03888524172206 L-37.518388501768456,-13.569991715998643 L-37.318820787514625,-14.098333148462045 L-37.111813287659416,-14.623804210304346 L-36.897407270692966,-15.146300144947444 L-36.675645480055024,-15.665716788927046 L-36.44657212561368,-16.181950592658428 L-36.210232874851876,-16.694898641079835 L-35.966674843763194,-17.204458674169352 L-35.71594658745899,-17.7105291073312 L-35.45809809048847,-18.213009051647415 L-35.19318075687401,-18.711798333990757 L-34.921247399863304,-19.206797516995003 L-34.6423522314007,-19.697907918878528 L-34.356550851319604,-20.18503163311724 L-34.06390023625825,-20.668071547962988 L-33.764458728300966,-21.146931365803546 L-33.45828602334734,-21.62151562236012 L-33.14544315921123,-22.09172970571907 L-32.82599250345257,-22.557479875193376 L-32.49999774094383,-23.018673280010546 L-32.167523861174054,-23.475217977823156 L-31.82863714529262,-23.92702295303821 L-31.48340515289567,-24.37399813496178 L-31.13189670855757,-24.816054415755296 L-30.77418188811026,-25.253103668199827 L-30.410332004673023,-25.685058763264916 L-30.040419594435775,-26.111833587478404 L-29.664518402198404,-26.533343060093785 L-29.28270336666916,-26.94950315005171 L-28.895050605525114,-27.36023089273216 L-28.50163740023751,-27.76544440649411 L-28.102542180665104,-28.165062908999232 L-27.697844509418626,-28.559006733316433 L-27.287625065999364,-28.947197343804074 L-26.871965630715092,-29.329557351766645 L-26.450949068376563,-29.706010530882764 L-26.024659311777803,-30.076481832401456 L-25.593181344963472,-30.440897400103694 L-25.156601186286636,-30.799184585026193 L-24.715005871260413,-31.15127195994451 L-24.268483435206765,-31.497089333612607 L-23.817122895706007,-31.83656776475597 L-23.361014234850472,-32.169639575815616 L-22.900248381305946,-32.49623836644008 L-22.434917192184315,-32.81629902672283 L-21.965113434731204,-33.12975775018243 L-21.49093076783211,-33.4365520464828 L-21.012463723340804,-33.73662075389118 L-20.529807687233713,-34.029904051471135 L-20.043058880594018,-34.31634347100833 L-19.552314340429227,-34.595881908666605 L-19.057671900326177,-34.868463636372034 L-18.559230170947124,-35.13403431292275 L-18.057088520371025,-35.39254099482225 L-17.551347054283724,-35.6439321468341 L-17.04210659602115,-35.888157652255856 L-16.529468666469466,-36.12516882291019 L-16.01353546382606,-36.354918408851276 L-15.49440984322563,-36.577360607784385 L-14.972195296235205,-36.792451074196926 L-14.44699593022235,-37.00014692819906 L-13.918916447600584,-37.20040676407213 L-13.388062124956166,-37.39319065852318 L-12.854538792060415,-37.57846017864399 L-12.31845281077178,-37.75617838957292 L-11.77991105383179,-37.926309861858215 L-11.239020883559162,-38.088820678521074 L-10.695890130446356,-38.243678441817266 L-10.150627071662745,-38.39085227969588 L-9.603340409468743,-38.530312851953866 L-9.054139249545207,-38.66203235608527 L-8.503133079242406,-38.785984532823846 L-7.95043174575293,-38.90214467137801 L-7.396145434212746,-39.01048961435717 L-6.840384645735064,-39.1109977623883 L-6.28326017538107,-39.203649078421925 L-5.724883090072108,-39.28842509172669 L-5.165364706447667,-39.36530890157159 L-4.604816568673558,-39.434285180595296 L-4.043350426204775,-39.49534017786179 L-3.481078211507416,-39.54846172160166 L-2.918112017744072,-39.59363922163869 L-2.3545640764272573,-39.63086367150105 L-1.7905467350451811,-39.66012765021683 L-1.226172434664484,-39.68142532379346 L-0.6615536875142265,-39.69475244638076 L-0.09680305455577454,-39.70010636111736 L0.46796687695709593,-39.69748600066041 L1.0326435159233043,-39.686891887398325 L1.5971142898403148,-39.66832613334664 L2.1612666672463465,-39.64179243972701 L2.724988180154334,-39.60729609622929 L3.2881664464732534,-39.56484397995702 L3.850689192412357,-39.514444554056425 L4.412444274863775,-39.456107866029235 L4.973319703759076,-39.3898455457296 L5.533203664395339,-39.315670803045634 L6.091984539726235,-39.2335984252659 L6.6495509326137245,-39.14364477413148 L7.205791688035909,-39.0458277825741 L7.760595915246615,-38.9401669511411 L8.313853009882283,-38.82668334410785 L8.865452676011785,-38.705399585278386 L9.415284948124738,-38.57633985347529 L9.963240213053936,-38.43952987771931 L10.50920923182758,-38.29499693210025 L11.053083161446857,-38.14276983033954 L11.594753576584619,-37.98287892004609 L12.134112491200764,-37.815356076666234 L12.67105238007009,-37.64023469712914 L13.205466200218222,-37.45754969318885 L13.737247412261432,-37.2673374844644 L14.266290001646082,-37.06963599117928 L14.792488499783389,-36.86448462660176 L15.315738005075389,-36.65192428918751 L15.835934203827856,-36.4319973544263 L16.35297339104601,-36.20474766639401 L16.866752491108887,-35.97022052901209 L17.377169078318218,-35.72846269701577 L17.884121397317777,-35.479522366633276 L18.387508383379064,-35.22344916597745 L18.8872296825493,-34.960294145152105 L19.38318567165776,-34.69010976607472 L19.875277478176375,-34.41294989201785 L20.363406999930714,-34.12886977687097 L20.8474769246574,-33.83792605412535 L21.327390749403996,-33.540176725583585 L21.803052799767652,-33.23568114979663 L22.274368248968436,-32.92450003023017 L22.741243136753845,-32.60669540316293 L23.203584388130384,-32.28233062531929 L23.661299831918857,-31.951470361238663 L24.114298219129317,-31.614180570384118 L24.562489241152257,-31.270528493992877 L25.00578354776229,-30.920582641671245 L25.444092764930815,-30.56441277773678 L25.877329512443993,-30.202089907310167 L26.305407421322688,-29.833686262159873 L26.728241151040745,-29.4592752863022 L27.145746406538265,-29.07893162135965 L27.557839955026452,-28.69273109168058 L27.964439642580693,-28.30075068922304 L28.36546441051857,-27.90306855820588 L28.76083431155947,-27.49976397953005 L29.150470525762735,-27.09091735497345 L29.534295376240955,-26.676610191162165 L29.91223234464546,-26.25692508332154 L30.2842060864208,-25.831945698810202 L30.650142445825274,-25.401756760440353 L31.009968470714426,-24.966444029587638 L31.363612427084576,-24.52609428909396 L31.71100381337354,-24.080795325966708 L32.05207337451567,-23.630635913877725 L32.38675311574833,-23.175705795465653 L32.71497631616717,-22.716095664445028 L33.036677542027434,-22.251897147525828 L33.3517926597887,-21.78320278614703 L33.660258848900334,-21.31010601802773 L33.96201461432524,-20.83270115853968 L34.2569997987994,-20.351083381904793 L34.54515559482463,-19.86534870222149 L34.826424556392276,-19.375593954323485 L35.10075061043557,-18.881916774475137 L35.36807906800817,-18.38441558090689 L35.62835663518682,-17.883189554194843 L35.88153142369587,-17.37833861748839 L36.127552961251624,-16.869963416589798 L36.366372201624365,-16.358165299889706 L36.59794153441606,-15.843046298162545 L36.82221479455186,-15.32470910422597 L37.03914727148346,-14.803257052468282 L37.24869571810248,-14.278794098247936 L37.4508183593621,-13.751424797169259 L37.64547490060521,-13.221254284238508 L37.832626535597456,-12.688388252904451 L38.01223595426357,-12.152932933987554 L38.184267350125424,-11.614995074502092 L38.34868642744025,-11.074681916375317 L38.50546040803781,-10.532101175068027 L38.65455803785499,-9.987361018100616 L38.79594959316646,-9.440570043489123 L38.929606886510385,-8.891837258095396 L39.05550327230776,-8.341272055895748 L39.17361365217441,-7.788984196172459 L39.28391447992462,-7.235083781632444 L39.386383766265084,-6.679681236457457 L39.48100108317881,-6.122887284290204 L39.567747567997465,-5.564812926160764 L39.646605927161865,-5.0055694183577 L39.717560439669526,-4.445268250248281 L39.78059696020882,-3.884021122052257 L39.83570292197887,-3.321939922573593 L39.88286733919493,-2.7591367068945676 L39.9220808092784,-2.1957236740367954 L39.95333551473134,-1.6318131445934938 L39.97662522469494,-1.0675175383375226 L39.991945296191716,-0.5029493518097006 L39.999292675051045,0.06177886410825728 L39.99866589651812,0.6265545266315726 L39.99006508554593,1.1912650435166423 L39.97349195677033,1.7557978355071224 L39.94894981416823,2.3200403587774616 L39.916443550398945,2.883880127369336 L39.875979645828764,3.447204735616584 L39.82756616723907,4.009901880554095 L39.771212766218156,4.571859384306251 L39.706930677237146,5.132965216450437 L39.63473271541021,5.693107516351107 L39.55463327393995,6.252174615460094 L39.4666483212478,6.810055059578488 L39.37079539779082,7.366637631075953 L39.26709361256469,7.92181137106272 L39.15556363929428,8.475465601510102 L39.0362277123122,9.027489947314983 L38.90910962212615,9.577774358303909 L38.7742347106762,10.126209131172432 L38.631629866282594,10.672684931355253 L38.48132351828541,11.217092814822905 L38.32334563137697,11.75932424980056 L38.15772769962808,12.299271138404617 L37.98450274020961,12.836825838192874 L37.80370528681004,13.371881183623808 L37.61537138275117,13.904330507420845 L37.419538573802406,14.434067661837275 L37.21624590069584,14.960987039817596 L37.005533891343156,15.484983596051064 L36.7874445527561,16.005952867913273 L36.56202136267208,16.523790996291552 L36.329309260886475,17.038394746290045 L36.089354640293706,17.549661527810375 L35.84220533763828,18.057489416003726 L35.58791062397835,18.56177717159035 L35.326521194863034,19.062424261042338 L35.05808916022594,19.55933087662576 L34.78266803399666,20.052397956298066 L34.50031272343235,20.541527203456845 L34.21107951817157,21.026621106535988 L33.915026079012534,21.50758295844535 L33.61221142641796,21.984316875850027 L33.302695928748946,22.456727818285405 L32.98654129023007,22.92472160710421 L32.66381053864819,23.3882049442517 L32.33456801278738,23.84708543086534 L31.998879349602504,24.3012715856952 L31.65681147113405,24.750672863341435 L31.308432571166655,25.19519967230518 L30.953812101634202,25.634763392849266 L30.593020758774045,26.069276394665263 L30.22613046903322,26.49865205434321 L29.85321437472931,26.92280477264064 L29.474346819469034,27.34164999154743 L29.08960333332726,27.755104211143095 L28.699060617789556,28.163085006243072 L28.302796530461105,28.565511042830835 L27.90089006954532,28.962302094272424 L27.493421358094857,29.353379057310235 L27.08047162803854,29.738663967832828 L26.66212320398718,30.11808001641765 L26.238459486821498,30.491551563643597 L25.809564937065606,30.85900415517027 L25.3755250580491,31.22036453658101 L24.936426378861377,31.57556066798672 L24.49235643710143,31.924521738387547 L24.043403761426507,32.26717817978959 L23.589657853903343,32.60346168107378 L23.131209172165185,32.93330520161424 L22.668149111378444,33.25664298464332 L22.200569986022348,33.57341057036069 L21.728565011485394,33.8835448087839 L21.25222828548211,34.186983872337784 L20.77165476929406,34.48366726818028 L20.2869402688385,34.77353585026205 L19.798181415568855,35.056531831117816 L19.30547564721043,35.332598793386595 L18.808921188335525,35.60168170105901 L18.30861703078164,35.86372691044905 L17.804662913916665,36.11868218088844 L17.297159304755127,36.366496685141094 L16.786207377929337,36.60712101953602 L16.271908995519482,36.840507213816196 " />

        </g>
        </g>
    </svg>
    