<?xml version="1.0" encoding="UTF-8" standalone="no"?>
    <svg
    xmlns:svg="http://www.w3.org/2000/svg"
    xmlns="http://www.w3.org/2000/svg"
    width="500.0"
    height="220.0"
    >
        <g transform="scale(3.121697841634132, -3.121697841634132)   translate(52.805318305111115,-29.582481296428544)" stroke-width="0.3203384987050908"  fill="none">
        <!-- hidden lines -->
        <g  stroke="rgb(160,160,160)" fill="none" stroke-dasharray="0.3203384987050908,0.3203384987050908" >
    			<path d="M-49.601933318060205,-7.682500378799733 L6.9226031891318325,17.415510245827928 " />
			<path d="M6.9226031891318325,17.415510245827928 L6.9226031891318325,26.379096309377637 " />
			<path d="M49.38198889611071,-1.3787453523346906 L6.922603189131837,17.415510245827928 " />
			<path d="M-3.04660227070987,-10.54042729679339 L-3.4913588067258026,-10.400569679785942 L-4.043897163276766,-10.324355170031577 L-4.678361137243561,-10.315350249063155 L-5.365060790926481,-10.373976304939758 L-6.071861801853615,-10.497489913262239 L-6.765689198329854,-10.680111216565672 L-7.414075112956933,-10.913294394535281 L-7.986678126520312,-11.186127568308578 L-8.456703104076286,-11.48584342521831 L-8.802155081570875,-11.798416669133587 L-9.006868526978781,-12.109220338525892 L-9.06126381136938,-12.403710279653284 L-8.962795490602451,-12.668105744728619 L-8.716071420173222,-12.89003426627026 " />
			<path d="M-8.716071420173217,-12.890034266270264 L-8.316804141301311,-13.064008347391699 L-7.791064019285546,-13.172624164489703 L-7.1652138591433445,-13.210435266954832 L-6.470636401226898,-13.175545648224075 L-5.742160659579005,-13.069704819466946 L-5.016315449735664,-12.898220081790141 L-4.329497681384046,-12.669690395998675 L-3.716147265330525,-12.395575194794988 L-3.2070201525643074,-12.089619758972827 L-2.827646102449155,-11.76716597164295 L-2.59704851398591,-11.44438301215182 L-2.526790513151786,-11.13745656591258 L-2.6203951294804693,-10.86177720655288 L-2.873168636650389,-10.631168648287778 " />
			<path d="M-2.8731686366503992,-10.631168648287769 L-2.8844669861995818,-10.624244335760721 L-2.895935787704423,-10.617386581346215 L-2.9075743694203067,-10.610595786713038 L-2.9193820496583345,-10.603872349608046 L-2.9313581368252604,-10.597216663832869 L-2.943501929463998,-10.590629119220837 L-2.9558127162947003,-10.584110101614153 L-2.9682897762564284,-10.577659992841294 L-2.9809323785493773,-10.571279170694641 L-2.993739782677685,-10.564968008908362 L-3.006711238492804,-10.558726877136507 L-3.0198459862374363,-10.55255614093137 L-3.033143256590035,-10.546456161722073 L-3.0466022707098537,-10.540427296793396 " />
			<path d="M18.937539790910098,-0.7790340129111297 L18.492783254893997,-0.6391763959036485 L17.940244898342808,-0.56296188614929 L17.305780924375746,-0.5539569651809231 L16.619081270692558,-0.61258302105762 L15.912280259765186,-0.7360966293802362 L15.218452863288771,-0.9187179326838297 L14.570066948661609,-1.1519011106536143 L13.997463935098263,-1.4247342844270863 L13.527438957542456,-1.7244501413369724 L13.181986980048174,-2.03702338525237 L12.977273534640709,-2.3478270546447475 L12.922878250250676,-2.6423169957721466 L13.021346571018269,-2.906712460847418 L13.268070641448208,-3.1286409823889096 " />
			<path d="M13.268070641448219,-3.1286409823889185 L13.667337920320621,-3.3026150635100398 L14.193078042336717,-3.4112308806077363 L14.818928202479087,-3.44904198307258 L15.513505660395543,-3.4141523643415725 L16.2419814020433,-3.308311535584243 L16.96782661188639,-3.1368267979072932 L17.654644380237674,-2.90829711211574 L18.26799479629081,-2.634181910912024 L18.77712190905663,-2.328226475089886 L19.156495959171398,-2.0057726877600723 L19.387093547634308,-1.6829897282690394 L19.457351548468164,-1.3760632820299135 L19.363746932139303,-1.1003839226703338 L19.1109734249693,-0.8697753644053452 " />
			<path d="M19.110973424969277,-0.869775364405327 L19.099675075420112,-0.8628510518782959 L19.088206273915286,-0.855993297463804 L19.076567692199422,-0.8492025028306407 L19.06476001196141,-0.8424790657256631 L19.052783924794504,-0.835823379950499 L19.040640132155787,-0.8292358353384799 L19.028329345325105,-0.8227168177318092 L19.0158522853634,-0.8162667089589619 L19.003209683070473,-0.8098858868123235 L18.990402278942184,-0.8035747250260563 L18.97743082312709,-0.7973335932542138 L18.964296075382478,-0.791162857049089 L18.950998805029904,-0.7850628778398021 L18.937539790910133,-0.7790340129111442 " />
			<path d="M-13.661448697454588,-5.841863397252734 L-14.106205233470606,-5.702005780245269 L-14.658743590021684,-5.625791270490907 L-15.293207563988613,-5.616786349522514 L-15.979907217671666,-5.675412405399164 L-16.68670822859892,-5.798926013721713 L-17.38053562507525,-5.9815473170252265 L-18.028921539702367,-6.214730494994924 L-18.60152455326573,-6.487563668768308 L-19.07154953082162,-6.787279525678118 L-19.417001508316055,-7.099852769593454 L-19.62171495372374,-7.4106564389857965 L-19.676110238114056,-7.705146380113192 L-19.577641917346796,-7.969541845188495 L-19.330917846917202,-8.191470366730064 " />
			<path d="M-19.3309178469172,-8.19147036673007 L-18.931650568045058,-8.365444447851342 L-18.40591044602915,-8.474060264949191 L-17.780060285886886,-8.51187136741418 L-17.085482827970466,-8.476981748683306 L-16.357007086322664,-8.371140919926091 L-15.63116187647947,-8.199656182249228 L-14.94434410812803,-7.971126496457736 L-14.330993692074703,-7.697011295254054 L-13.821866579308669,-7.391055859431921 L-13.442492529193679,-7.068602072102087 L-13.21189494073056,-6.7458191126110165 L-13.14163693989651,-6.438892666371833 L-13.235241556225215,-6.163213307012188 L-13.488015063395107,-5.9326047487471225 " />
			<path d="M-13.488015063395117,-5.932604748747114 L-13.499313412944302,-5.925680436220068 L-13.510782214449144,-5.918822681805561 L-13.522420796165026,-5.912031887172384 L-13.534228476403054,-5.905308450067393 L-13.546204563569981,-5.898652764292215 L-13.558348356208716,-5.892065219680183 L-13.57065914303942,-5.885546202073499 L-13.583136203001148,-5.879096093300639 L-13.595778805294096,-5.872715271153988 L-13.608586209422404,-5.866404109367708 L-13.621557665237523,-5.860162977595853 L-13.634692412982155,-5.853992241390717 L-13.647989683334753,-5.847892262181419 L-13.661448697454572,-5.841863397252741 " />
			<path d="M8.32269336416538,3.9195298866295243 L7.877936828149279,4.059387503637005 L7.325398471598088,4.135602013391365 L6.690934497631028,4.144606934359732 L6.004234843947845,4.085980878483035 L5.297433833020474,3.9624672701604204 L4.6036064365440605,3.7798459668568274 L3.955220521916901,3.546662788887044 L3.382617508353556,3.2738296151135744 L2.912592530797748,2.974113758203689 L2.5671405533034664,2.661540514288294 L2.3624271078959964,2.350736844895917 L2.3080318235059565,2.0562469037685185 L2.4065001442735414,1.7918514386932465 L2.65322421470349,1.569922917151746 " />
			<path d="M2.6532242147035,1.5699229171517368 L3.0524914935758796,1.3959488360306214 L3.5782316155919487,1.2873330189329248 L4.204081775734286,1.2495219164680744 L4.898659233650703,1.2844115351990704 L5.62713497529843,1.3902523639563826 L6.352980185141497,1.5617371016333115 L7.039797953492769,1.7902667874248426 L7.653148369545908,2.0643819886285355 L8.162275482311747,2.3703374244506534 L8.541649532426556,2.6927912117804516 L8.772247120889523,3.0155741712714734 L8.842505121723454,3.322500617510599 L8.748900505394674,3.5981799768701865 L8.496126998224776,3.828788535135185 " />
			<path d="M8.496126998224756,3.828788535135203 L8.48482864867558,3.8357128476622453 L8.47335984717074,3.842570602076748 L8.46172126545486,3.84936139670992 L8.449913585216839,3.856084833814908 L8.437937498049918,3.8627405195900835 L8.425793705411184,3.8693280642021115 L8.413482918580486,3.875847081808793 L8.401005858618763,3.8822971905816495 L8.38836325632582,3.8886780127282954 L8.375555852197516,3.8949891745145724 L8.362584396382402,3.9012303062864238 L8.349449648637776,3.907401042491559 L8.336152378285183,3.913501021700853 L8.322693364165413,3.91952988662951 " />
			<path d="M10.874524707100353,4.223959655365512 L10.967627806561783,4.178841326600242 L11.057205883020824,4.127480327084928 " />
			<path d="M11.057205883020831,4.127480327084924 L11.135970146137804,4.075064194909876 L11.21136925073071,4.017656728522052 L11.2832215537524,3.9553962275362773 L11.351353956711378,3.888432682952806 L11.415602322681222,3.8169274158158517 L11.475811871720818,3.741052688577069 L11.531837553752796,3.660991290100218 L11.583544398001873,3.5769360953067784 L11.630807838151267,3.4890896005233736 L11.673514012433866,3.397663435650383 L11.71156003793521,3.3028778543269697 L11.744854258447424,3.204961203320779 L11.773316465277066,3.10414937242057 L11.79687809047489,3.0006852261570547 L11.815482372022036,2.8948180187209704 L11.829084490574719,2.7868027934879054 L11.837651677437938,2.6768997685964595 L11.841163293508142,2.5653737100599656 L11.83961087899464,2.452493293921968 L11.832998173799965,2.3385304589920985 L11.821341108510142,2.2237597517216696 L11.804667766016486,2.108457664797221 L11.783018313861483,1.9929019710454252 L11.756444907471636,1.8773710542540127 L11.725011564510499,1.7621432385208473 L11.688794010654497,1.6474961177467955 L11.647879497163157,1.533705886887703 L11.602366590683163,1.4210466765765548 L11.552364935792685,1.3097898927187734 L11.497994990857986,1.2002035626516183 L11.439387737838658,1.0925516894428478 L11.376684366740609,0.9870936158842121 L11.310035935476984,0.8840833997119502 L11.239603005956411,0.7837692015594506 L11.165555257275301,0.6863926871165487 L11.088071076946038,0.5921884449357113 L11.007337131145855,0.5013834212876704 L10.923547915021642,0.414196373427977 L10.836905284134108,0.33083734259160624 L10.74761796817006,0.2515071479852322 L10.655901068094302,0.17639690299616584 L10.561975537952568,0.10568755478346636 L10.466067652573873,0.03954944836038554 L10.368408462454633,-0.02185808378168952 L10.26923323713778,-0.07838710551916428 L10.168780898427828,-0.12990143348731475 L10.067293444807312,-0.17627696515794433 L9.965015368441255,-0.21740197781324255 L9.862193066174127,-0.25317739769559466 L9.759074245938258,-0.2835170386849484 L9.65590733000374,-0.30834780992872224 L9.552940856507412,-0.3276098919240704 L9.450422880702725,-0.34125688062830806 L9.348600377372906,-0.349255899250311 L9.247718645847073,-0.3515876774535873 L9.148020719052672,-0.34824659778020584 L9.049746778027854,-0.3392407091837444 L8.953133573304331,-0.3245917076386542 L8.858413854554598,-0.30433488387275753 L8.765815809877589,-0.278519038348795 L8.675562516073562,-0.2472063636998354 L8.587871401232551,-0.21047229490177477 L8.502953720931037,-0.1684053275438715 L8.421014049298794,-0.12110680463513068 " />
			<path d="M8.42101404929878,-0.12110680463512136 L8.366692537067268,-0.08573708519838563 L8.313923373416696,-0.04800457299908034 L8.262766245825938,-0.007951947480447696 L8.2132790183914,0.03437548762188003 L8.16551766637662,0.07892985552316878 L8.119536212898366,0.12566076054327158 L8.075386667820796,0.17451534510944366 L8.03311896892683,0.22543834954382302 L7.992780925433262,0.2783721745679435 L7.9544181639135,0.3332569464535804 L7.91807407668911,0.3900305847462411 L7.883789772748532,0.4486288724846932 L7.851604031248489,0.5089855288371086 L7.821553257650674,0.57103228407166 L7.793671442543347,0.6346989567767756 L7.767990123194394,0.699913533243701 L7.744538347879367,0.7666022489215873 L7.723342643024814,0.8346896718529611 L7.704426983204111,0.9040987879952098 L7.687812764019686,0.9747510883315682 L7.673518777902347,1.0465666576730848 L7.66156119285506,1.1194642650511106 L7.651953534165238,1.1933614555980745 L7.644706669106218,1.2681746438126202 L7.639828794645229,1.3438192081036067 L7.63732542817176,1.4202095865060342 L7.63719940125681,1.497259373460634 L7.639450856450086,1.5748814175476522 L7.644077247118766,1.6529879200642794 L7.651073340328001,1.7314905343342244 L7.660431222759921,1.8103004656371062 L7.67214030966443,1.8893285716446255 " />
			<path d="M10.847516742149821,4.235600189872789 L10.874524707100345,4.2239596553655145 " />
			<path d="M0.25967828035563356,8.922523554906167 L0.35278137981706525,8.877405226140896 L0.4423594562761063,8.826044226625584 " />
			<path d="M0.4423594562761136,8.826044226625578 L0.5211237193930863,8.773628094450531 L0.5965228239859913,8.716220628062706 L0.6683751270076818,8.653960127076932 L0.7365075299666594,8.58699658249346 L0.800755895936503,8.515491315356506 L0.8609654449760994,8.439616588117724 L0.916991127008078,8.359555189640872 L0.9686979712571543,8.275499994847433 L1.015961411406547,8.187653500064028 L1.0586675856891476,8.096227335191038 L1.0967136111904905,8.001441753867624 L1.1300078317027045,7.903525102861433 L1.158470038532347,7.802713271961224 L1.1820316637301702,7.699249125697709 L1.2006359452773179,7.593381918261625 L1.2142380638300003,7.48536669302856 L1.2228052506932192,7.375463668137114 L1.2263168667634234,7.26393760960062 L1.2247644522499206,7.151057193462623 L1.2181517470552468,7.0370943585327534 L1.2064946817654225,6.922323651262324 L1.1898213392717678,6.807021564337876 L1.1681718871167632,6.69146587058608 L1.141598480726918,6.575934953794667 L1.1101651377657804,6.460707138061502 L1.0739475839097796,6.34606001728745 L1.0330330704184383,6.232269786428358 L0.9875201639384438,6.119610576117209 L0.9375185090479671,6.008353792259428 L0.883148564113268,5.898767462192273 L0.8245413110939382,5.791115588983502 L0.7618379399958902,5.685657515424866 L0.695189508732266,5.582647299252605 L0.6247565792116926,5.482333101100105 L0.5507088305305815,5.384956586657204 L0.4732246502013201,5.290752344476366 L0.3924907044011364,5.199947320828325 L0.30870148827692245,5.1127602729686314 L0.22205885738938858,5.029401242132261 L0.13277154142534175,4.950071047525887 L0.04105464134958359,4.874960802536821 L-0.05287088879215107,4.80425145432412 L-0.14877877417084606,4.73811334790104 L-0.2464379642900858,4.6767058157589645 L-0.3456131896069382,4.62017679402149 L-0.446065528316891,4.56866246605334 L-0.5475529819374061,4.52228693438271 L-0.6498310583034628,4.481161921727412 L-0.7526533605705917,4.44538650184506 L-0.8557721808064597,4.415046860855706 L-0.9589390967409783,4.390216089611933 L-1.061905570237307,4.370954007616584 L-1.1644235460419945,4.357307018912346 L-1.2662460493718137,4.3493080002903435 L-1.3671277808976452,4.346976222087067 L-1.4668257076920468,4.350317301760448 L-1.5650996487168642,4.3593231903569105 L-1.6617128534403878,4.373972191902 L-1.756432572190121,4.3942290156678965 L-1.8490306168671302,4.42004486119186 L-1.9392839106711564,4.451357535840819 L-2.026975025512168,4.48809160463888 L-2.111892705813682,4.5301585719967825 L-2.1938323774459247,4.577457094905524 " />
			<path d="M-2.19383237744594,4.577457094905533 L-2.2481538896774507,4.612826814342268 L-2.3009230533280234,4.650559326541574 L-2.3520801809187803,4.690611952060207 L-2.401567408353319,4.732939387162535 L-2.449328760368099,4.777493755063823 L-2.4953102138463534,4.824224660083926 L-2.539459758923923,4.873079244650098 L-2.581727457817889,4.924002249084477 L-2.622065501311456,4.976936074108598 L-2.660428262831218,5.031820845994234 L-2.6967723500556082,5.0885944842868955 L-2.7310566539961862,5.147192772025347 L-2.7632423954962295,5.207549428377763 L-2.793293169094045,5.269596183612315 L-2.821174984201372,5.33326285631743 L-2.8468563035503243,5.398477432784356 L-2.870308078865352,5.465166148462242 L-2.8915037837199047,5.533253571393615 L-2.910419443540608,5.602662687535864 L-2.927033662725033,5.673314987872223 L-2.941327648842372,5.74513055721374 L-2.953285233889659,5.818028164591765 L-2.9628928925794806,5.891925355138729 L-2.970139757638501,5.966738543353275 L-2.97501763209949,6.042383107644262 L-2.977520998572959,6.118773486046688 L-2.977647025487909,6.195823273001288 L-2.975395570294632,6.273445317088306 L-2.970769179625953,6.351551819604934 L-2.963773086416718,6.430054433874879 L-2.954415203984798,6.508864365177761 L-2.9427061170802884,6.58789247118528 " />
			<path d="M0.23267031540509941,8.934164089413445 L0.25967828035562734,8.922523554906169 " />
			<path d="M-17.1364863555743,-7.665278741421532 L-8.716071424053416,-12.890034263862656 " />
			<path d="M-11.293583574123266,-5.4064131221535145 L-2.8731686426027543,-10.631168644594409 " />
			<path d="M4.847655706043541,2.096114542462051 L8.42101404929878,-0.12110680463512176 " />
			<path d="M10.690558487495965,4.354980161729203 L11.057205883020833,4.127480327084925 " />
			<path d="M-27.751332782319103,-2.9667148418808225 L-19.330917850798222,-8.191470364321946 " />
			<path d="M-21.908430000867988,-0.707849222612861 L-13.488015069347474,-5.932604745053756 " />
			<path d="M-5.767190720701293,6.794678442002776 L-2.1938323774459403,4.577457094905533 " />
			<path d="M0.07571206075124598,9.053544061269857 L0.4423594562761147,8.826044226625578 " />
			<path d="M19.110973419017075,-0.8697753607120633 L11.057205883020833,4.127480327084925 " />
			<path d="M13.268070637561982,-3.1286409799775585 L8.42101404929878,-0.12110680463512176 " />
			<path d="M8.496126992272334,3.828788538828605 L0.4423594562761147,8.826044226625578 " />
			<path d="M2.6532242108172617,1.5699229195630962 L-2.1938323774459403,4.577457094905533 " />

        </g>

        <!-- solid lines -->
        <g  stroke="rgb(0,0,0)" fill="none">
    			<path d="M-7.142547611081323,-26.476755976962348 L-7.142547611081323,-17.51316991341264 " />
			<path d="M-7.142547611081323,-17.513169913412643 L-49.6019333180602,1.2810856847499743 " />
			<path d="M-49.601933318060205,-7.682500378799733 L-49.601933318060205,1.2810856847499759 " />
			<path d="M-7.142547611081323,-26.476755976962348 L-49.6019333180602,-7.682500378799731 " />
			<path d="M-7.142547611081323,-26.476755976962348 L49.38198889611071,-1.3787453523346866 " />
			<path d="M49.38198889611071,-1.3787453523346906 L49.38198889611071,7.584840711215018 " />
			<path d="M-7.142547611081323,-17.513169913412643 L49.38198889611071,7.584840711215019 " />
			<path d="M-49.601933318060205,1.2810856847499759 L6.9226031891318325,26.379096309377637 " />
			<path d="M49.38198889611071,7.584840711215018 L6.922603189131837,26.379096309377637 " />
			<path d="M-11.467017202230956,-5.315671774352139 L-11.91177373824689,-5.175814157344694 L-12.464312094797847,-5.099599647590327 L-13.098776068764641,-5.090594726621906 L-13.78547572244756,-5.1492207824985075 L-14.492276733374691,-5.272734390820987 L-15.186104129850932,-5.45535569412442 L-15.83449004447801,-5.6885388720940275 L-16.40709305804139,-5.961372045867324 L-16.877118035597366,-6.261087902777056 L-17.222570013091953,-6.57366114669233 L-17.427283458499865,-6.884464816084635 L-17.48167874289047,-7.1789547572120265 L-17.383210422123543,-7.443350222287363 L-17.13648635169432,-7.665278743829006 " />
			<path d="M-17.136486351694316,-7.665278743829011 L-16.737219072822416,-7.839252824950441 L-16.21147895080666,-7.947868642048449 L-15.585628790664465,-7.985679744513583 L-14.891051332748027,-7.950790125782828 L-14.16257559110014,-7.844949297025706 L-13.436730381256803,-7.673464559348907 L-12.749912612905186,-7.444934873557446 L-12.136562196851662,-7.1708196723537645 L-11.62743508408544,-6.86486423653161 L-11.248061033970275,-6.542410449201733 L-11.017463445507014,-6.219627489710606 L-10.947205444672871,-5.9127010434713645 L-11.040810061001535,-5.637021684111663 L-11.293583568171428,-5.406413125846556 " />
			<path d="M-11.293583568171439,-5.406413125846547 L-11.304881917720625,-5.3994888133195 L-11.31635071922547,-5.39263105890499 L-11.327989300941358,-5.385840264271811 L-11.339796981179388,-5.379116827166816 L-11.351773068346318,-5.3724611413916366 L-11.363916860985059,-5.365873596779601 L-11.376227647815766,-5.359354579172915 L-11.388704707777496,-5.352904470400053 L-11.401347310070449,-5.346523648253398 L-11.414154714198762,-5.340212486467117 L-11.427126170013885,-5.333971354695261 L-11.440260917758522,-5.327800618490122 L-11.453558188111126,-5.321700639280821 L-11.46701720223094,-5.315671774352146 " />
			<path d="M10.517124859389014,4.445721509530121 L10.072368323373082,4.585579126537566 L9.51982996682212,4.661793636291932 L8.885365992855329,4.670798557260354 L8.19866633917241,4.6121725013837525 L7.491865328245279,4.488658893061272 L6.798037931769041,4.306037589757841 L6.149652017141964,4.072854411788232 L5.577049003578582,3.8000212380149363 L5.107024026022607,3.500305381105206 L4.761572048528018,3.1877321371899314 L4.556858603120107,2.876928467797625 L4.502463318729502,2.582438526670234 L4.600931639496428,2.3180430615948975 L4.8476557099256485,2.096114540053255 " />
			<path d="M4.847655709925654,2.0961145400532506 L5.246922988797557,1.922140458931815 L5.772663110813323,1.813524641833808 L6.398513270955526,1.7757135393686765 L7.093090728871973,1.8106031580994335 L7.8215664705198655,1.9164439868565597 L8.547411680363208,2.0879287245333633 L9.234229448714824,2.3164584103248296 L9.847579864768349,2.590573611528515 L10.356706977534568,2.8965290473506755 L10.736081027649723,3.218982834680554 L10.96667861611297,3.5417657941716834 L11.036936616947097,3.8486922404109247 L10.943332000618417,4.124371599770624 L10.690558493448496,4.354980158035732 " />
			<path d="M10.690558493448485,4.354980158035741 L10.679260143899302,4.361904470562787 L10.667791342394459,4.368762224977293 L10.656152760678577,4.375553019610471 L10.64434508044055,4.382276456715462 L10.632368993273623,4.388932142490639 L10.620225200634886,4.395519687102672 L10.607914413804183,4.402038704709356 L10.595437353842456,4.408488813482215 L10.582794751549507,4.414869635628867 L10.569987347421199,4.421180797415147 L10.55701589160608,4.427421929187001 L10.543881143861448,4.433592665392138 L10.53058387350885,4.439692644601436 L10.51712485938903,4.445721509530114 " />
			<path d="M-22.081863628975675,-0.6171078748114843 L-22.52662016499169,-0.4772502578040204 L-23.07915852154277,-0.4010357480496588 L-23.713622495509693,-0.3920308270812648 L-24.400322149192746,-0.4506568829579133 L-25.107123160119997,-0.5741704912804603 L-25.800950556596323,-0.7567917945839743 L-26.449336471223443,-0.9899749725536696 L-27.02193948478681,-1.2628081463270533 L-27.491964462342697,-1.5625240032368612 L-27.837416439837135,-1.8750972471521976 L-28.042129885244822,-2.185900916544539 L-28.096525169635143,-2.4803908576719333 L-27.998056848867886,-2.7447863227472373 L-27.7513327784383,-2.966714844288809 " />
			<path d="M-27.751332778438297,-2.9667148442888136 L-27.352065499566162,-3.1406889254100854 L-26.826325377550262,-3.2493047425079373 L-26.200475217408012,-3.2871158449729316 L-25.5058977594916,-3.252226226242062 L-24.777422017843804,-3.146385397484851 L-24.051576808000615,-2.9749006598079957 L-23.364759039649176,-2.74637097401651 L-22.751408623595847,-2.472255772812833 L-22.2422815108298,-2.1663003369907043 L-21.8629074607148,-1.843846549660876 L-21.632309872251664,-1.5210635901698053 L-21.562051871417594,-1.214137143930622 L-21.655656487746278,-0.938457784570974 L-21.908429994916148,-0.7078492263059025 " />
			<path d="M-21.90842999491616,-0.7078492263058934 L-21.919728344465344,-0.700924913778845 L-21.931197145970188,-0.6940671593643354 L-21.942835727686077,-0.687276364731156 L-21.954643407924106,-0.680552927626162 L-21.966619495091038,-0.6738972418509811 L-21.978763287729777,-0.6673096972389468 L-21.991074074560483,-0.660790679632261 L-22.003551134522215,-0.6543405708593982 L-22.01619373681517,-0.6479597487127443 L-22.029001140943482,-0.6416485869264629 L-22.041972596758605,-0.6354074551546053 L-22.05510734450324,-0.6292367189494675 L-22.068404614855844,-0.6231367397401665 L-22.08186362897566,-0.6171078748114913 " />
			<path d="M-0.09772156735570471,9.144285409070775 L-0.5424781033717467,9.284143026078244 L-1.0950164599228582,9.360357535832605 L-1.7294804338898262,9.369362456800992 L-2.41618008757292,9.310736400924327 L-3.122981098500209,9.187222792601759 L-3.8168084949765624,9.00460148929822 L-4.465194409603695,8.771418311328498 L-5.037797423167051,8.498585137555086 L-5.507822400722917,8.198869280645255 L-5.853274378217305,7.886296036729901 L-6.057987823624925,7.5754923673375485 L-6.112383108015159,7.2810024262101525 L-6.013914787247799,7.016606961134858 L-5.767190716818101,6.794678439593309 " />
			<path d="M-5.767190716818096,6.794678439593304 L-5.367923437945887,6.62070435847208 L-4.8421833159299315,6.512088541374276 L-4.216333155787655,6.474277438909327 L-3.521755697871242,6.509167057640236 L-2.79327995622347,6.6150078863974775 L-2.0674347463803175,6.786492624074356 L-1.3806169780289304,7.015022309865856 L-0.7672665619756589,7.289137511069537 L-0.25813944920968057,7.595092946891662 L0.12123460090526261,7.917546734221482 L0.35183218936834737,8.240329693712537 L0.42209019020237326,8.547256139951703 L0.3284855738736632,8.822935499311331 L0.07571206670377675,9.053544057576387 " />
			<path d="M0.0757120667037667,9.053544057576396 L0.0644137171545841,9.060468370103441 L0.05294491564974055,9.067326124517948 L0.0413063339338586,9.074116919151125 L0.0294986536958306,9.080840356256116 L0.017522566528903882,9.087496042031294 L0.005378773890167901,9.094083586643325 L-0.0069320129405344155,9.10060260425001 L-0.019409072902263527,9.10705271302287 L-0.03205167519521124,9.113433535169522 L-0.044859079323519624,9.1197446969558 L-0.05783053513863913,9.125985828727655 L-0.07096528288327086,9.132156564932792 L-0.08426255323586901,9.138256544142092 L-0.09772156735568821,9.144285409070768 " />
			<path d="M7.672140309664432,1.8893285716446306 L7.699188039527293,2.032262504117311 L7.733754044562893,2.175089275902583 L7.775710929338059,2.317282488926924 L7.824904058814553,2.458318080142011 L7.881152128267334,2.5976762529957993 L7.944247831495824,2.7348433931791294 L8.013958624865442,2.8693139615872485 L8.090027584363446,3.000592357519597 L8.172174352510396,3.1281947452509105 L8.260096171637276,3.2516508372416815 L8.353468999720096,3.3705056274158345 L8.45194870465948,3.484321068117495 L8.555172332603616,3.5926776845663166 L8.662759445640111,3.6951761208611646 L8.774313523926567,3.7914386118342778 L8.889423427092243,3.8811103753312493 L9.007664909524697,3.9638609197855184 L9.128602183956698,4.03938526226819 L9.251789527590748,4.107405052523986 L9.376772924841672,4.167669598850614 L9.503091740642853,4.219956792040593 L9.566606589421351,4.2430474912701985 L9.63028041814906,4.264073923980304 L9.694054544716394,4.283016712108475 L9.7578701945788,4.29985839788924 L9.821668554923646,4.314583459943243 L9.885390828872406,4.327178327581834 L9.948978289668148,4.337631393313868 L10.01237233479839,4.345933023543235 L10.075514540003478,4.3520755674472245 L10.13834671312064,4.356053364027566 L10.200810947714194,4.357862747327623 L10.262849676442377,4.3575020498109645 L10.324405724111706,4.354971603898175 L10.385422360369894,4.3502737416604855 L10.44584335198884,4.343412792670536 L10.505613014689425,4.334395080012215 L10.564676264460424,4.3232289144532725 L10.622978668324196,4.30992458678608 L10.680466494502385,4.294494358343586 L10.737086761935378,4.27695244969921 L10.792787289109915,4.257315027561095 L10.847516742149812,4.235600189872793 " />
			<path d="M-2.9427061170802875,6.587892471185285 L-2.9156583872174258,6.730826403657965 L-2.8810923821818264,6.873653175443237 L-2.839135497406659,7.015846388467579 L-2.789942367930166,7.156881979682665 L-2.7336942984773853,7.296240152536453 L-2.670598595248894,7.433407292719783 L-2.6008878018792774,7.5678778611279025 L-2.524818842381273,7.699156257060251 L-2.442672074234324,7.826758644791564 L-2.354750255107444,7.950214736782335 L-2.2613774270246223,8.069069526956488 L-2.1628977220852383,8.182884967658149 L-2.0596740941411036,8.291241584106968 L-1.9520869811046095,8.393740020401818 L-1.8405329028181532,8.49000251137493 L-1.7254229996524764,8.579674274871902 L-1.6071815172200243,8.662424819326171 L-1.4862442427880227,8.737949161808842 L-1.363056899153971,8.805968952064639 L-1.2380735019030495,8.866233498391267 L-1.1117546861018686,8.918520691581246 L-1.0482398373233706,8.941611390810852 L-0.9845660085956619,8.962637823520957 L-0.9207918820283264,8.981580611649129 L-0.8569762321659207,8.998422297429894 L-0.7931778718210745,9.013147359483899 L-0.7294555978723147,9.025742227122489 L-0.6658681370765741,9.036195292854522 L-0.6024740919463298,9.044496923083889 L-0.5393318867412435,9.05063946698788 L-0.476499713624081,9.05461726356822 L-0.4140354790305282,9.056426646868276 L-0.35199675030234345,9.05606594935162 L-0.2904407026330166,9.053535503438829 L-0.22942406637482649,9.048837641201139 L-0.16900307475588072,9.041976692211191 L-0.10923341205529713,9.03295897955287 L-0.05017016228429838,9.021792813993926 L0.008132241579475452,9.008488486326735 L0.06562006775766338,8.993058257884242 L0.12224033519065691,8.975516349239864 L0.17794086236519402,8.95587892710175 L0.23267031540509142,8.934164089413448 " />

        </g>
        </g>
    </svg>
    