<?xml version="1.0" encoding="UTF-8" standalone="no"?>
    <svg
    xmlns:svg="http://www.w3.org/2000/svg"
    xmlns="http://www.w3.org/2000/svg"
    width="419"
    height="205"
    >
        <g transform="scale(4, -4)   translate(52.4254060153553,-25.73049857471743)" stroke-width="0.25"  fill="none">
        <!-- hidden lines -->
        <g  stroke="rgb(160,160,160)" fill="none" stroke-dasharray="0.25,0.25" >
    			<path d="M-11.35814943416294,18.71813609832541 L-11.35814943416294,23.23049857471743 " />
			<path d="M-49.9254060153553,-1.0801669076818285 L-11.35814943416294,18.71813609832541 " />
			<path d="M49.92540601535529,-3.432195568710201 L-11.358149434162936,18.71813609832541 " />
			<path d="M0.9473434549075304,-5.710091719768815 L0.9473434549075304,-1.197729243376794 " />
			<path d="M3.1611100528533402,-4.756517326785856 L0.9473434549075295,-5.7100917197688155 " />
			<path d="M3.535533905932737,-9.870792917107547 L3.535533905932737,-5.3584304407155265 " />
			<path d="M0.9473434549075304,-5.710091719768815 L3.535533905932736,-9.870792917107547 " />
			<path d="M13.194792168823412,-10.985649442881668 L13.194792168823412,-6.473286966489647 " />
			<path d="M3.535533905932737,-9.870792917107547 L13.194792168823415,-10.985649442881666 " />
			<path d="M20.265859980688894,-7.9398047713170525 L20.265859980688894,-3.427442294925032 " />
			<path d="M13.194792168823412,-10.985649442881668 L20.26585998068889,-7.939804771317053 " />
			<path d="M20.265859980688894,-7.9398047713170525 L18.05209338274308,-4.381016687907991 " />
			<path d="M-20.265859980688894,3.4274422949250267 L-20.265859980688894,7.939804771317047 " />
			<path d="M-18.052093382743085,4.3810166879079855 L-20.265859980688894,3.4274422949250254 " />
			<path d="M-17.67766952966369,-0.7332589024137066 L-17.67766952966369,3.779103573978314 " />
			<path d="M-20.265859980688894,3.4274422949250267 L-17.67766952966369,-0.7332589024137057 " />
			<path d="M-8.01841126677301,-1.8481154281878263 L-8.01841126677301,2.664247048204194 " />
			<path d="M-17.67766952966369,-0.7332589024137066 L-8.018411266773011,-1.8481154281878265 " />
			<path d="M-0.9473434549075304,1.1977292433767888 L-0.9473434549075304,5.710091719768809 " />
			<path d="M-8.01841126677301,-1.8481154281878263 L-0.9473434549075304,1.1977292433767885 " />
			<path d="M-0.9473434549075304,1.1977292433767888 L-3.1611100528533416,4.756517326785849 " />

        </g>

        <!-- solid lines -->
        <g  stroke="rgb(0,0,0)" fill="none">
    			<path d="M11.35814943416294,-23.230498574717437 L11.35814943416294,-18.718136098325417 " />
			<path d="M-49.92540601535529,-1.0801669076818268 L-49.92540601535529,3.4321955687101937 " />
			<path d="M11.358149434162936,-23.230498574717437 L-49.92540601535529,-1.0801669076818268 " />
			<path d="M11.358149434162936,-18.718136098325417 L-49.92540601535529,3.4321955687101937 " />
			<path d="M49.92540601535529,-3.432195568710201 L49.92540601535529,1.0801669076818197 " />
			<path d="M11.35814943416294,-23.230498574717437 L49.9254060153553,-3.432195568710199 " />
			<path d="M11.35814943416294,-18.718136098325417 L49.9254060153553,1.0801669076818214 " />
			<path d="M-49.9254060153553,3.432195568710192 L-11.35814943416294,23.23049857471743 " />
			<path d="M49.92540601535529,1.0801669076818197 L-11.358149434162936,23.23049857471743 " />
			<path d="M17.677669529663685,-3.779103573978321 L17.677669529663685,0.7332589024136995 " />
			<path d="M8.018411266773006,-2.664247048204202 L8.018411266773006,1.8481154281878185 " />
			<path d="M17.677669529663685,-3.779103573978321 L8.018411266773006,-2.6642470482042024 " />
			<path d="M17.677669529663685,0.7332589024136995 L8.018411266773006,1.848115428187818 " />
			<path d="M8.018411266773006,-2.664247048204202 L3.1611100528533402,-4.756517326785856 " />
			<path d="M8.018411266773006,1.8481154281878185 L0.9473434549075295,-1.1977292433767945 " />
			<path d="M0.9473434549075304,-1.197729243376794 L3.535533905932736,-5.3584304407155265 " />
			<path d="M3.535533905932737,-5.3584304407155265 L13.194792168823415,-6.473286966489646 " />
			<path d="M13.194792168823412,-6.473286966489647 L20.26585998068889,-3.4274422949250325 " />
			<path d="M18.05209338274308,-4.381016687907991 L17.67766952966369,-3.779103573978321 " />
			<path d="M20.265859980688894,-3.427442294925032 L17.67766952966369,0.7332589024136995 " />
			<path d="M-3.535533905932737,5.35843044071552 L-3.535533905932737,9.87079291710754 " />
			<path d="M-13.194792168823419,6.473286966489638 L-13.194792168823419,10.985649442881659 " />
			<path d="M-3.535533905932737,5.35843044071552 L-13.194792168823415,6.473286966489638 " />
			<path d="M-3.535533905932737,9.87079291710754 L-13.194792168823415,10.985649442881659 " />
			<path d="M-13.194792168823419,6.473286966489638 L-18.052093382743085,4.3810166879079855 " />
			<path d="M-13.194792168823419,10.985649442881659 L-20.265859980688894,7.939804771317046 " />
			<path d="M-20.265859980688894,7.939804771317046 L-17.67766952966369,3.779103573978314 " />
			<path d="M-17.67766952966369,3.779103573978314 L-8.018411266773011,2.664247048204194 " />
			<path d="M-8.01841126677301,2.664247048204194 L-0.9473434549075304,5.710091719768808 " />
			<path d="M-3.1611100528533416,4.756517326785849 L-3.5355339059327373,5.35843044071552 " />
			<path d="M-0.9473434549075304,5.710091719768809 L-3.5355339059327373,9.87079291710754 " />

        </g>
        </g>
    </svg>
    