<?xml version='1.0' encoding='utf-8'?>
<svg width="100.09mm" height="53.324035mm" viewBox="-49.142393 -26.148275 99.12569 52.810288" version="1.1" xmlns="http://www.w3.org/2000/svg">
  <g transform="scale(1,-1)" stroke-linecap="round">
    <g fill="none" stroke="rgb(0,0,0)" stroke-width="0.08913290131063521" id="Visible">
      <line x1="-6.797743" y1="-26.617447" x2="-6.797743" y2="-17.648031" />
      <line x1="-6.797743" y1="-17.648031" x2="-49.097827" y2="1.166453" />
      <line x1="-49.097827" y1="-7.802963" x2="-49.097827" y2="1.166453" />
      <line x1="-6.797743" y1="-26.617447" x2="-49.097827" y2="-7.802963" />
      <line x1="-6.797743" y1="-26.617447" x2="49.93873" y2="-1.680191" />
      <line x1="49.93873" y1="-1.680191" x2="49.93873" y2="7.289225" />
      <line x1="-6.797743" y1="-17.648031" x2="49.93873" y2="7.289225" />
      <line x1="-49.097827" y1="1.166453" x2="7.638646" y2="26.103708" />
      <line x1="49.93873" y1="7.289225" x2="7.638646" y2="26.103708" />
      <path d="M 2.572394,2.212326 Q 0.800243,1.433416 0.800243,0.474709" />
      <path d="M 0.800243,0.474709 Q 0.800243,0.378325 0.818155,0.280123 Q 1.014233,-0.794863 3.340743,-1.829662 Q 5.667253,-2.864461 8.088458,-2.961441 Q 10.509664,-3.05842 12.495417,-2.185626 Q 14.282299,-1.400242 14.282299,-0.432068" />
      <path d="M 14.282299,-0.432068 Q 14.282299,-0.343515 14.267351,-0.253434 Q 14.088969,0.821541 11.815328,1.832825 Q 9.418334,2.898974 6.997129,2.995953 Q 4.575924,3.092933 2.572394,2.212326" />
      <line x1="-7.159158" y1="0.89639" x2="-5.315269" y2="1.70683" />
      <line x1="0.899046" y1="-4.788784" x2="-7.159158" y2="0.89639" />
      <line x1="-12.478202" y1="-1.441478" x2="0.899046" y2="-4.788784" />
      <line x1="-14.251217" y1="-2.220767" x2="-12.478202" y2="-1.441478" />
      <line x1="-6.68948" y1="-8.124152" x2="-14.251217" y2="-2.220767" />
      <line x1="-19.552543" y1="-4.550847" x2="-6.68948" y2="-8.124152" />
      <line x1="-21.39649" y1="-5.361313" x2="-19.552543" y2="-4.550847" />
      <line x1="-5.232313" y1="-9.618957" x2="-21.39649" y2="-5.361313" />
      <line x1="-3.423803" y1="-8.824066" x2="-5.232313" y2="-9.618957" />
      <line x1="-11.091231" y1="-2.858053" x2="-3.423803" y2="-8.824066" />
      <line x1="2.444864" y1="-6.244624" x2="-11.091231" y2="-2.858053" />
      <line x1="4.253316" y1="-5.449759" x2="2.444864" y2="-6.244624" />
      <line x1="-5.315269" y1="1.70683" x2="4.253316" y2="-5.449759" />
      <path d="M 12.820127,6.669711 Q 12.394908,6.529593 12.199888,6.443877 Q 11.490682,6.132161 11.346166,5.671203 Q 11.307921,5.549212 11.307921,5.407462" />
      <path d="M 11.307921,5.407462 Q 11.307921,5.013589 11.603207,4.467152" />
      <line x1="9.928829" y1="5.211892" x2="11.603207" y2="4.467152" />
      <line x1="8.563631" y1="4.61185" x2="9.928829" y2="5.211892" />
      <line x1="17.799161" y1="0.504016" x2="8.563631" y2="4.61185" />
      <line x1="19.288504" y1="1.158624" x2="17.799161" y2="0.504016" />
      <line x1="14.494518" y1="3.290922" x2="19.288504" y2="1.158624" />
      <path d="M 14.494518,3.290922 Q 12.767168,4.059223 12.767168,4.655416" />
      <path d="M 12.767168,4.655416 Q 12.767168,4.685806 12.771656,4.71575 Q 12.864196,5.333113 14.318255,6.003365" />
      <line x1="12.820127" y1="6.669711" x2="14.318255" y2="6.003365" />
      <line x1="25.54214" y1="11.045707" x2="20.765767" y2="13.17017" />
      <path d="M 25.54214,11.045707 Q 23.174861,11.267682 21.259982,10.42604 Q 19.66362,9.724395 19.66362,8.807478" />
      <path d="M 19.66362,8.807478 Q 19.66362,8.685657 19.691799,8.560037 Q 19.932067,7.488899 22.135197,6.508978 Q 24.479349,5.466332 26.909203,5.341977 Q 29.339058,5.217621 31.218499,6.043688 Q 32.175881,6.464484 32.497278,6.940858 Q 32.674702,7.203835 32.674702,7.519449" />
      <path d="M 32.674702,7.519449 Q 32.674702,7.775559 32.557873,8.066328" />
      <line x1="33.774012" y1="7.525407" x2="32.557873" y2="8.066328" />
      <line x1="35.086055" y1="8.102086" x2="33.774012" y2="7.525407" />
      <line x1="22.237393" y1="13.81699" x2="35.086055" y2="8.102086" />
      <line x1="20.765767" y1="13.17017" x2="22.237393" y2="13.81699" />
      <line x1="23.685547" y1="3.091246" x2="10.836885" y2="8.80615" />
      <line x1="25.17489" y1="3.745854" x2="23.685547" y2="3.091246" />
      <line x1="12.326229" y1="9.460758" x2="25.17489" y2="3.745854" />
      <line x1="10.836885" y1="8.80615" x2="12.326229" y2="9.460758" />
      <path d="M -8.415656,2.614333 Q -7.430588,2.419748 -6.415572,2.384383 Q -3.96776,2.299098 -2.017444,3.156316 Q -0.421731,3.857676 -0.221694,4.693749 Q -0.193753,4.810532 -0.193753,4.926589" />
      <line x1="-8.415656" y1="0.702624" x2="-10.064525" y2="-0.0221" />
      <line x1="-10.064525" y1="-0.0221" x2="-15.916013" y2="2.58056" />
      <line x1="-15.916013" y1="2.58056" x2="-18.5077" y2="1.441442" />
      <line x1="-21.41842" y1="5.027953" x2="-22.913187" y2="5.692805" />
      <line x1="-16.71333" y1="-2.944434" x2="-18.362257" y2="-3.669184" />
      <line x1="-18.362257" y1="-3.669184" x2="-31.210919" y2="2.045721" />
      <path d="M 8.392548,9.885844 Q 9.284025,9.718669 10.188723,9.682432 Q 12.609928,9.585452 14.595682,10.458246 Q 16.382564,11.243631 16.382564,12.211805" />
      <line x1="3.250805" y1="5.830357" x2="-0.193753" y2="7.362448" />
      <line x1="4.740149" y1="6.484965" x2="3.250805" y2="5.830357" />
      <line x1="6.903204" y1="7.435688" x2="4.740149" y2="8.397785" />
      <line x1="8.392548" y1="8.090296" x2="6.903204" y2="7.435688" />
      <path d="M 2.572394,-1.37544 L 2.490991,-1.411737" />
      <path d="M 12.59928,-2.139134 Q 12.392028,-2.026203 12.15926,-1.914049" />
      <path d="M 2.915174,-1.233128 Q 2.742283,-1.30077 2.572394,-1.37544" />
      <line x1="-5.315269" y1="1.70683" x2="-5.315269" y2="-0.404499" />
      <line x1="0.899046" y1="-4.788784" x2="0.899046" y2="-5.857879" />
      <line x1="-12.478202" y1="-1.441478" x2="-12.478202" y2="-3.604945" />
      <line x1="-6.68948" y1="-8.124152" x2="-6.68948" y2="-9.235139" />
      <line x1="-19.552543" y1="-4.550847" x2="-19.552543" y2="-5.847008" />
      <line x1="-11.091231" y1="-2.858053" x2="-11.091231" y2="-4.687742" />
      <line x1="12.820127" y1="6.669711" x2="12.820127" y2="4.880382" />
      <line x1="11.603207" y1="4.467152" x2="11.603207" y2="3.259889" />
      <path d="M 12.767168,3.064407 Q 12.524877,2.983766 12.362729,2.922064" />
      <line x1="9.928829" y1="5.211892" x2="9.928829" y2="4.004629" />
      <line x1="25.54214" y1="11.045707" x2="25.54214" y2="10.335667" />
      <line x1="32.557873" y1="8.066328" x2="32.557873" y2="7.041891" />
      <path d="M 21.879085,7.078598 Q 21.619879,6.990807 21.368374,6.88491" />
      <line x1="22.237393" y1="13.81699" x2="22.237393" y2="12.515612" />
      <line x1="31.013793" y1="6.325605" x2="31.429368" y2="6.140763" />
      <line x1="12.326229" y1="9.460758" x2="12.326229" y2="8.143711" />
      <line x1="-2.380528" y1="9.421191" x2="-2.380528" y2="10.590145" />
      <path d="M -2.380528,10.590145 Q -7.756163,12.981152 -11.887311,11.165398 Q -13.634878,10.397294 -13.634878,9.409599" />
      <path d="M -13.634878,9.409599 Q -13.634878,9.305023 -13.615287,9.197985 Q -13.410666,8.080002 -11.137025,7.068718 Q -8.863384,6.057435 -6.415572,5.97215 Q -3.96776,5.886864 -2.017444,6.744082 Q -0.421731,7.445443 -0.221694,8.281516 Q -0.193753,8.398298 -0.193753,8.514355" />
      <path d="M -0.193753,8.514355 Q -0.193753,9.229174 -1.253728,9.91645" />
      <line x1="-2.380528" y1="10.590145" x2="-9.224411" y2="7.582068" />
      <line x1="-2.743014" y1="7.684637" x2="-2.743014" y2="9.261868" />
      <line x1="-2.743014" y1="9.261868" x2="-1.253728" y2="9.91645" />
      <path d="M -2.743014,9.261868 Q -2.245058,8.818234 -2.245058,8.423926" />
      <path d="M -2.245058,8.423926 Q -2.245058,7.844197 -3.32145,7.371093 Q -4.580279,6.817802 -6.161954,6.886314 Q -7.743629,6.954826 -9.224411,7.582068" />
      <line x1="-8.415656" y1="0.702624" x2="-8.415656" y2="4.29039" />
      <line x1="-10.064525" y1="-0.0221" x2="-10.064525" y2="3.565667" />
      <line x1="-8.415656" y1="4.29039" x2="-10.064525" y2="3.565667" />
      <line x1="-21.264318" y1="10.005295" x2="-8.415656" y2="4.29039" />
      <line x1="-15.916013" y1="2.58056" x2="-15.916013" y2="6.168327" />
      <line x1="-10.064525" y1="3.565667" x2="-15.916013" y2="6.168327" />
      <line x1="-22.913187" y1="5.692805" x2="-22.913187" y2="9.280571" />
      <line x1="-22.913187" y1="9.280571" x2="-21.264318" y2="10.005295" />
      <line x1="-15.916013" y1="6.168327" x2="-22.564819" y2="3.245992" />
      <line x1="-17.361301" y1="6.81117" x2="-22.913187" y2="9.280571" />
      <line x1="-16.71333" y1="-2.944434" x2="-16.71333" y2="0.643332" />
      <line x1="-22.564819" y1="3.245992" x2="-16.71333" y2="0.643332" />
      <line x1="-24.010106" y1="3.888835" x2="-17.361301" y2="6.81117" />
      <line x1="-18.362257" y1="-3.669184" x2="-18.362257" y2="-0.081417" />
      <line x1="-16.71333" y1="0.643332" x2="-18.362257" y2="-0.081417" />
      <line x1="-29.561992" y1="6.358236" x2="-24.010106" y2="3.888835" />
      <line x1="-31.210919" y1="2.045721" x2="-31.210919" y2="5.633487" />
      <line x1="-18.362257" y1="-0.081417" x2="-31.210919" y2="5.633487" />
      <line x1="-31.210919" y1="5.633487" x2="-29.561992" y2="6.358236" />
      <path d="M 4.672659,18.443965 Q 2.900508,17.665055 2.900508,16.706348" />
      <path d="M 2.900508,16.706348 Q 2.900508,16.609964 2.91842,16.511762 Q 3.114497,15.436776 5.441008,14.401977 Q 7.767518,13.367178 10.188723,13.270198 Q 12.609928,13.173219 14.595682,14.046013 Q 16.382564,14.831397 16.382564,15.799571" />
      <path d="M 16.382564,15.799571 Q 16.382564,15.888124 16.367615,15.978205 Q 16.189233,17.05318 13.915592,18.064464 Q 11.518599,19.130613 9.097394,19.227592 Q 6.676189,19.324572 4.672659,18.443965" />
      <line x1="3.250805" y1="5.830357" x2="3.250805" y2="9.418124" />
      <line x1="-9.597857" y1="11.834292" x2="-9.597857" y2="15.133028" />
      <line x1="3.250805" y1="9.418124" x2="-9.597857" y2="15.133028" />
      <line x1="4.740149" y1="6.484965" x2="4.740149" y2="10.072732" />
      <line x1="4.740149" y1="10.072732" x2="3.250805" y2="9.418124" />
      <line x1="-9.597857" y1="15.133028" x2="-8.108513" y2="15.787636" />
      <line x1="-8.108513" y1="15.787636" x2="4.740149" y2="10.072732" />
      <line x1="6.903204" y1="7.435688" x2="6.903204" y2="11.023455" />
      <line x1="-5.945458" y1="14.82554" x2="-5.945458" y2="16.738359" />
      <line x1="6.903204" y1="11.023455" x2="-5.945458" y2="16.738359" />
      <line x1="8.392548" y1="8.090296" x2="8.392548" y2="11.678063" />
      <line x1="8.392548" y1="11.678063" x2="6.903204" y2="11.023455" />
      <line x1="-5.945458" y1="16.738359" x2="-4.456114" y2="17.392967" />
      <line x1="-4.456114" y1="17.392967" x2="8.392548" y2="11.678063" />
      <line x1="-10.387384" y1="8.130731" x2="-5.15699" y2="10.429634" />
      <path d="M -10.387384,8.130731 Q -11.626553,8.763179 -11.626503,9.447689" />
      <path d="M -11.626503,9.447689 Q -11.626503,10.079874 -10.547896,10.553951 Q -9.430903,11.044901 -7.893209,11.003811 Q -6.355516,10.962722 -5.15699,10.429634" />
      <path d="M 6.04754,17.848106 Q 7.306426,18.401422 8.976121,18.278066 Q 10.645816,18.15471 12.355421,17.394301 Q 13.976901,16.673089 14.219406,15.930232 Q 14.259524,15.80734 14.259524,15.690062" />
      <path d="M 14.259524,15.690062 Q 14.259524,15.098419 13.238519,14.649659 Q 11.997409,14.104157 10.327633,14.219689 Q 8.657857,14.335222 6.983479,15.079962 Q 5.3091,15.824702 5.057765,16.563653 Q 5.015439,16.688096 5.015439,16.807053" />
      <path d="M 5.015439,16.807053 Q 5.015439,17.394469 6.04754,17.848106" />
      <path d="M 3.947275,1.616467 Q 5.206162,2.169783 6.875856,2.046427 Q 8.545551,1.92307 10.255157,1.162662 Q 11.876637,0.44145 12.119142,-0.301407 Q 12.15926,-0.424299 12.15926,-0.541577" />
      <path d="M 12.15926,-0.541577 Q 12.15926,-1.13322 11.138255,-1.58198 Q 9.897145,-2.127482 8.227369,-2.01195 Q 6.557592,-1.896417 4.883214,-1.151677 Q 3.208836,-0.406937 2.9575,0.332014 Q 2.915174,0.456457 2.915174,0.575414" />
      <path d="M 2.915174,0.575414 Q 2.915174,1.16283 3.947275,1.616467" />
      <path d="M 22.882991,9.923664 Q 24.070888,10.445778 25.758277,10.322411 Q 27.445667,10.199045 29.102432,9.462139 Q 30.706299,8.748762 30.96647,8.005881 Q 31.013793,7.870756 31.013793,7.743192" />
      <path d="M 31.013793,7.743192 Q 31.013793,7.169447 30.056462,6.748674 Q 28.833071,6.210959 27.110215,6.318738 Q 25.387359,6.426516 23.765822,7.147753 Q 22.161955,7.86113 21.919636,8.627434 Q 21.879085,8.755673 21.879085,8.877293" />
      <path d="M 21.879085,8.877293 Q 21.879085,9.48242 22.882991,9.923664" />
      <path d="M 7.955982,14.700341 Q 8.44529,14.729517 8.976121,14.690299 Q 10.136371,14.604581 11.315893,14.211249" />
      <line x1="2.572394" y1="2.212326" x2="2.572394" y2="-1.37544" />
      <line x1="14.494518" y1="3.290922" x2="14.494518" y2="1.973874" />
      <line x1="6.04754" y1="15.562146" x2="6.04754" y2="17.848106" />
      <path d="M 12.767168,4.655416 L 12.767168,2.742176" />
      <path d="M -13.634878,6.611827 L -13.634878,9.409599" />
      <path d="M -0.193753,4.926589 L -0.193753,8.514355" />
      <path d="M 2.900508,14.120845 L 2.900508,16.706348" />
      <path d="M 16.382564,12.211805 L 16.382564,15.799571" />
      <path d="M 12.15926,-0.541577 L 12.15926,-2.325209" />
      <path d="M 2.915174,0.575414 L 2.915174,-1.631338" />
      <path d="M 31.013793,7.743192 L 31.013793,5.957195" />
      <path d="M 21.879085,8.877293 L 21.879085,6.626332" />
    </g>
    <g fill="none" stroke="rgb(99,99,99)" stroke-width="0.08913290131063521" id="Hidden" stroke-dasharray="0.002264 0.268531">
      <path d="M -2.380528,7.002379 Q -7.756163,9.393386 -11.887311,7.577632 Q -13.634878,6.809528 -13.634878,5.821832" />
      <path d="M -13.634878,5.821832 Q -13.634878,5.717256 -13.615287,5.610219 Q -13.410666,4.492236 -11.137025,3.480952 Q -9.806177,2.88901 -8.415656,2.614333" />
      <path d="M -0.193753,4.926589 Q -0.193753,5.641407 -1.253728,6.328684" />
      <line x1="-2.380528" y1="7.002379" x2="-9.224411" y2="3.994302" />
      <line x1="-2.743014" y1="5.674101" x2="-1.253728" y2="6.328684" />
      <path d="M -2.743014,5.674101 Q -2.245058,5.230467 -2.245058,4.83616" />
      <path d="M -2.245058,4.83616 Q -2.245058,4.256431 -3.32145,3.783326 Q -4.580279,3.230036 -6.161954,3.298548 Q -7.743629,3.367059 -9.224411,3.994302" />
      <line x1="-21.264318" y1="6.417528" x2="-8.415656" y2="0.702624" />
      <line x1="-22.913187" y1="5.692805" x2="-21.264318" y2="6.417528" />
      <line x1="-18.5077" y1="1.441442" x2="-22.564819" y2="-0.341774" />
      <line x1="-17.361301" y1="3.223404" x2="-21.41842" y2="5.027953" />
      <line x1="-22.564819" y1="-0.341774" x2="-16.71333" y2="-2.944434" />
      <line x1="-24.010106" y1="0.301069" x2="-17.361301" y2="3.223404" />
      <line x1="-29.561992" y1="2.77047" x2="-24.010106" y2="0.301069" />
      <line x1="-31.210919" y1="2.045721" x2="-29.561992" y2="2.77047" />
      <path d="M 4.672659,14.856199 Q 2.900508,14.077289 2.900508,13.118582" />
      <path d="M 2.900508,13.118582 Q 2.900508,13.022197 2.91842,12.923995 Q 3.114497,11.84901 5.441008,10.814211 Q 6.898203,10.166071 8.392548,9.885844" />
      <path d="M 16.382564,12.211805 Q 16.382564,12.300357 16.367615,12.390439 Q 16.189233,13.465414 13.915592,14.476697 Q 11.518599,15.542846 9.097394,15.639826 Q 6.676189,15.736806 4.672659,14.856199" />
      <line x1="-0.193753" y1="7.362448" x2="-9.597857" y2="11.545262" />
      <line x1="-9.597857" y1="11.545262" x2="-8.108513" y2="12.19987" />
      <line x1="-8.108513" y1="12.19987" x2="4.740149" y2="6.484965" />
      <line x1="4.740149" y1="8.397785" x2="-5.945458" y2="13.150593" />
      <line x1="-5.945458" y1="13.150593" x2="-4.456114" y2="13.805201" />
      <line x1="-4.456114" y1="13.805201" x2="8.392548" y2="8.090296" />
      <line x1="-49.097827" y1="-7.802963" x2="7.638646" y2="17.134293" />
      <line x1="7.638646" y1="17.134293" x2="7.638646" y2="26.103708" />
      <line x1="49.93873" y1="-1.680191" x2="7.638646" y2="17.134293" />
      <path d="M 2.490991,-1.411737 Q 0.800243,-2.176628 0.800243,-3.113057" />
      <path d="M 0.800243,-3.113057 Q 0.800243,-3.209442 0.818155,-3.307644 Q 1.014233,-4.382629 3.340743,-5.417428 Q 5.667253,-6.452227 8.088458,-6.549207 Q 10.509664,-6.646187 12.495417,-5.773393 Q 14.282299,-4.988008 14.282299,-4.019834" />
      <path d="M 14.282299,-4.019834 Q 14.282299,-3.931282 14.267351,-3.8412 Q 14.122652,-2.969212 12.59928,-2.139134" />
      <path d="M 12.15926,-1.914049 Q 11.993745,-1.834299 11.815328,-1.754942 Q 9.418334,-0.688793 6.997129,-0.591813 Q 4.781229,-0.503057 2.915174,-1.233128" />
      <line x1="-7.159158" y1="0.89639" x2="-7.159158" y2="-2.691376" />
      <line x1="-5.315269" y1="-0.404499" x2="-5.315269" y2="-1.880936" />
      <line x1="-7.159158" y1="-2.691376" x2="-5.315269" y2="-1.880936" />
      <line x1="0.899046" y1="-5.857879" x2="0.899046" y2="-8.37655" />
      <line x1="0.899046" y1="-8.37655" x2="-7.159158" y2="-2.691376" />
      <line x1="-12.478202" y1="-3.604945" x2="-12.478202" y2="-5.029244" />
      <line x1="-12.478202" y1="-5.029244" x2="0.899046" y2="-8.37655" />
      <line x1="-14.251217" y1="-2.220767" x2="-14.251217" y2="-5.808533" />
      <line x1="-14.251217" y1="-5.808533" x2="-12.478202" y2="-5.029244" />
      <line x1="-6.68948" y1="-9.235139" x2="-6.68948" y2="-11.711918" />
      <line x1="-6.68948" y1="-11.711918" x2="-14.251217" y2="-5.808533" />
      <line x1="-19.552543" y1="-5.847008" x2="-19.552543" y2="-8.138613" />
      <line x1="-19.552543" y1="-8.138613" x2="-6.68948" y2="-11.711918" />
      <line x1="-21.39649" y1="-5.361313" x2="-21.39649" y2="-8.949079" />
      <line x1="-21.39649" y1="-8.949079" x2="-19.552543" y2="-8.138613" />
      <line x1="-5.232313" y1="-9.618957" x2="-5.232313" y2="-13.206723" />
      <line x1="-5.232313" y1="-13.206723" x2="-21.39649" y2="-8.949079" />
      <line x1="-3.423803" y1="-8.824066" x2="-3.423803" y2="-12.411833" />
      <line x1="-3.423803" y1="-12.411833" x2="-5.232313" y2="-13.206723" />
      <line x1="-11.091231" y1="-4.687742" x2="-11.091231" y2="-6.44582" />
      <line x1="-11.091231" y1="-6.44582" x2="-3.423803" y2="-12.411833" />
      <line x1="2.444864" y1="-6.244624" x2="2.444864" y2="-9.83239" />
      <line x1="2.444864" y1="-9.83239" x2="-11.091231" y2="-6.44582" />
      <line x1="4.253316" y1="-5.449759" x2="4.253316" y2="-9.037525" />
      <line x1="4.253316" y1="-9.037525" x2="2.444864" y2="-9.83239" />
      <line x1="-5.315269" y1="-1.880936" x2="4.253316" y2="-9.037525" />
      <line x1="12.820127" y1="4.880382" x2="12.820127" y2="3.081944" />
      <line x1="11.603207" y1="3.259889" x2="11.603207" y2="0.879386" />
      <path d="M 12.820127,3.081944 L 12.767168,3.064407" />
      <path d="M 12.362729,2.922064 Q 12.267481,2.88582 12.199888,2.85611 Q 11.490682,2.544395 11.346166,2.083436 Q 11.307921,1.961446 11.307921,1.819695" />
      <path d="M 11.307921,1.819695 Q 11.307921,1.425822 11.603207,0.879386" />
      <line x1="9.928829" y1="4.004629" x2="9.928829" y2="1.624126" />
      <line x1="9.928829" y1="1.624126" x2="11.603207" y2="0.879386" />
      <line x1="8.563631" y1="4.61185" x2="8.563631" y2="1.024083" />
      <line x1="8.563631" y1="1.024083" x2="9.928829" y2="1.624126" />
      <line x1="17.799161" y1="0.504016" x2="17.799161" y2="-3.08375" />
      <line x1="17.799161" y1="-3.08375" x2="8.563631" y2="1.024083" />
      <line x1="19.288504" y1="1.158624" x2="19.288504" y2="-2.429142" />
      <line x1="19.288504" y1="-2.429142" x2="17.799161" y2="-3.08375" />
      <line x1="14.494518" y1="-0.296845" x2="19.288504" y2="-2.429142" />
      <line x1="14.318255" y1="6.003365" x2="14.318255" y2="2.415598" />
      <path d="M 14.494518,-0.296845 Q 12.767168,0.471456 12.767168,1.067649" />
      <path d="M 12.767168,1.067649 Q 12.767168,1.09804 12.771656,1.127984 Q 12.864196,1.745347 14.318255,2.415598" />
      <line x1="12.820127" y1="3.081944" x2="14.318255" y2="2.415598" />
      <line x1="25.54214" y1="10.335667" x2="25.54214" y2="7.45794" />
      <line x1="20.765767" y1="13.17017" x2="20.765767" y2="9.582404" />
      <line x1="25.54214" y1="7.45794" x2="20.765767" y2="9.582404" />
      <line x1="32.557873" y1="7.041891" x2="32.557873" y2="4.478562" />
      <path d="M 25.54214,7.45794 Q 23.550504,7.644692 21.879085,7.078598" />
      <path d="M 21.368374,6.88491 Q 21.314178,6.861592 21.259982,6.838273 Q 19.66362,6.136628 19.66362,5.219712" />
      <path d="M 19.66362,5.219712 Q 19.66362,5.097891 19.691799,4.972271 Q 19.932067,3.901133 22.135197,2.921212 Q 24.479349,1.878566 26.909203,1.75421 Q 29.339058,1.629855 31.218499,2.455922 Q 32.175881,2.876718 32.497278,3.353091 Q 32.674702,3.616068 32.674702,3.931683" />
      <path d="M 32.674702,3.931683 Q 32.674702,4.187792 32.557873,4.478562" />
      <line x1="33.774012" y1="7.525407" x2="33.774012" y2="3.937641" />
      <line x1="33.774012" y1="3.937641" x2="32.557873" y2="4.478562" />
      <line x1="35.086055" y1="8.102086" x2="35.086055" y2="4.51432" />
      <line x1="35.086055" y1="4.51432" x2="33.774012" y2="3.937641" />
      <line x1="22.237393" y1="12.515612" x2="22.237393" y2="10.229224" />
      <line x1="22.237393" y1="10.229224" x2="31.013793" y2="6.325605" />
      <line x1="31.429368" y1="6.140763" x2="35.086055" y2="4.51432" />
      <line x1="20.765767" y1="9.582404" x2="22.237393" y2="10.229224" />
      <line x1="23.685547" y1="3.091246" x2="23.685547" y2="-0.49652" />
      <line x1="10.836885" y1="8.80615" x2="10.836885" y2="5.218384" />
      <line x1="23.685547" y1="-0.49652" x2="10.836885" y2="5.218384" />
      <line x1="25.17489" y1="3.745854" x2="25.17489" y2="0.158088" />
      <line x1="25.17489" y1="0.158088" x2="23.685547" y2="-0.49652" />
      <line x1="12.326229" y1="8.143711" x2="12.326229" y2="5.872992" />
      <line x1="12.326229" y1="5.872992" x2="25.17489" y2="0.158088" />
      <line x1="10.836885" y1="5.218384" x2="12.326229" y2="5.872992" />
      <line x1="-2.380528" y1="7.002379" x2="-2.380528" y2="9.421191" />
      <line x1="-1.253728" y1="6.328684" x2="-1.253728" y2="9.91645" />
      <line x1="-9.224411" y1="3.994302" x2="-9.224411" y2="7.582068" />
      <line x1="-2.743014" y1="5.674101" x2="-2.743014" y2="7.684637" />
      <line x1="-21.264318" y1="6.417528" x2="-21.264318" y2="10.005295" />
      <line x1="-22.564819" y1="-0.341774" x2="-22.564819" y2="3.245992" />
      <line x1="-17.361301" y1="3.223404" x2="-17.361301" y2="6.81117" />
      <line x1="-24.010106" y1="0.301069" x2="-24.010106" y2="3.888835" />
      <line x1="-29.561992" y1="2.77047" x2="-29.561992" y2="6.358236" />
      <line x1="-9.597857" y1="11.545262" x2="-9.597857" y2="11.834292" />
      <line x1="-8.108513" y1="12.19987" x2="-8.108513" y2="15.787636" />
      <line x1="-5.945458" y1="13.150593" x2="-5.945458" y2="14.82554" />
      <line x1="-4.456114" y1="13.805201" x2="-4.456114" y2="17.392967" />
      <path d="M 3.947275,-1.971299 Q 5.206162,-1.417984 6.875856,-1.54134 Q 8.545551,-1.664696 10.255157,-2.425104 Q 11.876637,-3.146316 12.119142,-3.889174 Q 12.15926,-4.012066 12.15926,-4.129343" />
      <path d="M 12.15926,-4.129343 Q 12.15926,-4.720986 11.138255,-5.169746 Q 9.897145,-5.715249 8.227369,-5.599716 Q 6.557592,-5.484184 4.883214,-4.739444 Q 3.208836,-3.994704 2.9575,-3.255753 Q 2.915174,-3.13131 2.915174,-3.012353" />
      <path d="M 2.915174,-3.012353 Q 2.915174,-2.424936 3.947275,-1.971299" />
      <path d="M 22.882991,6.335898 Q 24.070888,6.858012 25.758277,6.734645 Q 27.445667,6.611278 29.102432,5.874373 Q 30.706299,5.160995 30.96647,4.418114 Q 31.013793,4.282989 31.013793,4.155426" />
      <path d="M 31.013793,4.155426 Q 31.013793,3.581681 30.056462,3.160907 Q 28.833071,2.623193 27.110215,2.730971 Q 25.387359,2.83875 23.765822,3.559987 Q 22.161955,4.273364 21.919636,5.039668 Q 21.879085,5.167907 21.879085,5.289527" />
      <path d="M 21.879085,5.289527 Q 21.879085,5.894653 22.882991,6.335898" />
      <line x1="-10.387384" y1="4.542965" x2="-10.387384" y2="8.130731" />
      <line x1="-5.15699" y1="6.841868" x2="-5.15699" y2="10.429634" />
      <line x1="-10.387384" y1="4.542965" x2="-5.15699" y2="6.841868" />
      <path d="M -10.387384,4.542965 Q -11.626553,5.175413 -11.626503,5.859922" />
      <path d="M -11.626503,5.859922 Q -11.626503,6.492107 -10.547896,6.966185 Q -9.430903,7.457134 -7.893209,7.416045 Q -6.355516,7.374955 -5.15699,6.841868" />
      <path d="M 6.04754,14.26034 Q 6.9062,14.637745 7.955982,14.700341" />
      <path d="M 11.315893,14.211249 Q 11.833799,14.038545 12.355421,13.806535 Q 13.976901,13.085323 14.219406,12.342465 Q 14.259524,12.219573 14.259524,12.102296" />
      <path d="M 14.259524,12.102296 Q 14.259524,11.510653 13.238519,11.061893 Q 11.997409,10.51639 10.327633,10.631923 Q 8.657857,10.747455 6.983479,11.492195 Q 5.3091,12.236935 5.057765,12.975886 Q 5.015439,13.100329 5.015439,13.219286" />
      <path d="M 5.015439,13.219286 Q 5.015439,13.806703 6.04754,14.26034" />
      <path d="M 0.800243,0.474709 L 0.800243,-3.113057" />
      <path d="M 14.282299,-0.432068 L 14.282299,-4.019834" />
      <path d="M 11.307921,5.407462 L 11.307921,1.819695" />
      <path d="M 12.767168,2.742176 L 12.767168,1.067649" />
      <path d="M 19.66362,8.807478 L 19.66362,5.219712" />
      <path d="M 32.674702,7.519449 L 32.674702,3.931683" />
      <path d="M -13.634878,5.821832 L -13.634878,6.611827" />
      <path d="M -2.245058,4.83616 L -2.245058,8.423926" />
      <path d="M 2.900508,13.118582 L 2.900508,14.120845" />
      <path d="M 12.15926,-2.325209 L 12.15926,-4.129343" />
      <path d="M 2.915174,-1.631338 L 2.915174,-3.012353" />
      <path d="M 31.013793,5.957195 L 31.013793,4.155426" />
      <path d="M 21.879085,6.626332 L 21.879085,5.289527" />
      <path d="M -11.626503,5.859922 L -11.626503,9.447689" />
      <path d="M 14.259524,12.102296 L 14.259524,15.690062" />
      <path d="M 5.015439,13.219286 L 5.015439,16.807053" />
    </g>
  </g>
</svg>