<?xml version="1.0" encoding="UTF-8" standalone="no"?>
    <svg
    xmlns:svg="http://www.w3.org/2000/svg"
    xmlns="http://www.w3.org/2000/svg"
    width="685"
    height="315"
    >
        <g transform="scale(4, -4)   translate(69.98943668548662,-42.41108297644406)" stroke-width="0.25"  fill="none">
        <!-- hidden lines -->
        <g  stroke="rgb(160,160,160)" fill="none" stroke-dasharray="0.25,0.25" >
    			<path d="M74.3090044926101,31.481962637869096 L74.3090044926101,39.91108297644405 " />
			<path d="M98.93480154245317,2.0432727271972375 L74.30900449261011,31.481962637869092 " />
			<path d="M1.357634149408156,13.815370045073522 L74.30900449261011,31.4819626378691 " />
			<path d="M-9.274632347476981,18.332072707726226 L-9.356800876893107,18.310624507392504 L-9.438248126586974,18.28625222535705 L-9.518961830902363,18.258959531995888 L-9.598929834652292,18.22875053748825 L-9.678140094949544,18.195629791197586 L-9.756580683020275,18.159602280986466 L-9.834239786000447,18.120673432465402 L-9.911105708714807,18.0788491081758 L-9.987166875438128,18.034135606707043 L-10.062411831638475,17.986539661747994 L-10.136829245702216,17.93606844107289 L-10.210407910640528,17.882729545461906 L-10.28313674577711,17.82653100755654 L-10.355004798416907,17.76748129064988 L-10.426001245495545,17.705589287412085 L-10.496115395209241,17.640864318551195 L-10.565336688624946,17.573316131409438 L-10.633654701270487,17.502954898495343 L-10.701059144704455,17.429791215951763 L-10.767539868065601,17.353836101960184 L-10.83308685960152,17.275100995081385 L-10.897690248176392,17.193597752532852 L-10.961340304757524,17.109338648403117 L-11.024027443880518,17.02233637180334 L-11.085742225092808,16.932604024956355 L-11.146475354375342,16.84015512122353 L-11.206217685542248,16.745003583069717 L-11.2649602216182,16.64716373996657 L-11.32269411619334,16.54665032623457 L-11.379410674755501,16.44347847882411 L-11.43510135599959,16.33766373503592 L-11.489757773113855,16.229222030181194 L-11.54337169504292,16.1181696951818 L-11.595935047727352,16.00452345411091 L-11.697878541375989,15.769518100633462 L-11.795526847111105,15.524347528186375 L-11.888821145244634,15.26915941835497 L-11.977705238779876,15.004107486914506 L-12.062125587262475,14.72935139123756 L-12.142031339031185,14.44505663412237 L-12.21737436184901,14.15139446410016 L-12.288109271896264,13.848541772281417 L-12.35419346110808,13.536680985803299 L-12.415587122839923,13.215999957942353 L-12.472253275845624,12.886691854958729 L-12.524157786553499,12.54895503974004 L-12.57126938962713,12.202992952314982 L-12.613559706798439,11.84901398730866 L-12.651003263961703,11.487231368413472 L-12.68357750651819,11.117863019951116 L-12.711262812962213,10.741131435603133 L-12.73404250670039,10.357263544389035 L-12.751902866097002,9.966490573972742 L-12.76483313273939,9.56904791137969 L-12.772825517918424,9.165174961208493 L-12.775875207320123,8.75511500142254 L-12.77398036392563,8.339115036808487 L-12.76714212911775,7.917425650189767 L-12.755364621993436,7.490300851484909 L-12.73865493688259,7.057997924701423 L-12.717023139074705,6.6207772729575565 L-12.690482258755917,6.178902261625182 L-12.659048283160104,5.732639059688358 L-12.62274014693877,5.282256479413073 L-12.58157972075553,4.828025814424804 L-12.535591798112025,4.370220676291355 L-12.484804080413259,3.9091168297094976 L-12.429247160281296,3.444992026394634 L-12.368954503127421,2.97812583777354 L-12.303962426993811,2.508799486580986 L-12.234310080676924,2.037295677461687 L-12.160039420145706,1.5638984266795948 L-12.081195183268907,1.088892891037112 L-11.99782486286664,0.6125651961073137 L-11.909978678102505,0.13520226388258894 L-11.817709544233422,-0.3429083600564433 L-11.721073040735467,-0.8214786797476294 L-11.620127377824875,-1.3002204223252853 L-11.51493336139438,-1.7788452116649927 L-11.405554356386027,-2.257064742090583 L-11.292056248622487,-2.734590952038703 L-11.17450740511991,-3.21113619757634 L-11.052978632906182,-3.6864134256667604 L-10.927543136369437,-4.1601363470795185 L-10.798276473162453,-4.632019608840393 L-10.66525650868955,-5.101778966117353 L-10.528563369203393,-5.56913145343901 L-10.388279393539925,-6.0337955551424365 L-10.244489083520524,-6.49549137494768 L-10.097279053051281,-6.953940804556805 L-9.946737975950018,-7.408867691175938 L-9.792956532532482,-7.859998003859398 L-9.636027354989935,-8.307059998575669 L-9.476044971590962,-8.749784381895864 L-9.313105749741197,-9.187904473206002 L-9.147307837935196,-9.621156365345442 L-8.978751106635448,-10.049279083574683 L-8.807537088114142,-10.472014742776816 L-8.633768915293931,-10.889108702797834 L-8.457551259624514,-11.300309721832365 L-8.278990268032466,-11.705370107762349 L-8.09819349898229,-12.104045867357474 L-7.915269857687241,-12.496096853247614 L-7.730329530508874,-12.8812869085786 L-7.54348391858492,-13.259384009264283 L-7.354845570725398,-13.63016040374917 L-7.164528115617411,-13.993392750197442 L-6.972646193379489,-14.34886225102574 L-6.77931538650666,-14.696354784698629 L-6.58465215024788,-15.035661034707395 L-6.38877374245775,-15.36657661565451 L-6.191798152964753,-15.68890219636775 L-5.9938440324986075,-16.002443619969817 L-5.795030621219503,-16.307012020831202 L-5.595477676892278,-16.60242393833578 L-5.395305402748832,-16.888501427390608 L-5.194634375082184,-17.1650721656134 L-4.993585470615829,-17.431969557133097 L-4.792279793692117,-17.689032832940985 L-4.590838603323521,-17.936107147731935 L-4.389383240150748,-18.173043673177414 L-4.18803505335167,-18.39969968757413 L-3.9869153275451246,-18.61593866181422 L-3.7861452097335833,-18.821630341625298 L-3.585845636328739,-19.016650826030748 L-3.386137260303928,-19.20088264198306 L-3.1871403785172885,-19.374214815125168 L-2.988974859249438,-19.536542936637286 L-2.890241184433589,-19.61354966109905 L-2.791760069999293,-19.687769226128847 L-2.693546346840137,-19.759190454533183 L-2.5956148055815658,-19.82780259053778 L-2.497980194353481,-19.893595301407316 L-2.4006572165692015,-19.95655867900155 L-2.3036605287111986,-20.0166832412674 L-2.207004738123883,-20.07395993366696 L-2.110704400813788,-20.128380130541025 L-2.0147740192574934,-20.179935636408125 L-1.9192280402176007,-20.228618687198704 L-1.824080852567108,-20.274421951424394 L-1.7293467851224973,-20.317338531282072 L-1.6350401044858658,-20.357361963692675 L-1.5411750128964297,-20.3944862212745 L-1.44776564609172,-20.428705713250906 L-1.354826071178791,-20.460015286292272 L-1.2623702845157654,-20.488410225292064 L-1.170412209604037,-20.513886254076912 L-1.0789656949914366,-20.536439536050597 L-0.9880445121867005,-20.556066674771795 L-0.897662353585523,-20.572764714465627 L-0.80783283040854,-20.586531140468722 L-0.7185694706515195,-20.597363879607965 L-0.6298857170481043,-20.60526130051269 L-0.5417949250453882,-20.610222213860354 L-0.45431036079261844,-20.61224587255566 L-0.36744519914337825,-20.611331971843047 L-0.2812125216714998,-20.6074806493526 L-0.19562531470102051,-20.600692485079325 L-0.1106964673504951,-20.590968501295787 L-0.026438769591941913,-20.578310162398186 L0.057135089675282025,-20.562719374685784 L0.14001252453534807,-20.54419848607388 " />

        </g>

        <!-- solid lines -->
        <g  stroke="rgb(0,0,0)" fill="none">
    			<path d="M25.983431199251225,-15.62331986559834 L25.983431199251225,-7.1941995270233825 " />
			<path d="M25.983431199251225,-7.194199527023379 L1.3576341494081632,22.244490383648476 " />
			<path d="M1.357634149408156,13.815370045073522 L1.357634149408156,22.24449038364848 " />
			<path d="M25.983431199251225,-15.62331986559834 L1.3576341494081632,13.815370045073514 " />
			<path d="M98.93480154245317,2.0432727271972375 L98.93480154245317,10.472393065772195 " />
			<path d="M98.93480154245317,10.472393065772195 L74.30900449261011,39.91108297644405 " />
			<path d="M25.983431199251225,-15.62331986559834 L98.93480154245319,2.0432727271972375 " />
			<path d="M25.983431199251225,-7.194199527023379 L98.93480154245319,10.472393065772199 " />
			<path d="M1.357634149408156,22.24449038364848 L74.30900449261011,39.91108297644406 " />
			<path d="M-4.567309911470796,15.752177787976088 L-4.723963043273468,15.936377213980691 L-4.880559116791586,16.11436921606928 L-5.03704109452312,16.28608896363051 L-5.1933519805235395,16.45147391061692 L-5.3494348411656,16.610463818326227 L-5.505232825876474,16.76300077734231 L-5.660689187844663,16.90902922862777 L-5.81574730468901,17.048495983760308 L-5.970350699082491,17.18135024430578 L-6.124443059323157,17.307543620320658 L-6.27796825984468,17.427030147977245 L-6.430870381659183,17.539766306305246 L-6.583093732724812,17.64571103304357 L-6.734582868230591,17.744825739596525 L-6.885282610791286,17.837074325089112 L-7.03513807054487,17.92242318951615 L-7.184094665145194,18.000841245980514 L-7.332098139642716,18.072299932016016 L-7.479094586245975,18.13677321999081 L-7.625030463956575,18.194237626587544 L-7.769852618070598,18.2446722213567 L-7.913508299539357,18.28805863434025 L-8.055945184182303,18.324381062762516 L-8.197111391745258,18.353626276786148 L-8.33695550479695,18.375783624330815 L-8.475426587456912,18.390845034953063 L-8.61247420394804,18.398805022785858 L-8.748048436967013,18.39966068853669 L-8.882099905865783,18.39341172054361 L-9.014579784637684,18.38006039488876 L-9.145439819701497,18.35961157456931 L-9.27463234747692,18.33207270772624 " />
			<path d="M0.14001252453537827,-20.544198486073874 L0.27204808033202443,-20.50820115947055 L0.40219176216004815,-20.464618859738277 L0.5303926923112368,-20.413468624719357 L0.6566007525668294,-20.35477045082619 L0.7807666037904699,-20.288547285223952 L0.902841705216602,-20.21482501685976 L1.022778333426749,-20.133632466341776 L1.1405296010062598,-20.045001374672218 L1.256049474874244,-19.94896639083871 L1.3692927942795041,-19.84556505826876 L1.4802152884554483,-19.73483780015275 L1.5887735939270824,-19.616827903641084 L1.694925271463303,-19.491581502921736 L1.7986288226678786,-19.359147561184766 L1.899843706202617,-19.219577851480953 L1.998530353636391,-19.072926936481814 L2.09465018491382,-18.91925214714926 L2.188165623437559,-18.758613560322807 L2.279040110758306,-18.59107397523355 L2.3672381208667668,-18.416698888953675 L2.452725174082026,-18.23555647079139 L2.535467850530848,-18.04771753564118 L2.6154338032126745,-17.85325551629977 L2.6925917706451905,-17.65224643475869 L2.7669115890855416,-17.444768872484634 L2.838364204322385,-17.230903939699207 L2.906921683034197,-17.010735243670112 L2.9725572237093782,-16.78434885602615 L3.0352451671239145,-16.55183327910882 L3.0949610063724453,-16.313279411373674 L3.1516813964488843,-16.06878051185491 L3.2053841633727824,-15.818432163707188 L3.256048312857927,-15.562332236838817 L3.303654038519727,-15.300580849650991 L3.3481827296182267,-15.033280329898048 L3.3896169783336925,-14.760535174683934 L3.427940586571939,-14.48245200961066 L3.4631385722967227,-14.199139547094626 L3.495197175386757,-13.910708543867147 L3.524103863015007,-13.617271757675766 L3.5498473345482218,-13.31894390320334 L3.572417525964738,-13.015841607222056 L3.591805613788864,-12.708083362999929 L3.608004018540285,-12.395789483977673 L3.6210064076971307,-12.079082056733984 L3.6308076981716066,-11.758084893257625 L3.6374040582971254,-11.43292348254498 L3.640792909326251,-11.103724941542064 L3.6409729264388204,-10.770617965450029 L3.637944039259862,-10.433732777413741 L3.6317074318871025,-10.093201077613006 L3.622265542428069,-9.749155991776368 L3.6096220620469452,-9.40173201913762 L3.5937819335215604,-9.051064979855344 L3.5747513493110947,-8.69729196191609 L3.552537749135226,-8.340551267541883 L3.5271498170656823,-7.98098235912306 L3.498597478131339,-7.618725804697553 L3.4668918944381737,-7.253923222997937 L3.432045460805611,-6.8867172280877265 L3.39407179992096,-6.517251373608557 L3.3529857570138235,-6.1456700966600515 L3.3088033940525827,-5.772118661334323 L3.2615419834652153,-5.396743101927184 L3.2112200013868932,-5.019690165848192 L3.157857120437021,-4.641107256251996 L3.1014742020285215,-4.261142374413341 L3.0420932882123903,-3.879944061868139 L2.9797375930606718,-3.4976613423434237 L2.9144314935912767,-3.1144436634987698 L2.8462005202381597,-2.7304408385019894 L2.775071346870571,-2.3458029874619304 L2.7010717803653215,-1.9606804787412897 L2.624230749736091,-1.5752238701723706 L2.5445782948240767,-1.1895838501987674 L2.462145554554369,-0.8039111789659961 L2.3769647547626542,-0.41835662938408924 L2.2890691955970155,-0.03307092818520374 L2.1984932384997418,0.3517953030007228 L2.1052722927742353,0.736091606529222 L2.0094428017422867,1.1196677475604426 L1.9110422284971023,1.502373772791191 L1.810109041257677,1.8840600690769156 L1.706682698330222,2.2645774219207047 L1.6008036326825383,2.6437770738064414 L1.4925132361373539,3.021510782353314 L1.3818538431908198,3.397630878268931 L1.2688687144624815,3.7719903230783904 L1.1536020197831753,4.144442766606802 L1.0360988209275135,4.514842604192642 L0.9164050539976678,4.883045033609671 L0.7945675114653374,5.248906111675223 L0.6706338238789336,5.612282810522604 L0.5446524412431444,5.973033073515686 L0.41667261407812983,6.331015870783791 L0.28674437416577714,6.686091254355203 L0.15491851499052967,7.038120412867711 L0.021246571882445053,7.386965725834809 L-0.11421919812976888,7.732490817446365 L-0.25142583674785257,8.074560609882667 L-0.3903197051072347,8.413041376121065 L-0.5308465047463464,8.747800792214546 L-0.672951298833774,9.078707989021755 L-0.8165785336449951,9.405633603368338 L-0.9616720602802595,9.72844982861951 L-1.1081751566151654,10.047030464644127 L-1.2560305494753026,10.36125096715073 L-1.4051804370263494,10.670988496376259 L-1.5555665113708206,10.97612196510839 L-1.7071299813426624,11.27653208602277 L-1.8598115954907661,11.572101418316576 L-2.01355166524243,11.862714413620235 L-2.168290088237725,12.148257461169344 L-2.3239663718255827,12.428618932219036 L-2.480519656712481,12.703689223683579 L-2.637888740754483,12.973360800984022 L-2.796012102883282,13.237528240087265 L-2.9548279271569418,13.496088268719948 L-3.1142741269258973,13.748939806741204 L-3.274288369104801,13.995984005658421 L-3.4348080985406932,14.237124287270564 L-3.5957705624680067,14.472266381423953 L-3.7571128350408025,14.70131836286578 L-3.9187718419326854,14.924190687180879 L-4.0806843849947585,15.140796225797768 L-4.242787166961985,15.351050300050257 L-4.405016816198302,15.55487071428129 L-4.5673099114707245,15.752177787976002 " />
			<path d="M-59.28083766887226,2.5022333433794053 L-59.43749080067494,2.686432769384009 L-59.59408687419305,2.864424771472599 L-59.750568851924584,3.0361445190338294 L-59.906879737925,3.2015294660202365 L-60.06296259856707,3.360519373729545 L-60.21876058327794,3.5130563327456272 L-60.374216945246125,3.659084784031087 L-60.52927506209048,3.7985515391636255 L-60.68387845648395,3.931405799709097 L-60.83797081672462,4.0575991757239755 L-60.99149601724615,4.177085703380563 L-61.14439813906065,4.289821861708564 L-61.29662149012628,4.395766588446886 L-61.448110625632054,4.494881294999843 L-61.59881036819275,4.58712988049243 L-61.74866582794633,4.6724787449194665 L-61.89762242254666,4.750896801383831 L-62.04562589704418,4.822355487419333 L-62.19262234364744,4.886828775394129 L-62.33855822135804,4.9442931819908615 L-62.483380375472066,4.994727776760019 L-62.627036056940824,5.038114189743567 L-62.76947294158377,5.074436618165834 L-62.910639149146725,5.103681832189466 L-63.05048326219842,5.1258391797341325 L-63.18895434485838,5.140900590356381 L-63.326001961349505,5.148860578189176 L-63.461576194368476,5.149716243940009 L-63.59562766326725,5.143467275946929 L-63.72810754203915,5.130115950292076 L-63.85896757710296,5.109667129972628 L-63.98816010487838,5.082128263129558 " />
			<path d="M-63.988160104878446,5.082128263129544 L-64.07032863429457,5.0606800627958215 L-64.15177588398844,5.036307780760367 L-64.23248958830382,5.009015087399206 L-64.31245759205376,4.978806092891567 L-64.391667852351,4.945685346600904 L-64.47010844042174,4.909657836389783 L-64.54776754340192,4.87072898786872 L-64.62463346611628,4.828904663579117 L-64.70069463283959,4.7841911621103606 L-64.77593958903994,4.7365952171513115 L-64.85035700310368,4.6861239964762085 L-64.92393566804199,4.632785100865224 L-64.99666450317858,4.576586562959857 L-65.06853255581836,4.517536846053197 L-65.139529002897,4.455644842815403 L-65.20964315261071,4.3909198739545126 L-65.27886444602642,4.323371686812756 L-65.34718245867195,4.253010453898661 L-65.41458690210592,4.179846771355081 L-65.48106762546706,4.103891657363501 L-65.54661461700299,4.025156550484702 L-65.61121800557785,3.94365330793617 L-65.67486806215899,3.859394203806435 L-65.73755520128198,3.772391927206659 L-65.79926998249427,3.6826595803596724 L-65.8600031117768,3.590210676626846 L-65.91974544294371,3.495059138473035 L-65.97848797901966,3.3972192953698865 L-66.0362218735948,3.2967058816378874 L-66.09293843215697,3.1935340342274294 L-66.14862911340106,3.0877192904392388 L-66.20328553051532,2.979277585584512 L-66.25689945244439,2.868225250585116 L-66.30946280512882,2.7545790095142273 L-66.41140629877745,2.51957365603678 L-66.50905460451257,2.274403083589693 L-66.6023489026461,2.019214973758288 L-66.69123299618134,1.754163042317824 L-66.77565334466394,1.4794069466408786 L-66.85555909643264,1.1951121895256875 L-66.93090211925048,0.9014500195034785 L-67.00163702929773,0.5985973276847343 L-67.06772121850955,0.28673654120661674 L-67.12911488024139,-0.03394448665432925 L-67.1857810332471,-0.3632525896379537 L-67.23768554395497,-0.7009894048566423 L-67.2847971470286,-1.0469514922816998 L-67.3270874641999,-1.4009304572880215 L-67.36453102136316,-1.7627130761832106 L-67.39710526391966,-2.132081424645566 L-67.42479057036368,-2.508813008993549 L-67.44757026410186,-2.8926809002076475 L-67.46543062349846,-3.2834538706239407 L-67.47836089014086,-3.680896533216993 L-67.48635327531989,-4.08476948338819 L-67.48940296472159,-4.494829443174142 L-67.4875081213271,-4.910829407788196 L-67.48066988651921,-5.332518794406916 L-67.4688923793949,-5.7596435931117735 L-67.45218269428406,-6.191946519895259 L-67.43055089647618,-6.629167171639126 L-67.40401001615739,-7.0710421829715004 L-67.37257604056157,-7.517305384908324 L-67.33626790434023,-7.967687965183609 L-67.295107478157,-8.421918630171877 L-67.24911955551349,-8.879723768305327 L-67.19833183781472,-9.340827614887186 L-67.14277491768276,-9.804952418202049 L-67.08248226052889,-10.271818606823143 L-67.01749018439527,-10.741144958015695 L-66.94783783807839,-11.212648767134995 L-66.87356717754717,-11.686046017917088 L-66.79472294067037,-12.16105155355957 L-66.7113526202681,-12.637379248489369 L-66.62350643550397,-13.114742180714094 L-66.53123730163489,-13.592852804653125 L-66.43460079813693,-14.071423124344312 L-66.33365513522634,-14.550164866921968 L-66.22846111879585,-15.028789656261676 L-66.1190821137875,-15.507009186687265 L-66.00558400602395,-15.984535396635385 L-65.88803516252138,-16.461080642173023 L-65.76650639030765,-16.936357870263443 L-65.6410708937709,-17.4100807916762 L-65.51180423056391,-17.881964053437073 L-65.37878426609102,-18.351723410714037 L-65.24209112660486,-18.819075898035692 L-65.1018071509414,-19.28373999973912 L-64.95801684092199,-19.745435819544362 L-64.81080681045275,-20.203885249153487 L-64.66026573335148,-20.65881213577262 L-64.50648428993395,-21.10994244845608 L-64.3495551123914,-21.557004443172353 L-64.18957272899243,-21.999728826492547 L-64.02663350714266,-22.437848917802683 L-63.86083559533666,-22.871100809942124 L-63.692278864036915,-23.299223528171368 L-63.52106484551561,-23.7219591873735 L-63.3472966726954,-24.139053147394517 L-63.17107901702598,-24.55025416642905 L-62.99251802543393,-24.95531455235903 L-62.811721256383755,-25.353990311954156 L-62.62879761508871,-25.746041297844297 L-62.44385728791034,-26.13123135317528 L-62.257011675986384,-26.509328453860967 L-62.06837332812686,-26.88010484834585 L-61.87805587301888,-27.243337194794123 L-61.686173950780955,-27.59880669562242 L-61.492843143908125,-27.946299229295313 L-61.29817990764935,-28.285605479304078 L-61.102301499859216,-28.616521060251195 L-60.905325910366216,-28.93884664096443 L-60.70737178990007,-29.252388064566496 L-60.50855837862097,-29.556956465427884 L-60.309005434293745,-29.85236838293246 L-60.1088331601503,-30.138445871987287 L-59.908162132483646,-30.41501661021008 L-59.70711322801729,-30.68191400172978 L-59.50580755109358,-30.938977277537667 L-59.304366360724984,-31.186051592328617 L-59.102910997552215,-31.422988117774096 L-58.901562810753134,-31.649644132170813 L-58.70044308494659,-31.8658831064109 L-58.49967296713505,-32.07157478622198 L-58.29937339373021,-32.266595270627434 L-58.09966501770539,-32.45082708657974 L-57.90066813591876,-32.62415925972185 L-57.702502616650904,-32.78648738123397 L-57.60376894183506,-32.863494105695736 L-57.50528782740076,-32.93771367072553 L-57.4070741042416,-33.00913489912986 L-57.309142562983034,-33.077747035134465 L-57.211507951754946,-33.143539746003995 L-57.114184973970666,-33.20650312359823 L-57.01718828611266,-33.26662768586408 L-56.92053249552535,-33.32390437826364 L-56.82423215821525,-33.37832457513771 L-56.72830177665896,-33.42988008100481 L-56.63275579761907,-33.47856313179538 L-56.53760860996857,-33.52436639602108 L-56.44287454252396,-33.567282975878754 L-56.34856786188733,-33.60730640828936 L-56.2547027702979,-33.644430665871184 L-56.16129340349318,-33.678650157847585 L-56.06835382858026,-33.709959730888954 L-55.97589804191723,-33.73835466988875 L-55.8839399670055,-33.763830698673594 L-55.792493452392904,-33.78638398064728 L-55.70157226958817,-33.80601111936848 L-55.61119011098699,-33.82270915906231 L-55.52136058781001,-33.8364755850654 L-55.43209722805298,-33.84730832420465 L-55.34341347444957,-33.85520574510937 L-55.25532268244685,-33.86016665845703 L-55.167838118194084,-33.86219031715234 L-55.08097295654484,-33.86127641643973 L-54.994740279072964,-33.85742509394928 L-54.909153072102484,-33.85063692967601 L-54.82422422475196,-33.84091294589247 L-54.739966526993406,-33.82825460699487 L-54.65639266772618,-33.81266381928246 L-54.573515232866114,-33.79414293067056 " />
			<path d="M-54.573515232866086,-33.79414293067056 L-54.44147967706944,-33.75814560406723 L-54.311335995241414,-33.71456330433496 L-54.18313506509023,-33.663413069316036 L-54.056927004834634,-33.60471489542287 L-53.932761153611,-33.538491729820635 L-53.81068605218486,-33.46476946145644 L-53.690749423974715,-33.38357691093846 L-53.57299815639521,-33.294945819268904 L-53.45747828252722,-33.19891083543539 L-53.34423496312196,-33.09550950286544 L-53.23331246894602,-32.98478224474943 L-53.124754163474385,-32.86677234823777 L-53.01860248593816,-32.74152594751842 L-52.914898934733586,-32.60909200578145 L-52.81368405119885,-32.469522296077635 L-52.714997403765075,-32.3228713810785 L-52.61887757248765,-32.169196591745944 L-52.52536213396391,-32.00855800491949 L-52.43448764664316,-31.84101841983023 L-52.3462896365347,-31.666643333550358 L-52.26080258331944,-31.485500915388073 L-52.178059906870615,-31.297661980237862 L-52.09809395418879,-31.103199960896454 L-52.02093598675627,-30.902190879355373 L-51.94661616831593,-30.694713317081316 L-51.87516355307908,-30.48084838429589 L-51.80660607436727,-30.26067968826679 L-51.740970533692085,-30.034293300622828 L-51.67828259027755,-29.801777723705506 L-51.61856675102902,-29.563223855970357 L-51.56184636095258,-29.318724956451597 L-51.50814359402868,-29.068376608303872 L-51.45747944454354,-28.8122766814355 L-51.40987371888174,-28.550525294247674 L-51.365345027783235,-28.28322477449473 L-51.32391077906777,-28.010479619280616 L-51.28558717082953,-27.73239645420734 L-51.250389185104744,-27.44908399169131 L-51.21833058201471,-27.16065298846383 L-51.18942389438646,-26.86721620227245 L-51.16368042285325,-26.568888347800023 L-51.14111023143673,-26.265786051818736 L-51.1217221436126,-25.95802780759661 L-51.10552373886118,-25.645733928574355 L-51.092521349704334,-25.329026501330667 L-51.08272005922986,-25.008029337854307 L-51.07612369910434,-24.682867927141665 L-51.072734848075214,-24.353669386138748 L-51.072554830962645,-24.02056241004671 L-51.0755837181416,-23.683677222010424 L-51.081820325514364,-23.34314552220969 L-51.0912622149734,-22.99910043637305 L-51.10390569535452,-22.651676463734304 L-51.1197458238799,-22.301009424452026 L-51.13877640809037,-21.947236406512772 L-51.16099000826624,-21.590495712138566 L-51.18637794033578,-21.230926803719743 L-51.21493027927013,-20.868670249294233 L-51.24663586296329,-20.50386766759462 L-51.281482296595854,-20.136661672684408 L-51.31945595748051,-19.767195818205238 L-51.36054200038764,-19.395614541256734 L-51.40472436334888,-19.022063105931004 L-51.45198577393625,-18.646687546523864 L-51.502307756014574,-18.269634610444875 L-51.55567063696444,-17.891051700848678 L-51.612053555372945,-17.511086819010025 L-51.67143446918907,-17.129888506464823 L-51.733790164340796,-16.747605786940106 L-51.799096263810185,-16.36438810809545 L-51.86732723716331,-15.980385283098672 L-51.9384564105309,-15.595747432058612 L-52.01245597703614,-15.210624923337972 L-52.08929700766537,-14.825168314769053 L-52.16894946257739,-14.43952829479545 L-52.2513822028471,-14.05385562356268 L-52.33656300263881,-13.668301073980771 L-52.42445856180445,-13.283015372781886 L-52.51503451890172,-12.89814914159596 L-52.60825546462723,-12.51385283806746 L-52.70408495565918,-12.13027669703624 L-52.80248552890436,-11.74757067180549 L-52.90341871614379,-11.365884375519766 L-53.006845059071246,-10.985367022675977 L-53.11272412471892,-10.60616737079024 L-53.22101452126411,-10.228433662243368 L-53.33167391421065,-9.852313566327751 L-53.44465904293898,-9.477954121518291 L-53.559925737618286,-9.105501677989881 L-53.67742893647395,-8.73510184040404 L-53.7971227034038,-8.366899410987012 L-53.91896024593613,-8.00103833292146 L-54.042893933522535,-7.637661634074078 L-54.16887531615832,-7.276911371080996 L-54.296855143323334,-6.918928573812892 L-54.42678338323569,-6.563853190241479 L-54.55860924241094,-6.2118240317289715 L-54.69228118551902,-5.862978718761873 L-54.82774695553123,-5.517453627150317 L-54.96495359414932,-5.175383834714015 L-55.103847462508696,-4.836903068475618 L-55.244374262147815,-4.502143652382136 L-55.38647905623524,-4.1712364555749275 L-55.53010629104646,-3.844310841228344 L-55.67519981768172,-3.521494615977172 L-55.82170291401663,-3.2029139799525552 L-55.96955830687677,-2.888693477445953 L-56.11870819442782,-2.5789559482204236 L-56.269094268772285,-2.2738224794882917 L-56.420657738744126,-1.9734123585739116 L-56.57333935289223,-1.6778430262801063 L-56.7270794226439,-1.387230030976447 L-56.88181784563919,-1.1016869834273386 L-57.03749412922705,-0.821325512377646 L-57.194047414113946,-0.5462552209131033 L-57.35141649815595,-0.2765836436126605 L-57.50953986028475,-0.012416204509417383 L-57.668355684558406,0.24614382412326563 L-57.827801884327364,0.49899536214452134 L-57.98781612650627,0.746039561061739 L-58.14833585594216,0.987179842673882 L-58.30929831986947,1.2223219368272709 L-58.470640592442265,1.4513739182690983 L-58.632299599334154,1.6742462425841964 L-58.794212142396226,1.8908517812010857 L-58.956314924363454,2.101105855453575 L-59.11854457359976,2.304926269684607 L-59.28083766887219,2.50223334337932 " />
			<path d="M-54.573515232866086,-33.79414293067055 L0.14001252453537916,-20.544198486073874 " />
			<path d="M-63.988160104878446,5.082128263129546 L-9.274632347476981,18.332072707726226 " />

        </g>
        </g>
    </svg>
    