<?xml version="1.0" encoding="UTF-8" standalone="no"?>
    <svg
    xmlns:svg="http://www.w3.org/2000/svg"
    xmlns="http://www.w3.org/2000/svg"
    width="356"
    height="255"
    >
        <g transform="scale(4, -4)   translate(44.52920471455009,-31.93261001031038)" stroke-width="0.25"  fill="none">
        <!-- hidden lines -->
        <g  stroke="rgb(160,160,160)" fill="none" stroke-dasharray="0.25,0.25" >
    			<path d="M6.228155452318482,10.507044254559712 L6.228155452318482,28.40456006482958 " />
			<path d="M-28.963657269600045,11.53509420004051 L-28.963657269600045,29.432610010310377 " />
			<path d="M6.228155452318482,10.507044254559712 L-28.96365726960005,11.53509420004051 " />
			<path d="M14.912344395235042,-4.748546175700971 L14.912344395235042,13.148969634568898 " />
			<path d="M14.912344395235042,-4.748546175700971 L6.228155452318481,10.507044254559712 " />
			<path d="M-28.963657269600045,11.53509420004051 L-42.02920471455009,-3.085126421780563 " />
			<path d="M14.912344395235042,-4.748546175700972 L42.02920471455009,-14.812389388489319 " />

        </g>

        <!-- solid lines -->
        <g  stroke="rgb(0,0,0)" fill="none">
    			<path d="M6.228155452318482,28.40456006482958 L-28.96365726960005,29.43261001031038 " />
			<path d="M14.912344395235042,13.148969634568898 L6.228155452318481,28.40456006482958 " />
			<path d="M-42.02920471455009,-3.0851264217805605 L-42.02920471455009,14.812389388489308 " />
			<path d="M-28.963657269600045,29.432610010310377 L-42.02920471455009,14.812389388489304 " />
			<path d="M-42.02920471455009,-3.0851264217805605 L-14.912344395235039,-13.148969634568903 " />
			<path d="M-6.228155452318482,-28.40456006482959 L-14.912344395235035,-13.148969634568907 " />
			<path d="M28.96365726960005,-29.43261001031039 L-6.228155452318475,-28.40456006482959 " />
			<path d="M42.029204714550104,-14.812389388489322 L28.96365726960005,-29.43261001031039 " />
			<path d="M-42.02920471455009,14.812389388489308 L-14.912344395235039,4.748546175700964 " />
			<path d="M-6.228155452318482,-10.50704425455972 L-14.912344395235035,4.748546175700962 " />
			<path d="M28.96365726960005,-11.535094200040522 L-6.228155452318475,-10.50704425455972 " />
			<path d="M42.029204714550104,3.085126421780547 L28.96365726960005,-11.535094200040524 " />
			<path d="M14.912344395235042,13.148969634568896 L42.02920471455009,3.085126421780549 " />
			<path d="M42.029204714550104,-14.812389388489322 L42.029204714550104,3.085126421780547 " />
			<path d="M-14.912344395235035,-13.148969634568903 L-14.912344395235035,4.748546175700966 " />
			<path d="M28.96365726960005,-29.43261001031039 L28.96365726960005,-11.535094200040522 " />
			<path d="M-6.228155452318482,-28.40456006482959 L-6.228155452318482,-10.50704425455972 " />

        </g>
        </g>
    </svg>
    