<?xml version="1.0" encoding="UTF-8" standalone="no"?>
    <svg
    xmlns:svg="http://www.w3.org/2000/svg"
    xmlns="http://www.w3.org/2000/svg"
    width="500.0"
    height="220.0"
    >
        <g transform="scale(3.331730952121341, -3.331730952121341)   translate(50.42784980787595,-27.119283625603664)" stroke-width="0.3001442836683111"  fill="none">
        <!-- hidden lines -->
        <g  stroke="rgb(160,160,160)" fill="none" stroke-dasharray="0.3001442836683111,0.3001442836683111" >
    			<path d="M-47.42640687119284,-0.7824307536299704 L-47.41854094628192,-0.8304195694407224 L-47.39496792065905,-0.8682925241081918 L-47.35576196378402,-0.8959304553053529 L-47.30104643210196,-0.9132464038756056 L-47.230993480918336,-0.9201858874384641 L-47.14582352273467,-0.9167270718112821 L-47.045804533749276,-0.9028808397076618 L-46.931251210704936,-0.8786907564964075 L-46.80252398073661,-0.844232933128776 L-46.66002786733426,-0.7996157866652434 L-46.50421121598914,-0.744979699155343 L-46.33556428353299,-0.680496575943785 L-46.154617695608664,-0.6063693047926528 L-45.96194077712559,-0.5228311175214397 " />
			<path d="M-47.42640687119284,-7.469034971889891 L-47.42490096467386,-7.414495184339761 L-47.4203841522187,-7.359988249518278 L-47.412859154586286,-7.305547000364831 L-47.402330504553824,-7.251204230252222 L-47.388804544186385,-7.19699267323316 L-47.372289421016745,-7.142944984322491 L-47.35279508313754,-7.089093719827043 L-47.33033327320899,-7.03547131773492 L-47.304917521385484,-6.9821100781760705 L-47.27656313716556,-6.9290421439659 L-47.24528720017004,-6.876299481243637 L-47.21110854985388,-6.823913860217132 L-47.17404777415802,-6.771916836025667 L-47.134127197107944,-6.720339729732322 L-47.091370865366535,-6.669213609457333 L-47.045804533749276,-6.6185692716638265 L-46.99745564971049,-6.568437222607175 L-46.946353336810056,-6.518847659959173 L-46.892528377170414,-6.469830454618085 L-46.836013192934615,-6.4214151327155395 L-46.776841826736394,-6.373630857831083 L-46.7150499211942,-6.326506413425138 L-46.650674697441374,-6.280070185500917 L-46.58375493270557,-6.23435014550576 L-46.44244452859606,-6.14516834147876 L-46.29145913800652,-6.059175848121443 L-46.13116249796764,-5.9765798288823575 L-45.961940777125584,-5.897579264806411 " />
			<path d="M-45.96194077712558,-5.897579264806408 L3.5355339059327466,16.102800634362342 " />
			<path d="M47.42640687119285,-1.1832121435559628 L47.424900964673874,-1.128672356005833 L47.420384152218716,-1.0741654211843492 L47.4128591545863,-1.0197241720309027 L47.40233050455384,-0.9653814019182938 L47.3888045441864,-0.9111698448992314 L47.37228942101676,-0.8571221559885631 L47.35279508313756,-0.8032708914931154 L47.33033327320901,-0.7496484894009918 L47.3049175213855,-0.696287249842142 L47.276563137165574,-0.6432193156319708 L47.245287200170054,-0.5904766529097086 L47.2111085498539,-0.5380910318832043 L47.17404777415803,-0.48609400769173927 L47.13412719710796,-0.43451690139839316 L47.09137086536655,-0.3833907811234044 L47.04580453374929,-0.3327464433298978 L46.9974556497105,-0.28261439427324664 L46.94635333681007,-0.23302483162524446 L46.89252837717043,-0.18400762628415746 L46.83601319293463,-0.1355923043816114 L46.77684182673641,-0.08780802949715505 L46.715049921194215,-0.04068358509120995 L46.65067469744139,0.0057526428330108015 L46.58375493270558,0.05147268282816775 L46.44244452859608,0.1406544868551678 L46.29145913800654,0.22664698021248553 L46.13116249796765,0.30924299945157063 L45.9619407771256,0.38824356352751743 " />
			<path d="M3.535533905932743,16.102800634362342 L3.7132730376303886,16.178015423996662 L3.8991013910472527,16.24926324017309 L4.092571289403313,16.31637244066188 L4.293216646767469,16.379181353520988 L4.500554090899372,16.43753866657792 L4.714084127735491,16.49130379195403 L4.93329234471407,16.540347204753022 L5.157650650040032,16.584550755097755 L5.386618544904381,16.623807952763684 L5.61964442559317,16.658024223723107 L5.856166912349161,16.687117137982288 L6.095616201784839,16.711016608162538 L6.337415439588672,16.72966505834685 L6.580982110217677,16.743017562785315 L6.825729440228391,16.751041954125203 L7.071067811865481,16.75371890090492 L7.316406183502571,16.751041954125203 L7.561153513513284,16.743017562785315 L7.804720184142289,16.72966505834685 L8.046519421946122,16.711016608162538 L8.2859687113818,16.687117137982288 L8.522491198137793,16.658024223723107 L8.75551707882658,16.623807952763684 L8.984484973690929,16.584550755097755 L9.208843279016893,16.54034720475302 L9.428051495995469,16.491303791954035 L9.641581532831589,16.43753866657792 L9.84891897696349,16.379181353520988 L10.049564334327645,16.31637244066188 L10.243034232683707,16.24926324017309 L10.428862586100573,16.178015423996662 L10.606601717798203,16.10280063436235 " />
			<path d="M45.96194077712559,0.3882435635275185 L10.606601717798215,16.10280063436234 " />
			<path d="M4.854351419652111e-15,-7.469034971889891 L7.071067811865481,-4.326123557722927 " />
			<path d="M7.071067811865481,-4.3261235577229264 L4.854351419652111e-15,-1.1832121435559624 " />
			<path d="M-7.07106781186547,-4.3261235577229264 L5.803789616749392e-15,-1.1832121435559624 " />
			<path d="M5.803789616749392e-15,-7.469034971889891 L-7.07106781186547,-4.326123557722927 " />
			<path d="M-45.96194077712558,-0.5228311175214313 L3.5355339059327466,21.477548781647318 " />
			<path d="M7.0710678118654835,23.440323119164855 L7.0710678118654835,24.117840788920553 " />
			<path d="M3.5355339059327435,21.477548781647315 L3.739334922105457,21.57023504299531 L3.9536188025718086,21.67177775315127 L4.177711330966447,21.781857421181858 L4.410907429288796,21.900127695725896 L4.652473376339283,22.026216454743878 L4.901649116277689,22.159726976351596 L5.157650650040031,22.30023918705392 L5.41967250208964,22.447310983451477 L5.686890254741228,22.60047962326148 L5.958463142083909,22.759263181276147 L6.233536695341797,22.9231620656777 L6.511245431348939,23.091660589939067 L6.79071557567952,23.26422859536448 L7.071067811865459,23.44032311916483 " />
			<path d="M47.42640687119285,5.5033920747039575 L47.41854094628194,5.455403258893203 L47.39496792065906,5.417530304225736 L47.35576196378403,5.389892373028575 L47.30104643210197,5.372576424458322 L47.23099348091834,5.365636940895462 L47.145823522734695,5.369095756522646 L47.04580453374928,5.382941988626266 L46.93125121070495,5.4071320718375215 L46.802523980736616,5.441589895205157 L46.660027867334264,5.486207041668684 L46.50421121598915,5.540843129178587 L46.335564283533,5.605326252390146 L46.15461769560867,5.679453523541278 L45.961940777125605,5.7629917108124875 " />
			<path d="M7.071067811865477,23.440323119164848 L7.351420048051436,23.264228595364482 L7.6308901923820125,23.091660589939075 L7.908598928389155,22.923162065677705 L8.183672481647047,22.75926318127615 L8.45524536898972,22.60047962326148 L8.722463121641308,22.44731098345148 L8.984484973690922,22.300239187053922 L9.240486507453266,22.159726976351596 L9.489662247391673,22.026216454743885 L9.731228194442158,21.9001276957259 L9.964424292764505,21.781857421181865 L10.18851682115914,21.671777753151275 L10.402800701625495,21.570235042995314 L10.606601717798203,21.47754878164732 " />
			<path d="M45.96194077712559,5.762991710812495 L10.606601717798215,21.477548781647315 " />
			<path d="M5.329070518200751e-15,1.4888786069184032 L5.329070518200751e-15,-7.469034971889892 " />
			<path d="M7.07106781186548,4.631790021085367 L7.07106781186548,-4.326123557722928 " />
			<path d="M5.329070518200751e-15,1.4888786069184032 L5.329070518200751e-15,-1.1832121435559637 " />
			<path d="M-7.071067811865469,4.631790021085368 L-7.071067811865469,-4.326123557722927 " />

        </g>

        <!-- solid lines -->
        <g  stroke="rgb(0,0,0)" fill="none">
    			<path d="M-10.606601717798208,-19.380299602523216 L-45.961940777125584,-3.6657425316883963 " />
			<path d="M-10.606601717798208,-24.755047749808192 L-45.961940777125584,-9.040490678973372 " />
			<path d="M-7.0710678118654675,-18.71936179809087 L-7.0710678118654675,-14.854260746749812 " />
			<path d="M-10.606601717798208,-19.380299602523216 L-10.402800701625488,-19.458893408757337 L-10.188516821159133,-19.518203093649152 L-9.964424292764498,-19.558042046987538 L-9.731228194442151,-19.578284920686286 L-9.489662247391669,-19.5788680231756 L-9.240486507453255,-19.55978951979932 L-8.98448497369092,-19.521109438587445 L-8.722463121641304,-19.462949481385703 L-8.455245368989718,-19.385492640936576 L-8.18367248164704,-19.28898262511638 L-7.908598928389148,-19.173723090140157 L-7.63089019238201,-19.04007668514686 L-7.351420048051425,-18.888463911171005 L-7.071067811865492,-18.719361798090866 " />
			<path d="M-7.07106781186547,-14.854260746749807 L-43.84062043356594,1.4888786069184066 " />
			<path d="M-47.42640687119284,-0.78243075362996 L-43.84062043356594,1.4888786069184106 " />
			<path d="M-45.96194077712558,-3.6657425316883976 L-46.15461769560867,-3.5681118893033013 L-46.33556428353299,-3.451751592888026 L-46.504211215989145,-3.317027754984263 L-46.66002786733426,-3.16436426662907 L-46.80252398073661,-2.9942414636368717 L-46.931251210704936,-2.807194615285248 L-47.045804533749276,-2.6038122401597925 L-47.14582352273468,-2.3847342544568706 L-47.230993480918336,-2.150649958570558 L-47.301046432101955,-1.9022958682985598 L-47.35576196378402,-1.6404533974910334 L-47.394967920659056,-1.3659463994335295 L-47.41854094628192,-1.0796385746997381 L-47.42640687119284,-0.7824307536299813 " />
			<path d="M-7.07106781186547,-18.719361798090848 L-6.790715575679509,-18.88846391117101 L-6.511245431348929,-19.040076685146857 L-6.233536695341787,-19.173723090140157 L-5.9584631420838985,-19.288982625116383 L-5.6868902547412175,-19.385492640936572 L-5.41967250208963,-19.462949481385703 L-5.15765065004002,-19.521109438587445 L-4.901649116277678,-19.559789519799324 L-4.652473376339272,-19.5788680231756 L-4.410907429288786,-19.578284920686283 L-4.177711330966436,-19.558042046987534 L-3.953618802571798,-19.518203093649152 L-3.739334922105446,-19.458893408757337 L-3.535533905932749,-19.380299602523223 " />
			<path d="M-10.60660171779821,-24.755047749808195 L-10.428862586100562,-24.830262539442515 L-10.243034232683696,-24.901510355618942 L-10.049564334327636,-24.968619556107733 L-9.848918976963482,-25.03142846896684 L-9.64158153283158,-25.089785782023775 L-9.42805149599546,-25.143550907399884 L-9.208843279016882,-25.19259432019887 L-8.984484973690922,-25.236797870543608 L-8.755517078826575,-25.276055068209537 L-8.522491198137786,-25.310271339168956 L-8.285968711381795,-25.339364253428137 L-8.046519421946114,-25.36326372360839 L-7.804720184142277,-25.381912173792703 L-7.561153513513272,-25.395264678231168 L-7.3164061835025604,-25.403289069571056 L-7.071067811865471,-25.405966016350774 L-6.825729440228382,-25.403289069571056 L-6.580982110217669,-25.395264678231168 L-6.337415439588665,-25.381912173792703 L-6.0956162017848285,-25.36326372360839 L-5.856166912349147,-25.33936425342814 L-5.6196444255931555,-25.31027133916896 L-5.386618544904368,-25.276055068209537 L-5.15765065004002,-25.236797870543608 L-4.93329234471406,-25.192594320198875 L-4.714084127735482,-25.143550907399888 L-4.500554090899363,-25.089785782023775 L-4.293216646767461,-25.03142846896684 L-4.092571289403306,-24.968619556107733 L-3.899101391047246,-24.901510355618942 L-3.713273037630382,-24.830262539442515 L-3.5355339059327653,-24.75504774980821 " />
			<path d="M-45.96194077712558,-9.040490678973374 L-46.13116249796764,-8.961490114897423 L-46.29145913800652,-8.878894095658339 L-46.44244452859606,-8.792901602301022 L-46.58375493270557,-8.703719798274022 L-46.650674697441374,-8.657999758278866 L-46.7150499211942,-8.611563530354644 L-46.776841826736394,-8.564439085948699 L-46.836013192934615,-8.516654811064242 L-46.892528377170414,-8.468239489161697 L-46.946353336810056,-8.419222283820611 L-46.99745564971049,-8.369632721172609 L-47.04580453374927,-8.319500672115957 L-47.09137086536653,-8.26885633432245 L-47.134127197107944,-8.217730214047462 L-47.17404777415802,-8.166153107754116 L-47.21110854985388,-8.114156083562651 L-47.24528720017004,-8.061770462536147 L-47.27656313716556,-8.009027799813886 L-47.304917521385484,-7.955959865603713 L-47.33033327320899,-7.902598626044863 L-47.35279508313754,-7.848976223952739 L-47.372289421016745,-7.79512495945729 L-47.388804544186385,-7.741077270546622 L-47.402330504553824,-7.68686571352756 L-47.412859154586286,-7.632522943414951 L-47.4203841522187,-7.578081694261504 L-47.42490096467386,-7.523574759440021 L-47.42640687119284,-7.469034971889911 " />
			<path d="M-3.5355339059327324,-24.755047749808192 L45.96194077712559,-2.7546678506394446 " />
			<path d="M45.96194077712559,-2.7546678506394455 L46.13116249796765,-2.6756672865634954 L46.29145913800654,-2.5930712673244107 L46.44244452859608,-2.507078773967093 L46.58375493270558,-2.4178969699400934 L46.65067469744139,-2.3721769299449367 L46.715049921194215,-2.3257407020207164 L46.77684182673641,-2.278616257614771 L46.83601319293463,-2.230831982730315 L46.89252837717043,-2.182416660827769 L46.94635333681007,-2.133399455486682 L46.9974556497105,-2.08380989283868 L47.04580453374928,-2.033677843782029 L47.09137086536654,-1.9830335059885227 L47.13412719710796,-1.931907385713534 L47.17404777415803,-1.880330279420188 L47.2111085498539,-1.8283332552287233 L47.245287200170054,-1.7759476342022191 L47.276563137165574,-1.7232049714799573 L47.3049175213855,-1.6701370372697846 L47.33033327320901,-1.6167757977109347 L47.35279508313756,-1.5631533956188115 L47.37228942101676,-1.5093021311233619 L47.3888045441864,-1.4552544422126936 L47.40233050455384,-1.4010428851936316 L47.4128591545863,-1.3467001150810227 L47.420384152218716,-1.2922588659275764 L47.424900964673874,-1.237751931106093 L47.42640687119285,-1.183212143555983 " />
			<path d="M-7.071067811865468,-14.854260746749807 L43.84062043356595,7.774701435252337 " />
			<path d="M-3.5355339059327324,-19.380299602523216 L45.96194077712559,2.620080296645531 " />
			<path d="M47.42640687119287,5.5033920747039655 L43.84062043356595,7.774701435252342 " />
			<path d="M45.96194077712559,2.620080296645529 L46.15461769560868,2.717710939030626 L46.335564283533,2.8340712354459003 L46.50421121598915,2.968795073349665 L46.66002786733427,3.121458561704856 L46.80252398073662,3.2915813646970573 L46.93125121070495,3.478628213048678 L47.04580453374929,3.6820105881741374 L47.14582352273469,3.9010885738770558 L47.23099348091835,4.135172869763369 L47.30104643210198,4.383526960035368 L47.35576196378403,4.6453694308428926 L47.39496792065906,4.919876428900397 L47.41854094628194,5.206184253634189 L47.42640687119285,5.503392074703946 " />
			<path d="M-43.84062043356593,1.4888786069184037 L7.071067811865491,24.117840788920546 " />
			<path d="M43.840620433565945,7.7747014352523305 L7.071067811865477,24.117840788920542 " />
			<path d="M4.854351419652111e-15,1.4888786069184028 L7.071067811865481,4.631790021085367 " />
			<path d="M7.071067811865481,4.631790021085368 L4.854351419652111e-15,7.774701435252331 " />
			<path d="M-7.07106781186547,4.631790021085368 L5.803789616749392e-15,7.774701435252331 " />
			<path d="M5.803789616749392e-15,1.4888786069184028 L-7.07106781186547,4.631790021085367 " />
			<path d="M5.329070518200751e-15,7.774701435252331 L5.329070518200751e-15,1.4888786069184032 " />
			<path d="M-10.606601717798208,-24.755047749808192 L-10.606601717798208,-19.380299602523216 " />
			<path d="M-45.96194077712558,-9.040490678973374 L-45.96194077712558,-3.665742531688397 " />
			<path d="M-3.535533905932733,-24.755047749808192 L-3.535533905932733,-19.380299602523216 " />
			<path d="M45.96194077712559,-2.7546678506394455 L45.96194077712559,2.620080296645531 " />
			<path d="M-47.42640687119284,-7.469034971889891 L-47.42640687119284,-0.7824307536299715 " />
			<path d="M47.42640687119285,-1.1832121435559624 L47.42640687119285,5.503392074703953 " />

        </g>
        </g>
    </svg>
    