<?xml version='1.0' encoding='utf-8'?>
<svg width="100.09mm" height="46.782528mm" viewBox="-77.352109 -35.964871 146.790964 68.610774" version="1.1" xmlns="http://www.w3.org/2000/svg">
  <g transform="scale(1,-1)" stroke-linecap="round">
    <g fill="none" stroke="rgb(0,0,0)" stroke-width="0.13199307371255647" id="Visible">
      <line x1="69.372858" y1="6.23843" x2="69.372858" y2="24.835648" />
      <line x1="69.372858" y1="24.835648" x2="42.995346" y2="35.898874" />
      <line x1="27.960163" y1="21.258573" x2="27.960163" y2="31.046582" />
      <line x1="42.995346" y1="35.898874" x2="27.960163" y2="31.046582" />
      <line x1="27.960163" y1="31.046582" x2="41.14892" y2="25.514969" />
      <line x1="41.14892" y1="25.514969" x2="-49.062174" y2="-3.598783" />
      <line x1="-62.25093" y1="1.93283" x2="-49.062174" y2="-3.598783" />
      <line x1="-77.286112" y1="-21.51668" x2="-77.286112" y2="-2.919462" />
      <line x1="-77.286112" y1="-2.919462" x2="-62.25093" y2="1.93283" />
      <line x1="-50.9086" y1="-32.579906" x2="-50.9086" y2="-13.982688" />
      <line x1="-50.9086" y1="-32.579906" x2="-77.286112" y2="-21.51668" />
      <line x1="-50.9086" y1="-13.982688" x2="-77.286112" y2="-2.919462" />
      <line x1="-50.9086" y1="-32.579906" x2="69.372858" y2="6.23843" />
      <line x1="-50.9086" y1="-13.982688" x2="69.372858" y2="24.835648" />
    </g>
    <g fill="none" stroke="rgb(99,99,99)" stroke-width="0.13199307371255647" id="Hidden" stroke-dasharray="0.003353 0.397656">
      <line x1="42.995346" y1="17.301656" x2="42.995346" y2="35.898874" />
      <line x1="69.372858" y1="6.23843" x2="42.995346" y2="17.301656" />
      <line x1="27.960163" y1="12.449364" x2="27.960163" y2="21.258573" />
      <line x1="42.995346" y1="17.301656" x2="27.960163" y2="12.449364" />
      <line x1="41.14892" y1="6.917751" x2="41.14892" y2="25.514969" />
      <line x1="27.960163" y1="12.449364" x2="41.14892" y2="6.917751" />
      <line x1="-49.062174" y1="-22.196001" x2="-49.062174" y2="-3.598783" />
      <line x1="41.14892" y1="6.917751" x2="-49.062174" y2="-22.196001" />
      <line x1="-62.25093" y1="-16.664388" x2="-62.25093" y2="1.93283" />
      <line x1="-62.25093" y1="-16.664388" x2="-49.062174" y2="-22.196001" />
      <line x1="-77.286112" y1="-21.51668" x2="-62.25093" y2="-16.664388" />
    </g>
  </g>
</svg>