<?xml version="1.0" encoding="UTF-8" standalone="no"?>
    <svg
    xmlns:svg="http://www.w3.org/2000/svg"
    xmlns="http://www.w3.org/2000/svg"
    width="223"
    height="426"
    >
        <g transform="scale(4, -4)   translate(27.924938727432192,-54.395960386157576)" stroke-width="0.25"  fill="none">
        <!-- hidden lines -->
        <g  stroke="rgb(160,160,160)" fill="none" stroke-dasharray="0.25,0.25" >
    			<path d="M11.157706923549352,-40.81840455838222 L11.157706923549352,49.03361887626807 " />
			<path d="M-25.424938727432192,-48.01905865528426 L-25.386588477746116,-47.9441257332771 L-25.34373230164028,-47.86924880521857 L-25.296373754272032,-47.79443408256488 L-25.24451676429537,-47.71968777161196 L-25.188165633535036,-47.6450160729806 L-25.127325036629692,-47.5704251811021 L-25.062000020644057,-47.495921283704384 L-24.992196004650303,-47.42151056129868 L-24.917918779278445,-47.34719918666688 L-24.839174506236056,-47.272993324349386 L-24.755969717797036,-47.19889913013378 L-24.668311316259768,-47.12492275054417 L-24.576206573374535,-47.051070322331285 L-24.479663129740267,-46.97734797196337 L-24.37868899417075,-46.90376181511804 L-24.273292543030195,-46.83031795617485 L-24.16348251953842,-46.757022487709015 L-24.04926803304552,-46.68388148998588 L-23.93065855827622,-46.61090103045662 L-23.807663934543875,-46.538087163254865 L-23.680294364934262,-46.4654459286945 L-23.54856041545915,-46.39298335276855 L-23.412473014179838,-46.32070544664935 L-23.27204345030055,-46.24861820618982 L-23.127283373231997,-46.176727611426124 L-22.978204791624925,-46.10503962608157 L-22.667141939591865,-45.96229525401194 L-22.338958109611667,-45.82043245474607 L-21.993762198096896,-45.67949830052976 L-21.631668746328863,-45.5395395554702 L-21.2527979024511,-45.400602660018905 L-20.85727538160235,-45.26273371556205 L-20.44523242420238,-45.12597846912337 L-20.016805752404387,-44.990382298184535 L-19.572137524728497,-44.85599019562828 L-19.111375288891423,-44.72284675480901 L-18.634671932847844,-44.59099615475609 L-18.142185634059842,-44.460482145514554 L-17.63407980701124,-44.33134803362815 L-17.110523048984135,-44.20363666776961 L-16.571689084115754,-44.07739042452276 L-16.017756705754167,-43.95265119432136 L-15.448909717131862,-43.8294603675492 L-14.86533687037705,-43.70785882080611 L-14.267231803882815,-43.58788690334454 L-13.654792978054978,-43.46958442368101 L-13.028223609459815,-43.35299063638707 L-12.387731603393767,-43.23814422906399 L-11.733529484897247,-43.125083309505676 L-11.06583432823561,-43.01384539305387 L-10.384867684870564,-42.904467390150046 L-9.69085550994604,-42.79698559408788 L-8.984028087312744,-42.69143566897066 L-8.26461995311658,-42.58785263787735 L-7.53286981797585,-42.486270871241395 L-6.789020487773513,-42.3867240754461 L-6.033318783090401,-42.289245281640326 L-5.2660154573064375,-42.19386683477828 L-4.487365113396812,-42.10062038288689 L-3.697626119450817,-42.00953686656461 L-2.897060522941352,-41.92064650871477 L-2.0859339637736056,-41.833978804517194 L-1.2645155861416306,-41.749562511641244 L-0.4330779492222021,-41.66742564070357 L0.40810306326446977,-41.5875954459738 L1.258748334597204,-41.51009841633109 L2.118575607669026,-41.434960266474775 L2.9872995786443965,-41.36220592839181 L3.8646319916273804,-41.29185954308394 L4.750281734309375,-41.22394445255737 L5.643954934564604,-41.158483192077526 L6.545355057961402,-41.09549748269151 L7.4541830061568675,-41.03500822402072 L8.37013721614225,-40.97703548732603 L9.292913760306195,-40.92159850884784 L10.222206447282545,-40.86871568342323 L11.157706923549235,-40.81840455838223 " />
			<path d="M-9.000000000000021,47.15824480258664 L-8.02142358348717,47.29834468535111 L-7.020282113386656,47.434740678885674 L-5.997186941970305,47.567349492263915 L-4.952762827652428,47.69609014722078 L-3.887647553477805,47.82088402760236 L-2.8024915376561204,47.9416549273733 L-1.6979574363807224,48.05832909715235 L-0.574719739174121,48.170835289247876 L0.5665356429925446,48.27910480116558 L1.725111796554632,48.383071517562065 L2.900301230927923,48.48267195061852 L4.0913863105414165,48.57784527880987 L5.297639693065264,48.66853338404576 L6.51832477356615,48.7546808871607 L7.752696134318956,48.83623518173161 L8.999999999999865,48.913146466202186 " />
			<path d="M25.424938727432156,-42.480093965359615 L11.157706923549354,-40.81840455838222 " />
			<path d="M8.999999999999982,44.60244712432835 L8.99728936826582,44.635889128381145 L8.989159105846534,44.66931098822117 L8.975614110108195,44.702692571769795 L8.956662540049754,44.736013771209294 L8.932315811388372,44.76925451509509 L8.902588589683011,44.80239478044603 L8.867498781500453,44.835414604805436 L8.827067523629056,44.86829409826582 L8.78131917034674,44.901013455449764 L8.730281278750878,44.93355296743996 L8.673984592158941,44.965893033651106 L8.612463021589862,44.99801417363659 L8.545753625337312,45.02989703882278 L8.47389658664717,45.06152242416386 L8.396935189512632,45.09287127971025 L8.314915792601562,45.12392472208358 L8.135903638110973,45.18507073479426 L7.937291379135177,45.24481315619553 L7.719557490002431,45.303008061561414 L7.483226510722888,45.359515254267606 L7.228867783325787,45.41419860353744 L6.957094080264614,45.466926372392834 L6.668560128194613,45.517571535020195 L6.36396103067891,45.56601208278677 L6.044030593623148,45.61213131817009 L5.709539557472792,45.65581813589257 L5.361293740431881,45.69696729058377 L5.000132097176402,45.73547965032583 L4.626924697738977,45.771262435470824 L4.242570631433958,45.804229442155155 L3.84799584087252,45.834301249972135 L3.4441508912857888,45.86140541330276 L3.0320086805299606,45.88547663584353 L2.6125620952901425,45.906456927910945 L2.186821619129356,45.924295746143756 L1.7558128981451353,45.93895011526636 L1.320574270098236,45.95038473161995 L0.8821542629660252,45.95857204821218 L0.44160906894674345,45.96349234108026 L-1.9201076480450517e-14,45.96513375680771 L-0.4416090689467818,45.96349234108026 L-0.8821542629660637,45.95857204821218 L-1.3205742700982745,45.95038473161995 L-1.7558128981451735,45.93895011526636 L-2.1868216191293945,45.924295746143756 L-2.612562095290181,45.906456927910945 L-3.0320086805300006,45.88547663584353 L-3.4441508912858287,45.86140541330276 L-3.8479958408725583,45.834301249972135 L-4.242570631434001,45.80422944215515 L-4.626924697739018,45.771262435470824 L-5.000132097176442,45.73547965032583 L-5.361293740431921,45.69696729058377 L-5.709539557472829,45.65581813589256 L-6.044030593623184,45.61213131817009 L-6.363961030678948,45.56601208278677 L-6.6685601281946525,45.517571535020195 L-6.957094080264652,45.466926372392834 L-7.228867783325823,45.41419860353744 L-7.483226510722925,45.359515254267606 L-7.719557490002467,45.303008061561414 L-7.937291379135214,45.24481315619553 L-8.13590363811101,45.18507073479426 L-8.3149157926016,45.12392472208358 L-8.396935189512668,45.09287127971025 L-8.473896586647205,45.06152242416386 L-8.545753625337348,45.02989703882278 L-8.6124630215899,44.99801417363659 L-8.673984592158979,44.965893033651106 L-8.730281278750915,44.93355296743996 L-8.781319170346777,44.901013455449764 L-8.827067523629093,44.86829409826582 L-8.86749878150049,44.835414604805436 L-8.902588589683047,44.80239478044602 L-8.932315811388408,44.76925451509509 L-8.95666254004979,44.736013771209294 L-8.97561411010823,44.702692571769795 L-8.98915910584657,44.66931098822117 L-8.997289368265855,44.635889128381145 L-9.000000000000018,44.60244712432836 " />
			<path d="M-5.4873968476472506,42.63272501539057 L-5.460471467504685,42.63909639670533 L-5.433610952961268,42.647595610928796 L-5.380343045843472,42.67089055988694 L-5.328106125358607,42.70238551917221 L-5.2774032616065485,42.7417771751098 L-5.228722750882233,42.78868616451936 L-5.18253341311541,42.84266072818982 L-5.139280076878435,42.90318106156752 L-5.0993792954439465,42.96966432075826 L-5.063215335149146,43.041470235632595 L-5.031136474700905,43.11790727597717 L-5.003451651061428,43.19823931130873 L-4.980427484216428,43.281692700213085 L-4.96228570947891,43.36746374093481 L-4.9492010420569015,43.45472641146454 L-4.941299494450482,43.54264032458245 L-4.938657162882527,43.630358821246574 " />
			<path d="M-24.490013583795317,41.00637198424075 L-24.448595368574097,41.078874611140385 L-24.402884938861526,41.151318089667704 L-24.35288597021551,41.22369659467074 L-24.29860248303369,41.296004306222 L-24.240038842230213,41.368235410086484 L-24.17719975688467,41.440384098189185 L-24.110090279863527,41.5124445690821 L-24.03871580741376,41.58441102841075 L-23.963082078728995,41.65627768938008 L-23.883195175487977,41.7280387732198 L-23.79906152136558,41.79968850964902 L-23.710687881516257,41.871221137340264 L-23.61808136203007,41.94263090438271 L-23.52124940936129,42.013912068744716 L-23.420199809729624,42.08505889873554 L-23.314940688494154,42.156065673466216 L-23.205480509499928,42.22692668330955 L-23.09182807439744,42.297636230359274 L-22.973992521934868,42.36818862888815 L-22.851983327223216,42.438578205805214 L-22.72581030097446,42.50879930111193 L-22.59548358871264,42.57884626835728 L-22.461013669958078,42.64871347509184 L-22.32241135738473,42.71839530332064 L-22.03285446200222,42.857180427262726 L-21.726906033322976,42.9951570024492 L-21.4046644741462,43.13228065120084 L-21.066233427662937,43.26850727016686 L-20.7117217441211,43.40379304450994 L-20.341243445815742,43.53809446199847 L-19.954917690415883,43.671368327001495 L-19.55286873263954,43.80357177438181 L-19.135225884289454,43.93466228328272 L-18.702123472662308,44.06459769080416 L-18.253700797344713,44.19333620556362 L-17.79010208541007,44.32083642113755 L-17.311476445030486,44.44705732937904 L-16.817977817518845,44.57195833360734 L-16.309764927816325,44.69549926166502 L-15.787001233441416,44.817640378838654 L-15.249854871916732,44.93834240063876 L-14.69849860669062,45.05756650543497 L-14.133109771570915,45.17527434694226 L-13.553870213688676,45.291428066554396 L-12.960966235010403,45.40599030552043 L-12.354588532417281,45.5189242169605 L-11.73493213637105,45.63019347771695 L-11.102196348185899,45.739762300037015 L-10.456584675926834,45.84759544308331 L-9.798304768954978,45.95365822426842 L-9.127568351140845,46.05791653040993 L-8.444591152767238,46.1603368287023 L-7.749592841143446,46.26088617750209 L-7.042796949953242,46.35953223692306 L-6.324430807359256,46.45624327923769 L-5.594725462887048,46.55098819908187 L-4.853915613112079,46.64373652345933 L-4.102239526173882,46.73445842154277 L-3.3399389651413927,46.82312471426839 L-2.567259110254149,46.90970688372081 L-1.784448480064583,46.99417708230535 L-0.9917588515064253,47.07650814170471 L-0.1894451789152285,47.15667358161714 L0.6222344879731061,47.234647618273414 L1.4430190870193726,47.31040517272964 L2.2726446276470043,47.383921878933506 L3.1108442757498693,47.45517409156116 L3.9573484395146927,47.524138893622315 L4.811884856130341,47.590794103831044 L5.6741786793562845,47.65511828374005 L6.543952567921984,47.71709074463593 L7.420926774728613,47.77669155419332 L8.304819236824752,47.833901542885755 L9.195345666126826,47.88870231015126 L10.092219640855234,47.94107623031048 L10.995152697656671,47.99100645823573 " />
			<path d="M24.490013583795275,46.419274275610995 L10.995152697656781,47.99100645823574 " />
			<path d="M24.490013583795278,46.419274275610995 L24.448595368574058,46.34677164871137 L24.402884938861494,46.27432817018405 L24.35288597021547,46.20194966518101 L24.298602483033658,46.12964195362975 L24.240038842230174,46.05741084976526 L24.17719975688463,45.98526216166256 L24.11009027986349,45.913201690769654 L24.038715807413727,45.841235231441004 L23.963082078728956,45.76936857047167 L23.883195175487945,45.69760748663195 L23.79906152136554,45.62595775020272 L23.710687881516225,45.55442512251148 L23.618081362030036,45.48301535546904 L23.52124940936125,45.41173419110703 L23.420199809729592,45.34058736111621 L23.314940688494115,45.26958058638554 L23.205480509499896,45.198719576542196 L23.09182807439741,45.12801002949248 L22.97399252193483,45.0574576309636 L22.851983327223184,44.98706805404653 L22.72581030097442,44.91684695873982 L22.5954835887126,44.846799991494464 L22.46101366995804,44.77693278475991 L22.3224113573847,44.707250956531105 L22.032854462002188,44.56846583258902 L21.72690603332295,44.430489257402556 L21.404664474146177,44.293365608650916 L21.06623342766291,44.157138989684896 L20.711721744121068,44.021853215341814 L20.341243445815717,43.887551797853284 L19.954917690415865,43.75427793285025 L19.552868732639514,43.622074485469945 L19.135225884289444,43.490983976569034 L18.702123472662283,43.36104856904759 L18.253700797344695,43.232310054288135 L17.79010208541005,43.1048098387142 L17.311476445030483,42.97858893047271 L16.817977817518827,42.85368792624441 L16.3097649278163,42.73014699818673 L15.78700123344139,42.6080058810131 L15.249854871916714,42.487303859212986 L14.69849860669061,42.36807975441678 L14.13310977157089,42.250371912909486 L13.553870213688665,42.13421819329736 L12.960966235010392,42.01965595433132 L12.354588532417264,41.906722042891246 L11.734932136371018,41.7954527821348 L11.102196348185867,41.68588395981474 L10.456584675926823,41.578050816768446 L9.79830476895496,41.47198803558333 L9.127568351140841,41.36772972944182 L8.444591152767227,41.26530943114945 L7.7495928411434285,41.16476008234966 L7.042796949953232,41.066114022928694 L6.32443080735926,40.96940298061406 L5.594725462887045,40.87465806076988 L4.85391561311209,40.78190973639242 L4.1022395261738716,40.69118783830898 L3.339938965141382,40.60252154558336 L2.5672591102541595,40.51593937613094 L1.7844484800645972,40.4314691775464 L0.9917588515064502,40.349138118147046 L0.18944517891522494,40.268972678234604 L-0.6222344879730954,40.19099864157834 L-1.4430190870193549,40.115241087122115 L-2.2726446276470185,40.04172438091824 L-3.1108442757498835,39.970472168290584 L-3.9573484395146927,39.90150736622944 L-4.811884856130334,39.83485215602071 L-5.674178679356277,39.770527976111694 L-6.543952567922005,39.708555515215814 L-7.420926774728624,39.64895470565843 L-8.304819236824752,39.59174471696599 L-9.195345666126858,39.536943949700486 L-10.092219640855255,39.48457002954127 L-10.995152697656344,39.434639801616036 " />
			<path d="M-24.490013583795317,41.00637198424076 L-10.995152697656806,39.434639801616015 " />
			<path d="M-24.490013583795317,-47.06640346160458 L-10.995152697656806,-48.63813564422932 " />
			<path d="M-10.995152697656817,39.43463980161601 L-10.995152697656817,-48.63813564422932 " />
			<path d="M-24.490013583795314,41.00637198424076 L-24.490013583795314,-47.06640346160457 " />
			<path d="M24.49001358379528,46.41927427561099 L24.49001358379528,-41.65350117023434 " />
			<path d="M24.490013583795278,-41.653501170234335 L24.448595368574058,-41.72600379713396 L24.402884938861494,-41.79844727566128 L24.35288597021547,-41.87082578066432 L24.298602483033658,-41.94313349221558 L24.240038842230174,-42.01536459608007 L24.17719975688463,-42.08751328418276 L24.11009027986349,-42.15957375507568 L24.038715807413727,-42.231540214404326 L23.963082078728956,-42.30340687537366 L23.883195175487945,-42.375167959213385 L23.79906152136554,-42.44681769564261 L23.710687881516225,-42.51835032333385 L23.618081362030036,-42.58976009037629 L23.52124940936125,-42.6610412547383 L23.420199809729592,-42.732188084729124 L23.314940688494115,-42.80319485945979 L23.205480509499896,-42.874055869303135 L23.09182807439741,-42.94476541635285 L22.97399252193483,-43.01531781488173 L22.851983327223184,-43.0857073917988 L22.72581030097442,-43.15592848710551 L22.5954835887126,-43.225975454350866 L22.46101366995804,-43.29584266108542 L22.3224113573847,-43.365524489314225 L22.032854462002188,-43.50430961325631 L21.72690603332295,-43.642286188442775 L21.404664474146177,-43.779409837194414 L21.06623342766291,-43.915636456160435 L20.711721744121068,-44.05092223050352 L20.341243445815717,-44.185223647992046 L19.954917690415865,-44.31849751299508 L19.552868732639514,-44.450700960375386 L19.135225884289444,-44.5817914692763 L18.702123472662283,-44.71172687679774 L18.253700797344695,-44.840465391557196 L17.79010208541005,-44.96796560713113 L17.311476445030483,-45.09418651537262 L16.817977817518827,-45.21908751960092 L16.3097649278163,-45.3426284476586 L15.78700123344139,-45.46476956483223 L15.249854871916714,-45.585471586632345 L14.69849860669061,-45.704695691428554 L14.13310977157089,-45.822403532935844 L13.553870213688665,-45.93855725254798 L12.960966235010392,-46.05311949151401 L12.354588532417264,-46.166053402954084 L11.734932136371018,-46.277322663710535 L11.102196348185867,-46.38689148603059 L10.456584675926823,-46.494724629076885 L9.79830476895496,-46.600787410262 L9.127568351140841,-46.70504571640351 L8.444591152767227,-46.80746601469588 L7.7495928411434285,-46.90801536349567 L7.042796949953232,-47.006661422916636 L6.32443080735926,-47.103372465231274 L5.594725462887045,-47.19811738507545 L4.85391561311209,-47.29086570945291 L4.1022395261738716,-47.38158760753635 L3.339938965141382,-47.47025390026197 L2.5672591102541595,-47.55683606971439 L1.7844484800645972,-47.64130626829893 L0.9917588515064502,-47.723637327698285 L0.18944517891522494,-47.803802767610726 L-0.6222344879730954,-47.88177680426699 L-1.4430190870193549,-47.95753435872322 L-2.2726446276470185,-48.03105106492709 L-3.1108442757498835,-48.102303277554746 L-3.9573484395146927,-48.17126807961589 L-4.811884856130334,-48.23792328982462 L-5.674178679356277,-48.302247469733636 L-6.543952567922005,-48.36421993062952 L-7.420926774728624,-48.4238207401869 L-8.304819236824752,-48.48103072887934 L-9.195345666126858,-48.53583149614484 L-10.092219640855255,-48.58820541630406 L-10.995152697656344,-48.638135644229294 " />
			<path d="M24.490013583795275,-41.653501170234335 L10.995152697656781,-40.08176898760959 " />
			<path d="M10.995152697656781,47.99100645823574 L10.995152697656781,-40.08176898760959 " />
			<path d="M-24.490013583795317,-47.06640346160458 L-24.448595368574097,-46.993900834704945 L-24.402884938861526,-46.921457356177626 L-24.35288597021551,-46.84907885117459 L-24.29860248303369,-46.77677113962333 L-24.240038842230213,-46.704540035758846 L-24.17719975688467,-46.632391347656146 L-24.110090279863527,-46.56033087676323 L-24.03871580741376,-46.48836441743458 L-23.963082078728995,-46.41649775646525 L-23.883195175487977,-46.34473667262553 L-23.79906152136558,-46.27308693619631 L-23.710687881516257,-46.20155430850507 L-23.61808136203007,-46.13014454146262 L-23.52124940936129,-46.058863377100614 L-23.420199809729624,-45.98771654710979 L-23.314940688494154,-45.916709772379114 L-23.205480509499928,-45.84584876253578 L-23.09182807439744,-45.77513921548606 L-22.973992521934868,-45.70458681695718 L-22.851983327223216,-45.634197240040116 L-22.72581030097446,-45.5639761447334 L-22.59548358871264,-45.49392917748805 L-22.461013669958078,-45.42406197075349 L-22.32241135738473,-45.35438014252469 L-22.03285446200222,-45.215595018582604 L-21.726906033322976,-45.07761844339613 L-21.4046644741462,-44.94049479464449 L-21.066233427662937,-44.80426817567847 L-20.7117217441211,-44.6689824013354 L-20.341243445815742,-44.53468098384686 L-19.954917690415883,-44.401407118843835 L-19.55286873263954,-44.26920367146352 L-19.135225884289454,-44.13811316256261 L-18.702123472662308,-44.00817775504117 L-18.253700797344713,-43.87943924028171 L-17.79010208541007,-43.75193902470778 L-17.311476445030486,-43.62571811646629 L-16.817977817518845,-43.50081711223799 L-16.309764927816325,-43.37727618418031 L-15.787001233441416,-43.25513506700668 L-15.249854871916732,-43.13443304520656 L-14.69849860669062,-43.01520894041036 L-14.133109771570915,-42.89750109890307 L-13.553870213688676,-42.781347379290935 L-12.960966235010403,-42.6667851403249 L-12.354588532417281,-42.553851228884824 L-11.73493213637105,-42.44258196812838 L-11.102196348185899,-42.33301314580832 L-10.456584675926834,-42.22518000276202 L-9.798304768954978,-42.11911722157691 L-9.127568351140845,-42.0148589154354 L-8.444591152767238,-41.912438617143025 L-7.749592841143446,-41.811889268343236 L-7.042796949953242,-41.71324320892227 L-6.324430807359256,-41.61653216660764 L-5.594725462887048,-41.52178724676346 L-4.853915613112079,-41.429038922386 L-4.102239526173882,-41.33831702430256 L-3.3399389651413927,-41.24965073157694 L-2.567259110254149,-41.16306856212452 L-1.784448480064583,-41.07859836353998 L-0.9917588515064253,-40.99626730414062 L-0.1894451789152285,-40.91610186422819 L0.6222344879731061,-40.83812782757192 L1.4430190870193726,-40.76237027311569 L2.2726446276470043,-40.688853566911824 L3.1108442757498693,-40.61760135428417 L3.9573484395146927,-40.548636552223016 L4.811884856130341,-40.481981342014286 L5.6741786793562845,-40.41765716210528 L6.543952567921984,-40.3556847012094 L7.420926774728613,-40.29608389165202 L8.304819236824752,-40.238873902959575 L9.195345666126826,-40.18407313569407 L10.092219640855234,-40.13169921553485 L10.995152697656671,-40.0817689876096 " />
			<path d="M-8.100000000000017,50.5332737536782 L-8.100000000000017,44.60244712432835 " />
			<path d="M8.09999999999998,50.5332737536782 L8.09999999999998,44.60244712432835 " />
			<path d="M8.09999999999998,44.60244712432835 L8.103154380680868,44.53639338391557 L8.112403612066561,44.47203059183116 L8.127117798383479,44.41097430106036 L8.14628018098411,44.354690470268764 L8.168547363701487,44.30439766338209 L8.19235687357524,44.26102070700899 L8.215957894151854,44.225161094388866 L8.237724810904426,44.19695352010262 L8.270276508444578,44.162246335799686 L8.279031005783951,44.154502718007606 L8.282023040396766,44.152105477744215 " />
			<path d="M8.282023040396766,44.152105477744215 L8.28079105926874,44.152993938168514 L8.277077883398125,44.15552608178271 L8.262286647659062,44.16478515693915 L8.20434519264542,44.19581424469432 L8.131438274050545,44.229197947146545 L8.037507793018019,44.26684099527763 L7.924166420591844,44.30728567836848 L7.79283230588761,44.349351564174405 L7.6447290760925055,44.39213549892515 L7.480885836465308,44.435011607324874 L7.302137170336389,44.47763129255216 L7.109123139107712,44.51992323626 L6.895326499692204,44.562794445916865 L6.667886973128751,44.60457861077305 L6.427414284650657,44.64513941569309 L6.174519076447713,44.684349417077485 L5.9098129076662085,44.722090042862774 L5.6339082544089125,44.75825159252147 L5.347418509735091,44.79273323706206 L5.0509579836605,44.825443019029066 L4.745141903157382,44.856297852502976 L4.430586412154471,44.88522352310028 L4.1079085715369965,44.91215468797347 L3.7777263591466683,44.93703487581103 L3.440658669781693,44.95981648683743 L3.0973253151967697,44.98046079281315 L2.748347024103079,44.99893793703465 L2.394345442168298,45.01522693433439 L1.9072197453438435,45.03368801177014 L1.4136650497656615,45.04794792978942 L0.9153834176484547,45.057953838535916 L0.41406685171598934,45.0636685296645 L-0.08860270479893914,45.065070436341244 L-0.5909533681544895,45.06215363324341 L-1.0913233140997558,45.054927836559465 L-1.588060777874805,45.043418403989044 L-2.079524054210656,45.027666334743 L-2.564081497329267,45.00772826954337 L-3.040111520943564,44.983676490623395 L-3.506002598257429,44.955598921727486 L-3.9601532619656794,44.92359912811127 L-4.400972104254104,44.887796316541554 L-4.826877776799447,44.84832533529635 L-5.236298990769386,44.80533667416486 L-5.700645174004154,44.74981944258372 L-5.922401573163358,44.72038063631325 L-6.13681477595768,44.6899170197404 L-6.343580961359346,44.65848875474276 L-6.542387948632155,44.6261543295426 L-6.732911410896587,44.59297671441774 L-6.914811088694913,44.559029517412505 L-7.087727003556293,44.52440314004865 L-7.251275671561901,44.48921093303625 L-7.405046316910021,44.453595351984674 L-7.548597085481157,44.417734113113454 L-7.681451258403145,44.38184634896326 L-7.8030934656162625,44.34619876410677 L-7.912965899438326,44.31111179085963 L-8.010464528129816,44.27696574499136 L-8.125111735867064,44.231857286526164 L-8.210647578836685,44.19269991535494 L-8.263893710804052,44.163802341040906 L-8.27751094821497,44.15526719288832 L-8.280924308421092,44.15293858094377 L-8.2820230403968,44.15210547774423 " />
			<path d="M-8.2820230403968,44.15210547774423 L-8.270877684941334,44.161682543529714 L-8.239896300762242,44.19437368933427 L-8.217859039356107,44.22252458792617 L-8.193770207737508,44.25868462201621 L-8.16938713864734,44.30272191557541 L-8.146525617783766,44.35406540076026 L-8.127268346225335,44.41045767225355 L-8.112474612975875,44.4716622805134 L-8.103172758920046,44.53620183712889 L-8.100000000000017,44.60244712432835 " />

        </g>

        <!-- solid lines -->
        <g  stroke="rgb(0,0,0)" fill="none">
    			<path d="M-25.42493872743219,-48.01905865528426 L-25.42493872743219,41.83296477936603 " />
			<path d="M-25.42493872743219,-48.01905865528426 L-11.157706923549386,-49.68074806226166 " />
			<path d="M-11.157706923549387,-49.68074806226166 L-11.157706923549387,40.171275372388635 " />
			<path d="M-11.157706923549387,40.171275372388635 L-25.42493872743219,41.83296477936603 " />
			<path d="M-25.424938727432192,41.83296477936603 L-25.37632594247666,41.92657000014547 L-25.320681886802063,42.02008541113573 L-25.25801376477778,42.11349890467221 L-25.188329690195907,42.20679838628581 L-25.111638685220747,42.29997177626881 L-25.0279506792207,42.3930070112389 L-24.93727650748268,42.48589204570101 L-24.839627909809202,42.578614853606894 L-24.735017528998483,42.67116342991218 L-24.623458909207486,42.763525792130665 L-24.504966494198335,42.855689981885746 L-24.37955562546827,42.947644066458665 L-24.247242540263315,43.039376140333495 L-24.108044369476048,43.13087432673858 L-23.961979135427555,43.2221267791842 L-23.809065749534106,43.313121682996446 L-23.64932400985861,43.40384725684682 L-23.482774598547316,43.49429175427762 L-23.309439079152064,43.58444346522279 L-23.12933989383837,43.67429071752404 L-22.942500360479826,43.76382187844208 L-22.748944669639037,43.85302535616272 L-22.548697881435622,43.94188960129769 L-22.34178592230166,44.03040310838 L-22.128235581624857,44.118554417353536 L-21.908074508280144,44.20633211505687 L-21.68133120704983,44.293724836700875 L-21.448035034933106,44.38072126734025 L-21.20821619734503,44.4673101433384 L-20.961905744205836,44.55348025382584 L-20.70913556592079,44.639220442151625 L-20.44993838925125,44.7245196073279 L-20.184347773077512,44.809366705467106 L-19.912398104053786,44.89375075121191 L-19.634124592156134,44.977660819157464 L-19.34956326612371,45.061086045265974 L-19.058750968794058,45.14401562827329 L-18.76172535233296,45.226438831087336 L-18.45852487335955,45.30834498217832 L-18.149188787967212,45.38972347696037 L-17.833757146641013,45.47056377916454 L-17.512270789072275,45.55085542220297 L-16.85130119817653,45.709751220958175 L-16.166622313474434,45.866328585408574 L-15.458588711559614,46.02050642839087 L-14.727567063799235,46.172204905388746 L-13.97393594644489,46.321345455882195 L-13.198085644578263,46.46785084403184 L-12.400417949993034,46.61164519867728 L-11.581345953117868,46.75265405262874 L-10.741293829088114,46.89080438123156 L-9.880696618076954,47.026024640183714 L-9.000000000000064,47.15824480258663 " />
			<path d="M8.999999999999979,48.91314646620219 L10.074656120755336,48.97510607121902 L11.157706923549235,49.033618876268065 " />
			<path d="M-11.157706923549387,-49.68074806226165 L-10.222206447282595,-49.63043693722064 L-9.292913760306245,-49.577554111796026 L-8.3701372161423,-49.52211713331784 L-7.454183006156917,-49.46414439662315 L-6.5453550579614515,-49.403655137952356 L-5.6439549345646505,-49.34066942856634 L-4.7502817343094215,-49.2752081680865 L-3.86463199162743,-49.20729307755993 L-2.9872995786444463,-49.13694669225206 L-2.118575607669083,-49.064192354169094 L-1.2587483345972572,-48.98905420431278 L-0.4081030632645195,-48.91155717467007 L0.43307794922215237,-48.8317269799403 L1.2645155861415738,-48.74959010900263 L2.085933963773549,-48.66517381612668 L2.8970605229412953,-48.5785061119291 L3.6976261194507565,-48.48961575407926 L4.487365113396752,-48.39853223775698 L5.266015457306377,-48.3052857858656 L6.033318783090333,-48.20990733900354 L6.7890204877734455,-48.11242854519777 L7.53286981797579,-48.01288174940248 L8.264619953116519,-47.91129998276652 L8.98402808731269,-47.80771695167321 L9.690855509945973,-47.70216702655599 L10.384867684870517,-47.59468523049383 L11.065834328235557,-47.48530722759 L11.733529484897186,-47.3740693111382 L12.3877316033937,-47.261008391579885 L13.028223609459747,-47.14616198425681 L13.654792978054918,-47.029568196962856 L14.267231803882762,-46.91126571729933 L14.865336870376982,-46.79129379983776 L15.448909717131809,-46.669692253094674 L16.017756705754113,-46.54650142632251 L16.571689084115693,-46.42176219612111 L17.110523048984067,-46.29551595287427 L17.634079807011172,-46.16780458701572 L18.142185634059782,-46.03867047512932 L18.634671932847777,-45.908156465887785 L19.111375288891356,-45.776305865834864 L19.572137524728436,-45.643162425015596 L20.01680575240432,-45.508770322459334 L20.445232424202313,-45.37317415152051 L20.85727538160229,-45.23641890508183 L21.25279790245104,-45.09854996062497 L21.631668746328803,-44.95961306517368 L21.993762198096835,-44.81965432011412 L22.338958109611607,-44.678720165897815 L22.667141939591804,-44.536857366631935 L22.978204791624865,-44.394112994562306 L23.127283373231936,-44.32242500921776 L23.272043450300497,-44.25053441445406 L23.412473014179785,-44.17844717399453 L23.548560415459104,-44.10616926787533 L23.680294364934195,-44.033706691949384 L23.80766393454382,-43.96106545738901 L23.930658558276168,-43.88825159018725 L24.04926803304546,-43.815271130658 L24.16348251953836,-43.74213013293487 L24.27329254303014,-43.668834664469024 L24.378688994170705,-43.59539080552584 L24.479663129740214,-43.52180464868051 L24.576206573374474,-43.4480822983126 L24.668311316259715,-43.374229870099704 L24.75596971779699,-43.300253490510094 L24.83917450623601,-43.2261592962945 L24.9179187792784,-43.151953433977006 L24.99219600465025,-43.077642059345195 L25.06200002064401,-43.00323133693949 L25.12732503662964,-42.928727439541774 L25.188165633534982,-42.85413654766328 L25.244516764295316,-42.779464849031925 L25.296373754271986,-42.704718538079 L25.34373230164024,-42.62990381542531 L25.386588477746077,-42.55502688736677 L25.424938727432117,-42.480093965359686 " />
			<path d="M25.424938727432156,-42.480093965359615 L25.424938727432156,47.37192946929068 " />
			<path d="M-11.157706923549387,40.17127537238864 L-10.222206447282595,40.221586497429655 L-9.292913760306245,40.274469322854266 L-8.3701372161423,40.32990630133245 L-7.454183006156917,40.387879038027144 L-6.5453550579614515,40.448368296697936 L-5.6439549345646505,40.51135400608395 L-4.7502817343094215,40.57681526656379 L-3.86463199162743,40.64473035709036 L-2.9872995786444463,40.71507674239823 L-2.118575607669083,40.7878310804812 L-1.2587483345972572,40.86296923033751 L-0.4081030632645195,40.94046625998022 L0.43307794922215237,41.02029645470999 L1.2645155861415738,41.10243332564766 L2.085933963773549,41.18684961852361 L2.8970605229412953,41.27351732272119 L3.6976261194507565,41.36240768057103 L4.487365113396752,41.45349119689331 L5.266015457306377,41.54673764878469 L6.033318783090333,41.64211609564675 L6.7890204877734455,41.73959488945252 L7.53286981797579,41.83914168524781 L8.264619953116519,41.94072345188377 L8.98402808731269,42.044306482977085 L9.690855509945973,42.1498564080943 L10.384867684870517,42.25733820415646 L11.065834328235557,42.36671620706029 L11.733529484897186,42.47795412351209 L12.3877316033937,42.591015043070406 L13.028223609459747,42.705861450393485 L13.654792978054918,42.822455237687436 L14.267231803882762,42.94075771735096 L14.865336870376982,43.06072963481253 L15.448909717131809,43.18233118155562 L16.017756705754113,43.305522008327785 L16.571689084115693,43.430261238529184 L17.110523048984067,43.55650748177602 L17.634079807011172,43.68421884763457 L18.142185634059782,43.81335295952097 L18.634671932847777,43.94386696876251 L19.111375288891356,44.07571756881543 L19.572137524728436,44.208861009634695 L20.01680575240432,44.34325311219096 L20.445232424202313,44.47884928312978 L20.85727538160229,44.615604529568465 L21.25279790245104,44.75347347402532 L21.631668746328803,44.892410369476615 L21.993762198096835,45.03236911453617 L22.338958109611607,45.17330326875248 L22.667141939591804,45.31516606801836 L22.978204791624865,45.457910440087986 L23.127283373231936,45.52959842543253 L23.272043450300497,45.60148902019623 L23.412473014179785,45.673576260655764 L23.548560415459104,45.74585416677496 L23.680294364934195,45.81831674270091 L23.80766393454382,45.89095797726128 L23.930658558276168,45.96377184446304 L24.04926803304546,46.036752303992294 L24.16348251953836,46.109893301715424 L24.27329254303014,46.18318877018127 L24.378688994170705,46.256632629124454 L24.479663129740214,46.330218785969784 L24.576206573374474,46.40394113633769 L24.668311316259715,46.47779356455059 L24.75596971779699,46.5517699441402 L24.83917450623601,46.625864138355794 L24.9179187792784,46.700070000673286 L24.99219600465025,46.7743813753051 L25.06200002064401,46.8487920977108 L25.12732503662964,46.92329599510852 L25.188165633534982,46.99788688698701 L25.244516764295316,47.07255858561837 L25.296373754271986,47.14730489657129 L25.34373230164024,47.22211961922498 L25.386588477746077,47.29699654728352 L25.424938727432117,47.371929469290606 " />
			<path d="M11.157706923549352,49.03361887626808 L25.424938727432153,47.371929469290684 " />
			<path d="M-5.487396847647252,43.52234900979305 L-5.235955709730309,43.49410417522457 L-4.978178290151016,43.46720059972958 L-4.444869691720476,43.41754579267793 L-3.8900518008178246,43.373624874595066 L-3.3164094521203102,43.33565038441649 L-2.7267185742621294,43.303806085553134 L-2.1238327567610185,43.278246076636755 L-1.5106694411338948,43.25909404581695 L-0.8901958030245183,43.24644267221841 L-0.2654143936613823,43.24035317745474 L0.3606513898714104,43.240855029369335 L0.9849719352390285,43.24794579943663 L1.6045260755371473,43.26159117451411 L2.2163157091046988,43.281725122887956 L2.817380307720951,43.30825021380897 L3.4048112429799127,43.34103808897238 L3.9757658615148976,43.37993008366015 L4.527481240961443,43.42473799453976 L5.057287560091723,43.47524499040422 L5.313169149934932,43.50256031297772 L5.562621018420659,43.53120666144598 L5.805341291853334,43.56114936948586 L6.0410362427641076,43.592352201987225 L6.269420645364574,43.624777398902744 L6.490218120712209,43.65838572094316 L6.703161471169809,43.693136497062646 L6.9079930037541954,43.72898767367678 L7.104464841982885,43.765895865553595 L7.292339225841323,43.80381640831619 L7.471388799507716,43.84270341249316 L7.641396886487237,43.88250981905171 L7.802157751822655,43.92318745634604 L7.953476851064106,43.96468709841214 L8.095171065696686,44.00695852453855 L8.227068924740957,44.04995058004078 L8.349010812258227,44.09361123816613 L8.460849160509465,44.13788766305373 L8.562448628534117,44.182726273673744 L8.653686265932706,44.22807280866836 L8.734451661655026,44.27387239201606 L8.804647077613847,44.32006959943977 L8.864187566962487,44.36660852547838 L8.913001076893066,44.41343285114067 L8.933366245567646,44.43693434283471 L8.951028535831068,44.46048591205962 L8.96598260378253,44.48408043305492 L8.978223924920705,44.50771076706467 L8.987748795512676,44.53136976449735 L8.994554333714536,44.55505026708901 L8.998638480443315,44.57874511006913 L8.999999999999982,44.602447124328336 " />
			<path d="M-9.000000000000018,44.60244712432835 L-8.996320229477863,44.563483826293506 L-8.985283926958306,44.524552389591 L-8.966900117121503,44.48568464949933 L-8.941183832901123,44.44691238921054 L-8.908156103191523,44.40826731384029 L-8.867843935651862,44.36978102450174 L-8.820280294621204,44.331484992464446 L-8.765504074162703,44.293410533419475 L-8.703560066258884,44.25558878187172 L-8.634498924184035,44.2180506656804 L-8.558377121083677,44.18082688076849 L-8.475256903794952,44.143947866021875 L-8.38520624194572,44.10744377839862 L-8.288298772373974,44.071344468268855 L-8.184613738913031,44.035679455005315 L-8.074235927591715,44.00047790284455 L-7.95725559730256,43.96576859703856 L-7.8337684059946895,43.9315799203163 L-7.703875332451759,43.8979398296744 L-7.567682593718893,43.86487583351594 L-7.276848654819619,43.800583780713154 L-6.9622176856274995,43.73891401225128 L-6.624818604436716,43.680068202978575 L-6.265754786696829,43.62423879272336 L-5.8862004567119435,43.571608356969904 L-5.487396847647316,43.522349009793054 " />
			<path d="M-5.487396847647252,49.45317563914291 L-5.235955709730309,49.42493080457444 L-4.978178290151016,49.398027229079446 L-4.444869691720476,49.34837242202779 L-3.8900518008178246,49.30445150394493 L-3.3164094521203102,49.266477013766355 L-2.7267185742621294,49.234632714903 L-2.1238327567610185,49.20907270598662 L-1.5106694411338948,49.18992067516682 L-0.8901958030245183,49.17726930156827 L-0.2654143936613823,49.17117980680461 L0.3606513898714104,49.1716816587192 L0.9849719352390285,49.178772428786495 L1.6045260755371473,49.192417803863975 L2.2163157091046988,49.21255175223782 L2.817380307720951,49.239076843158834 L3.4048112429799127,49.27186471832225 L3.9757658615148976,49.310756713010015 L4.527481240961443,49.35556462388963 L5.057287560091723,49.40607161975409 L5.313169149934932,49.43338694232759 L5.562621018420659,49.462033290795844 L5.805341291853334,49.49197599883573 L6.0410362427641076,49.52317883133709 L6.269420645364574,49.55560402825261 L6.490218120712209,49.589212350293025 L6.703161471169809,49.62396312641251 L6.9079930037541954,49.65981430302664 L7.104464841982885,49.69672249490346 L7.292339225841323,49.73464303766605 L7.471388799507716,49.773530041843024 L7.641396886487237,49.81333644840158 L7.802157751822655,49.85401408569591 L7.953476851064106,49.89551372776201 L8.095171065696686,49.93778515388841 L8.227068924740957,49.980777209390645 L8.349010812258227,50.024437867516 L8.460849160509465,50.0687142924036 L8.562448628534117,50.11355290302361 L8.653686265932706,50.158899438018224 L8.734451661655026,50.204699021365926 L8.804647077613847,50.250896228789635 L8.864187566962487,50.29743515482824 L8.913001076893066,50.344259480490535 L8.933366245567646,50.36776097218458 L8.951028535831068,50.391312541409484 L8.96598260378253,50.41490706240479 L8.978223924920705,50.43853739641454 L8.987748795512676,50.462196393847215 L8.994554333714536,50.485876896438874 L8.998638480443315,50.509571739418995 L8.999999999999982,50.5332737536782 " />
			<path d="M8.999999999999982,50.533273753678216 L8.99728936826582,50.56671575773101 L8.989159105846534,50.600137617571036 L8.975614110108195,50.63351920111966 L8.956662540049754,50.66684040055916 L8.932315811388372,50.70008114444496 L8.902588589683011,50.733221409795895 L8.867498781500453,50.7662412341553 L8.827067523629056,50.79912072761569 L8.78131917034674,50.83184008479963 L8.730281278750878,50.864379596789824 L8.673984592158941,50.89671966300097 L8.612463021589862,50.92884080298646 L8.545753625337312,50.96072366817265 L8.47389658664717,50.99234905351373 L8.396935189512632,51.02369790906012 L8.314915792601562,51.054751351433445 L8.135903638110973,51.115897364144125 L7.937291379135177,51.17563978554539 L7.719557490002431,51.23383469091128 L7.483226510722888,51.29034188361747 L7.228867783325787,51.34502523288731 L6.957094080264614,51.3977530017427 L6.668560128194613,51.44839816437006 L6.36396103067891,51.496838712136636 L6.044030593623148,51.54295794751996 L5.709539557472792,51.58664476524243 L5.361293740431881,51.62779391993364 L5.000132097176402,51.666306279675695 L4.626924697738977,51.70208906482069 L4.242570631433958,51.73505607150502 L3.84799584087252,51.765127879322 L3.4441508912857888,51.79223204265263 L3.0320086805299606,51.8163032651934 L2.6125620952901425,51.83728355726081 L2.186821619129356,51.85512237549362 L1.7558128981451353,51.869776744616225 L1.320574270098236,51.881211360969814 L0.8821542629660252,51.88939867756205 L0.44160906894674345,51.89431897043013 L-1.9201076480450517e-14,51.895960386157576 L-0.4416090689467818,51.89431897043013 L-0.8821542629660637,51.88939867756205 L-1.3205742700982745,51.881211360969814 L-1.7558128981451735,51.869776744616225 L-2.1868216191293945,51.85512237549362 L-2.612562095290181,51.83728355726081 L-3.0320086805300006,51.8163032651934 L-3.4441508912858287,51.79223204265263 L-3.8479958408725583,51.765127879322 L-4.242570631434001,51.735056071505014 L-4.626924697739018,51.70208906482069 L-5.000132097176442,51.666306279675695 L-5.361293740431921,51.62779391993364 L-5.709539557472829,51.586644765242426 L-6.044030593623184,51.54295794751996 L-6.363961030678948,51.496838712136636 L-6.6685601281946525,51.44839816437006 L-6.957094080264652,51.3977530017427 L-7.228867783325823,51.34502523288731 L-7.483226510722925,51.29034188361747 L-7.719557490002467,51.23383469091128 L-7.937291379135214,51.17563978554539 L-8.13590363811101,51.115897364144125 L-8.3149157926016,51.054751351433445 L-8.396935189512668,51.02369790906012 L-8.473896586647205,50.99234905351373 L-8.545753625337348,50.96072366817265 L-8.6124630215899,50.92884080298646 L-8.673984592158979,50.89671966300097 L-8.730281278750915,50.864379596789824 L-8.781319170346777,50.83184008479963 L-8.827067523629093,50.79912072761569 L-8.86749878150049,50.7662412341553 L-8.902588589683047,50.73322140979589 L-8.932315811388408,50.70008114444496 L-8.95666254004979,50.66684040055916 L-8.97561411010823,50.63351920111966 L-8.98915910584657,50.600137617571036 L-8.997289368265855,50.56671575773101 L-9.000000000000018,50.53327375367822 " />
			<path d="M-9.000000000000018,50.533273753678216 L-8.996320229477863,50.49431045564337 L-8.985283926958306,50.45537901894087 L-8.966900117121503,50.4165112788492 L-8.941183832901123,50.377739018560405 L-8.908156103191523,50.33909394319016 L-8.867843935651862,50.30060765385161 L-8.820280294621204,50.26231162181431 L-8.765504074162703,50.22423716276934 L-8.703560066258884,50.18641541122159 L-8.634498924184035,50.14887729503027 L-8.558377121083677,50.11165351011836 L-8.475256903794952,50.07477449537174 L-8.38520624194572,50.038270407748485 L-8.288298772373974,50.00217109761872 L-8.184613738913031,49.96650608435518 L-8.074235927591715,49.93130453219442 L-7.95725559730256,49.89659522638843 L-7.8337684059946895,49.86240654966617 L-7.703875332451759,49.828766459024266 L-7.567682593718893,49.795702462865805 L-7.276848654819619,49.73141041006302 L-6.9622176856274995,49.669740641601145 L-6.624818604436716,49.61089483232844 L-6.265754786696829,49.55506542207323 L-5.8862004567119435,49.50243498631977 L-5.487396847647316,49.45317563914292 " />
			<path d="M-4.938657162882529,49.56118545059644 L-4.480360461135915,49.511551881539326 L-4.00038272254843,49.46686255519284 L-3.5010466207360436,49.42733372891826 L-2.9847685069082805,49.39315668775754 L-2.454046716835918,49.36449681878052 L-1.9114494810849183,49.34149281075578 L-1.359602497020507,49.32425598301796 L-0.8011762227220682,49.31286974677926 L-0.23887295429524583,49.30738920149197 L0.32458625088426757,49.3078408682151 L0.8864747417151239,49.31422256127567 L1.4440734679834308,49.326503398845404 L1.9946841381942269,49.344623952381866 L2.535642276948854,49.36849653421077 L3.0643301186819194,49.39800562185784 L3.578189275363406,49.433008417076834 L4.074733116865297,49.47333553686848 L4.551558804082548,49.518791833146494 L5.006358916578591,49.569157337084086 L5.4369326184876945,49.624188323571204 L5.642478580828115,49.65337100079517 L5.841196308640986,49.683618490631545 L6.032845324052826,49.71489418913908 L6.217193703378774,49.7471602480918 L6.394018357784594,49.78037762078094 L6.563105303257188,49.81450610926727 L6.724249919556943,49.849504413026544 L6.877257197838511,49.885330178929244 L7.021941976640388,49.921940052494136 L7.158129165957693,49.95928973035363 L7.285653959127015,49.997334013867395 L7.404362032266859,50.0360268638194 L7.514109731032402,50.07532145613222 L7.614764244458516,50.115170238531064 L7.706203765680703,50.15552498808907 L7.788317639339433,50.19633686958422 L7.861006495489521,50.23755649459716 L7.924182369852461,50.27913398127849 L7.9777688102662365,50.321019014713244 L8.021700969203756,50.3631609078093 L8.05592568224796,50.40550866263636 L8.069384343404275,50.42674373153213 L8.080401532428633,50.448011032140904 L8.088973915961406,50.46930412983031 L8.09509890034308,50.49061658216281 L8.098774632398982,50.51194194084492 L8.099999999999982,50.5332737536782 " />
			<path d="M8.099999999999982,50.533273753678216 L8.097560431439236,50.56337155732573 L8.090243195261879,50.59345123118176 L8.078052699097373,50.62349465637551 L8.060996286044777,50.65348373587107 L8.039084230249532,50.68340040536829 L8.012329730714708,50.713226644184125 L7.980748903350406,50.742944486107596 L7.944360771266148,50.77253603022194 L7.903187253312064,50.80198345168749 L7.857253150875788,50.831269012478664 L7.806586132943044,50.86037507206869 L7.751216719430873,50.88928409805563 L7.691178262803579,50.9179786767232 L7.62650692798245,50.946441523530176 L7.483424213341404,51.00260359165792 L7.322313274299873,51.05763500309754 L7.143562241221657,51.11140318235868 L6.9476017410021855,51.16377859718797 L6.734903859650597,51.214635070623544 L6.505981004993206,51.2638500849664 L6.261384672238151,51.31130507693625 L6.00170411537515,51.35688572330088 L5.7275649276110165,51.40048221629079 L5.439627534260832,51.441989528135785 L5.13858560172551,51.48130766408601 L4.825164366388691,51.5183419033081 L4.500118887458759,51.553003027075945 L4.164232227965076,51.585207533706445 L3.8183135682905607,51.61487783972234 L3.463196256785266,51.64194246675762 L3.099735802157208,51.66633621375519 L2.728807812476963,51.68800031404188 L2.3513058857611266,51.70688257690255 L1.9681394572164186,51.72293751331208 L1.5802316083306198,51.73612644552242 L1.1885168430884105,51.746417600240655 L0.7939388366694209,51.75378618517367 L0.3974481620520673,51.75821444875494 L-1.9057325671805715e-14,51.75969172290964 L-0.3974481620521054,51.75821444875494 L-0.7939388366694591,51.75378618517367 L-1.1885168430884487,51.746417600240655 L-1.5802316083306578,51.73612644552242 L-1.9681394572164568,51.72293751331208 L-2.351305885761165,51.70688257690255 L-2.7288078124770023,51.68800031404188 L-3.0997358021572476,51.66633621375519 L-3.4631962567853045,51.64194246675762 L-3.818313568290602,51.61487783972234 L-4.164232227965118,51.585207533706445 L-4.5001188874587985,51.553003027075945 L-4.82516436638873,51.5183419033081 L-5.138585601725548,51.48130766408601 L-5.439627534260867,51.441989528135785 L-5.727564927611055,51.40048221629079 L-6.001704115375189,51.35688572330088 L-6.261384672238189,51.31130507693625 L-6.5059810049932425,51.2638500849664 L-6.734903859650635,51.214635070623544 L-6.947601741002222,51.16377859718797 L-7.143562241221694,51.11140318235868 L-7.32231327429991,51.05763500309754 L-7.483424213341441,51.00260359165792 L-7.6265069279824855,50.946441523530176 L-7.691178262803614,50.9179786767232 L-7.751216719430911,50.88928409805563 L-7.806586132943082,50.86037507206869 L-7.857253150875826,50.831269012478664 L-7.9031872533121,50.80198345168749 L-7.944360771266185,50.77253603022194 L-7.980748903350443,50.742944486107596 L-8.012329730714743,50.713226644184125 L-8.03908423024957,50.68340040536829 L-8.060996286044812,50.65348373587107 L-8.078052699097409,50.62349465637551 L-8.090243195261914,50.59345123118176 L-8.097560431439272,50.56337155732573 L-8.100000000000017,50.53327375367822 " />
			<path d="M-8.100000000000017,50.533273753678216 L-8.096688206530077,50.498206785446854 L-8.086755534262478,50.4631684924146 L-8.070210105409354,50.428187526332096 L-8.047065449611011,50.393292492072185 L-8.017340492872373,50.35851192423897 L-7.981059542086678,50.32387426383427 L-7.938252265159085,50.2894078350007 L-7.888953666746435,50.25514082186023 L-7.833204059632997,50.22110124546725 L-7.771049031765632,50.187316940895066 L-7.702539408975309,50.15381553447435 L-7.627731213415458,50.120624421202386 L-7.54668561775115,50.087770742341455 L-7.459468895136578,50.05528136322467 L-7.366152365021729,50.02318285128749 L-7.2668123348325455,49.991501454342796 L-7.161530037572306,49.960263079117404 L-7.0503915653952225,49.92949327006737 L-6.8109143343470055,49.86945959194705 L-6.549163789337658,49.81159674442454 L-6.2659959170647515,49.756093952808854 L-5.962336743993046,49.703132724463416 L-5.639179308027147,49.652886255233724 L-5.297580411040751,49.605518863055615 L-4.938657162882587,49.56118545059645 " />
			<path d="M-9.00000000000002,50.5332737536782 L-9.00000000000002,44.60244712432835 " />
			<path d="M8.999999999999982,50.5332737536782 L8.999999999999982,44.60244712432835 " />

        </g>
        </g>
    </svg>
    