<?xml version="1.0" encoding="UTF-8" standalone="no"?>
    <svg
    xmlns:svg="http://www.w3.org/2000/svg"
    xmlns="http://www.w3.org/2000/svg"
    width="500.0"
    height="220.0"
    >
        <g transform="scale(2.527592876994451, -2.527592876994451)   translate(63.95633335218563,-36.596083507717154)" stroke-width="0.39563333521856386"  fill="none">
        <!-- hidden lines -->
        <g  stroke="rgb(160,160,160)" fill="none" stroke-dasharray="0.39563333521856386,0.39563333521856386" >
    			<path d="M42.42640687119285,7.36459694318658 L42.03412763659491,7.516404473630569 L41.638287653379244,7.66679545570852 L41.23892045350555,7.815757149665583 L40.83605986772719,7.963276936823174 L40.42974002272537,8.109342320647947 L40.01999533821826,8.253940927810337 L39.60686052404524,8.397060509232773 L39.19037057722661,8.538688941127269 L38.770560778998984,8.678814226022439 L38.347466691826554,8.81742449377984 L37.921124156388544,8.95450800259949 L37.49156928854319,9.090053140014515 L37.05883847626824,9.224048423874873 L36.62296837657857,9.356482503319999 L36.18399591242089,9.487344159740342 L35.741958269546004,9.61662230772773 L35.296892893358724,9.744305996014411 L34.84883748574588,9.870384408400732 L34.39783000188253,9.994846864671402 L33.94390864701679,10.117682821500228 L33.487111873233374,10.238881873343232 L33.02747837619629,10.358433753320131 L32.56504709187096,10.476328334084048 L32.09985719322584,10.5925556286794 L31.63194808691408,10.707105791387917 L31.161359409935386,10.819969118562668 L30.688131026278235,10.931136049450071 L30.212303023543058,11.04059716699981 L29.73391570954636,11.14834319866252 L29.25300960890616,11.254365017175317 L28.76962545960918,11.35865364133495 L28.28380420955986,11.46120023675861 L27.79558701311162,11.561996116632319 L27.305015227580633,11.661032742446768 L26.81213040974245,11.758301724720639 L26.316974312311658,11.85379482371129 L25.81958888040495,11.94750395011273 L25.32001624798798,12.03942116574089 L24.818298734306076,12.129538684206072 L24.314478840299394,12.217848871572542 L23.80859924500262,12.304344247005186 L23.300702801929567,12.389017483403254 L22.79083253544306,12.47186140802101 L22.27903163711025,12.552869003075365 L21.765343462043838,12.632033406340359 L21.249811525229426,12.70934791172845 L20.732479497839343,12.78480596985861 L20.21339120353319,12.858401188611115 L19.69259061474554,12.930127333669045 L19.17012184896094,12.999978329046371 L18.646029164976696,13.06794825760269 L18.120356959153682,13.134031361544448 L17.59314976165551,13.19822204291269 L17.064452232676302,13.260514864057281 L16.53430915865747,13.320904548097527 L16.002765448493896,13.379385979369168 L15.46986612972954,13.435954203857769 L14.935656344743208,13.490604429618337 L14.400181346924482,13.543332027181282 L13.863486496840256,13.594132529944563 L13.325617258392196,13.643001634552075 L12.786619194965473,13.68993520125817 L12.246537965569013,13.73492925427836 L11.705419320967692,13.777979982126094 L11.16330909980679,13.819083737935646 L10.620253224728923,13.85823703977102 L10.076297698483877,13.895436570920936 L9.531488600031688,13.930679180179784 L8.98587208063929,13.963961882114543 L8.439494359970947,13.995281857317718 L7.344640511952969,14.05202318144573 L6.247298032323275,14.100883926537346 L5.147838740666385,14.141847536793197 L4.046635173819839,14.174900132250706 L2.9440604596450806,14.200030513487135 L1.8404881905982007,14.217230165414374 L0.7362922971432023,14.22649326016414 L-0.3681530789492713,14.227816659062672 L-1.4724737113747364,14.221199913694242 L-2.5762954160964444,14.206645266053084 L-3.679244178132519,14.184157647783735 L-4.780946278285809,14.153744678509995 L-5.881028419773634,14.11541666325315 L-6.97911785471428,14.069186588940216 L-8.074842510427562,14.01507012000354 L-8.621701989017662,13.985060113529155 L-9.167831115506607,13.953085593073087 L-9.713183626806714,13.919149267225624 L-10.25771332561807,13.883254010763334 L-10.801374084341958,13.84540286440556 L-11.344119848988365,13.805599034556824 L-11.885904643077211,13.763845893035224 L-12.426682571533116,13.720146976786786 L-12.966407824573178,13.674505987585864 L-13.505034681587569,13.626926791721555 L-14.042517515012596,13.577413419670169 L-14.578810794195826,13.525970065753828 L-15.113869089253017,13.472601087785133 L-15.647647074916522,13.417311006698032 L-16.18009953437489,13.360104506164841 L-16.711181363103172,13.300986432199473 L-17.240847572683762,13.239961792746954 L-17.76905329461743,13.177035757259173 L-18.295753784124145,13.112213656256984 L-18.820904423933484,13.045500980878646 L-19.344460728064178,12.976903382414676 L-19.866378345592572,12.906426671829095 L-20.38661306440961,12.83407681926722 L-20.905120814966075,12.759859953549888 L-21.4218576740058,12.683782361654298 L-21.93677986828643,12.605850488181435 L-22.449843778287466,12.526070934810129 L-22.961005941905377,12.444450459737833 L-23.470223058135225,12.360995977108129 L-23.9774519907388,12.275714556425026 L-24.4826497718987,12.188613421954084 L-24.985773605858213,12.099699952110456 L-25.486780872546518,12.008981678833841 L-25.985629131189114,11.91646628695046 L-26.482276123903,11.82216161352206 L-26.976679779276395,11.726075647182032 L-27.468798215932637,11.62821652745869 L-27.958589746077976,11.528592544085747 L-28.446012879033013,11.427212136300103 L-28.931026324747357,11.324083892126957 L-29.41358899729744,11.219216547652273 L-29.893660018366887,11.112618986282776 L-30.3711987207093,11.004300237993398 L-30.846164651593284,10.894269478562379 L-31.318517576229254,10.782536028793942 L-31.788217481177668,10.669109353728736 L-32.25522457773872,10.553999061842052 L-32.719499305322785,10.437214904229855 L-33.181002334801654,10.318766773782787 L-33.63969457184017,10.198664704348115 L-34.095537160207904,10.076918869879762 L-34.54849148507071,9.953539583576465 L-34.99851917626187,9.828537297008118 L-35.44558211153244,9.701922599230418 L-35.88964241978052,9.573706215887878 L-36.33066248425952,9.443899008305223 L-36.76860494576457,9.312511972567322 L-37.20343270579735,9.179556238587708 L-37.63510892970864,9.04504306916574 L-38.06359704981873,8.908983859032535 L-38.488860768514996,8.7713901338857 L-38.91086406132676,8.632273549412993 L-39.32957117997693,8.491645890304937 L-39.7449466554103,8.349519069256555 L-40.15695530079814,8.20590512595821 L-40.56556221451894,8.060816226075719 L-40.97073278311487,7.9142646602198035 L-41.372432684224,7.76626284290494 L-41.77062788948777,7.616823311497679 L-42.16528466743352,7.465958725154643 L-42.55636958633195,7.313681863750126 L-42.94384951702912,7.1600056267935095 L-43.32769163575293,7.004943032336527 L-43.707863426893525,6.848507215870502 L-44.08433268575782,6.69071142921363 L-44.457067521297546,6.531569039388401 L-44.826036358810796,6.371093527489252 L-45.191207942616735,6.209298487540586 L-45.55255133870327,6.046197625345226 L-45.91003593734753,5.881804757323355 L-46.263631455708826,5.716133809342134 L-46.613307940393945,5.5491988155360215 L-46.95903576999455,5.381013917117922 L-47.300785657596386,5.211593361181292 L-47.63852865326024,5.040951499493239 L-47.972236146474316,4.869102787278772 L-48.301879868577835,4.696061781996288 L-48.627431895155695,4.521843142104414 L-48.94886464840402,4.34646162582024 L-49.266150899466275,4.169932089869151 L-49.57926377073981,3.992269488226338 L-49.888176738152715,3.81348887084998 L-50.19286363341072,3.6336053824063708 L-50.49329864621391,3.4526342609870113 L-50.78945632644313,3.2705908368177603 L-51.081311586315906,3.087490530960208 L-51.36883970251166,2.903348854005328 L-51.65201631826603,2.718181404759571 L-51.93081744543413,2.5320038689234927 L-52.20521946652267,2.344832017762986 L-52.47519913669056,2.156681706773279 L-52.740733585718004,1.9675688743358144 L-53.0018003199439,1.7775095403680847 L-53.258377224171234,1.5865198049665779 L-53.510442563540565,1.3946158470429193 L-53.75797498537111,1.201813922953347 L-54.00095352096962,1.0081303651216125 L-54.239357587406595,0.813581580655466 L-54.47316698925996,0.6181840499567581 L-54.70236192032578,0.42195432532539634 L-54.92692296529606,0.22490902955719783 L-55.14683110140346,0.02706485453573748 L-55.36206770003271,-0.1715614401816392 L-55.57261452829868,-0.3709530287835232 L-55.77845375059087,-0.5710930206297729 L-55.97956793008433,-0.7719644616823409 L-56.175940030216694,-0.9735503359414572 L-56.36755341613139,-1.175833566887082 L-56.554391856086816,-1.3787970189254581 L-56.736439522831276,-1.5824234988406856 L-56.91368099494381,-1.7866957572511968 L-57.086101258140495,-1.9915964900709469 L-57.25368570654633,-2.1971083399752445 L-57.41642014393252,-2.4032138978711313 L-57.574290784919064,-2.6098957043721107 L-57.7272842561425,-2.8171362512771534 L-57.87538759738876,-3.024917983053828 L-58.01858826269112,-3.2332232983254388 L-58.156874121392896,-3.442034551362082 L-58.29023345917509,-3.6513340535754137 L-58.4186549790487,-3.8611040750170424 L-58.542127802311704,-4.071326845880485 L-58.66064146947059,-4.281984558006444 L-58.774185941126426,-4.493059366391363 L-58.882751598825266,-4.704533390699085 L-58.98632924587297,-4.916388716775513 L-59.084910108114244,-5.128607398166141 L-59.17848583467591,-5.341171457636301 L-59.26704849867432,-5.554062888694046 L-59.35059059788686,-5.767263657115473 L-59.42910505538741,-5.980755702472456 L-59.50258522014597,-6.194520939662539 L-59.5710248675919,-6.40854126044092 L-59.634418200141354,-6.622798534954448 L-59.69275984768833,-6.837274613277412 L-59.746044868059585,-7.051951326949026 L-59.794268747433286,-7.266810490512513 L-59.8374274007214,-7.4818339030555965 L-59.87551717191575,-7.697003349752324 L-59.90853483439768,-7.912300603406058 L-59.93647759121141,-8.127707425993519 L-59.959343075300964,-8.343205570209737 L-59.97712934971071,-8.558776781013822 L-59.9898349077494,-8.774402797175352 L-59.997458673117826,-8.99006535282127 L-59.99999999999999,-9.205746178983132 " />
			<path d="M60.00000000000001,-9.20574617898324 L59.998870516956075,-9.061957833715313 L59.995482110348675,-8.918174901997315 L59.98983490774941,-8.77440279717536 L59.98192912177226,-8.630646932187934 L59.97176505006559,-8.486912719362103 L59.95934307530098,-8.343205570209738 L59.94466366515873,-8.199530895223786 L59.92772737231035,-8.05589410367455 L59.90853483439769,-7.912300603406052 L59.88708677400896,-7.768755800632416 L59.86338399865151,-7.625265099734334 L59.83742740072142,-7.481833903055595 L59.80921795746995,-7.338467610699684 L59.778756730966684,-7.19517162032648 L59.7460448680596,-7.051951326949029 L59.711083600331825,-6.908812122730426 L59.673874244055334,-6.765759396780808 L59.63441820014137,-6.622798534954455 L59.59271695408768,-6.479934919647012 L59.54877207592261,-6.337173929592847 L59.50258522014598,-6.194520939662549 L59.45415812566681,-6.05198132066056 L59.40349261573783,-5.909560439122972 L59.35059059788687,-5.7672636571154765 L59.29545406384498,-5.625096332031491 L59.23808508947151,-5.4830638163904535 L59.178485834675925,-5.341171457636298 L59.11665854333648,-5.199424597936136 L59.05260554321575,-5.0578285739791164 L58.98632924587299,-4.916388716775514 L58.917832146573325,-4.775110351456009 L58.84711682419383,-4.633998797071205 L58.77418594112644,-4.493059366391367 L58.699042243177665,-4.352297365706402 L58.62168855946527,-4.211718094626077 L58.54212780231172,-4.071326845880492 L58.376397132333615,-3.7911295507202682 L58.20187519167265,-3.511747676907736 L58.01858826269113,-3.233223298325443 L57.8265639477264,-2.9555983597203124 L57.625831164933956,-2.678914670386912 L57.416420143932534,-2.403213897871133 L57.19836242125164,-2.1285375616952074 L56.97169083558221,-1.8549270271050275 L56.73643952283128,-1.5824234988406847 L56.49264391098126,-1.3110680149311849 L56.2403407147545,-1.0409014405142827 L55.97956793008434,-0.7719644616823356 L55.71036482839294,-0.504297579355125 L55.432771950677214,-0.23794110318057626 L55.14683110140347,0.027064854535735705 L54.852585342211846,0.2906803848713473 L54.55007898543135,0.552865788297046 L54.23935758740661,0.8135815806554678 L53.920467941637234,1.072788499107272 L53.59345807173093,1.3304475080439744 L53.25837722417124,1.5865198049665814 L52.91527586090131,1.840966826329078 L52.5642056517244,2.093750253345979 L52.20521946652269,2.344832017762984 L51.83837136729521,2.5941743075899257 L51.46371660001633,2.841739572795106 L51.08131158631592,3.0874905309602063 L50.691213914982434,3.331390172894867 L50.293482333290285,3.5734017682101484 L49.88817673815272,3.81348887084998 L49.475358167101525,4.051615324579817 L49.05508878909503,4.287745268431628 L48.627431895155695,4.521843142104419 L48.192451888838704,4.753873691319496 L47.75021427653302,4.983801973129623 L47.300785657596386,5.211593361181301 L46.844233714325675,5.437213550929373 L46.38062720176423,5.66062856480316 L45.91003593734754,5.881804757323357 L45.43253079038908,6.100708820168919 L44.94818367140757,6.317307787193176 L44.45706752129756,6.531569039388403 L43.959256300344784,6.743460309798142 L43.45482497708803,6.95294968837646 L42.94384951702912,7.160005626793513 L42.42640687119291,7.364596943186559 " />
			<path d="M-3.5355339059327324,-18.871779666915636 L-3.5355339059327324,-0.46028730894916947 " />
			<path d="M24.748737341529164,-7.824884252135755 L24.748737341529164,10.586608105830711 " />
			<path d="M-3.5355339059327324,-18.871779666915636 L24.748737341529168,-7.824884252135755 " />
			<path d="M3.535533905932743,0.46028730894915526 L3.535533905932743,2.3014365447458025 " />
			<path d="M24.748737341529168,-7.824884252135755 L3.5355339059327426,0.4602873089491549 " />
			<path d="M-24.748737341529157,-10.586608105830726 L-24.748737341529157,7.824884252135741 " />
			<path d="M-24.748737341529157,-10.586608105830726 L3.535533905932743,0.46028730894915454 " />
			<path d="M-3.535533905932732,-18.871779666915636 L-24.748737341529157,-10.586608105830727 " />

        </g>

        <!-- solid lines -->
        <g  stroke="rgb(0,0,0)" fill="none">
    			<path d="M-59.99999999999999,-9.205746178983237 L-59.99887051695606,-9.349534524251158 L-59.99548211034866,-9.49331745596916 L-59.9898349077494,-9.637089560791122 L-59.98192912177225,-9.780845425778542 L-59.97176505006558,-9.924579638604367 L-59.959343075300964,-10.068286787756737 L-59.944663665158714,-10.211961462742694 L-59.927727372310336,-10.355598254291923 L-59.90853483439768,-10.499191754560416 L-59.88708677400894,-10.642736557334057 L-59.86338399865149,-10.786227258232143 L-59.8374274007214,-10.929658454910877 L-59.80921795746994,-11.07302474726679 L-59.77875673096667,-11.21632073764 L-59.746044868059585,-11.359541031017446 L-59.71108360033181,-11.502680235236054 L-59.67387424405532,-11.645732961185676 L-59.634418200141354,-11.788693823012025 L-59.59271695408766,-11.931557438319473 L-59.54877207592259,-12.07431842837364 L-59.50258522014597,-12.216971418303935 L-59.454158125666794,-12.359511037305928 L-59.40349261573781,-12.501931918843521 L-59.35059059788685,-12.644228700851011 L-59.295454063844964,-12.78639602593499 L-59.23808508947149,-12.928428541576032 L-59.178485834675904,-13.070320900330191 L-59.11665854333646,-13.21206776003035 L-59.05260554321574,-13.353663783987361 L-58.98632924587297,-13.495103641190969 L-58.91783214657331,-13.63638200651048 L-58.84711682419382,-13.777493560895278 L-58.774185941126426,-13.91843299157511 L-58.69904224317765,-14.05919499226008 L-58.62168855946525,-14.199774263340409 L-58.542127802311704,-14.340165512085989 L-58.3763971323336,-14.620362807246213 L-58.201875191672634,-14.899744681058744 L-58.018588262691125,-15.178269059641035 L-57.82656394772639,-15.455893998246165 L-57.62583116493395,-15.732577687579564 L-57.41642014393253,-16.008278460095344 L-57.19836242125163,-16.282954796271266 L-56.9716908355822,-16.556565330861446 L-56.736439522831276,-16.829068859125787 L-56.49264391098125,-17.100424343035286 L-56.240340714754495,-17.37059091745219 L-55.979567930084336,-17.639527896284136 L-55.710364828392926,-17.907194778611355 L-55.4327719506772,-18.1735512547859 L-55.14683110140346,-18.43855721250221 L-54.852585342211825,-18.70217274283783 L-54.55007898543133,-18.964358146263532 L-54.23935758740659,-19.225073938621954 L-53.92046794163722,-19.484280857073756 L-53.593458071730915,-19.74193986601046 L-53.25837722417123,-19.998012162933065 L-52.915275860901296,-20.25245918429556 L-52.564205651724386,-20.505242611312458 L-52.20521946652268,-20.756324375729463 L-51.8383713672952,-21.005666665556404 L-51.46371660001632,-21.253231930761586 L-51.081311586315906,-21.498982888926683 L-50.69121391498243,-21.742882530861344 L-50.293482333290285,-21.98489412617662 L-49.88817673815272,-22.224981228816453 L-49.475358167101525,-22.463107682546294 L-49.05508878909503,-22.699237626398098 L-48.6274318951557,-22.93333550007089 L-48.192451888838704,-23.165366049285964 L-47.75021427653303,-23.395294331096093 L-47.300785657596386,-23.62308571914777 L-46.84423371432567,-23.84870590889585 L-46.38062720176422,-24.072120922769635 L-45.91003593734754,-24.293297115289832 L-45.43253079038906,-24.5122011781354 L-44.94818367140755,-24.728800145159656 L-44.45706752129753,-24.94306139735489 L-43.95925630034476,-25.154952667764622 L-43.454824977088016,-25.36444204634294 L-42.943849517029115,-25.571497984759993 L-42.42640687119285,-25.776089301153057 L-41.902574964538374,-25.978185184822433 L-41.37243268422402,-26.177755200871413 L-40.83605986772717,-26.374769294789658 L-40.29353729082109,-26.56919779697929 L-39.7449466554103,-26.76101142722304 L-39.19037057722658,-26.95018129909375 L-38.629892573387444,-27.13667892430454 L-38.06359704981871,-27.32047621699902 L-37.49156928854318,-27.501545497980995 L-36.91389543483759,-27.679859498882777 L-36.33066248425949,-27.85539136627171 L-35.74195826954599,-28.028114665694215 L-35.147871447386336,-28.198003385656733 L-34.548491485070706,-28.365031941542945 L-33.94390864701676,-28.529175179466712 L-33.33421398117613,-28.690408380060152 L-32.7194993053228,-28.84870726219633 L-32.09985719322583,-29.00404798664588 L-31.475380960708108,-29.15640715966707 L-30.846164651593305,-29.305761836528855 L-30.21230302354308,-29.452089524966283 L-29.573891533787048,-29.595368188567722 L-28.93102632474735,-29.735576250093438 L-28.283804209559868,-29.872692594725088 L-27.632322657494434,-30.00669657324553 L-26.97667977927641,-30.137568005148513 L-26.31697431231165,-30.265287181677767 L-25.653305605816946,-30.389834868795088 L-24.98577360585827,-30.511192310076922 L-24.314478840299415,-30.629341229539016 L-23.639522403662887,-30.74426383438867 L-22.961005941905412,-30.855942817704307 L-22.279031637110307,-30.964361361041835 L-21.59370219209932,-31.069503136967427 L-20.905120814966082,-31.17135231151637 L-20.21339120353324,-31.26989354657759 L-19.51861752973584,-31.365112002203563 L-18.820904423933534,-31.456993338845123 L-18.120356959153703,-31.545523719510925 L-17.417080635267794,-31.630689811851276 L-16.711181363103265,-31.712478790165942 L-16.002765448493953,-31.79087833733564 L-15.291939576270906,-31.865876646676938 L-14.578810794195894,-31.9374624237203 L-13.863486496840304,-32.00562488791104 L-13.1460744094122,-32.07035377423276 L-12.426682571533155,-32.13163933475326 L-11.705419320967714,-32.18947234009257 L-10.982393277308454,-32.243844080812806 L-10.257713325618097,-32.29474636872982 L-9.531488600031686,-32.34217153814626 L-8.803828467321681,-32.386112447006084 L-8.074842510427576,-32.42656247797002 L-7.344640511952952,-32.463515539412214 L-6.61333243763294,-32.49696606633752 L-5.881028419773622,-32.52690902121963 L-5.1478387406664075,-32.553339894759674 L-4.413873815980036,-32.57625470656533 L-3.6792441781324814,-32.595650005750215 L-2.944060459645077,-32.611522871453616 L-2.208433376481555,-32.62387091328034 L-1.4724737113747381,-32.63269227166072 L-0.7362922971431725,-32.63798561813062 L-5.971362931473096e-15,-32.63975015553153 L0.7362922971431604,-32.63798561813062 L1.4724737113747264,-32.63269227166072 L2.208433376481543,-32.62387091328034 L2.944060459645065,-32.611522871453616 L3.67924417813247,-32.595650005750215 L4.4138738159800255,-32.57625470656533 L5.147838740666398,-32.553339894759674 L5.881028419773611,-32.52690902121963 L6.613332437632929,-32.49696606633752 L7.344640511952941,-32.463515539412214 L8.074842510427564,-32.42656247797002 L8.803828467321669,-32.386112447006084 L9.531488600031674,-32.34217153814626 L10.257713325618084,-32.29474636872982 L10.982393277308441,-32.24384408081281 L11.705419320967701,-32.18947234009258 L12.426682571533144,-32.13163933475326 L13.14607440941219,-32.07035377423276 L13.863486496840292,-32.00562488791104 L14.578810794195883,-31.937462423720305 L15.291939576270897,-31.865876646676938 L16.002765448493946,-31.790878337335645 L16.711181363103258,-31.712478790165946 L17.41708063526778,-31.63068981185128 L18.120356959153696,-31.545523719510925 L18.82090442393352,-31.456993338845123 L19.518617529735835,-31.365112002203567 L20.213391203533234,-31.269893546577592 L20.905120814966075,-31.17135231151637 L21.593702192099315,-31.06950313696743 L22.2790316371103,-30.964361361041835 L22.961005941905405,-30.85594281770431 L23.63952240366288,-30.744263834388676 L24.314478840299408,-30.62934122953902 L24.98577360585827,-30.51119231007693 L25.65330560581694,-30.38983486879509 L26.316974312311643,-30.26528718167777 L26.976679779276402,-30.137568005148516 L27.632322657494427,-30.00669657324553 L28.28380420955986,-29.87269259472509 L28.931026324747336,-29.735576250093445 L29.57389153378704,-29.595368188567726 L30.212303023543065,-29.45208952496629 L30.84616465159329,-29.30576183652886 L31.4753809607081,-29.156407159667072 L32.09985719322582,-29.004047986645887 L32.71949930532279,-28.848707262196335 L33.33421398117612,-28.690408380060163 L33.943908647016755,-28.52917517946672 L34.5484914850707,-28.365031941542956 L35.14787144738633,-28.198003385656737 L35.741958269545975,-28.028114665694222 L36.330662484259484,-27.855391366271718 L36.913895434837585,-27.67985949888278 L37.491569288543175,-27.501545497981002 L38.063597049818696,-27.32047621699903 L38.62989257338744,-27.136678924304547 L39.190370577226574,-26.95018129909376 L39.744946655410295,-26.761011427223046 L40.293537290821064,-26.5691977969793 L40.836059867727165,-26.374769294789665 L41.372432684224016,-26.177755200871424 L41.902574964538346,-25.978185184822447 L42.42640687119285,-25.776089301153064 L42.943849517029136,-25.57149798475999 L43.45482497708801,-25.364442046342948 L43.959256300344784,-25.154952667764622 L44.457067521297574,-24.943061397354874 L44.94818367140757,-24.728800145159656 L45.432530790389094,-24.512201178135392 L45.91003593734758,-24.29329711528982 L46.380627201764234,-24.072120922769635 L46.84423371432567,-23.848705908895855 L47.30078565759639,-23.623085719147774 L47.75021427653304,-23.39529433109609 L48.19245188883871,-23.16536604928597 L48.62743189515569,-22.933335500070903 L49.05508878909503,-22.69923762639811 L49.47535816710154,-22.463107682546287 L49.88817673815272,-22.22498122881646 L50.29348233329027,-21.984894126176638 L50.691213914982434,-21.74288253086135 L51.08131158631593,-21.498982888926683 L51.463716600016326,-21.253231930761594 L51.838371367295196,-21.00566666555642 L52.205219466522685,-20.75632437572947 L52.56420565172441,-20.505242611312454 L52.9152758609013,-20.252459184295567 L53.25837722417122,-19.99801216293308 L53.593458071730915,-19.741939866010465 L53.920467941637234,-19.484280857073752 L54.239357587406595,-19.22507393862196 L54.55007898543132,-18.964358146263546 L54.85258534221183,-18.702172742837842 L55.146831101403464,-18.438557212502218 L55.4327719506772,-18.17355125478592 L55.71036482839292,-17.90719477861138 L55.97956793008432,-17.639527896284164 L56.240340714754495,-17.370590917452205 L56.492643910981236,-17.100424343035314 L56.73643952283126,-16.829068859125826 L56.97169083558219,-16.556565330861474 L57.19836242125162,-16.282954796271284 L57.41642014393252,-16.008278460095372 L57.625831164933935,-15.732577687579603 L57.826563947726385,-15.455893998246195 L58.018588262691125,-15.178269059641055 L58.201875191672634,-14.899744681058774 L58.3763971323336,-14.620362807246233 L58.54212780231172,-14.340165512086 L58.621688559465255,-14.19977426334042 L58.69904224317765,-14.0591949922601 L58.77418594112644,-13.91843299157512 L58.847116824193826,-13.777493560895287 L58.91783214657332,-13.636382006510491 L58.98632924587299,-13.495103641190969 L59.05260554321575,-13.353663783987372 L59.11665854333648,-13.21206776003036 L59.178485834675925,-13.070320900330183 L59.238085089471504,-12.928428541576032 L59.29545406384498,-12.786396025935 L59.35059059788687,-12.644228700851 L59.40349261573783,-12.50193191884351 L59.45415812566681,-12.359511037305928 L59.50258522014598,-12.216971418303924 L59.54877207592261,-12.074318428373632 L59.59271695408768,-11.931557438319473 L59.63441820014137,-11.788693823012014 L59.67387424405534,-11.645732961185665 L59.711083600331825,-11.502680235236054 L59.7460448680596,-11.359541031017457 L59.778756730966684,-11.216320737640011 L59.809217957469954,-11.07302474726679 L59.83742740072142,-10.929658454910887 L59.86338399865151,-10.786227258232154 L59.88708677400896,-10.642736557334057 L59.90853483439769,-10.499191754560426 L59.92772737231035,-10.355598254291934 L59.94466366515873,-10.211961462742703 L59.95934307530097,-10.068286787756756 L59.97176505006559,-9.924579638604378 L59.98192912177226,-9.780845425778551 L59.98983490774941,-9.63708956079113 L59.995482110348675,-9.49331745596916 L59.998870516956075,-9.349534524251169 L60.00000000000001,-9.205746178983455 " />
			<path d="M42.42640687119285,25.776089301153046 L42.03412763659491,25.927896831597035 L41.638287653379244,26.078287813674986 L41.23892045350555,26.22724950763205 L40.83605986772719,26.37476929478964 L40.42974002272537,26.520834678614413 L40.01999533821826,26.665433285776803 L39.60686052404524,26.80855286719924 L39.19037057722661,26.950181299093735 L38.770560778998984,27.090306583988905 L38.347466691826554,27.228916851746305 L37.921124156388544,27.366000360565955 L37.49156928854319,27.50154549798098 L37.05883847626824,27.63554078184134 L36.62296837657857,27.767974861286465 L36.18399591242089,27.89883651770681 L35.741958269546004,28.028114665694197 L35.296892893358724,28.155798353980877 L34.84883748574588,28.281876766367198 L34.39783000188253,28.406339222637868 L33.94390864701679,28.529175179466694 L33.487111873233374,28.650374231309698 L33.02747837619629,28.769926111286598 L32.56504709187096,28.887820692050514 L32.09985719322584,29.004047986645865 L31.63194808691408,29.118598149354384 L31.161359409935386,29.231461476529134 L30.688131026278235,29.342628407416537 L30.212303023543058,29.452089524966276 L29.73391570954636,29.559835556628986 L29.25300960890616,29.665857375141783 L28.76962545960918,29.770145999301416 L28.28380420955986,29.872692594725077 L27.79558701311162,29.973488474598785 L27.305015227580633,30.072525100413234 L26.81213040974245,30.169794082687105 L26.316974312311658,30.265287181677756 L25.81958888040495,30.358996308079195 L25.32001624798798,30.450913523707356 L24.818298734306076,30.541031042172538 L24.314478840299394,30.62934122953901 L23.80859924500262,30.715836604971653 L23.300702801929567,30.80050984136972 L22.79083253544306,30.883353765987476 L22.27903163711025,30.96436136104183 L21.765343462043838,31.043525764306825 L21.249811525229426,31.120840269694916 L20.732479497839343,31.196298327825076 L20.21339120353319,31.26989354657758 L19.69259061474554,31.34161969163551 L19.17012184896094,31.411470687012837 L18.646029164976696,31.479440615569157 L18.120356959153682,31.545523719510914 L17.59314976165551,31.609714400879156 L17.064452232676302,31.672007222023748 L16.53430915865747,31.732396906063993 L16.002765448493896,31.790878337335634 L15.46986612972954,31.847446561824235 L14.935656344743208,31.902096787584803 L14.400181346924482,31.95482438514775 L13.863486496840256,32.005624887911026 L13.325617258392196,32.054493992518545 L12.786619194965473,32.10142755922463 L12.246537965569013,32.14642161224482 L11.705419320967692,32.189472340092564 L11.16330909980679,32.23057609590211 L10.620253224728923,32.269729397737485 L10.076297698483877,32.3069289288874 L9.531488600031688,32.342171538146246 L8.98587208063929,32.37545424008101 L8.439494359970947,32.40677421528419 L7.344640511952969,32.4635155394122 L6.247298032323275,32.512376284503816 L5.147838740666385,32.55333989475966 L4.046635173819839,32.58639249021717 L2.9440604596450806,32.6115228714536 L1.8404881905982007,32.628722523380844 L0.7362922971432023,32.63798561813061 L-0.3681530789492713,32.639309017029134 L-1.4724737113747364,32.63269227166071 L-2.5762954160964444,32.61813762401955 L-3.679244178132519,32.5956500057502 L-4.780946278285809,32.56523703647646 L-5.881028419773634,32.526909021219616 L-6.97911785471428,32.48067894690668 L-8.074842510427562,32.42656247797001 L-8.621701989017662,32.396552471495625 L-9.167831115506607,32.36457795103955 L-9.713183626806714,32.33064162519209 L-10.25771332561807,32.294746368729804 L-10.801374084341958,32.25689522237202 L-11.344119848988365,32.21709139252329 L-11.885904643077211,32.17533825100169 L-12.426682571533116,32.13163933475325 L-12.966407824573178,32.085998345552326 L-13.505034681587569,32.038419149688025 L-14.042517515012596,31.988905777636635 L-14.578810794195826,31.937462423720294 L-15.113869089253017,31.8840934457516 L-15.647647074916522,31.8288033646645 L-16.18009953437489,31.771596864131308 L-16.711181363103172,31.71247879016594 L-17.240847572683762,31.65145415071342 L-17.76905329461743,31.58852811522564 L-18.295753784124145,31.52370601422345 L-18.820904423933484,31.456993338845113 L-19.344460728064178,31.388395740381142 L-19.866378345592572,31.31791902979556 L-20.38661306440961,31.245569177233687 L-20.905120814966075,31.171352311516355 L-21.4218576740058,31.095274719620765 L-21.93677986828643,31.0173428461479 L-22.449843778287466,30.937563292776595 L-22.961005941905377,30.8559428177043 L-23.470223058135225,30.772488335074595 L-23.9774519907388,30.687206914391492 L-24.4826497718987,30.60010577992055 L-24.985773605858213,30.511192310076922 L-25.486780872546518,30.420474036800307 L-25.985629131189114,30.327958644916926 L-26.482276123903,30.233653971488526 L-26.976679779276395,30.1375680051485 L-27.468798215932637,30.039708885425156 L-27.958589746077976,29.940084902052213 L-28.446012879033013,29.83870449426657 L-28.931026324747357,29.735576250093423 L-29.41358899729744,29.63070890561874 L-29.893660018366887,29.524111344249242 L-30.3711987207093,29.415792595959864 L-30.846164651593284,29.305761836528845 L-31.318517576229254,29.194028386760408 L-31.788217481177668,29.080601711695202 L-32.25522457773872,28.96549141980852 L-32.719499305322785,28.84870726219632 L-33.181002334801654,28.730259131749253 L-33.63969457184017,28.61015706231458 L-34.095537160207904,28.48841122784623 L-34.54849148507071,28.36503194154293 L-34.99851917626187,28.240029654974585 L-35.44558211153244,28.113414957196884 L-35.88964241978052,27.985198573854344 L-36.33066248425952,27.85539136627169 L-36.76860494576457,27.724004330533788 L-37.20343270579735,27.591048596554174 L-37.63510892970864,27.456535427132206 L-38.06359704981873,27.320476216999 L-38.488860768514996,27.182882491852165 L-38.91086406132676,27.04376590737946 L-39.32957117997693,26.903138248271404 L-39.7449466554103,26.76101142722302 L-40.15695530079814,26.617397483924677 L-40.56556221451894,26.472308584042185 L-40.97073278311487,26.32575701818627 L-41.372432684224,26.177755200871406 L-41.77062788948777,26.028315669464146 L-42.16528466743352,25.87745108312111 L-42.55636958633195,25.725174221716593 L-42.94384951702912,25.571497984759976 L-43.32769163575293,25.416435390302993 L-43.707863426893525,25.259999573836968 L-44.08433268575782,25.102203787180095 L-44.457067521297546,24.943061397354867 L-44.826036358810796,24.782585885455717 L-45.191207942616735,24.620790845507052 L-45.55255133870327,24.457689983311692 L-45.91003593734753,24.29329711528982 L-46.263631455708826,24.1276261673086 L-46.613307940393945,23.96069117350249 L-46.95903576999455,23.79250627508439 L-47.300785657596386,23.62308571914776 L-47.63852865326024,23.452443857459706 L-47.972236146474316,23.280595145245236 L-48.301879868577835,23.107554139962755 L-48.627431895155695,22.933335500070882 L-48.94886464840402,22.757953983786706 L-49.266150899466275,22.581424447835616 L-49.57926377073981,22.403761846192804 L-49.888176738152715,22.224981228816446 L-50.19286363341072,22.04509774037284 L-50.49329864621391,21.864126618953478 L-50.78945632644313,21.682083194784227 L-51.081311586315906,21.498982888926676 L-51.36883970251166,21.314841211971796 L-51.65201631826603,21.129673762726036 L-51.93081744543413,20.94349622688996 L-52.20521946652267,20.756324375729452 L-52.47519913669056,20.568174064739743 L-52.740733585718004,20.37906123230228 L-53.0018003199439,20.189001898334553 L-53.258377224171234,19.998012162933044 L-53.510442563540565,19.806108205009387 L-53.75797498537111,19.613306280919815 L-54.00095352096962,19.41962272308808 L-54.239357587406595,19.225073938621932 L-54.47316698925996,19.029676407923226 L-54.70236192032578,18.83344668329186 L-54.92692296529606,18.636401387523662 L-55.14683110140346,18.438557212502204 L-55.36206770003271,18.239930917784825 L-55.57261452829868,18.04053932918294 L-55.77845375059087,17.84039933733669 L-55.97956793008433,17.639527896284125 L-56.175940030216694,17.43794202202501 L-56.36755341613139,17.235658791079384 L-56.554391856086816,17.03269533904101 L-56.736439522831276,16.82906885912578 L-56.91368099494381,16.62479660071527 L-57.086101258140495,16.41989586789552 L-57.25368570654633,16.21438401799122 L-57.41642014393252,16.008278460095333 L-57.574290784919064,15.801596653594356 L-57.7272842561425,15.594356106689313 L-57.87538759738876,15.386574374912637 L-58.01858826269112,15.178269059641028 L-58.156874121392896,14.969457806604385 L-58.29023345917509,14.760158304391052 L-58.4186549790487,14.550388282949424 L-58.542127802311704,14.340165512085981 L-58.66064146947059,14.129507799960022 L-58.774185941126426,13.918432991575102 L-58.882751598825266,13.706958967267381 L-58.98632924587297,13.495103641190953 L-59.084910108114244,13.282884959800326 L-59.17848583467591,13.070320900330165 L-59.26704849867432,12.85742946927242 L-59.35059059788686,12.644228700850993 L-59.42910505538741,12.43073665549401 L-59.50258522014597,12.216971418303928 L-59.5710248675919,12.002951097525546 L-59.634418200141354,11.788693823012018 L-59.69275984768833,11.574217744689054 L-59.746044868059585,11.35954103101744 L-59.794268747433286,11.144681867453954 L-59.8374274007214,10.92965845491087 L-59.87551717191575,10.714489008214143 L-59.90853483439768,10.499191754560409 L-59.93647759121141,10.283784931972948 L-59.959343075300964,10.06828678775673 L-59.97712934971071,9.852715576952644 L-59.9898349077494,9.637089560791114 L-59.997458673117826,9.421427005145196 L-59.99999999999999,9.205746178983334 " />
			<path d="M-59.99999999999999,9.20574617898323 L-59.99887051695606,9.061957833715308 L-59.99548211034866,8.918174901997306 L-59.9898349077494,8.774402797175345 L-59.98192912177225,8.630646932187924 L-59.97176505006558,8.486912719362099 L-59.959343075300964,8.34320557020973 L-59.944663665158714,8.199530895223772 L-59.927727372310336,8.055894103674543 L-59.90853483439768,7.912300603406051 L-59.88708677400894,7.768755800632409 L-59.86338399865149,7.625265099734323 L-59.8374274007214,7.481833903055589 L-59.80921795746994,7.3384676106996745 L-59.77875673096667,7.195171620326466 L-59.746044868059585,7.05195132694902 L-59.71108360033181,6.908812122730412 L-59.67387424405532,6.7657593967807905 L-59.634418200141354,6.622798534954442 L-59.59271695408766,6.479934919646994 L-59.54877207592259,6.337173929592825 L-59.50258522014597,6.194520939662532 L-59.454158125666794,6.051981320660538 L-59.40349261573781,5.909560439122945 L-59.35059059788685,5.767263657115455 L-59.295454063844964,5.625096332031477 L-59.23808508947149,5.483063816390434 L-59.178485834675904,5.341171457636275 L-59.11665854333646,5.199424597936116 L-59.05260554321574,5.057828573979104 L-58.98632924587297,4.916388716775496 L-58.91783214657331,4.775110351455987 L-58.84711682419382,4.633998797071188 L-58.774185941126426,4.493059366391356 L-58.69904224317765,4.352297365706386 L-58.62168855946525,4.211718094626057 L-58.542127802311704,4.071326845880477 L-58.3763971323336,3.791129550720254 L-58.201875191672634,3.5117476769077225 L-58.018588262691125,3.2332232983254316 L-57.82656394772639,2.955598359720301 L-57.62583116493395,2.6789146703869022 L-57.41642014393253,2.4032138978711224 L-57.19836242125163,2.1285375616952003 L-56.9716908355822,1.8549270271050213 L-56.736439522831276,1.5824234988406785 L-56.49264391098125,1.3110680149311795 L-56.240340714754495,1.0409014405142774 L-55.979567930084336,0.771964461682332 L-55.710364828392926,0.5042975793551125 L-55.4327719506772,0.2379411031805656 L-55.14683110140346,-0.027064854535746363 L-54.852585342211825,-0.2906803848713668 L-54.55007898543133,-0.5528657882970656 L-54.23935758740659,-0.8135815806554856 L-53.92046794163722,-1.072788499107288 L-53.593458071730915,-1.3304475080439921 L-53.25837722417123,-1.5865198049665974 L-52.915275860901296,-1.8409668263290921 L-52.564205651724386,-2.0937502533459913 L-52.20521946652268,-2.344832017762995 L-51.8383713672952,-2.594174307589938 L-51.46371660001632,-2.8417395727951185 L-51.081311586315906,-3.087490530960217 L-50.69121391498243,-3.331390172894876 L-50.293482333290285,-3.5734017682101555 L-49.88817673815272,-3.813488870849989 L-49.475358167101525,-4.051615324579826 L-49.05508878909503,-4.287745268431632 L-48.6274318951557,-4.521843142104423 L-48.192451888838704,-4.7538736913195 L-47.75021427653303,-4.983801973129626 L-47.300785657596386,-5.211593361181304 L-46.84423371432567,-5.437213550929384 L-46.38062720176422,-5.660628564803169 L-45.91003593734754,-5.881804757323366 L-45.43253079038906,-6.100708820168935 L-44.94818367140755,-6.31730778719319 L-44.45706752129753,-6.531569039388421 L-43.95925630034476,-6.743460309798156 L-43.454824977088016,-6.952949688376474 L-42.943849517029115,-7.160005626793527 L-42.42640687119285,-7.364596943186591 L-41.902574964538374,-7.566692826855967 L-41.37243268422402,-7.766262842904947 L-40.83605986772717,-7.963276936823192 L-40.29353729082109,-8.157705439012823 L-39.7449466554103,-8.349519069256573 L-39.19037057722658,-8.538688941127283 L-38.629892573387444,-8.725186566338074 L-38.06359704981871,-8.908983859032553 L-37.49156928854318,-9.090053140014529 L-36.91389543483759,-9.268367140916311 L-36.33066248425949,-9.443899008305245 L-35.74195826954599,-9.616622307727749 L-35.147871447386336,-9.786511027690267 L-34.548491485070706,-9.953539583576479 L-33.94390864701676,-10.117682821500246 L-33.33421398117613,-10.278916022093686 L-32.7194993053228,-10.437214904229865 L-32.09985719322583,-10.592555628679413 L-31.475380960708108,-10.744914801700602 L-30.846164651593305,-10.89426947856239 L-30.21230302354308,-11.040597166999817 L-29.573891533787048,-11.183875830601256 L-28.93102632474735,-11.324083892126971 L-28.283804209559868,-11.461200236758621 L-27.632322657494434,-11.595204215279065 L-26.97667977927641,-11.726075647182046 L-26.31697431231165,-11.8537948237113 L-25.653305605816946,-11.978342510828622 L-24.98577360585827,-12.099699952110456 L-24.314478840299415,-12.21784887157255 L-23.639522403662887,-12.332771476422202 L-22.961005941905412,-12.44445045973784 L-22.279031637110307,-12.552869003075369 L-21.59370219209932,-12.65801077900096 L-20.905120814966082,-12.759859953549903 L-20.21339120353324,-12.858401188611122 L-19.51861752973584,-12.953619644237097 L-18.820904423933534,-13.045500980878657 L-18.120356959153703,-13.134031361544459 L-17.417080635267794,-13.21919745388481 L-16.711181363103265,-13.300986432199476 L-16.002765448493953,-13.379385979369175 L-15.291939576270906,-13.454384288710472 L-14.578810794195894,-13.525970065753835 L-13.863486496840304,-13.594132529944574 L-13.1460744094122,-13.65886141626629 L-12.426682571533155,-13.720146976786793 L-11.705419320967714,-13.777979982126105 L-10.982393277308454,-13.832351722846344 L-10.257713325618097,-13.883254010763348 L-9.531488600031686,-13.930679180179794 L-8.803828467321681,-13.974620089039615 L-8.074842510427576,-14.015070120003553 L-7.344640511952952,-14.052023181445744 L-6.61333243763294,-14.085473708371051 L-5.881028419773622,-14.115416663253164 L-5.1478387406664075,-14.141847536793211 L-4.413873815980036,-14.164762348598863 L-3.6792441781324814,-14.184157647783753 L-2.944060459645077,-14.20003051348715 L-2.208433376481555,-14.212378555313876 L-1.4724737113747381,-14.221199913694257 L-0.7362922971431725,-14.226493260164155 L-5.971362931473096e-15,-14.228257797565067 L0.7362922971431604,-14.226493260164155 L1.4724737113747264,-14.221199913694257 L2.208433376481543,-14.21237855531388 L2.944060459645065,-14.20003051348715 L3.67924417813247,-14.184157647783753 L4.4138738159800255,-14.164762348598863 L5.147838740666398,-14.141847536793211 L5.881028419773611,-14.115416663253164 L6.613332437632929,-14.085473708371055 L7.344640511952941,-14.052023181445744 L8.074842510427564,-14.015070120003553 L8.803828467321669,-13.974620089039618 L9.531488600031674,-13.930679180179798 L10.257713325618084,-13.883254010763348 L10.982393277308441,-13.832351722846347 L11.705419320967701,-13.777979982126109 L12.426682571533144,-13.720146976786797 L13.14607440941219,-13.658861416266294 L13.863486496840292,-13.594132529944574 L14.578810794195883,-13.525970065753839 L15.291939576270897,-13.454384288710472 L16.002765448493946,-13.379385979369179 L16.711181363103258,-13.30098643219948 L17.41708063526778,-13.219197453884814 L18.120356959153696,-13.134031361544459 L18.82090442393352,-13.045500980878657 L19.518617529735835,-12.9536196442371 L20.213391203533234,-12.858401188611126 L20.905120814966075,-12.759859953549903 L21.593702192099315,-12.658010779000964 L22.2790316371103,-12.552869003075369 L22.961005941905405,-12.444450459737844 L23.63952240366288,-12.33277147642221 L24.314478840299408,-12.217848871572553 L24.98577360585827,-12.099699952110463 L25.65330560581694,-11.978342510828625 L26.316974312311643,-11.853794823711304 L26.976679779276402,-11.72607564718205 L27.632322657494427,-11.595204215279065 L28.28380420955986,-11.461200236758625 L28.931026324747336,-11.324083892126978 L29.57389153378704,-11.18387583060126 L30.212303023543065,-11.040597166999824 L30.84616465159329,-10.894269478562393 L31.4753809607081,-10.744914801700606 L32.09985719322582,-10.59255562867942 L32.71949930532279,-10.437214904229869 L33.33421398117612,-10.278916022093696 L33.943908647016755,-10.117682821500253 L34.5484914850707,-9.95353958357649 L35.14787144738633,-9.78651102769027 L35.741958269545975,-9.616622307727756 L36.330662484259484,-9.443899008305252 L36.913895434837585,-9.268367140916315 L37.491569288543175,-9.090053140014536 L38.063597049818696,-8.908983859032563 L38.62989257338744,-8.725186566338081 L39.190370577226574,-8.538688941127294 L39.744946655410295,-8.34951906925658 L40.293537290821064,-8.157705439012833 L40.836059867727165,-7.963276936823199 L41.372432684224016,-7.766262842904958 L41.902574964538346,-7.566692826855981 L42.42640687119285,-7.364596943186598 L42.943849517029136,-7.160005626793524 L43.45482497708801,-6.952949688376481 L43.959256300344784,-6.743460309798156 L44.457067521297574,-6.53156903938841 L44.94818367140757,-6.31730778719319 L45.432530790389094,-6.100708820168924 L45.91003593734758,-5.881804757323355 L46.380627201764234,-5.660628564803169 L46.84423371432567,-5.437213550929389 L47.30078565759639,-5.2115933611813094 L47.75021427653304,-4.983801973129625 L48.19245188883871,-4.753873691319507 L48.62743189515569,-4.521843142104437 L49.05508878909503,-4.287745268431641 L49.47535816710154,-4.0516153245798225 L49.88817673815272,-3.8134888708499943 L50.29348233329027,-3.5734017682101715 L50.691213914982434,-3.331390172894883 L51.08131158631593,-3.087490530960215 L51.463716600016326,-2.8417395727951256 L51.838371367295196,-2.5941743075899524 L52.205219466522685,-2.3448320177630038 L52.56420565172441,-2.0937502533459895 L52.9152758609013,-1.8409668263290992 L53.25837722417122,-1.5865198049666116 L53.593458071730915,-1.3304475080439992 L53.920467941637234,-1.0727884991072862 L54.239357587406595,-0.8135815806554927 L54.55007898543132,-0.5528657882970798 L54.85258534221183,-0.2906803848713757 L55.146831101403464,-0.02706485453575347 L55.4327719506772,0.23794110318054784 L55.71036482839292,0.5042975793550859 L55.97956793008432,0.7719644616823036 L56.240340714754495,1.0409014405142596 L56.492643910981236,1.3110680149311502 L56.73643952283126,1.5824234988406403 L56.97169083558219,1.854927027104992 L57.19836242125162,2.1285375616951816 L57.41642014393252,2.403213897871093 L57.625831164933935,2.6789146703868623 L57.826563947726385,2.9555983597202715 L58.018588262691125,3.233223298325411 L58.201875191672634,3.5117476769076923 L58.3763971323336,3.7911295507202336 L58.54212780231172,4.071326845880467 L58.621688559465255,4.211718094626047 L58.69904224317765,4.352297365706367 L58.77418594112644,4.493059366391345 L58.847116824193826,4.633998797071178 L58.91783214657332,4.775110351455976 L58.98632924587299,4.916388716775496 L59.05260554321575,5.057828573979093 L59.11665854333648,5.1994245979361065 L59.178485834675925,5.341171457636284 L59.238085089471504,5.483063816390434 L59.29545406384498,5.625096332031466 L59.35059059788687,5.767263657115466 L59.40349261573783,5.909560439122956 L59.45415812566681,6.051981320660538 L59.50258522014598,6.194520939662542 L59.54877207592261,6.337173929592835 L59.59271695408768,6.479934919646993 L59.63441820014137,6.622798534954453 L59.67387424405534,6.7657593967808 L59.711083600331825,6.908812122730412 L59.7460448680596,7.051951326949009 L59.778756730966684,7.195171620326455 L59.809217957469954,7.338467610699675 L59.83742740072142,7.481833903055579 L59.86338399865151,7.625265099734313 L59.88708677400896,7.76875580063241 L59.90853483439769,7.91230060340604 L59.92772737231035,8.055894103674532 L59.94466366515873,8.199530895223763 L59.95934307530097,8.34320557020971 L59.97176505006559,8.486912719362088 L59.98192912177226,8.630646932187915 L59.98983490774941,8.774402797175336 L59.995482110348675,8.918174901997306 L59.998870516956075,9.061957833715297 L60.00000000000001,9.205746178983011 " />
			<path d="M60.00000000000001,9.205746178983226 L59.998870516956075,9.349534524251153 L59.995482110348675,9.493317455969152 L59.98983490774941,9.637089560791106 L59.98192912177226,9.780845425778532 L59.97176505006559,9.924579638604364 L59.95934307530098,10.068286787756728 L59.94466366515873,10.21196146274268 L59.92772737231035,10.355598254291916 L59.90853483439769,10.499191754560414 L59.88708677400896,10.64273655733405 L59.86338399865151,10.786227258232131 L59.83742740072142,10.929658454910872 L59.80921795746995,11.073024747266782 L59.778756730966684,11.216320737639986 L59.7460448680596,11.359541031017438 L59.711083600331825,11.50268023523604 L59.673874244055334,11.645732961185658 L59.63441820014137,11.78869382301201 L59.59271695408768,11.931557438319455 L59.54877207592261,12.07431842837362 L59.50258522014598,12.216971418303917 L59.45415812566681,12.359511037305907 L59.40349261573783,12.501931918843495 L59.35059059788687,12.64422870085099 L59.29545406384498,12.786396025934975 L59.23808508947151,12.928428541576013 L59.178485834675925,13.070320900330168 L59.11665854333648,13.21206776003033 L59.05260554321575,13.35366378398735 L58.98632924587299,13.495103641190951 L58.917832146573325,13.636382006510457 L58.84711682419383,13.777493560895262 L58.77418594112644,13.918432991575099 L58.699042243177665,14.059194992260064 L58.62168855946527,14.19977426334039 L58.54212780231172,14.340165512085974 L58.376397132333615,14.620362807246199 L58.20187519167265,14.899744681058731 L58.01858826269113,15.178269059641023 L57.8265639477264,15.455893998246154 L57.625831164933956,15.732577687579553 L57.416420143932534,16.008278460095333 L57.19836242125164,16.28295479627126 L56.97169083558221,16.55656533086144 L56.73643952283128,16.829068859125783 L56.49264391098126,17.100424343035282 L56.2403407147545,17.370590917452184 L55.97956793008434,17.63952789628413 L55.71036482839294,17.90719477861134 L55.432771950677214,18.17355125478589 L55.14683110140347,18.438557212502204 L54.852585342211846,18.702172742837814 L54.55007898543135,18.964358146263514 L54.23935758740661,19.225073938621932 L53.920467941637234,19.48428085707374 L53.59345807173093,19.74193986601044 L53.25837722417124,19.998012162933048 L52.91527586090131,20.252459184295546 L52.5642056517244,20.505242611312447 L52.20521946652269,20.75632437572945 L51.83837136729521,21.00566666555639 L51.46371660001633,21.253231930761572 L51.08131158631592,21.498982888926673 L50.691213914982434,21.742882530861333 L50.293482333290285,21.984894126176613 L49.88817673815272,22.224981228816446 L49.475358167101525,22.463107682546283 L49.05508878909503,22.699237626398094 L48.627431895155695,22.933335500070886 L48.192451888838704,23.165366049285964 L47.75021427653302,23.39529433109609 L47.300785657596386,23.623085719147767 L46.844233714325675,23.848705908895838 L46.38062720176423,24.072120922769628 L45.91003593734754,24.293297115289825 L45.43253079038908,24.512201178135385 L44.94818367140757,24.728800145159642 L44.45706752129756,24.943061397354867 L43.959256300344784,25.154952667764608 L43.45482497708803,25.364442046342926 L42.94384951702912,25.57149798475998 L42.42640687119291,25.776089301153025 " />
			<path d="M-3.5355339059327324,-0.46028730894916786 L24.748737341529168,10.586608105830711 " />
			<path d="M3.535533905932743,2.3014365447458025 L3.535533905932743,18.87177966691562 " />
			<path d="M24.748737341529168,10.586608105830713 L3.5355339059327426,18.87177966691562 " />
			<path d="M-24.748737341529157,7.824884252135744 L3.535533905932743,18.871779666915625 " />
			<path d="M-3.535533905932732,-0.4602873089491665 L-24.748737341529157,7.824884252135743 " />
			<path d="M-59.99999999999998,9.205746178983226 L-59.99999999999998,-9.20574617898324 " />
			<path d="M59.99999999999999,9.205746178983226 L59.99999999999999,-9.20574617898324 " />

        </g>
        </g>
    </svg>
    