<?xml version="1.0" encoding="UTF-8" standalone="no"?>
    <svg
    xmlns:svg="http://www.w3.org/2000/svg"
    xmlns="http://www.w3.org/2000/svg"
    width="500.0"
    height="220.0"
    >
        <g transform="scale(3.4991589808705754, -3.4991589808705754)   translate(52.35530425143993,-26.434923507529916)" stroke-width="0.28578295683816124"  fill="none">
        <!-- hidden lines -->
        <g  stroke="rgb(160,160,160)" fill="none" stroke-dasharray="0.28578295683816124,0.28578295683816124" >
    			<path d="M-7.071067811865469,19.064731462756278 L-7.071067811865469,23.5770939391483 " />
			<path d="M-49.49747468305832,0.7896634333685971 L-7.071067811865468,19.064731462756278 " />
			<path d="M49.49747468305833,-5.302025909760629 L-7.071067811865475,19.06473146275628 " />
			<path d="M0.9473434549075356,-5.710091719768817 L0.9473434549075356,-1.1977292433767968 " />
			<path d="M3.1611100528533456,-4.756517326785857 L0.947343454907535,-5.710091719768817 " />
			<path d="M3.535533905932742,-9.870792917107549 L3.535533905932742,-5.358430440715528 " />
			<path d="M0.9473434549075356,-5.710091719768817 L3.535533905932741,-9.870792917107549 " />
			<path d="M13.194792168823417,-10.98564944288167 L13.194792168823417,-6.473286966489649 " />
			<path d="M3.535533905932742,-9.870792917107549 L13.19479216882342,-10.98564944288167 " />
			<path d="M20.2658599806889,-7.939804771317054 L20.2658599806889,-3.427442294925034 " />
			<path d="M13.194792168823417,-10.98564944288167 L20.265859980688898,-7.939804771317055 " />
			<path d="M20.2658599806889,-7.939804771317054 L18.052093382743088,-4.381016687907993 " />
			<path d="M-20.265859980688894,3.427442294925025 L-20.265859980688894,7.939804771317045 " />
			<path d="M-18.05209338274308,4.381016687907983 L-20.26585998068889,3.4274422949250236 " />
			<path d="M-17.67766952966368,-0.7332589024137086 L-17.67766952966368,3.779103573978312 " />
			<path d="M-20.265859980688894,3.427442294925025 L-17.67766952966369,-0.7332589024137074 " />
			<path d="M-8.018411266773004,-1.8481154281878278 L-8.018411266773004,2.6642470482041927 " />
			<path d="M-17.67766952966368,-0.7332589024137086 L-8.018411266773004,-1.8481154281878285 " />
			<path d="M-0.9473434549075248,1.197729243376787 L-0.9473434549075248,5.7100917197688075 " />
			<path d="M-8.018411266773004,-1.8481154281878278 L-0.9473434549075246,1.1977292433767868 " />
			<path d="M-0.9473434549075248,1.197729243376787 L-3.1611100528533362,4.756517326785848 " />

        </g>

        <!-- solid lines -->
        <g  stroke="rgb(0,0,0)" fill="none">
    			<path d="M7.07106781186548,-23.577093939148313 L7.07106781186548,-19.064731462756292 " />
			<path d="M-49.497474683058314,0.789663433368597 L-49.497474683058314,5.3020259097606175 " />
			<path d="M7.071067811865482,-23.577093939148313 L-49.49747468305832,0.7896634333685981 " />
			<path d="M7.071067811865482,-19.064731462756292 L-49.49747468305832,5.302025909760618 " />
			<path d="M49.49747468305833,-5.302025909760628 L49.49747468305833,-0.7896634333686077 " />
			<path d="M7.0710678118654755,-23.57709393914831 L49.49747468305833,-5.302025909760628 " />
			<path d="M7.0710678118654755,-19.06473146275629 L49.49747468305833,-0.7896634333686078 " />
			<path d="M-49.49747468305832,5.3020259097606175 L-7.071067811865468,23.5770939391483 " />
			<path d="M49.49747468305833,-0.7896634333686088 L-7.071067811865475,23.577093939148302 " />
			<path d="M17.67766952966369,-3.7791035739783227 L17.67766952966369,0.7332589024136977 " />
			<path d="M8.018411266773011,-2.6642470482042038 L8.018411266773011,1.8481154281878167 " />
			<path d="M17.67766952966369,-3.7791035739783227 L8.01841126677301,-2.664247048204204 " />
			<path d="M17.67766952966369,0.7332589024136982 L8.01841126677301,1.8481154281878167 " />
			<path d="M8.018411266773011,-2.6642470482042038 L3.1611100528533456,-4.756517326785857 " />
			<path d="M8.018411266773011,1.8481154281878167 L0.947343454907535,-1.1977292433767965 " />
			<path d="M0.9473434549075356,-1.1977292433767963 L3.535533905932741,-5.358430440715528 " />
			<path d="M3.535533905932742,-5.358430440715528 L13.19479216882342,-6.473286966489648 " />
			<path d="M13.194792168823417,-6.473286966489649 L20.265859980688898,-3.4274422949250343 " />
			<path d="M18.052093382743088,-4.381016687907993 L17.677669529663692,-3.779103573978322 " />
			<path d="M20.2658599806889,-3.427442294925034 L17.677669529663692,0.7332589024136987 " />
			<path d="M-3.5355339059327315,5.3584304407155186 L-3.5355339059327315,9.87079291710754 " />
			<path d="M-13.194792168823414,6.473286966489637 L-13.194792168823414,10.985649442881657 " />
			<path d="M-3.5355339059327315,5.3584304407155186 L-13.194792168823412,6.4732869664896375 " />
			<path d="M-3.5355339059327315,9.87079291710754 L-13.194792168823412,10.985649442881659 " />
			<path d="M-13.194792168823414,6.473286966489637 L-18.05209338274308,4.381016687907983 " />
			<path d="M-13.194792168823414,10.985649442881657 L-20.26585998068889,7.939804771317044 " />
			<path d="M-20.265859980688894,7.939804771317046 L-17.67766952966369,3.779103573978314 " />
			<path d="M-17.67766952966368,3.779103573978312 L-8.018411266773004,2.6642470482041922 " />
			<path d="M-8.018411266773004,2.6642470482041922 L-0.9473434549075246,5.710091719768807 " />
			<path d="M-3.1611100528533362,4.756517326785848 L-3.5355339059327324,5.358430440715519 " />
			<path d="M-0.9473434549075248,5.7100917197688075 L-3.5355339059327324,9.87079291710754 " />

        </g>
        </g>
    </svg>
    