<?xml version="1.0" encoding="UTF-8" standalone="no"?>
    <svg
    xmlns:svg="http://www.w3.org/2000/svg"
    xmlns="http://www.w3.org/2000/svg"
    width="441"
    height="214"
    >
        <g transform="scale(4, -4)   translate(55.15224871844499,-26.802325886196158)" stroke-width="0.25"  fill="none">
        <!-- hidden lines -->
        <g  stroke="rgb(160,160,160)" fill="none" stroke-dasharray="0.25,0.25" >
    			<path d="M31.81980515339464,12.521023841049344 L31.81980515339464,15.220975073620632 " />
			<path d="M24.748737341529164,12.521023841049344 L24.748737341529164,15.220975073620632 " />
			<path d="M31.81980515339464,12.521023841049344 L24.748737341529164,12.521023841049344 " />
			<path d="M24.748737341529164,9.438579517197123 L24.748737341529164,9.7713701205522 " />
			<path d="M24.748737341529164,12.521023841049344 L24.748737341529164,9.438579517197123 " />
			<path d="M31.81980515339464,9.438579517197123 L31.81980515339464,10.5973085878423 " />
			<path d="M24.748737341529164,9.438579517197123 L31.81980515339464,9.438579517197123 " />
			<path d="M31.81980515339464,9.438579517197123 L31.81980515339464,12.521023841049345 " />
			<path d="M31.81980515339464,7.897357355271012 L23.45464211601656,6.920261657485432 " />
			<path d="M21.213203435596427,12.521023841049344 L12.848040398218348,11.543928143263763 " />
			<path d="M42.42640687119285,12.521023841049344 L34.06124383381478,11.543928143263763 " />
			<path d="M31.81980515339464,17.144690326827675 L23.45464211601656,16.167594629042096 " />
			<path d="M29.57836647297451,13.498119538834924 L29.57836647297451,15.220975073620632 " />
			<path d="M25.62616911380444,15.220975073620632 L29.5783664729745,13.498119538834924 " />
			<path d="M29.57836647297451,13.498119538834924 L30.637354563692544,15.220975073620632 " />
			<path d="M-11.64685702961342,17.598162018314113 L-11.64685702961342,20.2981132508854 " />
			<path d="M-15.182390935546161,14.928686928106941 L-15.182390935546161,15.52328953461159 " />
			<path d="M-11.64685702961342,17.598162018314113 L-15.18239093554616,14.928686928106943 " />
			<path d="M-15.182390935546161,14.928686928106941 L-11.955115939937958,14.116444662465147 " />
			<path d="M-5.52313267265548,16.056939856388002 L-11.646857029613425,17.598162018314113 " />
			<path d="M-2.461270494176507,15.286328775424945 L-2.461270494176507,17.986280007996235 " />
			<path d="M-2.461270494176507,15.286328775424945 L-4.702709174596643,11.639757987432194 " />
			<path d="M3.6624538627814354,12.616853685217775 L-2.461270494176508,15.286328775424947 " />
			<path d="M-16.95015788851253,13.593949383003357 L-16.95015788851253,16.293900615574646 " />
			<path d="M-16.95015788851253,13.593949383003357 L-19.191596568932663,9.947378595010607 " />
			<path d="M-10.826433531554585,10.924474292796186 L-16.95015788851253,13.593949383003357 " />
			<path d="M-6.3435561707143115,21.60237465362487 L-6.3435561707143115,24.302325886196158 " />
			<path d="M-8.584994851134452,17.95580386563212 L-8.584994851134452,19.527502169922343 " />
			<path d="M-6.3435561707143115,21.60237465362487 L-8.584994851134448,17.95580386563212 " />
			<path d="M-8.584994851134452,17.95580386563212 L-5.52313267265548,18.313445712950124 " />
			<path d="M-0.21983181375637292,18.932899563417696 L-6.343556170714316,21.602374653624867 " />
			<path d="M-20.832443565050333,19.90999526120328 L-20.832443565050333,22.609946493774572 " />
			<path d="M-20.832443565050333,19.90999526120328 L-23.073882245470468,16.26342447321053 " />
			<path d="M-14.708719208092392,17.240520170996106 L-14.708719208092392,17.986280007996235 " />
			<path d="M-15.182390935546165,17.18519278466906 L-14.708719208092393,17.240520170996106 " />
			<path d="M-14.708719208092392,17.240520170996106 L-20.832443565050333,19.909995261203278 " />
			<path d="M-33.80740392011738,2.5989096326980645 L-33.80740392011738,2.931700236053141 " />
			<path d="M-38.16336132410896,1.5025999858064822 L-33.80740392011739,2.5989096326980636 " />
			<path d="M-37.34293782605012,5.268384722905236 L-37.34293782605012,7.968335955476525 " />
			<path d="M-33.80740392011738,2.5989096326980645 L-37.34293782605012,5.268384722905235 " />
			<path d="M-37.34293782605012,5.268384722905236 L-43.46666218300807,3.7271625609791266 " />
			<path d="M-25.91591261019306,7.01609150165387 L-34.28107564757114,6.038995803868291 " />
			<path d="M-29.79819828673088,0.7000456234539472 L-38.16336132410896,-0.2770500743316315 " />
			<path d="M-42.64623868494923,5.061900106082712 L-42.64623868494923,6.633598410372938 " />
			<path d="M-43.46666218300807,5.419541953400719 L-42.646238684949225,5.061900106082713 " />
			<path d="M-42.64623868494923,5.061900106082712 L-41.5033582293554,6.921239163600513 " />
			<path d="M-40.404800004529086,8.708470894075461 L-48.76996304190717,7.731375196289882 " />
			<path d="M-44.2870856810669,2.3924250158755376 L-52.65224871844498,1.4153293180899589 " />
			<path d="M-30.637354563692533,-15.220975073620643 L-25.62616911380443,-15.220975073620643 " />
			<path d="M-24.748737341529157,-12.138530749768423 L-24.748737341529157,-9.438579517197134 " />
			<path d="M-24.748737341529157,-15.220975073620643 L-24.748737341529157,-12.138530749768423 " />
			<path d="M-31.819805153394633,-12.138530749768423 L-31.819805153394633,-9.438579517197134 " />
			<path d="M-24.748737341529157,-12.138530749768423 L-31.819805153394633,-12.138530749768421 " />
			<path d="M-31.819805153394633,-12.138530749768423 L-31.819805153394633,-15.220975073620645 " />
			<path d="M-31.819805153394633,-10.597308587842312 L-31.819805153394633,-9.438579517197132 " />
			<path d="M-31.819805153394633,-10.597308587842312 L-24.748737341529154,-9.771370120552211 " />
			<path d="M-29.578366472974494,-6.95073779984956 L-29.578366472974494,-4.250786567278271 " />
			<path d="M-23.454642116016558,-9.620212890056731 L-29.578366472974498,-6.950737799849559 " />
			<path d="M-29.578366472974494,-6.95073779984956 L-31.819805153394633,-10.597308587842312 " />
			<path d="M-18.971764755176288,-11.574404285627892 L-18.971764755176288,-8.874453053056603 " />
			<path d="M-12.848040398218343,-14.243879375835062 L-18.971764755176284,-11.57440428562789 " />
			<path d="M-18.971764755176288,-11.574404285627892 L-21.213203435596427,-15.220975073620643 " />
			<path d="M-40.18496819077271,-11.574404285627892 L-40.18496819077271,-8.874453053056603 " />
			<path d="M-34.061243833814764,-14.243879375835062 L-40.18496819077271,-11.57440428562789 " />
			<path d="M-40.18496819077271,-11.574404285627892 L-42.426406871192846,-15.220975073620643 " />
			<path d="M-29.5783664729745,-16.198070771406222 L-29.5783664729745,-13.498119538834933 " />
			<path d="M-23.454642116016558,-18.867545861613394 L-29.578366472974498,-16.198070771406222 " />
			<path d="M-29.5783664729745,-16.198070771406222 L-31.81980515339464,-19.844641559398973 " />
			<path d="M15.182390935546152,-17.628638160678246 L15.182390935546152,-17.185192784669074 " />
			<path d="M14.708719208092388,-17.986280007996253 L15.182390935546156,-17.62863816067825 " />
			<path d="M9.058666578588216,-16.087415998752135 L9.058666578588216,-13.387464766180846 " />
			<path d="M15.182390935546152,-17.628638160678246 L9.05866657858821,-16.087415998752135 " />
			<path d="M5.523132672655474,-18.756891088959307 L5.523132672655474,-18.313445712950138 " />
			<path d="M9.058666578588216,-16.087415998752135 L5.523132672655475,-18.756891088959303 " />
			<path d="M5.523132672655474,-18.756891088959307 L8.58499485113444,-19.52750216992236 " />
			<path d="M4.702709174596639,-14.3397092200035 L-3.6624538627814425,-15.316804917789078 " />
			<path d="M19.191596568932667,-12.647329827581913 L10.826433531554585,-13.62442552536749 " />
			<path d="M11.955115939937969,-14.116444662465168 L15.182390935546152,-15.523289534611605 " />
			<path d="M8.58499485113444,-20.65575509820342 L0.21983181375635802,-21.632850795988997 " />
			<path d="M23.073882245470465,-18.963375705781832 L14.708719208092383,-19.940471403567408 " />
			<path d="M43.46666218300807,-6.4271137935504195 L43.46666218300807,-5.419541953400721 " />
			<path d="M39.93112827707534,-3.7576387033432503 L39.93112827707534,-1.0576874707719615 " />
			<path d="M43.46666218300807,-6.4271137935504195 L39.93112827707533,-3.757638703343248 " />
			<path d="M39.93112827707534,-3.7576387033432503 L33.807403920117395,-5.2988608652693605 " />
			<path d="M41.503358229355406,-6.92123916360052 L43.46666218300808,-6.4271137935504195 " />
			<path d="M28.157351290613214,-6.069471946232416 L28.157351290613214,-3.369520713661127 " />
			<path d="M34.28107564757116,-8.738947036439585 L28.157351290613214,-6.069471946232414 " />
			<path d="M28.157351290613214,-6.069471946232416 L25.915912610193075,-9.716042734225168 " />
			<path d="M38.16336132410897,-2.4229011582396627 L38.16336132410897,-1.5025999858064893 " />
			<path d="M32.039636967151026,0.2465739319675062 L32.039636967151026,2.9465251645387953 " />
			<path d="M38.16336132410897,-2.4229011582396627 L32.039636967151026,0.24657393196750857 " />
			<path d="M32.039636967151026,0.2465739319675062 L29.798198286730887,-3.3999968560252447 " />
			<path d="M33.80740392011739,-2.9317002360531474 L38.16336132410897,-2.4229011582396622 " />
			<path d="M42.64623868494924,-7.761851338654006 L42.64623868494924,-5.061900106082717 " />
			<path d="M48.769963041907175,-10.431326428861176 L42.64623868494923,-7.761851338654005 " />
			<path d="M42.64623868494924,-7.761851338654006 L40.4048000045291,-11.408422126646757 " />
			<path d="M46.52852436148705,-1.4458054604540849 L46.52852436148705,1.254145772117204 " />
			<path d="M52.65224871844499,-4.115280550661253 L46.528524361487044,-1.4458054604540815 " />
			<path d="M46.52852436148705,-1.4458054604540849 L44.28708568106691,-5.092376248446835 " />
			<path d="M3.882285676537817,4.966070261914271 L3.882285676537817,7.66602149448556 " />
			<path d="M-10.606601717798204,3.2736908694926816 L-10.606601717798204,5.9736421020639705 " />
			<path d="M3.882285676537817,4.966070261914271 L-10.606601717798206,3.2736908694926816 " />
			<path d="M-10.606601717798204,3.2736908694926816 L-14.488887394336018,-3.04235500870724 " />
			<path d="M14.488887394336029,0.3424037761359402 L3.8822856765378164,4.966070261914272 " />

        </g>

        <!-- solid lines -->
        <g  stroke="rgb(0,0,0)" fill="none">
    			<path d="M31.81980515339464,15.220975073620632 L24.748737341529164,15.220975073620632 " />
			<path d="M24.748737341529164,9.7713701205522 L24.748737341529164,12.138530749768412 " />
			<path d="M24.748737341529164,15.220975073620632 L24.748737341529164,12.138530749768412 " />
			<path d="M31.81980515339464,10.5973085878423 L31.81980515339464,12.138530749768412 " />
			<path d="M24.748737341529164,12.138530749768412 L31.81980515339464,12.138530749768412 " />
			<path d="M31.81980515339464,12.138530749768412 L31.81980515339464,15.220975073620634 " />
			<path d="M31.81980515339464,7.897357355271012 L31.81980515339464,10.597308587842301 " />
			<path d="M23.454642116016565,6.920261657485431 L23.454642116016565,9.62021289005672 " />
			<path d="M31.81980515339464,10.597308587842301 L23.45464211601656,9.62021289005672 " />
			<path d="M29.5783664729745,4.2507865672782605 L29.5783664729745,6.950737799849549 " />
			<path d="M23.454642116016565,6.920261657485431 L29.57836647297451,4.2507865672782605 " />
			<path d="M23.454642116016565,9.62021289005672 L29.57836647297451,6.950737799849549 " />
			<path d="M29.5783664729745,4.2507865672782605 L31.81980515339464,7.897357355271012 " />
			<path d="M29.5783664729745,6.9507377998495485 L31.81980515339464,10.597308587842301 " />
			<path d="M21.213203435596427,12.521023841049344 L21.213203435596427,15.220975073620632 " />
			<path d="M12.84804039821835,11.543928143263763 L12.84804039821835,14.243879375835052 " />
			<path d="M21.213203435596427,15.220975073620632 L12.848040398218348,14.243879375835052 " />
			<path d="M18.971764755176295,8.874453053056591 L18.971764755176295,11.57440428562788 " />
			<path d="M12.84804039821835,11.543928143263763 L18.97176475517629,8.874453053056591 " />
			<path d="M12.84804039821835,14.243879375835052 L18.97176475517629,11.57440428562788 " />
			<path d="M18.971764755176295,8.874453053056591 L21.213203435596434,12.521023841049344 " />
			<path d="M18.971764755176295,11.57440428562788 L21.213203435596434,15.220975073620632 " />
			<path d="M42.42640687119285,12.521023841049344 L42.42640687119285,15.220975073620632 " />
			<path d="M34.06124383381478,11.543928143263763 L34.06124383381478,14.243879375835052 " />
			<path d="M42.42640687119285,15.220975073620632 L34.06124383381478,14.243879375835052 " />
			<path d="M40.18496819077272,8.874453053056593 L40.18496819077272,11.574404285627882 " />
			<path d="M34.06124383381478,11.543928143263763 L40.18496819077272,8.874453053056591 " />
			<path d="M34.06124383381478,14.243879375835052 L40.18496819077272,11.57440428562788 " />
			<path d="M40.18496819077272,8.874453053056593 L42.42640687119286,12.521023841049345 " />
			<path d="M40.18496819077272,11.574404285627882 L42.42640687119286,15.220975073620634 " />
			<path d="M31.81980515339464,17.144690326827675 L31.81980515339464,19.844641559398966 " />
			<path d="M23.454642116016558,16.167594629042096 L23.454642116016558,18.867545861613387 " />
			<path d="M31.81980515339464,19.844641559398962 L23.45464211601656,18.867545861613383 " />
			<path d="M29.57836647297451,15.220975073620632 L29.57836647297451,16.198070771406215 " />
			<path d="M23.454642116016558,16.167594629042096 L25.62616911380444,15.220975073620632 " />
			<path d="M23.454642116016558,18.867545861613383 L29.5783664729745,16.19807077140621 " />
			<path d="M30.637354563692544,15.220975073620632 L31.819805153394647,17.144690326827675 " />
			<path d="M29.57836647297451,16.19807077140621 L31.819805153394647,19.844641559398962 " />
			<path d="M-15.182390935546161,15.52328953461159 L-15.182390935546161,17.62863816067823 " />
			<path d="M-11.64685702961342,20.2981132508854 L-15.18239093554616,17.62863816067823 " />
			<path d="M-9.058666578588216,13.387464766180832 L-9.058666578588216,16.08741599875212 " />
			<path d="M-11.955115939937958,14.116444662465147 L-9.058666578588218,13.38746476618083 " />
			<path d="M-15.182390935546161,17.62863816067823 L-9.058666578588218,16.087415998752117 " />
			<path d="M-5.52313267265548,16.056939856388002 L-5.52313267265548,18.756891088959293 " />
			<path d="M-9.058666578588216,13.387464766180832 L-5.523132672655476,16.056939856388002 " />
			<path d="M-9.058666578588216,16.08741599875212 L-5.523132672655476,18.756891088959293 " />
			<path d="M-5.52313267265548,18.75689108895929 L-11.646857029613425,20.2981132508854 " />
			<path d="M-4.702709174596642,11.639757987432196 L-4.702709174596642,14.339709220003485 " />
			<path d="M-2.461270494176507,17.986280007996232 L-4.702709174596643,14.339709220003481 " />
			<path d="M3.6624538627814354,12.616853685217775 L3.6624538627814354,15.316804917789064 " />
			<path d="M-4.702709174596642,11.639757987432196 L3.6624538627814363,12.616853685217775 " />
			<path d="M-4.702709174596642,14.339709220003485 L3.6624538627814363,15.316804917789064 " />
			<path d="M3.6624538627814354,15.316804917789064 L-2.461270494176508,17.986280007996235 " />
			<path d="M-19.19159656893266,9.947378595010607 L-19.19159656893266,12.647329827581896 " />
			<path d="M-16.95015788851253,16.293900615574646 L-19.191596568932663,12.647329827581896 " />
			<path d="M-10.826433531554585,10.924474292796186 L-10.826433531554585,13.624425525367474 " />
			<path d="M-19.19159656893266,9.947378595010607 L-10.826433531554581,10.924474292796186 " />
			<path d="M-19.19159656893266,12.647329827581896 L-10.826433531554581,13.624425525367474 " />
			<path d="M-10.826433531554585,13.624425525367474 L-16.95015788851253,16.293900615574646 " />
			<path d="M-8.584994851134452,19.527502169922343 L-8.584994851134452,20.655755098203407 " />
			<path d="M-6.3435561707143115,24.302325886196158 L-8.584994851134448,20.655755098203407 " />
			<path d="M-0.21983181375637292,18.932899563417696 L-0.21983181375637292,21.632850795988986 " />
			<path d="M-5.52313267265548,18.313445712950124 L-0.21983181375637398,18.9328995634177 " />
			<path d="M-8.584994851134452,20.655755098203407 L-0.21983181375637398,21.632850795988986 " />
			<path d="M-0.21983181375637292,21.632850795988983 L-6.343556170714316,24.302325886196154 " />
			<path d="M-23.07388224547047,16.263424473210527 L-23.07388224547047,18.963375705781814 " />
			<path d="M-20.832443565050333,22.60994649377457 L-23.073882245470468,18.963375705781818 " />
			<path d="M-14.708719208092392,17.986280007996235 L-14.708719208092392,19.940471403567393 " />
			<path d="M-23.07388224547047,16.263424473210527 L-15.182390935546165,17.18519278466906 " />
			<path d="M-23.07388224547047,18.963375705781814 L-14.708719208092393,19.940471403567393 " />
			<path d="M-14.708719208092392,19.940471403567393 L-20.832443565050333,22.609946493774565 " />
			<path d="M-43.46666218300807,3.727162560979128 L-43.46666218300807,6.427113793550417 " />
			<path d="M-39.93112827707533,1.0576874707719541 L-39.93112827707533,3.7576387033432432 " />
			<path d="M-43.46666218300807,3.727162560979128 L-39.93112827707533,1.0576874707719561 " />
			<path d="M-43.46666218300807,6.427113793550417 L-39.93112827707533,3.757638703343245 " />
			<path d="M-33.80740392011738,2.931700236053141 L-33.80740392011738,5.298860865269353 " />
			<path d="M-39.93112827707533,1.0576874707719541 L-38.16336132410896,1.5025999858064822 " />
			<path d="M-39.93112827707533,3.7576387033432423 L-33.80740392011739,5.298860865269352 " />
			<path d="M-33.80740392011738,5.298860865269353 L-37.34293782605012,7.968335955476524 " />
			<path d="M-37.34293782605012,7.968335955476524 L-43.46666218300807,6.427113793550414 " />
			<path d="M-34.28107564757114,6.03899580386829 L-34.28107564757114,8.73894703643958 " />
			<path d="M-28.157351290613207,3.369520713661119 L-28.157351290613207,6.069471946232408 " />
			<path d="M-34.28107564757114,6.03899580386829 L-28.157351290613203,3.3695207136611187 " />
			<path d="M-34.28107564757114,8.738947036439578 L-28.157351290613203,6.069471946232407 " />
			<path d="M-25.91591261019306,7.01609150165387 L-25.91591261019306,9.716042734225159 " />
			<path d="M-28.157351290613207,3.369520713661119 L-25.915912610193068,7.01609150165387 " />
			<path d="M-28.157351290613207,6.069471946232408 L-25.915912610193068,9.716042734225159 " />
			<path d="M-25.91591261019306,9.716042734225159 L-34.28107564757114,8.73894703643958 " />
			<path d="M-38.16336132410896,-0.27705007433163154 L-38.16336132410896,2.4229011582396573 " />
			<path d="M-32.03963696715102,-2.9465251645388024 L-32.03963696715102,-0.24657393196751354 " />
			<path d="M-38.16336132410896,-0.27705007433163154 L-32.03963696715102,-2.946525164538803 " />
			<path d="M-38.16336132410896,2.4229011582396573 L-32.03963696715102,-0.24657393196751393 " />
			<path d="M-29.79819828673088,0.7000456234539472 L-29.79819828673088,3.3999968560252363 " />
			<path d="M-32.03963696715102,-2.9465251645388024 L-29.79819828673088,0.700045623453948 " />
			<path d="M-32.03963696715102,-0.24657393196751376 L-29.79819828673088,3.3999968560252367 " />
			<path d="M-29.79819828673088,3.3999968560252354 L-38.16336132410896,2.422901158239657 " />
			<path d="M-48.76996304190717,7.731375196289884 L-48.76996304190717,10.431326428861173 " />
			<path d="M-42.64623868494923,6.633598410372938 L-42.64623868494923,7.761851338654001 " />
			<path d="M-48.76996304190717,7.731375196289884 L-43.46666218300807,5.419541953400719 " />
			<path d="M-48.76996304190717,10.431326428861173 L-42.646238684949225,7.761851338654002 " />
			<path d="M-40.404800004529086,8.708470894075461 L-40.404800004529086,11.40842212664675 " />
			<path d="M-41.5033582293554,6.921239163600513 L-40.40480000452909,8.708470894075463 " />
			<path d="M-42.64623868494923,7.761851338654001 L-40.40480000452909,11.408422126646752 " />
			<path d="M-40.404800004529086,11.40842212664675 L-48.76996304190717,10.431326428861171 " />
			<path d="M-52.65224871844499,1.4153293180899615 L-52.65224871844499,4.11528055066125 " />
			<path d="M-46.52852436148704,-1.2541457721172102 L-46.52852436148704,1.4458054604540787 " />
			<path d="M-52.65224871844499,1.4153293180899615 L-46.528524361487044,-1.2541457721172098 " />
			<path d="M-52.65224871844499,4.11528055066125 L-46.528524361487044,1.4458054604540789 " />
			<path d="M-44.2870856810669,2.3924250158755376 L-44.2870856810669,5.0923762484468265 " />
			<path d="M-46.52852436148704,-1.2541457721172102 L-44.2870856810669,2.3924250158755402 " />
			<path d="M-46.52852436148704,1.4458054604540787 L-44.2870856810669,5.092376248446829 " />
			<path d="M-44.2870856810669,5.0923762484468265 L-52.65224871844498,4.1152805506612475 " />
			<path d="M-31.819805153394633,-15.220975073620643 L-31.819805153394633,-12.521023841049354 " />
			<path d="M-24.748737341529157,-15.220975073620643 L-24.748737341529157,-12.521023841049354 " />
			<path d="M-31.819805153394633,-15.220975073620643 L-30.637354563692533,-15.220975073620643 " />
			<path d="M-25.62616911380443,-15.220975073620643 L-24.748737341529157,-15.220975073620643 " />
			<path d="M-31.819805153394633,-12.521023841049354 L-24.748737341529157,-12.521023841049354 " />
			<path d="M-24.748737341529157,-12.521023841049354 L-24.748737341529157,-9.438579517197134 " />
			<path d="M-24.748737341529157,-9.438579517197134 L-31.819805153394633,-9.438579517197132 " />
			<path d="M-31.819805153394633,-9.438579517197134 L-31.819805153394633,-12.521023841049356 " />
			<path d="M-31.819805153394633,-9.438579517197132 L-31.819805153394633,-7.897357355271023 " />
			<path d="M-23.454642116016558,-9.620212890056731 L-23.454642116016558,-6.920261657485442 " />
			<path d="M-24.748737341529154,-9.771370120552211 L-23.454642116016554,-9.620212890056733 " />
			<path d="M-31.819805153394633,-7.897357355271023 L-23.454642116016554,-6.920261657485444 " />
			<path d="M-23.454642116016558,-6.920261657485442 L-29.578366472974498,-4.25078656727827 " />
			<path d="M-29.578366472974494,-4.250786567278271 L-31.819805153394633,-7.897357355271022 " />
			<path d="M-21.21320343559642,-15.220975073620643 L-21.21320343559642,-12.521023841049354 " />
			<path d="M-12.848040398218343,-14.243879375835062 L-12.848040398218343,-11.543928143263773 " />
			<path d="M-21.21320343559642,-15.220975073620643 L-12.84804039821834,-14.243879375835064 " />
			<path d="M-21.21320343559642,-12.521023841049354 L-12.84804039821834,-11.543928143263775 " />
			<path d="M-12.848040398218343,-11.543928143263773 L-18.971764755176284,-8.874453053056602 " />
			<path d="M-18.971764755176288,-8.874453053056603 L-21.213203435596427,-12.521023841049354 " />
			<path d="M-42.426406871192846,-15.220975073620643 L-42.426406871192846,-12.521023841049354 " />
			<path d="M-34.061243833814764,-14.243879375835062 L-34.061243833814764,-11.543928143263773 " />
			<path d="M-42.426406871192846,-15.220975073620643 L-34.061243833814764,-14.243879375835064 " />
			<path d="M-42.426406871192846,-12.521023841049354 L-34.061243833814764,-11.543928143263775 " />
			<path d="M-34.061243833814764,-11.543928143263773 L-40.18496819077271,-8.874453053056602 " />
			<path d="M-40.18496819077271,-8.874453053056603 L-42.426406871192846,-12.521023841049354 " />
			<path d="M-31.819805153394633,-19.844641559398973 L-31.819805153394633,-17.144690326827686 " />
			<path d="M-23.454642116016558,-18.867545861613394 L-23.454642116016558,-16.167594629042107 " />
			<path d="M-31.819805153394633,-19.844641559398973 L-23.454642116016554,-18.867545861613394 " />
			<path d="M-31.819805153394633,-17.144690326827682 L-23.454642116016554,-16.167594629042103 " />
			<path d="M-23.454642116016558,-16.167594629042103 L-29.578366472974498,-13.498119538834931 " />
			<path d="M-29.5783664729745,-13.498119538834935 L-31.81980515339464,-17.144690326827686 " />
			<path d="M11.646857029613415,-20.298113250885418 L11.646857029613415,-17.598162018314127 " />
			<path d="M15.182390935546152,-17.185192784669074 L15.182390935546152,-14.928686928106957 " />
			<path d="M11.646857029613415,-20.298113250885418 L14.708719208092388,-17.986280007996253 " />
			<path d="M11.646857029613415,-17.59816201831413 L15.182390935546156,-14.928686928106961 " />
			<path d="M15.182390935546152,-14.928686928106957 L9.05866657858821,-13.387464766180846 " />
			<path d="M5.523132672655474,-18.313445712950138 L5.523132672655474,-16.05693985638802 " />
			<path d="M9.058666578588216,-13.387464766180846 L5.523132672655475,-16.056939856388016 " />
			<path d="M8.58499485113444,-19.52750216992236 L11.646857029613416,-20.298113250885418 " />
			<path d="M5.523132672655474,-16.056939856388016 L11.646857029613416,-17.598162018314127 " />
			<path d="M2.4612704941764982,-17.98628000799625 L2.4612704941764982,-15.28632877542496 " />
			<path d="M4.702709174596639,-14.3397092200035 L4.702709174596639,-11.639757987432212 " />
			<path d="M2.4612704941764982,-17.98628000799625 L4.702709174596637,-14.339709220003499 " />
			<path d="M2.4612704941764982,-15.28632877542496 L4.702709174596637,-11.63975798743221 " />
			<path d="M-3.6624538627814403,-15.316804917789078 L-3.6624538627814403,-12.616853685217789 " />
			<path d="M4.702709174596639,-11.639757987432212 L-3.6624538627814425,-12.616853685217789 " />
			<path d="M-3.6624538627814403,-15.316804917789078 L2.4612704941765005,-17.98628000799625 " />
			<path d="M-3.6624538627814403,-12.616853685217789 L2.4612704941765005,-15.286328775424963 " />
			<path d="M16.95015788851253,-16.293900615574664 L16.95015788851253,-13.593949383003375 " />
			<path d="M19.191596568932667,-12.647329827581913 L19.191596568932667,-9.947378595010624 " />
			<path d="M16.95015788851253,-16.293900615574664 L19.191596568932667,-12.647329827581913 " />
			<path d="M16.95015788851253,-13.593949383003375 L19.191596568932667,-9.947378595010624 " />
			<path d="M10.826433531554587,-13.62442552536749 L10.826433531554587,-10.924474292796202 " />
			<path d="M19.191596568932667,-9.947378595010624 L10.826433531554585,-10.924474292796202 " />
			<path d="M10.826433531554587,-13.62442552536749 L11.955115939937969,-14.116444662465168 " />
			<path d="M15.182390935546152,-15.523289534611605 L16.95015788851253,-16.293900615574664 " />
			<path d="M10.826433531554587,-10.924474292796202 L16.95015788851253,-13.593949383003375 " />
			<path d="M6.343556170714304,-24.302325886196172 L6.343556170714304,-21.602374653624885 " />
			<path d="M8.58499485113444,-20.65575509820342 L8.58499485113444,-17.955803865632134 " />
			<path d="M6.343556170714304,-24.302325886196172 L8.584994851134443,-20.65575509820342 " />
			<path d="M6.343556170714304,-21.602374653624885 L8.584994851134443,-17.955803865632134 " />
			<path d="M0.21983181375636288,-21.632850795988997 L0.21983181375636288,-18.932899563417706 " />
			<path d="M8.58499485113444,-17.955803865632134 L0.21983181375635802,-18.93289956341771 " />
			<path d="M0.21983181375636288,-21.632850795988997 L6.3435561707143036,-24.30232588619617 " />
			<path d="M0.21983181375636288,-18.93289956341771 L6.3435561707143036,-21.60237465362488 " />
			<path d="M20.832443565050326,-22.609946493774583 L20.832443565050326,-19.909995261203292 " />
			<path d="M23.073882245470465,-18.963375705781832 L23.073882245470465,-16.26342447321054 " />
			<path d="M20.832443565050326,-22.609946493774583 L23.073882245470465,-18.963375705781832 " />
			<path d="M20.832443565050326,-19.909995261203296 L23.073882245470465,-16.263424473210545 " />
			<path d="M14.708719208092388,-19.94047140356741 L14.708719208092388,-17.24052017099612 " />
			<path d="M23.073882245470465,-16.26342447321054 L14.708719208092383,-17.240520170996117 " />
			<path d="M14.708719208092388,-19.94047140356741 L20.83244356505033,-22.609946493774583 " />
			<path d="M14.708719208092388,-17.24052017099612 L20.83244356505033,-19.909995261203292 " />
			<path d="M43.46666218300807,-5.419541953400721 L43.46666218300807,-3.7271625609791306 " />
			<path d="M43.46666218300807,-3.7271625609791306 L39.93112827707533,-1.0576874707719592 " />
			<path d="M33.80740392011739,-5.29886086526936 L33.80740392011739,-2.5989096326980707 " />
			<path d="M39.93112827707534,-1.0576874707719615 L33.807403920117395,-2.5989096326980716 " />
			<path d="M37.34293782605013,-7.9683359554765305 L37.34293782605013,-5.268384722905242 " />
			<path d="M33.80740392011739,-5.29886086526936 L37.342937826050125,-7.9683359554765305 " />
			<path d="M33.80740392011739,-2.5989096326980707 L37.342937826050125,-5.268384722905242 " />
			<path d="M37.34293782605013,-7.9683359554765305 L41.503358229355406,-6.92123916360052 " />
			<path d="M37.34293782605013,-5.268384722905242 L43.46666218300808,-3.727162560979131 " />
			<path d="M34.28107564757116,-8.738947036439585 L34.28107564757116,-6.038995803868296 " />
			<path d="M34.28107564757116,-6.038995803868297 L28.157351290613214,-3.369520713661126 " />
			<path d="M25.915912610193075,-9.716042734225166 L25.915912610193075,-7.016091501653877 " />
			<path d="M28.157351290613214,-3.369520713661127 L25.915912610193075,-7.016091501653878 " />
			<path d="M25.915912610193075,-9.716042734225166 L34.28107564757116,-8.738947036439585 " />
			<path d="M25.915912610193075,-7.016091501653877 L34.28107564757116,-6.038995803868297 " />
			<path d="M38.16336132410897,-1.5025999858064893 L38.16336132410897,0.2770500743316262 " />
			<path d="M38.16336132410897,0.277050074331626 L32.039636967151026,2.946525164538797 " />
			<path d="M29.798198286730887,-3.3999968560252425 L29.798198286730887,-0.7000456234539536 " />
			<path d="M32.039636967151026,2.9465251645387944 L29.798198286730887,-0.7000456234539563 " />
			<path d="M29.798198286730887,-3.3999968560252425 L33.80740392011739,-2.9317002360531474 " />
			<path d="M29.798198286730887,-0.7000456234539539 L38.16336132410897,0.27705007433162615 " />
			<path d="M48.769963041907175,-10.431326428861176 L48.769963041907175,-7.731375196289887 " />
			<path d="M48.769963041907175,-7.731375196289887 L42.64623868494923,-5.0619001060827165 " />
			<path d="M40.4048000045291,-11.408422126646755 L40.4048000045291,-8.708470894075466 " />
			<path d="M42.64623868494924,-5.061900106082717 L40.4048000045291,-8.708470894075468 " />
			<path d="M40.4048000045291,-11.408422126646755 L48.76996304190718,-10.431326428861174 " />
			<path d="M40.4048000045291,-8.708470894075466 L48.76996304190718,-7.7313751962898865 " />
			<path d="M52.65224871844499,-4.115280550661253 L52.65224871844499,-1.415329318089964 " />
			<path d="M52.65224871844499,-1.4153293180899644 L46.528524361487044,1.254145772117207 " />
			<path d="M44.28708568106691,-5.0923762484468345 L44.28708568106691,-2.3924250158755456 " />
			<path d="M46.52852436148705,1.254145772117204 L44.28708568106691,-2.392425015875547 " />
			<path d="M44.28708568106691,-5.0923762484468345 L52.652248718444994,-4.115280550661255 " />
			<path d="M44.28708568106691,-2.3924250158755456 L52.652248718444994,-1.4153293180899655 " />
			<path d="M3.882285676537817,7.666021494485559 L-10.606601717798206,5.97364210206397 " />
			<path d="M-14.488887394336018,-3.0423550087072386 L-14.488887394336018,-0.34240377613594974 " />
			<path d="M-10.606601717798204,5.9736421020639705 L-14.488887394336018,-0.3424037761359509 " />
			<path d="M-3.8822856765378093,-7.666021494485572 L-3.8822856765378093,-4.966070261914283 " />
			<path d="M-14.488887394336018,-3.0423550087072386 L-3.88228567653781,-7.666021494485571 " />
			<path d="M-14.488887394336018,-0.34240377613594997 L-3.88228567653781,-4.9660702619142825 " />
			<path d="M10.606601717798211,-5.973642102063986 L10.606601717798211,-3.2736908694926967 " />
			<path d="M-3.8822856765378093,-7.666021494485572 L10.60660171779821,-5.973642102063986 " />
			<path d="M-3.8822856765378093,-4.966070261914283 L10.60660171779821,-3.2736908694926963 " />
			<path d="M14.488887394336029,0.3424037761359402 L14.488887394336029,3.0423550087072293 " />
			<path d="M10.606601717798211,-5.973642102063986 L14.488887394336029,0.3424037761359396 " />
			<path d="M10.606601717798211,-3.2736908694926967 L14.488887394336029,3.0423550087072284 " />
			<path d="M14.488887394336029,3.0423550087072284 L3.8822856765378164,7.666021494485561 " />

        </g>
        </g>
    </svg>
    