<?xml version="1.0" encoding="UTF-8" standalone="no"?>
    <svg
    xmlns:svg="http://www.w3.org/2000/svg"
    xmlns="http://www.w3.org/2000/svg"
    width="581"
    height="229"
    >
        <g transform="scale(4, -4)   translate(45.38937135091285,-28.628420869078834)" stroke-width="0.25"  fill="none">
        <!-- hidden lines -->
        <g  stroke="rgb(160,160,160)" fill="none" stroke-dasharray="0.25,0.25" >
    			<path d="M18.157379376745077,-12.67500040428473 L18.157379376745077,-7.532410786230661 " />
			<path d="M21.78885525209409,-2.219012318823843 L21.78885525209409,7.060264942831754 " />
			<path d="M18.157379376745077,-12.67500040428473 L21.78885525209409,-2.2190123188238413 " />
			<path d="M21.78885525209409,-2.219012318823843 L49.83903141850627,-3.572681838046141 " />
			<path d="M-42.88937135091285,16.849143607423233 L97.36150948114806,10.080796011311744 " />
			<path d="M18.157379376745077,-12.67500040428473 L18.198919371688163,-12.563209397467714 L18.245731609567784,-12.451748388369811 L18.297727823233416,-12.340687832801512 L18.35481661537894,-12.230097048905726 L18.416903593624042,-12.120044160397923 L18.483891508005613,-12.010596042441643 L18.5556803905536,-11.901818270223009 L18.632167696626972,-11.793775070279116 L18.713248447687416,-11.686529274626544 L18.798815375192042,-11.580142277727703 L18.888759065290174,-11.474673996324094 L18.982968104015082,-11.370182832157317 L19.081329222667303,-11.266725637590302 L19.183727443093495,-11.164357684133304 L19.290046222572506,-11.063132633871241 L19.40016759802906,-10.963102513781498 L19.51397232930464,-10.86431769292385 L19.631340041225293,-10.766826862477245 L19.75214936421635,-10.670677018591347 L19.876278073225226,-10.575913448014354 L20.003603224724813,-10.48257971645258 L20.134001291581875,-10.390717659611465 L20.267348295586928,-10.300367376862429 L20.403519937454366,-10.211567227474896 L20.542391724114434,-10.124353829348225 L20.683839093130974,-10.038762060174118 L20.82773753409192,-9.95482506095609 L20.973962706832207,-9.872574241809225 L21.122390556361445,-9.792039289960325 L21.272897424381384,-9.713248179865744 L21.42536015729091,-9.636227185362054 L21.57965621058838,-9.561000893762476 L21.7356637495934,-9.487592221810553 L21.89326174642215,-9.416022433401205 L22.052330073161666,-9.346311158978283 L22.21274959120004,-9.278476416517316 L22.3744022366803,-9.212534634001537 L22.537171102056266,-9.148500673299568 L22.70094051373895,-9.086387855353175 L22.865596105831663,-9.026207986584145 L23.031024889961383,-8.967971386430102 L23.197115321222874,-8.911686915920091 L23.363757360260262,-8.857362007202019 L23.53084253151882,-8.805002693935435 L23.86591651051833,-8.706198183690656 L24.201502706254665,-8.615294886072272 L24.536794688944255,-8.532293986738152 L24.871015371127125,-8.457177432661556 L25.203418009279705,-8.38990902891736 L25.533286997262373,-8.330435546996751 L25.859938462825813,-8.278687836611713 L26.182720679053286,-8.234581933645627 L26.501014303075834,-8.198020157609312 L26.8142324546788,-8.168892192662842 L27.1218206475388,-8.147076146953605 L27.4232565858066,-8.132439585692483 L27.718049838600468,-8.124840534036519 L28.005741404714342,-8.124128446462853 L28.285903179490685,-8.130145139900788 L28.558137335375473,-8.14272568843396 L28.822075627177608,-8.16169927789027 L29.077378632509337,-8.18689001910265 L29.323734937302486,-8.218117719048086 L29.560860275686853,-8.255198609456142 L29.78849663289401,-8.297946032821905 L30.006411319219232,-8.346171086063087 L30.214396022445975,-8.39968322232885 L30.412265845515844,-8.458290811699765 L30.599858335620677,-8.521801661717365 L30.6897557117167,-8.555335714773058 L30.777032510303847,-8.590023498848977 L30.86167430385778,-8.625841039867037 L30.943667885592056,-8.662764412132248 L31.023001239507874,-8.70076975022464 L31.099663510636997,-8.739833260355553 L31.17364497550404,-8.779931231200125 L31.24493701283275,-8.82104004421821 L31.313532074518715,-8.863136183475879 L31.37942365688984,-8.906196244979872 L31.442606272273988,-8.950196945537508 L31.503075420891662,-8.995115131154401 L31.560827563090335,-9.040927784982618 L31.615860091935314,-9.087612034831665 L31.66817130617099,-9.135145160254847 L31.71776038356468,-9.183504599223326 L31.764627354644425,-9.23266795440032 L31.808773076840406,-9.282612999027592 L31.85019920903914,-9.33331768243645 L31.888908186557806,-9.384760135195178 L31.9249031965458,-9.4369186739049 L31.95818815381889,-9.489771805655474 L31.988767677131083,-9.543298232153047 L32.016647065887824,-9.597476853530617 L32.041832277304025,-9.652286771852848 L32.06432990400871,-9.70770729432605 L32.08414715209835,-9.76371793622424 L32.10129181963955,-9.820298423541765 L32.11577227562111,-9.877428695382951 L32.1275974393555,-9.935088906098894 L32.13677676032843,-9.993259427181341 L32.143320198495175,-10.05192084892339 L32.147238205021516,-10.111053981856442 L32.14854170346703,-10.17063985797272 " />
			<path d="M32.148541703467025,-10.170639857972729 L32.14668309316456,-10.242475793839077 L32.14112093001678,-10.314900934473211 L32.13187634658939,-10.387884084656806 L32.11897128364769,-10.461394508595072 L32.10242844989043,-10.535401930407152 L32.08227128290279,-10.609876534150054 L32.05852391131058,-10.684788963402413 L32.03121111811754,-10.760110320433304 L32.00035830520578,-10.835812164980346 L31.96599145897959,-10.911866512660621 L31.92813711713145,-10.988245833036789 L31.886822336509468,-11.064923047360084 L31.842074662064014,-11.141871526010908 L31.79392209685175,-11.219065085656938 L31.742393073074616,-11.296477986147794 L31.68751642413106,-11.374084927164558 L31.62932135765704,-11.45186104464162 L31.567837429533547,-11.529781906977528 L31.50309451883815,-11.607823511050839 L31.435122803717473,-11.685962278056186 L31.3639527381578,-11.764175049175142 L31.289615029631126,-11.842439081095659 L31.21214061759412,-11.920732041393334 L31.131560652817388,-11.999032003787088 L31.047906477523124,-12.077317443281103 L30.961209606308763,-12.155567231204438 L30.778814587259166,-12.311877288886688 L30.584630482518328,-12.467800880032826 L30.3789138404254,-12.623182718084939 L30.161922386180954,-12.777873355843123 L29.933914578245535,-12.93172901213383 L29.695149203308965,-13.084611396941296 L29.445885007474423,-13.236387535808085 L29.18638036140368,-13.386929594215957 L28.916892957274328,-13.536114702571812 L28.63767953550417,-13.683824782343969 L28.348995639301908,-13.82994637382207 L28.05109539520656,-13.974370465908548 L27.744231317878548,-14.1169923282901 L27.428654137504516,-14.257711346284097 L27.104612648273783,-14.396430858606474 L26.77235357647737,-14.533057998264283 L26.432121466870417,-14.667503536736932 L26.084158586024955,-14.799681731575506 L25.728704841483296,-14.929510177518264 L25.36599771560101,-15.056909661192957 L24.996272213045106,-15.181804019451988 L24.61976082098447,-15.304120001364948 L24.236693481078824,-15.423787133873914 L23.847297572437757,-15.540737591100449 L23.451797904783213,-15.654906067278567 L23.05041672110815,-15.766229653275518 L22.643373709178874,-15.874647716651339 L22.230886021282387,-15.980101785198979 L21.81316830166917,-16.082535433898954 L21.390432721189534,-16.1818941752159 L20.962889018665923,-16.278125352659064 L20.530744548586373,-16.371178037524416 L20.09420433474379,-16.46100292873244 L19.653471129483652,-16.5475522556731 L19.20874547825912,-16.63077968396766 L18.76022578922575,-16.710640224055282 L18.30810840764113,-16.787090142512238 L17.852587694864823,-16.86008687601058 L17.393856111783872,-16.92958894782398 L16.93210430651647,-16.99555588678858 L16.46752120627383,-17.057948148627727 L16.000294113285477,-17.116727039550778 L15.530608804717998,-17.171854642037626 L15.05864963654155,-17.22329374272212 L14.584599651320769,-17.271007762289752 L14.108640689930398,-17.31496068730689 L13.630953507216676,-17.355117003901157 L13.15171789164805,-17.39144163321505 L12.671112789019812,-17.42389986855716 L12.18931643029801,-17.452457314178538 L11.706506463709424,-17.477079825603802 L11.222860091205009,-17.497733451450262 L10.738554209445535,-17.514384376670577 L10.25376555547934,-17.52699886715821 L9.768670857303123,-17.535543215657693 L9.283446989520318,-17.539983688925197 L8.798271134331713,-17.54028647608849 L8.31332094811835,-17.53641763815865 L7.828774733899081,-17.52834305864973 L7.3448116199706,-17.51602839526665 L6.861611745063498,-17.499439032625165 L6.379356450374104,-17.47854003597254 L5.898228478860388,-17.45329610588138 L5.41841218221944,-17.42367153389437 L4.940093735995338,-17.389630159102015 L4.463461363297476,-17.351135325641206 L3.988705567645639,-17.308149841107536 L3.5160193754929914,-17.260635935880586 L3.0455985890172474,-17.20855522336737 L2.5776420498115056,-17.151868661176227 L2.1123519141490856,-17.090536513240377 L1.6499339405430153,-17.024518312918506 L1.1905977903710598,-16.953772827107905 L0.7345573423882389,-16.87825802141503 L0.2820310220060625,-16.79793102643801 L-0.16675785372269156,-16.712748105226805 L-0.6115807144113404,-16.62266462199767 L-1.0522033568664748,-16.527635012192235 L-1.4883855466911424,-16.42761275398427 L-1.9198805997398471,-16.322550341353608 L-2.346434942117887,-16.212399258862067 L-2.767787647327185,-16.097109958284936 L-3.183669949062662,-15.976631837271713 L-3.5938047280613077,-15.850913220230595 L-3.997905971291544,-15.719901341656106 L-4.395678201653161,-15.5835423321448 L-4.7868158762272435,-15.441781207373126 L-5.171002750977654,-15.294561860342885 L-5.5479112096564265,-15.14182705723494 L-5.733530369572913,-15.063373165840686 L-5.91720155450543,-14.983518437250074 L-6.098880291446187,-14.90225540096827 L-6.27852125617387,-14.819576516857797 L-6.456078247386788,-14.735474175546114 L-6.63150416008546,-14.649940698921027 L-6.804750958179196,-14.562968340719744 L-6.975769646290777,-14.474549287215526 L-7.144510240732384,-14.384675658007803 L-7.310921739623646,-14.293339506919981 L-7.474952092124319,-14.200532823012358 L-7.636548166750193,-14.106247531714088 L-7.795655718741345,-14.01047549608211 L-7.952219356450806,-13.913208518192665 L-8.106182506720069,-13.814438340672751 L-8.257487379205777,-13.71415664837859 L-8.406074929623047,-13.612355070229006 L-8.551884821867144,-13.509025181201702 L-8.69485538897577,-13.404158504500824 L-8.834923592890217,-13.297746513904837 L-8.97202498297648,-13.189780636304368 L-9.106093653260599,-13.08025225443945 L-9.237062198336076,-12.969152709846885 L-9.364861667895232,-12.856473306028683 L-9.489421519837725,-12.742205311853073 L-9.610669571906369,-12.626339965200033 L-9.728531951798784,-12.508868476864443 L-9.842933045700832,-12.389782034730134 L-9.953795445188174,-12.269071808228666 L-10.061039892436945,-12.146728953098188 L-10.164585223684453,-12.02274461645803 L-10.264348310879694,-11.897109942214668 L-10.360244001457906,-11.769816076817573 L-10.452185056173633,-11.64085417538211 L-10.540082084924482,-11.51021540819961 L-10.623843480493788,-11.37789096765381 L-10.703375350136993,-11.243872075565701 L-10.778581444938425,-11.108149990988862 L-10.84936308685659,-10.970716018478521 L-10.915619093376572,-10.831561516859612 L-10.977245699684751,-10.690677908519627 L-11.034136478277432,-10.548056689253508 L-11.086182255911597,-10.403689438689772 L-11.133271027803708,-10.257567831328268 L-11.175287868977108,-10.109683648221095 L-11.212114842657794,-9.960028789331156 L-11.243630905612292,-9.808595286603053 L-11.269711810318263,-9.655375317783935 L-11.290230003855388,-9.500361221034137 L-11.305054523398718,-9.343545510367848 L-11.314050888193842,-9.184920891968508 L-11.317080987887856,-9.024480281424761 " />
			<path d="M-11.317080987887838,-9.02448028142469 L-11.315004979035022,-8.891260463766088 L-11.308722863103814,-8.756805788104362 L-11.298152142394473,-8.621112692446307 L-11.283208462923646,-8.484177742859053 L-11.263805565698355,-8.345997641746038 L-11.239855236630671,-8.206569236497442 L-11.211267255053855,-8.065889528532603 L-11.17794934079964,-7.923955682749478 L-11.139807099793755,-7.780765037401387 L-11.096743968128564,-7.636315114416658 L-11.048661154567622,-7.490603630182434 L-10.995457581437412,-7.343628506811072 L-10.937029823860163,-7.195387883911722 L-10.873272047279855,-7.0458801308874 L-10.804075943232686,-6.895103859780726 L-10.729330663312485,-6.743057938693039 L-10.648922751279379,-6.589741505799933 L-10.56273607325857,-6.435153983990886 L-10.470651745978055,-6.279295096158778 L-10.372548062985684,-6.122164881167622 L-10.268300418794786,-5.963763710528922 L-10.157781230895418,-5.804092305815985 L-10.040859859575757,-5.643151756849146 L-9.917402525492612,-5.480943540684947 L-9.787272224928516,-5.317469541444925 L-9.65032864267425,-5.15273207101883 L-9.50642806247129,-4.986733890682104 L-9.355423274949805,-4.819478233666312 L-9.197163482995638,-4.65096882872398 L-9.0314942044788,-4.4812099247312975 L-8.858257172273758,-4.310206316373538 L-8.677290231503967,-4.137963370960566 " />
			<path d="M21.7298445042349,6.890357253036456 L22.505772575200755,7.025667330241212 " />
			<path d="M32.148541703467025,-10.170639857972727 L32.148541703467025,-0.8913625963171503 " />
			<path d="M-11.317080987887849,-9.024480281424642 L-11.317080987887849,0.25479698023093533 " />

        </g>

        <!-- solid lines -->
        <g  stroke="rgb(0,0,0)" fill="none">
    			<path d="M18.157379376745077,-7.532410786230661 L18.157379376745077,-3.3957231426291337 " />
			<path d="M18.157379376745077,-3.3957231426291337 L21.78885525209409,7.060264942831756 " />
			<path d="M49.83903141850628,-3.5726818380461403 L49.83903141850628,5.706595423609457 " />
			<path d="M21.78885525209409,7.060264942831754 L49.83903141850627,5.706595423609456 " />
			<path d="M42.576079667808244,-24.484658008967916 L42.576079667808244,-15.205380747312319 " />
			<path d="M49.83903141850628,-3.5726818380461403 L42.57607966780825,-24.48465800896792 " />
			<path d="M49.83903141850628,5.706595423609457 L42.57607966780825,-15.205380747312322 " />
			<path d="M-29.365098685896726,-26.328478253642615 L-29.365098685896726,-17.049200991987018 " />
			<path d="M42.576079667808244,-24.484658008967916 L-29.365098685896726,-26.328478253642615 " />
			<path d="M42.576079667808244,-15.205380747312319 L-29.365098685896726,-17.049200991987018 " />
			<path d="M-42.88937135091285,16.849143607423233 L-42.88937135091285,26.12842086907883 " />
			<path d="M-29.365098685896726,-26.328478253642615 L-42.889371350912846,16.849143607423237 " />
			<path d="M-29.365098685896726,-17.049200991987018 L-42.889371350912846,26.128420869078834 " />
			<path d="M97.36150948114832,10.080796011311815 L97.36150948114832,19.360073272967412 " />
			<path d="M-42.88937135091285,26.12842086907883 L97.36150948114806,19.36007327296734 " />
			<path d="M-8.677290231503905,-4.1379633709605415 L-8.511323152834459,-3.985196772552561 L-8.33911140773472,-3.831477376531976 L-8.16053622432065,-3.6768100630534017 L-7.975476240198207,-3.521200124579201 L-7.783807440489068,-3.364653283298136 L-7.585403094365274,-3.207175709213307 L-7.380133690062147,-3.048774038928311 L-7.167866868339519,-2.8894553951567072 L-6.948467354358976,-2.729227406981636 L-6.721796887946632,-2.568098230895516 L-6.487714152209452,-2.406076572648594 L-6.246074700476441,-2.2431717099371555 L-5.996730881530754,-2.0793935159636483 L-5.739531763103503,-1.914752483900705 L-5.474323053600809,-1.7492597522947753 L-5.2009470220307605,-1.582927131443908 L-4.91924241610302,-1.4157671307856556 L-4.629044378473322,-1.2477929873358282 L-4.330184361101841,-1.079018695214081 L-4.022490037701989,-0.909459036300434 L-3.7057852142498264,-0.7391296120625436 L-3.3798897375340995,-0.5680468765998319 L-3.0446194017174397,-0.39622817094729385 L-2.699785852891656,-0.22369175868849475 L-2.3451964916054497,-0.05045686292493733 L-1.9806543733441562,0.12345629534812157 L-1.6059581069495035,0.2980264574061598 L-1.2209017509609845,0.4732312854480363 L-0.825274707872397,0.6490473196796154 L-0.4188616162899848,0.8254499337725949 L-0.0014422409947898855,1.0024132886374806 L0.42720863909885176,1.1799102844513478 L0.8673213450831311,1.3579125108759222 L1.319131414287427,1.5363901954015526 L1.7828797185862197,1.7153121497490327 L2.2588125847726395,1.8946457142612427 L2.747181916969763,2.0743567002131584 L3.2482453210508426,2.254409329965228 L3.762266231036418,2.434766174886063 L4.289514037420874,2.6153880909681617 L4.830264217381544,2.7962341520526923 L5.384798466805246,2.9772615805860347 L5.953404834070204,3.158425675821442 L6.5363778554956475,3.3396797393792896 L7.134018692377642,3.520974998080617 L7.746635269501723,3.7022605239598048 L8.374542415022558,3.8834831513677504 L9.018062001577096,4.0645873910680805 L9.677523088493402,4.245515341232945 L10.35326206493172,4.426206595239995 L11.04562279377867,4.606598146168571 L11.75495675610688,4.786624287898628 L12.48162319597535,4.966216512705521 L13.225989265342132,5.14530340524969 L13.988430168822836,5.323810532856147 L14.769329308014886,5.501660331977375 L15.56907842507509,5.6787719907348935 L16.388077745211966,5.855061327432527 L17.22673611772201,6.030440664935795 L18.085471155171337,6.20481870081052 L18.964709370282748,6.378100373118863 L19.86488631005853,6.550186721765207 L20.78644668662315,6.720974745293633 L21.729844504234375,6.890357253036292 " />
			<path d="M22.50577257520143,7.025667330241376 L23.190796777686014,7.1422053192730885 L23.88705401024511,7.257916960245669 L24.594709992084542,7.372760528841068 L25.313932769757706,7.486693142320202 L26.04489273339685,7.599670730781591 L26.787762632003957,7.7116480078211636 L27.542717587722294,7.8225784405874474 L28.309935109014567,7.932414219230638 L29.089595102659427,8.041106225736552 L29.881879884487006,8.148604002148067 L30.686974188758725,8.254855718164615 L31.505065176093638,8.359808138124999 L32.33634243985026,8.463406587364728 L33.18099801084913,8.565594917953629 L34.039226360337516,8.666315473811853 L34.91122440106821,8.765509055204115 L35.79719148638541,8.86311488261958 L36.69732940718825,8.959070560034755 L37.61184238663189,9.05331203757195 L38.5409370724453,9.14577357355254 L39.48482252670523,9.236387695958761 L40.44371021293225,9.325085163308792 L41.41781398033983,9.41179492496121 L42.40735004508124,9.496444080855241 L43.41253696832131,9.57895784070992 L44.43359563095702,9.659259482690985 L45.470749204801415,9.737270311568844 L46.524223120037064,9.812909616389815 L47.59424502874429,9.886094627679226 L48.68104476429016,9.95674047421043 L49.7848542963626,10.024760139360847 L50.905907681432524,10.09006441709195 L52.044441008397634,10.152561867588336 L53.20069233917747,10.21215877259144 L54.374901644000055,10.268759090472466 L55.56731073112698,10.322264411087959 L56.77816317074041,10.372573910469796 L58.00770421271684,10.419584305400399 L59.256180697999156,10.463189807933984 L60.52384096326357,10.50328207992232 L61.810934738583356,10.539750187616209 L63.11771303775629,10.57248055641273 L64.44442804098284,10.601356925823497 L65.79133296954704,10.626260304753085 L67.15868195215698,10.647068927167176 L68.54672988258599,10.663658208255525 L69.95573226824278,10.675900701181122 L71.38594506930548,10.683666054530732 L72.83762452801555,10.686820970575852 L74.31102698775231,10.685229164470087 L75.80640870147138,10.678751324509603 L77.32402562910208,10.667245073594811 L78.86413322347539,10.650564932037506 L80.42698620435513,10.628562281869813 L82.01283832014242,10.601085332813584 L83.62194209679633,10.567979090083574 L85.25454857353546,10.529085324206369 L86.91090702485818,10.484242543041528 L88.59126466842345,10.433285966211466 L90.2958663583394,10.376047502142637 L92.02495426337902,10.31235572794626 L93.77876752967718,10.242035872366502 L95.55754192742975,10.164909802038128 L97.36150948114424,10.08079601131181 " />
			<path d="M18.157379376745077,-3.3957231426291337 L18.198919371688163,-3.2839321358121167 L18.245731609567784,-3.172471126714215 L18.297727823233416,-3.061410571145915 L18.35481661537894,-2.9508197872501305 L18.416903593624042,-2.8407668987423267 L18.483891508005613,-2.7313187807860455 L18.5556803905536,-2.6225410085674112 L18.632167696626972,-2.5144978086235175 L18.713248447687416,-2.4072520129709467 L18.798815375192042,-2.3008650160721063 L18.888759065290174,-2.1953967346684977 L18.982968104015082,-2.090905570501718 L19.081329222667303,-1.9874483759347046 L19.183727443093495,-1.885080422477706 L19.290046222572506,-1.783855372215645 L19.40016759802906,-1.6838252521259012 L19.51397232930464,-1.5850404312682524 L19.631340041225293,-1.487549600821649 L19.75214936421635,-1.3913997569357506 L19.876278073225226,-1.2966361863587588 L20.003603224724813,-1.2033024547969826 L20.134001291581875,-1.1114403979558667 L20.267348295586928,-1.0210901152068326 L20.403519937454366,-0.9322899658192986 L20.542391724114434,-0.8450765676926286 L20.683839093130974,-0.7594847985185216 L20.82773753409192,-0.675547799300492 L20.973962706832207,-0.5932969801536294 L21.122390556361445,-0.5127620283047271 L21.272897424381384,-0.4339709182101463 L21.42536015729091,-0.35694992370645623 L21.57965621058838,-0.2817236321068777 L21.7356637495934,-0.20831496015495726 L21.89326174642215,-0.13674517174560627 L22.052330073161666,-0.06703389732268758 L22.21274959120004,0.0008008451382809517 L22.3744022366803,0.06674262765406154 L22.537171102056266,0.13077658835603084 L22.70094051373895,0.19288940630242335 L22.865596105831663,0.25306927507145305 L23.031024889961383,0.3113058752254958 L23.197115321222874,0.3675903457355054 L23.363757360260262,0.4219152544535789 L23.53084253151882,0.47427456772016074 L23.86591651051833,0.5730790779649421 L24.201502706254665,0.6639823755833272 L24.536794688944255,0.7469832749174454 L24.871015371127125,0.8220998289940427 L25.203418009279705,0.8893682327382385 L25.533286997262373,0.9488417146588469 L25.859938462825813,1.000589425043886 L26.182720679053286,1.0446953280099696 L26.501014303075834,1.081257104046284 L26.8142324546788,1.1103850689927552 L27.1218206475388,1.1322011147019917 L27.4232565858066,1.1468376759631151 L27.718049838600468,1.1544367276190772 L28.005741404714342,1.1551488151927432 L28.285903179490685,1.1491321217548083 L28.558137335375473,1.136551573221639 L28.822075627177608,1.1175779837653255 L29.077378632509337,1.0923872425529466 L29.323734937302486,1.0611595426075127 L29.560860275686853,1.0240786521994527 L29.78849663289401,0.9813312288336931 L30.006411319219232,0.9331061755925082 L30.214396022445975,0.8795940393267473 L30.412265845515844,0.8209864499558321 L30.599858335620677,0.757475599938233 L30.6897557117167,0.7239415468825385 L30.777032510303847,0.6892537628066185 L30.86167430385778,0.6534362217885594 L30.943667885592056,0.616512849523351 L31.023001239507874,0.5785075114309558 L31.099663510636997,0.5394440013000453 L31.17364497550404,0.4993460304554725 L31.24493701283275,0.4582372174373851 L31.313532074518715,0.41614107817971957 L31.37942365688984,0.37308101667572274 L31.442606272273988,0.3290803161180894 L31.503075420891662,0.2841621305011965 L31.560827563090335,0.23834947667298045 L31.615860091935314,0.19166522682393167 L31.66817130617099,0.1441321014007517 L31.71776038356468,0.09577266243227248 L31.764627354644425,0.04660930725527693 L31.808773076840406,-0.0033357373719983545 L31.85019920903914,-0.05404042078085092 L31.888908186557806,-0.10548287353958002 L31.9249031965458,-0.15764141224930292 L31.95818815381889,-0.21049454399987813 L31.988767677131083,-0.2640209704974489 L32.016647065887824,-0.3181995918750223 L32.041832277304025,-0.3730095101972514 L32.06432990400871,-0.4284300326704542 L32.08414715209835,-0.4844406745686436 L32.10129181963955,-0.5410211618861671 L32.11577227562111,-0.5981514337273522 L32.1275974393555,-0.6558116444432954 L32.13677676032843,-0.7139821655257449 L32.143320198495175,-0.7726435872677939 L32.147238205021516,-0.8317767202008433 L32.14854170346703,-0.891362596317121 " />
			<path d="M32.148541703467025,-0.8913625963171321 L32.14668309316456,-0.9631985321834794 L32.14112093001678,-1.0356236728176165 L32.13187634658939,-1.1086068230012098 L32.11897128364769,-1.1821172469394767 L32.10242844989043,-1.2561246687515564 L32.08227128290279,-1.3305992724944562 L32.05852391131058,-1.4055117017468166 L32.03121111811754,-1.4808330587777068 L32.00035830520578,-1.5565349033247504 L31.96599145897959,-1.6325892510050244 L31.92813711713145,-1.708968571381192 L31.886822336509468,-1.785645785704486 L31.842074662064014,-1.8625942643553137 L31.79392209685175,-1.9397878240013413 L31.742393073074616,-2.0172007244921972 L31.68751642413106,-2.0948076655089602 L31.62932135765704,-2.172583782986023 L31.567837429533547,-2.250504645321931 L31.50309451883815,-2.3285462493952416 L31.435122803717473,-2.40668501640059 L31.3639527381578,-2.484897787519546 L31.289615029631126,-2.5631618194400607 L31.21214061759412,-2.6414547797377383 L31.131560652817388,-2.7197547421314914 L31.047906477523124,-2.798040181625504 L30.961209606308763,-2.8762899695488446 L30.778814587259166,-3.0326000272310925 L30.584630482518328,-3.188523618377224 L30.3789138404254,-3.343905456429347 L30.161922386180954,-3.498596094187529 L29.933914578245535,-3.652451750478233 L29.695149203308965,-3.8053341352857046 L29.445885007474423,-3.957110274152488 L29.18638036140368,-4.107652332560356 L28.916892957274328,-4.256837440916217 L28.63767953550417,-4.404547520688378 L28.348995639301908,-4.55066911216648 L28.05109539520656,-4.695093204252952 L27.744231317878548,-4.8377150666345035 L27.428654137504516,-4.978434084628497 L27.104612648273783,-5.117153596950879 L26.77235357647737,-5.253780736608686 L26.432121466870417,-5.388226275081339 L26.084158586024955,-5.520404469919915 L25.728704841483296,-5.650232915862669 L25.36599771560101,-5.7776323995373575 L24.996272213045106,-5.902526757796392 L24.61976082098447,-6.024842739709355 L24.236693481078824,-6.144509872218317 L23.847297572437757,-6.261460329444853 L23.451797904783213,-6.375628805622976 L23.05041672110815,-6.486952391619922 L22.643373709178874,-6.595370454995741 L22.230886021282387,-6.700824523543387 L21.81316830166917,-6.803258172243359 L21.390432721189534,-6.902616913560305 L20.962889018665923,-6.998848091003473 L20.530744548586373,-7.091900775868824 L20.09420433474379,-7.181725667076846 L19.653471129483652,-7.268274994017509 L19.20874547825912,-7.351502422312063 L18.76022578922575,-7.431362962399689 L18.30810840764113,-7.507812880856644 L17.852587694864823,-7.580809614354985 L17.393856111783872,-7.650311686168385 L16.93210430651647,-7.716278625132993 L16.46752120627383,-7.778670886972134 L16.000294113285477,-7.837449777895186 L15.530608804717998,-7.8925773803820345 L15.05864963654155,-7.944016481066525 L14.584599651320769,-7.991730500634162 L14.108640689930398,-8.035683425651296 L13.630953507216676,-8.075839742245568 L13.15171789164805,-8.112164371559453 L12.671112789019812,-8.14462260690156 L12.18931643029801,-8.173180052522937 L11.706506463709424,-8.197802563948215 L11.222860091205009,-8.218456189794674 L10.738554209445535,-8.235107115014983 L10.25376555547934,-8.24772160550262 L9.768670857303123,-8.256265954002094 L9.283446989520318,-8.260706427269602 L8.798271134331713,-8.2610092144329 L8.31332094811835,-8.257140376503058 L7.828774733899081,-8.249065796994149 L7.3448116199706,-8.236751133611055 L6.861611745063498,-8.220161770969579 L6.379356450374104,-8.19926277431695 L5.898228478860388,-8.17401884422579 L5.41841218221944,-8.144394272238776 L4.940093735995338,-8.110352897446413 L4.463461363297476,-8.071858063985607 L3.988705567645639,-8.028872579451939 L3.5160193754929914,-7.981358674224996 L3.0455985890172474,-7.929277961711773 L2.5776420498115056,-7.87259139952063 L2.1123519141490856,-7.811259251584771 L1.6499339405430153,-7.745241051262918 L1.1905977903710598,-7.674495565452312 L0.7345573423882389,-7.598980759759434 L0.2820310220060625,-7.5186537647824165 L-0.16675785372269156,-7.433470843571202 L-0.6115807144113404,-7.3433873603420885 L-1.0522033568664748,-7.248357750536642 L-1.4883855466911424,-7.148335492328665 L-1.9198805997398471,-7.043273079698001 L-2.346434942117887,-6.933121997206464 L-2.767787647327185,-6.817832696629345 L-3.183669949062662,-6.6973545756161235 L-3.5938047280613077,-6.571635958575008 L-3.997905971291544,-6.440624080000493 L-4.395678201653161,-6.3042650704892145 L-4.7868158762272435,-6.162503945717545 L-5.171002750977654,-6.0152845986873 L-5.5479112096564265,-5.862549795579348 L-5.733530369572913,-5.784095904185095 L-5.91720155450543,-5.704241175594487 L-6.098880291446187,-5.622978139312657 L-6.27852125617387,-5.540299255202215 L-6.456078247386788,-5.456196913890518 L-6.63150416008546,-5.3706634372654225 L-6.804750958179196,-5.283691079064155 L-6.975769646290777,-5.195272025559952 L-7.144510240732384,-5.105398396352204 L-7.310921739623646,-5.014062245264408 L-7.474952092124319,-4.921255561356754 L-7.636548166750193,-4.826970270058506 L-7.795655718741345,-4.731198234426516 L-7.952219356450806,-4.633931256537087 L-8.106182506720069,-4.535161079017201 L-8.257487379205777,-4.434879386723003 L-8.406074929623047,-4.333077808573415 L-8.551884821867144,-4.229747919546126 L-8.69485538897577,-4.124881242845213 L-8.834923592890217,-4.018469252249243 L-8.97202498297648,-3.9105033746487767 L-9.106093653260599,-3.8009749927838485 L-9.237062198336076,-3.6898754481913008 L-9.364861667895232,-3.5771960443731197 L-9.489421519837725,-3.4629280501974864 L-9.610669571906369,-3.347062703544401 L-9.728531951798784,-3.229591215208852 L-9.842933045700832,-3.1105047730745627 L-9.953795445188174,-2.9897945465730684 L-10.061039892436945,-2.8674516914425916 L-10.164585223684453,-2.7434673548024477 L-10.264348310879694,-2.617832680559085 L-10.360244001457906,-2.4905388151619614 L-10.452185056173633,-2.3615769137265135 L-10.540082084924482,-2.2309381465439952 L-10.623843480493788,-2.0986137059982126 L-10.703375350136993,-1.9645948139101037 L-10.778581444938425,-1.8288727293332665 L-10.84936308685659,-1.6914387568229041 L-10.915619093376572,-1.552284255204053 L-10.977245699684751,-1.411400646864036 L-11.034136478277432,-1.268779427597927 L-11.086182255911597,-1.1244121770341535 L-11.133271027803708,-0.9782905696726217 L-11.175287868977108,-0.8304063865654834 L-11.212114842657794,-0.6807515276755651 L-11.243630905612292,-0.529318024947463 L-11.269711810318263,-0.37609805612835934 L-11.290230003855388,-0.22108395937855602 L-11.305054523398718,-0.06426824871225051 L-11.314050888193842,0.09435636968705916 L-11.317080987887856,0.2547969802308178 " />
			<path d="M-11.317080987887838,0.2547969802308884 L-11.314989220360275,0.3885221704391696 L-11.3086592099202,0.5234915755497404 L-11.298007510264258,0.6597087973402032 L-11.282948790239315,0.7971773075198892 L-11.263395784176277,0.9359004392931292 L-11.239259240832986,1.0758813785392334 L-11.210447870907105,1.2171231545909864 L-11.176868293074687,1.35962863059619 L-11.138424978514289,1.5034004934427971 L-11.095020193870049,1.6484412432293034 L-11.046553942610892,1.7947531822607898 L-10.992923904737793,1.9423384035492213 L-10.934025374792595,2.091198778798118 L-10.869751198118815,2.241335945847173 L-10.799991705324455,2.3927512955550085 L-10.724634644895975,2.5454459580948074 L-10.643565113910416,2.69942078863748 L-10.556665486791024,2.8546763523958942 L-10.463815342052124,3.0112129090024062 L-10.364891386976117,3.1690303961896302 L-10.259767380164941,3.3281284127465574 L-10.148314051905773,3.4885062007152783 L-10.030399022292698,3.6501626267980467 L-9.90588671703793,3.81309616293828 L-9.774638280915958,3.977304866040997 L-9.636511488768967,4.142786356793953 L-9.491360654013338,4.3095377975507105 L-9.339036534576492,4.477555869235804 L-9.179386236197715,4.646836747227025 L-9.012253113022759,4.8173760761724305 L-8.837476665421649,4.989168943694866 L-8.654892434957157,5.162209852934827 L-8.464331896432926,5.336492693882189 L-8.265622346945728,5.512010713442975 L-8.058586791867478,5.68875648418682 L-7.8430438276823,5.866721871717364 L-7.618807521602165,6.04589800060547 L-7.385687287883159,6.226275218822971 L-7.143487760767443,6.407843060611527 L-6.892008663971898,6.59059020771895 L-6.631044676644918,6.7745044489316495 L-6.360385295717166,6.959572637829383 L-6.079814694565497,7.145780648685926 L-5.7891115779159765,7.333113330433927 L-5.4880490329075515,7.521554458611799 L-5.1763943762448505,7.711086685204581 L-4.853908997363019,7.901691486288622 L-4.520348197535921,8.093349107383839 L-4.175461024856724,8.286038506418276 L-3.818990105022167,8.479737294198774 L-3.45067146786207,8.67442167228409 L-3.0702343695459797,8.870066368147713 L-2.6774011104163624,9.066644567515826 L-2.271886848394699,9.264127843759706 L-1.8533994079142588,9.462486084219066 L-1.421639084338914,9.661687413325323 L-0.9762984438344425,9.861698112391172 L-0.5170621186709643,10.062482535926465 L-0.043606597930435406,10.264003024335244 L0.4443999863758594,10.466219812843342 L0.9472980777857949,10.669090936502519 L1.4654369184403215,10.872572131105679 L1.9991747766827734,11.076616729850194 L2.548879179163198,11.281175555573798 L3.114927147381202,11.486196808384063 L3.6977054385954657,11.691625948497613 L4.297610790993972,11.897405574097503 L4.915050173009814,12.103475294010401 L5.550441036634938,12.309771595003903 L6.204211574562778,12.51622770349046 L6.876800980954986,12.722773441425986 L7.5686597156089475,12.929335076180564 L8.280249771250652,13.135835164155939 L9.012044943657722,13.34219238791447 L9.764531104261643,13.548321386585672 L10.53820647484318,13.754132579303873 L11.333581903882656,13.95953198143157 L12.151181144075709,14.164421013315176 L12.99154113046423,14.368696301319279 L13.855212258575515,14.572249470876404 L14.742758661892895,14.774966931295198 L15.654758487906538,14.976729652059653 L16.59180417191666,15.177412930357164 L17.554502707680516,15.37688614956923 L18.54347591389076,15.575012528463077 L19.559360695387944,15.77164886082331 L20.60280929789526,15.966645245265227 L21.674489554948828,16.15984480498362 L22.7750851255769,16.351083397188912 L23.9052957211464,16.54018931200158 L25.06583731965401,16.72698296058243 L26.25744236558503,16.91127655229488 L27.48085995329874,17.092873760708553 L28.73685599173017,17.271569378282802 L30.02621334799846,17.447148959581863 L31.349731967329415,17.619388452919246 L32.024556426900915,17.70418293046133 L32.708228966467146,17.78805382034245 L33.400854419158506,17.870970243199633 L34.10253869754155,17.95290064592567 L34.813388793761575,18.03381278878848 L35.533512779097734,18.113673732370735 L36.26301980288009,18.192449824328435 L37.00202009075785,18.270106685970546 L37.75062494227046,18.346609198661675 L38.50894672769456,18.421921490047193 L39.27709888413531,18.496006920107 L40.05519591081559,18.56882806703518 L40.843353363535385,18.640346712953992 L41.641687848258535,18.710523829458676 L42.450317013782936,18.779319563003334 L43.269359543463345,18.846693220125402 L44.09893514592788,18.912603252518046 L44.93916454476064,18.977007241951732 L45.79016946709065,19.039861885051323 L46.652072631048746,19.101122977933887 L47.524997732037995,19.16074540071483 L48.40906942776988,19.21868310188563 L49.30441332201239,19.274889082573587 L50.211155946996236,19.329315380689014 L51.12942474442715,19.381913054970962 L52.05934804503594,19.432632168935488 L53.001055046626966,19.481421774742874 L53.954675790539305,19.52822989698574 L54.92034113648032,19.573003516419462 L55.89818273565355,19.615688553633632 L56.88833300211924,19.656229852692476 L57.89092508231803,19.694571164741816 L58.906092822691626,19.730655131610295 L59.933970735321445,19.764423269410063 L60.97469396151591,19.795815952160183 L62.028398233272895,19.824772395444587 L63.0952198325308,19.85123064012641 L64.17529554814271,19.875127536134293 L65.2687626304734,19.896398726345332 L66.37575874355397,19.91497863058074 L67.49642191469448,19.930800429741677 L68.63089048147822,19.943796050106865 L69.77930303603812,19.953896147814177 L70.94179836653309,19.96103009355895 L72.11851539572423,19.96512595753184 L73.30959311656082,19.966110494625628 L74.51517052467823,19.963909129944305 L75.73538654770468,19.958445944644154 L76.9703799712891,19.94964366214163 L78.22028936173038,19.937423634721036 L79.48525298512656,19.92170583058483 L80.7654087229171,19.902408821375698 L82.06089398373123,19.879449770222923 L83.37184561142315,19.852744420340272 L84.69839978919363,19.82220708423666 L86.04069193968368,19.787750633568205 L87.39885662093309,19.749286489694523 L88.77302741809214,19.706724614977656 L90.16333683077542,19.65997350488444 L91.56991615595092,19.608940180937058 L92.99289536624454,19.553530184579273 L94.4324029835548,19.49364757200401 L95.88856594786586,19.429194910013248 L97.36150948114424,19.36007327296752 " />

        </g>
        </g>
    </svg>
    