<?xml version="1.0" encoding="UTF-8" standalone="no"?>
    <svg
    xmlns:svg="http://www.w3.org/2000/svg"
    xmlns="http://www.w3.org/2000/svg"
    width="500.0"
    height="220.0"
    >
        <g transform="scale(3.1201829230474307, -3.1201829230474307)   translate(52.70241498515869,-29.654030297639686)" stroke-width="0.3204940302100355"  fill="none">
        <!-- hidden lines -->
        <g  stroke="rgb(160,160,160)" fill="none" stroke-dasharray="0.3204940302100355,0.3204940302100355" >
    			<path d="M-49.49747468305833,-7.609767155431653 L7.071067811865483,17.487109956148167 " />
			<path d="M7.0710678118654755,17.487109956148167 L7.0710678118654755,26.44908999553933 " />
			<path d="M49.49747468305833,-1.3355478775366993 L7.071067811865468,17.487109956148167 " />
			<path d="M-10.60660171779821,-9.178321974905394 L-10.863706244272,-9.06142192992232 L-11.114266880324392,-8.941757784841538 L-11.358132697597272,-8.819401620869527 L-11.595156800441059,-8.694427140784265 L-11.825196414399096,-8.56690962453946 L-12.048112972209676,-8.436925883918708 L-12.263772197273756,-8.304554216266954 L-12.472044184538179,-8.1698743573271 L-12.672803478745605,-8.032967433210162 L-12.86592915000408,-7.8939159115279525 L-13.05130486663067,-7.75280355171766 L-13.228818965225322,-7.609715354588301 L-13.398364517932727,-7.464737511119418 L-13.559839396851647,-7.317957350542844 L-13.713146335552956,-7.1694632877388464 L-13.858192987669298,-7.019344769978309 L-13.994891982521079,-6.867692223043035 L-14.123160977745307,-6.714596996756646 L-14.242922708895545,-6.560151309958858 L-14.354105035983128,-6.404448194956302 L-14.456640986931594,-6.24758144148334 L-14.50464706567278,-6.168741202827225 L-14.550468797918157,-6.0896455402066385 L-14.594099283083398,-6.010306365137423 L-14.635531950577928,-5.930735625807518 L-14.674760560794411,-5.8509453052775875 L-14.711779206048455,-5.770947419676399 L-14.746582311468245,-5.690754016391275 L-14.779164635834118,-5.6103771722537825 L-14.809521272367874,-5.529828991720987 L-14.837647649471716,-5.4491216050526035 L-14.8635395314167,-5.3682671664842045 L-14.88719301898065,-5.287277852396821 L-14.90860455003534,-5.206165859483257 L-14.927770900082955,-5.124943402911301 L-14.94468918274167,-5.043622714484143 L-14.959356850180352,-4.962216040798337 L-14.971771693502237,-4.8807356413995056 L-14.981931843077586,-4.799193786936098 L-14.989835768825241,-4.717602757311455 L-14.995482280443063,-4.635974839834517 L-14.998870527587167,-4.554322327369411 L-15.0,-4.472657516484237 " />
			<path d="M-15.0,-4.472657516484176 L-14.996919071194336,-4.337784878484255 L-14.987677550393649,-4.202967644883735 L-14.97227923392696,-4.068261197322417 L-14.950730447276504,-3.9337208719302463 L-14.923040042479283,-3.7994019365957605 L-14.889219394490732,-3.665359568262562 L-14.849282396512002,-3.5316488302631535 L-14.80324545428276,-3.398324649699447 L-14.751127479341859,-3.2654417948792265 L-14.692949881258674,-3.1330548528178515 L-14.628736558838241,-3.0012182068144284 L-14.55851389030386,-2.8699860141116647 L-14.482310722461175,-2.739412183648591 L-14.400158358848167,-2.6095503539152802 L-14.31209054687597,-2.4804538709186628 L-14.218143463965754,-2.352175766268495 L-14.118355702687378,-2.2247687353924768 L-14.01276825490593,-2.098285115889471 L-13.901424494942667,-1.9727768660297147 L-13.784370161757234,-1.8482955434108526 L-13.661653340158564,-1.7248922837785683 L-13.533324441052066,-1.6026177800205033 L-13.399436180731323,-1.4815222613421017 L-13.26004355922273,-1.3616554726329273 L-13.115203837692007,-1.2430666540319377 L-12.964976514921855,-1.1258045207000986 L-12.809423302870426,-1.0099172428086658 L-12.64860810132063,-0.8954524257513263 L-12.482596971630707,-0.7824570905883617 L-12.311458109596868,-0.6709776547308381 L-12.135261817439083,-0.5610599128727816 L-11.954080474921623,-0.4527490181791478 " />
			<path d="M11.95409023526531,-0.4527547310577287 L12.135271018011053,-0.5610655311048278 L12.311466763175723,-0.6709831706712084 L12.48260509146017,-0.7824624967839173 L12.64861570109719,-0.895457714946124 L12.809430396730729,-1.009922407949 L12.964983117429794,-1.1258095549394076 L13.115209963825562,-1.2430715507355554 L13.260049224360554,-1.3616602253826877 L13.399441400639063,-1.4815268639407813 L13.533329231868466,-1.6026222264961145 L13.661657718381317,-1.7248965683884858 L13.784374144228625,-1.8482996606457833 L13.90142809883499,-1.9727808106175013 L14.012771497706716,-2.0982888827987267 L14.118358602184408,-2.2247723198360543 L14.218146038231913,-2.3521791637067877 L14.312092814253894,-2.4804570770627237 L14.400160337934746,-2.6095533647297704 L14.482312432091897,-2.739414995354561 L14.558515349536991,-2.8699886231891476 L14.628737786938883,-3.00122061000486 L14.692950897682696,-3.1330570471263037 L14.7511283037197,-3.265443777576464 L14.803246106403126,-3.398326418323799 L14.849282896305485,-3.5316503826222023 L14.889219762013301,-3.665360902434644 L14.92304029789574,-3.7994030509312857 L14.950730610843856,-3.933721765052825 L14.972279325977718,-4.068261868129806 L14.987677591319107,-4.20296809254859 L14.996919081427803,-4.337785102454699 L15.0,-4.472657516484146 " />
			<path d="M15.0,-4.472657516484175 L14.997458726937351,-4.595150889505095 L14.989835768825243,-4.717602757311449 L14.977133708599421,-4.83997162875216 L14.959356850180352,-4.962216040798334 L14.936511217014898,-5.0842945725924515 L14.90860455003534,-5.206165859483261 L14.875646305036494,-5.327788607041632 L14.837647649471716,-5.449121605052604 L14.794621458668981,-5.57012374147892 L14.746582311468245,-5.690754016391273 L14.693546485281608,-5.8109715558605695 L14.635531950577928,-5.9307356258075155 L14.572558364793776,-6.0500056458048 L14.504647065672783,-6.16874120282722 L14.431821064035626,-6.286902064945092 L14.354105035983133,-6.404448194956294 L14.271525314535126,-6.521339763952311 L14.18410988070782,-6.637537164813738 L14.091888354032852,-6.753001025630606 L13.994891982521086,-6.8676922230430275 L13.893153632074672,-6.981571895497597 L13.786707775350866,-7.094601456415115 L13.675590480081448,-7.2067426072651255 L13.559839396851652,-7.31795735054284 L13.439493746342782,-7.428208002644094 L13.314594306042812,-7.537457206633914 L13.185183396429505,-7.645667944904402 L13.051304866630671,-7.7528035517176574 L12.913004079566509,-7.85882772562946 L12.77032789657898,-7.963704541789521 L12.62332466155348,-8.067398464114135 L12.472044184538182,-8.169874357327098 L12.31653772486657,-8.271097498864805 L12.156857973788927,-8.371033590641535 L11.993059036618583,-8.469648770670888 L11.8251964143991,-8.566909624539457 L11.653326985098492,-8.662783196728839 L11.477508984336886,-8.75723700178218 L11.297801985654187,-8.850239035311416 L11.11426688032439,-8.94175778484154 L10.926965856723385,-9.031762240488163 L10.735962379257286,-9.120221905464799 L10.541321166858383,-9.207106806416284 L10.343108171056006,-9.29238750357484 L10.14139055362974,-9.376035100735336 L9.93623666385258,-9.458021255046383 L9.727716015331694,-9.538318186613921 L9.515899262454688,-9.616898687914063 L9.300858176449351,-9.693736133011967 L9.082665621064894,-9.768804486583722 L8.861395527883124,-9.842078312738018 L8.637122871267689,-9.913532783634775 L8.409923642960047,-9.983143687897712 L8.179874826330702,-10.050887438818048 L7.947054370294424,-10.116741082346532 L7.711541162898326,-10.180682304871116 L7.473415004591727,-10.24268944077761 L7.232756581186838,-10.302741479790793 L6.989647436519488,-10.360818074093453 L6.744169944819104,-10.416899545220964 L6.4964072827972945,-10.470966890729075 L6.24644340146457,-10.523001790632627 L5.994362997684713,-10.572986613613029 L5.740251485476355,-10.620904422992387 L5.484194967071614,-10.666738982472275 L5.226280203741522,-10.71047476163518 L4.966594586398148,-10.752096941206776 L4.705226105983384,-10.791591418077225 L4.44226332365438,-10.828944810079838 L4.177795340775818,-10.86414446052543 L3.911911768729151,-10.897178442490866 L3.6447026985489748,-10.928035562860344 L3.376258670396907,-10.956705366118026 L3.10667064288329,-10.98317813789075 L2.8360299622471024,-11.007444908239606 L2.5644283314045255,-11.029497454699289 L2.291957778876656,-11.04932830506416 L2.0187106276068953,-11.066930739920107 L1.7447794636785714,-11.082298794921325 L1.47025710494342,-11.095427262811256 L1.1952365695714737,-11.106311695186989 L0.9198110445331482,-11.114948404006556 L0.6440738540241295,-11.121334462838558 L0.36811842784369914,-11.125467707853756 L0.09203826973732956,-11.127346738558256 L-0.18407307428578884,-11.12697091826804 L-0.46012204764954173,-11.12434037432471 L-0.7360151149112649,-11.119455998052324 L-1.0116587934549581,-11.112319444455395 L-1.2869596851665979,-11.102933131658112 L-1.5618245080808204,-11.091300240084994 L-1.836160127988234,-11.077424711383241 L-2.1098735899927186,-11.061311247087158 L-2.382872150007904,-11.042965307025112 L-2.655063306182216,-11.022393107469545 L-2.926354830241911,-10.999601619030667 L-3.1966547987413603,-10.97459856429456 L-3.4658716242100587,-10.94739241520649 L-3.7339140861857967,-10.917992390200295 L-4.000691362123473,-10.88640845107486 L-4.2661130581690765,-10.852651299618675 L-4.530089239788422,-10.816732373983697 L-4.792530462240238,-10.778663844809682 L-5.053347800883294,-10.738458611100324 L-5.312452881307339,-10.696130295852612 L-5.569757909277549,-10.651693241440853 L-5.825175700482382,-10.605162504756965 L-6.078619710074838,-10.556553852108642 L-6.330004061996988,-10.505883753877164 L-6.579243578077909,-10.453169378936625 L-6.826253806895155,-10.398428588836499 L-7.0709510523899635,-10.341679931749495 L-7.31325240222654,-10.282942636186757 L-7.553075755885767,-10.222236604482552 L-7.790339852483848,-10.159582406050626 L-8.024964298306454,-10.09500127041455 L-8.256869594049059,-10.028515080014365 L-8.485977161754187,-9.960146362792027 L-8.71220937143646,-9.88991828455813 L-8.935489567386492,-9.817854641142466 L-9.155742094144637,-9.743979850331144 L-9.372892322135792,-9.668318943592947 L-9.586866672956635,-9.59089755759777 L-9.79759264430665,-9.511741925529975 L-10.004998834554565,-9.430878868199628 L-10.209014966931798,-9.348335784954646 L-10.409571913344815,-9.264140644396893 L-10.606601717798117,-9.178321974905435 " />
			<path d="M-15.000000000000002,2.69692651502875 L-15.000000000000002,-4.472657516484176 " />
			<path d="M15.000000000000002,2.69692651502875 L15.000000000000002,-4.472657516484176 " />

        </g>

        <!-- solid lines -->
        <g  stroke="rgb(0,0,0)" fill="none">
    			<path d="M-7.0710678118654755,-17.470444949725355 L-49.497474683058336,1.3522128839595133 " />
			<path d="M-49.49747468305833,1.3522128839595116 L7.071067811865483,26.44908999553933 " />
			<path d="M-7.0710678118654755,-17.470444949725355 L49.497474683058336,7.626432161854467 " />
			<path d="M49.49747468305833,7.626432161854465 L7.071067811865468,26.44908999553933 " />
			<path d="M-7.0710678118654755,-26.43242498911652 L-7.0710678118654755,-17.470444949725355 " />
			<path d="M-49.49747468305833,-7.609767155431653 L-49.49747468305833,1.3522128839595116 " />
			<path d="M-7.0710678118654755,-26.43242498911652 L-49.497474683058336,-7.609767155431651 " />
			<path d="M-7.0710678118654755,-26.43242498911652 L49.497474683058336,-1.3355478775366976 " />
			<path d="M49.49747468305833,-1.3355478775366993 L49.49747468305833,7.626432161854465 " />
			<path d="M-11.954080474921614,-0.4527490181791416 L-11.688025840989692,-0.3015979738954577 L-11.412264508143522,-0.15391092085239233 L-11.127025491296875,-0.009810510537623607 L-10.832545676412602,0.13058358420457328 L-10.529069623773017,0.2671547685595117 L-10.216849364876913,0.39978962257202166 L-9.896144193131857,0.5283779953397225 L-9.567220448515595,0.6528130964914007 L-9.23035129638541,0.7729915848745215 L-8.885816500619104,0.8888136543782359 L-8.53390219127607,1.0001831168205868 L-8.174900626971308,1.1070074818310989 L-7.809109952159824,1.2091980336623935 L-7.436833949532923,1.306669904867051 L-7.058381787732058,1.3993421467785234 L-6.6740677645897275,1.487137796737576 L-6.284211046110691,1.5699839420084105 L-5.889135401410234,1.6478117803314074 L-5.489168933829642,1.720556677062187 L-5.0846438084521735,1.788158218849536 L-4.675895976245828,1.8505602638076297 L-4.263264895062003,1.90771098814088 L-3.8470932477217517,1.959562929182673 L-3.4277266574237513,2.0060730248122836 L-3.0055134007103437,2.047202649217203 L-2.5808041182300245,2.0829176449711895 L-2.1539515235365814,2.113188351401413 L-1.725310110166717,2.137989629221117 L-1.2952358572394345,2.157300881407351 L-0.8640859338216683,2.1711060703064353 L-0.43221840230568703,2.1793937309529507 L8.078955393755861e-06,2.182156980591188 L0.4322345535070448,2.179393524391151 L0.8641020649003092,2.1711056573543814 L1.2952519547987824,2.1573002624079916 L1.7253261608380337,2.137988804688521 L2.153967513990068,2.11318732202034 L2.580820035185892,2.082916411596522 L3.005529230949841,2.0472012128732375 L3.4277423878001447,2.006071386691878 L3.847108865171242,1.9595610906462566 L4.263280386614574,1.9077089507153246 L4.675911329036017,1.8505580291849837 L5.084659009729763,1.7881557888856117 L5.489183970970239,1.720554053775028 L5.889150261925758,1.647808965899606 L6.284225717659746,1.5699809387693024 L6.674082234987852,1.4871346071852996 L7.058396044961834,1.3993387735619462 L7.436847981753983,1.3066663507875687 L7.809123747718655,1.209194301671606 L8.174914174410942,1.1070035750283589 L8.533915479345598,1.0001790384504234 L8.885829518283021,0.8888094078276643 L9.230364032832771,0.7729871736702281 L9.56723289316901,0.6528085242968116 L9.896156335656258,0.5283732659519655 L10.21686119518815,0.3997847399187684 L10.529081132046224,0.2671497366957203 L10.832556853090365,0.13057840730911696 L11.12703632709716,-0.009815828165424811 L11.412274994067387,-0.15391637479634124 L11.68803596832876,-0.3016035596261517 L11.954090235265271,-0.4527547310577056 " />
			<path d="M-12.020815280171306,-0.8437638633037245 L-12.312200410174933,-0.7112771456562408 L-12.59616913103431,-0.5756577812313566 L-12.872550390610241,-0.4369874620630769 L-13.141177707166532,-0.29534971796644616 L-13.40188926965231,-0.15082986622233197 L-13.654528035170966,-0.0035149601854804757 L-13.898941823576923,0.1465062631531735 L-14.134983409143269,0.2991434366183423 L-14.36251060924502,0.4543046172842038 L-14.581386370004624,0.6118963418573751 L-14.791478848848094,0.771823682975707 L-14.992661493922032,0.9339903063889792 L-15.184813120323756,1.0982985289870464 L-15.367817983098533,1.2646493776404975 L-15.541565846960019,1.4329426488183614 L-15.62493547873098,1.517786057651921 L-15.70595205269187,1.6030769689469717 L-15.784603368044657,1.6888025382060037 L-15.860877580190557,1.7749498554736154 L-15.934763202513773,1.861505947280695 L-16.006249108111348,1.948457778598189 L-16.075324531468855,2.0357922548001404 L-16.141979070081618,2.123496223635682 L-16.206202686021292,2.2115564772097 L-16.267985707447547,2.2999597539719123 L-16.327318830064613,2.388692740714017 L-16.384193118522475,2.477742074574603 L-16.438600007762485,2.567094345051533 L-16.490531304307243,2.6567360960215307 L-16.53997918749452,2.7466538277666412 L-16.586936210654983,2.836833999007201 L-16.631395302233667,2.927263028941123 L-16.673349766854916,3.017927299289136 L-16.712793286330676,3.108813156345609 L-16.749719920611998,3.1999069130347673 L-16.784124108683592,3.2911948509719355 L-16.816000669401276,3.382663222529437 L-16.845344802272262,3.474298252906956 L-16.87215208817807,3.5660861422059913 L-16.896418490040052,3.6580130675080293 L-16.918140353427347,3.750065184956248 L-16.937314407107227,3.842228631840359 L-16.953937763537734,3.9344895286842734 L-16.968007919302536,4.0268339813362815 L-16.97952275548793,4.119248083061477 L-16.98848053800194,4.211717916636072 L-16.994879917835473,4.304229556443269 L-16.998719931265455,4.3967690705703895 L-17.0,4.489322522906987 L-16.998719931265455,4.581875975243584 L-16.994879917835473,4.674415489370705 L-16.98848053800194,4.766927129177901 L-16.97952275548793,4.859396962752497 L-16.968007919302536,4.951811064477692 L-16.953937763537734,5.0441555171297 L-16.937314407107227,5.136416413973614 L-16.918140353427347,5.228579860857725 L-16.896418490040055,5.3206319783059435 L-16.872152088178073,5.412558903607982 L-16.845344802272262,5.5043467929070165 L-16.81600066940128,5.595981823284536 L-16.784124108683596,5.687450194842031 L-16.749719920612,5.7787381327792 L-16.71279328633068,5.869831889468364 L-16.673349766854923,5.96071774652483 L-16.631395302233674,6.051382016872838 L-16.58693621065499,6.141811046806765 L-16.539979187494524,6.231991218047325 L-16.490531304307254,6.321908949792429 L-16.438600007762492,6.411550700762428 L-16.384193118522482,6.500902971239357 L-16.327318830064623,6.589952305099944 L-16.267985707447558,6.678685291842048 L-16.206202686021307,6.76708856860426 L-16.141979070081632,6.855148822178279 L-16.07532453146887,6.94285279101382 L-16.006249108111362,7.030187267215772 L-15.93476320251378,7.117139098533272 L-15.860877580190564,7.203695190340352 L-15.784603368044673,7.289842507607958 L-15.705952052691881,7.375568076866996 L-15.624935478730984,7.460858988162052 L-15.541565846960028,7.5457023969956065 L-15.367817983098536,7.713995668173476 L-15.18481312032376,7.880346516826927 L-14.992661493922036,8.044654739424995 L-14.791478848848097,8.206821362838266 L-14.581386370004628,8.366748703956599 L-14.362510609245025,8.524340428529769 L-14.134983409143274,8.679501609195633 L-13.898941823576928,8.8321387826608 L-13.65452803517097,8.982160005999454 L-13.401889269652314,9.129474912036306 L-13.141177707166536,9.27399476378042 L-12.872550390610247,9.415632507877051 L-12.596169131034316,9.55430282704533 L-12.31220041017495,9.68992219147021 L-12.020815280171322,9.822408909117694 L-11.722189260530152,9.951683174943069 L-11.416502232399328,10.077667118962477 L-11.103938330214223,10.200284853158887 L-10.784685830781994,10.319462517194186 L-10.458937039870676,10.435128322899905 L-10.12688817637139,10.547212597519707 L-9.788739254103382,10.655647825677665 L-9.444693961333252,10.760368690046985 L-9.094959538080667,10.86131211069474 L-8.739746651284772,10.958417283078852 L-8.379269267906333,11.051625714674465 L-8.013744526041966,11.140881260207681 L-7.643392604128319,11.226130155475346 L-7.268436588314804,11.307321049730618 L-6.889102338084838,11.384405036614712 L-6.505618350206538,11.457335683616293 L-6.118215621094811,11.526069060040658 L-5.727127507667755,11.590563763471952 L-5.332589586781171,11.650780944712444 L-4.934839513325878,11.70668433118382 L-4.534116877073291,11.758240248776428 L-4.130663058355506,11.805417642133312 L-3.7247210826668087,11.848188093356793 L-3.316535474274204,11.886525839126342 L-2.906352108925146,11.920407786217448 L-2.494418065741176,11.949813525412111 L-2.0809814783867036,11.974725343792592 L-1.6662913856025598,11.995128235411011 L-1.2505975811943773,12.01100991032837 L-0.8341504635661386,12.022360802017554 L-0.4172008848895278,12.029174073125844 L-2.030378203127838e-14,12.031445619593494 L0.4172008848894872,12.029174073125846 L0.8341504635660982,12.022360802017555 L1.2505975811943368,12.011009910328372 L1.6662913856025194,11.995128235411013 L2.080981478386663,11.974725343792594 L2.494418065741136,11.949813525412115 L2.9063521089250908,11.920407786217453 L3.316535474274164,11.886525839126346 L3.724721082666784,11.848188093356796 L4.130663058355467,11.805417642133317 L4.534116877073238,11.758240248776433 L4.934839513325839,11.706684331183823 L5.332589586781147,11.650780944712448 L5.727127507667717,11.590563763471959 L6.118215621094759,11.526069060040665 L6.5056183502064995,11.4573356836163 L6.889102338084815,11.384405036614718 L7.268436588314767,11.307321049730625 L7.643392604128297,11.226130155475353 L8.013744526041958,11.140881260207683 L8.379269267906311,11.051625714674472 L8.739746651284765,10.958417283078855 L9.094959538080658,10.861312110694744 L9.444693961333229,10.760368690046992 L9.788739254103348,10.655647825677676 L10.126888176371358,10.547212597519717 L10.458937039870658,10.435128322899912 L10.784685830781962,10.319462517194198 L11.10393833021418,10.200284853158902 L11.4165022323993,10.07766711896249 L11.722189260530135,9.951683174943076 L12.020815280171293,9.822408909117705 L12.31220041017491,9.689922191470227 L12.596169131034289,9.554302827045344 L12.87255039061023,9.41563250787706 L13.141177707166513,9.273994763780435 L13.40188926965228,9.129474912036326 L13.654528035170944,8.982160005999468 L13.898941823576914,8.83213878266081 L14.134983409143251,8.679501609195647 L14.362510609244994,8.52434042852979 L14.581386370004607,8.366748703956613 L14.791478848848083,8.206821362838276 L14.992661493922016,8.04465473942501 L15.18481312032375,7.880346516826937 L15.367817983098533,7.71399566817348 L15.54156584696001,7.5457023969956225 L15.62493547873098,7.460858988162057 L15.705952052691869,7.375568076867006 L15.784603368044655,7.289842507607974 L15.86087758019056,7.2036951903403565 L15.934763202513771,7.117139098533283 L16.006249108111348,7.030187267215789 L16.075324531468862,6.942852791013825 L16.14197907008162,6.85514882217829 L16.206202686021292,6.767088568604278 L16.267985707447554,6.6786852918420525 L16.32731883006462,6.589952305099947 L16.384193118522475,6.500902971239368 L16.438600007762492,6.411550700762431 L16.49053130430725,6.321908949792434 L16.539979187494524,6.23199121804733 L16.58693621065499,6.1418110468067635 L16.63139530223367,6.051382016872842 L16.67334976685492,5.9607177465248355 L16.712793286330676,5.869831889468369 L16.749719920611998,5.7787381327792104 L16.784124108683592,5.687450194842036 L16.816000669401276,5.595981823284541 L16.845344802272262,5.504346792907022 L16.872152088178073,5.41255890360798 L16.896418490040052,5.320631978305948 L16.918140353427347,5.22857986085773 L16.937314407107227,5.136416413973619 L16.95393776353773,5.044155517129711 L16.968007919302536,4.951811064477696 L16.97952275548793,4.859396962752501 L16.98848053800194,4.766927129177906 L16.994879917835473,4.674415489370702 L16.998719931265455,4.581875975243588 L17.0,4.489322522906991 L16.998719931265455,4.396769070570394 L16.994879917835473,4.30422955644328 L16.98848053800194,4.2117179166360765 L16.97952275548793,4.119248083061482 L16.968007919302536,4.026833981336286 L16.953937763537734,3.934489528684271 L16.937314407107227,3.8422286318403636 L16.918140353427347,3.7500651849562523 L16.896418490040055,3.6580130675080342 L16.872152088178073,3.5660861422060024 L16.845344802272262,3.474298252906961 L16.81600066940128,3.382663222529442 L16.784124108683596,3.2911948509719466 L16.749719920612,3.1999069130347717 L16.71279328633068,3.1088131563456134 L16.673349766854923,3.017927299289147 L16.631395302233678,2.92726302894114 L16.586936210654994,2.8368339990072187 L16.539979187494524,2.7466538277666523 L16.490531304307254,2.6567360960215485 L16.438600007762492,2.567094345051551 L16.38419311852248,2.4777420745746137 L16.327318830064623,2.3886927407140344 L16.267985707447558,2.2999597539719296 L16.206202686021307,2.2115564772097174 L16.141979070081636,2.1234962236357053 L16.07532453146887,2.0357922548001577 L16.006249108111362,1.9484577785982058 L15.934763202513786,1.8615059472807118 L15.860877580190566,1.7749498554736256 L15.784603368044673,1.68880253820602 L15.705952052691886,1.6030769689469886 L15.624935478730997,1.5177860576519375 L15.541565846960038,1.432942648818384 L15.36781798309855,1.2646493776405134 L15.184813120323769,1.0982985289870566 L14.992661493922053,0.9339903063889952 L14.791478848848119,0.7718236829757288 L14.581386370004644,0.6118963418573911 L14.362510609245032,0.45430461728421356 L14.134983409143292,0.2991434366183574 L13.898941823576955,0.14650626315319304 L13.654528035170989,-0.0035149601854653767 L13.401889269652324,-0.15082986622232308 L13.141177707166557,-0.29534971796643195 L12.87255039061026,-0.43698746206306804 L12.596169131034317,-0.575657781231353 L12.312200410174961,-0.7112771456562275 L12.020815280171323,-0.8437638633037157 L11.722189260530143,-0.9730381291290957 L11.416502232399331,-1.0990220731484994 L11.103938330214215,-1.2216398073449133 L10.78468583078197,-1.340817471380218 L10.458937039870667,-1.4564832770859324 L10.126888176371367,-1.5685675517057378 L9.78873925410336,-1.6770027798636962 L9.444693961333241,-1.7817236442330122 L9.09495953808067,-1.8826670648807626 L8.739746651284774,-1.979772237264875 L8.379269267906322,-2.0729806688604926 L8.013744526041968,-2.1622362143937046 L7.643392604128334,-2.2474851096613673 L7.268436588314806,-2.328676003916639 L6.889102338084825,-2.405759990800739 L6.5056183502065394,-2.478690637802316 L6.118215621094827,-2.547424014226677 L5.727127507667757,-2.611918717657976 L5.332589586781158,-2.6721358988984685 L4.93483951332588,-2.7280392853698405 L4.534116877073308,-2.779595202962448 L4.130663058355508,-2.8267725963193353 L3.724721082666796,-2.869543047542818 L3.316535474274206,-2.9078807933123647 L2.9063521089251627,-2.94176274040347 L2.4944180657411783,-2.971168479598134 L2.0809814783866902,-2.996080297978615 L1.6662913856025618,-3.016483189597034 L1.2505975811943943,-3.032364864514393 L0.8341504635661409,-3.043715756203577 L0.41720088488952983,-3.0505290273118684 L3.748471472473101e-14,-3.0528005737795176 L-0.4172008848894549,-3.0505290273118693 L-0.8341504635660659,-3.0437157562035786 L-1.2505975811943195,-3.0323648645143955 L-1.6662913856024872,-3.0164831895970377 L-2.080981478386616,-2.9960802979786196 L-2.4944180657411046,-2.9711684795981386 L-2.906352108925089,-2.941762740403475 L-3.3165354742741324,-2.907880793312371 L-3.724721082666723,-2.869543047542825 L-4.130663058355436,-2.8267725963193433 L-4.534116877073235,-2.779595202962457 L-4.934839513325808,-2.7280392853698503 L-5.332589586781117,-2.6721358988984756 L-5.727127507667715,-2.611918717657982 L-6.118215621094757,-2.5474240142266904 L-6.505618350206498,-2.478690637802324 L-6.889102338084813,-2.4057599908007408 L-7.268436588314765,-2.328676003916647 L-7.643392604128295,-2.247485109661376 L-8.013744526041956,-2.1622362143937064 L-8.37926926790631,-2.072980668860496 L-8.739746651284763,-1.9797722372648776 L-9.094959538080657,-1.8826670648807662 L-9.444693961333227,-1.7817236442330149 L-9.788739254103346,-1.6770027798636988 L-10.126888176371356,-1.5685675517057414 L-10.458937039870657,-1.456483277085935 L-10.78468583078196,-1.3408174713802214 L-11.10393833021418,-1.2216398073449266 L-11.4165022323993,-1.0990220731485127 L-11.722189260530133,-0.9730381291290993 L-12.020815280171078,-0.8437638633038249 " />
			<path d="M-15.0,2.696926515028755 L-14.998870527587167,2.7785913259139914 L-14.995482280443063,2.860243838379095 L-14.989835768825243,2.94187175585603 L-14.981931843077586,3.0234627854806764 L-14.971771693502237,3.1050046399440876 L-14.959356850180352,3.1864850393429154 L-14.94468918274167,3.2678917130287197 L-14.927770900082955,3.3492124014558797 L-14.90860455003534,3.4304348580278403 L-14.88719301898065,3.511546850941401 L-14.8635395314167,3.5925361650287817 L-14.837647649471716,3.673390603597184 L-14.809521272367876,3.7540979902655653 L-14.779164635834118,3.8346461707983583 L-14.746582311468245,3.915023014935854 L-14.711779206048456,3.9952164182209744 L-14.674760560794414,4.07521430382216 L-14.635531950577928,4.155004624352094 L-14.594099283083402,4.234575363681998 L-14.55046879791816,4.3139145387512094 L-14.504647065672781,4.3930102013717995 L-14.456640986931598,4.471850440027912 L-14.354105035983132,4.628717193500874 L-14.24292270889555,4.784420308503432 L-14.123160977745313,4.93886599530122 L-13.994891982521084,5.091961221587609 L-13.858192987669302,5.243613768522883 L-13.71314633555296,5.393732286283422 L-13.55983939685165,5.542226349087421 L-13.39836451793273,5.6890065096639955 L-13.228818965225326,5.8339843531328786 L-13.051304866630671,5.977072550262237 L-12.865929150004082,6.1181849100725305 L-12.672803478745607,6.25723643175474 L-12.472044184538179,6.394143355871678 L-12.263772197273756,6.528823214811534 L-12.048112972209674,6.6611948824632865 L-11.825196414399093,6.791178623084039 L-11.595156800441055,6.918696139328846 L-11.358132697597268,7.043670619414109 L-11.114266880324388,7.16602678338612 L-10.863706244272006,7.285690928466896 L-10.606601717798213,7.402590973449971 L-10.343108171056004,7.516656502119419 L-10.073384322705275,7.627818805665957 L-9.797592644306652,7.736010924074553 L-9.515899262454683,7.8411676864586415 L-9.228473858709402,7.943225750316629 L-8.935489567386503,8.042123639687041 L-8.63712287126768,8.137801782179356 L-8.333553495294034,8.230202544858168 L-8.024964298306458,8.319270268959128 L-7.711541162898325,8.404951303415693 L-7.393472883446761,8.487194037176529 L-7.070951052389967,8.565948930294073 L-6.744169944819102,8.641168543765541 L-6.413326401454233,8.712807568108428 L-6.078619710074848,8.78082285065322 L-5.740251485476348,8.845173421536966 L-5.398425548024824,8.905820518381994 L-5.053347800883301,8.962727609644901 L-4.70522610598337,9.015860416621805 L-4.354270158816935,9.065186934096548 L-4.000691362123476,9.110677449619438 L-3.6447026985489597,9.152304561404925 L-3.2865186023530497,9.190043194837408 L-2.926354830241925,9.223870617575244 L-2.564428331404517,9.253766453243868 L-2.200957116830426,9.279712693709747 L-1.8361601279882442,9.301693709927818 L-1.4702571049434114,9.319696261355833 L-1.1034684539950153,9.333709503929974 L-0.7360151149112719,9.343724996596901 L-0.368118427843684,9.349736706398335 L-9.18485099360515e-16,9.351741012105084 L0.36811842784368215,9.349736706398335 L0.7360151149112701,9.343724996596901 L1.1034684539950133,9.333709503929974 L1.4702571049434097,9.319696261355835 L1.8361601279882422,9.301693709927818 L2.2009571168304247,9.279712693709747 L2.5644283314045153,9.25376645324387 L2.926354830241923,9.223870617575244 L3.286518602353048,9.190043194837408 L3.644702698548958,9.152304561404925 L4.000691362123475,9.110677449619438 L4.354270158816933,9.065186934096548 L4.705226105983368,9.015860416621805 L5.053347800883299,8.962727609644901 L5.398425548024822,8.905820518381994 L5.740251485476346,8.845173421536966 L6.0786197100748485,8.78082285065322 L6.413326401454234,8.712807568108428 L6.744169944819101,8.641168543765541 L7.070951052389965,8.565948930294073 L7.393472883446759,8.48719403717653 L7.711541162898323,8.404951303415693 L8.024964298306456,8.319270268959128 L8.33355349529403,8.23020254485817 L8.637122871267675,8.137801782179357 L8.935489567386494,8.042123639687045 L9.228473858709396,7.943225750316631 L9.515899262454681,7.841167686458643 L9.797592644306652,7.736010924074552 L10.073384322705277,7.627818805665957 L10.343108171056004,7.516656502119419 L10.606601717798211,7.402590973449971 L10.863706244272002,7.285690928466898 L11.114266880324383,7.166026783386122 L11.358132697597265,7.04367061941411 L11.595156800441055,6.918696139328846 L11.825196414399096,6.791178623084037 L12.048112972209676,6.661194882463285 L12.263772197273758,6.528823214811533 L12.47204418453818,6.394143355871678 L12.672803478745607,6.25723643175474 L12.86592915000408,6.1181849100725305 L13.05130486663067,5.977072550262237 L13.228818965225324,5.83398435313288 L13.398364517932729,5.689006509663997 L13.559839396851647,5.542226349087423 L13.713146335552956,5.393732286283425 L13.858192987669302,5.243613768522884 L13.994891982521084,5.091961221587607 L14.123160977745313,4.938865995301219 L14.24292270889555,4.784420308503432 L14.354105035983132,4.628717193500875 L14.456640986931598,4.471850440027913 L14.504647065672781,4.3930102013718 L14.55046879791816,4.313914538751211 L14.5940992830834,4.234575363681999 L14.635531950577928,4.155004624352096 L14.674760560794413,4.075214303822162 L14.711779206048456,3.995216418220977 L14.746582311468245,3.9150230149358567 L14.779164635834118,3.834646170798361 L14.809521272367874,3.7540979902655685 L14.837647649471714,3.6733906035971877 L14.863539531416698,3.5925361650287857 L14.88719301898065,3.5115468509414045 L14.90860455003534,3.4304348580278416 L14.927770900082953,3.3492124014558815 L14.94468918274167,3.2678917130287215 L14.959356850180352,3.1864850393429145 L14.971771693502237,3.1050046399440867 L14.981931843077586,3.0234627854806764 L14.989835768825243,2.94187175585603 L14.995482280443063,2.860243838379095 L14.998870527587167,2.778591325913992 L15.0,2.6969265150287853 " />
			<path d="M-11.209744765190388,-0.8080010652439764 L-11.4179398972076,-0.7137748056069749 L-11.620966028957065,-0.6181960955899799 L-11.818695204077589,-0.5213483397722067 L-12.01100437377175,-0.4233220258182717 L-12.197775396805914,-0.32421472447819294 L-12.37889503951023,-0.22413108958738914 L-12.554254975778623,-0.12318285806668061 L-12.723751787068807,-0.021488849922289277 L-12.88728696240227,0.08082503175416211 L-13.044766898364289,0.18362580078564905 L-13.196102899103918,0.2867733879097467 L-13.341211176333996,0.39012064077862796 L-13.48001284933114,0.493513323959065 L-13.612433944935754,0.5967901189324283 L-13.738405397552018,0.6997826240946876 L-13.8578630491479,0.8023153547564106 L-13.941921785456966,0.8776234089138182 L-14.022420785225862,0.9525249632035795 L-14.099349590949942,1.0269279302767331 L-14.172705684862816,1.1007431805378398 L-14.242494488936357,1.1738845421449802 L-14.308729364880689,1.2462688010097567 L-14.371431614144196,1.317815700797293 L-14.430630477913523,1.3884479429262342 L-14.486363137113566,1.4580911865687454 L-14.538674712407483,1.5266740486505148 L-14.587618264196687,1.5941281038507502 L-14.633254792620848,1.6603878846021816 L-14.714890478624024,1.7890775412571553 L-14.78422856629953,1.912278433147697 L-14.823149074150686,1.9894721882539887 L-14.857431535531758,2.06422567483563 L-14.887333240455852,2.1365560152824115 L-14.913121246694606,2.2065247155596484 L-14.934778781144649,2.2733328687774814 L-14.952929439704205,2.338079527862502 L-14.967826291651518,2.400967629176626 L-14.979688679451355,2.4622328801271673 L-14.988702218755023,2.5221437591668394 L-14.995018798400354,2.5810015157937545 L-14.998756580411714,2.639140170551423 L-15.000000000000002,2.696926515028753 " />
			<path d="M15.0,2.6969265150287565 L14.998748033637188,2.6389429368989847 L14.994984607471071,2.5806035239907126 L14.988624056158592,2.521537818655727 L14.979546610833122,2.4614087075923905 L14.967598399104455,2.3999124218456407 L14.952591445058813,2.3367785368069898 L14.934303669258847,2.271769972214525 L14.91247888874363,2.204682992152908 L14.890434002864135,2.1445485084142035 L14.86536520874213,2.082667492629563 L14.837098117199352,2.0190005047046258 L14.805467122116971,1.953528886275307 L14.770315400435603,1.8862547607078 L14.731494912155298,1.817201033098573 L14.688866400335552,1.7464113902743732 L14.642299391095298,1.6739503007922232 L14.572705339888506,1.5732126113805383 L14.495428956638174,1.469741457006259 L14.410279369223437,1.3637945701190288 L14.317105006565312,1.2556362135101056 L14.215793598626695,1.1455371803123615 L14.106272176412356,1.0337747940002844 L13.988507071968945,0.9206329083899774 L13.862503918384995,0.8064019076391578 L13.733837410579257,0.6959522146986823 L13.597609993869026,0.584979055089958 L13.453904807815137,0.4736999920646463 L13.30281109488329,0.3623232735032386 L13.144424200444048,0.251047831915052 L12.978845572772826,0.14006328443823157 L12.80618276304991,0.0295499328397536 L12.626549425360441,-0.080321236484579 L12.440065316694426,-0.18938855251013498 L12.24685629694673,-0.2974996595834545 L12.047054328917078,-0.40451151742225 L11.840797478310064,-0.5102904011154041 L11.628229913735133,-0.6147119011229734 L11.409501906706591,-0.7176609232761866 L11.184769831643617,-0.8190316887774416 L10.954196165870238,-0.9187277342003091 L10.67785703230453,-1.032897643419746 L10.393952231063706,-1.1444260071692867 L10.102725532529032,-1.2531975294688653 L9.804421337168197,-1.359101163440322 L9.499284675535314,-1.462030111307404 L9.187561208270914,-1.5618818243957642 L8.869497226101956,-1.6585580031329605 L8.5453396498418,-1.7519645970484632 L8.215336030390251,-1.8420118047736427 L7.879734548733533,-1.9286140740417754 L7.53878401594427,-2.011690101688051 L7.192733873181526,-2.0911628336495593 L6.8418341916907846,-2.166959464965298 L6.486335672803946,-2.2390114397761725 L6.126489647939335,-2.307254451324992 L5.762548078601695,-2.3716284419564757 L5.394763556382191,-2.4320776031172464 L5.023389302958412,-2.4885503753558345 L4.648679170094366,-2.540999448322676 L4.270887639640481,-2.5893817607701144 L3.8902698235336084,-2.633658500552399 L3.5070814637970207,-2.673795104625685 L3.1215789325404204,-2.709761259048035 L2.7340192319599037,-2.7415308989794176 L2.3446599943380146,-2.7690822086817075 L1.9537594820437203,-2.792397621518687 L1.5615765875323788,-2.8114638199560433 L1.1683708333458025,-2.8262717355613702 L0.7744023721122115,-2.836816549004169 L0.3799319865462447,-2.843097690055845 L-0.014778910551031643,-2.8451188375897143 L-0.4094682762921362,-2.8428879195809946 L-0.7900407340055702,-2.836524380537124 L-1.1701419454510962,-2.8262107844561513 L-1.5495368719344833,-2.8119446809019357 L-1.9279910723119773,-2.7937275162361312 L-2.3052707029902537,-2.7715646336181883 L-2.6811425179264408,-2.745465273005353 L-3.055373868628144,-2.715442571152665 L-3.4277327041533994,-2.681513561612962 L-3.7979875711107014,-2.6436991747368768 L-4.165907613659001,-2.6020242376728366 L-4.5312625735077,-2.556517474367065 L-4.893822789916654,-2.507211505563582 L-5.253359199696171,-2.4541428488042016 L-5.609643337207016,-2.3973519184285346 L-5.9624473343603945,-2.336883025573988 L-6.311543920617991,-2.2727843781757615 L-6.65670642299192,-2.2051080809668524 L-6.997708766044749,-2.1339101354780556 L-7.33432547188952,-2.0592504400379568 L-7.666331660189709,-1.9811927897729409 L-7.99350304815925,-1.8998048766071873 L-8.315615950562531,-1.8151582892626716 L-8.632447279714391,-1.7273285132591645 L-8.943774545480128,-1.6363949309142318 L-9.249375855275485,-1.5424408213432363 L-9.549029914066669,-1.4455533604593347 L-9.84251602437032,-1.3458236209734828 L-10.129614086253564,-1.2433465723944244 L-10.410104597333955,-1.138221081028707 L-10.683768652779497,-1.0305499099806719 L-10.95038794530867,-0.9204397191524505 L-11.209744765190278,-0.8080010652440253 " />

        </g>
        </g>
    </svg>
    