<?xml version="1.0" encoding="UTF-8" standalone="no"?>
    <svg
    xmlns:svg="http://www.w3.org/2000/svg"
    xmlns="http://www.w3.org/2000/svg"
    width="482"
    height="316"
    >
        <g transform="scale(4, -4)   translate(52.17554087029063,-36.225338802065224)" stroke-width="0.25"  fill="none">
        <!-- hidden lines -->
        <g  stroke="rgb(160,160,160)" fill="none" stroke-dasharray="0.25,0.25" >
    			<path d="M-6.5734432719680065,-6.773092798444997 L-34.02858660347479,9.791713592601628 " />
			<path d="M-34.02858660347479,1.02084089562688 L-34.02858660347479,9.791713592601628 " />
			<path d="M-4.631468425104815,-16.71563802927447 L-34.02858660347479,1.020840895626879 " />
			<path d="M28.55923046378856,24.95446610509047 L28.55923046378856,33.72533880206522 " />
			<path d="M65.92974557329116,2.4073120054721047 L28.55923046378856,24.95446610509047 " />
			<path d="M-34.02858660347479,1.02084089562688 L28.559230463788566,24.954466105090475 " />
			<path d="M-34.02858660347479,9.791713592601628 L-19.99508030853341,15.158136257204413 " />
			<path d="M-33.882097784511686,19.162105619978227 L-34.06913824439137,19.08816274194608 L-34.25453685316441,19.01001112355744 L-34.43826569048227,18.927662534158586 L-34.62029708745786,18.841129375144163 L-34.800603630832356,18.75042467808963 L-34.97915816710355,18.65556210278873 L-35.15593380661505,18.556555935196364 L-35.33090392760578,18.453421085277213 L-35.50404218021911,18.346173084760295 L-35.67532249047105,18.234828084800014 L-35.84471906417689,18.119402853543797 L-36.01220639083573,17.99991477360691 L-36.17775924747223,17.876381839454673 L-36.34135270243513,17.748822654692574 L-36.502962119151874,17.617256429264657 L-36.66256315983873,17.48170297656052 L-36.82013178916605,17.342182710431537 L-36.97564427787782,17.198716642116594 L-37.12907720636527,17.05132637707787 L-37.28040746819374,16.900034111747132 L-37.429612273582435,16.744862630183043 L-37.57666915283648,16.585835300639957 L-37.72155595973078,16.42297607204877 L-37.86425087484515,16.256309470410244 L-38.004732408850245,16.08586059510155 L-38.14297940574379,15.911655115096353 L-38.27897104603654,15.733719265099156 L-38.4126868498877,15.552079841594471 L-38.54410668018905,15.366764198811351 L-38.67321074559756,15.177800244603963 L-38.79997960351584,14.985216436248743 L-38.924394163020196,14.789041776158845 L-39.046435687735595,14.589305807516498 L-39.166085798657306,14.386038609823894 L-39.28332647691876,14.179270794373329 L-39.39814006650503,13.969033499637254 L-39.510509276911854,13.755358386578942 L-39.620417185749474,13.538277633884471 L-39.72784724129107,13.317823933116694 L-39.83278326496547,13.094030483792073 L-39.935209453793476,12.866930988380885 L-40.0351103827678,12.636559647231808 L-40.13247100717601,12.40295115342145 L-40.22727666486618,12.166140687529692 L-40.319513078454996,11.926163912341641 L-40.409166357477844,11.683056967476935 L-40.49622300048067,11.43685646394726 L-40.58066989705325,11.187599478642847 L-40.66249432980359,10.935323548748842 L-40.741683976273094,10.680066666092342 L-40.818226910792276,10.421867271420973 L-40.89211160627676,10.160764248613836 L-40.96332693596315,9.896796918825752 L-41.03186217508477,9.63000503456564 L-41.09770700248669,9.360428773709936 L-41.16085150218011,9.088108733451945 L-41.22128616483562,8.813085924188053 L-41.27900188921533,8.535401763341723 L-41.333989983543454,8.255098069126179 L-41.38624216681524,7.972217054246725 L-41.43575057004407,7.686801319543692 L-41.482507737446554,7.398893847576881 L-41.52650662756524,7.108537996152558 L-41.56774061432914,6.815777491793948 L-41.606203488051506,6.520656423156137 L-41.64188945636503,6.223219234386528 L-41.67479314509415,5.923510718431688 L-41.70490959906438,5.621576010291703 L-41.73223428284852,5.317460580223022 L-41.756763081449705,5.011210226890784 L-41.77849230092109,4.702871070471721 L-41.79741866892214,4.3924895457086315 L-41.813539335211466,4.080112394917473 L-41.826851872076006,3.765786660948139 L-41.837354274696686,3.449559680099995 L-41.8450449614503,3.1314790749931714 L-41.849922774147714,2.811592747396803 L-41.85198697820827,2.4899488710151925 L-41.851237262770425,2.166595884233031 L-41.847673740738585,1.8415824828207388 L-41.84129694876605,1.5149576126010746 L-41.83210784717423,1.186770462078071 L-41.82010781980803,0.8570704550294295 L-41.80529867382744,0.5259072430634841 L-41.78768263943535,0.19333069814184434 L-41.76726236954177,-0.14060909493114337 L-41.74404093936422,-0.4758618460509698 L-41.718021845964664,-0.8123770673864659 L-41.689209007722866,-1.1501040809831071 L-41.657606763746294,-1.4889920263948984 L-41.62321987321664,-1.8289898683437906 L-41.58605351467313,-2.170046404405399 L-41.54611328523266,-2.5121102727198954 L-41.503405199746865,-2.8551299597269137 L-41.457935689896324,-3.199053807923322 L-41.40971160322198,-3.543830023642635 L-41.3587402020939,-3.8894066848549507 L-41.30502916261761,-4.235731748986221 L-41.24858657347808,-4.582753060755672 L-41.189420934721625,-4.930418360030201 L-41.12754115647583,-5.278675289694545 L-41.06295655760766,-5.627471403536082 L-40.99567686432017,-5.976754174143043 L-40.92571220868767,-6.32647100081494 L-40.853073127129974,-6.676569217484039 L-40.77777055882555,-7.026996100646666 L-40.699815844064226,-7.37769887730319 L-40.61922072253929,-7.728624732905433 L-40.535997331579594,-8.079720819310348 L-40.450158204321696,-8.430934262738758 L-40.361716267822416,-8.782212171737942 L-40.27068484111209,-9.133501645146918 L-40.17707763318873,-9.484749780063128 L-40.08090874095353,-9.835903679809434 L-39.98219264708794,-10.186910461900194 L-39.880944217872575,-10.53771726600512 L-39.777178700948454,-10.88827126190989 L-39.67091172302075,-11.238519657472157 L-39.56215928750547,-11.588409706571868 L-39.45093777211937,-11.93788871705462 L-39.337263926413556,-12.28690405866692 L-39.221154869251066,-12.635403170982103 L-39.10262808622883,-12.983333571315734 L-38.981701427044406,-13.330642862629317 L-38.85839310280785,-13.677278741421079 L-38.73272168329923,-14.023189005602692 L-38.60470609417208,-14.368321562360736 L-38.474365614103235,-14.712624436001661 L-38.34171987188955,-15.056045775779143 L-38.20678884349192,-15.398533863702614 L-38.06959284902689,-15.740037122325802 L-37.930152549706584,-16.08050412251411 L-37.78848894472717,-16.419883591189645 L-37.644623368106494,-16.75812441905275 L-37.4985774854712,-17.095175668278905 L-37.35037329079403,-17.430986580189746 L-37.20003310308155,-17.765506582897146 L-37.04757956301303,-18.098685298919165 L-36.893035629530864,-18.4304725527667 L-36.73642457638295,-18.76081837849972 L-36.577769988617845,-19.08967302725199 L-36.41709575903288,-19.41698697472302 L-36.25442608457604,-19.742710928636278 L-36.089785462701926,-20.06679583616242 L-35.923198687682614,-20.38919289130645 L-35.75469084687367,-20.70985354225771 L-35.5842873169361,-21.028729498701676 L-35.4120137600147,-21.34577273909221 L-35.2378961198735,-21.660935517883495 L-35.061960617988625,-21.9741703727203 L-34.88423374959953,-22.285430131585656 L-34.70474227971886,-22.59466791990478 L-34.52351323910175,-22.90183716760422 L-34.340573920175125,-23.206891616125127 L-34.15595187292749,-23.509785325389636 L-33.969674900760076,-23.810472680719265 L-33.78177105629971,-24.108908399704312 L-33.5922686371742,-24.405047539023222 L-33.401196181750834,-24.698845501210908 L-33.20858246483857,-24.990258041374936 L-33.014456493354686,-25.27924127385866 L-32.81884750195643,-25.565751678850233 L-32.62178494863841,-25.849746108936536 L-32.42329851029629,-26.131181795600988 L-32.22341807825762,-26.410016355664403 L-32.02217375378022,-26.686207797667656 L-31.81959584351914,-26.959714528195505 L-31.61571485496251,-27.23049535814036 L-31.410561491837278,-27.498509508905244 L-31.204166649485327,-27.76371661854489 L-30.996561410210724,-28.026076747844087 L-30.787777038598875,-28.285550386332403 L-30.577844976808173,-28.5420984582343 L-30.36679683983494,-28.795682328353813 L-30.154664410752304,-29.04626380789285 L-29.9414796359238,-29.293805160202297 L-29.72727462019236,-29.538269106465044 L-29.51208162204545,-29.779618831309975 L-29.295933048757046,-30.0178179883563 L-29.078861451507226,-30.25283070568711 L-28.86089952048009,-30.48462159125163 L-28.64208007994072,-30.713155738195105 L-28.42243608329197,-30.9383987301156 L-28.202000608111838,-31.160316646247047 L-27.980806851172055,-31.37887606656755 L-27.758888123438794,-31.594044076832347 L-27.536277845056183,-31.805788273530524 L-27.313009540313317,-32.014076768764916 L-27.089116832595643,-32.2188781950543 L-26.864633439321402,-32.420161710057194 L-26.639593166863907,-32.617897001216605 L-26.41402990546042,-32.812054290325015 L-26.187977624108434,-33.002604338008865 L-25.961470365450026,-33.18951844813186 L-25.73454224064519,-33.37276847211653 L-25.507227424234824,-33.55232681318333 L-25.279560148994136,-33.728166430506555 L-25.051574700777362,-33.900260843286624 L-24.823305413354394,-34.06858413473799 L-24.5947866632403,-34.23311095599209 L-24.366052864518267,-34.39381652991483 L-24.137138463657042,-34.5506766548379 L-23.908077934323387,-34.703667708203454 L-23.67890577219046,-34.85276665012161 L-23.449656489742924,-34.99795102684014 L-23.220364611079468,-35.13919897412594 L-22.991064666713612,-35.2764892205577 L-22.761791188373557,-35.4098010907293 L-22.532578703801796,-35.53911450836346 L-22.303461731555394,-35.66440999933512 L-22.07447477580763,-35.78566869460423 L-21.84565232115174,-35.902872333057296 L-21.617028827407726,-36.01600326425748 L-21.38863872443281,-36.12504445110266 L-21.160516406936402,-36.2299794723912 L-20.93269622930043,-36.330792525294875 L-20.70521250040565,-36.42746842773872 L-20.478099478464884,-36.51999262068745 L-20.251391365863853,-36.60835117033791 L-20.02512230401041,-36.69253077021756 L-19.799326368192993,-36.77251874318828 L-19.574037562448993,-36.84830304335556 L-19.34928981444386,-36.91987225788256 L-19.125116970361788,-36.98721560870881 L-18.901552789808505,-37.050322954173396 L-18.67863094072726,-37.10918479054221 L-18.456384994328577,-37.16379225343921 L-18.23484842003448,-37.21413711918135 L-18.01405458043819,-37.260211806017026 L-17.79403672627981,-37.30200937526788 L-17.57482799143888,-37.33952353237372 L-17.356461387944556,-37.37274862784047 L-17.138969801004105,-37.401679658090984 L-16.92238598405053,-37.42631226621852 L-16.706742553810003,-37.44664274264287 L-16.49207198538992,-37.4626680256691 L-16.278406607388263,-37.47438570194851 L-16.065778597025037,-37.48179400684217 L-15.854219975296498,-37.484891824686606 L-15.6437626021529,-37.483678688961845 L-15.43443817170052,-37.47815478236166 L-15.226278207428626,-37.46832093676608 L-15.019314057462164,-37.45417863311606 L-14.813576889840846,-37.43573000119053 L-14.609097687825354,-37.41297781928558 L-14.40590724523138,-37.38592551379613 L-14.204036161792176,-37.354577158699875 L-14.003514838550384,-37.31893747494378 L-13.8043734732797,-37.279011829733136 L-13.606642055937229,-37.23480623572325 L-13.410350364147122,-37.18632735011398 L-13.21552795871614,-37.13358247364717 L-13.022204179181925,-37.07657954950721 L-12.830408139394574,-37.01532716212481 L-12.640168723132202,-36.94983453588419 L-12.451514579751205,-36.880111533734016 " />

        </g>

        <!-- solid lines -->
        <g  stroke="rgb(0,0,0)" fill="none">
    			<path d="M3.3419285060278057,-21.52631320399149 L3.3419285060278057,-12.755440507016742 " />
			<path d="M3.3419285060278057,-12.75544050701674 L-6.5734432719680065,-6.773092798444997 " />
			<path d="M3.3419285060278057,-21.52631320399149 L-4.631468425104815,-16.71563802927447 " />
			<path d="M65.92974557329116,2.4073120054721047 L65.92974557329116,11.178184702446853 " />
			<path d="M65.92974557329116,11.178184702446853 L28.55923046378856,33.725338802065224 " />
			<path d="M3.3419285060278057,-21.52631320399149 L65.92974557329117,2.4073120054721073 " />
			<path d="M3.3419285060278057,-12.75544050701674 L65.92974557329117,11.178184702446856 " />
			<path d="M-19.99508030853341,15.158136257204413 L28.559230463788566,33.725338802065224 " />
			<path d="M-23.1668061821314,17.45361513404636 L-23.345109287585892,17.55999464228082 L-23.523396156689394,17.663968426188788 L-23.701650554569376,17.765527017876536 L-23.87985624931013,17.864661169378692 L-24.05799701343094,17.9613618535004 L-24.236056625363652,18.055620264639266 L-24.414018870929873,18.14742781958725 L-24.59186754481746,18.236776158312253 L-24.7695864520561,18.32365714471934 L-24.94715940949209,18.408062867391685 L-25.124570247262003,18.489985640310927 L-25.301802810265077,18.569418003557097 L-25.478840959634326,18.64635272398793 L-25.655668574206157,18.720782795897485 L-25.832269551988325,18.79270144165408 L-26.008627811626226,18.86210211231751 L-26.184727293867294,18.92897848823538 L-26.360551963023315,18.99332447961855 L-26.536085808430677,19.05513422709572 L-26.71131284590829,19.114402102246927 L-26.886217119213093,19.171122708116116 L-27.06078270149306,19.225290879702584 L-27.234993696737526,19.27690168443128 L-27.40883424122466,19.325950422602013 L-27.582288504966012,19.37243262781736 L-27.75534069314802,19.41634406738941 L-27.92797504757026,19.45768074272518 L-28.10017584808041,19.496438889690737 L-28.271927414005773,19.532614978953944 L-28.443214105581106,19.566205716305866 L-28.614020325372817,19.597208042960737 L-28.78433051969927,19.625619135834484 L-28.954129180047083,19.65143640780179 L-29.123400844483356,19.674657507931713 L-29.292130099063666,19.695280321701716 L-29.46030157923564,19.713302971190267 L-29.627899971238058,19.728723815247797 L-29.794910013495354,19.741541449646178 L-29.961316498007285,19.751754707206565 L-30.12710427173382,19.75936265790572 L-30.292258237975002,19.764364608960634 L-30.456763357745615,19.766760104891688 L-30.620604651144667,19.766548927564067 L-30.783767198719467,19.763731096207678 L-30.946236142824155,19.758306867415342 L-31.107996688972676,19.750276735119485 L-31.269034107186002,19.73964143054709 L-31.42933373333341,19.7264019221532 L-31.588880970467812,19.710559415532657 L-31.747661290154966,19.692115353310356 L-31.905660233796407,19.67107141500987 L-32.06286341394609,19.6474295169005 L-32.219256515620536,19.62119181182281 L-32.3748252976023,19.592360688992542 L-32.52955559373683,19.560938773783114 L-32.68343331422244,19.526928927486487 L-32.83644444689327,19.490334247052665 L-32.98857505849531,19.451158064807665 L-33.139811295955155,19.40940394815008 L-33.290139387641474,19.36507569922619 L-33.43954564461902,19.318177354583824 L-33.58801646189521,19.268713184804696 L-33.73553831965892,19.216687694115613 L-33.882097784511544,19.162105619978284 " />
			<path d="M-12.451514579751137,-36.88011153373399 L-12.300707116857776,-36.820873078271326 L-12.1509616642717,-36.75890173825631 L-12.00229285753168,-36.694203570526945 L-11.854715226949294,-36.62678489843079 L-11.708243196188812,-36.556652311206925 L-11.562891080857472,-36.483812663341965 L-11.418673087106324,-36.40827307390009 L-11.27560331024178,-36.330040925827326 L-11.133695733347999,-36.24912386522986 L-10.99296422592023,-36.16552980062685 L-10.853422542509257,-36.07926690217739 L-10.715084321377093,-35.99034360088204 L-10.57796308316402,-35.8987685877588 L-10.442072229567135,-35.80455081299368 L-10.307425042030527,-35.707699485065945 L-10.174034680447203,-35.60822406984811 L-10.041914181872869,-35.50613428968081 L-9.911076459251749,-35.4014401224225 L-9.781534300154552,-35.29415180047437 L-9.653300365528633,-35.18427980978017 L-9.526387188460562,-35.07183488880143 L-9.400807172951202,-34.956828027467864 L-9.276572592703385,-34.839270466103294 L-9.153695589922325,-34.71917369432705 L-9.032188174128894,-34.59654944993102 L-8.912062220985845,-34.47140971773244 L-8.793329471137149,-34.343766728402585 L-8.676001529060485,-34.213632957271315 L-8.56008986193309,-34.08102112310785 L-8.44560579851099,-33.94594418687766 L-8.33256052802176,-33.8084153504757 L-8.220965099070959,-33.668448055436144 L-8.110830418562253,-33.52605598161862 L-8.002167250631437,-33.38125304587123 L-7.894986215594383,-33.234053400670355 L-7.789297788909053,-33.08447143273742 L-7.6851123001516655,-32.932521761632856 L-7.582439932007125,-32.77821923832716 L-7.481290719273806,-32.62157894374951 L-7.381674547882799,-32.46261618731374 L-7.28360115393167,-32.30134650542208 L-7.1870801227329295,-32.13778565994669 L-7.092120887877172,-31.971949636689168 L-6.998732730311097,-31.80385464381815 L-6.906924777430405,-31.633517110285176 L-6.816706002187736,-31.460953684219014 L-6.728085222215672,-31.286181231298492 L-6.641071098964954,-31.109216833104178 L-6.555672136857929,-30.930077785448823 L-6.471896682457384,-30.74878159668699 L-6.389752923650754,-30.56534598600382 L-6.309248888849893,-30.379788881683233 L-6.230392446206395,-30.192128419355726 L-6.153191302842615,-30.0023829402258 L-6.077653004098362,-29.810570989279427 L-6.003784932793494,-29.616711313471484 L-5.9315943085063125,-29.420822859893534 L-5.861088186867974,-29.22292477392199 L-5.7922734588728915,-29.023036397346928 L-5.725156850205224,-28.821177266481705 L-5.659744920581552,-28.61736711025354 L-5.596044063109755,-28.41162584827528 L-5.534060503664151,-28.203973588898563 L-5.473800300277041,-27.994430627248484 L-5.415269342546587,-27.783017443240034 L-5.358473351061193,-27.569754699576436 L-5.303417876840424,-27.354663239729753 L-5.2501083007924265,-27.137764085903605 L-5.198549833188061,-26.919078436978637 L-5.1487475131516405,-26.698627666440565 L-5.10070620816844,-26.476433320291243 L-5.054430613608968,-26.25251711494282 L-5.009925252270051,-26.026900935095284 L-4.9671944739328,-25.799606831597536 L-4.9262424549374835,-25.570657019292184 L-4.887073197775333,-25.340073874844407 L-4.849690530697373,-25.10787993455491 L-4.814098107340243,-24.874097892157344 L-4.748297731137754,-24.401861049814023 L-4.689697792831847,-23.923547961680697 L-4.6383212011839845,-23.43934561704021 L-4.594188041097265,-22.949443307491343 L-4.557315565764537,-22.454032552948128 L-4.527718189923537,-21.953307026768037 L-4.505407484221649,-21.447462480038325 L-4.490392170692537,-20.93669666505003 L-4.482678119346417,-20.421209257989773 L-4.48226834587523,-19.90120178087932 L-4.489163010473725,-19.376877522793603 L-4.503359417776849,-18.84844146038793 L-4.5248520179134175,-18.316100177765453 L-4.553632408675789,-17.780061785716214 L-4.589689338804561,-17.240535840359406 L-4.633008712387088,-16.697733261220545 L-4.683573594368081,-16.151866248775654 L-4.741364217170069,-15.603148201494733 L-4.806357988421286,-15.051793632416803 L-4.878529499787774,-14.498018085289296 L-4.957850536906424,-13.942038050304479 L-5.0442900904149255,-13.38407087946587 L-5.137814368074434,-12.824334701617754 L-5.238386807980113,-12.263048337171021 L-5.345968092854481,-11.70043121255862 L-5.460516165417886,-11.136703274454073 L-5.5819862448301905,-10.57208490378666 L-5.710330844197138,-10.006796829586882 L-5.8454997891346565,-9.44106004269571 L-5.987440237383765,-8.875095709371568 L-6.136096699468467,-8.309125084828718 L-6.291411060388512,-7.743369426740884 L-6.4533226023385915,-7.178049908743898 L-6.621768028445036,-6.6133875339712045 L-6.7966814875107815,-6.049603048656024 L-6.977994599758901,-5.486916855833945 L-7.1656364835646364,-4.925548929179677 L-7.3595337831655065,-4.36571872701167 L-7.559610697338641,-3.807645106498194 L-7.765789009034119,-3.2515462380984346 L-7.97798811595273,-2.6976395202720367 L-8.196125062056261,-2.14614149449047 L-8.420114569997873,-1.5972677605834003 L-8.649869074460007,-1.051232892453192 L-8.88529875638673,-0.5082503541904781 L-9.126311578097125,0.03146758337639888 L-9.372813319266042,0.5677099256654703 L-9.624707613758119,1.100267036826283 L-9.881895987300632,1.628930721693857 L-10.144277895980593,2.153494307179498 L-10.411750765550822,2.6737527230664853 L-10.684210031529805,3.1895025821791396 L-10.961549180079606,3.700542259894016 L-11.243659789645857,4.206671972962015 L-11.530431573343526,4.707693857610595 L-11.821752422071881,5.203412046895654 L-12.117508448341901,5.693632747272744 L-12.417584030798823,6.178164314357739 L-12.72186185942259,6.6568173278473015 L-13.030222981388434,7.129404665569906 L-13.342546847569682,7.595741576638419 L-13.658711359664611,8.055645753675678 L-13.97859291792895,8.508937404084792 L-14.302066469495323,8.955439320336366 L-14.62900555726079,9.394976949245093 L-14.95928236932333,9.827378460208697 L-15.292767788947994,10.252474812382518 L-15.629331445043123,10.670099820763452 L-15.96884176312697,11.080090221157503 L-16.311166016764762,11.482285734005442 L-16.65617037945609,11.87652912704168 L-17.003719976952343,12.262666276761843 L-17.353678939983787,12.640546228675037 L-17.705910457375616,13.010021256317247 L-18.060276829532185,13.37094691900275 L-18.416639522268586,13.723182118290994 L-18.77485922096851,14.066589153146948 L-19.134795885047204,14.401033773773227 L-19.496308802698213,14.726385234093021 L-19.859256645902533,15.042516342863296 L-20.223497525678667,15.349303513398306 L-20.406058374232785,15.49915549852849 L-20.588889047552,15.646626811883936 L-20.771971676476607,15.79170304019142 L-20.955288367221744,15.934370004264009 L-21.13882120312625,16.074613760386903 L-21.32255224640377,16.212420601680236 L-21.506463539895954,16.347777059438734 L-21.69053710882747,16.48066990444807 L-21.874754962562832,16.61108614827787 L-22.059099096364708,16.739013044551143 L-22.24355149315365,16.86443809019005 L-22.428094125269,16.9873490266379 L-22.612708956230847,17.10773384105729 L-22.797377942502862,17.225580767504162 L-22.982083035255776,17.34087828807776 L-23.166806182131232,17.45361513404626 " />
			<path d="M-30.99028331553932,14.461911982863413 L-31.16858642099381,14.568291491097874 L-31.346873290097314,14.672265275005842 L-31.525127687977296,14.77382386669359 L-31.70333338271805,14.872958018195746 L-31.88147414683886,14.969658702317453 L-32.05953375877157,15.063917113456316 L-32.23749600433779,15.155724668404304 L-32.41534467822538,15.245073007129307 L-32.59306358546402,15.331953993536395 L-32.77063654290001,15.416359716208735 L-32.94804738066992,15.49828248912798 L-33.125279943673,15.57771485237415 L-33.302318093042246,15.654649572804981 L-33.47914570761408,15.729079644714535 L-33.655746685396245,15.800998290471131 L-33.832104945034146,15.870398961134558 L-34.00820442727522,15.93727533705243 L-34.18402909643124,16.001621328435604 L-34.3595629418386,16.06343107591277 L-34.53478997931621,16.122698951063978 L-34.70969425262101,16.17941955693317 L-34.88425983490098,16.233587728519634 L-35.058470830145446,16.285198533248334 L-35.23231137463258,16.334247271419063 L-35.40576563837393,16.38072947663441 L-35.57881782655594,16.424640916206464 L-35.75145218097818,16.465977591542234 L-35.92365298148833,16.504735738507787 L-36.09540454741369,16.540911827770994 L-36.266691238989026,16.57450256512292 L-36.43749745878073,16.60550489177779 L-36.60780765310719,16.633915984651537 L-36.777606313455,16.659733256618843 L-36.946877977891276,16.682954356748763 L-37.11560723247158,16.70357717051877 L-37.28377871264356,16.721599820007317 L-37.45137710464598,16.737020664064847 L-37.618387146903274,16.749838298463228 L-37.784793631415205,16.76005155602362 L-37.95058140514174,16.76765950672277 L-38.11573537138292,16.772661457777684 L-38.280240491153535,16.775056953708738 L-38.44408178455259,16.77484577638112 L-38.60724433212739,16.772027945024732 L-38.769713276232075,16.766603716232396 L-38.931473822380596,16.758573583936535 L-39.09251124059392,16.747938279364142 L-39.25281086674133,16.734698770970255 L-39.41235810387573,16.71885626434971 L-39.571138423562886,16.70041220212741 L-39.72913736720433,16.67936826382692 L-39.88634054735401,16.655726365717552 L-40.042733649028456,16.62948866063986 L-40.19830243101022,16.600657537809596 L-40.35303272714475,16.569235622600168 L-40.50691044763036,16.53522577630354 L-40.65992158030119,16.49863109586972 L-40.81205219190323,16.459454913624718 L-40.963288429363075,16.41770079696713 L-41.113616521049394,16.373372548043243 L-41.26302277802694,16.326474203400874 L-41.41149359530313,16.27701003362175 L-41.55901545306684,16.224984542932663 L-41.70557491791946,16.170402468795334 " />
			<path d="M-41.705574917919606,16.17040246879528 L-41.89261537779929,16.09645959076313 L-42.07801398657233,16.018307972374494 L-42.26174282389019,15.935959382975636 L-42.44377422086578,15.849426223961213 L-42.624080764240276,15.758721526906683 L-42.80263530051147,15.663858951605782 L-42.97941094002297,15.564852784013418 L-43.1543810610137,15.461717934094267 L-43.32751931362703,15.354469933577349 L-43.49879962387897,15.243124933617064 L-43.66819619758481,15.12769970236085 L-43.83568352424365,15.008211622423964 L-44.00123638088015,14.884678688271723 L-44.16482983584305,14.757119503509628 L-44.326439252559794,14.62555327808171 L-44.48604029324665,14.489999825377573 L-44.64360892257397,14.35047955924859 L-44.79912141128574,14.207013490933644 L-44.95255433977319,14.05962322589492 L-45.103884601601656,13.908330960564186 L-45.253089406990355,13.753159479000093 L-45.4001462862444,13.59413214945701 L-45.5450330931387,13.431272920865819 L-45.68772800825307,13.264606319227294 L-45.828209542258165,13.094157443918604 L-45.96645653915171,12.919951963913405 L-46.10244817944446,12.742016113916208 L-46.23616398329562,12.560376690411523 L-46.36758381359697,12.375061047628403 L-46.49668787900548,12.186097093421015 L-46.62345673692376,11.993513285065795 L-46.747871296428116,11.797338624975897 L-46.869912821143515,11.59760265633355 L-46.989562932065226,11.394335458640946 L-47.10680361032668,11.18756764319038 L-47.22161719991295,10.977330348454306 L-47.333986410319774,10.763655235395994 L-47.443894319157394,10.546574482701523 L-47.55132437469899,10.326120781933746 L-47.65626039837339,10.102327332609125 L-47.758686587201396,9.875227837197937 L-47.85858751617572,9.64485649604886 L-47.95594814058393,9.411248002238501 L-48.0507537982741,9.174437536346744 L-48.142990211862916,8.934460761158693 L-48.23264349088576,8.691353816293987 L-48.31970013388859,8.445153312764312 L-48.40414703046117,8.195896327459899 L-48.48597146321151,7.943620397565894 L-48.565161109681014,7.688363514909394 L-48.641704044200196,7.430164120238025 L-48.71558873968468,7.1690610974308875 L-48.78680406937107,6.9050937676428035 L-48.85533930849269,6.638301883382692 L-48.92118413589461,6.368725622526988 L-48.98432863558803,6.096405582268996 L-49.04476329824354,5.821382773005105 L-49.10247902262325,5.543698612158774 L-49.15746711695137,5.263394917943231 L-49.209719300223156,4.980513903063777 L-49.25922770345199,4.695098168360744 L-49.30598487085447,4.407190696393933 L-49.34998376097316,4.11683484496961 L-49.39121774773706,3.8240743406110003 L-49.429680621459426,3.5289532719731884 L-49.46536658977295,3.23151608320358 L-49.49827027850207,2.9318075672487396 L-49.5283867324723,2.6298728591087546 L-49.55571141625644,2.325757429040074 L-49.580240214857625,2.0195070757078355 L-49.60196943432901,1.7111679192887728 L-49.62089580233006,1.4007863945256833 L-49.637016468619386,1.0884092437345245 L-49.650329005483925,0.774083509765191 L-49.660831408104606,0.45785652891704665 L-49.66852209485822,0.1397759238102232 L-49.673399907555634,-0.18011040378614496 L-49.675464111616186,-0.5017542801677557 L-49.674714396178345,-0.8251072669499173 L-49.671150874146505,-1.1501206683622094 L-49.66477408217397,-1.4767455385818735 L-49.65558498058215,-1.8049326891048771 L-49.64358495321595,-2.1346326961535187 L-49.62877580723536,-2.465795908119464 L-49.61115977284327,-2.798372453041104 L-49.59073950294969,-3.1323122461140915 L-49.56751807277214,-3.467564997233918 L-49.541498979372584,-3.804080218569414 L-49.512686141130786,-4.141807232166055 L-49.481083897154214,-4.4806951775778465 L-49.44669700662456,-4.820693019526739 L-49.40953064808105,-5.161749555588347 L-49.36959041864058,-5.503813423902844 L-49.326882333154785,-5.846833110909862 L-49.281412823304244,-6.19075695910627 L-49.2331887366299,-6.535533174825583 L-49.18221733550182,-6.881109836037899 L-49.12850629602553,-7.227434900169169 L-49.072063706886,-7.57445621193862 L-49.012898068129545,-7.922121511213149 L-48.95101828988375,-8.270378440877494 L-48.88643369101558,-8.61917455471903 L-48.81915399772809,-8.968457325325991 L-48.74918934209559,-9.318174151997887 L-48.676550260537894,-9.668272368666987 L-48.60124769223347,-10.018699251829613 L-48.523292977472146,-10.369402028486139 L-48.44269785594721,-10.72032788408838 L-48.359474464987514,-11.071423970493296 L-48.273635337729615,-11.422637413921706 L-48.185193401230336,-11.773915322920892 L-48.09416197452001,-12.125204796329868 L-48.00055476659665,-12.476452931246076 L-47.90438587436145,-12.827606830992382 L-47.80566978049586,-13.17861361308314 L-47.704421351280494,-13.529420417188069 L-47.600655834356374,-13.879974413092839 L-47.49438885642867,-14.230222808655107 L-47.38563642091339,-14.580112857754816 L-47.27441490552729,-14.929591868237567 L-47.160741059821476,-15.278607209849868 L-47.044632002658986,-15.627106322165051 L-46.92610521963675,-15.975036722498682 L-46.805178560452326,-16.322346013812265 L-46.68187023621577,-16.668981892604027 L-46.55619881670715,-17.01489215678564 L-46.42818322758,-17.360024713543684 L-46.297842747511154,-17.704327587184608 L-46.16519700529747,-18.047748926962093 L-46.03026597689984,-18.39023701488556 L-45.89306998243481,-18.73174027350875 L-45.753629683114504,-19.07220727369706 L-45.61196607813509,-19.41158674237259 L-45.468100501514414,-19.749827570235695 L-45.32205461887912,-20.08687881946185 L-45.17385042420195,-20.422689731372692 L-45.02351023648947,-20.757209734080096 L-44.87105669642095,-21.090388450102115 L-44.716512762938784,-21.422175703949648 L-44.55990170979087,-21.75252152968267 L-44.401247122025765,-22.081376178434937 L-44.2405728924408,-22.40869012590597 L-44.07790321798396,-22.734414079819228 L-43.913262596109846,-23.05849898734537 L-43.746675821090534,-23.380896042489397 L-43.57816798028159,-23.70155669344066 L-43.40776445034402,-24.020432649884626 L-43.23549089342262,-24.337475890275158 L-43.06137325328142,-24.65263866906644 L-42.885437751396545,-24.965873523903248 L-42.70771088300745,-25.277133282768602 L-42.52821941312678,-25.58637107108773 L-42.34699037250967,-25.893540318787167 L-42.164051053583044,-26.198594767308077 L-41.97942900633541,-26.501488476572586 L-41.793152034167996,-26.80217583190221 L-41.60524818970763,-27.10061155088726 L-41.41574577058212,-27.39675069020617 L-41.22467331515875,-27.690548652393858 L-41.03205959824649,-27.981961192557886 L-40.837933626762606,-28.27094442504161 L-40.642324635364346,-28.557454830033183 L-40.44526208204633,-28.841449260119482 L-40.24677564370421,-29.122884946783937 L-40.04689521166554,-29.40171950684735 L-39.84565088718814,-29.677910948850606 L-39.64307297692706,-29.95141767937845 L-39.439191988370425,-30.222198509323306 L-39.2340386252452,-30.490212660088194 L-39.02764378289325,-30.755419769727837 L-38.820038543618644,-31.017779899027033 L-38.611254172006795,-31.27725353751535 L-38.40132211021609,-31.533801609417246 L-38.19027397324286,-31.78738547953676 L-37.97814154416022,-32.037966959075796 L-37.76495676933172,-32.28550831138524 L-37.55075175360028,-32.52997225764799 L-37.33555875545337,-32.77132198249292 L-37.11941018216496,-33.009521139539245 L-36.90233858491515,-33.244533856870056 L-36.68437665388801,-33.476324742434585 L-36.46555721334864,-33.70485888937805 L-36.24591321669989,-33.930101881298555 L-36.02547774151976,-34.15201979743 L-35.804283984579975,-34.3705792177505 L-35.582365256846714,-34.58574722801529 L-35.3597549784641,-34.79749142471347 L-35.13648667372124,-35.00577991994787 L-34.91259396600356,-35.21058134623725 L-34.68811057272932,-35.41186486124014 L-34.46307030027182,-35.60960015239955 L-34.237507038868344,-35.80375744150796 L-34.011454757516354,-35.99430748919181 L-33.784947498857946,-36.1812215993148 L-33.55801937405311,-36.36447162329948 L-33.33070455764275,-36.544029964366274 L-33.103037282402056,-36.71986958168951 L-32.875051834185285,-36.89196399446957 L-32.64678254676231,-37.060287285920936 L-32.41826379664822,-37.224814107175035 L-32.189529997926186,-37.385519681097776 L-31.96061559706496,-37.54237980602085 L-31.731555067731307,-37.6953708593864 L-31.50238290559838,-37.844469801304555 L-31.273133623150844,-37.98965417802309 L-31.043841744487388,-38.13090212530889 L-30.814541800121532,-38.26819237174065 L-30.585268321781477,-38.40150424191225 L-30.356055837209716,-38.53081765954641 L-30.126938864963314,-38.65611315051807 L-29.89795190921555,-38.77737184578718 L-29.66912945455966,-38.89457548424024 L-29.440505960815646,-39.007706415440424 L-29.21211585784073,-39.11674760228561 L-28.983993540344322,-39.221682623574154 L-28.75617336270835,-39.32249567647782 L-28.52868963381357,-39.41917157892166 L-28.301576611872804,-39.51169577187039 L-28.074868499271773,-39.60005432152086 L-27.84859943741833,-39.684233921400505 L-27.622803501600913,-39.764221894371225 L-27.397514695856913,-39.8400061945385 L-27.17276694785178,-39.911575409065506 L-26.948594103769707,-39.978918759891755 L-26.725029923216425,-40.04202610535634 L-26.50210807413518,-40.10088794172516 L-26.279862127736497,-40.15549540462216 L-26.0583255534424,-40.2058402703643 L-25.83753171384611,-40.25191495719997 L-25.61751385968773,-40.293712526450825 L-25.3983051248468,-40.331226683556665 L-25.179938521352476,-40.364451779023426 L-24.962446934412025,-40.39338280927393 L-24.74586311745845,-40.41801541740146 L-24.530219687217922,-40.438345893825826 L-24.31554911879784,-40.45437117685205 L-24.101883740796183,-40.46608885313147 L-23.889255730432957,-40.473497158025125 L-23.677697108704418,-40.47659497586956 L-23.46723973556082,-40.47538184014479 L-23.25791530510844,-40.46985793354462 L-23.049755340836548,-40.46002408794902 L-22.842791190870084,-40.445881784299004 L-22.637054023248766,-40.427433152373474 L-22.432574821233274,-40.404680970468526 L-22.2293843786393,-40.37762866497908 L-22.027513295200094,-40.34628030988282 L-21.826991971958304,-40.31064062612673 L-21.62785060668762,-40.27071498091608 L-21.43011918934515,-40.226509386906194 L-21.23382749755504,-40.178030501296924 L-21.039005092124057,-40.12528562483011 L-20.845681312589846,-40.06828270069016 L-20.653885272802494,-40.00703031330776 L-20.463645856540122,-39.94153768706714 L-20.274991713159125,-39.87181468491696 " />
			<path d="M-20.274991713159057,-39.871814684916934 L-20.124184250265696,-39.81257622945428 L-19.974438797679618,-39.75060488943926 L-19.825769990939598,-39.6859067217099 L-19.678192360357215,-39.61848804961374 L-19.53172032959673,-39.54835546238987 L-19.386368214265392,-39.47551581452491 L-19.242150220514244,-39.39997622508304 L-19.099080443649697,-39.32174407701027 L-18.95717286675592,-39.24082701641281 L-18.816441359328152,-39.157232951809796 L-18.676899675917177,-39.070970053360334 L-18.53856145478501,-38.98204675206499 L-18.40144021657194,-38.890471738941756 L-18.265549362975054,-38.79625396417663 L-18.130902175438447,-38.69940263624889 L-17.997511813855123,-38.59992722103106 L-17.86539131528079,-38.497837440863755 L-17.73455359265967,-38.393143273605446 L-17.605011433562474,-38.28585495165731 L-17.476777498936553,-38.17598296096312 L-17.34986432186848,-38.06353803998438 L-17.224284306359124,-37.94853117865081 L-17.100049726111305,-37.83097361728624 L-16.977172723330245,-37.71087684550999 L-16.855665307536814,-37.588252601113965 L-16.735539354393765,-37.46311286891539 L-16.61680660454507,-37.33546987958553 L-16.499478662468405,-37.20533610845426 L-16.38356699534101,-37.0727242742908 L-16.26908293191891,-36.93764733806061 L-16.15603766142968,-36.800118501658645 L-16.04444223247888,-36.66015120661909 L-15.934307551970173,-36.51775913280157 L-15.825644384039357,-36.37295619705418 L-15.718463349002302,-36.22575655185331 L-15.612774922316973,-36.07617458392037 L-15.508589433559585,-35.9242249128158 L-15.405917065415045,-35.769922389510114 L-15.304767852681726,-35.61328209493246 L-15.205151681290719,-35.45431933849669 L-15.10707828733959,-35.293049656605035 L-15.01055725614085,-35.12948881112963 L-14.915598021285092,-34.96365278787212 L-14.822209863719017,-34.795557795001095 L-14.730401910838324,-34.62522026146812 L-14.640183135595656,-34.45265683540196 L-14.551562355623592,-34.277884382481446 L-14.464548232372874,-34.100919984287124 L-14.379149270265849,-33.92178093663178 L-14.295373815865304,-33.740484747869935 L-14.213230057058674,-33.557049137186766 L-14.132726022257813,-33.371492032866186 L-14.053869579614314,-33.18383157053867 L-13.976668436250534,-32.99408609140875 L-13.901130137506282,-32.80227414046237 L-13.827262066201413,-32.60841446465443 L-13.755071441914232,-32.41252601107648 L-13.684565320275894,-32.214627925104935 L-13.615750592280811,-32.014739548529874 L-13.548633983613144,-31.812880417664655 L-13.483222053989472,-31.609070261436486 L-13.419521196517675,-31.40332899945823 L-13.35753763707207,-31.195676740081513 L-13.297277433684961,-30.986133778431434 L-13.238746475954507,-30.77472059442298 L-13.181950484469112,-30.561457850759385 L-13.126895010248344,-30.3463663909127 L-13.073585434200346,-30.12946723708655 L-13.02202696659598,-29.910781588161583 L-12.97222464655956,-29.69033081762351 L-12.92418334157636,-29.46813647147419 L-12.877907747016888,-29.24422026612577 L-12.83340238567797,-29.018604086278234 L-12.79067160734072,-28.791309982780483 L-12.749719588345403,-28.56236017047513 L-12.710550331183253,-28.331777026027353 L-12.673167664105293,-28.09958308573786 L-12.637575240748163,-27.865801043340294 L-12.571774864545674,-27.393564200996973 L-12.513174926239767,-26.915251112863643 L-12.461798334591904,-26.431048768223157 L-12.417665174505185,-25.94114645867429 L-12.380792699172456,-25.445735704131074 L-12.351195323331456,-24.945010177950987 L-12.32888461762957,-24.43916563122127 L-12.313869304100457,-23.928399816232975 L-12.306155252754337,-23.41291240917272 L-12.30574547928315,-22.892904932062265 L-12.312640143881644,-22.368580673976552 L-12.326836551184769,-21.840144611570878 L-12.348329151321337,-21.307803328948403 L-12.377109542083709,-20.771764936899164 L-12.413166472212481,-20.232238991542356 L-12.456485845795008,-19.68943641240349 L-12.507050727776,-19.1435693999586 L-12.56484135057799,-18.59485135267768 L-12.629835121829206,-18.04349678359975 L-12.702006633195694,-17.489721236472242 L-12.781327670314344,-16.93374120148743 L-12.867767223822845,-16.37577403064882 L-12.961291501482354,-15.816037852800703 L-13.061863941388033,-15.254751488353968 L-13.1694452262624,-14.692134363741568 L-13.283993298825806,-14.12840642563702 L-13.40546337823811,-13.563788054969606 L-13.533807977605058,-12.998499980769829 L-13.668976922542576,-12.432763193878658 L-13.810917370791685,-11.866798860554516 L-13.959573832876387,-11.300828236011666 L-14.114888193796432,-10.735072577923832 L-14.276799735746511,-10.169753059926846 L-14.445245161852956,-9.605090685154153 L-14.620158620918701,-9.041306199838973 L-14.80147173316682,-8.478620007016893 L-14.989113616972556,-7.917252080362625 L-15.183010916573426,-7.357421878194618 L-15.383087830746561,-6.799348257681142 L-15.589266142442039,-6.243249389281383 L-15.80146524936065,-5.689342671454985 L-16.01960219546418,-5.137844645673418 L-16.24359170340579,-4.588970911766348 L-16.473346207867927,-4.04293604363614 L-16.70877588979465,-3.4999535053734263 L-16.949788711505043,-2.9602355678065493 L-17.196290452673964,-2.423993225517478 L-17.44818474716604,-1.8914361143566651 L-17.70537312070855,-1.362772429489091 L-17.967755029388513,-0.8382088440034501 L-18.23522789895874,-0.3179504281164629 L-18.507687164937725,0.19779943099619146 L-18.785026313487528,0.7088391087110679 L-19.067136923053777,1.2149688217790668 L-19.353908706751447,1.7159907064276467 L-19.6452295554798,2.2117088957127056 L-19.94098558174982,2.701929596089796 L-20.24106116420674,3.1864611631747906 L-20.54533899283051,3.6651141766643534 L-20.853700114796354,4.137701514386958 L-21.166023980977602,4.604038425455471 L-21.48218849307253,5.06394260249273 L-21.80207005133687,5.517234252901844 L-22.125543602903242,5.963736169153417 L-22.45248269066871,6.403273798062145 L-22.78275950273125,6.835675309025749 L-23.116244922355914,7.26077166119957 L-23.45280857845104,7.678396669580504 L-23.79231889653489,8.088387069974555 L-24.134643150172682,8.490582582822494 L-24.47964751286401,8.884825975858732 L-24.827197110360263,9.270963125578895 L-25.177156073391707,9.648843077492089 L-25.529387590783536,10.018318105134298 L-25.883753962940105,10.379243767819801 L-26.240116655676506,10.731478967108046 L-26.59833635437643,11.074886001964 L-26.958273018455124,11.409330622590279 L-27.319785936106133,11.734682082910073 L-27.682733779310453,12.050813191680348 L-28.046974659086587,12.357600362215358 L-28.229535507640705,12.507452347345541 L-28.41236618095992,12.654923660700987 L-28.595448809884527,12.799999889008472 L-28.778765500629664,12.942666853081061 L-28.962298336534168,13.082910609203957 L-29.14602937981169,13.22071745049729 L-29.329940673303874,13.356073908255784 L-29.51401424223539,13.488966753265121 L-29.698232095970752,13.619382997094924 L-29.882576229772628,13.747309893368197 L-30.06702862656157,13.872734939007099 L-30.25157125867692,13.99564587545495 L-30.436186089638767,14.11603068987434 L-30.620855075910782,14.233877616321212 L-30.805560168663696,14.34917513689481 L-30.990283315539152,14.46191198286331 " />
			<path d="M-20.274991713159057,-39.87181468491693 L-12.451514579751137,-36.88011153373398 " />
			<path d="M-41.7055749179196,16.170402468795274 L-33.88209778451168,19.162105619978224 " />

        </g>
        </g>
    </svg>
    