<?xml version='1.0' encoding='utf-8'?>
<svg width="100.09mm" height="47.722923mm" viewBox="-49.542022 -23.621642 99.084045 47.243283" version="1.1" xmlns="http://www.w3.org/2000/svg">
  <g transform="scale(1,-1)" stroke-linecap="round">
    <g fill="none" stroke="rgb(0,0,0)" stroke-width="0.08909545442950498" id="Visible">
      <line x1="7.071068" y1="-23.577094" x2="7.071068" y2="-19.064731" />
      <line x1="-49.497475" y1="0.789663" x2="-49.497475" y2="5.302026" />
      <line x1="7.071068" y1="-23.577094" x2="-49.497475" y2="0.789663" />
      <line x1="7.071068" y1="-19.064731" x2="-49.497475" y2="5.302026" />
      <line x1="49.497475" y1="-5.302026" x2="49.497475" y2="-0.789663" />
      <line x1="7.071068" y1="-23.577094" x2="49.497475" y2="-5.302026" />
      <line x1="7.071068" y1="-19.064731" x2="49.497475" y2="-0.789663" />
      <line x1="-49.497475" y1="5.302026" x2="-7.071068" y2="23.577094" />
      <line x1="49.497475" y1="-0.789663" x2="-7.071068" y2="23.577094" />
      <line x1="17.67767" y1="-3.779104" x2="17.67767" y2="0.733259" />
      <line x1="8.018411" y1="-2.664247" x2="8.018411" y2="1.848115" />
      <line x1="17.67767" y1="-3.779104" x2="8.018411" y2="-2.664247" />
      <line x1="17.67767" y1="0.733259" x2="8.018411" y2="1.848115" />
      <line x1="8.018411" y1="-2.664247" x2="3.16111" y2="-4.756517" />
      <line x1="8.018411" y1="1.848115" x2="0.947343" y2="-1.197729" />
      <line x1="0.947343" y1="-1.197729" x2="3.535534" y2="-5.35843" />
      <line x1="3.535534" y1="-5.35843" x2="13.194792" y2="-6.473287" />
      <line x1="13.194792" y1="-6.473287" x2="20.26586" y2="-3.427442" />
      <line x1="18.052093" y1="-4.381017" x2="17.67767" y2="-3.779104" />
      <line x1="20.26586" y1="-3.427442" x2="17.67767" y2="0.733259" />
      <line x1="-3.535534" y1="5.35843" x2="-3.535534" y2="9.870793" />
      <line x1="-13.194792" y1="6.473287" x2="-13.194792" y2="10.985649" />
      <line x1="-3.535534" y1="5.35843" x2="-13.194792" y2="6.473287" />
      <line x1="-3.535534" y1="9.870793" x2="-13.194792" y2="10.985649" />
      <line x1="-13.194792" y1="6.473287" x2="-18.052093" y2="4.381017" />
      <line x1="-13.194792" y1="10.985649" x2="-20.26586" y2="7.939805" />
      <line x1="-20.26586" y1="7.939805" x2="-17.67767" y2="3.779104" />
      <line x1="-17.67767" y1="3.779104" x2="-8.018411" y2="2.664247" />
      <line x1="-8.018411" y1="2.664247" x2="-0.947343" y2="5.710092" />
      <line x1="-3.16111" y1="4.756517" x2="-3.535534" y2="5.35843" />
      <line x1="-0.947343" y1="5.710092" x2="-3.535534" y2="9.870793" />
    </g>
    <g fill="none" stroke="rgb(99,99,99)" stroke-width="0.08909545442950498" id="Hidden" stroke-dasharray="0.002263 0.268418">
      <line x1="-7.071068" y1="19.064731" x2="-7.071068" y2="23.577094" />
      <line x1="-49.497475" y1="0.789663" x2="-7.071068" y2="19.064731" />
      <line x1="49.497475" y1="-5.302026" x2="-7.071068" y2="19.064731" />
      <line x1="0.947343" y1="-5.710092" x2="0.947343" y2="-1.197729" />
      <line x1="3.16111" y1="-4.756517" x2="0.947343" y2="-5.710092" />
      <line x1="3.535534" y1="-9.870793" x2="3.535534" y2="-5.35843" />
      <line x1="0.947343" y1="-5.710092" x2="3.535534" y2="-9.870793" />
      <line x1="13.194792" y1="-10.985649" x2="13.194792" y2="-6.473287" />
      <line x1="3.535534" y1="-9.870793" x2="13.194792" y2="-10.985649" />
      <line x1="20.26586" y1="-7.939805" x2="20.26586" y2="-3.427442" />
      <line x1="13.194792" y1="-10.985649" x2="20.26586" y2="-7.939805" />
      <line x1="20.26586" y1="-7.939805" x2="18.052093" y2="-4.381017" />
      <line x1="-20.26586" y1="3.427442" x2="-20.26586" y2="7.939805" />
      <line x1="-18.052093" y1="4.381017" x2="-20.26586" y2="3.427442" />
      <line x1="-17.67767" y1="-0.733259" x2="-17.67767" y2="3.779104" />
      <line x1="-20.26586" y1="3.427442" x2="-17.67767" y2="-0.733259" />
      <line x1="-8.018411" y1="-1.848115" x2="-8.018411" y2="2.664247" />
      <line x1="-17.67767" y1="-0.733259" x2="-8.018411" y2="-1.848115" />
      <line x1="-0.947343" y1="1.197729" x2="-0.947343" y2="5.710092" />
      <line x1="-8.018411" y1="-1.848115" x2="-0.947343" y2="1.197729" />
      <line x1="-0.947343" y1="1.197729" x2="-3.16111" y2="4.756517" />
    </g>
  </g>
</svg>