<?xml version='1.0' encoding='utf-8'?>
<svg width="100.089999mm" height="52.301215mm" viewBox="-47.469091 -24.160525 94.938181 49.609174" version="1.1" xmlns="http://www.w3.org/2000/svg">
  <g transform="scale(1,-1)" stroke-linecap="round">
    <g fill="none" stroke="rgb(0,0,0)" stroke-width="0.08536753254814713" id="Visible">
      <line x1="-10.606602" y1="-19.3803" x2="-45.961941" y2="-3.665743" />
      <line x1="-10.606602" y1="-24.755048" x2="-45.961941" y2="-9.040491" />
      <line x1="-7.071068" y1="-18.719362" x2="-7.071068" y2="-14.854261" />
      <path d="M -10.606602,-19.3803 L -10.402801,-19.458893 L -10.188517,-19.518203 L -9.964424,-19.558042 L -9.731228,-19.578285 L -9.489662,-19.578868 L -9.240487,-19.55979 L -8.984485,-19.521109 L -8.722463,-19.462949 L -8.455245,-19.385493 L -8.183672,-19.288983 L -7.908599,-19.173723 L -7.63089,-19.040077 L -7.35142,-18.888464 L -7.071068,-18.719362" />
      <line x1="-7.071068" y1="-14.854261" x2="-43.84062" y2="1.488879" />
      <line x1="-47.426407" y1="-0.782431" x2="-43.84062" y2="1.488879" />
      <path d="M -45.961941,-3.665743 L -46.154618,-3.568112 L -46.335564,-3.451752 L -46.504211,-3.317028 L -46.660028,-3.164364 L -46.802524,-2.994241 L -46.931251,-2.807195 L -47.045805,-2.603812 L -47.145824,-2.384734 L -47.230993,-2.15065 L -47.301046,-1.902296 L -47.355762,-1.640453 L -47.394968,-1.365946 L -47.418541,-1.079639 L -47.426407,-0.782431" />
      <path d="M -7.071068,-18.719362 L -6.790716,-18.888464 L -6.511245,-19.040077 L -6.233537,-19.173723 L -5.958463,-19.288983 L -5.68689,-19.385493 L -5.419673,-19.462949 L -5.157651,-19.521109 L -4.901649,-19.55979 L -4.652473,-19.578868 L -4.410907,-19.578285 L -4.177711,-19.558042 L -3.953619,-19.518203 L -3.739335,-19.458893 L -3.535534,-19.3803" />
      <path d="M -10.606602,-24.755048 A 5.0,2.222373973626062 0.0 0,1 -3.535534,-24.755048" />
      <path d="M -45.961941,-9.040491 A 5.0,2.222373973626062 180.0 0,0 -47.426407,-7.469035" />
      <line x1="-3.535534" y1="-24.755048" x2="45.961941" y2="-2.754668" />
      <path d="M 45.961941,-2.754668 A 5.0,2.222373973626062 0.0 0,1 47.426407,-1.183212" />
      <line x1="-7.071068" y1="-14.854261" x2="43.84062" y2="7.774701" />
      <line x1="-3.535534" y1="-19.3803" x2="45.961941" y2="2.62008" />
      <line x1="47.426407" y1="5.503392" x2="43.84062" y2="7.774701" />
      <path d="M 45.961941,2.62008 L 46.154618,2.717711 L 46.335564,2.834071 L 46.504211,2.968795 L 46.660028,3.121459 L 46.802524,3.291581 L 46.931251,3.478628 L 47.045805,3.682011 L 47.145824,3.901089 L 47.230993,4.135173 L 47.301046,4.383527 L 47.355762,4.645369 L 47.394968,4.919876 L 47.418541,5.206184 L 47.426407,5.503392" />
      <line x1="-43.84062" y1="1.488879" x2="7.071068" y2="24.117841" />
      <line x1="43.84062" y1="7.774701" x2="7.071068" y2="24.117841" />
      <line x1="-0.0" y1="1.488879" x2="7.071068" y2="4.63179" />
      <line x1="7.071068" y1="4.63179" x2="-0.0" y2="7.774701" />
      <line x1="-7.071068" y1="4.63179" x2="0.0" y2="7.774701" />
      <line x1="0.0" y1="1.488879" x2="-7.071068" y2="4.63179" />
      <line x1="0.0" y1="7.774701" x2="0.0" y2="1.488879" />
      <line x1="-10.606602" y1="-24.755048" x2="-10.606602" y2="-19.3803" />
      <line x1="-45.961941" y1="-9.040491" x2="-45.961941" y2="-3.665743" />
      <line x1="-3.535534" y1="-24.755048" x2="-3.535534" y2="-19.3803" />
      <line x1="45.961941" y1="-2.754668" x2="45.961941" y2="2.62008" />
      <line x1="-47.426407" y1="-7.469035" x2="-47.426407" y2="-0.782431" />
      <line x1="47.426407" y1="-1.183212" x2="47.426407" y2="5.503392" />
    </g>
    <g fill="none" stroke="rgb(99,99,99)" stroke-width="0.08536753254814713" id="Hidden" stroke-dasharray="0.002168 0.257187">
      <path d="M -47.426407,-0.782431 L -47.418541,-0.83042 L -47.394968,-0.868293 L -47.355762,-0.89593 L -47.301046,-0.913246 L -47.230993,-0.920186 L -47.145824,-0.916727 L -47.045805,-0.902881 L -46.931251,-0.878691 L -46.802524,-0.844233 L -46.660028,-0.799616 L -46.504211,-0.74498 L -46.335564,-0.680497 L -46.154618,-0.606369 L -45.961941,-0.522831" />
      <path d="M -47.426407,-7.469035 A 5.0,2.222373973626062 180.0 0,0 -45.961941,-5.897579" />
      <line x1="-45.961941" y1="-5.897579" x2="3.535534" y2="16.102801" />
      <path d="M 47.426407,-1.183212 A 5.0,2.222373973626062 0.0 0,1 45.961941,0.388244" />
      <path d="M 3.535534,16.102801 A 5.0,2.222373973626062 180.0 0,0 10.606602,16.102801" />
      <line x1="45.961941" y1="0.388244" x2="10.606602" y2="16.102801" />
      <line x1="-0.0" y1="-7.469035" x2="7.071068" y2="-4.326124" />
      <line x1="7.071068" y1="-4.326124" x2="-0.0" y2="-1.183212" />
      <line x1="-7.071068" y1="-4.326124" x2="0.0" y2="-1.183212" />
      <line x1="0.0" y1="-7.469035" x2="-7.071068" y2="-4.326124" />
      <line x1="-45.961941" y1="-0.522831" x2="3.535534" y2="21.477549" />
      <line x1="7.071068" y1="23.440323" x2="7.071068" y2="24.117841" />
      <path d="M 3.535534,21.477549 Q 3.637434,21.523892 3.739335,21.570235 Q 3.846477,21.621006 3.953619,21.671778 Q 4.065665,21.726818 4.177711,21.781857 Q 4.294309,21.840993 4.410907,21.900128 Q 4.53169,21.963172 4.652473,22.026216 Q 4.777061,22.092972 4.901649,22.159727 Q 5.02965,22.229983 5.157651,22.300239 Q 5.418215,22.445601 5.68689,22.60048 Q 5.957481,22.757829 6.233537,22.923162 Q 6.64961,23.174006 7.071068,23.440323" />
      <path d="M 47.426407,5.503392 L 47.418541,5.455403 L 47.394968,5.41753 L 47.355762,5.389892 L 47.301046,5.372576 L 47.230993,5.365637 L 47.145824,5.369096 L 47.045805,5.382942 L 46.931251,5.407132 L 46.802524,5.44159 L 46.660028,5.486207 L 46.504211,5.540843 L 46.335564,5.605326 L 46.154618,5.679454 L 45.961941,5.762992" />
      <path d="M 7.071068,23.440323 Q 7.492526,23.174006 7.908599,22.923162 Q 8.184654,22.757829 8.455245,22.60048 Q 8.72392,22.445601 8.984485,22.300239 Q 9.112486,22.229983 9.240487,22.159727 Q 9.365074,22.092972 9.489662,22.026216 Q 9.610445,21.963172 9.731228,21.900128 Q 9.847826,21.840993 9.964424,21.781857 Q 10.076471,21.726818 10.188517,21.671778 Q 10.295659,21.621006 10.402801,21.570235 Q 10.504701,21.523892 10.606602,21.477549" />
      <line x1="45.961941" y1="5.762992" x2="10.606602" y2="21.477549" />
      <line x1="0.0" y1="1.488879" x2="0.0" y2="-7.469035" />
      <line x1="7.071068" y1="4.63179" x2="7.071068" y2="-4.326124" />
      <line x1="0.0" y1="1.488879" x2="0.0" y2="-1.183212" />
      <line x1="-7.071068" y1="4.63179" x2="-7.071068" y2="-4.326124" />
    </g>
  </g>
</svg>