<?xml version="1.0" encoding="UTF-8" standalone="no"?>
    <svg
    xmlns:svg="http://www.w3.org/2000/svg"
    xmlns="http://www.w3.org/2000/svg"
    width="416"
    height="231"
    >
        <g transform="scale(4, -4)   translate(51.89282333569898,-28.997936573637958)" stroke-width="0.25"  fill="none">
        <!-- hidden lines -->
        <g  stroke="rgb(160,160,160)" fill="none" stroke-dasharray="0.25,0.25" >
    			<path d="M-49.39282333569898,-7.553228896856849 L7.21975940688592,17.53709554493323 " />
			<path d="M7.219759406885924,17.537095544933226 L7.219759406885924,26.497936573637954 " />
			<path d="M49.61311035733408,-1.3099823721834074 L7.219759406885927,17.53709554493323 " />
			<path d="M-2.847582358446357,-10.446891832698864 L-3.1695621117157593,-10.335926838794904 L-3.5555562442127604,-10.260014092717338 L-3.995397703820135,-10.22115312964236 L-4.477501104474585,-10.220367543981505 L-4.989167884235185,-10.25767802799324 L-5.516920784308316,-10.332101826750662 L-6.046858838880455,-10.441678623821414 L-6.565023525357274,-10.583522175833217 L-7.057766430643378,-10.753896335875059 L-7.512108749164627,-10.948313463284197 L-7.916083143486162,-11.161652627713678 L-8.259048962946993,-11.388294493995453 L-8.531972517479524,-11.622269334943446 L-8.72766502422584,-11.857414273452111 " />
			<path d="M-8.727665024225844,-11.857414273452118 L-8.861777775248022,-12.17264716931027 L-8.832325381630476,-12.462509376284235 L-8.640784709371678,-12.712465992957124 L-8.296760407582905,-12.909983150840988 L-7.817503291276283,-13.045156514879672 L-7.227045313466937,-13.111207928165449 L-6.55499450270011,-13.10482529702947 L-5.835050292867546,-13.026328673248445 L-5.103313692875579,-12.879654205312121 L-4.39647703131386,-12.67215676350209 L-3.7499840498860655,-12.414241135984597 L-3.196252606200673,-12.118840289285279 L-2.7630491070253003,-11.800766855344197 L-2.4720961847089598,-11.475970364298218 " />
			<path d="M-2.472096184708948,-11.475970364298206 L-2.418983649707723,-11.387336355883825 L-2.3780650469431492,-11.29977325537093 L-2.3494972374127405,-11.213616734907742 L-2.3333897354888684,-11.129197074533892 L-2.3298042890966446,-11.046837896055642 L-2.338754643003968,-10.966854922445387 L-2.360206486131103,-10.889554767521226 L-2.3940775830818186,-10.815233760546395 L-2.440238089391844,-10.744176810254405 L-2.4985110492861367,-10.67665631265466 L-2.5686730740368358,-10.612931106805457 L-2.6504551983214064,-10.553245482557411 L-2.7435439112981337,-10.497828244071087 L-2.847582358446341,-10.44689183269887 " />
			<path d="M19.17080360974012,-0.6884879432611148 L18.84882385647069,-0.5775229493571477 L18.462829723973652,-0.5016102032795793 L18.022988264366234,-0.46274924020460695 L17.54088486371173,-0.4619636545437613 L17.029218083951086,-0.4992741385555113 L16.501465183877908,-0.5736979373129576 L15.971527129305732,-0.6832747343837351 L15.453362442828883,-0.8251182863955662 L14.960619537542762,-0.9954924464374395 L14.50627721902151,-1.1899095738466108 L14.102302824699988,-1.4032487382761216 L13.759337005239194,-1.6298906045579225 L13.486413450706712,-1.8638654455059367 L13.290720943960473,-2.0990103840146133 " />
			<path d="M13.290720943960462,-2.099010384014626 L13.156608192938375,-2.4142432798729767 L13.186060586556245,-2.7041054868470806 L13.377601258815577,-2.9540621035200263 L13.721625560605055,-3.1515792614038385 L14.200882676912496,-3.286752625442358 L14.7913406547227,-3.352804038727848 L15.46339146549034,-3.346421407591479 L16.18333567532358,-3.267924783809975 L16.91507227531601,-3.121250315873115 L17.621908936877897,-2.913752874062525 L18.268401918305514,-2.655837246544496 L18.822133361990343,-2.3604363998447084 L19.25533686116476,-2.042362965903268 L19.546289783479757,-1.7175664748570862 " />
			<path d="M19.546289783479782,-1.7175664748570605 L19.599402318480422,-1.6289324664429548 L19.640320921244466,-1.5413693659303385 L19.668888730774405,-1.4552128454674356 L19.684996232697877,-1.3707931850938708 L19.688581679089765,-1.2884340066159035 L19.67963132518218,-1.208451033005924 L19.658179482054848,-1.1311508780820323 L19.624308385104005,-1.056829871107459 L19.57814787879392,-0.9857729208157138 L19.51987491889964,-0.9182524232161966 L19.44971289414902,-0.8545272173672052 L19.367930769864593,-0.7948415931193495 L19.274842056888076,-0.7394243546331931 L19.170803609740148,-0.6884879432611304 " />
			<path d="M-13.445920096058394,-5.735122353419705 L-13.767899849327758,-5.624157359515755 L-14.153893981824709,-5.54824461343819 L-14.593735441432024,-5.5093836503632065 L-15.075838842086409,-5.508598064702337 L-15.587505621846944,-5.545908548714051 L-16.115258521920012,-5.620332347471445 L-16.6451965764921,-5.729909144542161 L-17.163361262968877,-5.871752696553924 L-17.65610416825496,-6.042126856595724 L-18.110446486776205,-6.236543984004822 L-18.51442088109776,-6.44988314843426 L-18.85738670055863,-6.676525014715997 L-19.130310255091235,-6.91049985566396 L-19.326002761837643,-7.145644794172605 " />
			<path d="M-19.32600276183765,-7.145644794172611 L-19.460115512860007,-7.460877690030806 L-19.430663119242617,-7.7507398970048245 L-19.23912244698394,-8.000696513677774 L-18.895098145195266,-8.1982136715617 L-18.415841028888696,-8.333387035600444 L-17.825383051079367,-8.399438448886272 L-17.15333224031253,-8.393055817750334 L-16.43338803047992,-8.314559193969338 L-15.701651430487898,-8.167884726033034 L-14.994814768926112,-7.960387284223005 L-14.348321787498246,-7.702471656705504 L-13.794590343812791,-7.40707081000617 L-13.36138684463737,-7.088997376065066 L-13.070433922320998,-6.76420088501906 " />
			<path d="M-13.070433922320985,-6.764200885019046 L-13.017321387319761,-6.675566876604666 L-12.976402784555187,-6.588003776091771 L-12.947834975024778,-6.501847255628583 L-12.931727473100906,-6.417427595254733 L-12.92814202670868,-6.335068416776484 L-12.937092380616006,-6.255085443166228 L-12.95854422374314,-6.1777852882420685 L-12.992415320693855,-6.103464281267237 L-13.038575827003882,-6.032407330975246 L-13.096848786898175,-5.964886833375501 L-13.167010811648872,-5.901161627526299 L-13.248792935933444,-5.841476003278252 L-13.34188164891017,-5.786058764791928 L-13.44592009605838,-5.735122353419712 " />
			<path d="M8.572465872128081,4.023281536018043 L8.250486118858683,4.134246529922002 L7.864491986361688,4.210159275999569 L7.424650526754319,4.249020239074547 L6.942547126099876,4.249805824735404 L6.430880346339285,4.212495340723672 L5.90312744626616,4.1380715419662515 L5.373189391694029,4.0284947448955055 L4.8550247052172155,3.8866511928837078 L4.3622817999311145,3.7162770328418695 L3.9079394814098665,3.521859905432735 L3.5039650870883294,3.30852074100326 L3.1609992676274947,3.0818788747214905 L2.8880757130949535,2.847904033773501 L2.6923832063486337,2.6127590952648423 " />
			<path d="M2.692383206348623,2.6127590952648294 L2.5582704553264035,2.2975261994065495 L2.5877228489440434,2.007663992432482 L2.7792635212030614,1.7577073757595327 L3.123287822992163,1.5601902178756655 L3.602544939299193,1.4250168538370378 L4.1930029171089895,1.3589654405513896 L4.865053727876258,1.3653480716875555 L5.584997937709202,1.4438446954688207 L6.3167345377014446,1.590519163405422 L7.023571199263287,1.7980166052157491 L7.670064180691024,2.0559322327335314 L8.223795624376148,2.3513330794331093 L8.656999123551033,2.6694065133743923 L8.947952045866673,2.9942030044204886 " />
			<path d="M8.947952045866696,2.9942030044205143 L9.001064580867606,3.082837012834748 L9.041983183631897,3.170400113347493 L9.070550993162056,3.256556633810529 L9.086658495085715,3.340976294184226 L9.090243941477759,3.4233354726623233 L9.081293587570297,3.5033184462724316 L9.059841744443057,3.5806186011964485 L9.025970647492272,3.6549396081711407 L8.97981014118222,3.7259965584630006 L8.921537181287935,3.7935170560626243 L8.851375156537276,3.857242261911713 L8.769593032252786,3.916927886159657 L8.676504319276175,3.9723451246458907 L8.572465872128111,4.023281536018029 " />
			<path d="M-0.29413391269176004,0.8411122961436117 L-8.727665021380995,-11.857414269168574 " />
			<path d="M5.96143492148813,1.222556197261496 L-2.472096187196354,-11.475970368043537 " />
			<path d="M21.724252055495217,10.59951618558211 L13.290720946805596,-2.0990103797306574 " />
			<path d="M27.979820889644685,10.980960086654184 L19.546289780980022,-1.7175664786210003 " />
			<path d="M-10.892471650303454,5.552881775423287 L-19.326002758992736,-7.145644789888969 " />
			<path d="M-4.636902816126771,5.934325676536341 L-13.070433924808391,-6.764200888764378 " />
			<path d="M11.125914317883367,15.311285664861552 L2.6923832091938102,2.612759099548878 " />
			<path d="M17.381483152038147,15.692729565941624 L8.947952043366628,2.9942030006561158 " />

        </g>

        <!-- solid lines -->
        <g  stroke="rgb(0,0,0)" fill="none">
    			<path d="M-6.999472385250822,-26.400306813973483 L-6.999472385250822,-17.439465785268755 " />
			<path d="M-6.999472385250822,-17.439465785268755 L-49.39282333569898,1.4076121318478805 " />
			<path d="M-49.39282333569898,-7.553228896856849 L-49.39282333569898,1.4076121318478787 " />
			<path d="M-6.999472385250822,-26.400306813973483 L-49.39282333569898,-7.553228896856847 " />
			<path d="M-6.999472385250822,-26.400306813973483 L49.61311035733408,-1.3099823721834056 " />
			<path d="M49.61311035733408,-1.3099823721834074 L49.61311035733408,7.65085865652132 " />
			<path d="M-6.999472385250822,-17.439465785268755 L49.61311035733408,7.650858656521322 " />
			<path d="M-49.39282333569898,1.4076121318478787 L7.21975940688592,26.497936573637958 " />
			<path d="M49.61311035733408,7.65085865652132 L7.219759406885927,26.497936573637958 " />
			<path d="M5.585948750242705,2.251634732613069 L5.263968996973287,2.362599726517034 L4.877974864476261,2.438512472594601 L4.438133404868857,2.4773734356695765 L3.9560300042143766,2.4781590213304248 L3.444363224453745,2.4408485373186797 L2.9166103243805854,2.366424738561242 L2.3866722698084213,2.2568479414904736 L1.8685075833315836,2.1150043894786523 L1.375764678045467,1.9446302294367888 L0.9214223595242146,1.7502131020276295 L0.5174479652026904,1.5368739375981293 L0.17448214574188237,1.3102320713163373 L-0.09844140879061625,1.0762572303683298 L-0.29413391553687873,0.8411122918596621 " />
			<path d="M-0.2941339155368894,0.8411122918596492 L-0.4282466665590512,0.5258793960011241 L-0.39879427294107384,0.2360171890268763 L-0.20725360068145804,-0.013939427646155522 L0.13677070110845158,-0.21145658552998192 L0.6160278174164349,-0.3466299495684275 L1.2064857952272385,-0.412681362853756 L1.8785366059954702,-0.4062987317171398 L2.5984808158292276,-0.32780210793531683 L3.3302174158220326,-0.1811276399980848 L4.037054077384097,0.026369801812901272 L4.683547058811644,0.2842854293313213 L5.237278502496122,0.5796862760314596 L5.670482001669891,0.8977597099731742 L5.961434923983961,1.222556201019525 " />
			<path d="M5.961434923983984,1.2225562010195508 L6.0145474589841985,1.3111902094334593 L6.0554660617478655,1.398753309945874 L6.084033871277473,1.484909830408574 L6.100141373200657,1.5693294907819366 L6.103726819592306,1.6516886692597024 L6.09477646568453,1.731671642869483 L6.073324622557059,1.8089717977931832 L6.039453525606127,1.883292804767572 L5.993293019296003,1.9543497550591429 L5.935020059401732,2.021870252658496 L5.864858034651167,2.085595458507337 L5.783075910366845,2.1452810827550564 L5.689987197390478,2.200698321241091 L5.585948750242737,2.2516347326130535 " />
			<path d="M27.604334718429186,12.010038622050818 L27.282354965159783,12.121003615954777 L26.896360832662786,12.196916362032344 L26.456519373055414,12.235777325107321 L25.97441597240097,12.236562910768177 L25.462749192640374,12.199252426756445 L24.934996292567245,12.124828627999023 L24.40505823799511,12.015251830928273 L23.886893551518295,11.873408278916473 L23.39415064623219,11.703034118874633 L22.939808327710946,11.508616991465498 L22.53583393338941,11.29527782703602 L22.192868113928576,11.06863596075425 L21.919944559396043,10.83466111980626 L21.72425205264972,10.599516181297595 " />
			<path d="M21.72425205264971,10.599516181297583 L21.590139301627577,10.28428328543974 L21.619591695244836,9.994421078466015 L21.811132367503028,9.744464461793257 L22.155156669290925,9.546947303909384 L22.634413785596486,9.41177393987053 L23.22487176340469,9.345722526584419 L23.896922574170404,9.352105157719905 L24.616866784002003,9.430601781500307 L25.348603383993286,9.577276249435917 L26.055440045554704,9.784773691245192 L26.701933026982672,10.04268931876195 L27.255664470668773,10.338090165460613 L27.688867969845397,10.656163599401182 L27.979820892163517,10.980960090446848 " />
			<path d="M27.979820892163538,10.980960090446873 L28.03293342716556,11.069594098861625 L28.073852029930855,11.157157199374904 L28.102419839461895,11.243313719838476 L28.11852734138631,11.327733380212711 L28.122112787778985,11.410092558691344 L28.11316243387202,11.490075532301974 L28.09171059074515,11.5673756872265 L28.05783949379461,11.64169669420168 L28.01167898748466,11.712753644494 L27.953406027590347,11.780274142094058 L27.88324400283954,11.843999347943546 L27.80146187855477,11.90368497219185 L27.70837316557776,11.959102210678404 L27.604334718429214,12.010038622050804 " />
			<path d="M-5.012388987369332,6.963404211892227 L-5.3343687406387055,7.074369205796181 L-5.720362873135674,7.150281951873746 L-6.1602043327430085,7.189142914948727 L-6.6423077333974145,7.189928500609592 L-7.153974513157972,7.152618016597872 L-7.68172741323106,7.078194217840469 L-8.211665467803162,6.968617420769741 L-8.729830154279952,6.826773868757966 L-9.222573059566042,6.656399708716152 L-9.676915378087287,6.461982581307042 L-10.080889772408835,6.24864341687759 L-10.423855591869692,6.022001550595841 L-10.696779146402273,5.78802670964787 L-10.892471653148649,5.552881771139223 " />
			<path d="M-10.89247165314866,5.55288177113921 L-11.026584404170986,5.237648875280862 L-10.997132010553397,4.94778666830673 L-10.805591338294363,4.697830051633726 L-10.461567036505187,4.500312893749824 L-9.982309920198038,4.365139529711188 L-9.391851942388087,4.299088116425557 L-8.71980113162065,4.30547074756177 L-7.999856921787547,4.3839673713431075 L-7.268120321795172,4.530641839279801 L-6.561283660233248,4.738139281090235 L-5.914790678805495,4.996054908608127 L-5.361059235120433,5.291455755307809 L-4.927855735945698,5.60952918924918 L-4.636902813630298,5.934325680295337 " />
			<path d="M-4.636902813630275,5.934325680295363 L-4.583790278629481,6.022959688709543 L-4.542871675865292,6.110522789222236 L-4.514303866335225,6.196679309685216 L-4.498196364411645,6.28109897005886 L-4.494610918019665,6.363458148536903 L-4.5035612719271825,6.443441122146958 L-4.5250131150544615,6.520741277070924 L-4.558884212005271,6.595062284045566 L-4.605044718315338,6.666119234337379 L-4.663317678209625,6.733639731936957 L-4.733479702960268,6.797364937786007 L-4.8152618272447345,6.857050562033915 L-4.908350540221312,6.9124678005201154 L-5.012388987369301,6.963404211892213 " />
			<path d="M17.005996980817148,16.721808101329977 L16.68401722754777,16.83277309523393 L16.298023095050805,16.908685841311495 L15.858181635443472,16.947546804386477 L15.376078234789068,16.94833239004734 L14.864411455028513,16.91102190603562 L14.336658554955427,16.83659810727822 L13.806720500383328,16.727021310207494 L13.28855581390653,16.585177758195716 L12.795812908620448,16.414803598153902 L12.341470590099195,16.220386470744792 L11.937496195777648,16.007047306315343 L11.59453037631679,15.780405440033594 L11.32160682178421,15.546430599085623 L11.125914315037832,15.31128566057698 " />
			<path d="M11.125914315037821,15.311285660576967 L10.9918015640155,14.996052764718662 L11.021253957633045,14.706190557744563 L11.212794629891992,14.456233941071577 L11.55681893168104,14.258716783187673 L12.036076047988042,14.123543419149012 L12.626534025797827,14.057492005863333 L13.298584836565109,14.063874636999476 L14.018529046398076,14.142371260780724 L14.750265646390355,14.289045728717316 L15.457102307952239,14.49654317052764 L16.103595289380017,14.754458798045432 L16.657326733065176,15.04985964474502 L17.09053023224009,15.367933078686317 L17.38148315455574,15.692729569732425 " />
			<path d="M17.381483154555763,15.69272956973245 L17.434595689556673,15.781363578146683 L17.475514292320966,15.86892667865943 L17.50408210185112,15.955083199122463 L17.52018960377478,16.03950285949616 L17.523775050166826,16.12186203797426 L17.51482469625936,16.201845011584364 L17.49337285313212,16.279145166508382 L17.45950175618134,16.353466173483078 L17.413341249871284,16.424523123774936 L17.355068289976998,16.492043621374556 L17.284906265226343,16.555768827223645 L17.20312414094185,16.615454451471592 L17.11003542796524,16.670871689957828 L17.005996980817176,16.721808101329962 " />

        </g>
        </g>
    </svg>
    