<?xml version="1.0" encoding="UTF-8" standalone="no"?>
    <svg
    xmlns:svg="http://www.w3.org/2000/svg"
    xmlns="http://www.w3.org/2000/svg"
    width="371"
    height="240"
    >
        <g transform="scale(4, -4)   translate(46.4639222898717,-30.073297316089967)" stroke-width="0.25"  fill="none">
        <!-- hidden lines -->
        <g  stroke="rgb(160,160,160)" fill="none" stroke-dasharray="0.25,0.25" >
    			<path d="M-43.264445253134475,5.116469858706502 L-43.264445253134475,23.15873942330766 " />
			<path d="M-9.513873051820616,9.531027751488805 L-9.513873051820616,27.573297316089963 " />
			<path d="M-43.264445253134475,5.116469858706502 L-9.513873051820603,9.531027751488807 " />
			<path d="M-43.96392228987169,-10.0982569407887 L-43.26444525313447,5.116469858706504 " />
			<path d="M10.645650671611492,-2.9553522249628132 L10.645650671611492,15.086917339638347 " />
			<path d="M-9.513873051820616,9.531027751488805 L10.645650671611497,-2.955352224962816 " />
			<path d="M43.9639222898717,-7.944012623812446 L10.645650671611499,-2.9553522249628115 " />

        </g>

        <!-- solid lines -->
        <g  stroke="rgb(0,0,0)" fill="none">
    			<path d="M-43.264445253134475,23.15873942330766 L-9.513873051820603,27.573297316089967 " />
			<path d="M-43.96392228987169,-10.0982569407887 L-43.96392228987169,7.94401262381246 " />
			<path d="M-43.96392228987169,7.94401262381246 L-43.26444525313447,23.158739423307665 " />
			<path d="M-9.513873051820616,27.573297316089963 L10.645650671611497,15.086917339638342 " />
			<path d="M43.26444525313448,-23.158739423307647 L43.9639222898717,-7.944012623812448 " />
			<path d="M9.51387305182061,-27.57329731608995 L43.26444525313449,-23.158739423307644 " />
			<path d="M-10.645650671611488,-15.086917339638333 L9.513873051820614,-27.573297316089956 " />
			<path d="M-10.645650671611492,-15.086917339638331 L-43.9639222898717,-10.098256940788698 " />
			<path d="M43.9639222898717,10.098256940788714 L10.645650671611499,15.086917339638347 " />
			<path d="M43.26444525313448,-5.116469858706488 L43.9639222898717,10.098256940788712 " />
			<path d="M9.51387305182061,-9.53102775148879 L43.26444525313449,-5.116469858706482 " />
			<path d="M-10.645650671611488,2.9553522249628266 L9.513873051820614,-9.531027751488795 " />
			<path d="M-10.645650671611492,2.9553522249628283 L-43.9639222898717,7.944012623812461 " />
			<path d="M-10.645650671611492,-15.086917339638331 L-10.645650671611492,2.9553522249628283 " />
			<path d="M43.9639222898717,-7.944012623812446 L43.9639222898717,10.098256940788714 " />
			<path d="M9.51387305182061,-27.57329731608995 L9.51387305182061,-9.53102775148879 " />
			<path d="M43.26444525313448,-23.158739423307647 L43.26444525313448,-5.116469858706488 " />

        </g>
        </g>
    </svg>
    