<?xml version="1.0" encoding="UTF-8" standalone="no"?>
    <svg
    xmlns:svg="http://www.w3.org/2000/svg"
    xmlns="http://www.w3.org/2000/svg"
    width="472"
    height="256"
    >
        <g transform="scale(4, -4)   translate(59.06854249492381,-32.07530718658259)" stroke-width="0.25"  fill="none">
        <!-- hidden lines -->
        <g  stroke="rgb(160,160,160)" fill="none" stroke-dasharray="0.25,0.25" >
    			<path d="M-56.568542494923804,-4.4811071494822015 L7.105427357601002e-15,20.613092887618173 " />
			<path d="M0.0,20.61309288761817 L0.0,29.575307186582585 " />
			<path d="M56.568542494923804,-4.4811071494822015 L-7.105427357601002e-15,20.613092887618173 " />
			<path d="M17.67766952966369,3.360830362111658 L17.893270632095465,3.2640072422317443 L18.10617707378668,3.166017736613205 L18.316356791810325,3.06687660211516 L18.523778133873982,2.9665987690277893 L18.728409863086487,2.865199338823907 L18.930221162662114,2.762693581884724 L19.129181640561477,2.659096935200191 L19.325261334068422,2.5544250000442403 L19.51843071430236,2.4486935396252907 L19.708660690665155,2.3419184767123724 L19.895922615222087,2.2341158912372094 L20.080188287016117,2.125302017872646 L20.261429956314867,2.0154932435877617 L20.439620328789587,1.904706105180055 L20.614732569625627,1.7929572867850636 L20.786740307563626,1.680263617363794 L20.955617638870944,1.5666420681683384 L21.12133913124267,1.4521097501860751 L21.283879827631623,1.33668391156281 L21.44321525000679,1.2203819350052676 L21.59932140303966,1.1032213351633269 L21.752174777717777,0.9852197559923725 L21.901752354885158,0.8663949680961798 L22.04803160870887,0.7467648660507438 L22.19099051007134,0.6263474657093928 L22.330607529887878,0.5051609014896838 L22.466861642348842,0.38322342364243855 L22.59973232808608,0.2605533955032939 L22.729199577263056,0.13716929072727346 L22.85524389258826,0.013089690506713048 L22.97784629225144,-0.11166671922699489 L23.096988312782162,-0.23708115061743396 L23.212652011830382,-0.3631347167125476 L23.324819970868464,-0.4898084343089435 L23.433475297814365,-0.6170832268106929 L23.53860162957551,-0.7449399271022008 L23.640183134513023,-0.8733592804346957 L23.738204514825906,-1.0023219473259295 L23.83265100885484,-1.1318085064726353 L23.923508393305216,-1.2617994576752847 L24.01076298538914,-1.3922752247747758 L24.09440164488599,-1.5232161586005164 L24.174411776121296,-1.6546025399295003 L24.250781329863596,-1.7864145824559818 L24.323498805138996,-1.9186324357711997 L24.392553250963207,-2.0512361883527794 L24.457934267990684,-2.1842058705633374 L24.519632010080752,-2.317521457657834 L24.5776371857804,-2.4511628727992254 L24.631941059723523,-2.585109990081963 L24.68253545394645,-2.7193426375628813 L24.729412749119515,-2.8538406002990158 L24.772565885694494,-2.9885836233918996 L24.811988364967743,-3.1235514150378796 L24.84767425005889,-3.258723649583985 L24.879618166804914,-3.394079970588895 L24.90781530456944,-3.5295999938885463 L24.932261416967243,-3.665263310665911 L24.95295282250372,-3.801049490524493 L24.969886405129298,-3.9369380845650648 L24.98305961470873,-4.072908628465202 L24.992470467405095,-4.208940645561132 L24.9981175459786,-4.345013649931451 L24.99999999999999,-4.481107149482156 " />
			<path d="M24.547250795488043,-6.582160089552126 L24.502173820957726,-6.683269672192577 L24.45498055585054,-6.784189050656469 L24.354261640961447,-6.985422345985643 L24.245128847062027,-7.185790453719408 L24.12761987720966,-7.385224150941424 L24.001775328252222,-7.583654537554302 L23.86763867680274,-7.781013060083108 L23.725256264219162,-7.9772315353591345 L23.574677280594383,-8.17224217407574 L23.415953747762135,-8.36597760420809 L23.249140501324547,-8.558370894288782 L23.074295171707604,-8.749355576531233 L22.891478164251048,-8.93886566979289 L22.700752638339658,-9.126835702370297 L22.50218448558299,-9.313200734618198 L22.29584230705125,-9.49789638138477 L22.08179738957508,-9.680858834255343 L21.860123681117464,-9.86202488359686 L21.63089776522629,-10.041331940395441 L21.39419883457637,-10.218718057879556 L21.15010866361005,-10.394121952921317 L20.898711580285877,-10.56748302720851 L20.640094436945077,-10.738741388180003 L20.374346580305954,-10.907837869717358 L20.10155982059647,-11.074714052585456 L19.821828399835766,-11.239312284615128 L19.53524895927555,-11.401575700620725 L19.241920506012626,-11.561448242045829 L18.941944378784036,-11.718874676330302 L18.63542421295666,-11.873800615991964 L18.322465904723437,-12.026172537416302 L18.00317757451846,-12.175937799347738 L17.677669529663756,-12.323044661076032 " />
			<path d="M24.74873734152916,-15.45981966571361 L24.61620842457369,-15.516484890626888 L24.47906765036531,-15.57094779399473 L24.337500876308358,-15.623134566011768 L24.191699958058592,-15.672974481555993 L24.04186248951449,-15.720399996037635 L23.888191535031908,-15.76534683693765 L23.73089535422501,-15.807754090911846 L23.570187119726413,-15.847564286342502 L23.406284628289065,-15.88472347122569 L23.239410005621377,-15.919181286288689 L23.06978940535561,-15.95089103323842 L22.897652702557522,-15.979809738048418 L22.723233182192562,-16.005898209198556 L22.546767222970917,-16.029121090788596 L22.368493976999783,-16.049446910453604 L22.188655045677066,-16.06684812201626 L22.007494152265732,-16.08130114281829 L21.825256811592503,-16.092786385680416 L21.64218999731862,-16.101288285447495 L21.458541807233512,-16.10679532008291 L21.274561127025027,-16.109300026283574 L21.090497292981865,-16.108799009594442 L20.90659975408538,-16.105292949008778 L20.72311773394862,-16.098786596047947 L20.54029989306079,-16.08928876832204 L20.358393991794916,-16.076812337579938 L20.177646554635334,-16.06137421226515 L19.998302536080104,-16.042995314600955 L19.820604988671157,-16.021700552235966 L19.644794733601962,-15.997518784488516 L19.47111003434925,-15.970482783235619 L19.299786273770973,-15.94062918849951 L19.13105563510824,-15.907998458791965 L18.96514678732339,-15.872634816283664 L18.802284575200808,-15.834586186872965 L18.64268971463031,-15.793904135235227 L18.48657849348619,-15.750643794940782 L18.334162478507196,-15.70486379373623 L18.185648228574795,-15.656626174090288 L18.041237014778194,-15.605996309111946 L17.901124547645562,-15.5530428139548 L17.765500711911084,-15.497837452827692 L17.634549309177324,-15.440455041737629 L17.508447808821625,-15.38097334709684 L17.387367107484128,-15.319472980331321 L17.27147129746339,-15.256037288633756 L17.160917444333446,-15.190752242008834 L17.05585537408369,-15.12370631676404 L16.956427470070093,-15.054990375603841 L16.862768480052864,-14.984697544489755 L16.77500533358215,-14.91292308643316 L16.693256969979203,-14.83976427239194 L16.61763417714613,-14.765320249445882 L16.548239441422723,-14.689691906429491 L16.485166808693812,-14.61298173720434 L16.428501756935376,-14.535293701756224 L16.37832108037216,-14.456733085305382 L16.334692785403778,-14.377406355620726 L16.29767599844034,-14.297421018731436 L16.267320885772513,-14.216885473231477 L16.24366858558464,-14.135908863374482 L16.22675115220297,-14.054600931158097 L16.216591512654674,-13.97307186759824 L16.21320343559642,-13.891432163394859 " />
			<path d="M16.21320343559642,-13.891432163394839 L16.2147093421154,-13.836998862610626 L16.219226154570556,-13.782598350411412 L16.22675115220297,-13.728263395631581 L16.237279802235435,-13.674026727616177 L16.25080576260287,-13.619921016505973 L16.267320885772513,-13.5659788535582 L16.286815223651715,-13.51223273151479 L16.309277033580265,-13.458715025029964 L16.334692785403778,-13.405457971168953 L16.363047169623698,-13.352493649989594 L16.39432310661922,-13.2998539652185 L16.428501756935376,-13.247570625033454 L16.465562532631235,-13.195675122963584 L16.505483109681315,-13.144198718918837 L16.548239441422727,-13.093172420360185 L16.593805773039985,-13.042626963621883 L16.642154657078766,-12.992592795397053 L16.693256969979203,-12.943100054397737 L16.747081929618844,-12.89417855320046 L16.803597113854646,-12.845857760288247 L16.862768480052864,-12.798166782299923 L16.92456038559506,-12.751134346497343 L16.988935609347884,-12.704788783461183 L17.055855374083695,-12.659158010025639 L17.197165778193195,-12.570150329923868 L17.34815116878274,-12.484325733489548 L17.50844780882163,-12.401890979692837 L17.67766952966368,-12.323044661076066 " />
			<path d="M24.748737341529132,-15.459819665713624 L25.05057888493361,-15.32426729788175 L25.34864790330131,-15.187081990015795 L25.642899508534423,-15.048284401718522 L25.93328938742353,-14.90789543539621 L26.21977380832103,-14.765936233110782 L26.502309627726923,-14.622428173395921 L26.780854296786032,-14.477392868037569 L27.055365867695752,-14.330852158819244 L27.325803000023257,-14.18282811423272 L27.59212496693118,-14.033343026154629 L27.854291661310892,-13.882419406489397 L28.11226360182253,-13.730079983779014 L28.366001938840785,-13.576347699780168 L28.615468460305408,-13.421245706009376 L28.86062559747585,-13.264797360256392 L29.10143643058906,-13.107026223066608 L29.337864694419313,-12.947956054192964 L29.56987478373972,-12.787610809017803 L29.79743175868426,-12.626014634945225 L30.02050135000951,-12.46319186776466 L30.239049964255514,-12.299167027985948 L30.453044688804887,-12.133964817146607 L30.662453296839224,-11.967610114091938 L30.86724425219241,-11.800127971228333 L31.067386714099868,-11.631543610750448 L31.26285054184302,-11.461882420842855 L31.453606299288374,-11.291169951856705 L31.6396252593205,-11.11943191246191 L31.82087940816826,-10.946694165775487 L31.99734144962356,-10.772982725466697 L32.168984809152015,-10.598323751839498 L32.33578363789502,-10.42274354789289 L32.497712816562526,-10.246268555359737 L32.65474795921585,-10.06892535072478 L32.80686541694011,-9.890740641222322 L32.95404228140571,-9.711741260814218 L33.096256388318224,-9.531954166148733 L33.23348632075626,-9.351406432500998 L33.36571141239677,-9.170125249695609 L33.49291175062729,-8.988137918011907 L33.61506817954478,-8.805471844072626 L33.73216230284038,-8.62215453671659 L33.844176486569815,-8.438213602856004 L33.95109386180903,-8.253676743318938 L34.05289832719459,-8.068571748677627 L34.149574551348486,-7.8829264950634075 L34.24110797518696,-7.696768939968633 L34.327484814113056,-7.510127118036332 L34.40869206009256,-7.323029136838377 L34.48471748361293,-7.135503172642551 L34.55554963552503,-6.947577466169259 L34.62117784876733,-6.759280318338664 L34.6815922399723,-6.570640086008633 L34.73678371095484,-6.381685177704254 L34.78674395008245,-6.1924440493396995 L34.83146543352689,-6.0029451999328325 L34.87094142639722,-5.8132171673133275 L34.90516598375415,-5.62328852382501 L34.93413395150522,-5.433187872022989 L34.95784096718103,-5.242943840366195 L34.97628346059222,-5.05258507890601 L34.98945865436714,-4.862140254971701 L34.99736456437005,-4.671638048853255 L34.99999999999999,-4.481107149482344 " />
			<path d="M34.99999999999999,-4.4811071494822 L34.99853506684804,-4.339053712569396 L34.994140390022444,-4.197012167015968 L34.98681633740363,-4.054994403185861 L34.97656352209147,-3.9130123094522418 L34.96338280235389,-3.7710777712023136 L34.9472752815551,-3.629202669842391 L34.928242308063155,-3.487398881803298 L34.90628547513714,-3.3456782775461873 L34.88140662079376,-3.204052720568858 L34.853607827653505,-3.062534066412657 L34.822891422766304,-2.9211341616700475 L34.78925997741671,-2.7798648429929225 L34.75271630690869,-2.6387379361017564 L34.713263470329906,-2.497765254795665 L34.67090477029571,-2.3569585999634683 L34.625643752672595,-2.2163297585958346 L34.57748420628143,-2.0758905027985834 L34.5264301625803,-1.9356525888072365 L34.47248589532696,-1.7956277560029013 L34.41565592022116,-1.6558277259295595 L34.355944994526595,-1.5162642013128504 L34.29335811667266,-1.3769488650804318 L34.227900525836056,-1.2378933793839968 L34.15957770150221,-1.099109384623028 L34.08839536300657,-0.9606084984703758 L34.01435946905584,-0.8224023148997386 L33.93747621722922,-0.6845024032151219 L33.8577520434595,-0.5469203070823698 L33.77519362149442,-0.40966754356284074 L33.689807862337936,-0.27275560214930206 L33.601601913671736,-0.13619594380414846 L33.51058315925685,-8.881784197001252e-16 " />
			<path d="M17.67766952966369,3.360830362111659 L17.508447808821632,3.4396766807284322 L17.34815116878274,3.5221114345251436 L17.197165778193195,3.6079360309594635 L17.055855374083695,3.696943711061234 L16.988935609347884,3.742574484496777 L16.92456038559506,3.788920047532939 L16.862768480052864,3.835952483335518 L16.803597113854646,3.883643461323843 L16.747081929618844,3.9319642542360542 L16.693256969979203,3.9808857554333317 L16.642154657078766,4.0303784964326494 L16.593805773039985,4.080412664657479 L16.548239441422723,4.130958121395781 L16.505483109681315,4.181984419954435 L16.465562532631235,4.23346082399918 L16.428501756935372,4.28535632606905 L16.39432310661922,4.337639666254096 L16.363047169623698,4.390279351025189 L16.334692785403774,4.443243672204549 L16.309277033580265,4.496500726065559 L16.28681522365171,4.550018432550385 L16.267320885772513,4.603764554593796 L16.250805762602866,4.65770671754157 L16.23727980223543,4.711812428651774 L16.226751152202965,4.766049096667176 L16.219226154570553,4.820384051447009 L16.214709342115395,4.874784563646223 L16.213203435596416,4.9292178644304165 " />
			<path d="M16.213203435596416,4.929217864430437 L16.216433856871436,5.0089361202974505 L16.226120946447853,5.08855136674456 L16.242252186973563,5.167960727457389 L16.26480673416753,5.247061592160626 L16.29375544375411,5.325751749207787 L16.329060909122376,5.403929517655886 L16.370677509661746,5.481493878654354 L16.418551469711502,5.558344605978409 L16.47262092804803,5.634382395538231 L16.532816017819904,5.709508993696581 L16.599058956827673,5.783627324229054 L16.671264148031533,5.856641613762923 L16.749338290157155,5.92845751553247 L16.833180498256638,5.998982231290911 L16.922682434068864,6.068124631221366 L17.017728446010793,6.135795371691938 L17.118195718618797,6.201907010702742 L17.223954431246916,6.266374120875705 L17.33486792581704,6.329113399841127 L17.450792883404148,6.390043777878391 L17.57157950942852,6.449086522671693 L17.697071727215583,6.506165341045467 L17.827107379673254,6.561206477548023 L17.961518438826253,6.614138809756014 L18.100131222936547,6.664893940176603 L18.242766620929423,6.713406284628538 L18.38924032383518,6.759613156987971 L18.53936306294738,6.803454850189494 L18.692940854389906,6.844874713377726 L18.84977524977682,6.883819225109765 L19.009663592641115,6.920238062513917 L19.172399280301025,6.9540841663153135 L19.337772030825505,6.985313801644438 L19.50556815475391,7.0138866145499374 L19.6755708312188,7.0397656841427345 L19.847560388115024,7.062917570304032 L20.02131458595312,7.083312356895586 L20.196608905030153,7.100923690416394 L20.373216835547034,7.115728814055862 L20.55091017029732,7.127708597099434 L20.729459299549422,7.136847559648706 L20.908633507741026,7.143133892624059 L21.0882012716025,7.146559473023976 L21.26793055932397,7.147119874421337 L21.447589130379512,7.144814372683104 L21.62694483562106,7.139645946906023 L21.805765917254213,7.131621275567128 L21.98382130830835,7.120750727894027 L22.160880931214123,7.10704835046611 L22.336715995102416,7.090531849064003 L22.51109929144071,7.07122256579071 L22.68380548762482,7.049145451494029 L22.85461141814654,7.024329033525848 L23.023296372961134,6.996805378879994 L23.189642382681875,6.966610052756282 L23.35343450023324,6.933782072604279 L23.51446107859874,6.898363857706182 L23.672514044304535,6.860401174363966 L23.82738916628543,6.819943076761601 L23.97888631978581,6.777041843578782 L24.126809744954578,6.731752910438068 L24.270968299799826,6.6841347982727175 L24.411175707176547,6.634249037707775 L24.54725079548803,6.582160089552149 " />
			<path d="M-33.510583159256846,8.881784197001252e-15 L-33.60160191367173,-0.13619594380414402 L-33.689807862337936,-0.27275560214930117 L-33.77519362149442,-0.4096675435628372 L-33.85775204345949,-0.5469203070823636 L-33.93747621722921,-0.6845024032151197 L-34.01435946905584,-0.8224023148997337 L-34.08839536300656,-0.9606084984703687 L-34.15957770150221,-1.0991093846230249 L-34.227900525836056,-1.2378933793839972 L-34.29335811667266,-1.37694886508043 L-34.35594499452659,-1.516264201312846 L-34.41565592022116,-1.655827725929559 L-34.47248589532696,-1.7956277560029053 L-34.5264301625803,-1.9356525888072378 L-34.57748420628143,-2.0758905027985812 L-34.625643752672595,-2.2163297585958373 L-34.67090477029571,-2.3569585999634746 L-34.713263470329906,-2.4977652547956684 L-34.75271630690869,-2.6387379361017578 L-34.78925997741671,-2.779864842992928 L-34.822891422766304,-2.9211341616700497 L-34.853607827653505,-3.0625340664126566 L-34.88140662079376,-3.2040527205688614 L-34.90628547513714,-3.345678277546188 L-34.928242308063155,-3.487398881803297 L-34.9472752815551,-3.629202669842394 L-34.96338280235389,-3.7710777712023136 L-34.97656352209147,-3.9130123094522387 L-34.98681633740363,-4.054994403185863 L-34.994140390022444,-4.197012167015967 L-34.99853506684804,-4.339053712569392 L-34.99999999999999,-4.48110714948213 " />
			<path d="M-34.99999999999999,-4.4811071494822 L-34.99736456437005,-4.671638048853256 L-34.98945865436714,-4.862140254971695 L-34.97628346059223,-5.052585078905997 L-34.95784096718103,-5.242943840366189 L-34.93413395150522,-5.43318787202299 L-34.90516598375415,-5.623288523825003 L-34.87094142639722,-5.813217167313322 L-34.83146543352689,-6.002945199932833 L-34.78674395008245,-6.1924440493397075 L-34.73678371095484,-6.381685177704262 L-34.6815922399723,-6.570640086008634 L-34.621177848767324,-6.759280318338671 L-34.55554963552503,-6.9475774661692595 L-34.48471748361293,-7.1355031726425455 L-34.40869206009256,-7.323029136838378 L-34.327484814113056,-7.510127118036326 L-34.241107975186964,-7.696768939968621 L-34.14957455134849,-7.882926495063402 L-34.0528983271946,-8.068571748677613 L-33.951093861809035,-8.253676743318918 L-33.84417648656982,-8.438213602855992 L-33.73216230284039,-8.622154536716572 L-33.6150681795448,-8.8054718440726 L-33.49291175062731,-8.988137918011887 L-33.365711412396784,-9.170125249695598 L-33.23348632075628,-9.35140643250098 L-33.096256388318245,-9.531954166148706 L-32.95404228140573,-9.7117412608142 L-32.80686541694012,-9.890740641222308 L-32.65474795921586,-10.06892535072476 L-32.49771281656254,-10.24626855535972 L-32.335783637895034,-10.42274354789288 L-32.168984809152015,-10.598323751839494 L-31.997341449623562,-10.77298272546669 L-31.82087940816827,-10.946694165775476 L-31.639625259320503,-11.119431912461904 L-31.453606299288374,-11.291169951856705 L-31.262850541843026,-11.461882420842851 L-31.06738671409988,-11.631543610750438 L-30.867244252192418,-11.800127971228328 L-30.66245329683922,-11.96761011409194 L-30.45304468880489,-12.133964817146602 L-30.23904996425553,-12.299167027985938 L-30.020501350009514,-12.463191867764655 L-29.797431758684276,-12.626014634945214 L-29.569874783739746,-12.787610809017785 L-29.337864694419327,-12.947956054192954 L-29.101436430589082,-13.10702622306659 L-28.860625597475885,-13.26479736025637 L-28.61546846030543,-13.421245706009358 L-28.36600193884082,-13.576347699780147 L-28.112263601822576,-13.730079983778985 L-27.854291661310928,-13.882419406489376 L-27.592124966931227,-14.033343026154604 L-27.325803000023303,-14.182828114232695 L-27.05536586769579,-14.330852158819223 L-26.78085429678606,-14.477392868037555 L-26.502309627726948,-14.622428173395907 L-26.21977380832107,-14.76593623311076 L-25.93328938742356,-14.907895435396199 L-25.64289950853444,-15.048284401718515 L-25.348647903301337,-15.18708199001578 L-25.05057888493365,-15.324267297881729 L-24.74873734152927,-15.45981966571356 " />
			<path d="M-17.67766952966369,-12.323044661076063 L-17.50844780882163,-12.401890979692835 L-17.34815116878274,-12.484325733489547 L-17.1971657781932,-12.570150329923866 L-17.0558553740837,-12.659158010025637 L-16.98893560934789,-12.70478878346118 L-16.924560385595065,-12.751134346497341 L-16.862768480052864,-12.798166782299923 L-16.803597113854646,-12.845857760288247 L-16.747081929618844,-12.894178553200458 L-16.693256969979206,-12.943100054397735 L-16.64215465707877,-12.992592795397051 L-16.59380577303999,-13.042626963621883 L-16.548239441422727,-13.093172420360185 L-16.505483109681315,-13.144198718918837 L-16.46556253263124,-13.195675122963582 L-16.428501756935376,-13.247570625033452 L-16.394323106619222,-13.299853965218498 L-16.363047169623698,-13.352493649989592 L-16.334692785403778,-13.405457971168952 L-16.309277033580265,-13.458715025029964 L-16.286815223651715,-13.51223273151479 L-16.267320885772513,-13.5659788535582 L-16.25080576260287,-13.619921016505973 L-16.237279802235435,-13.674026727616177 L-16.22675115220297,-13.728263395631581 L-16.219226154570556,-13.782598350411412 L-16.2147093421154,-13.836998862610624 L-16.21320343559642,-13.891432163394828 " />
			<path d="M-16.21320343559642,-13.891432163394839 L-16.216591512654674,-13.97307186759824 L-16.22675115220297,-14.054600931158097 L-16.24366858558464,-14.135908863374484 L-16.267320885772513,-14.216885473231478 L-16.29767599844034,-14.297421018731436 L-16.334692785403774,-14.377406355620725 L-16.37832108037216,-14.456733085305382 L-16.428501756935376,-14.535293701756224 L-16.485166808693812,-14.612981737204342 L-16.548239441422727,-14.689691906429493 L-16.61763417714613,-14.765320249445882 L-16.693256969979203,-14.839764272391939 L-16.77500533358215,-14.91292308643316 L-16.862768480052864,-14.984697544489755 L-16.956427470070093,-15.054990375603841 L-17.055855374083695,-15.12370631676404 L-17.160917444333446,-15.190752242008834 L-17.27147129746339,-15.256037288633756 L-17.387367107484128,-15.31947298033132 L-17.508447808821625,-15.38097334709684 L-17.634549309177327,-15.44045504173763 L-17.765500711911088,-15.497837452827692 L-17.901124547645562,-15.553042813954802 L-18.041237014778194,-15.605996309111946 L-18.185648228574795,-15.656626174090288 L-18.334162478507196,-15.70486379373623 L-18.486578493486192,-15.750643794940784 L-18.642689714630315,-15.793904135235227 L-18.802284575200808,-15.834586186872965 L-18.965146787323388,-15.872634816283664 L-19.131055635108236,-15.907998458791964 L-19.299786273770977,-15.94062918849951 L-19.471110034349252,-15.97048278323562 L-19.644794733601966,-15.997518784488516 L-19.820604988671157,-16.021700552235966 L-19.998302536080104,-16.042995314600955 L-20.17764655463533,-16.06137421226515 L-20.35839399179492,-16.076812337579938 L-20.540299893060798,-16.08928876832204 L-20.723117733948623,-16.098786596047947 L-20.906599754085377,-16.105292949008778 L-21.090497292981862,-16.108799009594442 L-21.274561127025024,-16.109300026283574 L-21.458541807233516,-16.10679532008291 L-21.642189997318628,-16.101288285447495 L-21.825256811592507,-16.092786385680416 L-22.00749415226573,-16.08130114281829 L-22.188655045677066,-16.06684812201626 L-22.36849397699978,-16.049446910453604 L-22.546767222970917,-16.029121090788596 L-22.72323318219257,-16.005898209198556 L-22.897652702557526,-15.979809738048418 L-23.06978940535561,-15.95089103323842 L-23.239410005621373,-15.91918128628869 L-23.406284628289065,-15.88472347122569 L-23.570187119726416,-15.847564286342502 L-23.730895354225016,-15.807754090911846 L-23.88819153503191,-15.76534683693765 L-24.04186248951449,-15.720399996037635 L-24.191699958058592,-15.672974481555995 L-24.337500876308358,-15.623134566011768 L-24.47906765036531,-15.57094779399473 L-24.616208424573692,-15.516484890626886 L-24.748737341529132,-15.459819665713624 " />
			<path d="M-17.677669529663664,-12.323044661076073 L-18.00317757451844,-12.175937799347746 L-18.322465904723416,-12.026172537416313 L-18.635424212956657,-11.873800615991968 L-18.94194437878403,-11.718874676330305 L-19.24192050601262,-11.56144824204583 L-19.535248959275552,-11.401575700620725 L-19.82182839983576,-11.239312284615133 L-20.101559820596467,-11.074714052585461 L-20.37434658030595,-10.90783786971736 L-20.640094436945066,-10.73874138818001 L-20.898711580285873,-10.567483027208514 L-21.150108663610045,-10.39412195292132 L-21.394198834576365,-10.21871805787956 L-21.63089776522629,-10.041331940395441 L-21.860123681117464,-9.862024883596863 L-22.081797389575076,-9.680858834255346 L-22.295842307051245,-9.497896381384773 L-22.50218448558298,-9.313200734618206 L-22.700752638339655,-9.126835702370302 L-22.891478164251044,-8.938865669792893 L-23.074295171707597,-8.749355576531237 L-23.249140501324554,-8.558370894288776 L-23.41595374776214,-8.365977604208085 L-23.574677280594383,-8.172242174075738 L-23.72525626421916,-7.977231535359138 L-23.867638676802738,-7.7810130600831116 L-24.00177532825222,-7.583654537554305 L-24.127619877209657,-7.385224150941427 L-24.245128847062023,-7.185790453719411 L-24.35426164096144,-6.9854223459856515 L-24.454980555850536,-6.784189050656473 L-24.502173820957726,-6.683269672192576 L-24.547250795488,-6.582160089552227 " />
			<path d="M-24.99999999999999,-4.4811071494822015 L-24.9981175459786,-4.345013649931446 L-24.992470467405095,-4.208940645561132 L-24.98305961470873,-4.072908628465202 L-24.969886405129298,-3.936938084565064 L-24.95295282250372,-3.8010494905244916 L-24.932261416967243,-3.6652633106659094 L-24.90781530456944,-3.529599993888544 L-24.879618166804914,-3.3940799705888924 L-24.84767425005889,-3.258723649583982 L-24.81198836496774,-3.123551415037876 L-24.77256588569449,-2.9885836233918956 L-24.729412749119515,-2.8538406002990104 L-24.682535453946446,-2.7193426375628764 L-24.63194105972352,-2.585109990081958 L-24.577637185780397,-2.4511628727992196 L-24.519632010080752,-2.3175214576578274 L-24.45793426799068,-2.1842058705633303 L-24.392553250963203,-2.051236188352772 L-24.323498805138993,-1.9186324357711917 L-24.25078132986359,-1.7864145824559738 L-24.174411776121293,-1.6546025399294915 L-24.094401644885984,-1.5232161586005066 L-24.010762985389135,-1.392275224774771 L-23.92350839330521,-1.261799457675279 L-23.832651008854835,-1.1318085064726287 L-23.738204514825906,-1.0023219473259277 L-23.640183134513023,-0.873359280434693 L-23.538601629575506,-0.7449399271021977 L-23.43347529781436,-0.6170832268106898 L-23.32481997086846,-0.4898084343089395 L-23.21265201183038,-0.36313471671254405 L-23.09698831278216,-0.23708115061742951 L-22.97784629225143,-0.11166671922698956 L-22.855243892588256,0.013089690506718377 L-22.729199577263046,0.13716929072727968 L-22.59973232808607,0.26055339550330103 L-22.466861642348835,0.38322342364244477 L-22.33060752988787,0.505160901489691 L-22.19099051007134,0.6263474657093955 L-22.048031608708865,0.7467648660507473 L-21.901752354885154,0.8663949680961842 L-21.752174777717777,0.9852197559923725 L-21.59932140303966,1.1032213351633269 L-21.44321525000679,1.2203819350052685 L-21.28387982763162,1.33668391156281 L-21.121339131242667,1.4521097501860778 L-20.955617638870937,1.566642068168341 L-20.78674030756362,1.6802636173637966 L-20.61473256962562,1.7929572867850672 L-20.439620328789584,1.9047061051800585 L-20.26142995631486,2.015493243587766 L-20.08018828701611,2.1253020178726514 L-19.89592261522208,2.234115891237214 L-19.708660690665145,2.341918476712377 L-19.51843071430235,2.448693539625295 L-19.325261334068415,2.5544250000442448 L-19.129181640561463,2.659096935200199 L-18.930221162662104,2.762693581884732 L-18.728409863086476,2.8651993388239134 L-18.523778133873968,2.9665987690277964 L-18.316356791810314,3.0668766021151663 L-18.106177073786665,3.166017736613213 L-17.893270632095454,3.2640072422317497 L-17.677669529663696,3.3608303621116544 " />
			<path d="M-24.547250795488043,6.5821600895521435 L-24.411175707176543,6.634249037707777 L-24.270968299799826,6.684134798272718 L-24.126809744954574,6.731752910438069 L-23.978886319785808,6.7770418435787825 L-23.827389166285425,6.819943076761601 L-23.672514044304535,6.860401174363967 L-23.51446107859874,6.898363857706183 L-23.353434500233238,6.933782072604279 L-23.189642382681875,6.966610052756282 L-23.02329637296113,6.996805378879994 L-22.85461141814654,7.024329033525849 L-22.683805487624817,7.049145451494029 L-22.51109929144071,7.07122256579071 L-22.336715995102413,7.090531849064003 L-22.16088093121412,7.10704835046611 L-21.98382130830835,7.120750727894028 L-21.80576591725421,7.131621275567128 L-21.626944835621057,7.139645946906024 L-21.44758913037951,7.144814372683104 L-21.267930559323965,7.147119874421337 L-21.088201271602497,7.146559473023975 L-20.908633507741023,7.143133892624059 L-20.729459299549422,7.136847559648706 L-20.55091017029732,7.127708597099433 L-20.37321683554703,7.115728814055862 L-20.196608905030153,7.100923690416394 L-20.021314585953117,7.083312356895586 L-19.847560388115024,7.062917570304032 L-19.675570831218796,7.0397656841427345 L-19.50556815475391,7.0138866145499374 L-19.337772030825505,6.985313801644438 L-19.172399280301025,6.9540841663153135 L-19.009663592641115,6.920238062513916 L-18.84977524977682,6.883819225109765 L-18.692940854389903,6.844874713377725 L-18.539363062947377,6.803454850189493 L-18.38924032383518,6.759613156987971 L-18.242766620929423,6.713406284628538 L-18.100131222936547,6.6648939401766025 L-17.961518438826253,6.614138809756014 L-17.827107379673254,6.561206477548023 L-17.69707172721558,6.506165341045467 L-17.57157950942852,6.449086522671693 L-17.450792883404148,6.3900437778783905 L-17.33486792581704,6.329113399841128 L-17.223954431246916,6.266374120875705 L-17.118195718618793,6.201907010702742 L-17.017728446010793,6.135795371691938 L-16.922682434068864,6.068124631221366 L-16.833180498256638,5.998982231290911 L-16.749338290157155,5.92845751553247 L-16.671264148031533,5.856641613762922 L-16.59905895682767,5.7836273242290535 L-16.532816017819904,5.709508993696581 L-16.47262092804803,5.634382395538231 L-16.418551469711502,5.558344605978409 L-16.370677509661743,5.481493878654353 L-16.329060909122376,5.403929517655886 L-16.29375544375411,5.325751749207787 L-16.26480673416753,5.247061592160626 L-16.242252186973563,5.167960727457389 L-16.226120946447853,5.08855136674456 L-16.216433856871436,5.008936120297451 L-16.213203435596416,4.929217864430447 " />
			<path d="M-16.213203435596416,4.929217864430437 L-16.214709342115395,4.874784563646224 L-16.219226154570553,4.82038405144701 L-16.226751152202965,4.76604909666718 L-16.23727980223543,4.7118124286517755 L-16.250805762602866,4.657706717541571 L-16.267320885772513,4.603764554593798 L-16.286815223651708,4.550018432550388 L-16.309277033580265,4.496500726065562 L-16.334692785403774,4.443243672204551 L-16.363047169623698,4.390279351025192 L-16.39432310661922,4.337639666254098 L-16.428501756935372,4.285356326069052 L-16.465562532631232,4.233460823999181 L-16.505483109681315,4.181984419954436 L-16.548239441422723,4.130958121395784 L-16.593805773039982,4.080412664657482 L-16.642154657078763,4.030378496432652 L-16.6932569699792,3.980885755433336 L-16.74708192961884,3.931964254236058 L-16.803597113854643,3.883643461323846 L-16.86276848005286,3.8359524833355207 L-16.924560385595058,3.788920047532941 L-16.988935609347884,3.74257448449678 L-17.05585537408369,3.6969437110612366 L-17.19716577819319,3.6079360309594657 L-17.348151168782735,3.5221114345251463 L-17.508447808821625,3.439676680728436 L-17.677669529663664,3.3608303621116695 " />
			<path d="M7.0710678118654755,1.7924428597928914 L-14.142135623730951,-7.617882154119747 " />
			<path d="M-7.071067811865475,-10.754657158757295 L-7.203596728820947,-10.811322383670571 L-7.340737503029327,-10.865785287038415 L-7.482304277086281,-10.917972059055453 L-7.6281051953360475,-10.96781197459968 L-7.777942663880149,-11.01523748908132 L-7.931613618362727,-11.060184329981336 L-8.088909799169624,-11.10259158395553 L-8.249618033668224,-11.142401779386187 L-8.413520525105575,-11.179560964269376 L-8.580395147773267,-11.214018779332374 L-8.75001574803903,-11.245728526282106 L-8.922152450837114,-11.274647231092104 L-9.09657197120207,-11.300735702242239 L-9.27303793042372,-11.32395858383228 L-9.451311176394858,-11.344284403497287 L-9.631150107717575,-11.361685615059944 L-9.81231100112891,-11.376138635861974 L-9.994548341802133,-11.3876238787241 L-10.177615156076012,-11.396125778491179 L-10.361263346161124,-11.401632813126593 L-10.545244026369614,-11.404137519327257 L-10.729307860412778,-11.403636502638125 L-10.91320539930926,-11.40013044205246 L-11.096687419446019,-11.393624089091631 L-11.279505260333844,-11.384126261365722 L-11.46141116159972,-11.371649830623621 L-11.642158598759309,-11.356211705308832 L-11.821502617314536,-11.337832807644636 L-11.999200164723483,-11.316538045279648 L-12.175010419792674,-11.2923562775322 L-12.348695119045386,-11.265320276279303 L-12.520018879623663,-11.235466681543194 L-12.688749518286402,-11.202835951835645 L-12.854658366071247,-11.167472309327348 L-13.017520578193825,-11.129423679916648 L-13.177115438764321,-11.08874162827891 L-13.333226659908446,-11.045481287984465 L-13.48564267488744,-10.999701286779912 L-13.634156924819845,-10.95146366713397 L-13.778568138616441,-10.900833802155628 L-13.91868060574907,-10.847880306998483 L-14.054304441483549,-10.792674945871376 L-14.185255844217307,-10.735292534781312 L-14.311357344573011,-10.675810840140521 L-14.43243804591051,-10.614310473375001 L-14.548333855931245,-10.550874781677438 L-14.658887709061187,-10.485589735052518 L-14.76394977931094,-10.418543809807723 L-14.86337768332454,-10.349827868647525 L-14.95703667334177,-10.279535037533439 L-15.044799819812482,-10.207760579476844 L-15.12654818341543,-10.134601765435624 L-15.202170976248501,-10.060157742489565 L-15.271565711971908,-9.984529399473175 L-15.33463834470082,-9.907819230248023 L-15.391303396459257,-9.830131194799907 L-15.441484073022473,-9.751570578349066 L-15.485112367990855,-9.67224384866441 L-15.522129154954294,-9.59225851177512 L-15.552484267622118,-9.51172296627516 L-15.576136567809993,-9.430746356418165 L-15.593054001191664,-9.34943842420178 L-15.60321364073996,-9.267909360641923 L-15.606601717798213,-9.186269656438542 " />
			<path d="M-15.606601717798213,-9.186269656438522 L-15.605095811279234,-9.13183635565431 L-15.600578998824076,-9.077435843455095 L-15.593054001191664,-9.023100888675264 L-15.582525351159198,-8.96886422065986 L-15.568999390791763,-8.914758509549657 L-15.552484267622118,-8.860816346601885 L-15.53298992974292,-8.807070224558474 L-15.510528119814365,-8.753552518073647 L-15.485112367990856,-8.700295464212637 L-15.456757983770933,-8.647331143033277 L-15.425482046775413,-8.594691458262183 L-15.391303396459257,-8.542408118077137 L-15.354242620763397,-8.490512616007267 L-15.314322043713318,-8.439036211962522 L-15.271565711971908,-8.38800991340387 L-15.225999380354647,-8.337464456665568 L-15.177650496315866,-8.287430288440738 L-15.12654818341543,-8.237937547441422 L-15.072723223775789,-8.189016046244143 L-15.01620803953999,-8.140695253331932 L-14.95703667334177,-8.093004275343608 L-14.895244767799575,-8.045971839541028 L-14.830869544046749,-7.999626276504866 L-14.76394977931094,-7.953995503069323 L-14.622639375201437,-7.864987822967552 L-14.471653984611898,-7.779163226533233 L-14.31135734457301,-7.696728472736522 L-14.142135623730955,-7.6178821541197514 " />
			<path d="M-7.0710678118654755,-10.754657158757293 L14.142135623730951,-1.344332144844655 " />
			<path d="M7.0710678118654755,1.7924428597928919 L7.203596728820948,1.8491080847061687 L7.340737503029329,1.903570988074011 L7.482304277086281,1.955757760091049 L7.628105195336046,2.0055976756352756 L7.777942663880147,2.0530231901169156 L7.931613618362727,2.0979700310169322 L8.088909799169626,2.140377284991127 L8.249618033668224,2.1801874804217833 L8.413520525105573,2.217346665304972 L8.580395147773263,2.25180448036797 L8.750015748039026,2.283514227317701 L8.922152450837112,2.312432932127699 L9.096571971202073,2.338521403277836 L9.27303793042372,2.3617442848678767 L9.451311176394857,2.382070104532884 L9.631150107717572,2.399471316095539 L9.812311001128906,2.4139243368975696 L9.994548341802131,2.4254095797596946 L10.177615156076014,2.4339114795267744 L10.361263346161124,2.4394185141621882 L10.545244026369614,2.441923220362853 L10.729307860412774,2.441422203673722 L10.913205399309257,2.4379161430880556 L11.096687419446017,2.431409790127228 L11.279505260333844,2.421911962401319 L11.46141116159972,2.4094355316592164 L11.642158598759307,2.3939974063444276 L11.821502617314533,2.375618508680233 L11.999200164723478,2.354323746315245 L12.17501041979267,2.3301419785677955 L12.348695119045386,2.3031059773148983 L12.520018879623661,2.27325238257879 L12.688749518286398,2.2406216528712433 L12.854658366071247,2.2052580103629436 L13.017520578193826,2.1672093809522437 L13.177115438764321,2.1265273293145057 L13.333226659908446,2.0832669890200624 L13.48564267488744,2.037486987815509 L13.634156924819841,1.989249368169567 L13.778568138616443,1.9386195031912243 L13.918680605749072,1.88566600803408 L14.054304441483549,1.830460646906971 L14.185255844217307,1.7730782358169086 L14.31135734457301,1.713596541176118 L14.432438045910509,1.6520961744105986 L14.548333855931245,1.5886604827130342 L14.658887709061188,1.5233754360881118 L14.76394977931094,1.4563295108433183 L14.86337768332454,1.3876135696831213 L14.95703667334177,1.317320738569034 L15.044799819812484,1.2455462805124378 L15.12654818341543,1.172387466471219 L15.202170976248503,1.0979434435251614 L15.271565711971908,1.0223151005087705 L15.33463834470082,0.9456049312836201 L15.391303396459257,0.8679168958355032 L15.441484073022473,0.789356279384661 L15.485112367990855,0.7100295497000051 L15.522129154954294,0.630044212810715 L15.552484267622118,0.549508667310757 L15.576136567809993,0.46853205745376303 L15.593054001191664,0.3872241252373767 L15.60321364073996,0.30569506167751864 L15.606601717798213,0.22405535747412877 " />
			<path d="M15.606601717798213,0.22405535747411892 L15.605095811279234,0.16962205668990524 L15.600578998824076,0.11522154449069175 L15.593054001191664,0.06088658971086108 L15.582525351159198,0.006649921695456834 L15.568999390791763,-0.04745578941474721 L15.552484267622118,-0.10139795236252008 L15.53298992974292,-0.1551440744059306 L15.510528119814365,-0.20866178089075643 L15.485112367990856,-0.2619188347517673 L15.456757983770933,-0.3148831559311268 L15.425482046775413,-0.3675228407022201 L15.391303396459257,-0.4198061808872654 L15.354242620763397,-0.47170168295713555 L15.314322043713318,-0.5231780870018813 L15.27156571197191,-0.5742043855605329 L15.225999380354647,-0.6247498422988357 L15.177650496315866,-0.6747840105236659 L15.12654818341543,-0.7242767515229821 L15.072723223775789,-0.7731982527202601 L15.01620803953999,-0.8215190456324712 L14.95703667334177,-0.8692100236207962 L14.895244767799575,-0.9162424594233751 L14.830869544046749,-0.9625880224595367 L14.763949779310941,-1.0082187958950806 L14.62263937520144,-1.097226475996851 L14.471653984611898,-1.1830510724311705 L14.31135734457301,-1.2654858262278814 L14.142135623730967,-1.3443321448446475 " />
			<path d="M16.21320343559642,-13.891432163394839 L16.21320343559642,-4.929217864430421 " />
			<path d="M34.99999999999999,-4.4811071494822015 L34.99999999999999,4.481107149482216 " />
			<path d="M16.213203435596416,4.929217864430436 L16.213203435596416,13.891432163394853 " />
			<path d="M-34.99999999999999,-4.4811071494822015 L-34.99999999999999,4.481107149482216 " />
			<path d="M-16.21320343559642,-13.891432163394839 L-16.21320343559642,-4.929217864430421 " />
			<path d="M-16.213203435596416,4.929217864430436 L-16.213203435596416,13.891432163394853 " />
			<path d="M-15.606601717798213,-9.18626965643852 L-15.606601717798213,-0.22405535747410354 " />
			<path d="M15.606601717798213,0.22405535747411776 L15.606601717798213,9.186269656438535 " />

        </g>

        <!-- solid lines -->
        <g  stroke="rgb(0,0,0)" fill="none">
    			<path d="M0.0,-29.575307186582574 L0.0,-20.61309288761816 " />
			<path d="M0.0,-20.613092887618155 L-56.56854249492381,4.48110714948222 " />
			<path d="M-56.568542494923804,-4.4811071494822015 L-56.568542494923804,4.481107149482216 " />
			<path d="M0.0,-29.575307186582574 L-56.56854249492381,-4.481107149482199 " />
			<path d="M0.0,-29.575307186582574 L56.56854249492381,-4.481107149482199 " />
			<path d="M56.568542494923804,-4.4811071494822015 L56.568542494923804,4.481107149482216 " />
			<path d="M0.0,-20.613092887618155 L56.56854249492381,4.48110714948222 " />
			<path d="M-56.568542494923804,4.481107149482216 L7.105427357601002e-15,29.57530718658259 " />
			<path d="M56.568542494923804,4.481107149482216 L-7.105427357601002e-15,29.57530718658259 " />
			<path d="M17.67766952966369,12.323044661076075 L17.893270632095465,12.22622154119616 L18.10617707378668,12.128232035577621 L18.316356791810325,12.029090901079577 L18.523778133873982,11.928813067992206 L18.728409863086487,11.827413637788325 L18.930221162662114,11.724907880849141 L19.129181640561477,11.621311234164608 L19.325261334068422,11.516639299008657 L19.51843071430236,11.410907838589708 L19.708660690665155,11.30413277567679 L19.895922615222087,11.196330190201627 L20.080188287016117,11.087516316837064 L20.261429956314867,10.977707542552178 L20.439620328789587,10.866920404144473 L20.614732569625627,10.75517158574948 L20.786740307563626,10.642477916328211 L20.955617638870944,10.528856367132756 L21.12133913124267,10.414324049150492 L21.283879827631623,10.298898210527227 L21.44321525000679,10.182596233969685 L21.59932140303966,10.065435634127745 L21.752174777717777,9.94743405495679 L21.901752354885158,9.828609267060596 L22.04803160870887,9.708979165015162 L22.19099051007134,9.588561764673809 L22.330607529887878,9.4673752004541 L22.466861642348842,9.345437722606857 L22.59973232808608,9.222767694467711 L22.729199577263056,9.09938358969169 L22.85524389258826,8.97530398947113 L22.97784629225144,8.850547579737423 L23.096988312782162,8.725133148346984 L23.212652011830382,8.59907958225187 L23.324819970868464,8.472405864655475 L23.433475297814365,8.345131072153723 L23.53860162957551,8.217274371862217 L23.640183134513023,8.08885501852972 L23.738204514825906,7.959892351638487 L23.83265100885484,7.830405792491781 L23.923508393305216,7.700414841289133 L24.01076298538914,7.569939074189641 L24.09440164488599,7.438998140363901 L24.174411776121296,7.307611759034916 L24.250781329863596,7.175799716508435 L24.323498805138996,7.043581863193218 L24.392553250963207,6.910978110611637 L24.457934267990684,6.77800842840108 L24.519632010080752,6.644692841306583 L24.5776371857804,6.511051426165192 L24.631941059723523,6.377104308882454 L24.68253545394645,6.242871661401535 L24.729412749119515,6.108373698665401 L24.772565885694494,5.973630675572517 L24.811988364967743,5.8386628839265375 L24.84767425005889,5.7034906493804325 L24.879618166804914,5.568134328375522 L24.90781530456944,5.432614305075871 L24.932261416967243,5.296950988298506 L24.95295282250372,5.161164808439924 L24.969886405129298,5.025276214399352 L24.98305961470873,4.8893056704992155 L24.992470467405095,4.753273653403285 L24.9981175459786,4.6172006490329665 L24.99999999999999,4.481107149482261 " />
			<path d="M24.99999999999999,4.481107149482212 L24.9981175459786,4.345013649931458 L24.992470467405095,4.208940645561139 L24.983059614708726,4.072908628465209 L24.969886405129298,3.9369380845650714 L24.95295282250372,3.8010494905245 L24.932261416967243,3.6652633106659183 L24.90781530456944,3.529599993888553 L24.87961816680491,3.394079970588902 L24.847674250058887,3.258723649583992 L24.81198836496774,3.1235514150378867 L24.77256588569449,2.9885836233919068 L24.72941274911951,2.853840600299023 L24.682535453946446,2.7193426375628884 L24.63194105972352,2.5851099900819703 L24.577637185780397,2.4511628727992325 L24.519632010080752,2.317521457657841 L24.45793426799068,2.184205870563345 L24.392553250963203,2.051236188352787 L24.323498805138993,1.9186324357712072 L24.25078132986359,1.7864145824559894 L24.174411776121293,1.6546025399295075 L24.094401644885988,1.523216158600523 L24.010762985389135,1.3922752247747834 L23.92350839330521,1.2617994576752922 L23.832651008854835,1.1318085064726429 L23.738204514825902,1.0023219473259366 L23.64018313451302,0.8733592804347032 L23.538601629575506,0.7449399271022084 L23.433475297814358,0.6170832268107009 L23.324819970868457,0.4898084343089506 L23.21265201183038,0.3631347167125547 L23.096988312782155,0.23708115061744106 L22.97784629225143,0.111666719227002 L22.855243892588256,-0.013089690506705054 L22.729199577263046,-0.13716929072726547 L22.59973232808607,-0.26055339550328593 L22.466861642348835,-0.38322342364243056 L22.330607529887875,-0.5051609014896759 L22.190990510071334,-0.6263474657093848 L22.04803160870886,-0.7467648660507358 L21.90175235488515,-0.8663949680961718 L21.752174777717766,-0.9852197559923646 L21.59932140303965,-1.1032213351633189 L21.443215250006784,-1.2203819350052596 L21.283879827631612,-1.336683911562802 L21.12133913124266,-1.4521097501860671 L20.955617638870937,-1.5666420681683304 L20.786740307563615,-1.6802636173637842 L20.614732569625616,-1.7929572867850547 L20.43962032878958,-1.904706105180047 L20.261429956314856,-2.0154932435877537 L20.08018828701611,-2.125302017872637 L19.895922615222077,-2.2341158912372014 L19.708660690665145,-2.3419184767123635 L19.51843071430235,-2.4486935396252827 L19.325261334068415,-2.5544250000442306 L19.129181640561463,-2.659096935200183 L18.930221162662104,-2.762693581884716 L18.728409863086476,-2.8651993388238983 L18.52377813387397,-2.9665987690277813 L18.316356791810314,-3.0668766021151512 L18.106177073786668,-3.1660177366131963 L17.893270632095454,-3.2640072422317363 L17.677669529663756,-3.3608303621116145 " />
			<path d="M24.74873734152916,-6.497605366749193 L24.61620842457369,-6.554270591662469 L24.47906765036531,-6.608733495030312 L24.337500876308358,-6.660920267047349 L24.191699958058592,-6.710760182591576 L24.04186248951449,-6.758185697073216 L23.888191535031908,-6.803132537973234 L23.73089535422501,-6.845539791947429 L23.570187119726413,-6.885349987378085 L23.406284628289065,-6.922509172261273 L23.239410005621377,-6.956966987324272 L23.06978940535561,-6.988676734274002 L22.897652702557522,-7.017595439084001 L22.723233182192562,-7.043683910234138 L22.546767222970917,-7.066906791824179 L22.368493976999783,-7.087232611489185 L22.188655045677066,-7.1046338230518415 L22.007494152265732,-7.1190868438538715 L21.825256811592503,-7.130572086715997 L21.64218999731862,-7.139073986483076 L21.458541807233512,-7.144581021118491 L21.274561127025027,-7.147085727319155 L21.090497292981865,-7.146584710630025 L20.90659975408538,-7.143078650044359 L20.72311773394862,-7.13657229708353 L20.54029989306079,-7.127074469357622 L20.358393991794916,-7.114598038615519 L20.177646554635334,-7.09915991330073 L19.998302536080104,-7.080781015636536 L19.820604988671157,-7.059486253271547 L19.644794733601962,-7.035304485524098 L19.47111003434925,-7.0082684842712 L19.299786273770973,-6.978414889535093 L19.13105563510824,-6.9457841598275465 L18.96514678732339,-6.910420517319247 L18.802284575200808,-6.872371887908547 L18.64268971463031,-6.831689836270808 L18.48657849348619,-6.788429495976365 L18.334162478507196,-6.742649494771811 L18.185648228574795,-6.694411875125871 L18.041237014778194,-6.643782010147528 L17.901124547645562,-6.590828514990383 L17.765500711911084,-6.535623153863273 L17.634549309177324,-6.478240742773211 L17.508447808821625,-6.418759048132421 L17.387367107484128,-6.357258681366902 L17.27147129746339,-6.293822989669338 L17.160917444333446,-6.228537943044415 L17.05585537408369,-6.16149201779962 L16.956427470070093,-6.0927760766394226 L16.862768480052864,-6.022483245525336 L16.77500533358215,-5.950708787468742 L16.693256969979203,-5.877549973427523 L16.61763417714613,-5.803105950481464 L16.548239441422723,-5.727477607465073 L16.485166808693812,-5.650767438239922 L16.428501756935376,-5.573079402791806 L16.37832108037216,-5.494518786340965 L16.334692785403778,-5.415192056656307 L16.29767599844034,-5.335206719767018 L16.267320885772513,-5.254671174267059 L16.24366858558464,-5.173694564410064 L16.22675115220297,-5.092386632193679 L16.216591512654674,-5.010857568633822 L16.21320343559642,-4.929217864430441 " />
			<path d="M16.21320343559642,-4.929217864430421 L16.2147093421154,-4.874784563646207 L16.219226154570556,-4.820384051446993 L16.22675115220297,-4.766049096667162 L16.237279802235435,-4.711812428651759 L16.25080576260287,-4.657706717541555 L16.267320885772513,-4.603764554593782 L16.286815223651715,-4.550018432550372 L16.309277033580265,-4.496500726065546 L16.334692785403778,-4.4432436722045345 L16.363047169623698,-4.390279351025175 L16.39432310661922,-4.3376396662540815 L16.428501756935376,-4.285356326069036 L16.465562532631235,-4.233460823999165 L16.505483109681315,-4.18198441995442 L16.548239441422727,-4.130958121395768 L16.593805773039985,-4.080412664657466 L16.642154657078766,-4.030378496432636 L16.693256969979203,-3.9808857554333192 L16.747081929618844,-3.9319642542360413 L16.803597113854646,-3.88364346132383 L16.862768480052864,-3.8359524833355048 L16.92456038559506,-3.7889200475329257 L16.988935609347884,-3.742574484496764 L17.055855374083695,-3.69694371106122 L17.197165778193195,-3.607936030959449 L17.34815116878274,-3.5221114345251303 L17.50844780882163,-3.43967668072842 L17.67766952966368,-3.360830362111648 " />
			<path d="M24.748737341529132,-6.497605366749206 L25.05057888493361,-6.362052998917332 L25.34864790330131,-6.224867691051377 L25.642899508534423,-6.086070102754106 L25.93328938742353,-5.945681136431793 L26.21977380832103,-5.803721934146364 L26.502309627726923,-5.660213874431503 L26.780854296786032,-5.515178569073153 L27.055365867695752,-5.368637859854826 L27.325803000023257,-5.220613815268304 L27.59212496693118,-5.071128727190211 L27.854291661310892,-4.920205107524979 L28.11226360182253,-4.767865684814596 L28.366001938840785,-4.614133400815752 L28.615468460305408,-4.459031407044958 L28.86062559747585,-4.3025830612919735 L29.10143643058906,-4.14481192410219 L29.337864694419313,-3.985741755228548 L29.56987478373972,-3.8253965100533867 L29.79743175868426,-3.663800335980807 L30.02050135000951,-3.500977568800243 L30.239049964255514,-3.3369527290215313 L30.453044688804887,-3.17175051818219 L30.662453296839224,-3.005395815127521 L30.86724425219241,-2.837913672263916 L31.067386714099868,-2.66932931178603 L31.26285054184302,-2.499668121878438 L31.453606299288374,-2.3289556528922883 L31.6396252593205,-2.157217613497492 L31.82087940816826,-1.9844798668110704 L31.99734144962356,-1.8107684265022792 L32.168984809152015,-1.6361094528750817 L32.33578363789502,-1.4605292489284736 L32.497712816562526,-1.2840542563953212 L32.65474795921585,-1.106711051760361 L32.80686541694011,-0.9285263422579044 L32.95404228140571,-0.7495269618498002 L33.096256388318224,-0.5697398671843148 L33.23348632075626,-0.38919213353658044 L33.36571141239677,-0.20791095073119248 L33.49291175062729,-0.02592361904748941 L33.61506817954478,0.15674245489179128 L33.73216230284038,0.34005976224782763 L33.844176486569815,0.5240006961084123 L33.95109386180903,0.7085375556454796 L34.05289832719459,0.8936425502867911 L34.149574551348486,1.0792878039010096 L34.24110797518696,1.265445358995784 L34.327484814113056,1.4520871809280855 L34.40869206009256,1.6391851621260405 L34.48471748361293,1.8267111263218667 L34.55554963552503,2.014636832795159 L34.62117784876733,2.202933980625753 L34.6815922399723,2.391574212955784 L34.73678371095484,2.580529121260163 L34.78674395008245,2.7697702496247176 L34.83146543352689,2.9592690990315846 L34.87094142639722,3.1489971316510896 L34.90516598375415,3.3389257751394075 L34.93413395150522,3.5290264269414284 L34.95784096718103,3.719270458598222 L34.97628346059222,3.9096292200584073 L34.98945865436714,4.100074043992716 L34.99736456437005,4.290576250111162 L34.99999999999999,4.481107149482074 " />
			<path d="M34.99999999999999,4.4811071494822174 L34.99736456437005,4.671638048853275 L34.98945865436714,4.862140254971714 L34.97628346059223,5.052585078906017 L34.95784096718103,5.24294384036621 L34.93413395150522,5.4331878720230105 L34.90516598375415,5.623288523825026 L34.87094142639722,5.813217167313337 L34.83146543352689,6.002945199932849 L34.78674395008245,6.192444049339724 L34.73678371095484,6.381685177704272 L34.6815922399723,6.570640086008645 L34.62117784876733,6.759280318338684 L34.55554963552503,6.947577466169271 L34.48471748361293,7.135503172642558 L34.40869206009256,7.323029136838391 L34.327484814113056,7.51012711803634 L34.241107975186964,7.696768939968635 L34.14957455134849,7.882926495063417 L34.0528983271946,8.068571748677629 L33.951093861809035,8.253676743318934 L33.844176486569815,8.43821360285601 L33.732162302840386,8.62215453671659 L33.6150681795448,8.805471844072617 L33.4929117506273,8.988137918011907 L33.36571141239678,9.170125249695618 L33.23348632075628,9.351406432500998 L33.09625638831824,9.531954166148726 L32.95404228140572,9.71174126081422 L32.80686541694011,9.890740641222331 L32.654747959215854,10.068925350724783 L32.49771281656254,10.246268555359736 L32.33578363789503,10.422743547892896 L32.168984809152015,10.598323751839512 L31.997341449623566,10.7729827254667 L31.820879408168274,10.946694165775487 L31.639625259320507,11.119431912461916 L31.453606299288374,11.29116995185672 L31.262850541843026,11.461882420842864 L31.06738671409988,11.631543610750452 L30.867244252192418,11.800127971228342 L30.66245329683922,11.967610114091954 L30.45304468880489,12.133964817146618 L30.23904996425553,12.299167027985956 L30.020501350009514,12.463191867764671 L29.797431758684272,12.626014634945232 L29.569874783739742,12.787610809017803 L29.337864694419324,12.947956054192975 L29.101436430589075,13.107026223066608 L28.860625597475877,13.264797360256388 L28.615468460305422,13.42124570600938 L28.36600193884081,13.576347699780168 L28.112263601822566,13.730079983779007 L27.854291661310917,13.882419406489397 L27.592124966931213,14.033343026154625 L27.3258030000233,14.18282811423271 L27.055365867695787,14.33085215881924 L26.780854296786053,14.477392868037573 L26.50230962772695,14.622428173395921 L26.219773808321072,14.765936233110775 L25.93328938742356,14.90789543539621 L25.642899508534445,15.04828440171853 L25.348647903301337,15.187081990015795 L25.050578884933643,15.324267297881747 L24.748737341529186,15.45981966571361 " />
			<path d="M17.67766952966369,12.323044661076075 L17.508447808821632,12.401890979692848 L17.34815116878274,12.484325733489559 L17.197165778193195,12.57015032992388 L17.055855374083695,12.65915801002565 L16.988935609347884,12.704788783461193 L16.92456038559506,12.751134346497356 L16.862768480052864,12.798166782299933 L16.803597113854646,12.84585776028826 L16.747081929618844,12.89417855320047 L16.693256969979203,12.943100054397748 L16.642154657078766,12.992592795397066 L16.593805773039985,13.042626963621895 L16.548239441422723,13.093172420360197 L16.505483109681315,13.144198718918851 L16.465562532631235,13.195675122963596 L16.428501756935372,13.247570625033466 L16.39432310661922,13.299853965218512 L16.363047169623698,13.352493649989604 L16.334692785403774,13.405457971168964 L16.309277033580265,13.458715025029976 L16.28681522365171,13.512232731514802 L16.267320885772513,13.565978853558212 L16.250805762602866,13.619921016505987 L16.23727980223543,13.674026727616189 L16.226751152202965,13.728263395631593 L16.219226154570553,13.782598350411426 L16.214709342115395,13.836998862610638 L16.213203435596416,13.891432163394834 " />
			<path d="M16.213203435596416,13.891432163394853 L16.216591512654666,13.973071867598254 L16.226751152202965,14.054600931158111 L16.243668585584636,14.135908863374498 L16.267320885772513,14.21688547323149 L16.297675998440333,14.29742101873145 L16.334692785403774,14.377406355620739 L16.378321080372157,14.456733085305396 L16.428501756935372,14.535293701756238 L16.48516680869381,14.612981737204356 L16.548239441422723,14.689691906429506 L16.61763417714613,14.765320249445896 L16.6932569699792,14.839764272391955 L16.775005333582147,14.912923086433173 L16.862768480052857,14.98469754448977 L16.95642747007009,15.054990375603857 L17.05585537408369,15.123706316764054 L17.160917444333442,15.190752242008848 L17.271471297463385,15.25603728863377 L17.387367107484124,15.319472980331334 L17.50844780882162,15.380973347096853 L17.634549309177324,15.440455041737644 L17.765500711911084,15.497837452827707 L17.90112454764556,15.553042813954814 L18.04123701477819,15.60599630911196 L18.18564822857479,15.656626174090302 L18.334162478507192,15.704863793736244 L18.486578493486185,15.750643794940798 L18.642689714630308,15.793904135235241 L18.802284575200805,15.83458618687298 L18.965146787323384,15.872634816283679 L19.131055635108233,15.907998458791978 L19.29978627377097,15.940629188499525 L19.471110034349245,15.970482783235633 L19.644794733601962,15.99751878448853 L19.820604988671153,16.02170055223598 L19.9983025360801,16.04299531460097 L20.177646554635327,16.061374212265164 L20.358393991794912,16.076812337579952 L20.54029989306079,16.089288768322053 L20.723117733948616,16.09878659604796 L20.906599754085377,16.105292949008792 L21.09049729298186,16.108799009594456 L21.27456112702502,16.109300026283588 L21.45854180723351,16.106795320082924 L21.64218999731862,16.10128828544751 L21.8252568115925,16.09278638568043 L22.00749415226573,16.081301142818305 L22.188655045677063,16.066848122016275 L22.368493976999776,16.049446910453618 L22.546767222970914,16.02912109078861 L22.723233182192562,16.00589820919857 L22.897652702557522,15.979809738048433 L23.069789405355607,15.950891033238435 L23.23941000562137,15.919181286288705 L23.406284628289058,15.884723471225705 L23.57018711972641,15.847564286342518 L23.73089535422501,15.80775409091186 L23.888191535031908,15.765346836937665 L24.041862489514486,15.72039999603765 L24.19169995805859,15.67297448155601 L24.337500876308354,15.623134566011782 L24.4790676503653,15.570947793994744 L24.616208424573685,15.516484890626902 L24.748737341529143,15.459819665713631 " />
			<path d="M-24.748737341529154,15.459819665713624 L-25.050578884933643,15.324267297881747 L-25.34864790330133,15.187081990015798 L-25.642899508534438,15.048284401718533 L-25.933289387423553,14.907895435396213 L-26.21977380832106,14.765936233110779 L-26.502309627726945,14.622428173395921 L-26.780854296786057,14.477392868037573 L-27.055365867695787,14.33085215881924 L-27.3258030000233,14.18282811423271 L-27.59212496693122,14.033343026154622 L-27.854291661310924,13.88241940648939 L-28.11226360182257,13.730079983779003 L-28.366001938840817,13.576347699780165 L-28.615468460305426,13.421245706009376 L-28.86062559747588,13.264797360256388 L-29.10143643058908,13.107026223066608 L-29.337864694419324,12.947956054192971 L-29.569874783739742,12.787610809017803 L-29.797431758684272,12.626014634945232 L-30.02050135000951,12.463191867764673 L-30.239049964255525,12.299167027985956 L-30.453044688804887,12.13396481714662 L-30.662453296839217,11.967610114091958 L-30.867244252192414,11.800127971228346 L-31.067386714099875,11.631543610750454 L-31.262850541843022,11.461882420842867 L-31.45360629928837,11.291169951856723 L-31.6396252593205,11.119431912461922 L-31.820879408168267,10.946694165775494 L-31.99734144962356,10.772982725466708 L-32.168984809152015,10.598323751839512 L-32.33578363789503,10.422743547892898 L-32.49771281656253,10.246268555359737 L-32.654747959215854,10.068925350724777 L-32.80686541694012,9.890740641222328 L-32.95404228140572,9.711741260814218 L-33.096256388318245,9.531954166148724 L-33.23348632075628,9.351406432500998 L-33.36571141239678,9.170125249695616 L-33.4929117506273,8.988137918011907 L-33.6150681795448,8.805471844072619 L-33.732162302840386,8.62215453671659 L-33.844176486569815,8.43821360285601 L-33.951093861809035,8.253676743318938 L-34.0528983271946,8.068571748677632 L-34.149574551348486,7.88292649506342 L-34.24110797518696,7.6967689399686385 L-34.327484814113056,7.510127118036344 L-34.40869206009256,7.323029136838397 L-34.48471748361293,7.135503172642562 L-34.55554963552503,6.947577466169277 L-34.621177848767324,6.75928031833869 L-34.68159223997229,6.570640086008652 L-34.73678371095484,6.38168517770428 L-34.78674395008245,6.192444049339725 L-34.83146543352688,6.002945199932851 L-34.87094142639722,5.81321716731334 L-34.90516598375415,5.623288523825022 L-34.93413395150522,5.433187872023008 L-34.95784096718103,5.242943840366207 L-34.97628346059223,5.052585078906016 L-34.98945865436714,4.862140254971713 L-34.99736456437005,4.671638048853274 L-34.99999999999999,4.481107149482287 " />
			<path d="M-34.99999999999999,4.4811071494822174 L-34.99736456437005,4.290576250111161 L-34.98945865436714,4.100074043992722 L-34.97628346059223,3.9096292200584197 L-34.95784096718103,3.7192704585982277 L-34.93413395150522,3.529026426941427 L-34.90516598375415,3.3389257751394132 L-34.87094142639722,3.148997131651095 L-34.83146543352689,2.9592690990315837 L-34.78674395008245,2.7697702496247096 L-34.73678371095484,2.580529121260155 L-34.6815922399723,2.391574212955783 L-34.621177848767324,2.2029339806257453 L-34.55554963552503,2.0146368327951576 L-34.48471748361293,1.826711126321872 L-34.40869206009256,1.6391851621260392 L-34.327484814113056,1.4520871809280913 L-34.241107975186964,1.2654453589957964 L-34.14957455134849,1.079287803901015 L-34.0528983271946,0.8936425502868035 L-33.951093861809035,0.7085375556454987 L-33.84417648656982,0.5240006961084243 L-33.73216230284039,0.3400597622478463 L-33.6150681795448,0.15674245489181704 L-33.49291175062731,-0.02592361904747076 L-33.365711412396784,-0.20791095073118093 L-33.23348632075628,-0.3891921335365618 L-33.096256388318245,-0.569739867184289 L-32.95404228140573,-0.7495269618497824 L-32.80686541694012,-0.928526342257892 L-32.65474795921586,-1.1067110517603425 L-32.49771281656254,-1.2840542563953026 L-32.335783637895034,-1.460529248928463 L-32.168984809152015,-1.6361094528750764 L-31.997341449623562,-1.8107684265022739 L-31.82087940816827,-1.984479866811058 L-31.639625259320503,-2.1572176134974868 L-31.453606299288374,-2.3289556528922892 L-31.262850541843026,-2.4996681218784333 L-31.06738671409988,-2.6693293117860195 L-30.867244252192418,-2.8379136722639116 L-30.66245329683922,-3.005395815127522 L-30.45304468880489,-3.1717505181821846 L-30.23904996425553,-3.3369527290215215 L-30.020501350009514,-3.500977568800238 L-29.797431758684276,-3.663800335980798 L-29.569874783739746,-3.825396510053369 L-29.337864694419327,-3.9857417552285375 L-29.101436430589082,-4.144811924102174 L-28.860625597475885,-4.302583061291954 L-28.61546846030543,-4.45903140704494 L-28.36600193884082,-4.614133400815729 L-28.112263601822576,-4.767865684814569 L-27.854291661310928,-4.920205107524958 L-27.592124966931227,-5.071128727190186 L-27.325803000023303,-5.220613815268277 L-27.05536586769579,-5.368637859854805 L-26.78085429678606,-5.5151785690731385 L-26.502309627726948,-5.6602138744314905 L-26.21977380832107,-5.803721934146345 L-25.93328938742356,-5.945681136431781 L-25.64289950853444,-6.086070102754099 L-25.348647903301337,-6.2248676910513625 L-25.05057888493365,-6.362052998917313 L-24.74873734152927,-6.497605366749142 " />
			<path d="M-17.67766952966369,-3.3608303621116447 L-17.50844780882163,-3.439676680728418 L-17.34815116878274,-3.5221114345251285 L-17.1971657781932,-3.607936030959448 L-17.0558553740837,-3.696943711061218 L-16.98893560934789,-3.7425744844967617 L-16.924560385595065,-3.7889200475329243 L-16.862768480052864,-3.835952483335504 L-16.803597113854646,-3.883643461323829 L-16.747081929618844,-3.93196425423604 L-16.693256969979206,-3.980885755433318 L-16.64215465707877,-4.030378496432634 L-16.59380577303999,-4.080412664657464 L-16.548239441422727,-4.130958121395767 L-16.505483109681315,-4.181984419954419 L-16.46556253263124,-4.233460823999165 L-16.428501756935376,-4.285356326069034 L-16.394323106619222,-4.33763966625408 L-16.363047169623698,-4.390279351025174 L-16.334692785403778,-4.4432436722045345 L-16.309277033580265,-4.496500726065546 L-16.286815223651715,-4.550018432550371 L-16.267320885772513,-4.6037645545937815 L-16.25080576260287,-4.657706717541554 L-16.237279802235435,-4.711812428651759 L-16.22675115220297,-4.766049096667163 L-16.219226154570556,-4.820384051446993 L-16.2147093421154,-4.874784563646207 L-16.21320343559642,-4.929217864430411 " />
			<path d="M-16.21320343559642,-4.929217864430421 L-16.216591512654674,-5.0108575686338215 L-16.22675115220297,-5.09238663219368 L-16.24366858558464,-5.173694564410065 L-16.267320885772513,-5.2546711742670595 L-16.29767599844034,-5.335206719767018 L-16.334692785403774,-5.4151920566563065 L-16.37832108037216,-5.494518786340964 L-16.428501756935376,-5.573079402791806 L-16.485166808693812,-5.650767438239923 L-16.548239441422727,-5.727477607465074 L-16.61763417714613,-5.803105950481464 L-16.693256969979203,-5.877549973427522 L-16.77500533358215,-5.950708787468741 L-16.862768480052864,-6.022483245525336 L-16.956427470070093,-6.092776076639424 L-17.055855374083695,-6.161492017799621 L-17.160917444333446,-6.228537943044415 L-17.27147129746339,-6.293822989669337 L-17.387367107484128,-6.357258681366902 L-17.508447808821625,-6.418759048132422 L-17.634549309177327,-6.478240742773212 L-17.765500711911088,-6.535623153863274 L-17.901124547645562,-6.590828514990383 L-18.041237014778194,-6.643782010147528 L-18.185648228574795,-6.694411875125871 L-18.334162478507196,-6.742649494771812 L-18.486578493486192,-6.7884294959763665 L-18.642689714630315,-6.831689836270808 L-18.802284575200808,-6.872371887908546 L-18.965146787323388,-6.910420517319246 L-19.131055635108236,-6.9457841598275465 L-19.299786273770977,-6.9784148895350935 L-19.471110034349252,-7.008268484271202 L-19.644794733601966,-7.035304485524099 L-19.820604988671157,-7.059486253271547 L-19.998302536080104,-7.080781015636536 L-20.17764655463533,-7.09915991330073 L-20.35839399179492,-7.114598038615519 L-20.540299893060798,-7.127074469357622 L-20.723117733948623,-7.13657229708353 L-20.906599754085377,-7.143078650044359 L-21.090497292981862,-7.146584710630025 L-21.274561127025024,-7.147085727319155 L-21.458541807233516,-7.144581021118491 L-21.642189997318628,-7.139073986483076 L-21.825256811592507,-7.130572086715997 L-22.00749415226573,-7.1190868438538715 L-22.188655045677066,-7.1046338230518415 L-22.36849397699978,-7.087232611489186 L-22.546767222970917,-7.066906791824179 L-22.72323318219257,-7.0436839102341375 L-22.897652702557526,-7.017595439084001 L-23.06978940535561,-6.988676734274003 L-23.239410005621373,-6.956966987324272 L-23.406284628289065,-6.9225091722612735 L-23.570187119726416,-6.885349987378084 L-23.730895354225016,-6.845539791947427 L-23.88819153503191,-6.803132537973233 L-24.04186248951449,-6.758185697073217 L-24.191699958058592,-6.710760182591577 L-24.337500876308358,-6.6609202670473495 L-24.47906765036531,-6.608733495030311 L-24.616208424573692,-6.554270591662467 L-24.748737341529132,-6.497605366749205 " />
			<path d="M-17.677669529663664,-3.360830362111656 L-17.893270632095433,-3.264007242231746 L-18.106177073786647,-3.166017736613207 L-18.3163567918103,-3.0668766021151566 L-18.52377813387395,-2.966598769027791 L-18.728409863086448,-2.8651993388239125 L-18.930221162662086,-2.762693581884726 L-19.12918164056145,-2.659096935200189 L-19.325261334068394,-2.554425000044242 L-19.518430714302323,-2.448693539625297 L-19.708660690665127,-2.341918476712375 L-19.895922615222066,-2.2341158912372086 L-20.080188287016092,-2.1253020178726496 L-20.261429956314846,-2.015493243587761 L-20.439620328789573,-1.9047061051800505 L-20.614732569625605,-1.7929572867850627 L-20.786740307563612,-1.6802636173637886 L-20.955617638870937,-1.5666420681683295 L-21.121339131242657,-1.4521097501860707 L-21.283879827631612,-1.3366839115628002 L-21.44321525000679,-1.2203819350052543 L-21.59932140303965,-1.103221335163318 L-21.752174777717777,-0.9852197559923592 L-21.901752354885158,-0.8663949680961673 L-22.04803160870886,-0.7467648660507349 L-22.19099051007133,-0.6263474657093884 L-22.330607529887867,-0.5051609014896794 L-22.466861642348835,-0.3832234236424297 L-22.59973232808607,-0.2605533955032895 L-22.72919957726304,-0.13716929072727346 L-22.855243892588252,-0.013089690506708607 L-22.97784629225143,0.11166671922700377 L-23.096988312782152,0.2370811506174375 L-23.212652011830368,0.3631347167125467 L-23.324819970868457,0.48980843430894705 L-23.43347529781436,0.6170832268107018 L-23.538601629575503,0.7449399271022048 L-23.640183134513013,0.8733592804346944 L-23.7382045148259,1.002321947325933 L-23.832651008854832,1.1318085064726384 L-23.923508393305205,1.2617994576752833 L-24.010762985389125,1.3922752247747696 L-24.09440164488598,1.5232161586005102 L-24.17441177612129,1.654602539929499 L-24.250781329863585,1.786414582455976 L-24.32349880513899,1.9186324357711984 L-24.3925532509632,2.051236188352783 L-24.457934267990677,2.184205870563336 L-24.51963201008075,2.317521457657837 L-24.577637185780397,2.4511628727992334 L-24.631941059723516,2.5851099900819667 L-24.682535453946446,2.7193426375628897 L-24.729412749119515,2.853840600299028 L-24.77256588569449,2.988583623391907 L-24.81198836496774,3.123551415037893 L-24.84767425005889,3.2587236495840024 L-24.879618166804914,3.394079970588908 L-24.90781530456944,3.5295999938885543 L-24.932261416967243,3.6652633106659245 L-24.95295282250372,3.8010494905245107 L-24.969886405129298,3.936938084565077 L-24.983059614708726,4.07290862846521 L-24.992470467405095,4.208940645561144 L-24.9981175459786,4.345013649931463 L-24.99999999999999,4.481107149482114 " />
			<path d="M-24.99999999999999,4.481107149482216 L-24.9981175459786,4.617200649032971 L-24.992470467405095,4.753273653403285 L-24.98305961470873,4.8893056704992155 L-24.969886405129298,5.025276214399353 L-24.95295282250372,5.161164808439926 L-24.932261416967243,5.296950988298508 L-24.90781530456944,5.432614305075873 L-24.879618166804914,5.568134328375525 L-24.84767425005889,5.703490649380435 L-24.81198836496774,5.838662883926541 L-24.77256588569449,5.9736306755725215 L-24.729412749119515,6.108373698665407 L-24.682535453946446,6.242871661401541 L-24.63194105972352,6.377104308882459 L-24.577637185780397,6.5110514261651975 L-24.519632010080752,6.64469284130659 L-24.45793426799068,6.778008428401087 L-24.392553250963203,6.910978110611645 L-24.323498805138993,7.043581863193225 L-24.25078132986359,7.175799716508443 L-24.174411776121293,7.307611759034925 L-24.094401644885984,7.4389981403639105 L-24.010762985389135,7.569939074189646 L-23.92350839330521,7.700414841289138 L-23.832651008854835,7.8304057924917885 L-23.738204514825906,7.959892351638489 L-23.640183134513023,8.088855018529724 L-23.538601629575506,8.217274371862219 L-23.43347529781436,8.345131072153727 L-23.32481997086846,8.472405864655478 L-23.21265201183038,8.599079582251873 L-23.09698831278216,8.725133148346988 L-22.97784629225143,8.850547579737427 L-22.855243892588256,8.975303989471136 L-22.729199577263046,9.099383589691698 L-22.59973232808607,9.222767694467718 L-22.466861642348835,9.345437722606862 L-22.33060752988787,9.467375200454107 L-22.19099051007134,9.588561764673813 L-22.048031608708865,9.708979165015165 L-21.901752354885154,9.828609267060601 L-21.752174777717777,9.94743405495679 L-21.59932140303966,10.065435634127745 L-21.44321525000679,10.182596233969686 L-21.28387982763162,10.298898210527227 L-21.121339131242667,10.414324049150494 L-20.955617638870937,10.528856367132757 L-20.78674030756362,10.642477916328215 L-20.61473256962562,10.755171585749483 L-20.439620328789584,10.866920404144476 L-20.26142995631486,10.977707542552183 L-20.08018828701611,11.087516316837068 L-19.89592261522208,11.196330190201632 L-19.708660690665145,11.304132775676795 L-19.51843071430235,11.410907838589711 L-19.325261334068415,11.516639299008663 L-19.129181640561463,11.621311234164615 L-18.930221162662104,11.724907880849148 L-18.728409863086476,11.82741363778833 L-18.523778133873968,11.928813067992213 L-18.316356791810314,12.029090901079584 L-18.106177073786665,12.12823203557763 L-17.893270632095454,12.226221541196168 L-17.677669529663696,12.323044661076072 " />
			<path d="M-24.748737341529157,15.459819665713624 L-24.616208424573685,15.516484890626902 L-24.479067650365305,15.570947793994744 L-24.337500876308354,15.623134566011782 L-24.19169995805859,15.67297448155601 L-24.041862489514486,15.72039999603765 L-23.888191535031908,15.765346836937665 L-23.73089535422501,15.80775409091186 L-23.57018711972641,15.847564286342516 L-23.406284628289058,15.884723471225705 L-23.23941000562137,15.919181286288703 L-23.06978940535561,15.950891033238435 L-22.897652702557522,15.979809738048433 L-22.723233182192562,16.00589820919857 L-22.546767222970914,16.02912109078861 L-22.368493976999776,16.049446910453618 L-22.188655045677063,16.066848122016275 L-22.00749415226573,16.081301142818305 L-21.825256811592503,16.09278638568043 L-21.64218999731862,16.10128828544751 L-21.458541807233512,16.106795320082924 L-21.27456112702502,16.109300026283588 L-21.09049729298186,16.108799009594456 L-20.906599754085377,16.105292949008792 L-20.723117733948616,16.09878659604796 L-20.54029989306079,16.089288768322053 L-20.358393991794912,16.076812337579952 L-20.177646554635327,16.061374212265164 L-19.9983025360801,16.04299531460097 L-19.820604988671153,16.02170055223598 L-19.644794733601962,15.99751878448853 L-19.47111003434925,15.970482783235633 L-19.29978627377097,15.940629188499525 L-19.131055635108233,15.907998458791978 L-18.965146787323388,15.872634816283679 L-18.802284575200805,15.83458618687298 L-18.64268971463031,15.793904135235241 L-18.486578493486185,15.750643794940798 L-18.334162478507192,15.704863793736244 L-18.18564822857479,15.656626174090302 L-18.04123701477819,15.60599630911196 L-17.90112454764556,15.553042813954814 L-17.765500711911084,15.497837452827707 L-17.634549309177324,15.440455041737644 L-17.50844780882162,15.380973347096853 L-17.387367107484124,15.319472980331334 L-17.271471297463385,15.25603728863377 L-17.160917444333442,15.190752242008847 L-17.05585537408369,15.123706316764054 L-16.956427470070093,15.054990375603857 L-16.862768480052857,14.98469754448977 L-16.775005333582147,14.912923086433173 L-16.6932569699792,14.839764272391955 L-16.617634177146126,14.765320249445896 L-16.548239441422723,14.689691906429506 L-16.485166808693812,14.612981737204356 L-16.428501756935372,14.535293701756238 L-16.378321080372157,14.456733085305396 L-16.334692785403774,14.37740635562074 L-16.297675998440333,14.29742101873145 L-16.267320885772513,14.21688547323149 L-16.243668585584636,14.135908863374498 L-16.226751152202965,14.054600931158111 L-16.216591512654666,13.973071867598254 L-16.213203435596416,13.891432163394864 " />
			<path d="M-16.213203435596416,13.891432163394853 L-16.214709342115395,13.83699886261064 L-16.219226154570553,13.782598350411426 L-16.226751152202965,13.728263395631595 L-16.23727980223543,13.67402672761619 L-16.250805762602866,13.619921016505987 L-16.267320885772513,13.565978853558214 L-16.286815223651708,13.512232731514803 L-16.309277033580265,13.458715025029978 L-16.334692785403774,13.405457971168968 L-16.363047169623698,13.352493649989608 L-16.39432310661922,13.299853965218514 L-16.428501756935372,13.247570625033468 L-16.465562532631232,13.195675122963596 L-16.505483109681315,13.144198718918851 L-16.548239441422723,13.0931724203602 L-16.593805773039982,13.042626963621897 L-16.642154657078763,12.99259279539707 L-16.6932569699792,12.943100054397753 L-16.74708192961884,12.894178553200474 L-16.803597113854643,12.845857760288263 L-16.86276848005286,12.798166782299937 L-16.924560385595058,12.751134346497357 L-16.988935609347884,12.704788783461197 L-17.05585537408369,12.659158010025653 L-17.19716577819319,12.570150329923882 L-17.348151168782735,12.484325733489563 L-17.508447808821625,12.401890979692851 L-17.677669529663664,12.323044661076086 " />
			<path d="M7.0710678118654755,10.754657158757308 L-14.142135623730951,1.3443321448446692 " />
			<path d="M-7.071067811865475,-1.7924428597928777 L-7.203596728820947,-1.849108084706154 L-7.340737503029327,-1.9035709880739964 L-7.482304277086281,-1.9557577600910347 L-7.6281051953360475,-2.0055976756352623 L-7.777942663880149,-2.0530231901169023 L-7.931613618362727,-2.097970031016918 L-8.088909799169624,-2.1403772849911125 L-8.249618033668224,-2.180187480421769 L-8.413520525105575,-2.217346665304958 L-8.580395147773267,-2.2518044803679564 L-8.75001574803903,-2.283514227317687 L-8.922152450837114,-2.312432932127685 L-9.09657197120207,-2.338521403277822 L-9.27303793042372,-2.3617442848678625 L-9.451311176394858,-2.38207010453287 L-9.631150107717575,-2.399471316095525 L-9.81231100112891,-2.413924336897556 L-9.994548341802133,-2.425409579759681 L-10.177615156076012,-2.4339114795267602 L-10.361263346161124,-2.439418514162174 L-10.545244026369614,-2.4419232203628387 L-10.729307860412778,-2.441422203673708 L-10.91320539930926,-2.4379161430880414 L-11.096687419446019,-2.431409790127214 L-11.279505260333844,-2.4219119624013046 L-11.46141116159972,-2.409435531659202 L-11.642158598759309,-2.3939974063444134 L-11.821502617314536,-2.375618508680218 L-11.999200164723483,-2.35432374631523 L-12.175010419792674,-2.3301419785677813 L-12.348695119045386,-2.303105977314884 L-12.520018879623663,-2.2732523825787756 L-12.688749518286402,-2.240621652871228 L-12.854658366071247,-2.20525801036293 L-13.017520578193825,-2.1672093809522304 L-13.177115438764321,-2.1265273293144915 L-13.333226659908446,-2.083266989020048 L-13.48564267488744,-2.0374869878154938 L-13.634156924819845,-1.989249368169552 L-13.778568138616441,-1.9386195031912106 L-13.91868060574907,-1.8856660080340664 L-14.054304441483549,-1.830460646906957 L-14.185255844217307,-1.7730782358168946 L-14.311357344573011,-1.7135965411761034 L-14.43243804591051,-1.652096174410583 L-14.548333855931245,-1.58866048271302 L-14.658887709061187,-1.5233754360880987 L-14.76394977931094,-1.456329510843304 L-14.86337768332454,-1.3876135696831065 L-14.95703667334177,-1.31732073856902 L-15.044799819812482,-1.2455462805124256 L-15.12654818341543,-1.172387466471206 L-15.202170976248501,-1.0979434435251472 L-15.271565711971908,-1.0223151005087567 L-15.33463834470082,-0.9456049312836053 L-15.391303396459257,-0.8679168958354894 L-15.441484073022473,-0.789356279384648 L-15.485112367990855,-0.7100295496999912 L-15.522129154954294,-0.6300442128107011 L-15.552484267622118,-0.5495086673107421 L-15.576136567809993,-0.46853205745374715 L-15.593054001191664,-0.3872241252373628 L-15.60321364073996,-0.3056950616775057 L-15.606601717798213,-0.22405535747412467 " />
			<path d="M-15.606601717798213,-0.22405535747410443 L-15.605095811279234,-0.16962205668989055 L-15.600578998824076,-0.1152215444906769 L-15.593054001191664,-0.06088658971084604 L-15.582525351159198,-0.006649921695442568 L-15.568999390791763,0.04745578941476064 L-15.552484267622118,0.10139795236253374 L-15.53298992974292,0.15514407440594435 L-15.510528119814365,0.20866178089077042 L-15.485112367990856,0.2619188347517815 L-15.456757983770933,0.31488315593114113 L-15.425482046775413,0.3675228407022345 L-15.391303396459257,0.41980618088728006 L-15.354242620763397,0.47170168295715054 L-15.314322043713318,0.5231780870018964 L-15.271565711971908,0.5742043855605481 L-15.225999380354647,0.6247498422988502 L-15.177650496315866,0.6747840105236796 L-15.12654818341543,0.7242767515229961 L-15.072723223775789,0.7731982527202741 L-15.01620803953999,0.8215190456324855 L-14.95703667334177,0.8692100236208107 L-14.895244767799575,0.9162424594233896 L-14.830869544046749,0.9625880224595513 L-14.76394977931094,1.0082187958950952 L-14.622639375201437,1.0972264759968662 L-14.471653984611898,1.1830510724311853 L-14.31135734457301,1.2654858262278954 L-14.142135623730955,1.344332144844667 " />
			<path d="M-7.0710678118654755,-1.7924428597928772 L14.142135623730951,7.617882154119761 " />
			<path d="M7.0710678118654755,10.75465715875731 L7.203596728820948,10.811322383670587 L7.340737503029329,10.86578528703843 L7.482304277086281,10.917972059055467 L7.628105195336046,10.967811974599694 L7.777942663880147,11.015237489081333 L7.931613618362727,11.06018432998135 L8.088909799169626,11.102591583955546 L8.249618033668224,11.142401779386201 L8.413520525105573,11.17956096426939 L8.580395147773263,11.214018779332388 L8.750015748039026,11.245728526282118 L8.922152450837112,11.274647231092118 L9.096571971202073,11.300735702242253 L9.27303793042372,11.323958583832294 L9.451311176394857,11.344284403497301 L9.631150107717572,11.361685615059958 L9.812311001128906,11.376138635861988 L9.994548341802131,11.387623878724114 L10.177615156076014,11.396125778491193 L10.361263346161124,11.401632813126607 L10.545244026369614,11.404137519327271 L10.729307860412774,11.40363650263814 L10.913205399309257,11.400130442052474 L11.096687419446017,11.393624089091645 L11.279505260333844,11.384126261365736 L11.46141116159972,11.371649830623635 L11.642158598759307,11.356211705308846 L11.821502617314533,11.33783280764465 L11.999200164723478,11.316538045279664 L12.17501041979267,11.292356277532214 L12.348695119045386,11.265320276279317 L12.520018879623661,11.235466681543208 L12.688749518286398,11.202835951835661 L12.854658366071247,11.167472309327362 L13.017520578193826,11.129423679916663 L13.177115438764321,11.088741628278923 L13.333226659908446,11.04548128798448 L13.48564267488744,10.999701286779926 L13.634156924819841,10.951463667133986 L13.778568138616443,10.900833802155642 L13.918680605749072,10.847880306998498 L14.054304441483549,10.79267494587139 L14.185255844217307,10.735292534781326 L14.31135734457301,10.675810840140535 L14.432438045910509,10.614310473375017 L14.548333855931245,10.550874781677452 L14.658887709061188,10.48558973505253 L14.76394977931094,10.418543809807737 L14.86337768332454,10.34982786864754 L14.95703667334177,10.279535037533453 L15.044799819812484,10.207760579476856 L15.12654818341543,10.134601765435637 L15.202170976248503,10.06015774248958 L15.271565711971908,9.984529399473189 L15.33463834470082,9.907819230248037 L15.391303396459257,9.830131194799922 L15.441484073022473,9.75157057834908 L15.485112367990855,9.672243848664424 L15.522129154954294,9.592258511775134 L15.552484267622118,9.511722966275174 L15.576136567809993,9.430746356418181 L15.593054001191664,9.349438424201795 L15.60321364073996,9.267909360641937 L15.606601717798213,9.186269656438547 " />
			<path d="M15.606601717798213,9.186269656438537 L15.605095811279234,9.131836355654324 L15.600578998824076,9.07743584345511 L15.593054001191664,9.023100888675279 L15.582525351159198,8.968864220659874 L15.568999390791763,8.91475850954967 L15.552484267622118,8.860816346601897 L15.53298992974292,8.807070224558487 L15.510528119814365,8.753552518073661 L15.485112367990856,8.700295464212651 L15.456757983770933,8.647331143033291 L15.425482046775413,8.594691458262197 L15.391303396459257,8.542408118077153 L15.354242620763397,8.490512616007283 L15.314322043713318,8.439036211962536 L15.27156571197191,8.388009913403884 L15.225999380354647,8.337464456665582 L15.177650496315866,8.287430288440753 L15.12654818341543,8.237937547441437 L15.072723223775789,8.189016046244157 L15.01620803953999,8.140695253331947 L14.95703667334177,8.093004275343622 L14.895244767799575,8.045971839541043 L14.830869544046749,7.999626276504881 L14.763949779310941,7.953995503069337 L14.62263937520144,7.864987822967567 L14.471653984611898,7.779163226533248 L14.31135734457301,7.696728472736536 L14.142135623730967,7.617882154119771 " />
			<path d="M24.99999999999999,-4.481107149482205 L24.998226105399162,-4.613218329136466 L24.992904673332852,-4.745310760686069 L24.984036458973826,-4.8773656986869165 L24.971622720824286,-5.009364403015687 L24.955665220537284,-5.141288141529267 L24.936166222666703,-5.273118192723052 L24.91312849434591,-5.404835848387766 L24.886555304895055,-5.536422416264355 L24.856450425357117,-5.667859222696632 L24.822818127962766,-5.799127615281288 L24.785663185524058,-5.9302089655148995 L24.744990870757135,-6.0610846714375155 L24.700806955533963,-6.191736160272481 L24.65311771006324,-6.322144891062142 L24.601929902000563,-6.452292357299027 L24.547250795488065,-6.582160089552078 " />
			<path d="M33.51058315925685,7.105427357601002e-15 L33.35111252806589,0.22830467093370999 L33.18373833833877,0.4554933037753637 L33.00850025447063,0.6815120592817658 L32.82543980444506,0.9063073754476658 L32.63460036999277,1.129825980198901 L32.436027176310965,1.3520149040168343 L32.22976728134587,1.5728214924910926 L32.01586956464092,1.792193418797626 L31.794384715753285,2.010078696099133 L31.565365222241397,2.226425689864926 L31.328865357226483,2.441183130107298 L31.08494116653085,2.6543001235315016 L30.833650455396175,2.8657261655964614 L30.575052774784762,3.0754111524833565 L30.30920940726715,3.283305392969247 L30.036183352499343,3.489359620202908 L29.756039312293133,3.693525003380116 L29.46884367528303,3.895753159315583 L29.174664501193472,4.095996163908823 L28.873571504710018,4.294206563501224 L28.5656360389583,4.490337386121628 L28.250931078594775,4.684342152617778 L27.92953120251313,4.876174887670946 L27.601512576170578,5.065790130691192 L27.266952933538125,5.253142946590631 L26.925931558679146,5.438188936432163 L26.57852926696063,5.620884247951145 L26.22482838590151,5.801185585947528 L25.864912735662667,5.9790502225459585 L25.498867609183208,6.154436007321448 L25.12677975196769,6.3273013772881965 L24.748737341529186,6.497605366749194 " />
			<path d="M24.547250795488047,6.582160089552143 L24.64931598854973,6.540502611686659 L24.748737341529143,6.497605366749215 " />
			<path d="M-24.748737341529154,6.497605366749208 L-25.12677975196769,6.3273013772881965 L-25.498867609183208,6.154436007321446 L-25.864912735662664,5.979050222545962 L-26.224828385901507,5.80118558594753 L-26.57852926696063,5.620884247951145 L-26.92593155867914,5.438188936432167 L-27.266952933538118,5.253142946590635 L-27.601512576170574,5.065790130691194 L-27.929531202513125,4.876174887670948 L-28.25093107859477,4.68434215261778 L-28.565636038958292,4.490337386121635 L-28.87357150471001,4.294206563501228 L-29.17466450119347,4.0959961639088265 L-29.46884367528302,3.895753159315592 L-29.756039312293122,3.6935250033801212 L-30.036183352499336,3.4893596202029133 L-30.309209407267147,3.2833053929692504 L-30.57505277478476,3.0754111524833583 L-30.833650455396167,2.8657261655964676 L-31.084941166530847,2.654300123531507 L-31.328865357226473,2.4411831301073024 L-31.565365222241386,2.2264256898649357 L-31.794384715753274,2.010078696099141 L-32.015869564640916,1.7921934187976323 L-32.229767281345865,1.572821492491098 L-32.43602717631096,1.3520149040168379 L-32.63460036999277,1.1298259801989028 L-32.82543980444506,0.9063073754476667 L-33.00850025447063,0.6815120592817658 L-33.18373833833877,0.4554933037753619 L-33.35111252806589,0.22830467093371354 L-33.510583159256804,7.460698725481052e-14 " />
			<path d="M-24.54725079548804,-6.58216008955213 L-24.60192990200056,-6.45229235729904 L-24.653117710063235,-6.322144891062151 L-24.700806955533963,-6.191736160272486 L-24.744990870757135,-6.061084671437519 L-24.785663185524058,-5.930208965514904 L-24.822818127962766,-5.799127615281288 L-24.856450425357117,-5.6678592226966265 L-24.886555304895055,-5.53642241626435 L-24.91312849434591,-5.40483584838776 L-24.936166222666703,-5.273118192723041 L-24.955665220537284,-5.141288141529251 L-24.97162272082429,-5.009364403015681 L-24.984036458973826,-4.877365698686921 L-24.992904673332852,-4.745310760686073 L-24.998226105399162,-4.613218329136471 L-24.99999999999999,-4.481107149482303 " />
			<path d="M-24.748737341529157,6.497605366749208 L-24.64931598854973,6.54050261168666 L-24.547250795488047,6.582160089552142 " />
			<path d="M17.677669529663685,-3.3608303621116455 L17.677669529663685,-6.497605366749196 " />
			<path d="M24.748737341529157,15.45981966571362 L24.748737341529157,6.4976053667492035 " />
			<path d="M-24.748737341529157,15.45981966571362 L-24.748737341529157,6.4976053667492035 " />
			<path d="M-17.677669529663678,-3.360830362111649 L-17.677669529663678,-6.497605366749193 " />
			<path d="M7.0710678118654755,10.754657158757308 L7.0710678118654755,4.481107149482215 " />
			<path d="M-14.142135623730953,1.3443321448446688 L-14.142135623730953,-1.7924428597928768 " />
			<path d="M24.999999999999993,-4.4811071494822015 L24.999999999999993,4.481107149482216 " />
			<path d="M-24.999999999999993,-4.4811071494822015 L-24.999999999999993,4.481107149482216 " />

        </g>
        </g>
    </svg>
    