<?xml version='1.0' encoding='utf-8'?>
<svg width="100.09mm" height="100.09mm" viewBox="-40.035999 -40.335777 80.072 80.072" version="1.1" xmlns="http://www.w3.org/2000/svg">
  <g transform="scale(1,-1)" stroke-linecap="round">
    <g fill="none" stroke="rgb(0,0,0)" stroke-width="0.072" id="Visible">
      <path d="M -31.374355,-6.045806 C -31.257932,-4.791054 -30.739479,-3.721576 -29.963396,-3.156641 C -29.817553,-3.049302 -29.664117,-2.959748 -29.503087,-2.887978" />
      <path d="M -29.503087,-2.887978 C -28.859707,-2.598992 -28.106344,-2.617296 -27.380546,-2.944227 C -26.468143,-3.347385 -25.612875,-4.24057 -25.048979,-5.366506 C -24.476096,-6.495047 -24.201559,-7.841635 -24.290871,-9.046187 C -24.378306,-10.328521 -24.877511,-11.43708 -25.647874,-12.034503 C -25.811701,-12.16296 -25.985646,-12.26822 -26.169709,-12.350284" />
      <path d="M -26.169709,-12.350284 C -26.808493,-12.637166 -27.556387,-12.620091 -28.278689,-12.297937 C -29.210157,-11.890665 -30.084769,-10.972424 -30.652805,-9.81665 C -31.232797,-8.653528 -31.495356,-7.267467 -31.374355,-6.045806" />
      <path d="M 15.019346,-11.581508 C 14.993767,-10.822417 14.77929,-10.086012 14.397781,-9.453337" />
      <path d="M 14.397781,-9.453337 C 14.140843,-9.026005 13.808636,-8.645636 13.417547,-8.332861 C 12.504644,-7.595403 11.25687,-7.251544 10.016395,-7.406435 C 8.770338,-7.552045 7.554058,-8.198053 6.702335,-9.155077 C 5.838457,-10.112184 5.349902,-11.367719 5.357305,-12.583811 C 5.358452,-13.395491 5.574597,-14.187482 5.981087,-14.861284" />
      <path d="M 5.981087,-14.861284 C 6.220409,-15.259263 6.525029,-15.616436 6.881861,-15.915955 C 7.797531,-16.692637 9.073691,-17.061642 10.345138,-16.906537 C 11.616879,-16.762152 12.859525,-16.096542 13.717732,-15.110948 C 14.592449,-14.121402 15.067172,-12.823314 15.019346,-11.581508" />
      <path d="M 36.734443,-1.911584 C 36.568736,-0.694846 36.549676,0.759813 36.686921,2.029195 C 36.813562,3.229572 37.078822,4.247197 37.412191,4.793153 C 37.616958,5.132975 37.845381,5.297255 38.071647,5.269416" />
      <path d="M 38.071647,5.269416 C 38.214867,5.251734 38.354044,5.161889 38.489177,4.999882 C 38.83969,4.583555 39.136819,3.677892 39.302621,2.532336 C 39.481467,1.320507 39.509591,-0.151395 39.376018,-1.446022 C 39.251473,-2.68592 38.980198,-3.744012 38.639076,-4.306998 C 38.433262,-4.651355 38.204116,-4.818188 37.977609,-4.790299" />
      <path d="M 37.977609,-4.790299 C 37.829055,-4.771888 37.68512,-4.675154 37.545804,-4.500098 C 37.190735,-4.058187 36.893607,-3.103811 36.734443,-1.911584" />
      <circle cx="1e-06" cy="0.299777" r="40.0" />
    </g>
    <g fill="none" stroke="rgb(99,99,99)" stroke-width="0.072" id="Hidden" stroke-dasharray="0.001829 0.216914">
      <path d="M 28.284272,12.895011 C 27.351104,13.305879 26.378097,14.18711 25.645659,15.274836 C 24.90688,16.361013 24.41669,17.636474 24.303289,18.747938" />
      <path d="M 24.303289,18.747938 C 24.220809,19.526197 24.318038,20.223156 24.583509,20.740134 C 24.781533,21.128271 25.072872,21.41562 25.435112,21.576484" />
      <path d="M 25.435112,21.576484 C 25.96975,21.817036 26.661664,21.773227 27.386129,21.44883" />
      <path d="M 27.386129,21.44883 C 28.288288,21.051184 29.229867,20.21568 29.954345,19.177862 C 30.469029,18.445402 30.87581,17.61886 31.121938,16.810986 C 31.412712,15.863418 31.480299,14.944714 31.311918,14.220723 C 31.152319,13.52097 30.773775,13.005152 30.237687,12.768425" />
      <path d="M 30.237687,12.768425 C 29.701543,12.527214 29.008631,12.570647 28.284272,12.895011" />
      <path d="M -5.360086,22.287375 C -5.333144,22.959182 -5.494903,23.607975 -5.829342,24.162422" />
      <path d="M -5.829342,24.162422 C -6.054495,24.53693 -6.357481,24.868736 -6.723523,25.139886 C -7.577441,25.779316 -8.790675,26.065771 -10.031642,25.911699 C -11.277473,25.765713 -12.528864,25.178055 -13.440196,24.320096 C -14.363593,23.461905 -14.935258,22.344493 -15.011747,21.267823 C -15.066577,20.549172 -14.906584,19.850499 -14.549523,19.258846" />
      <path d="M -14.549523,19.258846 C -14.337417,18.906913 -14.063623,18.599337 -13.728141,18.336118 C -12.872876,17.659823 -11.632051,17.349542 -10.360385,17.504282 C -9.089132,17.649478 -7.811419,18.256809 -6.892997,19.142332 C -5.957935,20.03159 -5.398249,21.188476 -5.360086,22.287375" />
      <path d="M -39.322632,7.163556 C -39.159744,8.341086 -38.849411,9.756442 -38.480578,10.998191 C -38.1338,12.172301 -37.739635,13.174545 -37.408103,13.72072 C -37.203438,14.060555 -37.023105,14.230573 -36.886848,14.213473" />
      <path d="M -36.886848,14.213473 C -36.800626,14.202592 -36.732934,14.121277 -36.683771,13.969528 C -36.555385,13.579705 -36.568429,12.711052 -36.715719,11.602854 C -36.869457,10.43071 -37.17391,8.998491 -37.541561,7.731793 C -37.891536,6.518794 -38.294685,5.476437 -38.634989,4.913353 C -38.841299,4.569056 -39.02394,4.396674 -39.162404,4.414058" />
      <path d="M -39.162404,4.414058 C -39.253202,4.425577 -39.323895,4.513572 -39.374484,4.678041 C -39.504344,5.09308 -39.484385,6.009621 -39.322632,7.163556" />
      <path d="M 1e-06,0.299777 L 0.289786,0.809525 L 0.575927,1.369162 L 0.854826,1.971651 L 1.122974,2.609414 L 1.377001,3.274432 L 1.613711,3.958341 L 1.830128,4.652541 L 2.02353,5.348302 L 2.191484,6.036874 L 2.33188,6.709599 L 2.442951,7.358015 L 2.5233,7.97397 L 2.571917,8.549716 L 2.588191,9.078014" />
      <path d="M 9.659259,5.929206 L 9.636661,5.620457 L 9.568974,5.30776 L 9.456514,4.992578 L 9.299808,4.676385 L 9.099588,4.360662 L 8.856792,4.046886 L 8.572555,3.736524 L 8.248208,3.431028 L 7.885268,3.131829 L 7.485432,2.840326 L 7.050573,2.557883 L 6.582725,2.285822 L 6.084076,2.025415 L 5.556961,1.777881" />
      <path d="M 5.556961,1.777881 L 5.205824,1.626762 L 4.844709,1.48168 L 4.474309,1.342914 L 4.095333,1.21073 L 3.708507,1.08538 L 3.314573,0.967105 L 2.914286,0.856132 L 2.508414,0.752673 L 2.097733,0.656928 L 1.683032,0.569078 L 1.265105,0.489293 L 0.844753,0.417726 L 0.422782,0.354513 L 1e-06,0.299777" />
      <path d="M 1e-06,9.253547 C 0.765563,9.344224 1.53048,9.393152 2.274849,9.399057 C 3.018537,9.403578 3.740423,9.365068 4.421723,9.284529" />
      <path d="M 4.421723,9.284529 L 5.079388,9.190653 L 5.705979,9.069773 L 6.297661,8.922629 L 6.850815,8.75012 L 7.362058,8.553303 L 7.82826,8.333381 L 8.246571,8.091699 L 8.61443,7.829736 L 8.929588,7.549096 L 9.190116,7.251494 L 9.394421,6.938751 L 9.541252,6.612782 L 9.629712,6.275579 L 9.659259,5.929206" />
      <path d="M 2.588191,9.078014 C 2.587797,9.435431 2.562866,9.751763 2.514058,10.018626 C 2.464485,10.283894 2.39112,10.499237 2.295907,10.65895" />
      <path d="M 2.295907,10.65895 Q 2.274845,10.691126 2.253784,10.723303 Q 2.209756,10.782687 2.161709,10.831148 Q 2.112555,10.876508 2.059559,10.910775 Q 2.005507,10.941899 1.947809,10.96181 Q 1.889112,10.978553 1.82698,10.984017 Q 1.763913,10.986302 1.697637,10.977293 Q 1.630491,10.965107 1.56038,10.941667 Q 1.524682,10.927365 1.488984,10.913063" />
      <path d="M 1.488984,10.913063 L 1.394897,10.86592 L 1.298137,10.807106 L 1.198888,10.736733 L 1.097342,10.654937 L 0.993692,10.561874 L 0.888138,10.457722 L 0.780881,10.342681 L 0.672128,10.216973 L 0.562086,10.080836 L 0.450968,9.934534 L 0.338984,9.778345 L 0.226351,9.612569 L 0.113285,9.437525 L 1e-06,9.253547" />
      <path d="M 1e-06,9.253547 C -0.56043,9.502442 -1.120388,9.709454 -1.665304,9.869196 C -2.209721,10.027415 -2.738178,10.138096 -3.236925,10.19836" />
      <path d="M -3.236925,10.19836 L -3.922285,10.248299 L -4.558047,10.229049 L -5.136171,10.140851 L -5.649347,9.984822 L -6.091086,9.762934 L -6.4558,9.477994 L -6.73888,9.133603 L -6.936744,8.734118 L -7.046891,8.28459 L -7.067929,7.790703 L -6.99959,7.258702 L -6.842739,6.695316 L -6.599361,6.107667 L -6.272531,5.503188" />
      <path d="M -6.272531,5.503188 L -5.999384,5.078671 L -5.689825,4.652322 L -5.345733,4.226727 L -4.969196,3.80447 L -4.562499,3.388113 L -4.12811,2.980184 L -3.668667,2.583158 L -3.186957,2.199445 L -2.685905,1.831375 L -2.168551,1.48118 L -1.638036,1.150987 L -1.097578,0.842799 L -0.550459,0.558487 L 1e-06,0.299777" />
      <path d="M 1e-06,9.253547 L -0.289785,8.743799 L -0.575926,8.184161 L -0.854824,7.581673 L -1.122973,6.943909 L -1.377,6.278891 L -1.61371,5.594982 L -1.830126,4.900782 L -2.023528,4.205021 L -2.191483,3.516449 L -2.331878,2.843725 L -2.442949,2.195308 L -2.523298,1.579354 L -2.571916,1.003607 L -2.58819,0.475309" />
      <path d="M -2.58819,0.475309 C -2.587796,0.117892 -2.562865,-0.198439 -2.514057,-0.465302 C -2.464484,-0.73057 -2.391119,-0.945913 -2.295905,-1.105626" />
      <path d="M -2.295905,-1.105626 Q -2.254519,-1.171923 -2.209032,-1.227401 Q -2.162414,-1.279804 -2.111863,-1.321192 Q -2.06023,-1.359456 -2.004851,-1.386561 Q -1.976329,-1.397524 -1.947807,-1.408487 Q -1.918151,-1.415845 -1.888494,-1.423203 Q -1.827576,-1.432723 -1.763335,-1.430949 Q -1.69819,-1.425996 -1.629957,-1.409762 Q -1.560889,-1.390358 -1.488982,-1.35974" />
      <path d="M -1.488982,-1.35974 L -1.394895,-1.312597 L -1.298135,-1.253782 L -1.198887,-1.18341 L -1.09734,-1.101613 L -0.993691,-1.00855 L -0.888136,-0.904398 L -0.78088,-0.789358 L -0.672127,-0.663649 L -0.562085,-0.527513 L -0.450966,-0.38121 L -0.338983,-0.225021 L -0.22635,-0.059246 L -0.113283,0.115799 L 1e-06,0.299777" />
      <path d="M 1e-06,0.299777 C -0.765561,0.209099 -1.530479,0.160172 -2.274847,0.154267 C -3.018535,0.149745 -3.740422,0.188255 -4.421722,0.268795" />
      <path d="M -4.421722,0.268795 L -5.079387,0.362671 L -5.705977,0.48355 L -6.29766,0.630695 L -6.850814,0.803203 L -7.362056,1.000021 L -7.828259,1.219943 L -8.246569,1.461625 L -8.614429,1.723587 L -8.929587,2.004228 L -9.190115,2.30183 L -9.39442,2.614572 L -9.541251,2.940542 L -9.629711,3.277745 L -9.659258,3.624118" />
      <path d="M -9.659258,3.624118 L -9.63666,3.932867 L -9.568973,4.245564 L -9.456513,4.560746 L -9.299807,4.876938 L -9.099587,5.192661 L -8.856791,5.506438 L -8.572554,5.8168 L -8.248206,6.122295 L -7.885266,6.421495 L -7.485431,6.712998 L -7.050572,6.995441 L -6.582724,7.267502 L -6.084075,7.527909 L -5.556959,7.775443" />
      <path d="M -5.556959,7.775443 L -5.205823,7.926562 L -4.844708,8.071643 L -4.474308,8.210409 L -4.095331,8.342594 L -3.708506,8.467944 L -3.314572,8.586219 L -2.914285,8.697192 L -2.508412,8.80065 L -2.097732,8.896396 L -1.683031,8.984246 L -1.265103,9.06403 L -0.844752,9.135598 L -0.422781,9.19881 L 1e-06,9.253547" />
      <path d="M 1e-06,0.299777 C 0.560431,0.050882 1.120389,-0.15613 1.665305,-0.315872 C 2.209722,-0.474091 2.73818,-0.584772 3.236926,-0.645036" />
      <path d="M 3.236926,-0.645036 L 3.71837,-0.687079 L 4.177067,-0.695696 L 4.610208,-0.670833 L 5.015145,-0.612645 L 5.3894,-0.521485 L 5.730684,-0.397912 L 6.036909,-0.242682 L 6.306201,-0.056744 L 6.536912,0.158763 L 6.727632,0.402522 L 6.877194,0.673041 L 6.984682,0.968666 L 7.049439,1.287587 L 7.071068,1.627853" />
      <path d="M 7.071068,1.627853 Q 7.068992,1.705484 7.066916,1.783114 Q 7.060689,1.862502 7.054462,1.941891 Q 7.044092,2.022944 7.033722,2.103997 Q 7.019221,2.18662 7.004721,2.269243 Q 6.986106,2.353338 6.967491,2.437434 Q 6.944785,2.522903 6.922078,2.608372 Q 6.895306,2.695115 6.868534,2.781858 Q 6.837728,2.869772 6.806922,2.957686 Q 6.772118,3.046669 6.737315,3.135652 Q 6.661988,3.315063 6.574451,3.497153 Q 6.48352,3.679904 6.380706,3.864665 Q 6.326619,3.9574 6.272532,4.050136" />
      <path d="M 6.272532,4.050136 L 5.999386,4.474652 L 5.689827,4.901002 L 5.345734,5.326597 L 4.969197,5.748854 L 4.5625,6.165211 L 4.128112,6.57314 L 3.668668,6.970166 L 3.186959,7.353878 L 2.685907,7.721949 L 2.168553,8.072144 L 1.638037,8.402337 L 1.09758,8.710525 L 0.550461,8.994837 L 1e-06,9.253547" />
      <line x1="5.556961" y1="1.777881" x2="30.237687" y2="12.768425" />
      <line x1="1.488984" y1="10.913063" x2="25.435112" y2="21.576484" />
      <line x1="-14.549523" y1="19.258846" x2="-6.272531" y2="5.503188" />
      <line x1="-5.829342" y1="24.162422" x2="2.295907" y2="10.65895" />
      <line x1="-26.169709" y1="-12.350284" x2="-1.488982" y2="-1.35974" />
      <line x1="-29.503087" y1="-2.887978" x2="-5.556959" y2="7.775443" />
      <line x1="-2.295905" y1="-1.105626" x2="5.981087" y2="-14.861284" />
      <line x1="6.272532" y1="4.050136" x2="14.397781" y2="-9.453337" />
      <line x1="38.071647" y1="5.269416" x2="4.421723" y2="9.284529" />
      <line x1="37.977609" y1="-4.790299" x2="3.236926" y2="-0.645036" />
      <line x1="-3.236925" y1="10.19836" x2="-36.886848" y2="14.213473" />
      <line x1="-4.421722" y1="0.268795" x2="-39.162404" y2="4.414058" />
    </g>
  </g>
</svg>