<?xml version="1.0" encoding="UTF-8" standalone="no"?>
    <svg
    xmlns:svg="http://www.w3.org/2000/svg"
    xmlns="http://www.w3.org/2000/svg"
    width="500.0"
    height="220.0"
    >
        <g transform="scale(2.409505524757635, -2.409505524757635)   translate(81.43634142834894,-40.04910327159673)" stroke-width="0.4150229122635388"  fill="none">
        <!-- hidden lines -->
        <g  stroke="rgb(160,160,160)" fill="none" stroke-dasharray="0.4150229122635388,0.4150229122635388" >
    			<path d="M42.995345753690444,17.301656083416958 L42.995345753690444,35.89887414896134 " />
			<path d="M69.37285848601587,6.238430168621035 L42.99534575369044,17.301656083416958 " />
			<path d="M27.960163496264947,12.44936401552401 L27.960163496264947,21.258572572887132 " />
			<path d="M42.995345753690444,17.301656083416958 L27.960163496264947,12.449364015524008 " />
			<path d="M41.14891986242766,6.917751058126045 L41.14891986242766,25.514969123670426 " />
			<path d="M27.960163496264947,12.44936401552401 L41.14891986242766,6.917751058126048 " />
			<path d="M-49.06217368212531,-22.19600134923165 L-49.06217368212531,-3.598783283687272 " />
			<path d="M41.14891986242766,6.917751058126045 L-49.06217368212532,-22.19600134923165 " />
			<path d="M-62.25093004828803,-16.66438839183369 L-62.25093004828803,1.932829673710689 " />
			<path d="M-62.25093004828803,-16.66438839183369 L-49.06217368212532,-22.19600134923165 " />
			<path d="M-77.28611230571354,-21.51668045972664 L-62.25093004828805,-16.66438839183369 " />

        </g>

        <!-- solid lines -->
        <g  stroke="rgb(0,0,0)" fill="none">
    			<path d="M69.37285848601587,6.238430168621035 L69.37285848601587,24.83564823416541 " />
			<path d="M-50.908599573388095,-32.579906374522565 L69.37285848601589,6.23843016862103 " />
			<path d="M-50.908599573388095,-32.579906374522565 L-50.908599573388095,-13.982688308978187 " />
			<path d="M69.37285848601587,24.83564823416542 L-50.9085995733881,-13.982688308978178 " />
			<path d="M69.37285848601587,24.83564823416542 L42.99534575369044,35.89887414896134 " />
			<path d="M27.960163496264947,21.258572572887132 L27.960163496264947,31.046582081068387 " />
			<path d="M42.995345753690444,35.89887414896134 L27.960163496264947,31.04658208106839 " />
			<path d="M27.960163496264947,31.046582081068394 L41.14891986242766,25.514969123670433 " />
			<path d="M-49.06217368212531,-3.5987832836872737 L41.14891986242767,25.514969123670422 " />
			<path d="M-62.25093004828803,1.9328296737106871 L-49.06217368212532,-3.598783283687275 " />
			<path d="M-77.28611230571354,-21.51668045972664 L-77.28611230571354,-2.9194623941822613 " />
			<path d="M-77.28611230571354,-2.9194623941822613 L-62.25093004828805,1.9328296737106883 " />
			<path d="M-50.908599573388095,-32.579906374522565 L-77.28611230571353,-21.51668045972664 " />
			<path d="M-50.908599573388095,-13.982688308978188 L-77.28611230571353,-2.9194623941822644 " />

        </g>
        </g>
    </svg>
    