<?xml version="1.0" encoding="UTF-8" standalone="no"?>
    <svg
    xmlns:svg="http://www.w3.org/2000/svg"
    xmlns="http://www.w3.org/2000/svg"
    width="441"
    height="214"
    >
        <g transform="scale(4, -4)   translate(55.15224871844499,-26.802325886196158)" stroke-width="0.25"  fill="none">
        <!-- hidden lines -->
        <g  stroke="rgb(160,160,160)" fill="none" stroke-dasharray="0.25,0.25" >
    			<path d="M3.882285676537811,4.966070261914274 L3.882285676537811,7.6660214944855625 " />
			<path d="M-10.606601717798211,3.2736908694926843 L-10.606601717798211,5.973642102063973 " />
			<path d="M3.882285676537811,4.966070261914274 L-10.606601717798213,3.2736908694926834 " />
			<path d="M-10.606601717798211,3.2736908694926843 L-14.488887394336025,-3.0423550087072355 " />
			<path d="M14.488887394336022,0.34240377613594575 L3.8822856765378138,4.966070261914274 " />
			<path d="M31.819805153394636,7.897357355271016 L23.454642116016558,6.920261657485435 " />
			<path d="M21.213203435596423,12.521023841049345 L12.848040398218345,11.543928143263765 " />
			<path d="M42.426406871192846,12.521023841049349 L34.06124383381477,11.543928143263768 " />
			<path d="M31.819805153394633,17.14469032682768 L23.454642116016554,16.1675946290421 " />
			<path d="M29.5783664729745,13.498119538834928 L29.5783664729745,15.220975073620636 " />
			<path d="M25.62616911380444,15.220975073620636 L29.5783664729745,13.498119538834928 " />
			<path d="M29.5783664729745,13.498119538834928 L30.637354563692536,15.220975073620636 " />
			<path d="M-2.461270494176514,15.286328775424948 L-2.461270494176514,17.986280007996235 " />
			<path d="M-2.461270494176514,15.286328775424948 L-4.7027091745966505,11.639757987432198 " />
			<path d="M3.6624538627814314,12.61685368521778 L-2.461270494176512,15.286328775424952 " />
			<path d="M-16.950157888512535,13.59394938300336 L-16.950157888512535,16.29390061557465 " />
			<path d="M-16.950157888512535,13.59394938300336 L-19.191596568932674,9.94737859501061 " />
			<path d="M-10.826433531554589,10.924474292796189 L-16.950157888512532,13.59394938300336 " />
			<path d="M-6.343556170714315,21.60237465362487 L-6.343556170714315,24.302325886196158 " />
			<path d="M-8.584994851134457,17.955803865632124 L-8.584994851134457,19.527502169922347 " />
			<path d="M-6.343556170714315,21.60237465362487 L-8.584994851134452,17.95580386563212 " />
			<path d="M-8.584994851134457,17.955803865632124 L-5.5231326726554855,18.313445712950127 " />
			<path d="M-0.21983181375637884,18.9328995634177 L-6.343556170714322,21.60237465362487 " />
			<path d="M-20.83244356505034,19.909995261203285 L-20.83244356505034,22.609946493774572 " />
			<path d="M-20.83244356505034,19.909995261203285 L-23.07388224547048,16.263424473210534 " />
			<path d="M-14.708719208092393,17.240520170996113 L-14.708719208092393,17.986280007996246 " />
			<path d="M-15.182390935546167,17.185192784669066 L-14.708719208092395,17.240520170996113 " />
			<path d="M-14.708719208092393,17.240520170996113 L-20.832443565050337,19.909995261203285 " />
			<path d="M-25.91591261019307,7.016091501653872 L-34.28107564757116,6.038995803868293 " />
			<path d="M-29.79819828673088,0.70004562345395 L-38.16336132410896,-0.27705007433162887 " />
			<path d="M-42.646238684949225,5.061900106082712 L-42.646238684949225,6.633598410372942 " />
			<path d="M-43.46666218300807,5.4195419534007145 L-42.64623868494923,5.06190010608271 " />
			<path d="M-42.646238684949225,5.061900106082712 L-41.503358229355385,6.921239163600517 " />
			<path d="M-40.40480000452909,8.708470894075464 L-48.769963041907175,7.731375196289886 " />
			<path d="M-44.287085681066905,2.392425015875541 L-52.65224871844499,1.4153293180899622 " />
			<path d="M-31.81980515339464,-10.597308587842306 L-31.81980515339464,-9.43857951719713 " />
			<path d="M-31.81980515339464,-10.597308587842306 L-24.74873734152916,-9.771370120552206 " />
			<path d="M-29.578366472974505,-6.950737799849556 L-29.578366472974505,-4.250786567278267 " />
			<path d="M-23.454642116016558,-9.620212890056727 L-29.5783664729745,-6.950737799849556 " />
			<path d="M-29.578366472974505,-6.950737799849556 L-31.819805153394643,-10.597308587842306 " />
			<path d="M-18.97176475517629,-11.574404285627887 L-18.97176475517629,-8.874453053056598 " />
			<path d="M-12.848040398218348,-14.24387937583506 L-18.971764755176288,-11.574404285627889 " />
			<path d="M-18.97176475517629,-11.574404285627887 L-21.21320343559643,-15.22097507362064 " />
			<path d="M-40.18496819077272,-11.574404285627889 L-40.18496819077272,-8.8744530530566 " />
			<path d="M-34.06124383381477,-14.243879375835059 L-40.184968190772715,-11.574404285627887 " />
			<path d="M-40.18496819077272,-11.574404285627889 L-42.42640687119286,-15.22097507362064 " />
			<path d="M-29.57836647297451,-16.198070771406222 L-29.57836647297451,-13.498119538834933 " />
			<path d="M-23.45464211601656,-18.86754586161339 L-29.5783664729745,-16.19807077140622 " />
			<path d="M-29.57836647297451,-16.198070771406222 L-31.819805153394647,-19.844641559398973 " />
			<path d="M4.70270917459664,-14.339709220003499 L-3.662453862781442,-15.316804917789076 " />
			<path d="M19.191596568932667,-12.647329827581911 L10.826433531554585,-13.624425525367489 " />
			<path d="M11.95511593993795,-14.11644466246516 L15.182390935546156,-15.523289534611605 " />
			<path d="M8.584994851134436,-20.65575509820342 L0.21983181375635397,-21.632850795989 " />
			<path d="M23.073882245470465,-18.963375705781832 L14.708719208092383,-19.94047140356741 " />
			<path d="M28.157351290613207,-6.069471946232412 L28.157351290613207,-3.3695207136611227 " />
			<path d="M34.28107564757115,-8.738947036439582 L28.157351290613207,-6.069471946232412 " />
			<path d="M28.157351290613207,-6.069471946232412 L25.915912610193068,-9.716042734225162 " />
			<path d="M38.16336132410896,-2.42290115823966 L38.16336132410896,-1.5025999858064847 " />
			<path d="M32.03963696715102,0.2465739319675091 L32.03963696715102,2.946525164538798 " />
			<path d="M38.16336132410896,-2.42290115823966 L32.03963696715102,0.24657393196751043 " />
			<path d="M32.03963696715102,0.2465739319675091 L29.79819828673088,-3.399996856025242 " />
			<path d="M33.80740392011739,-2.9317002360531452 L38.16336132410896,-2.422901158239661 " />
			<path d="M42.64623868494924,-7.761851338654 L42.64623868494924,-5.061900106082711 " />
			<path d="M48.769963041907175,-10.43132642886117 L42.64623868494923,-7.761851338653999 " />
			<path d="M42.64623868494924,-7.761851338654 L40.4048000045291,-11.408422126646752 " />
			<path d="M46.528524361487044,-1.445805460454082 L46.528524361487044,1.254145772117207 " />
			<path d="M52.65224871844499,-4.115280550661248 L46.528524361487044,-1.445805460454078 " />
			<path d="M46.528524361487044,-1.445805460454082 L44.287085681066905,-5.092376248446833 " />
			<path d="M31.819805153394636,12.521023841049347 L31.819805153394636,15.220975073620636 " />
			<path d="M24.74873734152916,12.521023841049347 L24.74873734152916,15.220975073620636 " />
			<path d="M31.819805153394636,12.521023841049347 L24.74873734152916,12.521023841049347 " />
			<path d="M24.74873734152916,9.438579517197127 L24.74873734152916,9.771370120552204 " />
			<path d="M24.74873734152916,12.521023841049347 L24.74873734152916,9.438579517197127 " />
			<path d="M31.819805153394636,9.438579517197125 L31.819805153394636,10.597308587842305 " />
			<path d="M24.74873734152916,9.438579517197127 L31.819805153394636,9.438579517197127 " />
			<path d="M31.819805153394636,9.438579517197125 L31.819805153394636,12.521023841049345 " />
			<path d="M-11.646857029613425,17.598162018314117 L-11.646857029613425,20.298113250885407 " />
			<path d="M-15.182390935546167,14.928686928106945 L-15.182390935546167,15.523289534611596 " />
			<path d="M-11.646857029613425,17.598162018314117 L-15.182390935546163,14.928686928106945 " />
			<path d="M-15.182390935546167,14.928686928106945 L-11.95511593993796,14.11644466246515 " />
			<path d="M-5.5231326726554855,16.056939856388006 L-11.646857029613432,17.598162018314117 " />
			<path d="M-33.80740392011738,2.5989096326980663 L-33.80740392011738,2.9317002360531443 " />
			<path d="M-38.16336132410896,1.5025999858064834 L-33.80740392011739,2.5989096326980645 " />
			<path d="M-37.34293782605012,5.268384722905238 L-37.34293782605012,7.968335955476527 " />
			<path d="M-33.80740392011738,2.5989096326980663 L-37.34293782605012,5.268384722905237 " />
			<path d="M-37.34293782605012,5.268384722905238 L-43.46666218300806,3.7271625609791283 " />
			<path d="M-30.637354563692544,-15.22097507362064 L-25.626169113804437,-15.22097507362064 " />
			<path d="M-24.748737341529164,-12.13853074976842 L-24.748737341529164,-9.43857951719713 " />
			<path d="M-24.748737341529164,-15.22097507362064 L-24.74873734152916,-12.13853074976842 " />
			<path d="M-31.81980515339464,-12.138530749768417 L-31.81980515339464,-9.438579517197129 " />
			<path d="M-24.748737341529164,-12.13853074976842 L-31.81980515339464,-12.138530749768417 " />
			<path d="M-31.81980515339464,-12.138530749768417 L-31.819805153394643,-15.22097507362064 " />
			<path d="M15.182390935546156,-17.628638160678243 L15.182390935546156,-17.185192784669074 " />
			<path d="M14.708719208092386,-17.98628000799625 L15.182390935546154,-17.628638160678243 " />
			<path d="M9.058666578588214,-16.087415998752135 L9.058666578588214,-13.387464766180846 " />
			<path d="M15.182390935546156,-17.628638160678243 L9.058666578588213,-16.08741599875213 " />
			<path d="M5.523132672655475,-18.756891088959307 L5.523132672655475,-18.313445712950138 " />
			<path d="M9.058666578588214,-16.087415998752135 L5.523132672655473,-18.756891088959303 " />
			<path d="M5.523132672655475,-18.756891088959307 L8.584994851134436,-19.52750216992236 " />
			<path d="M43.46666218300807,-6.427113793550415 L43.46666218300807,-5.419541953400714 " />
			<path d="M39.93112827707533,-3.757638703343245 L39.93112827707533,-1.0576874707719561 " />
			<path d="M43.46666218300807,-6.427113793550415 L39.93112827707533,-3.7576387033432437 " />
			<path d="M39.93112827707533,-3.757638703343245 L33.80740392011739,-5.298860865269356 " />
			<path d="M41.503358229355406,-6.921239163600512 L43.46666218300807,-6.427113793550414 " />

        </g>

        <!-- solid lines -->
        <g  stroke="rgb(0,0,0)" fill="none">
    			<path d="M3.882285676537811,7.6660214944855625 L-10.606601717798213,5.973642102063972 " />
			<path d="M-14.488887394336025,-3.0423550087072346 L-14.488887394336025,-0.34240377613594575 " />
			<path d="M-10.606601717798211,5.973642102063973 L-14.488887394336025,-0.34240377613594664 " />
			<path d="M-3.8822856765378155,-7.666021494485568 L-3.8822856765378155,-4.966070261914279 " />
			<path d="M-14.488887394336025,-3.0423550087072346 L-3.8822856765378173,-7.666021494485567 " />
			<path d="M-14.488887394336025,-0.34240377613594575 L-3.8822856765378173,-4.966070261914278 " />
			<path d="M10.60660171779821,-5.973642102063979 L10.60660171779821,-3.2736908694926905 " />
			<path d="M-3.8822856765378155,-7.666021494485568 L10.606601717798213,-5.9736421020639785 " />
			<path d="M-3.8822856765378155,-4.966070261914279 L10.606601717798213,-3.2736908694926896 " />
			<path d="M14.488887394336022,0.34240377613594575 L14.488887394336022,3.0423550087072346 " />
			<path d="M10.60660171779821,-5.973642102063979 L14.488887394336022,0.34240377613594575 " />
			<path d="M10.60660171779821,-3.2736908694926905 L14.488887394336022,3.0423550087072346 " />
			<path d="M14.488887394336022,3.0423550087072346 L3.8822856765378138,7.6660214944855625 " />
			<path d="M31.819805153394636,7.897357355271016 L31.819805153394636,10.597308587842305 " />
			<path d="M23.454642116016558,6.920261657485435 L23.454642116016558,9.620212890056724 " />
			<path d="M31.819805153394636,10.597308587842305 L23.454642116016558,9.620212890056724 " />
			<path d="M29.5783664729745,4.250786567278263 L29.5783664729745,6.950737799849552 " />
			<path d="M23.454642116016558,6.920261657485435 L29.5783664729745,4.250786567278263 " />
			<path d="M23.454642116016558,9.620212890056724 L29.5783664729745,6.950737799849552 " />
			<path d="M29.5783664729745,4.250786567278263 L31.819805153394636,7.897357355271016 " />
			<path d="M29.5783664729745,6.950737799849552 L31.819805153394636,10.597308587842305 " />
			<path d="M21.213203435596423,12.521023841049345 L21.213203435596423,15.220975073620634 " />
			<path d="M12.848040398218343,11.543928143263766 L12.848040398218343,14.243879375835055 " />
			<path d="M21.213203435596423,15.220975073620636 L12.848040398218345,14.243879375835055 " />
			<path d="M18.971764755176288,8.874453053056595 L18.971764755176288,11.574404285627883 " />
			<path d="M12.848040398218343,11.543928143263766 L18.971764755176284,8.874453053056595 " />
			<path d="M12.848040398218343,14.243879375835055 L18.971764755176284,11.574404285627883 " />
			<path d="M18.971764755176288,8.874453053056595 L21.213203435596423,12.521023841049347 " />
			<path d="M18.971764755176288,11.574404285627883 L21.213203435596423,15.220975073620636 " />
			<path d="M42.426406871192846,12.521023841049349 L42.426406871192846,15.220975073620638 " />
			<path d="M34.06124383381477,11.543928143263766 L34.06124383381477,14.243879375835055 " />
			<path d="M42.426406871192846,15.220975073620636 L34.06124383381477,14.243879375835055 " />
			<path d="M40.184968190772715,8.874453053056596 L40.184968190772715,11.574404285627885 " />
			<path d="M34.06124383381477,11.543928143263766 L40.184968190772715,8.874453053056595 " />
			<path d="M34.06124383381477,14.243879375835055 L40.184968190772715,11.574404285627883 " />
			<path d="M40.184968190772715,8.874453053056596 L42.42640687119285,12.521023841049349 " />
			<path d="M40.184968190772715,11.574404285627885 L42.42640687119285,15.220975073620638 " />
			<path d="M31.819805153394633,17.14469032682768 L31.819805153394633,19.844641559398966 " />
			<path d="M23.454642116016558,16.1675946290421 L23.454642116016558,18.867545861613387 " />
			<path d="M31.819805153394633,19.844641559398966 L23.454642116016554,18.867545861613387 " />
			<path d="M29.5783664729745,15.220975073620636 L29.5783664729745,16.198070771406215 " />
			<path d="M23.454642116016558,16.1675946290421 L25.62616911380444,15.220975073620636 " />
			<path d="M23.454642116016558,18.867545861613387 L29.5783664729745,16.198070771406215 " />
			<path d="M30.637354563692536,15.220975073620636 L31.819805153394636,17.14469032682768 " />
			<path d="M29.5783664729745,16.198070771406215 L31.819805153394636,19.844641559398966 " />
			<path d="M-4.702709174596647,11.6397579874322 L-4.702709174596647,14.339709220003488 " />
			<path d="M-2.461270494176514,17.986280007996235 L-4.7027091745966505,14.339709220003485 " />
			<path d="M3.6624538627814314,12.61685368521778 L3.6624538627814314,15.316804917789069 " />
			<path d="M-4.702709174596647,11.6397579874322 L3.662453862781433,12.616853685217778 " />
			<path d="M-4.702709174596647,14.339709220003488 L3.662453862781433,15.316804917789067 " />
			<path d="M3.6624538627814314,15.31680491778907 L-2.461270494176512,17.986280007996243 " />
			<path d="M-19.191596568932667,9.94737859501061 L-19.191596568932667,12.647329827581899 " />
			<path d="M-16.950157888512535,16.29390061557465 L-19.191596568932674,12.647329827581899 " />
			<path d="M-10.826433531554589,10.924474292796189 L-10.826433531554589,13.624425525367478 " />
			<path d="M-19.191596568932667,9.94737859501061 L-10.826433531554587,10.924474292796189 " />
			<path d="M-19.191596568932667,12.647329827581899 L-10.826433531554587,13.624425525367478 " />
			<path d="M-10.826433531554589,13.624425525367478 L-16.950157888512532,16.29390061557465 " />
			<path d="M-8.584994851134457,19.527502169922347 L-8.584994851134457,20.655755098203414 " />
			<path d="M-6.343556170714315,24.302325886196158 L-8.584994851134452,20.655755098203407 " />
			<path d="M-0.21983181375637884,18.9328995634177 L-0.21983181375637884,21.632850795988986 " />
			<path d="M-5.5231326726554855,18.313445712950127 L-0.21983181375637706,18.932899563417703 " />
			<path d="M-8.584994851134457,20.655755098203414 L-0.21983181375637706,21.632850795988993 " />
			<path d="M-0.21983181375637884,21.632850795988986 L-6.343556170714322,24.302325886196158 " />
			<path d="M-23.073882245470475,16.263424473210534 L-23.073882245470475,18.96337570578182 " />
			<path d="M-20.83244356505034,22.609946493774572 L-23.07388224547048,18.96337570578182 " />
			<path d="M-14.708719208092393,17.986280007996246 L-14.708719208092393,19.9404714035674 " />
			<path d="M-23.073882245470475,16.263424473210534 L-15.182390935546167,17.185192784669066 " />
			<path d="M-23.073882245470475,18.96337570578182 L-14.708719208092395,19.9404714035674 " />
			<path d="M-14.708719208092393,19.9404714035674 L-20.832443565050337,22.609946493774572 " />
			<path d="M-34.28107564757115,6.038995803868292 L-34.28107564757115,8.73894703643958 " />
			<path d="M-28.15735129061321,3.369520713661121 L-28.15735129061321,6.06947194623241 " />
			<path d="M-34.28107564757115,6.038995803868292 L-28.157351290613207,3.3695207136611205 " />
			<path d="M-34.28107564757115,8.73894703643958 L-28.157351290613207,6.069471946232408 " />
			<path d="M-25.91591261019307,7.016091501653872 L-25.91591261019307,9.71604273422516 " />
			<path d="M-28.15735129061321,3.369520713661121 L-25.91591261019307,7.016091501653871 " />
			<path d="M-28.15735129061321,6.06947194623241 L-25.91591261019307,9.716042734225159 " />
			<path d="M-25.91591261019307,9.71604273422516 L-34.28107564757116,8.738947036439582 " />
			<path d="M-38.16336132410896,-0.27705007433162887 L-38.16336132410896,2.42290115823966 " />
			<path d="M-32.03963696715102,-2.946525164538799 L-32.03963696715102,-0.24657393196750998 " />
			<path d="M-38.16336132410896,-0.27705007433162887 L-32.03963696715102,-2.9465251645388 " />
			<path d="M-38.16336132410896,2.42290115823966 L-32.03963696715102,-0.24657393196751132 " />
			<path d="M-29.79819828673088,0.70004562345395 L-29.79819828673088,3.399996856025239 " />
			<path d="M-32.03963696715102,-2.946525164538799 L-29.79819828673088,0.7000456234539509 " />
			<path d="M-32.03963696715102,-0.24657393196750998 L-29.79819828673088,3.39999685602524 " />
			<path d="M-29.79819828673088,3.399996856025239 L-38.16336132410896,2.42290115823966 " />
			<path d="M-48.769963041907175,7.731375196289882 L-48.769963041907175,10.431326428861171 " />
			<path d="M-42.646238684949225,6.633598410372942 L-42.646238684949225,7.761851338654001 " />
			<path d="M-48.769963041907175,7.731375196289882 L-43.46666218300807,5.4195419534007145 " />
			<path d="M-48.769963041907175,10.431326428861171 L-42.64623868494923,7.761851338653999 " />
			<path d="M-40.40480000452909,8.708470894075464 L-40.40480000452909,11.408422126646753 " />
			<path d="M-41.503358229355385,6.921239163600517 L-40.404800004529086,8.708470894075461 " />
			<path d="M-42.646238684949225,7.761851338654001 L-40.404800004529086,11.408422126646752 " />
			<path d="M-40.40480000452909,11.408422126646753 L-48.769963041907175,10.431326428861174 " />
			<path d="M-52.65224871844498,1.4153293180899595 L-52.65224871844498,4.115280550661248 " />
			<path d="M-46.528524361487044,-1.2541457721172087 L-46.528524361487044,1.4458054604540802 " />
			<path d="M-52.65224871844498,1.4153293180899595 L-46.52852436148704,-1.2541457721172118 " />
			<path d="M-52.65224871844498,4.115280550661248 L-46.52852436148704,1.445805460454077 " />
			<path d="M-44.287085681066905,2.392425015875541 L-44.287085681066905,5.09237624844683 " />
			<path d="M-46.528524361487044,-1.2541457721172087 L-44.287085681066905,2.392425015875541 " />
			<path d="M-46.528524361487044,1.4458054604540802 L-44.287085681066905,5.09237624844683 " />
			<path d="M-44.287085681066905,5.09237624844683 L-52.65224871844499,4.115280550661251 " />
			<path d="M-31.81980515339464,-9.43857951719713 L-31.81980515339464,-7.8973573552710175 " />
			<path d="M-23.454642116016558,-9.620212890056727 L-23.454642116016558,-6.9202616574854385 " />
			<path d="M-24.74873734152916,-9.771370120552206 L-23.454642116016558,-9.620212890056727 " />
			<path d="M-31.81980515339464,-7.8973573552710175 L-23.454642116016558,-6.920261657485438 " />
			<path d="M-23.454642116016558,-6.9202616574854385 L-29.5783664729745,-4.250786567278267 " />
			<path d="M-29.578366472974505,-4.250786567278267 L-31.819805153394643,-7.897357355271018 " />
			<path d="M-21.213203435596427,-15.22097507362064 L-21.213203435596427,-12.52102384104935 " />
			<path d="M-12.848040398218348,-14.24387937583506 L-12.848040398218348,-11.543928143263772 " />
			<path d="M-21.213203435596427,-15.22097507362064 L-12.848040398218346,-14.24387937583506 " />
			<path d="M-21.213203435596427,-12.52102384104935 L-12.848040398218346,-11.543928143263772 " />
			<path d="M-12.848040398218348,-11.543928143263772 L-18.971764755176288,-8.8744530530566 " />
			<path d="M-18.97176475517629,-8.874453053056598 L-21.21320343559643,-12.521023841049349 " />
			<path d="M-42.42640687119285,-15.22097507362064 L-42.42640687119285,-12.52102384104935 " />
			<path d="M-34.06124383381477,-14.243879375835059 L-34.06124383381477,-11.54392814326377 " />
			<path d="M-42.42640687119285,-15.22097507362064 L-34.06124383381477,-14.24387937583506 " />
			<path d="M-42.42640687119285,-12.52102384104935 L-34.06124383381477,-11.543928143263772 " />
			<path d="M-34.06124383381477,-11.54392814326377 L-40.184968190772715,-8.874453053056598 " />
			<path d="M-40.18496819077272,-8.8744530530566 L-42.42640687119286,-12.521023841049352 " />
			<path d="M-31.81980515339464,-19.844641559398973 L-31.81980515339464,-17.144690326827686 " />
			<path d="M-23.45464211601656,-18.86754586161339 L-23.45464211601656,-16.1675946290421 " />
			<path d="M-31.81980515339464,-19.844641559398973 L-23.454642116016558,-18.867545861613394 " />
			<path d="M-31.81980515339464,-17.144690326827686 L-23.454642116016558,-16.167594629042107 " />
			<path d="M-23.45464211601656,-16.1675946290421 L-29.5783664729745,-13.498119538834928 " />
			<path d="M-29.57836647297451,-13.498119538834931 L-31.819805153394647,-17.144690326827682 " />
			<path d="M2.4612704941764996,-17.98628000799625 L2.4612704941764996,-15.28632877542496 " />
			<path d="M4.70270917459664,-14.339709220003499 L4.70270917459664,-11.63975798743221 " />
			<path d="M2.4612704941764996,-17.98628000799625 L4.702709174596638,-14.339709220003499 " />
			<path d="M2.4612704941764996,-15.28632877542496 L4.702709174596638,-11.639757987432212 " />
			<path d="M-3.6624538627814403,-15.316804917789076 L-3.6624538627814403,-12.616853685217787 " />
			<path d="M4.70270917459664,-11.63975798743221 L-3.662453862781442,-12.616853685217787 " />
			<path d="M-3.6624538627814403,-15.316804917789076 L2.4612704941765013,-17.98628000799625 " />
			<path d="M-3.6624538627814403,-12.616853685217787 L2.4612704941765013,-15.286328775424959 " />
			<path d="M16.95015788851253,-16.293900615574664 L16.95015788851253,-13.593949383003375 " />
			<path d="M19.191596568932667,-12.647329827581911 L19.191596568932667,-9.947378595010623 " />
			<path d="M16.95015788851253,-16.293900615574664 L19.191596568932667,-12.647329827581913 " />
			<path d="M16.95015788851253,-13.593949383003373 L19.191596568932667,-9.947378595010623 " />
			<path d="M10.826433531554585,-13.624425525367489 L10.826433531554585,-10.9244742927962 " />
			<path d="M19.191596568932667,-9.947378595010623 L10.826433531554585,-10.9244742927962 " />
			<path d="M10.826433531554585,-13.624425525367489 L11.95511593993795,-14.11644466246516 " />
			<path d="M15.182390935546156,-15.523289534611605 L16.95015788851253,-16.29390061557466 " />
			<path d="M10.826433531554585,-10.9244742927962 L16.95015788851253,-13.593949383003373 " />
			<path d="M6.343556170714304,-24.302325886196172 L6.343556170714304,-21.602374653624885 " />
			<path d="M8.584994851134436,-20.65575509820342 L8.584994851134436,-17.955803865632134 " />
			<path d="M6.343556170714304,-24.302325886196172 L8.584994851134443,-20.65575509820342 " />
			<path d="M6.343556170714304,-21.602374653624885 L8.584994851134443,-17.955803865632134 " />
			<path d="M0.21983181375635752,-21.632850795989 L0.21983181375635752,-18.932899563417713 " />
			<path d="M8.584994851134436,-17.955803865632134 L0.21983181375635397,-18.932899563417713 " />
			<path d="M0.21983181375635752,-21.632850795989 L6.343556170714299,-24.302325886196172 " />
			<path d="M0.21983181375635752,-18.932899563417713 L6.343556170714299,-21.602374653624885 " />
			<path d="M20.832443565050326,-22.609946493774583 L20.832443565050326,-19.909995261203292 " />
			<path d="M23.073882245470465,-18.963375705781832 L23.073882245470465,-16.26342447321054 " />
			<path d="M20.832443565050326,-22.609946493774583 L23.073882245470465,-18.963375705781832 " />
			<path d="M20.832443565050326,-19.909995261203292 L23.073882245470465,-16.26342447321054 " />
			<path d="M14.708719208092386,-19.94047140356741 L14.708719208092386,-17.24052017099612 " />
			<path d="M23.073882245470465,-16.26342447321054 L14.708719208092383,-17.24052017099612 " />
			<path d="M14.708719208092386,-19.94047140356741 L20.832443565050326,-22.609946493774583 " />
			<path d="M14.708719208092386,-17.24052017099612 L20.832443565050326,-19.909995261203292 " />
			<path d="M34.28107564757115,-8.738947036439582 L34.28107564757115,-6.038995803868293 " />
			<path d="M34.28107564757115,-6.038995803868293 L28.157351290613207,-3.3695207136611223 " />
			<path d="M25.91591261019307,-9.71604273422516 L25.91591261019307,-7.016091501653872 " />
			<path d="M28.157351290613207,-3.3695207136611227 L25.915912610193068,-7.016091501653873 " />
			<path d="M25.91591261019307,-9.71604273422516 L34.28107564757115,-8.73894703643958 " />
			<path d="M25.91591261019307,-7.016091501653872 L34.28107564757115,-6.038995803868291 " />
			<path d="M38.16336132410896,-1.5025999858064847 L38.16336132410896,0.27705007433162887 " />
			<path d="M38.16336132410896,0.27705007433162887 L32.03963696715102,2.9465251645387993 " />
			<path d="M29.79819828673088,-3.3999968560252416 L29.79819828673088,-0.7000456234539527 " />
			<path d="M32.03963696715102,2.946525164538798 L29.79819828673088,-0.7000456234539532 " />
			<path d="M29.79819828673088,-3.3999968560252416 L33.80740392011739,-2.9317002360531452 " />
			<path d="M29.79819828673088,-0.7000456234539527 L38.16336132410896,0.27705007433162776 " />
			<path d="M48.769963041907175,-10.43132642886117 L48.769963041907175,-7.73137519628988 " />
			<path d="M48.769963041907175,-7.73137519628988 L42.64623868494923,-5.06190010608271 " />
			<path d="M40.40480000452909,-11.40842212664675 L40.40480000452909,-8.708470894075461 " />
			<path d="M42.64623868494924,-5.061900106082711 L40.4048000045291,-8.708470894075463 " />
			<path d="M40.40480000452909,-11.40842212664675 L48.769963041907175,-10.43132642886117 " />
			<path d="M40.40480000452909,-8.708470894075461 L48.769963041907175,-7.73137519628988 " />
			<path d="M52.65224871844499,-4.115280550661248 L52.65224871844499,-1.4153293180899595 " />
			<path d="M52.65224871844499,-1.4153293180899595 L46.528524361487044,1.254145772117211 " />
			<path d="M44.28708568106691,-5.09237624844683 L44.28708568106691,-2.392425015875541 " />
			<path d="M46.528524361487044,1.254145772117207 L44.287085681066905,-2.3924250158755442 " />
			<path d="M44.28708568106691,-5.09237624844683 L52.652248718444994,-4.115280550661249 " />
			<path d="M44.28708568106691,-2.392425015875541 L52.652248718444994,-1.4153293180899607 " />
			<path d="M31.819805153394636,15.220975073620636 L24.74873734152916,15.220975073620636 " />
			<path d="M24.74873734152916,9.771370120552204 L24.74873734152916,12.138530749768416 " />
			<path d="M24.74873734152916,15.220975073620636 L24.74873734152916,12.138530749768416 " />
			<path d="M31.819805153394636,10.597308587842305 L31.819805153394636,12.138530749768414 " />
			<path d="M24.74873734152916,12.138530749768416 L31.819805153394636,12.138530749768416 " />
			<path d="M31.819805153394636,12.138530749768414 L31.819805153394636,15.220975073620636 " />
			<path d="M-15.182390935546167,15.523289534611596 L-15.182390935546167,17.628638160678236 " />
			<path d="M-11.646857029613425,20.298113250885407 L-15.182390935546163,17.628638160678236 " />
			<path d="M-9.058666578588221,13.387464766180837 L-9.058666578588221,16.087415998752128 " />
			<path d="M-11.95511593993796,14.11644466246515 L-9.058666578588223,13.387464766180834 " />
			<path d="M-15.182390935546167,17.628638160678236 L-9.058666578588223,16.087415998752125 " />
			<path d="M-5.5231326726554855,16.056939856388006 L-5.5231326726554855,18.756891088959293 " />
			<path d="M-9.058666578588221,13.387464766180837 L-5.523132672655482,16.05693985638801 " />
			<path d="M-9.058666578588221,16.087415998752128 L-5.523132672655482,18.7568910889593 " />
			<path d="M-5.5231326726554855,18.756891088959293 L-11.646857029613432,20.298113250885404 " />
			<path d="M-43.46666218300807,3.727162560979126 L-43.46666218300807,6.427113793550415 " />
			<path d="M-39.93112827707533,1.0576874707719552 L-39.93112827707533,3.757638703343244 " />
			<path d="M-43.46666218300807,3.727162560979126 L-39.93112827707533,1.0576874707719544 " />
			<path d="M-43.46666218300807,6.427113793550415 L-39.93112827707533,3.7576387033432432 " />
			<path d="M-33.80740392011738,2.9317002360531443 L-33.80740392011738,5.298860865269355 " />
			<path d="M-39.93112827707533,1.0576874707719552 L-38.16336132410896,1.5025999858064834 " />
			<path d="M-39.93112827707533,3.757638703343244 L-33.80740392011739,5.298860865269353 " />
			<path d="M-33.80740392011738,5.298860865269355 L-37.34293782605012,7.968335955476526 " />
			<path d="M-37.34293782605012,7.968335955476526 L-43.46666218300806,6.427113793550417 " />
			<path d="M-31.81980515339464,-15.22097507362064 L-31.81980515339464,-12.52102384104935 " />
			<path d="M-24.748737341529164,-15.22097507362064 L-24.748737341529164,-12.52102384104935 " />
			<path d="M-31.81980515339464,-15.22097507362064 L-30.637354563692544,-15.22097507362064 " />
			<path d="M-25.626169113804437,-15.22097507362064 L-24.748737341529164,-15.22097507362064 " />
			<path d="M-31.81980515339464,-12.52102384104935 L-24.748737341529164,-12.52102384104935 " />
			<path d="M-24.748737341529164,-12.52102384104935 L-24.74873734152916,-9.43857951719713 " />
			<path d="M-24.748737341529164,-9.43857951719713 L-31.81980515339464,-9.438579517197129 " />
			<path d="M-31.81980515339464,-9.438579517197129 L-31.819805153394643,-12.521023841049349 " />
			<path d="M11.646857029613413,-20.298113250885415 L11.646857029613413,-17.598162018314127 " />
			<path d="M15.182390935546156,-17.185192784669074 L15.182390935546156,-14.928686928106954 " />
			<path d="M11.646857029613413,-20.298113250885415 L14.708719208092386,-17.98628000799625 " />
			<path d="M11.646857029613413,-17.598162018314127 L15.182390935546154,-14.928686928106957 " />
			<path d="M15.182390935546156,-14.928686928106954 L9.058666578588213,-13.387464766180841 " />
			<path d="M5.523132672655475,-18.313445712950138 L5.523132672655475,-16.05693985638802 " />
			<path d="M9.058666578588214,-13.387464766180846 L5.523132672655473,-16.056939856388016 " />
			<path d="M8.584994851134436,-19.52750216992236 L11.64685702961342,-20.298113250885418 " />
			<path d="M5.523132672655475,-16.05693985638802 L11.64685702961342,-17.59816201831413 " />
			<path d="M43.46666218300807,-5.419541953400714 L43.46666218300807,-3.727162560979126 " />
			<path d="M43.46666218300807,-3.727162560979126 L39.93112827707533,-1.0576874707719548 " />
			<path d="M33.80740392011739,-5.298860865269355 L33.80740392011739,-2.5989096326980663 " />
			<path d="M39.93112827707533,-1.0576874707719561 L33.80740392011739,-2.5989096326980667 " />
			<path d="M37.342937826050125,-7.968335955476525 L37.342937826050125,-5.268384722905236 " />
			<path d="M33.80740392011739,-5.298860865269355 L37.342937826050125,-7.968335955476526 " />
			<path d="M33.80740392011739,-2.5989096326980663 L37.342937826050125,-5.268384722905237 " />
			<path d="M37.342937826050125,-7.968335955476525 L41.503358229355406,-6.921239163600512 " />
			<path d="M37.342937826050125,-5.268384722905236 L43.46666218300807,-3.7271625609791252 " />

        </g>
        </g>
    </svg>
    