<?xml version="1.0" encoding="UTF-8" standalone="no"?>
    <svg
    xmlns:svg="http://www.w3.org/2000/svg"
    xmlns="http://www.w3.org/2000/svg"
    width="415"
    height="231"
    >
        <g transform="scale(4, -4)   translate(52.101933318057796,-28.87909630937582)" stroke-width="0.25"  fill="none">
        <!-- hidden lines -->
        <g  stroke="rgb(160,160,160)" fill="none" stroke-dasharray="0.25,0.25" >
    			<path d="M-49.601933318057796,-7.68250037880069 L6.9226031891352555,17.415510245826077 " />
			<path d="M6.922603189135248,17.415510245826074 L6.922603189135248,26.379096309375818 " />
			<path d="M49.38198889611336,-1.378745352336545 L6.922603189135246,17.41551024582607 " />
			<path d="M-3.046602270707586,-10.540427296794666 L-3.491358806723622,-10.400569679787196 L-4.043897163274732,-10.324355170032831 L-4.6783611372416996,-10.31535024906444 L-5.365060790924797,-10.373976304941099 L-6.071861801852091,-10.49748991326366 L-6.765689198328452,-10.68011121656719 L-7.414075112955594,-10.913294394536905 L-7.9866781265189655,-11.186127568310306 L-8.45670310407484,-11.48584342522013 L-8.80215508156924,-11.798416669135475 L-9.006868526976874,-12.109220338527821 L-9.061263811367114,-12.403710279655213 L-8.962795490599763,-12.668105744730502 L-8.71607142017007,-12.890034266272048 " />
			<path d="M-8.716071420170065,-12.890034266272053 L-8.316804141297856,-13.064008347393276 L-7.791064019281899,-13.172624164491081 L-7.165213859139614,-13.210435266956033 L-6.4706364012231905,-13.175545648225127 L-5.742160659575404,-13.069704819467887 L-5.016315449732238,-12.898220081791012 L-4.3294976813808415,-12.669690395999515 L-3.7161472653275625,-12.395575194795839 L-3.207020152561579,-12.089619758973718 L-2.8276461024466357,-11.767165971643905 L-2.5970485139835535,-11.444383012152855 L-2.5267905131495327,-11.137456565913697 L-2.6203951294782537,-10.861777206554073 L-2.873168636648154,-10.631168648289025 " />
			<path d="M-2.873168636648164,-10.631168648289016 L-2.8844669861973466,-10.624244335761974 L-2.8959357877021863,-10.617386581347468 L-2.9075743694180662,-10.610595786714292 L-2.919382049656092,-10.603872349609304 L-2.9313581368230164,-10.597216663834127 L-2.94350192946175,-10.590629119222097 L-2.95581271629245,-10.584110101615416 L-2.968289776254175,-10.577659992842557 L-2.9809323785471213,-10.571279170695908 L-2.9937397826754255,-10.564968008909629 L-3.006711238490543,-10.558726877137776 L-3.019845986235171,-10.55255614093264 L-3.0331432565877656,-10.546456161723343 L-3.0466022707075697,-10.540427296794673 " />
			<path d="M18.93753979091278,-0.7790340129127535 L18.492783254896686,-0.6391763959052696 L17.940244898345497,-0.5629618861509094 L17.305780924378436,-0.5539569651825371 L16.619081270695247,-0.6125830210592282 L15.91228025976787,-0.7360966293818361 L15.218452863291445,-0.9187179326854229 L14.570066948664275,-1.1519011106551977 L13.99746393510092,-1.4247342844286595 L13.527438957545101,-1.7244501413385376 L13.181986980050807,-2.037023385253926 L12.97727353464333,-2.3478270546462965 L12.922878250253286,-2.64231699577369 L13.021346571020866,-2.9067124608489574 L13.268070641450805,-3.12864098239045 " />
			<path d="M13.268070641450816,-3.128640982390459 L13.667337920323194,-3.3026150635115727 L14.193078042339259,-3.41123088060927 L14.818928202481594,-3.449041983074123 L15.513505660398012,-3.414152364343131 L16.241981402045738,-3.3083115355858266 L16.96782661188881,-3.1368267979089057 L17.654644380240086,-2.9082971121173853 L18.267994796293234,-2.634181910913704 L18.77712190905908,-2.3282264750915975 L19.156495959173903,-2.0057726877618114 L19.387093547636884,-1.6829897282707982 L19.45735154847083,-1.3760632820316812 L19.36374693214207,-1.1003839226720975 L19.110973424972173,-0.869775364407092 " />
			<path d="M19.11097342497215,-0.8697753644070738 L19.099675075422976,-0.8628510518800334 L19.08820627391814,-0.85599329746553 L19.07656769220226,-0.849202502832356 L19.064760011964236,-0.8424790657273695 L19.052783924797314,-0.8358233799521952 L19.040640132158583,-0.8292358353401663 L19.028329345327887,-0.8227168177334845 L19.015852285366165,-0.8162667089606284 L19.00320968307322,-0.8098858868139807 L18.990402278944917,-0.8035747250277041 L18.977430823129804,-0.7973335932558527 L18.964296075385178,-0.791162857050719 L18.950998805032587,-0.7850628778414233 L18.937539790912812,-0.779034012912768 " />
			<path d="M-13.661448697452114,-5.841863397254011 L-14.10620523346797,-5.70200578024658 L-14.65874359001883,-5.625791270492208 L-15.293207563985508,-5.616786349523759 L-15.979907217668314,-5.675412405400312 L-16.68670822859535,-5.798926013722728 L-17.38053562507152,-5.981547317026083 L-18.028921539698572,-6.214730494995607 L-18.60152455326198,-6.48756366876882 L-19.07154953081804,-6.787279525678473 L-19.417001508312772,-7.099852769593689 L-19.621714953720883,-7.410656438985956 L-19.67611023811174,-7.705146380113339 L-19.577641917345108,-7.969541845188699 L-19.330917846916204,-8.1914703667304 " />
			<path d="M-19.3309178469162,-8.191470366730405 L-18.9316505680445,-8.365444447851978 L-18.405910446028855,-8.47406026495012 L-17.78006028588669,-8.511871367415374 L-17.085482827970218,-8.47698174868472 L-16.357007086322234,-8.37114091992767 L-15.631161876478755,-8.19965618225092 L-14.94434410812697,-7.971126496459478 L-14.330993692073275,-7.697011295255795 L-13.821866579306889,-7.3910558594336155 L-13.442492529191593,-7.068602072103703 L-13.21189494072824,-6.745819112612532 L-13.141636939894054,-6.4388926663732455 L-13.235241556222723,-6.163213307013507 L-13.488015063392682,-5.932604748748371 " />
			<path d="M-13.488015063392693,-5.932604748748362 L-13.499313412941875,-5.9256804362213185 L-13.510782214446715,-5.918822681806812 L-13.522420796162596,-5.912031887173637 L-13.53422847640062,-5.905308450068649 L-13.546204563567544,-5.898652764293473 L-13.55834835620628,-5.892065219681442 L-13.570659143036979,-5.88554620207476 L-13.583136202998704,-5.879096093301902 L-13.59577880529165,-5.872715271155252 L-13.608586209419954,-5.866404109368974 L-13.621557665235072,-5.8601629775971205 L-13.6346924129797,-5.853992241391985 L-13.647989683332295,-5.847892262182688 L-13.661448697452098,-5.841863397254018 " />
			<path d="M8.322693364168252,3.9195298866279003 L7.877936828152237,4.059387503635369 L7.325398471601153,4.135602013389732 L6.690934497634213,4.14460693435813 L6.004234843951146,4.085980878481482 L5.297433833023877,3.9624672701589367 L4.603606436547535,3.7798459668554236 L3.955220521920402,3.546662788885729 L3.3826175083570296,3.2738296151123465 L2.9125925308011333,2.9741137582025385 L2.567140553306698,2.6615405142872057 L2.362427107899019,2.350736844894868 L2.308031823508714,2.056246903767478 L2.406500144275993,1.7918514386921809 L2.6532242147055958,1.569922917150627 " />
			<path d="M2.653224214705606,1.569922917150618 L3.0524914935777665,1.395948836029355 L3.5782316155936984,1.2873330189315155 L4.204081775735977,1.2495219164665337 L4.898659233652419,1.2844115351974177 L5.627134975300228,1.3902523639546411 L6.352980185143432,1.5617371016315078 L7.039797953494874,1.7902667874230043 L7.653148369548196,2.0643819886266885 L8.16227548231422,2.3703374244488207 L8.541649532429192,2.69279121177865 L8.772247120892288,3.0155741712697153 L8.842505121726305,3.322500617508887 L8.748900505397566,3.59817997686852 L8.496126998227645,3.8287885351335627 " />
			<path d="M8.496126998227625,3.828788535133581 L8.484828648678448,3.8357128476606213 L8.47335984717361,3.8425706020751256 L8.461721265457733,3.849361396708298 L8.449913585219708,3.8560848338132856 L8.437937498052788,3.8627405195884594 L8.425793705414055,3.8693280642004875 L8.413482918583359,3.875847081807169 L8.401005858621637,3.8822971905800254 L8.388363256328693,3.888678012726673 L8.37555585220039,3.89498917451295 L8.362584396385277,3.9012303062848015 L8.34944964864065,3.9074010424899366 L8.336152378288059,3.9135010216992305 L8.322693364168286,3.919529886627886 " />
			<path d="M10.874524707102891,4.2239596553640535 L10.96762780656432,4.178841326598784 L11.057205883023357,4.127480327083471 " />
			<path d="M11.057205883023366,4.127480327083466 L11.135970146140338,4.075064194908419 L11.21136925073324,4.017656728520595 L11.28322155375493,3.9553962275348207 L11.351353956713904,3.8884326829513496 L11.415602322683746,3.816927415814395 L11.47581187172334,3.7410526885756132 L11.531837553755318,3.660991290098763 L11.583544398004392,3.576936095305323 L11.630807838153784,3.4890896005219187 L11.673514012436383,3.397663435648928 L11.711560037937724,3.3028778543255157 L11.744854258449937,3.204961203319325 L11.773316465279578,3.1041493724191165 L11.7968780904774,3.0006852261556016 L11.815482372024546,2.8948180187195183 L11.829084490577227,2.7868027934864537 L11.837651677440443,2.6768997685950082 L11.841163293510647,2.5653737100585148 L11.839610878997142,2.4524932939205177 L11.832998173802466,2.3385304589906486 L11.821341108512641,2.22375975172022 L11.804667766018984,2.108457664795772 L11.783018313863979,1.9929019710439764 L11.756444907474132,1.8773710542525646 L11.725011564512993,1.7621432385193998 L11.688794010656991,1.6474961177453484 L11.647879497165649,1.5337058868862563 L11.602366590685653,1.4210466765751084 L11.552364935795175,1.309789892717328 L11.497994990860475,1.200203562650173 L11.439387737841145,1.092551689441403 L11.376684366743095,0.9870936158827677 L11.31003593547947,0.8840833997105062 L11.239603005958898,0.7837692015580071 L11.165555257277786,0.6863926871151056 L11.088071076948523,0.5921884449342687 L11.00733713114834,0.501383421286228 L10.923547915024125,0.4141963734265348 L10.836905284136591,0.33083734259016473 L10.747617968172545,0.2515071479837909 L10.655901068096787,0.17639690299472477 L10.561975537955052,0.10568755478202552 L10.466067652576356,0.03954944835894514 L10.368408462457117,-0.0218580837831297 L10.269233237140265,-0.07838710552060402 L10.168780898430313,-0.1299014334887545 L10.067293444809799,-0.17627696515938407 L9.965015368443742,-0.21740197781468185 L9.862193066176614,-0.25317739769703396 L9.759074245940747,-0.28351703868638767 L9.65590733000623,-0.3083478099301611 L9.5529408565099,-0.3276098919255097 L9.450422880705215,-0.3412568806297469 L9.348600377375396,-0.3492558992517494 L9.247718645849565,-0.35158767745502617 L9.148020719055165,-0.3482465977816447 L9.049746778030348,-0.33924070918518323 L8.953133573306827,-0.32459170764009304 L8.858413854557094,-0.3043348838741968 L8.765815809880086,-0.2785190383502343 L8.675562516076063,-0.2472063637012747 L8.587871401235052,-0.2104722949032145 L8.50295372093354,-0.1684053275453108 L8.421014049301299,-0.12110680463657042 " />
			<path d="M8.421014049301283,-0.1211068046365611 L8.366692537069772,-0.08573708519982404 L8.313923373419199,-0.04800457300051786 L8.262766245828441,-0.007951947481883881 L8.213279018393902,0.03437548762044518 L8.165517666379122,0.0789298555217357 L8.119536212900867,0.12566076054184028 L8.075386667823297,0.17451534510801414 L8.033118968929333,0.22543834954239572 L7.992780925435765,0.27837217456651797 L7.954418163916004,0.3332569464521573 L7.918074076691614,0.3900305847448198 L7.883789772751037,0.44862887248327454 L7.851604031250995,0.5089855288356924 L7.821553257653181,0.5710322840702464 L7.793671442545855,0.6346989567753645 L7.767990123196904,0.6999135332422926 L7.744538347881878,0.766602248920182 L7.723342643027327,0.8346896718515586 L7.704426983206625,0.9040987879938096 L7.687812764022203,0.9747510883301709 L7.6735187779048655,1.0465666576716903 L7.661561192857581,1.1194642650497189 L7.651953534167761,1.1933614555966856 L7.644706669108745,1.2681746438112347 L7.639828794647759,1.3438192081022236 L7.637325428174292,1.420209586504654 L7.637199401259346,1.4972593734592565 L7.639450856452626,1.5748814175462775 L7.644077247121308,1.6529879200629074 L7.651073340330546,1.731490534332855 L7.660431222762471,1.8103004656357393 L7.672140309666984,1.8893285716432608 " />
			<path d="M10.847516742152353,4.2356001898713345 L10.874524707102882,4.223959655364057 " />
			<path d="M0.2596782803583617,8.922523554904707 L0.3527813798197903,8.877405226139437 L0.4423594562788289,8.826044226624125 " />
			<path d="M0.4423594562788362,8.82604422662412 L0.5211237193958074,8.773628094449073 L0.5965228239887108,8.716220628061249 L0.6683751270103997,8.653960127075475 L0.7365075299693755,8.586996582492004 L0.8007558959392176,8.51549131535505 L0.8609654449788122,8.439616588116268 L0.9169911270107891,8.359555189639417 L0.9686979712598636,8.275499994845978 L1.0159614114092546,8.187653500062574 L1.0586675856918537,8.096227335189583 L1.0967136111931948,8.00144175386617 L1.1300078317054074,7.903525102859979 L1.1584700385350482,7.802713271959771 L1.1820316637328696,7.699249125696256 L1.200635945280016,7.593381918260173 L1.2142380638326966,7.4853666930271086 L1.2228052506959137,7.375463668135662 L1.2263168667661166,7.26393760959917 L1.224764452252612,7.151057193461172 L1.2181517470579368,7.037094358531303 L1.2064946817681108,6.922323651260874 L1.1898213392744552,6.807021564336426 L1.1681718871194493,6.691465870584631 L1.1415984807296022,6.575934953793219 L1.1101651377684634,6.460707138060054 L1.073947583912462,6.346060017286002 L1.0330330704211195,6.232269786426911 L0.9875201639411237,6.119610576115763 L0.9375185090506462,6.008353792257982 L0.883148564115946,5.898767462190827 L0.8245413110966155,5.791115588982057 L0.7618379399985666,5.685657515423422 L0.6951895087349418,5.58264729925116 L0.6247565792143679,5.482333101098662 L0.5507088305332564,5.38495658665576 L0.47322465020399473,5.290752344474923 L0.3924907044038106,5.199947320826882 L0.3087014882795962,5.112760272967189 L0.2220588573920621,5.029401242130819 L0.13277154142801506,4.950071047524445 L0.041054641352257115,4.874960802535379 L-0.05287088878947743,4.80425145432268 L-0.14877877416817242,4.738113347899599 L-0.24643796428741183,4.676705815757525 L-0.3456131896042639,4.62017679402005 L-0.4460655283142162,4.5686624660519 L-0.547552981934731,4.52228693438127 L-0.6498310583007874,4.481161921725972 L-0.7526533605679157,4.44538650184362 L-0.8557721808037827,4.415046860854266 L-0.9589390967383005,4.390216089610494 L-1.0619055702346283,4.370954007615145 L-1.1644235460393149,4.357307018910907 L-1.2662460493691334,4.3493080002889055 L-1.3671277808949638,4.346976222085628 L-1.466825707689364,4.350317301759009 L-1.5650996487141802,4.359323190355472 L-1.6617128534377026,4.373972191900561 L-1.7564325721874345,4.394229015666458 L-1.8490306168644426,4.42004486119042 L-1.939283910668467,4.45135753583938 L-2.0269750255094774,4.4880916046374395 L-2.1118927058109893,4.530158571995344 L-2.193832377443231,4.577457094904084 " />
			<path d="M-2.193832377443246,4.577457094904093 L-2.2481538896747577,4.61282681434083 L-2.300923053325331,4.650559326540137 L-2.3520801809160883,4.690611952058771 L-2.401567408350628,4.7329393871611 L-2.4493287603654084,4.77749375506239 L-2.4953102138436627,4.8242246600824945 L-2.5394597589212324,4.873079244648669 L-2.581727457815197,4.924002249083051 L-2.6220655013087644,4.976936074107174 L-2.6604282628285265,5.031820845992812 L-2.6967723500529157,5.088594484285475 L-2.731056653993493,5.1471927720239306 L-2.7632423954935357,5.207549428376348 L-2.793293169091349,5.269596183610902 L-2.8211749841986755,5.33326285631602 L-2.846856303547626,5.398477432782949 L-2.870308078862652,5.465166148460838 L-2.8915037837172024,5.5332535713922155 L-2.9104194435379043,5.602662687534466 L-2.9270336627223266,5.673314987870827 L-2.941327648839664,5.745130557212348 L-2.953285233886948,5.818028164590376 L-2.9628928925767672,5.891925355137343 L-2.970139757635785,5.966738543351892 L-2.9750176320967707,6.042383107642881 L-2.9775209985702373,6.118773486045312 L-2.977647025485184,6.195823272999914 L-2.9753955702919033,6.273445317086936 L-2.970769179623221,6.351551819603565 L-2.9637730864139824,6.430054433873513 L-2.954415203982059,6.508864365176398 L-2.9427061170775444,6.5878924711839195 " />
			<path d="M0.2326703154078258,8.934164089411986 L0.25967828035835305,8.92252355490471 " />
			<path d="M10.874524707102891,4.2239596553640535 L10.96762780656432,4.178841326598784 L11.057205883023357,4.127480327083471 " />
			<path d="M11.057205883023366,4.127480327083466 L11.135970146140338,4.075064194908419 L11.21136925073324,4.017656728520595 L11.28322155375493,3.9553962275348207 L11.351353956713904,3.8884326829513496 L11.415602322683746,3.816927415814395 L11.47581187172334,3.7410526885756132 L11.531837553755318,3.660991290098763 L11.583544398004392,3.576936095305323 L11.630807838153784,3.4890896005219187 L11.673514012436383,3.397663435648928 L11.711560037937724,3.3028778543255157 L11.744854258449937,3.204961203319325 L11.773316465279578,3.1041493724191165 L11.7968780904774,3.0006852261556016 L11.815482372024546,2.8948180187195183 L11.829084490577227,2.7868027934864537 L11.837651677440443,2.6768997685950082 L11.841163293510647,2.5653737100585148 L11.839610878997142,2.4524932939205177 L11.832998173802466,2.3385304589906486 L11.821341108512641,2.22375975172022 L11.804667766018984,2.108457664795772 L11.783018313863979,1.9929019710439764 L11.756444907474132,1.8773710542525646 L11.725011564512993,1.7621432385193998 L11.688794010656991,1.6474961177453484 L11.647879497165649,1.5337058868862563 L11.602366590685653,1.4210466765751084 L11.552364935795175,1.309789892717328 L11.497994990860475,1.200203562650173 L11.439387737841145,1.092551689441403 L11.376684366743095,0.9870936158827677 L11.31003593547947,0.8840833997105062 L11.239603005958898,0.7837692015580071 L11.165555257277786,0.6863926871151056 L11.088071076948523,0.5921884449342687 L11.00733713114834,0.501383421286228 L10.923547915024125,0.4141963734265348 L10.836905284136591,0.33083734259016473 L10.747617968172545,0.2515071479837909 L10.655901068096787,0.17639690299472477 L10.561975537955052,0.10568755478202552 L10.466067652576356,0.03954944835894514 L10.368408462457117,-0.0218580837831297 L10.269233237140265,-0.07838710552060402 L10.168780898430313,-0.1299014334887545 L10.067293444809799,-0.17627696515938407 L9.965015368443742,-0.21740197781468185 L9.862193066176614,-0.25317739769703396 L9.759074245940747,-0.28351703868638767 L9.65590733000623,-0.3083478099301611 L9.5529408565099,-0.3276098919255097 L9.450422880705215,-0.3412568806297469 L9.348600377375396,-0.3492558992517494 L9.247718645849565,-0.35158767745502617 L9.148020719055165,-0.3482465977816447 L9.049746778030348,-0.33924070918518323 L8.953133573306827,-0.32459170764009304 L8.858413854557094,-0.3043348838741968 L8.765815809880086,-0.2785190383502343 L8.675562516076063,-0.2472063637012747 L8.587871401235052,-0.2104722949032145 L8.50295372093354,-0.1684053275453108 L8.421014049301299,-0.12110680463657042 " />
			<path d="M8.421014049301283,-0.1211068046365611 L8.366692537069772,-0.08573708519982404 L8.313923373419199,-0.04800457300051786 L8.262766245828441,-0.007951947481883881 L8.213279018393902,0.03437548762044518 L8.165517666379122,0.0789298555217357 L8.119536212900867,0.12566076054184028 L8.075386667823297,0.17451534510801414 L8.033118968929333,0.22543834954239572 L7.992780925435765,0.27837217456651797 L7.954418163916004,0.3332569464521573 L7.918074076691614,0.3900305847448198 L7.883789772751037,0.44862887248327454 L7.851604031250995,0.5089855288356924 L7.821553257653181,0.5710322840702464 L7.793671442545855,0.6346989567753645 L7.767990123196904,0.6999135332422926 L7.744538347881878,0.766602248920182 L7.723342643027327,0.8346896718515586 L7.704426983206625,0.9040987879938096 L7.687812764022203,0.9747510883301709 L7.6735187779048655,1.0465666576716903 L7.661561192857581,1.1194642650497189 L7.651953534167761,1.1933614555966856 L7.644706669108745,1.2681746438112347 L7.639828794647759,1.3438192081022236 L7.637325428174292,1.420209586504654 L7.637199401259346,1.4972593734592565 L7.639450856452626,1.5748814175462775 L7.644077247121308,1.6529879200629074 L7.651073340330546,1.731490534332855 L7.660431222762471,1.8103004656357393 L7.672140309666984,1.8893285716432608 " />
			<path d="M10.847516742152353,4.2356001898713345 L10.874524707102882,4.223959655364057 " />
			<path d="M0.2596782803583617,8.922523554904707 L0.3527813798197903,8.877405226139437 L0.4423594562788289,8.826044226624125 " />
			<path d="M0.4423594562788362,8.82604422662412 L0.5211237193958074,8.773628094449073 L0.5965228239887108,8.716220628061249 L0.6683751270103997,8.653960127075475 L0.7365075299693755,8.586996582492004 L0.8007558959392176,8.51549131535505 L0.8609654449788122,8.439616588116268 L0.9169911270107891,8.359555189639417 L0.9686979712598636,8.275499994845978 L1.0159614114092546,8.187653500062574 L1.0586675856918537,8.096227335189583 L1.0967136111931948,8.00144175386617 L1.1300078317054074,7.903525102859979 L1.1584700385350482,7.802713271959771 L1.1820316637328696,7.699249125696256 L1.200635945280016,7.593381918260173 L1.2142380638326966,7.4853666930271086 L1.2228052506959137,7.375463668135662 L1.2263168667661166,7.26393760959917 L1.224764452252612,7.151057193461172 L1.2181517470579368,7.037094358531303 L1.2064946817681108,6.922323651260874 L1.1898213392744552,6.807021564336426 L1.1681718871194493,6.691465870584631 L1.1415984807296022,6.575934953793219 L1.1101651377684634,6.460707138060054 L1.073947583912462,6.346060017286002 L1.0330330704211195,6.232269786426911 L0.9875201639411237,6.119610576115763 L0.9375185090506462,6.008353792257982 L0.883148564115946,5.898767462190827 L0.8245413110966155,5.791115588982057 L0.7618379399985666,5.685657515423422 L0.6951895087349418,5.58264729925116 L0.6247565792143679,5.482333101098662 L0.5507088305332564,5.38495658665576 L0.47322465020399473,5.290752344474923 L0.3924907044038106,5.199947320826882 L0.3087014882795962,5.112760272967189 L0.2220588573920621,5.029401242130819 L0.13277154142801506,4.950071047524445 L0.041054641352257115,4.874960802535379 L-0.05287088878947743,4.80425145432268 L-0.14877877416817242,4.738113347899599 L-0.24643796428741183,4.676705815757525 L-0.3456131896042639,4.62017679402005 L-0.4460655283142162,4.5686624660519 L-0.547552981934731,4.52228693438127 L-0.6498310583007874,4.481161921725972 L-0.7526533605679157,4.44538650184362 L-0.8557721808037827,4.415046860854266 L-0.9589390967383005,4.390216089610494 L-1.0619055702346283,4.370954007615145 L-1.1644235460393149,4.357307018910907 L-1.2662460493691334,4.3493080002889055 L-1.3671277808949638,4.346976222085628 L-1.466825707689364,4.350317301759009 L-1.5650996487141802,4.359323190355472 L-1.6617128534377026,4.373972191900561 L-1.7564325721874345,4.394229015666458 L-1.8490306168644426,4.42004486119042 L-1.939283910668467,4.45135753583938 L-2.0269750255094774,4.4880916046374395 L-2.1118927058109893,4.530158571995344 L-2.193832377443231,4.577457094904084 " />
			<path d="M-2.193832377443246,4.577457094904093 L-2.2481538896747577,4.61282681434083 L-2.300923053325331,4.650559326540137 L-2.3520801809160883,4.690611952058771 L-2.401567408350628,4.7329393871611 L-2.4493287603654084,4.77749375506239 L-2.4953102138436627,4.8242246600824945 L-2.5394597589212324,4.873079244648669 L-2.581727457815197,4.924002249083051 L-2.6220655013087644,4.976936074107174 L-2.6604282628285265,5.031820845992812 L-2.6967723500529157,5.088594484285475 L-2.731056653993493,5.1471927720239306 L-2.7632423954935357,5.207549428376348 L-2.793293169091349,5.269596183610902 L-2.8211749841986755,5.33326285631602 L-2.846856303547626,5.398477432782949 L-2.870308078862652,5.465166148460838 L-2.8915037837172024,5.5332535713922155 L-2.9104194435379043,5.602662687534466 L-2.9270336627223266,5.673314987870827 L-2.941327648839664,5.745130557212348 L-2.953285233886948,5.818028164590376 L-2.9628928925767672,5.891925355137343 L-2.970139757635785,5.966738543351892 L-2.9750176320967707,6.042383107642881 L-2.9775209985702373,6.118773486045312 L-2.977647025485184,6.195823272999914 L-2.9753955702919033,6.273445317086936 L-2.970769179623221,6.351551819603565 L-2.9637730864139824,6.430054433873513 L-2.954415203982059,6.508864365176398 L-2.9427061170775444,6.5878924711839195 " />
			<path d="M0.2326703154078258,8.934164089411986 L0.25967828035835305,8.92252355490471 " />
			<path d="M-17.136486355569524,-7.6652787414242445 L-8.7160714240532,-12.890034263862619 " />
			<path d="M-11.293583574121666,-5.406413122154293 L-2.873168642600293,-10.6311686445958 " />
			<path d="M4.847655706045915,2.096114542460725 L8.421014049301283,-0.1211068046365607 " />
			<path d="M10.690558487498427,4.354980161727792 L11.057205883023366,4.1274803270834655 " />
			<path d="M-27.751332782314048,-2.9667148418835945 L-19.330917850797537,-8.191470364322084 " />
			<path d="M-21.908430000866197,-0.7078492226136389 L-13.488015069344822,-5.932604745055146 " />
			<path d="M-5.767190720698601,6.794678442001372 L-2.193832377443246,4.577457094904094 " />
			<path d="M0.07571206075389542,9.053544061268447 L0.44235945627883627,8.82604422662412 " />
			<path d="M19.11097341901921,-0.8697753607133477 L11.057205883023366,4.1274803270834655 " />
			<path d="M13.26807063756457,-3.128640979979096 L8.421014049301283,-0.1211068046365607 " />
			<path d="M8.496126992274677,3.8287885388273057 L0.44235945627883627,8.82604422662412 " />
			<path d="M2.653224210820121,1.5699229195615099 L-2.193832377443246,4.577457094904094 " />

        </g>

        <!-- solid lines -->
        <g  stroke="rgb(0,0,0)" fill="none">
    			<path d="M-7.14254761107968,-26.476755976963307 L-7.14254761107968,-17.513169913413563 " />
			<path d="M-7.14254761107968,-17.51316991341356 L-49.601933318057796,1.281085684749057 " />
			<path d="M-49.601933318057796,-7.68250037880069 L-49.601933318057796,1.2810856847490566 " />
			<path d="M-7.14254761107968,-26.476755976963307 L-49.601933318057796,-7.6825003788006905 " />
			<path d="M-7.14254761107968,-26.476755976963307 L49.38198889611337,-1.3787453523365412 " />
			<path d="M49.38198889611336,-1.378745352336545 L49.38198889611336,7.584840711213201 " />
			<path d="M-7.14254761107968,-17.51316991341356 L49.38198889611337,7.584840711213206 " />
			<path d="M-49.601933318057796,1.2810856847490564 L6.9226031891352555,26.37909630937582 " />
			<path d="M49.38198889611336,7.584840711213202 L6.922603189135246,26.379096309375818 " />
			<path d="M-11.467017202228824,-5.315671774353243 L-11.911773738244726,-5.175814157345801 L-12.464312094795652,-5.099599647591431 L-13.098776068762408,-5.090594726622998 L-13.785475722445293,-5.1492207824995795 L-14.492276733372396,-5.272734390822032 L-15.18610412984862,-5.455355694125435 L-15.834490044475691,-5.688538872095009 L-16.40709305803909,-5.961372045868272 L-16.877118035595103,-6.261087902777973 L-17.222570013089747,-6.573661146693221 L-17.427283458497733,-6.8844648160855115 L-17.481678742888427,-7.178954757212894 L-17.3832104221216,-7.443350222288235 L-17.136486351692486,-7.665278743829895 " />
			<path d="M-17.136486351692483,-7.6652787438299 L-16.737219072820594,-7.839252824951398 L-16.21147895080479,-7.94786864204945 L-15.585628790662495,-7.9856797445146075 L-14.891051332745935,-7.950790125783852 L-14.162575591097914,-7.844949297026707 L-13.436730381254447,-7.673464559349863 L-12.749912612902728,-7.444934873558344 L-12.13656219684915,-7.170819672354595 L-11.627435084082927,-6.864864236532375 L-11.248061033967835,-6.542410449202441 L-11.017463445504715,-6.219627489711273 L-10.947205444670782,-5.912701043472019 L-11.04081006099971,-5.637021684112332 L-11.293583568169916,-5.406413125847276 " />
			<path d="M-11.293583568169927,-5.406413125847267 L-11.30488191771908,-5.39948881332025 L-11.316350719223886,-5.392631058905771 L-11.327989300939734,-5.3858402642726215 L-11.339796981177729,-5.379116827167657 L-11.351773068344617,-5.372461141392506 L-11.363916860983315,-5.365873596780499 L-11.376227647813979,-5.359354579173841 L-11.388704707775663,-5.352904470401006 L-11.40134731006857,-5.346523648254378 L-11.414154714196835,-5.340212486468124 L-11.427126170011908,-5.333971354696292 L-11.440260917756493,-5.327800618491178 L-11.453558188109048,-5.321700639281902 L-11.467017202228806,-5.31567177435325 " />
			<path d="M10.517124859391547,4.445721509528669 L10.072368323375608,4.585579126536118 L9.51982996682463,4.661793636290486 L8.885365992857816,4.670798557258907 L8.198666339174874,4.612172501382306 L7.491865328247718,4.488658893059823 L6.798037931771457,4.306037589756386 L6.149652017144364,4.072854411786773 L5.577049003580974,3.800021238013472 L5.107024026025002,3.5003053811037383 L4.761572048530423,3.187732137188462 L4.556858603122535,2.8769284677961573 L4.502463318731966,2.5824385266687715 L4.600931639498935,2.318043061593445 L4.8476557099282065,2.096114540051816 " />
			<path d="M4.847655709928212,2.0961145400518117 L5.246922988800145,1.922140458930402 L5.7726631108159285,1.8135246418324182 L6.398513270958139,1.7757135393673045 L7.093090728874584,1.810603158098074 L7.821566470522464,1.9164439868552072 L8.547411680365794,2.0879287245320124 L9.234229448717395,2.3164584103234733 L9.847579864770898,2.5905736115271494 L10.356706977537101,2.896529047349296 L10.736081027652242,3.2189828346791596 L10.96667861611548,3.5417657941702725 L11.036936616949605,3.848692240409499 L10.943332000620929,4.124371599769185 L10.690558493451025,4.35498015803428 " />
			<path d="M10.690558493451014,4.354980158034289 L10.679260143901832,4.361904470561335 L10.667791342396988,4.368762224975843 L10.656152760681106,4.37555301960902 L10.64434508044308,4.382276456714012 L10.632368993276152,4.388932142489189 L10.620225200637416,4.3955196871012205 L10.607914413806713,4.4020387047079055 L10.595437353844986,4.408488813480764 L10.582794751552036,4.414869635627415 L10.56998734742373,4.421180797413696 L10.55701589160861,4.4274219291855506 L10.54388114386398,4.433592665390686 L10.53058387351138,4.439692644599985 L10.517124859391563,4.445721509528662 " />
			<path d="M-22.081863628973355,-0.6171078748125887 L-22.526620164989254,-0.47725025780514874 L-23.079158521540172,-0.40103574805077913 L-23.71362249550692,-0.3920308270823434 L-24.400322149189797,-0.4506568829589208 L-25.107123160116892,-0.5741704912813719 L-25.80095055659311,-0.7567917945847686 L-26.449336471220185,-0.9899749725543388 L-27.02193948478358,-1.2628081463275962 L-27.491964462339595,-1.5625240032372913 L-27.83741643983425,-1.875097247152539 L-28.042129885242247,-2.1859009165448255 L-28.096525169632958,-2.48039085767221 L-27.99805684886615,-2.744786322747552 L-27.751332778437057,-2.9667148442892164 " />
			<path d="M-27.751332778437053,-2.966714844289221 L-27.352065499565175,-3.140688925410727 L-26.82632537754938,-3.2493047425087886 L-26.200475217407092,-3.2871158449739535 L-25.505897759490527,-3.2522262262432053 L-24.7774220178425,-3.1463853974860636 L-24.05157680799903,-2.9749006598092245 L-23.364759039647303,-2.746370974017706 L-22.75140862359371,-2.4722557728139587 L-22.242281510827482,-2.166300336991736 L-21.862907460712375,-1.843846549661799 L-21.63230987224925,-1.5210635901706289 L-21.562051871415314,-1.214137143931371 L-21.65565648774424,-0.938457784571683 L-21.908429994914446,-0.7078492263066232 " />
			<path d="M-21.908429994914457,-0.7078492263066141 L-21.91972834446361,-0.7009249137795959 L-21.93119714596842,-0.6940671593651164 L-21.942835727684265,-0.6872763647319664 L-21.95464340792226,-0.6805529276270035 L-21.966619495089148,-0.6738972418518518 L-21.978763287727844,-0.6673096972398451 L-21.991074074558508,-0.6607906796331868 L-22.003551134520194,-0.6543405708603516 L-22.0161937368131,-0.6479597487137243 L-22.029001140941368,-0.6416485869274686 L-22.041972596756437,-0.6354074551556377 L-22.055107344501025,-0.6292367189505239 L-22.068404614853577,-0.6231367397412486 L-22.081863628973338,-0.6171078748125965 " />
			<path d="M-0.09772156735298271,9.144285409069322 L-0.5424781033689089,9.28414302607677 L-1.0950164599198673,9.360357535831138 L-1.7294804338866618,9.369362456799564 L-2.416180087569582,9.31073640092297 L-3.1229810984967186,9.187222792600497 L-3.816808494972965,9.004601489297073 L-4.46519440960005,8.771418311327475 L-5.037797423163443,8.498585137554187 L-5.50782240071943,8.198869280644464 L-5.853274378214033,7.886296036729199 L-6.057987823621955,7.575492367336899 L-6.112383108012569,7.281002426209515 L-6.013914787245653,7.0166069611341815 L-5.7671907168164385,6.794678439592542 " />
			<path d="M-5.767190716816433,6.794678439592538 L-5.367923437944537,6.620704358471103 L-4.842183315928777,6.512088541373094 L-4.216333155786575,6.47427743890796 L-3.521755697870128,6.5091670576387095 L-2.7932799562222317,6.61500788639583 L-2.0674347463788827,6.786492624072624 L-1.3806169780272541,7.015022309864081 L-0.7672665619737224,7.289137511067757 L-0.25813944920748844,7.595092946889908 L0.12123460090767699,7.917546734219778 L0.3518321893709377,8.2403296937109 L0.42209019020507577,8.547256139950134 L0.3284855738764071,8.82293549930983 L0.07571206670649464,9.053544057574936 " />
			<path d="M0.07571206670648462,9.053544057574944 L0.06441371715730143,9.06046837010199 L0.05294491565245854,9.067326124516496 L0.041306333936575734,9.074116919149674 L0.02949865369854865,9.080840356254665 L0.017522566531622846,9.087496042029843 L0.00537877389288538,9.094083586641874 L-0.0069320129378160344,9.100602604248559 L-0.019409072899544244,9.107052713021417 L-0.03205167519249194,9.11343353516807 L-0.04485907932080031,9.11974469695435 L-0.057830535135919806,9.125985828726204 L-0.07096528288055154,9.132156564931341 L-0.08426255323314968,9.138256544140638 L-0.09772156735296621,9.144285409069315 " />
			<path d="M7.672140309666984,1.8893285716432664 L7.699188039529851,2.0322625041159426 L7.7337540445654565,2.175089275901211 L7.775710929340628,2.3172824889255486 L7.8249040588171255,2.4583180801406317 L7.8811521282699095,2.597676252994415 L7.944247831498404,2.734843393177741 L8.013958624868023,2.869313961585856 L8.09002758436603,3.0005923575181996 L8.17217435251298,3.128194745249508 L8.260096171639862,3.251650837240274 L8.353468999722685,3.3705056274144223 L8.451948704662069,3.4843210681160786 L8.555172332606205,3.592677684564895 L8.662759445642697,3.69517612085974 L8.774313523929152,3.791438611832848 L8.889423427094828,3.8811103753298153 L9.007664909527278,3.96386091978408 L9.128602183959279,4.039385262266748 L9.251789527593328,4.107405052522543 L9.376772924844246,4.167669598849166 L9.503091740645424,4.2199567920391425 L9.56660658942392,4.243047491268747 L9.630280418151628,4.2640739239788505 L9.694054544718963,4.283016712107022 L9.757870194581365,4.299858397887785 L9.82166855492621,4.3145834599417885 L9.885390828874968,4.327178327580378 L9.948978289670707,4.337631393312411 L10.01237233480095,4.345933023541778 L10.075514540006035,4.352075567445768 L10.138346713123195,4.356053364026108 L10.200810947716747,4.357862747326164 L10.262849676444928,4.357502049809506 L10.324405724114254,4.354971603896715 L10.385422360372441,4.350273741659027 L10.445843351991385,4.343412792669078 L10.505613014691967,4.334395080010757 L10.564676264462964,4.323228914451814 L10.622978668326736,4.309924586784621 L10.680466494504921,4.294494358342128 L10.737086761937913,4.2769524496977525 L10.792787289112448,4.257315027559638 L10.847516742152344,4.235600189871337 " />
			<path d="M-2.9427061170775435,6.587892471183925 L-2.915658387214677,6.730826403656601 L-2.881092382179072,6.87365317544187 L-2.8391354974039,7.0158463884662075 L-2.7899423679274022,7.15688197968129 L-2.733694298474618,7.2962401525350735 L-2.6705985952461235,7.4334072927184 L-2.6008878018765036,7.567877861126514 L-2.5248188423784974,7.699156257058858 L-2.4426720742315458,7.826758644790166 L-2.3547502551046646,7.950214736780932 L-2.261377427021842,8.06906952695508 L-2.1628977220824575,8.182884967656737 L-2.0596740941383223,8.291241584105553 L-1.9520869811018287,8.393740020400397 L-1.8405329028153734,8.490002511373506 L-1.7254229996496977,8.579674274870472 L-1.607181517217248,8.662424819324738 L-1.4862442427852476,8.737949161807405 L-1.3630568991511982,8.805968952063198 L-1.2380735019002798,8.866233498389821 L-1.111754686099101,8.918520691579799 L-1.0482398373206054,8.941611390809403 L-0.9845660085928981,8.962637823519508 L-0.9207918820255636,8.981580611647678 L-0.8569762321631601,8.99842229742844 L-0.7931778718183153,9.013147359482444 L-0.7294555978695572,9.025742227121032 L-0.6658681370738182,9.036195292853066 L-0.6024740919435752,9.044496923082432 L-0.5393318867384915,9.050639466986421 L-0.47649971362133087,9.054617263566762 L-0.41403547902777943,9.056426646866818 L-0.35199675029959754,9.05606594935016 L-0.2904407026302722,9.05353550343737 L-0.2294240663720838,9.04883764119968 L-0.1690030747531408,9.041976692209731 L-0.1092334120525591,9.03295897955141 L-0.05017016228156168,9.021792813992468 L0.008132241582209487,9.008488486325277 L0.06562006776039575,8.993058257882781 L0.1222403351933874,8.975516349238406 L0.17794086236792217,8.955878927100292 L0.2326703154078178,8.93416408941199 " />
			<path d="M7.672140309666984,1.8893285716432664 L7.699188039529851,2.0322625041159426 L7.7337540445654565,2.175089275901211 L7.775710929340628,2.3172824889255486 L7.8249040588171255,2.4583180801406317 L7.8811521282699095,2.597676252994415 L7.944247831498404,2.734843393177741 L8.013958624868023,2.869313961585856 L8.09002758436603,3.0005923575181996 L8.17217435251298,3.128194745249508 L8.260096171639862,3.251650837240274 L8.353468999722685,3.3705056274144223 L8.451948704662069,3.4843210681160786 L8.555172332606205,3.592677684564895 L8.662759445642697,3.69517612085974 L8.774313523929152,3.791438611832848 L8.889423427094828,3.8811103753298153 L9.007664909527278,3.96386091978408 L9.128602183959279,4.039385262266748 L9.251789527593328,4.107405052522543 L9.376772924844246,4.167669598849166 L9.503091740645424,4.2199567920391425 L9.56660658942392,4.243047491268747 L9.630280418151628,4.2640739239788505 L9.694054544718963,4.283016712107022 L9.757870194581365,4.299858397887785 L9.82166855492621,4.3145834599417885 L9.885390828874968,4.327178327580378 L9.948978289670707,4.337631393312411 L10.01237233480095,4.345933023541778 L10.075514540006035,4.352075567445768 L10.138346713123195,4.356053364026108 L10.200810947716747,4.357862747326164 L10.262849676444928,4.357502049809506 L10.324405724114254,4.354971603896715 L10.385422360372441,4.350273741659027 L10.445843351991385,4.343412792669078 L10.505613014691967,4.334395080010757 L10.564676264462964,4.323228914451814 L10.622978668326736,4.309924586784621 L10.680466494504921,4.294494358342128 L10.737086761937913,4.2769524496977525 L10.792787289112448,4.257315027559638 L10.847516742152344,4.235600189871337 " />
			<path d="M-2.9427061170775435,6.587892471183925 L-2.915658387214677,6.730826403656601 L-2.881092382179072,6.87365317544187 L-2.8391354974039,7.0158463884662075 L-2.7899423679274022,7.15688197968129 L-2.733694298474618,7.2962401525350735 L-2.6705985952461235,7.4334072927184 L-2.6008878018765036,7.567877861126514 L-2.5248188423784974,7.699156257058858 L-2.4426720742315458,7.826758644790166 L-2.3547502551046646,7.950214736780932 L-2.261377427021842,8.06906952695508 L-2.1628977220824575,8.182884967656737 L-2.0596740941383223,8.291241584105553 L-1.9520869811018287,8.393740020400397 L-1.8405329028153734,8.490002511373506 L-1.7254229996496977,8.579674274870472 L-1.607181517217248,8.662424819324738 L-1.4862442427852476,8.737949161807405 L-1.3630568991511982,8.805968952063198 L-1.2380735019002798,8.866233498389821 L-1.111754686099101,8.918520691579799 L-1.0482398373206054,8.941611390809403 L-0.9845660085928981,8.962637823519508 L-0.9207918820255636,8.981580611647678 L-0.8569762321631601,8.99842229742844 L-0.7931778718183153,9.013147359482444 L-0.7294555978695572,9.025742227121032 L-0.6658681370738182,9.036195292853066 L-0.6024740919435752,9.044496923082432 L-0.5393318867384915,9.050639466986421 L-0.47649971362133087,9.054617263566762 L-0.41403547902777943,9.056426646866818 L-0.35199675029959754,9.05606594935016 L-0.2904407026302722,9.05353550343737 L-0.2294240663720838,9.04883764119968 L-0.1690030747531408,9.041976692209731 L-0.1092334120525591,9.03295897955141 L-0.05017016228156168,9.021792813992468 L0.008132241582209487,9.008488486325277 L0.06562006776039575,8.993058257882781 L0.1222403351933874,8.975516349238406 L0.17794086236792217,8.955878927100292 L0.2326703154078178,8.93416408941199 " />

        </g>
        </g>
    </svg>
    