<?xml version='1.0' encoding='utf-8'?>
<svg width="76.345424mm" height="100.09mm" viewBox="-116.75538 -155.506857 234.918901 307.982215" version="1.1" xmlns="http://www.w3.org/2000/svg">
  <g transform="scale(1,-1)" stroke-linecap="round">
    <g fill="none" stroke="rgb(0,0,0)" stroke-width="0.2769347518725785" id="Visible">
      <line x1="-54.257308" y1="-7.819325" x2="-54.257308" y2="13.233227" />
      <line x1="14.09238" y1="-46.029276" x2="14.09238" y2="-8.55855" />
      <path d="M -50.100001,23.628841 A 8.0,3.540393423033279 -107.68372464874034 0,1 -54.257308,13.233227" />
      <path d="M 18.249687,1.837064 A 8.0,3.540393423033279 -107.68372464874034 0,1 14.09238,-8.55855" />
      <line x1="-33.470773" y1="37.959861" x2="34.878915" y2="16.168084" />
      <line x1="-50.100001" y1="23.628841" x2="-33.470773" y2="37.959861" />
      <line x1="18.249687" y1="1.837064" x2="34.878915" y2="16.168084" />
      <line x1="34.878915" y1="-3.702756" x2="34.878915" y2="16.168084" />
      <line x1="33.781964" y1="-4.940217" x2="38.343337" y2="-6.39451" />
      <path d="M 34.878915,-3.702756 A 6.666666666666667,2.9503278525277326 -107.68372464874034 0,1 32.853832,-15.731791" />
      <path d="M 32.853832,-15.731791 A 6.666666666666667,2.9503278525277326 -107.68372464874034 0,1 38.343337,-6.39451" />
      <line x1="34.878915" y1="-1.199773" x2="41.80776" y2="-3.408881" />
      <line x1="38.343337" y1="-6.39451" x2="41.80776" y2="-3.408881" />
      <line x1="34.878915" y1="6.980594" x2="48.736605" y2="2.562378" />
      <path d="M 41.80776,-3.408881 A 6.666666666666667,2.9503278525277326 -107.68372464874034 0,1 43.247099,-6.774904" />
      <path d="M 43.247099,-6.774904 A 6.666666666666667,2.9503278525277326 -107.68372464874034 0,1 48.736605,2.562378" />
      <line x1="34.878915" y1="15.16096" x2="55.66545" y2="8.533636" />
      <line x1="48.736605" y1="2.562378" x2="55.66545" y2="8.533636" />
      <line x1="55.66545" y1="-10.201727" x2="55.66545" y2="8.533636" />
      <path d="M 51.508143,-20.597342 A 8.0,3.540393423033279 -107.68372464874034 0,1 55.66545,-10.201727" />
      <line x1="18.249687" y1="-49.259381" x2="51.508143" y2="-20.597342" />
      <path d="M 14.09238,-46.029276 A 8.0,3.540393423033279 -107.68372464874034 0,1 15.819588,-50.068504" />
      <path d="M 15.819588,-50.068504 A 8.0,3.540393423033279 -107.68372464874034 0,1 18.249687,-49.259381" />
      <path d="M 27.95007,-15.351397 A 6.666666666666667,2.9503278525277326 -107.68372464874034 0,1 26.51073,-11.985374" />
      <path d="M 26.51073,-11.985374 A 6.666666666666667,2.9503278525277326 -107.68372464874034 0,1 22.460565,-24.688678" />
      <path d="M 22.460565,-24.688678 A 6.666666666666667,2.9503278525277326 -107.68372464874034 0,1 27.95007,-15.351397" />
      <line x1="-54.257308" y1="115.426117" x2="-54.257308" y2="77.955391" />
      <line x1="14.09238" y1="93.63434" x2="14.09238" y2="56.163613" />
      <path d="M -52.530101,73.916163 A 8.0,3.540393423033279 72.31627535125968 0,0 -54.257308,77.955391" />
      <path d="M 18.249687,52.933509 A 8.0,3.540393423033279 72.31627535125968 0,0 15.819588,52.124386" />
      <path d="M 15.819588,52.124386 A 8.0,3.540393423033279 72.31627535125968 0,0 14.09238,56.163613" />
      <line x1="18.249687" y1="52.933509" x2="34.878915" y2="67.264529" />
      <line x1="31.592744" y1="88.183091" x2="34.878915" y2="87.135368" />
      <line x1="34.878915" y1="87.135368" x2="34.878915" y2="67.264529" />
      <line x1="33.781964" y1="97.252672" x2="38.343337" y2="95.79838" />
      <path d="M 34.878915,87.135368 A 6.666666666666667,2.9503278525277326 72.31627535125968 0,0 32.853832,86.461099" />
      <path d="M 32.853832,86.461099 A 6.666666666666667,2.9503278525277326 72.31627535125968 0,0 36.903998,99.164403" />
      <path d="M 36.903998,99.164403 A 6.666666666666667,2.9503278525277326 72.31627535125968 0,0 38.343337,95.79838" />
      <line x1="38.343337" y1="95.79838" x2="41.80776" y2="98.784009" />
      <line x1="44.175231" y1="106.20956" x2="48.736605" y2="104.755267" />
      <path d="M 41.80776,98.784009 A 6.666666666666667,2.9503278525277326 72.31627535125968 0,0 47.297265,108.12129" />
      <path d="M 47.297265,108.12129 A 6.666666666666667,2.9503278525277326 72.31627535125968 0,0 48.736605,104.755267" />
      <line x1="48.736605" y1="104.755267" x2="55.66545" y2="110.726525" />
      <line x1="55.66545" y1="129.461888" x2="55.66545" y2="110.726525" />
      <path d="M -16.841546,154.48377 A 8.0,3.540393423033279 72.31627535125968 0,0 -14.411446,155.292893" />
      <path d="M 51.508143,132.691993 A 8.0,3.540393423033279 72.31627535125968 0,0 53.938242,133.501116" />
      <path d="M 53.938242,133.501116 A 8.0,3.540393423033279 72.31627535125968 0,0 55.66545,129.461888" />
      <line x1="-50.100001" y1="125.821731" x2="-16.841546" y2="154.48377" />
      <line x1="18.249687" y1="104.029954" x2="51.508143" y2="132.691993" />
      <path d="M -54.257308,115.426117 A 8.0,3.540393423033279 72.31627535125968 0,0 -50.100001,125.821731" />
      <path d="M 14.09238,93.63434 A 8.0,3.540393423033279 72.31627535125968 0,0 18.249687,104.029954" />
      <path d="M 27.95007,86.841493 A 6.666666666666667,2.9503278525277326 72.31627535125968 0,0 22.460565,77.504212" />
      <path d="M 22.460565,77.504212 A 6.666666666666667,2.9503278525277326 72.31627535125968 0,0 26.51073,90.207516" />
      <path d="M 26.51073,90.207516 A 6.666666666666667,2.9503278525277326 72.31627535125968 0,0 27.95007,86.841493" />
      <line x1="-54.257308" y1="-101.34934" x2="-54.257308" y2="-126.430389" />
      <line x1="14.09238" y1="-110.75144" x2="14.09238" y2="-148.222166" />
      <path d="M -52.530101,-130.469616 A 8.0,3.540393423033279 72.31627535125968 0,0 -54.257308,-126.430389" />
      <path d="M 18.249687,-151.45227 A 8.0,3.540393423033279 72.31627535125968 0,0 15.819588,-152.261393" />
      <path d="M 15.819588,-152.261393 A 8.0,3.540393423033279 72.31627535125968 0,0 14.09238,-148.222166" />
      <line x1="18.249687" y1="-151.45227" x2="34.878915" y2="-137.121251" />
      <line x1="31.592744" y1="-116.202688" x2="34.878915" y2="-117.250411" />
      <line x1="34.878915" y1="-117.250411" x2="34.878915" y2="-137.121251" />
      <line x1="33.781964" y1="-107.133107" x2="38.343337" y2="-108.587399" />
      <path d="M 34.878915,-117.250411 A 6.666666666666667,2.9503278525277326 72.31627535125968 0,0 32.853832,-117.92468" />
      <path d="M 32.853832,-117.92468 A 6.666666666666667,2.9503278525277326 72.31627535125968 0,0 36.903998,-105.221376" />
      <path d="M 36.903998,-105.221376 A 6.666666666666667,2.9503278525277326 72.31627535125968 0,0 38.343337,-108.587399" />
      <line x1="38.343337" y1="-108.587399" x2="41.80776" y2="-105.60177" />
      <line x1="44.175231" y1="-98.17622" x2="48.736605" y2="-99.630512" />
      <path d="M 41.80776,-105.60177 A 6.666666666666667,2.9503278525277326 72.31627535125968 0,0 47.297265,-96.264489" />
      <path d="M 47.297265,-96.264489 A 6.666666666666667,2.9503278525277326 72.31627535125968 0,0 48.736605,-99.630512" />
      <line x1="48.736605" y1="-99.630512" x2="55.66545" y2="-93.659254" />
      <line x1="55.66545" y1="-74.923891" x2="55.66545" y2="-93.659254" />
      <path d="M 51.508143,-71.693786 A 8.0,3.540393423033279 72.31627535125968 0,0 53.938242,-70.884663" />
      <path d="M 53.938242,-70.884663 A 8.0,3.540393423033279 72.31627535125968 0,0 55.66545,-74.923891" />
      <line x1="18.249687" y1="-100.355825" x2="51.508143" y2="-71.693786" />
      <path d="M 14.09238,-110.75144 A 8.0,3.540393423033279 72.31627535125968 0,0 18.249687,-100.355825" />
      <path d="M 27.95007,-117.544286 A 6.666666666666667,2.9503278525277326 72.31627535125968 0,0 22.460565,-126.881568" />
      <path d="M 22.460565,-126.881568 A 6.666666979275603,2.95032799087256 72.31627535125968 0,0 26.51073,-114.178263" />
      <path d="M 26.51073,-114.178263 A 6.666666666666667,2.9503278525277326 72.31627535125968 0,0 27.95007,-117.544286" />
      <line x1="118.025054" y1="43.539596" x2="118.025054" y2="81.010322" />
      <path d="M 113.867747,84.240426 A 8.0,3.540393423033279 72.31627535125968 0,0 116.297846,85.04955" />
      <path d="M 116.297846,85.04955 A 8.0,3.540393423033279 72.31627535125968 0,0 118.025054,81.010322" />
      <line x1="31.469128" y1="90.878514" x2="97.238519" y2="69.909407" />
      <line x1="45.30565" y1="105.849151" x2="42.844728" y2="103.728335" />
      <line x1="34.912383" y1="96.892263" x2="32.45146" y2="94.771448" />
      <line x1="113.867747" y1="84.240426" x2="97.238519" y2="69.909407" />
      <line x1="34.878915" y1="69.920539" x2="97.238519" y2="50.038567" />
      <line x1="97.238519" y1="50.038567" x2="97.238519" y2="69.909407" />
      <line x1="28.855363" y1="62.073449" x2="93.774097" y2="41.375555" />
      <path d="M 31.316285,64.194265 A 6.666666666666667,2.9503278525277326 72.31627535125968 0,0 29.985782,61.71304" />
      <path d="M 97.238519,50.038567 A 6.666666666666667,2.9503278525277326 72.31627535125968 0,0 99.263602,50.712837" />
      <path d="M 99.263602,50.712837 A 6.666667131156713,2.950328058087421 72.31627535125968 0,0 95.213436,38.009532" />
      <path d="M 95.213436,38.009532 A 6.666666666666667,2.9503278525277326 72.31627535125968 0,0 93.774097,41.375555" />
      <line x1="25.39094" y1="59.08782" x2="90.309674" y2="38.389926" />
      <line x1="93.774097" y1="41.375555" x2="90.309674" y2="38.389926" />
      <line x1="18.462095" y1="53.116562" x2="83.380829" y2="32.418668" />
      <path d="M 20.923018,55.237378 A 6.666666666666667,2.9503278525277326 72.31627535125968 0,0 19.592514,52.756153" />
      <path d="M 90.309674,38.389926 A 6.666666666666667,2.9503278525277326 72.31627535125968 0,0 84.820169,29.052645" />
      <path d="M 84.820169,29.052645 A 6.666666666666667,2.9503278525277326 72.31627535125968 0,0 83.380829,32.418668" />
      <line x1="8.102296" y1="48.239187" x2="76.451984" y2="26.44741" />
      <line x1="13.47715" y1="52.87122" x2="8.102296" y2="48.239187" />
      <line x1="83.380829" y1="32.418668" x2="76.451984" y2="26.44741" />
      <line x1="8.102296" y1="29.503824" x2="8.102296" y2="48.239187" />
      <line x1="76.451984" y1="7.712047" x2="76.451984" y2="26.44741" />
      <path d="M 9.829504,25.464597 A 8.0,3.540393423033279 72.31627535125968 0,0 8.102296,29.503824" />
      <path d="M 80.609291,4.481943 A 8.0,3.540393423033279 72.31627535125968 0,0 78.179192,3.672819" />
      <path d="M 78.179192,3.672819 A 8.0,3.540393423033279 72.31627535125968 0,0 76.451984,7.712047" />
      <line x1="113.867747" y1="33.143982" x2="80.609291" y2="4.481943" />
      <path d="M 118.025054,43.539596 A 8.0,3.540393423033279 72.31627535125968 0,0 113.867747,33.143982" />
      <path d="M 104.167364,50.332443 A 6.666666666666667,2.9503278525277326 72.31627535125968 0,0 109.656869,59.669724" />
      <path d="M 109.656869,59.669724 A 6.666666666666667,2.9503278525277326 72.31627535125968 0,0 105.606704,46.96642" />
      <path d="M 105.606704,46.96642 A 6.666666666666667,2.9503278525277326 72.31627535125968 0,0 104.167364,50.332443" />
      <line x1="-6.694155" y1="-63.943051" x2="-6.694155" y2="-26.472324" />
      <path d="M -79.20115,-1.450443 A 8.0,3.540393423033279 72.31627535125968 0,0 -76.77105,-0.64132" />
      <path d="M -10.851462,-23.24222 A 8.0,3.540393423033279 72.31627535125968 0,0 -8.421362,-22.433097" />
      <path d="M -8.421362,-22.433097 A 8.0,3.540393423033279 72.31627535125968 0,0 -6.694155,-26.472324" />
      <line x1="-95.830378" y1="-15.781462" x2="-27.480689" y2="-37.573239" />
      <line x1="-79.20115" y1="-1.450443" x2="-95.830378" y2="-15.781462" />
      <line x1="-10.851462" y1="-23.24222" x2="-27.480689" y2="-37.573239" />
      <line x1="-95.830378" y1="-35.652302" x2="-27.480689" y2="-57.444079" />
      <line x1="-95.830378" y1="-35.652302" x2="-95.830378" y2="-15.781462" />
      <line x1="-27.480689" y1="-57.444079" x2="-27.480689" y2="-37.573239" />
      <line x1="-99.2948" y1="-44.315314" x2="-30.945112" y2="-66.107091" />
      <path d="M -92.544206,-36.700025 A 6.666666666666667,2.9503278525277326 72.31627535125968 0,0 -94.733427,-45.769606" />
      <path d="M -27.480689,-57.444079 A 6.666666666666667,2.9503278525277326 72.31627535125968 0,0 -25.455607,-56.76981" />
      <path d="M -25.455607,-56.76981 A 6.666666666666667,2.9503278525277326 72.31627535125968 0,0 -29.505772,-69.473114" />
      <path d="M -29.505772,-69.473114 A 6.666666666666667,2.9503278525277326 72.31627535125968 0,0 -30.945112,-66.107091" />
      <line x1="-102.759223" y1="-47.300943" x2="-34.409534" y2="-69.09272" />
      <line x1="-99.2948" y1="-44.315314" x2="-102.759223" y2="-47.300943" />
      <line x1="-30.945112" y1="-66.107091" x2="-34.409534" y2="-69.09272" />
      <line x1="-109.688068" y1="-53.272201" x2="-41.338379" y2="-75.063978" />
      <path d="M -102.759223,-47.300943 A 6.666666666666667,2.9503278525277326 72.31627535125968 0,0 -105.126694,-54.726493" />
      <path d="M -34.409534,-69.09272 A 6.666666666666667,2.9503278525277326 72.31627535125968 0,0 -39.89904,-78.430001" />
      <path d="M -39.89904,-78.430001 A 6.666666666666667,2.9503278525277326 72.31627535125968 0,0 -41.338379,-75.063978" />
      <line x1="-116.616913" y1="-59.243459" x2="-48.267224" y2="-81.035236" />
      <line x1="-109.688068" y1="-53.272201" x2="-116.616913" y2="-59.243459" />
      <line x1="-41.338379" y1="-75.063978" x2="-48.267224" y2="-81.035236" />
      <line x1="-116.616913" y1="-77.978822" x2="-116.616913" y2="-59.243459" />
      <line x1="-48.267224" y1="-99.770599" x2="-48.267224" y2="-81.035236" />
      <path d="M -114.889705,-82.01805 A 8.0,3.540393423033279 72.31627535125968 0,0 -116.616913,-77.978822" />
      <path d="M -44.109917,-103.000704 A 8.0,3.540393423033279 72.31627535125968 0,0 -46.540017,-103.809827" />
      <path d="M -46.540017,-103.809827 A 8.0,3.540393423033279 72.31627535125968 0,0 -48.267224,-99.770599" />
      <line x1="-10.851462" y1="-74.338665" x2="-44.109917" y2="-103.000704" />
      <path d="M -6.694155,-63.943051 A 8.0,3.540393423033279 72.31627535125968 0,0 -10.851462,-74.338665" />
      <path d="M -20.551845,-57.150204 A 6.666666666666667,2.9503278525277326 72.31627535125968 0,0 -15.062339,-47.812923" />
      <path d="M -15.062339,-47.812923 A 6.666666666666667,2.9503278525277326 72.31627535125968 0,0 -19.112505,-60.516227" />
      <path d="M -19.112505,-60.516227 A 6.666666666666667,2.9503278525277326 72.31627535125968 0,0 -20.551845,-57.150204" />
      <line x1="-6.694155" y1="-39.401952" x2="14.09238" y2="-46.029276" />
      <line x1="-54.257308" y1="13.233227" x2="14.09238" y2="-8.55855" />
      <line x1="-50.100001" y1="23.628841" x2="18.249687" y2="1.837064" />
      <line x1="-54.257308" y1="115.426117" x2="14.09238" y2="93.63434" />
      <line x1="-54.257308" y1="77.955391" x2="14.09238" y2="56.163613" />
      <line x1="-16.841546" y1="154.48377" x2="51.508143" y2="132.691993" />
      <line x1="-50.100001" y1="125.821731" x2="18.249687" y2="104.029954" />
      <line x1="-34.95733" y1="-95.113031" x2="14.09238" y2="-110.75144" />
      <line x1="-54.257308" y1="-126.430389" x2="14.09238" y2="-148.222166" />
      <line x1="-6.694155" y1="-53.137279" x2="51.508143" y2="-71.693786" />
      <line x1="-25.029469" y1="-86.55723" x2="18.249687" y2="-100.355825" />
      <line x1="48.949013" y1="104.93832" x2="113.867747" y2="84.240426" />
      <line x1="8.102296" y1="29.503824" x2="76.451984" y2="7.712047" />
      <line x1="-79.20115" y1="-1.450443" x2="-10.851462" y2="-23.24222" />
      <line x1="-116.616913" y1="-77.978822" x2="-48.267224" y2="-99.770599" />
      <line x1="15.819588" y1="-50.068504" x2="-6.694155" y2="-42.890498" />
      <line x1="15.819588" y1="52.124386" x2="-52.530101" y2="73.916163" />
      <line x1="53.938242" y1="133.501116" x2="-14.411446" y2="155.292893" />
      <line x1="15.819588" y1="-152.261393" x2="-52.530101" y2="-130.469616" />
      <line x1="53.938242" y1="-70.884663" x2="-6.694155" y2="-51.553373" />
      <line x1="116.297846" y1="85.04955" x2="50.290596" y2="106.094492" />
      <line x1="78.179192" y1="3.672819" x2="9.829504" y2="25.464597" />
      <line x1="-8.421362" y1="-22.433097" x2="-76.77105" y2="-0.64132" />
      <line x1="-46.540017" y1="-103.809827" x2="-114.889705" y2="-82.01805" />
    </g>
    <g fill="none" stroke="rgb(99,99,99)" stroke-width="0.2769347518725785" id="Hidden" stroke-dasharray="0.007034 0.834321">
      <line x1="-54.257308" y1="-24.237499" x2="-54.257308" y2="-7.819325" />
      <line x1="-33.470773" y1="18.089021" x2="34.878915" y2="-3.702756" />
      <line x1="-33.470773" y1="18.089021" x2="-33.470773" y2="37.959861" />
      <line x1="-30.006351" y1="15.397268" x2="33.781964" y2="-4.940217" />
      <path d="M -33.470773,18.089021 A 6.666666666666667,2.9503278525277326 -107.68372464874034 0,1 -35.495856,6.059986" />
      <path d="M -35.495856,6.059986 A 6.666666666666667,2.9503278525277326 -107.68372464874034 0,1 -30.006351,15.397268" />
      <line x1="-26.541929" y1="18.382897" x2="34.878915" y2="-1.199773" />
      <line x1="-30.006351" y1="15.397268" x2="-26.541929" y2="18.382897" />
      <line x1="-19.613084" y1="24.354155" x2="34.878915" y2="6.980594" />
      <path d="M -26.541929,18.382897 A 6.666666666666667,2.9503278525277326 -107.68372464874034 0,1 -25.102589,15.016874" />
      <path d="M -25.102589,15.016874 A 6.666666666666667,2.9503278525277326 -107.68372464874034 0,1 -19.613084,24.354155" />
      <line x1="-12.684239" y1="30.325413" x2="34.878915" y2="15.16096" />
      <line x1="-19.613084" y1="24.354155" x2="-12.684239" y2="30.325413" />
      <line x1="-12.684239" y1="11.59005" x2="-12.684239" y2="30.325413" />
      <path d="M -16.841546,1.194436 A 8.0,3.540393423033279 -107.68372464874034 0,1 -12.684239,11.59005" />
      <line x1="-50.100001" y1="-27.467603" x2="-16.841546" y2="1.194436" />
      <path d="M -54.257308,-24.237499 A 8.0,3.540393423033279 -107.68372464874034 0,1 -52.530101,-28.276727" />
      <path d="M -52.530101,-28.276727 A 8.0,3.540393423033279 -107.68372464874034 0,1 -50.100001,-27.467603" />
      <path d="M -40.399618,6.44038 A 6.666666666666667,2.9503278525277326 -107.68372464874034 0,1 -41.838958,9.806403" />
      <path d="M -41.838958,9.806403 A 6.666666666666667,2.9503278525277326 -107.68372464874034 0,1 -45.889124,-2.896901" />
      <path d="M -45.889124,-2.896901 A 6.666666666666667,2.9503278525277326 -107.68372464874034 0,1 -40.399618,6.44038" />
      <path d="M -50.100001,74.725286 A 8.0,3.540393423033279 72.31627535125968 0,0 -52.530101,73.916163" />
      <line x1="-33.470773" y1="89.056306" x2="34.878915" y2="67.264529" />
      <line x1="-50.100001" y1="74.725286" x2="-33.470773" y2="89.056306" />
      <line x1="-33.470773" y1="108.927145" x2="31.592744" y2="88.183091" />
      <line x1="-33.470773" y1="108.927145" x2="-33.470773" y2="89.056306" />
      <line x1="-30.006351" y1="117.590157" x2="33.781964" y2="97.252672" />
      <path d="M -33.470773,108.927145 A 6.666666666666667,2.9503278525277326 72.31627535125968 0,0 -35.495856,108.252876" />
      <path d="M -35.495856,108.252876 A 6.666666666666667,2.9503278525277326 72.31627535125968 0,0 -31.445691,120.95618" />
      <path d="M -31.445691,120.95618 A 6.666666666666667,2.9503278525277326 72.31627535125968 0,0 -30.006351,117.590157" />
      <line x1="-26.541929" y1="120.575786" x2="41.80776" y2="98.784009" />
      <line x1="-30.006351" y1="117.590157" x2="-26.541929" y2="120.575786" />
      <line x1="-19.613084" y1="126.547044" x2="44.175231" y2="106.20956" />
      <path d="M -26.541929,120.575786 A 6.666666666666667,2.9503278525277326 72.31627535125968 0,0 -21.052423,129.913067" />
      <path d="M -21.052423,129.913067 A 6.666666666666667,2.9503278525277326 72.31627535125968 0,0 -19.613084,126.547044" />
      <line x1="-12.684239" y1="132.518303" x2="55.66545" y2="110.726525" />
      <line x1="-19.613084" y1="126.547044" x2="-12.684239" y2="132.518303" />
      <line x1="-12.684239" y1="151.253666" x2="-12.684239" y2="132.518303" />
      <path d="M -14.411446,155.292893 A 8.0,3.540393423033279 72.31627535125968 0,0 -12.684239,151.253666" />
      <path d="M -40.399618,108.63327 A 6.666666666666667,2.9503278525277326 72.31627535125968 0,0 -45.889124,99.295989" />
      <path d="M -45.889124,99.295989 A 6.666666666666667,2.9503278525277326 72.31627535125968 0,0 -41.838958,111.999293" />
      <path d="M -41.838958,111.999293 A 6.666666666666667,2.9503278525277326 72.31627535125968 0,0 -40.399618,108.63327" />
      <line x1="-54.257308" y1="-88.959662" x2="-54.257308" y2="-101.34934" />
      <path d="M -50.100001,-129.660493 A 8.0,3.540393423033279 72.31627535125968 0,0 -52.530101,-130.469616" />
      <line x1="-33.470773" y1="-115.329474" x2="34.878915" y2="-137.121251" />
      <line x1="-50.100001" y1="-129.660493" x2="-33.470773" y2="-115.329474" />
      <line x1="-33.470773" y1="-95.458634" x2="31.592744" y2="-116.202688" />
      <line x1="-33.470773" y1="-95.458634" x2="-33.470773" y2="-115.329474" />
      <line x1="-30.006351" y1="-86.795622" x2="33.781964" y2="-107.133107" />
      <path d="M -33.470773,-95.458634 A 6.666666666666667,2.9503278525277326 72.31627535125968 0,0 -35.495856,-96.132903" />
      <path d="M -35.495856,-96.132903 A 6.666666666666667,2.9503278525277326 72.31627535125968 0,0 -31.445691,-83.429599" />
      <path d="M -31.445691,-83.429599 A 6.666666666666667,2.9503278525277326 72.31627535125968 0,0 -30.006351,-86.795622" />
      <line x1="-26.541929" y1="-83.809993" x2="41.80776" y2="-105.60177" />
      <line x1="-30.006351" y1="-86.795622" x2="-26.541929" y2="-83.809993" />
      <line x1="-19.613084" y1="-77.838735" x2="44.175231" y2="-98.17622" />
      <path d="M -26.541929,-83.809993 A 6.666666666666667,2.9503278525277326 72.31627535125968 0,0 -21.052423,-74.472712" />
      <path d="M -21.052423,-74.472712 A 6.666666666666667,2.9503278525277326 72.31627535125968 0,0 -19.613084,-77.838735" />
      <line x1="-12.684239" y1="-71.867477" x2="55.66545" y2="-93.659254" />
      <line x1="-19.613084" y1="-77.838735" x2="-12.684239" y2="-71.867477" />
      <line x1="-12.684239" y1="-53.132114" x2="-12.684239" y2="-71.867477" />
      <path d="M -16.841546,-49.902009 A 8.0,3.540393423033279 72.31627535125968 0,0 -14.411446,-49.092886" />
      <path d="M -14.411446,-49.092886 A 8.0,3.540393423033279 72.31627535125968 0,0 -12.684239,-53.132114" />
      <line x1="-50.100001" y1="-78.564048" x2="-16.841546" y2="-49.902009" />
      <path d="M -54.257308,-88.959662 A 8.0,3.540393423033279 72.31627535125968 0,0 -50.100001,-78.564048" />
      <path d="M -40.399618,-95.752509 A 6.666666666666667,2.9503278525277326 72.31627535125968 0,0 -45.889124,-105.08979" />
      <path d="M -45.889124,-105.08979 A 6.666666666666667,2.9503278525277326 72.31627535125968 0,0 -41.838958,-92.386486" />
      <path d="M -41.838958,-92.386486 A 6.666666666666667,2.9503278525277326 72.31627535125968 0,0 -40.399618,-95.752509" />
      <line x1="49.675366" y1="65.331373" x2="49.675366" y2="102.802099" />
      <path d="M 45.518059,106.032204 A 8.0,3.540393423033279 72.31627535125968 0,0 47.948158,106.841327" />
      <path d="M 47.948158,106.841327 A 8.0,3.540393423033279 72.31627535125968 0,0 49.675366,102.802099" />
      <line x1="28.888831" y1="91.701184" x2="31.469128" y2="90.878514" />
      <line x1="45.518059" y1="106.032204" x2="45.30565" y2="105.849151" />
      <line x1="42.844728" y1="103.728335" x2="34.912383" y2="96.892263" />
      <line x1="32.45146" y1="94.771448" x2="28.888831" y2="91.701184" />
      <line x1="28.888831" y1="71.830344" x2="34.878915" y2="69.920539" />
      <line x1="28.888831" y1="71.830344" x2="28.888831" y2="91.701184" />
      <line x1="25.424408" y1="63.167333" x2="28.855363" y2="62.073449" />
      <path d="M 28.888831,71.830344 A 6.666666666666667,2.9503278525277326 72.31627535125968 0,0 30.913914,72.504614" />
      <path d="M 30.913914,72.504614 A 6.666666666666667,2.9503278525277326 72.31627535125968 0,0 31.316285,64.194265" />
      <path d="M 29.985782,61.71304 A 6.666666666666667,2.9503278525277326 72.31627535125968 0,0 26.863748,59.80131" />
      <path d="M 26.863748,59.80131 A 6.666666666666667,2.9503278525277326 72.31627535125968 0,0 25.424408,63.167333" />
      <line x1="21.959986" y1="60.181704" x2="25.39094" y2="59.08782" />
      <line x1="25.424408" y1="63.167333" x2="21.959986" y2="60.181704" />
      <line x1="15.031141" y1="54.210445" x2="18.462095" y2="53.116562" />
      <path d="M 21.959986,60.181704 A 6.666666666666667,2.9503278525277326 72.31627535125968 0,0 20.923018,55.237378" />
      <path d="M 19.592514,52.756153 A 6.666666666666667,2.9503278525277326 72.31627535125968 0,0 16.470481,50.844422" />
      <path d="M 16.470481,50.844422 A 6.666666666666667,2.9503278525277326 72.31627535125968 0,0 15.031141,54.210445" />
      <line x1="15.031141" y1="54.210445" x2="13.47715" y2="52.87122" />
      <path d="M 12.259603,26.27372 A 8.0,3.540393423033279 72.31627535125968 0,0 9.829504,25.464597" />
      <line x1="45.518059" y1="54.935759" x2="12.259603" y2="26.27372" />
      <path d="M 49.675366,65.331373 A 8.0,3.540393423033279 72.31627535125968 0,0 45.518059,54.935759" />
      <path d="M 35.817676,72.12422 A 6.666666666666667,2.9503278525277326 72.31627535125968 0,0 41.307181,81.461501" />
      <path d="M 41.307181,81.461501 A 6.666666666666667,2.9503278525277326 72.31627535125968 0,0 37.257015,68.758197" />
      <path d="M 37.257015,68.758197 A 6.666666666666667,2.9503278525277326 72.31627535125968 0,0 35.817676,72.12422" />
      <line x1="-75.043843" y1="-42.151273" x2="-75.043843" y2="-4.680547" />
      <path d="M -76.77105,-0.64132 A 8.0,3.540393423033279 72.31627535125968 0,0 -75.043843,-4.680547" />
      <path d="M -95.830378,-35.652302 A 6.666666666666667,2.9503278525277326 72.31627535125968 0,0 -93.805295,-34.978033" />
      <path d="M -93.805295,-34.978033 A 6.666666666666667,2.9503278525277326 72.31627535125968 0,0 -92.544206,-36.700025" />
      <path d="M -94.733427,-45.769606 A 6.666666666666667,2.9503278525277326 72.31627535125968 0,0 -97.855461,-47.681337" />
      <path d="M -97.855461,-47.681337 A 6.666666666666667,2.9503278525277326 72.31627535125968 0,0 -99.2948,-44.315314" />
      <path d="M -105.126694,-54.726493 A 6.666666666666667,2.9503278525277326 72.31627535125968 0,0 -108.248728,-56.638224" />
      <path d="M -108.248728,-56.638224 A 6.666666666666667,2.9503278525277326 72.31627535125968 0,0 -109.688068,-53.272201" />
      <path d="M -112.459606,-81.208927 A 8.0,3.540393423033279 72.31627535125968 0,0 -114.889705,-82.01805" />
      <line x1="-79.20115" y1="-52.546888" x2="-112.459606" y2="-81.208927" />
      <path d="M -75.043843,-42.151273 A 8.0,3.540393423033279 72.31627535125968 0,0 -79.20115,-52.546888" />
      <path d="M -88.901533,-35.358427 A 6.666666666666667,2.9503278525277326 72.31627535125968 0,0 -83.412027,-26.021145" />
      <path d="M -83.412027,-26.021145 A 6.666667131156712,2.95032805808742 72.31627535125968 0,0 -87.462193,-38.72445" />
      <path d="M -87.462193,-38.72445 A 6.666666666666667,2.9503278525277326 72.31627535125968 0,0 -88.901533,-35.358427" />
      <line x1="32.853832" y1="-15.731791" x2="-35.495856" y2="6.059986" />
      <line x1="43.247099" y1="-6.774904" x2="-25.102589" y2="15.016874" />
      <line x1="-6.694155" y1="-42.890498" x2="-52.530101" y2="-28.276727" />
      <line x1="26.51073" y1="-11.985374" x2="-41.838958" y2="9.806403" />
      <line x1="22.460565" y1="-24.688678" x2="-45.889124" y2="-2.896901" />
      <line x1="36.903998" y1="99.164403" x2="-31.445691" y2="120.95618" />
      <line x1="32.853832" y1="86.461099" x2="-35.495856" y2="108.252876" />
      <line x1="47.297265" y1="108.12129" x2="-21.052423" y2="129.913067" />
      <line x1="26.51073" y1="90.207516" x2="-41.838958" y2="111.999293" />
      <line x1="22.460565" y1="77.504212" x2="-45.889124" y2="99.295989" />
      <line x1="36.903998" y1="-105.221376" x2="-31.445691" y2="-83.429599" />
      <line x1="32.853832" y1="-117.92468" x2="-35.495856" y2="-96.132903" />
      <line x1="47.297265" y1="-96.264489" x2="-21.052423" y2="-74.472712" />
      <line x1="-6.694155" y1="-51.553373" x2="-14.411446" y2="-49.092886" />
      <line x1="26.51073" y1="-114.178263" x2="-41.838958" y2="-92.386486" />
      <line x1="22.460565" y1="-126.881568" x2="-45.889124" y2="-105.08979" />
      <line x1="50.290596" y1="106.094492" x2="47.948158" y2="106.841327" />
      <line x1="99.263602" y1="50.712837" x2="30.913914" y2="72.504614" />
      <line x1="95.213436" y1="38.009532" x2="26.863748" y2="59.80131" />
      <line x1="84.820169" y1="29.052645" x2="16.470481" y2="50.844422" />
      <line x1="109.656869" y1="59.669724" x2="41.307181" y2="81.461501" />
      <line x1="105.606704" y1="46.96642" x2="37.257015" y2="68.758197" />
      <line x1="-25.455607" y1="-56.76981" x2="-93.805295" y2="-34.978033" />
      <line x1="-29.505772" y1="-69.473114" x2="-97.855461" y2="-47.681337" />
      <line x1="-39.89904" y1="-78.430001" x2="-108.248728" y2="-56.638224" />
      <line x1="-15.062339" y1="-47.812923" x2="-83.412027" y2="-26.021145" />
      <line x1="-19.112505" y1="-60.516227" x2="-87.462193" y2="-38.72445" />
    </g>
  </g>
</svg>