<?xml version='1.0' encoding='utf-8'?>
<svg width="100.09mm" height="37.492189mm" viewBox="-42.952484 -26.191534 140.377107 52.583125" version="1.1" xmlns="http://www.w3.org/2000/svg">
  <g transform="scale(1,-1)" stroke-linecap="round">
    <g fill="none" stroke="rgb(0,0,0)" stroke-width="0.1262257928388551" id="Visible">
      <line x1="-42.889371" y1="16.849144" x2="-42.889371" y2="26.128421" />
      <line x1="97.361509" y1="10.080796" x2="97.361509" y2="19.360073" />
      <line x1="-42.889371" y1="26.128421" x2="97.361509" y2="19.360073" />
      <line x1="18.157379" y1="-7.532411" x2="18.157379" y2="-3.395723" />
      <path d="M -8.67729,-4.137963 C -7.808011,-3.325855 -6.680416,-2.472361 -5.200947,-1.582927 C -3.720052,-0.693788 -1.888414,0.231681 0.427209,1.17991 C 2.744887,2.127588 5.544989,3.098735 9.018062,4.064587 C 12.494001,5.029428 16.641024,5.990237 21.729845,6.890357" />
      <path d="M 22.505773,7.025667 C 26.130038,7.64908 30.223967,8.240386 34.911224,8.765509 C 39.599409,9.289995 44.880997,9.74879 50.905908,10.090064 C 56.931533,10.430447 63.701343,10.6539 71.385945,10.683666 C 79.070477,10.712279 87.672335,10.547723 97.361509,10.080796" />
      <path d="M 18.157379,-3.395723 C 18.364233,-2.798483 18.802514,-2.213754 19.400168,-1.683825 C 19.997365,-1.15327 20.752086,-0.677766 21.579656,-0.281724 C 22.407503,0.114947 23.30694,0.432391 24.201503,0.663982 C 25.096746,0.89604 25.986644,1.042689 26.814232,1.110385 C 28.475665,1.247027 29.865165,1.065886 30.777033,0.689254 C 31.696595,0.312677 32.150796,-0.254018 32.148542,-0.891363" />
      <path d="M 32.148542,-0.891363 C 32.149882,-1.655725 31.507304,-2.518225 30.378914,-3.343905 C 29.251213,-4.171773 27.64367,-4.96502 25.728705,-5.650233 C 23.812909,-6.336672 21.590433,-6.916937 19.208745,-7.351502 C 16.826303,-7.786585 14.283655,-8.077145 11.706506,-8.197803 C 9.129289,-8.318528 6.515639,-8.270107 3.988706,-8.028873 C 1.46297,-7.787408 -0.979577,-7.353651 -3.18367,-6.697355 C -5.383981,-6.040662 -7.353494,-5.161598 -8.834924,-4.018469 C -9.573752,-3.446799 -10.187935,-2.808854 -10.623843,-2.098614 C -11.058809,-1.388393 -11.316468,-0.605768 -11.317081,0.254797" />
      <path d="M -11.317081,0.254797 C -11.316664,0.964652 -11.141223,1.727622 -10.724635,2.545446 C -10.306963,3.36315 -9.649112,4.235916 -8.654892,5.16221 C -7.659011,6.088239 -6.328269,7.06821 -4.520348,8.093349 C -2.709878,9.117936 -0.424519,10.188515 2.548879,11.281176 C 5.526118,12.372716 9.188176,13.487956 13.855212,14.572249 C 18.527686,15.654331 24.201597,16.708537 31.349732,17.619388 C 38.504235,18.526075 47.132795,19.294694 57.890925,19.694571 C 68.651818,20.087453 81.55867,20.118275 97.361509,19.360073" />
      <line x1="18.157379" y1="-3.395723" x2="21.788855" y2="7.060265" />
      <line x1="49.839031" y1="-3.572682" x2="49.839031" y2="5.706595" />
      <line x1="21.788855" y1="7.060265" x2="49.839031" y2="5.706595" />
      <line x1="42.57608" y1="-24.484658" x2="42.57608" y2="-15.205381" />
      <line x1="49.839031" y1="-3.572682" x2="42.57608" y2="-24.484658" />
      <line x1="49.839031" y1="5.706595" x2="42.57608" y2="-15.205381" />
      <line x1="-29.365099" y1="-26.328478" x2="-29.365099" y2="-17.049201" />
      <line x1="42.57608" y1="-24.484658" x2="-29.365099" y2="-26.328478" />
      <line x1="42.57608" y1="-15.205381" x2="-29.365099" y2="-17.049201" />
      <line x1="-29.365099" y1="-26.328478" x2="-42.889371" y2="16.849144" />
      <line x1="-29.365099" y1="-17.049201" x2="-42.889371" y2="26.128421" />
    </g>
    <g fill="none" stroke="rgb(99,99,99)" stroke-width="0.1262257928388551" id="Hidden" stroke-dasharray="0.003206 0.38028">
      <line x1="-42.889371" y1="16.849144" x2="97.361509" y2="10.080796" />
      <line x1="18.157379" y1="-12.675" x2="18.157379" y2="-7.532411" />
      <path d="M 18.157379,-12.675 C 18.364233,-12.077761 18.802514,-11.493032 19.400168,-10.963103 C 19.997365,-10.432547 20.752086,-9.957044 21.579656,-9.561001 C 22.407503,-9.164331 23.30694,-8.846887 24.201503,-8.615295 C 25.096746,-8.383237 25.986644,-8.236589 26.814232,-8.168892 C 28.475665,-8.03225 29.865165,-8.213391 30.777033,-8.590023 C 31.696595,-8.966601 32.150796,-9.533295 32.148542,-10.17064" />
      <path d="M 32.148542,-10.17064 C 32.149882,-10.935002 31.507304,-11.797502 30.378914,-12.623183 C 29.251213,-13.45105 27.64367,-14.244297 25.728705,-14.92951 C 23.812909,-15.61595 21.590433,-16.196214 19.208745,-16.63078 C 16.826303,-17.065863 14.283655,-17.356422 11.706506,-17.47708 C 9.129289,-17.597805 6.515639,-17.549384 3.988706,-17.30815 C 1.46297,-17.066685 -0.979577,-16.632929 -3.18367,-15.976632 C -5.383981,-15.31994 -7.353494,-14.440875 -8.834924,-13.297747 C -9.573752,-12.726076 -10.187935,-12.088131 -10.623843,-11.377891 C -11.058809,-10.667671 -11.316468,-9.885045 -11.317081,-9.02448" />
      <path d="M -11.317081,-9.02448 C -11.31667,-8.317295 -11.142532,-7.557396 -10.729331,-6.743058 C -10.315064,-5.928838 -9.662684,-5.059976 -8.67729,-4.137963" />
      <path d="M 21.729845,6.890357 Q 22.114162,6.958266 22.505773,7.025667" />
      <line x1="21.788855" y1="-2.219012" x2="21.788855" y2="7.060265" />
      <line x1="18.157379" y1="-12.675" x2="21.788855" y2="-2.219012" />
      <line x1="21.788855" y1="-2.219012" x2="49.839031" y2="-3.572682" />
      <path d="M 32.148542,-10.17064 L 32.148542,-0.891363" />
      <path d="M -11.317081,-9.02448 L -11.317081,0.254797" />
    </g>
  </g>
</svg>