<?xml version="1.0" encoding="UTF-8" standalone="no"?>
    <svg
    xmlns:svg="http://www.w3.org/2000/svg"
    xmlns="http://www.w3.org/2000/svg"
    width="500.0"
    height="220.0"
    >
        <g transform="scale(3.1204455463809575, -3.1204455463809575)   translate(52.702145250566815,-29.643202749453533)" stroke-width="0.3204670567508489"  fill="none">
        <!-- hidden lines -->
        <g  stroke="rgb(160,160,160)" fill="none" stroke-dasharray="0.3204670567508489,0.3204670567508489" >
    			<path d="M-49.49747468305833,-7.617882154119749 L7.07106781186548,17.476317882980624 " />
			<path d="M7.071067811865479,17.476317882980624 L7.071067811865479,26.438532181945043 " />
			<path d="M49.49747468305833,-1.3443321448446577 L7.0710678118654755,17.47631788298062 " />
			<path d="M7.778174593052025,-1.0306546443809022 L7.592053652274917,-0.9500201092672196 L7.401686092176778,-0.8713606896013477 L7.20717839495542,-0.7947203835722658 L7.008639358596602,-0.7201420599766477 L6.806180036017803,-0.6476674342401756 L6.599913672950732,-0.5773370450839965 L6.389955644597247,-0.5091902318493635 L6.17642339109419,-0.44326511249315725 L5.95943635182317,-0.37959856226658406 L5.7391158986020905,-0.3182261930889858 L5.515585267795748,-0.2591823336282886 L5.288969491383513,-0.20250001009925267 L5.059395327022621,-0.1482109277902337 L4.826991187146209,-0.09634545332881483 L4.591887067135746,-0.046932597696217826 L4.35421447260808,0.0 " />
			<path d="M-4.354214472608048,6.217248937900877e-15 L-4.7186391454360255,-0.07319723390241784 L-5.0768230517454604,-0.15222427079888767 L-5.428292465518943,-0.2369765912992312 L-5.772582541176602,-0.32734210388133 L-6.109237928370465,-0.42320129314085264 L-6.437813374220637,-0.5244273778596598 L-6.7578743121967975,-0.6308864786838004 L-7.068997436866159,-0.742437795189351 L-7.370771263747766,-0.8589337921019062 L-7.518026968170844,-0.9189881472178305 L-7.662796673532657,-0.9802203944234269 L-7.805032508582787,-1.0426102859449484 L-7.944687439950124,-1.1061371912083882 L-8.08171528769547,-1.1707801036614254 L-8.216070740581939,-1.2365176477197006 L-8.347709371058107,-1.3033280858351168 L-8.476587649948941,-1.3711893256838321 L-8.602662960849674,-1.4400789274715646 L-8.725893614217837,-1.5099741113538028 L-8.846238861158822,-1.5808517649684526 L-8.963658906900386,-1.6526884510784448 L-9.078114923951656,-1.725460415321765 L-9.189569064942285,-1.7991435940663498 L-9.297984475137506,-1.8737136223672537 L-9.403325304624955,-1.9491458420234453 L-9.505556720169219,-2.0254153097315704 L-9.604644916730201,-2.1024968053340127 L-9.700557128641508,-2.1803648401584748 L-9.793261640445103,-2.2589936654463667 L-9.882727797378736,-2.338357280867192 L-9.968926015512597,-2.4184294431161226 L-10.051827791531881,-2.4991836745919165 L-10.131405712162039,-2.5805932721523144 L-10.207633463233565,-2.6626313159440134 L-10.28048583838335,-2.7452706783043013 L-10.349938747389723,-2.8284840327314074 L-10.41596922413839,-2.912243862920607 L-10.47855543421669,-2.9965224718630834 L-10.537676682133617,-3.081291991004546 L-10.593313418163234,-3.1665243894605752 L-10.645447244809214,-3.2521914832856433 L-10.694060922888369,-3.3382649447927473 L-10.739138377231168,-3.424716311920576 L-10.78066470199733,-3.5115169976451095 L-10.818626165604782,-3.5986382994325385 L-10.853010215270283,-3.6860514087303837 L-10.883805481160294,-3.7737274204936666 L-10.91100178015065,-3.861637342742995 L-10.934590119193832,-3.9497521061513874 L-10.954562698292719,-4.03804257365668 L-10.970912913079822,-4.126479550096332 L-10.983635357001162,-4.215033791861434 L-10.992725823104069,-4.303676016566752 L-10.998181305428291,-4.3923769127335754 L-10.999999999999998,-4.481107149482181 " />
			<path d="M-10.999999999999998,-4.481107149482202 L-10.996687005658245,-4.6008604112074725 L-10.986750018256895,-4.720541538045742 L-10.97019502346559,-4.8400784385613695 L-10.947031993394164,-4.959399108195259 L-10.917274880585808,-5.078431672637708 L-10.880941609612588,-5.197104431122809 L-10.838054066278351,-5.315345899618311 L-10.788638084435533,-5.433084853884928 L-10.732723430423812,-5.5502503723791525 L-10.670343785139982,-5.666771878973743 L-10.601536723749838,-5.782579185470149 L-10.526343693054297,-5.897602533877248 L-10.444809986523403,-6.011772638430962 L-10.356984717013228,-6.125020727329403 L-10.262920787182129,-6.237278584158436 L-10.162674857624152,-6.348478588982703 L-10.056307312738834,-6.458553759077329 L-9.943882224357873,-6.567437789275825 L-9.825467313150666,-6.675065091909836 L-9.701133907831904,-6.781370836316701 L-9.570956902195825,-6.886290987891016 L-9.435014710002992,-6.98976234665669 L-9.293389217746778,-7.091722585336245 L-9.146165735327997,-7.192110286894441 L-8.993432944667422,-7.290864981533597 L-8.835282846287095,-7.387927183118336 L-8.671810703892671,-7.483238425007816 L-8.503114986990106,-7.576741295273839 L-8.329297311571327,-7.668379471283655 L-8.150462378904548,-7.758097753626603 L-7.966717912466136,-7.8458420993641855 L-7.778174593052022,-7.931559654583504 L-7.584945992107736,-8.015198786234478 L-7.387148503317199,-8.096709113231672 L-7.184901272491539,-8.176041536801968 L-6.978326125800097,-8.253148270059837 L-6.767547496386891,-8.327982866792373 L-6.552692349416764,-8.40050024943675 L-6.333890105596295,-8.470656736233261 L-6.111272563215621,-8.538410067537582 L-5.884973818758068,-8.603719431276392 L-5.655130186125438,-8.666545487531053 L-5.4218801145276245,-8.726850392234493 L-5.185364105085974,-8.784597819967065 L-4.945724626200674,-8.839752985837617 L-4.703106027733105,-8.892282666436614 L-4.457654454054891,-8.942155219848676 L-4.209517756015991,-8.989340604712478 L-3.9588454018848744,-9.033810398316557 L-3.7057883873144264,-9.075537813720079 L-3.450499144387813,-9.114497715888291 L-3.1931314497990937,-9.150666636832932 L-2.9338403322238906,-9.18402278974847 L-2.6727819789359124,-9.214546082135653 L-2.410113641725569,-9.242218127904488 L-2.145993542177413,-9.267022258449327 L-1.8805807763633167,-9.288943532689418 L-1.6140352190089737,-9.307968746068846 L-1.3465174271913734,-9.32408643851047 L-1.0781885436251628,-9.337286901319043 L-0.8092101995963387,-9.347562183029368 L-0.5397444176015961,-9.354906094195957 L-0.2699535137520341,-9.35931421112133 L1.8215819832392825e-16,-9.360783878520685 L0.26995351375203447,-9.35931421112133 L0.5397444176015965,-9.354906094195957 L0.8092101995963392,-9.347562183029368 L1.0781885436251633,-9.337286901319043 L1.3465174271913738,-9.32408643851047 L1.6140352190089737,-9.307968746068846 L1.8805807763633169,-9.28894353268942 L2.1459935421774134,-9.267022258449328 L2.4101136417255695,-9.24221812790449 L2.672781978935913,-9.214546082135653 L2.9338403322238915,-9.184022789748472 L3.1931314497990946,-9.150666636832934 L3.450499144387814,-9.114497715888291 L3.7057883873144273,-9.075537813720079 L3.9588454018848753,-9.033810398316557 L4.209517756015993,-8.98934060471248 L4.457654454054893,-8.942155219848676 L4.7031060277331065,-8.892282666436616 L4.9457246262006755,-8.839752985837618 L5.185364105085975,-8.784597819967065 L5.4218801145276245,-8.726850392234494 L5.655130186125438,-8.666545487531055 L5.884973818758068,-8.603719431276394 L6.111272563215623,-8.538410067537583 L6.333890105596296,-8.470656736233263 L6.552692349416763,-8.400500249436751 L6.767547496386891,-8.327982866792375 L6.978326125800095,-8.253148270059839 L7.184901272491539,-8.17604153680197 L7.387148503317196,-8.096709113231675 L7.584945992107738,-8.01519878623448 L7.778174593052023,-7.931559654583506 L7.966717912466136,-7.845842099364187 L8.150462378904555,-7.7580977536266005 L8.329297311571334,-7.668379471283652 L8.50311498699011,-7.576741295273839 L8.671810703892673,-7.483238425007817 L8.835282846287097,-7.387927183118338 L8.993432944667422,-7.290864981533598 L9.146165735328,-7.192110286894442 L9.29338921774678,-7.091722585336246 L9.435014710002994,-6.989762346656692 L9.570956902195826,-6.886290987891018 L9.701133907831906,-6.781370836316702 L9.825467313150668,-6.675065091909838 L9.943882224357877,-6.567437789275827 L10.056307312738836,-6.458553759077331 L10.162674857624154,-6.348478588982706 L10.262920787182127,-6.237278584158442 L10.356984717013226,-6.125020727329408 L10.444809986523401,-6.011772638430968 L10.526343693054296,-5.897602533877254 L10.601536723749838,-5.782579185470154 L10.670343785139982,-5.66677187897375 L10.732723430423816,-5.550250372379154 L10.788638084435535,-5.43308485388493 L10.838054066278355,-5.315345899618313 L10.880941609612593,-5.197104431122806 L10.917274880585811,-5.078431672637706 L10.947031993394168,-4.959399108195259 L10.970195023465594,-4.840078438561372 L10.986750018256899,-4.720541538045744 L10.996687005658249,-4.600860411207474 L11.000000000000002,-4.481107149482248 " />
			<path d="M11.000000000000002,-4.481107149482203 L10.996687005658249,-4.361353887756933 L10.986750018256899,-4.241672760918663 L10.970195023465594,-4.122135860403035 L10.947031993394168,-4.002815190769147 L10.917274880585811,-3.8837826263267 L10.880941609612593,-3.7651098678415993 L10.838054066278355,-3.646868399346096 L10.788638084435537,-3.5291294450794783 L10.732723430423816,-3.411963926585254 L10.670343785139986,-3.295442419990663 L10.60153672374984,-3.1796351134942578 L10.526343693054299,-3.0646117650871574 L10.444809986523405,-2.9504416605334423 L10.35698471701323,-2.8371935716350016 L10.26292078718213,-2.7249357148059676 L10.162674857624156,-2.613735709981703 L10.05630731273884,-2.503660539887078 L9.943882224357878,-2.3947765096885822 L9.82546731315067,-2.2871492070545707 L9.701133907831908,-2.1808434626477053 L9.570956902195828,-2.07592331107339 L9.435014710002996,-1.9724519523077162 L9.29338921774678,-1.8704917136281605 L9.146165735328,-1.770104012069964 L8.993432944667422,-1.671349317430808 L8.835282846287097,-1.5742871158460678 L8.671810703892671,-1.4789758739565881 L8.50311498699011,-1.3854730036905658 L8.329297311571333,-1.2938348276807523 L8.150462378904553,-1.2041165453378038 L7.966717912466139,-1.1163721996002205 L7.778174593052034,-1.0306546443809061 " />
			<path d="M11.000000000000004,-4.481107149482203 L11.000000000000004,4.481107149482214 " />
			<path d="M-11.0,-4.481107149482203 L-11.0,4.481107149482214 " />

        </g>

        <!-- solid lines -->
        <g  stroke="rgb(0,0,0)" fill="none">
    			<path d="M-7.071067811865474,-26.43853218194503 L-7.071067811865474,-17.47631788298061 " />
			<path d="M-7.071067811865474,-17.47631788298061 L-49.49747468305833,1.3443321448446692 " />
			<path d="M-49.49747468305833,-7.617882154119749 L-49.49747468305833,1.3443321448446683 " />
			<path d="M-7.071067811865474,-26.43853218194503 L-49.49747468305833,-7.61788215411975 " />
			<path d="M-7.071067811865474,-26.43853218194503 L49.497474683058336,-1.344332144844655 " />
			<path d="M49.49747468305833,-1.3443321448446577 L49.49747468305833,7.617882154119759 " />
			<path d="M-7.071067811865474,-17.47631788298061 L49.497474683058336,7.617882154119764 " />
			<path d="M-49.49747468305833,1.3443321448446683 L7.07106781186548,26.438532181945043 " />
			<path d="M49.49747468305833,7.617882154119759 L7.0710678118654755,26.43853218194504 " />
			<path d="M7.778174593052025,7.9315596545835145 L7.633686069786197,7.994486632430711 L7.486610975749986,8.056223149392723 L7.336999145340016,8.11674828688988 L7.1849012724915475,8.176041536801977 L7.030368893501537,8.234082808417174 L6.873454369566254,8.29085243523946 L6.55269234941677,8.40050024943676 L6.223049918619749,8.504836381296368 L5.884973818758073,8.603719431276403 L5.538922220982895,8.697015390019633 L5.185364105085979,8.784597819967075 L4.824778623923809,8.86634802671009 L4.457654454054893,8.942155219848686 L4.084489133470216,9.011916663138095 L3.705788387314425,9.075537813720091 L3.3220654425115126,9.132932450250392 L2.933840332223885,9.184022789748482 L2.541639191087386,9.228739593011497 L2.1459935421774134,9.26702225844934 L1.7474395766724775,9.298818904213807 L1.3465174271913813,9.32408643851048 L0.9437704357888409,9.342790617998057 L0.5397444176015992,9.354906094195968 L0.13498692114292163,9.36041644783743 L-0.2699535137520338,9.35931421112134 L-0.674528099324294,9.351600877832876 L-1.078188543625165,9.337286901319054 L-1.4803877935783851,9.316391680322054 L-1.8805807763633116,9.28894353268943 L-2.278225138114403,9.254979656996895 L-2.6727819789359004,9.214546082135666 L-3.06371658323558,9.167697604932691 L-3.4504991443878037,9.114497715888303 L-3.8326054827437788,9.055018513131929 L-4.209517756015984,8.98934060471249 L-4.580725161074005,8.917552999355888 L-4.945724626200672,8.839752985837627 L-5.304021492870348,8.75604600113409 L-5.655130186125435,8.666545487531064 L-5.998574872642511,8.57137273888329 L-6.333890105596296,8.470656736233272 L-6.660621455447577,8.3645339730122 L-6.9783261258001,8.253148270059848 L-7.133658411243239,8.195528716018345 L-7.286573553491888,8.136650580714129 L-7.437019739328472,8.076533814203096 L-7.584945992107732,8.015198786234489 L-7.7303021890294765,7.952666279348895 L-7.873039078122005,7.888957481836352 L-8.013108294930479,7.824093980556988 L-8.15046237890455,7.758097753626613 L-8.285054789479736,7.6909911629697225 L-8.416839921847046,7.622796946742469 L-8.545773122405556,7.553538211628154 L-8.671810703892671,7.483238425007827 L-8.794909960186956,7.411921407008698 L-8.915029180778543,7.339611322432999 L-9.03212766490215,7.2663326725700745 L-9.146165735327997,7.192110286894453 L-9.257104751805882,7.1169693146527155 L-9.364907124157915,7.04093521634202 L-9.469536325015438,6.964033755083148 L-9.570956902195823,6.8862909878910274 L-9.669134490714967,6.807733256845672 L-9.764035824431392,6.728387180166516 L-9.855628747318036,6.6482796431932005 L-9.943882224357875,6.567437789275835 L-10.028766352059726,6.485889010577845 L-10.110252368590634,6.403660938794507 L-10.188312663521424,6.320781435790334 L-10.262920787182127,6.237278584158448 L-10.334051459624089,6.153180677705184 L-10.401680579185733,6.068516211863117 L-10.46578523065909,5.983313874035765 L-10.526343693054296,5.89760253387726 L-10.583335446959456,5.811411233510257 L-10.63674118149337,5.724769177685407 L-10.686542800848766,5.637705723885715 L-10.732723430423812,5.550250372379164 L-10.775267422539844,5.4624327562229515 L-10.814160361743378,5.374282631222726 L-10.849389069690584,5.285829865850238 L-10.88094160961259,5.197104431122818 L-10.908807290360093,5.108136390448097 L-10.932976670025916,5.018955889437431 L-10.953441559144256,4.9295931456914825 L-10.97019502346559,4.840078438561382 L-10.98323138630624,4.750442098888987 L-10.992546230471843,4.660714498729694 L-10.998136399754056,4.570926041061268 L-10.999999999999998,4.481107149482236 " />
			<path d="M-10.999999999999998,4.481107149482215 L-10.996687005658245,4.361353887756945 L-10.986750018256895,4.241672760918675 L-10.97019502346559,4.122135860403048 L-10.947031993394164,4.002815190769158 L-10.917274880585808,3.883782626326709 L-10.880941609612588,3.7651098678416086 L-10.838054066278351,3.6468683993461055 L-10.788638084435533,3.5291294450794886 L-10.732723430423812,3.4119639265852646 L-10.670343785139982,3.2954424199906738 L-10.601536723749838,3.1796351134942684 L-10.526343693054297,3.064611765087169 L-10.444809986523403,2.9504416605334547 L-10.356984717013228,2.837193571635014 L-10.262920787182129,2.724935714805981 L-10.162674857624152,2.6137357099817145 L-10.056307312738834,2.503660539887088 L-9.943882224357873,2.394776509688592 L-9.825467313150666,2.287149207054581 L-9.701133907831904,2.180843462647716 L-9.570956902195825,2.0759233110734012 L-9.435014710002992,1.9724519523077277 L-9.293389217746778,1.870491713628172 L-9.146165735327997,1.770104012069976 L-8.993432944667422,1.671349317430821 L-8.835282846287095,1.5742871158460807 L-8.671810703892671,1.478975873956601 L-8.503114986990106,1.3854730036905778 L-8.329297311571327,1.2938348276807625 L-8.150462378904548,1.204116545337814 L-7.966717912466136,1.1163721996002312 L-7.778174593052022,1.0306546443809128 L-7.584945992107736,0.9470155127299398 L-7.387148503317199,0.8655051857327449 L-7.184901272491539,0.7861727621624488 L-6.978326125800097,0.7090660289045796 L-6.767547496386891,0.6342314321720433 L-6.552692349416764,0.5617140495276671 L-6.333890105596295,0.49155756273115614 L-6.111272563215621,0.42380423142683554 L-5.884973818758068,0.35849486768802397 L-5.655130186125438,0.2956688114333632 L-5.4218801145276245,0.23536390672992358 L-5.185364105085974,0.17761647899735156 L-4.945724626200674,0.12246131312679953 L-4.703106027733105,0.0699316325278021 L-4.457654454054891,0.02005907911574134 L-4.209517756015991,-0.02712630574806152 L-3.9588454018848744,-0.07159609935214117 L-3.7057883873144264,-0.11332351475566149 L-3.450499144387813,-0.1522834169238747 L-3.1931314497990937,-0.18845233786851523 L-2.9338403322238906,-0.22180849078405274 L-2.6727819789359124,-0.25233178317123617 L-2.410113641725569,-0.28000382894007103 L-2.145993542177413,-0.30480795948491046 L-1.8805807763633167,-0.3267292337250005 L-1.6140352190089737,-0.3457544471044294 L-1.3465174271913734,-0.3618721395460538 L-1.0781885436251628,-0.3750726023546269 L-0.8092101995963387,-0.38534788406495046 L-0.5397444176015961,-0.3926917952315394 L-0.2699535137520341,-0.3970999121569134 L1.8215819832392825e-16,-0.39856957955626715 L0.26995351375203447,-0.3970999121569134 L0.5397444176015965,-0.3926917952315394 L0.8092101995963392,-0.38534788406495046 L1.0781885436251633,-0.3750726023546269 L1.3465174271913738,-0.3618721395460538 L1.6140352190089737,-0.3457544471044294 L1.8805807763633169,-0.3267292337250014 L2.1459935421774134,-0.30480795948491135 L2.4101136417255695,-0.2800038289400719 L2.672781978935913,-0.25233178317123617 L2.9338403322238915,-0.22180849078405362 L3.1931314497990946,-0.18845233786851612 L3.450499144387814,-0.1522834169238747 L3.7057883873144273,-0.11332351475566238 L3.9588454018848753,-0.07159609935214117 L4.209517756015993,-0.027126305748062407 L4.457654454054893,0.02005907911574134 L4.7031060277331065,0.06993163252780121 L4.9457246262006755,0.12246131312679864 L5.185364105085975,0.17761647899735156 L5.4218801145276245,0.2353639067299227 L5.655130186125438,0.2956688114333623 L5.884973818758068,0.3584948676880231 L6.111272563215623,0.42380423142683465 L6.333890105596296,0.49155756273115436 L6.552692349416763,0.5617140495276658 L6.767547496386891,0.6342314321720424 L6.978326125800095,0.7090660289045778 L7.184901272491539,0.7861727621624475 L7.387148503317196,0.8655051857327427 L7.584945992107738,0.9470155127299376 L7.778174593052023,1.030654644380912 L7.966717912466136,1.1163721996002294 L8.150462378904555,1.2041165453378162 L8.329297311571334,1.2938348276807647 L8.50311498699011,1.3854730036905778 L8.671810703892673,1.4789758739566001 L8.835282846287097,1.574287115846079 L8.993432944667422,1.6713493174308192 L9.146165735328,1.7701040120699747 L9.29338921774678,1.8704917136281707 L9.435014710002994,1.972451952307726 L9.570956902195826,2.0759233110734 L9.701133907831906,2.1808434626477147 L9.825467313150668,2.287149207054579 L9.943882224357877,2.3947765096885907 L10.056307312738836,2.503660539887086 L10.162674857624154,2.613735709981711 L10.262920787182127,2.7249357148059747 L10.356984717013226,2.8371935716350083 L10.444809986523401,2.950441660533449 L10.526343693054296,3.064611765087163 L10.601536723749838,3.179635113494263 L10.670343785139982,3.2954424199906676 L10.732723430423816,3.411963926585263 L10.788638084435535,3.529129445079487 L10.838054066278355,3.6468683993461037 L10.880941609612593,3.765109867841611 L10.917274880585811,3.8837826263267115 L10.947031993394168,4.002815190769158 L10.970195023465594,4.122135860403045 L10.986750018256899,4.241672760918673 L10.996687005658249,4.361353887756943 L11.000000000000002,4.4811071494821695 " />
			<path d="M11.000000000000002,4.481107149482214 L10.996687005658249,4.600860411207484 L10.986750018256899,4.7205415380457545 L10.970195023465594,4.840078438561382 L10.947031993394168,4.95939910819527 L10.917274880585811,5.078431672637717 L10.880941609612593,5.197104431122818 L10.838054066278355,5.315345899618321 L10.788638084435537,5.433084853884939 L10.732723430423816,5.550250372379163 L10.670343785139986,5.666771878973754 L10.60153672374984,5.782579185470159 L10.526343693054299,5.89760253387726 L10.444809986523405,6.011772638430974 L10.35698471701323,6.1250207273294155 L10.26292078718213,6.2372785841584495 L10.162674857624156,6.348478588982714 L10.05630731273884,6.458553759077339 L9.943882224357878,6.567437789275835 L9.82546731315067,6.675065091909847 L9.701133907831908,6.781370836316712 L9.570956902195828,6.886290987891027 L9.435014710002996,6.9897623466567005 L9.29338921774678,7.091722585336257 L9.146165735328,7.192110286894453 L8.993432944667422,7.290864981533609 L8.835282846287097,7.387927183118349 L8.671810703892671,7.483238425007829 L8.50311498699011,7.576741295273852 L8.329297311571333,7.668379471283664 L8.150462378904553,7.758097753626613 L7.966717912466139,7.845842099364196 L7.778174593052034,7.931559654583511 " />
			<path d="M4.354214472608058,4.440892098500626e-15 L4.095888824379491,0.047676760523380324 L3.834913269281794,0.09242354513518158 L3.571456650012072,0.13421140412095145 L3.3056894144352547,0.17301330209488697 L3.0377835053098825,0.20880413549085652 L2.767912249046737,0.24156074880358513 L2.496250243572276,0.27126194956952254 L2.2229732453694626,0.2978885220776686 L1.9482580557690392,0.3214232398015202 L1.6722824065648105,0.3418508765440702 L1.3952248450269513,0.3591582162886615 L1.1172646183877306,0.3733340617493237 L0.8385815578743905,0.3843692416150475 L0.5593559623641754,0.39225661648333077 L0.27976848173682917,0.3969910834791337 L5.3541130752899545e-15,0.3985695795562778 L-0.2797684817368185,0.3969910834791337 L-0.5593559623641647,0.39225661648333077 L-0.8385815578743799,0.3843692416150475 L-1.1172646183877202,0.3733340617493237 L-1.3952248450269409,0.3591582162886615 L-1.6722824065648003,0.3418508765440702 L-1.9482580557690286,0.3214232398015202 L-2.2229732453694524,0.29788852207766947 L-2.4962502435722653,0.27126194956952254 L-2.7679122490467263,0.24156074880358602 L-3.0377835053098723,0.2088041354908574 L-3.305689414435245,0.17301330209488874 L-3.5714566500120615,0.13421140412095234 L-3.834913269281784,0.09242354513518336 L-4.095888824379481,0.04767676052338121 L-4.354214472608026,9.769962616701378e-15 " />

        </g>
        </g>
    </svg>
    