<?xml version="1.0" encoding="UTF-8" standalone="no"?>
    <svg
    xmlns:svg="http://www.w3.org/2000/svg"
    xmlns="http://www.w3.org/2000/svg"
    width="415"
    height="236"
    >
        <g transform="scale(4, -4)   translate(51.99747468305833,-31.688101123065103)" stroke-width="0.25"  fill="none">
        <!-- hidden lines -->
        <g  stroke="rgb(160,160,160)" fill="none" stroke-dasharray="0.25,0.25" >
    			<path d="M7.071067811865479,20.287796131138467 L7.071067811865479,29.188101123065103 " />
			<path d="M49.49747468305833,0.9455553376744148 L7.071067811865474,20.287796131138464 " />
			<path d="M-49.49747468305833,-5.501858260146934 L7.071067811865481,20.287796131138467 " />
			<path d="M-7.0710678118654755,-21.774555335661386 L-7.0710678118654755,-14.65431134212008 " />
			<path d="M-46.669047558312144,-3.721797261761603 L-7.071067811865475,-21.774555335661386 " />
			<path d="M-46.66904755831214,-3.7217972617616066 L-46.66904755831214,3.3984467317797 " />
			<path d="M-46.669047558312144,-3.721797261761607 L-38.8600668947525,-0.16167526499095336 " />
			<path d="M46.66904755831214,2.7256163360597414 L46.66904755831214,9.845860329601049 " />
			<path d="M38.8600668947525,6.285738332830395 L46.669047558312144,2.725616336059742 " />
			<path d="M-7.071067811865475,-21.774555335661386 L46.669047558312144,2.725616336059745 " />

        </g>

        <!-- solid lines -->
        <g  stroke="rgb(0,0,0)" fill="none">
    			<path d="M49.49747468305833,0.9455553376744148 L49.49747468305833,9.845860329601049 " />
			<path d="M49.49747468305833,9.845860329601049 L7.071067811865474,29.1881011230651 " />
			<path d="M-7.071067811865474,-24.844099053610986 L49.497474683058336,0.9455553376744156 " />
			<path d="M-7.071067811865474,-15.943794061684354 L49.497474683058336,9.845860329601047 " />
			<path d="M-7.071067811865474,-24.844099053610986 L-7.071067811865474,-15.943794061684352 " />
			<path d="M-7.071067811865474,-15.943794061684354 L-49.49747468305833,3.3984467317796963 " />
			<path d="M-49.49747468305833,-5.501858260146934 L-49.49747468305833,3.3984467317797 " />
			<path d="M-7.071067811865474,-24.844099053610986 L-49.49747468305833,-5.5018582601469355 " />
			<path d="M-49.49747468305833,3.3984467317797002 L7.071067811865481,29.188101123065103 " />
			<path d="M46.669047558312144,9.845860329601049 L7.071067811865471,27.89861840350083 " />
			<path d="M-7.071067811865475,-14.654311342120081 L46.669047558312144,9.84586032960105 " />
			<path d="M-7.071067811865475,-14.654311342120081 L-46.669047558312144,3.3984467317797016 " />
			<path d="M-46.669047558312144,3.3984467317797007 L7.071067811865476,27.89861840350083 " />
			<path d="M7.071067811865479,27.898618403500826 L7.071067811865479,20.778374409959522 " />
			<path d="M-38.8600668947525,-0.16167526499095336 L7.071067811865476,20.778374409959525 " />
			<path d="M7.071067811865471,20.778374409959525 L38.8600668947525,6.285738332830395 " />

        </g>
        </g>
    </svg>
    