<?xml version='1.0' encoding='utf-8'?>
<svg width="100.09mm" height="53.488422mm" viewBox="-49.646476 -26.423639 99.073008 52.944938" version="1.1" xmlns="http://www.w3.org/2000/svg">
  <g transform="scale(1,-1)" stroke-linecap="round">
    <g fill="none" stroke="rgb(0,0,0)" stroke-width="0.08908552999275385" id="Visible">
      <line x1="-7.142548" y1="-26.476756" x2="-7.142548" y2="-17.51317" />
      <line x1="-7.142548" y1="-17.51317" x2="-49.601933" y2="1.281086" />
      <line x1="-49.601933" y1="-7.6825" x2="-49.601933" y2="1.281086" />
      <line x1="-7.142548" y1="-26.476756" x2="-49.601933" y2="-7.6825" />
      <line x1="-7.142548" y1="-26.476756" x2="49.381989" y2="-1.378745" />
      <line x1="49.381989" y1="-1.378745" x2="49.381989" y2="7.584841" />
      <line x1="-7.142548" y1="-17.51317" x2="49.381989" y2="7.584841" />
      <line x1="-49.601933" y1="1.281086" x2="6.922603" y2="26.379096" />
      <line x1="49.381989" y1="7.584841" x2="6.922603" y2="26.379096" />
      <path d="M -11.467017,-5.315672 L -11.911774,-5.175814 L -12.464312,-5.0996 L -13.098776,-5.090595 L -13.785476,-5.149221 L -14.492277,-5.272734 L -15.186104,-5.455356 L -15.83449,-5.688539 L -16.407093,-5.961372 L -16.877118,-6.261088 L -17.22257,-6.573661 L -17.427283,-6.884465 L -17.481679,-7.178955 L -17.38321,-7.44335 L -17.136486,-7.665279" />
      <path d="M -17.136486,-7.665279 L -16.737219,-7.839253 L -16.211479,-7.947869 L -15.585629,-7.98568 L -14.891051,-7.95079 L -14.162576,-7.844949 L -13.43673,-7.673465 L -12.749913,-7.444935 L -12.136562,-7.17082 L -11.627435,-6.864864 L -11.248061,-6.54241 L -11.017463,-6.219627 L -10.947205,-5.912701 L -11.04081,-5.637022 L -11.293584,-5.406413" />
      <path d="M -11.293584,-5.406413 Q -11.372191,-5.357682 -11.467017,-5.315672" />
      <path d="M 10.517125,4.445722 L 10.072368,4.585579 L 9.51983,4.661794 L 8.885366,4.670799 L 8.198666,4.612173 L 7.491865,4.488659 L 6.798038,4.306038 L 6.149652,4.072854 L 5.577049,3.800021 L 5.107024,3.500305 L 4.761572,3.187732 L 4.556859,2.876928 L 4.502463,2.582439 L 4.600932,2.318043 L 4.847656,2.096115" />
      <path d="M 4.847656,2.096115 L 5.246923,1.92214 L 5.772663,1.813525 L 6.398513,1.775714 L 7.093091,1.810603 L 7.821566,1.916444 L 8.547412,2.087929 L 9.234229,2.316458 L 9.84758,2.590574 L 10.356707,2.896529 L 10.736081,3.218983 L 10.966679,3.541766 L 11.036937,3.848692 L 10.943332,4.124372 L 10.690558,4.35498" />
      <path d="M 10.690558,4.35498 Q 10.611951,4.403712 10.517125,4.445722" />
      <path d="M -22.081864,-0.617108 L -22.52662,-0.47725 L -23.079159,-0.401036 L -23.713622,-0.392031 L -24.400322,-0.450657 L -25.107123,-0.57417 L -25.800951,-0.756792 L -26.449336,-0.989975 L -27.021939,-1.262808 L -27.491964,-1.562524 L -27.837416,-1.875097 L -28.04213,-2.185901 L -28.096525,-2.480391 L -27.998057,-2.744786 L -27.751333,-2.966715" />
      <path d="M -27.751333,-2.966715 L -27.352065,-3.140689 L -26.826325,-3.249305 L -26.200475,-3.287116 L -25.505898,-3.252226 L -24.777422,-3.146385 L -24.051577,-2.974901 L -23.364759,-2.746371 L -22.751409,-2.472256 L -22.242282,-2.1663 L -21.862907,-1.843847 L -21.63231,-1.521064 L -21.562052,-1.214137 L -21.655656,-0.938458 L -21.90843,-0.707849" />
      <path d="M -21.90843,-0.707849 Q -21.987037,-0.659118 -22.081864,-0.617108" />
      <path d="M -0.097722,9.144285 L -0.542478,9.284143 L -1.095016,9.360358 L -1.72948,9.369362 L -2.41618,9.310736 L -3.122981,9.187223 L -3.816808,9.004601 L -4.465194,8.771418 L -5.037797,8.498585 L -5.507822,8.198869 L -5.853274,7.886296 L -6.057988,7.575492 L -6.112383,7.281002 L -6.013915,7.016607 L -5.767191,6.794678" />
      <path d="M -5.767191,6.794678 L -5.367923,6.620704 L -4.842183,6.512089 L -4.216333,6.474277 L -3.521756,6.509167 L -2.79328,6.615008 L -2.067435,6.786493 L -1.380617,7.015022 L -0.767267,7.289138 L -0.258139,7.595093 L 0.121235,7.917547 L 0.351832,8.24033 L 0.42209,8.547256 L 0.328486,8.822935 L 0.075712,9.053544" />
      <path d="M 0.075712,9.053544 Q -0.002895,9.102276 -0.097722,9.144285" />
      <path d="M 7.67214,1.889329 A 2.5,1.927198795517969 -121.81905159256647 0,0 10.847517,4.2356" />
      <path d="M -2.942706,6.587892 A 2.5,1.927198795517969 -121.81905159256647 0,0 0.23267,8.934164" />
    </g>
    <g fill="none" stroke="rgb(99,99,99)" stroke-width="0.08908552999275385" id="Hidden" stroke-dasharray="0.002263 0.268388">
      <line x1="-49.601933" y1="-7.6825" x2="6.922603" y2="17.41551" />
      <line x1="6.922603" y1="17.41551" x2="6.922603" y2="26.379096" />
      <line x1="49.381989" y1="-1.378745" x2="6.922603" y2="17.41551" />
      <path d="M -3.046602,-10.540427 L -3.491359,-10.40057 L -4.043897,-10.324355 L -4.678361,-10.31535 L -5.365061,-10.373976 L -6.071862,-10.49749 L -6.765689,-10.680111 L -7.414075,-10.913294 L -7.986678,-11.186128 L -8.456703,-11.485843 L -8.802155,-11.798417 L -9.006869,-12.10922 L -9.061264,-12.40371 L -8.962795,-12.668106 L -8.716071,-12.890034" />
      <path d="M -8.716071,-12.890034 L -8.316804,-13.064008 L -7.791064,-13.172624 L -7.165214,-13.210435 L -6.470636,-13.175546 L -5.742161,-13.069705 L -5.016315,-12.89822 L -4.329498,-12.66969 L -3.716147,-12.395575 L -3.20702,-12.08962 L -2.827646,-11.767166 L -2.597049,-11.444383 L -2.526791,-11.137457 L -2.620395,-10.861777 L -2.873169,-10.631169" />
      <path d="M -2.873169,-10.631169 Q -2.951776,-10.582437 -3.046602,-10.540427" />
      <path d="M 18.93754,-0.779034 L 18.492783,-0.639176 L 17.940245,-0.562962 L 17.305781,-0.553957 L 16.619081,-0.612583 L 15.91228,-0.736097 L 15.218453,-0.918718 L 14.570067,-1.151901 L 13.997464,-1.424734 L 13.527439,-1.72445 L 13.181987,-2.037023 L 12.977274,-2.347827 L 12.922878,-2.642317 L 13.021347,-2.906712 L 13.268071,-3.128641" />
      <path d="M 13.268071,-3.128641 L 13.667338,-3.302615 L 14.193078,-3.411231 L 14.818928,-3.449042 L 15.513506,-3.414152 L 16.241981,-3.308312 L 16.967827,-3.136827 L 17.654644,-2.908297 L 18.267995,-2.634182 L 18.777122,-2.328226 L 19.156496,-2.005773 L 19.387094,-1.68299 L 19.457352,-1.376063 L 19.363747,-1.100384 L 19.110973,-0.869775" />
      <path d="M 19.110973,-0.869775 Q 19.032366,-0.821044 18.93754,-0.779034" />
      <path d="M -13.661449,-5.841863 L -14.106205,-5.702006 L -14.658744,-5.625791 L -15.293208,-5.616786 L -15.979907,-5.675412 L -16.686708,-5.798926 L -17.380536,-5.981547 L -18.028922,-6.21473 L -18.601525,-6.487564 L -19.07155,-6.78728 L -19.417002,-7.099853 L -19.621715,-7.410656 L -19.67611,-7.705146 L -19.577642,-7.969542 L -19.330918,-8.19147" />
      <path d="M -19.330918,-8.19147 L -18.931651,-8.365444 L -18.40591,-8.47406 L -17.78006,-8.511871 L -17.085483,-8.476982 L -16.357007,-8.371141 L -15.631162,-8.199656 L -14.944344,-7.971126 L -14.330994,-7.697011 L -13.821867,-7.391056 L -13.442493,-7.068602 L -13.211895,-6.745819 L -13.141637,-6.438893 L -13.235242,-6.163213 L -13.488015,-5.932605" />
      <path d="M -13.488015,-5.932605 Q -13.566623,-5.883873 -13.661449,-5.841863" />
      <path d="M 8.322693,3.91953 L 7.877937,4.059388 L 7.325398,4.135602 L 6.690934,4.144607 L 6.004235,4.085981 L 5.297434,3.962467 L 4.603606,3.779846 L 3.955221,3.546663 L 3.382618,3.27383 L 2.912593,2.974114 L 2.567141,2.661541 L 2.362427,2.350737 L 2.308032,2.056247 L 2.4065,1.791851 L 2.653224,1.569923" />
      <path d="M 2.653224,1.569923 L 3.052491,1.395949 L 3.578232,1.287333 L 4.204082,1.249522 L 4.898659,1.284412 L 5.627135,1.390252 L 6.35298,1.561737 L 7.039798,1.790267 L 7.653148,2.064382 L 8.162275,2.370337 L 8.54165,2.692791 L 8.772247,3.015574 L 8.842505,3.322501 L 8.748901,3.59818 L 8.496127,3.828789" />
      <path d="M 8.496127,3.828789 Q 8.41752,3.87752 8.322693,3.91953" />
      <path d="M 10.874525,4.22396 A 2.5,1.927198795517969 -121.81905159256647 0,0 11.057206,4.12748" />
      <path d="M 11.057206,4.12748 A 2.5,1.927198795517969 -121.81905159256647 0,0 8.421014,-0.121107" />
      <path d="M 8.421014,-0.121107 A 2.5,1.927198795517969 -121.81905159256647 0,0 7.67214,1.889329" />
      <path d="M 10.847517,4.2356 A 2.5,1.927198795517969 -121.81905159256647 0,0 10.874525,4.22396" />
      <path d="M 0.259678,8.922524 A 2.5,1.927198795517969 -121.81905159256647 0,0 0.442359,8.826044" />
      <path d="M 0.442359,8.826044 A 2.5,1.927198795517969 -121.81905159256647 0,0 -2.193832,4.577457" />
      <path d="M -2.193832,4.577457 A 2.5,1.927198795517969 -121.81905159256647 0,0 -2.942706,6.587892" />
      <path d="M 0.23267,8.934164 A 2.5,1.927198795517969 -121.81905159256647 0,0 0.259678,8.922524" />
      <line x1="-17.136486" y1="-7.665279" x2="-8.716071" y2="-12.890034" />
      <line x1="-11.293584" y1="-5.406413" x2="-2.873169" y2="-10.631169" />
      <line x1="4.847656" y1="2.096115" x2="8.421014" y2="-0.121107" />
      <line x1="10.690558" y1="4.35498" x2="11.057206" y2="4.12748" />
      <line x1="-27.751333" y1="-2.966715" x2="-19.330918" y2="-8.19147" />
      <line x1="-21.90843" y1="-0.707849" x2="-13.488015" y2="-5.932605" />
      <line x1="-5.767191" y1="6.794678" x2="-2.193832" y2="4.577457" />
      <line x1="0.075712" y1="9.053544" x2="0.442359" y2="8.826044" />
      <line x1="19.110973" y1="-0.869775" x2="11.057206" y2="4.12748" />
      <line x1="13.268071" y1="-3.128641" x2="8.421014" y2="-0.121107" />
      <line x1="8.496127" y1="3.828789" x2="0.442359" y2="8.826044" />
      <line x1="2.653224" y1="1.569923" x2="-2.193832" y2="4.577457" />
    </g>
  </g>
</svg>