<?xml version="1.0" encoding="UTF-8" standalone="no"?>
    <svg
    xmlns:svg="http://www.w3.org/2000/svg"
    xmlns="http://www.w3.org/2000/svg"
    width="220"
    height="282"
    >
        <g transform="scale(4, -4)   translate(27.500000000000007,-33.11082834117906)" stroke-width="0.25"  fill="none">
        <!-- hidden lines -->
        <g  stroke="rgb(160,160,160)" fill="none" stroke-dasharray="0.25,0.25" >
    			<path d="M-14.142135623730955,-27.13508695927345 L-13.87942921779308,-27.20664428467943 L-13.612019955909066,-27.27684787914427 L-13.339998446072759,-27.34567395513417 L-13.063456859075542,-27.41309919186874 L-12.782488897275519,-27.479100743222926 L-12.497189762847729,-27.543656245468128 L-12.207656125526187,-27.606743824849826 L-11.913986089848663,-27.66834210499921 L-11.616279161915283,-27.728430214176267 L-11.314636215672255,-27.786987792341908 L-11.009159458732086,-27.843994998056658 L-10.699952397741946,-27.899432515203685 L-10.387119803311805,-27.95328155953379 L-10.07076767451436,-28.005523885030204 L-9.751003202968727,-28.05614179009099 L-9.427934736519957,-28.105118123526992 L-9.101671742526879,-28.152436290373306 L-8.772324770770553,-28.198080257512217 L-8.44000541599599,-28.242034559105843 L-8.10482628009979,-28.284284301836497 L-7.766900933976516,-28.324815169953098 L-7.426343879036739,-28.36361343012187 L-6.737797067844399,-28.4359601330885 L-6.04011898638457,-28.50122636425456 L-5.33425514949797,-28.559323672811857 L-4.621162165613419,-28.610173323497087 L-3.9018064403225554,-28.653706403296276 L-3.1771628666772127,-28.689863914837858 L-2.448213503984319,-28.718596856347688 L-1.7159462468888045,-28.739866288057794 L-0.9813534865483606,-28.753643384978727 L-0.24543076571439248,-28.759909475964086 L0.49082457045825817,-28.758656069014222 L1.2264147260441902,-28.74988486278487 L1.9603428065912194,-28.733607744285074 L2.6916141701425196,-28.70984677276753 L3.4192377752060263,-28.678634149833236 L4.1422275238443795,-28.64001217579087 L4.859603598065292,-28.594033192330105 L5.570393787701082,-28.540759511586558 L6.273634807977839,-28.480263331694438 L6.96837360498869,-28.412626638941433 L7.312259956095479,-28.376158870331313 L7.6536686473018,-28.337941096658337 L7.992483996912943,-28.297986267495666 L8.328591201952754,-28.256307920994118 L8.661876377063052,-28.21292017929492 L8.992226593092132,-28.167837743744634 L9.319529915359311,-28.12107588991381 L9.643675441582445,-28.07265046242104 L9.96455333945563,-28.022577869564255 L10.282054883864431,-27.970875077760972 L10.596072493725892,-27.917559605799465 L10.906499768440929,-27.862649518902767 L11.213231523946725,-27.806163422607504 L11.51616382835691,-27.748120456459667 L11.815194037177491,-27.688540287529435 L12.110220828086522,-27.627443103747257 L12.401144235265797,-27.564849607063447 L12.687865683272912,-27.50078100643361 L12.97028802044224,-27.43525901063227 L13.24831555180343,-27.36830582089714 L13.521854071506315,-27.29994412340658 L13.790810894741337,-27.23019708159262 L14.055094889144506,-27.159088328292405 L14.314616505676376,-27.08664195774051 L14.569287808964509,-27.012882517404933 L14.819022507099188,-26.93783499966951 L15.06373598087226,-26.86152483336561 L15.303345312449188,-26.78397787515591 L15.537769313464661,-26.7052204007732 L15.766928552532129,-26.625279096117243 L15.990745382158096,-26.54418104821258 L16.209143965051894,-26.46195373603048 L16.42205029982209,-26.378625021178078 L16.629392246050905,-26.29422313845783 L16.831099548737967,-26.20877668630053 L17.027103862105307,-26.12231461707514 L17.21733877275535,-26.034866227278652 L17.40173982217423,-25.94646114760938 L17.58024452857266,-25.857129332927002 L17.752792408057072,-25.766901052102753 L17.9193249951237,-25.675806877763236 L18.079785862468864,-25.583877675931316 L18.234120640108593,-25.491144595567555 L18.382277033801152,-25.397639058015844 L18.524204842766228,-25.30339274635669 L18.65985597669478,-25.20843759467183 L18.7891844720438,-25.112805777223823 L18.91214650761043,-25.016529697554212 L19.028700419380172,-24.919641977504043 L19.138806714644176,-24.822175446160397 L19.242428085380826,-24.724163128732684 L19.33952942089704,-24.625638235362516 L19.430077819725035,-24.52663414987089 L19.51404260077057,-24.427184418446554 L19.59139531370881,-24.327322738279317 L19.662109748624324,-24.22708294614221 L19.726161944891974,-24.126499006926387 L19.78353019929562,-24.02560500213254 L19.83419507338199,-23.924435118322883 L19.87813940004712,-23.823023635537474 L19.915348289353197,-23.721404915678914 L19.945809133573803,-23.619613390869258 L19.969511611465894,-23.517683551783175 L19.98644769176699,-23.415649935961234 L19.99661163591647,-23.31354711610736 L20.0,-23.211409688374367 " />
			<path d="M20.0,-23.211409688374317 L19.996647633768696,-23.109816215732153 L19.98659165891071,-23.008256800942686 L19.969835446557106,-22.90676549044118 L19.94638461400392,-22.80537630783185 L19.916247022829076,-22.704123242481888 L19.87943277625686,-22.603040238127008 L19.835954215770983,-22.502161181492248 L19.785825916977235,-22.40151989093189 L19.729064684717233,-22.301150105092336 L19.6656895474348,-22.201085471601655 L19.59572175079695,-22.101359535789673 L19.519184750571558,-22.00200572944235 L19.43610420476412,-21.903057359594214 L19.34650796501626,-21.80454759736265 L19.250426067268844,-21.706509466827683 L19.147890721692814,-21.60897583396114 " />
			<path d="M19.14789072169281,-21.608975833961136 L19.028763446835796,-21.503231444320186 L18.90205057692113,-21.398168000053424 L18.767802624559494,-21.293827383479993 L18.626073106134488,-21.190251188772194 L18.47691852046892,-21.08748070537444 L18.320398326302254,-20.985556901543717 L18.156574918588028,-20.884520408018048 L17.985513603620863,-20.784411501819534 L17.807282573002855,-20.685270090198394 L17.62195287645979,-20.58713569472438 L17.429598393518006,-20.49004743553199 L17.23029580405316,-20.394044015725665 L17.024124557722708,-20.29916370595125 L16.811166842294213,-20.205444329139862 L16.591507550882152,-20.11292324543018 L16.365234248106265,-20.021637337275312 L16.132437135184933,-19.931622994739993 L15.893209013977515,-19.842916100994128 L15.647645249989973,-19.755552018008384 L15.395843734358511,-19.66956557245754 L15.137904844826428,-19.584991041837256 L14.873931405729685,-19.501862140799737 L14.60402864700719,-19.420212007713776 L14.328304162252097,-19.340073191454543 L14.04686786582089,-19.26147763842834 L13.759831949017281,-19.184456679837545 L13.467310835368476,-19.1090410191908 L13.16942113501155,-19.0352607200634 L12.866281598208186,-18.963145194112798 L12.558013068006256,-18.892723189354015 L12.244738432067146,-18.824022778699547 L11.926582573678033,-18.75707134876845 L11.6036723219686,-18.69189558896896 L11.276136401352092,-18.628521480859096 L10.944105380210818,-18.566974287789392 L10.607711618846592,-18.50727854483197 L10.267089216716833,-18.44945804899992 L9.92237395897739,-18.39353584976088 L9.573703262353352,-18.339534239848664 L9.221216120359477,-18.287474746376493 L8.865053047892058,-18.23737812225548 L8.505356025214274,-18.189264337921713 L8.142268441357425,-18.143152573375293 L7.77593503696056,-18.099061210534416 L7.406501846571309,-18.05700782590767 L7.034116140430897,-18.017009183587348 L6.658926365766598,-17.979081228566628 L6.281082087614955,-17.943239080383314 L5.900733929199438,-17.90949702709258 L5.5180335118862285,-17.877868519571223 L5.133133394742147,-17.848366166155614 L4.746187013718744,-17.82100172761555 L4.357348620486848,-17.79578611246593 L3.966773220945929,-17.772729372618233 L3.5746165134328085,-17.751840699373425 L3.1810348266543214,-17.733128419757954 L2.7861850573687024,-17.716599993204284 L2.3902246078405165,-17.702262008577275 L1.9933113230940798,-17.690120181547602 L1.5956034279903766,-17.68017935231329 L1.197259464152562,-17.672443483670197 L0.7984382267651878,-17.666915659432316 L0.39929870127235084,-17.663598083202437 L-3.2162452993532727e-15,-17.66249207749371 L-0.3992987012723573,-17.663598083202437 L-0.7984382267651897,-17.666915659432316 L-1.197259464152564,-17.672443483670197 L-1.5956034279903786,-17.68017935231329 L-1.9933113230940815,-17.690120181547602 L-2.3902246078405183,-17.702262008577275 L-2.786185057368704,-17.716599993204284 L-3.181034826654323,-17.733128419757954 L-3.57461651343281,-17.751840699373425 L-3.966773220945931,-17.772729372618233 L-4.3573486204868495,-17.79578611246593 L-4.746187013718747,-17.82100172761555 L-5.13313339474215,-17.848366166155614 L-5.518033511886231,-17.877868519571223 L-5.900733929199439,-17.90949702709258 L-6.281082087614958,-17.943239080383314 L-6.6589263657666,-17.979081228566628 L-7.0341161404309,-18.017009183587348 L-7.4065018465713095,-18.05700782590767 L-7.775935036960563,-18.099061210534416 L-8.142268441357427,-18.143152573375293 L-8.505356025214274,-18.189264337921713 L-8.865053047892054,-18.23737812225548 L-9.221216120359479,-18.287474746376493 L-9.573703262353357,-18.339534239848668 L-9.922373958977392,-18.39353584976088 L-10.267089216716833,-18.44945804899992 L-10.607711618846594,-18.50727854483197 L-10.944105380210821,-18.566974287789392 L-11.276136401352094,-18.628521480859096 L-11.603672321968599,-18.69189558896896 L-11.926582573678036,-18.75707134876845 L-12.244738432067155,-18.82402277869955 L-12.55801306800626,-18.892723189354015 L-12.86628159820819,-18.963145194112798 L-13.169421135011557,-19.0352607200634 L-13.467310835368483,-19.109041019190805 L-13.759831949017284,-19.18445667983755 L-14.04686786582089,-19.26147763842834 L-14.3283041622521,-19.340073191454543 L-14.604028647007198,-19.42021200771378 L-14.87393140572969,-19.501862140799737 L-15.13790484482643,-19.584991041837256 L-15.395843734358515,-19.669565572457543 L-15.647645249989978,-19.755552018008384 L-15.893209013977518,-19.84291610099413 L-16.132437135184933,-19.931622994739996 L-16.36523424810627,-20.021637337275315 L-16.59150755088216,-20.112923245430185 L-16.811166842294217,-20.205444329139862 L-17.024124557722708,-20.299163705951255 L-17.230295804053164,-20.394044015725665 L-17.42959839351801,-20.49004743553199 L-17.621952876459794,-20.58713569472438 L-17.807282573002855,-20.685270090198394 L-17.985513603620863,-20.784411501819537 L-18.15657491858803,-20.884520408018048 L-18.320398326302257,-20.985556901543717 L-18.47691852046892,-21.087480705374443 L-18.626073106134488,-21.190251188772194 L-18.7678026245595,-21.293827383479996 L-18.902050576921134,-21.398168000053424 L-19.028763446835796,-21.503231444320186 L-19.147890721692786,-21.608975833961114 " />
			<path d="M-19.147890721692814,-21.60897583396114 L-19.250426067268847,-21.706509466827683 L-19.346507965016265,-21.80454759736265 L-19.43610420476412,-21.903057359594214 L-19.519184750571558,-22.00200572944235 L-19.59572175079695,-22.101359535789676 L-19.6656895474348,-22.201085471601655 L-19.729064684717233,-22.301150105092336 L-19.785825916977238,-22.40151989093189 L-19.835954215770983,-22.502161181492248 L-19.879432776256863,-22.60304023812701 L-19.916247022829076,-22.704123242481888 L-19.94638461400392,-22.80537630783185 L-19.969835446557106,-22.90676549044118 L-19.98659165891071,-23.008256800942686 L-19.996647633768696,-23.10981621573215 L-20.0,-23.211409688374292 " />
			<path d="M-20.0,-23.211409688374317 L-19.99849403678289,-23.279503443280543 L-19.993976373924085,-23.34758694351775 L-19.98644769176699,-23.41564993596123 L-19.97590912410345,-23.48368217057468 L-19.962362258002983,-23.551673401953806 L-19.945809133573803,-23.619613390869254 L-19.92625224365556,-23.687491905808603 L-19.90369453344394,-23.75529872451717 L-19.87813940004712,-23.823023635537478 L-19.8495906919742,-23.890656439747037 L-19.8180527085556,-23.9581869518943 L-19.78353019929562,-24.025605002132544 L-19.746028363157166,-24.09290043755138 L-19.705552847778826,-24.160063123705765 L-19.662109748624324,-24.22708294614221 L-19.61570560806461,-24.29394981192198 L-19.566347414392553,-24.360653651141035 L-19.514042600770573,-24.427184418446554 L-19.458799044111203,-24.493532094549693 L-19.400625063890878,-24.559686687734477 L-19.339529420897044,-24.62563823536251 L-19.275521315908797,-24.69137680537331 L-19.208610388311318,-24.756892497780033 L-19.13880671464418,-24.822175446160394 L-19.06612080708388,-24.887215819142497 L-18.990563611860736,-24.952003821885402 L-18.91214650761043,-25.016529697554212 L-18.83088130366042,-25.08078372878939 L-18.659855976694782,-25.208437594671828 L-18.477590650225736,-25.334888525617203 L-18.284195114070613,-25.460060352313004 L-18.079785862468864,-25.583877675931312 L-17.864486023910306,-25.70626591354621 L-17.638425286967102,-25.827151343059747 L-17.40173982217423,-25.94646114760938 L-17.154572200005443,-26.06412345943013 L-16.897071304994146,-26.18006740314504 L-16.62939224605091,-26.294223138457827 L-16.351696263031677,-26.406521902222106 L-16.064150629612904,-26.516896049861707 L-15.766928552532134,-26.625279096117243 L-15.460209067254741,-26.731605755094353 L-15.144176930129689,-26.835811979589483 L-14.819022507099183,-26.937834999669512 L-14.48494165902934,-27.037613360482034 L-14.142135623731015,-27.13508695927343 " />
			<path d="M-10.606601717798215,-21.350461303289773 L-10.209014966931798,-21.456781993192887 L-9.797592644306656,-21.55897047773624 L-9.372892322135797,-21.65688826793578 L-8.935489567386497,-21.75040266258409 L-8.485977161754192,-21.839386928091113 L-8.02496429830646,-21.92372047023745 L-7.553075755885771,-22.00328899760734 L-7.070951052389968,-22.07798467647993 L-6.579243578077914,-22.147706276968847 L-6.078619710074843,-22.212359310212058 L-5.569757909277554,-22.271856156426086 L-5.053347800883299,-22.32611618365106 L-4.530089239788428,-22.375065857025604 L-4.000691362123478,-22.418638838443577 L-3.465871624210064,-22.456776076457498 L-2.9263548302419164,-22.48942588630689 L-2.3828721500079095,-22.516544019963078 L-1.8361601279882394,-22.53809372609545 L-1.2869596851666034,-22.55404579987803 L-0.7360151149112705,-22.56437862256873 L-0.18407307428579436,-22.569078190807748 L0.36811842784369364,-22.56813813559535 L0.9198110445331428,-22.56155973092334 L1.4702571049434146,-22.549351892048488 L2.0187106276068896,-22.53153116341033 L2.5644283314045198,-22.508121696209614 L3.1066706428832846,-22.479155215677835 L3.6447026985489694,-22.444670978082264 L4.177795340775812,-22.404715717524603 L4.705226105983379,-22.35934358260551 L5.226280203741518,-22.30861606304076 L5.7402514854763504,-22.252601906328437 L6.246443401464566,-22.191377024580273 L6.744169944819099,-22.12502439164316 L7.232756581186833,-22.053633930650467 L7.711541162898323,-21.977302392155412 L8.179874826330696,-21.89613322301176 L8.637122871267684,-21.810236426179436 L9.08266562106489,-21.71972841164513 L9.515899262454685,-21.62473183865989 L9.936236663852572,-21.525375449507543 L10.343108171056002,-21.42179389502915 L10.735962379257282,-21.314127552140068 L11.114266880324392,-21.202522333586817 L11.297801985654194,-21.145289708858893 L11.477508984336891,-21.087129490201615 L11.653326985098497,-21.028061384414585 L11.825196414399096,-20.968105405922618 L11.993059036618572,-20.90728186999412 L12.15685797378892,-20.845611385857545 L12.316537724866569,-20.783114849718242 L12.472044184538179,-20.719813437678056 L12.623324661553477,-20.655728598560085 L12.77032789657898,-20.59088204664104 L12.913004079566512,-20.525295754293673 L13.05130486663067,-20.458991944541722 L13.185183396429494,-20.391993083529936 L13.314594306042803,-20.32432187291175 L13.439493746342773,-20.25600124215711 L13.559839396851647,-20.18705434078317 L13.675590480081445,-20.117504530510352 L13.786707775350864,-20.04737537734657 L13.893153632074672,-19.9766906436022 L13.994891982521084,-19.905474279838558 L14.09188835403285,-19.83375041675255 L14.184109880707823,-19.761543357000342 L14.271525314535129,-19.688877566962717 L14.354105035983132,-19.61577766845498 L14.43182106403562,-19.542268430384198 L14.50464706567278,-19.46837476035657 L14.572558364793775,-19.394121696237853 L14.635531950577928,-19.3195343976696 L14.693546485281608,-19.24463813754417 L14.746582311468245,-19.169458293441345 L14.79462145866898,-19.094020339029473 L14.837647649471716,-19.01834983543409 L14.875646305036494,-18.942472422576845 L14.90860455003534,-18.866413810487792 L14.936511217014898,-18.79019977059387 L14.959356850180352,-18.713856126986627 L14.97713370859942,-18.637408747672065 L14.989835768825241,-18.560883535805612 L14.997458726937351,-18.484306420915207 L15.0,-18.40770335011546 " />
			<path d="M15.0,-18.407703350115423 L14.99748572532652,-18.3315082456338 L14.989943744183034,-18.255338684541698 L14.97737658491783,-18.179220201665572 L14.959788460502942,-18.103178314708572 L14.937185267121805,-18.0272385156961 L14.909574582192645,-17.95142626242994 L14.876965661828237,-17.87576696995387 L14.839369437732927,-17.8002860020336 L14.796798513537924,-17.725008662653938 L14.7492671605761,-17.649960187535928 L14.696791313097712,-17.57516573567694 L14.639388562928668,-17.500650380916444 L14.57707815357309,-17.426439103530345 L14.509880973762197,-17.35255678185667 L14.437819550451634,-17.279028183955447 L14.36091804126961,-17.20587795930554 " />
			<path d="M14.360918041269608,-17.205877959305536 L14.271572585126847,-17.126569667074822 L14.176537932690847,-17.04777208387475 L14.075851968419622,-16.96951662144468 L13.969554829600865,-16.89183447541383 L13.85768889035169,-16.814756612865516 L13.74029874472669,-16.738313759992472 L13.61743118894102,-16.66253638984822 L13.489135202715646,-16.587454710199335 L13.35546192975214,-16.513098651483478 L13.216464657344842,-16.43949785487797 L13.072198795138503,-16.36668166048368 L12.922721853039869,-16.294679095628933 L12.768093418292029,-16.223518863298125 L12.608375131720658,-16.15322933068958 L12.443630663161613,-16.08383851790732 L12.273925686079698,-16.01537408679117 L12.099327851388699,-15.94786332988968 L11.919906760483135,-15.881333159580281 L11.73573393749248,-15.815810097340972 L11.546882800768884,-15.751320263177838 L11.35342863361982,-15.687889365212627 L11.155448554297264,-15.625542689434486 L10.953021485255393,-15.564305089620017 L10.746228121689073,-15.504200977425592 L10.535150899365666,-15.445254312655939 L10.31987396176296,-15.387488593712845 L10.100483126526356,-15.330926848227787 L9.877065851258662,-15.275591623882233 L9.64971119865614,-15.221504979419283 L9.418509801004692,-15.168688475850196 L9.18355382405036,-15.117163167859346 L8.944936930258525,-15.066949595411021 L8.45710230101407,-14.970537194479006 L7.9557837141349435,-14.879604992458663 L7.441780469233043,-14.794297971155347 L6.915912090269608,-14.714752143617055 L6.379017018910705,-14.641094337275971 L5.83195127772042,-14.573441991735496 L5.275587105323173,-14.511902971525195 L4.710811565711216,-14.45657539412217 L4.138525133914672,-14.407547473513102 L3.5596402602890582,-14.364897379546345 L2.9750799157094465,-14.328693113298359 L2.3857761199907412,-14.298992398653152 L1.7926684558803874,-14.27584259026764 L1.1967025709927825,-14.259280598069651 L0.5988286700738908,-14.249332828408921 L-2.4121839745149544e-15,-14.246015141954969 L-0.5988286700738923,-14.249332828408921 L-1.1967025709927839,-14.259280598069651 L-1.792668455880389,-14.27584259026764 L-2.3857761199907426,-14.298992398653152 L-2.9750799157094483,-14.32869311329836 L-3.55964026028906,-14.364897379546345 L-4.138525133914674,-14.407547473513102 L-4.710811565711218,-14.45657539412217 L-5.275587105323175,-14.511902971525195 L-5.831951277720422,-14.573441991735498 L-6.379017018910706,-14.641094337275971 L-6.915912090269609,-14.714752143617055 L-7.441780469233045,-14.794297971155347 L-7.955783714134945,-14.879604992458663 L-8.457102301014071,-14.970537194479007 L-8.944936930258528,-15.066949595411023 L-9.183553824050366,-15.117163167859347 L-9.418509801004694,-15.168688475850196 L-9.649711198656142,-15.221504979419283 L-9.877065851258667,-15.275591623882235 L-10.100483126526361,-15.330926848227787 L-10.319873961762964,-15.387488593712845 L-10.535150899365666,-15.44525431265594 L-10.746228121689075,-15.504200977425592 L-10.953021485255398,-15.564305089620019 L-11.155448554297267,-15.625542689434488 L-11.353428633619822,-15.687889365212627 L-11.546882800768886,-15.75132026317784 L-11.735733937492483,-15.815810097340973 L-11.919906760483139,-15.881333159580283 L-12.099327851388699,-15.94786332988968 L-12.273925686079702,-16.01537408679117 L-12.443630663161619,-16.083838517907324 L-12.608375131720662,-16.15322933068958 L-12.76809341829203,-16.223518863298125 L-12.92272185303987,-16.294679095628936 L-13.072198795138508,-16.36668166048368 L-13.216464657344845,-16.43949785487797 L-13.35546192975214,-16.51309865148348 L-13.489135202715648,-16.58745471019934 L-13.617431188941023,-16.66253638984822 L-13.740298744726692,-16.738313759992472 L-13.85768889035169,-16.814756612865516 L-13.969554829600867,-16.89183447541383 L-14.075851968419625,-16.969516621444683 L-14.176537932690849,-17.047772083874754 L-14.271572585126847,-17.126569667074822 L-14.36091804126959,-17.20587795930552 " />
			<path d="M-14.36091804126961,-17.20587795930554 L-14.437819550451636,-17.279028183955447 L-14.509880973762199,-17.352556781856673 L-14.57707815357309,-17.426439103530345 L-14.639388562928668,-17.500650380916447 L-14.696791313097712,-17.57516573567694 L-14.7492671605761,-17.649960187535928 L-14.796798513537924,-17.725008662653938 L-14.839369437732929,-17.8002860020336 L-14.876965661828237,-17.87576696995387 L-14.909574582192647,-17.951426262429944 L-14.937185267121805,-18.0272385156961 L-14.959788460502942,-18.103178314708572 L-14.97737658491783,-18.179220201665572 L-14.989943744183034,-18.255338684541698 L-14.99748572532652,-18.331508245633795 L-15.0,-18.407703350115405 " />
			<path d="M-15.0,-18.407703350115423 L-14.998870527587167,-18.45877366629509 L-14.995482280443063,-18.509836291472997 L-14.989835768825243,-18.56088353580561 L-14.981931843077586,-18.611907711765696 L-14.971771693502237,-18.66290113530004 L-14.959356850180352,-18.713856126986627 L-14.94468918274167,-18.764765013191138 L-14.927770900082955,-18.815620127222562 L-14.90860455003534,-18.866413810487792 L-14.88719301898065,-18.917138413644963 L-14.8635395314167,-18.96778629775541 L-14.837647649471714,-19.01834983543409 L-14.779164635834118,-19.119193426614007 L-14.711779206048456,-19.21960844277617 L-14.635531950577928,-19.3195343976696 L-14.55046879791816,-19.41891109963554 L-14.4566409869316,-19.517678687864667 L-14.354105035983133,-19.61577766845498 L-14.242922708895552,-19.713148950248737 L-14.123160977745314,-19.809733880426727 L-13.994891982521086,-19.905474279838558 L-13.858192987669304,-20.000312478047586 L-13.713146335552958,-20.094191348069437 L-13.559839396851649,-20.18705434078317 L-13.39836451793273,-20.27884551899434 L-13.228818965225326,-20.369509591129493 L-13.051304866630671,-20.45899194454172 L-12.865929150004082,-20.547238678407282 L-12.672803478745609,-20.63419663619346 L-12.472044184538182,-20.719813437678056 L-12.26377219727376,-20.804037510501267 L-12.04811297220968,-20.886818121230963 L-11.8251964143991,-20.968105405922614 L-11.595156800441057,-21.04785040015545 L-11.358132697597267,-21.126005068526794 L-11.114266880324386,-21.202522333586817 L-10.863706244272006,-21.27735610419621 L-10.606601717798261,-21.35046130328976 " />
			<path d="M-14.142135623730955,-31.93879329753235 L-13.87942921779308,-32.01035062293833 L-13.612019955909066,-32.08055421740317 L-13.339998446072759,-32.149380293393065 L-13.063456859075542,-32.21680553012764 L-12.782488897275519,-32.28280708148183 L-12.497189762847729,-32.347362583727026 L-12.207656125526187,-32.41045016310872 L-11.913986089848663,-32.4720484432581 L-11.616279161915283,-32.53213655243516 L-11.314636215672255,-32.5906941306008 L-11.009159458732086,-32.647701336315556 L-10.699952397741946,-32.70313885346258 L-10.387119803311805,-32.75698789779269 L-10.07076767451436,-32.809230223289106 L-9.751003202968727,-32.85984812834989 L-9.427934736519957,-32.90882446178589 L-9.101671742526879,-32.9561426286322 L-8.772324770770553,-33.001786595771115 L-8.44000541599599,-33.04574089736474 L-8.10482628009979,-33.08799064009539 L-7.766900933976516,-33.128521508211996 L-7.426343879036739,-33.167319768380764 L-6.737797067844399,-33.2396664713474 L-6.04011898638457,-33.30493270251346 L-5.33425514949797,-33.363030011070755 L-4.621162165613419,-33.413879661755985 L-3.9018064403225554,-33.457412741555174 L-3.1771628666772127,-33.493570253096756 L-2.448213503984319,-33.522303194606586 L-1.7159462468888045,-33.54357262631669 L-0.9813534865483606,-33.55734972323763 L-0.24543076571439248,-33.563615814222985 L0.49082457045825817,-33.56236240727312 L1.2264147260441902,-33.55359120104377 L1.9603428065912194,-33.53731408254397 L2.6916141701425196,-33.513553111026425 L3.4192377752060263,-33.482340488092134 L4.1422275238443795,-33.44371851404977 L4.859603598065292,-33.39773953058901 L5.570393787701082,-33.344465849845456 L6.273634807977839,-33.283969669953336 L6.96837360498869,-33.21633297720033 L7.312259956095479,-33.179865208590215 L7.6536686473018,-33.14164743491723 L7.992483996912943,-33.101692605754565 L8.328591201952754,-33.060014259253016 L8.661876377063052,-33.01662651755382 L8.992226593092132,-32.97154408200353 L9.319529915359311,-32.92478222817271 L9.643675441582445,-32.87635680067994 L9.96455333945563,-32.82628420782315 L10.282054883864431,-32.77458141601987 L10.596072493725892,-32.721265944058366 L10.906499768440929,-32.66635585716167 L11.213231523946725,-32.6098697608664 L11.51616382835691,-32.551826794718565 L11.815194037177491,-32.49224662578833 L12.110220828086522,-32.43114944200616 L12.401144235265797,-32.36855594532234 L12.687865683272912,-32.304487344692504 L12.97028802044224,-32.23896534889116 L13.24831555180343,-32.17201215915604 L13.521854071506315,-32.10365046166548 L13.790810894741337,-32.03390341985152 L14.055094889144506,-31.962794666551304 L14.314616505676376,-31.89034829599941 L14.569287808964509,-31.81658885566383 L14.819022507099188,-31.741541337928407 L15.06373598087226,-31.66523117162451 L15.303345312449188,-31.587684213414807 L15.537769313464661,-31.5089267390321 L15.766928552532129,-31.42898543437614 L15.990745382158096,-31.347887386471477 L16.209143965051894,-31.26566007428938 L16.42205029982209,-31.182331359436976 L16.629392246050905,-31.09792947671673 L16.831099548737967,-31.01248302455943 L17.027103862105307,-30.92602095533404 L17.21733877275535,-30.83857256553755 L17.40173982217423,-30.75016748586828 L17.58024452857266,-30.6608356711859 L17.752792408057072,-30.57060739036165 L17.9193249951237,-30.479513216022134 L18.079785862468864,-30.387584014190214 L18.234120640108593,-30.294850933826453 L18.382277033801152,-30.201345396274743 L18.524204842766228,-30.107099084615587 L18.65985597669478,-30.01214393293073 L18.7891844720438,-29.91651211548272 L18.91214650761043,-29.82023603581311 L19.028700419380172,-29.72334831576294 L19.138806714644176,-29.625881784419295 L19.242428085380826,-29.527869466991582 L19.33952942089704,-29.429344573621414 L19.430077819725035,-29.33034048812979 L19.51404260077057,-29.230890756705453 L19.59139531370881,-29.131029076538216 L19.662109748624324,-29.03078928440111 L19.726161944891974,-28.930205345185286 L19.78353019929562,-28.82931134039144 L19.83419507338199,-28.72814145658178 L19.87813940004712,-28.626729973796373 L19.915348289353197,-28.525111253937812 L19.945809133573803,-28.423319729128156 L19.969511611465894,-28.321389890042074 L19.98644769176699,-28.219356274220132 L19.99661163591647,-28.11725345436626 L20.0,-28.015116026633265 " />
			<path d="M20.0,-28.015116026633216 L19.99849403678289,-27.94702227172699 L19.993976373924085,-27.878938771489782 L19.98644769176699,-27.810875779046302 L19.97590912410345,-27.74284354443285 L19.962362258002983,-27.674852313053723 L19.945809133573803,-27.606912324138275 L19.92625224365556,-27.53903380919893 L19.90369453344394,-27.47122699049036 L19.87813940004712,-27.403502079470055 L19.8495906919742,-27.3358692752605 L19.8180527085556,-27.268338763113235 L19.78353019929562,-27.200920712874993 L19.74602836315717,-27.133625277456158 L19.705552847778826,-27.066462591301768 L19.662109748624324,-26.999442768865322 L19.61570560806461,-26.932575903085553 L19.566347414392553,-26.865872063866497 L19.514042600770573,-26.79934129656098 L19.458799044111203,-26.73299362045784 L19.400625063890878,-26.666839027273056 L19.33952942089704,-26.600887479645024 L19.275521315908797,-26.535148909634223 L19.208610388311314,-26.4696332172275 L19.138806714644176,-26.404350268847136 L19.066120807083877,-26.339309895865036 L18.990563611860733,-26.274521893122127 L18.912146507610426,-26.20999601745332 L18.830881303660416,-26.14574198621814 L18.65985597669478,-26.0180881203357 L18.477590650225736,-25.89163718939033 L18.284195114070613,-25.76646536269453 L18.079785862468867,-25.64264803907622 L17.864486023910306,-25.520259801461325 L17.638425286967102,-25.399374371947786 L17.40173982217423,-25.280064567398153 L17.154572200005443,-25.1624022555774 L16.897071304994142,-25.046458311862494 L16.629392246050905,-24.932302576549702 L16.351696263031673,-24.820003812785423 L16.0641506296129,-24.709629665145822 L15.766928552532127,-24.60124661889029 L15.46020906725474,-24.49491995991318 L15.144176930129692,-24.39071373541805 L14.819022507099183,-24.28869071533802 L14.48494165902934,-24.1889123545255 L14.142135623730951,-24.09143875573408 L13.79081089474134,-23.99632863341491 L13.431179096940367,-23.90363927834928 L13.063456859075535,-23.813426523138794 L12.68786568327291,-23.725744708573924 L12.304631811612536,-23.640646650901125 L11.91398608984867,-23.558183610008328 L11.516163828356907,-23.478405258547863 L11.111404660392045,-23.401359652015554 L10.699952397741942,-23.327093199803848 L10.282054883864433,-23.25565063724656 L9.857963844595682,-23.18707499867197 L9.427934736519957,-23.12140759148054 L8.992226593092136,-23.0586879712629 L8.551101868605643,-22.99895391797303 L8.104826280099797,-22.94224141317104 L7.653668647301797,-22.888584618349196 L7.197900730699765,-22.838015854354346 L6.737797067844401,-22.790565581919033 L6.273634807977827,-22.746262383313095 L5.805693545089246,-22.705132945126763 L5.334255149497968,-22.667202042195676 L4.85960359806528,-22.632492522677428 L4.3820248031374,-22.601025294288707 L3.9018064403225665,-22.572819311711257 L3.419237775206023,-22.547891565174297 L2.9346094891072347,-22.526257070220225 L2.4482135039843254,-22.507928858659845 L1.9603428065912154,-22.49291797072246 L1.4712912719933535,-22.481233448405668 L0.9813534865483625,-22.472882330028806 L0.4908245704582453,-22.46786964599331 L1.2246467991473533e-15,-22.466198415752608 L-0.49082457045824285,-22.46786964599331 L-0.9813534865483602,-22.472882330028806 L-1.471291271993351,-22.481233448405668 L-1.960342806591213,-22.49291797072246 L-2.448213503984323,-22.507928858659845 L-2.934609489107233,-22.526257070220225 L-3.4192377752060206,-22.547891565174297 L-3.901806440322564,-22.572819311711257 L-4.382024803137397,-22.601025294288704 L-4.859603598065277,-22.632492522677428 L-5.334255149497967,-22.667202042195676 L-5.805693545089243,-22.705132945126763 L-6.273634807977825,-22.746262383313095 L-6.737797067844399,-22.790565581919033 L-7.1979007306997635,-22.838015854354346 L-7.653668647301794,-22.888584618349196 L-8.104826280099799,-22.94224141317104 L-8.551101868605645,-22.998953917973033 L-8.992226593092134,-23.0586879712629 L-9.427934736519955,-23.121407591480537 L-9.85796384459568,-23.187074998671967 L-10.282054883864433,-23.25565063724656 L-10.69995239774194,-23.327093199803848 L-11.11140466039204,-23.40135965201555 L-11.5161638283569,-23.478405258547863 L-11.913986089848658,-23.558183610008324 L-12.304631811612527,-23.640646650901125 L-12.687865683272907,-23.72574470857392 L-13.063456859075536,-23.813426523138794 L-13.431179096940369,-23.90363927834928 L-13.79081089474134,-23.99632863341491 L-14.14213562373095,-24.09143875573408 L-14.484941659029335,-24.1889123545255 L-14.819022507099177,-24.28869071533802 L-15.144176930129687,-24.39071373541805 L-15.46020906725474,-24.49491995991318 L-15.766928552532129,-24.60124661889029 L-16.0641506296129,-24.709629665145826 L-16.351696263031677,-24.820003812785423 L-16.629392246050905,-24.932302576549702 L-16.897071304994142,-25.046458311862494 L-17.15457220000544,-25.1624022555774 L-17.40173982217423,-25.280064567398153 L-17.6384252869671,-25.399374371947786 L-17.864486023910302,-25.52025980146132 L-18.079785862468864,-25.642648039076217 L-18.28419511407061,-25.76646536269453 L-18.477590650225736,-25.89163718939033 L-18.65985597669478,-26.0180881203357 L-18.830881303660416,-26.14574198621814 L-18.912146507610426,-26.20999601745332 L-18.990563611860733,-26.274521893122127 L-19.066120807083877,-26.339309895865036 L-19.138806714644176,-26.404350268847136 L-19.208610388311314,-26.469633217227496 L-19.275521315908797,-26.535148909634223 L-19.33952942089704,-26.60088747964502 L-19.400625063890878,-26.666839027273056 L-19.458799044111203,-26.73299362045784 L-19.51404260077057,-26.79934129656098 L-19.566347414392553,-26.865872063866494 L-19.61570560806461,-26.93257590308555 L-19.662109748624324,-26.99944276886532 L-19.705552847778826,-27.066462591301768 L-19.746028363157166,-27.133625277456154 L-19.78353019929562,-27.20092071287499 L-19.818052708555598,-27.26833876311323 L-19.8495906919742,-27.335869275260496 L-19.87813940004712,-27.403502079470055 L-19.903694533443936,-27.47122699049036 L-19.92625224365556,-27.539033809198926 L-19.945809133573803,-27.606912324138275 L-19.962362258002983,-27.674852313053727 L-19.97590912410345,-27.74284354443285 L-19.98644769176699,-27.810875779046302 L-19.993976373924085,-27.878938771489782 L-19.99849403678289,-27.94702227172699 L-20.0,-28.01511602663319 " />
			<path d="M-20.0,-28.015116026633216 L-19.99849403678289,-28.08320978153944 L-19.993976373924085,-28.15129328177665 L-19.98644769176699,-28.21935627422013 L-19.97590912410345,-28.28738850883358 L-19.962362258002983,-28.355379740212705 L-19.945809133573803,-28.423319729128153 L-19.92625224365556,-28.4911982440675 L-19.90369453344394,-28.55900506277607 L-19.87813940004712,-28.626729973796376 L-19.8495906919742,-28.694362778005935 L-19.8180527085556,-28.7618932901532 L-19.78353019929562,-28.829311340391442 L-19.746028363157166,-28.896606775810277 L-19.705552847778826,-28.963769461964663 L-19.662109748624324,-29.03078928440111 L-19.61570560806461,-29.097656150180878 L-19.566347414392553,-29.164359989399934 L-19.514042600770573,-29.230890756705453 L-19.458799044111203,-29.29723843280859 L-19.400625063890878,-29.363393025993375 L-19.339529420897044,-29.429344573621407 L-19.275521315908797,-29.495083143632208 L-19.208610388311318,-29.56059883603893 L-19.13880671464418,-29.625881784419292 L-19.06612080708388,-29.690922157401396 L-18.990563611860736,-29.7557101601443 L-18.91214650761043,-29.82023603581311 L-18.83088130366042,-29.88449006704829 L-18.659855976694782,-30.012143932930726 L-18.477590650225736,-30.1385948638761 L-18.284195114070613,-30.263766690571902 L-18.079785862468864,-30.38758401419021 L-17.864486023910306,-30.50997225180511 L-17.638425286967102,-30.630857681318645 L-17.40173982217423,-30.75016748586828 L-17.154572200005443,-30.86782979768903 L-16.897071304994146,-30.983773741403937 L-16.62939224605091,-31.097929476716725 L-16.351696263031677,-31.210228240481005 L-16.064150629612904,-31.320602388120605 L-15.766928552532134,-31.42898543437614 L-15.460209067254741,-31.53531209335325 L-15.144176930129689,-31.63951831784838 L-14.819022507099183,-31.74154133792841 L-14.48494165902934,-31.841319698740932 L-14.142135623731015,-31.938793297532328 " />
			<path d="M25.0,-28.015116026633216 L24.998117545978612,-27.929998833000433 L24.992470467405106,-27.844894457703923 L24.98305961470874,-27.75981571714957 L24.96988640512931,-27.67477542388276 L24.95295282250373,-27.58978638465885 L24.932261416967254,-27.50486139851454 L24.90781530456945,-27.420013254840356 L24.879618166804924,-27.335254731454647 L24.8476742500589,-27.250598592679264 L24.81198836496775,-27.16605758741732 L24.7725658856945,-27.081644447233238 L24.729412749119525,-26.997371884435434 L24.68253545394646,-26.913252590161893 L24.63194105972353,-26.82929923246891 L24.577637185780407,-26.745524454423347 L24.519632010080763,-26.661940872198638 L24.45793426799069,-26.578561073174814 L24.392553250963214,-26.495397614042922 L24.323498805139003,-26.412463018913996 L24.2507813298636,-26.329769777433018 L24.174411776121303,-26.247330342897975 L24.094401644885995,-26.165157130384475 L24.010762985389146,-26.08326251487607 L23.92350839330522,-26.00165882940062 L23.832651008854846,-25.92035836317299 L23.738204514825917,-25.839373359744357 L23.64018313451303,-25.758716015158345 L23.53860162957552,-25.67839847611437 L23.433475297814375,-25.598432838138383 L23.324819970868475,-25.51883114376132 L23.21265201183039,-25.439605380705565 L23.09698831278217,-25.36076748007961 L22.977846292251446,-25.282329314581308 L22.855243892588266,-25.20430269670986 L22.72919957726306,-25.126699376986913 L22.599732328086084,-25.04953104218697 L22.466861642348846,-24.972809313577407 L22.33060752988788,-24.89654574516835 L22.190990510071348,-24.820751821972678 L22.048031608708875,-24.74543895827643 L21.752174777717787,-24.596301702589386 L21.4432152500068,-24.449223812813447 L21.121339131242678,-24.304293883169812 L20.78674030756363,-24.161599214028826 L20.439620328789594,-24.021225759323475 L20.080188287016124,-23.883258074773977 L19.70866069066516,-23.747779266954556 L19.325261334068426,-23.614870943233168 L18.930221162662114,-23.48461316261426 L18.52377813387398,-23.357084387514224 L18.106177073786675,-23.23236143649857 L17.67766952966369,-23.110519438009298 L17.238513618426673,-22.99163178511034 L16.788973871175457,-22.875770091278294 L16.32932107384442,-22.76300414726519 L15.859832104091137,-22.6534018790591 L15.38078976451567,-22.547029306968106 L14.892482612310836,-22.443950505852104 L14.395204785446133,-22.344227566526524 L13.889255825490057,-22.247920558361137 L13.374940497177429,-22.155087493096506 L12.852568604830541,-22.0657842898999 L12.322454805744602,-21.98006474168166 L11.784918420649944,-21.89798048269237 L11.240283241365171,-21.81958095742032 L10.688877335757056,-21.744913390807984 L10.131032850124747,-21.674022759805492 L9.567085809127246,-21.60695176627819 L8.997375913374707,-21.54374081128463 L8.422246334805502,-21.484427970740487 L7.842043509972283,-21.429048972483063 L7.257116931361558,-21.37763717475015 L6.667818936872461,-21.330223546086287 L6.074504497581599,-21.286836646688478 L5.47753100392175,-21.247502611202577 L4.877258050403208,-21.21224513298077 L4.274047219007528,-21.181085449809565 L3.668261861384044,-21.15404233111698 L3.060266879980407,-21.131132066666503 L2.4504285082390194,-21.112368456744772 L1.8391140899916918,-21.09776280384878 L1.2266918581854531,-21.087323905877703 L0.6135307130728066,-21.081058050833335 L1.5308084989341915e-15,-21.078969013032456 L-0.6135307130728036,-21.081058050833335 L-1.2266918581854502,-21.087323905877703 L-1.8391140899916887,-21.09776280384878 L-2.4504285082390163,-21.11236845674477 L-3.060266879980404,-21.131132066666503 L-3.6682618613840408,-21.15404233111698 L-4.274047219007525,-21.181085449809565 L-4.877258050403205,-21.21224513298077 L-5.477531003921746,-21.247502611202577 L-6.0745044975815965,-21.286836646688478 L-6.667818936872457,-21.330223546086287 L-7.257116931361554,-21.37763717475015 L-7.842043509972281,-21.429048972483063 L-8.422246334805498,-21.484427970740487 L-8.997375913374704,-21.54374081128463 L-9.567085809127244,-21.60695176627819 L-10.131032850124749,-21.674022759805492 L-10.688877335757056,-21.744913390807984 L-11.240283241365168,-21.81958095742032 L-11.784918420649943,-21.89798048269237 L-12.3224548057446,-21.98006474168166 L-12.852568604830541,-22.0657842898999 L-13.374940497177427,-22.155087493096506 L-13.889255825490048,-22.247920558361134 L-14.395204785446126,-22.344227566526524 L-14.892482612310824,-22.4439505058521 L-15.38078976451566,-22.547029306968103 L-15.859832104091135,-22.6534018790591 L-16.329321073844422,-22.76300414726519 L-16.78897387117546,-22.875770091278298 L-17.238513618426673,-22.99163178511034 L-17.677669529663685,-23.110519438009298 L-18.106177073786668,-23.232361436498568 L-18.52377813387397,-23.35708438751422 L-18.930221162662107,-23.48461316261426 L-19.325261334068426,-23.614870943233168 L-19.708660690665162,-23.74777926695456 L-20.080188287016128,-23.883258074773977 L-20.439620328789594,-24.021225759323475 L-20.786740307563633,-24.161599214028826 L-21.121339131242678,-24.304293883169812 L-21.4432152500068,-24.449223812813447 L-21.752174777717784,-24.596301702589386 L-22.048031608708875,-24.745438958276427 L-22.190990510071344,-24.820751821972674 L-22.33060752988788,-24.896545745168346 L-22.466861642348842,-24.972809313577407 L-22.599732328086077,-25.04953104218697 L-22.729199577263053,-25.12669937698691 L-22.855243892588263,-25.204302696709856 L-22.977846292251446,-25.282329314581308 L-23.09698831278217,-25.36076748007961 L-23.212652011830386,-25.43960538070556 L-23.324819970868475,-25.518831143761325 L-23.433475297814375,-25.598432838138383 L-23.53860162957552,-25.678398476114374 L-23.640183134513034,-25.758716015158345 L-23.738204514825917,-25.839373359744357 L-23.832651008854846,-25.92035836317299 L-23.92350839330522,-26.00165882940062 L-24.010762985389146,-26.08326251487607 L-24.094401644885995,-26.165157130384475 L-24.174411776121303,-26.247330342897975 L-24.2507813298636,-26.329769777433015 L-24.323498805139003,-26.412463018913996 L-24.39255325096321,-26.49539761404292 L-24.457934267990687,-26.578561073174814 L-24.519632010080763,-26.661940872198635 L-24.577637185780407,-26.745524454423343 L-24.63194105972353,-26.829299232468905 L-24.682535453946457,-26.91325259016189 L-24.729412749119522,-26.99737188443543 L-24.772565885694497,-27.081644447233234 L-24.81198836496775,-27.166057587417317 L-24.8476742500589,-27.250598592679264 L-24.87961816680492,-27.335254731454647 L-24.90781530456945,-27.420013254840356 L-24.932261416967254,-27.50486139851454 L-24.95295282250373,-27.589786384658854 L-24.96988640512931,-27.67477542388276 L-24.98305961470874,-27.75981571714957 L-24.992470467405106,-27.844894457703923 L-24.998117545978612,-27.929998833000433 L-25.0,-28.015116026633184 " />
			<path d="M-10.606601717798185,-16.546754965030928 L-10.276691509835151,-16.63552477964861 L-9.937134408674199,-16.721448851103283 L-9.588249161947905,-16.804446521107252 L-9.230363273766942,-16.884439878432232 L-8.863812697286757,-16.961353832045866 L-8.488941519343033,-17.03511618160087 L-8.106101637451925,-17.105657685210645 L-7.715652429478282,-17.17291212444772 L-7.31796041628195,-17.236816366504055 L-6.913398917658823,-17.297310423454796 L-6.50234770189965,-17.354337508569902 L-6.085192629295495,-17.407844089620742 L-5.66232528992461,-17.45777993913164 L-5.2341426360605965,-17.504098181529216 L-4.801046609546989,-17.546755337145225 L-4.363443764488115,-17.585711363031606 L-3.9217448856102957,-17.620929690549442 L-3.476364602651724,-17.6523772596965 L-3.027721001142944,-17.680024550141205 L-2.5762352299433364,-17.703845608933833 L-2.122331105902039,-17.723818074868948 L-1.6664347160143334,-17.739923199476223 L-1.208974017447,-17.75214586461994 L-0.7503784358081835,-17.760474596690607 L-0.2910784620387544,-17.76490157737543 L0.1684947516963596,-17.76542265099747 L0.6279097967375444,-17.76203732841666 L1.086735412900659,-17.754748787488964 L1.5445408933077653,-17.743563870083268 L2.0008964886985288,-17.72849307565881 L2.455373810842685,-17.709550551409183 L2.9075462346748213,-17.68675407898212 L3.3569892987741032,-17.660125057787596 L3.8032811038129353,-17.629688484909856 L4.246002708600545,-17.595472931642252 L4.684738523349737,-17.557510516666934 L5.119076699797567,-17.515836875904505 L5.548609517813867,-17.470491129062054 L5.972933768134614,-17.421515842910836 L6.39165113086082,-17.368956991328172 L6.804368549367745,-17.31286391214107 L7.210698599273386,-17.25328926081199 L7.610259852119878,-17.190288961010346 L8.002677233426436,-17.123922152116073 L8.387582374777713,-17.05425113370454 L8.764613959617074,-16.98134130706496 L9.133418062420175,-16.905261113807164 L9.493648480930457,-16.82608197161438 L9.844967061144683,-16.743878207202304 L10.187044014743469,-16.658726986547464 L10.519558228668824,-16.570708242450273 L10.842197566558042,-16.479904599500834 L11.154659161751065,-16.38640129651796 L11.456649701596206,-16.290286106534108 L11.747885702787396,-16.191649254401476 L12.028093777474455,-16.09058333209647 L12.297010889896585,-15.987183211802185 L12.554384603298235,-15.881545956850346 L12.799973316895453,-15.773770730606445 L13.033546492670405,-15.663958703383512 L13.254884871781025,-15.552212957471939 L13.463780680382797,-15.4386383903745 L13.660037824669352,-15.323341616337395 L13.753368857668073,-15.265081163492797 L13.843472074948776,-15.20643086626981 " />
			<path d="M13.843472074948828,-15.206430866269777 L13.981912684221456,-15.111070104743227 L14.11182109756706,-15.014789680564274 L14.233118040850531,-14.917648347028091 L14.345729494922354,-14.819705382783393 L14.449586740787394,-14.721020555658765 L14.544626401539348,-14.621654086190482 L14.630790481035293,-14.521666610874082 L14.708026399286727,-14.421119145162095 L14.77628702454551,-14.320073046230526 L14.807038370531023,-14.269382267654565 L14.835530702065117,-14.218589975536801 L14.861759672256328,-14.16770391893002 L14.885721279519652,-14.116731861192045 L14.907411868187037,-14.065681578801353 L14.926828129065113,-14.014560860170633 L14.943967099940041,-13.963377504458588 L14.958826166029452,-13.912139320380062 L14.97140306038136,-13.860854125014693 L14.981695864220024,-13.809529742614346 L14.989703007238667,-13.75817400340939 L14.995423267839064,-13.706794742414102 L14.99885577331791,-13.655399798231326 L14.999999999999957,-13.603997011856626 " />
			<path d="M14.999999999999957,-13.603997011856588 L14.998870527587124,-13.552926695676918 L14.99548228044302,-13.501864070499014 L14.9898357688252,-13.450816826166403 L14.981931843077543,-13.399792650206315 L14.971771693502195,-13.348799226671971 L14.95935685018031,-13.297844234985384 L14.944689182741628,-13.246935348780875 L14.927770900082912,-13.196080234749449 L14.908604550035298,-13.145286551484219 L14.887193018980607,-13.094561948327053 L14.863539531416658,-13.043914064216604 L14.837647649471673,-12.993350526537922 L14.779164635834077,-12.892506935358005 L14.711779206048414,-12.792091919195844 L14.635531950577887,-12.692165964302415 L14.550468797918118,-12.592789262336472 L14.456640986931557,-12.494021674107348 L14.35410503598309,-12.395922693517033 L14.24292270889551,-12.298551411723276 L14.123160977745272,-12.201966481545286 L13.994891982521045,-12.106226082133457 L13.85819298766926,-12.01138788392443 L13.71314633555292,-11.91750901390258 L13.559839396851611,-11.824646021188848 L13.398364517932691,-11.732854842977675 L13.228818965225289,-11.642190770842522 L13.051304866630634,-11.552708417430297 L12.865929150004046,-11.464461683564734 L12.672803478745571,-11.377503725778553 L12.472044184538143,-11.29188692429396 L12.26377219727372,-11.20766285147075 L12.04811297220964,-11.124882240741051 L11.82519641439906,-11.0435949560494 L11.595156800441021,-10.963849961816567 L11.358132697597236,-10.885695293445224 L11.114266880324355,-10.809178028385201 L10.863706244271974,-10.73434425777581 L10.606601717798183,-10.661239058682249 L10.343108171055976,-10.589906466942871 L10.073384322705246,-10.520389450643645 L9.797592644306624,-10.452729884235781 L9.515899262454655,-10.386968523312127 L9.228473858709377,-10.323144980057531 L8.935489567386476,-10.261297699387931 L8.637122871267655,-10.201463935792583 L8.33355349529401,-10.14367973089335 L8.024964298306434,-10.087979891734573 L7.711541162898303,-10.03439796981661 L7.393472883446741,-9.982966240885665 L7.070951052389947,-9.933715685492091 L6.744169944819083,-9.886675970328861 L6.413326401454214,-9.84187543036146 L6.078619710074831,-9.799341051759965 L5.740251485476331,-9.759098455643585 L5.398425548024809,-9.721171882647447 L5.053347800883286,-9.685584178320964 L4.705226105983357,-9.652356779366508 L4.354270158816923,-9.62150970072676 L4.000691362123465,-9.593061523528444 L3.6447026985489495,-9.567029383889757 L3.2865186023530404,-9.543428962598217 L2.9263548302419164,-9.522274475665132 L2.5644283314045095,-9.503578665762412 L2.20095711683042,-9.487352794546858 L1.836160127988239,-9.473606635876573 L1.4702571049434074,-9.462348469923533 L1.103468453995012,-9.453585078185942 L0.7360151149112698,-9.447321739403293 L0.3681184278436829,-9.44356222637667 L9.184850993605122e-16,-9.442308803696147 L-0.3681184278436811,-9.44356222637667 L-0.736015114911268,-9.447321739403293 L-1.1034684539950101,-9.453585078185942 L-1.4702571049434054,-9.462348469923533 L-1.8361601279882371,-9.473606635876573 L-2.2009571168304185,-9.487352794546858 L-2.564428331404508,-9.50357866576241 L-2.9263548302419147,-9.522274475665132 L-3.2865186023530386,-9.543428962598217 L-3.6447026985489477,-9.567029383889757 L-4.000691362123463,-9.593061523528444 L-4.35427015881692,-9.62150970072676 L-4.705226105983355,-9.652356779366508 L-5.053347800883285,-9.685584178320964 L-5.398425548024807,-9.721171882647447 L-5.74025148547633,-9.759098455643585 L-6.078619710074832,-9.799341051759967 L-6.413326401454215,-9.84187543036146 L-6.744169944819081,-9.886675970328861 L-7.070951052389946,-9.933715685492091 L-7.393472883446739,-9.982966240885665 L-7.711541162898303,-10.03439796981661 L-8.024964298306433,-10.087979891734573 L-8.333553495294005,-10.14367973089335 L-8.63712287126765,-10.201463935792583 L-8.935489567386469,-10.26129769938793 L-9.22847385870937,-10.32314498005753 L-9.515899262454653,-10.386968523312127 L-9.797592644306626,-10.452729884235781 L-10.073384322705248,-10.520389450643645 L-10.343108171055976,-10.589906466942871 L-10.606601717798181,-10.661239058682247 L-10.86370624427197,-10.734344257775808 L-11.114266880324351,-10.809178028385201 L-11.358132697597233,-10.885695293445222 L-11.595156800441021,-10.963849961816567 L-11.825196414399063,-11.043594956049402 L-12.048112972209642,-11.124882240741051 L-12.263772197273722,-11.20766285147075 L-12.472044184538145,-11.29188692429396 L-12.672803478745571,-11.377503725778553 L-12.865929150004044,-11.464461683564732 L-13.051304866630634,-11.552708417430296 L-13.228818965225287,-11.642190770842522 L-13.39836451793269,-11.732854842977673 L-13.559839396851608,-11.824646021188846 L-13.713146335552919,-11.917509013902578 L-13.85819298766926,-12.01138788392443 L-13.994891982521045,-12.106226082133457 L-14.123160977745272,-12.201966481545286 L-14.24292270889551,-12.298551411723277 L-14.35410503598309,-12.395922693517033 L-14.456640986931557,-12.494021674107348 L-14.550468797918118,-12.59278926233647 L-14.635531950577885,-12.692165964302413 L-14.711779206048414,-12.792091919195842 L-14.779164635834077,-12.892506935358004 L-14.837647649471672,-12.99335052653792 L-14.863539531416656,-13.043914064216601 L-14.887193018980607,-13.09456194832705 L-14.908604550035298,-13.145286551484219 L-14.92777090008291,-13.196080234749447 L-14.944689182741628,-13.246935348780873 L-14.95935685018031,-13.297844234985384 L-14.971771693502195,-13.348799226671971 L-14.981931843077543,-13.399792650206315 L-14.9898357688252,-13.450816826166403 L-14.99548228044302,-13.501864070499014 L-14.998870527587124,-13.552926695676918 L-14.999999999999957,-13.603997011856569 " />
			<path d="M-14.999999999999957,-13.603997011856588 L-14.99885577331791,-13.655399798231324 L-14.995423267839064,-13.7067947424141 L-14.989703007238667,-13.758174003409389 L-14.981695864220024,-13.809529742614343 L-14.971403060381363,-13.860854125014688 L-14.958826166029453,-13.912139320380057 L-14.943967099940043,-13.963377504458586 L-14.926828129065113,-14.014560860170631 L-14.907411868187038,-14.065681578801351 L-14.885721279519652,-14.116731861192049 L-14.861759672256328,-14.167703918930021 L-14.835530702065117,-14.218589975536801 L-14.807038370531025,-14.269382267654564 L-14.77628702454551,-14.320073046230524 L-14.708026399286727,-14.421119145162095 L-14.630790481035294,-14.52166661087408 L-14.544626401539352,-14.621654086190478 L-14.4495867407874,-14.721020555658761 L-14.345729494922356,-14.819705382783393 L-14.233118040850528,-14.917648347028093 L-14.111821097567057,-15.014789680564274 L-13.981912684221456,-15.111070104743225 L-13.843472074948854,-15.20643086626976 " />
			<path d="M-13.84347207494883,-15.206430866269775 L-13.6985375378861,-15.299599272822926 L-13.54545859957799,-15.391759567004394 L-13.38432627238931,-15.482856955343518 L-13.215236356789465,-15.572837276315319 L-13.038289384394718,-15.66164703254198 L-12.853590558197604,-15.749233422599467 L-12.661249690018987,-15.835544372410357 L-12.46138113521993,-15.920528566204254 L-12.254103724712287,-16.004135477027322 L-12.039540694308323,-16.086315396782858 L-11.817819611451432,-16.167019465785003 L-11.58907229937153,-16.24619970180805 L-11.353434758710163,-16.323809028614026 L-11.111047086661964,-16.39980130394168 L-10.862053393680519,-16.47413134694013 L-10.606601717798231,-16.546754965030914 " />
			<path d="M-10.606601717798215,2.668070388004709 L-10.209014966931798,2.561749698101593 L-9.797592644306656,2.4595612135582434 L-9.372892322135797,2.3616434233586996 L-8.935489567386497,2.268129028710391 L-8.485977161754192,2.1791447632033667 L-8.02496429830646,2.0948112210570335 L-7.553075755885771,2.015242693687143 L-7.070951052389968,1.9405470148145505 L-6.579243578077914,1.8708254143256338 L-6.078619710074843,1.8061723810824244 L-5.569757909277554,1.7466755348683942 L-5.053347800883299,1.6924155076434224 L-4.530089239788428,1.6434658342688762 L-4.000691362123478,1.5998928528509024 L-3.465871624210064,1.5617556148369829 L-2.9263548302419164,1.529105804987589 L-2.3828721500079095,1.5019876713314044 L-1.8361601279882394,1.4804379651990311 L-1.2869596851666034,1.4644858914164516 L-0.7360151149112705,1.4541530687257511 L-0.18407307428579436,1.4494535004867322 L0.36811842784369364,1.4503935556991294 L0.9198110445331428,1.4569719603711428 L1.4702571049434146,1.4691797992459916 L2.0187106276068896,1.487000527884149 L2.5644283314045198,1.5104099950848688 L3.1066706428832846,1.5393764756166446 L3.6447026985489694,1.573860713212217 L4.177795340775812,1.6138159737698787 L4.705226105983379,1.6591881086889675 L5.226280203741518,1.7099156282537233 L5.7402514854763504,1.7659297849660436 L6.246443401464566,1.827154666714209 L6.744169944819099,1.8935072996513203 L7.232756581186833,1.9648977606440146 L7.711541162898323,2.041229299139068 L8.179874826330696,2.12239846828272 L8.637122871267684,2.208295265115045 L9.08266562106489,2.298803279649353 L9.515899262454685,2.393799852634589 L9.936236663852572,2.4931562417869384 L10.343108171056002,2.5967377962653315 L10.735962379257282,2.7044041391544122 L11.114266880324392,2.8160093577076646 L11.297801985654194,2.8732419824355873 L11.477508984336891,2.931402201092864 L11.653326985098497,2.990470306879895 L11.825196414399096,3.050426285371864 L11.993059036618572,3.1112498213003628 L12.15685797378892,3.172920305436937 L12.316537724866569,3.2354168415762374 L12.472044184538179,3.298718253616424 L12.623324661553477,3.362803092734397 L12.77032789657898,3.427649644653441 L12.913004079566512,3.493235937000808 L13.05130486663067,3.55953974675276 L13.185183396429494,3.6265386077645436 L13.314594306042803,3.694209818382732 L13.439493746342773,3.762530449137368 L13.559839396851647,3.83147735051131 L13.675590480081445,3.9010271607841296 L13.786707775350864,3.9711563139479122 L13.893153632074672,4.041841047692279 L13.994891982521084,4.113057411455923 L14.09188835403285,4.18478127454193 L14.184109880707823,4.256988334294138 L14.271525314535129,4.329654124331764 L14.354105035983132,4.402754022839498 L14.43182106403562,4.476263260910282 L14.50464706567278,4.550156930937911 L14.572558364793775,4.624409995056628 L14.635531950577928,4.698997293624879 L14.693546485281608,4.773893553750309 L14.746582311468245,4.849073397853137 L14.79462145866898,4.924511352265006 L14.837647649471716,5.000181855860391 L14.875646305036494,5.076059268717636 L14.90860455003534,5.15211788080669 L14.936511217014898,5.228331920700612 L14.959356850180352,5.3046755643078525 L14.97713370859942,5.381122943622415 L14.989835768825241,5.45764815548887 L14.997458726937351,5.534225270379274 L15.0,5.61082834117902 " />
			<path d="M15.0,5.610828341179058 L14.998870527587167,5.661898657358728 L14.995482280443063,5.712961282536633 L14.989835768825243,5.764008526869244 L14.981931843077586,5.815032702829331 L14.971771693502237,5.866026126363677 L14.959356850180352,5.916981118050264 L14.94468918274167,5.967890004254773 L14.927770900082955,6.018745118286199 L14.90860455003534,6.069538801551428 L14.88719301898065,6.120263404708595 L14.8635395314167,6.1709112888190445 L14.837647649471716,6.221474826497726 L14.779164635834118,6.322318417677643 L14.711779206048456,6.422733433839805 L14.635531950577928,6.522659388733235 L14.55046879791816,6.6220360906991775 L14.456640986931598,6.720803678928302 L14.354105035983132,6.818902659518617 L14.24292270889555,6.916273941312373 L14.123160977745313,7.012858871490364 L13.994891982521084,7.108599270902194 L13.858192987669302,7.203437469111221 L13.71314633555296,7.297316339133072 L13.55983939685165,7.390179331846804 L13.39836451793273,7.481970510057977 L13.228818965225326,7.572634582193129 L13.051304866630671,7.662116935605355 L12.865929150004082,7.750363669470919 L12.672803478745607,7.837321627257099 L12.472044184538179,7.922938428741692 L12.263772197273756,8.007162501564903 L12.048112972209674,8.089943112294602 L11.825196414399095,8.171230396986253 L11.595156800441055,8.250975391219086 L11.358132697597268,8.329130059590431 L11.114266880324386,8.405647324650452 L10.863706244272006,8.480481095259846 L10.606601717798213,8.553586294353407 L10.343108171056004,8.624918886092784 L10.073384322705275,8.69443590239201 L9.79759264430665,8.762095468799874 L9.515899262454683,8.827856829723528 L9.228473858709402,8.891680372978124 L8.935489567386503,8.953527653647724 L8.63712287126768,9.013361417243072 L8.333553495294034,9.071145622142305 L8.024964298306458,9.126845461301084 L7.711541162898325,9.180427383219047 L7.393472883446761,9.231859112149992 L7.070951052389967,9.281109667543566 L6.744169944819102,9.328149382706796 L6.413326401454233,9.372949922674197 L6.078619710074848,9.415484301275692 L5.740251485476348,9.455726897392072 L5.398425548024824,9.49365347038821 L5.053347800883301,9.529241174714693 L4.70522610598337,9.562468573669149 L4.354270158816935,9.593315652308899 L4.000691362123476,9.621763829507213 L3.6447026985489597,9.6477959691459 L3.2865186023530497,9.67139639043744 L2.926354830241925,9.692550877370525 L2.564428331404517,9.711246687273247 L2.200957116830426,9.727472558488799 L1.8361601279882442,9.741218717159086 L1.4702571049434114,9.752476883112124 L1.1034684539950153,9.761240274849717 L0.7360151149112719,9.767503613632364 L0.368118427843684,9.771263126658987 L9.18485099360515e-16,9.772516549339512 L-0.36811842784368215,9.771263126658987 L-0.7360151149112701,9.767503613632364 L-1.1034684539950133,9.761240274849717 L-1.4702571049434097,9.752476883112124 L-1.8361601279882422,9.741218717159086 L-2.2009571168304247,9.727472558488799 L-2.5644283314045153,9.711246687273249 L-2.926354830241923,9.692550877370525 L-3.286518602353048,9.67139639043744 L-3.644702698548958,9.6477959691459 L-4.000691362123475,9.621763829507213 L-4.354270158816933,9.593315652308899 L-4.705226105983368,9.56246857366915 L-5.053347800883299,9.529241174714693 L-5.398425548024822,9.49365347038821 L-5.740251485476346,9.455726897392072 L-6.0786197100748485,9.41548430127569 L-6.413326401454234,9.372949922674195 L-6.744169944819101,9.328149382706796 L-7.070951052389965,9.281109667543566 L-7.393472883446759,9.231859112149992 L-7.711541162898325,9.180427383219047 L-8.024964298306456,9.126845461301084 L-8.33355349529403,9.071145622142305 L-8.637122871267675,9.013361417243074 L-8.935489567386494,8.953527653647726 L-9.228473858709396,8.891680372978126 L-9.515899262454681,8.827856829723528 L-9.797592644306652,8.762095468799874 L-10.073384322705277,8.694435902392009 L-10.343108171056004,8.624918886092784 L-10.606601717798211,8.553586294353408 L-10.863706244272002,8.480481095259846 L-11.114266880324383,8.405647324650454 L-11.358132697597265,8.329130059590431 L-11.595156800441055,8.250975391219086 L-11.825196414399096,8.171230396986251 L-12.048112972209676,8.0899431122946 L-12.263772197273758,8.007162501564903 L-12.47204418453818,7.922938428741692 L-12.672803478745607,7.837321627257099 L-12.86592915000408,7.75036366947092 L-13.05130486663067,7.662116935605356 L-13.228818965225324,7.57263458219313 L-13.398364517932729,7.4819705100579785 L-13.559839396851647,7.390179331846806 L-13.713146335552956,7.297316339133074 L-13.858192987669302,7.203437469111221 L-13.994891982521084,7.108599270902193 L-14.123160977745313,7.012858871490364 L-14.24292270889555,6.916273941312373 L-14.354105035983132,6.818902659518617 L-14.456640986931598,6.720803678928302 L-14.55046879791816,6.6220360906991775 L-14.635531950577928,6.522659388733236 L-14.711779206048456,6.422733433839806 L-14.779164635834118,6.322318417677645 L-14.837647649471714,6.221474826497728 L-14.863539531416698,6.170911288819046 L-14.88719301898065,6.120263404708598 L-14.90860455003534,6.069538801551429 L-14.927770900082953,6.0187451182861995 L-14.94468918274167,5.967890004254774 L-14.959356850180352,5.916981118050263 L-14.971771693502237,5.866026126363676 L-14.981931843077586,5.815032702829331 L-14.989835768825243,5.764008526869244 L-14.995482280443063,5.712961282536633 L-14.998870527587167,5.661898657358728 L-15.0,5.610828341179077 " />
			<path d="M-15.0,5.610828341179059 L-14.998870527587167,5.559758024999389 L-14.995482280443063,5.508695399821484 L-14.989835768825243,5.457648155488873 L-14.981931843077586,5.406623979528787 L-14.971771693502237,5.355630555994441 L-14.959356850180352,5.304675564307854 L-14.94468918274167,5.253766678103343 L-14.927770900082955,5.2029115640719175 L-14.90860455003534,5.152117880806688 L-14.88719301898065,5.101393277649519 L-14.8635395314167,5.050745393539071 L-14.837647649471714,5.000181855860389 L-14.779164635834118,4.899338264680472 L-14.711779206048456,4.798923248518311 L-14.635531950577928,4.698997293624881 L-14.55046879791816,4.599620591658939 L-14.4566409869316,4.500853003429815 L-14.354105035983133,4.4027540228395 L-14.242922708895552,4.305382741045744 L-14.123160977745314,4.208797810867753 L-13.994891982521086,4.113057411455924 L-13.858192987669304,4.018219213246896 L-13.713146335552958,3.924340343225043 L-13.559839396851649,3.831477350511311 L-13.39836451793273,3.739686172300139 L-13.228818965225326,3.649022100164987 L-13.051304866630671,3.5595397467527614 L-12.865929150004082,3.4712930128871977 L-12.672803478745609,3.384335055101018 L-12.472044184538182,3.298718253616425 L-12.26377219727376,3.2144941807932152 L-12.04811297220968,3.1317135700635164 L-11.8251964143991,3.050426285371865 L-11.595156800441057,2.9706812911390315 L-11.358132697597267,2.8925266227676847 L-11.114266880324386,2.816009357707663 L-10.863706244272006,2.741175587098271 L-10.606601717798261,2.6680703880047223 " />
			<path d="M14.360918041269608,-17.20587795930554 L19.147890721692807,-21.608975833961143 " />
			<path d="M-14.360918041269608,-17.20587795930554 L-19.147890721692807,-21.608975833961143 " />
			<path d="M19.999999999999996,-28.015116026633216 L19.999999999999996,-23.211409688374317 " />
			<path d="M-19.999999999999996,-28.015116026633216 L-19.999999999999996,-23.211409688374317 " />
			<path d="M14.999999999999996,-18.407703350115423 L14.999999999999996,-13.603997011856588 " />
			<path d="M-14.999999999999996,-18.407703350115423 L-14.999999999999996,-13.603997011856588 " />
			<path d="M-13.84347207494882,-15.206430866269756 L-13.475654602184157,-15.446396856900414 L-13.103678577555268,-15.679864642754538 L-12.727658791893205,-15.906762176282317 L-12.347711283923115,-16.127019437496685 L-11.963953304455007,-16.340568455581284 L-11.576503280200473,-16.54734332986609 L-11.185480777226479,-16.747280250164195 L-10.791006464057615,-16.94031751646345 L-10.393202074438086,-17.126395557966937 L-9.992190369765023,-17.305456951476366 L-9.58809510120459,-17.477446439112704 L-9.18104097150275,-17.64231094536864 L-8.771153596502279,-17.799999593487527 L-8.358559466378075,-17.95046372116382 L-7.943385906602601,-18.093656895560155 L-7.525761038653585,-18.229534927636365 L-7.105813740476067,-18.358055885786154 L-6.683673606710988,-18.479180108777015 " />
			<path d="M-6.683673606711182,-18.479180108776962 L-6.252278898147348,-18.594729049217502 L-5.818888932808636,-18.70255339784765 L-5.383642016147917,-18.802618745251955 L-4.946677046217147,-18.894893158104093 L-4.50813346934155,-18.97934718935758 L-4.068151235618858,-19.055953887643025 L-3.626870754257774,-19.124688805869027 L-3.184432848769913,-19.185530009023804 L-2.7409787120295492,-19.238458081175228 L-2.296649861215477,-19.28345613166689 L-1.8515880926493669,-19.32050980050839 L-1.4059354365450805,-19.34960726295788 L-0.9598341116832865,-19.370739233295712 L-0.5134264800259558,-19.383898967787694 L-0.06685500128512789,-19.38908226683719 L0.3797378125395028,-19.38628747632532 L0.826209442639688,-19.375515488138852 L1.272417408879904,-19.35676973988552 L1.7182193152662801,-19.330056213797054 L2.1634728953886873,-19.29538343482009 L2.608036057821464,-19.252762467895632 L3.051766931468298,-19.202206914427958 L3.494523910836813,-19.1437329079441 L3.9361657012283726,-19.07735910894521 L4.376551363828712,-19.003106698951548 L4.8155403606850005,-18.920999373742916 L5.252992599554979,-18.831063335796777 L5.6887684786138575,-18.733327285926382 L6.122728931004703,-18.62782241412162 L6.554735469218118,-18.514582389595535 L6.984650229287028,-18.393643350039664 L7.412336014782477,-18.265043890091544 L7.837656340596409,-18.128825049018303 L8.26047547649743,-17.985030297619925 L8.680658490445687,-17.833705524356706 L9.098071291653017,-17.674899020705077 L9.512580673374632,-17.508661465746602 L9.924054355418685,-17.335045909995063 L10.332361026360148,-17.154107758466683 L10.737370385445537,-16.965904752999055 L11.138953184175103,-16.770496953824264 L11.53698126754922,-16.567946720402194 L11.931327614965818,-16.358318691520097 L12.321866380755802,-16.141679764664737 L12.708472934343504,-15.918099074673751 L13.091023900019392,-15.687647971673023 L13.469397196312304,-15.450399998307091 L13.843472074948664,-15.206430866269859 " />
			<path d="M14.999999999999996,-13.603997011856588 L14.999999999999996,5.610828341179058 " />
			<path d="M-14.999999999999996,-13.603997011856588 L-14.999999999999996,5.610828341179058 " />

        </g>

        <!-- solid lines -->
        <g  stroke="rgb(0,0,0)" fill="none">
    			<path d="M-17.677669529663692,-32.91971261525713 L-17.34928652224135,-33.00915927201461 L-17.01502494488633,-33.09691376509566 L-16.674998057590948,-33.18294636008303 L-16.329321073844426,-33.26722790600124 L-15.978111121594399,-33.34972984519398 L-15.621487203559662,-33.43042422300048 L-15.259570156907735,-33.5092836972276 L-14.892482612310829,-33.58628154741433 L-14.520348952394105,-33.661391683885654 L-14.14329526959032,-33.734588656592706 L-13.761449323415107,-33.805847663736145 L-13.374940497177432,-33.87514456016992 L-12.983899754139754,-33.94245586558256 L-12.58845959314295,-34.00775877245307 L-12.188754003710908,-34.07103115377905 L-11.784918420649946,-34.13225157057406 L-11.3770896781586,-34.19139927913195 L-10.96540596346319,-34.24845423805559 L-10.550006769994988,-34.30339711504762 L-10.131032850124738,-34.356209293460935 L-9.708626167470644,-34.40687287860669 L-9.282929848795924,-34.45537070381766 L-8.85408813551224,-34.501686336264925 L-8.422246334805498,-34.54580408252594 L-7.987550770400406,-34.58770899390203 L-7.5501487329807135,-34.62738687148352 L-7.110188430281804,-34.664824270960885 L-6.667818936872464,-34.700008507180144 L-6.223190143643004,-34.732927658441064 L-5.776452707016774,-34.76357057053668 L-5.327757997902276,-34.7919268605327 L-4.877258050403195,-34.81798692028566 L-4.425105510303703,-34.84174191969854 L-3.971453583346516,-34.86318380971264 L-3.516455983321207,-34.88230532503496 L-3.060266879980399,-34.89909998659993 L-2.6030408468013766,-34.91356210376474 L-2.1449328086110055,-34.92568677623756 L-1.6860979890916057,-34.93546989573792 L-1.2266918581854507,-34.94290814738873 L-0.7668700794159121,-34.947999010839524 L-0.3067884571429906,-34.95074076112043 L0.15339711622887342,-34.95113246922661 L0.6135307130728227,-34.9491740024331 L1.0734564233735402,-34.94486602433976 L1.5330184075552378,-34.93820999464641 L1.9920609492857801,-34.92920816865825 L2.4504285082390243,-34.91786359652166 L2.9079657727976103,-34.90418012219072 L3.364517712678149,-34.88816238212473 L3.8199296314610844,-34.8698158037172 L4.274047219007533,-34.849146603456866 L4.726716603745162,-34.8261617848213 L5.177784404805474,-34.80086913590391 L5.627097783994835,-34.773277226774994 L6.074504497581615,-34.74339540657795 L6.51985294788191,-34.71123380036141 L6.962992234626353,-34.67680330564851 L7.4037722060906255,-34.64011558874442 L7.842043509972299,-34.601183080783365 L8.277657643996905,-34.560018973516506 L8.710467006235863,-34.516637214842106 L9.14032494511935,-34.47105250407946 L9.56708580912725,-34.42328028698824 L9.99060499614118,-34.373336750534904 L10.410739002440943,-34.321238817407966 L10.827345471328815,-34.267004140283966 L11.240283241365164,-34.21065109584611 L11.649412394199137,-34.15219877855758 L12.054594301978055,-34.09166699419162 L12.455691674319537,-34.029076253120635 L12.85256860483054,-33.964447763366536 L13.245090617157365,-33.89780342341465 L13.633124710551161,-33.82916581479378 L14.016539404933406,-33.7585581944247 L14.39520478544614,-33.686004486739904 L14.768992546471866,-33.61152927557711 L15.137776035108153,-33.53515779584939 L15.501430294082247,-33.456915924994625 L15.85983210409114,-33.37683017420733 L16.2128600255528,-33.294927679455654 L16.560394439754287,-33.21123619228675 L16.902317589382893,-33.12578407042354 L17.23851361842667,-33.038600268156095 L17.56886861143063,-32.94971432653083 L17.893270632095472,-32.85915636334096 L18.211609761205636,-32.766957062921485 L18.523778133873986,-32.673147665752204 L18.829669976090322,-32.57775995787233 L19.129181640561484,-32.480826260110206 L19.422211641830827,-32.38237941713182 L19.708660690665162,-32.28245278631187 L19.98843172769762,-32.18108022643104 L20.261429956314867,-32.078296086203416 L20.52756287477761,-31.974135192637917 L20.78674030756363,-31.868632839237605 L21.038874435922462,-31.761824774040985 L21.283879827631633,-31.653747187509246 L21.52167346594419,-31.54443670026363 L21.752174777717784,-31.433930350677045 L21.975305660715826,-31.322265582324075 L22.19099051007134,-31.20948023129376 L22.39915624390462,-31.095612513369367 L22.599732328086077,-30.980701011079464 L22.792650800135743,-30.864784660624764 L22.977846292251442,-30.747902738685127 L23.155256053457784,-30.63009484911118 L23.324819970868475,-30.51140090950511 L23.48648059005475,-30.3918611376951 L23.640183134513038,-30.271516038108082 L23.785875524225215,-30.150406388045372 L23.92350839330522,-30.028573223865816 L24.053035106726036,-29.906057827081177 L24.1744117761213,-29.78290171036846 L24.287597274656292,-29.65914660350393 L24.39255325096321,-29.534834439223513 L24.489244142136013,-29.410007339014463 L24.577637185780407,-29.284707598843084 L24.657702431114966,-29.1589776748233 L24.729412749119525,-29.032860168830993 L24.79274384172749,-28.90639781406892 L24.8476742500589,-28.779633460587164 L24.894185361691495,-28.65261006076396 L24.914278644763872,-28.589014665491906 L24.932261416967254,-28.525370654751892 L24.9481321549649,-28.461683419885105 L24.961889514332366,-28.397958355894286 L24.97353232967142,-28.334200860986694 L24.983059614708736,-28.270416336116863 L24.990470562379468,-28.206610184529048 L24.995764544895586,-28.142787811299524 L24.9989411137991,-28.078954622878715 L25.0,-28.01511602663328 " />
			<path d="M-25.0,-28.015116026633216 L-24.998117545978612,-28.100233220266 L-24.992470467405106,-28.185337595562505 L-24.98305961470874,-28.270416336116856 L-24.96988640512931,-28.355456629383667 L-24.95295282250373,-28.440445668607577 L-24.932261416967254,-28.52537065475189 L-24.90781530456945,-28.610218798426075 L-24.879618166804924,-28.694977321811784 L-24.8476742500589,-28.779633460587167 L-24.81198836496775,-28.864174465849114 L-24.7725658856945,-28.948587606033193 L-24.729412749119522,-29.032860168830997 L-24.682535453946457,-29.116979463104542 L-24.63194105972353,-29.200932820797526 L-24.577637185780407,-29.284707598843084 L-24.519632010080763,-29.368291181067793 L-24.45793426799069,-29.451670980091617 L-24.392553250963214,-29.53483443922351 L-24.323498805139003,-29.617769034352435 L-24.2507813298636,-29.700462275833413 L-24.174411776121303,-29.782901710368456 L-24.094401644886,-29.865074922881956 L-24.010762985389146,-29.946969538390363 L-23.923508393305223,-30.028573223865813 L-23.83265100885485,-30.10987369009344 L-23.73820451482592,-30.190858693522074 L-23.640183134513038,-30.271516038108082 L-23.538601629575524,-30.351833577152057 L-23.433475297814375,-30.431799215128045 L-23.324819970868475,-30.511400909505106 L-23.21265201183039,-30.590626672560866 L-23.09698831278217,-30.66946457318682 L-22.977846292251446,-30.747902738685124 L-22.855243892588266,-30.825929356556575 L-22.729199577263056,-30.90353267627952 L-22.59973232808608,-30.98070101107946 L-22.466861642348846,-31.057422739689024 L-22.33060752988788,-31.13368630809808 L-22.190990510071348,-31.209480231293753 L-22.048031608708875,-31.28479309499 L-21.752174777717787,-31.433930350677045 L-21.4432152500068,-31.581008240452984 L-21.12133913124268,-31.725938170096615 L-20.786740307563637,-31.868632839237605 L-20.439620328789598,-32.00900629394295 L-20.08018828701613,-32.146973978492454 L-19.708660690665166,-32.28245278631187 L-19.32526133406843,-32.41536111003326 L-18.93022116266211,-32.54561889065217 L-18.52377813387398,-32.67314766575221 L-18.106177073786675,-32.79787061676786 L-17.67766952966377,-32.91971261525711 " />
			<path d="M-17.677669529663692,0.7062317525551425 L-17.34928652224135,0.616785095797665 L-17.01502494488633,0.529030602716615 L-16.674998057590948,0.44299800772924236 L-16.329321073844426,0.35871646181103234 L-15.978111121594399,0.2762145226182966 L-15.621487203559662,0.19552014481179292 L-15.259570156907735,0.11666067058467178 L-14.892482612310829,0.039662820397945 L-14.520348952394105,-0.035447316073379476 L-14.14329526959032,-0.10864428878042887 L-13.761449323415107,-0.179903295923868 L-13.374940497177432,-0.2492001923576499 L-12.983899754139754,-0.316511497770283 L-12.58845959314295,-0.3818144046408012 L-12.188754003710908,-0.4450867859667813 L-11.784918420649946,-0.5063072027617883 L-11.3770896781586,-0.5654549113196774 L-10.96540596346319,-0.6225098702433165 L-10.550006769994988,-0.677452747235348 L-10.131032850124738,-0.7302649256486653 L-9.708626167470644,-0.7809285107944186 L-9.282929848795924,-0.8294263360053824 L-8.85408813551224,-0.8757419684526493 L-8.422246334805498,-0.9198597147136693 L-7.987550770400406,-0.9617646260897557 L-7.5501487329807135,-1.0014425036712469 L-7.110188430281804,-1.0388799031486098 L-6.667818936872464,-1.0740641393678692 L-6.223190143643004,-1.1069832906287926 L-5.776452707016774,-1.1376262027244026 L-5.327757997902276,-1.1659824927204205 L-4.877258050403195,-1.1920425524733913 L-4.425105510303703,-1.2157975518862667 L-3.971453583346516,-1.2372394419003658 L-3.516455983321207,-1.256360957222686 L-3.060266879980399,-1.273155618787655 L-2.6030408468013766,-1.287617735952467 L-2.1449328086110055,-1.2997424084252875 L-1.6860979890916057,-1.3095255279256417 L-1.2266918581854507,-1.3169637795764553 L-0.7668700794159121,-1.3220546430272542 L-0.3067884571429906,-1.3247963933081524 L0.15339711622887342,-1.3251881014143319 L0.6135307130728227,-1.3232296346208248 L1.0734564233735402,-1.3189216565274844 L1.5330184075552378,-1.3122656268341357 L1.9920609492857801,-1.3032638008459747 L2.4504285082390243,-1.2919192287093866 L2.9079657727976103,-1.27823575437845 L3.364517712678149,-1.2622180143124586 L3.8199296314610844,-1.2438714359049285 L4.274047219007533,-1.2232022356445924 L4.726716603745162,-1.2002174170090294 L5.177784404805474,-1.174924768091632 L5.627097783994835,-1.1473328589627192 L6.074504497581615,-1.1174510387656778 L6.51985294788191,-1.08528943254914 L6.962992234626353,-1.0508589378362414 L7.4037722060906255,-1.01417122093215 L7.842043509972299,-0.9752387129710938 L8.277657643996905,-0.9340746057042351 L8.710467006235863,-0.8906928470298343 L9.14032494511935,-0.8451081362671875 L9.56708580912725,-0.7973359191759668 L9.99060499614118,-0.747392382722631 L10.410739002440943,-0.6952944495956919 L10.827345471328815,-0.6410597724716913 L11.240283241365164,-0.5847067280338392 L11.649412394199137,-0.5262544107453095 L12.054594301978055,-0.4657226263793488 L12.455691674319537,-0.4031318853083645 L12.85256860483054,-0.3385033955542598 L13.245090617157365,-0.2718590556023779 L13.633124710551161,-0.20322144698150613 L14.016539404933406,-0.13261382661242838 L14.39520478544614,-0.0600601189276313 L14.768992546471866,0.014415092235158689 L15.137776035108153,0.09078657196288198 L15.501430294082247,0.16902844281764562 L15.85983210409114,0.24911419360494236 L16.2128600255528,0.3310166883566197 L16.560394439754287,0.41470817552552486 L16.902317589382893,0.5001602973887307 L17.23851361842667,0.5873440996561801 L17.56886861143063,0.6762300412814453 L17.893270632095472,0.766788004471314 L18.211609761205636,0.8589873048907899 L18.523778133873986,0.9527967020600681 L18.829669976090322,1.0481844099399398 L19.129181640561484,1.145118107702067 L19.422211641830827,1.2435649506804518 L19.708660690665162,1.343491581500401 L19.98843172769762,1.444864141381232 L20.261429956314867,1.547648281608856 L20.52756287477761,1.6518091751743564 L20.78674030756363,1.7573115285746672 L21.038874435922462,1.864119593771289 L21.283879827631633,1.9721971803030285 L21.52167346594419,2.081507667548641 L21.752174777717784,2.192014017135228 L21.975305660715826,2.3036787854881995 L22.19099051007134,2.4164641365185138 L22.39915624390462,2.5303318544429074 L22.599732328086077,2.6452433567328106 L22.792650800135743,2.76115970718751 L22.977846292251442,2.878041629127148 L23.155256053457784,2.9958495187010925 L23.324819970868475,3.1145434583071654 L23.48648059005475,3.2340832301171765 L23.640183134513038,3.3544283297041906 L23.785875524225215,3.4755379797669015 L23.92350839330522,3.597371143946458 L24.053035106726036,3.719886540731098 L24.1744117761213,3.8430426574438123 L24.287597274656292,3.9667977643083416 L24.39255325096321,4.091109928588761 L24.489244142136013,4.21593702879781 L24.577637185780407,4.341236768969189 L24.657702431114966,4.466966692988972 L24.729412749119525,4.5930841989812805 L24.79274384172749,4.719546553743353 L24.8476742500589,4.846310907225112 L24.894185361691495,4.973334307048314 L24.914278644763872,5.036929702320369 L24.932261416967254,5.100573713060382 L24.9481321549649,5.164260947927168 L24.961889514332366,5.227986011917987 L24.97353232967142,5.291743506825578 L24.983059614708736,5.35552803169541 L24.990470562379468,5.419334183283227 L24.995764544895586,5.483156556512752 L24.9989411137991,5.5469897449335575 L25.0,5.610828341178995 " />
			<path d="M-25.0,5.610828341179059 L-24.998117545978612,5.525711147546276 L-24.992470467405106,5.440606772249768 L-24.98305961470874,5.355528031695417 L-24.96988640512931,5.270487738428605 L-24.95295282250373,5.185498699204697 L-24.932261416967254,5.100573713060385 L-24.90781530456945,5.015725569386199 L-24.879618166804924,4.9309670460004895 L-24.8476742500589,4.846310907225108 L-24.81198836496775,4.761769901963159 L-24.7725658856945,4.6773567617790786 L-24.729412749119522,4.593084198981277 L-24.682535453946457,4.5089649047077325 L-24.63194105972353,4.425011547014749 L-24.577637185780407,4.341236768969189 L-24.519632010080763,4.257653186744479 L-24.45793426799069,4.174273387720658 L-24.392553250963214,4.091109928588763 L-24.323498805139003,4.008175333459841 L-24.2507813298636,3.9254820919788598 L-24.174411776121303,3.8430426574438177 L-24.094401644886,3.7608694449303193 L-24.010762985389146,3.6789748294219127 L-23.923508393305223,3.597371143946461 L-23.83265100885485,3.5160706777188344 L-23.73820451482592,3.435085674290201 L-23.640183134513038,3.35442832970419 L-23.538601629575524,3.2741107906602163 L-23.433475297814375,3.194145152684228 L-23.324819970868475,3.1145434583071676 L-23.21265201183039,3.0353176952514076 L-23.09698831278217,2.9564797946254537 L-22.977846292251446,2.8780416291271504 L-22.855243892588266,2.800015011255699 L-22.729199577263056,2.7224116915327534 L-22.59973232808608,2.6452433567328133 L-22.466861642348846,2.5685216281232512 L-22.33060752988788,2.4922580597141923 L-22.190990510071348,2.4164641365185187 L-22.048031608708875,2.341151272822272 L-21.752174777717787,2.19201401713523 L-21.4432152500068,2.04493612735929 L-21.12133913124268,1.900006197715657 L-20.786740307563637,1.7573115285746685 L-20.439620328789598,1.6169380738693198 L-20.08018828701613,1.4789703893198212 L-19.708660690665166,1.3434915815004018 L-19.32526133406843,1.210583257779013 L-18.93022116266211,1.0803254771601019 L-18.52377813387398,0.9527967020600645 L-18.106177073786675,0.8280737510444123 L-17.67766952966377,0.7062317525551647 " />
			<path d="M-24.999999999999993,5.610828341179058 L-24.999999999999993,-28.015116026633216 " />
			<path d="M24.999999999999993,5.610828341179058 L24.999999999999993,-28.015116026633216 " />
			<path d="M25.000000000000004,5.610828341179058 L24.996017343125082,6.057053600650211 L24.984070641424797,6.503136687153574 L24.964163701268227,6.948935473019446 L24.93630286525634,7.394307921159876 L24.90049701020115,7.8391121303234685 L24.85675754429743,8.283206380306892 L24.805098403487964,8.726449177108723 L24.745536047023318,9.168699298011205 L24.678089452217776,9.609815836575585 L24.6027801084029,10.049658247536664 L24.519632010080755,10.488086391582291 L24.428671649278982,10.924960580003503 L24.329928007110084,11.360141619201103 L24.22343254453768,11.793490855034479 L24.10921919235266,12.224870216998568 L23.987324340362424,12.654142262214839 L23.857786825796584,13.081170219222322 L23.72064792093298,13.505818031554725 L23.575951319947787,13.927950401089701 L23.423743124994033,14.347432831156564 L23.264071831512823,14.76413166938859 L23.09698831278215,15.177914150306353 L22.922545803707973,15.588648437618465 L22.740799883862937,15.996203666226274 L22.551808459778016,16.40044998391913 L22.355631746492758,16.801258592746933 L22.152332248370037,17.198501790056756 L21.941974739181358,17.592053009180542 L21.724626241469142,17.98178685976081 L21.500356005192476,18.367579167701614 L21.269235485663234,18.749307014731947 L21.031338320779486,19.126848777569066 L20.786740307563587,19.500084166669183 L20.535519378012243,19.86889426455323 L20.27775557426643,20.233161563695457 L20.013531023108957,20.592770003962805 L19.74292990979784,20.94760500959312 L19.46603845124382,21.29755352570043 L19.18294486854058,21.64250405429566 L18.893739358856394,21.982346689811262 L18.59851406669617,22.316973154118543 L18.297363054543062,22.646276831026412 L17.990382272889004,22.970152800250656 L17.67766952966361,23.288497870842825 L17.35932445907144,23.601210614068208 L17.035448489847195,23.908191395722277 L16.70614481293932,24.209342407875376 L16.371518348632037,24.504567700035594 L16.031675713116435,24.79377320971978 L15.686725184521205,25.07686679242302 L15.33677666841389,25.353758250977034 L14.981941662783573,25.62435936428815 L14.62233322251622,25.888583915445615 L14.25806592337399,26.146347719191425 L13.889255825489943,26.39756864874277 L13.516020436389823,26.642166661958665 L13.1384786735527,26.880063826842402 L12.756750826522364,27.111184346371648 L12.370958518581563,27.33545458264831 L11.981224668001293,27.552803080360526 L11.5876734488775,27.763160589549194 L11.190430251567676,27.966460087671912 L10.789621642739874,28.162636800957166 L10.385375325047015,28.351628225042088 L9.977820096439206,28.53337414488712 L9.567085809127093,28.70781665396129 L9.153303328209327,28.874900172691962 L8.736604489977303,29.034571466173166 L8.317122059910435,29.18677966112692 L7.894989690375458,29.33147626211211 L7.470341878043057,29.468615166975706 L7.043313921035571,29.59815268154155 L6.614041875819298,29.72004753353178 L6.182662513855209,29.834260885716787 L5.74931327802183,29.94075634828919 L5.314132238824231,30.039499990458086 L4.87725805040302,30.13046035125986 L4.438829906357391,30.213608449581997 L3.998987495396312,30.288917793396873 L3.557870956831932,30.356364388202408 L3.1156208359294473,30.415926744667047 L2.672378039127615,30.46758588547652 L2.228283789144192,30.511325351380226 L1.7834795799805994,30.547131206435417 L1.338107131840169,30.574992042447292 L0.8923083459742971,30.59489898260386 L0.4462252594709337,30.606845684304147 L-2.2026824808563106e-13,30.610828341179058 L-0.44622525947137426,30.60684568430414 L-0.892308345974735,30.594898982603844 L-1.3381071318406077,30.57499204244727 L-1.7834795799810381,30.547131206435385 L-2.22828378914463,30.511325351380187 L-2.672378039128052,30.467585885476467 L-3.1156208359298847,30.415926744666994 L-3.557870956832367,30.356364388202344 L-3.9989874953967446,30.2889177933968 L-4.438829906357823,30.21360844958192 L-4.87725805040345,30.130460351259774 L-5.314132238824662,30.039499990457994 L-5.749313278022259,29.94075634828909 L-6.182662513855635,29.83426088571668 L-6.614041875819723,29.720047533531663 L-7.043313921035992,29.59815268154142 L-7.470341878043477,29.46861516697558 L-7.894989690375875,29.331476262111966 L-8.31712205991085,29.186779661126774 L-8.736604489977712,29.03457146617301 L-9.153303328209738,28.874900172691802 L-9.5670858091275,28.707816653961125 L-9.977820096439608,28.533374144886945 L-10.385375325047416,28.351628225041903 L-10.789621642740272,28.162636800956975 L-11.19043025156807,27.966460087671713 L-11.587673448877892,27.76316058954899 L-11.981224668001676,27.552803080360313 L-12.370958518581945,27.33545458264809 L-12.756750826522744,27.11118434637142 L-13.138478673553077,26.880063826842175 L-13.516020436390193,26.642166661958424 L-13.889255825490306,26.39756864874252 L-14.258065923374353,26.146347719191173 L-14.622333222516577,25.88858391544536 L-14.981941662783925,25.624359364287884 L-15.336776668414235,25.353758250976764 L-15.686725184521546,25.07686679242274 L-16.03167571311677,24.793773209719497 L-16.37151834863237,24.504567700035306 L-16.706144812939648,24.20934240787508 L-17.035448489847518,23.908191395721975 L-17.359324459071754,23.601210614067906 L-17.677669529663923,23.288497870842516 L-17.990382272889303,22.97015280025034 L-18.297363054543364,22.64627683102609 L-18.59851406669646,22.316973154118216 L-18.89373935885668,21.982346689810928 L-19.182944868540865,21.642504054295323 L-19.466038451244096,21.29755352570009 L-19.742929909798114,20.94760500959277 L-20.01353102310922,20.592770003962453 L-20.27775557426669,20.2331615636951 L-20.535519378012495,19.86889426455287 L-20.786740307563832,19.500084166668813 L-21.031338320779724,19.126848777568696 L-21.26923548566346,18.749307014731574 L-21.500356005192703,18.367579167701237 L-21.724626241469362,17.981786859760426 L-21.941974739181568,17.592053009180155 L-22.15233224837024,17.198501790056365 L-22.355631746492953,16.80125859274654 L-22.551808459778204,16.400449983918733 L-22.74079988386311,15.996203666225885 L-22.92254580370814,15.588648437618073 L-23.096988312782315,15.177914150305956 L-23.26407183151298,14.764131669388188 L-23.423743124994182,14.347432831156162 L-23.57595131994793,13.927950401089298 L-23.720647920933114,13.505818031554318 L-23.857786825796712,13.081170219221914 L-23.987324340362544,12.654142262214428 L-24.109219192352775,12.224870216998156 L-24.223432544537783,11.793490855034063 L-24.329928007110183,11.360141619200686 L-24.428671649279075,10.924960580003084 L-24.519632010080844,10.48808639158187 L-24.60278010840298,10.049658247536241 L-24.678089452217847,9.609815836575162 L-24.74553604702338,9.168699298010782 L-24.805098403488017,8.7264491771083 L-24.85675754429748,8.283206380306467 L-24.900497010201185,7.839112130323043 L-24.936302865256373,7.394307921159449 L-24.964163701268248,6.948935473019017 L-24.98407064142481,6.5031366871531455 L-24.996017343125093,6.057053600649783 L-25.0,5.610828341178628 " />

        </g>
        </g>
    </svg>
    