<?xml version="1.0" encoding="UTF-8" standalone="no"?>
    <svg
    xmlns:svg="http://www.w3.org/2000/svg"
    xmlns="http://www.w3.org/2000/svg"
    width="399"
    height="218"
    >
        <g transform="scale(4, -4)   translate(49.92640697119284,-26.61371386368608)" stroke-width="0.25"  fill="none">
        <!-- hidden lines -->
        <g  stroke="rgb(160,160,160)" fill="none" stroke-dasharray="0.25,0.25" >
    			<path d="M-47.42640687119284,-0.7856155882792365 L-47.41854094628192,-0.8336115371256959 L-47.39496792065905,-0.8714914976643819 L-47.35576196378402,-0.8991362855252087 L-47.30104643210196,-0.9164589199779742 L-47.230993480918336,-0.9234048976059346 L-47.14582352273467,-0.9199523637937106 L-47.045804533749276,-0.9061121814899897 L-46.931251210704936,-0.8819278970286684 L-46.80252398073661,-0.847475603115992 L-46.66002786733426,-0.8028636994147251 L-46.50421121598914,-0.7482325514787286 L-46.33556428353299,-0.6837540491109909 L-46.154617695608664,-0.6096310655347048 L-45.96194077712559,-0.5260968190790747 " />
			<path d="M-47.42640687119284,-7.472290076394888 L-47.42490096467386,-7.417752616978353 L-47.4203841522187,-7.363248008888084 L-47.412859154586286,-7.308809083661935 L-47.402330504553824,-7.254468633272861 L-47.388804544186385,-7.200259390376255 L-47.372289421016745,-7.146214008593024 L-47.35279508313754,-7.092365042840267 L-47.33033327320899,-7.038744929721412 L-47.304917521385484,-6.985385967987615 L-47.27656313716556,-6.932320299082206 L-47.24528720017004,-6.8795798877798795 L-47.21110854985388,-6.827196502932313 L-47.17404777415802,-6.775201698331799 L-47.134127197107944,-6.723626793704415 L-47.091370865366535,-6.672502855844202 L-47.045804533749276,-6.621860679899678 L-46.99745564971049,-6.571730770823999 L-46.946353336810056,-6.522143324999915 L-46.892528377170414,-6.473128212050596 L-46.836013192934615,-6.424714956847289 L-46.776841826736394,-6.376932721724641 L-46.7150499211942,-6.329810288914397 L-46.650674697441374,-6.28337604320806 L-46.58375493270557,-6.237657954858955 L-46.44244452859606,-6.1484799577252955 L-46.29145913800652,-6.062491135119584 L-46.13116249796764,-5.979898641647207 L-45.961940777125584,-5.900901449859189 " />
			<path d="M-45.96194077712558,-5.900901449859187 L3.5355339059327515,16.098539321640622 " />
			<path d="M47.42640687119285,-1.1867355702520845 L47.424900964673874,-1.1321981108355497 L47.420384152218716,-1.0776935027452805 L47.4128591545863,-1.0232545775191317 L47.40233050455384,-0.9689141271300574 L47.3888045441864,-0.9147048842334515 L47.37228942101676,-0.8606595024502205 L47.35279508313756,-0.8068105366974639 L47.33033327320901,-0.7531904235786087 L47.3049175213855,-0.699831461844812 L47.276563137165574,-0.6467657929394031 L47.245287200170054,-0.5940253816370764 L47.2111085498539,-0.5416419967895103 L47.17404777415803,-0.48964719218899544 L47.13412719710796,-0.43807228756161254 L47.09137086536655,-0.386948349701399 L47.04580453374929,-0.3363061737568749 L46.9974556497105,-0.28617626468119617 L46.94635333681007,-0.23658881885711192 L46.89252837717043,-0.18757370590779276 L46.83601319293463,-0.1391604507044859 L46.77684182673641,-0.09137821558183767 L46.715049921194215,-0.044255782771593255 L46.65067469744139,0.0021784629347434414 L46.58375493270558,0.047896551283848066 L46.44244452859608,0.13707454841750732 L46.29145913800654,0.22306337102321971 L46.13116249796765,0.3056558644955969 L45.9619407771256,0.3846530562836139 " />
			<path d="M3.535533905932743,16.09853932164062 L3.7132730376303886,16.173750900589923 L3.8991013910472527,16.244995675419073 L4.092571289403313,16.312102011225196 L4.293216646767469,16.374908242967514 L4.500554090899372,16.433263064932586 L4.714084127735491,16.487025895243015 L4.93329234471407,16.53606721453152 L5.157650650040032,16.58026887796442 L5.386618544904381,16.619524399862897 L5.61964442559317,16.653739210236324 L5.856166912349161,16.682830882609643 L6.095616201784839,16.706729332595977 L6.337415439588672,16.725376986736055 L6.580982110217677,16.738728921197712 L6.825729440228391,16.746752970001335 L7.071067811865481,16.749429802510537 L7.316406183502571,16.746752970001335 L7.561153513513284,16.738728921197712 L7.804720184142289,16.725376986736055 L8.046519421946122,16.706729332595977 L8.2859687113818,16.682830882609643 L8.522491198137793,16.653739210236324 L8.75551707882658,16.619524399862897 L8.984484973690929,16.58026887796442 L9.208843279016893,16.53606721453152 L9.428051495995469,16.487025895243015 L9.641581532831589,16.433263064932586 L9.84891897696349,16.374908242967514 L10.049564334327645,16.312102011225196 L10.243034232683707,16.244995675419073 L10.428862586100573,16.173750900589923 L10.606601717798203,16.098539321640626 " />
			<path d="M45.96194077712559,0.38465305628361607 L10.606601717798217,16.098539321640622 " />
			<path d="M-45.96194077712558,-0.5260968190790661 L3.5355339059327515,21.473343952420745 " />
			<path d="M7.0710678118654835,23.436104290626208 L7.0710678118654835,24.11371386368608 " />
			<path d="M3.5355339059327435,21.47334395242074 L3.739334922105457,21.566026632111686 L3.9536188025718086,21.66756613103835 L4.177711330966447,21.7776429683711 L4.410907429288796,21.895910801655187 L4.652473376339283,22.02199751653222 L4.901649116277689,22.155506397549598 L5.157650650040031,22.296017376374113 L5.41967250208964,22.443088353482324 L5.686890254741228,22.596256589169233 L5.958463142083909,22.755040159498577 L6.233536695341797,22.91893947261384 L6.511245431348939,23.08743884063905 L6.79071557567952,23.26000810222364 L7.071067811865459,23.436104290626176 " />
			<path d="M47.42640687119285,5.499938917863565 L47.41854094628194,5.4519429690171055 L47.39496792065906,5.4140630084784185 L47.35576196378403,5.386418220617593 L47.30104643210197,5.369095586164827 L47.23099348091834,5.362149608536866 L47.145823522734695,5.365602142349092 L47.04580453374928,5.379442324652812 L46.93125121070495,5.403626609114134 L46.802523980736616,5.438078903026813 L46.660027867334264,5.482690806728078 L46.50421121598915,5.537321954664074 L46.335564283533,5.601800457031814 L46.15461769560867,5.6759234406080985 L45.961940777125605,5.759457687063727 " />
			<path d="M7.071067811865477,23.436104290626194 L7.351420048051436,23.260008102223644 L7.6308901923820125,23.08743884063905 L7.908598928389155,22.91893947261384 L8.183672481647047,22.75504015949858 L8.45524536898972,22.596256589169233 L8.722463121641308,22.443088353482324 L8.984484973690922,22.296017376374113 L9.240486507453266,22.1555063975496 L9.489662247391673,22.021997516532224 L9.731228194442158,21.89591080165519 L9.964424292764505,21.777642968371104 L10.18851682115914,21.66756613103835 L10.402800701625495,21.56602663211169 L10.606601717798203,21.47334395242075 " />
			<path d="M45.96194077712559,5.759457687063737 L10.606601717798217,21.47334395242074 " />

        </g>

        <!-- solid lines -->
        <g  stroke="rgb(0,0,0)" fill="none">
    			<path d="M-10.606601717798208,-19.38276033750747 L-45.961940777125584,-3.6688740721504645 " />
			<path d="M-10.606601717798208,-24.75756496828759 L-45.961940777125584,-9.043678702930583 " />
			<path d="M-7.0710678118654675,-18.721780961041876 L-7.0710678118654675,-14.856724074399308 " />
			<path d="M-10.606601717798208,-19.38276033750747 L-10.402800701625488,-19.46135041398623 L-10.188516821159133,-19.52065644381979 L-9.964424292764498,-19.560491828297177 L-9.731228194442151,-19.580731230561156 L-9.489662247391669,-19.581310969964342 L-9.240486507453255,-19.56222922243209 L-8.98448497369092,-19.523546026201707 L-8.722463121641304,-19.465383092919932 L-8.455245368989718,-19.387923424693085 L-8.18367248164704,-19.291410738294726 L-7.908598928389148,-19.17614869834252 L-7.63089019238201,-19.042499961857 L-7.351420048051425,-18.890885037208424 L-7.071067811865492,-18.72178096104187 " />
			<path d="M-7.07106781186547,-14.856724074399303 L-43.84062043356594,1.4857176415719824 " />
			<path d="M-47.42640687119284,-0.7856155882792291 L-43.84062043356594,1.4857176415719853 " />
			<path d="M-45.96194077712558,-3.6688740721504685 L-46.15461769560867,-3.5712472224826417 L-46.33556428353299,-3.454890769813254 L-46.504211215989145,-3.3201708145901527 L-46.66002786733426,-3.1675112356340427 L-46.80252398073661,-2.9973923564589326 L-46.931251210704936,-2.8103494339966253 L-47.045804533749276,-2.606970974480409 L-47.14582352273468,-2.387896881786698 L-47.230993480918336,-2.153816444060721 L-47.301046432101955,-1.9054661649609805 L-47.35576196378402,-1.6436274463462779 L-47.394967920659056,-1.3691241296963768 L-47.41854094628192,-1.0828199040018942 L-47.42640687119284,-0.7856155882792492 " />
			<path d="M-7.07106781186547,-18.72178096104186 L-6.790715575679509,-18.890885037208427 L-6.511245431348929,-19.042499961857 L-6.233536695341787,-19.176148698342523 L-5.9584631420838985,-19.29141073829473 L-5.6868902547412175,-19.38792342469308 L-5.41967250208963,-19.46538309291993 L-5.15765065004002,-19.523546026201704 L-4.901649116277678,-19.56222922243209 L-4.652473376339272,-19.58131096996434 L-4.410907429288786,-19.580731230561153 L-4.177711330966436,-19.560491828297177 L-3.953618802571798,-19.52065644381979 L-3.739334922105446,-19.46135041398623 L-3.535533905932749,-19.382760337507477 " />
			<path d="M-10.60660171779821,-24.75756496828759 L-10.428862586100562,-24.832776547236897 L-10.243034232683696,-24.904021322066043 L-10.049564334327636,-24.971127657872167 L-9.848918976963482,-25.033933889614485 L-9.64158153283158,-25.092288711579556 L-9.42805149599546,-25.146051541889985 L-9.208843279016882,-25.195092861178487 L-8.984484973690922,-25.23929452461139 L-8.755517078826575,-25.278550046509867 L-8.522491198137786,-25.312764856883295 L-8.285968711381795,-25.341856529256614 L-8.046519421946114,-25.365754979242947 L-7.804720184142277,-25.384402633383026 L-7.561153513513273,-25.397754567844682 L-7.3164061835025604,-25.405778616648306 L-7.071067811865471,-25.408455449157508 L-6.825729440228382,-25.405778616648306 L-6.580982110217669,-25.397754567844682 L-6.337415439588665,-25.384402633383026 L-6.0956162017848285,-25.365754979242947 L-5.856166912349147,-25.341856529256614 L-5.6196444255931555,-25.312764856883295 L-5.386618544904368,-25.278550046509867 L-5.15765065004002,-25.23929452461139 L-4.93329234471406,-25.19509286117849 L-4.714084127735482,-25.146051541889985 L-4.500554090899363,-25.092288711579556 L-4.293216646767461,-25.033933889614485 L-4.092571289403306,-24.971127657872167 L-3.899101391047246,-24.904021322066043 L-3.713273037630382,-24.832776547236897 L-3.5355339059327653,-24.757564968287603 " />
			<path d="M-45.96194077712558,-9.043678702930588 L-46.13116249796764,-8.964681511142569 L-46.29145913800652,-8.882089017670191 L-46.44244452859606,-8.79610019506448 L-46.58375493270557,-8.70692219793082 L-46.650674697441374,-8.661204109581716 L-46.7150499211942,-8.61476986387538 L-46.776841826736394,-8.567647431065135 L-46.836013192934615,-8.519865195942486 L-46.892528377170414,-8.47145194073918 L-46.946353336810056,-8.422436827789861 L-46.99745564971049,-8.372849381965777 L-47.04580453374927,-8.3227194728901 L-47.09137086536653,-8.272077296945575 L-47.134127197107944,-8.220953359085362 L-47.17404777415802,-8.169378454457979 L-47.21110854985388,-8.117383649857464 L-47.24528720017004,-8.065000265009898 L-47.27656313716556,-8.012259853707572 L-47.304917521385484,-7.959194184802161 L-47.33033327320899,-7.905835223068365 L-47.35279508313754,-7.85221510994951 L-47.372289421016745,-7.798366144196751 L-47.388804544186385,-7.744320762413521 L-47.402330504553824,-7.690111519516915 L-47.412859154586286,-7.63577106912784 L-47.4203841522187,-7.581332143901692 L-47.42490096467386,-7.526827535811423 L-47.42640687119284,-7.472290076394908 " />
			<path d="M-3.5355339059327324,-24.75756496828759 L45.9619407771256,-2.7581241967877794 " />
			<path d="M45.96194077712559,-2.758124196787785 L46.13116249796765,-2.6791270049997653 L46.29145913800654,-2.5965345115273886 L46.44244452859608,-2.5105456889216766 L46.58375493270558,-2.421367691788017 L46.65067469744139,-2.375649603438913 L46.715049921194215,-2.3292153577325765 L46.77684182673641,-2.282092924922332 L46.83601319293463,-2.234310689799684 L46.89252837717043,-2.1858974345963773 L46.94635333681007,-2.1368823216470583 L46.9974556497105,-2.087294875822974 L47.04580453374928,-2.0371649667472957 L47.09137086536654,-1.9865227908027716 L47.13412719710796,-1.9353988529425585 L47.17404777415803,-1.8838239483151757 L47.2111085498539,-1.831829143714661 L47.245287200170054,-1.7794457588670949 L47.276563137165574,-1.726705347564769 L47.3049175213855,-1.6736396786593577 L47.33033327320901,-1.6202807169255615 L47.35279508313756,-1.5666606038067066 L47.37228942101676,-1.512811638053948 L47.3888045441864,-1.4587662562707173 L47.40233050455384,-1.4045570133741114 L47.4128591545863,-1.3502165629850373 L47.420384152218716,-1.2957776377588888 L47.424900964673874,-1.2412730296686196 L47.42640687119285,-1.1867355702521047 " />
			<path d="M-7.071067811865468,-14.856724074399306 L43.84062043356595,7.771272147714782 " />
			<path d="M-3.5355339059327324,-19.38276033750747 L45.9619407771256,2.6166804339923395 " />
			<path d="M47.42640687119287,5.499938917863569 L43.84062043356595,7.771272147714791 " />
			<path d="M45.96194077712559,2.6166804339923337 L46.15461769560868,2.7143072836601583 L46.335564283533,2.8306637363295457 L46.50421121598915,2.965383691552648 L46.66002786733427,3.118043270508758 L46.80252398073662,3.2881621496838696 L46.93125121070495,3.475205072146175 L47.04580453374929,3.6785835316623943 L47.14582352273469,3.897657624356102 L47.23099348091835,4.13173806208208 L47.30104643210198,4.380088341181821 L47.35576196378403,4.641927059796522 L47.39496792065906,4.916430376446424 L47.41854094628194,5.2027346021409056 L47.42640687119285,5.4999389178635525 " />
			<path d="M-43.84062043356593,1.4857176415719817 L7.071067811865491,24.113713863686073 " />
			<path d="M43.840620433565945,7.7712721477147815 L7.071067811865477,24.11371386368607 " />
			<path d="M-10.606601717798208,-24.75756496828759 L-10.606601717798208,-19.38276033750747 " />
			<path d="M-45.96194077712558,-9.043678702930588 L-45.96194077712558,-3.6688740721504676 " />
			<path d="M-3.535533905932733,-24.75756496828759 L-3.535533905932733,-19.38276033750747 " />
			<path d="M45.96194077712559,-2.758124196787785 L45.96194077712559,2.6166804339923355 " />
			<path d="M-47.42640687119284,-7.472290076394886 L-47.42640687119284,-0.7856155882792368 " />
			<path d="M47.42640687119285,-1.186735570252085 L47.42640687119285,5.49993891786356 " />

        </g>
        </g>
    </svg>
    