<?xml version="1.0" encoding="UTF-8" standalone="no"?>
    <svg
    xmlns:svg="http://www.w3.org/2000/svg"
    xmlns="http://www.w3.org/2000/svg"
    width="472"
    height="292"
    >
        <g transform="scale(4, -4)   translate(59.068542491094206,-38.00666612501349)" stroke-width="0.25"  fill="none">
        <!-- hidden lines -->
        <g  stroke="rgb(160,160,160)" fill="none" stroke-dasharray="0.25,0.25" >
    			<path d="M-14.078211748195756,18.084542044472276 L5.361449950669339e-09,23.986251297305262 " />
			<path d="M15.02980100441659,17.685627525855196 L5.361435739814624e-09,23.986251297305262 " />
			<path d="M22.36252658824528,1.618199293347468 L22.27389805974397,1.802584250978657 L22.176954371421058,1.9862505450154075 L22.071741747356004,2.169132998724745 L21.95830880474279,2.351166980070887 L21.83670655388989,2.532288401715246 L21.706988398220304,2.712433721016426 L21.569210134271533,2.891539940030225 L21.423429951479257,3.0695446055941877 L21.269708265217034,3.2463858741680873 L21.108107754216554,3.4220024859744336 L20.93869339219224,3.5963337370178956 L20.761532320790636,3.769319526859408 L20.576693849590434,3.94090035861617 L20.384249456102463,4.111017338961649 L20.18427278576969,4.279612178125577 L19.976839651793764,4.446627189960313 L19.762027886403963,4.612005347412903 L19.53991738338143,4.775690255503338 L19.310590132419982,4.937626130820481 L19.074130103389066,5.0977578455048285 L18.830623246333726,5.256030927248508 L18.580157491474633,5.412391559295283 L18.32282274920807,5.566786580440547 L18.058710910096373,5.719163485035146 L17.787915716186127,5.869470471983587 L17.510532793009773,6.017656421223009 L17.22665970259872,6.163670873719811 L16.936395830091527,6.307464078327556 L16.639842383733907,6.4489869917869775 L16.337102394878713,6.588191278725973 L16.02828071798597,6.725029311659606 L15.713484030622862,6.859454170990095 " />
			<path d="M15.713484030622833,6.859454170990102 L15.392461033820235,6.991565002552866 L15.065668858627395,7.121165435788871 L14.73321980625426,7.248210602253797 L14.395227873795818,7.372656401295965 L14.051808754232114,7.494459500056335 L13.703079836428238,7.613577333468507 L13.349160205134334,7.729968104258724 L12.990170640985593,7.843590782945863 L12.626233513153213,7.954405153517678 L12.257472813720899,8.062371796853471 L11.88401422802774,8.167452071102591 L11.505985011788818,8.269608168457836 L11.123513990980014,8.368803115206093 L10.736731561838015,8.465000771728347 L10.34576969086031,8.558165832499682 L9.950761914805197,8.648263826089279 L9.551843238667505,8.735261162332737 L9.149150176631485,8.819125121477967 L8.742820824738875,8.899823832762564 L8.33299472497812,8.97732633849336 L7.919812864981674,9.05160259418546 L7.503417678026008,9.12262346856226 L7.083953043031599,9.190360743555438 L6.661564284562941,9.25478711430495 L6.236398060647683,9.315876241683668 L5.808602424955648,9.373602741098018 L5.378326891339883,9.427942165482666 L4.945722278789397,9.478871075536057 L4.5109407111725215,9.526367039835975 L4.074135617236907,9.570408634839533 L3.6354617306095287,9.610975444883175 L3.1950750897967106,9.648048062182683 " />
			<path d="M3.195075089796685,9.648048062182685 L2.661040898431107,9.664047045622597 L2.126188525072808,9.674804726397783 L1.5908136194857805,9.680326755039916 L1.0552098107642292,9.680621368772064 L0.5196686989135624,9.675699356088039 L-0.015520153568617356,9.665574021331762 L-0.5500692301115171,9.650261149276625 L-1.0836930684901622,9.629778969704851 L-1.6161082692444042,9.604148121986853 L-2.14703350409793,9.573391619660597 L-2.676189524377264,9.537534815010966 L-3.20329967495773,9.496605337057531 L-3.7280908050390313,9.45063302262278 L-4.250291391909597,9.399649981583014 L-4.769632528540172,9.343690503904135 L-5.285847992800974,9.282791031003704 L-5.798674240901325,9.216990131537068 L-6.307850400829273,9.146328477183468 L-6.813118265791224,9.070848818432163 L-7.314222493812192,8.990595927898935 L-7.810910859909371,8.905616563340365 L-8.302933879272782,8.815959483240144 L-8.790045066291631,8.721675371613339 L-9.272000941411656,8.622816836610241 L-9.748561069041484,8.519438401337665 L-10.219488835096312,8.411596285037003 L-10.684549835106736,8.299348737920026 L-11.143512609773348,8.182755905738617 L-11.596149169065244,8.061879686611016 L-12.042234969198004,7.936783711944151 L-12.481548894666386,7.80753333029193 L-12.913873245331754,7.67419559414953 L-13.338993728564258,7.536839249683642 L-13.756699456439726,7.395534729398706 L-14.16678294799131,7.250354147739107 L-14.569040136515842,7.101371299627362 L-14.96327038193495,6.948661661938273 L-15.349276488210894,6.792302397909055 L-15.726865432756597,6.632372058342734 L-16.09584890116586,6.468950292841564 L-16.456040752421686,6.30211894776783 L-16.80725877992602,6.131961358177019 L-17.149324794072133,5.958562299256715 L-17.482064614963583,5.782007980005664 L-17.80530807213679,5.60238603903186 L-18.118889011287184,5.41978554246961 L-18.422645307998962,5.234296984015603 L-18.716418888478426,5.046012287083987 L-19.000055757290873,4.855024809080445 L-19.138025924830718,4.758547095002874 L-19.273406032101153,4.661429347795257 L-19.40617799333073,4.563683643637983 L-19.536323985417738,4.465322149915373 L-19.663826449617723,4.3663571255975615 L-19.788668119298627,4.266800901880302 L-19.910832152761554,4.166665773395645 L-20.03030186748321,4.065964195635099 L-20.147060838019414,3.9647087243816768 L-20.26109292579608,3.8629119941787176 L-20.372382279109225,3.760586718329882 L-20.480913333124963,3.6577456888991513 L-20.58667080987953,3.5544017767108302 L-20.689639718279242,3.450567931349541 L-20.789805354100537,3.346257181160234 L-20.88715329998994,3.2414826332481783 L-20.981669427466354,3.1362574717310827 L-21.07333993736193,3.0305949288271115 L-21.16215130944285,2.9245083401871224 L-21.248090312584118,2.818011126352985 L-21.331144021845837,2.711116777518405 L-21.411299820278266,2.6038388536148664 L-21.488545400726842,2.4961909843975807 L-21.5628687676372,2.3881868695314252 L-21.634258238860227,2.2798402786768825 L-21.702702447457046,2.171165051575991 L-21.76819034350409,2.062175098138284 L-21.830711195898107,1.952884398526735 L-21.89025459416118,1.8433070032436991 L-21.946810450245778,1.7334570332168746 " />
			<path d="M-56.568542491094206,-8.806674333291063 L5.361449950669339e-09,14.90735245610232 " />
			<path d="M5.361439292528303e-09,14.907352456102316 L5.361439292528303e-09,23.98625129730526 " />
			<path d="M56.5685424987534,-8.806674334575384 L5.361435739814624e-09,14.90735245610232 " />
			<path d="M3.195075089796674,9.648048062182685 L1.1785113060305696,35.50666602501349 " />

        </g>

        <!-- solid lines -->
        <g  stroke="rgb(0,0,0)" fill="none">
    			<path d="M2.2977566516146908e-09,-32.52070112396876 L2.2977566516146908e-09,-23.44180228276582 " />
			<path d="M2.2977566516146908e-09,-23.44180228276582 L-56.568542491094206,0.2722245079118828 " />
			<path d="M-56.568542491094206,-8.806674333291063 L-56.568542491094206,0.27222450791187924 " />
			<path d="M2.2977566516146908e-09,-32.52070112396876 L-56.568542491094206,-8.80667433329106 " />
			<path d="M2.2977566516146908e-09,-32.52070112396876 L56.568542498753416,-8.80667433457538 " />
			<path d="M56.5685424987534,-8.806674334575384 L56.5685424987534,0.27222450662755904 " />
			<path d="M2.2977566516146908e-09,-23.44180228276582 L56.568542498753416,0.2722245066275626 " />
			<path d="M-56.568542491094206,0.27222450791187924 L-14.078211748195756,18.084542044472276 " />
			<path d="M56.5685424987534,0.27222450662755904 L15.02980100441659,17.685627525855196 " />
			<path d="M22.36552560144618,1.6116278720085768 L22.363928023009294,1.6151314645391948 " />
			<path d="M22.363928023009294,1.6151314645391948 L22.36252658824528,1.618199293347468 " />
			<path d="M-21.94681045024579,1.7334570332168562 L-22.029411139344024,1.560786879611143 L-22.10461433036694,1.387537071122936 L-22.172386156151934,1.2137626980301701 L-22.232694694022523,1.0395195432899982 L-22.285510060160227,0.8648638073506003 L-22.330804461294065,0.689852019879852 L-22.368552219662835,0.5145410387226496 L-22.398729797977428,0.33898804885823863 L-22.42131582438314,0.1632505613575399 L-22.43629111742196,-0.012613587659522807 L-22.44363871099489,-0.18854623806669712 L-22.44334387932424,-0.3644889067740733 L-22.435394161915937,-0.54038278877076 L-22.419779388521825,-0.7161687581675538 L-22.396491704101976,-0.8917873692396148 L-22.36552559378699,-1.0671788574691021 " />
			<path d="M-22.365525593786977,-1.0671788574691394 L-22.277090951451008,-1.2517926248459015 L-22.18032110001448,-1.4356884090129098 L-22.075262310443385,-1.6188007785005194 L-21.96196329847901,-1.8010648591726057 L-21.840475201018265,-1.9824163330070903 L-21.71085155249398,-2.1627914368764705 L-21.57314826125522,-2.3421269613283444 L-21.427423585947594,-2.5203602493659405 L-21.273738111893547,-2.6974291952286436 L-21.112154703718957,-2.8732722669309916 L-20.942738416505044,-3.0478286045114924 L-20.765556596646626,-3.221037892331189 L-20.580678762241615,-3.392840415635294 L-20.38817658920683,-3.5631770713808484 L-20.188123911277962,-3.73198936823672 L-19.98059672000962,-3.8992194265836053 L-19.76567290992064,-4.064810146228428 L-19.543432519504904,-4.22870497005634 L-19.31395789515144,-4.39084780245981 L-19.077333366868768,-4.551183244523307 L-18.833645229059545,-4.709656589909647 L-18.58298172353387,-4.86621382138165 L-18.325433024718727,-5.020801607990115 L-18.061091227063613,-5.173367302928095 L-17.790050334642345,-5.323858942051491 L-17.51240625295097,-5.472225243065946 L-17.228256782901916,-5.618415605380064 L-16.937701617014227,-5.762380110624919 L-16.640842337800027,-5.904069523839892 L-16.3377824183471,-6.043435295324809 L-16.028627225097644,-6.180429563158385 L-15.713484022823213,-6.315005156382994 L-15.392461143364514,-6.447115937609697 L-15.065668644995267,-6.576716493185157 L-14.733219051512044,-6.703761856780758 L-14.395226534968115,-6.8282078578641645 L-14.051806908076433,-6.9500111196137695 L-13.70307761820204,-7.069129057753804 L-13.34915774294393,-7.185519880310097 L-12.990167987306327,-7.299142588286487 L-12.626230682459422,-7.4099569772618885 L-12.257469786089528,-7.5179236399080125 L-11.884010884338686,-7.623003969427738 L-11.5059811953337,-7.72516016391414 L-11.12350957430462,-7.824355231630168 L-10.736726520292649,-7.920552997208976 L-10.345764184447493,-8.013718108774915 L-9.950756379840215,-8.103816046002983 L-9.551838020443135,-8.190813256057906 L-9.14914531571295,-8.27467708487738 L-8.742816334385697,-8.355375676138388 L-8.332990604403236,-8.432878078094433 L-7.919809112913243,-8.50715424357554 L-7.503414306269214,-8.578175029988254 L-7.08395006420168,-8.645912205136016 L-6.6615615648935655,-8.710338497360912 L-6.236395589604978,-8.771427553263038 L-5.808600288305948,-8.829153974946387 L-5.3783251259108855,-8.883493339878186 L-4.945720885187554,-8.93442221079049 L-4.5109396696660635,-8.981918145581758 L-4.074134906547846,-9.025959707218437 L-3.635461349614643,-9.066526473636543 L-3.1950750821375493,-9.103599047643243 " />
			<path d="M-3.1950750821374854,-9.103599047643247 L-2.556319093092139,-9.122118118544075 L-1.916475917307058,-9.133142638619354 L-1.2760502025193194,-9.136683575267927 L-0.6355424566462711,-9.132757158314924 L0.004550972808017306,-9.121384793369756 L0.6437379193463029,-9.102592975184116 L1.2815304180717186,-9.076413201009975 L1.9174447262813237,-9.042881883957572 L2.5510013440596504,-9.002040266353417 L3.181725480957051,-8.953934309544282 L3.8091490317386874,-8.898614524030698 L4.43280797462176,-8.836136032449755 L5.052243547797883,-8.766558414462603 L5.667002476437947,-8.689945632930604 L6.276636956644811,-8.606365974686044 L6.880704639406019,-8.515891991302855 L7.478769050976276,-8.418600375184514 L8.07039985118265,-8.314571903728318 L8.655172525621696,-8.203891382278995 L9.232668708183029,-8.08664755185854 L9.802476266001939,-7.962933068346031 L10.084370104934,-7.898679252747729 L10.364190332990397,-7.832844190256046 L10.641887101377657,-7.765440555056853 L10.917411007143489,-7.696481247215963 L11.1907130910726,-7.625979391020809 L11.461744835813562,-7.553948333456318 L11.730458164236696,-7.480401642814979 L11.996805438023024,-7.405353107441113 L12.260739456484242,-7.328816734609324 L12.522213455613734,-7.250806749537168 L12.781181107368633,-7.171337594531995 L13.03759651918291,-7.090423928271997 L13.291414233711514,-7.008080625221461 L13.542589228805541,-6.924322775180196 L13.791076917718447,-6.839165682967174 L14.036833149543307,-6.752624868238358 L14.279814209881094,-6.6647160654387285 L14.519976821740016,-6.575455223888505 L14.757278146665888,-6.484858508003562 L14.991675786103533,-6.392942297650043 L15.22312778298924,-6.299723188633168 L15.451592623574236,-6.205217993320235 L15.67702971212425,-6.109443537925481 L15.899398910605214,-6.012416840535066 L16.118660114014183,-5.914155304074841 L16.33477373394547,-5.81467651731215 L16.547700697104514,-5.713998254091414 L16.75740244414183,-5.612138472666557 L16.963840928807134,-5.509115315130297 L17.166978617423513,-5.404947106940281 L17.36677848868178,-5.299652356542076 L17.563204033754904,-5.193249755089024 L17.756219256732546,-5.085758176258933 L17.945788675375766,-4.977196676167635 L18.13187732219179,-4.867584493379395 L18.31445074582893,-4.75694104901417 L18.493475012791574,-4.645285946951722 L18.668916709475383,-4.532638974132594 L18.84074294452248,-4.419020100955924 L19.00892135149687,-4.30444948177413 L19.17342009187991,-4.188947455484431 L19.334207858385906,-4.072534546217238 L19.491253878597846,-3.955231464121386 L19.64452791892323,-3.83705910624623 L19.794000319791095,-3.7180385339142474 L19.939642202149066,-3.5981908042722988 L20.081425100986753,-3.4775372408319507 L20.2193210885256,-3.3560993636934784 L20.353302823750404,-3.233898854053312 L20.48334355240931,-3.110957554204037 L20.609417107013815,-2.9872974675343933 L20.731497906838772,-2.862940758529275 L20.84956095792239,-2.737909752769732 L20.963581853200157,-2.6122269368126405 L21.073536822472995,-2.4859149210157394 L21.179402701332815,-2.358996491410948 L21.281156912478465,-2.2314946136607494 L21.378777505610344,-2.1034323959281287 L21.472243161845665,-1.9748330890867962 L21.561533198133713,-1.8457200869314134 L21.64662757167109,-1.716116926387819 L21.727506884316995,-1.5860472877232537 L21.804152387008468,-1.4555349947565857 L21.876545984175642,-1.324604015068536 L21.944670238157023,-1.1932784602119053 L22.00850837361473,-1.0615825859217964 L22.068044281949753,-0.9295407923258421 L22.12326256053181,-0.797177522264846 L22.17414850587241,-0.6645173290788597 L22.220688054829544,-0.5315850578981883 L22.26286784428018,-0.3984056676895422 L22.3006752181736,-0.2650042291225464 L22.33409823399016,-0.13140592429995723 L22.363125669200045,0.0023639535121183775 L22.387747027721993,0.13628000015400554 L22.407952546382052,0.2703167008422428 L22.423733201372333,0.40444843043936485 L22.435080714709745,0.5386494537236833 L22.44198756069474,0.6728939256590699 L22.444446972370077,0.8071558916647371 L22.44245294797954,0.9414092878850199 L22.436000257426702,1.0756279414591603 L22.425084448733678,1.2097855707910856 L22.40970185449985,1.3438557858191924 L22.38984959836062,1.4778120882861296 L22.36552560144618,1.6116278720085377 " />
			<path d="M8.249579117704567,32.54241267617877 L4.714045211867568,34.02453935059613 " />
			<path d="M22.36552560144618,1.6116278720085813 L22.341418945767685,1.6644502442100135 " />
			<path d="M22.341418945767685,1.6644502442100135 L8.249579117704565,32.54241267617878 " />
			<path d="M4.714045211867568,34.02453935059613 L1.1785113060305705,35.50666602501349 " />
			<path d="M-22.365525593786984,-1.0671788574691403 L-14.18657257895557,17.834123582461398 " />
			<path d="M-14.18657257895557,17.834123582461398 L-8.249579110045373,31.55432822678126 " />
			<path d="M-8.249579110045373,31.554328226781255 L1.17851130603057,35.50666602501349 " />
			<path d="M-3.1950750821374836,-9.103599047643247 L-1.1785112983713768,28.59007487794655 " />
			<path d="M-1.1785112983713755,28.590074877946545 L-8.24957911004537,31.554328226781255 " />
			<path d="M-1.1785112983713768,28.590074877946545 L8.249579117704567,32.54241267617878 " />
			<path d="M22.341418945767685,1.66445024421001 L22.363928023033225,1.6151314645318582 " />
			<path d="M-14.186572578955568,17.834123582461395 L-14.379287448829263,17.392435472030634 L-14.579692883296923,16.939961998192395 L-14.786861634399688,16.47825202784614 L-14.999961359051438,16.008674773087208 L-15.441098881021073,15.050496984692055 L-15.89834480197159,14.072789233687118 L-16.36844404116733,13.080064441970972 L-16.848824318760013,12.07577042139101 L-17.33752994958631,11.062531902625828 L-17.833140105326393,10.042085677820385 L-18.334477625278634,9.01584046489844 L-18.84060901635966,7.984876907562548 L-19.86467500633034,5.911570104365806 L-20.901070833027514,3.82672984565823 L-21.946810455747663,1.7334570332042984 " />

        </g>
        </g>
    </svg>
    