<?xml version="1.0" encoding="UTF-8" standalone="no"?>
    <svg
    xmlns:svg="http://www.w3.org/2000/svg"
    xmlns="http://www.w3.org/2000/svg"
    width="399"
    height="218"
    >
        <g transform="scale(4, -4)   translate(49.92640697119284,-26.617840788920557)" stroke-width="0.25"  fill="none">
        <!-- hidden lines -->
        <g  stroke="rgb(160,160,160)" fill="none" stroke-dasharray="0.25,0.25" >
    			<path d="M-47.42640687119284,-0.7824307536299686 L-47.41854094628192,-0.8304195694407206 L-47.39496792065905,-0.86829252410819 L-47.35576196378402,-0.8959304553053511 L-47.301046432101955,-0.9132464038756039 L-47.230993480918336,-0.9201858874384623 L-47.14582352273467,-0.9167270718112803 L-47.045804533749276,-0.90288083970766 L-46.931251210704936,-0.8786907564964057 L-46.8025239807366,-0.8442329331287742 L-46.66002786733426,-0.7996157866652416 L-46.50421121598914,-0.7449796991553412 L-46.33556428353299,-0.6804965759437832 L-46.154617695608664,-0.606369304792651 L-45.96194077712559,-0.522831117521438 " />
			<path d="M-47.42640687119284,-7.46903497188989 L-47.42490096467386,-7.41449518433976 L-47.4203841522187,-7.359988249518277 L-47.412859154586286,-7.30554700036483 L-47.402330504553824,-7.251204230252221 L-47.388804544186385,-7.196992673233159 L-47.372289421016745,-7.14294498432249 L-47.35279508313754,-7.0890937198270425 L-47.33033327320899,-7.035471317734919 L-47.304917521385484,-6.982110078176069 L-47.27656313716556,-6.929042143965898 L-47.24528720017004,-6.876299481243636 L-47.21110854985388,-6.823913860217131 L-47.17404777415802,-6.7719168360256665 L-47.134127197107944,-6.720339729732321 L-47.091370865366535,-6.669213609457332 L-47.045804533749276,-6.618569271663825 L-46.99745564971049,-6.568437222607174 L-46.946353336810056,-6.518847659959172 L-46.892528377170414,-6.4698304546180845 L-46.836013192934615,-6.421415132715539 L-46.776841826736394,-6.373630857831082 L-46.7150499211942,-6.326506413425137 L-46.650674697441374,-6.280070185500916 L-46.58375493270557,-6.2343501455057595 L-46.44244452859606,-6.14516834147876 L-46.29145913800652,-6.059175848121441 L-46.13116249796764,-5.976579828882357 L-45.961940777125584,-5.89757926480641 " />
			<path d="M-45.96194077712558,-5.8975792648064065 L3.5355339059327595,16.102800634362346 " />
			<path d="M47.42640687119287,-1.1832121435559637 L47.42490096467389,-1.1286723560058338 L47.42038415221873,-1.0741654211843503 L47.412859154586315,-1.0197241720309038 L47.40233050455385,-0.9653814019182948 L47.388804544186414,-0.9111698448992325 L47.372289421016774,-0.8571221559885641 L47.35279508313757,-0.8032708914931164 L47.33033327320902,-0.7496484894009929 L47.30491752138551,-0.696287249842143 L47.27656313716559,-0.6432193156319719 L47.24528720017007,-0.5904766529097096 L47.21110854985391,-0.5380910318832054 L47.17404777415805,-0.4860940076917406 L47.13412719710797,-0.4345169013983943 L47.091370865366564,-0.3833907811234054 L47.045804533749305,-0.3327464433298989 L46.99745564971052,-0.28261439427324775 L46.946353336810084,-0.23302483162524557 L46.89252837717044,-0.18400762628415857 L46.836013192934644,-0.13559230438161252 L46.77684182673642,-0.08780802949715616 L46.71504992119423,-0.04068358509121084 L46.6506746974414,0.005752642833009691 L46.583754932705595,0.05147268282816686 L46.44244452859609,0.14065448685516668 L46.29145913800655,0.22664698021248442 L46.131162497967665,0.30924299945156974 L45.96194077712561,0.38824356352751654 " />
			<path d="M3.535533905932759,16.102800634362342 L3.7132730376304046,16.178015423996662 L3.8991013910472687,16.24926324017309 L4.092571289403329,16.31637244066188 L4.293216646767485,16.379181353520988 L4.500554090899388,16.43753866657792 L4.714084127735507,16.49130379195403 L4.933292344714086,16.540347204753022 L5.157650650040048,16.584550755097755 L5.386618544904397,16.623807952763684 L5.619644425593186,16.658024223723107 L5.856166912349177,16.687117137982288 L6.095616201784855,16.711016608162538 L6.337415439588688,16.72966505834685 L6.580982110217693,16.743017562785315 L6.8257294402284066,16.751041954125203 L7.071067811865497,16.75371890090492 L7.316406183502587,16.751041954125203 L7.5611535135133,16.743017562785315 L7.804720184142305,16.72966505834685 L8.046519421946138,16.711016608162538 L8.285968711381816,16.687117137982288 L8.522491198137807,16.658024223723107 L8.755517078826596,16.623807952763684 L8.984484973690945,16.584550755097755 L9.208843279016907,16.54034720475302 L9.428051495995486,16.491303791954035 L9.641581532831605,16.43753866657792 L9.848918976963507,16.379181353520988 L10.04956433432766,16.31637244066188 L10.243034232683723,16.24926324017309 L10.428862586100589,16.178015423996662 L10.606601717798219,16.10280063436235 " />
			<path d="M45.961940777125605,0.38824356352751693 L10.606601717798235,16.10280063436234 " />
			<path d="M-7.071067811865459,-4.3261235577229264 L1.6032380887908197e-14,-7.469034971889892 " />
			<path d="M1.555077238849989e-14,-7.469034971889891 L7.0710678118654915,-4.326123557722927 " />
			<path d="M1.6830220640996436e-14,-1.1832121435559622 L7.0710678118654915,-4.326123557722927 " />
			<path d="M-7.071067811865459,-4.3261235577229264 L1.7311829140404742e-14,-1.1832121435559624 " />
			<path d="M-45.96194077712558,-0.5228311175214296 L3.5355339059327595,21.47754878164732 " />
			<path d="M7.0710678118654995,23.44032311916486 L7.071067811865499,24.117840788920557 " />
			<path d="M3.5355339059327586,21.477548781647318 L3.739334922105472,21.57023504299531 L3.9536188025718237,21.671777753151275 L4.177711330966462,21.78185742118186 L4.410907429288811,21.9001276957259 L4.652473376339298,22.02621645474388 L4.901649116277705,22.1597269763516 L5.157650650040045,22.30023918705392 L5.4196725020896555,22.44731098345148 L5.686890254741243,22.600479623261485 L5.958463142083925,22.75926318127615 L6.233536695341813,22.9231620656777 L6.511245431348955,23.09166058993907 L6.790715575679535,23.26422859536448 L7.071067811865475,23.440323119164834 " />
			<path d="M47.42640687119287,5.503392074703956 L47.418540946281944,5.4554032588932015 L47.39496792065908,5.417530304225735 L47.35576196378404,5.389892373028573 L47.30104643210198,5.3725764244583205 L47.23099348091836,5.3656369408954605 L47.1458235227347,5.369095756522644 L47.0458045337493,5.382941988626266 L46.93125121070496,5.40713207183752 L46.80252398073663,5.441589895205155 L46.66002786733428,5.486207041668682 L46.50421121598916,5.540843129178585 L46.33556428353301,5.605326252390144 L46.154617695608685,5.679453523541277 L45.96194077712562,5.7629917108124875 " />
			<path d="M7.071067811865493,23.440323119164848 L7.351420048051452,23.264228595364482 L7.630890192382028,23.091660589939075 L7.908598928389171,22.923162065677705 L8.183672481647061,22.75926318127615 L8.455245368989736,22.600479623261485 L8.722463121641322,22.447310983451484 L8.984484973690938,22.300239187053922 L9.240486507453282,22.159726976351596 L9.489662247391689,22.026216454743885 L9.731228194442172,21.9001276957259 L9.96442429276452,21.781857421181865 L10.188516821159157,21.671777753151275 L10.40280070162551,21.570235042995314 L10.606601717798217,21.47754878164732 " />
			<path d="M45.961940777125605,5.762991710812494 L10.606601717798235,21.477548781647318 " />
			<path d="M-7.0710678118654595,-4.3261235577229264 L-7.0710678118654595,4.631790021085369 " />
			<path d="M1.587618925213974e-14,-7.469034971889891 L1.587618925213974e-14,1.4888786069184041 " />
			<path d="M7.0710678118654915,-4.326123557722927 L7.0710678118654915,4.631790021085368 " />
			<path d="M1.6986412276764895e-14,-1.1832121435559628 L1.6986412276764895e-14,1.4888786069184023 " />

        </g>

        <!-- solid lines -->
        <g  stroke="rgb(0,0,0)" fill="none">
    			<path d="M-10.6066017177982,-19.380299602523216 L-45.96194077712557,-3.665742531688394 " />
			<path d="M-10.6066017177982,-24.755047749808192 L-45.96194077712557,-9.04049067897337 " />
			<path d="M-7.071067811865461,-18.719361798090873 L-7.071067811865461,-14.854260746749816 " />
			<path d="M-10.6066017177982,-19.380299602523216 L-10.402800701625482,-19.458893408757337 L-10.188516821159128,-19.518203093649156 L-9.964424292764491,-19.558042046987538 L-9.731228194442144,-19.578284920686286 L-9.489662247391664,-19.578868023175602 L-9.24048650745325,-19.55978951979932 L-8.984484973690915,-19.521109438587445 L-8.722463121641299,-19.462949481385706 L-8.455245368989713,-19.385492640936576 L-8.183672481647033,-19.288982625116383 L-7.908598928389141,-19.173723090140157 L-7.630890192382003,-19.04007668514686 L-7.351420048051418,-18.88846391117101 L-7.071067811865485,-18.71936179809087 " />
			<path d="M-7.071067811865463,-14.85426074674981 L-43.84062043356593,1.4888786069184055 " />
			<path d="M-47.42640687119284,-0.7824307536299582 L-43.84062043356594,1.4888786069184115 " />
			<path d="M-45.96194077712558,-3.6657425316883976 L-46.154617695608664,-3.5681118893032995 L-46.33556428353298,-3.4517515928880242 L-46.50421121598914,-3.3170277549842613 L-46.66002786733426,-3.16436426662907 L-46.8025239807366,-2.99424146363687 L-46.93125121070493,-2.8071946152852463 L-47.045804533749276,-2.6038122401597907 L-47.14582352273467,-2.384734254456869 L-47.230993480918336,-2.1506499585705563 L-47.301046432101955,-1.902295868298558 L-47.35576196378402,-1.6404533974910316 L-47.39496792065905,-1.3659463994335295 L-47.41854094628192,-1.0796385746997363 L-47.42640687119284,-0.7824307536299814 " />
			<path d="M-7.071067811865463,-18.71936179809085 L-6.790715575679503,-18.88846391117101 L-6.511245431348922,-19.04007668514686 L-6.23353669534178,-19.173723090140157 L-5.958463142083891,-19.288982625116386 L-5.686890254741211,-19.385492640936576 L-5.4196725020896235,-19.462949481385706 L-5.157650650040013,-19.521109438587445 L-4.901649116277671,-19.559789519799327 L-4.652473376339264,-19.578868023175602 L-4.410907429288779,-19.578284920686286 L-4.17771133096643,-19.558042046987538 L-3.953618802571791,-19.518203093649156 L-3.739334922105439,-19.458893408757337 L-3.5355339059327417,-19.380299602523227 " />
			<path d="M-10.606601717798203,-24.755047749808195 L-10.428862586100555,-24.830262539442515 L-10.243034232683689,-24.901510355618942 L-10.049564334327629,-24.968619556107733 L-9.848918976963475,-25.03142846896684 L-9.641581532831573,-25.089785782023775 L-9.428051495995453,-25.143550907399884 L-9.208843279016875,-25.19259432019887 L-8.984484973690915,-25.236797870543608 L-8.755517078826568,-25.276055068209537 L-8.522491198137779,-25.310271339168956 L-8.285968711381788,-25.339364253428137 L-8.046519421946106,-25.36326372360839 L-7.80472018414227,-25.381912173792703 L-7.561153513513266,-25.395264678231168 L-7.316406183502553,-25.403289069571056 L-7.071067811865464,-25.405966016350774 L-6.825729440228375,-25.403289069571056 L-6.580982110217662,-25.395264678231168 L-6.337415439588658,-25.381912173792703 L-6.095616201784821,-25.36326372360839 L-5.85616691234914,-25.33936425342814 L-5.619644425593148,-25.31027133916896 L-5.386618544904361,-25.276055068209537 L-5.157650650040013,-25.236797870543608 L-4.933292344714053,-25.192594320198875 L-4.714084127735475,-25.143550907399888 L-4.500554090899356,-25.089785782023775 L-4.293216646767454,-25.03142846896684 L-4.092571289403299,-24.968619556107733 L-3.899101391047239,-24.901510355618942 L-3.713273037630375,-24.830262539442515 L-3.535533905932758,-24.75504774980821 " />
			<path d="M-45.96194077712558,-9.040490678973372 L-46.13116249796764,-8.961490114897423 L-46.29145913800652,-8.878894095658339 L-46.44244452859606,-8.79290160230102 L-46.58375493270557,-8.70371979827402 L-46.650674697441374,-8.657999758278864 L-46.7150499211942,-8.611563530354644 L-46.776841826736394,-8.564439085948699 L-46.836013192934615,-8.516654811064242 L-46.892528377170414,-8.468239489161697 L-46.946353336810056,-8.41922228382061 L-46.99745564971049,-8.369632721172607 L-47.04580453374927,-8.319500672115957 L-47.09137086536653,-8.26885633432245 L-47.134127197107944,-8.217730214047462 L-47.17404777415802,-8.166153107754115 L-47.21110854985388,-8.114156083562651 L-47.24528720017004,-8.061770462536147 L-47.27656313716556,-8.009027799813884 L-47.304917521385484,-7.955959865603711 L-47.33033327320899,-7.902598626044862 L-47.35279508313754,-7.8489762239527385 L-47.372289421016745,-7.795124959457289 L-47.388804544186385,-7.741077270546621 L-47.402330504553824,-7.686865713527559 L-47.412859154586286,-7.63252294341495 L-47.4203841522187,-7.5780816942615035 L-47.42490096467386,-7.52357475944002 L-47.42640687119284,-7.4690349718899105 " />
			<path d="M-3.535533905932725,-24.755047749808192 L45.96194077712561,-2.754667850639442 " />
			<path d="M45.961940777125605,-2.7546678506394464 L46.131162497967665,-2.6756672865634963 L46.29145913800655,-2.5930712673244116 L46.44244452859609,-2.507078773967094 L46.583754932705595,-2.4178969699400943 L46.6506746974414,-2.3721769299449376 L46.71504992119423,-2.3257407020207173 L46.77684182673642,-2.2786162576147717 L46.836013192934644,-2.230831982730316 L46.89252837717044,-2.18241666082777 L46.946353336810084,-2.133399455486683 L46.99745564971052,-2.083809892838681 L47.0458045337493,-2.03367784378203 L47.09137086536656,-1.9830335059885238 L47.13412719710797,-1.9319073857135352 L47.17404777415805,-1.880330279420189 L47.21110854985391,-1.8283332552287244 L47.24528720017007,-1.77594763420222 L47.27656313716559,-1.7232049714799582 L47.30491752138551,-1.6701370372697855 L47.33033327320902,-1.6167757977109358 L47.35279508313757,-1.5631533956188124 L47.372289421016774,-1.509302131123363 L47.388804544186414,-1.4552544422126947 L47.40233050455385,-1.4010428851936325 L47.412859154586315,-1.3467001150810238 L47.42038415221873,-1.2922588659275773 L47.42490096467389,-1.237751931106094 L47.42640687119287,-1.1832121435559841 " />
			<path d="M-7.07106781186546,-14.854260746749807 L43.84062043356597,7.774701435252337 " />
			<path d="M-3.535533905932725,-19.380299602523216 L45.96194077712561,2.6200802966455337 " />
			<path d="M47.42640687119289,5.503392074703961 L43.84062043356597,7.7747014352523385 " />
			<path d="M45.961940777125605,2.6200802966455274 L46.15461769560869,2.717710939030624 L46.33556428353302,2.8340712354458986 L46.504211215989166,2.9687950733496633 L46.660027867334286,3.1214585617048543 L46.80252398073663,3.2915813646970555 L46.931251210704964,3.478628213048676 L47.045804533749305,3.6820105881741356 L47.1458235227347,3.901088573877054 L47.230993480918364,4.135172869763367 L47.301046432101984,4.383526960035367 L47.35576196378405,4.645369430842891 L47.39496792065908,4.919876428900396 L47.41854094628195,5.206184253634187 L47.42640687119287,5.503392074703944 " />
			<path d="M-43.84062043356593,1.4888786069184037 L7.071067811865498,24.117840788920546 " />
			<path d="M43.84062043356596,7.774701435252329 L7.071067811865497,24.117840788920546 " />
			<path d="M-7.071067811865459,4.631790021085368 L1.6032380887908197e-14,1.4888786069184026 " />
			<path d="M1.555077238849989e-14,1.4888786069184028 L7.0710678118654915,4.631790021085367 " />
			<path d="M1.6830220640996436e-14,7.774701435252332 L7.0710678118654915,4.631790021085367 " />
			<path d="M-7.071067811865459,4.631790021085368 L1.7311829140404742e-14,7.774701435252331 " />
			<path d="M1.6986412276764895e-14,1.4888786069184023 L1.6986412276764895e-14,7.774701435252332 " />
			<path d="M-10.6066017177982,-24.755047749808192 L-10.6066017177982,-19.380299602523216 " />
			<path d="M-45.96194077712558,-9.040490678973374 L-45.96194077712558,-3.665742531688397 " />
			<path d="M-3.5355339059327258,-24.755047749808195 L-3.5355339059327258,-19.38029960252322 " />
			<path d="M45.961940777125605,-2.7546678506394473 L45.961940777125605,2.620080296645529 " />
			<path d="M-47.42640687119284,-7.469034971889889 L-47.42640687119284,-0.7824307536299697 " />
			<path d="M47.42640687119287,-1.1832121435559642 L47.42640687119287,5.503392074703951 " />

        </g>
        </g>
    </svg>
    