<?xml version="1.0" encoding="UTF-8" standalone="no"?>
    <svg
    xmlns:svg="http://www.w3.org/2000/svg"
    xmlns="http://www.w3.org/2000/svg"
    width="133"
    height="244"
    >
        <g transform="scale(4, -4)   translate(16.64213562373095,-30.61117865714202)" stroke-width="0.25"  fill="none">
        <!-- hidden lines -->
        <g  stroke="rgb(160,160,160)" fill="none" stroke-dasharray="0.25,0.25" >
    			<path d="M0.0,-19.534886863437677 L0.0,28.11117865714202 " />
			<path d="M-7.0710678118654755,-21.678959811863763 L8.881784197001252e-16,-19.534886863437677 " />
			<path d="M0.707106781186547,-19.749294158280286 L0.707106781186547,23.823032760289856 " />
			<path d="M0.0,-19.534886863437677 L0.7071067811865477,-19.749294158280286 " />
			<path d="M-6.0104076400856545,-21.786163459285067 L-6.0104076400856545,25.85990206129463 " />
			<path d="M0.707106781186547,-19.749294158280286 L-6.010407640085655,-21.786163459285067 " />
			<path d="M6.717514421272202,-25.64549476645202 L6.717514421272202,22.000570754127676 " />
			<path d="M-6.0104076400856545,-21.786163459285067 L6.717514421272202,-25.645494766452025 " />
			<path d="M13.435028842544405,-23.60862546544724 L13.435028842544405,24.037440055132457 " />
			<path d="M6.717514421272202,-25.64549476645202 L13.435028842544405,-23.60862546544724 " />
			<path d="M13.435028842544405,-23.60862546544724 L14.142135623730953,-23.82303276028985 " />
			<path d="M6.0104076400856545,-25.85990206129463 L6.0104076400856545,21.786163459285067 " />
			<path d="M6.0104076400856545,-25.85990206129463 L-0.7071067811865479,-27.89677136229941 " />
			<path d="M-0.7071067811865461,-23.82303276028985 L6.0104076400856545,-25.859902061294633 " />
			<path d="M-7.0710678118654755,-21.678959811863763 L-14.142135623730951,-23.82303276028985 " />

        </g>

        <!-- solid lines -->
        <g  stroke="rgb(0,0,0)" fill="none">
    			<path d="M-7.0710678118654755,25.967105708715934 L8.881784197001252e-16,28.11117865714202 " />
			<path d="M0.707106781186547,23.823032760289856 L0.707106781186547,27.89677136229941 " />
			<path d="M0.0,28.11117865714202 L0.7071067811865477,27.89677136229941 " />
			<path d="M0.707106781186547,27.89677136229941 L-6.010407640085655,25.85990206129463 " />
			<path d="M-6.0104076400856545,25.859902061294633 L6.717514421272202,22.000570754127676 " />
			<path d="M6.717514421272202,22.000570754127672 L13.435028842544405,24.037440055132453 " />
			<path d="M14.142135623730951,-23.82303276028985 L14.142135623730951,23.82303276028985 " />
			<path d="M13.435028842544405,24.037440055132457 L14.142135623730953,23.82303276028985 " />
			<path d="M14.142135623730951,-23.82303276028985 L7.071067811865475,-25.967105708715934 " />
			<path d="M14.142135623730951,23.82303276028985 L7.071067811865475,21.678959811863763 " />
			<path d="M0.0,-28.11117865714202 L0.0,19.534886863437677 " />
			<path d="M0.0,-28.11117865714202 L7.071067811865476,-25.967105708715934 " />
			<path d="M0.0,19.534886863437677 L7.071067811865476,21.678959811863763 " />
			<path d="M-0.707106781186547,-27.89677136229941 L-0.707106781186547,19.749294158280286 " />
			<path d="M-0.707106781186547,-27.89677136229941 L6.661338147750939e-16,-28.11117865714202 " />
			<path d="M-0.707106781186547,19.749294158280286 L6.661338147750939e-16,19.534886863437677 " />
			<path d="M6.0104076400856545,21.786163459285063 L-0.7071067811865479,19.749294158280282 " />
			<path d="M-6.717514421272202,-22.000570754127676 L-6.717514421272202,25.64549476645202 " />
			<path d="M-6.717514421272202,-22.000570754127676 L-0.7071067811865461,-23.82303276028985 " />
			<path d="M-6.717514421272202,25.645494766452025 L6.0104076400856545,21.786163459285067 " />
			<path d="M-13.435028842544405,-24.037440055132457 L-13.435028842544405,23.60862546544724 " />
			<path d="M-13.435028842544405,-24.037440055132457 L-6.717514421272202,-22.000570754127676 " />
			<path d="M-13.435028842544405,23.60862546544724 L-6.717514421272202,25.64549476645202 " />
			<path d="M-14.142135623730951,-23.82303276028985 L-14.142135623730951,23.82303276028985 " />
			<path d="M-14.142135623730951,-23.82303276028985 L-13.435028842544403,-24.037440055132457 " />
			<path d="M-14.142135623730951,23.82303276028985 L-13.435028842544403,23.60862546544724 " />
			<path d="M-7.0710678118654755,25.967105708715934 L-14.142135623730951,23.82303276028985 " />

        </g>
        </g>
    </svg>
    