<?xml version="1.0" encoding="UTF-8" standalone="no"?>
    <svg
    xmlns:svg="http://www.w3.org/2000/svg"
    xmlns="http://www.w3.org/2000/svg"
    width="441"
    height="214"
    >
        <g transform="scale(4, -4)   translate(55.15224871844497,-26.802325886196176)" stroke-width="0.25"  fill="none">
        <!-- hidden lines -->
        <g  stroke="rgb(160,160,160)" fill="none" stroke-dasharray="0.25,0.25" >
    			<path d="M31.819805153394654,12.521023841049361 L31.819805153394654,15.22097507362065 " />
			<path d="M24.74873734152918,12.521023841049361 L24.74873734152918,15.22097507362065 " />
			<path d="M31.819805153394654,12.521023841049361 L24.74873734152918,12.521023841049361 " />
			<path d="M24.74873734152918,9.438579517197141 L24.74873734152918,9.771370120552216 " />
			<path d="M24.74873734152918,12.521023841049361 L24.74873734152918,9.438579517197141 " />
			<path d="M31.819805153394654,9.43857951719714 L31.819805153394654,10.597308587842317 " />
			<path d="M24.74873734152918,9.438579517197141 L31.819805153394654,9.438579517197141 " />
			<path d="M31.819805153394654,9.43857951719714 L31.819805153394654,12.521023841049361 " />
			<path d="M31.819805153394654,7.897357355271028 L23.454642116016572,6.920261657485448 " />
			<path d="M21.21320343559644,12.521023841049361 L12.84804039821836,11.54392814326378 " />
			<path d="M42.42640687119287,12.521023841049361 L34.061243833814785,11.54392814326378 " />
			<path d="M31.819805153394654,17.144690326827693 L23.454642116016572,16.167594629042114 " />
			<path d="M29.57836647297452,13.498119538834942 L29.57836647297452,15.22097507362065 " />
			<path d="M25.626169113804455,15.22097507362065 L29.578366472974515,13.498119538834942 " />
			<path d="M29.57836647297452,13.498119538834942 L30.637354563692554,15.22097507362065 " />
			<path d="M-11.646857029613408,17.598162018314135 L-11.646857029613408,20.29811325088542 " />
			<path d="M-15.18239093554615,14.928686928106963 L-15.18239093554615,15.523289534611612 " />
			<path d="M-11.646857029613408,17.598162018314135 L-15.182390935546147,14.928686928106963 " />
			<path d="M-15.18239093554615,14.928686928106963 L-11.955115939937956,14.116444662465172 " />
			<path d="M-5.523132672655468,16.056939856388023 L-11.646857029613415,17.598162018314135 " />
			<path d="M-2.461270494176496,15.286328775424966 L-2.461270494176496,17.986280007996253 " />
			<path d="M-2.461270494176496,15.286328775424966 L-4.702709174596634,11.639757987432215 " />
			<path d="M3.6624538627814456,12.616853685217794 L-2.461270494176498,15.286328775424966 " />
			<path d="M-16.950157888512518,13.593949383003377 L-16.950157888512518,16.293900615574664 " />
			<path d="M-16.950157888512518,13.593949383003377 L-19.191596568932656,9.947378595010626 " />
			<path d="M-10.826433531554574,10.924474292796205 L-16.950157888512518,13.593949383003377 " />
			<path d="M-6.343556170714297,21.60237465362489 L-6.343556170714297,24.302325886196176 " />
			<path d="M-8.58499485113444,17.955803865632138 L-8.58499485113444,19.527502169922364 " />
			<path d="M-6.343556170714297,21.60237465362489 L-8.584994851134436,17.955803865632138 " />
			<path d="M-8.58499485113444,17.955803865632138 L-5.523132672655468,18.31344571295014 " />
			<path d="M-0.21983181375636107,18.932899563417713 L-6.343556170714304,21.602374653624885 " />
			<path d="M-20.832443565050326,19.9099952612033 L-20.832443565050326,22.609946493774586 " />
			<path d="M-20.832443565050326,19.9099952612033 L-23.073882245470465,16.26342447321055 " />
			<path d="M-14.70871920809238,17.240520170996128 L-14.70871920809238,17.986280007996257 " />
			<path d="M-15.182390935546149,17.18519278466908 L-14.708719208092377,17.240520170996128 " />
			<path d="M-14.70871920809238,17.240520170996128 L-20.832443565050323,19.9099952612033 " />
			<path d="M-33.80740392011737,2.5989096326980823 L-33.80740392011737,2.931700236053159 " />
			<path d="M-38.16336132410895,1.5025999858064993 L-33.80740392011737,2.5989096326980805 " />
			<path d="M-37.342937826050104,5.268384722905254 L-37.342937826050104,7.968335955476542 " />
			<path d="M-33.80740392011737,2.5989096326980823 L-37.34293782605011,5.268384722905253 " />
			<path d="M-37.342937826050104,5.268384722905254 L-43.466662183008054,3.7271625609791443 " />
			<path d="M-25.915912610193057,7.016091501653888 L-34.28107564757114,6.03899580386831 " />
			<path d="M-29.798198286730866,0.7000456234539651 L-38.16336132410895,-0.277050074331613 " />
			<path d="M-42.64623868494922,5.06190010608273 L-42.64623868494922,6.633598410372956 " />
			<path d="M-43.466662183008054,5.41954195340073 L-42.64623868494922,5.061900106082726 " />
			<path d="M-42.64623868494922,5.06190010608273 L-41.503358229355385,6.92123916360053 " />
			<path d="M-40.40480000452907,8.708470894075479 L-48.769963041907154,7.731375196289901 " />
			<path d="M-44.28708568106689,2.3924250158755553 L-52.65224871844497,1.4153293180899773 " />
			<path d="M-30.637354563692533,-15.220975073620625 L-25.626169113804426,-15.220975073620625 " />
			<path d="M-24.748737341529154,-12.138530749768405 L-24.748737341529154,-9.438579517197116 " />
			<path d="M-24.748737341529154,-15.220975073620625 L-24.74873734152915,-12.138530749768405 " />
			<path d="M-31.81980515339463,-12.138530749768403 L-31.81980515339463,-9.438579517197114 " />
			<path d="M-24.748737341529154,-12.138530749768405 L-31.81980515339463,-12.138530749768403 " />
			<path d="M-31.81980515339463,-12.138530749768403 L-31.819805153394633,-15.220975073620625 " />
			<path d="M-31.81980515339463,-10.597308587842292 L-31.81980515339463,-9.438579517197114 " />
			<path d="M-31.81980515339463,-10.597308587842292 L-24.74873734152915,-9.771370120552191 " />
			<path d="M-29.578366472974487,-6.950737799849541 L-29.578366472974487,-4.2507865672782525 " />
			<path d="M-23.454642116016547,-9.620212890056713 L-29.57836647297449,-6.9507377998495405 " />
			<path d="M-29.578366472974487,-6.950737799849541 L-31.819805153394626,-10.597308587842292 " />
			<path d="M-18.971764755176277,-11.574404285627873 L-18.971764755176277,-8.874453053056584 " />
			<path d="M-12.848040398218338,-14.243879375835046 L-18.97176475517628,-11.574404285627875 " />
			<path d="M-18.971764755176277,-11.574404285627873 L-21.213203435596416,-15.220975073620624 " />
			<path d="M-40.18496819077271,-11.574404285627875 L-40.18496819077271,-8.874453053056586 " />
			<path d="M-34.061243833814764,-14.243879375835045 L-40.18496819077271,-11.574404285627871 " />
			<path d="M-40.18496819077271,-11.574404285627875 L-42.426406871192846,-15.220975073620625 " />
			<path d="M-29.578366472974494,-16.198070771406208 L-29.578366472974494,-13.498119538834919 " />
			<path d="M-23.45464211601655,-18.867545861613376 L-29.578366472974494,-16.198070771406204 " />
			<path d="M-29.578366472974494,-16.198070771406208 L-31.819805153394633,-19.84464155939896 " />
			<path d="M15.18239093554616,-17.628638160678232 L15.18239093554616,-17.185192784669063 " />
			<path d="M14.708719208092395,-17.986280007996235 L15.182390935546161,-17.628638160678232 " />
			<path d="M9.058666578588223,-16.08741599875212 L9.058666578588223,-13.387464766180832 " />
			<path d="M15.18239093554616,-17.628638160678232 L9.058666578588216,-16.08741599875212 " />
			<path d="M5.523132672655478,-18.756891088959293 L5.523132672655478,-18.313445712950124 " />
			<path d="M9.058666578588223,-16.08741599875212 L5.523132672655481,-18.756891088959293 " />
			<path d="M5.523132672655478,-18.756891088959293 L8.584994851134446,-19.527502169922347 " />
			<path d="M4.702709174596645,-14.339709220003485 L-3.6624538627814367,-15.316804917789062 " />
			<path d="M19.191596568932678,-12.647329827581897 L10.826433531554596,-13.624425525367474 " />
			<path d="M11.955115939937988,-14.116444662465156 L15.18239093554616,-15.523289534611589 " />
			<path d="M8.584994851134446,-20.655755098203407 L0.21983181375636462,-21.632850795988983 " />
			<path d="M23.07388224547048,-18.96337570578182 L14.708719208092397,-19.940471403567397 " />
			<path d="M43.46666218300808,-6.427113793550403 L43.46666218300808,-5.419541953400703 " />
			<path d="M39.931128277075345,-3.7576387033432326 L39.931128277075345,-1.0576874707719441 " />
			<path d="M43.46666218300808,-6.427113793550403 L39.931128277075345,-3.757638703343231 " />
			<path d="M39.931128277075345,-3.7576387033432326 L33.8074039201174,-5.298860865269343 " />
			<path d="M41.50335822935542,-6.921239163600502 L43.46666218300808,-6.427113793550404 " />
			<path d="M28.157351290613224,-6.069471946232399 L28.157351290613224,-3.3695207136611107 " />
			<path d="M34.28107564757117,-8.73894703643957 L28.157351290613228,-6.069471946232397 " />
			<path d="M28.157351290613224,-6.069471946232399 L25.915912610193086,-9.716042734225152 " />
			<path d="M38.163361324108976,-2.4229011582396476 L38.163361324108976,-1.5025999858064725 " />
			<path d="M32.03963696715103,0.24657393196752242 L32.03963696715103,2.946525164538811 " />
			<path d="M38.163361324108976,-2.4229011582396476 L32.03963696715103,0.24657393196752375 " />
			<path d="M32.03963696715103,0.24657393196752242 L29.798198286730894,-3.399996856025229 " />
			<path d="M33.80740392011741,-2.9317002360531306 L38.163361324108976,-2.4229011582396476 " />
			<path d="M42.64623868494925,-7.761851338653988 L42.64623868494925,-5.0619001060827 " />
			<path d="M48.76996304190719,-10.431326428861158 L42.646238684949246,-7.761851338653987 " />
			<path d="M42.64623868494925,-7.761851338653988 L40.404800004529115,-11.40842212664674 " />
			<path d="M46.52852436148706,-1.4458054604540695 L46.52852436148706,1.254145772117219 " />
			<path d="M52.65224871844501,-4.115280550661236 L46.528524361487065,-1.4458054604540647 " />
			<path d="M46.52852436148706,-1.4458054604540695 L44.28708568106692,-5.092376248446821 " />
			<path d="M3.882285676537827,4.966070261914289 L3.882285676537827,7.666021494485577 " />
			<path d="M-10.606601717798195,3.2736908694927003 L-10.606601717798195,5.973642102063989 " />
			<path d="M3.882285676537827,4.966070261914289 L-10.606601717798199,3.2736908694926994 " />
			<path d="M-10.606601717798195,3.2736908694927003 L-14.488887394336011,-3.042355008707222 " />
			<path d="M14.48888739433604,0.34240377613595685 L3.882285676537828,4.96607026191429 " />

        </g>

        <!-- solid lines -->
        <g  stroke="rgb(0,0,0)" fill="none">
    			<path d="M31.819805153394654,15.22097507362065 L24.74873734152918,15.22097507362065 " />
			<path d="M24.74873734152918,9.771370120552216 L24.74873734152918,12.13853074976843 " />
			<path d="M24.74873734152918,15.22097507362065 L24.74873734152918,12.13853074976843 " />
			<path d="M31.819805153394654,10.597308587842317 L31.819805153394654,12.138530749768428 " />
			<path d="M24.74873734152918,12.13853074976843 L31.819805153394654,12.13853074976843 " />
			<path d="M31.819805153394654,12.138530749768428 L31.819805153394654,15.22097507362065 " />
			<path d="M31.819805153394654,7.897357355271028 L31.819805153394654,10.597308587842317 " />
			<path d="M23.454642116016572,6.920261657485449 L23.454642116016572,9.620212890056738 " />
			<path d="M31.819805153394654,10.597308587842317 L23.454642116016572,9.620212890056736 " />
			<path d="M29.578366472974515,4.250786567278277 L29.578366472974515,6.950737799849566 " />
			<path d="M23.454642116016572,6.920261657485449 L29.578366472974515,4.250786567278277 " />
			<path d="M23.454642116016572,9.620212890056738 L29.578366472974515,6.950737799849566 " />
			<path d="M29.578366472974515,4.250786567278277 L31.819805153394654,7.89735735527103 " />
			<path d="M29.578366472974515,6.950737799849566 L31.819805153394654,10.597308587842319 " />
			<path d="M21.21320343559644,12.521023841049361 L21.21320343559644,15.22097507362065 " />
			<path d="M12.84804039821836,11.543928143263782 L12.84804039821836,14.243879375835071 " />
			<path d="M21.21320343559644,15.22097507362065 L12.84804039821836,14.24387937583507 " />
			<path d="M18.971764755176302,8.874453053056609 L18.971764755176302,11.574404285627898 " />
			<path d="M12.84804039821836,11.543928143263782 L18.971764755176302,8.87445305305661 " />
			<path d="M12.84804039821836,14.243879375835071 L18.971764755176302,11.5744042856279 " />
			<path d="M18.971764755176302,8.874453053056609 L21.21320343559644,12.521023841049361 " />
			<path d="M18.971764755176302,11.574404285627898 L21.21320343559644,15.22097507362065 " />
			<path d="M42.42640687119287,12.521023841049361 L42.42640687119287,15.22097507362065 " />
			<path d="M34.061243833814785,11.54392814326378 L34.061243833814785,14.24387937583507 " />
			<path d="M42.42640687119287,15.22097507362065 L34.061243833814785,14.24387937583507 " />
			<path d="M40.18496819077273,8.87445305305661 L40.18496819077273,11.5744042856279 " />
			<path d="M34.061243833814785,11.54392814326378 L40.18496819077273,8.874453053056609 " />
			<path d="M34.061243833814785,14.24387937583507 L40.18496819077273,11.574404285627898 " />
			<path d="M40.18496819077273,8.87445305305661 L42.42640687119287,12.521023841049363 " />
			<path d="M40.18496819077273,11.5744042856279 L42.42640687119287,15.220975073620652 " />
			<path d="M31.819805153394654,17.144690326827693 L31.819805153394654,19.84464155939898 " />
			<path d="M23.454642116016572,16.167594629042114 L23.454642116016572,18.8675458616134 " />
			<path d="M31.819805153394654,19.84464155939898 L23.454642116016572,18.8675458616134 " />
			<path d="M29.57836647297452,15.22097507362065 L29.57836647297452,16.19807077140623 " />
			<path d="M23.454642116016572,16.167594629042114 L25.626169113804455,15.22097507362065 " />
			<path d="M23.454642116016572,18.8675458616134 L29.578366472974515,16.19807077140623 " />
			<path d="M30.637354563692554,15.22097507362065 L31.819805153394658,17.144690326827693 " />
			<path d="M29.57836647297452,16.19807077140623 L31.819805153394658,19.84464155939898 " />
			<path d="M-15.18239093554615,15.523289534611612 L-15.18239093554615,17.62863816067825 " />
			<path d="M-11.646857029613408,20.29811325088542 L-15.182390935546147,17.62863816067825 " />
			<path d="M-9.058666578588205,13.387464766180852 L-9.058666578588205,16.08741599875214 " />
			<path d="M-11.955115939937956,14.116444662465172 L-9.058666578588205,13.387464766180852 " />
			<path d="M-15.18239093554615,17.62863816067825 L-9.058666578588205,16.08741599875214 " />
			<path d="M-5.523132672655468,16.056939856388023 L-5.523132672655468,18.75689108895931 " />
			<path d="M-9.058666578588205,13.387464766180852 L-5.523132672655466,16.056939856388023 " />
			<path d="M-9.058666578588205,16.08741599875214 L-5.523132672655466,18.75689108895931 " />
			<path d="M-5.523132672655468,18.75689108895931 L-11.646857029613415,20.29811325088542 " />
			<path d="M-4.702709174596631,11.639757987432215 L-4.702709174596631,14.339709220003504 " />
			<path d="M-2.461270494176496,17.986280007996253 L-4.702709174596634,14.339709220003503 " />
			<path d="M3.6624538627814456,12.616853685217794 L3.6624538627814456,15.316804917789083 " />
			<path d="M-4.702709174596631,11.639757987432215 L3.662453862781449,12.616853685217794 " />
			<path d="M-4.702709174596631,14.339709220003504 L3.662453862781449,15.316804917789081 " />
			<path d="M3.6624538627814456,15.316804917789081 L-2.461270494176498,17.986280007996253 " />
			<path d="M-19.191596568932653,9.947378595010626 L-19.191596568932653,12.647329827581915 " />
			<path d="M-16.950157888512518,16.293900615574664 L-19.191596568932656,12.647329827581913 " />
			<path d="M-10.826433531554574,10.924474292796205 L-10.826433531554574,13.624425525367494 " />
			<path d="M-19.191596568932653,9.947378595010626 L-10.826433531554573,10.924474292796205 " />
			<path d="M-19.191596568932653,12.647329827581915 L-10.826433531554573,13.624425525367492 " />
			<path d="M-10.826433531554574,13.624425525367494 L-16.950157888512518,16.293900615574668 " />
			<path d="M-8.58499485113444,19.527502169922364 L-8.58499485113444,20.655755098203425 " />
			<path d="M-6.343556170714297,24.302325886196176 L-8.584994851134436,20.655755098203425 " />
			<path d="M-0.21983181375636107,18.932899563417713 L-0.21983181375636107,21.632850795989 " />
			<path d="M-5.523132672655468,18.31344571295014 L-0.2198318137563593,18.932899563417717 " />
			<path d="M-8.58499485113444,20.655755098203425 L-0.2198318137563593,21.632850795989004 " />
			<path d="M-0.21983181375636107,21.632850795989 L-6.343556170714304,24.302325886196172 " />
			<path d="M-23.073882245470458,16.26342447321055 L-23.073882245470458,18.963375705781836 " />
			<path d="M-20.832443565050326,22.609946493774586 L-23.073882245470465,18.963375705781836 " />
			<path d="M-14.70871920809238,17.986280007996257 L-14.70871920809238,19.940471403567415 " />
			<path d="M-23.073882245470458,16.26342447321055 L-15.182390935546149,17.18519278466908 " />
			<path d="M-23.073882245470458,18.963375705781836 L-14.708719208092377,19.940471403567415 " />
			<path d="M-14.70871920809238,19.940471403567415 L-20.832443565050323,22.609946493774586 " />
			<path d="M-43.466662183008054,3.727162560979142 L-43.466662183008054,6.427113793550431 " />
			<path d="M-39.93112827707532,1.0576874707719712 L-39.93112827707532,3.7576387033432597 " />
			<path d="M-43.466662183008054,3.727162560979142 L-39.93112827707532,1.0576874707719708 " />
			<path d="M-43.466662183008054,6.427113793550431 L-39.93112827707532,3.7576387033432597 " />
			<path d="M-33.80740392011737,2.931700236053159 L-33.80740392011737,5.29886086526937 " />
			<path d="M-39.93112827707532,1.0576874707719712 L-38.16336132410895,1.5025999858064993 " />
			<path d="M-39.93112827707532,3.7576387033432592 L-33.80740392011737,5.2988608652693685 " />
			<path d="M-33.80740392011737,5.29886086526937 L-37.34293782605011,7.968335955476542 " />
			<path d="M-37.342937826050104,7.968335955476542 L-43.466662183008054,6.427113793550433 " />
			<path d="M-34.281075647571136,6.038995803868308 L-34.281075647571136,8.738947036439596 " />
			<path d="M-28.1573512906132,3.369520713661137 L-28.1573512906132,6.069471946232426 " />
			<path d="M-34.281075647571136,6.038995803868308 L-28.157351290613192,3.3695207136611356 " />
			<path d="M-34.281075647571136,8.738947036439596 L-28.157351290613192,6.069471946232424 " />
			<path d="M-25.915912610193057,7.016091501653888 L-25.915912610193057,9.716042734225177 " />
			<path d="M-28.1573512906132,3.369520713661137 L-25.91591261019306,7.016091501653887 " />
			<path d="M-28.1573512906132,6.069471946232426 L-25.91591261019306,9.716042734225177 " />
			<path d="M-25.915912610193057,9.716042734225177 L-34.28107564757114,8.738947036439598 " />
			<path d="M-38.16336132410895,-0.2770500743316129 L-38.16336132410895,2.4229011582396756 " />
			<path d="M-32.039636967151004,-2.9465251645387838 L-32.039636967151004,-0.24657393196749533 " />
			<path d="M-38.16336132410895,-0.2770500743316129 L-32.039636967151004,-2.946525164538785 " />
			<path d="M-38.16336132410895,2.4229011582396756 L-32.039636967151004,-0.24657393196749666 " />
			<path d="M-29.798198286730866,0.7000456234539651 L-29.798198286730866,3.3999968560252536 " />
			<path d="M-32.039636967151004,-2.9465251645387838 L-29.798198286730866,0.700045623453966 " />
			<path d="M-32.039636967151004,-0.24657393196749533 L-29.798198286730866,3.3999968560252545 " />
			<path d="M-29.798198286730866,3.399996856025254 L-38.16336132410895,2.422901158239676 " />
			<path d="M-48.76996304190716,7.731375196289898 L-48.76996304190716,10.431326428861187 " />
			<path d="M-42.64623868494922,6.633598410372956 L-42.64623868494922,7.761851338654019 " />
			<path d="M-48.76996304190716,7.731375196289898 L-43.466662183008054,5.41954195340073 " />
			<path d="M-48.76996304190716,10.431326428861187 L-42.64623868494922,7.761851338654015 " />
			<path d="M-40.40480000452907,8.708470894075479 L-40.40480000452907,11.408422126646768 " />
			<path d="M-41.503358229355385,6.92123916360053 L-40.40480000452908,8.708470894075479 " />
			<path d="M-42.64623868494922,7.761851338654019 L-40.40480000452908,11.40842212664677 " />
			<path d="M-40.40480000452907,11.408422126646768 L-48.769963041907154,10.431326428861189 " />
			<path d="M-52.65224871844497,1.4153293180899773 L-52.65224871844497,4.115280550661266 " />
			<path d="M-46.52852436148703,-1.2541457721171927 L-46.52852436148703,1.4458054604540957 " />
			<path d="M-52.65224871844497,1.4153293180899773 L-46.52852436148703,-1.254145772117195 " />
			<path d="M-52.65224871844497,4.115280550661266 L-46.52852436148703,1.445805460454094 " />
			<path d="M-44.28708568106689,2.3924250158755553 L-44.28708568106689,5.092376248446843 " />
			<path d="M-46.52852436148703,-1.2541457721171927 L-44.28708568106689,2.392425015875557 " />
			<path d="M-46.52852436148703,1.4458054604540957 L-44.28708568106689,5.092376248446845 " />
			<path d="M-44.28708568106689,5.092376248446843 L-52.65224871844497,4.115280550661265 " />
			<path d="M-31.81980515339463,-15.220975073620625 L-31.81980515339463,-12.521023841049336 " />
			<path d="M-24.748737341529154,-15.220975073620625 L-24.748737341529154,-12.521023841049336 " />
			<path d="M-31.81980515339463,-15.220975073620625 L-30.637354563692533,-15.220975073620625 " />
			<path d="M-25.626169113804426,-15.220975073620625 L-24.748737341529154,-15.220975073620625 " />
			<path d="M-31.81980515339463,-12.521023841049336 L-24.748737341529154,-12.521023841049336 " />
			<path d="M-24.748737341529154,-12.521023841049336 L-24.74873734152915,-9.438579517197116 " />
			<path d="M-24.748737341529154,-9.438579517197116 L-31.81980515339463,-9.438579517197114 " />
			<path d="M-31.81980515339463,-9.438579517197114 L-31.819805153394633,-12.521023841049336 " />
			<path d="M-31.81980515339463,-9.438579517197114 L-31.81980515339463,-7.897357355271003 " />
			<path d="M-23.454642116016547,-9.620212890056713 L-23.454642116016547,-6.920261657485424 " />
			<path d="M-24.74873734152915,-9.771370120552191 L-23.454642116016547,-9.620212890056713 " />
			<path d="M-31.81980515339463,-7.897357355271003 L-23.454642116016547,-6.920261657485424 " />
			<path d="M-23.454642116016547,-6.920261657485424 L-29.57836647297449,-4.250786567278252 " />
			<path d="M-29.578366472974487,-4.2507865672782525 L-31.819805153394626,-7.897357355271003 " />
			<path d="M-21.213203435596416,-15.220975073620625 L-21.213203435596416,-12.521023841049336 " />
			<path d="M-12.848040398218338,-14.243879375835046 L-12.848040398218338,-11.543928143263757 " />
			<path d="M-21.213203435596416,-15.220975073620625 L-12.848040398218334,-14.243879375835046 " />
			<path d="M-21.213203435596416,-12.521023841049336 L-12.848040398218334,-11.543928143263757 " />
			<path d="M-12.848040398218338,-11.543928143263757 L-18.97176475517628,-8.874453053056584 " />
			<path d="M-18.971764755176277,-8.874453053056584 L-21.213203435596416,-12.521023841049335 " />
			<path d="M-42.426406871192846,-15.220975073620625 L-42.426406871192846,-12.521023841049336 " />
			<path d="M-34.061243833814764,-14.243879375835045 L-34.061243833814764,-11.543928143263756 " />
			<path d="M-42.426406871192846,-15.220975073620625 L-34.061243833814764,-14.243879375835046 " />
			<path d="M-42.426406871192846,-12.521023841049336 L-34.061243833814764,-11.543928143263757 " />
			<path d="M-34.061243833814764,-11.543928143263756 L-40.18496819077271,-8.874453053056584 " />
			<path d="M-40.18496819077271,-8.874453053056586 L-42.426406871192846,-12.521023841049336 " />
			<path d="M-31.819805153394633,-19.84464155939896 L-31.819805153394633,-17.14469032682767 " />
			<path d="M-23.45464211601655,-18.867545861613376 L-23.45464211601655,-16.16759462904209 " />
			<path d="M-31.819805153394633,-19.84464155939896 L-23.45464211601655,-18.86754586161338 " />
			<path d="M-31.819805153394633,-17.14469032682767 L-23.45464211601655,-16.167594629042092 " />
			<path d="M-23.45464211601655,-16.167594629042085 L-29.578366472974494,-13.498119538834914 " />
			<path d="M-29.578366472974494,-13.498119538834917 L-31.819805153394633,-17.144690326827668 " />
			<path d="M11.64685702961342,-20.2981132508854 L11.64685702961342,-17.598162018314113 " />
			<path d="M15.18239093554616,-17.185192784669063 L15.18239093554616,-14.928686928106943 " />
			<path d="M11.64685702961342,-20.2981132508854 L14.708719208092395,-17.986280007996235 " />
			<path d="M11.64685702961342,-17.598162018314113 L15.182390935546161,-14.928686928106943 " />
			<path d="M15.18239093554616,-14.928686928106943 L9.058666578588216,-13.38746476618083 " />
			<path d="M5.523132672655478,-18.313445712950124 L5.523132672655478,-16.056939856388006 " />
			<path d="M9.058666578588223,-13.387464766180832 L5.523132672655481,-16.056939856388002 " />
			<path d="M8.584994851134446,-19.527502169922347 L11.646857029613422,-20.298113250885404 " />
			<path d="M5.523132672655478,-16.056939856388006 L11.646857029613422,-17.598162018314117 " />
			<path d="M2.461270494176503,-17.986280007996235 L2.461270494176503,-15.286328775424947 " />
			<path d="M4.702709174596645,-14.339709220003485 L4.702709174596645,-11.639757987432196 " />
			<path d="M2.461270494176503,-17.986280007996235 L4.702709174596643,-14.339709220003485 " />
			<path d="M2.461270494176503,-15.286328775424947 L4.702709174596643,-11.639757987432196 " />
			<path d="M-3.662453862781433,-15.316804917789062 L-3.662453862781433,-12.616853685217773 " />
			<path d="M4.702709174596645,-11.639757987432196 L-3.6624538627814367,-12.616853685217773 " />
			<path d="M-3.662453862781433,-15.316804917789062 L2.4612704941765076,-17.986280007996235 " />
			<path d="M-3.662453862781433,-12.616853685217773 L2.4612704941765076,-15.286328775424947 " />
			<path d="M16.950157888512535,-16.29390061557465 L16.950157888512535,-13.59394938300336 " />
			<path d="M19.191596568932678,-12.647329827581897 L19.191596568932678,-9.947378595010608 " />
			<path d="M16.950157888512535,-16.29390061557465 L19.191596568932674,-12.647329827581899 " />
			<path d="M16.950157888512535,-13.593949383003359 L19.191596568932674,-9.947378595010608 " />
			<path d="M10.826433531554596,-13.624425525367474 L10.826433531554596,-10.924474292796186 " />
			<path d="M19.191596568932678,-9.947378595010608 L10.826433531554596,-10.924474292796186 " />
			<path d="M10.826433531554596,-13.624425525367474 L11.955115939937988,-14.116444662465156 " />
			<path d="M15.18239093554616,-15.523289534611589 L16.950157888512535,-16.29390061557465 " />
			<path d="M10.826433531554596,-10.924474292796186 L16.950157888512535,-13.593949383003359 " />
			<path d="M6.3435561707143115,-24.302325886196158 L6.3435561707143115,-21.60237465362487 " />
			<path d="M8.584994851134446,-20.655755098203407 L8.584994851134446,-17.95580386563212 " />
			<path d="M6.3435561707143115,-24.302325886196158 L8.584994851134452,-20.655755098203407 " />
			<path d="M6.3435561707143115,-21.60237465362487 L8.584994851134452,-17.95580386563212 " />
			<path d="M0.21983181375636818,-21.632850795988983 L0.21983181375636818,-18.932899563417696 " />
			<path d="M8.584994851134446,-17.95580386563212 L0.21983181375636462,-18.932899563417696 " />
			<path d="M0.21983181375636818,-21.632850795988983 L6.343556170714309,-24.302325886196158 " />
			<path d="M0.21983181375636818,-18.932899563417696 L6.343556170714309,-21.60237465362487 " />
			<path d="M20.832443565050333,-22.60994649377457 L20.832443565050333,-19.90999526120328 " />
			<path d="M23.07388224547048,-18.96337570578182 L23.07388224547048,-16.263424473210534 " />
			<path d="M20.832443565050333,-22.60994649377457 L23.07388224547047,-18.963375705781818 " />
			<path d="M20.832443565050333,-19.90999526120328 L23.07388224547047,-16.26342447321053 " />
			<path d="M14.708719208092395,-19.940471403567397 L14.708719208092395,-17.24052017099611 " />
			<path d="M23.07388224547048,-16.263424473210534 L14.708719208092397,-17.24052017099611 " />
			<path d="M14.708719208092395,-19.940471403567397 L20.832443565050337,-22.609946493774572 " />
			<path d="M14.708719208092395,-17.240520170996106 L20.832443565050337,-19.909995261203278 " />
			<path d="M43.46666218300808,-5.419541953400703 L43.46666218300808,-3.727162560979114 " />
			<path d="M43.46666218300808,-3.727162560979114 L39.931128277075345,-1.0576874707719424 " />
			<path d="M33.80740392011741,-5.298860865269343 L33.80740392011741,-2.5989096326980543 " />
			<path d="M39.931128277075345,-1.0576874707719441 L33.8074039201174,-2.5989096326980543 " />
			<path d="M37.34293782605014,-7.9683359554765145 L37.34293782605014,-5.2683847229052265 " />
			<path d="M33.80740392011741,-5.298860865269343 L37.34293782605015,-7.9683359554765145 " />
			<path d="M33.80740392011741,-2.5989096326980543 L37.34293782605015,-5.2683847229052265 " />
			<path d="M37.34293782605014,-7.9683359554765145 L41.50335822935542,-6.921239163600502 " />
			<path d="M37.34293782605014,-5.2683847229052265 L43.46666218300808,-3.727162560979116 " />
			<path d="M34.28107564757117,-8.73894703643957 L34.28107564757117,-6.03899580386828 " />
			<path d="M34.28107564757117,-6.03899580386828 L28.157351290613228,-3.369520713661109 " />
			<path d="M25.915912610193086,-9.716042734225148 L25.915912610193086,-7.016091501653859 " />
			<path d="M28.157351290613224,-3.3695207136611107 L25.915912610193086,-7.016091501653863 " />
			<path d="M25.915912610193086,-9.716042734225148 L34.28107564757117,-8.738947036439567 " />
			<path d="M25.915912610193086,-7.016091501653859 L34.28107564757117,-6.038995803868279 " />
			<path d="M38.163361324108976,-1.5025999858064725 L38.163361324108976,0.27705007433164086 " />
			<path d="M38.163361324108976,0.27705007433164086 L32.03963696715103,2.946525164538812 " />
			<path d="M29.798198286730894,-3.3999968560252274 L29.798198286730894,-0.700045623453939 " />
			<path d="M32.03963696715103,2.9465251645388104 L29.798198286730894,-0.7000456234539412 " />
			<path d="M29.798198286730894,-3.3999968560252274 L33.80740392011741,-2.9317002360531306 " />
			<path d="M29.798198286730894,-0.700045623453939 L38.163361324108976,0.27705007433164097 " />
			<path d="M48.76996304190719,-10.431326428861158 L48.76996304190719,-7.73137519628987 " />
			<path d="M48.76996304190719,-7.73137519628987 L42.646238684949246,-5.061900106082698 " />
			<path d="M40.404800004529115,-11.40842212664674 L40.404800004529115,-8.70847089407545 " />
			<path d="M42.64623868494925,-5.0619001060827 L40.404800004529115,-8.70847089407545 " />
			<path d="M40.404800004529115,-11.40842212664674 L48.7699630419072,-10.431326428861158 " />
			<path d="M40.404800004529115,-8.70847089407545 L48.7699630419072,-7.7313751962898705 " />
			<path d="M52.65224871844501,-4.115280550661236 L52.65224871844501,-1.4153293180899476 " />
			<path d="M52.65224871844501,-1.4153293180899476 L46.528524361487065,1.2541457721172238 " />
			<path d="M44.28708568106693,-5.092376248446818 L44.28708568106693,-2.392425015875529 " />
			<path d="M46.52852436148706,1.254145772117219 L44.28708568106692,-2.3924250158755327 " />
			<path d="M44.28708568106693,-5.092376248446818 L52.65224871844501,-4.115280550661238 " />
			<path d="M44.28708568106693,-2.392425015875529 L52.65224871844501,-1.4153293180899493 " />
			<path d="M3.882285676537827,7.666021494485577 L-10.606601717798199,5.973642102063987 " />
			<path d="M-14.488887394336011,-3.042355008707221 L-14.488887394336011,-0.3424037761359324 " />
			<path d="M-10.606601717798195,5.973642102063989 L-14.488887394336011,-0.3424037761359333 " />
			<path d="M-3.882285676537802,-7.666021494485555 L-3.882285676537802,-4.9660702619142665 " />
			<path d="M-14.488887394336011,-3.042355008707221 L-3.8822856765378013,-7.666021494485555 " />
			<path d="M-14.488887394336011,-0.3424037761359324 L-3.8822856765378013,-4.966070261914267 " />
			<path d="M10.60660171779822,-5.973642102063968 L10.60660171779822,-3.2736908694926794 " />
			<path d="M-3.882285676537802,-7.666021494485555 L10.60660171779822,-5.973642102063969 " />
			<path d="M-3.882285676537802,-4.9660702619142665 L10.60660171779822,-3.27369086949268 " />
			<path d="M14.48888739433604,0.34240377613595685 L14.48888739433604,3.0423550087072453 " />
			<path d="M10.60660171779822,-5.973642102063968 L14.48888739433604,0.34240377613595907 " />
			<path d="M10.60660171779822,-3.2736908694926794 L14.48888739433604,3.0423550087072475 " />
			<path d="M14.48888739433604,3.0423550087072453 L3.882285676537828,7.666021494485578 " />

        </g>
        </g>
    </svg>
    