<?xml version="1.0" encoding="UTF-8" standalone="no"?>
    <svg
    xmlns:svg="http://www.w3.org/2000/svg"
    xmlns="http://www.w3.org/2000/svg"
    width="399"
    height="218"
    >
        <g transform="scale(4, -4)   translate(49.92640697061852,-26.658824228048182)" stroke-width="0.25"  fill="none">
        <!-- hidden lines -->
        <g  stroke="rgb(160,160,160)" fill="none" stroke-dasharray="0.25,0.25" >
    			<path d="M-47.42640687061852,-0.750802502845489 L-47.418540945706404,-0.7987204801192931 L-47.39496792008235,-0.8365238593522693 L-47.35576196320612,-0.8640936971274467 L-47.30104643152289,-0.8813432485353259 L-47.2309934803381,-0.8882182401054628 L-47.1458235221533,-0.884697040570871 L-47.04580453316677,-0.8707907289280048 L-46.931251210121346,-0.8465430595781371 L-46.802523980151946,-0.8120303246598128 L-46.66002786674857,-0.7673611140055674 L-46.50421121540245,-0.7126759734781368 L-46.33556428294534,-0.6481469627611716 L-46.15461769502011,-0.5739771139958199 L-45.96194077653617,-0.4903997929665112 " />
			<path d="M-45.961940776536146,-0.4903997929665036 L3.5355339067337823,21.519305940778512 " />
			<path d="M7.071067812672777,23.482219256078338 L7.071067812657449,24.158824228048182 " />
			<path d="M3.5355339067337788,21.519305940778512 L3.739334922907318,21.612027768899207 L3.953618803374443,21.713602366936236 L4.177711331769803,21.8237101436252 L4.410907430092816,21.942004659164674 L4.652473377143913,22.06811371524402 L4.901649117082869,22.20164052611696 L5.157650650845703,22.342164967036318 L5.419672502895736,22.489244896121924 L5.6868902555476915,22.64241754550255 L5.958463142890668,22.801200977354814 L6.233536696148793,22.965095600257904 L6.511245432156102,23.133585741092993 L6.790715576486782,23.306141267541665 L7.071067812672761,23.482219256078313 " />
			<path d="M47.42640687182764,5.537684849499662 L47.41854094691792,5.489766872225891 L47.39496792129624,5.451963492993003 L47.3557619644224,5.424393655217974 L47.301046432741515,5.407144103810301 L47.230993481559054,5.400269112240433 L47.145823523376535,5.4037903117753485 L47.04580453439225,5.4176966234185935 L46.93125121134901,5.441944292768897 L46.802523981381746,5.47645702768771 L46.66002786798043,5.521126238342497 L46.50421121663631,5.575811378870522 L46.33556428418112,5.64034038958813 L46.15461769625771,5.714510238354166 L45.96194077777551,5.798087559384207 " />
			<path d="M45.96194077777549,5.798087559384216 L10.60660171859925,21.519305940765072 " />
			<path d="M7.071067812672776,23.482219256078324 L7.351420048858699,23.306141267540603 L7.630890193189181,23.133585741090865 L7.9085989291961525,22.96509560025472 L8.183672482453808,22.801200977350586 L8.455245369796188,22.642417545497285 L8.722463122447412,22.489244896115647 L8.984484974496596,22.342164967029042 L9.240486508258446,22.20164052610871 L9.489662248196307,22.06811371523483 L9.731228195246178,21.942004659154563 L9.964424293567859,21.8237101436142 L10.188516821961777,21.713602366924388 L10.40280070242736,21.61202776888654 L10.606601718599238,21.51930594076508 " />
			<path d="M-10.606601717238995,-9.008830554529233 L-10.86370624371028,-8.891664669528257 L-11.114266879760203,-8.771728398645731 L-11.358132697030664,-8.649093987006527 L-11.59515679987209,-8.523835304994611 L-11.825196413827824,-8.396027803756311 L-12.048112971636147,-8.265748469751342 L-12.263772196698042,-8.133075778379045 L-12.47204418396034,-7.998089646707751 L-12.672803478165703,-7.860871385335727 L-12.865929149422186,-7.721503649412694 L-13.051304866046856,-7.580070388851478 L-13.228818964639656,-7.436656797759717 L-13.398364517345287,-7.291349263122093 L-13.559839396262515,-7.144235312764076 L-13.713146334962202,-6.995403562628423 L-13.858192987077011,-6.844943663396227 L-13.994891981927342,-6.692946246484729 L-14.123160977150201,-6.539502869454333 L-14.242922708299162,-6.384705960857734 L-14.354105035385555,-6.2286487645644435 L-14.456640986332916,-6.071425283594161 L-14.504647065073586,-5.992405755952961 L-14.55046879731847,-5.9131302234928445 L-14.59409928248324,-5.8336106248173945 L-14.63553194997732,-5.75385893528567 L-14.674760560193382,-5.673887165208776 L-14.711779205447025,-5.593707358041122 L-14.746582310866437,-5.513331588566736 L-14.779164635231957,-5.432771961080867 L-14.809521271765385,-5.352040607567087 L-14.83764764886892,-5.2711496858702755 L-14.863539530813624,-5.190111377865712 L-14.887193018377317,-5.108937887624494 L-14.908604549431775,-5.027641439575666 L-14.92777089947918,-4.946234276665282 L-14.944689182137713,-4.864728658512634 L-14.959356849576238,-4.783136859564008 L-14.971771692897986,-4.701471167244218 L-14.981931842473225,-4.619743880106132 L-14.989835768220795,-4.53796730597857 L-14.995482279838553,-4.45615376011281 L-14.998870526982623,-4.374315563327919 L-14.999999999395442,-4.292465040155361 " />
			<path d="M-14.999999999395442,-4.2924650401552995 L-14.99694217809321,-4.1577935276117595 L-14.987769960889326,-4.0231769219242 L-14.972487087383945,-3.8886701075625565 L-14.95109978854989,-3.754327924233795 L-14.923616784192223,-3.6202051445232444 L-14.890049279393102,-3.4863564515632945 L-14.850410959943357,-3.352836416738559 L-14.804717986762666,-3.219699477436607 L-14.752988989310602,-3.0869999148533185 L-14.695245057991206,-2.95479183186193 L-14.63150973555425,-2.8231291309547744 L-14.561809007496619,-2.692065492266724 L-14.486171291467784,-2.5616543516892896 L-14.404627425683659,-2.431948879084298 L-14.317210656353554,-2.3030019566060362 L-14.223956624125396,-2.1748661571406918 L-14.124903349554685,-2.04759372287189 L-14.020091217603163,-1.9212365439810561 L-13.909562961173469,-1.7958461374912975 L-13.793363643686538,-1.6714736262634222 L-13.67154064070881,-1.5481697181526624 L-13.544143620636772,-1.4259846853346008 L-13.41122452444666,-1.3049683438087265 L-13.272837544517651,-1.185170033087978 L-13.129039102537103,-1.0666385960825537 L-12.979887826496896,-0.9494223591861952 L-12.825444526790248,-0.8335691125730551 L-12.665772171418734,-0.7191260907131904 L-12.500935860319645,-0.6061399531146199 L-12.331002798824104,-0.4946567652997973 L-12.156042270256828,-0.38472198002426117 L-11.976125607688674,-0.27638041874512087 " />
			<path d="M11.976136203237408,-0.27638666544003687 L12.156052257861141,-0.3847281224209045 L12.33101219240645,-0.49466279510941424 L12.500944674303659,-0.6061458622570961 L12.665780420715908,-0.7191318713226353 L12.825452226786295,-0.8335747570032277 L12.97989499303784,-0.9494278600157782 L13.129045751915081,-1.0666439461202741 L13.272843693456428,-1.1851752253775483 L13.411230190086892,-1.3049733716336283 L13.544148820521011,-1.4259895422227058 L13.671545392766252,-1.5481743978806661 L13.793367966217536,-1.6714781228611133 L13.909566872833835,-1.7958504452456534 L14.020094737388225,-1.9212406574401468 L14.12490649678315,-2.047597636848608 L14.223959418423014,-2.1748698667163073 L14.317213117636594,-2.303005457133546 L14.404629574142195,-2.431952166191601 L14.48617314754884,-2.5616574212821765 L14.561810591887122,-2.692068340531663 L14.63151106916386,-2.823131754361508 L14.695246161935009,-2.9547942271658902 L14.752989884891658,-3.0870020790978288 L14.804718695454467,-3.2197014079548922 L14.85041150337216,-3.352838111155573 L14.890049679320182,-3.4863579077973226 L14.923617062496033,-3.620206360787322 L14.951099967208163,-3.75432889903693 L14.97248718845572,-3.8886708397107363 L14.98777000649693,-4.0231774105212015 L14.99694219040421,-4.157793772059765 L15.000000000604558,-4.29246504015527 " />
			<path d="M15.000000000604558,-4.2924650401553 L14.9974587275419,-4.415236972868189 L14.989835769429764,-4.5379673059803505 L14.977133709203896,-4.660614453986517 L14.959356850784763,-4.783136859567563 L14.936511217619223,-4.905493007671639 L14.908604550639568,-5.0276414395809805 L14.8756463056406,-5.149540766959631 L14.837647650075686,-5.271149685877327 L14.794621459272793,-5.392426990804754 L14.746582312071887,-5.513331588575493 L14.693546485885058,-5.63382251230989 L14.63553195118117,-5.753858935296102 L14.572558365396791,-5.873400184823693 L14.504647066275552,-5.992405755965024 L14.431821064638134,-6.110835325299794 L14.354105036585365,-6.228648764578088 L14.271525315137062,-6.345806154317284 L14.184109881309443,-6.462267797328231 L14.091888354634147,-6.5779942321660965 L13.994891983122036,-6.692946246501356 L13.893153632675261,-6.807084890406335 L13.786707775951085,-6.920371489552874 L13.675590480681274,-7.032767658316612 L13.55983939745107,-7.144235312783408 L13.439493746941775,-7.254736683653574 L13.31459430664137,-7.364234329039488 L13.185183397027611,-7.472691147152263 L13.051304867228316,-7.580070388873187 L12.913004080163674,-7.686335670205667 L12.770327897175651,-7.79145098460344 L12.623324662149649,-7.89538071517091 L12.472044185133832,-7.998089646731459 L12.316537725461695,-8.099542977759604 L12.156857974383506,-8.199706332173045 L11.993059037212607,-8.298545770980526 L11.825196414992561,-8.396027803781596 L11.653326985691377,-8.492119400114383 L11.477508984929187,-8.586788000647513 L11.297801986245895,-8.680001528212395 L11.114266880915489,-8.77172839867214 L10.926965857313863,-8.861937531623411 L10.735962379847145,-8.9505983609276 L10.541321167447615,-9.03768084506774 L10.3431081716446,-9.123155477327678 L10.141390554217688,-9.206993295790014 L9.936236664439877,-9.289165893149452 L9.727716015918332,-9.36964542633824 L9.515899263040657,-9.44840462596041 L9.300858177034637,-9.525416805531634 L9.082665621649511,-9.600655870521583 L8.861395528467066,-9.67409632719571 L8.637122871850941,-9.745713291253454 L8.409923643542609,-9.815482496259929 L8.179874826912577,-9.883380301868296 L7.947054370875614,-9.949383701829971 L7.711541163478819,-10.013470331789975 L7.473415005171519,-10.075618476864783 L7.232756581765941,-10.135807079000134 L6.9896474370979,-10.194015744106254 L6.744169945396804,-10.25022474896813 L6.4964072833742925,-10.30441504792843 L6.2464434020408826,-10.356568279340891 L5.9943629982603275,-10.406666771791897 L5.740251486051287,-10.454693550088201 L5.484194967645866,-10.500632341008739 L5.226280204315086,-10.544467578818594 L4.9665945869710395,-10.586184410543225 L4.705226106555596,-10.625768701001203 L4.4422633242259035,-10.663207037593725 L4.177795341346685,-10.69848673484928 L3.911911769299369,-10.731595838721965 L3.6447026991185365,-10.762523130641942 L3.3762586709658198,-10.791258131316692 L3.106670643451575,-10.817791104281795 L2.8360299628147683,-10.842113059199987 L2.564428331971568,-10.864215754907423 L2.2919577794430848,-10.88409170220607 L2.0187106281727334,-10.901734166401337 L1.74477946424383,-10.917137169584016 L1.470257105508083,-10.930295492655835 L1.1952365701355532,-10.941204677097865 L0.9198110450966831,-10.949861026481228 L0.6440738545871324,-10.956261607719592 L0.3681184284061701,-10.960404252062999 L0.09203827029929573,-10.962287555832717 L-0.18407307372431317,-10.961910880896863 L-0.4601220470885551,-10.959274354886615 L-0.7360151143507386,-10.954378871152983 L-1.0116587928948761,-10.947226088464088 L-1.2869596846069575,-10.937818430443127 L-1.5618245075215917,-10.926159084747155 L-1.8361601274294126,-10.912252001986992 L-2.1098735894343,-10.896101894388611 L-2.382872149449844,-10.877714234196468 L-2.655063305624495,-10.857095251819294 L-2.926354829684524,-10.834251933719024 L-3.1966547981842868,-10.809192020043522 L-3.4658716236532667,-10.781924002003926 L-3.733914085629265,-10.752457118997537 L-4.000691361567193,-10.720801355477153 L-4.266113057613029,-10.68696743756799 L-4.530089239232571,-10.650966829433276 L-4.792530461684562,-10.61281172938977 L-5.053347800327795,-10.572515065774526 L-5.312452880751994,-10.530090492564316 L-5.569757908722311,-10.485552384749154 L-5.825175699927227,-10.438915833461524 L-6.078619709519755,-10.39019664086296 L-6.330004061441938,-10.339411314789707 L-6.57924357752287,-10.286577063159246 L-6.826253806340112,-10.231711788139632 L-7.070951051834883,-10.174834080083604 L-7.313252401671395,-10.115963211229472 L-7.553075755330543,-10.055119129170992 L-7.790339851928507,-9.992322450098403 L-8.024964297750982,-9.927594451812897 L-8.25686959349344,-9.860957066516931 L-8.485977161198374,-9.792432873382804 L-8.712209370880423,-9.722045090902004 L-8.935489566830217,-9.649817569017932 L-9.155742093588094,-9.57577478104469 L-9.372892321578945,-9.499941815374626 L-9.586866672399456,-9.422344366977459 L-9.797592643749123,-9.343008728693896 L-10.00499883399666,-9.261961782326672 L-10.209014966373479,-9.179230989532003 L-10.409571912786053,-9.09484438251458 L-10.606601717238899,-9.008830554529276 " />
			<path d="M-47.42640687061852,-7.43670871633738 L-47.42490096409953,-7.382145809684284 L-47.42038415164432,-7.327615769685917 L-47.41285915401183,-7.273151443199367 L-47.40233050397924,-7.218785637498355 L-47.38880454361166,-7.164551100511369 L-47.37228942044184,-7.110480501095529 L-47.35279508256243,-7.0566064093580945 L-47.33033327263363,-7.002961277037446 L-47.304917520809845,-6.949577417955374 L-47.276563136589616,-6.896486988552437 L-47.24528719959376,-6.84372196851813 L-47.21110854927724,-6.7913141415275105 L-47.17404777358098,-6.739295076095903 L-47.13412719653047,-6.687696106563206 L-47.09137086478861,-6.636548314219257 L-47.045804533170866,-6.585882508581624 L-46.997455649131574,-6.5357292088371075 L-46.9463533362306,-6.486118625458122 L-46.89252837659039,-6.437080642005035 L-46.836013192354,-6.388644797125431 L-46.77684182615516,-6.340840266761132 L-46.71504992061233,-6.293695846573706 L-46.650674696858836,-6.247239934599029 L-46.58375493212234,-6.201500514141376 L-46.4424445280114,-6.1122809064596275 L-46.29145913742034,-6.026251961378086 L-46.13116249737986,-5.943620930160698 L-45.961940776536146,-5.8645868781992965 " />
			<path d="M47.42640687182764,-1.1482213639732208 L47.42490096530867,-1.0936584573207186 L47.420384152853565,-1.0391284173229451 L47.412859155221234,-0.9846640908369853 L47.402330505188885,-0.930298285136561 L47.388804544821596,-0.8760637481501579 L47.37228942165213,-0.8219931487348959 L47.352795083773145,-0.7681190569980327 L47.33033327384483,-0.7144739246779482 L47.3049175220216,-0.661090065596431 L47.27656313780198,-0.6079996361940402 L47.2452872008068,-0.5552346161602685 L47.211108550491005,-0.5028267891701729 L47.17404777479555,-0.45080772373907685 L47.13412719774589,-0.3992087542068775 L47.09137086600494,-0.34806096186341096 L47.04580453438816,-0.2973951562262458 L46.99745565034989,-0.24724185648218067 L46.94635333744999,-0.1976312731036285 L46.89252837781092,-0.14859328965095708 L46.83601319357571,-0.10015744477174948 L46.77684182737811,-0.052352914407827855 L46.71504992183655,-0.005208494220756643 L46.650674698084394,0.04124741775358731 L46.58375493334927,0.08698683821092934 L46.44244452924121,0.17620644589212575 L46.29145913865319,0.2622353909732158 L46.13116249861589,0.3448664221902562 L45.961940777775496,0.42390047415142185 " />
			<path d="M-45.961940776536146,-5.864586878199296 L3.5355339067337823,16.14511885554572 " />
			<path d="M3.5355339067337797,16.14511885554572 L3.713273038432148,16.220365528297002 L3.8991013918496984,16.29164354601311 L4.092571290206404,16.35878119370615 L4.293216647571164,16.421616730902265 L4.500554091703628,16.47999878128861 L4.714084128540264,16.533786697392138 L4.933292345519314,16.582850899411692 L5.157650650845701,16.62707318738709 L5.386618545710428,16.666347025953183 L5.619644426399545,16.700577800992885 L5.856166913155817,16.729683047570862 L6.095616202591725,16.75359264859879 L6.337415440395738,16.772249003753558 L6.580982111024871,16.785607168241498 L6.825729441035661,16.793634961074318 L7.071067812672777,16.796313042595933 L7.316406184309842,16.793634961073387 L7.561153514320478,16.785607168239636 L7.804720184949354,16.77224900375077 L8.046519422753008,16.75359264859508 L8.285968712188456,16.729683047566244 L8.522491198944168,16.700577800987368 L8.755517079632627,16.666347025946777 L8.984484974496599,16.627073187379814 L9.208843279822137,16.582850899403564 L9.428051496800242,16.533786697383178 L9.641581533635845,16.479998781278837 L9.848918977767184,16.421616730891706 L10.049564335130736,16.358781193694828 L10.243034233486153,16.29164354600105 L10.428862586902333,16.220365528284237 L10.606601718599238,16.14511885553229 " />
			<path d="M45.96194077777549,0.4239004741514243 L10.60660171859925,16.14511885553228 " />
			<path d="M-14.999999999395445,2.873117740155089 L-14.999999999395445,-4.2924650401552995 " />
			<path d="M15.000000000604562,2.873117740155089 L15.000000000604562,-4.2924650401552995 " />

        </g>

        <!-- solid lines -->
        <g  stroke="rgb(0,0,0)" fill="none">
    			<path d="M-7.071067811448332,-14.829797357582798 L-43.84062043299163,1.5202697590532956 " />
			<path d="M-7.07106781144833,-14.829797357582796 L43.840620434200744,7.808757111412078 " />
			<path d="M-43.84062043299163,1.520269759053294 L7.071067812657446,24.158824228048168 " />
			<path d="M43.84062043420074,7.8087571114120795 L7.071067812657439,24.15882422804817 " />
			<path d="M-7.071067811463659,-18.695336909424167 L-7.071067811448331,-14.829797357582803 " />
			<path d="M-10.606601717390138,-19.35586185061009 L-10.402800701218244,-19.434492694708336 L-10.188516820752664,-19.49383867612542 L-9.964424292358746,-19.533713070447902 L-9.731228194037065,-19.553990418079138 L-9.489662246987194,-19.554606918981587 L-9.240486507049333,-19.535560633415322 L-8.984484973287483,-19.496911488041185 L-8.722463121238295,-19.43878108736933 L-8.455245368587075,-19.361352331146445 L-8.183672481244695,-19.26486883888549 L-7.908598927987036,-19.14963418334857 L-7.630890191980068,-19.01601093539472 L-7.351420047649583,-18.86441952319785 L-7.071067811463686,-18.69533690942416 " />
			<path d="M-10.606601717390138,-19.35586185061009 L-45.96194077656638,-3.634643469229232 " />
			<path d="M-47.42640687061852,-0.7508025028454703 L-43.84062043299163,1.5202697590533036 " />
			<path d="M-45.96194077656638,-3.634643469229234 L-46.1546176950486,-3.536975164175967 L-46.335564282972,-3.4205766987891657 L-46.50421121542719,-3.2858143057042257 L-46.660027866771316,-3.1331119972670742 L-46.80252398017263,-2.9629502314344682 L-46.93125121013989,-2.7758644000755055 L-47.045804533183144,-2.5724431444307383 L-47.14582352216742,-2.353326503029032 L-47.23099348034994,-2.1192038978895935 L-47.3010464315324,-1.8708119653452062 L-47.35576196321328,-1.608932238311825 L-47.394967920087126,-1.3343886872968629 L-47.418540945708806,-1.0480451278831389 L-47.42640687061852,-0.7508025028455001 " />
			<path d="M-7.07106781146366,-18.695336909424146 L-6.790715575277666,-18.864419523198915 L-6.511245430946985,-19.01601093539685 L-6.233536694939676,-19.149634183351758 L-5.958463141681552,-19.264868838889722 L-5.686890254338575,-19.36135233115171 L-5.41967250168662,-19.43878108737561 L-5.157650649636587,-19.49691148804846 L-4.901649115873752,-19.53556063342357 L-4.652473375934797,-19.554606918990782 L-4.4109074288837,-19.55399041808925 L-4.177711330560687,-19.5337130704589 L-3.9536188021653267,-19.493838676137273 L-3.7393349216982017,-19.434492694721005 L-3.5355339055246784,-19.355861850623537 " />
			<path d="M-3.5355339055246615,-19.35586185062353 L45.96194077774527,2.6538438831214854 " />
			<path d="M47.42640687182761,5.5376848494996995 L43.84062043420074,7.80875711141209 " />
			<path d="M45.96194077774527,2.653843883121484 L46.154617696229224,2.751512188174021 L46.33556428415446,2.867910653560137 L46.50421121661157,3.002673046644434 L46.660027867957695,3.155375355080997 L46.80252398136108,3.3255371209130637 L46.93125121133047,3.5126229522715366 L47.045804534375904,3.716044207915874 L47.145823523362424,3.9351608493171994 L47.23099348154723,4.16928345445632 L47.30104643273201,4.41767538700044 L47.355761964415244,4.6795551140336205 L47.39496792129147,4.954098665048435 L47.41854094691553,5.240442224462074 L47.42640687182764,5.537684849499662 " />
			<path d="M-11.976125607688664,-0.27638041874511554 L-11.710188166705233,-0.1242012380537707 L-11.434474159441589,0.02449795523238052 L-11.149213773169521,0.169593015583124 L-10.854645165212693,0.310962806475783 L-10.551014264114572,0.4484893015293192 L-10.238574564318371,0.5820576830418327 L-9.917586914530354,0.7115564378492198 L-9.588319299943286,0.8368774504249403 L-9.251046618501753,0.957916093143182 L-8.906050451396213,1.0745713136300585 L-8.553618827977344,1.1867457191298962 L-8.19404598528697,1.2943456578162165 L-7.827632122406349,1.3972812969794761 L-7.454683149826856,1.4954666980263323 L-7.075510434052386,1.5888198882277953 L-6.690430537646623,1.6772629291563632 L-6.299764954942241,1.7607219817550286 L-5.903839843632706,1.8391273679838038 L-5.502985752470729,1.9124136289923044 L-5.097537345300734,1.9805195797698412 L-4.687833121655708,2.043388360227378 L-4.2742151341517625,2.100967482668703 L-3.857028702916277,2.1532088756112 L-3.436622127288067,2.2000689239196234 L-3.013346395030317,2.241508505219369 L-2.587554889298972,2.27749302255884 L-2.1596030936112713,2.3079924332936477 L-1.7298482950607725,2.3329812741685236 L-1.298649286026581,2.352438682576002 L-0.8663660646258466,2.3663484139741326 L-0.43335953415965245,2.3746988554486723 L8.798196845470245e-06,2.3774830354084404 L0.43337712320843635,2.3746986294057404 L0.8663836316460413,2.366347962076987 L1.2986668163528956,2.352438005201922 L1.7298657740585512,2.332980371883033 L2.15962050668871,2.3079913068500426 L2.587572221919304,2.277491672897563 L3.013363632723946,2.241506933467222 L3.436639255664649,2.200067131388825 L3.8570457076767353,2.1532068637982924 L4.274232001100224,2.100965253253304 L4.687849836711355,2.0433859150707745 L5.097553894509562,1.9805169209134386 L5.503002122017193,1.9124107586559198 L5.9038560198512595,1.8391242885638146 L6.299780924328741,1.7607186958223728 L6.690446286869605,1.6772594394543887 L7.075525949964198,1.588816197669975 L7.454698419474625,1.49546280969383 L7.827647133042809,1.397277214118568 L8.194060724381103,1.2943413838355893 L8.55363328322483,1.186741257597797 L8.906064610729704,1.0745666682713182 L9.251060470100954,0.9579112678361064 L9.588332832244825,0.8368724491980641 L9.917600116237434,0.7115512648779543 L10.238587424410202,0.5820523426449729 L10.55102677185557,0.44848379816543726 L10.854657310161443,0.3109571447395103 L11.1492255451875,0.16958720020131235 L11.434485548701613,0.02449199106016131 L11.710199163699683,-0.12420734603704897 L11.976136203237367,-0.2763866654400138 " />
			<path d="M-10.606601717390138,-24.73004893584288 L-10.428862585693217,-24.805295608594836 L-10.243034232277038,-24.87657362631165 L-10.049564333921623,-24.943711274005423 L-9.84891897655807,-25.006546811202305 L-9.641581532426725,-25.064928861589436 L-9.428051495591124,-25.118716777693777 L-9.208843278613017,-25.167780979714166 L-8.984484973287481,-25.212003267690413 L-8.755517078423512,-25.251277106257376 L-8.522491197735054,-25.285507881297967 L-8.285968710979342,-25.314613127876843 L-8.046519421543893,-25.33852272890568 L-7.804720183740241,-25.357179084061368 L-7.561153513111365,-25.370537248550235 L-7.31640618310073,-25.378565041383986 L-7.071067811463662,-25.381243122906533 L-6.825729439826542,-25.378565041384917 L-6.5809821098157535,-25.370537248552097 L-6.3374154391866195,-25.357179084064157 L-6.095616201382609,-25.33852272890939 L-5.856166911946701,-25.31461312788146 L-5.6196444251904305,-25.285507881303484 L-5.386618544501314,-25.25127710626378 L-5.157650649636588,-25.21200326769769 L-4.9332923443102015,-25.16778097972229 L-4.714084127331153,-25.118716777702737 L-4.500554090494516,-25.06492886159921 L-4.293216646362049,-25.006546811212864 L-4.092571288997287,-24.94371127401675 L-3.899101390640581,-24.876573626323708 L-3.713273037223032,-24.8052956086076 L-3.5355339055246953,-24.730048935856335 " />
			<path d="M-10.606601717390138,-24.73004893584288 L-45.96194077656638,-9.008830554462023 " />
			<path d="M-45.96194077656637,-9.008830554462024 L-46.13116249740678,-8.929796502500857 L-46.29145913744407,-8.847165471283816 L-46.44244452803209,-8.761136526202726 L-46.58375493214015,-8.67191691852153 L-46.65067469687527,-8.62617749806419 L-46.715049920627436,-8.579721586089844 L-46.77684182616899,-8.532577165902772 L-46.83601319236659,-8.484772635538853 L-46.8925283766018,-8.436336790659645 L-46.946353336240875,-8.387298807206973 L-46.997455649140775,-8.33768822382842 L-47.045804533179044,-8.287534924084355 L-47.09137086479582,-8.23686911844719 L-47.134127196536774,-8.185721326103724 L-47.17404777358643,-8.134122356571524 L-47.21110854928189,-8.082103291140427 L-47.24528719959768,-8.029695464150333 L-47.27656313659286,-7.976930444116562 L-47.30491752081248,-7.92384001471417 L-47.33033327263571,-7.870456155632654 L-47.35279508256403,-7.816811023312569 L-47.37228942044301,-7.762936931575705 L-47.38880454361248,-7.7088663321604445 L-47.40233050397977,-7.654631795174041 L-47.41285915401212,-7.600265989473616 L-47.42038415164445,-7.545801662987657 L-47.42490096409956,-7.491271622989883 L-47.42640687061852,-7.4367087163374 " />
			<path d="M-3.5355339055246615,-24.73004893585632 L45.96194077774527,-2.720343202111305 " />
			<path d="M45.96194077774526,-2.7203432021113065 L46.13116249858898,-2.641309150149903 L46.291459138629456,-2.5586781189325154 L46.442444529220516,-2.4726491738509733 L46.583754933331456,-2.3834295661692257 L46.65067469806795,-2.337690145711572 L46.715049921821446,-2.291234233736895 L46.77684182736428,-2.2440898135494693 L46.83601319356312,-2.196285283185171 L46.89252837779951,-2.1478494383055655 L46.94635333743972,-2.0988114548524797 L46.99745565034069,-2.0492008714734946 L47.04580453437998,-1.9990475717289773 L47.091370865997725,-1.9483817660913436 L47.13412719773959,-1.8972339737473949 L47.1740477747901,-1.845635004214699 L47.21110855048636,-1.7936159387830908 L47.24528720080288,-1.7412081117924703 L47.27656313779873,-1.6884430917581643 L47.30491752201896,-1.6353526623552286 L47.33033327384275,-1.581968803273155 L47.35279508377155,-1.5283236709525054 L47.372289421650954,-1.474449579215072 L47.38880454482078,-1.4203789797992332 L47.40233050518836,-1.366144442812246 L47.41285915522094,-1.3117786371112334 L47.42038415285344,-1.2573143106246836 L47.424900965308645,-1.2027842706263183 L47.42640687182764,-1.1482213639732413 " />
			<path d="M-12.020815279618134,-0.6807008143911055 L-12.312200409620486,-0.5479128113892706 L-12.596169130478545,-0.4119850377216423 L-12.872550390053142,-0.27299937119641005 L-13.141177706608065,-0.13103953158208004 L-13.401889269092452,0.013808969822183492 L-13.654528034609688,0.1614588816953697 L-13.89894182301421,0.31182126525155596 L-14.134983408579085,0.46480554781329086 L-14.36251060867934,0.6203195773692158 L-14.581386369437434,0.7782696780829736 L-14.791478848279361,0.9385607067200188 L-14.99266149335174,1.101096109958374 L-15.18481311975188,1.2657779825487183 L-15.367817982525052,1.4325071262888547 L-15.541565846384914,1.6011831097769993 L-15.624935478155061,1.6862194592835773 L-15.705952052115128,1.7717043289079002 L-15.784603367467088,1.8576248449430475 L-15.860877579612158,1.9439680680753506 L-15.934763201934539,2.030720995332996 L-16.006249107531275,2.1178705620442333 L-16.075324530887944,2.205403643804885 L-16.14197906949986,2.2933070584548143 L-16.206202685438686,2.3815675680631045 L-16.26798570686409,2.470171880921649 L-16.327318829480298,2.5591066535468503 L-16.3841931179373,2.6483584926890855 L-16.43860000717645,2.737913957349666 L-16.490531303720346,2.82775956080502 L-16.539979186906752,2.9178817726377515 L-16.586936210066348,3.0082670207742597 L-16.63139530164416,3.0989016935286324 L-16.673349766264536,3.189772141652526 L-16.71279328573942,3.2808646803907084 L-16.749719920019864,3.3721655915419166 L-16.784124108090577,3.4636611255247556 L-16.81600066880738,3.555337503448348 L-16.84534480167748,3.6471809191873974 L-16.872152087582407,3.739177541461327 L-16.896418489443505,3.8313135159172056 L-16.918140352829912,3.923574967216176 L-16.937314406508904,4.015948001123044 L-16.95393776293852,4.108418706598684 L-16.968007918702433,4.20097315789498 L-16.979522754886936,4.293597416652 L-16.988480537400058,4.38627753399709 L-16.994879917232698,4.478999552645473 L-16.998719930661792,4.571749509002194 L-16.999999999395442,4.664513435264999 L-16.99871993066001,4.757277361527799 L-16.99487991722913,4.850027317884505 L-16.988480537394707,4.942749336532864 L-16.979522754879806,5.035429453877919 L-16.968007918693523,5.128053712634896 L-16.95393776292783,5.220608163931138 L-16.937314406496434,5.3130788694067155 L-16.918140352815666,5.40545190331351 L-16.896418489427486,5.497713354612398 L-16.872152087564615,5.589849329068185 L-16.84534480165792,5.681845951342012 L-16.816000668786057,5.77368936708095 L-16.78412410806749,5.865365745004421 L-16.74971991999502,5.956861278987129 L-16.712793285712817,6.048162190138197 L-16.673349766236182,6.13925472887623 L-16.631395301614063,6.230125176999964 L-16.586936210034505,6.320759849754168 L-16.539979186873172,6.411145097890498 L-16.49053130368503,6.5012673097230405 L-16.43860000713941,6.591112913178197 L-16.384193117898537,6.680668377838572 L-16.327318829439818,6.769920216980591 L-16.2679857068219,6.8588549896055655 L-16.206202685394796,6.947459302463875 L-16.141979069454273,7.035719812071921 L-16.075324530840664,7.123623226721598 L-16.006249107482315,7.211156308481986 L-15.9347632018839,7.298305875192952 L-15.860877579559853,7.385058802450317 L-15.784603367413123,7.47140202558233 L-15.705952052059512,7.557322541617179 L-15.6249354780978,7.6428074112411934 L-15.54156584632602,7.727843760747454 L-15.367817982462913,7.896519744234938 L-15.184813119686536,8.063248887974378 L-14.99266149328323,8.227930760563993 L-14.791478848207726,8.390466163801584 L-14.581386369362717,8.55075719243783 L-14.362510608601587,8.708707293150756 L-14.134983408498341,8.864221322705815 L-13.898941822930526,9.017205605266652 L-13.654528034523112,9.16756798882191 L-13.401889269003037,9.315217900694137 L-13.141177706515867,9.460066402097407 L-12.872550389958212,9.602026241710716 L-12.596169130380945,9.7410119082349 L-12.31220040952027,9.876939681901447 L-12.020815279515366,10.009727684902174 L-11.722189259872952,10.139295930709334 L-11.416502231740914,10.265566372256526 L-11.103938329554627,10.38846294895131 L-10.784685830121246,10.50791163249129 L-10.458937039208818,10.62384047145597 L-10.12688817570845,10.736179634647623 L-9.788739253439395,10.844861453154975 L-9.444693960668257,10.949820461114422 L-9.094959537414699,11.050993435144246 L-8.73974665061787,11.148319432427996 L-8.37926926723853,11.241739827424155 L-8.013744525373303,11.331198347179992 L-7.643392603458835,11.416641105228276 L-7.268436587644539,11.498016634046474 L-6.889102337413829,11.575275916058846 L-6.505618349534825,11.648372413162823 L-6.118215620422437,11.717262094761804 L-5.727127506994759,11.78190346428754 L-5.332589586107595,11.84225758419613 L-4.934839512651763,11.898288099422524 L-4.53411687639868,11.949961259279469 L-4.13066305768044,11.997245937787646 L-3.7247210819913295,12.040113652424816 L-3.316535473598355,12.078538581282604 L-2.9063521082489703,12.112497578620669 L-2.4944180650647176,12.14197018880882 L-2.080981477710005,12.166938658648736 L-1.6662913849256646,12.187387948067812 L-1.250597580517329,12.203305739178754 L-0.8341504628889812,12.2146824436994 L-0.4172008842123045,12.22151120872835 L6.772248572676988e-10,12.22378792087289 L0.4172008855667104,12.221511208726763 L0.8341504642432558,12.21468244369623 L1.250597581871385,12.203305739173999 L1.6662913862794144,12.187387948061478 L2.080981479063362,12.166938658640824 L2.494418066417595,12.141970188799338 L2.906352109601296,12.112497578609618 L3.316535474950013,12.078538581269996 L3.7247210833422333,12.040113652410659 L4.1306630590305335,11.997245937771945 L4.534116877747879,11.949961259262231 L4.934839513999954,11.898288099403764 L5.332589587454695,11.842257584175861 L5.727127508340713,11.781903464265769 L6.118215621767162,11.717262094738542 L6.505618350878212,11.648372413138093 L6.889102338755796,11.57527591603266 L7.2684365889850335,11.498016634018843 L7.64339260479778,11.416641105199218 L8.013744526710592,11.331198347149527 L8.379269268574086,11.241739827392305 L8.739746651951641,11.148319432394771 L9.0949595387466,11.050993435109673 L9.444693961998201,10.949820461078524 L9.788739254767309,10.84486145311777 L10.126888177034274,10.736179634609135 L10.458937040532494,10.623840471416216 L10.784685831442685,10.5079116324503 L11.103938330873778,10.388462948909103 L11.416502233057715,10.265566372213126 L11.722189261187314,10.13929593066478 L12.020815280827248,10.009727684856479 L12.312200410829611,9.876939681854637 L12.596169131687661,9.741011908187014 L12.872550391262266,9.602026241661775 L13.141177707817201,9.460066402047442 L13.401889270301576,9.315217900643184 L13.654528035818823,9.167567988769992 L13.898941824223343,9.017205605213805 L14.134983409788209,8.864221322652075 L14.362510609888455,8.708707293096158 L14.581386370646548,8.550757192382399 L14.791478849488483,8.390466163745348 L14.992661494560855,8.227930760506998 L15.184813120960989,8.06324888791666 L15.367817983734168,7.896519744176517 L15.541565847594036,7.7278437606883665 L15.624935479364176,7.642807411181796 L15.705952053324243,7.557322541557472 L15.784603368676205,7.471402025522325 L15.860877580821269,7.385058802390028 L15.934763203143653,7.298305875132376 L16.00624910874039,7.211156308421139 L16.07532453209706,7.123623226660488 L16.14197907070898,7.0357198120105515 L16.206202686647803,6.947459302402267 L16.267985708073205,6.858854989543723 L16.327318830689414,6.769920216918522 L16.384193119146413,6.680668377776294 L16.438600008385567,6.5911129131157065 L16.490531304929462,6.501267309660352 L16.53997918811587,6.411145097827621 L16.586936211275468,6.320759849691107 L16.631395302853278,6.23012517693674 L16.673349767473653,6.139254728812846 L16.712793286948532,6.048162190074664 L16.74971992122898,5.956861278923462 L16.784124109299693,5.8653657449406165 L16.816000670016496,5.773689367017024 L16.845344802886597,5.681845951277975 L16.872152088791523,5.589849329004039 L16.896418490652618,5.497713354548167 L16.91814035403903,5.4054519032491966 L16.93731440771802,5.313078869342329 L16.953937764147636,5.220608163866695 L16.96800791991155,5.128053712570392 L16.979522756096053,5.0354294538133715 L16.988480538609174,4.94274933646829 L16.994879918441814,4.850027317819899 L16.99871993187091,4.757277361463179 L17.000000000604558,4.66451343520038 L16.998719931869125,4.571749508937587 L16.994879918438247,4.478999552580881 L16.988480538603827,4.386277533932515 L16.979522756088922,4.293597416587467 L16.96800791990264,4.200973157830489 L16.953937764136946,4.108418706534241 L16.93731440770555,4.01594800105867 L16.918140354024786,3.9235749671518754 L16.896418490636606,3.8313135158529876 L16.87215208877374,3.7391775413972077 L16.845344802867043,3.6471809191233735 L16.816000669995177,3.555337503384436 L16.78412410927661,3.4636611254609644 L16.74971992120414,3.37216559147825 L16.71279328692194,3.2808646803271886 L16.673349767445306,3.189772141589156 L16.631395302823186,3.0989016934654217 L16.586936211243632,3.0082670207112243 L16.539979188082295,2.917881772574888 L16.490531304894155,2.827759560742345 L16.438600008348534,2.737913957287188 L16.38419311910766,2.648358492626808 L16.327318830648945,2.5591066534847955 L16.267985708031024,2.4701718808598194 L16.206202686603913,2.381567568001497 L16.141979070663393,2.293307058393457 L16.07532453204979,2.2054036437437876 L16.00624910869143,2.1178705619833864 L15.934763203093018,2.03072099527242 L15.860877580768975,1.9439680680150624 L15.784603368622241,1.8576248448830421 L15.705952053268629,1.7717043288481942 L15.624935479306917,1.686219459224179 L15.541565847535129,1.6011831097179128 L15.36781798367203,1.4325071262304347 L15.184813120895646,1.2657779824909876 L14.992661494492332,1.1010961099013676 L14.791478849416837,0.9385607066637833 L14.581386370571817,0.7782696780275309 L14.362510609810688,0.6203195773146053 L14.13498340970745,0.4648055477595534 L13.898941824139644,0.3118212651987209 L13.654528035732229,0.16145888164346278 L13.401889270212145,0.013808969771232249 L13.141177707724983,-0.13103953163203563 L12.872550391167339,-0.2729993712453389 L12.596169131590063,-0.4119850377695258 L12.31220041072938,-0.5479128114360794 L12.020815280724484,-0.6807008144368023 L11.72218926108208,-0.8102690602439591 L11.416502232950032,-0.9365395017911524 L11.103938330763732,-1.059436078485942 L10.784685831330364,-1.1788847620259162 L10.458937040417947,-1.2948136009905946 L10.126888176917568,-1.4071527641822517 L9.788739254648513,-1.5158345826896023 L9.444693961877388,-1.620793590649046 L9.094959538623844,-1.7219665646788673 L8.739746651827012,-1.8192925619626177 L8.379269268447663,-1.9127129569587789 L8.01374452658245,-2.002171476714614 L7.643392604667967,-2.087614234762902 L7.268436588853657,-2.1689897635811013 L6.88910233862296,-2.246249045593472 L6.505618350743944,-2.3193455426974516 L6.118215621631542,-2.388235224296433 L5.7271275082038775,-2.452876593822168 L5.332589587316699,-2.51323071373076 L4.934839513860852,-2.5692612289571564 L4.534116877607783,-2.6209343888140983 L4.130663058889529,-2.668219067322279 L3.724721083200403,-2.711086781959448 L3.316535474807444,-2.7495117108172353 L2.906352109458074,-2.7834707081552974 L2.4944180662738065,-2.812943318343451 L2.080981478919078,-2.8379117881833658 L1.666291386134753,-2.8583610776024413 L1.2505975817264323,-2.8742788687133825 L0.8341504640980695,-2.885655573234029 L0.4172008854213927,-2.892484338262978 L5.318784881869722e-10,-2.89476105040752 L-0.41720088435759195,-2.892484338261392 L-0.8341504630341374,-2.8856555732308573 L-1.2505975806622815,-2.874278868708628 L-1.666291385070296,-2.858361077596106 L-2.0809814778542286,-2.837911788175454 L-2.4944180652084764,-2.812943318333966 L-2.9063521083921775,-2.7834707081442467 L-3.3165354737408945,-2.749511710804625 L-3.724721082133115,-2.711086781945287 L-4.130663057821415,-2.6682190673065733 L-4.534116876538761,-2.6209343887968597 L-4.934839512790836,-2.5692612289383945 L-5.332589586245575,-2.513230713710489 L-5.727127507131595,-2.452876593800397 L-6.118215620558043,-2.3882352242731715 L-6.505618349669094,-2.319345542672721 L-6.889102337546678,-2.246249045567289 L-7.268436587775915,-2.168989763553471 L-7.643392603588662,-2.087614234733847 L-8.013744525501474,-2.0021714766841567 L-8.379269267364968,-1.9127129569269332 L-8.739746650742523,-1.8192925619294016 L-9.094959537537482,-1.721966564644302 L-9.444693960789083,-1.6207935906131512 L-9.788739253558191,-1.5158345826524 L-10.126888175825155,-1.4071527641437633 L-10.458937039323375,-1.294813600950846 L-10.784685830233567,-1.1788847619849294 L-11.10393832966466,-1.0594360784437313 L-11.416502231848597,-0.9365395017477542 L-11.722189259978196,-0.810269060199408 L-12.020815279617917,-0.6807008143912023 " />
			<path d="M-14.999999999395442,2.873117740155089 L-14.998870526982609,2.9549682633281473 L-14.995482279838505,3.036806460113486 L-14.989835768220685,3.118620005979693 L-14.981931842473028,3.2003965801076952 L-14.97177169289768,3.282123867246227 L-14.959356849575794,3.3637895595664613 L-14.944689182137111,3.445381358515525 L-14.927770899478396,3.526886976668615 L-14.908604549430782,3.6082941395794386 L-14.887193018376092,3.6895905876286994 L-14.863539530812142,3.7707640778703544 L-14.837647648867158,3.851802385875352 L-14.809521271763318,3.932693307572589 L-14.77916463522956,4.013424661086798 L-14.746582310863687,4.093984288573094 L-14.711779205443898,4.174360058047897 L-14.674760560189856,4.254539865215973 L-14.63553194997337,4.334511635293283 L-14.594099282478844,4.414263324825415 L-14.550468797313602,4.493782923501274 L-14.504647065068223,4.573058455961797 L-14.45664098632704,4.652077983603392 L-14.354105035378574,4.809301464574465 L-14.242922708290992,4.96535866086852 L-14.123160977140754,5.120155569465864 L-13.994891981916526,5.273598946496987 L-13.858192987064744,5.425596363409185 L-13.713146334948402,5.576056262642057 L-13.559839396247092,5.724888012778365 L-13.398364517328172,5.872001963137002 L-13.228818964620768,6.017309497775219 L-13.051304866026113,6.160723088867549 L-12.865929149399523,6.302156349429295 L-12.672803478141049,6.441524085352828 L-12.47204418393362,6.5787423467253205 L-12.263772196669198,6.713728478397044 L-12.048112971605116,6.846401169769736 L-11.825196413794536,6.976680503775064 L-11.595156799836497,7.104488005013684 L-11.35813269699271,7.229746687025878 L-11.114266879719828,7.352381098665326 L-10.863706243667448,7.472317369548051 L-10.606601717193655,7.589483254549183 L-10.343108170451446,7.703808177320708 L-10.073384322100717,7.815223272804035 L-9.797592643702092,7.923661428711723 L-9.515899261850125,8.029057325953417 L-9.228473858104843,8.131347477981624 L-8.935489566781945,8.230470269033638 L-8.637122870663122,8.326365991246572 L-8.333553494689475,8.418976880623132 L-8.0249642977019,8.508247151826506 L-7.711541162293766,8.594123031783349 L-7.393472882842203,8.67655279207468 L-7.070951051785409,8.75548678009515 L-6.744169944214544,8.830877448961907 L-6.413326400849675,8.902679386155063 L-6.078619709470289,8.9708493408725 L-5.74025148487179,9.035346250082533 L-5.398425547420266,9.096131263258753 L-5.053347800278742,9.153167765782118 L-4.705226105378812,9.206421400996243 L-4.354270158212377,9.255860090902553 L-4.000691361518918,9.30145405548288 L-3.6447026979444015,9.343175830637833 L-3.2865186017484915,9.381000284730133 L-2.9263548296373667,9.414904633722983 L-2.564428330799959,9.444868454904316 L-2.200957116225868,9.47087369918867 L-1.8361601273836858,9.49290470198929 L-1.470257104338853,9.510948192653876 L-1.1034684533904568,9.524993302458347 L-0.7360151143067135,9.535031571153732 L-0.3681184272391256,9.541056952062327 L6.045574694950721e-10,9.543065815719975 L0.36811842844824055,9.541056952062327 L0.7360151155158285,9.535031571153732 L1.1034684545995717,9.524993302458347 L1.470257105547968,9.510948192653878 L1.8361601285928006,9.49290470198929 L2.200957117434983,9.47087369918867 L2.5644283320090735,9.444868454904316 L2.9263548308464813,9.414904633722983 L3.286518602957606,9.381000284730133 L3.644702699153516,9.343175830637833 L4.000691362728033,9.30145405548288 L4.354270159421491,9.255860090902553 L4.705226106587927,9.206421400996243 L5.053347801487857,9.153167765782118 L5.398425548629381,9.096131263258753 L5.740251486080904,9.035346250082533 L6.078619710679407,8.970849340872498 L6.413326402058792,8.90267938615506 L6.744169945423659,8.830877448961907 L7.070951052994523,8.755486780095152 L7.3934728840513175,8.676552792074682 L7.711541163502883,8.594123031783349 L8.024964298911014,8.508247151826508 L8.333553495898588,8.418976880623134 L8.637122871872233,8.326365991246574 L8.935489567991052,8.230470269033642 L9.228473859313954,8.131347477981627 L9.51589926305924,8.029057325953419 L9.79759264491121,7.923661428711723 L10.073384323309835,7.815223272804035 L10.343108171660562,7.703808177320708 L10.60660171840277,7.589483254549183 L10.86370624487656,7.472317369548053 L11.114266880928941,7.352381098665328 L11.358132698201823,7.22974668702588 L11.595156801045613,7.104488005013684 L11.825196415003655,6.976680503775064 L12.048112972814234,6.8464011697697345 L12.263772197878316,6.713728478397043 L12.472044185142739,6.57874234672532 L12.672803479350165,6.441524085352826 L12.865929150608638,6.302156349429295 L13.051304867235228,6.160723088867549 L13.228818965829882,6.01730949777522 L13.398364518537287,5.872001963137004 L13.559839397456205,5.724888012778366 L13.713146336157514,5.57605626264206 L13.85819298827386,5.425596363409185 L13.994891983125642,5.2735989464969855 L14.12316097834987,5.120155569465862 L14.242922709500109,4.965358660868518 L14.35410503658769,4.809301464574464 L14.456640987536156,4.652077983603392 L14.50464706627734,4.573058455961796 L14.550468798522719,4.493782923501274 L14.594099283687958,4.414263324825415 L14.635531951182486,4.334511635293284 L14.674760561398971,4.254539865215974 L14.711779206653015,4.174360058047899 L14.746582312072803,4.093984288573096 L14.779164636438676,4.0134246610868 L14.809521272972432,3.932693307572591 L14.837647650076272,3.851802385875354 L14.863539532021257,3.770764077870357 L14.887193019585208,3.6895905876287025 L14.908604550639899,3.6082941395794386 L14.927770900687511,3.5268869766686155 L14.944689183346227,3.445381358515526 L14.95935685078491,3.3637895595664595 L14.971771694106796,3.2821238672462254 L14.981931843682144,3.200396580107694 L14.989835769429801,3.1186200059796922 L14.995482281047622,3.0368064601134854 L14.998870528191725,2.954968263328147 L15.000000000604558,2.8731177401551182 " />
			<path d="M-10.606601717390138,-24.73004893584288 L-10.606601717390138,-19.35586185061009 " />
			<path d="M-3.5355339055246624,-24.73004893585632 L-3.5355339055246624,-19.35586185062353 " />
			<path d="M-45.96194077656638,-9.008830554462024 L-45.96194077656638,-3.634643469229233 " />
			<path d="M45.96194077774527,-2.720343202111306 L45.96194077774527,2.6538438831214854 " />
			<path d="M-11.208204524609778,-0.6446218144743376 L-11.416316708548447,-0.5502195888963111 L-11.619264051888088,-0.45446215263286704 L-11.81691888716878,-0.3574330237493136 L-12.00915847164451,-0.25922275433532954 L-12.195864987283167,-0.15992893050496454 L-12.37692554076655,-0.05965617239663923 L-12.552232163490359,0.04148386582685537 L-12.721681811564201,0.143372495978357 L-12.885176365811587,0.2458839958463327 L-13.042622631769937,0.34888560919487877 L-13.193932339690575,0.45223754576372044 L-13.339022144538728,0.5557929812682123 L-13.477813625993532,0.6593980573993388 L-13.610233288448025,0.7628918818237123 L-13.736212561009154,0.8661065281835749 L-13.855687797497769,0.9688670360967979 L-13.939870174187298,1.0444428713431806 L-14.020489284425427,1.1196149319609396 L-14.097534895973222,1.1942912049786636 L-14.171004691597185,1.2683826668830203 L-14.240904269069233,1.3418032836187568 L-14.30724714116671,1.4144700105886996 L-14.370054735672388,1.4863027926537549 L-14.429356395374459,1.5572245641329068 L-14.485189378066538,1.6271612488032208 L-14.537598856547667,1.6960417598998399 L-14.586637918622312,1.7637980001159872 L-14.632367567100363,1.8303648616029649 L-14.714182209533359,1.9596849642850172 L-14.783689106434252,2.083540994318001 L-14.820683370167085,2.1569563217745995 L-14.853519653679268,2.22820470529672 L-14.882413782853533,2.2972985826128967 L-14.90759006829088,2.3642855814455075 L-14.930661668429709,2.4337511550009268 L-14.949982774011435,2.5010304081703434 L-14.965828289964021,2.5663334153241677 L-14.978436782667238,2.6299068276375444 L-14.98801047995268,2.692033873090349 L-14.994715271103745,2.753034356467191 L-14.998680706855655,2.813264659357413 L-14.999999999395444,2.873117740155087 " />
			<path d="M15.000000000604558,2.8731177401550894 L14.998732427109527,2.814443927400744 L14.994922196775425,2.755414432670574 L14.988483552787953,2.695658936580445 L14.979296629145065,2.6348405278704146 L14.967207450656975,2.5726557034047306 L14.952027932946145,2.508834368171833 L14.9335358824473,2.4431398352843514 L14.911474996407419,2.375368825979107 L14.889194795613097,2.3146309128989726 L14.863865519382067,2.2521481150572753 L14.835312720371423,2.187881415443857 L14.803370779550157,2.121812602343905 L14.767882906199166,2.0539442693379493 L14.72870113791125,1.9842998153018656 L14.685686340591111,1.9129234444068737 L14.638708208455352,1.8398801661195374 L14.568490979348793,1.738324479405401 L14.490541143899213,1.6340439966329205 L14.4046684418799,1.5272980152584408 L14.310722039653056,1.4183523049499438 L14.208590530169802,1.3074791075870515 L14.098201932970172,1.194957137261023 L13.97952369418312,1.0810715802747561 L13.852562686526515,0.9661140951427871 L13.72277470356487,0.8548495675380362 L13.585368492784784,0.743078624899605 L13.44042879218646,0.6310204479751071 L13.288046480538013,0.5188848245831496 L13.128318577375484,0.40687214961333606 L12.961348243002833,0.295173425026267 L12.787244778491939,0.18397025985353932 L12.606123625682601,0.07343487019774575 L12.41810636718254,-0.03626992076752433 L12.223320726367394,-0.14499068279768523 L12.021900567380724,-0.25258337857715496 L11.81398589513401,-0.35891336371935556 L11.599722855306652,-0.4638553867667117 L11.379263734345969,-0.5672935891906534 L11.152766959467204,-0.6691215053916126 L10.920397098653513,-0.7692420626990266 L10.642466837395999,-0.8836468584562001 L10.356962127481447,-0.9953742650412545 L10.064128679874445,-1.1043087339405258 L9.764212841505538,-1.2103389927852217 L9.457461595271251,-1.3133580453514169 L9.144122560034067,-1.413263171560057 L8.824443990622413,-1.5099559274769654 L8.498674777830686,-1.6033421453128354 L8.167064448419254,-1.6933319334232286 L7.829863165114442,-1.7798396763085784 L7.487321726608528,-1.8627840346141937 L7.139691567559751,-1.9420879451302546 L6.7872247585923215,-2.0176786207918096 L6.430174006296417,-2.089487550678779 L6.068792653228157,-2.157450500015958 L5.7033346779096235,-2.221507510173013 L5.334054694828876,-2.2816028986644796 L4.961207954439935,-2.337685259149765 L4.585050343162769,-2.389707461433151 L4.205838383383301,-2.4376266514637903 L3.823829233453438,-2.4814042513357055 L3.4392806876910447,-2.5210059592877903 L3.052451176379935,-2.556401749703813 L2.663599765769879,-2.587565873112413 L2.272986158076627,-2.614476856187099 L1.880870691481892,-2.6371175017462534 L1.4875143401333304,-2.6554748887531296 L1.0931787141445568,-2.6695403723158533 L0.6981260595951682,-2.67930958368742 L0.3026192585307168,-2.6847824302656997 L-0.09307817103729121,-2.685963095593432 L-0.48870207513137665,-2.6828600393582285 L-0.8666718785598098,-2.6757096420590654 L-1.2441298453328895,-2.664653323247665 L-1.6208455760832847,-2.649689174965756 L-1.9965892587791216,-2.630819109472858 L-2.3711316687239763,-2.608048859246282 L-2.744244168556864,-2.581387976981131 L-3.1156987082522676,-2.5508498355903 L-3.485267825120116,-2.5164516282044738 L-3.852724643805775,-2.4782143681721314 L-4.217842876290057,-2.4361628890595433 L-4.580396821889237,-2.3903258446507696 L-4.940161367255046,-2.340735708947662 L-5.29691198637464,-2.2874287761698664 L-5.6504247405706325,-2.23044516075482 L-6.000476278501093,-2.16982879735775 L-6.346843836159548,-2.1056274408516744 L-6.689305236874952,-2.037892666327405 L-7.027638891311713,-1.9666798690935474 L-7.361623797469696,-1.8920482646764942 L-7.691039540684226,-1.8140608888204297 L-8.015666293626053,-1.7327845974873335 L-8.335284816301378,-1.648290066856977 L-8.649676456051873,-1.56065179332692 L-8.958623147554645,-1.469948093512513 L-9.261907412822248,-1.3762611042469028 L-9.559312361202682,-1.2796767825810276 L-9.850621689379407,-1.180284905783613 L-10.135619681371331,-1.0781790713411765 L-10.414091208532806,-0.9734566969580314 L-10.685821729553627,-0.8662190205562836 L-10.950597290459049,-0.756571100275824 L-11.20820452460967,-0.6446218144743865 " />
			<path d="M-47.42640687061852,-7.436708716337381 L-47.42640687061852,-0.750802502854997 " />
			<path d="M47.42640687182764,-1.14822136397322 L47.42640687182764,5.537684849509166 " />

        </g>
        </g>
    </svg>
    