<?xml version="1.0" encoding="UTF-8" standalone="no"?>
    <svg
    xmlns:svg="http://www.w3.org/2000/svg"
    xmlns="http://www.w3.org/2000/svg"
    width="500.0"
    height="220.0"
    >
        <g transform="scale(2.0624999999999996, -2.0624999999999996)   translate(44.84848413122437,-45.14826135006773)" stroke-width="0.484848484848485"  fill="none">
        <!-- hidden lines -->
        <g  stroke="rgb(160,160,160)" fill="none" stroke-dasharray="0.484848484848485,0.484848484848485" >
    			<path d="M28.284272108174488,12.895010682247978 L28.196711059066008,12.935250976693224 L28.108934661111885,12.978083478415773 L28.020998436367158,13.023480876597672 L27.932957848469076,13.071414182202519 L27.844868299419257,13.12185273439603 L27.756785126365916,13.174764206966614 L27.668763598386015,13.230114614745931 L27.580858913267484,13.287868320029476 L27.49312619429139,13.347988038997144 L27.40562048701413,13.410434848133796 L27.23150867307714,13.54214676520649 L27.058956290296425,13.68266434039754 L26.88839171866249,13.83162439437795 L26.720235279835315,13.988643514941154 L26.554899001509597,14.153318634151718 L26.39278630963287,14.32522775427928 L26.234288606945775,14.503933874304275 L26.079786739036635,14.688983926910915 L25.92964865389239,14.879912051625098 L25.784228818770266,15.076240791220595 L25.64386837813971,15.27748148225726 L25.508893535916528,15.483137186738 L25.37961509672814,15.69270384694634 L25.256328696254737,15.905670890297609 L25.139313638285973,16.121523646988067 L25.02883315030835,16.339743597488937 L24.925134291947256,16.559809324315236 L24.828446654740393,16.78119974568055 L24.738983470130208,17.00339266578589 L24.656940773683264,17.22586737948102 L24.582497506454967,17.44810505383047 L24.515815715195355,17.669588954205185 L24.457039996172536,17.88980693719519 L24.406297792995844,18.108250672458794 L24.363699401729033,18.324417232777996 L24.32933782752029,18.5378098203042 L24.30328878460225,18.747937766558234 " />
			<path d="M24.30328878460225,18.74793776655825 L24.291469303688032,18.874761957906546 L24.282797665073176,19.000074275038894 L24.277281825059614,19.123765108519198 L24.274927152554827,19.245726565559604 L24.27573647223534,19.36585244317815 L24.279710098837597,19.484038208280843 L24.286845862576243,19.600180984668196 L24.297139125689796,19.71417954696619 L24.310582790113713,19.825934321481668 L24.327167296280866,19.93534739398221 L24.346880613049404,20.042322524400397 L24.369708218758003,20.14676516846256 L24.39563307340853,20.248582506241945 L24.42463558197609,20.34768347763631 L24.45669354884648,20.443978824770006 L24.49178212338103,20.537381141320452 L24.529873736608835,20.627804928769073 L24.570938029046406,20.715166659576678 L24.61494225388001,20.799385734632448 L24.66185212313428,20.88038581113286 L24.711629925272454,20.958091178141505 L24.76423537042765,21.0324286559671 L24.81962563180888,21.10332777925329 L24.877755316044837,21.170720840418273 L24.938576433527658,21.234542933094385 L25.002038368756676,21.294731995567744 L25.068087850682204,21.351228854217837 L25.1366692880765,21.403977583173948 L25.207724518994983,21.452925450151042 L25.281192590100577,21.498022758698514 L25.35701019870074,21.539223252920536 L25.43511166928282,21.57648416791602 " />
			<path d="M25.435111669282826,21.57648416791603 L25.53728155437463,21.61799047828779 L25.642866892895903,21.653033207557762 L25.751717386102285,21.681550280403417 L25.86368196017511,21.703490264281818 L25.978598139727687,21.718809995791002 L26.09629590045157,21.72747672039318 L26.216601290988105,21.72946882981546 L26.339336526024624,21.724775630919805 L26.464320057032374,21.71339719355238 L26.591366620646234,21.695344277372268 L26.720287264686213,21.670638337659486 L26.850889351820687,21.639311610102478 L26.982976540871455,21.601407274564842 L27.116348745760504,21.556979697831526 L27.250802072098615,21.506094755334328 L27.38612873141566,21.448830231856775 " />
			<path d="M27.386128731415674,21.448830231856768 L27.52742198019746,21.382676075940395 L27.669213734912542,21.309835228120203 L27.811267245541334,21.230430319267402 L27.953347514523003,21.144595016258414 L28.09522129526829,21.05247359214006 L28.2366571002999,20.954220578765295 L28.377425219020537,20.850000501899455 L28.517297745108507,20.73998769879706 L28.656048613540978,20.624366218249087 L28.793453647244807,20.50332980310084 L28.929290613374988,20.377081955240275 L29.06333928922072,20.2458360830569 L29.195382042575144,20.10981519581303 L29.32521426686262,19.969240614629104 L29.452633884291902,19.824341813300087 L29.577441402234705,19.675356641015945 L29.699442915409154,19.522528077728925 L29.818450058564483,19.36610409867822 L29.93427995916574,19.206337538914596 L30.04675585074092,19.043485037130594 L30.155707762674343,18.877805949159377 L30.26097153324694,18.70956342993089 L30.362389828267958,18.5390227185412 L30.459812087791615,18.36645101574392 L30.55309444597895,18.1921173998837 L30.64209967294226,18.016292699405287 L30.726697881999574,17.83924794275289 L30.806766297311373,17.661254625241078 L30.882189103125217,17.482584577118825 L30.95285762567903,17.303509550122403 L31.01867040466088,17.124300852082396 L31.079533221024214,16.945228922776394 L31.135359087824,16.76656319185818 L31.186068347052593,16.588571531797804 L31.231588545420298,16.41152077974113 L31.271854548779896,16.235675781741815 L31.306808591991114,16.061299068929173 L31.336400278920618,15.888650857508177 L31.360586582442004,15.717989048759462 L31.379331917394122,15.549568480621398 L31.39260814611576,15.383640113328253 L31.40039441491124,15.220453616075801 L31.402677498032723,15.06025458510196 L31.399451749250495,14.903284381027209 L31.390719077409578,14.749780123542008 L31.376488969078952,14.599974655543438 L31.35677855829343,14.454096476721022 L31.331612743388128,14.312369646591762 L31.301024322694378,14.175013529683934 L31.26505364238227,14.042240797719396 L31.223748856217103,13.91425876816323 L31.17716606429701,13.791268897114236 L31.12536924587469,13.67346633875022 L31.06843008478031,13.561039308208649 L31.00642850999817,13.454169462537973 L30.939452388833498,13.353031127227569 L30.86759735901011,13.257790616087417 L30.79096693245243,13.168606061889538 L30.709672599067535,13.085627247009437 L30.623833812113165,13.008995326560097 L30.53357722404467,12.938841754615705 L30.439037837103236,12.875288940480605 L30.34035803482407,12.818449273401084 L30.237687392936312,12.768424707987338 " />
			<path d="M30.237687392936298,12.768424707987332 L30.13524623960857,12.726798721307265 L30.029399634847426,12.691642644907747 L29.920297776445192,12.663018401480866 L29.80809397940589,12.64097802749929 L29.692954798695332,12.625565331088037 L29.57505128766607,12.616812929225958 L29.454558344334927,12.614742376151534 L29.331654613474928,12.61936437542225 L29.206522411687175,12.630678914337045 L29.079347675452535,12.648675320721837 L28.95031993216323,12.673332242078141 L28.819632294134315,12.704617547094747 L28.68748147559502,12.742488149522496 L28.55406783265996,12.786889754412117 L28.419595426280257,12.837756526715156 L28.284272108174513,12.895010682247968 " />
			<path d="M-39.32263229062429,7.163555654949942 L-39.281180591097865,7.446690278366773 L-39.23465123532038,7.737382954456899 L-39.18322730519082,8.034476194455376 L-39.127109388011505,8.336799157595733 L-39.066514743396695,8.643168576382305 L-39.001676739775284,8.952389534716056 L-38.93284451806184,9.263256131894934 L-38.8602828556938,9.57455206479803 L-38.784272219855886,9.885051159851127 L-38.70510901433641,10.193517885659453 L-38.62310604008325,10.498707876481706 L-38.53859320515101,10.799368496007713 L-38.451915293251915,11.09425025863902 L-38.3633968869435,11.382221260931868 L-38.27340541724557,11.662054394901713 L-38.18232444242554,11.932529872518671 L-38.09053889689616,12.192482173536199 L-37.99843476235596,12.44079820018439 L-37.90639874339759,12.67641657571456 L-37.814817939135736,12.898327976235997 L-37.72407949930558,13.105576475160845 L-37.63457025018186,13.297261969448135 L-37.54667627256801,13.47254384671296 L-37.460782411004296,13.630646142141924 L-37.37726715526446,13.770871757751575 L-37.296461656147,13.89266489934804 L-37.25718435325408,13.946481681344174 L-37.2187150225786,13.995499042245626 L-37.18109498651662,14.03966578484765 L-37.14436408712584,14.078937150118062 L-37.10856073180332,14.113274581339601 L-37.073721931574745,14.142645525208135 L-37.03988333265562,14.167023266439083 L-37.00707924183744,14.186386792943338 L-36.97534264614342,14.20072068914283 L-36.94470522709065,14.210015055504833 L-36.915197369787656,14.214265452882964 L-36.88684816698805,14.213472870761755 " />
			<path d="M-36.88684816698805,14.213472870761754 L-36.865860696195405,14.209439065611276 L-36.845586472916345,14.20243397023928 L-36.82603714730859,14.1924645860233 L-36.807223908961134,14.179539836799577 L-36.78915748165151,14.16367058926861 L-36.77184811682415,14.144869679090677 L-36.755305585703056,14.12315194302778 L-36.739539169938666,14.098534257550588 L-36.72455765067587,14.071035584390922 L-36.71036929591673,14.040677023582477 L-36.68440249731414,13.971475706224842 L-36.66168840747093,13.891121423975529 L-36.64226820486264,13.799818587148271 L-36.62618058596926,13.697812989108305 L-36.61345527014704,13.585373282263367 L-36.60411355541941,13.462789407729076 L-36.5981687647618,13.330371349984988 L-36.59562659482306,13.188448157104126 L-36.59648538020089,13.037367188635276 L-36.600736283275516,12.877493561526006 L-36.60836341649207,12.709209772783042 L-36.619343900868564,12.53291548587519 L-36.63364786139307,12.349027476192708 L-36.651238356859785,12.157979739185672 L-36.6720712385805,11.960223773112466 L-36.69609492929416,11.756229056638228 L-36.723250576716374,11.546480298422075 L-36.75348106820658,11.331415013175423 L-36.78671899062406,11.111520349216597 L-36.82288742215689,10.887315413839646 L-36.86190348218746,10.659324904139877 L-36.90367858673461,10.428078794548252 L-36.948118637740464,10.194112069135915 L-36.99512415502771,9.957964491610557 L-37.044590357719635,9.720180406472782 L-37.096407199882066,9.481308565347105 L-37.15045936311264,9.24190197304868 L-37.206626206769805,9.002517748493313 L-37.26478167450027,8.763716996104712 L-37.32479415369039,8.526064683919552 L-37.3865262824336,8.290129525137171 L-37.44983469657252,8.056483860407349 L-37.51456970734108,7.825703538695996 L-37.580581314664904,7.598346066499957 L-37.647733209797394,7.374906675642416 L-37.715860784786926,7.15596029760362 L-37.784795391406355,6.942073139996885 L-37.85436763073324,6.7337923286262065 L-37.92440740850086,6.531646579782811 L-37.99474398834498,6.336146619119347 L-38.06520604417525,6.1477853757618215 L-38.13562171321246,5.967037969691648 L-38.20581865154522,5.7943614998023785 L-38.2756240943722,5.630194629407953 L-38.34486492340826,5.474956955351528 L-38.41336774424556,5.329048136236182 L-38.48095897677272,5.192846744671031 L-38.547464962067906,5.066708797798534 L-38.612712089493904,4.950965909740997 L-38.676535692832765,4.84590917625152 L-38.73879350893007,4.751773108281496 L-38.79932260354069,4.668804848216508 L-38.85796604884171,4.597215940893742 L-38.91457490329346,4.537180833111493 L-38.9690078110657,4.488839064414396 L-38.99536611014663,4.469087668974006 L-39.021130703560345,4.4522969597218065 L-39.04628593696799,4.438475244701145 L-39.070816589613685,4.427628893197996 L-39.09470787194465,4.419762355403942 L-39.117945424312005,4.414878177063498 L-39.140515316732625,4.41297700924933 L-39.16240404970537,4.4140576133476115 " />
			<path d="M-39.16240404970538,4.414057613347612 L-39.19184685677928,4.420562949242093 L-39.21989779169018,4.4328782748897915 L-39.246524237504005,4.450981514836303 L-39.27169529770629,4.474843195626199 L-39.2953818376368,4.504426309384474 L-39.31755653636159,4.539686132367505 L-39.33819395006202,4.580569993959418 L-39.357270588211996,4.62701699069282 L-39.37476500491852,4.6789576419666306 L-39.39066108041173,4.736326110786114 L-39.40494414331268,4.7990541042879284 L-39.41759862446594,4.867058352781515 L-39.42861124288703,4.9402498908159584 L-39.437970899571944,5.018534368125237 L-39.445668586624464,5.10181231824637 L-39.45169731007325,5.18997938933166 L-39.458729581201865,5.380540212287301 L-39.459049837380135,5.589291073323198 L-39.45266932073265,5.815237773420683 L-39.4396276436256,6.057320359781554 L-39.41999251447909,6.31441455566685 L-39.39385992152622,6.585332010081655 L-39.36135480462088,6.868819319556612 L-39.3226322906243,7.163555654949882 " />
			<path d="M-5.3600859472650875,22.287375485914957 L-5.357329039217525,22.413019283045394 L-5.358905957733496,22.53804372673962 L-5.364816740044146,22.662335569330235 L-5.375057506191319,22.78578299892871 L-5.38962058486045,22.90827559759506 L-5.408494620331442,23.02970430749248 L-5.431664662272727,23.14996140427226 L-5.45911223991235,23.268940477035482 L-5.490815421928561,23.3865364143185 L-5.526748863211024,23.502645395650248 L-5.566883839452382,23.61716488833014 L-5.611188270338586,23.7299936491761 L-5.6596267319149725,23.8410317310932 L-5.712160458513784,23.950180494414116 L-5.768747334437391,24.057342623063423 L-5.829341875400148,24.162422145698613 " />
			<path d="M-5.829341875400151,24.162422145698613 L-5.881525259250494,24.246251692596996 L-5.936297410473686,24.328591988261238 L-5.9936288699252405,24.409393505177622 L-6.053488638011426,24.48860735707515 L-6.115844149794051,24.56618531608707 L-6.180661246179522,24.64207983209695 L-6.247904140907756,24.71624405445532 L-6.317535383020044,24.788631856272275 L-6.38951581444842,24.85919786151052 L-6.463804522332559,24.927897475122748 L-6.540358785633714,24.99468691649634 L-6.619134015578683,25.05952325648769 L-6.700083689430239,25.122364458347693 L-6.783164976916739,25.18317347563905 L-6.868343121991879,25.241920126191054 L-6.955567220423537,25.29856404703549 L-7.044784293264119,25.353066048207346 L-7.135940230455503,25.405388736299322 L-7.228979825946192,25.45549646348979 L-7.32384680896541,25.503355283405753 L-7.420483871743994,25.548932913307606 L-7.518832693948133,25.59219870213531 L-7.618833964068295,25.63312360400835 L-7.720427397981911,25.67168015682458 L-7.823551754884634,25.707842465655848 L-7.928144850761212,25.74158619069115 L-8.034143569543305,25.772888539530644 L-8.141483872077776,25.801728263686787 L-8.250100803005257,25.828085659201633 L-8.359928495625024,25.851942571341908 L-8.470900174798466,25.87328240338649 L-8.582948157919681,25.892090129573564 L-8.696003853957953,25.908352312327462 L-8.809997760553145,25.922057123938057 L-8.924859459121269,25.93319437291832 L-9.040517607903721,25.941755535318343 L-9.156899932869958,25.947733791327067 L-9.273933216359584,25.9511240675455 L-9.391543283326119,25.951923085368207 L-9.5096549850209,25.950129415962465 L-9.628192179931876,25.945743542387287 L-9.747077711768252,25.938767929447348 L-9.866233384258207,25.929207101929524 L-9.985579932503144,25.917067731922593 L-10.105043851095617,25.90235781857485 L-10.224570968727537,25.885083960751917 L-10.344083740664972,25.86525682528934 L-10.46350285524354,25.842889361554718 L-10.582749908602956,25.817996409252185 L-10.701747382916825,25.790594618811873 L-10.820418627398883,25.760702379977005 L-10.938687841881956,25.728339757953204 L-11.056480062785848,25.693528436531924 L-11.173721151310467,25.65629166764732 L-11.290337783710493,25.6166542268731 L-11.40625744352799,25.57464237441327 L-11.52140841567928,25.53028382118801 L-11.635719782312586,25.483607699663235 L-11.749121420372846,25.43464453911969 L-11.86154400083023,25.38342624510482 L-11.972918989548894,25.32998608285787 L-12.083178649792508,25.27435866454617 L-12.192256046383195,25.21657994019761 L-12.30008505155052,25.156687192261955 L-12.40660035252716,25.094719033780695 L-12.511737460968032,25.03071541019266 L-12.615432724289558,24.96471760484975 L-12.717623339045883,24.896768248364687 L-12.818247366478857,24.826911331959764 L-12.917243750398637,24.755192225033124 L-13.01455233757174,24.68165769720628 L-13.11011390081357,24.6063559451639 L-13.203870165002275,24.52933662464435 L-13.295763836250966,24.450650887986644 L-13.385738634495342,24.370351427686842 L-13.473741027944955,24.288490913446818 L-13.559734194340358,24.205107925942283 L-13.643670883486717,24.120251755489914 L-13.725501423378152,24.033976100432838 L-13.805177988132586,23.946335089895616 L-13.882654537965415,23.857383259950463 L-13.957886765426803,23.767175531996834 L-14.030832047426472,23.675767193178554 L-14.101449402606393,23.583213878673497 L-14.169699453658382,23.48957155570149 L-14.235544394220069,23.39489650910711 L-14.29894796001936,23.299245328384547 L-14.359875403973968,23.202674896022806 L-14.418293474989191,23.10524237706004 L-14.474170400233666,23.007005209746787 L-14.527475870709317,22.908021097228556 L-14.57818102996837,22.80834800016904 L-14.626258465866734,22.708044130246055 L-14.671682205279684,22.60716794446299 L-14.714427711742305,22.505778140229484 L-14.754471886013697,22.403933651175713 L-14.791793069600477,22.301693643675478 L-14.826371051311718,22.19911751406419 L-14.858187076953927,22.096264886548475 L-14.887223862311313,21.99319561181496 L-14.913465609593045,21.8899697663567 L-14.936898027565833,21.78664765254635 L-14.957508355626654,21.683289799496002 L-14.975285392107025,21.579956964754523 L-14.990219527136775,21.476710136903787 L-15.002302780431782,21.373610539126243 L-15.011528844406746,21.270719633826857 L-15.017893667087666,21.16808803926924 L-15.02139376533874,21.06576530160818 L-15.022026181433814,20.96381295226818 L-15.019789728268025,20.862291944281367 L-15.01468494005534,20.76126265807713 L-15.006714028233326,20.66078491433237 L-14.99588084283443,20.56091798468273 L-14.98219083890926,20.46172060045906 L-14.96565104762497,20.363250959595213 L-14.946270051699504,20.26556673183518 L-14.924057964870029,20.168725062349278 L-14.899026415131582,20.072782573851086 L-14.871188531519502,19.977795367288582 L-14.840558934246934,19.883819021164786 L-14.807153728046204,19.79090858952511 L-14.770990498600629,19.699118598630314 L-14.732088311990811,19.608503042316055 L-14.690467717117217,19.51911537602159 L-14.646150751098338,19.431008509452177 L-14.599160947681495,19.344234797821606 L-14.549523348740887,19.258846031603 " />
			<path d="M-14.549523348740873,19.25884603160297 L-14.505478800304255,19.1877214781206 L-14.459574848830679,19.117655651360813 L-14.41182924173992,19.04867892966242 L-14.3622605357277,18.980821375172503 L-14.310888108804921,18.91411272579492 L-14.257732173869707,18.84858238632566 L-14.202813793910822,18.784259418716488 L-14.14615489895095,18.721172531403322 L-14.087778304848184,18.65935006763117 L-14.02770773408398,18.59881999270262 L-13.965967838675653,18.539609880072117 L-13.902584225361425,18.48174689620354 L-13.8375834832159,18.425257784103717 L-13.77099321386369,18.370168845439874 L-13.702840943669372,18.3165050597306 L-13.633144252162545,18.264283023444428 L-13.561930289578502,18.213526422895473 L-13.489230127840468,18.164260626047877 L-13.415075449167858,18.11651005327056 L-13.339498528107631,18.070298202676412 L-13.262532215152502,18.02564767274017 L-13.184209921844165,17.98258018237363 L-13.104565607265974,17.941116588623196 L-13.023633765835935,17.901276902141223 L-12.94144941631715,17.863080300569063 L-12.858048091969193,17.826545139956 L-12.68773917264633,17.7585285134813 L-12.513001255035116,17.697357759509963 L-12.334136356385983,17.64315090569765 L-12.151454114274014,17.59601334266637 L-11.965271687244462,17.556037801079786 L-11.775913702962754,17.52330423481288 L-11.583712252592061,17.497879607860234 L-11.389006931743683,17.4798175791483 L-11.192144929967592,17.469158075938616 L-10.993481172372652,17.465926743030078 L-10.793378518588176,17.47013425148993 L-10.592208025900543,17.481775447164388 L-10.390349285020877,17.500828315741188 L-10.188150471667987,17.52725873469161 L-9.985932820245113,17.56102549249588 L-9.784078746863743,17.602065734129337 L-9.582964495709207,17.650301145652993 L-9.382959203730215,17.705639109860225 L-9.184425115330622,17.767973550569433 L-8.987717743791679,17.837185624240046 L-8.793185985099361,17.913144278161926 L-8.60117218849786,17.995706691337634 L-8.412012186736833,18.084718611046227 L-8.226035287626528,18.180014594946446 L-8.04356422716134,18.28141816544654 L-7.864915083118924,18.38874187993712 L-7.690397146688454,18.501787317352786 L-7.52031274832814,18.62034497839741 L-7.3549570326985805,18.744194093637386 L-7.194617676165081,18.873102330536234 L-7.039574539008523,19.006825387373347 L-6.890099229694146,19.145106471736657 L-6.746418127547173,19.287713121236226 L-6.608745870122638,19.434412540985292 L-6.4773142225480145,19.58493896704826 L-6.352339988623896,19.739023512981873 L-6.234025767440951,19.89639446783687 L-6.1225605765283335,20.056777549678834 L-6.018120358118788,20.219896120578856 L-5.920868382635395,20.385471368348522 L-5.8309555610246155,20.553222459617835 L-5.748520675080022,20.722866668178586 L-5.673690532420799,20.8941194818398 L-5.606580050308819,21.06669469036583 L-5.547292270007831,21.2403044563916 L-5.495918300907975,21.414659370533716 L-5.4525371911585925,21.58946849123992 L-5.417215719071984,21.764439369243515 L-5.390008097080511,21.939278055813364 L-5.379460390483272,22.026555556394836 L-5.370955577549115,22.113689093314083 L-5.36449670692645,22.200641493803886 L-5.36008594726509,22.2873754859149 " />
			<path d="M7.172604638534621e-07,0.29977650158289165 L0.2897861106502031,0.8095248939101598 L0.5759272845806648,1.3691623351059825 L0.8548258477666969,1.971651059638117 L1.1229744889555198,2.6094144222234696 L1.3770010834007171,3.2744321785386084 L1.6137110992874792,3.9583413444455795 L1.8301277708236798,4.652541365369765 L2.023529532796872,5.348302273263805 L2.1914842458359276,6.036874471021051 L2.331879781974785,6.709598763735812 L2.4429505858871137,7.358015253103473 L2.523299877768931,7.973969725550226 L2.571917218655078,8.549716196199942 L2.5881912172754764,9.078014319128297 " />
			<path d="M9.659258993277893,5.929205742021781 L9.636661391632503,5.620456774543093 L9.568974319783807,5.307759731283991 L9.456514482274223,4.992577706618254 L9.299808073255827,4.6763854220277326 L9.099588314453332,4.360662325951705 L8.856792024455013,4.0468856715190356 L8.572555235383744,3.736523604552077 L8.248207877457533,3.431028294183232 L7.8852675563102075,3.1318291382256622 L7.48543245218791,2.840326075089907 L7.050573374245662,2.5578830335396305 L6.582725007121658,2.2858215509347586 L6.0840763907460005,2.0254145898219535 L5.556960677928544,1.7778805818043 " />
			<path d="M5.556960677928535,1.777880581804296 L5.205824028177027,1.6267617072280567 L4.844709421594885,1.4816802191815888 L4.474309003447171,1.3429141941070215 L4.095332717034227,1.210729603652845 L3.708506942949433,1.0853798048883354 L3.314573106831791,0.967105054696238 L2.9142862582817473,0.8561320492744615 L2.5084136236641146,0.7526734896294237 L2.0977331355718913,0.656927673893858 L1.683031941769539,0.5690781172504875 L1.2651048964736213,0.4892932001900473 L0.8447530368625563,0.41772584577784805 L0.4227820477355336,0.35451322654744544 L7.172634150743949e-07,0.29977650158323094 " />
			<path d="M7.172604249920276e-07,9.253547176032175 L0.32799763880726773,9.290102006068203 L0.6556162510769166,9.32145106685713 L0.9824786811313627,9.347558200618959 L1.3082079282076944,9.368393295574421 L1.6324282985480523,9.383932320675672 L1.954765838722092,9.394157353323546 L2.2748487669421658,9.399056600039337 L2.592307901873748,9.398624410067313 L2.906777088446516,9.392861281892259 L3.217893620174961,9.381773862664534 L3.5252986575014233,9.36537494053329 L3.828637641679048,9.343683429896718 L4.127560703717274,9.316724349586302 L4.421723067918102,9.284528794010319 " />
			<path d="M4.42172306791818,9.28452879401031 L5.079388306646642,9.190653041958651 L5.705978748672447,9.069773270845353 L6.297661024271564,8.922629001773444 L6.850815325720474,8.750120437408487 L7.362057552640888,8.553302954697553 L7.828260015328523,8.333380648259364 L8.246570569406652,8.091698963945944 L8.614430064741958,7.829736467642373 L8.929588001873329,7.549095799661704 L9.190116300170326,7.251493870074399 L9.394421093490152,6.938751354955574 L9.541252481169378,6.612781557810146 L9.629712174695577,6.2755787043197016 L9.65925899327789,5.929205742021821 " />
			<path d="M2.588191217275477,9.078014319128318 L2.5866711734818195,9.228899356220637 L2.5821128275437184,9.3745547968005 L2.5745215336925957,9.514809554042213 L2.563906208659351,9.649498884760703 L2.550279321200775,9.77846458291879 L2.5336568774537493,9.901555165455957 L2.514058402134442,10.018626050220277 L2.4915069156045884,10.129539725794562 L2.4660289068317782,10.234165913017218 L2.4376543022755297,10.332381718008111 L2.4064164307356775,10.424071776519664 L2.3723519842043737,10.509128389443646 L2.3355009747676974,10.587451649314534 L2.295906687607469,10.658949557660739 " />
			<path d="M2.295906687607464,10.658949557660748 L2.2537836341361808,10.723302711310453 L2.2090336400430046,10.780724641746591 L2.161708864556064,10.831148419718563 L2.1118644679901415,10.874515272808807 L2.059558547453497,10.91077465393617 L2.0048520691316454,10.939884300272002 L1.9478087972270341,10.961810282500455 L1.8884952196374338,10.97652704436544 L1.8269804704596695,10.984017432458227 L1.763336249409029,10.984272716210931 L1.6976367382482616,10.97729259807259 L1.629958514323576,10.963085213856004 L1.5603804613084247,10.941667123254852 L1.4889836772591187,10.91306329054224 " />
			<path d="M1.4889836772591,10.913063290542233 L1.3948968938719037,10.865920264517147 L1.2981365249628198,10.807106009164052 L1.1988880302999274,10.736733253261054 L1.097341638620569,10.654936879665016 L0.9936919830215613,10.561873666782713 L0.8881377279076148,10.457721988075019 L0.7808811882129715,10.342681470170028 L0.6721279416261108,10.216972610240397 L0.5620864345607564,10.080836353378327 L0.45096758262842823,9.934533630778166 L0.33898436637830026,9.77834485961182 L0.22635142307921025,9.61256940555559 L0.11328463532625149,9.43752500899853 L7.172604874588726e-07,9.25354717603223 " />
			<path d="M7.172575898057371e-07,0.2997765015825356 L-0.32799620428921045,0.2632216715465548 L-0.6556148165588163,0.23187261075767696 L-0.9824772466132157,0.2057654769958949 L-1.3082064936894982,0.1849303820404797 L-1.6324268640298047,0.16939135693927074 L-1.9547644042037897,0.1591663242914394 L-2.2748473324238065,0.15426707757569236 L-2.5923064673553298,0.15469926754775964 L-2.9067756539280363,0.1604623957228534 L-3.2178921856564178,0.17154981495061664 L-3.525297222982816,0.1879487370818972 L-3.828636207160374,0.2096402477185071 L-4.12755926919853,0.2365993280289563 L-4.421721633399332,0.2687948836049796 " />
			<path d="M-4.42172163339937,0.2687948836049838 L-5.079386872127605,0.3626706356567021 L-5.705977314153186,0.48355040677004546 L-6.297659589752085,0.6306946758419862 L-6.850813891200783,0.803203240206965 L-7.362056118120995,1.0000207229179048 L-7.828258580808445,1.2199430293560871 L-8.246569134886403,1.4616247136694913 L-8.614428630221557,1.723587209973033 L-8.929586567352795,2.0042278779536624 L-9.190114865649681,2.30182980754092 L-9.394419658969419,2.6145723226596886 L-9.54125104664858,2.940542119805053 L-9.62971074017474,3.277744973295428 L-9.659257558757039,3.624117935593246 " />
			<path d="M7.172583328407e-07,9.253547176033123 L-0.24010969249583608,9.357888646504453 L-0.4799431606399037,9.456946163107848 L-0.7192230649862216,9.550605473620063 L-0.957673421823622,9.638758552069703 L-1.1950192042350345,9.721303723333623 L-1.4309866593115437,9.798145780408262 L-1.6653036238970131,9.86919609422073 L-1.8976998384991026,9.934372715852913 L-2.127907259004612,9.993600471060791 L-2.3556603658396216,10.046811046979848 L-2.5806964702178505,10.093943070916648 L-2.8027560171240005,10.134942181135646 L-3.0215828846826347,10.169761089559628 L-3.236924679567266,10.198359636311427 " />
			<path d="M-3.236924679567294,10.19835963631143 L-3.9222851449427063,10.248299481730843 L-4.558047197496039,10.229048923349833 L-5.13617144646207,10.14085138991764 L-5.649347347385337,9.984822164161422 L-6.09108564602009,9.762934279721058 L-6.455800436783537,9.477993571581386 L-6.738879798110007,9.133603195496125 L-6.936744111502087,8.73411806506543 L-7.046891326817807,8.284589782623122 L-7.067928601401544,7.790702760298007 L-6.999589912972892,7.258702339016612 L-6.842739423553562,6.695315814402771 L-6.599360551894474,6.107667368223927 L-6.272530892585338,5.503187981100041 " />
			<path d="M-6.2725308925853245,5.503187981100017 L-5.999384264491191,5.0786713466630555 L-5.689825381796808,4.652321716489833 L-5.345733059894878,4.226726747703509 L-4.969195709058983,3.804469517137317 L-4.562498659189917,3.388112843785699 L-4.128110289391536,2.9801837342069386 L-3.668667046560421,2.5831580452833713 L-3.1869574439163757,2.1994454574258873 L-2.6859051365920883,1.8313748494253796 L-2.1685511770017345,1.48118016371597 L-1.6380355576866086,1.150986847838447 L-1.0975781536603442,0.8427989543951362 L-0.5504591799209534,0.5584869777908651 L7.172604146929646e-07,0.29977650158289754 " />
			<path d="M-9.65925755875704,3.6241179355932656 L-9.636659957111748,3.9328669030712837 L-9.568972885263344,4.2455639463297015 L-9.45651304775424,4.560745970994748 L-9.299806638736516,4.8769382555845855 L-9.099586879934872,5.192661351659945 L-8.856790589937573,5.5064380060919715 L-8.57255380086749,5.816800073058317 L-8.248206442942616,6.122295383426594 L-7.885266121796764,6.421494539383648 L-7.4854310176760634,6.7129976025189455 L-7.050571939735526,6.995440644068834 L-6.582723572613322,7.267502126673393 L-6.084074956239538,7.527909087785968 L-5.556959243424081,7.775443095803448 " />
			<path d="M-5.5569592434240125,7.77544309580348 L-5.205822593671613,7.92656197038057 L-4.844707987088475,8.071643458427854 L-4.474307568939663,8.210409483503202 L-4.095331282525526,8.342594073958114 L-3.708505508439461,8.467943872723318 L-3.31457167232047,8.58621862291606 L-2.9142848237690084,8.697191628338427 L-2.5084121891499,8.800650187984004 L-2.0977317010561514,8.896396003720053 L-1.6830305072522327,8.984245560363846 L-1.2651034619547168,9.064030477424648 L-0.8447516023420307,9.135597831837146 L-0.42278061321337407,9.198810451067786 L7.172603392422993e-07,9.253547176032164 " />
			<path d="M7.172604774251681e-07,0.29977650158286806 L0.240111127015881,0.19543503111096877 L0.4799445951611815,0.09637751450705609 L0.7192244995087262,0.002718203994383106 L0.9576748563473431,-0.08543487445566 L1.1950206387599576,-0.1679800457199236 L1.4309880938376491,-0.24482210279484884 L1.665305058424279,-0.31587241660753584 L1.8977012730275022,-0.3810490382398799 L2.1279086935341134,-0.4402767934478534 L2.3556618003701906,-0.4934873693669438 L2.5806979047494476,-0.5406193933037117 L2.802757451656583,-0.581618503522611 L3.0215843192161578,-0.6164374119464291 L3.2369261141016543,-0.6450359586979953 " />
			<path d="M3.2369261141017107,-0.6450359586980028 L3.718370480125364,-0.6870789123891411 L4.177066516274104,-0.6956956645764603 L4.610208001163809,-0.6708334994910318 L5.015145051644289,-0.6126445194703969 L5.389400334316672,-0.5214847144233071 L5.730684221421859,-0.3979117839463059 L6.036908798379001,-0.24268172541603295 L6.306200637278376,-0.05674420893071519 L6.536912258182646,0.15876323260386369 L6.727632208118337,0.40252216269989244 L6.877193696095958,0.6730413072492529 L6.984681731331364,0.9686656778752772 L7.049438720997834,1.2875866968595184 L7.071068493262929,1.6278532617009582 " />
			<path d="M-2.588189782754549,0.47530935848676537 L-2.5866697389608744,0.3244243213936216 L-2.582111393022723,0.17876888081299552 L-2.574520099171515,0.03851412357058226 L-2.5639047741381535,-0.09617520714854455 L-2.550277886679428,-0.22514090530720465 L-2.533655442932218,-0.3482314878448728 L-2.5140569676126945,-0.4653023726096215 L-2.491505481082593,-0.5762160481842613 L-2.466027472309505,-0.6808422354072007 L-2.437652867752947,-0.7790580403982994 L-2.4064149962127552,-0.8707480989099754 L-2.372350549681085,-0.955804711834005 L-2.335499540244012,-1.0341279717048537 L-2.295905253083354,-1.1056258800509529 " />
			<path d="M-2.2959052530833537,-1.105625880050954 L-2.2537821996115492,-1.1699790337005627 L-2.2090322055178175,-1.227400964136498 L-2.1617074300302894,-1.2778247421081568 L-2.1118630334637487,-1.3211915951979856 L-2.0595571129264565,-1.3574509763248206 L-2.0048506346039288,-1.386560622660018 L-1.947807362698617,-1.408486604887731 L-1.8884937851082901,-1.423203366751867 L-1.8269790359297784,-1.4306937548436984 L-1.763334814878369,-1.4309490385953396 L-1.6976353037168148,-1.4239689204558368 L-1.6299570797913263,-1.409761536237983 L-1.5603790267753574,-1.3883434456354602 L-1.4889822427251997,-1.3597396129213712 " />
			<path d="M-1.4889822427251975,-1.3597396129213704 L-1.394895459338569,-1.312596586895177 L-1.2981350904301308,-1.2537823315412153 L-1.1988865957679562,-1.183409575637601 L-1.0973402040893812,-1.1016132020411888 L-0.9936905484912203,-1.0085499891587557 L-0.8881362933781765,-0.9043983104511713 L-0.7808797536844866,-0.7893577925465205 L-0.6721265070986231,-0.6636489326174636 L-0.5620850000343045,-0.5275126757561913 L-0.45096614810304436,-0.38120995315704154 L-0.3389829318540101,-0.22502118199191978 L-0.22634998855603386,-0.05924572793711297 L-0.11328320080420125,0.11579866861833424 L7.172604581222873e-07,0.2997765015828823 " />
			<path d="M7.172604644873859e-07,9.253547176032193 L-0.2897846761292747,8.743798783704925 L-0.5759258500597363,8.184161342509102 L-0.8548244132457685,7.581672617976967 L-1.1229730544345915,6.943909255391615 L-1.3769996488797898,6.278891499076476 L-1.6137096647665519,5.594982333169503 L-1.8301263363027525,4.900782312245319 L-2.0235280982759445,4.20502140435128 L-2.1914828113150002,3.516449206594033 L-2.3318783474538582,2.8437249138792713 L-2.4429491513661845,2.19530842451161 L-2.523298443248002,1.579353952064859 L-2.5719157841341493,1.0036074814151434 L-2.5881897827545477,0.47530935848680794 " />
			<path d="M7.071068493262931,1.6278532617009978 L7.066915656488604,1.7831137769804155 L7.054462024086135,1.9418905126866994 L7.033722224087461,2.1039969697258414 L7.004720617453849,2.2692427379144093 L6.967491269461542,2.437433719635275 L6.92207790968868,2.608372357824604 L6.868533880650562,2.781857868022308 L6.806922075143543,2.957686474213396 L6.737314862371189,3.1356516481832055 L6.659794002939428,3.315544352105365 L6.574450552820572,3.497153284077545 L6.481384756399015,3.6802651263165975 L6.380705928724209,3.8646647957215365 L6.272532327109259,4.050135696510072 " />
			<path d="M6.272532327109257,4.0501356965100745 L5.999385699015395,4.4746523309472375 L5.689826816321224,4.901001961120693 L5.345734494419448,5.326596929907278 L4.9691971435836475,5.74885416047375 L4.562500093714615,6.165210833825667 L4.12811172391622,6.5731399434047395 L3.6686684810850374,6.9701656323286265 L3.186958878440879,7.3538782201864334 L2.6859065711164347,7.721948828187265 L2.168552611525886,8.07214351389699 L1.6380369922105311,8.402336829774821 L1.097579588184009,8.710524723218423 L0.5504606144443362,8.994836699822969 L7.172626098026706e-07,9.25354717603122 " />
			<path d="M5.5569606945796295,1.7778805892191498 L30.23768739390064,12.768424705791375 " />
			<path d="M1.4889836939009224,10.913063297952958 L25.435111671600122,21.576484159350358 " />
			<path d="M-3.236924682679451,10.198359636682772 L-36.88684816502403,14.213472869868802 " />
			<path d="M-4.421721636498407,0.26879488397475565 L-39.16240405215329,4.414057614518422 " />
			<path d="M-2.2959052538206866,-1.1056258788255535 L5.981087201136471,-14.861283922566775 " />
			<path d="M6.272532326399292,4.050135697689966 L14.39778089320804,-9.453336899833152 " />
			<path d="M38.07164655337125,5.269415560453371 L4.421723071304956,9.284528793606196 " />
			<path d="M37.9776085328478,-4.790298689610517 L3.2369261173829913,-0.6450359590895304 " />
			<path d="M-14.549523346814796,19.2588460236319 L-6.272530891922906,5.503187979999149 " />
			<path d="M-5.829341878487788,24.162422153998087 L2.2959066882896058,10.658949556527077 " />
			<path d="M-26.16970895820719,-12.350283736690248 L-1.4889822594334396,-1.359739620361724 " />
			<path d="M-29.503087238936317,-2.887977773526276 L-5.556959260241355,7.775443088314546 " />

        </g>

        <!-- solid lines -->
        <g  stroke="rgb(0,0,0)" fill="none">
    			<path d="M15.019345657803525,-11.581507905085694 L15.01225544932834,-11.439499037146147 L15.000834358314748,-11.298114415363472 L14.985091262159452,-11.157482102758221 L14.965038897643364,-11.017728630505271 L14.940693736988182,-10.878979042904128 L14.912075882307514,-10.74135693355428 L14.879208976770254,-10.60498447356136 L14.842120130979175,-10.46998243248894 L14.800839863252902,-10.3364701926598 L14.755402052684719,-10.204565757299463 L14.70584390403686,-10.074385752903869 L14.6522059237142,-9.946045426101966 L14.594531906246502,-9.819658635173104 L14.532868930893583,-9.695337836268045 L14.467267368173067,-9.573194064271451 L14.397780896295549,-9.453336908132705 " />
			<path d="M14.397780896295545,-9.453336908132702 L14.338464448716927,-9.357652815518227 L14.276650084223753,-9.263608959878889 L14.21237156890554,-9.17126202650503 L14.14566417796841,-9.080668007372095 L14.076564719226067,-8.99188218164539 L14.005111560360117,-8.904959093757004 L13.931344660222107,-8.819952528848841 L13.855305604485045,-8.736915485354631 L13.77703764598754,-8.655900144472497 L13.696585750149024,-8.576957836258547 L13.613996645869863,-8.500139002050732 L13.52931888236558,-8.425493152911054 L13.442602892419703,-8.353068823753004 L13.353894986098041,-8.282908844135665 L13.2632327773013,-8.215048145741124 L13.17067099222611,-8.149533443318298 L13.07626635906116,-8.086410157752434 L12.980076605342964,-8.025721694392468 L12.882160426092783,-7.967509499431146 L12.78257745530212,-7.911813108628372 L12.681388240514801,-7.8586701889538 L12.578654220273474,-7.808116573665485 L12.474437704218188,-7.760186291282052 L12.368801855644554,-7.714911588846589 L12.261810676348817,-7.672322949821187 L12.15352899360702,-7.632449106891728 L12.044022449155252,-7.595317049903278 L11.933357490057805,-7.560952029087125 L11.821601361369934,-7.5293775536812255 L11.7088221005217,-7.5006153859865226 L11.59508853336924,-7.474685530842347 L11.480470271879643,-7.451606220444774 L11.365037713435411,-7.431393894372557 L11.24886204176438,-7.414063174625972 L11.13201522952073,-7.3996268354245895 L11.014570042562637,-7.388095767450744 L10.896600045991844,-7.379478936166143 L10.778179612040391,-7.3737833337698 L10.65938392990946,-7.371013924306188 L10.540289017685197,-7.37117358137318 L10.420971736476185,-7.374263017820128 L10.301509806937066,-7.380280706767078 L10.181981828362659,-7.3892227932168595 L10.062467300556753,-7.401082995472518 L9.943039796111616,-7.415853426040267 L9.823753474338147,-7.4335274661166535 L9.704685759022185,-7.454094247861287 L9.585915668581055,-7.4775403345552265 L9.467521147221495,-7.5038501225893866 L9.349579093360324,-7.533005932127617 L9.232165384610942,-7.564988088479099 L9.115354899590974,-7.599774994901134 L8.999221536782459,-7.637343197499589 L8.883838230652051,-7.677667442840439 L8.769276965214782,-7.720720728832057 L8.655608785200906,-7.766474349384081 L8.542903804961545,-7.814897933294859 L8.431231215224784,-7.86595947776569 L8.320659287790015,-7.919625376886259 L8.211255378224346,-7.975860445381824 L8.103085926600947,-8.034627937858954 L7.9962164562953175,-8.095889563732763 L7.890711570831451,-8.159605497964776 L7.786634948745971,-8.225734387686783 L7.684049336414385,-8.294233354732203 L7.5830165387596375,-8.365057994042644 L7.483597407739205,-8.438162367863605 L7.3858518284830605,-8.513498995589357 L7.289838702930863,-8.591018839063334 L7.195615930792825,-8.670671283086463 L7.103240387634737,-8.752404110832094 L7.012767899863705,-8.836163473812388 L6.9242532163672195,-8.921893855987191 L6.8377499765342415,-9.009538031552594 L6.753310674363016,-9.09903701589262 L6.670985032346868,-9.190331808577326 L6.590807026553962,-9.283379098801978 L6.512820309013128,-9.378123616404132 L6.437070627849863,-9.474505141885379 L6.363601835631245,-9.572462942809489 L6.292455952204761,-9.67193580231044 L6.223673221029378,-9.772862044981299 L6.157292159493267,-9.875179560350187 L6.093349603674904,-9.978825824136836 L6.031880747966483,-10.083737917470462 L5.972919179940881,-10.189852544236869 L5.916496910805652,-10.297106046710029 L5.862644401749776,-10.405434419610526 L5.811390586451202,-10.514773322720504 L5.762762889975411,-10.625058092172067 L5.716787244257567,-10.73622375051318 L5.673488100323009,-10.848205015642474 L5.632888437363153,-10.960936308691544 L5.59500976874612,-11.074351760920537 L5.559872145003649,-11.188385219680091 L5.5274941537981315,-11.302970253479952 L5.497892916835884,-11.418040156191724 L5.47108408365498,-11.533527950400588 L5.447081822178296,-11.64936638990791 L5.425898805884626,-11.765487961373989 L5.407546197413015,-11.881824885077435 L5.392033628377724,-11.998309114754802 L5.379369175133468,-12.114872336471448 L5.369559330192882,-12.231445966461758 L5.362608968960365,-12.347961147864147 L5.358521311408795,-12.464348746263417 L5.357297878287785,-12.58053934394038 L5.358938773638908,-12.696475761503175 L5.363443618172719,-12.81210203377457 L5.370810567871529,-12.927348649239859 L5.381036044956275,-13.042146736034772 L5.394114787100697,-13.156428056009116 L5.410039890824088,-13.270124990709066 L5.428802849524178,-13.383170529675692 L5.450393586555787,-13.495498260880739 L5.474800483724335,-13.607042363140604 L5.502010405526747,-13.717737600369329 L5.5320087194357,-13.827519317551388 L5.564779312486648,-13.93632343833502 L5.60030460439045,-14.044086464166714 L5.638565557357891,-14.150745474907424 L5.679541682785842,-14.256238130891036 L5.723211044918209,-14.360502676405508 L5.769550261558283,-14.463477944597022 L5.818534501872551,-14.56510336381749 L5.870137481289439,-14.665318965455606 L5.924331453459928,-14.76406539331158 L5.981087199210395,-14.861283914595644 " />
			<path d="M5.98108719921041,-14.861283914595674 L6.031083884028618,-14.942300412904626 L6.08287294280749,-15.022146787862587 L6.136434159303027,-15.100788558154713 L6.191746527343914,-15.178191590813638 L6.248788239187661,-15.254322109928113 L6.307536672390303,-15.32914670624172 L6.367968375094719,-15.402632347706495 L6.430059049633057,-15.474746391061451 L6.493783534329173,-15.545456594511343 L6.559115783377373,-15.614731131586126 L6.626028844664125,-15.682538606266911 L6.694494835389876,-15.748848069469329 L6.764484915338436,-15.813629036980558 L6.835969257631834,-15.876851508951436 L6.908918214833345,-15.938486980821796 L6.98331282955315,-15.998516566236507 L7.059123934957965,-16.05691322746692 L7.136318276174987,-16.113647968672186 L7.214862056271649,-16.168692855009823 L7.294720952233495,-16.222020983988052 L7.3758601295570365,-16.273606459874856 L7.458244255546349,-16.32342437096338 L7.541837511396843,-16.371450769508595 L7.626603603144343,-16.417662654165348 L7.712505771552245,-16.46203795477325 L7.799506801004234,-16.50455551934908 L7.887569027464667,-16.54519510316267 L7.9766543455634675,-16.583937359787484 L8.066724214856965,-16.62076383403238 L8.15773966531088,-16.655656956676328 L8.249661302046242,-16.688600040943065 L8.342449309383767,-16.71957728066801 L8.436063454216828,-16.748573750124976 L8.53046308873791,-16.775575405495488 L8.625607152538036,-16.800569087978783 L8.721454174093349,-16.823542528555897 L8.817962271647735,-16.844484354436357 L8.915089153494996,-16.863384097231428 L9.012792117658822,-16.880232202913078 L9.11102805096338,-16.895020043632975 L9.209753427482127,-16.907739931491303 L9.308924306347054,-16.91838513436027 L9.40849632889525,-16.926949893882536 L9.508424715124386,-16.93342944578005 L9.608664259423318,-16.93782004262402 L9.709169325538772,-16.940118979232 L9.809893840733693,-16.940324620873437 L9.910791289087477,-16.93843643448013 L10.011814703883083,-16.93445502307345 L10.112916659020588,-16.92838216363539 L10.214049259391496,-16.920220848665778 L10.31516413014273,-16.909975331683214 L10.416219223730266,-16.89765027571481 L10.51718498757062,-16.883249165108264 L10.61801400303273,-16.866778284196897 L10.718658203876176,-16.84824521940511 L10.81907007275163,-16.827658679071405 L10.919202628193775,-16.80502845232798 L11.019009412942129,-16.780365371535176 L11.118444483504867,-16.753681278037277 L11.217462400886978,-16.724988991020354 L11.316018222410458,-16.69430227926653 L11.414067494560486,-16.66163583561309 L11.511566246797855,-16.627005253938677 L11.60847098628421,-16.590427008512854 L11.704738693472978,-16.551918435559063 L11.800326818525132,-16.51149771689502 L11.89519327851526,-16.469183865528503 L11.98929645539967,-16.424996713100388 L12.082595194724634,-16.37895689908059 L12.175048805059085,-16.331085861636687 L12.266617058142437,-16.28140583010874 L12.357260189744485,-16.229939819037785 L12.446938901240625,-16.176711623709426 L12.535614361911938,-16.12174581718781 L12.62324821198602,-16.065067748829186 L12.795240019598793,-15.946680106964052 L12.962617029436801,-15.821767056421233 L13.125089811049843,-15.69055953521382 L13.282377045060297,-15.553301289220535 L13.434205836139066,-15.410249215803526 L13.580312100958196,-15.26167383663835 L13.720441054175588,-15.1078599027392 L13.854381675104596,-14.949065401247863 L13.981934825755868,-14.785548886010814 L14.10288665431206,-14.61760589136335 L14.217038670077137,-14.445535738572369 L14.324206961072093,-14.269641194978576 L14.424221549642937,-14.0902281851707 L14.51692586887409,-13.907605547208052 L14.602176345156453,-13.722084827709867 L14.679842074815513,-13.533980110431795 L14.71579315630554,-13.439057561945754 L14.749804585260911,-13.343607873751854 L14.781863468509739,-13.247670960557231 L14.811957673675057,-13.151286873290232 L14.840075828089223,-13.054495796605917 L14.86620731881439,-12.957338046689282 L14.890342293779344,-12.859854069347035 L14.912471664053076,-12.76208443838196 L14.932587107285398,-12.664069854246959 L14.950681072354913,-12.565851142979078 L14.966746785274617,-12.46746925541687 L14.980778256415427,-12.368965266707658 L14.992770289117857,-12.270380376114359 L15.002718489772148,-12.171755907134632 L15.010619279457005,-12.073133307948313 L15.016469907237216,-11.974554152212185 L15.020268465230313,-11.876060140224281 L15.022013905562488,-11.777693100483017 L15.021706059343895,-11.67949499166966 L15.019345657803527,-11.58150790508576 " />
			<path d="M36.734443225130256,-1.9115844576556866 L36.698184550866195,-1.6191774223611193 L36.66721826648114,-1.319237956436392 L36.641672685335045,-1.012960704371349 L36.62165454512113,-0.7015531769898237 L36.60724994467449,-0.38623483855638263 L36.598524886507356,-0.06823632614986544 L36.59552548093201,0.2512012301124612 L36.59827784285728,0.5708268177971132 L36.60678768756958,0.8893801160007291 L36.62103960703469,1.2055920648790976 L36.640995983481474,1.5181854637982437 L36.66659547225375,1.8258756314277074 L36.69775221436804,2.1273821872378442 L36.73437002067351,2.421545975852182 L36.77631887734743,2.7071115606375433 L36.82344009330204,2.982832322382704 L36.875552551424775,3.2475184213335746 L36.932453688660715,3.500034874184017 L36.9939200652385,3.739300823406298 L37.02628974405719,3.8536419548238174 L37.059707577564744,3.964289882865808 L37.09413980500711,4.0711250496957385 L37.129551341713636,4.174031537202074 L37.16590575711158,4.272897174309458 L37.20316524683969,4.367613665995501 L37.24129059847049,4.458076746212237 L37.28024115024316,4.544186357276681 L37.31997474210085,4.62584685866029 L37.36044765821887,4.702967268472529 L37.4016145601019,4.775461541299113 L37.443433056456556,4.843256106747111 L37.4858667554355,4.906291618994623 L37.528868358484125,4.964496819657851 L37.57238990161804,5.017807178357224 L37.61638330757222,5.066165405879449 L37.660800405366494,5.109521122193661 L37.70559294816586,5.147830571126731 L37.75071262964204,5.181056377103105 L37.79611109903091,5.209167339877702 L37.841739975069274,5.232138263713499 L37.887550858982905,5.249949817978627 L37.933495346686406,5.262588426660916 L37.979525040343965,5.270046184820986 L38.02559155942876,5.272320800528112 L38.071646551407206,5.269415561346264 " />
			<path d="M38.07164655140721,5.269415561346263 L38.10701186739563,5.263666189842742 L38.14231989202988,5.254867259343652 L38.17754871682388,5.2430269952515784 L38.21267645576884,5.228155597700945 L38.247681248082294,5.210265262261117 L38.28254126097865,5.1893702064795 L38.31723469247029,5.165486702630387 L38.35173977420651,5.13863311709916 L38.386034774356425,5.108829956895209 L38.42009800054036,5.076099923850739 L38.45390780281301,5.040467977126426 L38.4874425767004,5.001961404708675 L38.553618424732406,4.916421259836091 L38.61847928629306,4.819696437689884 L38.68186782377483,4.71204688790984 L38.74363296769411,4.593755742416813 L38.80362964760647,4.465127710867851 L38.86171857719262,4.3264878077049715 L38.91776609605099,4.178180349652625 L38.971644060943035,4.020568185043361 L39.023229781214845,3.8540321247954625 L39.072405995096325,3.6789705533105264 L39.11906088555674,3.49579920600321 L39.16308813637301,3.304951108619608 L39.2043870310447,3.1068766819449336 L39.24286259916734,2.902044023945421 L39.27842581685296,2.6909393898336127 L39.31099437409858,2.474064331772495 L39.340500853594946,2.2518712234025573 L39.36687688893329,2.0248634142749555 L39.39005834297189,1.793576842856595 L39.40998917255709,1.5585527826452499 L39.42662111372429,1.3203375367864978 L39.439913453788726,1.0794821749867163 L39.44983287882341,0.8365423059632852 L39.45635338807241,0.5920778790981366 L39.45945626989873,0.34665300938587934 L39.459130136916336,0.10083582019279756 L39.455371021007046,-0.14480170123191705 L39.44818253197369,-0.3896838401262618 L39.437576086631616,-0.6332312866753617 L39.423571218191455,-0.8748612683446679 L39.40619597883697,-1.113987685444796 L39.38548745145239,-1.3500212528612914 L39.361489922793254,-1.5823918503706589 L39.33424818989827,-1.8105933269620544 L39.30382373168206,-2.034038445783592 L39.27028759149087,-2.2521493529946555 L39.23371877381708,-2.4643681369164345 L39.1942038589172,-2.670156116355431 L39.151836714988356,-2.8689933937393675 L39.10671829554634,-3.0603786430773803 L39.0589565130049,-3.2438291138219912 L39.00866618281318,-3.4188808427760016 L38.95596903586497,-3.5850890772530684 L38.90099380025052,-3.7420289237663784 L38.84387635677857,-3.8892962475854578 L38.784759976053124,-4.026508859566797 L38.72379564824654,-4.153308037729603 L38.66114252006756,-4.269360442113625 L38.5969594598411,-4.374374285160708 L38.53138935744432,-4.468115130699894 L38.4981373860853,-4.510679874548962 L38.464603040112074,-4.550336778138293 L38.430808008609034,-4.587060896146489 L38.39677398332865,-4.620829657107873 L38.36252265470501,-4.651622789033433 L38.32807570820187,-4.6794222536475685 L38.293454820964456,-4.704212188587965 L38.2586816587455,-4.725978856978939 L38.22377787307722,-4.7447106038516464 L38.188765098662245,-4.760397818947581 L38.15366495095795,-4.773032905504825 L38.118499023929566,-4.7826102546895735 L38.08328888794903,-4.7891262253984666 L38.04805608781774,-4.792579129220322 L38.01282214089254,-4.792969220408891 L37.97760853529566,-4.790298690781307 " />
			<path d="M37.97760853529565,-4.790298690781305 L37.928439634087376,-4.781439634776913 L37.87941104175259,-4.766621252325343 L37.8305811972678,-4.7458686999704405 L37.78200839740055,-4.719214720569382 L37.733750788031706,-4.686699783619773 L37.68586635534961,-4.64837227184737 L37.6384129168264,-4.604288718696586 L37.591448111904896,-4.554514102288009 L37.54502938982103,-4.4991221991462975 L37.49920442409995,-4.4381826112640805 L37.45401946907836,-4.3717673999874 L37.40952758464409,-4.299964308406092 L37.365780255675446,-4.222866860464638 L37.32282745803373,-4.140574045220631 L37.28071771505512,-4.0531900441243955 L37.23949814551413,-3.9608239967203076 L37.19921450391468,-3.8635898006437746 L37.15991121384891,-3.7616059422613133 L37.121631395048105,-3.654995354774605 L37.084416884633896,-3.5438853010829083 L37.048308252962144,-3.4284072791715956 L37.01334481433588,-3.3086969482680932 L36.979564632747845,-3.18489407447997 L36.94700452269704,-3.0571424951033115 L36.91570004500796,-2.925590101263035 L36.885685497465104,-2.790388839020265 L36.82965697372795,-2.509667909508025 L36.77916735645048,-2.21627765758877 L36.73444322513026,-1.9115844576557501 " />
			<path d="M-31.374355126083724,-6.045805511836696 L-31.359394922754316,-5.907081914430432 L-31.34129657536057,-5.76986258757382 L-31.3200752638384,-5.63427097321943 L-31.295748885293524,-5.500428232996762 L-31.268337967053398,-5.36845331709799 L-31.23786559235603,-5.238463020954759 L-31.20435733752317,-5.1105720308391644 L-31.16784121959019,-4.98489295937904 L-31.128347653489644,-4.861536371834482 L-31.08590941801023,-4.7406108038395 L-31.040561629877732,-4.622222771169513 L-30.992341725429018,-4.506476771952366 L-30.941289449475203,-4.3934752815973805 L-30.887446851074607,-4.283318740573861 L-30.830858286060916,-4.176105535027399 L-30.771570426296815,-4.071931970079153 L-30.70963227574791,-3.9708922355102416 L-30.645095193596664,-3.8730783633901975 L-30.578012924740694,-3.7785801770654164 L-30.508441638144596,-3.687485230780337 L-30.43643997363913,-3.5998787390610474 L-30.362069097886366,-3.5158434948478563 L-30.28539277035422,-3.4354597752203055 L-30.206477420268307,-3.358805233414941 L-30.1253922356341,-3.285954775693098 L-30.042209265546816,-3.2169804214728197 L-29.95700345891188,-3.151951087761681 L-29.86983690172779,-3.0909217778807347 L-29.780778569645864,-3.0339500540135553 L-29.68991122198194,-2.981098129142038 L-29.597318974418908,-2.9324232309215317 L-29.503087243398,-2.887977775512265 " />
			<path d="M-29.50308724339799,-2.887977775512263 L-29.42496737140417,-2.854848213896606 L-29.345859442199064,-2.824595737400497 L-29.265811799857456,-2.7972421228193722 L-29.18487329997568,-2.7728071910277863 L-29.103093298700614,-2.751308830781914 L-29.020521643039928,-2.7327630168846855 L-28.93720866236527,-2.717183822991203 L-28.853205161030644,-2.7045834292692055 L-28.768562412038797,-2.694972125066461 L-28.683332151699044,-2.6883583066740826 L-28.59756657523056,-2.6847484702118654 L-28.51131833327576,-2.6841471995988724 L-28.424640529298937,-2.6865571495095923 L-28.337586717856002,-2.6919790231531184 L-28.250210903731663,-2.7004115446499037 L-28.162567541951056,-2.7118514257177666 L-28.074711538683395,-2.7262933263159224 L-27.986698253065793,-2.7437298088329474 L-27.89858349998599,-2.7641512853416774 L-27.81042355387339,-2.7875459573811656 L-27.722275153558307,-2.8138997476629357 L-27.63419550826992,-2.8431962230358794 L-27.54624230485412,-2.8754165079812584 L-27.458473716302937,-2.910539187846387 L-27.370948251675827,-2.948540273167891 L-27.283709184224723,-2.989400668701527 L-27.19680495565649,-3.0330981435587008 L-27.110293599663166,-3.0796039769311 L-27.024232182253265,-3.128887477633269 L-26.938676830896707,-3.1809160726285786 L-26.853682760370695,-3.235655386703486 L-26.769304295555788,-3.2930693139763765 L-26.685594891409938,-3.353120081878871 L-26.602607150326815,-3.415768308199145 L-26.520392837063394,-3.480973051728397 L-26.439002891400296,-3.54869185700327 L-26.358487438677006,-3.6188807935886107 L-26.278895798322623,-3.6914944902966154 L-26.200276490481414,-3.7664861646900185 L-26.122677240811065,-3.8438076481686068 L-26.04614498350992,-3.923409406889979 L-25.970725862608404,-4.005240558727084 L-25.896465231538045,-4.0892488864167 L-25.823407650970367,-4.175380847004657 L-25.751596884896365,-4.263581577645215 L-25.681075894895898,-4.353794897763631 L-25.61188683252494,-4.445963307542608 L-25.544071029727125,-4.5400279826448955 L-25.477668987154722,-4.6359287650359935 L-25.41272036026266,-4.7336041497224794 L-25.349263943017878,-4.832991267173151 L-25.28733764904475,-4.934025861141792 L-25.226978490006086,-5.0366422615619655 L-25.168222550997577,-5.1407733521359145 L-25.111104962712364,-5.24635053219123 L-25.05565987011078,-5.353303672330605 L-25.00191490459618,-5.461572375140803 L-24.949893235612166,-5.57110398595585 L-24.899625065010017,-5.681829586958286 L-24.85113923799513,-5.793679926228595 L-24.80446318777875,-5.906585644241419 L-24.759622981857312,-6.020477288419329 L-24.716643363476567,-6.135285326492855 L-24.67554778864642,-6.250940158766216 L-24.636358459043535,-6.367372129383406 L-24.599096351110028,-6.484511536684431 L-24.56378124162768,-6.602288642736692 L-24.530431730018414,-6.72063368212171 L-24.499065257592836,-6.839476870052489 L-24.46969812393999,-6.958748409892098 L-24.442345500622565,-7.078378500139123 L-24.417021442313004,-7.198297340940903 L-24.393738895477224,-7.318435140190588 L-24.3725097046838,-7.438722119259258 L-24.353344616587645,-7.559088518409517 L-24.336253281608517,-7.679464601932152 L-24.321244253295713,-7.799780663042617 L-24.308324985341713,-7.919967028569282 L-24.297501826178546,-8.03995406346058 L-24.288780011061977,-8.159672175133357 L-24.28216365151974,-8.279051817679864 L-24.277655722011264,-8.398023495946097 L-24.27525804361758,-8.516517769489274 L-24.274971264551173,-8.634465256417473 L-24.276794837246893,-8.75179663710963 L-24.280726991766127,-8.868442657809231 L-24.286764705217664,-8.984334134080264 L-24.29490389305754,-9.099404776081364 L-24.30514100908094,-9.213605017881774 L-24.31747077864612,-9.326869617810136 L-24.331886440658952,-9.439130517641647 L-24.348380020563617,-9.550320649421533 L-24.366942363455596,-9.660373910726744 L-24.387563163222715,-9.769225143481227 L-24.41023098801527,-9.876810116049201 L-24.434933302320538,-9.983065508358193 L-24.461656485891353,-10.087928899830931 L-24.490385849752737,-10.191338759932592 L-24.521105649484834,-10.293234441167131 L-24.55379909595474,-10.393556174383924 L-24.588448363644222,-10.492245066283123 L-24.625034596694437,-10.58924309903564 L-24.663537912763317,-10.684493131960876 L-24.70393740476538,-10.777938905232753 L-24.746211140538207,-10.869525045611926 L-24.790336160454064,-10.959197074229351 L-24.83628847296943,-11.046901416473805 L-24.88404304807961,-11.132585414063254 L-24.93357380861985,-11.216197339407318 L-24.984853619328675,-11.297686412395416 L-25.03785427356355,-11.377002819772557 L-25.092546477533226,-11.454097737292036 L-25.148899831885483,-11.528923354861696 L-25.206882810463263,-11.601432904927686 L-25.2664627360165,-11.671580694367094 L-25.32760575263136,-11.739322140188083 L-25.390276794612753,-11.804613809363529 L-25.454439551530452,-11.867413463151575 L-25.520056429113374,-11.927680106283738 L-25.587088505650936,-11.985374041428653 L-25.655495603360794,-12.040457022679448 L-25.725247708498223,-12.092900629015762 L-25.796309524130244,-12.142673025413046 L-25.868637238857048,-12.189738184279681 L-25.94218640253931,-12.234062343166702 L-26.016911948273965,-12.275613933298155 L-26.09276821220027,-12.314363516964368 L-26.169708951299622,-12.350283733099488 " />
			<path d="M-26.169708951299643,-12.350283733099502 L-26.27818789777899,-12.395395485593472 L-26.388538165830614,-12.434948915039136 L-26.500630960673274,-12.468889874769287 L-26.61433556814526,-12.4971713122906 L-26.729519399129,-12.51975318532949 L-26.84604802569494,-12.53660241462371 L-26.963785209673325,-12.54769287185669 L-27.082592924211035,-12.553005401982086 L-27.202331368719516,-12.55252788003653 L-27.322858977468314,-12.546255303389025 L-27.444032421927538,-12.534189921225932 L-27.565706606811258,-12.516341403921015 L-27.687734659622485,-12.492727055790427 L-27.809967913349052,-12.46337207558309 L-27.932255881808413,-12.428309869907348 L-28.054446226988166,-12.387582425645293 L-28.176384717577555,-12.341240748256634 L-28.297915858235665,-12.289345067115411 L-28.41891605754299,-12.231948731730295 L-28.539247538179406,-12.169115926307715 L-28.658756687815153,-12.100926141166234 L-28.777293291923378,-12.027465870486889 L-28.8947104031337,-11.948828203813354 L-29.010864232355875,-11.86511247483681 L-29.12561405947507,-11.776423961357548 L-29.238822161714666,-11.682873630969139 L-29.350353758056766,-11.5845779276646 L-29.460076968405023,-11.4816585952179 L-29.567862786468552,-11.374242533847763 L-29.673585065640236,-11.262461687324599 L-29.777120517436835,-11.146452958335026 L-29.87834872236288,-11.026358150572266 L-29.977152153354428,-10.90232393667442 L-30.07341621225326,-10.774501851786413 L-30.16702928005633,-10.64304831317508 L-30.257882781979614,-10.508124666980668 L-30.345871268669967,-10.369897263841764 L-30.43089251519264,-10.228537565784405 L-30.512847639716746,-10.084222287419882 L-30.591641244115152,-9.937133575149467 L-30.667182116880205,-9.787458129910304 L-30.739401257255178,-9.635348382065553 L-30.80822513384773,-9.480972068017985 L-30.873576444478463,-9.324515308170891 L-30.935383216681313,-9.166164496695396 L-30.993578572866,-9.006106233412483 L-31.048100529313817,-8.84452726308376 L-31.098891825472446,-8.681614421242317 L-31.145899780413533,-8.517554585749268 L-31.189076173714895,-8.352534633315633 L-31.228377148427448,-8.18674140028333 L-31.263763134185027,-8.020361647013157 L-31.29519878891348,-7.8535820252818285 L-31.322652957993437,-7.686589048144198 L-31.346098650129477,-7.519569061770945 L-31.365513029576395,-7.352708218826104 L-31.380877424771576,-7.186192453002939 L-31.392177353820422,-7.020207454390862 L-31.399402567680163,-6.8549386454000825 L-31.402547112285344,-6.6905711570249125 L-31.401609411256512,-6.527289805280701 L-31.39659237123173,-6.365279067703567 L-31.387503512258743,-6.204723059856141 L-31.37435512608373,-6.045805511836761 " />
			<path d="M16.271908995514092,36.84050721381825 L15.754366686741205,37.06660874070388 L15.23368362752733,37.2853805251681 L14.70996361992651,37.496778953422854 L14.183311071431119,37.70076188161365 L13.653830974157454,37.89728864422131 L13.12162888391475,38.0863200621689 L12.586810899161863,38.26781845063239 L12.04948363985575,38.44174762655339 L11.509754226195973,38.60807291585255 L10.96773025726948,38.76676116034206 L10.42351978959997,38.91778072433596 L9.87723131560595,39.06110150095703 L9.328973741972021,39.19669491813876 L8.778856367937488,39.3245339443214 L8.226988863506739,39.44459309384096 L7.673481247585729,39.55684843200987 L7.118443866048871,39.661277579888655 L6.561987369740779,39.75785971874727 L6.004222692417187,39.84657559421546 L5.445261028629471,39.92740752012131 L4.885213811557206,40.0003393820171 L4.324192690793094,40.06535664039182 L3.762309510084836,40.12244633356974 L3.1996762850381946,40.17159708029443 L2.63640518078588,40.212799081997694 L2.072608489626572,40.24604412475298 L1.5083986086386407,40.27132558091286 L0.9438880172729207,40.28863841043038 L0.37918925492910155,40.29797916186376 L-0.18558510147982807,40.29934597306447 L-0.7503224599706463,40.292738571548504 L-1.3149102359359404,40.27815827455068 L-1.8792358745886848,40.255607988762 L-2.443186873400893,40.22509220975027 L-3.0066508045318194,40.18661702106378 L-3.569515337241306,40.14019009301857 L-4.1316682602837265,40.085820681169245 L-4.692997504278166,40.023519624463866 L-5.2533911640502815,39.953299343083074 L-5.812737520941408,39.875173835964056 L-6.370925065080545,39.78915867800978 L-6.92784251761465,39.69527101698394 L-7.483378852892926,39.593529570092514 L-8.037423320600615,39.483954620252305 L-8.589865467837889,39.3665680120474 L-9.140595161139462,39.24139314737428 L-9.689502608430523,39.10845498077646 L-10.236478380914606,38.96778001446965 L-10.781413434889037,38.81939629305836 L-11.324199133483603,38.66333339794492 L-11.864727268318129,38.499622441432265 L-12.402890081074627,38.32829606052146 L-12.938580284979716,38.14938841040525 L-13.471691086193054,37.96293515765901 L-14.002116205097463,37.76897347313028 L-14.52974989748659,37.567542024528535 L-15.054486975645782,37.35868096871646 L-15.576222829322061,37.14243194370441 L-16.094853446578945,36.918838060349515 L-16.61027543453201,36.68794389376124 L-17.122386039961036,36.44979547441503 L-17.63108316979461,36.204440278975724 L-18.136265411463175,35.95192722083277 L-18.637832053116345,35.69230664034899 L-19.135683103700597,35.4256302948248 L-19.62971931289322,35.15195134818007 L-20.119842190888587,34.87132436035546 L-20.60595402803288,34.58380527643549 L-21.087957914303193,34.28945141549547 L-21.565757758627292,33.988321459174536 L-22.039258308040083,33.68047543997701 L-22.508365166673006,33.365974729304476 L-22.97298481457254,33.044882025220915 L-23.433024626344128,32.71726133995342 L-23.888392889617712,32.383177987130836 L-24.338998823331305,32.04269856876302 L-24.784752595828866,31.695890961963265 L-25.225565342768885,31.34282430541641 L-25.661349184840205,30.983568985595618 L-26.092017245281365,30.618196622730242 L-26.517483667200164,30.246780056527832 L-26.93766363068987,29.86939333165297 L-27.352473369738675,29.486111682965944 L-27.76183018892912,29.097011520524113 L-28.165652479924002,28.702170414348952 L-28.56385973773562,28.301667078961927 L-28.956372576775056,27.895581357692166 L-29.343112746678276,27.483994206759085 L-29.724003147905908,27.06698767913316 L-30.09896784711365,26.644644908178066 L-30.467932092290106,26.217050091077407 L-30.83082232765918,25.784288472049376 L-31.18756620834397,25.346446325352726 L-31.538092614789253,24.90361093808728 L-31.882331666939695,24.455870592792664 L-32.22021473817099,24.00331454984848 L-32.551674468971015,23.546033029679613 L-32.87664478036857,23.084117194770105 L-33.1950608871066,22.617659131489194 L-33.50685931055769,22.146751831733287 L-33.811977891378966,21.67148917438728 L-34.11035580190405,21.191965906609095 L-34.401933558269484,20.70827762494116 L-34.68665303227331,20.220520756252505 L-34.964457462963345,19.728792538515346 L-35.23529146795289,19.233191001419964 L-35.49910105446165,18.733814946831785 L-35.75583363007956,18.230763929094444 L-36.00543801325153,17.724138235182927 L-36.24786444348079,17.214038864710595 L-36.48306459124912,16.700567509794137 L-36.71099156765158,16.183826534780536 L-36.931599933744295,15.663918955839925 L-37.144845709602905,15.140948420428579 L-37.35068638309043,14.615019186625986 L-37.54908091833227,14.086236102350252 L-37.73998976389709,13.55470458445589 L-37.923374860681655,13.020530597718146 L-38.09919964949818,12.483820633708156 L-38.267429078362746,11.944681689563069 L-38.42802960948308,11.403221246655324 L-38.58096922594466,10.859547249165498 L-38.72621743809344,10.313768082562781 L-38.86374528961426,9.76599255199752 L-38.993525363303455,9.216329860610152 L-39.11553178653469,8.664889587760683 L-39.22974023641691,8.111781667183255 L-39.336127944643195,7.557116365070048 L-39.43467370202988,7.001004258088858 L-39.52535786274473,6.443556211338823 L-39.608162348223445,5.884883356248671 L-39.68307065077384,5.325097068421786 L-39.75006783686672,4.764308945432709 L-39.80914055011298,4.202630784579266 L-39.86027701392635,3.640174560594993 L-39.903467033871074,3.0770524033261215 L-39.93870199969436,2.5133765753776283 L-39.96597488704276,1.9492594497329134 L-39.98528025886265,1.3848134873513267 L-39.996614266484066,0.8201512147482927 L-39.999974650387976,0.2553852015623027 L-39.99536074065678,-0.3093719618867071 L-39.98277345710782,-0.8740076870430598 L-39.96221530911001,-1.438409409560697 L-39.933690395083595,-2.0024646117437537 L-39.89720440168311,-2.5660608449777573 L-39.852764602663626,-3.129085752147138 L-39.800379857430784,-3.69142709003443 L-39.7400606092745,-4.252972751696809 L-39.67181888328712,-4.813610788815453 L-39.59566828396605,-5.373229434013252 L-39.51162399250161,-5.931717123136496 L-39.419702763750585,-6.488962517496003 L-39.319922922896005,-7.044854526063326 L-39.21230436179386,-7.599282327617583 L-39.09686853500752,-8.152135392838474 L-38.97363845553064,-8.70330350634115 L-38.842638690199315,-9.252676788648472 L-38.70389535479448,-9.800145718096271 L-38.557436108835596,-10.345601152667363 L-38.403290150066454,-10.888934351749764 L-38.241488208634436,-11.430036997815012 L-38.07206254096418,-11.968801218012 L-37.895046923327094,-12.505119605672295 L-37.71047664510771,-13.03888524172243 L-37.51838850176858,-13.569991715999013 L-37.31882078751473,-14.098333148462409 L-37.11181328765953,-14.623804210304712 L-36.89740727069309,-15.146300144947812 L-36.67564548005514,-15.665716788927412 L-36.44657212561379,-16.181950592658794 L-36.21023287485198,-16.694898641080197 L-35.966674843763315,-17.204458674169715 L-35.7159465874591,-17.710529107331567 L-35.458098090488576,-18.21300905164778 L-35.19318075687411,-18.71179833399112 L-34.92124739986341,-19.206797516995366 L-34.64235223140081,-19.69790791887889 L-34.35655085131971,-20.185031633117603 L-34.063900236258355,-20.66807154796335 L-33.76445872830109,-21.146931365803876 L-33.458286023347455,-21.62151562236045 L-33.145443159211354,-22.091729705719402 L-32.825992503452696,-22.557479875193703 L-32.49999774094396,-23.018673280010876 L-32.167523861174175,-23.475217977823483 L-31.82863714529274,-23.927022953038538 L-31.48340515289578,-24.373998134962108 L-31.131896708557697,-24.816054415755623 L-30.774181888110373,-25.25310366820015 L-30.41033200467313,-25.685058763265236 L-30.04041959443589,-26.111833587478728 L-29.664518402198517,-26.53334306009411 L-29.282703366669285,-26.949503150052035 L-28.89505060552524,-27.360230892732485 L-28.501637400237623,-27.765444406494435 L-28.102542180665214,-28.165062908999552 L-27.697844509418744,-28.559006733316753 L-27.287625065999475,-28.947197343804397 L-26.871965630715206,-29.32955735176697 L-26.45094906837668,-29.706010530883084 L-26.024659311777924,-30.07648183240177 L-25.593181344963575,-30.44089740010401 L-25.15660118628675,-30.799184585026513 L-24.71500587126052,-31.151271959944825 L-24.26848343520688,-31.49708933361292 L-23.817122895706113,-31.836567764756285 L-23.361014234850582,-32.16963957581593 L-22.900248381306056,-32.496238366440394 L-22.434917192184425,-32.816299026723144 L-21.965113434731318,-33.12975775018274 L-21.490930767832214,-33.43655204648311 L-21.01246372334091,-33.736620753891486 L-20.52980768723382,-34.02990405147144 L-20.043058880594124,-34.31634347100864 L-19.552314340429334,-34.59588190866691 L-19.057671900326277,-34.86846363637235 L-18.559230170947227,-35.134034312923056 L-18.05708852037113,-35.39254099482256 L-17.551347054283823,-35.64393214683441 L-17.04210659602126,-35.888157652256155 L-16.52946866646957,-36.125168822910496 L-16.013535463826166,-36.35491840885158 L-15.494409843225737,-36.577360607784684 L-14.972195296235306,-36.792451074197224 L-14.446995930222455,-37.000146928199364 L-13.918916447600681,-37.20040676407243 L-13.38806212495627,-37.39319065852347 L-12.854538792060518,-37.578460178644285 L-12.318452810771886,-37.75617838957322 L-11.779911053831892,-37.92630986185852 L-11.239020883559261,-38.08882067852137 L-10.695890130446458,-38.243678441817565 L-10.150627071662845,-38.390852279696176 L-9.603340409468839,-38.530312851954164 L-9.054139249545308,-38.66203235608556 L-8.503133079242511,-38.78598453282413 L-7.950431745753024,-38.9021446713783 L-7.396145434212837,-39.01048961435747 L-6.840384645735162,-39.11099776238859 L-6.283260175381168,-39.203649078422224 L-5.724883090072206,-39.28842509172698 L-5.165364706447765,-39.36530890157188 L-4.604816568673652,-39.434285180595595 L-4.0433504262048725,-39.49534017786208 L-3.481078211507515,-39.54846172160195 L-2.918112017744175,-39.59363922163898 L-2.3545640764273568,-39.63086367150134 L-1.7905467350452857,-39.66012765021711 L-1.2261724346645837,-39.68142532379375 L-0.6615536875143291,-39.694752446381045 L-0.0968030545558749,-39.70010636111765 L0.467966876956995,-39.697486000660696 L1.0326435159232001,-39.68689188739861 L1.5971142898402175,-39.66832613334692 L2.161266667246248,-39.64179243972729 L2.7249881801542317,-39.60729609622957 L3.2881664464731544,-39.564843979957296 L3.8506891924122613,-39.51444455405671 L4.412444274863676,-39.45610786602951 L4.973319703758978,-39.389845545729884 L5.53320366439524,-39.31567080304591 L6.091984539726134,-39.23359842526618 L6.649550932613625,-39.143644774131765 L7.205791688035811,-39.04582778257438 L7.760595915246514,-38.94016695114138 L8.313853009882184,-38.82668334410812 L8.865452676011685,-38.70539958527867 L9.415284948124636,-38.57633985347555 L9.963240213053837,-38.439529877719586 L10.50920923182748,-38.29499693210052 L11.053083161446759,-38.14276983033981 L11.594753576584516,-37.98287892004636 L12.134112491200662,-37.815356076666504 L12.671052380069991,-37.64023469712941 L13.205466200218119,-37.45754969318912 L13.73724741226133,-37.267337484464676 L14.266290001645979,-37.06963599117955 L14.792488499783284,-36.86448462660202 L15.315738005075286,-36.651924289187775 L15.835934203827753,-36.431997354426564 L16.352973391045907,-36.204747666394276 L16.86675249110878,-35.970220529012344 L17.37716907831811,-35.72846269701603 L17.88412139731767,-35.479522366633525 L18.387508383378957,-35.22344916597771 L18.887229682549194,-34.96029414515236 L19.383185671657653,-34.69010976607498 L19.875277478176265,-34.4129498920181 L20.363406999930607,-34.12886977687123 L20.84747692465729,-33.837926054125596 L21.32739074940389,-33.540176725583834 L21.803052799767542,-33.23568114979689 L22.274368248968333,-32.924500030230426 L22.741243136753734,-32.60669540316319 L23.203584388130277,-32.282330625319545 L23.66129983191875,-31.951470361238922 L24.114298219129207,-31.61418057038438 L24.562489241152146,-31.270528493993137 L25.00578354776218,-30.920582641671512 L25.444092764930698,-30.564412777737036 L25.87732951244388,-30.20208990731042 L26.305407421322574,-29.83368626216013 L26.728241151040635,-29.459275286302454 L27.14574640653815,-29.078931621359907 L27.557839955026335,-28.692731091680834 L27.96443964258058,-28.300750689223296 L28.36546441051845,-27.903068558206126 L28.76083431155936,-27.499763979530304 L29.15047052576262,-27.0909173549737 L29.53429537624084,-26.67661019116242 L29.91223234464534,-26.256925083321786 L30.284206086420678,-25.831945698810454 L30.650142445825157,-25.40175676044061 L31.00996847071431,-24.96644402958789 L31.36361242708445,-24.526094289094207 L31.711003813373427,-24.080795325966957 L32.05207337451555,-23.630635913877978 L32.386753115748206,-23.175705795465895 L32.714976316167046,-22.71609566444527 L33.03667754202731,-22.25189714752608 L33.35179265978858,-21.783202786147278 L33.66025884890021,-21.310106018027973 L33.96201461432513,-20.83270115853993 L34.256999798799285,-20.351083381905045 L34.54515559482451,-19.86534870222173 L34.82642455639215,-19.375593954323726 L35.10075061043545,-18.88191677447538 L35.36807906800805,-18.384415580907127 L35.62835663518669,-17.88318955419508 L35.88153142369574,-17.378338617488637 L36.127552961251496,-16.86996341659005 L36.36637220162424,-16.358165299889947 L36.59794153441593,-15.843046298162783 L36.822214794551726,-15.324709104226205 L37.03914727148333,-14.803257052468528 L37.248695718102354,-14.278794098248177 L37.450818359361975,-13.751424797169499 L37.64547490060508,-13.221254284238753 L37.83262653559733,-12.688388252904698 L38.012235954263446,-12.152932933987795 L38.18426735012529,-11.614995074502328 L38.348686427440114,-11.07468191637556 L38.50546040803768,-10.532101175068266 L38.654558037854855,-9.987361018100852 L38.79594959316633,-9.440570043489366 L38.92960688651025,-8.891837258095642 L39.05550327230761,-8.341272055895992 L39.173613652174275,-7.788984196172698 L39.283914479924476,-7.235083781632686 L39.38638376626495,-6.679681236457696 L39.48100108317867,-6.122887284290446 L39.56774756799732,-5.564812926161005 L39.646605927161715,-5.005569418357934 L39.717560439669384,-4.445268250248518 L39.78059696020867,-3.8840211220524985 L39.83570292197873,-3.3219399225738293 L39.88286733919478,-2.7591367068948047 L39.92208080927825,-2.195723674037035 L39.953335514731194,-1.6318131445937285 L39.9766252246948,-1.0675175383377582 L39.99194529619157,-0.5029493518099394 L39.9992926750509,0.061778864108019166 L39.99866589651798,0.626554526631333 L39.99006508554579,1.1912650435164043 L39.973491956770175,1.7557978355068826 L39.94894981416808,2.3200403587772205 L39.91644355039879,2.8838801273690957 L39.875979645828615,3.4472047356163467 L39.82756616723891,4.009901880553855 L39.77121276621801,4.571859384306015 L39.70693067723699,5.132965216450198 L39.63473271541006,5.693107516350871 L39.554633273939785,6.252174615459851 L39.466648321247646,6.810055059578251 L39.370795397790666,7.366637631075717 L39.26709361256453,7.921811371062482 L39.15556363929412,8.47546560150986 L39.036227712312034,9.027489947314745 L38.909109622125996,9.577774358303671 L38.77423471067604,10.126209131172196 L38.63162986628243,10.672684931355015 L38.48132351828525,11.217092814822667 L38.3233456313768,11.759324249800319 L38.15772769962792,12.299271138404375 L37.98450274020943,12.836825838192635 L37.80370528680987,13.371881183623568 L37.615371382751,13.904330507420607 L37.419538573802235,14.434067661837037 L37.21624590069567,14.96098703981735 L37.005533891342985,15.48498359605082 L36.78744455275593,16.005952867913035 L36.5620213626719,16.52379099629131 L36.329309260886305,17.038394746289804 L36.089354640293536,17.54966152781013 L35.84220533763811,18.057489416003484 L35.587910623978175,18.561777171590105 L35.326521194862856,19.062424261042096 L35.05808916022576,19.559330876625516 L34.78266803399648,20.05239795629782 L34.500312723432174,20.5415272034566 L34.211079518171395,21.026621106535742 L33.91502607901236,21.507582958445102 L33.61221142641779,21.98431687584978 L33.302695928748776,22.456727818285163 L32.9865412902299,22.924721607103965 L32.66381053864802,23.388204944251456 L32.3345680127872,23.847085430865093 L31.99887934960233,24.301271585694955 L31.65681147113388,24.750672863341194 L31.308432571166474,25.19519967230493 L30.953812101634014,25.634763392849017 L30.593020758773868,26.069276394665014 L30.22613046903304,26.49865205434296 L29.85321437472913,26.922804772640387 L29.47434681946885,27.341649991547182 L29.089603333327084,27.755104211142843 L28.699060617789364,28.163085006242817 L28.302796530460924,28.56551104283058 L27.900890069545127,28.96230209427217 L27.49342135809467,29.353379057309983 L27.080471628038357,29.738663967832572 L26.662123203986994,30.11808001641739 L26.238459486821316,30.491551563643338 L25.809564937065417,30.85900415517001 L25.375525058048908,31.220364536580753 L24.9364263788612,31.575560667986462 L24.49235643710124,31.924521738387288 L24.04340376142632,32.26717817978933 L23.58965785390315,32.603461681073526 L23.131209172164994,32.93330520161398 L22.668149111378256,33.256642984643065 L22.200569986022163,33.57341057036044 L21.7285650114852,33.88354480878364 L21.252228285481923,34.18698387233753 L20.771654769293868,34.483667268180014 L20.286940268838315,34.773535850261794 L19.79818141556866,35.05653183111756 L19.305475647210233,35.33259879338634 L18.808921188335333,35.60168170105874 L18.30861703078144,35.86372691044879 L17.80466291391647,36.11868218088817 L17.297159304754928,36.36649668514083 L16.786207377929145,36.607121019535754 L16.27190899551929,36.84050721381594 " />

        </g>
        </g>
    </svg>
    