<?xml version="1.0" encoding="UTF-8" standalone="no"?>
    <svg
    xmlns:svg="http://www.w3.org/2000/svg"
    xmlns="http://www.w3.org/2000/svg"
    width="472"
    height="292"
    >
        <g transform="scale(4, -4)   translate(59.068542491094206,-38.00666612501349)" stroke-width="0.25"  fill="none">
        <!-- hidden lines -->
        <g  stroke="rgb(160,160,160)" fill="none" stroke-dasharray="0.25,0.25" >
    			<path d="M-14.078211748195756,18.084542044472276 L5.361449950669339e-09,23.986251297305262 " />
			<path d="M15.02980100441659,17.685627525855196 L5.361435739814624e-09,23.986251297305262 " />
			<path d="M22.36252658824528,1.618199293347468 L22.27389805974397,1.802584250978657 L22.176954371421058,1.9862505450154075 L22.071741747356004,2.169132998724745 L21.95830880474279,2.351166980070887 L21.83670655388989,2.532288401715246 L21.706988398220304,2.712433721016426 L21.569210134271533,2.891539940030225 L21.423429951479257,3.0695446055941877 L21.269708265217034,3.2463858741680873 L21.108107754216554,3.4220024859744336 L20.93869339219224,3.5963337370178956 L20.761532320790636,3.769319526859408 L20.576693849590434,3.94090035861617 L20.384249456102463,4.111017338961649 L20.18427278576969,4.279612178125577 L19.976839651793764,4.446627189960313 L19.762027886403963,4.612005347412903 L19.53991738338143,4.775690255503338 L19.310590132419982,4.937626130820481 L19.074130103389066,5.0977578455048285 L18.830623246333726,5.256030927248508 L18.580157491474633,5.412391559295283 L18.32282274920807,5.566786580440547 L18.058710910096373,5.719163485035146 L17.787915716186127,5.869470471983587 L17.510532793009773,6.017656421223009 L17.22665970259872,6.163670873719811 L16.936395830091527,6.307464078327556 L16.639842383733907,6.4489869917869775 L16.337102394878713,6.588191278725973 L16.02828071798597,6.725029311659606 L15.713484030622862,6.859454170990095 " />
			<path d="M15.713484030622828,6.859454170990103 L15.392461033820238,6.991565002552864 L15.065668858627411,7.121165435788865 L14.733219806254287,7.248210602253787 L14.395227873795857,7.37265640129595 L14.051808754232162,7.494459500056317 L13.703079836428294,7.613577333468488 L13.349160205134401,7.729968104258701 L12.990170640985674,7.843590782945837 L12.626233513153304,7.954405153517652 L12.257472813720982,8.062371796853448 L11.884014228027816,8.167452071102574 L11.505985011788889,8.26960816845782 L11.123513990980086,8.368803115206077 L10.736731561838093,8.46500077172833 L10.345769690860394,8.558165832499666 L9.95076191480527,8.648263826089263 L9.551843238667557,8.735261162332726 L9.149150176631512,8.819125121477962 L8.742820824738878,8.899823832762564 L8.3329947249781,8.977326338493363 L7.9198128649816315,9.051602594185466 L7.503417678025942,9.12262346856227 L7.083953043031508,9.19036074355545 L6.661564284562825,9.254787114304966 L6.236398060647561,9.315876241683684 L5.808602424955548,9.373602741098033 L5.378326891339812,9.427942165482674 L4.945722278789349,9.47887107553606 L4.510940711172484,9.526367039835977 L4.0741356172368715,9.570408634839533 L3.635461730609498,9.610975444883177 L3.19507508979671,9.648048062182681 " />
			<path d="M3.195075089796685,9.648048062182685 L2.661040898431107,9.664047045622597 L2.126188525072808,9.674804726397783 L1.5908136194857805,9.680326755039916 L1.0552098107642292,9.680621368772064 L0.5196686989135624,9.675699356088039 L-0.015520153568617356,9.665574021331762 L-0.5500692301115171,9.650261149276625 L-1.0836930684901622,9.629778969704851 L-1.6161082692444042,9.604148121986853 L-2.14703350409793,9.573391619660597 L-2.676189524377264,9.537534815010966 L-3.20329967495773,9.496605337057531 L-3.7280908050390313,9.45063302262278 L-4.250291391909597,9.399649981583014 L-4.769632528540172,9.343690503904135 L-5.285847992800974,9.282791031003704 L-5.798674240901325,9.216990131537068 L-6.307850400829273,9.146328477183468 L-6.813118265791224,9.070848818432163 L-7.314222493812192,8.990595927898935 L-7.810910859909371,8.905616563340365 L-8.302933879272782,8.815959483240144 L-8.790045066291631,8.721675371613339 L-9.272000941411656,8.622816836610241 L-9.748561069041484,8.519438401337665 L-10.219488835096312,8.411596285037003 L-10.684549835106736,8.299348737920026 L-11.143512609773348,8.182755905738617 L-11.596149169065244,8.061879686611016 L-12.042234969198004,7.936783711944151 L-12.481548894666386,7.80753333029193 L-12.913873245331754,7.67419559414953 L-13.338993728564258,7.536839249683642 L-13.756699456439726,7.395534729398706 L-14.16678294799131,7.250354147739107 L-14.569040136515842,7.101371299627362 L-14.96327038193495,6.948661661938273 L-15.349276488210894,6.792302397909055 L-15.726865432756597,6.632372058342734 L-16.09584890116586,6.468950292841564 L-16.456040752421686,6.30211894776783 L-16.80725877992602,6.131961358177019 L-17.149324794072133,5.958562299256715 L-17.482064614963583,5.782007980005664 L-17.80530807213679,5.60238603903186 L-18.118889011287184,5.41978554246961 L-18.422645307998962,5.234296984015603 L-18.716418888478426,5.046012287083987 L-19.000055757290873,4.855024809080445 L-19.138025924830718,4.758547095002874 L-19.273406032101153,4.661429347795257 L-19.40617799333073,4.563683643637983 L-19.536323985417738,4.465322149915373 L-19.663826449617723,4.3663571255975615 L-19.788668119298627,4.266800901880302 L-19.910832152761554,4.166665773395645 L-20.03030186748321,4.065964195635099 L-20.147060838019414,3.9647087243816768 L-20.26109292579608,3.8629119941787176 L-20.372382279109225,3.760586718329882 L-20.480913333124963,3.6577456888991513 L-20.58667080987953,3.5544017767108302 L-20.689639718279242,3.450567931349541 L-20.789805354100537,3.346257181160234 L-20.88715329998994,3.2414826332481783 L-20.981669427466354,3.1362574717310827 L-21.07333993736193,3.0305949288271115 L-21.16215130944285,2.9245083401871224 L-21.248090312584118,2.818011126352985 L-21.331144021845837,2.711116777518405 L-21.411299820278266,2.6038388536148664 L-21.488545400726842,2.4961909843975807 L-21.5628687676372,2.3881868695314252 L-21.634258238860227,2.2798402786768825 L-21.702702447457046,2.171165051575991 L-21.76819034350409,2.062175098138284 L-21.830711195898107,1.952884398526735 L-21.89025459416118,1.8433070032436991 L-21.946810450245778,1.7334570332168746 " />
			<path d="M-56.568542491094206,-8.806674333291063 L5.361449950669339e-09,14.90735245610232 " />
			<path d="M5.361439292528303e-09,14.907352456102316 L5.361439292528303e-09,23.98625129730526 " />
			<path d="M56.5685424987534,-8.806674334575384 L5.361435739814624e-09,14.90735245610232 " />
			<path d="M3.195075089796674,9.648048062182685 L1.1785113060305696,35.50666602501349 " />

        </g>

        <!-- solid lines -->
        <g  stroke="rgb(0,0,0)" fill="none">
    			<path d="M2.2977566516146908e-09,-32.52070112396876 L2.2977566516146908e-09,-23.44180228276582 " />
			<path d="M2.2977566516146908e-09,-23.44180228276582 L-56.568542491094206,0.2722245079118828 " />
			<path d="M-56.568542491094206,-8.806674333291063 L-56.568542491094206,0.27222450791187924 " />
			<path d="M2.2977566516146908e-09,-32.52070112396876 L-56.568542491094206,-8.80667433329106 " />
			<path d="M2.2977566516146908e-09,-32.52070112396876 L56.568542498753416,-8.80667433457538 " />
			<path d="M56.5685424987534,-8.806674334575384 L56.5685424987534,0.27222450662755904 " />
			<path d="M2.2977566516146908e-09,-23.44180228276582 L56.568542498753416,0.2722245066275626 " />
			<path d="M-56.568542491094206,0.27222450791187924 L-14.078211748195756,18.084542044472276 " />
			<path d="M56.5685424987534,0.27222450662755904 L15.02980100441659,17.685627525855196 " />
			<path d="M22.36552560144618,1.6116278720085768 L22.363928023009294,1.6151314645391948 " />
			<path d="M22.363928023009294,1.6151314645391948 L22.36252658824528,1.618199293347468 " />
			<path d="M-21.94681045024579,1.7334570332168562 L-22.029411139344024,1.560786879611143 L-22.10461433036694,1.387537071122936 L-22.172386156151934,1.2137626980301701 L-22.232694694022523,1.0395195432899982 L-22.285510060160227,0.8648638073506003 L-22.330804461294065,0.689852019879852 L-22.368552219662835,0.5145410387226496 L-22.398729797977428,0.33898804885823863 L-22.42131582438314,0.1632505613575399 L-22.43629111742196,-0.012613587659522807 L-22.44363871099489,-0.18854623806669712 L-22.44334387932424,-0.3644889067740733 L-22.435394161915937,-0.54038278877076 L-22.419779388521825,-0.7161687581675538 L-22.396491704101976,-0.8917873692396148 L-22.36552559378699,-1.0671788574691021 " />
			<path d="M-22.365525593786977,-1.0671788574691394 L-22.277090951451008,-1.2517926248459015 L-22.18032110001448,-1.4356884090129098 L-22.075262310443385,-1.6188007785005194 L-21.96196329847901,-1.8010648591726057 L-21.840475201018265,-1.9824163330070903 L-21.71085155249398,-2.1627914368764705 L-21.57314826125522,-2.3421269613283444 L-21.427423585947594,-2.5203602493659405 L-21.273738111893547,-2.6974291952286436 L-21.112154703718957,-2.8732722669309916 L-20.942738416505044,-3.0478286045114924 L-20.765556596646626,-3.221037892331189 L-20.580678762241615,-3.392840415635294 L-20.38817658920683,-3.5631770713808484 L-20.188123911277962,-3.73198936823672 L-19.98059672000962,-3.8992194265836053 L-19.76567290992064,-4.064810146228428 L-19.543432519504904,-4.22870497005634 L-19.31395789515144,-4.39084780245981 L-19.077333366868768,-4.551183244523307 L-18.833645229059545,-4.709656589909647 L-18.58298172353387,-4.86621382138165 L-18.325433024718727,-5.020801607990115 L-18.061091227063613,-5.173367302928095 L-17.790050334642345,-5.323858942051491 L-17.51240625295097,-5.472225243065946 L-17.228256782901916,-5.618415605380064 L-16.937701617014227,-5.762380110624919 L-16.640842337800027,-5.904069523839892 L-16.3377824183471,-6.043435295324809 L-16.028627225097644,-6.180429563158385 L-15.713484022823213,-6.315005156382994 L-15.392461143364514,-6.447115937609697 L-15.065668644995267,-6.576716493185157 L-14.733219051512044,-6.703761856780758 L-14.395226534968115,-6.8282078578641645 L-14.051806908076433,-6.9500111196137695 L-13.70307761820204,-7.069129057753804 L-13.34915774294393,-7.185519880310097 L-12.990167987306327,-7.299142588286487 L-12.626230682459422,-7.4099569772618885 L-12.257469786089528,-7.5179236399080125 L-11.884010884338686,-7.623003969427738 L-11.5059811953337,-7.72516016391414 L-11.12350957430462,-7.824355231630168 L-10.736726520292649,-7.920552997208976 L-10.345764184447493,-8.013718108774915 L-9.950756379840215,-8.103816046002983 L-9.551838020443135,-8.190813256057906 L-9.14914531571295,-8.27467708487738 L-8.742816334385697,-8.355375676138388 L-8.332990604403236,-8.432878078094433 L-7.919809112913243,-8.50715424357554 L-7.503414306269214,-8.578175029988254 L-7.08395006420168,-8.645912205136016 L-6.6615615648935655,-8.710338497360912 L-6.236395589604978,-8.771427553263038 L-5.808600288305948,-8.829153974946387 L-5.3783251259108855,-8.883493339878186 L-4.945720885187554,-8.93442221079049 L-4.5109396696660635,-8.981918145581758 L-4.074134906547846,-9.025959707218437 L-3.635461349614643,-9.066526473636543 L-3.1950750821375493,-9.103599047643243 " />
			<path d="M-3.1950750821374854,-9.103599047643247 L-2.5563190930923723,-9.122118118544071 L-1.9164759173075228,-9.13314263861935 L-1.2760502025200215,-9.13668357526793 L-0.6355424566472161,-9.132757158314938 L0.0045509728068293676,-9.121384793369785 L0.6437379193448796,-9.102592975184166 L1.281530418070072,-9.076413201010052 L1.9174447262794603,-9.04288188395768 L2.551001344057563,-9.002040266353562 L3.181725480954749,-8.95393430954447 L3.809149031736271,-8.898614524030924 L4.432807974619212,-8.836136032450023 L5.052243547795175,-8.766558414462922 L5.667002476435096,-8.689945632930975 L6.2766369566418625,-8.606365974686465 L6.880704639402937,-8.515891991303336 L7.478769050972959,-8.418600375185076 L8.070399851179097,-8.314571903728966 L8.655172525617923,-8.203891382279735 L9.23266870817905,-8.086647551859377 L9.802476265997747,-7.962933068346971 L10.084370104929686,-7.898679252748729 L10.36419033298596,-7.8328441902571075 L10.6418871013731,-7.7654405550579755 L10.917411007138826,-7.696481247217146 L11.190713091067842,-7.625979391022052 L11.461744835808712,-7.553948333457622 L11.730458164231761,-7.480401642816346 L11.996805438018004,-7.405353107442543 L12.260739456479138,-7.328816734610823 L12.522213455608544,-7.250806749538738 L12.781181107363352,-7.171337594533638 L13.037596519177537,-7.090423928273718 L13.29141423370605,-7.00808062522326 L13.54258922879999,-6.924322775182074 L13.79107691771282,-6.83916568296913 L14.036833149537614,-6.752624868240389 L14.279814209875347,-6.6647160654408335 L14.519976821734229,-6.575455223890681 L14.757278146660072,-6.484858508005808 L14.99167578609769,-6.392942297652363 L15.223127782983351,-6.29972318863557 L15.451592623568267,-6.205217993322738 L15.677029712118234,-6.109443537928069 L15.899398910599238,-6.012416840537701 L16.118660114008286,-5.914155304077508 L16.334773733939663,-5.81467651731485 L16.547700697098783,-5.713998254094155 L16.75740244413616,-5.612138472669349 L16.963840928801506,-5.5091153151331484 L17.166978617417918,-5.4049471069431965 L17.366778488676214,-5.299652356545058 L17.563204033749365,-5.19324975509207 L17.75621925672705,-5.085758176262038 L17.945788675370324,-4.9771966761707915 L18.13187732218642,-4.867584493382596 L18.31445074582364,-4.756941049017408 L18.493475012786384,-4.645285946954996 L18.668916709470285,-4.532638974135905 L18.840742944517476,-4.419020100959277 L19.008921351491953,-4.304449481777533 L19.173420091875062,-4.188947455487893 L19.334207858381117,-4.0725345462207665 L19.49125387859312,-3.9552314641249793 L19.644527918918588,-3.8370591062498716 L19.794000319786583,-3.718038533917902 L19.9396422021447,-3.598190804275949 L20.081425100982543,-3.4775372408355922 L20.219321088521546,-3.3560993636971075 L20.353302823746503,-3.2338988540569287 L20.48334355240556,-3.1109575542076406 L20.60941710701022,-2.9872974675379846 L20.731497906835322,-2.862940758532855 L20.849560957919085,-2.737909752773299 L20.963581853197002,-2.6122269368161914 L21.073536822470043,-2.4859149210192077 L21.179402701330115,-2.3589964914142656 L21.281156912476025,-2.231494613663899 L21.37877750560814,-2.1034323959311196 L21.47224316184367,-1.9748330890896484 L21.561533198131894,-1.8457200869341448 L21.646627571669427,-1.7161169263904374 L21.727506884315478,-1.5860472877257537 L21.804152387007097,-1.4555349947589509 L21.87654598417443,-1.3246040150707443 L21.94467023815598,-1.1932784602139408 L22.008508373613846,-1.061582585923665 L22.068044281948996,-0.9295407923275929 L22.123262560531135,-0.7971775222665283 L22.17414850587182,-0.6645173290804576 L22.22068805482904,-0.5315850578996922 L22.26286784427975,-0.39840566769094854 L22.300675218173243,-0.26500422912385435 L22.33409823398987,-0.13140592430116893 L22.363125669199814,0.002363953511000383 L22.38774702772181,0.1362800001529787 L22.407952546381914,0.2703167008413059 L22.42373320137223,0.40444843043851697 L22.43508071470967,0.5386494537229252 L22.44198756069469,0.6728939256584032 L22.444446972370045,0.807155891664165 L22.442452947979522,0.9414092878845464 L22.436000257426695,1.0756279414587877 L22.425084448733678,1.2097855707908145 L22.40970185449985,1.3438557858190212 L22.389849598360623,1.4778120882860508 L22.36552560144618,1.6116278720085375 " />
			<path d="M8.249579117704567,32.54241267617877 L4.714045211867568,34.02453935059613 " />
			<path d="M22.36552560144618,1.6116278720085813 L22.341418945767685,1.6644502442100135 " />
			<path d="M22.341418945767685,1.6644502442100135 L8.249579117704565,32.54241267617878 " />
			<path d="M4.714045211867568,34.02453935059613 L1.1785113060305705,35.50666602501349 " />
			<path d="M-22.365525593786984,-1.0671788574691403 L-14.18657257895557,17.834123582461398 " />
			<path d="M-14.18657257895557,17.834123582461398 L-8.249579110045373,31.55432822678126 " />
			<path d="M-8.249579110045373,31.554328226781255 L1.17851130603057,35.50666602501349 " />
			<path d="M-3.195075082137485,-9.103599047643248 L-1.1785112983713768,28.59007487794655 " />
			<path d="M-1.1785112983713755,28.590074877946545 L-8.24957911004537,31.554328226781255 " />
			<path d="M-1.1785112983713768,28.590074877946545 L8.249579117704567,32.54241267617878 " />
			<path d="M22.341418945767685,1.66445024421001 L22.363928023033225,1.6151314645318582 " />
			<path d="M-14.186572578955568,17.834123582461395 L-14.379287448829263,17.392435472030634 L-14.579692883296923,16.939961998192395 L-14.786861634399688,16.47825202784614 L-14.999961359051438,16.008674773087208 L-15.441098881021073,15.050496984692055 L-15.89834480197159,14.072789233687118 L-16.36844404116733,13.080064441970972 L-16.848824318760013,12.07577042139101 L-17.33752994958631,11.062531902625828 L-17.833140105326393,10.042085677820385 L-18.334477625278634,9.01584046489844 L-18.84060901635966,7.984876907562548 L-19.86467500633034,5.911570104365806 L-20.901070833027514,3.82672984565823 L-21.946810455747663,1.7334570332042984 " />

        </g>
        </g>
    </svg>
    