<?xml version="1.0" encoding="UTF-8" standalone="no"?>
    <svg
    xmlns:svg="http://www.w3.org/2000/svg"
    xmlns="http://www.w3.org/2000/svg"
    width="488"
    height="282"
    >
        <g transform="scale(4, -4)   translate(64.09291632535243,-34.45528800419418)" stroke-width="0.25"  fill="none">
        <!-- hidden lines -->
        <g  stroke="rgb(160,160,160)" fill="none" stroke-dasharray="0.25,0.25" >
    			<path d="M44.0956595483038,27.028635061770622 L44.0956595483038,27.966187948451513 " />
			<path d="M55.56377253234472,1.842448542635077 L44.0956595483038,27.028635061770625 " />
			<path d="M-28.311156175149137,31.01773511751329 L-28.311156175149137,31.95528800419418 " />
			<path d="M44.09565954830381,27.028635061770622 L-28.31115617514913,31.017735117513286 " />
			<path d="M-28.31115617514914,31.017735117513286 L-61.592916325352434,8.296948017350807 " />
			<path d="M35.35533905932738,-4.138208728160981 L35.35533905932738,-3.20065584148009 " />
			<path d="M-22.69952498697734,-0.9397990330328643 L-22.69952498697734,-0.0022461463519731772 " />
			<path d="M35.35533905932738,-4.138208728160981 L-22.699524986977337,-0.9397990330328629 " />
			<path d="M35.35533905932738,-3.2006558414800903 L-22.699524986977337,-0.002246146351972289 " />
			<path d="M-22.69952498697734,-0.9397990330328643 L-49.38441702975689,-19.157037188662997 " />
			<path d="M-22.69952498697734,-0.002246146351971845 L-41.42098094326056,-12.783006931480742 " />
			<path d="M44.55032620941839,-24.33217278532748 L35.35533905932737,-4.138208728160979 " />
			<path d="M40.664886295960734,-14.861444954746071 L35.35533905932737,-3.2006558414800885 " />
			<path d="M36.91968370972968,13.360686941864529 L37.30624227948866,13.336675146868567 L37.68979269788643,13.307402926483256 L38.06974355797812,13.272915416350736 L38.44550900307685,13.23326579371193 L38.81650963010231,13.188515195411082 L39.18217338297828,13.138732623627185 L39.541936434701654,13.083994839477619 L39.895244056722845,13.024386244658064 L40.24155147429693,12.959998751301217 L40.58032470648686,12.890931640254939 L40.9110413895234,12.817291407998376 L41.233191582252104,12.739191602432115 L41.54627855242572,12.656752647795557 L41.84981954262921,12.570101658981454 L42.14334651465679,12.47937224553397 L42.42640687119285,12.38470430563244 L42.69856415368423,12.286243810378524 L42.95939871532769,12.184142578719346 L43.20850836813482,12.078558043353677 L43.32854559705445,12.024510209941806 L43.44550900307685,11.969653007982133 L43.55935349458251,11.91400758597027 L43.670035182352834,11.857595396275661 L43.77751139649024,11.800438186871288 L43.8817407028683,11.742557992949417 L43.982682919105294,11.683977128426601 L44.08029913005535,11.62471817734125 L44.17455170281093,11.564803985147057 L44.265404301211056,11.504257649905629 L44.35282189984959,11.443102513381755 L44.43677079757819,11.381362152044705 L44.51721863049874,11.319060367979057 L44.594134384440245,11.25622117970854 L44.66748840691541,11.192868812936425 L44.73725241855222,11.129027691206073 L44.803399523996156,11.064722426485183 L44.865904222278914,10.999977809677409 L44.924742416649465,10.934818801065003 L44.97989142386385,10.869270520686143 L45.031329982929975,10.803358238650684 L45.07903826330414,10.737107365398048 L45.122997872536104,10.670543441901017 L45.163191863359685,10.603692129819201 L45.19960474022629,10.536579201605978 L45.232222465278745,10.469230530572746 " />
			<path d="M36.91968370972968,14.29823982854542 L37.30624227948866,14.274228033549457 L37.68979269788643,14.244955813164147 L38.06974355797812,14.210468303031627 L38.44550900307685,14.17081868039282 L38.81650963010231,14.126068082091972 L39.18217338297828,14.076285510308075 L39.541936434701654,14.02154772615851 L39.895244056722845,13.961939131338955 L40.24155147429693,13.897551637982108 L40.58032470648686,13.82848452693583 L40.9110413895234,13.754844294679266 L41.233191582252104,13.676744489113005 L41.54627855242572,13.594305534476447 L41.84981954262921,13.507654545662344 L42.14334651465679,13.41692513221486 L42.42640687119285,13.32225719231333 L42.69856415368423,13.223796697059415 L42.95939871532769,13.121695465400236 L43.20850836813482,13.016110930034568 L43.32854559705445,12.962063096622696 L43.44550900307685,12.907205894663024 L43.55935349458251,12.85156047265116 L43.670035182352834,12.795148282956552 L43.77751139649024,12.737991073552179 L43.8817407028683,12.680110879630307 L43.982682919105294,12.621530015107492 L44.08029913005535,12.562271064022141 L44.17455170281093,12.502356871827947 L44.265404301211056,12.44181053658652 L44.35282189984959,12.380655400062645 L44.43677079757819,12.318915038725596 L44.51721863049874,12.256613254659948 L44.594134384440245,12.19377406638943 L44.66748840691541,12.130421699617315 L44.73725241855222,12.066580577886963 L44.803399523996156,12.002275313166074 L44.865904222278914,11.9375306963583 L44.924742416649465,11.872371687745893 L44.97989142386385,11.806823407367034 L45.031329982929975,11.740911125331575 L45.07903826330414,11.674660252078938 L45.122997872536104,11.608096328581908 L45.163191863359685,11.541245016500092 L45.19960474022629,11.474132088286868 L45.232222465278745,11.406783417253637 " />
			<path d="M36.91968370972969,13.360686941864529 L-21.135180336575026,16.559096636992646 " />
			<path d="M36.91968370972969,14.29823982854542 L-21.135180336575026,17.496649523673536 " />
			<path d="M-31.60959022886102,14.702667345033749 L-31.51873763046089,14.763213680275175 L-31.42448505770531,14.82312787246937 L-31.32686884675526,14.88238682355472 L-31.225926630518266,14.940967688077537 L-31.121697324140207,14.99884788199941 L-31.014221110002794,15.056005091403781 L-30.903539422232477,15.11241728109839 L-30.789694930726817,15.168062703110254 L-30.67273152470441,15.222919905069926 L-30.55269429578479,15.276967738481797 L-30.30358464297765,15.382552273847466 L-30.042750081334198,15.484653505506644 L-29.770592798842817,15.58311400076056 L-29.487532442306758,15.67778194066209 L-29.19400547027918,15.768511354109574 L-28.89046448007568,15.855162342923677 L-28.57737750990207,15.937601297560235 L-28.255227317173365,16.015701103126496 L-27.92451063413683,16.089341335383057 L-27.58573740194689,16.158408446429338 L-27.23942998437281,16.222795939786185 L-26.88612236235162,16.28240453460574 L-26.52635931062824,16.337142318755305 L-26.16069555775227,16.386924890539202 L-25.789694930726817,16.43167548884005 L-25.413929485628085,16.471325111478855 L-25.033978625536395,16.505812621611376 L-24.650428207138624,16.535084841996685 L-24.26386963737965,16.55909663699265 L-23.87489896155572,16.57781098215179 L-23.48411594425579,16.59119902131031 L-23.092123144568028,16.59924011108222 L-22.69952498697734,16.60192185268992 L-22.306926829386654,16.59924011108222 L-21.91493402969889,16.59119902131031 L-21.524151012398967,16.57781098215179 L-21.135180336575054,16.55909663699265 " />
			<path d="M-31.60959022886102,15.64022023171464 L-31.51873763046089,15.700766566956066 L-31.42448505770531,15.76068075915026 L-31.32686884675526,15.81993971023561 L-31.225926630518266,15.878520574758427 L-31.121697324140207,15.9364007686803 L-31.014221110002794,15.993557978084672 L-30.903539422232477,16.049970167779282 L-30.789694930726817,16.105615589791142 L-30.67273152470441,16.160472791750816 L-30.55269429578479,16.214520625162688 L-30.30358464297765,16.320105160528357 L-30.042750081334198,16.422206392187537 L-29.770592798842817,16.52066688744145 L-29.487532442306758,16.61533482734298 L-29.19400547027918,16.706064240790464 L-28.89046448007568,16.792715229604568 L-28.57737750990207,16.875154184241126 L-28.255227317173365,16.953253989807386 L-27.92451063413683,17.026894222063948 L-27.58573740194689,17.09596133311023 L-27.23942998437281,17.160348826467075 L-26.88612236235162,17.21995742128663 L-26.52635931062824,17.274695205436196 L-26.16069555775227,17.324477777220093 L-25.789694930726817,17.36922837552094 L-25.413929485628085,17.408877998159745 L-25.033978625536395,17.443365508292267 L-24.650428207138624,17.472637728677576 L-24.26386963737965,17.49664952367354 L-23.87489896155572,17.51536386883268 L-23.48411594425579,17.5287519079912 L-23.092123144568028,17.53679299776311 L-22.69952498697734,17.53947473937081 L-22.306926829386654,17.53679299776311 L-21.91493402969889,17.5287519079912 L-21.524151012398967,17.51536386883268 L-21.135180336575054,17.49664952367354 " />
			<path d="M-31.609590228861016,14.702667345033749 L-58.29448227164056,-3.5145708105963855 " />
			<path d="M-31.609590228861016,15.640220231714643 L-48.855941632464244,3.8664836045830473 " />
			<path d="M-59.38441702975689,-5.093743888449627 L-59.38333274222797,-5.042521665403574 L-59.3800801147771,-4.991310550281051 L-59.37465985276096,-4.940121648596754 L-59.367073131604045,-4.888966061048223 L-59.35732159654379,-4.837854881108583 L-59.34540736227376,-4.7867991926208315 L-59.33133301248508,-4.735810067394231 L-59.31510159930615,-4.684898562803301 L-59.296716642640746,-4.6340757193899424 L-59.2761821294047,-4.583352558469214 L-59.228682710655804,-4.482249258896035 L-59.172644543247614,-4.38167635936665 L-59.108116233733654,-4.281721095103965 L-59.03515375287236,-4.182470165604558 L-58.95382038707898,-4.08400965943701 L-58.864186683532,-3.9864249795701436 L-58.766330388981736,-3.8898007692959413 L-58.660336382314135,-3.794220838811393 L-58.54629660092825,-3.6997680925229557 L-58.42430996099132,-3.6065244571366817 L-58.294482271640575,-3.5145708105963873 " />
			<path d="M54.42720961536976,-9.724733526593766 L54.45601961385416,-9.792291976252315 L54.48101077896765,-9.860034159467789 L54.50217347614036,-9.927933960339024 L54.519499546749664,-9.995965202200255 L54.53298231126554,-10.064101657712708 L54.54261657182562,-10.132317058975751 L54.548398614239034,-10.200585107653655 L54.55032620941839,-10.268879485114098 " />
			<path d="M54.42720961536977,-9.724733526593768 L45.23222246527875,10.469230530572728 " />
			<path d="M50.033483313299826,0.8622891823640568 L45.23222246527875,11.406783417253619 " />

        </g>

        <!-- solid lines -->
        <g  stroke="rgb(0,0,0)" fill="none">
    			<path d="M55.563772532344714,1.842448542635072 L55.563772532344714,2.780001429315963 " />
			<path d="M55.56377253234472,2.7800014293159676 L44.0956595483038,27.966187948451516 " />
			<path d="M44.09565954830381,27.966187948451513 L-28.31115617514913,31.955288004194177 " />
			<path d="M-61.59291632535244,8.296948017350811 L-61.59291632535244,9.234500904031702 " />
			<path d="M-28.31115617514914,31.955288004194177 L-61.592916325352434,9.234500904031698 " />
			<path d="M-9.755359580146948,-9.734370717442424 L-9.755359580146948,-8.796817830761533 " />
			<path d="M-61.592916325352434,8.29694801735081 L-9.755359580146958,-9.734370717442424 " />
			<path d="M-61.592916325352434,9.2345009040317 L-9.755359580146958,-8.796817830761533 " />
			<path d="M-9.755359580146955,-9.734370717442427 L55.56377253234473,1.8424485426350738 " />
			<path d="M-9.755359580146955,-8.796817830761537 L55.56377253234473,2.7800014293159645 " />
			<path d="M-49.38441702975689,-19.157037188662994 L-49.38441702975689,-18.219484301982103 " />
			<path d="M-41.42098094326056,-12.783006931480742 L-49.38441702975689,-18.219484301982106 " />
			<path d="M-7.821723252011548,-33.614319245121976 L-7.821723252011548,-32.676766358441085 " />
			<path d="M-49.38441702975689,-19.157037188662994 L-7.821723252011552,-33.614319245121976 " />
			<path d="M-49.38441702975689,-18.219484301982103 L-7.821723252011552,-32.676766358441085 " />
			<path d="M44.55032620941839,-24.33217278532748 L44.55032620941839,-23.39461989864659 " />
			<path d="M-7.821723252011548,-33.614319245121976 L44.5503262094184,-24.33217278532748 " />
			<path d="M-7.821723252011548,-32.676766358441085 L44.5503262094184,-23.39461989864659 " />
			<path d="M44.55032620941839,-23.39461989864659 L40.664886295960734,-14.861444954746071 " />
			<path d="M-48.855941632464244,3.8664836045830473 L-58.29448227164056,-2.5770179239154913 " />
			<path d="M-56.455484841622365,-7.553363622029683 L-56.626887859271555,-7.492260740590229 L-56.793928283306485,-7.429713082285365 L-56.95650549482174,-7.365758323485651 L-57.11452156338426,-7.300434988146363 L-57.26788130602296,-7.233782424602112 L-57.41649234456334,-7.165840781864879 L-57.560265161272724,-7.096650985439744 L-57.699113152782346,-7.026254712672904 L-57.83295268225396,-6.954694367646786 L-57.96170312975961,-6.88201305563742 L-58.085286940844,-6.80825455714943 L-58.203629673240435,-6.733463301544299 L-58.31666004171204,-6.657684340277779 L-58.42430996099132,-6.580963319762576 L-58.526514586792196,-6.503346453872668 L-58.62321235486975,-6.424880496105783 L-58.714345018104275,-6.34561271142085 L-58.79985768158709,-6.26559084776735 L-58.87969883568725,-6.184863107323737 L-58.95382038707898,-6.103478117462249 L-59.022177687711284,-6.021484901457599 L-59.084729561702325,-5.938932848957184 L-59.14143833014217,-5.855871686230607 L-59.19226983378919,-5.772351446216444 L-59.2371934536463,-5.6884224383842525 L-59.2761821294047,-5.604135218430041 L-59.30921237574399,-5.519540557823413 L-59.33626429647886,-5.434689413224717 L-59.35732159654379,-5.349632895790672 L-59.372371591808616,-5.26442224038691 L-59.38140521671893,-5.179108774726016 L-59.38441702975689,-5.093743888449659 " />
			<path d="M-56.455484841622365,-6.615810735348792 L-56.626887859271555,-6.554707853909338 L-56.793928283306485,-6.492160195604474 L-56.95650549482174,-6.4282054368047605 L-57.11452156338426,-6.362882101465472 L-57.26788130602296,-6.296229537921222 L-57.41649234456334,-6.228287895183988 L-57.560265161272724,-6.159098098758854 L-57.699113152782346,-6.088701825992013 L-57.83295268225396,-6.017141480965895 L-57.96170312975961,-5.944460168956529 L-58.085286940844,-5.87070167046854 L-58.203629673240435,-5.795910414863409 L-58.31666004171204,-5.720131453596888 L-58.42430996099132,-5.643410433081685 L-58.526514586792196,-5.565793567191777 L-58.62321235486975,-5.487327609424892 L-58.714345018104275,-5.40805982473996 L-58.79985768158709,-5.328037961086459 L-58.87969883568725,-5.247310220642846 L-58.95382038707898,-5.165925230781358 L-59.022177687711284,-5.083932014776709 L-59.084729561702325,-5.001379962276293 L-59.14143833014217,-4.918318799549716 L-59.19226983378919,-4.834798559535553 L-59.2371934536463,-4.750869551703362 L-59.2761821294047,-4.66658233174915 L-59.30921237574399,-4.581987671142523 L-59.33626429647886,-4.497136526543827 L-59.35732159654379,-4.412080009109781 L-59.372371591808616,-4.326869353706019 L-59.38140521671893,-4.241555888045125 L-59.38441702975689,-4.156191001768768 " />
			<path d="M-59.38441702975689,-4.156191001768736 L-59.38333274222797,-4.104968778722683 L-59.3800801147771,-4.053757663600161 L-59.37465985276096,-4.002568761915863 L-59.367073131604045,-3.9514131743673326 L-59.35732159654379,-3.900301994427692 L-59.34540736227376,-3.849246305939941 L-59.33133301248508,-3.7982571807133407 L-59.31510159930615,-3.7473456761224107 L-59.296716642640746,-3.6965228327090514 L-59.2761821294047,-3.6457996717883225 L-59.228682710655804,-3.5446963722151437 L-59.172644543247614,-3.444123472685759 L-59.108116233733654,-3.344168208423074 L-59.03515375287236,-3.2449172789236673 L-58.95382038707898,-3.1464567727561192 L-58.864186683532,-3.048872092889253 L-58.766330388981736,-2.9522478826150507 L-58.660336382314135,-2.8566679521305023 L-58.54629660092825,-2.762215205842065 L-58.42430996099132,-2.668971570455791 L-58.294482271640575,-2.5770179239154967 " />
			<path d="M-56.455484841622365,-7.553363622029683 L-14.892791063877027,-22.010645678488668 " />
			<path d="M-56.455484841622365,-6.615810735348792 L-14.892791063877027,-21.073092791807778 " />
			<path d="M-3.281818254616079,-22.65032761751429 L-3.635125876637259,-22.70993621233384 L-3.994888928360645,-22.76467399648341 L-4.360552681236614,-22.814456568267307 L-4.731553308262073,-22.859207166568154 L-5.107318753360806,-22.89885678920696 L-5.487269613452497,-22.93334429933948 L-5.87082003185027,-22.96261651972479 L-6.257378601609238,-22.986628314720754 L-6.646349277433163,-23.005342659879894 L-7.037132294733093,-23.018730699038414 L-7.429125094420858,-23.026771788810326 L-7.821723252011546,-23.029453530418024 L-8.214321409602235,-23.026771788810326 L-8.60631420929,-23.018730699038414 L-8.99709722658993,-23.005342659879894 L-9.386067902413854,-22.986628314720754 L-9.772626472172822,-22.962616519724794 L-10.156176890570595,-22.93334429933948 L-10.536127750662287,-22.898856789206963 L-10.91189319576102,-22.859207166568154 L-11.282893822786479,-22.814456568267307 L-11.648557575662448,-22.76467399648341 L-12.008320627385833,-22.709936212333844 L-12.361628249407016,-22.65032761751429 L-12.70793566698109,-22.585940124157446 L-13.046708899171032,-22.516873013111166 L-13.377425582207566,-22.4432327808546 L-13.699575774936278,-22.36513297528834 L-14.012662745109887,-22.282694020651782 L-14.316203735313387,-22.19604303183768 L-14.609730707340969,-22.105313618390195 L-14.89279106387696,-22.010645678488686 " />
			<path d="M-3.281818254616079,-21.7127747308334 L-3.635125876637259,-21.77238332565295 L-3.994888928360645,-21.82712110980252 L-4.360552681236614,-21.876903681586416 L-4.731553308262073,-21.921654279887264 L-5.107318753360806,-21.96130390252607 L-5.487269613452497,-21.99579141265859 L-5.87082003185027,-22.0250636330439 L-6.257378601609238,-22.049075428039863 L-6.646349277433163,-22.067789773199003 L-7.037132294733093,-22.081177812357524 L-7.429125094420858,-22.089218902129435 L-7.821723252011546,-22.091900643737134 L-8.214321409602235,-22.089218902129435 L-8.60631420929,-22.081177812357524 L-8.99709722658993,-22.067789773199003 L-9.386067902413854,-22.049075428039863 L-9.772626472172822,-22.025063633043903 L-10.156176890570595,-21.99579141265859 L-10.536127750662287,-21.961303902526073 L-10.91189319576102,-21.921654279887264 L-11.282893822786479,-21.876903681586416 L-11.648557575662448,-21.82712110980252 L-12.008320627385833,-21.772383325652953 L-12.361628249407016,-21.7127747308334 L-12.70793566698109,-21.648387237476555 L-13.046708899171032,-21.579320126430275 L-13.377425582207566,-21.50567989417371 L-13.699575774936278,-21.42758008860745 L-14.012662745109887,-21.34514113397089 L-14.316203735313387,-21.258490145156788 L-14.609730707340969,-21.167760731709304 L-14.89279106387696,-21.073092791807795 " />
			<path d="M-3.281818254616085,-22.650327617514293 L49.09023120681387,-13.368181157719794 " />
			<path d="M-3.281818254616085,-21.712774730833402 L49.09023120681387,-12.430628271038904 " />
			<path d="M54.55032620941839,-10.268879485114114 L54.54885038324633,-10.328637965357684 L54.54442334034276,-10.388378806975425 L54.537046387416815,-10.448084376547817 L54.52672170188855,-10.507737051066421 L54.51345233124617,-10.567319223135582 L54.49724219214658,-10.62681330616951 L54.478096069259294,-10.686201739583243 L54.45601961385416,-10.745466993975912 L54.431019342133304,-10.804591576304812 L54.403102633307796,-10.863558035048737 L54.372277727419544,-10.922348965359072 L54.33855372290911,-10.980947014197092 L54.301940573930196,-11.039334885455975 L54.262449087411504,-11.097495345066012 L54.220090919866905,-11.155411226081508 L54.17487857395486,-11.213065433747873 L54.12682539478804,-11.270440950547382 L54.07594556599434,-11.327520841222167 L54.02225410553036,-11.384288257772923 L53.965766861248596,-11.440726444431833 L53.906500506219764,-11.496818742608305 L53.844472533811434,-11.552548595805995 L53.77970125252462,-11.607899554509721 L53.71220578058975,-11.662855281040788 L53.569122752249,-11.77151627495199 L53.41539236886585,-11.878403295215467 L53.2511961205055,-11.983390153813916 L53.07672785295931,-12.086352906011147 L52.89219353889551,-12.187169996677978 L52.69781103469328,-12.285722403797056 L52.4938098232472,-12.381893778977114 L52.280430743045756,-12.475570584810852 L52.05792570384373,-12.566642228914217 L51.82655738926413,-12.655001194488882 L51.586598946680816,-12.740543167253756 L51.33833366474781,-12.8231671585957 L51.08205463895616,-12.902775624794034 L50.81806442561308,-12.979274582178101 L50.546674684651904,-13.052573718081932 L50.268205811694514,-13.122586497465004 L49.98298655980063,-13.189230265073256 L49.6913536513506,-13.252426343019707 L49.3936513805198,-13.312100123669515 L49.09023120681393,-13.36818115771978 " />
			<path d="M54.42720961536976,-8.787180639912876 L54.45601961385416,-8.854739089571424 L54.48101077896765,-8.922481272786898 L54.50217347614036,-8.990381073658133 L54.519499546749664,-9.058412315519364 L54.53298231126554,-9.126548771031818 L54.54261657182562,-9.19476417229486 L54.548398614239034,-9.263032220972764 L54.55032620941839,-9.331326598433208 " />
			<path d="M54.55032620941839,-9.331326598433224 L54.54885038324633,-9.391085078676793 L54.54442334034276,-9.450825920294534 L54.537046387416815,-9.510531489866926 L54.52672170188855,-9.57018416438553 L54.51345233124617,-9.629766336454692 L54.49724219214658,-9.689260419488619 L54.478096069259294,-9.748648852902353 L54.45601961385416,-9.807914107295021 L54.431019342133304,-9.867038689623921 L54.403102633307796,-9.926005148367846 L54.372277727419544,-9.984796078678182 L54.33855372290911,-10.043394127516201 L54.301940573930196,-10.101781998775085 L54.262449087411504,-10.159942458385121 L54.220090919866905,-10.217858339400617 L54.17487857395486,-10.275512547066983 L54.12682539478804,-10.332888063866491 L54.07594556599434,-10.389967954541277 L54.02225410553036,-10.446735371092032 L53.965766861248596,-10.503173557750943 L53.906500506219764,-10.559265855927414 L53.844472533811434,-10.614995709125104 L53.77970125252462,-10.67034666782883 L53.71220578058975,-10.725302394359897 L53.569122752249,-10.8339633882711 L53.41539236886585,-10.940850408534576 L53.2511961205055,-11.045837267133026 L53.07672785295931,-11.148800019330256 L52.89219353889551,-11.249617109997088 L52.69781103469328,-11.348169517116165 L52.4938098232472,-11.444340892296223 L52.280430743045756,-11.538017698129961 L52.05792570384373,-11.629089342233327 L51.82655738926413,-11.717448307807992 L51.586598946680816,-11.802990280572866 L51.33833366474781,-11.88561427191481 L51.08205463895616,-11.965222738113143 L50.81806442561308,-12.04172169549721 L50.546674684651904,-12.115020831401042 L50.268205811694514,-12.185033610784114 L49.98298655980063,-12.251677378392365 L49.6913536513506,-12.314873456338816 L49.3936513805198,-12.374547236988624 L49.09023120681393,-12.43062827103889 " />
			<path d="M54.42720961536977,-8.787180639912878 L50.033483313299826,0.8622891823640568 " />
			<path d="M-56.455484841622365,-7.553363622029682 L-56.455484841622365,-6.615810735348791 " />
			<path d="M-14.892791063877024,-22.010645678488668 L-14.892791063877024,-21.073092791807778 " />
			<path d="M-3.281818254616084,-22.65032761751429 L-3.281818254616084,-21.7127747308334 " />
			<path d="M49.09023120681386,-13.368181157719794 L49.09023120681386,-12.430628271038904 " />
			<path d="M-59.38441702975689,-4.156191001768734 L-59.38441702975689,-5.093743888449625 " />
			<path d="M54.550326209418394,-9.331326598433225 L54.550326209418394,-10.268879485114116 " />

        </g>
        </g>
    </svg>
    