<?xml version="1.0" encoding="UTF-8" standalone="no"?>
    <svg
    xmlns:svg="http://www.w3.org/2000/svg"
    xmlns="http://www.w3.org/2000/svg"
    width="500.0"
    height="220.0"
    >
        <g transform="scale(1.903273962359762, -1.903273962359762)   translate(95.19253573989198,-48.80738649965427)" stroke-width="0.5254104347438013"  fill="none">
        <!-- hidden lines -->
        <g  stroke="rgb(160,160,160)" fill="none" stroke-dasharray="0.5254104347438013,0.5254104347438013" >
    			<path d="M63.72887875677441,19.142472181835334 L63.140604614237155,19.379008050105547 L62.546985015229744,19.6133382511448 L61.94807026438469,19.845442927295647 L61.343911115057345,20.075302409496523 L60.73455876502495,20.302897218948548 L60.120064852148005,20.528208068766173 L59.5004814499944,20.751215865611652 L58.87586106342651,20.971901711313006 L58.24625662415192,21.19024690446551 L57.61172148623775,21.40623294201651 L56.972309421589436,21.61984152083337 L56.328074615393945,21.831054539254552 L55.67907166152794,22.039854098623593 L55.02535555793145,22.246222504805857 L54.36698170194718,22.450142269687994 L53.70400588562605,22.6515961126599 L53.03648429099922,22.850566962079135 L52.36447348531712,23.0470379567176 L51.68803041625583,23.240992447190397 L51.00721240709118,23.43241399736673 L50.32207715184107,23.62128638576275 L49.632682710376315,23.807593606916196 L48.939087503500595,23.991319872742718 L48.24135030799967,24.17244961387382 L47.539530251660565,24.35096748097621 L46.83368680826092,24.52685834605258 L46.12387979252907,24.700107303723538 L45.41016935507516,24.870699672490755 L44.69261597729394,25.038620995981105 L43.97128046623933,25.203857044171713 L43.24622394947161,25.366393814595853 L42.51750786987727,25.52621753352954 L41.7851939804622,25.68331465715874 L41.04934433911864,25.837671872727142 L40.31002130336622,25.989276099664238 L39.56728752506768,26.13811449069388 L38.82120594511957,26.284174432922924 L38.07183978811854,26.427443548910112 L37.319252557003544,26.56790969771494 L36.563508027674445,26.70556097592651 L35.804670243587516,26.84038571867228 L35.042803510328255,26.972372500606532 L34.27797239016198,27.101510136878623 L33.51024169656268,27.22778768408076 L32.73967648872059,27.35119444117541 L31.966342066028936,27.471719950402125 L31.190303962550303,27.589353998163745 L30.411627941463145,27.704086615891917 L29.630379989488855,27.815908080891873 L28.846626311299897,27.92480891716633 L28.060433323909535,28.03077989621852 L27.27186765104346,28.133812037834232 L26.48099611749394,28.23389661084282 L25.68788574345697,28.331025133857068 L24.892603738852817,28.42518937599199 L24.0952174976305,28.51638135756226 L23.295794592056694,28.604593350758464 L22.494402766989495,28.68981788030198 L21.691109934137568,28.772047724078433 L20.885984166305192,28.85127591374971 L20.07909369162355,28.927495735344486 L19.270506887768978,29.000700729827173 L18.46029227616851,29.07088469364526 L17.648518516193192,29.138041679255068 L16.835254399339725,29.20216599562567 L16.020568843400934,29.26325220872124 L15.204530886625532,29.32129514196152 L14.387209681867672,29.37628987666048 L13.568674490726732,29.428231752443146 L12.748994677677965,29.477116367640548 L11.928239704194455,29.522939579662697 L11.10647912286072,29.565697505349668 L10.283782571478705,29.605386521300638 L9.460219767166523,29.642003264180964 L8.635860500450468,29.6755446310072 L7.8107746293508065,29.706007779410015 L6.985032073461868,29.73339012787512 L6.158702808026893,29.757689355961972 L5.331856858008187,29.77890340450046 L4.5045642921530575,29.797030475765382 L3.676895217055988,29.81206903362878 L2.8489197712176826,29.824017803690133 L2.0207081191014167,29.832875773384345 L1.1923304451870858,29.838642192067553 L0.36385694802364,29.841316571080732 L-0.4646421657196993,29.840898683791103 L-1.2930966872029046,29.837388565611377 L-2.1214364113647943,29.830786513996678 L-2.9495911428723653,29.821093088419424 L-3.7774907020692994,29.808309110321836 L-4.605064930923142,29.79243566304639 L-5.432243698970629,29.77347409174397 L-6.258956909260757,29.75142600325991 L-7.085134504294906,29.72629326599779 L-7.910706471963644,29.698078009761133 L-8.735602851479747,29.666782625572907 L-9.559753739306824,29.632409765472907 L-10.383089295083089,29.59496234229303 L-11.205539747539792,29.554443529410406 L-12.02703540041377,29.51085676047849 L-12.847506638353716,29.46420572913611 L-13.6668839328195,29.41449438869443 L-14.485097847974137,29.36172695180195 L-15.302079046567988,29.305907890087504 L-16.117758295814525,29.24704193378136 L-16.93206647325728,29.185134071314337 L-17.74493457262743,29.12018954889507 L-18.55629370969152,29.052213870065458 L-19.366075128088927,28.98121279523427 L-20.17421020515837,28.90719234118901 L-20.980630457753144,28.830158780585997 L-21.785267548044544,28.750118641418872 L-22.588053289312978,28.66707870646534 L-23.388919651726248,28.581046012712427 L-24.18779876810455,28.492027850760124 L-24.98462293967166,28.400031764203575 L-25.779324641791952,28.305065548993824 L-26.571836529692526,28.207137252777144 L-27.362091444170137,28.106255174213082 L-28.150022417282454,28.002427862271226 L-28.935562678023043,27.895664115506698 L-29.718645657979728,27.785972981314607 L-30.499204996975703,27.6733637551633 L-31.277174548693058,27.55784597980667 L-32.05248838627818,27.43942944447548 L-32.82508080792848,27.318124184047804 L-33.59488634246019,27.193940478198627 L-34.361839754856476,27.066888850528763 L-35.12587605179563,26.93698006767302 L-35.88693048715874,26.804225138387842 L-36.644938567516405,26.668635312618377 L-37.39983605759404,26.530222080545165 L-38.151558985715326,26.388997171610406 L-38.90004364922338,26.244972553523993 L-39.64522661987892,26.09816043124934 L-40.38704474923543,25.9485732459691 L-41.12543517399047,25.79622367403089 L-41.860335321312796,25.641124625873047 L-42.591682914145004,25.483289244930596 L-43.31941597648096,25.322730906521407 L-44.04347283861782,25.159463216712776 L-44.76379214238203,24.993500011168415 L-45.480312846328935,24.82485535397597 L-46.19297423091572,24.653543536455192 L-46.90171590364667,24.479579075946887 L-47.60647780419108,24.302976714582684 L-48.307200209473024,24.123751418035713 L-49.00382373873221,23.94191837425243 L-49.69628935855614,23.75749299216554 L-50.384538387882756,23.57049090038818 L-51.068512502973114,23.380927945889578 L-51.74815374235398,23.188820192652088 L-52.4234045117295,22.994183920309915 L-53.09420758886197,22.797035622769556 L-53.76050612842088,22.59739200681204 L-54.42224366680017,22.39526999067719 L-55.0793641269031,22.190686702629918 L-55.731811822894265,21.98365947950873 L-56.37953146491858,21.774205865256597 L-57.02246816378677,21.56234360943418 L-57.66056743562658,21.348090665715763 L-58.29377520650001,21.1314651903678 L-58.92203781698568,20.912485540710254 L-59.54530202672594,20.69117027356105 L-60.16351501893865,20.467538143663468 L-60.776624404892964,20.241608102096848 L-61.38457822834887,20.013399294670606 L-61.98732496996009,19.78293106030183 L-62.58481355163993,19.5502229293764 L-63.17699334088975,19.315294622093962 L-63.76381415508968,19.078166046796824 L-64.34522626575118,18.83885729828282 L-64.9211804027312,18.597388656102495 L-65.49162775840739,18.353780582840518 L-66.05651999181413,18.108053722381662 L-66.61580923273918,17.860228898161417 L-67.16944808578019,17.610327111401322 L-67.7173896343611,17.358369539329303 L-68.25958744470802,17.10437753338507 L-68.79599556978405,16.848372617410725 L-69.32656855318302,16.590376485826816 L-69.85126143298152,16.330411001793884 L-70.37002974554899,16.06849819535974 L-70.88282952931587,15.804660261592552 L-71.38961732849882,15.538919558700062 L-71.89035019678325,15.271298606134852 L-72.38498570096289,15.001820082685974 L-72.87348192453545,14.730506824557153 L-73.35579747125482,14.457381823431572 L-73.83189146863903,14.1824682245235 L-74.30172357143398,13.905789324616933 L-74.76525396503224,13.627368570091342 L-75.22244336884715,13.34722955493482 L-75.67325303964148,13.065396018744636 L-76.11764477481059,12.7818918447155 L-76.55558091561988,12.496741057615669 L-76.98702435039607,12.209967821751007 L-77.41193851767203,11.921596438917263 L-77.83028740928513,11.631651346340696 L-78.24203557342878,11.340157114607159 L-78.64714811765644,11.047138445579993 L-79.04559071183868,10.752620170306734 L-79.43732959107236,10.456627246914806 L-79.82233155854185,10.1591847584966 L-80.2005639883323,9.860317910983834 L-80.57199482819439,9.560052031011551 L-80.9365926022605,9.25841256377188 L-81.2943264137121,8.955425070857771 L-81.64516594739791,8.651115228096838 L-81.98908147240299,8.345508823375527 L-82.32604384456812,8.038631754453805 L-82.65602450895956,7.730510026770521 L-82.97899550228892,7.421169751239654 L-83.29492945528273,7.110637142037611 L-83.60379959500182,6.798938514381771 L-83.90557974711011,6.486100282300498 L-84.20024433809276,6.172148956394741 L-84.48776839742317,5.857111141591467 L-84.76812755967914,5.541013534889117 L-85.04129806660771,5.2238829230952195 L-85.30725676913828,4.905746180556436 L-85.56598112934454,4.586630266881167 L-85.81744922235423,4.266562224654942 L-86.06163973820722,3.945569177148716 L-86.29853198366123,3.62367832602048 L-86.52810588394553,3.300916949010075 L-86.75034198446208,2.977312397627582 L-86.96522145243415,2.652892094835577 L-87.17272607850225,2.3276835327252012 L-87.37283827826725,2.0017142701864152 L-87.56554109378052,1.6750119305726177 L-87.75081819498095,1.347604199359771 L-87.92865388107884,1.0195188218002755 L-88.09903308188636,0.690783600571776 L-88.26194135909475,0.3614263934211026 L-88.41736490749769,0.03147511080353915 L-88.5652905561613,-0.2990422864823623 L-88.70570576954024,-0.6300977896642488 L-88.83859864854003,-0.9616633443694873 L-88.96395793152531,-1.2937108530025538 L-89.08177299527432,-1.6262121771260896 L-89.19203385587899,-1.9591391398454077 L-89.2947311695911,-2.292463528196273 L-89.38985623361407,-2.626157095535725 L-89.47740098684041,-2.960191563935763 L-89.55735801053486,-3.2945386265796763 L-89.6297205289631,-3.629169950160818 L-89.69448240996593,-3.964057177283688 L-89.75163816547887,-4.299171928866911 L-89.80118295199728,-4.634485806548184 L-89.84311257098682,-4.969970395090872 L-89.8774234692392,-5.305597264791874 L-89.90411273917333,-5.641337973890888 L-89.92317811908167,-5.977164070980611 L-89.93461799332192,-6.313047097417772 L-89.93843139245396,-6.648958589734621 " />
			<path d="M90.06156860754604,-6.648958589734792 L90.0598762607125,-6.425181317302918 L90.05479928385718,-6.201412460621232 L90.04633786791354,-5.977660435123424 L90.03449233109602,-5.753933655610199 L90.0192631188881,-5.5302405359328235 L90.00065080402558,-5.306589488676692 L89.9786560864749,-5.082988924844951 L89.95327979340699,-4.859447253542184 L89.92452287916605,-4.635972881658159 L89.8923864252337,-4.412574213551666 L89.85687164018827,-4.189259650734455 L89.81797985965945,-3.9660375915552626 L89.7757125462779,-3.742916430883979 L89.73007128962041,-3.5199045597959318 L89.68105780614998,-3.2970103652563187 L89.62867393915137,-3.0742422298047907 L89.57292165866171,-2.8516085312402084 L89.51380306139647,-2.629117642305567 L89.45132037067054,-2.406777930373118 L89.38547593631469,-2.184597757129695 L89.31627223458713,-1.9625854782622456 L89.24371186808044,-1.7407494431435948 L89.16779756562363,-1.5190979945184466 L89.08853218217959,-1.2976394681896268 L89.00591869873767,-1.0763821927045978 L88.91996022220157,-0.8553344890422379 L88.83065998527255,-0.6345046702999113 L88.73802134632776,-0.4139010413808295 L88.64204778929405,-0.19353189868172382 L88.54274292351687,0.02659447021916783 L88.44011048362457,0.2464697868737673 L88.33415432938789,0.4660857822755 L88.22487844557489,0.6854341971702675 L88.11228694180105,0.9045067823670614 L87.99638405237467,1.123295299048194 L87.87717413613773,1.3417915190791474 L87.75466167630188,1.5599872253180074 L87.62885128027985,1.7778742119244946 L87.4997476795122,1.9954442846685687 L87.3673557292894,2.212689261238591 L87.23168040856915,2.4296009715490463 L87.09272681978922,2.646171258047799 L86.95050018867553,2.862391976022881 L86.80500586404563,3.0782549939087946 L86.65624931760746,3.293752193592322 L86.50423614375372,3.508875470717827 L86.34897205935138,3.7236167349920493 L86.1904629035267,3.937967910488352 L86.02871463744562,4.151920935950443 L85.86373334408961,4.365467765095541 L85.69552522802688,4.578600366916977 L85.52409661517905,4.79131072598622 L85.34945395258323,5.003590842754324 L85.17160380814957,5.21543273385277 L84.99055287041428,5.426828432393696 L84.80630794828802,5.637769988269529 L84.61887597079996,5.848249468451948 L84.42826398683702,6.058258957290251 L84.23447916487896,6.267790556809025 L84.03752879272866,6.476836387005186 L83.8374202772381,6.68538858614431 L83.63416114402973,6.893439311056316 L83.4277590372136,7.1009807374304135 L83.21822171909976,7.3080050601093625 L83.00555706990635,7.514504493383011 L82.78977308746326,7.72047127128109 L82.57087788691139,7.9258976478652805 L82.34887970039738,8.130775897520518 L82.12378687676407,8.335098315245531 L81.89560788123653,8.53885721694262 L81.66435129510366,8.742044939706627 L81.43002581539547,8.944653842113121 L81.19264025455604,9.146676304505785 L80.95220354011211,9.348104729282962 L80.70872471433727,9.548931541183382 L80.46221293391196,9.749149187571078 L80.2126774695791,9.948750138719369 L79.96012770579541,10.147726888094095 L79.70457314037854,10.346071952635882 L79.44602338414978,10.543777873041577 L79.18448816057274,10.740837214044767 L78.91997730538758,10.937242564695417 L78.65250076624113,11.132986538638562 L78.38206860231283,11.328061774392111 L78.10869098393637,11.522460935623663 L77.83237819221725,11.71617671142645 L77.55314061864608,11.909201816594244 L77.27098876470782,12.101528991895382 L76.98593324148686,12.29315100434572 L76.6979847692679,12.484060647480675 L76.40715417713282,12.674250741626249 L76.11345240255346,12.863714134169037 L75.81689049098021,13.052443699825197 L75.51747959542668,13.240432340908448 L75.21523097605022,13.427672987596978 L74.91015599972847,13.614158598199332 L74.60226613963188,13.79988215941923 L74.29157297479225,13.984836686619317 L73.97808818966718,14.169015224083857 L73.66182357370074,14.352410845280303 L73.34279102088009,14.535016653119786 L73.02100252928815,14.71682578021651 L72.69647020065236,14.897831389146027 L72.36920623988954,15.07802667270235 L72.03922295464699,15.257404854153986 L71.70653275483959,15.435959187498764 L71.03308175972319,15.790569481026818 L70.34895456137981,16.141804209467402 L69.65425407266387,16.489610536785687 L68.9490847969637,16.833936142679203 L68.23355281248115,17.17472923044839 L67.50776575627427,17.511938534788303 L66.77183280806555,17.84551332950046 L66.02586467381813,18.17540343512353 L65.26997356908225,18.501559226481813 L64.50427320211486,18.82393164015031 L63.7288787567745,19.142472181835295 " />
			<path d="M31.890606036594267,1.9463127773691777 L31.890606036594267,15.658072528544041 " />
			<path d="M42.501824394798994,6.244884572630866 L42.501824394798994,19.95664432380573 " />
			<path d="M31.890606036594267,1.9463127773691793 L42.501824394798994,6.244884572630866 " />
			<path d="M21.28862296952144,6.248629019469677 L21.28862296952144,19.960388770644542 " />
			<path d="M31.890606036594264,1.9463127773691775 L21.28862296952144,6.248629019469677 " />
			<path d="M31.899841327726172,10.547200814731365 L31.899841327726172,15.661813716468043 " />
			<path d="M42.501824394798994,6.244884572630866 L31.899841327726172,10.547200814731365 " />
			<path d="M21.28862296952144,6.2486290194696785 L31.899841327726172,10.547200814731365 " />
			<path d="M-26.43877141457008,8.407276034197551 L-26.637518718046504,8.485011886502651 L-26.843189555682407,8.559728494987358 L-27.055505093018454,8.631324563982485 L-27.274177487165776,8.699703028432932 L-27.498910277043684,8.764771185491835 L-27.72939878530131,8.826440820200759 L-27.965330531378353,8.884628325085503 L-28.206385655144842,8.939254813505402 L-28.45223735054564,8.99024622660243 L-28.702552308661744,9.03753343370515 L-28.956991169587724,9.081052326051337 L-29.215208982512685,9.120743903702266 L-29.476855673380992,9.156554355530792 L-29.74157651949874,9.188435132174796 L-30.009012630442516,9.216343011857083 L-30.278801434618515,9.240240158982528 L-30.55057717081231,9.26009417543298 L-30.82397138406289,9.275878144490413 L-31.098613425188713,9.287570667328774 L-31.374130953288528,9.295155892025054 L-31.65015044053569,9.298623535050236 L-31.92629767858168,9.297968895210996 L-32.20219828588217,9.293192860023272 L-32.477478215257925,9.284301904509014 L-32.75176426100243,9.271308082417814 L-33.02468456484861,9.254229009885233 L-33.29586912010891,9.233087841550061 L-33.564950273304994,9.207913239162846 L-33.83156322260725,9.178739332728238 L-34.095346512408156,9.145605674233876 L-34.35594252335903,9.108557184028495 L-34.61299795720599,9.067644089922004 L-34.86616431576745,9.022921859090037 L-35.11509837340424,8.974451122875365 L-35.35946264234136,8.922297594588057 L-35.59892583021092,8.866531980415873 L-35.83316328919563,8.807229883565643 L-36.06185745616411,8.744471701765614 L-36.284698283201294,8.678342518267705 L-36.50138365795018,8.608931986497455 L-36.711619813195114,8.536334208508027 L-36.915121725131286,8.460647607403093 L-37.111613499780546,8.381974793901508 L-37.30082874702955,8.300422427224724 L-37.48251094178329,8.216101070495501 L-37.65641377174427,8.129125040843986 L-37.8223014713459,8.03961225442437 L-37.9799491413873,7.947684066552219 L-38.129143053936275,7.853465107179246 L-38.269680942087014,7.757083111928536 L-38.40137227417977,7.6586687489193235 L-38.52403851211062,7.558355441616088 L-38.637513353381244,7.45627918794215 L-38.741642956560455,7.352578375902982 L-38.79015867741988,7.300162614177229 L-38.83628614985192,7.247393595969209 L-38.88000973841333,7.194289207951371 L-38.92131462248522,7.1408674504736664 L-38.96018680129674,7.087146431462113 L-38.99661309867079,7.033144360280905 L-39.03058116749022,6.978879541560142 L-39.062079493883026,6.924370368991254 L-39.09109740112515,6.8696353190922546 L-39.117625053259424,6.814692944944902 L-39.14165345842964,6.7595618699059195 L-39.16317447192839,6.704260781294394 L-39.182180798957866,6.648808424057489 L-39.19866599710245,6.59322359441663 L-39.212624478512524,6.537525133496301 L-39.22405151179844,6.481731920937633 L-39.232943223634386,6.425862868498925 L-39.239296600071214,6.369936913645284 L-39.24310948755809,6.313973013129556 L-39.244380593672446,6.257990136566722 " />
			<path d="M-39.244380593672446,6.2579901365667085 L-39.24212173389398,6.183363367157907 L-39.23534651521124,6.1087815501245215 L-39.224059018762624,6.034289610764342 L-39.20826604371392,5.959932420236202 L-39.18797710316277,5.885754768531283 L-39.163204418408306,5.811801337493295 L-39.13396291158951,5.738116673903794 L-39.10027019669668,5.66474516264888 L-39.06214656896141,5.591730999983396 L-39.019614992631524,5.519118166908756 L-38.97270108713825,5.446950402680435 L-38.921433111664015,5.3752711784610785 L-38.86584194812022,5.304123671135097 L-38.8059610825451,5.2335507373005274 L-38.74182658493299,5.163594887453819 L-38.673477087507095,5.094298260383101 L-38.60095376144893,5.0257025977853536 L-38.52430029209827,4.957849219122771 L-38.44356285263881,4.890778996733456 L-38.35879007628511,4.824532331211459 L-38.27003302698778,4.759149127070969 L-38.177345168674485,4.694668768709323 L-38.08078233304525,4.631130096683323 L-37.980402685941534,4.568571384313135 L-37.87626669230933,4.507030314627868 L-37.768437079777286,4.446543957666732 L-37.656978800872,4.38714874814943 L-37.541958993892976,4.328880463529244 L-37.42344694247108,4.271774202442039 L-37.301514033834636,4.215864363564155 L-37.17623371580845,4.161184624891925 L-37.04768145257155,4.107767923455321 L-36.91593467920045,4.055646435477908 L-36.781072755025086,4.004851556995095 L-36.64317691582577,3.9554138849423377 L-36.50233022489979,3.9073631987246884 L-36.35861752302715,3.8607284422787917 L-36.212125377365695,3.8155377066381466 L-36.062942029306285,3.771818213012111 L-35.911157341319466,3.729596296388869 L-35.756862742825675,3.688897389672215 L-35.60015117512161,3.6497460083617246 L-35.44111703539583,3.6121657357855352 L-35.27985611986743,3.57617920889463 L-35.116465566082,3.5418081046271843 L-34.95104379439957,3.5090731268511917 L-34.61450633641062,3.4485894266608508 L-34.271054494114104,3.394873818855113 L-33.92151567308092,3.3480557090381136 L-33.56673194294693,3.3082478861371833 L-33.20755800879341,3.2755462506844446 L-32.84485915208766,3.2500295837840274 L-32.47950914614415,3.231759357321492 L-32.11238815112808,3.2207795858726693 L-31.744380593672446,3.217116720668693 L-31.376373036216812,3.2207795858726693 L-31.009252041200746,3.231759357321492 L-30.643902035257238,3.250029583784027 L-30.281203178551483,3.275546250684444 L-29.92202924439796,3.3082478861371833 L-29.567245514263973,3.348055709038113 L-29.21770669323079,3.394873818855113 L-28.87425485093427,3.4485894266608508 L-28.53771739294533,3.5090731268511908 L-28.372295621262897,3.541808104627184 L-28.208905067477463,3.5761792088946294 L-28.047644151949065,3.612165735785535 L-27.888610012223285,3.6497460083617237 L-27.731898444519217,3.688897389672214 L-27.577603846025433,3.729596296388868 L-27.42581915803861,3.7718182130121103 L-27.2766358099792,3.8155377066381457 L-27.13014366431775,3.8607284422787913 L-26.98643096244511,3.9073631987246875 L-26.845584271519126,3.955413884942337 L-26.707688432319813,4.004851556995094 L-26.572826508144445,4.055646435477907 L-26.44107973477334,4.10776792345532 L-26.312527471536445,4.161184624891924 L-26.18724715351025,4.2158643635641555 L-26.06531424487381,4.27177420244204 L-25.946802193451916,4.328880463529243 L-25.8317823864729,4.3871487481494285 L-25.720324107567606,4.44654395766673 L-25.61249449503557,4.507030314627866 L-25.508358501403357,4.568571384313134 L-25.407978854299643,4.631130096683322 L-25.311416018670407,4.694668768709322 L-25.21872816035711,4.759149127070967 L-25.129971111059785,4.824532331211458 L-25.045198334706082,4.890778996733454 L-24.964460895246624,4.957849219122769 L-24.887807425895968,5.025702597785353 L-24.815284099837797,5.094298260383098 L-24.746934602411905,5.163594887453815 L-24.682800104799792,5.233550737300524 L-24.62291923922467,5.304123671135093 L-24.567328075680884,5.375271178461075 L-24.516060100206648,5.446950402680431 L-24.469146194713367,5.5191181669087515 L-24.426614618383482,5.591730999983394 L-24.38849099064822,5.664745162648878 L-24.354798275755385,5.738116673903792 L-24.325556768936586,5.8118013374932955 L-24.30078408418212,5.885754768531285 L-24.28049514363097,5.959932420236202 L-24.264702168582268,6.03428961076434 L-24.25341467213365,6.108781550124521 L-24.246639453450914,6.183363367157905 L-24.244380593672446,6.25799013656668 " />
			<path d="M-24.244380593672446,6.257990136566708 L-24.246636950043282,6.332575547743756 L-24.253404661517365,6.407116081249425 L-24.26467965599633,6.481566886415002 L-24.280455149372003,6.555883166560874 L-24.30072164960839,6.630020205950466 L-24.325466962452982,6.703933396695471 L-24.35467619877397,6.777578265596205 L-24.388331783518957,6.850910500900898 L-24.426413466289805,6.923885978967869 L-24.468898333527164,6.996460790814489 L-24.51576082229748,7.0685912685370065 L-24.566972735674057,7.140234011585303 L-24.622503259703027,7.211345912876792 L-24.682318981943947,7.281884184733734 L-24.746383911573893,7.351806384628372 L-24.814659501042968,7.421070440720387 L-24.88710466926817,7.489634677171317 L-24.96367582635166,7.5574578392207 L-25.04432689980862,7.624499118008863 L-25.129009362288798,7.690718175131405 L-25.217672260775213,7.756075166910616 L-25.310262247242296,7.820530768369222 L-25.406723610755158,7.884046196892027 L-25.506998310990575,7.946583235561217 L-25.611026013159552,8.008104256151299 L-25.718744124310486,8.068572241769802 L-25.830087830991015,8.127950809130175 L-25.94499013824596,8.186204230443414 L-26.063381909927855,8.243297454915306 L-26.18519191029582,8.29919612983631 L-26.31034684687776,8.353866621251424 L-26.438771414570073,8.407276034197547 " />
			<path d="M-39.24438059367244,19.96974988774157 L-39.24438059367244,6.257990136566708 " />
			<path d="M-24.244380593672446,19.96974988774157 L-24.244380593672446,6.257990136566708 " />

        </g>

        <!-- solid lines -->
        <g  stroke="rgb(0,0,0)" fill="none">
    			<path d="M-89.93843139245396,-6.648958589734782 L-89.93673716788807,-6.87285997188634 L-89.93165455797697,-7.096752924277426 L-89.92318375407807,-7.320629017464911 L-89.91132507511234,-7.544479822640405 L-89.89607896755234,-7.76829691194763 L-89.87744600540542,-7.992071858799693 L-89.85542689019205,-8.215796238196306 L-89.83002245091949,-8.43946162704102 L-89.8012336440505,-8.663059604458374 L-89.7690615534674,-8.886581752110915 L-89.73350739043121,-9.110019654516103 L-89.69457249353609,-9.333364899363183 L-89.65225832865889,-9.556609077829954 L-89.60656648890398,-9.779743784899258 L-89.55749869454334,-10.002760619675476 L-89.50505679295169,-10.225651185700858 L-89.44924275853695,-10.448407091271559 L-89.390058692666,-10.671019949753616 L-89.32750682358547,-10.893481379898763 L-89.26158950633786,-11.115783006159875 L-89.19230922267292,-11.337916459006351 L-89.11966858095417,-11.559873375239276 L-89.0436703160607,-11.781645398306186 L-88.96431728928424,-12.003224178615744 L-88.88161248822142,-12.224601373852124 L-88.79555902666121,-12.445768649289064 L-88.70616014446783,-12.66671767810363 L-88.61341920745868,-12.887440141689757 L-88.51733970727759,-13.107927729971454 L-88.41792526126343,-13.328172141715665 L-88.31517961231394,-13.548165084844747 L-88.2091066287447,-13.76789827674872 L-88.09971030414361,-13.98736344459712 L-87.98699475722046,-14.206552325650435 L-87.87096423165185,-14.425456667571158 L-87.75162309592153,-14.64406822873453 L-87.62897584315579,-14.862378778538849 L-87.50302709095438,-15.08038009771532 L-87.37378158121662,-15.298063978637474 L-87.24124417996292,-15.515422225630212 L-87.10541987715153,-15.732446655278405 L-86.96631378649066,-15.949129096734955 L-86.82393114524601,-16.165461392028394 L-86.67827731404356,-16.38143539637006 L-86.52935777666772,-16.59704297846077 L-86.37717813985489,-16.812276020796943 L-86.22174413308241,-17.02712641997617 L-86.06306160835277,-17.24158608700234 L-85.90113653997335,-17.455646947590203 L-85.73597502433142,-17.669300942469384 L-85.56758327966472,-17.882540027687703 L-85.39596764582727,-18.095356174914116 L-85.22113458405069,-18.307741371740974 L-85.04309067670088,-18.519687621985675 L-84.8618426270304,-18.731186945991677 L-84.67739725892585,-18.942231380928952 L-84.48976151665107,-19.152812981093824 L-84.29894246458572,-19.36292381820809 L-84.10494728695924,-19.57255598171746 L-83.90778328758049,-19.781701579089454 L-83.7074578895625,-19.990352736110573 L-83.50397863504337,-20.198501597182663 L-83.297353184902,-20.406140325618743 L-83.08758931846977,-20.613261103938072 L-82.87469493323773,-20.819856134160396 L-82.65867804455917,-21.025917638099585 L-82.4395467853478,-21.231437857656502 L-82.21730940577172,-21.43640905511104 L-81.99197427294266,-21.640823513413437 L-81.76354987060097,-21.844673536474907 L-81.53204479879633,-22.04795144945729 L-81.29746777356385,-22.250649599062037 L-81.05982762659595,-22.452760353818388 L-80.81913330490981,-22.65427610437068 L-80.57539387051061,-22.855189263764792 L-80.32861850005034,-23.05549226773381 L-80.07881648448219,-23.255177574982863 L-79.82599722871082,-23.45423766747301 L-79.57017025123835,-23.65266505070426 L-79.31134518380591,-23.850452253997773 L-79.04953177103098,-24.04759183077715 L-78.78473987004055,-24.244076358848766 L-78.51697945010007,-24.439898440681173 L-78.246260592238,-24.635050703683657 L-77.97259348886632,-24.829525800483836 L-77.69598844339677,-25.023316409204238 L-77.41645586985301,-25.21641523373797 L-77.13400629247846,-25.408815004023406 L-76.84865034534003,-25.60050847631796 L-76.56039877192784,-25.791488433470757 L-76.26926242475072,-25.981747685194335 L-75.97525226492762,-26.171279068335394 L-75.67837936177484,-26.360075447144496 L-75.3786548923894,-26.5481297135447 L-75.07609014122818,-26.735434787399146 L-74.77069649968305,-26.921983616777663 L-74.46248546565201,-27.107769178222267 L-74.15146864310626,-27.292784477011597 L-73.83765774165339,-27.47702254742421 L-73.52106457609652,-27.660476453000864 L-73.20170106598935,-27.843139286805734 L-72.87957923518752,-28.025004171686366 L-72.55471121139591,-28.20606426053263 L-72.22710922571203,-28.3863127365345 L-71.89678561216546,-28.565742813438742 L-71.56375280725352,-28.744347735804396 L-70.88960987884856,-29.099055250742126 L-70.20478196394248,-29.450381863700663 L-69.5093721951003,-29.79827466618435 L-68.80348529847528,-30.142681266816812 L-68.08722757803757,-30.483549799230815 L-67.3607068995653,-30.82082892987917 L-66.62403267440027,-31.15446786576543 L-65.87731584297111,-31.484416362093064 L-65.12066885808599,-31.810624729832174 L-64.35420566799765,-32.13304384320247 L-63.578041699243265,-32.451625147071425 L-62.792293839261546,-32.766320664266516 L-61.99708041879001,-33.07708300280038 L-61.192521194044744,-33.38386536300794 L-60.378737328685624,-33.686621544594146 L-59.55585137556943,-33.98530595359169 L-58.723987258293846,-34.279873609227224 L-57.88327025253515,-34.57028015069534 L-57.033826967182044,-34.85648184383902 L-56.175785325268755,-35.138435587736076 L-55.30927454471036,-35.41609892118978 L-54.43442511884322,-35.68943002912342 L-53.55136879677296,-35.95838774887753 L-52.66023856353349,-36.22293157640881 L-51.76116862006004,-36.48302167238995 L-50.854294362979125,-36.738618868209144 L-49.939752364218165,-36.98968467186886 L-49.017680350438184,-37.236181273782556 L-48.08821718229272,-37.478071552468705 L-47.15150283351615,-37.71531908014106 L-46.20767836984394,-37.94788812819459 L-45.2568859277686,-38.17574367258614 L-44.29926869313456,-38.398851399108864 L-43.334970879575,-38.61717770855977 L-42.36413770679378,-38.83068972179973 L-41.38691537869563,-39.039355284704904 L-40.40345106136859,-39.24314297300907 L-39.41389286092146,-39.44202209703595 L-38.418389801179394,-39.63596270632098 L-37.41709180124139,-39.8249355941218 L-36.4101496529031,-40.0089123018166 L-35.39771499794831,-40.187865123189916 L-34.379940305312104,-40.36176710860507 L-33.35697884811944,-40.53059206906274 L-32.328984680602964,-40.694314580144884 L-31.296112614903105,-40.852909985843525 L-30.25851819775384,-41.00635440227392 L-29.21635768705774,-41.15462472127139 L-28.169788028354276,-41.297698613871276 L-27.118966831184533,-41.435554533671606 L-26.064052345355666,-41.56817172007792 L-25.00520343710887,-41.69553020142977 L-23.942579565194915,-41.81761079800833 L-22.876340756860337,-41.93439512492479 L-21.806647583747818,-42.04586559488908 L-20.733661137714435,-42.15200542085846 L-19.65754300657228,-42.252798618565535 L-18.578455249753713,-42.34823000892548 L-17.496560373905552,-42.43828522032195 L-16.41202130841666,-42.52295069077134 L-15.325001380881128,-42.60221366996522 L-14.23566429250151,-42.67606222119048 L-13.144174093436503,-42.74448522312695 L-12.050695158095346,-42.80747237152221 L-10.95539216038341,-42.86501418074341 L-9.85843004890339,-42.91710198520571 L-8.759974022114413,-42.96372794067738 L-7.660189503453591,-43.00488502546101 L-6.559242116424034,-43.04056704145103 L-5.457297659652701,-43.07076861506708 L-4.354522081921594,-43.09548519806325 L-3.2510814571763116,-43.11471306821308 L-2.1471419595160866,-43.12844932987003 L-1.0428698381687376,-43.13669191440363 L0.0615686075460118,-43.13943958051097 L1.1660070532607614,-43.13669191440363 L2.27027917460811,-43.12844932987003 L3.3742186722683356,-43.11471306821308 L4.477659297013618,-43.09548519806325 L5.580434874744725,-43.07076861506708 L6.682379331516058,-43.04056704145103 L7.7833267185456165,-43.00488502546101 L8.883111237206435,-42.96372794067738 L9.981567263995412,-42.91710198520572 L11.078529375475432,-42.86501418074341 L12.173832373187365,-42.80747237152221 L13.267311308528521,-42.74448522312696 L14.35880150759353,-42.676062221190485 L15.448138595973147,-42.60221366996522 L16.53515852350868,-42.52295069077134 L17.619697588997575,-42.43828522032195 L18.70159246484574,-42.34823000892549 L19.780680221664305,-42.25279861856554 L20.856798352806457,-42.15200542085846 L21.929784798839844,-42.04586559488909 L22.999477971952366,-41.9343951249248 L24.06571678028694,-41.81761079800833 L25.128340652200905,-41.695530201429776 L26.187189560447692,-41.56817172007793 L27.242104046276566,-41.435554533671606 L28.292925243446305,-41.297698613871276 L29.339494902149774,-41.1546247212714 L30.38165541284587,-41.00635440227393 L31.419249829995135,-40.85290998584353 L32.45212189569499,-40.694314580144884 L33.480116063211476,-40.53059206906275 L34.503077520404126,-40.36176710860507 L35.52085221304034,-40.18786512318992 L36.53328686799513,-40.00891230181661 L37.54022901633342,-39.824935594121804 L38.541527016271424,-39.635962706320996 L39.53703007601349,-39.44202209703596 L40.52658827646062,-39.24314297300908 L41.51005259378766,-39.039355284704904 L42.48727492188581,-38.83068972179973 L43.458108094667026,-38.61717770855978 L44.42240590822658,-38.398851399108864 L45.38002314286062,-38.17574367258615 L46.330815584935955,-37.94788812819459 L47.27464004860818,-37.715319080141064 L48.21135439738475,-37.47807155246872 L49.14081756553021,-37.23618127378256 L50.062889579310195,-36.989684671868865 L50.97743157807115,-36.73861886820915 L51.88430583515207,-36.48302167238996 L52.78337577862552,-36.222931576408826 L53.674506011864985,-35.958387748877534 L54.557562333935245,-35.68943002912343 L55.43241175980239,-35.416098921189786 L56.29892254036078,-35.13843558773608 L57.15696418227406,-34.856481843839035 L58.00640746762718,-34.57028015069534 L58.847124473385875,-34.27987360922724 L59.67898859066146,-33.9853059535917 L60.50187454377762,-33.68662154459416 L61.31565840913677,-33.38386536300794 L62.12021763388204,-33.07708300280039 L62.91543105435354,-32.76632066426653 L63.7011789143353,-32.45162514707144 L64.47734288308973,-32.13304384320247 L65.24380607317804,-31.810624729832192 L66.0004530580632,-31.48441636209307 L66.74716988949238,-31.15446786576542 L67.48384411465737,-30.820828929879177 L68.21036479312967,-30.483549799230804 L68.9266225135674,-30.1426812668168 L69.63250941019237,-29.79827466618436 L70.32791917903452,-29.450381863700677 L71.01274709394062,-29.09905525074214 L71.6868900223456,-28.7443477358044 L72.0199228272575,-28.56574281343876 L72.35024644080409,-28.386312736534517 L72.67784842648797,-28.206064260532646 L73.00271645027955,-28.025004171686398 L73.3248382810814,-27.84313928680575 L73.64420179118856,-27.660476453000886 L73.96079495674546,-27.477022547424223 L74.27460585819833,-27.2927844770116 L74.58562268074407,-27.107769178222284 L74.89383371477511,-26.921983616777677 L75.19922735632022,-26.735434787399168 L75.50179210748144,-26.548129713544732 L75.8015165768669,-26.360075447144517 L76.09838948001968,-26.171279068335416 L76.39239963984278,-25.981747685194353 L76.68353598701991,-25.791488433470757 L76.97178756043209,-25.600508476317977 L77.25714350757052,-25.408815004023424 L77.53959308494507,-25.216415233737983 L77.81912565848882,-25.02331640920427 L78.09573070395838,-24.829525800483854 L78.36939780733006,-24.635050703683678 L78.64011666519212,-24.43989844068119 L78.90787708513264,-24.24407635884877 L79.17266898612304,-24.04759183077717 L79.43448239889798,-23.85045225399779 L79.69330746633041,-23.652665050704275 L79.94913444380286,-23.45423766747304 L80.20195369957423,-23.25517757498288 L80.4517557151424,-23.05549226773383 L80.69853108560268,-22.85518926376481 L80.94227052000188,-22.654276104370688 L81.182964841688,-22.4527603538184 L81.42060498865591,-22.25064959906205 L81.65518201388839,-22.047951449457305 L81.88668708569301,-21.844673536474936 L82.11511148803471,-21.64082351341345 L82.34044662086377,-21.436409055111056 L82.56268400043984,-21.231437857656534 L82.78181525965122,-21.0259176380996 L82.99783214832979,-20.819856134160414 L83.21072653356183,-20.6132611039381 L83.42049039999402,-20.406140325618786 L83.6271158501354,-20.19850159718271 L83.83059510465456,-19.9903527361106 L84.03092050267252,-19.7817015790895 L84.22808450205129,-19.572555981717503 L84.42207967967778,-19.362923818208117 L84.61289873174312,-19.152812981093874 L84.80053447401788,-18.942231380928998 L84.98497984212244,-18.731186945991723 L85.16622789179291,-18.519687621985735 L85.34427179914272,-18.307741371741017 L85.51910486091931,-18.09535617491416 L85.69072049475676,-17.882540027687746 L85.85911223942347,-17.669300942469413 L86.02427375506538,-17.455646947590253 L86.18619882344481,-17.241586087002382 L86.34488134817444,-17.02712641997622 L86.50031535494692,-16.812276020797007 L86.65249499175975,-16.59704297846082 L86.8014145291356,-16.381435396370104 L86.94706836033805,-16.16546139202844 L87.08945100158272,-15.949129096734985 L87.22855709224358,-15.732446655278453 L87.36438139505498,-15.51542222563026 L87.49691879630869,-15.298063978637488 L87.62616430604643,-15.080380097715352 L87.75211305824784,-14.862378778538899 L87.8747603110136,-14.644068228734548 L87.99410144674391,-14.425456667571176 L88.1101319723125,-14.206552325650467 L88.22284751923569,-13.98736344459714 L88.33224384383676,-13.76789827674874 L88.438316827406,-13.548165084844767 L88.5410624763555,-13.328172141715667 L88.64047692236964,-13.107927729971474 L88.73655642255073,-12.887440141689776 L88.82929735955992,-12.666717678103618 L88.91869624175328,-12.445768649289064 L89.0047497033135,-12.224601373852142 L89.08745450437632,-12.003224178615731 L89.16680753115277,-11.781645398306171 L89.24280579604624,-11.559873375239277 L89.31544643776499,-11.337916459006337 L89.38472672142993,-11.115783006159862 L89.45064403867754,-10.893481379898766 L89.51319590775807,-10.671019949753603 L89.57237997362904,-10.448407091271545 L89.62819400804376,-10.225651185700862 L89.68063590963541,-10.002760619675495 L89.72970370399605,-9.779743784899276 L89.77539554375096,-9.556609077829956 L89.81770970862816,-9.3333648993632 L89.85664460552329,-9.110019654516123 L89.89219876855947,-8.886581752110917 L89.92437085914257,-8.663059604458393 L89.95315966601156,-8.439461627041037 L89.97856410528412,-8.215796238196324 L90.00058322049749,-7.9920718587997275 L90.01921618264441,-7.768296911947648 L90.03446229020442,-7.544479822640422 L90.04632096917014,-7.3206290174649284 L90.05479177306904,-7.096752924277428 L90.05987438298014,-6.872859971886359 L90.06156860754604,-6.648958589735125 " />
			<path d="M63.72887875677441,32.8542319330102 L63.140604614237155,33.09076780128041 L62.546985015229744,33.32509800231966 L61.94807026438469,33.55720267847051 L61.343911115057345,33.78706216067138 L60.73455876502495,34.01465697012341 L60.120064852148005,34.239967819941036 L59.5004814499944,34.462975616786515 L58.87586106342651,34.68366146248787 L58.24625662415192,34.90200665564038 L57.61172148623775,35.11799269319137 L56.972309421589436,35.33160127200823 L56.328074615393945,35.54281429042942 L55.67907166152794,35.75161384979846 L55.02535555793145,35.957982255980724 L54.36698170194718,36.161902020862854 L53.70400588562605,36.36335586383476 L53.03648429099922,36.562326713253995 L52.36447348531712,36.75879770789246 L51.68803041625583,36.95275219836526 L51.00721240709118,37.14417374854159 L50.32207715184107,37.33304613693761 L49.632682710376315,37.51935335809106 L48.939087503500595,37.70307962391758 L48.24135030799967,37.88420936504868 L47.539530251660565,38.062727232151076 L46.83368680826092,38.238618097227445 L46.12387979252907,38.4118670548984 L45.41016935507516,38.58245942366562 L44.69261597729394,38.75038074715597 L43.97128046623933,38.91561679534658 L43.24622394947161,39.07815356577072 L42.51750786987727,39.2379772847044 L41.7851939804622,39.3950744083336 L41.04934433911864,39.54943162390201 L40.31002130336622,39.701035850839105 L39.56728752506768,39.84987424186875 L38.82120594511957,39.99593418409779 L38.07183978811854,40.13920330008497 L37.319252557003544,40.279669448889805 L36.563508027674445,40.41732072710137 L35.804670243587516,40.55214546984715 L35.042803510328255,40.68413225178139 L34.27797239016198,40.81326988805348 L33.51024169656268,40.93954743525562 L32.73967648872059,41.062954192350276 L31.966342066028936,41.183479701576985 L31.190303962550303,41.30111374933861 L30.411627941463145,41.41584636706678 L29.630379989488855,41.52766783206674 L28.846626311299897,41.6365686683412 L28.060433323909535,41.742539647393386 L27.27186765104346,41.8455717890091 L26.48099611749394,41.94565636201769 L25.68788574345697,42.042784885031935 L24.892603738852817,42.13694912716686 L24.0952174976305,42.22814110873712 L23.295794592056694,42.31635310193333 L22.494402766989495,42.40157763147684 L21.691109934137568,42.4838074752533 L20.885984166305192,42.56303566492457 L20.07909369162355,42.639255486519346 L19.270506887768978,42.71246048100204 L18.46029227616851,42.78264444482012 L17.648518516193192,42.849801430429935 L16.835254399339725,42.91392574680053 L16.020568843400934,42.97501195989611 L15.204530886625532,43.03305489313638 L14.387209681867672,43.088049627835346 L13.568674490726732,43.139991503618006 L12.748994677677965,43.188876118815415 L11.928239704194455,43.23469933083756 L11.10647912286072,43.27745725652453 L10.283782571478705,43.3171462724755 L9.460219767166523,43.353763015355824 L8.635860500450468,43.387304382182066 L7.8107746293508065,43.41776753058488 L6.985032073461868,43.44514987904998 L6.158702808026893,43.46944910713684 L5.331856858008187,43.49066315567532 L4.5045642921530575,43.50879022694025 L3.676895217055988,43.52382878480364 L2.8489197712176826,43.53577755486499 L2.0207081191014167,43.54463552455921 L1.1923304451870858,43.55040194324242 L0.36385694802364,43.55307632225559 L-0.4646421657196993,43.55265843496596 L-1.2930966872029046,43.549148316786244 L-2.1214364113647943,43.54254626517154 L-2.9495911428723653,43.532852839594284 L-3.7774907020692994,43.520068861496696 L-4.605064930923142,43.50419541422126 L-5.432243698970629,43.48523384291883 L-6.258956909260757,43.463185754434775 L-7.085134504294906,43.43805301717265 L-7.910706471963644,43.409837760936 L-8.735602851479747,43.378542376747774 L-9.559753739306824,43.34416951664777 L-10.383089295083089,43.3067220934679 L-11.205539747539792,43.26620328058527 L-12.02703540041377,43.22261651165336 L-12.847506638353716,43.17596548031098 L-13.6668839328195,43.12625413986929 L-14.485097847974137,43.07348670297681 L-15.302079046567988,43.01766764126236 L-16.117758295814525,42.95880168495623 L-16.93206647325728,42.896893822489204 L-17.74493457262743,42.83194930006994 L-18.55629370969152,42.763973621240325 L-19.366075128088927,42.69297254640914 L-20.17421020515837,42.61895209236387 L-20.980630457753144,42.54191853176086 L-21.785267548044544,42.46187839259373 L-22.588053289312978,42.3788384576402 L-23.388919651726248,42.29280576388729 L-24.18779876810455,42.20378760193499 L-24.98462293967166,42.11179151537844 L-25.779324641791952,42.01682530016869 L-26.571836529692526,41.91889700395201 L-27.362091444170137,41.81801492538794 L-28.150022417282454,41.714187613446086 L-28.935562678023043,41.60742386668156 L-29.718645657979728,41.49773273248947 L-30.499204996975703,41.38512350633816 L-31.277174548693058,41.26960573098154 L-32.05248838627818,41.151189195650346 L-32.82508080792848,41.02988393522267 L-33.59488634246019,40.905700229373494 L-34.361839754856476,40.77864860170362 L-35.12587605179563,40.648739818847886 L-35.88693048715874,40.5159848895627 L-36.644938567516405,40.380395063793245 L-37.39983605759404,40.241981831720025 L-38.151558985715326,40.100756922785266 L-38.90004364922338,39.95673230469886 L-39.64522661987892,39.80992018242421 L-40.38704474923543,39.66033299714397 L-41.12543517399047,39.50798342520575 L-41.860335321312796,39.352884377047914 L-42.591682914145004,39.195048996105456 L-43.31941597648096,39.03449065769627 L-44.04347283861782,38.87122296788764 L-44.76379214238203,38.705259762343275 L-45.480312846328935,38.53661510515083 L-46.19297423091572,38.365303287630056 L-46.90171590364667,38.191338827121754 L-47.60647780419108,38.01473646575755 L-48.307200209473024,37.83551116921058 L-49.00382373873221,37.65367812542729 L-49.69628935855614,37.469252743340405 L-50.384538387882756,37.28225065156305 L-51.068512502973114,37.09268769706444 L-51.74815374235398,36.900579943826955 L-52.4234045117295,36.705943671484775 L-53.09420758886197,36.50879537394442 L-53.76050612842088,36.3091517579869 L-54.42224366680017,36.10702974185205 L-55.0793641269031,35.902446453804785 L-55.731811822894265,35.6954192306836 L-56.37953146491858,35.48596561643146 L-57.02246816378677,35.27410336060905 L-57.66056743562658,35.059850416890626 L-58.29377520650001,34.84322494154266 L-58.92203781698568,34.62424529188512 L-59.54530202672594,34.40293002473591 L-60.16351501893865,34.17929789483833 L-60.776624404892964,33.953367853271715 L-61.38457822834887,33.72515904584547 L-61.98732496996009,33.494690811476694 L-62.58481355163993,33.26198268055126 L-63.17699334088975,33.027054373268825 L-63.76381415508968,32.78992579797169 L-64.34522626575118,32.550617049457685 L-64.9211804027312,32.30914840727736 L-65.49162775840739,32.06554033401538 L-66.05651999181413,31.819813473556525 L-66.61580923273918,31.57198864933628 L-67.16944808578019,31.322086862576185 L-67.7173896343611,31.070129290504166 L-68.25958744470802,30.816137284559932 L-68.79599556978405,30.560132368585588 L-69.32656855318302,30.30213623700168 L-69.85126143298152,30.042170752968747 L-70.37002974554899,29.780257946534604 L-70.88282952931587,29.516420012767416 L-71.38961732849882,29.250679309874926 L-71.89035019678325,28.983058357309716 L-72.38498570096289,28.713579833860837 L-72.87348192453545,28.442266575732017 L-73.35579747125482,28.169141574606435 L-73.83189146863903,27.894227975698364 L-74.30172357143398,27.617549075791796 L-74.76525396503224,27.339128321266205 L-75.22244336884715,27.058989306109684 L-75.67325303964148,26.7771557699195 L-76.11764477481059,26.493651595890363 L-76.55558091561988,26.208500808790532 L-76.98702435039607,25.92172757292587 L-77.41193851767203,25.633356190092126 L-77.83028740928513,25.34341109751556 L-78.24203557342878,25.051916865782022 L-78.64714811765644,24.758898196754856 L-79.04559071183868,24.464379921481598 L-79.43732959107236,24.16838699808967 L-79.82233155854185,23.870944509671464 L-80.2005639883323,23.572077662158698 L-80.57199482819439,23.271811782186415 L-80.9365926022605,22.970172314946744 L-81.2943264137121,22.667184822032635 L-81.64516594739791,22.3628749792717 L-81.98908147240299,22.057268574550392 L-82.32604384456812,21.75039150562867 L-82.65602450895956,21.442269777945384 L-82.97899550228892,21.13292950241452 L-83.29492945528273,20.822396893212474 L-83.60379959500182,20.510698265556634 L-83.90557974711011,20.19786003347536 L-84.20024433809276,19.883908707569603 L-84.48776839742317,19.56887089276633 L-84.76812755967914,19.25277328606398 L-85.04129806660771,18.935642674270085 L-85.30725676913828,18.6175059317313 L-85.56598112934454,18.298390018056033 L-85.81744922235423,17.978321975829807 L-86.06163973820722,17.65732892832358 L-86.29853198366123,17.33543807719534 L-86.52810588394553,17.01267670018494 L-86.75034198446208,16.689072148802445 L-86.96522145243415,16.36465184601044 L-87.17272607850225,16.039443283900063 L-87.37283827826725,15.713474021361279 L-87.56554109378052,15.386771681747481 L-87.75081819498095,15.059363950534635 L-87.92865388107884,14.731278572975139 L-88.09903308188636,14.40254335174664 L-88.26194135909475,14.073186144595965 L-88.41736490749769,13.743234861978403 L-88.5652905561613,13.412717464692502 L-88.70570576954024,13.081661961510616 L-88.83859864854003,12.750096406805376 L-88.96395793152531,12.418048898172309 L-89.08177299527432,12.085547574048775 L-89.19203385587899,11.752620611329455 L-89.2947311695911,11.419296222978591 L-89.38985623361407,11.08560265563914 L-89.47740098684041,10.751568187239101 L-89.55735801053486,10.417221124595187 L-89.6297205289631,10.082589801014045 L-89.69448240996593,9.747702573891175 L-89.75163816547887,9.412587822307952 L-89.80118295199728,9.077273944626679 L-89.84311257098682,8.741789356083991 L-89.8774234692392,8.40616248638299 L-89.90411273917333,8.070421777283975 L-89.92317811908167,7.734595680194253 L-89.93461799332192,7.398712653757092 L-89.93843139245396,7.062801161440243 " />
			<path d="M-89.93843139245396,7.062801161440081 L-89.93673716788807,6.838899779288523 L-89.93165455797697,6.615006826897438 L-89.92318375407807,6.391130733709953 L-89.91132507511234,6.167279928534459 L-89.89607896755234,5.943462839227234 L-89.87744600540542,5.719687892375171 L-89.85542689019205,5.495963512978557 L-89.83002245091949,5.272298124133844 L-89.8012336440505,5.04870014671649 L-89.7690615534674,4.825177999063948 L-89.73350739043121,4.6017400966587605 L-89.69457249353609,4.378394851811681 L-89.65225832865889,4.15515067334491 L-89.60656648890398,3.9320159662756056 L-89.55749869454334,3.708999131499388 L-89.50505679295169,3.4861085654740047 L-89.44924275853695,3.2633526599033047 L-89.390058692666,3.040739801421248 L-89.32750682358547,2.818278371276101 L-89.26158950633786,2.5959767450149887 L-89.19230922267292,2.3738432921685115 L-89.11966858095417,2.1518863759355877 L-89.0436703160607,1.930114352868677 L-88.96431728928424,1.7085355725591196 L-88.88161248822142,1.4871583773227393 L-88.79555902666121,1.2659911018857999 L-88.70616014446783,1.045042073071233 L-88.61341920745868,0.8243196094851069 L-88.51733970727759,0.6038320212034085 L-88.41792526126343,0.383587609459199 L-88.31517961231394,0.16359466633011532 L-88.2091066287447,-0.05613852557385801 L-88.09971030414361,-0.27560369342225677 L-87.98699475722046,-0.49479257447557057 L-87.87096423165185,-0.7136969163962954 L-87.75162309592153,-0.9323084775596673 L-87.62897584315579,-1.1506190273639856 L-87.50302709095438,-1.3686203465404567 L-87.37378158121662,-1.5863042274626107 L-87.24124417996292,-1.8036624744553489 L-87.10541987715153,-2.020686904103542 L-86.96631378649066,-2.237369345560092 L-86.82393114524601,-2.453701640853531 L-86.67827731404356,-2.669675645195195 L-86.52935777666772,-2.8852832272859086 L-86.37717813985489,-3.100516269622082 L-86.22174413308241,-3.3153666688013086 L-86.06306160835277,-3.529826335827474 L-85.90113653997335,-3.7438871964153417 L-85.73597502433142,-3.9575411912945206 L-85.56758327966472,-4.170780276512838 L-85.39596764582727,-4.383596423739251 L-85.22113458405069,-4.595981620566109 L-85.04309067670088,-4.807927870810811 L-84.8618426270304,-5.019427194816814 L-84.67739725892585,-5.2304716297540885 L-84.48976151665107,-5.441053229918962 L-84.29894246458572,-5.651164067033225 L-84.10494728695924,-5.860796230542597 L-83.90778328758049,-6.06994182791459 L-83.7074578895625,-6.278592984935708 L-83.50397863504337,-6.486741846007801 L-83.297353184902,-6.694380574443878 L-83.08758931846977,-6.90150135276321 L-82.87469493323773,-7.108096382985535 L-82.65867804455917,-7.31415788692472 L-82.4395467853478,-7.51967810648164 L-82.21730940577172,-7.724649303936175 L-81.99197427294266,-7.929063762238572 L-81.76354987060097,-8.132913785300046 L-81.53204479879633,-8.336191698282427 L-81.29746777356385,-8.538889847887171 L-81.05982762659595,-8.741000602643524 L-80.81913330490981,-8.942516353195817 L-80.57539387051061,-9.143429512589929 L-80.32861850005034,-9.343732516558948 L-80.07881648448219,-9.543417823808 L-79.82599722871082,-9.742477916298146 L-79.57017025123835,-9.940905299529398 L-79.31134518380591,-10.13869250282291 L-79.04953177103098,-10.335832079602287 L-78.78473987004055,-10.532316607673902 L-78.51697945010007,-10.72813868950631 L-78.246260592238,-10.923290952508793 L-77.97259348886632,-11.117766049308972 L-77.69598844339677,-11.311556658029374 L-77.41645586985301,-11.504655482563106 L-77.13400629247846,-11.697055252848543 L-76.84865034534003,-11.888748725143095 L-76.56039877192784,-12.079728682295894 L-76.26926242475072,-12.269987934019472 L-75.97525226492762,-12.459519317160531 L-75.67837936177484,-12.648315695969632 L-75.3786548923894,-12.836369962369837 L-75.07609014122818,-13.023675036224283 L-74.77069649968305,-13.2102238656028 L-74.46248546565201,-13.396009427047403 L-74.15146864310626,-13.581024725836734 L-73.83765774165339,-13.765262796249345 L-73.52106457609652,-13.948716701826001 L-73.20170106598935,-14.13137953563087 L-72.87957923518752,-14.313244420511502 L-72.55471121139591,-14.494304509357768 L-72.22710922571203,-14.674552985359636 L-71.89678561216546,-14.853983062263879 L-71.56375280725352,-15.032587984629533 L-70.88960987884856,-15.387295499567262 L-70.20478196394248,-15.7386221125258 L-69.5093721951003,-16.086514915009488 L-68.80348529847528,-16.43092151564195 L-68.08722757803757,-16.77179004805595 L-67.3607068995653,-17.109069178704306 L-66.62403267440027,-17.442708114590566 L-65.87731584297111,-17.7726566109182 L-65.12066885808599,-18.09886497865731 L-64.35420566799765,-18.421284092027612 L-63.578041699243265,-18.739865395896565 L-62.792293839261546,-19.05456091309165 L-61.99708041879001,-19.36532325162552 L-61.192521194044744,-19.672105611833075 L-60.378737328685624,-19.974861793419283 L-59.55585137556943,-20.273546202416824 L-58.723987258293846,-20.568113858052364 L-57.88327025253515,-20.858520399520472 L-57.033826967182044,-21.14472209266416 L-56.175785325268755,-21.426675836561213 L-55.30927454471036,-21.704339170014915 L-54.43442511884322,-21.977670277948558 L-53.55136879677296,-22.246627997702664 L-52.66023856353349,-22.51117182523395 L-51.76116862006004,-22.771261921215086 L-50.854294362979125,-23.02685911703428 L-49.939752364218165,-23.27792492069399 L-49.017680350438184,-23.524421522607692 L-48.08821718229272,-23.766311801293845 L-47.15150283351615,-24.00355932896619 L-46.20767836984394,-24.236128377019725 L-45.2568859277686,-24.463983921411277 L-44.29926869313456,-24.687091647933997 L-43.334970879575,-24.90541795738491 L-42.36413770679378,-25.118929970624865 L-41.38691537869563,-25.32759553353004 L-40.40345106136859,-25.531383221834208 L-39.41389286092146,-25.73026234586109 L-38.418389801179394,-25.924202955146118 L-37.41709180124139,-26.113175842946934 L-36.4101496529031,-26.297152550641737 L-35.39771499794831,-26.476105372015052 L-34.379940305312104,-26.65000735743021 L-33.35697884811944,-26.81883231788788 L-32.328984680602964,-26.98255482897002 L-31.296112614903105,-27.14115023466866 L-30.25851819775384,-27.294594651099057 L-29.21635768705774,-27.442864970096526 L-28.169788028354276,-27.585938862696413 L-27.118966831184533,-27.723794782496743 L-26.064052345355666,-27.856411968903057 L-25.00520343710887,-27.983770450254905 L-23.942579565194915,-28.105851046833468 L-22.876340756860337,-28.222635373749927 L-21.806647583747818,-28.334105843714216 L-20.733661137714435,-28.440245669683595 L-19.65754300657228,-28.54103886739067 L-18.578455249753713,-28.63647025775062 L-17.496560373905552,-28.726525469147088 L-16.41202130841666,-28.811190939596475 L-15.325001380881128,-28.890453918790353 L-14.23566429250151,-28.964302470015614 L-13.144174093436503,-29.032725471952087 L-12.050695158095346,-29.095712620347346 L-10.95539216038341,-29.153254429568545 L-9.85843004890339,-29.205342234030848 L-8.759974022114413,-29.251968189502517 L-7.660189503453591,-29.293125274286144 L-6.559242116424034,-29.328807290276163 L-5.457297659652701,-29.359008863892218 L-4.354522081921594,-29.383725446888388 L-3.2510814571763116,-29.402953317038214 L-2.1471419595160866,-29.416689578695166 L-1.0428698381687376,-29.424932163228764 L0.0615686075460118,-29.427679829336103 L1.1660070532607614,-29.424932163228764 L2.27027917460811,-29.416689578695166 L3.3742186722683356,-29.402953317038214 L4.477659297013618,-29.383725446888388 L5.580434874744725,-29.359008863892218 L6.682379331516058,-29.328807290276163 L7.7833267185456165,-29.293125274286144 L8.883111237206435,-29.251968189502517 L9.981567263995412,-29.205342234030855 L11.078529375475432,-29.153254429568545 L12.173832373187365,-29.095712620347346 L13.267311308528521,-29.032725471952094 L14.35880150759353,-28.96430247001562 L15.448138595973147,-28.890453918790353 L16.53515852350868,-28.811190939596475 L17.619697588997575,-28.726525469147088 L18.70159246484574,-28.636470257750627 L19.780680221664305,-28.54103886739068 L20.856798352806457,-28.440245669683595 L21.929784798839844,-28.334105843714223 L22.999477971952366,-28.222635373749934 L24.06571678028694,-28.105851046833468 L25.128340652200905,-27.983770450254912 L26.187189560447692,-27.856411968903064 L27.242104046276566,-27.723794782496743 L28.292925243446305,-27.585938862696413 L29.339494902149774,-27.442864970096533 L30.38165541284587,-27.294594651099064 L31.419249829995135,-27.141150234668668 L32.45212189569499,-26.98255482897002 L33.480116063211476,-26.818832317887885 L34.503077520404126,-26.65000735743021 L35.52085221304034,-26.47610537201506 L36.53328686799513,-26.297152550641744 L37.54022901633342,-26.11317584294694 L38.541527016271424,-25.924202955146132 L39.53703007601349,-25.730262345861096 L40.52658827646062,-25.531383221834215 L41.51005259378766,-25.32759553353004 L42.48727492188581,-25.118929970624865 L43.458108094667026,-24.905417957384916 L44.42240590822658,-24.687091647934004 L45.38002314286062,-24.463983921411288 L46.330815584935955,-24.23612837701973 L47.27464004860818,-24.0035593289662 L48.21135439738475,-23.766311801293853 L49.14081756553021,-23.5244215226077 L50.062889579310195,-23.277924920694 L50.97743157807115,-23.026859117034288 L51.88430583515207,-22.771261921215096 L52.78337577862552,-22.51117182523396 L53.674506011864985,-22.24662799770267 L54.557562333935245,-21.97767027794857 L55.43241175980239,-21.704339170014926 L56.29892254036078,-21.426675836561223 L57.15696418227406,-21.14472209266417 L58.00640746762718,-20.85852039952048 L58.847124473385875,-20.568113858052378 L59.67898859066146,-20.273546202416835 L60.50187454377762,-19.974861793419297 L61.31565840913677,-19.672105611833082 L62.12021763388204,-19.365323251625533 L62.91543105435354,-19.05456091309167 L63.7011789143353,-18.739865395896572 L64.47734288308973,-18.421284092027605 L65.24380607317804,-18.09886497865733 L66.0004530580632,-17.772656610918208 L66.74716988949238,-17.442708114590555 L67.48384411465737,-17.109069178704313 L68.21036479312967,-16.77179004805594 L68.9266225135674,-16.430921515641938 L69.63250941019237,-16.086514915009495 L70.32791917903452,-15.738622112525814 L71.01274709394062,-15.387295499567276 L71.6868900223456,-15.032587984629536 L72.0199228272575,-14.853983062263897 L72.35024644080409,-14.674552985359654 L72.67784842648797,-14.494304509357782 L73.00271645027955,-14.313244420511534 L73.3248382810814,-14.131379535630888 L73.64420179118856,-13.948716701826022 L73.96079495674546,-13.76526279624936 L74.27460585819833,-13.581024725836738 L74.58562268074407,-13.39600942704742 L74.89383371477511,-13.210223865602813 L75.19922735632022,-13.023675036224304 L75.50179210748144,-12.836369962369869 L75.8015165768669,-12.648315695969654 L76.09838948001968,-12.459519317160552 L76.39239963984278,-12.26998793401949 L76.68353598701991,-12.079728682295894 L76.97178756043209,-11.888748725143113 L77.25714350757052,-11.69705525284856 L77.53959308494507,-11.50465548256312 L77.81912565848882,-11.311556658029406 L78.09573070395838,-11.11776604930899 L78.36939780733006,-10.923290952508815 L78.64011666519212,-10.728138689506327 L78.90787708513264,-10.532316607673906 L79.17266898612304,-10.335832079602305 L79.43448239889798,-10.138692502822927 L79.69330746633041,-9.940905299529412 L79.94913444380286,-9.742477916298178 L80.20195369957423,-9.543417823808017 L80.4517557151424,-9.343732516558966 L80.69853108560268,-9.143429512589947 L80.94227052000188,-8.942516353195824 L81.182964841688,-8.741000602643538 L81.42060498865591,-8.538889847887186 L81.65518201388839,-8.336191698282441 L81.88668708569301,-8.132913785300074 L82.11511148803471,-7.929063762238588 L82.34044662086377,-7.724649303936191 L82.56268400043984,-7.5196781064816705 L82.78181525965122,-7.314157886924736 L82.99783214832979,-7.108096382985551 L83.21072653356183,-6.901501352763239 L83.42049039999402,-6.694380574443924 L83.6271158501354,-6.486741846007845 L83.83059510465456,-6.278592984935738 L84.03092050267252,-6.069941827914635 L84.22808450205129,-5.86079623054264 L84.42207967967778,-5.651164067033255 L84.61289873174312,-5.441053229919008 L84.80053447401788,-5.230471629754135 L84.98497984212244,-5.01942719481686 L85.16622789179291,-4.807927870810872 L85.34427179914272,-4.595981620566155 L85.51910486091931,-4.383596423739297 L85.69072049475676,-4.170780276512884 L85.85911223942347,-3.957541191294549 L86.02427375506538,-3.743887196415388 L86.18619882344481,-3.5298263358275204 L86.34488134817444,-3.3153666688013548 L86.50031535494692,-3.100516269622144 L86.65249499175975,-2.8852832272859565 L86.8014145291356,-2.669675645195241 L86.94706836033805,-2.453701640853577 L87.08945100158272,-2.237369345560122 L87.22855709224358,-2.0206869041035898 L87.36438139505498,-1.8036624744553968 L87.49691879630869,-1.586304227462625 L87.62616430604643,-1.3686203465404887 L87.75211305824784,-1.1506190273640353 L87.8747603110136,-0.932308477559685 L87.99410144674391,-0.7136969163963123 L88.1101319723125,-0.4947925744756043 L88.22284751923569,-0.2756036934222754 L88.33224384383676,-0.05613852557387666 L88.438316827406,0.16359466633009667 L88.5410624763555,0.38358760945919634 L88.64047692236964,0.6038320212033899 L88.73655642255073,0.8243196094850882 L88.82929735955992,1.0450420730712455 L88.91869624175328,1.265991101885798 L89.0047497033135,1.4871583773227215 L89.08745450437632,1.708535572559133 L89.16680753115277,1.9301143528686913 L89.24280579604624,2.151886375935585 L89.31544643776499,2.3738432921685257 L89.38472672142993,2.595976745015002 L89.45064403867754,2.818278371276098 L89.51319590775807,3.040739801421261 L89.57237997362904,3.2633526599033194 L89.62819400804376,3.4861085654740025 L89.68063590963541,3.708999131499369 L89.72970370399605,3.932015966275587 L89.77539554375096,4.155150673344908 L89.81770970862816,4.378394851811662 L89.85664460552329,4.601740096658742 L89.89219876855947,4.825177999063945 L89.92437085914257,5.04870014671647 L89.95315966601156,5.272298124133826 L89.97856410528412,5.4959635129785385 L90.00058322049749,5.719687892375136 L90.01921618264441,5.943462839227215 L90.03446229020442,6.167279928534441 L90.04632096917014,6.391130733709935 L90.05479177306904,6.615006826897435 L90.05987438298014,6.8388997792885045 L90.06156860754604,7.062801161439738 " />
			<path d="M90.06156860754604,7.062801161440071 L90.0598762607125,7.286578433871945 L90.05479928385718,7.510347290553631 L90.04633786791354,7.73409931605144 L90.03449233109602,7.9578260955646645 L90.0192631188881,8.18151921524204 L90.00065080402558,8.405170262498173 L89.9786560864749,8.628770826329912 L89.95327979340699,8.85231249763268 L89.92452287916605,9.075786869516705 L89.8923864252337,9.299185537623197 L89.85687164018827,9.522500100440409 L89.81797985965945,9.7457221596196 L89.7757125462779,9.968843320290885 L89.73007128962041,10.19185519137893 L89.68105780614998,10.414749385918544 L89.62867393915137,10.637517521370073 L89.57292165866171,10.860151219934655 L89.51380306139647,11.082642108869297 L89.45132037067054,11.304981820801746 L89.38547593631469,11.52716199404517 L89.31627223458713,11.749174272912619 L89.24371186808044,11.971010308031268 L89.16779756562363,12.192661756656417 L89.08853218217959,12.414120282985238 L89.00591869873767,12.635377558470266 L88.91996022220157,12.856425262132625 L88.83065998527255,13.077255080874952 L88.73802134632776,13.297858709794035 L88.64204778929405,13.51822785249314 L88.54274292351687,13.738354221394031 L88.44011048362457,13.95822953804863 L88.33415432938789,14.177845533450363 L88.22487844557489,14.39719394834513 L88.11228694180105,14.616266533541925 L87.99638405237467,14.835055050223058 L87.87717413613773,15.053551270254012 L87.75466167630188,15.27174697649287 L87.62885128027985,15.489633963099358 L87.4997476795122,15.707204035843432 L87.3673557292894,15.924449012413454 L87.23168040856915,16.14136072272391 L87.09272681978922,16.35793100922266 L86.95050018867553,16.574151727197744 L86.80500586404563,16.79001474508366 L86.65624931760746,17.005511944767186 L86.50423614375372,17.220635221892692 L86.34897205935138,17.435376486166913 L86.1904629035267,17.649727661663213 L86.02871463744562,17.863680687125306 L85.86373334408961,18.077227516270405 L85.69552522802688,18.29036011809184 L85.52409661517905,18.50307047716108 L85.34945395258323,18.715350593929188 L85.17160380814957,18.927192485027632 L84.99055287041428,19.138588183568558 L84.80630794828802,19.349529739444392 L84.61887597079996,19.560009219626814 L84.42826398683702,19.770018708465116 L84.23447916487896,19.97955030798389 L84.03752879272866,20.18859613818005 L83.8374202772381,20.397148337319173 L83.63416114402973,20.60519906223118 L83.4277590372136,20.81274048860528 L83.21822171909976,21.019764811284226 L83.00555706990635,21.226264244557875 L82.78977308746326,21.43223102245595 L82.57087788691139,21.637657399040144 L82.34887970039738,21.84253564869538 L82.12378687676407,22.046858066420395 L81.89560788123653,22.250616968117484 L81.66435129510366,22.45380469088149 L81.43002581539547,22.656413593287986 L81.19264025455604,22.85843605568065 L80.95220354011211,23.059864480457826 L80.70872471433727,23.260691292358246 L80.46221293391196,23.46090893874594 L80.2126774695791,23.660509889894232 L79.96012770579541,23.859486639268958 L79.70457314037854,24.057831703810745 L79.44602338414978,24.25553762421644 L79.18448816057274,24.45259696521963 L78.91997730538758,24.64900231587028 L78.65250076624113,24.844746289813425 L78.38206860231283,25.039821525566975 L78.10869098393637,25.234220686798526 L77.83237819221725,25.427936462601313 L77.55314061864608,25.620961567769108 L77.27098876470782,25.813288743070245 L76.98593324148686,26.004910755520584 L76.6979847692679,26.19582039865554 L76.40715417713282,26.386010492801113 L76.11345240255346,26.5754738853439 L75.81689049098021,26.76420345100006 L75.51747959542668,26.952192092083312 L75.21523097605022,27.13943273877184 L74.91015599972847,27.325918349374195 L74.60226613963188,27.511641910594093 L74.29157297479225,27.69659643779418 L73.97808818966718,27.88077497525872 L73.66182357370074,28.064170596455167 L73.34279102088009,28.24677640429465 L73.02100252928815,28.428585531391374 L72.69647020065236,28.60959114032089 L72.36920623988954,28.789786423877214 L72.03922295464699,28.96916460532885 L71.70653275483959,29.147718938673627 L71.03308175972319,29.50232923220168 L70.34895456137981,29.853563960642266 L69.65425407266387,30.20137028796055 L68.9490847969637,30.545695893854067 L68.23355281248115,30.886488981623252 L67.50776575627427,31.223698285963167 L66.77183280806555,31.557273080675323 L66.02586467381813,31.887163186298395 L65.26997356908225,32.21331897765668 L64.50427320211486,32.53569139132517 L63.7288787567745,32.854231933010155 " />
			<path d="M31.890606036594267,15.658072528544043 L42.501824394798994,19.95664432380573 " />
			<path d="M31.890606036594264,15.658072528544041 L21.28862296952144,19.960388770644542 " />
			<path d="M31.899841327726172,15.661813716468043 L31.899841327726172,24.25896056590623 " />
			<path d="M42.501824394798994,19.956644323805726 L31.899841327726172,24.25896056590623 " />
			<path d="M21.28862296952144,19.960388770644542 L31.899841327726172,24.25896056590623 " />
			<path d="M-26.43877141457008,22.119035785372414 L-26.637518718046504,22.196771637677514 L-26.843189555682407,22.27148824616222 L-27.055505093018454,22.34308431515735 L-27.274177487165776,22.411462779607795 L-27.498910277043684,22.4765309366667 L-27.72939878530131,22.538200571375622 L-27.965330531378353,22.596388076260368 L-28.206385655144842,22.651014564680263 L-28.45223735054564,22.702005977777294 L-28.702552308661744,22.749293184880013 L-28.956991169587724,22.7928120772262 L-29.215208982512685,22.83250365487713 L-29.476855673380992,22.868314106705657 L-29.74157651949874,22.90019488334966 L-30.009012630442516,22.928102763031944 L-30.278801434618515,22.951999910157394 L-30.55057717081231,22.971853926607842 L-30.82397138406289,22.987637895665276 L-31.098613425188713,22.99933041850364 L-31.374130953288528,23.006915643199918 L-31.65015044053569,23.0103832862251 L-31.92629767858168,23.00972864638586 L-32.20219828588217,23.004952611198135 L-32.477478215257925,22.996061655683878 L-32.75176426100243,22.983067833592678 L-33.02468456484861,22.965988761060096 L-33.29586912010891,22.944847592724926 L-33.564950273304994,22.91967299033771 L-33.83156322260725,22.8904990839031 L-34.095346512408156,22.857365425408737 L-34.35594252335903,22.82031693520336 L-34.61299795720599,22.779403841096865 L-34.86616431576745,22.7346816102649 L-35.11509837340424,22.68621087405023 L-35.35946264234136,22.63405734576292 L-35.59892583021092,22.578291731590735 L-35.83316328919563,22.518989634740507 L-36.06185745616411,22.45623145294048 L-36.284698283201294,22.39010226944257 L-36.50138365795018,22.32069173767232 L-36.711619813195114,22.24809395968289 L-36.915121725131286,22.172407358577956 L-37.111613499780546,22.093734545076373 L-37.30082874702955,22.012182178399588 L-37.48251094178329,21.927860821670365 L-37.65641377174427,21.840884792018848 L-37.8223014713459,21.751372005599233 L-37.9799491413873,21.65944381772708 L-38.129143053936275,21.56522485835411 L-38.269680942087014,21.4688428631034 L-38.40137227417977,21.370428500094185 L-38.52403851211062,21.27011519279095 L-38.637513353381244,21.168038939117015 L-38.741642956560455,21.064338127077846 L-38.79015867741988,21.011922365352092 L-38.83628614985192,20.95915334714407 L-38.88000973841333,20.906048959126235 L-38.92131462248522,20.85262720164853 L-38.96018680129674,20.798906182636976 L-38.99661309867079,20.744904111455767 L-39.03058116749022,20.690639292735003 L-39.062079493883026,20.63613012016612 L-39.09109740112515,20.581395070267117 L-39.117625053259424,20.526452696119765 L-39.14165345842964,20.471321621080783 L-39.16317447192839,20.416020532469258 L-39.182180798957866,20.360568175232352 L-39.19866599710245,20.30498334559149 L-39.212624478512524,20.249284884671162 L-39.22405151179844,20.193491672112497 L-39.232943223634386,20.137622619673788 L-39.239296600071214,20.081696664820146 L-39.24310948755809,20.02573276430442 L-39.244380593672446,19.969749887741585 " />
			<path d="M-39.244380593672446,19.96974988774157 L-39.24212173389398,19.89512311833277 L-39.23534651521124,19.820541301299386 L-39.224059018762624,19.746049361939207 L-39.20826604371392,19.671692171411067 L-39.18797710316277,19.59751451970615 L-39.163204418408306,19.52356108866816 L-39.13396291158951,19.449876425078656 L-39.10027019669668,19.376504913823744 L-39.06214656896141,19.30349075115826 L-39.019614992631524,19.23087791808362 L-38.97270108713825,19.1587101538553 L-38.921433111664015,19.087030929635944 L-38.86584194812022,19.01588342230996 L-38.8059610825451,18.945310488475393 L-38.74182658493299,18.875354638628682 L-38.673477087507095,18.806058011557965 L-38.60095376144893,18.737462348960218 L-38.52430029209827,18.669608970297634 L-38.44356285263881,18.60253874790832 L-38.35879007628511,18.53629208238632 L-38.27003302698778,18.470908878245833 L-38.177345168674485,18.406428519884187 L-38.08078233304525,18.34288984785819 L-37.980402685941534,18.280331135487998 L-37.87626669230933,18.218790065802732 L-37.768437079777286,18.158303708841594 L-37.656978800872,18.098908499324292 L-37.541958993892976,18.04064021470411 L-37.42344694247108,17.983533953616902 L-37.301514033834636,17.927624114739018 L-37.17623371580845,17.87294437606679 L-37.04768145257155,17.819527674630184 L-36.91593467920045,17.76740618665277 L-36.781072755025086,17.71661130816996 L-36.64317691582577,17.6671736361172 L-36.50233022489979,17.619122949899552 L-36.35861752302715,17.572488193453655 L-36.212125377365695,17.52729745781301 L-36.062942029306285,17.483577964186974 L-35.911157341319466,17.441356047563733 L-35.756862742825675,17.400657140847077 L-35.60015117512161,17.361505759536588 L-35.44111703539583,17.3239254869604 L-35.27985611986743,17.287938960069493 L-35.116465566082,17.253567855802046 L-34.95104379439957,17.220832878026055 L-34.61450633641062,17.160349177835712 L-34.271054494114104,17.106633570029977 L-33.92151567308092,17.059815460212977 L-33.56673194294693,17.020007637312048 L-33.20755800879341,16.98730600185931 L-32.84485915208766,16.96178933495889 L-32.47950914614415,16.943519108496357 L-32.11238815112808,16.932539337047533 L-31.744380593672446,16.928876471843555 L-31.376373036216812,16.932539337047533 L-31.009252041200746,16.943519108496357 L-30.643902035257238,16.96178933495889 L-30.281203178551483,16.98730600185931 L-29.92202924439796,17.020007637312048 L-29.567245514263973,17.059815460212977 L-29.21770669323079,17.106633570029977 L-28.87425485093427,17.160349177835712 L-28.53771739294533,17.220832878026055 L-28.372295621262897,17.253567855802046 L-28.208905067477463,17.287938960069493 L-28.047644151949065,17.3239254869604 L-27.888610012223285,17.361505759536588 L-27.731898444519217,17.400657140847077 L-27.577603846025433,17.44135604756373 L-27.42581915803861,17.483577964186974 L-27.2766358099792,17.52729745781301 L-27.13014366431775,17.572488193453655 L-26.98643096244511,17.619122949899552 L-26.845584271519126,17.6671736361172 L-26.707688432319813,17.716611308169956 L-26.572826508144445,17.76740618665277 L-26.44107973477334,17.819527674630184 L-26.312527471536445,17.872944376066787 L-26.18724715351025,17.927624114739018 L-26.06531424487381,17.983533953616902 L-25.946802193451916,18.04064021470411 L-25.8317823864729,18.098908499324292 L-25.720324107567606,18.158303708841594 L-25.61249449503557,18.21879006580273 L-25.508358501403357,18.280331135487998 L-25.407978854299643,18.342889847858185 L-25.311416018670407,18.406428519884184 L-25.21872816035711,18.47090887824583 L-25.129971111059785,18.53629208238632 L-25.045198334706082,18.60253874790832 L-24.964460895246624,18.669608970297634 L-24.887807425895968,18.737462348960214 L-24.815284099837797,18.806058011557962 L-24.746934602411905,18.87535463862868 L-24.682800104799792,18.945310488475386 L-24.62291923922467,19.015883422309958 L-24.567328075680884,19.087030929635937 L-24.516060100206648,19.158710153855296 L-24.469146194713367,19.230877918083614 L-24.426614618383482,19.303490751158257 L-24.38849099064822,19.37650491382374 L-24.354798275755385,19.449876425078656 L-24.325556768936586,19.52356108866816 L-24.30078408418212,19.59751451970615 L-24.28049514363097,19.671692171411067 L-24.264702168582268,19.746049361939203 L-24.25341467213365,19.820541301299382 L-24.246639453450914,19.89512311833277 L-24.244380593672446,19.969749887741543 " />
			<path d="M-24.244380593672446,19.96974988774157 L-24.246636950043282,20.04433529891862 L-24.253404661517365,20.118875832424287 L-24.26467965599633,20.193326637589866 L-24.280455149372003,20.26764291773574 L-24.30072164960839,20.34177995712533 L-24.325466962452982,20.415693147870336 L-24.35467619877397,20.489338016771068 L-24.388331783518957,20.562670252075762 L-24.426413466289805,20.635645730142734 L-24.468898333527164,20.708220541989352 L-24.51576082229748,20.78035101971187 L-24.566972735674057,20.851993762760166 L-24.622503259703027,20.923105664051654 L-24.682318981943947,20.993643935908597 L-24.746383911573893,21.063566135803235 L-24.814659501042968,21.132830191895252 L-24.88710466926817,21.20139442834618 L-24.96367582635166,21.269217590395563 L-25.04432689980862,21.336258869183727 L-25.129009362288798,21.40247792630627 L-25.217672260775213,21.46783491808548 L-25.310262247242296,21.532290519544084 L-25.406723610755158,21.59580594806689 L-25.506998310990575,21.65834298673608 L-25.611026013159552,21.719864007326162 L-25.718744124310486,21.780331992944667 L-25.830087830991015,21.83971056030504 L-25.94499013824596,21.89796398161828 L-26.063381909927855,21.95505720609017 L-26.18519191029582,22.010955881011174 L-26.31034684687776,22.065626372426287 L-26.438771414570073,22.11903578537241 " />
			<path d="M-89.93843139245395,7.062801161440076 L-89.93843139245395,-6.648958589734788 " />
			<path d="M90.06156860754602,7.062801161440072 L90.06156860754602,-6.648958589734791 " />

        </g>
        </g>
    </svg>
    