<?xml version="1.0" encoding="UTF-8" standalone="no"?>
    <svg
    xmlns:svg="http://www.w3.org/2000/svg"
    xmlns="http://www.w3.org/2000/svg"
    width="223"
    height="426"
    >
        <g transform="scale(4, -4)   translate(27.924938727432178,-54.39596038615757)" stroke-width="0.25"  fill="none">
        <!-- hidden lines -->
        <g  stroke="rgb(160,160,160)" fill="none" stroke-dasharray="0.25,0.25" >
    			<path d="M11.157706923549366,-40.81840455838222 L11.157706923549366,49.033618876268086 " />
			<path d="M-25.424938727432178,-48.01905865528427 L-25.386588477746102,-47.944125733277104 L-25.343732301640266,-47.869248805218575 L-25.296373754272018,-47.794434082564884 L-25.244516764295348,-47.719687771611966 L-25.18816563353502,-47.64501607298061 L-25.127325036629678,-47.57042518110211 L-25.062000020644042,-47.49592128370439 L-24.992196004650282,-47.42151056129869 L-24.91791877927843,-47.347199186666884 L-24.83917450623604,-47.272993324349386 L-24.755969717797022,-47.19889913013379 L-24.668311316259754,-47.12492275054418 L-24.57620657337452,-47.051070322331285 L-24.479663129740253,-46.977347971963376 L-24.378688994170737,-46.90376181511804 L-24.27329254303018,-46.83031795617486 L-24.163482519538405,-46.757022487709015 L-24.049268033045507,-46.683881489985886 L-23.9306585582762,-46.610901030456624 L-23.807663934543854,-46.53808716325487 L-23.68029436493424,-46.4654459286945 L-23.548560415459136,-46.39298335276855 L-23.412473014179824,-46.32070544664935 L-23.272043450300536,-46.248618206189825 L-23.127283373231982,-46.17672761142613 L-22.97820479162491,-46.10503962608158 L-22.667141939591843,-45.96229525401195 L-22.338958109611646,-45.82043245474607 L-21.99376219809688,-45.679498300529765 L-21.63166874632885,-45.539539555470206 L-21.252797902451086,-45.400602660018905 L-20.857275381602335,-45.26273371556206 L-20.44523242420236,-45.12597846912337 L-20.016805752404366,-44.99038229818454 L-19.572137524728483,-44.85599019562829 L-19.111375288891402,-44.72284675480901 L-18.634671932847823,-44.5909961547561 L-18.14218563405982,-44.460482145514554 L-17.63407980701122,-44.33134803362815 L-17.110523048984106,-44.203636667769615 L-16.57168908411574,-44.07739042452277 L-16.017756705754152,-43.95265119432137 L-15.448909717131848,-43.8294603675492 L-14.865336870377035,-43.707858820806116 L-14.267231803882801,-43.58788690334455 L-13.654792978054957,-43.46958442368101 L-13.028223609459793,-43.35299063638707 L-12.387731603393746,-43.23814422906399 L-11.733529484897232,-43.125083309505676 L-11.065834328235596,-43.01384539305388 L-10.384867684870557,-42.904467390150046 L-9.690855509946019,-42.796985594087886 L-8.98402808731273,-42.69143566897066 L-8.264619953116565,-42.587852637877354 L-7.532869817975836,-42.486270871241395 L-6.789020487773492,-42.3867240754461 L-6.0333187830903725,-42.289245281640326 L-5.266015457306409,-42.19386683477827 L-4.487365113396791,-42.10062038288689 L-3.6976261194507885,-42.00953686656461 L-2.8970605229413344,-41.92064650871477 L-2.0859339637735914,-41.833978804517194 L-1.2645155861416129,-41.749562511641244 L-0.4330779492221879,-41.66742564070357 L0.408103063264484,-41.5875954459738 L1.2587483345972181,-41.51009841633109 L2.1185756076690403,-41.434960266474775 L2.9872995786444108,-41.36220592839181 L3.8646319916273946,-41.29185954308394 L4.7502817343093895,-41.22394445255737 L5.6439549345646185,-41.158483192077526 L6.545355057961416,-41.09549748269151 L7.454183006156882,-41.03500822402072 L8.370137216142265,-40.97703548732603 L9.29291376030621,-40.92159850884784 L10.22220644728256,-40.86871568342323 L11.157706923549249,-40.81840455838223 " />
			<path d="M-9.000000000000007,47.158244802586644 L-8.021423583487156,47.29834468535112 L-7.020282113386635,47.43474067888569 L-5.997186941970291,47.56734949226393 L-4.952762827652421,47.69609014722079 L-3.887647553477791,47.820884027602375 L-2.802491537656106,47.941654927373314 L-1.6979574363807082,48.05832909715237 L-0.5747197391741068,48.17083528924789 L0.5665356429925659,48.279104801165595 L1.7251117965546499,48.38307151756208 L2.900301230927937,48.48267195061853 L4.091386310541431,48.57784527880988 L5.297639693065278,48.66853338404577 L6.518324773566164,48.75468088716072 L7.75269613431897,48.83623518173162 L8.99999999999988,48.9131464662022 " />
			<path d="M25.42493872743217,-42.480093965359615 L11.15770692354937,-40.81840455838222 " />
			<path d="M8.999999999999996,44.60244712432836 L8.997289368265834,44.63588912838115 L8.989159105846548,44.66931098822118 L8.975614110108209,44.7026925717698 L8.956662540049768,44.7360137712093 L8.932315811388387,44.7692545150951 L8.902588589683026,44.802394780446036 L8.867498781500467,44.83541460480544 L8.82706752362907,44.86829409826583 L8.781319170346753,44.90101345544977 L8.730281278750892,44.933552967439965 L8.673984592158956,44.96589303365111 L8.612463021589877,44.9980141736366 L8.545753625337326,45.02989703882279 L8.473896586647184,45.06152242416387 L8.396935189512647,45.09287127971026 L8.314915792601576,45.123924722083586 L8.135903638110987,45.185070734794266 L7.937291379135191,45.244813156195534 L7.719557490002445,45.30300806156142 L7.483226510722903,45.35951525426761 L7.228867783325801,45.41419860353745 L6.957094080264628,45.46692637239284 L6.668560128194628,45.5175715350202 L6.363961030678924,45.56601208278678 L6.0440305936231615,45.6121313181701 L5.709539557472806,45.655818135892574 L5.361293740431895,45.69696729058378 L5.000132097176415,45.735479650325836 L4.626924697738991,45.77126243547083 L4.242570631433972,45.80422944215516 L3.8479958408725343,45.83430124997214 L3.444150891285803,45.86140541330277 L3.032008680529975,45.88547663584354 L2.6125620952901576,45.90645692791095 L2.1868216191293706,45.92429574614377 L1.7558128981451495,45.938950115266366 L1.3205742700982501,45.950384731619955 L0.8821542629660394,45.95857204821219 L0.44160906894675755,45.963492341080276 L-5.000024063509474e-15,45.96513375680772 L-0.4416090689467676,45.963492341080276 L-0.8821542629660494,45.95857204821219 L-1.3205742700982603,45.950384731619955 L-1.7558128981451593,45.938950115266366 L-2.1868216191293803,45.92429574614377 L-2.612562095290167,45.90645692791095 L-3.0320086805299864,45.88547663584354 L-3.4441508912858145,45.86140541330277 L-3.8479958408725436,45.83430124997214 L-4.242570631433987,45.80422944215516 L-4.626924697739004,45.77126243547083 L-5.0001320971764285,45.735479650325836 L-5.361293740431907,45.69696729058378 L-5.709539557472815,45.655818135892574 L-6.0440305936231695,45.6121313181701 L-6.363961030678934,45.56601208278678 L-6.668560128194639,45.5175715350202 L-6.957094080264638,45.46692637239284 L-7.228867783325809,45.41419860353745 L-7.483226510722911,45.35951525426761 L-7.719557490002452,45.30300806156142 L-7.9372913791352,45.244813156195534 L-8.135903638110996,45.185070734794266 L-8.314915792601585,45.123924722083586 L-8.396935189512654,45.09287127971026 L-8.473896586647191,45.06152242416387 L-8.545753625337333,45.02989703882279 L-8.612463021589885,44.9980141736366 L-8.673984592158964,44.96589303365111 L-8.730281278750901,44.933552967439965 L-8.781319170346762,44.90101345544977 L-8.82706752362908,44.86829409826583 L-8.867498781500476,44.83541460480544 L-8.902588589683033,44.80239478044603 L-8.932315811388394,44.7692545150951 L-8.956662540049775,44.7360137712093 L-8.975614110108216,44.7026925717698 L-8.989159105846555,44.66931098822118 L-8.997289368265841,44.63588912838115 L-9.000000000000004,44.602447124328364 " />
			<path d="M-5.487396847647236,42.63272501539058 L-5.460471467504671,42.639096396705334 L-5.433610952961254,42.6475956109288 L-5.380343045843458,42.67089055988695 L-5.328106125358593,42.70238551917222 L-5.277403261606534,42.74177717510981 L-5.228722750882219,42.78868616451937 L-5.182533413115396,42.84266072818983 L-5.13928007687842,42.90318106156753 L-5.099379295443932,42.96966432075827 L-5.063215335149132,43.0414702356326 L-5.031136474700891,43.117907275977174 L-5.003451651061414,43.19823931130874 L-4.980427484216413,43.28169270021309 L-4.962285709478896,43.36746374093482 L-4.949201042056887,43.45472641146455 L-4.941299494450468,43.54264032458246 L-4.938657162882513,43.63035882124658 " />
			<path d="M24.49001358379529,46.419274275611 L10.995152697656808,47.991006458235745 " />
			<path d="M24.490013583795296,46.419274275611 L24.448595368574075,46.346771648711375 L24.40288493886151,46.27432817018405 L24.35288597021549,46.20194966518102 L24.298602483033676,46.12964195362976 L24.24003884223019,46.05741084976527 L24.177199756884647,45.98526216166257 L24.110090279863506,45.91320169076966 L24.038715807413745,45.84123523144101 L23.96308207872898,45.76936857047168 L23.883195175487963,45.69760748663195 L23.79906152136556,45.62595775020273 L23.710687881516243,45.55442512251149 L23.618081362030054,45.48301535546905 L23.521249409361268,45.41173419110704 L23.42019980972961,45.340587361116214 L23.314940688494133,45.26958058638554 L23.205480509499914,45.1987195765422 L23.091828074397426,45.128010029492486 L22.973992521934846,45.057457630963604 L22.851983327223202,44.98706805404654 L22.725810300974437,44.916846958739825 L22.595483588712618,44.84679999149447 L22.461013669958064,44.776932784759914 L22.322411357384716,44.70725095653111 L22.032854462002206,44.56846583258903 L21.72690603332297,44.43048925740256 L21.404664474146195,44.29336560865092 L21.06623342766293,44.157138989684896 L20.711721744121085,44.02185321534182 L20.341243445815735,43.887551797853284 L19.954917690415883,43.75427793285026 L19.55286873263953,43.62207448546995 L19.13522588428946,43.49098397656904 L18.7021234726623,43.3610485690476 L18.253700797344713,43.232310054288135 L17.790102085410076,43.1048098387142 L17.3114764450305,42.97858893047271 L16.817977817518845,42.85368792624441 L16.309764927816317,42.73014699818673 L15.787001233441408,42.6080058810131 L15.249854871916732,42.48730385921299 L14.698498606690627,42.36807975441678 L14.133109771570908,42.250371912909486 L13.553870213688683,42.13421819329736 L12.96096623501041,42.01965595433132 L12.354588532417281,41.906722042891246 L11.734932136371036,41.7954527821348 L11.102196348185892,41.68588395981474 L10.456584675926841,41.578050816768446 L9.798304768954978,41.47198803558333 L9.127568351140859,41.36772972944182 L8.444591152767245,41.26530943114945 L7.749592841143446,41.16476008234966 L7.0427969499532495,41.066114022928694 L6.324430807359278,40.96940298061406 L5.594725462887062,40.87465806076989 L4.8539156131121075,40.78190973639242 L4.102239526173889,40.69118783830898 L3.3399389651413998,40.60252154558336 L2.56725911025417,40.515939376130945 L1.784448480064615,40.431469177546404 L0.9917588515064679,40.349138118147046 L0.18944517891523915,40.26897267823461 L-0.6222344879730848,40.19099864157834 L-1.4430190870193371,40.115241087122115 L-2.2726446276470007,40.04172438091824 L-3.1108442757498693,39.970472168290584 L-3.957348439514675,39.90150736622944 L-4.8118848561303125,39.83485215602071 L-5.67417867935626,39.770527976111694 L-6.543952567921988,39.708555515215814 L-7.420926774728606,39.64895470565843 L-8.304819236824734,39.59174471696599 L-9.19534566612684,39.536943949700486 L-10.092219640855237,39.48457002954127 L-10.995152697656327,39.434639801616036 " />
			<path d="M-24.490013583795296,41.00637198424075 L-10.995152697656804,39.43463980161601 " />
			<path d="M-24.490013583795296,41.006371984240765 L-24.448595368574082,41.07887461114039 L-24.40288493886151,41.15131808966772 L-24.35288597021549,41.22369659467075 L-24.298602483033676,41.29600430622201 L-24.24003884223019,41.3682354100865 L-24.177199756884654,41.44038409818919 L-24.110090279863506,41.512444569082106 L-24.038715807413745,41.584411028410756 L-23.96308207872898,41.65627768938009 L-23.883195175487963,41.728038773219815 L-23.79906152136556,41.79968850964904 L-23.710687881516236,41.87122113734028 L-23.618081362030054,41.94263090438272 L-23.521249409361275,42.01391206874472 L-23.42019980972961,42.085058898735554 L-23.314940688494133,42.15606567346622 L-23.205480509499907,42.226926683309564 L-23.09182807439742,42.29763623035928 L-22.973992521934846,42.368188628888156 L-22.851983327223195,42.43857820580523 L-22.725810300974437,42.50879930111194 L-22.595483588712618,42.578846268357296 L-22.461013669958056,42.64871347509185 L-22.32241135738471,42.71839530332065 L-22.032854462002206,42.85718042726274 L-21.726906033322955,42.995157002449204 L-21.40466447414618,43.132280651200844 L-21.066233427662915,43.268507270166864 L-20.71172174412107,43.403793044509946 L-20.34124344581572,43.53809446199848 L-19.95491769041586,43.67136832700151 L-19.552868732639517,43.803571774381815 L-19.135225884289433,43.934662283282734 L-18.70212347266228,44.06459769080418 L-18.253700797344692,44.19333620556363 L-17.790102085410055,44.320836421137564 L-17.311476445030472,44.44705732937906 L-16.81797781751883,44.571958333607355 L-16.309764927816303,44.695499261665034 L-15.787001233441387,44.81764037883867 L-15.249854871916703,44.938342400638774 L-14.698498606690599,45.057566505434984 L-14.133109771570894,45.175274346942274 L-13.553870213688661,45.29142806655441 L-12.960966235010382,45.40599030552045 L-12.354588532417267,45.518924216960514 L-11.734932136371022,45.630193477716965 L-11.10219634818587,45.73976230003702 L-10.456584675926813,45.84759544308332 L-9.79830476895495,45.95365822426844 L-9.127568351140816,46.05791653040995 L-8.44459115276721,46.16033682870231 L-7.749592841143425,46.2608861775021 L-7.042796949953214,46.35953223692307 L-6.324430807359235,46.456243279237704 L-5.59472546288702,46.550988199081885 L-4.853915613112051,46.643736523459346 L-4.102239526173854,46.73445842154278 L-3.3399389651413642,46.8231247142684 L-2.567259110254124,46.90970688372082 L-1.7844484800645581,46.99417708230536 L-0.991758851506404,47.07650814170472 L-0.18944517891521073,47.156673581617156 L0.6222344879731203,47.23464761827343 L1.4430190870193904,47.31040517272965 L2.272644627647022,47.38392187893352 L3.1108442757498977,47.455174091561176 L3.9573484395147176,47.52413889362233 L4.811884856130366,47.59079410383106 L5.67417867935632,47.655118283740066 L6.54395256792202,47.71709074463595 L7.420926774728649,47.776691554193334 L8.304819236824791,47.83390154288577 L9.195345666126858,47.888702310151274 L10.092219640855262,47.94107623031049 L10.995152697656692,47.991006458235745 " />
			<path d="M10.995152697656799,47.991006458235745 L10.995152697656799,-40.0817689876096 " />
			<path d="M24.490013583795296,46.419274275611 L24.490013583795296,-41.65350117023434 " />
			<path d="M24.49001358379529,-41.65350117023434 L10.995152697656808,-40.0817689876096 " />
			<path d="M-24.490013583795296,-47.06640346160458 L-24.448595368574082,-46.99390083470495 L-24.40288493886151,-46.921457356177626 L-24.35288597021549,-46.849078851174596 L-24.298602483033676,-46.776771139623335 L-24.24003884223019,-46.704540035758846 L-24.177199756884654,-46.63239134765615 L-24.110090279863506,-46.56033087676324 L-24.038715807413745,-46.48836441743459 L-23.96308207872898,-46.416497756465255 L-23.883195175487963,-46.34473667262553 L-23.79906152136556,-46.27308693619631 L-23.710687881516236,-46.20155430850507 L-23.618081362030054,-46.13014454146263 L-23.521249409361275,-46.05886337710062 L-23.42019980972961,-45.98771654710979 L-23.314940688494133,-45.91670977237912 L-23.205480509499907,-45.84584876253578 L-23.09182807439742,-45.775139215486064 L-22.973992521934846,-45.70458681695719 L-22.851983327223195,-45.634197240040116 L-22.725810300974437,-45.5639761447334 L-22.595483588712618,-45.49392917748805 L-22.461013669958056,-45.42406197075349 L-22.32241135738471,-45.35438014252469 L-22.032854462002206,-45.215595018582604 L-21.726906033322955,-45.07761844339614 L-21.40466447414618,-44.9404947946445 L-21.066233427662915,-44.80426817567848 L-20.71172174412107,-44.6689824013354 L-20.34124344581572,-44.53468098384686 L-19.95491769041586,-44.401407118843835 L-19.552868732639517,-44.26920367146353 L-19.135225884289433,-44.13811316256262 L-18.70212347266228,-44.00817775504117 L-18.253700797344692,-43.87943924028171 L-17.790102085410055,-43.75193902470778 L-17.311476445030472,-43.62571811646629 L-16.81797781751883,-43.50081711223799 L-16.309764927816303,-43.37727618418031 L-15.787001233441387,-43.25513506700668 L-15.249854871916703,-43.13443304520656 L-14.698498606690599,-43.01520894041036 L-14.133109771570894,-42.89750109890307 L-13.553870213688661,-42.781347379290935 L-12.960966235010382,-42.6667851403249 L-12.354588532417267,-42.55385122888483 L-11.734932136371022,-42.44258196812838 L-11.10219634818587,-42.33301314580832 L-10.456584675926813,-42.22518000276202 L-9.79830476895495,-42.11911722157691 L-9.127568351140816,-42.0148589154354 L-8.44459115276721,-41.91243861714303 L-7.749592841143425,-41.811889268343236 L-7.042796949953214,-41.71324320892227 L-6.324430807359235,-41.61653216660764 L-5.59472546288702,-41.521787246763466 L-4.853915613112051,-41.429038922386 L-4.102239526173854,-41.33831702430256 L-3.3399389651413642,-41.24965073157694 L-2.567259110254124,-41.16306856212452 L-1.7844484800645581,-41.07859836353998 L-0.991758851506404,-40.99626730414062 L-0.18944517891521073,-40.91610186422819 L0.6222344879731203,-40.83812782757192 L1.4430190870193904,-40.76237027311569 L2.272644627647022,-40.688853566911824 L3.1108442757498977,-40.61760135428417 L3.9573484395147176,-40.548636552223016 L4.811884856130366,-40.481981342014286 L5.67417867935632,-40.41765716210528 L6.54395256792202,-40.3556847012094 L7.420926774728649,-40.29608389165201 L8.304819236824791,-40.238873902959575 L9.195345666126858,-40.18407313569407 L10.092219640855262,-40.13169921553485 L10.995152697656692,-40.0817689876096 " />
			<path d="M-24.4900135837953,41.006371984240765 L-24.4900135837953,-47.06640346160458 " />
			<path d="M24.490013583795296,-41.65350117023434 L24.448595368574075,-41.72600379713397 L24.40288493886151,-41.798447275661296 L24.35288597021549,-41.870825780664326 L24.298602483033676,-41.94313349221559 L24.24003884223019,-42.015364596080076 L24.177199756884647,-42.087513284182776 L24.110090279863506,-42.159573755075684 L24.038715807413745,-42.23154021440433 L23.96308207872898,-42.30340687537367 L23.883195175487963,-42.37516795921339 L23.79906152136556,-42.446817695642615 L23.710687881516243,-42.518350323333856 L23.618081362030054,-42.589760090376295 L23.521249409361268,-42.66104125473831 L23.42019980972961,-42.73218808472913 L23.314940688494133,-42.80319485945981 L23.205480509499914,-42.87405586930314 L23.091828074397426,-42.94476541635286 L22.973992521934846,-43.01531781488174 L22.851983327223202,-43.085707391798806 L22.725810300974437,-43.15592848710552 L22.595483588712618,-43.22597545435087 L22.461013669958064,-43.29584266108543 L22.322411357384716,-43.36552448931423 L22.032854462002206,-43.50430961325632 L21.72690603332297,-43.64228618844278 L21.404664474146195,-43.77940983719442 L21.06623342766293,-43.91563645616045 L20.711721744121085,-44.050922230503524 L20.341243445815735,-44.18522364799206 L19.954917690415883,-44.31849751299509 L19.55286873263953,-44.45070096037539 L19.13522588428946,-44.581791469276304 L18.7021234726623,-44.711726876797755 L18.253700797344713,-44.84046539155721 L17.790102085410076,-44.96796560713114 L17.3114764450305,-45.094186515372634 L16.817977817518845,-45.21908751960093 L16.309764927816317,-45.34262844765861 L15.787001233441408,-45.464769564832245 L15.249854871916732,-45.58547158663235 L14.698498606690627,-45.70469569142856 L14.133109771570908,-45.82240353293586 L13.553870213688683,-45.93855725254799 L12.96096623501041,-46.053119491514025 L12.354588532417281,-46.1660534029541 L11.734932136371036,-46.27732266371054 L11.102196348185892,-46.386891486030606 L10.456584675926841,-46.4947246290769 L9.798304768954978,-46.600787410262015 L9.127568351140859,-46.705045716403525 L8.444591152767245,-46.80746601469589 L7.749592841143446,-46.908015363495686 L7.0427969499532495,-47.00666142291665 L6.324430807359278,-47.10337246523128 L5.594725462887062,-47.19811738507546 L4.8539156131121075,-47.29086570945292 L4.102239526173889,-47.38158760753637 L3.3399389651413998,-47.47025390026198 L2.56725911025417,-47.55683606971441 L1.784448480064615,-47.64130626829894 L0.9917588515064679,-47.7236373276983 L0.18944517891523915,-47.80380276761073 L-0.6222344879730848,-47.881776804267005 L-1.4430190870193371,-47.95753435872323 L-2.2726446276470007,-48.031051064927105 L-3.1108442757498693,-48.10230327755476 L-3.957348439514675,-48.171268079615906 L-4.8118848561303125,-48.237923289824636 L-5.67417867935626,-48.30224746973365 L-6.543952567921988,-48.36421993062953 L-7.420926774728606,-48.42382074018691 L-8.304819236824734,-48.481030728879354 L-9.19534566612684,-48.53583149614485 L-10.092219640855237,-48.58820541630408 L-10.995152697656327,-48.63813564422931 " />
			<path d="M-10.995152697656803,39.434639801616015 L-10.995152697656803,-48.63813564422933 " />
			<path d="M-10.995152697656804,-48.63813564422933 L-24.490013583795296,-47.06640346160459 " />
			<path d="M-8.100000000000001,50.53327375367821 L-8.100000000000001,44.60244712432836 " />
			<path d="M8.099999999999994,50.53327375367821 L8.099999999999994,44.60244712432836 " />
			<path d="M8.099999999999994,44.60244712432836 L8.103154380680882,44.536393383915566 L8.112403612066577,44.47203059183116 L8.127117798383495,44.41097430106036 L8.146280180984125,44.35469047026876 L8.168547363701505,44.30439766338208 L8.192356873575253,44.261020707008996 L8.215957894151867,44.22516109438887 L8.237724810904442,44.196953520102625 L8.270276508444592,44.16224633579969 L8.279031005783958,44.15450271800761 L8.28202304039678,44.15210547774422 " />
			<path d="M8.28202304039678,44.15210547774422 L8.280791059268756,44.152993938168514 L8.27707788339814,44.15552608178271 L8.262286647659073,44.16478515693915 L8.204345192645434,44.195814244694326 L8.131438274050556,44.22919794714655 L8.03750779301803,44.26684099527764 L7.924166420591854,44.30728567836849 L7.79283230588762,44.34935156417441 L7.6447290760925135,44.39213549892516 L7.480885836465315,44.43501160732488 L7.302137170336394,44.47763129255216 L7.109123139107719,44.519923236260006 L6.895326499692209,44.56279444591687 L6.667886973128757,44.60457861077305 L6.427414284650663,44.64513941569308 L6.17451907644772,44.684349417077485 L5.909812907666216,44.722090042862774 L5.63390825440892,44.75825159252146 L5.347418509735098,44.79273323706206 L5.050957983660506,44.82544301902906 L4.745141903157387,44.85629785250297 L4.430586412154476,44.88522352310028 L4.107908571536999,44.91215468797347 L3.777726359146669,44.93703487581103 L3.4406586697816937,44.95981648683743 L3.0973253151967706,44.980460792813155 L2.748347024103082,44.998937937034654 L2.394345442168305,45.0152269343344 L1.907219745343847,45.03368801177015 L1.4136650497656613,45.04794792978943 L0.9153834176484517,45.05795383853592 L0.4140668517159838,45.06366852966451 L-0.08860270479894616,45.06507043634125 L-0.5909533681544965,45.06215363324342 L-1.0913233140997622,45.05492783655947 L-1.5880607778748095,45.04341840398905 L-2.0795240542106583,45.02766633474301 L-2.5640814973292656,45.007728269543385 L-3.040111520943559,44.9836764906234 L-3.50600259825742,44.95559892172749 L-3.960153261965668,44.92359912811128 L-4.400972104254092,44.88779631654156 L-4.826877776799436,44.84832533529635 L-5.236298990769377,44.805336674164856 L-5.7006451740041655,44.74981944258373 L-5.922401573163356,44.72038063631325 L-6.13681477595766,44.6899170197404 L-6.343580961359314,44.65848875474276 L-6.542387948632116,44.6261543295426 L-6.732911410896548,44.592976714417745 L-6.914811088694881,44.55902951741251 L-7.087727003556271,44.524403140048655 L-7.2512756715618885,44.489210933036254 L-7.405046316910017,44.45359535198468 L-7.5485970854811555,44.41773411311347 L-7.681451258403142,44.381846348963265 L-7.803093465616252,44.346198764106774 L-7.91296589943831,44.311111790859634 L-8.010464528129802,44.276965744991365 L-8.125111735867058,44.23185728652617 L-8.210647578836667,44.19269991535495 L-8.263893710804028,44.16380234104091 L-8.277510948214948,44.155267192888324 L-8.280924308421074,44.152938580943776 L-8.282023040396785,44.152105477744236 " />
			<path d="M-8.282023040396785,44.152105477744236 L-8.270877684941318,44.16168254352972 L-8.239896300762226,44.19437368933429 L-8.217859039356094,44.22252458792617 L-8.193770207737495,44.25868462201622 L-8.169387138647325,44.30272191557542 L-8.146525617783752,44.35406540076027 L-8.12726834622532,44.41045767225355 L-8.112474612975861,44.4716622805134 L-8.103172758920032,44.5362018371289 L-8.100000000000005,44.60244712432836 " />

        </g>

        <!-- solid lines -->
        <g  stroke="rgb(0,0,0)" fill="none">
    			<path d="M-25.424938727432174,-48.01905865528427 L-25.424938727432174,41.83296477936604 " />
			<path d="M-25.424938727432174,-48.01905865528427 L-11.157706923549373,-49.680748062261664 " />
			<path d="M-11.157706923549373,-49.680748062261664 L-11.157706923549373,40.17127537238864 " />
			<path d="M-11.157706923549373,40.17127537238864 L-25.424938727432174,41.83296477936604 " />
			<path d="M-25.424938727432178,41.83296477936604 L-25.376325942476647,41.926570000145475 L-25.32068188680205,42.02008541113574 L-25.258013764777765,42.11349890467222 L-25.188329690195893,42.20679838628582 L-25.111638685220733,42.29997177626882 L-25.027950679220687,42.39300701123891 L-24.937276507482665,42.485892045701014 L-24.839627909809188,42.5786148536069 L-24.73501752899847,42.67116342991219 L-24.62345890920747,42.76352579213068 L-24.50496649419832,42.85568998188575 L-24.379555625468257,42.94764406645867 L-24.2472425402633,43.0393761403335 L-24.108044369476033,43.130874326738585 L-23.96197913542754,43.22212677918421 L-23.809065749534092,43.31312168299645 L-23.649324009858596,43.403847256846824 L-23.4827745985473,43.494291754277626 L-23.30943907915205,43.5844434652228 L-23.129339893838356,43.67429071752405 L-22.942500360479812,43.76382187844209 L-22.748944669639023,43.853025356162725 L-22.548697881435608,43.941889601297696 L-22.341785922301646,44.03040310838001 L-22.128235581624843,44.11855441735355 L-21.90807450828013,44.206332115056874 L-21.681331207049816,44.29372483670088 L-21.448035034933092,44.380721267340256 L-21.208216197345017,44.46731014333841 L-20.961905744205822,44.553480253825846 L-20.709135565920768,44.63922044215163 L-20.449938389251237,44.724519607327906 L-20.184347773077498,44.80936670546712 L-19.91239810405377,44.89375075121192 L-19.63412459215612,44.97766081915747 L-19.349563266123695,45.06108604526599 L-19.058750968794044,45.144015628273294 L-18.761725352332952,45.22643883108734 L-18.458524873359536,45.30834498217833 L-18.149188787967198,45.389723476960384 L-17.833757146641,45.47056377916455 L-17.51227078907226,45.55085542220298 L-16.851301198176515,45.70975122095819 L-16.166622313474427,45.86632858540858 L-15.4585887115596,46.020506428390874 L-14.72756706379922,46.17220490538876 L-13.973935946444882,46.32134545588221 L-13.198085644578256,46.46785084403185 L-12.400417949993027,46.611645198677294 L-11.58134595311786,46.752654052628756 L-10.7412938290881,46.890804381231575 L-9.88069661807694,47.02602464018373 L-9.00000000000005,47.15824480258664 " />
			<path d="M8.999999999999993,48.91314646620221 L10.07465612075535,48.97510607121903 L11.157706923549249,49.03361887626808 " />
			<path d="M-11.15770692354937,-49.680748062261664 L-10.222206447282577,-49.63043693722065 L-9.292913760306227,-49.57755411179604 L-8.370137216142282,-49.522117133317856 L-7.454183006156899,-49.46414439662316 L-6.545355057961437,-49.40365513795237 L-5.643954934564636,-49.34066942856636 L-4.750281734309407,-49.275208168086515 L-3.8646319916274123,-49.207293077559946 L-2.9872995786444285,-49.136946692252074 L-2.1185756076690616,-49.06419235416911 L-1.2587483345972394,-48.989054204312794 L-0.40810306326450174,-48.91155717467009 L0.43307794922217013,-48.83172697994031 L1.2645155861415986,-48.74959010900264 L2.0859339637735737,-48.66517381612669 L2.897060522941313,-48.578506111929116 L3.6976261194507742,-48.489615754079274 L4.48736511339677,-48.398532237756996 L5.266015457306395,-48.305285785865614 L6.033318783090351,-48.20990733900356 L6.789020487773463,-48.11242854519779 L7.532869817975815,-48.01288174940249 L8.264619953116537,-47.911299982766536 L8.984028087312709,-47.80771695167322 L9.69085550994599,-47.702167026556005 L10.384867684870535,-47.59468523049384 L11.065834328235567,-47.48530722759001 L11.733529484897204,-47.374069311138214 L12.387731603393718,-47.26100839157989 L13.028223609459765,-47.146161984256814 L13.654792978054935,-47.02956819696287 L14.26723180388278,-46.911265717299344 L14.865336870377,-46.791293799837774 L15.44890971713182,-46.66969225309469 L16.017756705754124,-46.54650142632252 L16.57168908411571,-46.42176219612112 L17.110523048984085,-46.295515952874275 L17.63407980701119,-46.16780458701574 L18.1421856340598,-46.03867047512934 L18.634671932847795,-45.90815646588779 L19.111375288891374,-45.77630586583487 L19.572137524728454,-45.6431624250156 L20.016805752404338,-45.50877032245935 L20.44523242420233,-45.373174151520516 L20.857275381602307,-45.236418905081834 L21.252797902451057,-45.098549960624986 L21.63166874632882,-44.959613065173684 L21.993762198096853,-44.819654320114125 L22.338958109611625,-44.67872016589782 L22.667141939591822,-44.53685736663195 L22.978204791624883,-44.39411299456231 L23.127283373231954,-44.32242500921777 L23.272043450300515,-44.25053441445407 L23.412473014179803,-44.178447173994535 L23.54856041545912,-44.10616926787534 L23.680294364934213,-44.03370669194939 L23.80766393454384,-43.96106545738902 L23.930658558276185,-43.88825159018727 L24.04926803304548,-43.81527113065801 L24.163482519538377,-43.742130132934875 L24.27329254303016,-43.66883466446903 L24.378688994170723,-43.595390805525845 L24.47966312974023,-43.521804648680515 L24.576206573374492,-43.44808229831261 L24.668311316259732,-43.37422987009971 L24.755969717797008,-43.3002534905101 L24.839174506236027,-43.226159296294504 L24.917918779278416,-43.15195343397701 L24.992196004650268,-43.0776420593452 L25.062000020644028,-43.0032313369395 L25.127325036629664,-42.92872743954178 L25.188165633535,-42.85413654766329 L25.244516764295334,-42.77946484903193 L25.296373754272004,-42.70471853807901 L25.34373230164026,-42.629903815425315 L25.386588477746095,-42.55502688736678 L25.424938727432135,-42.48009396535969 " />
			<path d="M25.42493872743217,-42.480093965359615 L25.42493872743217,47.37192946929069 " />
			<path d="M-11.15770692354937,40.17127537238864 L-10.222206447282577,40.221586497429655 L-9.292913760306227,40.274469322854266 L-8.370137216142282,40.32990630133245 L-7.454183006156899,40.387879038027144 L-6.545355057961437,40.448368296697936 L-5.643954934564636,40.51135400608395 L-4.750281734309407,40.57681526656379 L-3.8646319916274123,40.64473035709036 L-2.9872995786444285,40.71507674239823 L-2.1185756076690616,40.7878310804812 L-1.2587483345972394,40.86296923033751 L-0.40810306326450174,40.94046625998022 L0.43307794922217013,41.02029645470999 L1.2645155861415986,41.10243332564767 L2.0859339637735737,41.18684961852362 L2.897060522941313,41.27351732272119 L3.6976261194507742,41.36240768057103 L4.48736511339677,41.45349119689331 L5.266015457306395,41.54673764878469 L6.033318783090351,41.64211609564675 L6.789020487773463,41.73959488945252 L7.532869817975815,41.83914168524782 L8.264619953116537,41.94072345188377 L8.984028087312709,42.044306482977085 L9.69085550994599,42.1498564080943 L10.384867684870535,42.25733820415647 L11.065834328235567,42.36671620706029 L11.733529484897204,42.47795412351209 L12.387731603393718,42.59101504307041 L13.028223609459765,42.70586145039349 L13.654792978054935,42.822455237687436 L14.26723180388278,42.94075771735096 L14.865336870377,43.06072963481253 L15.44890971713182,43.18233118155562 L16.017756705754124,43.305522008327785 L16.57168908411571,43.430261238529184 L17.110523048984085,43.55650748177603 L17.63407980701119,43.68421884763457 L18.1421856340598,43.81335295952097 L18.634671932847795,43.943866968762514 L19.111375288891374,44.075717568815435 L19.572137524728454,44.2088610096347 L20.016805752404338,44.34325311219096 L20.44523242420233,44.47884928312979 L20.857275381602307,44.61560452956847 L21.252797902451057,44.75347347402532 L21.63166874632882,44.89241036947662 L21.993762198096853,45.03236911453618 L22.338958109611625,45.173303268752484 L22.667141939591822,45.31516606801836 L22.978204791624883,45.45791044008799 L23.127283373231954,45.52959842543254 L23.272043450300515,45.60148902019623 L23.412473014179803,45.67357626065577 L23.54856041545912,45.74585416677497 L23.680294364934213,45.818316742700915 L23.80766393454384,45.89095797726129 L23.930658558276185,45.96377184446304 L24.04926803304548,46.036752303992294 L24.163482519538377,46.10989330171543 L24.27329254303016,46.183188770181275 L24.378688994170723,46.25663262912446 L24.47966312974023,46.33021878596979 L24.576206573374492,46.40394113633769 L24.668311316259732,46.477793564550595 L24.755969717797008,46.551769944140204 L24.839174506236027,46.6258641383558 L24.917918779278416,46.70007000067329 L24.992196004650268,46.774381375305104 L25.062000020644028,46.848792097710806 L25.127325036629664,46.923295995108525 L25.188165633535,46.99788688698702 L25.244516764295334,47.072558585618374 L25.296373754272004,47.1473048965713 L25.34373230164026,47.22211961922499 L25.386588477746095,47.29699654728353 L25.424938727432135,47.37192946929061 " />
			<path d="M11.157706923549366,49.033618876268086 L25.424938727432167,47.37192946929069 " />
			<path d="M-5.487396847647238,43.522349009793054 L-5.235955709730295,43.49410417522458 L-4.978178290151002,43.46720059972959 L-4.444869691720462,43.417545792677934 L-3.890051800817811,43.37362487459507 L-3.316409452120296,43.335650384416496 L-2.726718574262115,43.30380608555314 L-2.1238327567610042,43.27824607663676 L-1.5106694411338804,43.25909404581696 L-0.8901958030245042,43.246442672218414 L-0.2654143936613681,43.24035317745475 L0.3606513898714246,43.24085502936934 L0.9849719352390426,43.247945799436636 L1.6045260755371615,43.261591174514116 L2.216315709104713,43.28172512288796 L2.817380307720965,43.308250213808975 L3.404811242979927,43.34103808897239 L3.9757658615149114,43.379930083660156 L4.527481240961457,43.42473799453977 L5.057287560091738,43.47524499040423 L5.313169149934947,43.50256031297773 L5.562621018420673,43.531206661445985 L5.805341291853348,43.56114936948587 L6.041036242764122,43.59235220198723 L6.269420645364589,43.62477739890275 L6.490218120712223,43.658385720943166 L6.703161471169822,43.69313649706265 L6.90799300375421,43.728987673676784 L7.1044648419828995,43.7658958655536 L7.292339225841337,43.803816408316194 L7.4713887995077295,43.842703412493165 L7.641396886487251,43.88250981905172 L7.802157751822669,43.92318745634605 L7.95347685106412,43.96468709841215 L8.0951710656967,44.006958524538554 L8.227068924740971,44.049950580040786 L8.34901081225824,44.09361123816614 L8.460849160509479,44.13788766305374 L8.56244862853413,44.18272627367375 L8.65368626593272,44.228072808668365 L8.73445166165504,44.27387239201607 L8.804647077613861,44.320069599439776 L8.864187566962501,44.366608525478384 L8.91300107689308,44.413432851140676 L8.93336624556766,44.43693434283472 L8.951028535831082,44.460485912059625 L8.965982603782544,44.48408043305493 L8.97822392492072,44.50771076706468 L8.98774879551269,44.531369764497356 L8.99455433371455,44.555050267089015 L8.99863848044333,44.578745110069136 L8.999999999999996,44.60244712432834 " />
			<path d="M-9.000000000000004,44.60244712432836 L-8.996320229477849,44.56348382629351 L-8.985283926958292,44.52455238959101 L-8.966900117121488,44.48568464949933 L-8.941183832901109,44.446912389210546 L-8.908156103191509,44.4082673138403 L-8.867843935651848,44.36978102450175 L-8.82028029462119,44.33148499246445 L-8.765504074162688,44.29341053341948 L-8.70356006625887,44.25558878187173 L-8.63449892418402,44.21805066568041 L-8.558377121083662,44.1808268807685 L-8.475256903794937,44.14394786602188 L-8.385206241945706,44.107443778398626 L-8.28829877237396,44.07134446826886 L-8.184613738913017,44.03567945500532 L-8.074235927591701,44.00047790284456 L-7.957255597302546,43.96576859703857 L-7.833768405994675,43.93157992031631 L-7.703875332451744,43.89793982967441 L-7.567682593718879,43.864875833515946 L-7.276848654819605,43.80058378071316 L-6.962217685627485,43.738914012251286 L-6.624818604436703,43.68006820297858 L-6.265754786696814,43.62423879272337 L-5.886200456711929,43.57160835696991 L-5.487396847647302,43.52234900979306 " />
			<path d="M-5.487396847647238,49.453175639142906 L-5.235955709730295,49.42493080457443 L-4.978178290151002,49.39802722907944 L-4.444869691720462,49.348372422027786 L-3.890051800817811,49.304451503944925 L-3.316409452120296,49.26647701376635 L-2.726718574262115,49.23463271490299 L-2.1238327567610042,49.209072705986614 L-1.5106694411338804,49.18992067516681 L-0.8901958030245042,49.177269301568266 L-0.2654143936613681,49.1711798068046 L0.3606513898714246,49.171681658719194 L0.9849719352390426,49.17877242878649 L1.6045260755371615,49.19241780386397 L2.216315709104713,49.212551752237815 L2.817380307720965,49.23907684315883 L3.404811242979927,49.27186471832224 L3.9757658615149114,49.31075671301001 L4.527481240961457,49.35556462388962 L5.057287560091738,49.40607161975408 L5.313169149934947,49.43338694232758 L5.562621018420673,49.46203329079584 L5.805341291853348,49.49197599883572 L6.041036242764122,49.523178831337084 L6.269420645364589,49.5556040282526 L6.490218120712223,49.58921235029302 L6.703161471169822,49.623963126412505 L6.90799300375421,49.659814303026636 L7.1044648419828995,49.696722494903455 L7.292339225841337,49.734643037666046 L7.4713887995077295,49.77353004184302 L7.641396886487251,49.81333644840157 L7.802157751822669,49.8540140856959 L7.95347685106412,49.895513727762 L8.0951710656967,49.937785153888406 L8.227068924740971,49.98077720939064 L8.34901081225824,50.02443786751599 L8.460849160509479,50.06871429240359 L8.56244862853413,50.1135529030236 L8.65368626593272,50.15889943801822 L8.73445166165504,50.20469902136592 L8.804647077613861,50.25089622878963 L8.864187566962501,50.297435154828236 L8.91300107689308,50.34425948049053 L8.93336624556766,50.36776097218457 L8.951028535831082,50.39131254140948 L8.965982603782544,50.41490706240478 L8.97822392492072,50.43853739641453 L8.98774879551269,50.46219639384721 L8.99455433371455,50.48587689643887 L8.99863848044333,50.50957173941899 L8.999999999999996,50.533273753678195 " />
			<path d="M8.999999999999996,50.53327375367821 L8.997289368265834,50.566715757731004 L8.989159105846548,50.60013761757103 L8.975614110108209,50.633519201119654 L8.956662540049768,50.66684040055915 L8.932315811388387,50.70008114444495 L8.902588589683026,50.73322140979589 L8.867498781500467,50.766241234155295 L8.82706752362907,50.79912072761568 L8.781319170346753,50.83184008479962 L8.730281278750892,50.86437959678982 L8.673984592158956,50.896719663000965 L8.612463021589877,50.92884080298645 L8.545753625337326,50.96072366817264 L8.473896586647184,50.99234905351372 L8.396935189512647,51.02369790906011 L8.314915792601576,51.05475135143344 L8.135903638110987,51.11589736414412 L7.937291379135191,51.175639785545386 L7.719557490002445,51.23383469091127 L7.483226510722903,51.290341883617465 L7.228867783325801,51.3450252328873 L6.957094080264628,51.39775300174269 L6.668560128194628,51.448398164370055 L6.363961030678924,51.49683871213663 L6.0440305936231615,51.54295794751995 L5.709539557472806,51.586644765242426 L5.361293740431895,51.62779391993363 L5.000132097176415,51.66630627967569 L4.626924697738991,51.70208906482068 L4.242570631433972,51.735056071505014 L3.8479958408725343,51.765127879321994 L3.444150891285803,51.79223204265262 L3.032008680529975,51.81630326519339 L2.6125620952901576,51.837283557260804 L2.1868216191293706,51.85512237549362 L1.7558128981451495,51.86977674461622 L1.3205742700982501,51.88121136096981 L0.8821542629660394,51.88939867756204 L0.44160906894675755,51.89431897043013 L-5.000024063509474e-15,51.89596038615757 L-0.4416090689467676,51.89431897043013 L-0.8821542629660494,51.88939867756204 L-1.3205742700982603,51.88121136096981 L-1.7558128981451593,51.86977674461622 L-2.1868216191293803,51.85512237549362 L-2.612562095290167,51.837283557260804 L-3.0320086805299864,51.81630326519339 L-3.4441508912858145,51.79223204265262 L-3.8479958408725436,51.765127879321994 L-4.242570631433987,51.735056071505014 L-4.626924697739004,51.70208906482068 L-5.0001320971764285,51.66630627967569 L-5.361293740431907,51.62779391993363 L-5.709539557472815,51.586644765242426 L-6.0440305936231695,51.54295794751995 L-6.363961030678934,51.49683871213663 L-6.668560128194639,51.448398164370055 L-6.957094080264638,51.39775300174269 L-7.228867783325809,51.3450252328873 L-7.483226510722911,51.290341883617465 L-7.719557490002452,51.23383469091127 L-7.9372913791352,51.175639785545386 L-8.135903638110996,51.11589736414412 L-8.314915792601585,51.05475135143344 L-8.396935189512654,51.02369790906011 L-8.473896586647191,50.99234905351372 L-8.545753625337333,50.96072366817264 L-8.612463021589885,50.92884080298645 L-8.673984592158964,50.896719663000965 L-8.730281278750901,50.86437959678982 L-8.781319170346762,50.83184008479962 L-8.82706752362908,50.79912072761568 L-8.867498781500476,50.766241234155295 L-8.902588589683033,50.73322140979588 L-8.932315811388394,50.70008114444495 L-8.956662540049775,50.66684040055915 L-8.975614110108216,50.633519201119654 L-8.989159105846555,50.60013761757103 L-8.997289368265841,50.566715757731004 L-9.000000000000004,50.533273753678216 " />
			<path d="M-9.000000000000004,50.53327375367821 L-8.996320229477849,50.494310455643365 L-8.985283926958292,50.45537901894086 L-8.966900117121488,50.416511278849185 L-8.941183832901109,50.3777390185604 L-8.908156103191509,50.33909394319015 L-8.867843935651848,50.3006076538516 L-8.82028029462119,50.262311621814305 L-8.765504074162688,50.224237162769334 L-8.70356006625887,50.18641541122158 L-8.63449892418402,50.14887729503026 L-8.558377121083662,50.11165351011835 L-8.475256903794937,50.074774495371734 L-8.385206241945706,50.03827040774848 L-8.28829877237396,50.002171097618714 L-8.184613738913017,49.966506084355174 L-8.074235927591701,49.93130453219441 L-7.957255597302546,49.89659522638842 L-7.833768405994675,49.86240654966616 L-7.703875332451744,49.82876645902426 L-7.567682593718879,49.7957024628658 L-7.276848654819605,49.73141041006301 L-6.962217685627485,49.66974064160114 L-6.624818604436703,49.610894832328434 L-6.265754786696814,49.55506542207322 L-5.886200456711929,49.50243498631976 L-5.487396847647302,49.45317563914291 " />
			<path d="M-4.938657162882515,49.56118545059643 L-4.480360461135901,49.51155188153932 L-4.000382722548416,49.46686255519283 L-3.50104662073603,49.427333728918256 L-2.9847685069082663,49.39315668775753 L-2.454046716835904,49.364496818780516 L-1.9114494810849039,49.341492810755774 L-1.3596024970204925,49.324255983017956 L-0.8011762227220541,49.312869746779256 L-0.23887295429523162,49.30738920149196 L0.3245862508842818,49.307840868215095 L0.886474741715138,49.31422256127566 L1.444073467983445,49.3265033988454 L1.994684138194241,49.34462395238186 L2.535642276948868,49.36849653421076 L3.0643301186819336,49.398005621857834 L3.5781892753634197,49.43300841707683 L4.074733116865311,49.473335536868476 L4.551558804082563,49.51879183314649 L5.0063589165786055,49.56915733708407 L5.436932618487709,49.6241883235712 L5.642478580828129,49.65337100079516 L5.841196308641,49.68361849063154 L6.03284532405284,49.71489418913907 L6.217193703378788,49.747160248091795 L6.394018357784608,49.78037762078093 L6.563105303257203,49.81450610926726 L6.724249919556956,49.84950441302654 L6.877257197838525,49.88533017892924 L7.021941976640402,49.92194005249413 L7.158129165957707,49.959289730353625 L7.285653959127029,49.99733401386739 L7.4043620322668735,50.036026863819394 L7.514109731032415,50.075321456132215 L7.61476424445853,50.11517023853106 L7.7062037656807165,50.15552498808906 L7.788317639339447,50.196336869584215 L7.861006495489535,50.23755649459715 L7.924182369852475,50.279133981278484 L7.977768810266251,50.32101901471324 L8.02170096920377,50.363160907809295 L8.055925682247974,50.40550866263635 L8.06938434340429,50.42674373153212 L8.080401532428647,50.4480110321409 L8.08897391596142,50.469304129830306 L8.095098900343094,50.4906165821628 L8.098774632398996,50.51194194084491 L8.099999999999996,50.533273753678195 " />
			<path d="M8.099999999999996,50.53327375367821 L8.09756043143925,50.56337155732572 L8.090243195261893,50.59345123118175 L8.078052699097388,50.623494656375506 L8.06099628604479,50.65348373587106 L8.039084230249546,50.68340040536828 L8.012329730714722,50.71322664418412 L7.98074890335042,50.74294448610759 L7.944360771266163,50.772536030221936 L7.903187253312078,50.801983451687484 L7.857253150875803,50.83126901247866 L7.806586132943059,50.860375072068685 L7.751216719430888,50.889284098055626 L7.691178262803593,50.917978676723195 L7.626506927982464,50.94644152353017 L7.483424213341419,51.002603591657916 L7.322313274299887,51.05763500309753 L7.143562241221671,51.11140318235867 L6.9476017410022,51.163778597187964 L6.734903859650613,51.214635070623544 L6.50598100499322,51.26385008496639 L6.261384672238165,51.31130507693624 L6.001704115375164,51.35688572330087 L5.727564927611031,51.40048221629078 L5.439627534260845,51.44198952813578 L5.1385856017255245,51.481307664086 L4.825164366388705,51.51834190330809 L4.500118887458773,51.55300302707594 L4.1642322279650905,51.58520753370644 L3.818313568290575,51.61487783972233 L3.46319625678528,51.64194246675761 L3.0997358021572223,51.66633621375518 L2.728807812476977,51.68800031404187 L2.3513058857611413,51.706882576902544 L1.968139457216433,51.722937513312075 L1.580231608330634,51.736126445522416 L1.1885168430884248,51.74641760024065 L0.7939388366694351,51.75378618517366 L0.39744816205208144,51.758214448754934 L-4.855293025038576e-15,51.759691722909636 L-0.3974481620520912,51.758214448754934 L-0.7939388366694448,51.75378618517366 L-1.1885168430884345,51.74641760024065 L-1.5802316083306436,51.736126445522416 L-1.9681394572164426,51.722937513312075 L-2.3513058857611506,51.706882576902544 L-2.728807812476988,51.68800031404187 L-3.0997358021572334,51.66633621375518 L-3.4631962567852894,51.64194246675761 L-3.8183135682905878,51.61487783972233 L-4.164232227965104,51.58520753370644 L-4.500118887458785,51.55300302707594 L-4.825164366388716,51.51834190330809 L-5.138585601725533,51.481307664086 L-5.439627534260853,51.44198952813578 L-5.7275649276110405,51.40048221629078 L-6.001704115375175,51.35688572330087 L-6.261384672238175,51.31130507693624 L-6.505981004993228,51.26385008496639 L-6.734903859650621,51.21463507062354 L-6.947601741002207,51.163778597187964 L-7.14356224122168,51.11140318235867 L-7.322313274299896,51.05763500309753 L-7.483424213341427,51.002603591657916 L-7.626506927982471,50.94644152353017 L-7.6911782628036,50.917978676723195 L-7.7512167194308965,50.889284098055626 L-7.8065861329430675,50.860375072068685 L-7.857253150875811,50.83126901247866 L-7.903187253312086,50.801983451687484 L-7.944360771266171,50.772536030221936 L-7.980748903350428,50.74294448610759 L-8.012329730714729,50.71322664418412 L-8.039084230249555,50.68340040536828 L-8.060996286044798,50.65348373587106 L-8.078052699097395,50.623494656375506 L-8.0902431952619,50.59345123118175 L-8.097560431439257,50.56337155732572 L-8.100000000000003,50.533273753678216 " />
			<path d="M-8.100000000000003,50.53327375367821 L-8.096688206530063,50.49820678544685 L-8.086755534262464,50.463168492414596 L-8.07021010540934,50.42818752633209 L-8.047065449610997,50.39329249207218 L-8.017340492872359,50.35851192423896 L-7.981059542086664,50.32387426383426 L-7.938252265159071,50.289407835000695 L-7.888953666746421,50.25514082186022 L-7.833204059632982,50.221101245467246 L-7.771049031765619,50.18731694089506 L-7.702539408975295,50.15381553447434 L-7.627731213415443,50.12062442120238 L-7.546685617751136,50.08777074234145 L-7.459468895136564,50.055281363224665 L-7.366152365021715,50.02318285128748 L-7.266812334832531,49.99150145434279 L-7.161530037572292,49.9602630791174 L-7.050391565395208,49.92949327006736 L-6.810914334346991,49.86945959194704 L-6.549163789337644,49.811596744424534 L-6.265995917064737,49.75609395280885 L-5.962336743993033,49.70313272446341 L-5.639179308027132,49.65288625523372 L-5.2975804110407365,49.60551886305561 L-4.938657162882572,49.56118545059644 " />
			<path d="M-9.000000000000004,50.53327375367821 L-9.000000000000004,44.60244712432836 " />
			<path d="M8.999999999999993,50.53327375367821 L8.999999999999993,44.60244712432836 " />

        </g>
        </g>
    </svg>
    