<?xml version='1.0' encoding='utf-8'?>
<svg width="76.353583mm" height="100.09mm" viewBox="-25.029503 -30.640331 50.059006 65.621097" version="1.1" xmlns="http://www.w3.org/2000/svg">
  <g transform="scale(1,-1)" stroke-linecap="round">
    <g fill="none" stroke="rgb(0,0,0)" stroke-width="0.05900588224327174" id="Visible">
      <path d="M -17.67767,-32.919713 A 25.0,6.936147013600759 0.0 0,1 25.0,-28.015116" />
      <path d="M -25.0,-28.015116 A 25.0,6.936147013600759 0.0 0,1 -17.67767,-32.919713" />
      <path d="M -17.67767,0.706232 A 25.0,6.936147013600759 0.0 0,1 25.0,5.610828" />
      <path d="M -25.0,5.610828 A 25.0,6.936147013600759 0.0 0,1 -17.67767,0.706232" />
      <line x1="-25.0" y1="5.610828" x2="-25.0" y2="-28.015116" />
      <line x1="25.0" y1="5.610828" x2="25.0" y2="-28.015116" />
      <path d="M 25.0,5.610828 A 25.0,25.0 -74.49354462464062 0,1 -25.0,5.610828" />
    </g>
    <g fill="none" stroke="rgb(99,99,99)" stroke-width="0.05900588224327174" id="Hidden" stroke-dasharray="0.001499 0.177767">
      <path d="M -14.142136,-31.938793 A 20.0,5.548917610880607 0.0 0,1 20.0,-28.015116" />
      <path d="M 20.0,-28.015116 A 20.0,5.548917610880607 0.0 0,1 -20.0,-28.015116" />
      <path d="M -20.0,-28.015116 A 20.0,5.548917610880607 0.0 0,1 -14.142136,-31.938793" />
      <path d="M -14.142136,-27.135087 A 20.0,5.548917610880607 0.0 0,1 20.0,-23.21141" />
      <path d="M 20.0,-23.21141 A 20.0,5.548917610880607 0.0 0,1 19.147891,-21.608976" />
      <path d="M 19.147891,-21.608976 A 20.0,5.548917610880607 0.0 0,1 -19.147891,-21.608976" />
      <path d="M -19.147891,-21.608976 A 20.0,5.548917610880607 0.0 0,1 -20.0,-23.21141" />
      <path d="M -20.0,-23.21141 A 20.0,5.548917610880607 0.0 0,1 -14.142136,-27.135087" />
      <path d="M 25.0,-28.015116 A 25.0,6.936147013600759 0.0 0,1 -25.0,-28.015116" />
      <path d="M -10.606602,-16.546755 A 14.999999999999957,4.161688208160443 0.0 0,1 13.843472,-15.206431" />
      <path d="M 13.843472,-15.206431 A 14.999999999999957,4.161688208160443 0.0 0,1 15.0,-13.603997" />
      <path d="M 15.0,-13.603997 A 15.0,4.161688208160456 0.0 0,1 -15.0,-13.603997" />
      <path d="M -15.0,-13.603997 A 14.999999999999957,4.161688208160443 0.0 0,1 -13.843472,-15.206431" />
      <path d="M -13.843472,-15.206431 A 14.999999999999957,4.161688208160443 0.0 0,1 -10.606602,-16.546755" />
      <path d="M -10.606602,-21.350461 A 15.0,4.161688208160455 0.0 0,1 15.0,-18.407703" />
      <path d="M 15.0,-18.407703 A 15.0,4.161688208160455 0.0 0,1 14.360918,-17.205878" />
      <path d="M 14.360918,-17.205878 A 15.0,4.161688208160455 0.0 0,1 -14.360918,-17.205878" />
      <path d="M -14.360918,-17.205878 A 15.0,4.161688208160455 0.0 0,1 -15.0,-18.407703" />
      <path d="M -15.0,-18.407703 A 15.0,4.161688208160455 0.0 0,1 -10.606602,-21.350461" />
      <line x1="20.0" y1="-28.015116" x2="20.0" y2="-23.21141" />
      <line x1="-20.0" y1="-28.015116" x2="-20.0" y2="-23.21141" />
      <path d="M -13.843472,-15.206431 A 25.0,25.0 -74.49354462464062 0,1 -6.683674,-18.47918" />
      <path d="M -6.683674,-18.47918 A 25.0,25.0 -74.49354462464062 0,1 13.843472,-15.206431" />
      <line x1="15.0" y1="-18.407703" x2="15.0" y2="-13.603997" />
      <line x1="-15.0" y1="-18.407703" x2="-15.0" y2="-13.603997" />
      <line x1="14.360918" y1="-17.205878" x2="19.147891" y2="-21.608976" />
      <line x1="-14.360918" y1="-17.205878" x2="-19.147891" y2="-21.608976" />
    </g>
  </g>
</svg>