<?xml version="1.0" encoding="UTF-8" standalone="no"?>
    <svg
    xmlns:svg="http://www.w3.org/2000/svg"
    xmlns="http://www.w3.org/2000/svg"
    width="140"
    height="192"
    >
        <g transform="scale(50, -50)   translate(1.4000004815667193,-2.9312169536201753)" stroke-width="0.02"  fill="none">
        <!-- hidden lines -->
        <g  stroke="rgb(160,160,160)" fill="none" stroke-dasharray="0.02,0.02" >
    
        </g>

        <!-- solid lines -->
        <g  stroke="rgb(0,0,0)" fill="none">
    			<path d="M0.7071067811865441,-0.4082482904638635 L0.7572087177277358,-0.36754108927339657 L0.8032071810765066,-0.3247902278912174 L0.8448530489231981,-0.28017565007378054 L0.8819206939276265,-0.23388731581348596 L0.9142092440856588,-0.18612420866148754 L0.9415436975916325,-0.13709328205675464 L0.9637758887905699,-0.0870083535068224 L0.9807853021439321,-0.03608895509273363 L0.9924797315456959,0.015440851536637157 L0.9987957828127673,0.06735368777114525 L0.9996992177261308,0.11942009055301356 L0.9951851386077434,0.1714097572911078 L0.9852780130741836,0.22309279583790936 L0.9700315393028384,0.2742409723494114 L0.9495283528714622,0.3246289500033623 L0.9238795769790901,0.3740355117098802 L0.8932242186175474,0.42224476011582573 L0.8577284140305137,0.46904728838493487 L0.8175845275639096,0.5142413154331873 L0.773010108770267,0.5576337795161108 L0.7242467133740348,0.5990413843037941 L0.6715585944282159,0.6382915918418242 L0.6152312706893636,0.6752235570830343 L0.5555699799023541,0.7096889989861972 L0.4928980253133527,0.7415530035134501 L0.4275550243143967,0.7706947542177016 L0.35989506866173226,0.7970081864935294 L0.29028480619872665,0.8204025619687771 L0.2191014544494148,0.8408029599375253 L0.1467307568276327,0.8581506831764074 L0.07356489252675735,0.8724035759431992 L3.514142179472657e-07,0.8835362524268395 L-0.07356421454839057,0.8915402343990675 L-0.14673015170583326,0.8964239973069605 L-0.21910096520817846,0.8982129245401689 L-0.2902844678823413,0.8969491701036731 L-0.35989490581159456,0.8926914304236604 L-0.42755504908403097,0.8855146265077039 L-0.4928982363600931,0.8755094981680425 L-0.5555703621608663,0.862782112495551 L-0.6152317960912577,0.8474532892391924 L-0.6715592235836518,0.8296579461987283 L-0.7242473981758937,0.8095443681745846 L-0.7730107958201067,0.7872734034355635 L-0.817585162253033,0.7630175920602402 L-0.8577289450413703,0.7369602308791074 L-0.8932246025435666,0.7092943800898024 L-0.9238797826992875,0.6802218169351781 L-0.9495283652655795,0.6499519421217332 L-0.9700313618606742,0.618700644912596 L-0.9852776689483311,0.5866891330532709 L-0.9951846696934927,0.5541427338787532 L-0.9996986814393456,0.5212896731061776 L-0.9987952463923977,0.4883598379372652 L-0.9924792639511435,0.45558353117878553 L-0.9807849639710999,0.42319022313665994 L-0.96377572111942,0.39140730805003715 L-0.941543711331789,0.3604588718056619 L-0.914209412237917,0.33056447761029956 L-0.8819209502654033,0.30193797620030133 L-0.8448532979604084,0.27478634703320975 L-0.8032073258729922,0.24930857673727952 L-0.7572087141412189,0.22569458089199196 L-0.7071067296662792,0.2041241749771739 L-0.6531728754978712,0.18476610006138233 L-0.5956994197400554,0.16777710850343758 L-0.5349978119398746,0.15330111461585666 L-0.4713969955301429,0.14146841488708312 L-0.40524162546102427,0.13239498198327843 L-0.3368902006691039,0.12618183635107078 L-0.2667131214949837,0.12291449882330402 L-0.19509068256824202,0.12266252719191789 L-0.12241101202998983,0.1254791392582008 L-0.049067968255782524,0.13140092440329781 L0.02454099452570413,0.14044764524348946 L0.0980169801520061,0.15262213044783318 L0.1709618123097547,0.16791025930265951 L0.2429801924612569,0.1862810381116134 L0.31368184221397927,0.20768676802273528 L0.3826836185136653,0.23206330337945774 L0.44961159018778546,0.2593303992021731 L0.5141030645735423,0.2893921459238768 L0.5758085532345028,0.32213748903076506 L0.6343936660994284,0.3574408307975147 L0.6895409237450536,0.3951627108617575 L0.7409514779889145,0.435150561953455 L0.7883467314571757,0.4772395366866788 L0.8314698473414951,0.5212534009343848 L0.870087141157831,0.5670054889438845 L0.9039893469624319,0.6142997150151592 L0.932992751164881,0.6629316362546709 L0.9569401878001171,0.7126895606393024 L0.9757018898765111,0.7633556943778228 L0.9891761922015687,0.8147073223426693 L0.9972900818970493,0.866518015163761 L0.999999593642362,0.918558856432852 L0.9972900475325039,0.9705996833547648 L0.9891761282896463,1.0224103341120494 L0.975701805428322,1.0737618951732224 L0.9569400948359097,1.1244279417751741 L0.9329926630854366,1.1741857648543474 L0.9039892766462378,1.2228175777715276 L0.8700870989890441,1.270111696295669 L0.8314698393992491,1.3158636854559658 L0.7883467581017581,1.3598774670598432 L0.7409515330646077,1.4019663818909478 L0.6895409945851932,1.4419542008552169 L0.6343937344572658,1.4796760796215844 L0.5758085971840746,1.514979451618719 L0.5141030613220141,1.5477248545843243 L0.4496115196211585,1.57778668622558 L0.38268346717137197,1.6050538849352285 L0.31368160725254723,1.6294305319089952 L0.24297988504921375,1.6508363714222085 L0.1709614598008673,1.66920724646601 L0.09801662633248853,1.684495447367584 L0.024540697257457555,1.6966699714694542 L-0.04906814254415326,1.7057166923866571 L-0.1224109972832712,1.7116384377953366 L-0.19509042528545062,1.7144549751399274 L-0.26671259524558166,1.714202905069262 L-0.33688942100322294,1.7109354628034503 L-0.40524066184128804,1.70472222802147 L-0.47139597497164853,1.6956487442042971 L-0.534996906523997,1.683816048690228 L-0.5956988068777762,1.6693401149857903 L-0.6531726556751953,1.652351209097243 L-0.7071067811865517,1.632993161855586 L-0.7572087177277442,1.6114225992806488 L-0.8032071810765143,1.587808376513964 L-0.8448530489232051,1.5623304373120013 L-0.8819206939276327,1.5351787416671718 L-0.9142092440856644,1.5065522731306362 L-0.9415436975916381,1.4766579851413675 L-0.9637758887905756,1.445709695206904 L-0.9807853021439374,1.41392693540829 L-0.992479731545701,1.381533767394399 L-0.9987957828127721,1.3487575697753753 L-0.9996992177261356,1.315827805608995 L-0.9951851386077477,1.2829747774863929 L-0.9852780130741878,1.2504283775550855 L-0.9700315393028422,1.2184168396590787 L-0.9495283528714654,1.1871655006206234 L-0.9238795769790931,1.1568955775296024 L-0.8932242186175503,1.127822967739153 L-0.8577284140305157,1.1001570780855394 L-0.8175845275639111,1.0740996896527821 L-0.7730101087702685,1.0498438641853536 L-0.7242467133740366,1.0275728980131646 L-0.6715585944282163,1.007459329090628 L-0.6152312706893635,0.9896640024649107 L-0.5555699799023548,0.9743351991772409 L-0.492898025313354,0.9616078332654808 L-0.42755502431439696,0.9516027211767221 L-0.35989506866173177,0.9444259275163868 L-0.29028480619872676,0.9401681906566318 L-0.21910145444941614,0.9389044313033769 L-0.14673075682763315,0.9406933466799879 L-0.07356489252675646,0.9455770925286899 L-3.514142178362434e-07,0.953581054660543 L0.07356421454839046,0.9647137113038088 L0.14673015170583348,0.9789665870114098 L0.21910096520818023,0.9963142983936961 L0.2902844678823415,1.0167146914456855 L0.3598949058115939,1.0401090697411919 L0.4275550490840305,1.0664225122726434 L0.4928982363600938,1.095564279227799 L0.5555703621608656,1.1274283035157842 L0.6152317960912568,1.1618937653876364 L0.671559223583652,1.1988257470435946 L0.7242473981758948,1.2380759636832326 L0.7730107958201069,1.2794835670377465 L0.8175851622530319,1.3228760170285634 L0.8577289450413701,1.36807001682519 L0.8932246025435684,1.414872506229989 L0.9238797826992877,1.4630817080001064 L0.9495283652655782,1.5124882214290425 L0.9700313618606726,1.5628761572536738 L0.9852776689483305,1.6140243077284928 L0.9951846696934921,1.665707345518503 L0.9996986814393454,1.7176970449065712 L0.9987952463923988,1.7697635186909781 L0.9924792639511459,1.8216764640649523 L0.9807849639710999,1.8732064107225697 L0.9637757211194204,1.924125964424686 L0.9415437113317882,1.9742110392845544 L0.9142094122379152,2.0232420720954125 L0.8819209502654053,2.071005212120905 L0.8448532979604062,2.1172934799034886 L0.8032073258729919,2.1619078888149144 L0.7572087141412167,2.204658523275696 L0.7071067296662785,2.2453655678060063 L0.6531728754978694,2.2838602813372924 L0.5956994197400525,2.319985911510729 L0.5349978119398713,2.353598544013812 L0.4713969955301438,2.3845678823580725 L0.40524162546102316,2.4127779538773697 L0.33689020066909925,2.438127738125077 L0.2667131214949803,2.4605317142683374 L0.19509068256823936,2.479920324515213 L0.12241101202999094,2.496240351064422 L0.04906796825578286,2.509455204534825 L-0.024540994525709348,2.51954512231012 L-0.09801698015201044,2.5265072757212788 L-0.17096181230974983,2.5303557854819405 L-0.2429801924612568,2.531121645288485 L-0.3136818422139817,2.5288525539928663 L-0.38268361851367555,2.523612657251627 L-0.449611590187798,2.515482200044408 L-0.5141030645735554,2.5045570919382105 L-0.5758085532345074,2.49094838744682 L-0.6343936660994313,2.474781684295568 L-0.6895409237450452,2.456196442846845 L-0.7409514779889107,2.435345230370624 L-0.7883467314571851,2.4123928942529083 L-0.831469847341518,2.387515668620699 L-0.8700871411578374,2.3609002192266866 L-0.903989346962457,2.332742631770904 L-0.9329927511648867,2.3032473491468735 L-0.9569401878001279,2.2726260633777575 L-0.9757018898764898,2.2410965682547355 L-0.9891761922015666,2.2088815789054896 L-0.9972900818970549,2.176207524699841 L-0.9999995936423377,2.143303322046279 L-0.9972900475325095,2.1103991337398935 L-0.989176128289643,2.077725121598091 L-0.9757018054283253,2.0455101991524507 L-0.9569400948358798,2.0139807911658743 L-0.9329926630855123,1.9833596067023187 L-0.9039892766462808,1.953864432400556 L-0.8700870989890739,1.925706952491968 L-0.831469839399326,1.8990916019471975 L-0.7883467581017446,1.8742144589588687 L-0.7409515330647057,1.851262182743198 L-0.6895409945852364,1.8304110023945313 L-0.6343937344572943,1.811825762243805 L-0.5758085971841668,1.7956590288619987 L-0.514103061321894,1.7820502645120904 L-0.4496115196212707,1.7711250714864126 L-0.38268346717147195,1.7629945113919374 L-0.31368160725268407,1.7577545030341364 L-0.2429798850492213,1.755485302136428 L-0.1709614598011232,1.756251065708132 L-0.09801662633242836,1.7600995034221718 L-0.024540697257549926,1.7670616179358096 L0.049068142544115734,1.7771515356344019 L0.1224109972831805,1.7903664288408037 L0.19509042528535003,1.806686530112246 L0.26671259524547264,1.8260752387984933 L0.33688942100326713,1.8484793196791154 L0.4052406618407718,1.87382919307723 L0.4713959749713903,1.902039315511002 L0.5349969065240672,1.933008649640009 L0.5956988068778488,1.9666212219596388 L0.6531726556750668,2.0027467664641665 L0.7071067811867866,2.0412414523211595 " />
			<path d="M0.0,0.0 L0.7071067811865477,-0.4082482904638632 " />
			<path d="M0.0,0.0 L0.7071067811865477,0.4082482904638632 " />
			<path d="M0.0,0.0 L0.0,0.8164965809277261 " />
			<path d="M0.7071067811865476,-0.4082482904638631 L0.6964265225123758,-0.3997431177458659 L0.6923753899118278,-0.3912379450278688 L0.6927436746936958,-0.3827327723098716 L0.6953216681667718,-0.37422759959187457 " />
			<path d="M0.7071067811865476,-0.4082482904638631 L0.6923753899118278,-0.4020820402433151 L0.677643998637108,-0.3997431177458659 L0.6481812160876685,-0.40144415228946534 " />
			<path d="M0.7071067811865476,0.4082482904638631 L0.6923753899118278,0.4020820402433151 L0.677643998637108,0.3997431177458659 L0.6481812160876685,0.40144415228946534 " />
			<path d="M0.7071067811865476,0.4082482904638631 L0.6964265225123758,0.3997431177458659 L0.6923753899118278,0.3912379450278688 L0.6927436746936958,0.3827327723098716 L0.6953216681667718,0.37422759959187457 " />
			<path d="M0.0,0.8164965809277261 L0.002025566300273963,0.8029946192379056 L0.007365695637359868,0.7952336491327333 L0.014915533665653733,0.7913000067506596 L0.023570226039551542,0.7892800282301353 " />
			<path d="M0.0,0.8164965809277261 L-0.002025566300273966,0.8006556967404564 L-0.007365695637359875,0.7867284764147361 L-0.023570226039551556,0.7620634755325445 " />
			<path d="M0.8802596117741006,-0.4338148064308316 L0.7740169329898161,-0.4449396387926337 " />
			<path d="M0.7740169329898161,-0.4449396387926337 L0.7535103759794289,-0.5094427357926004 " />
			<path d="M0.753510375979429,-0.5094427357926004 L0.7331810560203158,-0.4977055974417643 " />
			<path d="M0.7331810560203157,-0.4977055974417643 L0.7517431844714343,-0.4463685742559191 " />
			<path d="M0.7517431844714343,-0.446368574255919 L0.6626476149529349,-0.45698309625464134 " />
			<path d="M0.6626476149529349,-0.45698309625464134 L0.6426716182064263,-0.4454499491557135 " />
			<path d="M0.6426716182064263,-0.4454499491557135 L0.7543948349008838,-0.43361081517892336 " />
			<path d="M0.7543948349008839,-0.4336108151789234 L0.7743702562024208,-0.3726795584872063 " />
			<path d="M0.7743702562024207,-0.37267955848720624 L0.7943462529489294,-0.3842127055861341 " />
			<path d="M0.7943462529489294,-0.3842127055861341 L0.776845245025568,-0.4324878665935003 " />
			<path d="M0.776845245025568,-0.43248786659350025 L0.8606375136851682,-0.4224859828171212 " />
			<path d="M0.8606375136851682,-0.4224859828171212 L0.8802596117741005,-0.43381480643083153 " />
			<path d="M0.7572231469366356,0.511586305104183 L0.7870985235307616,0.43840759969855 " />
			<path d="M0.7870985235307615,0.43840759969855 L0.8376565432966053,0.4092179133770456 " />
			<path d="M0.8376565432966053,0.40921791337704566 L0.8212160804560295,0.39972600773043715 " />
			<path d="M0.8212160804560296,0.3997260077304372 L0.7706580606901857,0.4289156940519416 " />
			<path d="M0.7706580606901857,0.4289156940519415 L0.6426716182064263,0.44544994915571356 " />
			<path d="M0.6426716182064263,0.4454499491557135 L0.6630009381655395,0.45718708750654957 " />
			<path d="M0.6630009381655395,0.45718708750654957 L0.7635869928783202,0.44279640171436024 " />
			<path d="M0.7635869928783202,0.44279640171436024 L0.7376004734027316,0.5002571492571634 " />
			<path d="M0.7376004734027317,0.5002571492571635 L0.7572231469366357,0.5115863051041831 " />
			<path d="M-0.04410555529852224,0.9398388614707682 L0.048702209732212134,0.9934214495941502 " />
			<path d="M0.04870220973221214,0.9934214495941502 L0.04870220973221214,0.9762748885013443 " />
			<path d="M0.04870220973221214,0.9762748885013441 L-0.028372889773098924,0.8168533995019107 " />
			<path d="M-0.0283728897730989,0.8168533995019108 L0.04905553294481675,0.8615567202010276 " />
			<path d="M0.04905553294481675,0.8615567202010276 L0.04905553294481675,0.8448188060786567 " />
			<path d="M0.04905553294481675,0.8448188060786567 L0.0,0.8164965809277261 " />
			<path d="M0.0,0.8164965809277261 L-0.04905553294481675,0.7881743557767957 " />
			<path d="M-0.04905553294481675,0.7881743557767956 L-0.04905553294481675,0.8049122698991665 " />
			<path d="M-0.04905553294481675,0.8049122698991666 L0.028372889773098917,0.9649457326543247 " />
			<path d="M0.0283728897730989,0.9649457326543246 L-0.04410555529852224,0.9231002828817786 " />
			<path d="M-0.04410555529852224,0.9231002828817786 L-0.04410555529852224,0.9398388614707681 " />

        </g>
        </g>
    </svg>
    