<?xml version="1.0" encoding="UTF-8" standalone="no"?>
    <svg
    xmlns:svg="http://www.w3.org/2000/svg"
    xmlns="http://www.w3.org/2000/svg"
    width="140"
    height="208"
    >
        <g transform="scale(50, -50)   translate(1.4000004815666935,-2.0640779426836007)" stroke-width="0.02"  fill="none">
        <!-- hidden lines -->
        <g  stroke="rgb(160,160,160)" fill="none" stroke-dasharray="0.02,0.02" >
    
        </g>

        <!-- solid lines -->
        <g  stroke="rgb(0,0,0)" fill="none">
    			<path d="M0.7071067811865567,-1.1785113019775901 L0.8032071810765211,-1.1935502065018107 L0.8448530489232138,-1.202735629830432 L0.8819206939276433,-1.212887396891899 L0.9142092440856768,-1.2238906244793866 L0.9415436975916517,-1.2356258279691947 L0.9637758887905903,-1.2479695597657898 L0.9807853021439539,-1.2607950729630855 L0.992479731545719,-1.273973005507789 L0.9987957828127916,-1.287372080298125 L0.9996992177261566,-1.3008598167759169 L0.9951851386077704,-1.3143032496781788 L0.9852780130742118,-1.3275696507116561 L0.970031539302868,-1.3405272490050737 L0.949528352871493,-1.353045946283446 L0.9238795769791222,-1.364998022800381 L0.8932242186175807,-1.3762588301609262 L0.8577284140305479,-1.3867074672717943 L0.7730101087703036,-1.4047072714048288 L0.6715585944282542,-1.4181294506952116 L0.5555699799023945,-1.4262051325613425 L0.42755502431443826,-1.4282811913982532 L0.29028480619876934,-1.423834377216047 L0.1467307568276759,-1.4124826347885586 L3.5141426091289674e-07,-1.3939933696607099 L-0.1467301517057903,-1.3682884822683763 L-0.290284467882299,-1.3354460605558094 L-0.3598949058115529,-1.3164150382213544 L-0.4275550490839891,-1.2956986933644952 L-0.4928982363600528,-1.2733494146402542 L-0.5555703621608251,-1.2494284399121 L-0.6152317960912174,-1.2240055244946197 L-0.6715592235836133,-1.197158563215825 L-0.7242473981758569,-1.1689731683451574 L-0.7730107958200706,-1.1395422056739093 L-0.8175851622529978,-1.1089652912628918 L-0.8577289450413358,-1.0773482515865311 L-0.8932246025435336,-1.0448025500019038 L-0.9238797826992547,-1.0114446826544867 L-0.9495283652655481,-0.977395547098546 L-0.9700313618606432,-0.9427797870582633 L-0.9852776689483019,-0.9077251168850524 L-0.9951846696934653,-0.8723616293764291 L-0.9996986814393217,-0.8368210907116167 L-0.9987952463923743,-0.8012362263284118 L-0.9924792639511214,-0.7657400016142996 L-0.9807849639710785,-0.7304649013121722 L-0.9637757211193992,-0.6955422115472176 L-0.9415437113317678,-0.6611013083664673 L-0.9142094122378991,-0.6272689566464503 L-0.8819209502653876,-0.5941686231673682 L-0.8448532979603919,-0.5619198075747481 L-0.8032073258729783,-0.530637394851979 L-0.7572087141412059,-0.500431032809998 L-0.7071067296662662,-0.47140453796448534 L-0.6531728754978582,-0.44365533301679716 L-0.5956994197400453,-0.41727391898349686 L-0.5349978119398636,-0.39234338483164977 L-0.4713969955301326,-0.3689389572739412 L-0.40524162546101594,-0.34712759316039576 L-0.3368902006690967,-0.32696761667306373 L-0.2667131214949727,-0.30850840328781204 L-0.19509068256823303,-0.291790112214545 L-0.04906796825577664,-0.2636895978286957 L0.09801698015201976,-0.2427960364829186 L0.24298019246126246,-0.22908338551510765 L0.3826836185136806,-0.22237015832349394 L0.5141030645735559,-0.22232335063071773 L0.6343936660994404,-0.2284656467923868 L0.7409514779889336,-0.24018575062580205 L0.8314698473414979,-0.25675161752131426 L0.8700871411578652,-0.26659378266552736 L0.9039893469624514,-0.2773263016348384 L0.9329927511648961,-0.288831139269623 L0.9569401878001392,-0.30098607512334097 L0.9757018898765062,-0.3136653658920243 L0.9891761922016249,-0.3267404269367524 L0.9972900818970902,-0.34008052919985854 L0.9999995936423746,-0.35355350773135996 L0.9972900475325601,-0.3670264779795058 L0.989176128289686,-0.3803665559570609 L0.975701805428357,-0.393441578374944 L0.956940094835927,-0.4061208188353651 L0.93299266308552,-0.418275696200306 L0.9039892766463035,-0.4297804712951525 L0.8700870989890889,-0.4405129281720399 L0.831469839399336,-0.4503550362457195 L0.740951533064646,-0.4669208208422202 L0.6343937344572709,-0.47864090537749093 L0.514103061321954,-0.48478325355207863 L0.38268346717153295,-0.48473655428950935 L0.24297988504921997,-0.47802345481866926 L0.09801662633250752,-0.46431090100811234 L-0.049068142543999826,-0.44341736216421457 L-0.19509042528536313,-0.4153167816958895 L-0.2667125952455447,-0.39859843378881654 L-0.3368894210037098,-0.3801391599327665 L-0.4052406618409733,-0.3599791319751272 L-0.4713959749716695,-0.33816773846643966 L-0.5349969065241821,-0.3147633133416359 L-0.5956988068778247,-0.28983281393678184 L-0.6531726556755256,-0.26345144936441034 L-0.7071067811865137,-0.23570226039547704 L-0.7572087177277073,-0.20667567510216894 L-0.8032071810764784,-0.17646918204706807 L-0.8448530489231701,-0.14518667180639017 L-0.8819206939275989,-0.11293781783287499 L-0.9142092440856318,-0.07983750333334058 L-0.9415436975916067,-0.04600521293148216 L-0.9637758887905453,-0.011564394222831953 L-0.9807853021439085,0.023358205886523653 L-0.9924797315456733,0.05863322534329252 L-0.9987957828127458,0.09412938704569973 L-0.9996992177261104,0.12971421043556708 L-0.9951851386077241,0.1652547302499064 L-0.9852780130741654,0.2006182181954635 L-0.970031539302821,0.2356729034009628 L-0.9495283528714454,0.27028868759141766 L-0.9238795769790744,0.3043378510204344 L-0.8932242186175329,0.3376957452930611 L-0.8577284140304993,0.370241469316011 L-0.8175845275638958,0.40185852472610684 L-0.7730101087702544,0.4324354472732065 L-0.7242467133740232,0.4618664107718953 L-0.6715585944282041,0.490051800387748 L-0.6152312706893523,0.5168987521894844 L-0.5555699799023439,0.5423216560780358 L-0.49289802531334403,0.5662426193973253 L-0.42755502431438785,0.5885918887391031 L-0.35989506866172266,0.6093082276748761 L-0.2902848061987187,0.628339248381054 L-0.14673075682762515,0.661181679777723 L-3.514142105087714e-07,0.6868865884740326 L0.14673015170584125,0.7053758749058583 L0.2902844678823495,0.7167276270174512 L0.4275550490840401,0.7211744336502969 L0.5555703621608765,0.7190983540220612 L0.6715592235836634,0.7110226511499452 L0.7730107958201209,0.6976004674321882 L0.8577289450413856,0.6796006871689687 L0.8932246025435835,0.6691520724964201 L0.9238797826993035,0.657891292061082 L0.9495283652655984,0.64593924341722 L0.970031361860693,0.6334205702890154 L0.9852776689483529,0.6204629870278835 L0.9951846696935156,0.6071965864313394 L0.9996986814393722,0.5937531346786065 L0.9987952463924232,0.5802653572074806 L0.9924792639511695,0.566866219405447 L0.9807849639711277,0.5536882060153994 L0.963775721119448,0.5408626031625228 L0.9415437113318197,0.5285187868938519 L0.9142094122379474,0.5167835220859156 L0.881920950265439,0.5057802755189118 L0.8448532979604424,0.49562854683837143 L0.8032073258730272,0.4864432210276818 L0.7071067296663147,0.4714045379643462 L0.5956994197400933,0.4614680928075162 L0.4713969955301798,0.45732730492212037 L0.336890200669141,0.45955013814540135 L0.19509068256828233,0.4685668075110415 L0.04906796825582438,0.48466046694935583 L-0.09801698015196558,0.5079610794277333 L-0.242980192461221,0.5384426022840815 L-0.31368184221393386,0.5563254779384864 L-0.3826836185136226,0.575923548916624 L-0.4496115901877606,0.5971904857579093 L-0.5141030645734992,0.6200709150480083 L-0.5758085532344608,0.6445007194334973 L-0.6343936660993956,0.6704073850338388 L-0.6895409237450061,0.6977103943712881 L-0.7409514779888924,0.726321662691413 L-0.7883467314571351,0.7561460153115918 L-0.8314698473414537,0.7870817034110871 L-0.8700871411577951,0.8190209554673891 L-0.9039893469623984,0.8518505613487899 L-0.9329927511648443,0.8854524858956208 L-0.9569401878000899,0.9197045086614313 L-0.9757018898764589,0.9544808863421981 L-0.9891761922015521,0.9896530342990357 L-0.9972900818970124,1.025090223474202 L-0.9999995936423144,1.0606602889178012 L-0.9972900475324815,1.0962303460779856 L-0.9891761282895974,1.1316675109676706 L-0.9757018054283128,1.1668396202976454 L-0.9569400948358349,1.2016159476701243 L-0.9329926630854197,1.2358679119471268 L-0.9039892766462556,1.2694697739540912 L-0.8700870989889609,1.3022993177431044 L-0.8314698393992201,1.334238512728808 L-0.7883467581017416,1.3651741531138424 L-0.7409515330644787,1.3949984711494967 L-0.6895409945851234,1.423609720920818 L-0.6343937344571888,1.4509127295089574 L-0.5758085971839851,1.4768194125628207 L-0.5141030613217927,1.5012492515078621 L-0.4496115196210795,1.524129729826148 L-0.38268346717140445,1.5453967260693653 L-0.31368160725235517,1.5649948614894456 L-0.24297988504923002,1.5828778004226252 L-0.09801662633209818,1.6133594204364026 L0.04906814254423719,1.6366600554166628 L0.19509042528565446,1.6527536487724677 L0.3368894210037825,1.6617702008339603 L0.4713959749718766,1.6639929531912683 L0.5956988068786955,1.6598522024862719 L0.707106781187615,1.649915822768365 " />
			<path d="M2.5202062658991053e-14,-1.4142135623731416 L0.7071067811865601,-1.1785113019775904 " />
			<path d="M2.5202062658991053e-14,-1.4142135623731416 L0.7071067811865853,-1.6499158227686843 " />
			<path d="M2.5202062658991053e-14,-1.4142135623731416 L2.5202062658991053e-14,-0.47140452079109363 " />
			<path d="M0.7071067811865601,-1.1785113019775904 L0.6964265225123886,-1.183421765735831 L0.6923753899118409,-1.1883322294940717 L0.6927436746937092,-1.1932426932523124 L0.6953216681667854,-1.1981531570105528 " />
			<path d="M0.7071067811865601,-1.1785113019775904 L0.6923753899118406,-1.1820713882023148 L0.6776439986371209,-1.1834217657358312 L0.6481812160876814,-1.1824396729841833 " />
			<path d="M0.7071067811865853,-1.6499158227686843 L0.6923753899118654,-1.64635573654396 L0.6776439986371455,-1.6450053590104439 L0.6481812160877061,-1.645987451762092 " />
			<path d="M0.7071067811865853,-1.6499158227686843 L0.6964265225124132,-1.6450053590104439 L0.6923753899118651,-1.6400948952522032 L0.6927436746937328,-1.6351844314939625 L0.6953216681668084,-1.630273967735722 " />
			<path d="M2.5202062658991053e-14,-0.47140452079109363 L0.0020255663002992008,-0.48902080952377913 L0.0073656956373852,-0.5033225352196529 L0.02357022603957716,-0.5264017148833808 " />
			<path d="M2.5202062658991053e-14,-0.47140452079109363 L-0.0020255663002488,-0.487670431990263 L-0.007365695637334803,-0.4984120714614124 L-0.014915533665628802,-0.5054708631138818 L-0.023570226039526767,-0.5106882308570113 " />
			<path d="M0.8802596117741123,-1.1637504671018173 L0.7740169329898274,-1.1573275421430411 " />
			<path d="M0.7740169329898275,-1.1573275421430413 L0.7535103759794384,-1.1200866617265413 " />
			<path d="M0.7535103759794385,-1.1200866617265413 L0.7331810560203256,-1.1268631017129134 " />
			<path d="M0.7331810560203256,-1.1268631017129134 L0.7517431844714457,-1.1565025458686589 " />
			<path d="M0.7517431844714456,-1.1565025458686589 L0.662647614952946,-1.150374248735377 " />
			<path d="M0.662647614952946,-1.150374248735377 L0.6426716182064377,-1.1570329143175475 " />
			<path d="M0.6426716182064377,-1.1570329143175475 L0.7543948349008955,-1.1638682415060195 " />
			<path d="M0.7543948349008955,-1.1638682415060198 L0.7743702562024344,-1.1990469189590494 " />
			<path d="M0.7743702562024343,-1.1990469189590494 L0.7943462529489426,-1.1923882533768788 " />
			<path d="M0.7943462529489426,-1.1923882533768788 L0.7768452450255797,-1.1645165761740999 " />
			<path d="M0.7768452450255798,-1.1645165761740996 L0.8606375136851804,-1.1702911664647957 " />
			<path d="M0.8606375136851803,-1.170291166464796 L0.8802596117741123,-1.1637504671018175 " />
			<path d="M0.7572231469366765,-1.7095780533388019 L0.7870985235308001,-1.6673283080739056 " />
			<path d="M0.7870985235308002,-1.6673283080739059 L0.8376565432966432,-1.650475634818622 " />
			<path d="M0.8376565432966432,-1.650475634818622 L0.821216080456067,-1.6449954805384295 " />
			<path d="M0.8212160804560671,-1.6449954805384295 L0.7706580606902241,-1.6618481537937133 " />
			<path d="M0.7706580606902241,-1.661848153793713 L0.6426716182064652,-1.6713942104287278 " />
			<path d="M0.6426716182064651,-1.6713942104287278 L0.6630009381655787,-1.6781706504150997 " />
			<path d="M0.6630009381655788,-1.6781706504150997 L0.7635869928783591,-1.669862184099154 " />
			<path d="M0.7635869928783591,-1.6698621840991543 L0.7376004734027722,-1.7030371621608333 " />
			<path d="M0.7376004734027722,-1.7030371621608333 L0.7572231469366766,-1.709578053338802 " />
			<path d="M-0.044105555298497814,-0.2848755677445973 L0.048702209732238225,-0.3158114894215123 " />
			<path d="M0.048702209732238204,-0.31581148942151227 L0.048702209732238204,-0.3356106327467277 " />
			<path d="M0.048702209732238204,-0.33561063274672787 L-0.02837288977307422,-0.4426196124182794 " />
			<path d="M-0.0283728897730742,-0.4426196124182793 L0.04905553294484283,-0.4684290866575875 " />
			<path d="M0.04905553294484282,-0.4684290866575874 L0.04905553294484282,-0.48775636510603454 " />
			<path d="M0.04905553294484282,-0.4877563651060344 L2.5202062658991053e-14,-0.4714045207910936 " />
			<path d="M2.5202062658991053e-14,-0.4714045207910936 L-0.04905553294479242,-0.45505267647615283 " />
			<path d="M-0.04905553294479242,-0.4550526764761529 L-0.04905553294479242,-0.43572539802770577 " />
			<path d="M-0.04905553294479242,-0.4357253980277057 L0.02837288977312461,-0.3283630951435496 " />
			<path d="M0.028372889773124604,-0.32836309514354967 L-0.04410555529849783,-0.3042036134530065 " />
			<path d="M-0.044105555298497814,-0.3042036134530066 L-0.044105555298497814,-0.2848755677445973 " />

        </g>
        </g>
    </svg>
    