<?xml version='1.0' encoding='utf-8'?>
<svg width="67.814554mm" height="102.920249mm" viewBox="-1.043221 -1.837094 2.090001 3.171936" version="1.1" xmlns="http://www.w3.org/2000/svg">
  <g transform="scale(1,-1)" stroke-linecap="round">
    <g fill="none" stroke="rgb(0,0,0)" stroke-width="0.01" id="Visible">
      <path d="M -0.706217,-1.132561 C -0.430488,-1.008513 0.01971,-0.927507 0.3833,-0.901188 C 0.750657,-0.872836 1.006218,-0.896854 1.001778,-0.923979 C 1.007213,-0.951101 0.752612,-0.975263 0.385625,-0.947116 C 0.022428,-0.921 -0.427999,-0.840247 -0.704438,-0.716354 C -0.987851,-0.594017 -1.077991,-0.432823 -0.922581,-0.290919 C -0.776301,-0.148175 -0.394863,-0.030329 0.000521,0.029612 C 0.395893,0.091753 0.777971,0.095982 0.925176,0.075181 C 1.081502,0.055224 0.992492,0.015842 0.709775,0.015207 C 0.434046,0.013019 -0.016152,0.053874 -0.379742,0.149415 C -0.747099,0.242924 -1.00266,0.388803 -0.99822,0.537788 C -1.003655,0.686771 -0.749054,0.832794 -0.382066,0.926507 C -0.01887,1.022252 0.431557,1.06336 0.707996,1.061327 C 0.991409,1.060851 1.081549,1.021517 0.92614,1.001474 C 0.779859,0.980591 0.398421,0.984606 0.003037,1.046525 C -0.392335,1.106245 -0.774413,1.223877 -0.921618,1.366538 C -1.077944,1.508355 -0.988934,1.669598 -0.706217,1.792094" />
      <line x1="0.001779" y1="-1.289841" x2="-0.352219" y2="-1.211201" />
      <line x1="0.001779" y1="-1.289841" x2="0.354887" y2="-1.211003" />
      <line x1="0.001779" y1="-1.289841" x2="0.001779" y2="-0.802399" />
      <path d="M -0.352219,-1.211201 C -0.342386,-1.213386 -0.332567,-1.212946 -0.322749,-1.212505" />
      <path d="M -0.352219,-1.211201 C -0.342386,-1.213386 -0.344337,-1.215574 -0.346289,-1.217761" />
      <path d="M 0.354887,-1.211003 C 0.345079,-1.213193 0.347055,-1.21538 0.349032,-1.217567" />
      <path d="M 0.354887,-1.211003 C 0.345079,-1.213193 0.335255,-1.212759 0.325432,-1.212324" />
      <path d="M 0.001779,-0.802399 C 0.001779,-0.815939 0.007664,-0.820041 0.013549,-0.824143" />
      <path d="M 0.001779,-0.802399 C 0.001779,-0.815939 -0.004106,-0.822669 -0.009991,-0.829399" />
      <line x1="-0.374469" y1="-1.191926" x2="-0.384037" y2="-1.20376" />
      <line x1="-0.384037" y1="-1.20376" x2="-0.439885" y2="-1.206059" />
      <line x1="-0.439885" y1="-1.206059" x2="-0.429707" y2="-1.20832" />
      <line x1="-0.429707" y1="-1.20832" x2="-0.38526" y2="-1.20624" />
      <line x1="-0.38526" y1="-1.20624" x2="-0.394396" y2="-1.216164" />
      <line x1="-0.394396" y1="-1.216164" x2="-0.384396" y2="-1.218386" />
      <line x1="-0.384396" y1="-1.218386" x2="-0.374213" y2="-1.205942" />
      <line x1="-0.374213" y1="-1.205942" x2="-0.321458" y2="-1.203703" />
      <line x1="-0.321458" y1="-1.203703" x2="-0.331458" y2="-1.201481" />
      <line x1="-0.331458" y1="-1.201481" x2="-0.373255" y2="-1.203442" />
      <line x1="-0.373255" y1="-1.203442" x2="-0.364646" y2="-1.194109" />
      <line x1="-0.364646" y1="-1.194109" x2="-0.374469" y2="-1.191926" />
      <line x1="0.444349" y1="-1.205398" x2="0.380956" y2="-1.202089" />
      <line x1="0.380956" y1="-1.202089" x2="0.355645" y2="-1.196466" />
      <line x1="0.355645" y1="-1.196466" x2="0.347435" y2="-1.198299" />
      <line x1="0.347435" y1="-1.198299" x2="0.372746" y2="-1.203922" />
      <line x1="0.372746" y1="-1.203922" x2="0.387145" y2="-1.218169" />
      <line x1="0.387145" y1="-1.218169" x2="0.397297" y2="-1.215903" />
      <line x1="0.397297" y1="-1.215903" x2="0.384771" y2="-1.204706" />
      <line x1="0.384771" y1="-1.204706" x2="0.43455" y2="-1.207585" />
      <line x1="0.43455" y1="-1.207585" x2="0.444349" y2="-1.205398" />
      <line x1="-0.020246" y1="-0.71848" x2="0.026099" y2="-0.708132" />
      <line x1="0.026099" y1="-0.708132" x2="0.026099" y2="-0.718369" />
      <line x1="0.026099" y1="-0.718369" x2="-0.01239" y2="-0.79557" />
      <line x1="-0.01239" y1="-0.79557" x2="0.026276" y2="-0.786937" />
      <line x1="0.026276" y1="-0.786937" x2="0.026276" y2="-0.796929" />
      <line x1="0.026276" y1="-0.796929" x2="0.001779" y2="-0.802399" />
      <line x1="0.001779" y1="-0.802399" x2="-0.022718" y2="-0.807868" />
      <line x1="-0.022718" y1="-0.807868" x2="-0.022718" y2="-0.797876" />
      <line x1="-0.022718" y1="-0.797876" x2="0.015948" y2="-0.720392" />
      <line x1="0.015948" y1="-0.720392" x2="-0.020246" y2="-0.728473" />
      <line x1="-0.020246" y1="-0.728473" x2="-0.020246" y2="-0.71848" />
    </g>
  </g>
</svg>