<?xml version="1.0" encoding="UTF-8" standalone="no"?>
    <svg
    xmlns:svg="http://www.w3.org/2000/svg"
    xmlns="http://www.w3.org/2000/svg"
    width="353"
    height="229"
    >
        <g transform="scale(100, -100)   translate(1.765247584249853,-1.1465175763756634)" stroke-width="0.01"  fill="none">
        <!-- hidden lines -->
        <g  stroke="rgb(160,160,160)" fill="none" stroke-dasharray="0.01,0.01" >
    			<path d="M-1.565247584249853,-0.7147173535897867 L-0.22360679774997894,-0.01931668523215635 " />
			<path d="M-0.22360679774997894,-0.01931668523215635 L-0.22360679774997894,0.9465175763756635 " />
			<path d="M1.565247584249853,-0.2511169080180331 L-0.22360679774997894,-0.01931668523215635 " />
			<path d="M-0.17888543819998315,-0.5756372199182602 L-0.22653038797649874,-0.5683552401094683 L-0.2698435701934117,-0.5594394926037703 L-0.3079967399547227,-0.5490604664298561 L-0.3402603233408161,-0.5374166317765687 L-0.3660173684931937,-0.5247306447990978 L-0.384775343113567,-0.5112450899354142 L-0.3961755527827448,-0.49721784114937556 L-0.4,-0.4829171308039104 " />
			<path d="M-0.4,-0.48291713080390947 L-0.39807389066887877,-0.47275626128033127 L-0.3923141121612922,-0.46269324648476146 L-0.38277613429288354,-0.45282499875068477 L-0.36955181300451473,-0.4432465546983133 L-0.3325878449210181,-0.42532438090408786 L-0.28284271247461906,-0.4096154641901263 L-0.22222809320784093,-0.3967234894160842 L-0.15307337294603596,-0.3871438879426252 L-0.07803612880645133,-0.38124479848207204 L-2.4492935982947065e-17,-0.3792529197341462 L0.07803612880645128,-0.38124479848207204 L0.1530733729460359,-0.3871438879426252 L0.2222280932078408,-0.39672348941608415 L0.282842712474619,-0.4096154641901263 L0.33258784492101817,-0.42532438090408786 L0.36955181300451473,-0.4432465546983133 L0.38277613429288354,-0.45282499875068477 L0.3923141121612922,-0.4626932464847614 L0.39807389066887877,-0.47275626128033127 L0.4,-0.48291713080390897 " />
			<path d="M0.4,-0.48291713080390947 L0.3967707901308432,-0.49606283008659235 L0.387135299505268,-0.5089962782599722 L0.37124910323038585,-0.5215086512316304 L0.3493687006151677,-0.5333979236101338 L0.32184737371994454,-0.5444721306169737 L0.28912948324682824,-0.5545524675593521 L0.2517432938698876,-0.5634761768195752 L0.21029244484765336,-0.5710991757475801 L0.11792865985212855,-0.5819737059497415 L0.01797929041288995,-0.5864765702954776 L-0.08312656995769717,-0.5843181287789071 L-0.17888543819997996,-0.5756372199182607 " />
			<path d="M-0.4000000000000001,0.48291713080390997 L-0.4000000000000001,-0.48291713080390997 " />
			<path d="M0.4000000000000001,0.48291713080390997 L0.4000000000000001,-0.48291713080390997 " />

        </g>

        <!-- solid lines -->
        <g  stroke="rgb(0,0,0)" fill="none">
    			<path d="M0.22360679774997894,-0.9465175763756635 L0.22360679774997894,0.01931668523215635 " />
			<path d="M0.22360679774997894,0.01931668523215635 L-1.565247584249853,0.2511169080180331 " />
			<path d="M-1.565247584249853,-0.7147173535897867 L-1.565247584249853,0.2511169080180331 " />
			<path d="M0.22360679774997894,-0.9465175763756635 L-1.565247584249853,-0.7147173535897867 " />
			<path d="M0.22360679774997894,-0.9465175763756635 L1.565247584249853,-0.2511169080180331 " />
			<path d="M1.565247584249853,-0.2511169080180331 L1.565247584249853,0.7147173535897867 " />
			<path d="M0.22360679774997894,0.01931668523215635 L1.565247584249853,0.7147173535897867 " />
			<path d="M-1.565247584249853,0.2511169080180331 L-0.22360679774997894,0.9465175763756635 " />
			<path d="M1.565247584249853,0.7147173535897867 L-0.22360679774997894,0.9465175763756635 " />
			<path d="M-0.17888543819998315,0.39019704168955915 L-0.22653038797649874,0.3974790214983511 L-0.2698435701934117,0.40639476900404903 L-0.3079967399547227,0.4167737951779633 L-0.3402603233408161,0.4284176298312507 L-0.3660173684931937,0.4411036168087215 L-0.384775343113567,0.45458917167240515 L-0.3961755527827448,0.4686164204584438 L-0.4,0.48291713080390897 " />
			<path d="M-0.4,0.4829171308039099 L-0.39807389066887877,0.4930780003274881 L-0.3923141121612922,0.5031410151230579 L-0.38277613429288354,0.5130092628571346 L-0.36955181300451473,0.5225877069095061 L-0.3325878449210181,0.5405098807037315 L-0.28284271247461906,0.5562187974176931 L-0.22222809320784093,0.5691107721917352 L-0.15307337294603596,0.5786903736651942 L-0.07803612880645133,0.5845894631257473 L-2.4492935982947065e-17,0.5865813418736732 L0.07803612880645128,0.5845894631257473 L0.1530733729460359,0.5786903736651942 L0.2222280932078408,0.5691107721917352 L0.282842712474619,0.5562187974176931 L0.33258784492101817,0.5405098807037315 L0.36955181300451473,0.5225877069095061 L0.38277613429288354,0.5130092628571346 L0.3923141121612922,0.503141015123058 L0.39807389066887877,0.4930780003274881 L0.4,0.4829171308039104 " />
			<path d="M0.4,0.4829171308039099 L0.3967707901308432,0.469771431521227 L0.387135299505268,0.4568379833478472 L0.37124910323038585,0.444325610376189 L0.3493687006151677,0.4324363379976855 L0.32184737371994454,0.4213621309908457 L0.28912948324682824,0.4112817940484673 L0.2517432938698876,0.4023580847882442 L0.21029244484765336,0.3947350858602393 L0.11792865985212855,0.38386055565807786 L0.01797929041288995,0.3793576913123417 L-0.08312656995769717,0.3815161328289123 L-0.17888543819997996,0.39019704168955877 " />

        </g>
        </g>
    </svg>
    