<?xml version='1.0' encoding='utf-8'?>
<svg width="100.090012mm" height="60.560803mm" viewBox="-1.566656 -0.947926 3.133313 1.895853" version="1.1" xmlns="http://www.w3.org/2000/svg">
  <g transform="scale(1,-1)" stroke-linecap="round">
    <g fill="none" stroke="rgb(0,0,0)" stroke-width="0.0028174456516497355" id="Visible">
      <line x1="0.223607" y1="-0.946518" x2="0.223607" y2="0.019317" />
      <line x1="0.223607" y1="0.019317" x2="-1.565248" y2="0.251117" />
      <line x1="-1.565248" y1="-0.714717" x2="-1.565248" y2="0.251117" />
      <line x1="0.223607" y1="-0.946518" x2="-1.565248" y2="-0.714717" />
      <line x1="0.223607" y1="-0.946518" x2="1.565248" y2="-0.251117" />
      <line x1="1.565248" y1="-0.251117" x2="1.565248" y2="0.714717" />
      <line x1="0.223607" y1="0.019317" x2="1.565248" y2="0.714717" />
      <line x1="-1.565248" y1="0.251117" x2="-0.223607" y2="0.946518" />
      <line x1="1.565248" y1="0.714717" x2="-0.223607" y2="0.946518" />
      <path d="M -0.178885,0.390197 A 0.4,0.10366421106976326 180.0 0,0 -0.4,0.482917" />
      <path d="M -0.4,0.482917 A 0.4,0.10366421106976326 180.0 0,0 0.4,0.482917" />
      <path d="M 0.4,0.482917 A 0.4,0.10366421106976326 180.0 0,0 -0.178885,0.390197" />
    </g>
    <g fill="none" stroke="rgb(99,99,99)" stroke-width="0.0028174456516497355" id="Hidden" stroke-dasharray="7.2e-05 0.008488">
      <line x1="-1.565248" y1="-0.714717" x2="-0.223607" y2="-0.019317" />
      <line x1="-0.223607" y1="-0.019317" x2="-0.223607" y2="0.946518" />
      <line x1="1.565248" y1="-0.251117" x2="-0.223607" y2="-0.019317" />
      <path d="M -0.178885,-0.575637 A 0.4,0.10366421106976326 180.0 0,0 -0.4,-0.482917" />
      <path d="M -0.4,-0.482917 A 0.4,0.10366421106976326 180.0 0,0 0.4,-0.482917" />
      <path d="M 0.4,-0.482917 A 0.4,0.10366421106976326 180.0 0,0 -0.178885,-0.575637" />
      <line x1="-0.4" y1="0.482917" x2="-0.4" y2="-0.482917" />
      <line x1="0.4" y1="0.482917" x2="0.4" y2="-0.482917" />
    </g>
  </g>
</svg>