<?xml version="1.0" encoding="UTF-8" standalone="no"?>
    <svg
    xmlns:svg="http://www.w3.org/2000/svg"
    xmlns="http://www.w3.org/2000/svg"
    width="93"
    height="155"
    >
        <g transform="scale(50, -50)   translate(1.3196614526171708,-1.5164461162259641)" stroke-width="0.02"  fill="none">
        <!-- hidden lines -->
        <g  stroke="rgb(160,160,160)" fill="none" stroke-dasharray="0.02,0.02" >
    
        </g>

        <!-- solid lines -->
        <g  stroke="rgb(0,0,0)" fill="none">
    			<path d="M-0.392713649054019,-0.36891961560422426 L-0.34626040049789064,-0.3987321698569781 L-0.3012299568860394,-0.42320725019726635 L-0.25775624065447156,-0.4422720667052551 L-0.2159685444663928,-0.45586991981363045 L-0.1759911466903833,-0.4639603689345002 L-0.1379429417912974,-0.4665193527314051 L-0.10193708673311241,-0.4635392606787476 L-0.06808066444535477,-0.4550289556958156 L-0.03647436535395765,-0.4410137477880858 L-0.007212187923690938,-0.4215353187742037 L0.01961884089723187,-0.3966515983224963 L0.04393892449896042,-0.36643659166570197 L0.06567573392849024,-0.330980159506288 L0.08476462299901366,-0.2903877507669377 L0.10114882055040109,-0.24478008898101455 L0.11477959928902504,-0.1942928132556856 L0.12561642070478185,-0.139076074875506 L0.13362705563432908,-0.07929409074617366 L0.13878768011197473,-0.015124655006533372 L0.14108294622315376,0.05324138973867587 L0.14050602774977416,0.12560071999277245 L0.13705864047167582,0.20173813605977298 L0.13075103706382962,0.2814272020573476 L0.12160197660444927,0.3644309193466797 L0.10963866878470396,0.4505024313763957 L0.09489669298594994,0.5393857578443443 L0.07741989246515169,0.6308165559938029 L0.05726024396318863,0.7245229067799682 L0.034477703123840464,0.8202261235686434 L0.009140026183174221,0.9176415809620353 L-0.04889193975578332,1.1164461162259476 " />
			<path d="M-0.8756535177779549,-0.36440911955513605 L-0.3927136490540184,-1.025145886415914 " />
			<path d="M-0.8756535177779549,-0.36440911955513605 L-0.8756535177779549,0.29181715125655333 " />
			<path d="M-0.8756535177779549,-0.36440911955513605 L0.0,0.0 " />
			<path d="M-0.3927136490540185,-1.025145886415914 L-0.4078055199516415,-0.9976621721305595 L-0.41686064249021537,-0.9702348390458186 " />
			<path d="M-0.3927136490540185,-1.025145886415914 L-0.40139147482015175,-1.015153087474647 L-0.4078055199516415,-1.0113335527724696 L-0.41686064249021537,-1.0139832570999312 " />
			<path d="M-0.8756535177779549,0.29181715125655333 L-0.8770369392769036,0.28191832098297576 L-0.8806841414104959,0.27819275494848783 L-0.8858405306338504,0.2785826984067264 L-0.891751513402086,0.28103039661132806 " />
			<path d="M-0.8756535177779549,0.29181715125655333 L-0.8742700962790061,0.2781328499228359 L-0.8706228941454138,0.2644274056388883 L-0.8595555221538237,0.2369812788206096 " />
			<path d="M0.0,0.0 L-0.01573439914757261,-0.004668161528743702 L-0.027364172430561072,-0.004552094665142911 L-0.043782675888897817,0.003653753049299473 " />
			<path d="M0.0,0.0 L-0.01573439914757261,-0.008427791205269004 L-0.027364172430561072,-0.0182234753070531 L-0.043782675888897817,-0.04009466500481314 " />
			<path d="M-0.3184616442377133,-1.0669354919892127 L-0.3481623675607411,-1.0845403699036038 " />
			<path d="M-0.34816236756074115,-1.0845403699036038 L-0.31701298183853005,-1.1885148318693037 " />
			<path d="M-0.31701298183853,-1.1885148318693037 L-0.3308975030643432,-1.1695186498220564 " />
			<path d="M-0.3308975030643432,-1.1695186498220564 L-0.35492344711938195,-1.086774122448549 " />
			<path d="M-0.35492344711938195,-1.086774122448549 L-0.37907044055557876,-1.1036105874948599 " />
			<path d="M-0.3790704405555788,-1.1036105874948596 L-0.3927136490540185,-1.0849445587474598 " />
			<path d="M-0.3927136490540185,-1.0849445587474598 L-0.3615638703143361,-1.0662050321650087 " />
			<path d="M-0.361563870314336,-1.0662050321650087 L-0.39078196818261696,-0.9679900536100198 " />
			<path d="M-0.390781968182617,-0.9679900536100197 L-0.3771387596841773,-0.9866560823574196 " />
			<path d="M-0.3771387596841773,-0.9866560823574198 L-0.35456147802832183,-1.0644653826799526 " />
			<path d="M-0.35456147802832183,-1.0644653826799526 L-0.3318631469913083,-1.0486001542506176 " />
			<path d="M-0.33186314699130826,-1.0486001542506176 L-0.3184616442377133,-1.0669354919892127 " />
			<path d="M-0.9196614526171707,0.45833571239445364 L-0.8661757049490062,0.34020729402277755 " />
			<path d="M-0.8661757049490062,0.34020729402277755 L-0.831645582938739,0.2929647227340234 " />
			<path d="M-0.831645582938739,0.29296472273402335 L-0.831645582938739,0.27770724832232907 " />
			<path d="M-0.831645582938739,0.2777072483223291 L-0.8661757049490062,0.32494981961108327 " />
			<path d="M-0.8661757049490062,0.3249498196110833 L-0.9196614526171707,0.3520268429076375 " />
			<path d="M-0.9196614526171707,0.35202684290763747 L-0.9196614526171707,0.3708933481934735 " />
			<path d="M-0.9196614526171707,0.3708933481934736 L-0.8768005392679213,0.34736117243066617 " />
			<path d="M-0.8768005392679213,0.34736117243066617 L-0.9196614526171707,0.44012500614878425 " />
			<path d="M-0.9196614526171707,0.4401250061487843 L-0.9196614526171707,0.45833571239445375 " />
			<path d="M0.15958799613676378,0.025481721323747097 L0.15958799613676378,0.11161141936778132 " />
			<path d="M0.15958799613676378,0.11161141936778135 L0.14119912974169532,0.10395876854574336 " />
			<path d="M0.14119912974169513,0.10395876854574332 L0.017950612070985167,-0.018861024403521567 " />
			<path d="M0.01795061207098514,-0.01886102440352161 L0.017950612070985136,0.05299596586568091 " />
			<path d="M0.01795061207098514,0.05299596586568095 L-1.1449174941446927e-16,0.04552569753756093 " />
			<path d="M0.0,0.04552569753756097 L3.024748163396322e-18,2.7755575615628914e-17 " />
			<path d="M3.024748163396322e-18,2.7755575615628914e-17 L6.049496326792644e-18,-0.045525697537560916 " />
			<path d="M0.0,-0.04552569753756097 L0.017950612070985254,-0.03805542920944095 " />
			<path d="M0.01795061207098536,-0.03805542920944094 L0.1416366714571215,0.08527434919692457 " />
			<path d="M0.14163667145712144,0.08527434919692456 L0.14163667145712144,0.018011156438726403 " />
			<path d="M0.14163667145712144,0.01801115643872636 L0.15958799613676372,0.025481721323747052 " />

        </g>
        </g>
    </svg>
    