<?xml version='1.0' encoding='utf-8'?>
<svg width="300.403752mm" height="146.748342mm" viewBox="-25.033646 -12.229028 50.067292 24.458057" version="1.1" xmlns="http://www.w3.org/2000/svg">
  <g transform="scale(1,-1)" stroke-linecap="round">
    <g fill="none" stroke="rgb(0,0,0)" stroke-width="0.09" id="Visible">
      <path d="M 12.532303,-0.132169 A 3.25,2.707419959968692 0.0 0,1 12.895392,-1.375692" />
      <path d="M 18.934748,-0.790539 A 3.25,2.707419959968692 0.0 0,1 19.032303,-0.132169" />
      <path d="M 18.988083,4.95976 A 3.25,2.707419959968692 0.0 0,1 12.532303,4.514663" />
      <path d="M 12.532303,4.514663 A 3.25,2.707419959968692 0.0 0,1 19.032303,4.514663" />
      <path d="M 19.032303,4.514663 A 3.25,2.707419959968692 0.0 0,1 18.988083,4.95976" />
      <path d="M 18.149648,4.84335 A 2.4,1.999325508899957 0.0 0,1 13.382303,4.514663" />
      <path d="M 13.382303,4.514663 A 2.4,1.999325508899957 0.0 0,1 18.182303,4.514663" />
      <path d="M 18.182303,4.514663 A 2.4,1.999325508899957 0.0 0,1 18.149648,4.84335" />
      <line x1="-24.988646" y1="0.963455" x2="-24.988646" y2="5.610287" />
      <line x1="-22.358262" y1="-12.184028" x2="-22.358262" y2="-7.537197" />
      <line x1="-24.988646" y1="0.963455" x2="-22.358262" y2="-12.184028" />
      <line x1="-24.988646" y1="5.610287" x2="-22.358262" y2="-7.537197" />
      <line x1="22.358262" y1="12.184028" x2="-24.988646" y2="5.610287" />
      <line x1="24.988646" y1="-5.610287" x2="24.988646" y2="-0.963455" />
      <line x1="-22.358262" y1="-12.184028" x2="24.988646" y2="-5.610287" />
      <line x1="-22.358262" y1="-7.537197" x2="24.988646" y2="-0.963455" />
      <line x1="24.988646" y1="-0.963455" x2="22.358262" y2="12.184028" />
      <line x1="-23.196697" y1="2.734275" x2="-23.607695" y2="4.788569" />
      <line x1="-23.196697" y1="2.734275" x2="-22.900779" y2="2.775361" />
      <line x1="-22.80214" y1="0.762152" x2="-22.80214" y2="2.28233" />
      <line x1="-22.80214" y1="2.28233" x2="-22.900779" y2="2.775361" />
      <line x1="-23.098058" y1="2.241244" x2="-22.80214" y2="2.28233" />
      <line x1="-21.881505" y1="-3.839467" x2="-23.098058" y2="2.241244" />
      <line x1="-21.881505" y1="-3.839467" x2="-21.585587" y2="-3.798381" />
      <line x1="-21.486948" y1="-5.81159" x2="-21.486948" y2="-4.291412" />
      <line x1="-21.486948" y1="-4.291412" x2="-21.585587" y2="-3.798381" />
      <line x1="-21.782866" y1="-4.332498" x2="-21.486948" y2="-4.291412" />
      <line x1="-21.371868" y1="-6.386792" x2="-21.782866" y2="-4.332498" />
      <line x1="-21.371868" y1="-6.386792" x2="-18.905884" y2="-6.04441" />
      <line x1="-18.955203" y1="-6.051257" x2="-18.955203" y2="-5.797894" />
      <line x1="-18.905884" y1="-6.04441" x2="-18.955203" y2="-5.797894" />
      <line x1="-18.955203" y1="-5.797894" x2="-18.363367" y2="-5.715723" />
      <line x1="-18.314047" y1="-5.962238" x2="-18.363367" y2="-5.715723" />
      <line x1="-18.314047" y1="-5.962238" x2="-11.014732" y2="-4.948786" />
      <line x1="-11.064052" y1="-4.955634" x2="-11.064052" y2="-4.702271" />
      <line x1="-11.014732" y1="-4.948786" x2="-11.064052" y2="-4.702271" />
      <line x1="-11.064052" y1="-4.702271" x2="-10.472215" y2="-4.620099" />
      <line x1="-10.422896" y1="-4.866614" x2="-10.472215" y2="-4.620099" />
      <line x1="-10.422896" y1="-4.866614" x2="-3.123581" y2="-3.853162" />
      <line x1="-3.1729" y1="-3.86001" x2="-3.1729" y2="-3.606647" />
      <line x1="-3.123581" y1="-3.853162" x2="-3.1729" y2="-3.606647" />
      <line x1="-3.1729" y1="-3.606647" x2="-2.581064" y2="-3.524475" />
      <line x1="-2.531744" y1="-3.770991" x2="-2.581064" y2="-3.524475" />
      <line x1="-2.531744" y1="-3.770991" x2="4.767571" y2="-2.757539" />
      <line x1="4.718251" y1="-2.764386" x2="4.718251" y2="-2.511023" />
      <line x1="4.767571" y1="-2.757539" x2="4.718251" y2="-2.511023" />
      <line x1="4.718251" y1="-2.511023" x2="5.310087" y2="-2.428852" />
      <line x1="5.359407" y1="-2.675367" x2="5.310087" y2="-2.428852" />
      <line x1="5.359407" y1="-2.675367" x2="12.658722" y2="-1.661915" />
      <line x1="12.609402" y1="-1.668763" x2="12.609402" y2="-1.4154" />
      <line x1="12.658722" y1="-1.661915" x2="12.609402" y2="-1.4154" />
      <line x1="12.609402" y1="-1.4154" x2="13.201239" y2="-1.333228" />
      <line x1="13.250558" y1="-1.579743" x2="13.201239" y2="-1.333228" />
      <line x1="13.250558" y1="-1.579743" x2="20.549873" y2="-0.566291" />
      <line x1="20.500554" y1="-0.573139" x2="20.500554" y2="-0.319776" />
      <line x1="20.549873" y1="-0.566291" x2="20.500554" y2="-0.319776" />
      <line x1="20.500554" y1="-0.319776" x2="21.09239" y2="-0.237604" />
      <line x1="21.14171" y1="-0.48412" x2="21.09239" y2="-0.237604" />
      <line x1="21.14171" y1="-0.48412" x2="23.607695" y2="-0.141737" />
      <line x1="23.196697" y1="-0.198801" x2="23.196697" y2="1.912557" />
      <line x1="23.607695" y1="-0.141737" x2="23.196697" y2="1.912557" />
      <line x1="22.900779" y1="-0.239887" x2="22.900779" y2="1.871471" />
      <line x1="22.900779" y1="1.871471" x2="23.196697" y2="1.912557" />
      <line x1="22.80214" y1="-0.253582" x2="22.80214" y2="2.364502" />
      <line x1="22.900779" y1="1.871471" x2="22.80214" y2="2.364502" />
      <line x1="22.80214" y1="2.364502" x2="23.098058" y2="2.405588" />
      <line x1="21.881505" y1="3.839467" x2="21.881505" y2="8.486299" />
      <line x1="22.703141" y1="-0.267327" x2="21.881505" y2="3.839467" />
      <line x1="23.098058" y1="2.405588" x2="21.881505" y2="8.486299" />
      <line x1="21.585587" y1="3.798381" x2="21.585587" y2="8.445213" />
      <line x1="21.585587" y1="3.798381" x2="21.881505" y2="3.839467" />
      <line x1="21.585587" y1="8.445213" x2="21.881505" y2="8.486299" />
      <line x1="21.486948" y1="4.291412" x2="21.486948" y2="8.938243" />
      <line x1="21.585587" y1="3.798381" x2="21.486948" y2="4.291412" />
      <line x1="21.585587" y1="8.445213" x2="21.486948" y2="8.938243" />
      <line x1="21.486948" y1="8.938243" x2="21.782866" y2="8.979329" />
      <line x1="21.371868" y1="6.386792" x2="21.371868" y2="11.033624" />
      <line x1="21.486948" y1="5.81159" x2="21.371868" y2="6.386792" />
      <line x1="21.782866" y1="8.979329" x2="21.371868" y2="11.033624" />
      <line x1="18.955203" y1="6.051257" x2="21.371868" y2="6.386792" />
      <line x1="18.905884" y1="10.691241" x2="21.371868" y2="11.033624" />
      <line x1="18.955203" y1="5.797894" x2="18.955203" y2="10.444726" />
      <line x1="18.955203" y1="10.444726" x2="18.905884" y2="10.691241" />
      <line x1="18.363367" y1="6.159938" x2="18.363367" y2="10.362554" />
      <line x1="18.669213" y1="5.758187" x2="18.955203" y2="5.797894" />
      <line x1="18.363367" y1="10.362554" x2="18.955203" y2="10.444726" />
      <line x1="18.314047" y1="6.212286" x2="18.314047" y2="10.60907" />
      <line x1="18.363367" y1="10.362554" x2="18.314047" y2="10.60907" />
      <line x1="11.064052" y1="4.955634" x2="12.629858" y2="5.173033" />
      <line x1="11.014732" y1="9.595618" x2="18.314047" y2="10.60907" />
      <line x1="11.064052" y1="4.702271" x2="11.064052" y2="9.349102" />
      <line x1="11.064052" y1="9.349102" x2="11.014732" y2="9.595618" />
      <line x1="10.472215" y1="5.064314" x2="10.472215" y2="9.266931" />
      <line x1="10.778062" y1="4.662563" x2="11.064052" y2="4.702271" />
      <line x1="10.472215" y1="9.266931" x2="11.064052" y2="9.349102" />
      <line x1="10.422896" y1="5.116662" x2="10.422896" y2="9.513446" />
      <line x1="10.472215" y1="9.266931" x2="10.422896" y2="9.513446" />
      <line x1="3.1729" y1="3.86001" x2="4.738707" y2="4.07741" />
      <line x1="3.123581" y1="8.499994" x2="10.422896" y2="9.513446" />
      <line x1="3.1729" y1="3.606647" x2="3.1729" y2="8.253479" />
      <line x1="3.1729" y1="8.253479" x2="3.123581" y2="8.499994" />
      <line x1="2.581064" y1="3.968691" x2="2.581064" y2="8.171307" />
      <line x1="2.88691" y1="3.56694" x2="3.1729" y2="3.606647" />
      <line x1="2.581064" y1="8.171307" x2="3.1729" y2="8.253479" />
      <line x1="2.531744" y1="4.021039" x2="2.531744" y2="8.417822" />
      <line x1="2.581064" y1="8.171307" x2="2.531744" y2="8.417822" />
      <line x1="-4.718251" y1="2.764386" x2="-3.152445" y2="2.981786" />
      <line x1="-4.767571" y1="7.40437" x2="2.531744" y2="8.417822" />
      <line x1="-4.718251" y1="2.511023" x2="-4.718251" y2="7.157855" />
      <line x1="-4.718251" y1="7.157855" x2="-4.767571" y2="7.40437" />
      <line x1="-5.310087" y1="2.873067" x2="-5.310087" y2="7.075683" />
      <line x1="-5.004241" y1="2.471316" x2="-4.718251" y2="2.511023" />
      <line x1="-5.310087" y1="7.075683" x2="-4.718251" y2="7.157855" />
      <line x1="-5.359407" y1="2.925415" x2="-5.359407" y2="7.322199" />
      <line x1="-5.310087" y1="7.075683" x2="-5.359407" y2="7.322199" />
      <line x1="-12.609402" y1="1.668763" x2="-11.043596" y2="1.886162" />
      <line x1="-12.658722" y1="6.308747" x2="-5.359407" y2="7.322199" />
      <line x1="-12.609402" y1="1.4154" x2="-12.609402" y2="6.062231" />
      <line x1="-12.609402" y1="6.062231" x2="-12.658722" y2="6.308747" />
      <line x1="-13.201239" y1="1.777443" x2="-13.201239" y2="5.98006" />
      <line x1="-12.895392" y1="1.375692" x2="-12.609402" y2="1.4154" />
      <line x1="-13.201239" y1="5.98006" x2="-12.609402" y2="6.062231" />
      <line x1="-13.250558" y1="1.829791" x2="-13.250558" y2="6.226575" />
      <line x1="-13.201239" y1="5.98006" x2="-13.250558" y2="6.226575" />
      <line x1="-20.500554" y1="0.573139" x2="-18.934748" y2="0.790539" />
      <line x1="-20.549873" y1="5.213123" x2="-13.250558" y2="6.226575" />
      <line x1="-20.500554" y1="0.319776" x2="-20.500554" y2="4.966608" />
      <line x1="-20.500554" y1="4.966608" x2="-20.549873" y2="5.213123" />
      <line x1="-21.09239" y1="0.237604" x2="-21.09239" y2="4.884436" />
      <line x1="-21.09239" y1="0.237604" x2="-20.500554" y2="0.319776" />
      <line x1="-21.09239" y1="4.884436" x2="-20.500554" y2="4.966608" />
      <line x1="-21.14171" y1="0.48412" x2="-21.14171" y2="5.130951" />
      <line x1="-21.09239" y1="0.237604" x2="-21.14171" y2="0.48412" />
      <line x1="-21.09239" y1="4.884436" x2="-21.14171" y2="5.130951" />
      <line x1="-22.703141" y1="0.267327" x2="-21.14171" y2="0.48412" />
      <line x1="-23.607695" y1="4.788569" x2="-21.14171" y2="5.130951" />
      <path d="M -19.032303,-4.514663 A 3.25,2.707419959968692 0.0 0,1 -18.669213,-5.758187" />
      <path d="M -12.629858,-5.173033 A 3.25,2.707419959968692 0.0 0,1 -12.532303,-4.514663" />
      <path d="M -12.576523,0.577266 A 3.25,2.707419959968692 0.0 0,1 -19.032303,0.132169" />
      <path d="M -19.032303,0.132169 A 3.25,2.707419959968692 0.0 0,1 -12.532303,0.132169" />
      <path d="M -12.532303,0.132169 A 3.25,2.707419959968692 0.0 0,1 -12.576523,0.577266" />
      <path d="M -13.414957,0.460856 A 2.4,1.999325508899957 0.0 0,1 -18.182303,0.132169" />
      <path d="M -18.182303,0.132169 A 2.4,1.999325508899957 0.0 0,1 -13.382303,0.132169" />
      <path d="M -13.382303,0.132169 A 2.4,1.999325508899957 0.0 0,1 -13.414957,0.460856" />
      <path d="M -11.141151,-3.419039 A 3.25,2.707419959968692 0.0 0,1 -10.778062,-4.662563" />
      <path d="M -4.738707,-4.07741 A 3.25,2.707419959968692 0.0 0,1 -4.641151,-3.419039" />
      <path d="M -4.685371,1.672889 A 3.25,2.707419959968692 0.0 0,1 -11.141151,1.227792" />
      <path d="M -11.141151,1.227792 A 3.250000000000001,2.7074199599686923 0.0 0,1 -4.641151,1.227792" />
      <path d="M -4.641151,1.227792 A 3.25,2.707419959968692 0.0 0,1 -4.685371,1.672889" />
      <path d="M -5.523806,1.556479 A 2.4,1.999325508899957 0.0 0,1 -10.291151,1.227792" />
      <path d="M -10.291151,1.227792 A 2.4,1.999325508899957 0.0 0,1 -5.491151,1.227792" />
      <path d="M -5.491151,1.227792 A 2.4,1.999325508899957 0.0 0,1 -5.523806,1.556479" />
      <path d="M -3.25,-2.323416 A 3.25,2.707419959968692 0.0 0,1 -2.88691,-3.56694" />
      <path d="M 3.152445,-2.981786 A 3.25,2.707419959968692 0.0 0,1 3.25,-2.323416" />
      <path d="M 3.20578,2.768513 A 3.25,2.707419959968692 0.0 0,1 -3.25,2.323416" />
      <path d="M -3.25,2.323416 A 3.25,2.707419959968692 0.0 0,1 3.25,2.323416" />
      <path d="M 3.25,2.323416 A 3.25,2.707419959968692 0.0 0,1 3.20578,2.768513" />
      <path d="M 2.367345,2.652103 A 2.4,1.999325508899957 0.0 0,1 -2.4,2.323416" />
      <path d="M -2.4,2.323416 A 2.4,1.999325508899957 0.0 0,1 2.4,2.323416" />
      <path d="M 2.4,2.323416 A 2.4,1.999325508899957 0.0 0,1 2.367345,2.652103" />
      <path d="M 4.641151,-1.227792 A 3.25,2.707419959968692 0.0 0,1 5.004241,-2.471316" />
      <path d="M 11.043596,-1.886162 A 3.25,2.707419959968692 0.0 0,1 11.141151,-1.227792" />
      <path d="M 11.096932,3.864137 A 3.25,2.707419959968692 0.0 0,1 4.641151,3.419039" />
      <path d="M 4.641151,3.419039 A 3.250000000000001,2.7074199599686923 0.0 0,1 11.141151,3.419039" />
      <path d="M 11.141151,3.419039 A 3.25,2.707419959968692 0.0 0,1 11.096932,3.864137" />
      <path d="M 10.258497,3.747727 A 2.4,1.999325508899957 0.0 0,1 5.491151,3.419039" />
      <path d="M 5.491151,3.419039 A 2.4,1.999325508899957 0.0 0,1 10.291151,3.419039" />
      <path d="M 10.291151,3.419039 A 2.4,1.999325508899957 0.0 0,1 10.258497,3.747727" />
      <line x1="12.532303" y1="4.514663" x2="12.532303" y2="-0.132169" />
      <line x1="19.032303" y1="4.514663" x2="19.032303" y2="-0.132169" />
      <line x1="-19.032303" y1="0.132169" x2="-19.032303" y2="-4.514663" />
      <line x1="-12.532303" y1="0.132169" x2="-12.532303" y2="-4.514663" />
      <line x1="-11.141151" y1="1.227792" x2="-11.141151" y2="-3.419039" />
      <line x1="-4.641151" y1="1.227792" x2="-4.641151" y2="-3.419039" />
      <line x1="-3.25" y1="2.323416" x2="-3.25" y2="-2.323416" />
      <line x1="3.25" y1="2.323416" x2="3.25" y2="-2.323416" />
      <line x1="4.641151" y1="3.419039" x2="4.641151" y2="-1.227792" />
      <line x1="11.141151" y1="3.419039" x2="11.141151" y2="-1.227792" />
    </g>
    <g fill="none" stroke="rgb(99,99,99)" stroke-width="0.09" id="Hidden" stroke-dasharray="0.0 0.27">
      <path d="M 18.988083,0.312929 A 3.25,2.707419959968692 0.0 0,1 12.532303,-0.132169" />
      <path d="M 12.895392,-1.375692 A 3.25,2.707419959968692 0.0 0,1 18.934748,-0.790539" />
      <path d="M 19.032303,-0.132169 A 3.25,2.707419959968692 0.0 0,1 18.988083,0.312929" />
      <path d="M 18.149648,0.196519 A 2.4,1.999325508899957 0.0 0,1 13.382303,-0.132169" />
      <path d="M 13.382303,-0.132169 A 2.4,1.999325508899957 0.0 0,1 18.182303,-0.132169" />
      <path d="M 18.182303,-0.132169 A 2.4,1.999325508899957 0.0 0,1 18.149648,0.196519" />
      <line x1="22.358262" y1="7.537197" x2="22.358262" y2="12.184028" />
      <line x1="22.358262" y1="7.537197" x2="-24.988646" y2="0.963455" />
      <line x1="24.988646" y1="-5.610287" x2="22.358262" y2="7.537197" />
      <line x1="-23.196697" y1="-1.912557" x2="-23.196697" y2="2.734275" />
      <line x1="-23.607695" y1="0.141737" x2="-23.607695" y2="4.788569" />
      <line x1="-23.196697" y1="-1.912557" x2="-23.607695" y2="0.141737" />
      <line x1="-22.900779" y1="-1.871471" x2="-22.900779" y2="2.775361" />
      <line x1="-23.196697" y1="-1.912557" x2="-22.900779" y2="-1.871471" />
      <line x1="-22.80214" y1="-2.364502" x2="-22.80214" y2="0.762152" />
      <line x1="-22.80214" y1="-2.364502" x2="-22.900779" y2="-1.871471" />
      <line x1="-23.098058" y1="-2.405588" x2="-23.098058" y2="2.241244" />
      <line x1="-23.098058" y1="-2.405588" x2="-22.80214" y2="-2.364502" />
      <line x1="-21.881505" y1="-8.486299" x2="-21.881505" y2="-3.839467" />
      <line x1="-21.881505" y1="-8.486299" x2="-23.098058" y2="-2.405588" />
      <line x1="-21.585587" y1="-8.445213" x2="-21.585587" y2="-3.798381" />
      <line x1="-21.881505" y1="-8.486299" x2="-21.585587" y2="-8.445213" />
      <line x1="-21.486948" y1="-8.938243" x2="-21.486948" y2="-5.81159" />
      <line x1="-21.486948" y1="-8.938243" x2="-21.585587" y2="-8.445213" />
      <line x1="-21.782866" y1="-8.979329" x2="-21.782866" y2="-4.332498" />
      <line x1="-21.782866" y1="-8.979329" x2="-21.486948" y2="-8.938243" />
      <line x1="-21.371868" y1="-11.033624" x2="-21.371868" y2="-6.386792" />
      <line x1="-21.371868" y1="-11.033624" x2="-21.782866" y2="-8.979329" />
      <line x1="-18.905884" y1="-10.691241" x2="-18.905884" y2="-6.04441" />
      <line x1="-21.371868" y1="-11.033624" x2="-18.905884" y2="-10.691241" />
      <line x1="-18.955203" y1="-10.444726" x2="-18.955203" y2="-6.051257" />
      <line x1="-18.905884" y1="-10.691241" x2="-18.955203" y2="-10.444726" />
      <line x1="-18.363367" y1="-10.362554" x2="-18.363367" y2="-5.715723" />
      <line x1="-18.955203" y1="-10.444726" x2="-18.363367" y2="-10.362554" />
      <line x1="-18.314047" y1="-10.60907" x2="-18.314047" y2="-5.962238" />
      <line x1="-18.314047" y1="-10.60907" x2="-18.363367" y2="-10.362554" />
      <line x1="-11.014732" y1="-9.595618" x2="-11.014732" y2="-4.948786" />
      <line x1="-18.314047" y1="-10.60907" x2="-11.014732" y2="-9.595618" />
      <line x1="-11.064052" y1="-9.349102" x2="-11.064052" y2="-4.955634" />
      <line x1="-11.014732" y1="-9.595618" x2="-11.064052" y2="-9.349102" />
      <line x1="-10.472215" y1="-9.266931" x2="-10.472215" y2="-4.620099" />
      <line x1="-11.064052" y1="-9.349102" x2="-10.472215" y2="-9.266931" />
      <line x1="-10.422896" y1="-9.513446" x2="-10.422896" y2="-4.866614" />
      <line x1="-10.422896" y1="-9.513446" x2="-10.472215" y2="-9.266931" />
      <line x1="-3.123581" y1="-8.499994" x2="-3.123581" y2="-3.853162" />
      <line x1="-10.422896" y1="-9.513446" x2="-3.123581" y2="-8.499994" />
      <line x1="-3.1729" y1="-8.253479" x2="-3.1729" y2="-3.86001" />
      <line x1="-3.123581" y1="-8.499994" x2="-3.1729" y2="-8.253479" />
      <line x1="-2.581064" y1="-8.171307" x2="-2.581064" y2="-3.524475" />
      <line x1="-3.1729" y1="-8.253479" x2="-2.581064" y2="-8.171307" />
      <line x1="-2.531744" y1="-8.417822" x2="-2.531744" y2="-3.770991" />
      <line x1="-2.531744" y1="-8.417822" x2="-2.581064" y2="-8.171307" />
      <line x1="4.767571" y1="-7.40437" x2="4.767571" y2="-2.757539" />
      <line x1="-2.531744" y1="-8.417822" x2="4.767571" y2="-7.40437" />
      <line x1="4.718251" y1="-7.157855" x2="4.718251" y2="-2.764386" />
      <line x1="4.767571" y1="-7.40437" x2="4.718251" y2="-7.157855" />
      <line x1="5.310087" y1="-7.075683" x2="5.310087" y2="-2.428852" />
      <line x1="4.718251" y1="-7.157855" x2="5.310087" y2="-7.075683" />
      <line x1="5.359407" y1="-7.322199" x2="5.359407" y2="-2.675367" />
      <line x1="5.359407" y1="-7.322199" x2="5.310087" y2="-7.075683" />
      <line x1="12.658722" y1="-6.308747" x2="12.658722" y2="-1.661915" />
      <line x1="5.359407" y1="-7.322199" x2="12.658722" y2="-6.308747" />
      <line x1="12.609402" y1="-6.062231" x2="12.609402" y2="-1.668763" />
      <line x1="12.658722" y1="-6.308747" x2="12.609402" y2="-6.062231" />
      <line x1="13.201239" y1="-5.98006" x2="13.201239" y2="-1.333228" />
      <line x1="12.609402" y1="-6.062231" x2="13.201239" y2="-5.98006" />
      <line x1="13.250558" y1="-6.226575" x2="13.250558" y2="-1.579743" />
      <line x1="13.250558" y1="-6.226575" x2="13.201239" y2="-5.98006" />
      <line x1="20.549873" y1="-5.213123" x2="20.549873" y2="-0.566291" />
      <line x1="13.250558" y1="-6.226575" x2="20.549873" y2="-5.213123" />
      <line x1="20.500554" y1="-4.966608" x2="20.500554" y2="-0.573139" />
      <line x1="20.549873" y1="-5.213123" x2="20.500554" y2="-4.966608" />
      <line x1="21.09239" y1="-4.884436" x2="21.09239" y2="-0.237604" />
      <line x1="20.500554" y1="-4.966608" x2="21.09239" y2="-4.884436" />
      <line x1="21.14171" y1="-5.130951" x2="21.14171" y2="-0.48412" />
      <line x1="21.14171" y1="-5.130951" x2="21.09239" y2="-4.884436" />
      <line x1="23.607695" y1="-4.788569" x2="23.607695" y2="-0.141737" />
      <line x1="21.14171" y1="-5.130951" x2="23.607695" y2="-4.788569" />
      <line x1="23.196697" y1="-2.734275" x2="23.196697" y2="-0.198801" />
      <line x1="23.607695" y1="-4.788569" x2="23.196697" y2="-2.734275" />
      <line x1="22.900779" y1="-2.775361" x2="22.900779" y2="-0.239887" />
      <line x1="22.900779" y1="-2.775361" x2="23.196697" y2="-2.734275" />
      <line x1="22.80214" y1="-2.28233" x2="22.80214" y2="-0.253582" />
      <line x1="22.900779" y1="-2.775361" x2="22.80214" y2="-2.28233" />
      <line x1="23.098058" y1="-2.241244" x2="23.098058" y2="2.405588" />
      <line x1="22.80214" y1="-2.28233" x2="23.098058" y2="-2.241244" />
      <line x1="23.098058" y1="-2.241244" x2="22.703141" y2="-0.267327" />
      <line x1="21.782866" y1="4.332498" x2="21.782866" y2="8.979329" />
      <line x1="21.486948" y1="4.291412" x2="21.782866" y2="4.332498" />
      <line x1="21.782866" y1="4.332498" x2="21.486948" y2="5.81159" />
      <line x1="18.905884" y1="6.04441" x2="18.905884" y2="10.691241" />
      <line x1="18.905884" y1="6.04441" x2="18.955203" y2="6.051257" />
      <line x1="18.955203" y1="5.797894" x2="18.905884" y2="6.04441" />
      <line x1="18.363367" y1="5.715723" x2="18.363367" y2="6.159938" />
      <line x1="18.363367" y1="5.715723" x2="18.669213" y2="5.758187" />
      <line x1="18.314047" y1="5.962238" x2="18.314047" y2="6.212286" />
      <line x1="18.363367" y1="5.715723" x2="18.314047" y2="5.962238" />
      <line x1="11.014732" y1="4.948786" x2="11.014732" y2="9.595618" />
      <line x1="11.014732" y1="4.948786" x2="11.064052" y2="4.955634" />
      <line x1="12.629858" y1="5.173033" x2="18.314047" y2="5.962238" />
      <line x1="11.064052" y1="4.702271" x2="11.014732" y2="4.948786" />
      <line x1="10.472215" y1="4.620099" x2="10.472215" y2="5.064314" />
      <line x1="10.472215" y1="4.620099" x2="10.778062" y2="4.662563" />
      <line x1="10.422896" y1="4.866614" x2="10.422896" y2="5.116662" />
      <line x1="10.472215" y1="4.620099" x2="10.422896" y2="4.866614" />
      <line x1="3.123581" y1="3.853162" x2="3.123581" y2="8.499994" />
      <line x1="3.123581" y1="3.853162" x2="3.1729" y2="3.86001" />
      <line x1="4.738707" y1="4.07741" x2="10.422896" y2="4.866614" />
      <line x1="3.1729" y1="3.606647" x2="3.123581" y2="3.853162" />
      <line x1="2.581064" y1="3.524475" x2="2.581064" y2="3.968691" />
      <line x1="2.581064" y1="3.524475" x2="2.88691" y2="3.56694" />
      <line x1="2.531744" y1="3.770991" x2="2.531744" y2="4.021039" />
      <line x1="2.581064" y1="3.524475" x2="2.531744" y2="3.770991" />
      <line x1="-4.767571" y1="2.757539" x2="-4.767571" y2="7.40437" />
      <line x1="-4.767571" y1="2.757539" x2="-4.718251" y2="2.764386" />
      <line x1="-3.152445" y1="2.981786" x2="2.531744" y2="3.770991" />
      <line x1="-4.718251" y1="2.511023" x2="-4.767571" y2="2.757539" />
      <line x1="-5.310087" y1="2.428852" x2="-5.310087" y2="2.873067" />
      <line x1="-5.310087" y1="2.428852" x2="-5.004241" y2="2.471316" />
      <line x1="-5.359407" y1="2.675367" x2="-5.359407" y2="2.925415" />
      <line x1="-5.310087" y1="2.428852" x2="-5.359407" y2="2.675367" />
      <line x1="-12.658722" y1="1.661915" x2="-12.658722" y2="6.308747" />
      <line x1="-12.658722" y1="1.661915" x2="-12.609402" y2="1.668763" />
      <line x1="-11.043596" y1="1.886162" x2="-5.359407" y2="2.675367" />
      <line x1="-12.609402" y1="1.4154" x2="-12.658722" y2="1.661915" />
      <line x1="-13.201239" y1="1.333228" x2="-13.201239" y2="1.777443" />
      <line x1="-13.201239" y1="1.333228" x2="-12.895392" y2="1.375692" />
      <line x1="-13.250558" y1="1.579743" x2="-13.250558" y2="1.829791" />
      <line x1="-13.201239" y1="1.333228" x2="-13.250558" y2="1.579743" />
      <line x1="-20.549873" y1="0.566291" x2="-20.549873" y2="5.213123" />
      <line x1="-20.549873" y1="0.566291" x2="-20.500554" y2="0.573139" />
      <line x1="-18.934748" y1="0.790539" x2="-13.250558" y2="1.579743" />
      <line x1="-20.500554" y1="0.319776" x2="-20.549873" y2="0.566291" />
      <line x1="-23.607695" y1="0.141737" x2="-22.703141" y2="0.267327" />
      <path d="M -12.576523,-4.069566 A 3.25,2.707419959968692 0.0 0,1 -19.032303,-4.514663" />
      <path d="M -18.669213,-5.758187 A 3.25,2.707419959968692 0.0 0,1 -12.629858,-5.173033" />
      <path d="M -12.532303,-4.514663 A 3.25,2.707419959968692 0.0 0,1 -12.576523,-4.069566" />
      <path d="M -13.414957,-4.185976 A 2.4,1.999325508899957 0.0 0,1 -18.182303,-4.514663" />
      <path d="M -18.182303,-4.514663 A 2.4,1.999325508899957 0.0 0,1 -13.382303,-4.514663" />
      <path d="M -13.382303,-4.514663 A 2.4,1.999325508899957 0.0 0,1 -13.414957,-4.185976" />
      <path d="M -4.685371,-2.973942 A 3.25,2.707419959968692 0.0 0,1 -11.141151,-3.419039" />
      <path d="M -10.778062,-4.662563 A 3.25,2.707419959968692 0.0 0,1 -4.738707,-4.07741" />
      <path d="M -4.641151,-3.419039 A 3.25,2.707419959968692 0.0 0,1 -4.685371,-2.973942" />
      <path d="M -5.523806,-3.090352 A 2.4,1.999325508899957 0.0 0,1 -10.291151,-3.419039" />
      <path d="M -10.291151,-3.419039 A 2.4,1.999325508899957 0.0 0,1 -5.491151,-3.419039" />
      <path d="M -5.491151,-3.419039 A 2.4,1.999325508899957 0.0 0,1 -5.523806,-3.090352" />
      <path d="M 3.20578,-1.878319 A 3.25,2.707419959968692 0.0 0,1 -3.25,-2.323416" />
      <path d="M -2.88691,-3.56694 A 3.25,2.707419959968692 0.0 0,1 3.152445,-2.981786" />
      <path d="M 3.25,-2.323416 A 3.25,2.707419959968692 0.0 0,1 3.20578,-1.878319" />
      <path d="M 2.367345,-1.994729 A 2.4,1.999325508899957 0.0 0,1 -2.4,-2.323416" />
      <path d="M -2.4,-2.323416 A 2.4,1.999325508899957 0.0 0,1 2.4,-2.323416" />
      <path d="M 2.4,-2.323416 A 2.4,1.999325508899957 0.0 0,1 2.367345,-1.994729" />
      <path d="M 11.096932,-0.782695 A 3.25,2.707419959968692 0.0 0,1 4.641151,-1.227792" />
      <path d="M 5.004241,-2.471316 A 3.25,2.707419959968692 0.0 0,1 11.043596,-1.886162" />
      <path d="M 11.141151,-1.227792 A 3.25,2.707419959968692 0.0 0,1 11.096932,-0.782695" />
      <path d="M 10.258497,-0.899105 A 2.4,1.999325508899957 0.0 0,1 5.491151,-1.227792" />
      <path d="M 5.491151,-1.227792 A 2.4,1.999325508899957 0.0 0,1 10.291151,-1.227792" />
      <path d="M 10.291151,-1.227792 A 2.4,1.999325508899957 0.0 0,1 10.258497,-0.899105" />
      <line x1="13.382303" y1="4.514663" x2="13.382303" y2="-0.132169" />
      <line x1="18.182303" y1="4.514663" x2="18.182303" y2="-0.132169" />
      <line x1="-18.182303" y1="0.132169" x2="-18.182303" y2="-4.514663" />
      <line x1="-13.382303" y1="0.132169" x2="-13.382303" y2="-4.514663" />
      <line x1="-10.291151" y1="1.227792" x2="-10.291151" y2="-3.419039" />
      <line x1="-5.491151" y1="1.227792" x2="-5.491151" y2="-3.419039" />
      <line x1="-2.4" y1="2.323416" x2="-2.4" y2="-2.323416" />
      <line x1="2.4" y1="2.323416" x2="2.4" y2="-2.323416" />
      <line x1="5.491151" y1="3.419039" x2="5.491151" y2="-1.227792" />
      <line x1="10.291151" y1="3.419039" x2="10.291151" y2="-1.227792" />
    </g>
  </g>
</svg>