<?xml version='1.0' encoding='utf-8'?>
<svg width="288.54mm" height="96.54mm" viewBox="-24.045 -8.045 48.09 16.09" version="1.1" xmlns="http://www.w3.org/2000/svg">
  <g transform="scale(1,-1)" stroke-linecap="round">
    <g fill="none" stroke="rgb(0,0,0)" stroke-width="0.09">
      <path d="M -24.0,8.0 L -24.0,-8.0 L 24.0,-8.0 L 24.0,8.0 L -24.0,8.0" />
      <path d="M -22.8,6.8 L -20.3,6.8 L -20.3,4.3 L -22.8,4.3 L -22.8,6.8" />
      <path d="M -22.8,3.7 L -20.3,3.7 L -20.3,-3.7 L -22.8,-3.7 L -22.8,3.7" />
      <path d="M -22.8,-4.3 L -20.3,-4.3 L -20.3,-6.8 L -22.8,-6.8 L -22.8,-4.3" />
      <path d="M -19.7,6.8 L -12.3,6.8 L -12.3,4.3 L -19.7,4.3 L -19.7,6.8" />
      <path d="M -19.7,3.7 L -12.3,3.7 L -12.3,-3.7 L -19.7,-3.7 L -19.7,3.7" />
      <path d="M -19.7,-6.8 L -19.7,-4.3 L -12.3,-4.3 L -12.3,-6.8 L -19.7,-6.8" />
      <path d="M -11.7,6.8 L -4.3,6.8 L -4.3,4.3 L -11.7,4.3 L -11.7,6.8" />
      <path d="M -11.7,3.7 L -4.3,3.7 L -4.3,-3.7 L -11.7,-3.7 L -11.7,3.7" />
      <path d="M -11.7,-6.8 L -11.7,-4.3 L -4.3,-4.3 L -4.3,-6.8 L -11.7,-6.8" />
      <path d="M -3.7,6.8 L 3.7,6.8 L 3.7,4.3 L -3.7,4.3 L -3.7,6.8" />
      <path d="M -3.7,3.7 L 3.7,3.7 L 3.7,-3.7 L -3.7,-3.7 L -3.7,3.7" />
      <path d="M -3.7,-6.8 L -3.7,-4.3 L 3.7,-4.3 L 3.7,-6.8 L -3.7,-6.8" />
      <path d="M 4.3,6.8 L 11.7,6.8 L 11.7,4.3 L 4.3,4.3 L 4.3,6.8" />
      <path d="M 4.3,3.7 L 11.7,3.7 L 11.7,-3.7 L 4.3,-3.7 L 4.3,3.7" />
      <path d="M 4.3,-6.8 L 4.3,-4.3 L 11.7,-4.3 L 11.7,-6.8 L 4.3,-6.8" />
      <path d="M 12.3,6.8 L 19.7,6.8 L 19.7,4.3 L 12.3,4.3 L 12.3,6.8" />
      <path d="M 12.3,3.7 L 19.7,3.7 L 19.7,-3.7 L 12.3,-3.7 L 12.3,3.7" />
      <path d="M 12.3,-6.8 L 12.3,-4.3 L 19.7,-4.3 L 19.7,-6.8 L 12.3,-6.8" />
      <path d="M 22.8,-6.8 L 20.3,-6.8 L 20.3,-4.3 L 22.8,-4.3 L 22.8,-6.8" />
      <path d="M 22.8,-3.7 L 20.3,-3.7 L 20.3,3.7 L 22.8,3.7 L 22.8,-3.7" />
      <path d="M 22.8,4.3 L 20.3,4.3 L 20.3,6.8 L 22.8,6.8 L 22.8,4.3" />
    </g>
  </g>
</svg>