<?xml version='1.0' encoding='utf-8'?>
<svg width="288.54mm" height="96.54mm" viewBox="-24.045 -8.045 48.09 16.09" version="1.1" xmlns="http://www.w3.org/2000/svg">
  <g transform="scale(1,-1)" stroke-linecap="round">
    <g fill="none" stroke="rgb(0,0,0)" stroke-width="0.09">
      <path d="M -24.0,8.0 L -24.0,-8.0 L 24.0,-8.0 L 24.0,8.0 L -24.0,8.0" />
      <path d="M -22.8,4.3 L -22.8,6.8 L -20.3,6.8 L -20.3,6.5 L -19.7,6.5 L -19.7,6.8 L -12.3,6.8 L -12.3,6.5 L -11.7,6.5 L -11.7,6.8 L -4.3,6.8 L -4.3,6.5 L -3.7,6.5 L -3.7,6.8 L 3.7,6.8 L 3.7,6.5 L 4.3,6.5 L 4.3,6.8 L 11.7,6.8 L 11.7,6.5 L 12.3,6.5 L 12.3,6.8 L 19.7,6.8 L 19.7,6.5 L 20.3,6.5 L 20.3,6.8 L 22.8,6.8 L 22.8,4.3 L 22.5,4.3 L 22.5,3.7 L 22.8,3.7 L 22.8,-3.7 L 22.5,-3.7 L 22.5,-4.3 L 22.8,-4.3 L 22.8,-6.8 L 20.3,-6.8 L 20.3,-6.5 L 19.7,-6.5 L 19.7,-6.8 L 12.3,-6.8 L 12.3,-6.5 L 11.7,-6.5 L 11.7,-6.8 L 4.3,-6.8 L 4.3,-6.5 L 3.7,-6.5 L 3.7,-6.8 L -3.7,-6.8 L -3.7,-6.5 L -4.3,-6.5 L -4.3,-6.8 L -11.7,-6.8 L -11.7,-6.5 L -12.3,-6.5 L -12.3,-6.8 L -19.7,-6.8 L -19.7,-6.5 L -20.3,-6.5 L -20.3,-6.8 L -22.8,-6.8 L -22.8,-4.3 L -22.5,-4.3 L -22.5,-3.7 L -22.8,-3.7 L -22.8,3.7 L -22.5,3.7 L -22.5,4.3 L -22.8,4.3" />
      <circle cx="-16.0" cy="0.0" r="3.25" />
      <circle cx="-16.0" cy="0.0" r="2.4" />
      <circle cx="-8.0" cy="0.0" r="3.25" />
      <circle cx="-8.0" cy="0.0" r="2.4" />
      <circle cx="0.0" cy="0.0" r="3.25" />
      <circle cx="0.0" cy="0.0" r="2.4" />
      <circle cx="8.0" cy="0.0" r="3.25" />
      <circle cx="8.0" cy="0.0" r="2.4" />
      <circle cx="16.0" cy="0.0" r="3.25" />
      <circle cx="16.0" cy="0.0" r="2.4" />
    </g>
  </g>
</svg>