<?xml version='1.0' encoding='utf-8'?>
<svg width="300.403752mm" height="150.217404mm" viewBox="-25.033646 -11.969696 50.067292 25.036234" version="1.1" xmlns="http://www.w3.org/2000/svg">
  <g transform="scale(1,-1)" stroke-linecap="round">
    <g fill="none" stroke="rgb(0,0,0)" stroke-width="0.09" id="Visible">
      <line x1="-24.988646" y1="5.42235" x2="-24.988646" y2="-0.016846" />
      <line x1="-22.358262" y1="-7.582343" x2="-24.988646" y2="5.42235" />
      <line x1="-22.358262" y1="-13.021538" x2="-22.358262" y2="-7.582343" />
      <line x1="-24.988646" y1="-0.016846" x2="-22.358262" y2="-13.021538" />
      <line x1="-24.988646" y1="5.42235" x2="22.358262" y2="11.924696" />
      <line x1="-22.358262" y1="-7.582343" x2="24.988646" y2="-1.079996" />
      <line x1="24.988646" y1="-6.519192" x2="24.988646" y2="-1.079996" />
      <line x1="-22.358262" y1="-13.021538" x2="24.988646" y2="-6.519192" />
      <line x1="24.988646" y1="-1.079996" x2="22.358262" y2="11.924696" />
    </g>
    <g fill="none" stroke="rgb(99,99,99)" stroke-width="0.09" id="Hidden" stroke-dasharray="0.0 0.27">
      <line x1="22.358262" y1="11.924696" x2="22.358262" y2="6.4855" />
      <line x1="22.358262" y1="6.4855" x2="-24.988646" y2="-0.016846" />
      <line x1="24.988646" y1="-6.519192" x2="22.358262" y2="6.4855" />
      <line x1="-23.196697" y1="-2.861623" x2="-23.607695" y2="-0.829639" />
      <line x1="-23.196697" y1="-2.861623" x2="-22.900779" y2="-2.820983" />
      <line x1="-22.80214" y1="-3.308659" x2="-22.900779" y2="-2.820983" />
      <line x1="-23.098058" y1="-3.349298" x2="-22.80214" y2="-3.308659" />
      <line x1="-21.881505" y1="-9.363969" x2="-23.098058" y2="-3.349298" />
      <line x1="-21.881505" y1="-9.363969" x2="-21.585587" y2="-9.323329" />
      <line x1="-21.486948" y1="-9.811005" x2="-21.585587" y2="-9.323329" />
      <line x1="-21.782866" y1="-9.851645" x2="-21.486948" y2="-9.811005" />
      <line x1="-21.371868" y1="-11.883628" x2="-21.782866" y2="-9.851645" />
      <line x1="-21.371868" y1="-11.883628" x2="-18.905884" y2="-11.544964" />
      <line x1="-18.905884" y1="-11.544964" x2="-18.955203" y2="-11.301126" />
      <line x1="-18.955203" y1="-11.301126" x2="-18.363367" y2="-11.219847" />
      <line x1="-18.314047" y1="-11.463685" x2="-18.363367" y2="-11.219847" />
      <line x1="-18.314047" y1="-11.463685" x2="-11.014732" y2="-10.46124" />
      <line x1="-11.014732" y1="-10.46124" x2="-11.064052" y2="-10.217402" />
      <line x1="-11.064052" y1="-10.217402" x2="-10.472215" y2="-10.136122" />
      <line x1="-10.422896" y1="-10.37996" x2="-10.472215" y2="-10.136122" />
      <line x1="-10.422896" y1="-10.37996" x2="-3.123581" y2="-9.377515" />
      <line x1="-3.123581" y1="-9.377515" x2="-3.1729" y2="-9.133677" />
      <line x1="-3.1729" y1="-9.133677" x2="-2.581064" y2="-9.052398" />
      <line x1="-2.531744" y1="-9.296236" x2="-2.581064" y2="-9.052398" />
      <line x1="-2.531744" y1="-9.296236" x2="4.767571" y2="-8.293791" />
      <line x1="4.767571" y1="-8.293791" x2="4.718251" y2="-8.049953" />
      <line x1="4.718251" y1="-8.049953" x2="5.310087" y2="-7.968674" />
      <line x1="5.359407" y1="-8.212512" x2="5.310087" y2="-7.968674" />
      <line x1="5.359407" y1="-8.212512" x2="12.658722" y2="-7.210067" />
      <line x1="12.658722" y1="-7.210067" x2="12.609402" y2="-6.966229" />
      <line x1="12.609402" y1="-6.966229" x2="13.201239" y2="-6.884949" />
      <line x1="13.250558" y1="-7.128787" x2="13.201239" y2="-6.884949" />
      <line x1="13.250558" y1="-7.128787" x2="20.549873" y2="-6.126342" />
      <line x1="20.549873" y1="-6.126342" x2="20.500554" y2="-5.882504" />
      <line x1="20.500554" y1="-5.882504" x2="21.09239" y2="-5.801225" />
      <line x1="21.14171" y1="-6.045063" x2="21.09239" y2="-5.801225" />
      <line x1="21.14171" y1="-6.045063" x2="23.607695" y2="-5.706399" />
      <line x1="23.607695" y1="-5.706399" x2="23.196697" y2="-3.674416" />
      <line x1="22.900779" y1="-3.715055" x2="23.196697" y2="-3.674416" />
      <line x1="22.900779" y1="-3.715055" x2="22.80214" y2="-3.22738" />
      <line x1="22.80214" y1="-3.22738" x2="23.098058" y2="-3.18674" />
      <line x1="23.098058" y1="-3.18674" x2="21.881505" y2="2.82793" />
      <line x1="21.585587" y1="2.787291" x2="21.881505" y2="2.82793" />
      <line x1="21.585587" y1="2.787291" x2="21.486948" y2="3.274967" />
      <line x1="21.486948" y1="3.274967" x2="21.782866" y2="3.315606" />
      <line x1="21.782866" y1="3.315606" x2="21.371868" y2="5.34759" />
      <line x1="18.905884" y1="5.008926" x2="21.371868" y2="5.34759" />
      <line x1="18.955203" y1="4.765088" x2="18.905884" y2="5.008926" />
      <line x1="18.363367" y1="4.683808" x2="18.955203" y2="4.765088" />
      <line x1="18.363367" y1="4.683808" x2="18.314047" y2="4.927646" />
      <line x1="11.014732" y1="3.925201" x2="18.314047" y2="4.927646" />
      <line x1="11.064052" y1="3.681363" x2="11.014732" y2="3.925201" />
      <line x1="10.472215" y1="3.600084" x2="11.064052" y2="3.681363" />
      <line x1="10.472215" y1="3.600084" x2="10.422896" y2="3.843922" />
      <line x1="3.123581" y1="2.841477" x2="10.422896" y2="3.843922" />
      <line x1="3.1729" y1="2.597639" x2="3.123581" y2="2.841477" />
      <line x1="2.581064" y1="2.51636" x2="3.1729" y2="2.597639" />
      <line x1="2.581064" y1="2.51636" x2="2.531744" y2="2.760198" />
      <line x1="-4.767571" y1="1.757753" x2="2.531744" y2="2.760198" />
      <line x1="-4.718251" y1="1.513915" x2="-4.767571" y2="1.757753" />
      <line x1="-5.310087" y1="1.432635" x2="-4.718251" y2="1.513915" />
      <line x1="-5.310087" y1="1.432635" x2="-5.359407" y2="1.676473" />
      <line x1="-12.658722" y1="0.674028" x2="-5.359407" y2="1.676473" />
      <line x1="-12.609402" y1="0.43019" x2="-12.658722" y2="0.674028" />
      <line x1="-13.201239" y1="0.348911" x2="-12.609402" y2="0.43019" />
      <line x1="-13.201239" y1="0.348911" x2="-13.250558" y2="0.592749" />
      <line x1="-20.549873" y1="-0.409696" x2="-13.250558" y2="0.592749" />
      <line x1="-20.500554" y1="-0.653534" x2="-20.549873" y2="-0.409696" />
      <line x1="-21.09239" y1="-0.734813" x2="-20.500554" y2="-0.653534" />
      <line x1="-21.09239" y1="-0.734813" x2="-21.14171" y2="-0.490975" />
      <line x1="-23.607695" y1="-0.829639" x2="-21.14171" y2="-0.490975" />
      <line x1="-23.196697" y1="-2.861623" x2="-23.196697" y2="1.897674" />
      <line x1="-23.607695" y1="-0.829639" x2="-23.607695" y2="3.929657" />
      <line x1="-23.196697" y1="1.897674" x2="-23.607695" y2="3.929657" />
      <line x1="-22.900779" y1="-2.820983" x2="-22.900779" y2="1.938313" />
      <line x1="-23.196697" y1="1.897674" x2="-22.900779" y2="1.938313" />
      <line x1="-22.80214" y1="-3.308659" x2="-22.80214" y2="1.450638" />
      <line x1="-22.80214" y1="1.450638" x2="-22.900779" y2="1.938313" />
      <line x1="-23.098058" y1="-3.349298" x2="-23.098058" y2="1.409998" />
      <line x1="-23.098058" y1="1.409998" x2="-22.80214" y2="1.450638" />
      <line x1="-21.881505" y1="-9.363969" x2="-21.881505" y2="-4.604672" />
      <line x1="-21.881505" y1="-4.604672" x2="-23.098058" y2="1.409998" />
      <line x1="-21.585587" y1="-9.323329" x2="-21.585587" y2="-4.564033" />
      <line x1="-21.881505" y1="-4.604672" x2="-21.585587" y2="-4.564033" />
      <line x1="-21.486948" y1="-9.811005" x2="-21.486948" y2="-5.051709" />
      <line x1="-21.486948" y1="-5.051709" x2="-21.585587" y2="-4.564033" />
      <line x1="-21.782866" y1="-9.851645" x2="-21.782866" y2="-5.092348" />
      <line x1="-21.782866" y1="-5.092348" x2="-21.486948" y2="-5.051709" />
      <line x1="-21.371868" y1="-11.883628" x2="-21.371868" y2="-7.124331" />
      <line x1="-21.371868" y1="-7.124331" x2="-21.782866" y2="-5.092348" />
      <line x1="-18.905884" y1="-11.544964" x2="-18.905884" y2="-6.785668" />
      <line x1="-21.371868" y1="-7.124331" x2="-18.905884" y2="-6.785668" />
      <line x1="-18.955203" y1="-11.301126" x2="-18.955203" y2="-6.54183" />
      <line x1="-18.905884" y1="-6.785668" x2="-18.955203" y2="-6.54183" />
      <line x1="-18.363367" y1="-11.219847" x2="-18.363367" y2="-6.46055" />
      <line x1="-18.955203" y1="-6.54183" x2="-18.363367" y2="-6.46055" />
      <line x1="-18.314047" y1="-11.463685" x2="-18.314047" y2="-6.704388" />
      <line x1="-18.314047" y1="-6.704388" x2="-18.363367" y2="-6.46055" />
      <line x1="-11.014732" y1="-10.46124" x2="-11.014732" y2="-5.701943" />
      <line x1="-18.314047" y1="-6.704388" x2="-11.014732" y2="-5.701943" />
      <line x1="-11.064052" y1="-10.217402" x2="-11.064052" y2="-5.458105" />
      <line x1="-11.014732" y1="-5.701943" x2="-11.064052" y2="-5.458105" />
      <line x1="-10.472215" y1="-10.136122" x2="-10.472215" y2="-5.376826" />
      <line x1="-11.064052" y1="-5.458105" x2="-10.472215" y2="-5.376826" />
      <line x1="-10.422896" y1="-10.37996" x2="-10.422896" y2="-5.620664" />
      <line x1="-10.422896" y1="-5.620664" x2="-10.472215" y2="-5.376826" />
      <line x1="-3.123581" y1="-9.377515" x2="-3.123581" y2="-4.618219" />
      <line x1="-10.422896" y1="-5.620664" x2="-3.123581" y2="-4.618219" />
      <line x1="-3.1729" y1="-9.133677" x2="-3.1729" y2="-4.374381" />
      <line x1="-3.123581" y1="-4.618219" x2="-3.1729" y2="-4.374381" />
      <line x1="-2.581064" y1="-9.052398" x2="-2.581064" y2="-4.293102" />
      <line x1="-3.1729" y1="-4.374381" x2="-2.581064" y2="-4.293102" />
      <line x1="-2.531744" y1="-9.296236" x2="-2.531744" y2="-4.53694" />
      <line x1="-2.531744" y1="-4.53694" x2="-2.581064" y2="-4.293102" />
      <line x1="4.767571" y1="-8.293791" x2="4.767571" y2="-3.534495" />
      <line x1="-2.531744" y1="-4.53694" x2="4.767571" y2="-3.534495" />
      <line x1="4.718251" y1="-8.049953" x2="4.718251" y2="-3.290657" />
      <line x1="4.767571" y1="-3.534495" x2="4.718251" y2="-3.290657" />
      <line x1="5.310087" y1="-7.968674" x2="5.310087" y2="-3.209377" />
      <line x1="4.718251" y1="-3.290657" x2="5.310087" y2="-3.209377" />
      <line x1="5.359407" y1="-8.212512" x2="5.359407" y2="-3.453215" />
      <line x1="5.359407" y1="-3.453215" x2="5.310087" y2="-3.209377" />
      <line x1="12.658722" y1="-7.210067" x2="12.658722" y2="-2.45077" />
      <line x1="5.359407" y1="-3.453215" x2="12.658722" y2="-2.45077" />
      <line x1="12.609402" y1="-6.966229" x2="12.609402" y2="-2.206932" />
      <line x1="12.658722" y1="-2.45077" x2="12.609402" y2="-2.206932" />
      <line x1="13.201239" y1="-6.884949" x2="13.201239" y2="-2.125653" />
      <line x1="12.609402" y1="-2.206932" x2="13.201239" y2="-2.125653" />
      <line x1="13.250558" y1="-7.128787" x2="13.250558" y2="-2.369491" />
      <line x1="13.250558" y1="-2.369491" x2="13.201239" y2="-2.125653" />
      <line x1="20.549873" y1="-6.126342" x2="20.549873" y2="-1.367046" />
      <line x1="13.250558" y1="-2.369491" x2="20.549873" y2="-1.367046" />
      <line x1="20.500554" y1="-5.882504" x2="20.500554" y2="-1.123208" />
      <line x1="20.549873" y1="-1.367046" x2="20.500554" y2="-1.123208" />
      <line x1="21.09239" y1="-5.801225" x2="21.09239" y2="-1.041928" />
      <line x1="20.500554" y1="-1.123208" x2="21.09239" y2="-1.041928" />
      <line x1="21.14171" y1="-6.045063" x2="21.14171" y2="-1.285766" />
      <line x1="21.14171" y1="-1.285766" x2="21.09239" y2="-1.041928" />
      <line x1="23.607695" y1="-5.706399" x2="23.607695" y2="-0.947103" />
      <line x1="21.14171" y1="-1.285766" x2="23.607695" y2="-0.947103" />
      <line x1="23.196697" y1="-3.674416" x2="23.196697" y2="1.084881" />
      <line x1="23.607695" y1="-0.947103" x2="23.196697" y2="1.084881" />
      <line x1="22.900779" y1="-3.715055" x2="22.900779" y2="1.044241" />
      <line x1="22.900779" y1="1.044241" x2="23.196697" y2="1.084881" />
      <line x1="22.80214" y1="-3.22738" x2="22.80214" y2="1.531917" />
      <line x1="22.900779" y1="1.044241" x2="22.80214" y2="1.531917" />
      <line x1="23.098058" y1="-3.18674" x2="23.098058" y2="1.572557" />
      <line x1="22.80214" y1="1.531917" x2="23.098058" y2="1.572557" />
      <line x1="21.881505" y1="2.82793" x2="21.881505" y2="7.587227" />
      <line x1="23.098058" y1="1.572557" x2="21.881505" y2="7.587227" />
      <line x1="21.585587" y1="2.787291" x2="21.585587" y2="7.546587" />
      <line x1="21.585587" y1="7.546587" x2="21.881505" y2="7.587227" />
      <line x1="21.486948" y1="3.274967" x2="21.486948" y2="8.034263" />
      <line x1="21.585587" y1="7.546587" x2="21.486948" y2="8.034263" />
      <line x1="21.782866" y1="3.315606" x2="21.782866" y2="8.074903" />
      <line x1="21.486948" y1="8.034263" x2="21.782866" y2="8.074903" />
      <line x1="21.371868" y1="5.34759" x2="21.371868" y2="10.106886" />
      <line x1="21.782866" y1="8.074903" x2="21.371868" y2="10.106886" />
      <line x1="18.905884" y1="5.008926" x2="18.905884" y2="9.768222" />
      <line x1="18.905884" y1="9.768222" x2="21.371868" y2="10.106886" />
      <line x1="18.955203" y1="4.765088" x2="18.955203" y2="9.524384" />
      <line x1="18.955203" y1="9.524384" x2="18.905884" y2="9.768222" />
      <line x1="18.363367" y1="4.683808" x2="18.363367" y2="9.443105" />
      <line x1="18.363367" y1="9.443105" x2="18.955203" y2="9.524384" />
      <line x1="18.314047" y1="4.927646" x2="18.314047" y2="9.686943" />
      <line x1="18.363367" y1="9.443105" x2="18.314047" y2="9.686943" />
      <line x1="11.014732" y1="3.925201" x2="11.014732" y2="8.684498" />
      <line x1="11.014732" y1="8.684498" x2="18.314047" y2="9.686943" />
      <line x1="11.064052" y1="3.681363" x2="11.064052" y2="8.44066" />
      <line x1="11.064052" y1="8.44066" x2="11.014732" y2="8.684498" />
      <line x1="10.472215" y1="3.600084" x2="10.472215" y2="8.35938" />
      <line x1="10.472215" y1="8.35938" x2="11.064052" y2="8.44066" />
      <line x1="10.422896" y1="3.843922" x2="10.422896" y2="8.603218" />
      <line x1="10.472215" y1="8.35938" x2="10.422896" y2="8.603218" />
      <line x1="3.123581" y1="2.841477" x2="3.123581" y2="7.600773" />
      <line x1="3.123581" y1="7.600773" x2="10.422896" y2="8.603218" />
      <line x1="3.1729" y1="2.597639" x2="3.1729" y2="7.356935" />
      <line x1="3.1729" y1="7.356935" x2="3.123581" y2="7.600773" />
      <line x1="2.581064" y1="2.51636" x2="2.581064" y2="7.275656" />
      <line x1="2.581064" y1="7.275656" x2="3.1729" y2="7.356935" />
      <line x1="2.531744" y1="2.760198" x2="2.531744" y2="7.519494" />
      <line x1="2.581064" y1="7.275656" x2="2.531744" y2="7.519494" />
      <line x1="-4.767571" y1="1.757753" x2="-4.767571" y2="6.517049" />
      <line x1="-4.767571" y1="6.517049" x2="2.531744" y2="7.519494" />
      <line x1="-4.718251" y1="1.513915" x2="-4.718251" y2="6.273211" />
      <line x1="-4.718251" y1="6.273211" x2="-4.767571" y2="6.517049" />
      <line x1="-5.310087" y1="1.432635" x2="-5.310087" y2="6.191932" />
      <line x1="-5.310087" y1="6.191932" x2="-4.718251" y2="6.273211" />
      <line x1="-5.359407" y1="1.676473" x2="-5.359407" y2="6.43577" />
      <line x1="-5.310087" y1="6.191932" x2="-5.359407" y2="6.43577" />
      <line x1="-12.658722" y1="0.674028" x2="-12.658722" y2="5.433325" />
      <line x1="-12.658722" y1="5.433325" x2="-5.359407" y2="6.43577" />
      <line x1="-12.609402" y1="0.43019" x2="-12.609402" y2="5.189487" />
      <line x1="-12.609402" y1="5.189487" x2="-12.658722" y2="5.433325" />
      <line x1="-13.201239" y1="0.348911" x2="-13.201239" y2="5.108207" />
      <line x1="-13.201239" y1="5.108207" x2="-12.609402" y2="5.189487" />
      <line x1="-13.250558" y1="0.592749" x2="-13.250558" y2="5.352045" />
      <line x1="-13.201239" y1="5.108207" x2="-13.250558" y2="5.352045" />
      <line x1="-20.549873" y1="-0.409696" x2="-20.549873" y2="4.3496" />
      <line x1="-20.549873" y1="4.3496" x2="-13.250558" y2="5.352045" />
      <line x1="-20.500554" y1="-0.653534" x2="-20.500554" y2="4.105762" />
      <line x1="-20.500554" y1="4.105762" x2="-20.549873" y2="4.3496" />
      <line x1="-21.09239" y1="-0.734813" x2="-21.09239" y2="4.024483" />
      <line x1="-21.09239" y1="4.024483" x2="-20.500554" y2="4.105762" />
      <line x1="-21.14171" y1="-0.490975" x2="-21.14171" y2="4.268321" />
      <line x1="-21.09239" y1="4.024483" x2="-21.14171" y2="4.268321" />
      <line x1="-23.607695" y1="3.929657" x2="-21.14171" y2="4.268321" />
      <path d="M -12.576523,-0.235909 A 3.25,2.6780154145707264 1.4033933411823352e-15 0,1 -19.032303,-0.676172" />
      <path d="M -19.032303,-0.676172 A 3.25,2.6780154145707264 1.4033933411823352e-15 0,1 -12.532303,-0.676172" />
      <path d="M -12.532303,-0.676172 A 3.25,2.6780154145707264 1.4033933411823352e-15 0,1 -12.576523,-0.235909" />
      <path d="M -4.685371,0.847816 A 3.25,2.6780154145707264 1.4033933411823352e-15 0,1 -11.141151,0.407553" />
      <path d="M -11.141151,0.407553 A 3.250000000000001,2.678015414570727 1.4033933411823352e-15 0,1 -4.641151,0.407553" />
      <path d="M -4.641151,0.407553 A 3.25,2.6780154145707264 1.4033933411823352e-15 0,1 -4.685371,0.847816" />
      <path d="M 3.20578,1.93154 A 3.25,2.6780154145707264 1.4033933411823352e-15 0,1 -3.25,1.491277" />
      <path d="M -3.25,1.491277 A 3.25,2.6780154145707264 1.4033933411823352e-15 0,1 3.25,1.491277" />
      <path d="M 3.25,1.491277 A 3.25,2.6780154145707264 1.4033933411823352e-15 0,1 3.20578,1.93154" />
      <path d="M 11.096932,3.015265 A 3.25,2.6780154145707264 1.4033933411823352e-15 0,1 4.641151,2.575002" />
      <path d="M 4.641151,2.575002 A 3.250000000000001,2.678015414570727 1.4033933411823352e-15 0,1 11.141151,2.575002" />
      <path d="M 11.141151,2.575002 A 3.25,2.6780154145707264 1.4033933411823352e-15 0,1 11.096932,3.015265" />
      <path d="M 18.988083,4.098989 A 3.25,2.6780154145707264 1.4033933411823352e-15 0,1 12.532303,3.658726" />
      <path d="M 12.532303,3.658726 A 3.25,2.6780154145707264 1.4033933411823352e-15 0,1 19.032303,3.658726" />
      <path d="M 19.032303,3.658726 A 3.25,2.6780154145707264 1.4033933411823352e-15 0,1 18.988083,4.098989" />
      <path d="M -12.576523,-4.995205 A 3.25,2.6780154145707264 1.4033933411823352e-15 0,1 -19.032303,-5.435468" />
      <path d="M -19.032303,-5.435468 A 3.25,2.6780154145707264 1.4033933411823352e-15 0,1 -12.532303,-5.435468" />
      <path d="M -12.532303,-5.435468 A 3.25,2.6780154145707264 1.4033933411823352e-15 0,1 -12.576523,-4.995205" />
      <path d="M -4.685371,-3.911481 A 3.25,2.6780154145707264 1.4033933411823352e-15 0,1 -11.141151,-4.351744" />
      <path d="M -11.141151,-4.351744 A 3.250000000000001,2.678015414570727 1.4033933411823352e-15 0,1 -4.641151,-4.351744" />
      <path d="M -4.641151,-4.351744 A 3.25,2.6780154145707264 1.4033933411823352e-15 0,1 -4.685371,-3.911481" />
      <path d="M 3.20578,-2.827756 A 3.25,2.6780154145707264 1.4033933411823352e-15 0,1 -3.25,-3.268019" />
      <path d="M -3.25,-3.268019 A 3.25,2.6780154145707264 1.4033933411823352e-15 0,1 3.25,-3.268019" />
      <path d="M 3.25,-3.268019 A 3.25,2.6780154145707264 1.4033933411823352e-15 0,1 3.20578,-2.827756" />
      <path d="M 11.096932,-1.744032 A 3.25,2.6780154145707264 1.4033933411823352e-15 0,1 4.641151,-2.184295" />
      <path d="M 4.641151,-2.184295 A 3.250000000000001,2.678015414570727 1.4033933411823352e-15 0,1 11.141151,-2.184295" />
      <path d="M 11.141151,-2.184295 A 3.25,2.6780154145707264 1.4033933411823352e-15 0,1 11.096932,-1.744032" />
      <path d="M 18.988083,-0.660307 A 3.25,2.6780154145707264 1.4033933411823352e-15 0,1 12.532303,-1.10057" />
      <path d="M 12.532303,-1.10057 A 3.25,2.6780154145707264 1.4033933411823352e-15 0,1 19.032303,-1.10057" />
      <path d="M 19.032303,-1.10057 A 3.25,2.6780154145707264 1.4033933411823352e-15 0,1 18.988083,-0.660307" />
      <path d="M -13.414957,-5.110351 A 2.4,1.9776113830676134 1.4033933411823352e-15 0,1 -18.182303,-5.435468" />
      <path d="M -18.182303,-5.435468 A 2.4,1.9776113830676134 1.4033933411823352e-15 0,1 -13.382303,-5.435468" />
      <path d="M -13.382303,-5.435468 A 2.4,1.9776113830676134 1.4033933411823352e-15 0,1 -13.414957,-5.110351" />
      <path d="M -5.523806,-4.026626 A 2.4,1.9776113830676134 1.4033933411823352e-15 0,1 -10.291151,-4.351744" />
      <path d="M -10.291151,-4.351744 A 2.4,1.9776113830676134 1.4033933411823352e-15 0,1 -5.491151,-4.351744" />
      <path d="M -5.491151,-4.351744 A 2.4,1.9776113830676134 1.4033933411823352e-15 0,1 -5.523806,-4.026626" />
      <path d="M 2.367345,-2.942902 A 2.4,1.9776113830676134 1.4033933411823352e-15 0,1 -2.4,-3.268019" />
      <path d="M -2.4,-3.268019 A 2.4,1.9776113830676134 1.4033933411823352e-15 0,1 2.4,-3.268019" />
      <path d="M 2.4,-3.268019 A 2.4,1.9776113830676134 1.4033933411823352e-15 0,1 2.367345,-2.942902" />
      <path d="M 10.258497,-1.859177 A 2.4,1.9776113830676134 1.4033933411823352e-15 0,1 5.491151,-2.184295" />
      <path d="M 5.491151,-2.184295 A 2.4,1.9776113830676134 1.4033933411823352e-15 0,1 10.291151,-2.184295" />
      <path d="M 10.291151,-2.184295 A 2.4,1.9776113830676134 1.4033933411823352e-15 0,1 10.258497,-1.859177" />
      <path d="M 18.149648,-0.775453 A 2.4,1.9776113830676134 1.4033933411823352e-15 0,1 13.382303,-1.10057" />
      <path d="M 13.382303,-1.10057 A 2.4,1.9776113830676134 1.4033933411823352e-15 0,1 18.182303,-1.10057" />
      <path d="M 18.182303,-1.10057 A 2.4,1.9776113830676134 1.4033933411823352e-15 0,1 18.149648,-0.775453" />
      <path d="M -13.414957,-0.351054 A 2.4,1.9776113830676134 1.4033933411823352e-15 0,1 -18.182303,-0.676172" />
      <path d="M -18.182303,-0.676172 A 2.4,1.9776113830676134 1.4033933411823352e-15 0,1 -13.382303,-0.676172" />
      <path d="M -13.382303,-0.676172 A 2.4,1.9776113830676134 1.4033933411823352e-15 0,1 -13.414957,-0.351054" />
      <path d="M -5.523806,0.73267 A 2.4,1.9776113830676134 1.4033933411823352e-15 0,1 -10.291151,0.407553" />
      <path d="M -10.291151,0.407553 A 2.4,1.9776113830676134 1.4033933411823352e-15 0,1 -5.491151,0.407553" />
      <path d="M -5.491151,0.407553 A 2.4,1.9776113830676134 1.4033933411823352e-15 0,1 -5.523806,0.73267" />
      <path d="M 2.367345,1.816395 A 2.4,1.9776113830676134 1.4033933411823352e-15 0,1 -2.4,1.491277" />
      <path d="M -2.4,1.491277 A 2.4,1.9776113830676134 1.4033933411823352e-15 0,1 2.4,1.491277" />
      <path d="M 2.4,1.491277 A 2.4,1.9776113830676134 1.4033933411823352e-15 0,1 2.367345,1.816395" />
      <path d="M 10.258497,2.900119 A 2.4,1.9776113830676134 1.4033933411823352e-15 0,1 5.491151,2.575002" />
      <path d="M 5.491151,2.575002 A 2.4,1.9776113830676134 1.4033933411823352e-15 0,1 10.291151,2.575002" />
      <path d="M 10.291151,2.575002 A 2.4,1.9776113830676134 1.4033933411823352e-15 0,1 10.258497,2.900119" />
      <path d="M 18.149648,3.983843 A 2.4,1.9776113830676134 1.4033933411823352e-15 0,1 13.382303,3.658726" />
      <path d="M 13.382303,3.658726 A 2.4,1.9776113830676134 1.4033933411823352e-15 0,1 18.182303,3.658726" />
      <path d="M 18.182303,3.658726 A 2.4,1.9776113830676134 1.4033933411823352e-15 0,1 18.149648,3.983843" />
      <line x1="-19.032303" y1="-0.676172" x2="-19.032303" y2="-5.435468" />
      <line x1="-12.532303" y1="-0.676172" x2="-12.532303" y2="-5.435468" />
      <line x1="-11.141151" y1="0.407553" x2="-11.141151" y2="-4.351744" />
      <line x1="-4.641151" y1="0.407553" x2="-4.641151" y2="-4.351744" />
      <line x1="-3.25" y1="1.491277" x2="-3.25" y2="-3.268019" />
      <line x1="3.25" y1="1.491277" x2="3.25" y2="-3.268019" />
      <line x1="4.641151" y1="2.575002" x2="4.641151" y2="-2.184295" />
      <line x1="11.141151" y1="2.575002" x2="11.141151" y2="-2.184295" />
      <line x1="12.532303" y1="3.658726" x2="12.532303" y2="-1.10057" />
      <line x1="19.032303" y1="3.658726" x2="19.032303" y2="-1.10057" />
      <line x1="-18.182303" y1="-0.676172" x2="-18.182303" y2="-5.435468" />
      <line x1="-13.382303" y1="-0.676172" x2="-13.382303" y2="-5.435468" />
      <line x1="-10.291151" y1="0.407553" x2="-10.291151" y2="-4.351744" />
      <line x1="-5.491151" y1="0.407553" x2="-5.491151" y2="-4.351744" />
      <line x1="-2.4" y1="1.491277" x2="-2.4" y2="-3.268019" />
      <line x1="2.4" y1="1.491277" x2="2.4" y2="-3.268019" />
      <line x1="5.491151" y1="2.575002" x2="5.491151" y2="-2.184295" />
      <line x1="10.291151" y1="2.575002" x2="10.291151" y2="-2.184295" />
      <line x1="13.382303" y1="3.658726" x2="13.382303" y2="-1.10057" />
      <line x1="18.182303" y1="3.658726" x2="18.182303" y2="-1.10057" />
    </g>
  </g>
</svg>