<?xml version='1.0' encoding='utf-8'?>
<svg width="272.069004mm" height="140.223684mm" viewBox="-22.672417 -10.589874 45.344834 23.370614" version="1.1" xmlns="http://www.w3.org/2000/svg">
  <g transform="scale(1,-1)" stroke-linecap="round">
    <g fill="none" stroke="rgb(0,0,0)" stroke-width="0.09" id="Visible">
      <line x1="-22.627417" y1="-0.225739" x2="-22.627417" y2="-9.398625" />
      <line x1="-11.313708" y1="-3.562854" x2="-22.627417" y2="-0.225739" />
      <line x1="-11.313708" y1="-12.73574" x2="-11.313708" y2="-3.562854" />
      <line x1="-22.627417" y1="-9.398625" x2="-11.313708" y2="-12.73574" />
      <line x1="-22.627417" y1="-0.225739" x2="-19.370563" y2="0.73491" />
      <line x1="-15.188681" y1="1.968406" x2="-13.713708" y2="2.403467" />
      <line x1="-9.531827" y1="3.636964" x2="-8.056854" y2="4.072025" />
      <line x1="-3.874973" y1="5.305521" x2="-2.4" y2="5.740582" />
      <line x1="1.781881" y1="6.974079" x2="3.256854" y2="7.40914" />
      <line x1="7.438736" y1="8.642636" x2="8.913708" y2="9.077697" />
      <line x1="-11.313708" y1="-3.562854" x2="22.627417" y2="6.448491" />
      <line x1="22.627417" y1="6.448491" x2="19.370563" y2="7.40914" />
      <line x1="15.188681" y1="8.642636" x2="13.713708" y2="9.077697" />
      <path d="M -13.713708,-1.894296 A 2.4,0.7079090058323324 0.0 0,1 -8.913708,-1.894296" />
      <path d="M -8.056854,-0.225739 A 2.4,0.7079090058323324 0.0 0,1 -3.256854,-0.225739" />
      <path d="M -2.4,1.442819 A 2.4,0.7079090058323324 0.0 0,1 2.4,1.442819" />
      <path d="M 3.256854,3.111376 A 2.4,0.7079090058323324 0.0 0,1 8.056854,3.111376" />
      <path d="M 8.913708,4.779934 A 2.4,0.7079090058323324 0.0 0,1 13.713708,4.779934" />
      <path d="M 14.570563,6.448491 A 2.4,0.7079090058323324 0.0 0,1 19.370563,6.448491" />
      <path d="M -19.370563,-0.225739 A 2.4,0.7079090058323324 0.0 0,1 -14.570563,-0.225739" />
      <path d="M -13.713708,1.442819 A 2.4,0.7079090058323324 0.0 0,1 -8.913708,1.442819" />
      <path d="M -8.056854,3.111376 A 2.4,0.7079090058323324 0.0 0,1 -3.256854,3.111376" />
      <path d="M -2.4,4.779934 A 2.4,0.7079090058323324 0.0 0,1 2.4,4.779934" />
      <path d="M 3.256854,6.448491 A 2.4,0.7079090058323324 0.0 0,1 8.056854,6.448491" />
      <path d="M 8.913708,8.117049 A 2.4,0.7079090058323324 0.0 0,1 13.713708,8.117049" />
      <line x1="22.627417" y1="-2.724395" x2="22.627417" y2="6.448491" />
      <line x1="-11.313708" y1="-12.73574" x2="22.627417" y2="-2.724395" />
      <path d="M -9.616652,0.326187 A 2.4,0.7079090058323324 0.0 0,1 -13.713708,-0.17438" />
      <path d="M -13.713708,-0.17438 A 2.4,0.7079090058323324 0.0 0,1 -8.913708,-0.17438" />
      <path d="M -8.913708,-0.17438 A 2.4,0.7079090058323324 0.0 0,1 -9.616652,0.326187" />
      <path d="M -3.959798,1.994745 A 2.4,0.7079090058323324 0.0 0,1 -8.056854,1.494177" />
      <path d="M -8.056854,1.494177 A 2.4,0.7079090058323324 0.0 0,1 -3.256854,1.494177" />
      <path d="M -3.256854,1.494177 A 2.4,0.7079090058323324 0.0 0,1 -3.959798,1.994745" />
      <path d="M 1.697056,3.663302 A 2.4,0.7079090058323324 0.0 0,1 -2.4,3.162735" />
      <path d="M -2.4,3.162735 A 2.4,0.7079090058323324 0.0 0,1 2.4,3.162735" />
      <path d="M 2.4,3.162735 A 2.4,0.7079090058323324 0.0 0,1 1.697056,3.663302" />
      <path d="M 7.353911,5.33186 A 2.4,0.7079090058323324 0.0 0,1 3.256854,4.831292" />
      <path d="M 3.256854,4.831292 A 2.4,0.7079090058323324 0.0 0,1 8.056854,4.831292" />
      <path d="M 8.056854,4.831292 A 2.4,0.7079090058323324 0.0 0,1 7.353911,5.33186" />
      <path d="M 13.010765,7.000417 A 2.4,0.7079090058323324 0.0 0,1 8.913708,6.49985" />
      <path d="M 8.913708,6.49985 A 2.4,0.7079090058323324 0.0 0,1 13.713708,6.49985" />
      <path d="M 13.713708,6.49985 A 2.4,0.7079090058323324 0.0 0,1 13.010765,7.000417" />
      <path d="M 18.667619,8.668975 A 2.4,0.7079090058323324 0.0 0,1 14.570563,8.168408" />
      <path d="M 14.570563,8.168408 A 2.4,0.7079090058323324 0.0 0,1 19.370563,8.168408" />
      <path d="M 19.370563,8.168408 A 2.4,0.7079090058323324 0.0 0,1 18.667619,8.668975" />
      <path d="M -15.273506,1.994745 A 2.4,0.7079090058323324 0.0 0,1 -19.370563,1.494177" />
      <path d="M -19.370563,1.494177 A 2.4,0.7079090058323324 0.0 0,1 -14.570563,1.494177" />
      <path d="M -14.570563,1.494177 A 2.4,0.7079090058323324 0.0 0,1 -15.273506,1.994745" />
      <path d="M -9.616652,3.663302 A 2.4,0.7079090058323324 0.0 0,1 -13.713708,3.162735" />
      <path d="M -13.713708,3.162735 A 2.4,0.7079090058323324 0.0 0,1 -8.913708,3.162735" />
      <path d="M -8.913708,3.162735 A 2.4,0.7079090058323324 0.0 0,1 -9.616652,3.663302" />
      <path d="M -3.959798,5.33186 A 2.4,0.7079090058323324 0.0 0,1 -8.056854,4.831292" />
      <path d="M -8.056854,4.831292 A 2.4,0.7079090058323324 0.0 0,1 -3.256854,4.831292" />
      <path d="M -3.256854,4.831292 A 2.4,0.7079090058323324 0.0 0,1 -3.959798,5.33186" />
      <path d="M 1.697056,7.000417 A 2.4,0.7079090058323324 0.0 0,1 -2.4,6.49985" />
      <path d="M -2.4,6.49985 A 2.4,0.7079090058323324 0.0 0,1 2.4,6.49985" />
      <path d="M 2.4,6.49985 A 2.4,0.7079090058323324 0.0 0,1 1.697056,7.000417" />
      <path d="M 7.353911,8.668975 A 2.4,0.7079090058323324 0.0 0,1 3.256854,8.168408" />
      <path d="M 3.256854,8.168408 A 2.4,0.7079090058323324 0.0 0,1 8.056854,8.168408" />
      <path d="M 8.056854,8.168408 A 2.4,0.7079090058323324 0.0 0,1 7.353911,8.668975" />
      <path d="M 13.010765,10.337532 A 2.4,0.7079090058323324 0.0 0,1 8.913708,9.836965" />
      <path d="M 8.913708,9.836965 A 2.4,0.7079090058323324 0.0 0,1 13.713708,9.836965" />
      <path d="M 13.713708,9.836965 A 2.4,0.7079090058323324 0.0 0,1 13.010765,10.337532" />
      <line x1="-8.913708" y1="-1.894296" x2="-8.913708" y2="-0.17438" />
      <line x1="-13.713708" y1="-1.894296" x2="-13.713708" y2="-0.17438" />
      <line x1="-3.256854" y1="-0.225739" x2="-3.256854" y2="1.494177" />
      <line x1="-8.056854" y1="-0.225739" x2="-8.056854" y2="1.494177" />
      <line x1="2.4" y1="1.442819" x2="2.4" y2="3.162735" />
      <line x1="-2.4" y1="1.442819" x2="-2.4" y2="3.162735" />
      <line x1="8.056854" y1="3.111376" x2="8.056854" y2="4.831292" />
      <line x1="3.256854" y1="3.111376" x2="3.256854" y2="4.831292" />
      <line x1="13.713708" y1="4.779934" x2="13.713708" y2="6.49985" />
      <line x1="8.913708" y1="4.779934" x2="8.913708" y2="6.49985" />
      <line x1="19.370563" y1="6.448491" x2="19.370563" y2="8.168408" />
      <line x1="14.570563" y1="6.448491" x2="14.570563" y2="8.168408" />
      <line x1="-14.570563" y1="-0.225739" x2="-14.570563" y2="1.494177" />
      <line x1="-19.370563" y1="-0.225739" x2="-19.370563" y2="1.494177" />
      <line x1="-8.913708" y1="1.442819" x2="-8.913708" y2="3.162735" />
      <line x1="-13.713708" y1="1.442819" x2="-13.713708" y2="3.162735" />
      <line x1="-3.256854" y1="3.111376" x2="-3.256854" y2="4.831292" />
      <line x1="-8.056854" y1="3.111376" x2="-8.056854" y2="4.831292" />
      <line x1="2.4" y1="4.779934" x2="2.4" y2="6.49985" />
      <line x1="-2.4" y1="4.779934" x2="-2.4" y2="6.49985" />
      <line x1="8.056854" y1="6.448491" x2="8.056854" y2="8.168408" />
      <line x1="3.256854" y1="6.448491" x2="3.256854" y2="8.168408" />
      <line x1="13.713708" y1="8.117049" x2="13.713708" y2="9.836965" />
      <line x1="8.913708" y1="8.117049" x2="8.913708" y2="9.836965" />
    </g>
    <g fill="none" stroke="rgb(99,99,99)" stroke-width="0.09" id="Hidden" stroke-dasharray="0.0 0.27">
      <line x1="11.313708" y1="9.785606" x2="11.313708" y2="0.61272" />
      <line x1="-19.370563" y1="0.73491" x2="-15.188681" y2="1.968406" />
      <line x1="-13.713708" y1="2.403467" x2="-9.531827" y2="3.636964" />
      <line x1="-8.056854" y1="4.072025" x2="-3.874973" y2="5.305521" />
      <line x1="-2.4" y1="5.740582" x2="1.781881" y2="6.974079" />
      <line x1="3.256854" y1="7.40914" x2="7.438736" y2="8.642636" />
      <line x1="8.913708" y1="9.077697" x2="11.313708" y2="9.785606" />
      <line x1="11.313708" y1="0.61272" x2="-22.627417" y2="-9.398625" />
      <line x1="19.370563" y1="7.40914" x2="15.188681" y2="8.642636" />
      <line x1="13.713708" y1="9.077697" x2="11.313708" y2="9.785606" />
      <path d="M -9.616652,-1.393729 A 2.4,0.7079090058323324 0.0 0,1 -13.713708,-1.894296" />
      <path d="M -8.913708,-1.894296 A 2.4,0.7079090058323324 0.0 0,1 -9.616652,-1.393729" />
      <path d="M -3.959798,0.274829 A 2.4,0.7079090058323324 0.0 0,1 -8.056854,-0.225739" />
      <path d="M -3.256854,-0.225739 A 2.4,0.7079090058323324 0.0 0,1 -3.959798,0.274829" />
      <path d="M 1.697056,1.943386 A 2.4,0.7079090058323324 0.0 0,1 -2.4,1.442819" />
      <path d="M 2.4,1.442819 A 2.4,0.7079090058323324 0.0 0,1 1.697056,1.943386" />
      <path d="M 7.353911,3.611944 A 2.4,0.7079090058323324 0.0 0,1 3.256854,3.111376" />
      <path d="M 8.056854,3.111376 A 2.4,0.7079090058323324 0.0 0,1 7.353911,3.611944" />
      <path d="M 13.010765,5.280501 A 2.4,0.7079090058323324 0.0 0,1 8.913708,4.779934" />
      <path d="M 13.713708,4.779934 A 2.4,0.7079090058323324 0.0 0,1 13.010765,5.280501" />
      <path d="M 18.667619,6.949059 A 2.4,0.7079090058323324 0.0 0,1 14.570563,6.448491" />
      <path d="M 19.370563,6.448491 A 2.4,0.7079090058323324 0.0 0,1 18.667619,6.949059" />
      <path d="M -15.273506,0.274829 A 2.4,0.7079090058323324 0.0 0,1 -19.370563,-0.225739" />
      <path d="M -14.570563,-0.225739 A 2.4,0.7079090058323324 0.0 0,1 -15.273506,0.274829" />
      <path d="M -9.616652,1.943386 A 2.4,0.7079090058323324 0.0 0,1 -13.713708,1.442819" />
      <path d="M -8.913708,1.442819 A 2.4,0.7079090058323324 0.0 0,1 -9.616652,1.943386" />
      <path d="M -3.959798,3.611944 A 2.4,0.7079090058323324 0.0 0,1 -8.056854,3.111376" />
      <path d="M -3.256854,3.111376 A 2.4,0.7079090058323324 0.0 0,1 -3.959798,3.611944" />
      <path d="M 1.697056,5.280501 A 2.4,0.7079090058323324 0.0 0,1 -2.4,4.779934" />
      <path d="M 2.4,4.779934 A 2.4,0.7079090058323324 0.0 0,1 1.697056,5.280501" />
      <path d="M 7.353911,6.949059 A 2.4,0.7079090058323324 0.0 0,1 3.256854,6.448491" />
      <path d="M 8.056854,6.448491 A 2.4,0.7079090058323324 0.0 0,1 7.353911,6.949059" />
      <path d="M 13.010765,8.617616 A 2.4,0.7079090058323324 0.0 0,1 8.913708,8.117049" />
      <path d="M 13.713708,8.117049 A 2.4,0.7079090058323324 0.0 0,1 13.010765,8.617616" />
      <line x1="22.627417" y1="-2.724395" x2="11.313708" y2="0.61272" />
      <line x1="-19.162594" y1="-9.920049" x2="-20.930361" y2="-9.398625" />
      <line x1="-19.162594" y1="-9.920049" x2="-18.950462" y2="-9.857478" />
      <line x1="-18.526198" y1="-9.98262" x2="-18.950462" y2="-9.857478" />
      <line x1="-18.73833" y1="-10.045191" x2="-18.526198" y2="-9.98262" />
      <line x1="-13.50574" y1="-11.588606" x2="-18.73833" y2="-10.045191" />
      <line x1="-13.50574" y1="-11.588606" x2="-13.293607" y2="-11.526036" />
      <line x1="-12.869343" y1="-11.651177" x2="-13.293607" y2="-11.526036" />
      <line x1="-13.081475" y1="-11.713748" x2="-12.869343" y2="-11.651177" />
      <line x1="-11.313708" y1="-12.235173" x2="-13.081475" y2="-11.713748" />
      <line x1="-11.313708" y1="-12.235173" x2="-9.545942" y2="-11.713748" />
      <line x1="-9.545942" y1="-11.713748" x2="-9.758074" y2="-11.651177" />
      <line x1="-9.758074" y1="-11.651177" x2="-9.33381" y2="-11.526036" />
      <line x1="-9.121677" y1="-11.588606" x2="-9.33381" y2="-11.526036" />
      <line x1="-9.121677" y1="-11.588606" x2="-3.889087" y2="-10.045191" />
      <line x1="-3.889087" y1="-10.045191" x2="-4.101219" y2="-9.98262" />
      <line x1="-4.101219" y1="-9.98262" x2="-3.676955" y2="-9.857478" />
      <line x1="-3.464823" y1="-9.920049" x2="-3.676955" y2="-9.857478" />
      <line x1="-3.464823" y1="-9.920049" x2="1.767767" y2="-8.376633" />
      <line x1="1.767767" y1="-8.376633" x2="1.555635" y2="-8.314062" />
      <line x1="1.555635" y1="-8.314062" x2="1.979899" y2="-8.188921" />
      <line x1="2.192031" y1="-8.251491" x2="1.979899" y2="-8.188921" />
      <line x1="2.192031" y1="-8.251491" x2="7.424621" y2="-6.708076" />
      <line x1="7.424621" y1="-6.708076" x2="7.212489" y2="-6.645505" />
      <line x1="7.212489" y1="-6.645505" x2="7.636753" y2="-6.520363" />
      <line x1="7.848885" y1="-6.582934" x2="7.636753" y2="-6.520363" />
      <line x1="7.848885" y1="-6.582934" x2="13.081475" y2="-5.039518" />
      <line x1="13.081475" y1="-5.039518" x2="12.869343" y2="-4.976947" />
      <line x1="12.869343" y1="-4.976947" x2="13.293607" y2="-4.851805" />
      <line x1="13.50574" y1="-4.914376" x2="13.293607" y2="-4.851805" />
      <line x1="13.50574" y1="-4.914376" x2="18.73833" y2="-3.370961" />
      <line x1="18.73833" y1="-3.370961" x2="18.526198" y2="-3.30839" />
      <line x1="18.526198" y1="-3.30839" x2="18.950462" y2="-3.183248" />
      <line x1="19.162594" y1="-3.245819" x2="18.950462" y2="-3.183248" />
      <line x1="19.162594" y1="-3.245819" x2="20.930361" y2="-2.724395" />
      <line x1="20.930361" y1="-2.724395" x2="19.162594" y2="-2.20297" />
      <line x1="18.950462" y1="-2.265541" x2="19.162594" y2="-2.20297" />
      <line x1="18.950462" y1="-2.265541" x2="18.526198" y2="-2.140399" />
      <line x1="18.526198" y1="-2.140399" x2="18.73833" y2="-2.077829" />
      <line x1="18.73833" y1="-2.077829" x2="13.50574" y2="-0.534413" />
      <line x1="13.293607" y1="-0.596984" x2="13.50574" y2="-0.534413" />
      <line x1="13.293607" y1="-0.596984" x2="12.869343" y2="-0.471842" />
      <line x1="12.869343" y1="-0.471842" x2="13.081475" y2="-0.409271" />
      <line x1="13.081475" y1="-0.409271" x2="11.313708" y2="0.112153" />
      <line x1="9.545942" y1="-0.409271" x2="11.313708" y2="0.112153" />
      <line x1="9.758074" y1="-0.471842" x2="9.545942" y2="-0.409271" />
      <line x1="9.33381" y1="-0.596984" x2="9.758074" y2="-0.471842" />
      <line x1="9.33381" y1="-0.596984" x2="9.121677" y2="-0.534413" />
      <line x1="3.889087" y1="-2.077829" x2="9.121677" y2="-0.534413" />
      <line x1="4.101219" y1="-2.140399" x2="3.889087" y2="-2.077829" />
      <line x1="3.676955" y1="-2.265541" x2="4.101219" y2="-2.140399" />
      <line x1="3.676955" y1="-2.265541" x2="3.464823" y2="-2.20297" />
      <line x1="-1.767767" y1="-3.746386" x2="3.464823" y2="-2.20297" />
      <line x1="-1.555635" y1="-3.808957" x2="-1.767767" y2="-3.746386" />
      <line x1="-1.979899" y1="-3.934099" x2="-1.555635" y2="-3.808957" />
      <line x1="-1.979899" y1="-3.934099" x2="-2.192031" y2="-3.871528" />
      <line x1="-7.424621" y1="-5.414944" x2="-2.192031" y2="-3.871528" />
      <line x1="-7.212489" y1="-5.477515" x2="-7.424621" y2="-5.414944" />
      <line x1="-7.636753" y1="-5.602656" x2="-7.212489" y2="-5.477515" />
      <line x1="-7.636753" y1="-5.602656" x2="-7.848885" y2="-5.540085" />
      <line x1="-13.081475" y1="-7.083501" x2="-7.848885" y2="-5.540085" />
      <line x1="-12.869343" y1="-7.146072" x2="-13.081475" y2="-7.083501" />
      <line x1="-13.293607" y1="-7.271214" x2="-12.869343" y2="-7.146072" />
      <line x1="-13.293607" y1="-7.271214" x2="-13.50574" y2="-7.208643" />
      <line x1="-18.73833" y1="-8.752059" x2="-13.50574" y2="-7.208643" />
      <line x1="-18.526198" y1="-8.81463" x2="-18.73833" y2="-8.752059" />
      <line x1="-18.950462" y1="-8.939771" x2="-18.526198" y2="-8.81463" />
      <line x1="-18.950462" y1="-8.939771" x2="-19.162594" y2="-8.8772" />
      <line x1="-20.930361" y1="-9.398625" x2="-19.162594" y2="-8.8772" />
      <line x1="-19.162594" y1="-9.920049" x2="-19.162594" y2="-1.893774" />
      <line x1="-20.930361" y1="-9.398625" x2="-20.930361" y2="-1.372349" />
      <line x1="-19.162594" y1="-1.893774" x2="-20.930361" y2="-1.372349" />
      <line x1="-18.950462" y1="-9.857478" x2="-18.950462" y2="-1.831203" />
      <line x1="-19.162594" y1="-1.893774" x2="-18.950462" y2="-1.831203" />
      <line x1="-18.526198" y1="-9.98262" x2="-18.526198" y2="-1.956345" />
      <line x1="-18.526198" y1="-1.956345" x2="-18.950462" y2="-1.831203" />
      <line x1="-18.73833" y1="-10.045191" x2="-18.73833" y2="-2.018916" />
      <line x1="-18.73833" y1="-2.018916" x2="-18.526198" y2="-1.956345" />
      <line x1="-13.50574" y1="-11.588606" x2="-13.50574" y2="-3.562331" />
      <line x1="-13.50574" y1="-3.562331" x2="-18.73833" y2="-2.018916" />
      <line x1="-13.293607" y1="-11.526036" x2="-13.293607" y2="-3.49976" />
      <line x1="-13.50574" y1="-3.562331" x2="-13.293607" y2="-3.49976" />
      <line x1="-12.869343" y1="-11.651177" x2="-12.869343" y2="-3.624902" />
      <line x1="-12.869343" y1="-3.624902" x2="-13.293607" y2="-3.49976" />
      <line x1="-13.081475" y1="-11.713748" x2="-13.081475" y2="-3.687473" />
      <line x1="-13.081475" y1="-3.687473" x2="-12.869343" y2="-3.624902" />
      <line x1="-11.313708" y1="-12.235173" x2="-11.313708" y2="-4.208897" />
      <line x1="-11.313708" y1="-4.208897" x2="-13.081475" y2="-3.687473" />
      <line x1="-9.545942" y1="-11.713748" x2="-9.545942" y2="-3.687473" />
      <line x1="-11.313708" y1="-4.208897" x2="-9.545942" y2="-3.687473" />
      <line x1="-9.758074" y1="-11.651177" x2="-9.758074" y2="-3.624902" />
      <line x1="-9.545942" y1="-3.687473" x2="-9.758074" y2="-3.624902" />
      <line x1="-9.33381" y1="-11.526036" x2="-9.33381" y2="-3.49976" />
      <line x1="-9.758074" y1="-3.624902" x2="-9.33381" y2="-3.49976" />
      <line x1="-9.121677" y1="-11.588606" x2="-9.121677" y2="-3.562331" />
      <line x1="-9.121677" y1="-3.562331" x2="-9.33381" y2="-3.49976" />
      <line x1="-3.889087" y1="-10.045191" x2="-3.889087" y2="-2.018916" />
      <line x1="-9.121677" y1="-3.562331" x2="-3.889087" y2="-2.018916" />
      <line x1="-4.101219" y1="-9.98262" x2="-4.101219" y2="-1.956345" />
      <line x1="-3.889087" y1="-2.018916" x2="-4.101219" y2="-1.956345" />
      <line x1="-3.676955" y1="-9.857478" x2="-3.676955" y2="-1.831203" />
      <line x1="-4.101219" y1="-1.956345" x2="-3.676955" y2="-1.831203" />
      <line x1="-3.464823" y1="-9.920049" x2="-3.464823" y2="-1.893774" />
      <line x1="-3.464823" y1="-1.893774" x2="-3.676955" y2="-1.831203" />
      <line x1="1.767767" y1="-8.376633" x2="1.767767" y2="-0.350358" />
      <line x1="-3.464823" y1="-1.893774" x2="1.767767" y2="-0.350358" />
      <line x1="1.555635" y1="-8.314062" x2="1.555635" y2="-0.287787" />
      <line x1="1.767767" y1="-0.350358" x2="1.555635" y2="-0.287787" />
      <line x1="1.979899" y1="-8.188921" x2="1.979899" y2="-0.162645" />
      <line x1="1.555635" y1="-0.287787" x2="1.979899" y2="-0.162645" />
      <line x1="2.192031" y1="-8.251491" x2="2.192031" y2="-0.225216" />
      <line x1="2.192031" y1="-0.225216" x2="1.979899" y2="-0.162645" />
      <line x1="7.424621" y1="-6.708076" x2="7.424621" y2="1.3182" />
      <line x1="2.192031" y1="-0.225216" x2="7.424621" y2="1.3182" />
      <line x1="7.212489" y1="-6.645505" x2="7.212489" y2="1.38077" />
      <line x1="7.424621" y1="1.3182" x2="7.212489" y2="1.38077" />
      <line x1="7.636753" y1="-6.520363" x2="7.636753" y2="1.505912" />
      <line x1="7.212489" y1="1.38077" x2="7.636753" y2="1.505912" />
      <line x1="7.848885" y1="-6.582934" x2="7.848885" y2="1.443341" />
      <line x1="7.848885" y1="1.443341" x2="7.636753" y2="1.505912" />
      <line x1="13.081475" y1="-5.039518" x2="13.081475" y2="2.986757" />
      <line x1="7.848885" y1="1.443341" x2="13.081475" y2="2.986757" />
      <line x1="12.869343" y1="-4.976947" x2="12.869343" y2="3.049328" />
      <line x1="13.081475" y1="2.986757" x2="12.869343" y2="3.049328" />
      <line x1="13.293607" y1="-4.851805" x2="13.293607" y2="3.17447" />
      <line x1="12.869343" y1="3.049328" x2="13.293607" y2="3.17447" />
      <line x1="13.50574" y1="-4.914376" x2="13.50574" y2="3.111899" />
      <line x1="13.50574" y1="3.111899" x2="13.293607" y2="3.17447" />
      <line x1="18.73833" y1="-3.370961" x2="18.73833" y2="4.655315" />
      <line x1="13.50574" y1="3.111899" x2="18.73833" y2="4.655315" />
      <line x1="18.526198" y1="-3.30839" x2="18.526198" y2="4.717885" />
      <line x1="18.73833" y1="4.655315" x2="18.526198" y2="4.717885" />
      <line x1="18.950462" y1="-3.183248" x2="18.950462" y2="4.843027" />
      <line x1="18.526198" y1="4.717885" x2="18.950462" y2="4.843027" />
      <line x1="19.162594" y1="-3.245819" x2="19.162594" y2="4.780456" />
      <line x1="19.162594" y1="4.780456" x2="18.950462" y2="4.843027" />
      <line x1="20.930361" y1="-2.724395" x2="20.930361" y2="5.301881" />
      <line x1="19.162594" y1="4.780456" x2="20.930361" y2="5.301881" />
      <line x1="19.162594" y1="-2.20297" x2="19.162594" y2="5.823305" />
      <line x1="20.930361" y1="5.301881" x2="19.162594" y2="5.823305" />
      <line x1="18.950462" y1="-2.265541" x2="18.950462" y2="5.760734" />
      <line x1="18.950462" y1="5.760734" x2="19.162594" y2="5.823305" />
      <line x1="18.526198" y1="-2.140399" x2="18.526198" y2="5.885876" />
      <line x1="18.950462" y1="5.760734" x2="18.526198" y2="5.885876" />
      <line x1="18.73833" y1="-2.077829" x2="18.73833" y2="5.948447" />
      <line x1="18.526198" y1="5.885876" x2="18.73833" y2="5.948447" />
      <line x1="13.50574" y1="-0.534413" x2="13.50574" y2="7.491862" />
      <line x1="18.73833" y1="5.948447" x2="13.50574" y2="7.491862" />
      <line x1="13.293607" y1="-0.596984" x2="13.293607" y2="7.429291" />
      <line x1="13.293607" y1="7.429291" x2="13.50574" y2="7.491862" />
      <line x1="12.869343" y1="-0.471842" x2="12.869343" y2="7.554433" />
      <line x1="13.293607" y1="7.429291" x2="12.869343" y2="7.554433" />
      <line x1="13.081475" y1="-0.409271" x2="13.081475" y2="7.617004" />
      <line x1="12.869343" y1="7.554433" x2="13.081475" y2="7.617004" />
      <line x1="11.313708" y1="0.112153" x2="11.313708" y2="8.138428" />
      <line x1="13.081475" y1="7.617004" x2="11.313708" y2="8.138428" />
      <line x1="9.545942" y1="-0.409271" x2="9.545942" y2="7.617004" />
      <line x1="9.545942" y1="7.617004" x2="11.313708" y2="8.138428" />
      <line x1="9.758074" y1="-0.471842" x2="9.758074" y2="7.554433" />
      <line x1="9.758074" y1="7.554433" x2="9.545942" y2="7.617004" />
      <line x1="9.33381" y1="-0.596984" x2="9.33381" y2="7.429291" />
      <line x1="9.33381" y1="7.429291" x2="9.758074" y2="7.554433" />
      <line x1="9.121677" y1="-0.534413" x2="9.121677" y2="7.491862" />
      <line x1="9.33381" y1="7.429291" x2="9.121677" y2="7.491862" />
      <line x1="3.889087" y1="-2.077829" x2="3.889087" y2="5.948447" />
      <line x1="3.889087" y1="5.948447" x2="9.121677" y2="7.491862" />
      <line x1="4.101219" y1="-2.140399" x2="4.101219" y2="5.885876" />
      <line x1="4.101219" y1="5.885876" x2="3.889087" y2="5.948447" />
      <line x1="3.676955" y1="-2.265541" x2="3.676955" y2="5.760734" />
      <line x1="3.676955" y1="5.760734" x2="4.101219" y2="5.885876" />
      <line x1="3.464823" y1="-2.20297" x2="3.464823" y2="5.823305" />
      <line x1="3.676955" y1="5.760734" x2="3.464823" y2="5.823305" />
      <line x1="-1.767767" y1="-3.746386" x2="-1.767767" y2="4.279889" />
      <line x1="-1.767767" y1="4.279889" x2="3.464823" y2="5.823305" />
      <line x1="-1.555635" y1="-3.808957" x2="-1.555635" y2="4.217318" />
      <line x1="-1.555635" y1="4.217318" x2="-1.767767" y2="4.279889" />
      <line x1="-1.979899" y1="-3.934099" x2="-1.979899" y2="4.092176" />
      <line x1="-1.979899" y1="4.092176" x2="-1.555635" y2="4.217318" />
      <line x1="-2.192031" y1="-3.871528" x2="-2.192031" y2="4.154747" />
      <line x1="-1.979899" y1="4.092176" x2="-2.192031" y2="4.154747" />
      <line x1="-7.424621" y1="-5.414944" x2="-7.424621" y2="2.611332" />
      <line x1="-7.424621" y1="2.611332" x2="-2.192031" y2="4.154747" />
      <line x1="-7.212489" y1="-5.477515" x2="-7.212489" y2="2.548761" />
      <line x1="-7.212489" y1="2.548761" x2="-7.424621" y2="2.611332" />
      <line x1="-7.636753" y1="-5.602656" x2="-7.636753" y2="2.423619" />
      <line x1="-7.636753" y1="2.423619" x2="-7.212489" y2="2.548761" />
      <line x1="-7.848885" y1="-5.540085" x2="-7.848885" y2="2.48619" />
      <line x1="-7.636753" y1="2.423619" x2="-7.848885" y2="2.48619" />
      <line x1="-13.081475" y1="-7.083501" x2="-13.081475" y2="0.942774" />
      <line x1="-13.081475" y1="0.942774" x2="-7.848885" y2="2.48619" />
      <line x1="-12.869343" y1="-7.146072" x2="-12.869343" y2="0.880203" />
      <line x1="-12.869343" y1="0.880203" x2="-13.081475" y2="0.942774" />
      <line x1="-13.293607" y1="-7.271214" x2="-13.293607" y2="0.755061" />
      <line x1="-13.293607" y1="0.755061" x2="-12.869343" y2="0.880203" />
      <line x1="-13.50574" y1="-7.208643" x2="-13.50574" y2="0.817632" />
      <line x1="-13.293607" y1="0.755061" x2="-13.50574" y2="0.817632" />
      <line x1="-18.73833" y1="-8.752059" x2="-18.73833" y2="-0.725783" />
      <line x1="-18.73833" y1="-0.725783" x2="-13.50574" y2="0.817632" />
      <line x1="-18.526198" y1="-8.81463" x2="-18.526198" y2="-0.788354" />
      <line x1="-18.526198" y1="-0.788354" x2="-18.73833" y2="-0.725783" />
      <line x1="-18.950462" y1="-8.939771" x2="-18.950462" y2="-0.913496" />
      <line x1="-18.950462" y1="-0.913496" x2="-18.526198" y2="-0.788354" />
      <line x1="-19.162594" y1="-8.8772" x2="-19.162594" y2="-0.850925" />
      <line x1="-18.950462" y1="-0.913496" x2="-19.162594" y2="-0.850925" />
      <line x1="-20.930361" y1="-1.372349" x2="-19.162594" y2="-0.850925" />
      <path d="M -9.015611,-0.694498 A 3.25,0.9586267787312834 0.0 0,1 -14.563708,-1.372349" />
      <path d="M -14.563708,-1.372349 A 3.25,0.9586267787312834 0.0 0,1 -8.063708,-1.372349" />
      <path d="M -8.063708,-1.372349 A 3.25,0.9586267787312834 0.0 0,1 -9.015611,-0.694498" />
      <path d="M -3.358757,0.97406 A 3.25,0.9586267787312834 0.0 0,1 -8.906854,0.296208" />
      <path d="M -8.906854,0.296208 A 3.25,0.9586267787312834 0.0 0,1 -2.406854,0.296208" />
      <path d="M -2.406854,0.296208 A 3.25,0.9586267787312834 0.0 0,1 -3.358757,0.97406" />
      <path d="M 2.298097,2.642617 A 3.25,0.9586267787312834 0.0 0,1 -3.25,1.964766" />
      <path d="M -3.25,1.964766 A 3.25,0.9586267787312834 0.0 0,1 3.25,1.964766" />
      <path d="M 3.25,1.964766 A 3.25,0.9586267787312834 0.0 0,1 2.298097,2.642617" />
      <path d="M 7.954951,4.311175 A 3.25,0.9586267787312834 0.0 0,1 2.406854,3.633323" />
      <path d="M 2.406854,3.633323 A 3.25,0.9586267787312834 0.0 0,1 8.906854,3.633323" />
      <path d="M 8.906854,3.633323 A 3.25,0.9586267787312834 0.0 0,1 7.954951,4.311175" />
      <path d="M 13.611806,5.979732 A 3.25,0.9586267787312834 0.0 0,1 8.063708,5.301881" />
      <path d="M 8.063708,5.301881 A 3.25,0.9586267787312834 0.0 0,1 14.563708,5.301881" />
      <path d="M 14.563708,5.301881 A 3.25,0.9586267787312834 0.0 0,1 13.611806,5.979732" />
      <path d="M -9.015611,-8.720773 A 3.25,0.9586267787312834 0.0 0,1 -14.563708,-9.398625" />
      <path d="M -14.563708,-9.398625 A 3.25,0.9586267787312834 0.0 0,1 -8.063708,-9.398625" />
      <path d="M -8.063708,-9.398625 A 3.25,0.9586267787312834 0.0 0,1 -9.015611,-8.720773" />
      <path d="M -3.358757,-7.052216 A 3.25,0.9586267787312834 0.0 0,1 -8.906854,-7.730067" />
      <path d="M -8.906854,-7.730067 A 3.25,0.9586267787312834 0.0 0,1 -2.406854,-7.730067" />
      <path d="M -2.406854,-7.730067 A 3.25,0.9586267787312834 0.0 0,1 -3.358757,-7.052216" />
      <path d="M 2.298097,-5.383658 A 3.25,0.9586267787312834 0.0 0,1 -3.25,-6.06151" />
      <path d="M -3.25,-6.06151 A 3.25,0.9586267787312834 0.0 0,1 3.25,-6.06151" />
      <path d="M 3.25,-6.06151 A 3.25,0.9586267787312834 0.0 0,1 2.298097,-5.383658" />
      <path d="M 7.954951,-3.715101 A 3.25,0.9586267787312834 0.0 0,1 2.406854,-4.392952" />
      <path d="M 2.406854,-4.392952 A 3.25,0.9586267787312834 0.0 0,1 8.906854,-4.392952" />
      <path d="M 8.906854,-4.392952 A 3.25,0.9586267787312834 0.0 0,1 7.954951,-3.715101" />
      <path d="M 13.611806,-2.046543 A 3.25,0.9586267787312834 0.0 0,1 8.063708,-2.724395" />
      <path d="M 8.063708,-2.724395 A 3.25,0.9586267787312834 0.0 0,1 14.563708,-2.724395" />
      <path d="M 14.563708,-2.724395 A 3.25,0.9586267787312834 0.0 0,1 13.611806,-2.046543" />
      <path d="M -9.616652,-8.898057 A 2.4,0.7079090058323324 0.0 0,1 -13.713708,-9.398625" />
      <path d="M -13.713708,-9.398625 A 2.4,0.7079090058323324 0.0 0,1 -8.913708,-9.398625" />
      <path d="M -8.913708,-9.398625 A 2.4,0.7079090058323324 0.0 0,1 -9.616652,-8.898057" />
      <path d="M -3.959798,-7.2295 A 2.4,0.7079090058323324 0.0 0,1 -8.056854,-7.730067" />
      <path d="M -8.056854,-7.730067 A 2.4,0.7079090058323324 0.0 0,1 -3.256854,-7.730067" />
      <path d="M -3.256854,-7.730067 A 2.4,0.7079090058323324 0.0 0,1 -3.959798,-7.2295" />
      <path d="M 1.697056,-5.560942 A 2.4,0.7079090058323324 0.0 0,1 -2.4,-6.06151" />
      <path d="M -2.4,-6.06151 A 2.4,0.7079090058323324 0.0 0,1 2.4,-6.06151" />
      <path d="M 2.4,-6.06151 A 2.4,0.7079090058323324 0.0 0,1 1.697056,-5.560942" />
      <path d="M 7.353911,-3.892385 A 2.4,0.7079090058323324 0.0 0,1 3.256854,-4.392952" />
      <path d="M 3.256854,-4.392952 A 2.4,0.7079090058323324 0.0 0,1 8.056854,-4.392952" />
      <path d="M 8.056854,-4.392952 A 2.4,0.7079090058323324 0.0 0,1 7.353911,-3.892385" />
      <path d="M 13.010765,-2.223827 A 2.4,0.7079090058323324 0.0 0,1 8.913708,-2.724395" />
      <path d="M 8.913708,-2.724395 A 2.4,0.7079090058323324 0.0 0,1 13.713708,-2.724395" />
      <path d="M 13.713708,-2.724395 A 2.4,0.7079090058323324 0.0 0,1 13.010765,-2.223827" />
      <path d="M -9.616652,-0.871782 A 2.4,0.7079090058323324 0.0 0,1 -13.713708,-1.372349" />
      <path d="M -13.713708,-1.372349 A 2.4,0.7079090058323324 0.0 0,1 -8.913708,-1.372349" />
      <path d="M -8.913708,-1.372349 A 2.4,0.7079090058323324 0.0 0,1 -9.616652,-0.871782" />
      <path d="M -3.959798,0.796775 A 2.4,0.7079090058323324 0.0 0,1 -8.056854,0.296208" />
      <path d="M -8.056854,0.296208 A 2.4,0.7079090058323324 0.0 0,1 -3.256854,0.296208" />
      <path d="M -3.256854,0.296208 A 2.4,0.7079090058323324 0.0 0,1 -3.959798,0.796775" />
      <path d="M 1.697056,2.465333 A 2.4,0.7079090058323324 0.0 0,1 -2.4,1.964766" />
      <path d="M -2.4,1.964766 A 2.4,0.7079090058323324 0.0 0,1 2.4,1.964766" />
      <path d="M 2.4,1.964766 A 2.4,0.7079090058323324 0.0 0,1 1.697056,2.465333" />
      <path d="M 7.353911,4.13389 A 2.4,0.7079090058323324 0.0 0,1 3.256854,3.633323" />
      <path d="M 3.256854,3.633323 A 2.4,0.7079090058323324 0.0 0,1 8.056854,3.633323" />
      <path d="M 8.056854,3.633323 A 2.4,0.7079090058323324 0.0 0,1 7.353911,4.13389" />
      <path d="M 13.010765,5.802448 A 2.4,0.7079090058323324 0.0 0,1 8.913708,5.301881" />
      <path d="M 8.913708,5.301881 A 2.4,0.7079090058323324 0.0 0,1 13.713708,5.301881" />
      <path d="M 13.713708,5.301881 A 2.4,0.7079090058323324 0.0 0,1 13.010765,5.802448" />
      <line x1="-14.563708" y1="-1.372349" x2="-14.563708" y2="-9.398625" />
      <line x1="-8.063708" y1="-1.372349" x2="-8.063708" y2="-9.398625" />
      <line x1="-8.906854" y1="0.296208" x2="-8.906854" y2="-7.730067" />
      <line x1="-2.406854" y1="0.296208" x2="-2.406854" y2="-7.730067" />
      <line x1="-3.25" y1="1.964766" x2="-3.25" y2="-6.06151" />
      <line x1="3.25" y1="1.964766" x2="3.25" y2="-6.06151" />
      <line x1="2.406854" y1="3.633323" x2="2.406854" y2="-4.392952" />
      <line x1="8.906854" y1="3.633323" x2="8.906854" y2="-4.392952" />
      <line x1="8.063708" y1="5.301881" x2="8.063708" y2="-2.724395" />
      <line x1="14.563708" y1="5.301881" x2="14.563708" y2="-2.724395" />
      <line x1="-13.713708" y1="-1.372349" x2="-13.713708" y2="-9.398625" />
      <line x1="-8.913708" y1="-1.372349" x2="-8.913708" y2="-9.398625" />
      <line x1="-8.056854" y1="0.296208" x2="-8.056854" y2="-7.730067" />
      <line x1="-3.256854" y1="0.296208" x2="-3.256854" y2="-7.730067" />
      <line x1="-2.4" y1="1.964766" x2="-2.4" y2="-6.06151" />
      <line x1="2.4" y1="1.964766" x2="2.4" y2="-6.06151" />
      <line x1="3.256854" y1="3.633323" x2="3.256854" y2="-4.392952" />
      <line x1="8.056854" y1="3.633323" x2="8.056854" y2="-4.392952" />
      <line x1="8.913708" y1="5.301881" x2="8.913708" y2="-2.724395" />
      <line x1="13.713708" y1="5.301881" x2="13.713708" y2="-2.724395" />
    </g>
  </g>
</svg>