<?xml version="1.0" encoding="UTF-8" standalone="no"?>
    <svg
    xmlns:svg="http://www.w3.org/2000/svg"
    xmlns="http://www.w3.org/2000/svg"
    width="109"
    height="123"
    >
        <g transform="scale(50, -50)   translate(1.3351795662841852,-1.022298009292876)" stroke-width="0.02"  fill="none">
        <!-- hidden lines -->
        <g  stroke="rgb(160,160,160)" fill="none" stroke-dasharray="0.02,0.02" >
    
        </g>

        <!-- solid lines -->
        <g  stroke="rgb(0,0,0)" fill="none">
    			<path d="M-0.4472135954999579,-0.149071198499986 L0.4472135954999579,0.14907119849998574 " />
			<path d="M-0.8944271909999159,-0.29814239699997197 L-0.4472135954999579,-0.894427190999916 " />
			<path d="M-0.8944271909999159,-0.29814239699997197 L-0.8944271909999159,0.4472135954999579 " />
			<path d="M-0.8944271909999159,-0.29814239699997197 L1.1102230246251565e-16,5.551115123125783e-17 " />
			<path d="M-0.4472135954999579,-0.894427190999916 L-0.4552494647940978,-0.881577564254214 L-0.4611890203593316,-0.8680291662655434 L-0.4695742752749558,-0.8397677515499211 " />
			<path d="M-0.4472135954999579,-0.894427190999916 L-0.4552494647940978,-0.8858478329612449 L-0.4611890203593316,-0.883557416109292 L-0.46573103343862804,-0.8854596267151512 L-0.4695742752749558,-0.8894581510499164 " />
			<path d="M-0.8944271909999159,0.4472135954999579 L-0.8957082716120252,0.43552858749253714 L-0.8990856659530404,0.43013252067183455 L-0.9038606027799931,0.428929081308944 L-0.9093343108499145,0.42982195567495957 " />
			<path d="M-0.8944271909999159,0.4472135954999579 L-0.8931461103878066,0.4321123725269125 L-0.8897687160467913,0.4177099207968357 L-0.8795200711499173,0.39006963607496337 " />
			<path d="M0.0,0.0 L-0.01607173858827974,-0.0032221118425778167 L-0.027950849718747374,-0.0015528249843748537 L-0.037034875877340265,0.0033773943410152986 L-0.044721359549995766,0.009938079899999036 " />
			<path d="M0.0,0.0 L-0.01607173858827974,-0.007492380549608665 L-0.027950849718747374,-0.017081074828123394 L-0.044721359549995766,-0.039752319599996214 " />
			<path d="M-0.3784545051918393,-0.9181853526036252 L-0.4059580685264156,-0.947664279158559 " />
			<path d="M-0.4059580685264157,-0.947664279158559 L-0.3771130099826818,-1.0558152638300662 " />
			<path d="M-0.3771130099826817,-1.0558152638300662 L-0.38997040085330553,-1.0386720760025678 " />
			<path d="M-0.3899704008533056,-1.0386720760025678 L-0.41221898607474394,-0.9523601189628701 " />
			<path d="M-0.41221898607474394,-0.9523601189628701 L-0.43457966584974184,-0.9791930560073194 " />
			<path d="M-0.43457966584974184,-0.9791930560073194 L-0.4472135954999579,-0.9623478164736979 " />
			<path d="M-0.4472135954999579,-0.962347816473698 L-0.4183681730128683,-0.9311174731766221 " />
			<path d="M-0.4183681730128683,-0.9311174731766221 L-0.4454248139066292,-0.8288916076505721 " />
			<path d="M-0.44542481390662925,-0.8288916076505721 L-0.43279088425641316,-0.8457368471841936 " />
			<path d="M-0.43279088425641316,-0.8457368471841935 L-0.4118837942441324,-0.926905799349861 " />
			<path d="M-0.4118837942441324,-0.9269057993498608 L-0.3908646096782921,-0.9016385466216882 " />
			<path d="M-0.3908646096782922,-0.9016385466216883 L-0.3784545051918395,-0.9181853526036252 " />
			<path d="M-0.9351795662841851,0.622298009292876 L-0.8856505150052225,0.5052022674535621 " />
			<path d="M-0.8856505150052225,0.5052022674535621 L-0.8536748157156466,0.46256800173412765 " />
			<path d="M-0.8536748157156466,0.46256800173412754 L-0.8536748157156466,0.44523823227960035 " />
			<path d="M-0.8536748157156466,0.4452382322796005 L-0.8856505150052225,0.487872497999035 " />
			<path d="M-0.8856505150052225,0.48787249799903504 L-0.9351795662841852,0.5015500958789837 " />
			<path d="M-0.9351795662841851,0.5015500958789836 L-0.9351795662841851,0.5229790806633565 " />
			<path d="M-0.9351795662841851,0.5229790806633567 L-0.8954893596835638,0.5099354721090599 " />
			<path d="M-0.8954893596835638,0.5099354721090597 L-0.9351795662841851,0.6016138952431953 " />
			<path d="M-0.9351795662841851,0.6016138952431953 L-0.9351795662841851,0.622298009292876 " />
			<path d="M0.16300950113707702,0.007845162975746334 L0.16300950113707702,0.10567313699136212 " />
			<path d="M0.16300950113707702,0.1056731369913621 L0.1442263845487365,0.09941209812858193 " />
			<path d="M0.14422638454873626,0.09941209812858193 L0.018335466260813532,-0.023795829741025648 " />
			<path d="M0.018335466260813615,-0.02379582974102562 L0.01833546626081361,0.05782089406662051 " />
			<path d="M0.018335466260813615,0.057820894066620554 L-9.020562075079397e-17,0.05170907197968265 " />
			<path d="M0.0,0.05170907197968261 L3.444516137630592e-18,-2.7755575615628914e-17 " />
			<path d="M3.444516137630592e-18,-2.7755575615628914e-17 L6.889032275261184e-18,-0.051709071979682664 " />
			<path d="M0.0,-0.051709071979682636 L0.018335466260813706,-0.04559724989274473 " />
			<path d="M0.018335466260813837,-0.04559724989274466 L0.144673306989552,0.07813208749114756 " />
			<path d="M0.14467330698955172,0.07813208749114747 L0.14467330698955172,0.0017330982599046696 " />
			<path d="M0.14467330698955172,0.0017330982599046418 L0.16300950113707682,0.007845162975746348 " />

        </g>
        </g>
    </svg>
    