<?xml version='1.0' encoding='utf-8'?>
<svg width="100.2mm" height="92.071276mm" viewBox="-80.884429 -85.260356 186.600742 171.462758" version="1.1" xmlns="http://www.w3.org/2000/svg">
  <g transform="scale(1,-1)" stroke-linecap="round">
    <g fill="none" stroke="rgb(0,0,0)" stroke-width="0.37245657030040263" id="Visible">
      <line x1="-48.408296" y1="-72.549421" x2="-48.408296" y2="-9.738612" />
      <line x1="-48.408296" y1="-9.738612" x2="-73.43923" y2="65.596905" />
      <line x1="-73.43923" y1="2.786096" x2="-73.43923" y2="65.596905" />
      <line x1="-48.408296" y1="-72.549421" x2="-73.43923" y2="2.786096" />
      <line x1="48.408296" y1="-53.072197" x2="48.408296" y2="9.738612" />
      <line x1="48.408296" y1="9.738612" x2="23.377361" y2="85.074128" />
      <line x1="-48.408296" y1="-72.549421" x2="48.408296" y2="-53.072197" />
      <line x1="-48.408296" y1="-9.738612" x2="48.408296" y2="9.738612" />
      <line x1="-73.43923" y1="65.596905" x2="23.377361" y2="85.074128" />
      <line x1="53.249125" y1="-86.016173" x2="53.249125" y2="-52.098336" />
      <line x1="53.249125" y1="-52.098336" x2="48.408296" y2="-37.528908" />
      <line x1="53.249125" y1="-86.016173" x2="42.685694" y2="-54.22345" />
      <line x1="105.530084" y1="-75.498473" x2="105.530084" y2="-41.580636" />
      <line x1="105.530084" y1="-41.580636" x2="92.01338" y2="-0.899457" />
      <line x1="53.249125" y1="-86.016173" x2="105.530084" y2="-75.498473" />
      <line x1="53.249125" y1="-52.098336" x2="105.530084" y2="-41.580636" />
      <line x1="48.408296" y1="-9.671775" x2="92.01338" y2="-0.899457" />
      <line x1="71.398515" y1="-5.046683" x2="71.398515" y2="9.649712" />
      <line x1="71.398515" y1="9.649712" x2="62.887997" y2="35.263788" />
      <line x1="48.408296" y1="5.02462" x2="71.398515" y2="9.649712" />
      <line x1="41.365912" y1="30.93405" x2="62.887997" y2="35.263788" />
      <line x1="-74.690777" y1="-0.984425" x2="-74.690777" y2="14.090169" />
      <line x1="-74.690777" y1="14.090169" x2="-80.698201" y2="32.170693" />
      <line x1="-80.698201" y1="17.096099" x2="-80.698201" y2="32.170693" />
      <line x1="-74.690777" y1="-0.984425" x2="-80.698201" y2="17.096099" />
      <line x1="-74.690777" y1="-0.984425" x2="-72.343347" y2="-0.512178" />
      <line x1="-74.690777" y1="14.090169" x2="-73.43923" y2="14.341951" />
      <line x1="-80.698201" y1="32.170693" x2="-73.43923" y2="33.631027" />
    </g>
    <g fill="none" stroke="rgb(99,99,99)" stroke-width="0.16760545663518117" id="Hidden" stroke-dasharray="0.004257 0.504945">
      <line x1="23.377361" y1="22.263319" x2="23.377361" y2="85.074128" />
      <line x1="48.408296" y1="-53.072197" x2="23.377361" y2="22.263319" />
      <line x1="-73.43923" y1="2.786096" x2="23.377361" y2="22.263319" />
      <line x1="48.408296" y1="-37.528908" x2="39.732421" y2="-11.417157" />
      <line x1="39.732421" y1="-45.334994" x2="39.732421" y2="-11.417157" />
      <line x1="42.685694" y1="-54.22345" x2="39.732421" y2="-45.334994" />
      <line x1="92.01338" y1="-34.817294" x2="92.01338" y2="-0.899457" />
      <line x1="105.530084" y1="-75.498473" x2="92.01338" y2="-34.817294" />
      <line x1="39.732421" y1="-45.334994" x2="92.01338" y2="-34.817294" />
      <line x1="39.732421" y1="-11.417157" x2="48.408296" y2="-9.671775" />
      <line x1="38.480874" y1="-18.328219" x2="38.480874" y2="3.027456" />
      <line x1="38.480874" y1="3.027456" x2="29.970356" y2="28.641532" />
      <line x1="29.970356" y1="7.285857" x2="29.970356" y2="28.641532" />
      <line x1="38.480874" y1="-18.328219" x2="29.970356" y2="7.285857" />
      <line x1="71.398515" y1="-11.705963" x2="71.398515" y2="-5.046683" />
      <line x1="62.887997" y1="13.908112" x2="62.887997" y2="35.263788" />
      <line x1="71.398515" y1="-11.705963" x2="62.887997" y2="13.908112" />
      <line x1="38.480874" y1="-18.328219" x2="71.398515" y2="-11.705963" />
      <line x1="38.480874" y1="3.027456" x2="48.408296" y2="5.02462" />
      <line x1="29.970356" y1="7.285857" x2="62.887997" y2="13.908112" />
      <line x1="29.970356" y1="28.641532" x2="41.365912" y2="30.93405" />
      <line x1="-51.454795" y1="3.690108" x2="-51.454795" y2="18.764702" />
      <line x1="-51.454795" y1="18.764702" x2="-57.462219" y2="36.845226" />
      <line x1="-57.462219" y1="21.770632" x2="-57.462219" y2="36.845226" />
      <line x1="-51.454795" y1="3.690108" x2="-57.462219" y2="21.770632" />
      <line x1="-72.343347" y1="-0.512178" x2="-51.454795" y2="3.690108" />
      <line x1="-73.43923" y1="14.341951" x2="-51.454795" y2="18.764702" />
      <line x1="-80.698201" y1="17.096099" x2="-57.462219" y2="21.770632" />
      <line x1="-73.43923" y1="33.631027" x2="-57.462219" y2="36.845226" />
    </g>
  </g>
</svg>