<?xml version='1.0' encoding='utf-8'?>
<svg width="64.546635mm" height="100.2mm" viewBox="-50.991676 -78.678879 101.146629 157.016585" version="1.1" xmlns="http://www.w3.org/2000/svg">
  <g transform="scale(1,-1)" stroke-linecap="round">
    <g fill="none" stroke="rgb(0,0,0)" stroke-width="0.31340635796944105" id="Visible">
      <line x1="-50.834973" y1="15.537229" x2="-50.834973" y2="77.867877" />
      <line x1="-50.834973" y1="77.867877" x2="49.161527" y2="78.522176" />
      <line x1="-49.99825" y1="-62.657798" x2="-49.99825" y2="-0.327149" />
      <line x1="-49.99825" y1="-0.327149" x2="49.99825" y2="0.327149" />
      <line x1="49.99825" y1="-62.003499" x2="49.99825" y2="0.327149" />
      <line x1="-49.99825" y1="-62.657798" x2="49.99825" y2="-62.003499" />
      <line x1="-50.834973" y1="15.537229" x2="-49.99825" y2="-62.657798" />
      <line x1="-50.834973" y1="77.867877" x2="-49.99825" y2="-0.327149" />
      <line x1="49.161527" y1="78.522176" x2="49.99825" y2="0.327149" />
      <line x1="-27.191501" y1="-78.181003" x2="-27.191501" y2="-62.508568" />
      <line x1="26.806609" y1="-77.827682" x2="26.806609" y2="-62.155247" />
      <line x1="-27.191501" y1="-78.181003" x2="26.806609" y2="-77.827682" />
      <line x1="-27.359192" y1="-62.509666" x2="-27.191501" y2="-78.181003" />
    </g>
    <g fill="none" stroke="rgb(99,99,99)" stroke-width="0.14103286108624846" id="Hidden" stroke-dasharray="0.003582 0.42489">
      <line x1="49.161527" y1="16.191527" x2="49.161527" y2="78.522176" />
      <line x1="-50.834973" y1="15.537229" x2="49.161527" y2="16.191527" />
      <line x1="49.161527" y1="16.191527" x2="49.99825" y2="-62.003499" />
      <line x1="-27.643332" y1="-35.955689" x2="-27.643332" y2="-2.297139" />
      <line x1="-27.643332" y1="-2.297139" x2="26.354778" y2="-1.943817" />
      <line x1="26.354778" y1="-35.602368" x2="26.354778" y2="-1.943817" />
      <line x1="-27.643332" y1="-35.955689" x2="26.354778" y2="-35.602368" />
      <line x1="-27.191501" y1="-62.508568" x2="-27.191501" y2="-44.522453" />
      <line x1="-27.191501" y1="-44.522453" x2="26.806609" y2="-44.169132" />
      <line x1="26.806609" y1="-62.155247" x2="26.806609" y2="-44.169132" />
      <line x1="-27.643332" y1="-35.955689" x2="-27.359192" y2="-62.509666" />
      <line x1="-27.643332" y1="-2.297139" x2="-27.191501" y2="-44.522453" />
      <line x1="26.354778" y1="-35.602368" x2="26.806609" y2="-77.827682" />
      <line x1="26.354778" y1="-1.943817" x2="26.806609" y2="-44.169132" />
      <line x1="-0.418362" y1="-33.829346" x2="-0.418362" y2="-12.636925" />
      <line x1="-0.418362" y1="-12.636925" x2="33.580448" y2="-12.414463" />
      <line x1="33.580448" y1="-33.606884" x2="33.580448" y2="-12.414463" />
      <line x1="-0.418362" y1="-33.829346" x2="33.580448" y2="-33.606884" />
      <line x1="-0.133876" y1="-60.415654" x2="-0.133876" y2="-39.223234" />
      <line x1="-0.133876" y1="-39.223234" x2="33.864934" y2="-39.000772" />
      <line x1="33.864934" y1="-60.193193" x2="33.864934" y2="-39.000772" />
      <line x1="-0.133876" y1="-60.415654" x2="33.864934" y2="-60.193193" />
      <line x1="-0.418362" y1="-33.829346" x2="-0.133876" y2="-60.415654" />
      <line x1="-0.418362" y1="-12.636925" x2="-0.133876" y2="-39.223234" />
      <line x1="33.580448" y1="-33.606884" x2="33.864934" y2="-60.193193" />
      <line x1="33.580448" y1="-12.414463" x2="33.864934" y2="-39.000772" />
      <line x1="-24.618335" y1="-12.103038" x2="-24.618335" y2="2.856317" />
      <line x1="-24.618335" y1="2.856317" x2="-0.619175" y2="3.013349" />
      <line x1="-0.619175" y1="-11.946007" x2="-0.619175" y2="3.013349" />
      <line x1="-24.618335" y1="-12.103038" x2="-0.619175" y2="-11.946007" />
      <line x1="-24.417521" y1="-30.869845" x2="-24.417521" y2="-15.910489" />
      <line x1="-24.417521" y1="-15.910489" x2="-0.418362" y2="-15.753457" />
      <line x1="-0.418362" y1="-30.712813" x2="-0.418362" y2="-15.753457" />
      <line x1="-24.417521" y1="-30.869845" x2="-0.418362" y2="-30.712813" />
      <line x1="-24.618335" y1="-12.103038" x2="-24.417521" y2="-30.869845" />
      <line x1="-24.618335" y1="2.856317" x2="-24.417521" y2="-15.910489" />
      <line x1="-0.619175" y1="-11.946007" x2="-0.418362" y2="-30.712813" />
      <line x1="-0.619175" y1="3.013349" x2="-0.418362" y2="-15.753457" />
    </g>
  </g>
</svg>