<?xml version='1.0' encoding='utf-8'?>
<svg width="100.2mm" height="84.703811mm" viewBox="-80.884429 -80.589035 186.600742 157.742454" version="1.1" xmlns="http://www.w3.org/2000/svg">
  <g transform="scale(1,-1)" stroke-linecap="round">
    <g fill="none" stroke="rgb(0,0,0)" stroke-width="0.3724565703004025" id="Visible">
      <line x1="-48.408296" y1="-76.967191" x2="-48.408296" y2="-9.203876" />
      <line x1="-48.408296" y1="-9.203876" x2="-73.43923" y2="61.995055" />
      <line x1="-73.43923" y1="-5.76826" x2="-73.43923" y2="61.995055" />
      <line x1="-48.408296" y1="-76.967191" x2="-73.43923" y2="-5.76826" />
      <line x1="48.408296" y1="-58.55944" x2="48.408296" y2="9.203876" />
      <line x1="48.408296" y1="9.203876" x2="23.377361" y2="80.402807" />
      <line x1="-48.408296" y1="-76.967191" x2="48.408296" y2="-58.55944" />
      <line x1="-48.408296" y1="-9.203876" x2="48.408296" y2="9.203876" />
      <line x1="-73.43923" y1="61.995055" x2="23.377361" y2="80.402807" />
      <line x1="53.249125" y1="-57.639052" x2="53.249125" y2="-21.046862" />
      <line x1="53.249125" y1="-21.046862" x2="48.408296" y2="-7.277424" />
      <line x1="53.249125" y1="-57.639052" x2="48.408296" y2="-43.869614" />
      <line x1="105.530084" y1="-47.698866" x2="105.530084" y2="-11.106676" />
      <line x1="105.530084" y1="-11.106676" x2="92.01338" y2="27.340747" />
      <line x1="53.249125" y1="-57.639052" x2="105.530084" y2="-47.698866" />
      <line x1="53.249125" y1="-21.046862" x2="105.530084" y2="-11.106676" />
      <line x1="45.163606" y1="18.433193" x2="92.01338" y2="27.340747" />
      <line x1="68.183968" y1="22.810057" x2="62.887997" y2="37.874116" />
      <line x1="39.867635" y1="33.497252" x2="62.887997" y2="37.874116" />
      <line x1="-74.690777" y1="-2.208314" x2="-74.690777" y2="14.054882" />
      <line x1="-74.690777" y1="14.054882" x2="-80.698201" y2="31.142625" />
      <line x1="-80.698201" y1="14.87943" x2="-80.698201" y2="31.142625" />
      <line x1="-74.690777" y1="-2.208314" x2="-80.698201" y2="14.87943" />
      <line x1="-74.690777" y1="-2.208314" x2="-73.43923" y2="-1.970357" />
      <line x1="-74.690777" y1="14.054882" x2="-73.43923" y2="14.292839" />
      <line x1="-80.698201" y1="31.142625" x2="-73.43923" y2="32.522774" />
    </g>
    <g fill="none" stroke="rgb(99,99,99)" stroke-width="0.16760545663518112" id="Hidden" stroke-dasharray="0.004257 0.504945">
      <line x1="23.377361" y1="12.639491" x2="23.377361" y2="80.402807" />
      <line x1="48.408296" y1="-58.55944" x2="23.377361" y2="12.639491" />
      <line x1="-73.43923" y1="-5.76826" x2="23.377361" y2="12.639491" />
      <line x1="48.408296" y1="-7.277424" x2="39.732421" y2="17.400561" />
      <line x1="39.732421" y1="-19.19163" x2="39.732421" y2="17.400561" />
      <line x1="48.408296" y1="-43.869614" x2="39.732421" y2="-19.19163" />
      <line x1="92.01338" y1="-9.251444" x2="92.01338" y2="27.340747" />
      <line x1="105.530084" y1="-47.698866" x2="92.01338" y2="-9.251444" />
      <line x1="39.732421" y1="-19.19163" x2="92.01338" y2="-9.251444" />
      <line x1="39.732421" y1="17.400561" x2="45.163606" y2="18.433193" />
      <line x1="38.480874" y1="-15.631683" x2="38.480874" y2="7.407844" />
      <line x1="38.480874" y1="7.407844" x2="29.970356" y2="31.615481" />
      <line x1="29.970356" y1="8.575954" x2="29.970356" y2="31.615481" />
      <line x1="38.480874" y1="-15.631683" x2="29.970356" y2="8.575954" />
      <line x1="71.398515" y1="-9.373047" x2="71.398515" y2="13.66648" />
      <line x1="71.398515" y1="13.66648" x2="68.183968" y2="22.810057" />
      <line x1="62.887997" y1="14.834589" x2="62.887997" y2="37.874116" />
      <line x1="71.398515" y1="-9.373047" x2="62.887997" y2="14.834589" />
      <line x1="38.480874" y1="-15.631683" x2="71.398515" y2="-9.373047" />
      <line x1="38.480874" y1="7.407844" x2="71.398515" y2="13.66648" />
      <line x1="29.970356" y1="8.575954" x2="62.887997" y2="14.834589" />
      <line x1="29.970356" y1="31.615481" x2="39.867635" y2="33.497252" />
      <line x1="-51.454795" y1="2.209546" x2="-51.454795" y2="18.472742" />
      <line x1="-51.454795" y1="18.472742" x2="-57.462219" y2="35.560486" />
      <line x1="-57.462219" y1="19.29729" x2="-57.462219" y2="35.560486" />
      <line x1="-51.454795" y1="2.209546" x2="-57.462219" y2="19.29729" />
      <line x1="-73.43923" y1="-1.970357" x2="-51.454795" y2="2.209546" />
      <line x1="-73.43923" y1="14.292839" x2="-51.454795" y2="18.472742" />
      <line x1="-80.698201" y1="14.87943" x2="-57.462219" y2="19.29729" />
      <line x1="-73.43923" y1="32.522774" x2="-57.462219" y2="35.560486" />
    </g>
  </g>
</svg>