<?xml version="1.0" encoding="UTF-8" standalone="no"?>
    <svg
    xmlns:svg="http://www.w3.org/2000/svg"
    xmlns="http://www.w3.org/2000/svg"
    width="487"
    height="252"
    >
        <g transform="scale(5, -5)   translate(48.721359549995796,-25.28380852346642)" stroke-width="0.2"  fill="none">
        <!-- hidden lines -->
        <g  stroke="rgb(160,160,160)" fill="none" stroke-dasharray="0.2,0.2" >
    			<path d="M-28.308467871681025,9.845277308846795 L-28.304951684997057,9.796360867396324 " />
			<path d="M-28.304951684997057,9.796360867396318 L-28.30808901118642,9.75015336979123 L-28.317494427877428,9.704042517514395 L-28.333148263163345,9.658124753755457 L-28.355017776252566,9.612496117849613 L-28.383057225947653,9.56725204440647 L-28.417207966315356,9.522487163703715 L-28.457398569347582,9.478295103763074 L-28.503544974356693,9.434768294522561 " />
			<path d="M-28.503544974356696,9.434768294522557 L-28.545936611695925,9.399498784496174 L-28.592239380237338,9.36479185917272 L-28.642387641991302,9.330696718478606 L-28.696310307664692,9.297261695085119 L-28.75393093743583,9.264534185892877 L-28.815167849314214,9.232560584842822 L-28.8799342349315,9.201386217148992 L-28.948138282599487,9.171055275046273 L-29.019683307460767,9.141610755144292 L-29.094467888547474,9.113094397476164 L-29.253327224118884,9.059006492936936 L-29.423815823756783,9.009098148982346 L-29.60496730351356,8.963652262079092 L-29.795754838824443,8.922926434059095 L-29.995096984877748,8.887151511949867 L-30.20186380659021,8.856530279459683 L-30.414883283440666,8.831236307534622 L-30.63294795285746,8.811412970502891 L-30.854821754502755,8.797172633383239 L-31.079247036658135,8.788596014964082 L-31.304951684997057,8.785731730263564 L-31.530656333335976,8.788596014964082 L-31.75508161549136,8.797172633383239 L-31.976955417136654,8.811412970502891 L-32.19502008655345,8.831236307534622 L-32.408039563403904,8.856530279459683 L-32.61480638511637,8.887151511949865 L-32.81414853116967,8.922926434059095 L-33.00493606648055,8.963652262079092 L-33.18608754623733,9.009098148982346 L-33.35657614587522,9.059006492936934 L-33.51543548144664,9.113094397476162 L-33.59022006253334,9.141610755144292 L-33.66176508739463,9.171055275046273 L-33.72996913506261,9.201386217148992 L-33.7947355206799,9.232560584842822 L-33.85597243255828,9.264534185892876 L-33.91359306232942,9.297261695085119 L-33.96751572800281,9.330696718478608 L-34.01766398975678,9.36479185917272 L-34.06396675829819,9.399498784496172 L-34.10635839563741,9.434768294522549 " />
			<path d="M-34.106358395637415,9.434768294522557 L-34.15250480064653,9.478295103763074 L-34.19269540367876,9.522487163703714 L-34.22684614404646,9.56725204440647 L-34.25488559374155,9.612496117849611 L-34.27675510683077,9.658124753755457 L-34.29240894211669,9.704042517514395 L-34.3018143588077,9.75015336979123 L-34.30495168499706,9.79636086739631 " />
			<path d="M-34.30495168499706,9.796360867396318 L-34.30143549831309,9.845277308846793 " />
			<path d="M8.944271909999156,11.86831966073585 L8.944271909999156,21.28380852346642 " />
			<path d="M-44.721359549995796,2.828977858052669 L8.94427190999916,11.868319660735851 " />
			<path d="M8.944271909999156,11.86831966073585 L44.721359549995796,-12.236591813085969 " />
			<path d="M-1.4756521416835486,-8.233406296519572 L-1.4721359549995814,-8.282322737970041 " />
			<path d="M-1.4721359549995814,-8.282322737970047 L-1.4752732811889442,-8.328530235575135 L-1.484678697879953,-8.37464108785197 L-1.5003325331658708,-8.420558851610908 L-1.5222020462550923,-8.466187487516752 L-1.5502414959501762,-8.511431560959895 L-1.5843922363178793,-8.55619644166265 L-1.6245828393501078,-8.600388501603291 L-1.670729244359217,-8.643915310843804 " />
			<path d="M-1.6707292443592219,-8.643915310843807 L-1.713120881698448,-8.67918482087019 L-1.759423650239862,-8.713891746193644 L-1.8095719119938267,-8.747986886887759 L-1.8634945776672174,-8.781421910281246 L-1.921115207438353,-8.814149419473488 L-1.9823521193167397,-8.846123020523542 L-2.0471185049340246,-8.877297388217373 L-2.1153225526020116,-8.907628330320092 L-2.1868675774632926,-8.937072850222073 L-2.2616521585499982,-8.9655892078902 L-2.420511494121409,-9.019677112429429 L-2.591000093759308,-9.069585456384019 L-2.7721515735160858,-9.115031343287272 L-2.9629391088269665,-9.15575717130727 L-3.1622812548802703,-9.191532093416498 L-3.369048076592736,-9.222153325906682 L-3.5820675534431916,-9.247447297831743 L-3.8001322228599834,-9.267270634863474 L-4.022006024505279,-9.281510971983126 L-4.246431306660661,-9.290087590402283 L-4.4721359549995805,-9.292951875102801 L-4.697840603338501,-9.290087590402283 L-4.922265885493883,-9.281510971983126 L-5.1441396871391785,-9.267270634863474 L-5.362204356555971,-9.247447297831743 L-5.575223833406426,-9.222153325906682 L-5.781990655118891,-9.1915320934165 L-5.981332801172195,-9.15575717130727 L-6.172120336483076,-9.115031343287272 L-6.353271816239854,-9.069585456384019 L-6.523760415877751,-9.01967711242943 L-6.682619751449161,-8.965589207890202 L-6.7574043325358675,-8.937072850222073 L-6.82894935739715,-8.907628330320092 L-6.897153405065138,-8.877297388217373 L-6.961919790682423,-8.846123020523542 L-7.023156702560809,-8.81414941947349 L-7.0807773323319445,-8.781421910281246 L-7.1346999980053365,-8.747986886887757 L-7.184848259759301,-8.713891746193644 L-7.231151028300713,-8.679184820870192 L-7.273542665639932,-8.643915310843816 " />
			<path d="M-7.2735426656399405,-8.643915310843807 L-7.319689070649055,-8.600388501603291 L-7.359879673681283,-8.556196441662651 L-7.394030414048986,-8.511431560959895 L-7.4220698637440705,-8.466187487516754 L-7.443939376833292,-8.420558851610908 L-7.459593212119209,-8.37464108785197 L-7.468998628810219,-8.328530235575135 L-7.472135954999581,-8.282322737970055 " />
			<path d="M-7.472135954999581,-8.282322737970047 L-7.468619768315614,-8.233406296519572 " />
			<path d="M7.468619768315614,15.871505177302245 L7.472135954999581,15.822588735851777 " />
			<path d="M7.472135954999581,15.822588735851772 L7.468998628810219,15.776381238246683 L7.459593212119209,15.730270385969849 L7.443939376833292,15.68435262221091 L7.4220698637440705,15.638723986305067 L7.394030414048986,15.593479912861923 L7.3598796736812835,15.54871503215917 L7.319689070649055,15.504522972218528 L7.273542665639946,15.460996162978015 " />
			<path d="M7.2735426656399405,15.460996162978011 L7.231151028300715,15.425726652951628 L7.184848259759301,15.391019727628175 L7.1346999980053365,15.35692458693406 L7.080777332331945,15.323489563540573 L7.02315670256081,15.290762054348331 L6.961919790682423,15.258788453298276 L6.897153405065138,15.227614085604445 L6.828949357397152,15.197283143501727 L6.75740433253587,15.167838623599746 L6.682619751449165,15.139322265931618 L6.523760415877754,15.08523436139239 L6.353271816239855,15.0353260174378 L6.1721203364830775,14.989880130534546 L5.981332801172196,14.949154302514549 L5.781990655118893,14.91337938040532 L5.575223833406427,14.882758147915137 L5.362204356555972,14.857464175990076 L5.144139687139179,14.837640838958345 L4.922265885493884,14.823400501838693 L4.697840603338502,14.814823883419535 L4.472135954999582,14.811959598719017 L4.246431306660662,14.814823883419535 L4.02200602450528,14.823400501838693 L3.8001322228599843,14.837640838958345 L3.5820675534431925,14.857464175990076 L3.369048076592737,14.882758147915137 L3.1622812548802712,14.913379380405319 L2.9629391088269674,14.949154302514549 L2.772151573516087,14.989880130534546 L2.591000093759309,15.0353260174378 L2.4205114941214116,15.085234361392388 L2.261652158550001,15.139322265931616 L2.1868675774632953,15.167838623599746 L2.1153225526020134,15.197283143501727 L2.047118504934025,15.227614085604445 L1.9823521193167402,15.258788453298276 L1.921115207438354,15.29076205434833 L1.8634945776672183,15.323489563540573 L1.8095719119938263,15.356924586934062 L1.7594236502398624,15.391019727628175 L1.713120881698449,15.425726652951626 L1.6707292443592316,15.460996162978002 " />
			<path d="M1.6707292443592223,15.460996162978011 L1.6245828393501083,15.504522972218528 L1.5843922363178797,15.548715032159167 L1.5502414959501767,15.593479912861923 L1.5222020462550927,15.638723986305065 L1.5003325331658708,15.68435262221091 L1.484678697879953,15.730270385969849 L1.4752732811889442,15.776381238246683 L1.4721359549995814,15.822588735851763 " />
			<path d="M1.4721359549995814,15.822588735851772 L1.4756521416835482,15.871505177302245 " />
			<path d="M34.30143549831309,-2.2071784280641187 L34.30495168499706,-2.256094869514588 " />
			<path d="M34.30495168499706,-2.2560948695145924 L34.3018143588077,-2.302302367119681 L34.29240894211669,-2.348413219396515 L34.27675510683077,-2.3943309831554536 L34.25488559374155,-2.439959619061298 L34.22684614404646,-2.4852036925044407 L34.19269540367876,-2.529968573207196 L34.15250480064653,-2.574160633147837 L34.10635839563742,-2.6176874423883487 " />
			<path d="M34.106358395637415,-2.617687442388353 L34.06396675829819,-2.6529569524147374 L34.01766398975678,-2.6876638777381903 L33.96751572800281,-2.7217590184323037 L33.91359306232942,-2.755194041825792 L33.85597243255829,-2.787921551018034 L33.7947355206799,-2.8198951520680873 L33.72996913506262,-2.8510695197619196 L33.66176508739463,-2.8814004618646374 L33.59022006253335,-2.910844981766618 L33.51543548144664,-2.9393613394347473 L33.35657614587523,-2.9934492439739753 L33.18608754623733,-3.043357587928564 L33.00493606648055,-3.088803474831818 L32.81414853116967,-3.1295293028518163 L32.61480638511637,-3.165304224961045 L32.408039563403904,-3.195925457451228 L32.19502008655345,-3.221219429376288 L31.976955417136654,-3.24104276640802 L31.75508161549136,-3.2552831035276713 L31.53065633333598,-3.2638597219468286 L31.304951684997057,-3.2667240066473466 L31.07924703665814,-3.2638597219468286 L30.854821754502755,-3.2552831035276713 L30.63294795285746,-3.24104276640802 L30.41488328344067,-3.221219429376288 L30.201863806590215,-3.195925457451228 L29.995096984877748,-3.165304224961045 L29.795754838824443,-3.1295293028518167 L29.60496730351356,-3.088803474831818 L29.423815823756783,-3.0433575879285644 L29.253327224118888,-2.993449243973976 L29.094467888547477,-2.939361339434748 L29.01968330746077,-2.910844981766619 L28.94813828259949,-2.8814004618646383 L28.8799342349315,-2.85106951976192 L28.815167849314214,-2.8198951520680877 L28.75393093743583,-2.787921551018035 L28.696310307664696,-2.755194041825792 L28.642387641991302,-2.7217590184323037 L28.592239380237338,-2.6876638777381903 L28.545936611695925,-2.652956952414738 L28.503544974356707,-2.6176874423883616 " />
			<path d="M28.5035449743567,-2.6176874423883536 L28.457398569347585,-2.574160633147837 L28.417207966315356,-2.5299685732071966 L28.383057225947653,-2.485203692504441 L28.35501777625257,-2.4399596190612987 L28.333148263163345,-2.394330983155454 L28.317494427877428,-2.3484132193965155 L28.30808901118642,-2.302302367119681 L28.304951684997057,-2.2560948695146017 " />
			<path d="M28.304951684997057,-2.2560948695145924 L28.308467871681025,-2.2071784280641182 " />
			<path d="M-32.64659247149693,2.226355071207125 L-32.473403547081425,2.2532439307262115 L-32.29549338315714,2.2763717123149787 L-32.11358084245362,2.2956449659993785 L-31.928400959679784,2.3109858163874413 L-31.740701971547086,2.322332277332112 L-31.55124229344882,2.3296385023920987 L-31.360787455011476,2.332874970078728 L-31.170107006900384,2.332028603140289 L-30.979971411377953,2.3271028214019016 L-30.791148929178515,2.3181175279473893 L-30.60440251527869,2.3051090286990004 L-30.420486736106096,2.2881298857199184 L-30.240144720642846,2.2672487048323067 L-30.064105157743082,2.2425498584090433 L-29.8930793517972,2.214133144459219 L-29.727758348639657,2.182113383384909 L-29.56881014331335,2.1466199540385507 L-29.4168769809729,2.1077962709555393 L-29.272572761832787,2.0657992048743243 L-29.136480560645843,2.020798448885455 L-29.009150270734967,1.9729758327707092 L-28.891096382097473,1.9225245883027768 L-28.782795902559947,1.8696485684741333 L-28.6846864303833,1.8145614238098724 L-28.597164386105906,1.7574857390926923 L-28.557485873608968,1.728273974271595 L-28.520583410769163,1.6986521339881708 L-28.48649428397196,1.6686501482598277 L-28.455252936997653,1.6382983312043427 L-28.426890936219216,1.6076273504103644 L-28.401436938707548,1.5766681959507687 L-28.378916663276243,1.5454521490701718 L-28.359352864495214,1.5140107505782465 L-28.342765309699395,1.4823757689807706 L-28.329170759015735,1.4505791683806109 L-28.31858294842872,1.4186530761810738 L-28.311012575901486,1.386629750624259 L-28.306467290566538,1.3545415481972116 L-28.304951684997057,1.322420890938811 " />
			<path d="M-28.304951684997057,1.3224208909388067 L-28.30856531638154,1.2728316695721773 L-28.319397504980465,1.2233619129833224 L-28.337422155102715,1.1741307981489042 L-28.362595843787368,1.1252569271366955 L-28.394857925413426,1.0768580413828095 L-28.434130677800432,1.0290507380422693 L-28.480319489447993,0.9819501890962473 L-28.533313087463196,0.935669863892675 L-28.592983805626726,0.8903212557886462 L-28.65918789195199,0.8460136135531523 L-28.73176585499624,0.8028536781772297 L-28.81054284808942,0.7609454257255628 L-28.895329090555123,0.720389816849037 L-28.985920324908847,0.6812845535616873 L-29.08209830893218,0.6437238438679898 L-29.183631341437415,0.6077981748075265 L-29.290274820456002,0.5735940944637806 L-29.40177183250612,0.541194003462224 L-29.517853771519757,0.5106759564599924 L-29.63824098593825,0.4821134741053792 L-29.762643452417393,0.4555753659201547 L-29.890761474519064,0.4311255645314006 L-30.02228640470621,0.4088229716522125 L-30.156901387901787,0.3887213161823123 L-30.294282124820395,0.3708690247704245 L-30.434097653233668,0.35530910515023606 L-30.57601114528726,0.3420790425310002 L-30.71968071894867,0.33121070929238317 L-30.864760261630973,0.32273028820111027 L-31.010900264008377,0.31665820933438793 L-31.157748662014804,0.31300910086205724 L-31.304951684997057,0.31179175380605195 L-31.45215470797931,0.31300910086205724 L-31.599003105985737,0.31665820933438793 L-31.74514310836314,0.32273028820111016 L-31.89022265104544,0.33121070929238305 L-32.033892224706854,0.3420790425310001 L-32.17580571676044,0.35530910515023595 L-32.315621245173716,0.3708690247704244 L-32.453001982092324,0.3887213161823122 L-32.58761696528791,0.40882297165221226 L-32.71914189547505,0.4311255645314005 L-32.84725991757672,0.45557536592015446 L-32.97166238405586,0.48211347410537897 L-33.092049598474354,0.5106759564599922 L-33.20813153748799,0.5411940034622238 L-33.31962854953811,0.5735940944637801 L-33.426272028556696,0.6077981748075263 L-33.52780506106193,0.6437238438679902 L-33.62398304508527,0.6812845535616873 L-33.71457427943899,0.7203898168490367 L-33.799360521904696,0.7609454257255626 L-33.878137514997874,0.8028536781772294 L-33.95071547804212,0.846013613553152 L-34.016919564367385,0.8903212557886457 L-34.076590282530915,0.9356698638926744 L-34.12958388054612,0.9819501890962461 L-34.17577269219368,1.029050738042268 L-34.21504544458069,1.0768580413828082 L-34.24730752620675,1.125256927136695 L-34.2724812148914,1.1741307981489049 L-34.29050586501365,1.2233619129833226 L-34.301338053612575,1.2728316695721769 L-34.30495168499706,1.3224208909387971 " />
			<path d="M-34.30495168499706,1.3224208909388064 L-34.303156290448534,1.3573800638654592 L-34.297772255764016,1.3922973931197828 L-34.28880602525453,1.427131085113383 L-34.276268330867644,1.4618394463657858 L-34.26017417934214,1.496380933408604 L-34.24054283424595,1.5307142025101481 L-34.21739779291906,1.564798159160966 L-34.19076675834881,1.5985920072610826 L-34.1606816060114,1.6320552979500627 L-34.12717834571916,1.6651479780214538 L-34.09029707851935,1.6978304378636586 L-34.05008194869601,1.7300635588698547 L-34.006581090932386,1.7618087602602182 L-33.95984657269706,1.7930280452604035 L-33.909934331922884,1.823684046581012 L-33.85690411005318,1.8537400711436098 L-33.741747272848116,1.9119090513905248 L-33.61492723465748,1.967256572616322 L-33.47705099247428,2.0195177257464243 L-33.32877846144764,2.068442373947142 L-33.17081931634004,2.1137963498521364 L-33.0039295948208,2.1553625763544426 L-32.82890807885351,2.1929421055996223 L-32.64659247149694,2.2263550712071236 " />
			<path d="M-5.8137767414994554,-15.852328534159238 L-5.640587817083945,-15.825439674640151 L-5.462677653159657,-15.802311893051385 L-5.2807651124561445,-15.783038639366985 L-5.095585229682309,-15.767697788978921 L-4.90788624154961,-15.75635132803425 L-4.718426563451342,-15.749045102974264 L-4.527971725013999,-15.745808635287636 L-4.337291276902908,-15.746655002226074 L-4.147155681380475,-15.751580783964462 L-3.9583331991810398,-15.760566077418973 L-3.7715867852812117,-15.773574576667363 L-3.587671006108618,-15.790553719646445 L-3.4073289906453694,-15.811434900534056 L-3.2312894277456055,-15.83613374695732 L-3.0602636217997254,-15.864550460907143 L-2.894942618642181,-15.896570221981454 L-2.735994413315873,-15.932063651327812 L-2.584061250975425,-15.970887334410824 L-2.439757031835311,-16.012884400492037 L-2.303664830648369,-16.057885156480907 L-2.176334540737491,-16.105707772595654 L-2.058280652099997,-16.156159017063587 L-1.9499801725624697,-16.20903503689223 L-1.851870700385824,-16.26412218155649 L-1.7643486561084307,-16.32119786627367 L-1.7246701436114935,-16.350409631094767 L-1.687767680771688,-16.380031471378192 L-1.653678553974486,-16.410033457106536 L-1.6224372070001762,-16.440385274162022 L-1.5940752062217398,-16.471056254956 L-1.5686212087100717,-16.502015409415595 L-1.5461009332787676,-16.533231456296193 L-1.5265371344977403,-16.564672854788117 L-1.5099495797019187,-16.59630783638559 L-1.496355029018258,-16.62810443698575 L-1.4857672184312452,-16.66003052918529 L-1.4781968459040096,-16.692053854742102 L-1.473651560569062,-16.72414205716915 L-1.4721359549995814,-16.756262714427553 " />
			<path d="M-1.4721359549995814,-16.756262714427557 L-1.4757495863840644,-16.805851935794188 L-1.4865817749829908,-16.85532169238304 L-1.504606425105239,-16.90455280721746 L-1.52978011378989,-16.95342667822967 L-1.5620421954159496,-17.001825563983555 L-1.6013149478029547,-17.049632867324092 L-1.6475037594505189,-17.096733416270116 L-1.700497357465721,-17.143013741473688 L-1.7601680756292515,-17.188362349577716 L-1.8263721619545161,-17.23266999181321 L-1.8989501249987653,-17.275829927189132 L-1.977727118091945,-17.3177381796408 L-2.0625133605576456,-17.358293788517326 L-2.15310459491137,-17.397399051804676 L-2.249282578934704,-17.434959761498373 L-2.3508156114399386,-17.470885430558837 L-2.4574590904585265,-17.505089510902582 L-2.568956102508646,-17.537489601904138 L-2.685038041522282,-17.56800764890637 L-2.805425255940775,-17.596570131260982 L-2.9298277224199163,-17.623108239446207 L-3.0579457445215876,-17.647558040834962 L-3.1894706747087342,-17.66986063371415 L-3.3240856579043103,-17.689962289184052 L-3.461466394822919,-17.70781458059594 L-3.6012819232361917,-17.723374500216128 L-3.7431954152897866,-17.736604562835364 L-3.8868649889511953,-17.74747289607398 L-4.031944531633497,-17.755953317165254 L-4.1780845340109,-17.762025396031976 L-4.324932932017328,-17.765674504504307 L-4.4721359549995805,-17.76689185156031 L-4.619338977981834,-17.765674504504307 L-4.766187375988261,-17.762025396031976 L-4.9123273783656645,-17.755953317165254 L-5.057406921047966,-17.74747289607398 L-5.201076494709375,-17.736604562835364 L-5.34298998676297,-17.723374500216128 L-5.482805515176243,-17.70781458059594 L-5.620186252094851,-17.689962289184052 L-5.754801235290428,-17.66986063371415 L-5.886326165477574,-17.647558040834962 L-6.014444187579246,-17.623108239446207 L-6.138846654058387,-17.596570131260982 L-6.25923386847688,-17.56800764890637 L-6.375315807490516,-17.537489601904138 L-6.486812819540635,-17.505089510902582 L-6.593456298559223,-17.470885430558837 L-6.69498933106446,-17.434959761498373 L-6.791167315087793,-17.397399051804676 L-6.881758549441517,-17.358293788517326 L-6.966544791907217,-17.317738179640802 L-7.0453217850003975,-17.275829927189132 L-7.117899748044646,-17.23266999181321 L-7.18410383436991,-17.188362349577716 L-7.243774552533441,-17.143013741473688 L-7.296768150548643,-17.096733416270116 L-7.342956962196207,-17.049632867324096 L-7.382229714583213,-17.001825563983555 L-7.414491796209273,-16.95342667822967 L-7.439665484893924,-16.90455280721746 L-7.457690135016172,-16.85532169238304 L-7.468522323615098,-16.805851935794188 L-7.472135954999581,-16.756262714427567 " />
			<path d="M-7.472135954999581,-16.756262714427557 L-7.470340560451057,-16.721303541500905 L-7.464956525766542,-16.686386212246582 L-7.455990295257051,-16.65155252025298 L-7.443452600870167,-16.61684415900058 L-7.427358449344661,-16.58230267195776 L-7.407727104248473,-16.547969402856214 L-7.384582062921581,-16.513885446205396 L-7.357951028351334,-16.48009159810528 L-7.327865876013924,-16.4466283074163 L-7.294362615721684,-16.41353562734491 L-7.257481348521871,-16.380853167502703 L-7.2172662186985335,-16.348620046496507 L-7.173765360934908,-16.316874845106145 L-7.127030842699584,-16.28565556010596 L-7.077118601925406,-16.25499955878535 L-7.0240883800557015,-16.224943534222753 L-6.908931542850637,-16.166774553975838 L-6.782111504660001,-16.11142703275004 L-6.644235262476807,-16.05916587961994 L-6.4959627314501684,-16.010241231419222 L-6.33800358634256,-15.964887255514228 L-6.171113864823321,-15.92332102901192 L-5.996092348856031,-15.885741499766741 L-5.813776741499462,-15.85232853415924 " />
			<path d="M3.1304951684997073,8.25258293966258 L3.303684092915217,8.279471799181666 L3.4815942568395055,8.302599580770432 L3.663506797543018,8.321872834454831 L3.8486866803168533,8.337213684842895 L4.036385668449553,8.348560145787566 L4.225845346547821,8.355866370847552 L4.416300184985164,8.35910283853418 L4.606980633096255,8.358256471595743 L4.7971162286186875,8.353330689857355 L4.9859387108181235,8.344345396402844 L5.172685124717951,8.331336897154454 L5.356600903890545,8.314357754175372 L5.536942919353793,8.29347657328776 L5.712982482253557,8.268777726864498 L5.884008288199437,8.240361012914672 L6.049329291356981,8.208341251840363 L6.20827749668329,8.172847822494004 L6.360210659023737,8.134024139410993 L6.504514878163851,8.092027073329778 L6.640607079350794,8.04702631734091 L6.767937369261672,7.999203701226163 L6.885991257899166,7.948752456758231 L6.9942917374366935,7.895876436929587 L7.092401209613339,7.840789292265326 L7.179923253890732,7.783713607548146 L7.219601766387669,7.7545018427270485 L7.256504229227475,7.724880002443625 L7.290593356024677,7.694878016715282 L7.321834702998986,7.664526199659797 L7.3501967037774225,7.633855218865818 L7.375650701289091,7.602896064406222 L7.398170976720396,7.571680017525626 L7.4177347755014225,7.5402386190337 L7.434322330297244,7.508603637436225 L7.447916880980905,7.476807036836065 L7.458504691567917,7.444880944636528 L7.466075064095153,7.412857619079713 L7.470620349430101,7.380769416652665 L7.472135954999581,7.348648759394265 " />
			<path d="M7.472135954999581,7.34864875939426 L7.468522323615098,7.299059538027631 L7.457690135016172,7.249589781438776 L7.439665484893924,7.200358666604358 L7.414491796209273,7.1514847955921494 L7.382229714583213,7.1030859098382635 L7.342956962196208,7.055278606497723 L7.296768150548644,7.008178057551701 L7.243774552533441,6.961897732348129 L7.184103834369911,6.9165491242441 L7.117899748044646,6.872241482008606 L7.0453217850003975,6.8290815466326835 L6.966544791907218,6.787173294181017 L6.881758549441518,6.746617685304491 L6.791167315087793,6.707512422017141 L6.694989331064459,6.669951712323444 L6.593456298559224,6.63402604326298 L6.486812819540637,6.5998219629192345 L6.375315807490517,6.567421871917678 L6.259233868476881,6.536903824915446 L6.138846654058388,6.508341342560833 L6.0144441875792465,6.481803234375608 L5.886326165477575,6.457353432986855 L5.7548012352904285,6.4350508401076665 L5.620186252094852,6.414949184637766 L5.482805515176244,6.3970968932258785 L5.342989986762971,6.38153697360569 L5.201076494709376,6.368306910986454 L5.057406921047967,6.357438577747837 L4.912327378365665,6.348958156656564 L4.766187375988263,6.342886077789842 L4.619338977981835,6.339236969317511 L4.472135954999582,6.3380196222615055 L4.324932932017329,6.339236969317511 L4.178084534010901,6.342886077789842 L4.031944531633498,6.348958156656564 L3.8868649889511966,6.357438577747837 L3.7431954152897875,6.368306910986454 L3.6012819232361926,6.38153697360569 L3.46146639482292,6.3970968932258785 L3.3240856579043117,6.414949184637766 L3.189470674708735,6.435050840107666 L3.0579457445215885,6.457353432986855 L2.9298277224199167,6.481803234375608 L2.8054252559407757,6.508341342560833 L2.6850380415222825,6.536903824915446 L2.5689561025086465,6.567421871917677 L2.4574590904585283,6.599821962919234 L2.3508156114399394,6.63402604326298 L2.249282578934703,6.669951712323444 L2.15310459491137,6.707512422017141 L2.062513360557646,6.74661768530449 L1.9777271180919458,6.787173294181017 L1.8989501249987653,6.8290815466326835 L1.826372161954517,6.872241482008606 L1.760168075629252,6.916549124244099 L1.7004973574657218,6.961897732348128 L1.6475037594505197,7.0081780575517 L1.6013149478029556,7.055278606497722 L1.56204219541595,7.103085909838262 L1.5297801137898905,7.151484795592149 L1.5046064251052385,7.200358666604359 L1.4865817749829908,7.249589781438776 L1.4757495863840644,7.299059538027631 L1.4721359549995814,7.348648759394251 " />
			<path d="M1.4721359549995814,7.34864875939426 L1.4739313495481055,7.3836079323209125 L1.4793153842326205,7.418525261575237 L1.488281614742112,7.453358953568837 L1.5008193091289956,7.488067314821239 L1.5169134606545018,7.522608801864058 L1.5365448057506894,7.556942070965602 L1.5596898470775815,7.59102602761642 L1.5863208816478291,7.624819875716536 L1.6164060339852386,7.658283166405517 L1.649909294277479,7.691375846476908 L1.686790561477292,7.724058306319113 L1.7270056913006289,7.7562914273253085 L1.7705065490642546,7.7880366287156715 L1.817241067299579,7.819255913715857 L1.8671533080737568,7.849911915036466 L1.9201835299434613,7.879967939599064 L2.0353403671485255,7.938136919845979 L2.162160405339162,7.993484441071776 L2.3000366475223566,8.045745594201877 L2.4483091785489948,8.094670242402596 L2.606268323656603,8.14002421830759 L2.773158045175842,8.181590444809896 L2.9481795611431316,8.219169974055076 L3.1304951684997016,8.252582939662577 " />
			<path d="M29.963310898497184,-9.826100665703786 L30.136499822912693,-9.7992118061847 L30.31440998683698,-9.776084024595933 L30.496322527540492,-9.756810770911533 L30.68150241031433,-9.74146992052347 L30.86920139844703,-9.730123459578799 L31.058661076545295,-9.722817234518812 L31.24911591498264,-9.719580766832184 L31.43979636309373,-9.720427133770622 L31.62993195861616,-9.72535291550901 L31.8187544408156,-9.734338208963521 L32.00550085471543,-9.74734670821191 L32.18941663388802,-9.764325851190993 L32.36975864935127,-9.785207032078604 L32.545798212251036,-9.809905878501867 L32.71682401819692,-9.838322592451693 L32.88214502135446,-9.870342353526002 L33.041093226680765,-9.90583578287236 L33.19302638902121,-9.944659465955372 L33.33733060816133,-9.986656532036587 L33.47342280934827,-10.031657288025455 L33.60075309925915,-10.079479904140202 L33.71880698789664,-10.129931148608135 L33.82710746743417,-10.182807168436778 L33.92521693961081,-10.23789431310104 L34.012738983888205,-10.29496999781822 L34.05241749638515,-10.324181762639316 L34.08931995922495,-10.35380360292274 L34.12340908602215,-10.383805588651084 L34.15465043299646,-10.414157405706568 L34.1830124337749,-10.444828386500546 L34.20846643128657,-10.475787540960143 L34.23098670671787,-10.507003587840739 L34.2505505054989,-10.538444986332665 L34.26713806029472,-10.570079967930141 L34.28073261097838,-10.601876568530301 L34.291320421565395,-10.633802660729838 L34.29889079409263,-10.665825986286652 L34.30343607942758,-10.6979141887137 L34.30495168499706,-10.7300348459721 " />
			<path d="M34.30495168499706,-10.730034845972105 L34.301338053612575,-10.779624067338734 L34.29050586501365,-10.829093823927588 L34.2724812148914,-10.878324938762006 L34.24730752620675,-10.927198809774216 L34.21504544458069,-10.975597695528101 L34.17577269219368,-11.023404998868642 L34.12958388054612,-11.070505547814664 L34.076590282530915,-11.116785873018236 L34.016919564367385,-11.162134481122266 L33.95071547804212,-11.206442123357759 L33.878137514997874,-11.249602058733682 L33.799360521904696,-11.291510311185348 L33.71457427943899,-11.332065920061874 L33.62398304508527,-11.371171183349224 L33.52780506106193,-11.408731893042921 L33.4262720285567,-11.444657562103384 L33.31962854953811,-11.47886164244713 L33.20813153748799,-11.511261733448688 L33.092049598474354,-11.541779780450918 L32.97166238405586,-11.570342262805532 L32.84725991757672,-11.596880370990757 L32.71914189547505,-11.62133017237951 L32.58761696528791,-11.6436327652587 L32.45300198209233,-11.663734420728598 L32.315621245173716,-11.681586712140486 L32.17580571676045,-11.697146631760676 L32.033892224706854,-11.71037669437991 L31.890222651045445,-11.721245027618528 L31.74514310836314,-11.7297254487098 L31.599003105985737,-11.735797527576523 L31.45215470797931,-11.739446636048854 L31.304951684997057,-11.74066398310486 L31.157748662014804,-11.739446636048854 L31.010900264008377,-11.735797527576523 L30.864760261630973,-11.7297254487098 L30.719680718948673,-11.721245027618528 L30.576011145287264,-11.71037669437991 L30.434097653233668,-11.697146631760676 L30.294282124820395,-11.681586712140486 L30.156901387901787,-11.663734420728598 L30.02228640470621,-11.6436327652587 L29.890761474519064,-11.62133017237951 L29.762643452417393,-11.596880370990757 L29.638240985938253,-11.570342262805532 L29.517853771519757,-11.541779780450918 L29.40177183250612,-11.511261733448688 L29.290274820456006,-11.47886164244713 L29.183631341437415,-11.444657562103385 L29.082098308932178,-11.408731893042921 L28.985920324908847,-11.371171183349224 L28.895329090555123,-11.332065920061874 L28.810542848089423,-11.291510311185348 L28.73176585499624,-11.249602058733682 L28.659187891951994,-11.206442123357759 L28.592983805626726,-11.162134481122266 L28.5333130874632,-11.116785873018237 L28.480319489447997,-11.070505547814665 L28.434130677800432,-11.023404998868642 L28.394857925413426,-10.975597695528103 L28.362595843787368,-10.927198809774216 L28.337422155102715,-10.878324938762006 L28.319397504980465,-10.829093823927588 L28.30856531638154,-10.779624067338734 L28.304951684997057,-10.730034845972114 " />
			<path d="M28.304951684997057,-10.730034845972105 L28.30674707954558,-10.695075673045451 L28.312131114230098,-10.660158343791128 L28.321097344739588,-10.625324651797529 L28.33363503912647,-10.590616290545125 L28.349729190651978,-10.556074803502307 L28.369360535748164,-10.521741534400762 L28.392505577075056,-10.487657577749944 L28.419136611645307,-10.453863729649829 L28.449221763982713,-10.420400438960849 L28.482725024274956,-10.387307758889458 L28.51960629147477,-10.354625299047253 L28.559821421298103,-10.322392178041056 L28.60332227906173,-10.290646976650693 L28.650056797297054,-10.259427691650508 L28.69996903807123,-10.2287716903299 L28.752999259940935,-10.1987156657673 L28.868156097146002,-10.140546685520386 L28.99497613533664,-10.08519916429459 L29.132852377519832,-10.032938011164488 L29.28112490854647,-9.984013362963768 L29.439084053654078,-9.938659387058776 L29.605973775173318,-9.89709316055647 L29.780995291140606,-9.85951363131129 L29.963310898497177,-9.826100665703787 " />
			<path d="M-34.106358395637415,9.434768294522556 L-35.040160632517534,10.255786323171026 " />
			<path d="M-28.503544974356696,9.434768294522557 L-27.569742737476574,10.255786323171028 " />
			<path d="M-7.27354266563994,-8.64391531084381 L-8.20734490252006,-7.82289728219534 " />
			<path d="M-1.670729244359219,-8.643915310843807 L-0.7369270074790983,-7.822897282195337 " />
			<path d="M1.6707292443592179,15.460996162978011 L0.7369270074790988,16.28201419162648 " />
			<path d="M7.273542665639939,15.460996162978013 L8.207344902520058,16.282014191626484 " />
			<path d="M28.503544974356693,-2.6176874423883536 L27.569742737476574,-1.7966694137398842 " />
			<path d="M34.106358395637415,-2.6176874423883527 L35.040160632517534,-1.7966694137398815 " />
			<path d="M-34.30495168499705,9.796360867396302 L-34.30495168499705,1.322420890938801 " />
			<path d="M-28.304951684997057,9.796360867396302 L-28.304951684997057,1.322420890938801 " />
			<path d="M-7.47213595499958,-8.282322737970063 L-7.47213595499958,-16.756262714427564 " />
			<path d="M-1.4721359549995814,-8.282322737970063 L-1.4721359549995814,-16.756262714427564 " />
			<path d="M1.4721359549995814,15.822588735851767 L1.4721359549995814,7.3486487593942655 " />
			<path d="M7.47213595499958,15.822588735851767 L7.47213595499958,7.3486487593942655 " />
			<path d="M28.304951684997057,-2.256094869514598 L28.304951684997057,-10.7300348459721 " />
			<path d="M34.30495168499705,-2.256094869514598 L34.30495168499705,-10.7300348459721 " />

        </g>

        <!-- solid lines -->
        <g  stroke="rgb(0,0,0)" fill="none">
    			<path d="M-33.09380606699689,11.943155327360467 L-32.95839623371376,11.964904037493337 L-32.8206608507753,11.98492699508369 L-32.680793641323014,12.003196038085115 L-32.53899132688652,12.01968547131074 L-32.25038159717298,12.047235275304224 L-31.956454795008398,12.067421467705913 L-31.658863956839248,12.080130521911524 L-31.35928272555215,12.085290962541317 L-31.059395937951194,12.082873767415693 L-30.76089014928099,12.072892530775162 L-30.465444148085215,12.055403386826697 L-30.17471951474492,12.030504694046462 L-29.890351276795055,11.998336482014379 L-29.751052224835,11.979581270899384 L-29.613938713573496,11.959079663891533 L-29.47920359149712,11.936860496251823 L-29.34703636191698,11.912955018969404 L-29.217622916434596,11.887396854807431 L-29.091145273487648,11.860221951013067 L-28.96778132234323,11.831468528758105 L-28.847704572898788,11.801177029381366 L-28.73108391164253,11.769390057508444 L-28.618083364116647,11.736152321128813 L-28.508861864217387,11.701510568714593 L-28.403573030656457,11.66551352346938 L-28.30236495089816,11.628211814799664 L-28.205379972876205,11.589657907105178 L-28.11275450478304,11.54990602598836 L-28.024618823213412,11.5090120819867 L-27.9410968899319,11.467033591935252 L-27.86230617752221,11.424029598069904 L-27.78835750416342,11.380060584985188 L-27.719354877765547,11.335188394563437 L-27.65539534968369,11.289476138994925 L-27.596568878216488,11.242988112011346 L-27.542958202080843,11.195789698457457 L-27.494638724040957,11.147947282328083 L-27.451678404855222,11.09952815339985 L-27.414137667690266,11.050600412588919 L-27.382069313136498,11.001232876167883 L-27.355518444944714,10.951494978976509 L-27.334522406588217,10.90145667676249 L-27.31911072873969,10.85118834778953 L-27.30930508773666,10.800760693851169 L-27.305119275093972,10.750244640829578 L-27.306559178106223,10.699711238939164 L-27.31362277156733,10.649231562795302 L-27.32630012061897,10.598876611448766 L-27.34457339472383,10.54871720852641 L-27.36841689274405,10.498823902618613 L-27.397797079089546,10.449266868053533 L-27.43267263088543,10.40011580619778 L-27.472994496092113,10.351439847422277 L-27.51870596249641,10.303307453871247 L-27.56974273747657,10.255786323171034 " />
			<path d="M-27.569742737476577,10.255786323171028 L-27.626264920595546,10.208760309802516 L-27.68800194531743,10.162484409371245 L-27.754866294322717,10.117024221779094 L-27.826763181887237,10.072444190587776 L-27.90359068824875,10.028807511664787 L-27.9852399040866,9.98617604359805 L-28.07159508490965,9.944610220006274 L-28.16253381513363,9.904168963869315 L-28.25792718161534,9.864909604000008 L-28.357639956397612,9.826887793775835 L-28.461530788406122,9.790157432245692 L-28.569452403826162,9.754770587723533 L-28.6812518148754,9.720777423977253 L-28.796770536676693,9.688226129117414 L-28.915844811923442,9.657162847286623 L-29.038305843019064,9.62763161324641 L-29.163980031361508,9.599674289954324 L-29.29268922343357,9.573330509219744 L-29.424250963350175,9.548637615522523 L-29.558478751504644,9.525630613074107 L-29.69518230894724,9.504342116196183 L-29.834167847121265,9.484802303087196 L-29.9752383425743,9.467038873042256 L-30.118193816255204,9.451077007187116 L-30.408946708810927,9.424645891144806 L-30.704778444337986,9.405658774985271 L-31.004012153878495,9.394223283759727 L-31.304951684997057,9.390404237492369 L-31.605891216115616,9.394223283759727 L-31.905124925656125,9.405658774985271 L-32.200956661183184,9.424645891144806 L-32.49170955373891,9.451077007187116 L-32.634665027419814,9.467038873042256 L-32.77573552287285,9.484802303087195 L-32.914721061046876,9.504342116196183 L-33.05142461848947,9.525630613074107 L-33.18565240664394,9.548637615522523 L-33.317214146560545,9.573330509219744 L-33.4459233386326,9.599674289954324 L-33.57159752697505,9.62763161324641 L-33.69405855807067,9.65716284728662 L-33.81313283331742,9.688226129117414 L-33.92865155511871,9.720777423977252 L-34.04045096616795,9.754770587723531 L-34.148372581587985,9.79015743224569 L-34.252263413596495,9.826887793775835 L-34.35197618837877,9.864909604000006 L-34.44736955486048,9.904168963869315 L-34.53830828508447,9.944610220006272 L-34.62466346590751,9.986176043598048 L-34.70631268174536,10.028807511664786 L-34.78314018810688,10.072444190587776 L-34.8550370756714,10.117024221779094 L-34.92190142467668,10.162484409371245 L-34.98363844939857,10.208760309802516 L-35.04016063251753,10.255786323171018 " />
			<path d="M-35.040160632517534,10.255786323171028 L-35.102060755938595,10.314199786270056 L-35.15591616799295,10.373510938723598 L-35.20161276839079,10.433594121485946 L-35.23905374243603,10.49432203985624 L-35.268159766141956,10.555566033170258 L-35.27956720761189,10.586341044999582 L-35.28886917429029,10.617196347386189 L-35.29606073864236,10.648115595337462 L-35.30113809107762,10.679082409986874 L-35.30409854196797,10.710080387270377 L-35.30494052307248,10.741093106616121 L-35.30366358836815,10.77210413964294 L-35.30026841428616,10.803097058862956 L-35.294756799353515,10.834055446383736 L-35.28713166324037,10.864962902605333 L-35.27739704521337,10.895803054907658 L-35.265558101995914,10.926559566323558 L-35.23559343718646,10.987756548793806 L-35.19730115318265,11.048424195573368 L-35.15076237759146,11.108433973691895 L-35.09607570937595,11.167658743966621 L-35.033357009959424,11.225973030364672 L-34.96273915775665,11.283253285841742 L-34.88437176665224,11.339378154093936 L-34.798420869022436,11.394228726668233 L-34.70506856397218,11.447688794886817 L-34.60451263153243,11.499645096051559 L-34.49696611363521,11.549987553407028 L-34.3826568627543,11.598609509353626 L-34.26182705916757,11.645407951416766 L-34.13473269786388,11.690283730493334 L-34.0016430461816,11.733141770913056 L-33.862840073327746,11.773891271869719 L-33.71861785298642,11.812445899795494 L-33.56928194028224,11.848723971270775 L-33.41514872441864,11.882648626082046 L-33.256544758362764,11.914147990061071 L-33.09380606699692,11.943155327360461 " />
			<path d="M-44.721359549995796,12.244466720783239 L8.94427190999916,21.28380852346642 " />
			<path d="M8.944271909999156,21.28380852346642 L44.721359549995796,-2.8211029503553995 " />
			<path d="M-44.721359549995796,12.244466720783239 L-8.94427190999916,-11.86044475303858 " />
			<path d="M-8.944271909999156,-11.860444753038578 L44.721359549995796,-2.821102950355396 " />
			<path d="M-6.260990336999414,-6.135528278005898 L-6.125580503716291,-6.113779567873029 L-5.987845120777823,-6.093756610282675 L-5.84797791132554,-6.075487567281251 L-5.706175596889042,-6.058998134055624 L-5.417565867175503,-6.0314483300621395 L-5.123639065010922,-6.011262137660453 L-4.826048226841772,-5.998553083454841 L-4.526466995554673,-5.9933926428250475 L-4.226580207953719,-5.995809837950672 L-3.928074419283514,-6.005791074591202 L-3.632628418087739,-6.023280218539667 L-3.341903784747444,-6.048178911319903 L-3.0575355467975784,-6.080347123351986 L-2.9182364948375237,-6.099102334466981 L-2.7811229835760205,-6.119603941474833 L-2.6463878614996474,-6.141823109114542 L-2.514220631919504,-6.165728586396961 L-2.38480718643712,-6.191286750558934 L-2.258329543490171,-6.218461654353299 L-2.1349655923457553,-6.247215076608261 L-2.014888842901312,-6.277506575984999 L-1.898268181645054,-6.309293547857921 L-1.785267634119172,-6.342531284237551 L-1.6760461342199129,-6.377173036651772 L-1.5707573006589808,-6.413170081896984 L-1.469549220900685,-6.450471790566701 L-1.3725642428787284,-6.489025698261187 L-1.2799387747855655,-6.528777579378005 L-1.1918030932159356,-6.5696715233796645 L-1.108281159934422,-6.611650013431112 L-1.0294904475247337,-6.65465400729646 L-0.955541774165944,-6.698623020381176 L-0.8865391477680702,-6.743495210802928 L-0.8225796196862141,-6.7892074663714395 L-0.7637531482190099,-6.835695493355018 L-0.7101424720833682,-6.882893906908908 L-0.6618229940434799,-6.930736323038281 L-0.6188626748577448,-6.979155451966514 L-0.581321937692791,-7.028083192777445 L-0.5492535831390231,-7.077450729198483 L-0.5227027149472363,-7.127188626389857 L-0.5017066765907408,-7.177226928603876 L-0.4862949987422165,-7.2274952575768365 L-0.47648935773918355,-7.277922911515197 L-0.47230354509649697,-7.328438964536787 L-0.4737434481087477,-7.378972366427201 L-0.4808070415698551,-7.429452042571062 L-0.49348439062149474,-7.479806993917599 L-0.5117576647263555,-7.529966396839955 L-0.5356011627465738,-7.579859702747753 L-0.5649813490920716,-7.629416737312832 L-0.5998569008879544,-7.678567799168585 L-0.6401787660946363,-7.727243757944087 L-0.6858902324989331,-7.775376151495117 L-0.7369270074790957,-7.822897282195331 " />
			<path d="M-0.7369270074791019,-7.822897282195337 L-0.7934491905980701,-7.869923295563849 L-0.8551862153199554,-7.9161991959951195 L-0.9220505643252417,-7.96165938358727 L-0.9939474518897629,-8.00623941477859 L-1.0707749582512767,-8.049876093701577 L-1.1524241740891257,-8.092507561768315 L-1.2387793549121722,-8.134073385360091 L-1.3297180851361552,-8.17451464149705 L-1.425111451617863,-8.213774001366357 L-1.524824226400137,-8.25179581159053 L-1.6287150584086483,-8.288526173120673 L-1.7366366738286847,-8.323913017642832 L-1.8484360848779238,-8.357906181389112 L-1.963954806679217,-8.390457476248951 L-2.0830290819259654,-8.421520758079742 L-2.2054901130215874,-8.451051992119956 L-2.3311643013640317,-8.479009315412041 L-2.4598734934360946,-8.50535309614662 L-2.5914352333526995,-8.530045989843842 L-2.7256630215071667,-8.553052992292258 L-2.8623665789497643,-8.574341489170182 L-3.001352117123788,-8.593881302279168 L-3.1424226125768255,-8.611644732324109 L-3.285378086257728,-8.627606598179248 L-3.5761309788134508,-8.654037714221559 L-3.871962714340511,-8.673024830381094 L-4.17119642388102,-8.684460321606638 L-4.4721359549995805,-8.688279367873996 L-4.773075486118141,-8.684460321606638 L-5.072309195658651,-8.673024830381094 L-5.368140931185711,-8.654037714221559 L-5.658893823741433,-8.627606598179248 L-5.801849297422336,-8.611644732324109 L-5.942919792875374,-8.59388130227917 L-6.081905331049397,-8.574341489170182 L-6.218608888491994,-8.553052992292258 L-6.352836676646462,-8.530045989843842 L-6.484398416563067,-8.50535309614662 L-6.613107608635129,-8.479009315412041 L-6.738781796977574,-8.451051992119956 L-6.8612428280731965,-8.421520758079744 L-6.980317103319945,-8.390457476248951 L-7.095835825121236,-8.357906181389113 L-7.207635236170474,-8.323913017642834 L-7.315556851590513,-8.288526173120674 L-7.419447683599023,-8.25179581159053 L-7.519160458381297,-8.213774001366358 L-7.614553824863005,-8.17451464149705 L-7.705492555086989,-8.134073385360093 L-7.791847735910036,-8.092507561768317 L-7.873496951747884,-8.04987609370158 L-7.9503244581093995,-8.00623941477859 L-8.022221345673922,-7.96165938358727 L-8.089085694679207,-7.9161991959951195 L-8.150822719401091,-7.86992329556385 L-8.207344902520047,-7.822897282195348 " />
			<path d="M-8.20734490252006,-7.822897282195337 L-8.269245025941116,-7.76448381909631 L-8.323100437995476,-7.705172666642767 L-8.36879703839331,-7.645089483880418 L-8.406238012438548,-7.584361565510125 L-8.435344036144482,-7.523117572196107 L-8.446751477614411,-7.492342560366782 L-8.456053444292817,-7.461487257980177 L-8.463245008644886,-7.430568010028904 L-8.46832236108014,-7.39960119537949 L-8.471282811970488,-7.368603218095988 L-8.472124793075006,-7.337590498750243 L-8.470847858370679,-7.306579465723425 L-8.46745268428868,-7.275586546503408 L-8.461941069356035,-7.244628158982629 L-8.454315933242896,-7.213720702761033 L-8.444581315215897,-7.182880550458707 L-8.432742371998437,-7.152124039042806 L-8.402777707188983,-7.09092705657256 L-8.364485423185172,-7.030259409792997 L-8.317946647593985,-6.97024963167447 L-8.263259979378475,-6.911024861399743 L-8.200541279961945,-6.852710575001692 L-8.129923427759177,-6.795430319524623 L-8.05155603665476,-6.739305451272429 L-7.9656051390249605,-6.684454878698132 L-7.872252833974709,-6.630994810479548 L-7.77169690153495,-6.579038509314805 L-7.6641503836377325,-6.528696051959336 L-7.549841132756827,-6.480074096012738 L-7.429011329170095,-6.4332756539495985 L-7.301916967866403,-6.38839987487303 L-7.1688273161841245,-6.345541834453308 L-7.030024343330271,-6.304792333496646 L-6.885802122988945,-6.266237705570872 L-6.736466210284759,-6.229959634095589 L-6.582332994421163,-6.196034979284318 L-6.42372902836529,-6.164535615305294 L-6.260990336999447,-6.1355282780059035 " />
			<path d="M2.683281572999749,17.96938319581592 L2.818691406282872,17.991131905948787 L2.9564267892213394,18.01115486353914 L3.0962939986736235,18.029423906540565 L3.2380963131101206,18.045913339766194 L3.52670604282366,18.073463143759678 L3.8206328449882405,18.093649336161363 L4.118223683157391,18.106358390366978 L4.41780491444449,18.11151883099677 L4.717691702045443,18.109101635871145 L5.016197490715649,18.099120399230614 L5.311643491911424,18.08163125528215 L5.602368125251719,18.056732562501914 L5.886736363201584,18.02456435046983 L6.026035415161639,18.005809139354835 L6.163148926423142,17.985307532346983 L6.297884048499515,17.963088364707275 L6.430051278079659,17.939182887424856 L6.5594647235620425,17.913624723262885 L6.685942366508992,17.886449819468517 L6.809306317653407,17.857696397213555 L6.9293830670978505,17.827404897836818 L7.046003728354108,17.795617925963896 L7.15900427587999,17.762380189584267 L7.26822577577925,17.727738437170046 L7.373514609340182,17.691741391924833 L7.474722689098478,17.654439683255116 L7.571707667120434,17.61588577556063 L7.664333135213598,17.57613389444381 L7.752468816783227,17.53523995044215 L7.835990750064741,17.493261460390706 L7.914781462474429,17.450257466525358 L7.988730135833219,17.40628845344064 L8.057732762231092,17.36141626301889 L8.121692290312948,17.31570400745038 L8.180518761780153,17.2692159804668 L8.234129437915794,17.22201756691291 L8.282448915955683,17.174175150783537 L8.325409235141418,17.125756021855302 L8.362949972306371,17.07682828104437 L8.39501832686014,17.027460744623333 L8.421569195051926,16.97772284743196 L8.442565233408422,16.927684545217943 L8.457976911256946,16.87741621624498 L8.46778255225998,16.82698856230662 L8.471968364902665,16.77647250928503 L8.470528461890416,16.725939107394616 L8.463464868429307,16.675459431250754 L8.450787519377668,16.625104479904216 L8.432514245272808,16.574945076981862 L8.40867074725259,16.525051771074065 L8.37929056090709,16.475494736508985 L8.34441500911121,16.426343674653232 L8.304093143904527,16.37766771587773 L8.25838167750023,16.3295353223267 L8.207344902520067,16.282014191626487 " />
			<path d="M8.207344902520061,16.28201419162648 L8.150822719401093,16.234988178257968 L8.089085694679207,16.1887122778267 L8.022221345673922,16.143252090234547 L7.9503244581093995,16.098672059043228 L7.873496951747886,16.055035380120238 L7.7918477359100375,16.0124039120535 L7.705492555086991,15.970838088461726 L7.614553824863007,15.930396832324767 L7.5191604583813,15.89113747245546 L7.419447683599026,15.853115662231287 L7.3155568515905145,15.816385300701144 L7.2076352361704785,15.780998456178985 L7.095835825121239,15.747005292432705 L6.980317103319946,15.714453997572866 L6.861242828073197,15.683390715742075 L6.738781796977575,15.653859481701861 L6.613107608635131,15.625902158409776 L6.484398416563068,15.599558377675196 L6.352836676646463,15.574865483977975 L6.218608888491996,15.551858481529559 L6.0819053310493985,15.530569984651635 L5.942919792875375,15.511030171542647 L5.801849297422337,15.49326674149771 L5.658893823741435,15.477304875642567 L5.368140931185712,15.450873759600258 L5.072309195658652,15.431886643440723 L4.773075486118143,15.420451152215179 L4.472135954999582,15.416632105947823 L4.171196423881022,15.420451152215179 L3.8719627143405124,15.431886643440723 L3.576130978813452,15.450873759600258 L3.2853780862577295,15.477304875642567 L3.1424226125768264,15.493266741497708 L3.0013521171237887,15.511030171542647 L2.8623665789497656,15.530569984651635 L2.725663021507168,15.551858481529559 L2.5914352333527004,15.574865483977975 L2.459873493436096,15.599558377675196 L2.331164301364033,15.625902158409776 L2.2054901130215887,15.653859481701861 L2.0830290819259667,15.683390715742075 L1.9639548066792178,15.714453997572866 L1.848436084877926,15.747005292432704 L1.7366366738286887,15.780998456178983 L1.6287150584086505,15.816385300701143 L1.5248242264001406,15.853115662231287 L1.4251114516178665,15.891137472455458 L1.3297180851361574,15.930396832324767 L1.238779354912173,15.970838088461724 L1.1524241740891266,16.0124039120535 L1.0707749582512784,16.055035380120238 L0.9939474518897637,16.098672059043228 L0.9220505643252412,16.143252090234547 L0.8551862153199559,16.188712277826696 L0.7934491905980714,16.234988178257968 L0.7369270074791152,16.28201419162647 " />
			<path d="M0.7369270074791028,16.28201419162648 L0.6750268840580467,16.340427654725506 L0.6211714720036867,16.399738807179048 L0.5754748716058526,16.4598219899414 L0.5380338975606143,16.520549908311693 L0.5089278738546805,16.58179390162571 L0.4975204323847513,16.612568913455036 L0.48821846570634575,16.64342421584164 L0.48102690135427606,16.674343463792912 L0.4759495489190222,16.705310278442326 L0.4729890980286746,16.736308255725827 L0.4721471169241571,16.767320975071573 L0.4734240516284838,16.79833200809839 L0.4768192257104831,16.829324927318407 L0.48233084064312726,16.860283314839187 L0.4899559767562667,16.891190771060785 L0.49969059478326594,16.92203092336311 L0.511529538000727,16.95278743477901 L0.541494202810179,17.013984417249258 L0.5797864868139899,17.074652064028818 L0.626325262405178,17.13466184214735 L0.6810119306206883,17.193886612422073 L0.7437306300372177,17.252200898820124 L0.8143484822399851,17.309481154297192 L0.8927158733444016,17.365606022549386 L0.9786667709742023,17.420456595123685 L1.072019076024453,17.47391666334227 L1.1725750084642126,17.525872964507013 L1.2801215263614307,17.576215421862482 L1.3944307772423365,17.62483737780908 L1.5152605808290684,17.67163581987222 L1.6423549421327595,17.716511598948788 L1.7754445938150378,17.759369639368508 L1.9142475666688918,17.800119140325172 L2.0584697870102175,17.838673768250946 L2.2078056997144038,17.87495183972623 L2.361938915577999,17.9088764945375 L2.520542881633873,17.94037585851652 L2.6832815729997166,17.969383195815915 " />
			<path d="M29.516097302997224,-0.10930040955044396 L29.651507136280348,-0.0875516994175749 L29.789242519218817,-0.06752874182722146 L29.9291097286711,-0.04925969882579717 L30.070912043107597,-0.03277026560017049 L30.359521772821136,-0.005220461606685767 L30.653448574985717,0.014965730795000631 L30.951039413154867,0.027674785000613156 L31.250620644441966,0.032835225630406084 L31.55050743204292,0.030418030504782312 L31.849013220713125,0.020436793864251568 L32.1444592219089,0.0029476499157865543 L32.43518385524919,-0.021951042864448933 L32.71955209319906,-0.054119254896532354 L32.858851145159115,-0.07287446601152725 L32.99596465642062,-0.09337607301937911 L33.13069977849699,-0.11559524065908788 L33.26286700807714,-0.1395007179415073 L33.39228045355952,-0.16505888210347974 L33.51875809650647,-0.19223378589784512 L33.642122047650886,-0.22098720815280704 L33.76219879709533,-0.2512787075295453 L33.878819458351586,-0.2830656794024671 L33.991820005877464,-0.3163034157820973 L34.10104150577673,-0.3509451681963185 L34.206330339337654,-0.386942213441531 L34.307538419095955,-0.4242439221112473 L34.40452339711791,-0.46279782980573336 L34.497148865211074,-0.5025497109225513 L34.585284546780706,-0.5434436549242112 L34.668806480062216,-0.5854221449756587 L34.74759719247191,-0.6284261388410067 L34.82154586583069,-0.6723951519257226 L34.89054849222857,-0.7172673423474746 L34.95450802031043,-0.7629795979159857 L35.01333449177763,-0.8094676248995638 L35.06694516791327,-0.8566660384534539 L35.11526464595316,-0.9045084545828272 L35.15822496513889,-0.9529275835110608 L35.195765702303845,-1.0018553243219916 L35.22783405685762,-1.051222860743029 L35.2543849250494,-1.100960757934403 L35.2753809634059,-1.150999060148422 L35.29079264125442,-1.2012673891213823 L35.300598282257454,-1.2516950430597429 L35.30478409490014,-1.3022110960813331 L35.30334419188789,-1.3527444979717473 L35.29628059842678,-1.403224174115608 L35.28360324937515,-1.4535791254621455 L35.265329975270284,-1.503738528384501 L35.241486477250064,-1.5536318342922992 L35.212106290904565,-1.6031888688573779 L35.17723073910869,-1.652339930713131 L35.136908873902,-1.7010158894886331 L35.0911974074977,-1.749148283039664 L35.04016063251754,-1.796669413739877 " />
			<path d="M35.040160632517534,-1.7966694137398826 L34.98363844939857,-1.843695427108395 L34.92190142467668,-1.8899713275396652 L34.8550370756714,-1.935431515131817 L34.78314018810688,-1.9800115463231347 L34.70631268174536,-2.023648225246124 L34.62466346590751,-2.066279693312862 L34.53830828508447,-2.107845516904638 L34.44736955486049,-2.1482867730415953 L34.35197618837878,-2.187546132910903 L34.2522634135965,-2.2255679431350748 L34.14837258158799,-2.262298304665219 L34.04045096616795,-2.2976851491873793 L33.92865155511871,-2.3316783129336587 L33.813132833317425,-2.3642296077934972 L33.69405855807067,-2.3952928896242893 L33.571597526975054,-2.4248241236645023 L33.44592333863261,-2.4527814469565876 L33.317214146560545,-2.479125227691167 L33.18565240664394,-2.5038181213883886 L33.05142461848947,-2.5268251238368054 L32.914721061046876,-2.5481136207147284 L32.77573552287285,-2.5676534338237156 L32.634665027419814,-2.5854168638686543 L32.49170955373891,-2.6013787297237956 L32.20095666118319,-2.627809845766105 L31.90512492565613,-2.64679696192564 L31.60589121611562,-2.6582324531511836 L31.304951684997057,-2.662051499418541 L31.0040121538785,-2.6582324531511836 L30.70477844433799,-2.6467969619256406 L30.408946708810927,-2.627809845766105 L30.118193816255207,-2.6013787297237956 L29.975238342574304,-2.5854168638686548 L29.834167847121265,-2.5676534338237156 L29.695182308947242,-2.5481136207147284 L29.558478751504644,-2.5268251238368054 L29.424250963350175,-2.503818121388389 L29.292689223433573,-2.4791252276911675 L29.163980031361508,-2.452781446956588 L29.038305843019064,-2.4248241236645027 L28.915844811923442,-2.3952928896242893 L28.796770536676693,-2.3642296077934977 L28.681251814875402,-2.331678312933659 L28.569452403826165,-2.29768514918738 L28.461530788406126,-2.26229830466522 L28.357639956397616,-2.225567943135076 L28.257927181615344,-2.1875461329109043 L28.162533815133635,-2.148286773041596 L28.07159508490965,-2.1078455169046384 L27.9852399040866,-2.066279693312862 L27.903590688248755,-2.0236482252461254 L27.82676318188724,-1.9800115463231351 L27.754866294322717,-1.9354315151318169 L27.68800194531743,-1.8899713275396657 L27.626264920595546,-1.843695427108396 L27.56974273747659,-1.7966694137398944 " />
			<path d="M27.569742737476577,-1.7966694137398833 L27.507842614055523,-1.7382559506408564 L27.453987202001162,-1.6789447981873133 L27.40829060160333,-1.6188616154249644 L27.37084962755809,-1.558133697054671 L27.341743603852155,-1.4968897037406537 L27.330336162382228,-1.4661146919113288 L27.32103419570382,-1.435259389524723 L27.31384263135175,-1.40434014157345 L27.308765278916496,-1.3733733269240365 L27.30580482802615,-1.342375349640534 L27.304962846921633,-1.3113626302947896 L27.30623978162596,-1.2803515972679718 L27.30963495570796,-1.2493586780479546 L27.315146570640604,-1.2184002905271754 L27.32277170675374,-1.1874928343055786 L27.33250632478074,-1.1566526820032534 L27.344345267998204,-1.1258961705873525 L27.374309932807655,-1.064699188117106 L27.412602216811464,-1.0040315413375436 L27.459140992402652,-0.9440217632190161 L27.513827660618166,-0.8847969929442894 L27.576546360034694,-0.8264827065462381 L27.64716421223746,-0.7692024510691696 L27.725531603341878,-0.7130775828169756 L27.811482500971678,-0.6582270102426776 L27.904834806021928,-0.6047669420240939 L28.00539073846169,-0.5528106408593517 L28.112937256358908,-0.5024681835038823 L28.227246507239812,-0.45384622755728465 L28.348076310826546,-0.407047785494145 L28.475170672130236,-0.3621720064175761 L28.608260323812512,-0.31931396599785455 L28.74706329666637,-0.27856446504119226 L28.891285517007695,-0.24000983711541823 L29.04062142971188,-0.20373176564013518 L29.194754645575475,-0.16980711082886413 L29.35335861163135,-0.13830774684984015 L29.516097302997192,-0.1093004095504495 " />
			<path d="M-32.64659247149693,10.700295047664637 L-32.47758319991622,10.726587228791434 L-32.30405858513394,10.749297473714568 L-32.12668680225855,10.768338334204381 L-31.946150840331157,10.783636491388858 L-31.763145872403115,10.795133038075788 L-31.578376578697725,10.802783705581222 L-31.392554433163603,10.806559034190775 L-31.20639496386806,10.80644448659741 L-31.02061499777967,10.802440503878906 L-30.835929900549274,10.794562503799419 L-30.65305082191794,10.782840821441756 L-30.47268195735876,10.76732059239887 L-30.29551783649677,10.748061578974438 L-30.122240648748267,10.725137940061709 L-29.953517616477427,10.698637945586745 L-29.789998425785143,10.668663636615621 L-29.63231272482313,10.63533043243437 L-29.48106769926632,10.598766686114672 L-29.336845734279382,10.559113190276602 L-29.20020217198031,10.516522634951574 L-29.071663173036132,10.471159019633028 L-28.951723690624924,10.42319702177882 L-28.840845564565594,10.372821324196966 L-28.739455742954235,10.32022590390472 L-28.64794463815474,10.265613285199295 L-28.566664623474217,10.209193759816376 L-28.495928676311824,10.151184577179276 L-28.464601461400385,10.121653451957918 L-28.436009173005782,10.091809107856768 L-28.41017934217227,10.061680281503932 L-28.38713684001915,10.031295983450796 L-28.366903853792778,10.00068547023824 L-28.349499865502832,9.96987821622601 L-28.334941633163407,9.938903885212321 L-28.32324317465699,9.907792301871092 L-28.314415754236883,9.876573423034252 L-28.308467871681025,9.8452773088468 " />
			<path d="M-34.30143549831309,9.845277308846793 L-34.29499232559491,9.878642167897667 L-34.285276453035046,9.911916967303373 L-34.27229851498212,9.945065286679098 L-34.25607271622493,9.97805084407666 L-34.236616816444844,10.010837535696332 L-34.2139521107772,10.043389475403652 L-34.18810340650309,10.075671034008005 L-34.159098995896954,10.10764687825997 L-34.12697062525974,10.139282009524747 L-34.09175346017149,10.170541802089335 L-34.053486047001456,10.201392041061537 L-34.012210270717794,10.231798959819312 L-33.96797130904307,10.261729276969474 L-33.920817583005714,10.291150232775292 L-33.81797541700364,10.348335844218829 L-33.704133906316585,10.403105496373872 L-33.57979132798014,10.455219465964168 L-33.44549192153358,10.504449653466775 L-33.30182350691816,10.550580581489115 L-33.149414911626664,10.593410337899805 L-32.98893321836555,10.632751459585169 L-32.82108084527649,10.668431752963352 L-32.64659247149694,10.700295047664635 " />
			<path d="M-44.721359549995796,2.828977858052669 L-44.721359549995796,12.244466720783239 " />
			<path d="M44.721359549995796,-12.236591813085967 L44.721359549995796,-2.8211029503553977 " />
			<path d="M-44.721359549995796,2.828977858052669 L-8.94427190999916,-21.275933615769148 " />
			<path d="M-8.944271909999156,-21.275933615769148 L-8.944271909999156,-11.860444753038578 " />
			<path d="M-8.944271909999156,-21.275933615769148 L44.721359549995796,-12.236591813085965 " />
			<path d="M-5.8137767414994554,-7.3783885577017285 L-5.644767469918744,-7.352096376574931 L-5.471242855136461,-7.3293861316517965 L-5.293871072261068,-7.310345271161983 L-5.113335110333679,-7.295047113977508 L-4.930330142405638,-7.283550567290577 L-4.745560848700248,-7.275899899785143 L-4.559738703166126,-7.272124571175591 L-4.373579233870585,-7.272239118768954 L-4.187799267782195,-7.276243101487459 L-4.003114170551795,-7.284121101566946 L-3.820235091920461,-7.295842783924609 L-3.6398662273612814,-7.311363012967496 L-3.4627021064992918,-7.330622026391928 L-3.2894249187507905,-7.353545665304656 L-3.12070188647995,-7.38004565977962 L-2.957182695787664,-7.410019968750745 L-2.7994969948256534,-7.443353172931996 L-2.6482519692688413,-7.479916919251694 L-2.504030004281904,-7.519570415089763 L-2.3673864419828323,-7.562160970414792 L-2.238847443038654,-7.607524585733338 L-2.1189079606274435,-7.655486583587546 L-2.0080298345681156,-7.7058622811694 L-1.9066400129567564,-7.758457701461647 L-1.8151289081572637,-7.813070320167071 L-1.7338488934767402,-7.86948984554999 L-1.6631129463143446,-7.92749902818709 L-1.6317857314029087,-7.957030153408449 L-1.6031934430083066,-7.986874497509598 L-1.5773636121747936,-8.017003323862435 L-1.5543211100216725,-8.04738762191557 L-1.5340881237953008,-8.077998135128126 L-1.5166841355053564,-8.108805389140358 L-1.5021259031659313,-8.139779720154046 L-1.4904274446595154,-8.170891303495274 L-1.4816000242394063,-8.202110182332115 L-1.475652141683549,-8.233406296519567 " />
			<path d="M-7.468619768315614,-8.233406296519572 L-7.462176595597438,-8.200041437468698 L-7.4524607230375715,-8.166766638062992 L-7.4394827849846425,-8.133618318687267 L-7.423256986227454,-8.100632761289704 L-7.4038010864473645,-8.067846069670033 L-7.38113638077972,-8.035294129962713 L-7.355287676505612,-8.00301257135836 L-7.32628326589948,-7.971036727106394 L-7.294154895262264,-7.939401595841617 L-7.258937730174012,-7.90814180327703 L-7.220670317003977,-7.877291564304828 L-7.179394540720317,-7.8468846455470525 L-7.135155579045593,-7.816954328396891 L-7.088001853008238,-7.7875333725910725 L-6.98515968700616,-7.730347761147535 L-6.871318176319111,-7.675578108992493 L-6.7469755979826616,-7.623464139402196 L-6.6126761915361065,-7.57423395189959 L-6.469007776920687,-7.528103023877249 L-6.316599181629188,-7.48527326746656 L-6.156117488368075,-7.445932145781195 L-5.988265115279018,-7.410251852403013 L-5.813776741499462,-7.378388557701729 " />
			<path d="M3.1304951684997073,16.72652291612009 L3.29950444008042,16.752815097246888 L3.473029054862702,16.77552534217002 L3.6504008377380948,16.794566202659833 L3.8309367996654844,16.809864359844312 L4.0139417675935265,16.82136090653124 L4.198711061298916,16.829011574036674 L4.384533206833037,16.832786902646227 L4.570692676128579,16.832672355052864 L4.75647264221697,16.82866837233436 L4.94115773944737,16.820790372254873 L5.124036818078704,16.80906868989721 L5.304405682637883,16.79354846085432 L5.481569803499873,16.77428944742989 L5.654846991248374,16.75136580851716 L5.823570023519215,16.724865814042197 L5.987089214211501,16.694891505071073 L6.144774915173512,16.661558300889823 L6.296019940730323,16.624994554570126 L6.4402419057172615,16.585341058732055 L6.576885468016332,16.542750503407028 L6.705424466960511,16.49738688808848 L6.825363949371721,16.449424890234273 L6.936242075431049,16.399049192652416 L7.037631897042408,16.34645377236017 L7.1291430018419,16.291841153654747 L7.210423016522425,16.235421628271826 L7.28115896368482,16.177412445634726 L7.312486178596256,16.14788132041337 L7.341078466990858,16.11803697631222 L7.36690829782437,16.087908149959382 L7.389950799977491,16.057523851906247 L7.410183786203863,16.026913338693692 L7.427587774493807,15.99610608468146 L7.442146006833232,15.965131753667771 L7.453844465339648,15.934020170326542 L7.462671885759757,15.902801291489702 L7.468619768315614,15.87150517730225 " />
			<path d="M1.4756521416835482,15.871505177302245 L1.482095314401724,15.904870036353119 L1.4918111869615909,15.938144835758825 L1.5047891250145198,15.97129315513455 L1.5210149237717072,16.004278712532113 L1.5404708235517965,16.037065404151786 L1.5631355292194415,16.069617343859104 L1.588984233493549,16.101898902463457 L1.6179886440996811,16.133874746715424 L1.6501170147368978,16.1655098779802 L1.685334179825149,16.196769670544786 L1.723601592995184,16.22761990951699 L1.7648773692788442,16.258026828274765 L1.8091163309535676,16.287957145424926 L1.8562700569909234,16.317378101230744 L1.9591122229930016,16.37456371267428 L2.0729537336800505,16.429333364829326 L2.1972963120164994,16.481447334419624 L2.3315957184630554,16.53067752192223 L2.475264133078474,16.57680844994457 L2.6276727283699737,16.61963820635526 L2.788154421631087,16.658979328040623 L2.9560067947201447,16.694659621418804 L3.1304951684997016,16.72652291612009 " />
			<path d="M29.963310898497184,-1.3521606892462739 L30.132320170077897,-1.3258685081194765 L30.305844784860177,-1.3031582631963428 L30.48321656773557,-1.2841174027065296 L30.66375252966296,-1.2688192455220535 L30.846757497591,-1.2573226988351234 L31.03152679129639,-1.2496720313296894 L31.21734893683051,-1.2458967027201366 L31.403508406126054,-1.2460112503134995 L31.589288372214444,-1.2500152330320056 L31.773973469444844,-1.2578932331114911 L31.956852548076178,-1.2696149154691554 L32.137221412635355,-1.2851351445120418 L32.314385533497344,-1.3043941579364735 L32.48766272124585,-1.3273177968492025 L32.65638575351669,-1.353817791324166 L32.81990494420897,-1.3837921002952909 L32.977590645170984,-1.4171253044765413 L33.128835670727796,-1.4536890507962392 L33.273057635714736,-1.4933425466343095 L33.409701198013806,-1.5359331019593374 L33.538240196957986,-1.5812967172778838 L33.6581796793692,-1.629258715132092 L33.769057805428524,-1.6796344127139458 L33.87044762703988,-1.7322298330061923 L33.961958731839374,-1.7868424517116175 L34.0432387465199,-1.8432619770945364 L34.113974693682295,-1.9012711597316367 L34.14530190859373,-1.9308022849529956 L34.173894196988336,-1.9606466290541449 L34.199724027821844,-1.9907754554069805 L34.22276652997497,-2.021159753460118 L34.24299951620134,-2.0517702666726723 L34.26040350449128,-2.082577520684904 L34.274961736830704,-2.1135518516985927 L34.28666019533712,-2.14466343503982 L34.29548761575723,-2.1758823138766608 L34.30143549831309,-2.2071784280641142 " />
			<path d="M28.308467871681025,-2.2071784280641182 L28.3149110443992,-2.1738135690132454 L28.32462691695907,-2.1405387696075384 L28.337604855011996,-2.107390450231814 L28.353830653769183,-2.074404892834251 L28.373286553549274,-2.041618201214579 L28.39595125921692,-2.0090662615072596 L28.421799963491026,-1.9767847029029064 L28.450804374097157,-1.9448088586509407 L28.482932744734374,-1.9131737273861638 L28.518149909822625,-1.8819139348215765 L28.55641732299266,-1.8510636958493745 L28.59769309927632,-1.8206567770915987 L28.641932060951046,-1.7907264599414368 L28.6890857869884,-1.761305504135619 L28.791927952990477,-1.7041198926920815 L28.905769463677526,-1.6493502405370397 L29.030112042013975,-1.597236270946742 L29.164411448460534,-1.548006083444136 L29.30807986307595,-1.5018751554217953 L29.46048845836745,-1.459045399011106 L29.620970151628562,-1.419704277325741 L29.78882252471762,-1.384023983947559 L29.963310898497177,-1.3521606892462752 " />

        </g>
        </g>
    </svg>
    