<?xml version="1.0" encoding="UTF-8" standalone="no"?>
    <svg
    xmlns:svg="http://www.w3.org/2000/svg"
    xmlns="http://www.w3.org/2000/svg"
    width="101"
    height="121"
    >
        <g transform="scale(50, -50)   translate(1.2994167372693641,-0.8557745300570212)" stroke-width="0.02"  fill="none">
        <!-- hidden lines -->
        <g  stroke="rgb(160,160,160)" fill="none" stroke-dasharray="0.02,0.02" >
    
        </g>

        <!-- solid lines -->
        <g  stroke="rgb(0,0,0)" fill="none">
    			<path d="M-0.32756089104020913,-0.3388306000636483 L0.32756089104020936,0.33883060006364885 " />
			<path d="M-0.8516583167045438,-0.3864279434287877 L-0.32756089104020913,-1.0143733515005677 " />
			<path d="M-0.8516583167045438,-0.3864279434287877 L-0.8516583167045438,0.2891148080081317 " />
			<path d="M-0.8516583167045438,-0.3864279434287877 L0.0,0.0 " />
			<path d="M-0.32756089104020913,-1.0143733515005677 L-0.33697826665761516,-1.0011548089425577 L-0.3439389355922196,-0.9877131538375233 L-0.3537657623234259,-0.9604579893824148 " />
			<path d="M-0.32756089104020913,-1.0143733515005677 L-0.33697826665761516,-1.0050251059559983 L-0.3439389355922196,-1.0017869611591257 L-0.3537657623234259,-1.0054941728115425 " />
			<path d="M-0.8516583167045438,0.2891148080081317 L-0.8531596374551448,0.2787749511434552 L-0.8571176648885473,0.2745451950264757 L-0.8627134967771509,0.2743888394079609 L-0.869128230893355,0.2762691840386784 " />
			<path d="M-0.8516583167045438,0.2891148080081317 L-0.8501569959539429,0.27517734724304393 L-0.8461989685205403,0.26146299902498027 L-0.8341884025157327,0.23440615683389315 " />
			<path d="M0.0,0.0 L-0.01530323537828478,-0.00500847860176569 L-0.026614322397016995,-0.005038969571348367 L-0.04258291583522717,0.0031966945431245834 " />
			<path d="M0.0,0.0 L-0.01530323537828478,-0.008878775615206376 L-0.026614322397016995,-0.019112776892950857 L-0.04258291583522717,-0.04183948888600331 " />
			<path d="M-0.2469809118443177,-1.0493610697911047 L-0.2792128182203589,-1.0706969485893731 " />
			<path d="M-0.2792128182203589,-1.0706969485893731 L-0.24540879017195547,-1.1743624780070059 " />
			<path d="M-0.24540879017195538,-1.1743624780070059 L-0.26047659115980504,-1.1563090475249422 " />
			<path d="M-0.26047659115980504,-1.1563090475249422 L-0.2865500968773442,-1.0737278132311707 " />
			<path d="M-0.28655009687734423,-1.0737278132311707 L-0.312754968160561,-1.0936719018884073 " />
			<path d="M-0.3127549681605609,-1.0936719018884071 L-0.32756089104020913,-1.0759322397010669 " />
			<path d="M-0.32756089104020913,-1.0759322397010669 L-0.2937564364802288,-1.0532715657200376 " />
			<path d="M-0.29375643648022876,-1.0532715657200376 L-0.3254645866398671,-0.9553261427276994 " />
			<path d="M-0.3254645866398672,-0.9553261427276994 L-0.310658663760219,-0.9730658049150398 " />
			<path d="M-0.310658663760219,-0.9730658049150397 L-0.2861572797150421,-1.050723245109203 " />
			<path d="M-0.2861572797150421,-1.0507232451092028 L-0.26152453010418764,-1.0319356869217688 " />
			<path d="M-0.26152453010418764,-1.031935686921769 L-0.24698091184431772,-1.0493610697911047 " />
			<path d="M-0.899416737269364,0.4557745300570212 L-0.8413727767724082,0.3399545832787103 " />
			<path d="M-0.8413727767724082,0.3399545832787103 L-0.8038998961397237,0.2950565888062343 " />
			<path d="M-0.8038998961397237,0.2950565888062343 L-0.8038998961397237,0.27934999993208653 " />
			<path d="M-0.8038998961397237,0.27934999993208665 L-0.8413727767724082,0.32424799440456264 " />
			<path d="M-0.8413727767724082,0.32424799440456264 L-0.899416737269364,0.34633638442100095 " />
			<path d="M-0.899416737269364,0.3463363844210008 L-0.899416737269364,0.3657582385248122 " />
			<path d="M-0.899416737269364,0.36575823852481226 L-0.8529030907416543,0.3461697307119367 " />
			<path d="M-0.8529030907416543,0.3461697307119366 L-0.899416737269364,0.43702777889816774 " />
			<path d="M-0.899416737269364,0.4370277788981679 L-0.899416737269364,0.45577453005702123 " />
			<path d="M0.15521486683566554,0.02828979636743123 L0.15521486683566554,0.1169547824935269 " />
			<path d="M0.15521486683566554,0.11695478249352687 L0.13732990356860764,0.10883973278634924 " />
			<path d="M0.13732990356860764,0.10883973278634917 L0.0174587182599181,-0.019184725754701926 " />
			<path d="M0.01745871825991807,-0.01918472575470187 L0.017458718259918068,0.05478742543088021 " />
			<path d="M0.01745871825991807,0.05478742543088022 L-1.0755285551056204e-16,0.04686577838093624 " />
			<path d="M0.0,0.04686577838093631 L2.522930399697033e-18,2.7755575615628914e-17 " />
			<path d="M2.522930399697033e-18,2.7755575615628914e-17 L5.045860799394066e-18,-0.04686577838093625 " />
			<path d="M0.0,-0.04686577838093631 L0.01745871825991818,-0.038944131330992324 " />
			<path d="M0.017458718259918293,-0.03894413133099228 L0.13775545549443513,0.08961096686390607 " />
			<path d="M0.13775545549443502,0.08961096686390602 L0.13775545549443502,0.020367834841621774 " />
			<path d="M0.13775545549443502,0.0203678348416218 L0.1552148668356656,0.028289796367431196 " />

        </g>
        </g>
    </svg>
    