<?xml version="1.0" encoding="UTF-8" standalone="no"?>
    <svg
    xmlns:svg="http://www.w3.org/2000/svg"
    xmlns="http://www.w3.org/2000/svg"
    width="116"
    height="122"
    >
        <g transform="scale(50, -50)   translate(1.3134538432581158,-0.8647142978575391)" stroke-width="0.02"  fill="none">
        <!-- hidden lines -->
        <g  stroke="rgb(160,160,160)" fill="none" stroke-dasharray="0.02,0.02" >
    
        </g>

        <!-- solid lines -->
        <g  stroke="rgb(0,0,0)" fill="none">
    			<path d="M-0.12403473458920833,0.3284860055592346 L0.6201736729460425,-0.30795563021178196 " />
			<path d="M-0.3721042037676253,-0.3490163809066864 L-0.12403473458920836,0.32848600555923446 " />
			<path d="M-0.8682431421244592,-0.3695467562541387 L-0.3721042037676253,-1.0162535796988812 " />
			<path d="M-0.8682431421244592,-0.3695467562541387 L-0.8682431421244592,0.2976904425380562 " />
			<path d="M-0.8682431421244592,-0.3695467562541387 L1.1102230246251565e-16,5.551115123125783e-17 " />
			<path d="M-0.3721042037676253,-1.0162535796988812 L-0.38101920031622466,-1.0027217099060683 L-0.38760854559127633,-0.9890936039788144 L-0.396911150685467,-0.9616769985669045 " />
			<path d="M-0.3721042037676253,-1.0162535796988812 L-0.38101920031622466,-1.0065444230241487 L-0.38760854559127633,-1.0029943789536517 L-0.396911150685467,-1.006159478486384 " />
			<path d="M-0.8682431421244592,0.2976904425380562 L-0.8696643734582938,0.2875535697102517 L-0.8734112560656762,0.2835758094866828 L-0.8787085728554237,0.2837041243326044 L-0.8847811067363537,0.28588547671327114 " />
			<path d="M-0.8682431421244592,0.2976904425380562 L-0.8668219107906245,0.2838484785342662 L-0.8630750281832422,0.27010275066491735 L-0.8517051775125647,0.24277168848362168 " />
			<path d="M0.0,0.0 L-0.015601243960048902,-0.004728936717401416 L-0.027132598191389384,-0.004597948645523139 L-0.043412157106223,0.00376390214703285 " />
			<path d="M0.0,0.0 L-0.015601243960048902,-0.008551649835481696 L-0.027132598191389384,-0.01849872362036052 L-0.043412157106223,-0.0407185777724467 " />
			<path d="M-0.2958228419952621,-1.0548827097636695 L-0.32633530595242705,-1.0743276467728973 " />
			<path d="M-0.3263353059524271,-1.0743276467728973 L-0.2943345866837523,-1.1784267077971418 " />
			<path d="M-0.29433458668375223,-1.1784267077971418 L-0.30859858116151123,-1.1598338866231055 " />
			<path d="M-0.3085985811615112,-1.1598338866231053 L-0.3332811703376423,-1.0769505074818062 " />
			<path d="M-0.3332811703376424,-1.0769505074818062 L-0.35808811725548406,-1.0953253020175804 " />
			<path d="M-0.3580881172554842,-1.0953253020175804 L-0.3721042037676254,-1.0770556237387223 " />
			<path d="M-0.3721042037676253,-1.0770556237387223 L-0.34010308074004886,-1.0563816376805777 " />
			<path d="M-0.3401030807400488,-1.0563816376805777 L-0.37011972876597826,-0.9580382576945473 " />
			<path d="M-0.3701197287659783,-0.9580382576945472 L-0.3561036422538371,-0.9763079359734053 " />
			<path d="M-0.35610364225383717,-0.9763079359734053 L-0.33290930838921584,-1.0542486205667403 " />
			<path d="M-0.33290930838921584,-1.0542486205667405 L-0.30959061678288397,-1.0369367006713501 " />
			<path d="M-0.3095906167828839,-1.0369367006713497 L-0.2958228419952621,-1.0548827097636693 " />
			<path d="M-0.9134538432581158,0.4647142978575389 L-0.8585062943315358,0.34738544992741976 " />
			<path d="M-0.8585062943315358,0.3473854499274197 L-0.8230324409908025,0.30114601730939267 " />
			<path d="M-0.8230324409908025,0.3011460173093927 L-0.8230324409908025,0.2856325352378652 " />
			<path d="M-0.8230324409908025,0.28563253523786525 L-0.8585062943315358,0.3318719678558923 " />
			<path d="M-0.8585062943315358,0.33187196785589224 L-0.9134538432581158,0.3566216544535944 " />
			<path d="M-0.9134538432581158,0.3566216544535944 L-0.9134538432581158,0.37580472391887 " />
			<path d="M-0.9134538432581158,0.37580472391887 L-0.8694215124789468,0.354106792073336 " />
			<path d="M-0.8694215124789468,0.35410679207333595 L-0.9134538432581158,0.44619803119183754 " />
			<path d="M-0.9134538432581158,0.44619803119183765 L-0.9134538432581158,0.46471429785753904 " />
			<path d="M0.15823745396779842,0.025731253399846665 L0.15823745396779842,0.11330613574132223 " />
			<path d="M0.15823745396779842,0.1133061357413222 L0.14000420666756921,0.10554559371240126 " />
			<path d="M0.14000420666756885,0.10554559371240124 L0.017798701782320056,-0.019197521593104047 " />
			<path d="M0.017798701782320125,-0.01919752159310406 L0.017798701782320122,0.05386516887425026 " />
			<path d="M0.017798701782320125,0.0538651688742503 L-1.2836953722228372e-16,0.04628958066620851 " />
			<path d="M0.0,0.04628958066620853 L2.8660106661669856e-18,1.3877787807814457e-17 " />
			<path d="M2.8660106661669856e-18,1.3877787807814457e-17 L5.732021332333971e-18,-0.0462895806662085 " />
			<path d="M0.0,-0.04628958066620853 L0.017798701782320254,-0.038713992458166736 " />
			<path d="M0.017798701782320347,-0.0387139924581667 L0.14043804560740022,0.08654717733008474 " />
			<path d="M0.14043804560740014,0.08654717733008466 L0.14043804560740014,0.018155364453884687 " />
			<path d="M0.14043804560740014,0.018155364453884715 L0.15823745396779829,0.02573125339984663 " />

        </g>
        </g>
    </svg>
    