<?xml version="1.0" encoding="UTF-8" standalone="no"?>
    <svg
    xmlns:svg="http://www.w3.org/2000/svg"
    xmlns="http://www.w3.org/2000/svg"
    width="194"
    height="194"
    >
        <g transform="scale(50, -50)   translate(0.4911250813802084,-3.4)" stroke-width="0.02"  fill="none">
        <!-- hidden lines -->
        <g  stroke="rgb(160,160,160)" fill="none" stroke-dasharray="0.02,0.02" >
    
        </g>

        <!-- solid lines -->
        <g  stroke="rgb(0,0,0)" fill="none">
    			<path d="M1.0,1.0 L1.5,2.5 " />
			<path d="M1.5,2.5 L3.0,3.0 " />
			<path d="M0.0,0.0 L1.0,0.0 " />
			<path d="M0.0,0.0 L0.0,1.0 " />
			<path d="M1.0,0.0 L0.98203125,0.0028645833333333336 L0.96875,0.010416666666666668 L0.95859375,0.021093749999999998 L0.95,0.033333333333333284 " />
			<path d="M1.0,0.0 L0.98203125,-0.0028645833333333336 L0.96875,-0.010416666666666668 L0.95859375,-0.021093749999999998 L0.95,-0.033333333333333284 " />
			<path d="M0.0,1.0 L-0.002864583333333335,0.98203125 L-0.01041666666666667,0.96875 L-0.02109375,0.95859375 L-0.03333333333333329,0.95 " />
			<path d="M0.0,1.0 L0.002864583333333332,0.98203125 L0.010416666666666663,0.96875 L0.02109374999999999,0.95859375 L0.03333333333333328,0.95 " />
			<path d="M0.0,0.0 L-1.994931997373328e-18,0.0028645833333333336 L-3.469446951953614e-18,0.010416666666666668 L-5.551115123125779e-18,0.033333333333333284 " />
			<path d="M0.0,0.0 L-1.994931997373328e-18,-0.0028645833333333336 L-3.469446951953614e-18,-0.010416666666666668 L-5.551115123125779e-18,-0.033333333333333284 " />
			<path d="M1.15375,0.09112508138020833 L1.0922501627604166,0.0023750813802083243 " />
			<path d="M1.0922501627604166,0.0023750813802083407 L1.1567496744791668,-0.09112508138020833 " />
			<path d="M1.1567496744791668,-0.09112508138020833 L1.1279996744791667,-0.09112508138020833 " />
			<path d="M1.1279996744791667,-0.09112508138020833 L1.0782503255208333,-0.015124918619791664 " />
			<path d="M1.0782503255208333,-0.015124918619791662 L1.0282503255208333,-0.09112508138020833 " />
			<path d="M1.0282503255208333,-0.09112508138020833 L1.0,-0.09112508138020833 " />
			<path d="M1.0,-0.09112508138020833 L1.0645003255208334,0.002375081380208338 " />
			<path d="M1.0645003255208334,0.0023750813802083407 L1.0039998372395833,0.09112508138020833 " />
			<path d="M1.0039998372395833,0.09112508138020833 L1.0322501627604166,0.09112508138020833 " />
			<path d="M1.0322501627604166,0.09112508138020833 L1.0789998372395833,0.01962524414062501 " />
			<path d="M1.0789998372395833,0.019625244140625015 L1.1260001627604166,0.09112508138020833 " />
			<path d="M1.1260001627604166,0.09112508138020833 L1.1537499999999998,0.09112508138020833 " />
			<path d="M-0.09112508138020832,1.1620003255208333 L0.019625244140624998,1.0935001627604166 " />
			<path d="M0.019625244140625005,1.0935001627604166 L0.09112508138020833,1.0935001627604166 " />
			<path d="M0.09112508138020835,1.0935001627604166 L0.09112508138020835,1.0702498372395832 " />
			<path d="M0.09112508138020835,1.0702498372395834 L0.01962524414062501,1.0702498372395834 " />
			<path d="M0.019625244140625,1.0702498372395834 L-0.09112508138020835,1.0000000000000002 " />
			<path d="M-0.09112508138020833,1.0 L-0.09112508138020833,1.02875 " />
			<path d="M-0.09112508138020833,1.02875 L-0.0023750813802083243,1.0822501627604166 " />
			<path d="M-0.0023750813802083316,1.0822501627604166 L-0.09112508138020832,1.1342496744791666 " />
			<path d="M-0.09112508138020832,1.1342496744791668 L-0.09112508138020832,1.1620003255208335 " />
			<path d="M-6.924979976026999e-18,-0.062374674479166656 L7.646697222178182e-18,0.06887532552083335 " />
			<path d="M7.64669722217818e-18,0.06887532552083334 L-4.454806026380859e-18,-0.040125325520833366 " />
			<path d="M-4.454806026380858e-18,-0.040125325520833345 L7.702172233337026e-18,0.06937500000000002 " />
			<path d="M7.702172233337024e-18,0.069375 L0.0,0.0 " />
			<path d="M0.0,0.0 L-7.702172233337024e-18,-0.069375 " />
			<path d="M-7.702172233337024e-18,-0.069375 L4.454806026380857e-18,0.040125325520833366 " />
			<path d="M4.454806026380856e-18,0.040125325520833345 L-6.9249799760269996e-18,-0.06237467447916666 " />

        </g>
        </g>
    </svg>
    