<?xml version="1.0" encoding="UTF-8" standalone="no"?>
    <svg
    xmlns:svg="http://www.w3.org/2000/svg"
    xmlns="http://www.w3.org/2000/svg"
    width="117"
    height="121"
    >
        <g transform="scale(50, -50)   translate(1.3110289454553619,-0.8491921521866748)" stroke-width="0.02"  fill="none">
        <!-- hidden lines -->
        <g  stroke="rgb(160,160,160)" fill="none" stroke-dasharray="0.02,0.02" >
    
        </g>

        <!-- solid lines -->
        <g  stroke="rgb(0,0,0)" fill="none">
    			<path d="M-0.3642142466134064,-0.36729332727156017 L-0.36300693818717633,-0.3041211658632077 L-0.3593879214202329,-0.2442347019951221 L-0.35336591484095603,-0.18777820740419449 L-0.34495542599066065,-0.1348876907309 L-0.3341767164736589,-0.08569056986256696 L-0.3210557531452807,-0.04030536497252535 L-0.3056241455554449,0.001158587005370304 L-0.2879190697984845,0.03860139577899169 L-0.26798317895267965,0.07193285834240037 L-0.2458645003252553,0.10107267628278982 L-0.22161631975039275,0.1259506492263951 L-0.19529705321898594,0.1465068439573427 L-0.1669701061494051,0.1626917388020146 L-0.13670372063828873,0.17446634293110064 L-0.10457081105935495,0.18180229029192096 L-0.07064878840628996,0.18468190794473016 L-0.035019373802883225,0.1830982586383778 L0.002231598370317611,0.17705515752275391 L0.041014387258547225,0.16656716295775986 L0.08123556172640312,0.15165954144094163 L0.12279822544163321,0.13236820673828786 L0.16560225030688813,0.1087396333648174 L0.20954451767707777,0.08083074462340623 L0.25451916678122016,0.04870877547156116 L0.30041784975030844,0.012451110546522592 L0.34712999263681954,-0.02785490226110854 L0.3945430617970402,-0.07211216223608963 L0.44254283499446895,-0.12021404976266226 L0.4910136765711897,-0.17204468318054777 L0.5398388160243,-0.22747919795401494 L0.5889006293162797,-0.2863840474814847 L0.6380809222415926,-0.34861732482097785 " />
			<path d="M-0.8653618310409106,-0.3766313284968443 L-0.3642142466134064,-1.0269834127590556 " />
			<path d="M-0.8653618310409106,-0.3766313284968443 L-0.8653618310409106,0.2830587569906519 " />
			<path d="M-0.8653618310409106,-0.3766313284968443 L0.0,0.0 " />
			<path d="M-0.3642142466134064,-1.0269834127590556 L-0.3732192422710881,-1.0134076615209162 L-0.3798751086267659,-0.9997881384020335 L-0.38927162583478164,-0.9724761390296952 " />
			<path d="M-0.3642142466134064,-1.0269834127590556 L-0.3732192422710881,-1.0171871359690217 L-0.3798751086267659,-1.0135316818496896 L-0.38927162583478164,-1.016455478062195 " />
			<path d="M-0.8653618310409106,0.2830587569906519 L-0.8667974100588018,0.2730679385084246 L-0.870582118378697,0.269217942696899 L-0.8759329128999283,0.26946182866584134 L-0.8820667505218274,0.27175265552501743 " />
			<path d="M-0.8653618310409106,0.2830587569906519 L-0.8639262520230193,0.2693419630256723 L-0.8601415437031241,0.2556689409414363 L-0.8486569115599938,0.2283958499075368 " />
			<path d="M0.0,0.0 L-0.015549470401516382,-0.00487785695987494 L-0.02704255722002847,-0.00489795729169829 L-0.043268091552045564,0.0031581030914076096 " />
			<path d="M0.0,0.0 L-0.015549470401516382,-0.008657331407980386 L-0.02704255722002847,-0.018641500739354458 L-0.043268091552045564,-0.040821235941092056 " />
			<path d="M-0.2871628055076776,-1.066860732988606 L-0.31798330038297945,-1.0854116807450715 " />
			<path d="M-0.3179833003829795,-1.0854116807450713 L-0.28565952588837445,-1.1890402029897693 " />
			<path d="M-0.2856595258883744,-1.1890402029897695 L-0.30006751894066513,-1.170342580567231 " />
			<path d="M-0.3000675189406652,-1.170342580567231 L-0.3249992849979749,-1.0878514339130079 " />
			<path d="M-0.3249992849979749,-1.0878514339130079 L-0.3500566642193501,-1.1054703835683801 " />
			<path d="M-0.3500566642193501,-1.1054703835683803 L-0.3642142466134064,-1.0870977254848204 " />
			<path d="M-0.3642142466134064,-1.0870977254848204 L-0.3318900642838531,-1.0673645162583714 " />
			<path d="M-0.33189006428385304,-1.0673645162583714 L-0.362209737842686,-0.9694704025187637 " />
			<path d="M-0.36220973784268606,-0.9694704025187635 L-0.3480521554486298,-0.9878430606023234 " />
			<path d="M-0.3480521554486298,-0.9878430606023234 L-0.3246236690106233,-1.0654145425793522 " />
			<path d="M-0.32462366901062323,-1.0654145425793522 L-0.30106956940855123,-1.0488135685019058 " />
			<path d="M-0.30106956940855123,-1.0488135685019058 L-0.28716280550767764,-1.066860732988606 " />
			<path d="M-0.9110289454553617,0.4491921521866747 L-0.8555266873460363,0.33197656892415567 " />
			<path d="M-0.8555266873460363,0.3319765689241558 L-0.8196947166264594,0.28547650075098385 " />
			<path d="M-0.8196947166264594,0.2854765007509838 L-0.8196947166264594,0.27013849152053315 " />
			<path d="M-0.8196947166264594,0.2701384915205332 L-0.8555266873460363,0.31663855969370513 " />
			<path d="M-0.8555266873460363,0.3166385596937052 L-0.9110289454553617,0.34232214359483415 " />
			<path d="M-0.9110289454553617,0.342322143594834 L-0.9110289454553617,0.3612882335525995 " />
			<path d="M-0.9110289454553617,0.3612882335525995 L-0.8665520973374208,0.33886301301934246 " />
			<path d="M-0.8665520973374208,0.33886301301934246 L-0.9110289454553617,0.430885322828664 " />
			<path d="M-0.9110289454553617,0.43088532282866404 L-0.9110289454553617,0.4491921521866748 " />
			<path d="M0.15771233455385825,0.02749316657980566 L0.15771233455385825,0.11407749030003952 " />
			<path d="M0.15771233455385825,0.11407749030003955 L0.13953959525534693,0.10616817110093386 " />
			<path d="M0.13953959525534665,0.1061681711009338 L0.01773963584303409,-0.018749459790210796 " />
			<path d="M0.017739635843034174,-0.018749459790210754 L0.01773963584303417,0.05348681931353645 " />
			<path d="M0.017739635843034174,0.05348681931353644 L-1.1796119636642288e-16,0.045765999680695044 " />
			<path d="M0.0,0.04576599968069506 L2.805240857251542e-18,1.3877787807814457e-17 " />
			<path d="M2.805240857251542e-18,1.3877787807814457e-17 L5.610481714503084e-18,-0.04576599968069503 " />
			<path d="M0.0,-0.04576599968069506 L0.017739635843034292,-0.03804518004785366 " />
			<path d="M0.017739635843034396,-0.03804518004785362 L0.13997199447756303,0.08739027420607287 " />
			<path d="M0.1399719944775628,0.08739027420607276 L0.1399719944775628,0.019772040443604408 " />
			<path d="M0.1399719944775628,0.01977204044360442 L0.15771233455385802,0.027493166579805592 " />

        </g>
        </g>
    </svg>
    