<?xml version="1.0" encoding="UTF-8" standalone="no"?>
    <svg
    xmlns:svg="http://www.w3.org/2000/svg"
    xmlns="http://www.w3.org/2000/svg"
    width="240"
    height="140"
    >
        <g transform="scale(100, -100)   translate(1.2,-0.7)" stroke-width="0.01"  fill="none">
        <!-- hidden lines -->
        <g  stroke="rgb(160,160,160)" fill="none" stroke-dasharray="0.01,0.01" >
    
        </g>

        <!-- solid lines -->
        <g  stroke="rgb(0,0,0)" fill="none">
    			<path d="M-1.0,-0.25000000000000006 L-1.0,0.24999999999999994 " />
			<path d="M-0.75,0.49999999999999994 L-0.7934120444167325,0.4962019382530519 L-0.8355050358314172,0.48492315519647705 L-0.875,0.4665063509461096 L-0.9106969024216347,0.44151111077974453 L-0.9415111107797445,0.4106969024216349 L-0.9665063509461096,0.3750000000000001 L-0.984923155196477,0.3355050358314174 L-0.9962019382530519,0.29341204441673285 L-1.0,0.25000000000000033 " />
			<path d="M-1.0,-0.25 L-0.996201938253052,-0.2934120444167326 L-0.9849231551964771,-0.3355050358314171 L-0.9665063509461098,-0.3749999999999999 L-0.9415111107797447,-0.4106969024216347 L-0.910696902421635,-0.44151111077974436 L-0.8750000000000003,-0.46650635094610954 L-0.8355050358314176,-0.484923155196477 L-0.793412044416733,-0.49620193825305203 L-0.7500000000000004,-0.5 " />
			<path d="M-0.75,-0.5 L0.75,-0.5 " />
			<path d="M0.75,-0.5 L0.7934120444167325,-0.4962019382530521 L0.835505035831417,-0.4849231551964772 L0.8749999999999998,-0.4665063509461098 L0.9106969024216347,-0.4415111107797447 L0.9415111107797443,-0.41069690242163515 L0.9665063509461095,-0.37500000000000033 L0.984923155196477,-0.3355050358314176 L0.9962019382530519,-0.2934120444167331 L1.0,-0.25000000000000056 " />
			<path d="M1.0,-0.25000000000000006 L1.0,0.24999999999999994 " />
			<path d="M1.0,0.24999999999999994 L0.996201938253052,0.2934120444167325 L0.9849231551964771,0.3355050358314171 L0.9665063509461097,0.37499999999999994 L0.9415111107797445,0.41069690242163476 L0.9106969024216348,0.4415111107797445 L0.875,0.4665063509461096 L0.8355050358314172,0.484923155196477 L0.7934120444167326,0.4962019382530519 L0.75,0.49999999999999994 " />
			<path d="M-0.75,0.49999999999999994 L0.75,0.49999999999999994 " />

        </g>
        </g>
    </svg>
    