<?xml version="1.0" encoding="UTF-8" standalone="no"?>
    <svg
    xmlns:svg="http://www.w3.org/2000/svg"
    xmlns="http://www.w3.org/2000/svg"
    width="109"
    height="128"
    >
        <g transform="scale(50, -50)   translate(1.3351795662841852,-1.1216797353258479)" stroke-width="0.02"  fill="none">
        <!-- hidden lines -->
        <g  stroke="rgb(160,160,160)" fill="none" stroke-dasharray="0.02,0.02" >
    
        </g>

        <!-- solid lines -->
        <g  stroke="rgb(0,0,0)" fill="none">
    			<path d="M-0.4472135954999579,0.014547787907308263 L-0.4450601398017161,0.09109887490196722 L-0.4386205116625632,0.16182522811996236 L-0.42795672822173814,0.22604571411684748 L-0.41317148754319305,0.28314185450598384 L-0.39440717957709703,0.3325637822434989 L-0.37184451486677755,0.3738355371485068 L-0.35920532808610495,0.3912877145037169 L-0.34570078420740225,0.4065596496598357 L-0.3313634168597315,0.41961455118740865 L-0.31622776601683816,0.43042096868518165 L-0.3003302947873293,0.4389528685468722 L-0.2837093015718508,0.44518969667840713 L-0.2664048277988858,0.4491164280145361 L-0.24845856146144593,0.45072360271552947 L-0.22991373668704576,0.4500073489567604 L-0.21081502958290177,0.4469693922562703 L-0.19120845060727693,0.4416170513178441 L-0.1711412337262569,0.43396322039961255 L-0.1298192542335132,0.4118303436904326 L-0.08724704435607736,0.3807839138305007 L-0.0438345977474065,0.341122924911073 L8.326672684688674e-17,0.2932293339363463 L0.04383459774740667,0.23756438236870647 L0.0872470443560775,0.17466415412130742 L0.1298192542335134,0.10513441277693436 L0.17114123372625697,0.0296447677535574 L0.210815029582902,-0.0510777744004115 L0.24845856146144574,-0.13625581147659932 L0.28370930157185037,-0.22506903241491083 L0.31622776601683805,-0.3166621173474659 L0.3457007842074023,-0.4101529747964898 L0.37184451486677744,-0.5046412366974462 L0.3944071795770968,-0.5992169294356917 L0.41317148754319283,-0.6929692373898243 L0.42795672822173814,-0.7849952745840225 L0.4386205116625632,-0.874408779973554 L0.4450601398017161,-0.9603486526231251 L0.447213595499958,-1.041987244579593 " />
			<path d="M-0.8944271909999159,-0.26413375812172896 L-0.44721359549995787,-0.7924012743651869 " />
			<path d="M-0.8944271909999159,-0.26413375812172896 L-0.8944271909999159,0.5428153041507666 " />
			<path d="M-0.8944271909999159,-0.26413375812172896 L0.0,0.0 " />
			<path d="M-0.4472135954999579,-0.7924012743651869 L-0.4552494647940978,-0.7805973945980526 L-0.4611890203593316,-0.767487195083907 L-0.4695742752749558,-0.7390895964772641 " />
			<path d="M-0.4472135954999579,-0.7924012743651869 L-0.4552494647940978,-0.785220540267322 L-0.4611890203593316,-0.7842986338812507 L-0.46573103343862804,-0.7875492793030416 L-0.4695742752749558,-0.7928862006287638 " />
			<path d="M-0.8944271909999159,0.5428153041507666 L-0.8957082716120252,0.5298287045106301 L-0.8990856659530404,0.5231009325822872 L-0.9038606027799931,0.5205457124618065 L-0.9093343108499145,0.520076768245257 " />
			<path d="M-0.8944271909999159,0.5428153041507666 L-0.8931461103878066,0.5268021718654853 L-0.8897687160467913,0.5120953593272151 L-0.8795200711499173,0.48485893382902645 " />
			<path d="M0.0,0.0 L-0.01607173858827974,-0.0024345806316150693 L-0.027950849718747374,0.00015153945736779556 L-0.037034875877340265,0.006084793360082598 L-0.044721359549995766,0.013691614169663325 " />
			<path d="M0.0,0.0 L-0.01607173858827974,-0.007057726300884573 L-0.027950849718747374,-0.016659899339975855 L-0.044721359549995766,-0.04010498998183627 " />
			<path d="M-0.3784545051918393,-0.8000891060183546 L-0.4059580685264156,-0.8392174690271069 " />
			<path d="M-0.4059580685264157,-0.8392174690271068 L-0.3771130099826818,-0.9487403345435307 " />
			<path d="M-0.3771130099826817,-0.9487403345435308 L-0.38997040085330553,-0.9335526434515313 " />
			<path d="M-0.3899704008533056,-0.9335526434515313 L-0.41221898607474394,-0.8459434183705082 " />
			<path d="M-0.41221898607474394,-0.8459434183705083 L-0.43457966584974184,-0.8808583026304108 " />
			<path d="M-0.43457966584974184,-0.8808583026304107 L-0.4472135954999579,-0.8659345733344509 " />
			<path d="M-0.4472135954999579,-0.8659345733344508 L-0.4183681730128683,-0.824558131432392 " />
			<path d="M-0.4183681730128683,-0.824558131432392 L-0.4454248139066292,-0.7209809594798556 " />
			<path d="M-0.44542481390662925,-0.7209809594798557 L-0.43279088425641316,-0.7359046887758155 " />
			<path d="M-0.43279088425641316,-0.7359046887758154 L-0.4118837942441324,-0.8182977498112327 " />
			<path d="M-0.4118837942441324,-0.8182977498112329 L-0.39086460967829206,-0.7854297684236398 " />
			<path d="M-0.3908646096782922,-0.7854297684236395 L-0.3784545051918395,-0.8000891060183545 " />
			<path d="M-0.9351795662841851,0.7216797353258477 L-0.8856505150052225,0.607897793834771 " />
			<path d="M-0.8856505150052225,0.6078977938347709 L-0.8536748157156466,0.5701267524044047 " />
			<path d="M-0.8536748157156466,0.5701267524044049 L-0.8536748157156466,0.5513649240278382 " />
			<path d="M-0.8536748157156466,0.5513649240278382 L-0.8856505150052225,0.5891359654582045 " />
			<path d="M-0.8856505150052225,0.5891359654582045 L-0.9351795662841852,0.5909537245589723 " />
			<path d="M-0.9351795662841851,0.5909537245589722 L-0.9351795662841851,0.6141535100993064 " />
			<path d="M-0.9351795662841851,0.6141535100993065 L-0.8954893596835638,0.6104416742036437 " />
			<path d="M-0.8954893596835638,0.6104416742036436 L-0.9351795662841851,0.6992863734903234 " />
			<path d="M-0.9351795662841851,0.6992863734903236 L-0.9351795662841851,0.7216797353258478 " />
			<path d="M0.16300950113707702,-0.0021947646723100567 L0.16300950113707702,0.10371729975095496 " />
			<path d="M0.16300950113707702,0.103717299750955 L0.1442263845487365,0.09817044783987817 " />
			<path d="M0.14422638454873626,0.0981704478398781 L0.018335466260813532,-0.02696443774196075 " />
			<path d="M0.018335466260813615,-0.026964437741960723 L0.01833546626081361,0.06139674725560876 " />
			<path d="M0.018335466260813615,0.061396747255608786 L-9.020562075079397e-17,0.0559820911951544 " />
			<path d="M0.0,0.05598209119515435 L3.4445161376305915e-18,-2.7755575615628914e-17 " />
			<path d="M3.4445161376305915e-18,-2.7755575615628914e-17 L6.889032275261183e-18,-0.055982091195154404 " />
			<path d="M0.0,-0.055982091195154376 L0.018335466260813706,-0.05056743513469999 " />
			<path d="M0.018335466260813837,-0.05056743513469994 L0.14467330698955197,0.0751026431975638 " />
			<path d="M0.14467330698955172,0.07510264319756371 L0.14467330698955172,-0.007609635685367072 " />
			<path d="M0.14467330698955172,-0.0076096356853671 L0.16300950113707682,-0.0021947646723100766 " />

        </g>
        </g>
    </svg>
    