<?xml version='1.0' encoding='utf-8'?>
<svg width="120.54mm" height="84.559296mm" viewBox="-10.045 -7.126368 20.09 14.093216" version="1.1" xmlns="http://www.w3.org/2000/svg">
  <g transform="scale(1,-1)" stroke-linecap="round">
    <g fill="none" stroke="rgb(0,0,0)" stroke-width="0.09" id="Visible">
      <path d="M -7.071068,5.389247 A 10.0,5.777262004900113 0.0 0,1 -10.0,1.304106" />
      <path d="M -10.0,1.304106 A 10.0,5.777262004900113 0.0 0,1 10.0,1.304106" />
      <path d="M 10.0,1.304106 A 10.0,5.777262004900113 0.0 0,1 -7.071068,5.389247" />
      <path d="M -10.0,-1.144586 A 10.0,5.777262004900113 0.0 0,1 10.0,-1.144586" />
      <line x1="-4.949747" y1="4.163705" x2="-6.761481" y2="0.25742" />
      <line x1="-6.761481" y1="0.25742" x2="-1.811733" y2="-2.602179" />
      <line x1="-1.811733" y1="-2.602179" x2="4.949747" y2="-1.555493" />
      <line x1="4.949747" y1="-1.555493" x2="6.761481" y2="2.350792" />
      <line x1="6.761481" y1="2.350792" x2="1.811733" y2="5.210391" />
      <line x1="1.811733" y1="5.210391" x2="-4.949747" y2="4.163705" />
      <line x1="-4.949747" y1="4.163705" x2="-4.949747" y2="2.531244" />
      <line x1="-4.949747" y1="2.531244" x2="-6.164347" y2="-0.087559" />
      <line x1="1.811733" y1="5.210391" x2="1.811733" y2="3.577929" />
      <line x1="6.164347" y1="1.06331" x2="1.811733" y2="3.577929" />
      <line x1="1.811733" y1="3.577929" x2="1.273937" y2="3.494678" />
      <line x1="-2.999118" y1="2.833203" x2="-4.949747" y2="2.531244" />
      <path d="M -4.0,-0.328355 A 4.0,2.310904801960045 0.0 0,1 -1.273937,-2.518927" />
      <path d="M 2.999118,-1.857453 A 4.0,2.310904801960045 0.0 0,1 4.0,-0.328355" />
      <path d="M -2.828427,2.938162 A 4.0,2.310904801960045 0.0 0,1 -4.0,1.304106" />
      <path d="M -4.0,1.304106 A 4.0,2.310904801960045 0.0 0,1 4.0,1.304106" />
      <path d="M 4.0,1.304106 A 4.0,2.310904801960045 0.0 0,1 -2.828427,2.938162" />
      <line x1="10.0" y1="-1.144586" x2="10.0" y2="1.304106" />
      <line x1="-10.0" y1="-1.144586" x2="-10.0" y2="1.304106" />
      <line x1="4.0" y1="-0.328355" x2="4.0" y2="1.304106" />
      <line x1="-4.0" y1="-0.328355" x2="-4.0" y2="1.304106" />
    </g>
    <g fill="none" stroke="rgb(99,99,99)" stroke-width="0.09" id="Hidden" stroke-dasharray="0.0 0.27">
      <path d="M -7.071068,2.940555 A 10.0,5.777262004900113 0.0 0,1 -10.0,-1.144586" />
      <path d="M 10.0,-1.144586 A 10.0,5.777262004900113 0.0 0,1 -7.071068,2.940555" />
      <line x1="-6.761481" y1="0.25742" x2="-6.761481" y2="-1.375041" />
      <line x1="-6.164347" y1="-0.087559" x2="-6.761481" y2="-1.375041" />
      <line x1="-1.811733" y1="-2.602179" x2="-1.811733" y2="-4.23464" />
      <line x1="-6.761481" y1="-1.375041" x2="-1.811733" y2="-4.23464" />
      <line x1="4.949747" y1="-1.555493" x2="4.949747" y2="-3.187954" />
      <line x1="-1.811733" y1="-4.23464" x2="4.949747" y2="-3.187954" />
      <line x1="6.761481" y1="2.350792" x2="6.761481" y2="0.718331" />
      <line x1="4.949747" y1="-3.187954" x2="6.761481" y2="0.718331" />
      <line x1="6.761481" y1="0.718331" x2="6.164347" y2="1.06331" />
      <line x1="1.273937" y1="3.494678" x2="-2.999118" y2="2.833203" />
      <path d="M -2.828427,1.305701 A 4.0,2.310904801960045 0.0 0,1 -4.0,-0.328355" />
      <path d="M -1.273937,-2.518927 A 4.0,2.310904801960045 0.0 0,1 2.999118,-1.857453" />
      <path d="M 4.0,-0.328355 A 4.0,2.310904801960045 0.0 0,1 -2.828427,1.305701" />
    </g>
  </g>
</svg>