<?xml version='1.0' encoding='utf-8'?>
<svg width="120.54mm" height="82.204488mm" viewBox="-10.045 -6.752137 20.09 13.700748" version="1.1" xmlns="http://www.w3.org/2000/svg">
  <g transform="scale(1,-1)" stroke-linecap="round">
    <g fill="none" stroke="rgb(0,0,0)" stroke-width="0.09" id="Visible">
      <path d="M -10.0,-1.125452 A 10.0,5.778159189400185 0.0 0,1 10.0,-1.125452" />
      <line x1="-4.949747" y1="4.183093" x2="-6.761481" y2="0.276201" />
      <line x1="-6.761481" y1="0.276201" x2="-1.811733" y2="-2.583841" />
      <line x1="-1.811733" y1="-2.583841" x2="4.949747" y2="-1.536993" />
      <line x1="4.949747" y1="-1.536993" x2="6.761481" y2="2.369898" />
      <line x1="6.761481" y1="2.369898" x2="1.811733" y2="5.229941" />
      <line x1="1.811733" y1="5.229941" x2="-4.949747" y2="4.183093" />
      <line x1="-4.949747" y1="4.183093" x2="-4.949747" y2="2.550758" />
      <line x1="-4.949747" y1="2.550758" x2="-6.164486" y2="-0.068751" />
      <line x1="1.811733" y1="5.229941" x2="1.811733" y2="3.597607" />
      <line x1="6.164486" y1="1.082517" x2="1.811733" y2="3.597607" />
      <line x1="1.811733" y1="3.597607" x2="1.272846" y2="3.514173" />
      <line x1="-2.998356" y1="2.852883" x2="-4.949747" y2="2.550758" />
      <path d="M -4.0,-0.309284 A 4.0,2.311263675760074 0.0 0,1 -1.272846,-2.500408" />
      <path d="M 2.998356,-1.839118 A 4.0,2.311263675760074 0.0 0,1 4.0,-0.309284" />
      <path d="M -2.828427,2.95736 A 4.0,2.311263675760074 0.0 0,1 -4.0,1.32305" />
      <path d="M -4.0,1.32305 A 4.0,2.311263675760074 0.0 0,1 4.0,1.32305" />
      <path d="M 4.0,1.32305 A 4.0,2.311263675760074 0.0 0,1 -2.828427,2.95736" />
      <path d="M -10.0,0.506883 A 10.0,5.778159189400185 0.0 0,1 10.0,0.506883" />
      <path d="M -6.363961,5.000248 A 9.0,5.200343270460166 0.0 0,1 6.363961,-2.354148 A 9.0,5.200343270460166 0.0 0,1 -6.363961,5.000248" />
      <line x1="10.0" y1="-1.125452" x2="10.0" y2="0.506883" />
      <line x1="-10.0" y1="-1.125452" x2="-10.0" y2="0.506883" />
      <path d="M -6.864263,5.049931 C -7.993031,4.398068 -8.883911,3.571332 -9.424723,2.615415 C -9.79882,1.956359 -10.000912,1.233748 -10.0,0.506883" />
      <path d="M 10.0,0.506883 C 10.000931,1.238397 9.796214,1.965534 9.417564,2.628023 C 9.274781,2.878212 9.108904,3.119274 8.919935,3.351211 C 8.397203,3.993503 7.706175,4.560206 6.88868,5.035754 C 5.78391,5.679175 4.443681,6.1554 2.995853,6.429834 C 1.311526,6.751405 -0.518672,6.793754 -2.239479,6.553923 C -3.961763,6.316189 -5.574655,5.796276 -6.864263,5.049931" />
      <line x1="4.0" y1="-0.309284" x2="4.0" y2="1.32305" />
      <line x1="-4.0" y1="-0.309284" x2="-4.0" y2="1.32305" />
    </g>
    <g fill="none" stroke="rgb(99,99,99)" stroke-width="0.09" id="Hidden" stroke-dasharray="0.0 0.27">
      <path d="M -7.071068,2.960324 A 10.0,5.778159189400185 0.0 0,1 -10.0,-1.125452" />
      <path d="M 10.0,-1.125452 A 10.0,5.778159189400185 0.0 0,1 -7.071068,2.960324" />
      <line x1="-6.761481" y1="0.276201" x2="-6.761481" y2="-1.356133" />
      <line x1="-6.164486" y1="-0.068751" x2="-6.761481" y2="-1.356133" />
      <line x1="-1.811733" y1="-2.583841" x2="-1.811733" y2="-4.216176" />
      <line x1="-6.761481" y1="-1.356133" x2="-1.811733" y2="-4.216176" />
      <line x1="4.949747" y1="-1.536993" x2="4.949747" y2="-3.169327" />
      <line x1="-1.811733" y1="-4.216176" x2="4.949747" y2="-3.169327" />
      <line x1="6.761481" y1="2.369898" x2="6.761481" y2="0.737564" />
      <line x1="4.949747" y1="-3.169327" x2="6.761481" y2="0.737564" />
      <line x1="6.761481" y1="0.737564" x2="6.164486" y2="1.082517" />
      <line x1="1.272846" y1="3.514173" x2="-2.998356" y2="2.852883" />
      <path d="M -2.828427,1.325026 A 4.0,2.311263675760074 0.0 0,1 -4.0,-0.309284" />
      <path d="M -1.272846,-2.500408 A 4.0,2.311263675760074 0.0 0,1 2.998356,-1.839118" />
      <path d="M 4.0,-0.309284 A 4.0,2.311263675760074 0.0 0,1 -2.828427,1.325026" />
    </g>
  </g>
</svg>