<?xml version="1.0" encoding="UTF-8" standalone="no"?>
    <svg
    xmlns:svg="http://www.w3.org/2000/svg"
    xmlns="http://www.w3.org/2000/svg"
    width="140"
    height="65"
    >
        <g transform="scale(100, -100)   translate(0.7,-0.325)" stroke-width="0.01"  fill="none">
        <!-- hidden lines -->
        <g  stroke="rgb(160,160,160)" fill="none" stroke-dasharray="0.01,0.01" >
    
        </g>

        <!-- solid lines -->
        <g  stroke="rgb(0,0,0)" fill="none">
    			<path d="M0.375,0.125 L0.4049144580359447,0.1213677271782565 L0.43309039650547104,0.11068200320665124 L0.45789033228009934,0.09356384352138766 L0.477872983236707,0.07100809334139452 L0.4918770303356768,0.044325610880317036 L0.49908860926225673,0.015067085031915494 L0.49908860926225673,-0.015067085031915242 L0.4918770303356769,-0.0443256108803168 L0.4778729832367071,-0.07100809334139431 L0.45789033228009957,-0.0935638435213875 L0.4330903965054712,-0.11068200320665114 L0.40491445803594495,-0.12136772717825645 L0.3750000000000002,-0.125 " />
			<path d="M-0.375,-0.125 L0.375,-0.125 " />
			<path d="M-0.375,-0.125 L-0.4049144580359447,-0.1213677271782565 L-0.43309039650547104,-0.11068200320665124 L-0.45789033228009934,-0.09356384352138766 L-0.477872983236707,-0.07100809334139452 L-0.4918770303356768,-0.044325610880317036 L-0.49908860926225673,-0.015067085031915494 L-0.49908860926225673,0.015067085031915242 L-0.4918770303356769,0.0443256108803168 L-0.4778729832367071,0.07100809334139431 L-0.45789033228009957,0.0935638435213875 L-0.4330903965054712,0.11068200320665114 L-0.40491445803594495,0.12136772717825645 L-0.3750000000000002,0.125 " />
			<path d="M0.375,0.125 L-0.375,0.125 " />

        </g>
        </g>
    </svg>
    