<?xml version="1.0" encoding="UTF-8" standalone="no"?>
    <svg
    xmlns:svg="http://www.w3.org/2000/svg"
    xmlns="http://www.w3.org/2000/svg"
    width="165"
    height="65"
    >
        <g transform="scale(100, -100)   translate(0.825,-0.325)" stroke-width="0.01"  fill="none">
        <!-- hidden lines -->
        <g  stroke="rgb(160,160,160)" fill="none" stroke-dasharray="0.01,0.01" >
    
        </g>

        <!-- solid lines -->
        <g  stroke="rgb(0,0,0)" fill="none">
    			<path d="M0.5,0.125 L0.5299144580359447,0.1213677271782565 L0.5580903965054711,0.11068200320665124 L0.5828903322800993,0.09356384352138766 L0.602872983236707,0.07100809334139452 L0.6168770303356769,0.04432561088031704 L0.6240886092622567,0.015067085031915499 L0.6240886092622567,-0.015067085031915237 L0.6168770303356769,-0.04432561088031679 L0.6028729832367071,-0.07100809334139431 L0.5828903322800996,-0.0935638435213875 L0.5580903965054712,-0.11068200320665114 L0.529914458035945,-0.12136772717825645 L0.5000000000000002,-0.125 " />
			<path d="M-0.5,-0.125 L0.5,-0.125 " />
			<path d="M-0.5,-0.125 L-0.5299144580359447,-0.1213677271782565 L-0.5580903965054711,-0.11068200320665124 L-0.5828903322800993,-0.09356384352138766 L-0.602872983236707,-0.07100809334139452 L-0.6168770303356769,-0.04432561088031703 L-0.6240886092622567,-0.015067085031915489 L-0.6240886092622567,0.015067085031915247 L-0.6168770303356769,0.04432561088031681 L-0.6028729832367071,0.07100809334139431 L-0.5828903322800996,0.0935638435213875 L-0.5580903965054712,0.11068200320665114 L-0.529914458035945,0.12136772717825645 L-0.5000000000000002,0.125 " />
			<path d="M0.5,0.125 L-0.5,0.125 " />

        </g>
        </g>
    </svg>
    