<?xml version="1.0" encoding="UTF-8" standalone="no"?>
    <svg
    xmlns:svg="http://www.w3.org/2000/svg"
    xmlns="http://www.w3.org/2000/svg"
    width="264"
    height="65"
    >
        <g transform="scale(100, -100)   translate(1.3227008841104568,-0.325)" stroke-width="0.01"  fill="none">
        <!-- hidden lines -->
        <g  stroke="rgb(160,160,160)" fill="none" stroke-dasharray="0.01,0.01" >
    
        </g>

        <!-- solid lines -->
        <g  stroke="rgb(0,0,0)" fill="none">
    			<path d="M-0.997700884143494,-0.125 L-1.022087174389065,-0.1225981600504038 L-1.0455363131764874,-0.11548494156391084 L-1.06714716325259,-0.10393370153781815 L-1.0860892317684516,-0.08838834764831843 L-1.1016345856538428,-0.06944627912745027 L-1.1131858256768825,-0.047835429045636216 L-1.1202990441614955,-0.024386290252016034 L-1.1227008841104569,-2.0698591755719527e-18 L-1.1202990441614955,0.02438629025201603 L-1.1131858256768825,0.04783542904563622 L-1.1016345856538428,0.06944627912745024 L-1.0860892317684516,0.08838834764831843 L-1.06714716325259,0.10393370153781817 L-1.0455363131764874,0.11548494156391084 L-1.022087174389065,0.1225981600504038 L-0.9977008841434946,0.125 " />
			<path d="M-0.997700884143494,-0.125 L1.0022991153279128,-0.125 " />
			<path d="M1.0022991153279128,0.125 L-0.997700884143494,0.125 " />
			<path d="M1.0022991153279128,0.125 L1.0266854055734838,0.1225981600504038 L1.0501345443609063,0.11548494156391086 L1.0717453944370086,0.10393370153781817 L1.0906874629528704,0.08838834764831845 L1.1062328168382616,0.06944627912745027 L1.1177840568613013,0.04783542904563618 L1.1248972753459143,0.02438629025201607 L1.1272991152948757,1.3008101320922949e-17 L1.1248972753459143,-0.02438629025201605 L1.1177840568613013,-0.04783542904563615 L1.1062328168382618,-0.06944627912745024 L1.0906874629528704,-0.08838834764831843 L1.0717453944370088,-0.10393370153781817 L1.0501345443609063,-0.11548494156391086 L1.0266854055734838,-0.1225981600504038 L1.002299115327914,-0.125 " />
			<path d="M0.022299115586923456,-7.101918658386826e-18 L0.020776706237551564,0.0076536686473017805 L0.016441251212202624,0.014142135623730945 L0.00995278423748834,0.018477590650225733 L0.0022991155922093757,0.019999999999999997 L-0.005354553053069588,0.018477590650225723 L-0.01184302002778385,0.014142135623730942 L-0.016178475053132788,0.007653668647301791 L-0.017700884402504682,-1.2582198981311897e-17 L-0.016178475053132777,-0.007653668647301815 L-0.011843020027783827,-0.014142135623730972 L-0.005354553053069569,-0.01847759065022574 L0.0022991155922093966,-0.020000000000000004 L0.009952784237488362,-0.018477590650225733 L0.016441251212202614,-0.014142135623730958 L0.020776706237551557,-0.007653668647301799 L0.022299115586923456,-3.495083053410238e-16 " />
			<path d="M1.0222991153226269,-7.101918156048134e-18 L1.020776705973255,0.0076536686473017805 L1.0164412509479062,0.014142135623730945 L1.0099527839731919,0.018477590650225733 L1.0022991153279128,0.019999999999999997 L0.9946454466826339,0.018477590650225723 L0.9881569797079196,0.014142135623730942 L0.9838215246825707,0.007653668647301791 L0.9822991153331988,-1.2582198478973206e-17 L0.9838215246825707,-0.007653668647301815 L0.9881569797079196,-0.014142135623730972 L0.9946454466826339,-0.01847759065022574 L1.0022991153279128,-0.020000000000000004 L1.0099527839731919,-0.018477590650225733 L1.0164412509479062,-0.014142135623730958 L1.020776705973255,-0.007653668647301799 L1.0222991153226269,-3.4950830483868514e-16 " />

        </g>
        </g>
    </svg>
    