<?xml version="1.0" encoding="UTF-8" standalone="no"?>
    <svg
    xmlns:svg="http://www.w3.org/2000/svg"
    xmlns="http://www.w3.org/2000/svg"
    width="94"
    height="135"
    >
        <g transform="scale(100, -100)   translate(0.5085478042824711,-0.663183382644519)" stroke-width="0.01"  fill="none">
        <!-- hidden lines -->
        <g  stroke="rgb(160,160,160)" fill="none" stroke-dasharray="0.01,0.01" >
    
        </g>

        <!-- solid lines -->
        <g  stroke="rgb(0,0,0)" fill="none">
    			<path d="M-0.271937604022504,0.24979939108289975 L-0.28748234135202544,0.2687418414696882 L-0.299033123232723,0.2903529240256675 L-0.30614605959467467,0.313802136967846 L-0.3085478042824712,0.3381883401933257 L-0.30614605959467456,0.362574385588092 L-0.29903312323272285,0.38602313110347575 L-0.2874823413520252,0.4076334545995288 L-0.2719376040225037,0.4265748834635069 L-0.2529962867821427,0.442119509206643 L-0.23138629383007636,0.4536699605791549 L-0.20793808507642875,0.4607823602123647 L-0.1835527620336956,0.4631833825770479 L-0.15916743899096247,0.4607807577302386 L-0.13571923023731472,0.453666817197392 L-0.11410923728524822,0.4421149457236417 L-0.09516792004488807,0.42656907525136056 " />
			<path d="M-0.2719376040225042,0.24979939108289972 L-0.24232497741801517,0.21869428169495486 L-0.21427417800641846,0.18617361945675992 L-0.1878527826204559,0.15231574949212046 L-0.1631244427158537,0.11720223837538057 L-0.14014873102938852,0.08091767763040053 L-0.11898099806294782,0.0435494799421674 L-0.0996722387393223,0.005187668571979609 L-0.08226896955097007,-0.034075339516474235 L-0.06681311649771204,-0.0741449562976757 L-0.05334191408332667,-0.11492465055511492 L-0.04188781561436794,-0.1563161804334462 L-0.03247841501730819,-0.19821983011172323 L-0.025136380362351995,-0.24053465002754457 L-0.019879399254069008,-0.2831587000733923 L-0.01672013622040691,-0.3259892951792806 L-0.01566620220273196,-0.36892325269008003 " />
			<path d="M0.2343238822948196,-0.3689314667424739 L0.23192213760702302,-0.3933175121372403 L0.2248092012450714,-0.4167662576526242 L0.21325841936437379,-0.4383765811486774 L0.19771368203485226,-0.4573180100126555 L0.1787723647944913,-0.4728626357557916 L0.15716237184242482,-0.48441308712830355 L0.13371416308877712,-0.4915254867615134 L0.10932884004604387,-0.4939265091261966 L0.08494351700331061,-0.49152388427938726 L0.06149530824966289,-0.48440994374654067 L0.039885315297596424,-0.4728580722727903 L0.02094399805723543,-0.45731220180050824 L0.005399260727713934,-0.43836975141371975 L-0.006151521152983702,-0.4167586688577405 L-0.01326445751493538,-0.39330945591556205 L-0.015666202202731946,-0.3689232526900833 " />
			<path d="M0.23432388229481982,-0.36893146674247435 L0.23296882427209498,-0.31373066422858675 L0.22890691465738622,-0.2586627562353019 L0.222147938946737,-0.20386040617635454 L0.2127081801046503,-0.14945563771315565 L0.2006103793370021,-0.09557951669822806 L0.18588368130548372,-0.04236183542608751 L0.16856356391555993,0.010069200047762683 L0.14869175284708536,0.06158727876645026 L0.12631612103348966,0.11206828916589096 L0.10149057333168521,0.16139061807041788 L0.07427491666054731,0.20943544366957478 L0.04473471592080647,0.2560870217702633 L0.0129411360434607,0.30123296463464333 L-0.021029229452776632,0.34476451173203704 L-0.05709454298197281,0.3865767917525733 L-0.09516792004488528,0.426569075251358 " />
			<path d="M0.10432903835609286,-0.36892719543523006 L0.10313056481599403,-0.32010515232294734 L0.09953803142342965,-0.27140064703110867 L0.09356009290601086,-0.22293101297897322 L0.08521115064123197,-0.1748130177604107 L0.07451131796228971,-0.12716258184054144 L0.0614863717033024,-0.0800944992931818 L0.046167690100658465,-0.033722161251865224 L0.028592177200096547,0.01184271725932956 L0.008802173951627412,0.05649036645705707 L-0.013154643793524046,0.10011322624372776 L-0.0372253801382193,0.1426062053292041 L-0.06335204657025673,0.1838669344049243 L-0.09147170166177587,0.22379601276053152 L-0.1215166027006701,0.26229724774889274 L-0.15341436888871463,0.29927788652261156 L-0.18708815571324633,0.334648839483759 " />
			<path d="M-0.18708815571324797,0.33464883948376056 L-0.18855256372364645,0.3381843974481775 L-0.18708815571324774,0.3417198591789846 L-0.18355276203369558,0.34318419914352627 L-0.18001736835414334,0.341719626850499 " />
			<path d="M-0.1800173683541434,0.34171962685049895 L-0.14600515151127313,0.30599318692491617 L-0.11378680475852465,0.2686408834399038 L-0.08343994491521933,0.22975270136623216 L-0.055037680224790386,0.18942232574071938 L-0.0286484342306218,0.14774691597077094 L-0.004335780937738676,0.10482687176885735 L0.01784170834253973,0.060765591280813325 L0.03783060609601874,0.015669221990646354 L0.0555827573171892,-0.030353594998047906 L0.07105539551885476,-0.07719198668802074 L0.08421124576034456,-0.1247331152911329 L0.09501861444611026,-0.17286245006446818 L0.10345146567837438,-0.22146404322492583 L0.10948948397988778,-0.2704208092775855 L0.11311812323569381,-0.31961480708492007 L0.11432864173599488,-0.3689275239973241 " />
			<path d="M0.11432864173599484,-0.36892752399732587 L0.11286423372559623,-0.3724629857281333 L0.10932884004604382,-0.373927325692675 L0.1057934463664914,-0.3724627533996474 L0.1043290383560928,-0.3689271954352303 " />

        </g>
        </g>
    </svg>
    