<?xml version="1.0" encoding="UTF-8" standalone="no"?>
    <svg
    xmlns:svg="http://www.w3.org/2000/svg"
    xmlns="http://www.w3.org/2000/svg"
    width="240"
    height="166"
    >
        <g transform="scale(100, -100)   translate(1.2000000000000002,-0.8379136788948733)" stroke-width="0.01"  fill="none">
        <!-- hidden lines -->
        <g  stroke="rgb(160,160,160)" fill="none" stroke-dasharray="0.01,0.01" >
    			<path d="M0.44721359549995804,-0.12938551207489662 L0.3301805660533586,-0.1165096709961608 L0.2078164248942427,-0.10759892262825665 L0.08209686948392014,-0.10279714035404036 L-0.04494822603222441,-0.10218185398705903 L-0.17126758527284722,-0.10576299797135569 L-0.2948216496303211,-0.11348275097944563 L-0.4136155090846586,-0.1252164694983229 L-0.5257311121191335,-0.14077470032977224 L-0.6293582346747187,-0.15990623951105587 L-0.7228237081170708,-0.18230218826649214 L-0.8046184342998615,-0.20760094050232988 L-0.8734217515379191,-0.23539402131658263 L-0.9025957662970502,-0.25008708005864694 L-0.9281227580759644,-0.2652326822549522 L-0.9498995826664683,-0.2807696306771027 L-0.9678382487631699,-0.29663514682551534 L-0.9818662735006137,-0.31276512459184497 L-0.9919269753271078,-0.3290943892857366 L-0.9979797030318572,-0.345556960979284 L-1.0,-0.36208632110512545 " />
			<path d="M1.0,-0.3620863211051266 L0.9976068569223203,-0.34409793329475613 L0.9904388819568619,-0.32619564305591964 L0.9785303830829639,-0.30846513587253654 L0.9619383577839175,-0.29099127502566613 L0.9407422202407008,-0.2738576954135605 L0.9150434212329842,-0.2571464032511087 L0.8849649625666675,-0.2409373835646262 L0.85065080835204,-0.22530821736063028 L0.812265195950352,-0.21033371030094294 L0.7699918498868065,-0.19608553466138726 L0.6746089254835289,-0.1700371581910289 L0.5663259699412464,-0.14766119115408566 L0.44721359549996,-0.1293855120748969 " />

        </g>

        <!-- solid lines -->
        <g  stroke="rgb(0,0,0)" fill="none">
    			<path d="M-1.0,-0.36208632110512656 L-0.9987954562051724,-0.3748521310314295 L-0.9951847266721969,-0.3875871870034672 L-0.9891765099647809,-0.40026080915594375 L-0.9807852804032304,-0.4128424656230155 L-0.9569403357322089,-0.4376089348247255 L-0.9238795325112868,-0.4616480799714557 L-0.881921264348355,-0.4847283909543094 L-0.8314696123025455,-0.5066275917615404 L-0.7730104533627371,-0.5271347811180543 L-0.7071067811865477,-0.5460524635799777 L-0.6343932841636452,-0.5631984515237453 L-0.5555702330196022,-0.5784076197125078 L-0.47139673682599786,-0.5915334955424306 L-0.38268343236509034,-0.602449669653938 L-0.2902846772544633,-0.6110510133229483 L-0.19509032201612866,-0.6172546909079563 L-0.09801714032956045,-0.621000957602543 L-1.8369701987210297e-16,-0.6222537348105222 L0.09801714032956009,-0.621000957602543 L0.1950903220161283,-0.6172546909079563 L0.29028467725446294,-0.6110510133229483 L0.38268343236509,-0.602449669653938 L0.4713967368259976,-0.5915334955424306 L0.5555702330196018,-0.5784076197125079 L0.6343932841636449,-0.5631984515237454 L0.7071067811865474,-0.5460524635799778 L0.7730104533627372,-0.5271347811180543 L0.8314696123025452,-0.5066275917615405 L0.8819212643483548,-0.48472839095430953 L0.9238795325112865,-0.46164807997145585 L0.9569403357322086,-0.43760893482472585 L0.9807852804032303,-0.41284246562301563 L0.989176509964781,-0.40026080915594364 L0.9951847266721969,-0.3875871870034672 L0.9987954562051724,-0.3748521310314296 L1.0,-0.362086321105129 " />
			<path d="M1.0,-0.36208632110512756 L0.9964074361705515,-0.2773973540313172 L0.9856555577119424,-0.19331688799723235 L0.9678216182434712,-0.11044905188494736 L0.9430337568968798,-0.029389261675745848 L0.9114700776203345,0.04928005768971572 L0.8733573694788217,0.12499365710895793 L0.8289694771457647,0.19720752470463887 L0.7786253332940857,0.2654027946193409 L0.722686667024237,0.3290894751329938 L0.6615554047944361,0.3878099693159357 L0.5956707825277533,0.4411423629212684 L0.5255061896459332,0.4887034558925831 L0.45156576770596624,0.5301515157052843 L0.3743807880786437,0.5651887327584041 L0.2945058346959376,0.5935633601746033 L0.21251481929465094,0.6150715226336226 L0.12899685778732467,0.6295586812424862 " />
			<path d="M0.12899685778732994,0.6295586812424856 L0.04433509955184828,0.6369303949450744 L-0.040646844798374215,0.6370872544101275 L-0.12533523944544905,0.630028126805573 L-0.2091184685743724,0.6158039928366311 L-0.2913914534352059,0.5945175785654311 L-0.37156002219486467,0.5663226135279649 L-0.4490452010196379,0.5314227205062234 L-0.5232873953984343,0.49006994497353273 L-0.5937504315094226,0.44256293483336895 L-0.6599254284434979,0.3892447835974979 L-0.7213344733195456,0.33050055257991084 L-0.7775340727499891,0.266754490001162 L-0.8281183557302854,0.1984669670866105 L-0.872722004821247,0.12613115328593177 L-0.9110228944553196,0.05026945462531207 L-0.9427444173130881,-0.02857025908560984 L-0.9676574819690194,-0.10981861094511203 L-0.9855821673795361,-0.1928888289740187 L-0.9963890222647819,-0.27718098375680567 L-1.0,-0.3620863211051247 " />

        </g>
        </g>
    </svg>
    