<?xml version="1.0" encoding="UTF-8" standalone="no"?>
    <svg
    xmlns:svg="http://www.w3.org/2000/svg"
    xmlns="http://www.w3.org/2000/svg"
    width="150"
    height="194"
    >
        <g transform="scale(50, -50)   translate(0.4911250813802084,-3.4000000999999984)" stroke-width="0.02"  fill="none">
        <!-- hidden lines -->
        <g  stroke="rgb(160,160,160)" fill="none" stroke-dasharray="0.02,0.02" >
    
        </g>

        <!-- solid lines -->
        <g  stroke="rgb(0,0,0)" fill="none">
    			<path d="M1.0,1.0 L1.1973876953125,1.03125 L1.3733723958333335,1.0625 L1.5286865234375,1.09375 L1.6640625,1.125 L1.7802327473958335,1.15625 L1.8779296875000002,1.1875 L1.9578857421875002,1.21875 L2.0208333333333335,1.25 L2.0461578369140625,1.265625 L2.0675048828125,1.28125 L2.084966023763021,1.296875 L2.0986328125,1.3125 L2.1085968017578125,1.328125 L2.1149495442708335,1.34375 L2.1177825927734375,1.359375 L2.1171875,1.375 L2.113255818684896,1.390625 L2.1060791015625,1.40625 L2.0957489013671875,1.421875 L2.0823567708333335,1.4375 L2.0467529296875,1.46875 L1.9999999999999998,1.5 L1.9429931640624998,1.53125 L1.877278645833333,1.5625 L1.8045654296874996,1.59375 L1.7265624999999998,1.625 L1.395833333333333,1.75 L1.2431640624999996,1.8125 L1.175984700520833,1.84375 L1.1171874999999996,1.875 L1.0684814453124996,1.90625 L1.048446655273437,1.921875 L1.0315755208333326,1.9375 L1.018081665039062,1.953125 L1.0081787109374996,1.96875 L1.0020802815755205,1.984375 L0.9999999999999999,2.0 L1.0020802815755208,2.015625 L1.0081787109375,2.03125 L1.0180816650390625,2.046875 L1.0315755208333333,2.0625 L1.0484466552734375,2.078125 L1.0684814453125,2.09375 L1.1171875,2.125 L1.1759847005208333,2.15625 L1.2431640625000004,2.1875000000000004 L1.3958333333333335,2.25 L1.7265625000000004,2.3750000000000004 L1.8045654296875002,2.40625 L1.8772786458333341,2.4375000000000004 L1.9429931640625007,2.4687500000000004 L2.0000000000000004,2.5 L2.0467529296875004,2.53125 L2.0823567708333335,2.5625 L2.095748901367188,2.578125 L2.1060791015625004,2.59375 L2.113255818684896,2.609375 L2.1171875000000004,2.625 L2.117782592773438,2.640625 L2.1149495442708335,2.65625 L2.108596801757813,2.671875 L2.0986328125,2.6875 L2.084966023763021,2.703125 L2.0675048828125,2.71875 L2.0461578369140625,2.734375 L2.0208333333333335,2.75 L1.9578857421875,2.7812499999999996 L1.8779296875000002,2.8124999999999996 L1.780232747395833,2.84375 L1.664062499999999,2.875 L1.5286865234375,2.9062499999999996 L1.3733723958333324,2.9375 L1.1973876953124982,2.96875 L1.000000000000026,2.999999999999996 " />
			<path d="M0.0,0.0 L1.0,0.0 " />
			<path d="M0.0,0.0 L0.0,1.0 " />
			<path d="M1.0,0.0 L0.98203125,0.0028645833333333336 L0.96875,0.010416666666666668 L0.95859375,0.021093749999999998 L0.95,0.033333333333333284 " />
			<path d="M1.0,0.0 L0.98203125,-0.0028645833333333336 L0.96875,-0.010416666666666668 L0.95859375,-0.021093749999999998 L0.95,-0.033333333333333284 " />
			<path d="M0.0,1.0 L-0.002864583333333335,0.98203125 L-0.01041666666666667,0.96875 L-0.02109375,0.95859375 L-0.03333333333333329,0.95 " />
			<path d="M0.0,1.0 L0.002864583333333332,0.98203125 L0.010416666666666663,0.96875 L0.02109374999999999,0.95859375 L0.03333333333333328,0.95 " />
			<path d="M0.0,0.0 L-1.994931997373328e-18,0.0028645833333333336 L-3.469446951953614e-18,0.010416666666666668 L-5.551115123125779e-18,0.033333333333333284 " />
			<path d="M0.0,0.0 L-1.994931997373328e-18,-0.0028645833333333336 L-3.469446951953614e-18,-0.010416666666666668 L-5.551115123125779e-18,-0.033333333333333284 " />
			<path d="M1.15375,0.09112508138020833 L1.0922501627604166,0.0023750813802083243 " />
			<path d="M1.0922501627604166,0.0023750813802083407 L1.1567496744791668,-0.09112508138020833 " />
			<path d="M1.1567496744791668,-0.09112508138020833 L1.1279996744791667,-0.09112508138020833 " />
			<path d="M1.1279996744791667,-0.09112508138020833 L1.0782503255208333,-0.015124918619791664 " />
			<path d="M1.0782503255208333,-0.015124918619791662 L1.0282503255208333,-0.09112508138020833 " />
			<path d="M1.0282503255208333,-0.09112508138020833 L1.0,-0.09112508138020833 " />
			<path d="M1.0,-0.09112508138020833 L1.0645003255208334,0.002375081380208338 " />
			<path d="M1.0645003255208334,0.0023750813802083407 L1.0039998372395833,0.09112508138020833 " />
			<path d="M1.0039998372395833,0.09112508138020833 L1.0322501627604166,0.09112508138020833 " />
			<path d="M1.0322501627604166,0.09112508138020833 L1.0789998372395833,0.01962524414062501 " />
			<path d="M1.0789998372395833,0.019625244140625015 L1.1260001627604166,0.09112508138020833 " />
			<path d="M1.1260001627604166,0.09112508138020833 L1.1537499999999998,0.09112508138020833 " />
			<path d="M-0.09112508138020832,1.1620003255208333 L0.019625244140624998,1.0935001627604166 " />
			<path d="M0.019625244140625005,1.0935001627604166 L0.09112508138020833,1.0935001627604166 " />
			<path d="M0.09112508138020835,1.0935001627604166 L0.09112508138020835,1.0702498372395832 " />
			<path d="M0.09112508138020835,1.0702498372395834 L0.01962524414062501,1.0702498372395834 " />
			<path d="M0.019625244140625,1.0702498372395834 L-0.09112508138020835,1.0000000000000002 " />
			<path d="M-0.09112508138020833,1.0 L-0.09112508138020833,1.02875 " />
			<path d="M-0.09112508138020833,1.02875 L-0.0023750813802083243,1.0822501627604166 " />
			<path d="M-0.0023750813802083316,1.0822501627604166 L-0.09112508138020832,1.1342496744791666 " />
			<path d="M-0.09112508138020832,1.1342496744791668 L-0.09112508138020832,1.1620003255208335 " />
			<path d="M-6.924979976026999e-18,-0.062374674479166656 L7.646697222178182e-18,0.06887532552083335 " />
			<path d="M7.64669722217818e-18,0.06887532552083334 L-4.454806026380859e-18,-0.040125325520833366 " />
			<path d="M-4.454806026380858e-18,-0.040125325520833345 L7.702172233337026e-18,0.06937500000000002 " />
			<path d="M7.702172233337024e-18,0.069375 L0.0,0.0 " />
			<path d="M0.0,0.0 L-7.702172233337024e-18,-0.069375 " />
			<path d="M-7.702172233337024e-18,-0.069375 L4.454806026380857e-18,0.040125325520833366 " />
			<path d="M4.454806026380856e-18,0.040125325520833345 L-6.9249799760269996e-18,-0.06237467447916666 " />

        </g>
        </g>
    </svg>
    