<?xml version="1.0" encoding="UTF-8" standalone="no"?>
    <svg
    xmlns:svg="http://www.w3.org/2000/svg"
    xmlns="http://www.w3.org/2000/svg"
    width="99"
    height="150"
    >
        <g transform="scale(50, -50)   translate(1.293126440585621,-1.4374886370565867)" stroke-width="0.02"  fill="none">
        <!-- hidden lines -->
        <g  stroke="rgb(160,160,160)" fill="none" stroke-dasharray="0.02,0.02" >
    
        </g>

        <!-- solid lines -->
        <g  stroke="rgb(0,0,0)" fill="none">
    			<path d="M-0.3084146807579702,-0.3269228171974647 L-0.10833200062874174,-0.5147731695012163 L-0.025102315574985712,-0.589331910638625 L0.04744291947186946,-0.6515825413258534 L0.1096961945120773,-0.7019771962325001 L0.16204999954589133,-0.7409680100281635 L0.20489682457356506,-0.769007117382442 L0.23862915959535191,-0.7865466529649341 L0.2636394946115055,-0.7940387514452383 L0.272996565242549,-0.7941583038563195 L0.2803203196222791,-0.791935547492953 L0.2856598190007279,-0.7874269991888388 L0.2890641246279265,-0.7806891757776768 L0.2905822977539072,-0.7717785940931665 L0.2902633996287012,-0.760751770969008 L0.2843106346248563,-0.732575467736545 L0.2715983196166458,-0.6966124007498866 L0.2525189446043228,-0.6533147046786305 L0.2274649995881413,-0.6031345141923765 L0.16170111954566602,-0.48473898362144024 L0.0809353994935014,-0.34906186123474076 L-0.09629564062096777,-0.05962222967740349 L-0.17810800067380836,0.07726058516155865 L-0.24561628071741035,0.19766560315293236 L-0.271716865734268,0.24905148609144945 L-0.29149400074704157,0.2931529771308803 L-0.30403187575513946,0.3289150953754951 L-0.30841468075797024,0.3552828599295639 L-0.3072999001322502,0.3646581355800502 L-0.3040318757551395,0.37155295019593404 L-0.2987250838767119,0.37609917638918144 L-0.2914940007470416,0.37842868677175856 L-0.27171686573426795,0.376965050552767 L-0.2456162807174102,0.3682170224346893 L-0.21410805569705987,0.35323958331325506 L-0.1781080006738081,0.3330877140841939 L-0.0962956406209676,0.2814806088861105 L0.08093539949350176,0.16259239661053027 L0.16170111954566646,0.11219098386470922 L0.19691619456841097,0.09294338397484508 L0.2274649995881415,0.07907116293465162 L0.25251894460432317,0.07152882726883644 L0.27159831961664604,0.07086898601801998 L0.27877489024628127,0.0732612928824858 L0.2843106346248567,0.07754377385180075 L0.2881564915023406,0.08377294575966454 L0.2902633996287014,0.09200532543977712 L0.2890641246279268,0.11470577545154756 L0.2803203196222793,0.1460972585567108 L0.26363949461150554,0.1866319094248648 L0.238629159595352,0.23676186272560829 L0.20489682457356517,0.29693925312853964 L0.1620499995458915,0.36761621530325733 L0.1096961945120772,0.4492448839193604 L0.04744291947186885,0.542277393646447 L-0.10833200062874218,0.7643624751119624 L-0.3084146807579561,1.0374885370565734 " />
			<path d="M-0.8442943611040816,-0.3918139587660671 L-0.3084146807579702,-1.0091284943244931 " />
			<path d="M-0.8442943611040816,-0.3918139587660671 L-0.8442943611040816,0.2903917183609614 " />
			<path d="M-0.8442943611040816,-0.3918139587660671 L0.0,0.0 " />
			<path d="M-0.3084146807579702,-1.0091284943244931 L-0.3180437687641894,-0.9960818887510742 L-0.32516092076878617,-0.9827311059515524 L-0.3352086647752758,-0.9555225783090042 " />
			<path d="M-0.3084146807579702,-1.0091284943244931 L-0.3180437687641894,-0.9999903587762811 L-0.32516092076878617,-0.9969437242250322 L-0.33060344877230136,-0.9979580903384253 L-0.3352086647752758,-1.0010029567841394 " />
			<path d="M-0.8442943611040816,0.2903917183609614 L-0.8458294331050731,0.27990168403007015 L-0.849876441107687,0.275503150696142 L-0.8555980731113825,0.2751656180268559 L-0.8621570171156187,0.2768585856898908 " />
			<path d="M-0.8442943611040816,0.2903917183609614 L-0.8427592891030902,0.2763649861701 L-0.8387122811004762,0.2626424312053415 L-0.8264317050925446,0.23570428331932902 " />
			<path d="M0.0,0.0 L-0.015170914301088953,-0.005086172058974315 L-0.026384198784502527,-0.00513787707469974 L-0.04221471805520411,0.0031494912992642045 " />
			<path d="M0.0,0.0 L-0.015170914301088953,-0.008994642084181246 L-0.026384198784502527,-0.01935049534817949 L-0.04221471805520411,-0.04233088717587092 " />
			<path d="M-0.2260231799047555,-1.0418745563203606 L-0.2589796930260413,-1.0644555667029123 " />
			<path d="M-0.2589796930260414,-1.064455566702912 L-0.22441571530371737,-1.168058394670775 " />
			<path d="M-0.2244157153037173,-1.168058394670775 L-0.239822256113668,-1.1503106017734703 " />
			<path d="M-0.23982225611366803,-1.1503106017734703 L-0.26648192133088683,-1.0677518630291882 " />
			<path d="M-0.2664819213308869,-1.0677518630291882 L-0.2932759053481925,-1.0887338787490013 " />
			<path d="M-0.2932759053481925,-1.0887338787490013 L-0.30841468075797024,-1.0712945421707336 " />
			<path d="M-0.3084146807579702,-1.0712945421707338 L-0.2738502669356459,-1.0473251888155368 " />
			<path d="M-0.27385026693564585,-1.0473251888155368 L-0.3062712492565858,-0.9494316041461152 " />
			<path d="M-0.3062712492565858,-0.9494316041461153 L-0.291132473846808,-0.9668709407243828 " />
			<path d="M-0.29113247384680807,-0.9668709407243827 L-0.2660802732306275,-1.0445077891914993 " />
			<path d="M-0.26608027323062744,-1.0445077891914993 L-0.24089375381436007,-1.0247441784329852 " />
			<path d="M-0.24089375381436018,-1.0247441784329854 L-0.22602317990475565,-1.0418745563203606 " />
			<path d="M-0.8931264405856211,0.45716209741764763 L-0.8337775915472891,0.34206311173652815 " />
			<path d="M-0.8337775915472891,0.3420631117365281 L-0.7954622816225423,0.2979252229184716 " />
			<path d="M-0.7954622816225422,0.2979252229184716 L-0.7954622816225422,0.28206371885310766 " />
			<path d="M-0.7954622816225422,0.2820637188531078 L-0.8337775915472891,0.3262016076711643 " />
			<path d="M-0.8337775915472891,0.3262016076711643 L-0.8931264405856211,0.34664455565090857 " />
			<path d="M-0.8931264405856211,0.3466445556509085 L-0.8931264405856211,0.3662579688683106 " />
			<path d="M-0.8931264405856211,0.3662579688683106 L-0.8455671189549037,0.34796941859987657 " />
			<path d="M-0.8455671189549037,0.34796941859987657 L-0.8931264405856211,0.4382304457330516 " />
			<path d="M-0.8931264405856211,0.43823044573305164 L-0.8931264405856211,0.45716209741764774 " />
			<path d="M0.15387278472892096,0.02885580071828109 L0.15387278472892096,0.11839529584120356 " />
			<path d="M0.15387278472892096,0.11839529584120351 L0.13614246572803324,0.11016713893531291 " />
			<path d="M0.13614246572803312,0.11016713893531288 L0.017307759567229616,-0.019341666255784595 " />
			<path d="M0.01730775956722963,-0.019341666255784595 L0.017307759567229627,0.05536007746178555 " />
			<path d="M0.01730775956722963,0.05536007746178556 L-3.8163916471489756e-17,0.047328018850687555 " />
			<path d="M0.0,0.0473280188506876 L2.3754629904875406e-18,6.938893903907228e-18 " />
			<path d="M2.3754629904875406e-18,6.938893903907228e-18 L4.750925980975081e-18,-0.04732801885068759 " />
			<path d="M0.0,-0.0473280188506876 L0.01730775956722967,-0.039295960239589596 " />
			<path d="M0.01730775956722974,-0.039295960239589534 L0.13656433807318127,0.09074950515368763 " />
			<path d="M0.13656433807318125,0.09074950515368752 L0.13656433807318125,0.020823423248167106 " />
			<path d="M0.13656433807318125,0.020823423248167106 L0.1538727847289209,0.028855800718281026 " />

        </g>
        </g>
    </svg>
    