<?xml version="1.0" encoding="UTF-8" standalone="no"?>
    <svg
    xmlns:svg="http://www.w3.org/2000/svg"
    xmlns="http://www.w3.org/2000/svg"
    width="102"
    height="124"
    >
        <g transform="scale(50, -50)   translate(1.3520411461985087,-1.1717975581030617)" stroke-width="0.02"  fill="none">
        <!-- hidden lines -->
        <g  stroke="rgb(160,160,160)" fill="none" stroke-dasharray="0.02,0.02" >
    
        </g>

        <!-- solid lines -->
        <g  stroke="rgb(0,0,0)" fill="none">
    			<path d="M-0.5126859123867564,0.06862624085976976 L-0.47317048029816,0.01932400767008069 L-0.4337502443466088,-0.025903537415928435 L-0.3945201713333141,-0.06694743728068109 L-0.35557476994031373,-0.10370881357438155 L-0.31700786305077777,-0.1360991049216227 L-0.27891236172146494,-0.16404028027349415 L-0.24138004135184954,-0.1874650268912157 L-0.20450132058914483,-0.20631691250841944 L-0.16836504350186277,-0.22055052128142338 L-0.13305826554667055,-0.23013156319997674 L-0.09866604384417083,-0.23503695669489733 L-0.06527123226884718,-0.2352548842435942 L-0.03295428184682514,-0.23078482083951424 L-0.0017930469423024231,-0.2216375352569293 L0.0281374023004346,-0.20783506410801555 L0.05676496080756255,-0.18941065875472418 L0.08402066228315974,-0.16640870520333895 L0.10983884535505395,-0.13888461717469758 L0.1341573117588193,-0.10690470260768747 L0.15691747617884333,-0.07054600391760868 L0.17806450738548285,-0.029896112394252494 L0.19754746032829962,0.014947042813190592 L0.21531939886714957,0.06387543061603007 L0.23133750884545468,0.11677117824242833 L0.24556320123325648,0.17350685520323283 L0.2579622050915691,0.23394578028318702 L0.26850465013407365,0.2979423508179484 L0.27716513868725356,0.36534239346366104 L0.2839228068756148,0.43598353561404535 L0.2887613748845902,0.5096955965702279 L0.2916691861800371,0.5863009975209503 L0.29263923558985105,0.6656151893454694 " />
			<path d="M-0.9153484863750602,-0.22986823338308743 L-0.5126859123867564,-0.7524137915879332 " />
			<path d="M-0.9153484863750602,-0.22986823338308743 L-0.9153484863750602,0.5911717990646153 " />
			<path d="M-0.9153484863750602,-0.22986823338308743 L0.0,0.0 " />
			<path d="M-0.5126859123867564,-0.7524137915879332 L-0.5199212555131087,-0.7406723634959906 L-0.525269117823891,-0.7275317425560348 L-0.5328190410861716,-0.6989185125961008 " />
			<path d="M-0.5126859123867564,-0.7524137915879332 L-0.5199212555131087,-0.745376238681889 L-0.525269117823891,-0.7446367432320286 L-0.5293586595909596,-0.7480959527529574 L-0.5328190410861716,-0.7536545147592808 " />
			<path d="M-0.9153484863750602,0.5911717990646153 L-0.9165019468734642,0.5779156112785117 L-0.9195428881874383,0.5709574809485918 L-0.9287705721746703,0.567537982715725 " />
			<path d="M-0.9153484863750602,0.5911717990646153 L-0.9141950258766561,0.5749218606846297 L-0.911154084562682,0.5600711151526575 L-0.90192640057545,0.5327016121687355 " />
			<path d="M0.0,0.0 L-0.016447668114551856,-0.001778507225653203 L-0.028604640199220616,0.0013691180447754237 L-0.03790114826396732,0.0078008316459252675 L-0.045767424318753,0.015874589412435684 " />
			<path d="M0.0,0.0 L-0.016447668114551856,-0.006482382411551503 L-0.028604640199220616,-0.015735882631218393 L-0.045767424318753,-0.03886141275074444 " />
			<path d="M-0.4507765416360547,-0.7579378313887224 L-0.47554022439880705,-0.7986686674885908 " />
			<path d="M-0.4755402243988071,-0.7986686674885908 L-0.4495686849891465,-0.909139977510283 " />
			<path d="M-0.4495686849891464,-0.9091399775102831 L-0.4611452339913102,-0.8941167927118937 " />
			<path d="M-0.4611452339913102,-0.8941167927118936 L-0.481177434897115,-0.8057213152912904 " />
			<path d="M-0.481177434897115,-0.8057213152912905 L-0.5013105635965301,-0.8419932134798914 " />
			<path d="M-0.5013105635965303,-0.8419932134798913 L-0.5126859123867564,-0.8272311313611389 " />
			<path d="M-0.5126859123867564,-0.8272311313611389 L-0.4867140452894542,-0.7841681132981391 " />
			<path d="M-0.48671404528945417,-0.7841681132981391 L-0.5110753276283315,-0.679686548997814 " />
			<path d="M-0.5110753276283315,-0.6796865489978139 L-0.4996999788381053,-0.6944486311165663 " />
			<path d="M-0.49969997883810535,-0.6944486311165663 L-0.4808756345792088,-0.7775816945503702 " />
			<path d="M-0.4808756345792088,-0.7775816945503702 L-0.46195036252670185,-0.7434372771982706 " />
			<path d="M-0.46195036252670185,-0.7434372771982707 L-0.45077654163605474,-0.7579378313887224 " />
			<path d="M-0.9520411461985085,0.7717975581030616 L-0.9074461350542473,0.657684091576924 " />
			<path d="M-0.9074461350542472,0.657684091576924 L-0.8786558265516118,0.6203221692150103 " />
			<path d="M-0.8786558265516118,0.6203221692150103 L-0.8786558265516118,0.6012327211949656 " />
			<path d="M-0.8786558265516118,0.6012327211949657 L-0.9074461350542472,0.6385946435568794 " />
			<path d="M-0.9074461350542472,0.6385946435568794 L-0.9520411461985085,0.6387888055808983 " />
			<path d="M-0.9520411461985085,0.6387888055808983 L-0.9520411461985085,0.6623937065137698 " />
			<path d="M-0.9520411461985085,0.6623937065137697 L-0.9163048427570466,0.6599435635918596 " />
			<path d="M-0.9163048427570466,0.6599435635918596 L-0.9520411461985085,0.7490131626713669 " />
			<path d="M-0.9520411461985085,0.749013162671367 L-0.9520411461985085,0.7717975581030618 " />
			<path d="M0.16682241062435577,-0.009318581810772747 L0.16682241062435577,0.09844292244798823 " />
			<path d="M0.16682241062435577,0.09844292244798819 L0.14759994342797847,0.0936156521334939 " />
			<path d="M0.14759994342797833,0.09361565213349393 L0.018764346005686522,-0.028232274610145297 " />
			<path d="M0.01876434600568655,-0.02823227461014527 L0.018764346005686543,0.06167187620851375 " />
			<path d="M0.01876434600568655,0.061671876208513776 L-1.0755285551056204e-16,0.05695965225105937 " />
			<path d="M0.0,0.05695965225105937 L3.9487951988083335e-18,-6.938893903907228e-18 " />
			<path d="M3.9487951988083335e-18,-6.938893903907228e-18 L7.897590397616667e-18,-0.05695965225105938 " />
			<path d="M0.0,-0.05695965225105937 L0.018764346005686657,-0.05224742829360496 " />
			<path d="M0.01876434600568677,-0.05224742829360493 L0.14805731970616404,0.0701256104904152 " />
			<path d="M0.14805731970616398,0.0701256104904151 L0.14805731970616398,-0.014030992835474418 " />
			<path d="M0.14805731970616398,-0.014030992835474404 L0.16682241062435582,-0.009318581810772783 " />

        </g>
        </g>
    </svg>
    