<?xml version='1.0' encoding='utf-8'?>
<svg width="100.09mm" height="69.99941mm" viewBox="-143.62915 -100.449153 287.2583 200.898307" version="1.1" xmlns="http://www.w3.org/2000/svg">
  <g transform="scale(1,-1)" stroke-linecap="round">
    <g fill="none" stroke="rgb(0,0,0)" stroke-width="0.2583">
      <path d="M 48.285002,27.7 Q 48.285002,27.384993 48.507503,27.162492 Q 48.730005,26.93999 49.039998,26.93999 Q 49.349992,26.93999 49.574992,27.162492 Q 49.799992,27.384993 49.799992,27.68999 Q 49.799992,28.009993 49.579997,28.232495 Q 49.360002,28.454997 49.039998,28.454997 Q 48.730005,28.454997 48.507503,28.232495 Q 48.285002,28.009993 48.285002,27.7 M 48.707495,28.032487 Q 48.844995,28.169987 49.039998,28.169987 Q 49.239998,28.169987 49.377498,28.029989 Q 49.514998,27.88999 49.514998,27.68999 Q 49.514998,27.5 49.375,27.3625 Q 49.235002,27.225 49.039998,27.225 Q 48.849992,27.225 48.709993,27.364998 Q 48.569995,27.504997 48.569995,27.699992 Q 48.569995,27.894987 48.707495,28.032487" />
      <path d="M -40.0,-20.0 L 20.0,-20.0 A 50.00000000000001,50.00000000000001 53.13010235415597 0,1 20.0,60.0 L -40.0,60.0 L -40.0,-20.0" />
      <path d="M -49.955108,59.75 L -42.0,59.75 L -42.0,60.25 L -52.0,60.25 L -52.0,59.75 L -50.044892,59.75 A 10.137937550497139,10.137937550497139 -9.46232220802563 0,0 -51.0,57.0 L -50.25,57.28125 L -50.25,31.97749 L -49.75,31.97749 L -49.75,57.28125 L -49.0,57.0 A 10.137937550497139,10.137937550497139 -170.5376777919744 0,0 -49.955108,59.75" />
      <path d="M -52.0,-20.25 L -42.0,-20.25 L -42.0,-19.75 L -49.955108,-19.75 A 10.137937550497139,10.137937550497139 170.53767779197437 0,0 -49.0,-17.0 L -49.75,-17.28125 L -49.75,8.02251 L -50.25,8.02251 L -50.25,-17.28125 L -51.0,-17.0 A 10.137937550497139,10.137937550497139 9.462322208025604 0,0 -50.044892,-19.75 L -52.0,-19.75 L -52.0,-20.25" />
      <path d="M -49.849992,29.372477 Q -50.139998,29.97749 -50.730005,29.97749 Q -51.214998,29.97749 -51.522502,29.644987 Q -51.830005,29.312484 -51.830005,28.787484 Q -51.830005,28.262484 -51.525,27.92998 Q -51.219995,27.597477 -50.735002,27.597477 Q -50.139998,27.597477 -49.849992,28.207487 Q -49.685002,27.932487 -49.525,27.827482 Q -49.364998,27.722477 -49.114998,27.722477 Q -48.699992,27.722477 -48.434993,28.019979 Q -48.169995,28.31748 -48.169995,28.787484 Q -48.169995,29.257487 -48.434993,29.554989 Q -48.699992,29.85249 -49.114998,29.85249 Q -49.360002,29.85249 -49.520003,29.747485 Q -49.680005,29.64248 -49.849992,29.372477 M -48.7125,28.339982 Q -48.864998,28.172477 -49.124992,28.172477 Q -49.374992,28.172477 -49.524992,28.34248 Q -49.674992,28.512484 -49.674992,28.787484 Q -49.674992,29.06748 -49.522493,29.234985 Q -49.369995,29.40249 -49.119995,29.40249 Q -48.864998,29.40249 -48.7125,29.234985 Q -48.560002,29.06748 -48.560002,28.787484 Q -48.560002,28.507487 -48.7125,28.339982 M -50.2375,28.252482 Q -50.430005,28.047477 -50.739998,28.047477 Q -51.055005,28.047477 -51.247502,28.25498 Q -51.439998,28.462484 -51.439998,28.797477 Q -51.439998,29.122477 -51.244995,29.324984 Q -51.049992,29.52749 -50.739998,29.52749 Q -50.430005,29.52749 -50.2375,29.322485 Q -50.044995,29.11748 -50.044995,28.787484 Q -50.044995,28.457487 -50.2375,28.252482" />
      <path d="M -49.999992,27.16748 Q -50.894995,27.16748 -51.3625,26.872485 Q -51.830005,26.57749 -51.830005,26.007487 Q -51.830005,25.44248 -51.367505,25.144987 Q -50.905005,24.847493 -50.030005,24.847493 Q -48.169995,24.847493 -48.169995,26.007487 Q -48.169995,26.172493 -48.209993,26.319987 Q -48.249992,26.46748 -48.369995,26.627482 Q -48.489998,26.787484 -48.682495,26.902482 Q -48.874992,27.01748 -49.214998,27.09248 Q -49.555005,27.16748 -49.999992,27.16748 M -49.989998,25.297493 Q -50.744995,25.297493 -51.104997,25.472493 Q -51.464998,25.647493 -51.464998,26.01748 Q -51.464998,26.71748 -50.005005,26.71748 Q -48.560002,26.71748 -48.560002,26.007487 Q -48.560002,25.297493 -49.989998,25.297493" />
      <path d="M -51.194995,23.682487 L -51.194995,24.20249 L -51.714998,24.20249 L -51.714998,23.682487 L -51.194995,23.682487" />
      <path d="M -49.999992,23.137484 Q -50.894995,23.137484 -51.3625,22.842489 Q -51.830005,22.547493 -51.830005,21.97749 Q -51.830005,21.412484 -51.367505,21.11499 Q -50.905005,20.817497 -50.030005,20.817497 Q -48.169995,20.817497 -48.169995,21.97749 Q -48.169995,22.142497 -48.209993,22.28999 Q -48.249992,22.437484 -48.369995,22.597485 Q -48.489998,22.757487 -48.682495,22.872485 Q -48.874992,22.987484 -49.214998,23.062484 Q -49.555005,23.137484 -49.999992,23.137484 M -49.989998,21.267497 Q -50.744995,21.267497 -51.104997,21.442497 Q -51.464998,21.617497 -51.464998,21.987484 Q -51.464998,22.687484 -50.005005,22.687484 Q -48.560002,22.687484 -48.560002,21.97749 Q -48.560002,21.267497 -49.989998,21.267497" />
      <path d="M -49.999992,20.357487 Q -50.894995,20.357487 -51.3625,20.062492 Q -51.830005,19.767497 -51.830005,19.197493 Q -51.830005,18.632487 -51.367505,18.334993 Q -50.905005,18.0375 -50.030005,18.0375 Q -48.169995,18.0375 -48.169995,19.197493 Q -48.169995,19.3625 -48.209993,19.509993 Q -48.249992,19.657487 -48.369995,19.817489 Q -48.489998,19.97749 -48.682495,20.092489 Q -48.874992,20.207487 -49.214998,20.282487 Q -49.555005,20.357487 -49.999992,20.357487 M -49.989998,18.4875 Q -50.744995,18.4875 -51.104997,18.6625 Q -51.464998,18.8375 -51.464998,19.207487 Q -51.464998,19.907487 -50.005005,19.907487 Q -48.560002,19.907487 -48.560002,19.197493 Q -48.560002,18.4875 -49.989998,18.4875" />
      <path d="M -49.094995,17.492497 L -51.714998,17.492497 L -51.714998,17.072493 L -50.069995,17.072493 Q -49.785002,17.072493 -49.585002,16.892497 Q -49.385002,16.7125 -49.385002,16.457503 Q -49.385002,16.22749 -49.522502,16.099992 Q -49.660002,15.972493 -49.910002,15.972493 L -51.714998,15.972493 L -51.714998,15.55249 L -50.069995,15.55249 Q -49.785002,15.55249 -49.585002,15.372493 Q -49.385002,15.192497 -49.385002,14.9375 Q -49.385002,14.707503 -49.522502,14.579997 Q -49.660002,14.45249 -49.910002,14.45249 L -51.714998,14.45249 L -51.714998,14.032503 L -49.749992,14.032503 Q -49.394995,14.032503 -49.207495,14.229997 Q -49.019995,14.42749 -49.019995,14.792497 Q -49.019995,15.05249 -49.109993,15.232495 Q -49.199992,15.4125 -49.419995,15.597493 Q -49.019995,15.817497 -49.019995,16.30249 Q -49.019995,16.5625 -49.125,16.75 Q -49.230005,16.9375 -49.464998,17.107503 L -49.094995,17.107503 L -49.094995,17.492497" />
      <path d="M -49.094995,13.482503 L -51.714998,13.482503 L -51.714998,13.0625 L -50.069995,13.0625 Q -49.785002,13.0625 -49.585002,12.882503 Q -49.385002,12.702507 -49.385002,12.44751 Q -49.385002,12.217497 -49.522502,12.089998 Q -49.660002,11.9625 -49.910002,11.9625 L -51.714998,11.9625 L -51.714998,11.542497 L -50.069995,11.542497 Q -49.785002,11.542497 -49.585002,11.3625 Q -49.385002,11.182503 -49.385002,10.927507 Q -49.385002,10.69751 -49.522502,10.570003 Q -49.660002,10.442497 -49.910002,10.442497 L -51.714998,10.442497 L -51.714998,10.02251 L -49.749992,10.02251 Q -49.394995,10.02251 -49.207495,10.220003 Q -49.019995,10.417497 -49.019995,10.782503 Q -49.019995,11.042497 -49.109993,11.222502 Q -49.199992,11.402507 -49.419995,11.5875 Q -49.019995,11.807503 -49.019995,12.292497 Q -49.019995,12.552507 -49.125,12.740007 Q -49.230005,12.927507 -49.464998,13.09751 L -49.094995,13.09751 L -49.094995,13.482503" />
      <path d="M 27.0,69.75 L 21.0,61.75 L 21.4,61.45 L 26.173065,67.814086 A 10.137937550497139,10.137937550497139 43.66778014613035 0,0 27.8,65.4 L 28.00611,66.104209 A 59.75,59.75 53.13010235415597 0,0 48.845197,30.358827 L 49.337625,30.445512 A 60.25000000000001,60.25000000000001 53.13010235415597 0,1 28.270681,66.534046 L 29.0,67.0 A 10.137937550497139,10.137937550497139 -117.40757543781842 0,0 26.226935,67.885914 L 27.4,69.45 L 27.0,69.75" />
      <path d="M 26.173065,-27.814086 L 21.4,-21.45 L 21.0,-21.75 L 27.0,-29.75 L 27.4,-29.45 L 26.226935,-27.885914 A 10.137937550497139,10.137937550497139 117.4075754378184 0,0 29.0,-27.0 L 28.270681,-26.534046 A 60.25000000000001,60.25000000000001 -50.56532666288382 0,1 49.337625,9.554488 L 48.845197,9.641173 A 59.75,59.75 -9.983786567152602 0,0 28.00611,-26.104209 L 27.8,-25.4 A 10.137937550497139,10.137937550497139 -43.667780146130376 0,0 26.173065,-27.814086" />
      <path d="M 49.189998,12.330013 L 51.714998,12.330013 L 51.714998,12.770003 L 48.169995,12.770003 L 48.169995,12.480013 Q 48.580005,12.365007 48.695003,12.21001 Q 48.810002,12.055013 48.874992,11.545003 L 49.189998,11.545003 L 49.189998,12.330013" />
      <path d="M 49.999992,14.030013 Q 50.894995,14.030013 51.3625,14.325008 Q 51.830005,14.620003 51.830005,15.190007 Q 51.830005,15.755013 51.367505,16.052507 Q 50.905005,16.35 50.030005,16.35 Q 48.169995,16.35 48.169995,15.190007 Q 48.169995,15.025 48.209993,14.877507 Q 48.249992,14.730013 48.369995,14.570011 Q 48.489998,14.41001 48.682495,14.295011 Q 48.874992,14.180013 49.214998,14.105013 Q 49.555005,14.030013 49.999992,14.030013 M 49.989998,15.9 Q 50.744995,15.9 51.104997,15.725 Q 51.464998,15.55 51.464998,15.180013 Q 51.464998,14.480013 50.005005,14.480013 Q 48.560002,14.480013 48.560002,15.190007 Q 48.560002,15.9 49.989998,15.9" />
      <path d="M 49.094995,19.08501 Q 48.660002,19.020003 48.414998,18.752507 Q 48.169995,18.48501 48.169995,18.079997 Q 48.169995,17.904997 48.209993,17.747502 Q 48.249992,17.590007 48.377498,17.412508 Q 48.505005,17.23501 48.710002,17.107503 Q 48.914998,16.979997 49.272502,16.895003 Q 49.630005,16.81001 50.099992,16.81001 Q 51.830005,16.81001 51.830005,18.0 Q 51.830005,18.504997 51.492505,18.832503 Q 51.155005,19.16001 50.635002,19.16001 Q 50.139998,19.16001 49.825,18.855005 Q 49.510002,18.55 49.510002,18.075 Q 49.510002,17.55 49.905005,17.26001 Q 49.255005,17.265007 48.907503,17.467505 Q 48.560002,17.670003 48.560002,18.05 Q 48.560002,18.279997 48.7,18.435002 Q 48.839998,18.590007 49.094995,18.645003 L 49.094995,19.08501 M 49.899992,18.020003 Q 49.899992,18.340007 50.107495,18.525008 Q 50.314998,18.71001 50.669995,18.71001 Q 51.005005,18.71001 51.222502,18.51001 Q 51.439998,18.31001 51.439998,18.004997 Q 51.439998,17.695003 51.2125,17.490007 Q 50.985002,17.28501 50.644995,17.28501 Q 50.314998,17.28501 50.107495,17.490007 Q 49.899992,17.695003 49.899992,18.020003" />
      <path d="M 51.194995,20.295003 L 51.194995,19.775 L 51.714998,19.775 L 51.714998,20.295003 L 51.194995,20.295003" />
      <path d="M 49.399992,20.875 L 49.399992,21.315007 Q 48.555005,21.365007 48.555005,22.029997 Q 48.555005,22.329997 48.745003,22.529997 Q 48.935002,22.729997 49.219995,22.729997 Q 49.644995,22.729997 49.919995,22.25 L 50.180005,21.790007 Q 50.494995,21.234993 50.8125,21.029997 Q 51.130005,20.825 51.714998,20.795003 L 51.714998,23.154997 L 51.280005,23.154997 L 51.280005,21.290007 Q 51.055005,21.325 50.889998,21.464998 Q 50.724992,21.604997 50.549992,21.929997 L 50.280005,22.429997 Q 49.869995,23.179997 49.210002,23.179997 Q 48.749992,23.179997 48.459993,22.864998 Q 48.169995,22.55 48.169995,22.045003 Q 48.169995,20.909993 49.399992,20.875" />
      <path d="M 49.094995,25.895003 Q 48.660002,25.829997 48.414998,25.5625 Q 48.169995,25.295003 48.169995,24.88999 Q 48.169995,24.71499 48.209993,24.557495 Q 48.249992,24.4 48.377498,24.222502 Q 48.505005,24.045003 48.710002,23.917497 Q 48.914998,23.78999 49.272502,23.704997 Q 49.630005,23.620003 50.099992,23.620003 Q 51.830005,23.620003 51.830005,24.809993 Q 51.830005,25.31499 51.492505,25.642497 Q 51.155005,25.970003 50.635002,25.970003 Q 50.139998,25.970003 49.825,25.664998 Q 49.510002,25.359993 49.510002,24.884993 Q 49.510002,24.359993 49.905005,24.070003 Q 49.255005,24.075 48.907503,24.277498 Q 48.560002,24.479997 48.560002,24.859993 Q 48.560002,25.08999 48.7,25.244995 Q 48.839998,25.4 49.094995,25.454997 L 49.094995,25.895003 M 49.899992,24.829997 Q 49.899992,25.15 50.107495,25.335002 Q 50.314998,25.520003 50.669995,25.520003 Q 51.005005,25.520003 51.222502,25.320003 Q 51.439998,25.120003 51.439998,24.81499 Q 51.439998,24.504997 51.2125,24.3 Q 50.985002,24.095003 50.644995,24.095003 Q 50.314998,24.095003 50.107495,24.3 Q 49.899992,24.504997 49.899992,24.829997" />
      <path d="M -89.25,89.25 L -133.5,89.25 L -133.5,89.0 L -133.75,89.0 L -133.75,44.75 L -143.5,44.75 L -143.5,44.25 L -133.75,44.25 L -133.75,0.25 L -143.5,0.25 L -143.5,-0.25 L -133.75,-0.25 L -133.75,-44.25 L -143.5,-44.25 L -143.5,-44.75 L -133.75,-44.75 L -133.75,-89.0 L -133.5,-89.0 L -133.5,-89.25 L -89.25,-89.25 L -89.25,-99.0 L -88.75,-99.0 L -88.75,-89.25 L -44.75,-89.25 L -44.75,-99.0 L -44.25,-99.0 L -44.25,-89.25 L -0.25,-89.25 L -0.25,-99.0 L 0.25,-99.0 L 0.25,-89.25 L 44.25,-89.25 L 44.25,-99.0 L 44.75,-99.0 L 44.75,-89.25 L 88.75,-89.25 L 88.75,-99.0 L 89.25,-99.0 L 89.25,-89.25 L 133.5,-89.25 L 133.5,-89.0 L 133.75,-89.0 L 133.75,-44.75 L 143.5,-44.75 L 143.5,-44.25 L 133.75,-44.25 L 133.75,-0.25 L 143.5,-0.25 L 143.5,0.25 L 133.75,0.25 L 133.75,44.25 L 143.5,44.25 L 143.5,44.75 L 133.75,44.75 L 133.75,89.0 L 133.5,89.0 L 133.5,89.25 L 89.25,89.25 L 89.25,99.0 L 88.75,99.0 L 88.75,89.25 L 44.75,89.25 L 44.75,99.0 L 44.25,99.0 L 44.25,89.25 L 0.25,89.25 L 0.25,99.0 L -0.25,99.0 L -0.25,89.25 L -44.25,89.25 L -44.25,99.0 L -44.75,99.0 L -44.75,89.25 L -88.75,89.25 L -88.75,99.0 L -89.25,99.0 L -89.25,89.25 M -133.25,88.75 L 133.25,88.75 L 133.25,-44.25 L 0.0,-44.25 L 0.0,-44.5 L -0.25,-44.5 L -0.25,-88.75 L -133.25,-88.75 L -133.25,88.75 M 133.25,-44.75 L 133.25,-59.083333 L 44.75,-59.083333 L 44.75,-44.75 L 133.25,-44.75 M 133.25,-74.416667 L 133.25,-88.75 L 89.25,-88.75 L 89.25,-74.416667 L 133.25,-74.416667 M 133.25,-59.583333 L 133.25,-73.916667 L 44.75,-73.916667 L 44.75,-59.583333 L 133.25,-59.583333 M 0.25,-44.75 L 44.25,-44.75 L 44.25,-59.083333 L 0.25,-59.083333 L 0.25,-44.75 M 44.25,-88.75 L 0.25,-88.75 L 0.25,-74.416667 L 44.25,-74.416667 L 44.25,-88.75 M 44.75,-74.416667 L 88.75,-74.416667 L 88.75,-88.75 L 44.75,-88.75 L 44.75,-74.416667 M 0.25,-73.916667 L 0.25,-59.583333 L 44.25,-59.583333 L 44.25,-73.916667 L 0.25,-73.916667" />
      <path d="M -140.65498,-65.245003 L -140.65498,-70.295003 L -139.775,-70.295003 L -139.775,-63.204997 L -140.35498,-63.204997 Q -140.584993,-64.025016 -140.894987,-64.255013 Q -141.20498,-64.48501 -142.225,-64.61499 L -142.225,-65.245003 L -140.65498,-65.245003" />
      <path d="M 141.34502,-65.245003 L 141.34502,-70.295003 L 142.225,-70.295003 L 142.225,-63.204997 L 141.64502,-63.204997 Q 141.415007,-64.025016 141.105013,-64.255013 Q 140.79502,-64.48501 139.775,-64.61499 L 139.775,-65.245003 L 141.34502,-65.245003" />
      <path d="M -143.225,-21.16499 L -142.344987,-21.16499 Q -142.244987,-19.475016 -140.915007,-19.475016 Q -140.315007,-19.475016 -139.915007,-19.855013 Q -139.515007,-20.23501 -139.515007,-20.804997 Q -139.515007,-21.654997 -140.475,-22.204997 L -141.394987,-22.725016 Q -142.505013,-23.354997 -142.915007,-23.990007 Q -143.325,-24.625016 -143.384993,-25.795003 L -138.665007,-25.795003 L -138.665007,-24.925016 L -142.394987,-24.925016 Q -142.325,-24.475016 -142.045003,-24.145003 Q -141.765007,-23.81499 -141.115007,-23.46499 L -140.115007,-22.925016 Q -138.615007,-22.104997 -138.615007,-20.78501 Q -138.615007,-19.86499 -139.245003,-19.284993 Q -139.875,-18.704997 -140.884993,-18.704997 Q -143.155013,-18.704997 -143.225,-21.16499" />
      <path d="M 138.775,-21.16499 L 139.655013,-21.16499 Q 139.755013,-19.475016 141.084993,-19.475016 Q 141.684993,-19.475016 142.084993,-19.855013 Q 142.484993,-20.23501 142.484993,-20.804997 Q 142.484993,-21.654997 141.525,-22.204997 L 140.605013,-22.725016 Q 139.494987,-23.354997 139.084993,-23.990007 Q 138.675,-24.625016 138.615007,-25.795003 L 143.334993,-25.795003 L 143.334993,-24.925016 L 139.605013,-24.925016 Q 139.675,-24.475016 139.954997,-24.145003 Q 140.234993,-23.81499 140.884993,-23.46499 L 141.884993,-22.925016 Q 143.384993,-22.104997 143.384993,-20.78501 Q 143.384993,-19.86499 142.754997,-19.284993 Q 142.125,-18.704997 141.115007,-18.704997 Q 138.844987,-18.704997 138.775,-21.16499" />
      <path d="M -142.33999,23.620003 Q -142.320003,24.31001 -142.034993,24.725 Q -141.749984,25.13999 -140.98999,25.13999 Q -140.409977,25.13999 -140.074984,24.81499 Q -139.73999,24.48999 -139.73999,23.929997 Q -139.73999,23.279997 -140.134993,23.059993 Q -140.529997,22.83999 -141.479997,22.820003 L -141.479997,22.070003 L -141.370003,22.070003 L -140.999984,22.079997 Q -139.529997,22.079997 -139.529997,20.78999 Q -139.529997,20.120003 -139.919987,19.745003 Q -140.309977,19.370003 -140.999984,19.370003 Q -141.720003,19.370003 -142.079997,19.740007 Q -142.43999,20.11001 -142.48999,20.879997 L -143.370003,20.879997 Q -143.209977,18.58999 -141.029997,18.58999 Q -139.93999,18.58999 -139.284993,19.18999 Q -138.629997,19.78999 -138.629997,20.800016 Q -138.629997,21.479997 -138.909993,21.875 Q -139.18999,22.270003 -139.829997,22.48999 Q -138.83999,22.879997 -138.83999,23.96001 Q -138.83999,24.870003 -139.41499,25.390007 Q -139.98999,25.91001 -140.999984,25.91001 Q -143.170003,25.91001 -143.220003,23.620003 L -142.33999,23.620003" />
      <path d="M 139.66001,23.620003 Q 139.679997,24.31001 139.965007,24.725 Q 140.250016,25.13999 141.01001,25.13999 Q 141.590023,25.13999 141.925016,24.81499 Q 142.26001,24.48999 142.26001,23.929997 Q 142.26001,23.279997 141.865007,23.059993 Q 141.470003,22.83999 140.520003,22.820003 L 140.520003,22.070003 L 140.629997,22.070003 L 141.000016,22.079997 Q 142.470003,22.079997 142.470003,20.78999 Q 142.470003,20.120003 142.080013,19.745003 Q 141.690023,19.370003 141.000016,19.370003 Q 140.279997,19.370003 139.920003,19.740007 Q 139.56001,20.11001 139.51001,20.879997 L 138.629997,20.879997 Q 138.790023,18.58999 140.970003,18.58999 Q 142.06001,18.58999 142.715007,19.18999 Q 143.370003,19.78999 143.370003,20.800016 Q 143.370003,21.479997 143.090007,21.875 Q 142.81001,22.270003 142.170003,22.48999 Q 143.16001,22.879997 143.16001,23.96001 Q 143.16001,24.870003 142.58501,25.390007 Q 142.01001,25.91001 141.000016,25.91001 Q 138.829997,25.91001 138.779997,23.620003 L 139.66001,23.620003" />
      <path d="M -140.47002,64.904997 L -140.47002,63.204997 L -139.590007,63.204997 L -139.590007,64.904997 L -138.540007,64.904997 L -138.540007,65.695003 L -139.590007,65.695003 L -139.590007,70.295003 L -140.240007,70.295003 L -143.459993,65.83501 L -143.459993,64.904997 L -140.47002,64.904997 M -140.47002,65.695003 L -142.690007,65.695003 L -140.47002,68.795003 L -140.47002,65.695003" />
      <path d="M 141.52998,64.904997 L 141.52998,63.204997 L 142.409993,63.204997 L 142.409993,64.904997 L 143.459993,64.904997 L 143.459993,65.695003 L 142.409993,65.695003 L 142.409993,70.295003 L 141.759993,70.295003 L 138.540007,65.83501 L 138.540007,64.904997 L 141.52998,64.904997 M 141.52998,65.695003 L 139.309993,65.695003 L 141.52998,68.795003 L 141.52998,65.695003" />
      <path d="M -112.76499,-96.825016 L -109.28501,-96.825016 L -109.28501,-96.004997 L -112.76499,-96.004997 L -112.76499,-93.675016 L -108.804997,-93.675016 L -108.804997,-92.854997 L -113.695003,-92.854997 L -113.695003,-100.145003 L -112.76499,-100.145003 L -112.76499,-96.825016" />
      <path d="M -112.76499,96.174984 L -109.28501,96.174984 L -109.28501,96.995003 L -112.76499,96.995003 L -112.76499,99.324984 L -108.804997,99.324984 L -108.804997,100.145003 L -113.695003,100.145003 L -113.695003,92.854997 L -112.76499,92.854997 L -112.76499,96.174984" />
      <path d="M -68.434993,-96.825016 L -64.465007,-96.825016 L -64.465007,-96.004997 L -68.434993,-96.004997 L -68.434993,-93.675016 L -64.315007,-93.675016 L -64.315007,-92.854997 L -69.365007,-92.854997 L -69.365007,-100.145003 L -64.134993,-100.145003 L -64.134993,-99.325016 L -68.434993,-99.325016 L -68.434993,-96.825016" />
      <path d="M -68.434993,96.174984 L -64.465007,96.174984 L -64.465007,96.995003 L -68.434993,96.995003 L -68.434993,99.324984 L -64.315007,99.324984 L -64.315007,100.145003 L -69.365007,100.145003 L -69.365007,92.854997 L -64.134993,92.854997 L -64.134993,93.674984 L -68.434993,93.674984 L -68.434993,96.174984" />
      <path d="M -25.140007,-100.145003 L -22.330013,-100.145003 Q -20.95,-100.145003 -20.154997,-99.170003 Q -19.359993,-98.195003 -19.359993,-96.495003 Q -19.359993,-94.795003 -20.15,-93.825 Q -20.940007,-92.854997 -22.330013,-92.854997 L -25.140007,-92.854997 L -25.140007,-100.145003 M -24.209993,-99.325016 L -24.209993,-93.675016 L -22.490007,-93.675016 Q -21.409993,-93.675016 -20.85,-94.395003 Q -20.290007,-95.11499 -20.290007,-96.504997 Q -20.290007,-97.88501 -20.85,-98.605013 Q -21.409993,-99.325016 -22.490007,-99.325016 L -24.209993,-99.325016" />
      <path d="M -25.140007,92.854997 L -22.330013,92.854997 Q -20.95,92.854997 -20.154997,93.829997 Q -19.359993,94.804997 -19.359993,96.504997 Q -19.359993,98.204997 -20.15,99.175 Q -20.940007,100.145003 -22.330013,100.145003 L -25.140007,100.145003 L -25.140007,92.854997 M -24.209993,93.674984 L -24.209993,99.324984 L -22.490007,99.324984 Q -21.409993,99.324984 -20.85,98.604997 Q -20.290007,97.88501 -20.290007,96.495003 Q -20.290007,95.11499 -20.85,94.394987 Q -21.409993,93.674984 -22.490007,93.674984 L -24.209993,93.674984" />
      <path d="M 25.245003,-95.059977 Q 24.81499,-92.679997 22.43501,-92.679997 Q 21.674984,-92.679997 21.069987,-92.93999 Q 20.46499,-93.199984 20.109993,-93.594987 Q 19.754997,-93.98999 19.51499,-94.519987 Q 19.274984,-95.049984 19.18999,-95.53999 Q 19.104997,-96.029997 19.104997,-96.529997 Q 19.104997,-97.020003 19.18999,-97.5 Q 19.274984,-97.979997 19.509993,-98.504997 Q 19.745003,-99.029997 20.1,-99.419987 Q 20.454997,-99.809977 21.05,-100.06499 Q 21.645003,-100.320003 22.395003,-100.320003 Q 25.06499,-100.320003 25.395003,-97.429997 L 24.43501,-97.429997 Q 24.26499,-98.48999 23.784993,-98.994987 Q 23.304997,-99.499984 22.404997,-99.499984 Q 21.31499,-99.499984 20.675,-98.694987 Q 20.03501,-97.88999 20.03501,-96.520003 Q 20.03501,-95.120003 20.65,-94.309993 Q 21.26499,-93.499984 22.324984,-93.499984 Q 23.195003,-93.499984 23.665007,-93.88999 Q 24.13501,-94.279997 24.295003,-95.059977 L 25.245003,-95.059977" />
      <path d="M 25.245003,97.940023 Q 24.81499,100.320003 22.43501,100.320003 Q 21.674984,100.320003 21.069987,100.06001 Q 20.46499,99.800016 20.109993,99.405013 Q 19.754997,99.01001 19.51499,98.480013 Q 19.274984,97.950016 19.18999,97.46001 Q 19.104997,96.970003 19.104997,96.470003 Q 19.104997,95.979997 19.18999,95.5 Q 19.274984,95.020003 19.509993,94.495003 Q 19.745003,93.970003 20.1,93.580013 Q 20.454997,93.190023 21.05,92.93501 Q 21.645003,92.679997 22.395003,92.679997 Q 25.06499,92.679997 25.395003,95.570003 L 24.43501,95.570003 Q 24.26499,94.51001 23.784993,94.005013 Q 23.304997,93.500016 22.404997,93.500016 Q 21.31499,93.500016 20.675,94.305013 Q 20.03501,95.11001 20.03501,96.479997 Q 20.03501,97.879997 20.65,98.690007 Q 21.26499,99.500016 22.324984,99.500016 Q 23.195003,99.500016 23.665007,99.11001 Q 24.13501,98.720003 24.295003,97.940023 L 25.245003,97.940023" />
      <path d="M 67.320003,-100.145003 Q 68.28999,-100.145003 68.879997,-99.575 Q 69.470003,-99.004997 69.470003,-98.06499 Q 69.470003,-97.404997 69.154997,-96.984993 Q 68.83999,-96.56499 68.13999,-96.295003 C 68.813319,-95.981679 69.149984,-95.451676 69.149984,-94.704997 C 69.147379,-94.290111 69.027588,-93.904893 68.724984,-93.509993 C 68.574984,-93.313325 68.349984,-93.154991 68.049984,-93.034993 C 67.749984,-92.914996 67.396653,-92.854997 66.98999,-92.854997 L 64.029997,-92.854997 L 64.029997,-100.145003 L 67.320003,-100.145003 M 66.76001,-93.675016 Q 68.220003,-93.675016 68.220003,-94.83501 Q 68.220003,-95.995003 66.76001,-95.995003 L 64.96001,-95.995003 L 64.96001,-93.675016 L 66.76001,-93.675016 M 67.229997,-99.325016 L 64.96001,-99.325016 L 64.96001,-96.81499 L 67.229997,-96.81499 Q 67.86001,-96.81499 68.2,-97.159993 Q 68.53999,-97.504997 68.53999,-98.075016 Q 68.53999,-98.375016 68.43999,-98.63501 Q 68.33999,-98.895003 68.029997,-99.11001 Q 67.720003,-99.325016 67.229997,-99.325016" />
      <path d="M 67.320003,92.854997 Q 68.28999,92.854997 68.879997,93.425 Q 69.470003,93.995003 69.470003,94.93501 Q 69.470003,95.595003 69.154997,96.015007 Q 68.83999,96.43501 68.13999,96.704997 C 68.813319,97.018321 69.149984,97.548324 69.149984,98.295003 C 69.147379,98.709889 69.027588,99.095107 68.724984,99.490007 C 68.574984,99.686675 68.349984,99.845009 68.049984,99.965007 C 67.749984,100.085004 67.396653,100.145003 66.98999,100.145003 L 64.029997,100.145003 L 64.029997,92.854997 L 67.320003,92.854997 M 66.76001,99.324984 Q 68.220003,99.324984 68.220003,98.16499 Q 68.220003,97.004997 66.76001,97.004997 L 64.96001,97.004997 L 64.96001,99.324984 L 66.76001,99.324984 M 67.229997,93.674984 L 64.96001,93.674984 L 64.96001,96.18501 L 67.229997,96.18501 Q 67.86001,96.18501 68.2,95.840007 Q 68.53999,95.495003 68.53999,94.924984 Q 68.53999,94.624984 68.43999,94.36499 Q 68.33999,94.104997 68.029997,93.88999 Q 67.720003,93.674984 67.229997,93.674984" />
      <path d="M 112.63999,-97.954997 L 113.38999,-100.145003 L 114.429997,-100.145003 L 111.870003,-92.854997 L 110.670003,-92.854997 L 108.070003,-100.145003 L 109.06001,-100.145003 L 109.829997,-97.954997 L 112.63999,-97.954997 M 112.379997,-97.175016 L 110.06001,-97.175016 L 111.26001,-93.854997 L 112.379997,-97.175016" />
      <path d="M 112.63999,95.045003 L 113.38999,92.854997 L 114.429997,92.854997 L 111.870003,100.145003 L 110.670003,100.145003 L 108.070003,92.854997 L 109.06001,92.854997 L 109.829997,95.045003 L 112.63999,95.045003 M 112.379997,95.824984 L 110.06001,95.824984 L 111.26001,99.145003 L 112.379997,95.824984" />
      <path d="M 2.0,-49.404997 L 2.936665,-49.404997 Q 3.396669,-49.404997 3.66167,-49.079997 Q 3.926671,-48.754997 3.926671,-48.18833 Q 3.926671,-47.621663 3.663336,-47.298329 Q 3.4,-46.974995 2.936665,-46.974995 L 2.0,-46.974995 L 2.0,-49.404997 M 2.310004,-49.131668 L 2.310004,-47.248334 L 2.883333,-47.248334 C 3.361951,-47.246599 3.618055,-47.575616 3.616667,-48.191661 C 3.618055,-48.802917 3.361951,-49.133751 2.883333,-49.131668 L 2.310004,-49.131668" />
      <path d="M 4.563346,-48.298334 L 5.886675,-48.298334 L 5.886675,-48.024995 L 4.563346,-48.024995 L 4.563346,-47.248334 L 5.936675,-47.248334 L 5.936675,-46.974995 L 4.253342,-46.974995 L 4.253342,-49.404997 L 5.99668,-49.404997 L 5.99668,-49.131668 L 4.563346,-49.131668 L 4.563346,-48.298334" />
      <path d="M 7.326682,-48.374995 C 7.624461,-48.452772 7.773351,-48.583885 7.773351,-48.768332 C 7.772135,-48.871586 7.745123,-48.957295 7.661681,-49.051666 C 7.580668,-49.14326 7.401029,-49.210064 7.153342,-49.208328 C 7.022237,-49.208328 6.909462,-49.191106 6.815017,-49.156662 C 6.720573,-49.122219 6.649461,-49.076109 6.601682,-49.018332 C 6.553903,-48.960556 6.519457,-48.901667 6.498345,-48.841667 C 6.477234,-48.781666 6.466678,-48.717222 6.466678,-48.648334 L 6.466678,-48.631668 L 6.173351,-48.631668 C 6.175014,-48.896772 6.271678,-49.109337 6.393343,-49.229997 C 6.455565,-49.291108 6.53001,-49.341108 6.616678,-49.379997 C 6.79175,-49.459337 6.949389,-49.480106 7.133344,-49.481668 C 7.277789,-49.481668 7.407234,-49.465001 7.52168,-49.431668 C 7.753871,-49.365176 7.874489,-49.26204 7.966678,-49.12666 C 8.057303,-48.990237 8.081608,-48.868091 8.083344,-48.73833 C 8.083344,-48.589444 8.038345,-48.461666 7.948345,-48.354997 C 7.858346,-48.248327 7.731124,-48.17277 7.566678,-48.128326 L 6.956684,-47.965001 Q 6.736675,-47.904997 6.64668,-47.824995 Q 6.556684,-47.744992 6.556684,-47.604997 Q 6.556684,-47.421663 6.705013,-47.308328 Q 6.853342,-47.194992 7.100011,-47.194992 Q 7.390017,-47.194992 7.54668,-47.323329 Q 7.703342,-47.451666 7.706684,-47.68833 L 8.000011,-47.68833 Q 7.99668,-47.331668 7.763346,-47.133333 Q 7.530013,-46.934999 7.110015,-46.934999 Q 6.710015,-46.934999 6.478348,-47.126666 Q 6.24668,-47.318332 6.24668,-47.648334 Q 6.24668,-48.091661 6.723351,-48.215001 L 7.326682,-48.374995" />
      <path d="M 8.850011,-46.974995 L 8.536675,-46.974995 L 8.536675,-49.404997 L 8.850011,-49.404997 L 8.850011,-46.974995" />
      <path d="M 11.133355,-48.461659 C 11.133355,-48.67944 11.061688,-48.85833 10.918354,-48.998329 C 10.77502,-49.138328 10.592242,-49.208328 10.37002,-49.208328 C 10.236686,-49.208328 10.117797,-49.18555 10.013352,-49.139996 C 9.908907,-49.094441 9.825018,-49.036663 9.761686,-48.966661 C 9.698354,-48.89666 9.646687,-48.814994 9.606684,-48.721663 C 9.525288,-48.533963 9.501412,-48.368255 9.500022,-48.198334 C 9.500022,-47.900555 9.5778,-47.661109 9.733355,-47.479997 C 9.888911,-47.298884 10.095577,-47.208328 10.353353,-47.208328 C 10.537793,-47.208328 10.692792,-47.253328 10.818349,-47.343327 C 10.943906,-47.433326 11.023351,-47.556104 11.056684,-47.711659 L 11.373351,-47.711659 C 11.331127,-47.464994 11.220571,-47.273884 11.041683,-47.13833 C 10.862795,-47.002776 10.634462,-46.934999 10.356684,-46.934999 C 10.178906,-46.934999 10.019463,-46.964442 9.878353,-47.023329 C 9.737243,-47.082216 9.625022,-47.156104 9.541688,-47.244992 C 9.458355,-47.333881 9.388911,-47.437216 9.333355,-47.554997 C 9.219814,-47.791948 9.192448,-48.000272 9.190017,-48.215001 C 9.190017,-48.58833 9.29335,-48.892773 9.500016,-49.128331 C 9.706682,-49.363889 9.974461,-49.481668 10.303353,-49.481668 C 10.625575,-49.481668 10.902243,-49.352776 11.133355,-49.094992 L 11.210015,-49.418332 L 11.406684,-49.418332 L 11.406684,-48.121663 L 10.393349,-48.121663 L 10.393349,-48.394992 L 11.133355,-48.394992 L 11.133355,-48.461659" />
      <path d="M 13.706684,-46.974995 L 13.413346,-46.974995 L 13.413346,-48.961659 L 12.143349,-46.974995 L 11.806684,-46.974995 L 11.806684,-49.404997 L 12.100022,-49.404997 L 12.100022,-47.434999 L 13.356684,-49.404997 L 13.706684,-49.404997 L 13.706684,-46.974995" />
      <path d="M 14.483355,-48.298334 L 15.806684,-48.298334 L 15.806684,-48.024995 L 14.483355,-48.024995 L 14.483355,-47.248334 L 15.856684,-47.248334 L 15.856684,-46.974995 L 14.173351,-46.974995 L 14.173351,-49.404997 L 15.916688,-49.404997 L 15.916688,-49.131668 L 14.483355,-49.131668 L 14.483355,-48.298334" />
      <path d="M 16.283355,-49.404997 L 17.22002,-49.404997 Q 17.680024,-49.404997 17.945025,-49.079997 Q 18.210026,-48.754997 18.210026,-48.18833 Q 18.210026,-47.621663 17.946691,-47.298329 Q 17.683355,-46.974995 17.22002,-46.974995 L 16.283355,-46.974995 L 16.283355,-49.404997 M 16.593359,-49.131668 L 16.593359,-47.248334 L 17.166688,-47.248334 C 17.645306,-47.246599 17.90141,-47.575616 17.900022,-48.191661 C 17.90141,-48.802917 17.645306,-49.133751 17.166688,-49.131668 L 16.593359,-49.131668" />
      <path d="M 20.540028,-49.404997 Q 20.863357,-49.404997 21.060026,-49.214996 Q 21.256695,-49.024995 21.256695,-48.711659 Q 21.256695,-48.491661 21.151693,-48.35166 Q 21.046691,-48.211659 20.813357,-48.121663 C 21.0378,-48.017222 21.150022,-47.840554 21.150022,-47.591661 C 21.149154,-47.453366 21.109223,-47.32496 21.008355,-47.193327 C 20.910612,-47.064471 20.698875,-46.972738 20.430024,-46.974995 L 19.443359,-46.974995 L 19.443359,-49.404997 L 20.540028,-49.404997 M 20.353364,-47.248334 Q 20.840028,-47.248334 20.840028,-47.634999 Q 20.840028,-48.021663 20.353364,-48.021663 L 19.753364,-48.021663 L 19.753364,-47.248334 L 20.353364,-47.248334 M 20.510026,-49.131668 L 19.753364,-49.131668 L 19.753364,-48.294992 L 20.510026,-48.294992 Q 20.72003,-48.294992 20.833361,-48.409993 Q 20.946691,-48.524995 20.946691,-48.715001 Q 20.946691,-48.815001 20.913357,-48.901666 Q 20.880024,-48.98833 20.776693,-49.059999 Q 20.673362,-49.131668 20.510026,-49.131668" />
      <path d="M 22.603364,-48.451666 L 23.516699,-46.974995 L 23.146691,-46.974995 L 22.453364,-48.158328 L 21.740028,-46.974995 L 21.356695,-46.974995 L 22.293359,-48.451666 L 22.293359,-49.404997 L 22.603364,-49.404997 L 22.603364,-48.451666" />
      <path d="M 24.180035,-49.058328 L 23.833366,-49.058328 L 23.833366,-49.404997 L 24.180035,-49.404997 L 24.180035,-49.058328" />
      <path d="M 24.180035,-47.658328 L 23.833366,-47.658328 L 23.833366,-48.004997 L 24.180035,-48.004997 L 24.180035,-47.658328" />
      <path d="M 2.0,-53.744995 L 2.0,-57.389998 L 2.375,-57.389998 L 2.375,-57.055005 Q 2.670003,-57.505005 3.204997,-57.505005 Q 3.725,-57.505005 4.035002,-57.1125 Q 4.345003,-56.719995 4.345003,-56.069995 Q 4.345003,-55.435002 4.045003,-55.064998 Q 3.745003,-54.694995 3.225,-54.694995 Q 2.7,-54.694995 2.415007,-55.124992 L 2.415007,-53.744995 L 2.0,-53.744995 M 3.145003,-55.085002 Q 3.495003,-55.085002 3.702498,-55.364998 Q 3.909994,-55.644995 3.909994,-56.114998 Q 3.909994,-56.560002 3.697494,-56.8375 Q 3.484994,-57.114998 3.145003,-57.114998 Q 2.815007,-57.114998 2.615007,-56.8375 Q 2.415007,-56.560002 2.415007,-56.1 Q 2.415007,-55.639998 2.615007,-55.3625 Q 2.815007,-55.085002 3.145003,-55.085002" />
      <path d="M 6.854997,-57.389998 L 6.854997,-54.769995 L 6.440007,-54.769995 L 6.440007,-56.255005 Q 6.440007,-56.655005 6.245003,-56.897502 Q 6.05,-57.139998 5.725,-57.139998 Q 5.475,-57.139998 5.330005,-57.0 Q 5.18501,-56.860002 5.18501,-56.624992 L 5.18501,-54.769995 L 4.770003,-54.769995 L 4.770003,-56.789998 Q 4.770003,-57.114998 4.997502,-57.310002 Q 5.225,-57.505005 5.604997,-57.505005 Q 5.895003,-57.505005 6.095003,-57.395003 Q 6.295003,-57.285002 6.479997,-57.024992 L 6.479997,-57.389998 L 6.854997,-57.389998" />
      <path d="M 7.86499,-54.769995 L 7.449984,-54.769995 L 7.449984,-57.389998 L 7.86499,-57.389998 L 7.86499,-54.769995" />
      <path d="M 7.86499,-53.744995 L 7.444987,-53.744995 L 7.444987,-54.269995 L 7.86499,-54.269995 L 7.86499,-53.744995" />
      <path d="M 8.904981,-53.744995 L 8.484977,-53.744995 L 8.484977,-57.389998 L 8.904981,-57.389998 L 8.904981,-53.744995" />
      <path d="M 11.699984,-53.744995 L 11.284977,-53.744995 L 11.284977,-55.099992 Q 11.019987,-54.694995 10.479981,-54.694995 Q 9.969987,-54.694995 9.662484,-55.072493 Q 9.354981,-55.449992 9.354981,-56.074992 Q 9.354981,-56.739998 9.659977,-57.122502 Q 9.964974,-57.505005 10.494987,-57.505005 Q 10.764974,-57.505005 10.962476,-57.397502 Q 11.159977,-57.289998 11.329981,-57.044995 L 11.329981,-57.389998 L 11.699984,-57.389998 L 11.699984,-53.744995 M 10.549984,-55.085002 Q 10.884977,-55.085002 11.084977,-55.3625 Q 11.284977,-55.639998 11.284977,-56.110002 Q 11.284977,-56.564998 11.084977,-56.839998 Q 10.884977,-57.114998 10.554981,-57.114998 Q 10.209977,-57.114998 9.999976,-56.8375 Q 9.789974,-56.560002 9.789974,-56.099992 Q 9.789974,-55.644995 9.999976,-55.364998 Q 10.209977,-55.085002 10.549984,-55.085002" />
      <path d="M 13.294987,-54.864998 L 13.294987,-57.389998 L 13.734977,-57.389998 L 13.734977,-53.844995 L 13.444987,-53.844995 Q 13.329981,-54.255005 13.174984,-54.370003 Q 13.019987,-54.485002 12.509977,-54.549992 L 12.509977,-54.864998 L 13.294987,-54.864998" />
      <path d="M 15.029981,-55.074992 L 15.469987,-55.074992 Q 15.519987,-54.230005 16.184977,-54.230005 Q 16.484977,-54.230005 16.684977,-54.420003 Q 16.884977,-54.610002 16.884977,-54.894995 Q 16.884977,-55.319995 16.404981,-55.594995 L 15.944987,-55.855005 Q 15.389974,-56.169995 15.184977,-56.4875 Q 14.979981,-56.805005 14.949984,-57.389998 L 17.309977,-57.389998 L 17.309977,-56.955005 L 15.444987,-56.955005 Q 15.479981,-56.730005 15.619979,-56.564998 Q 15.759977,-56.399992 16.084977,-56.224992 L 16.584977,-55.955005 Q 17.334977,-55.544995 17.334977,-54.885002 Q 17.334977,-54.424992 17.019979,-54.134993 Q 16.704981,-53.844995 16.199984,-53.844995 Q 15.064974,-53.844995 15.029981,-55.074992" />
      <path d="M 18.234977,-54.989998 Q 18.244971,-54.644995 18.387476,-54.4375 Q 18.529981,-54.230005 18.909977,-54.230005 Q 19.199984,-54.230005 19.367481,-54.392505 Q 19.534977,-54.555005 19.534977,-54.835002 Q 19.534977,-55.160002 19.337476,-55.270003 Q 19.139974,-55.380005 18.664974,-55.389998 L 18.664974,-55.764998 L 18.719971,-55.764998 L 18.904981,-55.760002 Q 19.639974,-55.760002 19.639974,-56.405005 Q 19.639974,-56.739998 19.444979,-56.927498 Q 19.249984,-57.114998 18.904981,-57.114998 Q 18.544971,-57.114998 18.364974,-56.929997 Q 18.184977,-56.744995 18.159977,-56.360002 L 17.719971,-56.360002 Q 17.799984,-57.505005 18.889974,-57.505005 Q 19.434977,-57.505005 19.762476,-57.205005 Q 20.089974,-56.905005 20.089974,-56.399992 Q 20.089974,-56.060002 19.949976,-55.8625 Q 19.809977,-55.664998 19.489974,-55.555005 Q 19.984977,-55.360002 19.984977,-54.819995 Q 19.984977,-54.364998 19.697477,-54.104997 Q 19.409977,-53.844995 18.904981,-53.844995 Q 17.819971,-53.844995 17.794971,-54.989998 L 18.234977,-54.989998" />
      <path d="M 22.834977,-53.744995 L 22.419971,-53.744995 L 22.419971,-55.099992 Q 22.154981,-54.694995 21.614974,-54.694995 Q 21.104981,-54.694995 20.797477,-55.072493 Q 20.489974,-55.449992 20.489974,-56.074992 Q 20.489974,-56.739998 20.794971,-57.122502 Q 21.099968,-57.505005 21.629981,-57.505005 Q 21.899968,-57.505005 22.097469,-57.397502 Q 22.294971,-57.289998 22.464974,-57.044995 L 22.464974,-57.389998 L 22.834977,-57.389998 L 22.834977,-53.744995 M 21.684977,-55.085002 Q 22.019971,-55.085002 22.219971,-55.3625 Q 22.419971,-55.639998 22.419971,-56.110002 Q 22.419971,-56.564998 22.219971,-56.839998 Q 22.019971,-57.114998 21.689974,-57.114998 Q 21.344971,-57.114998 21.134969,-56.8375 Q 20.924968,-56.560002 20.924968,-56.099992 Q 20.924968,-55.644995 21.134969,-55.364998 Q 21.344971,-55.085002 21.684977,-55.085002" />
      <path d="M 2.0,-64.256668 L 2.936665,-64.256668 Q 3.396669,-64.256668 3.66167,-63.931668 Q 3.926671,-63.606668 3.926671,-63.040001 Q 3.926671,-62.473334 3.663336,-62.15 Q 3.4,-61.826666 2.936665,-61.826666 L 2.0,-61.826666 L 2.0,-64.256668 M 2.310004,-63.983339 L 2.310004,-62.100005 L 2.883333,-62.100005 C 3.361951,-62.09827 3.618055,-62.427287 3.616667,-63.043332 C 3.618055,-63.654588 3.361951,-63.985422 2.883333,-63.983339 L 2.310004,-63.983339" />
      <path d="M 5.566667,-63.526666 L 5.816667,-64.256668 L 6.163336,-64.256668 L 5.310004,-61.826666 L 4.910004,-61.826666 L 4.043338,-64.256668 L 4.37334,-64.256668 L 4.630002,-63.526666 L 5.566667,-63.526666 M 5.480002,-63.266672 L 4.706673,-63.266672 L 5.106673,-62.159999 L 5.480002,-63.266672" />
      <path d="M 7.356673,-62.100005 L 8.153331,-62.100005 L 8.153331,-61.826666 L 6.246669,-61.826666 L 6.246669,-62.100005 L 7.046669,-62.100005 L 7.046669,-64.256668 L 7.356673,-64.256668 L 7.356673,-62.100005" />
      <path d="M 8.769998,-63.150005 L 10.093327,-63.150005 L 10.093327,-62.876666 L 8.769998,-62.876666 L 8.769998,-62.100005 L 10.143327,-62.100005 L 10.143327,-61.826666 L 8.459994,-61.826666 L 8.459994,-64.256668 L 10.203331,-64.256668 L 10.203331,-63.983339 L 8.769998,-63.983339 L 8.769998,-63.150005" />
      <path d="M 10.916667,-62.509999 L 10.569998,-62.509999 L 10.569998,-62.856668 L 10.916667,-62.856668 L 10.916667,-62.509999" />
      <path d="M 10.916667,-63.909999 L 10.569998,-63.909999 L 10.569998,-64.256668 L 10.916667,-64.256668 L 10.916667,-63.909999" />
      <path d="M 2.079997,-69.858325 L 2.520003,-69.858325 Q 2.570003,-69.013338 3.234994,-69.013338 Q 3.534994,-69.013338 3.734994,-69.203337 Q 3.934994,-69.393335 3.934994,-69.678328 Q 3.934994,-70.103328 3.454997,-70.378328 L 2.995003,-70.638338 Q 2.43999,-70.953328 2.234994,-71.270833 Q 2.029997,-71.588338 2.0,-72.173332 L 4.359994,-72.173332 L 4.359994,-71.738338 L 2.495003,-71.738338 Q 2.529997,-71.513338 2.669995,-71.348332 Q 2.809994,-71.183325 3.134994,-71.008325 L 3.634994,-70.738338 Q 4.384994,-70.328328 4.384994,-69.668335 Q 4.384994,-69.208325 4.069995,-68.918327 Q 3.754997,-68.628328 3.25,-68.628328 Q 2.11499,-68.628328 2.079997,-69.858325" />
      <path d="M 4.825,-70.458325 Q 4.825,-71.353328 5.119995,-71.820833 Q 5.41499,-72.288338 5.984994,-72.288338 Q 6.55,-72.288338 6.847494,-71.825838 Q 7.144987,-71.363338 7.144987,-70.488338 Q 7.144987,-68.628328 5.984994,-68.628328 Q 5.819987,-68.628328 5.672494,-68.668327 Q 5.525,-68.708325 5.364998,-68.828328 Q 5.204997,-68.948332 5.089998,-69.140828 Q 4.975,-69.333325 4.9,-69.673332 Q 4.825,-70.013338 4.825,-70.458325 M 6.694987,-70.448332 Q 6.694987,-71.203328 6.519987,-71.56333 Q 6.344987,-71.923332 5.975,-71.923332 Q 5.275,-71.923332 5.275,-70.463338 Q 5.275,-69.018335 5.984994,-69.018335 Q 6.694987,-69.018335 6.694987,-70.448332" />
      <path d="M 7.63999,-69.858325 L 8.079997,-69.858325 Q 8.129997,-69.013338 8.794987,-69.013338 Q 9.094987,-69.013338 9.294987,-69.203337 Q 9.494987,-69.393335 9.494987,-69.678328 Q 9.494987,-70.103328 9.01499,-70.378328 L 8.554997,-70.638338 Q 7.999984,-70.953328 7.794987,-71.270833 Q 7.58999,-71.588338 7.559994,-72.173332 L 9.919987,-72.173332 L 9.919987,-71.738338 L 8.054997,-71.738338 Q 8.08999,-71.513338 8.229989,-71.348332 Q 8.369987,-71.183325 8.694987,-71.008325 L 9.194987,-70.738338 Q 9.944987,-70.328328 9.944987,-69.668335 Q 9.944987,-69.208325 9.629989,-68.918327 Q 9.31499,-68.628328 8.809994,-68.628328 Q 7.674984,-68.628328 7.63999,-69.858325" />
      <path d="M 10.844987,-69.773332 Q 10.854981,-69.428328 10.997485,-69.220833 Q 11.13999,-69.013338 11.519987,-69.013338 Q 11.809994,-69.013338 11.97749,-69.175838 Q 12.144987,-69.338338 12.144987,-69.618335 Q 12.144987,-69.943335 11.947485,-70.053337 Q 11.749984,-70.163338 11.274984,-70.173332 L 11.274984,-70.548332 L 11.329981,-70.548332 L 11.51499,-70.543335 Q 12.249984,-70.543335 12.249984,-71.188338 Q 12.249984,-71.523332 12.054989,-71.710832 Q 11.859994,-71.898332 11.51499,-71.898332 Q 11.154981,-71.898332 10.974984,-71.71333 Q 10.794987,-71.528328 10.769987,-71.143335 L 10.329981,-71.143335 Q 10.409994,-72.288338 11.499984,-72.288338 Q 12.044987,-72.288338 12.372485,-71.988338 Q 12.699984,-71.688338 12.699984,-71.183325 Q 12.699984,-70.843335 12.559985,-70.645833 Q 12.419987,-70.448332 12.099984,-70.338338 Q 12.594987,-70.143335 12.594987,-69.603328 Q 12.594987,-69.148332 12.307487,-68.88833 Q 12.019987,-68.628328 11.51499,-68.628328 Q 10.429981,-68.628328 10.404981,-69.773332 L 10.844987,-69.773332" />
      <path d="M 14.384977,-70.613338 L 13.179981,-70.613338 L 13.179981,-70.973332 L 14.384977,-70.973332 L 14.384977,-70.613338" />
      <path d="M 14.829997,-70.458325 Q 14.829997,-71.353328 15.124992,-71.820833 Q 15.419987,-72.288338 15.98999,-72.288338 Q 16.554997,-72.288338 16.85249,-71.825838 Q 17.149984,-71.363338 17.149984,-70.488338 Q 17.149984,-68.628328 15.98999,-68.628328 Q 15.824984,-68.628328 15.67749,-68.668327 Q 15.529997,-68.708325 15.369995,-68.828328 Q 15.209994,-68.948332 15.094995,-69.140828 Q 14.979997,-69.333325 14.904997,-69.673332 Q 14.829997,-70.013338 14.829997,-70.458325 M 16.699984,-70.448332 Q 16.699984,-71.203328 16.524984,-71.56333 Q 16.349984,-71.923332 15.979997,-71.923332 Q 15.279997,-71.923332 15.279997,-70.463338 Q 15.279997,-69.018335 15.98999,-69.018335 Q 16.699984,-69.018335 16.699984,-70.448332" />
      <path d="M 17.659994,-71.363338 Q 17.724984,-71.798332 17.992489,-72.043335 Q 18.259994,-72.288338 18.66499,-72.288338 Q 18.83999,-72.288338 18.999992,-72.248332 Q 19.159994,-72.208325 19.337492,-72.080827 Q 19.51499,-71.953328 19.642489,-71.748332 Q 19.769987,-71.543335 19.854989,-71.185832 Q 19.93999,-70.828328 19.93999,-70.358325 Q 19.93999,-68.628328 18.744987,-68.628328 Q 18.23999,-68.628328 17.912492,-68.965828 Q 17.584994,-69.303328 17.584994,-69.823332 Q 17.584994,-70.318335 17.88999,-70.633333 Q 18.194987,-70.948332 18.674984,-70.948332 Q 19.154981,-70.948332 19.484994,-70.553328 Q 19.479981,-71.203328 19.277482,-71.55083 Q 19.074984,-71.898332 18.694987,-71.898332 Q 18.46499,-71.898332 18.309985,-71.758333 Q 18.154981,-71.618335 18.099984,-71.363338 L 17.659994,-71.363338 M 18.73999,-69.013338 Q 19.049984,-69.013338 19.254989,-69.240837 Q 19.459994,-69.468335 19.459994,-69.813338 Q 19.459994,-70.138338 19.25249,-70.348332 Q 19.044987,-70.558325 18.724984,-70.558325 Q 18.404981,-70.558325 18.219987,-70.35083 Q 18.034994,-70.143335 18.034994,-69.788338 Q 18.034994,-69.453328 18.234994,-69.233333 Q 18.434994,-69.013338 18.73999,-69.013338" />
      <path d="M 21.609977,-70.613338 L 20.404981,-70.613338 L 20.404981,-70.973332 L 21.609977,-70.973332 L 21.609977,-70.613338" />
      <path d="M 23.134994,-69.648332 L 23.134994,-72.173332 L 23.574984,-72.173332 L 23.574984,-68.628328 L 23.284994,-68.628328 Q 23.169987,-69.038338 23.01499,-69.153337 Q 22.859994,-69.268335 22.349984,-69.333325 L 22.349984,-69.648332 L 23.134994,-69.648332" />
      <path d="M 25.409994,-70.308325 Q 24.804981,-70.598332 24.804981,-71.188338 Q 24.804981,-71.673332 25.137484,-71.980835 Q 25.469987,-72.288338 25.994987,-72.288338 Q 26.519987,-72.288338 26.85249,-71.983333 Q 27.184994,-71.678328 27.184994,-71.193335 Q 27.184994,-70.598332 26.574984,-70.308325 Q 26.849984,-70.143335 26.954989,-69.983333 Q 27.059994,-69.823332 27.059994,-69.573332 Q 27.059994,-69.158325 26.762492,-68.893327 Q 26.46499,-68.628328 25.994987,-68.628328 Q 25.524984,-68.628328 25.227482,-68.893327 Q 24.929981,-69.158325 24.929981,-69.573332 Q 24.929981,-69.818335 25.034985,-69.978337 Q 25.13999,-70.138338 25.409994,-70.308325 M 26.442489,-69.170833 Q 26.609994,-69.323332 26.609994,-69.583325 Q 26.609994,-69.833325 26.43999,-69.983325 Q 26.269987,-70.133325 25.994987,-70.133325 Q 25.71499,-70.133325 25.547485,-69.980827 Q 25.379981,-69.828328 25.379981,-69.578328 Q 25.379981,-69.323332 25.547485,-69.170833 Q 25.71499,-69.018335 25.994987,-69.018335 Q 26.274984,-69.018335 26.442489,-69.170833 M 26.529989,-70.695833 Q 26.734994,-70.888338 26.734994,-71.198332 Q 26.734994,-71.513338 26.52749,-71.705835 Q 26.319987,-71.898332 25.984994,-71.898332 Q 25.659994,-71.898332 25.457487,-71.703328 Q 25.254981,-71.508325 25.254981,-71.198332 Q 25.254981,-70.888338 25.459985,-70.695833 Q 25.66499,-70.503328 25.994987,-70.503328 Q 26.324984,-70.503328 26.529989,-70.695833" />
      <path d="M 3.153331,-78.041661 C 3.45111,-78.119439 3.6,-78.250552 3.6,-78.434999 C 3.598784,-78.538252 3.571772,-78.623962 3.48833,-78.718332 C 3.407317,-78.809926 3.227678,-78.876731 2.979991,-78.874995 C 2.848886,-78.874995 2.736111,-78.857773 2.641667,-78.823329 C 2.547222,-78.788885 2.47611,-78.742775 2.428331,-78.684999 C 2.380552,-78.627223 2.346107,-78.568334 2.324995,-78.508333 C 2.303883,-78.448333 2.293327,-78.383889 2.293327,-78.315001 L 2.293327,-78.298334 L 2.0,-78.298334 C 2.001664,-78.563439 2.098327,-78.776003 2.219993,-78.896663 C 2.282214,-78.957775 2.356659,-79.007775 2.443327,-79.046663 C 2.529995,-79.085552 2.614996,-79.11222 2.698329,-79.126666 C 2.781662,-79.141111 2.868884,-79.148334 2.959994,-79.148334 C 3.104438,-79.148334 3.233883,-79.131668 3.348329,-79.098334 C 3.58052,-79.031842 3.701139,-78.928706 3.793327,-78.793327 C 3.883952,-78.656904 3.908257,-78.534757 3.909994,-78.404997 C 3.909994,-78.256111 3.864994,-78.128333 3.774995,-78.021663 C 3.684995,-77.914994 3.557773,-77.839437 3.393327,-77.794992 L 2.783333,-77.631668 Q 2.563325,-77.571663 2.473329,-77.491661 Q 2.383333,-77.411659 2.383333,-77.271663 Q 2.383333,-77.08833 2.531662,-76.974995 Q 2.679991,-76.861659 2.92666,-76.861659 Q 3.216667,-76.861659 3.373329,-76.989996 Q 3.529991,-77.118332 3.533333,-77.354997 L 3.82666,-77.354997 Q 3.823329,-76.998334 3.589996,-76.8 Q 3.356662,-76.601666 2.936665,-76.601666 Q 2.536665,-76.601666 2.304997,-76.793332 Q 2.073329,-76.984999 2.073329,-77.315001 Q 2.073329,-77.758328 2.55,-77.881668 L 3.153331,-78.041661" />
      <path d="M 6.209994,-77.394992 C 6.114435,-76.866108 5.802214,-76.601666 5.273329,-76.601666 C 5.104434,-76.601666 4.952765,-76.630554 4.818321,-76.68833 C 4.683878,-76.746106 4.577212,-76.818884 4.498324,-76.906662 C 4.419436,-76.994441 4.353324,-77.097219 4.299989,-77.214996 C 4.190888,-77.452285 4.165756,-77.661041 4.163325,-77.884999 C 4.165583,-78.10469 4.191617,-78.308089 4.298324,-78.543332 C 4.350548,-78.659999 4.416104,-78.761664 4.494993,-78.848329 C 4.573881,-78.934993 4.679436,-79.006661 4.811659,-79.06333 C 4.943882,-79.12 5.093327,-79.148334 5.259994,-79.148334 C 5.853324,-79.148334 6.186657,-78.827223 6.259994,-78.184999 L 5.939996,-78.184999 C 5.902214,-78.420553 5.82999,-78.594441 5.723324,-78.706662 C 5.616658,-78.818884 5.463325,-78.874995 5.263325,-78.874995 C 5.021101,-78.874995 4.828879,-78.78555 4.686659,-78.606662 C 4.544439,-78.427774 4.473329,-78.186109 4.473329,-77.881668 C 4.473329,-77.570557 4.541661,-77.325 4.678326,-77.144998 C 4.81499,-76.964996 5.0011,-76.874995 5.236654,-76.874995 C 5.626455,-76.874993 5.819093,-77.048336 5.893327,-77.394992 L 6.209994,-77.394992" />
      <path d="M 7.899989,-78.341661 L 8.149989,-79.071663 L 8.496658,-79.071663 L 7.643327,-76.641661 L 7.243327,-76.641661 L 6.37666,-79.071663 L 6.706662,-79.071663 L 6.963325,-78.341661 L 7.899989,-78.341661 M 7.813325,-78.081668 L 7.039996,-78.081668 L 7.439996,-76.974995 L 7.813325,-78.081668" />
      <path d="M 9.039996,-76.641661 L 8.729991,-76.641661 L 8.729991,-79.071663 L 10.239996,-79.071663 L 10.239996,-78.798334 L 9.039996,-78.798334 L 9.039996,-76.641661" />
      <path d="M 10.833333,-77.965001 L 12.156662,-77.965001 L 12.156662,-77.691661 L 10.833333,-77.691661 L 10.833333,-76.915001 L 12.206662,-76.915001 L 12.206662,-76.641661 L 10.523329,-76.641661 L 10.523329,-79.071663 L 12.266667,-79.071663 L 12.266667,-78.798334 L 10.833333,-78.798334 L 10.833333,-77.965001" />
      <path d="M 12.980002,-77.324995 L 12.633333,-77.324995 L 12.633333,-77.671663 L 12.980002,-77.671663 L 12.980002,-77.324995" />
      <path d="M 12.980002,-78.724995 L 12.633333,-78.724995 L 12.633333,-79.071663 L 12.980002,-79.071663 L 12.980002,-78.724995" />
      <path d="M 2.78501,-84.481665 L 2.78501,-87.006665 L 3.225,-87.006665 L 3.225,-83.461662 L 2.93501,-83.461662 Q 2.820003,-83.871672 2.665007,-83.98667 Q 2.51001,-84.101668 2.0,-84.166659 L 2.0,-84.481665 L 2.78501,-84.481665" />
      <path d="M 5.190007,-84.386662 L 4.670003,-84.386662 L 4.670003,-84.906665 L 5.190007,-84.906665 L 5.190007,-84.386662" />
      <path d="M 5.190007,-86.486662 L 4.670003,-86.486662 L 4.670003,-87.006665 L 5.190007,-87.006665 L 5.190007,-86.486662" />
      <path d="M 6.815007,-84.481665 L 6.815007,-87.006665 L 7.254997,-87.006665 L 7.254997,-83.461662 L 6.965007,-83.461662 Q 6.85,-83.871672 6.695003,-83.98667 Q 6.540007,-84.101668 6.029997,-84.166659 L 6.029997,-84.481665 L 6.815007,-84.481665" />
      <path d="M 9.220003,-86.486662 L 8.7,-86.486662 L 8.7,-87.006665 L 9.220003,-87.006665 L 9.220003,-86.486662" />
      <path d="M 9.765007,-85.291659 Q 9.765007,-86.186662 10.060002,-86.654167 Q 10.354997,-87.121672 10.925,-87.121672 Q 11.490007,-87.121672 11.7875,-86.659172 Q 12.084994,-86.196672 12.084994,-85.321672 Q 12.084994,-83.461662 10.925,-83.461662 Q 10.759994,-83.461662 10.6125,-83.50166 Q 10.465007,-83.541659 10.305005,-83.661662 Q 10.145003,-83.781665 10.030005,-83.974162 Q 9.915007,-84.166659 9.840007,-84.506665 Q 9.765007,-84.846672 9.765007,-85.291659 M 11.634994,-85.281665 Q 11.634994,-86.036662 11.459994,-86.396663 Q 11.284994,-86.756665 10.915007,-86.756665 Q 10.215007,-86.756665 10.215007,-85.296672 Q 10.215007,-83.851668 10.925,-83.851668 Q 11.634994,-83.851668 11.634994,-85.281665" />
      <path d="M 49.830013,-48.976676 L 52.219987,-48.976676 L 52.219987,-48.156657 L 46.5,-48.156657 L 46.5,-48.976676 L 48.9,-48.976676 L 48.9,-55.446663 L 49.830013,-55.446663 L 49.830013,-48.976676" />
      <path d="M 54.019987,-50.206657 L 53.189974,-50.206657 L 53.189974,-55.446663 L 54.019987,-55.446663 L 54.019987,-50.206657" />
      <path d="M 54.019987,-48.156657 L 53.17998,-48.156657 L 53.17998,-49.206657 L 54.019987,-49.206657 L 54.019987,-48.156657" />
      <path d="M 57.219987,-50.206657 L 56.359993,-50.206657 L 56.359993,-48.76665 L 55.52998,-48.76665 L 55.52998,-50.206657 L 54.819987,-50.206657 L 54.819987,-50.88667 L 55.52998,-50.88667 L 55.52998,-54.846663 Q 55.52998,-55.246663 55.78999,-55.46167 Q 56.05,-55.676676 56.539974,-55.676676 Q 56.82998,-55.676676 57.219987,-55.606657 L 57.219987,-54.906657 Q 57.069987,-54.946663 56.819987,-54.946663 Q 56.55,-54.946663 56.454997,-54.85166 Q 56.359993,-54.756657 56.359993,-54.476676 L 56.359993,-50.88667 L 57.219987,-50.88667 L 57.219987,-50.206657" />
      <path d="M 58.77998,-48.156657 L 57.939974,-48.156657 L 57.939974,-55.446663 L 58.77998,-55.446663 L 58.77998,-48.156657" />
      <path d="M 60.549967,-53.106657 L 64.409993,-53.106657 Q 64.409993,-50.056657 62.07998,-50.056657 Q 60.989974,-50.056657 60.334977,-50.831657 Q 59.67998,-51.606657 59.67998,-52.896663 Q 59.67998,-54.18667 60.319987,-54.931673 Q 60.959993,-55.676676 62.059993,-55.676676 Q 62.959993,-55.676676 63.549984,-55.196663 Q 64.139974,-54.71665 64.299967,-53.856657 L 63.459993,-53.856657 Q 63.109993,-54.906657 62.089974,-54.906657 Q 61.37998,-54.906657 60.974984,-54.416667 Q 60.569987,-53.926676 60.549967,-53.106657 M 63.519987,-52.426676 L 60.569987,-52.426676 Q 60.619987,-51.696663 61.02998,-51.26167 Q 61.439974,-50.826676 62.069971,-50.826676 Q 62.699967,-50.826676 63.109977,-51.28667 Q 63.519987,-51.746663 63.519987,-52.426676" />
      <path d="M 49.959994,-67.249984 Q 51.3,-67.599984 51.3,-68.429997 Q 51.3,-68.659977 51.225,-68.86499 Q 51.15,-69.070003 50.96499,-69.279997 Q 50.779981,-69.48999 50.38999,-69.619987 Q 50.0,-69.749984 49.439974,-69.749984 Q 48.85,-69.749984 48.425,-69.594987 Q 48.0,-69.43999 47.784994,-69.179997 Q 47.569987,-68.920003 47.474984,-68.65 Q 47.379981,-68.379997 47.379981,-68.070003 L 47.379981,-68.020003 L 46.5,-68.020003 Q 46.509994,-68.620003 46.694987,-69.079997 Q 46.879981,-69.53999 47.159977,-69.81499 Q 47.439974,-70.08999 47.829981,-70.26499 Q 48.219987,-70.43999 48.594987,-70.504997 Q 48.969987,-70.570003 49.379981,-70.570003 Q 50.029981,-70.570003 50.544987,-70.420003 Q 51.059994,-70.270003 51.369987,-70.03999 Q 51.679981,-69.809977 51.879981,-69.50498 Q 52.079981,-69.199984 52.154981,-68.91499 Q 52.229981,-68.629997 52.229981,-68.33999 Q 52.229981,-67.670003 51.824984,-67.18999 Q 51.419987,-66.709977 50.679981,-66.509977 L 48.85,-66.020003 Q 48.189974,-65.83999 47.919987,-65.599984 Q 47.65,-65.359977 47.65,-64.93999 Q 47.65,-64.38999 48.094987,-64.049984 Q 48.539974,-63.709977 49.279981,-63.709977 Q 50.15,-63.709977 50.619987,-64.094987 Q 51.089974,-64.479997 51.1,-65.18999 L 51.979981,-65.18999 Q 51.969987,-64.120003 51.269987,-63.525 Q 50.569987,-62.929997 49.309994,-62.929997 Q 48.109994,-62.929997 47.41499,-63.504997 Q 46.719987,-64.079997 46.719987,-65.070003 Q 46.719987,-66.399984 48.15,-66.770003 L 49.959994,-67.249984" />
      <path d="M 57.339974,-70.33999 L 57.339974,-65.099984 L 56.509994,-65.099984 L 56.509994,-68.070003 Q 56.509994,-68.870003 56.119987,-69.354997 Q 55.729981,-69.83999 55.079981,-69.83999 Q 54.579981,-69.83999 54.28999,-69.559993 Q 54.0,-69.279997 54.0,-68.809977 L 54.0,-65.099984 L 53.169987,-65.099984 L 53.169987,-69.13999 Q 53.169987,-69.78999 53.624984,-70.179997 Q 54.079981,-70.570003 54.839974,-70.570003 Q 55.419987,-70.570003 55.819987,-70.35 Q 56.219987,-70.129997 56.589974,-69.609977 L 56.589974,-70.33999 L 57.339974,-70.33999" />
      <path d="M 58.539974,-63.049984 L 58.539974,-70.33999 L 59.289974,-70.33999 L 59.289974,-69.670003 Q 59.879981,-70.570003 60.949968,-70.570003 Q 61.989974,-70.570003 62.609977,-69.784993 Q 63.229981,-68.999984 63.229981,-67.699984 Q 63.229981,-66.429997 62.629981,-65.68999 Q 62.029981,-64.949984 60.989974,-64.949984 Q 59.939974,-64.949984 59.369987,-65.809977 L 59.369987,-63.049984 L 58.539974,-63.049984 M 60.829981,-65.729997 Q 61.529981,-65.729997 61.944971,-66.28999 Q 62.359961,-66.849984 62.359961,-67.78999 Q 62.359961,-68.679997 61.934961,-69.234993 Q 61.509961,-69.78999 60.829981,-69.78999 Q 60.169987,-69.78999 59.769987,-69.234993 Q 59.369987,-68.679997 59.369987,-67.759993 Q 59.369987,-66.83999 59.769987,-66.284993 Q 60.169987,-65.729997 60.829981,-65.729997" />
      <path d="M 69.659994,-63.870003 L 72.049968,-63.870003 L 72.049968,-63.049984 L 66.329981,-63.049984 L 66.329981,-63.870003 L 68.729981,-63.870003 L 68.729981,-70.33999 L 69.659994,-70.33999 L 69.659994,-63.870003" />
      <path d="M 73.849968,-63.049984 L 73.009961,-63.049984 L 73.009961,-64.099984 L 73.849968,-64.099984 L 73.849968,-63.049984" />
      <path d="M 73.849968,-65.099984 L 73.019955,-65.099984 L 73.019955,-70.33999 L 73.849968,-70.33999 L 73.849968,-65.099984" />
      <path d="M 77.049968,-65.099984 L 76.189974,-65.099984 L 76.189974,-63.659977 L 75.359961,-63.659977 L 75.359961,-65.099984 L 74.649968,-65.099984 L 74.649968,-65.779997 L 75.359961,-65.779997 L 75.359961,-69.73999 Q 75.359961,-70.13999 75.619971,-70.354997 Q 75.879981,-70.570003 76.369955,-70.570003 Q 76.659961,-70.570003 77.049968,-70.499984 L 77.049968,-69.799984 Q 76.899968,-69.83999 76.649968,-69.83999 Q 76.379981,-69.83999 76.284977,-69.744987 Q 76.189974,-69.649984 76.189974,-69.370003 L 76.189974,-65.779997 L 77.049968,-65.779997 L 77.049968,-65.099984" />
      <path d="M 78.609961,-63.049984 L 77.769955,-63.049984 L 77.769955,-70.33999 L 78.609961,-70.33999 L 78.609961,-63.049984" />
      <path d="M 80.379948,-67.999984 L 84.239974,-67.999984 Q 84.239974,-64.949984 81.909961,-64.949984 Q 80.819955,-64.949984 80.164958,-65.724984 Q 79.509961,-66.499984 79.509961,-67.78999 Q 79.509961,-69.079997 80.149968,-69.825 Q 80.789974,-70.570003 81.889974,-70.570003 Q 82.789974,-70.570003 83.379964,-70.08999 Q 83.969955,-69.609977 84.129948,-68.749984 L 83.289974,-68.749984 Q 82.939974,-69.799984 81.919955,-69.799984 Q 81.209961,-69.799984 80.804964,-69.309993 Q 80.399968,-68.820003 80.379948,-67.999984 M 83.349968,-67.320003 L 80.399968,-67.320003 Q 80.449968,-66.58999 80.859961,-66.154997 Q 81.269955,-65.720003 81.899951,-65.720003 Q 82.529948,-65.720003 82.939958,-66.179997 Q 83.349968,-66.63999 83.349968,-67.320003" />
      <path d="M 46.5,-79.071663 L 47.436665,-79.071663 Q 47.896669,-79.071663 48.16167,-78.746663 Q 48.426671,-78.421663 48.426671,-77.854997 Q 48.426671,-77.28833 48.163336,-76.964996 Q 47.9,-76.641661 47.436665,-76.641661 L 46.5,-76.641661 L 46.5,-79.071663 M 46.810004,-78.798334 L 46.810004,-76.915001 L 47.383333,-76.915001 C 47.861951,-76.913266 48.118055,-77.242282 48.116667,-77.858328 C 48.118055,-78.469584 47.861951,-78.800418 47.383333,-78.798334 L 46.810004,-78.798334" />
      <path d="M 50.780002,-78.994992 Q 50.693338,-78.934999 50.663336,-78.841667 Q 50.633333,-78.748334 50.633333,-78.611659 Q 50.633333,-78.584999 50.635004,-78.528331 Q 50.636675,-78.471663 50.636675,-78.441661 Q 50.636675,-78.344992 50.626671,-78.274995 Q 50.616667,-78.204997 50.585004,-78.124995 Q 50.519173,-77.964996 50.303342,-77.871663 Q 50.506673,-77.771663 50.596674,-77.634999 Q 50.686675,-77.498334 50.686675,-77.291661 Q 50.686675,-76.978326 50.495009,-76.809993 Q 50.303342,-76.641661 49.946669,-76.641661 L 48.826671,-76.641661 L 48.826671,-79.071663 L 49.136675,-79.071663 L 49.136675,-78.024995 L 49.936675,-78.024995 C 50.213613,-78.026383 50.335287,-78.159168 50.336675,-78.458328 L 50.336675,-78.674995 Q 50.336675,-78.918332 50.403342,-79.071663 L 50.780002,-79.071663 L 50.780002,-78.994992 M 49.886675,-76.915001 C 50.035561,-76.915001 50.152226,-76.945 50.23667,-77.004997 C 50.321114,-77.064994 50.363336,-77.174995 50.363336,-77.334999 C 50.361601,-77.625624 50.217288,-77.749929 49.886675,-77.751666 L 49.136675,-77.751666 L 49.136675,-76.915001 L 49.886675,-76.915001" />
      <path d="M 52.480002,-78.341661 L 52.730002,-79.071663 L 53.076671,-79.071663 L 52.22334,-76.641661 L 51.82334,-76.641661 L 50.956673,-79.071663 L 51.286675,-79.071663 L 51.543338,-78.341661 L 52.480002,-78.341661 M 52.393338,-78.081668 L 51.620009,-78.081668 L 52.020009,-76.974995 L 52.393338,-78.081668" />
      <path d="M 55.483333,-79.071663 L 56.1,-76.641661 L 55.753342,-76.641661 L 55.306673,-78.615001 L 54.753342,-76.641661 L 54.420009,-76.641661 L 53.880002,-78.615001 L 53.42334,-76.641661 L 53.076671,-76.641661 L 53.7,-79.071663 L 54.040007,-79.071663 L 54.583333,-77.074995 L 55.143338,-79.071663 L 55.483333,-79.071663" />
      <path d="M 56.730002,-76.641661 L 56.416667,-76.641661 L 56.416667,-79.071663 L 56.730002,-79.071663 L 56.730002,-76.641661" />
      <path d="M 59.110004,-76.641661 L 58.816667,-76.641661 L 58.816667,-78.628326 L 57.546669,-76.641661 L 57.210004,-76.641661 L 57.210004,-79.071663 L 57.503342,-79.071663 L 57.503342,-77.101666 L 58.760004,-79.071663 L 59.110004,-79.071663 L 59.110004,-76.641661" />
      <path d="M 61.420009,-78.128326 C 61.420009,-78.346106 61.348342,-78.524996 61.205008,-78.664996 C 61.061674,-78.804995 60.878895,-78.874995 60.656673,-78.874995 C 60.52334,-78.874995 60.404451,-78.852217 60.300006,-78.806662 C 60.19556,-78.761107 60.111672,-78.703329 60.04834,-78.633328 C 59.985008,-78.563326 59.933341,-78.481661 59.893338,-78.38833 C 59.811942,-78.200629 59.788066,-78.034921 59.786675,-77.865001 C 59.786675,-77.567222 59.864453,-77.327776 60.020009,-77.146663 C 60.175564,-76.965551 60.38223,-76.874995 60.640007,-76.874995 C 60.824447,-76.874995 60.979445,-76.919994 61.105002,-77.009993 C 61.230559,-77.099993 61.310004,-77.22277 61.343338,-77.378326 L 61.660004,-77.378326 C 61.617781,-77.131661 61.507225,-76.940551 61.328337,-76.804997 C 61.149449,-76.669443 60.921116,-76.601666 60.643338,-76.601666 C 60.46556,-76.601666 60.306116,-76.631109 60.165007,-76.689996 C 60.023897,-76.748882 59.911675,-76.82277 59.828342,-76.911659 C 59.745009,-77.000548 59.675564,-77.103883 59.620009,-77.221663 C 59.506467,-77.458615 59.479101,-77.666938 59.476671,-77.881668 C 59.476671,-78.254997 59.580004,-78.55944 59.78667,-78.794998 C 59.993336,-79.030556 60.261115,-79.148334 60.590007,-79.148334 C 60.912229,-79.148334 61.188896,-79.019443 61.420009,-78.761659 L 61.496669,-79.084999 L 61.693338,-79.084999 L 61.693338,-77.78833 L 60.680002,-77.78833 L 60.680002,-78.061659 L 61.420009,-78.061659 L 61.420009,-78.128326" />
      <path d="M 64.893338,-76.641661 L 64.6,-76.641661 L 64.6,-78.628326 L 63.330002,-76.641661 L 62.993338,-76.641661 L 62.993338,-79.071663 L 63.286675,-79.071663 L 63.286675,-77.101666 L 64.543338,-79.071663 L 64.893338,-79.071663 L 64.893338,-76.641661" />
      <path d="M 66.983333,-76.641661 L 66.983333,-78.348334 Q 66.983333,-78.594992 66.816667,-78.734993 Q 66.65,-78.874995 66.356673,-78.874995 Q 66.07334,-78.874995 65.905008,-78.743327 Q 65.736675,-78.611659 65.736675,-78.348334 L 65.736675,-76.641661 L 65.426671,-76.641661 L 65.426671,-78.348334 Q 65.426671,-78.718332 65.675006,-78.933333 Q 65.92334,-79.148334 66.356673,-79.148334 Q 66.783333,-79.148334 67.038336,-78.931668 Q 67.293338,-78.715001 67.293338,-78.348334 L 67.293338,-76.641661 L 66.983333,-76.641661" />
      <path d="M 69.136675,-79.071663 L 69.820009,-77.034999 L 69.820009,-79.071663 L 70.113336,-79.071663 L 70.113336,-76.641661 L 69.683333,-76.641661 L 68.976671,-78.758328 L 68.256673,-76.641661 L 67.826671,-76.641661 L 67.826671,-79.071663 L 68.120009,-79.071663 L 68.120009,-77.034999 L 68.810004,-79.071663 L 69.136675,-79.071663" />
      <path d="M 71.743338,-79.071663 Q 72.066667,-79.071663 72.263336,-78.881662 Q 72.460004,-78.691661 72.460004,-78.378326 Q 72.460004,-78.158328 72.355002,-78.018327 Q 72.25,-77.878326 72.016667,-77.78833 C 72.24111,-77.683889 72.353331,-77.507221 72.353331,-77.258328 C 72.352463,-77.120032 72.312533,-76.991627 72.211665,-76.859993 C 72.113922,-76.731138 71.902184,-76.639404 71.633333,-76.641661 L 70.646669,-76.641661 L 70.646669,-79.071663 L 71.743338,-79.071663 M 71.556673,-76.915001 Q 72.043338,-76.915001 72.043338,-77.301666 Q 72.043338,-77.68833 71.556673,-77.68833 L 70.956673,-77.68833 L 70.956673,-76.915001 L 71.556673,-76.915001 M 71.713336,-78.798334 L 70.956673,-78.798334 L 70.956673,-77.961659 L 71.713336,-77.961659 Q 71.92334,-77.961659 72.03667,-78.07666 Q 72.15,-78.191661 72.15,-78.381668 Q 72.15,-78.481668 72.116667,-78.568332 Q 72.083333,-78.654997 71.980002,-78.726666 Q 71.876671,-78.798334 71.713336,-78.798334" />
      <path d="M 73.086675,-77.965001 L 74.410004,-77.965001 L 74.410004,-77.691661 L 73.086675,-77.691661 L 73.086675,-76.915001 L 74.460004,-76.915001 L 74.460004,-76.641661 L 72.776671,-76.641661 L 72.776671,-79.071663 L 74.520009,-79.071663 L 74.520009,-78.798334 L 73.086675,-78.798334 L 73.086675,-77.965001" />
      <path d="M 76.840007,-78.994992 Q 76.753342,-78.934999 76.72334,-78.841667 Q 76.693338,-78.748334 76.693338,-78.611659 Q 76.693338,-78.584999 76.695009,-78.528331 Q 76.69668,-78.471663 76.69668,-78.441661 Q 76.69668,-78.344992 76.686675,-78.274995 Q 76.676671,-78.204997 76.645009,-78.124995 Q 76.579178,-77.964996 76.363346,-77.871663 Q 76.566678,-77.771663 76.656679,-77.634999 Q 76.74668,-77.498334 76.74668,-77.291661 Q 76.74668,-76.978326 76.555013,-76.809993 Q 76.363346,-76.641661 76.006673,-76.641661 L 74.886675,-76.641661 L 74.886675,-79.071663 L 75.19668,-79.071663 L 75.19668,-78.024995 L 75.99668,-78.024995 C 76.273618,-78.026383 76.395292,-78.159168 76.39668,-78.458328 L 76.39668,-78.674995 Q 76.39668,-78.918332 76.463346,-79.071663 L 76.840007,-79.071663 L 76.840007,-78.994992 M 75.94668,-76.915001 C 76.095566,-76.915001 76.212231,-76.945 76.296674,-77.004997 C 76.381118,-77.064994 76.42334,-77.174995 76.42334,-77.334999 C 76.421605,-77.625624 76.277292,-77.749929 75.94668,-77.751666 L 75.19668,-77.751666 L 75.19668,-76.915001 L 75.94668,-76.915001" />
      <path d="M 77.59668,-77.324995 L 77.250011,-77.324995 L 77.250011,-77.671663 L 77.59668,-77.671663 L 77.59668,-77.324995" />
      <path d="M 77.59668,-78.724995 L 77.250011,-78.724995 L 77.250011,-79.071663 L 77.59668,-79.071663 L 77.59668,-78.724995" />
      <path d="M 48.145003,-87.056665 Q 48.629997,-87.056665 48.925,-86.771663 Q 49.220003,-86.486662 49.220003,-86.016659 Q 49.220003,-85.686662 49.0625,-85.47666 Q 48.904997,-85.266659 48.554997,-85.131665 C 48.891661,-84.975003 49.059994,-84.710002 49.059994,-84.336662 C 49.058691,-84.129219 48.998796,-83.93661 48.847494,-83.73916 C 48.772494,-83.640826 48.659994,-83.561659 48.509994,-83.50166 C 48.359994,-83.441661 48.183328,-83.411662 47.979997,-83.411662 L 46.5,-83.411662 L 46.5,-87.056665 L 48.145003,-87.056665 M 47.865007,-83.821672 Q 48.595003,-83.821672 48.595003,-84.401668 Q 48.595003,-84.981665 47.865007,-84.981665 L 46.965007,-84.981665 L 46.965007,-83.821672 L 47.865007,-83.821672 M 48.1,-86.646672 L 46.965007,-86.646672 L 46.965007,-85.391659 L 48.1,-85.391659 Q 48.415007,-85.391659 48.585002,-85.56416 Q 48.754997,-85.736662 48.754997,-86.021672 Q 48.754997,-86.171672 48.704997,-86.301668 Q 48.654997,-86.431665 48.5,-86.539168 Q 48.345003,-86.646672 48.1,-86.646672" />
      <path d="M 50.095003,-84.656665 Q 50.104997,-84.311662 50.247502,-84.104167 Q 50.390007,-83.896672 50.770003,-83.896672 Q 51.06001,-83.896672 51.227507,-84.059172 Q 51.395003,-84.221672 51.395003,-84.501668 Q 51.395003,-84.826668 51.197502,-84.93667 Q 51.0,-85.046672 50.525,-85.056665 L 50.525,-85.431665 L 50.579997,-85.431665 L 50.765007,-85.426668 Q 51.5,-85.426668 51.5,-86.071672 Q 51.5,-86.406665 51.305005,-86.594165 Q 51.11001,-86.781665 50.765007,-86.781665 Q 50.404997,-86.781665 50.225,-86.596663 Q 50.045003,-86.411662 50.020003,-86.026668 L 49.579997,-86.026668 Q 49.66001,-87.171672 50.75,-87.171672 Q 51.295003,-87.171672 51.622502,-86.871672 Q 51.95,-86.571672 51.95,-86.066659 Q 51.95,-85.726668 51.810002,-85.529167 Q 51.670003,-85.331665 51.35,-85.221672 Q 51.845003,-85.026668 51.845003,-84.486662 Q 51.845003,-84.031665 51.557503,-83.771663 Q 51.270003,-83.511662 50.765007,-83.511662 Q 49.679997,-83.511662 49.654997,-84.656665 L 50.095003,-84.656665" />
      <path d="M 52.6,-87.056665 L 54.004997,-87.056665 Q 54.695003,-87.056665 55.092505,-86.569165 Q 55.490007,-86.081665 55.490007,-85.231665 Q 55.490007,-84.381665 55.095003,-83.896663 Q 54.7,-83.411662 54.004997,-83.411662 L 52.6,-83.411662 L 52.6,-87.056665 M 53.065007,-86.646672 L 53.065007,-83.821672 L 53.925,-83.821672 C 54.642927,-83.819069 55.027082,-84.312593 55.025,-85.236662 C 55.025,-85.696666 54.931668,-86.046669 54.745003,-86.28667 C 54.558339,-86.526671 54.285004,-86.646672 53.925,-86.646672 L 53.065007,-86.646672" />
      <path d="M 57.125,-85.496672 L 55.920003,-85.496672 L 55.920003,-85.856665 L 57.125,-85.856665 L 57.125,-85.496672" />
      <path d="M 58.650016,-84.531665 L 58.650016,-87.056665 L 59.090007,-87.056665 L 59.090007,-83.511662 L 58.800016,-83.511662 Q 58.68501,-83.921672 58.530013,-84.03667 Q 58.375016,-84.151668 57.865007,-84.216659 L 57.865007,-84.531665 L 58.650016,-84.531665" />
      <path d="M 92.153331,-78.041661 C 92.45111,-78.119439 92.6,-78.250552 92.6,-78.434999 C 92.598784,-78.538252 92.571772,-78.623962 92.48833,-78.718332 C 92.407317,-78.809926 92.227678,-78.876731 91.979991,-78.874995 C 91.848886,-78.874995 91.736111,-78.857773 91.641667,-78.823329 C 91.547222,-78.788885 91.47611,-78.742775 91.428331,-78.684999 C 91.380552,-78.627223 91.346107,-78.568334 91.324995,-78.508333 C 91.303883,-78.448333 91.293327,-78.383889 91.293327,-78.315001 L 91.293327,-78.298334 L 91.0,-78.298334 C 91.002221,-78.431668 91.023886,-78.549445 91.064996,-78.651666 C 91.147736,-78.859059 91.26947,-78.965934 91.443327,-79.046663 C 91.618399,-79.126003 91.776038,-79.146772 91.959994,-79.148334 C 92.104438,-79.148334 92.233883,-79.131668 92.348329,-79.098334 C 92.58052,-79.031842 92.701139,-78.928706 92.793327,-78.793327 C 92.883952,-78.656904 92.908257,-78.534757 92.909994,-78.404997 C 92.909994,-78.256111 92.864994,-78.128333 92.774995,-78.021663 C 92.684995,-77.914994 92.557773,-77.839437 92.393327,-77.794992 L 91.783333,-77.631668 Q 91.563325,-77.571663 91.473329,-77.491661 Q 91.383333,-77.411659 91.383333,-77.271663 Q 91.383333,-77.08833 91.531662,-76.974995 Q 91.679991,-76.861659 91.92666,-76.861659 Q 92.216667,-76.861659 92.373329,-76.989996 Q 92.529991,-77.118332 92.533333,-77.354997 L 92.82666,-77.354997 Q 92.823329,-76.998334 92.589996,-76.8 Q 92.356662,-76.601666 91.936665,-76.601666 Q 91.536665,-76.601666 91.304997,-76.793332 Q 91.073329,-76.984999 91.073329,-77.315001 Q 91.073329,-77.758328 91.55,-77.881668 L 92.153331,-78.041661" />
      <path d="M 94.839996,-77.965001 L 94.839996,-79.071663 L 95.149989,-79.071663 L 95.149989,-76.641661 L 94.839996,-76.641661 L 94.839996,-77.691661 L 93.589996,-77.691661 L 93.589996,-76.641661 L 93.279991,-76.641661 L 93.279991,-79.071663 L 93.589996,-79.071663 L 93.589996,-77.965001 L 94.839996,-77.965001" />
      <path d="M 95.919998,-77.965001 L 97.243327,-77.965001 L 97.243327,-77.691661 L 95.919998,-77.691661 L 95.919998,-76.915001 L 97.293327,-76.915001 L 97.293327,-76.641661 L 95.609994,-76.641661 L 95.609994,-79.071663 L 97.353331,-79.071663 L 97.353331,-78.798334 L 95.919998,-78.798334 L 95.919998,-77.965001" />
      <path d="M 97.956673,-77.965001 L 99.280002,-77.965001 L 99.280002,-77.691661 L 97.956673,-77.691661 L 97.956673,-76.915001 L 99.330002,-76.915001 L 99.330002,-76.641661 L 97.646669,-76.641661 L 97.646669,-79.071663 L 99.390007,-79.071663 L 99.390007,-78.798334 L 97.956673,-78.798334 L 97.956673,-77.965001" />
      <path d="M 100.666678,-76.915001 L 101.463336,-76.915001 L 101.463336,-76.641661 L 99.556673,-76.641661 L 99.556673,-76.915001 L 100.356673,-76.915001 L 100.356673,-79.071663 L 100.666678,-79.071663 L 100.666678,-76.915001" />
      <path d="M 102.176671,-77.324995 L 101.830002,-77.324995 L 101.830002,-77.671663 L 102.176671,-77.671663 L 102.176671,-77.324995" />
      <path d="M 102.176671,-78.724995 L 101.830002,-78.724995 L 101.830002,-79.071663 L 102.176671,-79.071663 L 102.176671,-78.724995" />
    </g>
  </g>
</svg>