<?xml version="1.0" encoding="UTF-8" standalone="no"?>
    <svg
    xmlns:svg="http://www.w3.org/2000/svg"
    xmlns="http://www.w3.org/2000/svg"
    width="192"
    height="109"
    >
        <g transform="scale(100, -100)   translate(0.9445508773062383,-0.580578060587613)" stroke-width="0.01"  fill="none">
        <!-- hidden lines -->
        <g  stroke="rgb(160,160,160)" fill="none" stroke-dasharray="0.01,0.01" >
    
        </g>

        <!-- solid lines -->
        <g  stroke="rgb(0,0,0)" fill="none">
    			<path d="M0.6984503960628208,0.23657732239736778 L0.7844497433098536,0.2365773163794695 " />
			<path d="M0.7844497433098535,0.2365773163794695 L0.7844497433098535,0.1685760184794986 " />
			<path d="M0.7844497433098535,0.1685760184794986 L0.6984503960628207,0.1685760244973969 " />
			<path d="M0.6984503960628208,0.1685760244973969 L0.6984503960628208,-0.1904246044589598 " />
			<path d="M0.7844497433098535,-0.23342265470666734 L0.7545099366071774,-0.23724683094723287 L0.7357149747178036,-0.2371446303876709 L0.7204986133402795,-0.23468355173810035 L0.7099637794576039,-0.22968074940439356 L0.7035338442978557,-0.2214875453408051 L0.6997212581215796,-0.2084305217351709 L0.6984503960628208,-0.19042460445896003 " />
			<path d="M0.7844497433098535,-0.23342265470666734 L0.7844497433098535,-0.3034226504003473 " />
			<path d="M0.6154490956311298,-0.22742329429140212 L0.6181783244804864,-0.2514002977221289 L0.626366011028556,-0.27149368165241083 L0.6400121552753388,-0.2877034460822479 L0.658853615331675,-0.2997667342091445 L0.6825251410319356,-0.3073186915777544 L0.711024369319058,-0.3103569576911396 L0.7447495152199263,-0.3089901580233626 L0.784449743309853,-0.30342265040034744 " />
			<path d="M0.6154490956311298,-0.22742329429140212 L0.6154490956311298,0.1685760303055036 " />
			<path d="M0.6154490956311298,0.1685760303055036 L0.5444497480856121,0.16857603527376053 " />
			<path d="M0.5444497480856121,0.16857603527376053 L0.5444497480856121,0.23657733317373142 " />
			<path d="M0.5444497480856121,0.23657733317373142 L0.6154490956311298,0.2365773282054745 " />
			<path d="M0.6154490956311298,0.2365773282054745 L0.6154490956311298,0.3805779703883856 " />
			<path d="M0.6154490956311298,0.3805779703883856 L0.6984503960628208,0.38057796458027887 " />
			<path d="M0.6984503960628208,0.3805779645802789 L0.6984503960628208,0.2365773223973678 " />
			<path d="M-0.5905502293290296,0.2365774125965951 L-0.5045508820819967,0.2365774065786968 " />
			<path d="M-0.5045508820819968,0.2365774065786968 L-0.5045508820819968,0.1685761086787259 " />
			<path d="M-0.5045508820819968,0.1685761086787259 L-0.5905502293290297,0.1685761146966242 " />
			<path d="M-0.5905502293290296,0.1685761146966242 L-0.5905502293290296,-0.1904245142597325 " />
			<path d="M-0.5045508820819968,-0.23342256450743998 L-0.534490688784673,-0.23724674074800556 L-0.5532856506740468,-0.23714454018844358 L-0.5685020120515707,-0.23468346153887304 L-0.5790368459342463,-0.22968065920516625 L-0.5854667810939946,-0.22148745514157778 L-0.5892793672702709,-0.2084304315359436 L-0.5905502293290296,-0.19042451425973272 " />
			<path d="M-0.5045508820819968,-0.23342256450743998 L-0.5045508820819968,-0.3034225602011199 " />
			<path d="M-0.6735515297607204,-0.2274232040921748 L-0.6708223009113639,-0.2514002075229016 L-0.6626346143632942,-0.2714935914531835 L-0.6489884701165114,-0.2877033558830206 L-0.6301470100601753,-0.2997666440099172 L-0.6064754843599146,-0.30731860137852707 L-0.5779762560727922,-0.31035686749191227 L-0.544251110171924,-0.3089900678241353 L-0.5045508820819974,-0.3034225602011201 " />
			<path d="M-0.6735515297607204,-0.2274232040921748 L-0.6735515297607204,0.16857612050473092 " />
			<path d="M-0.6735515297607204,0.16857612050473092 L-0.7445508773062381,0.16857612547298784 " />
			<path d="M-0.7445508773062383,0.16857612547298784 L-0.7445508773062383,0.23657742337295873 " />
			<path d="M-0.7445508773062383,0.23657742337295873 L-0.6735515297607205,0.2365774184047018 " />
			<path d="M-0.6735515297607204,0.2365774184047018 L-0.6735515297607204,0.3805780605876129 " />
			<path d="M-0.6735515297607204,0.3805780605876129 L-0.5905502293290295,0.3805780547795062 " />
			<path d="M-0.5905502293290296,0.38057805477950624 L-0.5905502293290296,0.23657741259659512 " />
			<path d="M0.018450409594136803,-0.05342261217842133 L-0.3675521868914664,-0.05342258516746783 " />
			<path d="M-0.0765495885154588,-0.1284226009167783 L-0.08851275953351259,-0.15747213300386098 L-0.10347124539926573,-0.1818276517779954 L-0.12142504611271823,-0.20148915723918154 L-0.14237416167387007,-0.21645664938741938 L-0.1663185920827213,-0.22673012822270894 L-0.19325833733927184,-0.23230959374505017 L-0.22291178511532872,-0.23320342448126755 L-0.2511285035653795,-0.22953510403299726 L-0.27653099930547276,-0.221345615567922 L-0.2991192723356084,-0.20863495908604185 L-0.3188933226557865,-0.19140313458735672 L-0.33569451325629984,-0.1699674160891769 L-0.3489872423880724,-0.14539900708255044 L-0.358727764371191,-0.11778539892672343 L-0.3649160792056557,-0.08712659162169595 L-0.3675521868914664,-0.053422585167468895 " />
			<path d="M-0.0765495885154588,-0.1284226009167783 L0.007447805646410843,-0.12842260679458772 " />
			<path d="M0.018450409594136803,-0.05342261217842134 L0.015440964470808363,0.011963642249578438 L0.006412629100823039,0.06947113662655274 L-0.00035862242666595545,0.09527034879590537 L-0.00863459651581917,0.11909987095250157 L-0.0184152931666366,0.14095970309634145 L-0.029700712379118255,0.160849845227425 L-0.042490854153264146,0.17877029734575212 L-0.05678571848907423,0.1947210594513229 L-0.07258530538654856,0.20870213154413733 L-0.08988961484568708,0.22071351362419536 L-0.10869864686648983,0.23075520569149707 L-0.12901240144895681,0.23882720774604235 L-0.15083087859308802,0.2449295197878313 L-0.17415407829888344,0.2490621418168639 L-0.19898200056634313,0.2512250738331401 L-0.22508945696618973,0.25139269353256394 L-0.2504119864056364,0.2493301031893351 L-0.2744508393070612,0.24498055426896365 L-0.29720601567046423,0.23834404677144957 L-0.3186775154958454,0.22942058069679286 L-0.3388653387832047,0.2182101560449935 L-0.35776948553254223,0.2047127728160515 L-0.3753899557438579,0.18892843100996687 L-0.39171744619772486,0.17086812571494198 L-0.4063360792578585,0.15102336541663677 L-0.4190218730573339,0.12965886497014953 L-0.4297748275961511,0.10677462437548021 L-0.43859494287431006,0.08237064363262883 L-0.4454822188918108,0.05644692274159542 L-0.45043665564865326,0.02900346170237994 L-0.45345825314483756,4.026051498237648e-05 L-0.4545470113803636,-0.030442680820597368 L-0.45100896879617386,-0.09010149427678604 L-0.44640699665479644,-0.11752164732200303 L-0.4399164201497382,-0.14333354266697282 L-0.4315372392809993,-0.1675371803116952 L-0.42126945404857974,-0.19013256025616998 L-0.4091130644524794,-0.21111968250039742 L-0.3950680704926984,-0.23049854704437758 L-0.3792661501459075,-0.24812285560493685 L-0.3620835749883436,-0.2635745588848262 L-0.34354359846446203,-0.27682782159186037 L-0.3236462205742626,-0.28788264372603933 L-0.30239144131774554,-0.2967390252873629 L-0.2797792606949109,-0.3033969662758312 L-0.25580967870575855,-0.3078564666914442 L-0.2304826953502883,-0.31011752653420194 L-0.20410111917611604,-0.3101893133380098 L-0.17870571989505088,-0.30813361144044216 L-0.15467689200056794,-0.3039619372912288 L-0.13201463549266712,-0.2976742908903697 L-0.11071895037134859,-0.28927067223786485 L-0.09078983663661247,-0.27875108133371446 L-0.07222729428845862,-0.2661155181779183 L-0.055174486678985134,-0.2514833373352516 L-0.03999870620740101,-0.23516074862694494 L-0.02671841843609088,-0.21716314669925016 L-0.015333623365054637,-0.19749053155216706 L-0.005844320994292218,-0.17614290318569553 L0.001749488676196287,-0.15312026159983572 L0.007447805646410469,-0.12842260679458978 " />
			<path d="M-0.3655502338063032,0.014575457384281114 L-0.07055023967650642,0.014575436741334165 " />
			<path d="M-0.3655502338063032,0.01457545738428111 L-0.3608002745909268,0.04923223389120622 L-0.35155039684530254,0.08020126616948542 L-0.3378006005694305,0.10748255421911872 L-0.31955088576331064,0.13107609804010611 L-0.2976761913743763,0.15010706050790806 L-0.27305145635006084,0.16370060449798504 L-0.24567668069036433,0.17185673001033705 L-0.21555186439528662,0.17457543704496406 L-0.18542694637495055,0.1717004758039084 L-0.15805186553947878,0.16307559648921235 L-0.1334266218888714,0.1487007991008759 L-0.11155121542312832,0.12857608363889916 L-0.09361328853398129,0.10420128733370361 L-0.08080048361316196,0.07707624741571092 L-0.07311280066067036,0.04720096388492109 L-0.07055023967650649,0.014575436741334727 " />
			<path d="M0.5094497487820773,0.23657733562289462 L0.3334504033259539,-0.016423938580341135 " />
			<path d="M0.3334504033259539,-0.0164239385803411 L0.5144497486825822,-0.28742328353273094 " />
			<path d="M0.5144497486825822,-0.287423283532731 L0.41745105269609206,-0.28742327674514123 " />
			<path d="M0.41745105269609206,-0.28742327674514123 L0.28645170634451395,-0.08642393098523582 " />
			<path d="M0.286451706344514,-0.08642393098523583 L0.15345040690777273,-0.2874232582714076 " />
			<path d="M0.15345040690777273,-0.2874232582714076 L0.058450408798177145,-0.2874232516236789 " />
			<path d="M0.058450408798177186,-0.2874232516236789 L0.24345040511686333,-0.020424583078044012 " />
			<path d="M0.24345040511686322,-0.020424583078044026 L0.06845040859918716,0.23657736648230537 " />
			<path d="M0.06845040859918726,0.23657736648230535 L0.16345040670878283,0.23657735983457667 " />
			<path d="M0.1634504067087828,0.23657735983457667 L0.2894497531598559,0.04657736270621768 " />
			<path d="M0.28944975315985594,0.046577362706217706 L0.41544909961092896,0.23657734220069274 " />
			<path d="M0.4154490996109289,0.23657734220069276 L0.5094497487820773,0.23657733562289462 " />

        </g>
        </g>
    </svg>
    