<?xml version='1.0' encoding='utf-8'?>
<svg width="100.090003mm" height="46.095473mm" viewBox="-0.751677 -0.346177 1.503354 0.692355" version="1.1" xmlns="http://www.w3.org/2000/svg">
  <g transform="scale(1,-1)" stroke-linecap="round">
    <g fill="none" stroke="rgb(0,0,0)" stroke-width="0.0013518019378125003">
      <path d="M 0.751001,0.201501 L 0.665002,0.201501 L 0.665002,0.345501 L 0.582,0.345501 L 0.582,0.201501 L 0.511001,0.201501 L 0.511001,0.133499 L 0.582,0.133499 L 0.582,-0.2625 C 0.582984,-0.331923 0.639563,-0.360154 0.751001,-0.338499 L 0.751001,-0.268499 Q 0.736001,-0.2725 0.711001,-0.2725 Q 0.684002,-0.2725 0.674502,-0.263 Q 0.665002,-0.253499 0.665002,-0.225501 L 0.665002,0.133499 L 0.751001,0.133499 L 0.751001,0.201501" />
      <path d="M -0.511001,0.201501 L -0.597,0.201501 L -0.597,0.345501 L -0.680002,0.345501 L -0.680002,0.201501 L -0.751001,0.201501 L -0.751001,0.133499 L -0.680002,0.133499 L -0.680002,-0.2625 C -0.679018,-0.331923 -0.622439,-0.360154 -0.511001,-0.338499 L -0.511001,-0.268499 Q -0.526001,-0.2725 -0.551001,-0.2725 Q -0.578,-0.2725 -0.5875,-0.263 Q -0.597,-0.253499 -0.597,-0.225501 L -0.597,0.133499 L -0.511001,0.133499 L -0.511001,0.201501" />
      <path d="M -0.384002,-0.088499 L 0.002,-0.088499 C 0.002,0.114834 -0.075667,0.216501 -0.231001,0.216501 C -0.303668,0.216501 -0.361835,0.190667 -0.405501,0.139001 C -0.449168,0.087334 -0.471001,0.0185 -0.471001,-0.0675 C -0.472876,-0.237417 -0.377791,-0.347585 -0.233,-0.345501 C -0.11425,-0.346543 -0.029085,-0.277123 -0.009002,-0.163499 L -0.093,-0.163499 C -0.116333,-0.233499 -0.162,-0.268499 -0.230002,-0.268499 C -0.323834,-0.270166 -0.382166,-0.196169 -0.384002,-0.088499 M -0.087,-0.020501 L -0.382,-0.020501 C -0.376792,0.075376 -0.314543,0.140957 -0.232002,0.139499 C -0.149982,0.141999 -0.085021,0.067667 -0.087,-0.020501" />
      <path d="M 0.305002,-0.051501 L 0.481001,0.201501 L 0.387,0.201501 L 0.261001,0.011501 L 0.135002,0.201501 L 0.040002,0.201501 L 0.215002,-0.055501 L 0.030002,-0.3225 L 0.125002,-0.3225 L 0.258003,-0.121501 L 0.389002,-0.3225 L 0.486001,-0.3225 L 0.305002,-0.051501" />
    </g>
  </g>
</svg>