<?xml version="1.0" encoding="UTF-8" standalone="no"?>
    <svg
    xmlns:svg="http://www.w3.org/2000/svg"
    xmlns="http://www.w3.org/2000/svg"
    width="114"
    height="122"
    >
        <g transform="scale(50, -50)   translate(1.3206496926350053,-0.9130515561007125)" stroke-width="0.02"  fill="none">
        <!-- hidden lines -->
        <g  stroke="rgb(160,160,160)" fill="none" stroke-dasharray="0.02,0.02" >
    
        </g>

        <!-- solid lines -->
        <g  stroke="rgb(0,0,0)" fill="none">
    			<path d="M-0.3960521753510259,-0.2905281927825101 L-0.3836584026103097,-0.24550180360811114 L-0.3698858488020179,-0.20290335270956872 L-0.35474901217754773,-0.1627776831173664 L-0.3382638271573263,-0.12516703478593083 L-0.32044764755678,-0.09011100012799256 L-0.30131922831812086,-0.057646482335981464 L-0.28089870576717557,-0.027807656534349245 L-0.2592075764160445,-0.0006259338037057915 L-0.23626867433390608,0.023870071885364386 L-0.21210614710978237,0.04565457379398641 L-0.18674543043257763,0.0647046395604769 L-0.16021322131514182,0.08100021534104984 L-0.1325374499905495,0.09452414692032818 L-0.10374725051017786,0.10526219776944146 L-0.07387293007454021,0.11320306403270042 L-0.042945937129147294,0.11833838642707084 L-0.010998828258995785,0.12066275904191803 L0.02193476608347711,0.12017373502976847 L0.05582017698088437,0.11687182918208006 L0.09062173354656877,0.11076051738732984 L0.12630280047504394,0.1018462329719716 L0.1628258166076727,0.09013835992813046 L0.2001523344729812,0.07564922303515287 L0.23824306075998813,0.05839407488541326 L0.27705789768194533,0.03839107982804002 L0.31655598518693784,0.015661294847457707 L0.3974349192478732,-0.037880089789931404 L0.4805393902787724,-0.1020046881004939 L0.565519556865757,-0.17644255744625648 " />
			<path d="M-0.8768380414594236,-0.3475710104506303 L-0.3960521753510257,-0.9814571239057452 " />
			<path d="M-0.8768380414594236,-0.3475710104506303 L-0.8768380414594236,0.3433579206726054 " />
			<path d="M-0.8768380414594236,-0.3475710104506303 L0.0,0.0 " />
			<path d="M-0.39605217535102577,-0.9814571239057452 L-0.40469129638266105,-0.9680877593039853 L-0.4110767336669132,-0.9544510064944058 L-0.4200914686564457,-0.9267318538622149 " />
			<path d="M-0.39605217535102577,-0.9814571239057452 L-0.40469129638266105,-0.9720462063052121 L-0.4110767336669132,-0.9688453592261399 L-0.41595971511957663,-0.9697845591613752 L-0.4200914686564457,-0.972793782603764 " />
			<path d="M-0.8768380414594236,0.3433579206726054 L-0.8782152926383799,0.33275861103731974 L-0.8818462275647194,0.3283693719234951 L-0.8869796183226476,0.3281201798239778 L-0.8928642369963702,0.3299410112316141 " />
			<path d="M-0.8768380414594236,0.3433579206726054 L-0.8754607902804672,0.3291269718456498 L-0.8718298553541277,0.3151634112265135 L-0.860811845922477,0.28768193700127315 " />
			<path d="M0.0,0.0 L-0.015755683557474007,-0.0042661930934213155 L-0.027401188795606976,-0.003664417710715134 L-0.043841902072971194,0.005652413848242979 " />
			<path d="M0.0,0.0 L-0.015755683557474007,-0.008224640094648194 L-0.027401188795606976,-0.018058770442449225 L-0.043841902072971194,-0.04040951489330598 " />
			<path d="M-0.32213134843685953,-1.015956158772924 L-0.3516996009496181,-1.0382922086041895 " />
			<path d="M-0.35169960094961816,-1.0382922086041895 L-0.32068914734435017,-1.1437795209232438 " />
			<path d="M-0.32068914734435017,-1.143779520923244 L-0.3345117409949666,-1.1255552951614094 " />
			<path d="M-0.3345117409949666,-1.1255552951614094 L-0.3584305248222278,-1.0415091624820425 " />
			<path d="M-0.3584305248222278,-1.0415091624820425 L-0.3824698181276477,-1.0623255680305335 " />
			<path d="M-0.38246981812764774,-1.0623255680305332 L-0.39605217535102577,-1.0444180789822903 " />
			<path d="M-0.39605217535102577,-1.0444180789822903 L-0.36504133048121834,-1.0207019721273778 " />
			<path d="M-0.36504133048121834,-1.020701972127378 L-0.3941291101395001,-0.9210316101114525 " />
			<path d="M-0.3941291101395001,-0.9210316101114525 L-0.38054675291612206,-0.9389390991596954 " />
			<path d="M-0.3805467529161221,-0.9389390991596954 L-0.35807017018137033,-1.0179743747400167 " />
			<path d="M-0.35807017018137033,-1.0179743747400167 L-0.3354730779684598,-0.9983659222961124 " />
			<path d="M-0.3354730779684598,-0.9983659222961124 L-0.3221313484368597,-1.015956158772924 " />
			<path d="M-0.9206496926350053,0.5130515561007123 L-0.8674025014576845,0.39551971845460004 " />
			<path d="M-0.8674025014576844,0.3955197184546 L-0.8330263902838418,0.3501969645141272 " />
			<path d="M-0.8330263902838418,0.3501969645141273 L-0.8330263902838418,0.33413264195375064 " />
			<path d="M-0.8330263902838418,0.3341326419537508 L-0.8674025014576844,0.3794553958942236 " />
			<path d="M-0.8674025014576844,0.3794553958942235 L-0.9206496926350052,0.4011208443469868 " />
			<path d="M-0.9206496926350053,0.4011208443469867 L-0.9206496926350053,0.4209850511167797 " />
			<path d="M-0.9206496926350053,0.42098505111677975 L-0.877979947017885,0.4016924688186121 " />
			<path d="M-0.877979947017885,0.4016924688186121 L-0.9206496926350053,0.4938778284385197 " />
			<path d="M-0.9206496926350053,0.4938778284385198 L-0.9206496926350053,0.5130515561007125 " />
			<path d="M0.15980387577050503,0.020248406058379465 L0.15980387577050503,0.11093282826830414 " />
			<path d="M0.15980387577050503,0.11093282826830414 L0.14139013418533217,0.10363378047803842 " />
			<path d="M0.14139013418533197,0.1036337804780384 L0.01797489442086815,-0.02059865570044836 " />
			<path d="M0.017974894420868193,-0.02059865570044833 L0.01797489442086819,0.05505828716930741 " />
			<path d="M0.017974894420868193,0.055058287169307385 L-3.8163916471489756e-17,0.047933194596674424 " />
			<path d="M0.0,0.047933194596674444 L3.0504620679413967e-18,-2.7755575615628914e-17 " />
			<path d="M3.0504620679413967e-18,-2.7755575615628914e-17 L6.1009241358827934e-18,-0.0479331945966745 " />
			<path d="M0.0,-0.047933194596674444 L0.01797489442086823,-0.04080810202404148 " />
			<path d="M0.017974894420868304,-0.040808102024041504 L0.1418282677770119,0.0839432460718658 " />
			<path d="M0.14182826777701185,0.08394324607186576 L0.14182826777701185,0.013123030631734103 " />
			<path d="M0.14182826777701185,0.01312303063173409 L0.15980387577050495,0.02024840605837945 " />

        </g>
        </g>
    </svg>
    