<?xml version="1.0" encoding="UTF-8" standalone="no"?>
    <svg
    xmlns:svg="http://www.w3.org/2000/svg"
    xmlns="http://www.w3.org/2000/svg"
    width="194"
    height="194"
    >
        <g transform="scale(50, -50)   translate(0.4911250813802084,-3.4)" stroke-width="0.02"  fill="none">
        <!-- hidden lines -->
        <g  stroke="rgb(160,160,160)" fill="none" stroke-dasharray="0.02,0.02" >
    
        </g>

        <!-- solid lines -->
        <g  stroke="rgb(0,0,0)" fill="none">
    			<path d="M1.0,1.0 L1.0426234386010091,1.141690616070046 L1.0925419618928465,1.2809785524925714 L1.149621063335029,1.4174884949108297 L1.213706942054404,1.5508526143329917 L1.284626917264927,1.6807115582553187 L1.3621898935597705,1.8067154189452543 L1.4461868758220349,1.9285246762753772 L1.536391532366606,2.045811112567726 L1.6325608047957783,2.158258696983429 L1.7344355629253632,2.2655644370746373 L1.8417413030165708,2.3674391952042217 L1.9541888874322741,2.463608467633395 L2.0714753237246226,2.5538131241779656 L2.1932845810547454,2.63781010644023 L2.319288441744682,2.7153730827350735 L2.4491473856670085,2.7862930579455956 L2.5825115050891707,2.8503789366649714 L2.719021447507429,2.907458038107154 L2.8583093839299543,2.9573765613989904 L3.0,3.0 " />
			<path d="M0.0,0.0 L1.0,0.0 " />
			<path d="M0.0,0.0 L0.0,1.0 " />
			<path d="M1.0,0.0 L0.98203125,0.0028645833333333336 L0.96875,0.010416666666666668 L0.95859375,0.021093749999999998 L0.95,0.033333333333333284 " />
			<path d="M1.0,0.0 L0.98203125,-0.0028645833333333336 L0.96875,-0.010416666666666668 L0.95859375,-0.021093749999999998 L0.95,-0.033333333333333284 " />
			<path d="M0.0,1.0 L-0.002864583333333335,0.98203125 L-0.01041666666666667,0.96875 L-0.02109375,0.95859375 L-0.03333333333333329,0.95 " />
			<path d="M0.0,1.0 L0.002864583333333332,0.98203125 L0.010416666666666663,0.96875 L0.02109374999999999,0.95859375 L0.03333333333333328,0.95 " />
			<path d="M0.0,0.0 L-1.994931997373328e-18,0.0028645833333333336 L-3.469446951953614e-18,0.010416666666666668 L-5.551115123125779e-18,0.033333333333333284 " />
			<path d="M0.0,0.0 L-1.994931997373328e-18,-0.0028645833333333336 L-3.469446951953614e-18,-0.010416666666666668 L-5.551115123125779e-18,-0.033333333333333284 " />
			<path d="M1.15375,0.09112508138020833 L1.0922501627604166,0.0023750813802083243 " />
			<path d="M1.0922501627604166,0.0023750813802083407 L1.1567496744791668,-0.09112508138020833 " />
			<path d="M1.1567496744791668,-0.09112508138020833 L1.1279996744791667,-0.09112508138020833 " />
			<path d="M1.1279996744791667,-0.09112508138020833 L1.0782503255208333,-0.015124918619791664 " />
			<path d="M1.0782503255208333,-0.015124918619791662 L1.0282503255208333,-0.09112508138020833 " />
			<path d="M1.0282503255208333,-0.09112508138020833 L1.0,-0.09112508138020833 " />
			<path d="M1.0,-0.09112508138020833 L1.0645003255208334,0.002375081380208338 " />
			<path d="M1.0645003255208334,0.0023750813802083407 L1.0039998372395833,0.09112508138020833 " />
			<path d="M1.0039998372395833,0.09112508138020833 L1.0322501627604166,0.09112508138020833 " />
			<path d="M1.0322501627604166,0.09112508138020833 L1.0789998372395833,0.01962524414062501 " />
			<path d="M1.0789998372395833,0.019625244140625015 L1.1260001627604166,0.09112508138020833 " />
			<path d="M1.1260001627604166,0.09112508138020833 L1.1537499999999998,0.09112508138020833 " />
			<path d="M-0.09112508138020832,1.1620003255208333 L0.019625244140624998,1.0935001627604166 " />
			<path d="M0.019625244140625005,1.0935001627604166 L0.09112508138020833,1.0935001627604166 " />
			<path d="M0.09112508138020835,1.0935001627604166 L0.09112508138020835,1.0702498372395832 " />
			<path d="M0.09112508138020835,1.0702498372395834 L0.01962524414062501,1.0702498372395834 " />
			<path d="M0.019625244140625,1.0702498372395834 L-0.09112508138020835,1.0000000000000002 " />
			<path d="M-0.09112508138020833,1.0 L-0.09112508138020833,1.02875 " />
			<path d="M-0.09112508138020833,1.02875 L-0.0023750813802083243,1.0822501627604166 " />
			<path d="M-0.0023750813802083316,1.0822501627604166 L-0.09112508138020832,1.1342496744791666 " />
			<path d="M-0.09112508138020832,1.1342496744791668 L-0.09112508138020832,1.1620003255208335 " />
			<path d="M-6.924979976026999e-18,-0.062374674479166656 L7.646697222178182e-18,0.06887532552083335 " />
			<path d="M7.64669722217818e-18,0.06887532552083334 L-4.454806026380859e-18,-0.040125325520833366 " />
			<path d="M-4.454806026380858e-18,-0.040125325520833345 L7.702172233337026e-18,0.06937500000000002 " />
			<path d="M7.702172233337024e-18,0.069375 L0.0,0.0 " />
			<path d="M0.0,0.0 L-7.702172233337024e-18,-0.069375 " />
			<path d="M-7.702172233337024e-18,-0.069375 L4.454806026380857e-18,0.040125325520833366 " />
			<path d="M4.454806026380856e-18,0.040125325520833345 L-6.9249799760269996e-18,-0.06237467447916666 " />

        </g>
        </g>
    </svg>
    