<?xml version='1.0' encoding='utf-8'?>
<svg width="100.090019mm" height="38.353366mm" viewBox="-1.20108 -0.46024 2.402161 0.920481" version="1.1" xmlns="http://www.w3.org/2000/svg">
  <g transform="scale(1,-1)" stroke-linecap="round">
    <g fill="none" stroke="rgb(0,0,0)" stroke-width="0.0021600004802670688" id="Visible">
      <path d="M -1.2,-0.0 C -1.20082,-0.07381 -1.170553,-0.142704 -1.109199,-0.20668 C -1.012042,-0.308764 -0.789913,-0.388695 -0.48329,-0.428779 C -0.201302,-0.466743 0.140671,-0.469193 0.429664,-0.435436 C 0.700784,-0.404389 0.918576,-0.343489 1.039878,-0.26237 C 1.153703,-0.187197 1.198764,-0.095087 1.2,-0.0" />
      <path d="M 0.472915,0.430142 C 0.780298,0.390998 1.005295,0.312123 1.105025,0.210782 C 1.169252,0.145729 1.200911,0.075468 1.2,-0.0" />
      <path d="M 0.421512,0.033458 Q 0.52871,0.019459 0.614217,1e-06" />
      <path d="M 0.82716,0.076946 C 0.828639,0.077558 0.802989,0.056773 0.733607,0.033166 C 0.665503,0.009469 0.561469,-0.014543 0.440317,-0.030952 C 0.303243,-0.049827 0.143461,-0.059883 -0.015533,-0.059128 C -0.241515,-0.058596 -0.466362,-0.034828 -0.621498,0.001666 C -0.765481,0.033406 -0.833005,0.077953 -0.82716,0.076946" />
      <path d="M -0.614227,-5e-06 C -0.566048,0.010959 -0.512498,0.02066 -0.453577,0.029099 C -0.317986,0.04851 -0.158911,0.059249 0.000126,0.059159 C 0.149773,0.058958 0.290235,0.050391 0.421512,0.033458" />
      <path d="M -1.2,0.0 C -1.20082,0.07381 -1.170553,0.142704 -1.109199,0.20668 C -1.012035,0.308766 -0.789919,0.388693 -0.48329,0.428779 C -0.187089,0.46872 0.175209,0.469227 0.472915,0.430142" />
    </g>
    <g fill="none" stroke="rgb(99,99,99)" stroke-width="0.0021600004802670688" id="Hidden" stroke-dasharray="5.5e-05 0.006507">
      <path d="M 0.614217,1e-06 C 0.763119,-0.03204 0.833094,-0.077859 0.82716,-0.076946" />
      <path d="M 0.82716,-0.076946 C 0.824283,-0.077087 0.798241,-0.039286 0.80001,-0.001616 C 0.797109,0.037115 0.823997,0.077082 0.82716,0.076946" />
      <path d="M -0.82716,0.076946 C -0.824101,0.077084 -0.797511,0.037895 -0.800001,-0.000465 C -0.797836,-0.038519 -0.824183,-0.077085 -0.82716,-0.076946" />
      <path d="M -0.82716,-0.076946 C -0.833124,-0.077876 -0.763089,-0.032024 -0.614227,-5e-06" />
    </g>
  </g>
</svg>