<?xml version="1.0" encoding="UTF-8" standalone="no"?>
    <svg
    xmlns:svg="http://www.w3.org/2000/svg"
    xmlns="http://www.w3.org/2000/svg"
    width="280"
    height="131"
    >
        <g transform="scale(100, -100)   translate(1.4000002534402383,-0.6591604399623552)" stroke-width="0.01"  fill="none">
        <!-- hidden lines -->
        <g  stroke="rgb(160,160,160)" fill="none" stroke-dasharray="0.01,0.01" >
    			<path d="M0.6142169382675401,1.133992083189421e-06 L0.6656033243190576,-0.012619145893909299 L0.7107374078526062,-0.025656215044368658 L0.7794080549899577,-0.0508095889222914 L0.8169978747743099,-0.06985542368471727 L0.8248906287432698,-0.07516629608842182 L0.8271604189160053,-0.0769464227662276 " />
			<path d="M0.8271604189160053,-0.07694642276622762 L0.8255329742303624,-0.07529139952361766 L0.8216229649685465,-0.07054175842953594 L0.8115242479380806,-0.05345270752601644 L0.8032924034681801,-0.029296629566654173 L0.8000098284647528,-0.0016158595861177662 L0.8027925841749902,0.027017957974412914 L0.81096267979026,0.05223081095973274 L0.821358106040762,0.0701857065663068 L0.8254461639337005,0.07519700346847544 L0.8271604189160043,0.07694642276622683 " />
			<path d="M-0.8271604189160054,0.07694642276622783 L-0.8254773148930243,0.07523091747760838 L-0.8214528499872578,0.0703135736368569 L-0.8111619090473521,0.05266871847071309 L-0.8029662704278064,0.02783254842278811 L-0.8000008125343393,-0.0004646142058561193 L-0.8031099903317058,-0.028487733362907407 L-0.811323375823196,-0.053020037486090556 L-0.8215290132496772,-0.0704159619287797 L-0.8255022881216129,-0.07525805706509817 L-0.8271604189160056,-0.07694642276622783 " />
			<path d="M-0.8271604189160056,-0.07694642276622782 L-0.824895914409414,-0.07516645510312948 L-0.817003197537858,-0.06986273158927246 L-0.7794135080556178,-0.05081030760773569 L-0.7107309590623595,-0.02565344947075504 L-0.665597329573311,-0.012621525377096723 L-0.6142266462966826,-4.512047924246088e-06 " />

        </g>

        <!-- solid lines -->
        <g  stroke="rgb(0,0,0)" fill="none">
    			<path d="M-1.1999999999999997,-8.137014737607084e-17 L-1.1986306078061928,-0.027096343258666028 L-1.194485847785893,-0.05405814912481538 L-1.1875722260626513,-0.08075013951110241 L-1.177860536405235,-0.10705491790208731 L-1.165285860227628,-0.13287296935423637 L-1.1497475665890309,-0.15812266049592175 L-1.131109312193861,-0.18274023952742163 L-1.109199041391752,-0.20667983622092018 L-1.0662099041184954,-0.2438429407133182 L-1.0132575885274115,-0.27879467578686384 L-0.9496616665946793,-0.3112650567304017 L-0.8753387828670185,-0.34101301350417945 L-0.7906826935987673,-0.36782296218304744 L-0.6964443058889627,-0.39150137639965843 L-0.5936117168184185,-0.4118733587876678 L-0.48329025258680497,-0.4287792124249331 L-0.3749413537013018,-0.4412850263313266 L-0.2623118697930501,-0.450554282612788 L-0.14670990303144432,-0.4564963309253728 L-0.02944983744923374,-0.4590535315236349 L0.08814766105747701,-0.45820125526062666 L0.20475564472922853,-0.4539478835878992 L0.3190408839432069,-0.4463348085555019 L0.42966386721324296,-0.43543643281198274 L0.5285455973212034,-0.4223935472174364 L0.6221785379661949,-0.4067049313863541 L0.7099522126096287,-0.388434783518176 L0.7911690354652864,-0.3676864278837907 L0.8651587935649202,-0.34458487275801863 L0.9313931288238575,-0.31925936835209506 L0.9896000201066038,-0.2918259647461521 L1.0398782652924445,-0.2623700698217027 L1.0796407616175345,-0.23331083824174237 L1.1128353591566547,-0.20300435617250825 L1.1401232347802048,-0.17144176549868773 L1.1619798987701948,-0.13871739271293154 L1.1787290106516533,-0.10499839049474216 L1.1905761950240363,-0.07049437928936053 L1.1976428573926383,-0.03542708888665308 L1.2000000000000002,-3.2751579226442118e-15 " />
			<path d="M0.4729147717126452,0.4301419721511691 L0.5836747001774404,0.41358665367253183 L0.6869616511275859,0.3935991701935492 L0.7819047295483226,0.3702715451503931 L0.8674022985408139,0.3438058973974137 L0.9425940579486138,0.31441716372713024 L1.0071102511919847,0.2822990597862337 L1.0610980003100607,0.24765327938760087 L1.1050247692108615,0.21078193221831965 L1.1279831586101288,0.18643747514502917 L1.1474906879573528,0.16137920977209735 L1.1637386671489685,0.1356535789472309 L1.1768786752650084,0.10932644776508484 L1.187022560569104,0.08248310356726268 L1.1942424405084837,0.055228255942316284 L1.1985707017139742,0.027686036725745822 L1.2000000000000002,9.43689570931383e-16 " />
			<path d="M0.42151241928727085,0.0334584734205845 L0.5232782513613289,0.018093484226906056 L0.6142169382675398,1.1339920832700856e-06 " />
			<path d="M0.8271604189160043,0.07694642276622682 L0.8228188541455063,0.0736650391605578 L0.8071509075121357,0.06418223568513465 L0.7775885108391625,0.05002151198954817 L0.7336072762676961,0.03316600814957065 L0.6761099745520833,0.015471924586598886 L0.6068209916748858,-0.0016555546487720674 L0.5276917637814369,-0.017323835229044543 L0.44031719043397977,-0.030951982537983064 L0.33362133616690115,-0.04341746226231184 L0.22061072262351283,-0.05241171633072239 L0.10349363077530949,-0.057692248785237085 L-0.015532682239830342,-0.05912755325511551 L-0.18374347737638091,-0.054502705075464335 L-0.2656596539039921,-0.049312098255882175 L-0.34506776782487564,-0.04227592246878789 L-0.42116910279851344,-0.03349785245111649 L-0.49315511855974414,-0.023120571017955685 L-0.5602074509187631,-0.011325769062545843 L-0.6214979117611223,0.0016658544437199718 L-0.7147941631401824,0.026930839043365438 L-0.7811806455376342,0.05158725348893197 L-0.8173928912940298,0.07010034643331789 L-0.8249819274961403,0.07523145228537377 L-0.8271604189160053,0.07694642276622776 " />
			<path d="M-0.6142266462966814,-4.512047924048329e-06 L-0.5379249977538374,0.015493612162492426 L-0.45357652444340946,0.029098926340220904 L-0.34784868973692123,0.041991525740354946 L-0.23551668073989576,0.051452802176005265 L-0.11879220242088412,0.05722380596454786 L0.00012597445460492407,0.059158836854671014 L0.10977697252362205,0.0575075525344199 L0.21770704762181675,0.052590718152850685 L0.3221950244116617,0.04451318610526529 L0.421512419287268,0.033458473420584826 " />
			<path d="M-1.2,0.0 L-1.198630607806193,0.02709634325866589 L-1.1944858477858928,0.054058149124815484 L-1.1875722260626507,0.0807501395111028 L-1.1778605364052344,0.10705491790208792 L-1.1652858602276277,0.13287296935423698 L-1.149747566589031,0.1581226604959223 L-1.1311093121938613,0.18274023952742213 L-1.1091990413917514,0.206679836220921 L-1.066228711097534,0.24383689670459105 L-1.0132101679722187,0.2788097778712255 L-0.949661340920225,0.3112653264486836 L-0.8753807504445703,0.3409997445787075 L-0.7906836333331095,0.3678224837229227 L-0.6964000459105154,0.3915152656668276 L-0.593634945856003,0.4118662306217733 L-0.4832902525867973,0.4287792124249342 L-0.36936908585361033,0.44182987039840105 L-0.2507870523891252,0.45130423607140974 L-0.12907221303879907,0.4571003381050988 L-0.0057540168009002635,0.4591562633795721 L0.11763669917349157,0.4574501569938987 L0.23956770958048396,0.452000222266113 L0.3585054009633735,0.4428647207332148 L0.47291477171263946,0.4301419721511699 " />

        </g>
        </g>
    </svg>
    