<?xml version='1.0' encoding='utf-8'?>
<svg width="100.08999mm" height="50.089995mm" viewBox="-1.0009 -0.5009 2.0018 1.0018" version="1.1" xmlns="http://www.w3.org/2000/svg">
  <g transform="scale(1,-1)" stroke-linecap="round">
    <g fill="none" stroke="rgb(0,0,0)" stroke-width="0.00180000018">
      <path d="M -1.0,-0.5 L 1.0,-0.5 L 0.823673,0.5 L -0.823673,0.5 L -1.0,-0.5 M -0.793049,-0.291 C -0.815025,-0.276807 -0.821475,-0.267094 -0.82185,-0.2469 C -0.822631,-0.214418 -0.794769,-0.189481 -0.75795,-0.1902 C -0.721131,-0.189481 -0.693268,-0.214418 -0.694049,-0.2469 C -0.694456,-0.267494 -0.700744,-0.277207 -0.72315,-0.291 C -0.69875,-0.3026 -0.686549,-0.3203 -0.686549,-0.3441 C -0.685674,-0.382118 -0.716825,-0.410582 -0.75795,-0.4098 C -0.799075,-0.410613 -0.830225,-0.381787 -0.82935,-0.3438 C -0.82935,-0.3202 -0.81725,-0.3026 -0.793049,-0.291 M -0.66075,-0.3 C -0.660305,-0.244699 -0.646809,-0.21502 -0.62835,-0.2022 C -0.61615,-0.1934 -0.60375,-0.1894 -0.59115,-0.1902 C -0.54475,-0.1902 -0.52155,-0.2274 -0.52155,-0.3018 C -0.52215,-0.3728 -0.54535,-0.4088 -0.59115,-0.4098 C -0.63715,-0.409 -0.66035,-0.3724 -0.66075,-0.3 M -0.41595,-0.1971 C -0.391994,-0.196256 -0.369806,-0.218444 -0.37065,-0.2424 C -0.369869,-0.26725 -0.391731,-0.288749 -0.41655,-0.288 C -0.440075,-0.288875 -0.462425,-0.266324 -0.46155,-0.2424 C -0.462363,-0.218444 -0.440338,-0.196256 -0.41595,-0.1971" />
      <path d="M -0.7311,-0.22275 C -0.743094,-0.21055 -0.772806,-0.21055 -0.7848,-0.22275 C -0.798026,-0.233537 -0.798374,-0.260232 -0.7848,-0.27135 C -0.772921,-0.283422 -0.743659,-0.283626 -0.73125,-0.2715 C -0.717286,-0.260462 -0.718062,-0.233331 -0.7311,-0.22275" />
      <path d="M -0.72585,-0.31425 C -0.740687,-0.29885 -0.775212,-0.29885 -0.79005,-0.31425 C -0.806466,-0.328197 -0.806385,-0.360553 -0.7902,-0.3747 C -0.775225,-0.390624 -0.740707,-0.389926 -0.726,-0.37485 C -0.709558,-0.361115 -0.709292,-0.328319 -0.72585,-0.31425" />
      <path d="M -0.54855,-0.2994 Q -0.54855,-0.2136 -0.59115,-0.2136 Q -0.63375,-0.2136 -0.63375,-0.3003 Q -0.63375,-0.3879 -0.59175,-0.3879 Q -0.547951,-0.38895 -0.54855,-0.2994" />
      <path d="M -0.396,-0.22245 C -0.406297,-0.211465 -0.425553,-0.211384 -0.43605,-0.2226 C -0.447455,-0.233322 -0.446995,-0.252129 -0.4362,-0.2625 C -0.425544,-0.27409 -0.406306,-0.273261 -0.39615,-0.26265 C -0.38512,-0.25257 -0.384833,-0.232876 -0.396,-0.22245" />
    </g>
    <g fill="none" stroke="rgb(0,0,0)" stroke-width="0.00180000018" id="dashed" stroke-dasharray="0.02286 0.01143">
      <path d="M -0.25,-0.5 A 0.75,0.75 0.0 0,1 -0.869764,0.238606" />
    </g>
  </g>
</svg>