<?xml version="1.0" encoding="UTF-8" standalone="no"?>
    <svg
    xmlns:svg="http://www.w3.org/2000/svg"
    xmlns="http://www.w3.org/2000/svg"
    width="239"
    height="140"
    >
        <g transform="scale(100, -100)   translate(1.2051126166026456,-0.7138482611620414)" stroke-width="0.01"  fill="none">
        <!-- hidden lines -->
        <g  stroke="rgb(160,160,160)" fill="none" stroke-dasharray="0.01,0.01" >
    
        </g>

        <!-- solid lines -->
        <g  stroke="rgb(0,0,0)" fill="none">
    			<path d="M-1.0051126166026456,-0.48615174216100543 L0.9948873807834682,-0.48615172800083284 " />
			<path d="M0.9948873807834682,-0.4861517280008329 L0.8185604003054524,0.5138482611620414 " />
			<path d="M0.8185604003054524,0.5138482611620414 L-0.8287856361246299,0.5138482494986893 " />
			<path d="M-0.8287856361246299,0.5138482494986892 L-1.0051126166026456,-0.48615174216100554 " />
			<path d="M-0.8335120308894177,-0.33015141692106786 L-0.845098045188183,-0.32114078624011266 L-0.8509490876826991,-0.31202434588710837 L-0.8527092863192784,-0.3002033568024843 L-0.8506565384363108,-0.287988243568197 L-0.844812981012256,-0.2776845560720995 L-0.8354072733857623,-0.2695026430416142 L-0.8236319462184747,-0.26453953951835435 L-0.8096605784563922,-0.26295308422924185 L-0.7958198340397699,-0.26474327719074986 L-0.7841771307600688,-0.2699101184175158 L-0.77495155390001,-0.2782520665686942 L-0.7693367237231366,-0.2886710842709532 L-0.7675126846951006,-0.3010006285739742 L-0.7694256526740977,-0.3126112102936161 L-0.7753217926520457,-0.3214944101339883 L-0.7869124215753204,-0.33015141659113834 " />
			<path d="M-0.7869124215753208,-0.3301514165911386 L-0.7735225682706786,-0.33908158700084035 L-0.7653909941972649,-0.35064082689193843 L-0.7625176993550796,-0.3648291362644329 L-0.7644733239888473,-0.3793895456394513 L-0.770743862197135,-0.39162013519977673 L-0.7811273384617895,-0.40133611220185794 L-0.7942630127687959,-0.4073224285122421 L-0.80989613886155,-0.40935161307811774 L-0.8255927497744603,-0.4074078709246922 L-0.8387923175557638,-0.40147458577285167 L-0.8492637044183373,-0.3917660149433519 L-0.8556446070289602,-0.3795472222414331 L-0.8577113989284496,-0.3650267442229198 L-0.8549488591214928,-0.35077165069035227 L-0.8468824031084822,-0.33914654158973495 L-0.8335120308894182,-0.3301514169210681 " />
			<path d="M-0.7453121612130233,-0.3361514162390729 L-0.7434343944795508,-0.31061559675761985 L-0.7382758270443079,-0.2909133778220593 L-0.731025401553847,-0.2781048276261314 L-0.7216187550134695,-0.2694579627028178 L-0.7119353814812552,-0.26469929903731265 L-0.7022084073335436,-0.2630540260018216 L-0.6920814714269775,-0.26338739928526866 L-0.6830248512823207,-0.2656114135367894 L-0.6751435534504633,-0.26972001678880264 L-0.6684375779314052,-0.2757132090413083 L-0.6585515938316869,-0.2933533605477969 L-0.653366898983166,-0.3185318680562552 L-0.6529424056845546,-0.35005830034179186 L-0.6578304018095555,-0.37677266629297357 L-0.6623174757539549,-0.3872969510052081 L-0.6681407055624236,-0.3958894508863954 L-0.6751989354515286,-0.40238146313227324 L-0.6834819527059505,-0.4067559554619865 L-0.6929897573256892,-0.4090129278755351 L-0.7034903379712034,-0.4091537419430492 L-0.7131479379417794,-0.40718917089438383 L-0.7215684130067423,-0.4031215277846358 L-0.7287517631660921,-0.396950812613805 L-0.7346958700986344,-0.38868126547426496 L-0.742658088434426,-0.3662625461770638 L-0.7453121612130233,-0.3361514162390737 " />
			<path d="M-0.7922122262558943,-0.2846517425857785 L-0.7999122897890084,-0.280119779694676 L-0.8097996508006142,-0.27855300289371815 L-0.8198094467735094,-0.27995141216828556 L-0.8276337083045884,-0.2843150075020376 L-0.8327948477701174,-0.2912113234716703 L-0.8347007381765461,-0.3001021902182218 L-0.8332946303124876,-0.30932671975140186 L-0.8285005307372291,-0.316593264579783 L-0.8207952785715497,-0.32141026691450814 L-0.8108113883264394,-0.323145399388773 L-0.8005197034046219,-0.3217689404892276 L-0.7924211584167272,-0.3172469686414438 L-0.7871849884526148,-0.3100873924018791 L-0.7855136148298587,-0.30083263986401343 L-0.7872389837322791,-0.2917000408391316 L-0.7922122262558942,-0.28465174258577863 " />
			<path d="M-0.7887122262604686,-0.3456517419760865 L-0.7982638944894069,-0.3398402676778648 L-0.810362125452791,-0.3379522389875238 L-0.8223655573013193,-0.3399876558863626 L-0.8318203770129842,-0.34594543955785695 L-0.8378522518753868,-0.3550058586211073 L-0.8397059992210302,-0.3664532928233316 L-0.8374097863112954,-0.3776667188773995 L-0.8309908870464267,-0.3865319241743389 L-0.821377990786323,-0.39212021936851715 L-0.8092903475817206,-0.39373539175410727 L-0.7976196170913855,-0.3915422458886487 L-0.7883966080619649,-0.3856582061605827 L-0.7824641291507298,-0.37682047298194904 L-0.7805122196152801,-0.3656328341909547 L-0.7825817930416764,-0.3544786456504779 L-0.7887122262604682,-0.3456517419760868 " />
			<path d="M-0.6705126821441153,-0.3357516761299858 L-0.6723579684971821,-0.3103074439898198 L-0.6778938275563825,-0.2922963883624834 L-0.6871202593217165,-0.28171850924797665 L-0.7000154182361309,-0.2785740375113439 L-0.7123645402669091,-0.2829075150099341 L-0.7210230895915536,-0.2947521733707011 L-0.7259910662100645,-0.31410801259364485 L-0.7272699651081334,-0.34079810234143876 L-0.724939368088789,-0.3654040011298664 L-0.7190444792673778,-0.382575838774636 L-0.7095852986438999,-0.39231361527574776 L-0.6966904629063891,-0.3946330992500896 L-0.6850150520080398,-0.39010492240069194 L-0.6768918856262801,-0.37901236800822274 L-0.6721074830146565,-0.36098167092371664 L-0.6705126821441153,-0.3357516761299868 " />

        </g>
        </g>
    </svg>
    