<?xml version='1.0' encoding='utf-8'?>
<svg width="76.066804mm" height="100.089997mm" viewBox="-5.089161 -7.054615 10.375881 13.652761" version="1.1" xmlns="http://www.w3.org/2000/svg">
  <g transform="scale(1,-1)" stroke-linecap="round">
    <g fill="none" stroke="rgb(0,0,0)" stroke-width="0.012276436524207717" id="Visible">
      <line x1="-3.941616" y1="5.435031" x2="2.964558" y2="0.327403" />
      <path d="M -3.941616,5.435031 C -3.999969,5.478731 -4.056855,5.488698 -4.083809,5.45992" />
      <path d="M 2.964558,0.327403 C 3.008906,0.293991 3.046959,0.250981 3.078717,0.198374 C 3.134495,0.106544 3.141408,0.012219 3.094019,-0.010408" />
      <path d="M 3.378746,0.677357 A 3.9,2.880312502123164 180.0 0,0 2.992406,0.304528" />
      <path d="M 3.378746,0.677357 Q 3.756955,0.75024 4.253155,0.850436" />
      <path d="M -2.88098,6.126658 C -2.548365,5.567514 -2.260525,5.084782 -2.00657,4.660197" />
      <path d="M -2.510304,4.37647 A 3.9,2.880312502123164 180.0 0,0 -2.00657,4.660197" />
      <line x1="3.378746" y1="0.677357" x2="-2.00657" y2="4.660197" />
      <path d="M -1.817417,-2.867746 L -1.960291,-2.84064" />
      <path d="M -2.871705,-4.017571 Q -2.901202,-4.164289 -2.901221,-4.312537" />
      <path d="M -2.901221,-4.312537 C -2.904404,-4.865304 -2.580927,-5.413971 -2.022541,-5.794945 C -1.468657,-6.179245 -0.687715,-6.390054 0.098779,-6.359611 C 0.885274,-6.33387 1.666216,-6.066877 2.2201,-5.626393 C 2.778486,-5.189234 3.101963,-4.584384 3.098779,-3.975433" />
      <path d="M 3.098779,-3.975433 Q 3.098766,-3.82738 3.074501,-3.680468" />
      <path d="M -2.871705,-3.343365 Q -2.901202,-3.490082 -2.901221,-3.63833" />
      <path d="M -2.901221,-3.63833 C -2.904403,-4.191096 -2.580928,-4.739763 -2.022541,-5.120737 C -1.468657,-5.505037 -0.687715,-5.715846 0.098779,-5.685403 C 0.885273,-5.659662 1.666215,-5.392669 2.220099,-4.952186 C 2.778486,-4.515027 3.101963,-3.910177 3.098779,-3.301227" />
      <path d="M 3.098779,-3.301227 Q 3.098757,-3.131821 3.067032,-2.964122" />
      <path d="M -2.871705,-2.669156 Q -2.901202,-2.815874 -2.901221,-2.964123" />
      <path d="M -2.901221,-2.964123 C -2.904394,-3.516395 -2.581516,-4.064584 -2.024022,-4.44551 C -1.608217,-4.733037 -1.066335,-4.926189 -0.488033,-4.989521 C 0.089864,-5.054356 0.701565,-4.988984 1.245862,-4.800736 C 1.790952,-4.613904 2.266173,-4.304949 2.592897,-3.921501 C 2.921347,-3.538905 3.099817,-3.083454 3.098779,-2.627018" />
      <path d="M 3.098779,-2.627018 Q 3.098766,-2.478964 3.074501,-2.332052" />
      <path d="M 3.067032,-2.289914 Q 3.038729,-2.140482 2.985722,-1.994948" />
      <path d="M 2.316938,-1.05602 L 2.229661,-0.983637" />
      <path d="M 1.973379,-0.801083 Q 1.843317,-0.718259 1.702539,-0.646533" />
      <path d="M -1.757885,-0.646533 Q -1.879319,-0.711676 -1.99028,-0.785658" />
      <path d="M -2.250053,-0.983637 L -2.275314,-1.005983" />
      <path d="M -2.862607,-1.95281 Q -2.901188,-2.120217 -2.901221,-2.289914" />
      <path d="M -2.901221,-2.289914 C -2.904399,-2.842433 -2.581222,-3.390862 -2.023282,-3.771812 C -1.469837,-4.156081 -0.68946,-4.367082 0.096684,-4.337062 C 0.883527,-4.311718 1.665035,-4.044894 2.219359,-3.604354 C 2.778191,-3.167147 3.101968,-2.562033 3.098779,-1.95281" />
      <path d="M 3.098779,-1.95281 Q 3.098766,-1.804757 3.074501,-1.657845" />
      <path d="M -2.871705,-1.320741 Q -2.901202,-1.467458 -2.901221,-1.615706" />
      <path d="M -2.901221,-1.615706 C -2.902256,-2.029746 -2.724003,-2.442803 -2.395921,-2.783132 C -2.06956,-3.12431 -1.594848,-3.391126 -1.050239,-3.536004 C -0.506423,-3.682295 0.104834,-3.705894 0.682509,-3.59942 C 1.260587,-3.494447 1.802475,-3.259783 2.218617,-2.930731 C 2.777895,-2.493474 3.101974,-1.888098 3.09878,-1.278603" />
      <path d="M 3.09878,-1.278603 Q 3.098767,-1.130548 3.074501,-0.983636" />
      <path d="M -2.862607,-0.604395 Q -2.901188,-0.771801 -2.901221,-0.941499" />
      <path d="M -2.901221,-0.941499 C -2.904402,-1.494142 -2.581075,-2.042689 -2.022911,-2.423652 C -1.469246,-2.807936 -0.688587,-3.018841 0.097732,-2.988609 C 0.884049,-2.963075 1.664934,-2.696401 2.218988,-2.256231 C 2.777539,-1.819385 3.101409,-1.214833 3.098779,-0.606017 C 3.098779,-0.605476 3.098779,-0.604936 3.098779,-0.604395" />
      <path d="M 3.098779,-0.604395 Q 3.098766,-0.456341 3.074501,-0.30943" />
      <path d="M -2.880327,-0.018924 Q -2.901211,-0.142652 -2.901221,-0.26729" />
      <path d="M -2.901221,-0.26729 C -2.904274,-0.814079 -2.588017,-1.35698 -2.040384,-1.737315 C -1.497106,-2.120812 -0.729831,-2.336199 0.0481,-2.31586 C 0.825928,-2.300031 1.603888,-2.048346 2.165669,-1.623059 C 2.731656,-1.201041 3.073837,-0.610775 3.097067,-0.008659" />
      <path d="M 3.096215,0.165849 Q 3.090878,0.265659 3.074501,0.36478" />
      <path d="M -2.831692,-0.044181 C -2.696656,-0.481388 -2.356061,-0.883845 -1.875238,-1.169987 C -1.396268,-1.457695 -0.780026,-1.627181 -0.144712,-1.641565 C 0.490373,-1.658022 1.140615,-1.519143 1.681294,-1.247195 C 2.223458,-0.977015 2.652722,-0.575296 2.886748,-0.114723" />
      <path d="M 3.033487,0.261861 L 3.057283,0.358913" />
      <path d="M -2.070545,-0.367465 C -1.58326,-0.721187 -0.908768,-0.939471 -0.204504,-0.965464 C 0.499332,-0.994567 1.226378,-0.830887 1.806933,-0.506725" />
      <path d="M 1.660017,-0.54323 Q 1.522511,-0.63444 1.370152,-0.710189" />
      <path d="M -1.38663,-0.730874 Q -1.626845,-0.60934 -1.816105,-0.449055" />
      <path d="M 2.441227,-0.30486 C 2.263889,-0.745697 1.875713,-1.134718 1.37015,-1.384398" />
      <path d="M 2.551685,-0.261748 L 2.55513,-0.309429" />
      <path d="M 2.557513,-0.394093 Q 2.557507,-0.50127 2.542289,-0.607807" />
      <path d="M 2.52363,-0.712355 C 2.441609,-1.09989 2.202688,-1.46722 1.84958,-1.752548 C 1.403155,-2.117401 0.772958,-2.343932 0.134599,-2.376767 C -0.409316,-2.407335 -0.953939,-2.299082 -1.38663,-2.07929" />
      <path d="M -2.283762,-0.983637 L -2.275314,-0.96129" />
      <path d="M -2.102882,-0.646533 Q -2.051338,-0.575017 -1.99028,-0.507408" />
      <path d="M 1.973379,-0.491982 Q 2.052858,-0.566505 2.122616,-0.646533" />
      <path d="M 2.192453,-0.731197 Q 2.240313,-0.792587 2.282279,-0.856436" />
      <path d="M 2.316938,-0.911253 L 2.358649,-0.983637" />
      <path d="M 2.401864,-1.068301 Q 2.460794,-1.192095 2.497713,-1.32074" />
      <path d="M 2.519469,-1.405405 Q 2.547958,-1.53076 2.55513,-1.657844" />
      <path d="M -1.19987,-0.646533 L -1.118373,-0.614825" />
      <path d="M 2.557513,-3.090925 Q 2.557507,-3.198096 2.542289,-3.304638" />
      <path d="M 2.52363,-3.409187 C 2.410304,-3.955527 1.977386,-4.456919 1.370152,-4.755436" />
      <path d="M -1.386633,-4.77612 C -1.930095,-4.504457 -2.288238,-4.059102 -2.349016,-3.589002" />
      <path d="M -2.358017,-3.495851 L -2.359955,-3.428029" />
      <path d="M -2.901221,-4.396813 C -2.904404,-4.94958 -2.580927,-5.498247 -2.022541,-5.879221 C -1.468657,-6.263521 -0.687715,-6.47433 0.098779,-6.443887 C 0.885274,-6.418146 1.666216,-6.151153 2.2201,-5.710669 C 2.778486,-5.27351 3.101963,-4.66866 3.098779,-4.059709" />
      <path d="M 3.098286,-4.017571 Q 3.0948,-3.869353 3.067032,-3.722606" />
      <path d="M -2.901221,-3.722606 C -2.904403,-4.275372 -2.580928,-4.824039 -2.022541,-5.205013 C -1.468657,-5.589313 -0.687715,-5.800122 0.098779,-5.769679 C 0.885273,-5.743938 1.666215,-5.476945 2.220099,-5.036462 C 2.778486,-4.599303 3.101963,-3.994453 3.098779,-3.385503" />
      <path d="M -2.901221,-3.048399 C -2.904394,-3.600671 -2.581516,-4.14886 -2.024022,-4.529786 C -1.608217,-4.817313 -1.066335,-5.010465 -0.488033,-5.073797 C 0.089864,-5.138632 0.701565,-5.07326 1.245862,-4.885012 C 1.790952,-4.69818 2.266173,-4.389225 2.592897,-4.005777 C 2.921347,-3.623181 3.099817,-3.16773 3.098779,-2.711294" />
      <path d="M -2.901221,-2.37419 C -2.904399,-2.926709 -2.581222,-3.475138 -2.023282,-3.856088 C -1.469837,-4.240357 -0.68946,-4.451358 0.096684,-4.421338 C 0.883527,-4.395994 1.665035,-4.12917 2.219359,-3.68863 C 2.778191,-3.251422 3.101968,-2.646309 3.098779,-2.037086" />
      <path d="M -2.900621,-1.657844 L -2.901221,-1.699982" />
      <path d="M -2.901221,-1.699982 C -2.902256,-2.114022 -2.724003,-2.527079 -2.395921,-2.867408 C -2.06956,-3.208586 -1.594848,-3.475402 -1.050239,-3.62028 C -0.506423,-3.766571 0.104834,-3.79017 0.682509,-3.683696 C 1.260587,-3.578723 1.802475,-3.344059 2.218617,-3.015007 C 2.777895,-2.57775 3.101974,-1.972374 3.09878,-1.362879" />
      <path d="M 3.09878,-1.362879 L 3.098286,-1.320741" />
      <path d="M -2.901221,-1.025775 C -2.904402,-1.578418 -2.581075,-2.126965 -2.022911,-2.507928 C -1.469246,-2.892212 -0.688587,-3.103117 0.097732,-3.072885 C 0.884049,-3.047351 1.664934,-2.780677 2.218988,-2.340507 C 2.777539,-1.903661 3.101409,-1.299109 3.098779,-0.690293 C 3.098779,-0.689752 3.098779,-0.689212 3.098779,-0.688671" />
      <path d="M -2.900621,-0.309428 L -2.901221,-0.351566" />
      <path d="M -2.901221,-0.351566 C -2.904404,-0.904333 -2.580928,-1.452999 -2.022541,-1.833974 C -1.468657,-2.218274 -0.687715,-2.429083 0.098779,-2.39864 C 0.885274,-2.372899 1.666216,-2.105906 2.2201,-1.665422 C 2.778486,-1.228264 3.101963,-0.623413 3.09878,-0.014462" />
      <path d="M 3.09878,-0.014462 L 3.098766,-0.007558" />
      <path d="M -2.858908,-0.030123 C -2.74976,-0.488533 -2.416241,-0.917039 -1.927026,-1.222537 C -1.440014,-1.529813 -0.800799,-1.711719 -0.141002,-1.725929 C 0.518534,-1.742541 1.193933,-1.591177 1.746122,-1.298134 C 2.300101,-1.007105 2.726914,-0.576316 2.938675,-0.089603" />
      <path d="M 3.049768,0.241463 Q 3.065506,0.308102 3.07621,0.375311" />
      <path d="M -2.264111,-0.297072 C -1.76735,-0.741392 -1.000319,-1.023517 -0.193004,-1.050173 C 0.613615,-1.082089 1.447681,-0.85761 2.059107,-0.435361" />
      <line x1="4.139175" y1="1.193696" x2="-2.767" y2="6.301324" />
      <path d="M 4.139175,1.193696 C 4.183523,1.160283 4.221576,1.117274 4.253334,1.064667 C 4.302828,0.982735 4.31481,0.897569 4.281368,0.865414" />
      <path d="M 4.281368,0.865414 Q 4.270075,0.853879 4.253155,0.850436" />
      <path d="M -2.767,6.301324 C -2.81726,6.338806 -2.866799,6.351983 -2.896461,6.335742" />
      <path d="M -2.896461,6.335742 C -2.943908,6.313092 -2.93691,6.218575 -2.88098,6.126658" />
      <path d="M 1.135043,-0.644939 C 0.442013,-0.920311 -0.404158,-0.934094 -1.075329,-0.693783 C -1.185286,-0.655088 -1.2901,-0.610479 -1.389772,-0.559955" />
      <path d="M -1.638593,-0.709719 L -1.636361,-0.708212" />
      <path d="M -1.560289,-0.659185 L -1.539503,-0.646533" />
      <path d="M -1.385991,-0.561868 L -1.384525,-0.561129" />
      <path d="M 1.490703,-0.646533 L 1.505517,-0.654891" />
      <path d="M 1.586585,-0.702877 Q 1.73336,-0.793317 1.861871,-0.898972" />
      <path d="M 1.959151,-0.983637 L 2.025865,-1.047737" />
      <path d="M 2.074985,-1.098622 Q 2.137423,-1.165497 2.192453,-1.236076" />
      <path d="M 2.254843,-1.320741 Q 2.33989,-1.443063 2.401863,-1.57318" />
      <path d="M 2.439361,-1.657844 Q 2.4903,-1.78206 2.519469,-1.910284" />
      <path d="M 2.543121,-2.039584 Q 2.557508,-2.143199 2.557513,-2.247388" />
      <path d="M 2.079376,-0.429132 Q 2.139364,-0.493778 2.192453,-0.561868" />
      <path d="M 2.254843,-0.646533 Q 2.306501,-0.720823 2.34974,-0.798172" />
      <path d="M 2.380114,-0.854929 L 2.401864,-0.898972" />
      <path d="M 2.439361,-0.983637 Q 2.490301,-1.107855 2.519469,-1.236076" />
      <path d="M 2.543121,-1.365376 Q 2.557508,-1.468989 2.557513,-1.57318" />
      <path d="M 2.449651,-2.137023 C 2.340636,-2.41687 2.148837,-2.677754 1.893577,-2.895046 C 1.479476,-3.250441 0.89467,-3.484364 0.288193,-3.543939 C -0.171177,-3.590805 -0.640499,-3.539229 -1.047738,-3.400156 C -1.455689,-3.262072 -1.800982,-3.036781 -2.030696,-2.761861 C -2.154479,-2.613897 -2.243917,-2.455992 -2.299009,-2.288144" />
      <path d="M -2.159697,-0.561868 Q -2.122723,-0.502498 -2.079326,-0.445379" />
      <path d="M -2.036582,-0.391556 L -2.028434,-0.381807" />
      <path d="M 2.557111,-0.259564 Q 2.55235,-0.46194 2.493954,-0.659429" />
      <path d="M 2.449651,-0.788607 C 2.371683,-0.987313 2.255962,-1.172275 2.102487,-1.343494 C 1.719091,-1.774417 1.105378,-2.079534 0.44595,-2.175799 C -0.170832,-2.269651 -0.819049,-2.180605 -1.325777,-1.939664 C -1.814866,-1.710764 -2.168445,-1.34515 -2.299009,-0.939728" />
      <path d="M -0.826844,-2.998406 Q -1.137266,-3.095411 -1.402818,-3.250124" />
      <path d="M -1.545318,-3.339855 L -1.565475,-3.353691" />
      <path d="M -1.636501,-3.404976 L -1.638593,-3.40655" />
      <path d="M -1.462487,-6.178937 A 2.458734122635,1.815877598159595 -2.358734586570796e-15 0,1 2.18302,-5.739443" />
      <path d="M 2.431921,-4.203189 A 2.458734122635,1.815877598159595 -2.358734586570796e-15 0,1 2.395344,-4.127573" />
      <path d="M 2.234689,-3.876666 A 2.458734122635,1.815877598159595 -2.358734586570796e-15 0,1 2.131894,-3.754961" />
      <path d="M 1.914186,-3.551471 A 2.458734122635,1.815877598159595 -2.358734586570796e-15 0,1 1.652114,-3.36853" />
      <path d="M -0.605541,-3.036351 A 2.458734122635,1.815877598159595 -2.358734586570796e-15 0,1 -1.317699,-3.291871" />
      <path d="M -1.564146,-3.438564 A 2.458734122635,1.815877598159595 -2.358734586570796e-15 0,1 -1.638593,-3.491215" />
      <line x1="0.098779" y1="3.314363" x2="-1.012332" y2="4.136112" />
      <line x1="0.098779" y1="3.314363" x2="-1.013885" y2="2.493761" />
      <line x1="0.098779" y1="3.314363" x2="0.098779" y2="4.37452" />
      <path d="M -1.012332,4.136112 C -0.981468,4.113286 -0.987666,4.090479 -0.993865,4.067672" />
      <path d="M -1.012332,4.136112 C -0.981468,4.113286 -0.950578,4.117832 -0.919687,4.122378" />
      <path d="M -1.013885,2.493761 C -0.982978,2.516556 -0.952096,2.511978 -0.921215,2.5074" />
      <path d="M -1.013885,2.493761 C -0.982978,2.516556 -0.989133,2.53937 -0.995289,2.562183" />
      <path d="M 0.098779,4.37452 C 0.098779,4.345071 0.080235,4.319615 0.061691,4.294158" />
      <path d="M 0.098779,4.37452 C 0.098779,4.345071 0.117324,4.346968 0.135868,4.348865" />
      <line x1="-1.284557" y1="4.187679" x2="-1.117475" y2="4.20997" />
      <line x1="-1.117475" y1="4.20997" x2="-1.085107" y2="4.339699" />
      <line x1="-1.085107" y1="4.339699" x2="-1.053162" y2="4.316073" />
      <line x1="-1.053162" y1="4.316073" x2="-1.082448" y2="4.212826" />
      <line x1="-1.082448" y1="4.212826" x2="-0.942329" y2="4.234105" />
      <line x1="-0.942329" y1="4.234105" x2="-0.91094" y2="4.21089" />
      <line x1="-0.91094" y1="4.21089" x2="-1.086642" y2="4.187166" />
      <line x1="-1.086642" y1="4.187166" x2="-1.118168" y2="4.064622" />
      <line x1="-1.118168" y1="4.064622" x2="-1.149557" y2="4.087837" />
      <line x1="-1.149557" y1="4.087837" x2="-1.121946" y2="4.184926" />
      <line x1="-1.121946" y1="4.184926" x2="-1.253724" y2="4.164876" />
      <line x1="-1.253724" y1="4.164876" x2="-1.284557" y2="4.187679" />
      <line x1="-1.092887" y1="2.285942" x2="-1.139725" y2="2.433162" />
      <line x1="-1.139725" y1="2.433162" x2="-1.21917" y2="2.491917" />
      <line x1="-1.21917" y1="2.491917" x2="-1.1933" y2="2.510996" />
      <line x1="-1.1933" y1="2.510996" x2="-1.113855" y2="2.452241" />
      <line x1="-1.113855" y1="2.452241" x2="-0.912635" y2="2.41888" />
      <line x1="-0.912635" y1="2.41888" x2="-0.944624" y2="2.395287" />
      <line x1="-0.944624" y1="2.395287" x2="-1.102763" y2="2.424315" />
      <line x1="-1.102763" y1="2.424315" x2="-1.06201" y2="2.308714" />
      <line x1="-1.06201" y1="2.308714" x2="-1.092887" y2="2.285942" />
      <line x1="0.168181" y1="4.618918" x2="0.022144" y2="4.511214" />
      <line x1="0.022144" y1="4.511214" x2="0.022144" y2="4.488951" />
      <line x1="0.022144" y1="4.488951" x2="0.143425" y2="4.429179" />
      <line x1="0.143425" y1="4.429179" x2="0.021588" y2="4.339323" />
      <line x1="0.021588" y1="4.339323" x2="0.021588" y2="4.31759" />
      <line x1="0.021588" y1="4.31759" x2="0.098779" y2="4.37452" />
      <line x1="0.098779" y1="4.37452" x2="0.17597" y2="4.431449" />
      <line x1="0.17597" y1="4.431449" x2="0.17597" y2="4.453182" />
      <line x1="0.17597" y1="4.453182" x2="0.054133" y2="4.513073" />
      <line x1="0.054133" y1="4.513073" x2="0.168181" y2="4.597184" />
      <line x1="0.168181" y1="4.597184" x2="0.168181" y2="4.618918" />
      <path d="M -3.941616,5.435031 A 4.956801948466,3.660804775055149 -2.358734586570796e-15 0,1 2.964558,0.327403" />
      <path d="M 4.139175,1.193696 A 4.956801948466,3.660804775055149 -2.358734586570796e-15 0,1 -2.767,6.301324" />
      <path d="M -4.083809,5.459919 C -4.874087,4.656983 -5.223573,3.613575 -5.032587,2.620493 C -4.847418,1.600506 -4.097192,0.653007 -2.999767,0.045787 C -2.056826,-0.483508 -0.866643,-0.758307 0.311274,-0.719887 C 1.304698,-0.690611 2.283816,-0.441259 3.094019,-0.010408" />
      <path d="M -2.901221,-4.396813 L -2.901221,-4.312537" />
      <path d="M 3.098779,-4.059709 L 3.098779,-3.975433" />
      <path d="M -2.901221,-3.722606 L -2.901221,-3.63833" />
      <path d="M 3.098779,-3.385503 L 3.098779,-3.301227" />
      <path d="M -2.901221,-3.048399 L -2.901221,-2.964123" />
      <path d="M 3.098779,-2.711294 L 3.098779,-2.627018" />
      <path d="M -2.901221,-2.37419 L -2.901221,-2.289914" />
      <path d="M 3.098779,-2.037086 L 3.098779,-1.95281" />
      <path d="M -2.901221,-1.699982 L -2.901221,-1.615706" />
      <path d="M 3.09878,-1.362879 L 3.09878,-1.278603" />
      <path d="M -2.901221,-1.025775 L -2.901221,-0.941499" />
      <path d="M 3.098779,-0.688671 L 3.098779,-0.604395" />
      <path d="M -2.901221,-0.351566 L -2.901221,-0.26729" />
      <path d="M 3.09878,-0.014462 L 3.09878,-0.007549" />
      <path d="M -2.896461,6.335742 C -2.030924,6.796354 -0.972115,7.0487 0.090256,7.048472 C 1.184615,7.051535 2.276091,6.786072 3.157848,6.301366 C 4.279316,5.693308 5.046853,4.732128 5.231642,3.696778 C 5.419314,2.706088 5.069461,1.666185 4.281368,0.865414" />
      <line x1="-2.359955" y1="-3.932907" x2="-2.359955" y2="-4.102236" />
      <line x1="2.557513" y1="-0.259402" x2="2.557513" y2="-0.394093" />
    </g>
    <g fill="none" stroke="rgb(99,99,99)" stroke-width="0.012276436524207717" id="Hidden" stroke-dasharray="0.000312 0.036985">
      <path d="M -4.083809,5.45992 C -4.117298,5.427727 -4.105232,5.342384 -4.055597,5.260365" />
      <path d="M 3.094019,-0.010408 L 3.078539,-0.015856" />
      <path d="M -3.181187,3.793905 C -3.435142,4.218489 -3.722982,4.701221 -4.055597,5.260365" />
      <line x1="-3.181187" y1="3.793905" x2="2.204129" y2="-0.188936" />
      <path d="M 3.078539,-0.015856 Q 2.582338,-0.116053 2.204129,-0.188936" />
      <path d="M -3.181187,3.793905 A 3.9,2.880312502123164 180.0 0,0 -2.65701,4.273741" />
      <path d="M 2.992406,0.304528 A 3.9,2.880312502123164 180.0 0,0 2.204129,-0.188936" />
      <path d="M -2.65701,4.273741 A 3.9,2.880312502123164 180.0 0,0 -2.510304,4.37647" />
      <path d="M -2.021059,3.196621 C -1.743306,3.401684 -1.410355,3.565739 -1.047331,3.676407" />
      <path d="M -1.047331,3.676407 C -0.448981,3.828589 0.221369,3.832712 0.831936,3.683819 C 1.422392,3.541968 1.953386,3.258096 2.32285,2.882606 C 2.681609,2.521162 2.8876,2.076269 2.901494,1.627061 C 2.917379,1.189666 2.750823,0.750517 2.430828,0.387054 C 2.12111,0.032242 1.667438,-0.248924 1.150104,-0.408038 C 0.647223,-0.564394 0.086547,-0.604228 -0.433501,-0.522188 C -0.944688,-0.443082 -1.414035,-0.246741 -1.758574,0.03053 C -2.098506,0.301919 -2.316097,0.65006 -2.372266,1.011549" />
      <path d="M -1.667752,2.598221 A 2.5,1.8463541680276694 -2.358734586570796e-15 0,1 -2.372266,1.011549" />
      <line x1="-2.021059" y1="3.196621" x2="-1.91683" y2="3.020087" />
      <path d="M -1.91683,3.020087 L -2.021059,3.154483" />
      <path d="M -2.021059,3.154483 L -2.021059,3.196621" />
      <path d="M 0.481615,3.116317 C -0.311412,3.386811 -1.236945,3.335168 -1.91683,3.020087" />
      <path d="M 0.481615,3.116317 A 2.5,1.8463541680276694 -2.358734586570796e-15 0,1 -1.667752,2.598221" />
      <path d="M -2.372266,1.011549 Q -2.380176,1.14953 -2.359944,1.286433" />
      <path d="M -1.638593,2.576656 A 2.458734122635,1.815877598159595 -2.358734586570796e-15 0,1 -2.359955,1.29174" />
      <path d="M -2.359955,1.29174 A 2.458734122635,1.815877598159595 -2.358734586570796e-15 0,1 -2.359944,1.286433" />
      <path d="M 0.109398,3.107601 A 2.458734122635,1.815877598159595 -2.358734586570796e-15 0,1 -1.638593,2.576656" />
      <path d="M 0.109398,3.107601 Q 0.294796,3.122351 0.481615,3.116317" />
      <path d="M -1.638593,-2.227464 C -1.203786,-1.931373 -0.599103,-1.764728 0.017313,-1.778144 C 0.639971,-1.788369 1.267,-1.982737 1.73138,-2.31671 C 2.252251,-2.685141 2.560954,-3.222657 2.557513,-3.765132" />
      <path d="M 2.557513,-3.765132 C 2.558346,-4.140264 2.414235,-4.514637 2.148729,-4.830544 C 1.829562,-5.214125 1.33239,-5.508242 0.773547,-5.650011 C 0.222214,-5.792518 -0.384299,-5.785338 -0.907199,-5.635848 C -1.583758,-5.447565 -2.105952,-5.021155 -2.284029,-4.523278 C -2.334535,-4.385304 -2.359843,-4.244957 -2.359955,-4.102236" />
      <path d="M -2.359955,-4.102236 C -2.362589,-3.653867 -2.096959,-3.208892 -1.638593,-2.901671" />
      <path d="M -1.638593,-2.901671 L -1.817417,-2.867746" />
      <path d="M -1.960291,-2.84064 L -2.021059,-2.829111" />
      <path d="M -2.021059,-2.829111 C -2.479304,-3.142427 -2.782765,-3.56802 -2.871705,-4.017571" />
      <path d="M 3.074501,-3.680468 C 2.985427,-3.127713 2.628011,-2.602984 2.088218,-2.226306 C 1.551414,-1.847136 0.837579,-1.619514 0.118401,-1.592006 C -0.600748,-1.56117 -1.318098,-1.730481 -1.861117,-2.053039 C -2.40708,-2.373076 -2.773303,-2.842913 -2.871705,-3.343365" />
      <path d="M 3.067032,-2.964122 C 2.965523,-2.416189 2.599955,-1.899438 2.057209,-1.530614 C 1.517333,-1.15933 0.805522,-0.93931 0.090949,-0.916777 C -0.623636,-0.890996 -1.334063,-1.062689 -1.871487,-1.38498 C -2.411799,-1.704822 -2.773891,-2.171907 -2.871705,-2.669156" />
      <path d="M 3.074501,-2.332052 L 3.067032,-2.289914" />
      <path d="M 2.985722,-1.994948 C 2.860116,-1.649021 2.629173,-1.325387 2.316938,-1.05602" />
      <path d="M 2.229661,-0.983637 Q 2.108145,-0.886919 1.973379,-0.801083" />
      <path d="M 1.702539,-0.646533 C 1.182608,-0.380536 0.559002,-0.237877 -0.056114,-0.240254 C -0.671356,-0.240812 -1.274793,-0.38628 -1.757885,-0.646533" />
      <path d="M -1.99028,-0.785658 Q -2.129425,-0.878454 -2.250053,-0.983637" />
      <path d="M -2.275314,-1.005983 C -2.579729,-1.278585 -2.783607,-1.608013 -2.862607,-1.95281" />
      <path d="M 3.074501,-1.657845 C 2.985427,-1.10509 2.628012,-0.580362 2.088219,-0.203683 C 1.551415,0.175487 0.837581,0.403109 0.118402,0.430617 C -0.600747,0.461454 -1.318097,0.292142 -1.861116,-0.030415 C -2.407079,-0.350451 -2.773303,-0.820288 -2.871705,-1.320741" />
      <path d="M 3.074501,-0.983636 C 2.98601,-0.43479 2.633103,0.086492 2.099547,0.462532 C 1.568916,0.840985 0.862775,1.070799 0.14874,1.10348 C -0.565223,1.139399 -1.280184,0.978101 -1.826435,0.66393 C -2.375501,0.352242 -2.750567,-0.10905 -2.862607,-0.604395" />
      <path d="M 3.074501,-0.30943 C 2.984783,0.247635 2.622364,0.776157 2.075671,1.153496 C 1.532039,1.533414 0.809718,1.758537 0.084955,1.780253 C -0.639829,1.805399 -1.359633,1.627164 -1.898824,1.295355 C -2.441108,0.966106 -2.797242,0.486933 -2.880327,-0.018924" />
      <path d="M 3.097067,-0.008659 L 3.09878,0.069814" />
      <path d="M 3.09878,0.069814 L 3.096215,0.165849" />
      <path d="M 3.074501,0.36478 C 2.992559,0.870357 2.68755,1.353136 2.221581,1.719603 C 1.805776,2.049281 1.263894,2.284583 0.685592,2.390066 C 0.107695,2.497051 -0.504006,2.47383 -1.048303,2.327732 C -1.593394,2.183051 -2.068614,1.916246 -2.395339,1.574948 C -2.723788,1.234503 -2.902259,0.821202 -2.901221,0.406917" />
      <path d="M -2.901221,0.406917 Q -2.901115,0.178596 -2.831692,-0.044181" />
      <path d="M 2.886748,-0.114723 Q 2.980658,0.068982 3.033487,0.261861" />
      <path d="M 3.057283,0.358913 Q 3.098742,0.55019 3.098779,0.744021" />
      <path d="M 3.098779,0.744021 C 3.101957,1.352699 2.778781,1.957286 2.220841,2.394396 C 1.667396,2.834823 0.887019,3.101984 0.100875,3.128122 C -0.685968,3.158987 -1.467476,2.948373 -2.0218,2.564042 C -2.580633,2.183043 -2.90441,1.634138 -2.901221,1.081125" />
      <path d="M -2.901221,1.081125 C -2.90406,0.544557 -2.599941,0.011532 -2.070545,-0.367465" />
      <path d="M 1.806933,-0.506725 C 2.203947,-0.286806 2.532743,0.005215 2.756265,0.338374 C 2.980624,0.67121 3.099252,1.044537 3.098779,1.418229" />
      <path d="M 3.098779,1.418229 C 3.099284,1.79826 2.976524,2.177895 2.744791,2.514979 C 2.513948,2.852415 2.174637,3.1466 1.766363,3.36533 C 0.951975,3.809262 -0.140194,3.924237 -1.047331,3.676407" />
      <path d="M -2.359944,1.286433 L -2.359955,1.291426" />
      <path d="M -2.359955,1.291426 C -2.362571,1.739797 -2.09697,2.184781 -1.638593,2.491991" />
      <path d="M -1.638593,2.491991 C -1.286694,2.730791 -0.824891,2.886991 -0.334223,2.929367 C 0.164078,2.973888 0.689613,2.900366 1.147222,2.718115 C 1.689233,2.504919 2.130686,2.139664 2.362439,1.706206 C 2.4918,1.465232 2.556825,1.214604 2.557513,0.954322" />
      <path d="M 2.557513,0.954322 C 2.561705,0.387515 2.222864,-0.173942 1.660017,-0.54323" />
      <path d="M 1.370152,-0.710189 C 1.125688,-0.831257 0.863677,-0.918879 0.584121,-0.973057 C -0.097307,-1.107328 -0.834232,-1.01309 -1.38663,-0.730874" />
      <path d="M -1.816105,-0.449055 C -2.166098,-0.154107 -2.361426,0.23074 -2.359955,0.617218" />
      <path d="M -2.359955,0.617218 C -2.362569,1.065612 -2.096957,1.510577 -1.638593,1.817783" />
      <path d="M -1.638593,1.817783 C -1.33381,2.024316 -0.947143,2.169639 -0.530104,2.231895 C 0.088286,2.326763 0.769929,2.232288 1.323855,1.96712 C 1.709012,1.784809 2.031978,1.523608 2.247286,1.21755 C 2.450092,0.93094 2.557991,0.60571 2.557513,0.280115" />
      <path d="M 2.557513,0.280115 Q 2.557156,-0.01897 2.441227,-0.30486" />
      <path d="M 1.37015,-1.384398 C 1.359064,-1.389819 1.347978,-1.39524 1.336892,-1.400661 C 0.928944,-1.597586 0.450409,-1.704487 -0.021604,-1.707393 C -0.493694,-1.711544 -0.958549,-1.61177 -1.341187,-1.427456 C -1.973976,-1.128443 -2.36527,-0.596876 -2.359955,-0.056989" />
      <path d="M -2.359955,-0.056989 C -2.362562,0.391421 -2.096964,0.836357 -1.638593,1.143576" />
      <path d="M -1.638593,1.143576 C -1.316624,1.361891 -0.90255,1.511721 -0.45856,1.567605 C -0.014897,1.624534 0.458083,1.587376 0.889386,1.458772 C 1.291151,1.339921 1.656463,1.142279 1.937595,0.889263 C 2.219538,0.636781 2.417033,0.329111 2.504285,0.004071 C 2.527985,-0.083695 2.543785,-0.172302 2.551685,-0.261748" />
      <path d="M 2.55513,-0.309429 L 2.557513,-0.394093" />
      <path d="M 2.542289,-0.607807 L 2.52363,-0.712355" />
      <path d="M -1.38663,-2.07929 C -1.993348,-1.777053 -2.364803,-1.257817 -2.359955,-0.731197" />
      <path d="M -2.359955,-0.731197 C -2.362567,-0.282807 -2.096963,0.162159 -1.638593,0.469368" />
      <path d="M -1.638593,0.469368 C -1.225805,0.750165 -0.660424,0.91517 -0.076623,0.919163 C 0.358634,0.923535 0.801734,0.839941 1.192323,0.677186 C 1.68629,0.473177 2.092576,0.142246 2.325072,-0.250562 C 2.477798,-0.50641 2.557781,-0.787273 2.557513,-1.068301" />
      <path d="M 2.557513,-1.068301 C 2.561022,-1.612838 2.249767,-2.152484 1.725333,-2.52103 C 1.278656,-2.840008 0.683202,-3.030985 0.085852,-3.05327 C -0.537901,-3.079735 -1.156489,-2.921626 -1.604691,-2.628425 C -2.083393,-2.32046 -2.362799,-1.864982 -2.359955,-1.405405" />
      <path d="M -2.359955,-1.405405 Q -2.359794,-1.190981 -2.283762,-0.983637" />
      <path d="M -2.275314,-0.96129 Q -2.211663,-0.797601 -2.102882,-0.646533" />
      <path d="M -1.99028,-0.507408 Q -1.839979,-0.341106 -1.638593,-0.20484" />
      <path d="M -1.638593,-0.20484 C -1.301248,0.023974 -0.863096,0.177186 -0.395121,0.226609 C 0.134245,0.284196 0.699037,0.207203 1.183626,0.006575 C 1.485348,-0.117483 1.756045,-0.287955 1.973379,-0.491982" />
      <path d="M 2.122616,-0.646533 L 2.192453,-0.731197" />
      <path d="M 2.282279,-0.856436 L 2.316938,-0.911253" />
      <path d="M 2.358649,-0.983637 L 2.401864,-1.068301" />
      <path d="M 2.497713,-1.32074 L 2.519469,-1.405405" />
      <path d="M 2.55513,-1.657844 L 2.557513,-1.742509" />
      <path d="M 2.557513,-1.742509 C 2.557718,-2.003113 2.489055,-2.263685 2.357122,-2.504175 C 2.112621,-2.955087 1.640166,-3.330404 1.06588,-3.537194 C 0.524007,-3.735623 -0.102714,-3.781995 -0.663243,-3.67134 C -1.13495,-3.58018 -1.557962,-3.379953 -1.857468,-3.109809 C -2.158598,-2.840574 -2.335649,-2.502102 -2.357374,-2.157874 C -2.358234,-2.131787 -2.359095,-2.1057 -2.359955,-2.079613" />
      <path d="M -2.359955,-2.079613 C -2.36257,-1.631208 -2.096942,-1.186243 -1.638593,-0.879048" />
      <path d="M -1.638593,-0.879048 Q -1.439111,-0.744286 -1.19987,-0.646533" />
      <path d="M -1.118373,-0.614825 C -0.435351,-0.356964 0.440202,-0.366853 1.1512,-0.654504 C 1.696941,-0.870028 2.140109,-1.23994 2.369485,-1.678027 C 2.494195,-1.915116 2.556871,-2.161345 2.557513,-2.416717" />
      <path d="M 2.557513,-2.416717 C 2.563021,-3.031214 2.162387,-3.636639 1.517649,-4.002276 C 1.031271,-4.283871 0.415857,-4.426605 -0.177084,-4.401745 C -0.709889,-4.381646 -1.220473,-4.227852 -1.605896,-3.976058 C -2.083886,-3.668149 -2.36282,-3.212881 -2.359955,-2.753821" />
      <path d="M -2.359955,-2.753821 C -2.362569,-2.305421 -2.096959,-1.860469 -1.638593,-1.553256" />
      <path d="M -1.638593,-1.553256 C -1.267591,-1.301324 -0.774119,-1.141713 -0.253893,-1.109828 C 0.356821,-1.069719 0.999002,-1.208831 1.504319,-1.497747 C 2.156682,-1.862725 2.563203,-2.472253 2.557513,-3.090925" />
      <path d="M 2.542289,-3.304638 L 2.52363,-3.409187" />
      <path d="M 1.370152,-4.755436 C 0.742775,-5.071093 -0.05971,-5.160027 -0.748668,-5.001844 C -0.978562,-4.949959 -1.191217,-4.874718 -1.386633,-4.77612" />
      <path d="M -2.349016,-3.589002 L -2.358017,-3.495851" />
      <path d="M -2.359955,-3.428029 C -2.362573,-2.979658 -2.096967,-2.534672 -1.638593,-2.227464" />
      <path d="M -2.021059,-2.913387 L -2.021059,-2.829111" />
      <path d="M -2.021059,-2.913387 C -2.580336,-3.29441 -2.904415,-3.843552 -2.901221,-4.396813" />
      <path d="M 3.098779,-4.059709 L 3.098286,-4.017571" />
      <path d="M 3.067032,-3.722606 C 2.960874,-3.147723 2.562969,-2.607711 1.976666,-2.235872 C 1.393677,-1.860984 0.629129,-1.658324 -0.118398,-1.673572 C -0.866309,-1.68492 -1.588456,-1.913709 -2.09727,-2.293555 C -2.609959,-2.670739 -2.903342,-3.194241 -2.90122,-3.721133 C -2.90122,-3.721624 -2.90122,-3.722115 -2.901221,-3.722606" />
      <path d="M 3.098779,-3.385503 C 3.101963,-2.776552 2.778486,-2.171702 2.2201,-1.734543 C 1.666216,-1.294059 0.885274,-1.027066 0.098779,-1.001325 C -0.687715,-0.970882 -1.468657,-1.181691 -2.022541,-1.565991 C -2.580927,-1.946965 -2.904404,-2.495632 -2.901221,-3.048399" />
      <path d="M 3.098779,-2.711294 C 3.101963,-2.102343 2.778486,-1.497493 2.2201,-1.060335 C 1.666215,-0.619851 0.885273,-0.352858 0.098779,-0.327117 C -0.687715,-0.296674 -1.468657,-0.507483 -2.022541,-0.891783 C -2.580927,-1.272757 -2.904404,-1.821424 -2.901221,-2.37419" />
      <path d="M 3.098779,-2.037086 C 3.101885,-1.43203 2.78269,-0.830947 2.230673,-0.394511 C 1.683071,0.045152 0.910216,0.31452 0.128761,0.345908 C -0.652632,0.381882 -1.431867,0.179797 -1.990503,-0.195874 C -2.553465,-0.568253 -2.888108,-1.108684 -2.900621,-1.657844" />
      <path d="M 3.098286,-1.320741 C 3.087214,-0.715378 2.753591,-0.118322 2.191042,0.310711 C 1.632836,0.743039 0.853436,1.001788 0.071568,1.022181 C -0.710356,1.047171 -1.483958,0.833879 -2.03214,0.449998 C -2.584744,0.069354 -2.904334,-0.476219 -2.901221,-1.025775" />
      <path d="M 3.098779,-0.688671 C 3.101884,-0.083615 2.782691,0.517469 2.230674,0.953904 C 1.683071,1.393567 0.910216,1.662936 0.128761,1.694323 C -0.652632,1.730298 -1.431866,1.528213 -1.990503,1.152542 C -2.553465,0.780163 -2.888108,0.239732 -2.900621,-0.309428" />
      <path d="M 3.098766,-0.007558 C 3.099566,0.598536 2.776927,1.199913 2.221581,1.635327 C 1.805776,1.965005 1.263894,2.200308 0.685592,2.30579 C 0.107695,2.412775 -0.504006,2.389554 -1.048303,2.243456 C -1.593394,2.098775 -2.068614,1.83197 -2.395339,1.490672 C -2.723788,1.150227 -2.902259,0.736926 -2.901221,0.322641" />
      <path d="M -2.901221,0.322641 Q -2.901181,0.144944 -2.858908,-0.030123" />
      <path d="M 2.938675,-0.089603 Q 3.009933,0.07291 3.049768,0.241463" />
      <path d="M 3.07621,0.375311 Q 3.098768,0.517016 3.098779,0.659745" />
      <path d="M 3.098779,0.659745 C 3.101957,1.268423 2.778781,1.87301 2.220841,2.31012 C 1.667396,2.750547 0.887019,3.017708 0.100875,3.043846 C -0.685968,3.074711 -1.467476,2.864097 -2.0218,2.479766 C -2.580633,2.098767 -2.90441,1.549862 -2.901221,0.996849" />
      <path d="M -2.901221,0.996849 C -2.902876,0.529965 -2.674735,0.064864 -2.264111,-0.297072" />
      <path d="M 2.059107,-0.435361 C 2.713325,0.008054 3.103269,0.667816 3.098779,1.333953" />
      <path d="M 3.098779,1.333953 C 3.099815,1.790118 2.921562,2.2453 2.593479,2.627755 C 2.267119,3.011058 1.792407,3.32 1.247798,3.507003 C 0.703982,3.695419 0.092725,3.761144 -0.48495,3.696796 C -1.063028,3.633948 -1.604917,3.44141 -2.021059,3.154483" />
      <path d="M 0.109398,3.107601 C 0.624605,3.084298 1.137643,2.936906 1.552498,2.688811 C 2.177428,2.321628 2.562682,1.726666 2.557513,1.123651" />
      <path d="M 2.557513,1.123651 C 2.557894,0.816211 2.461896,0.509039 2.280229,0.234467 C 2.03309,-0.142096 1.62368,-0.454803 1.135043,-0.644939" />
      <path d="M -1.389772,-0.559955 C -1.994749,-0.257492 -2.364751,0.26089 -2.359955,0.786547" />
      <path d="M -2.359955,0.786547 C -2.362568,1.234955 -2.096965,1.679886 -1.638593,1.987112" />
      <path d="M -2.021059,-2.913387 L -1.638593,-3.40655" />
      <path d="M -1.638593,-2.732342 C -1.223847,-2.450186 -0.654983,-2.284993 -0.068244,-2.282481 C 0.58513,-2.276121 1.252362,-2.474038 1.738615,-2.826776 C 2.25521,-3.195004 2.560897,-3.730107 2.557513,-4.270011" />
      <path d="M 2.557513,-4.270011 C 2.558235,-4.631746 2.424466,-4.992852 2.176595,-5.301394 C 1.893185,-5.657154 1.45897,-5.94092 0.960219,-6.100932 C 0.405789,-6.281433 -0.224601,-6.305763 -0.77768,-6.174262 C -1.456557,-6.017777 -2.005654,-5.626892 -2.23234,-5.149806 C -2.317109,-4.974054 -2.359647,-4.793158 -2.359955,-4.607115" />
      <path d="M -2.359955,-4.607115 C -2.362615,-4.158814 -2.09696,-3.713759 -1.638593,-3.40655" />
      <path d="M -1.638593,-2.058135 C -1.222579,-1.775103 -0.65153,-1.60981 -0.062908,-1.608243 C 0.417587,-1.605239 0.906651,-1.710016 1.323771,-1.908758 C 1.836748,-2.150612 2.23609,-2.534206 2.425345,-2.973116 C 2.513141,-3.175301 2.557197,-3.382863 2.557513,-3.595803" />
      <path d="M 2.557513,-3.595803 C 2.55775,-3.867172 2.48323,-4.138448 2.340503,-4.387134 C 2.025063,-4.947846 1.349738,-5.379454 0.584117,-5.523183 C 0.115295,-5.614419 -0.381587,-5.601039 -0.824595,-5.488626 C -1.268263,-5.377427 -1.657332,-5.167452 -1.927571,-4.896777 C -2.20797,-4.618184 -2.360882,-4.275996 -2.359955,-3.932907" />
      <path d="M -2.359955,-3.932907 C -2.362579,-3.484556 -2.096965,-3.039542 -1.638593,-2.732342" />
      <path d="M -1.638593,-1.383927 C -1.287433,-1.145581 -0.826083,-0.98933 -0.336536,-0.946754 C 0.152644,-0.902675 0.669057,-0.972472 1.120913,-1.147516 C 1.723508,-1.377407 2.204057,-1.795474 2.419651,-2.285986 C 2.511215,-2.492128 2.557169,-2.703998 2.557513,-2.921596" />
      <path d="M 2.557513,-2.921596 C 2.557772,-3.199286 2.47969,-3.476868 2.330435,-3.730272 C 2.084871,-4.151367 1.639234,-4.501751 1.100559,-4.703438 C 0.53187,-4.919868 -0.135127,-4.966566 -0.722297,-4.838317 C -1.193848,-4.737499 -1.611416,-4.527138 -1.901373,-4.248179 C -2.198224,-3.965046 -2.360996,-3.6124 -2.359955,-3.2587" />
      <path d="M -2.359955,-3.2587 C -2.362578,-2.810351 -2.096966,-2.365332 -1.638593,-2.058135" />
      <path d="M -1.636361,-0.708212 L -1.560289,-0.659185" />
      <path d="M -1.539503,-0.646533 Q -1.465305,-0.601908 -1.385991,-0.561868" />
      <path d="M -1.384525,-0.561129 C -1.060979,-0.397695 -0.675705,-0.295119 -0.274344,-0.267642 C 0.33696,-0.223638 0.981864,-0.359479 1.490703,-0.646533" />
      <path d="M 1.505517,-0.654891 L 1.586585,-0.702877" />
      <path d="M 1.861871,-0.898972 L 1.959151,-0.983637" />
      <path d="M 2.025865,-1.047737 L 2.074985,-1.098622" />
      <path d="M 2.192453,-1.236076 L 2.254843,-1.320741" />
      <path d="M 2.401863,-1.57318 L 2.439361,-1.657844" />
      <path d="M 2.519469,-1.910284 Q 2.5341,-1.974638 2.543121,-2.039584" />
      <path d="M 2.557513,-2.247388 C 2.557007,-2.487946 2.501163,-2.720832 2.389983,-2.946046 C 2.160179,-3.415019 1.686258,-3.810321 1.100864,-4.029115 C 0.581497,-4.226445 -0.019849,-4.283605 -0.567568,-4.193308 C -1.026939,-4.119249 -1.446967,-3.94325 -1.758779,-3.697518 C -2.071908,-3.452634 -2.276304,-3.138494 -2.338432,-2.810026 C -2.352771,-2.735214 -2.359945,-2.660036 -2.359955,-2.584492" />
      <path d="M -2.359955,-2.584492 C -2.362569,-2.136084 -2.096964,-1.691154 -1.638593,-1.383927" />
      <path d="M -1.638593,-0.035511 C -1.291152,0.200277 -0.835926,0.355785 -0.352158,0.40024 C 0.131241,0.446139 0.642339,0.380768 1.09199,0.21188 C 1.482749,0.066233 1.826806,-0.15628 2.079376,-0.429132" />
      <path d="M 2.192453,-0.561868 L 2.254843,-0.646533" />
      <path d="M 2.34974,-0.798172 L 2.380114,-0.854929" />
      <path d="M 2.401864,-0.898972 L 2.439361,-0.983637" />
      <path d="M 2.519469,-1.236076 Q 2.534099,-1.300428 2.543121,-1.365376" />
      <path d="M 2.557513,-1.57318 Q 2.557201,-1.861031 2.449651,-2.137023" />
      <path d="M -2.299009,-2.288144 Q -2.359855,-2.10173 -2.359955,-1.910284" />
      <path d="M -2.359955,-1.910284 C -2.362574,-1.46193 -2.096968,-1.016917 -1.638593,-0.709719" />
      <path d="M -1.638593,0.638697 C -1.302561,0.866651 -0.865944,1.019735 -0.399978,1.069623 C 0.065643,1.120758 0.559807,1.068536 1.001979,0.918139 C 1.563288,0.729735 2.036115,0.382388 2.301898,-0.043399 C 2.469605,-0.309288 2.55784,-0.60404 2.557513,-0.898972" />
      <path d="M 2.557513,-0.898972 C 2.557359,-1.076465 2.52651,-1.250814 2.464968,-1.422018 C 2.336235,-1.781775 2.069669,-2.112452 1.70889,-2.363271 C 1.349259,-2.615058 0.895976,-2.786658 0.423364,-2.853302 C -0.131482,-2.933417 -0.71039,-2.867184 -1.186882,-2.674415 C -1.723993,-2.460532 -2.124832,-2.088248 -2.280785,-1.665862 C -2.333443,-1.525131 -2.359833,-1.381869 -2.359955,-1.236076" />
      <path d="M -2.359955,-1.236076 Q -2.358853,-0.883853 -2.159697,-0.561868" />
      <path d="M -2.079326,-0.445379 L -2.036582,-0.391556" />
      <path d="M -2.028434,-0.381807 Q -1.866536,-0.189817 -1.638593,-0.035511" />
      <path d="M -1.638593,1.312905 C -1.245111,1.580337 -0.713435,1.743204 -0.15879,1.760935 C 0.43029,1.78233 1.039893,1.638569 1.521984,1.358295 C 2.164302,0.992446 2.563005,0.388198 2.557513,-0.224764" />
      <path d="M 2.557513,-0.224764 L 2.557111,-0.259564" />
      <path d="M 2.493954,-0.659429 Q 2.474664,-0.724586 2.449651,-0.788607" />
      <path d="M -2.299009,-0.939728 Q -2.359845,-0.753374 -2.359955,-0.561868" />
      <path d="M -2.359955,-0.561868 C -2.362571,-0.113456 -2.096958,0.331471 -1.638593,0.638697" />
      <path d="M -1.638593,1.987112 C -1.29373,2.22108 -0.843434,2.375875 -0.3637,2.421765 C 0.185485,2.476182 0.769955,2.385747 1.262115,2.164871 C 1.515407,2.051287 1.724525,1.917178 1.907736,1.759138 C 2.092021,1.600457 2.241347,1.418638 2.355711,1.21368 C 2.48857,0.972449 2.557715,0.710997 2.557513,0.449443" />
      <path d="M 2.557513,0.449443 C 2.557365,0.273864 2.527167,0.10133 2.466918,-0.068158 C 2.348078,-0.403606 2.10994,-0.714256 1.786508,-0.95844 C 1.463977,-1.203327 1.056526,-1.381523 0.622414,-1.470299 C 0.037807,-1.591997 -0.592583,-1.547596 -1.112652,-1.35456 C -1.613819,-1.171487 -2.008816,-0.8538 -2.20692,-0.480234 C -2.308502,-0.289469 -2.359513,-0.091944 -2.359955,0.11234" />
      <path d="M -2.359955,0.11234 C -2.36262,0.560629 -2.096959,1.005698 -1.638593,1.312905" />
      <path d="M 1.729921,-3.200178 C 1.718805,-3.190754 1.709034,-3.181805 1.670062,-3.151503 C 1.654703,-3.139169 1.624937,-3.117433 1.580763,-3.086295 C 1.53432,-3.053973 1.471391,-3.013233 1.407264,-2.97586 C 1.113106,-2.803577 0.77224,-2.677046 0.423725,-2.608461" />
      <path d="M 0.423725,-2.608461 C -0.322635,-2.457329 -1.108619,-2.579727 -1.638593,-2.901671" />
      <path d="M -2.021059,-2.829111 C -1.355769,-2.513527 -0.494562,-2.420509 0.29739,-2.583239" />
      <path d="M 0.29739,-2.583239 C 0.829558,-2.68988 1.328281,-2.905673 1.729921,-3.200178" />
      <path d="M 1.729921,-3.200178 L 1.729921,-3.284454" />
      <path d="M -2.021059,-2.913387 C -1.427472,-2.632722 -0.678282,-2.526104 0.038967,-2.624259 C 0.666183,-2.707381 1.264024,-2.942358 1.729921,-3.284454" />
      <path d="M 1.729921,-3.284454 C 1.718831,-3.278274 1.709081,-3.272623 1.670272,-3.25047 C 1.647625,-3.237808 1.601819,-3.210936 1.517889,-3.168643 C 1.426083,-3.122535 1.318285,-3.075644 1.209431,-3.03668 C 1.079674,-2.990003 0.944995,-2.952022 0.805395,-2.922737 C 0.273695,-2.810219 -0.312515,-2.836737 -0.826844,-2.998406" />
      <path d="M -1.402818,-3.250124 Q -1.47631,-3.293005 -1.545318,-3.339855" />
      <path d="M -1.565475,-3.353691 L -1.636501,-3.404976" />
      <path d="M -1.638593,-3.491215 A 2.458734122635,1.815877598159595 -2.358734586570796e-15 0,1 -2.359955,-4.776131" />
      <path d="M -2.359955,-4.776131 A 2.458734122635,1.815877598159595 -2.358734586570796e-15 0,1 -1.462487,-6.178937" />
      <path d="M 2.18302,-5.739443 A 2.458734122635,1.815877598159595 -2.358734586570796e-15 0,1 2.557513,-4.776131" />
      <path d="M 2.557513,-4.776131 A 2.458734122635,1.815877598159595 -2.358734586570796e-15 0,1 2.431921,-4.203189" />
      <path d="M 2.395344,-4.127573 A 2.458734122635,1.815877598159595 -2.358734586570796e-15 0,1 2.234689,-3.876666" />
      <path d="M 2.131894,-3.754961 A 2.458734122635,1.815877598159595 -2.358734586570796e-15 0,1 1.914186,-3.551471" />
      <path d="M 1.652114,-3.36853 A 2.458734122635,1.815877598159595 -2.358734586570796e-15 0,1 -0.605541,-3.036351" />
      <path d="M -1.317699,-3.291871 A 2.458734122635,1.815877598159595 -2.358734586570796e-15 0,1 -1.564146,-3.438564" />
      <path d="M 3.09878,-0.007549 L 3.09878,0.069814" />
      <path d="M -2.901221,0.322641 L -2.901221,0.406917" />
      <path d="M 3.098779,0.659745 L 3.098779,0.744021" />
      <path d="M -2.901221,0.996849 L -2.901221,1.081125" />
      <path d="M 3.098779,1.333953 L 3.098779,1.418229" />
      <line x1="-2.359955" y1="0.786547" x2="-2.359955" y2="0.617218" />
      <line x1="2.557513" y1="1.123651" x2="2.557513" y2="0.954322" />
      <line x1="-2.359955" y1="1.29174" x2="-2.359955" y2="1.291426" />
      <line x1="2.557513" y1="-3.595803" x2="2.557513" y2="-3.765132" />
      <line x1="-2.359955" y1="-3.2587" x2="-2.359955" y2="-3.428029" />
      <line x1="2.557513" y1="-2.921596" x2="2.557513" y2="-3.090925" />
      <line x1="-2.359955" y1="-2.584492" x2="-2.359955" y2="-2.753821" />
      <line x1="2.557513" y1="-2.247388" x2="2.557513" y2="-2.416717" />
      <line x1="-2.359955" y1="-1.910284" x2="-2.359955" y2="-2.079613" />
      <line x1="2.557513" y1="-1.57318" x2="2.557513" y2="-1.742509" />
      <line x1="-2.359955" y1="-1.236076" x2="-2.359955" y2="-1.405405" />
      <line x1="2.557513" y1="-0.898972" x2="2.557513" y2="-1.068301" />
      <line x1="-2.359955" y1="-0.561868" x2="-2.359955" y2="-0.731197" />
      <line x1="2.557513" y1="-0.224764" x2="2.557513" y2="-0.259402" />
      <line x1="-2.359955" y1="0.11234" x2="-2.359955" y2="-0.056989" />
      <line x1="2.557513" y1="0.449444" x2="2.557513" y2="0.280115" />
      <path d="M 0.423725,-2.608461 L 0.29739,-2.583239" />
      <line x1="-2.359955" y1="-4.607115" x2="-2.359955" y2="-4.776131" />
      <line x1="2.557513" y1="-4.270011" x2="2.557513" y2="-4.776131" />
      <path d="M -4.055597,5.260365 A 5.115900974233,3.7783060347967656 -2.358734586570796e-15 0,1 3.078539,-0.015856" />
      <path d="M 4.253155,0.850436 A 5.115900974233,3.7783060347967656 -2.358734586570796e-15 0,1 -2.88098,6.126658" />
    </g>
  </g>
</svg>