<?xml version='1.0' encoding='utf-8'?>
<svg width="100.09mm" height="36.056391mm" viewBox="-211.604579 -94.281297 424.640469 152.972351" version="1.1" xmlns="http://www.w3.org/2000/svg">
  <g transform="scale(1,-1)" stroke-linecap="round">
    <g fill="none" stroke="rgb(0,0,0)" stroke-width="0.3818327727384302" id="Visible">
      <line x1="212.844973" y1="-31.942535" x2="212.844973" y2="67.26262" />
      <line x1="212.844973" y1="67.26262" x2="1.789138" y2="94.090381" />
      <line x1="-0.357828" y1="-58.500138" x2="212.844973" y2="-31.942535" />
      <line x1="-0.357828" y1="40.705017" x2="212.844973" y2="67.26262" />
      <line x1="-0.357828" y1="-58.500138" x2="-0.357828" y2="40.705017" />
      <line x1="-0.357828" y1="40.705017" x2="-63.674578" y2="48.753345" />
      <line x1="-56.567818" y1="49.638598" x2="-63.674578" y2="48.753345" />
      <line x1="-0.286262" y1="42.484529" x2="-56.567818" y2="49.638598" />
      <line x1="-0.286262" y1="42.484529" x2="198.703019" y2="67.271625" />
      <line x1="198.703019" y1="67.271625" x2="1.717572" y2="92.310868" />
      <line x1="-197.271709" y1="67.523772" x2="1.717572" y2="92.310868" />
      <line x1="-140.990152" y1="60.369703" x2="-197.271709" y2="67.523772" />
      <line x1="-140.990152" y1="60.369703" x2="-148.096912" y2="59.484449" />
      <line x1="-148.096912" y1="59.484449" x2="-211.413663" y2="67.532777" />
      <line x1="-211.413663" y1="67.532777" x2="1.789138" y2="94.090381" />
      <line x1="-211.413663" y1="-31.672378" x2="-211.413663" y2="67.532777" />
      <line x1="-0.357828" y1="-58.500138" x2="-211.413663" y2="-31.672378" />
      <line x1="-63.674578" y1="47.748999" x2="-63.674578" y2="48.753345" />
      <line x1="-132.041649" y1="55.459527" x2="-119.637216" y2="53.882773" />
      <line x1="-98.272715" y1="51.167085" x2="-85.868282" y2="49.590331" />
      <line x1="-148.096912" y1="58.670119" x2="-148.096912" y2="59.484449" />
      <path d="M -134.026523,30.91054 A 3.0,2.0937826871364194 -82.89952616230032 0,0 -132.144629,29.042514" />
      <path d="M -131.930288,27.321793 A 3.0,2.0937826871364194 -82.89952616230032 0,0 -133.655694,24.957393" />
      <path d="M -133.655694,24.957393 A 3.0,2.0937826871364194 -82.89952616230032 0,0 -134.397352,30.911378" />
      <path d="M -134.397352,30.911378 A 3.0,2.0937826871364194 -82.89952616230032 0,0 -134.026523,30.91054" />
      <path d="M -105.885745,27.333505 A 3.0,2.0937826871364194 -82.89952616230032 0,0 -104.003851,25.465479" />
      <path d="M -103.78951,23.744758 A 3.0,2.0937826871364194 -82.89952616230032 0,0 -105.514916,21.380358" />
      <path d="M -105.514916,21.380358 A 3.0,2.0937826871364194 -82.89952616230032 0,0 -106.256574,27.334343" />
      <path d="M -106.256574,27.334343 A 3.0,2.0937826871364194 -82.89952616230032 0,0 -105.885745,27.333505" />
      <path d="M -77.744967,23.756471 A 3.0,2.0937826871364194 -82.89952616230032 0,0 -75.863073,21.888444" />
      <path d="M -75.648732,20.167723 A 3.0,2.0937826871364194 -82.89952616230032 0,0 -77.374138,17.803323" />
      <path d="M -77.374138,17.803323 A 3.000000244881658,2.093782858046078 -82.89952616230032 0,0 -78.115796,23.757309" />
      <path d="M -78.115796,23.757309 A 3.0,2.0937826871364194 -82.89952616230032 0,0 -77.744967,23.756471" />
      <line x1="-63.674578" y1="48.557851" x2="-140.990152" y2="58.3856" />
      <line x1="-140.990152" y1="58.3856" x2="-140.990152" y2="60.369703" />
      <line x1="1.717572" y1="92.310868" x2="1.717572" y2="42.734137" />
      <line x1="-143.449002" y1="58.079313" x2="-140.990152" y2="58.3856" />
      <line x1="-63.674578" y1="-0.849232" x2="-63.674578" y2="38.725566" />
      <line x1="-131.212446" y1="47.417713" x2="-131.212446" y2="49.467573" />
      <line x1="-131.212446" y1="47.417713" x2="-120.456565" y2="46.05051" />
      <line x1="-97.443512" y1="43.125271" x2="-86.687631" y2="41.758068" />
      <line x1="-97.443512" y1="43.125271" x2="-97.443512" y2="45.175132" />
      <path d="M -77.744967,24.015819 A 3.261426524367547,2.276239464029425 -82.89952616230033 0,0 -76.294909,23.103468" />
      <path d="M -75.769297,18.88389 A 3.261426524367547,2.276239464029425 -82.89952616230033 1,0 -77.744967,24.015819" />
      <path d="M -105.885745,27.592854 A 3.261426524367547,2.276239464029425 -82.89952616230033 0,0 -104.435687,26.680502" />
      <path d="M -103.910075,22.460925 A 3.261426524367547,2.276239464029425 -82.89952616230033 1,0 -105.885745,27.592854" />
      <path d="M -134.026523,31.169889 A 3.261426524367547,2.276239464029425 -82.89952616230033 0,0 -132.576465,30.257537" />
      <path d="M -132.050854,26.037959 A 3.261426524367547,2.276239464029425 -82.89952616230033 1,0 -134.026523,31.169889" />
      <path d="M -152.28078,49.121475 A 5.000000233566649,3.5251363154654887 82.75585947664035 0,0 -151.019805,59.041654" />
      <line x1="-149.518264" y1="48.770326" x2="-149.518264" y2="9.704821" />
      <line x1="-149.518264" y1="9.704821" x2="-65.09593" y2="-1.026283" />
      <line x1="-65.09593" y1="-1.026283" x2="-63.674578" y2="-0.849232" />
      <path d="M -134.765826,46.975086 A 5.0,3.5251361507946415 82.75585947664035 0,0 -135.396313,46.975255" />
      <path d="M -135.396313,46.975255 A 5.0,3.5251361507946415 82.75585947664035 0,0 -134.135338,56.895433" />
      <path d="M -134.135338,56.895433 A 5.0,3.5251361507946415 82.75585947664035 0,0 -131.308579,53.511979" />
      <path d="M -67.41231,38.373919 A 5.0,3.5251361507946415 82.75585947664035 0,0 -67.858446,38.390371" />
      <path d="M -67.858446,38.390371 A 5.000000233566645,3.525136315465486 82.75585947664035 0,0 -66.597471,48.31055" />
      <path d="M -66.597471,48.31055 A 5.0,3.5251361507946415 82.75585947664035 0,0 -66.161411,48.214865" />
      <line x1="-65.09593" y1="38.164034" x2="-65.09593" y2="-1.026283" />
      <line x1="-131.212446" y1="47.417713" x2="-132.633798" y2="47.240662" />
      <line x1="-132.633798" y1="47.240662" x2="-134.765826" y2="46.975086" />
      <path d="M -134.765826,54.018652 A 2.1,1.4805571833337496 82.75585947664035 0,0 -134.501021,54.018581" />
      <path d="M -134.501021,54.018581 A 2.1,1.4805571833337496 82.75585947664035 0,0 -134.065796,53.862454" />
      <path d="M -134.570186,49.894383 A 2.1,1.4805571833337496 82.75585947664035 0,0 -135.03063,49.852106" />
      <path d="M -135.03063,49.852106 A 2.1,1.4805571833337496 82.75585947664035 0,0 -134.765826,54.018652" />
      <path d="M -84.742913,40.536592 A 5.000000296615433,3.525136359916598 82.75585947664035 0,0 -83.481937,50.456771" />
      <line x1="-132.633798" y1="47.240662" x2="-120.110692" y2="45.648823" />
      <path d="M -118.511846,44.829034 A 5.0,3.5251361507946415 82.75585947664035 0,0 -117.250871,54.749212" />
      <line x1="-98.864864" y1="42.94822" x2="-86.341759" y2="41.356382" />
      <line x1="-97.443512" y1="43.125271" x2="-98.864864" y2="42.94822" />
      <path d="M -100.996892,42.682644 A 5.0,3.5251361507946415 82.75585947664035 0,0 -101.62738,42.682813" />
      <path d="M -101.62738,42.682813 A 5.0,3.5251361507946415 82.75585947664035 0,0 -100.366404,52.602991" />
      <path d="M -100.366404,52.602991 A 5.0,3.5251361507946415 82.75585947664035 0,0 -97.539645,49.219537" />
      <line x1="-98.864864" y1="42.94822" x2="-100.996892" y2="42.682644" />
      <path d="M -100.996892,49.72621 A 2.1,1.4805571833337496 82.75585947664035 0,0 -100.732087,49.72614" />
      <path d="M -100.732087,49.72614 A 2.1,1.4805571833337496 82.75585947664035 0,0 -100.296863,49.570013" />
      <path d="M -100.801253,45.601941 A 2.1,1.4805571833337496 82.75585947664035 0,0 -101.261697,45.559665" />
      <path d="M -101.261697,45.559665 A 2.1,1.4805571833337496 82.75585947664035 0,0 -100.996892,49.72621" />
      <path d="M -79.166319,25.563523 A 5.0,3.4896378118940325 97.10047383769967 1,1 -75.904352,18.332259" />
      <path d="M -75.904352,18.332259 A 5.0,3.4896378118940325 97.10047383769967 0,1 -76.561164,23.60511" />
      <path d="M -76.561164,23.60511 A 5.0,3.4896378118940325 97.10047383769967 0,1 -79.166319,25.563523" />
      <path d="M -107.307097,29.140558 A 5.0,3.4896378118940325 97.10047383769967 1,1 -104.04513,21.909293" />
      <path d="M -104.04513,21.909293 A 5.0,3.4896378118940325 97.10047383769967 0,1 -104.701942,27.182144" />
      <path d="M -104.701942,27.182144 A 5.0,3.4896378118940325 97.10047383769967 0,1 -107.307097,29.140558" />
      <path d="M -135.447875,32.717592 A 5.0,3.4896378118940325 97.10047383769967 1,1 -132.185908,25.486328" />
      <path d="M -132.185908,25.486328 A 5.0,3.4896378118940325 97.10047383769967 0,1 -132.842721,30.759179" />
      <path d="M -132.842721,30.759179 A 5.0,3.4896378118940325 97.10047383769967 0,1 -135.447875,32.717592" />
      <path d="M -66.289932,48.191484 A 5.0,3.5251361507946415 -97.24414052335966 0,1 -66.92042,38.271137" />
      <path d="M -65.659445,48.191315 A 5.0,3.5251361507946415 -97.24414052335966 0,1 -66.289932,48.191484" />
      <path d="M -65.351906,48.072249 A 5.0,3.5251361507946415 -97.24414052335966 0,1 -65.982394,38.151902" />
      <path d="M -64.721419,48.072081 A 5.0,3.5251361507946415 -97.24414052335966 0,1 -65.351906,48.072249" />
      <path d="M -64.41388,46.630279 A 3.666666666666667,2.585099843916071 -97.24414052335966 0,1 -64.41388,39.355235 A 3.666666666666667,2.585099843916071 -97.24414052335966 0,1 -64.41388,46.630279" />
      <line x1="-134.135338" y1="56.895433" x2="-151.019805" y2="59.041654" />
      <line x1="-135.396313" y1="46.975255" x2="-152.28078" y2="49.121475" />
      <line x1="-66.597471" y1="48.31055" x2="-83.481937" y2="50.456771" />
      <line x1="-67.858446" y1="38.390371" x2="-84.742913" y2="40.536592" />
      <line x1="-100.366404" y1="52.602991" x2="-117.250871" y2="54.749212" />
      <line x1="-101.62738" y1="42.682813" x2="-118.511846" y2="44.829034" />
      <path d="M -66.454745,48.191856 C -67.455855,48.069845 -68.38194,47.469493 -69.04101,46.596854 C -69.644089,45.806414 -70.041336,44.789416 -70.175896,43.734651 C -70.373686,42.226903 -70.022021,40.664697 -69.176758,39.6005 C -68.608462,38.873172 -67.799136,38.37932 -66.92042,38.271137" />
      <path d="M -65.659445,48.191315 Q -66.056228,48.241472 -66.454745,48.191856" />
      <line x1="-66.92042" y1="38.271137" x2="-65.982394" y2="38.151902" />
      <line x1="-65.659445" y1="48.191315" x2="-64.721419" y2="48.072081" />
      <path d="M -65.982394,38.151902 C -65.334173,38.068143 -64.664658,38.193903 -64.067715,38.496614 C -63.608317,38.728104 -63.189563,39.060433 -62.830461,39.466467 C -62.114345,40.273125 -61.636064,41.378593 -61.475562,42.536884 C -61.258491,44.059601 -61.60305,45.647848 -62.45388,46.728448 C -62.610168,46.928582 -62.781997,47.110041 -62.969365,47.272825 C -63.468654,47.707689 -64.079535,47.991806 -64.721419,48.072081" />
      <line x1="-135.465855" y1="50.008233" x2="-121.338605" y2="48.212488" />
      <line x1="-101.696921" y1="45.715792" x2="-87.569672" y2="43.920047" />
      <line x1="-134.961465" y1="53.976305" x2="-120.834215" y2="52.18056" />
      <line x1="-101.192531" y1="49.683863" x2="-87.065282" y2="47.888118" />
    </g>
    <g fill="none" stroke="rgb(99,99,99)" stroke-width="0.3818327727384302" id="Hidden" stroke-dasharray="0.009699 1.150348">
      <line x1="1.789138" y1="-5.114774" x2="1.789138" y2="94.090381" />
      <line x1="212.844973" y1="-31.942535" x2="1.789138" y2="-5.114774" />
      <line x1="-211.413663" y1="-31.672378" x2="1.789138" y2="-5.114774" />
      <line x1="-63.674578" y1="46.769242" x2="-63.674578" y2="47.748999" />
      <line x1="-148.096912" y1="57.500346" x2="-132.041649" y2="55.459527" />
      <line x1="-119.637216" y1="53.882773" x2="-98.272715" y2="51.167085" />
      <line x1="-85.868282" y1="49.590331" x2="-63.674578" y2="46.769242" />
      <line x1="-148.096912" y1="57.500346" x2="-148.096912" y2="58.670119" />
      <path d="M -132.144629,29.042514 A 3.0,2.0937826871364194 -82.89952616230032 0,0 -131.930288,27.321793" />
      <path d="M -104.003851,25.465479 A 3.0,2.0937826871364194 -82.89952616230032 0,0 -103.78951,23.744758" />
      <path d="M -75.863073,21.888444 A 3.0,2.0937826871364194 -82.89952616230032 0,0 -75.648732,20.167723" />
      <line x1="-63.674578" y1="46.769242" x2="-56.567818" y2="47.654495" />
      <line x1="-56.567818" y1="47.654495" x2="-56.567818" y2="49.638598" />
      <line x1="-0.286262" y1="-46.80011" x2="-0.286262" y2="42.484529" />
      <line x1="-197.271709" y1="-21.760867" x2="-0.286262" y2="-46.80011" />
      <line x1="-56.567818" y1="47.654495" x2="-63.674578" y2="48.557851" />
      <line x1="-197.271709" y1="-21.760867" x2="-197.271709" y2="67.523772" />
      <path d="M -126.919763,31.795793 A 3.0,2.0937826871364194 -82.89952616230032 0,0 -126.548934,25.842646" />
      <path d="M -126.548934,25.842646 A 3.000000244881658,2.093782858046078 -82.89952616230032 0,0 -127.290592,31.796632" />
      <path d="M -127.290592,31.796632 A 3.0,2.0937826871364194 -82.89952616230032 0,0 -126.919763,31.795793" />
      <path d="M -98.778985,28.218759 A 3.0,2.0937826871364194 -82.89952616230032 0,0 -98.408156,22.265611" />
      <path d="M -98.408156,22.265611 A 3.000000244881658,2.093782858046078 -82.89952616230032 0,0 -99.149814,28.219597" />
      <path d="M -99.149814,28.219597 A 3.0,2.0937826871364194 -82.89952616230032 0,0 -98.778985,28.218759" />
      <path d="M -70.638207,24.641724 A 3.0,2.0937826871364194 -82.89952616230032 0,0 -70.267378,18.688577" />
      <path d="M -70.267378,18.688577 A 3.0,2.0937826871364194 -82.89952616230032 0,0 -71.009036,24.642562" />
      <path d="M -71.009036,24.642562 A 3.0,2.0937826871364194 -82.89952616230032 0,0 -70.638207,24.641724" />
      <line x1="198.703019" y1="-22.013014" x2="198.703019" y2="67.271625" />
      <line x1="-0.286262" y1="-46.80011" x2="198.703019" y2="-22.013014" />
      <line x1="1.717572" y1="3.026229" x2="198.703019" y2="-22.013014" />
      <line x1="1.717572" y1="42.734137" x2="1.717572" y2="3.026229" />
      <line x1="-197.271709" y1="-21.760867" x2="1.717572" y2="3.026229" />
      <line x1="-148.096912" y1="57.500346" x2="-143.449002" y2="58.079313" />
      <line x1="-148.096912" y1="9.881872" x2="-148.096912" y2="54.524191" />
      <line x1="-148.096912" y1="9.881872" x2="-63.674578" y2="-0.849232" />
      <line x1="-63.674578" y1="38.725566" x2="-63.674578" y2="43.793087" />
      <line x1="-131.212446" y1="49.467573" x2="-131.212446" y2="52.377971" />
      <line x1="-120.456565" y1="46.05051" x2="-114.327979" y2="45.271492" />
      <line x1="-80.559045" y1="40.97905" x2="-80.559045" y2="45.939308" />
      <line x1="-114.327979" y1="45.271492" x2="-114.327979" y2="50.23175" />
      <line x1="-86.687631" y1="41.758068" x2="-80.559045" y2="40.97905" />
      <line x1="-97.443512" y1="45.175132" x2="-97.443512" y2="48.085529" />
      <path d="M -76.294909,23.103468 A 3.261426524367547,2.276239464029425 -82.89952616230033 0,0 -76.045663,22.738375" />
      <path d="M -76.045663,22.738375 A 3.261426524367547,2.276239464029425 -82.89952616230033 0,0 -75.617234,19.298972" />
      <path d="M -75.617234,19.298972 A 3.261426524367547,2.276239464029425 -82.89952616230033 0,0 -75.769297,18.88389" />
      <path d="M -104.435687,26.680502 A 3.261426524367547,2.276239464029425 -82.89952616230033 0,0 -104.186441,26.31541" />
      <path d="M -104.186441,26.31541 A 3.261426524367547,2.276239464029425 -82.89952616230033 0,0 -103.758012,22.876006" />
      <path d="M -103.758012,22.876006 A 3.261426524367547,2.276239464029425 -82.89952616230033 0,0 -103.910075,22.460925" />
      <path d="M -132.576465,30.257537 A 3.261426524367547,2.276239464029425 -82.89952616230033 0,0 -132.327219,29.892444" />
      <path d="M -132.327219,29.892444 A 3.261426524367547,2.276239464029425 -82.89952616230033 0,0 -131.89879,26.453041" />
      <path d="M -131.89879,26.453041 A 3.261426524367547,2.276239464029425 -82.89952616230033 0,0 -132.050854,26.037959" />
      <path d="M -151.650292,49.121307 A 5.0,3.5251361507946415 82.75585947664035 0,0 -152.28078,49.121475" />
      <path d="M -151.019805,59.041654 A 5.0,3.5251361507946415 82.75585947664035 0,0 -148.096912,54.524191" />
      <line x1="-151.650292" y1="49.121307" x2="-149.518264" y2="49.386883" />
      <line x1="-149.518264" y1="49.386883" x2="-149.518264" y2="48.770326" />
      <line x1="-149.518264" y1="9.704821" x2="-148.096912" y2="9.881872" />
      <path d="M -151.650292,56.164873 A 2.1,1.4805571833337496 -97.24414052335966 0,1 -151.915097,51.998327" />
      <path d="M -151.915097,51.998327 A 2.1,1.4805571833337496 -97.24414052335966 0,1 -151.385488,56.164802" />
      <path d="M -151.385488,56.164802 A 2.1,1.4805571833337496 -97.24414052335966 0,1 -151.650292,56.164873" />
      <path d="M -131.308579,53.511979 A 5.0,3.5251361507946415 82.75585947664035 0,0 -131.212446,52.377971" />
      <path d="M -67.227958,38.390203 A 5.0,3.5251361507946415 82.75585947664035 0,0 -67.41231,38.373919" />
      <path d="M -66.161411,48.214865 A 5.0,3.5251361507946415 82.75585947664035 0,0 -63.674578,43.793087" />
      <line x1="-65.09593" y1="38.655779" x2="-65.09593" y2="38.164034" />
      <line x1="-67.227958" y1="38.390203" x2="-65.09593" y2="38.655779" />
      <path d="M -67.227958,46.987983 A 3.6666668183599174,2.585099950863943 -97.24414052335966 0,1 -67.227958,39.712938 A 3.6666668183599174,2.585099950863943 -97.24414052335966 0,1 -67.227958,46.987983" />
      <path d="M -134.065796,53.862454 A 2.1,1.4805571833337496 82.75585947664035 0,0 -134.570186,49.894383" />
      <path d="M -84.112425,40.536424 A 5.0,3.5251361507946415 82.75585947664035 0,0 -84.742913,40.536592" />
      <path d="M -83.481937,50.456771 A 5.0,3.5251361507946415 82.75585947664035 0,0 -80.559045,45.939308" />
      <line x1="-114.327979" y1="45.271492" x2="-115.749331" y2="45.094441" />
      <line x1="-120.110692" y1="45.648823" x2="-115.749331" y2="45.094441" />
      <line x1="-80.559045" y1="40.97905" x2="-81.980397" y2="40.802" />
      <line x1="-81.980397" y1="40.802" x2="-84.112425" y2="40.536424" />
      <path d="M -84.112425,47.57999 A 2.1,1.4805571833337496 82.75585947664035 0,0 -83.84762,47.579919" />
      <path d="M -83.84762,47.579919 A 2.1000000403407824,1.4805572117750996 82.75585947664035 0,0 -84.37723,43.413444" />
      <path d="M -84.37723,43.413444 A 2.1,1.4805571833337496 82.75585947664035 0,0 -84.112425,47.57999" />
      <line x1="-115.749331" y1="45.094441" x2="-117.881359" y2="44.828865" />
      <path d="M -117.881359,44.828865 A 5.0,3.5251361507946415 82.75585947664035 0,0 -118.511846,44.829034" />
      <path d="M -117.250871,54.749212 A 5.0,3.5251361507946415 82.75585947664035 0,0 -114.327979,50.23175" />
      <path d="M -117.881359,51.872431 A 2.1,1.4805571833337496 82.75585947664035 0,0 -117.616554,51.872361" />
      <path d="M -117.616554,51.872361 A 2.1000000403407832,1.4805572117751002 82.75585947664035 0,0 -118.146164,47.705886" />
      <path d="M -118.146164,47.705886 A 2.1,1.4805571833337496 82.75585947664035 0,0 -117.881359,51.872431" />
      <line x1="-86.341759" y1="41.356382" x2="-81.980397" y2="40.802" />
      <path d="M -97.539645,49.219537 A 5.0,3.5251361507946415 82.75585947664035 0,0 -97.443512,48.085529" />
      <path d="M -100.296863,49.570013 A 2.1,1.4805571833337496 82.75585947664035 0,0 -100.801253,45.601941" />
      <line x1="-149.518264" y1="49.386883" x2="-132.633798" y2="47.240662" />
      <line x1="-115.749331" y1="45.094441" x2="-98.864864" y2="42.94822" />
      <line x1="-81.980397" y1="40.802" x2="-65.09593" y2="38.655779" />
      <path d="M -67.227958,45.433769 A 2.1,1.4805571833337496 -97.24414052335966 0,1 -67.492763,41.267223" />
      <path d="M -67.492763,41.267223 A 2.100000040340782,1.4805572117750994 -97.24414052335966 0,1 -66.963153,45.433698" />
      <path d="M -66.963153,45.433698 A 2.1,1.4805571833337496 -97.24414052335966 0,1 -67.227958,45.433769" />
      <path d="M -67.227958,45.334564 A 2.0,1.4100544603178566 -97.24414052335966 0,1 -67.480153,41.366425" />
      <path d="M -67.480153,41.366425 A 2.0,1.4100544603178566 -97.24414052335966 0,1 -66.975763,45.334496" />
      <path d="M -66.975763,45.334496 A 2.0,1.4100544603178566 -97.24414052335966 0,1 -67.227958,45.334564" />
      <path d="M -151.650292,56.065668 A 2.0,1.4100544603178566 -97.24414052335966 0,1 -151.902487,52.097529" />
      <path d="M -151.902487,52.097529 A 2.0,1.4100544603178566 -97.24414052335966 0,1 -151.398097,56.0656" />
      <path d="M -151.398097,56.0656 A 2.0,1.4100544603178566 -97.24414052335966 0,1 -151.650292,56.065668" />
      <line x1="-133.655694" y1="24.957393" x2="-126.548934" y2="25.842646" />
      <line x1="-134.397352" y1="30.911378" x2="-127.290592" y2="31.796632" />
      <line x1="-105.514916" y1="21.380358" x2="-98.408156" y2="22.265611" />
      <line x1="-106.256574" y1="27.334343" x2="-99.149814" y2="28.219597" />
      <line x1="-77.374138" y1="17.803323" x2="-70.267378" y2="18.688577" />
      <line x1="-78.115796" y1="23.757309" x2="-71.009036" y2="24.642562" />
      <line x1="-75.617234" y1="19.298972" x2="-75.904352" y2="18.332259" />
      <line x1="-76.045663" y1="22.738375" x2="-76.561164" y2="23.60511" />
      <line x1="-103.758012" y1="22.876006" x2="-104.04513" y2="21.909293" />
      <line x1="-104.186441" y1="26.31541" x2="-104.701942" y2="27.182144" />
      <line x1="-131.89879" y1="26.453041" x2="-132.185908" y2="25.486328" />
      <line x1="-132.327219" y1="29.892444" x2="-132.842721" y2="30.759179" />
      <line x1="-134.501021" y1="54.018581" x2="-151.385488" y2="56.164802" />
      <line x1="-135.03063" y1="49.852106" x2="-151.915097" y2="51.998327" />
      <line x1="-66.963153" y1="45.433698" x2="-83.84762" y2="47.579919" />
      <line x1="-67.492763" y1="41.267223" x2="-84.37723" y2="43.413444" />
      <line x1="-100.732087" y1="49.72614" x2="-117.616554" y2="51.872361" />
      <line x1="-101.261697" y1="45.559665" x2="-118.146164" y2="47.705886" />
      <line x1="-151.902487" y1="52.097529" x2="-135.465855" y2="50.008233" />
      <line x1="-121.338605" y1="48.212488" x2="-101.696921" y2="45.715792" />
      <line x1="-87.569672" y1="43.920047" x2="-67.480153" y2="41.366425" />
      <line x1="-151.398097" y1="56.0656" x2="-134.961465" y2="53.976305" />
      <line x1="-120.834215" y1="52.18056" x2="-101.192531" y2="49.683863" />
      <line x1="-87.065282" y1="47.888118" x2="-66.975763" y2="45.334496" />
      <line x1="-148.096912" y1="54.524191" x2="-131.212446" y2="52.377971" />
      <line x1="-80.559045" y1="45.939308" x2="-63.674578" y2="43.793087" />
      <line x1="-114.327979" y1="50.23175" x2="-97.443512" y2="48.085529" />
      <line x1="-151.650292" y1="49.121307" x2="-134.765826" y2="46.975086" />
      <line x1="-84.112425" y1="40.536424" x2="-67.227958" y2="38.390203" />
      <line x1="-117.881359" y1="44.828865" x2="-100.996892" y2="42.682644" />
      <path d="M -66.92042,38.271137 A 5.0,3.5251361507946415 -97.24414052335966 0,1 -65.659445,48.191315" />
      <path d="M -65.982394,38.151902 A 5.000000233566643,3.5251363154654856 -97.24414052335966 0,1 -64.721419,48.072081" />
    </g>
  </g>
</svg>