<?xml version='1.0' encoding='utf-8'?>
<svg width="100.09mm" height="82.280761mm" viewBox="-212.1514 -188.43964 424.645595 349.087449" version="1.1" xmlns="http://www.w3.org/2000/svg">
  <g transform="scale(1,-1)" stroke-linecap="round">
    <g fill="none" stroke="rgb(0,0,0)" stroke-width="0.38183738141069384" id="Visible">
      <line x1="0.428492" y1="188.248721" x2="-211.960482" y2="52.437946" />
      <line x1="-211.960482" y1="-24.316521" x2="-211.960482" y2="52.437946" />
      <line x1="212.303275" y1="52.108352" x2="0.428492" y2="188.248721" />
      <line x1="212.303275" y1="-24.646115" x2="212.303275" y2="52.108352" />
      <line x1="212.303275" y1="52.108352" x2="148.586583" y2="11.365119" />
      <line x1="141.52409" y1="15.903131" x2="148.586583" y2="11.365119" />
      <line x1="198.16115" y1="52.119338" x2="141.52409" y2="15.903131" />
      <line x1="198.16115" y1="52.119338" x2="0.411352" y2="179.183683" />
      <line x1="0.411352" y1="179.183683" x2="-197.818356" y2="52.426959" />
      <line x1="-0.068559" y1="-74.637386" x2="-197.818356" y2="52.426959" />
      <line x1="56.568501" y1="-38.421179" x2="-0.068559" y2="-74.637386" />
      <line x1="56.568501" y1="-38.421179" x2="63.630994" y2="-42.959191" />
      <line x1="63.630994" y1="-42.959191" x2="-0.085698" y2="-83.702424" />
      <line x1="-0.085698" y1="-83.702424" x2="-211.960482" y2="52.437946" />
      <line x1="-0.085698" y1="-160.45689" x2="-211.960482" y2="-24.316521" />
      <line x1="-0.085698" y1="-160.45689" x2="-0.085698" y2="-83.702424" />
      <line x1="212.303275" y1="-24.646115" x2="-0.085698" y2="-160.45689" />
      <line x1="148.586583" y1="9.83003" x2="148.586583" y2="11.365119" />
      <line x1="63.630994" y1="-44.494281" x2="148.586583" y2="9.83003" />
      <line x1="63.630994" y1="-44.494281" x2="63.630994" y2="-42.959191" />
      <path d="M 77.790259,-54.628845 A 3.0,1.6301802336308198 57.277183898375604 0,0 79.411985,-54.407593" />
      <path d="M 79.411985,-54.407593 A 3.0,1.6301802336308198 57.277183898375604 1,0 76.168533,-59.455366" />
      <path d="M 76.168533,-59.455366 A 3.0,1.6301802336308198 57.277183898375604 0,0 77.790259,-54.628845" />
      <path d="M 106.108788,-36.520742 A 3.0,1.6301802336308198 57.277183898375604 0,0 107.730515,-36.299489" />
      <path d="M 107.730515,-36.299489 A 3.0000004049285245,1.630180453666312 57.277183898375604 1,0 104.487062,-41.347263" />
      <path d="M 104.487062,-41.347263 A 3.0,1.6301802336308198 57.277183898375604 0,0 106.108788,-36.520742" />
      <path d="M 134.427318,-18.412639 A 3.0,1.6301802336308198 57.277183898375604 0,0 136.049044,-18.191386" />
      <path d="M 136.049044,-18.191386 A 3.0,1.6301802336308198 57.277183898375604 1,0 132.805592,-23.239159" />
      <path d="M 132.805592,-23.239159 A 3.0,1.6301802336308198 57.277183898375604 0,0 134.427318,-18.412639" />
      <line x1="148.586583" y1="9.83003" x2="141.52409" y2="14.368042" />
      <line x1="141.52409" y1="14.368042" x2="141.52409" y2="15.903131" />
      <line x1="141.52409" y1="14.368042" x2="57.765923" y2="-39.190584" />
      <line x1="0.411352" y1="110.104664" x2="0.411352" y2="179.183683" />
      <line x1="144.277137" y1="17.663549" x2="0.411352" y2="110.104664" />
      <line x1="-143.934343" y1="17.803728" x2="0.411352" y2="110.104664" />
      <line x1="106.108788" y1="-23.472483" x2="106.108788" y2="4.407931" />
      <line x1="106.108788" y1="-23.472483" x2="131.824957" y2="-7.028443" />
      <line x1="94.256606" y1="-15.85685" x2="80.454878" y2="-6.988535" />
      <path d="M 106.108788,4.407931 C 106.108788,3.633475 106.537391,3.59776 106.965994,3.562045" />
      <path d="M 106.108788,4.407931 C 106.108788,3.633475 105.680186,3.049625 105.251583,2.465775" />
      <path d="M 131.824957,-7.028443 C 131.110619,-7.485221 130.824884,-8.132607 130.539149,-8.779992" />
      <path d="M 131.824957,-7.028443 C 131.110619,-7.485221 130.824884,-7.203259 130.539149,-6.921297" />
      <path d="M 80.454878,-6.988535 C 81.167487,-7.446423 81.881133,-7.35551 82.594779,-7.264598" />
      <path d="M 80.454878,-6.988535 C 81.167487,-7.446423 81.023927,-7.903645 80.880368,-8.360867" />
      <line x1="108.452176" y1="10.193009" x2="106.169866" y2="7.018959" />
      <line x1="106.169866" y1="7.018959" x2="103.765401" y2="7.279712" />
      <line x1="103.765401" y1="7.279712" x2="103.765401" y2="6.47815" />
      <line x1="103.765401" y1="6.47815" x2="105.719834" y2="6.340867" />
      <line x1="105.719834" y1="6.340867" x2="103.765401" y2="3.697097" />
      <line x1="103.765401" y1="3.697097" x2="103.765401" y2="2.909466" />
      <line x1="103.765401" y1="2.909466" x2="106.169866" y2="6.245282" />
      <line x1="106.169866" y1="6.245282" x2="108.452176" y2="6.017912" />
      <line x1="108.452176" y1="6.017912" x2="108.452176" y2="6.805543" />
      <line x1="108.452176" y1="6.805543" x2="106.613475" y2="6.933197" />
      <line x1="106.613475" y1="6.933197" x2="108.452176" y2="9.419332" />
      <line x1="108.452176" y1="9.419332" x2="108.452176" y2="10.193009" />
      <line x1="135.990985" y1="-6.905108" x2="134.229423" y2="-4.943762" />
      <line x1="134.229423" y1="-4.943762" x2="134.229423" y2="-2.950317" />
      <line x1="134.229423" y1="-2.950317" x2="133.631514" y2="-3.332646" />
      <line x1="133.631514" y1="-3.332646" x2="133.631514" y2="-5.326091" />
      <line x1="133.631514" y1="-5.326091" x2="131.824957" y2="-9.569048" />
      <line x1="131.824957" y1="-9.569048" x2="132.564297" y2="-9.096281" />
      <line x1="132.564297" y1="-9.096281" x2="133.940116" y2="-5.742136" />
      <line x1="133.940116" y1="-5.742136" x2="135.277344" y2="-7.36144" />
      <line x1="135.277344" y1="-7.36144" x2="135.990985" y2="-6.905108" />
      <line x1="74.175411" y1="-5.010025" x2="77.550658" y2="-2.851744" />
      <line x1="77.550658" y1="-2.851744" x2="78.089395" y2="-3.19791" />
      <line x1="78.089395" y1="-3.19791" x2="78.897112" y2="-7.310442" />
      <line x1="78.897112" y1="-7.310442" x2="81.713041" y2="-5.509814" />
      <line x1="81.713041" y1="-5.509814" x2="82.238937" y2="-5.84773" />
      <line x1="82.238937" y1="-5.84773" x2="80.454878" y2="-6.988535" />
      <line x1="80.454878" y1="-6.988535" x2="78.670819" y2="-8.12934" />
      <line x1="78.670819" y1="-8.12934" x2="78.144922" y2="-7.791425" />
      <line x1="78.144922" y1="-7.791425" x2="77.337236" y2="-3.66244" />
      <line x1="77.337236" y1="-3.66244" x2="74.701329" y2="-5.347954" />
      <line x1="74.701329" y1="-5.347954" x2="74.175411" y2="-5.010025" />
    </g>
    <g fill="none" stroke="rgb(99,99,99)" stroke-width="0.38183738141069384" id="Hidden" stroke-dasharray="0.009699 1.150361">
      <line x1="0.428492" y1="111.494255" x2="0.428492" y2="188.248721" />
      <line x1="0.428492" y1="111.494255" x2="-211.960482" y2="-24.316521" />
      <line x1="212.303275" y1="-24.646115" x2="0.428492" y2="111.494255" />
      <line x1="198.16115" y1="-16.959681" x2="198.16115" y2="52.119338" />
      <line x1="-0.068559" y1="-143.716406" x2="198.16115" y2="-16.959681" />
      <line x1="57.765923" y1="-39.190584" x2="56.568501" y2="-39.956268" />
      <line x1="-0.068559" y1="-143.716406" x2="-0.068559" y2="-74.637386" />
      <line x1="56.568501" y1="-39.956268" x2="56.568501" y2="-38.421179" />
      <path d="M 70.727766,-50.090833 A 3.0,1.6301802336308198 57.277183898375604 0,0 72.349492,-49.86958" />
      <path d="M 72.349492,-49.86958 A 3.00000013464086,1.630180306793776 57.277183898375604 1,0 69.10604,-54.917354" />
      <path d="M 69.10604,-54.917354 A 3.0,1.6301802336308198 57.277183898375604 0,0 70.727766,-50.090833" />
      <path d="M 99.046296,-31.98273 A 3.0,1.6301802336308198 57.277183898375604 0,0 100.668022,-31.761477" />
      <path d="M 100.668022,-31.761477 A 3.0,1.6301802336308198 57.277183898375604 1,0 97.42457,-36.80925" />
      <path d="M 97.42457,-36.80925 A 3.0,1.6301802336308198 57.277183898375604 0,0 99.046296,-31.98273" />
      <path d="M 127.364826,-13.874626 A 3.0,1.6301802336308198 57.277183898375604 0,0 128.986552,-13.653374" />
      <path d="M 128.986552,-13.653374 A 3.0,1.6301802336308198 57.277183898375604 1,0 125.743099,-18.701147" />
      <path d="M 125.743099,-18.701147 A 3.0,1.6301802336308198 57.277183898375604 0,0 127.364826,-13.874626" />
      <line x1="198.16115" y1="-16.959681" x2="144.277137" y2="17.663549" />
      <line x1="-197.818356" y1="-16.652061" x2="-143.934343" y2="17.803728" />
      <line x1="-197.818356" y1="52.426959" x2="-197.818356" y2="-16.652061" />
      <line x1="-0.068559" y1="-143.716406" x2="-197.818356" y2="-16.652061" />
      <line x1="63.630994" y1="-44.494281" x2="56.568501" y2="-39.956268" />
      <line x1="106.108788" y1="-23.472483" x2="94.256606" y2="-15.85685" />
      <line x1="79.411985" y1="-54.407593" x2="72.349492" y2="-49.86958" />
      <line x1="76.168533" y1="-59.455366" x2="69.10604" y2="-54.917354" />
      <line x1="107.730515" y1="-36.299489" x2="100.668022" y2="-31.761477" />
      <line x1="104.487062" y1="-41.347263" x2="97.42457" y2="-36.80925" />
      <line x1="136.049044" y1="-18.191386" x2="128.986552" y2="-13.653374" />
      <line x1="132.805592" y1="-23.239159" x2="125.743099" y2="-18.701147" />
    </g>
  </g>
</svg>