<?xml version='1.0' encoding='utf-8'?>
<svg width="38.813979mm" height="100.09mm" viewBox="-19.800392 -56.024597 44.349663 114.364924" version="1.1" xmlns="http://www.w3.org/2000/svg">
  <g transform="scale(1,-1)" stroke-linecap="round">
    <g fill="none" stroke="rgb(0,0,0)" stroke-width="0.10283587901061025" id="Visible">
      <line x1="23.33639" y1="-58.288908" x2="-13.297896" y2="-40.504287" />
      <line x1="-12.39424" y1="29.396826" x2="-13.297896" y2="29.835519" />
      <line x1="-12.39424" y1="-5.773077" x2="-13.297896" y2="-5.334384" />
      <path d="M 4.425749,24.498147 A 3.261426524367547,1.9454172311465827 133.6519769738049 1,0 8.541199,20.184341" />
      <path d="M 4.425749,-4.810106 A 3.261426524367547,1.9454172311465827 133.6519769738049 1,0 8.541199,-9.123912" />
      <path d="M 4.425749,-34.118358 A 3.261426524367547,1.9454172311465827 133.6519769738049 1,0 8.541199,-38.432164" />
      <path d="M -6.323763,-39.710214 A 5.0,3.402724860456303 180.0 0,1 -5.39424,-37.734145" />
      <path d="M -5.39424,-37.734145 A 5.0,3.402724860456303 180.0 0,1 -15.39424,-37.734145" />
      <path d="M -15.39424,-37.734145 A 5.0,3.402724860456303 180.0 0,1 -13.297896,-40.504287" />
      <line x1="-6.323763" y1="-39.710214" x2="-8.065957" y2="-41.372299" />
      <line x1="-8.065957" y1="-41.372299" x2="24.497853" y2="-57.180852" />
      <line x1="24.497853" y1="-57.180852" x2="23.33639" y2="-58.288908" />
      <path d="M -12.10384,-36.904196 A 2.1,1.4291444413916474 0.0 0,0 -8.29424,-37.734145" />
      <path d="M -8.29424,-37.734145 A 2.1,1.4291444413916474 0.0 1,0 -12.49424,-37.734145" />
      <path d="M -12.49424,-37.734145 A 2.1,1.4291444413916474 0.0 0,0 -12.10384,-36.904196" />
      <line x1="24.497853" y1="-57.180852" x2="24.497853" y2="30.743906" />
      <path d="M -5.39424,-20.149194 A 5.0,3.402724860456303 180.0 0,1 -15.39424,-20.149194" />
      <path d="M -5.39424,50.190613 A 5.0,3.402724860456303 180.0 0,1 -15.39424,50.190613" />
      <line x1="-5.39424" y1="45.255436" x2="24.497853" y2="30.743906" />
      <path d="M -6.323763,30.629592 A 5.0,3.402724860456303 180.0 0,1 -5.39424,32.605661" />
      <path d="M -5.39424,32.605661 A 5.0,3.402724860456303 180.0 0,1 -15.39424,32.605661" />
      <path d="M -15.39424,32.605661 A 5.0,3.402724860456303 180.0 0,1 -13.297896,29.835519" />
      <line x1="-8.39424" y1="-6.515584" x2="-8.065957" y2="-6.202396" />
      <line x1="-8.065957" y1="-17.137899" x2="-8.065957" y2="-6.202396" />
      <line x1="-8.39424" y1="28.654319" x2="-8.065957" y2="28.967507" />
      <line x1="-8.065957" y1="28.967507" x2="-6.323763" y2="30.629592" />
      <path d="M -12.10384,33.43561 A 2.1,1.4291444413916474 180.0 0,1 -12.49424,32.605661" />
      <path d="M -12.49424,32.605661 A 2.1,1.4291444413916474 180.0 0,1 -12.39424,32.1699" />
      <path d="M -8.39424,32.1699 A 2.1,1.4291444413916474 180.0 0,1 -8.29424,32.605661" />
      <path d="M -8.29424,32.605661 A 2.1,1.4291444413916474 180.0 0,1 -12.10384,33.43561" />
      <line x1="-8.065957" y1="-6.202396" x2="-6.323763" y2="-4.540311" />
      <path d="M -6.323763,-4.540311 A 5.0,3.402724860456303 180.0 0,1 -5.39424,-2.564242" />
      <path d="M -5.39424,-2.564242 A 5.0,3.402724860456303 180.0 0,1 -15.39424,-2.564242" />
      <path d="M -15.39424,-2.564242 A 5.0,3.402724860456303 180.0 0,1 -13.297896,-5.334384" />
      <path d="M -12.10384,-1.734293 A 2.1,1.4291444413916474 180.0 0,1 -12.49424,-2.564242" />
      <path d="M -12.49424,-2.564242 A 2.1,1.4291444413916474 180.0 0,1 -12.39424,-3.000003" />
      <path d="M -8.39424,-3.000003 A 2.1,1.4291444413916474 180.0 0,1 -8.29424,-2.564242" />
      <path d="M -8.29424,-2.564242 A 2.1,1.4291444413916474 180.0 0,1 -12.10384,-1.734293" />
      <line x1="-8.065957" y1="18.032004" x2="-8.065957" y2="28.967507" />
      <path d="M -5.39424,15.02071 A 5.0,3.402724860456303 180.0 0,1 -15.39424,15.02071" />
      <path d="M 4.145472,25.970125 A 5.0,2.982463680557446 -46.34802302619512 0,1 4.187374,25.425467" />
      <path d="M 4.187374,25.425467 A 5.0,2.982463680557446 -46.34802302619512 0,1 9.45628,19.902611" />
      <path d="M 9.45628,19.902611 A 5.0,2.982463680557446 -46.34802302619512 1,1 4.145472,25.970125" />
      <path d="M 4.145472,-3.338128 A 5.0,2.982463680557446 -46.34802302619512 0,1 4.187374,-3.882786" />
      <path d="M 4.187374,-3.882786 A 5.0,2.982463680557446 -46.34802302619512 0,1 9.45628,-9.405641" />
      <path d="M 9.45628,-9.405641 A 5.0,2.982463680557446 -46.34802302619512 1,1 4.145472,-3.338128" />
      <path d="M 4.145472,-32.64638 A 5.0,2.982463680557446 -46.34802302619512 0,1 4.187374,-33.191038" />
      <path d="M 4.187374,-33.191038 A 5.0,2.982463680557446 -46.34802302619512 0,1 9.45628,-38.713894" />
      <path d="M 9.45628,-38.713894 A 5.0,2.982463680557446 -46.34802302619512 1,1 4.145472,-32.64638" />
      <path d="M -12.02243,-36.943717 A 2.0,1.3610899441825213 0.0 0,0 -8.39424,-37.734145" />
      <path d="M -8.39424,-37.734145 A 2.0,1.3610899441825213 0.0 1,0 -12.39424,-37.734145" />
      <path d="M -12.39424,-37.734145 A 2.0,1.3610899441825213 0.0 0,0 -12.02243,-36.943717" />
      <line x1="-15.39424" y1="4.47579" x2="-18.323212" y2="5.8977" />
      <line x1="-14.94551" y1="-3.973141" x2="-15.715864" y2="-4.708073" />
      <path d="M -18.323212,5.8977 C -18.070551,5.775043 -17.969487,5.86242 -17.868422,5.949798" />
      <path d="M -18.323212,5.8977 C -18.070551,5.775043 -17.969487,5.589539 -17.868422,5.404035" />
      <path d="M -15.715864,-4.708073 C -15.535629,-4.536126 -15.463536,-4.330906 -15.391442,-4.125687" />
      <path d="M -15.715864,-4.708073 C -15.535629,-4.536126 -15.463536,-4.603788 -15.391442,-4.671449" />
      <line x1="-19.72169" y1="7.322601" x2="-19.1623" y2="6.324491" />
      <line x1="-19.1623" y1="6.324491" x2="-19.748974" y2="5.843866" />
      <line x1="-19.748974" y1="5.843866" x2="-19.48747" y2="5.716916" />
      <line x1="-19.48747" y1="5.716916" x2="-19.03496" y2="6.119409" />
      <line x1="-19.03496" y1="6.119409" x2="-18.580171" y2="5.276455" />
      <line x1="-18.580171" y1="5.276455" x2="-18.323212" y2="5.15171" />
      <line x1="-18.323212" y1="5.15171" x2="-18.909893" y2="6.201957" />
      <line x1="-18.909893" y1="6.201957" x2="-18.359593" y2="6.661353" />
      <line x1="-18.359593" y1="6.661353" x2="-18.616553" y2="6.786097" />
      <line x1="-18.616553" y1="6.786097" x2="-19.041778" y2="6.407199" />
      <line x1="-19.041778" y1="6.407199" x2="-19.469283" y2="7.200067" />
      <line x1="-19.469283" y1="7.200067" x2="-19.72169" y2="7.322601" />
      <line x1="-16.898384" y1="-6.346845" x2="-16.898384" y2="-5.272375" />
      <line x1="-16.898384" y1="-5.272375" x2="-16.762126" y2="-5.142382" />
      <line x1="-16.762126" y1="-5.142382" x2="-15.848875" y2="-5.163451" />
      <line x1="-15.848875" y1="-5.163451" x2="-15.848875" y2="-4.267033" />
      <line x1="-15.848875" y1="-4.267033" x2="-15.715864" y2="-4.140138" />
      <line x1="-15.715864" y1="-4.140138" x2="-15.715864" y2="-4.708073" />
      <line x1="-15.715864" y1="-4.708073" x2="-15.715864" y2="-5.276007" />
      <line x1="-15.715864" y1="-5.276007" x2="-15.848875" y2="-5.402902" />
      <line x1="-15.848875" y1="-5.402902" x2="-16.765368" y2="-5.380835" />
      <line x1="-16.765368" y1="-5.380835" x2="-16.765368" y2="-6.219945" />
      <line x1="-16.765368" y1="-6.219945" x2="-16.898384" y2="-6.346845" />
      <path d="M -14.032556,-35.967874 A 4.4691535368071165,3.041459968977958 0.0 0,0 -6.755923,-39.500416 A 4.4691535368071165,3.041459968977958 0.0 0,0 -14.032556,-35.967874" />
      <line x1="-3.398679" y1="-45.703018" x2="-3.125651" y2="-45.442544" />
      <line x1="6.057998" y1="-36.681173" x2="19.830575" y2="-23.54188" />
      <path d="M 8.215948,-32.668566 A 2.6666666666666665,1.5906472962973046 -46.34802302619512 0,1 8.215948,-36.576333 A 2.6666666666666665,1.5906472962973046 -46.34802302619512 0,1 8.215948,-32.668566" />
      <line x1="6.057998" y1="-7.37292" x2="19.830575" y2="5.766372" />
      <path d="M 8.215948,-3.360313 A 2.6666666666666665,1.5906472962973046 -46.34802302619512 0,1 8.215948,-7.26808 A 2.6666666666666665,1.5906472962973046 -46.34802302619512 0,1 8.215948,-3.360313" />
      <line x1="6.057998" y1="21.935332" x2="19.830575" y2="35.074625" />
      <path d="M 8.215948,25.947939 A 2.6666666666666665,1.5906472962973046 -46.34802302619512 0,1 8.215948,22.040172 A 2.6666666666666665,1.5906472962973046 -46.34802302619512 0,1 8.215948,25.947939" />
      <path d="M -14.464716,53.143623 A 5.0,3.402724860456303 0.0 0,0 -5.39424,51.167554" />
      <path d="M -15.39424,51.167554 A 5.0,3.402724860456303 0.0 0,0 -14.464716,53.143623" />
      <path d="M -14.464716,54.120565 A 5.0,3.402724860456303 0.0 0,0 -5.39424,52.144496" />
      <path d="M -15.39424,52.144496 A 5.0,3.402724860456303 0.0 0,0 -14.464716,54.120565" />
      <line x1="-15.39424" y1="-20.149194" x2="-15.39424" y2="-37.734145" />
      <line x1="-5.39424" y1="-20.149194" x2="-5.39424" y2="-37.734145" />
      <line x1="-15.39424" y1="50.190613" x2="-15.39424" y2="32.605661" />
      <line x1="-5.39424" y1="50.190613" x2="-5.39424" y2="32.605661" />
      <line x1="-15.39424" y1="15.02071" x2="-15.39424" y2="-2.564242" />
      <line x1="-5.39424" y1="15.02071" x2="-5.39424" y2="-2.564242" />
      <path d="M -5.39424,51.167554 Q -5.394273,50.905271 -5.439287,50.646347" />
      <path d="M -15.349192,50.646347 Q -15.394206,50.905271 -15.39424,51.167554" />
      <line x1="-5.39424" y1="51.167554" x2="-5.39424" y2="52.144496" />
      <line x1="-15.39424" y1="51.167554" x2="-15.39424" y2="52.144496" />
      <path d="M -14.299624,54.558341 C -13.366798,55.452861 -11.936128,55.95692 -10.479183,55.972643 C -9.594308,55.984299 -8.707224,55.818411 -7.932877,55.489109 C -7.345891,55.240117 -6.822416,54.897981 -6.405197,54.476209 C -6.238153,54.307619 -6.089523,54.127296 -5.959308,53.935242 C -5.596147,53.401231 -5.392889,52.775703 -5.39424,52.144496" />
      <path d="M -15.39424,52.144496 C -15.394488,52.535127 -15.317836,52.92516 -15.171704,53.291204 C -14.984012,53.76287 -14.682704,54.193332 -14.299624,54.558341" />
      <line x1="-8.39424" y1="-37.734145" x2="-8.39424" y2="-37.298384" />
      <line x1="-8.39424" y1="-17.030545" x2="-8.39424" y2="-2.128481" />
      <line x1="-8.39424" y1="18.139358" x2="-8.39424" y2="33.041422" />
      <line x1="-12.39424" y1="-37.734145" x2="-12.39424" y2="-37.298384" />
      <line x1="-12.39424" y1="-17.030545" x2="-12.39424" y2="-2.128481" />
      <line x1="-12.39424" y1="18.139358" x2="-12.39424" y2="33.041422" />
    </g>
    <g fill="none" stroke="rgb(99,99,99)" stroke-width="0.10283587901061025" id="Hidden" stroke-dasharray="0.002612 0.309814">
      <line x1="23.33639" y1="-58.288908" x2="23.33639" y2="29.635849" />
      <line x1="23.33639" y1="29.635849" x2="-13.297896" y2="47.42047" />
      <line x1="-9.22742" y1="-24.895405" x2="-13.297896" y2="-22.919336" />
      <line x1="-9.22742" y1="-24.895405" x2="-9.22742" y2="-7.310453" />
      <line x1="-9.22742" y1="27.85945" x2="-12.39424" y2="29.396826" />
      <line x1="-9.22742" y1="-7.310453" x2="-12.39424" y2="-5.773077" />
      <line x1="-9.22742" y1="10.274498" x2="-9.22742" y2="27.85945" />
      <line x1="-9.22742" y1="10.274498" x2="-13.297896" y2="12.250567" />
      <path d="M 4.399373,24.17496 A 3.261426524367547,1.9454172311465827 133.6519769738049 0,0 4.425749,24.498147" />
      <path d="M 8.541199,20.184341 A 3.261426524367547,1.9454172311465827 133.6519769738049 0,0 7.863536,20.21721" />
      <path d="M 7.863536,20.21721 A 3.261426524367547,1.9454172311465827 133.6519769738049 0,0 4.426706,23.819687" />
      <path d="M 4.426706,23.819687 A 3.261426524367547,1.9454172311465827 133.6519769738049 0,0 4.399373,24.17496" />
      <path d="M 4.399373,-5.133293 A 3.261426524367547,1.9454172311465827 133.6519769738049 0,0 4.425749,-4.810106" />
      <path d="M 8.541199,-9.123912 A 3.261426524367547,1.9454172311465827 133.6519769738049 0,0 7.863536,-9.091043" />
      <path d="M 7.863536,-9.091043 A 3.261426524367547,1.9454172311465827 133.6519769738049 0,0 4.426706,-5.488565" />
      <path d="M 4.426706,-5.488565 A 3.261426524367547,1.9454172311465827 133.6519769738049 0,0 4.399373,-5.133293" />
      <path d="M 4.399373,-34.441545 A 3.261426524367547,1.9454172311465827 133.6519769738049 0,0 4.425749,-34.118358" />
      <path d="M 8.541199,-38.432164 A 3.261426524367547,1.9454172311465827 133.6519769738049 0,0 7.863536,-38.399295" />
      <path d="M 7.863536,-38.399295 A 3.261426524367547,1.9454172311465827 133.6519769738049 0,0 4.426706,-34.796818" />
      <path d="M 4.426706,-34.796818 A 3.261426524367547,1.9454172311465827 133.6519769738049 0,0 4.399373,-34.441545" />
      <line x1="24.497853" y1="30.743906" x2="23.33639" y2="29.635849" />
      <path d="M -6.323763,-22.125263 A 5.0,3.402724860456303 180.0 0,1 -5.39424,-20.149194" />
      <path d="M -15.39424,-20.149194 A 5.0,3.402724860456303 180.0 0,1 -13.297896,-22.919336" />
      <path d="M -6.323763,48.214544 A 5.0,3.402724860456303 180.0 0,1 -5.39424,50.190613" />
      <path d="M -15.39424,50.190613 A 5.0,3.402724860456303 180.0 0,1 -13.297896,47.42047" />
      <line x1="-8.065957" y1="46.552458" x2="-5.39424" y2="45.255436" />
      <line x1="-6.323763" y1="48.214544" x2="-8.065957" y2="46.552458" />
      <path d="M -13.379256,51.63973 A 3.666666890168577,2.4953317164377236 0.0 0,0 -7.409224,48.741495 A 3.666666890168577,2.4953317164377236 0.0 0,0 -13.379256,51.63973" />
      <line x1="-9.22742" y1="-24.895405" x2="-8.065957" y2="-23.787348" />
      <line x1="-8.065957" y1="-23.787348" x2="-6.323763" y2="-22.125263" />
      <path d="M -12.10384,-19.319245 A 2.1,1.4291444413916474 180.0 0,1 -12.49424,-20.149194" />
      <path d="M -12.49424,-20.149194 A 2.1,1.4291444413916474 180.0 0,1 -8.29424,-20.149194" />
      <path d="M -8.29424,-20.149194 A 2.1,1.4291444413916474 180.0 0,1 -12.10384,-19.319245" />
      <line x1="-9.22742" y1="-7.310453" x2="-8.39424" y2="-6.515584" />
      <line x1="-8.065957" y1="-23.787348" x2="-8.065957" y2="-17.137899" />
      <line x1="-9.22742" y1="27.85945" x2="-8.39424" y2="28.654319" />
      <path d="M -12.39424,32.1699 A 2.1,1.4291444413916474 180.0 0,1 -8.39424,32.1699" />
      <path d="M -12.39424,-3.000003 A 2.1,1.4291444413916474 180.0 0,1 -8.39424,-3.000003" />
      <line x1="-8.065957" y1="11.382555" x2="-8.065957" y2="18.032004" />
      <line x1="-9.22742" y1="10.274498" x2="-8.065957" y2="11.382555" />
      <path d="M -6.323763,13.04464 A 5.0,3.402724860456303 180.0 0,1 -5.39424,15.02071" />
      <path d="M -15.39424,15.02071 A 5.0,3.402724860456303 180.0 0,1 -13.297896,12.250567" />
      <line x1="-8.065957" y1="11.382555" x2="-6.323763" y2="13.04464" />
      <path d="M -12.10384,15.850659 A 2.1,1.4291444413916474 180.0 0,1 -12.49424,15.02071" />
      <path d="M -12.49424,15.02071 A 2.1,1.4291444413916474 180.0 0,1 -8.29424,15.02071" />
      <path d="M -8.29424,15.02071 A 2.1,1.4291444413916474 180.0 0,1 -12.10384,15.850659" />
      <line x1="-8.065957" y1="-41.372299" x2="-8.065957" y2="-23.787348" />
      <line x1="-8.065957" y1="-6.202396" x2="-8.065957" y2="11.382555" />
      <line x1="-8.065957" y1="28.967507" x2="-8.065957" y2="46.552458" />
      <path d="M -12.10384,51.020562 A 2.1,1.4291444413916474 0.0 0,0 -8.29424,50.190613" />
      <path d="M -8.29424,50.190613 A 2.1,1.4291444413916474 0.0 1,0 -12.49424,50.190613" />
      <path d="M -12.49424,50.190613 A 2.1,1.4291444413916474 0.0 0,0 -12.10384,51.020562" />
      <path d="M -12.02243,50.98104 A 2.0,1.3610899441825213 0.0 0,0 -8.39424,50.190613" />
      <path d="M -8.39424,50.190613 A 2.0,1.3610899441825213 0.0 1,0 -12.39424,50.190613" />
      <path d="M -12.39424,50.190613 A 2.0,1.3610899441825213 0.0 0,0 -12.02243,50.98104" />
      <line x1="-9.22742" y1="1.482023" x2="-15.39424" y2="4.47579" />
      <line x1="-9.22742" y1="1.482023" x2="-9.22742" y2="9.668465" />
      <line x1="-9.22742" y1="1.482023" x2="-14.94551" y2="-3.973141" />
      <path d="M -9.22742,9.668465 C -9.22742,9.441064 -9.075824,9.276509 -8.924227,9.111954" />
      <path d="M -9.22742,9.668465 C -9.22742,9.441064 -9.379017,9.423698 -9.530613,9.406332" />
      <line x1="-8.398565" y1="10.592292" x2="-9.405927" y2="10.520558" />
      <line x1="-9.405927" y1="10.520558" x2="-10.056275" y2="10.836278" />
      <line x1="-10.056275" y1="10.836278" x2="-10.056275" y2="10.64594" />
      <line x1="-10.056275" y1="10.64594" x2="-9.405927" y2="10.33022" />
      <line x1="-9.405927" y1="10.33022" x2="-8.398565" y2="9.266086" />
      <line x1="-8.398565" y1="9.266086" x2="-8.398565" y2="9.501446" />
      <line x1="-8.398565" y1="9.501446" x2="-9.205817" y2="10.331314" />
      <line x1="-9.205817" y1="10.331314" x2="-8.398565" y2="10.365113" />
      <line x1="-8.398565" y1="10.365113" x2="-8.398565" y2="10.592292" />
      <line x1="-10.39424" y1="-37.734145" x2="-10.39424" y2="-4.988375" />
      <line x1="-3.125651" y1="-45.442544" x2="6.057998" y2="-36.681173" />
      <line x1="-3.398679" y1="-16.394765" x2="6.057998" y2="-7.37292" />
      <line x1="-3.398679" y1="12.913487" x2="6.057998" y2="21.935332" />
      <line x1="4.426706" y1="23.819687" x2="4.187374" y2="25.425467" />
      <line x1="7.863536" y1="20.21721" x2="9.45628" y2="19.902611" />
      <line x1="4.426706" y1="-5.488565" x2="4.187374" y2="-3.882786" />
      <line x1="7.863536" y1="-9.091043" x2="9.45628" y2="-9.405641" />
      <line x1="4.426706" y1="-34.796818" x2="4.187374" y2="-33.191038" />
      <line x1="7.863536" y1="-38.399295" x2="9.45628" y2="-38.713894" />
      <line x1="-12.49424" y1="-20.149194" x2="-12.49424" y2="-37.734145" />
      <line x1="-8.29424" y1="-20.149194" x2="-8.29424" y2="-37.734145" />
      <path d="M -5.439287,50.646347 C -5.517241,50.195527 -5.697866,49.76202 -5.960644,49.374834 C -6.23991,48.962463 -6.610711,48.601555 -7.045005,48.305147 C -7.605569,47.922045 -8.273322,47.645391 -8.987237,47.489403 C -10.262214,47.207762 -11.679835,47.324383 -12.842027,47.817203 C -13.667303,48.164143 -14.368598,48.697397 -14.82615,49.372349 C -15.089839,49.760171 -15.271073,50.194561 -15.349192,50.646347" />
      <line x1="-12.49424" y1="50.190613" x2="-12.49424" y2="32.605661" />
      <line x1="-8.29424" y1="50.190613" x2="-8.29424" y2="32.605661" />
      <line x1="-12.49424" y1="15.02071" x2="-12.49424" y2="-2.564242" />
      <line x1="-8.29424" y1="15.02071" x2="-8.29424" y2="-2.564242" />
      <line x1="-8.39424" y1="-37.298384" x2="-8.39424" y2="-17.030545" />
      <line x1="-8.39424" y1="-2.128481" x2="-8.39424" y2="18.139358" />
      <line x1="-8.39424" y1="33.041422" x2="-8.39424" y2="50.190613" />
      <line x1="-12.39424" y1="-37.298384" x2="-12.39424" y2="-17.030545" />
      <line x1="-12.39424" y1="-2.128481" x2="-12.39424" y2="18.139358" />
      <line x1="-12.39424" y1="33.041422" x2="-12.39424" y2="50.190613" />
      <line x1="-13.297896" y1="-40.504287" x2="-13.297896" y2="-22.919336" />
      <line x1="-13.297896" y1="29.835519" x2="-13.297896" y2="47.42047" />
      <line x1="-13.297896" y1="-5.334384" x2="-13.297896" y2="12.250567" />
      <line x1="-6.323763" y1="-39.710214" x2="-6.323763" y2="-22.125263" />
      <line x1="-6.323763" y1="30.629592" x2="-6.323763" y2="48.214544" />
      <line x1="-6.323763" y1="-4.540311" x2="-6.323763" y2="13.04464" />
      <path d="M -5.39424,51.167554 A 5.0,3.402724860456303 0.0 1,0 -15.39424,51.167554" />
      <path d="M -5.39424,52.144496 A 5.0,3.402724860456303 0.0 1,0 -15.39424,52.144496" />
      <path d="M -13.379256,54.570555 A 3.666666666666667,2.4953315643346223 0.0 0,0 -7.409224,51.672321 A 3.666666666666667,2.4953315643346223 0.0 0,0 -13.379256,54.570555" />
    </g>
  </g>
</svg>