<?xml version="1.0" encoding="UTF-8" standalone="no"?>
    <svg
    xmlns:svg="http://www.w3.org/2000/svg"
    xmlns="http://www.w3.org/2000/svg"
    width="1989"
    height="1008"
    >
        <g transform="scale(5, -5)   translate(198.92044591061682,-100.75904686799629)" stroke-width="0.2"  fill="none">
        <!-- hidden lines -->
        <g  stroke="rgb(160,160,160)" fill="none" stroke-dasharray="0.2,0.2" >
    			<path d="M195.01150039772847,-44.079578353226836 L83.64139623267765,87.95370116097827 " />
			<path d="M83.64139623267766,87.95370116097828 L83.64139623267766,96.75904686799629 " />
			<path d="M83.64139623267766,87.95370116097828 L-194.92044591061682,35.1662842642084 " />
			<path d="M86.56118570916762,-55.95307870957083 L86.38937406434259,-55.98279126392804 L86.21406184422015,-56.00748631260275 L86.03590060473582,-56.02707207530989 L85.85555249033666,-56.04147576066083 L85.6736877730911,-56.05064383669598 L85.49098236159179,-56.05454222983878 L85.3081152889103,-56.05315645153165 L85.12576618893942,-56.04649165208347 L84.94461277050253,-56.034572601528154 L84.76532829861752,-56.017443597565716 L84.58857909227642,-55.995168300927816 L84.41502204804016,-55.96782949877971 L84.2453021986523,-55.935528797037946 L84.08005031574508,-55.89838624274733 L83.91988056554771,-55.856539877920504 L83.76538822630921,-55.81014522649849 L83.6171474759195,-55.7593747163388 L83.47570925795073,-55.70441703837934 L83.34159923405022,-55.64547644535989 L83.21531583029477,-55.58277199270738 L83.09732838476708,-55.51653672440631 L82.9880754032393,-55.44701680688004 L82.88796292944609,-55.37447061410201 L82.84145202133746,-55.33714650892196 L82.79736303600434,-55.29916776733688 L82.75573694765248,-55.26056968498259 L82.71661244158825,-55.221388133080765 L82.68002587826652,-55.18165952510192 L82.64601125949883,-55.141420782924484 L82.61460019685384,-55.10070930252131 L82.585821882279,-55.059562919205696 L82.5597030609709,-55.01801987246902 L82.53626800651965,-54.97611877044275 L82.51553849835007,-54.93389855401794 L82.49753380148096,-54.89139846065536 L82.48227064862114,-54.848657987920106 L82.46976322461883,-54.80571685677443 L82.46002315327894,-54.76261497466295 L82.45305948656043,-54.71939239842461 L82.44887869616392,-54.676089297065715 L82.4474846675171,-54.632745914428796 " />
			<path d="M82.4474846675171,-54.63274591442878 L82.45109829890158,-54.56297434151983 L82.46193048750051,-54.49337085444129 L82.47995513762275,-54.42410313409007 L82.50512882630741,-54.35533805247164 L82.53739090793347,-54.287241270690714 L82.57666366032048,-54.21997683985919 L82.62285247196805,-54.15370680588261 L82.67584606998324,-54.08859081907738 L82.73551678814677,-54.024785749559214 L82.80172087447204,-53.96244530932924 L82.87429883751629,-53.901719681968345 L82.95307583060946,-53.84275516083179 L83.03786207307516,-53.78569379661566 L83.12845330742888,-53.73067305514435 L83.22463129145223,-53.67782548620331 L83.32616432395746,-53.62727840421501 L83.43280780297604,-53.57915358152737 L83.54430481502617,-53.53356695505348 L83.6603867540398,-53.49062834696943 L83.78077396845829,-53.45044120014307 L83.90517643493743,-53.41310232893109 L84.0332944570391,-53.37870168594473 L84.16481938722626,-53.3473221453461 L84.29943437042184,-53.31903930319701 L84.43681510734044,-53.293921295341484 L84.57663063575372,-53.272028633260526 L84.7185441278073,-53.253414058294666 L84.86221370146872,-53.238122414585426 L85.00729324415101,-53.22619054104191 L85.15343324652842,-53.21764718259257 L85.30028164453485,-53.21251292093625 L85.4474846675171,-53.21080012495896 L85.59468769049936,-53.21251292093625 L85.74153608850578,-53.21764718259257 L85.88767609088319,-53.22619054104191 L86.03275563356549,-53.238122414585426 L86.1764252072269,-53.253414058294666 L86.31833869928049,-53.272028633260526 L86.45815422769377,-53.293921295341484 L86.59553496461237,-53.31903930319701 L86.73014994780794,-53.3473221453461 L86.8616748779951,-53.37870168594473 L86.98979290009677,-53.41310232893109 L87.11419536657591,-53.45044120014307 L87.2345825809944,-53.49062834696943 L87.35066452000804,-53.53356695505348 L87.46216153205816,-53.57915358152737 L87.56880501107675,-53.62727840421501 L87.67033804358198,-53.67782548620331 L87.76651602760532,-53.73067305514435 L87.85710726195904,-53.78569379661566 L87.94189350442474,-53.84275516083179 L88.02067049751791,-53.901719681968345 L88.09324846056217,-53.96244530932924 L88.15945254688744,-54.024785749559214 L88.21912326505097,-54.08859081907738 L88.27211686306616,-54.15370680588261 L88.31830567471373,-54.21997683985919 L88.35757842710073,-54.287241270690714 L88.38984050872679,-54.35533805247164 L88.41501419741144,-54.42410313409007 L88.4330388475337,-54.49337085444129 L88.44387103613262,-54.56297434151983 L88.4474846675171,-54.632745914428774 " />
			<path d="M88.4474846675171,-54.63274591442878 L88.44540894104533,-54.685632720010915 L88.43918463405693,-54.73844633989815 L88.42882035985778,-54.79111368967123 L88.4143304607134,-54.843561887322075 L88.39573498800195,-54.89571835410919 L88.37305967446673,-54.94751091499337 L88.3463358986068,-54.99886789851485 L88.31560064125479,-55.04971823597349 L88.28089643440225,-55.09999155977491 L88.24227130234308,-55.14961830080641 L88.19977869521666,-55.198529784707965 L88.15347741504264,-55.24665832690496 L88.10343153434965,-55.29393732627133 L88.0497103075106,-55.34030135729339 L87.99238807490723,-55.38568626060678 L87.93154416005663,-55.43002923178136 L87.86726275984196,-55.47326890823105 L87.79963282799926,-55.515345454128486 L87.72874795202173,-55.55620064320691 L87.65470622365171,-55.59577793933466 L87.5776101031396,-55.6340225747509 L87.49756627745755,-55.67088162585421 L87.41468551266412,-55.70630408643918 L87.32908250062432,-55.74024093827974 L87.24087570029693,-55.77264521896139 L87.15018717380887,-55.80347208686865 L87.05714241754357,-55.8326788832377 L86.96187018847678,-55.86022519118827 L86.86450232600045,-55.88607289165329 L86.765173569481,-55.91018621612871 L86.66402137180462,-55.93253179617056 L86.56118570916763,-55.953078709570825 " />
			<path d="M49.41960675672835,-62.99140096247349 L49.24779511190333,-63.0211135168307 L49.07248289178089,-63.04580856550541 L48.89432165229655,-63.06539432821255 L48.7139735378974,-63.07979801356349 L48.532108820651835,-63.08896608959864 L48.34940340915253,-63.09286448274144 L48.16653633647105,-63.09147870443431 L47.98418723650017,-63.08481390498613 L47.80303381806327,-63.072894854430814 L47.62374934617826,-63.055765850468376 L47.44700013983716,-63.033490553830475 L47.2734430956009,-63.00615175168237 L47.103723246213036,-62.973851049940606 L46.93847136330582,-62.93670849564999 L46.778301613108454,-62.894862130823164 L46.62380927386995,-62.84846747940115 L46.475568523480234,-62.79769696924146 L46.33413030551146,-62.742739291282 L46.20002028161097,-62.68379869826255 L46.0737368778555,-62.62109424561004 L45.95574943232782,-62.55485897730897 L45.84649645080005,-62.4853390597827 L45.746383977006836,-62.41279286700467 L45.69987306889819,-62.37546876182462 L45.65578408356509,-62.33749002023954 L45.61415799521322,-62.29889193788525 L45.57503348914899,-62.259710385983425 L45.53844692582726,-62.21998177800458 L45.504432307059574,-62.179743035827144 L45.47302124441459,-62.13903155542397 L45.44424292983974,-62.097885172108356 L45.41812410853165,-62.05634212537168 L45.394689054080395,-62.01444102334541 L45.3739595459108,-61.972220806920596 L45.355954849041694,-61.92972071355802 L45.34069169618188,-61.886980240822766 L45.32818427217957,-61.84403910967709 L45.31844420083967,-61.80093722756561 L45.311480534121166,-61.75771465132727 L45.30729974372465,-61.714411549968375 L45.30590571507784,-61.671068167331455 " />
			<path d="M45.30590571507784,-61.67106816733144 L45.309519346462324,-61.60129659442249 L45.32035153506125,-61.53169310734395 L45.3383761851835,-61.46242538699273 L45.36354987386815,-61.3936603053743 L45.39581195549421,-61.325563523593374 L45.43508470788122,-61.25829909276185 L45.48127351952878,-61.192029058785266 L45.53426711754398,-61.12691307198004 L45.593937835707514,-61.063108002461874 L45.66014192203278,-61.0007675622319 L45.732719885077024,-60.940041934871005 L45.8114968781702,-60.88107741373445 L45.89628312063591,-60.82401604951832 L45.98687435498963,-60.76899530804701 L46.083052339012966,-60.71614773910597 L46.184585371518196,-60.66560065711767 L46.29122885053679,-60.61747583443003 L46.402725862586905,-60.57188920795614 L46.51880780160054,-60.52895059987209 L46.63919501601904,-60.48876345304573 L46.76359748249818,-60.45142458183375 L46.89171550459985,-60.41702393884739 L47.02324043478699,-60.38564439824876 L47.157855417982574,-60.35736155609967 L47.29523615490118,-60.33224354824414 L47.435051683314455,-60.310350886163185 L47.57696517536805,-60.291736311197326 L47.72063474902946,-60.276444667488086 L47.865714291711754,-60.26451279394457 L48.01185429408916,-60.25596943549523 L48.15870269209559,-60.25083517383891 L48.30590571507784,-60.24912237786162 L48.453108738060095,-60.25083517383891 L48.59995713606652,-60.25596943549523 L48.74609713844393,-60.26451279394457 L48.891176681126225,-60.276444667488086 L49.03484625478763,-60.291736311197326 L49.17675974684123,-60.310350886163185 L49.3165752752545,-60.33224354824414 L49.45395601217311,-60.35736155609967 L49.58857099536869,-60.38564439824876 L49.72009592555583,-60.41702393884739 L49.848213947657506,-60.45142458183375 L49.972616414136645,-60.48876345304573 L50.09300362855514,-60.52895059987209 L50.20908556756878,-60.57188920795614 L50.3205825796189,-60.61747583443003 L50.42722605863749,-60.66560065711767 L50.52875909114272,-60.71614773910597 L50.62493707516605,-60.76899530804701 L50.715528309519776,-60.82401604951832 L50.80031455198548,-60.88107741373445 L50.87909154507866,-60.940041934871005 L50.951669508122905,-61.0007675622319 L51.01787359444817,-61.063108002461874 L51.0775443126117,-61.12691307198004 L51.130537910626906,-61.192029058785266 L51.176726722274466,-61.25829909276185 L51.21599947466147,-61.325563523593374 L51.24826155628753,-61.3936603053743 L51.273435244972184,-61.46242538699273 L51.291459895094434,-61.53169310734395 L51.30229208369336,-61.60129659442249 L51.30590571507784,-61.671068167331434 " />
			<path d="M51.30590571507784,-61.67106816733144 L51.30382998860607,-61.723954972913575 L51.297605681617675,-61.776768592800806 L51.28724140741851,-61.82943594257389 L51.27275150827413,-61.881884140224734 L51.25415603556268,-61.93404060701185 L51.23148072202747,-61.98583316789603 L51.204756946167535,-62.03719015141751 L51.17402168881553,-62.088040488876146 L51.13931748196299,-62.138313812677566 L51.10069234990382,-62.18794055370907 L51.058199742777404,-62.236852037610625 L51.011898462603384,-62.284980579807616 L50.96185258191039,-62.33225957917399 L50.90813135507133,-62.37862361019605 L50.85080912246796,-62.42400851350944 L50.78996520761738,-62.46835148468402 L50.72568380740271,-62.51159116113371 L50.65805387556,-62.553667707031146 L50.587168999582474,-62.59452289610957 L50.513127271212454,-62.63410019223732 L50.43603115070034,-62.67234482765356 L50.35598732501828,-62.70920387875687 L50.27310656022487,-62.74462633934184 L50.18750354818507,-62.7785631911824 L50.099296747857665,-62.810967471864046 L50.008608221369606,-62.84179433977131 L49.915563465104306,-62.87100113614036 L49.82029123603752,-62.89854744409093 L49.72292337356119,-62.92439514455595 L49.62359461704173,-62.94850846903137 L49.52244241936536,-62.97085404907322 L49.41960675672838,-62.991400962473485 " />
			<path d="M12.278027804289081,-70.02972321537614 L12.106216159464065,-70.05943576973334 L11.930903939341627,-70.08413081840806 L11.752742699857281,-70.1037165811152 L11.572394585458133,-70.11812026646614 L11.390529868212568,-70.12728834250129 L11.207824456713261,-70.13118673564408 L11.024957384031778,-70.12980095733695 L10.842608284060901,-70.12313615788878 L10.661454865624002,-70.11121710733346 L10.48217039373899,-70.09408810337102 L10.305421187397888,-70.07181280673312 L10.131864143161634,-70.04447400458501 L9.962144293773768,-70.01217330284325 L9.796892410866556,-69.97503074855264 L9.636722660669182,-69.93318438372582 L9.482230321430688,-69.8867897323038 L9.333989571040963,-69.8360192221441 L9.192551353072194,-69.78106154418464 L9.058441329171696,-69.7221209511652 L8.932157925416238,-69.65941649851268 L8.814170479888556,-69.59318123021161 L8.704917498360786,-69.52366131268535 L8.604805024567566,-69.45111511990731 L8.558294116458926,-69.41379101472727 L8.514205131125818,-69.37581227314219 L8.472579042773948,-69.33721419078789 L8.433454536709728,-69.29803263888607 L8.39686797338799,-69.25830403090723 L8.362853354620302,-69.21806528872979 L8.33144229197532,-69.17735380832661 L8.302663977400474,-69.13620742501101 L8.27654515609238,-69.09466437827432 L8.253110101641125,-69.05276327624806 L8.232380593471536,-69.01054305982325 L8.214375896602428,-68.96804296646067 L8.19911274374261,-68.92530249372541 L8.186605319740302,-68.88236136257973 L8.176865248400404,-68.83925948046826 L8.1699015816819,-68.79603690422992 L8.165720791285384,-68.75273380287102 L8.164326762638574,-68.7093904202341 " />
			<path d="M8.164326762638574,-68.70939042023409 L8.167940394023056,-68.63961884732514 L8.178772582621983,-68.5700153602466 L8.196797232744231,-68.50074763989538 L8.221970921428882,-68.43198255827694 L8.254233003054942,-68.36388577649602 L8.293505755441947,-68.29662134566449 L8.339694567089511,-68.23035131168791 L8.392688165104714,-68.16523532488269 L8.452358883268243,-68.10143025536452 L8.518562969593509,-68.03908981513455 L8.591140932637757,-67.97836418777365 L8.669917925730939,-67.91939966663709 L8.754704168196639,-67.86233830242097 L8.845295402550363,-67.80731756094966 L8.941473386573696,-67.75446999200861 L9.043006419078932,-67.70392291002031 L9.149649898097518,-67.65579808733267 L9.261146910147637,-67.61021146085878 L9.377228849161273,-67.56727285277474 L9.497616063579766,-67.52708570594838 L9.62201853005891,-67.4897468347364 L9.75013655216058,-67.45534619175004 L9.881661482347727,-67.4239666511514 L10.016276465543305,-67.3956838090023 L10.153657202461913,-67.3705658011468 L10.293472730875187,-67.34867313906584 L10.435386222928782,-67.33005856409997 L10.579055796590188,-67.31476692039074 L10.724135339272488,-67.3028350468472 L10.870275341649892,-67.29429168839788 L11.01712373965632,-67.28915742674155 L11.164326762638574,-67.28744463076427 L11.311529785620827,-67.28915742674155 L11.458378183627255,-67.29429168839788 L11.60451818600466,-67.3028350468472 L11.749597728686958,-67.31476692039074 L11.893267302348365,-67.33005856409997 L12.03518079440196,-67.34867313906584 L12.174996322815232,-67.3705658011468 L12.312377059733842,-67.3956838090023 L12.44699204292942,-67.4239666511514 L12.578516973116567,-67.45534619175004 L12.706634995218238,-67.4897468347364 L12.83103746169738,-67.52708570594838 L12.951424676115872,-67.56727285277474 L13.06750661512951,-67.61021146085878 L13.179003627179629,-67.65579808733267 L13.285647106198216,-67.70392291002031 L13.38718013870345,-67.75446999200861 L13.483358122726784,-67.80731756094966 L13.573949357080508,-67.86233830242097 L13.65873559954621,-67.91939966663709 L13.73751259263939,-67.97836418777365 L13.810090555683638,-68.03908981513455 L13.876294642008903,-68.10143025536452 L13.935965360172434,-68.16523532488269 L13.988958958187636,-68.23035131168791 L14.0351477698352,-68.29662134566449 L14.074420522222205,-68.36388577649602 L14.106682603848265,-68.43198255827694 L14.131856292532916,-68.50074763989538 L14.149880942655164,-68.5700153602466 L14.160713131254091,-68.63961884732514 L14.164326762638574,-68.70939042023409 " />
			<path d="M14.164326762638574,-68.70939042023409 L14.1622510361668,-68.76227722581622 L14.156026729178407,-68.81509084570345 L14.145662454979247,-68.86775819547654 L14.131172555834866,-68.92020639312739 L14.112577083123416,-68.9723628599145 L14.089901769588202,-69.02415542079868 L14.063177993728267,-69.07551240432016 L14.032442736376264,-69.12636274177879 L13.997738529523726,-69.17663606558021 L13.959113397464552,-69.22626280661171 L13.916620790338133,-69.27517429051326 L13.870319510164117,-69.32330283271025 L13.820273629471124,-69.37058183207664 L13.766552402632062,-69.41694586309869 L13.709230170028693,-69.4623307664121 L13.648386255178107,-69.50667373758667 L13.584104854963439,-69.54991341403635 L13.516474923120736,-69.5919899599338 L13.445590047143202,-69.63284514901221 L13.371548318773183,-69.67242244513996 L13.294452198261073,-69.7106670805562 L13.214408372579019,-69.74752613165951 L13.131527607785596,-69.7829485922445 L13.045924595745799,-69.81688544408505 L12.957717795418397,-69.84928972476669 L12.867029268930338,-69.88011659267396 L12.773984512665038,-69.90932338904301 L12.678712283598253,-69.93686969699357 L12.58134442112192,-69.9627173974586 L12.482015664602464,-69.98683072193401 L12.380863466926098,-70.00917630197587 L12.278027804289106,-70.02972321537614 " />
			<path d="M92.69192569241277,-61.82408430653687 L92.03747869906947,-63.593136172635404 " />
			<path d="M90.46660383147872,-63.890816665735805 L87.37216778674161,-62.832177432989184 " />
			<path d="M87.37216778674161,-62.832177432989184 L88.31625872789455,-62.65327237651893 " />
			<path d="M88.31625872789454,-62.653272376518935 L91.23826966920652,-63.701710009975635 " />
			<path d="M91.23826966920653,-63.701710009975635 L91.78065131816811,-61.996770629726285 " />
			<path d="M91.78065131816811,-61.996770629726285 L92.69192569241277,-61.82408430653687 " />
			<path d="M82.4474846675171,-45.827400207410776 L82.4474846675171,-54.63274591442878 " />
			<path d="M88.4474846675171,-45.827400207410776 L88.4474846675171,-54.63274591442878 " />
			<path d="M45.30590571507784,-52.86572246031343 L45.30590571507784,-61.671068167331434 " />
			<path d="M51.30590571507784,-52.86572246031343 L51.30590571507784,-61.671068167331434 " />
			<path d="M8.164326762638574,-59.90404471321608 L8.164326762638574,-68.70939042023409 " />
			<path d="M14.164326762638566,-59.90404471321608 L14.164326762638566,-68.70939042023409 " />

        </g>

        <!-- solid lines -->
        <g  stroke="rgb(0,0,0)" fill="none">
    			<path d="M195.01150039772847,-44.079578353226836 L195.01150039772847,-35.27423264620883 " />
			<path d="M195.01150039772847,-35.27423264620882 L-83.55034174556602,-88.0616495429787 " />
			<path d="M-83.55034174556602,-96.86699524999672 L-83.55034174556602,-88.06164954297871 " />
			<path d="M195.01150039772847,-44.079578353226836 L-83.55034174556602,-96.86699524999672 " />
			<path d="M195.01150039772847,-35.27423264620882 L83.64139623267765,96.75904686799629 " />
			<path d="M-83.55034174556602,-88.06164954297871 L-194.92044591061682,43.97162997122639 " />
			<path d="M83.64139623267766,96.75904686799629 L-194.92044591061682,43.971629971226406 " />
			<path d="M86.56118570916762,-47.147733002552826 L86.38937406434259,-47.17744555691004 L86.21406184422015,-47.202140605584745 L86.03590060473582,-47.22172636829188 L85.85555249033666,-47.236130053642825 L85.6736877730911,-47.24529812967798 L85.49098236159179,-47.249196522820775 L85.3081152889103,-47.24781074451364 L85.12576618893942,-47.24114594506546 L84.94461277050253,-47.22922689451015 L84.76532829861752,-47.21209789054771 L84.58857909227642,-47.18982259390981 L84.41502204804016,-47.1624837917617 L84.2453021986523,-47.13018309001994 L84.08005031574508,-47.09304053572932 L83.91988056554771,-47.0511941709025 L83.76538822630921,-47.004799519480486 L83.6171474759195,-46.95402900932079 L83.47570925795073,-46.899071331361334 L83.34159923405022,-46.840130738341884 L83.21531583029477,-46.77742628568937 L83.09732838476708,-46.7111910173883 L82.9880754032393,-46.64167109986204 L82.88796292944609,-46.569124907084 L82.84145202133746,-46.531800801903955 L82.79736303600434,-46.49382206031888 L82.75573694765248,-46.455223977964586 L82.71661244158825,-46.41604242606276 L82.68002587826652,-46.376313818083915 L82.64601125949883,-46.33607507590648 L82.61460019685384,-46.295363595503304 L82.585821882279,-46.25421721218769 L82.5597030609709,-46.21267416545101 L82.53626800651965,-46.17077306342475 L82.51553849835007,-46.12855284699993 L82.49753380148096,-46.086052753637354 L82.48227064862114,-46.0433122809021 L82.46976322461883,-46.000371149756425 L82.46002315327894,-45.957269267644946 L82.45305948656043,-45.914046691406604 L82.44887869616392,-45.87074359004771 L82.4474846675171,-45.82740020741079 " />
			<path d="M82.4474846675171,-45.827400207410776 L82.45109829890158,-45.75762863450183 L82.46193048750051,-45.68802514742328 L82.47995513762275,-45.61875742707206 L82.50512882630741,-45.54999234545363 L82.53739090793347,-45.48189556367271 L82.57666366032048,-45.41463113284119 L82.62285247196805,-45.3483610988646 L82.67584606998324,-45.283245112059376 L82.73551678814677,-45.21944004254121 L82.80172087447204,-45.157099602311234 L82.87429883751629,-45.09637397495034 L82.95307583060946,-45.03740945381379 L83.03786207307516,-44.980348089597655 L83.12845330742888,-44.925327348126345 L83.22463129145223,-44.872479779185305 L83.32616432395746,-44.821932697197006 L83.43280780297604,-44.773807874509366 L83.54430481502617,-44.728221248035474 L83.6603867540398,-44.685282639951424 L83.78077396845829,-44.64509549312506 L83.90517643493743,-44.60775662191308 L84.0332944570391,-44.57335597892673 L84.16481938722626,-44.54197643832809 L84.29943437042184,-44.513693596179 L84.43681510734044,-44.48857558832348 L84.57663063575372,-44.46668292624252 L84.7185441278073,-44.44806835127666 L84.86221370146872,-44.43277670756742 L85.00729324415101,-44.4208448340239 L85.15343324652842,-44.412301475574566 L85.30028164453485,-44.40716721391824 L85.4474846675171,-44.40545441794095 L85.59468769049936,-44.40716721391824 L85.74153608850578,-44.412301475574566 L85.88767609088319,-44.4208448340239 L86.03275563356549,-44.43277670756742 L86.1764252072269,-44.44806835127666 L86.31833869928049,-44.46668292624252 L86.45815422769377,-44.48857558832348 L86.59553496461237,-44.513693596179 L86.73014994780794,-44.54197643832809 L86.8616748779951,-44.57335597892673 L86.98979290009677,-44.60775662191308 L87.11419536657591,-44.64509549312506 L87.2345825809944,-44.685282639951424 L87.35066452000804,-44.728221248035474 L87.46216153205816,-44.773807874509366 L87.56880501107675,-44.821932697197006 L87.67033804358198,-44.872479779185305 L87.76651602760532,-44.925327348126345 L87.85710726195904,-44.980348089597655 L87.94189350442474,-45.03740945381379 L88.02067049751791,-45.09637397495034 L88.09324846056217,-45.157099602311234 L88.15945254688744,-45.21944004254121 L88.21912326505097,-45.283245112059376 L88.27211686306616,-45.3483610988646 L88.31830567471373,-45.41463113284119 L88.35757842710073,-45.48189556367271 L88.38984050872679,-45.54999234545363 L88.41501419741144,-45.61875742707206 L88.4330388475337,-45.68802514742328 L88.44387103613262,-45.75762863450183 L88.4474846675171,-45.82740020741077 " />
			<path d="M88.4474846675171,-45.827400207410776 L88.44540894104533,-45.88028701299291 L88.43918463405693,-45.93310063288014 L88.42882035985778,-45.98576798265322 L88.4143304607134,-46.03821618030407 L88.39573498800195,-46.090372647091186 L88.37305967446673,-46.14216520797537 L88.3463358986068,-46.19352219149685 L88.31560064125479,-46.24437252895548 L88.28089643440225,-46.2946458527569 L88.24227130234308,-46.3442725937884 L88.19977869521666,-46.39318407768996 L88.15347741504264,-46.44131261988695 L88.10343153434965,-46.48859161925333 L88.0497103075106,-46.534955650275386 L87.99238807490723,-46.580340553588776 L87.93154416005663,-46.624683524763356 L87.86726275984196,-46.66792320121304 L87.79963282799926,-46.70999974711048 L87.72874795202173,-46.7508549361889 L87.65470622365171,-46.790432232316654 L87.5776101031396,-46.828676867732895 L87.49756627745755,-46.8655359188362 L87.41468551266412,-46.900958379421176 L87.32908250062432,-46.934895231261734 L87.24087570029693,-46.96729951194338 L87.15018717380887,-46.998126379850646 L87.05714241754357,-47.02733317621969 L86.96187018847678,-47.054879484170264 L86.86450232600045,-47.080727184635286 L86.765173569481,-47.1048405091107 L86.66402137180462,-47.12718608915255 L86.56118570916763,-47.14773300255282 " />
			<path d="M49.41960675672835,-54.18605525545548 L49.24779511190333,-54.21576780981269 L49.07248289178089,-54.2404628584874 L48.89432165229655,-54.260048621194535 L48.7139735378974,-54.27445230654548 L48.532108820651835,-54.28362038258063 L48.34940340915253,-54.28751877572343 L48.16653633647105,-54.286132997416296 L47.98418723650017,-54.279468197968114 L47.80303381806327,-54.2675491474128 L47.62374934617826,-54.25042014345036 L47.44700013983716,-54.22814484681246 L47.2734430956009,-54.200806044664354 L47.103723246213036,-54.16850534292259 L46.93847136330582,-54.131362788631975 L46.778301613108454,-54.08951642380515 L46.62380927386995,-54.04312177238314 L46.475568523480234,-53.992351262223444 L46.33413030551146,-53.93739358426399 L46.20002028161097,-53.87845299124454 L46.0737368778555,-53.815748538592025 L45.95574943232782,-53.749513270290954 L45.84649645080005,-53.67999335276469 L45.746383977006836,-53.607447159986656 L45.69987306889819,-53.57012305480661 L45.65578408356509,-53.53214431322153 L45.61415799521322,-53.49354623086724 L45.57503348914899,-53.45436467896541 L45.53844692582726,-53.41463607098657 L45.504432307059574,-53.37439732880913 L45.47302124441459,-53.333685848405956 L45.44424292983974,-53.29253946509034 L45.41812410853165,-53.250996418353665 L45.394689054080395,-53.2090953163274 L45.3739595459108,-53.16687509990258 L45.355954849041694,-53.124375006540006 L45.34069169618188,-53.08163453380475 L45.32818427217957,-53.03869340265908 L45.31844420083967,-52.9955915205476 L45.311480534121166,-52.95236894430926 L45.30729974372465,-52.90906584295036 L45.30590571507784,-52.86572246031344 " />
			<path d="M45.30590571507784,-52.86572246031343 L45.309519346462324,-52.79595088740448 L45.32035153506125,-52.726347400325935 L45.3383761851835,-52.657079679974714 L45.36354987386815,-52.588314598356284 L45.39581195549421,-52.52021781657536 L45.43508470788122,-52.45295338574384 L45.48127351952878,-52.38668335176725 L45.53426711754398,-52.32156736496203 L45.593937835707514,-52.25776229544386 L45.66014192203278,-52.19542185521389 L45.732719885077024,-52.13469622785299 L45.8114968781702,-52.07573170671644 L45.89628312063591,-52.01867034250031 L45.98687435498963,-51.963649601029 L46.083052339012966,-51.91080203208796 L46.184585371518196,-51.86025495009966 L46.29122885053679,-51.81213012741202 L46.402725862586905,-51.76654350093813 L46.51880780160054,-51.72360489285408 L46.63919501601904,-51.683417746027715 L46.76359748249818,-51.646078874815736 L46.89171550459985,-51.61167823182938 L47.02324043478699,-51.580298691230745 L47.157855417982574,-51.552015849081656 L47.29523615490118,-51.52689784122613 L47.435051683314455,-51.50500517914517 L47.57696517536805,-51.48639060417931 L47.72063474902946,-51.47109896047007 L47.865714291711754,-51.459167086926556 L48.01185429408916,-51.45062372847722 L48.15870269209559,-51.44548946682089 L48.30590571507784,-51.443776670843604 L48.453108738060095,-51.44548946682089 L48.59995713606652,-51.45062372847722 L48.74609713844393,-51.459167086926556 L48.891176681126225,-51.47109896047007 L49.03484625478763,-51.48639060417931 L49.17675974684123,-51.50500517914517 L49.3165752752545,-51.52689784122613 L49.45395601217311,-51.552015849081656 L49.58857099536869,-51.580298691230745 L49.72009592555583,-51.61167823182938 L49.848213947657506,-51.646078874815736 L49.972616414136645,-51.683417746027715 L50.09300362855514,-51.72360489285408 L50.20908556756878,-51.76654350093813 L50.3205825796189,-51.81213012741202 L50.42722605863749,-51.86025495009966 L50.52875909114272,-51.91080203208796 L50.62493707516605,-51.963649601029 L50.715528309519776,-52.01867034250031 L50.80031455198548,-52.07573170671644 L50.87909154507866,-52.13469622785299 L50.951669508122905,-52.19542185521389 L51.01787359444817,-52.25776229544386 L51.0775443126117,-52.32156736496203 L51.130537910626906,-52.38668335176725 L51.176726722274466,-52.45295338574384 L51.21599947466147,-52.52021781657536 L51.24826155628753,-52.588314598356284 L51.273435244972184,-52.657079679974714 L51.291459895094434,-52.726347400325935 L51.30229208369336,-52.79595088740448 L51.30590571507784,-52.86572246031342 " />
			<path d="M51.30590571507784,-52.86572246031343 L51.30382998860607,-52.91860926589556 L51.297605681617675,-52.97142288578279 L51.28724140741851,-53.024090235555875 L51.27275150827413,-53.07653843320672 L51.25415603556268,-53.12869489999384 L51.23148072202747,-53.18048746087802 L51.204756946167535,-53.2318444443995 L51.17402168881553,-53.28269478185813 L51.13931748196299,-53.33296810565955 L51.10069234990382,-53.382594846691056 L51.058199742777404,-53.43150633059261 L51.011898462603384,-53.4796348727896 L50.96185258191039,-53.52691387215598 L50.90813135507133,-53.57327790317804 L50.85080912246796,-53.61866280649143 L50.78996520761738,-53.663005777666 L50.72568380740271,-53.70624545411569 L50.65805387556,-53.74832200001313 L50.587168999582474,-53.78917718909155 L50.513127271212454,-53.82875448521931 L50.43603115070034,-53.86699912063555 L50.35598732501828,-53.903858171738854 L50.27310656022487,-53.93928063232383 L50.18750354818507,-53.97321748416439 L50.099296747857665,-54.00562176484603 L50.008608221369606,-54.0364486327533 L49.915563465104306,-54.065655429122344 L49.82029123603752,-54.09320173707292 L49.72292337356119,-54.11904943753794 L49.62359461704173,-54.143162762013354 L49.52244241936536,-54.165508342055205 L49.41960675672838,-54.18605525545547 " />
			<path d="M12.278027804289081,-61.22437750835813 L12.106216159464065,-61.25409006271534 L11.930903939341627,-61.27878511139005 L11.752742699857281,-61.29837087409719 L11.572394585458133,-61.31277455944813 L11.390529868212568,-61.32194263548328 L11.207824456713261,-61.32584102862608 L11.024957384031778,-61.32445525031895 L10.842608284060901,-61.31779045087077 L10.661454865624002,-61.30587140031545 L10.48217039373899,-61.288742396353015 L10.305421187397888,-61.266467099715115 L10.131864143161634,-61.23912829756701 L9.962144293773768,-61.206827595825246 L9.796892410866556,-61.16968504153463 L9.636722660669182,-61.1278386767078 L9.482230321430688,-61.08144402528579 L9.333989571040963,-61.0306735151261 L9.192551353072194,-60.97571583716664 L9.058441329171696,-60.91677524414719 L8.932157925416238,-60.85407079149468 L8.814170479888556,-60.78783552319361 L8.704917498360786,-60.71831560566734 L8.604805024567566,-60.64576941288931 L8.558294116458926,-60.60844530770926 L8.514205131125818,-60.57046656612418 L8.472579042773948,-60.53186848376989 L8.433454536709728,-60.492686931868064 L8.39686797338799,-60.45295832388922 L8.362853354620302,-60.412719581711784 L8.33144229197532,-60.37200810130861 L8.302663977400474,-60.330861717992995 L8.27654515609238,-60.28931867125632 L8.253110101641125,-60.24741756923005 L8.232380593471536,-60.205197352805236 L8.214375896602428,-60.16269725944266 L8.19911274374261,-60.119956786707405 L8.186605319740302,-60.07701565556173 L8.176865248400404,-60.03391377345025 L8.1699015816819,-59.99069119721191 L8.165720791285384,-59.947388095853015 L8.164326762638574,-59.904044713216095 " />
			<path d="M8.164326762638574,-59.90404471321608 L8.167940394023056,-59.83427314030713 L8.178772582621983,-59.76466965322859 L8.196797232744231,-59.69540193287737 L8.221970921428882,-59.62663685125894 L8.254233003054942,-59.55854006947801 L8.293505755441947,-59.49127563864649 L8.339694567089511,-59.425005604669906 L8.392688165104714,-59.35988961786468 L8.452358883268243,-59.29608454834651 L8.518562969593509,-59.23374410811654 L8.591140932637757,-59.173018480755644 L8.669917925730939,-59.11405395961909 L8.754704168196639,-59.05699259540296 L8.845295402550363,-59.00197185393165 L8.941473386573696,-58.94912428499061 L9.043006419078932,-58.89857720300231 L9.149649898097518,-58.85045238031467 L9.261146910147637,-58.80486575384078 L9.377228849161273,-58.76192714575673 L9.497616063579766,-58.72173999893037 L9.62201853005891,-58.68440112771839 L9.75013655216058,-58.65000048473203 L9.881661482347727,-58.6186209441334 L10.016276465543305,-58.59033810198431 L10.153657202461913,-58.56522009412878 L10.293472730875187,-58.543327432047825 L10.435386222928782,-58.524712857081965 L10.579055796590188,-58.509421213372725 L10.724135339272488,-58.49748933982921 L10.870275341649892,-58.48894598137987 L11.01712373965632,-58.48381171972355 L11.164326762638574,-58.48209892374626 L11.311529785620827,-58.48381171972355 L11.458378183627255,-58.48894598137987 L11.60451818600466,-58.49748933982921 L11.749597728686958,-58.509421213372725 L11.893267302348365,-58.524712857081965 L12.03518079440196,-58.543327432047825 L12.174996322815232,-58.56522009412878 L12.312377059733842,-58.59033810198431 L12.44699204292942,-58.6186209441334 L12.578516973116567,-58.65000048473203 L12.706634995218238,-58.68440112771839 L12.83103746169738,-58.72173999893037 L12.951424676115872,-58.76192714575673 L13.06750661512951,-58.80486575384078 L13.179003627179629,-58.85045238031467 L13.285647106198216,-58.89857720300231 L13.38718013870345,-58.94912428499061 L13.483358122726784,-59.00197185393165 L13.573949357080508,-59.05699259540296 L13.65873559954621,-59.11405395961909 L13.73751259263939,-59.173018480755644 L13.810090555683638,-59.23374410811654 L13.876294642008903,-59.29608454834651 L13.935965360172434,-59.35988961786468 L13.988958958187636,-59.425005604669906 L14.0351477698352,-59.49127563864649 L14.074420522222205,-59.55854006947801 L14.106682603848265,-59.62663685125894 L14.131856292532916,-59.69540193287737 L14.149880942655164,-59.76466965322859 L14.160713131254091,-59.83427314030713 L14.164326762638574,-59.904044713216074 " />
			<path d="M14.164326762638574,-59.90404471321608 L14.1622510361668,-59.956931518798214 L14.156026729178407,-60.009745138685446 L14.145662454979247,-60.06241248845853 L14.131172555834866,-60.114860686109374 L14.112577083123416,-60.16701715289649 L14.089901769588202,-60.21880971378067 L14.063177993728267,-60.27016669730215 L14.032442736376264,-60.321017034760786 L13.997738529523726,-60.371290358562206 L13.959113397464552,-60.42091709959371 L13.916620790338133,-60.469828583495264 L13.870319510164117,-60.517957125692256 L13.820273629471124,-60.56523612505863 L13.766552402632062,-60.61160015608069 L13.709230170028693,-60.65698505939408 L13.648386255178107,-60.70132803056866 L13.584104854963439,-60.74456770701835 L13.516474923120736,-60.786644252915785 L13.445590047143202,-60.827499441994206 L13.371548318773183,-60.86707673812196 L13.294452198261073,-60.9053213735382 L13.214408372579019,-60.942180424641506 L13.131527607785596,-60.97760288522648 L13.045924595745799,-61.01153973706704 L12.957717795418397,-61.043944017748686 L12.867029268930338,-61.07477088565595 L12.773984512665038,-61.103977682025 L12.678712283598253,-61.13152398997557 L12.58134442112192,-61.15737169044059 L12.482015664602464,-61.18148501491601 L12.380863466926098,-61.20383059495786 L12.278027804289106,-61.224377508358124 " />
			<path d="M-83.55034174556602,-96.86699524999672 L-194.92044591061682,35.166284264208386 " />
			<path d="M-194.92044591061682,35.166284264208386 L-194.92044591061682,43.97162997122639 " />
			<path d="M55.73057932608123,-70.47328680161178 L68.85931732501413,-86.03787971348449 " />
			<path d="M55.73057932608123,-70.47328680161178 L88.56852510531381,-64.2505022287334 " />
			<path d="M55.73057932608123,-70.47328680161178 L55.73057932608123,-39.33304203552696 " />
			<path d="M68.85931732501415,-86.0378797134845 L68.8273489902589,-85.99779831093903 L68.79972931028001,-85.9586006854276 L68.77631800589118,-85.9202583280136 L68.75697479790605,-85.88274272976047 L68.7415594071383,-85.84602538173161 L68.72993155440157,-85.81007777499045 L68.72195096050956,-85.7748714006004 L68.71747734627591,-85.7403777496249 L68.7163704325143,-85.70656831312733 L68.71848994003838,-85.67341458217116 L68.72369558966183,-85.64088804781977 L68.73184710219832,-85.60896020113658 L68.74280419846149,-85.57760253318503 L68.75642659926501,-85.54678653502852 L68.77257402542257,-85.51648369773048 L68.79110619774782,-85.48666551235432 L68.83476366415606,-85.42836906162134 L68.88627676499904,-85.3716691113369 L68.94452326678608,-85.31633759000839 L69.00838093602651,-85.26214642614312 L69.07672753922965,-85.20886754824845 L69.14844084290483,-85.15627288483175 L69.29747861770858,-85.05222391546158 " />
			<path d="M68.85931732501415,-86.0378797134845 L68.82417556410225,-85.99839967460117 L68.78716922359688,-85.96098081950088 L68.74835845122685,-85.92555665838418 L68.707803394721,-85.89206070145163 L68.66556420180814,-85.86042645890375 L68.62170102021709,-85.83058744094109 L68.57627399767668,-85.80247715776422 L68.52934328191573,-85.77602911957368 L68.43121136164747,-85.72785381895375 L68.3277864412429,-85.68552962068567 L68.21954970253262,-85.64852460637384 L68.10698232734715,-85.61630685762262 L67.9905654975171,-85.5883444560364 L67.87078039487302,-85.56410548321954 L67.74810820124551,-85.54305802077641 L67.62303009846514,-85.52467015031142 L67.36758089276806,-85.49374551173328 L67.1082822324264,-85.46707622032014 " />
			<path d="M88.56852510531381,-64.2505022287334 L88.40126339538647,-64.27874587095143 L88.24121941291773,-64.29901073723508 L88.08791197607704,-64.31182874598002 L87.94085990303378,-64.31773181558184 L87.79958201195743,-64.31725186443617 L87.66359712101738,-64.31092081093865 L87.53242404838306,-64.29927057348489 L87.40558161222391,-64.2828330704705 L87.28258863070936,-64.26214022029114 L87.16296392200881,-64.23772394134241 L87.04622630429171,-64.21011615201992 L86.93189459572747,-64.17984877071933 L86.70852417873532,-64.11346290576627 L86.48900321638776,-64.04282169364822 " />
			<path d="M88.56852510531381,-64.2505022287334 L88.40628496672396,-64.28469912507624 L88.26087833049426,-64.32231709380885 L88.13118296313407,-64.36312806343858 L88.01607663115267,-64.40690396247278 L87.91443710105942,-64.45341671941878 L87.82514213936362,-64.50243826278395 L87.7470695125746,-64.55374052107564 L87.67909698720169,-64.6070954228012 L87.62010232975419,-64.66227489646795 L87.56896330674144,-64.71905087058326 L87.52455768467276,-64.77719527365448 L87.48576323005746,-64.83648003418895 L87.45145770940488,-64.89667708069403 L87.42051888922433,-64.95755834167707 L87.36425241631662,-65.0804612211064 " />
			<path d="M55.73057932608123,-39.33304203552696 L55.73216603915955,-39.41233106009114 L55.736859369422795,-39.488085374238125 L55.74455910341339,-39.5604190008846 L55.75516502767375,-39.62944596294724 L55.768576928746306,-39.695280283342726 L55.78469459317347,-39.75803598498776 L55.80341780749767,-39.817827090799 L55.82464635826132,-39.87476762369315 L55.84828003200685,-39.92897160658689 L55.87421861527668,-39.9805530623969 L55.902361894613236,-40.02962601403986 L55.932609656558924,-40.07630448443247 L55.96486168765619,-40.1207024964914 L55.99901777444743,-40.16293407313333 L56.034977703475086,-40.203113237274955 L56.07264126128157,-40.241354011832954 L56.1119082344093,-40.277770419724014 L56.15267840940071,-40.31247648386481 L56.23832751114423,-40.37721367256238 L56.32878685885151,-40.43647776125912 L56.423254744861914,-40.491180933288504 L56.520929461514825,-40.542235371984006 L56.62100930114961,-40.590553260679094 L56.82517751872231,-40.68262812140192 " />
			<path d="M55.73057932608123,-39.33304203552696 L55.7289926130029,-39.412932423753276 L55.72429928273966,-39.490465508311416 L55.716599548749066,-39.56571733125518 L55.705993624488706,-39.6387639346384 L55.69258172341615,-39.709681360514864 L55.676464058988984,-39.778545650938405 L55.65774084466479,-39.84543284796282 L55.636512293901134,-39.91041899364193 L55.612878620155605,-39.97358013002955 L55.58694003688577,-40.034992299179486 L55.55879675754922,-40.09473154314555 L55.52854899560353,-40.15287390398156 L55.496296964506264,-40.20949542374132 L55.46214087771502,-40.26467214447865 L55.42618094868737,-40.31848010824736 L55.388517390880885,-40.37099535710126 L55.308480242761746,-40.47245187827988 L55.222831141018226,-40.56965004444501 L55.132371793310945,-40.66319819202715 L55.03790390730054,-40.75370465745681 L54.94022919064763,-40.84177777716447 L54.84014935101284,-40.92802588758063 L54.63598113344014,-41.097480426260475 " />
			<path d="M73.87022127384151,-87.86388412306988 L70.1484383358391,-87.45893632313229 " />
			<path d="M70.14843833583912,-87.45893632313229 L67.9248822511777,-89.04467633643634 " />
			<path d="M67.9248822511777,-89.04467633643634 L67.54743103370839,-88.59719429022 " />
			<path d="M67.54743103370838,-88.59719429021999 L69.38997408955635,-87.34993328569107 " />
			<path d="M69.38997408955635,-87.34993328569107 L66.23784796567028,-87.0446362804592 " />
			<path d="M66.23784796567028,-87.0446362804592 L65.8669568435227,-86.60493146409954 " />
			<path d="M65.8669568435227,-86.60493146409954 L69.78411799320759,-87.02702140312745 " />
			<path d="M69.78411799320759,-87.02702140312745 L71.90419062166244,-85.53308380121732 " />
			<path d="M71.90419062166245,-85.53308380121732 L72.27508174381003,-85.97278861757698 " />
			<path d="M72.27508174381003,-85.97278861757697 L70.54093819308503,-87.14535635374556 " />
			<path d="M70.54093819308503,-87.14535635374556 L73.50590093121,-87.43196920306504 " />
			<path d="M73.50590093121,-87.43196920306504 L73.87022127384151,-87.86388412306988 " />
			<path d="M92.03747869906947,-63.593136172635404 L91.89653306887715,-63.97412979419121 " />
			<path d="M91.89653306887716,-63.97412979419121 L92.835235698962,-65.08699565409047 " />
			<path d="M92.83523569896198,-65.08699565409047 L92.07174277015935,-65.23167742105592 " />
			<path d="M92.07174277015935,-65.23167742105592 L91.13304014007451,-64.11881156115665 " />
			<path d="M91.13304014007451,-64.11881156115665 L90.46660383147872,-63.890816665735805 " />
			<path d="M53.68232314753707,-34.04587152059606 L57.992303531061346,-33.22913104540577 " />
			<path d="M57.992303531061346,-33.229131045405765 L57.992303531061346,-33.88308125389276 " />
			<path d="M57.992303531061346,-33.883081253892755 L54.41294606225404,-38.9443684112534 " />
			<path d="M54.41294606225404,-38.94436841125341 L58.008711814515486,-38.262971474877205 " />
			<path d="M58.008711814515486,-38.26297147487721 L58.008711814515486,-38.90133635578352 " />
			<path d="M58.008711814515486,-38.90133635578352 L55.73057932608123,-39.33304203552696 " />
			<path d="M55.73057932608123,-39.33304203552696 L53.45244683764697,-39.764747715270396 " />
			<path d="M53.45244683764697,-39.764747715270396 L53.45244683764697,-39.12638283436409 " />
			<path d="M53.45244683764697,-39.12638283436408 L57.04821258990841,-34.046426324778395 " />
			<path d="M57.04821258990841,-34.0464263247784 L53.68232314753707,-34.68426174349843 " />
			<path d="M53.68232314753707,-34.68426174349844 L53.68232314753707,-34.04587152059606 " />

        </g>
        </g>
    </svg>
    