<?xml version="1.0" encoding="UTF-8" standalone="no"?>
    <svg
    xmlns:svg="http://www.w3.org/2000/svg"
    xmlns="http://www.w3.org/2000/svg"
    width="2161"
    height="1783"
    >
        <g transform="scale(5, -5)   translate(215.96048172442363,-192.24872149459858)" stroke-width="0.2"  fill="none">
        <!-- hidden lines -->
        <g  stroke="rgb(160,160,160)" fill="none" stroke-dasharray="0.2,0.2" >
    			<path d="M0.428492092682518,111.49425518060751 L0.428492092682518,188.24872149459856 " />
			<path d="M0.428492092682518,111.49425518060751 L-211.96048172442363,-24.316520716641136 " />
			<path d="M212.3032753985696,-24.64611450405677 L0.42849209268248956,111.49425518060754 " />
			<path d="M198.1611501611365,-16.95968141307715 L198.1611501611365,52.11933826951479 " />
			<path d="M-0.06855873482922448,-143.71640558384257 L198.16115016113653,-16.959681413077153 " />
			<path d="M57.765923469185324,-39.190584121890474 L56.568500949732424,-39.95626832159745 " />
			<path d="M-0.06855873482921027,-143.71640558384252 L-0.06855873482921027,-74.63738590125057 " />
			<path d="M56.568500949732424,-39.956268321597435 L56.568500949732424,-38.42117899531761 " />
			<path d="M70.72776587087283,-50.09083317361196 L70.84303838749132,-50.020516826080936 L70.95797109613291,-49.95719561908218 L71.07222519052924,-49.901056215073275 L71.18546386487606,-49.85226410551619 L71.29735330669175,-49.81096312303056 L71.4075636808519,-49.77727501739433 L71.5157701018992,-49.75129909664169 L71.6216535917624,-49.733111934316256 L71.72490202006097,-49.722767143742495 L71.82521102422378,-49.72029521998079 L71.8741704742739,-49.72201476793534 L71.92228490670932,-49.72570344993211 L71.96951885626514,-49.73135854703466 L72.01583750668253,-49.73897589085719 L72.0612067163719,-49.74854986663708 L72.1055930435787,-49.76007341737356 L72.14896377103344,-49.77353804902942 L72.19128693006769,-49.788933836792 L72.23253132417824,-49.806249432388775 L72.27266655202212,-49.82547207245223 L72.3116630298255,-49.84658758792773 L72.34949201318996,-49.86958041451757 " />
			<path d="M72.34949201318997,-49.86958041451758 L72.41483309395292,-49.91586071337122 L72.47610988200582,-49.96810978317478 L72.53317475619906,-50.02620175134263 L72.5858902422524,-50.08999666923521 L72.63412934394262,-50.159340849307526 L72.6777758490485,-50.234067235355965 L72.71672460931624,-50.31399580497126 L72.75088179377087,-50.398934003228305 L72.78016511476321,-50.48867720656779 L72.80450402620808,-50.58300921575229 L72.82383989353596,-50.68170277670918 L72.83812613494885,-50.78452012800557 L72.84732833363985,-50.89121357363645 L72.85142432070629,-51.00152607974606 L72.85040422855658,-51.11519189384494 L72.84427051468205,-51.231937185030986 L72.83303795573667,-51.351480703672046 L72.81673361193879,-51.473534458960934 L72.79539676188072,-51.59780441271052 L72.76907880790314,-51.72399118771746 L72.73784315226236,-51.85179078898809 L72.70176504438874,-51.98089533608905 L72.6609313996042,-52.11099380485813 L72.61544058973564,-52.2417727766888 L72.56540220612858,-52.37291719358303 L72.51093679563195,-52.50411111715362 L72.45217557019024,-52.63503848974747 L72.38926009074243,-52.76538389585611 L72.32234192618925,-52.89483332197932 L72.25158228825045,-53.02307491311113 L72.17715164309162,-53.14979972402588 L72.09922930065632,-53.274702463554284 L72.01800298269266,-53.39748223005663 L71.9336683705152,-53.517843236321184 L71.84642863359153,-53.63549552214147 L71.75649394008919,-53.750155652855824 L71.66408095056215,-53.861547402166316 L71.56941229599663,-53.96940241759209 L71.47271604147348,-54.073460866954 L71.37422513673941,-54.1734720643331 L71.27417685501072,-54.269195073994936 L71.1728122213613,-54.36039929082491 L71.0703754320721,-54.446864995876126 L70.96711326634092,-54.5283838856916 L70.86327449176969,-54.60475957412557 L70.75910926506157,-54.67580806545489 L70.65486852937148,-54.7413581976408 L70.55080340976214,-54.801252054673384 L70.4471646082217,-54.85534534700495 L70.34420179970074,-54.903507759156255 L70.24216303062347,-54.945623263657914 L70.14129412132216,-54.981590400570695 L70.04183807383438,-55.01132252191142 L69.94403448648984,-55.034748000395545 L69.84811897669704,-55.05181040199359 L69.75432261332028,-55.062468621885614 L69.66287136001452,-55.06669698348634 L69.57398553085916,-55.0644853003023 L69.48787925960211,-55.05583890047203 L69.40475998379286,-55.04077861393004 L69.32482794504722,-55.019340722225735 L69.24827570664773,-54.99157687111798 L69.1752876896419,-54.957553946155905 L69.10603972855569,-54.91735391154582 " />
			<path d="M69.10603972855569,-54.91735391154581 L69.05836882792565,-54.88447463990978 L69.01280300439625,-54.84845425644585 L68.96939971558194,-54.809338182154775 L68.92821369218314,-54.76717574164307 L68.88929686897174,-54.72202010092563 L68.85269831930259,-54.67392820038439 L68.81846419323273,-54.62296068296764 L68.78663765932724,-54.56918181772044 L68.7572588502244,-54.51265941874264 L68.73036481202934,-54.45346475967658 L68.70598945759947,-54.391672483832416 L68.68416352378118,-54.32736051006441 L68.66491453265117,-54.26060993451674 L68.64826675681171,-54.191504928362825 L68.63424118878332,-54.120132631667175 L68.62285551453364,-54.04658304350343 L68.61412409117577,-53.97094890846728 L68.60805792886421,-53.893325599727355 L68.60466467691128,-53.81381099876152 L68.60394861414149,-53.73250537193023 L68.605910643496,-53.64951124404263 L68.61054829089412,-53.564933269074736 L68.61785570835292,-53.478878098202834 L68.62782368136158,-53.39145424531843 L68.64043964050059,-53.30277195019434 L68.65568767729165,-53.21294303947449 L68.67354856425784,-53.12208078566271 L68.69399977916916,-53.0302997642883 L68.71701553344265,-52.93771570942853 L68.74256680466118,-52.844445367770234 L68.77062137317029,-52.7506063513945 L68.80114386270641,-52.65631698947016 L68.83409578500577,-52.561696179042976 L68.86943558833724,-52.4668632351088 L68.90711870989831,-52.37193774015972 L68.9470976320079,-52.27703939339283 L68.98932194202524,-52.18228785977192 L69.03373839591922,-52.08780261913223 L69.08029098540803,-51.99370281551878 L69.12892100858461,-51.900107106948 L69.1795671439385,-51.80713351578231 L69.23216552768116,-51.71489927990623 L69.2866498342769,-51.62352070489167 L69.34295136007812,-51.533113017338906 L69.40099910995922,-51.44379021957804 L69.46071988684015,-51.35566494591435 L69.52203838398644,-51.26884832059855 L69.58487727996953,-51.18344981770136 L69.64915733616759,-51.09957712306876 L69.71479749668387,-51.01733599853232 L69.78171499055665,-50.936830148545496 L69.84982543613172,-50.85816108941445 L69.91904294746607,-50.78142802128788 L69.98928024262837,-50.70672770306759 L70.06044875375977,-50.63415433039744 L70.13245873875627,-50.563799416884436 L70.20521939443171,-50.495751678701865 L70.27863897101888,-50.43009692271994 L70.35262488786414,-50.366917938305 L70.42708385016985,-50.30629439292376 L70.50192196663724,-50.248302731684156 L70.57704486786159,-50.19301608093957 L70.65235782533011,-50.14050415607793 L70.72776587087282,-50.090833173611976 " />
			<path d="M99.04629571315365,-31.98272972064548 L99.16156822977214,-31.912413373114457 L99.27650093841373,-31.849092166115696 L99.39075503281006,-31.79295276210679 L99.50399370715688,-31.744160652549706 L99.61588314897257,-31.702859670064075 L99.72609352313272,-31.669171564427845 L99.83429994418002,-31.64319564367521 L99.94018343404322,-31.625008481349774 L100.04343186234179,-31.61466369077601 L100.1437408665046,-31.61219176701431 L100.19270031655472,-31.61391131496886 L100.24081474899015,-31.617599996965634 L100.28804869854596,-31.62325509406818 L100.33436734896335,-31.63087243789071 L100.37973655865272,-31.6404464136706 L100.42412288585952,-31.65196996440708 L100.46749361331426,-31.665434596062937 L100.50981677234851,-31.680830383825516 L100.55106116645906,-31.698145979422293 L100.59119639430294,-31.717368619485747 L100.63019287210632,-31.738484134961247 L100.66802185547078,-31.76147696155109 " />
			<path d="M100.6680218554708,-31.761476961551097 L100.73336293623375,-31.807757260404735 L100.79463972428664,-31.860006330208297 L100.85170459847988,-31.918098298376155 L100.90442008453323,-31.98189321626873 L100.95265918622344,-32.05123739634105 L100.99630569132933,-32.12596378238948 L101.03525445159707,-32.20589235200478 L101.0694116360517,-32.29083055026182 L101.09869495704403,-32.38057375360131 L101.1230338684889,-32.47490576278581 L101.14236973581679,-32.5735993237427 L101.15665597722968,-32.676416675039086 L101.16585817592068,-32.78311012066997 L101.16995416298712,-32.893422626779575 L101.16893407083741,-33.00708844087846 L101.16280035696288,-33.123833732064504 L101.1515677980175,-33.243377250705564 L101.13526345421961,-33.36543100599445 L101.11392660416155,-33.48970095974404 L101.08760865018397,-33.61588773475098 L101.05637299454318,-33.74368733602161 L101.02029488666956,-33.87279188312257 L100.97946124188502,-34.00289035189165 L100.93397043201647,-34.133669323722316 L100.8839320484094,-34.264813740616546 L100.82946663791277,-34.39600766418714 L100.77070541247106,-34.52693503678099 L100.70778993302325,-34.65728044288963 L100.64087176847008,-34.78672986901284 L100.57011213053127,-34.91497146014465 L100.49568148537244,-35.0416962710594 L100.41775914293714,-35.1665990105878 L100.33653282497349,-35.28937877709015 L100.25219821279603,-35.4097397833547 L100.16495847587235,-35.52739206917499 L100.07502378237001,-35.64205219988934 L99.98261079284298,-35.753443949199834 L99.88794213827745,-35.86129896462561 L99.7912458837543,-35.96535741398752 L99.69275497902024,-36.065368611366615 L99.59270669729155,-36.161091621028454 L99.49134206364212,-36.252295837858426 L99.38890527435292,-36.338761542909644 L99.28564310862174,-36.42028043272512 L99.18180433405051,-36.49665612115909 L99.07763910734239,-36.5677046124884 L98.97339837165231,-36.63325474467432 L98.86933325204296,-36.6931486017069 L98.76569445050252,-36.74724189403847 L98.66273164198157,-36.79540430618977 L98.5606928729043,-36.83751981069143 L98.45982396360299,-36.873486947604206 L98.36036791611521,-36.903219068944935 L98.26256432877067,-36.92664454742906 L98.16664881897786,-36.94370694902711 L98.07285245560111,-36.95436516891913 L97.98140120229534,-36.958593530519856 L97.89251537313999,-36.95638184733582 L97.80640910188293,-36.94773544750555 L97.72328982607368,-36.932675160963555 L97.64335778732804,-36.91123726925926 L97.56680554892856,-36.883473418151496 L97.49381753192273,-36.84945049318942 L97.42456957083651,-36.80925045857933 " />
			<path d="M97.42456957083651,-36.80925045857933 L97.37689867020647,-36.77637118694331 L97.33133284667707,-36.740350803479366 L97.28792955786277,-36.70123472918829 L97.24674353446396,-36.65907228867659 L97.20782671125257,-36.61391664795915 L97.17122816158341,-36.565824747417906 L97.13699403551355,-36.514857230001155 L97.10516750160807,-36.46107836475396 L97.07578869250523,-36.40455596577616 L97.04889465431016,-36.345361306710096 L97.0245192998803,-36.283569030865934 L97.002693366062,-36.21925705709793 L96.98344437493199,-36.15250648155025 L96.96679659909253,-36.08340147539634 L96.95277103106415,-36.01202917870069 L96.94138535681446,-35.93847959053695 L96.93265393345659,-35.862845455500796 L96.92658777114504,-35.78522214676087 L96.92319451919211,-35.705707545795036 L96.92247845642231,-35.62440191896375 L96.92444048577683,-35.541407791076146 L96.92907813317494,-35.456829816108254 L96.93638555063374,-35.37077464523635 L96.9463535236424,-35.283350792351946 L96.95896948278141,-35.19466849722786 L96.97421751957248,-35.10483958650801 L96.99207840653867,-35.01397733269623 L97.01252962145,-34.92219631132182 L97.03554537572347,-34.82961225646205 L97.061096646942,-34.73634191480375 L97.08915121545111,-34.64250289842802 L97.11967370498724,-34.54821353650368 L97.1526256272866,-34.453592726076494 L97.18796543061806,-34.358759782142315 L97.22564855217914,-34.26383428719324 L97.26562747428872,-34.16893594042635 L97.30785178430607,-34.074184406805436 L97.35226823820004,-33.97969916616575 L97.39882082768885,-33.8855993625523 L97.44745085086544,-33.79200365398152 L97.49809698621932,-33.69903006281583 L97.55069536996199,-33.606795826939745 L97.60517967655773,-33.515417251925186 L97.66148120235894,-33.425009564372424 L97.71952895224004,-33.33568676661156 L97.77924972912098,-33.24756149294787 L97.84056822626727,-33.16074486763207 L97.90340712225036,-33.07534636473488 L97.96768717844841,-32.99147367010228 L98.0333273389647,-32.909232545565835 L98.10024483283748,-32.82872669557902 L98.16835527841255,-32.75005763644797 L98.23757278974689,-32.67332456832139 L98.30781008490919,-32.59862425010111 L98.3789785960406,-32.52605087743096 L98.4509885810371,-32.455695963917954 L98.52374923671253,-32.38764822573538 L98.5971688132997,-32.32199346975346 L98.67115473014496,-32.25881448533852 L98.74561369245068,-32.19819093995728 L98.82045180891807,-32.140199278717674 L98.89557471014241,-32.08491262797309 L98.97088766761094,-32.03240070311145 L99.04629571315364,-31.982729720645494 " />
			<path d="M127.36482555543448,-13.874626267679 L127.48009807205297,-13.804309920147974 L127.59503078069456,-13.740988713149214 L127.70928487509089,-13.684849309140308 L127.8225235494377,-13.636057199583224 L127.9344129912534,-13.594756217097594 L128.04462336541354,-13.561068111461363 L128.15282978646084,-13.535092190708728 L128.25871327632404,-13.516905028383293 L128.36196170462262,-13.506560237809529 L128.4622707087854,-13.504088314047825 L128.51123015883556,-13.505807862002376 L128.55934459127096,-13.509496543999152 L128.60657854082677,-13.5151516411017 L128.6528971912442,-13.522768984924227 L128.69826640093353,-13.532342960704117 L128.74265272814034,-13.543866511440596 L128.78602345559509,-13.557331143096455 L128.82834661462934,-13.572726930859034 L128.8695910087399,-13.590042526455811 L128.90972623658377,-13.609265166519265 L128.94872271438715,-13.630380681994763 L128.98655169775162,-13.653373508584608 " />
			<path d="M128.98655169775162,-13.653373508584615 L129.05189277851457,-13.699653807438253 L129.11316956656748,-13.751902877241815 L129.1702344407607,-13.80999484540967 L129.22294992681404,-13.873789763302248 L129.27118902850427,-13.943133943374566 L129.31483553361014,-14.017860329422998 L129.35378429387788,-14.097788899038298 L129.38794147833252,-14.182727097295343 L129.41722479932486,-14.272470300634827 L129.4415637107697,-14.36680230981933 L129.4608995780976,-14.465495870776213 L129.4751858195105,-14.568313222072602 L129.48438801820149,-14.675006667703483 L129.48848400526794,-14.785319173813093 L129.48746391311823,-14.898984987911977 L129.4813301992437,-15.01573027909802 L129.47009764029832,-15.13527379773908 L129.45379329650044,-15.25732755302797 L129.4324564464424,-15.381597506777556 L129.4061384924648,-15.507784281784492 L129.37490283682402,-15.63558388305513 L129.33882472895039,-15.764688430156085 L129.29799108416586,-15.894786898925169 L129.2525002742973,-16.025565870755837 L129.20246189069022,-16.156710287650064 L129.1479964801936,-16.287904211220656 L129.08923525475188,-16.418831583814505 L129.02631977530407,-16.549176989923147 L128.9594016107509,-16.678626416046356 L128.88864197281208,-16.80686800717817 L128.81421132765325,-16.933592818092915 L128.73628898521798,-17.05849555762132 L128.6550626672543,-17.18127532412367 L128.57072805507687,-17.30163633038822 L128.48348831815318,-17.419288616208508 L128.39355362465082,-17.53394874692286 L128.3011406351238,-17.645340496233352 L128.2064719805583,-17.753195511659126 L128.1097757260351,-17.857253961021037 L128.01128482130105,-17.957265158400133 L127.91123653957237,-18.052988168061976 L127.80987190592295,-18.144192384891948 L127.70743511663375,-18.23065808994316 L127.60417295090257,-18.31217697975864 L127.50033417633134,-18.388552668192613 L127.39616894962322,-18.45960115952192 L127.29192821393313,-18.52515129170784 L127.18786309432379,-18.585045148740416 L127.08422429278335,-18.63913844107198 L126.98126148426239,-18.687300853223295 L126.87922271518512,-18.72941635772495 L126.77835380588381,-18.765383494637728 L126.67889775839603,-18.795115615978453 L126.58109417105149,-18.818541094462585 L126.48517866125869,-18.83560349606063 L126.39138229788193,-18.84626171595265 L126.29993104457617,-18.85049007755337 L126.21104521542081,-18.84827839436934 L126.12493894416376,-18.839631994539065 L126.0418196683545,-18.824571707997077 L125.96188762960887,-18.803133816292775 L125.88533539120938,-18.775369965185014 L125.81234737420355,-18.74134704022294 L125.74309941311733,-18.70114700561285 " />
			<path d="M125.74309941311733,-18.701147005612846 L125.6954285124873,-18.668267733976823 L125.6498626889579,-18.632247350512884 L125.60645940014359,-18.593131276221808 L125.56527337674478,-18.55096883571011 L125.52635655353339,-18.505813194992665 L125.48975800386424,-18.457721294451424 L125.45552387779438,-18.40675377703467 L125.42369734388889,-18.352974911787477 L125.39431853478605,-18.29645251280968 L125.36742449659098,-18.237257853743614 L125.34304914216112,-18.175465577899452 L125.32122320834283,-18.111153604131445 L125.30197421721282,-18.04440302858377 L125.28532644137336,-17.975298022429858 L125.27130087334497,-17.90392572573421 L125.25991519909529,-17.830376137570465 L125.25118377573742,-17.754742002534314 L125.24511761342586,-17.677118693794387 L125.24172436147293,-17.597604092828554 L125.24100829870314,-17.51629846599727 L125.24297032805765,-17.433304338109668 L125.24760797545576,-17.348726363141772 L125.25491539291457,-17.26267119226987 L125.26488336592323,-17.175247339385464 L125.27749932506224,-17.086565044261377 L125.2927473618533,-16.99673613354153 L125.31060824881949,-16.905873879729747 L125.33105946373081,-16.814092858355334 L125.3540752180043,-16.721508803495563 L125.37962648922283,-16.62823846183727 L125.40768105773193,-16.534399445461542 L125.43820354726806,-16.440110083537196 L125.47115546956742,-16.345489273110008 L125.50649527289889,-16.250656329175836 L125.54417839445996,-16.155730834226755 L125.58415731656955,-16.060832487459873 L125.62638162658689,-15.966080953838954 L125.67079808048086,-15.871595713199268 L125.71735066996968,-15.777495909585815 L125.76598069314626,-15.683900201015032 L125.81662682850015,-15.590926609849344 L125.86922521224281,-15.498692373973263 L125.92370951883855,-15.407313798958706 L125.98001104463977,-15.316906111405938 L126.03805879452086,-15.227583313645079 L126.0977795714018,-15.139458039981385 L126.15909806854809,-15.05264141466559 L126.22193696453118,-14.967242911768396 L126.28621702072924,-14.883370217135802 L126.35185718124552,-14.801129092599352 L126.4187746751183,-14.720623242612536 L126.48688512069337,-14.641954183481488 L126.55610263202772,-14.565221115354912 L126.62633992719002,-14.490520797134627 L126.69750843832142,-14.41794742446448 L126.76951842331792,-14.347592510951472 L126.84227907899336,-14.2795447727689 L126.91569865558053,-14.213890016786973 L126.98968457242579,-14.150711032372037 L127.0641435347315,-14.090087486990798 L127.13898165119889,-14.032095825751192 L127.21410455242324,-13.976809175006608 L127.28941750989176,-13.924297250144967 L127.36482555543446,-13.874626267679012 " />
			<path d="M198.16115016113653,-16.95968141307714 L144.277136785756,17.66354928270087 " />
			<path d="M-197.81835648699052,-16.65206054482256 L-143.93434311160996,17.80372844199138 " />
			<path d="M-197.81835648699052,52.42695913776942 L-197.81835648699052,-16.65206054482252 " />
			<path d="M-0.06855873482921826,-143.71640558384254 L-197.81835648699052,-16.65206054482252 " />
			<path d="M63.63099372659533,-44.49428064441959 L56.568500949732424,-39.95626832159744 " />
			<path d="M106.10878849001655,-23.472482770089144 L94.25660563534204,-15.856849940975621 " />
			<path d="M79.41198479005287,-54.407592737339726 L72.34949201318997,-49.869580414517586 " />
			<path d="M76.1685325054186,-59.45536623436794 L69.1060397285557,-54.9173539115458 " />
			<path d="M107.7305146323337,-36.29948928437324 L100.6680218554708,-31.761476961551097 " />
			<path d="M104.4870623476994,-41.34726278140147 L97.42456957083651,-36.80925045857933 " />
			<path d="M136.04904447461453,-18.191385831406766 L128.98655169775162,-13.653373508584622 " />
			<path d="M132.80559218998022,-23.239159328434983 L125.74309941311732,-18.70114700561284 " />

        </g>

        <!-- solid lines -->
        <g  stroke="rgb(0,0,0)" fill="none">
    			<path d="M0.428492092682518,188.24872149459856 L-211.96048172442363,52.43794559734991 " />
			<path d="M-211.96048172442357,-24.316520716641108 L-211.96048172442357,52.43794559734994 " />
			<path d="M212.3032753985696,52.10835180993428 L0.42849209268248956,188.24872149459858 " />
			<path d="M212.3032753985696,-24.64611450405677 L212.3032753985696,52.10835180993428 " />
			<path d="M212.3032753985696,52.10835180993428 L148.58658325343777,11.36511904075968 " />
			<path d="M141.5240904765749,15.903131363581824 L148.58658325343782,11.365119040759682 " />
			<path d="M198.16115016113653,52.119338269514785 L141.52409047657488,15.903131363581807 " />
			<path d="M198.16115016113653,52.1193382695148 L0.4113524089752332,179.18368330853482 " />
			<path d="M0.4113524089752092,179.18368330853482 L-197.81835648699052,52.426959137769416 " />
			<path d="M-0.06855873482921826,-74.63738590125058 L-197.81835648699052,52.426959137769444 " />
			<path d="M56.568500949732396,-38.421178995317646 L-0.06855873482922448,-74.63738590125062 " />
			<path d="M56.568500949732424,-38.42117899531763 L63.63099372659532,-42.95919131813977 " />
			<path d="M63.63099372659528,-42.95919131813977 L-0.0856984185365377,-83.70242408731437 " />
			<path d="M-0.08569841853650928,-83.70242408731434 L-211.96048172442363,52.437945597349966 " />
			<path d="M-0.08569841853650928,-160.45689040130537 L-211.96048172442363,-24.316520716641065 " />
			<path d="M-0.08569841853650928,-160.45689040130537 L-0.08569841853650928,-83.70242408731433 " />
			<path d="M212.3032753985696,-24.64611450405677 L-0.0856984185365377,-160.45689040130543 " />
			<path d="M148.58658325343777,9.830029714479878 L148.58658325343777,11.365119040759694 " />
			<path d="M63.630993726595335,-44.49428064441958 L148.5865832534378,9.83002971447987 " />
			<path d="M63.63099372659532,-44.494280644419575 L63.63099372659532,-42.95919131813976 " />
			<path d="M77.79025864773574,-54.62884549643409 L77.90553116435423,-54.55852914890306 L78.02046387299582,-54.495207941904305 L78.13471796739215,-54.4390685378954 L78.24795664173897,-54.39027642833832 L78.35984608355466,-54.34897544585269 L78.4700564577148,-54.31528734021646 L78.5782628787621,-54.289311419463814 L78.6841463686253,-54.27112425713838 L78.78739479692388,-54.26077946656462 L78.88770380108669,-54.25830754280292 L78.9366632511368,-54.26002709075747 L78.98477768357223,-54.26371577275424 L79.03201163312805,-54.269370869856786 L79.07833028354544,-54.27698821367932 L79.12369949323481,-54.286562189459204 L79.1680858204416,-54.29808574019569 L79.21145654789635,-54.311550371851546 L79.2537797069306,-54.326946159614124 L79.29502410104115,-54.3442617552109 L79.33515932888503,-54.363484395274355 L79.3741558066884,-54.384599910749856 L79.41198479005287,-54.4075927373397 " />
			<path d="M79.41198479005288,-54.407592737339705 L79.47732587081583,-54.45387303619334 L79.53860265886873,-54.50612210599691 L79.59566753306197,-54.56421407416476 L79.64838301911531,-54.62800899205734 L79.69662212080553,-54.69735317212965 L79.74026862591141,-54.77207955817809 L79.77921738617916,-54.85200812779339 L79.81337457063378,-54.93694632605043 L79.84265789162612,-55.02668952938992 L79.86699680307099,-55.12102153857442 L79.88633267039887,-55.21971509953131 L79.90061891181176,-55.322532450827694 L79.90982111050276,-55.429225896458576 L79.9139170975692,-55.53953840256818 L79.9128970054195,-55.65320421666706 L79.90676329154496,-55.76994950785311 L79.89553073259958,-55.88949302649417 L79.8792263888017,-56.01154678178306 L79.85788953874363,-56.13581673553265 L79.83157158476605,-56.262003510539586 L79.80033592912527,-56.38980311181022 L79.76425782125165,-56.518907658911175 L79.7234241764671,-56.64900612768026 L79.67793336659855,-56.779785099510924 L79.62789498299149,-56.910929516405155 L79.57342957249486,-57.04212343997575 L79.51466834705315,-57.1730508125696 L79.45175286760534,-57.30339621867824 L79.38483470305216,-57.432845644801446 L79.31407506511336,-57.56108723593326 L79.23964441995453,-57.68781204684801 L79.16172207751923,-57.81271478637641 L79.08049575955557,-57.93549455287876 L78.99616114737812,-58.05585555914331 L78.90892141045444,-58.173507844963595 L78.8189867169521,-58.28816797567795 L78.72657372742506,-58.39955972498844 L78.63190507285954,-58.50741474041422 L78.53520881833639,-58.61147318977613 L78.43671791360232,-58.711484387155224 L78.33666963187363,-58.80720739681706 L78.23530499822421,-58.898411613647035 L78.13286820893501,-58.98487731869825 L78.02960604320383,-59.06639620851373 L77.9257672686326,-59.1427718969477 L77.82160204192448,-59.213820388277014 L77.7173613062344,-59.279370520462926 L77.61329618662505,-59.33926437749551 L77.50965738508461,-59.393357669827076 L77.40669457656365,-59.44152008197838 L77.30465580748638,-59.48363558648004 L77.20378689818507,-59.51960272339282 L77.1043308506973,-59.54933484473354 L77.00652726335275,-59.57276032321767 L76.91061175355995,-59.58982272481572 L76.8168153901832,-59.60048094470774 L76.72536413687743,-59.604709306308465 L76.63647830772207,-59.60249762312443 L76.55037203646502,-59.59385122329416 L76.46725276065577,-59.57879093675216 L76.38732072191013,-59.55735304504786 L76.31076848351064,-59.529589193940105 L76.23778046650482,-59.49556626897803 L76.1685325054186,-59.45536623436794 " />
			<path d="M76.1685325054186,-59.455366234367936 L76.12086160478856,-59.42248696273191 L76.07529578125916,-59.386466579267974 L76.03189249244485,-59.3473505049769 L75.99070646904605,-59.3051880644652 L75.95178964583465,-59.26003242374776 L75.9151910961655,-59.211940523206515 L75.88095697009564,-59.160973005789764 L75.84913043619015,-59.10719414054257 L75.81975162708731,-59.05067174156477 L75.79285758889225,-58.991477082498704 L75.76848223446238,-58.92968480665454 L75.74665630064409,-58.865372832886536 L75.72740730951408,-58.79862225733886 L75.71075953367462,-58.72951725118495 L75.69673396564623,-58.6581449544893 L75.68534829139655,-58.58459536632556 L75.67661686803868,-58.508961231289405 L75.67055070572712,-58.43133792254948 L75.6671574537742,-58.351823321583645 L75.6664413910044,-58.27051769475236 L75.66840342035891,-58.187523566864755 L75.67304106775703,-58.10294559189686 L75.68034848521583,-58.01689042102496 L75.69031645822449,-57.929466568140555 L75.7029324173635,-57.84078427301647 L75.71818045415456,-57.750955362296615 L75.73604134112075,-57.66009310848484 L75.75649255603207,-57.56831208711043 L75.77950831030556,-57.47572803225066 L75.80505958152409,-57.38245769059236 L75.8331141500332,-57.28861867421663 L75.86363663956932,-57.19432931229229 L75.89658856186868,-57.0997085018651 L75.93192836520015,-57.00487555793092 L75.96961148676122,-56.90995006298185 L76.0095904088708,-56.81505171621496 L76.05181471888815,-56.720300182594045 L76.09623117278213,-56.62581494195436 L76.14278376227094,-56.53171513834091 L76.19141378544752,-56.438119429770126 L76.24205992080141,-56.34514583860444 L76.29465830454407,-56.252911602728354 L76.34914261113981,-56.161533027713794 L76.40544413694103,-56.07112534016103 L76.46349188682213,-55.98180254240017 L76.52321266370306,-55.893677268736475 L76.58453116084935,-55.80686064342068 L76.64737005683244,-55.721462140523485 L76.7116501130305,-55.63758944589089 L76.77729027354678,-55.555348321354444 L76.84420776741956,-55.47484247136762 L76.91231821299463,-55.39617341223658 L76.98153572432898,-55.319440344110006 L77.05177301949128,-55.24474002588972 L77.12294153062268,-55.17216665321957 L77.19495151561918,-55.10181173970656 L77.26771217129462,-55.03376400152399 L77.34113174788179,-54.96810924554207 L77.41511766472705,-54.90493026112713 L77.48957662703276,-54.84430671574589 L77.56441474350015,-54.78631505450628 L77.6395376447245,-54.7310284037617 L77.71485060219302,-54.67851647890006 L77.79025864773573,-54.6288454964341 " />
			<path d="M106.10878849001655,-36.520742043467614 L106.22406100663504,-36.45042569593659 L106.33899371527663,-36.38710448893783 L106.45324780967296,-36.33096508492893 L106.56648648401978,-36.28217297537184 L106.67837592583547,-36.24087199288621 L106.78858629999561,-36.20718388724998 L106.89679272104291,-36.18120796649734 L107.00267621090612,-36.16302080417191 L107.10592463920469,-36.152676013598146 L107.2062336433675,-36.15020408983644 L107.25519309341762,-36.15192363779099 L107.30330752585304,-36.155612319787764 L107.35054147540886,-36.16126741689031 L107.39686012582625,-36.16888476071284 L107.44222933551562,-36.17845873649273 L107.48661566272241,-36.18998228722921 L107.52998639017716,-36.20344691888507 L107.57230954921141,-36.21884270664765 L107.61355394332196,-36.23615830224443 L107.65368917116584,-36.25538094230788 L107.69268564896922,-36.27649645778338 L107.73051463233368,-36.29948928437322 " />
			<path d="M107.7305146323337,-36.29948928437323 L107.79585571309664,-36.34576958322687 L107.85713250114954,-36.398018653030434 L107.91419737534278,-36.456110621198285 L107.96691286139612,-36.519905539090864 L108.01515196308634,-36.58924971916318 L108.05879846819222,-36.66397610521162 L108.09774722845997,-36.743904674826915 L108.1319044129146,-36.82884287308396 L108.16118773390693,-36.918586076423445 L108.1855266453518,-37.01291808560794 L108.20486251267968,-37.11161164656483 L108.21914875409257,-37.21442899786122 L108.22835095278357,-37.3211224434921 L108.23244693985,-37.43143494960171 L108.2314268477003,-37.54510076370059 L108.22529313382577,-37.66184605488664 L108.21406057488039,-37.7813895735277 L108.19775623108251,-37.903443328816586 L108.17641938102444,-38.027713282566175 L108.15010142704686,-38.15390005757311 L108.11886577140608,-38.28169965884374 L108.08278766353246,-38.4108042059447 L108.04195401874792,-38.540902674713784 L107.99646320887936,-38.67168164654445 L107.9464248252723,-38.80282606343868 L107.89195941477567,-38.93401998700927 L107.83319818933396,-39.064947359603124 L107.77028270988615,-39.19529276571176 L107.70336454533297,-39.32474219183497 L107.63260490739417,-39.45298378296678 L107.55817426223534,-39.579708593881534 L107.48025191980004,-39.704611333409936 L107.39902560183639,-39.82739109991228 L107.31469098965893,-39.947752106176836 L107.22745125273525,-40.06540439199712 L107.1375165592329,-40.180064522711476 L107.04510356970587,-40.29145627202197 L106.95043491514035,-40.399311287447745 L106.8537386606172,-40.50336973680965 L106.75524775588313,-40.60338093418875 L106.65519947415444,-40.69910394385059 L106.55383484050502,-40.79030816068056 L106.45139805121582,-40.87677386573178 L106.34813588548464,-40.958292755547255 L106.24429711091341,-41.034668443981225 L106.14013188420529,-41.10571693531054 L106.0358911485152,-41.17126706749645 L105.93182602890586,-41.231160924529036 L105.82818722736542,-41.2852542168606 L105.72522441884446,-41.33341662901191 L105.6231856497672,-41.375532133513566 L105.52231674046588,-41.41149927042635 L105.4228606929781,-41.44123139176707 L105.32505710563356,-41.4646568702512 L105.22914159584076,-41.481719271849244 L105.135345232464,-41.492377491741266 L105.04389397915824,-41.49660585334199 L104.95500815000288,-41.49439417015795 L104.86890187874583,-41.485747770327684 L104.78578260293658,-41.47068748378569 L104.70585056419094,-41.44924959208139 L104.62929832579145,-41.42148574097363 L104.55631030878563,-41.387462816011556 L104.4870623476994,-41.34726278140147 " />
			<path d="M104.4870623476994,-41.34726278140146 L104.43939144706937,-41.314383509765435 L104.39382562353997,-41.2783631263015 L104.35042233472566,-41.23924705201043 L104.30923631132686,-41.197084611498724 L104.27031948811546,-41.151928970781285 L104.23372093844631,-41.10383707024004 L104.19948681237645,-41.05286955282329 L104.16766027847096,-40.99909068757609 L104.13828146936812,-40.942568288598295 L104.11138743117306,-40.88337362953223 L104.08701207674319,-40.82158135368807 L104.0651861429249,-40.75726937992006 L104.04593715179489,-40.69051880437239 L104.02928937595543,-40.62141379821848 L104.01526380792704,-40.55004150152283 L104.00387813367736,-40.476491913359084 L103.99514671031949,-40.40085777832293 L103.98908054800793,-40.32323446958301 L103.985687296055,-40.24371986861717 L103.98497123328521,-40.16241424178588 L103.98693326263972,-40.07942011389828 L103.99157091003784,-39.99484213893039 L103.99887832749664,-39.908786968058486 L104.0088463005053,-39.82136311517408 L104.02146225964431,-39.73268082004999 L104.03671029643537,-39.64285190933014 L104.05457118340156,-39.55198965551836 L104.07502239831288,-39.46020863414395 L104.09803815258637,-39.36762457928418 L104.1235894238049,-39.274354237625886 L104.151643992314,-39.180515221250154 L104.18216648185013,-39.086225859325815 L104.2151184041495,-38.99160504889863 L104.25045820748096,-38.89677210496445 L104.28814132904203,-38.801846610015374 L104.32812025115162,-38.706948263248485 L104.37034456116896,-38.61219672962757 L104.41476101506294,-38.517711488987885 L104.46131360455175,-38.42361168537443 L104.50994362772833,-38.33001597680365 L104.56058976308222,-38.23704238563796 L104.61318814682488,-38.14480814976188 L104.66767245342062,-38.05342957474732 L104.72397397922184,-37.96302188719456 L104.78202172910294,-37.87369908943369 L104.84174250598387,-37.78557381577 L104.90306100313016,-37.6987571904542 L104.96589989911325,-37.61335868755701 L105.03017995531131,-37.529485992924414 L105.09582011582759,-37.44724486838797 L105.16273760970037,-37.36673901840115 L105.23084805527544,-37.2880699592701 L105.30006556660979,-37.21133689114353 L105.37030286177209,-37.136636572923244 L105.4414713729035,-37.064063200253095 L105.51348135789999,-36.99370828674009 L105.58624201357543,-36.92566054855752 L105.6596615901626,-36.86000579257559 L105.73364750700786,-36.79682680816065 L105.80810646931357,-36.73620326277941 L105.88294458578096,-36.67821160153981 L105.95806748700531,-36.62292495079522 L106.03338044447383,-36.57041302593358 L106.10878849001654,-36.52074204346763 " />
			<path d="M134.42731833229738,-18.412638590501132 L134.54259084891586,-18.34232224297011 L134.65752355755745,-18.279001035971348 L134.77177765195378,-18.22286163196244 L134.88501632630062,-18.174069522405357 L134.99690576811628,-18.132768539919727 L135.10711614227642,-18.099080434283497 L135.21532256332375,-18.07310451353086 L135.32120605318696,-18.054917351205425 L135.4244544814855,-18.04457256063166 L135.52476348564832,-18.04210063686996 L135.57372293569844,-18.04382018482451 L135.62183736813387,-18.047508866821286 L135.66907131768968,-18.053163963923833 L135.71538996810708,-18.06078130774636 L135.76075917779644,-18.07035528352625 L135.80514550500322,-18.08187883426273 L135.848516232458,-18.09534346591859 L135.89083939149225,-18.110739253681167 L135.9320837856028,-18.128054849277945 L135.97221901344668,-18.1472774893414 L136.01121549125006,-18.1683930048169 L136.0490444746145,-18.19138583140674 " />
			<path d="M136.04904447461453,-18.19138583140675 L136.11438555537745,-18.237666130260386 L136.17566234343036,-18.289915200063948 L136.2327272176236,-18.348007168231806 L136.28544270367695,-18.411802086124382 L136.33368180536718,-18.4811462661967 L136.37732831047305,-18.55587265224513 L136.4162770707408,-18.63580122186043 L136.4504342551954,-18.72073942011748 L136.47971757618777,-18.810482623456963 L136.50405648763262,-18.90481463264146 L136.5233923549605,-19.003508193598346 L136.53767859637338,-19.106325544894734 L136.5468807950644,-19.213018990525615 L136.55097678213085,-19.323331496635227 L136.54995668998112,-19.43699731073411 L136.54382297610658,-19.553742601920156 L136.5325904171612,-19.673286120561215 L136.51628607336335,-19.795339875850104 L136.49494922330527,-19.91960982959969 L136.4686312693277,-20.045796604606625 L136.4373956136869,-20.173596205877264 L136.40131750581327,-20.302700752978218 L136.36048386102874,-20.432799221747302 L136.3149930511602,-20.56357819357797 L136.26495466755313,-20.694722610472198 L136.21048925705648,-20.82591653404279 L136.1517280316148,-20.95684390663664 L136.08881255216698,-21.08718931274528 L136.0218943876138,-21.21663873886849 L135.951134749675,-21.344880330000304 L135.87670410451616,-21.47160514091505 L135.79878176208086,-21.596507880443454 L135.7175554441172,-21.719287646945805 L135.63322083193975,-21.839648653210354 L135.5459810950161,-21.95730093903064 L135.45604640151373,-22.071961069744994 L135.36363341198668,-22.183352819055486 L135.26896475742117,-22.29120783448126 L135.17226850289802,-22.39526628384317 L135.07377759816396,-22.495277481222267 L134.97372931643528,-22.59100049088411 L134.87236468278584,-22.68220470771408 L134.76992789349663,-22.768670412765292 L134.66666572776546,-22.850189302580773 L134.56282695319422,-22.926564991014747 L134.4586617264861,-22.997613482344054 L134.35442099079603,-23.063163614529973 L134.25035587118668,-23.12305747156255 L134.14671706964623,-23.177150763894115 L134.0437542611253,-23.22531317604543 L133.94171549204802,-23.267428680547084 L133.8408465827467,-23.30339581745986 L133.74139053525892,-23.333127938800587 L133.6435869479144,-23.35655341728472 L133.5476714381216,-23.373615818882765 L133.45387507474481,-23.384274038774784 L133.36242382143905,-23.388502400375504 L133.2735379922837,-23.386290717191475 L133.18743172102666,-23.3776443173612 L133.1043124452174,-23.36258403081921 L133.02438040647175,-23.341146139114908 L132.94782816807228,-23.313382288007148 L132.87484015106645,-23.279359363045074 L132.80559218998025,-23.239159328434983 " />
			<path d="M132.80559218998022,-23.23915932843498 L132.7579212893502,-23.206280056798956 L132.7123554658208,-23.170259673335018 L132.6689521770065,-23.13114359904394 L132.62776615360767,-23.088981158532242 L132.5888493303963,-23.0438255178148 L132.55225078072712,-22.995733617273558 L132.5180166546573,-22.944766099856803 L132.4861901207518,-22.89098723460961 L132.45681131164895,-22.834464835631813 L132.42991727345387,-22.775270176565748 L132.40554191902402,-22.713477900721585 L132.38371598520573,-22.64916592695358 L132.3644669940757,-22.582415351405903 L132.34781921823625,-22.51331034525199 L132.33379365020787,-22.441938048556345 L132.32240797595819,-22.368388460392598 L132.31367655260033,-22.292754325356448 L132.30761039028874,-22.21513101661652 L132.30421713833582,-22.135616415650688 L132.30350107556603,-22.054310788819404 L132.30546310492056,-21.9713166609318 L132.31010075231865,-21.886738685963905 L132.31740816977745,-21.800683515092004 L132.3273761427861,-21.713259662207598 L132.33999210192513,-21.62457736708351 L132.3552401387162,-21.534748456363662 L132.3731010256824,-21.44388620255188 L132.39355224059372,-21.352105181177468 L132.4165679948672,-21.259521126317697 L132.44211926608574,-21.166250784659404 L132.47017383459482,-21.072411768283676 L132.50069632413096,-20.97812240635933 L132.53364824643032,-20.88350159593214 L132.56898804976177,-20.78866865199797 L132.60667117132286,-20.69374315704889 L132.64665009343244,-20.598844810282007 L132.6888744034498,-20.504093276661088 L132.73329085734375,-20.4096080360214 L132.7798434468326,-20.315508232407947 L132.82847347000916,-20.221912523837165 L132.87911960536306,-20.128938932671478 L132.93171798910572,-20.036704696795397 L132.98620229570145,-19.94532612178084 L133.04250382150266,-19.854918434228072 L133.10055157138376,-19.76559563646721 L133.1602723482647,-19.67747036280352 L133.221590845411,-19.590653737487724 L133.28442974139406,-19.50525523459053 L133.34870979759214,-19.421382539957936 L133.41434995810843,-19.339141415421487 L133.48126745198118,-19.25863556543467 L133.54937789755627,-19.17996650630362 L133.61859540889063,-19.103233438177046 L133.6888327040529,-19.028533119956762 L133.76000121518433,-18.955959747286613 L133.83201120018083,-18.885604833773606 L133.90477185585627,-18.817557095591035 L133.97819143244342,-18.751902339609106 L134.05217734928868,-18.68872335519417 L134.12663631159438,-18.62809980981293 L134.2014744280618,-18.570108148573325 L134.27659732928615,-18.51482149782874 L134.35191028675465,-18.4623095729671 L134.42731833229735,-18.412638590501146 " />
			<path d="M148.5865832534378,9.830029714479867 L141.52409047657488,14.368042037302011 " />
			<path d="M141.52409047657488,14.368042037302004 L141.52409047657488,15.903131363581824 " />
			<path d="M141.52409047657488,14.368042037302004 L57.765923469185324,-39.190584121890474 " />
			<path d="M0.41135240897521896,110.10466362594286 L0.41135240897521896,179.1836833085348 " />
			<path d="M144.277136785756,17.66354928270087 L0.4113524089752332,110.10466362594289 " />
			<path d="M-143.93434311160996,17.80372844199138 L0.4113524089752092,110.10466362594285 " />
			<path d="M106.10878849001655,-23.472482770089144 L106.10878849001654,4.407930740584504 " />
			<path d="M106.10878849001655,-23.472482770089144 L131.82495720087965,-7.028442559534803 " />
			<path d="M94.25660563534204,-15.856849940975621 L80.45487823682376,-6.988535170319153 " />
			<path d="M106.10878849001655,4.407930740584504 L106.11003108239709,4.337467232450994 L106.11370653985954,4.271197016753269 L106.1197363828851,4.2089848259934 L106.12804213195503,4.150695392673459 L106.13854530755053,4.096193449295518 L106.15116743015285,4.045343728361647 L106.16583002024323,3.998010962373919 L106.18245459830288,3.9540598838344048 L106.20096268481302,3.9133552252451755 L106.2212758002549,3.875761719108303 L106.24331546510975,3.8411440979258584 L106.26700319985878,3.8093670941999136 L106.29226052498322,3.78029544043254 L106.31900896096431,3.7537938691258086 L106.34717002828329,3.729727112781791 L106.37666524742137,3.707959903902559 L106.40741613885979,3.6883569749901834 L106.43934422307977,3.6707830585467365 L106.47237102056253,3.6551028870742894 L106.50641805178934,3.6411811930749134 L106.5772588973999,3.618072167503661 L106.65123892376131,3.6003738418495503 L106.7277302947234,3.587004076129154 L106.80610517413598,3.5768807303590426 L106.96599411371199,3.5620447387359633 " />
			<path d="M106.10878849001655,4.407930740584504 L106.10754589763602,4.33587809689191 L106.10387044017357,4.264907385487839 L106.09784059714801,4.194983705330728 L106.08953484807807,4.12607215537901 L106.07903167248257,4.05813783459112 L106.06640954988023,3.9911458419254946 L106.05174695978987,3.925061276340567 L106.03512238173022,3.859849236794771 L105.9963011797782,3.7319031316543168 L105.95057378017432,3.6070283181716096 L105.89856801906878,3.484945588014127 L105.84091173261173,3.365375732849346 L105.77823275695333,3.2480395443447447 L105.71115892824376,3.1326578141678003 L105.64031808263319,3.018951333985991 L105.56633805627177,2.9066408954667944 L105.4898466853097,2.7954472902776875 L105.41147180589712,2.6850913100861478 L105.25158286632112,2.4657753913656855 " />
			<path d="M131.82495720087968,-7.02844255953481 L131.759230603909,-7.0718181807412455 L131.69593687202024,-7.116275734236205 L131.63499752569462,-7.161780318978124 L131.57633408541332,-7.2082970339254375 L131.51986807165764,-7.255790978036579 L131.46552100490874,-7.304227250269984 L131.36286979435636,-7.403787174937323 L131.26775261760596,-7.50669759959493 L131.17954163850743,-7.612679315910285 L131.09760902091057,-7.721453115550864 L131.0213269286652,-7.832739790184146 L130.95006752562117,-7.946260131477607 L130.88320297562834,-8.061734931098727 L130.8201054425365,-8.17888498071498 L130.7601470901955,-8.297431071993845 L130.70270008245515,-8.417093996602802 L130.64713658316532,-8.537594546209325 L130.5391487653365,-8.779991687084983 " />
			<path d="M131.82495720087968,-7.02844255953481 L131.759230603909,-7.069123845532593 L131.69593687202024,-7.10561183909459 L131.63499752569462,-7.138041807718731 L131.57633408541332,-7.166549018902944 L131.51986807165764,-7.191268740145158 L131.46552100490874,-7.2123362389433 L131.41321440564792,-7.229886782795301 L131.36286979435636,-7.244055639199087 L131.3144086915153,-7.254978075652589 L131.26775261760596,-7.262789359653733 L131.2228230931096,-7.26762475870045 L131.17954163850743,-7.269619540290666 L131.13782977428068,-7.268908971922312 L131.09760902091057,-7.265628321093315 L131.05880089887833,-7.259912855301605 L131.0213269286652,-7.251897842045109 L130.9851086307524,-7.241718548821756 L130.95006752562117,-7.229510243129475 L130.91612513375276,-7.215408192466194 L130.88320297562834,-7.199547664329843 L130.8201054425365,-7.16309224562964 L130.7601470901955,-7.121226127012296 L130.70270008245515,-7.075031448461238 L130.64713658316532,-7.025590349959895 L130.5391487653365,-6.92129745304007 " />
			<path d="M80.45487823682376,-6.988535170319153 L80.52168830307225,-7.029871053329428 L80.58850425925051,-7.06809180077415 L80.6553259153608,-7.103297900897371 L80.72215308140541,-7.1355898419431405 L80.78898556738658,-7.165068112155508 L80.85582318330658,-7.191833199778524 L80.92266573916768,-7.215985593056239 L80.98951304497214,-7.237625780232701 L81.05636491072224,-7.256854249551963 L81.12322114642024,-7.273771489258073 L81.19008156206839,-7.288477987595082 L81.25694596766897,-7.301074232807039 L81.39068598873648,-7.320337916832001 L81.52443968964087,-7.332366447285358 L81.65820555040027,-7.337963730119511 L81.79198205103282,-7.33793367128686 L81.92576767155661,-7.333080176739807 L82.0595608919898,-7.324207152430751 L82.1933601923505,-7.312118504312092 L82.32716405265681,-7.297618138336233 L82.59477937317884,-7.26459787662251 " />
			<path d="M80.45487823682376,-6.988535170319153 L80.51920311831117,-7.031460188888512 L80.57866815956454,-7.074381432039581 L80.6334301296237,-7.1172990215600445 L80.68364579752846,-7.16021307923759 L80.7294719323186,-7.203123726859905 L80.77106530303395,-7.246031086214677 L80.80858267871432,-7.288935279089591 L80.84218082839949,-7.331836427272335 L80.8720165211293,-7.374734652550596 L80.89824652594352,-7.417630076712059 L80.921027611882,-7.460522821544413 L80.94051654798452,-7.503413008835344 L80.9568701032909,-7.546300760372539 L80.97024504684093,-7.589186197943683 L80.98079814767443,-7.632069443336466 L80.98868617483122,-7.674950618338572 L80.99406589735108,-7.71782984473769 L80.99709408427383,-7.760707244321505 L80.99792750463928,-7.803582938877706 L80.99672292748724,-7.846457050193977 L80.9888268567899,-7.932201010257481 L80.97466002450025,-8.017940098813513 L80.9554765829368,-8.103675290163567 L80.93253068441794,-8.189407558609137 L80.88036812578797,-8.360867223992802 " />
			<path d="M108.45217645658111,10.19300882025675 L106.16986648349202,7.018959358491343 " />
			<path d="M106.16986648349202,7.018959358491358 L103.76540052345197,7.2797119803209815 " />
			<path d="M103.76540052345197,7.279711980320982 L103.76540052345197,6.478150091889115 " />
			<path d="M103.76540052345197,6.4781500918891055 L105.7198335310519,6.340867403484937 " />
			<path d="M105.7198335310519,6.34086740348495 L103.76540052345197,3.697096995510301 " />
			<path d="M103.76540052345199,3.6970969955103072 L103.76540052345199,2.909466238178337 " />
			<path d="M103.76540052345199,2.909466238178325 L106.16986648349202,6.245282421397883 " />
			<path d="M106.16986648349202,6.245282421397874 L108.45217645658111,6.017912359205657 " />
			<path d="M108.45217645658111,6.017912359205667 L108.45217645658111,6.805543116537637 " />
			<path d="M108.45217645658111,6.805543116537635 L106.61347457932874,6.933197173890389 " />
			<path d="M106.61347457932874,6.9331971738903775 L108.45217645658111,9.419331883163277 " />
			<path d="M108.45217645658111,9.41933188316328 L108.45217645658111,10.193008820256754 " />
			<path d="M135.99098490318812,-6.905107642621331 L134.22942316091965,-4.943762201520594 " />
			<path d="M134.22942316091968,-4.9437622015205775 L134.22942316091968,-2.9503171733351317 " />
			<path d="M134.22942316091968,-2.9503171733351437 L133.63151386724346,-3.3326464611082045 " />
			<path d="M133.63151386724343,-3.3326464611082045 L133.63151386724343,-5.326091489293651 " />
			<path d="M133.63151386724343,-5.326091489293638 L131.82495720087962,-9.569047509608792 " />
			<path d="M131.82495720087968,-9.569047509608808 L132.564297051317,-9.096281353555371 " />
			<path d="M132.56429705131694,-9.09628135355537 L133.94011626292246,-5.742135826779588 " />
			<path d="M133.94011626292246,-5.742135826779574 L135.27734447916433,-7.361440464219544 " />
			<path d="M135.27734447916436,-7.361440464219555 L135.99098490318815,-6.905107642621327 " />
			<path d="M74.17541126554683,-5.010024692582547 L77.55065840884761,-2.85174441494729 " />
			<path d="M77.55065840884761,-2.851744414947291 L78.08939469960578,-3.19790999747664 " />
			<path d="M78.08939469960579,-3.1979099974766427 L78.8971117868435,-7.310442076718399 " />
			<path d="M78.8971117868435,-7.310442076718395 L81.71304063183167,-5.509814320785022 " />
			<path d="M81.71304063183167,-5.5098143207850185 L82.23893744113988,-5.847729880711944 " />
			<path d="M82.23893744113988,-5.847729880711945 L80.45487823682376,-6.988535170319153 " />
			<path d="M80.45487823682376,-6.988535170319153 L78.67081903250762,-8.129340459926361 " />
			<path d="M78.67081903250764,-8.129340459926361 L78.14492222319943,-7.791424899999435 " />
			<path d="M78.14492222319943,-7.791424899999434 L77.33723624492413,-3.6624395455985495 " />
			<path d="M77.33723624492413,-3.662439545598545 L74.70132895206066,-5.347953667180365 " />
			<path d="M74.70132895206065,-5.34795366718037 L74.17541126554683,-5.0100246925825465 " />

        </g>
        </g>
    </svg>
    