<?xml version='1.0' encoding='utf-8'?>
<svg width="100.09mm" height="71.862769mm" viewBox="-211.185814 -185.114378 430.193497 308.870976" version="1.1" xmlns="http://www.w3.org/2000/svg">
  <g transform="scale(1,-1)" stroke-linecap="round">
    <g fill="none" stroke="rgb(0,0,0)" stroke-width="0.38682600432028" id="Visible">
      <line x1="218.814271" y1="-76.545263" x2="218.814271" y2="21.192045" />
      <line x1="218.814271" y1="-76.545263" x2="17.344107" y2="-123.563185" />
      <line x1="-3.468821" y1="-33.929748" x2="218.814271" y2="-76.545263" />
      <line x1="-3.468821" y1="63.80756" x2="218.814271" y2="21.192045" />
      <line x1="-3.468821" y1="-33.929748" x2="-3.468821" y2="63.80756" />
      <line x1="-3.468821" y1="63.80756" x2="-63.575484" y2="49.780221" />
      <line x1="-151.630077" y1="29.230558" x2="-204.938985" y2="16.789638" />
      <line x1="-204.938985" y1="-80.94767" x2="17.344107" y2="-123.563185" />
      <line x1="-204.938985" y1="-80.94767" x2="-204.938985" y2="16.789638" />
      <line x1="-3.468821" y1="-33.929748" x2="-204.938985" y2="-80.94767" />
      <path d="M -131.066592,7.64047 A 3.0,1.9691151495827057 -100.8529030483537 0,0 -130.501727,7.654692" />
      <path d="M -130.501727,7.654692 A 3.0,1.9691151495827057 -100.8529030483537 0,0 -129.208516,6.275458" />
      <path d="M -129.919843,2.565167 A 3.0,1.9691151495827057 -100.8529030483537 0,0 -131.631456,1.762009" />
      <path d="M -131.631456,1.762009 A 3.0,1.9691151495827057 -100.8529030483537 0,0 -131.066592,7.64047" />
      <path d="M -104.203903,13.909526 A 3.0,1.9691151495827057 -100.8529030483537 0,0 -103.639039,13.923748" />
      <path d="M -103.639039,13.923748 A 3.0,1.9691151495827057 -100.8529030483537 0,0 -102.345828,12.544514" />
      <path d="M -103.057155,8.834223 A 3.0,1.9691151495827057 -100.8529030483537 0,0 -104.768768,8.031065" />
      <path d="M -104.768768,8.031065 A 3.0,1.9691151495827057 -100.8529030483537 0,0 -104.203903,13.909526" />
      <path d="M -76.980341,20.21538 A 3.0,1.9691151495827057 -100.8529030483537 0,0 -76.77635,20.192805" />
      <path d="M -76.77635,20.192805 A 3.0,1.9691151495827057 -100.8529030483537 0,0 -75.483139,18.81357" />
      <path d="M -76.194466,15.103279 A 3.0,1.9691151495827057 -100.8529030483537 0,0 -77.906079,14.300122" />
      <path d="M -77.906079,14.300122 A 3.0,1.9691151495827057 -100.8529030483537 0,0 -77.975992,14.315543" />
      <line x1="-5.817519" y1="66.046563" x2="-9.522237" y2="75.221121" />
      <line x1="-9.522237" y1="75.221121" x2="-210.992401" y2="28.203199" />
      <line x1="-207.287682" y1="19.028641" x2="-210.992401" y2="28.203199" />
      <line x1="-5.817519" y1="66.046563" x2="-207.287682" y2="19.028641" />
      <line x1="-5.817519" y1="66.046563" x2="186.685286" y2="175.746407" />
      <line x1="186.685286" y1="175.746407" x2="182.980568" y2="184.920965" />
      <line x1="-9.522237" y1="75.221121" x2="182.980568" y2="184.920965" />
      <line x1="-210.992401" y1="28.203199" x2="-18.489596" y2="137.903043" />
      <line x1="182.980568" y1="184.920965" x2="-18.489596" y2="137.903043" />
      <path d="M -72.486138,64.197541 A 3.0,0.43500545406455515 -158.0109730959881 0,0 -73.342877,64.171252" />
      <path d="M -73.342877,64.171252 A 3.000000221109813,0.43500548612588 -158.0109730959881 0,0 -67.779343,66.417826" />
      <path d="M -67.779343,66.417826 A 3.0,0.43500545406455515 -158.0109730959881 0,0 -72.486138,64.197541" />
      <path d="M -99.348826,57.928484 A 3.0,0.43500545406455515 -158.0109730959881 0,0 -100.205565,57.902196" />
      <path d="M -100.205565,57.902196 A 3.0,0.43500545406455515 -158.0109730959881 0,0 -94.642032,60.14877" />
      <path d="M -94.642032,60.14877 A 3.0,0.43500545406455515 -158.0109730959881 0,0 -99.348826,57.928484" />
      <path d="M -126.211515,51.659428 A 3.0,0.43500545406455515 -158.0109730959881 0,0 -127.068254,51.633139" />
      <path d="M -127.068254,51.633139 A 3.000000408324994,0.4350055132724216 -158.0109730959881 0,0 -121.50472,53.879714" />
      <path d="M -121.50472,53.879714 A 3.0,0.43500545406455515 -158.0109730959881 0,0 -126.211515,51.659428" />
      <line x1="-146.846633" y1="33.134018" x2="-130.72902" y2="36.895451" />
      <line x1="-130.72902" y1="36.895451" x2="-133.9374" y2="35.067121" />
      <line x1="-82.376181" y1="48.179753" x2="-66.258568" y2="51.941186" />
      <line x1="-82.376181" y1="48.179753" x2="-85.584561" y2="46.351422" />
      <line x1="-114.611407" y1="40.656885" x2="-117.819787" y2="38.828554" />
      <line x1="-114.611407" y1="40.656885" x2="-98.493794" y2="44.418319" />
      <line x1="-98.493794" y1="44.418319" x2="-101.702174" y2="42.589988" />
      <line x1="-146.846633" y1="33.134018" x2="-146.490597" y2="32.252311" />
      <line x1="-64.720306" y1="50.560636" x2="-59.550591" y2="53.506655" />
      <line x1="-66.258568" y1="51.941186" x2="-65.828413" y2="50.875929" />
      <path d="M -130.948705,25.61068 A 5.0,3.6208918547208295 103.13623850572297 0,0 -133.9374,35.067121" />
      <line x1="-82.376181" y1="48.179753" x2="-82.020145" y2="47.298047" />
      <path d="M -114.831092,29.372113 A 5.0,3.6208918547208295 103.13623850572297 0,0 -117.819787,38.828554" />
      <path d="M -82.595865,36.894981 A 5.0,3.6208918547208295 103.13623850572297 0,0 -85.584561,46.351422" />
      <line x1="-114.611407" y1="40.656885" x2="-114.255371" y2="39.775179" />
      <path d="M -98.713479,33.133547 A 5.0,3.6208918547208295 103.13623850572297 0,0 -101.702174,42.589988" />
      <line x1="-144.497936" y1="-17.973639" x2="-63.909871" y2="0.83353" />
      <line x1="-63.909871" y1="0.83353" x2="-63.909871" y2="41.363862" />
      <line x1="-128.380323" y1="25.512655" x2="-128.380323" y2="26.210074" />
      <line x1="-96.145097" y1="33.035523" x2="-96.145097" y2="33.732941" />
      <path d="M -77.341215,20.434094 A 3.261426524367547,2.140708126127669 -100.85290304835371 0,0 -75.579568,19.551721" />
      <path d="M -76.557056,14.45313 A 3.261426524367547,2.140708126127669 -100.85290304835371 0,0 -78.730831,14.458241" />
      <path d="M -77.649896,20.33024 A 3.261426524367547,2.140708126127669 -100.85290304835371 0,0 -77.341215,20.434094" />
      <path d="M -104.203903,14.165037 A 3.261426524367547,2.140708126127669 -100.85290304835371 0,0 -102.442257,13.282665" />
      <path d="M -103.419745,8.184074 A 3.261426524367547,2.140708126127669 -100.85290304835371 1,0 -104.203903,14.165037" />
      <path d="M -131.066592,7.895981 A 3.261426524367547,2.140708126127669 -100.85290304835371 0,0 -129.304945,7.013609" />
      <path d="M -130.282433,1.915017 A 3.261426524367547,2.140708126127669 -100.85290304835371 1,0 -131.066592,7.895981" />
      <path d="M -148.202654,21.831543 A 5.0,3.620891854720831 103.13623850572296 0,0 -149.338991,31.58757" />
      <line x1="-148.202654" y1="21.831543" x2="-145.979823" y2="21.405387" />
      <line x1="-145.979823" y1="21.405387" x2="-145.979823" y2="-17.689536" />
      <line x1="-145.979823" y1="-17.689536" x2="-144.497936" y2="-17.973639" />
      <line x1="-145.979823" y1="-17.689536" x2="-65.391758" y2="1.117633" />
      <line x1="-65.391758" y1="1.117633" x2="-63.909871" y2="0.83353" />
      <path d="M -132.085041,25.592976 A 5.0,3.620891854720831 103.13623850572296 0,0 -133.221378,35.349004" />
      <path d="M -67.614589,40.638711 A 5.0,3.620891854720831 103.13623850572296 0,0 -68.750925,50.394739" />
      <path d="M -68.750925,50.394739 A 5.0,3.620891854720831 103.13623850572296 0,0 -68.319149,50.45833" />
      <line x1="-65.391758" y1="40.212556" x2="-65.391758" y2="1.117633" />
      <line x1="-67.614589" y1="40.638711" x2="-65.391758" y2="40.212556" />
      <line x1="-129.86221" y1="25.166821" x2="-132.085041" y2="25.592976" />
      <path d="M -83.732202,36.877278 A 5.0,3.620891854720831 103.13623850572296 0,0 -84.868538,46.633305" />
      <line x1="-129.86221" y1="25.166821" x2="-113.744597" y2="28.928255" />
      <line x1="-81.509371" y1="36.451123" x2="-83.732202" y2="36.877278" />
      <line x1="-113.744597" y1="28.928255" x2="-115.967428" y2="29.35441" />
      <path d="M -115.967428,29.35441 A 5.0,3.620891854720831 103.13623850572296 0,0 -117.103764,39.110438" />
      <line x1="-97.626984" y1="32.689689" x2="-81.509371" y2="36.451123" />
      <path d="M -99.849815,33.115844 A 5.0,3.620891854720831 103.13623850572296 0,0 -100.986151,42.871871" />
      <line x1="-97.626984" y1="32.689689" x2="-99.849815" y2="33.115844" />
      <path d="M -78.823102,22.417432 A 5.0,3.2818585826378435 79.1470969516463 0,1 -79.646321,22.076175" />
      <path d="M -81.269103,13.611723 A 5.0,3.2818585826378435 79.1470969516463 0,1 -77.001376,13.850565" />
      <path d="M -77.001376,13.850565 A 5.0,3.2818585826378435 79.1470969516463 0,1 -75.76953,20.275889" />
      <path d="M -75.76953,20.275889 A 5.0,3.2818585826378435 79.1470969516463 0,1 -78.823102,22.417432" />
      <path d="M -105.685791,16.148376 A 5.0,3.2818585826378435 79.1470969516463 1,1 -103.864064,7.581509" />
      <path d="M -103.864064,7.581509 A 5.0,3.2818585826378435 79.1470969516463 0,1 -102.632218,14.006832" />
      <path d="M -102.632218,14.006832 A 5.0,3.2818585826378435 79.1470969516463 0,1 -105.685791,16.148376" />
      <path d="M -132.548479,9.879319 A 5.0,3.2818585826378435 79.1470969516463 1,1 -130.726753,1.312453" />
      <path d="M -130.726753,1.312453 A 5.0,3.2818585826378435 79.1470969516463 0,1 -129.494907,7.737776" />
      <path d="M -129.494907,7.737776 A 5.0,3.2818585826378435 79.1470969516463 0,1 -132.548479,9.879319" />
      <line x1="-145.979823" y1="21.405387" x2="-129.86221" y2="25.166821" />
      <line x1="-113.744597" y1="28.928255" x2="-97.626984" y2="32.689689" />
      <line x1="-81.509371" y1="36.451123" x2="-65.391758" y2="40.212556" />
      <line x1="-79.964376" y1="21.929726" x2="-85.648666" y2="15.826915" />
      <path d="M -79.964376,21.929726 C -79.912635,21.986326 -79.81923,22.032596 -79.738421,22.041635 C -79.672141,22.049927 -79.616926,22.033743 -79.595579,21.999768" />
      <path d="M -79.595579,21.999768 Q -79.588501,21.988814 -79.585966,21.975885" />
      <path d="M -85.648666,15.826915 Q -85.705292,15.764556 -85.692436,15.711669" />
      <path d="M -85.692436,15.711669 C -85.677921,15.648449 -85.567377,15.62958 -85.457884,15.671632" />
      <path d="M -79.404755,21.030471 Q -79.480959,21.438975 -79.585966,21.975885" />
      <line x1="-79.404755" y1="21.030471" x2="-83.837267" y2="16.271605" />
      <path d="M -85.457884,15.671632 C -84.83997,15.899577 -84.306492,16.097077 -83.837267,16.271605" />
      <path d="M -79.404755,21.030471 A 3.9,2.5598496944575175 -100.85290304835371 0,0 -79.228462,20.757451" />
      <path d="M -83.759488,15.981756 A 3.9,2.5598496944575175 -100.85290304835371 0,0 -83.837267,16.271605" />
      <path d="M -78.714451,19.015751 Q -78.691222,18.877659 -78.677995,18.734567" />
      <path d="M -78.677995,18.734567 C -78.590873,17.849372 -78.810505,16.861734 -79.245791,16.152759" />
      <path d="M -75.764561,19.296461 Q -75.84051,19.235793 -75.913871,19.167855" />
      <path d="M -77.030114,15.348924 Q -76.978697,15.128277 -76.900313,14.932765" />
      <path d="M -76.811453,14.736478 L -76.758783,14.639068" />
      <path d="M -77.616507,14.293702 L -77.586807,14.278896" />
      <path d="M -76.6637,20.165931 Q -76.767684,20.176896 -76.87342,20.17307" />
      <path d="M -78.357452,14.435754 Q -78.205835,14.357642 -78.042367,14.32625" />
      <path d="M -78.042367,14.32625 C -77.56684,14.231842 -77.033386,14.458938 -76.60207,14.944803 C -76.168699,15.425689 -75.844006,16.158604 -75.728843,16.937344 C -75.609576,17.715296 -75.70193,18.528167 -75.988466,19.147072 C -76.271253,19.769842 -76.744639,20.189966 -77.28311,20.289959" />
      <path d="M -77.28311,20.289959 Q -77.44616,20.321187 -77.614363,20.315122" />
      <path d="M -79.098394,14.577805 Q -78.946778,14.499693 -78.78331,14.468302" />
      <path d="M -78.78331,14.468302 C -78.769716,14.465951 -78.756122,14.4636 -78.742529,14.461248 C -78.267188,14.38476 -77.739393,14.625649 -77.315471,15.118134 C -76.88949,15.605839 -76.573636,16.338492 -76.464906,17.112642 C -76.352172,17.886096 -76.448503,18.690509 -76.735514,19.302345 C -77.018888,19.917968 -77.489449,20.332671 -78.024053,20.432011" />
      <path d="M -78.024053,20.432011 Q -78.187103,20.463239 -78.355307,20.457173" />
      <path d="M -79.839338,14.719857 Q -79.687722,14.641745 -79.524254,14.610353" />
      <path d="M -79.524254,14.610353 C -79.035142,14.512969 -78.484885,14.756769 -78.047296,15.270758 C -77.730417,15.638862 -77.47334,16.141276 -77.321534,16.697132 C -77.168528,17.252395 -77.121557,17.858703 -77.191971,18.418317 C -77.261053,18.978475 -77.447317,19.489522 -77.724241,19.869189 C -78.000142,20.250356 -78.3656,20.498508 -78.764997,20.574063" />
      <path d="M -78.764997,20.574063 Q -78.881799,20.596447 -79.001537,20.599676" />
      <path d="M -80.131395,14.734872 C -79.66193,14.698478 -79.152621,14.963776 -78.747454,15.46145 C -78.340321,15.954905 -78.042741,16.674658 -77.942156,17.430036 C -77.855213,18.064276 -77.906332,18.718116 -78.090496,19.266295 C -78.272879,19.815917 -78.587319,20.256482 -78.977977,20.50389" />
      <path d="M -79.74301,15.333559 C -79.363853,15.678152 -79.043601,16.207999 -78.85169,16.817723 C -78.657976,17.426361 -78.594087,18.110778 -78.677995,18.734567" />
      <path d="M -78.609952,18.876715 C -78.531057,18.592763 -78.492126,18.281376 -78.494912,17.96529 C -78.498195,17.215073 -78.749649,16.446976 -79.141368,15.946843" />
      <path d="M -77.869009,18.734663 C -77.806595,18.508716 -77.769514,18.271276 -77.757766,18.022343 C -77.715458,17.212783 -77.972945,16.348823 -78.400424,15.804792" />
      <path d="M -78.772037,15.431865 C -79.05603,15.217017 -79.367986,15.130681 -79.653458,15.186248" />
      <path d="M -77.128065,18.592611 C -76.943528,17.938819 -76.985149,17.138282 -77.225457,16.474187 C -77.335116,16.166812 -77.484458,15.888531 -77.659482,15.662738" />
      <path d="M -78.912515,15.044196 Q -78.97039,15.055293 -79.026628,15.073853" />
      <path d="M -79.10444,15.103465 Q -79.189005,15.140033 -79.267955,15.193626" />
      <path d="M -79.352248,15.257113 Q -79.445739,15.334811 -79.527456,15.436434" />
      <path d="M -79.576507,15.501157 L -79.589535,15.519674" />
      <path d="M -77.59412,19.798252 C -77.206648,19.718103 -76.860148,19.441838 -76.624572,19.028817" />
      <path d="M -76.387121,18.450558 C -76.286545,18.089149 -76.251356,17.683163 -76.283414,17.279842 C -76.333917,16.614734 -76.572752,15.963703 -76.918537,15.520688" />
      <path d="M -77.290149,15.147762 C -77.574156,14.932901 -77.886114,14.846582 -78.171571,14.902144" />
      <path d="M -75.646177,18.308506 C -75.561341,18.003273 -75.522801,17.666368 -75.532429,17.326008" />
      <path d="M -75.881139,15.861473 C -76.110356,15.386565 -76.44,15.025245 -76.790179,14.857217 C -77.003778,14.753523 -77.224169,14.720271 -77.430627,14.760093" />
      <path d="M -76.69608,14.619291 Q -76.750671,14.630165 -76.803797,14.647697" />
      <path d="M -76.881609,14.677309 Q -76.966171,14.713876 -77.045124,14.76747" />
      <path d="M -77.129417,14.830958 Q -77.222916,14.908664 -77.304625,15.010278" />
      <path d="M -77.353676,15.075002 L -77.366704,15.093519" />
      <path d="M -77.44064,15.21103 Q -77.562802,15.424959 -77.635664,15.69403" />
      <path d="M -76.491829,14.785886 Q -76.528884,14.824936 -76.563681,14.868227" />
      <path d="M -76.612733,14.932951 L -76.62576,14.951467" />
      <path d="M -76.699696,15.068978 Q -76.821868,15.282931 -76.89472,15.551978" />
      <path d="M -76.94625,15.786362 C -77.077652,16.517055 -76.908572,17.437153 -76.497104,18.129111" />
      <path d="M -75.809692,18.920807 Q -75.695134,19.006282 -75.575675,19.070939" />
      <path d="M -76.619691,20.152486 Q -76.723739,20.159969 -76.829298,20.152783" />
      <path d="M -77.995875,14.31833 L -77.949749,14.308494" />
      <path d="M -77.949749,14.308494 C -77.474222,14.214085 -76.940768,14.441181 -76.509452,14.927046 C -76.076081,15.407933 -75.751388,16.140848 -75.636225,16.919587 C -75.516958,17.69754 -75.609312,18.51041 -75.895848,19.129315 C -76.178635,19.752086 -76.652021,20.17221 -77.190492,20.272203" />
      <path d="M -77.190492,20.272203 L -77.236945,20.28033" />
      <path d="M -78.736817,14.460382 L -78.690692,14.450545" />
      <path d="M -78.690692,14.450545 C -78.677098,14.448194 -78.663504,14.445843 -78.649911,14.443492 C -78.17457,14.367003 -77.646775,14.607893 -77.222853,15.100377 C -76.796872,15.588083 -76.481018,16.320735 -76.372288,17.094886 C -76.259554,17.868339 -76.355885,18.672752 -76.642896,19.284588 C -76.92627,19.900212 -77.396832,20.314915 -77.931435,20.414254" />
      <path d="M -77.931435,20.414254 L -77.977888,20.422382" />
      <path d="M -79.477761,14.602433 L -79.431636,14.592597" />
      <path d="M -79.431636,14.592597 C -78.942524,14.495212 -78.392267,14.739012 -77.954678,15.253001 C -77.637799,15.621106 -77.380722,16.123519 -77.228916,16.679376 C -77.07591,17.234639 -77.028939,17.840946 -77.099353,18.400561 C -77.168435,18.960719 -77.354699,19.471765 -77.631623,19.851432 C -77.907524,20.2326 -78.272982,20.480751 -78.672379,20.556306" />
      <path d="M -78.672379,20.556306 L -78.718832,20.564434" />
      <path d="M -80.136213,14.728286 C -79.657052,14.649175 -79.124041,14.893247 -78.697587,15.392764 C -78.268987,15.887358 -77.953457,16.63042 -77.849538,17.412279 C -77.758691,18.074037 -77.81866,18.756917 -78.022387,19.319208 C -78.224036,19.88328 -78.568141,20.322639 -78.988239,20.546484" />
      <path d="M -79.853761,15.151104 C -79.324291,15.52258 -78.876883,16.253834 -78.676449,17.096736 C -78.470196,17.93724 -78.515956,18.871682 -78.809779,19.58236" />
      <line x1="-85.091265" y1="14.551925" x2="-79.406975" y2="20.654735" />
      <path d="M -85.091265,14.551925 C -85.135845,14.504615 -85.149634,14.452426 -85.126637,14.417959" />
      <path d="M -85.126637,14.417959 C -85.103848,14.381462 -85.041836,14.365746 -84.969509,14.378137" />
      <path d="M -79.406975,20.654735 C -79.355234,20.711335 -79.261829,20.757606 -79.18102,20.766644 C -79.103016,20.776609 -79.041442,20.751943 -79.02978,20.706058" />
      <path d="M -79.02978,20.706058 L -79.028565,20.700894" />
      <path d="M -76.875774,14.653718 L -76.90387,14.659566" />
      <path d="M -77.231214,14.803147 Q -77.311753,14.857839 -77.385114,14.929387" />
      <path d="M -77.148857,18.701997 Q -76.985887,18.899066 -76.801441,19.048263" />
      <path d="M -76.601458,19.191142 Q -76.485638,19.263485 -76.366233,19.314902" />
      <path d="M -76.046479,19.412667 L -75.960948,19.425459" />
      <path d="M -76.004274,18.799573 C -75.814931,18.417783 -75.714738,17.940813 -75.717119,17.450919 C -75.718168,16.961192 -75.821694,16.459377 -76.005578,16.032221 C -76.156179,15.680289 -76.360072,15.378913 -76.591044,15.163024 C -76.889889,14.881858 -77.23327,14.747701 -77.550063,14.785539" />
      <path d="M -79.126701,15.085721 Q -79.251765,15.113858 -79.36767,15.176673" />
      <path d="M -79.454045,15.229302 Q -79.534578,15.28399 -79.607945,15.355543" />
      <path d="M -79.66174,15.411388 L -79.681931,15.434191" />
      <path d="M -77.576522,19.772168 C -77.235944,19.637255 -76.942058,19.342315 -76.745218,18.941625" />
      <path d="M -78.227105,19.225728 C -78.039234,18.846782 -77.939194,18.374831 -77.939928,17.888768 C -77.939087,17.332077 -78.071614,16.760428 -78.30273,16.297496 C -78.421584,16.059231 -78.552942,15.867643 -78.700243,15.704732 C -78.848417,15.540872 -79.010261,15.414494 -79.185775,15.325597 C -79.383365,15.227811 -79.579072,15.189843 -79.772894,15.211695" />
      <line x1="-133.9374" y1="35.067121" x2="-117.819787" y2="38.828554" />
      <line x1="-101.702174" y1="42.589988" x2="-85.584561" y2="46.351422" />
      <line x1="-148.202654" y1="21.831543" x2="-132.085041" y2="25.592976" />
      <line x1="-83.732202" y1="36.877278" x2="-67.614589" y2="40.638711" />
      <line x1="-115.967428" y1="29.35441" x2="-99.849815" y2="33.115844" />
      <path d="M -67.855502,50.603708 A 5.000000409263832,3.6208921511008456 -76.86376149427704 0,1 -65.582829,40.865383" />
      <path d="M -65.823743,50.830379 A 5.0,3.620891854720831 -76.86376149427704 0,1 -66.960079,50.812676" />
      <path d="M -66.960079,50.812676 A 5.0,3.620891854720831 -76.86376149427704 0,1 -64.687406,41.074352" />
      <path d="M -64.92832,49.736184 A 3.6666668671937104,2.65532083867929 -76.86376149427704 0,1 -64.92832,42.568781 A 3.6666668671937104,2.65532083867929 -76.86376149427704 0,1 -64.92832,49.736184" />
      <path d="M -79.964376,21.929726 A 4.956801948466,3.253504603401826 79.14709695164629 0,1 -85.648666,15.826915" />
      <path d="M -79.61497,22.019933 A 5.115900974233,3.357932704042375 79.14709695164629 0,1 -82.671784,23.04734" />
      <path d="M -84.439222,13.828359 A 5.115900974233,3.357932704042375 79.14709695164629 0,1 -79.848942,15.15903" />
      <path d="M -79.848942,15.15903 A 5.115900974233,3.357932704042375 79.14709695164629 0,1 -78.899114,20.113347" />
      <path d="M -78.899114,20.113347 A 5.115900974233,3.357932704042375 79.14709695164629 0,1 -79.028565,20.700894" />
      <path d="M -85.091265,14.551925 A 4.956801948466,3.253504603401826 79.14709695164629 0,1 -79.406975,20.654735" />
      <line x1="-115.385228" y1="29.242792" x2="-130.948705" y2="25.61068" />
      <line x1="-83.150002" y1="36.76566" x2="-98.713479" y2="33.133547" />
      <line x1="-133.596281" y1="35.261511" x2="-149.338991" y2="31.58757" />
      <line x1="-68.750925" y1="50.394739" x2="-84.868538" y2="46.633305" />
      <line x1="-101.361055" y1="42.784379" x2="-117.103764" y2="39.110438" />
      <path d="M -67.855502,50.603708 C -68.503616,50.453802 -69.099091,50.099389 -69.564414,49.601964 C -69.937288,49.205347 -70.230157,48.720237 -70.432053,48.183499 C -70.814737,47.172315 -70.869684,45.972848 -70.606529,44.841328 C -70.274197,43.385241 -69.413688,42.06536 -68.265777,41.356771 C -67.450837,40.84457 -66.479936,40.652205 -65.582829,40.865383" />
      <line x1="-65.582829" y1="40.865383" x2="-64.687406" y2="41.074352" />
      <line x1="-67.855502" y1="50.603708" x2="-66.960079" y2="50.812676" />
      <path d="M -65.572692,50.8367 C -66.033959,50.925526 -66.508102,50.91853 -66.960079,50.812676" />
      <path d="M -64.687406,41.074352 C -64.039293,41.224257 -63.443818,41.578671 -62.978495,42.076095 C -62.605621,42.472712 -62.312752,42.957822 -62.110856,43.49456 C -61.728171,44.505745 -61.673225,45.705211 -61.93638,46.836731 C -62.094601,47.522358 -62.367186,48.181202 -62.734082,48.757712 C -63.415505,49.836699 -64.441306,50.622818 -65.572692,50.8367" />
      <path d="M -79.595579,21.999768 C -79.854841,22.400907 -80.171566,22.725129 -80.527531,22.952558 C -81.061112,23.295338 -81.683491,23.415229 -82.306021,23.295152 C -83.056439,23.154103 -83.802223,22.663905 -84.408724,21.918659 C -85.069272,21.11373 -85.561543,20.010848 -85.779828,18.85112 C -85.985903,17.774617 -85.955265,16.657412 -85.692436,15.711669" />
      <line x1="-78.714451" y1="19.015751" x2="-78.899114" y2="20.113347" />
      <line x1="-79.245791" y1="16.152759" x2="-79.848942" y2="15.15903" />
      <path d="M -77.949749,14.308494 L -78.042367,14.32625" />
      <path d="M -77.190492,20.272203 L -77.28311,20.289959" />
      <path d="M -78.690692,14.450545 L -78.78331,14.468302" />
      <path d="M -77.931435,20.414254 L -78.024053,20.432011" />
      <path d="M -79.431636,14.592597 L -79.524254,14.610353" />
      <path d="M -78.672379,20.556306 L -78.764997,20.574063" />
      <path d="M -79.02978,20.706058 Q -78.950508,20.418761 -78.899114,20.113347" />
      <path d="M -79.848942,15.15903 C -80.511702,14.05932 -81.449255,13.308035 -82.399802,13.125758 C -82.713706,13.064052 -83.022241,13.061323 -83.325406,13.117571 C -84.032068,13.247307 -84.671053,13.709936 -85.126637,14.417959" />
    </g>
    <g fill="none" stroke="rgb(99,99,99)" stroke-width="0.38682600432028" id="Hidden" stroke-dasharray="0.009825 1.165391">
      <line x1="218.814271" y1="21.192045" x2="17.344107" y2="-25.825877" />
      <line x1="17.344107" y1="-123.563185" x2="17.344107" y2="-25.825877" />
      <line x1="-63.575484" y1="49.780221" x2="-63.909871" y2="49.702184" />
      <line x1="-56.500434" y1="48.281667" x2="-63.909871" y2="49.702184" />
      <line x1="-2.775057" y1="60.819779" x2="-56.500434" y2="48.281667" />
      <line x1="-2.775057" y1="60.819779" x2="204.689162" y2="21.045298" />
      <line x1="204.689162" y1="21.045298" x2="16.650343" y2="-22.838095" />
      <line x1="-190.813877" y1="16.936385" x2="16.650343" y2="-22.838095" />
      <line x1="-137.0885" y1="29.474498" x2="-190.813877" y2="16.936385" />
      <line x1="-137.0885" y1="29.474498" x2="-144.497936" y2="30.895015" />
      <line x1="-144.497936" y1="30.895015" x2="-151.630077" y2="29.230558" />
      <line x1="-204.938985" y1="16.789638" x2="17.344107" y2="-25.825877" />
      <line x1="-63.909871" y1="47.747438" x2="-63.909871" y2="49.702184" />
      <line x1="-144.497936" y1="28.940269" x2="-63.909871" y2="47.747438" />
      <line x1="-144.497936" y1="28.940269" x2="-144.497936" y2="30.895015" />
      <path d="M -129.208516,6.275458 A 3.0,1.9691151495827057 -100.8529030483537 0,0 -129.919843,2.565167" />
      <path d="M -102.345828,12.544514 A 3.0,1.9691151495827057 -100.8529030483537 0,0 -103.057155,8.834223" />
      <path d="M -77.341215,20.178582 A 3.0,1.9691151495827057 -100.8529030483537 0,0 -76.980341,20.21538" />
      <path d="M -75.483139,18.81357 A 3.0,1.9691151495827057 -100.8529030483537 0,0 -76.194466,15.103279" />
      <path d="M -77.975992,14.315543 A 3.0,1.9691151495827057 -100.8529030483537 0,0 -77.341215,20.178582" />
      <line x1="-63.909871" y1="47.747438" x2="-56.500434" y2="46.32692" />
      <line x1="-56.500434" y1="46.32692" x2="-56.500434" y2="48.281667" />
      <line x1="-2.775057" y1="-27.143798" x2="-2.775057" y2="60.819779" />
      <line x1="-190.813877" y1="-71.027192" x2="-2.775057" y2="-27.143798" />
      <line x1="-56.500434" y1="46.32692" x2="-137.0885" y2="27.519752" />
      <line x1="-190.813877" y1="-71.027192" x2="-190.813877" y2="16.936385" />
      <line x1="-137.0885" y1="27.519752" x2="-137.0885" y2="29.474498" />
      <path d="M -123.657155,6.219953 A 3.0,1.9691151495827057 -100.8529030483537 0,0 -123.092291,6.234175" />
      <path d="M -123.092291,6.234175 A 3.000000022997088,1.9691151646773435 -100.8529030483537 0,0 -124.22202,0.341492" />
      <path d="M -124.22202,0.341492 A 3.0,1.9691151495827057 -100.8529030483537 0,0 -123.657155,6.219953" />
      <path d="M -96.794467,12.489009 A 3.0,1.9691151495827057 -100.8529030483537 0,0 -96.229602,12.503231" />
      <path d="M -96.229602,12.503231 A 3.000000117141232,1.9691152264708973 -100.8529030483537 0,0 -97.359332,6.610548" />
      <path d="M -97.359332,6.610548 A 3.0,1.9691151495827057 -100.8529030483537 0,0 -96.794467,12.489009" />
      <path d="M -69.931778,18.758065 A 3.0,1.9691151495827057 -100.8529030483537 0,0 -69.366914,18.772287" />
      <path d="M -69.366914,18.772287 A 3.000000022997088,1.9691151646773435 -100.8529030483537 0,0 -70.496643,12.879604" />
      <path d="M -70.496643,12.879604 A 3.0,1.9691151495827057 -100.8529030483537 0,0 -69.931778,18.758065" />
      <line x1="204.689162" y1="-66.918279" x2="204.689162" y2="21.045298" />
      <line x1="-2.775057" y1="-27.143798" x2="204.689162" y2="-66.918279" />
      <line x1="16.650343" y1="-110.801673" x2="204.689162" y2="-66.918279" />
      <line x1="16.650343" y1="-22.838095" x2="16.650343" y2="-110.801673" />
      <line x1="-190.813877" y1="-71.027192" x2="16.650343" y2="-110.801673" />
      <line x1="-144.497936" y1="28.940269" x2="-137.0885" y2="27.519752" />
      <line x1="-207.287682" y1="19.028641" x2="-14.784877" y2="128.728485" />
      <line x1="-14.784877" y1="128.728485" x2="-18.489596" y2="137.903043" />
      <line x1="186.685286" y1="175.746407" x2="-14.784877" y2="128.728485" />
      <path d="M -68.78142,55.022983 A 3.0,0.43500545406455515 -158.0109730959881 0,0 -69.638158,54.996694" />
      <path d="M -69.638158,54.996694 A 3.0,0.43500545406455515 -158.0109730959881 0,0 -64.074625,57.243268" />
      <path d="M -64.074625,57.243268 A 3.0,0.43500545406455515 -158.0109730959881 0,0 -68.78142,55.022983" />
      <path d="M -95.644108,48.753927 A 3.0,0.43500545406455515 -158.0109730959881 0,0 -96.500847,48.727638" />
      <path d="M -96.500847,48.727638 A 3.000000221109805,0.43500548612587886 -158.0109730959881 0,0 -90.937313,50.974212" />
      <path d="M -90.937313,50.974212 A 3.0,0.43500545406455515 -158.0109730959881 0,0 -95.644108,48.753927" />
      <path d="M -122.506797,42.48487 A 3.0,0.43500545406455515 -158.0109730959881 0,0 -123.363535,42.458582" />
      <path d="M -123.363535,42.458582 A 3.0,0.43500545406455515 -158.0109730959881 0,0 -117.800002,44.705156" />
      <path d="M -117.800002,44.705156 A 3.0,0.43500545406455515 -158.0109730959881 0,0 -122.506797,42.48487" />
      <line x1="-121.179593" y1="47.760664" x2="-146.846633" y2="33.134018" />
      <line x1="-121.179593" y1="47.760664" x2="-40.591527" y2="66.567832" />
      <line x1="-40.591527" y1="66.567832" x2="-66.258568" y2="51.941186" />
      <path d="M -68.949171,54.927388 A 3.261426524367547,0.47291277537689574 21.989026904011908 0,1 -63.879414,57.387068" />
      <path d="M -63.879414,57.387068 A 3.261426524367547,0.47291277537689574 21.989026904011908 0,1 -69.878485,54.964622" />
      <path d="M -69.878485,54.964622 A 3.261426524367547,0.47291277537689574 21.989026904011908 0,1 -68.949171,54.927388" />
      <path d="M -95.811859,48.658332 A 3.261426524367547,0.47291277537689574 21.989026904011908 0,1 -90.742103,51.118012" />
      <path d="M -90.742103,51.118012 A 3.261426524367547,0.47291277537689574 21.989026904011908 0,1 -96.741174,48.695566" />
      <path d="M -96.741174,48.695566 A 3.261426524367547,0.47291277537689574 21.989026904011908 0,1 -95.811859,48.658332" />
      <path d="M -122.674548,42.389275 A 3.261426524367547,0.47291277537689574 21.989026904011908 0,1 -117.604791,44.848955" />
      <path d="M -117.604791,44.848955 A 3.261426524367547,0.47291277537689574 21.989026904011908 0,1 -123.603862,42.42651" />
      <path d="M -123.603862,42.42651 A 3.261426524367547,0.47291277537689574 21.989026904011908 0,1 -122.674548,42.389275" />
      <line x1="-120.438649" y1="45.925752" x2="-121.179593" y2="47.760664" />
      <line x1="-146.10569" y1="31.299106" x2="-120.438649" y2="45.925752" />
      <line x1="-146.490597" y1="32.252311" x2="-146.10569" y2="31.299106" />
      <line x1="-120.438649" y1="45.925752" x2="-39.850583" y2="64.732921" />
      <line x1="-39.850583" y1="64.732921" x2="-40.591527" y2="66.567832" />
      <line x1="-130.72902" y1="36.895451" x2="-129.988077" y2="35.06054" />
      <line x1="-146.10569" y1="31.299106" x2="-129.988077" y2="35.06054" />
      <line x1="-65.517624" y1="50.106275" x2="-64.720306" y2="50.560636" />
      <line x1="-59.550591" y1="53.506655" x2="-39.850583" y2="64.732921" />
      <line x1="-65.828413" y1="50.875929" x2="-65.517624" y2="50.106275" />
      <line x1="-129.988077" y1="35.06054" x2="-128.876661" y2="32.308173" />
      <path d="M -128.876661,32.308173 A 5.0,3.6208918547208295 103.13623850572297 0,0 -130.948705,25.61068" />
      <path d="M -133.432561,29.711943 A 2.1,1.5207745789827485 103.13623850572297 0,0 -132.562302,32.52489" />
      <path d="M -132.562302,32.52489 A 2.1,1.5207745789827485 103.13623850572297 0,0 -131.60778,28.434794" />
      <path d="M -131.60778,28.434794 A 2.1,1.5207745789827485 103.13623850572297 0,0 -133.432561,29.711943" />
      <line x1="-81.635237" y1="46.344841" x2="-65.517624" y2="50.106275" />
      <line x1="-82.020145" y1="47.298047" x2="-81.635237" y2="46.344841" />
      <path d="M -112.759048,36.069606 A 5.0,3.6208918547208295 103.13623850572297 0,0 -114.831092,29.372113" />
      <line x1="-81.635237" y1="46.344841" x2="-80.523822" y2="43.592474" />
      <path d="M -80.523822,43.592474 A 5.0,3.6208918547208295 103.13623850572297 0,0 -82.595865,36.894981" />
      <path d="M -85.079721,40.996244 A 2.1,1.5207745789827485 103.13623850572297 0,0 -84.209463,43.809191" />
      <path d="M -84.209463,43.809191 A 2.1,1.5207745789827485 103.13623850572297 0,0 -83.254941,39.719095" />
      <path d="M -83.254941,39.719095 A 2.1,1.5207745789827485 103.13623850572297 0,0 -85.079721,40.996244" />
      <line x1="-114.255371" y1="39.775179" x2="-113.870463" y2="38.821974" />
      <line x1="-113.870463" y1="38.821974" x2="-112.759048" y2="36.069606" />
      <path d="M -117.314948,33.473377 A 2.1,1.5207745789827485 103.13623850572297 0,0 -116.444689,36.286324" />
      <path d="M -116.444689,36.286324 A 2.100000340350778,1.5207748254574203 103.13623850572297 0,0 -115.490167,32.196227" />
      <path d="M -115.490167,32.196227 A 2.1,1.5207745789827485 103.13623850572297 0,0 -117.314948,33.473377" />
      <path d="M -96.641435,39.83104 A 5.0,3.6208918547208295 103.13623850572297 0,0 -98.713479,33.133547" />
      <line x1="-98.493794" y1="44.418319" x2="-97.75285" y2="42.583407" />
      <line x1="-113.870463" y1="38.821974" x2="-97.75285" y2="42.583407" />
      <line x1="-97.75285" y1="42.583407" x2="-96.641435" y2="39.83104" />
      <path d="M -101.197335,37.23481 A 2.1,1.5207745789827485 103.13623850572297 0,0 -100.327076,40.047757" />
      <path d="M -100.327076,40.047757 A 2.1,1.5207745789827485 103.13623850572297 0,0 -99.372554,35.957661" />
      <path d="M -99.372554,35.957661 A 2.1,1.5207745789827485 103.13623850572297 0,0 -101.197335,37.23481" />
      <path d="M -69.323828,52.456739 A 5.0,0.7250090901075912 -158.0109730959881 0,0 -70.748533,52.513822" />
      <path d="M -70.748533,52.513822 A 5.0,0.7250090901075912 -158.0109730959881 0,0 -61.551529,56.227604" />
      <path d="M -61.551529,56.227604 A 5.0,0.7250090901075912 -158.0109730959881 0,0 -69.323828,52.456739" />
      <path d="M -96.186517,46.187683 A 5.0,0.7250090901075912 -158.0109730959881 0,0 -97.611222,46.244766" />
      <path d="M -97.611222,46.244766 A 5.0,0.7250090901075912 -158.0109730959881 0,0 -88.414218,49.958548" />
      <path d="M -88.414218,49.958548 A 5.0,0.7250090901075912 -158.0109730959881 0,0 -96.186517,46.187683" />
      <path d="M -123.049205,39.918626 A 5.0,0.7250090901075912 -158.0109730959881 0,0 -124.47391,39.975709" />
      <path d="M -124.47391,39.975709 A 5.0,0.7250090901075912 -158.0109730959881 0,0 -115.276906,43.689492" />
      <path d="M -115.276906,43.689492 A 5.0,0.7250090901075912 -158.0109730959881 0,0 -123.049205,39.918626" />
      <line x1="-129.988077" y1="35.06054" x2="-113.870463" y2="38.821974" />
      <line x1="-97.75285" y1="42.583407" x2="-81.635237" y2="46.344841" />
      <line x1="-144.497936" y1="-17.973639" x2="-144.497936" y2="26.008149" />
      <line x1="-63.909871" y1="41.363862" x2="-63.909871" y2="44.815318" />
      <line x1="-128.380323" y1="24.882718" x2="-128.380323" y2="25.512655" />
      <line x1="-128.380323" y1="26.210074" x2="-128.380323" y2="29.769583" />
      <line x1="-128.380323" y1="24.882718" x2="-112.26271" y2="28.644152" />
      <line x1="-80.027484" y1="36.167019" x2="-80.027484" y2="41.053885" />
      <line x1="-112.26271" y1="28.644152" x2="-112.26271" y2="33.531017" />
      <line x1="-96.145097" y1="32.405585" x2="-80.027484" y2="36.167019" />
      <line x1="-96.145097" y1="32.405585" x2="-96.145097" y2="33.035523" />
      <line x1="-96.145097" y1="33.732941" x2="-96.145097" y2="37.292451" />
      <path d="M -75.579568,19.551721 A 3.261426524367547,2.140708126127669 -100.85290304835371 0,0 -75.349414,19.037196" />
      <path d="M -75.349414,19.037196 A 3.261426524367547,2.140708126127669 -100.85290304835371 0,0 -76.152929,14.846052" />
      <path d="M -76.152929,14.846052 A 3.261426524367547,2.140708126127669 -100.85290304835371 0,0 -76.557056,14.45313" />
      <path d="M -78.730831,14.458241 A 3.261426524367547,2.140708126127669 -100.85290304835371 0,0 -77.649896,20.33024" />
      <path d="M -102.442257,13.282665 A 3.261426524367547,2.140708126127669 -100.85290304835371 0,0 -102.212103,12.76814" />
      <path d="M -102.212103,12.76814 A 3.261426524367547,2.140708126127669 -100.85290304835371 0,0 -103.015618,8.576996" />
      <path d="M -103.015618,8.576996 A 3.261426524367547,2.140708126127669 -100.85290304835371 0,0 -103.419745,8.184074" />
      <path d="M -129.304945,7.013609 A 3.261426524367547,2.140708126127669 -100.85290304835371 0,0 -129.074791,6.499084" />
      <path d="M -129.074791,6.499084 A 3.261426524367547,2.140708126127669 -100.85290304835371 0,0 -129.878306,2.30794" />
      <path d="M -129.878306,2.30794 A 3.261426524367547,2.140708126127669 -100.85290304835371 0,0 -130.282433,1.915017" />
      <path d="M -149.338991,31.58757 A 5.0,3.620891854720831 103.13623850572296 0,0 -144.497936,26.008149" />
      <path d="M -148.202654,28.770892 A 2.1,1.520774578982749 -76.86376149427704 0,1 -148.679916,28.763456" />
      <path d="M -148.679916,28.763456 A 2.1,1.520774578982749 -76.86376149427704 0,1 -147.725393,24.67336" />
      <path d="M -147.725393,24.67336 A 2.1,1.520774578982749 -76.86376149427704 0,1 -148.202654,28.770892" />
      <path d="M -133.221378,35.349004 A 5.0,3.620891854720831 103.13623850572296 0,0 -128.380323,29.769583" />
      <path d="M -68.319149,50.45833 A 5.0,3.620891854720831 103.13623850572296 0,0 -63.909871,44.815318" />
      <path d="M -67.614589,49.109278 A 3.666666666666667,2.6553206934619427 -76.86376149427704 0,1 -67.614589,41.941876 A 3.666666666666667,2.6553206934619427 -76.86376149427704 0,1 -67.614589,49.109278" />
      <line x1="-128.380323" y1="24.882718" x2="-129.86221" y2="25.166821" />
      <path d="M -132.085041,32.532325 A 2.1,1.520774578982749 103.13623850572296 0,0 -131.60778,28.434794" />
      <path d="M -131.60778,28.434794 A 2.1,1.520774578982749 103.13623850572296 0,0 -132.562302,32.52489" />
      <path d="M -132.562302,32.52489 A 2.1,1.520774578982749 103.13623850572296 0,0 -132.085041,32.532325" />
      <path d="M -84.868538,46.633305 A 5.0,3.620891854720831 103.13623850572296 0,0 -80.027484,41.053885" />
      <line x1="-112.26271" y1="28.644152" x2="-113.744597" y2="28.928255" />
      <line x1="-80.027484" y1="36.167019" x2="-81.509371" y2="36.451123" />
      <path d="M -83.732202,43.816627 A 2.1,1.520774578982749 103.13623850572296 0,0 -83.254941,39.719095" />
      <path d="M -83.254941,39.719095 A 2.1,1.520774578982749 103.13623850572296 0,0 -84.209463,43.809191" />
      <path d="M -84.209463,43.809191 A 2.1,1.520774578982749 103.13623850572296 0,0 -83.732202,43.816627" />
      <path d="M -117.103764,39.110438 A 5.0,3.620891854720831 103.13623850572296 0,0 -112.26271,33.531017" />
      <path d="M -115.967428,36.293759 A 2.1,1.520774578982749 103.13623850572296 0,0 -115.490167,32.196227" />
      <path d="M -115.490167,32.196227 A 2.100000340350778,1.5207748254574207 103.13623850572296 0,0 -116.444689,36.286324" />
      <path d="M -116.444689,36.286324 A 2.1,1.520774578982749 103.13623850572296 0,0 -115.967428,36.293759" />
      <line x1="-96.145097" y1="32.405585" x2="-97.626984" y2="32.689689" />
      <path d="M -100.986151,42.871871 A 5.0,3.620891854720831 103.13623850572296 0,0 -96.145097,37.292451" />
      <path d="M -99.849815,40.055193 A 2.1,1.520774578982749 103.13623850572296 0,0 -99.372554,35.957661" />
      <path d="M -99.372554,35.957661 A 2.1,1.520774578982749 103.13623850572296 0,0 -100.327076,40.047757" />
      <path d="M -100.327076,40.047757 A 2.1,1.520774578982749 103.13623850572296 0,0 -99.849815,40.055193" />
      <path d="M -79.646321,22.076175 A 5.0,3.2818585826378435 79.1470969516463 0,1 -81.269103,13.611723" />
      <path d="M -67.614589,47.57806 A 2.1,1.520774578982749 -76.86376149427704 0,1 -68.09185,47.570625" />
      <path d="M -68.09185,47.570625 A 2.1,1.520774578982749 -76.86376149427704 0,1 -67.137327,43.480529" />
      <path d="M -67.137327,43.480529 A 2.1,1.520774578982749 -76.86376149427704 0,1 -67.614589,47.57806" />
      <path d="M -67.614589,47.480323 A 2.0,1.4483567418883323 -76.86376149427704 0,1 -68.069123,47.473242" />
      <path d="M -68.069123,47.473242 A 2.000000140978811,1.448356843982138 -76.86376149427704 0,1 -67.160054,43.577912" />
      <path d="M -67.160054,43.577912 A 2.0,1.4483567418883323 -76.86376149427704 0,1 -67.614589,47.480323" />
      <path d="M -148.202654,28.673154 A 2.0,1.4483567418883323 -76.86376149427704 0,1 -148.657189,28.666073" />
      <path d="M -148.657189,28.666073 A 2.000000140978809,1.4483568439821366 -76.86376149427704 0,1 -147.74812,24.770743" />
      <path d="M -147.74812,24.770743 A 2.0,1.4483567418883323 -76.86376149427704 0,1 -148.202654,28.673154" />
      <path d="M -79.228462,20.757451 A 3.9,2.5598496944575175 -100.85290304835371 0,0 -79.074093,20.448763" />
      <path d="M -83.279866,14.996614 A 3.9,2.5598496944575175 -100.85290304835371 0,0 -83.759488,15.981756" />
      <path d="M -83.279866,14.996614 C -83.749091,14.822086 -84.282569,14.624586 -84.900483,14.396641" />
      <path d="M -79.028565,20.700894 Q -78.923558,20.163984 -78.847354,19.75548" />
      <path d="M -79.074093,20.448763 A 3.9,2.5598496944575175 -100.85290304835371 0,0 -78.847354,19.75548" />
      <path d="M -78.930678,19.758943 Q -78.782665,19.419682 -78.714451,19.015751" />
      <path d="M -79.245791,16.152759 C -79.405835,15.889795 -79.586418,15.670259 -79.787538,15.494153 C -80.139549,15.18539 -80.538146,15.038415 -80.906979,15.081146 C -81.266512,15.120429 -81.595718,15.339561 -81.831583,15.699402 C -82.06236,16.04807 -82.203244,16.528387 -82.225621,17.054676 C -82.248808,17.566484 -82.159375,18.119244 -81.969671,18.615304 C -81.784569,19.103127 -81.503489,19.533691 -81.1727,19.830257 C -80.848356,20.123175 -80.477553,20.285095 -80.122753,20.286195" />
      <path d="M -78.851004,19.375709 A 2.5,1.6409292913189217 79.14709695164629 0,1 -80.122753,20.286195" />
      <line x1="-78.930678" y1="19.758943" x2="-78.907174" y2="19.645885" />
      <line x1="-83.279866" y1="14.996614" x2="-78.847354" y2="19.75548" />
      <path d="M -78.907174,19.645885 L -78.884369,19.750064" />
      <path d="M -78.884369,19.750064 L -78.930678,19.758943" />
      <path d="M -78.768476,17.188443 C -78.627445,17.712141 -78.595996,18.317915 -78.691999,18.882298" />
      <path d="M -78.691999,18.882298 Q -78.759941,19.286048 -78.907174,19.645885" />
      <path d="M -78.768476,17.188443 A 2.5,1.6409292913189217 79.14709695164629 0,1 -78.670814,18.756383" />
      <path d="M -78.670814,18.756383 A 2.5,1.6409292913189217 79.14709695164629 0,1 -78.851004,19.375709" />
      <path d="M -80.122753,20.286195 Q -80.000165,20.275135 -79.883404,20.236511" />
      <path d="M -78.875004,19.349942 A 2.458734122635,1.6138435365588406 79.14709695164629 0,1 -79.842039,20.229427" />
      <path d="M -79.842039,20.229427 A 2.458734122635,1.6138435365588406 79.14709695164629 0,1 -79.883404,20.236511" />
      <path d="M -78.711605,17.556157 A 2.458734122635,1.6138435365588406 79.14709695164629 0,1 -78.875004,19.349942" />
      <path d="M -78.711605,17.556157 Q -78.730788,17.37158 -78.768476,17.188443" />
      <path d="M -73.595353,18.337742 C -73.35746,17.859801 -73.262733,17.232266 -73.328224,16.617776 C -73.391446,15.996606 -73.617197,15.396288 -73.937389,14.975201 C -74.301266,14.488904 -74.783186,14.248648 -75.207796,14.333937" />
      <path d="M -75.207796,14.333937 C -75.482792,14.385933 -75.73214,14.568849 -75.914788,14.854364 C -76.146365,15.212255 -76.268488,15.733208 -76.246084,16.294076 C -76.226219,16.847754 -76.065288,17.435319 -75.793834,17.921111 C -75.447474,18.55042 -74.918681,18.995195 -74.386762,19.091354 C -74.225355,19.121718 -74.066909,19.122075 -73.911423,19.092425" />
      <path d="M -73.911423,19.092425 C -73.477381,19.011609 -73.093299,18.6838 -72.85441,18.19569" />
      <path d="M -72.85441,18.19569 L -72.308495,18.489356" />
      <path d="M -72.308495,18.489355 C -72.59336,19.083659 -73.055385,19.48233 -73.578391,19.579701" />
      <path d="M -73.578391,19.579701 C -74.115663,19.685947 -74.710863,19.470688 -75.203925,18.996661 C -75.699041,18.527612 -76.085479,17.806535 -76.262387,17.039633 C -76.4434,16.273518 -76.412791,15.472485 -76.188,14.865418 C -75.966958,14.254485 -75.555318,13.846198 -75.078592,13.758043" />
      <path d="M -75.078592,13.758043 C -74.603065,13.663635 -74.069611,13.890731 -73.638295,14.376596 C -73.204924,14.857483 -72.880231,15.590399 -72.765068,16.369138 C -72.645802,17.147089 -72.738155,17.95996 -73.024692,18.578866 C -73.307478,19.201637 -73.780865,19.621759 -74.319336,19.721752" />
      <path d="M -74.319336,19.721752 C -74.792532,19.814452 -75.310975,19.660821 -75.764561,19.296461" />
      <path d="M -75.913871,19.167855 C -76.373469,18.744706 -76.744758,18.105952 -76.944163,17.408636 C -77.146478,16.712246 -77.175147,15.964469 -77.030114,15.348924" />
      <path d="M -76.900313,14.932765 Q -76.85932,14.83055 -76.811453,14.736478" />
      <path d="M -76.758783,14.639068 C -76.526492,14.232524 -76.19198,13.970253 -75.819537,13.900095" />
      <path d="M -75.819537,13.900095 C -75.34401,13.805687 -74.810555,14.032782 -74.379239,14.518647 C -73.945868,14.999534 -73.621175,15.732449 -73.506012,16.511188 C -73.386745,17.289141 -73.479099,18.102011 -73.765635,18.720916 C -74.048422,19.343687 -74.521808,19.763811 -75.060279,19.863804" />
      <path d="M -75.060279,19.863804 C -75.612895,19.973364 -76.226658,19.741739 -76.727751,19.239925 C -77.0905,18.880615 -77.393446,18.386995 -77.591121,17.839932 C -77.789996,17.293463 -77.882836,16.695949 -77.858291,16.145129 C -77.835078,15.593765 -77.694683,15.091512 -77.463628,14.720639 C -77.233596,14.348265 -76.914007,14.108908 -76.56048,14.042147" />
      <path d="M -76.56048,14.042147 C -76.084952,13.947738 -75.551498,14.174834 -75.120182,14.660699 C -74.686811,15.141586 -74.362119,15.874501 -74.246956,16.65324 C -74.127689,17.431192 -74.220042,18.244062 -74.506579,18.862968 C -74.789365,19.485739 -75.262751,19.905863 -75.801222,20.005856" />
      <path d="M -75.801222,20.005856 C -76.346165,20.113754 -76.950638,19.890394 -77.447787,19.402542 C -77.947151,18.919903 -78.33222,18.180107 -78.500015,17.400263 C -78.64719,16.731141 -78.635025,16.039908 -78.4721,15.479528 C -78.311459,14.91712 -78.001605,14.490209 -77.616507,14.293702" />
      <path d="M -77.586807,14.278896 Q -77.448831,14.212494 -77.301423,14.184199" />
      <path d="M -77.301423,14.184199 C -76.825896,14.08979 -76.292442,14.316886 -75.861126,14.802751 C -75.427755,15.283638 -75.103062,16.016553 -74.987899,16.795292 C -74.868632,17.573244 -74.960986,18.386114 -75.247523,19.00502 C -75.530309,19.62779 -76.003694,20.047915 -76.542166,20.147907" />
      <path d="M -76.542166,20.147907 Q -76.602494,20.159473 -76.6637,20.165931" />
      <path d="M -76.87342,20.17307 C -77.265076,20.159693 -77.669418,19.989366 -78.029997,19.687842 C -78.391035,19.387668 -78.7071,18.957384 -78.934771,18.461104 C -79.16336,17.965496 -79.302818,17.405677 -79.335786,16.864875 C -79.369854,16.323867 -79.29739,15.80382 -79.132307,15.382095 C -78.959814,14.937521 -78.685435,14.603769 -78.357452,14.435754" />
      <path d="M -77.614363,20.315122 C -78.109126,20.299216 -78.623425,20.02887 -79.045491,19.567374 C -79.469052,19.108885 -79.79682,18.463436 -79.959858,17.78045 C -80.125526,17.098011 -80.125233,16.38423 -79.965371,15.804221 C -79.808034,15.222042 -79.492805,14.778915 -79.098394,14.577805" />
      <path d="M -78.355307,20.457173 C -78.85007,20.441268 -79.364369,20.170922 -79.786434,19.709427 C -80.209995,19.250938 -80.537763,18.605489 -80.700802,17.922502 C -80.86647,17.240064 -80.866177,16.526283 -80.706315,15.946274 C -80.548978,15.364095 -80.233749,14.920968 -79.839338,14.719857" />
      <path d="M -79.001537,20.599676 C -79.532568,20.616697 -80.094973,20.334458 -80.547605,19.82926 C -81.002289,19.328076 -81.342028,18.610144 -81.484678,17.86722 C -81.63094,17.124669 -81.578713,16.366261 -81.349723,15.794475 C -81.123931,15.219218 -80.724515,14.837654 -80.265198,14.752406" />
      <path d="M -80.265198,14.752406 Q -80.198953,14.739707 -80.131395,14.734872" />
      <path d="M -78.977977,20.50389 Q -79.226988,20.662368 -79.505941,20.716114" />
      <path d="M -79.505941,20.716114 C -80.043213,20.82236 -80.638412,20.607102 -81.131474,20.133075 C -81.62659,19.664026 -82.013028,18.942948 -82.189936,18.176047 C -82.370949,17.409933 -82.34034,16.6089 -82.115549,16.001832 C -81.894508,15.390899 -81.482868,14.982612 -81.006142,14.894457" />
      <path d="M -81.006142,14.894457 C -80.59394,14.813569 -80.137882,14.97098 -79.74301,15.333559" />
      <path d="M -79.883404,20.236511 L -79.838972,20.228839" />
      <path d="M -79.838972,20.228839 C -79.404902,20.147991 -79.020847,19.820224 -78.781959,19.332104" />
      <path d="M -78.781959,19.332104 Q -78.677582,19.120424 -78.609952,18.876715" />
      <path d="M -79.141368,15.946843 C -79.503032,15.47544 -79.976601,15.244523 -80.394402,15.328299" />
      <path d="M -80.394402,15.328299 C -80.533045,15.355052 -80.662703,15.412773 -80.783379,15.501462 C -81.010612,15.6682 -81.194431,15.944004 -81.306475,16.290113 C -81.419256,16.635501 -81.460058,17.05081 -81.42036,17.477818 C -81.373843,17.991959 -81.209456,18.521254 -80.954341,18.961533 C -80.682729,19.43426 -80.30846,19.800931 -79.908508,19.979084 C -79.639774,20.100139 -79.360571,20.137457 -79.098029,20.086787" />
      <path d="M -79.098029,20.086787 C -78.663948,20.005938 -78.279899,19.678161 -78.041015,19.190052" />
      <path d="M -78.041015,19.190052 Q -77.936642,18.978381 -77.869009,18.734663" />
      <path d="M -78.400424,15.804792 Q -78.573551,15.58157 -78.772037,15.431865" />
      <path d="M -79.653458,15.186248 C -79.90302,15.233592 -80.131715,15.388327 -80.308159,15.630357 C -80.485086,15.871567 -80.60951,16.199909 -80.663091,16.573083 C -80.724592,16.99453 -80.694719,17.473179 -80.574674,17.931209 C -80.455709,18.389486 -80.246642,18.82643 -79.977615,19.170876 C -79.527703,19.755752 -78.907154,20.056126 -78.357085,19.944735" />
      <path d="M -78.357085,19.944735 C -77.922986,19.863876 -77.538968,19.536118 -77.300071,19.048" />
      <path d="M -77.300071,19.048 Q -77.195733,18.836421 -77.128065,18.592611" />
      <path d="M -77.659482,15.662738 C -78.021091,15.191385 -78.494754,14.960387 -78.912515,15.044196" />
      <path d="M -79.026628,15.073853 L -79.10444,15.103465" />
      <path d="M -79.267955,15.193626 Q -79.311088,15.222912 -79.352248,15.257113" />
      <path d="M -79.527456,15.436434 L -79.576507,15.501157" />
      <path d="M -79.589535,15.519674 C -79.932523,16.005073 -80.048669,16.832957 -79.870048,17.637052 C -79.73987,18.244489 -79.448727,18.826673 -79.065952,19.227658 C -78.637898,19.682929 -78.099332,19.89894 -77.616141,19.802684" />
      <path d="M -77.616141,19.802684 L -77.59412,19.798252" />
      <path d="M -76.624572,19.028817 Q -76.590316,18.969121 -76.559128,18.905948" />
      <path d="M -76.559128,18.905948 Q -76.454757,18.694284 -76.387121,18.450558" />
      <path d="M -76.918537,15.520688 Q -77.091663,15.297467 -77.290149,15.147762" />
      <path d="M -78.171571,14.902144 C -78.576264,14.976518 -78.92133,15.341769 -79.089617,15.8826 C -79.240902,16.356975 -79.253944,16.960364 -79.118463,17.542576 C -78.979813,18.150961 -78.67991,18.729046 -78.290869,19.120897 C -77.86862,19.552476 -77.345786,19.754077 -76.875198,19.660632" />
      <path d="M -76.875198,19.660632 C -76.441106,19.579785 -76.057079,19.252006 -75.818184,18.763897" />
      <path d="M -75.818184,18.763897 Q -75.713811,18.552226 -75.646177,18.308506" />
      <path d="M -75.532429,17.326008 C -75.546036,16.811847 -75.671647,16.291541 -75.881139,15.861473" />
      <path d="M -77.430627,14.760093 C -77.620481,14.797079 -77.791861,14.890538 -77.944766,15.040469 C -78.244747,15.333386 -78.4388,15.840445 -78.467149,16.424754 C -78.496646,16.976509 -78.377855,17.591043 -78.13259,18.118945 C -77.927964,18.563473 -77.635898,18.945141 -77.303894,19.195652 C -76.972406,19.447887 -76.601538,19.568471 -76.252599,19.535329 C -76.212833,19.531664 -76.173385,19.526081 -76.134254,19.51858" />
      <path d="M -76.134254,19.51858 C -75.700158,19.437729 -75.316118,19.109938 -75.077241,18.621845" />
      <path d="M -75.077241,18.621845 C -74.915318,18.294769 -74.818137,17.898754 -74.795509,17.483807 C -74.762421,16.907833 -74.876224,16.29819 -75.103261,15.798323 C -75.335233,15.281242 -75.685048,14.886257 -76.057694,14.711105 C -76.271959,14.610184 -76.482622,14.579163 -76.689684,14.618041" />
      <path d="M -76.689684,14.618041 L -76.69608,14.619291" />
      <path d="M -76.803797,14.647697 L -76.881609,14.677309" />
      <path d="M -77.045124,14.76747 Q -77.08826,14.79676 -77.129417,14.830958" />
      <path d="M -77.304625,15.010278 L -77.353676,15.075002" />
      <path d="M -77.366704,15.093519 Q -77.405494,15.14954 -77.44064,15.21103" />
      <path d="M -77.635664,15.69403 C -77.780807,16.224197 -77.759252,16.894929 -77.568304,17.513401 C -77.412048,18.027191 -77.14219,18.500837 -76.807941,18.837848 C -76.38591,19.268739 -75.863361,19.469898 -75.393311,19.376528" />
      <path d="M -75.393311,19.376528 C -74.959224,19.295679 -74.575187,18.967905 -74.336297,18.479793" />
      <path d="M -74.336297,18.479793 C -74.133972,18.072091 -74.033982,17.556403 -74.050836,17.031819 C -74.068255,16.41562 -74.248571,15.792918 -74.536765,15.325451 C -74.805697,14.884077 -75.166198,14.583246 -75.527703,14.491871 C -75.671125,14.455131 -75.81147,14.449838 -75.94874,14.475989" />
      <path d="M -75.94874,14.475989 Q -76.252431,14.535339 -76.491829,14.785886" />
      <path d="M -76.563681,14.868227 L -76.612733,14.932951" />
      <path d="M -76.62576,14.951467 Q -76.66455,15.007487 -76.699696,15.068978" />
      <path d="M -76.89472,15.551978 Q -76.925335,15.665395 -76.94625,15.786362" />
      <path d="M -76.497104,18.129111 C -76.307603,18.452606 -76.070533,18.726554 -75.809692,18.920807" />
      <path d="M -75.575675,19.070939 C -75.272911,19.235277 -74.951826,19.292439 -74.652367,19.234477" />
      <path d="M -74.652367,19.234477 C -74.218308,19.153635 -73.834237,18.82586 -73.595353,18.337742" />
      <path d="M -72.215877,18.471599 L -72.308495,18.489355" />
      <path d="M -72.215877,18.471599 C -72.500742,19.065903 -72.962767,19.464573 -73.485773,19.561944" />
      <path d="M -73.485773,19.561944 C -74.023046,19.66819 -74.618245,19.452932 -75.111307,18.978905 C -75.606423,18.509856 -75.992861,17.788778 -76.169769,17.021876 C -76.350782,16.255762 -76.320173,15.454729 -76.095382,14.847661 C -75.874341,14.236728 -75.4627,13.828442 -74.985974,13.740287" />
      <path d="M -74.985974,13.740287 C -74.510447,13.645879 -73.976993,13.872974 -73.545677,14.35884 C -73.112306,14.839727 -72.787613,15.572642 -72.67245,16.351381 C -72.553184,17.129333 -72.645538,17.942204 -72.932074,18.561109 C -73.21486,19.18388 -73.688247,19.604003 -74.226718,19.703996" />
      <path d="M -74.226718,19.703996 C -74.242071,19.706684 -74.257425,19.709373 -74.272778,19.712061 C -74.809424,19.800303 -75.398524,19.571167 -75.883751,19.090436 C -76.371038,18.614484 -76.748198,17.893585 -76.918232,17.131187 C -77.092273,16.369487 -77.057247,15.576828 -76.831541,14.976745 C -76.609472,14.372875 -76.200216,13.969925 -75.726919,13.882339" />
      <path d="M -75.726919,13.882339 C -75.251392,13.78793 -74.717937,14.015026 -74.286621,14.500891 C -73.85325,14.981777 -73.528557,15.714692 -73.413394,16.493432 C -73.294127,17.271384 -73.386481,18.084255 -73.673017,18.70316 C -73.955804,19.32593 -74.42919,19.746055 -74.967661,19.846048" />
      <path d="M -74.967661,19.846048 C -75.520278,19.955607 -76.13404,19.723982 -76.635133,19.222169 C -76.997882,18.862858 -77.300828,18.369238 -77.498503,17.822176 C -77.697378,17.275706 -77.790218,16.678193 -77.765673,16.127372 C -77.74246,15.576008 -77.602065,15.073756 -77.37101,14.702883 C -77.140979,14.330509 -76.821389,14.091151 -76.467862,14.02439" />
      <path d="M -76.467862,14.02439 C -75.992334,13.929982 -75.45888,14.157078 -75.027564,14.642943 C -74.594194,15.12383 -74.269501,15.856745 -74.154338,16.635484 C -74.035071,17.413436 -74.127424,18.226306 -74.413961,18.845211 C -74.696747,19.467982 -75.170133,19.888107 -75.708604,19.988099" />
      <path d="M -75.708604,19.988099 C -76.253547,20.095998 -76.85802,19.872637 -77.355169,19.384786 C -77.854533,18.902147 -78.239602,18.16235 -78.407397,17.382507 C -78.574528,16.625331 -78.535166,15.841053 -78.308589,15.247936 C -78.085537,14.651109 -77.678676,14.253458 -77.208805,14.166442" />
      <path d="M -77.208805,14.166442 C -76.733278,14.072034 -76.199824,14.299129 -75.768508,14.784994 C -75.335137,15.265881 -75.010444,15.998796 -74.895281,16.777535 C -74.776015,17.555487 -74.868368,18.368358 -75.154905,18.987263 C -75.437691,19.610034 -75.911076,20.030158 -76.449548,20.130151" />
      <path d="M -76.449548,20.130151 Q -76.533802,20.146302 -76.619691,20.152486" />
      <path d="M -76.829298,20.152783 C -77.217888,20.127087 -77.616542,19.947929 -77.970713,19.641825 C -78.32534,19.337003 -78.634344,18.906294 -78.856147,18.412608 C -79.078837,17.919551 -79.213638,17.36522 -79.244171,16.830406 C -79.275762,16.295385 -79.203054,15.781726 -79.039689,15.364338 C -78.822215,14.801264 -78.439637,14.420038 -77.995875,14.31833" />
      <path d="M -77.236945,20.28033 C -77.769187,20.367627 -78.353019,20.143025 -78.835861,19.670053 C -79.320676,19.201731 -79.698476,18.49137 -79.873484,17.736421 C -80.052358,16.982222 -80.026494,16.193536 -79.811403,15.589409 C -79.599871,14.981704 -79.202349,14.566688 -78.736817,14.460382" />
      <path d="M -77.977888,20.422382 C -78.51013,20.509679 -79.093962,20.285077 -79.576804,19.812105 C -80.061618,19.343784 -80.439419,18.633423 -80.614428,17.878473 C -80.793302,17.124274 -80.767437,16.335588 -80.552347,15.731461 C -80.340815,15.123757 -79.943294,14.708739 -79.477761,14.602433" />
      <path d="M -78.718832,20.564434 C -79.255472,20.652525 -79.84452,20.423271 -80.32968,19.942484 C -80.816899,19.466475 -81.19398,18.745578 -81.363957,17.983219 C -81.537938,17.221557 -81.502876,16.428968 -81.277162,15.828945 C -81.055084,15.225135 -80.645849,14.82223 -80.17258,14.734649" />
      <path d="M -80.17258,14.734649 L -80.136213,14.728286" />
      <path d="M -78.988239,20.546484 Q -79.191896,20.6558 -79.413323,20.698358" />
      <path d="M -79.413323,20.698358 C -79.950595,20.804604 -80.545794,20.589346 -81.038856,20.115318 C -81.533972,19.646269 -81.92041,18.925192 -82.097318,18.15829 C -82.278331,17.392176 -82.247722,16.591143 -82.022931,15.984076 C -81.80189,15.373142 -81.39025,14.964856 -80.913524,14.876701" />
      <path d="M -80.913524,14.876701 C -80.570489,14.810028 -80.196969,14.906202 -79.853761,15.151104" />
      <path d="M -78.809779,19.58236 Q -78.844886,19.668416 -78.884369,19.750064" />
      <path d="M -84.969509,14.378137 Q -84.935273,14.383832 -84.900483,14.396641" />
      <path d="M -78.711605,17.556157 C -78.776957,17.044209 -78.950938,16.551348 -79.196371,16.168925 C -79.569848,15.577458 -80.109923,15.267989 -80.580492,15.363976" />
      <path d="M -80.580492,15.363976 C -80.803782,15.406465 -81.010486,15.534507 -81.17784,15.73477 C -81.453758,16.061244 -81.618313,16.585875 -81.621147,17.171033 C -81.628263,17.82748 -81.428103,18.550843 -81.074381,19.106585 C -80.681227,19.736421 -80.100467,20.135878 -79.547245,20.144072 C -79.458243,20.146217 -79.370535,20.139014 -79.284119,20.122464" />
      <path d="M -79.284119,20.122464 C -78.850033,20.041616 -78.466005,19.713848 -78.227105,19.225728" />
      <path d="M -72.215877,18.471599 L -72.299556,18.089315" />
      <path d="M -73.040499,18.231366 C -72.813835,17.775517 -72.716638,17.183884 -72.765456,16.596873 C -72.816688,15.94271 -73.049783,15.302807 -73.38751,14.862263 C -73.750775,14.380257 -74.230288,14.14271 -74.652943,14.227562" />
      <path d="M -74.652943,14.227562 C -74.917702,14.277696 -75.158788,14.448959 -75.339297,14.716678 C -75.556812,15.036292 -75.684935,15.494571 -75.693156,15.999493 C -75.704513,16.561126 -75.5655,17.176223 -75.302997,17.693904 C -74.9854,18.330056 -74.484385,18.806392 -73.963532,18.953472 C -73.757615,19.012882 -73.555294,19.023741 -73.356569,18.98605" />
      <path d="M -73.356569,18.98605 C -72.922591,18.905271 -72.538431,18.57742 -72.299556,18.089315" />
      <path d="M -73.781443,18.373418 C -73.554074,17.916173 -73.457017,17.322349 -73.506836,16.733586 C -73.545954,16.252733 -73.681237,15.778167 -73.886603,15.38728 C -74.137086,14.906246 -74.492382,14.55647 -74.859855,14.421125 C -75.041532,14.353781 -75.219543,14.336611 -75.393886,14.369614" />
      <path d="M -75.393886,14.369614 C -75.59225,14.40834 -75.77017,14.508397 -75.927645,14.669783 C -76.298436,15.045209 -76.493417,15.757378 -76.419844,16.519136 C -76.377451,16.986003 -76.238235,17.4662 -76.021417,17.879829 C -75.805551,18.294272 -75.512314,18.641449 -75.186411,18.863331 C -74.837592,19.102859 -74.452373,19.197228 -74.097513,19.128102" />
      <path d="M -74.097513,19.128102 C -73.663472,19.047269 -73.279375,18.719481 -73.040499,18.231366" />
      <path d="M -74.522387,18.51547 C -74.330986,18.129588 -74.230742,17.646405 -74.235321,17.150998 C -74.238515,16.655747 -74.346399,16.149222 -74.535615,15.720657 C -74.785062,15.148677 -75.178655,14.72258 -75.589963,14.567283 C -75.775278,14.496548 -75.9569,14.478009 -76.13483,14.511666" />
      <path d="M -76.13483,14.511666 C -76.338209,14.551424 -76.519929,14.655452 -76.67999,14.82375 C -76.956564,15.114164 -77.136337,15.591929 -77.169348,16.140998 C -77.207128,16.721111 -77.078755,17.374843 -76.810533,17.92607 C -76.597096,18.369063 -76.296786,18.743935 -75.958334,18.983776 C -75.601449,19.238972 -75.203856,19.341432 -74.838457,19.270153" />
      <path d="M -74.838457,19.270153 C -74.404405,19.189315 -74.020321,18.861532 -73.781443,18.373418" />
      <path d="M -75.26333,18.657522 C -75.063693,18.255159 -74.963602,17.747663 -74.977296,17.230183 C -74.989464,16.714118 -75.114606,16.19113 -75.324463,15.758861 C -75.580448,15.225618 -75.963488,14.837005 -76.359283,14.698839 C -76.535068,14.636813 -76.707231,14.621772 -76.875774,14.653718" />
      <path d="M -76.90387,14.659566 Q -77.076954,14.698583 -77.231214,14.803147" />
      <path d="M -77.385114,14.929387 C -77.681544,15.215794 -77.87595,15.710157 -77.910272,16.282739 C -77.944484,16.812494 -77.841347,17.403827 -77.617966,17.922209 C -77.494142,18.211372 -77.334106,18.478152 -77.148857,18.701997" />
      <path d="M -76.801441,19.048263 Q -76.703572,19.127342 -76.601458,19.191142" />
      <path d="M -76.366233,19.314902 Q -76.207357,19.383258 -76.046479,19.412667" />
      <path d="M -75.960948,19.425459 Q -75.766738,19.448027 -75.5794,19.412205" />
      <path d="M -75.5794,19.412205 C -75.145315,19.331358 -74.761287,19.003589 -74.522387,18.51547" />
      <path d="M -77.550063,14.785539 L -77.616717,14.795769" />
      <path d="M -77.616717,14.795769 C -77.974183,14.862301 -78.286484,15.153609 -78.469212,15.596233 C -78.657215,16.043342 -78.708909,16.641952 -78.603682,17.238083 C -78.525465,17.689848 -78.358995,18.137956 -78.126473,18.512987 C -77.894696,18.888854 -77.597124,19.191101 -77.276031,19.372764 C -76.964046,19.550629 -76.630568,19.61438 -76.320344,19.554257" />
      <path d="M -76.320344,19.554257 C -75.886294,19.473416 -75.502206,19.145639 -75.26333,18.657522" />
      <path d="M -76.745218,18.941625 C -76.562178,18.572385 -76.462297,18.114318 -76.458217,17.641457 C -76.452982,17.168766 -76.543441,16.682079 -76.711181,16.260007 C -76.922044,15.723896 -77.257195,15.296625 -77.625365,15.083947 C -77.867035,14.942608 -78.121449,14.892133 -78.357661,14.937821" />
      <path d="M -78.357661,14.937821 C -78.481656,14.961704 -78.598679,15.01053 -78.708728,15.084297 C -78.961336,15.252984 -79.164452,15.553415 -79.281136,15.935717 C -79.39887,16.317023 -79.429863,16.779583 -79.365358,17.246848 C -79.291265,17.795672 -79.084438,18.348197 -78.784202,18.782588 C -78.449007,19.272749 -77.99828,19.607084 -77.545994,19.693435 C -77.38141,19.725575 -77.219841,19.726533 -77.061288,19.696309" />
      <path d="M -77.061288,19.696309 C -76.627234,19.615489 -76.24316,19.287675 -76.004274,18.799573" />
      <path d="M -77.486161,19.083677 C -77.271358,18.651236 -77.172376,18.097 -77.204872,17.539972 C -77.237116,16.948008 -77.418007,16.358396 -77.696717,15.912994 C -78.055375,15.329825 -78.574996,15.008098 -79.038754,15.070456 C -79.058704,15.073595 -79.078654,15.076734 -79.098604,15.079873" />
      <path d="M -79.098604,15.079873 L -79.126701,15.085721" />
      <path d="M -79.36767,15.176673 Q -79.411709,15.200558 -79.454045,15.229302" />
      <path d="M -79.607945,15.355543 L -79.66174,15.411388" />
      <path d="M -79.681931,15.434191 C -80.043249,15.844036 -80.214217,16.591114 -80.10929,17.366555 C -80.031083,17.977286 -79.786749,18.593988 -79.433507,19.050616 C -79.073181,19.522302 -78.602311,19.818823 -78.14398,19.855641 C -78.028129,19.865544 -77.914213,19.859784 -77.802231,19.83836" />
      <path d="M -77.802231,19.83836 Q -77.68676,19.816208 -77.576522,19.772168" />
      <path d="M -79.772894,15.211695 L -79.839548,15.221924" />
      <path d="M -79.839548,15.221924 C -79.962086,15.245523 -80.077834,15.293497 -80.186793,15.365846 C -80.422562,15.521962 -80.615824,15.792158 -80.735951,16.13727 C -80.856852,16.481591 -80.904401,16.900416 -80.868813,17.333285 C -80.822756,17.916509 -80.622845,18.522126 -80.311485,18.998804 C -80.014197,19.458589 -79.617056,19.79544 -79.204961,19.930776 C -78.980703,20.004884 -78.760108,20.021429 -78.543175,19.980412" />
      <path d="M -78.543175,19.980412 C -78.109209,19.899641 -77.725033,19.571781 -77.486161,19.083677" />
      <path d="M -72.964328,14.790164 C -72.958589,14.800607 -72.953432,14.809779 -72.932405,14.846185 C -72.923945,14.860508 -72.908224,14.888349 -72.885241,14.929706 C -72.852814,14.988462 -72.809931,15.072221 -72.772885,15.155631 C -72.641821,15.448004 -72.546325,15.78974 -72.502143,16.145831 C -72.41011,16.859433 -72.532621,17.6301 -72.85441,18.19569" />
      <path d="M -72.308495,18.489356 C -72.114549,17.857675 -72.09719,17.095971 -72.249954,16.392949 C -72.381322,15.777831 -72.637571,15.211782 -72.964328,14.790164" />
      <path d="M -72.964328,14.790164 L -72.87171,14.772407" />
      <path d="M -72.215877,18.471599 C -72.052683,17.937975 -72.013308,17.31175 -72.09878,16.706271" />
      <path d="M -72.09878,16.706271 C -72.200631,15.967199 -72.486486,15.268334 -72.87171,14.772407" />
      <path d="M -72.87171,14.772407 C -72.867038,14.777124 -72.860145,14.784456 -72.851029,14.794401 C -72.840665,14.805951 -72.828614,14.818965 -72.799079,14.854937 C -72.769081,14.891082 -72.704097,14.975828 -72.645403,15.066524 C -72.594925,15.143905 -72.54715,15.225402 -72.502076,15.311014 C -72.312194,15.671185 -72.1813,16.089381 -72.125555,16.510115" />
      <path d="M -72.125555,16.510115 C -72.048627,17.078863 -72.11206,17.649212 -72.299556,18.089315" />
      <path d="M -72.206511,18.071476 A 2.458734122635,1.6138435365588406 79.14709695164629 0,1 -73.173546,18.950961" />
      <path d="M -73.173546,18.950961 A 2.458734122635,1.6138435365588406 79.14709695164629 0,1 -74.099447,14.121448" />
      <path d="M -74.099447,14.121448 A 2.458734122635,1.6138435365588406 79.14709695164629 0,1 -72.206511,18.071476" />
      <line x1="-131.631456" y1="1.762009" x2="-124.22202" y2="0.341492" />
      <line x1="-130.501727" y1="7.654692" x2="-123.092291" y2="6.234175" />
      <line x1="-104.768768" y1="8.031065" x2="-97.359332" y2="6.610548" />
      <line x1="-103.639039" y1="13.923748" x2="-96.229602" y2="12.503231" />
      <line x1="-77.906079" y1="14.300122" x2="-70.496643" y2="12.879604" />
      <line x1="-76.77635" y1="20.192805" x2="-69.366914" y2="18.772287" />
      <line x1="-73.342877" y1="64.171252" x2="-69.638158" y2="54.996694" />
      <line x1="-67.779343" y1="66.417826" x2="-64.074625" y2="57.243268" />
      <line x1="-100.205565" y1="57.902196" x2="-96.500847" y2="48.727638" />
      <line x1="-94.642032" y1="60.14877" x2="-90.937313" y2="50.974212" />
      <line x1="-127.068254" y1="51.633139" x2="-123.363535" y2="42.458582" />
      <line x1="-121.50472" y1="53.879714" x2="-117.800002" y2="44.705156" />
      <line x1="-114.831092" y1="29.372113" x2="-115.385228" y2="29.242792" />
      <line x1="-82.595865" y1="36.894981" x2="-83.150002" y2="36.76566" />
      <line x1="-63.879414" y1="57.387068" x2="-61.551529" y2="56.227604" />
      <line x1="-69.878485" y1="54.964622" x2="-70.748533" y2="52.513822" />
      <line x1="-90.742103" y1="51.118012" x2="-88.414218" y2="49.958548" />
      <line x1="-96.741174" y1="48.695566" x2="-97.611222" y2="46.244766" />
      <line x1="-117.604791" y1="44.848955" x2="-115.276906" y2="43.689492" />
      <line x1="-123.603862" y1="42.42651" x2="-124.47391" y2="39.975709" />
      <line x1="-116.444689" y1="36.286324" x2="-132.562302" y2="32.52489" />
      <line x1="-115.490167" y1="32.196227" x2="-131.60778" y2="28.434794" />
      <line x1="-84.209463" y1="43.809191" x2="-100.327076" y2="40.047757" />
      <line x1="-83.254941" y1="39.719095" x2="-99.372554" y2="35.957661" />
      <line x1="-133.221378" y1="35.349004" x2="-133.596281" y2="35.261511" />
      <line x1="-100.986151" y1="42.871871" x2="-101.361055" y2="42.784379" />
      <line x1="-76.152929" y1="14.846052" x2="-77.001376" y2="13.850565" />
      <line x1="-75.349414" y1="19.037196" x2="-75.76953" y2="20.275889" />
      <line x1="-103.015618" y1="8.576996" x2="-103.864064" y2="7.581509" />
      <line x1="-102.212103" y1="12.76814" x2="-102.632218" y2="14.006832" />
      <line x1="-129.878306" y1="2.30794" x2="-130.726753" y2="1.312453" />
      <line x1="-129.074791" y1="6.499084" x2="-129.494907" y2="7.737776" />
      <line x1="-132.562302" y1="32.52489" x2="-148.679916" y2="28.763456" />
      <line x1="-131.60778" y1="28.434794" x2="-147.725393" y2="24.67336" />
      <line x1="-68.09185" y1="47.570625" x2="-84.209463" y2="43.809191" />
      <line x1="-67.137327" y1="43.480529" x2="-83.254941" y2="39.719095" />
      <line x1="-100.327076" y1="40.047757" x2="-116.444689" y2="36.286324" />
      <line x1="-99.372554" y1="35.957661" x2="-115.490167" y2="32.196227" />
      <line x1="-147.74812" y1="24.770743" x2="-67.160054" y2="43.577912" />
      <line x1="-148.657189" y1="28.666073" x2="-68.069123" y2="47.473242" />
      <line x1="-78.670814" y1="18.756383" x2="-78.691999" y2="18.882298" />
      <path d="M -73.485773,19.561944 L -73.578391,19.579701" />
      <path d="M -74.985974,13.740287 L -75.078592,13.758043" />
      <path d="M -74.226718,19.703996 L -74.319336,19.721752" />
      <path d="M -75.726919,13.882339 L -75.819537,13.900095" />
      <path d="M -74.967661,19.846048 L -75.060279,19.863804" />
      <path d="M -76.467862,14.02439 L -76.56048,14.042147" />
      <path d="M -75.708604,19.988099 L -75.801222,20.005856" />
      <path d="M -77.208805,14.166442 L -77.301423,14.184199" />
      <path d="M -76.449548,20.130151 L -76.542166,20.147907" />
      <path d="M -80.17258,14.734649 L -80.265198,14.752406" />
      <path d="M -79.413323,20.698358 L -79.505941,20.716114" />
      <path d="M -80.913524,14.876701 L -81.006142,14.894457" />
      <line x1="-80.580492" y1="15.363976" x2="-80.394402" y2="15.328299" />
      <line x1="-79.284119" y1="20.122464" x2="-79.098029" y2="20.086787" />
      <line x1="-79.842039" y1="20.229427" x2="-79.838972" y2="20.228839" />
      <line x1="-75.393886" y1="14.369614" x2="-75.207796" y2="14.333937" />
      <line x1="-74.097513" y1="19.128102" x2="-73.911423" y2="19.092425" />
      <line x1="-76.13483" y1="14.511666" x2="-75.94874" y2="14.475989" />
      <line x1="-74.838457" y1="19.270153" x2="-74.652367" y2="19.234477" />
      <line x1="-76.875774" y1="14.653718" x2="-76.689684" y2="14.618041" />
      <line x1="-75.5794" y1="19.412205" x2="-75.393311" y2="19.376529" />
      <line x1="-77.616717" y1="14.795769" x2="-77.430627" y2="14.760093" />
      <line x1="-76.320344" y1="19.554257" x2="-76.134254" y2="19.51858" />
      <line x1="-78.357661" y1="14.937821" x2="-78.171571" y2="14.902144" />
      <line x1="-77.061288" y1="19.696309" x2="-76.875198" y2="19.660632" />
      <line x1="-79.098604" y1="15.079873" x2="-78.912515" y2="15.044196" />
      <line x1="-77.802231" y1="19.83836" x2="-77.616141" y2="19.802684" />
      <line x1="-79.839548" y1="15.221924" x2="-79.653458" y2="15.186248" />
      <line x1="-78.543175" y1="19.980412" x2="-78.357085" y2="19.944735" />
      <line x1="-74.652943" y1="14.227562" x2="-74.099447" y2="14.121448" />
      <line x1="-73.356569" y1="18.98605" x2="-73.173546" y2="18.950961" />
      <path d="M -72.09878,16.706271 Q -72.112749,16.606195 -72.125555,16.510115" />
      <line x1="-128.876661" y1="32.308173" x2="-112.759048" y2="36.069606" />
      <line x1="-96.641435" y1="39.83104" x2="-80.523822" y2="43.592474" />
      <line x1="-144.497936" y1="26.008149" x2="-128.380323" y2="29.769583" />
      <line x1="-80.027484" y1="41.053885" x2="-63.909871" y2="44.815318" />
      <line x1="-112.26271" y1="33.531017" x2="-96.145097" y2="37.292451" />
      <path d="M -66.719166,50.621411 A 5.0,3.620891854720831 -76.86376149427704 0,1 -67.855502,50.603708" />
      <path d="M -65.582829,40.865383 A 5.0,3.620891854720831 -76.86376149427704 0,1 -66.719166,50.621411" />
      <path d="M -64.687406,41.074352 A 5.0,3.620891854720831 -76.86376149427704 0,1 -65.823743,50.830379" />
      <path d="M -79.585966,21.975885 A 5.115900974233,3.357932704042375 79.14709695164629 0,1 -79.61497,22.019933" />
      <path d="M -82.671784,23.04734 A 5.115900974233,3.357932704042375 79.14709695164629 0,1 -85.457884,15.671632" />
      <path d="M -84.900483,14.396641 A 5.115900974233,3.357932704042375 79.14709695164629 0,1 -84.439222,13.828359" />
    </g>
  </g>
</svg>