<?xml version='1.0' encoding='utf-8'?>
<svg width="100.09mm" height="35.78686mm" viewBox="-210.95512 -93.312522 424.626327 151.823789" version="1.1" xmlns="http://www.w3.org/2000/svg">
  <g transform="scale(1,-1)" stroke-linecap="round">
    <g fill="none" stroke="rgb(0,0,0)" stroke-width="0.3818200560285439" id="Visible">
      <line x1="213.480297" y1="-32.470071" x2="213.480297" y2="66.770017" />
      <line x1="213.480297" y1="66.770017" x2="3.395108" y2="93.121612" />
      <line x1="-0.679022" y1="-58.320358" x2="213.480297" y2="-32.470071" />
      <line x1="-0.679022" y1="40.919731" x2="213.480297" y2="66.770017" />
      <line x1="-0.679022" y1="-58.320358" x2="-0.679022" y2="40.919731" />
      <line x1="-0.679022" y1="40.919731" x2="-63.704578" y2="48.825209" />
      <line x1="-56.565934" y1="49.686885" x2="-63.704578" y2="48.825209" />
      <line x1="-0.543217" y1="42.659793" x2="-56.565934" y2="49.686885" />
      <line x1="-0.543217" y1="42.659793" x2="199.338813" y2="66.786727" />
      <line x1="199.338813" y1="66.786727" x2="3.259304" y2="91.381549" />
      <line x1="-196.622726" y1="67.254615" x2="-135.083967" y2="74.682704" />
      <line x1="-93.278886" y1="79.728823" x2="3.259304" y2="91.381549" />
      <line x1="-149.526805" y1="61.347237" x2="-196.622726" y2="67.254615" />
      <line x1="-149.418996" y1="59.576617" x2="-210.76421" y2="67.271325" />
      <line x1="-210.76421" y1="67.271325" x2="-132.936417" y2="76.665596" />
      <line x1="-100.281726" y1="80.607209" x2="3.395108" y2="93.121612" />
      <line x1="-210.76421" y1="-31.968763" x2="-210.76421" y2="67.271325" />
      <line x1="-0.679022" y1="-58.320358" x2="-210.76421" y2="-31.968763" />
      <line x1="-63.704578" y1="47.822628" x2="-63.704578" y2="48.825209" />
      <line x1="-147.738653" y1="58.564474" x2="-147.738653" y2="59.08191" />
      <path d="M -133.732974,30.81425 A 3.0,2.084887263991128 -83.11736080784677 0,0 -131.898292,29.057339" />
      <path d="M -131.660625,27.088357 A 3.0,2.084887263991128 -83.11736080784677 0,0 -133.373466,24.858666" />
      <path d="M -133.373466,24.858666 A 3.0,2.084887263991128 -83.11736080784677 1,0 -134.092482,30.815428" />
      <path d="M -134.092482,30.815428 A 3.0,2.084887263991128 -83.11736080784677 0,0 -133.732974,30.81425" />
      <path d="M -105.721616,27.300704 A 3.0,2.084887263991128 -83.11736080784677 0,0 -103.886934,25.543793" />
      <path d="M -103.649266,23.574811 A 3.0,2.084887263991128 -83.11736080784677 0,0 -105.362108,21.34512" />
      <path d="M -105.362108,21.34512 A 3.0000003936010176,2.084887537529044 -83.11736080784677 1,0 -106.081124,27.301883" />
      <path d="M -106.081124,27.301883 A 3.0,2.084887263991128 -83.11736080784677 0,0 -105.721616,27.300704" />
      <path d="M -77.710257,23.787158 A 3.0,2.084887263991128 -83.11736080784677 0,0 -75.875575,22.030248" />
      <path d="M -75.637908,20.061265 A 3.0,2.084887263991128 -83.11736080784677 0,0 -77.350749,17.831574" />
      <path d="M -77.350749,17.831574 A 3.0000003936010184,2.0848875375290445 -83.11736080784677 1,0 -78.069765,23.788337" />
      <path d="M -78.069765,23.788337 A 3.0,2.084887263991128 -83.11736080784677 0,0 -77.710257,23.787158" />
      <line x1="-63.704578" y1="48.597504" x2="-65.199956" y2="48.785074" />
      <line x1="3.259304" y1="91.381549" x2="3.259304" y2="43.11878" />
      <line x1="-142.930679" y1="57.961396" x2="-140.828466" y2="58.215145" />
      <line x1="-63.704578" y1="-0.794835" x2="-63.704578" y2="38.820911" />
      <line x1="-130.931838" y1="47.33371" x2="-130.931838" y2="49.300711" />
      <path d="M -77.710257,24.046598 A 3.261426524367547,2.2665688743655834 -83.11736080784678 0,0 -76.289528,23.165951" />
      <path d="M -75.769736,18.859682 A 3.261426524367547,2.2665688743655834 -83.11736080784678 1,0 -77.710257,24.046598" />
      <path d="M -105.721616,27.560144 A 3.261426524367547,2.2665688743655834 -83.11736080784678 0,0 -104.300886,26.679497" />
      <path d="M -103.781094,22.373228 A 3.261426524367547,2.2665688743655834 -83.11736080784678 1,0 -105.721616,27.560144" />
      <path d="M -133.732974,31.07369 A 3.261426524367547,2.2665688743655834 -83.11736080784678 0,0 -132.312245,30.193043" />
      <path d="M -131.792453,25.886774 A 3.261426524367547,2.2665688743655834 -83.11736080784678 1,0 -133.732974,31.07369" />
      <path d="M -151.930264,49.01188 A 5.0,3.542198278829656 82.85056316969664 0,0 -150.685687,58.934129" />
      <line x1="-149.166382" y1="48.665198" x2="-149.166382" y2="9.573467" />
      <line x1="-149.166382" y1="9.573467" x2="-65.132307" y2="-0.96717" />
      <line x1="-65.132307" y1="-0.96717" x2="-63.704578" y2="-0.794835" />
      <path d="M -134.50116,46.902872 A 5.0,3.542198278829656 82.85056316969664 0,0 -135.123449,46.903752" />
      <path d="M -135.123449,46.903752 A 5.0,3.542198278829656 82.85056316969664 0,0 -133.878872,56.826001" />
      <path d="M -67.451749,38.455058 A 5.0,3.542198278829656 82.85056316969664 0,0 -67.896188,38.471242" />
      <path d="M -67.896188,38.471242 A 5.0,3.542198278829656 82.85056316969664 0,0 -66.651612,48.393491" />
      <path d="M -66.651612,48.393491 A 5.0,3.542198278829656 82.85056316969664 0,0 -66.21696,48.299411" />
      <line x1="-65.132307" y1="38.251469" x2="-65.132307" y2="-0.96717" />
      <line x1="-132.359567" y1="47.161375" x2="-134.50116" y2="46.902872" />
      <path d="M -84.703003,40.579369 A 5.000000362056895,3.542198535325118 82.85056316969664 0,0 -83.458427,50.501619" />
      <path d="M -118.316634,44.795625 A 5.0,3.542198278829656 82.85056316969664 0,0 -117.072057,54.717874" />
      <path d="M -100.88753,42.686617 A 5.0,3.542198278829656 82.85056316969664 0,0 -101.509819,42.687497" />
      <path d="M -101.509819,42.687497 A 5.0,3.542198278829656 82.85056316969664 0,0 -100.265242,52.609746" />
      <line x1="-98.745937" y1="42.94512" x2="-100.88753" y2="42.686617" />
      <path d="M -79.137986,25.599625 A 5.0,3.4748121066518807 96.88263919215323 1,1 -75.91464,18.295406" />
      <path d="M -75.91464,18.295406 A 5.0,3.4748121066518807 96.88263919215323 0,1 -76.564537,23.679541" />
      <path d="M -76.564537,23.679541 A 5.0,3.4748121066518807 96.88263919215323 0,1 -79.137986,25.599625" />
      <path d="M -107.149345,29.113171 A 5.0,3.4748121066518807 96.88263919215323 1,1 -103.925998,21.808952" />
      <path d="M -103.925998,21.808952 A 5.0,3.4748121066518807 96.88263919215323 0,1 -104.575895,27.193087" />
      <path d="M -104.575895,27.193087 A 5.0,3.4748121066518807 96.88263919215323 0,1 -107.149345,29.113171" />
      <path d="M -135.160703,32.626717 A 5.0,3.4748121066518807 96.88263919215323 1,1 -131.937357,25.322498" />
      <path d="M -131.937357,25.322498 A 5.0,3.4748121066518807 96.88263919215323 0,1 -132.587254,30.706633" />
      <path d="M -132.587254,30.706633 A 5.0,3.4748121066518807 96.88263919215323 0,1 -135.160703,32.626717" />
      <line x1="-125.272525" y1="83.741878" x2="-150.001513" y2="60.908926" />
      <line x1="-125.272525" y1="83.741878" x2="-41.23845" y2="73.20124" />
      <line x1="-150.001513" y1="60.908926" x2="-133.194698" y2="58.800799" />
      <line x1="-41.23845" y1="73.20124" x2="-65.967438" y2="50.368288" />
      <line x1="-133.194698" y1="58.800799" x2="-136.285821" y2="55.94668" />
      <line x1="-82.774253" y1="52.476416" x2="-65.967438" y2="50.368288" />
      <line x1="-82.774253" y1="52.476416" x2="-85.865376" y2="49.622297" />
      <line x1="-116.387883" y1="56.692671" x2="-119.479006" y2="53.838552" />
      <line x1="-116.387883" y1="56.692671" x2="-99.581068" y2="54.584543" />
      <line x1="-99.581068" y1="54.584543" x2="-102.672191" y2="51.730424" />
      <path d="M -69.624917,61.679837 A 3.261426524367547,1.48082712378416 23.616089494199493 0,1 -65.192338,65.313943" />
      <path d="M -65.192338,65.313943 A 3.261426524367547,1.48082712378416 23.616089494199493 0,1 -70.550494,62.97123" />
      <path d="M -70.550494,62.97123 A 3.261426524367547,1.48082712378416 23.616089494199493 0,1 -69.624917,61.679837" />
      <path d="M -97.636276,65.193383 A 3.261426524367547,1.48082712378416 23.616089494199493 0,1 -93.203696,68.827489" />
      <path d="M -93.203696,68.827489 A 3.261426524367547,1.48082712378416 23.616089494199493 0,1 -98.561852,66.484776" />
      <path d="M -98.561852,66.484776 A 3.261426524367547,1.48082712378416 23.616089494199493 0,1 -97.636276,65.193383" />
      <path d="M -125.647634,68.706929 A 3.261426524367547,1.48082712378416 23.616089494199493 0,1 -121.215055,72.341035" />
      <path d="M -121.215055,72.341035 A 3.261426524367547,1.48082712378416 23.616089494199493 0,1 -126.573211,69.998322" />
      <path d="M -126.573211,69.998322 A 3.261426524367547,1.48082712378416 23.616089494199493 0,1 -125.647634,68.706929" />
      <line x1="-150.001513" y1="60.908926" x2="-149.287649" y2="59.276205" />
      <line x1="-40.524585" y1="71.568519" x2="-41.23845" y2="73.20124" />
      <line x1="-149.287649" y1="59.276205" x2="-134.66613" y2="57.442185" />
      <line x1="-65.253573" y1="48.735567" x2="-40.524585" y2="71.568519" />
      <line x1="-65.967438" y1="50.368288" x2="-65.253573" y2="48.735567" />
      <path d="M -135.123449,46.903752 A 5.0,3.5421982788296558 82.85056316969664 0,0 -136.285821,55.94668" />
      <line x1="-82.060388" y1="50.843695" x2="-65.253573" y2="48.735567" />
      <line x1="-82.774253" y1="52.476416" x2="-82.060388" y2="50.843695" />
      <path d="M -114.603222,52.610868 A 5.0,3.5421982788296558 82.85056316969664 0,0 -114.243348,51.440336" />
      <path d="M -114.76607,47.272992 A 5.0,3.5421982788296558 82.85056316969664 0,0 -118.316634,44.795625" />
      <path d="M -118.316634,44.795625 A 5.0,3.5421982788296558 82.85056316969664 0,0 -119.479006,53.838552" />
      <line x1="-82.060388" y1="50.843695" x2="-81.821026" y2="50.296235" />
      <path d="M -80.989592,48.394613 A 5.0,3.5421982788296558 82.85056316969664 0,0 -80.629718,47.224081" />
      <path d="M -81.15244,43.056736 A 5.0,3.5421982788296558 82.85056316969664 0,0 -84.703003,40.579369" />
      <path d="M -84.703003,40.579369 A 5.0,3.5421982788296558 82.85056316969664 0,0 -85.865376,49.622297" />
      <line x1="-116.387883" y1="56.692671" x2="-115.674018" y2="55.05995" />
      <line x1="-115.674018" y1="55.05995" x2="-115.434656" y2="54.51249" />
      <path d="M -101.509819,42.687497 A 5.0,3.5421982788296558 82.85056316969664 0,0 -102.672191,51.730424" />
      <line x1="-115.674018" y1="55.05995" x2="-101.052499" y2="53.22593" />
      <path d="M -70.570345,62.180957 A 5.0,2.270213835449383 -156.38391050580051 0,0 -64.598711,64.791897" />
      <path d="M -98.581703,65.694503 A 5.0,2.270213835449383 -156.38391050580051 0,0 -92.610069,68.305443" />
      <path d="M -126.593061,69.208049 A 5.0,2.270213835449383 -156.38391050580051 0,0 -120.621428,71.818989" />
      <path d="M -66.340188,48.277253 A 5.0,3.542198278829656 -97.14943683030337 0,1 -66.962476,38.354124" />
      <path d="M -65.7179,48.276373 A 5.0,3.542198278829656 -97.14943683030337 0,1 -66.340188,48.277253" />
      <path d="M -65.406476,48.160135 A 5.0,3.542198278829656 -97.14943683030337 0,1 -66.028765,38.237006" />
      <path d="M -64.784188,48.159255 A 5.0,3.542198278829656 -97.14943683030337 0,1 -65.406476,48.160135" />
      <path d="M -64.472764,46.719815 A 3.666666666666667,2.5976120711417483 -97.14943683030337 0,1 -64.472764,39.442209 A 3.666666666666667,2.5976120711417483 -97.14943683030337 0,1 -64.472764,46.719815" />
      <line x1="-136.285821" y1="55.94668" x2="-119.479006" y2="53.838552" />
      <line x1="-102.672191" y1="51.730424" x2="-85.865376" y2="49.622297" />
      <line x1="-135.159508" y1="56.986635" x2="-150.685687" y2="58.934129" />
      <line x1="-135.123449" y1="46.903752" x2="-151.930264" y2="49.01188" />
      <line x1="-66.651612" y1="48.393491" x2="-83.458427" y2="50.501619" />
      <line x1="-67.896188" y1="38.471242" x2="-84.703003" y2="40.579369" />
      <line x1="-101.545878" y1="52.77038" x2="-117.072057" y2="54.717874" />
      <line x1="-101.509819" y1="42.687497" x2="-118.316634" y2="44.795625" />
      <path d="M -66.49997,48.277776 C -67.507916,48.158912 -68.44185,47.556906 -69.104929,46.67949 C -69.709883,45.887247 -70.107243,44.867683 -70.23978,43.810762 C -70.432021,42.320522 -70.085696,40.777567 -69.256202,39.716458 C -69.098229,39.512787 -68.924312,39.328193 -68.734451,39.162678 C -68.230008,38.721801 -67.61185,38.434231 -66.962476,38.354124" />
      <path d="M -65.7179,48.276373 Q -66.108061,48.325056 -66.49997,48.277776" />
      <line x1="-66.962476" y1="38.354124" x2="-66.028765" y2="38.237006" />
      <line x1="-65.7179" y1="48.276373" x2="-64.784188" y2="48.159255" />
      <path d="M -66.028765,38.237006 C -65.373135,38.153376 -64.696211,38.282869 -64.093863,38.592057 C -63.628051,38.82964 -63.204432,39.170622 -62.842822,39.586728 C -62.122826,40.411938 -61.649661,41.540834 -61.505176,42.716252 C -61.315978,44.207703 -61.66612,45.750063 -62.499377,46.80836 C -62.657446,47.010692 -62.83132,47.194011 -63.020997,47.358319 C -63.523768,47.794924 -64.138592,48.079595 -64.784188,48.159255" />
      <line x1="-118.316634" y1="44.795625" x2="-135.123449" y2="46.903752" />
      <line x1="-84.703003" y1="40.579369" x2="-101.509819" y2="42.687497" />
    </g>
    <g fill="none" stroke="rgb(99,99,99)" stroke-width="0.3818200560285439" id="Hidden" stroke-dasharray="0.009698 1.150309">
      <line x1="3.395108" y1="-6.118477" x2="3.395108" y2="93.121612" />
      <line x1="213.480297" y1="-32.470071" x2="3.395108" y2="-6.118477" />
      <line x1="-135.083967" y1="74.682704" x2="-93.278886" y2="79.728823" />
      <line x1="-140.60001" y1="60.227523" x2="-149.526805" y2="61.347237" />
      <line x1="-140.60001" y1="60.227523" x2="-147.738653" y2="59.365847" />
      <line x1="-147.738653" y1="59.365847" x2="-149.418996" y2="59.576617" />
      <line x1="-132.936417" y1="76.665596" x2="-100.281726" y2="80.607209" />
      <line x1="-210.76421" y1="-31.968763" x2="3.395108" y2="-6.118477" />
      <line x1="-63.704578" y1="46.840407" x2="-63.704578" y2="47.822628" />
      <line x1="-147.738653" y1="57.381045" x2="-63.704578" y2="46.840407" />
      <line x1="-147.738653" y1="57.381045" x2="-147.738653" y2="58.564474" />
      <line x1="-147.738653" y1="59.08191" x2="-147.738653" y2="59.365847" />
      <path d="M -131.898292,29.057339 A 3.0,2.084887263991128 -83.11736080784677 0,0 -131.660625,27.088357" />
      <path d="M -103.886934,25.543793 A 3.0,2.084887263991128 -83.11736080784677 0,0 -103.649266,23.574811" />
      <path d="M -75.875575,22.030248 A 3.0,2.084887263991128 -83.11736080784677 0,0 -75.637908,20.061265" />
      <line x1="-63.704578" y1="46.840407" x2="-56.565934" y2="47.702083" />
      <line x1="-56.565934" y1="47.702083" x2="-56.565934" y2="49.686885" />
      <line x1="-0.543217" y1="-46.656286" x2="-0.543217" y2="42.659793" />
      <line x1="-196.622726" y1="-22.061465" x2="-0.543217" y2="-46.656286" />
      <line x1="-56.565934" y1="47.702083" x2="-63.704578" y2="48.597504" />
      <line x1="-65.199956" y1="48.785074" x2="-140.60001" y2="58.242721" />
      <line x1="-196.622726" y1="-22.061465" x2="-196.622726" y2="67.254615" />
      <line x1="-140.60001" y1="58.242721" x2="-140.60001" y2="60.227523" />
      <path d="M -126.59433,31.675926 A 3.0,2.084887263991128 -83.11736080784677 0,0 -126.234822,25.720343" />
      <path d="M -126.234822,25.720343 A 3.0,2.084887263991128 -83.11736080784677 1,0 -126.953838,31.677105" />
      <path d="M -126.953838,31.677105 A 3.0,2.084887263991128 -83.11736080784677 0,0 -126.59433,31.675926" />
      <path d="M -98.582972,28.16238 A 3.0,2.084887263991128 -83.11736080784677 0,0 -98.223464,22.206797" />
      <path d="M -98.223464,22.206797 A 3.0,2.084887263991128 -83.11736080784677 1,0 -98.94248,28.163559" />
      <path d="M -98.94248,28.163559 A 3.0,2.084887263991128 -83.11736080784677 0,0 -98.582972,28.16238" />
      <path d="M -70.571613,24.648834 A 3.0,2.084887263991128 -83.11736080784677 0,0 -70.212105,18.693251" />
      <path d="M -70.212105,18.693251 A 3.0,2.084887263991128 -83.11736080784677 1,0 -70.931122,24.650013" />
      <path d="M -70.931122,24.650013 A 3.0,2.084887263991128 -83.11736080784677 0,0 -70.571613,24.648834" />
      <line x1="199.338813" y1="-22.529352" x2="199.338813" y2="66.786727" />
      <line x1="-0.543217" y1="-46.656286" x2="199.338813" y2="-22.529352" />
      <line x1="3.259304" y1="2.065469" x2="199.338813" y2="-22.529352" />
      <line x1="3.259304" y1="43.11878" x2="3.259304" y2="2.065469" />
      <line x1="-196.622726" y1="-22.061465" x2="3.259304" y2="2.065469" />
      <line x1="-147.738653" y1="57.381045" x2="-142.930679" y2="57.961396" />
      <line x1="-140.828466" y1="58.215145" x2="-140.60001" y2="58.242721" />
      <line x1="-147.738653" y1="9.745803" x2="-147.738653" y2="54.403842" />
      <line x1="-147.738653" y1="9.745803" x2="-63.704578" y2="-0.794835" />
      <line x1="-63.704578" y1="38.820911" x2="-63.704578" y2="43.863205" />
      <line x1="-130.931838" y1="49.300711" x2="-130.931838" y2="52.295715" />
      <line x1="-130.931838" y1="47.33371" x2="-114.125023" y2="45.225583" />
      <line x1="-80.511393" y1="41.009328" x2="-80.511393" y2="45.971332" />
      <line x1="-114.125023" y1="45.225583" x2="-114.125023" y2="50.187587" />
      <line x1="-97.318208" y1="43.117455" x2="-80.511393" y2="41.009328" />
      <line x1="-97.318208" y1="43.117455" x2="-97.318208" y2="48.07946" />
      <path d="M -76.289528,23.165951 A 3.261426524367547,2.2665688743655834 -83.11736080784678 0,0 -76.031634,22.794156" />
      <path d="M -76.031634,22.794156 A 3.261426524367547,2.2665688743655834 -83.11736080784678 0,0 -75.607716,19.282164" />
      <path d="M -75.607716,19.282164 A 3.261426524367547,2.2665688743655834 -83.11736080784678 0,0 -75.769736,18.859682" />
      <path d="M -104.300886,26.679497 A 3.261426524367547,2.2665688743655834 -83.11736080784678 0,0 -104.042993,26.307702" />
      <path d="M -104.042993,26.307702 A 3.261426524367547,2.2665688743655834 -83.11736080784678 0,0 -103.619074,22.79571" />
      <path d="M -103.619074,22.79571 A 3.261426524367547,2.2665688743655834 -83.11736080784678 0,0 -103.781094,22.373228" />
      <path d="M -132.312245,30.193043 A 3.261426524367547,2.2665688743655834 -83.11736080784678 0,0 -132.054351,29.821248" />
      <path d="M -132.054351,29.821248 A 3.261426524367547,2.2665688743655834 -83.11736080784678 0,0 -131.630433,26.309256" />
      <path d="M -131.630433,26.309256 A 3.261426524367547,2.2665688743655834 -83.11736080784678 0,0 -131.792453,25.886774" />
      <path d="M -151.307975,49.011 A 5.0,3.542198278829656 82.85056316969664 0,0 -151.930264,49.01188" />
      <path d="M -150.685687,58.934129 A 5.0,3.542198278829656 82.85056316969664 0,0 -147.738653,54.403842" />
      <line x1="-151.307975" y1="49.011" x2="-149.166382" y2="49.269503" />
      <line x1="-149.166382" y1="49.269503" x2="-149.166382" y2="48.665198" />
      <line x1="-149.166382" y1="9.573467" x2="-147.738653" y2="9.745803" />
      <path d="M -151.307975,56.057046 A 2.1,1.4877232771084556 -97.14943683030337 0,1 -151.569337,51.889332" />
      <path d="M -151.569337,51.889332 A 2.1000002192710983,1.487723432448797 -97.14943683030337 0,1 -151.046614,56.056677" />
      <path d="M -151.046614,56.056677 A 2.1,1.4877232771084556 -97.14943683030337 0,1 -151.307975,56.057046" />
      <path d="M -133.878872,56.826001 A 5.0,3.542198278829656 82.85056316969664 0,0 -130.931838,52.295715" />
      <path d="M -67.2739,38.470362 A 5.0,3.542198278829656 82.85056316969664 0,0 -67.451749,38.455058" />
      <path d="M -66.21696,48.299411 A 5.0,3.542198278829656 82.85056316969664 0,0 -63.704578,43.863205" />
      <line x1="-65.132307" y1="38.728865" x2="-65.132307" y2="38.251469" />
      <line x1="-67.2739" y1="38.470362" x2="-65.132307" y2="38.728865" />
      <path d="M -67.2739,47.07117 A 3.6666669303684976,2.5976122579585823 -97.14943683030337 0,1 -67.2739,39.793563 A 3.6666669303684976,2.5976122579585823 -97.14943683030337 0,1 -67.2739,47.07117" />
      <line x1="-130.931838" y1="47.33371" x2="-132.359567" y2="47.161375" />
      <path d="M -134.50116,53.948919 A 2.1,1.4877232771084556 82.85056316969664 0,0 -134.239799,53.948549" />
      <path d="M -134.239799,53.948549 A 2.1000001570421962,1.487723388363375 82.85056316969664 0,0 -134.762521,49.781204" />
      <path d="M -134.762521,49.781204 A 2.1,1.4877232771084556 82.85056316969664 0,0 -134.50116,53.948919" />
      <path d="M -84.080715,40.57849 A 5.0,3.542198278829656 82.85056316969664 0,0 -84.703003,40.579369" />
      <path d="M -83.458427,50.501619 A 5.0,3.542198278829656 82.85056316969664 0,0 -80.511393,45.971332" />
      <line x1="-114.125023" y1="45.225583" x2="-115.552752" y2="45.053248" />
      <line x1="-132.359567" y1="47.161375" x2="-115.552752" y2="45.053248" />
      <line x1="-80.511393" y1="41.009328" x2="-81.939122" y2="40.836993" />
      <line x1="-81.939122" y1="40.836993" x2="-84.080715" y2="40.57849" />
      <path d="M -84.080715,47.624536 A 2.1,1.4877232771084556 82.85056316969664 0,0 -83.819354,47.624166" />
      <path d="M -83.819354,47.624166 A 2.1,1.4877232771084556 82.85056316969664 0,0 -84.342076,43.456822" />
      <path d="M -84.342076,43.456822 A 2.1,1.4877232771084556 82.85056316969664 0,0 -84.080715,47.624536" />
      <line x1="-115.552752" y1="45.053248" x2="-117.694345" y2="44.794745" />
      <path d="M -117.694345,44.794745 A 5.0,3.542198278829656 82.85056316969664 0,0 -118.316634,44.795625" />
      <path d="M -117.072057,54.717874 A 5.0,3.542198278829656 82.85056316969664 0,0 -114.125023,50.187587" />
      <path d="M -117.694345,51.840791 A 2.1,1.4877232771084556 82.85056316969664 0,0 -117.432984,51.840422" />
      <path d="M -117.432984,51.840422 A 2.100000157042197,1.4877233883633756 82.85056316969664 0,0 -117.955706,47.673077" />
      <path d="M -117.955706,47.673077 A 2.1,1.4877232771084556 82.85056316969664 0,0 -117.694345,51.840791" />
      <line x1="-98.745937" y1="42.94512" x2="-81.939122" y2="40.836993" />
      <line x1="-97.318208" y1="43.117455" x2="-98.745937" y2="42.94512" />
      <path d="M -100.265242,52.609746 A 5.0,3.542198278829656 82.85056316969664 0,0 -97.318208,48.07946" />
      <path d="M -100.88753,49.732664 A 2.1,1.4877232771084556 82.85056316969664 0,0 -100.626169,49.732294" />
      <path d="M -100.626169,49.732294 A 2.1000001570422,1.487723388363378 82.85056316969664 0,0 -101.148891,45.564949" />
      <path d="M -101.148891,45.564949 A 2.1,1.4877232771084556 82.85056316969664 0,0 -100.88753,49.732664" />
      <line x1="-149.166382" y1="49.269503" x2="-132.359567" y2="47.161375" />
      <line x1="-115.552752" y1="45.053248" x2="-98.745937" y2="42.94512" />
      <line x1="-81.939122" y1="40.836993" x2="-65.132307" y2="38.728865" />
      <path d="M -67.2739,45.516408 A 2.1,1.4877232771084556 -97.14943683030337 0,1 -67.535261,41.348694" />
      <path d="M -67.535261,41.348694 A 2.1000001570421976,1.487723388363376 -97.14943683030337 0,1 -67.012539,45.516039" />
      <path d="M -67.012539,45.516039 A 2.1,1.4877232771084556 -97.14943683030337 0,1 -67.2739,45.516408" />
      <path d="M -67.2739,45.417168 A 2.0,1.4168793115318625 -97.14943683030337 0,1 -67.522815,41.447917" />
      <path d="M -67.522815,41.447917 A 2.0,1.4168793115318625 -97.14943683030337 0,1 -67.024985,45.416816" />
      <path d="M -67.024985,45.416816 A 2.0,1.4168793115318625 -97.14943683030337 0,1 -67.2739,45.417168" />
      <path d="M -151.307975,55.957806 A 2.0,1.4168793115318625 -97.14943683030337 0,1 -151.556891,51.988554" />
      <path d="M -151.556891,51.988554 A 2.0000001821600626,1.4168794405812746 -97.14943683030337 0,1 -151.05906,55.957454" />
      <path d="M -151.05906,55.957454 A 2.0,1.4168793115318625 -97.14943683030337 0,1 -151.307975,55.957806" />
      <line x1="-124.558661" y1="82.109157" x2="-125.272525" y2="83.741878" />
      <line x1="-149.287649" y1="59.276205" x2="-124.558661" y2="82.109157" />
      <line x1="-124.558661" y1="82.109157" x2="-40.524585" y2="71.568519" />
      <line x1="-133.194698" y1="58.800799" x2="-132.480833" y2="57.168077" />
      <line x1="-134.66613" y1="57.442185" x2="-132.480833" y2="57.168077" />
      <line x1="-132.480833" y1="57.168077" x2="-131.410037" y2="54.718996" />
      <path d="M -131.410037,54.718996 A 5.0,3.5421982788296558 82.85056316969664 0,0 -135.123449,46.903752" />
      <path d="M -135.799432,50.666147 A 2.1,1.4877232771084554 82.85056316969664 0,0 -134.239799,53.948549" />
      <path d="M -134.239799,53.948549 A 2.1000001570421962,1.4877233883633747 82.85056316969664 0,0 -134.762521,49.781204" />
      <path d="M -134.762521,49.781204 A 2.1,1.4877232771084554 82.85056316969664 0,0 -135.799432,50.666147" />
      <path d="M -114.243348,51.440336 A 5.0,3.5421982788296558 82.85056316969664 0,0 -114.76607,47.272992" />
      <line x1="-81.821026" y1="50.296235" x2="-80.989592" y2="48.394613" />
      <path d="M -80.629718,47.224081 A 5.0,3.5421982788296558 82.85056316969664 0,0 -81.15244,43.056736" />
      <path d="M -85.378987,44.341764 A 2.1,1.4877232771084554 82.85056316969664 0,0 -83.819354,47.624166" />
      <path d="M -83.819354,47.624166 A 2.1,1.4877232771084554 82.85056316969664 0,0 -84.342076,43.456822" />
      <path d="M -84.342076,43.456822 A 2.1,1.4877232771084554 82.85056316969664 0,0 -85.378987,44.341764" />
      <line x1="-115.434656" y1="54.51249" x2="-114.603222" y2="52.610868" />
      <path d="M -118.992617,48.558019 A 2.1,1.4877232771084554 82.85056316969664 0,0 -117.432984,51.840422" />
      <path d="M -117.432984,51.840422 A 2.100000157042197,1.4877233883633754 82.85056316969664 0,0 -117.955706,47.673077" />
      <path d="M -117.955706,47.673077 A 2.1,1.4877232771084554 82.85056316969664 0,0 -118.992617,48.558019" />
      <path d="M -97.796407,50.502741 A 5.0,3.5421982788296558 82.85056316969664 0,0 -101.509819,42.687497" />
      <line x1="-99.581068" y1="54.584543" x2="-98.867203" y2="52.951822" />
      <line x1="-101.052499" y1="53.22593" x2="-98.867203" y2="52.951822" />
      <line x1="-98.867203" y1="52.951822" x2="-97.796407" y2="50.502741" />
      <path d="M -102.185802,46.449892 A 2.1,1.4877232771084554 82.85056316969664 0,0 -100.626169,49.732294" />
      <path d="M -100.626169,49.732294 A 2.1000001570422,1.4877233883633778 82.85056316969664 0,0 -101.148891,45.564949" />
      <path d="M -101.148891,45.564949 A 2.1,1.4877232771084554 82.85056316969664 0,0 -102.185802,46.449892" />
      <path d="M -69.985882,59.054697 A 5.0,2.270213835449383 -156.38391050580051 0,0 -71.404857,61.034495" />
      <path d="M -71.404857,61.034495 A 5.0,2.270213835449383 -156.38391050580051 0,0 -70.570345,62.180957" />
      <path d="M -64.598711,64.791897 A 5.0,2.270213835449383 -156.38391050580051 0,0 -63.190421,64.626041" />
      <path d="M -63.190421,64.626041 A 5.0,2.270213835449383 -156.38391050580051 0,0 -69.985882,59.054697" />
      <path d="M -97.99724,62.568243 A 5.0,2.270213835449383 -156.38391050580051 0,0 -99.416216,64.548041" />
      <path d="M -99.416216,64.548041 A 5.0,2.270213835449383 -156.38391050580051 0,0 -98.581703,65.694503" />
      <path d="M -92.610069,68.305443 A 5.0,2.270213835449383 -156.38391050580051 0,0 -91.201779,68.139587" />
      <path d="M -91.201779,68.139587 A 5.0,2.270213835449383 -156.38391050580051 0,0 -97.99724,62.568243" />
      <path d="M -126.008599,66.081789 A 5.0,2.270213835449383 -156.38391050580051 0,0 -127.427574,68.061587" />
      <path d="M -127.427574,68.061587 A 5.0,2.270213835449383 -156.38391050580051 0,0 -126.593061,69.208049" />
      <path d="M -120.621428,71.818989 A 5.0,2.270213835449383 -156.38391050580051 0,0 -119.213138,71.653133" />
      <path d="M -119.213138,71.653133 A 5.0,2.270213835449383 -156.38391050580051 0,0 -126.008599,66.081789" />
      <line x1="-132.480833" y1="57.168077" x2="-115.674018" y2="55.05995" />
      <line x1="-98.867203" y1="52.951822" x2="-82.060388" y2="50.843695" />
      <line x1="-133.373466" y1="24.858666" x2="-126.234822" y2="25.720343" />
      <line x1="-134.092482" y1="30.815428" x2="-126.953838" y2="31.677105" />
      <line x1="-105.362108" y1="21.34512" x2="-98.223464" y2="22.206797" />
      <line x1="-106.081124" y1="27.301883" x2="-98.94248" y2="28.163559" />
      <line x1="-77.350749" y1="17.831574" x2="-70.212105" y2="18.693251" />
      <line x1="-78.069765" y1="23.788337" x2="-70.931122" y2="24.650013" />
      <line x1="-133.878872" y1="56.826001" x2="-135.159508" y2="56.986635" />
      <line x1="-100.265242" y1="52.609746" x2="-101.545878" y2="52.77038" />
      <line x1="-75.607716" y1="19.282164" x2="-75.91464" y2="18.295406" />
      <line x1="-76.031634" y1="22.794156" x2="-76.564537" y2="23.679541" />
      <line x1="-103.619074" y1="22.79571" x2="-103.925998" y2="21.808952" />
      <line x1="-104.042993" y1="26.307702" x2="-104.575895" y2="27.193087" />
      <line x1="-131.630433" y1="26.309256" x2="-131.937357" y2="25.322498" />
      <line x1="-132.054351" y1="29.821248" x2="-132.587254" y2="30.706633" />
      <line x1="-134.239799" y1="53.948549" x2="-151.046614" y2="56.056677" />
      <line x1="-134.762521" y1="49.781204" x2="-151.569337" y2="51.889332" />
      <line x1="-67.012539" y1="45.516039" x2="-83.819354" y2="47.624166" />
      <line x1="-67.535261" y1="41.348694" x2="-84.342076" y2="43.456822" />
      <line x1="-100.626169" y1="49.732294" x2="-117.432984" y2="51.840422" />
      <line x1="-101.148891" y1="45.564949" x2="-117.955706" y2="47.673077" />
      <line x1="-151.556891" y1="51.988554" x2="-67.522815" y2="41.447917" />
      <line x1="-151.05906" y1="55.957454" x2="-67.024985" y2="45.416816" />
      <line x1="-65.192338" y1="65.313943" x2="-63.190421" y2="64.626041" />
      <line x1="-70.550494" y1="62.97123" x2="-71.404857" y2="61.034495" />
      <line x1="-93.203696" y1="68.827489" x2="-91.201779" y2="68.139587" />
      <line x1="-98.561852" y1="66.484776" x2="-99.416216" y2="64.548041" />
      <line x1="-121.215055" y1="72.341035" x2="-119.213138" y2="71.653133" />
      <line x1="-126.573211" y1="69.998322" x2="-127.427574" y2="68.061587" />
      <line x1="-117.432984" y1="51.840422" x2="-134.239799" y2="53.948549" />
      <line x1="-117.955706" y1="47.673077" x2="-134.762521" y2="49.781204" />
      <line x1="-83.819354" y1="47.624166" x2="-100.626169" y2="49.732294" />
      <line x1="-84.342076" y1="43.456822" x2="-101.148891" y2="45.564949" />
      <line x1="-147.738653" y1="54.403842" x2="-130.931838" y2="52.295715" />
      <line x1="-80.511393" y1="45.971332" x2="-63.704578" y2="43.863205" />
      <line x1="-114.125023" y1="50.187587" x2="-97.318208" y2="48.07946" />
      <line x1="-151.307975" y1="49.011" x2="-134.50116" y2="46.902872" />
      <line x1="-84.080715" y1="40.57849" x2="-67.2739" y2="38.470362" />
      <line x1="-117.694345" y1="44.794745" x2="-100.88753" y2="42.686617" />
      <path d="M -66.962476,38.354124 A 5.0,3.542198278829656 -97.14943683030337 0,1 -65.7179,48.276373" />
      <path d="M -66.028765,38.237006 A 5.0,3.542198278829656 -97.14943683030337 0,1 -64.784188,48.159255" />
      <line x1="-131.410037" y1="54.718996" x2="-114.603222" y2="52.610868" />
      <line x1="-97.796407" y1="50.502741" x2="-80.989592" y2="48.394613" />
    </g>
  </g>
</svg>