<?xml version='1.0' encoding='utf-8'?>
<svg width="42.272023mm" height="100.09mm" viewBox="-23.638571 -50.074881 44.965123 106.466613" version="1.1" xmlns="http://www.w3.org/2000/svg">
  <g transform="scale(1,-1)" stroke-linecap="round">
    <g fill="none" stroke="rgb(0,0,0)" stroke-width="0.09573379171021378" id="Visible">
      <line x1="20.079595" y1="-56.343865" x2="-11.934045" y2="-40.318893" />
      <line x1="-11.934045" y1="-40.318893" x2="-11.934045" y2="-22.463631" />
      <line x1="-11.934045" y1="-22.463631" x2="-15.93575" y2="-20.460509" />
      <line x1="-11.934045" y1="39.052293" x2="-11.934045" y2="48.957416" />
      <line x1="-11.934045" y1="3.341769" x2="-11.934045" y2="13.246893" />
      <line x1="-11.934045" y1="13.246893" x2="-15.93575" y2="15.250014" />
      <path d="M 1.502211,27.773804 A 3.261426524367547,1.941948229248349 131.7332152934721 1,0 5.477446,23.317302" />
      <path d="M 1.502211,-1.984966 A 3.261426524367547,1.941948229248349 131.7332152934721 1,0 5.477446,-6.441468" />
      <path d="M 1.502211,-31.743735 A 3.261426524367547,1.941948229248349 131.7332152934721 1,0 5.477446,-36.200238" />
      <line x1="21.278685" y1="-55.274267" x2="20.079595" y2="-56.343865" />
      <line x1="-10.734955" y1="-39.249295" x2="21.278685" y2="-55.274267" />
      <line x1="-11.934045" y1="-40.318893" x2="-10.734955" y2="-39.249295" />
      <line x1="21.278685" y1="-55.274267" x2="21.278685" y2="34.002042" />
      <line x1="-11.934045" y1="-22.463631" x2="-10.734955" y2="-21.394033" />
      <line x1="-10.734955" y1="-39.249295" x2="-10.734955" y2="-21.394033" />
      <line x1="-10.734955" y1="50.027014" x2="21.278685" y2="34.002042" />
      <line x1="-11.934045" y1="48.957416" x2="-10.734955" y2="50.027014" />
      <line x1="-10.734955" y1="-21.394033" x2="-8.93632" y2="-19.789636" />
      <path d="M -8.93632,-19.789636 A 5.0,3.3410693177098283 180.0 0,1 -7.938025,-17.786514" />
      <path d="M -7.938025,-17.786514 A 5.0,3.3410693177098283 180.0 0,1 -17.938025,-17.786514" />
      <path d="M -17.938025,-17.786514 A 5.0,3.3410693177098283 180.0 0,1 -15.93575,-20.460509" />
      <path d="M -14.618741,-16.945203 A 2.1,1.403249113438128 180.0 0,1 -15.038025,-17.786514" />
      <path d="M -15.038025,-17.786514 A 2.1,1.403249113438128 180.0 0,1 -10.838025,-17.786514" />
      <path d="M -10.838025,-17.786514 A 2.1,1.403249113438128 180.0 0,1 -14.618741,-16.945203" />
      <line x1="-10.734955" y1="38.778538" x2="-10.734955" y2="50.027014" />
      <path d="M -7.938025,0.068747 A 5.0,3.3410693177098283 180.0 0,1 -17.938025,0.068747" />
      <path d="M -7.938025,35.779271 A 5.0,3.3410693177098283 180.0 0,1 -17.938025,35.779271" />
      <path d="M -8.93632,15.920888 A 5.0,3.3410693177098283 180.0 0,1 -7.938025,17.924009" />
      <path d="M -7.938025,17.924009 A 5.0,3.3410693177098283 180.0 0,1 -17.938025,17.924009" />
      <path d="M -17.938025,17.924009 A 5.0,3.3410693177098283 180.0 0,1 -15.93575,15.250014" />
      <line x1="-11.934045" y1="13.246893" x2="-10.734955" y2="14.316491" />
      <line x1="-10.734955" y1="3.068014" x2="-10.734955" y2="14.316491" />
      <line x1="-10.734955" y1="14.316491" x2="-8.93632" y2="15.920888" />
      <path d="M -14.618741,18.76532 A 2.1,1.403249113438128 180.0 0,1 -15.038025,17.924009" />
      <path d="M -15.038025,17.924009 A 2.1,1.403249113438128 180.0 0,1 -10.838025,17.924009" />
      <path d="M -10.838025,17.924009 A 2.1,1.403249113438128 180.0 0,1 -14.618741,18.76532" />
      <path d="M 1.27016,29.138265 A 5.0,2.9771454526710976 -48.26678470652789 0,1 1.29499,28.712089" />
      <path d="M 1.29499,28.712089 A 5.0,2.9771454526710976 -48.26678470652789 0,1 6.386059,23.004663" />
      <path d="M 6.386059,23.004663 A 5.0,2.9771454526710976 -48.26678470652789 1,1 1.27016,29.138265" />
      <path d="M 1.27016,-0.620505 A 5.0,2.9771454526710976 -48.26678470652789 0,1 1.29499,-1.04668" />
      <path d="M 1.29499,-1.04668 A 5.0,2.9771454526710976 -48.26678470652789 0,1 6.386059,-6.754106" />
      <path d="M 6.386059,-6.754106 A 5.0,2.9771454526710976 -48.26678470652789 1,1 1.27016,-0.620505" />
      <path d="M 1.27016,-30.379275 A 5.0,2.9771454526710976 -48.26678470652789 0,1 1.29499,-30.80545" />
      <path d="M 1.29499,-30.80545 A 5.0,2.9771454526710976 -48.26678470652789 0,1 6.386059,-36.512876" />
      <path d="M 6.386059,-36.512876 A 5.0,2.9771454526710976 -48.26678470652789 1,1 1.27016,-30.379275" />
      <line x1="-11.934045" y1="4.319262" x2="-20.63002" y2="8.67218" />
      <line x1="-11.934045" y1="4.319262" x2="-11.934045" y2="12.402739" />
      <line x1="-11.934045" y1="4.319262" x2="-12.953612" y2="3.4098" />
      <line x1="-17.938025" y1="-1.036336" x2="-18.448305" y2="-1.491509" />
      <path d="M -20.63002,8.67218 C -20.388466,8.551266 -20.291844,8.637625 -20.195222,8.723984" />
      <path d="M -20.63002,8.67218 C -20.388466,8.551266 -20.291844,8.368176 -20.195222,8.185085" />
      <path d="M -11.934045,12.402739 C -11.934045,12.178198 -11.789113,12.015833 -11.64418,11.853468" />
      <path d="M -11.934045,12.402739 C -11.934045,12.178198 -12.078978,12.16093 -12.223911,12.143662" />
      <path d="M -18.448305,-1.491509 C -18.267353,-1.330099 -18.194972,-1.13081 -18.122592,-0.931521" />
      <path d="M -18.448305,-1.491509 C -18.267353,-1.330099 -18.194972,-1.400259 -18.122592,-1.47042" />
      <line x1="-21.967027" y1="10.078049" x2="-21.432226" y2="9.092937" />
      <line x1="-21.432226" y1="9.092937" x2="-21.993112" y2="8.617891" />
      <line x1="-21.993112" y1="8.617891" x2="-21.743102" y2="8.492745" />
      <line x1="-21.743102" y1="8.492745" x2="-21.310483" y2="8.890536" />
      <line x1="-21.310483" y1="8.890536" x2="-20.875685" y2="8.058544" />
      <line x1="-20.875685" y1="8.058544" x2="-20.63002" y2="7.935573" />
      <line x1="-20.63002" y1="7.935573" x2="-21.190914" y2="8.972144" />
      <line x1="-21.190914" y1="8.972144" x2="-20.664803" y2="9.426199" />
      <line x1="-20.664803" y1="9.426199" x2="-20.910467" y2="9.54917" />
      <line x1="-20.910467" y1="9.54917" x2="-21.317001" y2="9.1747" />
      <line x1="-21.317001" y1="9.1747" x2="-21.725715" y2="9.957256" />
      <line x1="-21.725715" y1="9.957256" x2="-21.967027" y2="10.078049" />
      <line x1="-11.951043" y1="13.255401" x2="-12.104706" y2="13.243972" />
      <line x1="-12.104706" y1="13.243972" x2="-12.726467" y2="13.555205" />
      <line x1="-12.726467" y1="13.555205" x2="-12.726467" y2="13.367262" />
      <line x1="-12.726467" y1="13.367262" x2="-12.104706" y2="13.056029" />
      <line x1="-12.104706" y1="13.056029" x2="-11.934045" y2="12.869975" />
      <line x1="-19.63553" y1="-3.054727" x2="-19.63553" y2="-1.993771" />
      <line x1="-19.63553" y1="-1.993771" x2="-19.498729" y2="-1.871744" />
      <line x1="-19.498729" y1="-1.871744" x2="-18.581845" y2="-1.93498" />
      <line x1="-18.581845" y1="-1.93498" x2="-18.581845" y2="-1.049837" />
      <line x1="-18.581845" y1="-1.049837" x2="-18.448305" y2="-0.930718" />
      <line x1="-18.448305" y1="-0.930718" x2="-18.448305" y2="-1.491509" />
      <line x1="-18.448305" y1="-1.491509" x2="-18.448305" y2="-2.0523" />
      <line x1="-18.448305" y1="-2.0523" x2="-18.581845" y2="-2.171419" />
      <line x1="-18.581845" y1="-2.171419" x2="-19.501984" y2="-2.107047" />
      <line x1="-19.501984" y1="-2.107047" x2="-19.501984" y2="-2.935604" />
      <line x1="-19.501984" y1="-2.935604" x2="-19.63553" y2="-3.054727" />
      <line x1="-12.938025" y1="-35.641776" x2="-21.634" y2="-31.288858" />
      <line x1="-12.938025" y1="-35.641776" x2="-6.423766" y2="-29.831005" />
      <line x1="-12.938025" y1="-35.641776" x2="-12.938025" y2="-27.558299" />
      <path d="M -21.634,-31.288858 C -21.392445,-31.409772 -21.187252,-31.361292 -20.982059,-31.312811" />
      <path d="M -21.634,-31.288858 C -21.392445,-31.409772 -21.404394,-31.554984 -21.416343,-31.700196" />
      <path d="M -6.423766,-29.831005 C -6.604718,-29.992415 -6.532165,-30.129528 -6.459613,-30.266641" />
      <path d="M -6.423766,-29.831005 C -6.604718,-29.992415 -6.822031,-29.984431 -7.039345,-29.976446" />
      <path d="M -12.938025,-27.558299 C -12.938025,-27.78284 -12.829454,-27.775811 -12.720883,-27.768781" />
      <path d="M -12.938025,-27.558299 C -12.938025,-27.78284 -13.046596,-27.969503 -13.155167,-28.156166" />
      <line x1="-22.377394" y1="-30.09009" x2="-22.420733" y2="-30.873499" />
      <line x1="-22.420733" y1="-30.873499" x2="-23.590704" y2="-31.136046" />
      <line x1="-23.590704" y1="-31.136046" x2="-23.340695" y2="-31.261193" />
      <line x1="-23.340695" y1="-31.261193" x2="-22.412991" y2="-31.036128" />
      <line x1="-22.412991" y1="-31.036128" x2="-22.473277" y2="-31.695393" />
      <line x1="-22.473277" y1="-31.695393" x2="-22.227613" y2="-31.818365" />
      <line x1="-22.227613" y1="-31.818365" x2="-22.179422" y2="-30.994292" />
      <line x1="-22.179422" y1="-30.994292" x2="-21.07517" y2="-30.74194" />
      <line x1="-21.07517" y1="-30.74194" x2="-21.320834" y2="-30.618969" />
      <line x1="-21.320834" y1="-30.618969" x2="-22.193137" y2="-30.83094" />
      <line x1="-22.193137" y1="-30.83094" x2="-22.136082" y2="-30.210882" />
      <line x1="-22.136082" y1="-30.210882" x2="-22.377394" y2="-30.09009" />
      <line x1="-4.576032" y1="-29.286318" x2="-5.985342" y2="-29.20227" />
      <line x1="-5.985342" y1="-29.20227" x2="-6.607103" y2="-28.891037" />
      <line x1="-6.607103" y1="-28.891037" x2="-6.758562" y2="-29.026139" />
      <line x1="-6.758562" y1="-29.026139" x2="-6.136801" y2="-29.337372" />
      <line x1="-6.136801" y1="-29.337372" x2="-5.631344" y2="-30.227665" />
      <line x1="-5.631344" y1="-30.227665" x2="-5.444059" y2="-30.060606" />
      <line x1="-5.444059" y1="-30.060606" x2="-5.867313" y2="-29.363407" />
      <line x1="-5.867313" y1="-29.363407" x2="-4.756807" y2="-29.447571" />
      <line x1="-4.756807" y1="-29.447571" x2="-4.576032" y2="-29.286318" />
      <line x1="-13.34435" y1="-26.447529" x2="-12.489353" y2="-25.684866" />
      <line x1="-12.489353" y1="-25.684866" x2="-12.489353" y2="-25.85462" />
      <line x1="-12.489353" y1="-25.85462" x2="-13.199412" y2="-27.62575" />
      <line x1="-13.199412" y1="-27.62575" x2="-12.486098" y2="-26.989469" />
      <line x1="-12.486098" y1="-26.989469" x2="-12.486098" y2="-27.155177" />
      <line x1="-12.486098" y1="-27.155177" x2="-12.938025" y2="-27.558299" />
      <line x1="-12.938025" y1="-27.558299" x2="-13.389952" y2="-27.961422" />
      <line x1="-13.389952" y1="-27.961422" x2="-13.389952" y2="-27.795713" />
      <line x1="-13.389952" y1="-27.795713" x2="-12.676638" y2="-26.017641" />
      <line x1="-12.676638" y1="-26.017641" x2="-13.34435" y2="-26.613245" />
      <line x1="-13.34435" y1="-26.613245" x2="-13.34435" y2="-26.447529" />
      <line x1="-6.719036" y1="-43.078375" x2="-6.612025" y2="-42.98292" />
      <line x1="3.050163" y1="-34.364172" x2="17.262766" y2="-21.686417" />
      <path d="M 5.271865,-30.398478 A 2.666666696478077,1.5878109258418334 -48.26678470652789 0,1 5.271865,-34.366314 A 2.666666696478077,1.5878109258418334 -48.26678470652789 0,1 5.271865,-30.398478" />
      <line x1="3.050163" y1="-4.605402" x2="17.262766" y2="8.072353" />
      <path d="M 5.271865,-0.639709 A 2.6666666964780763,1.5878109258418327 -48.26678470652789 0,1 5.271865,-4.607545 A 2.6666666964780763,1.5878109258418327 -48.26678470652789 0,1 5.271865,-0.639709" />
      <line x1="3.050163" y1="25.153367" x2="17.262766" y2="37.831122" />
      <path d="M 5.271865,29.119061 A 2.666666696478075,1.587810925841832 -48.26678470652789 0,1 5.271865,25.151225 A 2.666666696478075,1.587810925841832 -48.26678470652789 0,1 5.271865,29.119061" />
      <line x1="-17.938025" y1="0.068747" x2="-17.938025" y2="-17.786514" />
      <line x1="-7.938025" y1="0.068747" x2="-7.938025" y2="-17.786514" />
      <line x1="-17.938025" y1="35.779271" x2="-17.938025" y2="17.924009" />
      <line x1="-7.938025" y1="35.779271" x2="-7.938025" y2="17.924009" />
    </g>
    <g fill="none" stroke="rgb(99,99,99)" stroke-width="0.09573379171021378" id="Hidden" stroke-dasharray="0.002432 0.288417">
      <line x1="20.079595" y1="-56.343865" x2="20.079595" y2="32.932444" />
      <line x1="20.079595" y1="32.932444" x2="-11.934045" y2="48.957416" />
      <line x1="-11.934045" y1="31.102155" x2="-11.934045" y2="39.052293" />
      <line x1="-11.934045" y1="31.102155" x2="-15.93575" y2="33.105276" />
      <line x1="-11.934045" y1="-4.608369" x2="-15.93575" y2="-2.605247" />
      <line x1="-11.934045" y1="-4.608369" x2="-11.934045" y2="3.341769" />
      <path d="M 1.462521,27.372152 A 3.261426524367547,1.941948229248349 131.7332152934721 0,0 1.502211,27.773804" />
      <path d="M 5.477446,23.317302 A 3.261426524367547,1.941948229248349 131.7332152934721 0,0 4.799547,23.371294" />
      <path d="M 4.799547,23.371294 A 3.261426524367547,1.941948229248349 131.7332152934721 0,0 1.478718,27.094164" />
      <path d="M 1.478718,27.094164 A 3.261426524367547,1.941948229248349 131.7332152934721 0,0 1.462521,27.372152" />
      <path d="M 1.462521,-2.386618 A 3.261426524367547,1.941948229248349 131.7332152934721 0,0 1.502211,-1.984966" />
      <path d="M 5.477446,-6.441468 A 3.261426524367547,1.941948229248349 131.7332152934721 0,0 4.799547,-6.387476" />
      <path d="M 4.799547,-6.387476 A 3.261426524367547,1.941948229248349 131.7332152934721 0,0 1.478718,-2.664606" />
      <path d="M 1.478718,-2.664606 A 3.261426524367547,1.941948229248349 131.7332152934721 0,0 1.462521,-2.386618" />
      <path d="M 1.462521,-32.145387 A 3.261426524367547,1.941948229248349 131.7332152934721 0,0 1.502211,-31.743735" />
      <path d="M 5.477446,-36.200238 A 3.261426524367547,1.941948229248349 131.7332152934721 0,0 4.799547,-36.146245" />
      <path d="M 4.799547,-36.146245 A 3.261426524367547,1.941948229248349 131.7332152934721 0,0 1.478718,-32.423375" />
      <path d="M 1.478718,-32.423375 A 3.261426524367547,1.941948229248349 131.7332152934721 0,0 1.462521,-32.145387" />
      <line x1="21.278685" y1="34.002042" x2="20.079595" y2="32.932444" />
      <line x1="-10.734955" y1="32.171753" x2="-10.734955" y2="38.778538" />
      <line x1="-11.934045" y1="31.102155" x2="-10.734955" y2="32.171753" />
      <path d="M -8.93632,-1.934374 A 5.0,3.3410693177098283 180.0 0,1 -7.938025,0.068747" />
      <path d="M -17.938025,0.068747 A 5.0,3.3410693177098283 180.0 0,1 -15.93575,-2.605247" />
      <line x1="-10.734955" y1="32.171753" x2="-8.93632" y2="33.776149" />
      <path d="M -8.93632,33.776149 A 5.0,3.3410693177098283 180.0 0,1 -7.938025,35.779271" />
      <path d="M -17.938025,35.779271 A 5.0,3.3410693177098283 180.0 0,1 -15.93575,33.105276" />
      <path d="M -14.618741,36.620582 A 2.1,1.403249113438128 180.0 0,1 -15.038025,35.779271" />
      <path d="M -15.038025,35.779271 A 2.1,1.403249113438128 180.0 0,1 -10.838025,35.779271" />
      <path d="M -10.838025,35.779271 A 2.1,1.403249113438128 180.0 0,1 -14.618741,36.620582" />
      <line x1="-11.934045" y1="-4.608369" x2="-10.734955" y2="-3.538771" />
      <line x1="-10.734955" y1="-3.538771" x2="-8.93632" y2="-1.934374" />
      <path d="M -14.618741,0.910058 A 2.1,1.403249113438128 180.0 0,1 -15.038025,0.068747" />
      <path d="M -15.038025,0.068747 A 2.1,1.403249113438128 180.0 0,1 -10.838025,0.068747" />
      <path d="M -10.838025,0.068747 A 2.1,1.403249113438128 180.0 0,1 -14.618741,0.910058" />
      <line x1="-10.734955" y1="-3.538771" x2="-10.734955" y2="3.068014" />
      <line x1="-10.734955" y1="-21.394033" x2="-10.734955" y2="-3.538771" />
      <line x1="-10.734955" y1="14.316491" x2="-10.734955" y2="32.171753" />
      <line x1="-12.953612" y1="3.4098" x2="-17.938025" y2="-1.036336" />
      <line x1="-11.141624" y1="13.315605" x2="-11.951043" y2="13.255401" />
      <line x1="-11.934045" y1="12.869975" x2="-11.141624" y2="12.006079" />
      <line x1="-11.141624" y1="12.006079" x2="-11.141624" y2="12.238479" />
      <line x1="-11.141624" y1="12.238479" x2="-11.913392" y2="13.057267" />
      <line x1="-11.913392" y1="13.057267" x2="-11.141624" y2="13.091283" />
      <line x1="-11.141624" y1="13.091283" x2="-11.141624" y2="13.315605" />
      <line x1="-6.612025" y1="-42.98292" x2="3.050163" y2="-34.364172" />
      <line x1="-6.719036" y1="-13.319606" x2="3.050163" y2="-4.605402" />
      <line x1="-6.719036" y1="16.439164" x2="3.050163" y2="25.153367" />
      <line x1="1.478718" y1="27.094164" x2="1.29499" y2="28.712089" />
      <line x1="4.799547" y1="23.371294" x2="6.386059" y2="23.004663" />
      <line x1="1.478718" y1="-2.664606" x2="1.29499" y2="-1.04668" />
      <line x1="4.799547" y1="-6.387476" x2="6.386059" y2="-6.754106" />
      <line x1="1.478718" y1="-32.423375" x2="1.29499" y2="-30.80545" />
      <line x1="4.799547" y1="-36.146245" x2="6.386059" y2="-36.512876" />
      <line x1="-15.038025" y1="0.068747" x2="-15.038025" y2="-17.786514" />
      <line x1="-10.838025" y1="0.068747" x2="-10.838025" y2="-17.786514" />
      <line x1="-15.038025" y1="35.779271" x2="-15.038025" y2="17.924009" />
      <line x1="-10.838025" y1="35.779271" x2="-10.838025" y2="17.924009" />
      <line x1="-15.93575" y1="-20.460509" x2="-15.93575" y2="-2.605247" />
      <line x1="-15.93575" y1="15.250014" x2="-15.93575" y2="33.105276" />
      <line x1="-8.93632" y1="-19.789636" x2="-8.93632" y2="-1.934374" />
      <line x1="-8.93632" y1="15.920888" x2="-8.93632" y2="33.776149" />
    </g>
  </g>
</svg>