<?xml version="1.0" encoding="UTF-8" standalone="no"?>
    <svg
    xmlns:svg="http://www.w3.org/2000/svg"
    xmlns="http://www.w3.org/2000/svg"
    width="1997"
    height="917"
    >
        <g transform="scale(5, -5)   translate(199.66423435669572,-91.69147122327722)" stroke-width="0.2"  fill="none">
        <!-- hidden lines -->
        <g  stroke="rgb(160,160,160)" fill="none" stroke-dasharray="0.2,0.2" >
    			<path d="M191.8220310776189,-87.77963021793846 L-16.682598259290955,20.04895385239854 " />
			<path d="M-16.68259825929092,20.04895385239854 L-12.669924796792657,29.174544594635723 " />
			<path d="M-16.68259825929092,20.04895385239854 L-195.6642343566957,78.56588048104 " />
			<path d="M114.38016884614557,-60.21313735678416 L114.23613448832741,-60.16486833382995 L114.08057042939298,-60.11048096310267 L113.73861243715288,-59.98467785662704 L113.36240778920049,-59.8387127037007 L112.96088190385379,-59.676048513238634 L112.54356094330056,-59.50054447718098 L112.12034580633635,-59.316364411543375 L111.70127723051303,-59.127877970291 L111.29629757662677,-58.939556975727484 L110.91501494718472,-58.75586932494999 L110.56647523511683,-58.58117298942951 L110.25894751085475,-58.41961262256578 L110.12288608235096,-58.34497096177586 L109.99972783944803,-58.275021228192514 L109.89020434783325,-58.210178926484524 L109.79496618213753,-58.15082922293794 L109.71457906149182,-58.09732465755043 L109.64952048912916,-58.049983049927306 L109.60017691599334,-58.009085611418314 L109.56684144520233,-57.97487527470913 L109.55624237810564,-57.96034285924519 L109.54971209100204,-57.94755525078991 L109.54726028504668,-57.93653144614568 L109.54889060255262,-57.92728782187259 " />
			<path d="M109.54889060255262,-57.92728782187259 L109.55687178240642,-57.918114577417946 L109.57144964820847,-57.911872558822104 L109.5925890806032,-57.90857680365461 L109.62023915284638,-57.90823525167833 L109.6543332534921,-57.910848725721884 L109.69478924686561,-57.9164109296974 L109.79438197210756,-57.93632085663072 L109.9180581961852,-57.96777328899806 L110.06462684945237,-58.01046532268205 L110.23267639565553,-58.063985810060494 L110.42058842579952,-58.12781931958265 L110.62655324431088,-58.20135109965688 L110.84858729739554,-58.28387299904451 L111.08455227574613,-58.37459028674338 L111.33217570762955,-58.47262930568183 L111.58907284403202,-58.5770458865139 L111.85276962509573,-58.68683444048628 L112.12072650666771,-58.80093764380768 L112.3903629174983,-58.91825662025495 L112.65908211155293,-59.03766152395185 L112.92429617609602,-59.158002420402404 L113.18345095470525,-59.278120360988765 L113.43405064519422,-59.396858544279944 L113.67368183555176,-59.51307345666196 L113.90003674641902,-59.62564588499903 L114.11093545626616,-59.73349169526793 L114.30434689522839,-59.835572273361244 L114.47840840541906,-59.930904527509014 L114.63144367934332,-60.018570355989894 L114.76197890365572,-60.097725488952584 L114.86875695278827,-60.16760761919607 L114.95074949575707,-60.22754374360464 L114.98219489396917,-60.25359777293191 L115.00716689955158,-60.27695664453582 L115.02560535275559,-60.297564084848695 L115.03746583373241,-60.31537044874182 L115.0427197695445,-60.33033283912491 L115.0413545030003,-60.34241521028898 " />
			<path d="M115.0413545030003,-60.34241521028898 L115.03489837263245,-60.35047242276842 L115.02357126532327,-60.35636841411327 L115.0073933192454,-60.36009270199222 L114.98639329675294,-60.36163866508966 L114.93008487079103,-60.358188500502074 L114.8550462466631,-60.34604244528053 L114.76181082414125,-60.32528683766967 L114.65104135195932,-60.296069215507494 L114.52352521677197,-60.25859726747679 L114.38016884614557,-60.21313735678416 " />
			<path d="M90.51595069982496,-52.4108804729653 L90.3719163420068,-52.362611450011094 L90.21635228307237,-52.30822407928381 L89.87439429083227,-52.18242097280818 L89.49818964287988,-52.036455819881844 L89.09666375753318,-51.87379162941978 L88.67934279697995,-51.698287593362124 L88.25612766001574,-51.51410752772452 L87.83705908419242,-51.32562108647215 L87.43207943030616,-51.13730009190863 L87.0507968008641,-50.953612441131135 L86.70225708879622,-50.778916105610655 L86.39472936453414,-50.61735573874692 L86.25866793603035,-50.542714077957 L86.13550969312742,-50.47276434437366 L86.02598620151264,-50.40792204266567 L85.93074803581692,-50.34857233911909 L85.85036091517121,-50.295067773731574 L85.78530234280855,-50.24772616610845 L85.73595876967273,-50.20682872759946 L85.70262329888172,-50.17261839089027 L85.69202423178503,-50.15808597542633 L85.68549394468143,-50.145298366971055 L85.68304213872607,-50.13427456232682 L85.68467245623201,-50.12503093805373 " />
			<path d="M85.68467245623201,-50.12503093805373 L85.69265363608581,-50.11585769359909 L85.70723150188786,-50.10961567500325 L85.7283709342826,-50.106319919835755 L85.75602100652577,-50.10597836785947 L85.79011510717149,-50.10859184190303 L85.830571100545,-50.11415404587854 L85.93016382578695,-50.134063972811866 L86.05384004986459,-50.165516405179204 L86.20040870313176,-50.208208438863196 L86.36845824933492,-50.26172892624164 L86.55637027947891,-50.32556243576379 L86.76233509799027,-50.399094215838026 L86.98436915107493,-50.481616115225656 L87.22033412942552,-50.57233340292452 L87.46795756130894,-50.67037242186297 L87.72485469771141,-50.774789002695044 L87.98855147877512,-50.88457755666742 L88.2565083603471,-50.99868075998882 L88.52614477117768,-51.115999736436095 L88.79486396523232,-51.23540464013299 L89.06007802977541,-51.35574553658355 L89.31923280838464,-51.47586347716991 L89.56983249887361,-51.59460166046109 L89.80946368923115,-51.7108165728431 L90.03581860009841,-51.823389001180175 L90.24671730994555,-51.93123481144907 L90.44012874890778,-52.03331538954239 L90.61419025909845,-52.12864764369016 L90.76722553302271,-52.21631347217104 L90.8977607573351,-52.29546860513373 L91.00453880646766,-52.36535073537721 L91.08653134943646,-52.425286859785786 L91.11797674764856,-52.451340889113055 L91.14294875323097,-52.474699760716966 L91.16138720643498,-52.49530720102984 L91.1732476874118,-52.51311356492296 L91.1785016232239,-52.52807595530605 L91.1771363566797,-52.54015832647013 " />
			<path d="M91.1771363566797,-52.54015832647013 L91.17068022631184,-52.54821553894956 L91.15935311900266,-52.55411153029441 L91.14317517292478,-52.557835818173366 L91.12217515043233,-52.5593817812708 L91.06586672447042,-52.55593161668322 L90.99082810034248,-52.543785561461675 L90.89759267782064,-52.523029953850816 L90.78682320563871,-52.49381233168864 L90.65930707045136,-52.45634038365793 L90.51595069982496,-52.4108804729653 " />
			<path d="M66.65173255350432,-44.60862358914643 L66.50769819568616,-44.560354566192224 L66.35213413675173,-44.50596719546494 L66.01017614451163,-44.38016408898931 L65.63397149655924,-44.234198936062974 L65.23244561121254,-44.07153474560091 L64.81512465065931,-43.896030709543254 L64.3919095136951,-43.71185064390565 L63.97284093787178,-43.523364202653276 L63.56786128398552,-43.33504320808976 L63.18657865454346,-43.151355557312264 L62.83803894247558,-42.976659221791785 L62.5305112182135,-42.81509885492805 L62.394449789709704,-42.74045719413813 L62.27129154680678,-42.67050746055479 L62.161768055192006,-42.6056651588468 L62.06652988949629,-42.54631545530022 L61.98614276885056,-42.492810889912704 L61.921084196487904,-42.44546928228958 L61.871740623352096,-42.40457184378059 L61.83840515256108,-42.3703615070714 L61.82780608546439,-42.35582909160746 L61.821275798360794,-42.343041483152184 L61.818823992405434,-42.33201767850795 L61.82045430991137,-42.32277405423486 " />
			<path d="M61.82045430991137,-42.32277405423486 L61.82843548976517,-42.31360080978022 L61.84301335556722,-42.30735879118438 L61.864152787961956,-42.304063036016885 L61.89180286020513,-42.3037214840406 L61.92589696085085,-42.30633495808416 L61.96635295422437,-42.31189716205967 L62.06594567946631,-42.331807088992996 L62.189621903543944,-42.363259521360334 L62.33619055681112,-42.405951555044325 L62.504240103014276,-42.45947204242277 L62.69215213315827,-42.52330555194492 L62.898116951669635,-42.596837332019156 L63.1201510047543,-42.679359231406785 L63.35611598310488,-42.77007651910565 L63.6037394149883,-42.8681155380441 L63.86063655139077,-42.972532118876174 L64.12433333245448,-43.08232067284855 L64.39229021402646,-43.19642387616995 L64.66192662485705,-43.313742852617224 L64.93064581891169,-43.43314775631412 L65.19585988345477,-43.55348865276468 L65.455014662064,-43.67360659335104 L65.70561435255297,-43.79234477664222 L65.94524554291051,-43.90855968902423 L66.17160045377777,-44.021132117361304 L66.38249916362491,-44.1289779276302 L66.57591060258714,-44.23105850572352 L66.74997211277781,-44.32639075987129 L66.90300738670207,-44.41405658835217 L67.03354261101447,-44.49321172131486 L67.14032066014703,-44.56309385155834 L67.22231320311582,-44.623029975966915 L67.25375860132792,-44.649084005294185 L67.27873060691033,-44.672442876898096 L67.29716906011434,-44.69305031721097 L67.30902954109116,-44.71085668110409 L67.31428347690326,-44.72581907148718 L67.31291821035906,-44.73790144265126 " />
			<path d="M67.31291821035906,-44.73790144265126 L67.3064620799912,-44.74595865513069 L67.29513497268202,-44.75185464647554 L67.27895702660415,-44.755578934354496 L67.25795700411169,-44.75712489745193 L67.20164857814979,-44.75367473286435 L67.12660995402184,-44.741528677642805 L67.0333745315,-44.720773070031946 L66.92260505931807,-44.69155544786977 L66.79508892413072,-44.65408349983906 L66.65173255350432,-44.60862358914643 " />
			<path d="M124.92759994054867,-65.47678504033523 L125.99326227024551,-66.25732592824868 " />
			<path d="M124.9694866487847,-65.92260889117449 L121.46059020714273,-64.34326788955842 " />
			<path d="M121.46059020714273,-64.34326788955843 L122.07587619200085,-64.54443179450776 " />
			<path d="M122.07587619200083,-64.54443179450776 L125.43350703959092,-66.06305445224855 " />
			<path d="M125.43350703959092,-66.06305445224854 L124.33370127423125,-65.28261358543338 " />
			<path d="M124.33370127423126,-65.2826135854334 L124.92759994054867,-65.47678504033523 " />
			<path d="M113.5615640650509,-48.8016970796354 L109.54889060255265,-57.92728782187258 " />
			<path d="M119.05402796549859,-51.21682446805181 L115.04135450300032,-60.342415210289005 " />
			<path d="M89.69734591873029,-40.99944019581653 L85.68467245623204,-50.12503093805371 " />
			<path d="M95.18980981917795,-43.41456758423294 L91.17713635667968,-52.540158326470134 " />
			<path d="M65.83312777240965,-33.19718331199769 L61.82045430991139,-42.32277405423487 " />
			<path d="M71.32559167285734,-35.61231070041407 L67.31291821035907,-44.737901442651264 " />

        </g>

        <!-- solid lines -->
        <g  stroke="rgb(0,0,0)" fill="none">
    			<path d="M191.8220310776189,-87.77963021793846 L195.83470454011717,-78.65403947570128 " />
			<path d="M195.83470454011714,-78.65403947570128 L16.853068442712384,-20.137112847059825 " />
			<path d="M12.840394980214136,-29.26270358929699 L16.8530684427124,-20.137112847059807 " />
			<path d="M191.8220310776189,-87.77963021793846 L12.840394980214143,-29.262703589297004 " />
			<path d="M195.83470454011714,-78.65403947570128 L-12.669924796792714,29.17454459463572 " />
			<path d="M16.853068442712406,-20.137112847059825 L-191.65156089419744,87.69147122327718 " />
			<path d="M-12.66992479679265,29.174544594635762 L-191.65156089419742,87.69147122327722 " />
			<path d="M118.39284230864386,-51.08754661454698 L118.24880795082571,-51.03927759159277 L118.09324389189128,-50.98489022086549 L117.75128589965118,-50.85908711438986 L117.37508125169879,-50.71312196146352 L116.97355536635209,-50.550457771001454 L116.55623440579886,-50.3749537349438 L116.13301926883464,-50.190773669306196 L115.71395069301133,-50.002287228053824 L115.30897103912507,-49.813966233490305 L114.92768840968301,-49.63027858271281 L114.57914869761512,-49.45558224719233 L114.27162097335305,-49.2940218803286 L114.13555954484926,-49.21938021953868 L114.01240130194633,-49.149430485955335 L113.90287781033155,-49.084588184247345 L113.80763964463583,-49.025238480700764 L113.72725252399012,-48.97173391531325 L113.66219395162746,-48.92439230769013 L113.61285037849164,-48.883494869181135 L113.57951490770063,-48.84928453247195 L113.56891584060394,-48.83475211700801 L113.56238555350033,-48.82196450855273 L113.55993374754497,-48.8109407039085 L113.56156406505092,-48.80169707963541 " />
			<path d="M113.56156406505092,-48.80169707963541 L113.56954524490472,-48.792523835180766 L113.58412311070677,-48.786281816584925 L113.6052625431015,-48.78298606141743 L113.63291261534468,-48.78264450944115 L113.6670067159904,-48.785257983484705 L113.70746270936391,-48.79082018746022 L113.80705543460586,-48.81073011439354 L113.9307316586835,-48.84218254676088 L114.07730031195067,-48.88487458044487 L114.24534985815383,-48.938395067823315 L114.43326188829782,-49.00222857734547 L114.63922670680918,-49.0757603574197 L114.86126075989384,-49.15828225680733 L115.09722573824443,-49.2489995445062 L115.34484917012784,-49.34703856344465 L115.60174630653032,-49.45145514427672 L115.86544308759403,-49.5612436982491 L116.133399969166,-49.6753469015705 L116.40303637999659,-49.79266587801777 L116.67175557405123,-49.91207078171467 L116.93696963859432,-50.032411678165225 L117.19612441720355,-50.152529618751586 L117.44672410769252,-50.271267802042765 L117.68635529805006,-50.38748271442478 L117.91271020891732,-50.50005514276185 L118.12360891876446,-50.60790095303075 L118.31702035772669,-50.709981531124065 L118.49108186791736,-50.805313785271835 L118.64411714184162,-50.892979613752715 L118.77465236615402,-50.972134746715405 L118.88143041528657,-51.04201687695889 L118.96342295825536,-51.10195300136746 L118.99486835646746,-51.12800703069473 L119.01984036204988,-51.15136590229864 L119.03827881525389,-51.171973342611516 L119.05013929623071,-51.18977970650464 L119.0553932320428,-51.20474209688773 L119.0540279654986,-51.216824468051804 " />
			<path d="M119.0540279654986,-51.216824468051804 L119.04757183513075,-51.22488168053124 L119.03624472782157,-51.23077767187609 L119.0200667817437,-51.23450195975504 L118.99906675925124,-51.23604792285248 L118.94275833328933,-51.232597758264895 L118.86771970916139,-51.22045170304335 L118.77448428663955,-51.19969609543249 L118.66371481445762,-51.170478473270315 L118.53619867927027,-51.13300652523961 L118.39284230864386,-51.08754661454698 " />
			<path d="M94.52862416232323,-43.28528973072811 L94.38458980450507,-43.2370207077739 L94.22902574557064,-43.18263333704662 L93.88706775333054,-43.05683023057099 L93.51086310537815,-42.91086507764465 L93.10933722003145,-42.748200887182584 L92.69201625947822,-42.57269685112493 L92.268801122514,-42.388516785487326 L91.84973254669069,-42.20003034423495 L91.44475289280443,-42.011709349671435 L91.06347026336238,-41.82802169889394 L90.71493055129449,-41.65332536337346 L90.40740282703241,-41.49176499650973 L90.27134139852862,-41.41712333571981 L90.14818315562569,-41.347173602136465 L90.03865966401091,-41.282331300428474 L89.94342149831519,-41.222981596881894 L89.86303437766948,-41.16947703149438 L89.79797580530682,-41.122135423871256 L89.748632232171,-41.081237985362264 L89.71529676137999,-41.04702764865308 L89.7046976942833,-41.03249523318914 L89.6981674071797,-41.01970762473386 L89.69571560122434,-41.00868382008963 L89.69734591873028,-40.99944019581654 " />
			<path d="M89.69734591873028,-40.99944019581654 L89.70532709858408,-40.990266951361896 L89.71990496438613,-40.984024932766054 L89.74104439678086,-40.98072917759856 L89.76869446902404,-40.98038762562228 L89.80278856966976,-40.983001099665834 L89.84324456304327,-40.98856330364135 L89.94283728828522,-41.00847323057467 L90.06651351236286,-41.03992566294201 L90.21308216563003,-41.082617696626 L90.38113171183319,-41.136138184004444 L90.56904374197718,-41.1999716935266 L90.77500856048854,-41.27350347360083 L90.9970426135732,-41.35602537298846 L91.2330075919238,-41.44674266068733 L91.4806310238072,-41.54478167962578 L91.73752816020968,-41.64919826045785 L92.00122494127339,-41.75898681443023 L92.26918182284537,-41.87309001775163 L92.53881823367595,-41.9904089941989 L92.8075374277306,-42.1098138978958 L93.07275149227368,-42.230154794346355 L93.33190627088291,-42.350272734932716 L93.58250596137188,-42.469010918223894 L93.82213715172942,-42.58522583060591 L94.04849206259668,-42.69779825894298 L94.25939077244382,-42.80564406921188 L94.45280221140605,-42.907724647305194 L94.62686372159672,-43.003056901452965 L94.77989899552098,-43.090722729933844 L94.91043421983338,-43.169877862896534 L95.01721226896593,-43.23975999314002 L95.09920481193473,-43.29969611754859 L95.13065021014683,-43.32575014687586 L95.15562221572924,-43.34910901847977 L95.17406066893325,-43.369716458792645 L95.18592114991007,-43.38752282268577 L95.19117508572216,-43.40248521306886 L95.18980981917797,-43.414567584232934 " />
			<path d="M95.18980981917797,-43.414567584232934 L95.18335368881012,-43.42262479671237 L95.17202658150093,-43.42852078805722 L95.15584863542306,-43.43224507593617 L95.1348486129306,-43.43379103903361 L95.0785401869687,-43.430340874446024 L95.00350156284075,-43.41819481922448 L94.91026614031891,-43.39743921161362 L94.79949666813698,-43.368221589451444 L94.67198053294963,-43.33074964142074 L94.52862416232323,-43.28528973072811 " />
			<path d="M70.66440601600262,-35.48303284690927 L70.52037165818446,-35.43476382395506 L70.36480759925003,-35.380376453227775 L70.02284960700993,-35.254573346752146 L69.64664495905754,-35.10860819382581 L69.24511907371084,-34.94594400336374 L68.82779811315761,-34.77043996730609 L68.4045829761934,-34.586259901668484 L67.98551440037008,-34.39777346041611 L67.58053474648382,-34.20945246585259 L67.19925211704177,-34.0257648150751 L66.85071240497388,-33.85106847955462 L66.5431846807118,-33.68950811269089 L66.40712325220801,-33.614866451900966 L66.28396500930508,-33.54491671831762 L66.1744415176903,-33.48007441660963 L66.07920335199458,-33.42072471306305 L65.99881623134887,-33.36722014767554 L65.93375765898621,-33.319878540052414 L65.8844140858504,-33.27898110154342 L65.85107861505938,-33.244770764834236 L65.84047954796269,-33.230238349370296 L65.83394926085909,-33.21745074091502 L65.83149745490373,-33.20642693627079 L65.83312777240967,-33.1971833119977 " />
			<path d="M65.83312777240967,-33.1971833119977 L65.84110895226347,-33.188010067543054 L65.85568681806552,-33.18176804894721 L65.87682625046025,-33.17847229377972 L65.90447632270343,-33.178130741803436 L65.93857042334915,-33.18074421584699 L65.97902641672266,-33.18630641982251 L66.07861914196461,-33.20621634675583 L66.20229536604225,-33.23766877912317 L66.34886401930942,-33.28036081280716 L66.51691356551258,-33.3338813001856 L66.70482559565657,-33.39771480970776 L66.91079041416793,-33.47124658978199 L67.13282446725259,-33.55376848916962 L67.36878944560318,-33.644485776868486 L67.6164128774866,-33.742524795806936 L67.87331001388907,-33.84694137663901 L68.13700679495278,-33.95672993061139 L68.40496367652476,-34.07083313393279 L68.67460008735534,-34.18815211038006 L68.94331928140998,-34.307557014076956 L69.20853334595307,-34.42789791052751 L69.4676881245623,-34.548015851113874 L69.71828781505127,-34.66675403440505 L69.95791900540881,-34.782968946787065 L70.18427391627607,-34.89554137512414 L70.39517262612321,-35.00338718539304 L70.58858406508544,-35.10546776348635 L70.76264557527611,-35.20080001763412 L70.91568084920037,-35.288465846115 L71.04621607351277,-35.36762097907769 L71.15299412264532,-35.43750310932118 L71.23498666561412,-35.49743923372975 L71.26643206382622,-35.52349326305702 L71.29140406940863,-35.54685213466093 L71.30984252261264,-35.5674595749738 L71.32170300358946,-35.585265938866925 L71.32695693940155,-35.600228329250015 L71.32559167285736,-35.61231070041409 " />
			<path d="M71.32559167285736,-35.61231070041409 L71.3191355424895,-35.62036791289353 L71.30780843518032,-35.62626390423838 L71.29163048910245,-35.62998819211733 L71.27063046660999,-35.631534155214766 L71.21432204064809,-35.62808399062718 L71.13928341652014,-35.61593793540564 L71.0460479939983,-35.59518232779478 L70.93527852181637,-35.5659647056326 L70.80776238662902,-35.528492757601896 L70.66440601600262,-35.48303284690927 " />
			<path d="M12.840394980214136,-29.26270358929699 L-195.66423435669572,78.56588048104001 " />
			<path d="M-195.6642343566957,78.56588048104001 L-191.65156089419742,87.69147122327719 " />
			<path d="M102.33121302891652,-58.52116690361774 L127.26259783101429,-71.4144821775872 " />
			<path d="M102.33121302891652,-58.52116690361774 L123.7324646761552,-65.51817229315958 " />
			<path d="M102.33121302891652,-58.52116690361774 L116.7253547556778,-25.78612187396265 " />
			<path d="M127.26259783101426,-71.4144821775872 L127.03758505437571,-71.29506865179262 L126.87591767913273,-71.2028489237802 L126.81601059732941,-71.16572272511272 L126.7685463622288,-71.1339381652953 L126.73239380594885,-71.10700964079614 L126.70642176060744,-71.0844515480834 L126.68949905832257,-71.06577828362524 L126.68049453121213,-71.05050424388983 L126.67827701139407,-71.03814382534539 L126.68171533098635,-71.02821142446005 L126.68967832210687,-71.02022143770202 L126.70103481687359,-71.01368826153946 L126.72940364581734,-71.00304992687346 " />
			<path d="M127.26259783101426,-71.4144821775872 L127.00553890933101,-71.28459136507651 L126.75330634157042,-71.16276191373595 L126.50521064860068,-71.04784220054118 L126.26056235128998,-70.93868060246794 L126.01867197050652,-70.8341254964919 L125.77885002711847,-70.73302525958876 L125.30265353600143,-70.536582900904 " />
			<path d="M123.73246467615519,-65.51817229315958 L123.50689196815786,-65.44087226542536 L123.27649290623786,-65.35551087652102 L123.04195696952702,-65.26323974947087 L122.80397363715713,-65.16521050729922 L122.56323238826002,-65.06257477303035 L122.32042270196747,-64.95648416968857 L121.83135593372333,-64.7385448478835 " />
			<path d="M123.73246467615519,-65.51817229315958 L123.62986063890199,-65.48553345108833 L123.54422411987974,-65.46017866199445 L123.4744239512064,-65.4416223223461 L123.41932896499988,-65.42937882861148 L123.37780799337813,-65.42296257725873 L123.34872986845907,-65.42188796475604 L123.33096342236067,-65.4256693875716 L123.32596858890606,-65.42922936112002 L123.32337748720083,-65.43382124217358 L123.32484089509751,-65.44585792503014 L123.33422247816863,-65.46129383260948 L123.35039106853213,-65.47964336137976 L123.37221549830596,-65.50042090780916 L123.4283072045563,-65.54731763951801 L123.49344825386316,-65.59809919948147 " />
			<path d="M116.72535475567778,-25.786121873962657 L116.6895996270612,-25.870125737887836 L116.65723090345742,-25.95169466764296 L116.62813934599505,-26.030907209491584 L116.60221571580273,-26.10784190969725 L116.57935077400906,-26.182577314523513 L116.55943528174267,-26.255191970233923 L116.54236000013218,-26.325764423092032 L116.52801569030619,-26.394373219361384 L116.51629311339335,-26.46109690530553 L116.50708303052225,-26.52601402718803 L116.50027620282154,-26.58920313127242 L116.49576339141981,-26.65074276382226 L116.4934353574457,-26.7107114711011 L116.49318286202782,-26.76918779937248 L116.49846753137523,-26.881977503947095 L116.51074348849099,-26.989740247654495 L116.52913682240408,-27.09310440060309 L116.55277362214343,-27.192698332901276 L116.580779976738,-27.28915041465746 L116.61228197521676,-27.383089015980033 L116.64640570660865,-27.475142506977406 L116.71902272424765,-27.65610763843014 " />
			<path d="M116.72535475567778,-25.786121873962657 L116.687531431559,-25.869449554302218 L116.64904520336448,-25.949018404188305 L116.60991745509668,-26.02494967621619 L116.57016957075804,-26.09736462298114 L116.52982293435099,-26.16638449707844 L116.48889892987799,-26.232130551103356 L116.44741894134148,-26.29472403765116 L116.40540435274389,-26.354286209317134 L116.36287654808767,-26.410938318696545 L116.31985691137527,-26.464801618384662 L116.27636682660913,-26.51599736097677 L116.23242767779169,-26.564646799068132 L116.14328772401267,-26.65479177212973 L116.05260812205776,-26.736206558331638 L115.96055994394652,-26.809861178436048 L115.86731426169847,-26.876725653205146 L115.77304214733316,-26.93777000340112 L115.67791467287014,-26.993964249786153 L115.58210291032894,-27.046278413122437 L115.48577793172913,-27.09568251417216 L115.29227261443177,-27.189640612460664 " />
			<path d="M133.04598904232975,-74.03443208649978 L129.6133518511509,-72.62051106735018 " />
			<path d="M129.6133518511509,-72.62051106735017 L129.22039348506502,-72.79790246419942 " />
			<path d="M129.220393485065,-72.79790246419942 L128.50361617200468,-72.4272196500728 " />
			<path d="M128.50361617200468,-72.42721965007281 L128.8897946179374,-72.31755915771899 " />
			<path d="M128.8897946179374,-72.31755915771897 L126.01672676936575,-71.14111984557981 " />
			<path d="M126.01672676936576,-71.14111984557982 L125.31240703302134,-70.77687949204746 " />
			<path d="M125.31240703302132,-70.77687949204744 L128.92150998073524,-72.26272366701888 " />
			<path d="M128.92150998073524,-72.26272366701889 L129.312510110373,-72.10365602570148 " />
			<path d="M129.31251011037304,-72.10365602570147 L130.01682984671746,-72.46789637923384 " />
			<path d="M130.01682984671743,-72.46789637923385 L129.65217796102942,-72.57036992473246 " />
			<path d="M129.65217796102942,-72.57036992473245 L132.3541471719141,-73.67664468616847 " />
			<path d="M132.35414717191412,-73.67664468616849 L133.04598904232975,-74.03443208649978 " />
			<path d="M125.99326227024551,-66.25732592824868 L126.22276970195368,-66.42542789595095 " />
			<path d="M126.22276970195367,-66.42542789595095 L128.00535965746107,-67.34729783951839 " />
			<path d="M128.0053596574611,-67.3472978395184 L127.50777359010954,-67.18461518654053 " />
			<path d="M127.50777359010951,-67.18461518654053 L125.72518363460209,-66.26274524297308 " />
			<path d="M125.7251836346021,-66.26274524297307 L124.9694866487847,-65.92260889117449 " />
			<path d="M118.01379332323333,-19.383718655836816 L120.8227076019334,-20.302075613214182 " />
			<path d="M120.82270760193336,-20.302075613214157 L120.52042828287486,-20.989516886806484 " />
			<path d="M120.52042828287489,-20.989516886806484 L116.16169778658467,-24.834306987867464 " />
			<path d="M116.16169778658465,-24.83430698786745 L118.50514180851056,-25.600481355693308 " />
			<path d="M118.50514180851056,-25.60048135569332 L118.21006658870496,-26.271539122862112 " />
			<path d="M118.21006658870496,-26.271539122862123 L116.72535475567778,-25.786121873962657 " />
			<path d="M116.72535475567778,-25.786121873962657 L115.2406429226506,-25.30070462506319 " />
			<path d="M115.24064292265061,-25.30070462506319 L115.5357181424562,-24.629646857894397 " />
			<path d="M115.5357181424562,-24.629646857894386 L119.91233468328714,-20.77199611528146 " />
			<path d="M119.91233468328713,-20.77199611528144 L117.71870638944516,-20.0548030628534 " />
			<path d="M117.71870638944515,-20.05480306285341 L118.01379332323327,-19.383718655836773 " />

        </g>
        </g>
    </svg>
    