<?xml version="1.0" encoding="UTF-8" standalone="no"?>
    <svg
    xmlns:svg="http://www.w3.org/2000/svg"
    xmlns="http://www.w3.org/2000/svg"
    width="247"
    height="312"
    >
        <g transform="scale(20, -20)   translate(6.083023088354885,-8.048476773406861)" stroke-width="0.05"  fill="none">
        <!-- hidden lines -->
        <g  stroke="rgb(160,160,160)" fill="none" stroke-dasharray="0.05,0.05" >
    
        </g>

        <!-- solid lines -->
        <g  stroke="rgb(0,0,0)" fill="none">
    			<path d="M-3.9416164799201345,5.435031120206444 L2.964558294371887,0.327403162712133 " />
			<path d="M-3.9416164799201336,5.435031120206444 L-3.9633255987629843,5.449705581667983 L-3.9846364968640193,5.461348362349479 L-4.005161863871645,5.469747608169609 L-4.024528628287012,5.4747502084213 L-4.042384534867107,5.476264740373412 L-4.058404708175405,5.474263180724661 L-4.07229738364598,5.468781599147682 L-4.083809441333364,5.4599195117512345 " />
			<path d="M2.9645582943718876,0.327403162712133 L2.986740037095503,0.3095559854421595 L3.0084970565940354,0.28916585068106027 L3.0294162585254076,0.2666195683898682 L3.0491006835832053,0.24234456054946424 L3.0671765719512374,0.21680124856256913 L3.0833002188627203,0.1904748643576007 L3.097165246236944,0.1638652081148642 L3.1085076093159647,0.13747859960658096 L3.1171112830730836,0.11181732197565217 L3.1228123780085575,0.08736993105101566 L3.1255021595434664,0.06460235566789321 L3.1251293182513833,0.04394888859874386 L3.121700958565737,0.02580293012161786 L3.115282495445696,0.010510608571203846 L3.1059963060478846,-0.0016368462782101467 L3.0940192523214742,-0.010408322425670247 " />
			<path d="M3.3787457957651683,0.6773569289775736 L3.2899671920514604,0.5798606061082541 L3.1958785871762543,0.48511941462495356 L3.096636540584575,0.3932909998491134 L2.992406186829742,0.3045281603653731 " />
			<path d="M3.378745795765043,0.6773569289775203 L3.433651401547667,0.6879608827506711 L3.4896268350638353,0.6988173818095733 L3.546693891648863,0.7099306533843257 L3.6048747916868655,0.7213050246853734 L3.6641921892627813,0.7329449245883994 L3.724669180983264,0.744854885358821 L3.7863293149698856,0.7570395444165245 L3.8491966000281423,0.7695036461415556 L3.913295514995841,0.7822520437214568 L3.978651018274505,0.7952897010409612 L4.045288557547505,0.8086216946148057 L4.113234079688709,0.8222532155643814 L4.182514040865496,0.8361895716390229 L4.253155416840066,0.8504361892826972 " />
			<path d="M-2.8809799246844885,6.126657876946922 L-2.8103385487099013,6.007922195914125 L-2.7410585875331144,5.891510510683929 L-2.673113065391911,5.777377493662518 L-2.6064755261189103,5.66547870450847 L-2.5411200228402464,5.555770572828884 L-2.477021107872548,5.448210381214237 L-2.414153822814291,5.342756248605363 L-2.3524936888276695,5.239367113986092 L-2.292016697107187,5.138002720395194 L-2.232699299531271,5.038623599251387 L-2.1745183994932686,4.941191054985337 L-2.117451342908241,4.845667149972632 L-2.061475909392073,4.752014689761891 L-2.0065703036094624,4.660197208592263 " />
			<path d="M-2.51030430186489,4.376469711689748 L-2.390334242920151,4.453017007837556 L-2.2662507769330036,4.525899942501685 L-2.1382589591524646,4.594998072332188 L-2.006570303609505,4.66019720859242 " />
			<path d="M3.378745795764952,0.6773569289776773 L-2.006570303609358,4.660197208592264 " />
			<path d="M-1.8174166846518847,-2.8677457394781487 L-1.9602911237494625,-2.84064010648826 " />
			<path d="M-2.8717052593410344,-4.017570653630001 L-2.884606413390077,-4.09097758248118 L-2.8938328898160126,-4.164671330041218 L-2.8993733247110067,-4.238556487885853 L-2.901220894669576,-4.31253741169166 " />
			<path d="M-2.901220894669576,-4.312537411691662 L-2.8976072544611333,-4.415985758845746 L-2.886775041970317,-4.519172205741292 L-2.8687503570735906,-4.621835475984266 L-2.8435766270652714,-4.723715553620734 L-2.8113145017510797,-4.824554309650643 L-2.7720417071085364,-4.9240961239652625 L-2.7258528578684214,-5.0220885012112255 L-2.672859229467129,-5.118282679100075 L-2.6131884899151747,-5.2124342277013 L-2.546984392221976,-5.304303638278981 L-2.4744064281109246,-5.3936569002576285 L-2.395629443851473,-5.480266064931323 L-2.3108432191260384,-5.563909794561976 L-2.220252009938781,-5.644373895547444 L-2.1240740566603207,-5.721451834378151 L-2.0225410583871333,-5.794945235141883 L-1.9158976148762208,-5.864664357380378 L-1.8044006373946366,-5.930428553148158 L-1.6883187298992215,-5.99206670217371 L-1.5679315420342763,-6.049417624075377 L-1.4435290955036408,-6.102330466639254 L-1.3154110854386891,-6.150665069223612 L-1.1838861584446854,-6.1942923004140695 L-1.0492711690648633,-6.2330943691154514 L-0.9118904164542021,-6.266965108330082 L-0.7720748631030261,-6.295810230937926 L-0.6301613374942585,-6.3195475568613375 L-0.4864917226171668,-6.338107211066038 L-0.34141213229475165,-6.3514317919202465 L-0.19527207731140428,-6.3594765095052725 L-0.048423623352158884,-6.362209293543358 L0.09877945721555381,-6.359610870681844 L0.24598253767186362,-6.351674810946654 L0.39283099133067756,-6.338407543252485 L0.5389710459219388,-6.319828339931798 L0.6840506359099248,-6.295969270319464 L0.8277202506928867,-6.266875123504603 L0.96963377663951,-6.232603300435594 L1.1094493309328568,-6.1932236756381975 L1.2468300852125078,-6.148818428880023 L1.3814450770304956,-6.099481847187153 L1.5129700071662922,-6.045320097690203 L1.641088020880495,-5.986450971847467 L1.7654904712257076,-5.923003601661845 L1.8858776625767129,-5.855118148575713 L2.001959572589764,-5.782945465793794 L2.1134565508529968,-5.706646734848113 L2.2200999925462415,-5.626393077281078 L2.3216329854887374,-5.542365142382833 L2.4178109290175303,-5.454752671976443 L2.5084021232070017,-5.363754043299929 L2.593188327011537,-5.269575791086748 L2.6719652839880648,-5.1724321099963895 L2.744543214333176,-5.072544338594019 L2.810747272050499,-4.970140426122531 L2.8704179661479503,-4.865454383351566 L2.9234115448507656,-4.7587257188265575 L2.9696003419051897,-4.650198861875778 L3.0088730841388744,-4.540122573765254 L3.0411351595368825,-4.428749348419882 L3.066308845187343,-4.316334804154181 L3.084333494547091,-4.203137067877636 L3.0951656835754835,-4.089416153257767 L3.098779315383298,-3.9754333343385526 " />
			<path d="M3.0987793153832963,-3.9754333343385415 L3.0972600138752866,-3.9015135721125014 L3.09270364796507,-3.8276652219334415 L3.0851148322923385,-3.7539596232276793 L3.0745012529718543,-3.680467970840239 " />
			<path d="M-2.8717052603075937,-3.34336528362464 L-2.884606277533708,-3.416771701297569 L-2.8938326853968865,-3.490464926236568 L-2.899373101345989,-3.5643495557274756 L-2.9012206733329338,-3.638329952737965 " />
			<path d="M-2.9012206733329333,-3.6383299527379833 L-2.897606985981145,-3.7417782515720055 L-2.8867746891203145,-3.8449646344896014 L-2.868749938619129,-3.947627837794826 L-2.8435761880767494,-4.049507853585849 L-2.8113140938156373,-4.150346557418816 L-2.772041376071865,-4.249888331185384 L-2.7258526371652683,-4.347880679736047 L-2.672859137467976,-4.444074839794182 L-2.6131885300321764,-4.53822637972202 L-2.5469845547855012,-4.630095788719298 L-2.474406693254391,-4.719449054058373 L-2.395629784831396,-4.806058224985947 L-2.3108436056608888,-4.889701961951277 L-2.2202524112783513,-4.970166069853798 L-2.1240744442006774,-5.047244014039405 L-2.022541407728065,-5.120737417814132 L-1.9158979072816298,-5.190456540286578 L-1.8044008606640944,-5.256220733396081 L-1.6883188786935175,-5.317858877032166 L-1.5679316177213845,-5.375209791202147 L-1.443529105605983,-5.42812262425779 L-1.315411042769752,-5.476457216248479 L-1.1838860800243511,-5.5200844365273145 L-1.0492710748995657,-5.558886494797769 L-0.9118903282614357,-5.592757224851834 L-0.7720748030508018,-5.621602340315796 L-0.6301613270155313,-5.645339661786848 L-0.4864917813478833,-5.66389931481227 L-0.341412277172529,-5.677223898232971 L-0.19527232186047705,-5.68526862248439 L-0.0484239771693149,-5.688001417520115 L0.09877898876924363,-5.685403010096701 L0.24598195357762975,-5.677466970232052 L0.39283029482866416,-5.664199726724092 L0.5389702442558932,-5.645620551691095 L0.6840497399230392,-5.621761514169823 L0.8277192743014559,-5.592667402882367 L0.9696327362133905,-5.5583956183569905 L1.1094482446128646,-5.519016034662329 L1.2468289721948738,-5.474610831087664 L1.3814439568474661,-5.425274294174574 L1.512968898990068,-5.371112590576861 L1.641086942875014,-5.312243511296072 L1.7654894399676673,-5.248796187909031 L1.8858766925634125,-5.180910781471373 L2.0019586758473924,-5.108738144847023 L2.1134557366548306,-5.032439459277637 L2.220099267246015,-4.95218584606809 L2.321632352470319,-4.868157954324162 L2.4178103887580216,-4.780545525736189 L2.5084016734468255,-4.689546937457816 L2.5931879630217534,-4.595368724181643 L2.671964998922295,-4.498225080563668 L2.7445429996491866,-4.398337345195797 L2.810747117984711,-4.295933467369904 L2.87041786222486,-4.191247457918468 L2.923411480408655,-4.084518825454956 L2.9696003066193724,-3.9759919993723485 L3.0088730685241627,-3.8659157409898635 L3.0411351554120776,-3.754542544266506 L3.0663088460859154,-3.6421280275250605 L3.084333496060231,-3.528930317651758 L3.095165683615913,-3.41520942825488 L3.098779314361045,-3.3012266332800495 " />
			<path d="M3.098779314361048,-3.301226633280013 L3.096791803719534,-3.2166836782998227 L3.090831905606027,-3.132247567142227 L3.080907517429191,-3.048025002449995 L3.067031789545405,-2.9641224039150735 " />
			<path d="M-2.871705284142722,-2.669155733954854 L-2.8846064244331293,-2.7425626872117737 L-2.8938328936316355,-2.8162564526442444 L-2.8993733258639094,-2.8901416214677718 L-2.901220895465982,-2.964122549148849 " />
			<path d="M-2.901220895466055,-2.964122549148877 L-2.897607255095367,-3.067570874832417 L-2.88677503785515,-3.1707572866403675 L-2.8687503379416044,-3.2734205091250246 L-2.8435765785074225,-3.375300527890599 L-2.811314407401482,-3.476139216183228 L-2.772041551316842,-3.5756809569041956 L-2.7258526286376767,-3.6736732585170344 L-2.67285892135262,-3.769867363325201 L-2.6131881064825215,-3.8640188466017062 L-2.546983947545535,-3.9558882050634763 L-2.4744059466524777,-4.045241433188656 L-2.3956289578873955,-4.131850585890244 L-2.3108427626899424,-4.2154943260653175 L-2.220251608007322,-4.295958455554025 L-2.1240737080273067,-4.373036428050815 L-2.022540710348941,-4.4465298425170285 L-1.915897186434325,-4.516248918683288 L-1.8044001028829584,-4.582013032508945 L-1.688318098188199,-4.643651101983764 L-1.5679308398434544,-4.701001966438137 L-1.443528356213335,-4.753914780753108 L-1.3154103420143444,-4.80224938331105 L-1.1838854393637388,-4.845876637057611 L-1.0492704963684711,-4.884678743073503 L-0.9118898052405036,-4.918549526088314 L-0.7720743219396469,-4.947394691407167 L-0.6301608693597922,-4.971132052764487 L-0.48649132608848444,-4.989691730666789 L-0.3414118027826749,-5.003016320838011 L-0.19527180821478485,-5.011061032435966 L-0.04842340705246495,-5.013793795766669 L0.09877962855772893,-5.011195339284251 L0.24598267152840192,-5.003259235727415 L0.3928310944157425,-4.9899919173087595 L0.5389711239771473,-4.9714126599402535 L0.6840506936346777,-4.9475535365465175 L0.8277202917864845,-4.9184593395869225 L0.9696338039217562,-4.884187472977599 L1.1094493465121649,-4.844807813674977 L1.246830090674388,-4.800402543253049 L1.3814450736240689,-4.751065949877089 L1.5129699959716487,-4.696904201146547 L1.6410880029448847,-4.638035088349241 L1.7654904476615294,-4.574587742737417 L1.885877634618625,-4.506702324503501 L2.0019595416120546,-4.434529685199304 L2.113456518351415,-4.358231004406696 L2.220099960090763,-4.277977401530276 L2.3216329546553056,-4.193949523643078 L2.417810901307561,-4.106337110374605 L2.508402099963669,-4.015338536886512 L2.5931883093413544,-3.921160336034691 L2.6719652726953673,-3.8240167008672654 L2.744543209873824,-3.7241289686560366 L2.810747274509534,-3.6217250877039535 L2.8704179752441266,-3.5170390682131902 L2.9234115599690846,-3.4103104185372706 L2.969600362156774,-3.3017835681762584 L3.0088731084456737,-3.1917072789062924 L3.041135186737336,-3.080334045463568 L3.066308874157722,-2.967919487228191 L3.0843335243322563,-2.85472173237512 L3.095165713522072,-2.7410007959776355 L3.0987793452681474,-2.62701795356333 " />
			<path d="M3.098779345268147,-2.6270179535632505 L3.0972600364755016,-2.5530979964315836 L3.0927036488435395,-2.479249452176165 L3.0851147972430444,-2.405543661127909 L3.0745011680610195,-2.3320518190133304 " />
			<path d="M3.0670318487707124,-2.289913851698418 L3.051346791250141,-2.2154785356904405 L3.0325530406060675,-2.141456405275915 L3.010670384276415,-2.067921730837443 L2.9857218619637123,-1.9949482694945537 " />
			<path d="M2.3169379484033823,-1.0560203293229609 L2.2296606152985547,-0.9836366449027842 " />
			<path d="M1.9733787116873909,-0.8010834317878985 L1.8406382753000945,-0.7210334558790747 L1.7025394774636418,-0.6465327127841642 " />
			<path d="M-1.757885421641947,-0.6465327127620799 L-1.8767009377958583,-0.7138854144113274 L-1.9902804635535283,-0.7856576759577165 " />
			<path d="M-2.250053227996518,-0.9836366787012109 L-2.2753138103975368,-1.005983417827327 " />
			<path d="M-2.862607101917078,-1.952810361698137 L-2.879480076593916,-2.036585237924922 L-2.8915516682675433,-2.120789354069257 L-2.8988024162149766,-2.2052800155872516 L-2.9012206316089437,-2.2899140660538224 " />
			<path d="M-2.9012206316089273,-2.2899140660538855 L-2.8976070009035184,-2.393362356336407 L-2.8867748147915364,-2.496548745209589 L-2.868750169558603,-2.5992119600533474 L-2.8435764886226336,-2.7010919884711404 L-2.811314417888839,-2.801930704582973 L-2.772041679618717,-2.901472490774413 L-2.725852885168465,-2.9994648534094206 L-2.6728593070481694,-3.095659031028995 L-2.613188610854731,-3.1898105935774934 L-2.5469845477243975,-3.2816800312193766 L-2.4744066080483575,-3.371033331334852 L-2.395629637285964,-3.4576425423106776 L-2.310843414802069,-3.5412863227740177 L-2.2202521967420865,-3.6217504749507374 L-2.124074224044855,-3.6988284608651254 L-2.02254119677695,-3.772321900138671 L-1.915897716049797,-3.8420410481838836 L-1.8044006948594682,-3.9078052536331884 L-1.6883187392618,-3.969443393886614 L-1.5679315013638355,-4.026794287707335 L-1.4435290056799084,-4.079707083839459 L-1.3154109504611111,-4.128041624670752 L-1.1838859856652255,-4.171668784008101 L-1.0492709692882212,-4.210470778081876 L-0.9118902038258059,-4.244341448938843 L-0.772074654679632,-4.273186519430909 L-0.6301611523634767,-4.296923819047821 L-0.486491580397876,-4.31548347988429 L-0.34141205081672044,-4.328808102068962 L-0.19527206923079854,-4.336852888019013 L-0.04842369141934233,-4.339585744914281 L0.09877932655459831,-4.336987354812902 L0.24598234391389426,-4.329051244781452 L0.3928307217009503,-4.315783889407029 L0.5389707035694,-4.297204605902775 L0.6840502335443033,-4.273345486583446 L0.8277198058920087,-4.244251328698576 L0.9696333085091867,-4.209979531915646 L1.1094488578435167,-4.170599964031052 L1.2468296233759157,-4.126194795513377 L1.381444639716024,-4.076858303514774 L1.5129696043893273,-4.022696646021327 L1.6410876594254362,-3.963827606851642 L1.7654901548926185,-3.9003803122540295 L1.885877392564093,-3.832494919895808 L2.001959347946319,-3.7603222810830723 L2.1134563689485653,-3.6840235770953167 L2.220099849526645,-3.6037699305659032 L2.321632876691403,-3.519741992886255 L2.4178108493342156,-3.432129508658466 L2.5084020673876273,-3.3411308582671566 L2.5931882899087366,-3.246952579686693 L2.671965260746016,-3.1498088706840734 L2.7445432005269055,-3.049921072620257 L2.810747263783357,-2.9475171370934383 L2.8704179601152973,-2.842831076706563 L2.9234115383778025,-2.7361024012775967 L2.969600332966058,-2.627575540844925 L3.0088730713628697,-2.5174992568514463 L3.041135142206418,-2.4061260429190234 L3.066308823230731,-2.293711516650121 L3.084333468527804,-2.180513803915456 L3.0951656546782313,-2.0667929171050607 L3.098779285396267,-1.9528101288353725 " />
			<path d="M3.098779285396266,-1.9528101288352924 L3.0972599879390668,-1.8788904730740992 L3.0927036342742147,-1.8050422292706294 L3.085114839165043,-1.7313367362068015 L3.0745012888279346,-1.6578451881019456 " />
			<path d="M-2.8717053632996734,-1.3207405637202567 L-2.8846063824492996,-1.394147228335437 L-2.8938327628080307,-1.4678407046908855 L-2.899373140435207,-1.54172558545402 L-2.901220691467479,-1.6157062275179954 " />
			<path d="M-2.9012206914674885,-1.6157062275180727 L-2.8976070597392445,-1.7191545724823212 L-2.8867748706024203,-1.822341011396282 L-2.8687502205145217,-1.9250042687337459 L-2.8435765332120253,-2.026884329424127 L-2.811314455066265,-2.127723065296455 L-2.7720417089472633,-2.2272648569759363 L-2.725852906948762,-2.3252572097329085 L-2.6728593224270574,-2.421451361798751 L-2.6131886219041087,-2.515602883681759 L-2.5469845574826717,-2.6074722670373127 L-2.4744066205153468,-2.696825501672337 L-2.395629657363772,-2.7834346392929223 L-2.3108434481748805,-2.8670783426357804 L-2.2202522496896346,-2.9475424186604426 L-2.124074303187059,-3.024620334517328 L-2.0225413087489645,-3.098113715049494 L-1.9158978671121456,-3.167832820630023 L-1.8044008904522868,-3.233597004186177 L-1.6883189835178651,-3.295235146311092 L-1.5679317966034383,-3.352586067417861 L-1.4435293519189094,-3.405498915946885 L-1.3154113449744518,-3.453833531695301 L-1.1838864226607684,-3.497460783398015 L-1.0492714397594682,-3.5362628797523334 L-0.9118906956697674,-3.570133653142517 L-0.7720751531855214,-3.598978815386425 L-0.6301616411987945,-3.6227161848934313 L-0.4864920432450146,-3.641275884691906 L-0.3414124738396896,-3.6546005108531796 L-0.19527244458598092,-3.6626452709093695 L-0.0484240220591631,-3.6653780919327046 L0.09877902050583047,-3.6627796980146954 L0.24598205567827103,-3.6548436569541587 L0.39283045638983805,-3.641576396032545 L0.5389704505187878,-3.6229971868249597 L0.6840499734277525,-3.5991380990635307 L0.8277195163787815,-3.5700439236362618 L0.9696329687513561,-3.5357720648701516 L1.1094484519932868,-3.4963924023109807 L1.2468291432402347,-3.451987122271322 L1.3814440865499014,-3.4026505194797276 L1.5129689897066423,-3.348488769214538 L1.6410870045684167,-3.2896196703621037 L1.7654894889366,-3.2261723598823564 L1.8858767479491148,-3.1582869992115823 L2.0019587530097738,-3.086114433167746 L2.1134558362800107,-3.0098158219602986 L2.220099358769376,-2.92956224693514 L2.321632354175448,-2.8455343342513455 L2.4178102539060666,-2.757921864396459 L2.508401409463971,-2.6669232380408463 L2.5931876060396846,-2.572745001233785 L2.6719645962798606,-2.4756013519626143 L2.74454259849999,-2.3757136272213892 L2.8107467584892305,-2.2733097720355957 L2.8704175740930125,-2.168623791899312 L2.923411281804604,-2.0618951900917044 L2.9696002046491157,-1.9533683913508177 L3.008873060702224,-1.8432921533935038 L3.0411352316504714,-1.7319189677806095 L3.0663089908698153,-1.6195044516361885 L3.084333690573666,-1.5063067317378394 L3.095165907660468,-1.3925858225019914 L3.0987795479733444,-1.2786029993931987 " />
			<path d="M3.0987795479733444,-1.278602999393117 L3.097260222404817,-1.204682719207396 L3.092703785267202,-1.1308338498826014 L3.085114852768518,-1.0571277329189641 L3.0745011127361677,-0.9836355652314288 " />
			<path d="M-2.862606987956597,-0.6043947208378098 L-2.8794800240540903,-0.6881697766176607 L-2.89155166106398,-0.7723740750774879 L-2.8988024370747443,-0.8568649201940257 L-2.901220662079629,-0.941499153988101 " />
			<path d="M-2.9012206620796315,-0.9414991539882512 L-2.8976070313827336,-1.0449474513432324 L-2.886774843971904,-1.1481338431392945 L-2.8687501942398788,-1.2507970554382888 L-2.8435765039072347,-1.3526770746388923 L-2.811314417461497,-1.453515773861332 L-2.7720416561024352,-1.5530575347887703 L-2.7258528305439054,-1.6510498634676154 L-2.6728592131218107,-1.7472439985835888 L-2.6131884697558565,-1.8413955107481645 L-2.5469843524096722,-1.93326489135195 L-2.474406352789366,-2.022618129566114 L-2.395629318113949,-2.109227276102107 L-2.310843029882818,-2.1928709923711174 L-2.220251746655273,-2.2733350837200526 L-2.1240737119435273,-2.350413015459055 L-2.02254062840524,-2.4239064104371666 L-1.9158970996035753,-2.4936255269667353 L-1.8044000406804335,-2.55938971594471 L-1.6883180593646778,-2.6210278560689724 L-1.567930808808078,-2.67837876610076 L-1.4435283138102748,-2.7312915931791357 L-1.3154102720587488,-2.7796261762515337 L-1.183885332069237,-2.8232533837442486 L-1.0492703495689892,-2.862055424658888 L-0.9118896241170362,-2.8959261323447287 L-0.7720741178030819,-2.924771220263089 L-0.630160657909689,-2.948508509127375 L-0.4864911254607245,-2.9670681248711825 L-0.34141163161268917,-2.980392666967997 L-0.19527168387448146,-2.988437346696766 L-0.04842334416469063,-2.9911700950209266 L0.09877961926535495,-2.988571639821396 L0.2459825840002734,-2.9806355522983226 L0.3928309276708941,-2.9673682624305897 L0.5389708821499031,-2.948789043457025 L0.6840503856800453,-2.924929965417966 L0.8277199308865575,-2.8958358178704184 L0.9696334066370045,-2.86156400196437 L1.1094489317277634,-2.822184392142043 L1.246829678396672,-2.7777791677944306 L1.3814446836864835,-2.7284426152822485 L1.5129696467138223,-2.674280900799772 L1.6410877099318073,-2.6154118146291707 L1.7654902225136835,-2.5519644874029783 L1.885877484025598,-2.4840790790577323 L2.001959466603495,-2.4119064412285924 L2.1134565138973884,-2.3356077538964914 L2.220100015100105,-2.2553541371622288 L2.3216330524304674,-2.1713262390793573 L2.417811020500875,-2.083713800535123 L2.508402216056854,-1.9927151982226283 L2.593188396638704,-1.898536966798628 L2.67196530677792,-1.8013933013693968 L2.7445431704028485,-1.701505541494026 L2.8107471481930526,-1.5991016379358023 L2.8704177586848836,-1.4944156034315514 L2.923411261990954,-1.387686948787853 L2.9696000050597355,-1.279160105641561 L3.0088727274569607,-1.1690838372561576 L3.041134826708804,-1.057710638749097 L3.066308582295761,-0.9452961281684145 L3.084333337436225,-0.8320984298587675 L3.0951656378384134,-0.7183775515694859 L3.09877932663696,-0.6043947567793195 " />
			<path d="M3.098779326636959,-0.6043947567791568 L3.097260003537546,-0.5304751093721706 L3.092703591487249,-0.4566268799752405 L3.0851147271342176,-0.3829214040975357 L3.074501111927067,-0.30942987365362234 " />
			<path d="M-2.8803267185499726,-0.01892415209333015 L-2.8894618407264385,-0.08081636170319928 L-2.8959926204078608,-0.1428793717117895 L-2.8999133661058147,-0.20505633150035996 L-2.9012206610575006,-0.26729029114437247 " />
			<path d="M-2.9012206610575015,-0.26729029114451897 L-2.897684325014115,-0.3696269529876998 L-2.887083654810409,-0.471710067034203 L-2.8694436432900856,-0.5732866825493383 L-2.844805878835043,-0.6741050428918924 L-2.8132284472836737,-0.7739151790314458 L-2.774785794960791,-0.872469498851951 L-2.7295685531429266,-0.9695233708526978 L-2.677683324373553,-1.0648357008708238 L-2.6192524311324847,-1.1581695004661432 L-2.554413627452087,-1.249292445628587 L-2.483319774160341,-1.3379774244913012 L-2.406138478516124,-1.4240030727582293 L-2.323051699085945,-1.5071542955839816 L-2.234255316792897,-1.5872227746757663 L-2.1399586731483966,-1.6640074594216843 L-2.0403840767543793,-1.7373150408873417 L-1.9357662792382753,-1.806960407563182 L-1.8263519218549868,-1.8727670817877884 L-1.7123989540591893,-1.9345676358178747 L-1.5941760254174966,-1.9922040865636186 L-1.4719618522925755,-2.0455282680582987 L-1.3460445607909532,-2.094402180783672 L-1.2167210075222323,-2.1386983170268863 L-1.0842960797700085,-2.178299961501486 L-0.9490819767231171,-2.2131014665231787 L-0.8113974734610374,-2.243008501091121 L-0.6715671694280143,-2.2679382732871014 L-0.529920723166903,-2.2878197254678074 L-0.38679207511707414,-2.3025937017897573 L-0.24251866030861446,-2.3122130876716174 L-0.09744061280923155,-2.3166429208650516 L0.04810003619981096,-2.315860473872088 L0.19376016482711833,-2.3098553075149386 L0.339196369451769,-2.298629295532 L0.4840657743723522,-2.2821966201426003 L0.6280268402136997,-2.260583738591225 L0.770740169183787,-2.233829320750834 L0.9118693052800522,-2.201984157933014 L1.0510815275567285,-2.1651110431207554 L1.188048634580384,-2.123284622907272 L1.322447718222453,-2.076591221490685 L1.4539619249619875,-2.0251286371406536 L1.5822812029022553,-1.9690059116179388 L1.7071030327382128,-1.9083430730911364 L1.828133140950256,-1.8432708531580295 L1.9450861935419301,-1.7739303786392007 L2.0576864686858287,-1.7004728388711439 L2.1656685066919446,-1.6230591292841208 L2.268777735767361,-1.5418594721045178 L2.3667710720932433,-1.4570530150764704 L2.4594174928073516,-1.3688274091477526 L2.54649858054409,-1.2773783661151927 L2.62780903825263,-1.1829091972706482 L2.703157173084293,-1.0856303341340072 L2.7723653482137216,-0.9857588324003341 L2.835270401535589,-0.8835178602685447 L2.8917240302555576,-0.7791361723543233 L2.941593140476969,-0.672847570424646 L2.9847601609651533,-0.5648903522210951 L3.0211233203572823,-0.45550674966800997 L3.0505968871695535,-0.3449423577858158 L3.073111372041818,-0.2334455556526357 L3.088613691744707,-0.12126692077646528 L3.097067294563504,-0.008658638256340057 " />
			<path d="M3.0962146965453523,0.16584948025257207 L3.0881182769555284,0.26548694855684085 L3.0745012883403837,0.36477976159312275 " />
			<path d="M-2.8316917199825764,-0.044181040979415054 L-2.803815324573348,-0.1256647449069055 L-2.771340059687729,-0.2062611823525109 L-2.7343173790658746,-0.2858358885181984 L-2.692805941424572,-0.36425601751821257 L-2.6468715175161357,-0.44139055286191 L-2.5965868859177865,-0.5171105150360431 L-2.5420317177167524,-0.5912891658577337 L-2.4832924502739093,-0.6638022092744269 L-2.4204621502661743,-0.7345279882928539 L-2.3536403662247736,-0.803347677725083 L-2.2829329708032127,-0.8701454724465283 L-2.2084519930250535,-0.9348087708678026 L-2.130315440777445,-0.9972283533299635 L-2.048647113831814,-1.0572985551407614 L-1.9635764076881772,-1.1149174339779389 L-1.8752381085539271,-1.1699869313946942 L-1.7837721797822592,-1.2224130281714982 L-1.6893235401084974,-1.2721058932685876 L-1.5920418340359221,-1.3189800261432467 L-1.4920811947350803,-1.3629543922065925 L-1.389599999832145,-1.4039525512055488 L-1.2847606204733593,-1.4419027783267164 L-1.1777291640632712,-1.4767381778304618 L-1.0686752110842623,-1.5083967890352856 L-0.9577715464144023,-1.5368216844846823 L-0.845193885569254,-1.561961060141012 L-0.731120596301388,-1.583768317463537 L-0.6157324159985746,-1.6022021372405721 L-0.4992121653283008,-1.6172265450587633 L-0.38174445858228223,-1.628810968305688 L-0.26351541117975463,-1.6369302846153782 L-0.1447123447927292,-1.6415648616799057 L-0.025523490560578566,-1.642700588363742 L0.09386230913633975,-1.6403288970715078 L0.21325589987150417,-1.6344467773334108 L0.3324681148613873,-1.6250567805865919 L0.451310074674629,-1.6121670161446942 L0.5695934864863319,-1.5957911383616035 L0.6871309424034437,-1.5759483250096429 L0.8037362163887207,-1.552663246906013 L0.9192245593130224,-1.5259660288355044 L1.03341299166837,-1.49589220183104 L1.14612059347832,-1.4624826468874466 L1.2571687909461042,-1.4257835301973973 L1.3663816393867125,-1.3858462300119296 L1.4735861019943308,-1.3427272552412066 L1.5786123240037644,-1.2964881559244386 L1.681293901811296,-1.247195425710512 L1.7814681466284161,-1.1949203965040025 L1.8789763422508732,-1.139739125443224 L1.9736639965344465,-1.081732274389483 L2.0653810861786757,-1.020984982118638 L2.1539822944309552,-0.9575867294173304 L2.2393272413339522,-0.8916311972979714 L2.32128070615144,-0.8232161185572611 L2.399712841619975,-0.7524431229136159 L2.474499379686852,-0.6794175759692951 L2.545521828407924,-0.6042484122525098 L2.6126676596934817,-0.5270479626046554 L2.6758304876041135,-0.44793177618628577 L2.7349102369143328,-0.36701843738449313 L2.789813301676213,-0.2844293779120892 L2.840452693532157,-0.20028868439691472 L2.886748179541165,-0.11472290176641176 " />
			<path d="M3.0334873559246622,0.2618612015984818 L3.0572826243259628,0.3589125749461086 " />
			<path d="M-2.070545249377937,-0.36746497025474045 L-1.9768887191205182,-0.43200321243480877 L-1.8791797548989924,-0.4934182984808624 L-1.7776091193761874,-0.5515810664300145 L-1.6723751145505996,-0.6063687040573527 L-1.5636831945881964,-0.6576649886685146 L-1.4517455646915005,-0.705360514023762 L-1.336780766789437,-0.7493529039501898 L-1.2190132528570614,-0.7895470122248578 L-1.0986729466985379,-0.8258551083384922 L-0.9759947950488919,-0.8581970487771589 L-0.8512183088712043,-0.8865004334876012 L-0.7245870957449221,-0.9107007472209583 L-0.5963483842580986,-0.9307414854792535 L-0.4667525413321818,-0.9465742648191222 L-0.336052583421575,-0.9581589172978449 L-0.20450368254218487,-0.9654635688777864 L-0.07236266809313369,-0.9684647016366803 L0.06011247455586542,-0.9671471996628247 L0.19266310773288758,-0.961504378546179 L0.32503044640479695,-0.9515379984082637 L0.45695606340526895,-0.9372582604460273 L0.5881823939639539,-0.91868378699687 L0.7184532385519125,-0.8958415851642494 L0.8475142630618877,-0.8687669940752909 L0.9751134953472579,-0.8375036158737501 L1.101001817150531,-0.8021032305833526 L1.2249334504611744,-0.7626256950079568 L1.3466664373535449,-0.7191388258660787 L1.4659631123682129,-0.6717182673880813 L1.5825905665146913,-0.620447343634448 L1.6963211019896993,-0.5654168958234678 L1.8069326767231815,-0.5067251049858577 " />
			<path d="M1.660016691934943,-0.5432303514346639 L1.5903821521101043,-0.5878440708345478 L1.5187977852115524,-0.6305750031616155 L1.445355972610424,-0.6713726679406424 L1.370151716782532,-0.7101888792365973 " />
			<path d="M-1.3866304214159832,-0.7308742130849278 L-1.5033522329829172,-0.6678273722533692 L-1.6141085436806049,-0.5996540763100349 L-1.7184886034524487,-0.5266317797096639 L-1.8161054219271258,-0.4490554356391844 " />
			<path d="M2.441226543915589,-0.3048604638825384 L2.405317492564192,-0.3867942536141672 L2.3647596361601035,-0.46745427670822337 L2.3196350425931915,-0.5466889231858497 L2.270034410354525,-0.624349879229241 L2.2160569017719434,-0.7002921728002709 L2.1578100266292664,-0.7743742348832303 L2.095409573267286,-0.8464579781031656 L2.028979585582948,-0.9164088950035008 L1.958652385661378,-0.9840961787988245 L1.8845686430937025,-1.0493928699509119 L1.80687749335184,-1.1121760324482521 L1.7257367089097273,-1.1723269642015512 L1.6413129281187073,-1.229731446499866 L1.5537819481630515,-1.2842800380042265 L1.4633290897398896,-1.3358684192877919 L1.3701496424260369,-1.3843977944637942 " />
			<path d="M2.5516852191856487,-0.26174776741920436 L2.555129815268532,-0.30942871878425704 " />
			<path d="M2.557513451585929,-0.3940933081079733 L2.5537040673945666,-0.5011098800903034 L2.5422886334231416,-0.6078069860515843 " />
			<path d="M2.523629892111219,-0.7123551065638001 L2.509331710312406,-0.7730958689035325 L2.492552394350186,-0.8334669451249395 L2.4733091996652257,-0.89341031924452 L2.451621801136962,-0.9528684650464094 L2.427512278136039,-1.011784360305616 L2.4010051067380225,-1.0701015022504208 L2.3721271590096777,-1.1277639245027808 L2.3409077093800725,-1.1847162157604088 L2.307378448209768,-1.2409035405090159 L2.2715735027723385,-1.2962716620780517 L2.2335294659634815,-1.3507669683780694 L2.1932854331539446,-1.404336500682697 L2.150883047703498,-1.4569279858430069 L2.106366555754186,-1.508489872346899 L2.059782871022067,-1.5589713706609463 L2.011181650407647,-1.6083224983169762 L1.9606153813462148,-1.656494130230475 L1.9081394819202744,-1.7034380547627392 L1.8538124148572488,-1.7491070360635228 L1.79768495531312,-1.7934632020736219 L1.7398040194403492,-1.8364730240656841 L1.6802308751613966,-1.8780939068715834 L1.6190283276408708,-1.9182851595086274 L1.556260576032813,-1.9570080048220302 L1.4919931469314158,-1.9942255371794588 L1.4262928342128913,-2.029902685207621 L1.359227644900781,-2.064006179654023 L1.2908667506869993,-2.096504526457036 L1.1505401034387113,-2.15656855238436 L1.0058880381819808,-2.209877627080879 L0.8575020504606397,-2.256242199100611 L0.7059892120487592,-2.295500405580904 L0.5519715945853905,-2.3275185469394306 L0.39608584337719055,-2.352191942788905 L0.23898285430246724,-2.3694461797108453 L0.08132304172204988,-2.379238937941722 L-0.07627562495250759,-2.381560812071498 L-0.2331621239073064,-2.3764292400712352 L-0.3886804029322285,-2.363893561265076 L-0.5421868748832837,-2.3440345589559386 L-0.693050826963455,-2.316962987560357 L-0.8406548941014579,-2.2828185112903348 L-0.9843956457257901,-2.2417690396155274 L-1.1236843352314683,-2.194010444739071 L-1.257947861436826,-2.139766646320376 L-1.3230206669849902,-2.110290540504862 L-1.3866299913277353,-2.079290048678201 " />
			<path d="M-2.2837618627419443,-0.9836365493355765 L-2.275313888998247,-0.9612898836010695 " />
			<path d="M-2.102881556912332,-0.6465327014232576 L-2.048959719532496,-0.5759934367208157 L-1.9902804581170042,-0.5074077531694452 " />
			<path d="M1.973378710521047,-0.4919819948345344 L2.050427439169812,-0.5678809225979459 L2.122615619094981,-0.6465327039880194 " />
			<path d="M2.1924529982263277,-0.731197242532245 L2.2388394890625216,-0.7932016578886341 L2.28227869194264,-0.8564361876832759 " />
			<path d="M2.31693794987163,-0.9112529121614792 L2.3586488711789997,-0.9836366134684278 " />
			<path d="M2.40186353828287,-1.0683012078183765 L2.429938441166907,-1.1304658006935635 L2.4552914159459314,-1.1933078443106264 L2.4778918206729346,-1.2567564372899251 L2.4977127034261333,-1.3207404492830148 " />
			<path d="M2.5194690869099827,-1.4054049836165532 L2.5323764362583816,-1.468158043046955 L2.5426291757417405,-1.5311921436953373 L2.5502163265138296,-1.594442545144736 L2.555129800533823,-1.6578444384270403 " />
			<path d="M-1.1998702279353,-0.6465327114216136 L-1.1183732791716707,-0.6148253855080696 " />
			<path d="M2.5575134548763265,-3.0909246588570776 L2.553704230106943,-3.1979388275210803 L2.542288591634834,-3.3046384875596173 " />
			<path d="M2.5236298220290005,-3.409186648919791 L2.498235878601835,-3.5108650640404457 L2.4658923003777335,-3.6113982265870055 L2.4266924556173772,-3.710511101937638 L2.3807506687586155,-3.8079309508194994 L2.328202884907353,-3.9033876634138345 L2.2692045082899517,-3.9966186112801165 L2.203914534410871,-4.087388909484772 L2.1325230141405367,-4.175448144062895 L2.0552402285029574,-4.260552438394178 L1.9722924933749932,-4.342469443796617 L1.8839212936236231,-4.420978096790828 L1.790382583424552,-4.495868457406856 L1.6919462418858653,-4.566941634764556 L1.58889567310045,-4.634009806158637 L1.4815275397508973,-4.696896335879438 L1.3701516193906156,-4.755436000000524 " />
			<path d="M-1.3866330797194917,-4.776119801700993 L-1.4859738490749355,-4.72300046368709 L-1.5810678837778904,-4.6661687478519065 L-1.6716629020706344,-4.6057912124878975 L-1.7575190275308255,-4.54204316054811 L-1.838408865640361,-4.475108382632955 L-1.914117672206987,-4.405178970101323 L-1.9844436206166902,-4.332455191687801 L-2.0491981784326097,-4.257145429490645 L-2.1082066073938543,-4.1794661726782305 L-2.1613086044053693,-4.0996420697445455 L-2.2083591046476534,-4.017906042627337 L-2.2492292714728417,-3.9344994684854315 L-2.2838078890479094,-3.8496719276366047 L-2.3120105768965233,-3.7636541570556874 L-2.3337660739567103,-3.676681475406471 L-2.349015987152882,-3.5890019547731558 " />
			<path d="M-2.3580168069411767,-3.4958513998342626 L-2.359954795710958,-3.428028571854651 " />
			<path d="M-2.901220894669576,-4.396813391161006 L-2.8976072544611333,-4.500261738315089 L-2.886775041970317,-4.603448185210635 L-2.8687503570735906,-4.706111455453609 L-2.8435766270652714,-4.807991533090076 L-2.8113145017510797,-4.908830289119986 L-2.7720417071085364,-5.008372103434605 L-2.7258528578684214,-5.106364480680568 L-2.672859229467129,-5.2025586585694175 L-2.6131884899151747,-5.2967102071706424 L-2.546984392221976,-5.388579617748324 L-2.4744064281109246,-5.477932879726971 L-2.395629443851473,-5.564542044400666 L-2.3108432191260384,-5.648185774031319 L-2.220252009938781,-5.728649875016787 L-2.1240740566603207,-5.8057278138474935 L-2.0225410583871333,-5.879221214611226 L-1.9158976148762208,-5.948940336849721 L-1.8044006373946366,-6.014704532617501 L-1.6883187298992215,-6.076342681643052 L-1.5679315420342763,-6.133693603544719 L-1.4435290955036408,-6.186606446108597 L-1.3154110854386891,-6.234941048692954 L-1.1838861584446854,-6.2785682798834115 L-1.0492711690648633,-6.317370348584794 L-0.9118904164542021,-6.3512410877994245 L-0.7720748631030261,-6.380086210407269 L-0.6301613374942585,-6.40382353633068 L-0.4864917226171668,-6.42238319053538 L-0.34141213229475165,-6.435707771389589 L-0.19527207731140428,-6.443752488974614 L-0.048423623352158884,-6.4464852730127 L0.09877945721555381,-6.443886850151186 L0.24598253767186362,-6.435950790415996 L0.39283099133067756,-6.422683522721827 L0.5389710459219388,-6.4041043194011396 L0.6840506359099248,-6.380245249788805 L0.8277202506928867,-6.351151102973944 L0.96963377663951,-6.316879279904937 L1.1094493309328568,-6.27749965510754 L1.2468300852125078,-6.2330944083493645 L1.3814450770304956,-6.183757826656495 L1.5129700071662922,-6.129596077159544 L1.641088020880495,-6.070726951316808 L1.7654904712257076,-6.007279581131186 L1.8858776625767129,-5.939394128045054 L2.001959572589764,-5.867221445263137 L2.1134565508529968,-5.790922714317454 L2.2200999925462415,-5.71066905675042 L2.3216329854887374,-5.626641121852175 L2.4178109290175303,-5.539028651445783 L2.5084021232070017,-5.448030022769272 L2.593188327011537,-5.3538517705560915 L2.6719652839880648,-5.2567080894657305 L2.744543214333176,-5.15682031806336 L2.810747272050499,-5.054416405591872 L2.8704179661479503,-4.9497303628209055 L2.9234115448507656,-4.8430016982958985 L2.9696003419051897,-4.734474841345119 L3.0088730841388744,-4.624398553234591 L3.0411351595368825,-4.513025327889219 L3.066308845187343,-4.4006107836235175 L3.084333494547091,-4.287413047346974 L3.0951656835754835,-4.173692132727107 L3.098779315383298,-4.059709313807891 " />
			<path d="M3.0982856862598207,-4.017571324587074 L3.0950288522069145,-3.943589797706904 L3.0887295058133097,-3.8697207344609446 L3.079394043332528,-3.796035672094214 L3.067031944019974,-3.7226059610177473 " />
			<path d="M-2.9012206733329333,-3.722605932207326 L-2.897606985981145,-3.8260542310413483 L-2.8867746891203145,-3.929240613958944 L-2.868749938619129,-4.031903817264168 L-2.8435761880767494,-4.13378383305519 L-2.8113140938156373,-4.234622536888154 L-2.772041376071865,-4.334164310654718 L-2.7258526371652683,-4.432156659205375 L-2.672859137467976,-4.5283508192635 L-2.6131885300321764,-4.6225023591913255 L-2.5469845547855012,-4.714371768188586 L-2.474406693254391,-4.80372503352764 L-2.395629784831396,-4.890334204455189 L-2.3108436056608888,-4.973977941420488 L-2.2202524112783513,-5.054442049322973 L-2.1240744442006774,-5.1315199935085385 L-2.022541407728065,-5.205013397283219 L-1.9158979072816298,-5.274732519755613 L-1.8044008606640944,-5.340496712865058 L-1.6883188786935175,-5.40213485650108 L-1.5679316177213845,-5.459485770670994 L-1.443529105605983,-5.512398603726563 L-1.315411042769752,-5.560733195717176 L-1.1838860800243511,-5.60436041599593 L-1.0492710748995657,-5.643162474266301 L-0.9118903282614357,-5.677033204320278 L-0.7720748030508018,-5.7058783197841505 L-0.6301613270155313,-5.72961564125511 L-0.4864917813478833,-5.74817529428044 L-0.341412277172529,-5.761499877701047 L-0.19527232186047705,-5.769544601952372 L-0.0484239771693149,-5.772277396988002 L0.09877898876924363,-5.769678989564495 L0.24598195357762975,-5.761742949699757 L0.39283029482866416,-5.748475706191709 L0.5389702442558932,-5.729896531158625 L0.6840497399230392,-5.70603749363727 L0.8277192743014559,-5.6769433823497355 L0.9696327362133905,-5.642671597824284 L1.1094482446128646,-5.603292014129552 L1.2468289721948738,-5.558886810554822 L1.3814439568474661,-5.509550273641673 L1.512968898990068,-5.455388570043906 L1.641086942875014,-5.396519490763069 L1.7654894399676673,-5.333072167375986 L1.8858766925634125,-5.265186760938291 L2.0019586758473924,-5.193014124313912 L2.1134557366548306,-5.116715438744503 L2.220099267246015,-5.036461825534941 L2.321632352470319,-4.952433933791001 L2.4178103887580216,-4.8648215052030235 L2.5084016734468255,-4.773822916924656 L2.5931879630217534,-4.679644703648491 L2.671964998922295,-4.582501060030533 L2.7445429996491866,-4.482613324662682 L2.810747117984711,-4.380209446836816 L2.87041786222486,-4.275523437385411 L2.923411480408655,-4.168794804921937 L2.9696003066193724,-4.060267978839371 L3.0088730685241627,-3.950191720456932 L3.0411351554120776,-3.8388185237336265 L3.0663088460859154,-3.7264040069922317 L3.084333496060231,-3.61320629711899 L3.095165683615913,-3.499485407722172 L3.098779314361045,-3.3855026127474055 " />
			<path d="M-2.9012208954660523,-3.048398528618217 L-2.897607255095367,-3.15184685430172 L-2.88677503785515,-3.2550332661096912 L-2.8687503379416044,-3.3576964885943235 L-2.8435765785074225,-3.459576507359898 L-2.811314407401482,-3.560415195652546 L-2.772041551316842,-3.6599569363734923 L-2.7258526286376767,-3.7579492379863537 L-2.67285892135262,-3.8541433427945204 L-2.6131881064825215,-3.9482948260710624 L-2.546983947545535,-4.040164184532782 L-2.4744059466524777,-4.129517412657948 L-2.3956289578873955,-4.216126565359535 L-2.3108427626899424,-4.299770305534567 L-2.220251608007322,-4.380234435023232 L-2.1240737080273067,-4.4573124075200745 L-2.022540710348941,-4.530805821986371 L-1.915897186434325,-4.6005248981526305 L-1.8044001028829584,-4.666289011978288 L-1.688318098188199,-4.727927081453107 L-1.5679308398434544,-4.78527794590748 L-1.443528356213335,-4.838190760222451 L-1.3154103420143444,-4.886525362780393 L-1.1838854393637388,-4.930152616526954 L-1.0492704963684711,-4.968954722542846 L-0.9118898052405036,-5.002825505557657 L-0.7720743219396469,-5.03167067087651 L-0.6301608693597922,-5.05540803223383 L-0.48649132608848444,-5.073967710136132 L-0.3414118027826749,-5.087292300307354 L-0.19527180821478485,-5.0953370119053085 L-0.04842340705246495,-5.098069775236012 L0.09877962855773426,-5.095471318753594 L0.24598267152841258,-5.087535215196757 L0.39283109441575315,-5.074267896778101 L0.538971123977158,-5.055688639409595 L0.684050693634688,-5.031829516015859 L0.8277202917864943,-5.002735319056263 L0.969633803921766,-4.968463452446939 L1.109449346512175,-4.929083793144317 L1.2468300906743979,-4.884678522722388 L1.3814450736240786,-4.835341929346428 L1.512969995971658,-4.781180180615886 L1.641088002944893,-4.7223110678185805 L1.7654904476615383,-4.658863722206755 L1.885877634618634,-4.590978303972839 L2.0019595416120635,-4.518805664668641 L2.113456518351423,-4.442506983876034 L2.2200999600907667,-4.362253380999617 L2.3216329546553056,-4.278225503112421 L2.417810901307561,-4.190613089843948 L2.508402099963669,-4.099614516355855 L2.5931883093413544,-4.005436315504035 L2.6719652726953673,-3.9082926803366083 L2.744543209873824,-3.8084049481253794 L2.810747274509534,-3.7060010671732964 L2.8704179752441266,-3.601315047682533 L2.9234115599690846,-3.4945863980066134 L2.969600362156774,-3.3860595476456012 L3.0088731084456737,-3.275983258375635 L3.041135186737336,-3.164610024932911 L3.066308874157722,-3.0521954666975337 L3.0843335243322563,-2.938997711844463 L3.095165713522072,-2.8252767754469783 L3.0987793452681474,-2.7112939330326733 " />
			<path d="M-2.9012206316089446,-2.374190045523267 L-2.897607000903517,-2.4776383358057736 L-2.8867748147915453,-2.5808247246789544 L-2.868750169558603,-2.6834879395227187 L-2.843576488622654,-2.7853679679405072 L-2.8113144178888083,-2.886206684052327 L-2.772041679618744,-2.985748470243795 L-2.725852885168423,-3.0837408328788 L-2.6728593070481494,-3.17993501049835 L-2.613188610854731,-3.27408657304687 L-2.546984547724393,-3.3659560106887896 L-2.4744066080483424,-3.4553093108042394 L-2.3956296372859476,-3.5419185217800395 L-2.310843414802083,-3.6255623022434253 L-2.220252196742038,-3.706026454420094 L-2.124074224044855,-3.783104440334487 L-2.0225411967768996,-3.856597879608059 L-1.9158977160497666,-3.9263170276533006 L-1.8044006948594244,-3.992081233102563 L-1.6883187392618013,-4.053719373356013 L-1.5679315013638644,-4.111070267176747 L-1.4435290056799084,-4.163983063308881 L-1.3154109504610445,-4.212317604140091 L-1.1838859856651145,-4.255944763477586 L-1.0492709692882085,-4.294746757551293 L-0.9118902038257792,-4.328617428408249 L-0.7720746546796382,-4.357462498900272 L-0.6301611523634767,-4.3811997985172395 L-0.48649158039798945,-4.3997594593537315 L-0.34141205081685433,-4.413084081538403 L-0.1952720692307126,-4.421128867488416 L-0.048423691419352544,-4.423861724383893 L0.09877932655460883,-4.421263334282245 L0.24598234391389426,-4.413327224250795 L0.3928307217009503,-4.4000598688763715 L0.5389707035694,-4.381480585372118 L0.6840502335443135,-4.357621466052787 L0.827719805892029,-4.3285273081679145 L0.9696333085091968,-4.2942555113849865 L1.1094488578435167,-4.254875943500394 L1.2468296233759157,-4.21047077498272 L1.381444639716024,-4.161134282984117 L1.5129696043893368,-4.106972625490666 L1.6410876594254544,-4.048103586320976 L1.7654901548926272,-3.9846562917233674 L1.885877392564093,-3.916770899365151 L2.001959347946319,-3.844598260552415 L2.1134563689485653,-3.7682995565646595 L2.220099849526653,-3.6880459100352403 L2.3216328766914174,-3.6040179723555856 L2.4178108493342227,-3.516405488127803 L2.5084020673876273,-3.4254068377364995 L2.5931882899087366,-3.331228559156036 L2.671965260746016,-3.2340848501534163 L2.744543200526911,-3.1341970520895925 L2.810747263783366,-3.031793116562766 L2.8704179601153017,-2.9271070561758985 L2.9234115383778025,-2.8203783807469396 L2.969600332966058,-2.711851520314268 L3.0088730713628697,-2.601775236320789 L3.0411351422064197,-2.4904020223883583 L3.0663088232307336,-2.377987496119447 L3.084333468527806,-2.2647897833847908 L3.0951656546782313,-2.1510688965744036 L3.098779285396267,-2.0370861083047154 " />
			<path d="M-2.9006214368923766,-1.6578442175658936 L-2.901220691467479,-1.6999822069873445 " />
			<path d="M-2.9012206914674885,-1.699982206987418 L-2.8976070597392445,-1.8034305519516671 L-2.8867748706024203,-1.9066169908656248 L-2.8687502205145217,-2.009280248203099 L-2.8435765332120253,-2.111160308893474 L-2.811314455066265,-2.211999044765808 L-2.7720417089472633,-2.311540836445294 L-2.725852906948762,-2.4095331892022553 L-2.6728593224270574,-2.505727341268105 L-2.6131886219041087,-2.5998788631511136 L-2.5469845574826717,-2.6917482465066556 L-2.4744066205153468,-2.78110148114168 L-2.395629657363772,-2.8677106187622696 L-2.3108434481748805,-2.9513543221051437 L-2.2202522496896346,-3.0318183981297855 L-2.124074303187059,-3.1088963139866923 L-2.0225413087489645,-3.182389694518837 L-1.9158978671121456,-3.252108800099374 L-1.8044008904522868,-3.3178729836555374 L-1.6883189835178651,-3.379511125780462 L-1.5679317966034383,-3.436862046887204 L-1.4435293519189094,-3.4897748954162564 L-1.3154113449744518,-3.5381095111646674 L-1.1838864226607684,-3.581736762867358 L-1.0492714397594682,-3.620538859221691 L-0.9118906956697674,-3.654409632611875 L-0.7720751531855214,-3.6832547948557677 L-0.6301616411987945,-3.706992164362774 L-0.4864920432450146,-3.72555186416127 L-0.3414124738396896,-3.7388764903225544 L-0.19527244458598092,-3.746921250378767 L-0.0484240220591631,-3.7496540714020474 L0.09877902050583047,-3.747055677484089 L0.24598205567827103,-3.739119636423524 L0.39283045638983805,-3.725852375501911 L0.5389704505187878,-3.7072731662943377 L0.6840499734277525,-3.6834140785328735 L0.8277195163787815,-3.6543199031056046 L0.9696329687513561,-3.6200480443395557 L1.1094484519932868,-3.5806683817803484 L1.2468291432402347,-3.536263101740684 L1.3814440865499014,-3.4869264989490705 L1.5129689897066423,-3.432764748683907 L1.6410870045684167,-3.3738956498315393 L1.7654894889366,-3.3104483393517796 L1.8858767479491148,-3.2425629786809727 L2.0019587530097738,-3.1703904126371163 L2.1134558362800107,-3.094091801429669 L2.220099358769376,-3.013838226404483 L2.321632354175448,-2.9298103137206883 L2.4178102539060666,-2.8421978438658018 L2.508401409463971,-2.751199217510189 L2.5931876060396846,-2.6570209807031278 L2.6719645962798606,-2.559877331431957 L2.74454259849999,-2.459989606690732 L2.8107467584892305,-2.3575857515049385 L2.8704175740930125,-2.252899771368655 L2.923411281804604,-2.1461711695610473 L2.9696002046491157,-2.0376443708201606 L3.008873060702224,-1.9275681328628467 L3.0411352316504714,-1.8161949472499523 L3.0663089908698153,-1.7037804311055313 L3.084333690573666,-1.5905827112071822 L3.095165907660468,-1.4768618019713342 L3.0987795479733444,-1.3628789788625415 " />
			<path d="M3.0987795479733444,-1.3628789788624598 L3.0982859178612623,-1.3207409874475315 " />
			<path d="M-2.9012206620796315,-1.0257751334575929 L-2.8976070313827336,-1.1292234308125753 L-2.886774843971904,-1.2324098226086373 L-2.8687501942398788,-1.3350730349076243 L-2.8435765039072347,-1.4369530541082352 L-2.811314417461497,-1.5377917533306729 L-2.7720416561024352,-1.637333514258111 L-2.7258528305439054,-1.735325842936955 L-2.6728592131218107,-1.831519978052923 L-2.6131884697558565,-1.925671490217504 L-2.5469843524096722,-2.017540870821289 L-2.474406352789366,-2.106894109035445 L-2.395629318113949,-2.1935032555714375 L-2.310843029882818,-2.277146971840449 L-2.220251746655273,-2.3576110631893874 L-2.1240737119435273,-2.4346889949283916 L-2.02254062840524,-2.508182389906506 L-1.9158970996035753,-2.577901506436078 L-1.8044000406804335,-2.6436656954140396 L-1.6883180593646778,-2.705303835538315 L-1.567930808808078,-2.7626547455700994 L-1.4435283138102748,-2.8155675726484786 L-1.3154102720587488,-2.863902155720859 L-1.183885332069237,-2.9075293632135777 L-1.0492703495689892,-2.9463314041282307 L-0.9118896241170362,-2.98020211181406 L-0.7720741178030819,-3.0090471997324317 L-0.630160657909689,-3.0327844885967177 L-0.4864911254607245,-3.0513441043405254 L-0.34141163161268917,-3.06466864643734 L-0.19527168387448146,-3.072713326166105 L-0.04842334416469063,-3.0754460744902476 L0.09877961926535495,-3.0728476192907044 L0.2459825840002734,-3.0649115317676525 L0.3928309276708941,-3.0516442418999103 L0.5389708821499031,-3.033065022926341 L0.6840503856800453,-3.0092059448872863 L0.8277199308865575,-2.980111797339751 L0.9696334066370045,-2.9458399814336937 L1.1094489317277634,-2.906460371611362 L1.246829678396672,-2.8620551472637334 L1.3814446836864835,-2.8127185947515465 L1.5129696467138223,-2.7585568802690745 L1.6410877099318073,-2.6996877940984514 L1.7654902225136835,-2.636240466872269 L1.885877484025598,-2.5683550585270583 L2.001959466603495,-2.4961824206978633 L2.1134565138973884,-2.4198837333658014 L2.220100015100105,-2.339630116631521 L2.3216330524304674,-2.255602218548643 L2.417811020500875,-2.167989780004442 L2.508402216056854,-2.0769911776919354 L2.593188396638704,-1.9828129462679236 L2.67196530677792,-1.885669280838697 L2.7445431704028485,-1.785781520963369 L2.8107471481930526,-1.6833776174051 L2.8704177586848836,-1.578691582900849 L2.923411261990954,-1.4719629282571702 L2.9696000050597355,-1.363436085110805 L3.0088727274569607,-1.253359816725461 L3.041134826708804,-1.1419866182183398 L3.066308582295761,-1.0295721076377033 L3.084333337436225,-0.9163744093280544 L3.0951656378384134,-0.8026535310386684 L3.09877932663696,-0.6886707362486624 " />
			<path d="M-2.9006214061650333,-0.30942828145148804 L-2.9012206610575006,-0.3515662706137137 " />
			<path d="M-2.9012206610575015,-0.3515662706138608 L-2.8976070292758456,-0.45501459066368904 L-2.8867748403250406,-0.5582010064252036 L-2.8687501910919586,-0.6608642438539162 L-2.8435765056136466,-0.762744289281464 L-2.811314430428487,-0.8635830157972659 L-2.7720416884426102,-0.9631248050854919 L-2.725852891664415,-1.0611171632198173 L-2.6728593132591305,-1.1573113289327284 L-2.6131886194730303,-1.251462872894434 L-2.5469845620732965,-1.3433322865580748 L-2.4744066320445466,-1.4326855591527123 L-2.395629675376057,-1.519294741434372 L-2.3108434718646906,-1.6029384948370764 L-2.2202522779477567,-1.683402624700833 L-2.124074334666078,-1.7604805962920127 L-2.022541341941582,-1.8339740323728053 L-1.91589790043475,-1.9036931911207424 L-1.8044009223251392,-1.9694574232466735 L-1.6883190124330536,-2.031095607209548 L-1.567931821171805,-2.088446561479053 L-1.443529370887794,-2.1413594328524836 L-1.3154113572100465,-2.1896940598897467 L-1.1838864270908074,-2.233321310590406 L-1.0492714352751378,-2.2721233934987373 L-0.9118906809898268,-2.30599414148673 L-0.7720751266894741,-2.3348392675308762 L-0.6301616007412498,-2.358576591865959 L-0.4864919859686907,-2.377136239968382 L-0.34141239600919393,-2.3904608108916032 L-0.19527234146988803,-2.398505515547929 L-0.04842388789089869,-2.401238284603396 L0.09877919245457623,-2.39863984572591 L0.24598227287872998,-2.390703770000534 L0.39283072666164953,-2.3774364874004315 L0.538970781437552,-2.358857271276734 L0.684050371524866,-2.334998191904977 L0.8277199861445048,-2.3059040392010184 L0.9696335114804873,-2.2716322147932457 L1.1094490645521125,-2.2322525937120368 L1.2468298168864134,-2.187847356030756 L1.3814448060040718,-2.138510788864884 L1.5129697327618963,-2.084349059207417 L1.641087742628664,-2.0254799581488983 L1.7654901890109513,-1.9620326170992721 L1.8858773767885892,-1.8941471966962207 L2.0019592842676603,-1.8219745491501464 L2.1134562618120443,-1.7456758548399864 L2.220099705470748,-1.6654222340354452 L2.3216327039798554,-1.5813943346812307 L2.4178106575822906,-1.4937818972359462 L2.5084018671779544,-1.402783297613435 L2.5931880923889103,-1.3086050693261269 L2.671965077199964,-1.2114614059802196 L2.744543041914064,-1.1115736453189222 L2.8107471402437025,-1.0091697360542324 L2.870417880444908,-0.9044836887683674 L2.9234115094856135,-0.7977550122042478 L2.9696003593318365,-0.6892281362993655 L3.008873154524153,-0.579151823348469 L3.04113528031054,-0.46777856871012324 L3.0663090106960076,-0.3553639924964135 L3.084333695862725,-0.24216622370843216 L3.0951659085113765,-0.12844527829805075 L3.09877954876979,-0.014462432653885804 " />
			<path d="M3.09877954876979,-0.014462432653742141 L3.0987662969260708,-0.007558008676378791 " />
			<path d="M-2.858908195740081,-0.030123231663172656 L-2.835635951733005,-0.11563093919351508 L-2.8073513930666776,-0.2003516304096109 L-2.774102832853492,-0.2841330168054157 L-2.735947063347882,-0.3668244144041781 L-2.6929492589377233,-0.4482770011486654 L-2.6451828648164577,-0.5283440711085066 L-2.592729471526199,-0.6068812850704568 L-2.5356786755862784,-0.6837469170835908 L-2.474127926445507,-0.7588020965384714 L-2.4081823600197465,-0.8319110453669201 L-2.3379546190993654,-0.9029413099574712 L-2.263564660933582,-0.9717639873905932 L-2.1851395523205728,-1.03825394560755 L-2.1028132525536103,-1.1022900371370896 L-2.016726384594179,-1.1637553060152561 L-1.9270259948631727,-1.2225371875451583 L-1.8338653020606737,-1.2785277005558633 L-1.7374034354435288,-1.3316236318322956 L-1.637805163007929,-1.3817267124014798 L-1.5352406100414724,-1.4287437853742773 L-1.429884968525486,-1.4725869650562287 L-1.3219181978841412,-1.5131737870559527 L-1.2115247175915314,-1.5504273491349798 L-1.098893092161807,-1.5842764425585456 L-0.9842157090604209,-1.6146556737231996 L-0.8676884500866597,-1.6415055758535548 L-0.7495103567886767,-1.6647727105774488 L-0.6298832904824438,-1.6844097592060863 L-0.5090115874552796,-1.700375603563135 L-0.3871017099427223,-1.7126353962247218 L-0.26436189347484174,-1.7211606200502005 L-0.14100179119405265,-1.7259291369018712 L-0.017232115752030097,-1.72692522547022 L0.10673572060310033,-1.7241396081398326 L0.23068996713433276,-1.7175694668498525 L0.35441889630189793,-1.7072184479216121 L0.47771116540997904,-1.6930966558448353 L0.6003561775966741,-1.6752206360327058 L0.7221444415507072,-1.65361334657498 L0.8428679293405952,-1.6283041190369383 L0.9623204317452434,-1.5993286083709 L1.0802979104790988,-1.5667287320254724 L1.1965988467103716,-1.5305525983562276 L1.3110245852769917,-1.4908544244598205 L1.4233796740125246,-1.4476944435716101 L1.5334721976023418,-1.4011388021848086 L1.641114105399823,-1.351259447066565 L1.7461215326424786,-1.2981340023640306 L1.8483151145195005,-1.2418456370100917 L1.9475202925538682,-1.182482922655297 L2.0435676127757043,-1.1201396823687564 L2.136293015177396,-1.0549148303664275 L2.225538113955796,-0.9869122030408117 L2.311150468062706,-0.9162403815808962 L2.3929838416011684,-0.843012506485677 L2.470898453622587,-0.767346084288332 L2.544761216897858,-0.689362786821756 L2.6144459652541183,-0.6091882433687175 L2.6798336690888855,-0.5269518260521926 L2.7408126386929417,-0.44278642883303987 L2.7972787150346217,-0.3568282404931009 L2.8491354476791977,-0.26921651199201535 L2.8962942595395633,-0.18009331859580535 L2.938674598176254,-0.08960331718430536 " />
			<path d="M3.049767512435637,0.2414626853103793 L3.064247201365579,0.30824459397059023 L3.0762100074113867,0.37531099902805276 " />
			<path d="M-2.2641113342838706,-0.2970718259920441 L-2.1676032182383027,-0.3781530312080328 L-2.0652944664381723,-0.4555188146670397 L-1.9574469309538614,-0.5289572677502914 L-1.8443366399906715,-0.5982665335824802 L-1.726253091388842,-0.663255323718571 L-1.6034985116495155,-0.7237434077756624 L-1.4763870823839076,-0.7795620747554795 L-1.3452441361666654,-0.8305545648757313 L-1.2104053238521733,-0.8765764708045314 L-1.07221575548546,-0.9174961072707406 L-0.9310291170072376,-0.9531948481041383 L-0.7872067650140094,-0.9835674298431867 L-0.641116801890069,-1.0085222211339504 L-0.4931331336789292,-1.027981457231414 L-0.34363451310512066,-1.0418814390040723 L-0.19300357019526204,-1.0501726959336741 L-0.04162583297935016,-1.0528201126941843 L0.11011125922205389,-1.0498030189873981 L0.26181934739990925,-1.0411152424067103 L0.41311014681066366,-1.0267651241950988 L0.5635964407392889,-1.0067754978583903 L0.7128930715282534,-0.9811836306897499 L0.860617926336992,-0.9500411283562538 L1.0063929151098372,-0.9134138027926637 L1.1498449382497191,-0.8713815037414059 L1.2906068415219467,-0.8240379143704217 L1.4283183557445305,-0.7714903114924421 L1.5626270188604037,-0.71385929099957 L1.6931890780321415,-0.6512784592156993 L1.8196703694503342,-0.5838940909566244 L1.941747173603984,-0.5118647551723852 L2.0591070438239107,-0.43536090912935865 " />
			<path d="M4.139175133223808,1.193695627245406 L-2.766999641068214,6.301323584739717 " />
			<path d="M4.139175133223807,1.1936956272454058 L4.180239674767844,1.158323113356262 L4.218587624877369,1.1152832221186386 L4.251693953110559,1.0674072016418128 L4.277376188952368,1.0178483171814068 L4.286881107472201,0.9934608095679432 L4.293939060098372,0.9698757589430713 L4.298432936560462,0.9474842557300354 L4.300288075133057,0.9266580461649808 L4.299473680599709,0.9077429578232435 L4.296003259925956,0.891052723901277 L4.289934478452571,0.8768645595231651 L4.2813680865369,0.8654137227594434 " />
			<path d="M4.281368086536901,0.8654137227594431 L4.268668824217023,0.8559015043875098 L4.25315541684021,0.8504361892824811 " />
			<path d="M-2.7669996410682143,6.301323584739717 L-2.8042482267450826,6.324768393150983 L-2.8222368628391514,6.3329950753748365 L-2.8394745760987283,6.338731679767097 L-2.8557277523295204,6.341900134120748 L-2.8707760678047207,6.342457249509059 L-2.884415393582248,6.34039512611598 L-2.896460594430179,6.335741536362912 " />
			<path d="M-2.8964605944301796,6.335741536362912 L-2.9114034720089688,6.323800955532922 L-2.921788658933144,6.306359702676685 L-2.927287801859192,6.283968669728085 L-2.927726994211017,6.257335833187611 L-2.9230922793145515,6.227303455467894 L-2.91353029127079,6.194821227757198 L-2.8993434383314796,6.160915845276783 L-2.880979924684618,6.126657876946893 " />
			<path d="M1.1350426175524302,-0.644938693422503 L1.0588458162724432,-0.6735802249961704 L0.9815495063220239,-0.7002978171327291 L0.9032447994688568,-0.7250646393819634 L0.8240074624583142,-0.7478608505503548 L0.7439261760342507,-0.7686644046830703 L0.6630966374034708,-0.7874539704574774 L0.5816146736642388,-0.8042110712360077 L0.49957618869588805,-0.8189199900577858 L0.4170771150030139,-0.8315676841144735 L0.33421336988498573,-0.8421437086448356 L0.2510808153015257,-0.8506401501825374 L0.16777522080510077,-0.8570515690916836 L0.0843922289108614,-0.8613749513246074 L0.0010273222748671262,-0.8636096693364219 L-0.08222420794866014,-0.8637574520908406 L-0.1652672932003043,-0.8618223640917793 L-0.24800711868791026,-0.8578107933752455 L-0.33034915526779063,-0.8517314483960299 L-0.4121991926639399,-0.8435953637437057 L-0.49346337465450496,-0.8334159146224465 L-0.5740482368547788,-0.8212088400291742 L-0.653860747725985,-0.8069922745645443 L-0.7328083534390997,-0.7907867888112796 L-0.8107990272229706,-0.772615438214362 L-0.8877413238259964,-0.7525038203975927 L-0.9635444397206274,-0.7304801408510295 L-1.0381182796799466,-0.7065752869238109 L-1.1113774783159613,-0.6808214648445952 L-1.1832569952277536,-0.6532455018798039 L-1.2536724568639235,-0.6238828506480677 L-1.3225382684834597,-0.5927725157484793 L-1.3897717841222856,-0.559955499488308 " />
			<path d="M-1.6385934599924081,-0.7097188860380106 L-1.6363612434421784,-0.7082122972677782 " />
			<path d="M-1.5602892460323903,-0.6591854389287195 L-1.5395033988578883,-0.6465327178349805 " />
			<path d="M-1.3859906999136893,-0.5618681928746858 L-1.3845252063456175,-0.5611290612316111 " />
			<path d="M1.4907034352211823,-0.6465327176583748 L1.5055168114509279,-0.6548914368548766 " />
			<path d="M1.5865847620397704,-0.7028771430823433 L1.6587826079946748,-0.7490167227493422 L1.728794487537888,-0.7971208225282662 L1.7965222961218208,-0.8471274318128541 L1.8618714910958514,-0.8989721228206811 " />
			<path d="M1.9591512641102302,-0.9836366457596917 L2.0258654415474613,-1.0477366439674864 " />
			<path d="M2.0749849587888654,-1.0986217056549368 L2.135571200586279,-1.1664226682440595 L2.1924529748639476,-1.236075982511608 " />
			<path d="M2.254843390631012,-1.320740526427085 L2.2959001658408544,-1.3823500400731192 L2.334121847874308,-1.4450115495334455 L2.3694584106031695,-1.5086478765588267 L2.401863492215403,-1.57317989823564 " />
			<path d="M2.439360714884193,-1.6578444452481107 L2.4634579670655654,-1.7201681966068685 L2.4848579624516454,-1.7830620611535444 L2.503535563003102,-1.8464570099775992 L2.519469083634543,-1.9102838723316675 " />
			<path d="M2.5431212627313404,-2.0395838187172948 L2.5539128019519453,-2.143342477739739 L2.5575134413274503,-2.247387732910637 " />
			<path d="M2.0793761819762318,-0.42913156757265314 L2.137639369902115,-0.4946387048425044 L2.1924529857133286,-0.5618681972356039 " />
			<path d="M2.2548434090797715,-0.6465327143475988 L2.3043962420652324,-0.7215879715950673 L2.349739992920703,-0.7981723167535396 " />
			<path d="M2.380114458964702,-0.854928902131552 L2.4018635235419152,-0.8989720840557031 " />
			<path d="M2.4393607402448527,-0.9836366955557607 L2.463458629662104,-1.0459621985473697 L2.484858349600478,-1.1088554406898563 L2.5035355945125284,-1.1722492775261355 L2.519469065949801,-1.236075944412657 " />
			<path d="M2.543121217218401,-1.3653756219449322 L2.5539127066664853,-1.469133247709916 L2.557513431700509,-1.5731800196180163 " />
			<path d="M2.449651339102207,-2.1370231751462936 L2.4181991005300496,-2.212038391669724 L2.382859525990614,-2.2860428035299427 L2.3436919457187835,-2.358919834237107 L2.300761937191153,-2.430555039007323 L2.2541412410175496,-2.5008361413094438 L2.203907711633262,-2.5696530799613075 L2.1501453027919895,-2.6368980667754096 L2.0929440878595,-2.7024656547540227 L2.0324003149080143,-2.766252816833747 L1.9686164966113067,-2.8281590351795094 L1.9017015349405213,-2.88808640102801 L1.8317645434807552,-2.945944780899814 L1.7589165430212477,-3.001649062859819 L1.6832823874227039,-3.0551102978210007 L1.6049910415049424,-3.1062443515266223 L1.524175246321258,-3.154971871094086 L1.4409713247426423,-3.201218176988487 L1.3555190132648156,-3.2449131771223714 L1.2679613179909546,-3.285991303555235 L1.178444392743007,-3.3243914722663 L1.087117437254493,-3.360057066474112 L0.9941326133976979,-3.392935943976478 L0.8996449773981332,-3.4229804689843095 L0.8038124259891721,-3.450147568922883 L0.7067956544597556,-3.4743988166740687 L0.6087581245480533,-3.4957005387330673 L0.5098660401339798,-3.5140239497531875 L0.4102883286834682,-3.5293453139521995 L0.310196626397385,-3.5416461338538126 L0.20974489829218954,-3.5509149461089224 L0.10906890395295366,-3.557144604863092 L0.008349896421828207,-3.560328377805748 L-0.09223205676122065,-3.5604661093579146 L-0.19249971503396546,-3.557563968529498 L-0.2922786355131495,-3.551634073063589 L-0.39139715596791547,-3.54269416470583 L-0.48968638879937376,-3.5307673303280764 L-0.58698022507679,-3.515881764085904 L-0.6831153479974285,-3.4980705662398015 L-0.7779312554536247,-3.4773715747201996 L-0.8712702917071936,-3.453827225966798 L-0.9629776884878088,-3.4274844420229402 L-1.0529016161485574,-3.398394541316108 L-1.140893245828401,-3.366613171005901 L-1.2268068238878054,-3.3322002592311675 L-1.3104997602003476,-3.2952199860382763 L-1.3918327321996564,-3.255740772222801 L-1.4706698068975799,-3.2138352857672046 L-1.5468785834059946,-3.169580466007414 L-1.6203303588112532,-3.1230575661114837 L-1.6909003205667603,-3.0743522149038363 L-1.758467768885735,-3.023554499518895 L-1.8229163729327564,-2.9707590708182114 L-1.8841344649292169,-2.9160652739554935 L-1.9420153766043606,-2.8595773069242623 L-1.9964578227401235,-2.8014044103731477 L-2.04736808990243,-2.7416589355172087 L-2.0946794941650833,-2.6804297584290246 L-2.138316572371841,-2.617821646442862 L-2.178204296818339,-2.553948769949533 L-2.2142748067529685,-2.488926806854193 L-2.2464672372861494,-2.422872830862121 L-2.2747275852292477,-2.355905208064119 L-2.299008611863135,-2.288143501821531 " />
			<path d="M-2.1596966642833206,-0.5618681776251152 L-2.1211171604481867,-0.50306061029909 L-2.0793263282607173,-0.44537859787799317 " />
			<path d="M-2.036581979259079,-0.3915563112092734 L-2.028433574131915,-0.3818073603510681 " />
			<path d="M2.5571108786078103,-0.25956442473530206 L2.5513991208610043,-0.3603155310973075 L2.5389431710355113,-0.460718788062167 L2.5197772103232023,-0.560510155437089 L2.4939542329406006,-0.659429244752634 " />
			<path d="M2.44965149977971,-0.7886070384702032 L2.418191088521851,-0.8636405661659102 L2.3828409056137145,-0.9376638538458729 L2.3436600465035626,-1.010560364029685 L2.30071414006391,-1.0822151786458913 L2.2540754097834212,-1.1525150705469898 L2.2038227720506023,-1.2213485831836521 L2.150041971529287,-1.2886061184381565 L2.0928255030561727,-1.35418030732509 L2.0322611539688853,-1.417977839507125 L1.9684473922075127,-1.4799009615916112 L1.9014940899176707,-1.539849218189143 L1.8315158830977398,-1.5977268488320444 L1.7586319120782619,-1.6534426605484642 L1.6829655938272574,-1.7069099195447799 L1.6046444241522466,-1.7580462625949762 L1.5237998078697519,-1.806773628735661 L1.4405669150130698,-1.853018211865375 L1.3550845611490763,-1.896710434846872 L1.2674951098748468,-1.9377849457110274 L1.1779443955648903,-1.976180636561034 L1.0865816644397437,-2.011840685775559 L0.9935595320267232,-2.044712624109521 L0.8990339550836226,-2.074748425291145 L0.8031642160561108,-2.1019046217139707 L0.7061129181396195,-2.1261424458224694 L0.6080459890165157,-2.1474279977899347 L0.5091326913393084,-2.165732440087312 L0.40954319786146426,-2.1810325592712725 L0.3094256186894703,-2.1933131967655957 L0.2089467330229808,-2.202560595853654 L0.10827958671608479,-2.2087656733767815 L0.0075961009613691455,-2.21192501762461 L-0.0929330003323785,-2.2120406827773467 L-0.19313825872401902,-2.20912001295931 L-0.29285154714011774,-2.203175495366571 L-0.3919061356458621,-2.1942246419315565 L-0.49013675924146005,-2.182289898987459 L-0.5873796898386991,-2.167398584395309 L-0.6834728145722968,-2.1495828515965547 L-0.7782557226006719,-2.128879680054009 L-0.8715698025508172,-2.105330891543998 L-0.9632583527618943,-2.078983191762582 L-1.053166706482205,-2.0498882367086786 L-1.141142374174194,-2.0181027233069546 L-1.2270352050821063,-1.9836885037333272 L-1.3106975702169783,-1.9467127229059293 L-1.3919935785052764,-1.9072434149235071 L-1.4707985290927694,-1.8653481027104655 L-1.5469755752821235,-1.8211059742665485 L-1.6203935777087304,-1.774600103525877 L-1.6909274240469547,-1.7259170279597666 L-1.758457905525718,-1.6751465674522303 L-1.822871617456819,-1.6223816665841975 L-1.884060884967682,-1.567718258752444 L-1.9419237151301805,-1.5112551505492515 L-1.9963637766771933,-1.4530939248288082 L-2.0472904084985766,-1.393338860886344 L-2.0946186581082005,-1.3320968701760205 L-2.138269351273715,-1.2694774459935858 L-2.178169194000718,-1.2055926255497913 L-2.214250908062981,-1.1405569628605865 L-2.2464534012703954,-1.0744875108801053 L-2.2747219736663125,-1.0075038113024402 L-2.299008560845932,-0.9397278904582304 " />
			<path d="M-0.8268437367105811,-2.998406315137235 L-0.9034564213839212,-3.023441108087871 L-0.9789189816844512,-3.050377584413378 L-1.0531453216898738,-3.0791861093542607 L-1.1260507109780187,-3.1098349345479694 L-1.1975518127933618,-3.1422901990832797 L-1.267566718541814,-3.1765159218794485 L-1.336014989069922,-3.212473985601709 L-1.40281770318464,-3.250124112324677 " />
			<path d="M-1.545318438027958,-3.3398549220465195 L-1.565475430171339,-3.3536913064128546 " />
			<path d="M-1.6365009309082117,-3.404976437292065 L-1.6385934599924012,-3.406550242987466 " />
			<path d="M-1.4624865286246354,-6.178936538851302 L-1.3594487075074455,-6.238171677272616 L-1.2522982565965113,-6.293283432158799 L-1.1413373715200226,-6.3441163722331115 L-1.026878994445606,-6.390527133728738 L-0.9092459314918351,-6.432384824716564 L-0.7887699423205079,-6.469571394258725 L-0.6657908044773079,-6.501981965346794 L-0.5406553551196978,-6.52952513068564 L-0.4137165128346403,-6.552123210488744 L-0.28533228230490054,-6.569712471557936 L-0.15586474463106936,-6.5822433070296595 L-0.025679036156903937,-6.589680376280849 L0.10485768132201105,-6.592002704599822 L0.2353772560619799,-6.589203742341112 L0.3655115846668475,-6.581291383397379 L0.49489365024729637,-6.568287942936326 L0.6231585575158851,-6.550230094465395 L0.7499445618985385,-6.52716876640174 L0.8748940897601029,-6.499168998439193 L0.9976547468666446,-6.466309758117291 L1.117880312240313,-6.4286837181097045 L1.2352317146038134,-6.386396994860181 L1.349377988660643,-6.339568849303116 L1.4599972085140744,-6.288331350512816 L1.5667773955923927,-6.232829003230071 L1.6694173985197662,-6.173218340316483 L1.7676277424512612,-6.109667481285996 L1.861131445476612,-6.042355658158667 L1.9496647997902612,-5.97147270997392 L2.032978115424547,-5.897218547388899 L2.1108364244484847,-5.8198025888719105 L2.1830201436460763,-5.739443170081075 " />
			<path d="M2.431920665007374,-4.2031893833656655 L2.395344008220205,-4.127573256570937 " />
			<path d="M2.2346893937136025,-3.8766664405011504 L2.184919730621926,-3.815063543040506 L2.131894404230848,-3.754960501926921 " />
			<path d="M1.9141861032291545,-3.551470957077749 L1.852122264116532,-3.503102026215392 L1.7876972324204043,-3.4564474580674975 L1.7209977680687825,-3.411570081426966 L1.6521136939235779,-3.368530331777709 " />
			<path d="M-0.6055410158225175,-3.036350581343463 L-0.7001755829461863,-3.0587958340504438 L-0.7935045000720906,-3.084047550775143 L-0.8853752493309831,-3.1120644652289498 L-0.9756376957876836,-3.142800792244449 L-1.0641443327911924,-3.1762063025974165 L-1.1507505230296688,-3.212226405091285 L-1.2353147348963442,-3.2508022357699353 L-1.3176987737800905,-3.2918707541130097 " />
			<path d="M-1.5641463380525846,-3.438564262561496 L-1.6385934599924,-3.4912147492513403 " />
			<path d="M0.09877932665183664,3.314363373725925 L-1.0123318479980064,4.136112414982655 " />
			<path d="M0.09877932665183664,3.314363373725925 L-1.0138851007458425,2.493761474343182 " />
			<path d="M0.09877932665183664,3.314363373725925 L0.09877932665183664,4.3745195916254564 " />
			<path d="M-1.0123318479980064,4.136112414982655 L-1.0024227094224576,4.1275533879989625 L-0.9955538890528333,4.1189959293733 L-0.989199878242258,4.101884820991479 L-0.989795166188081,4.084777297428014 L-0.9938651035121036,4.067671566273727 " />
			<path d="M-1.0123318479980064,4.136112414982655 L-0.9891792491042007,4.123697294421847 L-0.9660193693381396,4.118980693895286 L-0.9428546356572415,4.119396440058224 L-0.9196874750189251,4.12237835956591 " />
			<path d="M-1.0138851007458425,2.493761474343182 L-0.9907090412636581,2.506152696114949 L-0.9675402626537292,2.5108453978524685 L-0.9443763379586372,2.51040575290049 L-0.9212148402209638,2.507399934603762 " />
			<path d="M-1.0138851007458425,2.493761474343182 L-1.0039597824541704,2.502310269657817 L-0.9970747823684227,2.5108606333304824 L-0.9906884121256009,2.527965169545317 L-0.9912513406391774,2.545073290578508 L-0.9952889185309532,2.5621832040208767 " />
			<path d="M0.09877932665183664,4.3745195916254564 L0.09559200667752038,4.353119227060801 L0.08718907219977749,4.332841773364192 L0.061690512405247436,4.294158384084389 " />
			<path d="M0.09877932665183664,4.3745195916254564 L0.09961237619057839,4.364884417373166 L0.10196664662615292,4.357820592109348 L0.1103695811038958,4.349937646268 L0.12224959191725644,4.347932069543159 L0.13586814089842586,4.348865177376571 " />
			<path d="M-1.284556827595896,4.187678915213871 L-1.1174747032683046,4.2099699014950165 " />
			<path d="M-1.1174747032683046,4.209969901495017 L-1.0851065264390574,4.3396987245652205 " />
			<path d="M-1.0851065264390574,4.3396987245652205 L-1.0531620801678745,4.31607343962909 " />
			<path d="M-1.0531620801678745,4.31607343962909 L-1.0824477001886652,4.212826081904837 " />
			<path d="M-1.082447700188665,4.212826081904837 L-0.9423294638762234,4.234104507756596 " />
			<path d="M-0.9423294638762236,4.234104507756596 L-0.91094021150253,4.21088982984466 " />
			<path d="M-0.91094021150253,4.210889829844661 L-1.0866415490166892,4.1871664993483595 " />
			<path d="M-1.0866415490166892,4.1871664993483595 L-1.1181677483471644,4.06462186253746 " />
			<path d="M-1.1181677483471644,4.06462186253746 L-1.149557000720858,4.087836540449396 " />
			<path d="M-1.149557000720858,4.087836540449395 L-1.1219457609846943,4.184925942876073 " />
			<path d="M-1.1219457609846943,4.184925942876074 L-1.2537236733442807,4.164875513067214 " />
			<path d="M-1.2537236733442807,4.164875513067214 L-1.284556827595896,4.187678915213872 " />
			<path d="M-1.0928870039672922,2.285941751261536 L-1.139725233875131,2.4331620887463763 " />
			<path d="M-1.1397252338751311,2.4331620887463767 L-1.2191695020176772,2.4919170114480167 " />
			<path d="M-1.219169502017677,2.4919170114480167 L-1.1932996918852292,2.5109962727316795 " />
			<path d="M-1.1932996918852294,2.5109962727316795 L-1.1138554237426834,2.4522413500300395 " />
			<path d="M-1.1138554237426834,2.4522413500300395 L-0.9126350045334167,2.4188795260845546 " />
			<path d="M-0.9126350045334166,2.4188795260845546 L-0.9446241068210999,2.3952872214773007 " />
			<path d="M-0.9446241068210997,2.3952872214773007 L-1.1027629515347748,2.424315113710352 " />
			<path d="M-1.102762951534775,2.424315113710352 L-1.0620098417161032,2.3087139882154357 " />
			<path d="M-1.0620098417161032,2.3087139882154357 L-1.092887003967292,2.2859417512615363 " />
			<path d="M0.16818140811531523,4.6189180112400985 L0.022144202019369813,4.511214011946113 " />
			<path d="M0.02214420201936984,4.511214011946113 L0.022144202019369844,4.488950558818756 " />
			<path d="M0.02214420201936984,4.488950558818756 L0.14342534899662016,4.429179367325208 " />
			<path d="M0.14342534899662016,4.429179367325208 L0.02158823200112263,4.3393231922197835 " />
			<path d="M0.021588232001122643,4.3393231922197835 L0.021588232001122646,4.317590334855779 " />
			<path d="M0.021588232001122643,4.317590334855779 L0.09877932665183665,4.3745195916254564 " />
			<path d="M0.09877932665183665,4.3745195916254564 L0.17597042130255067,4.431448848395134 " />
			<path d="M0.17597042130255064,4.431448848395134 L0.17597042130255064,4.453181705759139 " />
			<path d="M0.17597042130255064,4.453181705759139 L0.05413330430705311,4.513072596432023 " />
			<path d="M0.05413330430705312,4.513072596432023 L0.1681814081153153,4.597184291118754 " />
			<path d="M0.16818140811531523,4.597184291118754 L0.16818140811531523,4.618918011240098 " />
			<path d="M-3.9416164799200555,5.435031120206402 L-4.003568422789674,5.369132893166846 L-4.063550229424063,5.30224787121556 L-4.1215330937984955,5.234408175619043 L-4.177489169872339,5.165646386122029 L-4.231391584961998,5.095995525301191 L-4.283214452646425,5.025489042706177 L-4.332932885198963,4.954160798795597 L-4.380523005539581,4.882045048675672 L-4.4259619587017465,4.809176425649362 L-4.469227922808429,4.735589924583851 L-4.510300119551976,4.661320885104405 L-4.5491588241728085,4.586404974622655 L-4.585785374932161,4.510878171207466 L-4.620162182074307,4.434776746306608 L-4.652272736273966,4.358137247327544 L-4.682101616564847,4.28099648008568 L-4.709634497745502,4.203391491128513 L-4.73485815725895,4.1253595499441795 L-4.757760481542757,4.04693813106293 L-4.778330471846522,3.968164896060136 L-4.796558249513993,3.889077675469461 L-4.812435060727243,3.8097144506149028 L-4.8259532807106575,3.7301133353704157 L-4.837106417392711,3.650312557855868 L-4.8458891145237475,3.5703504420781416 L-4.852297154248306,3.490265389526179 L-4.856327459130726,3.410095860728821 L-4.857978093633071,3.3298803567842925 L-4.857248265044671,3.249657400870196 L-4.85413832386281,3.1694655197429142 L-4.848649763624405,3.0893432252352886 L-4.8407852201887405,3.009328995761462 L-4.830548470471609,2.9294612578377732 L-4.817944430631458,2.8497783676285744 L-4.80297915370843,2.770318592525837 L-4.785659826717407,2.6911200927713876 L-4.765994767196484,2.612220903130602 L-4.743993419212496,2.53365891462636 L-4.719666348825547,2.4554718563420357 L-4.693025239014699,2.3776972773022513 L-4.6640828840672715,2.300372528440108 L-4.632853183434431,2.223534744659548 L-4.599351135056039,2.1472208270014645 L-4.5635928281579465,2.0714674249221248 L-4.5255954355252115,1.9963109186924102 L-4.485377205254931,1.9217874019263368 L-4.442957451992676,1.8479326642472453 L-4.398356547656696,1.774782174099971 L-4.351595911654394,1.7023710617172643 L-4.302698000595742,1.6307341022486381 L-4.251686297508576,1.5599056990597384 L-4.198585300560977,1.4899198672102656 L-4.143420511296106,1.4208102171183752 L-4.086218422385204,1.3526099384194068 L-4.027006504904587,1.2853517840266995 L-3.9658131951427675,1.21906805440213 L-3.902667880944043,1.153790582043944 L-3.837600887595101,1.0895507161993274 L-3.770643463261417,1.0263793078090524 L-3.7018277639804498,0.9643066946914383 L-3.63118683821883,0.9033626869727303 L-3.5587546110009636,0.8435765527709083 L-3.484565867616682,0.7849770041397885 L-3.408656236915734,0.727592183280175 L-3.25182094370187,0.6165763636026838 L-3.0885499732974613,0.5107423277624408 L-2.9191569289900743,0.41029335685401946 L-2.7439671730621447,0.3154223885896901 L-2.5633172018502295,0.22631164671362924 L-2.3775539994184984,0.1431322909950299 L-2.187034371087866,0.06604408847236831 L-1.9921242581009313,-0.0048048934196862625 L-1.7931980347390633,-0.06927857125131487 L-1.590637789241679,-0.12725310698027759 L-1.384832589908926,-0.17861714581426202 L-1.1761777377973865,-0.22327203009599383 L-0.9650740074441782,-0.26113198880027433 L-0.7519268770778675,-0.2921243022789799 L-0.5371457497947535,-0.3161894419375755 L-0.32114316719642505,-0.3332811845748771 L-0.10433401699904038,-0.34336670116642143 L0.11286526386370445,-0.34642661992093426 L0.33003748911327335,-0.34245506348876376 L0.5467655244382894,-0.3314596602508195 L0.7626330887067362,-0.3134615296663372 L0.9772255535393888,-0.28849524170759766 L1.1901307397087157,-0.2566087504595367 L1.4009397088335855,-0.2178633020117653 L1.609247548849087,-0.17233331681993258 L1.8146541517427963,-0.12010624676236992 L2.01676498206364,-0.06128240716659539 L2.2151918347272397,0.004025215871706234 L2.4095535806621973,0.07569118250712137 L2.5994768988650847,0.15357784008353104 L2.7845969934580594,0.23753558753092685 L2.9645582943717974,0.32740316271217385 " />
			<path d="M4.13917513322373,1.1936956272454493 L4.201127076093349,1.2595938542850065 L4.261108882727739,1.3264788762362931 L4.3190917471021715,1.3943185718328097 L4.375047823176014,1.4630803613298229 L4.428950238265674,1.5327312221506613 L4.480773105950101,1.6032377047456772 L4.53049153850264,1.6745659486562592 L4.5780816588432565,1.7466816987761806 L4.62352061200542,1.8195503218024875 L4.666786576112102,1.8931368228679981 L4.70785877285565,1.9674058623474449 L4.746717477476483,2.0423217728291956 L4.7833440282358355,2.117848576244387 L4.8177208353779815,2.193950001145245 L4.84983138957764,2.2705895001243084 L4.879660269868521,2.347730267366173 L4.907193151049176,2.4253352563233403 L4.932416810562624,2.5033671975076732 L4.95531913484643,2.5817886163889225 L4.975889125150196,2.6605618513917184 L4.994116902817668,2.739649071982395 L5.009993714030917,2.819012296836953 L5.023511934014332,2.89861341208144 L5.034665070696385,2.9784141895959846 L5.043447767827421,3.058376305373708 L5.049855807551979,3.138461357925671 L5.053886112434399,3.2186308867230284 L5.0555367469367445,3.298846390667559 L5.054806918348344,3.3790693465816566 L5.051696977166483,3.4592612277089385 L5.046208416928078,3.539383522216564 L5.038343873492414,3.6193977516903906 L5.028107123775282,3.6992654896140795 L5.015503083935131,3.7789483798232784 L5.000537807012102,3.8584081549260163 L4.98321848002108,3.937606654680467 L4.963553420500157,4.016505844321254 L4.941552072516168,4.095067832825496 L4.917225002129218,4.173254891109821 L4.8905838923183715,4.251029470149602 L4.861641537370946,4.328354219011741 L4.830411836738105,4.405192002792302 L4.796909788359712,4.4815059204503855 L4.761151481461619,4.557259322529726 L4.723154088828883,4.632415828759442 L4.682935858558603,4.706939345525516 L4.6405161052963475,4.780794083204607 L4.595915200960367,4.853944573351882 L4.549154564958066,4.926355685734588 L4.500256653899414,4.997992645203214 L4.449244950812249,5.068821048392114 L4.396143953864649,5.138806880241585 L4.34097916459978,5.207916530333475 L4.283777075688877,5.276116809032443 L4.22456515820826,5.34337496342515 L4.163371848446441,5.409658693049719 L4.100226534247716,5.474936165407906 L4.035159540898775,5.539176031252522 L3.9682021165650903,5.602347439642797 L3.8993864172841217,5.664420052760413 L3.8287454915225,5.725364060479121 L3.756313264304635,5.785150194680944 L3.6821245209203526,5.843749743312063 L3.6062148902194076,5.901134564171675 L3.4493795970055454,6.012150383849165 L3.286108626601135,6.117984419689409 L3.116715582293748,6.218433390597831 L2.9415258263658184,6.31330435886216 L2.7608758551539037,6.402415100738221 L2.575112652722172,6.48559445645682 L2.3845930243915396,6.562682658979481 L2.189682911404605,6.633531640871537 L1.990756688042737,6.698005318703165 L1.7881964425453527,6.755979854432128 L1.5823912432126,6.807343893266112 L1.3737363911010607,6.851998777547844 L1.162632660747852,6.889858736252124 L0.9494855303815414,6.92085104973083 L0.7347044030984274,6.944916189389426 L0.5187018205000989,6.962007932026728 L0.30189267030271427,6.9720934486182715 L0.08469338943996944,6.975153367372784 L-0.1324788358095995,6.971181810940614 L-0.34920687113461557,6.96018640770267 L-0.5650744354030623,6.942188277118188 L-0.7796669002357149,6.917221989159447 L-0.992572086405042,6.885335497911386 L-1.2033810555299118,6.846590049463616 L-1.4116888955454132,6.801060064271782 L-1.6170954984391226,6.7488329942142204 L-1.8192063287599662,6.690009154618446 L-2.01763318142357,6.6247015315801425 L-2.211994927358531,6.553035564944726 L-2.4019182455614185,6.475148907368316 L-2.587038340154393,6.39119115992092 L-2.7669996410680877,6.301323584739695 " />
			<path d="M-4.083809432930908,5.459919498595026 L-4.150131434189491,5.390342165962403 L-4.214400940870606,5.31967008013929 L-4.276585870878876,5.247937018810329 L-4.336655242795617,5.17517723757013 L-4.394579175878841,5.101425469923272 L-4.450328890063254,5.026716927284296 L-4.50387670596026,4.951087298977717 L-4.555196044857955,4.874572752238013 L-4.6042614287211325,4.797209932209632 L-4.651048480191281,4.719035961946986 L-4.695533922586582,4.6400884424144575 L-4.737695579901916,4.560405452486395 L-4.777512376808855,4.480025548947116 L-4.814964338655669,4.398987766490903 L-4.850032591467321,4.317331617722005 L-4.882699361945471,4.2350970931546446 L-4.912947977468472,4.152324661213004 L-4.940762866091376,4.069055268231237 L-4.966129556545927,3.9853303384534637 L-4.989034678240564,3.9011917740337734 L-5.009465961260425,3.8166819550362194 L-5.027412236367338,3.731843739434826 L-5.042864014555425,3.646719836801634 L-5.055814899625736,3.561351416325536 L-5.0662582511869845,3.475781606504496 L-5.0741885651882,3.3900537492274 L-5.079601661578316,3.3042111871262994 L-5.082494684306162,3.2182972635764084 L-5.082866101320465,3.1323553226961094 L-5.0807157045698546,3.046428709346947 L-5.076044610002855,2.960560769133633 L-5.06885525756789,2.8747948484040418 L-5.059151411213282,2.789174294249215 L-5.046938158887253,2.7037424545033573 L-5.032221912125326,2.618542677112089 L-5.015009670519087,2.533617061232966 L-4.995310084815034,2.4490076844204705 L-4.97313377954232,2.364757361074297 L-4.948492511046315,2.28090845248462 L-4.921399167488602,2.197502866832097 L-4.891867768846975,2.1145820591878652 L-4.859913466915444,2.032187031513546 L-4.825552545304231,1.9503583326612408 L-4.788802419439773,1.8691360583735337 L-4.74968163656472,1.7885598512834902 L-4.708209875737934,1.708668900914657 L-4.6644079478344915,1.6295019436810638 L-4.618297795545684,1.5510972628872208 L-4.569902493379013,1.4734926887281206 L-4.519246247658197,1.3967255982892373 L-4.466354396523165,1.3208329155465268 L-4.411253409930063,1.2458511113664268 L-4.3539708896512455,1.171816203505857 L-4.294535326590477,1.0987635852548658 L-4.232974689876408,1.0267270140645497 L-4.169319136163414,0.9557405303942953 L-4.1036000188196935,0.8858377972226443 L-4.035849545991307,0.8170518615704014 L-3.9661007806021726,0.749415154500634 L-3.8943876403540667,0.6829594911186727 L-3.820744897726624,0.6177160705721106 L-3.7452081799773387,0.5537154760508036 L-3.667813969141563,0.4909876747868708 L-3.5885996020325077,0.42956201805469374 L-3.5076032702412414,0.3694672411709169 L-3.4248640201366936,0.3107314634944477 L-3.3404217528656495,0.25338218842645654 L-3.254317224352755,0.19744630341037606 L-3.1665920453005136,0.14295007993190256 L-3.0772886811892883,0.08991917351899437 L-2.9864504359415185,0.03837861454057818 L-2.894120480946063,-0.011647744447298172 L-2.8003430172684474,-0.06013658548718315 L-2.705163392100512,-0.10706504527294927 L-2.608627542563856,-0.1524110252132822 L-2.5107819957098414,-0.1961531914316806 L-2.311350867903987,-0.2787445707707343 L-2.1072540236890545,-0.3546838065743617 L-1.8988849169473223,-0.4238277575638236 L-1.6866464404372434,-0.4860455178973904 L-1.4709471260525029,-0.5412194017235231 L-1.2522027048609732,-0.5892451804610188 L-1.0308393864582595,-0.6300311772466368 L-0.8072866058105154,-0.663499783331934 L-0.5819769624233271,-0.6895874719653743 L-0.3553462203417137,-0.7082447983923275 L-0.1278333081501264,-0.7194363998550701 L0.10011968102755109,-0.7231409955927856 L0.32806757434587874,-0.7193513716443505 L0.5555786427470438,-0.708071890859812 L0.7822135078973285,-0.6893237802469474 L1.0075244844676272,-0.6631445278876663 L1.2310704460755297,-0.6295849389773742 L1.4524168252853213,-0.5887091358249718 L1.6711356136079838,-0.5405945578528552 L1.8868053615011926,-0.4853319615969163 L2.09901117836932,-0.42302542070654225 L2.3073447325634353,-0.3537923259446156 L2.5114042513812995,-0.27776338518751464 L2.7107945210673727,-0.19508262342511273 L2.808616976649368,-0.15129645887448084 L2.9051268868128086,-0.10590738276077882 L3.000276694542011,-0.05893714364591174 L3.094019252755431,-0.01040832241139189 " />
			<path d="M-2.9012208946695757,-4.396813391161004 L-2.9012208946695757,-4.312537411691661 " />
			<path d="M3.098779315383295,-4.059709313807883 L3.098779315383295,-3.97543333433854 " />
			<path d="M-2.9012206733329338,-3.722605932207328 L-2.9012206733329338,-3.638329952737985 " />
			<path d="M3.098779314361047,-3.385502612747368 L3.098779314361047,-3.301226633280012 " />
			<path d="M-2.901220895466153,-3.048398528618211 L-2.901220895466089,-2.9641225491488528 " />
			<path d="M3.098779345268148,-2.711293933032591 L3.098779345268148,-2.6270179535632483 " />
			<path d="M-2.901220631608958,-2.3741900455232594 L-2.9012206316089353,-2.2899140660539 " />
			<path d="M3.098779285396266,-2.037086108304633 L3.098779285396266,-1.9528101288352906 " />
			<path d="M-2.9012206914674996,-1.6999822069874169 L-2.9012206914674996,-1.6157062275180742 " />
			<path d="M3.0987795479733444,-1.3628789788624607 L3.0987795479733444,-1.278602999393118 " />
			<path d="M-2.901220662079634,-1.025775133457592 L-2.901220662079634,-0.9414991539882493 " />
			<path d="M3.09877932663696,-0.6886707362484952 L3.09877932663696,-0.6043947567791526 " />
			<path d="M-2.901220661057498,-0.3515662706138607 L-2.901220661057498,-0.26729029114451763 " />
			<path d="M3.098779548769793,-0.014462432653734147 L3.0987795487697594,-0.007549044112696898 " />
			<path d="M-2.896460598969354,6.335741544029265 L-2.80271825987162,6.384270545393636 L-2.7075676350461455,6.431241224872849 L-2.6110561079626224,6.476630931066277 L-2.5132314489658523,6.5204178513838285 L-2.3138357509873297,6.603100278083639 L-2.1097704413711944,6.679130780462335 L-1.901431610379824,6.748365054978589 L-1.6892215382773572,6.8106722190596924 L-1.4735486953296941,6.865934811101553 L-1.254827741804496,6.9140487904687 L-1.033479527971185,6.9549235374942775 L-0.809931094100945,6.9884818534800495 L-0.5846156704667202,7.014659960696399 L-0.35797267734321636,7.033407502382326 L-0.13044772500690183,7.04468754274545 L0.09750740385984596,7.048476570576493 L0.32545585488177764,7.044768948167853 L0.5529657668542106,7.033574721245366 L0.779594052937621,7.014915177781804 L1.0049011185764138,6.988825665003324 L1.2284508614989234,6.955355589389471 L1.4498106717174124,6.914568416673179 L1.6685514315280734,6.866541671840765 L1.8842478948106929,6.811366842494349 L2.096484850327058,6.749147988249441 L2.3048521474188757,6.68000310289151 L2.5089471448578102,6.604062995625378 L2.7083764962328134,6.521470774852312 L2.806221175444491,6.477728206337606 L2.9027561499501253,6.4323818481700314 L2.997934865615698,6.385453048048749 L3.0917113492332713,6.336963922372696 L3.184040274573504,6.286937319109646 L3.2748779646311905,6.235396262820703 L3.364180695114441,6.182364920115662 L3.4519051659443787,6.12786831837848 L3.538008929775996,6.071932102332125 L3.6224503919981546,6.0145825340385715 L3.705188810733587,5.9558464928988055 L3.7861842968388935,5.895751475652818 L3.8653978139045453,5.834325596379614 L3.942791178254882,5.771597586497202 L4.018327058948114,5.707596794762604 L4.09196897777632,5.642353187271848 L4.163681309265449,5.5758973474599705 L4.233429280675319,5.508260476101021 L4.301178971999617,5.439474391308053 L4.366897315965902,5.369571528533132 L4.4305520980356,5.298584940567331 L4.492111956404007,5.226548297540731 L4.551546583505265,5.153495746632033 L4.608828068959217,5.079461003635247 L4.66392808923736,5.004479346203969 L4.716819028258944,4.928586803913742 L4.767474403713936,4.851819857682394 L4.815868867063026,4.774215439770043 L4.8619782035376184,4.6958109337790965 L4.905779332139841,4.616644174654248 L4.9472503056425365,4.536753448682482 L4.986370310589269,4.456177493493071 L5.023119667294319,4.374955498057574 L5.057479829842687,4.293127102689841 L5.089433386090094,4.210732399046008 L5.118964057662977,4.127811930124504 L5.146056699958494,4.044406690266041 L5.170697302144519,3.9605581251536233 L5.192872987159648,3.876308131812543 L5.212572011713195,3.791699058610379 L5.22978376628519,3.706773705257001 L5.244499448266936,3.6215743528941315 L5.256712151593525,3.536142921278979 L5.2664154744418035,3.4505227600035115 L5.273604328227152,3.364757230891332 L5.278274948222884,3.2788896913721346 L5.280424893560249,3.192963494481706 L5.280053047228436,3.1070219888619244 L5.277159616074568,3.0211085187607587 L5.271746130803705,2.93526642403227 L5.263815445978843,2.8495390401366114 L5.253371740020915,2.7639696981400275 L5.24042051520879,2.678601724714854 L5.224968493611139,2.593478324946711 L5.20702214028439,2.508640765442867 L5.186590768376475,2.424131567381032 L5.163685554530625,2.339993594081595 L5.138318775407556,2.256269230491857 L5.110503807685473,2.1730003831860305 L5.080255128060072,2.09022848036524 L5.047588313244539,2.007994471857519 L5.012520039969547,1.9263388291178138 L4.975068084983259,1.845301545227982 L4.935251325051328,1.7649221348967912 L4.893089736956895,1.685239634459921 L4.8486043975005915,1.6062926018799621 L4.801817483500537,1.5281191167464163 L4.752752271792341,1.4507567802756964 L4.701433139229103,1.374242715311127 L4.647885562681409,1.2986135663229428 L4.592136119037336,1.2239054994082907 L4.534212485202453,1.1501542022912286 L4.474143438099811,1.077394884322725 L4.411958854669958,1.00566227648066 L4.3476897118709275,0.9349906313698249 L4.2813680866782615,0.8654137232219417 " />
			<path d="M-2.3599547959831635,-3.9329073706888376 L-2.3599547959831635,-4.102236332735199 " />
			<path d="M2.5575134492868368,-0.2594021776318298 L2.5575134492868368,-0.39409332350938175 " />

        </g>
        </g>
    </svg>
    