<?xml version='1.0' encoding='utf-8'?>
<svg width="100.09mm" height="49.746368mm" viewBox="-195.095915 -96.934516 390.282885 193.976981" version="1.1" xmlns="http://www.w3.org/2000/svg">
  <g transform="scale(1,-1)" stroke-linecap="round">
    <g fill="none" stroke="rgb(0,0,0)" stroke-width="0.3509387516775107" id="Visible">
      <line x1="195.0115" y1="-44.079578" x2="195.0115" y2="-35.274233" />
      <line x1="195.0115" y1="-35.274233" x2="-83.550342" y2="-88.06165" />
      <line x1="-83.550342" y1="-96.866995" x2="-83.550342" y2="-88.06165" />
      <line x1="195.0115" y1="-44.079578" x2="-83.550342" y2="-96.866995" />
      <line x1="195.0115" y1="-35.274233" x2="83.641396" y2="96.759047" />
      <line x1="-83.550342" y1="-88.06165" x2="-194.920446" y2="43.97163" />
      <line x1="83.641396" y1="96.759047" x2="-194.920446" y2="43.97163" />
      <path d="M 86.561186,-47.147733 A 3.0,1.4219457894698238 180.0 0,0 82.447485,-45.8274" />
      <path d="M 82.447485,-45.8274 A 3.0,1.4219457894698238 180.0 0,0 88.447485,-45.8274" />
      <path d="M 88.447485,-45.8274 A 3.0,1.4219457894698238 180.0 0,0 86.561186,-47.147733" />
      <path d="M 49.419607,-54.186055 A 3.0,1.4219457894698238 180.0 0,0 45.305906,-52.865722" />
      <path d="M 45.305906,-52.865722 A 3.0,1.4219457894698238 180.0 0,0 51.305906,-52.865722" />
      <path d="M 51.305906,-52.865722 A 3.0,1.4219457894698238 180.0 0,0 49.419607,-54.186055" />
      <path d="M 12.278028,-61.224378 A 3.0,1.4219457894698238 180.0 0,0 8.164327,-59.904045" />
      <path d="M 8.164327,-59.904045 A 3.0,1.4219457894698238 180.0 0,0 14.164327,-59.904045" />
      <path d="M 14.164327,-59.904045 A 3.0,1.4219457894698238 180.0 0,0 12.278028,-61.224378" />
      <line x1="-83.550342" y1="-96.866995" x2="-194.920446" y2="35.166284" />
      <line x1="-194.920446" y1="35.166284" x2="-194.920446" y2="43.97163" />
      <line x1="55.730579" y1="-70.473287" x2="68.859317" y2="-86.03788" />
      <line x1="55.730579" y1="-70.473287" x2="88.568525" y2="-64.250502" />
      <line x1="55.730579" y1="-70.473287" x2="55.730579" y2="-39.333042" />
      <path d="M 68.859317,-86.03788 C 68.49463,-85.60553 68.896054,-85.328877 69.297479,-85.052224" />
      <path d="M 68.859317,-86.03788 C 68.49463,-85.60553 67.801456,-85.536303 67.108282,-85.467076" />
      <path d="M 88.568525,-64.250502 C 87.65636,-64.423357 87.072682,-64.23309 86.489003,-64.042822" />
      <path d="M 88.568525,-64.250502 C 87.65636,-64.423357 87.510306,-64.751909 87.364252,-65.080461" />
      <path d="M 55.730579,-39.333042 C 55.730579,-40.198049 56.277878,-40.440338 56.825178,-40.682628" />
      <path d="M 55.730579,-39.333042 C 55.730579,-40.198049 55.18328,-40.647765 54.635981,-41.09748" />
      <line x1="73.870221" y1="-87.863884" x2="70.148438" y2="-87.458936" />
      <line x1="70.148438" y1="-87.458936" x2="67.924882" y2="-89.044676" />
      <line x1="67.924882" y1="-89.044676" x2="67.547431" y2="-88.597194" />
      <line x1="67.547431" y1="-88.597194" x2="69.389974" y2="-87.349933" />
      <line x1="69.389974" y1="-87.349933" x2="66.237848" y2="-87.044636" />
      <line x1="66.237848" y1="-87.044636" x2="65.866957" y2="-86.604931" />
      <line x1="65.866957" y1="-86.604931" x2="69.784118" y2="-87.027021" />
      <line x1="69.784118" y1="-87.027021" x2="71.904191" y2="-85.533084" />
      <line x1="71.904191" y1="-85.533084" x2="72.275082" y2="-85.972789" />
      <line x1="72.275082" y1="-85.972789" x2="70.540938" y2="-87.145356" />
      <line x1="70.540938" y1="-87.145356" x2="73.505901" y2="-87.431969" />
      <line x1="73.505901" y1="-87.431969" x2="73.870221" y2="-87.863884" />
      <line x1="92.037479" y1="-63.593136" x2="91.896533" y2="-63.97413" />
      <line x1="91.896533" y1="-63.97413" x2="92.835236" y2="-65.086996" />
      <line x1="92.835236" y1="-65.086996" x2="92.071743" y2="-65.231677" />
      <line x1="92.071743" y1="-65.231677" x2="91.13304" y2="-64.118812" />
      <line x1="91.13304" y1="-64.118812" x2="90.466604" y2="-63.890817" />
      <line x1="53.682323" y1="-34.045872" x2="57.992304" y2="-33.229131" />
      <line x1="57.992304" y1="-33.229131" x2="57.992304" y2="-33.883081" />
      <line x1="57.992304" y1="-33.883081" x2="54.412946" y2="-38.944368" />
      <line x1="54.412946" y1="-38.944368" x2="58.008712" y2="-38.262971" />
      <line x1="58.008712" y1="-38.262971" x2="58.008712" y2="-38.901336" />
      <line x1="58.008712" y1="-38.901336" x2="55.730579" y2="-39.333042" />
      <line x1="55.730579" y1="-39.333042" x2="53.452447" y2="-39.764748" />
      <line x1="53.452447" y1="-39.764748" x2="53.452447" y2="-39.126383" />
      <line x1="53.452447" y1="-39.126383" x2="57.048213" y2="-34.046426" />
      <line x1="57.048213" y1="-34.046426" x2="53.682323" y2="-34.684262" />
      <line x1="53.682323" y1="-34.684262" x2="53.682323" y2="-34.045872" />
    </g>
    <g fill="none" stroke="rgb(99,99,99)" stroke-width="0.3509387516775107" id="Hidden" stroke-dasharray="0.008914 1.057273">
      <line x1="195.0115" y1="-44.079578" x2="83.641396" y2="87.953701" />
      <line x1="83.641396" y1="87.953701" x2="83.641396" y2="96.759047" />
      <line x1="83.641396" y1="87.953701" x2="-194.920446" y2="35.166284" />
      <path d="M 86.561186,-55.953079 A 3.0,1.4219457894698238 180.0 0,0 82.447485,-54.632746" />
      <path d="M 82.447485,-54.632746 A 3.0,1.4219457894698238 180.0 0,0 88.447485,-54.632746" />
      <path d="M 88.447485,-54.632746 A 3.0,1.4219457894698238 180.0 0,0 86.561186,-55.953079" />
      <path d="M 49.419607,-62.991401 A 3.0,1.4219457894698238 180.0 0,0 45.305906,-61.671068" />
      <path d="M 45.305906,-61.671068 A 3.0,1.4219457894698238 180.0 0,0 51.305906,-61.671068" />
      <path d="M 51.305906,-61.671068 A 3.0,1.4219457894698238 180.0 0,0 49.419607,-62.991401" />
      <path d="M 12.278028,-70.029723 A 3.0,1.4219457894698238 180.0 0,0 8.164327,-68.70939" />
      <path d="M 8.164327,-68.70939 A 3.0,1.4219457894698238 180.0 0,0 14.164327,-68.70939" />
      <path d="M 14.164327,-68.70939 A 3.0,1.4219457894698238 180.0 0,0 12.278028,-70.029723" />
      <line x1="92.691926" y1="-61.824084" x2="92.037479" y2="-63.593136" />
      <line x1="90.466604" y1="-63.890817" x2="87.372168" y2="-62.832177" />
      <line x1="87.372168" y1="-62.832177" x2="88.316259" y2="-62.653272" />
      <line x1="88.316259" y1="-62.653272" x2="91.23827" y2="-63.70171" />
      <line x1="91.23827" y1="-63.70171" x2="91.780651" y2="-61.996771" />
      <line x1="91.780651" y1="-61.996771" x2="92.691926" y2="-61.824084" />
      <line x1="82.447485" y1="-45.8274" x2="82.447485" y2="-54.632746" />
      <line x1="88.447485" y1="-45.8274" x2="88.447485" y2="-54.632746" />
      <line x1="45.305906" y1="-52.865722" x2="45.305906" y2="-61.671068" />
      <line x1="51.305906" y1="-52.865722" x2="51.305906" y2="-61.671068" />
      <line x1="8.164327" y1="-59.904045" x2="8.164327" y2="-68.70939" />
      <line x1="14.164327" y1="-59.904045" x2="14.164327" y2="-68.70939" />
    </g>
  </g>
</svg>