<?xml version='1.0' encoding='utf-8'?>
<svg width="100.09mm" height="71.861227mm" viewBox="-211.196933 -185.113703 430.194663 308.865184" version="1.1" xmlns="http://www.w3.org/2000/svg">
  <g transform="scale(1,-1)" stroke-linecap="round">
    <g fill="none" stroke="rgb(0,0,0)" stroke-width="0.3868270525579495" id="Visible">
      <line x1="218.804316" y1="-76.546891" x2="218.804316" y2="21.190758" />
      <line x1="218.804316" y1="-76.546891" x2="17.317243" y2="-123.558067" />
      <line x1="-3.463449" y1="-33.930976" x2="218.804316" y2="-76.546891" />
      <line x1="-3.463449" y1="63.806673" x2="218.804316" y2="21.190758" />
      <line x1="-3.463449" y1="-33.930976" x2="-3.463449" y2="63.806673" />
      <line x1="-3.463449" y1="63.806673" x2="-63.57497" y2="49.78139" />
      <line x1="-151.635873" y1="29.234927" x2="-204.950522" y2="16.795497" />
      <line x1="-204.950522" y1="-80.942152" x2="17.317243" y2="-123.558067" />
      <line x1="-204.950522" y1="-80.942152" x2="-204.950522" y2="16.795497" />
      <line x1="-3.463449" y1="-33.930976" x2="-204.950522" y2="-80.942152" />
      <path d="M -131.071928,7.643763 A 3.0,1.9692872943895003 -100.85373319409838 0,0 -130.507021,7.657967" />
      <path d="M -130.507021,7.657967 A 3.0,1.9692872943895003 -100.85373319409838 0,0 -129.213405,6.277739" />
      <path d="M -129.924456,2.569182 A 3.0,1.9692872943895003 -100.85373319409838 0,0 -131.636836,1.7653" />
      <path d="M -131.636836,1.7653 A 3.0,1.9692872943895003 -100.85373319409838 0,0 -131.071928,7.643763" />
      <path d="M -104.206985,13.91192 A 3.0,1.9692872943895003 -100.85373319409838 0,0 -103.642078,13.926124" />
      <path d="M -103.642078,13.926124 A 3.0,1.9692872943895003 -100.85373319409838 0,0 -102.348462,12.545896" />
      <path d="M -103.059512,8.837339 A 3.0,1.9692872943895003 -100.85373319409838 0,0 -104.771893,8.033457" />
      <path d="M -104.771893,8.033457 A 3.0,1.9692872943895003 -100.85373319409838 0,0 -104.206985,13.91192" />
      <path d="M -77.342042,20.180077 A 3.0,1.9692872943895003 -100.85373319409838 0,0 -76.777135,20.194281" />
      <path d="M -76.777135,20.194281 A 3.0,1.9692872943895003 -100.85373319409838 0,0 -75.483519,18.814052" />
      <path d="M -76.194569,15.105496 A 3.0,1.9692872943895003 -100.85373319409838 0,0 -77.906949,14.301614" />
      <path d="M -77.906949,14.301614 A 3.0,1.9692872943895003 -100.85373319409838 0,0 -77.342042,20.180077" />
      <line x1="-144.5044" y1="-17.969975" x2="-63.909571" y2="0.834496" />
      <line x1="-63.909571" y1="0.834496" x2="-63.909571" y2="41.36475" />
      <line x1="-128.385434" y1="25.515817" x2="-128.385434" y2="26.213163" />
      <line x1="-96.147502" y1="33.037605" x2="-96.147502" y2="33.734951" />
      <path d="M -77.342042,20.435589 A 3.261426524367547,2.1408952720073064 -100.8537331940984 0,0 -75.579922,19.552587" />
      <path d="M -76.557296,14.454991 A 3.261426524367547,2.1408952720073064 -100.8537331940984 1,0 -77.342042,20.435589" />
      <path d="M -104.206985,14.167432 A 3.261426524367547,2.1408952720073064 -100.8537331940984 0,0 -102.444865,13.28443" />
      <path d="M -103.422239,8.186834 A 3.261426524367547,2.1408952720073064 -100.8537331940984 1,0 -104.206985,14.167432" />
      <path d="M -131.071928,7.899275 A 3.261426524367547,2.1408952720073064 -100.8537331940984 0,0 -129.309808,7.016274" />
      <path d="M -130.287182,1.918677 A 3.261426524367547,2.1408952720073064 -100.8537331940984 1,0 -131.071928,7.899275" />
      <path d="M -148.208863,21.835351 A 5.0,3.6206548152316524 103.13335492951154 0,0 -149.344954,31.591452" />
      <line x1="-148.208863" y1="21.835351" x2="-145.986185" y2="21.409191" />
      <line x1="-145.986185" y1="21.409191" x2="-145.986185" y2="-17.685868" />
      <line x1="-145.986185" y1="-17.685868" x2="-144.5044" y2="-17.969975" />
      <line x1="-145.986185" y1="-17.685868" x2="-65.391356" y2="1.118602" />
      <line x1="-65.391356" y1="1.118602" x2="-63.909571" y2="0.834496" />
      <path d="M -132.089897,25.596245 A 5.0,3.6206548152316524 103.13335492951154 0,0 -133.225988,35.352346" />
      <path d="M -67.614033,40.639821 A 5.0,3.6206548152316524 103.13335492951154 0,0 -68.750125,50.395923" />
      <path d="M -68.750125,50.395923 A 5.0,3.6206548152316524 103.13335492951154 0,0 -68.318319,50.459489" />
      <line x1="-65.391356" y1="40.213662" x2="-65.391356" y2="1.118602" />
      <line x1="-67.614033" y1="40.639821" x2="-65.391356" y2="40.213662" />
      <line x1="-129.867219" y1="25.170085" x2="-132.089897" y2="25.596245" />
      <path d="M -83.732999,36.878927 A 5.0,3.6206548152316524 103.13335492951154 0,0 -84.869091,46.635029" />
      <line x1="-129.867219" y1="25.170085" x2="-113.748253" y2="28.930979" />
      <line x1="-81.510322" y1="36.452768" x2="-83.732999" y2="36.878927" />
      <line x1="-113.748253" y1="28.930979" x2="-115.970931" y2="29.357139" />
      <path d="M -115.970931,29.357139 A 5.0,3.6206548152316524 103.13335492951154 0,0 -117.107022,39.11324" />
      <line x1="-97.629287" y1="32.691874" x2="-81.510322" y2="36.452768" />
      <path d="M -99.851965,33.118033 A 5.0,3.6206548152316524 103.13335492951154 0,0 -100.988056,42.874134" />
      <line x1="-97.629287" y1="32.691874" x2="-99.851965" y2="33.118033" />
      <path d="M -78.823827,22.418936 A 5.0,3.2821454906491674 79.1462668059016 1,1 -77.00144,13.852573" />
      <path d="M -77.00144,13.852573 A 5.0,3.2821454906491674 79.1462668059016 0,1 -75.769754,20.276559" />
      <path d="M -75.769754,20.276559 A 5.0,3.2821454906491674 79.1462668059016 0,1 -78.823827,22.418936" />
      <path d="M -105.68877,16.150779 A 5.0,3.2821454906491674 79.1462668059016 1,1 -103.866383,7.584416" />
      <path d="M -103.866383,7.584416 A 5.0,3.2821454906491674 79.1462668059016 0,1 -102.634697,14.008402" />
      <path d="M -102.634697,14.008402 A 5.0,3.2821454906491674 79.1462668059016 0,1 -105.68877,16.150779" />
      <path d="M -132.553713,9.882622 A 5.0,3.2821454906491674 79.1462668059016 1,1 -130.731326,1.316259" />
      <path d="M -130.731326,1.316259 A 5.0,3.2821454906491674 79.1462668059016 0,1 -129.49964,7.740246" />
      <path d="M -129.49964,7.740246 A 5.0,3.2821454906491674 79.1462668059016 0,1 -132.553713,9.882622" />
      <line x1="-145.986185" y1="21.409191" x2="-129.867219" y2="25.170085" />
      <line x1="-113.748253" y1="28.930979" x2="-97.629287" y2="32.691874" />
      <line x1="-81.510322" y1="36.452768" x2="-65.391356" y2="40.213662" />
      <line x1="-146.852935" y1="33.137863" x2="-130.733969" y2="36.898758" />
      <line x1="-130.733969" y1="36.898758" x2="-133.942128" y2="35.070424" />
      <line x1="-82.377072" y1="48.18144" x2="-66.258106" y2="51.942334" />
      <line x1="-82.377072" y1="48.18144" x2="-85.585231" y2="46.353106" />
      <line x1="-114.615003" y1="40.659652" x2="-117.823162" y2="38.831318" />
      <line x1="-114.615003" y1="40.659652" x2="-98.496038" y2="44.420546" />
      <line x1="-98.496038" y1="44.420546" x2="-101.704196" y2="42.592212" />
      <line x1="-146.852935" y1="33.137863" x2="-146.496851" y2="32.255975" />
      <line x1="-64.719871" y1="50.561821" x2="-59.551963" y2="53.507018" />
      <line x1="-66.258106" y1="51.942334" x2="-65.827968" y2="50.877039" />
      <path d="M -130.953805,25.613908 A 5.0,3.6206548152316524 103.13335492951154 0,0 -133.942128,35.070424" />
      <line x1="-82.377072" y1="48.18144" x2="-82.020988" y2="47.299551" />
      <path d="M -114.83484,29.374802 A 5.0,3.6206548152316524 103.13335492951154 0,0 -117.823162,38.831318" />
      <path d="M -82.596908,36.89659 A 5.0,3.6206548152316524 103.13335492951154 0,0 -85.585231,46.353106" />
      <line x1="-114.615003" y1="40.659652" x2="-114.25892" y2="39.777763" />
      <path d="M -98.715874,33.135696 A 5.0,3.6206548152316524 103.13335492951154 0,0 -101.704196,42.592212" />
      <line x1="-5.811984" y1="66.045686" x2="-9.516447" y2="75.22028" />
      <line x1="-9.516447" y1="75.22028" x2="-211.00352" y2="28.209105" />
      <line x1="-207.299057" y1="19.034511" x2="-211.00352" y2="28.209105" />
      <line x1="-5.811984" y1="66.045686" x2="-207.299057" y2="19.034511" />
      <line x1="-5.811984" y1="66.045686" x2="186.677547" y2="175.745696" />
      <line x1="186.677547" y1="175.745696" x2="182.973084" y2="184.92029" />
      <line x1="-9.516447" y1="75.22028" x2="182.973084" y2="184.92029" />
      <line x1="-211.00352" y1="28.209105" x2="-18.513989" y2="137.909114" />
      <line x1="182.973084" y1="184.92029" x2="-18.513989" y2="137.909114" />
      <path d="M -72.4873,64.199183 A 3.0,0.4351324866794982 -158.01242332771 0,0 -73.3442,64.172967" />
      <path d="M -73.3442,64.172967 A 3.0,0.4351324866794982 -158.01242332771 0,0 -67.78061,66.4194" />
      <path d="M -67.78061,66.4194 A 3.0,0.4351324866794982 -158.01242332771 0,0 -72.4873,64.199183" />
      <path d="M -99.352243,57.931026 A 3.0,0.4351324866794982 -158.01242332771 0,0 -100.209143,57.90481" />
      <path d="M -100.209143,57.90481 A 3.0,0.4351324866794982 -158.01242332771 0,0 -94.645553,60.151243" />
      <path d="M -94.645553,60.151243 A 3.0,0.4351324866794982 -158.01242332771 0,0 -99.352243,57.931026" />
      <path d="M -126.217186,51.66287 A 3.0,0.4351324866794982 -158.01242332771 0,0 -127.074086,51.636653" />
      <path d="M -127.074086,51.636653 A 3.0,0.4351324866794982 -158.01242332771 0,0 -121.510496,53.883086" />
      <path d="M -121.510496,53.883086 A 3.0,0.4351324866794982 -158.01242332771 0,0 -126.217186,51.66287" />
      <line x1="-148.208863" y1="21.835351" x2="-132.089897" y2="25.596245" />
      <line x1="-83.732999" y1="36.878927" x2="-67.614033" y2="40.639821" />
      <line x1="-115.970931" y1="29.357139" x2="-99.851965" y2="33.118033" />
      <path d="M -67.854627,50.604861 A 5.0,3.6206548152316524 -76.86664507048847 0,1 -65.582444,40.866423" />
      <path d="M -65.823037,50.831463 A 5.0,3.6206548152316524 -76.86664507048847 0,1 -66.959128,50.8138" />
      <path d="M -66.959128,50.8138 A 5.000000129946137,3.620654909329674 -76.86664507048847 0,1 -64.686946,41.075361" />
      <path d="M -64.927539,49.737233 A 3.6666668568404197,2.6551470022139148 -76.86664507048847 0,1 -64.927539,42.569805 A 3.6666668568404197,2.6551470022139148 -76.86664507048847 0,1 -64.927539,49.737233" />
      <line x1="-133.942128" y1="35.070424" x2="-117.823162" y2="38.831318" />
      <line x1="-101.704196" y1="42.592212" x2="-85.585231" y2="46.353106" />
      <line x1="-133.600956" y1="35.264858" x2="-149.344954" y2="31.591452" />
      <line x1="-68.750125" y1="50.395923" x2="-84.869091" y2="46.635029" />
      <line x1="-101.363024" y1="42.786647" x2="-117.107022" y2="39.11324" />
      <path d="M -67.854627,50.604861 C -68.502644,50.455012 -69.098046,50.100703 -69.563341,49.603406 C -69.936166,49.206919 -70.229025,48.721967 -70.430956,48.185391 C -70.813715,47.174485 -70.868886,45.975303 -70.606065,44.843921 C -70.274196,43.388184 -69.414458,42.068367 -68.267279,41.359221 C -67.451965,40.846053 -66.480275,40.653113 -65.582444,40.866423" />
      <line x1="-65.582444" y1="40.866423" x2="-64.686946" y2="41.075361" />
      <line x1="-67.854627" y1="50.604861" x2="-66.959128" y2="50.8138" />
      <path d="M -65.571967,50.837776 C -66.033156,50.926593 -66.50722,50.919613 -66.959128,50.8138" />
      <path d="M -64.686946,41.075361 C -64.038928,41.22521 -63.443526,41.57952 -62.978231,42.076816 C -62.605407,42.473303 -62.312547,42.958255 -62.110616,43.494831 C -61.727857,44.505737 -61.672687,45.704919 -61.935507,46.836302 C -62.093232,47.520561 -62.364853,48.178196 -62.73046,48.753978 C -63.411873,49.835411 -64.438928,50.623573 -65.571967,50.837776" />
      <line x1="-115.388861" y1="29.245537" x2="-130.953805" y2="25.613908" />
      <line x1="-83.150929" y1="36.767325" x2="-98.715874" y2="33.135696" />
    </g>
    <g fill="none" stroke="rgb(99,99,99)" stroke-width="0.3868270525579495" id="Hidden" stroke-dasharray="0.009825 1.165394">
      <line x1="218.804316" y1="21.190758" x2="17.317243" y2="-25.820418" />
      <line x1="17.317243" y1="-123.558067" x2="17.317243" y2="-25.820418" />
      <line x1="-63.57497" y1="49.78139" x2="-63.909571" y2="49.703321" />
      <line x1="-56.500645" y1="48.28279" x2="-63.909571" y2="49.703321" />
      <line x1="-2.770759" y1="60.819104" x2="-56.500645" y2="48.28279" />
      <line x1="-2.770759" y1="60.819104" x2="204.679155" y2="21.044249" />
      <line x1="204.679155" y1="21.044249" x2="16.624553" y2="-22.832848" />
      <line x1="-190.825361" y1="16.942006" x2="16.624553" y2="-22.832848" />
      <line x1="-137.095474" y1="29.47832" x2="-190.825361" y2="16.942006" />
      <line x1="-137.095474" y1="29.47832" x2="-144.5044" y2="30.89885" />
      <line x1="-144.5044" y1="30.89885" x2="-151.635873" y2="29.234927" />
      <line x1="-204.950522" y1="16.795497" x2="17.317243" y2="-25.820418" />
      <line x1="-63.909571" y1="47.748568" x2="-63.909571" y2="49.703321" />
      <line x1="-144.5044" y1="28.944097" x2="-63.909571" y2="47.748568" />
      <line x1="-144.5044" y1="28.944097" x2="-144.5044" y2="30.89885" />
      <path d="M -129.213405,6.277739 A 3.0,1.9692872943895003 -100.85373319409838 0,0 -129.924456,2.569182" />
      <path d="M -102.348462,12.545896 A 3.0,1.9692872943895003 -100.85373319409838 0,0 -103.059512,8.837339" />
      <path d="M -75.483519,18.814052 A 3.0,1.9692872943895003 -100.85373319409838 0,0 -76.194569,15.105496" />
      <line x1="-63.909571" y1="47.748568" x2="-56.500645" y2="46.328037" />
      <line x1="-56.500645" y1="46.328037" x2="-56.500645" y2="48.28279" />
      <line x1="-2.770759" y1="-27.144781" x2="-2.770759" y2="60.819104" />
      <line x1="-190.825361" y1="-71.021878" x2="-2.770759" y2="-27.144781" />
      <line x1="-56.500645" y1="46.328037" x2="-137.095474" y2="27.523567" />
      <line x1="-190.825361" y1="-71.021878" x2="-190.825361" y2="16.942006" />
      <line x1="-137.095474" y1="27.523567" x2="-137.095474" y2="29.47832" />
      <path d="M -123.663003,6.223233 A 3.0,1.9692872943895003 -100.85373319409838 0,0 -123.098096,6.237436" />
      <path d="M -123.098096,6.237436 A 3.0,1.9692872943895003 -100.85373319409838 0,0 -124.22791,0.34477" />
      <path d="M -124.22791,0.34477 A 3.0,1.9692872943895003 -100.85373319409838 0,0 -123.663003,6.223233" />
      <path d="M -96.79806,12.491389 A 3.0,1.9692872943895003 -100.85373319409838 0,0 -96.233152,12.505593" />
      <path d="M -96.233152,12.505593 A 3.0,1.9692872943895003 -100.85373319409838 0,0 -97.362967,6.612927" />
      <path d="M -97.362967,6.612927 A 3.0,1.9692872943895003 -100.85373319409838 0,0 -96.79806,12.491389" />
      <path d="M -69.933117,18.759546 A 3.0,1.9692872943895003 -100.85373319409838 0,0 -69.368209,18.77375" />
      <path d="M -69.368209,18.77375 A 3.0,1.9692872943895003 -100.85373319409838 0,0 -70.498024,12.881084" />
      <path d="M -70.498024,12.881084 A 3.0,1.9692872943895003 -100.85373319409838 0,0 -69.933117,18.759546" />
      <line x1="204.679155" y1="-66.919635" x2="204.679155" y2="21.044249" />
      <line x1="-2.770759" y1="-27.144781" x2="204.679155" y2="-66.919635" />
      <line x1="16.624553" y1="-110.796733" x2="204.679155" y2="-66.919635" />
      <line x1="16.624553" y1="-22.832848" x2="16.624553" y2="-110.796733" />
      <line x1="-190.825361" y1="-71.021878" x2="16.624553" y2="-110.796733" />
      <line x1="-144.5044" y1="28.944097" x2="-137.095474" y2="27.523567" />
      <line x1="-144.5044" y1="-17.969975" x2="-144.5044" y2="26.011968" />
      <line x1="-63.909571" y1="41.36475" x2="-63.909571" y2="44.816438" />
      <line x1="-128.385434" y1="24.885979" x2="-128.385434" y2="25.515817" />
      <line x1="-128.385434" y1="26.213163" x2="-128.385434" y2="29.772862" />
      <line x1="-128.385434" y1="24.885979" x2="-112.266468" y2="28.646873" />
      <line x1="-80.028536" y1="36.168661" x2="-80.028536" y2="41.055544" />
      <line x1="-112.266468" y1="28.646873" x2="-112.266468" y2="33.533756" />
      <line x1="-96.147502" y1="32.407767" x2="-80.028536" y2="36.168661" />
      <line x1="-96.147502" y1="32.407767" x2="-96.147502" y2="33.037605" />
      <line x1="-96.147502" y1="33.734951" x2="-96.147502" y2="37.29465" />
      <path d="M -75.579922,19.552587 A 3.261426524367547,2.1408952720073064 -100.8537331940984 0,0 -75.349915,19.038148" />
      <path d="M -75.349915,19.038148 A 3.261426524367547,2.1408952720073064 -100.8537331940984 0,0 -76.153326,14.847876" />
      <path d="M -76.153326,14.847876 A 3.261426524367547,2.1408952720073064 -100.8537331940984 0,0 -76.557296,14.454991" />
      <path d="M -102.444865,13.28443 A 3.261426524367547,2.1408952720073064 -100.8537331940984 0,0 -102.214858,12.769991" />
      <path d="M -102.214858,12.769991 A 3.261426524367547,2.1408952720073064 -100.8537331940984 0,0 -103.018269,8.579719" />
      <path d="M -103.018269,8.579719 A 3.261426524367547,2.1408952720073064 -100.8537331940984 0,0 -103.422239,8.186834" />
      <path d="M -129.309808,7.016274 A 3.261426524367547,2.1408952720073064 -100.8537331940984 0,0 -129.079801,6.501835" />
      <path d="M -129.079801,6.501835 A 3.261426524367547,2.1408952720073064 -100.8537331940984 0,0 -129.883212,2.311562" />
      <path d="M -129.883212,2.311562 A 3.261426524367547,2.1408952720073064 -100.8537331940984 0,0 -130.287182,1.918677" />
      <path d="M -149.344954,31.591452 A 5.0,3.6206548152316524 103.13335492951154 0,0 -144.5044,26.011968" />
      <path d="M -148.208863,28.774724 A 2.1,1.5206750223972942 -76.86664507048847 0,1 -148.686021,28.767305" />
      <path d="M -148.686021,28.767305 A 2.1,1.5206750223972942 -76.86664507048847 0,1 -147.731704,24.677161" />
      <path d="M -147.731704,24.677161 A 2.1,1.5206750223972942 -76.86664507048847 0,1 -148.208863,28.774724" />
      <path d="M -133.225988,35.352346 A 5.0,3.6206548152316524 103.13335492951154 0,0 -128.385434,29.772862" />
      <path d="M -68.318319,50.459489 A 5.0,3.6206548152316524 103.13335492951154 0,0 -63.909571,44.816438" />
      <path d="M -67.614033,49.110417 A 3.6666668568404197,2.6551470022139148 -76.86664507048847 0,1 -67.614033,41.942989 A 3.6666668568404197,2.6551470022139148 -76.86664507048847 0,1 -67.614033,49.110417" />
      <line x1="-128.385434" y1="24.885979" x2="-129.867219" y2="25.170085" />
      <path d="M -132.089897,32.535618 A 2.1,1.5206750223972942 103.13335492951154 0,0 -131.612738,28.438055" />
      <path d="M -131.612738,28.438055 A 2.1,1.5206750223972942 103.13335492951154 0,0 -132.567055,32.528199" />
      <path d="M -132.567055,32.528199 A 2.1,1.5206750223972942 103.13335492951154 0,0 -132.089897,32.535618" />
      <path d="M -84.869091,46.635029 A 5.0,3.6206548152316524 103.13335492951154 0,0 -80.028536,41.055544" />
      <line x1="-112.266468" y1="28.646873" x2="-113.748253" y2="28.930979" />
      <line x1="-80.028536" y1="36.168661" x2="-81.510322" y2="36.452768" />
      <path d="M -83.732999,43.8183 A 2.1,1.5206750223972942 103.13335492951154 0,0 -83.255841,39.720737" />
      <path d="M -83.255841,39.720737 A 2.1,1.5206750223972942 103.13335492951154 0,0 -84.210158,43.810881" />
      <path d="M -84.210158,43.810881 A 2.1,1.5206750223972942 103.13335492951154 0,0 -83.732999,43.8183" />
      <path d="M -117.107022,39.11324 A 5.0,3.6206548152316524 103.13335492951154 0,0 -112.266468,33.533756" />
      <path d="M -115.970931,36.296512 A 2.1,1.5206750223972942 103.13335492951154 0,0 -115.493773,32.198949" />
      <path d="M -115.493773,32.198949 A 2.1,1.5206750223972942 103.13335492951154 0,0 -116.448089,36.289093" />
      <path d="M -116.448089,36.289093 A 2.1,1.5206750223972942 103.13335492951154 0,0 -115.970931,36.296512" />
      <line x1="-96.147502" y1="32.407767" x2="-97.629287" y2="32.691874" />
      <path d="M -100.988056,42.874134 A 5.0,3.6206548152316524 103.13335492951154 0,0 -96.147502,37.29465" />
      <path d="M -99.851965,40.057406 A 2.1,1.5206750223972942 103.13335492951154 0,0 -99.374807,35.959843" />
      <path d="M -99.374807,35.959843 A 2.1,1.5206750223972942 103.13335492951154 0,0 -100.329123,40.049987" />
      <path d="M -100.329123,40.049987 A 2.1,1.5206750223972942 103.13335492951154 0,0 -99.851965,40.057406" />
      <path d="M -67.614033,47.579194 A 2.1,1.5206750223972942 -76.86664507048847 0,1 -68.091192,47.571775" />
      <path d="M -68.091192,47.571775 A 2.1,1.5206750223972942 -76.86664507048847 0,1 -67.136875,43.481631" />
      <path d="M -67.136875,43.481631 A 2.1,1.5206750223972942 -76.86664507048847 0,1 -67.614033,47.579194" />
      <path d="M -67.614033,47.481456 A 2.0,1.448261926092661 -76.86664507048847 0,1 -68.06847,47.474391" />
      <path d="M -68.06847,47.474391 A 2.0,1.448261926092661 -76.86664507048847 0,1 -67.159597,43.579016" />
      <path d="M -67.159597,43.579016 A 2.0,1.448261926092661 -76.86664507048847 0,1 -67.614033,47.481456" />
      <path d="M -148.208863,28.676986 A 2.0,1.448261926092661 -76.86664507048847 0,1 -148.663299,28.669921" />
      <path d="M -148.663299,28.669921 A 2.0000002694690466,1.4482621212235414 -76.86664507048847 0,1 -147.754426,24.774545" />
      <path d="M -147.754426,24.774545 A 2.0,1.448261926092661 -76.86664507048847 0,1 -148.208863,28.676986" />
      <line x1="-121.187664" y1="47.764531" x2="-146.852935" y2="33.137863" />
      <line x1="-121.187664" y1="47.764531" x2="-40.592835" y2="66.569002" />
      <line x1="-40.592835" y1="66.569002" x2="-66.258106" y2="51.942334" />
      <path d="M -68.950577,54.928994 A 3.261426524367547,0.47305087789017414 21.987576672290015 0,1 -63.880961,57.388628" />
      <path d="M -63.880961,57.388628 A 3.261426524367547,0.47305087789017414 21.987576672290015 0,1 -69.880063,54.966346" />
      <path d="M -69.880063,54.966346 A 3.261426524367547,0.47305087789017414 21.987576672290015 0,1 -68.950577,54.928994" />
      <path d="M -95.81552,48.660837 A 3.261426524367547,0.47305087789017414 21.987576672290015 0,1 -90.745904,51.120471" />
      <path d="M -90.745904,51.120471 A 3.261426524367547,0.47305087789017414 21.987576672290015 0,1 -96.745006,48.698189" />
      <path d="M -96.745006,48.698189 A 3.261426524367547,0.47305087789017414 21.987576672290015 0,1 -95.81552,48.660837" />
      <path d="M -122.680463,42.392681 A 3.261426524367547,0.47305087789017414 21.987576672290015 0,1 -117.610847,44.852314" />
      <path d="M -117.610847,44.852314 A 3.261426524367547,0.47305087789017414 21.987576672290015 0,1 -123.609949,42.430032" />
      <path d="M -123.609949,42.430032 A 3.261426524367547,0.47305087789017414 21.987576672290015 0,1 -122.680463,42.392681" />
      <line x1="-120.446772" y1="45.929613" x2="-121.187664" y2="47.764531" />
      <line x1="-146.112043" y1="31.302945" x2="-120.446772" y2="45.929613" />
      <line x1="-146.496851" y1="32.255975" x2="-146.112043" y2="31.302945" />
      <line x1="-120.446772" y1="45.929613" x2="-39.851943" y2="64.734083" />
      <line x1="-39.851943" y1="64.734083" x2="-40.592835" y2="66.569002" />
      <line x1="-130.733969" y1="36.898758" x2="-129.993077" y2="35.063839" />
      <line x1="-146.112043" y1="31.302945" x2="-129.993077" y2="35.063839" />
      <line x1="-65.517213" y1="50.107415" x2="-64.719871" y2="50.561821" />
      <line x1="-59.551963" y1="53.507018" x2="-39.851943" y2="64.734083" />
      <line x1="-65.827968" y1="50.877039" x2="-65.517213" y2="50.107415" />
      <line x1="-129.993077" y1="35.063839" x2="-128.881738" y2="32.311461" />
      <path d="M -128.881738,32.311461 A 5.0,3.6206548152316524 103.13335492951154 0,0 -130.953805,25.613908" />
      <path d="M -133.437324,29.715227 A 2.1,1.5206750223972942 103.13335492951154 0,0 -132.567055,32.528199" />
      <path d="M -132.567055,32.528199 A 2.1,1.5206750223972942 103.13335492951154 1,0 -131.612738,28.438055" />
      <path d="M -131.612738,28.438055 A 2.1,1.5206750223972942 103.13335492951154 0,0 -133.437324,29.715227" />
      <line x1="-81.636179" y1="46.346521" x2="-65.517213" y2="50.107415" />
      <line x1="-82.020988" y1="47.299551" x2="-81.636179" y2="46.346521" />
      <path d="M -112.762772,36.072355 A 5.0,3.6206548152316524 103.13335492951154 0,0 -114.83484,29.374802" />
      <line x1="-81.636179" y1="46.346521" x2="-80.52484" y2="43.594143" />
      <path d="M -80.52484,43.594143 A 5.0,3.6206548152316524 103.13335492951154 0,0 -82.596908,36.89659" />
      <path d="M -85.080426,40.997909 A 2.1,1.5206750223972942 103.13335492951154 0,0 -84.210158,43.810881" />
      <path d="M -84.210158,43.810881 A 2.1,1.5206750223972942 103.13335492951154 1,0 -83.255841,39.720737" />
      <path d="M -83.255841,39.720737 A 2.1,1.5206750223972942 103.13335492951154 0,0 -85.080426,40.997909" />
      <line x1="-114.25892" y1="39.777763" x2="-113.874111" y2="38.824733" />
      <line x1="-113.874111" y1="38.824733" x2="-112.762772" y2="36.072355" />
      <path d="M -117.318358,33.476121 A 2.1,1.5206750223972942 103.13335492951154 0,0 -116.448089,36.289093" />
      <path d="M -116.448089,36.289093 A 2.1,1.5206750223972942 103.13335492951154 1,0 -115.493773,32.198949" />
      <path d="M -115.493773,32.198949 A 2.1,1.5206750223972942 103.13335492951154 0,0 -117.318358,33.476121" />
      <path d="M -96.643806,39.833249 A 5.0,3.6206548152316524 103.13335492951154 0,0 -98.715874,33.135696" />
      <line x1="-98.496038" y1="44.420546" x2="-97.755145" y2="42.585627" />
      <line x1="-113.874111" y1="38.824733" x2="-97.755145" y2="42.585627" />
      <line x1="-97.755145" y1="42.585627" x2="-96.643806" y2="39.833249" />
      <path d="M -101.199392,37.237015 A 2.1,1.5206750223972942 103.13335492951154 0,0 -100.329123,40.049987" />
      <path d="M -100.329123,40.049987 A 2.1,1.5206750223972942 103.13335492951154 1,0 -99.374807,35.959843" />
      <path d="M -99.374807,35.959843 A 2.1,1.5206750223972942 103.13335492951154 0,0 -101.199392,37.237015" />
      <path d="M -69.325208,52.458337 A 5.0,0.7252208111324964 -158.01242332771 0,0 -70.750177,52.5156" />
      <path d="M -70.750177,52.5156 A 5.0,0.7252208111324964 -158.01242332771 0,0 -61.553124,56.229131" />
      <path d="M -61.553124,56.229131 A 5.0,0.7252208111324964 -158.01242332771 0,0 -69.325208,52.458337" />
      <path d="M -96.190151,46.19018 A 5.0,0.7252208111324964 -158.01242332771 0,0 -97.61512,46.247443" />
      <path d="M -97.61512,46.247443 A 5.0,0.7252208111324964 -158.01242332771 0,0 -88.418067,49.960974" />
      <path d="M -88.418067,49.960974 A 5.0,0.7252208111324964 -158.01242332771 0,0 -96.190151,46.19018" />
      <path d="M -123.055095,39.922023 A 5.0,0.7252208111324964 -158.01242332771 0,0 -124.480063,39.979286" />
      <path d="M -124.480063,39.979286 A 5.0,0.7252208111324964 -158.01242332771 0,0 -115.283011,43.692817" />
      <path d="M -115.283011,43.692817 A 5.0,0.7252208111324964 -158.01242332771 0,0 -123.055095,39.922023" />
      <line x1="-129.993077" y1="35.063839" x2="-113.874111" y2="38.824733" />
      <line x1="-97.755145" y1="42.585627" x2="-81.636179" y2="46.346521" />
      <line x1="-207.299057" y1="19.034511" x2="-14.809526" y2="128.73452" />
      <line x1="-14.809526" y1="128.73452" x2="-18.513989" y2="137.909114" />
      <line x1="186.677547" y1="175.745696" x2="-14.809526" y2="128.73452" />
      <path d="M -68.782837,55.024589 A 3.0,0.4351324866794982 -158.01242332771 0,0 -69.639737,54.998373" />
      <path d="M -69.639737,54.998373 A 3.0,0.4351324866794982 -158.01242332771 0,0 -64.076147,57.244806" />
      <path d="M -64.076147,57.244806 A 3.0,0.4351324866794982 -158.01242332771 0,0 -68.782837,55.024589" />
      <path d="M -95.64778,48.756432 A 3.0,0.4351324866794982 -158.01242332771 0,0 -96.50468,48.730216" />
      <path d="M -96.50468,48.730216 A 3.0,0.4351324866794982 -158.01242332771 0,0 -90.94109,50.976649" />
      <path d="M -90.94109,50.976649 A 3.0,0.4351324866794982 -158.01242332771 0,0 -95.64778,48.756432" />
      <path d="M -122.512724,42.488276 A 3.0,0.4351324866794982 -158.01242332771 0,0 -123.369623,42.462059" />
      <path d="M -123.369623,42.462059 A 3.0,0.4351324866794982 -158.01242332771 0,0 -117.806033,44.708492" />
      <path d="M -117.806033,44.708492 A 3.0,0.4351324866794982 -158.01242332771 0,0 -122.512724,42.488276" />
      <line x1="-131.636836" y1="1.7653" x2="-124.22791" y2="0.34477" />
      <line x1="-130.507021" y1="7.657967" x2="-123.098096" y2="6.237436" />
      <line x1="-104.771893" y1="8.033457" x2="-97.362967" y2="6.612927" />
      <line x1="-103.642078" y1="13.926124" x2="-96.233152" y2="12.505593" />
      <line x1="-77.906949" y1="14.301614" x2="-70.498024" y2="12.881084" />
      <line x1="-76.777135" y1="20.194281" x2="-69.368209" y2="18.77375" />
      <line x1="-133.225988" y1="35.352346" x2="-133.600956" y2="35.264858" />
      <line x1="-100.988056" y1="42.874134" x2="-101.363024" y2="42.786647" />
      <line x1="-76.153326" y1="14.847876" x2="-77.00144" y2="13.852573" />
      <line x1="-75.349915" y1="19.038148" x2="-75.769754" y2="20.276559" />
      <line x1="-103.018269" y1="8.579719" x2="-103.866383" y2="7.584416" />
      <line x1="-102.214858" y1="12.769991" x2="-102.634697" y2="14.008402" />
      <line x1="-129.883212" y1="2.311562" x2="-130.731326" y2="1.316259" />
      <line x1="-129.079801" y1="6.501835" x2="-129.49964" y2="7.740246" />
      <line x1="-132.567055" y1="32.528199" x2="-148.686021" y2="28.767305" />
      <line x1="-131.612738" y1="28.438055" x2="-147.731704" y2="24.677161" />
      <line x1="-68.091192" y1="47.571775" x2="-84.210158" y2="43.810881" />
      <line x1="-67.136875" y1="43.481631" x2="-83.255841" y2="39.720737" />
      <line x1="-100.329123" y1="40.049987" x2="-116.448089" y2="36.289093" />
      <line x1="-99.374807" y1="35.959843" x2="-115.493773" y2="32.198949" />
      <line x1="-147.754426" y1="24.774545" x2="-67.159597" y2="43.579016" />
      <line x1="-148.663299" y1="28.669921" x2="-68.06847" y2="47.474391" />
      <line x1="-114.83484" y1="29.374802" x2="-115.388861" y2="29.245537" />
      <line x1="-82.596908" y1="36.89659" x2="-83.150929" y2="36.767325" />
      <line x1="-63.880961" y1="57.388628" x2="-61.553124" y2="56.229131" />
      <line x1="-69.880063" y1="54.966346" x2="-70.750177" y2="52.5156" />
      <line x1="-90.745904" y1="51.120471" x2="-88.418067" y2="49.960974" />
      <line x1="-96.745006" y1="48.698189" x2="-97.61512" y2="46.247443" />
      <line x1="-117.610847" y1="44.852314" x2="-115.283011" y2="43.692817" />
      <line x1="-123.609949" y1="42.430032" x2="-124.480063" y2="39.979286" />
      <line x1="-116.448089" y1="36.289093" x2="-132.567055" y2="32.528199" />
      <line x1="-115.493773" y1="32.198949" x2="-131.612738" y2="28.438055" />
      <line x1="-84.210158" y1="43.810881" x2="-100.329123" y2="40.049987" />
      <line x1="-83.255841" y1="39.720737" x2="-99.374807" y2="35.959843" />
      <line x1="-73.3442" y1="64.172967" x2="-69.639737" y2="54.998373" />
      <line x1="-67.78061" y1="66.4194" x2="-64.076147" y2="57.244806" />
      <line x1="-100.209143" y1="57.90481" x2="-96.50468" y2="48.730216" />
      <line x1="-94.645553" y1="60.151243" x2="-90.94109" y2="50.976649" />
      <line x1="-127.074086" y1="51.636653" x2="-123.369623" y2="42.462059" />
      <line x1="-121.510496" y1="53.883086" x2="-117.806033" y2="44.708492" />
      <line x1="-144.5044" y1="26.011968" x2="-128.385434" y2="29.772862" />
      <line x1="-80.028536" y1="41.055544" x2="-63.909571" y2="44.816438" />
      <line x1="-112.266468" y1="33.533756" x2="-96.147502" y2="37.29465" />
      <path d="M -66.718535,50.622524 A 5.0,3.6206548152316524 -76.86664507048847 0,1 -67.854627,50.604861" />
      <path d="M -65.582444,40.866423 A 5.0,3.6206548152316524 -76.86664507048847 0,1 -66.718535,50.622524" />
      <path d="M -64.686946,41.075361 A 5.0,3.6206548152316524 -76.86664507048847 0,1 -65.823037,50.831463" />
      <line x1="-128.881738" y1="32.311461" x2="-112.762772" y2="36.072355" />
      <line x1="-96.643806" y1="39.833249" x2="-80.52484" y2="43.594143" />
    </g>
  </g>
</svg>